<?xml version="1.0" encoding="UTF-8" standalone="no"?>
<svg
   width="64"
   height="64"
   version="1.1"
   id="svg73"
   sodipodi:docname="device_usb.svg"
   inkscape:version="1.3.2 (091e20ef0f, 2023-11-25)"
   xmlns:inkscape="http://www.inkscape.org/namespaces/inkscape"
   xmlns:sodipodi="http://sodipodi.sourceforge.net/DTD/sodipodi-0.dtd"
   xmlns="http://www.w3.org/2000/svg"
   xmlns:svg="http://www.w3.org/2000/svg"
   xmlns:rdf="http://www.w3.org/1999/02/22-rdf-syntax-ns#"
   xmlns:cc="http://creativecommons.org/ns#"
   xmlns:dc="http://purl.org/dc/elements/1.1/">
  <metadata
     id="metadata77">
    <rdf:RDF>
      <cc:Work
         rdf:about="">
        <dc:format>image/svg+xml</dc:format>
        <dc:type
           rdf:resource="http://purl.org/dc/dcmitype/StillImage" />
      </cc:Work>
    </rdf:RDF>
  </metadata>
  <sodipodi:namedview
     pagecolor="#f5f7fa"
     bordercolor="#666666"
     borderopacity="1"
     objecttolerance="10"
     gridtolerance="10"
     guidetolerance="10"
     inkscape:pageopacity="0"
     inkscape:pageshadow="2"
     inkscape:window-width="1377"
     inkscape:window-height="886"
     id="namedview75"
     showgrid="false"
     inkscape:zoom="4.4470387"
     inkscape:cx="47.784608"
     inkscape:cy="14.054296"
     inkscape:window-x="181"
     inkscape:window-y="77"
     inkscape:window-maximized="0"
     inkscape:current-layer="g877"
     inkscape:document-rotation="0"
     inkscape:pagecheckerboard="0"
     inkscape:showpageshadow="2"
     inkscape:deskcolor="#d1d1d1" />
  <defs
     id="defs29">
    <linearGradient
       id="b"
       x1="399.57"
       x2="399.57"
       y1="545.8"
       y2="517.8"
       gradientTransform="matrix(2.1429,0,0,2.1429,-825.86391,-1107.6662)"
       gradientUnits="userSpaceOnUse">
      <stop
         stop-color="#3889e9"
         offset="0"
         id="stop2" />
      <stop
         stop-color="#5ea5fb"
         offset="1"
         id="stop4" />
    </linearGradient>
    <linearGradient
       id="d"
       x2="1"
       gradientTransform="matrix(14.905727,-4.7106182,4.7106182,14.905727,322.04962,998.26962)"
       gradientUnits="userSpaceOnUse">
      <stop
         stop-color="#fafafa"
         offset="0"
         id="stop7" />
      <stop
         stop-color="#aaa"
         offset="1"
         id="stop8" />
    </linearGradient>
    <linearGradient
       id="e"
       x2="1"
       gradientTransform="matrix(21.439909,0,0,21.439909,26.63554,1159.7788)"
       gradientUnits="userSpaceOnUse">
      <stop
         stop-color="#f0f0f0"
         offset="0"
         id="stop9" />
      <stop
         stop-color="#b7f1ff"
         offset="1"
         id="stop10" />
    </linearGradient>
  </defs>
  <circle
     cx="32.516094"
     cy="31.877844"
     r="0"
     fill="url(#b)"
     stroke-width="1.5715"
     id="circle41"
     style="fill:url(#b)" />
  <g
     aria-label="GZ"
     transform="matrix(1.2212657,0,0,0.81882264,0.4960938,-0.1661539)"
     id="text93"
     style="font-weight:bold;font-size:11.5263px;line-height:1.25;font-family:sans-serif;-inkscape-font-specification:'sans-serif Bold';fill:#f2f2f2;stroke-width:0.288159" />
  <g
     id="g877"
     transform="matrix(1.1,0,0,1.1,-3.1845928,-3.2065454)">
    <rect
       x="6.3010068"
       y="5.4939413"
       width="51.635597"
       height="53.148327"
       rx="10.980581"
       ry="10.720582"
       fill="url(#linearGradient862)"
       stroke-width="3.0541"
       id="rect35-7-3"
       style="fill:#414141;fill-opacity:1;stroke:#dfdfdf;stroke-width:2.27272727;stroke-dasharray:none;stroke-opacity:1" />
    <g
       transform="matrix(1.3286708,0,0,1.3286708,-10.53147,-10.511514)"
       id="g2"
       style="clip-rule:evenodd;fill-rule:evenodd;stroke-linejoin:round;stroke-miterlimit:2;fill:#dfdfdf;fill-opacity:1">
      <path
         d="m 42.711,28.673 c 0.244,0.244 0.366,0.532 0.366,0.865 V 32 c 0,2.833 -0.946,5.298 -2.837,7.394 -1.891,2.096 -4.227,3.298 -7.009,3.606 v 2.538 h 4.922 c 0.334,0 0.623,0.122 0.866,0.366 0.243,0.243 0.366,0.532 0.366,0.865 0,0.333 -0.123,0.622 -0.366,0.865 C 38.776,47.878 38.487,48 38.153,48 H 25.846 c -0.333,0 -0.622,-0.122 -0.865,-0.366 -0.244,-0.243 -0.366,-0.532 -0.366,-0.865 0,-0.333 0.122,-0.622 0.366,-0.865 0.243,-0.244 0.532,-0.366 0.865,-0.366 h 4.923 V 43 C 27.987,42.692 25.65,41.49 23.759,39.394 21.868,37.298 20.923,34.833 20.923,32 v -2.462 c 0,-0.333 0.122,-0.621 0.365,-0.865 0.244,-0.244 0.532,-0.365 0.866,-0.365 0.333,0 0.622,0.121 0.865,0.365 0.244,0.244 0.366,0.532 0.366,0.865 V 32 c 0,2.372 0.842,4.401 2.528,6.086 1.686,1.686 3.715,2.529 6.087,2.529 2.372,0 4.401,-0.843 6.086,-2.529 C 39.772,36.4 40.615,34.372 40.615,32 v -2.462 c 0,-0.333 0.122,-0.621 0.366,-0.865 0.243,-0.244 0.532,-0.365 0.865,-0.365 0.333,0 0.622,0.121 0.865,0.365 z M 32,38.153 c 1.692,0 3.141,-0.602 4.346,-1.807 1.205,-1.205 1.807,-2.654 1.807,-4.346 v -9.846 c 0,-1.692 -0.602,-3.141 -1.807,-4.346 C 35.141,16.603 33.692,16 32,16 c -1.693,0 -3.141,0.603 -4.346,1.808 -1.205,1.205 -1.808,2.654 -1.808,4.346 V 32 c 0,1.692 0.603,3.141 1.808,4.346 1.205,1.205 2.653,1.807 4.346,1.807 z"
         style="fill:#dfdfdf;fill-rule:nonzero;fill-opacity:1"
         id="path1" />
    </g>
  </g>
</svg>
