<?xml version="1.0" encoding="UTF-8" standalone="no"?>
<svg
   width="64"
   height="64"
   version="1.1"
   id="svg73"
   sodipodi:docname="device_usb.svg"
   inkscape:version="1.3.2 (091e20ef0f, 2023-11-25)"
   xmlns:inkscape="http://www.inkscape.org/namespaces/inkscape"
   xmlns:sodipodi="http://sodipodi.sourceforge.net/DTD/sodipodi-0.dtd"
   xmlns="http://www.w3.org/2000/svg"
   xmlns:svg="http://www.w3.org/2000/svg"
   xmlns:rdf="http://www.w3.org/1999/02/22-rdf-syntax-ns#"
   xmlns:cc="http://creativecommons.org/ns#"
   xmlns:dc="http://purl.org/dc/elements/1.1/">
  <metadata
     id="metadata77">
    <rdf:RDF>
      <cc:Work
         rdf:about="">
        <dc:format>image/svg+xml</dc:format>
        <dc:type
           rdf:resource="http://purl.org/dc/dcmitype/StillImage" />
      </cc:Work>
    </rdf:RDF>
  </metadata>
  <sodipodi:namedview
     pagecolor="#f5f7fa"
     bordercolor="#666666"
     borderopacity="1"
     objecttolerance="10"
     gridtolerance="10"
     guidetolerance="10"
     inkscape:pageopacity="0"
     inkscape:pageshadow="2"
     inkscape:window-width="1377"
     inkscape:window-height="886"
     id="namedview75"
     showgrid="false"
     inkscape:zoom="4.4470387"
     inkscape:cx="47.784608"
     inkscape:cy="14.054296"
     inkscape:window-x="181"
     inkscape:window-y="77"
     inkscape:window-maximized="0"
     inkscape:current-layer="g877"
     inkscape:document-rotation="0"
     inkscape:pagecheckerboard="0"
     inkscape:showpageshadow="2"
     inkscape:deskcolor="#d1d1d1" />
  <defs
     id="defs29">
    <linearGradient
       id="b"
       x1="399.57"
       x2="399.57"
       y1="545.8"
       y2="517.8"
       gradientTransform="matrix(2.1429,0,0,2.1429,-825.86391,-1107.6662)"
       gradientUnits="userSpaceOnUse">
      <stop
         stop-color="#3889e9"
         offset="0"
         id="stop2" />
      <stop
         stop-color="#5ea5fb"
         offset="1"
         id="stop4" />
    </linearGradient>
    <linearGradient
       id="d"
       x2="1"
       gradientTransform="matrix(14.905727,-4.7106182,4.7106182,14.905727,322.04962,998.26962)"
       gradientUnits="userSpaceOnUse">
      <stop
         stop-color="#fafafa"
         offset="0"
         id="stop7" />
      <stop
         stop-color="#aaa"
         offset="1"
         id="stop8" />
    </linearGradient>
    <linearGradient
       id="e"
       x2="1"
       gradientTransform="matrix(21.439909,0,0,21.439909,26.63554,1159.7788)"
       gradientUnits="userSpaceOnUse">
      <stop
         stop-color="#f0f0f0"
         offset="0"
         id="stop9" />
      <stop
         stop-color="#b7f1ff"
         offset="1"
         id="stop10" />
    </linearGradient>
  </defs>
  <circle
     cx="32.516094"
     cy="31.877844"
     r="0"
     fill="url(#b)"
     stroke-width="1.5715"
     id="circle41"
     style="fill:url(#b)" />
  <g
     aria-label="GZ"
     transform="matrix(1.2212657,0,0,0.81882264,0.4960938,-0.1661539)"
     id="text93"
     style="font-weight:bold;font-size:11.5263px;line-height:1.25;font-family:sans-serif;-inkscape-font-specification:'sans-serif Bold';fill:#f2f2f2;stroke-width:0.288159" />
  <g
     id="g877"
     transform="matrix(1.1,0,0,1.1,-3.1845928,-3.2065454)">
    <rect
       x="6.3010068"
       y="5.4939413"
       width="51.635597"
       height="53.148327"
       rx="10.980581"
       ry="10.720582"
       fill="url(#linearGradient862)"
       stroke-width="3.0541"
       id="rect35-7-3"
       style="fill:#414141;fill-opacity:1;stroke:#dfdfdf;stroke-width:2.27272727;stroke-dasharray:none;stroke-opacity:1" />
    <g
       transform="matrix(1.2078825,0,0,1.2078825,-461.52071,-600.68005)"
       id="g2"
       style="clip-rule:evenodd;fill-rule:evenodd;stroke-linejoin:round;stroke-miterlimit:2;fill:#dfdfdf;fill-opacity:1">
      <path
         d="m 420.498,521.55 c 0.034,-0.117 0.035,-0.24 0.035,-0.368 v -1.367 c 0,-3.235 -1.221,-6.26 -3.471,-8.515 -2.253,-2.258 -5.265,-3.502 -8.5,-3.502 -3.234,0 -6.233,1.244 -8.486,3.502 -2.25,2.255 -3.467,5.28 -3.467,8.515 v 1.367 c 0,0.128 0.001,0.251 0.035,0.368 -2.062,0.163 -3.709,2.362 -3.709,5.042 0,2.692 1.648,4.899 3.723,5.045 0.555,0.748 1.45,1.202 2.403,1.202 1.656,0 3.002,-1.348 3.002,-3.006 v -6.482 c 0,-1.606 -1.232,-2.922 -2.815,-3.002 v -0.534 c 0,-5.259 4.075,-9.378 9.323,-9.378 5.248,0 9.324,4.119 9.324,9.378 v 0.534 c -1.584,0.081 -2.815,1.396 -2.815,3.002 v 6.482 c 0,1.084 0.577,2.036 1.439,2.565 -0.983,1.445 -2.364,2.589 -3.999,3.287 -0.447,-0.498 -1.096,-0.813 -1.816,-0.813 h -3.385 c -1.347,0 -2.442,1.096 -2.442,2.442 v 0.042 c 0,1.347 1.095,2.442 2.442,2.442 h 3.385 c 0.99,0 1.844,-0.593 2.227,-1.443 1.616,-0.588 3.093,-1.52 4.336,-2.76 0.925,-0.923 1.68,-1.976 2.249,-3.12 0.379,-0.204 0.714,-0.489 0.973,-0.838 2.075,-0.146 3.719,-2.353 3.719,-5.045 0,-2.68 -1.647,-4.879 -3.71,-5.042 z"
         style="fill:#dfdfdf;fill-rule:nonzero;fill-opacity:1"
         id="path1" />
    </g>
  </g>
</svg>
