<?xml version="1.0" encoding="UTF-8" standalone="no"?>
<svg
   width="64"
   height="64"
   version="1.1"
   id="svg73"
   sodipodi:docname="hwloc.svg"
   inkscape:version="1.3.2 (091e20ef0f, 2023-11-25)"
   xmlns:inkscape="http://www.inkscape.org/namespaces/inkscape"
   xmlns:sodipodi="http://sodipodi.sourceforge.net/DTD/sodipodi-0.dtd"
   xmlns="http://www.w3.org/2000/svg"
   xmlns:svg="http://www.w3.org/2000/svg"
   xmlns:rdf="http://www.w3.org/1999/02/22-rdf-syntax-ns#"
   xmlns:cc="http://creativecommons.org/ns#"
   xmlns:dc="http://purl.org/dc/elements/1.1/">
  <metadata
     id="metadata77">
    <rdf:RDF>
      <cc:Work
         rdf:about="">
        <dc:format>image/svg+xml</dc:format>
        <dc:type
           rdf:resource="http://purl.org/dc/dcmitype/StillImage" />
      </cc:Work>
    </rdf:RDF>
  </metadata>
  <sodipodi:namedview
     pagecolor="#f5f7fa"
     bordercolor="#666666"
     borderopacity="1"
     objecttolerance="10"
     gridtolerance="10"
     guidetolerance="10"
     inkscape:pageopacity="0"
     inkscape:pageshadow="2"
     inkscape:window-width="1377"
     inkscape:window-height="886"
     id="namedview75"
     showgrid="false"
     inkscape:zoom="4.4470387"
     inkscape:cx="47.784608"
     inkscape:cy="14.054296"
     inkscape:window-x="181"
     inkscape:window-y="77"
     inkscape:window-maximized="0"
     inkscape:current-layer="g877"
     inkscape:document-rotation="0"
     inkscape:pagecheckerboard="0"
     inkscape:showpageshadow="2"
     inkscape:deskcolor="#d1d1d1" />
  <defs
     id="defs29">
    <linearGradient
       id="b"
       x1="399.57"
       x2="399.57"
       y1="545.8"
       y2="517.8"
       gradientTransform="matrix(2.1429,0,0,2.1429,-825.86391,-1107.6662)"
       gradientUnits="userSpaceOnUse">
      <stop
         stop-color="#3889e9"
         offset="0"
         id="stop2" />
      <stop
         stop-color="#5ea5fb"
         offset="1"
         id="stop4" />
    </linearGradient>
    <linearGradient
       id="d"
       x2="1"
       gradientTransform="matrix(14.905727,-4.7106182,4.7106182,14.905727,322.04962,998.26962)"
       gradientUnits="userSpaceOnUse">
      <stop
         stop-color="#fafafa"
         offset="0"
         id="stop7" />
      <stop
         stop-color="#aaa"
         offset="1"
         id="stop8" />
    </linearGradient>
    <linearGradient
       id="e"
       x2="1"
       gradientTransform="matrix(21.439909,0,0,21.439909,26.63554,1159.7788)"
       gradientUnits="userSpaceOnUse">
      <stop
         stop-color="#f0f0f0"
         offset="0"
         id="stop9" />
      <stop
         stop-color="#b7f1ff"
         offset="1"
         id="stop10" />
    </linearGradient>
  </defs>
  <circle
     cx="32.516094"
     cy="31.877844"
     r="0"
     fill="url(#b)"
     stroke-width="1.5715"
     id="circle41"
     style="fill:url(#b)" />
  <g
     aria-label="GZ"
     transform="matrix(1.2212657,0,0,0.81882264,0.4960938,-0.1661539)"
     id="text93"
     style="font-weight:bold;font-size:11.5263px;line-height:1.25;font-family:sans-serif;-inkscape-font-specification:'sans-serif Bold';fill:#f2f2f2;stroke-width:0.288159" />
  <g
     id="g877"
     transform="matrix(1.1,0,0,1.1,-3.1845928,-3.2065454)">
    <rect
       x="6.3010068"
       y="5.4939413"
       width="51.635597"
       height="53.148327"
       rx="10.980581"
       ry="10.720582"
       fill="url(#linearGradient862)"
       stroke-width="3.0541"
       id="rect35-7-3"
       style="fill:#414141;fill-opacity:1;stroke:#dfdfdf;stroke-width:2.27272727;stroke-dasharray:none;stroke-opacity:1" />
    <path
       id="path50"
       style="fill:#dfdfdf;fill-opacity:1;stroke:none;stroke-width:1.21;stroke-dasharray:none;stroke-dashoffset:2.2;stroke-opacity:0.3"
       d="m 32.115284,13.724239 c -1.265817,-2.54e-4 -2.519518,0.08373 -3.325137,0.252872 -1.736995,0.364683 -3.941076,1.133428 -5.263027,1.836268 l -1.162735,0.619181 h -1.755917 c -1.557271,0.0012 -1.834573,0.03911 -2.450723,0.330857 -0.84069,0.398116 -1.485032,1.053426 -1.864629,1.892988 -0.23434,0.51829 -0.283417,0.915919 -0.285956,2.330196 l -0.0024,1.70629 -0.760919,1.559766 c -1.467706,3.015465 -1.941635,5.074733 -1.933164,8.370742 0.0085,3.295951 0.526025,5.471279 2.013516,8.446367 l 0.680625,1.356523 v 1.739374 c 0,1.223625 0.06027,1.885463 0.205607,2.233304 0.353765,0.846672 1.015181,1.546211 1.848085,1.95443 0.719414,0.352604 0.974513,0.396506 2.739045,0.465569 1.78857,0.06997 1.998955,0.106194 2.580702,0.449007 1.399986,0.824967 3.78132,1.63633 5.827851,1.982796 0.573295,0.09704 1.826092,0.18156 2.781582,0.18906 2.988837,0.02332 5.629297,-0.56739 8.269121,-1.850447 l 1.526677,-0.742072 1.876447,-0.05908 c 1.613289,-0.05062 1.964953,-0.105281 2.502717,-0.3805 0.851982,-0.43602 1.34918,-0.925004 1.777187,-1.748827 0.325208,-0.625952 0.364722,-0.881188 0.413566,-2.571248 l 0.05437,-1.874082 0.600275,-1.181641 c 1.28192,-2.527621 1.865005,-4.855004 1.970977,-7.853185 0.115253,-3.260393 -0.428292,-5.895753 -1.793734,-8.685057 l -0.713707,-1.460478 -0.08507,-1.876445 C 48.292269,19.039059 48.079437,18.356463 47.245011,17.522035 46.3847,16.661724 45.892129,16.506217 43.870242,16.456196 l -1.80791,-0.0449 -1.529043,-0.742071 c -1.702427,-0.827574 -3.176972,-1.324119 -5.01961,-1.689743 -0.85414,-0.169453 -2.13258,-0.25498 -3.398398,-0.255235 z m -12.957871,4.570587 c 0.06549,-0.0048 0.132595,-0.0051 0.198516,0 0.316428,0.02415 0.632484,0.162191 0.893321,0.423026 0.673755,0.673755 0.547047,1.675822 -0.274141,2.176582 -1.223457,0.746063 -2.617899,-0.540982 -1.961524,-1.810274 0.249976,-0.483395 0.685313,-0.755704 1.143828,-0.789334 z m 25.977186,0 c 0.358411,0.01939 0.679476,0.192755 0.954767,0.51992 0.479627,0.570002 0.468372,1.235374 -0.03063,1.789005 -0.461197,0.511591 -1.180972,0.653187 -1.73465,0.342674 -0.481082,-0.269799 -0.664083,-0.611832 -0.664083,-1.247812 0,-0.688882 0.213026,-1.029654 0.7917,-1.271446 0.2401,-0.10032 0.467943,-0.143969 0.682985,-0.132341 z m -13.012224,0.661718 c 4.347769,-0.0144 8.774547,2.269074 11.253943,5.872755 0.677629,0.984895 1.644242,3.098751 1.975705,4.320077 0.441372,1.626112 0.441647,5.21095 0.0024,6.796798 -1.350413,4.875095 -4.73461,8.331844 -9.545293,9.748534 -1.712502,0.504308 -4.696792,0.60644 -6.463574,0.219785 -4.013979,-0.878457 -7.337131,-3.399823 -9.238066,-7.004766 -4.578494,-8.682677 1.296436,-19.178118 11.147597,-19.917734 0.288559,-0.02168 0.577474,-0.03449 0.867326,-0.03544 z m 0.05908,9.03246 c -0.08634,0.0011 -0.174818,0.0027 -0.264687,0.0071 -1.78689,0.08625 -3.212415,1.008528 -3.979765,2.573614 -0.467769,0.954061 -0.526253,2.607408 -0.129986,3.663084 0.520358,1.386241 1.720201,2.456517 3.197519,2.854846 1.497863,0.403866 3.042959,0.01795 4.218457,-1.056388 2.062048,-1.884592 2.099353,-4.947211 0.08273,-6.841699 -0.919051,-0.863385 -1.829272,-1.216828 -3.124257,-1.200548 z m 13.0075,16.086854 c 0.255785,0.02151 0.512422,0.117128 0.742071,0.297769 0.715948,0.563162 0.601428,1.878718 -0.198528,2.292384 -1.011178,0.522901 -2.072601,-0.08373 -2.072601,-1.186367 0,-0.877654 0.761636,-1.468655 1.529045,-1.40379 z m -25.922832,0.01418 c 0.653125,0 1.134275,0.327266 1.323437,0.900409 0.20253,0.61368 0.05932,1.109629 -0.441932,1.531408 -1.150946,0.968456 -2.830245,-0.380957 -2.13877,-1.718104 0.272528,-0.527016 0.604132,-0.713713 1.257265,-0.713713 z" />
  </g>
</svg>
