<?xml version="1.0" encoding="UTF-8" standalone="no"?>
<svg
   width="64"
   height="64"
   version="1.1"
   id="svg73"
   sodipodi:docname="audacious.svg"
   inkscape:version="1.4.2 (ebf0e940d0, 2025-05-08)"
   xmlns:inkscape="http://www.inkscape.org/namespaces/inkscape"
   xmlns:sodipodi="http://sodipodi.sourceforge.net/DTD/sodipodi-0.dtd"
   xmlns="http://www.w3.org/2000/svg"
   xmlns:svg="http://www.w3.org/2000/svg"
   xmlns:rdf="http://www.w3.org/1999/02/22-rdf-syntax-ns#"
   xmlns:cc="http://creativecommons.org/ns#"
   xmlns:dc="http://purl.org/dc/elements/1.1/">
  <metadata
     id="metadata77">
    <rdf:RDF>
      <cc:Work
         rdf:about="">
        <dc:format>image/svg+xml</dc:format>
        <dc:type
           rdf:resource="http://purl.org/dc/dcmitype/StillImage" />
      </cc:Work>
    </rdf:RDF>
  </metadata>
  <sodipodi:namedview
     pagecolor="#f5f7fa"
     bordercolor="#666666"
     borderopacity="1"
     objecttolerance="10"
     gridtolerance="10"
     guidetolerance="10"
     inkscape:pageopacity="0"
     inkscape:pageshadow="2"
     inkscape:window-width="1377"
     inkscape:window-height="886"
     id="namedview75"
     showgrid="false"
     inkscape:zoom="6.2890624"
     inkscape:cx="46.350311"
     inkscape:cy="44.124224"
     inkscape:window-x="264"
     inkscape:window-y="75"
     inkscape:window-maximized="0"
     inkscape:current-layer="g877"
     inkscape:document-rotation="0"
     inkscape:pagecheckerboard="0"
     inkscape:showpageshadow="2"
     inkscape:deskcolor="#d1d1d1" />
  <defs
     id="defs29" />
  <circle
     cx="32.516094"
     cy="31.877844"
     r="0"
     fill="url(#b)"
     stroke-width="1.5715"
     id="circle41"
     style="fill:url(#b)" />
  <g
     aria-label="GZ"
     transform="matrix(1.2212657,0,0,0.81882264,0.4960938,-0.1661539)"
     id="text93"
     style="font-weight:bold;font-size:11.5263px;line-height:1.25;font-family:sans-serif;-inkscape-font-specification:'sans-serif Bold';fill:#f2f2f2;stroke-width:0.288159" />
  <g
     id="g877"
     transform="matrix(1.1,0,0,1.1,-3.1845928,-3.2065454)">
    <rect
       x="8.3496294"
       y="8.369586"
       width="47.272728"
       height="47.272728"
       rx="9.8825235"
       ry="9.6485243"
       fill="url(#linearGradient862)"
       stroke-width="3.0541"
       id="rect35-7-3"
       style="fill:#414141;fill-opacity:1;stroke:#dfdfdf;stroke-width:2.04545;stroke-dasharray:none;stroke-opacity:1" />
    <path
       id="path50"
       style="fill:#dfdfdf;fill-opacity:1;stroke:none;stroke-width:0.980896;stroke-dasharray:none;stroke-dashoffset:2.2;stroke-opacity:0.3"
       d="m 31.955884,16.7185 c -1.026142,-2.07e-4 -2.042458,0.06786 -2.695539,0.204989 -1.408106,0.295633 -3.194856,0.918821 -4.266502,1.488582 l -0.942577,0.501942 h -1.423442 c -1.26241,9.87e-4 -1.487207,0.03171 -1.986692,0.268213 -0.68151,0.322736 -1.20385,0.853965 -1.511572,1.534561 -0.189967,0.420154 -0.229753,0.742495 -0.231814,1.888987 l -0.0019,1.38321 -0.616843,1.264433 c -1.1898,2.444502 -1.573992,4.113859 -1.567127,6.785784 0.0069,2.671883 0.426425,4.435323 1.632268,6.847094 l 0.551752,1.099673 V 41.396 c 0,0.991937 0.04887,1.528464 0.166674,1.810432 0.286781,0.686363 0.822962,1.253454 1.498158,1.584378 0.583198,0.285871 0.789995,0.321391 2.220422,0.377435 1.449914,0.05672 1.620463,0.08612 2.092062,0.363991 1.134904,0.668757 3.065346,1.326503 4.724375,1.607361 0.464745,0.07868 1.48033,0.147171 2.254904,0.153257 2.422919,0.01908 4.563419,-0.459958 6.703411,-1.500073 l 1.237606,-0.601566 1.521159,-0.04789 c 1.307823,-0.04101 1.592898,-0.08537 2.028839,-0.308462 0.690658,-0.353489 1.093721,-0.749861 1.440683,-1.417698 0.263636,-0.507434 0.295655,-0.714341 0.335232,-2.084394 l 0.04412,-1.519237 0.486608,-0.957902 c 1.039205,-2.048999 1.511887,-3.935706 1.597791,-6.366196 0.09344,-2.643056 -0.347204,-4.779425 -1.454099,-7.040588 l -0.578568,-1.183982 -0.06897,-1.521151 c -0.07639,-1.716731 -0.248922,-2.27008 -0.925352,-2.946514 -0.697413,-0.697416 -1.096721,-0.823477 -2.735775,-0.864029 l -1.465594,-0.03639 -1.239528,-0.601564 c -1.380123,-0.670877 -2.575473,-1.073405 -4.069215,-1.3698 -0.692414,-0.137366 -1.728787,-0.206699 -2.75493,-0.206906 z m -10.504366,3.705171 c 0.05308,-0.004 0.107482,-0.0042 0.160922,0 0.256518,0.01956 0.512727,0.131487 0.724175,0.342928 0.546188,0.546182 0.443471,1.358516 -0.222229,1.764459 -0.9918,0.604799 -2.122212,-0.438552 -1.590117,-1.467511 0.202643,-0.391867 0.555552,-0.612615 0.927249,-0.639876 z m 21.058546,0 c 0.290524,0.01571 0.550817,0.156256 0.773981,0.421476 0.38881,0.462075 0.379661,1.001461 -0.02426,1.450266 -0.373854,0.414722 -0.957361,0.529508 -1.406201,0.277787 -0.390004,-0.218712 -0.538345,-0.495986 -0.538345,-1.011545 0,-0.558446 0.172707,-0.834695 0.641801,-1.030704 0.194625,-0.08132 0.379345,-0.116711 0.553663,-0.107284 z m -10.548431,0.536424 c 3.524542,-0.01165 7.113131,1.839435 9.123069,4.760781 0.549322,0.798409 1.332918,2.512017 1.60162,3.502093 0.357788,1.318216 0.358025,4.224283 0.0019,5.509859 -1.094716,3.952022 -3.83813,6.754254 -7.737941,7.902707 -1.388247,0.40881 -3.80748,0.491608 -5.239731,0.178169 -3.253954,-0.712134 -5.947884,-2.756084 -7.488887,-5.678457 -3.711581,-7.038658 1.050961,-15.546841 9.036858,-16.146416 0.233922,-0.01755 0.468133,-0.02796 0.703102,-0.02867 z m 0.04789,7.322211 c -0.06997,9.11e-4 -0.141715,0.0022 -0.214564,0.0059 -1.448553,0.06995 -2.604161,0.817602 -3.226219,2.086346 -0.3792,0.773417 -0.426611,2.11371 -0.105377,2.969498 0.42183,1.123765 1.394491,1.99139 2.592087,2.314298 1.21425,0.327394 2.466791,0.01455 3.419715,-0.856369 1.671608,-1.527753 1.701852,-4.01048 0.06706,-5.546256 -0.745042,-0.699965 -1.482918,-0.986486 -2.532704,-0.973289 z m 10.544603,13.040896 c 0.207352,0.0175 0.415401,0.09495 0.601572,0.2414 0.58038,0.456533 0.487547,1.522988 -0.160893,1.858335 -0.819721,0.423889 -1.680171,-0.06789 -1.680171,-0.96174 0,-0.711474 0.617423,-1.190568 1.239529,-1.137984 z m -21.01448,0.01158 c 0.529458,0 0.919504,0.265307 1.07285,0.729918 0.164183,0.497486 0.04809,0.899527 -0.358256,1.24144 -0.933019,0.78498 -2.29435,-0.3089 -1.733803,-1.392896 0.220923,-0.427238 0.489742,-0.578576 1.019209,-0.578576 z" />
  </g>
</svg>
