<?xml version="1.0" encoding="UTF-8" standalone="no"?>
<svg
   width="64"
   height="64"
   version="1.1"
   id="svg73"
   sodipodi:docname="device_usb.svg"
   inkscape:version="1.3.2 (091e20ef0f, 2023-11-25)"
   xmlns:inkscape="http://www.inkscape.org/namespaces/inkscape"
   xmlns:sodipodi="http://sodipodi.sourceforge.net/DTD/sodipodi-0.dtd"
   xmlns="http://www.w3.org/2000/svg"
   xmlns:svg="http://www.w3.org/2000/svg"
   xmlns:rdf="http://www.w3.org/1999/02/22-rdf-syntax-ns#"
   xmlns:cc="http://creativecommons.org/ns#"
   xmlns:dc="http://purl.org/dc/elements/1.1/">
  <metadata
     id="metadata77">
    <rdf:RDF>
      <cc:Work
         rdf:about="">
        <dc:format>image/svg+xml</dc:format>
        <dc:type
           rdf:resource="http://purl.org/dc/dcmitype/StillImage" />
      </cc:Work>
    </rdf:RDF>
  </metadata>
  <sodipodi:namedview
     pagecolor="#f5f7fa"
     bordercolor="#666666"
     borderopacity="1"
     objecttolerance="10"
     gridtolerance="10"
     guidetolerance="10"
     inkscape:pageopacity="0"
     inkscape:pageshadow="2"
     inkscape:window-width="1377"
     inkscape:window-height="886"
     id="namedview75"
     showgrid="false"
     inkscape:zoom="4.4470387"
     inkscape:cx="47.784608"
     inkscape:cy="14.054296"
     inkscape:window-x="181"
     inkscape:window-y="77"
     inkscape:window-maximized="0"
     inkscape:current-layer="g877"
     inkscape:document-rotation="0"
     inkscape:pagecheckerboard="0"
     inkscape:showpageshadow="2"
     inkscape:deskcolor="#d1d1d1" />
  <defs
     id="defs29">
    <linearGradient
       id="b"
       x1="399.57"
       x2="399.57"
       y1="545.8"
       y2="517.8"
       gradientTransform="matrix(2.1429,0,0,2.1429,-825.86391,-1107.6662)"
       gradientUnits="userSpaceOnUse">
      <stop
         stop-color="#3889e9"
         offset="0"
         id="stop2" />
      <stop
         stop-color="#5ea5fb"
         offset="1"
         id="stop4" />
    </linearGradient>
    <linearGradient
       id="d"
       x2="1"
       gradientTransform="matrix(14.905727,-4.7106182,4.7106182,14.905727,322.04962,998.26962)"
       gradientUnits="userSpaceOnUse">
      <stop
         stop-color="#fafafa"
         offset="0"
         id="stop7" />
      <stop
         stop-color="#aaa"
         offset="1"
         id="stop8" />
    </linearGradient>
    <linearGradient
       id="e"
       x2="1"
       gradientTransform="matrix(21.439909,0,0,21.439909,26.63554,1159.7788)"
       gradientUnits="userSpaceOnUse">
      <stop
         stop-color="#f0f0f0"
         offset="0"
         id="stop9" />
      <stop
         stop-color="#b7f1ff"
         offset="1"
         id="stop10" />
    </linearGradient>
  </defs>
  <circle
     cx="32.516094"
     cy="31.877844"
     r="0"
     fill="url(#b)"
     stroke-width="1.5715"
     id="circle41"
     style="fill:url(#b)" />
  <g
     aria-label="GZ"
     transform="matrix(1.2212657,0,0,0.81882264,0.4960938,-0.1661539)"
     id="text93"
     style="font-weight:bold;font-size:11.5263px;line-height:1.25;font-family:sans-serif;-inkscape-font-specification:'sans-serif Bold';fill:#f2f2f2;stroke-width:0.288159" />
  <g
     id="g877"
     transform="matrix(1.1,0,0,1.1,-3.1845928,-3.2065454)">
    <rect
       x="6.3010068"
       y="5.4939413"
       width="51.635597"
       height="53.148327"
       rx="10.980581"
       ry="10.720582"
       fill="url(#linearGradient862)"
       stroke-width="3.0541"
       id="rect35-7-3"
       style="fill:#414141;fill-opacity:1;stroke:#dfdfdf;stroke-width:2.27272727;stroke-dasharray:none;stroke-opacity:1" />
    <g
       fill="#ffffff"
       fill-opacity="0.891129"
       id="g4"
       transform="matrix(-0.78719649,0,0,0.78719649,49.204014,13.508236)"
       style="fill:#dfdfdf;fill-opacity:1">
      <path
         d="m 1.558,3.814 c 0.353,0.353 0.815,0.528 1.278,0.528 0.462,0 0.925,-0.177 1.278,-0.528 0.706,-0.706 0.706,-1.852 0,-2.558 L 3.688,0.832 c -0.706,-0.706 -1.85,-0.706 -2.556,0 -0.706,0.706 -0.706,1.851 0,2.557 z"
         id="path2"
         style="fill:#dfdfdf;fill-opacity:1" />
      <path
         d="m 3.627,5.135 c 0,0.482 0.193,0.94 0.53,1.276 l 3.254,3.255 0.65,0.65 c 0.337,0.338 0.795,0.529 1.278,0.529 0.482,0 0.939,-0.191 1.277,-0.529 0.337,-0.337 0.53,-0.796 0.53,-1.277 0,-0.481 -0.193,-0.939 -0.53,-1.277 L 9.965,7.112 6.712,3.857 C 6.037,3.181 4.844,3.181 4.157,3.857 3.82,4.194 3.627,4.652 3.627,5.135 Z"
         id="path3"
         style="fill:#dfdfdf;fill-opacity:1" />
      <path
         d="m 42.332,35.941 c -1.655,-0.847 -3.715,-1.899 -6.178,-3.833 -0.482,-0.378 -1.063,-0.534 -1.631,-0.5 0.22,-0.874 0.104,-1.807 -0.338,-2.611 0.084,-0.265 0.15,-0.527 0.18,-0.79 0.113,-1.021 -0.204,-2.017 -0.852,-2.663 L 21.158,13.188 c -0.226,-0.227 -1.448,-1.352 -3.343,-1.352 -0.644,0 -1.509,0.146 -2.446,0.668 L 13.22,10.363 c -0.687,-0.687 -1.88,-0.687 -2.555,0 -0.349,0.338 -0.53,0.796 -0.53,1.278 0,0.48 0.181,0.928 0.53,1.276 l 2.139,2.141 c -0.813,1.446 -0.72,2.76 -0.545,3.517 0.292,1.267 1.016,2.066 1.23,2.28 L 25.844,33.21 c 0.264,0.263 1.008,0.874 2.248,0.874 0.402,0 0.807,-0.07 1.213,-0.199 0.538,0.295 1.129,0.457 1.727,0.457 0.42,0 0.838,-0.082 1.238,-0.229 0.031,0.676 0.336,1.335 0.908,1.784 2.83,2.221 5.217,3.44 6.961,4.334 0.77,0.393 1.709,0.874 2.039,1.159 -0.013,0.32 -0.076,0.459 -0.107,0.484 H 2.41 c -1.331,0 -2.41,1.079 -2.41,2.41 0,1.331 1.079,2.41 2.41,2.41 h 39.77 c 1.938,0 4.82,-1.443 4.82,-5.423 0,-2.944 -2.373,-4.157 -4.668,-5.33 z"
         id="path4"
         style="fill:#dfdfdf;fill-opacity:1" />
    </g>
  </g>
</svg>
