<?xml version="1.0" encoding="UTF-8" standalone="no"?>
<svg
   width="64"
   height="64"
   version="1.1"
   id="svg73"
   sodipodi:docname="audacious.svg"
   inkscape:version="1.4.2 (ebf0e940d0, 2025-05-08)"
   xmlns:inkscape="http://www.inkscape.org/namespaces/inkscape"
   xmlns:sodipodi="http://sodipodi.sourceforge.net/DTD/sodipodi-0.dtd"
   xmlns="http://www.w3.org/2000/svg"
   xmlns:svg="http://www.w3.org/2000/svg"
   xmlns:rdf="http://www.w3.org/1999/02/22-rdf-syntax-ns#"
   xmlns:cc="http://creativecommons.org/ns#"
   xmlns:dc="http://purl.org/dc/elements/1.1/">
  <metadata
     id="metadata77">
    <rdf:RDF>
      <cc:Work
         rdf:about="">
        <dc:format>image/svg+xml</dc:format>
        <dc:type
           rdf:resource="http://purl.org/dc/dcmitype/StillImage" />
      </cc:Work>
    </rdf:RDF>
  </metadata>
  <sodipodi:namedview
     pagecolor="#f5f7fa"
     bordercolor="#666666"
     borderopacity="1"
     objecttolerance="10"
     gridtolerance="10"
     guidetolerance="10"
     inkscape:pageopacity="0"
     inkscape:pageshadow="2"
     inkscape:window-width="1377"
     inkscape:window-height="886"
     id="namedview75"
     showgrid="false"
     inkscape:zoom="6.2890624"
     inkscape:cx="46.350311"
     inkscape:cy="44.124224"
     inkscape:window-x="264"
     inkscape:window-y="75"
     inkscape:window-maximized="0"
     inkscape:current-layer="g877"
     inkscape:document-rotation="0"
     inkscape:pagecheckerboard="0"
     inkscape:showpageshadow="2"
     inkscape:deskcolor="#d1d1d1" />
  <defs
     id="defs29" />
  <circle
     cx="32.516094"
     cy="31.877844"
     r="0"
     fill="url(#b)"
     stroke-width="1.5715"
     id="circle41"
     style="fill:url(#b)" />
  <g
     aria-label="GZ"
     transform="matrix(1.2212657,0,0,0.81882264,0.4960938,-0.1661539)"
     id="text93"
     style="font-weight:bold;font-size:11.5263px;line-height:1.25;font-family:sans-serif;-inkscape-font-specification:'sans-serif Bold';fill:#f2f2f2;stroke-width:0.288159" />
  <g
     id="g877"
     transform="matrix(1.1,0,0,1.1,-3.1845928,-3.2065454)">
    <rect
       x="8.3496294"
       y="8.369586"
       width="47.272728"
       height="47.272728"
       rx="9.8825235"
       ry="9.6485243"
       fill="url(#linearGradient862)"
       stroke-width="3.0541"
       id="rect35-7-3"
       style="fill:#414141;fill-opacity:1;stroke:#dfdfdf;stroke-width:2.04545;stroke-dasharray:none;stroke-opacity:1" />
    <path
       id="path17"
       style="fill:#dfdfdf;fill-opacity:1;stroke:none;stroke-width:0.934187;stroke-dasharray:none;stroke-dashoffset:2.2;stroke-opacity:0.3"
       d="m 31.466168,16.366606 c -0.208392,0.02796 -0.418138,0.203669 -0.563794,0.485338 -0.139224,0.269226 -0.162388,1.212351 -0.162388,6.701674 0,3.51433 -0.03602,6.390263 -0.08028,6.389669 -0.04427,-5.92e-4 -1.733694,-1.39612 -3.753152,-3.099956 -2.019458,-1.703839 -3.751211,-3.127788 -3.849858,-3.165642 -0.09865,-0.03785 -0.296046,0.0075 -0.437898,0.100349 -0.43672,0.286148 -0.58684,0.949015 -0.337551,1.496152 0.06937,0.152243 1.820066,1.705796 3.889999,3.452101 2.06993,1.746307 3.77426,3.230536 3.787824,3.297012 0.01356,0.06646 -1.641789,1.471973 -3.680172,3.123676 -2.038386,1.651702 -3.781626,3.085936 -3.87358,3.187539 -0.274488,0.303282 -0.296027,1.049458 -0.04196,1.454184 0.415507,0.661931 0.471453,0.629901 4.514006,-2.65476 2.033703,-1.652421 3.735103,-3.005077 3.780523,-3.005077 0.04543,0 0.08211,2.845936 0.08211,6.323983 0,4.133236 0.03801,6.427623 0.111301,6.625052 0.06169,0.16615 0.192966,0.362302 0.290107,0.43607 0.09715,0.07379 0.280034,0.135011 0.406881,0.135011 0.238115,0 9.399438,-6.921808 9.949422,-7.517257 0.394771,-0.427414 0.421262,-1.294225 0.05296,-1.724235 -0.1325,-0.154671 -2.004196,-1.62295 -4.158247,-3.262333 -2.154061,-1.639391 -3.954104,-3.013037 -4.001309,-3.054348 -0.04719,-0.04131 1.727199,-1.465635 3.944739,-3.163816 2.217533,-1.698181 4.127457,-3.209116 4.243967,-3.357223 0.243391,-0.309385 0.284265,-1.117871 0.07481,-1.492507 -0.135617,-0.242573 -9.640645,-7.560546 -9.984095,-7.686943 -0.06687,-0.02462 -0.13489,-0.03303 -0.204354,-0.02368 z m 0.945134,3.169291 c 0.109985,0 6.805676,5.162681 6.805676,5.247486 0,0.04538 -1.505579,1.238166 -3.346279,2.649285 -1.840698,1.411123 -3.38607,2.580352 -3.433853,2.600024 -0.04778,0.0197 -0.08757,-2.332579 -0.08757,-5.229238 0,-2.89666 0.02838,-5.267557 0.06202,-5.267557 z m 0.01826,14.487147 c 0.155325,0.0029 6.732685,5.111676 6.732685,5.22924 0,0.06534 -1.514937,1.281424 -3.368164,2.702201 -1.853225,1.420768 -3.385981,2.581778 -3.406485,2.581778 -0.0205,0 -0.03833,-2.36487 -0.03833,-5.25661 0,-2.89174 0.03603,-5.257476 0.08028,-5.256609 z" />
  </g>
</svg>
