<?xml version="1.0" encoding="UTF-8" standalone="no"?>
<svg
   width="64"
   height="64"
   version="1.1"
   id="svg73"
   sodipodi:docname="audacious.svg"
   inkscape:version="1.4.2 (ebf0e940d0, 2025-05-08)"
   xmlns:inkscape="http://www.inkscape.org/namespaces/inkscape"
   xmlns:sodipodi="http://sodipodi.sourceforge.net/DTD/sodipodi-0.dtd"
   xmlns="http://www.w3.org/2000/svg"
   xmlns:svg="http://www.w3.org/2000/svg"
   xmlns:rdf="http://www.w3.org/1999/02/22-rdf-syntax-ns#"
   xmlns:cc="http://creativecommons.org/ns#"
   xmlns:dc="http://purl.org/dc/elements/1.1/">
  <metadata
     id="metadata77">
    <rdf:RDF>
      <cc:Work
         rdf:about="">
        <dc:format>image/svg+xml</dc:format>
        <dc:type
           rdf:resource="http://purl.org/dc/dcmitype/StillImage" />
      </cc:Work>
    </rdf:RDF>
  </metadata>
  <sodipodi:namedview
     pagecolor="#f5f7fa"
     bordercolor="#666666"
     borderopacity="1"
     objecttolerance="10"
     gridtolerance="10"
     guidetolerance="10"
     inkscape:pageopacity="0"
     inkscape:pageshadow="2"
     inkscape:window-width="1377"
     inkscape:window-height="886"
     id="namedview75"
     showgrid="false"
     inkscape:zoom="6.2890624"
     inkscape:cx="46.350311"
     inkscape:cy="44.124224"
     inkscape:window-x="264"
     inkscape:window-y="75"
     inkscape:window-maximized="0"
     inkscape:current-layer="g877"
     inkscape:document-rotation="0"
     inkscape:pagecheckerboard="0"
     inkscape:showpageshadow="2"
     inkscape:deskcolor="#d1d1d1" />
  <defs
     id="defs29" />
  <circle
     cx="32.516094"
     cy="31.877844"
     r="0"
     fill="url(#b)"
     stroke-width="1.5715"
     id="circle41"
     style="fill:url(#b)" />
  <g
     aria-label="GZ"
     transform="matrix(1.2212657,0,0,0.81882264,0.4960938,-0.1661539)"
     id="text93"
     style="font-weight:bold;font-size:11.5263px;line-height:1.25;font-family:sans-serif;-inkscape-font-specification:'sans-serif Bold';fill:#f2f2f2;stroke-width:0.288159" />
  <g
     id="g877"
     transform="matrix(1.1,0,0,1.1,-3.1845928,-3.2065454)">
    <rect
       x="8.3496294"
       y="8.369586"
       width="47.272728"
       height="47.272728"
       rx="9.8825235"
       ry="9.6485243"
       fill="url(#linearGradient862)"
       stroke-width="3.0541"
       id="rect35-7-3"
       style="fill:#414141;fill-opacity:1;stroke:#dfdfdf;stroke-width:2.04545;stroke-dasharray:none;stroke-opacity:1" />
    <path
       style="color:#444444;fill:#dfdfdf;fill-opacity:1;stroke:none;stroke-width:0.926949;stroke-dasharray:none;stroke-opacity:0.3"
       class="ColorScheme-Text"
       d="m 28.249414,18.927907 c -0.747318,0 -0.746281,10e-4 -1.455955,0.755343 l -2.025198,2.981241 h -4.740058 c -1.644102,0 -2.988541,1.225907 -2.988541,2.824329 v 16.690555 c 0,1.598433 1.344439,2.904618 2.988541,2.904618 h 23.915592 c 1.644096,0 2.98853,-1.306185 2.98853,-2.904618 V 25.48882 c 0,-1.598422 -1.344434,-2.824329 -2.98853,-2.824329 H 39.20373 L 37.152988,19.65406 c -0.682259,-0.724894 -0.683092,-0.726153 -1.430409,-0.726153 z m 15.858582,5.604875 a 0.93414568,0.93414571 0 0 1 0.02173,0 0.93414568,0.93414571 0 0 1 0.934209,0.934146 0.93414568,0.93414571 0 0 1 -0.934181,0.934145 0.93414568,0.93414571 0 0 1 -0.934149,-0.934145 0.93414568,0.93414571 0 0 1 0.912252,-0.934146 z m -12.235121,1.868291 a 7.4731658,7.4731658 0 0 1 0.113123,0 7.4731658,7.4731658 0 0 1 7.473165,7.473168 7.4731658,7.4731658 0 0 1 -7.473167,7.473166 7.4731658,7.4731658 0 0 1 -7.473163,-7.473166 7.4731658,7.4731658 0 0 1 7.360042,-7.473168 z m 0.02184,3.736584 a 3.7365827,3.7365827 0 0 0 -3.64534,3.736584 3.7365827,3.7365827 0 0 0 3.736584,3.736581 3.7365827,3.7365827 0 0 0 3.736583,-3.736581 3.7365827,3.7365827 0 0 0 -3.736583,-3.736584 3.7365827,3.7365827 0 0 0 -0.09123,0 z"
       id="path5-3" />
  </g>
</svg>
