<?xml version="1.0" encoding="UTF-8" standalone="no"?>
<svg
   width="64"
   height="64"
   version="1.1"
   id="svg73"
   sodipodi:docname="audacious.svg"
   inkscape:version="1.4.2 (ebf0e940d0, 2025-05-08)"
   xmlns:inkscape="http://www.inkscape.org/namespaces/inkscape"
   xmlns:sodipodi="http://sodipodi.sourceforge.net/DTD/sodipodi-0.dtd"
   xmlns="http://www.w3.org/2000/svg"
   xmlns:svg="http://www.w3.org/2000/svg"
   xmlns:rdf="http://www.w3.org/1999/02/22-rdf-syntax-ns#"
   xmlns:cc="http://creativecommons.org/ns#"
   xmlns:dc="http://purl.org/dc/elements/1.1/">
  <metadata
     id="metadata77">
    <rdf:RDF>
      <cc:Work
         rdf:about="">
        <dc:format>image/svg+xml</dc:format>
        <dc:type
           rdf:resource="http://purl.org/dc/dcmitype/StillImage" />
      </cc:Work>
    </rdf:RDF>
  </metadata>
  <sodipodi:namedview
     pagecolor="#f5f7fa"
     bordercolor="#666666"
     borderopacity="1"
     objecttolerance="10"
     gridtolerance="10"
     guidetolerance="10"
     inkscape:pageopacity="0"
     inkscape:pageshadow="2"
     inkscape:window-width="1377"
     inkscape:window-height="886"
     id="namedview75"
     showgrid="false"
     inkscape:zoom="6.2890624"
     inkscape:cx="46.350311"
     inkscape:cy="44.124224"
     inkscape:window-x="264"
     inkscape:window-y="75"
     inkscape:window-maximized="0"
     inkscape:current-layer="g877"
     inkscape:document-rotation="0"
     inkscape:pagecheckerboard="0"
     inkscape:showpageshadow="2"
     inkscape:deskcolor="#d1d1d1" />
  <defs
     id="defs29" />
  <circle
     cx="32.516094"
     cy="31.877844"
     r="0"
     fill="url(#b)"
     stroke-width="1.5715"
     id="circle41"
     style="fill:url(#b)" />
  <g
     aria-label="GZ"
     transform="matrix(1.2212657,0,0,0.81882264,0.4960938,-0.1661539)"
     id="text93"
     style="font-weight:bold;font-size:11.5263px;line-height:1.25;font-family:sans-serif;-inkscape-font-specification:'sans-serif Bold';fill:#f2f2f2;stroke-width:0.288159" />
  <g
     id="g877"
     transform="matrix(1.1,0,0,1.1,-3.1845928,-3.2065454)">
    <rect
       x="8.3496294"
       y="8.369586"
       width="47.272728"
       height="47.272728"
       rx="9.8825235"
       ry="9.6485243"
       fill="url(#linearGradient862)"
       stroke-width="3.0541"
       id="rect35-7-3"
       style="fill:#414141;fill-opacity:1;stroke:#dfdfdf;stroke-width:2.04545;stroke-dasharray:none;stroke-opacity:1" />
    <path
       style="fill:#dfdfdf;fill-opacity:1;stroke:none;stroke-width:0.980896;stroke-dasharray:none;stroke-opacity:0.3"
       d="m 31.806367,16.680907 a 13.412104,13.409548 0 0 0 -13.232476,13.409544 13.412104,13.409548 0 0 0 7.720191,12.141174 c -2.053693,0.685771 -3.888159,1.471956 -3.888159,2.121435 v 1.489113 c 0,0.825437 0.713365,1.489122 1.597923,1.489122 h 15.964297 c 0.884555,0 1.597918,-0.663685 1.597918,-1.489122 V 44.35306 c 0,-0.649479 -1.834462,-1.435664 -3.888157,-2.121435 a 13.412104,13.409548 0 0 0 7.720192,-12.141174 13.412104,13.409548 0 0 0 -13.412103,-13.409544 13.412104,13.409548 0 0 0 -0.179626,0 z m 0.0636,5.746947 a 7.6640587,7.6625984 0 0 1 0.116014,0 7.6640587,7.6625984 0 0 1 7.664056,7.662597 7.6640587,7.6625984 0 0 1 -7.664057,7.662604 7.6640587,7.6625984 0 0 1 -7.664058,-7.662604 7.6640587,7.6625984 0 0 1 7.548045,-7.662597 z m 0.02241,3.831299 a 3.8320288,3.8312989 0 0 0 -3.738405,3.831298 3.8320288,3.8312989 0 0 0 3.832026,3.8313 3.8320288,3.8312989 0 0 0 3.832029,-3.8313 3.8320288,3.8312989 0 0 0 -3.832029,-3.831298 3.8320288,3.8312989 0 0 0 -0.09354,0 z"
       id="path2" />
  </g>
</svg>
