<?xml version="1.0" encoding="UTF-8" standalone="no"?>
<svg
   width="64"
   height="64"
   version="1.1"
   id="svg73"
   sodipodi:docname="device_usb.svg"
   inkscape:version="1.3.2 (091e20ef0f, 2023-11-25)"
   xmlns:inkscape="http://www.inkscape.org/namespaces/inkscape"
   xmlns:sodipodi="http://sodipodi.sourceforge.net/DTD/sodipodi-0.dtd"
   xmlns="http://www.w3.org/2000/svg"
   xmlns:svg="http://www.w3.org/2000/svg"
   xmlns:rdf="http://www.w3.org/1999/02/22-rdf-syntax-ns#"
   xmlns:cc="http://creativecommons.org/ns#"
   xmlns:dc="http://purl.org/dc/elements/1.1/">
  <metadata
     id="metadata77">
    <rdf:RDF>
      <cc:Work
         rdf:about="">
        <dc:format>image/svg+xml</dc:format>
        <dc:type
           rdf:resource="http://purl.org/dc/dcmitype/StillImage" />
      </cc:Work>
    </rdf:RDF>
  </metadata>
  <sodipodi:namedview
     pagecolor="#f5f7fa"
     bordercolor="#666666"
     borderopacity="1"
     objecttolerance="10"
     gridtolerance="10"
     guidetolerance="10"
     inkscape:pageopacity="0"
     inkscape:pageshadow="2"
     inkscape:window-width="1377"
     inkscape:window-height="886"
     id="namedview75"
     showgrid="false"
     inkscape:zoom="4.4470387"
     inkscape:cx="47.784608"
     inkscape:cy="14.054296"
     inkscape:window-x="181"
     inkscape:window-y="77"
     inkscape:window-maximized="0"
     inkscape:current-layer="g877"
     inkscape:document-rotation="0"
     inkscape:pagecheckerboard="0"
     inkscape:showpageshadow="2"
     inkscape:deskcolor="#d1d1d1" />
  <defs
     id="defs29">
    <linearGradient
       id="b"
       x1="399.57"
       x2="399.57"
       y1="545.8"
       y2="517.8"
       gradientTransform="matrix(2.1429,0,0,2.1429,-825.86391,-1107.6662)"
       gradientUnits="userSpaceOnUse">
      <stop
         stop-color="#3889e9"
         offset="0"
         id="stop2" />
      <stop
         stop-color="#5ea5fb"
         offset="1"
         id="stop4" />
    </linearGradient>
    <linearGradient
       id="d"
       x2="1"
       gradientTransform="matrix(14.905727,-4.7106182,4.7106182,14.905727,322.04962,998.26962)"
       gradientUnits="userSpaceOnUse">
      <stop
         stop-color="#fafafa"
         offset="0"
         id="stop7" />
      <stop
         stop-color="#aaa"
         offset="1"
         id="stop8" />
    </linearGradient>
    <linearGradient
       id="e"
       x2="1"
       gradientTransform="matrix(21.439909,0,0,21.439909,26.63554,1159.7788)"
       gradientUnits="userSpaceOnUse">
      <stop
         stop-color="#f0f0f0"
         offset="0"
         id="stop9" />
      <stop
         stop-color="#b7f1ff"
         offset="1"
         id="stop10" />
    </linearGradient>
  </defs>
  <circle
     cx="32.516094"
     cy="31.877844"
     r="0"
     fill="url(#b)"
     stroke-width="1.5715"
     id="circle41"
     style="fill:url(#b)" />
  <g
     aria-label="GZ"
     transform="matrix(1.2212657,0,0,0.81882264,0.4960938,-0.1661539)"
     id="text93"
     style="font-weight:bold;font-size:11.5263px;line-height:1.25;font-family:sans-serif;-inkscape-font-specification:'sans-serif Bold';fill:#f2f2f2;stroke-width:0.288159" />
  <g
     id="g877"
     transform="matrix(1.1,0,0,1.1,-3.1845928,-3.2065454)">
    <rect
       x="6.3010068"
       y="5.4939413"
       width="51.635597"
       height="53.148327"
       rx="10.980581"
       ry="10.720582"
       fill="url(#linearGradient862)"
       stroke-width="3.0541"
       id="rect35-7-3"
       style="fill:#414141;fill-opacity:1;stroke:#dfdfdf;stroke-width:2.27272727;stroke-dasharray:none;stroke-opacity:1" />
    <path
       id="path2294"
       style="fill:#dfdfdf;fill-opacity:1;stroke:none;stroke-width:1.1979;stroke-dasharray:none;stroke-opacity:0.3"
       d="m 38.70345,15.544415 c -1.738139,-0.0081 -4.053756,0.0045 -7.152303,0.01873 l -11.349634,0.05147 -0.559176,0.624687 -0.559175,0.627025 0.05147,15.687342 c 0.04987,15.382328 0.05696,15.695683 0.430496,16.110822 0.209526,0.232829 0.553214,0.494486 0.762723,0.580232 0.607726,0.248742 22.209871,0.21778 22.928554,-0.03247 1.213197,-0.42294 1.165149,0.261822 1.165149,-16.719126 0,-9.360923 -0.07185,-15.613967 -0.182521,-15.904931 -0.311475,-0.819516 -0.321106,-1.019173 -5.535573,-1.043685 z m -25.518542,2.833314 v 1.712623 1.714963 h 1.808548 1.810887 v -1.714963 -1.712623 h -1.810887 z m 33.522481,0 v 1.712623 1.714963 h 1.810888 1.808551 v -1.714963 -1.712623 h -1.808547 z m -33.522481,6.473807 v 1.619038 1.619035 h 1.808548 1.810887 v -1.619035 -1.619038 h -1.810887 z m 33.522481,0 v 1.619038 1.619035 h 1.810888 1.808551 v -1.619035 -1.619038 h -1.808547 z m -33.522481,6.286635 v 1.714964 1.712622 h 1.808548 1.810887 v -1.712622 -1.714964 h -1.810887 z m 33.522481,0 v 1.714964 1.712622 h 1.810888 1.808551 v -1.712622 -1.714964 h -1.808547 z m -33.522481,6.286637 v 1.712621 1.714962 h 1.808548 1.810887 v -1.714962 -1.712621 h -1.810887 z m 33.522481,0 v 1.712621 1.714962 h 1.810888 1.808551 v -1.714962 -1.712621 h -1.808547 z m -33.522481,6.476143 v 1.619042 1.619037 h 1.808548 1.810887 v -1.619037 -1.619042 h -1.810887 z m 33.522481,0 v 1.619042 1.619037 h 1.810888 1.808551 v -1.619037 -1.619042 h -1.808547 z" />
  </g>
</svg>
