<?xml version="1.0" encoding="UTF-8" standalone="no"?>
<svg
   width="64"
   height="64"
   version="1.1"
   id="svg73"
   sodipodi:docname="audacious.svg"
   inkscape:version="1.4.2 (ebf0e940d0, 2025-05-08)"
   xmlns:inkscape="http://www.inkscape.org/namespaces/inkscape"
   xmlns:sodipodi="http://sodipodi.sourceforge.net/DTD/sodipodi-0.dtd"
   xmlns="http://www.w3.org/2000/svg"
   xmlns:svg="http://www.w3.org/2000/svg"
   xmlns:rdf="http://www.w3.org/1999/02/22-rdf-syntax-ns#"
   xmlns:cc="http://creativecommons.org/ns#"
   xmlns:dc="http://purl.org/dc/elements/1.1/">
  <metadata
     id="metadata77">
    <rdf:RDF>
      <cc:Work
         rdf:about="">
        <dc:format>image/svg+xml</dc:format>
        <dc:type
           rdf:resource="http://purl.org/dc/dcmitype/StillImage" />
      </cc:Work>
    </rdf:RDF>
  </metadata>
  <sodipodi:namedview
     pagecolor="#f5f7fa"
     bordercolor="#666666"
     borderopacity="1"
     objecttolerance="10"
     gridtolerance="10"
     guidetolerance="10"
     inkscape:pageopacity="0"
     inkscape:pageshadow="2"
     inkscape:window-width="1377"
     inkscape:window-height="886"
     id="namedview75"
     showgrid="false"
     inkscape:zoom="6.2890624"
     inkscape:cx="47.622361"
     inkscape:cy="45.396274"
     inkscape:window-x="0"
     inkscape:window-y="61"
     inkscape:window-maximized="0"
     inkscape:current-layer="g877"
     inkscape:document-rotation="0"
     inkscape:pagecheckerboard="0"
     inkscape:showpageshadow="2"
     inkscape:deskcolor="#d1d1d1" />
  <defs
     id="defs29" />
  <circle
     cx="32.516094"
     cy="31.877844"
     r="0"
     fill="url(#b)"
     stroke-width="1.5715"
     id="circle41"
     style="fill:url(#b)" />
  <g
     aria-label="GZ"
     transform="matrix(1.2212657,0,0,0.81882264,0.4960938,-0.1661539)"
     id="text93"
     style="font-weight:bold;font-size:11.5263px;line-height:1.25;font-family:sans-serif;-inkscape-font-specification:'sans-serif Bold';fill:#f2f2f2;stroke-width:0.288159" />
  <g
     id="g877"
     transform="matrix(1.1,0,0,1.1,-3.1845928,-3.2065454)">
    <rect
       x="8.3496294"
       y="8.369586"
       width="47.272728"
       height="47.272728"
       rx="9.8825235"
       ry="9.6485243"
       fill="url(#linearGradient862)"
       stroke-width="3.0541"
       id="rect35-7-3"
       style="fill:#414141;fill-opacity:1;stroke:#dfdfdf;stroke-width:2.04545;stroke-dasharray:none;stroke-opacity:1" />
    <path
       style="color:#444444;fill:#dfdfdf;fill-opacity:1;stroke:none;stroke-width:0.932063;stroke-dasharray:none;stroke-opacity:0.3"
       class="ColorScheme-Text"
       d="m 31.976353,16.097726 -4.971323,7.954111 h 2.982793 v 9.942641 h -5.965585 v -2.528383 c 1.228334,-0.709165 1.986022,-2.018782 1.988529,-3.437198 0,-2.196533 -1.780587,-3.97706 -3.977057,-3.97706 -2.19647,0 -3.977056,1.78059 -3.977056,3.97706 0.0011,1.419746 0.758998,2.731181 1.988527,3.441084 v 2.524497 c 0,3.977054 3.977057,3.977054 3.977057,3.977054 h 5.965585 v 2.528387 c -1.228334,0.709171 -1.986025,2.018787 -1.988526,3.437206 0,2.196528 1.780585,3.977049 3.977056,3.977049 2.196466,0 3.977056,-1.780583 3.977056,-3.977049 -0.0011,-1.419758 -0.759004,-2.731185 -1.98853,-3.441093 v -2.5245 h 5.965586 c 0,0 3.977053,0 3.977053,-3.977054 V 32.00595 c 0,0 2.237096,-0.372846 1.988537,-1.988525 v -3.977056 c 0.248559,-2.237095 -1.988537,-1.988532 -1.988537,-1.988532 h -3.977053 c -2.112814,0 -1.988529,1.988532 -1.988529,1.988532 v 3.977056 c 0,1.988525 1.988529,1.988525 1.988529,1.988525 v 1.988528 h -5.965586 v -9.942641 h 2.982793 z"
       id="path5-3" />
  </g>
</svg>
