<?xml version="1.0" encoding="UTF-8" standalone="no"?>
<svg
   width="64"
   height="64"
   version="1.1"
   id="svg73"
   sodipodi:docname="device_usb.svg"
   inkscape:version="1.3.2 (091e20ef0f, 2023-11-25)"
   xmlns:inkscape="http://www.inkscape.org/namespaces/inkscape"
   xmlns:sodipodi="http://sodipodi.sourceforge.net/DTD/sodipodi-0.dtd"
   xmlns="http://www.w3.org/2000/svg"
   xmlns:svg="http://www.w3.org/2000/svg"
   xmlns:rdf="http://www.w3.org/1999/02/22-rdf-syntax-ns#"
   xmlns:cc="http://creativecommons.org/ns#"
   xmlns:dc="http://purl.org/dc/elements/1.1/">
  <metadata
     id="metadata77">
    <rdf:RDF>
      <cc:Work
         rdf:about="">
        <dc:format>image/svg+xml</dc:format>
        <dc:type
           rdf:resource="http://purl.org/dc/dcmitype/StillImage" />
      </cc:Work>
    </rdf:RDF>
  </metadata>
  <sodipodi:namedview
     pagecolor="#f5f7fa"
     bordercolor="#666666"
     borderopacity="1"
     objecttolerance="10"
     gridtolerance="10"
     guidetolerance="10"
     inkscape:pageopacity="0"
     inkscape:pageshadow="2"
     inkscape:window-width="1377"
     inkscape:window-height="886"
     id="namedview75"
     showgrid="false"
     inkscape:zoom="4.4470387"
     inkscape:cx="47.784608"
     inkscape:cy="14.054296"
     inkscape:window-x="181"
     inkscape:window-y="77"
     inkscape:window-maximized="0"
     inkscape:current-layer="g877"
     inkscape:document-rotation="0"
     inkscape:pagecheckerboard="0"
     inkscape:showpageshadow="2"
     inkscape:deskcolor="#d1d1d1" />
  <defs
     id="defs29">
    <linearGradient
       id="b"
       x1="399.57"
       x2="399.57"
       y1="545.8"
       y2="517.8"
       gradientTransform="matrix(2.1429,0,0,2.1429,-825.86391,-1107.6662)"
       gradientUnits="userSpaceOnUse">
      <stop
         stop-color="#3889e9"
         offset="0"
         id="stop2" />
      <stop
         stop-color="#5ea5fb"
         offset="1"
         id="stop4" />
    </linearGradient>
    <linearGradient
       id="d"
       x2="1"
       gradientTransform="matrix(14.905727,-4.7106182,4.7106182,14.905727,322.04962,998.26962)"
       gradientUnits="userSpaceOnUse">
      <stop
         stop-color="#fafafa"
         offset="0"
         id="stop7" />
      <stop
         stop-color="#aaa"
         offset="1"
         id="stop8" />
    </linearGradient>
    <linearGradient
       id="e"
       x2="1"
       gradientTransform="matrix(21.439909,0,0,21.439909,26.63554,1159.7788)"
       gradientUnits="userSpaceOnUse">
      <stop
         stop-color="#f0f0f0"
         offset="0"
         id="stop9" />
      <stop
         stop-color="#b7f1ff"
         offset="1"
         id="stop10" />
    </linearGradient>
  </defs>
  <circle
     cx="32.516094"
     cy="31.877844"
     r="0"
     fill="url(#b)"
     stroke-width="1.5715"
     id="circle41"
     style="fill:url(#b)" />
  <g
     aria-label="GZ"
     transform="matrix(1.2212657,0,0,0.81882264,0.4960938,-0.1661539)"
     id="text93"
     style="font-weight:bold;font-size:11.5263px;line-height:1.25;font-family:sans-serif;-inkscape-font-specification:'sans-serif Bold';fill:#f2f2f2;stroke-width:0.288159" />
  <g
     id="g877"
     transform="matrix(1.1,0,0,1.1,-3.1845928,-3.2065454)">
    <rect
       x="6.3010068"
       y="5.4939413"
       width="51.635597"
       height="53.148327"
       rx="10.980581"
       ry="10.720582"
       fill="url(#linearGradient862)"
       stroke-width="3.0541"
       id="rect35-7-3"
       style="fill:#414141;fill-opacity:1;stroke:#dfdfdf;stroke-width:2.27272727;stroke-dasharray:none;stroke-opacity:1" />
    <path
       d="m 32.341598,14.667089 c -9.842535,0 -17.821491,8.013128 -17.821491,17.897806 0,9.884677 7.978956,17.897809 17.821491,17.897809 9.842527,0 17.821496,-8.013132 17.821496,-17.897809 0,-9.884678 -7.978969,-17.897806 -17.821496,-17.897806 z m -1.272965,4.953858 c 0.170319,-0.01793 0.385101,0.01034 0.55696,0 0.02022,0.08184 -0.124036,0.372969 -0.31822,0.799013 -1.236965,2.713715 -1.307134,5.891855 -0.159158,7.590586 0.207754,0.307991 0.397798,0.601107 0.397798,0.639212 0,0.03809 -0.224015,0.07973 -0.477379,0.07973 -0.594673,0 -1.157435,-0.36399 -2.307246,-1.278388 -0.510765,-0.406215 -1.174822,-0.747395 -1.432092,-0.799036 -0.403956,-0.08107 -0.511633,-0.04552 -1.034304,0.4794 -0.48623,0.488253 -0.636437,0.751525 -0.636437,1.198513 0,1.695026 2.003846,3.042471 5.728341,3.835246 5.057987,1.076604 6.304862,2.043211 6.444369,4.714152 0.175144,3.349398 -1.600361,5.875009 -5.489655,7.830295 -0.464197,0.233467 -0.759995,0.324065 -0.954752,0.399479 -0.0866,-0.0077 -0.15252,0.0077 -0.238545,0 -0.0327,-0.103543 -0.07987,-0.343822 -0.07987,-0.799013 0,-1.778989 -0.698218,-3.610114 -1.750294,-4.634253 -0.282424,-0.274893 -1.07319,-0.857415 -1.750348,-1.278398 -0.677144,-0.420954 -1.359406,-0.909969 -1.511654,-1.11861 -0.252304,-0.346227 -0.273282,-0.558925 -0.07987,-1.198513 0.353242,-1.16814 0.773751,-1.818753 1.591181,-2.556831 0.428586,-0.38695 0.859776,-0.711439 0.954754,-0.719112 0.09525,-0.0076 -0.547719,-0.201481 -1.511642,-0.399502 -0.963933,-0.198359 -2.373844,-0.6139 -3.10292,-0.878865 -1.332998,-0.484388 -3.13271,-1.501267 -3.818918,-2.237222 -0.02889,-0.03121 -0.05388,-0.05218 -0.07987,-0.07973 0.983063,-3.932558 3.741832,-7.155695 7.399079,-8.7092 0.765189,-0.325053 1.554087,-0.548054 2.386809,-0.719114 0.414732,-0.08514 0.844668,-0.116075 1.272961,-0.1598 z m 11.934028,5.992567 c 0.299006,0.185617 1.428039,2.638777 1.750325,3.835244 0.416081,1.544811 0.385941,4.21813 0,5.752867 -0.146939,0.584078 -0.335178,1.130501 -0.397788,1.198513 -0.06256,0.06804 -0.289719,-0.323516 -0.556952,-0.799013 -0.267185,-0.475411 -1.120595,-1.48564 -1.829866,-2.23722 -2.047278,-2.169547 -2.369212,-3.302351 -1.511637,-5.033757 0.432439,-0.873135 2.314501,-2.860072 2.545918,-2.716634 z"
       fill="#333333"
       id="path2"
       style="fill:#dfdfdf;fill-opacity:1;stroke:none;stroke-width:1.07811;stroke-dasharray:none;stroke-opacity:0.3" />
  </g>
</svg>
