<?xml version="1.0" encoding="UTF-8" standalone="no"?>
<svg
   width="64"
   height="64"
   version="1.1"
   id="svg73"
   sodipodi:docname="audacious.svg"
   inkscape:version="1.4.2 (ebf0e940d0, 2025-05-08)"
   xmlns:inkscape="http://www.inkscape.org/namespaces/inkscape"
   xmlns:sodipodi="http://sodipodi.sourceforge.net/DTD/sodipodi-0.dtd"
   xmlns="http://www.w3.org/2000/svg"
   xmlns:svg="http://www.w3.org/2000/svg"
   xmlns:rdf="http://www.w3.org/1999/02/22-rdf-syntax-ns#"
   xmlns:cc="http://creativecommons.org/ns#"
   xmlns:dc="http://purl.org/dc/elements/1.1/">
  <metadata
     id="metadata77">
    <rdf:RDF>
      <cc:Work
         rdf:about="">
        <dc:format>image/svg+xml</dc:format>
        <dc:type
           rdf:resource="http://purl.org/dc/dcmitype/StillImage" />
      </cc:Work>
    </rdf:RDF>
  </metadata>
  <sodipodi:namedview
     pagecolor="#f5f7fa"
     bordercolor="#666666"
     borderopacity="1"
     objecttolerance="10"
     gridtolerance="10"
     guidetolerance="10"
     inkscape:pageopacity="0"
     inkscape:pageshadow="2"
     inkscape:window-width="1377"
     inkscape:window-height="886"
     id="namedview75"
     showgrid="false"
     inkscape:zoom="6.2890624"
     inkscape:cx="47.622361"
     inkscape:cy="45.396274"
     inkscape:window-x="0"
     inkscape:window-y="61"
     inkscape:window-maximized="0"
     inkscape:current-layer="g877"
     inkscape:document-rotation="0"
     inkscape:pagecheckerboard="0"
     inkscape:showpageshadow="2"
     inkscape:deskcolor="#d1d1d1" />
  <defs
     id="defs29" />
  <circle
     cx="32.516094"
     cy="31.877844"
     r="0"
     fill="url(#b)"
     stroke-width="1.5715"
     id="circle41"
     style="fill:url(#b)" />
  <g
     aria-label="GZ"
     transform="matrix(1.2212657,0,0,0.81882264,0.4960938,-0.1661539)"
     id="text93"
     style="font-weight:bold;font-size:11.5263px;line-height:1.25;font-family:sans-serif;-inkscape-font-specification:'sans-serif Bold';fill:#f2f2f2;stroke-width:0.288159" />
  <g
     id="g877"
     transform="matrix(1.1,0,0,1.1,-3.1845928,-3.2065454)">
    <rect
       x="8.3496294"
       y="8.369586"
       width="47.272728"
       height="47.272728"
       rx="9.8825235"
       ry="9.6485243"
       fill="url(#linearGradient862)"
       stroke-width="3.0541"
       id="rect35-7-3"
       style="fill:#414141;fill-opacity:1;stroke:#dfdfdf;stroke-width:2.04545;stroke-dasharray:none;stroke-opacity:1" />
    <path
       id="path46"
       style="fill:#dfdfdf;fill-opacity:1;stroke-width:0.168224;stroke-opacity:0.3"
       d="m 29.982374,19.039329 c -13.67925,0 -13.167471,-0.03596 -13.705902,1.005287 -0.220763,0.426913 -0.254858,2.037335 -0.254858,11.948156 0,12.517801 -0.02856,12.149195 0.968878,12.69049 0.701449,0.380624 25.216283,0.388274 25.951407,0.0087 0.987666,-0.510773 1.003265,-0.631605 1.003265,-7.514372 v -6.273058 l -1.933724,1.929667 -1.933706,1.929668 v 3.15745 3.155437 H 29.982374 19.889038 v -9.086056 -9.08602 l 10.212674,0.0083 10.210645,0.006 1.563563,-1.557487 c 0.8604,-0.856823 1.565581,-1.614056 1.565581,-1.682894 0,-0.06884 -0.224635,-0.241139 -0.497586,-0.382292 -0.431779,-0.223291 -2.117085,-0.256887 -12.961541,-0.256887 z m 15.969314,2.038893 c -0.264796,0.01309 -0.534536,0.08418 -0.794928,0.222501 -0.531971,0.282611 -12.533764,12.295687 -12.787586,12.799717 -0.09461,0.187894 -0.225461,0.889542 -0.29126,1.557487 l -0.119342,1.213627 h 1.104402 c 0.607332,0 1.317255,-0.07916 1.577716,-0.17599 0.260451,-0.09679 3.331808,-3.029091 6.824626,-6.517156 5.1201,-5.113121 6.369181,-6.449787 6.452449,-6.893399 0.233198,-1.24308 -0.818529,-2.263378 -1.966074,-2.206779 z" />
  </g>
</svg>
