<?xml version="1.0" encoding="UTF-8" standalone="no"?>
<svg
   width="64"
   height="64"
   version="1.1"
   id="svg73"
   sodipodi:docname="hwloc.svg"
   inkscape:version="1.3.2 (091e20ef0f, 2023-11-25)"
   xmlns:inkscape="http://www.inkscape.org/namespaces/inkscape"
   xmlns:sodipodi="http://sodipodi.sourceforge.net/DTD/sodipodi-0.dtd"
   xmlns="http://www.w3.org/2000/svg"
   xmlns:svg="http://www.w3.org/2000/svg"
   xmlns:rdf="http://www.w3.org/1999/02/22-rdf-syntax-ns#"
   xmlns:cc="http://creativecommons.org/ns#"
   xmlns:dc="http://purl.org/dc/elements/1.1/">
  <metadata
     id="metadata77">
    <rdf:RDF>
      <cc:Work
         rdf:about="">
        <dc:format>image/svg+xml</dc:format>
        <dc:type
           rdf:resource="http://purl.org/dc/dcmitype/StillImage" />
      </cc:Work>
    </rdf:RDF>
  </metadata>
  <sodipodi:namedview
     pagecolor="#f5f7fa"
     bordercolor="#666666"
     borderopacity="1"
     objecttolerance="10"
     gridtolerance="10"
     guidetolerance="10"
     inkscape:pageopacity="0"
     inkscape:pageshadow="2"
     inkscape:window-width="1377"
     inkscape:window-height="886"
     id="namedview75"
     showgrid="false"
     inkscape:zoom="4.4470387"
     inkscape:cx="47.784608"
     inkscape:cy="14.054296"
     inkscape:window-x="181"
     inkscape:window-y="77"
     inkscape:window-maximized="0"
     inkscape:current-layer="g877"
     inkscape:document-rotation="0"
     inkscape:pagecheckerboard="0"
     inkscape:showpageshadow="2"
     inkscape:deskcolor="#d1d1d1" />
  <defs
     id="defs29">
    <linearGradient
       id="b"
       x1="399.57"
       x2="399.57"
       y1="545.8"
       y2="517.8"
       gradientTransform="matrix(2.1429,0,0,2.1429,-825.86391,-1107.6662)"
       gradientUnits="userSpaceOnUse">
      <stop
         stop-color="#3889e9"
         offset="0"
         id="stop2" />
      <stop
         stop-color="#5ea5fb"
         offset="1"
         id="stop4" />
    </linearGradient>
    <linearGradient
       id="d"
       x2="1"
       gradientTransform="matrix(14.905727,-4.7106182,4.7106182,14.905727,322.04962,998.26962)"
       gradientUnits="userSpaceOnUse">
      <stop
         stop-color="#fafafa"
         offset="0"
         id="stop7" />
      <stop
         stop-color="#aaa"
         offset="1"
         id="stop8" />
    </linearGradient>
    <linearGradient
       id="e"
       x2="1"
       gradientTransform="matrix(21.439909,0,0,21.439909,26.63554,1159.7788)"
       gradientUnits="userSpaceOnUse">
      <stop
         stop-color="#f0f0f0"
         offset="0"
         id="stop9" />
      <stop
         stop-color="#b7f1ff"
         offset="1"
         id="stop10" />
    </linearGradient>
  </defs>
  <circle
     cx="32.516094"
     cy="31.877844"
     r="0"
     fill="url(#b)"
     stroke-width="1.5715"
     id="circle41"
     style="fill:url(#b)" />
  <g
     aria-label="GZ"
     transform="matrix(1.2212657,0,0,0.81882264,0.4960938,-0.1661539)"
     id="text93"
     style="font-weight:bold;font-size:11.5263px;line-height:1.25;font-family:sans-serif;-inkscape-font-specification:'sans-serif Bold';fill:#f2f2f2;stroke-width:0.288159" />
  <g
     id="g877"
     transform="matrix(1.1,0,0,1.1,-3.1845928,-3.2065454)">
    <rect
       x="6.3010068"
       y="5.4939413"
       width="51.635597"
       height="53.148327"
       rx="10.980581"
       ry="10.720582"
       fill="url(#linearGradient862)"
       stroke-width="3.0541"
       id="rect35-7-3"
       style="fill:#414141;fill-opacity:1;stroke:#dfdfdf;stroke-width:2.27272727;stroke-dasharray:none;stroke-opacity:1" />
    <path
       id="path1"
       style="fill:#dfdfdf;stroke:none;stroke-width:1.13458;stroke-dasharray:none;stroke-dashoffset:2.2;stroke-opacity:0.3;fill-opacity:1"
       d="m 41.974248,17.436974 c -0.596206,-2.49e-4 -1.234377,0.239826 -2.033079,0.707808 -1.900633,1.113614 -4.386299,1.638809 -7.799783,1.638809 -3.413154,0 -5.98174,-0.536371 -7.871051,-1.64356 -1.51498,-0.887796 -2.41944,-0.899563 -3.690878,-0.04228 -3.264211,2.199744 -5.724311,9.25252 -6.446001,18.468705 -0.432776,5.526544 -0.02854,8.440168 1.401298,10.079877 0.689612,0.790545 2.382516,0.656515 3.909398,-0.313522 1.294311,-0.822294 2.836474,-2.636784 4.678931,-5.505495 1.664919,-2.592288 3.678746,-3.446081 8.132308,-3.45338 4.444701,-0.0071 6.191426,0.834023 8.241563,3.985399 3.439643,5.28724 6.618948,7.127941 8.483813,4.911678 1.033128,-1.227786 1.222224,-2.414041 1.173296,-7.353264 -0.08917,-8.972367 -2.434512,-17.134696 -5.814218,-20.250008 -0.900114,-0.829699 -1.598994,-1.229978 -2.365597,-1.2303 z M 22.664781,22.72392 h 2.061574 2.061578 v 1.767069 1.767071 h 1.767071 1.767064 v 2.208837 2.208827 h -1.767064 -1.767071 v 1.914322 1.914323 h -1.866814 c -1.025585,0 -1.948873,-0.09192 -2.056836,-0.199474 -0.107912,-0.107913 -0.199476,-0.964946 -0.199476,-1.909568 V 30.675724 H 20.897711 19.13064 V 28.466897 26.25806 h 1.767071 1.76707 v -1.767071 z m 16.80613,0 c 1.859821,0 2.656291,2.060634 1.315808,3.401137 -0.852506,0.852405 -1.630545,0.919408 -2.470093,0.209036 -1.456234,-1.232218 -0.696136,-3.610139 1.154285,-3.610139 z m -3.57688,3.776395 c 0.464395,3.22e-4 0.931984,0.185419 1.301543,0.593731 0.576082,0.636571 0.638309,2.094007 0.118769,2.774111 -1.016744,1.331045 -3.458132,0.474881 -3.458132,-1.211293 0,-1.279738 1.016142,-2.157284 2.037825,-2.156585 z m 7.301021,0.07172 c 0.535322,0.01008 1.054963,0.187052 1.358557,0.522491 0.576055,0.636571 0.63828,2.093998 0.11873,2.774109 -1.081456,1.415742 -3.458132,0.468165 -3.458132,-1.377554 0,-0.559453 0.224161,-1.165844 0.536755,-1.448804 0.357316,-0.323394 0.908847,-0.480029 1.444064,-0.470273 z m -3.595885,3.809634 c 1.648827,0 2.451098,1.748926 1.453554,3.173123 -0.341027,0.486827 -0.756897,0.65551 -1.61507,0.65551 -0.98801,0 -1.217277,-0.128597 -1.615046,-0.897819 -0.784292,-1.516681 0.0717,-2.93086 1.776562,-2.93086 z" />
  </g>
</svg>
