<?xml version="1.0" encoding="UTF-8" standalone="no"?>
<svg
   width="64"
   height="64"
   version="1.1"
   id="svg73"
   sodipodi:docname="audacious.svg"
   inkscape:version="1.4.2 (ebf0e940d0, 2025-05-08)"
   xmlns:inkscape="http://www.inkscape.org/namespaces/inkscape"
   xmlns:sodipodi="http://sodipodi.sourceforge.net/DTD/sodipodi-0.dtd"
   xmlns="http://www.w3.org/2000/svg"
   xmlns:svg="http://www.w3.org/2000/svg"
   xmlns:rdf="http://www.w3.org/1999/02/22-rdf-syntax-ns#"
   xmlns:cc="http://creativecommons.org/ns#"
   xmlns:dc="http://purl.org/dc/elements/1.1/">
  <metadata
     id="metadata77">
    <rdf:RDF>
      <cc:Work
         rdf:about="">
        <dc:format>image/svg+xml</dc:format>
        <dc:type
           rdf:resource="http://purl.org/dc/dcmitype/StillImage" />
      </cc:Work>
    </rdf:RDF>
  </metadata>
  <sodipodi:namedview
     pagecolor="#f5f7fa"
     bordercolor="#666666"
     borderopacity="1"
     objecttolerance="10"
     gridtolerance="10"
     guidetolerance="10"
     inkscape:pageopacity="0"
     inkscape:pageshadow="2"
     inkscape:window-width="1377"
     inkscape:window-height="886"
     id="namedview75"
     showgrid="false"
     inkscape:zoom="6.2890624"
     inkscape:cx="47.622361"
     inkscape:cy="45.396274"
     inkscape:window-x="0"
     inkscape:window-y="61"
     inkscape:window-maximized="0"
     inkscape:current-layer="g877"
     inkscape:document-rotation="0"
     inkscape:pagecheckerboard="0"
     inkscape:showpageshadow="2"
     inkscape:deskcolor="#d1d1d1" />
  <defs
     id="defs29" />
  <circle
     cx="32.516094"
     cy="31.877844"
     r="0"
     fill="url(#b)"
     stroke-width="1.5715"
     id="circle41"
     style="fill:url(#b)" />
  <g
     aria-label="GZ"
     transform="matrix(1.2212657,0,0,0.81882264,0.4960938,-0.1661539)"
     id="text93"
     style="font-weight:bold;font-size:11.5263px;line-height:1.25;font-family:sans-serif;-inkscape-font-specification:'sans-serif Bold';fill:#f2f2f2;stroke-width:0.288159" />
  <g
     id="g877"
     transform="matrix(1.1,0,0,1.1,-3.1845928,-3.2065454)">
    <rect
       x="8.3496294"
       y="8.369586"
       width="47.272728"
       height="47.272728"
       rx="9.8825235"
       ry="9.6485243"
       fill="url(#linearGradient862)"
       stroke-width="3.0541"
       id="rect35-7-3"
       style="fill:#414141;fill-opacity:1;stroke:#dfdfdf;stroke-width:2.04545;stroke-dasharray:none;stroke-opacity:1" />
    <path
       style="color:#444444;fill:#dfdfdf;fill-opacity:1;stroke:none;stroke-width:0.932063;stroke-dasharray:none;stroke-opacity:0.3"
       class="ColorScheme-Text"
       d="m 20.827021,19.832528 c 0,0 -4.057807,0 -4.057807,4.057809 v 16.231225 c 0,4.05781 4.057807,4.05781 4.057807,4.05781 h 22.317938 c 0,0 4.057814,0 4.057814,-4.05781 V 23.890337 c 0,-4.057809 -4.057814,-4.057809 -4.057814,-4.057809 z m 0.507226,4.057809 h 3.043355 c 0.281006,0 0.507224,0.226229 0.507224,0.507228 v 3.043355 c 0,0.281005 -0.226226,0.507225 -0.507224,0.507225 h -3.043355 c -0.281004,0 -0.507226,-0.22623 -0.507226,-0.507225 v -3.043355 c 0,-0.281006 0.226225,-0.507228 0.507226,-0.507228 z m 6.086712,0 h 3.043353 c 0.281011,0 0.507226,0.226229 0.507226,0.507228 v 3.043355 c 0,0.281005 -0.226222,0.507225 -0.507226,0.507225 h -3.043353 c -0.281011,0 -0.507228,-0.22623 -0.507228,-0.507225 v -3.043355 c 0,-0.281006 0.226225,-0.507228 0.507228,-0.507228 z m 6.08671,0 h 3.043353 c 0.281006,0 0.50723,0.226229 0.50723,0.507228 v 3.043355 c 0,0.281005 -0.22622,0.507225 -0.50723,0.507225 h -3.043353 c -0.281005,0 -0.507226,-0.22623 -0.507226,-0.507225 v -3.043355 c 0,-0.281006 0.226221,-0.507228 0.507226,-0.507228 z m 6.086707,0 h 3.04336 c 0.28101,0 0.507223,0.226229 0.507223,0.507228 v 3.043355 c 0,0.281005 -0.226254,0.507225 -0.507223,0.507225 h -3.04336 c -0.281009,0 -0.507222,-0.22623 -0.507222,-0.507225 v -3.043355 c 0,-0.281006 0.226213,-0.507228 0.507222,-0.507228 z m -18.260129,6.08671 h 3.043355 c 0.281006,0 0.507224,0.226225 0.507224,0.507223 v 3.04336 c 0,0.281009 -0.226226,0.507223 -0.507224,0.507223 h -3.043355 c -0.281004,0 -0.507226,-0.226225 -0.507226,-0.507223 v -3.04336 c 0,-0.281003 0.226225,-0.507223 0.507226,-0.507223 z m 6.086712,0 h 3.043353 c 0.281011,0 0.507226,0.226225 0.507226,0.507223 v 3.04336 c 0,0.281009 -0.226222,0.507223 -0.507226,0.507223 h -3.043353 c -0.281011,0 -0.507228,-0.226225 -0.507228,-0.507223 v -3.04336 c 0,-0.281003 0.226225,-0.507223 0.507228,-0.507223 z m 6.08671,0 h 3.043353 c 0.281006,0 0.50723,0.226225 0.50723,0.507223 v 3.04336 c 0,0.281009 -0.22622,0.507223 -0.50723,0.507223 h -3.043353 c -0.281005,0 -0.507226,-0.226225 -0.507226,-0.507223 v -3.04336 c 0,-0.281003 0.226221,-0.507223 0.507226,-0.507223 z m 6.086707,0 h 3.04336 c 0.28101,0 0.507223,0.226225 0.507223,0.507223 v 3.04336 c 0,0.281009 -0.226254,0.507223 -0.507223,0.507223 h -3.04336 c -0.281009,0 -0.507222,-0.226225 -0.507222,-0.507223 v -3.04336 c 0,-0.281003 0.226213,-0.507223 0.507222,-0.507223 z m -14.202324,6.086711 h 13.187874 c 0.28101,0 0.507228,0.22623 0.507228,0.507224 v 3.043349 c 0,0.281051 -0.226255,0.507231 -0.507228,0.507231 H 25.392052 c -0.281005,0 -0.507226,-0.226255 -0.507226,-0.507231 v -3.043349 c 0,-0.280993 0.226225,-0.507224 0.507226,-0.507224 z"
       id="path5" />
  </g>
</svg>
