<?xml version="1.0" encoding="UTF-8" standalone="no"?>
<svg
   width="64"
   height="64"
   version="1.1"
   id="svg73"
   sodipodi:docname="device_usb.svg"
   inkscape:version="1.3.2 (091e20ef0f, 2023-11-25)"
   xmlns:inkscape="http://www.inkscape.org/namespaces/inkscape"
   xmlns:sodipodi="http://sodipodi.sourceforge.net/DTD/sodipodi-0.dtd"
   xmlns="http://www.w3.org/2000/svg"
   xmlns:svg="http://www.w3.org/2000/svg"
   xmlns:rdf="http://www.w3.org/1999/02/22-rdf-syntax-ns#"
   xmlns:cc="http://creativecommons.org/ns#"
   xmlns:dc="http://purl.org/dc/elements/1.1/">
  <metadata
     id="metadata77">
    <rdf:RDF>
      <cc:Work
         rdf:about="">
        <dc:format>image/svg+xml</dc:format>
        <dc:type
           rdf:resource="http://purl.org/dc/dcmitype/StillImage" />
      </cc:Work>
    </rdf:RDF>
  </metadata>
  <sodipodi:namedview
     pagecolor="#f5f7fa"
     bordercolor="#666666"
     borderopacity="1"
     objecttolerance="10"
     gridtolerance="10"
     guidetolerance="10"
     inkscape:pageopacity="0"
     inkscape:pageshadow="2"
     inkscape:window-width="1377"
     inkscape:window-height="886"
     id="namedview75"
     showgrid="false"
     inkscape:zoom="4.4470387"
     inkscape:cx="47.784608"
     inkscape:cy="14.054296"
     inkscape:window-x="181"
     inkscape:window-y="77"
     inkscape:window-maximized="0"
     inkscape:current-layer="g877"
     inkscape:document-rotation="0"
     inkscape:pagecheckerboard="0"
     inkscape:showpageshadow="2"
     inkscape:deskcolor="#d1d1d1" />
  <defs
     id="defs29">
    <linearGradient
       id="b"
       x1="399.57"
       x2="399.57"
       y1="545.8"
       y2="517.8"
       gradientTransform="matrix(2.1429,0,0,2.1429,-825.86391,-1107.6662)"
       gradientUnits="userSpaceOnUse">
      <stop
         stop-color="#3889e9"
         offset="0"
         id="stop2" />
      <stop
         stop-color="#5ea5fb"
         offset="1"
         id="stop4" />
    </linearGradient>
    <linearGradient
       id="d"
       x2="1"
       gradientTransform="matrix(14.905727,-4.7106182,4.7106182,14.905727,322.04962,998.26962)"
       gradientUnits="userSpaceOnUse">
      <stop
         stop-color="#fafafa"
         offset="0"
         id="stop7" />
      <stop
         stop-color="#aaa"
         offset="1"
         id="stop8" />
    </linearGradient>
    <linearGradient
       id="e"
       x2="1"
       gradientTransform="matrix(21.439909,0,0,21.439909,26.63554,1159.7788)"
       gradientUnits="userSpaceOnUse">
      <stop
         stop-color="#f0f0f0"
         offset="0"
         id="stop9" />
      <stop
         stop-color="#b7f1ff"
         offset="1"
         id="stop10" />
    </linearGradient>
  </defs>
  <circle
     cx="32.516094"
     cy="31.877844"
     r="0"
     fill="url(#b)"
     stroke-width="1.5715"
     id="circle41"
     style="fill:url(#b)" />
  <g
     aria-label="GZ"
     transform="matrix(1.2212657,0,0,0.81882264,0.4960938,-0.1661539)"
     id="text93"
     style="font-weight:bold;font-size:11.5263px;line-height:1.25;font-family:sans-serif;-inkscape-font-specification:'sans-serif Bold';fill:#f2f2f2;stroke-width:0.288159" />
  <g
     id="g877"
     transform="matrix(1.1,0,0,1.1,-3.1845928,-3.2065454)">
    <rect
       x="6.3010068"
       y="5.4939413"
       width="51.635597"
       height="53.148327"
       rx="10.980581"
       ry="10.720582"
       fill="url(#linearGradient862)"
       stroke-width="3.0541"
       id="rect35-7-3"
       style="fill:#414141;fill-opacity:1;stroke:#dfdfdf;stroke-width:2.27272727;stroke-dasharray:none;stroke-opacity:1" />
    <g
       id="g11"
       style="clip-rule:evenodd;fill-rule:evenodd;stroke-linejoin:round;stroke-miterlimit:2;fill:#dfdfdf;fill-opacity:1"
       transform="matrix(2.8531168,0,0,2.8531168,8.1890489,8.2090062)">
      <path
         d="m 7.5,13 h 2 c 0.277,0 0.5,0.223 0.5,0.5 v 2 C 10,15.777 9.777,16 9.5,16 h -2 C 7.223,16 7,15.777 7,15.5 v -2 C 7,13.223 7.223,13 7.5,13 Z m 0.015,0.515 v 1.97 h 1.97 v -1.97 z"
         fill="#dfdfdf"
         id="path1"
         style="fill:#dfdfdf;fill-opacity:1" />
      <path
         d="m 11.5,9 h 2 C 13.777,9 14,9.223 14,9.5 v 2 c 0,0.277 -0.223,0.5 -0.5,0.5 h -2 C 11.223,12 11,11.777 11,11.5 v -2 C 11,9.223 11.223,9 11.5,9 Z"
         fill="#dfdfdf"
         id="path2"
         style="fill:#dfdfdf;fill-opacity:1" />
      <path
         d="m 7.5,9 h 2 C 9.777,9 10,9.223 10,9.5 v 2 C 10,11.777 9.777,12 9.5,12 h -2 C 7.223,12 7,11.777 7,11.5 v -2 C 7,9.223 7.223,9 7.5,9 Z"
         fill="#dfdfdf"
         id="path3"
         style="fill:#dfdfdf;fill-opacity:1" />
      <path
         d="m 3.5,9 h 2 C 5.777,9 6,9.223 6,9.5 v 2 C 6,11.777 5.777,12 5.5,12 h -2 C 3.223,12 3,11.777 3,11.5 v -2 C 3,9.223 3.223,9 3.5,9 Z"
         fill="#dfdfdf"
         id="path4"
         style="fill:#dfdfdf;fill-opacity:1" />
      <path
         d="m 3.5,5 h 2 C 5.777,5 6,5.223 6,5.5 v 2 C 6,7.777 5.777,8 5.5,8 h -2 C 3.223,8 3,7.777 3,7.5 v -2 C 3,5.223 3.223,5 3.5,5 Z"
         fill="#dfdfdf"
         id="path5"
         style="fill:#dfdfdf;fill-opacity:1" />
      <path
         d="m 7.5,5 h 2 C 9.777,5 10,5.223 10,5.5 v 2 C 10,7.777 9.777,8 9.5,8 h -2 C 7.223,8 7,7.777 7,7.5 v -2 C 7,5.223 7.223,5 7.5,5 Z"
         fill="#dfdfdf"
         id="path6"
         style="fill:#dfdfdf;fill-opacity:1" />
      <g
         transform="translate(0,8)"
         id="g7"
         style="fill:#dfdfdf;fill-opacity:1">
        <path
           d="m 7.5,5 h 2 C 9.777,5 10,5.223 10,5.5 v 2 C 10,7.777 9.777,8 9.5,8 h -2 C 7.223,8 7,7.777 7,7.5 v -2 C 7,5.223 7.223,5 7.5,5 Z"
           fill-opacity=".3"
           fill="#dfdfdf"
           id="path7"
           style="fill:#dfdfdf;fill-opacity:1" />
      </g>
      <path
         d="m 11.5,5 h 2 C 13.777,5 14,5.223 14,5.5 v 2 C 14,7.777 13.777,8 13.5,8 h -2 C 11.223,8 11,7.777 11,7.5 v -2 C 11,5.223 11.223,5 11.5,5 Z"
         fill="#dfdfdf"
         id="path8"
         style="fill:#dfdfdf;fill-opacity:1" />
      <path
         d="m 11.5,1 h 2 C 13.777,1 14,1.223 14,1.5 v 2 C 14,3.777 13.777,4 13.5,4 h -2 C 11.223,4 11,3.777 11,3.5 v -2 C 11,1.223 11.223,1 11.5,1 Z"
         fill="#dfdfdf"
         id="path9"
         style="fill:#dfdfdf;fill-opacity:1" />
      <path
         d="m 7.5,1 h 2 C 9.777,1 10,1.223 10,1.5 v 2 C 10,3.777 9.777,4 9.5,4 h -2 C 7.223,4 7,3.777 7,3.5 v -2 C 7,1.223 7.223,1 7.5,1 Z"
         fill="#dfdfdf"
         id="path10"
         style="fill:#dfdfdf;fill-opacity:1" />
      <path
         d="m 3.5,1 h 2 C 5.777,1 6,1.223 6,1.5 v 2 C 6,3.777 5.777,4 5.5,4 h -2 C 3.223,4 3,3.777 3,3.5 v -2 C 3,1.223 3.223,1 3.5,1 Z"
         fill="#dfdfdf"
         id="path11"
         style="fill:#dfdfdf;fill-opacity:1" />
    </g>
  </g>
</svg>
