<?xml version="1.0" encoding="UTF-8" standalone="no"?>
<svg
   width="64"
   height="64"
   version="1.1"
   id="svg73"
   sodipodi:docname="audacious.svg"
   inkscape:version="1.4.2 (ebf0e940d0, 2025-05-08)"
   xmlns:inkscape="http://www.inkscape.org/namespaces/inkscape"
   xmlns:sodipodi="http://sodipodi.sourceforge.net/DTD/sodipodi-0.dtd"
   xmlns="http://www.w3.org/2000/svg"
   xmlns:svg="http://www.w3.org/2000/svg"
   xmlns:rdf="http://www.w3.org/1999/02/22-rdf-syntax-ns#"
   xmlns:cc="http://creativecommons.org/ns#"
   xmlns:dc="http://purl.org/dc/elements/1.1/">
  <metadata
     id="metadata77">
    <rdf:RDF>
      <cc:Work
         rdf:about="">
        <dc:format>image/svg+xml</dc:format>
        <dc:type
           rdf:resource="http://purl.org/dc/dcmitype/StillImage" />
      </cc:Work>
    </rdf:RDF>
  </metadata>
  <sodipodi:namedview
     pagecolor="#f5f7fa"
     bordercolor="#666666"
     borderopacity="1"
     objecttolerance="10"
     gridtolerance="10"
     guidetolerance="10"
     inkscape:pageopacity="0"
     inkscape:pageshadow="2"
     inkscape:window-width="1377"
     inkscape:window-height="886"
     id="namedview75"
     showgrid="false"
     inkscape:zoom="6.2890624"
     inkscape:cx="47.622361"
     inkscape:cy="45.396274"
     inkscape:window-x="0"
     inkscape:window-y="61"
     inkscape:window-maximized="0"
     inkscape:current-layer="g877"
     inkscape:document-rotation="0"
     inkscape:pagecheckerboard="0"
     inkscape:showpageshadow="2"
     inkscape:deskcolor="#d1d1d1" />
  <defs
     id="defs29" />
  <circle
     cx="32.516094"
     cy="31.877844"
     r="0"
     fill="url(#b)"
     stroke-width="1.5715"
     id="circle41"
     style="fill:url(#b)" />
  <g
     aria-label="GZ"
     transform="matrix(1.2212657,0,0,0.81882264,0.4960938,-0.1661539)"
     id="text93"
     style="font-weight:bold;font-size:11.5263px;line-height:1.25;font-family:sans-serif;-inkscape-font-specification:'sans-serif Bold';fill:#f2f2f2;stroke-width:0.288159" />
  <g
     id="g877"
     transform="matrix(1.1,0,0,1.1,-3.1845928,-3.2065454)">
    <rect
       x="8.3496294"
       y="8.369586"
       width="47.272728"
       height="47.272728"
       rx="9.8825235"
       ry="9.6485243"
       fill="url(#linearGradient862)"
       stroke-width="3.0541"
       id="rect35-7-3"
       style="fill:#414141;fill-opacity:1;stroke:#dfdfdf;stroke-width:2.04545;stroke-dasharray:none;stroke-opacity:1" />
    <path
       style="color:#444444;fill:#dfdfdf;fill-opacity:1;stroke:none;stroke-width:0.955319;stroke-dasharray:none;stroke-opacity:0.3"
       class="ColorScheme-Text"
       d="m 16.582633,40.670613 c 0,1.06671 0.858764,1.925475 1.925479,1.925475 h 1.925482 1.925478 1.92548 1.92548 1.925482 v -3.850957 h -3.850962 -1.92548 -1.925478 -3.850961 z m 0,-3.850964 h 1.925479 15.403841 1.924903 7.702115 1.925482 1.925479 v -3.850961 -1.925482 a 1.9254802,1.9254802 0 0 1 -1.925479,-1.925479 1.9254802,1.9254802 0 0 1 1.79069,-1.921627 2.8882202,2.8882202 0 0 1 0.134736,-0.004 v -1.925398 -0.962737 -0.962741 c 0,-1.066716 -0.85876,-1.925481 -1.925479,-1.925481 H 44.501712 43.538971 20.433015 19.470272 18.507535 c -1.066718,0 -1.92548,0.858765 -1.92548,1.925481 v 0.962741 0.962737 1.925483 a 1.9254802,1.9254802 0 0 1 0.192548,0.01147 1.9254802,1.9254802 0 0 1 1.73351,1.913932 1.9254802,1.9254802 0 0 1 -1.92548,1.925479 v 1.925519 1.925289 z m 5.776439,-3.850961 v -7.70192 h 3.85096 v 7.70192 z m 7.701921,0 v -7.70192 h 3.85096 v 7.70192 z m 1.925481,9.6274 h 1.925479 1.924903 1.92567 1.925482 1.925479 1.925484 1.925482 c 1.066715,0 1.925479,-0.858765 1.925479,-1.925475 v -1.925482 h -3.850961 -1.925484 -1.925479 -1.925482 -3.850573 -1.925479 z m 5.776052,-9.6274 v -7.70192 h 3.850961 v 7.70192 z"
       id="path5-5" />
  </g>
</svg>
