<?xml version="1.0" encoding="UTF-8" standalone="no"?>
<svg
   width="64"
   height="64"
   version="1.1"
   id="svg73"
   sodipodi:docname="audacious.svg"
   inkscape:version="1.4.2 (ebf0e940d0, 2025-05-08)"
   xmlns:inkscape="http://www.inkscape.org/namespaces/inkscape"
   xmlns:sodipodi="http://sodipodi.sourceforge.net/DTD/sodipodi-0.dtd"
   xmlns="http://www.w3.org/2000/svg"
   xmlns:svg="http://www.w3.org/2000/svg"
   xmlns:rdf="http://www.w3.org/1999/02/22-rdf-syntax-ns#"
   xmlns:cc="http://creativecommons.org/ns#"
   xmlns:dc="http://purl.org/dc/elements/1.1/">
  <metadata
     id="metadata77">
    <rdf:RDF>
      <cc:Work
         rdf:about="">
        <dc:format>image/svg+xml</dc:format>
        <dc:type
           rdf:resource="http://purl.org/dc/dcmitype/StillImage" />
      </cc:Work>
    </rdf:RDF>
  </metadata>
  <sodipodi:namedview
     pagecolor="#f5f7fa"
     bordercolor="#666666"
     borderopacity="1"
     objecttolerance="10"
     gridtolerance="10"
     guidetolerance="10"
     inkscape:pageopacity="0"
     inkscape:pageshadow="2"
     inkscape:window-width="1377"
     inkscape:window-height="886"
     id="namedview75"
     showgrid="false"
     inkscape:zoom="6.2890624"
     inkscape:cx="47.622361"
     inkscape:cy="45.396274"
     inkscape:window-x="0"
     inkscape:window-y="61"
     inkscape:window-maximized="0"
     inkscape:current-layer="g877"
     inkscape:document-rotation="0"
     inkscape:pagecheckerboard="0"
     inkscape:showpageshadow="2"
     inkscape:deskcolor="#d1d1d1" />
  <defs
     id="defs29" />
  <circle
     cx="32.516094"
     cy="31.877844"
     r="0"
     fill="url(#b)"
     stroke-width="1.5715"
     id="circle41"
     style="fill:url(#b)" />
  <g
     aria-label="GZ"
     transform="matrix(1.2212657,0,0,0.81882264,0.4960938,-0.1661539)"
     id="text93"
     style="font-weight:bold;font-size:11.5263px;line-height:1.25;font-family:sans-serif;-inkscape-font-specification:'sans-serif Bold';fill:#f2f2f2;stroke-width:0.288159" />
  <g
     id="g877"
     transform="matrix(1.1,0,0,1.1,-3.1845928,-3.2065454)">
    <rect
       x="8.3496294"
       y="8.369586"
       width="47.272728"
       height="47.272728"
       rx="9.8825235"
       ry="9.6485243"
       fill="url(#linearGradient862)"
       stroke-width="3.0541"
       id="rect35-7-3"
       style="fill:#414141;fill-opacity:1;stroke:#dfdfdf;stroke-width:2.04545;stroke-dasharray:none;stroke-opacity:1" />
    <path
       id="path6189"
       style="fill:#dfdfdf;stroke-width:0.0666706;fill-opacity:1"
       d="m 25.938162,16.251453 c -4.504643,-8.3e-4 -4.59042,0.02507 -4.865745,0.128111 -0.461375,0.172624 -0.993232,0.644517 -1.228216,1.08991 l -0.17963,0.340527 -0.01737,14.080109 c -0.01715,13.978024 -0.01618,14.082254 0.11737,14.439095 0.243827,0.651683 0.82385,1.167258 1.528794,1.35852 0.237408,0.06441 2.631668,0.07986 10.838485,0.07003 l 10.533771,-0.01276 0.377486,-0.185412 c 0.496035,-0.243558 0.894637,-0.639224 1.112775,-1.104509 l 0.176599,-0.376875 V 31.977448 17.876677 L 44.103782,17.455148 C 43.852748,16.992196 43.506465,16.658034 43.03754,16.426952 l -0.305307,-0.150147 -10.645905,-0.01763 c -2.654228,-0.0044 -4.646686,-0.0073 -6.148229,-0.0076 z m 5.938023,2.741026 c 6.830444,-0.01311 9.237473,0.0023 9.376082,0.05951 0.395557,0.163283 0.380208,-0.09514 0.380208,6.411895 0,4.190259 -0.02192,6.023175 -0.07407,6.172203 -0.04123,0.118584 -0.157434,0.255141 -0.263383,0.309952 -0.164097,0.08485 -1.411124,0.09764 -9.30969,0.09394 -5.016275,-0.0024 -9.184873,-0.03031 -9.26345,-0.06199 -0.374969,-0.151322 -0.357062,0.171982 -0.357062,-6.478569 v -6.115169 l 0.160899,-0.187068 0.160895,-0.187067 z m -2.129402,3.570307 c -0.108508,-0.0038 -0.252955,0.05797 -0.349896,0.149052 l -0.165033,0.155112 v 2.643495 2.643499 l 0.149879,0.13665 c 0.08249,0.07505 0.194881,0.151196 0.249882,0.169439 0.05499,0.01829 0.204183,-0.0091 0.331434,-0.06089 0.557472,-0.226679 4.552883,-2.456107 4.671243,-2.606577 0.170468,-0.216708 0.165457,-0.368347 -0.019,-0.580219 -0.200604,-0.230417 -4.630984,-2.641552 -4.868498,-2.649562 z m 7.418603,10.560772 c 1.384,0.06708 2.291016,1.168538 2.179546,2.647076 -0.06947,0.920875 -0.621061,1.706017 -1.402889,1.996884 -1.545749,0.575066 -3.033399,-0.370654 -3.156772,-2.007078 -0.116605,-1.546703 0.930776,-2.70714 2.380115,-2.636882 z m -10.267078,0.02095 c 0.559116,-4.91e-4 0.67797,0.02171 1.01359,0.186519 0.480884,0.236148 0.934974,0.734977 1.12242,1.233171 0.121579,0.323113 0.139081,0.485231 0.116823,1.080267 -0.02253,0.601842 -0.05189,0.749244 -0.208555,1.052147 -0.33765,0.652865 -0.907293,1.074847 -1.638996,1.213611 -0.399697,0.07581 -0.457581,0.07565 -0.84829,-0.0018 -0.669869,-0.132575 -1.349854,-0.677389 -1.646437,-1.319123 -0.121223,-0.262284 -0.144092,-0.43323 -0.144092,-1.078339 0,-0.745881 0.0063,-0.778132 0.22729,-1.185786 0.257497,-0.474875 0.523117,-0.733271 1.025441,-0.997615 0.30802,-0.162094 0.419497,-0.182934 0.98081,-0.183218 z M 37.16676,39.86966 c 1.132615,0.03377 2.085098,0.946703 2.178998,2.192213 0.08315,1.103024 -0.4088,2.01579 -1.313626,2.437415 -0.53527,0.249437 -1.296458,0.274738 -1.804853,0.06006 -1.002062,-0.423095 -1.529532,-1.336554 -1.442008,-2.497479 0.08503,-1.127726 0.79656,-1.938972 1.886953,-2.15144 0.167166,-0.03289 0.332738,-0.04565 0.494536,-0.04079 z m -10.268452,0.02148 c 0.282847,0.0022 0.624455,0.05026 0.786575,0.110206 0.637061,0.235799 1.158922,0.76658 1.372028,1.395453 0.159572,0.470867 0.145296,1.410455 -0.0286,1.875376 -0.180029,0.481159 -0.640709,0.985499 -1.109192,1.214711 -0.448098,0.219221 -1.292864,0.286536 -1.697957,0.135289 -0.665654,-0.248648 -1.049987,-0.584796 -1.376715,-1.204089 -0.164931,-0.312628 -0.179635,-0.403361 -0.179635,-1.107263 0,-0.901702 0.100873,-1.19265 0.596474,-1.722479 0.440221,-0.47069 0.98415,-0.702454 1.637039,-0.697336 z" />
  </g>
</svg>
