<?xml version="1.0" encoding="UTF-8" standalone="no"?>
<svg
   width="64"
   height="64"
   version="1.1"
   id="svg73"
   sodipodi:docname="audacious.svg"
   inkscape:version="1.4.2 (ebf0e940d0, 2025-05-08)"
   xmlns:inkscape="http://www.inkscape.org/namespaces/inkscape"
   xmlns:sodipodi="http://sodipodi.sourceforge.net/DTD/sodipodi-0.dtd"
   xmlns="http://www.w3.org/2000/svg"
   xmlns:svg="http://www.w3.org/2000/svg"
   xmlns:rdf="http://www.w3.org/1999/02/22-rdf-syntax-ns#"
   xmlns:cc="http://creativecommons.org/ns#"
   xmlns:dc="http://purl.org/dc/elements/1.1/">
  <metadata
     id="metadata77">
    <rdf:RDF>
      <cc:Work
         rdf:about="">
        <dc:format>image/svg+xml</dc:format>
        <dc:type
           rdf:resource="http://purl.org/dc/dcmitype/StillImage" />
      </cc:Work>
    </rdf:RDF>
  </metadata>
  <sodipodi:namedview
     pagecolor="#f5f7fa"
     bordercolor="#666666"
     borderopacity="1"
     objecttolerance="10"
     gridtolerance="10"
     guidetolerance="10"
     inkscape:pageopacity="0"
     inkscape:pageshadow="2"
     inkscape:window-width="1377"
     inkscape:window-height="886"
     id="namedview75"
     showgrid="false"
     inkscape:zoom="6.2890624"
     inkscape:cx="47.622361"
     inkscape:cy="45.396274"
     inkscape:window-x="0"
     inkscape:window-y="61"
     inkscape:window-maximized="0"
     inkscape:current-layer="g877"
     inkscape:document-rotation="0"
     inkscape:pagecheckerboard="0"
     inkscape:showpageshadow="2"
     inkscape:deskcolor="#d1d1d1" />
  <defs
     id="defs29" />
  <circle
     cx="32.516094"
     cy="31.877844"
     r="0"
     fill="url(#b)"
     stroke-width="1.5715"
     id="circle41"
     style="fill:url(#b)" />
  <g
     aria-label="GZ"
     transform="matrix(1.2212657,0,0,0.81882264,0.4960938,-0.1661539)"
     id="text93"
     style="font-weight:bold;font-size:11.5263px;line-height:1.25;font-family:sans-serif;-inkscape-font-specification:'sans-serif Bold';fill:#f2f2f2;stroke-width:0.288159" />
  <g
     id="g877"
     transform="matrix(1.1,0,0,1.1,-3.1845928,-3.2065454)">
    <rect
       x="8.3496294"
       y="8.369586"
       width="47.272728"
       height="47.272728"
       rx="9.8825235"
       ry="9.6485243"
       fill="url(#linearGradient862)"
       stroke-width="3.0541"
       id="rect35-7-3"
       style="fill:#414141;fill-opacity:1;stroke:#dfdfdf;stroke-width:2.04545;stroke-dasharray:none;stroke-opacity:1" />
    <path
       id="path7250"
       style="fill:#dfdfdf;fill-opacity:1;stroke:none;stroke-width:0.226242;stroke-dasharray:none;stroke-opacity:1"
       d="m 32.271852,21.606004 c -3.28005,-0.03997 -6.570196,0.674287 -9.540123,2.116297 -2.16767,1.052483 -4.178036,2.483636 -5.829004,4.149823 l -0.444521,0.448487 1.727837,1.567322 1.727574,1.567324 0.526759,-0.491325 c 0.289631,-0.270227 0.626186,-0.576805 0.748094,-0.681193 5.051132,-4.325135 12.24408,-5.211098 18.203639,-2.242169 1.538605,0.766504 2.771166,1.634826 4.117034,2.899826 l 0.551614,0.518299 1.726518,-1.567851 1.72651,-1.568118 -0.49079,-0.494498 c -2.452749,-2.471161 -5.501497,-4.290864 -8.929539,-5.330011 -1.889191,-0.572671 -3.85357,-0.86823 -5.821602,-0.892213 z m -0.287443,5.438429 c -0.753753,4.6e-5 -1.507341,0.0281 -1.922463,0.08382 -3.541239,0.474992 -6.576551,1.931864 -9.151665,4.392577 -0.231792,0.221492 -0.415608,0.419458 -0.408557,0.440025 0.007,0.0206 0.785507,0.738016 1.729952,1.594296 l 1.716995,1.556744 0.341654,-0.330811 c 1.649118,-1.596706 3.923349,-2.672303 6.30552,-2.982593 0.700748,-0.09122 2.079626,-0.09119 2.778184,3.09e-4 2.382665,0.311934 4.393222,1.243002 6.20583,2.873908 l 0.463291,0.416754 0.09971,-0.08938 c 0.487975,-0.436088 3.1165,-2.81508 3.220587,-2.914901 l 0.13433,-0.128783 -0.17956,-0.187221 c -0.701511,-0.731445 -1.950326,-1.729373 -2.93976,-2.349267 -0.706597,-0.442692 -2.009739,-1.089467 -2.769187,-1.374548 -1.128158,-0.423481 -2.440665,-0.748744 -3.701338,-0.917334 -0.415989,-0.05563 -1.169766,-0.08361 -1.923521,-0.08356 z m -0.09943,5.392152 c -0.178163,0.0019 -0.356572,0.0082 -0.534959,0.01928 -2.467711,0.154483 -4.715654,1.131784 -6.572337,2.856731 l -0.307014,0.285067 1.732333,1.570494 c 0.952725,0.863793 1.738953,1.571402 1.747142,1.572349 0.0082,9.4e-4 0.13018,-0.09763 0.271309,-0.219223 2.121138,-1.82763 5.31203,-1.855787 7.448157,-0.0656 l 0.346682,0.290629 0.194089,-0.171605 c 0.106766,-0.09436 0.891447,-0.802968 1.743702,-1.57445 l 1.549616,-1.40256 -0.354346,-0.331869 C 37.184202,33.4263 34.557405,32.409313 31.884984,32.436588 Z m -0.04125,5.418068 c -0.28996,0.0064 -0.576819,0.03788 -0.854136,0.0965 -0.881291,0.186418 -1.764745,0.626241 -2.337365,1.164058 l -0.142531,0.134103 1.739473,1.578963 1.739472,1.579218 1.027607,-0.934259 c 0.565144,-0.513751 1.347325,-1.221335 1.738152,-1.572338 l 0.710542,-0.638076 -0.212868,-0.199665 c -0.838167,-0.786273 -2.151851,-1.2355 -3.40835,-1.208495 z" />
  </g>
</svg>
