<?xml version="1.0" encoding="UTF-8" standalone="no"?>
<svg
   width="64"
   height="64"
   version="1.1"
   id="svg73"
   sodipodi:docname="partitionmanager.svg"
   inkscape:version="1.4.2 (ebf0e940d0, 2025-05-08)"
   xmlns:inkscape="http://www.inkscape.org/namespaces/inkscape"
   xmlns:sodipodi="http://sodipodi.sourceforge.net/DTD/sodipodi-0.dtd"
   xmlns="http://www.w3.org/2000/svg"
   xmlns:svg="http://www.w3.org/2000/svg"
   xmlns:rdf="http://www.w3.org/1999/02/22-rdf-syntax-ns#"
   xmlns:cc="http://creativecommons.org/ns#"
   xmlns:dc="http://purl.org/dc/elements/1.1/">
  <metadata
     id="metadata77">
    <rdf:RDF>
      <cc:Work
         rdf:about="">
        <dc:format>image/svg+xml</dc:format>
        <dc:type
           rdf:resource="http://purl.org/dc/dcmitype/StillImage" />
      </cc:Work>
    </rdf:RDF>
  </metadata>
  <sodipodi:namedview
     pagecolor="#f5f7fa"
     bordercolor="#666666"
     borderopacity="1"
     objecttolerance="10"
     gridtolerance="10"
     guidetolerance="10"
     inkscape:pageopacity="0"
     inkscape:pageshadow="2"
     inkscape:window-width="1377"
     inkscape:window-height="886"
     id="namedview75"
     showgrid="false"
     inkscape:zoom="6.2890624"
     inkscape:cx="28.700622"
     inkscape:cy="17.570187"
     inkscape:window-x="264"
     inkscape:window-y="102"
     inkscape:window-maximized="0"
     inkscape:current-layer="g877"
     inkscape:document-rotation="0"
     inkscape:pagecheckerboard="0"
     inkscape:showpageshadow="2"
     inkscape:deskcolor="#d1d1d1" />
  <defs
     id="defs29" />
  <circle
     cx="32.516094"
     cy="31.877844"
     r="0"
     fill="url(#b)"
     stroke-width="1.5715"
     id="circle41"
     style="fill:url(#b)" />
  <g
     aria-label="GZ"
     transform="matrix(1.2212657,0,0,0.81882264,0.4960938,-0.1661539)"
     id="text93"
     style="font-weight:bold;font-size:11.5263px;line-height:1.25;font-family:sans-serif;-inkscape-font-specification:'sans-serif Bold';fill:#f2f2f2;stroke-width:0.288159" />
  <g
     id="g877"
     transform="matrix(1.1,0,0,1.1,-3.1845928,-3.2065454)">
    <rect
       x="8.3496294"
       y="8.369586"
       width="47.272728"
       height="47.272728"
       rx="9.8825235"
       ry="9.6485243"
       fill="url(#linearGradient862)"
       stroke-width="3.0541"
       id="rect35-7-3"
       style="fill:#414141;fill-opacity:1;stroke:#dfdfdf;stroke-width:2.04545;stroke-dasharray:none;stroke-opacity:1" />
    <path
       id="path59"
       style="fill:#dfdfdf;stroke:none;stroke-width:0.531936;stroke-dasharray:none;stroke-dashoffset:2.2;stroke-opacity:0.6;fill-opacity:1"
       d="m 32.047123,16.44684 c -15.84043,0 -15.214232,-0.02378 -15.548882,0.601532 -0.07738,0.144632 -0.126085,1.546743 -0.126085,3.677406 0,3.803384 0.0069,3.843273 0.775172,4.177655 0.312542,0.136034 2.928311,0.165588 14.827454,0.1695 13.126414,0.0045 14.486222,-0.01369 14.86673,-0.194306 0.762393,-0.361793 0.788244,-0.508381 0.748299,-4.314081 l -0.03508,-3.408683 -0.396865,-0.355543 -0.398931,-0.353482 z m 8.636429,1.331225 c 0.48406,0.01237 0.945161,0.212834 1.174126,0.562257 0.447601,0.68313 0.162096,1.485195 -0.651145,1.829403 -0.482614,0.204283 -0.71895,0.203337 -1.205131,-0.0081 -0.492617,-0.214409 -0.775172,-0.629096 -0.775172,-1.136928 0,-0.533962 0.171598,-0.833904 0.605673,-1.058365 0.263001,-0.135981 0.561215,-0.195467 0.851649,-0.188108 z m -4.43811,0.0062 c 1.483602,0 1.885836,1.821543 0.522986,2.366853 -0.518885,0.207637 -0.600449,0.211104 -1.15139,0.0517 -0.767925,-0.222234 -1.098591,-1.052968 -0.715223,-1.794318 0.21723,-0.420069 0.659049,-0.624269 1.343627,-0.624269 z m 8.307756,0 c 1.545665,0 2.028451,1.795917 0.632538,2.354448 -0.271326,0.108574 -0.560655,0.192076 -0.642874,0.186043 -1.305692,-0.09581 -1.866802,-1.273195 -1.012873,-2.127109 0.36023,-0.360338 0.490835,-0.413423 1.023209,-0.413423 z M 30.897805,18.39195 c 0.296909,0 0.791706,0.558549 0.791706,0.892998 0,0.270466 -1.567807,2.474898 -2.412331,3.392144 -0.553918,0.601614 -1.477992,0.324978 -1.477992,-0.442365 0,-0.317186 0.247774,-0.723863 1.221669,-1.998903 1.196712,-1.566775 1.481017,-1.843888 1.876948,-1.843888 z M 20.727571,18.4126 c 0.161638,-0.01801 0.309647,0.05563 0.487838,0.188097 0.614585,0.456806 0.515299,0.810385 -0.659415,2.354495 -0.58072,0.763354 -1.195714,1.53806 -1.366365,1.721925 -0.372842,0.401721 -0.887575,0.439517 -1.236134,0.09097 -0.46143,-0.461422 -0.32403,-0.80542 1.035623,-2.581832 0.960412,-1.254783 1.382834,-1.734249 1.738453,-1.773588 z m 3.435549,0.0042 c 0.05538,2.99e-4 0.111537,0.01029 0.169492,0.02489 0.396968,0.09956 0.719128,0.595604 0.626339,0.965281 -0.07559,0.301213 -2.108968,3.023099 -2.532215,3.390086 -0.327889,0.2843 -0.860138,0.270256 -1.132781,-0.03104 -0.434134,-0.479695 -0.292453,-0.838627 0.967418,-2.47639 1.13685,-1.477843 1.514176,-1.874883 1.901747,-1.872812 z m 3.226777,0.02489 c 0.342717,-0.02401 0.729607,0.144305 0.818579,0.37617 0.200495,0.522465 0.04959,0.849281 -1.091439,2.350294 -0.643426,0.846464 -1.257423,1.607369 -1.362229,1.690949 -0.491577,0.391977 -1.3581,-0.01472 -1.3581,-0.636677 0,-0.42257 2.452697,-3.658689 2.848492,-3.758025 0.04611,-0.01158 0.09574,-0.01927 0.144693,-0.02275 z m 4.526995,9.165521 c -7.284988,0.0023 -14.555006,0.07125 -14.812987,0.204657 -0.726702,0.375781 -0.731762,0.399425 -0.731762,4.169391 0,2.120861 0.04938,3.534073 0.126096,3.677404 0.06852,0.12806 0.27258,0.314549 0.454762,0.413422 0.287002,0.155761 2.300152,0.179738 15.069312,0.18397 l 14.736505,0.0041 0.398936,-0.353474 0.396864,-0.355538 0.03508,-3.408685 c 0.03983,-3.822712 0.0073,-4.014972 -0.768792,-4.338889 -0.31889,-0.133113 -7.618961,-0.198444 -14.903952,-0.196262 z m 4.291343,1.370505 c 0.205641,0.0044 0.40948,0.06658 0.665612,0.188107 0.810739,0.384726 0.984465,1.390096 0.34522,1.990648 -0.216201,0.203068 -0.488674,0.299309 -0.967395,0.338999 -0.632597,0.05249 -0.689456,0.03197 -1.095596,-0.374144 -0.700531,-0.70053 -0.529528,-1.606851 0.374162,-1.984431 0.263786,-0.110217 0.472344,-0.163645 0.678014,-0.159163 z m 8.388366,0 c 0.205632,0.0044 0.409491,0.06658 0.665616,0.188107 0.810738,0.38472 0.984476,1.390089 0.345167,1.990638 -0.21621,0.20307 -0.48869,0.299309 -0.967408,0.339018 -0.632572,0.05249 -0.689423,0.03198 -1.095577,-0.374152 -0.70053,-0.700535 -0.529527,-1.606856 0.374158,-1.984436 0.263805,-0.110217 0.472332,-0.163642 0.678013,-0.159169 z m -3.855168,0.02688 c 0.06567,0.0029 0.129174,0.01146 0.190125,0.02486 0.477895,0.104979 1.044756,0.585816 1.141045,0.96948 0.11014,0.438746 -0.214158,1.10955 -0.642879,1.331227 -0.70029,0.36214 -1.779724,0.148809 -2.079503,-0.411355 -0.202279,-0.377972 -0.142762,-1.042264 0.121948,-1.37877 0.264475,-0.336173 0.809375,-0.557318 1.269207,-0.535381 z m -19.991124,0.692482 c 0.452166,0 0.849587,0.380217 0.849587,0.81238 0,0.405125 -2.345744,3.536799 -2.769943,3.698078 -0.393547,0.149651 -0.436926,0.142971 -0.799976,-0.142605 -0.548448,-0.431408 -0.438479,-0.785548 0.721422,-2.321377 1.456906,-1.929089 1.572768,-2.046446 1.99891,-2.046453 z m 3.464491,0 c 0.313929,0 0.789641,0.512597 0.789641,0.851656 0,0.291834 -2.427148,3.477367 -2.772011,3.63813 -0.322644,0.150397 -0.360427,0.149753 -0.711088,0.0082 -0.333428,-0.134447 -0.421375,-0.282241 -0.434093,-0.729613 -0.0079,-0.278664 0.273994,-0.733774 1.23407,-1.994772 1.261907,-1.657426 1.385832,-1.773586 1.893481,-1.773585 z m 3.26812,0.0041 c 0.231848,-0.0097 0.459799,0.06044 0.601534,0.217054 0.428811,0.47386 0.270129,0.873939 -1.019092,2.557051 -0.671672,0.876873 -1.324863,1.650204 -1.451124,1.71778 -0.126236,0.06757 -0.318107,0.124028 -0.425821,0.124028 -0.293983,0 -0.791709,-0.558394 -0.791709,-0.886795 0,-0.254923 1.687658,-2.627241 2.461941,-3.460361 0.157154,-0.169086 0.392425,-0.259057 0.624271,-0.268714 z m 3.282585,0.01018 c 0.554748,-0.0594 1.027313,0.411718 0.884731,0.979825 -0.09537,0.380044 -2.326105,3.280831 -2.668655,3.470668 -0.33167,0.183787 -0.44514,0.184861 -0.756567,0.0082 -0.737564,-0.418239 -0.612469,-0.843218 0.795839,-2.689323 0.672216,-0.881178 1.348653,-1.651828 1.502798,-1.71157 0.08112,-0.03145 0.162609,-0.04938 0.241856,-0.0579 z m 1.281618,9.223476 c -15.840399,0 -15.214233,-0.02351 -15.548882,0.601536 -0.172713,0.322615 -0.168918,6.992189 0.0041,7.315545 0.0711,0.132965 0.303745,0.34764 0.516781,0.477496 0.377798,0.230337 0.743859,0.235205 14.887403,0.235573 15.906312,5.05e-4 15.128767,0.03619 15.522001,-0.723497 0.169113,-0.327012 0.192107,-0.84249 0.161324,-3.786956 l -0.03512,-3.410774 -0.396863,-0.353436 -0.398934,-0.355506 z m 3.82417,1.341576 c 0.100559,-7.59e-4 0.222213,0.0087 0.380334,0.02316 0.478722,0.03941 0.751256,0.133929 0.967416,0.336933 0.639254,0.600547 0.46553,1.605915 -0.345213,1.990642 -0.502835,0.238598 -0.863034,0.245612 -1.370499,0.0245 -0.879167,-0.382487 -1.038155,-1.289295 -0.347269,-1.980176 0.304593,-0.304657 0.413485,-0.39256 0.715221,-0.394834 z m 4.617951,0 c 0.671041,-0.04424 1.334608,0.303952 1.52967,0.895073 0.168476,0.510394 0.005,0.949256 -0.48577,1.312619 -0.931615,0.688889 -2.306914,0.110911 -2.306914,-0.969488 0,-0.533956 0.171598,-0.833908 0.605673,-1.058362 0.208118,-0.107638 0.433679,-0.165117 0.657341,-0.179854 z m 3.77043,0 c 0.100559,-7.59e-4 0.222148,0.0087 0.380333,0.02316 0.478713,0.03941 0.751244,0.133929 0.96742,0.336933 0.639248,0.600555 0.465506,1.605925 -0.34524,1.990645 -0.502844,0.238597 -0.863032,0.245614 -1.370507,0.02484 -0.879168,-0.382649 -1.038153,-1.289432 -0.347271,-1.980315 0.304624,-0.304624 0.413478,-0.392515 0.715225,-0.394835 z M 30.85026,40.879999 c 0.335485,0 0.839249,0.535843 0.839249,0.893004 0,0.270353 -1.56781,2.47491 -2.41233,3.392155 -0.576405,0.626034 -1.477995,0.339073 -1.477995,-0.47131 0,-0.268873 0.284976,-0.737858 1.103845,-1.814938 1.239958,-1.630932 1.597697,-1.998911 1.947231,-1.998911 z m -10.019335,0.03088 c 0.128368,0.01251 0.252148,0.08005 0.394821,0.186031 0.599902,0.445781 0.498192,0.805654 -0.665613,2.344123 -0.578413,0.764429 -1.193503,1.539947 -1.366368,1.723815 -0.377467,0.401167 -0.892091,0.438841 -1.24027,0.09067 -0.460332,-0.460406 -0.322313,-0.804271 1.029425,-2.567445 1.043653,-1.361309 1.462933,-1.815471 1.848008,-1.777727 z m 3.299122,0.02082 c 0.310952,0.0087 0.641823,0.203453 0.77517,0.496113 0.193086,0.423785 0.0097,0.760566 -1.387034,2.552902 -1.031766,1.32406 -1.176737,1.461585 -1.564813,1.494521 -0.309186,0.02584 -0.489211,-0.03289 -0.653208,-0.214999 -0.444394,-0.490973 -0.305214,-0.835676 1.021157,-2.544554 0.686119,-0.883991 1.367181,-1.661622 1.513134,-1.728115 0.09135,-0.04152 0.191955,-0.05885 0.295591,-0.05589 z m 3.251584,0.0022 c 0.293648,-0.01477 0.665029,0.142058 0.810311,0.359717 0.284383,0.425909 0.07318,0.883027 -1.13485,2.443345 -0.672577,0.868715 -1.286364,1.618567 -1.3643,1.668158 -0.490953,0.312311 -1.296084,-0.117746 -1.296084,-0.692488 0,-0.426795 2.463304,-3.661322 2.865026,-3.762157 0.03784,-0.0087 0.07795,-0.01478 0.119897,-0.01611 z" />
  </g>
</svg>
