<?xml version="1.0" encoding="UTF-8" standalone="no"?>
<svg
   width="64"
   height="64"
   version="1.1"
   id="svg73"
   sodipodi:docname="device_usb.svg"
   inkscape:version="1.3.2 (091e20ef0f, 2023-11-25)"
   xmlns:inkscape="http://www.inkscape.org/namespaces/inkscape"
   xmlns:sodipodi="http://sodipodi.sourceforge.net/DTD/sodipodi-0.dtd"
   xmlns="http://www.w3.org/2000/svg"
   xmlns:svg="http://www.w3.org/2000/svg"
   xmlns:rdf="http://www.w3.org/1999/02/22-rdf-syntax-ns#"
   xmlns:cc="http://creativecommons.org/ns#"
   xmlns:dc="http://purl.org/dc/elements/1.1/">
  <metadata
     id="metadata77">
    <rdf:RDF>
      <cc:Work
         rdf:about="">
        <dc:format>image/svg+xml</dc:format>
        <dc:type
           rdf:resource="http://purl.org/dc/dcmitype/StillImage" />
      </cc:Work>
    </rdf:RDF>
  </metadata>
  <sodipodi:namedview
     pagecolor="#f5f7fa"
     bordercolor="#666666"
     borderopacity="1"
     objecttolerance="10"
     gridtolerance="10"
     guidetolerance="10"
     inkscape:pageopacity="0"
     inkscape:pageshadow="2"
     inkscape:window-width="1377"
     inkscape:window-height="886"
     id="namedview75"
     showgrid="false"
     inkscape:zoom="4.4470387"
     inkscape:cx="47.784608"
     inkscape:cy="14.054296"
     inkscape:window-x="181"
     inkscape:window-y="77"
     inkscape:window-maximized="0"
     inkscape:current-layer="g877"
     inkscape:document-rotation="0"
     inkscape:pagecheckerboard="0"
     inkscape:showpageshadow="2"
     inkscape:deskcolor="#d1d1d1" />
  <defs
     id="defs29">
    <linearGradient
       id="b"
       x1="399.57"
       x2="399.57"
       y1="545.8"
       y2="517.8"
       gradientTransform="matrix(2.1429,0,0,2.1429,-825.86391,-1107.6662)"
       gradientUnits="userSpaceOnUse">
      <stop
         stop-color="#3889e9"
         offset="0"
         id="stop2" />
      <stop
         stop-color="#5ea5fb"
         offset="1"
         id="stop4" />
    </linearGradient>
    <linearGradient
       id="d"
       x2="1"
       gradientTransform="matrix(14.905727,-4.7106182,4.7106182,14.905727,322.04962,998.26962)"
       gradientUnits="userSpaceOnUse">
      <stop
         stop-color="#fafafa"
         offset="0"
         id="stop7" />
      <stop
         stop-color="#aaa"
         offset="1"
         id="stop8" />
    </linearGradient>
    <linearGradient
       id="e"
       x2="1"
       gradientTransform="matrix(21.439909,0,0,21.439909,26.63554,1159.7788)"
       gradientUnits="userSpaceOnUse">
      <stop
         stop-color="#f0f0f0"
         offset="0"
         id="stop9" />
      <stop
         stop-color="#b7f1ff"
         offset="1"
         id="stop10" />
    </linearGradient>
  </defs>
  <circle
     cx="32.516094"
     cy="31.877844"
     r="0"
     fill="url(#b)"
     stroke-width="1.5715"
     id="circle41"
     style="fill:url(#b)" />
  <g
     aria-label="GZ"
     transform="matrix(1.2212657,0,0,0.81882264,0.4960938,-0.1661539)"
     id="text93"
     style="font-weight:bold;font-size:11.5263px;line-height:1.25;font-family:sans-serif;-inkscape-font-specification:'sans-serif Bold';fill:#f2f2f2;stroke-width:0.288159" />
  <g
     id="g877"
     transform="matrix(1.1,0,0,1.1,-3.1845928,-3.2065454)">
    <rect
       x="6.3010068"
       y="5.4939413"
       width="51.635597"
       height="53.148327"
       rx="10.980581"
       ry="10.720582"
       fill="url(#linearGradient862)"
       stroke-width="3.0541"
       id="rect35-7-3"
       style="fill:#414141;fill-opacity:1;stroke:#dfdfdf;stroke-width:2.27272727;stroke-dasharray:none;stroke-opacity:1" />
    <path
       id="path59"
       style="fill:#dfdfdf;fill-opacity:1;stroke:none;stroke-width:1.1979;stroke-dasharray:none;stroke-dashoffset:2.2;stroke-opacity:0.3"
       d="m 32.279652,14.532106 c -17.928817,0 -17.220059,-0.02688 -17.59883,0.680837 -0.0876,0.163698 -0.142721,1.750662 -0.142721,4.162235 0,4.304815 0.0077,4.349968 0.877371,4.728431 0.353749,0.153966 3.314378,0.187424 16.782293,0.191851 14.856994,0.005 16.396076,-0.01554 16.826751,-0.219927 0.862906,-0.409481 0.892158,-0.57541 0.846946,-4.882847 l -0.03979,-3.858079 -0.449237,-0.40242 -0.451524,-0.400079 z M 42.0547,16.03884 c 0.547878,0.01392 1.069783,0.240886 1.328923,0.636385 0.506615,0.773192 0.183436,1.681 -0.73699,2.070588 -0.546245,0.231213 -0.813729,0.230143 -1.364013,-0.0093 -0.557563,-0.242676 -0.877369,-0.712032 -0.877369,-1.286816 0,-0.60436 0.194228,-0.943847 0.685517,-1.1979 0.297631,-0.153906 0.635208,-0.221239 0.963932,-0.212912 z m -5.023222,0.007 c 1.679198,0 2.134468,2.061695 0.591934,2.678897 -0.587296,0.234976 -0.679609,0.238886 -1.303187,0.05847 -0.869167,-0.251474 -1.243428,-1.191729 -0.809519,-2.030818 0.245868,-0.475452 0.745939,-0.706574 1.520772,-0.706574 z m 9.403044,0 c 1.749445,0 2.295883,2.032689 0.715929,2.664859 -0.307145,0.122891 -0.634571,0.217397 -0.727628,0.210569 -1.477831,-0.108383 -2.11292,-1.441012 -1.146425,-2.407504 0.407847,-0.407839 0.555557,-0.467927 1.158124,-0.46793 z m -15.455713,0.687809 c 0.336057,0 0.896086,0.632188 0.896086,1.010728 0,0.306125 -1.774504,2.801188 -2.73037,3.839362 -0.626945,0.680933 -1.67285,0.367834 -1.67285,-0.500685 0,-0.359003 0.280441,-0.819295 1.382733,-2.262439 1.354485,-1.773316 1.676278,-2.086966 2.124401,-2.086966 z m -11.511068,0.02342 c 0.182954,-0.02025 0.350472,0.06301 0.552157,0.21291 0.69561,0.516985 0.583234,0.917179 -0.746349,2.66486 -0.657286,0.863961 -1.353361,1.740807 -1.546507,1.948913 -0.421999,0.45468 -1.004594,0.49746 -1.399109,0.10296 -0.522262,-0.522258 -0.366748,-0.91161 1.172164,-2.922218 1.087031,-1.420216 1.565144,-1.962889 1.967644,-2.007418 z m 3.888493,0.0046 c 0.06267,3.35e-4 0.126246,0.01162 0.191851,0.02808 0.449295,0.11276 0.813933,0.674204 0.708911,1.092616 -0.08556,0.340909 -2.387021,3.421656 -2.866067,3.837024 -0.37112,0.321787 -0.973537,0.30589 -1.282126,-0.03507 -0.491373,-0.542993 -0.331015,-0.949244 1.094954,-2.80293 1.286735,-1.67268 1.713804,-2.122065 2.152477,-2.119722 z m 3.652191,0.02808 c 0.387904,-0.02703 0.825796,0.163383 0.926501,0.425818 0.226929,0.591371 0.05613,0.961272 -1.235334,2.660182 -0.728257,0.958014 -1.423201,1.819233 -1.541828,1.913832 -0.556381,0.443655 -1.537149,-0.01665 -1.537149,-0.720613 0,-0.478276 2.776057,-4.141046 3.224035,-4.253479 0.05218,-0.01305 0.108361,-0.02187 0.163774,-0.02575 z m 5.123829,10.373983 c -8.245431,0.0025 -16.473928,0.08063 -16.765917,0.231625 -0.822509,0.425318 -0.828236,0.452081 -0.828236,4.719073 0,2.400479 0.0559,4.000005 0.142721,4.162234 0.07757,0.144954 0.308514,0.356018 0.514721,0.467929 0.324839,0.176292 2.603399,0.203435 17.056034,0.208226 l 16.679349,0.0046 0.451524,-0.400083 0.449238,-0.402419 0.03979,-3.85808 c 0.04528,-4.32669 0.0074,-4.544299 -0.870343,-4.910924 -0.360882,-0.150791 -8.623437,-0.224733 -16.868864,-0.222268 z m 4.85711,1.551186 c 0.232763,0.0051 0.463469,0.07535 0.753368,0.212913 0.917621,0.435438 1.114255,1.573353 0.39073,2.25308 -0.244673,0.229841 -0.553125,0.338765 -1.094957,0.383702 -0.715977,0.05938 -0.78033,0.03621 -1.240013,-0.423473 -0.792891,-0.792893 -0.599345,-1.818702 0.423479,-2.246062 0.298571,-0.124754 0.53462,-0.185223 0.767406,-0.180152 z m 9.494288,0 c 0.232782,0.0051 0.463474,0.07535 0.753368,0.212913 0.917622,0.435438 1.114263,1.573353 0.390744,2.25308 -0.244673,0.229841 -0.553124,0.338769 -1.094953,0.383707 -0.715976,0.05938 -0.780327,0.03621 -1.240015,-0.423476 -0.792893,-0.792893 -0.599341,-1.818703 0.42349,-2.246062 0.298591,-0.124755 0.53462,-0.185225 0.767403,-0.180153 z m -4.363439,0.03041 c 0.07431,0.0036 0.146072,0.01291 0.21522,0.02808 0.5409,0.11881 1.182496,0.663046 1.291486,1.097295 0.124622,0.496588 -0.24243,1.255832 -0.727634,1.506734 -0.792618,0.409883 -2.014362,0.168426 -2.353679,-0.465591 -0.228986,-0.427806 -0.161576,-1.179673 0.138068,-1.560545 0.299323,-0.380496 0.916096,-0.630797 1.436547,-0.605968 z M 19.493477,29.52919 c 0.511782,0 0.961594,0.430346 0.961594,0.919482 0,0.458537 -2.654999,4.003088 -3.135128,4.18563 -0.445427,0.169355 -0.494526,0.16179 -0.905444,-0.161432 -0.620751,-0.488287 -0.496285,-0.889113 0.816537,-2.627427 1.648982,-2.18342 1.780119,-2.316252 2.262441,-2.316253 z m 3.921248,0 c 0.355311,0 0.893746,0.580176 0.893746,0.963935 0,0.330303 -2.747138,3.935822 -3.137469,4.117782 -0.365179,0.170231 -0.407939,0.1695 -0.804838,0.0094 -0.377383,-0.152271 -0.476927,-0.319544 -0.491326,-0.825901 -0.0089,-0.315406 0.310117,-0.830517 1.396771,-2.25776 1.428276,-1.875941 1.568536,-2.007419 2.143116,-2.007419 z m 3.698985,0.0046 c 0.262412,-0.01089 0.520418,0.06841 0.680836,0.245675 0.485351,0.536304 0.305755,0.989137 -1.153444,2.894144 -0.760221,0.992481 -1.499531,1.867765 -1.642436,1.944249 -0.142901,0.07648 -0.360042,0.140377 -0.481967,0.140377 -0.332743,0 -0.896084,-0.632012 -0.896084,-1.003709 0,-0.288539 1.910156,-2.973614 2.786519,-3.916571 0.177874,-0.191383 0.444161,-0.2932 0.706576,-0.304149 z m 3.71536,0.01174 c 0.627885,-0.06723 1.162753,0.46599 1.00137,1.108999 -0.107965,0.430147 -2.632775,3.713372 -3.020486,3.928238 -0.375391,0.208015 -0.503826,0.209236 -0.856312,0.0094 -0.834804,-0.473386 -0.693218,-0.954395 0.900765,-3.043883 0.760838,-0.997354 1.526456,-1.869607 1.700924,-1.937227 0.0918,-0.03564 0.184043,-0.0559 0.273736,-0.06551 z m 1.450582,10.439514 c -17.928781,0 -17.220062,-0.02698 -17.598832,0.680834 -0.195486,0.365225 -0.191191,7.914038 0.0046,8.280017 0.0805,0.150416 0.343796,0.393442 0.584912,0.540457 0.427605,0.260723 0.841927,0.266211 16.850146,0.266714 18.003388,5.68e-4 17.123331,0.04162 17.568411,-0.818874 0.19144,-0.370164 0.217461,-0.953565 0.182522,-4.286233 l -0.03979,-3.86042 -0.449238,-0.400074 -0.451524,-0.402407 z M 36.608,41.50349 c 0.113825,-8.65e-4 0.251506,0.01056 0.430481,0.02606 0.541835,0.04481 0.8503,0.151515 1.094958,0.381323 0.723535,0.679733 0.526901,1.817644 -0.390731,2.253087 -0.569133,0.270054 -0.976815,0.278013 -1.551186,0.02791 -0.995075,-0.433047 -1.175026,-1.45942 -0.39306,-2.241389 0.344765,-0.344736 0.468001,-0.444297 0.809519,-0.446859 z m 5.226774,0 c 0.759513,-0.0499 1.510563,0.344098 1.731342,1.013073 0.190663,0.577682 0.0064,1.074399 -0.549813,1.485675 -1.054432,0.779722 -2.611052,0.12554 -2.611052,-1.097296 0,-0.604355 0.194228,-0.943851 0.685517,-1.197902 0.235618,-0.12184 0.49084,-0.186912 0.744006,-0.20356 z m 4.267519,0 c 0.113788,-8.65e-4 0.251486,0.01056 0.430486,0.02606 0.541828,0.04481 0.850299,0.151515 1.094958,0.381323 0.723536,0.679733 0.526896,1.817644 -0.390743,2.253087 -0.569136,0.270054 -0.976817,0.278013 -1.551189,0.02791 -0.995077,-0.433047 -1.175028,-1.45942 -0.393031,-2.241389 0.344737,-0.344736 0.467998,-0.444297 0.809519,-0.446859 z m -15.177296,0.683132 c 0.379713,0 0.949895,0.606485 0.949895,1.010726 0,0.306094 -1.774505,2.801194 -2.730368,3.83937 -0.652397,0.708571 -1.672851,0.383792 -1.672851,-0.533441 0,-0.304309 0.322548,-0.835143 1.249373,-2.054211 1.403435,-1.845965 1.808335,-2.262444 2.203951,-2.262444 z m -11.340273,0.03522 c 0.14528,0.01418 0.285388,0.09061 0.446873,0.210554 0.67899,0.504556 0.563874,0.911866 -0.753368,2.653166 -0.654668,0.865412 -1.350852,1.743157 -1.546508,1.951265 -0.427226,0.454404 -1.009704,0.497029 -1.403788,0.102938 -0.521021,-0.521024 -0.364804,-0.910217 1.165144,-2.905844 1.181246,-1.540784 1.655804,-2.054829 2.091647,-2.0121 z m 3.734075,0.02332 c 0.35194,0.01056 0.726441,0.230266 0.877368,0.561517 0.218537,0.479621 0.01089,0.86083 -1.569902,2.889468 -1.167791,1.498617 -1.331876,1.654283 -1.771114,1.691564 -0.349955,0.03019 -0.553707,-0.03796 -0.739327,-0.2433 -0.502982,-0.555785 -0.345447,-0.945927 1.155785,-2.880107 0.776577,-1.00054 1.547432,-1.88068 1.712622,-1.955948 0.103367,-0.0471 0.217254,-0.06664 0.334568,-0.06321 z m 3.680268,0.0024 c 0.332362,-0.01692 0.752708,0.160798 0.91714,0.407071 0.321885,0.482068 0.08283,0.999445 -1.284465,2.765468 -0.761249,0.98325 -1.455955,1.831969 -1.544168,1.888095 -0.555676,0.353516 -1.466959,-0.133268 -1.466959,-0.783782 0,-0.483112 2.788066,-4.144038 3.242753,-4.258162 0.04281,-0.01056 0.08822,-0.01647 0.135699,-0.01828 z" />
  </g>
</svg>
