<?xml version="1.0" encoding="UTF-8" standalone="no"?>
<svg
   width="64"
   height="64"
   version="1.1"
   id="svg73"
   sodipodi:docname="k3b.svg"
   inkscape:version="1.4.2 (ebf0e940d0, 2025-05-08)"
   xmlns:inkscape="http://www.inkscape.org/namespaces/inkscape"
   xmlns:sodipodi="http://sodipodi.sourceforge.net/DTD/sodipodi-0.dtd"
   xmlns="http://www.w3.org/2000/svg"
   xmlns:svg="http://www.w3.org/2000/svg"
   xmlns:rdf="http://www.w3.org/1999/02/22-rdf-syntax-ns#"
   xmlns:cc="http://creativecommons.org/ns#"
   xmlns:dc="http://purl.org/dc/elements/1.1/">
  <metadata
     id="metadata77">
    <rdf:RDF>
      <cc:Work
         rdf:about="">
        <dc:format>image/svg+xml</dc:format>
        <dc:type
           rdf:resource="http://purl.org/dc/dcmitype/StillImage" />
      </cc:Work>
    </rdf:RDF>
  </metadata>
  <sodipodi:namedview
     pagecolor="#f5f7fa"
     bordercolor="#666666"
     borderopacity="1"
     objecttolerance="10"
     gridtolerance="10"
     guidetolerance="10"
     inkscape:pageopacity="0"
     inkscape:pageshadow="2"
     inkscape:window-width="1377"
     inkscape:window-height="886"
     id="namedview75"
     showgrid="false"
     inkscape:zoom="6.2890624"
     inkscape:cx="47.622361"
     inkscape:cy="45.396274"
     inkscape:window-x="147"
     inkscape:window-y="75"
     inkscape:window-maximized="0"
     inkscape:current-layer="g877"
     inkscape:document-rotation="0"
     inkscape:pagecheckerboard="0"
     inkscape:showpageshadow="2"
     inkscape:deskcolor="#d1d1d1" />
  <defs
     id="defs29">
    <linearGradient
       id="b"
       x1="399.57"
       x2="399.57"
       y1="545.8"
       y2="517.8"
       gradientTransform="matrix(2.1429,0,0,2.1429,-825.86391,-1107.6662)"
       gradientUnits="userSpaceOnUse">
      <stop
         stop-color="#3889e9"
         offset="0"
         id="stop2" />
      <stop
         stop-color="#5ea5fb"
         offset="1"
         id="stop4" />
    </linearGradient>
  </defs>
  <circle
     cx="32.516094"
     cy="31.877844"
     r="0"
     fill="url(#b)"
     stroke-width="1.5715"
     id="circle41"
     style="fill:url(#b)" />
  <g
     aria-label="GZ"
     transform="matrix(1.2212657,0,0,0.81882264,0.4960938,-0.1661539)"
     id="text93"
     style="font-weight:bold;font-size:11.5263px;line-height:1.25;font-family:sans-serif;-inkscape-font-specification:'sans-serif Bold';fill:#f2f2f2;stroke-width:0.288159" />
  <g
     id="g877"
     transform="matrix(1.1,0,0,1.1,-3.1845928,-3.2065454)">
    <rect
       x="8.3496294"
       y="8.369586"
       width="47.272728"
       height="47.272728"
       rx="9.8825235"
       ry="9.6485243"
       fill="url(#linearGradient862)"
       stroke-width="3.0541"
       id="rect35-7-3"
       style="fill:#414141;fill-opacity:1;stroke:#dfdfdf;stroke-width:2.04545;stroke-dasharray:none;stroke-opacity:1" />
    <path
       style="color:#444444;fill:#dfdfdf;fill-opacity:1;stroke:none;stroke-width:0.482482;stroke-dasharray:none;stroke-opacity:0.6"
       class="ColorScheme-Text"
       d="m 23.196653,17.723277 v 4.394668 h 17.578675 v -4.394668 z m -4.394671,6.592003 c -1.098669,0 -2.197334,1.098667 -2.197334,2.197334 v 8.789344 c 0,1.09866 1.098665,2.197333 2.197334,2.197333 H 20.99932 V 33.10462 h 21.973342 v 4.394671 h 2.197345 c 1.098667,0 2.197332,-1.098673 2.197332,-2.197333 v -8.789344 c 0,-1.098667 -1.098665,-2.197334 -2.197332,-2.197334 z m 4.394671,10.986678 V 46.288624 H 40.775328 V 35.301958 Z"
       id="path5" />
    <rect
       x="37.737823"
       y="37.757782"
       width="22.610399"
       height="22.610399"
       rx="4.7267799"
       ry="4.6148596"
       fill="url(#linearGradient862)"
       stroke-width="3.0541"
       id="rect35-7-3-1"
       style="fill:#414141;fill-opacity:1;stroke:#dfdfdf;stroke-width:0.978336;stroke-dasharray:none;stroke-opacity:1" />
    <path
       id="path7250"
       style="fill:#dfdfdf;stroke:none;stroke-width:0.496125;stroke-dasharray:none;stroke-opacity:0.6;fill-opacity:1"
       d="m 49.292734,44.007704 c -1.725726,-0.02114 -3.45676,0.354742 -5.01932,1.113436 -1.140466,0.553745 -2.198172,1.306707 -3.066792,2.183332 l -0.233883,0.235963 0.909061,0.824609 0.908925,0.824614 0.277149,-0.258498 c 0.152364,-0.142171 0.329482,-0.303469 0.393587,-0.35838 2.657536,-2.275569 6.441935,-2.741698 9.57742,-1.179671 0.809502,0.403281 1.45798,0.860128 2.166076,1.525681 l 0.290241,0.272681 0.908369,-0.824894 0.908363,-0.82503 -0.258193,-0.260169 C 55.763263,45.981253 54.159235,45.023864 52.355653,44.477139 51.361697,44.175855 50.328184,44.020343 49.292752,44.007722 Z M 49.141494,46.869 c -0.39657,2.8e-5 -0.793057,0.015 -1.011458,0.04411 -1.863145,0.249907 -3.460101,1.016406 -4.814938,2.311051 -0.121954,0.116532 -0.218644,0.220654 -0.214927,0.231496 0.0038,0.01091 0.413277,0.388294 0.910172,0.838809 l 0.903357,0.819044 0.179744,-0.174015 c 0.867647,-0.840066 2.064177,-1.405967 3.317499,-1.569216 0.368694,-0.04801 1.094151,-0.04801 1.461678,1.58e-4 1.253584,0.164161 2.311394,0.653975 3.265053,1.512043 l 0.24377,0.219256 0.05244,-0.04699 c 0.256692,-0.22945 1.639677,-1.481089 1.694438,-1.533611 l 0.07071,-0.06774 -0.09447,-0.09853 c -0.369104,-0.384836 -1.026128,-0.909866 -1.546696,-1.236018 -0.371767,-0.232893 -1.057379,-0.573194 -1.45694,-0.723182 -0.593559,-0.2228 -1.284103,-0.393935 -1.947376,-0.48264 -0.218882,-0.02899 -0.615443,-0.04398 -1.012014,-0.04394 z m -0.05233,2.836957 c -0.09372,9.8e-4 -0.187584,0.0044 -0.281409,0.01029 -1.298337,0.08128 -2.481036,0.59546 -3.457885,1.503003 l -0.161503,0.149979 0.911428,0.826276 c 0.501249,0.454469 0.914905,0.826754 0.919215,0.827259 0.0044,4.92e-4 0.0685,-0.05136 0.142751,-0.115269 1.115985,-0.961567 2.794799,-0.976388 3.918673,-0.0345 l 0.182403,0.152944 0.102113,-0.09032 c 0.05618,-0.04964 0.469013,-0.422476 0.91741,-0.828368 l 0.815284,-0.737959 -0.186423,-0.174596 C 51.8773,50.226797 50.495274,49.691733 49.089242,49.706087 Z m -0.02182,2.850588 c -0.152569,0.0035 -0.303468,0.01978 -0.449386,0.05076 -0.463671,0.09801 -0.928478,0.329516 -1.229755,0.61244 l -0.075,0.07054 0.915186,0.830732 0.915182,0.83087 0.540651,-0.491535 c 0.297331,-0.270296 0.708866,-0.642589 0.914492,-0.827261 L 50.972548,53.297409 50.860617,53.19233 C 50.419824,52.778653 49.728655,52.542302 49.06758,52.556512 Z" />
  </g>
</svg>
