<?xml version="1.0" encoding="UTF-8" standalone="no"?>
<svg
   width="64"
   height="64"
   version="1.1"
   id="svg73"
   sodipodi:docname="audacious.svg"
   inkscape:version="1.4.2 (ebf0e940d0, 2025-05-08)"
   xmlns:inkscape="http://www.inkscape.org/namespaces/inkscape"
   xmlns:sodipodi="http://sodipodi.sourceforge.net/DTD/sodipodi-0.dtd"
   xmlns="http://www.w3.org/2000/svg"
   xmlns:svg="http://www.w3.org/2000/svg"
   xmlns:rdf="http://www.w3.org/1999/02/22-rdf-syntax-ns#"
   xmlns:cc="http://creativecommons.org/ns#"
   xmlns:dc="http://purl.org/dc/elements/1.1/">
  <metadata
     id="metadata77">
    <rdf:RDF>
      <cc:Work
         rdf:about="">
        <dc:format>image/svg+xml</dc:format>
        <dc:type
           rdf:resource="http://purl.org/dc/dcmitype/StillImage" />
      </cc:Work>
    </rdf:RDF>
  </metadata>
  <sodipodi:namedview
     pagecolor="#f5f7fa"
     bordercolor="#666666"
     borderopacity="1"
     objecttolerance="10"
     gridtolerance="10"
     guidetolerance="10"
     inkscape:pageopacity="0"
     inkscape:pageshadow="2"
     inkscape:window-width="1377"
     inkscape:window-height="886"
     id="namedview75"
     showgrid="false"
     inkscape:zoom="6.2890624"
     inkscape:cx="47.622361"
     inkscape:cy="45.396274"
     inkscape:window-x="0"
     inkscape:window-y="61"
     inkscape:window-maximized="0"
     inkscape:current-layer="g877"
     inkscape:document-rotation="0"
     inkscape:pagecheckerboard="0"
     inkscape:showpageshadow="2"
     inkscape:deskcolor="#d1d1d1" />
  <defs
     id="defs29" />
  <circle
     cx="32.516094"
     cy="31.877844"
     r="0"
     fill="url(#b)"
     stroke-width="1.5715"
     id="circle41"
     style="fill:url(#b)" />
  <g
     aria-label="GZ"
     transform="matrix(1.2212657,0,0,0.81882264,0.4960938,-0.1661539)"
     id="text93"
     style="font-weight:bold;font-size:11.5263px;line-height:1.25;font-family:sans-serif;-inkscape-font-specification:'sans-serif Bold';fill:#f2f2f2;stroke-width:0.288159" />
  <g
     id="g877"
     transform="matrix(1.1,0,0,1.1,-3.1845928,-3.2065454)">
    <rect
       x="8.3496294"
       y="8.369586"
       width="47.272728"
       height="47.272728"
       rx="9.8825235"
       ry="9.6485243"
       fill="url(#linearGradient862)"
       stroke-width="3.0541"
       id="rect35-7-3"
       style="fill:#414141;fill-opacity:1;stroke:#dfdfdf;stroke-width:2.04545;stroke-dasharray:none;stroke-opacity:1" />
    <path
       style="fill:#dfdfdf;fill-opacity:1;stroke:none;stroke-width:0.989251;stroke-dasharray:none;stroke-opacity:0.3"
       d="m 21.301878,47.207103 c -1.635528,-0.190479 -3.007284,-1.38568 -3.47881,-3.031054 -0.09991,-0.348631 -0.111781,-0.964727 -0.131409,-6.818785 l -0.02165,-6.435523 h 14.314469 14.314457 l -0.02071,6.435523 c -0.02396,7.177646 0.0054,6.705079 -0.47901,7.681097 -0.328721,0.66227 -1.079025,1.412602 -1.741282,1.741296 -0.646832,0.321077 -1.095068,0.423991 -2.057852,0.472725 l -0.813277,0.04099 -0.01797,-3.379215 -0.0175,-3.379233 -0.147761,-0.299847 c -0.188561,-0.382642 -0.574902,-0.768955 -0.957676,-0.957502 l -0.299987,-0.147764 -7.662318,-0.01703 c -8.80451,-0.01934 -8.039726,-0.07086 -8.695361,0.58585 -0.623787,0.624831 -0.601796,0.467828 -0.601796,4.296746 v 3.278257 l -0.52698,-0.0087 c -0.289554,-0.0054 -0.720429,-0.03131 -0.957234,-0.05848 z M 38.707961,35.87031 c 0.309565,-0.210356 0.430767,-0.456245 0.430476,-0.873288 -4.34e-4,-0.627701 -0.386396,-1.008748 -1.021775,-1.008748 -0.635364,0 -1.021332,0.381042 -1.021771,1.008748 -4.33e-4,0.643158 0.386265,1.034809 1.021771,1.034809 0.273015,0 0.407796,-0.03688 0.59131,-0.161537 z m 4.056277,0.03411 c 0.311683,-0.190048 0.462042,-0.481143 0.462042,-0.894612 0,-0.64111 -0.380386,-1.021541 -1.02154,-1.021541 -0.641113,0 -1.021533,0.380434 -1.021533,1.021541 0,0.64111 0.380385,1.021541 1.021533,1.021541 0.238197,0 0.418371,-0.04098 0.559516,-0.126938 z m -18.955836,9.836587 v -1.533032 h 8.176147 8.176157 v 1.533032 1.533026 H 31.984549 23.808402 Z M 17.693261,28.063275 c 0.03701,-2.045039 0.07068,-2.262455 0.477408,-3.082026 0.328503,-0.661895 1.07889,-1.412416 1.741288,-1.741596 0.784766,-0.389998 1.141752,-0.454904 2.523111,-0.458743 1.123073,-0.0034 1.23271,0.007 1.469148,0.133767 0.559779,0.300481 0.818864,0.695867 0.893762,1.363939 0.05812,0.518063 0.173086,0.802428 0.434907,1.075375 0.443766,0.462626 -0.401374,0.422105 9.562214,0.458397 l 8.974602,0.03265 0.378127,0.143276 c 0.536893,0.203416 0.868983,0.411774 1.216214,0.763078 0.617381,0.624623 0.844964,1.21701 0.905959,2.358192 l 0.04189,0.790085 H 31.986189 17.660082 Z m 8.905492,-3.367718 c -0.451498,-0.158204 -0.682441,-0.478768 -0.682441,-0.947274 0,-0.328602 0.189147,-0.651563 0.479292,-0.818422 0.105267,-0.06052 2.505319,-0.920296 5.333443,-1.910563 2.828114,-0.990273 6.779428,-2.373807 8.780691,-3.074522 3.976684,-1.39238 3.907646,-1.37591 4.318439,-1.030262 0.509117,0.428405 0.511673,1.183795 0.0054,1.544421 -0.101105,0.07198 -1.344724,0.537088 -2.763625,1.033567 -1.419304,0.496481 -3.672506,1.284898 -5.007516,1.752041 -8.218632,2.87583 -9.917231,3.466711 -10.060473,3.499677 -0.08784,0.0202 -0.269386,-0.0021 -0.403454,-0.04867 z"
       id="path1-3" />
  </g>
</svg>
