<?xml version="1.0" encoding="UTF-8" standalone="no"?>
<svg
   width="64"
   height="64"
   version="1.1"
   id="svg73"
   sodipodi:docname="hwloc.svg"
   inkscape:version="1.3.2 (091e20ef0f, 2023-11-25)"
   xmlns:inkscape="http://www.inkscape.org/namespaces/inkscape"
   xmlns:sodipodi="http://sodipodi.sourceforge.net/DTD/sodipodi-0.dtd"
   xmlns="http://www.w3.org/2000/svg"
   xmlns:svg="http://www.w3.org/2000/svg"
   xmlns:rdf="http://www.w3.org/1999/02/22-rdf-syntax-ns#"
   xmlns:cc="http://creativecommons.org/ns#"
   xmlns:dc="http://purl.org/dc/elements/1.1/">
  <metadata
     id="metadata77">
    <rdf:RDF>
      <cc:Work
         rdf:about="">
        <dc:format>image/svg+xml</dc:format>
        <dc:type
           rdf:resource="http://purl.org/dc/dcmitype/StillImage" />
      </cc:Work>
    </rdf:RDF>
  </metadata>
  <sodipodi:namedview
     pagecolor="#f5f7fa"
     bordercolor="#666666"
     borderopacity="1"
     objecttolerance="10"
     gridtolerance="10"
     guidetolerance="10"
     inkscape:pageopacity="0"
     inkscape:pageshadow="2"
     inkscape:window-width="1377"
     inkscape:window-height="886"
     id="namedview75"
     showgrid="false"
     inkscape:zoom="4.4470387"
     inkscape:cx="47.784608"
     inkscape:cy="14.054296"
     inkscape:window-x="181"
     inkscape:window-y="77"
     inkscape:window-maximized="0"
     inkscape:current-layer="g877"
     inkscape:document-rotation="0"
     inkscape:pagecheckerboard="0"
     inkscape:showpageshadow="2"
     inkscape:deskcolor="#d1d1d1" />
  <defs
     id="defs29">
    <linearGradient
       id="b"
       x1="399.57"
       x2="399.57"
       y1="545.8"
       y2="517.8"
       gradientTransform="matrix(2.1429,0,0,2.1429,-825.86391,-1107.6662)"
       gradientUnits="userSpaceOnUse">
      <stop
         stop-color="#3889e9"
         offset="0"
         id="stop2" />
      <stop
         stop-color="#5ea5fb"
         offset="1"
         id="stop4" />
    </linearGradient>
    <linearGradient
       id="d"
       x2="1"
       gradientTransform="matrix(14.905727,-4.7106182,4.7106182,14.905727,322.04962,998.26962)"
       gradientUnits="userSpaceOnUse">
      <stop
         stop-color="#fafafa"
         offset="0"
         id="stop7" />
      <stop
         stop-color="#aaa"
         offset="1"
         id="stop8" />
    </linearGradient>
    <linearGradient
       id="e"
       x2="1"
       gradientTransform="matrix(21.439909,0,0,21.439909,26.63554,1159.7788)"
       gradientUnits="userSpaceOnUse">
      <stop
         stop-color="#f0f0f0"
         offset="0"
         id="stop9" />
      <stop
         stop-color="#b7f1ff"
         offset="1"
         id="stop10" />
    </linearGradient>
  </defs>
  <circle
     cx="32.516094"
     cy="31.877844"
     r="0"
     fill="url(#b)"
     stroke-width="1.5715"
     id="circle41"
     style="fill:url(#b)" />
  <g
     aria-label="GZ"
     transform="matrix(1.2212657,0,0,0.81882264,0.4960938,-0.1661539)"
     id="text93"
     style="font-weight:bold;font-size:11.5263px;line-height:1.25;font-family:sans-serif;-inkscape-font-specification:'sans-serif Bold';fill:#f2f2f2;stroke-width:0.288159" />
  <g
     id="g877"
     transform="matrix(1.1,0,0,1.1,-3.1845928,-3.2065454)">
    <rect
       x="6.3010068"
       y="5.4939413"
       width="51.635597"
       height="53.148327"
       rx="10.980581"
       ry="10.720582"
       fill="url(#linearGradient862)"
       stroke-width="3.0541"
       id="rect35-7-3"
       style="fill:#414141;fill-opacity:1;stroke:#dfdfdf;stroke-width:2.27272727;stroke-dasharray:none;stroke-opacity:1" />
    <path
       id="path4"
       style="clip-rule:evenodd;fill:#dfdfdf;fill-rule:evenodd;stroke-width:0.10921;stroke-linejoin:round;stroke-miterlimit:2;fill-opacity:1"
       d="m 31.985804,11.252593 c -5.201294,3.4e-5 -10.404176,0.02516 -10.770115,0.06586 -1.776904,0.198155 -3.204743,0.979435 -3.986865,2.188471 -0.287683,0.444713 -0.460523,0.857017 -0.628166,1.479246 l -0.121574,0.450858 -0.01497,18.657725 -0.01514,18.662789 H 31.986102 47.523225 V 34.342973 c -2.31e-4,-19.644824 0.0062,-18.824102 -0.253305,-19.701299 -0.124501,-0.420775 -0.520356,-1.170024 -0.815608,-1.540034 -0.738183,-0.92509 -2.166327,-1.612394 -3.698098,-1.783197 -0.365897,-0.04078 -5.56882,-0.06587 -10.770112,-0.06586 z m -0.0304,2.573477 c 11.570997,0.001 10.946346,-0.01792 11.666776,0.319151 0.617661,0.289036 1.021009,0.75889 1.231017,1.433652 0.09983,0.3208 0.101321,0.836393 0.101321,17.472303 V 50.189127 H 31.985803 19.01709 V 33.051176 c 0,-16.63591 0.0014,-17.151503 0.101321,-17.472303 0.273359,-0.878299 0.850467,-1.39609 1.849054,-1.651482 0.401458,-0.102718 0.71323,-0.102234 10.987948,-0.101321 z m -0.02544,5.982833 -3.834886,7.614055 -3.829825,7.614054 3.87542,0.01514 3.870347,0.01497 v 4.569439 c 0,2.512547 0.0092,4.55657 0.02037,4.544118 0.04716,-0.05286 1.362673,-2.652607 4.427602,-8.748812 l 3.262442,-6.484359 h -3.880475 -3.880481 l -0.01514,-4.569444 z M 24.05253,42.407899 c -0.07845,0.0051 -0.154593,0.01718 -0.233035,0.03039 -1.26134,0.212751 -2.183406,1.282257 -2.183406,2.538013 0,1.225567 0.936931,2.336898 2.132749,2.53295 0.41473,0.06789 0.416723,0.06725 0.815606,0.0051 1.499422,-0.233742 2.483959,-1.726373 2.10235,-3.19145 -0.305264,-1.172005 -1.457257,-1.991904 -2.634267,-1.914919 z" />
  </g>
</svg>
