<?xml version="1.0" encoding="UTF-8" standalone="no"?>
<svg
   width="64"
   height="64"
   version="1.1"
   id="svg73"
   sodipodi:docname="audacious.svg"
   inkscape:version="1.4.2 (ebf0e940d0, 2025-05-08)"
   xmlns:inkscape="http://www.inkscape.org/namespaces/inkscape"
   xmlns:sodipodi="http://sodipodi.sourceforge.net/DTD/sodipodi-0.dtd"
   xmlns="http://www.w3.org/2000/svg"
   xmlns:svg="http://www.w3.org/2000/svg"
   xmlns:rdf="http://www.w3.org/1999/02/22-rdf-syntax-ns#"
   xmlns:cc="http://creativecommons.org/ns#"
   xmlns:dc="http://purl.org/dc/elements/1.1/">
  <metadata
     id="metadata77">
    <rdf:RDF>
      <cc:Work
         rdf:about="">
        <dc:format>image/svg+xml</dc:format>
        <dc:type
           rdf:resource="http://purl.org/dc/dcmitype/StillImage" />
      </cc:Work>
    </rdf:RDF>
  </metadata>
  <sodipodi:namedview
     pagecolor="#f5f7fa"
     bordercolor="#666666"
     borderopacity="1"
     objecttolerance="10"
     gridtolerance="10"
     guidetolerance="10"
     inkscape:pageopacity="0"
     inkscape:pageshadow="2"
     inkscape:window-width="1377"
     inkscape:window-height="886"
     id="namedview75"
     showgrid="false"
     inkscape:zoom="6.2890624"
     inkscape:cx="46.350311"
     inkscape:cy="44.124224"
     inkscape:window-x="264"
     inkscape:window-y="75"
     inkscape:window-maximized="0"
     inkscape:current-layer="g877"
     inkscape:document-rotation="0"
     inkscape:pagecheckerboard="0"
     inkscape:showpageshadow="2"
     inkscape:deskcolor="#d1d1d1" />
  <defs
     id="defs29" />
  <circle
     cx="32.516094"
     cy="31.877844"
     r="0"
     fill="url(#b)"
     stroke-width="1.5715"
     id="circle41"
     style="fill:url(#b)" />
  <g
     aria-label="GZ"
     transform="matrix(1.2212657,0,0,0.81882264,0.4960938,-0.1661539)"
     id="text93"
     style="font-weight:bold;font-size:11.5263px;line-height:1.25;font-family:sans-serif;-inkscape-font-specification:'sans-serif Bold';fill:#f2f2f2;stroke-width:0.288159" />
  <g
     id="g877"
     transform="matrix(1.1,0,0,1.1,-3.1845928,-3.2065454)">
    <rect
       x="8.3496294"
       y="8.369586"
       width="47.272728"
       height="47.272728"
       rx="9.8825235"
       ry="9.6485243"
       fill="url(#linearGradient862)"
       stroke-width="3.0541"
       id="rect35-7-3"
       style="fill:#414141;fill-opacity:1;stroke:#dfdfdf;stroke-width:2.04545;stroke-dasharray:none;stroke-opacity:1" />
    <path
       style="fill:#dfdfdf;fill-opacity:1;stroke:none;stroke-width:0.937676;stroke-dasharray:none;stroke-dashoffset:2.2;stroke-opacity:0.3"
       d="m 20.956572,43.021952 c -1.385968,-0.325447 -3.066404,-1.775335 -3.781971,-3.263064 -0.584528,-1.215277 -0.751214,-1.982892 -0.750562,-3.456401 4.61e-4,-1.04615 0.04812,-1.446338 0.250175,-2.10018 0.790102,-2.556916 2.58362,-4.284965 4.818703,-4.642806 0.626811,-0.100359 0.909721,-0.09266 1.561674,0.04242 0.437902,0.09074 0.881003,0.198812 0.984666,0.240172 0.169442,0.06761 0.188471,-0.0065 0.188471,-0.734612 0,-2.433713 0.981459,-4.81507 2.692598,-6.533154 1.442923,-1.448771 2.827736,-2.11776 4.624804,-2.234187 4.220315,-0.273423 7.812833,3.473773 8.152985,8.50402 0.03898,0.577548 0.08186,1.050088 0.0951,1.050088 0.01313,0 0.236231,-0.07953 0.49539,-0.176731 0.707668,-0.265377 2.23752,-0.237798 3.04742,0.05494 1.870077,0.675943 3.391653,2.454526 3.946325,4.612888 0.271949,1.058319 0.290963,2.750219 0.0424,3.777138 -0.550099,2.272606 -2.186098,4.168458 -4.10986,4.762643 -0.682609,0.210854 -0.972461,0.216104 -11.270955,0.205604 -5.923401,-0.0061 -10.75368,-0.05391 -10.987398,-0.108751 z"
       id="path99" />
  </g>
</svg>
