<?xml version="1.0" encoding="UTF-8" standalone="no"?>
<svg
   width="64"
   height="64"
   version="1.1"
   id="svg73"
   sodipodi:docname="audacious.svg"
   inkscape:version="1.4.2 (ebf0e940d0, 2025-05-08)"
   xmlns:inkscape="http://www.inkscape.org/namespaces/inkscape"
   xmlns:sodipodi="http://sodipodi.sourceforge.net/DTD/sodipodi-0.dtd"
   xmlns="http://www.w3.org/2000/svg"
   xmlns:svg="http://www.w3.org/2000/svg"
   xmlns:rdf="http://www.w3.org/1999/02/22-rdf-syntax-ns#"
   xmlns:cc="http://creativecommons.org/ns#"
   xmlns:dc="http://purl.org/dc/elements/1.1/">
  <metadata
     id="metadata77">
    <rdf:RDF>
      <cc:Work
         rdf:about="">
        <dc:format>image/svg+xml</dc:format>
        <dc:type
           rdf:resource="http://purl.org/dc/dcmitype/StillImage" />
      </cc:Work>
    </rdf:RDF>
  </metadata>
  <sodipodi:namedview
     pagecolor="#f5f7fa"
     bordercolor="#666666"
     borderopacity="1"
     objecttolerance="10"
     gridtolerance="10"
     guidetolerance="10"
     inkscape:pageopacity="0"
     inkscape:pageshadow="2"
     inkscape:window-width="1377"
     inkscape:window-height="886"
     id="namedview75"
     showgrid="false"
     inkscape:zoom="6.2890624"
     inkscape:cx="46.350311"
     inkscape:cy="44.124224"
     inkscape:window-x="264"
     inkscape:window-y="75"
     inkscape:window-maximized="0"
     inkscape:current-layer="g877"
     inkscape:document-rotation="0"
     inkscape:pagecheckerboard="0"
     inkscape:showpageshadow="2"
     inkscape:deskcolor="#d1d1d1" />
  <defs
     id="defs29" />
  <circle
     cx="32.516094"
     cy="31.877844"
     r="0"
     fill="url(#b)"
     stroke-width="1.5715"
     id="circle41"
     style="fill:url(#b)" />
  <g
     aria-label="GZ"
     transform="matrix(1.2212657,0,0,0.81882264,0.4960938,-0.1661539)"
     id="text93"
     style="font-weight:bold;font-size:11.5263px;line-height:1.25;font-family:sans-serif;-inkscape-font-specification:'sans-serif Bold';fill:#f2f2f2;stroke-width:0.288159" />
  <g
     id="g877"
     transform="matrix(1.1,0,0,1.1,-3.1845928,-3.2065454)">
    <rect
       x="8.3496294"
       y="8.369586"
       width="47.272728"
       height="47.272728"
       rx="9.8825235"
       ry="9.6485243"
       fill="url(#linearGradient862)"
       stroke-width="3.0541"
       id="rect35-7-3"
       style="fill:#414141;fill-opacity:1;stroke:#dfdfdf;stroke-width:2.04545;stroke-dasharray:none;stroke-opacity:1" />
    <path
       style="fill:#dfdfdf;fill-opacity:1;stroke:none;stroke-width:0.845824;stroke-dasharray:none;stroke-dashoffset:2.2;stroke-opacity:0.3"
       d="M 18.265158,47.055757 C 17.719597,46.768169 17.372507,46.412801 17.135472,45.89922 16.937467,45.470205 16.918229,45.060781 16.915875,41.226472 l -0.0025,-4.202537 0.499602,0.0027 c 0.337577,0.0019 0.690226,0.11486 1.087369,0.348444 1.790539,1.053129 2.46218,1.182342 3.305027,0.635828 1.076752,-0.69818 1.62855,-2.08913 1.552138,-3.912579 -0.07096,-1.693118 -0.678242,-2.873216 -1.766703,-3.433094 -0.767162,-0.39461 -1.415209,-0.257275 -2.726428,0.577773 -0.722969,0.460424 -1.292589,0.651749 -1.663365,0.558687 l -0.28764,-0.0722 V 28.43439 c 0,-3.576906 0.01167,-3.651341 0.689353,-4.381282 0.672802,-0.724734 0.647199,-0.720837 4.996208,-0.760787 l 3.981037,-0.03655 -0.049,-0.677259 c -0.03953,-0.546442 -0.155542,-0.856306 -0.600632,-1.604209 -0.897435,-1.508002 -0.893002,-2.195182 0.02004,-3.10823 0.804831,-0.80483 1.640073,-1.105504 3.07098,-1.105504 1.430905,0 2.26615,0.300674 3.07098,1.105504 0.913047,0.913048 0.917479,1.600228 0.02003,3.10823 -0.44714,0.751339 -0.561028,1.056619 -0.601158,1.611395 l -0.04952,0.68444 h 3.401841 c 3.832269,0 4.306498,0.07033 4.932424,0.731489 0.695127,0.734262 0.68209,0.646357 0.745602,5.028632 l 0.05881,4.055593 0.279915,0.03961 c 0.514399,0.07274 1.005645,-0.09356 1.993124,-0.674767 0.538963,-0.317217 1.160646,-0.61066 1.381528,-0.652098 0.833802,-0.156418 1.924873,0.650332 2.409933,1.781932 0.969354,2.261425 0.06086,5.258685 -1.759298,5.804012 -0.442236,0.132523 -0.521776,0.115333 -1.329798,-0.286625 -0.472751,-0.235183 -1.097124,-0.562328 -1.387561,-0.727054 -0.394852,-0.22394 -0.661773,-0.290786 -1.057989,-0.26486 l -0.529904,0.03481 -0.05877,3.761708 c -0.06332,4.049594 -0.07531,4.128161 -0.723536,4.717778 -0.648281,0.58967 -0.873332,0.630901 -3.44377,0.630901 h -2.415687 v -0.450235 c 0,-0.261891 0.129659,-0.692299 0.309839,-1.028594 0.170413,-0.318023 0.461359,-0.863476 0.646545,-1.212025 1.011825,-1.90442 -0.444431,-3.666237 -3.189901,-3.859244 -2.102532,-0.147786 -3.999618,0.943231 -4.196845,2.413655 -0.07714,0.575211 0.08445,1.081328 0.630584,1.974903 0.490298,0.802219 0.755369,1.567464 0.663988,1.916901 -0.06361,0.24321 -0.09481,0.244701 -5.13446,0.239921 -4.390119,-0.0044 -5.117796,-0.02982 -5.423137,-0.190629 z"
       id="path1-28" />
  </g>
</svg>
