<?xml version="1.0" encoding="UTF-8" standalone="no"?>
<svg
   width="64"
   height="64"
   version="1.1"
   id="svg73"
   sodipodi:docname="audacious.svg"
   inkscape:version="1.4.2 (ebf0e940d0, 2025-05-08)"
   xmlns:inkscape="http://www.inkscape.org/namespaces/inkscape"
   xmlns:sodipodi="http://sodipodi.sourceforge.net/DTD/sodipodi-0.dtd"
   xmlns="http://www.w3.org/2000/svg"
   xmlns:svg="http://www.w3.org/2000/svg"
   xmlns:rdf="http://www.w3.org/1999/02/22-rdf-syntax-ns#"
   xmlns:cc="http://creativecommons.org/ns#"
   xmlns:dc="http://purl.org/dc/elements/1.1/">
  <metadata
     id="metadata77">
    <rdf:RDF>
      <cc:Work
         rdf:about="">
        <dc:format>image/svg+xml</dc:format>
        <dc:type
           rdf:resource="http://purl.org/dc/dcmitype/StillImage" />
      </cc:Work>
    </rdf:RDF>
  </metadata>
  <sodipodi:namedview
     pagecolor="#f5f7fa"
     bordercolor="#666666"
     borderopacity="1"
     objecttolerance="10"
     gridtolerance="10"
     guidetolerance="10"
     inkscape:pageopacity="0"
     inkscape:pageshadow="2"
     inkscape:window-width="1377"
     inkscape:window-height="886"
     id="namedview75"
     showgrid="false"
     inkscape:zoom="6.2890624"
     inkscape:cx="46.350311"
     inkscape:cy="44.124224"
     inkscape:window-x="264"
     inkscape:window-y="75"
     inkscape:window-maximized="0"
     inkscape:current-layer="g877"
     inkscape:document-rotation="0"
     inkscape:pagecheckerboard="0"
     inkscape:showpageshadow="2"
     inkscape:deskcolor="#d1d1d1" />
  <defs
     id="defs29" />
  <circle
     cx="32.516094"
     cy="31.877844"
     r="0"
     fill="url(#b)"
     stroke-width="1.5715"
     id="circle41"
     style="fill:url(#b)" />
  <g
     aria-label="GZ"
     transform="matrix(1.2212657,0,0,0.81882264,0.4960938,-0.1661539)"
     id="text93"
     style="font-weight:bold;font-size:11.5263px;line-height:1.25;font-family:sans-serif;-inkscape-font-specification:'sans-serif Bold';fill:#f2f2f2;stroke-width:0.288159" />
  <g
     id="g877"
     transform="matrix(1.1,0,0,1.1,-3.1845928,-3.2065454)">
    <rect
       x="8.3496294"
       y="8.369586"
       width="47.272728"
       height="47.272728"
       rx="9.8825235"
       ry="9.6485243"
       fill="url(#linearGradient862)"
       stroke-width="3.0541"
       id="rect35-7-3"
       style="fill:#414141;fill-opacity:1;stroke:#dfdfdf;stroke-width:2.04545;stroke-dasharray:none;stroke-opacity:1" />
    <path
       id="path102"
       style="fill:#dfdfdf;fill-opacity:1;stroke:none;stroke-width:1.03379;stroke-dasharray:none;stroke-dashoffset:2.2;stroke-opacity:0.3"
       d="m 27.403972,16.094143 c -7.511231,0 -7.252943,-0.02452 -7.690824,0.716787 -0.176959,0.299608 -0.193845,1.641306 -0.193845,15.129245 0,16.343534 -0.05249,15.257558 0.747075,15.745071 0.369982,0.225581 0.682879,0.231765 11.696754,0.232202 12.329807,4.92e-4 11.692155,0.03508 12.243935,-0.666303 0.247155,-0.314208 0.246323,-0.35065 0.246323,-10.630652 V 26.30685 h -4.482449 c -5.025753,-2.07e-4 -5.111784,-0.01418 -5.520268,-0.831877 -0.186652,-0.373608 -0.207792,-0.86874 -0.207987,-4.898377 v -4.482453 z m 8.264251,0.181721 v 3.834307 c 0,4.185259 0.02148,4.346 0.682464,4.704543 0.267614,0.145193 0.993722,0.177788 4.108903,0.181723 l 3.78383,0.0042 -2.023157,-2.107959 c -1.113454,-1.159233 -3.043362,-3.123143 -4.28861,-4.363339 z M 25.100155,31.413188 h 6.885196 6.887214 v 0.890431 0.890429 h -6.887214 -6.885196 v -0.890429 z m 0,3.323466 h 6.885196 6.887214 v 0.951006 0.948982 h -6.887214 -6.885196 v -0.948984 z m 0,3.444614 h 6.885196 6.887214 v 0.948988 0.951006 h -6.887214 -6.885196 v -0.951006 z m 0,3.442596 h 4.33303 4.335049 v 0.951006 0.94898 h -4.335049 -4.33303 v -0.94898 z" />
  </g>
</svg>
