<?xml version="1.0" encoding="UTF-8" standalone="no"?>
<svg
   width="64"
   height="64"
   version="1.1"
   id="svg73"
   sodipodi:docname="audacious.svg"
   inkscape:version="1.4.2 (ebf0e940d0, 2025-05-08)"
   xmlns:inkscape="http://www.inkscape.org/namespaces/inkscape"
   xmlns:sodipodi="http://sodipodi.sourceforge.net/DTD/sodipodi-0.dtd"
   xmlns="http://www.w3.org/2000/svg"
   xmlns:svg="http://www.w3.org/2000/svg"
   xmlns:rdf="http://www.w3.org/1999/02/22-rdf-syntax-ns#"
   xmlns:cc="http://creativecommons.org/ns#"
   xmlns:dc="http://purl.org/dc/elements/1.1/">
  <metadata
     id="metadata77">
    <rdf:RDF>
      <cc:Work
         rdf:about="">
        <dc:format>image/svg+xml</dc:format>
        <dc:type
           rdf:resource="http://purl.org/dc/dcmitype/StillImage" />
      </cc:Work>
    </rdf:RDF>
  </metadata>
  <sodipodi:namedview
     pagecolor="#f5f7fa"
     bordercolor="#666666"
     borderopacity="1"
     objecttolerance="10"
     gridtolerance="10"
     guidetolerance="10"
     inkscape:pageopacity="0"
     inkscape:pageshadow="2"
     inkscape:window-width="1377"
     inkscape:window-height="886"
     id="namedview75"
     showgrid="false"
     inkscape:zoom="6.2890624"
     inkscape:cx="46.350311"
     inkscape:cy="44.124224"
     inkscape:window-x="264"
     inkscape:window-y="75"
     inkscape:window-maximized="0"
     inkscape:current-layer="g877"
     inkscape:document-rotation="0"
     inkscape:pagecheckerboard="0"
     inkscape:showpageshadow="2"
     inkscape:deskcolor="#d1d1d1" />
  <defs
     id="defs29" />
  <circle
     cx="32.516094"
     cy="31.877844"
     r="0"
     fill="url(#b)"
     stroke-width="1.5715"
     id="circle41"
     style="fill:url(#b)" />
  <g
     aria-label="GZ"
     transform="matrix(1.2212657,0,0,0.81882264,0.4960938,-0.1661539)"
     id="text93"
     style="font-weight:bold;font-size:11.5263px;line-height:1.25;font-family:sans-serif;-inkscape-font-specification:'sans-serif Bold';fill:#f2f2f2;stroke-width:0.288159" />
  <g
     id="g877"
     transform="matrix(1.1,0,0,1.1,-3.1845928,-3.2065454)">
    <rect
       x="8.3496294"
       y="8.369586"
       width="47.272728"
       height="47.272728"
       rx="9.8825235"
       ry="9.6485243"
       fill="url(#linearGradient862)"
       stroke-width="3.0541"
       id="rect35-7-3"
       style="fill:#414141;fill-opacity:1;stroke:#dfdfdf;stroke-width:2.04545;stroke-dasharray:none;stroke-opacity:1" />
    <path
       style="color:#000000;clip-rule:nonzero;display:inline;overflow:visible;visibility:visible;isolation:auto;mix-blend-mode:normal;color-interpolation:sRGB;color-interpolation-filters:linearRGB;solid-color:#000000;solid-opacity:1;fill:#dfdfdf;fill-opacity:1;fill-rule:nonzero;stroke:none;stroke-width:1.02345;stroke-linecap:butt;stroke-linejoin:miter;stroke-miterlimit:4;stroke-dasharray:none;stroke-dashoffset:0;stroke-opacity:0.3;marker:none;color-rendering:auto;image-rendering:auto;shape-rendering:auto;text-rendering:auto;enable-background:accumulate"
       d="m 29.807537,16.297553 c -0.39205,0 -0.718754,1.559826 -0.910529,3.789035 a 11.981507,12.34231 0 0 0 -2.895386,1.253518 C 24.32906,19.896113 23.022549,19.024467 22.744574,19.310811 l -3.0826,3.175427 c -0.277971,0.286343 0.568196,1.632199 1.969972,3.355126 a 11.981507,12.34231 0 0 0 -1.206236,2.982581 c -2.170104,0.19736 -3.688906,0.533417 -3.688906,0.937946 v 4.488113 c 0,0.403852 1.514226,0.740398 3.678271,0.937947 a 11.981507,12.34231 0 0 0 1.212617,2.989149 c -1.39859,1.719847 -2.243355,3.062558 -1.965718,3.348558 l 3.0826,3.175427 c 0.277376,0.285746 1.579197,-0.582391 3.246411,-2.020526 a 11.981507,12.34231 0 0 0 2.906023,1.233788 c 0.19159,2.235459 0.517826,3.8 0.910529,3.8 h 4.356911 c 0.39205,0 0.718754,-1.559827 0.910529,-3.789042 a 11.981507,12.34231 0 0 0 2.895385,-1.253515 c 1.67256,1.443987 2.979077,2.315638 3.25705,2.029295 l 3.082603,-3.175427 c 0.277982,-0.286316 -0.568197,-1.632197 -1.969981,-3.355127 a 11.981507,12.34231 0 0 0 1.206244,-2.98258 c 2.170099,-0.19736 3.688905,-0.533417 3.688905,-0.937947 v -4.488113 c 0,-0.403851 -1.514228,-0.740396 -3.678271,-0.937946 a 11.981507,12.34231 0 0 0 -1.212624,-2.989153 c 1.398596,-1.71984 2.24336,-3.062555 1.965727,-3.348553 l -3.082603,-3.175428 c -0.27738,-0.285725 -1.579197,0.582394 -3.246418,2.020528 a 11.981507,12.34231 0 0 0 -2.906017,-1.233793 c -0.191591,-2.235454 -0.517824,-3.799993 -0.910529,-3.799993 z m 2.178456,10.098252 a 5.4461392,5.6101415 0 0 1 5.446138,5.610144 5.4461392,5.6101415 0 0 1 -5.446138,5.610139 5.4461392,5.6101415 0 0 1 -5.446141,-5.610139 5.4461392,5.6101415 0 0 1 5.446141,-5.610144 z"
       id="path4690"
       inkscape:connector-curvature="0" />
  </g>
</svg>
