<?xml version="1.0" encoding="UTF-8" standalone="no"?>
<svg
   width="64"
   height="64"
   version="1.1"
   id="svg73"
   sodipodi:docname="preferences-desktop-locale.svg"
   inkscape:version="1.4.2 (ebf0e940d0, 2025-05-08)"
   xmlns:inkscape="http://www.inkscape.org/namespaces/inkscape"
   xmlns:sodipodi="http://sodipodi.sourceforge.net/DTD/sodipodi-0.dtd"
   xmlns="http://www.w3.org/2000/svg"
   xmlns:svg="http://www.w3.org/2000/svg"
   xmlns:rdf="http://www.w3.org/1999/02/22-rdf-syntax-ns#"
   xmlns:cc="http://creativecommons.org/ns#"
   xmlns:dc="http://purl.org/dc/elements/1.1/">
  <metadata
     id="metadata77">
    <rdf:RDF>
      <cc:Work
         rdf:about="">
        <dc:format>image/svg+xml</dc:format>
        <dc:type
           rdf:resource="http://purl.org/dc/dcmitype/StillImage" />
      </cc:Work>
    </rdf:RDF>
  </metadata>
  <sodipodi:namedview
     pagecolor="#f5f7fa"
     bordercolor="#666666"
     borderopacity="1"
     objecttolerance="10"
     gridtolerance="10"
     guidetolerance="10"
     inkscape:pageopacity="0"
     inkscape:pageshadow="2"
     inkscape:window-width="1377"
     inkscape:window-height="886"
     id="namedview75"
     showgrid="false"
     inkscape:zoom="6.2890624"
     inkscape:cx="47.622361"
     inkscape:cy="38.559007"
     inkscape:window-x="62"
     inkscape:window-y="75"
     inkscape:window-maximized="0"
     inkscape:current-layer="g877"
     inkscape:document-rotation="0"
     inkscape:pagecheckerboard="0"
     inkscape:showpageshadow="2"
     inkscape:deskcolor="#d1d1d1" />
  <defs
     id="defs29" />
  <circle
     cx="32.516094"
     cy="31.877844"
     r="0"
     fill="url(#b)"
     stroke-width="1.5715"
     id="circle41"
     style="fill:url(#b)" />
  <g
     aria-label="GZ"
     transform="matrix(1.2212657,0,0,0.81882264,0.4960938,-0.1661539)"
     id="text93"
     style="font-weight:bold;font-size:11.5263px;line-height:1.25;font-family:sans-serif;-inkscape-font-specification:'sans-serif Bold';fill:#f2f2f2;stroke-width:0.288159" />
  <g
     id="g877"
     transform="matrix(1.1,0,0,1.1,-3.1845928,-3.2065454)">
    <path
       id="path4"
       style="fill:#dfdfdf;fill-opacity:1;stroke:none;stroke-width:1.97448;stroke-dasharray:none;stroke-opacity:0.3"
       d="m 41.736959,4.3523297 c -16.402586,0 -15.935095,-0.041168 -16.651874,1.4692891 -0.300734,0.6337084 -0.358653,1.8228045 -0.358653,7.4659632 v 6.713976 h 7.543094 c 4.44364,7.44e-4 7.883498,0.09842 8.376066,0.23524 0.459708,0.127669 1.095452,0.541565 1.415298,0.921676 l 0.582326,0.694146 v 8.939108 8.939109 h 7.207583 c 7.888554,0 7.849041,0.0082 8.557325,-1.361308 0.291025,-0.562731 0.339345,-2.855059 0.339345,-16.223824 0,-17.2683104 0.04583,-16.7153954 -1.469282,-17.4347294 C 56.615738,4.3965934 54.732254,4.3523337 41.736978,4.3523284 Z M 22.312338,24.085467 C 5.8653864,24.085863 6.4419381,24.028927 5.6218908,25.670444 5.2560573,26.402769 5.2246804,27.65845 5.2246804,41.88656 c 0,17.243004 -0.062477,16.577715 1.5849718,17.407738 0.7381654,0.371897 1.8493436,0.398851 15.8381828,0.343227 l 15.039914,-0.06139 0.778988,-0.844549 0.775136,-0.848401 V 41.990991 c 0,-17.54975 0.05905,-16.8226 -1.442289,-17.535007 -0.698208,-0.331674 -2.344652,-0.370867 -15.487246,-0.370546 z m 2.780455,8.603604 2.915432,9.702675 c 1.60281,5.335978 2.961657,9.831612 3.019547,9.991895 0.08248,0.228331 -0.425629,0.278204 -2.34854,0.227553 l -2.456518,-0.06574 -0.547605,-2.209703 -0.54761,-2.213568 h -2.799734 -2.799742 l -0.25452,0.964103 c -0.140247,0.530225 -0.416296,1.550343 -0.61317,2.267561 l -0.358637,1.307313 h -2.228995 c -1.636203,0 -2.229086,-0.07766 -2.225135,-0.285429 0.0032,-0.155913 1.313919,-4.621338 2.911573,-9.922484 l 2.903862,-9.636995 2.714896,-0.06554 z m -2.780455,3.983649 -0.859975,3.62501 c -0.473376,1.995722 -0.905567,3.70884 -0.960243,3.802391 -0.0547,0.09353 0.722443,0.16961 1.727665,0.16961 1.316688,0 1.824056,-0.08129 1.816357,-0.285422 -0.0055,-0.155882 -0.39641,-1.86512 -0.867689,-3.798475 z" />
  </g>
</svg>
