<?xml version="1.0" encoding="UTF-8" standalone="no"?>
<svg
   width="64"
   height="64"
   version="1.1"
   id="svg73"
   sodipodi:docname="device-notifier.svg"
   inkscape:version="1.4.2 (ebf0e940d0, 2025-05-08)"
   xmlns:inkscape="http://www.inkscape.org/namespaces/inkscape"
   xmlns:sodipodi="http://sodipodi.sourceforge.net/DTD/sodipodi-0.dtd"
   xmlns="http://www.w3.org/2000/svg"
   xmlns:svg="http://www.w3.org/2000/svg"
   xmlns:rdf="http://www.w3.org/1999/02/22-rdf-syntax-ns#"
   xmlns:cc="http://creativecommons.org/ns#"
   xmlns:dc="http://purl.org/dc/elements/1.1/">
  <metadata
     id="metadata77">
    <rdf:RDF>
      <cc:Work
         rdf:about="">
        <dc:format>image/svg+xml</dc:format>
        <dc:type
           rdf:resource="http://purl.org/dc/dcmitype/StillImage" />
      </cc:Work>
    </rdf:RDF>
  </metadata>
  <sodipodi:namedview
     pagecolor="#f5f7fa"
     bordercolor="#666666"
     borderopacity="1"
     objecttolerance="10"
     gridtolerance="10"
     guidetolerance="10"
     inkscape:pageopacity="0"
     inkscape:pageshadow="2"
     inkscape:window-width="1377"
     inkscape:window-height="886"
     id="namedview75"
     showgrid="false"
     inkscape:zoom="6.2890624"
     inkscape:cx="47.622361"
     inkscape:cy="45.396274"
     inkscape:window-x="480"
     inkscape:window-y="75"
     inkscape:window-maximized="0"
     inkscape:current-layer="g877"
     inkscape:document-rotation="0"
     inkscape:pagecheckerboard="0"
     inkscape:showpageshadow="2"
     inkscape:deskcolor="#d1d1d1" />
  <defs
     id="defs29" />
  <circle
     cx="32.516094"
     cy="31.877844"
     r="0"
     fill="url(#b)"
     stroke-width="1.5715"
     id="circle41"
     style="fill:url(#b)" />
  <g
     aria-label="GZ"
     transform="matrix(1.2212657,0,0,0.81882264,0.4960938,-0.1661539)"
     id="text93"
     style="font-weight:bold;font-size:11.5263px;line-height:1.25;font-family:sans-serif;-inkscape-font-specification:'sans-serif Bold';fill:#f2f2f2;stroke-width:0.288159" />
  <g
     id="g877"
     transform="matrix(1.1,0,0,1.1,-3.1845928,-3.2065454)">
    <path
       id="path1-6"
       style="fill:#dfdfdf;fill-opacity:1;stroke-width:0.207782"
       d="m 31.942353,4.77631 c -13.315692,0 -13.183211,-0.00851 -14.373015,1.102354 -1.122735,1.0482871 -1.074092,0.1247812 -1.074092,20.351168 v 18.768304 l 0.469908,0.915094 c 0.533249,1.043588 1.244322,1.636874 2.257706,1.876134 0.981879,0.231759 24.622721,0.238105 25.619164,0.007 1.12134,-0.26009 1.802424,-0.805498 2.353107,-1.883188 l 0.469934,-0.915118 V 26.335745 c 0,-20.0835129 0.03313,-19.4449281 -1.070557,-20.4607025 C 45.415549,4.7897264 45.246278,4.7762952 31.942346,4.7762952 Z m -1.731265,9.974192 H 32.080142 33.9492 V 22.9581 31.165698 H 32.080142 30.211088 V 22.9581 Z m 1.999785,19.948387 c 1.009377,0 1.739948,0.764749 1.731264,1.808997 -0.0074,0.861381 -0.26617,1.316898 -0.964562,1.68886 -0.768651,0.409385 -1.50927,0.282066 -2.158778,-0.367446 -0.678833,-0.678826 -0.772419,-1.379878 -0.303855,-2.285976 0.349759,-0.676349 0.689456,-0.844433 1.695931,-0.844435 z M 20.445347,52.15285 v 3.844113 3.844095 H 32.080142 43.714938 V 55.996963 52.15285 H 32.080142 Z" />
  </g>
</svg>
