<?xml version="1.0" encoding="UTF-8" standalone="no"?>
<svg
   width="64"
   height="64"
   version="1.1"
   id="svg73"
   sodipodi:docname="financial-schedule.svg"
   inkscape:version="1.4.2 (ebf0e940d0, 2025-05-08)"
   xmlns:inkscape="http://www.inkscape.org/namespaces/inkscape"
   xmlns:sodipodi="http://sodipodi.sourceforge.net/DTD/sodipodi-0.dtd"
   xmlns="http://www.w3.org/2000/svg"
   xmlns:svg="http://www.w3.org/2000/svg"
   xmlns:rdf="http://www.w3.org/1999/02/22-rdf-syntax-ns#"
   xmlns:cc="http://creativecommons.org/ns#"
   xmlns:dc="http://purl.org/dc/elements/1.1/">
  <metadata
     id="metadata77">
    <rdf:RDF>
      <cc:Work
         rdf:about="">
        <dc:format>image/svg+xml</dc:format>
        <dc:type
           rdf:resource="http://purl.org/dc/dcmitype/StillImage" />
      </cc:Work>
    </rdf:RDF>
  </metadata>
  <sodipodi:namedview
     pagecolor="#f5f7fa"
     bordercolor="#666666"
     borderopacity="1"
     objecttolerance="10"
     gridtolerance="10"
     guidetolerance="10"
     inkscape:pageopacity="0"
     inkscape:pageshadow="2"
     inkscape:window-width="1377"
     inkscape:window-height="886"
     id="namedview75"
     showgrid="false"
     inkscape:zoom="6.2890624"
     inkscape:cx="47.622361"
     inkscape:cy="45.396274"
     inkscape:window-x="480"
     inkscape:window-y="75"
     inkscape:window-maximized="0"
     inkscape:current-layer="g877"
     inkscape:document-rotation="0"
     inkscape:pagecheckerboard="0"
     inkscape:showpageshadow="2"
     inkscape:deskcolor="#d1d1d1" />
  <defs
     id="defs29" />
  <circle
     cx="32.516094"
     cy="31.877844"
     r="0"
     fill="url(#b)"
     stroke-width="1.5715"
     id="circle41"
     style="fill:url(#b)" />
  <g
     aria-label="GZ"
     transform="matrix(1.2212657,0,0,0.81882264,0.4960938,-0.1661539)"
     id="text93"
     style="font-weight:bold;font-size:11.5263px;line-height:1.25;font-family:sans-serif;-inkscape-font-specification:'sans-serif Bold';fill:#f2f2f2;stroke-width:0.288159" />
  <g
     id="g877"
     transform="matrix(1.1,0,0,1.1,-3.1845928,-3.2065454)">
    <path
       id="path51393"
       style="fill:#dfdfdf;fill-opacity:1;stroke:none;stroke-width:1.49503;stroke-dasharray:none;stroke-opacity:1"
       d="m 44.550376,17.690408 c -5.616787,-0.0097 -9.003052,3.149594 -10.36889,9.67101 -0.709793,3.389071 -0.701464,9.405629 0.01757,12.074166 1.017489,3.776476 3.184653,6.201512 6.041462,6.765623 2.324853,0.459115 5.168462,-0.431188 6.605024,-2.067356 1.806609,-2.057607 2.674256,-5.675667 2.178304,-9.078252 -0.33534,-2.300847 -1.097771,-3.877011 -2.508269,-5.177146 -1.199728,-1.105872 -2.293926,-1.491956 -4.204789,-1.486277 -1.767981,0.0053 -3.006522,0.618255 -4.350791,2.154955 l -1.118356,1.276037 V 30.71941 c 0,-1.654252 0.625171,-4.598999 1.270197,-5.983062 0.713163,-1.530265 1.859441,-2.701061 3.247037,-3.32003 1.26281,-0.563304 4.02157,-0.796466 5.288095,-0.446766 l 0.893517,0.245279 v -1.617665 c 0,-1.90887 0.0083,-1.901672 -2.990068,-1.906755 z m -22.267854,0.02339 c -0.19927,9.81e-4 -0.403717,0.0073 -0.613193,0.01757 -1.759203,0.08517 -2.272961,0.211603 -3.489394,0.864312 -0.784473,0.420913 -1.846137,1.123388 -2.362274,1.559259 l -0.940238,0.791324 0.785476,1.223477 c 0.43171,0.672752 0.855834,1.223473 0.94316,1.223473 0.08732,0 0.551649,-0.323411 1.030755,-0.718316 1.369848,-1.129145 2.740488,-1.649807 4.37123,-1.655636 2.646264,-0.0097 3.936954,1.457745 3.927386,4.464669 -0.01078,3.428299 -0.64214,4.463692 -8.561412,14.074361 l -2.639674,3.206148 v 1.605995 1.605986 h 7.726295 7.726298 v -1.784147 -1.781209 h -5.7261 c -3.310792,0 -5.693089,-0.09185 -5.647266,-0.216139 0.04354,-0.118133 1.471418,-1.841971 3.171111,-3.831008 6.32193,-7.398064 7.402228,-9.479532 7.20654,-13.875759 -0.0816,-1.832903 -0.200395,-2.35938 -0.785483,-3.430989 -1.27405,-2.333481 -3.134165,-3.358148 -6.123217,-3.343389 z M 4.8268126,24.826891 c -0.3711547,-0.0032 -0.7672909,0.186231 -1.1563169,0.575235 l -0.5839976,0.584007 v 5.921742 c 0,5.63089 0.022081,5.951023 0.4905534,6.546623 0.7582894,0.964004 1.8932796,0.8081 2.4878337,-0.341637 0.5069646,-0.980371 0.5069646,-11.344915 0,-12.325286 -0.3272736,-0.632887 -0.7608665,-0.9567 -1.2380726,-0.960679 z m 54.4374014,0 c -0.371097,-0.0032 -0.767279,0.186214 -1.156325,0.575235 l -0.583972,0.584004 v 5.921742 c 0,5.630911 0.02498,5.951022 0.49352,6.54662 0.758298,0.96401 1.893264,0.808105 2.487825,-0.341638 0.50697,-0.980371 0.50697,-11.344908 0,-12.32528 -0.32728,-0.632875 -0.763841,-0.956695 -1.241052,-0.960675 z m -17.502436,6.64882 c 1.727366,0 2.753556,0.593509 3.49816,2.020631 0.419078,0.803314 0.496399,1.375506 0.496399,3.685031 0,2.550811 -0.04355,2.807501 -0.65116,3.839794 -0.451684,0.768278 -0.964177,1.257047 -1.678955,1.603074 -1.172035,0.567374 -2.338532,0.624387 -3.375516,0.163539 -2.626112,-1.167205 -4.012056,-6.295535 -2.429469,-8.987773 0.919899,-1.564904 2.273145,-2.324313 4.140541,-2.324313 z" />
  </g>
</svg>
