<?xml version="1.0" encoding="UTF-8" standalone="no"?>
<svg
   width="64"
   height="64"
   version="1.1"
   id="svg73"
   sodipodi:docname="preferences-desktop-multimedia.svg"
   inkscape:version="1.4.2 (ebf0e940d0, 2025-05-08)"
   xmlns:inkscape="http://www.inkscape.org/namespaces/inkscape"
   xmlns:sodipodi="http://sodipodi.sourceforge.net/DTD/sodipodi-0.dtd"
   xmlns="http://www.w3.org/2000/svg"
   xmlns:svg="http://www.w3.org/2000/svg"
   xmlns:rdf="http://www.w3.org/1999/02/22-rdf-syntax-ns#"
   xmlns:cc="http://creativecommons.org/ns#"
   xmlns:dc="http://purl.org/dc/elements/1.1/">
  <metadata
     id="metadata77">
    <rdf:RDF>
      <cc:Work
         rdf:about="">
        <dc:format>image/svg+xml</dc:format>
        <dc:type
           rdf:resource="http://purl.org/dc/dcmitype/StillImage" />
      </cc:Work>
    </rdf:RDF>
  </metadata>
  <sodipodi:namedview
     pagecolor="#f5f7fa"
     bordercolor="#666666"
     borderopacity="1"
     objecttolerance="10"
     gridtolerance="10"
     guidetolerance="10"
     inkscape:pageopacity="0"
     inkscape:pageshadow="2"
     inkscape:window-width="1377"
     inkscape:window-height="886"
     id="namedview75"
     showgrid="false"
     inkscape:zoom="6.2890624"
     inkscape:cx="46.191305"
     inkscape:cy="39.036025"
     inkscape:window-x="62"
     inkscape:window-y="75"
     inkscape:window-maximized="0"
     inkscape:current-layer="g877"
     inkscape:document-rotation="0"
     inkscape:pagecheckerboard="0"
     inkscape:showpageshadow="2"
     inkscape:deskcolor="#d1d1d1" />
  <defs
     id="defs29" />
  <circle
     cx="32.516094"
     cy="31.877844"
     r="0"
     fill="url(#b)"
     stroke-width="1.5715"
     id="circle41"
     style="fill:url(#b)" />
  <g
     aria-label="GZ"
     transform="matrix(1.2212657,0,0,0.81882264,0.4960938,-0.1661539)"
     id="text93"
     style="font-weight:bold;font-size:11.5263px;line-height:1.25;font-family:sans-serif;-inkscape-font-specification:'sans-serif Bold';fill:#f2f2f2;stroke-width:0.288159" />
  <g
     id="g877"
     transform="matrix(1.1,0,0,1.1,-3.1845928,-3.2065454)">
    <path
       style="fill:#dfdfdf;fill-opacity:1;stroke:none;stroke-width:1.7442;stroke-dasharray:none;stroke-opacity:0.3"
       d="M 8.4441022,4.3851218 V 59.626779 H 55.527999 V 4.3851218 H 52.585254 V 7.8377245 H 49.642508 V 4.3851218 H 14.329588 V 7.8377245 H 11.386843 L 11.386255,4.3851218 H 8.4439856 Z M 20.215077,11.290328 H 43.757023 V 28.553349 H 20.215077 Z m -8.828822,3.452608 h 2.942747 v 6.905204 h -2.942747 z m 38.255668,0 h 2.942746 V 21.64814 H 49.641923 Z M 11.386255,28.553349 h 2.942747 v 6.905203 h -2.942747 z m 38.255668,0 h 2.942746 v 6.905203 H 49.641923 Z M 20.214486,35.458552 H 43.756433 V 52.721571 H 20.214486 Z m -8.828821,6.905206 h 2.942746 v 6.905217 h -2.942746 z m 38.255676,0 h 2.942737 v 6.905217 H 49.641341 Z M 11.385665,56.174183 h 2.942746 v 3.452596 h -2.942746 z m 38.255676,0 h 2.942737 v 3.452596 h -2.942737 z"
       id="path4" />
  </g>
</svg>
