<?xml version="1.0" encoding="UTF-8" standalone="no"?>
<svg
   width="64"
   height="64"
   version="1.1"
   id="svg73"
   sodipodi:docname="preferences-desktop-keyboard-shortcut.svg"
   inkscape:version="1.4.2 (ebf0e940d0, 2025-05-08)"
   xmlns:inkscape="http://www.inkscape.org/namespaces/inkscape"
   xmlns:sodipodi="http://sodipodi.sourceforge.net/DTD/sodipodi-0.dtd"
   xmlns="http://www.w3.org/2000/svg"
   xmlns:svg="http://www.w3.org/2000/svg"
   xmlns:rdf="http://www.w3.org/1999/02/22-rdf-syntax-ns#"
   xmlns:cc="http://creativecommons.org/ns#"
   xmlns:dc="http://purl.org/dc/elements/1.1/">
  <metadata
     id="metadata77">
    <rdf:RDF>
      <cc:Work
         rdf:about="">
        <dc:format>image/svg+xml</dc:format>
        <dc:type
           rdf:resource="http://purl.org/dc/dcmitype/StillImage" />
      </cc:Work>
    </rdf:RDF>
  </metadata>
  <sodipodi:namedview
     pagecolor="#f5f7fa"
     bordercolor="#666666"
     borderopacity="1"
     objecttolerance="10"
     gridtolerance="10"
     guidetolerance="10"
     inkscape:pageopacity="0"
     inkscape:pageshadow="2"
     inkscape:window-width="1377"
     inkscape:window-height="886"
     id="namedview75"
     showgrid="false"
     inkscape:zoom="6.2890624"
     inkscape:cx="47.145342"
     inkscape:cy="40.467081"
     inkscape:window-x="62"
     inkscape:window-y="75"
     inkscape:window-maximized="0"
     inkscape:current-layer="g877"
     inkscape:document-rotation="0"
     inkscape:pagecheckerboard="0"
     inkscape:showpageshadow="2"
     inkscape:deskcolor="#d1d1d1" />
  <defs
     id="defs29" />
  <circle
     cx="32.516094"
     cy="31.877844"
     r="0"
     fill="url(#b)"
     stroke-width="1.5715"
     id="circle41"
     style="fill:url(#b)" />
  <g
     aria-label="GZ"
     transform="matrix(1.2212657,0,0,0.81882264,0.4960938,-0.1661539)"
     id="text93"
     style="font-weight:bold;font-size:11.5263px;line-height:1.25;font-family:sans-serif;-inkscape-font-specification:'sans-serif Bold';fill:#f2f2f2;stroke-width:0.288159" />
  <g
     id="g877"
     transform="matrix(1.1,0,0,1.1,-3.1845928,-3.2065454)">
    <path
       id="path5-7"
       style="fill:#dfdfdf;fill-opacity:1;stroke:none;stroke-width:0.075473"
       d="M 31.986084,13.247742 C 19.93755,13.247921 7.8867641,13.285483 7.6070768,13.360792 6.3935932,13.687817 5.4662492,14.56168 5.0525796,15.766894 l -0.1625217,0.469905 -0.02127,15.358778 c -0.013616,9.979907 0.00705,15.582039 0.056567,15.99121 0.1734,1.4364 1.1317435,2.60236 2.4944321,3.038559 0.3937206,0.125912 1.702648,0.134025 24.538004,0.137831 23.857573,0.0038 24.130792,0.0034 24.605137,-0.144873 0.615588,-0.192229 0.96499,-0.408911 1.476862,-0.915111 0.560128,-0.553861 0.906376,-1.283102 1.006966,-2.116371 0.04862,-0.409122 0.07044,-6.011309 0.05638,-15.99122 L 59.081996,16.236831 58.91944,15.766925 c -0.410007,-1.195046 -1.355326,-2.085366 -2.554334,-2.40613 -0.281719,-0.07537 -12.330469,-0.113231 -24.379009,-0.11305 z m 0,3.529656 c 0.03904,-1.38e-4 2.307849,2.851268 5.041863,6.335005 l 4.971194,6.335011 -2.271837,0.01771 -2.268309,0.02114 v 6.338487 6.338552 H 31.986084 26.513171 V 35.82476 29.486219 l -2.268308,-0.02121 -2.271838,-0.01771 4.971198,-6.335008 c 2.733968,-3.483533 5.002786,-6.334809 5.041861,-6.334946 z m 0,3.02794 c -0.03221,0 -1.440083,1.762107 -3.130408,3.914777 l -3.073876,3.914771 1.310819,0.02121 1.30728,0.02127 v 6.299621 6.299672 h 3.586185 3.586187 v -6.299687 -6.299679 l 1.307283,-0.02121 1.310812,-0.02121 -3.073875,-3.914743 c -1.690321,-2.152659 -3.09817,-3.914778 -3.130407,-3.914778 z" />
  </g>
</svg>
