<?xml version="1.0" encoding="UTF-8" standalone="no"?>
<svg
   width="64"
   height="64"
   version="1.1"
   id="svg73"
   sodipodi:docname="preferences-devices-drive-optical-check.svg"
   inkscape:version="1.4.2 (ebf0e940d0, 2025-05-08)"
   xmlns:inkscape="http://www.inkscape.org/namespaces/inkscape"
   xmlns:sodipodi="http://sodipodi.sourceforge.net/DTD/sodipodi-0.dtd"
   xmlns="http://www.w3.org/2000/svg"
   xmlns:svg="http://www.w3.org/2000/svg"
   xmlns:rdf="http://www.w3.org/1999/02/22-rdf-syntax-ns#"
   xmlns:cc="http://creativecommons.org/ns#"
   xmlns:dc="http://purl.org/dc/elements/1.1/">
  <metadata
     id="metadata77">
    <rdf:RDF>
      <cc:Work
         rdf:about="">
        <dc:format>image/svg+xml</dc:format>
        <dc:type
           rdf:resource="http://purl.org/dc/dcmitype/StillImage" />
      </cc:Work>
    </rdf:RDF>
  </metadata>
  <sodipodi:namedview
     pagecolor="#f5f7fa"
     bordercolor="#666666"
     borderopacity="1"
     objecttolerance="10"
     gridtolerance="10"
     guidetolerance="10"
     inkscape:pageopacity="0"
     inkscape:pageshadow="2"
     inkscape:window-width="1377"
     inkscape:window-height="886"
     id="namedview75"
     showgrid="false"
     inkscape:zoom="6.2890624"
     inkscape:cx="47.622361"
     inkscape:cy="45.396274"
     inkscape:window-x="0"
     inkscape:window-y="48"
     inkscape:window-maximized="0"
     inkscape:current-layer="g877"
     inkscape:document-rotation="0"
     inkscape:pagecheckerboard="0"
     inkscape:showpageshadow="2"
     inkscape:deskcolor="#d1d1d1" />
  <defs
     id="defs29" />
  <circle
     cx="32.516094"
     cy="31.877844"
     r="0"
     fill="url(#b)"
     stroke-width="1.5715"
     id="circle41"
     style="fill:url(#b)" />
  <g
     aria-label="GZ"
     transform="matrix(1.2212657,0,0,0.81882264,0.4960938,-0.1661539)"
     id="text93"
     style="font-weight:bold;font-size:11.5263px;line-height:1.25;font-family:sans-serif;-inkscape-font-specification:'sans-serif Bold';fill:#f2f2f2;stroke-width:0.288159" />
  <g
     id="g877"
     transform="matrix(1.1,0,0,1.1,-3.1845928,-3.2065454)">
    <path
       fill="#f5f7fa"
       d="m 31.985998,59.979299 c -15.683833,0 -28.3980882,-12.524098 -28.3980882,-27.973337 0,-15.449266 12.7142552,-27.9733595 28.3980882,-27.9733595 15.683818,0 28.398079,12.5240935 28.398079,27.9733595 0,15.449239 -12.714261,27.973337 -28.398079,27.973337 z m 0,-49.730415 c -12.198536,0 -22.0873978,9.740988 -22.0873978,21.757078 0,0.858285 0.7063478,1.554066 1.5776718,1.554066 0.871321,0 1.577665,-0.695768 1.577665,-1.554066 0,-10.299514 8.476173,-18.648918 18.932061,-18.648918 0.871324,0 1.577674,-0.695784 1.577674,-1.554067 0,-0.858296 -0.706354,-1.554093 -1.577674,-1.554093 z m 0,34.189662 c 6.97059,0 12.621374,-5.56627 12.621374,-12.432584 0,-6.866339 -5.650784,-12.432617 -12.621374,-12.432617 -6.97059,0 -12.621371,5.566278 -12.621371,12.432617 0,6.866314 5.650781,12.432584 12.621371,12.432584 z m 0,-3.10815 c -5.227944,0 -9.466028,-4.174688 -9.466028,-9.324434 0,-5.149762 4.238084,-9.324467 9.466028,-9.324467 5.227942,0 9.466028,4.174705 9.466028,9.324467 0,5.149746 -4.238086,9.324434 -9.466028,9.324434 z m 0,-3.108148 c 3.48529,0 6.310682,-2.783124 6.310682,-6.216286 0,-3.433182 -2.825392,-6.216313 -6.310682,-6.216313 -3.485299,0 -6.31068,2.783131 -6.31068,6.216313 0,3.433162 2.825381,6.216286 6.31068,6.216286 z"
       id="path42"
       style="fill:#dfdfdf;fill-opacity:1;stroke:none;stroke-width:1.83787;stroke-dasharray:none;stroke-opacity:0.3" />
  </g>
</svg>
