<?xml version="1.0" encoding="UTF-8" standalone="no"?>
<svg
   width="64"
   height="64"
   version="1.1"
   id="svg73"
   sodipodi:docname="preferences-desktop-effects.svg"
   inkscape:version="1.4.2 (ebf0e940d0, 2025-05-08)"
   xmlns:inkscape="http://www.inkscape.org/namespaces/inkscape"
   xmlns:sodipodi="http://sodipodi.sourceforge.net/DTD/sodipodi-0.dtd"
   xmlns="http://www.w3.org/2000/svg"
   xmlns:svg="http://www.w3.org/2000/svg"
   xmlns:rdf="http://www.w3.org/1999/02/22-rdf-syntax-ns#"
   xmlns:cc="http://creativecommons.org/ns#"
   xmlns:dc="http://purl.org/dc/elements/1.1/">
  <metadata
     id="metadata77">
    <rdf:RDF>
      <cc:Work
         rdf:about="">
        <dc:format>image/svg+xml</dc:format>
        <dc:type
           rdf:resource="http://purl.org/dc/dcmitype/StillImage" />
      </cc:Work>
    </rdf:RDF>
  </metadata>
  <sodipodi:namedview
     pagecolor="#f5f7fa"
     bordercolor="#666666"
     borderopacity="1"
     objecttolerance="10"
     gridtolerance="10"
     guidetolerance="10"
     inkscape:pageopacity="0"
     inkscape:pageshadow="2"
     inkscape:window-width="1377"
     inkscape:window-height="886"
     id="namedview75"
     showgrid="false"
     inkscape:zoom="6.2890624"
     inkscape:cx="47.145342"
     inkscape:cy="40.467081"
     inkscape:window-x="62"
     inkscape:window-y="75"
     inkscape:window-maximized="0"
     inkscape:current-layer="g877"
     inkscape:document-rotation="0"
     inkscape:pagecheckerboard="0"
     inkscape:showpageshadow="2"
     inkscape:deskcolor="#d1d1d1" />
  <defs
     id="defs29" />
  <circle
     cx="32.516094"
     cy="31.877844"
     r="0"
     fill="url(#b)"
     stroke-width="1.5715"
     id="circle41"
     style="fill:url(#b)" />
  <g
     aria-label="GZ"
     transform="matrix(1.2212657,0,0,0.81882264,0.4960938,-0.1661539)"
     id="text93"
     style="font-weight:bold;font-size:11.5263px;line-height:1.25;font-family:sans-serif;-inkscape-font-specification:'sans-serif Bold';fill:#f2f2f2;stroke-width:0.288159" />
  <g
     id="g877"
     transform="matrix(1.1,0,0,1.1,-3.1845928,-3.2065454)">
    <path
       d="m 43.198069,24.276291 9.535956,-9.535959 -3.482404,-3.482409 -9.535969,9.535951 z m 14.548033,-9.535959 q 0,0.878736 -0.585843,1.464567 l -41.854054,41.85405 q -0.585822,0.585843 -1.46456,0.585843 -0.878744,0 -1.464571,-0.585843 L 5.9329859,51.614858 q -0.5858317,-0.585851 -0.5858317,-1.464561 0,-0.878738 0.5858317,-1.464574 L 47.787048,6.8316784 q 0.585842,-0.5858336 1.464573,-0.5858336 0.878735,0 1.464558,0.5858336 l 6.444093,6.4440856 q 0.585847,0.585838 0.585847,1.464568 z M 13.776557,8.5566075 16.96606,9.5329851 13.776557,10.509369 12.800184,13.698863 11.823807,10.509369 8.6343065,9.5329851 11.823807,8.5566075 12.800184,5.3671095 Z m 11.391073,5.2724405 6.378998,1.952754 -6.378998,1.952756 -1.952753,6.379002 -1.952752,-6.379002 -6.379007,-1.952756 6.379007,-1.952754 1.952752,-6.3789991 z m 30.26771,15.556946 3.189491,0.976379 -3.189491,0.976383 -0.976381,3.189493 -0.976395,-3.189493 -3.189488,-0.976383 3.189488,-0.976379 0.976395,-3.189494 z M 34.605952,8.5566075 l 3.189493,0.9763776 -3.189493,0.9763839 -0.976385,3.189494 -0.976379,-3.189494 -3.189496,-0.9763839 3.189496,-0.9763776 0.976379,-3.189498 z"
       id="path1-3-3"
       style="overflow:hidden;fill:#dfdfdf;fill-opacity:1;stroke-width:0.0569553" />
  </g>
</svg>
