<?xml version="1.0" encoding="UTF-8" standalone="no"?>
<svg
   width="64"
   height="64"
   version="1.1"
   id="svg73"
   sodipodi:docname="preferences-desktop-sound.svg"
   inkscape:version="1.4.2 (ebf0e940d0, 2025-05-08)"
   xmlns:inkscape="http://www.inkscape.org/namespaces/inkscape"
   xmlns:sodipodi="http://sodipodi.sourceforge.net/DTD/sodipodi-0.dtd"
   xmlns="http://www.w3.org/2000/svg"
   xmlns:svg="http://www.w3.org/2000/svg"
   xmlns:rdf="http://www.w3.org/1999/02/22-rdf-syntax-ns#"
   xmlns:cc="http://creativecommons.org/ns#"
   xmlns:dc="http://purl.org/dc/elements/1.1/">
  <metadata
     id="metadata77">
    <rdf:RDF>
      <cc:Work
         rdf:about="">
        <dc:format>image/svg+xml</dc:format>
        <dc:type
           rdf:resource="http://purl.org/dc/dcmitype/StillImage" />
      </cc:Work>
    </rdf:RDF>
  </metadata>
  <sodipodi:namedview
     pagecolor="#f5f7fa"
     bordercolor="#666666"
     borderopacity="1"
     objecttolerance="10"
     gridtolerance="10"
     guidetolerance="10"
     inkscape:pageopacity="0"
     inkscape:pageshadow="2"
     inkscape:window-width="1377"
     inkscape:window-height="886"
     id="namedview75"
     showgrid="false"
     inkscape:zoom="6.2890624"
     inkscape:cx="46.191305"
     inkscape:cy="39.036025"
     inkscape:window-x="62"
     inkscape:window-y="75"
     inkscape:window-maximized="0"
     inkscape:current-layer="g877"
     inkscape:document-rotation="0"
     inkscape:pagecheckerboard="0"
     inkscape:showpageshadow="2"
     inkscape:deskcolor="#d1d1d1" />
  <defs
     id="defs29" />
  <circle
     cx="32.516094"
     cy="31.877844"
     r="0"
     fill="url(#b)"
     stroke-width="1.5715"
     id="circle41"
     style="fill:url(#b)" />
  <g
     aria-label="GZ"
     transform="matrix(1.2212657,0,0,0.81882264,0.4960938,-0.1661539)"
     id="text93"
     style="font-weight:bold;font-size:11.5263px;line-height:1.25;font-family:sans-serif;-inkscape-font-specification:'sans-serif Bold';fill:#f2f2f2;stroke-width:0.288159" />
  <g
     id="g877"
     transform="matrix(1.1,0,0,1.1,-3.1845928,-3.2065454)">
    <path
       style="color:#6e6e6e;fill:#dfdfdf;fill-opacity:1;stroke:none;stroke-width:1.73772;stroke-dasharray:none;stroke-opacity:0.3"
       class="ColorScheme-Text"
       d="m 19.240621,4.9519307 c -6.372688,0 -6.372688,7.2144083 -6.372688,7.2144083 v 39.679223 c 0,7.214408 6.032708,7.201433 6.372688,7.214408 h 25.490733 c 0,0 6.372699,-0.01481 6.372699,-7.214408 V 12.166339 c 0,-7.2144084 -6.372699,-7.2144084 -6.372699,-7.2144084 z m 12.745373,7.2144083 c 1.765459,0 3.186345,1.621254 3.186345,3.607199 0,1.986269 -1.420886,3.607204 -3.186345,3.607204 -1.765995,0 -3.186342,-1.620935 -3.186342,-3.607204 0,-1.985945 1.420347,-3.607199 3.186342,-3.607199 z m 0,10.821606 c 7.038952,0 12.74536,6.460134 12.74536,14.428809 0,7.968683 -5.706408,14.428808 -12.74536,14.428808 -7.038948,0 -12.745373,-6.460125 -12.745373,-14.428808 0,-7.968674 5.706425,-14.428809 12.745373,-14.428809 z m 0,7.2144 c -3.519636,0 -6.372684,3.230002 -6.372684,7.214409 0,3.984415 2.853145,7.214409 6.372684,7.214409 3.519539,0 6.372692,-3.229994 6.372692,-7.214409 0,-3.984407 -2.853153,-7.214407 -6.372692,-7.214409 z"
       id="path5" />
  </g>
</svg>
