<?xml version="1.0" encoding="UTF-8" standalone="no"?>
<svg
   width="64"
   height="64"
   version="1.1"
   id="svg73"
   sodipodi:docname="preferences-desktop-gaming.svg"
   inkscape:version="1.4.2 (ebf0e940d0, 2025-05-08)"
   xmlns:inkscape="http://www.inkscape.org/namespaces/inkscape"
   xmlns:sodipodi="http://sodipodi.sourceforge.net/DTD/sodipodi-0.dtd"
   xmlns="http://www.w3.org/2000/svg"
   xmlns:svg="http://www.w3.org/2000/svg"
   xmlns:rdf="http://www.w3.org/1999/02/22-rdf-syntax-ns#"
   xmlns:cc="http://creativecommons.org/ns#"
   xmlns:dc="http://purl.org/dc/elements/1.1/">
  <metadata
     id="metadata77">
    <rdf:RDF>
      <cc:Work
         rdf:about="">
        <dc:format>image/svg+xml</dc:format>
        <dc:type
           rdf:resource="http://purl.org/dc/dcmitype/StillImage" />
      </cc:Work>
    </rdf:RDF>
  </metadata>
  <sodipodi:namedview
     pagecolor="#f5f7fa"
     bordercolor="#666666"
     borderopacity="1"
     objecttolerance="10"
     gridtolerance="10"
     guidetolerance="10"
     inkscape:pageopacity="0"
     inkscape:pageshadow="2"
     inkscape:window-width="1377"
     inkscape:window-height="886"
     id="namedview75"
     showgrid="false"
     inkscape:zoom="6.2890624"
     inkscape:cx="47.145342"
     inkscape:cy="40.467081"
     inkscape:window-x="62"
     inkscape:window-y="75"
     inkscape:window-maximized="0"
     inkscape:current-layer="g877"
     inkscape:document-rotation="0"
     inkscape:pagecheckerboard="0"
     inkscape:showpageshadow="2"
     inkscape:deskcolor="#d1d1d1" />
  <defs
     id="defs29" />
  <circle
     cx="32.516094"
     cy="31.877844"
     r="0"
     fill="url(#b)"
     stroke-width="1.5715"
     id="circle41"
     style="fill:url(#b)" />
  <g
     aria-label="GZ"
     transform="matrix(1.2212657,0,0,0.81882264,0.4960938,-0.1661539)"
     id="text93"
     style="font-weight:bold;font-size:11.5263px;line-height:1.25;font-family:sans-serif;-inkscape-font-specification:'sans-serif Bold';fill:#f2f2f2;stroke-width:0.288159" />
  <g
     id="g877"
     transform="matrix(1.1,0,0,1.1,-3.1845928,-3.2065454)">
    <path
       id="path1-3"
       style="fill:#dfdfdf;fill-opacity:1;stroke:none;stroke-width:0.674295;stroke-dasharray:none;stroke-dashoffset:2.2;stroke-opacity:0.6"
       d="m 47.209734,9.1497235 c -0.915939,-3.839e-4 -1.896376,0.3684461 -3.123431,1.0874025 -2.919933,1.710851 -6.738667,2.517715 -11.982809,2.517715 -5.243631,0 -9.189757,-0.824032 -12.092305,-2.525011 C 17.683719,8.865907 16.294197,8.8478274 14.340886,10.16484 9.3260688,13.544307 5.5466143,24.3795 4.4378811,38.538338 3.7730093,47.028764 4.3940651,51.504975 6.5906979,54.02406 c 1.0594518,1.214524 3.6602641,1.008626 6.0060151,-0.48167 1.988454,-1.263287 4.35768,-4.050879 7.188248,-8.458104 2.557817,-3.98256 5.651665,-5.294232 12.49368,-5.305447 6.828403,-0.01067 9.511897,1.281306 12.661521,6.122768 5.284339,8.122798 10.168705,10.950673 13.033707,7.545817 1.587193,-1.886236 1.877697,-3.708685 1.802525,-11.296823 C 59.639418,28.366391 56.036257,15.826593 50.844,11.040539 49.46115,9.7658654 48.38747,9.1509192 47.209734,9.1504253 Z M 17.544568,17.272071 h 3.167206 3.167202 v 2.714745 2.714758 h 2.714754 2.714744 v 3.393438 3.393428 H 26.59373 23.878976 v 2.940972 2.940978 h -2.867984 c -1.575613,0 -2.994062,-0.141226 -3.159928,-0.306463 C 17.685281,34.898145 17.5446,33.58149 17.5446,32.130265 V 29.48844 h -2.71478 -2.714754 v -3.393428 -3.393438 h 2.714754 2.714748 v -2.714758 z m 25.819288,0 c 2.857246,0 4.080866,3.165752 2.021465,5.225171 -1.309716,1.309551 -2.504995,1.412485 -3.7948,0.32114 -2.237211,-1.893056 -1.069466,-5.546262 1.773335,-5.546262 z m -5.495168,5.80168 c 0.713456,4.93e-4 1.431812,0.284869 1.999567,0.91215 0.885035,0.977967 0.980638,3.217026 0.182462,4.261872 -1.562022,2.044885 -5.312731,0.729558 -5.312731,-1.860913 0,-1.966062 1.561101,-3.314237 3.130711,-3.313167 z m 11.216583,0.110195 c 0.822407,0.01562 1.620718,0.28737 2.087135,0.802702 0.885003,0.977967 0.980607,3.217016 0.182312,4.261873 -1.661428,2.175002 -5.312724,0.719239 -5.312724,-2.116342 0,-0.859487 0.344393,-1.791088 0.824608,-2.225799 0.549021,-0.496833 1.396259,-0.737467 2.218508,-0.722479 z m -5.524378,5.852748 c 2.533086,0 3.765617,2.686876 2.233095,4.874873 -0.523932,0.747917 -1.16282,1.007063 -2.481224,1.007063 -1.517881,0 -1.870107,-0.197552 -2.481206,-1.379324 -1.204906,-2.330082 0.110171,-4.502685 2.729335,-4.502685 z" />
  </g>
</svg>
