<?xml version="1.0" encoding="UTF-8" standalone="no"?>
<svg
   width="64"
   height="64"
   version="1.1"
   id="svg73"
   sodipodi:docname="preferences-system-windows-behavior.svg"
   inkscape:version="1.4.2 (ebf0e940d0, 2025-05-08)"
   xmlns:inkscape="http://www.inkscape.org/namespaces/inkscape"
   xmlns:sodipodi="http://sodipodi.sourceforge.net/DTD/sodipodi-0.dtd"
   xmlns="http://www.w3.org/2000/svg"
   xmlns:svg="http://www.w3.org/2000/svg"
   xmlns:rdf="http://www.w3.org/1999/02/22-rdf-syntax-ns#"
   xmlns:cc="http://creativecommons.org/ns#"
   xmlns:dc="http://purl.org/dc/elements/1.1/">
  <metadata
     id="metadata77">
    <rdf:RDF>
      <cc:Work
         rdf:about="">
        <dc:format>image/svg+xml</dc:format>
        <dc:type
           rdf:resource="http://purl.org/dc/dcmitype/StillImage" />
      </cc:Work>
    </rdf:RDF>
  </metadata>
  <sodipodi:namedview
     pagecolor="#f5f7fa"
     bordercolor="#666666"
     borderopacity="1"
     objecttolerance="10"
     gridtolerance="10"
     guidetolerance="10"
     inkscape:pageopacity="0"
     inkscape:pageshadow="2"
     inkscape:window-width="1377"
     inkscape:window-height="886"
     id="namedview75"
     showgrid="false"
     inkscape:zoom="6.2890624"
     inkscape:cx="47.622361"
     inkscape:cy="45.396274"
     inkscape:window-x="480"
     inkscape:window-y="75"
     inkscape:window-maximized="0"
     inkscape:current-layer="g877"
     inkscape:document-rotation="0"
     inkscape:pagecheckerboard="0"
     inkscape:showpageshadow="2"
     inkscape:deskcolor="#d1d1d1" />
  <defs
     id="defs29" />
  <circle
     cx="32.516094"
     cy="31.877844"
     r="0"
     fill="url(#b)"
     stroke-width="1.5715"
     id="circle41"
     style="fill:url(#b)" />
  <g
     aria-label="GZ"
     transform="matrix(1.2212657,0,0,0.81882264,0.4960938,-0.1661539)"
     id="text93"
     style="font-weight:bold;font-size:11.5263px;line-height:1.25;font-family:sans-serif;-inkscape-font-specification:'sans-serif Bold';fill:#f2f2f2;stroke-width:0.288159" />
  <g
     id="g877"
     transform="matrix(1.1,0,0,1.1,-3.1845928,-3.2065454)">
    <path
       id="path8-9"
       style="fill:#dfdfdf;fill-opacity:1;stroke:none;stroke-width:0.713538;stroke-dasharray:none;stroke-opacity:0.6"
       d="m 31.977595,7.9603949 c -1.05672,0.00649 -2.130846,0.5450456 -2.884774,1.6327036 l -0.544242,0.7812955 -0.05348,9.866343 -0.05348,9.866344 0.93822,-0.287142 c 1.203804,-0.368082 4.007298,-0.367348 5.208627,0 L 35.5201,30.103742 V 20.541237 10.97539 L 35.009287,9.9536961 C 34.348882,8.6284425 33.175207,7.9532768 31.977592,7.9603949 Z m 20.36038,0 c -0.8868,0.033715 -1.742849,0.455774 -2.427362,1.2353781 -0.89859,1.023469 -1.037152,1.778142 -1.038372,5.692767 -0.001,3.240943 0.0259,3.492073 0.343899,3.395623 2.173417,-0.658521 4.308338,-0.673749 6.283731,-0.0401 l 0.440751,0.143555 v -3.74952 c 0,-4.677456 -0.233283,-5.4053689 -2.00665,-6.3104533 C 53.412275,8.0613782 52.870071,7.9401538 52.337993,7.9603718 Z m -40.994541,0.00352 C 10.691563,7.9882359 10.047201,8.215233 9.4836767,8.6450426 8.4763627,9.4133706 8.026554,10.464358 7.8910428,12.384572 c -0.064603,0.910987 -0.079772,1.657247 -0.03685,1.656079 0.043274,-0.0012 0.5115924,-0.136307 1.0417297,-0.297163 1.2177955,-0.369434 4.0872055,-0.378314 5.2887565,-0.01665 l 0.914849,0.277121 V 12.68172 C 15.099551,10.921724 14.660914,9.7082432 13.720598,8.8587209 13.029659,8.2344962 12.181448,7.9326397 11.343333,7.963905 Z m 0.126898,7.5491701 c -1.8020247,0 -2.0777276,0.05203 -3.2787626,0.621028 -1.8260526,0.865111 -2.9632064,1.978443 -3.8463767,3.766243 -0.7000701,1.417098 -0.7312313,1.574797 -0.7312313,3.462403 0,1.839855 0.041927,2.068776 0.644365,3.29212 1.0752469,2.183805 2.9378783,3.755581 5.1518714,4.35054 0.5913262,0.158877 1.3999872,0.293334 1.7996452,0.30051 2.056257,0.03685 4.502013,-1.007515 5.933163,-2.537537 3.752659,-4.011911 2.593432,-10.153465 -2.377263,-12.600884 -1.235789,-0.608463 -1.462714,-0.654423 -3.295463,-0.654423 z m 41.03461,4.320493 c -1.990279,5.31e-4 -2.253258,0.0464 -3.338868,0.577623 -2.296729,1.12373 -3.989227,3.393559 -4.440694,5.956537 -0.735967,4.178153 2.446056,8.500596 6.654375,9.038312 3.551883,0.453813 6.939097,-1.398851 8.450658,-4.62434 0.469833,-1.00243 0.527615,-1.361935 0.527615,-3.19529 0,-1.931735 -0.04069,-2.14954 -0.63438,-3.355556 -0.775166,-1.574331 -2.355007,-3.128329 -3.929964,-3.866407 -1.012563,-0.474519 -1.352616,-0.531394 -3.288786,-0.53088 z m -20.337003,11.5291 c -1.446283,-0.0142 -2.922833,0.378689 -4.280421,1.191981 -1.311361,0.785568 -2.223014,1.833215 -3.031687,3.475755 -0.578251,1.174518 -0.625339,1.422085 -0.624372,3.238698 9.3e-4,1.738058 0.06359,2.103326 0.544241,3.131855 1.05847,2.264551 2.512025,3.58229 4.824659,4.370566 1.626985,0.55462 3.140129,0.570898 4.804619,0.05622 3.956852,-1.221512 6.371017,-5.447135 5.362215,-9.384912 -0.425343,-1.660225 -1.097797,-2.750147 -2.487482,-4.036746 -1.441828,-1.334888 -3.252305,-2.025141 -5.111805,-2.043399 z m -24.3536663,0.971616 0.06017,10.340453 c 0.065032,11.462256 0.021318,11.072145 1.3789534,12.363814 0.3739758,0.355815 0.9348689,0.729456 1.2487289,0.828046 1.442494,0.453182 3.280638,-0.3732 4.053382,-1.819675 0.44509,-0.833205 0.445287,-0.847064 0.50083,-11.272008 l 0.05666,-10.437295 -0.941559,0.293786 c -1.225406,0.383411 -4.1887066,0.380504 -5.4156224,-0.0034 z M 48.872259,36.77157 v 7.903082 c 0,5.450628 0.06958,8.140744 0.227072,8.667685 0.311489,1.039801 1.278491,2.090976 2.22702,2.424029 0.432021,0.151678 0.965199,0.282343 1.18531,0.287151 0.674927,0.01562 2.098378,-0.834363 2.731175,-1.629369 l 0.601011,-0.754582 0.05327,-8.450675 c 0.05106,-7.872298 0.03329,-8.439363 -0.277162,-8.320439 -0.182907,0.07022 -0.935914,0.230904 -1.672778,0.357248 -1.287339,0.22079 -3.236388,0.07303 -4.63434,-0.350614 z M 28.45179,48.420857 v 2.253723 c 0,3.096088 0.496686,4.202521 2.25707,5.014977 0.96487,0.445189 1.471979,0.459027 2.41066,0.06657 1.852563,-0.774036 2.39149,-1.905054 2.397299,-5.028312 l 0.0035,-2.287116 -0.931543,0.29048 c -1.237005,0.386228 -4.213877,0.381345 -5.302109,-0.01056 z" />
  </g>
</svg>
