<?xml version="1.0" encoding="UTF-8" standalone="no"?>
<svg
   width="64"
   height="64"
   version="1.1"
   id="svg73"
   sodipodi:docname="preferences-system-network-proxy.svg"
   inkscape:version="1.4.2 (ebf0e940d0, 2025-05-08)"
   xmlns:inkscape="http://www.inkscape.org/namespaces/inkscape"
   xmlns:sodipodi="http://sodipodi.sourceforge.net/DTD/sodipodi-0.dtd"
   xmlns="http://www.w3.org/2000/svg"
   xmlns:svg="http://www.w3.org/2000/svg"
   xmlns:rdf="http://www.w3.org/1999/02/22-rdf-syntax-ns#"
   xmlns:cc="http://creativecommons.org/ns#"
   xmlns:dc="http://purl.org/dc/elements/1.1/">
  <metadata
     id="metadata77">
    <rdf:RDF>
      <cc:Work
         rdf:about="">
        <dc:format>image/svg+xml</dc:format>
        <dc:type
           rdf:resource="http://purl.org/dc/dcmitype/StillImage" />
      </cc:Work>
    </rdf:RDF>
  </metadata>
  <sodipodi:namedview
     pagecolor="#f5f7fa"
     bordercolor="#666666"
     borderopacity="1"
     objecttolerance="10"
     gridtolerance="10"
     guidetolerance="10"
     inkscape:pageopacity="0"
     inkscape:pageshadow="2"
     inkscape:window-width="1377"
     inkscape:window-height="886"
     id="namedview75"
     showgrid="false"
     inkscape:zoom="6.2890624"
     inkscape:cx="45.714286"
     inkscape:cy="39.831057"
     inkscape:window-x="0"
     inkscape:window-y="48"
     inkscape:window-maximized="0"
     inkscape:current-layer="g877"
     inkscape:document-rotation="0"
     inkscape:pagecheckerboard="0"
     inkscape:showpageshadow="2"
     inkscape:deskcolor="#d1d1d1" />
  <defs
     id="defs29" />
  <circle
     cx="32.516094"
     cy="31.877844"
     r="0"
     fill="url(#b)"
     stroke-width="1.5715"
     id="circle41"
     style="fill:url(#b)" />
  <g
     aria-label="GZ"
     transform="matrix(1.2212657,0,0,0.81882264,0.4960938,-0.1661539)"
     id="text93"
     style="font-weight:bold;font-size:11.5263px;line-height:1.25;font-family:sans-serif;-inkscape-font-specification:'sans-serif Bold';fill:#f2f2f2;stroke-width:0.288159" />
  <g
     id="g877"
     transform="matrix(1.1,0,0,1.1,-3.1845928,-3.2065454)">
    <path
       d="m 22.015873,12.139666 c -1.024329,0 -1.849059,0.824732 -1.849059,1.849059 v 3.757288 c 0,1.024329 0.82473,1.849058 1.849059,1.849058 h 19.940246 c 1.024324,0 1.849057,-0.824729 1.849057,-1.849058 v -3.757288 c 0,-1.024327 -0.824733,-1.849059 -1.849057,-1.849059 z m 1.68634,2.233661 c 0.04041,-0.008 0.07562,0 0.118326,0 h 4.526496 c 0.341873,0 0.621283,0.264629 0.621283,0.606494 v 1.760306 c 0,0.341873 -0.27941,0.621282 -0.621283,0.621282 h -4.526499 c -0.34187,0 -0.621284,-0.279409 -0.621284,-0.621282 v -1.760306 c 0,-0.299137 0.220437,-0.551167 0.502945,-0.606494 z m -1.68634,8.520465 c -1.024329,0 -1.849059,0.824729 -1.849059,1.84906 v 3.757287 c 0,1.024326 0.82473,1.849053 1.849059,1.849053 h 19.940246 c 1.024324,0 1.849057,-0.824727 1.849057,-1.849053 v -3.757287 c 0,-1.024331 -0.824733,-1.84906 -1.849057,-1.84906 z m 1.68634,2.23366 c 0.04041,-0.008 0.07562,0 0.118326,0 h 4.526496 c 0.341873,0 0.621283,0.264628 0.621283,0.606494 v 1.760302 c 0,0.34187 -0.27941,0.621285 -0.621283,0.621285 h -4.526499 c -0.34187,0 -0.621284,-0.279415 -0.621284,-0.621285 v -1.760302 c 0,-0.299134 0.220437,-0.551165 0.502945,-0.606494 z m -10.14763,2.411175 -9.4080112,4.467324 9.4080112,4.467323 v -2.33721 h 3.712907 c 0.539667,0 0.976304,-0.436631 0.976304,-0.976301 v -2.307625 c 0,-0.539665 -0.436634,-0.976298 -0.976304,-0.976298 h -3.712907 z m 36.862831,0 v 2.337213 h -3.698126 c -0.539649,0 -0.976301,0.436628 -0.976301,0.976298 v 2.307625 c 0,0.539667 0.436652,0.976301 0.976301,0.976301 h 3.698126 v 2.33721 l 9.408002,-4.467323 z M 22.015873,33.66271 c -1.024329,0 -1.849059,0.824729 -1.849059,1.849053 v 3.757288 c 0,1.024332 0.82473,1.849056 1.849059,1.849056 h 19.940246 c 1.024324,0 1.849057,-0.824724 1.849057,-1.849056 v -3.757288 c 0,-1.024324 -0.824733,-1.849053 -1.849057,-1.849053 z m 1.68634,2.233658 c 0.04041,-0.0081 0.07562,0 0.118326,0 h 4.526496 c 0.341873,0 0.621283,0.264627 0.621283,0.606493 v 1.760302 c 0,0.341883 -0.27941,0.621285 -0.621283,0.621285 h -4.526499 c -0.34187,0 -0.621284,-0.279419 -0.621284,-0.621285 v -1.760302 c 0,-0.299133 0.220437,-0.551165 0.502945,-0.606493 z m -1.68634,8.520464 c -1.024329,0 -1.849059,0.824726 -1.849059,1.849052 v 3.757293 c 0,1.024326 0.82473,1.849057 1.849059,1.849057 h 19.940246 c 1.024324,0 1.849057,-0.824731 1.849057,-1.849057 v -3.757293 c 0,-1.024326 -0.824733,-1.849052 -1.849057,-1.849052 z m 1.68634,2.233671 c 0.04041,-0.0076 0.07562,0 0.118326,0 h 4.526496 c 0.341873,0 0.621283,0.264554 0.621283,0.60648 v 1.760305 c 0,0.341903 -0.27941,0.621286 -0.621283,0.621286 h -4.526499 c -0.34187,0 -0.621284,-0.279383 -0.621284,-0.621286 v -1.760305 c 0,-0.299165 0.220437,-0.551165 0.502945,-0.60648 z"
       fill="url(#a)"
       id="path2"
       style="fill:#dfdfdf;fill-opacity:1;stroke-width:0.47336" />
  </g>
</svg>
