<?xml version="1.0" encoding="UTF-8" standalone="no"?>
<svg
   width="64"
   height="64"
   version="1.1"
   id="svg73"
   sodipodi:docname="preferences-plugin.svg"
   inkscape:version="1.4.2 (ebf0e940d0, 2025-05-08)"
   xmlns:inkscape="http://www.inkscape.org/namespaces/inkscape"
   xmlns:sodipodi="http://sodipodi.sourceforge.net/DTD/sodipodi-0.dtd"
   xmlns="http://www.w3.org/2000/svg"
   xmlns:svg="http://www.w3.org/2000/svg"
   xmlns:rdf="http://www.w3.org/1999/02/22-rdf-syntax-ns#"
   xmlns:cc="http://creativecommons.org/ns#"
   xmlns:dc="http://purl.org/dc/elements/1.1/">
  <metadata
     id="metadata77">
    <rdf:RDF>
      <cc:Work
         rdf:about="">
        <dc:format>image/svg+xml</dc:format>
        <dc:type
           rdf:resource="http://purl.org/dc/dcmitype/StillImage" />
      </cc:Work>
    </rdf:RDF>
  </metadata>
  <sodipodi:namedview
     pagecolor="#f5f7fa"
     bordercolor="#666666"
     borderopacity="1"
     objecttolerance="10"
     gridtolerance="10"
     guidetolerance="10"
     inkscape:pageopacity="0"
     inkscape:pageshadow="2"
     inkscape:window-width="1377"
     inkscape:window-height="886"
     id="namedview75"
     showgrid="false"
     inkscape:zoom="6.2890624"
     inkscape:cx="47.622361"
     inkscape:cy="45.396274"
     inkscape:window-x="0"
     inkscape:window-y="48"
     inkscape:window-maximized="0"
     inkscape:current-layer="g877"
     inkscape:document-rotation="0"
     inkscape:pagecheckerboard="0"
     inkscape:showpageshadow="2"
     inkscape:deskcolor="#d1d1d1" />
  <defs
     id="defs29" />
  <circle
     cx="32.516094"
     cy="31.877844"
     r="0"
     fill="url(#b)"
     stroke-width="1.5715"
     id="circle41"
     style="fill:url(#b)" />
  <g
     aria-label="GZ"
     transform="matrix(1.2212657,0,0,0.81882264,0.4960938,-0.1661539)"
     id="text93"
     style="font-weight:bold;font-size:11.5263px;line-height:1.25;font-family:sans-serif;-inkscape-font-specification:'sans-serif Bold';fill:#f2f2f2;stroke-width:0.288159" />
  <g
     id="g877"
     transform="matrix(1.1,0,0,1.1,-3.1845928,-3.2065454)">
    <path
       style="fill:#dfdfdf;fill-opacity:1;stroke:none;stroke-width:0.211096;stroke-dashoffset:2.2;stroke-opacity:0.3"
       d="M 7.3468298,59.031579 C 6.3671388,58.515117 5.7438533,57.877006 5.3182005,56.954744 4.9626385,56.184338 4.9280883,55.449115 4.9238571,48.563649 l -0.00465,-7.546695 0.8971603,0.005 c 0.6061967,0.0033 1.2394696,0.206251 1.9526411,0.625719 3.2153545,1.891143 4.4214585,2.123181 5.9349965,1.141787 1.933579,-1.253757 2.924468,-3.75156 2.787249,-7.026017 -0.127403,-3.04041 -1.217953,-5.159567 -3.172553,-6.164969 -1.377629,-0.708622 -2.541356,-0.462005 -4.8959796,1.037536 -1.2982702,0.826805 -2.3211667,1.170375 -2.9869897,1.003263 L 4.9191959,31.509558 v -5.917164 c 0,-6.423225 0.021083,-6.556894 1.2379014,-7.867687 1.2081899,-1.301437 1.1622111,-1.294436 8.9719417,-1.36618 l 7.148942,-0.06567 -0.08799,-1.216189 c -0.07098,-0.981272 -0.279313,-1.537712 -1.078579,-2.880757 -1.611565,-2.7079912 -1.603611,-3.9419965 0.03597,-5.5816021 1.445272,-1.4452727 2.945159,-1.9852075 5.514709,-1.9852075 2.569549,0 4.069435,0.5399348 5.514707,1.9852075 1.639604,1.6396056 1.647563,2.8736109 0.03601,5.5816021 -0.802935,1.349219 -1.007455,1.897421 -1.079513,2.893658 l -0.0889,1.229087 h 6.108851 c 6.881792,0 7.733403,0.126298 8.857403,1.31357 1.248275,1.318552 1.224871,1.160692 1.338922,9.030158 l 0.105578,7.282831 0.502685,0.07113 c 0.923728,0.130625 1.805885,-0.168015 3.579142,-1.211712 0.967842,-0.569639 2.084237,-1.096597 2.48088,-1.171009 1.497299,-0.280892 3.456587,1.167836 4.327631,3.199904 1.740728,4.060951 0.109186,9.443275 -3.159249,10.422539 -0.794102,0.23788 -0.936944,0.207139 -2.387951,-0.514744 -0.848831,-0.422229 -1.970052,-1.009713 -2.491615,-1.30552 -0.708989,-0.402119 -1.188331,-0.522186 -1.89983,-0.475601 l -0.951576,0.06252 -0.105556,6.755088 c -0.113631,7.272042 -0.135282,7.41313 -1.299296,8.471942 -1.164143,1.058905 -1.568279,1.132949 -6.184146,1.132949 h -4.337906 v -0.808624 c 0,-0.470174 0.232839,-1.243193 0.5564,-1.847101 0.306021,-0.571151 0.828488,-1.55058 1.161031,-2.176477 1.816982,-3.419834 -0.798088,-6.583621 -5.728265,-6.930211 -3.775617,-0.265384 -7.182309,1.693798 -7.536479,4.33432 -0.138534,1.032943 0.151662,1.941798 1.132369,3.546427 0.88045,1.440576 1.356455,2.814768 1.192359,3.442275 -0.1142,0.436721 -0.170263,0.439329 -9.220199,0.430978 -7.8835522,-0.0075 -9.1902785,-0.05337 -9.7385924,-0.342308 z"
       id="path1-7" />
  </g>
</svg>
