<?xml version="1.0" encoding="UTF-8" standalone="no"?>
<svg
   width="64"
   height="64"
   version="1.1"
   id="svg73"
   sodipodi:docname="preferences-system-network-sharing.svg"
   inkscape:version="1.4.2 (ebf0e940d0, 2025-05-08)"
   xmlns:inkscape="http://www.inkscape.org/namespaces/inkscape"
   xmlns:sodipodi="http://sodipodi.sourceforge.net/DTD/sodipodi-0.dtd"
   xmlns="http://www.w3.org/2000/svg"
   xmlns:svg="http://www.w3.org/2000/svg"
   xmlns:rdf="http://www.w3.org/1999/02/22-rdf-syntax-ns#"
   xmlns:cc="http://creativecommons.org/ns#"
   xmlns:dc="http://purl.org/dc/elements/1.1/">
  <metadata
     id="metadata77">
    <rdf:RDF>
      <cc:Work
         rdf:about="">
        <dc:format>image/svg+xml</dc:format>
        <dc:type
           rdf:resource="http://purl.org/dc/dcmitype/StillImage" />
      </cc:Work>
    </rdf:RDF>
  </metadata>
  <sodipodi:namedview
     pagecolor="#f5f7fa"
     bordercolor="#666666"
     borderopacity="1"
     objecttolerance="10"
     gridtolerance="10"
     guidetolerance="10"
     inkscape:pageopacity="0"
     inkscape:pageshadow="2"
     inkscape:window-width="1377"
     inkscape:window-height="886"
     id="namedview75"
     showgrid="false"
     inkscape:zoom="6.2890624"
     inkscape:cx="45.714286"
     inkscape:cy="39.513044"
     inkscape:window-x="0"
     inkscape:window-y="48"
     inkscape:window-maximized="0"
     inkscape:current-layer="g877"
     inkscape:document-rotation="0"
     inkscape:pagecheckerboard="0"
     inkscape:showpageshadow="2"
     inkscape:deskcolor="#d1d1d1" />
  <defs
     id="defs29" />
  <circle
     cx="32.516094"
     cy="31.877844"
     r="0"
     fill="url(#b)"
     stroke-width="1.5715"
     id="circle41"
     style="fill:url(#b)" />
  <g
     aria-label="GZ"
     transform="matrix(1.2212657,0,0,0.81882264,0.4960938,-0.1661539)"
     id="text93"
     style="font-weight:bold;font-size:11.5263px;line-height:1.25;font-family:sans-serif;-inkscape-font-specification:'sans-serif Bold';fill:#f2f2f2;stroke-width:0.288159" />
  <g
     id="g877"
     transform="matrix(1.1,0,0,1.1,-3.1845928,-3.2065454)">
    <path
       style="fill:#dfdfdf;fill-opacity:1;stroke-width:4.93366"
       d="m 46.320238,5.0580818 a 9.867416,9.8674155 0 0 0 -8.079941,4.9240883 9.867416,9.8674155 0 0 0 -0.953993,7.5692949 l -13.061743,7.545119 a 9.867416,9.8674155 0 0 0 -7.040397,-2.957762 9.867416,9.8674155 0 0 0 -9.8674199,9.867419 9.867416,9.8674155 0 0 0 9.8674199,9.867397 9.867416,9.8674155 0 0 0 7.034481,-2.958237 l 13.061749,7.54512 a 9.867416,9.8674155 0 0 0 0.957148,7.568308 9.867416,9.8674155 0 0 0 13.481369,3.613943 9.867416,9.8674155 0 0 0 3.613943,-13.481357 9.867416,9.8674155 0 0 0 -13.481375,-3.609012 9.867416,9.8674155 0 0 0 -2.106697,1.633055 L 26.680317,34.644299 A 9.867416,9.8674155 0 0 0 27.050339,32.00476 9.867416,9.8674155 0 0 0 26.690176,29.365229 L 39.75193,21.825042 A 9.867416,9.8674155 0 0 0 41.851229,23.458096 9.867416,9.8674155 0 0 0 55.33258,19.849093 9.867416,9.8674155 0 0 0 51.718652,6.3677377 9.867416,9.8674155 0 0 0 46.318715,5.0578382 Z"
       id="path4" />
  </g>
</svg>
