<?xml version="1.0" encoding="UTF-8" standalone="no"?>
<svg
   width="64"
   height="64"
   version="1.1"
   id="svg73"
   sodipodi:docname="preferences-git.svg"
   inkscape:version="1.4.2 (ebf0e940d0, 2025-05-08)"
   xmlns:inkscape="http://www.inkscape.org/namespaces/inkscape"
   xmlns:sodipodi="http://sodipodi.sourceforge.net/DTD/sodipodi-0.dtd"
   xmlns="http://www.w3.org/2000/svg"
   xmlns:svg="http://www.w3.org/2000/svg"
   xmlns:rdf="http://www.w3.org/1999/02/22-rdf-syntax-ns#"
   xmlns:cc="http://creativecommons.org/ns#"
   xmlns:dc="http://purl.org/dc/elements/1.1/">
  <metadata
     id="metadata77">
    <rdf:RDF>
      <cc:Work
         rdf:about="">
        <dc:format>image/svg+xml</dc:format>
        <dc:type
           rdf:resource="http://purl.org/dc/dcmitype/StillImage" />
      </cc:Work>
    </rdf:RDF>
  </metadata>
  <sodipodi:namedview
     pagecolor="#f5f7fa"
     bordercolor="#666666"
     borderopacity="1"
     objecttolerance="10"
     gridtolerance="10"
     guidetolerance="10"
     inkscape:pageopacity="0"
     inkscape:pageshadow="2"
     inkscape:window-width="1377"
     inkscape:window-height="886"
     id="namedview75"
     showgrid="false"
     inkscape:zoom="6.2890624"
     inkscape:cx="47.622361"
     inkscape:cy="45.396274"
     inkscape:window-x="0"
     inkscape:window-y="48"
     inkscape:window-maximized="0"
     inkscape:current-layer="g877"
     inkscape:document-rotation="0"
     inkscape:pagecheckerboard="0"
     inkscape:showpageshadow="2"
     inkscape:deskcolor="#d1d1d1" />
  <defs
     id="defs29" />
  <circle
     cx="32.516094"
     cy="31.877844"
     r="0"
     fill="url(#b)"
     stroke-width="1.5715"
     id="circle41"
     style="fill:url(#b)" />
  <g
     aria-label="GZ"
     transform="matrix(1.2212657,0,0,0.81882264,0.4960938,-0.1661539)"
     id="text93"
     style="font-weight:bold;font-size:11.5263px;line-height:1.25;font-family:sans-serif;-inkscape-font-specification:'sans-serif Bold';fill:#f2f2f2;stroke-width:0.288159" />
  <g
     id="g877"
     transform="matrix(1.1,0,0,1.1,-3.1845928,-3.2065454)">
    <path
       d="m 31.990902,5.0589496 c -0.8684,0 -1.723645,0.3289725 -2.381534,0.9868072 L 24.267334,11.38783 41.911809,29.019176 c 0.592205,-0.25017 1.22375,-0.381579 1.868394,-0.381579 2.789425,0 5.052565,2.263106 5.052565,5.052553 0,2.789422 -2.26314,5.052563 -5.052565,5.052563 -2.789436,0 -5.052548,-2.263141 -5.052548,-5.052563 0,-0.618322 0.118847,-1.223724 0.342044,-1.789434 l -6.907732,-6.907831 v 14.105064 c 1.934165,0.763164 3.197304,2.618368 3.197304,4.697277 0,2.78945 -2.263112,5.052556 -5.052551,5.052556 -2.789447,0 -5.052554,-2.263106 -5.052554,-5.052556 0,-2.210487 1.43419,-4.15783 3.53942,-4.815718 V 21.624533 L 21.412119,14.243039 6.0307597,29.624377 c -1.3157708,1.315839 -1.3157708,3.44734 0,4.763096 L 29.609368,57.966081 c 1.315828,1.315828 3.44731,1.315828 4.763083,0 L 57.951069,34.387473 c 1.302648,-1.31569 1.302648,-3.447313 0,-4.763096 L 34.372451,6.0457822 C 33.71468,5.3878326 32.859306,5.0589723 31.990902,5.0589723 Z m 0,0"
       id="path1-7"
       style="fill:#dfdfdf;fill-opacity:1;stroke:none;stroke-width:3.40241;stroke-dasharray:none;stroke-opacity:0.3" />
  </g>
</svg>
