<?xml version="1.0" encoding="UTF-8" standalone="no"?>
<svg
   width="64"
   height="64"
   version="1.1"
   id="svg73"
   sodipodi:docname="preferences-desktop-theme-global.svg"
   inkscape:version="1.4.2 (ebf0e940d0, 2025-05-08)"
   xmlns:inkscape="http://www.inkscape.org/namespaces/inkscape"
   xmlns:sodipodi="http://sodipodi.sourceforge.net/DTD/sodipodi-0.dtd"
   xmlns="http://www.w3.org/2000/svg"
   xmlns:svg="http://www.w3.org/2000/svg"
   xmlns:rdf="http://www.w3.org/1999/02/22-rdf-syntax-ns#"
   xmlns:cc="http://creativecommons.org/ns#"
   xmlns:dc="http://purl.org/dc/elements/1.1/">
  <metadata
     id="metadata77">
    <rdf:RDF>
      <cc:Work
         rdf:about="">
        <dc:format>image/svg+xml</dc:format>
        <dc:type
           rdf:resource="http://purl.org/dc/dcmitype/StillImage" />
      </cc:Work>
    </rdf:RDF>
  </metadata>
  <sodipodi:namedview
     pagecolor="#f5f7fa"
     bordercolor="#666666"
     borderopacity="1"
     objecttolerance="10"
     gridtolerance="10"
     guidetolerance="10"
     inkscape:pageopacity="0"
     inkscape:pageshadow="2"
     inkscape:window-width="1377"
     inkscape:window-height="886"
     id="namedview75"
     showgrid="false"
     inkscape:zoom="6.2890624"
     inkscape:cx="47.622361"
     inkscape:cy="45.396274"
     inkscape:window-x="0"
     inkscape:window-y="48"
     inkscape:window-maximized="0"
     inkscape:current-layer="g877"
     inkscape:document-rotation="0"
     inkscape:pagecheckerboard="0"
     inkscape:showpageshadow="2"
     inkscape:deskcolor="#d1d1d1" />
  <defs
     id="defs29" />
  <circle
     cx="32.516094"
     cy="31.877844"
     r="0"
     fill="url(#b)"
     stroke-width="1.5715"
     id="circle41"
     style="fill:url(#b)" />
  <g
     aria-label="GZ"
     transform="matrix(1.2212657,0,0,0.81882264,0.4960938,-0.1661539)"
     id="text93"
     style="font-weight:bold;font-size:11.5263px;line-height:1.25;font-family:sans-serif;-inkscape-font-specification:'sans-serif Bold';fill:#f2f2f2;stroke-width:0.288159" />
  <g
     id="g877"
     transform="matrix(1.1,0,0,1.1,-3.1845928,-3.2065454)">
    <path
       d="m 6.9275999,5.0891471 v 0.013616 10.7664899 10.766497 10.766495 3.566228 7.200282 1.776344 1.789863 a 6.6872879,7.1867048 0 0 0 6.6746751,7.173198 h -1.753838 l 0.113522,0.01465 h 5.009154 10.018314 10.018311 10.018353 10.018292 V 48.155843 H 47.026089 37.007765 30.648533 l 5.513855,-3.417104 8.668239,-5.38353 8.680866,-5.383248 -5.00916,-9.315595 -8.68087,5.38325 -8.668226,5.38325 -5.488631,3.403508 3.167008,-5.898518 5.009152,-9.315594 5.009157,-9.329159 -8.706093,-5.3967975 -5.009157,9.3291505 -5.009157,9.315592 -3.179612,5.925644 V 26.622525 15.856035 5.0895358 Z M 13.602275,48.141572 c 0.883223,0 1.728603,0.379718 2.359476,1.044109 0.630874,0.664398 0.971546,1.586478 0.971546,2.535667 0,0.949201 -0.353292,1.857698 -0.971546,2.535702 -0.618267,0.677932 -1.476253,1.044104 -2.359476,1.044104 -0.883225,0 -1.728604,-0.379723 -2.35948,-1.044104 -0.630875,-0.664399 -0.971547,-1.586501 -0.971547,-2.535702 0,-0.949189 0.353295,-1.857675 0.971547,-2.535667 0.618255,-0.677929 1.476255,-1.044109 2.35948,-1.044109 z"
       fill="#bebebe"
       id="path2-3"
       style="fill:#dfdfdf;fill-opacity:1;stroke:none;stroke-width:1.69927;stroke-dasharray:none;stroke-opacity:0.3" />
  </g>
</svg>
