<?xml version="1.0" encoding="UTF-8" standalone="no"?>
<svg
   width="64"
   height="64"
   version="1.1"
   id="svg73"
   sodipodi:docname="preferences-gtk-config.svg"
   inkscape:version="1.4.2 (ebf0e940d0, 2025-05-08)"
   xmlns:inkscape="http://www.inkscape.org/namespaces/inkscape"
   xmlns:sodipodi="http://sodipodi.sourceforge.net/DTD/sodipodi-0.dtd"
   xmlns="http://www.w3.org/2000/svg"
   xmlns:svg="http://www.w3.org/2000/svg"
   xmlns:rdf="http://www.w3.org/1999/02/22-rdf-syntax-ns#"
   xmlns:cc="http://creativecommons.org/ns#"
   xmlns:dc="http://purl.org/dc/elements/1.1/">
  <metadata
     id="metadata77">
    <rdf:RDF>
      <cc:Work
         rdf:about="">
        <dc:format>image/svg+xml</dc:format>
        <dc:type
           rdf:resource="http://purl.org/dc/dcmitype/StillImage" />
      </cc:Work>
    </rdf:RDF>
  </metadata>
  <sodipodi:namedview
     pagecolor="#f5f7fa"
     bordercolor="#666666"
     borderopacity="1"
     objecttolerance="10"
     gridtolerance="10"
     guidetolerance="10"
     inkscape:pageopacity="0"
     inkscape:pageshadow="2"
     inkscape:window-width="1377"
     inkscape:window-height="886"
     id="namedview75"
     showgrid="false"
     inkscape:zoom="6.2890624"
     inkscape:cx="46.191305"
     inkscape:cy="39.036025"
     inkscape:window-x="62"
     inkscape:window-y="75"
     inkscape:window-maximized="0"
     inkscape:current-layer="g877"
     inkscape:document-rotation="0"
     inkscape:pagecheckerboard="0"
     inkscape:showpageshadow="2"
     inkscape:deskcolor="#d1d1d1" />
  <defs
     id="defs29" />
  <circle
     cx="32.516094"
     cy="31.877844"
     r="0"
     fill="url(#b)"
     stroke-width="1.5715"
     id="circle41"
     style="fill:url(#b)" />
  <g
     aria-label="GZ"
     transform="matrix(1.2212657,0,0,0.81882264,0.4960938,-0.1661539)"
     id="text93"
     style="font-weight:bold;font-size:11.5263px;line-height:1.25;font-family:sans-serif;-inkscape-font-specification:'sans-serif Bold';fill:#f2f2f2;stroke-width:0.288159" />
  <g
     id="g877"
     transform="matrix(1.1,0,0,1.1,-3.1845928,-3.2065454)">
    <path
       id="path15571"
       style="fill:#dfdfdf;fill-opacity:1;stroke:none;stroke-width:1.72678;stroke-dasharray:none;stroke-opacity:1"
       d="m 50.185598,3.9765768 c -3.689712,0.065551 -7.24824,2.3585081 -8.998066,5.9998338 -2.049082,4.2640724 -1.719533,8.7330384 0.738595,10.0469464 0.696682,0.372386 1.047137,0.445516 1.740258,0.354122 3.398534,-0.448117 8.226254,-4.86681 10.441533,-9.557919 0.657539,-1.3922969 0.718284,-1.6681274 0.721762,-3.2343067 L 54.83628,5.8719695 54.043719,5.1333782 C 53.477701,4.6050816 52.958664,4.3305509 52.236001,4.1755587 51.554265,4.029339 50.868739,3.964442 50.185451,3.9765888 Z M 32.729075,6.6038235 c -2.61252,0.061637 -4.186088,1.986707 -4.354011,5.3253185 -0.04587,0.912836 0.01612,2.139384 0.138283,2.728423 0.310205,1.494234 1.204989,3.295443 1.945991,3.91895 1.270953,1.069442 2.515584,0.414593 3.777297,-1.986458 1.458296,-2.775146 1.934172,-6.6049102 1.038756,-8.3572751 C 34.650126,7.0090936 33.969794,6.57455 32.729091,6.6038235 Z M 20.908149,9.150128 c -0.351516,-0.00704 -0.729913,0.052228 -1.133191,0.1720015 -2.203523,0.6543702 -3.356005,2.6332335 -2.944272,5.0555125 0.392533,2.309359 2.218084,5.09815 3.797538,5.804223 0.341778,0.152774 0.883667,0.234757 1.204018,0.182109 2.246186,-0.369031 3.194562,-6.177269 1.54127,-9.439884 -0.588393,-1.1611245 -1.41082,-1.7531192 -2.465363,-1.7739763 z m -8.404493,8.987952 c -1.109401,-0.004 -2.29567,0.563791 -2.964511,1.548017 -0.3837251,0.564704 -0.4459147,0.860961 -0.3810928,1.787473 0.062953,0.900612 0.2193851,1.318069 0.83303,2.209044 0.8386858,1.217745 2.3438138,2.453869 3.5074928,2.880197 0.418143,0.153192 0.91741,0.285813 1.109583,0.293419 0.638159,0.025 1.450345,-0.548579 1.669425,-1.177036 0.757323,-2.172451 -0.51958,-6.038678 -2.364185,-7.163384 -0.416628,-0.25403 -0.905469,-0.375848 -1.409742,-0.37773 z m 22.963966,5.07912 c -3.775266,0.05913 -8.011195,0.987502 -11.6152,2.768896 -6.55175,3.238411 -10.023136,8.302965 -9.632119,14.050192 0.165499,2.432721 0.757937,4.469135 2.067399,7.119542 3.227542,6.532727 9.233626,11.499021 15.362148,12.701169 1.340488,0.262881 3.669091,0.232991 4.772217,-0.06069 4.992425,-1.32925 9.610809,-6.225721 10.748441,-11.395971 0.208421,-0.947461 0.196446,-1.174428 -0.0944,-1.787476 -0.954435,-2.011379 -5.905299,-2.258182 -9.298224,-0.465469 -1.496406,0.790662 -1.764116,1.23208 -1.790846,2.944281 -0.037,2.371473 -0.908699,3.447806 -2.779016,3.433285 -1.907671,-0.0153 -3.960966,-1.164378 -4.660951,-2.610349 -0.837739,-1.730534 -0.35368,-3.308624 1.551393,-5.072374 0.635222,-0.588111 3.326561,-2.505852 5.979599,-4.262964 5.877677,-3.892777 7.955896,-5.730185 9.09925,-8.04361 0.660057,-1.335557 0.728201,-1.616957 0.725094,-3.035332 -0.0038,-1.800973 -0.354661,-2.652436 -1.581739,-3.834637 -1.761727,-1.69731 -5.077772,-2.507659 -8.853046,-2.448504 z" />
  </g>
</svg>
