<?xml version="1.0" encoding="UTF-8" standalone="no"?>
<svg
   width="64"
   height="64"
   version="1.1"
   id="svg73"
   sodipodi:docname="preferences-devices-tree.svg"
   inkscape:version="1.4.2 (ebf0e940d0, 2025-05-08)"
   xmlns:inkscape="http://www.inkscape.org/namespaces/inkscape"
   xmlns:sodipodi="http://sodipodi.sourceforge.net/DTD/sodipodi-0.dtd"
   xmlns="http://www.w3.org/2000/svg"
   xmlns:svg="http://www.w3.org/2000/svg"
   xmlns:rdf="http://www.w3.org/1999/02/22-rdf-syntax-ns#"
   xmlns:cc="http://creativecommons.org/ns#"
   xmlns:dc="http://purl.org/dc/elements/1.1/">
  <metadata
     id="metadata77">
    <rdf:RDF>
      <cc:Work
         rdf:about="">
        <dc:format>image/svg+xml</dc:format>
        <dc:type
           rdf:resource="http://purl.org/dc/dcmitype/StillImage" />
      </cc:Work>
    </rdf:RDF>
  </metadata>
  <sodipodi:namedview
     pagecolor="#f5f7fa"
     bordercolor="#666666"
     borderopacity="1"
     objecttolerance="10"
     gridtolerance="10"
     guidetolerance="10"
     inkscape:pageopacity="0"
     inkscape:pageshadow="2"
     inkscape:window-width="1377"
     inkscape:window-height="886"
     id="namedview75"
     showgrid="false"
     inkscape:zoom="6.2890624"
     inkscape:cx="47.622361"
     inkscape:cy="45.396274"
     inkscape:window-x="0"
     inkscape:window-y="48"
     inkscape:window-maximized="0"
     inkscape:current-layer="g877"
     inkscape:document-rotation="0"
     inkscape:pagecheckerboard="0"
     inkscape:showpageshadow="2"
     inkscape:deskcolor="#d1d1d1" />
  <defs
     id="defs29" />
  <circle
     cx="32.516094"
     cy="31.877844"
     r="0"
     fill="url(#b)"
     stroke-width="1.5715"
     id="circle41"
     style="fill:url(#b)" />
  <g
     aria-label="GZ"
     transform="matrix(1.2212657,0,0,0.81882264,0.4960938,-0.1661539)"
     id="text93"
     style="font-weight:bold;font-size:11.5263px;line-height:1.25;font-family:sans-serif;-inkscape-font-specification:'sans-serif Bold';fill:#f2f2f2;stroke-width:0.288159" />
  <g
     id="g877"
     transform="matrix(1.1,0,0,1.1,-3.1845928,-3.2065454)">
    <g
       id="g7"
       transform="matrix(7.2589641,0,0,7.2589641,-29.186344,-29.533859)"
       style="fill:#dfdfdf;fill-opacity:1">
      <path
         style="fill:#dfdfdf;fill-opacity:1;stroke:none;stroke-width:0.264578;stroke-linecap:round;stroke-linejoin:round;stroke-dasharray:none;stroke-opacity:0.3"
         d="m 7.4949132,4.7269173 c -0.1032909,0 -0.1864458,0.08316 -0.1864458,0.1864501 v 1.8644554 c 0,0.1032931 0.083155,0.1864436 0.1864458,0.1864436 h 1.8644585 c 0.1032909,0 0.1864458,-0.08315 0.1864458,-0.1864436 V 4.9133674 c 0,-0.1032905 -0.083155,-0.1864501 -0.1864458,-0.1864501 z"
         id="path8" />
      <path
         style="fill:#dfdfdf;fill-opacity:1;stroke:none;stroke-width:0.264578;stroke-linecap:round;stroke-linejoin:round;stroke-dasharray:none;stroke-opacity:0.3"
         d="m 6.2188269,7.3590927 c -0.1032909,0 -0.1864457,0.083152 -0.1864457,0.1864435 v 1.864462 c 0,0.1032918 0.083155,0.1864436 0.1864457,0.1864436 h 1.8644572 c 0.1032911,0 0.1864458,-0.083152 0.1864458,-0.1864436 v -1.864462 c 0,-0.1032918 -0.083155,-0.1864435 -0.1864458,-0.1864435 z"
         id="path12-8" />
      <path
         style="fill:#dfdfdf;fill-opacity:1;stroke:none;stroke-width:0.264578;stroke-linecap:round;stroke-linejoin:round;stroke-dasharray:none;stroke-opacity:0.3"
         d="m 8.851002,7.3590927 c -0.1032908,0 -0.1864458,0.083152 -0.1864458,0.1864435 v 1.864462 c 0,0.1032918 0.083155,0.1864436 0.1864458,0.1864436 h 1.864457 c 0.103291,0 0.186445,-0.083152 0.186445,-0.1864436 v -1.864462 c 0,-0.1032918 -0.08315,-0.1864435 -0.186445,-0.1864435 z"
         id="path14" />
      <path
         style="fill:#dfdfdf;fill-opacity:1;stroke:none;stroke-width:0.264578;stroke-linecap:round;stroke-linejoin:round;stroke-dasharray:none;stroke-opacity:0.3"
         d="m 4.8627382,9.9912681 c -0.103291,0 -0.1864458,0.08315 -0.1864458,0.1864439 v 1.864455 c 0,0.103292 0.083155,0.18645 0.1864458,0.18645 h 1.8644585 c 0.1032909,0 0.1864458,-0.08316 0.1864458,-0.18645 v -1.864455 c 0,-0.103294 -0.083155,-0.1864439 -0.1864458,-0.1864439 z"
         id="path18" />
      <path
         style="fill:#dfdfdf;fill-opacity:1;stroke:none;stroke-width:0.264578;stroke-linecap:round;stroke-linejoin:round;stroke-dasharray:none;stroke-opacity:0.3"
         d="m 7.4949148,9.9912681 c -0.1032907,0 -0.1864458,0.08315 -0.1864458,0.1864439 v 1.864455 c 0,0.103292 0.083155,0.18645 0.1864458,0.18645 h 1.8644586 c 0.1032909,0 0.1864456,-0.08316 0.1864456,-0.18645 v -1.864455 c 0,-0.103294 -0.083155,-0.1864439 -0.1864456,-0.1864439 z"
         id="path20-3" />
      <path
         style="fill:#dfdfdf;fill-opacity:1;stroke:none;stroke-width:0.264578;stroke-linecap:round;stroke-linejoin:round;stroke-dasharray:none;stroke-opacity:0.3"
         d="m 10.127092,9.9912681 c -0.103291,0 -0.186446,0.08315 -0.186446,0.1864439 v 1.864455 c 0,0.103292 0.083155,0.18645 0.186446,0.18645 h 1.864458 c 0.103291,0 0.186446,-0.08316 0.186446,-0.18645 v -1.864455 c 0,-0.103294 -0.08315,-0.1864439 -0.186446,-0.1864439 z"
         id="path22" />
    </g>
  </g>
</svg>
