<?xml version="1.0" encoding="UTF-8" standalone="no"?>
<svg
   width="64"
   height="64"
   version="1.1"
   id="svg73"
   sodipodi:docname="preferences-desktop-feedback.svg"
   inkscape:version="1.4.2 (ebf0e940d0, 2025-05-08)"
   xmlns:inkscape="http://www.inkscape.org/namespaces/inkscape"
   xmlns:sodipodi="http://sodipodi.sourceforge.net/DTD/sodipodi-0.dtd"
   xmlns="http://www.w3.org/2000/svg"
   xmlns:svg="http://www.w3.org/2000/svg"
   xmlns:rdf="http://www.w3.org/1999/02/22-rdf-syntax-ns#"
   xmlns:cc="http://creativecommons.org/ns#"
   xmlns:dc="http://purl.org/dc/elements/1.1/">
  <metadata
     id="metadata77">
    <rdf:RDF>
      <cc:Work
         rdf:about="">
        <dc:format>image/svg+xml</dc:format>
        <dc:type
           rdf:resource="http://purl.org/dc/dcmitype/StillImage" />
      </cc:Work>
    </rdf:RDF>
  </metadata>
  <sodipodi:namedview
     pagecolor="#f5f7fa"
     bordercolor="#666666"
     borderopacity="1"
     objecttolerance="10"
     gridtolerance="10"
     guidetolerance="10"
     inkscape:pageopacity="0"
     inkscape:pageshadow="2"
     inkscape:window-width="1377"
     inkscape:window-height="886"
     id="namedview75"
     showgrid="false"
     inkscape:zoom="6.2890624"
     inkscape:cx="47.145342"
     inkscape:cy="40.467081"
     inkscape:window-x="62"
     inkscape:window-y="75"
     inkscape:window-maximized="0"
     inkscape:current-layer="g877"
     inkscape:document-rotation="0"
     inkscape:pagecheckerboard="0"
     inkscape:showpageshadow="2"
     inkscape:deskcolor="#d1d1d1" />
  <defs
     id="defs29" />
  <circle
     cx="32.516094"
     cy="31.877844"
     r="0"
     fill="url(#b)"
     stroke-width="1.5715"
     id="circle41"
     style="fill:url(#b)" />
  <g
     aria-label="GZ"
     transform="matrix(1.2212657,0,0,0.81882264,0.4960938,-0.1661539)"
     id="text93"
     style="font-weight:bold;font-size:11.5263px;line-height:1.25;font-family:sans-serif;-inkscape-font-specification:'sans-serif Bold';fill:#f2f2f2;stroke-width:0.288159" />
  <g
     id="g877"
     transform="matrix(1.1,0,0,1.1,-3.1845928,-3.2065454)">
    <path
       style="fill:#dfdfdf;fill-opacity:1;stroke:none;stroke-width:1.74596;stroke-dasharray:none;stroke-dashoffset:2.2;stroke-opacity:0.3"
       d="m 11.106054,54.256668 c -0.217117,-0.170742 -0.438658,-0.510364 -0.492316,-0.754652 -0.08681,-0.395398 1.494897,-8.432119 1.699932,-8.637141 0.03923,-0.03868 -0.678417,-0.841017 -1.594716,-1.781791 C 7.0822415,39.349216 5.3510235,35.585932 5.1755299,31.032926 5.0536635,27.871543 5.5385138,25.64307 6.9885718,22.699476 9.7926076,17.00733 16.063489,12.369321 23.573564,10.433034 c 2.914196,-0.7513521 4.910868,-0.9859843 8.41061,-0.9883449 3.160788,-0.00165 4.9267,0.1794782 7.561832,0.7776289 6.91456,1.569566 12.999195,5.516258 16.32127,10.586502 6.746964,10.297441 1.518615,22.903608 -11.691575,28.189755 -4.003447,1.602006 -7.467649,2.2379 -12.191527,2.2379 -3.416598,0 -5.40012,-0.223948 -8.139886,-0.91892 -0.824026,-0.209026 -1.59198,-0.380027 -1.706568,-0.380027 -0.114612,0 -2.331773,1.041683 -4.927076,2.314851 -3.105182,1.523288 -4.888183,2.314848 -5.214278,2.314848 -0.272543,0 -0.673183,-0.139646 -0.890312,-0.310519 z M 47.270709,41.136506 c 1.11415,-0.59627 0.937865,-3.097018 -0.25018,-3.548701 -0.537469,-0.204353 -29.072315,-0.204353 -29.609802,0 -1.120262,0.425927 -1.358524,2.43636 -0.402089,3.392799 0.312492,0.312502 0.423833,0.314782 15.139973,0.314782 9.872876,0 14.924345,-0.05294 15.122061,-0.158862 z m 0.181957,-9.550795 c 0.473584,-0.423193 0.503982,-0.512249 0.503982,-1.478728 0,-0.966478 -0.03073,-1.055538 -0.503982,-1.478726 L 46.948665,28.177943 H 32.215661 17.48267 l -0.503982,0.450314 c -0.473639,0.42319 -0.503984,0.512248 -0.503984,1.478726 0,0.966479 0.0304,1.055542 0.503984,1.478728 l 0.503982,0.450313 h 14.732991 14.732983 z m -0.432088,-8.95955 c 1.209192,-0.459738 1.363082,-2.631622 0.248642,-3.50979 -0.183642,-0.144756 -3.649517,-0.189123 -15.063068,-0.192902 l -14.824435,-0.0048 -0.3472,0.323462 c -0.962843,0.897027 -0.764357,2.936444 0.328559,3.375838 0.483149,0.194255 29.147349,0.202267 29.657524,0.0084 z"
       id="path39" />
  </g>
</svg>
