<?xml version="1.0" encoding="UTF-8" standalone="no"?>
<svg
   width="64"
   height="64"
   version="1.1"
   id="svg73"
   sodipodi:docname="preferences-security-firewall.svg"
   inkscape:version="1.4.2 (ebf0e940d0, 2025-05-08)"
   xmlns:inkscape="http://www.inkscape.org/namespaces/inkscape"
   xmlns:sodipodi="http://sodipodi.sourceforge.net/DTD/sodipodi-0.dtd"
   xmlns="http://www.w3.org/2000/svg"
   xmlns:svg="http://www.w3.org/2000/svg"
   xmlns:rdf="http://www.w3.org/1999/02/22-rdf-syntax-ns#"
   xmlns:cc="http://creativecommons.org/ns#"
   xmlns:dc="http://purl.org/dc/elements/1.1/">
  <metadata
     id="metadata77">
    <rdf:RDF>
      <cc:Work
         rdf:about="">
        <dc:format>image/svg+xml</dc:format>
        <dc:type
           rdf:resource="http://purl.org/dc/dcmitype/StillImage" />
      </cc:Work>
    </rdf:RDF>
  </metadata>
  <sodipodi:namedview
     pagecolor="#f5f7fa"
     bordercolor="#666666"
     borderopacity="1"
     objecttolerance="10"
     gridtolerance="10"
     guidetolerance="10"
     inkscape:pageopacity="0"
     inkscape:pageshadow="2"
     inkscape:window-width="1377"
     inkscape:window-height="886"
     id="namedview75"
     showgrid="false"
     inkscape:zoom="6.2890624"
     inkscape:cx="46.668324"
     inkscape:cy="41.739131"
     inkscape:window-x="0"
     inkscape:window-y="48"
     inkscape:window-maximized="0"
     inkscape:current-layer="g877"
     inkscape:document-rotation="0"
     inkscape:pagecheckerboard="0"
     inkscape:showpageshadow="2"
     inkscape:deskcolor="#d1d1d1" />
  <defs
     id="defs29" />
  <circle
     cx="32.516094"
     cy="31.877844"
     r="0"
     fill="url(#b)"
     stroke-width="1.5715"
     id="circle41"
     style="fill:url(#b)" />
  <g
     aria-label="GZ"
     transform="matrix(1.2212657,0,0,0.81882264,0.4960938,-0.1661539)"
     id="text93"
     style="font-weight:bold;font-size:11.5263px;line-height:1.25;font-family:sans-serif;-inkscape-font-specification:'sans-serif Bold';fill:#f2f2f2;stroke-width:0.288159" />
  <g
     id="g877"
     transform="matrix(1.1,0,0,1.1,-3.1845928,-3.2065454)">
    <path
       style="fill:#dfdfdf;fill-opacity:1;stroke:none;stroke-width:1.67078;stroke-dasharray:none;stroke-dashoffset:2.2;stroke-opacity:0.3"
       d="M 31.076268,60.268323 C 28.475162,59.297449 24.749664,56.973222 22.255036,54.765047 13.824261,47.302311 9.0807171,33.096752 9.4789699,16.504384 9.5871879,11.994729 9.7555836,11.098271 10.576944,10.658693 11.652465,10.083092 31.38658,3.5568725 32.032139,3.5632986 c 0.403322,0.00413 5.219774,1.5328288 11.076559,3.5158661 12.205128,4.1325093 11.108726,3.4566673 11.330266,6.9841933 0.210427,3.35066 -0.03026,10.454716 -0.463753,13.672983 -0.932146,6.924546 -2.408396,12.037824 -4.958738,17.175574 -3.282124,6.611951 -7.872037,11.316862 -13.95659,14.306272 -2.680994,1.317202 -3.025085,1.407914 -3.983626,1.050136 z M 34.183692,38.05479 c 3.442746,-4.721006 6.405896,-8.89055 6.584762,-9.265655 0.479663,-1.005846 0.425473,-2.121435 -0.130012,-2.67693 -0.684146,-0.684153 -1.669743,-0.868393 -4.651681,-0.869573 l -2.708119,-0.0011 1.437154,-3.886095 c 1.708852,-4.620764 1.833863,-5.281131 1.132522,-5.982468 -0.482891,-0.482897 -0.555059,-0.494358 -3.112781,-0.494358 -2.936229,0 -3.608944,0.188495 -4.407069,1.234899 -0.619181,0.811787 -5.082024,13.919094 -5.082024,14.925834 0,0.580268 0.130705,0.887194 0.560962,1.31747 l 0.560956,0.560958 h 2.483368 2.483364 l -1.130499,6.660617 c -0.621773,3.663339 -1.085224,6.778606 -1.029891,6.922794 0.05536,0.144199 0.246594,0.234119 0.425036,0.199676 0.178428,-0.03391 3.141218,-3.925122 6.583965,-8.646119 z"
       id="path83" />
  </g>
</svg>
