<?xml version="1.0" encoding="UTF-8" standalone="no"?>
<svg
   width="64"
   height="64"
   version="1.1"
   id="svg73"
   sodipodi:docname="preferences-desktop-filetype-association.svg"
   inkscape:version="1.4.2 (ebf0e940d0, 2025-05-08)"
   xmlns:inkscape="http://www.inkscape.org/namespaces/inkscape"
   xmlns:sodipodi="http://sodipodi.sourceforge.net/DTD/sodipodi-0.dtd"
   xmlns="http://www.w3.org/2000/svg"
   xmlns:svg="http://www.w3.org/2000/svg"
   xmlns:rdf="http://www.w3.org/1999/02/22-rdf-syntax-ns#"
   xmlns:cc="http://creativecommons.org/ns#"
   xmlns:dc="http://purl.org/dc/elements/1.1/">
  <metadata
     id="metadata77">
    <rdf:RDF>
      <cc:Work
         rdf:about="">
        <dc:format>image/svg+xml</dc:format>
        <dc:type
           rdf:resource="http://purl.org/dc/dcmitype/StillImage" />
      </cc:Work>
    </rdf:RDF>
  </metadata>
  <sodipodi:namedview
     pagecolor="#f5f7fa"
     bordercolor="#666666"
     borderopacity="1"
     objecttolerance="10"
     gridtolerance="10"
     guidetolerance="10"
     inkscape:pageopacity="0"
     inkscape:pageshadow="2"
     inkscape:window-width="1377"
     inkscape:window-height="886"
     id="namedview75"
     showgrid="false"
     inkscape:zoom="6.2890624"
     inkscape:cx="47.145342"
     inkscape:cy="40.467081"
     inkscape:window-x="62"
     inkscape:window-y="75"
     inkscape:window-maximized="0"
     inkscape:current-layer="g877"
     inkscape:document-rotation="0"
     inkscape:pagecheckerboard="0"
     inkscape:showpageshadow="2"
     inkscape:deskcolor="#d1d1d1" />
  <defs
     id="defs29" />
  <circle
     cx="32.516094"
     cy="31.877844"
     r="0"
     fill="url(#b)"
     stroke-width="1.5715"
     id="circle41"
     style="fill:url(#b)" />
  <g
     aria-label="GZ"
     transform="matrix(1.2212657,0,0,0.81882264,0.4960938,-0.1661539)"
     id="text93"
     style="font-weight:bold;font-size:11.5263px;line-height:1.25;font-family:sans-serif;-inkscape-font-specification:'sans-serif Bold';fill:#f2f2f2;stroke-width:0.288159" />
  <g
     id="g877"
     transform="matrix(1.1,0,0,1.1,-3.1845928,-3.2065454)">
    <g
       fill="#474341"
       id="g8536"
       transform="matrix(2.3735364,0,0,2.3735369,-475.8903,-586.28257)"
       style="fill:#dfdfdf;fill-opacity:1">
      <path
         d="m 211.956,248.995 a 2.993,2.993 0 0 0 -2.953,2.54 v 0.46 h 5.11 l 6.89,6.89 c 0.004,2.702 -0.003,5.403 0,8.104 a 2.997,2.997 0 0 0 2.953,-2.994 v -7.5 a 3,3 0 0 0 -0.826,-2.068 l -4.453,-4.453 c -0.565,-0.581 -1.411,-0.979 -2.221,-0.979 z"
         id="path8532"
         style="fill:#dfdfdf;fill-opacity:1" />
      <path
         d="m 206.946,253.99 a 2.993,2.993 0 0 0 -2.953,2.54 v 12.92 a 2.993,2.993 0 0 0 2.953,2.54 h 9 a 3,3 0 0 0 3,-3 v -7.5 a 3,3 0 0 0 -0.826,-2.068 l -4.453,-4.453 c -0.565,-0.58 -1.411,-0.979 -2.221,-0.979 z"
         id="path8534"
         style="fill:#dfdfdf;fill-opacity:1" />
    </g>
  </g>
</svg>
