<?xml version="1.0" encoding="UTF-8" standalone="no"?>
<svg
   width="64"
   height="64"
   version="1.1"
   id="svg73"
   sodipodi:docname="preferences-desktop-keyboard.svg"
   inkscape:version="1.4.2 (ebf0e940d0, 2025-05-08)"
   xmlns:inkscape="http://www.inkscape.org/namespaces/inkscape"
   xmlns:sodipodi="http://sodipodi.sourceforge.net/DTD/sodipodi-0.dtd"
   xmlns="http://www.w3.org/2000/svg"
   xmlns:svg="http://www.w3.org/2000/svg"
   xmlns:rdf="http://www.w3.org/1999/02/22-rdf-syntax-ns#"
   xmlns:cc="http://creativecommons.org/ns#"
   xmlns:dc="http://purl.org/dc/elements/1.1/">
  <metadata
     id="metadata77">
    <rdf:RDF>
      <cc:Work
         rdf:about="">
        <dc:format>image/svg+xml</dc:format>
        <dc:type
           rdf:resource="http://purl.org/dc/dcmitype/StillImage" />
      </cc:Work>
    </rdf:RDF>
  </metadata>
  <sodipodi:namedview
     pagecolor="#f5f7fa"
     bordercolor="#666666"
     borderopacity="1"
     objecttolerance="10"
     gridtolerance="10"
     guidetolerance="10"
     inkscape:pageopacity="0"
     inkscape:pageshadow="2"
     inkscape:window-width="1377"
     inkscape:window-height="886"
     id="namedview75"
     showgrid="false"
     inkscape:zoom="6.2890624"
     inkscape:cx="47.145342"
     inkscape:cy="40.467081"
     inkscape:window-x="62"
     inkscape:window-y="75"
     inkscape:window-maximized="0"
     inkscape:current-layer="g877"
     inkscape:document-rotation="0"
     inkscape:pagecheckerboard="0"
     inkscape:showpageshadow="2"
     inkscape:deskcolor="#d1d1d1" />
  <defs
     id="defs29" />
  <circle
     cx="32.516094"
     cy="31.877844"
     r="0"
     fill="url(#b)"
     stroke-width="1.5715"
     id="circle41"
     style="fill:url(#b)" />
  <g
     aria-label="GZ"
     transform="matrix(1.2212657,0,0,0.81882264,0.4960938,-0.1661539)"
     id="text93"
     style="font-weight:bold;font-size:11.5263px;line-height:1.25;font-family:sans-serif;-inkscape-font-specification:'sans-serif Bold';fill:#f2f2f2;stroke-width:0.288159" />
  <g
     id="g877"
     transform="matrix(1.1,0,0,1.1,-3.1845928,-3.2065454)">
    <path
       style="color:#444444;fill:#dfdfdf;fill-opacity:1;stroke:none;stroke-width:1.64453;stroke-dasharray:none;stroke-opacity:1"
       class="ColorScheme-Text"
       d="m 12.297074,10.527122 c 0,0 -7.1596082,0 -7.1596082,7.159612 v 28.638423 c 0,7.159621 7.1596082,7.159621 7.1596082,7.159621 h 39.377842 c 0,0 7.159604,0 7.159604,-7.159621 V 17.686734 c 0,-7.159612 -7.159604,-7.159612 -7.159604,-7.159612 z m 0.894955,7.159612 h 5.369703 c 0.495796,0 0.894948,0.399153 0.894948,0.894952 v 5.369703 c 0,0.495797 -0.399148,0.894952 -0.894948,0.894952 h -5.369703 c -0.495801,0 -0.894955,-0.399153 -0.894955,-0.894952 v -5.369703 c 0,-0.495797 0.399151,-0.894952 0.894955,-0.894952 z m 10.739407,0 h 5.369705 c 0.495797,0 0.89495,0.399153 0.89495,0.894952 v 5.369703 c 0,0.495797 -0.399151,0.894952 -0.89495,0.894952 h -5.369705 c -0.495802,0 -0.894951,-0.399153 -0.894951,-0.894952 v -5.369703 c 0,-0.495797 0.399151,-0.894952 0.894951,-0.894952 z m 10.739412,0 h 5.369705 c 0.495818,0 0.894948,0.399153 0.894948,0.894952 v 5.369703 c 0,0.495797 -0.399136,0.894952 -0.894948,0.894952 h -5.369706 c -0.495799,0 -0.89495,-0.399153 -0.89495,-0.894952 v -5.369703 c 0,-0.495797 0.39914,-0.894952 0.894951,-0.894952 z m 10.73941,0 h 5.369698 c 0.495799,0 0.89496,0.399153 0.89496,0.894952 v 5.369703 c 0,0.495797 -0.39919,0.894952 -0.89496,0.894952 h -5.369698 c -0.495866,0 -0.894949,-0.399153 -0.894949,-0.894952 v -5.369703 c 0,-0.495797 0.399186,-0.894952 0.894949,-0.894952 z M 13.192029,28.426143 h 5.369705 c 0.495795,0 0.894945,0.399146 0.894945,0.894951 v 5.369707 c 0,0.495805 -0.399147,0.894953 -0.894945,0.894953 h -5.369705 c -0.495801,0 -0.894955,-0.399156 -0.894955,-0.894953 v -5.369707 c 0,-0.495795 0.399151,-0.894951 0.894955,-0.894951 z m 10.739407,0 h 5.369705 c 0.495797,0 0.89495,0.399146 0.89495,0.894951 v 5.369707 c 0,0.495805 -0.399151,0.894953 -0.89495,0.894953 h -5.369705 c -0.495801,0 -0.894951,-0.399156 -0.894951,-0.894953 v -5.369707 c 0,-0.495795 0.399151,-0.894951 0.894951,-0.894951 z m 10.739412,0 h 5.369705 c 0.495818,0 0.894948,0.399146 0.894948,0.894951 v 5.369707 c 0,0.495805 -0.399136,0.894953 -0.894948,0.894953 h -5.369706 c -0.495799,0 -0.89495,-0.399156 -0.89495,-0.894953 v -5.369707 c 0,-0.495795 0.39914,-0.894951 0.894951,-0.894951 z m 10.73941,0 h 5.369698 c 0.495799,0 0.89496,0.399146 0.89496,0.894951 v 5.369707 c 0,0.495805 -0.39919,0.894953 -0.89496,0.894953 h -5.369698 c -0.495866,0 -0.894949,-0.399156 -0.894949,-0.894953 v -5.369707 c 0,-0.495795 0.399186,-0.894951 0.894949,-0.894951 z M 20.351634,39.165555 h 23.268727 c 0.495796,0 0.894948,0.399135 0.894948,0.894945 v 5.369715 c 0,0.495796 -0.399187,0.894942 -0.894948,0.894942 H 20.351634 c -0.495799,0 -0.894954,-0.399117 -0.894954,-0.894942 V 40.0605 c 0,-0.495816 0.39915,-0.894945 0.894954,-0.894945 z"
       id="path5" />
  </g>
</svg>
