<?xml version="1.0" encoding="UTF-8" standalone="no"?>
<svg
   width="64"
   height="64"
   version="1.1"
   id="svg73"
   sodipodi:docname="preferences-devices-scanner.svg"
   inkscape:version="1.4.2 (ebf0e940d0, 2025-05-08)"
   xmlns:inkscape="http://www.inkscape.org/namespaces/inkscape"
   xmlns:sodipodi="http://sodipodi.sourceforge.net/DTD/sodipodi-0.dtd"
   xmlns="http://www.w3.org/2000/svg"
   xmlns:svg="http://www.w3.org/2000/svg"
   xmlns:rdf="http://www.w3.org/1999/02/22-rdf-syntax-ns#"
   xmlns:cc="http://creativecommons.org/ns#"
   xmlns:dc="http://purl.org/dc/elements/1.1/">
  <metadata
     id="metadata77">
    <rdf:RDF>
      <cc:Work
         rdf:about="">
        <dc:format>image/svg+xml</dc:format>
        <dc:type
           rdf:resource="http://purl.org/dc/dcmitype/StillImage" />
      </cc:Work>
    </rdf:RDF>
  </metadata>
  <sodipodi:namedview
     pagecolor="#f5f7fa"
     bordercolor="#666666"
     borderopacity="1"
     objecttolerance="10"
     gridtolerance="10"
     guidetolerance="10"
     inkscape:pageopacity="0"
     inkscape:pageshadow="2"
     inkscape:window-width="1377"
     inkscape:window-height="886"
     id="namedview75"
     showgrid="false"
     inkscape:zoom="6.2890624"
     inkscape:cx="47.622361"
     inkscape:cy="45.396274"
     inkscape:window-x="0"
     inkscape:window-y="48"
     inkscape:window-maximized="0"
     inkscape:current-layer="g877"
     inkscape:document-rotation="0"
     inkscape:pagecheckerboard="0"
     inkscape:showpageshadow="2"
     inkscape:deskcolor="#d1d1d1" />
  <defs
     id="defs29" />
  <circle
     cx="32.516094"
     cy="31.877844"
     r="0"
     fill="url(#b)"
     stroke-width="1.5715"
     id="circle41"
     style="fill:url(#b)" />
  <g
     aria-label="GZ"
     transform="matrix(1.2212657,0,0,0.81882264,0.4960938,-0.1661539)"
     id="text93"
     style="font-weight:bold;font-size:11.5263px;line-height:1.25;font-family:sans-serif;-inkscape-font-specification:'sans-serif Bold';fill:#f2f2f2;stroke-width:0.288159" />
  <g
     id="g877"
     transform="matrix(1.1,0,0,1.1,-3.1845928,-3.2065454)">
    <path
       style="fill:#dfdfdf;fill-opacity:1;stroke:none;stroke-width:1.77905;stroke-dasharray:none;stroke-opacity:0.3"
       d="M 12.771769,59.34312 C 9.8304754,59.000567 7.3635477,56.851143 6.5155664,53.892149 6.3358777,53.265176 6.3145309,52.157211 6.2792376,41.629414 L 6.2404208,30.055934 H 31.983205 57.725981 l -0.03705,11.57348 c -0.0433,12.908106 0.0099,12.058258 -0.861445,13.813508 -0.591136,1.190992 -1.940484,2.540389 -3.13148,3.131494 -1.163237,0.577384 -1.969337,0.7625 -3.700778,0.850137 l -1.462591,0.0741 -0.03078,-6.077101 -0.03079,-6.077118 -0.265694,-0.539406 C 47.866021,46.116561 47.17128,45.421774 46.482917,45.082703 L 45.943499,44.81707 32.163774,44.786798 c -15.833293,-0.03388 -14.457923,-0.127173 -15.637,1.053952 -1.121801,1.12368 -1.082258,0.841335 -1.082258,7.727164 v 5.895521 l -0.947704,-0.01562 c -0.521247,-0.0093 -1.296135,-0.05626 -1.722,-0.105226 z M 44.074446,38.955316 c 0.556748,-0.378293 0.774687,-0.820498 0.774162,-1.570503 -7.86e-4,-1.128834 -0.69495,-1.814103 -1.837543,-1.814103 -1.142619,0 -1.836742,0.685265 -1.837534,1.814103 -7.72e-4,1.156643 0.694655,1.860979 1.837534,1.860979 0.490942,0 0.733363,-0.06634 1.063398,-0.290494 z m 7.294708,0.06134 c 0.560589,-0.341778 0.830926,-0.865274 0.830926,-1.608849 0,-1.152962 -0.68415,-1.837118 -1.837117,-1.837118 -1.152959,0 -1.837104,0.684163 -1.837104,1.837118 0,1.152951 0.684156,1.837108 1.837104,1.837108 0.428315,0 0.752417,-0.0737 1.006211,-0.228277 z M 17.279442,56.706525 v -2.756964 h 14.703779 14.703787 v 2.756964 2.75696 H 31.983221 17.279442 Z M 6.2821186,24.915338 c 0.066514,-3.677744 0.1270573,-4.068745 0.8585616,-5.542638 0.590774,-1.190332 1.9402497,-2.540056 3.1314908,-3.132045 1.411306,-0.701365 2.053299,-0.818085 4.537495,-0.824995 2.019716,-0.0062 2.216884,0.01237 2.642084,0.240576 1.006693,0.540383 1.472627,1.251438 1.607322,2.452871 0.104489,0.931675 0.311273,1.443071 0.782122,1.933931 0.798055,0.831972 -0.721827,0.759105 17.196454,0.824375 l 16.139688,0.05876 0.680051,0.257666 c 0.965533,0.365814 1.562763,0.740524 2.187205,1.372303 1.11029,1.123307 1.519569,2.188638 1.62927,4.240916 l 0.07566,1.420868 H 31.986169 6.2224572 Z M 22.297545,18.858916 c -0.81197,-0.284505 -1.227292,-0.860999 -1.227292,-1.703551 0,-0.590947 0.340156,-1.171757 0.861948,-1.471828 0.189326,-0.108878 4.505508,-1.65504 9.591526,-3.435913 5.086015,-1.780883 12.19196,-4.2689957 15.790981,-5.5291441 7.151584,-2.5040209 7.027418,-2.4744021 7.766168,-1.8527932 0.915597,0.7704264 0.920195,2.1289043 0.0093,2.7774449 -0.182248,0.1294398 -2.418689,0.9658858 -4.970387,1.8587437 -2.551772,0.8928557 -6.603863,2.3107247 -9.004731,3.1508237 -14.780179,5.171819 -17.834892,6.234449 -18.0925,6.293733 -0.157975,0.03639 -0.484461,-0.0036 -0.725561,-0.08755 z"
       id="path1-3" />
  </g>
</svg>
