<?xml version="1.0" encoding="UTF-8" standalone="no"?>
<svg
   width="64"
   height="64"
   version="1.1"
   id="svg73"
   sodipodi:docname="preferences-document.svg"
   inkscape:version="1.4.2 (ebf0e940d0, 2025-05-08)"
   xmlns:inkscape="http://www.inkscape.org/namespaces/inkscape"
   xmlns:sodipodi="http://sodipodi.sourceforge.net/DTD/sodipodi-0.dtd"
   xmlns="http://www.w3.org/2000/svg"
   xmlns:svg="http://www.w3.org/2000/svg"
   xmlns:rdf="http://www.w3.org/1999/02/22-rdf-syntax-ns#"
   xmlns:cc="http://creativecommons.org/ns#"
   xmlns:dc="http://purl.org/dc/elements/1.1/">
  <metadata
     id="metadata77">
    <rdf:RDF>
      <cc:Work
         rdf:about="">
        <dc:format>image/svg+xml</dc:format>
        <dc:type
           rdf:resource="http://purl.org/dc/dcmitype/StillImage" />
      </cc:Work>
    </rdf:RDF>
  </metadata>
  <sodipodi:namedview
     pagecolor="#f5f7fa"
     bordercolor="#666666"
     borderopacity="1"
     objecttolerance="10"
     gridtolerance="10"
     guidetolerance="10"
     inkscape:pageopacity="0"
     inkscape:pageshadow="2"
     inkscape:window-width="1377"
     inkscape:window-height="886"
     id="namedview75"
     showgrid="false"
     inkscape:zoom="6.2890624"
     inkscape:cx="47.622361"
     inkscape:cy="45.396274"
     inkscape:window-x="0"
     inkscape:window-y="48"
     inkscape:window-maximized="0"
     inkscape:current-layer="g877"
     inkscape:document-rotation="0"
     inkscape:pagecheckerboard="0"
     inkscape:showpageshadow="2"
     inkscape:deskcolor="#d1d1d1" />
  <defs
     id="defs29" />
  <circle
     cx="32.516094"
     cy="31.877844"
     r="0"
     fill="url(#b)"
     stroke-width="1.5715"
     id="circle41"
     style="fill:url(#b)" />
  <g
     aria-label="GZ"
     transform="matrix(1.2212657,0,0,0.81882264,0.4960938,-0.1661539)"
     id="text93"
     style="font-weight:bold;font-size:11.5263px;line-height:1.25;font-family:sans-serif;-inkscape-font-specification:'sans-serif Bold';fill:#f2f2f2;stroke-width:0.288159" />
  <g
     id="g877"
     transform="matrix(1.1,0,0,1.1,-3.1845928,-3.2065454)">
    <path
       id="path102"
       style="fill:#dfdfdf;fill-opacity:1;stroke:none;stroke-width:1.74596;stroke-dasharray:none;stroke-dashoffset:2.2;stroke-opacity:0.3"
       d="m 24.247404,5.1324665 c -12.685731,0 -12.249509,-0.041368 -12.989045,1.2105864 -0.298867,0.5060099 -0.32738,2.7719972 -0.32738,25.5518061 0,27.602619 -0.08864,25.768512 1.261737,26.591876 0.624861,0.381072 1.153316,0.39148 19.754666,0.392174 20.823824,8.21e-4 19.746893,0.0594 20.678795,-1.125323 0.417364,-0.530653 0.416023,-0.592265 0.416023,-17.95413 V 22.38073 H 45.471785 C 36.983777,22.380382 36.83848,22.35677 36.148593,20.97577 35.833352,20.34478 35.797651,19.508553 35.797325,12.702893 V 5.1324665 Z m 13.957512,0.3069088 v 6.4757657 c 0,7.068488 0.03633,7.339965 1.152612,7.945508 0.451966,0.245225 1.678297,0.300271 6.939532,0.306911 l 6.390516,0.0068 -3.416912,-3.560122 C 47.390144,14.656444 44.130718,11.339592 42.027628,9.2450239 Z M 20.356487,31.004828 h 11.628421 11.63182 v 1.50385 1.50385 H 31.984906 20.356486 v -1.50385 z m 0,5.613011 h 11.628421 11.63182 v 1.606148 1.602745 H 31.984906 20.356486 v -1.602745 z m 0,5.817608 h 11.628421 11.63182 v 1.602747 1.60615 H 31.984906 20.356486 v -1.60615 z m 0,5.814212 h 7.318059 7.321474 v 1.606147 1.602737 h -7.321474 -7.31806 v -1.602737 z" />
  </g>
</svg>
