<?xml version="1.0" encoding="UTF-8" standalone="no"?>
<svg
   width="64"
   height="64"
   version="1.1"
   id="svg73"
   sodipodi:docname="preferences-online-accounts.svg"
   inkscape:version="1.4.2 (ebf0e940d0, 2025-05-08)"
   xmlns:inkscape="http://www.inkscape.org/namespaces/inkscape"
   xmlns:sodipodi="http://sodipodi.sourceforge.net/DTD/sodipodi-0.dtd"
   xmlns="http://www.w3.org/2000/svg"
   xmlns:svg="http://www.w3.org/2000/svg"
   xmlns:rdf="http://www.w3.org/1999/02/22-rdf-syntax-ns#"
   xmlns:cc="http://creativecommons.org/ns#"
   xmlns:dc="http://purl.org/dc/elements/1.1/">
  <metadata
     id="metadata77">
    <rdf:RDF>
      <cc:Work
         rdf:about="">
        <dc:format>image/svg+xml</dc:format>
        <dc:type
           rdf:resource="http://purl.org/dc/dcmitype/StillImage" />
      </cc:Work>
    </rdf:RDF>
  </metadata>
  <sodipodi:namedview
     pagecolor="#f5f7fa"
     bordercolor="#666666"
     borderopacity="1"
     objecttolerance="10"
     gridtolerance="10"
     guidetolerance="10"
     inkscape:pageopacity="0"
     inkscape:pageshadow="2"
     inkscape:window-width="1377"
     inkscape:window-height="886"
     id="namedview75"
     showgrid="false"
     inkscape:zoom="6.2890624"
     inkscape:cx="47.622361"
     inkscape:cy="45.396274"
     inkscape:window-x="0"
     inkscape:window-y="48"
     inkscape:window-maximized="0"
     inkscape:current-layer="g877"
     inkscape:document-rotation="0"
     inkscape:pagecheckerboard="0"
     inkscape:showpageshadow="2"
     inkscape:deskcolor="#d1d1d1" />
  <defs
     id="defs29" />
  <circle
     cx="32.516094"
     cy="31.877844"
     r="0"
     fill="url(#b)"
     stroke-width="1.5715"
     id="circle41"
     style="fill:url(#b)" />
  <g
     aria-label="GZ"
     transform="matrix(1.2212657,0,0,0.81882264,0.4960938,-0.1661539)"
     id="text93"
     style="font-weight:bold;font-size:11.5263px;line-height:1.25;font-family:sans-serif;-inkscape-font-specification:'sans-serif Bold';fill:#f2f2f2;stroke-width:0.288159" />
  <g
     id="g877"
     transform="matrix(1.1,0,0,1.1,-3.1845928,-3.2065454)">
    <path
       d="m 31.985994,4.5232809 c -15.253289,0 -27.6185292,12.3044251 -27.6185292,27.4826711 0,15.178239 12.3652402,27.482669 27.6185292,27.482669 15.253273,0 27.618528,-12.30443 27.618528,-27.482669 0,-15.178246 -12.365255,-27.4826711 -27.618528,-27.4826711 z m -1.972753,7.6068121 c 0.263953,-0.02743 0.596802,0.01562 0.863139,0 0.03132,0.125673 -0.192224,0.572703 -0.493154,1.226911 -1.916967,4.167 -2.025708,9.047138 -0.246649,11.655597 0.321957,0.472927 0.616479,0.923018 0.616479,0.981527 0,0.05845 -0.34716,0.122399 -0.739809,0.122399 -0.921583,0 -1.793712,-0.558917 -3.575611,-1.963007 -0.791558,-0.623742 -1.820665,-1.147641 -2.219368,-1.226936 -0.626022,-0.124488 -0.792889,-0.06989 -1.602891,0.736135 -0.753527,0.749734 -0.986305,1.153993 -0.986305,1.840362 0,2.602765 3.105424,4.671816 8.87739,5.889144 7.838528,1.653161 9.770844,3.137422 9.987046,7.238735 0.271439,5.143102 -2.480132,9.02126 -8.507499,12.023666 -0.719375,0.358433 -1.177783,0.497625 -1.479607,0.613432 -0.134171,-0.01186 -0.236362,0.01186 -0.369687,0 -0.05068,-0.158975 -0.123823,-0.527869 -0.123823,-1.226912 0,-2.731694 -1.082049,-5.54345 -2.712487,-7.116046 -0.437668,-0.422124 -1.663143,-1.316611 -2.712553,-1.963036 -1.049393,-0.646391 -2.106715,-1.397287 -2.342658,-1.717659 -0.391004,-0.531641 -0.423516,-0.858247 -0.12381,-1.840359 0.547432,-1.793713 1.199108,-2.792747 2.465906,-3.926091 0.664192,-0.594175 1.332426,-1.092441 1.479613,-1.104224 0.147603,-0.01162 -0.84882,-0.309384 -2.34264,-0.613446 -1.493838,-0.304591 -3.678821,-0.942667 -4.808691,-1.349529 -2.06579,-0.743794 -4.854862,-2.305245 -5.918304,-3.43533 -0.04477,-0.04794 -0.08349,-0.08013 -0.123809,-0.122413 1.523486,-6.038572 5.798835,-10.987806 11.466591,-13.373261 1.185837,-0.499129 2.408414,-0.841557 3.698911,-1.104224 0.642721,-0.130717 1.309008,-0.178235 1.972746,-0.245378 z m 18.49455,9.201783 c 0.463337,0.285026 2.213061,4.051931 2.712534,5.889142 0.644811,2.372112 0.598145,6.477082 0,8.833724 -0.227753,0.89687 -0.519387,1.73592 -0.616469,1.840356 -0.09692,0.1045 -0.448984,-0.496774 -0.863132,-1.226911 -0.414082,-0.730012 -1.736615,-2.281254 -2.835796,-3.43533 -3.172729,-3.331407 -3.671647,-5.070861 -2.342637,-7.729499 0.670162,-1.340726 3.586857,-4.391734 3.9455,-4.171482 z"
       fill="#333333"
       id="path2-0"
       style="fill:#dfdfdf;fill-opacity:1;stroke:none;stroke-width:1.67078;stroke-dasharray:none;stroke-opacity:0.3" />
  </g>
</svg>
