<?xml version="1.0" encoding="UTF-8" standalone="no"?>
<svg
   width="64"
   height="64"
   version="1.1"
   id="svg73"
   sodipodi:docname="preferences-system-network-share-windows.svg"
   inkscape:version="1.4.2 (ebf0e940d0, 2025-05-08)"
   xmlns:inkscape="http://www.inkscape.org/namespaces/inkscape"
   xmlns:sodipodi="http://sodipodi.sourceforge.net/DTD/sodipodi-0.dtd"
   xmlns="http://www.w3.org/2000/svg"
   xmlns:svg="http://www.w3.org/2000/svg"
   xmlns:rdf="http://www.w3.org/1999/02/22-rdf-syntax-ns#"
   xmlns:cc="http://creativecommons.org/ns#"
   xmlns:dc="http://purl.org/dc/elements/1.1/">
  <metadata
     id="metadata77">
    <rdf:RDF>
      <cc:Work
         rdf:about="">
        <dc:format>image/svg+xml</dc:format>
        <dc:type
           rdf:resource="http://purl.org/dc/dcmitype/StillImage" />
      </cc:Work>
    </rdf:RDF>
  </metadata>
  <sodipodi:namedview
     pagecolor="#f5f7fa"
     bordercolor="#666666"
     borderopacity="1"
     objecttolerance="10"
     gridtolerance="10"
     guidetolerance="10"
     inkscape:pageopacity="0"
     inkscape:pageshadow="2"
     inkscape:window-width="1377"
     inkscape:window-height="886"
     id="namedview75"
     showgrid="false"
     inkscape:zoom="6.2890624"
     inkscape:cx="45.714286"
     inkscape:cy="39.831057"
     inkscape:window-x="0"
     inkscape:window-y="48"
     inkscape:window-maximized="0"
     inkscape:current-layer="g877"
     inkscape:document-rotation="0"
     inkscape:pagecheckerboard="0"
     inkscape:showpageshadow="2"
     inkscape:deskcolor="#d1d1d1" />
  <defs
     id="defs29" />
  <circle
     cx="32.516094"
     cy="31.877844"
     r="0"
     fill="url(#b)"
     stroke-width="1.5715"
     id="circle41"
     style="fill:url(#b)" />
  <g
     aria-label="GZ"
     transform="matrix(1.2212657,0,0,0.81882264,0.4960938,-0.1661539)"
     id="text93"
     style="font-weight:bold;font-size:11.5263px;line-height:1.25;font-family:sans-serif;-inkscape-font-specification:'sans-serif Bold';fill:#f2f2f2;stroke-width:0.288159" />
  <g
     id="g877"
     transform="matrix(1.1,0,0,1.1,-3.1845928,-3.2065454)">
    <g
       fill="#232629"
       id="g15"
       transform="matrix(4.3335764,0,0,4.3335764,-72.01984,-63.332731)"
       style="fill:#dfdfdf;fill-opacity:1">
      <path
         d="M 27.936,23 A 2,2 0 0 1 28,23.5 V 24 a 2,2 0 0 1 -2,2 h -1 v 2 h 5 v -5 h -2 z"
         id="path13"
         style="fill:#dfdfdf;fill-opacity:1" />
      <path
         d="m 25,23 v 2 h 1 a 1.007,1.007 0 0 0 0.295,-0.045 0.997,0.997 0 0 0 0.35,-0.19 1,1 0 0 0 0.246,-0.312 A 0.997,0.997 0 0 0 27,24 V 23.5 A 1,1 0 0 0 26.863,23 Z m -7,0 v 5 h 5 v -2 h -3 v -1 h 3 v -2 z m 0,-7 v 5 h 2.064 A 2,2 0 0 1 20,20.5 V 20 a 2,2 0 0 1 2,-2 h 1 v -2 z"
         id="path14"
         style="fill:#dfdfdf;fill-opacity:1" />
      <path
         d="m 22,19 a 1.007,1.007 0 0 0 -0.295,0.045 0.997,0.997 0 0 0 -0.35,0.19 1,1 0 0 0 -0.246,0.312 A 0.997,0.997 0 0 0 21,20 v 0.5 A 1,1 0 0 0 21.137,21 H 23 v -2 z m 3,-3 v 2 h 3 v 1 h -3 v 2 h 5 v -5 z"
         id="path15"
         style="fill:#dfdfdf;fill-opacity:1" />
    </g>
  </g>
</svg>
