<?xml version="1.0" encoding="UTF-8" standalone="no"?>
<svg
   width="64"
   height="64"
   version="1.1"
   id="svg73"
   sodipodi:docname="distributor-logo.svg"
   inkscape:version="1.3.2 (091e20ef0f, 2023-11-25)"
   xmlns:inkscape="http://www.inkscape.org/namespaces/inkscape"
   xmlns:sodipodi="http://sodipodi.sourceforge.net/DTD/sodipodi-0.dtd"
   xmlns="http://www.w3.org/2000/svg"
   xmlns:svg="http://www.w3.org/2000/svg"
   xmlns:rdf="http://www.w3.org/1999/02/22-rdf-syntax-ns#"
   xmlns:cc="http://creativecommons.org/ns#"
   xmlns:dc="http://purl.org/dc/elements/1.1/">
  <metadata
     id="metadata77">
    <rdf:RDF>
      <cc:Work
         rdf:about="">
        <dc:format>image/svg+xml</dc:format>
        <dc:type
           rdf:resource="http://purl.org/dc/dcmitype/StillImage" />
      </cc:Work>
    </rdf:RDF>
  </metadata>
  <sodipodi:namedview
     pagecolor="#f5f7fa"
     bordercolor="#666666"
     borderopacity="1"
     objecttolerance="10"
     gridtolerance="10"
     guidetolerance="10"
     inkscape:pageopacity="0"
     inkscape:pageshadow="2"
     inkscape:window-width="1377"
     inkscape:window-height="886"
     id="namedview75"
     showgrid="false"
     inkscape:zoom="4.4470387"
     inkscape:cx="47.784608"
     inkscape:cy="14.054296"
     inkscape:window-x="181"
     inkscape:window-y="77"
     inkscape:window-maximized="0"
     inkscape:current-layer="g877"
     inkscape:document-rotation="0"
     inkscape:pagecheckerboard="0"
     inkscape:showpageshadow="2"
     inkscape:deskcolor="#d1d1d1" />
  <defs
     id="defs29">
    <linearGradient
       id="b"
       x1="399.57"
       x2="399.57"
       y1="545.8"
       y2="517.8"
       gradientTransform="matrix(2.1429,0,0,2.1429,-825.86391,-1107.6662)"
       gradientUnits="userSpaceOnUse">
      <stop
         stop-color="#3889e9"
         offset="0"
         id="stop2" />
      <stop
         stop-color="#5ea5fb"
         offset="1"
         id="stop4" />
    </linearGradient>
  </defs>
  <circle
     cx="32.516094"
     cy="31.877844"
     r="0"
     fill="url(#b)"
     stroke-width="1.5715"
     id="circle41"
     style="fill:url(#b)" />
  <g
     aria-label="GZ"
     transform="matrix(1.2212657,0,0,0.81882264,0.4960938,-0.1661539)"
     id="text93"
     style="font-weight:bold;font-size:11.5263px;line-height:1.25;font-family:sans-serif;-inkscape-font-specification:'sans-serif Bold';fill:#f2f2f2;stroke-width:0.288159" />
  <g
     id="g877"
     transform="matrix(1.1,0,0,1.1,-3.1845928,-3.2065454)">
    <path
       id="path1"
       style="fill:#dfdfdf;fill-opacity:1;stroke-width:0.0674083"
       d="m 31.986485,5.715604 c -1.090903,0 -2.180689,0.043052 -2.86373,0.1262453 -3.388183,0.4158105 -6.169397,1.2538964 -9.101231,2.74443 -2.456779,1.2490236 -4.459035,2.6943387 -6.464451,4.6676617 -2.130683,2.096518 -3.6914372,4.227262 -5.0232248,6.855187 -1.4692197,2.899014 -2.2978713,5.661578 -2.7116525,9.033298 -0.1676455,1.366094 -0.1676455,4.363706 0,5.729803 0.311633,2.539416 0.8807057,4.788248 1.7640953,6.974521 3.36894,8.337558 10.81513,14.416763 19.648367,16.038306 0.81504,0.149599 2.210652,0.328322 3.135129,0.402441 0.185373,0.01474 1.078038,0.01701 1.986362,0 1.744744,-0.02266 2.837275,-0.125101 4.382162,-0.409463 10.729287,-1.9748 19.1466,-10.392255 21.124686,-21.124617 0.324763,-1.762077 0.409439,-2.727659 0.409439,-4.751868 0,-2.022171 -0.08252,-2.983674 -0.407101,-4.751869 C 56.383363,19.17664 51.214548,12.264111 43.883598,8.5488837 40.984516,7.0796563 38.221965,6.2510907 34.850215,5.8372054 34.167177,5.7533403 33.077388,5.71096 31.986485,5.71096 Z m 0.514722,3.6825875 c 0.460152,0.011374 0.872683,0.026059 1.190882,0.055528 4.556396,0.4363249 8.64582,2.0950425 12.248059,4.9670825 0.951124,0.758302 2.603752,2.411011 3.362074,3.362089 2.665729,3.343499 4.25685,7.075047 4.87115,11.424474 0.169423,1.199613 0.172382,4.469448 0.0046,5.6643 -0.391,2.785908 -1.128191,5.15068 -2.349006,7.552398 -1.701973,3.348373 -4.291734,6.283768 -7.407328,8.394676 -2.997933,2.031126 -6.288576,3.274595 -9.973922,3.769173 -0.743384,0.09973 -3.622184,0.183483 -4.349405,0.126365 -2.952291,-0.2321 -5.719705,-0.970227 -8.308058,-2.218004 -6.695099,-3.22745 -11.34833,-9.463506 -12.5475584,-16.817347 -0.81224,-4.98091 0.1289871,-10.323915 2.5876544,-14.69533 3.480596,-6.18857 9.470749,-10.303857 16.583427,-11.3941046 0.906196,-0.1389432 2.706911,-0.2145352 4.087364,-0.1918675 z m -7.608535,2.2343255 c -0.03499,-0.01125 -0.15961,0.290469 -0.278419,0.671488 -2.114789,6.782992 -4.259785,11.483295 -9.791429,21.463931 -1.696223,3.060512 -1.857737,3.37138 -1.79217,3.436998 0.08488,0.08502 2.415503,0.621849 3.439283,0.793092 1.740535,0.291034 3.391125,0.484719 12.18021,1.420155 1.872251,0.199349 3.494172,0.357106 3.605397,0.350985 0.20222,-0.01125 0.203609,-0.01125 0.224607,-0.481997 0.01162,-0.259527 -0.02925,-1.24687 -0.0889,-2.192279 -0.129119,-2.046083 -0.954514,-13.677502 -1.04348,-14.702358 l -0.06317,-0.715913 -0.582573,-0.99437 c -0.694143,-1.184538 -1.568213,-2.571147 -3.064949,-4.854772 -0.60748,-0.926825 -1.459656,-2.24464 -1.892779,-2.92916 -0.433113,-0.684524 -0.816628,-1.254126 -0.851628,-1.2658 z m 8.268317,10.984637 c -0.01726,0 -0.02885,0 -0.03511,0 -0.01979,0.01927 0.106755,0.381474 0.280759,0.8025 1.243113,3.00804 1.80767,5.372696 1.986361,8.336197 0.144038,2.388685 -0.135341,4.664718 -0.875028,7.154605 -0.24207,0.814853 -0.240216,0.791847 -0.0889,0.837633 0.06488,0.01927 1.059323,0.02379 2.208627,0.01125 1.63302,-0.02154 2.292812,-0.05779 3.015808,-0.163765 0.996995,-0.146423 2.239955,-0.41003 2.947957,-0.624679 1.201242,-0.364135 2.702822,-0.979297 2.807578,-1.148729 0.05599,-0.09066 -0.969423,-2.140941 -1.560548,-3.121142 -1.822874,-3.022773 -3.838212,-5.528301 -6.97215,-8.665993 -1.983478,-1.985904 -3.456667,-3.339307 -3.715362,-3.418299 z m 6.310031,3.785607 c -0.01089,5.65e-4 -0.01771,0 -0.02105,0 -0.01613,0.01586 0.102751,0.122186 0.264382,0.23403 2.794165,1.932071 3.403883,2.40489 4.405558,3.415805 1.321298,1.333569 2.173572,2.819456 2.496405,4.354075 0.07296,0.346908 0.231569,2.129721 0.233965,2.634498 0.0014,0.302595 1.788636,-0.944389 2.821615,-1.967655 0.773946,-0.766688 1.760043,-2.043592 2.124403,-2.751458 0.15309,-0.297384 0.09154,-0.390767 -0.582574,-0.893734 -1.451578,-1.082879 -3.605701,-2.245318 -5.722782,-3.088276 -1.749721,-0.696762 -5.679182,-1.96052 -6.019914,-1.941932 z m 11.094614,11.838587 c -0.03737,0 -0.577017,0.305427 -1.20024,0.678516 -3.24688,1.943973 -6.80353,3.318227 -10.619663,4.103726 -3.832466,0.788787 -9.874187,1.153373 -15.825383,0.954591 -2.347762,-0.07821 -6.560918,-0.311097 -6.859849,-0.37898 -0.08342,-0.01927 -0.149739,0 -0.149739,0.03512 0,0.126818 1.174134,1.36632 2.033156,2.145474 3.119154,2.829202 7.474476,4.733621 11.71696,5.12382 0.910817,0.08387 2.869727,0.09066 3.741098,0.01125 4.856758,-0.440857 9.298564,-2.52162 12.739386,-5.966097 1.712307,-1.714024 2.858416,-3.325482 4.026532,-5.66192 0.416071,-0.832193 0.49743,-1.045822 0.397742,-1.045822 z" />
  </g>
</svg>
