<?xml version="1.0" encoding="UTF-8" standalone="no"?>
<svg
   width="64"
   height="64"
   version="1.1"
   id="svg73"
   sodipodi:docname="audacious.svg"
   inkscape:version="1.4.2 (ebf0e940d0, 2025-05-08)"
   xmlns:inkscape="http://www.inkscape.org/namespaces/inkscape"
   xmlns:sodipodi="http://sodipodi.sourceforge.net/DTD/sodipodi-0.dtd"
   xmlns="http://www.w3.org/2000/svg"
   xmlns:svg="http://www.w3.org/2000/svg"
   xmlns:rdf="http://www.w3.org/1999/02/22-rdf-syntax-ns#"
   xmlns:cc="http://creativecommons.org/ns#"
   xmlns:dc="http://purl.org/dc/elements/1.1/">
  <metadata
     id="metadata77">
    <rdf:RDF>
      <cc:Work
         rdf:about="">
        <dc:format>image/svg+xml</dc:format>
        <dc:type
           rdf:resource="http://purl.org/dc/dcmitype/StillImage" />
      </cc:Work>
    </rdf:RDF>
  </metadata>
  <sodipodi:namedview
     pagecolor="#f5f7fa"
     bordercolor="#666666"
     borderopacity="1"
     objecttolerance="10"
     gridtolerance="10"
     guidetolerance="10"
     inkscape:pageopacity="0"
     inkscape:pageshadow="2"
     inkscape:window-width="1377"
     inkscape:window-height="886"
     id="namedview75"
     showgrid="false"
     inkscape:zoom="6.2890624"
     inkscape:cx="47.622361"
     inkscape:cy="45.396274"
     inkscape:window-x="-19"
     inkscape:window-y="75"
     inkscape:window-maximized="0"
     inkscape:current-layer="g877"
     inkscape:document-rotation="0"
     inkscape:pagecheckerboard="0"
     inkscape:showpageshadow="2"
     inkscape:deskcolor="#d1d1d1" />
  <defs
     id="defs29" />
  <circle
     cx="32.516094"
     cy="31.877844"
     r="0"
     fill="url(#b)"
     stroke-width="1.5715"
     id="circle41"
     style="fill:url(#b)" />
  <g
     aria-label="GZ"
     transform="matrix(1.2212657,0,0,0.81882264,0.4960938,-0.1661539)"
     id="text93"
     style="font-weight:bold;font-size:11.5263px;line-height:1.25;font-family:sans-serif;-inkscape-font-specification:'sans-serif Bold';fill:#f2f2f2;stroke-width:0.288159" />
  <g
     id="g877"
     transform="matrix(1.1,0,0,1.1,-3.1845928,-3.2065454)">
    <rect
       x="8.3496294"
       y="8.369586"
       width="47.272728"
       height="47.272728"
       rx="9.8825235"
       ry="9.6485243"
       fill="url(#linearGradient862)"
       stroke-width="3.0541"
       id="rect35-7-3"
       style="fill:#414141;fill-opacity:1;stroke:#dfdfdf;stroke-width:2.04545;stroke-dasharray:none;stroke-opacity:1" />
    <path
       id="path1-5-9"
       style="fill:#dfdfdf;stroke-width:0.117287;fill-opacity:1"
       d="m 31.908264,16.46466 c -7.51636,0 -7.441578,-0.0048 -8.113192,0.622252 -0.633754,0.591728 -0.606296,0.07044 -0.606296,11.487703 v 10.59422 l 0.26525,0.516543 c 0.301005,0.58908 0.702388,0.923977 1.274417,1.059029 0.554245,0.130824 13.898884,0.134403 14.461349,0.004 0.632967,-0.146813 1.017422,-0.454684 1.328268,-1.063006 l 0.265266,-0.516555 v -10.53434 c 0,-11.33662 0.0187,-10.976155 -0.604302,-11.549534 -0.665476,-0.612762 -0.76103,-0.620344 -8.27075,-0.620344 z m 1.314303,7.275546 2.106081,2.110069 2.108071,2.110068 -2.050235,2.052231 c -1.12751,1.128892 -2.077098,2.052231 -2.112061,2.052231 -0.03492,0 -0.37837,-0.316489 -0.761857,-0.704021 l -0.696045,-0.706015 1.342225,-1.346216 1.344224,-1.34821 -1.316302,-1.322284 c -0.724658,-0.726718 -1.318292,-1.374435 -1.318292,-1.439952 0,-0.06552 0.303909,-0.421476 0.676098,-0.789778 z m -3.350579,0.03989 c 0.05511,0.0017 0.112266,0.0097 0.169522,0.0239 0.565206,0.141867 0.741229,0.951412 0.277223,1.276419 -0.560077,0.3923 -1.146781,0.0767 -1.146781,-0.616258 0,-0.40438 0.31428,-0.694948 0.700035,-0.684082 z m -2.078161,4.074546 c 0.252142,-0.0066 0.506171,0.06636 0.753884,0.217389 0.418174,0.254979 0.587433,0.510227 0.624243,0.943347 0.05433,0.639061 -0.01588,0.8595 -0.398876,1.242507 -0.335961,0.335967 -0.482435,0.398879 -0.92939,0.398879 -1.399089,0 -1.951952,-1.768797 -0.795762,-2.546837 0.243651,-0.163962 0.493771,-0.248657 0.745901,-0.255285 z m 2.937745,4.10446 c 0.264499,0.0018 0.397216,0.07213 0.636209,0.27323 0.711527,0.59871 0.752437,1.555076 0.09374,2.17389 -0.399854,0.375649 -1.182174,0.438348 -1.66731,0.133627 -0.484043,-0.304036 -0.62225,-0.579666 -0.62225,-1.23453 0,-0.773802 0.445694,-1.249708 1.242507,-1.326272 0.126591,-0.01213 0.228943,-0.02044 0.317111,-0.01992 z m -5.313067,11.24838 v 2.169901 2.169897 h 6.567538 6.567538 v -2.169897 -2.169901 h -6.567538 z" />
  </g>
</svg>
