<?xml version="1.0" encoding="UTF-8" standalone="no"?>
<svg
   width="64"
   height="64"
   version="1.1"
   id="svg73"
   sodipodi:docname="audacious.svg"
   inkscape:version="1.4.2 (ebf0e940d0, 2025-05-08)"
   xmlns:inkscape="http://www.inkscape.org/namespaces/inkscape"
   xmlns:sodipodi="http://sodipodi.sourceforge.net/DTD/sodipodi-0.dtd"
   xmlns="http://www.w3.org/2000/svg"
   xmlns:svg="http://www.w3.org/2000/svg"
   xmlns:rdf="http://www.w3.org/1999/02/22-rdf-syntax-ns#"
   xmlns:cc="http://creativecommons.org/ns#"
   xmlns:dc="http://purl.org/dc/elements/1.1/">
  <metadata
     id="metadata77">
    <rdf:RDF>
      <cc:Work
         rdf:about="">
        <dc:format>image/svg+xml</dc:format>
        <dc:type
           rdf:resource="http://purl.org/dc/dcmitype/StillImage" />
      </cc:Work>
    </rdf:RDF>
  </metadata>
  <sodipodi:namedview
     pagecolor="#f5f7fa"
     bordercolor="#666666"
     borderopacity="1"
     objecttolerance="10"
     gridtolerance="10"
     guidetolerance="10"
     inkscape:pageopacity="0"
     inkscape:pageshadow="2"
     inkscape:window-width="1377"
     inkscape:window-height="886"
     id="namedview75"
     showgrid="false"
     inkscape:zoom="6.2890624"
     inkscape:cx="47.622361"
     inkscape:cy="45.396274"
     inkscape:window-x="28"
     inkscape:window-y="56"
     inkscape:window-maximized="0"
     inkscape:current-layer="g877"
     inkscape:document-rotation="0"
     inkscape:pagecheckerboard="0"
     inkscape:showpageshadow="2"
     inkscape:deskcolor="#d1d1d1" />
  <defs
     id="defs29" />
  <circle
     cx="32.516094"
     cy="31.877844"
     r="0"
     fill="url(#b)"
     stroke-width="1.5715"
     id="circle41"
     style="fill:url(#b)" />
  <g
     aria-label="GZ"
     transform="matrix(1.2212657,0,0,0.81882264,0.4960938,-0.1661539)"
     id="text93"
     style="font-weight:bold;font-size:11.5263px;line-height:1.25;font-family:sans-serif;-inkscape-font-specification:'sans-serif Bold';fill:#f2f2f2;stroke-width:0.288159" />
  <g
     id="g877"
     transform="matrix(1.1,0,0,1.1,-3.1845928,-3.2065454)">
    <rect
       x="8.3496294"
       y="8.369586"
       width="47.272728"
       height="47.272728"
       rx="9.8825235"
       ry="9.6485243"
       fill="url(#linearGradient862)"
       stroke-width="3.0541"
       id="rect35-7-3"
       style="fill:#414141;fill-opacity:1;stroke:#dfdfdf;stroke-width:2.04545;stroke-dasharray:none;stroke-opacity:1" />
    <path
       style="fill:#dfdfdf;stroke:none;stroke-width:0.42989;stroke-dasharray:none;stroke-opacity:0.6;fill-opacity:1"
       d="m 30.689017,47.63451 c -3.772686,-0.352264 -7.046385,-1.850414 -9.69023,-4.434581 -2.60187,-2.543131 -4.177086,-5.788456 -4.617986,-9.514161 -0.0792,-0.669222 -0.0792,-2.695586 0,-3.364808 0.443991,-3.751847 2.027792,-6.997885 4.663275,-9.557512 2.479945,-2.408561 5.473387,-3.845598 9.014042,-4.32729 0.449323,-0.06111 0.936121,-0.08339 1.869335,-0.08548 1.283326,-0.0027 1.717681,0.03042 2.780638,0.213446 4.935863,0.849669 9.21271,4.094211 11.400786,8.648959 3.089017,6.430177 1.428457,14.190262 -4.016915,18.771699 -2.403774,2.022396 -5.194422,3.222118 -8.388638,3.606364 -0.563236,0.06771 -2.460697,0.09502 -3.014307,0.04324 z m 2.406771,-7.872335 c 0.817687,-0.171259 1.520245,-0.468034 2.240253,-0.946425 0.760257,-0.505143 1.625931,-1.401363 2.14447,-2.220146 0.196287,-0.30993 0.452184,-0.805456 0.452184,-0.875602 0,-0.0294 -0.161,-0.04805 -0.412444,-0.04805 h -0.412449 l -0.245797,0.302963 c -0.360963,0.444887 -1.065434,1.094048 -1.508853,1.390386 -1.099605,0.734854 -2.155132,1.063905 -3.412797,1.063905 -1.198218,0 -2.258534,-0.337731 -3.349436,-1.066795 -0.438039,-0.292764 -1.240412,-1.035905 -1.545664,-1.431568 l -0.199744,-0.258909 h -0.43828 c -0.241065,0 -0.438283,0.01442 -0.438283,0.03202 0,0.05835 0.504037,0.920804 0.709476,1.213982 1.103252,1.574451 2.674554,2.599662 4.4312,2.891199 0.499886,0.08296 1.475765,0.0599 1.986169,-0.04703 z M 26.901706,28.58907 c 1.215132,-0.276374 1.967377,-1.548131 1.645366,-2.781678 -0.297951,-1.141375 -1.475443,-1.868618 -2.634245,-1.626966 -0.369189,0.077 -0.796016,0.296263 -1.074755,0.552129 -0.948338,0.870525 -0.977673,2.344417 -0.0648,3.254951 0.573068,0.57159 1.325366,0.784216 2.12842,0.601564 z m 11.216022,0 c 1.215134,-0.276375 1.967378,-1.548131 1.645368,-2.781678 -0.297955,-1.141375 -1.475442,-1.868618 -2.634249,-1.626966 -0.369189,0.077 -0.796017,0.296263 -1.074755,0.552129 -0.948338,0.870525 -0.977674,2.344417 -0.06479,3.254951 0.573065,0.57159 1.325362,0.784216 2.12842,0.601564 z"
       id="path1-3" />
  </g>
</svg>
