<?xml version="1.0" encoding="UTF-8" standalone="no"?>
<svg
   width="64"
   height="64"
   version="1.1"
   id="svg73"
   sodipodi:docname="audacious.svg"
   inkscape:version="1.4.2 (ebf0e940d0, 2025-05-08)"
   xmlns:inkscape="http://www.inkscape.org/namespaces/inkscape"
   xmlns:sodipodi="http://sodipodi.sourceforge.net/DTD/sodipodi-0.dtd"
   xmlns="http://www.w3.org/2000/svg"
   xmlns:svg="http://www.w3.org/2000/svg"
   xmlns:rdf="http://www.w3.org/1999/02/22-rdf-syntax-ns#"
   xmlns:cc="http://creativecommons.org/ns#"
   xmlns:dc="http://purl.org/dc/elements/1.1/">
  <metadata
     id="metadata77">
    <rdf:RDF>
      <cc:Work
         rdf:about="">
        <dc:format>image/svg+xml</dc:format>
        <dc:type
           rdf:resource="http://purl.org/dc/dcmitype/StillImage" />
      </cc:Work>
    </rdf:RDF>
  </metadata>
  <sodipodi:namedview
     pagecolor="#f5f7fa"
     bordercolor="#666666"
     borderopacity="1"
     objecttolerance="10"
     gridtolerance="10"
     guidetolerance="10"
     inkscape:pageopacity="0"
     inkscape:pageshadow="2"
     inkscape:window-width="1377"
     inkscape:window-height="886"
     id="namedview75"
     showgrid="false"
     inkscape:zoom="6.2890624"
     inkscape:cx="47.622361"
     inkscape:cy="45.396274"
     inkscape:window-x="-19"
     inkscape:window-y="75"
     inkscape:window-maximized="0"
     inkscape:current-layer="g877"
     inkscape:document-rotation="0"
     inkscape:pagecheckerboard="0"
     inkscape:showpageshadow="2"
     inkscape:deskcolor="#d1d1d1" />
  <defs
     id="defs29" />
  <circle
     cx="32.516094"
     cy="31.877844"
     r="0"
     fill="url(#b)"
     stroke-width="1.5715"
     id="circle41"
     style="fill:url(#b)" />
  <g
     aria-label="GZ"
     transform="matrix(1.2212657,0,0,0.81882264,0.4960938,-0.1661539)"
     id="text93"
     style="font-weight:bold;font-size:11.5263px;line-height:1.25;font-family:sans-serif;-inkscape-font-specification:'sans-serif Bold';fill:#f2f2f2;stroke-width:0.288159" />
  <g
     id="g877"
     transform="matrix(1.1,0,0,1.1,-3.1845928,-3.2065454)">
    <rect
       x="8.3496294"
       y="8.369586"
       width="47.272728"
       height="47.272728"
       rx="9.8825235"
       ry="9.6485243"
       fill="url(#linearGradient862)"
       stroke-width="3.0541"
       id="rect35-7-3"
       style="fill:#414141;fill-opacity:1;stroke:#dfdfdf;stroke-width:2.04545;stroke-dasharray:none;stroke-opacity:1" />
    <path
       id="path51393"
       style="fill:#dfdfdf;fill-opacity:1;stroke:none;stroke-width:0.928301;stroke-dasharray:none;stroke-opacity:1"
       d="m 39.787486,23.117126 c -3.487582,-0.006 -5.590187,1.955649 -6.438265,6.004936 -0.440725,2.104346 -0.435553,5.840155 0.01091,7.497107 0.631781,2.344894 1.97742,3.85065 3.751273,4.200918 1.443551,0.285075 3.209208,-0.267732 4.1012,-1.283664 1.121763,-1.277613 1.660503,-3.524143 1.352556,-5.636881 -0.20822,-1.428645 -0.68163,-2.407318 -1.557438,-3.2146 -0.744937,-0.686659 -1.424347,-0.926387 -2.610843,-0.922861 -1.097778,0.0033 -1.866814,0.383888 -2.701499,1.338057 l -0.694411,0.792319 V 31.20711 c 0,-1.02716 0.388182,-2.855617 0.788692,-3.71501 0.442818,-0.950174 1.154567,-1.677146 2.016156,-2.061478 0.784104,-0.349767 2.497078,-0.494543 3.28349,-0.277406 l 0.554803,0.152299 v -1.004444 c 0,-1.185257 0.0051,-1.180788 -1.856596,-1.183944 z m -13.826585,0.01452 c -0.123731,6.09e-4 -0.250676,0.0045 -0.380744,0.01091 -1.092327,0.05288 -1.411331,0.131388 -2.166639,0.536669 -0.487097,0.261353 -1.146306,0.697535 -1.466787,0.968177 l -0.583814,0.49135 0.487719,0.759683 c 0.268058,0.417726 0.531406,0.759681 0.585628,0.759681 0.05422,0 0.342531,-0.200813 0.640018,-0.446019 0.850567,-0.70111 1.701627,-1.0244 2.714189,-1.028019 1.643122,-0.006 2.444539,0.905144 2.438599,2.772208 -0.0067,2.128704 -0.398718,2.771601 -5.315964,8.739071 l -1.639029,1.990765 v 0.997197 0.997191 h 4.797421 4.797423 v -1.107815 -1.105991 h -3.555458 c -2.055741,0 -3.53496,-0.05704 -3.506507,-0.134205 0.02704,-0.07335 0.913634,-1.143719 1.96901,-2.378754 3.925421,-4.593616 4.596201,-5.886044 4.474694,-8.615756 C 30.19999,26.199902 30.12623,25.873 29.762938,25.207616 28.971852,23.758707 27.816868,23.12247 25.960901,23.131634 Z m -10.838622,4.416671 c -0.230458,-0.002 -0.476427,0.115635 -0.717981,0.357176 l -0.362618,0.362622 v 3.676935 c 0,3.496341 0.01371,3.695117 0.304596,4.064937 0.470838,0.598571 1.175577,0.501769 1.544749,-0.212129 0.314784,-0.608732 0.314784,-7.0443 0,-7.653032 -0.203211,-0.392973 -0.472438,-0.594036 -0.768746,-0.596507 z m 33.801344,0 c -0.230423,-0.002 -0.476421,0.115623 -0.717988,0.357176 l -0.3626,0.362619 v 3.676936 c 0,3.496353 0.01551,3.695118 0.306436,4.064937 0.470845,0.598573 1.175568,0.50177 1.544745,-0.21213 0.314788,-0.608734 0.314788,-7.044297 0,-7.65303 C 49.491,27.751859 49.21993,27.550793 48.923619,27.548321 Z m -10.867636,4.128394 c 1.072557,0 1.709741,0.368522 2.172082,1.254653 0.260214,0.498794 0.308225,0.854081 0.308225,2.288113 0,1.583853 -0.02705,1.743238 -0.40432,2.384211 -0.28046,0.47704 -0.598678,0.780528 -1.042498,0.995382 -0.727742,0.352296 -1.452045,0.387696 -2.095931,0.101546 -1.630608,-0.724743 -2.49117,-3.909032 -1.508509,-5.5807 0.571185,-0.971682 1.411444,-1.443216 2.570951,-1.443216 z" />
  </g>
</svg>
