<?xml version="1.0" encoding="UTF-8" standalone="no"?>
<svg
   width="64"
   height="64"
   version="1.1"
   id="svg73"
   sodipodi:docname="audacious.svg"
   inkscape:version="1.4.2 (ebf0e940d0, 2025-05-08)"
   xmlns:inkscape="http://www.inkscape.org/namespaces/inkscape"
   xmlns:sodipodi="http://sodipodi.sourceforge.net/DTD/sodipodi-0.dtd"
   xmlns="http://www.w3.org/2000/svg"
   xmlns:svg="http://www.w3.org/2000/svg"
   xmlns:rdf="http://www.w3.org/1999/02/22-rdf-syntax-ns#"
   xmlns:cc="http://creativecommons.org/ns#"
   xmlns:dc="http://purl.org/dc/elements/1.1/">
  <metadata
     id="metadata77">
    <rdf:RDF>
      <cc:Work
         rdf:about="">
        <dc:format>image/svg+xml</dc:format>
        <dc:type
           rdf:resource="http://purl.org/dc/dcmitype/StillImage" />
      </cc:Work>
    </rdf:RDF>
  </metadata>
  <sodipodi:namedview
     pagecolor="#f5f7fa"
     bordercolor="#666666"
     borderopacity="1"
     objecttolerance="10"
     gridtolerance="10"
     guidetolerance="10"
     inkscape:pageopacity="0"
     inkscape:pageshadow="2"
     inkscape:window-width="1377"
     inkscape:window-height="886"
     id="namedview75"
     showgrid="false"
     inkscape:zoom="6.2890624"
     inkscape:cx="47.622361"
     inkscape:cy="45.396274"
     inkscape:window-x="-19"
     inkscape:window-y="75"
     inkscape:window-maximized="0"
     inkscape:current-layer="g877"
     inkscape:document-rotation="0"
     inkscape:pagecheckerboard="0"
     inkscape:showpageshadow="2"
     inkscape:deskcolor="#d1d1d1" />
  <defs
     id="defs29" />
  <circle
     cx="32.516094"
     cy="31.877844"
     r="0"
     fill="url(#b)"
     stroke-width="1.5715"
     id="circle41"
     style="fill:url(#b)" />
  <g
     aria-label="GZ"
     transform="matrix(1.2212657,0,0,0.81882264,0.4960938,-0.1661539)"
     id="text93"
     style="font-weight:bold;font-size:11.5263px;line-height:1.25;font-family:sans-serif;-inkscape-font-specification:'sans-serif Bold';fill:#f2f2f2;stroke-width:0.288159" />
  <g
     id="g877"
     transform="matrix(1.1,0,0,1.1,-3.1845928,-3.2065454)">
    <rect
       x="8.3496294"
       y="8.369586"
       width="47.272728"
       height="47.272728"
       rx="9.8825235"
       ry="9.6485243"
       fill="url(#linearGradient862)"
       stroke-width="3.0541"
       id="rect35-7-3"
       style="fill:#414141;fill-opacity:1;stroke:#dfdfdf;stroke-width:2.04545;stroke-dasharray:none;stroke-opacity:1" />
    <path
       style="fill:#dfdfdf;stroke:none;stroke-width:1.1258;stroke-dasharray:none;stroke-opacity:0.3;fill-opacity:1"
       d="m 28.670466,16.593553 c 6.651744,0 12.147425,5.44694 12.147425,12.106271 0,2.531092 -0.854772,4.85968 -2.196161,6.80989 l 8.098358,8.116701 a 2.2082435,2.2132472 0 0 1 -3.088475,3.164144 L 35.53326,38.673847 c -1.948629,1.344703 -4.333031,2.132359 -6.86301,2.132359 -6.651965,0 -12.078903,-5.446939 -12.078903,-12.106271 0,-6.659333 5.426938,-12.106274 12.078903,-12.106274 z m 0,4.40228 c -4.276814,0 -7.686578,3.422332 -7.686578,7.703991 0,4.28144 3.409764,7.703992 7.686578,7.703992 4.276811,0 7.686577,-3.422552 7.686577,-7.703992 0,-4.281659 -3.409766,-7.703991 -7.686577,-7.703991 z"
       id="path8" />
  </g>
</svg>
