<?xml version="1.0" encoding="UTF-8" standalone="no"?>
<svg
   width="64"
   height="64"
   version="1.1"
   id="svg73"
   sodipodi:docname="audacious.svg"
   inkscape:version="1.4.2 (ebf0e940d0, 2025-05-08)"
   xmlns:inkscape="http://www.inkscape.org/namespaces/inkscape"
   xmlns:sodipodi="http://sodipodi.sourceforge.net/DTD/sodipodi-0.dtd"
   xmlns="http://www.w3.org/2000/svg"
   xmlns:svg="http://www.w3.org/2000/svg"
   xmlns:rdf="http://www.w3.org/1999/02/22-rdf-syntax-ns#"
   xmlns:cc="http://creativecommons.org/ns#"
   xmlns:dc="http://purl.org/dc/elements/1.1/">
  <metadata
     id="metadata77">
    <rdf:RDF>
      <cc:Work
         rdf:about="">
        <dc:format>image/svg+xml</dc:format>
        <dc:type
           rdf:resource="http://purl.org/dc/dcmitype/StillImage" />
      </cc:Work>
    </rdf:RDF>
  </metadata>
  <sodipodi:namedview
     pagecolor="#f5f7fa"
     bordercolor="#666666"
     borderopacity="1"
     objecttolerance="10"
     gridtolerance="10"
     guidetolerance="10"
     inkscape:pageopacity="0"
     inkscape:pageshadow="2"
     inkscape:window-width="1377"
     inkscape:window-height="886"
     id="namedview75"
     showgrid="false"
     inkscape:zoom="6.2890624"
     inkscape:cx="47.145342"
     inkscape:cy="40.467081"
     inkscape:window-x="62"
     inkscape:window-y="91"
     inkscape:window-maximized="0"
     inkscape:current-layer="g877"
     inkscape:document-rotation="0"
     inkscape:pagecheckerboard="0"
     inkscape:showpageshadow="2"
     inkscape:deskcolor="#d1d1d1" />
  <defs
     id="defs29" />
  <circle
     cx="32.516094"
     cy="31.877844"
     r="0"
     fill="url(#b)"
     stroke-width="1.5715"
     id="circle41"
     style="fill:url(#b)" />
  <g
     aria-label="GZ"
     transform="matrix(1.2212657,0,0,0.81882264,0.4960938,-0.1661539)"
     id="text93"
     style="font-weight:bold;font-size:11.5263px;line-height:1.25;font-family:sans-serif;-inkscape-font-specification:'sans-serif Bold';fill:#f2f2f2;stroke-width:0.288159" />
  <g
     id="g877"
     transform="matrix(1.1,0,0,1.1,-3.1845928,-3.2065454)">
    <rect
       x="8.3496294"
       y="8.369586"
       width="47.272728"
       height="47.272728"
       rx="9.8825235"
       ry="9.6485243"
       fill="url(#linearGradient862)"
       stroke-width="3.0541"
       id="rect35-7-3"
       style="fill:#414141;fill-opacity:1;stroke:#dfdfdf;stroke-width:2.04545;stroke-dasharray:none;stroke-opacity:1" />
    <path
       id="path8-3"
       style="fill:#dfdfdf;stroke-width:0.13633;fill-opacity:1"
       d="m 40.844709,16.206895 c -0.869085,0.01472 -1.741373,0.236703 -2.598139,0.665516 -0.363149,0.181766 -1.965013,1.669669 -4.289794,3.983261 l -3.709514,3.691485 -0.865497,-0.829436 c -0.938515,-0.90121 -1.561826,-1.171323 -2.314555,-1.001555 -1.409061,0.317795 -2.115641,1.744291 -1.473642,2.97679 0.370878,0.712004 12.219189,12.507437 12.823481,12.766107 0.6337,0.271236 1.045853,0.25929 1.717877,-0.04588 0.728404,-0.330802 1.145803,-1.0023 1.145803,-1.844102 0,-0.812442 -0.129909,-1.056405 -1.068754,-2.019498 l -0.765511,-0.785196 3.7046,-3.714432 c 4.015904,-4.027262 4.23912,-4.324686 4.570088,-6.104386 0.20762,-1.11641 -0.02727,-2.48283 -0.616335,-3.593134 -0.675726,-1.27359 -2.430008,-2.973353 -3.683291,-3.568535 -0.842197,-0.399956 -1.707743,-0.591759 -2.576817,-0.576997 z m -13.862737,14.100414 -0.655684,0.591753 c -2.052861,1.850906 -5.289011,5.17441 -5.512632,5.661805 -0.159418,0.347456 -0.250426,0.866405 -0.252438,1.431022 l -0.003,0.886808 -1.980157,2.070316 c -1.089096,1.139069 -2.0713,2.287826 -2.181777,2.552232 -0.618974,1.481418 0.11715,3.276708 1.631006,3.981627 0.405198,0.188654 0.947493,0.322141 1.311361,0.322915 1.111908,0.0024 1.788309,-0.46999 3.929166,-2.748945 l 1.947374,-2.073588 0.909757,-0.01499 c 0.646443,-0.01018 1.066316,-0.0981 1.453972,-0.304884 0.299921,-0.159985 1.789788,-1.539675 3.31119,-3.066946 L 33.65703,36.81985 33.071834,36.303503 C 32.750038,36.019769 31.248262,34.55502 29.734332,33.048051 Z m -1.185143,6.217495 c 0.622583,-0.01029 1.191146,0.350025 1.493314,0.968769 0.469768,0.961941 0.352588,1.125662 -3.69968,5.166766 -3.57326,3.56342 -3.669191,3.647472 -4.196358,3.639022 -1.08092,-0.01789 -1.698214,-0.583517 -1.698214,-1.557241 0,-0.803438 0.262998,-1.120676 4.038994,-4.863511 2.845546,-2.820554 3.321905,-3.237781 3.793115,-3.325939 0.09057,-0.01697 0.179888,-0.02642 0.26883,-0.02785 z" />
  </g>
</svg>
