<?xml version="1.0" encoding="UTF-8" standalone="no"?>
<svg
   width="64"
   height="64"
   version="1.1"
   id="svg73"
   sodipodi:docname="audacious.svg"
   inkscape:version="1.4.2 (ebf0e940d0, 2025-05-08)"
   xmlns:inkscape="http://www.inkscape.org/namespaces/inkscape"
   xmlns:sodipodi="http://sodipodi.sourceforge.net/DTD/sodipodi-0.dtd"
   xmlns="http://www.w3.org/2000/svg"
   xmlns:svg="http://www.w3.org/2000/svg"
   xmlns:rdf="http://www.w3.org/1999/02/22-rdf-syntax-ns#"
   xmlns:cc="http://creativecommons.org/ns#"
   xmlns:dc="http://purl.org/dc/elements/1.1/">
  <metadata
     id="metadata77">
    <rdf:RDF>
      <cc:Work
         rdf:about="">
        <dc:format>image/svg+xml</dc:format>
        <dc:type
           rdf:resource="http://purl.org/dc/dcmitype/StillImage" />
      </cc:Work>
    </rdf:RDF>
  </metadata>
  <sodipodi:namedview
     pagecolor="#f5f7fa"
     bordercolor="#666666"
     borderopacity="1"
     objecttolerance="10"
     gridtolerance="10"
     guidetolerance="10"
     inkscape:pageopacity="0"
     inkscape:pageshadow="2"
     inkscape:window-width="1377"
     inkscape:window-height="886"
     id="namedview75"
     showgrid="false"
     inkscape:zoom="6.2890624"
     inkscape:cx="47.622361"
     inkscape:cy="45.396274"
     inkscape:window-x="0"
     inkscape:window-y="48"
     inkscape:window-maximized="0"
     inkscape:current-layer="g877"
     inkscape:document-rotation="0"
     inkscape:pagecheckerboard="0"
     inkscape:showpageshadow="2"
     inkscape:deskcolor="#d1d1d1" />
  <defs
     id="defs29" />
  <circle
     cx="32.516094"
     cy="31.877844"
     r="0"
     fill="url(#b)"
     stroke-width="1.5715"
     id="circle41"
     style="fill:url(#b)" />
  <g
     aria-label="GZ"
     transform="matrix(1.2212657,0,0,0.81882264,0.4960938,-0.1661539)"
     id="text93"
     style="font-weight:bold;font-size:11.5263px;line-height:1.25;font-family:sans-serif;-inkscape-font-specification:'sans-serif Bold';fill:#f2f2f2;stroke-width:0.288159" />
  <g
     id="g877"
     transform="matrix(1.1,0,0,1.1,-3.1845928,-3.2065454)">
    <rect
       x="8.3496294"
       y="8.369586"
       width="47.272728"
       height="47.272728"
       rx="9.8825235"
       ry="9.6485243"
       fill="url(#linearGradient862)"
       stroke-width="3.0541"
       id="rect35-7-3"
       style="fill:#414141;fill-opacity:1;stroke:#dfdfdf;stroke-width:2.04545;stroke-dasharray:none;stroke-opacity:1" />
    <path
       style="fill:#dfdfdf;fill-opacity:1;stroke:none;stroke-width:1.00423;stroke-dasharray:none;stroke-opacity:0.3"
       d="M 21.140063,47.437069 C 19.47978,47.243707 18.087264,46.030414 17.6086,44.360137 17.50717,44.006228 17.495121,43.380811 17.475199,37.438144 l -0.02191,-6.532928 H 31.98442 46.515546 l -0.02092,6.532928 c -0.02444,7.28629 0.0056,6.806572 -0.486262,7.797364 -0.333681,0.672285 -1.095354,1.433984 -1.767639,1.767648 -0.656618,0.325918 -1.11164,0.43041 -2.088994,0.479879 l -0.825594,0.04183 -0.01738,-3.430364 -0.01739,-3.430375 -0.149978,-0.304481 c -0.191546,-0.388618 -0.58371,-0.780807 -0.972273,-0.972203 l -0.304482,-0.149947 -7.778295,-0.01708 c -8.937481,-0.01914 -8.161121,-0.07178 -8.82668,0.594927 -0.633226,0.634288 -0.610905,0.474912 -0.610905,4.361782 v 3.327868 l -0.534955,-0.0088 c -0.294231,-0.0053 -0.731633,-0.03176 -0.972023,-0.05939 z M 38.809608,35.928685 c 0.31427,-0.213537 0.43729,-0.46315 0.436996,-0.886508 -4.45e-4,-0.637197 -0.392282,-1.024013 -1.037246,-1.024013 -0.644979,0 -1.036792,0.386813 -1.03724,1.024013 -4.36e-4,0.652895 0.392114,1.050475 1.03724,1.050475 0.277124,0 0.413964,-0.03745 0.60026,-0.163977 z m 4.117673,0.03462 c 0.316438,-0.192924 0.469036,-0.488425 0.469036,-0.908153 0,-0.650817 -0.386185,-1.037006 -1.037004,-1.037006 -0.650816,0 -1.036998,0.386192 -1.036998,1.037006 0,0.650811 0.386189,1.036999 1.036998,1.036999 0.241773,0 0.424719,-0.0416 0.56798,-0.128856 z M 23.684527,45.94878 v -1.556235 h 8.2999 8.299905 v 1.556235 1.556232 h -8.299905 -8.2999 z M 17.476825,28.003484 c 0.03755,-2.075991 0.07172,-2.2967 0.484635,-3.128675 0.333477,-0.671911 1.095221,-1.433795 1.767646,-1.767957 0.796645,-0.395903 1.159033,-0.461788 2.561298,-0.465689 1.140076,-0.0035 1.251372,0.007 1.491386,0.135799 0.568253,0.305032 0.83126,0.706403 0.907292,1.384582 0.05897,0.525905 0.175705,0.814575 0.441487,1.091653 0.450482,0.469627 -0.407452,0.428495 9.706951,0.465338 l 9.110433,0.03317 0.383871,0.145446 c 0.545017,0.206493 0.882139,0.418006 1.23462,0.77463 0.62673,0.634077 0.857758,1.235429 0.91968,2.393886 l 0.04271,0.802042 H 31.986092 17.443148 Z m 9.040291,-3.418692 c -0.458336,-0.160597 -0.692774,-0.486012 -0.692774,-0.961611 0,-0.333574 0.192008,-0.661427 0.486546,-0.830808 0.10687,-0.06145 2.543243,-0.934228 5.414168,-1.939484 2.870922,-1.005262 6.882043,-2.409736 8.913596,-3.121057 4.036883,-1.413455 3.966794,-1.396736 4.383799,-1.045854 0.516832,0.434886 0.519427,1.201711 0.0053,1.567795 -0.102874,0.07306 -1.365286,0.545218 -2.805654,1.049212 -1.440409,0.503995 -3.727709,1.304345 -5.082935,1.778559 -8.343026,2.919357 -10.067332,3.519183 -10.212745,3.552648 -0.08917,0.02054 -0.273466,-0.0021 -0.40956,-0.04941 z"
       id="path1-3" />
  </g>
</svg>
