<?xml version="1.0" encoding="UTF-8" standalone="no"?>
<svg
   width="64"
   height="64"
   version="1.1"
   id="svg73"
   sodipodi:docname="audacious.svg"
   inkscape:version="1.4.2 (ebf0e940d0, 2025-05-08)"
   xmlns:inkscape="http://www.inkscape.org/namespaces/inkscape"
   xmlns:sodipodi="http://sodipodi.sourceforge.net/DTD/sodipodi-0.dtd"
   xmlns="http://www.w3.org/2000/svg"
   xmlns:svg="http://www.w3.org/2000/svg"
   xmlns:rdf="http://www.w3.org/1999/02/22-rdf-syntax-ns#"
   xmlns:cc="http://creativecommons.org/ns#"
   xmlns:dc="http://purl.org/dc/elements/1.1/">
  <metadata
     id="metadata77">
    <rdf:RDF>
      <cc:Work
         rdf:about="">
        <dc:format>image/svg+xml</dc:format>
        <dc:type
           rdf:resource="http://purl.org/dc/dcmitype/StillImage" />
      </cc:Work>
    </rdf:RDF>
  </metadata>
  <sodipodi:namedview
     pagecolor="#f5f7fa"
     bordercolor="#666666"
     borderopacity="1"
     objecttolerance="10"
     gridtolerance="10"
     guidetolerance="10"
     inkscape:pageopacity="0"
     inkscape:pageshadow="2"
     inkscape:window-width="1377"
     inkscape:window-height="886"
     id="namedview75"
     showgrid="false"
     inkscape:zoom="6.2890624"
     inkscape:cx="46.032299"
     inkscape:cy="39.036025"
     inkscape:window-x="62"
     inkscape:window-y="91"
     inkscape:window-maximized="0"
     inkscape:current-layer="g877"
     inkscape:document-rotation="0"
     inkscape:pagecheckerboard="0"
     inkscape:showpageshadow="2"
     inkscape:deskcolor="#d1d1d1" />
  <defs
     id="defs29" />
  <circle
     cx="32.516094"
     cy="31.877844"
     r="0"
     fill="url(#b)"
     stroke-width="1.5715"
     id="circle41"
     style="fill:url(#b)" />
  <g
     aria-label="GZ"
     transform="matrix(1.2212657,0,0,0.81882264,0.4960938,-0.1661539)"
     id="text93"
     style="font-weight:bold;font-size:11.5263px;line-height:1.25;font-family:sans-serif;-inkscape-font-specification:'sans-serif Bold';fill:#f2f2f2;stroke-width:0.288159" />
  <g
     id="g877"
     transform="matrix(1.1,0,0,1.1,-3.1845928,-3.2065454)">
    <rect
       x="8.3496294"
       y="8.369586"
       width="47.272728"
       height="47.272728"
       rx="9.8825235"
       ry="9.6485243"
       fill="url(#linearGradient862)"
       stroke-width="3.0541"
       id="rect35-7-3"
       style="fill:#414141;fill-opacity:1;stroke:#dfdfdf;stroke-width:2.04545;stroke-dasharray:none;stroke-opacity:1" />
    <path
       id="path15571"
       style="fill:#dfdfdf;stroke:none;stroke-width:0.974716;stroke-dasharray:none;stroke-opacity:1;fill-opacity:1"
       d="m 42.259216,16.1841 c -2.082748,0.037 -4.091443,1.331316 -5.079174,3.386749 -1.156655,2.406957 -0.970632,4.929573 0.416917,5.67124 0.393258,0.210202 0.591081,0.251482 0.982331,0.199893 1.918383,-0.252951 4.643505,-2.747188 5.893972,-5.395197 0.371164,-0.785915 0.405453,-0.941614 0.407416,-1.825682 l 0.0037,-0.967103 -0.44738,-0.416916 C 44.11753,16.538874 43.824547,16.383909 43.416622,16.296419 43.031801,16.213879 42.644838,16.17725 42.25914,16.184106 Z m -9.853752,1.483011 c -1.474701,0.03479 -2.362939,1.121445 -2.457727,3.006004 -0.02589,0.515272 0.0091,1.207627 0.07805,1.540124 0.175102,0.843456 0.680184,1.860191 1.09846,2.212145 0.71742,0.603672 1.419982,0.234026 2.132187,-1.121303 0.82317,-1.566498 1.09179,-3.7283 0.58635,-4.717465 -0.352946,-0.69074 -0.736976,-0.936028 -1.43732,-0.919505 z m -6.672606,1.437324 c -0.198421,-0.004 -0.412017,0.02948 -0.639656,0.09709 -1.243832,0.369375 -1.894377,1.486391 -1.661965,2.853704 0.221575,1.303574 1.25205,2.877773 2.143611,3.276334 0.192925,0.08624 0.498808,0.132513 0.679637,0.102795 1.267913,-0.208308 1.803246,-3.486908 0.870006,-5.328569 C 26.792358,19.450365 26.32812,19.1162 25.732858,19.104426 Z m -4.744117,5.073464 c -0.626227,-0.0023 -1.295846,0.318246 -1.673389,0.873816 -0.216603,0.31876 -0.251707,0.48599 -0.215117,1.008981 0.03554,0.508372 0.123837,0.744016 0.470223,1.246949 0.473418,0.687384 1.323023,1.385144 1.979889,1.625795 0.23603,0.08647 0.517854,0.161334 0.62633,0.165627 0.360226,0.01411 0.818682,-0.309658 0.942348,-0.664405 0.427488,-1.226293 -0.293289,-3.408677 -1.334521,-4.043544 -0.235176,-0.143393 -0.511114,-0.212157 -0.795763,-0.213219 z m 12.96256,2.86703 c -2.131039,0.03337 -4.52211,0.557419 -6.556478,1.562971 -3.698292,1.827997 -5.657798,4.686806 -5.437079,7.930966 0.09342,1.373208 0.427836,2.52271 1.166993,4.018797 1.821863,3.687554 5.21214,6.490897 8.671531,7.169478 0.756671,0.14839 2.071107,0.131517 2.693792,-0.03425 2.818095,-0.750327 5.425052,-3.514257 6.067216,-6.432728 0.117648,-0.534817 0.110889,-0.662935 -0.05329,-1.008985 -0.538754,-1.135371 -3.333389,-1.274683 -5.248606,-0.262744 -0.844683,0.446308 -0.995797,0.695477 -1.010885,1.661971 -0.02088,1.338633 -0.512938,1.946195 -1.568682,1.937999 -1.076831,-0.0086 -2.235863,-0.657262 -2.630986,-1.473474 -0.472882,-0.976842 -0.199643,-1.867632 0.87572,-2.863224 0.358567,-0.331973 1.877758,-1.414488 3.375329,-2.406331 3.317795,-2.197371 4.490895,-3.23454 5.13629,-4.540409 0.372584,-0.753887 0.41105,-0.91273 0.409296,-1.713366 -0.0022,-1.016602 -0.200196,-1.49723 -0.89285,-2.164552 -0.99445,-0.958087 -2.866271,-1.415508 -4.997314,-1.382116 z" />
  </g>
</svg>
