<?xml version="1.0" encoding="UTF-8" standalone="no"?>
<svg
   width="64"
   height="64"
   version="1.1"
   id="svg73"
   sodipodi:docname="audacious.svg"
   inkscape:version="1.4.2 (ebf0e940d0, 2025-05-08)"
   xmlns:inkscape="http://www.inkscape.org/namespaces/inkscape"
   xmlns:sodipodi="http://sodipodi.sourceforge.net/DTD/sodipodi-0.dtd"
   xmlns="http://www.w3.org/2000/svg"
   xmlns:svg="http://www.w3.org/2000/svg"
   xmlns:rdf="http://www.w3.org/1999/02/22-rdf-syntax-ns#"
   xmlns:cc="http://creativecommons.org/ns#"
   xmlns:dc="http://purl.org/dc/elements/1.1/">
  <metadata
     id="metadata77">
    <rdf:RDF>
      <cc:Work
         rdf:about="">
        <dc:format>image/svg+xml</dc:format>
        <dc:type
           rdf:resource="http://purl.org/dc/dcmitype/StillImage" />
      </cc:Work>
    </rdf:RDF>
  </metadata>
  <sodipodi:namedview
     pagecolor="#f5f7fa"
     bordercolor="#666666"
     borderopacity="1"
     objecttolerance="10"
     gridtolerance="10"
     guidetolerance="10"
     inkscape:pageopacity="0"
     inkscape:pageshadow="2"
     inkscape:window-width="1377"
     inkscape:window-height="886"
     id="namedview75"
     showgrid="false"
     inkscape:zoom="6.2890624"
     inkscape:cx="47.145342"
     inkscape:cy="40.467081"
     inkscape:window-x="62"
     inkscape:window-y="91"
     inkscape:window-maximized="0"
     inkscape:current-layer="g877"
     inkscape:document-rotation="0"
     inkscape:pagecheckerboard="0"
     inkscape:showpageshadow="2"
     inkscape:deskcolor="#d1d1d1" />
  <defs
     id="defs29" />
  <circle
     cx="32.516094"
     cy="31.877844"
     r="0"
     fill="url(#b)"
     stroke-width="1.5715"
     id="circle41"
     style="fill:url(#b)" />
  <g
     aria-label="GZ"
     transform="matrix(1.2212657,0,0,0.81882264,0.4960938,-0.1661539)"
     id="text93"
     style="font-weight:bold;font-size:11.5263px;line-height:1.25;font-family:sans-serif;-inkscape-font-specification:'sans-serif Bold';fill:#f2f2f2;stroke-width:0.288159" />
  <g
     id="g877"
     transform="matrix(1.1,0,0,1.1,-3.1845928,-3.2065454)">
    <rect
       x="8.3496294"
       y="8.369586"
       width="47.272728"
       height="47.272728"
       rx="9.8825235"
       ry="9.6485243"
       fill="url(#linearGradient862)"
       stroke-width="3.0541"
       id="rect35-7-3"
       style="fill:#414141;fill-opacity:1;stroke:#dfdfdf;stroke-width:2.04545;stroke-dasharray:none;stroke-opacity:1" />
    <path
       id="path5-7"
       style="fill:#dfdfdf;stroke:none;stroke-width:0.0426025;fill-opacity:1"
       d="m 31.986053,21.417429 c -6.801084,1.01e-4 -13.603438,0.0213 -13.761315,0.06382 -0.68498,0.184597 -1.208441,0.677869 -1.441946,1.358182 l -0.09174,0.265249 -0.01201,8.669629 c -0.0077,5.633398 0.004,8.795656 0.03194,9.026622 0.09788,0.810811 0.63884,1.468965 1.408042,1.715187 0.222244,0.07107 0.9611,0.07565 13.851063,0.0778 13.466979,0.0022 13.621203,0.0019 13.888959,-0.08177 0.347483,-0.108508 0.544712,-0.230819 0.83365,-0.516556 0.316178,-0.31264 0.511626,-0.724277 0.568406,-1.194636 0.02745,-0.230939 0.03977,-3.393227 0.03182,-9.026627 l -0.01194,-8.669631 -0.09176,-0.26525 c -0.231437,-0.674572 -0.765045,-1.177135 -1.441854,-1.358197 -0.159023,-0.04255 -6.960229,-0.06392 -13.761315,-0.06382 z m 0,1.992398 c 0.02204,-7.7e-5 1.302721,1.609468 2.845999,3.575947 l 2.806111,3.575948 -1.282395,0.01 -1.2804,0.01194 v 3.577911 3.577947 h -3.089315 -3.089317 v -3.577947 -3.577941 l -1.2804,-0.01197 -1.282394,-0.01 2.806112,-3.575947 c 1.543253,-1.966363 2.823942,-3.575834 2.845999,-3.575912 z m 0,1.709195 c -0.01818,0 -0.81289,0.994663 -1.767034,2.209789 l -1.735123,2.209786 0.739923,0.01197 0.737925,0.01201 v 3.555971 3.556002 h 2.024309 2.024309 v -3.55601 -3.556004 l 0.737926,-0.01197 0.73992,-0.01197 -1.735122,-2.209772 c -0.954142,-1.215118 -1.748837,-2.209788 -1.767033,-2.209788 z" />
  </g>
</svg>
