<?xml version="1.0" encoding="UTF-8" standalone="no"?>
<svg
   width="64"
   height="64"
   version="1.1"
   id="svg73"
   sodipodi:docname="audacious.svg"
   inkscape:version="1.4.2 (ebf0e940d0, 2025-05-08)"
   xmlns:inkscape="http://www.inkscape.org/namespaces/inkscape"
   xmlns:sodipodi="http://sodipodi.sourceforge.net/DTD/sodipodi-0.dtd"
   xmlns="http://www.w3.org/2000/svg"
   xmlns:svg="http://www.w3.org/2000/svg"
   xmlns:rdf="http://www.w3.org/1999/02/22-rdf-syntax-ns#"
   xmlns:cc="http://creativecommons.org/ns#"
   xmlns:dc="http://purl.org/dc/elements/1.1/">
  <metadata
     id="metadata77">
    <rdf:RDF>
      <cc:Work
         rdf:about="">
        <dc:format>image/svg+xml</dc:format>
        <dc:type
           rdf:resource="http://purl.org/dc/dcmitype/StillImage" />
      </cc:Work>
    </rdf:RDF>
  </metadata>
  <sodipodi:namedview
     pagecolor="#f5f7fa"
     bordercolor="#666666"
     borderopacity="1"
     objecttolerance="10"
     gridtolerance="10"
     guidetolerance="10"
     inkscape:pageopacity="0"
     inkscape:pageshadow="2"
     inkscape:window-width="1377"
     inkscape:window-height="886"
     id="namedview75"
     showgrid="false"
     inkscape:zoom="6.2890624"
     inkscape:cx="45.714286"
     inkscape:cy="39.513044"
     inkscape:window-x="0"
     inkscape:window-y="48"
     inkscape:window-maximized="0"
     inkscape:current-layer="g877"
     inkscape:document-rotation="0"
     inkscape:pagecheckerboard="0"
     inkscape:showpageshadow="2"
     inkscape:deskcolor="#d1d1d1" />
  <defs
     id="defs29" />
  <circle
     cx="32.516094"
     cy="31.877844"
     r="0"
     fill="url(#b)"
     stroke-width="1.5715"
     id="circle41"
     style="fill:url(#b)" />
  <g
     aria-label="GZ"
     transform="matrix(1.2212657,0,0,0.81882264,0.4960938,-0.1661539)"
     id="text93"
     style="font-weight:bold;font-size:11.5263px;line-height:1.25;font-family:sans-serif;-inkscape-font-specification:'sans-serif Bold';fill:#f2f2f2;stroke-width:0.288159" />
  <g
     id="g877"
     transform="matrix(1.1,0,0,1.1,-3.1845928,-3.2065454)">
    <rect
       x="8.3496294"
       y="8.369586"
       width="47.272728"
       height="47.272728"
       rx="9.8825235"
       ry="9.6485243"
       fill="url(#linearGradient862)"
       stroke-width="3.0541"
       id="rect35-7-3"
       style="fill:#414141;fill-opacity:1;stroke:#dfdfdf;stroke-width:2.04545;stroke-dasharray:none;stroke-opacity:1" />
    <path
       id="path12"
       style="fill:#dfdfdf;fill-opacity:1;stroke-width:0.139269;stroke-opacity:0.6"
       d="m 32.017814,18.730158 c -0.913022,0.01504 -1.891553,0.718236 -2.066406,1.592507 l -0.08875,0.448783 H 31.986 34.109342 l -0.08875,-0.448783 c -0.117873,-0.589357 -0.849433,-1.329654 -1.508778,-1.527198 -0.159166,-0.04769 -0.324918,-0.0681 -0.493996,-0.0653 z m -0.03183,4.452658 c -2.985976,0 -5.971417,1.024905 -8.476622,3.074491 -2.626531,2.148854 -4.474269,5.664004 -4.712207,8.963923 l -0.08373,1.14875 h 13.27257 13.272562 l -0.08373,-1.14875 c -0.237933,-3.299919 -2.085672,-6.815069 -4.712209,-8.963923 -2.505203,-2.049586 -5.490646,-3.074491 -8.47662,-3.074491 z m 0,15.554991 c -13.714003,0 -13.823317,0.0023 -14.32586,0.288025 -1.012955,0.57601 -1.058494,0.724716 -1.106884,3.645517 L 16.5097,45.28199 h 15.476279 15.47629 l -0.04354,-2.610641 c -0.04837,-2.920801 -0.09395,-3.069507 -1.106885,-3.645517 -0.502541,-0.285727 -0.611857,-0.288025 -14.325869,-0.288025 z" />
  </g>
</svg>
