<?xml version="1.0" encoding="UTF-8" standalone="no"?>
<svg
   width="64"
   height="64"
   version="1.1"
   id="svg73"
   sodipodi:docname="audacious.svg"
   inkscape:version="1.4.2 (ebf0e940d0, 2025-05-08)"
   xmlns:inkscape="http://www.inkscape.org/namespaces/inkscape"
   xmlns:sodipodi="http://sodipodi.sourceforge.net/DTD/sodipodi-0.dtd"
   xmlns="http://www.w3.org/2000/svg"
   xmlns:svg="http://www.w3.org/2000/svg"
   xmlns:rdf="http://www.w3.org/1999/02/22-rdf-syntax-ns#"
   xmlns:cc="http://creativecommons.org/ns#"
   xmlns:dc="http://purl.org/dc/elements/1.1/">
  <metadata
     id="metadata77">
    <rdf:RDF>
      <cc:Work
         rdf:about="">
        <dc:format>image/svg+xml</dc:format>
        <dc:type
           rdf:resource="http://purl.org/dc/dcmitype/StillImage" />
      </cc:Work>
    </rdf:RDF>
  </metadata>
  <sodipodi:namedview
     pagecolor="#f5f7fa"
     bordercolor="#666666"
     borderopacity="1"
     objecttolerance="10"
     gridtolerance="10"
     guidetolerance="10"
     inkscape:pageopacity="0"
     inkscape:pageshadow="2"
     inkscape:window-width="1377"
     inkscape:window-height="886"
     id="namedview75"
     showgrid="false"
     inkscape:zoom="6.2890624"
     inkscape:cx="47.622361"
     inkscape:cy="45.396274"
     inkscape:window-x="0"
     inkscape:window-y="48"
     inkscape:window-maximized="0"
     inkscape:current-layer="g877"
     inkscape:document-rotation="0"
     inkscape:pagecheckerboard="0"
     inkscape:showpageshadow="2"
     inkscape:deskcolor="#d1d1d1" />
  <defs
     id="defs29" />
  <circle
     cx="32.516094"
     cy="31.877844"
     r="0"
     fill="url(#b)"
     stroke-width="1.5715"
     id="circle41"
     style="fill:url(#b)" />
  <g
     aria-label="GZ"
     transform="matrix(1.2212657,0,0,0.81882264,0.4960938,-0.1661539)"
     id="text93"
     style="font-weight:bold;font-size:11.5263px;line-height:1.25;font-family:sans-serif;-inkscape-font-specification:'sans-serif Bold';fill:#f2f2f2;stroke-width:0.288159" />
  <g
     id="g877"
     transform="matrix(1.1,0,0,1.1,-3.1845928,-3.2065454)">
    <rect
       x="8.3496294"
       y="8.369586"
       width="47.272728"
       height="47.272728"
       rx="9.8825235"
       ry="9.6485243"
       fill="url(#linearGradient862)"
       stroke-width="3.0541"
       id="rect35-7-3"
       style="fill:#414141;fill-opacity:1;stroke:#dfdfdf;stroke-width:2.04545;stroke-dasharray:none;stroke-opacity:1" />
    <path
       style="fill:#dfdfdf;stroke-width:0.168517;fill-opacity:1"
       d="m 19.508037,44.938025 c -0.131357,-0.245426 -0.04522,-0.975047 0.341288,-2.890753 l 0.516982,-2.562483 -0.748756,-0.774459 c -2.223181,-2.299485 -3.225108,-4.356858 -3.428458,-7.040042 -0.420449,-5.547961 4.065832,-10.626141 11.019236,-12.473057 1.469892,-0.390422 1.97486,-0.439002 4.680921,-0.45033 2.604942,-0.01095 3.243638,0.04026 4.522939,0.362353 5.347682,1.34637 9.409571,4.588605 10.854305,8.66399 1.899142,5.357231 -1.309507,11.285438 -7.568865,13.983991 -2.599708,1.120792 -3.741751,1.35359 -7.082383,1.443665 -2.601243,0.07018 -3.208314,0.03373 -4.761582,-0.284194 l -1.780235,-0.364585 -2.864344,1.357104 c -1.575388,0.746408 -3.013073,1.357104 -3.194854,1.357104 -0.181782,0 -0.409569,-0.147709 -0.506194,-0.328272 z m 12.676114,-7.247173 c 0.913428,-1.022222 0.493159,-2.6141 -0.803088,-3.041899 -2.070964,-0.68348 -3.411194,2.219689 -1.560332,3.379954 0.781486,0.489901 1.74698,0.351796 2.36342,-0.338073 z m 5.182539,-6.159251 2.608598,-2.612677 -2.65045,-2.65045 -2.650451,-2.65045 -1.013412,1.002834 c -0.557373,0.551559 -1.013406,1.079539 -1.013406,1.17329 0,0.09377 0.661948,0.835487 1.470998,1.648302 l 1.470998,1.477845 -1.470998,1.477846 c -0.80905,0.812813 -1.470998,1.549976 -1.470998,1.63814 0,0.167187 1.858821,2.107996 2.018948,2.107996 0.05039,0 1.265443,-1.175705 2.700173,-2.612676 z m -9.713057,0.07271 c 0.358227,-0.281787 0.444011,-0.491035 0.444011,-1.083121 0,-0.592085 -0.08579,-0.801331 -0.444011,-1.083119 -1.405322,-1.105424 -3.143501,0.786756 -1.919538,2.089606 0.498163,0.530265 1.302032,0.562358 1.919538,0.07664 z m 2.095468,-6.256546 c 0.111242,-0.111218 0.202207,-0.437299 0.202207,-0.724619 0,-0.661498 -0.265335,-0.926834 -0.926835,-0.926834 -0.6615,0 -0.926838,0.265338 -0.926838,0.926834 0,0.661502 0.265339,0.926837 0.926838,0.926837 0.287336,0 0.613399,-0.091 0.72462,-0.202218 z"
       id="path3-6" />
  </g>
</svg>
