<?xml version="1.0" encoding="UTF-8" standalone="no"?>
<svg
   width="64"
   height="64"
   version="1.1"
   id="svg73"
   sodipodi:docname="accessories-calculator.svg"
   inkscape:version="1.4.2 (ebf0e940d0, 2025-05-08)"
   xmlns:inkscape="http://www.inkscape.org/namespaces/inkscape"
   xmlns:sodipodi="http://sodipodi.sourceforge.net/DTD/sodipodi-0.dtd"
   xmlns="http://www.w3.org/2000/svg"
   xmlns:svg="http://www.w3.org/2000/svg"
   xmlns:rdf="http://www.w3.org/1999/02/22-rdf-syntax-ns#"
   xmlns:cc="http://creativecommons.org/ns#"
   xmlns:dc="http://purl.org/dc/elements/1.1/">
  <metadata
     id="metadata77">
    <rdf:RDF>
      <cc:Work
         rdf:about="">
        <dc:format>image/svg+xml</dc:format>
        <dc:type
           rdf:resource="http://purl.org/dc/dcmitype/StillImage" />
      </cc:Work>
    </rdf:RDF>
  </metadata>
  <sodipodi:namedview
     pagecolor="#f5f7fa"
     bordercolor="#666666"
     borderopacity="1"
     objecttolerance="10"
     gridtolerance="10"
     guidetolerance="10"
     inkscape:pageopacity="0"
     inkscape:pageshadow="2"
     inkscape:window-width="1377"
     inkscape:window-height="886"
     id="namedview75"
     showgrid="false"
     inkscape:zoom="6.2890624"
     inkscape:cx="47.622361"
     inkscape:cy="45.396274"
     inkscape:window-x="147"
     inkscape:window-y="75"
     inkscape:window-maximized="0"
     inkscape:current-layer="g877"
     inkscape:document-rotation="0"
     inkscape:pagecheckerboard="0"
     inkscape:showpageshadow="2"
     inkscape:deskcolor="#d1d1d1" />
  <defs
     id="defs29">
    <linearGradient
       id="b"
       x1="399.57"
       x2="399.57"
       y1="545.8"
       y2="517.8"
       gradientTransform="matrix(2.1429,0,0,2.1429,-825.86391,-1107.6662)"
       gradientUnits="userSpaceOnUse">
      <stop
         stop-color="#3889e9"
         offset="0"
         id="stop2" />
      <stop
         stop-color="#5ea5fb"
         offset="1"
         id="stop4" />
    </linearGradient>
  </defs>
  <circle
     cx="32.516094"
     cy="31.877844"
     r="0"
     fill="url(#b)"
     stroke-width="1.5715"
     id="circle41"
     style="fill:url(#b)" />
  <g
     aria-label="GZ"
     transform="matrix(1.2212657,0,0,0.81882264,0.4960938,-0.1661539)"
     id="text93"
     style="font-weight:bold;font-size:11.5263px;line-height:1.25;font-family:sans-serif;-inkscape-font-specification:'sans-serif Bold';fill:#f2f2f2;stroke-width:0.288159" />
  <g
     id="g877"
     transform="matrix(1.1,0,0,1.1,-3.1845928,-3.2065454)">
    <rect
       x="8.3496294"
       y="8.369586"
       width="47.272728"
       height="47.272728"
       rx="9.8825235"
       ry="9.6485243"
       fill="url(#linearGradient862)"
       stroke-width="3.0541"
       id="rect35-7-3"
       style="fill:#414141;fill-opacity:1;stroke:#dfdfdf;stroke-width:2.04545;stroke-dasharray:none;stroke-opacity:1" />
    <path
       style="fill:#dfdfdf;fill-opacity:1;stroke:none;stroke-width:0.482482;stroke-dasharray:none;stroke-opacity:0.6"
       d="m 31.985993,16.922261 c -8.330506,0 -15.083689,6.753184 -15.083689,15.083689 v 15.083691 h 15.083689 c 8.330512,0 15.083692,-6.753179 15.083692,-15.083691 0,-8.330505 -6.75318,-15.083689 -15.083692,-15.083689 z m 0,8.619252 a 6.4644382,6.4644382 0 0 1 6.464441,6.464437 6.4644382,6.4644382 0 0 1 -6.464441,6.464436 6.4644382,6.4644382 0 0 1 -6.464438,-6.464436 6.4644382,6.4644382 0 0 1 6.464438,-6.464437 z"
       id="path2072" />
    <rect
       x="37.737823"
       y="37.757782"
       width="22.610399"
       height="22.610399"
       rx="4.7267799"
       ry="4.6148596"
       fill="url(#linearGradient862)"
       stroke-width="3.0541"
       id="rect35-7-3-1"
       style="fill:#414141;fill-opacity:1;stroke:#dfdfdf;stroke-width:0.978336;stroke-dasharray:none;stroke-opacity:1" />
    <path
       style="fill:#dfdfdf;fill-opacity:1;stroke:none;stroke-width:0.26601;stroke-dasharray:none;stroke-opacity:0.6"
       d="m 42.33219,57.148754 c -0.355306,-0.143735 -0.654126,-0.606986 -0.715555,-1.109305 -0.03201,-0.261552 -0.04514,-2.021416 -0.02924,-3.910823 0.02642,-3.136447 0.04315,-3.456221 0.192428,-3.676089 0.24302,-0.357943 0.681761,-0.527599 1.364401,-0.527599 h 0.596552 l 9.03e-4,-1.830641 c 0.0013,-2.449962 0.190388,-3.128096 1.145061,-4.109444 0.878368,-0.902913 2.26231,-1.379336 4.006778,-1.379336 1.635177,0 2.903994,0.400365 3.755104,1.184891 0.59463,0.548112 0.902597,1.031086 1.181262,1.852523 0.22013,0.648895 0.245201,0.867375 0.286478,2.496567 l 0.04526,1.78544 0.597839,3.36e-4 c 0.440057,2.51e-4 0.6768,0.04848 0.897073,0.182783 0.549518,0.335032 0.559574,0.415539 0.559574,4.478616 0,4.06591 -0.0082,4.130378 -0.58038,4.479197 -0.265748,0.162074 -0.571017,0.16955 -6.696979,0.164412 -3.530206,-0.0029 -6.503229,-0.03966 -6.606727,-0.08151 z m 9.725592,-10.847661 c 0,-1.418188 -0.02357,-1.686874 -0.186204,-2.121517 -0.228081,-0.609601 -0.799651,-1.145904 -1.470821,-1.38007 -0.563806,-0.196712 -2.249943,-0.225795 -2.832101,-0.04886 -0.678225,0.206141 -1.2203,0.646389 -1.520578,1.234947 -0.271179,0.531526 -0.27346,0.54839 -0.302882,2.237449 l -0.02964,1.701886 h 3.171117 3.17111 z"
       id="path53" />
  </g>
</svg>
