<?xml version="1.0" encoding="UTF-8" standalone="no"?>
<svg
   width="64"
   height="64"
   version="1.1"
   id="svg73"
   sodipodi:docname="audacious.svg"
   inkscape:version="1.4.2 (ebf0e940d0, 2025-05-08)"
   xmlns:inkscape="http://www.inkscape.org/namespaces/inkscape"
   xmlns:sodipodi="http://sodipodi.sourceforge.net/DTD/sodipodi-0.dtd"
   xmlns="http://www.w3.org/2000/svg"
   xmlns:svg="http://www.w3.org/2000/svg"
   xmlns:rdf="http://www.w3.org/1999/02/22-rdf-syntax-ns#"
   xmlns:cc="http://creativecommons.org/ns#"
   xmlns:dc="http://purl.org/dc/elements/1.1/">
  <metadata
     id="metadata77">
    <rdf:RDF>
      <cc:Work
         rdf:about="">
        <dc:format>image/svg+xml</dc:format>
        <dc:type
           rdf:resource="http://purl.org/dc/dcmitype/StillImage" />
      </cc:Work>
    </rdf:RDF>
  </metadata>
  <sodipodi:namedview
     pagecolor="#f5f7fa"
     bordercolor="#666666"
     borderopacity="1"
     objecttolerance="10"
     gridtolerance="10"
     guidetolerance="10"
     inkscape:pageopacity="0"
     inkscape:pageshadow="2"
     inkscape:window-width="1377"
     inkscape:window-height="886"
     id="namedview75"
     showgrid="false"
     inkscape:zoom="6.2890624"
     inkscape:cx="46.032299"
     inkscape:cy="39.036025"
     inkscape:window-x="62"
     inkscape:window-y="91"
     inkscape:window-maximized="0"
     inkscape:current-layer="g877"
     inkscape:document-rotation="0"
     inkscape:pagecheckerboard="0"
     inkscape:showpageshadow="2"
     inkscape:deskcolor="#d1d1d1" />
  <defs
     id="defs29" />
  <circle
     cx="32.516094"
     cy="31.877844"
     r="0"
     fill="url(#b)"
     stroke-width="1.5715"
     id="circle41"
     style="fill:url(#b)" />
  <g
     aria-label="GZ"
     transform="matrix(1.2212657,0,0,0.81882264,0.4960938,-0.1661539)"
     id="text93"
     style="font-weight:bold;font-size:11.5263px;line-height:1.25;font-family:sans-serif;-inkscape-font-specification:'sans-serif Bold';fill:#f2f2f2;stroke-width:0.288159" />
  <g
     id="g877"
     transform="matrix(1.1,0,0,1.1,-3.1845928,-3.2065454)">
    <rect
       x="8.3496294"
       y="8.369586"
       width="47.272728"
       height="47.272728"
       rx="9.8825235"
       ry="9.6485243"
       fill="url(#linearGradient862)"
       stroke-width="3.0541"
       id="rect35-7-3"
       style="fill:#414141;fill-opacity:1;stroke:#dfdfdf;stroke-width:2.04545;stroke-dasharray:none;stroke-opacity:1" />
    <path
       style="fill:#dfdfdf;stroke:none;stroke-width:1.05086;stroke-dasharray:none;stroke-dashoffset:2.2;stroke-opacity:0.3;fill-opacity:1"
       d="m 30.439943,48.014216 c -0.165962,-0.02864 -0.681959,-0.112289 -1.146656,-0.186375 -1.946179,-0.310371 -4.282302,-1.265139 -6.160834,-2.517915 -1.188095,-0.792335 -3.292676,-2.902962 -4.098074,-4.109843 -1.228538,-1.840939 -2.094305,-3.92452 -2.557058,-6.153844 -0.294343,-1.418024 -0.296297,-4.605162 -0.0038,-6.057021 0.672063,-3.334886 2.097169,-6.003982 4.47561,-8.382425 1.913505,-1.913502 3.689749,-3.024734 6.150761,-3.847951 5.599861,-1.873177 11.725331,-0.39317 15.956549,3.855352 2.335255,2.344798 3.887081,5.327523 4.462905,8.578067 0.282957,1.597299 0.258231,4.259567 -0.05439,5.864887 -1.267212,6.506034 -6.069522,11.395015 -12.498803,12.724343 -0.918871,0.189988 -3.884715,0.342512 -4.526272,0.232755 z M 27.395474,38.0142 32.860395,33.697758 32.143006,32.893415 c -0.394566,-0.442388 -0.969804,-1.04876 -1.278308,-1.347494 l -0.560915,-0.543152 -0.222178,0.301752 c -0.122195,0.165965 -2.072918,2.71878 -4.334944,5.67292 -2.262024,2.95414 -4.113919,5.41856 -4.115316,5.476481 -0.0015,0.05793 0.06535,0.05378 0.148332,-0.0088 0.08297,-0.06281 2.610089,-2.056689 5.615796,-4.430737 z M 38.285099,27.154064 c 2.261329,-2.913411 4.08773,-5.320885 4.058682,-5.349939 -0.04011,-0.04025 -10.063935,7.683573 -10.632337,8.192757 -0.120055,0.107548 2.206822,2.543294 2.37396,2.485036 0.04852,-0.01691 1.938371,-2.41444 4.199695,-5.327854 z"
       id="path68" />
  </g>
</svg>
