<?xml version="1.0" encoding="UTF-8" standalone="no"?>
<svg
   width="64"
   height="64"
   version="1.1"
   id="svg73"
   sodipodi:docname="audacious.svg"
   inkscape:version="1.4.2 (ebf0e940d0, 2025-05-08)"
   xmlns:inkscape="http://www.inkscape.org/namespaces/inkscape"
   xmlns:sodipodi="http://sodipodi.sourceforge.net/DTD/sodipodi-0.dtd"
   xmlns="http://www.w3.org/2000/svg"
   xmlns:svg="http://www.w3.org/2000/svg"
   xmlns:rdf="http://www.w3.org/1999/02/22-rdf-syntax-ns#"
   xmlns:cc="http://creativecommons.org/ns#"
   xmlns:dc="http://purl.org/dc/elements/1.1/">
  <metadata
     id="metadata77">
    <rdf:RDF>
      <cc:Work
         rdf:about="">
        <dc:format>image/svg+xml</dc:format>
        <dc:type
           rdf:resource="http://purl.org/dc/dcmitype/StillImage" />
      </cc:Work>
    </rdf:RDF>
  </metadata>
  <sodipodi:namedview
     pagecolor="#f5f7fa"
     bordercolor="#666666"
     borderopacity="1"
     objecttolerance="10"
     gridtolerance="10"
     guidetolerance="10"
     inkscape:pageopacity="0"
     inkscape:pageshadow="2"
     inkscape:window-width="1377"
     inkscape:window-height="886"
     id="namedview75"
     showgrid="false"
     inkscape:zoom="6.2890624"
     inkscape:cx="47.622361"
     inkscape:cy="45.396274"
     inkscape:window-x="0"
     inkscape:window-y="48"
     inkscape:window-maximized="0"
     inkscape:current-layer="g877"
     inkscape:document-rotation="0"
     inkscape:pagecheckerboard="0"
     inkscape:showpageshadow="2"
     inkscape:deskcolor="#d1d1d1" />
  <defs
     id="defs29" />
  <circle
     cx="32.516094"
     cy="31.877844"
     r="0"
     fill="url(#b)"
     stroke-width="1.5715"
     id="circle41"
     style="fill:url(#b)" />
  <g
     aria-label="GZ"
     transform="matrix(1.2212657,0,0,0.81882264,0.4960938,-0.1661539)"
     id="text93"
     style="font-weight:bold;font-size:11.5263px;line-height:1.25;font-family:sans-serif;-inkscape-font-specification:'sans-serif Bold';fill:#f2f2f2;stroke-width:0.288159" />
  <g
     id="g877"
     transform="matrix(1.1,0,0,1.1,-3.1845928,-3.2065454)">
    <rect
       x="8.3496294"
       y="8.369586"
       width="47.272728"
       height="47.272728"
       rx="9.8825235"
       ry="9.6485243"
       fill="url(#linearGradient862)"
       stroke-width="3.0541"
       id="rect35-7-3"
       style="fill:#414141;fill-opacity:1;stroke:#dfdfdf;stroke-width:2.04545;stroke-dasharray:none;stroke-opacity:1" />
    <path
       style="fill:#dfdfdf;fill-opacity:1;stroke:none;stroke-width:0.119158;stroke-dashoffset:2.2;stroke-opacity:0.3"
       d="m 18.077801,47.261202 c -0.55301,-0.29153 -0.904839,-0.651728 -1.145108,-1.17232 -0.200706,-0.434874 -0.220209,-0.849889 -0.222597,-4.736554 l -0.0026,-4.259913 0.506424,0.0028 c 0.342182,0.0019 0.699648,0.116423 1.102214,0.353203 1.814985,1.0675 2.495799,1.19848 3.350152,0.644508 1.091455,-0.707713 1.650785,-2.117657 1.573329,-3.966002 -0.07192,-1.716233 -0.687502,-2.912442 -1.790824,-3.479965 -0.777635,-0.399998 -1.434529,-0.26079 -2.763652,0.585661 -0.73284,0.46671 -1.310239,0.660646 -1.686078,0.566316 l -0.291567,-0.07318 v -3.340084 c 0,-3.625744 0.0119,-3.701197 0.698764,-4.441105 0.681992,-0.734626 0.656037,-0.730675 5.064426,-0.771173 l 4.035392,-0.03706 -0.04967,-0.686507 c -0.04006,-0.553902 -0.157665,-0.867997 -0.60883,-1.626112 -0.909686,-1.528591 -0.905195,-2.225154 0.02031,-3.150668 0.815819,-0.815819 1.662466,-1.120598 3.11291,-1.120598 1.450443,0 2.297089,0.304779 3.112908,1.120598 0.925514,0.925514 0.930007,1.622077 0.02032,3.150668 -0.453236,0.761598 -0.568681,1.071044 -0.609357,1.633395 l -0.05018,0.693787 h 3.448287 c 3.884593,0 4.365305,0.07129 4.999773,0.741476 0.704619,0.744289 0.691408,0.65518 0.755787,5.097289 l 0.05959,4.110969 0.283752,0.04015 c 0.521421,0.07374 1.019377,-0.09484 2.020333,-0.683981 0.546322,-0.321546 1.176498,-0.619 1.400392,-0.661003 0.845186,-0.158557 1.951154,0.659212 2.442835,1.806261 0.982595,2.292302 0.06164,5.330484 -1.783314,5.883252 -0.448249,0.134277 -0.52888,0.116925 -1.347936,-0.290558 -0.479143,-0.238339 -1.112043,-0.569959 -1.406452,-0.736934 -0.400205,-0.226985 -0.670781,-0.29476 -1.072404,-0.268464 l -0.53714,0.03529 -0.05959,3.813071 c -0.06414,4.104878 -0.07636,4.184519 -0.733418,4.782191 -0.657129,0.597724 -0.885253,0.63952 -3.49079,0.63952 h -2.448678 v -0.456447 c 0,-0.2654 0.131431,-0.70175 0.314073,-1.04264 0.172741,-0.3224 0.467659,-0.875263 0.655372,-1.228566 1.025639,-1.930407 -0.4505,-3.716282 -3.233456,-3.911922 -2.131239,-0.149802 -4.054227,0.956105 -4.254147,2.446611 -0.0782,0.583069 0.08561,1.096093 0.639194,2.001865 0.496991,0.813167 0.765683,1.588863 0.673055,1.943075 -0.06446,0.246516 -0.09611,0.247989 -5.204562,0.243276 -4.45006,-0.0042 -5.187673,-0.03013 -5.497182,-0.193225 z"
       id="path1-7" />
  </g>
</svg>
