<?xml version="1.0" encoding="UTF-8" standalone="no"?>
<svg
   width="64"
   height="64"
   version="1.1"
   id="svg73"
   sodipodi:docname="audacious.svg"
   inkscape:version="1.4.2 (ebf0e940d0, 2025-05-08)"
   xmlns:inkscape="http://www.inkscape.org/namespaces/inkscape"
   xmlns:sodipodi="http://sodipodi.sourceforge.net/DTD/sodipodi-0.dtd"
   xmlns="http://www.w3.org/2000/svg"
   xmlns:svg="http://www.w3.org/2000/svg"
   xmlns:rdf="http://www.w3.org/1999/02/22-rdf-syntax-ns#"
   xmlns:cc="http://creativecommons.org/ns#"
   xmlns:dc="http://purl.org/dc/elements/1.1/">
  <metadata
     id="metadata77">
    <rdf:RDF>
      <cc:Work
         rdf:about="">
        <dc:format>image/svg+xml</dc:format>
        <dc:type
           rdf:resource="http://purl.org/dc/dcmitype/StillImage" />
      </cc:Work>
    </rdf:RDF>
  </metadata>
  <sodipodi:namedview
     pagecolor="#f5f7fa"
     bordercolor="#666666"
     borderopacity="1"
     objecttolerance="10"
     gridtolerance="10"
     guidetolerance="10"
     inkscape:pageopacity="0"
     inkscape:pageshadow="2"
     inkscape:window-width="1377"
     inkscape:window-height="886"
     id="namedview75"
     showgrid="false"
     inkscape:zoom="6.2890624"
     inkscape:cx="45.714286"
     inkscape:cy="39.831057"
     inkscape:window-x="0"
     inkscape:window-y="48"
     inkscape:window-maximized="0"
     inkscape:current-layer="g877"
     inkscape:document-rotation="0"
     inkscape:pagecheckerboard="0"
     inkscape:showpageshadow="2"
     inkscape:deskcolor="#d1d1d1" />
  <defs
     id="defs29" />
  <circle
     cx="32.516094"
     cy="31.877844"
     r="0"
     fill="url(#b)"
     stroke-width="1.5715"
     id="circle41"
     style="fill:url(#b)" />
  <g
     aria-label="GZ"
     transform="matrix(1.2212657,0,0,0.81882264,0.4960938,-0.1661539)"
     id="text93"
     style="font-weight:bold;font-size:11.5263px;line-height:1.25;font-family:sans-serif;-inkscape-font-specification:'sans-serif Bold';fill:#f2f2f2;stroke-width:0.288159" />
  <g
     id="g877"
     transform="matrix(1.1,0,0,1.1,-3.1845928,-3.2065454)">
    <rect
       x="8.3496294"
       y="8.369586"
       width="47.272728"
       height="47.272728"
       rx="9.8825235"
       ry="9.6485243"
       fill="url(#linearGradient862)"
       stroke-width="3.0541"
       id="rect35-7-3"
       style="fill:#414141;fill-opacity:1;stroke:#dfdfdf;stroke-width:2.04545;stroke-dasharray:none;stroke-opacity:1" />
    <path
       d="m 26.358121,20.791951 c -0.578208,0 -1.043746,0.46554 -1.043746,1.043746 v 2.12089 c 0,0.578208 0.465538,1.043746 1.043746,1.043746 H 37.61387 c 0.578204,0 1.043744,-0.465538 1.043744,-1.043746 v -2.12089 c 0,-0.578206 -0.46554,-1.043746 -1.043744,-1.043746 z m 0.951895,1.260844 c 0.02281,-0.0045 0.04268,0 0.06679,0 h 2.555088 c 0.192978,0 0.350698,0.149375 0.350698,0.34235 v 0.993646 c 0,0.192978 -0.15772,0.350698 -0.350698,0.350698 h -2.55509 c -0.192977,0 -0.350698,-0.15772 -0.350698,-0.350698 v -0.993646 c 0,-0.168856 0.12443,-0.31112 0.283898,-0.34235 z m -0.951895,4.80958 c -0.578208,0 -1.043746,0.465538 -1.043746,1.043745 v 2.120891 c 0,0.578206 0.465538,1.043743 1.043746,1.043743 H 37.61387 c 0.578204,0 1.043744,-0.465537 1.043744,-1.043743 V 27.90612 c 0,-0.578207 -0.46554,-1.043745 -1.043744,-1.043745 z m 0.951895,1.260843 c 0.02281,-0.0045 0.04268,0 0.06679,0 h 2.555088 c 0.192978,0 0.350698,0.149375 0.350698,0.342348 v 0.993646 c 0,0.192977 -0.15772,0.350699 -0.350698,0.350699 h -2.55509 c -0.192977,0 -0.350698,-0.157722 -0.350698,-0.350699 v -0.993646 c 0,-0.168852 0.12443,-0.311117 0.283898,-0.342348 z m -5.728073,1.361045 -5.310577,2.521688 5.310577,2.521687 v -1.319294 h 2.095839 c 0.304628,0 0.551098,-0.246467 0.551098,-0.551097 v -1.302593 c 0,-0.304628 -0.246469,-0.551097 -0.551098,-0.551097 h -2.095839 z m 20.808106,0 v 1.319294 h -2.087495 c -0.304618,0 -0.551096,0.246467 -0.551096,0.551097 v 1.302593 c 0,0.304628 0.246478,0.551097 0.551096,0.551097 h 2.087495 v 1.319294 l 5.310572,-2.521687 z m -16.031928,3.456884 c -0.578208,0 -1.043746,0.465538 -1.043746,1.043743 v 2.120891 c 0,0.578209 0.465538,1.043744 1.043746,1.043744 H 37.61387 c 0.578204,0 1.043744,-0.465535 1.043744,-1.043744 V 33.98489 c 0,-0.578205 -0.46554,-1.043743 -1.043744,-1.043743 z m 0.951895,1.260843 c 0.02281,-0.0045 0.04268,0 0.06679,0 h 2.555088 c 0.192978,0 0.350698,0.149375 0.350698,0.342348 v 0.993645 c 0,0.192984 -0.15772,0.350699 -0.350698,0.350699 h -2.55509 c -0.192977,0 -0.350698,-0.157724 -0.350698,-0.350699 v -0.993645 c 0,-0.168852 0.12443,-0.311118 0.283898,-0.342348 z m -0.951895,4.809579 c -0.578208,0 -1.043746,0.465536 -1.043746,1.043741 v 2.120895 c 0,0.578205 0.465538,1.043744 1.043746,1.043744 H 37.61387 c 0.578204,0 1.043744,-0.465539 1.043744,-1.043744 V 40.05531 c 0,-0.578205 -0.46554,-1.043741 -1.043744,-1.043741 z m 0.951895,1.260849 c 0.02281,-0.0043 0.04268,0 0.06679,0 h 2.555088 c 0.192978,0 0.350698,0.149335 0.350698,0.342342 v 0.993647 c 0,0.192995 -0.15772,0.350699 -0.350698,0.350699 h -2.55509 c -0.192977,0 -0.350698,-0.157704 -0.350698,-0.350699 V 40.61476 c 0,-0.168871 0.12443,-0.311118 0.283898,-0.342342 z"
       fill="url(#a)"
       id="path2"
       style="fill:#dfdfdf;fill-opacity:1;stroke-width:0.267199" />
  </g>
</svg>
