<?xml version="1.0" encoding="UTF-8" standalone="no"?>
<svg
   width="64"
   height="64"
   version="1.1"
   id="svg73"
   sodipodi:docname="audacious.svg"
   inkscape:version="1.4.2 (ebf0e940d0, 2025-05-08)"
   xmlns:inkscape="http://www.inkscape.org/namespaces/inkscape"
   xmlns:sodipodi="http://sodipodi.sourceforge.net/DTD/sodipodi-0.dtd"
   xmlns="http://www.w3.org/2000/svg"
   xmlns:svg="http://www.w3.org/2000/svg"
   xmlns:rdf="http://www.w3.org/1999/02/22-rdf-syntax-ns#"
   xmlns:cc="http://creativecommons.org/ns#"
   xmlns:dc="http://purl.org/dc/elements/1.1/">
  <metadata
     id="metadata77">
    <rdf:RDF>
      <cc:Work
         rdf:about="">
        <dc:format>image/svg+xml</dc:format>
        <dc:type
           rdf:resource="http://purl.org/dc/dcmitype/StillImage" />
      </cc:Work>
    </rdf:RDF>
  </metadata>
  <sodipodi:namedview
     pagecolor="#f5f7fa"
     bordercolor="#666666"
     borderopacity="1"
     objecttolerance="10"
     gridtolerance="10"
     guidetolerance="10"
     inkscape:pageopacity="0"
     inkscape:pageshadow="2"
     inkscape:window-width="1377"
     inkscape:window-height="886"
     id="namedview75"
     showgrid="false"
     inkscape:zoom="6.2890624"
     inkscape:cx="47.145342"
     inkscape:cy="40.467081"
     inkscape:window-x="62"
     inkscape:window-y="91"
     inkscape:window-maximized="0"
     inkscape:current-layer="g877"
     inkscape:document-rotation="0"
     inkscape:pagecheckerboard="0"
     inkscape:showpageshadow="2"
     inkscape:deskcolor="#d1d1d1" />
  <defs
     id="defs29" />
  <circle
     cx="32.516094"
     cy="31.877844"
     r="0"
     fill="url(#b)"
     stroke-width="1.5715"
     id="circle41"
     style="fill:url(#b)" />
  <g
     aria-label="GZ"
     transform="matrix(1.2212657,0,0,0.81882264,0.4960938,-0.1661539)"
     id="text93"
     style="font-weight:bold;font-size:11.5263px;line-height:1.25;font-family:sans-serif;-inkscape-font-specification:'sans-serif Bold';fill:#f2f2f2;stroke-width:0.288159" />
  <g
     id="g877"
     transform="matrix(1.1,0,0,1.1,-3.1845928,-3.2065454)">
    <rect
       x="8.3496294"
       y="8.369586"
       width="47.272728"
       height="47.272728"
       rx="9.8825235"
       ry="9.6485243"
       fill="url(#linearGradient862)"
       stroke-width="3.0541"
       id="rect35-7-3"
       style="fill:#414141;fill-opacity:1;stroke:#dfdfdf;stroke-width:2.04545;stroke-dasharray:none;stroke-opacity:1" />
    <path
       style="fill:#dfdfdf;fill-opacity:1;stroke:none;stroke-width:0.985559;stroke-dasharray:none;stroke-dashoffset:2.2;stroke-opacity:0.3"
       d="m 20.199812,44.565902 c -0.122558,-0.09638 -0.247612,-0.288088 -0.2779,-0.425982 -0.04901,-0.223192 0.84383,-4.759712 0.959567,-4.875442 0.02214,-0.02183 -0.382949,-0.474731 -0.900176,-1.005773 -2.052828,-2.107671 -3.030056,-4.231948 -3.129117,-6.802001 -0.06879,-1.784518 0.204893,-3.042433 1.023413,-4.704016 1.582807,-3.213067 5.122554,-5.831103 9.361797,-6.924086 1.644987,-0.424118 2.772056,-0.556563 4.74757,-0.557895 1.784182,-0.001 2.780993,0.101311 4.268457,0.438951 3.903089,0.88598 7.337706,3.113784 9.212931,5.975805 3.808485,5.812637 0.857219,12.92849 -6.599589,15.912382 -2.259842,0.904291 -4.215293,1.263236 -6.881799,1.263236 -1.92858,0 -3.048227,-0.126413 -4.594754,-0.518706 -0.465142,-0.11799 -0.898631,-0.214516 -0.963314,-0.214516 -0.06469,0 -1.316224,0.588003 -2.781205,1.306674 -1.752794,0.859855 -2.759251,1.306671 -2.943324,1.306671 -0.153844,0 -0.379994,-0.07883 -0.502557,-0.17528 z m 20.414004,-7.40599 c 0.628909,-0.336579 0.529401,-1.748186 -0.141219,-2.003149 -0.303388,-0.115352 -16.410564,-0.115352 -16.713963,0 -0.632357,0.240424 -0.766851,1.375262 -0.226967,1.915146 0.176393,0.176399 0.239241,0.177686 8.546119,0.177686 5.572981,0 8.424403,-0.02987 8.53601,-0.08967 z m 0.10271,-5.391175 c 0.267326,-0.238881 0.284485,-0.289152 0.284485,-0.834703 0,-0.545552 -0.01735,-0.595824 -0.284485,-0.834704 L 40.43203,29.84514 h -8.316396 -8.316389 l -0.284485,0.25419 c -0.267357,0.238881 -0.284485,0.289152 -0.284485,0.834704 0,0.545551 0.01716,0.595825 0.284485,0.834703 l 0.284485,0.25419 h 8.316389 8.316385 z m -0.243902,-5.057433 c 0.682557,-0.25951 0.769424,-1.485481 0.140352,-1.981184 -0.103661,-0.08171 -2.060058,-0.106755 -8.502709,-0.108889 l -8.368007,-0.0027 -0.195986,0.182586 c -0.5435,0.506349 -0.431459,1.657547 0.185463,1.905573 0.272725,0.109652 16.45292,0.114175 16.740899,0.0047 z"
       id="path39" />
  </g>
</svg>
