<?xml version="1.0" encoding="UTF-8" standalone="no"?>
<svg
   width="64"
   height="64"
   version="1.1"
   id="svg73"
   sodipodi:docname="audacious.svg"
   inkscape:version="1.4.2 (ebf0e940d0, 2025-05-08)"
   xmlns:inkscape="http://www.inkscape.org/namespaces/inkscape"
   xmlns:sodipodi="http://sodipodi.sourceforge.net/DTD/sodipodi-0.dtd"
   xmlns="http://www.w3.org/2000/svg"
   xmlns:svg="http://www.w3.org/2000/svg"
   xmlns:rdf="http://www.w3.org/1999/02/22-rdf-syntax-ns#"
   xmlns:cc="http://creativecommons.org/ns#"
   xmlns:dc="http://purl.org/dc/elements/1.1/">
  <metadata
     id="metadata77">
    <rdf:RDF>
      <cc:Work
         rdf:about="">
        <dc:format>image/svg+xml</dc:format>
        <dc:type
           rdf:resource="http://purl.org/dc/dcmitype/StillImage" />
      </cc:Work>
    </rdf:RDF>
  </metadata>
  <sodipodi:namedview
     pagecolor="#f5f7fa"
     bordercolor="#666666"
     borderopacity="1"
     objecttolerance="10"
     gridtolerance="10"
     guidetolerance="10"
     inkscape:pageopacity="0"
     inkscape:pageshadow="2"
     inkscape:window-width="1377"
     inkscape:window-height="886"
     id="namedview75"
     showgrid="false"
     inkscape:zoom="6.2890624"
     inkscape:cx="47.145342"
     inkscape:cy="40.467081"
     inkscape:window-x="62"
     inkscape:window-y="91"
     inkscape:window-maximized="0"
     inkscape:current-layer="g877"
     inkscape:document-rotation="0"
     inkscape:pagecheckerboard="0"
     inkscape:showpageshadow="2"
     inkscape:deskcolor="#d1d1d1" />
  <defs
     id="defs29" />
  <circle
     cx="32.516094"
     cy="31.877844"
     r="0"
     fill="url(#b)"
     stroke-width="1.5715"
     id="circle41"
     style="fill:url(#b)" />
  <g
     aria-label="GZ"
     transform="matrix(1.2212657,0,0,0.81882264,0.4960938,-0.1661539)"
     id="text93"
     style="font-weight:bold;font-size:11.5263px;line-height:1.25;font-family:sans-serif;-inkscape-font-specification:'sans-serif Bold';fill:#f2f2f2;stroke-width:0.288159" />
  <g
     id="g877"
     transform="matrix(1.1,0,0,1.1,-3.1845928,-3.2065454)">
    <rect
       x="8.3496294"
       y="8.369586"
       width="47.272728"
       height="47.272728"
       rx="9.8825235"
       ry="9.6485243"
       fill="url(#linearGradient862)"
       stroke-width="3.0541"
       id="rect35-7-3"
       style="fill:#414141;fill-opacity:1;stroke:#dfdfdf;stroke-width:2.04545;stroke-dasharray:none;stroke-opacity:1" />
    <path
       style="color:#444444;fill:#dfdfdf;fill-opacity:1;stroke:none;stroke-width:0.928301;stroke-dasharray:none;stroke-opacity:1"
       class="ColorScheme-Text"
       d="m 20.872112,19.881712 c 0,0 -4.041413,0 -4.041413,4.041414 v 16.165643 c 0,4.041419 4.041413,4.041419 4.041413,4.041419 h 22.227765 c 0,0 4.04141,0 4.04141,-4.041419 V 23.923126 c 0,-4.041414 -4.04141,-4.041414 -4.04141,-4.041414 z m 0.505177,4.041414 h 3.031059 c 0.279864,0 0.505174,0.22531 0.505174,0.505177 v 3.031057 c 0,0.279865 -0.225308,0.505177 -0.505174,0.505177 h -3.031059 c -0.279865,0 -0.505177,-0.225311 -0.505177,-0.505177 v -3.031057 c 0,-0.279865 0.22531,-0.505177 0.505177,-0.505177 z m 6.062117,0 h 3.031058 c 0.279864,0 0.505176,0.22531 0.505176,0.505177 v 3.031057 c 0,0.279865 -0.225311,0.505177 -0.505176,0.505177 h -3.031058 c -0.279868,0 -0.505177,-0.225311 -0.505177,-0.505177 v -3.031057 c 0,-0.279865 0.22531,-0.505177 0.505177,-0.505177 z m 6.062118,0 h 3.031058 c 0.279876,0 0.505175,0.22531 0.505175,0.505177 v 3.031057 c 0,0.279865 -0.225302,0.505177 -0.505175,0.505177 h -3.031059 c -0.279865,0 -0.505176,-0.225311 -0.505176,-0.505177 v -3.031057 c 0,-0.279865 0.225304,-0.505177 0.505177,-0.505177 z m 6.062117,0 h 3.031055 c 0.279865,0 0.505181,0.22531 0.505181,0.505177 v 3.031057 c 0,0.279865 -0.225333,0.505177 -0.505181,0.505177 h -3.031055 c -0.279904,0 -0.505176,-0.225311 -0.505176,-0.505177 v -3.031057 c 0,-0.279865 0.225331,-0.505177 0.505176,-0.505177 z m -18.186352,6.062117 h 3.031059 c 0.279864,0 0.505174,0.225307 0.505174,0.505175 v 3.03106 c 0,0.279869 -0.225308,0.505177 -0.505174,0.505177 h -3.031059 c -0.279865,0 -0.505177,-0.225312 -0.505177,-0.505177 v -3.03106 c 0,-0.279863 0.22531,-0.505175 0.505177,-0.505175 z m 6.062117,0 h 3.031058 c 0.279864,0 0.505176,0.225307 0.505176,0.505175 v 3.03106 c 0,0.279869 -0.225311,0.505177 -0.505176,0.505177 h -3.031058 c -0.279868,0 -0.505177,-0.225312 -0.505177,-0.505177 v -3.03106 c 0,-0.279863 0.22531,-0.505175 0.505177,-0.505175 z m 6.062118,0 h 3.031058 c 0.279876,0 0.505175,0.225307 0.505175,0.505175 v 3.03106 c 0,0.279869 -0.225302,0.505177 -0.505175,0.505177 h -3.031059 c -0.279865,0 -0.505176,-0.225312 -0.505176,-0.505177 v -3.03106 c 0,-0.279863 0.225304,-0.505175 0.505177,-0.505175 z m 6.062117,0 h 3.031055 c 0.279865,0 0.505181,0.225307 0.505181,0.505175 v 3.03106 c 0,0.279869 -0.225333,0.505177 -0.505181,0.505177 h -3.031055 c -0.279904,0 -0.505176,-0.225312 -0.505176,-0.505177 v -3.03106 c 0,-0.279863 0.225331,-0.505175 0.505176,-0.505175 z M 25.4187,36.04736 h 13.13459 c 0.279864,0 0.505175,0.225303 0.505175,0.505174 v 3.031064 c 0,0.279864 -0.225331,0.505171 -0.505175,0.505171 H 25.4187 c -0.279865,0 -0.505178,-0.225292 -0.505178,-0.505171 v -3.031064 c 0,-0.279877 0.22531,-0.505174 0.505178,-0.505174 z"
       id="path5" />
  </g>
</svg>
