<?xml version="1.0" encoding="UTF-8" standalone="no"?>
<svg
   width="64"
   height="64"
   version="1.1"
   id="svg73"
   sodipodi:docname="audacious.svg"
   inkscape:version="1.4.2 (ebf0e940d0, 2025-05-08)"
   xmlns:inkscape="http://www.inkscape.org/namespaces/inkscape"
   xmlns:sodipodi="http://sodipodi.sourceforge.net/DTD/sodipodi-0.dtd"
   xmlns="http://www.w3.org/2000/svg"
   xmlns:svg="http://www.w3.org/2000/svg"
   xmlns:rdf="http://www.w3.org/1999/02/22-rdf-syntax-ns#"
   xmlns:cc="http://creativecommons.org/ns#"
   xmlns:dc="http://purl.org/dc/elements/1.1/">
  <metadata
     id="metadata77">
    <rdf:RDF>
      <cc:Work
         rdf:about="">
        <dc:format>image/svg+xml</dc:format>
        <dc:type
           rdf:resource="http://purl.org/dc/dcmitype/StillImage" />
      </cc:Work>
    </rdf:RDF>
  </metadata>
  <sodipodi:namedview
     pagecolor="#f5f7fa"
     bordercolor="#666666"
     borderopacity="1"
     objecttolerance="10"
     gridtolerance="10"
     guidetolerance="10"
     inkscape:pageopacity="0"
     inkscape:pageshadow="2"
     inkscape:window-width="1377"
     inkscape:window-height="886"
     id="namedview75"
     showgrid="false"
     inkscape:zoom="6.2890624"
     inkscape:cx="47.622361"
     inkscape:cy="45.396274"
     inkscape:window-x="-19"
     inkscape:window-y="75"
     inkscape:window-maximized="0"
     inkscape:current-layer="g877"
     inkscape:document-rotation="0"
     inkscape:pagecheckerboard="0"
     inkscape:showpageshadow="2"
     inkscape:deskcolor="#d1d1d1" />
  <defs
     id="defs29" />
  <circle
     cx="32.516094"
     cy="31.877844"
     r="0"
     fill="url(#b)"
     stroke-width="1.5715"
     id="circle41"
     style="fill:url(#b)" />
  <g
     aria-label="GZ"
     transform="matrix(1.2212657,0,0,0.81882264,0.4960938,-0.1661539)"
     id="text93"
     style="font-weight:bold;font-size:11.5263px;line-height:1.25;font-family:sans-serif;-inkscape-font-specification:'sans-serif Bold';fill:#f2f2f2;stroke-width:0.288159" />
  <g
     id="g877"
     transform="matrix(1.1,0,0,1.1,-3.1845928,-3.2065454)">
    <rect
       x="8.3496294"
       y="8.369586"
       width="47.272728"
       height="47.272728"
       rx="9.8825235"
       ry="9.6485243"
       fill="url(#linearGradient862)"
       stroke-width="3.0541"
       id="rect35-7-3"
       style="fill:#414141;fill-opacity:1;stroke:#dfdfdf;stroke-width:2.04545;stroke-dasharray:none;stroke-opacity:1" />
    <path
       id="path6"
       style="fill:#dfdfdf;fill-opacity:1;stroke:none;stroke-width:0.974716;stroke-dasharray:none;stroke-dashoffset:2.2;stroke-opacity:0.3"
       d="m 31.794231,16.458898 c -1.228299,8.05e-4 -2.152808,0.233185 -3.316315,0.80909 -2.039409,1.009454 -3.473082,2.678093 -4.23582,4.926877 -0.221377,0.65263 -0.233934,0.960879 -0.270337,7.397929 -0.04325,7.65001 -0.04439,7.624849 0.835743,9.455869 0.436889,0.908906 0.654976,1.205009 1.530606,2.075071 1.289014,1.280819 2.473614,1.925608 4.220592,2.294012 0.272471,0.05747 1.049363,0.08687 1.726691,0.06665 0.973995,-0.02882 1.418117,-0.09979 2.126481,-0.338839 2.198741,-0.742165 3.842994,-2.192699 4.827884,-4.26057 0.783578,-1.645194 0.771011,-1.50063 0.771011,-8.899972 0,-7.548342 0.0284,-7.260209 -0.913793,-9.177928 -0.427951,-0.871276 -0.683875,-1.221652 -1.4278,-1.958997 -1.571499,-1.557598 -3.176992,-2.273558 -5.32857,-2.375865 -0.189469,-0.009 -0.370902,-0.01344 -0.546373,-0.01334 z m 11.687051,18.340624 c -0.423779,0 -0.58247,0.323744 -0.662495,1.355461 -0.19383,2.499335 -1.117292,4.697429 -2.779459,6.621202 -1.190098,1.377398 -3.407524,2.727209 -5.307627,3.230642 -1.10202,0.291976 -3.248496,0.399563 -4.405254,0.220811 -1.208975,-0.186807 -2.883692,-0.791166 -3.940743,-1.422082 -0.99952,-0.596584 -2.72413,-2.201355 -3.329642,-3.099286 -0.994381,-1.474606 -1.733571,-3.50309 -1.85424,-5.082988 -0.10949,-1.43325 -0.154214,-1.599159 -0.454999,-1.736204 -0.204573,-0.09321 -0.348618,-0.09099 -0.569214,0.0096 l -0.29509,0.135167 0.06474,1.254564 c 0.206532,4.08768 2.67601,7.909035 6.38895,9.884204 1.122841,0.597321 1.936686,0.893566 3.205901,1.168902 1.182771,0.256601 3.445731,0.287257 4.618475,0.06277 2.325608,-0.444964 4.302822,-1.45509 6.063414,-3.099288 2.258037,-2.108761 3.587072,-4.922506 3.832226,-8.111827 0.06294,-0.818748 0.04528,-0.975807 -0.129428,-1.168897 -0.111017,-0.12268 -0.310647,-0.222737 -0.445475,-0.222737 z" />
  </g>
</svg>
