<?xml version="1.0" encoding="UTF-8" standalone="no"?>
<svg
   width="64"
   height="64"
   version="1.1"
   id="svg73"
   sodipodi:docname="audacious.svg"
   inkscape:version="1.4.2 (ebf0e940d0, 2025-05-08)"
   xmlns:inkscape="http://www.inkscape.org/namespaces/inkscape"
   xmlns:sodipodi="http://sodipodi.sourceforge.net/DTD/sodipodi-0.dtd"
   xmlns="http://www.w3.org/2000/svg"
   xmlns:svg="http://www.w3.org/2000/svg"
   xmlns:rdf="http://www.w3.org/1999/02/22-rdf-syntax-ns#"
   xmlns:cc="http://creativecommons.org/ns#"
   xmlns:dc="http://purl.org/dc/elements/1.1/">
  <metadata
     id="metadata77">
    <rdf:RDF>
      <cc:Work
         rdf:about="">
        <dc:format>image/svg+xml</dc:format>
        <dc:type
           rdf:resource="http://purl.org/dc/dcmitype/StillImage" />
      </cc:Work>
    </rdf:RDF>
  </metadata>
  <sodipodi:namedview
     pagecolor="#f5f7fa"
     bordercolor="#666666"
     borderopacity="1"
     objecttolerance="10"
     gridtolerance="10"
     guidetolerance="10"
     inkscape:pageopacity="0"
     inkscape:pageshadow="2"
     inkscape:window-width="1377"
     inkscape:window-height="886"
     id="namedview75"
     showgrid="false"
     inkscape:zoom="6.2890624"
     inkscape:cx="46.032299"
     inkscape:cy="39.036025"
     inkscape:window-x="62"
     inkscape:window-y="91"
     inkscape:window-maximized="0"
     inkscape:current-layer="g877"
     inkscape:document-rotation="0"
     inkscape:pagecheckerboard="0"
     inkscape:showpageshadow="2"
     inkscape:deskcolor="#d1d1d1" />
  <defs
     id="defs29" />
  <circle
     cx="32.516094"
     cy="31.877844"
     r="0"
     fill="url(#b)"
     stroke-width="1.5715"
     id="circle41"
     style="fill:url(#b)" />
  <g
     aria-label="GZ"
     transform="matrix(1.2212657,0,0,0.81882264,0.4960938,-0.1661539)"
     id="text93"
     style="font-weight:bold;font-size:11.5263px;line-height:1.25;font-family:sans-serif;-inkscape-font-specification:'sans-serif Bold';fill:#f2f2f2;stroke-width:0.288159" />
  <g
     id="g877"
     transform="matrix(1.1,0,0,1.1,-3.1845928,-3.2065454)">
    <rect
       x="8.3496294"
       y="8.369586"
       width="47.272728"
       height="47.272728"
       rx="9.8825235"
       ry="9.6485243"
       fill="url(#linearGradient862)"
       stroke-width="3.0541"
       id="rect35-7-3"
       style="fill:#414141;fill-opacity:1;stroke:#dfdfdf;stroke-width:2.04545;stroke-dasharray:none;stroke-opacity:1" />
    <path
       style="color:#6e6e6e;fill:#dfdfdf;fill-opacity:1;stroke:none;stroke-width:0.980896;stroke-dasharray:none;stroke-opacity:0.3"
       class="ColorScheme-Text"
       d="m 24.791563,16.734662 c -3.597217,0 -3.597217,4.072344 -3.597217,4.072344 v 22.397889 c 0,4.072344 3.405306,4.06502 3.597217,4.072344 h 14.388854 c 0,0 3.597223,-0.0084 3.597223,-4.072344 V 20.807006 c 0,-4.072344 -3.597223,-4.072344 -3.597223,-4.072344 z m 7.194431,4.072344 c 0.996555,0 1.798608,0.915156 1.798608,2.036171 0,1.121197 -0.802053,2.036173 -1.798608,2.036173 -0.996858,0 -1.798607,-0.914976 -1.798607,-2.036173 0,-1.121015 0.801749,-2.036171 1.798607,-2.036171 z m 0,6.108516 c 3.973304,0 7.194423,3.646577 7.194423,8.144686 0,4.498113 -3.221119,8.144687 -7.194423,8.144687 -3.973303,0 -7.194431,-3.646574 -7.194431,-8.144687 0,-4.498108 3.221128,-8.144686 7.194431,-8.144686 z m 0,4.072341 c -1.986743,0 -3.597215,1.823252 -3.597215,4.072345 0,2.249098 1.610527,4.072346 3.597215,4.072346 1.986688,0 3.597218,-1.823248 3.597218,-4.072346 0,-2.249093 -1.61053,-4.072344 -3.597218,-4.072345 z"
       id="path5" />
  </g>
</svg>
