<?xml version="1.0" encoding="UTF-8" standalone="no"?>
<svg
   width="64"
   height="64"
   version="1.1"
   id="svg73"
   sodipodi:docname="audacious.svg"
   inkscape:version="1.4.2 (ebf0e940d0, 2025-05-08)"
   xmlns:inkscape="http://www.inkscape.org/namespaces/inkscape"
   xmlns:sodipodi="http://sodipodi.sourceforge.net/DTD/sodipodi-0.dtd"
   xmlns="http://www.w3.org/2000/svg"
   xmlns:svg="http://www.w3.org/2000/svg"
   xmlns:rdf="http://www.w3.org/1999/02/22-rdf-syntax-ns#"
   xmlns:cc="http://creativecommons.org/ns#"
   xmlns:dc="http://purl.org/dc/elements/1.1/">
  <metadata
     id="metadata77">
    <rdf:RDF>
      <cc:Work
         rdf:about="">
        <dc:format>image/svg+xml</dc:format>
        <dc:type
           rdf:resource="http://purl.org/dc/dcmitype/StillImage" />
      </cc:Work>
    </rdf:RDF>
  </metadata>
  <sodipodi:namedview
     pagecolor="#f5f7fa"
     bordercolor="#666666"
     borderopacity="1"
     objecttolerance="10"
     gridtolerance="10"
     guidetolerance="10"
     inkscape:pageopacity="0"
     inkscape:pageshadow="2"
     inkscape:window-width="1377"
     inkscape:window-height="886"
     id="namedview75"
     showgrid="false"
     inkscape:zoom="6.2890624"
     inkscape:cx="47.622361"
     inkscape:cy="45.396274"
     inkscape:window-x="-19"
     inkscape:window-y="75"
     inkscape:window-maximized="0"
     inkscape:current-layer="g877"
     inkscape:document-rotation="0"
     inkscape:pagecheckerboard="0"
     inkscape:showpageshadow="2"
     inkscape:deskcolor="#d1d1d1" />
  <defs
     id="defs29" />
  <circle
     cx="32.516094"
     cy="31.877844"
     r="0"
     fill="url(#b)"
     stroke-width="1.5715"
     id="circle41"
     style="fill:url(#b)" />
  <g
     aria-label="GZ"
     transform="matrix(1.2212657,0,0,0.81882264,0.4960938,-0.1661539)"
     id="text93"
     style="font-weight:bold;font-size:11.5263px;line-height:1.25;font-family:sans-serif;-inkscape-font-specification:'sans-serif Bold';fill:#f2f2f2;stroke-width:0.288159" />
  <g
     id="g877"
     transform="matrix(1.1,0,0,1.1,-3.1845928,-3.2065454)">
    <rect
       x="8.3496294"
       y="8.369586"
       width="47.272728"
       height="47.272728"
       rx="9.8825235"
       ry="9.6485243"
       fill="url(#linearGradient862)"
       stroke-width="3.0541"
       id="rect35-7-3"
       style="fill:#414141;fill-opacity:1;stroke:#dfdfdf;stroke-width:2.04545;stroke-dasharray:none;stroke-opacity:1" />
    <path
       id="path8-9"
       style="fill:#dfdfdf;stroke:none;stroke-width:0.402774;stroke-dasharray:none;stroke-opacity:0.6;fill-opacity:1"
       d="m 31.981252,18.432868 c -0.596491,0.0037 -1.202806,0.307663 -1.62838,0.921619 l -0.30721,0.44102 -0.03019,5.569293 -0.03019,5.569294 0.529601,-0.162085 c 0.679516,-0.207771 2.262015,-0.207358 2.940134,0 l 0.525886,0.1602 v -5.397785 -5.399671 l -0.288339,-0.57672 c -0.37278,-0.748071 -1.035288,-1.129184 -1.711312,-1.125165 z m 11.492905,0 c -0.500577,0.01904 -0.983794,0.257272 -1.370183,0.697338 -0.507232,0.577721 -0.585445,1.003715 -0.586135,3.213418 -5.73e-4,1.829427 0.01462,1.971185 0.194123,1.916741 1.226837,-0.371718 2.431944,-0.380314 3.547002,-0.02264 l 0.248793,0.08104 V 22.20226 c 0,-2.640301 -0.131683,-3.051189 -1.132702,-3.562085 -0.294485,-0.150304 -0.600545,-0.218732 -0.900888,-0.207319 z m -23.140351,0.002 c -0.367965,0.01373 -0.731689,0.141861 -1.049784,0.384478 -0.568603,0.433701 -0.822508,1.026956 -0.899001,2.110867 -0.03647,0.514228 -0.04504,0.935473 -0.02079,0.934813 0.02442,-6.62e-4 0.288782,-0.07695 0.58803,-0.167741 0.687415,-0.208536 2.30712,-0.213548 2.985366,-0.0094 l 0.516407,0.156429 V 21.09795 c 1.4e-5,-0.993472 -0.247586,-1.678451 -0.778369,-2.157984 -0.390017,-0.352358 -0.868811,-0.522748 -1.341905,-0.5051 z m 0.07163,4.26131 c -1.017195,0 -1.172822,0.02937 -1.850776,0.350553 -1.030759,0.488332 -1.672652,1.116779 -2.171179,2.125947 -0.395171,0.799914 -0.412761,0.888931 -0.412761,1.954435 0,1.03855 0.02367,1.167771 0.363728,1.858316 0.606949,1.232701 1.658356,2.119928 2.908096,2.455767 0.333789,0.08968 0.790257,0.165579 1.015854,0.16963 1.160703,0.02079 2.541269,-0.568717 3.349116,-1.432374 2.118277,-2.264619 1.463924,-5.731366 -1.341905,-7.112871 -0.697569,-0.343461 -0.825662,-0.369403 -1.860201,-0.369403 z m 23.162968,2.438805 c -1.12346,2.99e-4 -1.271905,0.02619 -1.884704,0.326053 -1.296443,0.634315 -2.251813,1.915575 -2.506656,3.36231 -0.415435,2.358458 1.380735,4.798364 3.756222,5.101892 2.004945,0.256165 3.916939,-0.789616 4.770176,-2.61032 0.265208,-0.565847 0.297825,-0.768777 0.297825,-1.803659 0,-1.090414 -0.02296,-1.213359 -0.358091,-1.894123 -0.437561,-0.888668 -1.32934,-1.76586 -2.218362,-2.182486 -0.571566,-0.267854 -0.763516,-0.299958 -1.856435,-0.299668 z m -11.479707,6.507876 c -0.816389,-0.008 -1.649863,0.21376 -2.416187,0.672842 -0.74023,0.443432 -1.254833,1.034803 -1.711307,1.961973 -0.326408,0.662985 -0.352988,0.802731 -0.352442,1.828161 5.25e-4,0.981088 0.03589,1.187273 0.307209,1.767851 0.597479,1.27828 1.417973,2.022109 2.723394,2.46707 0.918391,0.313068 1.772522,0.322257 2.712082,0.03174 2.233541,-0.689513 3.596273,-3.074766 3.026832,-5.297538 -0.240095,-0.937171 -0.619678,-1.552404 -1.404119,-2.278656 -0.813874,-0.75351 -1.835841,-1.143139 -2.88548,-1.153445 z m -13.74701,0.548451 0.03396,5.836917 c 0.03671,6.470145 0.01204,6.249937 0.778383,6.979051 0.2111,0.200847 0.527709,0.411759 0.704875,0.46741 0.814251,0.25581 1.851834,-0.210662 2.288028,-1.027159 0.251243,-0.470322 0.251353,-0.478146 0.282706,-6.362755 l 0.03198,-5.891581 -0.531485,0.165835 c -0.69171,0.216426 -2.364416,0.214784 -3.056978,-0.0019 z m 23.176162,2.504727 v 4.461084 c 0,3.076738 0.03927,4.595238 0.128177,4.892682 0.175827,0.586941 0.721674,1.180302 1.257094,1.368302 0.243865,0.08562 0.54483,0.159374 0.669077,0.162089 0.380979,0.0088 1.18448,-0.470977 1.541677,-0.919736 l 0.339255,-0.425943 0.03007,-4.770185 c 0.02882,-4.443707 0.01879,-4.763801 -0.15645,-4.696671 -0.103246,0.03964 -0.5283,0.130339 -0.94424,0.201657 -0.72667,0.124631 -1.826856,0.04122 -2.615964,-0.197911 z m -11.526825,6.575724 v 1.272169 c 0,1.747661 0.280367,2.372213 1.274057,2.830823 0.544645,0.251298 0.830895,0.25911 1.360756,0.03758 1.045722,-0.436922 1.349932,-1.075352 1.353212,-2.838349 l 0.002,-1.291018 -0.525831,0.163968 c -0.698258,0.218015 -2.378624,0.215259 -2.992903,-0.0059 z" />
  </g>
</svg>
