<?xml version="1.0" encoding="UTF-8" standalone="no"?>
<svg
   width="64"
   height="64"
   version="1.1"
   id="svg73"
   sodipodi:docname="audacious.svg"
   inkscape:version="1.4.2 (ebf0e940d0, 2025-05-08)"
   xmlns:inkscape="http://www.inkscape.org/namespaces/inkscape"
   xmlns:sodipodi="http://sodipodi.sourceforge.net/DTD/sodipodi-0.dtd"
   xmlns="http://www.w3.org/2000/svg"
   xmlns:svg="http://www.w3.org/2000/svg"
   xmlns:rdf="http://www.w3.org/1999/02/22-rdf-syntax-ns#"
   xmlns:cc="http://creativecommons.org/ns#"
   xmlns:dc="http://purl.org/dc/elements/1.1/">
  <metadata
     id="metadata77">
    <rdf:RDF>
      <cc:Work
         rdf:about="">
        <dc:format>image/svg+xml</dc:format>
        <dc:type
           rdf:resource="http://purl.org/dc/dcmitype/StillImage" />
      </cc:Work>
    </rdf:RDF>
  </metadata>
  <sodipodi:namedview
     pagecolor="#f5f7fa"
     bordercolor="#666666"
     borderopacity="1"
     objecttolerance="10"
     gridtolerance="10"
     guidetolerance="10"
     inkscape:pageopacity="0"
     inkscape:pageshadow="2"
     inkscape:window-width="1377"
     inkscape:window-height="886"
     id="namedview75"
     showgrid="false"
     inkscape:zoom="6.2890624"
     inkscape:cx="47.145342"
     inkscape:cy="40.467081"
     inkscape:window-x="62"
     inkscape:window-y="91"
     inkscape:window-maximized="0"
     inkscape:current-layer="g877"
     inkscape:document-rotation="0"
     inkscape:pagecheckerboard="0"
     inkscape:showpageshadow="2"
     inkscape:deskcolor="#d1d1d1" />
  <defs
     id="defs29" />
  <circle
     cx="32.516094"
     cy="31.877844"
     r="0"
     fill="url(#b)"
     stroke-width="1.5715"
     id="circle41"
     style="fill:url(#b)" />
  <g
     aria-label="GZ"
     transform="matrix(1.2212657,0,0,0.81882264,0.4960938,-0.1661539)"
     id="text93"
     style="font-weight:bold;font-size:11.5263px;line-height:1.25;font-family:sans-serif;-inkscape-font-specification:'sans-serif Bold';fill:#f2f2f2;stroke-width:0.288159" />
  <g
     id="g877"
     transform="matrix(1.1,0,0,1.1,-3.1845928,-3.2065454)">
    <rect
       x="8.3496294"
       y="8.369586"
       width="47.272728"
       height="47.272728"
       rx="9.8825235"
       ry="9.6485243"
       fill="url(#linearGradient862)"
       stroke-width="3.0541"
       id="rect35-7-3"
       style="fill:#414141;fill-opacity:1;stroke:#dfdfdf;stroke-width:2.04545;stroke-dasharray:none;stroke-opacity:1" />
    <path
       d="m 38.314917,27.642759 5.382799,-5.3828 -1.965727,-1.96573 -5.382805,5.382797 z m 8.211986,-5.3828 q 0,0.496024 -0.330694,0.826709 L 22.570688,46.71219 q -0.330681,0.330692 -0.826707,0.330692 -0.496028,0 -0.826711,-0.330692 l -3.637521,-3.637523 q -0.330686,-0.330696 -0.330686,-0.826706 0,-0.496025 0.330686,-0.826715 L 40.905277,17.79573 q 0.330692,-0.330687 0.826712,-0.330687 0.496024,0 0.826706,0.330687 l 3.637522,3.637518 q 0.330696,0.33069 0.330696,0.826711 z m -24.819662,-3.490551 1.800392,0.551139 -1.800392,0.551144 -0.551137,1.800386 -0.55114,-1.800386 -1.800389,-0.551144 1.800389,-0.551139 0.55114,-1.800389 z m 6.429964,2.976156 3.600777,1.102278 -3.600777,1.102279 -1.102278,3.600781 -1.102278,-3.600781 -3.600783,-1.102279 3.600783,-1.102278 1.102278,-3.60078 z m 17.085333,8.78149 1.800385,0.55114 -1.800385,0.551142 -0.551141,1.800387 -0.55115,-1.800387 -1.800382,-0.551142 1.800382,-0.55114 0.55115,-1.800387 z m -11.757647,-11.757646 1.800387,0.551139 -1.800387,0.551144 -0.551143,1.800386 -0.55114,-1.800386 -1.800388,-0.551144 1.800388,-0.551139 0.55114,-1.800389 z"
       id="path1-3-3"
       style="overflow:hidden;fill:#dfdfdf;stroke-width:0.0321498;fill-opacity:1" />
  </g>
</svg>
