<?xml version="1.0" encoding="UTF-8" standalone="no"?>
<svg
   width="64"
   height="64"
   version="1.1"
   id="svg73"
   sodipodi:docname="audacious.svg"
   inkscape:version="1.4.2 (ebf0e940d0, 2025-05-08)"
   xmlns:inkscape="http://www.inkscape.org/namespaces/inkscape"
   xmlns:sodipodi="http://sodipodi.sourceforge.net/DTD/sodipodi-0.dtd"
   xmlns="http://www.w3.org/2000/svg"
   xmlns:svg="http://www.w3.org/2000/svg"
   xmlns:rdf="http://www.w3.org/1999/02/22-rdf-syntax-ns#"
   xmlns:cc="http://creativecommons.org/ns#"
   xmlns:dc="http://purl.org/dc/elements/1.1/">
  <metadata
     id="metadata77">
    <rdf:RDF>
      <cc:Work
         rdf:about="">
        <dc:format>image/svg+xml</dc:format>
        <dc:type
           rdf:resource="http://purl.org/dc/dcmitype/StillImage" />
      </cc:Work>
    </rdf:RDF>
  </metadata>
  <sodipodi:namedview
     pagecolor="#f5f7fa"
     bordercolor="#666666"
     borderopacity="1"
     objecttolerance="10"
     gridtolerance="10"
     guidetolerance="10"
     inkscape:pageopacity="0"
     inkscape:pageshadow="2"
     inkscape:window-width="1377"
     inkscape:window-height="886"
     id="namedview75"
     showgrid="false"
     inkscape:zoom="6.2890624"
     inkscape:cx="47.622361"
     inkscape:cy="45.396274"
     inkscape:window-x="0"
     inkscape:window-y="48"
     inkscape:window-maximized="0"
     inkscape:current-layer="g877"
     inkscape:document-rotation="0"
     inkscape:pagecheckerboard="0"
     inkscape:showpageshadow="2"
     inkscape:deskcolor="#d1d1d1" />
  <defs
     id="defs29" />
  <circle
     cx="32.516094"
     cy="31.877844"
     r="0"
     fill="url(#b)"
     stroke-width="1.5715"
     id="circle41"
     style="fill:url(#b)" />
  <g
     aria-label="GZ"
     transform="matrix(1.2212657,0,0,0.81882264,0.4960938,-0.1661539)"
     id="text93"
     style="font-weight:bold;font-size:11.5263px;line-height:1.25;font-family:sans-serif;-inkscape-font-specification:'sans-serif Bold';fill:#f2f2f2;stroke-width:0.288159" />
  <g
     id="g877"
     transform="matrix(1.1,0,0,1.1,-3.1845928,-3.2065454)">
    <rect
       x="8.3496294"
       y="8.369586"
       width="47.272728"
       height="47.272728"
       rx="9.8825235"
       ry="9.6485243"
       fill="url(#linearGradient862)"
       stroke-width="3.0541"
       id="rect35-7-3"
       style="fill:#414141;fill-opacity:1;stroke:#dfdfdf;stroke-width:2.04545;stroke-dasharray:none;stroke-opacity:1" />
    <path
       d="m 17.841183,16.812134 v 0.0077 6.077403 6.077407 6.077406 2.013042 4.064372 1.002699 1.010331 a 3.7747996,4.0567075 0 0 0 3.76768,4.049083 h -0.989996 l 0.06408,0.0083 h 2.827537 5.655076 5.655077 5.655099 5.655064 v -6.077673 h -5.655064 -5.655083 -3.58962 l 3.112427,-1.928866 4.892996,-3.038862 4.900121,-3.038703 -2.82754,-5.258411 -4.900124,3.038704 -4.892988,3.038705 -3.098189,1.921192 1.787693,-3.329561 2.827536,-5.25841 2.827539,-5.266066 -4.914363,-3.046352 -2.827538,5.266063 -2.827539,5.258409 -1.794808,3.344871 v -3.85771 -6.077404 -6.077408 z m 3.76768,24.301971 c 0.498556,0 0.975752,0.214341 1.331862,0.589373 0.356112,0.375034 0.548412,0.895525 0.548412,1.431318 0,0.535798 -0.199422,1.048623 -0.548412,1.431337 -0.348995,0.382675 -0.833306,0.589369 -1.331862,0.589369 -0.498557,0 -0.975752,-0.214343 -1.331866,-0.589369 -0.356111,-0.375036 -0.548411,-0.895539 -0.548411,-1.431337 0,-0.535793 0.199425,-1.048609 0.548411,-1.431318 0.34899,-0.382674 0.833309,-0.589373 1.331866,-0.589373 z"
       fill="#bebebe"
       id="path2-3"
       style="fill:#dfdfdf;fill-opacity:1;stroke:none;stroke-width:0.959192;stroke-dasharray:none;stroke-opacity:0.3" />
  </g>
</svg>
