<?xml version="1.0" encoding="UTF-8" standalone="no"?>
<svg
   width="64"
   height="64"
   version="1.1"
   id="svg73"
   sodipodi:docname="audacious.svg"
   inkscape:version="1.4.2 (ebf0e940d0, 2025-05-08)"
   xmlns:inkscape="http://www.inkscape.org/namespaces/inkscape"
   xmlns:sodipodi="http://sodipodi.sourceforge.net/DTD/sodipodi-0.dtd"
   xmlns="http://www.w3.org/2000/svg"
   xmlns:svg="http://www.w3.org/2000/svg"
   xmlns:rdf="http://www.w3.org/1999/02/22-rdf-syntax-ns#"
   xmlns:cc="http://creativecommons.org/ns#"
   xmlns:dc="http://purl.org/dc/elements/1.1/">
  <metadata
     id="metadata77">
    <rdf:RDF>
      <cc:Work
         rdf:about="">
        <dc:format>image/svg+xml</dc:format>
        <dc:type
           rdf:resource="http://purl.org/dc/dcmitype/StillImage" />
      </cc:Work>
    </rdf:RDF>
  </metadata>
  <sodipodi:namedview
     pagecolor="#f5f7fa"
     bordercolor="#666666"
     borderopacity="1"
     objecttolerance="10"
     gridtolerance="10"
     guidetolerance="10"
     inkscape:pageopacity="0"
     inkscape:pageshadow="2"
     inkscape:window-width="1377"
     inkscape:window-height="886"
     id="namedview75"
     showgrid="false"
     inkscape:zoom="6.2890624"
     inkscape:cx="47.463355"
     inkscape:cy="38.559007"
     inkscape:window-x="62"
     inkscape:window-y="91"
     inkscape:window-maximized="0"
     inkscape:current-layer="g877"
     inkscape:document-rotation="0"
     inkscape:pagecheckerboard="0"
     inkscape:showpageshadow="2"
     inkscape:deskcolor="#d1d1d1" />
  <defs
     id="defs29" />
  <circle
     cx="32.516094"
     cy="31.877844"
     r="0"
     fill="url(#b)"
     stroke-width="1.5715"
     id="circle41"
     style="fill:url(#b)" />
  <g
     aria-label="GZ"
     transform="matrix(1.2212657,0,0,0.81882264,0.4960938,-0.1661539)"
     id="text93"
     style="font-weight:bold;font-size:11.5263px;line-height:1.25;font-family:sans-serif;-inkscape-font-specification:'sans-serif Bold';fill:#f2f2f2;stroke-width:0.288159" />
  <g
     id="g877"
     transform="matrix(1.1,0,0,1.1,-3.1845928,-3.2065454)">
    <rect
       x="8.3496294"
       y="8.369586"
       width="47.272728"
       height="47.272728"
       rx="9.8825235"
       ry="9.6485243"
       fill="url(#linearGradient862)"
       stroke-width="3.0541"
       id="rect35-7-3"
       style="fill:#414141;fill-opacity:1;stroke:#dfdfdf;stroke-width:2.04545;stroke-dasharray:none;stroke-opacity:1" />
    <path
       id="path4"
       style="fill:#dfdfdf;fill-opacity:1;stroke:none;stroke-width:1.11454;stroke-dasharray:none;stroke-opacity:0.3"
       d="m 37.49016,16.396203 c -9.258832,0 -8.994946,-0.02324 -9.39955,0.829375 -0.169756,0.357712 -0.202449,1.028926 -0.202449,4.214342 v 3.789864 h 4.257879 c 2.50832,4.2e-4 4.45003,0.05556 4.728072,0.132787 0.259492,0.07206 0.618354,0.305699 0.798897,0.520262 l 0.328709,0.391827 v 5.045894 5.045894 h 4.068493 c 4.452883,0 4.430579,0.0046 4.830387,-0.768423 0.164275,-0.317648 0.191551,-1.611606 0.191551,-9.157926 0,-9.747511 0.02586,-9.435405 -0.829371,-9.84145 -0.373936,-0.177461 -1.437113,-0.202444 -8.772607,-0.202447 z M 26.525468,27.535045 c -9.283876,2.23e-4 -8.958428,-0.03192 -9.421323,0.894678 -0.206503,0.413378 -0.224215,1.122177 -0.224215,9.153574 0,9.733227 -0.03526,9.357689 0.894676,9.826214 0.416674,0.209926 1.043905,0.225142 8.940242,0.193744 l 8.489639,-0.03466 0.439718,-0.476727 0.437544,-0.4789 v -8.970721 c 0,-9.906376 0.03333,-9.495919 -0.814135,-9.898054 -0.39412,-0.187221 -1.323495,-0.209345 -8.742146,-0.209163 z m 1.569494,4.85651 1.645685,5.476907 c 0.904744,3.012021 1.671779,5.549688 1.704456,5.640164 0.04655,0.128886 -0.240256,0.157039 -1.32569,0.128448 l -1.38664,-0.03711 -0.309109,-1.24732 -0.309111,-1.249501 h -1.580377 -1.580382 l -0.14367,0.544211 c -0.07916,0.299298 -0.234988,0.875128 -0.346117,1.279979 l -0.202442,0.737943 h -1.258211 c -0.923592,0 -1.25826,-0.04385 -1.256029,-0.161117 0.0018,-0.08801 0.741673,-2.608624 1.643507,-5.600983 l 1.639154,-5.439832 1.532488,-0.03699 z m -1.569494,2.248665 -0.485434,2.046224 c -0.267208,1.126533 -0.511169,2.093544 -0.542032,2.146351 -0.03087,0.05279 0.4078,0.09574 0.975222,0.09574 0.743236,0 1.029632,-0.04588 1.025286,-0.161114 -0.0031,-0.08799 -0.223763,-1.052811 -0.489788,-2.144139 z" />
  </g>
</svg>
