<?xml version="1.0" encoding="UTF-8" standalone="no"?>
<svg
   width="64"
   height="64"
   version="1.1"
   id="svg73"
   sodipodi:docname="audacious.svg"
   inkscape:version="1.4.2 (ebf0e940d0, 2025-05-08)"
   xmlns:inkscape="http://www.inkscape.org/namespaces/inkscape"
   xmlns:sodipodi="http://sodipodi.sourceforge.net/DTD/sodipodi-0.dtd"
   xmlns="http://www.w3.org/2000/svg"
   xmlns:svg="http://www.w3.org/2000/svg"
   xmlns:rdf="http://www.w3.org/1999/02/22-rdf-syntax-ns#"
   xmlns:cc="http://creativecommons.org/ns#"
   xmlns:dc="http://purl.org/dc/elements/1.1/">
  <metadata
     id="metadata77">
    <rdf:RDF>
      <cc:Work
         rdf:about="">
        <dc:format>image/svg+xml</dc:format>
        <dc:type
           rdf:resource="http://purl.org/dc/dcmitype/StillImage" />
      </cc:Work>
    </rdf:RDF>
  </metadata>
  <sodipodi:namedview
     pagecolor="#f5f7fa"
     bordercolor="#666666"
     borderopacity="1"
     objecttolerance="10"
     gridtolerance="10"
     guidetolerance="10"
     inkscape:pageopacity="0"
     inkscape:pageshadow="2"
     inkscape:window-width="1377"
     inkscape:window-height="886"
     id="namedview75"
     showgrid="false"
     inkscape:zoom="6.2890624"
     inkscape:cx="47.622361"
     inkscape:cy="45.396274"
     inkscape:window-x="0"
     inkscape:window-y="48"
     inkscape:window-maximized="0"
     inkscape:current-layer="g877"
     inkscape:document-rotation="0"
     inkscape:pagecheckerboard="0"
     inkscape:showpageshadow="2"
     inkscape:deskcolor="#d1d1d1" />
  <defs
     id="defs29" />
  <circle
     cx="32.516094"
     cy="31.877844"
     r="0"
     fill="url(#b)"
     stroke-width="1.5715"
     id="circle41"
     style="fill:url(#b)" />
  <g
     aria-label="GZ"
     transform="matrix(1.2212657,0,0,0.81882264,0.4960938,-0.1661539)"
     id="text93"
     style="font-weight:bold;font-size:11.5263px;line-height:1.25;font-family:sans-serif;-inkscape-font-specification:'sans-serif Bold';fill:#f2f2f2;stroke-width:0.288159" />
  <g
     id="g877"
     transform="matrix(1.1,0,0,1.1,-3.1845928,-3.2065454)">
    <rect
       x="8.3496294"
       y="8.369586"
       width="47.272728"
       height="47.272728"
       rx="9.8825235"
       ry="9.6485243"
       fill="url(#linearGradient862)"
       stroke-width="3.0541"
       id="rect35-7-3"
       style="fill:#414141;fill-opacity:1;stroke:#dfdfdf;stroke-width:2.04545;stroke-dasharray:none;stroke-opacity:1" />
    <path
       id="path102"
       style="fill:#dfdfdf;fill-opacity:1;stroke:none;stroke-width:0.985559;stroke-dasharray:none;stroke-dashoffset:2.2;stroke-opacity:0.3"
       d="m 27.617761,16.836569 c -7.160764,0 -6.914528,-0.02335 -7.331977,0.683344 -0.168704,0.28563 -0.184797,1.564721 -0.184797,14.423329 0,15.580959 -0.05004,14.545653 0.712217,15.010421 0.352718,0.215105 0.651017,0.220981 11.150994,0.221372 11.754506,4.63e-4 11.146607,0.03353 11.672641,-0.635216 0.23559,-0.299539 0.234834,-0.334318 0.234834,-10.134638 V 26.572764 H 39.59837 c -4.791258,-1.97e-4 -4.873274,-0.01352 -5.262698,-0.793063 -0.177946,-0.356177 -0.198097,-0.828206 -0.198282,-4.669824 v -4.273308 z m 7.878651,0.173242 v 3.6554 c 0,3.989978 0.02051,4.143221 0.65062,4.485033 0.255124,0.138422 0.947356,0.169495 3.917185,0.173243 l 3.60728,0.0038 -1.928758,-2.009596 C 40.681235,22.212599 38.841374,20.340323 37.654234,19.157994 Z M 25.42144,31.440843 h 6.56394 6.565859 v 0.848883 0.848885 h -6.56586 -6.56394 v -0.848885 z m 0,3.168398 h 6.56394 6.565859 v 0.90663 0.904706 h -6.56586 -6.56394 v -0.904706 z m 0,3.283887 h 6.56394 6.565859 v 0.90471 0.906629 h -6.56586 -6.56394 v -0.906629 z m 0,3.281972 h 4.130854 4.13278 v 0.906628 0.904704 h -4.13278 -4.130855 v -0.904704 z" />
  </g>
</svg>
