<?xml version="1.0" encoding="UTF-8" standalone="no"?>
<svg
   width="64"
   height="64"
   version="1.1"
   id="svg73"
   sodipodi:docname="audacious.svg"
   inkscape:version="1.4.2 (ebf0e940d0, 2025-05-08)"
   xmlns:inkscape="http://www.inkscape.org/namespaces/inkscape"
   xmlns:sodipodi="http://sodipodi.sourceforge.net/DTD/sodipodi-0.dtd"
   xmlns="http://www.w3.org/2000/svg"
   xmlns:svg="http://www.w3.org/2000/svg"
   xmlns:rdf="http://www.w3.org/1999/02/22-rdf-syntax-ns#"
   xmlns:cc="http://creativecommons.org/ns#"
   xmlns:dc="http://purl.org/dc/elements/1.1/">
  <metadata
     id="metadata77">
    <rdf:RDF>
      <cc:Work
         rdf:about="">
        <dc:format>image/svg+xml</dc:format>
        <dc:type
           rdf:resource="http://purl.org/dc/dcmitype/StillImage" />
      </cc:Work>
    </rdf:RDF>
  </metadata>
  <sodipodi:namedview
     pagecolor="#f5f7fa"
     bordercolor="#666666"
     borderopacity="1"
     objecttolerance="10"
     gridtolerance="10"
     guidetolerance="10"
     inkscape:pageopacity="0"
     inkscape:pageshadow="2"
     inkscape:window-width="1377"
     inkscape:window-height="886"
     id="namedview75"
     showgrid="false"
     inkscape:zoom="6.2890624"
     inkscape:cx="45.714286"
     inkscape:cy="39.513044"
     inkscape:window-x="0"
     inkscape:window-y="48"
     inkscape:window-maximized="0"
     inkscape:current-layer="g877"
     inkscape:document-rotation="0"
     inkscape:pagecheckerboard="0"
     inkscape:showpageshadow="2"
     inkscape:deskcolor="#d1d1d1" />
  <defs
     id="defs29" />
  <circle
     cx="32.516094"
     cy="31.877844"
     r="0"
     fill="url(#b)"
     stroke-width="1.5715"
     id="circle41"
     style="fill:url(#b)" />
  <g
     aria-label="GZ"
     transform="matrix(1.2212657,0,0,0.81882264,0.4960938,-0.1661539)"
     id="text93"
     style="font-weight:bold;font-size:11.5263px;line-height:1.25;font-family:sans-serif;-inkscape-font-specification:'sans-serif Bold';fill:#f2f2f2;stroke-width:0.288159" />
  <g
     id="g877"
     transform="matrix(1.1,0,0,1.1,-3.1845928,-3.2065454)">
    <rect
       x="8.3496294"
       y="8.369586"
       width="47.272728"
       height="47.272728"
       rx="9.8825235"
       ry="9.6485243"
       fill="url(#linearGradient862)"
       stroke-width="3.0541"
       id="rect35-7-3"
       style="fill:#414141;fill-opacity:1;stroke:#dfdfdf;stroke-width:2.04545;stroke-dasharray:none;stroke-opacity:1" />
    <path
       id="path11"
       style="fill:#dfdfdf;stroke-width:0.0476106;stroke-opacity:0.6;fill-opacity:1"
       d="m 31.733614,16.061464 c -1.604776,0.02547 -3.220971,0.29332 -4.794235,0.813527 -7.432025,2.457462 -11.971896,9.997666 -10.685059,17.750483 0.69177,4.167706 2.934649,7.797353 6.365567,10.301693 2.285346,1.668151 5.180873,2.747406 7.988162,2.977732 0.273397,0.02239 0.842037,0.04316 1.263753,0.04675 7.850258,0.06781 14.573136,-5.58659 15.842591,-13.324002 0.294065,-1.792254 0.294065,-3.447334 0,-5.235546 -0.54295,-3.301673 -2.072517,-6.286486 -4.444307,-8.665677 -2.9211,-2.930219 -6.825743,-4.551583 -10.84999,-4.660504 -0.228649,-0.0062 -0.457228,-0.0081 -0.686482,-0.0045 z m -0.176082,2.251129 c 2.633581,-0.08016 5.133232,0.544751 7.346259,1.838792 1.12685,0.658913 1.965947,1.321135 2.933152,2.313537 2.011521,2.063906 3.26854,4.616667 3.724398,7.555767 0.08977,0.578845 0.106967,0.873029 0.106967,1.988126 0,1.500851 -0.07211,2.120324 -0.394485,3.394524 -0.455228,1.799259 -1.220234,3.388205 -2.369256,4.92796 -0.569215,0.762783 -1.857964,2.046365 -2.645634,2.634486 -1.847848,1.379718 -3.973615,2.26756 -6.254129,2.612202 -0.759332,0.114775 -2.550737,0.165887 -3.300912,0.09362 -2.552526,-0.245908 -4.942788,-1.178016 -7.040908,-2.743708 -0.762779,-0.569214 -2.046364,-1.857963 -2.634489,-2.645638 -1.386811,-1.857343 -2.256802,-3.946923 -2.618887,-6.285321 -0.08934,-0.576987 -0.106343,-0.876604 -0.106985,-1.988126 -6.41e-4,-1.114112 0.01617,-1.407568 0.104757,-1.974752 0.405124,-2.593951 1.388355,-4.813755 3.01562,-6.797962 0.191911,-0.234007 0.649557,-0.719046 1.016352,-1.076531 2.471508,-2.408777 5.630668,-3.740837 9.11818,-3.846978 z m -0.666419,3.459159 v 6.238524 6.236295 h 4.522315 4.522316 V 33.698276 33.15221 h -3.97402 -3.976251 v -5.69023 -5.690228 h -0.548295 z" />
  </g>
</svg>
