<?xml version="1.0" encoding="UTF-8" standalone="no"?>
<svg
   width="64"
   height="64"
   version="1.1"
   id="svg73"
   sodipodi:docname="audacious.svg"
   inkscape:version="1.4.2 (ebf0e940d0, 2025-05-08)"
   xmlns:inkscape="http://www.inkscape.org/namespaces/inkscape"
   xmlns:sodipodi="http://sodipodi.sourceforge.net/DTD/sodipodi-0.dtd"
   xmlns="http://www.w3.org/2000/svg"
   xmlns:svg="http://www.w3.org/2000/svg"
   xmlns:rdf="http://www.w3.org/1999/02/22-rdf-syntax-ns#"
   xmlns:cc="http://creativecommons.org/ns#"
   xmlns:dc="http://purl.org/dc/elements/1.1/">
  <metadata
     id="metadata77">
    <rdf:RDF>
      <cc:Work
         rdf:about="">
        <dc:format>image/svg+xml</dc:format>
        <dc:type
           rdf:resource="http://purl.org/dc/dcmitype/StillImage" />
      </cc:Work>
    </rdf:RDF>
  </metadata>
  <sodipodi:namedview
     pagecolor="#f5f7fa"
     bordercolor="#666666"
     borderopacity="1"
     objecttolerance="10"
     gridtolerance="10"
     guidetolerance="10"
     inkscape:pageopacity="0"
     inkscape:pageshadow="2"
     inkscape:window-width="1377"
     inkscape:window-height="886"
     id="namedview75"
     showgrid="false"
     inkscape:zoom="6.2890624"
     inkscape:cx="47.622361"
     inkscape:cy="45.396274"
     inkscape:window-x="0"
     inkscape:window-y="48"
     inkscape:window-maximized="0"
     inkscape:current-layer="g877"
     inkscape:document-rotation="0"
     inkscape:pagecheckerboard="0"
     inkscape:showpageshadow="2"
     inkscape:deskcolor="#d1d1d1" />
  <defs
     id="defs29" />
  <circle
     cx="32.516094"
     cy="31.877844"
     r="0"
     fill="url(#b)"
     stroke-width="1.5715"
     id="circle41"
     style="fill:url(#b)" />
  <g
     aria-label="GZ"
     transform="matrix(1.2212657,0,0,0.81882264,0.4960938,-0.1661539)"
     id="text93"
     style="font-weight:bold;font-size:11.5263px;line-height:1.25;font-family:sans-serif;-inkscape-font-specification:'sans-serif Bold';fill:#f2f2f2;stroke-width:0.288159" />
  <g
     id="g877"
     transform="matrix(1.1,0,0,1.1,-3.1845928,-3.2065454)">
    <rect
       x="8.3496294"
       y="8.369586"
       width="47.272728"
       height="47.272728"
       rx="9.8825235"
       ry="9.6485243"
       fill="url(#linearGradient862)"
       stroke-width="3.0541"
       id="rect35-7-3"
       style="fill:#414141;fill-opacity:1;stroke:#dfdfdf;stroke-width:2.04545;stroke-dasharray:none;stroke-opacity:1" />
    <path
       fill="#f5f7fa"
       d="m 31.985998,47.796176 c -8.853117,0 -16.029982,-7.069527 -16.029982,-15.79022 0,-8.720707 7.176865,-15.790231 16.029982,-15.790231 8.853104,0 16.029973,7.069524 16.029973,15.790231 0,8.720693 -7.176869,15.79022 -16.029973,15.79022 z m 0,-28.071521 c -6.885758,0 -12.467762,5.498532 -12.467762,12.281301 0,0.48448 0.398715,0.87723 0.890554,0.87723 0.491838,0 0.890551,-0.392742 0.890551,-0.87723 0,-5.813806 4.784579,-10.526828 10.686657,-10.526828 0.491837,0 0.890554,-0.392752 0.890554,-0.87723 0,-0.484485 -0.398718,-0.877243 -0.890554,-0.877243 z m 0,19.299172 c 3.934715,0 7.124435,-3.142014 7.124435,-7.017871 0,-3.875869 -3.18972,-7.017887 -7.124435,-7.017887 -3.934719,0 -7.124437,3.142018 -7.124437,7.017887 0,3.875857 3.189718,7.017871 7.124437,7.017871 z m 0,-1.75447 c -2.95104,0 -5.343328,-2.356502 -5.343328,-5.263401 0,-2.906906 2.392288,-5.263418 5.343328,-5.263418 2.951035,0 5.343324,2.356512 5.343324,5.263418 0,2.906899 -2.392289,5.263401 -5.343324,5.263401 z m 0,-1.754469 c 1.967354,0 3.562214,-1.571 3.562214,-3.508932 0,-1.937941 -1.59486,-3.508946 -3.562214,-3.508946 -1.967363,0 -3.562217,1.571005 -3.562217,3.508946 0,1.937932 1.594854,3.508932 3.562217,3.508932 z"
       id="path42"
       style="fill:#dfdfdf;fill-opacity:1;stroke:none;stroke-width:1.03743;stroke-dasharray:none;stroke-opacity:0.3" />
  </g>
</svg>
