<?xml version="1.0" encoding="UTF-8" standalone="no"?>
<svg
   width="64"
   height="64"
   version="1.1"
   id="svg73"
   sodipodi:docname="audacious.svg"
   inkscape:version="1.4.2 (ebf0e940d0, 2025-05-08)"
   xmlns:inkscape="http://www.inkscape.org/namespaces/inkscape"
   xmlns:sodipodi="http://sodipodi.sourceforge.net/DTD/sodipodi-0.dtd"
   xmlns="http://www.w3.org/2000/svg"
   xmlns:svg="http://www.w3.org/2000/svg"
   xmlns:rdf="http://www.w3.org/1999/02/22-rdf-syntax-ns#"
   xmlns:cc="http://creativecommons.org/ns#"
   xmlns:dc="http://purl.org/dc/elements/1.1/">
  <metadata
     id="metadata77">
    <rdf:RDF>
      <cc:Work
         rdf:about="">
        <dc:format>image/svg+xml</dc:format>
        <dc:type
           rdf:resource="http://purl.org/dc/dcmitype/StillImage" />
      </cc:Work>
    </rdf:RDF>
  </metadata>
  <sodipodi:namedview
     pagecolor="#f5f7fa"
     bordercolor="#666666"
     borderopacity="1"
     objecttolerance="10"
     gridtolerance="10"
     guidetolerance="10"
     inkscape:pageopacity="0"
     inkscape:pageshadow="2"
     inkscape:window-width="1377"
     inkscape:window-height="886"
     id="namedview75"
     showgrid="false"
     inkscape:zoom="6.2890624"
     inkscape:cx="47.622361"
     inkscape:cy="45.396274"
     inkscape:window-x="0"
     inkscape:window-y="48"
     inkscape:window-maximized="0"
     inkscape:current-layer="g877"
     inkscape:document-rotation="0"
     inkscape:pagecheckerboard="0"
     inkscape:showpageshadow="2"
     inkscape:deskcolor="#d1d1d1" />
  <defs
     id="defs29" />
  <circle
     cx="32.516094"
     cy="31.877844"
     r="0"
     fill="url(#b)"
     stroke-width="1.5715"
     id="circle41"
     style="fill:url(#b)" />
  <g
     aria-label="GZ"
     transform="matrix(1.2212657,0,0,0.81882264,0.4960938,-0.1661539)"
     id="text93"
     style="font-weight:bold;font-size:11.5263px;line-height:1.25;font-family:sans-serif;-inkscape-font-specification:'sans-serif Bold';fill:#f2f2f2;stroke-width:0.288159" />
  <g
     id="g877"
     transform="matrix(1.1,0,0,1.1,-3.1845928,-3.2065454)">
    <rect
       x="8.3496294"
       y="8.369586"
       width="47.272728"
       height="47.272728"
       rx="9.8825235"
       ry="9.6485243"
       fill="url(#linearGradient862)"
       stroke-width="3.0541"
       id="rect35-7-3"
       style="fill:#414141;fill-opacity:1;stroke:#dfdfdf;stroke-width:2.04545;stroke-dasharray:none;stroke-opacity:1" />
    <path
       d="m 31.985994,16.4927 c -8.610085,0 -15.58994,6.945527 -15.58994,15.513252 0,8.56772 6.979855,15.513249 15.58994,15.513249 8.610075,0 15.589939,-6.945529 15.589939,-15.513249 0,-8.567725 -6.979864,-15.513252 -15.589939,-15.513252 z m -1.113568,4.293847 c 0.148994,-0.01549 0.336879,0.0088 0.48722,0 0.01768,0.07095 -0.108506,0.323276 -0.278374,0.692559 -1.082076,2.352163 -1.143458,5.106874 -0.139226,6.579281 0.181736,0.266956 0.347986,0.521019 0.347986,0.554047 0,0.033 -0.195962,0.06909 -0.417603,0.06909 -0.520209,0 -1.012503,-0.315495 -2.01834,-1.108067 -0.446812,-0.352086 -1.027717,-0.647812 -1.252773,-0.692573 -0.353374,-0.07027 -0.447566,-0.03945 -0.904791,0.415529 -0.425346,0.423205 -0.556744,0.651399 -0.556744,1.038836 0,1.469194 1.752931,2.637118 5.011055,3.324268 4.424644,0.933167 5.515387,1.770993 5.637428,4.086078 0.15322,2.903147 -1.39997,5.092267 -4.802261,6.787045 -0.406069,0.202327 -0.664829,0.280896 -0.835201,0.346266 -0.07574,-0.0067 -0.13342,0.0067 -0.208678,0 -0.0286,-0.08974 -0.06989,-0.297968 -0.06989,-0.692559 0,-1.54197 -0.610788,-3.129132 -1.531127,-4.016822 -0.247053,-0.238279 -0.938801,-0.743192 -1.531167,-1.108083 -0.592354,-0.36487 -1.189186,-0.788732 -1.322369,-0.969573 -0.220712,-0.300097 -0.239063,-0.484459 -0.06988,-1.038835 0.30901,-1.012505 0.676865,-1.576434 1.391939,-2.216177 0.374919,-0.335396 0.752119,-0.616654 0.835203,-0.623305 0.08332,-0.0065 -0.479136,-0.174639 -1.322359,-0.346275 -0.843233,-0.171932 -2.076599,-0.532111 -2.714381,-0.761773 -1.166084,-0.419852 -2.740444,-1.301251 -3.340728,-1.939154 -0.02527,-0.02706 -0.04714,-0.04524 -0.06988,-0.0691 0.859968,-3.408617 3.273292,-6.202331 6.472592,-7.548858 0.669373,-0.281746 1.359487,-0.475037 2.087939,-0.623306 0.3628,-0.07378 0.738902,-0.100609 1.113563,-0.13851 z m 10.439691,5.194167 c 0.261542,0.16089 1.249216,2.287209 1.531154,3.324267 0.363981,1.338995 0.337638,3.656144 0,4.986406 -0.12856,0.50626 -0.29318,0.979882 -0.34798,1.038834 -0.05471,0.05898 -0.253439,-0.280416 -0.487214,-0.69256 -0.23374,-0.412072 -0.980275,-1.287707 -1.600734,-1.939153 -1.790924,-1.880493 -2.072549,-2.862371 -1.322357,-4.363102 0.378288,-0.756805 2.024686,-2.479019 2.227131,-2.354692 z"
       fill="#333333"
       id="path2-0"
       style="fill:#dfdfdf;fill-opacity:1;stroke:none;stroke-width:0.943112;stroke-dasharray:none;stroke-opacity:0.3" />
  </g>
</svg>
