<?xml version="1.0" encoding="UTF-8" standalone="no"?>
<svg
   width="64"
   height="64"
   version="1.1"
   id="svg73"
   sodipodi:docname="audacious.svg"
   inkscape:version="1.4.2 (ebf0e940d0, 2025-05-08)"
   xmlns:inkscape="http://www.inkscape.org/namespaces/inkscape"
   xmlns:sodipodi="http://sodipodi.sourceforge.net/DTD/sodipodi-0.dtd"
   xmlns="http://www.w3.org/2000/svg"
   xmlns:svg="http://www.w3.org/2000/svg"
   xmlns:rdf="http://www.w3.org/1999/02/22-rdf-syntax-ns#"
   xmlns:cc="http://creativecommons.org/ns#"
   xmlns:dc="http://purl.org/dc/elements/1.1/">
  <metadata
     id="metadata77">
    <rdf:RDF>
      <cc:Work
         rdf:about="">
        <dc:format>image/svg+xml</dc:format>
        <dc:type
           rdf:resource="http://purl.org/dc/dcmitype/StillImage" />
      </cc:Work>
    </rdf:RDF>
  </metadata>
  <sodipodi:namedview
     pagecolor="#f5f7fa"
     bordercolor="#666666"
     borderopacity="1"
     objecttolerance="10"
     gridtolerance="10"
     guidetolerance="10"
     inkscape:pageopacity="0"
     inkscape:pageshadow="2"
     inkscape:window-width="1377"
     inkscape:window-height="886"
     id="namedview75"
     showgrid="false"
     inkscape:zoom="6.2890624"
     inkscape:cx="45.714286"
     inkscape:cy="39.513044"
     inkscape:window-x="0"
     inkscape:window-y="48"
     inkscape:window-maximized="0"
     inkscape:current-layer="g877"
     inkscape:document-rotation="0"
     inkscape:pagecheckerboard="0"
     inkscape:showpageshadow="2"
     inkscape:deskcolor="#d1d1d1" />
  <defs
     id="defs29" />
  <circle
     cx="32.516094"
     cy="31.877844"
     r="0"
     fill="url(#b)"
     stroke-width="1.5715"
     id="circle41"
     style="fill:url(#b)" />
  <g
     aria-label="GZ"
     transform="matrix(1.2212657,0,0,0.81882264,0.4960938,-0.1661539)"
     id="text93"
     style="font-weight:bold;font-size:11.5263px;line-height:1.25;font-family:sans-serif;-inkscape-font-specification:'sans-serif Bold';fill:#f2f2f2;stroke-width:0.288159" />
  <g
     id="g877"
     transform="matrix(1.1,0,0,1.1,-3.1845928,-3.2065454)">
    <rect
       x="8.3496294"
       y="8.369586"
       width="47.272728"
       height="47.272728"
       rx="9.8825235"
       ry="9.6485243"
       fill="url(#linearGradient862)"
       stroke-width="3.0541"
       id="rect35-7-3"
       style="fill:#414141;fill-opacity:1;stroke:#dfdfdf;stroke-width:2.04545;stroke-dasharray:none;stroke-opacity:1" />
    <path
       id="path19"
       style="fill:#dfdfdf;fill-opacity:1;stroke:none;stroke-width:1.03743;stroke-dasharray:none;stroke-dashoffset:2.2;stroke-opacity:0.3"
       d="m 27.997383,19.2349 c -0.80432,0.0099 -1.619022,0.190559 -2.397015,0.563291 -3.695051,1.770244 -4.517461,6.520922 -1.620976,9.369231 0.874842,0.860291 1.788295,1.36407 2.913702,1.608816 0.923936,0.200933 1.288244,0.210156 2.168053,0.05065 2.141391,-0.388208 4.019243,-2.072222 4.629909,-4.153748 0.287994,-0.981641 0.246841,-2.51169 -0.0932,-3.474964 -0.876485,-2.482894 -3.18751,-3.992732 -5.600467,-3.963284 z m 9.853502,3.835631 c -0.441412,0.0067 -0.886038,0.07222 -1.325147,0.202619 l -0.615971,0.18236 0.07295,1.043503 c 0.136633,1.924943 -0.581584,4.211726 -1.734445,5.521445 -0.267908,0.304361 -0.488318,0.600798 -0.488318,0.658522 0,0.137864 1.163406,1.253336 1.566266,1.501425 0.172999,0.10654 0.62904,0.303849 1.013109,0.439691 1.078584,0.381487 2.577654,0.297102 3.649219,-0.204646 1.069279,-0.50068 2.012664,-1.406324 2.502377,-2.40107 0.360463,-0.732176 0.384967,-0.863261 0.384967,-2.038375 0,-1.172254 -0.02562,-1.307796 -0.380927,-2.028242 -0.897066,-1.81915 -2.731293,-2.906345 -4.644078,-2.877232 z m -0.794276,11.936452 0.583546,0.384981 c 1.347739,0.892705 2.563617,2.271061 3.310845,3.748504 0.403357,0.797531 0.911795,2.553407 0.911795,3.148741 v 0.461976 h 2.931938 2.931936 l -0.04052,-1.40619 C 47.645653,40.00004 47.622673,39.89873 47.195803,39.0351 45.925731,36.465632 42.682101,35.006983 38.241944,35.006983 Z m -8.793792,0.02228 c -0.286315,2.76e-4 -0.578381,0.0054 -0.877352,0.01419 -2.501151,0.07345 -3.703005,0.27413 -5.414055,0.903708 -3.720279,1.368882 -5.722152,4.15413 -5.726092,7.967095 v 0.86317 H 28.04196 39.8386 v -1.22587 c 0,-2.294458 -0.649428,-3.864614 -2.251124,-5.450526 -2.136932,-2.115879 -5.029896,-3.075867 -9.324659,-3.071757 z" />
  </g>
</svg>
