<?xml version="1.0" encoding="UTF-8" standalone="no"?>
<svg
   width="64"
   height="64"
   version="1.1"
   id="svg73"
   sodipodi:docname="audacious.svg"
   inkscape:version="1.4.2 (ebf0e940d0, 2025-05-08)"
   xmlns:inkscape="http://www.inkscape.org/namespaces/inkscape"
   xmlns:sodipodi="http://sodipodi.sourceforge.net/DTD/sodipodi-0.dtd"
   xmlns="http://www.w3.org/2000/svg"
   xmlns:svg="http://www.w3.org/2000/svg"
   xmlns:rdf="http://www.w3.org/1999/02/22-rdf-syntax-ns#"
   xmlns:cc="http://creativecommons.org/ns#"
   xmlns:dc="http://purl.org/dc/elements/1.1/">
  <metadata
     id="metadata77">
    <rdf:RDF>
      <cc:Work
         rdf:about="">
        <dc:format>image/svg+xml</dc:format>
        <dc:type
           rdf:resource="http://purl.org/dc/dcmitype/StillImage" />
      </cc:Work>
    </rdf:RDF>
  </metadata>
  <sodipodi:namedview
     pagecolor="#f5f7fa"
     bordercolor="#666666"
     borderopacity="1"
     objecttolerance="10"
     gridtolerance="10"
     guidetolerance="10"
     inkscape:pageopacity="0"
     inkscape:pageshadow="2"
     inkscape:window-width="1377"
     inkscape:window-height="886"
     id="namedview75"
     showgrid="false"
     inkscape:zoom="6.2890624"
     inkscape:cx="47.622361"
     inkscape:cy="45.396274"
     inkscape:window-x="28"
     inkscape:window-y="57"
     inkscape:window-maximized="0"
     inkscape:current-layer="g877"
     inkscape:document-rotation="0"
     inkscape:pagecheckerboard="0"
     inkscape:showpageshadow="2"
     inkscape:deskcolor="#d1d1d1" />
  <defs
     id="defs29" />
  <circle
     cx="32.516094"
     cy="31.877844"
     r="0"
     fill="url(#b)"
     stroke-width="1.5715"
     id="circle41"
     style="fill:url(#b)" />
  <g
     aria-label="GZ"
     transform="matrix(1.2212657,0,0,0.81882264,0.4960938,-0.1661539)"
     id="text93"
     style="font-weight:bold;font-size:11.5263px;line-height:1.25;font-family:sans-serif;-inkscape-font-specification:'sans-serif Bold';fill:#f2f2f2;stroke-width:0.288159" />
  <g
     id="g877"
     transform="matrix(1.1,0,0,1.1,-3.1845928,-3.2065454)">
    <rect
       x="8.3496294"
       y="8.369586"
       width="47.272728"
       height="47.272728"
       rx="9.8825235"
       ry="9.6485243"
       fill="url(#linearGradient862)"
       stroke-width="3.0541"
       id="rect35-7-3"
       style="fill:#414141;fill-opacity:1;stroke:#dfdfdf;stroke-width:2.04545;stroke-dasharray:none;stroke-opacity:1" />
    <path
       style="fill:#dfdfdf;stroke-width:0.0426936;fill-opacity:1"
       d="m 22.486285,42.691825 c -2.938488,-0.389712 -5.189931,-2.501653 -5.726553,-5.371746 -0.118469,-0.63363 -0.107836,-1.803025 0.02191,-2.41221 0.277135,-1.300998 0.819803,-2.335009 1.709132,-3.256624 0.701107,-0.72656 1.416846,-1.21693 2.275279,-1.55885 C 21.224838,29.909657 21.898605,29.7281 22.3076,29.677 l 0.233301,-0.02913 0.05131,-0.262509 c 0.204064,-1.043761 0.720184,-1.988084 1.492502,-2.730769 0.636275,-0.611864 1.397944,-1.039135 2.247208,-1.260617 l 0.460653,-0.120135 0.176422,-0.289647 c 0.65351,-1.072956 1.602367,-2.00774 2.689844,-2.649943 0.746799,-0.441017 1.670944,-0.781539 2.561638,-0.943893 0.601242,-0.109599 2.003089,-0.109599 2.604331,0 2.432784,0.443442 4.447938,1.952487 5.550227,4.156271 0.5121,1.023831 0.745477,1.995635 0.778846,3.243147 l 0.02237,0.819668 0.111871,0.02089 c 0.06156,0.01152 0.227224,0.03356 0.3681,0.04899 0.405171,0.04451 1.16253,0.250353 1.611815,0.43808 0.850906,0.355543 1.530296,0.826448 2.212896,1.533832 0.889331,0.921618 1.431995,1.955628 1.709135,3.256626 0.129767,0.609185 0.140399,1.778578 0.02237,2.412209 -0.384911,2.058627 -1.700417,3.80583 -3.549153,4.7138 -0.556436,0.273314 -0.994066,0.428608 -1.610343,0.571537 l -0.396277,0.09188 -9.520753,0.0055 c -5.236255,0.0033 -9.578232,-0.002 -9.648675,-0.01132 z m 5.93446,-3.643204 c 0.647595,-0.246638 1.208695,-0.805403 1.406221,-1.400363 0.13049,-0.39304 0.149483,-0.866374 0.151076,-3.765044 l 0.0016,-2.924534 2.721446,-0.957735 c 1.496796,-0.52675 2.745465,-0.965885 2.774817,-0.975852 0.0422,-0.01431 0.05337,0.412444 0.05337,2.040734 v 2.058855 l -0.09606,-0.03111 c -0.05284,-0.01707 -0.300243,-0.04059 -0.549806,-0.05223 -0.347993,-0.01622 -0.512178,-0.0044 -0.704449,0.05085 -0.804799,0.231057 -1.477648,0.935268 -1.63977,1.7162 -0.07237,0.348525 -0.03331,1.00275 0.07814,1.309754 0.230112,0.633841 0.726435,1.135985 1.363863,1.379862 0.380525,0.145564 0.981994,0.182845 1.365596,0.08457 0.82604,-0.211621 1.486188,-0.864574 1.698599,-1.680095 0.09165,-0.351788 0.0966,-10.572148 0.0056,-10.550532 -0.0321,0.0076 -1.991574,0.695838 -4.354324,1.529436 l -4.296156,1.51566 -4.51e-4,3.127333 c -2.48e-4,1.720031 -0.01491,3.12687 -0.03248,3.126313 -0.01764,-5.64e-4 -0.108871,-0.02011 -0.202798,-0.04336 -0.30259,-0.07502 -0.910666,-0.05433 -1.219885,0.04152 -0.926761,0.287299 -1.557257,1.108405 -1.608581,2.094891 -0.03683,0.707954 0.175747,1.265461 0.667462,1.750487 0.309713,0.305524 0.614944,0.488943 1.00824,0.60596 0.364534,0.108453 1.055085,0.08318 1.408899,-0.05157 z"
       id="path7" />
  </g>
</svg>
