<?xml version="1.0" encoding="UTF-8" standalone="no"?>
<svg
   width="64"
   height="64"
   version="1.1"
   id="svg73"
   sodipodi:docname="audacious.svg"
   inkscape:version="1.4.2 (ebf0e940d0, 2025-05-08)"
   xmlns:inkscape="http://www.inkscape.org/namespaces/inkscape"
   xmlns:sodipodi="http://sodipodi.sourceforge.net/DTD/sodipodi-0.dtd"
   xmlns="http://www.w3.org/2000/svg"
   xmlns:svg="http://www.w3.org/2000/svg"
   xmlns:rdf="http://www.w3.org/1999/02/22-rdf-syntax-ns#"
   xmlns:cc="http://creativecommons.org/ns#"
   xmlns:dc="http://purl.org/dc/elements/1.1/">
  <metadata
     id="metadata77">
    <rdf:RDF>
      <cc:Work
         rdf:about="">
        <dc:format>image/svg+xml</dc:format>
        <dc:type
           rdf:resource="http://purl.org/dc/dcmitype/StillImage" />
      </cc:Work>
    </rdf:RDF>
  </metadata>
  <sodipodi:namedview
     pagecolor="#f5f7fa"
     bordercolor="#666666"
     borderopacity="1"
     objecttolerance="10"
     gridtolerance="10"
     guidetolerance="10"
     inkscape:pageopacity="0"
     inkscape:pageshadow="2"
     inkscape:window-width="1377"
     inkscape:window-height="886"
     id="namedview75"
     showgrid="false"
     inkscape:zoom="6.2890624"
     inkscape:cx="47.622361"
     inkscape:cy="45.396274"
     inkscape:window-x="28"
     inkscape:window-y="57"
     inkscape:window-maximized="0"
     inkscape:current-layer="g877"
     inkscape:document-rotation="0"
     inkscape:pagecheckerboard="0"
     inkscape:showpageshadow="2"
     inkscape:deskcolor="#d1d1d1" />
  <defs
     id="defs29" />
  <circle
     cx="32.516094"
     cy="31.877844"
     r="0"
     fill="url(#b)"
     stroke-width="1.5715"
     id="circle41"
     style="fill:url(#b)" />
  <g
     aria-label="GZ"
     transform="matrix(1.2212657,0,0,0.81882264,0.4960938,-0.1661539)"
     id="text93"
     style="font-weight:bold;font-size:11.5263px;line-height:1.25;font-family:sans-serif;-inkscape-font-specification:'sans-serif Bold';fill:#f2f2f2;stroke-width:0.288159" />
  <g
     id="g877"
     transform="matrix(1.1,0,0,1.1,-3.1845928,-3.2065454)">
    <rect
       x="8.3496294"
       y="8.369586"
       width="47.272728"
       height="47.272728"
       rx="9.8825235"
       ry="9.6485243"
       fill="url(#linearGradient862)"
       stroke-width="3.0541"
       id="rect35-7-3"
       style="fill:#414141;fill-opacity:1;stroke:#dfdfdf;stroke-width:2.04545;stroke-dasharray:none;stroke-opacity:1" />
    <path
       style="fill:#dfdfdf;fill-opacity:1;stroke:none;stroke-width:0.477661;stroke-dasharray:none;stroke-opacity:0.6"
       d="m 39.386018,37.47819 c -5.569897,2.641653 -11.302347,5.120712 -17.388501,6.441707 -1.961668,-0.0091 -0.993811,-2.459279 -0.676946,-3.569576 1.521688,-4.716345 3.881193,-9.132016 6.125286,-13.559483 0.888452,-1.398888 1.518618,-3.326844 3.309905,-3.865075 1.739936,-0.185475 2.883174,1.428786 3.784389,2.606462 3.685231,5.414635 7.165639,10.970891 10.21745,16.737063 0.773028,1.502858 1.530411,3.013012 2.27972,4.526835 -2.228195,-8.72625 -5.227019,-17.381118 -10.062106,-25.125542 -1.083698,-1.529215 -2.070461,-3.188926 -3.532851,-4.419323 -1.425058,-1.04988 -3.177635,0.08042 -4.231229,1.096751 -3.308881,3.183756 -5.324554,7.338657 -7.299893,11.350245 -2.303453,4.74725 -3.814606,9.808106 -4.924071,14.920094 -0.38896,1.721588 1.456851,2.971208 3.097205,2.437021 4.543511,-0.906567 8.813451,-2.808159 12.831554,-4.990429 2.315798,-1.304587 4.543035,-2.78597 6.469666,-4.587254 z"
       id="path8" />
  </g>
</svg>
