<?xml version="1.0" encoding="UTF-8" standalone="no"?>
<svg
   width="64"
   height="64"
   version="1.1"
   id="svg73"
   sodipodi:docname="hwloc.svg"
   inkscape:version="1.3.2 (091e20ef0f, 2023-11-25)"
   xmlns:inkscape="http://www.inkscape.org/namespaces/inkscape"
   xmlns:sodipodi="http://sodipodi.sourceforge.net/DTD/sodipodi-0.dtd"
   xmlns="http://www.w3.org/2000/svg"
   xmlns:svg="http://www.w3.org/2000/svg"
   xmlns:rdf="http://www.w3.org/1999/02/22-rdf-syntax-ns#"
   xmlns:cc="http://creativecommons.org/ns#"
   xmlns:dc="http://purl.org/dc/elements/1.1/">
  <metadata
     id="metadata77">
    <rdf:RDF>
      <cc:Work
         rdf:about="">
        <dc:format>image/svg+xml</dc:format>
        <dc:type
           rdf:resource="http://purl.org/dc/dcmitype/StillImage" />
      </cc:Work>
    </rdf:RDF>
  </metadata>
  <sodipodi:namedview
     pagecolor="#f5f7fa"
     bordercolor="#666666"
     borderopacity="1"
     objecttolerance="10"
     gridtolerance="10"
     guidetolerance="10"
     inkscape:pageopacity="0"
     inkscape:pageshadow="2"
     inkscape:window-width="1377"
     inkscape:window-height="886"
     id="namedview75"
     showgrid="false"
     inkscape:zoom="4.4470387"
     inkscape:cx="47.784608"
     inkscape:cy="14.054296"
     inkscape:window-x="181"
     inkscape:window-y="77"
     inkscape:window-maximized="0"
     inkscape:current-layer="g877"
     inkscape:document-rotation="0"
     inkscape:pagecheckerboard="0"
     inkscape:showpageshadow="2"
     inkscape:deskcolor="#d1d1d1" />
  <defs
     id="defs29">
    <linearGradient
       id="b"
       x1="399.57"
       x2="399.57"
       y1="545.8"
       y2="517.8"
       gradientTransform="matrix(2.1429,0,0,2.1429,-825.86391,-1107.6662)"
       gradientUnits="userSpaceOnUse">
      <stop
         stop-color="#3889e9"
         offset="0"
         id="stop2" />
      <stop
         stop-color="#5ea5fb"
         offset="1"
         id="stop4" />
    </linearGradient>
    <linearGradient
       id="d"
       x2="1"
       gradientTransform="matrix(14.905727,-4.7106182,4.7106182,14.905727,322.04962,998.26962)"
       gradientUnits="userSpaceOnUse">
      <stop
         stop-color="#fafafa"
         offset="0"
         id="stop7" />
      <stop
         stop-color="#aaa"
         offset="1"
         id="stop8" />
    </linearGradient>
    <linearGradient
       id="e"
       x2="1"
       gradientTransform="matrix(21.439909,0,0,21.439909,26.63554,1159.7788)"
       gradientUnits="userSpaceOnUse">
      <stop
         stop-color="#f0f0f0"
         offset="0"
         id="stop9" />
      <stop
         stop-color="#b7f1ff"
         offset="1"
         id="stop10" />
    </linearGradient>
  </defs>
  <circle
     cx="32.516094"
     cy="31.877844"
     r="0"
     fill="url(#b)"
     stroke-width="1.5715"
     id="circle41"
     style="fill:url(#b)" />
  <g
     aria-label="GZ"
     transform="matrix(1.2212657,0,0,0.81882264,0.4960938,-0.1661539)"
     id="text93"
     style="font-weight:bold;font-size:11.5263px;line-height:1.25;font-family:sans-serif;-inkscape-font-specification:'sans-serif Bold';fill:#f2f2f2;stroke-width:0.288159" />
  <g
     id="g877"
     transform="matrix(1.1,0,0,1.1,-3.1845928,-3.2065454)">
    <rect
       x="6.3010068"
       y="5.4939413"
       width="51.635597"
       height="53.148327"
       rx="10.980581"
       ry="10.720582"
       fill="url(#linearGradient862)"
       stroke-width="3.0541"
       id="rect35-7-3"
       style="fill:#414141;fill-opacity:1;stroke:#dfdfdf;stroke-width:2.27272727;stroke-dasharray:none;stroke-opacity:1" />
    <path
       style="color:#444444;fill:#dfdfdf;fill-opacity:1;stroke:none;stroke-width:1.18592;stroke-dasharray:none;stroke-opacity:0.3"
       class="ColorScheme-Text"
       d="m 27.165221,15.132978 c -0.956109,0 -0.954782,0.0015 -1.862732,0.966377 l -2.591013,3.814162 h -6.064377 c -2.103442,0 -3.823502,1.56841 -3.823502,3.613415 v 21.353707 c 0,2.045009 1.72006,3.716122 3.823502,3.716122 h 30.597322 c 2.103442,0 3.823501,-1.671113 3.823501,-3.716122 V 23.526932 c 0,-2.045005 -1.720059,-3.613415 -3.823501,-3.613415 h -6.064378 l -2.623694,-3.85151 C 37.683476,15.134586 37.682409,15.132978 36.7263,15.132978 Z m 20.289282,7.17081 a 1.1951351,1.1951351 0 0 1 0.02768,0 1.1951351,1.1951351 0 0 1 1.195348,1.195137 1.1951351,1.1951351 0 0 1 -1.195187,1.195133 1.1951351,1.1951351 0 0 1 -1.195136,-1.195133 1.1951351,1.1951351 0 0 1 1.167121,-1.195137 z m -15.653467,2.39027 a 9.5610809,9.5610809 0 0 1 0.144726,0 9.5610809,9.5610809 0 0 1 9.561081,9.561082 9.5610809,9.5610809 0 0 1 -9.56108,9.561084 9.5610809,9.5610809 0 0 1 -9.561078,-9.561084 9.5610809,9.5610809 0 0 1 9.416351,-9.561082 z m 0.02796,4.780541 a 4.7805402,4.7805402 0 0 0 -4.663802,4.780541 4.7805402,4.7805402 0 0 0 4.780543,4.78054 4.7805402,4.7805402 0 0 0 4.780541,-4.78054 4.7805402,4.7805402 0 0 0 -4.780541,-4.780541 4.7805402,4.7805402 0 0 0 -0.116716,0 z"
       id="path5" />
  </g>
</svg>
