<?xml version="1.0" encoding="UTF-8" standalone="no"?>
<svg
   width="64"
   height="64"
   version="1.1"
   id="svg73"
   sodipodi:docname="steam_icon_807120.svg"
   inkscape:version="1.3.2 (091e20ef0f, 2023-11-25)"
   xmlns:inkscape="http://www.inkscape.org/namespaces/inkscape"
   xmlns:sodipodi="http://sodipodi.sourceforge.net/DTD/sodipodi-0.dtd"
   xmlns="http://www.w3.org/2000/svg"
   xmlns:svg="http://www.w3.org/2000/svg"
   xmlns:rdf="http://www.w3.org/1999/02/22-rdf-syntax-ns#"
   xmlns:cc="http://creativecommons.org/ns#"
   xmlns:dc="http://purl.org/dc/elements/1.1/">
  <metadata
     id="metadata77">
    <rdf:RDF>
      <cc:Work
         rdf:about="">
        <dc:format>image/svg+xml</dc:format>
        <dc:type
           rdf:resource="http://purl.org/dc/dcmitype/StillImage" />
      </cc:Work>
    </rdf:RDF>
  </metadata>
  <sodipodi:namedview
     pagecolor="#f5f7fa"
     bordercolor="#666666"
     borderopacity="1"
     objecttolerance="10"
     gridtolerance="10"
     guidetolerance="10"
     inkscape:pageopacity="0"
     inkscape:pageshadow="2"
     inkscape:window-width="1377"
     inkscape:window-height="886"
     id="namedview75"
     showgrid="false"
     inkscape:zoom="6.2890624"
     inkscape:cx="47.622361"
     inkscape:cy="45.396274"
     inkscape:window-x="74"
     inkscape:window-y="53"
     inkscape:window-maximized="0"
     inkscape:current-layer="g877"
     inkscape:document-rotation="0"
     inkscape:pagecheckerboard="0"
     inkscape:showpageshadow="2"
     inkscape:deskcolor="#d1d1d1" />
  <defs
     id="defs29">
    <inkscape:path-effect
       effect="powerclip"
       id="path-effect1980"
       is_visible="true"
       lpeversion="1"
       inverse="true"
       flatten="false"
       hide_clip="false"
       message="Use fill-rule evenodd on &lt;b&gt;fill and stroke&lt;/b&gt; dialog if no flatten result after convert clip to paths." />
    <linearGradient
       id="b"
       x1="399.57"
       x2="399.57"
       y1="545.8"
       y2="517.8"
       gradientTransform="matrix(2.1429,0,0,2.1429,-825.86391,-1107.6662)"
       gradientUnits="userSpaceOnUse">
      <stop
         stop-color="#3889e9"
         offset="0"
         id="stop2" />
      <stop
         stop-color="#5ea5fb"
         offset="1"
         id="stop4" />
    </linearGradient>
    <linearGradient
       id="linearGradient862"
       x1="7.9373"
       x2="7.9373"
       y1="15.081"
       y2="1.852"
       gradientTransform="matrix(3.3743 0 0 3.3743 3.4312 3.4278)"
       gradientUnits="userSpaceOnUse">
      <stop
         stop-color="#f1efeb"
         offset="0"
         id="stop7" />
      <stop
         stop-color="#fff"
         offset="1"
         id="stop9" />
    </linearGradient>
    <linearGradient
       id="linearGradient910"
       x1="7.9373"
       x2="7.9373"
       y1="15.081"
       y2="1.852"
       gradientTransform="scale(3.7796)"
       gradientUnits="userSpaceOnUse">
      <stop
         stop-color="#613583"
         offset="0"
         id="stop12" />
      <stop
         stop-color="#a663c0"
         offset="1"
         id="stop14" />
    </linearGradient>
    <linearGradient
       id="linearGradient932"
       x1="379.24"
       x2="374.24"
       y1="546.85"
       y2="546.85"
       gradientTransform="matrix(2.1429 0 0 2.1429 -769.68 -1134.5)"
       gradientUnits="userSpaceOnUse">
      <stop
         stop-color="#f6f5f4"
         offset="0"
         id="stop17" />
      <stop
         stop-color="#fff"
         offset=".6"
         id="stop19" />
      <stop
         stop-color="#dddbd8"
         offset="1"
         id="stop21" />
    </linearGradient>
    <linearGradient
       id="linearGradient1146"
       x1="18"
       x2="18"
       y1="52"
       y2="12"
       gradientUnits="userSpaceOnUse">
      <stop
         stop-color="#5e337f"
         offset="0"
         id="stop24" />
      <stop
         stop-color="#ab60bf"
         offset="1"
         id="stop26" />
    </linearGradient>
    <clipPath
       clipPathUnits="userSpaceOnUse"
       id="clipPath1976">
      <rect
         x="9.6784649"
         y="9.925169"
         width="43.343258"
         height="44.613056"
         rx="8.6689987"
         ry="8.9229689"
         fill="url(#linearGradient862)"
         stroke-width="2.96772"
         id="rect1978"
         style="display:block;fill:#333333;fill-opacity:1" />
    </clipPath>
    <filter
       style="color-interpolation-filters:sRGB;"
       inkscape:label="Drop Shadow"
       id="filter663"
       x="-0.098870968"
       y="-0.096056853"
       width="1.2389382"
       height="1.2321374">
      <feFlood
         flood-opacity="0.301961"
         flood-color="rgb(0,0,0)"
         result="flood"
         id="feFlood653" />
      <feComposite
         in="flood"
         in2="SourceGraphic"
         operator="in"
         result="composite1"
         id="feComposite655" />
      <feGaussianBlur
         in="composite1"
         stdDeviation="2"
         result="blur"
         id="feGaussianBlur657" />
      <feOffset
         dx="2"
         dy="2"
         result="offset"
         id="feOffset659" />
      <feComposite
         in="SourceGraphic"
         in2="offset"
         operator="over"
         result="composite2"
         id="feComposite661" />
    </filter>
    <clipPath
       clipPathUnits="userSpaceOnUse"
       id="clipPath38">
      <rect
         x="0.97311002"
         y="4.6963"
         width="14.987"
         height="9.9216995"
         ry="0.29919001"
         fill="#fffffc"
         id="rect40"
         style="display:block;opacity:0.85;fill:#f2f2f2;stroke-width:0.999999" />
    </clipPath>
    <inkscape:path-effect
       effect="powerclip"
       id="path-effect42"
       is_visible="true"
       lpeversion="1"
       inverse="true"
       flatten="false"
       hide_clip="false"
       message="Use fill-rule evenodd on &lt;b&gt;fill and stroke&lt;/b&gt; dialog if no flatten result after convert clip to paths." />
    <clipPath
       clipPathUnits="userSpaceOnUse"
       id="clipPath30">
      <path
         id="path32"
         style="color:#000000;display:block;opacity:0.85;fill:#f5f7fa;stroke-linecap:round;-inkscape-stroke:none"
         d="m 27.902344,19.023438 c -5.140587,0.01596 -9.820748,0.752518 -13.330078,2.15625 a 2.5,2.5 0 0 0 -1.392578,3.248046 2.5,2.5 0 0 0 3.248046,1.392578 c 3.180816,-1.272325 8.839301,-2.056673 14.796875,-1.699218 5.957575,0.357454 12.260098,1.820223 17.035157,4.548828 a 2.5,2.5 0 0 0 3.410156,-0.929688 2.5,2.5 0 0 0 -0.929688,-3.410156 c -5.72493,-3.271389 -12.67243,-4.808627 -19.214843,-5.201172 -1.226703,-0.0736 -2.436758,-0.109153 -3.623047,-0.105468 z m -1.240235,9.966796 c -1.05657,-0.0087 -2.093217,0.01082 -3.097656,0.05859 -2.678505,0.127409 -5.127438,0.45996 -7.113281,1.027344 a 2,2 0 0 0 -1.375,2.472656 2,2 0 0 0 2.472656,1.375 c 3.028306,-0.86523 8.701737,-1.165792 14.148438,-0.68164 5.4467,0.484152 10.812065,1.834345 13.193359,3.421874 a 2,2 0 0 0 2.773437,-0.554687 2,2 0 0 0 -0.554687,-2.773437 C 43.490675,30.923467 37.856023,29.773657 32.052734,29.257808 30.239207,29.096607 28.42306,29.004783 26.662109,28.99023 Z m 0.917969,8.988282 c -3.813243,-0.0048 -7.379665,0.410834 -10.064453,1.082031 a 2,2 0 0 0 -1.455078,2.423828 2,2 0 0 0 2.423828,1.455078 c 5.391278,-1.347819 17.438862,-1.241506 23.621094,1.849609 a 2,2 0 0 0 2.683593,-0.894531 2,2 0 0 0 -0.894531,-2.683593 c -3.908877,-1.954439 -8.851018,-2.904387 -13.642578,-3.160157 -0.898417,-0.04796 -1.791896,-0.07116 -2.671875,-0.07227 z" />
    </clipPath>
    <inkscape:path-effect
       effect="powerclip"
       id="path-effect34"
       is_visible="true"
       lpeversion="1"
       inverse="true"
       flatten="false"
       hide_clip="false"
       message="Use fill-rule evenodd on &lt;b&gt;fill and stroke&lt;/b&gt; dialog if no flatten result after convert clip to paths." />
    <clipPath
       clipPathUnits="userSpaceOnUse"
       id="clipPath1299">
      <path
         style="color:#000000;display:block;opacity:0.85;fill:#f5f7fa;-inkscape-stroke:none"
         d="m 24.149464,39.847234 c 1.129182,1.129183 1.129024,2.947446 -3.54e-4,4.076824 L 11.920405,56.152763 c -1.129378,1.129378 -2.9476414,1.129536 -4.0768237,3.54e-4 -1.1291824,-1.129183 -1.1290247,-2.947446 3.535e-4,-4.076825 L 20.072639,39.847588 c 1.129379,-1.129378 2.947642,-1.129536 4.076825,-3.54e-4 z"
         id="path1301" />
    </clipPath>
    <inkscape:path-effect
       effect="powerclip"
       id="path-effect1303"
       is_visible="true"
       lpeversion="1"
       inverse="true"
       flatten="false"
       hide_clip="false"
       message="Use fill-rule evenodd on &lt;b&gt;fill and stroke&lt;/b&gt; dialog if no flatten result after convert clip to paths." />
    <clipPath
       clipPathUnits="userSpaceOnUse"
       id="clipPath703">
      <path
         id="path705"
         style="display:block;fill:#cccccc"
         d="m 43,22 a 10,10 0 0 0 -10,10 10,10 0 0 0 7.291016,9.619141 L 33.099609,56 H 32.716797 C 30.979913,56 29,58.306428 29,60 h 28 c 0,-1.693572 -1.979913,-4 -3.716797,-4 H 52.900391 L 45.708984,41.619141 A 10,10 0 0 0 53,32 10,10 0 0 0 43,22 Z" />
    </clipPath>
    <inkscape:path-effect
       effect="powerclip"
       id="path-effect707"
       is_visible="true"
       lpeversion="1"
       inverse="true"
       flatten="false"
       hide_clip="false"
       message="Use fill-rule evenodd on &lt;b&gt;fill and stroke&lt;/b&gt; dialog if no flatten result after convert clip to paths." />
    <clipPath
       clipPathUnits="userSpaceOnUse"
       id="clipPath679">
      <path
         id="path681"
         style="display:block;fill:#9499b2"
         d="m 31,6 c -0.554,0 -1,0.39025 -1,0.875 v 5.25 C 30,12.60975 30.446,13 31,13 h 2 c 0.554,0 1,-0.39025 1,-0.875 V 6.875 C 34,6.39025 33.554,6 33,6 Z m 1,10 A 16,16 0 0 0 16,32 16,16 0 0 0 32,48 16,16 0 0 0 48,32 16,16 0 0 0 32,16 Z M 6.875,30 C 6.39025,30 6,30.446 6,31 v 2 c 0,0.554 0.39025,1 0.875,1 h 5.25 C 12.60975,34 13,33.554 13,33 v -2 c 0,-0.554 -0.39025,-1 -0.875,-1 z m 45,0 C 51.39025,30 51,30.446 51,31 v 2 c 0,0.554 0.39025,1 0.875,1 h 5.25 C 57.60975,34 58,33.554 58,33 v -2 c 0,-0.554 -0.39025,-1 -0.875,-1 z M 31,51 c -0.554,0 -1,0.39025 -1,0.875 v 5.25 C 30,57.60975 30.446,58 31,58 h 2 c 0.554,0 1,-0.39025 1,-0.875 v -5.25 C 34,51.39025 33.554,51 33,51 Z" />
    </clipPath>
    <inkscape:path-effect
       effect="powerclip"
       id="path-effect683"
       is_visible="true"
       lpeversion="1"
       inverse="true"
       flatten="false"
       hide_clip="false"
       message="Use fill-rule evenodd on &lt;b&gt;fill and stroke&lt;/b&gt; dialog if no flatten result after convert clip to paths." />
    <clipPath
       clipPathUnits="userSpaceOnUse"
       id="clipPath32">
      <path
         fill="url(#deepin-feedback-c)"
         fill-rule="nonzero"
         d="m 17.266954,37.715754 c -0.854456,0 -1.547131,0.868034 -1.547131,1.938785 0,1.070753 0.692675,1.938786 1.547131,1.938786 h 30.169037 c 0.854455,0 1.547133,-0.868033 1.547133,-1.938786 0,-1.070751 -0.692678,-1.938785 -1.547133,-1.938785 z m 0,-9.693925 c -0.854456,0 -1.547131,0.867993 -1.547131,1.938784 0,1.070753 0.692675,1.938786 1.547131,1.938786 h 30.169037 c 0.854455,0 1.547133,-0.868033 1.547133,-1.938786 0,-1.070791 -0.692678,-1.938784 -1.547133,-1.938784 z m 0,-9.693965 c -0.854456,0 -1.547131,0.868033 -1.547131,1.938784 0,1.070793 0.692675,1.938825 1.547131,1.938825 h 30.169037 c 0.854455,0 1.547133,-0.868032 1.547133,-1.938825 0,-1.070751 -0.692678,-1.938784 -1.547133,-1.938784 z"
         id="path34"
         style="display:block;opacity:0.85;fill:#f9f9f9;stroke-width:0.144327" />
    </clipPath>
    <inkscape:path-effect
       effect="powerclip"
       id="path-effect36"
       is_visible="true"
       lpeversion="1"
       inverse="true"
       flatten="false"
       hide_clip="false"
       message="Use fill-rule evenodd on &lt;b&gt;fill and stroke&lt;/b&gt; dialog if no flatten result after convert clip to paths." />
    <clipPath
       clipPathUnits="userSpaceOnUse"
       id="clipPath854">
      <path
         style="display:block;fill:#ff812d;stroke-width:1.58832"
         d="M 16.422583,26.677299 C 38.790028,17.420545 36.741406,2.3199162 36.741406,2.3199162 c 0,0 12.349179,30.8061828 -6.163856,37.9881208 C 9.8965818,48.330999 11.458373,62.03536 11.458373,62.03536 c 0,0 -8.1724877,-29.921445 4.96421,-35.358061 z"
         id="path856"
         clip-path="url(#clipPath791)" />
    </clipPath>
    <inkscape:path-effect
       effect="powerclip"
       id="path-effect858"
       is_visible="true"
       lpeversion="1"
       inverse="true"
       flatten="false"
       hide_clip="false"
       message="Use fill-rule evenodd on &lt;b&gt;fill and stroke&lt;/b&gt; dialog if no flatten result after convert clip to paths." />
    <clipPath
       clipPathUnits="userSpaceOnUse"
       id="clipath_lpe_path-effect846">
      <path
         style="display:block;fill:#ffdf55;stroke-width:1.58832"
         d="M 4.2768115,34.537906 C 16.934974,18.372356 14.087849,7.0342933 14.087849,7.0342933 c 0,0 16.217779,19.6951427 5.182049,31.8936557 -12.3280457,13.627003 -7.706194,23.107411 -7.706194,23.107411 0,0 -14.5471376,-18.225493 -7.2868925,-27.497454 z"
         id="path848" />
    </clipPath>
    <inkscape:path-effect
       effect="powerclip"
       id="path-effect846"
       is_visible="true"
       lpeversion="1"
       inverse="true"
       flatten="false"
       hide_clip="false"
       message="Use fill-rule evenodd on &lt;b&gt;fill and stroke&lt;/b&gt; dialog if no flatten result after convert clip to paths." />
    <clipPath
       clipPathUnits="userSpaceOnUse"
       id="clipPath9545">
      <path
         style="display:block;fill:#f5f7fa;stroke-width:0.6561"
         d="m 33.433548,18.111827 a 4.26465,4.26465 0 0 0 -4.26465,4.26465 v 8.20125 h -0.02307 a 2.29635,2.29635 0 0 1 -2.273281,1.9683 2.29635,2.29635 0 0 1 -2.29635,-2.29635 2.29635,2.29635 0 0 1 2.29635,-2.29635 h 0.98415 v -2.6244 h -0.98415 a 4.92075,4.92075 0 0 0 -0.02435,0 4.92075,4.92075 0 0 0 -4.896404,4.92075 4.92075,4.92075 0 0 0 4.92075,4.92075 4.92075,4.92075 0 0 0 4.910498,-4.5927 h 0.01025 v -0.303703 a 4.92075,4.92075 0 0 0 0,-0.02435 v -2.29635 h 1.3122 a 1.3122,1.3122 0 0 0 1.3122,-1.3122 1.3122,1.3122 0 0 0 -1.3122,-1.3122 h -1.3122 v -2.95245 a 1.64025,1.64025 0 0 1 1.64025,-1.64025 1.64025,1.64025 0 0 1 1.64025,1.64025 v 0.32805 a 1.3122,1.3122 0 0 0 1.3122,1.3122 1.3122,1.3122 0 0 0 1.3122,-1.3122 1.3122,1.3122 0 0 0 0,-0.03204 v -0.624063 h -0.01282 a 4.26465,4.26465 0 0 0 -4.251835,-3.9366 z"
         id="path9547" />
    </clipPath>
    <inkscape:path-effect
       effect="powerclip"
       id="path-effect9549"
       is_visible="true"
       lpeversion="1"
       inverse="true"
       flatten="false"
       hide_clip="false"
       message="Use fill-rule evenodd on &lt;b&gt;fill and stroke&lt;/b&gt; dialog if no flatten result after convert clip to paths." />
    <clipPath
       clipPathUnits="userSpaceOnUse"
       id="clipPath29559">
      <path
         id="path29561"
         style="display:block;fill:#c01728"
         d="M 12.807506,15.00189 25.129742,29.152502 33.875626,6.0248098 C 25.965731,5.6856143 18.128435,8.8937717 12.807906,15.00189 Z M 7.4725772,39.888359 26.06373,36.442405 10.121942,17.410858 C 5.8683985,23.994571 4.7678131,32.29046 7.4725772,39.888559 Z M 26.663722,56.886133 32.933639,39.290367 8.2459669,43.386313 c 3.6567511,6.923908 10.3932621,12.01164 18.4189551,13.50082 z M 51.191396,48.998238 38.87016,34.847226 30.123076,57.974919 c 7.910095,0.339615 15.74739,-2.868562 21.06772,-8.976681 z M 56.527325,24.112569 37.936972,27.557523 53.87816,46.59007 c 4.253343,-6.584312 5.354129,-14.880202 2.649165,-22.477701 z M 37.33558,7.1139953 31.065663,24.710561 55.753335,20.614616 C 52.097384,13.690908 45.359473,8.6029755 37.33558,7.1139953 Z" />
    </clipPath>
    <inkscape:path-effect
       effect="powerclip"
       id="path-effect29563"
       is_visible="true"
       lpeversion="1"
       inverse="true"
       flatten="false"
       hide_clip="false"
       message="Use fill-rule evenodd on &lt;b&gt;fill and stroke&lt;/b&gt; dialog if no flatten result after convert clip to paths." />
    <clipPath
       clipPathUnits="userSpaceOnUse"
       id="clipPath1976-3">
      <rect
         x="9.6784649"
         y="9.925169"
         width="43.343258"
         height="44.613056"
         rx="8.6689987"
         ry="8.9229689"
         fill="url(#linearGradient862)"
         stroke-width="2.96772"
         id="rect1978-6"
         style="display:none;fill:#333333;fill-opacity:1"
         d="m 18.347464,9.925169 h 26.00526 c 4.802625,0 8.668999,3.979644 8.668999,8.922969 v 26.767118 c 0,4.943325 -3.866374,8.922969 -8.668999,8.922969 h -26.00526 c -4.802626,0 -8.6689991,-3.979644 -8.6689991,-8.922969 V 18.848138 c 0,-4.943325 3.8663731,-8.922969 8.6689991,-8.922969 z" />
      <path
         id="lpe_path-effect1980-7"
         style="fill:#333333;fill-opacity:1"
         class="powerclip"
         d="M 2.0757722,2.2464043 H 60.623896 V 62.216811 H 2.0757722 Z M 18.347464,9.925169 c -4.802626,0 -8.6689991,3.979644 -8.6689991,8.922969 v 26.767118 c 0,4.943325 3.8663731,8.922969 8.6689991,8.922969 h 26.00526 c 4.802625,0 8.668999,-3.979644 8.668999,-8.922969 V 18.848138 c 0,-4.943325 -3.866374,-8.922969 -8.668999,-8.922969 z" />
    </clipPath>
    <inkscape:path-effect
       effect="powerclip"
       id="path-effect1980-5"
       is_visible="true"
       lpeversion="1"
       inverse="true"
       flatten="false"
       hide_clip="false"
       message="Use fill-rule evenodd on &lt;b&gt;fill and stroke&lt;/b&gt; dialog if no flatten result after convert clip to paths." />
    <clipPath
       clipPathUnits="userSpaceOnUse"
       id="clipath_lpe_path-effect1980-5">
      <rect
         x="9.6784649"
         y="9.925169"
         width="43.343258"
         height="44.613056"
         rx="8.6689987"
         ry="8.9229689"
         fill="url(#linearGradient862)"
         stroke-width="2.96772"
         id="rect1"
         style="display:block;fill:#333333;fill-opacity:1" />
    </clipPath>
    <filter
       style="color-interpolation-filters:sRGB;"
       inkscape:label="Blur"
       id="filter1"
       x="-0.069336253"
       y="-0.067362776"
       width="1.1386725"
       height="1.1347256">
      <feGaussianBlur
         stdDeviation="1.5 1.5"
         result="blur"
         id="feGaussianBlur1" />
    </filter>
  </defs>
  <circle
     cx="32.516094"
     cy="31.877844"
     r="0"
     fill="url(#b)"
     stroke-width="1.5715"
     id="circle41"
     style="fill:url(#b)" />
  <g
     aria-label="GZ"
     transform="matrix(1.2212657,0,0,0.81882264,0.4960938,-0.1661539)"
     id="text93"
     style="font-weight:bold;font-size:11.5263px;line-height:1.25;font-family:sans-serif;-inkscape-font-specification:'sans-serif Bold';fill:#f2f2f2;stroke-width:0.288159" />
  <g
     id="g877"
     transform="matrix(1.1,0,0,1.1,-3.1845928,-3.2065454)">
    <rect
       x="6.3010068"
       y="5.4939413"
       width="51.635597"
       height="53.148327"
       rx="10.980581"
       ry="10.720582"
       fill="url(#linearGradient862)"
       stroke-width="3.0541"
       id="rect35-7-3"
       style="fill:#414141;fill-opacity:1;stroke:#dfdfdf;stroke-width:2.27272727;stroke-dasharray:none;stroke-opacity:1" />
    <path
       id="path1-3"
       style="fill:#dfdfdf;fill-opacity:1;stroke:#dfdfdf;stroke-width:0.980099;stroke-dasharray:none;stroke-opacity:1"
       d="m 19.271243,17.221424 c -0.196604,0 -0.391705,0.08249 -0.52642,0.248851 -0.176297,0.217723 -0.20483,0.479669 -0.20483,1.929572 v 1.674976 h -1.763028 c -1.948425,0 -2.176511,0.07249 -2.176511,0.687219 0,0.575252 0.298166,0.664248 2.220539,0.664248 h 1.719002 v 1.638606 c 0,1.712106 0.06996,2.025851 0.482394,2.178423 0.326786,0.120879 0.616291,0.02981 0.815474,-0.254596 0.12739,-0.181871 0.166543,-0.617809 0.166543,-1.898942 V 22.42629 h 1.719002 c 1.374402,0 1.76983,-0.03608 1.969773,-0.176115 0.299066,-0.209476 0.330997,-0.674783 0.06509,-0.968613 -0.165564,-0.182942 -0.386597,-0.206741 -1.971686,-0.206741 h -1.782179 v -1.674974 c 0,-1.449905 -0.02853,-1.71185 -0.20483,-1.929572 -0.13471,-0.166368 -0.331725,-0.248852 -0.52833,-0.248851 z m 25.124636,3.853399 c -3.824287,0 -4.301143,0.01916 -4.485109,0.185683 -0.287525,0.260229 -0.264841,0.773302 0.04391,0.989669 0.376017,0.263384 8.467842,0.263384 8.843872,0 0.299052,-0.209475 0.329097,-0.674782 0.06315,-0.968613 -0.17429,-0.192568 -0.46288,-0.206741 -4.46597,-0.206741 z M 16.42474,41.226215 c -0.358121,0 -0.698704,0.326215 -0.698704,0.669991 0,0.09362 0.567172,0.739396 1.261496,1.435698 l 1.263411,1.267234 -1.263411,1.278728 c -0.694324,0.703736 -1.261496,1.372476 -1.261496,1.485458 0,0.112965 0.08321,0.298364 0.185682,0.411554 0.104478,0.115434 0.341384,0.204792 0.537906,0.204792 0.295144,0 0.535412,-0.185538 1.527577,-1.1811 0.647904,-0.650111 1.22991,-1.183012 1.294039,-1.183012 0.06413,0 0.648048,0.532901 1.295953,1.183012 0.962387,0.965679 1.238126,1.1811 1.508435,1.1811 0.395888,0 0.742732,-0.283408 0.742732,-0.606818 0,-0.147947 -0.466269,-0.699448 -1.265326,-1.500782 l -1.263405,-1.269109 1.263409,-1.26723 c 0.69554,-0.697522 1.265325,-1.345919 1.265325,-1.439525 0,-0.34373 -0.34058,-0.669991 -0.698705,-0.669991 -0.2909,0 -0.5464,0.193497 -1.548635,1.1811 -0.65973,0.650111 -1.24465,1.183009 -1.29978,1.183009 -0.05513,0 -0.64005,-0.532898 -1.299782,-1.183009 -1.002235,-0.987626 -1.255817,-1.1811 -1.546721,-1.1811 z" />
    <rect
       x="34.795551"
       y="33.974232"
       width="24.697144"
       height="25.420679"
       rx="5.2519779"
       ry="5.1276212"
       fill="url(#linearGradient862)"
       stroke-width="3.0541"
       id="rect35-7-3-9"
       style="fill:#414141;fill-opacity:1;stroke:#dfdfdf;stroke-width:2.27273;stroke-dasharray:none;stroke-opacity:1" />
    <path
       id="path2"
       style="fill:#dfdfdf;stroke:none;stroke-width:0.102213;stroke-opacity:1;fill-opacity:1"
       d="m 39.655931,42.490166 v 1.074219 1.072444 h 7.207032 7.205256 v -1.072444 -1.074219 h -7.205256 z m 0,6.337004 v 1.074218 1.072443 h 7.207032 7.205256 V 49.901388 48.82717 h -7.205256 z" />
  </g>
</svg>
