<?xml version="1.0" encoding="UTF-8" standalone="no"?>
<svg
   width="64"
   height="64"
   version="1.1"
   id="svg73"
   sodipodi:docname="hwloc.svg"
   inkscape:version="1.3.2 (091e20ef0f, 2023-11-25)"
   xmlns:inkscape="http://www.inkscape.org/namespaces/inkscape"
   xmlns:sodipodi="http://sodipodi.sourceforge.net/DTD/sodipodi-0.dtd"
   xmlns="http://www.w3.org/2000/svg"
   xmlns:svg="http://www.w3.org/2000/svg"
   xmlns:rdf="http://www.w3.org/1999/02/22-rdf-syntax-ns#"
   xmlns:cc="http://creativecommons.org/ns#"
   xmlns:dc="http://purl.org/dc/elements/1.1/">
  <metadata
     id="metadata77">
    <rdf:RDF>
      <cc:Work
         rdf:about="">
        <dc:format>image/svg+xml</dc:format>
        <dc:type
           rdf:resource="http://purl.org/dc/dcmitype/StillImage" />
      </cc:Work>
    </rdf:RDF>
  </metadata>
  <sodipodi:namedview
     pagecolor="#f5f7fa"
     bordercolor="#666666"
     borderopacity="1"
     objecttolerance="10"
     gridtolerance="10"
     guidetolerance="10"
     inkscape:pageopacity="0"
     inkscape:pageshadow="2"
     inkscape:window-width="1377"
     inkscape:window-height="886"
     id="namedview75"
     showgrid="false"
     inkscape:zoom="4.4470387"
     inkscape:cx="47.784608"
     inkscape:cy="14.054296"
     inkscape:window-x="181"
     inkscape:window-y="77"
     inkscape:window-maximized="0"
     inkscape:current-layer="g877"
     inkscape:document-rotation="0"
     inkscape:pagecheckerboard="0"
     inkscape:showpageshadow="2"
     inkscape:deskcolor="#d1d1d1" />
  <defs
     id="defs29">
    <linearGradient
       id="b"
       x1="399.57"
       x2="399.57"
       y1="545.8"
       y2="517.8"
       gradientTransform="matrix(2.1429,0,0,2.1429,-825.86391,-1107.6662)"
       gradientUnits="userSpaceOnUse">
      <stop
         stop-color="#3889e9"
         offset="0"
         id="stop2" />
      <stop
         stop-color="#5ea5fb"
         offset="1"
         id="stop4" />
    </linearGradient>
    <linearGradient
       id="d"
       x2="1"
       gradientTransform="matrix(14.905727,-4.7106182,4.7106182,14.905727,322.04962,998.26962)"
       gradientUnits="userSpaceOnUse">
      <stop
         stop-color="#fafafa"
         offset="0"
         id="stop7" />
      <stop
         stop-color="#aaa"
         offset="1"
         id="stop8" />
    </linearGradient>
    <linearGradient
       id="e"
       x2="1"
       gradientTransform="matrix(21.439909,0,0,21.439909,26.63554,1159.7788)"
       gradientUnits="userSpaceOnUse">
      <stop
         stop-color="#f0f0f0"
         offset="0"
         id="stop9" />
      <stop
         stop-color="#b7f1ff"
         offset="1"
         id="stop10" />
    </linearGradient>
    <linearGradient
       id="b-2"
       x1="410.57138"
       x2="410.4762"
       y1="503.7627"
       y2="545.11188"
       gradientUnits="userSpaceOnUse"
       gradientTransform="matrix(1.771561,0,0,1.771561,-688.37993,-894.4168)">
      <stop
         stop-color="#fff"
         offset="0"
         id="stop3" />
      <stop
         stop-color="#ececec"
         offset="1"
         id="stop4-6" />
    </linearGradient>
  </defs>
  <circle
     cx="32.516094"
     cy="31.877844"
     r="0"
     fill="url(#b)"
     stroke-width="1.5715"
     id="circle41"
     style="fill:url(#b)" />
  <g
     aria-label="GZ"
     transform="matrix(1.2212657,0,0,0.81882264,0.4960938,-0.1661539)"
     id="text93"
     style="font-weight:bold;font-size:11.5263px;line-height:1.25;font-family:sans-serif;-inkscape-font-specification:'sans-serif Bold';fill:#f2f2f2;stroke-width:0.288159" />
  <g
     id="g877"
     transform="matrix(1.1,0,0,1.1,-3.1845928,-3.2065454)">
    <rect
       x="6.3010068"
       y="5.4939413"
       width="51.635597"
       height="53.148327"
       rx="10.980581"
       ry="10.720582"
       fill="url(#linearGradient862)"
       stroke-width="3.0541"
       id="rect35-7-3"
       style="fill:#414141;fill-opacity:1;stroke:#dfdfdf;stroke-width:2.27272727;stroke-dasharray:none;stroke-opacity:1" />
    <path
       style="fill:#dfdfdf;stroke-width:0.120361;fill-opacity:1"
       d="M 13.6548,47.532867 C 13.441987,47.417215 13.190755,47.136401 13.096496,46.908852 12.970702,46.60514 12.935712,43.527354 12.96495,35.335357 l 0.03982,-11.159771 0.415627,-0.357475 c 0.318154,-0.273622 0.587431,-0.357477 1.148061,-0.357477 h 0.732424 l 0.0013,8.777091 c 4.23e-4,5.337968 0.05831,8.984042 0.14755,9.305248 0.212258,0.764067 1.06048,1.678396 1.882047,2.028712 0.490158,0.209006 1.214816,0.334212 2.3396,0.404209 3.682088,0.229182 6.674195,1.246275 8.662356,2.944549 l 0.514846,0.439785 -0.588908,-0.103367 c -4.238101,-0.743792 -7.615454,-0.704645 -12.126356,0.140557 -2.213812,0.414806 -1.98691,0.402405 -2.478081,0.135444 z m 33.865766,-0.14832 C 43.221523,46.554051 39.740789,46.517004 35.525141,47.256865 l -0.588918,0.103367 0.514851,-0.439784 c 1.988167,-1.698275 4.980266,-2.715369 8.66235,-2.94455 1.124786,-0.06999 1.849442,-0.195203 2.3396,-0.404208 0.82157,-0.350317 1.669802,-1.264644 1.882055,-2.028712 0.08924,-0.321206 0.147045,-3.967282 0.147548,-9.305248 l 0.0023,-8.77709 h 0.732424 c 0.560624,0 0.829913,0.08385 1.148055,0.357476 l 0.415641,0.357476 0.03982,11.159769 c 0.02935,8.20734 -0.0058,11.269491 -0.131971,11.574498 -0.168713,0.407326 -0.817642,0.858285 -1.196692,0.831636 -0.105886,-0.0074 -0.992457,-0.168073 -1.970163,-0.356943 z M 30.344182,45.837056 c -0.70292,-0.733731 -2.52618,-1.924267 -3.77717,-2.466391 -2.062407,-0.893745 -5.100609,-1.541101 -7.232887,-1.541101 -0.933375,0 -1.53838,-0.27516 -1.782355,-0.810605 -0.131825,-0.289335 -0.176979,-3.033994 -0.176979,-10.758369 0,-11.506673 -0.03739,-11.062051 0.958342,-11.390677 0.651086,-0.21488 3.220878,0.01742 4.917661,0.444513 3.200557,0.805611 5.934826,2.627573 7.244797,4.827507 l 0.361573,0.607219 -0.03803,10.772003 -0.03803,10.771998 z M 32.92912,35.507574 V 24.703738 l 0.423181,-0.658582 c 1.441726,-2.243702 4.002398,-3.930584 7.181245,-4.73073 1.696778,-0.427105 4.266564,-0.659393 4.917646,-0.444513 0.99576,0.328626 0.958346,-0.11599 0.958346,11.390677 0,7.724375 -0.04514,10.469034 -0.176974,10.758369 -0.243968,0.535445 -0.848982,0.810605 -1.782358,0.810605 -2.126411,0 -5.170204,0.647227 -7.218795,1.534996 -1.268008,0.549502 -2.707633,1.476935 -3.67099,2.364931 l -0.631301,0.581905 z"
       id="path1-3" />
  </g>
</svg>
