<?xml version="1.0" encoding="UTF-8" standalone="no"?>
<svg
   width="64"
   height="64"
   version="1.1"
   id="svg73"
   sodipodi:docname="steam.svg"
   inkscape:version="1.3.2 (091e20ef0f, 2023-11-25)"
   xmlns:inkscape="http://www.inkscape.org/namespaces/inkscape"
   xmlns:sodipodi="http://sodipodi.sourceforge.net/DTD/sodipodi-0.dtd"
   xmlns="http://www.w3.org/2000/svg"
   xmlns:svg="http://www.w3.org/2000/svg"
   xmlns:rdf="http://www.w3.org/1999/02/22-rdf-syntax-ns#"
   xmlns:cc="http://creativecommons.org/ns#"
   xmlns:dc="http://purl.org/dc/elements/1.1/">
  <metadata
     id="metadata77">
    <rdf:RDF>
      <cc:Work
         rdf:about="">
        <dc:format>image/svg+xml</dc:format>
        <dc:type
           rdf:resource="http://purl.org/dc/dcmitype/StillImage" />
      </cc:Work>
    </rdf:RDF>
  </metadata>
  <sodipodi:namedview
     pagecolor="#f5f7fa"
     bordercolor="#666666"
     borderopacity="1"
     objecttolerance="10"
     gridtolerance="10"
     guidetolerance="10"
     inkscape:pageopacity="0"
     inkscape:pageshadow="2"
     inkscape:window-width="1377"
     inkscape:window-height="886"
     id="namedview75"
     showgrid="false"
     inkscape:zoom="4.4470387"
     inkscape:cx="47.784608"
     inkscape:cy="14.054296"
     inkscape:window-x="181"
     inkscape:window-y="77"
     inkscape:window-maximized="0"
     inkscape:current-layer="g877"
     inkscape:document-rotation="0"
     inkscape:pagecheckerboard="0"
     inkscape:showpageshadow="2"
     inkscape:deskcolor="#d1d1d1" />
  <defs
     id="defs29">
    <linearGradient
       id="b"
       x1="399.57"
       x2="399.57"
       y1="545.8"
       y2="517.8"
       gradientTransform="matrix(2.1429,0,0,2.1429,-825.86391,-1107.6662)"
       gradientUnits="userSpaceOnUse">
      <stop
         stop-color="#3889e9"
         offset="0"
         id="stop2" />
      <stop
         stop-color="#5ea5fb"
         offset="1"
         id="stop4" />
    </linearGradient>
  </defs>
  <circle
     cx="32.516094"
     cy="31.877844"
     r="0"
     fill="url(#b)"
     stroke-width="1.5715"
     id="circle41"
     style="fill:url(#b)" />
  <g
     aria-label="GZ"
     transform="matrix(1.2212657,0,0,0.81882264,0.4960938,-0.1661539)"
     id="text93"
     style="font-weight:bold;font-size:11.5263px;line-height:1.25;font-family:sans-serif;-inkscape-font-specification:'sans-serif Bold';fill:#f2f2f2;stroke-width:0.288159" />
  <g
     id="g877"
     transform="matrix(1.1,0,0,1.1,-3.1845928,-3.2065454)">
    <rect
       x="6.3010068"
       y="5.4939413"
       width="51.635597"
       height="53.148327"
       rx="10.980581"
       ry="10.720582"
       fill="url(#linearGradient862)"
       stroke-width="3.0541"
       id="rect35-7-3"
       style="fill:#414141;fill-opacity:1;stroke:#dfdfdf;stroke-width:2.27272727;stroke-dasharray:none;stroke-opacity:1" />
    <path
       style="color:#444444;fill:#dfdfdf;fill-opacity:1;stroke:none;stroke-width:1.07811;stroke-dasharray:none;stroke-opacity:0.3"
       class="ColorScheme-Text"
       d="m 18.944611,18.963597 c 0,0 -4.693621,0 -4.693621,4.693622 v 18.774487 c 0,4.693623 4.693621,4.693623 4.693621,4.693623 H 44.75953 c 0,0 4.693621,0 4.693621,-4.693623 V 23.657219 c 0,-4.693622 -4.693621,-4.693622 -4.693621,-4.693622 z m 0.586703,4.693622 h 3.520217 c 0.32503,0 0.5867,0.261669 0.5867,0.586704 v 3.520214 c 0,0.325031 -0.261668,0.586702 -0.5867,0.586702 h -3.520217 c -0.32503,0 -0.586703,-0.261667 -0.586703,-0.586702 v -3.520214 c 0,-0.32503 0.261669,-0.586704 0.586703,-0.586704 z m 7.040433,0 h 3.520214 c 0.32503,0 0.586704,0.261669 0.586704,0.586704 v 3.520214 c 0,0.325031 -0.261669,0.586702 -0.586704,0.586702 h -3.520214 c -0.325031,0 -0.586703,-0.261667 -0.586703,-0.586702 v -3.520214 c 0,-0.32503 0.261668,-0.586704 0.586703,-0.586704 z m 7.040433,0 h 3.520214 c 0.325037,0 0.586705,0.261669 0.586705,0.586704 v 3.520214 c 0,0.325031 -0.26167,0.586702 -0.586705,0.586702 H 33.61218 c -0.32503,0 -0.586703,-0.261667 -0.586703,-0.586702 v -3.520214 c 0,-0.32503 0.261669,-0.586704 0.586703,-0.586704 z m 7.040433,0 h 3.520217 c 0.325031,0 0.5867,0.261669 0.5867,0.586704 v 3.520214 c 0,0.325031 -0.261694,0.586702 -0.5867,0.586702 h -3.520217 c -0.32503,0 -0.586704,-0.261667 -0.586704,-0.586702 v -3.520214 c 0,-0.32503 0.261693,-0.586704 0.586704,-0.586704 z m -21.121299,7.040434 h 3.520217 c 0.32503,0 0.5867,0.261668 0.5867,0.586701 v 3.520216 c 0,0.32503 -0.261668,0.586702 -0.5867,0.586702 h -3.520217 c -0.32503,0 -0.586703,-0.261668 -0.586703,-0.586702 v -3.520216 c 0,-0.325034 0.261669,-0.586701 0.586703,-0.586701 z m 7.040433,0 h 3.520214 c 0.32503,0 0.586704,0.261668 0.586704,0.586701 v 3.520216 c 0,0.32503 -0.261669,0.586702 -0.586704,0.586702 h -3.520214 c -0.325031,0 -0.586703,-0.261668 -0.586703,-0.586702 v -3.520216 c 0,-0.325034 0.261668,-0.586701 0.586703,-0.586701 z m 7.040433,0 h 3.520214 c 0.325037,0 0.586705,0.261668 0.586705,0.586701 v 3.520216 c 0,0.32503 -0.26167,0.586702 -0.586705,0.586702 H 33.61218 c -0.32503,0 -0.586703,-0.261668 -0.586703,-0.586702 v -3.520216 c 0,-0.325034 0.261669,-0.586701 0.586703,-0.586701 z m 7.040433,0 h 3.520217 c 0.325031,0 0.5867,0.261668 0.5867,0.586701 v 3.520216 c 0,0.32503 -0.261694,0.586702 -0.5867,0.586702 h -3.520217 c -0.32503,0 -0.586704,-0.261668 -0.586704,-0.586702 v -3.520216 c 0,-0.325034 0.261693,-0.586701 0.586704,-0.586701 z m -16.427679,7.040433 h 15.254275 c 0.32503,0 0.5867,0.261667 0.5867,0.586699 v 3.520218 c 0,0.32503 -0.261695,0.586703 -0.5867,0.586703 H 24.224934 c -0.32503,0 -0.586703,-0.261642 -0.586703,-0.586703 v -3.520218 c 0,-0.32503 0.261671,-0.586699 0.586703,-0.586699 z"
       id="path5" />
  </g>
</svg>
