<?xml version="1.0" encoding="UTF-8" standalone="no"?>
<svg
   width="64"
   height="64"
   version="1.1"
   id="svg73"
   sodipodi:docname="New name 1.svg"
   inkscape:version="1.3.2 (091e20ef0f, 2023-11-25)"
   xmlns:inkscape="http://www.inkscape.org/namespaces/inkscape"
   xmlns:sodipodi="http://sodipodi.sourceforge.net/DTD/sodipodi-0.dtd"
   xmlns="http://www.w3.org/2000/svg"
   xmlns:svg="http://www.w3.org/2000/svg"
   xmlns:rdf="http://www.w3.org/1999/02/22-rdf-syntax-ns#"
   xmlns:cc="http://creativecommons.org/ns#"
   xmlns:dc="http://purl.org/dc/elements/1.1/">
  <metadata
     id="metadata77">
    <rdf:RDF>
      <cc:Work
         rdf:about="">
        <dc:format>image/svg+xml</dc:format>
        <dc:type
           rdf:resource="http://purl.org/dc/dcmitype/StillImage" />
      </cc:Work>
    </rdf:RDF>
  </metadata>
  <sodipodi:namedview
     pagecolor="#f5f7fa"
     bordercolor="#666666"
     borderopacity="1"
     objecttolerance="10"
     gridtolerance="10"
     guidetolerance="10"
     inkscape:pageopacity="0"
     inkscape:pageshadow="2"
     inkscape:window-width="1377"
     inkscape:window-height="886"
     id="namedview75"
     showgrid="false"
     inkscape:zoom="4.4470387"
     inkscape:cx="47.784608"
     inkscape:cy="14.054296"
     inkscape:window-x="181"
     inkscape:window-y="77"
     inkscape:window-maximized="0"
     inkscape:current-layer="g877"
     inkscape:document-rotation="0"
     inkscape:pagecheckerboard="0"
     inkscape:showpageshadow="2"
     inkscape:deskcolor="#d1d1d1" />
  <defs
     id="defs29">
    <linearGradient
       id="b"
       x1="399.57"
       x2="399.57"
       y1="545.8"
       y2="517.8"
       gradientTransform="matrix(2.1429,0,0,2.1429,-825.86391,-1107.6662)"
       gradientUnits="userSpaceOnUse">
      <stop
         stop-color="#3889e9"
         offset="0"
         id="stop2" />
      <stop
         stop-color="#5ea5fb"
         offset="1"
         id="stop4" />
    </linearGradient>
    <linearGradient
       id="d"
       x2="1"
       gradientTransform="matrix(14.905727,-4.7106182,4.7106182,14.905727,322.04962,998.26962)"
       gradientUnits="userSpaceOnUse">
      <stop
         stop-color="#fafafa"
         offset="0"
         id="stop7" />
      <stop
         stop-color="#aaa"
         offset="1"
         id="stop8" />
    </linearGradient>
    <linearGradient
       id="e"
       x2="1"
       gradientTransform="matrix(21.439909,0,0,21.439909,26.63554,1159.7788)"
       gradientUnits="userSpaceOnUse">
      <stop
         stop-color="#f0f0f0"
         offset="0"
         id="stop9" />
      <stop
         stop-color="#b7f1ff"
         offset="1"
         id="stop10" />
    </linearGradient>
    <linearGradient
       id="c"
       x1="11.9407"
       x2="34.695301"
       y1="635.88501"
       y2="635.88501"
       gradientUnits="userSpaceOnUse"
       gradientTransform="matrix(1.61051,0,0,1.61051,-4.3698367,2.7719769)">
      <stop
         stop-color="#f6fbff"
         offset="0"
         id="stop5" />
      <stop
         stop-color="#eaeff2"
         offset="1"
         id="stop6" />
    </linearGradient>
  </defs>
  <circle
     cx="32.516094"
     cy="31.877844"
     r="0"
     fill="url(#b)"
     stroke-width="1.5715"
     id="circle41"
     style="fill:url(#b)" />
  <g
     aria-label="GZ"
     transform="matrix(1.2212657,0,0,0.81882264,0.4960938,-0.1661539)"
     id="text93"
     style="font-weight:bold;font-size:11.5263px;line-height:1.25;font-family:sans-serif;-inkscape-font-specification:'sans-serif Bold';fill:#f2f2f2;stroke-width:0.288159" />
  <g
     id="g877"
     transform="matrix(1.1,0,0,1.1,-3.1845928,-3.2065454)">
    <rect
       x="6.3010068"
       y="5.4939413"
       width="51.635597"
       height="53.148327"
       rx="10.980581"
       ry="10.720582"
       fill="url(#linearGradient862)"
       stroke-width="3.0541"
       id="rect35-7-3"
       style="fill:#414141;fill-opacity:1;stroke:#dfdfdf;stroke-width:2.27272727;stroke-dasharray:none;stroke-opacity:1" />
    <path
       d="m 50.914144,36.489614 c -0.732784,-0.721507 -2.356176,-1.103198 -4.82831,-1.13702 -1.67493,-0.02576 -3.688068,0.12884 -5.8075,0.425175 -0.948588,-0.545963 -1.926168,-1.141851 -2.692772,-1.860138 -2.064673,-1.927781 -3.78792,-4.602838 -4.86213,-7.545241 0.06924,-0.275396 0.128841,-0.516972 0.185209,-0.76338 0,0 1.162788,-6.606314 0.855182,-8.83848 -0.04349,-0.305996 -0.06925,-0.396185 -0.151404,-0.632929 L 33.51096,15.878308 C 33.1953,15.148747 32.575253,14.375702 31.602506,14.417575 l -0.570122,-0.02577 h -0.01611 c -1.083873,0 -1.968043,0.554016 -2.199956,1.383428 -0.705403,2.599363 0.02254,6.488744 1.341555,11.52481 l -0.338207,0.821359 c -0.943759,2.301419 -2.125874,4.618944 -3.171095,6.664291 l -0.135282,0.265734 c -1.098369,2.150032 -2.095272,3.97474 -2.997158,5.519219 l -0.934097,0.492816 c -0.06764,0.03543 -1.665268,0.882559 -2.040515,1.10803 -3.180758,1.900402 -5.288915,4.055264 -5.638396,5.767238 -0.111126,0.54435 -0.02737,1.243312 0.537909,1.567024 l 0.901887,0.454164 c 0.391352,0.196482 0.803644,0.294723 1.227207,0.294723 2.264378,0 4.894341,-2.821613 8.517988,-9.144475 4.182494,-1.360881 8.944774,-2.493067 13.119216,-3.117948 3.180755,1.790887 7.092685,3.035813 9.561598,3.035813 0.438057,0 0.816528,-0.0435 1.124135,-0.122399 0.47349,-0.12562 0.872896,-0.396187 1.116084,-0.761771 0.478321,-0.72151 0.576563,-1.715194 0.446111,-2.731425 -0.03864,-0.301166 -0.28023,-0.674805 -0.541131,-0.929266 z M 17.078939,48.542673 c 0.412289,-1.128968 2.048568,-3.361135 4.465943,-5.343673 0.151371,-0.122399 0.526638,-0.473491 0.869675,-0.798813 -2.5285,4.032718 -4.221145,5.640005 -5.335618,6.142486 z M 31.399593,15.567479 c 0.72795,0 1.141853,1.834372 1.175672,3.556007 0.03543,1.720024 -0.367195,2.927906 -0.866453,3.82174 -0.413902,-1.32223 -0.613606,-3.407838 -0.613606,-4.771941 0,0 -0.0306,-2.605806 0.304387,-2.605806 z M 27.12691,39.066431 c 0.507311,-0.908327 1.035558,-1.864971 1.575079,-2.881203 1.314176,-2.486626 2.145199,-4.430512 2.762025,-6.029748 1.230428,2.236998 2.762025,4.13901 4.562574,5.662553 0.223861,0.190038 0.462216,0.38169 0.711846,0.571731 -3.66069,0.724729 -6.825342,1.605677 -9.611524,2.676667 z m 23.08344,-0.204536 c -0.222251,0.138504 -0.861623,0.220641 -1.272303,0.220641 -1.32545,0 -2.966558,-0.605551 -5.266368,-1.592794 0.884171,-0.06603 1.694256,-0.09823 2.420596,-0.09823 1.330283,0 1.723247,0 3.024538,0.325325 1.301294,0.333375 1.317399,1.006568 1.093537,1.145071 z"
       fill="url(#c)"
       id="path9"
       style="fill:#dfdfdf;stroke-width:1.61051;fill-opacity:1" />
  </g>
</svg>
