<?xml version="1.0" encoding="UTF-8" standalone="no"?>
<svg
   width="64"
   height="64"
   version="1.1"
   id="svg73"
   sodipodi:docname="hwloc.svg"
   inkscape:version="1.3.2 (091e20ef0f, 2023-11-25)"
   xmlns:inkscape="http://www.inkscape.org/namespaces/inkscape"
   xmlns:sodipodi="http://sodipodi.sourceforge.net/DTD/sodipodi-0.dtd"
   xmlns="http://www.w3.org/2000/svg"
   xmlns:svg="http://www.w3.org/2000/svg"
   xmlns:rdf="http://www.w3.org/1999/02/22-rdf-syntax-ns#"
   xmlns:cc="http://creativecommons.org/ns#"
   xmlns:dc="http://purl.org/dc/elements/1.1/">
  <metadata
     id="metadata77">
    <rdf:RDF>
      <cc:Work
         rdf:about="">
        <dc:format>image/svg+xml</dc:format>
        <dc:type
           rdf:resource="http://purl.org/dc/dcmitype/StillImage" />
      </cc:Work>
    </rdf:RDF>
  </metadata>
  <sodipodi:namedview
     pagecolor="#f5f7fa"
     bordercolor="#666666"
     borderopacity="1"
     objecttolerance="10"
     gridtolerance="10"
     guidetolerance="10"
     inkscape:pageopacity="0"
     inkscape:pageshadow="2"
     inkscape:window-width="1377"
     inkscape:window-height="886"
     id="namedview75"
     showgrid="false"
     inkscape:zoom="4.4470387"
     inkscape:cx="47.784608"
     inkscape:cy="14.054296"
     inkscape:window-x="181"
     inkscape:window-y="77"
     inkscape:window-maximized="0"
     inkscape:current-layer="g877"
     inkscape:document-rotation="0"
     inkscape:pagecheckerboard="0"
     inkscape:showpageshadow="2"
     inkscape:deskcolor="#d1d1d1" />
  <defs
     id="defs29">
    <linearGradient
       id="b"
       x1="399.57"
       x2="399.57"
       y1="545.8"
       y2="517.8"
       gradientTransform="matrix(2.1429,0,0,2.1429,-825.86391,-1107.6662)"
       gradientUnits="userSpaceOnUse">
      <stop
         stop-color="#3889e9"
         offset="0"
         id="stop2" />
      <stop
         stop-color="#5ea5fb"
         offset="1"
         id="stop4" />
    </linearGradient>
    <linearGradient
       id="d"
       x2="1"
       gradientTransform="matrix(14.905727,-4.7106182,4.7106182,14.905727,322.04962,998.26962)"
       gradientUnits="userSpaceOnUse">
      <stop
         stop-color="#fafafa"
         offset="0"
         id="stop7" />
      <stop
         stop-color="#aaa"
         offset="1"
         id="stop8" />
    </linearGradient>
    <linearGradient
       id="e"
       x2="1"
       gradientTransform="matrix(21.439909,0,0,21.439909,26.63554,1159.7788)"
       gradientUnits="userSpaceOnUse">
      <stop
         stop-color="#f0f0f0"
         offset="0"
         id="stop9" />
      <stop
         stop-color="#b7f1ff"
         offset="1"
         id="stop10" />
    </linearGradient>
  </defs>
  <circle
     cx="32.516094"
     cy="31.877844"
     r="0"
     fill="url(#b)"
     stroke-width="1.5715"
     id="circle41"
     style="fill:url(#b)" />
  <g
     aria-label="GZ"
     transform="matrix(1.2212657,0,0,0.81882264,0.4960938,-0.1661539)"
     id="text93"
     style="font-weight:bold;font-size:11.5263px;line-height:1.25;font-family:sans-serif;-inkscape-font-specification:'sans-serif Bold';fill:#f2f2f2;stroke-width:0.288159" />
  <g
     id="g877"
     transform="matrix(1.1,0,0,1.1,-3.1845928,-3.2065454)">
    <rect
       x="6.3010068"
       y="5.4939413"
       width="51.635597"
       height="53.148327"
       rx="10.980581"
       ry="10.720582"
       fill="url(#linearGradient862)"
       stroke-width="3.0541"
       id="rect35-7-3"
       style="fill:#414141;fill-opacity:1;stroke:#dfdfdf;stroke-width:2.27272727;stroke-dasharray:none;stroke-opacity:1" />
    <path
       id="path19"
       style="fill:#dfdfdf;fill-opacity:1;stroke:none;stroke-width:1.31769;stroke-dasharray:none;stroke-dashoffset:2.2;stroke-opacity:0.3"
       d="m 27.076975,16.216012 c -1.021614,0.01251 -2.056412,0.24204 -3.044586,0.715464 -4.69329,2.248489 -5.737878,8.282593 -2.05889,11.900389 1.111186,1.092702 2.271413,1.732582 3.700856,2.043448 1.17354,0.255216 1.636273,0.266929 2.753766,0.06434 2.719899,-0.493082 5.105065,-2.632043 5.880706,-5.275906 C 34.674623,24.41691 34.622354,22.473509 34.190452,21.25 33.077176,18.096338 30.141817,16.178608 27.076987,16.216013 Z m 12.515485,4.87185 c -0.560666,0.0085 -1.125407,0.09172 -1.683147,0.25736 l -0.782379,0.231627 0.09265,1.325413 c 0.173543,2.444977 -0.738702,5.349546 -2.203017,7.013093 -0.340282,0.386587 -0.620241,0.763108 -0.620241,0.836425 0,0.175117 1.477709,1.591935 1.989403,1.907048 0.219732,0.135315 0.798979,0.385933 1.286808,0.558474 1.369966,0.484547 3.274019,0.377368 4.635079,-0.259933 1.358152,-0.635941 2.556399,-1.786252 3.178405,-3.049733 0.457849,-0.929979 0.488976,-1.096478 0.488976,-2.589055 0,-1.488946 -0.032,-1.661106 -0.483839,-2.576185 -1.139416,-2.310605 -3.469169,-3.691511 -5.898708,-3.654534 z m -1.008863,15.161155 0.741206,0.488986 c 1.711834,1.133874 3.256188,2.884606 4.205284,4.76118 0.512326,1.012996 1.158125,3.243224 1.158125,3.9994 v 0.586784 h 3.724017 3.724011 l -0.05145,-1.786091 c -0.05145,-1.7083 -0.08063,-1.836973 -0.62283,-2.933917 -1.613212,-3.26363 -5.733118,-5.116342 -11.37281,-5.116342 z m -11.16948,0.02831 c -0.363665,3.49e-4 -0.734636,0.0069 -1.114374,0.01802 -3.176854,0.09326 -4.703396,0.348159 -6.876694,1.147821 -4.725336,1.738699 -7.268027,5.276394 -7.273033,10.119456 v 1.096353 h 14.983577 14.983576 v -1.55703 c 0,-2.914325 -0.824879,-4.908662 -2.859288,-6.923018 -2.714228,-2.687482 -6.388749,-3.906817 -11.843764,-3.9016 z" />
  </g>
</svg>
