<?xml version="1.0" encoding="UTF-8" standalone="no"?>
<svg
   width="64"
   height="64"
   version="1.1"
   id="svg73"
   sodipodi:docname="audacious.svg"
   inkscape:version="1.4.2 (ebf0e940d0, 2025-05-08)"
   xmlns:inkscape="http://www.inkscape.org/namespaces/inkscape"
   xmlns:sodipodi="http://sodipodi.sourceforge.net/DTD/sodipodi-0.dtd"
   xmlns="http://www.w3.org/2000/svg"
   xmlns:svg="http://www.w3.org/2000/svg"
   xmlns:rdf="http://www.w3.org/1999/02/22-rdf-syntax-ns#"
   xmlns:cc="http://creativecommons.org/ns#"
   xmlns:dc="http://purl.org/dc/elements/1.1/">
  <metadata
     id="metadata77">
    <rdf:RDF>
      <cc:Work
         rdf:about="">
        <dc:format>image/svg+xml</dc:format>
        <dc:type
           rdf:resource="http://purl.org/dc/dcmitype/StillImage" />
      </cc:Work>
    </rdf:RDF>
  </metadata>
  <sodipodi:namedview
     pagecolor="#f5f7fa"
     bordercolor="#666666"
     borderopacity="1"
     objecttolerance="10"
     gridtolerance="10"
     guidetolerance="10"
     inkscape:pageopacity="0"
     inkscape:pageshadow="2"
     inkscape:window-width="1377"
     inkscape:window-height="886"
     id="namedview75"
     showgrid="false"
     inkscape:zoom="6.2890624"
     inkscape:cx="45.714286"
     inkscape:cy="42.057144"
     inkscape:window-x="0"
     inkscape:window-y="75"
     inkscape:window-maximized="0"
     inkscape:current-layer="g877"
     inkscape:document-rotation="0"
     inkscape:pagecheckerboard="0"
     inkscape:showpageshadow="2"
     inkscape:deskcolor="#d1d1d1" />
  <defs
     id="defs29" />
  <circle
     cx="32.516094"
     cy="31.877844"
     r="0"
     fill="url(#b)"
     stroke-width="1.5715"
     id="circle41"
     style="fill:url(#b)" />
  <g
     aria-label="GZ"
     transform="matrix(1.2212657,0,0,0.81882264,0.4960938,-0.1661539)"
     id="text93"
     style="font-weight:bold;font-size:11.5263px;line-height:1.25;font-family:sans-serif;-inkscape-font-specification:'sans-serif Bold';fill:#f2f2f2;stroke-width:0.288159" />
  <g
     id="g877"
     transform="matrix(1.1,0,0,1.1,-3.1845928,-3.2065454)">
    <rect
       x="8.3496294"
       y="8.369586"
       width="47.272728"
       height="47.272728"
       rx="9.8825235"
       ry="9.6485243"
       fill="url(#linearGradient862)"
       stroke-width="3.0541"
       id="rect35-7-3"
       style="fill:#414141;fill-opacity:1;stroke:#dfdfdf;stroke-width:2.04545;stroke-dasharray:none;stroke-opacity:1" />
    <path
       id="path6"
       style="fill:#dfdfdf;fill-opacity:1;stroke:none;stroke-width:0.145898;stroke-opacity:1"
       d="m 24.926844,16.79999 c -0.217808,0.01434 -0.395866,0.132292 -1.074287,0.590858 -1.822007,1.231552 -3.506736,2.996746 -4.64518,4.867871 -1.24936,2.053425 -1.976528,4.198037 -2.283982,6.735567 l -0.03245,0.267453 0.137642,-0.126451 c 0.255643,-0.237393 0.91467,-0.667581 1.474909,-0.961265 1.487311,-0.779668 3.237013,-1.243221 5.713874,-1.516314 0.761736,-0.08399 3.762871,-0.114325 4.867872,-0.04925 1.739138,0.102438 3.521316,0.299653 5.334515,0.591976 0.502575,0.08103 0.93597,0.140109 0.963503,0.130931 0.06072,-0.02023 -0.702166,-1.565286 -1.311529,-2.655508 -1.59981,-2.862255 -3.286691,-4.964069 -5.040205,-6.280113 -1.266804,-0.950761 -2.496029,-1.45592 -3.85401,-1.584575 -0.101377,-0.0096 -0.178065,-0.01597 -0.250668,-0.01119 z m 7.458474,0.400619 c -0.887465,-0.02408 -1.782516,0.03401 -2.673412,0.176811 -0.347723,0.05575 -0.661159,0.117765 -0.697168,0.137644 -0.0014,6.98e-4 -0.0034,0.0012 -0.0045,0.0024 l -9.5e-4,9.5e-4 c -4.65e-4,5.08e-4 -0.0029,0.0028 -0.0034,0.0033 -6.63e-4,9.5e-4 -0.002,0.0044 -0.0023,0.0057 -0.0082,0.03599 0.07931,0.118503 0.278642,0.260738 0.729757,0.520744 1.648252,1.383734 2.376865,2.233627 1.393079,1.624961 2.533528,3.418282 3.865201,6.076446 l 0.705003,1.407764 1.117931,0.227168 c 2.59188,0.527563 5.013844,1.151286 7.539045,1.941553 0.588455,0.184158 1.123801,0.355193 1.19067,0.380478 0.06304,0.02383 0.121088,0.0268 0.135405,0.0078 3.79e-4,-6.63e-4 0.0021,-0.0027 0.0023,-0.0034 0.0088,-0.02324 -0.01908,-0.288561 -0.06267,-0.589738 -0.457538,-3.161691 -1.901116,-5.983254 -4.21433,-8.233922 -0.729701,-0.709973 -1.23128,-1.11573 -2.052338,-1.661792 -2.239521,-1.48944 -4.837481,-2.301297 -7.49988,-2.373507 z m -5.112943,9.968506 c -1.716135,-0.01608 -3.269244,0.09802 -4.684346,0.343547 -3.057614,0.530513 -5.215478,1.708897 -6.4379,3.51494 l -0.186882,0.277524 0.03245,0.607646 c 0.04897,0.890962 0.15525,1.731316 0.31893,2.529054 1.318225,6.424727 6.519488,11.450149 12.984345,12.545678 0.48608,0.08237 1.006782,0.143388 1.847553,0.215977 0.361691,0.03122 2.034206,-0.01531 2.529055,-0.07049 2.602288,-0.290263 5.052644,-1.173762 7.166401,-2.58389 3.782328,-2.52326 6.309088,-6.474566 6.986234,-10.925293 0.118911,-0.781572 0.219454,-2.121161 0.165621,-2.19446 l -9.5e-4,-9.5e-4 c -0.06298,-0.05958 -1.498921,-0.575254 -2.64094,-0.947814 -3.956401,-1.290696 -8.524263,-2.346275 -12.418108,-2.870365 -2.066666,-0.278162 -3.945144,-0.424821 -5.661278,-0.440906 z" />
  </g>
</svg>
