<?xml version="1.0" encoding="UTF-8" standalone="no"?>
<svg
   width="64"
   height="64"
   version="1.1"
   id="svg73"
   sodipodi:docname="k3b.svg"
   inkscape:version="1.4.2 (ebf0e940d0, 2025-05-08)"
   xmlns:inkscape="http://www.inkscape.org/namespaces/inkscape"
   xmlns:sodipodi="http://sodipodi.sourceforge.net/DTD/sodipodi-0.dtd"
   xmlns="http://www.w3.org/2000/svg"
   xmlns:svg="http://www.w3.org/2000/svg"
   xmlns:rdf="http://www.w3.org/1999/02/22-rdf-syntax-ns#"
   xmlns:cc="http://creativecommons.org/ns#"
   xmlns:dc="http://purl.org/dc/elements/1.1/">
  <metadata
     id="metadata77">
    <rdf:RDF>
      <cc:Work
         rdf:about="">
        <dc:format>image/svg+xml</dc:format>
        <dc:type
           rdf:resource="http://purl.org/dc/dcmitype/StillImage" />
      </cc:Work>
    </rdf:RDF>
  </metadata>
  <sodipodi:namedview
     pagecolor="#f5f7fa"
     bordercolor="#666666"
     borderopacity="1"
     objecttolerance="10"
     gridtolerance="10"
     guidetolerance="10"
     inkscape:pageopacity="0"
     inkscape:pageshadow="2"
     inkscape:window-width="1377"
     inkscape:window-height="886"
     id="namedview75"
     showgrid="false"
     inkscape:zoom="6.2890624"
     inkscape:cx="47.622361"
     inkscape:cy="45.396274"
     inkscape:window-x="147"
     inkscape:window-y="75"
     inkscape:window-maximized="0"
     inkscape:current-layer="g877"
     inkscape:document-rotation="0"
     inkscape:pagecheckerboard="0"
     inkscape:showpageshadow="2"
     inkscape:deskcolor="#d1d1d1" />
  <defs
     id="defs29" />
  <circle
     cx="32.516094"
     cy="31.877844"
     r="0"
     fill="url(#b)"
     stroke-width="1.5715"
     id="circle41"
     style="fill:url(#b)" />
  <g
     aria-label="GZ"
     transform="matrix(1.2212657,0,0,0.81882264,0.4960938,-0.1661539)"
     id="text93"
     style="font-weight:bold;font-size:11.5263px;line-height:1.25;font-family:sans-serif;-inkscape-font-specification:'sans-serif Bold';fill:#f2f2f2;stroke-width:0.288159" />
  <g
     id="g877"
     transform="matrix(1.1,0,0,1.1,-3.1845928,-3.2065454)">
    <rect
       x="8.3496294"
       y="8.369586"
       width="47.272728"
       height="47.272728"
       rx="9.8825235"
       ry="9.6485243"
       fill="url(#linearGradient862)"
       stroke-width="3.0541"
       id="rect35-7-3"
       style="fill:#414141;fill-opacity:1;stroke:#dfdfdf;stroke-width:2.04545;stroke-dasharray:none;stroke-opacity:1" />
    <path
       id="path7"
       style="fill:#dfdfdf;fill-opacity:1;stroke:none;stroke-width:0.515723;stroke-dasharray:none;stroke-opacity:0.6"
       d="m 19.878469,22.767344 c -0.137135,0.0034 -0.265154,0.05995 -0.493549,0.173438 -0.642754,0.319361 -1.007442,0.84212 -1.007442,1.443181 0,0.399788 0.244552,0.858961 1.396072,2.61657 l 1.396075,2.130509 1.101658,-0.883252 c 0.605962,-0.486188 1.149777,-0.884326 1.207645,-0.884326 0.245531,0 0.03541,-0.397517 -1.19373,-2.263264 -1.185707,-1.799812 -1.347604,-1.989971 -1.858576,-2.185112 -0.264977,-0.101199 -0.411016,-0.151159 -0.548153,-0.147744 z m 24.118672,0.08031 c -0.275243,0.0036 -0.545561,0.10143 -0.792252,0.295493 -0.345472,0.271768 -2.76217,3.833967 -2.76217,4.071522 0,0.06285 0.217411,0.258947 0.482845,0.435737 0.265417,0.176789 0.77152,0.561635 1.124141,0.854344 0.352596,0.292706 0.670981,0.530362 0.707674,0.528881 0.03662,-0.0016 0.675322,-0.942422 1.418556,-2.090897 1.186554,-1.833528 1.351104,-2.156027 1.351104,-2.645474 0,-0.479301 -0.06734,-0.618989 -0.480707,-0.997808 C 44.7139,22.994836 44.351055,22.84314 43.997141,22.847654 Z m -12.156762,2.145499 c -1.714573,0.01069 -3.405296,0.309886 -5.039354,0.89717 -5.631078,2.023811 -9.68778,7.082119 -10.548706,13.152425 -0.157273,1.108942 -0.01,1.626529 0.559928,1.975271 0.389828,0.238548 0.832949,0.244765 15.308631,0.213063 l 14.907157,-0.03224 0.375768,-0.420754 c 0.445761,-0.498922 0.4796,-0.995244 0.177752,-2.586596 C 46.418677,32.06151 41.732554,26.980254 35.870149,25.493133 34.521934,25.15113 33.173937,24.984857 31.840379,24.993156 Z M 24.39644,33.66936 c 0.640165,0 1.134085,0.310088 1.442106,0.905736 0.383607,0.741812 0.10438,1.746675 -0.605962,2.179759 -1.17105,0.713968 -2.602033,-0.109335 -2.581237,-1.484932 0.01498,-0.99137 0.678938,-1.600563 1.745093,-1.600563 z m 15.328972,0 c 1.637476,0 2.220723,2.232862 0.808309,3.09406 -0.522628,0.318656 -1.198882,0.320789 -1.716183,0.0054 -0.581614,-0.354649 -0.820092,-0.761399 -0.820092,-1.402496 0,-1.046893 0.662241,-1.696917 1.727966,-1.696917 z" />
    <rect
       x="37.737823"
       y="37.757782"
       width="22.610399"
       height="22.610399"
       rx="4.7267799"
       ry="4.6148596"
       fill="url(#linearGradient862)"
       stroke-width="3.0541"
       id="rect35-7-3-1"
       style="fill:#414141;fill-opacity:1;stroke:#dfdfdf;stroke-width:0.978336;stroke-dasharray:none;stroke-opacity:1" />
    <path
       style="fill:#dfdfdf;fill-opacity:1;stroke:none;stroke-width:0.469902;stroke-dasharray:none;stroke-opacity:0.6"
       d="m 49.238133,41.466005 a 0.44953282,0.44953283 0 0 0 -0.442467,0.456511 v 0.495142 a 2.2474393,2.2474393 0 0 0 -1.797951,2.201789 2.2474393,2.2474393 0 0 0 0.798892,1.715428 l -4.284178,8.956399 c -0.17068,0.330059 -0.141303,0.721951 0.07726,1.02539 0.221722,0.300614 0.593311,0.466291 0.977987,0.435442 0.384795,-0.03519 0.719997,-0.266869 0.874392,-0.604 l 3.002438,-6.066333 c 0.144784,-0.28186 0.444516,-0.467495 0.774319,-0.468799 0.0088,-3e-5 0.01705,0.0035 0.02664,0.0041 0.0092,-2.57e-4 0.01705,-0.0041 0.02663,-0.0041 0.329812,10e-4 0.629527,0.186913 0.774312,0.468799 l 3.002433,6.066333 c 0.154408,0.337131 0.489599,0.568847 0.874394,0.604 0.384674,0.03089 0.756249,-0.134802 0.977985,-0.435442 0.218524,-0.303457 0.247899,-0.69534 0.07726,-1.02539 l -4.282731,-8.954649 a 2.2474393,2.2474393 0 0 0 0.796947,-1.717178 2.2474393,2.2474393 0 0 0 -1.797953,-2.198284 v -0.498647 a 0.44953282,0.44953283 0 0 0 -0.456517,-0.456511 z m 0.0071,1.804974 a 1.3484635,1.3484636 0 0 1 1.348459,1.348468 1.3484635,1.3484636 0 0 1 -1.348459,1.348461 1.3484635,1.3484636 0 0 1 -1.348469,-1.348461 1.3484635,1.3484636 0 0 1 1.348469,-1.348468 z"
       id="path13" />
  </g>
</svg>
