<?xml version="1.0" encoding="UTF-8" standalone="no"?>
<svg
   width="64"
   height="64"
   version="1.1"
   id="svg73"
   sodipodi:docname="audacious.svg"
   inkscape:version="1.4.2 (ebf0e940d0, 2025-05-08)"
   xmlns:inkscape="http://www.inkscape.org/namespaces/inkscape"
   xmlns:sodipodi="http://sodipodi.sourceforge.net/DTD/sodipodi-0.dtd"
   xmlns="http://www.w3.org/2000/svg"
   xmlns:svg="http://www.w3.org/2000/svg"
   xmlns:rdf="http://www.w3.org/1999/02/22-rdf-syntax-ns#"
   xmlns:cc="http://creativecommons.org/ns#"
   xmlns:dc="http://purl.org/dc/elements/1.1/">
  <metadata
     id="metadata77">
    <rdf:RDF>
      <cc:Work
         rdf:about="">
        <dc:format>image/svg+xml</dc:format>
        <dc:type
           rdf:resource="http://purl.org/dc/dcmitype/StillImage" />
      </cc:Work>
    </rdf:RDF>
  </metadata>
  <sodipodi:namedview
     pagecolor="#f5f7fa"
     bordercolor="#666666"
     borderopacity="1"
     objecttolerance="10"
     gridtolerance="10"
     guidetolerance="10"
     inkscape:pageopacity="0"
     inkscape:pageshadow="2"
     inkscape:window-width="1377"
     inkscape:window-height="886"
     id="namedview75"
     showgrid="false"
     inkscape:zoom="6.2890624"
     inkscape:cx="47.622361"
     inkscape:cy="45.396274"
     inkscape:window-x="28"
     inkscape:window-y="57"
     inkscape:window-maximized="0"
     inkscape:current-layer="g877"
     inkscape:document-rotation="0"
     inkscape:pagecheckerboard="0"
     inkscape:showpageshadow="2"
     inkscape:deskcolor="#d1d1d1" />
  <defs
     id="defs29" />
  <circle
     cx="32.516094"
     cy="31.877844"
     r="0"
     fill="url(#b)"
     stroke-width="1.5715"
     id="circle41"
     style="fill:url(#b)" />
  <g
     aria-label="GZ"
     transform="matrix(1.2212657,0,0,0.81882264,0.4960938,-0.1661539)"
     id="text93"
     style="font-weight:bold;font-size:11.5263px;line-height:1.25;font-family:sans-serif;-inkscape-font-specification:'sans-serif Bold';fill:#f2f2f2;stroke-width:0.288159" />
  <g
     id="g877"
     transform="matrix(1.1,0,0,1.1,-3.1845928,-3.2065454)">
    <rect
       x="8.3496294"
       y="8.369586"
       width="47.272728"
       height="47.272728"
       rx="9.8825235"
       ry="9.6485243"
       fill="url(#linearGradient862)"
       stroke-width="3.0541"
       id="rect35-7-3"
       style="fill:#414141;fill-opacity:1;stroke:#dfdfdf;stroke-width:2.04545;stroke-dasharray:none;stroke-opacity:1" />
    <path
       id="path6-3"
       style="fill:#dfdfdf;fill-opacity:1;stroke:none;stroke-width:0.463097;stroke-dasharray:none;stroke-opacity:0.6"
       d="m 28.328238,20.055156 c -0.577111,4.06e-4 -0.678412,0.01801 -1.001952,0.181591 -0.297513,0.150444 -1.243982,1.065929 -5.457337,5.27895 -5.815636,5.815181 -5.481744,5.421924 -5.479766,6.480655 0.001,0.497512 0.0266,0.635163 0.186935,0.994476 0.17478,0.391687 0.488341,0.720467 5.102699,5.349445 2.703981,2.712555 5.058106,5.037024 5.231951,5.165728 0.173846,0.128758 0.462706,0.286388 0.641977,0.350345 0.24582,0.08773 0.469461,0.111253 0.907954,0.09615 0.885077,-0.03054 1.116737,-0.168092 2.371362,-1.404655 l 1.027585,-1.011563 -0.703932,-0.708202 -0.705001,-0.708208 -0.873771,0.865235 -0.873772,0.866292 H 28.357081 28.00992 l -4.704267,-4.703206 c -3.422129,-3.420947 -4.723664,-4.760883 -4.775836,-4.918969 -0.155374,-0.470789 -0.254856,-0.358996 4.742723,-5.35479 4.143018,-4.141545 4.701802,-4.676825 4.910428,-4.710678 0.419826,-0.06812 0.561838,0.01917 1.431361,0.88018 l 0.837452,0.828908 0.687911,-0.691114 0.688976,-0.691111 -1.075659,-1.06284 C 29.44138,20.132402 29.30276,20.054505 28.328238,20.05516 Z m 7.43454,0.382412 c -0.626586,0.0041 -0.935622,0.356171 -5.882471,5.2907 -3.842809,3.833233 -5.100019,5.124915 -5.225541,5.368674 -0.222852,0.432765 -0.267538,1.040863 -0.113225,1.549931 0.112851,0.372285 0.165587,0.42719 5.193496,5.469089 4.820502,4.833919 5.264305,5.251945 5.752154,5.412468 0.283859,0.09342 1.03554,0.0225 1.38009,-0.129283 0.267451,-0.118003 1.154966,-0.973773 5.316337,-5.13047 5.619203,-5.612854 5.40376,-5.362939 5.40179,-6.268047 -0.0021,-0.91559 0.256258,-0.615945 -5.375086,-6.239235 -5.571352,-5.563419 -5.276482,-5.306978 -6.145247,-5.316343 -0.116956,-0.0014 -0.212779,-0.0081 -0.302293,-0.0073 z" />
  </g>
</svg>
