<?xml version="1.0" encoding="UTF-8" standalone="no"?>
<svg
   width="64"
   height="64"
   version="1.1"
   id="svg73"
   sodipodi:docname="audacious.svg"
   inkscape:version="1.4.2 (ebf0e940d0, 2025-05-08)"
   xmlns:inkscape="http://www.inkscape.org/namespaces/inkscape"
   xmlns:sodipodi="http://sodipodi.sourceforge.net/DTD/sodipodi-0.dtd"
   xmlns="http://www.w3.org/2000/svg"
   xmlns:svg="http://www.w3.org/2000/svg"
   xmlns:rdf="http://www.w3.org/1999/02/22-rdf-syntax-ns#"
   xmlns:cc="http://creativecommons.org/ns#"
   xmlns:dc="http://purl.org/dc/elements/1.1/">
  <metadata
     id="metadata77">
    <rdf:RDF>
      <cc:Work
         rdf:about="">
        <dc:format>image/svg+xml</dc:format>
        <dc:type
           rdf:resource="http://purl.org/dc/dcmitype/StillImage" />
      </cc:Work>
    </rdf:RDF>
  </metadata>
  <sodipodi:namedview
     pagecolor="#f5f7fa"
     bordercolor="#666666"
     borderopacity="1"
     objecttolerance="10"
     gridtolerance="10"
     guidetolerance="10"
     inkscape:pageopacity="0"
     inkscape:pageshadow="2"
     inkscape:window-width="1377"
     inkscape:window-height="886"
     id="namedview75"
     showgrid="false"
     inkscape:zoom="6.2890624"
     inkscape:cx="46.82733"
     inkscape:cy="42.21615"
     inkscape:window-x="226"
     inkscape:window-y="192"
     inkscape:window-maximized="0"
     inkscape:current-layer="g877"
     inkscape:document-rotation="0"
     inkscape:pagecheckerboard="0"
     inkscape:showpageshadow="2"
     inkscape:deskcolor="#d1d1d1" />
  <defs
     id="defs29" />
  <circle
     cx="32.516094"
     cy="31.877844"
     r="0"
     fill="url(#b)"
     stroke-width="1.5715"
     id="circle41"
     style="fill:url(#b)" />
  <g
     aria-label="GZ"
     transform="matrix(1.2212657,0,0,0.81882264,0.4960938,-0.1661539)"
     id="text93"
     style="font-weight:bold;font-size:11.5263px;line-height:1.25;font-family:sans-serif;-inkscape-font-specification:'sans-serif Bold';fill:#f2f2f2;stroke-width:0.288159" />
  <g
     id="g877"
     transform="matrix(1.1,0,0,1.1,-3.1845928,-3.2065454)">
    <rect
       x="8.3496294"
       y="8.369586"
       width="47.272728"
       height="47.272728"
       rx="9.8825235"
       ry="9.6485243"
       fill="url(#linearGradient862)"
       stroke-width="3.0541"
       id="rect35-7-3"
       style="fill:#414141;fill-opacity:1;stroke:#dfdfdf;stroke-width:2.04545;stroke-dasharray:none;stroke-opacity:1" />
    <path
       id="path3211"
       style="fill:#dfdfdf;fill-opacity:1;stroke:none;stroke-width:0.0876717;stroke-opacity:1"
       d="m 39.182293,18.880144 c -1.053376,-0.01652 -1.974462,0.403175 -2.83507,1.274757 -0.206815,0.209451 -0.494853,0.586965 -0.639428,0.838908 -0.25541,0.445079 -0.54633,0.721676 -1.578078,1.500198 -0.961106,0.725217 -2.372161,2.327172 -4.339368,4.924144 -1.245228,1.643862 -2.321889,3.166266 -3.005859,4.251925 -1.176721,1.867797 -2.186226,3.008421 -3.478599,3.929478 -0.392204,0.279517 -0.99975,0.773655 -1.349904,1.097139 l -0.636696,0.587508 0.146195,0.282824 c 0.145949,0.282237 0.14561,0.283331 -0.140729,0.543788 -0.214691,0.195285 -0.249128,0.261776 -0.13663,0.263695 0.08269,0.0013 0.192954,0.08119 0.244568,0.177619 0.0516,0.09644 0.110991,0.176253 0.13253,0.176253 0.02154,0 0.49904,-0.39685 1.06025,-0.881263 0.561208,-0.484416 1.034996,-0.865525 1.053416,-0.847107 0.01842,0.01843 -0.04553,0.263122 -0.142095,0.543788 -0.09656,0.280667 -0.176252,0.532017 -0.176252,0.558817 0,0.02681 0.197484,-0.145093 0.438581,-0.382564 l 0.438582,-0.43175 v 0.338843 c 0,0.336956 0.0033,0.333104 0.620301,-0.601173 0.694484,-1.051538 1.683712,-2.156023 1.930582,-2.156023 0.281193,0 2.2365,-0.675891 3.030452,-1.04795 l 0.762395,-0.357971 0.269162,0.241836 c 0.148196,0.132462 0.535288,0.497078 0.860768,0.810216 l 0.591608,0.56838 v -0.843007 c 0,-0.91085 0.02228,-0.949541 0.512362,-0.948212 0.216396,5.72e-4 0.243683,0.0449 0.377099,0.598439 0.149502,0.620269 0.741551,2.086714 0.875798,2.169684 0.0421,0.02602 0.07651,-0.226792 0.07651,-0.561549 0,-0.557079 0.0162,-0.612903 0.196747,-0.661289 0.412292,-0.110491 0.57068,-0.06399 0.632598,0.185816 0.06971,0.281245 0.717416,1.602561 0.848472,1.731103 0.06072,0.05956 0.06869,-0.453581 0.02596,-1.599938 -0.05502,-1.475683 -0.0449,-1.68738 0.07105,-1.68738 0.07293,0 0.245299,-0.02288 0.38393,-0.05056 0.242982,-0.04852 0.256135,-0.03323 0.36207,0.416722 0.06044,0.256717 0.265514,0.790274 0.454978,1.185948 0.343132,0.716592 1.041367,1.823762 1.108068,1.75706 0.02939,-0.02939 -0.608745,-2.001385 -0.789721,-2.44021 -0.04199,-0.101832 0.03662,-0.180057 0.297854,-0.297855 0.195371,-0.08809 0.364843,-0.145299 0.377099,-0.125698 0.812141,1.298763 1.421587,1.925258 2.552247,2.624662 0.674495,0.417226 2.078453,0.995089 2.295383,0.944112 0.06186,-0.01454 -0.284044,-0.562192 -0.803383,-1.272024 -0.501768,-0.685812 -0.912689,-1.301068 -0.912689,-1.366301 0,-0.06523 0.09751,-0.209884 0.215876,-0.32108 l 0.214509,-0.202211 0.575212,0.244566 c 0.316172,0.134374 0.595142,0.224638 0.618934,0.200847 0.06052,-0.06053 -1.3273,-1.712027 -2.713471,-3.229933 -0.916965,-1.004109 -1.280658,-1.47892 -1.703776,-2.225702 -0.521808,-0.920958 -0.625933,-1.191414 -0.457711,-1.191414 0.165728,0 0.637618,-0.564106 0.890828,-1.065714 0.283378,-0.561367 0.603919,-1.682676 0.827977,-2.90202 0.136197,-0.741201 0.15638,-0.784701 0.576578,-1.177746 0.537833,-0.50308 1.079928,-1.558376 1.267927,-2.470272 0.07333,-0.355685 0.192678,-0.761783 0.265062,-0.901757 0.129455,-0.250347 0.127955,-0.253537 -0.08198,-0.200846 -0.13345,0.0335 -0.521355,-0.05152 -1.034289,-0.228171 -0.540358,-0.186103 -1.045982,-0.284881 -1.524791,-0.292389 z m -22.768018,2.400588 0.128432,0.198114 c 0.07054,0.108494 1.874235,2.869398 4.007357,6.136052 l 3.87756,5.939306 0.377099,-0.453613 c 0.20736,-0.249702 0.629058,-0.842649 0.935915,-1.317113 2.937279,-4.541671 6.667731,-9.178649 8.12675,-10.099687 0.192248,-0.12136 0.376146,-0.261344 0.407157,-0.311516 0.0389,-0.06296 -2.719386,-0.09154 -8.901442,-0.09154 z m 28.466856,0 c -2.470327,0 -2.680106,0.01277 -2.728501,0.154393 -0.211298,0.618338 -0.719672,1.496477 -1.113534,1.925115 -0.44223,0.481277 -0.472743,0.547766 -0.616201,1.29662 -0.319542,1.667997 -0.681503,2.693273 -1.209177,3.428046 l -0.286922,0.400324 0.304685,0.579311 c 0.167798,0.318904 0.63754,0.948035 1.043853,1.397726 0.406313,0.44969 0.766211,0.787406 0.799284,0.750099 0.04952,-0.05585 2.847997,-4.342636 5.840933,-8.945165 l 0.64216,-0.986469 z m -14.402166,13.128774 -0.843007,0.36207 c -0.464336,0.19917 -1.247955,0.481139 -1.740666,0.627132 -0.773433,0.229167 -0.945715,0.315736 -1.258362,0.635329 l -0.362069,0.370268 2.8542,4.363961 2.8542,4.36396 1.278857,-1.952441 c 0.703304,-1.074204 1.673938,-2.557303 2.15602,-3.295515 l 0.875798,-1.341706 -0.394861,-0.411257 c -0.217408,-0.22617 -0.523703,-0.605701 -0.680417,-0.843006 l -0.285556,-0.431752 v 0.892194 c 0,0.490457 -0.03113,0.890827 -0.06968,0.890827 -0.09437,0 -1.063669,-1.406605 -1.45101,-2.105467 -0.312266,-0.56341 -0.335688,-0.56595 -0.449513,-0.05056 l -0.05602,0.255498 -0.498699,-0.474106 c -0.274429,-0.2604 -0.820188,-0.783735 -1.213271,-1.164082 z m 6.243989,1.688748 c -0.01997,0 -0.03552,0.393607 -0.03552,0.875798 0,0.48219 0.01508,0.877163 0.03415,0.877163 0.01909,0 0.1596,-0.193644 0.311517,-0.430383 l 0.275993,-0.430386 -0.274626,-0.446779 c -0.151019,-0.24545 -0.291536,-0.445413 -0.311508,-0.445413 z" />
  </g>
</svg>
