<?xml version="1.0" encoding="UTF-8" standalone="no"?>
<svg
   width="64"
   height="64"
   version="1.1"
   id="svg73"
   sodipodi:docname="audacious.svg"
   inkscape:version="1.4.2 (ebf0e940d0, 2025-05-08)"
   xmlns:inkscape="http://www.inkscape.org/namespaces/inkscape"
   xmlns:sodipodi="http://sodipodi.sourceforge.net/DTD/sodipodi-0.dtd"
   xmlns="http://www.w3.org/2000/svg"
   xmlns:svg="http://www.w3.org/2000/svg"
   xmlns:rdf="http://www.w3.org/1999/02/22-rdf-syntax-ns#"
   xmlns:cc="http://creativecommons.org/ns#"
   xmlns:dc="http://purl.org/dc/elements/1.1/">
  <metadata
     id="metadata77">
    <rdf:RDF>
      <cc:Work
         rdf:about="">
        <dc:format>image/svg+xml</dc:format>
        <dc:type
           rdf:resource="http://purl.org/dc/dcmitype/StillImage" />
      </cc:Work>
    </rdf:RDF>
  </metadata>
  <sodipodi:namedview
     pagecolor="#f5f7fa"
     bordercolor="#666666"
     borderopacity="1"
     objecttolerance="10"
     gridtolerance="10"
     guidetolerance="10"
     inkscape:pageopacity="0"
     inkscape:pageshadow="2"
     inkscape:window-width="1377"
     inkscape:window-height="886"
     id="namedview75"
     showgrid="false"
     inkscape:zoom="6.2890624"
     inkscape:cx="26.474535"
     inkscape:cy="38.877019"
     inkscape:window-x="0"
     inkscape:window-y="75"
     inkscape:window-maximized="0"
     inkscape:current-layer="g877"
     inkscape:document-rotation="0"
     inkscape:pagecheckerboard="0"
     inkscape:showpageshadow="2"
     inkscape:deskcolor="#d1d1d1" />
  <defs
     id="defs29" />
  <circle
     cx="32.516094"
     cy="31.877844"
     r="0"
     fill="url(#b)"
     stroke-width="1.5715"
     id="circle41"
     style="fill:url(#b)" />
  <g
     aria-label="GZ"
     transform="matrix(1.2212657,0,0,0.81882264,0.4960938,-0.1661539)"
     id="text93"
     style="font-weight:bold;font-size:11.5263px;line-height:1.25;font-family:sans-serif;-inkscape-font-specification:'sans-serif Bold';fill:#f2f2f2;stroke-width:0.288159" />
  <g
     id="g877"
     transform="matrix(1.1,0,0,1.1,-3.1845928,-3.2065454)">
    <rect
       x="8.3496294"
       y="8.369586"
       width="47.272728"
       height="47.272728"
       rx="9.8825235"
       ry="9.6485243"
       fill="url(#linearGradient862)"
       stroke-width="3.0541"
       id="rect35-7-3"
       style="fill:#414141;fill-opacity:1;stroke:#dfdfdf;stroke-width:2.04545;stroke-dasharray:none;stroke-opacity:1" />
    <path
       style="fill:#dfdfdf;fill-opacity:1;stroke:none;stroke-width:0.482482;stroke-dasharray:none;stroke-opacity:0.6"
       d="m 31.456949,47.589414 c -0.170822,-0.08609 -0.435136,-0.251582 -0.587367,-0.367741 -0.693744,-0.529325 -5.077419,-4.341224 -5.466367,-4.753364 -0.792419,-0.839682 -0.533313,-0.04315 -4.057134,-12.472108 -1.706543,-6.01919 -3.137701,-11.091995 -3.180353,-11.272896 -0.108741,-0.461207 -0.100401,-0.843164 0.02368,-1.086436 0.201707,-0.395376 0.563101,-0.619114 1.703603,-1.05469 l 0.82804,-0.316241 h 11.26617 11.266164 l 0.804821,0.307571 c 1.259395,0.481288 1.587175,0.685411 1.758303,1.094982 0.104307,0.249722 0.08265,0.768402 -0.05352,1.277718 -0.06568,0.245688 -1.495967,5.294847 -3.178426,11.220345 -3.474584,12.237246 -3.222334,11.464048 -4.013319,12.3012 -0.391429,0.414272 -4.771086,4.223516 -5.461999,4.750621 -0.414969,0.316559 -0.863723,0.527588 -1.122026,0.527588 -0.139225,0 -0.333477,-0.05734 -0.530288,-0.156526 z m 1.188024,-3.259889 c 0.346413,-0.173606 0.629843,-0.337345 0.629843,-0.363689 0,-0.0262 -0.0714,-0.682462 -0.158661,-1.457946 l -0.158674,-1.409975 -0.457749,-0.459873 c -0.251763,-0.25298 -0.482383,-0.45988 -0.512493,-0.45988 -0.03009,0 -0.260732,0.206945 -0.512493,0.45988 l -0.457751,0.459873 -0.158662,1.409975 c -0.08728,0.775484 -0.15867,1.431546 -0.15867,1.457918 0,0.04367 1.181022,0.67036 1.275251,0.676745 0.02213,0.0017 0.323652,-0.139325 0.670065,-0.313009 z m -3.39056,-4.283734 c 0.722622,-0.07171 1.352121,-0.130314 1.398885,-0.130373 0.04916,-3.9e-5 0.222669,-0.208864 0.411473,-0.495133 L 31.391219,38.9252 31.070891,38.448818 c -0.207885,-0.309194 -0.361539,-0.485036 -0.437746,-0.500997 -0.149494,-0.03148 -2.818017,-0.292379 -2.988725,-0.292379 -0.110937,0 -0.16897,0.08328 -0.440009,0.631432 l -0.312215,0.631438 0.327145,0.656759 0.327141,0.656765 0.197034,-0.02831 c 0.108364,-0.01523 0.788272,-0.08652 1.510894,-0.158169 z m 7.501032,-0.471247 0.32684,-0.656141 -0.312222,-0.631436 c -0.271039,-0.548163 -0.329064,-0.631431 -0.440005,-0.631431 -0.17072,0 -2.839238,0.261018 -2.988726,0.292347 -0.07621,0.01582 -0.229857,0.191845 -0.43775,0.50099 l -0.320322,0.476389 0.326444,0.495067 c 0.270967,0.410929 0.349832,0.49565 0.464027,0.49847 0.07566,0.0019 0.76429,0.06998 1.530272,0.151382 0.765977,0.08139 1.422369,0.150801 1.458645,0.154302 0.03626,0.0037 0.213025,-0.288968 0.392797,-0.649833 z m -4.254538,-2.380068 0.458927,-0.461066 0.792661,-7.76931 0.792659,-7.769321 -1.274088,-1.9126 c -0.700748,-1.05193 -1.278471,-1.912599 -1.283828,-1.912599 -0.0054,0 -0.583082,0.860669 -1.28383,1.912599 l -1.274086,1.9126 0.792658,7.769321 0.792662,7.76931 0.458923,0.461066 c 0.252411,0.253588 0.483563,0.46106 0.513673,0.46106 0.0301,0 0.26126,-0.207464 0.513669,-0.46106 z"
       id="path6" />
  </g>
</svg>
