<?xml version="1.0" encoding="UTF-8" standalone="no"?>
<svg
   width="64"
   height="64"
   version="1.1"
   id="svg73"
   sodipodi:docname="accessories-text-editor.svg"
   inkscape:version="1.4.2 (ebf0e940d0, 2025-05-08)"
   xmlns:inkscape="http://www.inkscape.org/namespaces/inkscape"
   xmlns:sodipodi="http://sodipodi.sourceforge.net/DTD/sodipodi-0.dtd"
   xmlns="http://www.w3.org/2000/svg"
   xmlns:svg="http://www.w3.org/2000/svg"
   xmlns:rdf="http://www.w3.org/1999/02/22-rdf-syntax-ns#"
   xmlns:cc="http://creativecommons.org/ns#"
   xmlns:dc="http://purl.org/dc/elements/1.1/">
  <metadata
     id="metadata77">
    <rdf:RDF>
      <cc:Work
         rdf:about="">
        <dc:format>image/svg+xml</dc:format>
        <dc:type
           rdf:resource="http://purl.org/dc/dcmitype/StillImage" />
      </cc:Work>
    </rdf:RDF>
  </metadata>
  <sodipodi:namedview
     pagecolor="#f5f7fa"
     bordercolor="#666666"
     borderopacity="1"
     objecttolerance="10"
     gridtolerance="10"
     guidetolerance="10"
     inkscape:pageopacity="0"
     inkscape:pageshadow="2"
     inkscape:window-width="1377"
     inkscape:window-height="886"
     id="namedview75"
     showgrid="false"
     inkscape:zoom="6.2890624"
     inkscape:cx="47.622361"
     inkscape:cy="45.396274"
     inkscape:window-x="264"
     inkscape:window-y="75"
     inkscape:window-maximized="0"
     inkscape:current-layer="g877"
     inkscape:document-rotation="0"
     inkscape:pagecheckerboard="0"
     inkscape:showpageshadow="2"
     inkscape:deskcolor="#d1d1d1" />
  <defs
     id="defs29" />
  <circle
     cx="32.516094"
     cy="31.877844"
     r="0"
     fill="url(#b)"
     stroke-width="1.5715"
     id="circle41"
     style="fill:url(#b)" />
  <g
     aria-label="GZ"
     transform="matrix(1.2212657,0,0,0.81882264,0.4960938,-0.1661539)"
     id="text93"
     style="font-weight:bold;font-size:11.5263px;line-height:1.25;font-family:sans-serif;-inkscape-font-specification:'sans-serif Bold';fill:#f2f2f2;stroke-width:0.288159" />
  <g
     id="g877"
     transform="matrix(1.1,0,0,1.1,-3.1845928,-3.2065454)">
    <rect
       x="8.3496294"
       y="8.369586"
       width="47.272728"
       height="47.272728"
       rx="9.8825235"
       ry="9.6485243"
       fill="url(#linearGradient862)"
       stroke-width="3.0541"
       id="rect35-7-3"
       style="fill:#414141;fill-opacity:1;stroke:#dfdfdf;stroke-width:2.04545;stroke-dasharray:none;stroke-opacity:1" />
    <path
       id="path5"
       style="fill:#dfdfdf;fill-opacity:1;stroke:none;stroke-width:0.0245618;stroke-opacity:0.5"
       d="m 31.92729,16.93112 c -0.324873,0.0041 -0.650028,0.02743 -0.848534,0.06966 -0.744668,0.158401 -0.93706,0.25167 -2.824226,1.368844 l -1.106048,0.654341 v 6.359787 6.358727 l 0.130866,0.356721 c 0.447058,1.22327 1.669885,2.358873 3.062743,2.84428 0.365409,0.127341 0.446624,0.137172 1.154599,0.136144 0.69911,-8.52e-4 0.79549,-0.01241 1.17887,-0.138254 1.500485,-0.492539 2.555208,-1.598794 2.928711,-3.071188 0.134388,-0.529774 0.162492,-1.299579 0.06648,-1.828993 -0.143376,-0.790659 -0.540593,-1.558443 -1.118716,-2.163557 -0.754044,-0.789249 -1.6499,-1.219751 -2.797842,-1.343514 l -0.307122,-0.0327 v -1.598927 -1.598918 l 0.454874,0.02851 c 0.517844,0.03237 1.168174,0.205884 1.623191,0.433767 0.167604,0.08394 1.004266,0.562213 1.859599,1.062778 1.654581,0.968304 2.08238,1.282235 2.545603,1.868043 0.502412,0.63536 0.830912,1.332641 0.988901,2.098116 0.07972,0.386214 0.09128,0.683112 0.09183,2.32397 5.26e-4,1.527763 -0.01364,1.952066 -0.07706,2.259591 -0.220032,1.068961 -0.697653,1.929391 -1.481757,2.669076 -0.448628,0.423213 -0.507156,0.461746 -2.297584,1.506043 -1.642201,0.957837 -2.050565,1.14919 -2.773569,1.299186 -0.910453,0.188884 -2.080431,0.0579 -2.924487,-0.326115 -0.300813,-0.136876 -3.015391,-1.723922 -3.473289,-2.030583 -0.385233,-0.257997 -1.01376,-0.897282 -1.283356,-1.305521 -0.258139,-0.390882 -0.542124,-1.011542 -0.678618,-1.48282 l -0.11398,-0.393662 -0.01372,-6.1772 c -0.0075,-3.397515 -0.0245,-6.177203 -0.03799,-6.177203 -0.0975,0 -3.39237,1.997139 -3.64954,2.212099 -0.808712,0.675967 -1.356426,1.577459 -1.609473,2.651142 -0.07962,0.337821 -0.08868,0.815439 -0.105534,5.746604 -0.01872,5.473924 -9.92e-4,6.187958 0.16464,6.829434 0.255262,0.987455 0.881453,1.949649 1.65802,2.54877 0.238831,0.184268 2.245518,1.371872 7.768729,4.596223 2.2633,1.321276 2.581498,1.462017 3.474347,1.544037 0.223532,0.02047 0.461208,0.03171 0.528753,0.02422 0.06754,-0.0075 0.267494,-0.02627 0.444318,-0.04117 0.44461,-0.03755 0.985937,-0.195285 1.422669,-0.414768 0.413465,-0.207803 9.188944,-5.338471 9.523846,-5.568242 0.364365,-0.249998 0.866219,-0.756374 1.133487,-1.14299 0.500182,-0.723537 0.756689,-1.443947 0.83798,-2.356685 0.06153,-0.690663 0.06153,-10.434178 0,-11.116433 -0.129656,-1.438159 -0.853213,-2.717645 -1.990464,-3.52178 -0.310458,-0.219518 -9.106659,-5.377044 -9.529129,-5.587239 -0.304218,-0.15136 -0.79768,-0.315481 -1.154597,-0.383105 -0.196857,-0.03729 -0.52155,-0.0526 -0.846422,-0.04855 z m -1.020564,6.480099 v 1.569364 c 0,1.687795 0.0088,1.62847 -0.248013,1.62847 -0.0508,0 -0.258598,0.05249 -0.462262,0.117148 l -0.370444,0.118205 v -1.615804 c 0,-0.888723 0.0093,-1.615806 0.02108,-1.615803 0.01174,0 0.172588,-0.03111 0.356725,-0.0686 0.184138,-0.03749 0.416878,-0.0825 0.518197,-0.100265 z m -1.62108,0.553026 v 1.57992 1.580975 l -0.230074,0.145643 c -0.126674,0.08004 -0.370601,0.276091 -0.541416,0.435877 l -0.310286,0.290233 0.01268,-1.803662 0.01265,-1.803665 0.528751,-0.213186 z" />
  </g>
</svg>
