<?xml version="1.0" encoding="UTF-8" standalone="no"?>
<svg
   width="64"
   height="64"
   version="1.1"
   id="svg73"
   sodipodi:docname="audacious.svg"
   inkscape:version="1.4.2 (ebf0e940d0, 2025-05-08)"
   xmlns:inkscape="http://www.inkscape.org/namespaces/inkscape"
   xmlns:sodipodi="http://sodipodi.sourceforge.net/DTD/sodipodi-0.dtd"
   xmlns="http://www.w3.org/2000/svg"
   xmlns:svg="http://www.w3.org/2000/svg"
   xmlns:rdf="http://www.w3.org/1999/02/22-rdf-syntax-ns#"
   xmlns:cc="http://creativecommons.org/ns#"
   xmlns:dc="http://purl.org/dc/elements/1.1/">
  <metadata
     id="metadata77">
    <rdf:RDF>
      <cc:Work
         rdf:about="">
        <dc:format>image/svg+xml</dc:format>
        <dc:type
           rdf:resource="http://purl.org/dc/dcmitype/StillImage" />
      </cc:Work>
    </rdf:RDF>
  </metadata>
  <sodipodi:namedview
     pagecolor="#f5f7fa"
     bordercolor="#666666"
     borderopacity="1"
     objecttolerance="10"
     gridtolerance="10"
     guidetolerance="10"
     inkscape:pageopacity="0"
     inkscape:pageshadow="2"
     inkscape:window-width="1377"
     inkscape:window-height="886"
     id="namedview75"
     showgrid="false"
     inkscape:zoom="6.2890624"
     inkscape:cx="47.622361"
     inkscape:cy="45.396274"
     inkscape:window-x="264"
     inkscape:window-y="84"
     inkscape:window-maximized="0"
     inkscape:current-layer="g877"
     inkscape:document-rotation="0"
     inkscape:pagecheckerboard="0"
     inkscape:showpageshadow="2"
     inkscape:deskcolor="#d1d1d1" />
  <defs
     id="defs29" />
  <circle
     cx="32.516094"
     cy="31.877844"
     r="0"
     fill="url(#b)"
     stroke-width="1.5715"
     id="circle41"
     style="fill:url(#b)" />
  <g
     aria-label="GZ"
     transform="matrix(1.2212657,0,0,0.81882264,0.4960938,-0.1661539)"
     id="text93"
     style="font-weight:bold;font-size:11.5263px;line-height:1.25;font-family:sans-serif;-inkscape-font-specification:'sans-serif Bold';fill:#f2f2f2;stroke-width:0.288159" />
  <g
     id="g877"
     transform="matrix(1.1,0,0,1.1,-3.1845928,-3.2065454)">
    <rect
       x="8.3496294"
       y="8.369586"
       width="47.272728"
       height="47.272728"
       rx="9.8825235"
       ry="9.6485243"
       fill="url(#linearGradient862)"
       stroke-width="3.0541"
       id="rect35-7-3"
       style="fill:#414141;fill-opacity:1;stroke:#dfdfdf;stroke-width:2.04545;stroke-dasharray:none;stroke-opacity:1" />
    <path
       id="path26"
       style="fill:#dfdfdf;stroke:none;stroke-width:0.270332;stroke-dasharray:none;stroke-opacity:1;fill-opacity:1"
       d="m 32.976235,15.383271 c -0.510164,0 -0.598532,0.01513 -0.871187,0.149029 -0.225306,0.110646 -1.234176,0.984877 -3.91971,3.396305 -1.989038,1.786023 -3.685965,3.336831 -3.770839,3.446348 -0.309557,0.39944 -0.351933,0.586925 -0.795493,3.523774 -0.235829,1.561437 -0.42878,2.878072 -0.428827,2.925776 -4.7e-5,0.04852 0.315632,0.321266 0.716337,0.618926 1.274429,0.946699 2.491124,2.269147 3.199282,3.47735 0.349271,0.595902 0.741971,1.484552 0.92296,2.088739 0.08017,0.267631 0.15596,0.519819 0.168385,0.560386 0.01381,0.04512 0.06952,0.06334 0.143517,0.04705 1.586512,-0.34929 2.637089,-0.48314 3.864947,-0.49256 0.483116,-0.0036 0.878502,-0.01165 0.878583,-0.01761 8.1e-5,-0.006 -0.16938,-0.516913 -0.376581,-1.135407 -1.279716,-3.819966 -1.423338,-6.630736 -0.478712,-9.367774 0.118396,-0.343049 0.613249,-1.438769 1.099684,-2.434948 1.274439,-2.60995 1.409951,-3.061406 1.363276,-4.541626 -0.02921,-0.926578 -0.155254,-1.534989 -0.363834,-1.757012 -0.06476,-0.06894 -0.26759,-0.206673 -0.450859,-0.30608 -0.317675,-0.172315 -0.359701,-0.18066 -0.900929,-0.18066 z m 2.186779,1.502861 -0.0021,0.924691 c -0.0034,1.510612 -0.133036,1.929525 -1.399313,4.520069 -0.501342,1.025641 -0.981318,2.089432 -1.106608,2.452728 -0.910224,2.639309 -0.747678,5.437914 0.533318,9.183338 0.149691,0.43767 0.315206,0.886485 0.367926,0.997396 l 0.09584,0.201745 0.567782,0.09961 c 2.932542,0.514664 5.276478,2.465149 7.114428,5.920324 0.143864,0.270452 0.277197,0.486828 0.299626,0.486738 4.2e-5,-7e-6 4.27e-4,-4e-6 5.85e-4,0 h 2.8e-4 c 7.9e-5,-2.3e-5 5.83e-4,-2.8e-4 5.83e-4,-2.8e-4 0.08104,-0.03006 1.909558,-2.867968 2.769826,-4.298809 0.201476,-0.335102 0.38815,-0.685342 0.41482,-0.778339 0.0842,-0.293577 -0.02102,-0.549581 -0.482802,-1.175064 -0.642242,-0.869496 -1.305349,-1.901126 -1.822111,-2.833795 -0.811321,-1.464337 -1.105453,-2.269679 -1.348467,-3.693259 -0.155835,-0.912874 -0.295489,-2.424783 -0.296481,-3.210297 -0.0011,-0.81796 -0.0822,-1.422116 -0.235108,-1.748354 -0.07359,-0.156792 -1.253833,-1.702037 -2.691878,-3.524402 -1.40863,-1.784799 -2.610283,-3.307897 -2.670563,-3.384617 z M 23.060037,29.421397 c -0.0028,2.06e-4 -0.0047,0.0011 -0.0061,0.0023 -0.04617,0.04615 -3.720233,8.245189 -3.823403,8.532297 -0.08318,0.23146 -0.101514,0.390485 -0.08293,0.717439 0.04387,0.77206 0.01526,0.736357 3.334933,4.151827 1.617999,1.664697 3.046835,3.123599 3.175203,3.241927 0.12837,0.118325 0.247436,0.215123 0.264692,0.215123 0.08973,0 0.911904,-1.964964 1.26681,-3.027751 0.27073,-0.810716 0.611307,-2.191898 0.733332,-2.973618 0.120109,-0.769448 0.164054,-2.4274 0.08325,-3.139481 -0.273035,-2.406347 -1.233418,-4.368514 -3.002228,-6.13384 -0.56611,-0.564995 -1.829283,-1.593661 -1.94349,-1.586264 z m 9.267373,6.182813 c -0.784951,0 -1.456548,0.02773 -1.757166,0.07255 -0.71723,0.106922 -2.156883,0.389278 -2.199999,0.431501 -0.02053,0.02011 -0.0047,0.269668 0.03525,0.554564 0.297898,2.125343 0.02151,4.401104 -0.842546,6.938333 -0.282864,0.830604 -0.751058,1.9848 -1.02635,2.530156 -0.0861,0.170577 -0.15658,0.32362 -0.15658,0.340071 0,0.08826 0.436667,0.144059 2.093459,0.267364 1.004557,0.07477 2.057556,0.162717 2.340055,0.195454 1.060198,0.122845 2.312018,0.43039 4.971712,1.221642 0.756915,0.225181 1.486802,0.427522 1.621986,0.449598 0.705809,0.115277 1.429877,-0.172911 2.019968,-0.80399 0.388609,-0.415594 0.562211,-0.838162 0.71744,-1.74599 0.225732,-1.320158 0.540381,-2.389612 0.987952,-3.358379 l 0.209612,-0.453694 -0.319455,-0.633876 c -1.442044,-2.861696 -3.39448,-4.783522 -5.655312,-5.566718 -1.029168,-0.356525 -1.597475,-0.438586 -3.04002,-0.438586 z" />
  </g>
</svg>
