<?xml version="1.0" encoding="UTF-8" standalone="no"?>
<svg
   width="64"
   height="64"
   version="1.1"
   id="svg73"
   sodipodi:docname="audacious.svg"
   inkscape:version="1.4.2 (ebf0e940d0, 2025-05-08)"
   xmlns:inkscape="http://www.inkscape.org/namespaces/inkscape"
   xmlns:sodipodi="http://sodipodi.sourceforge.net/DTD/sodipodi-0.dtd"
   xmlns="http://www.w3.org/2000/svg"
   xmlns:svg="http://www.w3.org/2000/svg"
   xmlns:rdf="http://www.w3.org/1999/02/22-rdf-syntax-ns#"
   xmlns:cc="http://creativecommons.org/ns#"
   xmlns:dc="http://purl.org/dc/elements/1.1/">
  <metadata
     id="metadata77">
    <rdf:RDF>
      <cc:Work
         rdf:about="">
        <dc:format>image/svg+xml</dc:format>
        <dc:type
           rdf:resource="http://purl.org/dc/dcmitype/StillImage" />
      </cc:Work>
    </rdf:RDF>
  </metadata>
  <sodipodi:namedview
     pagecolor="#f5f7fa"
     bordercolor="#666666"
     borderopacity="1"
     objecttolerance="10"
     gridtolerance="10"
     guidetolerance="10"
     inkscape:pageopacity="0"
     inkscape:pageshadow="2"
     inkscape:window-width="1377"
     inkscape:window-height="886"
     id="namedview75"
     showgrid="false"
     inkscape:zoom="6.2890624"
     inkscape:cx="26.474535"
     inkscape:cy="38.877019"
     inkscape:window-x="0"
     inkscape:window-y="75"
     inkscape:window-maximized="0"
     inkscape:current-layer="g877"
     inkscape:document-rotation="0"
     inkscape:pagecheckerboard="0"
     inkscape:showpageshadow="2"
     inkscape:deskcolor="#d1d1d1" />
  <defs
     id="defs29" />
  <circle
     cx="32.516094"
     cy="31.877844"
     r="0"
     fill="url(#b)"
     stroke-width="1.5715"
     id="circle41"
     style="fill:url(#b)" />
  <g
     aria-label="GZ"
     transform="matrix(1.2212657,0,0,0.81882264,0.4960938,-0.1661539)"
     id="text93"
     style="font-weight:bold;font-size:11.5263px;line-height:1.25;font-family:sans-serif;-inkscape-font-specification:'sans-serif Bold';fill:#f2f2f2;stroke-width:0.288159" />
  <g
     id="g877"
     transform="matrix(1.1,0,0,1.1,-3.1845928,-3.2065454)">
    <rect
       x="8.3496294"
       y="8.369586"
       width="47.272728"
       height="47.272728"
       rx="9.8825235"
       ry="9.6485243"
       fill="url(#linearGradient862)"
       stroke-width="3.0541"
       id="rect35-7-3"
       style="fill:#414141;fill-opacity:1;stroke:#dfdfdf;stroke-width:2.04545;stroke-dasharray:none;stroke-opacity:1" />
    <path
       id="path1320"
       style="fill:#dfdfdf;fill-opacity:1;stroke-width:0.155402;stroke-opacity:0.3"
       d="m 36.039349,16.28172 c -2.408662,0 -2.532102,0.01588 -3.962244,0.511174 -0.811966,0.28121 -1.76969,0.683158 -2.128182,0.89263 l -0.652454,0.380169 -1.446187,-0.253019 c -2.487187,-0.43467 -5.568518,-0.09243 -8.011823,0.890061 -1.158528,0.465867 -1.088021,0.753361 0.291551,1.188031 1.448391,0.456355 2.685965,1.22216 3.687389,2.281019 l 0.81043,0.856667 -0.294117,0.585667 c -0.754053,1.5019 -1.271502,3.808127 -1.263809,5.637045 0.01236,2.938817 1.2723,6.259449 3.17108,8.361169 l 0.55998,0.62163 9.0483,-9.086832 c 4.976415,-4.997349 9.067926,-9.140055 9.091968,-9.206275 C 45.018144,19.729 43.673807,18.600899 42.558747,17.94111 41.964803,17.589669 40.814841,17.072169 40.002874,16.791611 38.573838,16.297836 38.446145,16.28172 36.039349,16.28172 Z m 0.870792,3.549965 c 0.22228,-6.13e-4 0.428158,0.02383 0.610072,0.07834 1.737732,0.520638 0.726097,2.8299 -1.78012,4.063707 -1.502704,0.739778 -3.07612,0.777258 -3.544829,0.08478 -0.189787,-0.280403 -0.133082,-1.166181 0.104034,-1.624711 0.687329,-1.329147 3.054893,-2.597827 4.610843,-2.602109 z m 5.656311,10.471369 -1.398665,1.077576 c -5.113741,3.940003 -12.11012,8.499316 -17.948898,11.697928 -0.982905,0.538459 -1.80044,0.989714 -1.817365,1.0018 -0.01693,0.01209 0.370746,0.347433 0.861803,0.744928 1.625643,1.315907 4.035119,2.424319 5.965842,2.745956 4.517529,0.752568 9.544741,-1.219596 12.259194,-4.809918 1.18708,-1.570116 1.583648,-2.300902 2.185976,-4.030316 0.503884,-1.446908 0.513091,-1.527538 0.503469,-4.040588 -0.0081,-2.100429 -0.06419,-2.728621 -0.310815,-3.475472 z" />
  </g>
</svg>
