<?xml version="1.0" encoding="UTF-8" standalone="no"?>
<svg
   width="64"
   height="64"
   version="1.1"
   id="svg73"
   sodipodi:docname="gnome-window-manager.svg"
   inkscape:version="1.3.2 (091e20ef0f, 2023-11-25)"
   xmlns:inkscape="http://www.inkscape.org/namespaces/inkscape"
   xmlns:sodipodi="http://sodipodi.sourceforge.net/DTD/sodipodi-0.dtd"
   xmlns:xlink="http://www.w3.org/1999/xlink"
   xmlns="http://www.w3.org/2000/svg"
   xmlns:svg="http://www.w3.org/2000/svg"
   xmlns:rdf="http://www.w3.org/1999/02/22-rdf-syntax-ns#"
   xmlns:cc="http://creativecommons.org/ns#"
   xmlns:dc="http://purl.org/dc/elements/1.1/">
  <metadata
     id="metadata77">
    <rdf:RDF>
      <cc:Work
         rdf:about="">
        <dc:format>image/svg+xml</dc:format>
        <dc:type
           rdf:resource="http://purl.org/dc/dcmitype/StillImage" />
      </cc:Work>
    </rdf:RDF>
  </metadata>
  <sodipodi:namedview
     pagecolor="#f5f7fa"
     bordercolor="#666666"
     borderopacity="1"
     objecttolerance="10"
     gridtolerance="10"
     guidetolerance="10"
     inkscape:pageopacity="0"
     inkscape:pageshadow="2"
     inkscape:window-width="1226"
     inkscape:window-height="661"
     id="namedview75"
     showgrid="false"
     inkscape:zoom="6.2890624"
     inkscape:cx="4.2931678"
     inkscape:cy="30.926709"
     inkscape:window-x="35"
     inkscape:window-y="32"
     inkscape:window-maximized="0"
     inkscape:current-layer="g877"
     inkscape:document-rotation="0"
     inkscape:pagecheckerboard="0"
     inkscape:showpageshadow="2"
     inkscape:deskcolor="#d1d1d1" />
  <defs
     id="defs29">
    <linearGradient
       id="b"
       x1="399.57"
       x2="399.57"
       y1="545.8"
       y2="517.8"
       gradientTransform="matrix(2.1429,0,0,2.1429,-825.86391,-1107.6662)"
       gradientUnits="userSpaceOnUse">
      <stop
         stop-color="#3889e9"
         offset="0"
         id="stop2" />
      <stop
         stop-color="#5ea5fb"
         offset="1"
         id="stop4" />
    </linearGradient>
    <linearGradient
       id="d"
       x2="1"
       gradientTransform="matrix(14.905727,-4.7106182,4.7106182,14.905727,322.04962,998.26962)"
       gradientUnits="userSpaceOnUse">
      <stop
         stop-color="#fafafa"
         offset="0"
         id="stop7" />
      <stop
         stop-color="#aaa"
         offset="1"
         id="stop8" />
    </linearGradient>
    <linearGradient
       id="e"
       x2="1"
       gradientTransform="matrix(21.439909,0,0,21.439909,26.63554,1159.7788)"
       gradientUnits="userSpaceOnUse">
      <stop
         stop-color="#f0f0f0"
         offset="0"
         id="stop9" />
      <stop
         stop-color="#b7f1ff"
         offset="1"
         id="stop10" />
    </linearGradient>
    <linearGradient
       id="c"
       x2="1"
       gradientTransform="matrix(12.1408,0,0,12.1408,23.2412,24)"
       gradientUnits="userSpaceOnUse"
       xlink:href="#b-3" />
    <linearGradient
       id="b-3">
      <stop
         stop-color="#2e3e46"
         offset="0"
         id="stop3" />
      <stop
         stop-color="#47606a"
         offset="1"
         id="stop4-6" />
    </linearGradient>
    <linearGradient
       id="d-7"
       x2="1"
       gradientTransform="matrix(12.1408,0,0,12.1408,12.618,24)"
       gradientUnits="userSpaceOnUse"
       xlink:href="#b-3" />
    <linearGradient
       id="e-3"
       x2="1"
       gradientTransform="matrix(22.764,0,0,22.764,12.618,24.7782)"
       gradientUnits="userSpaceOnUse">
      <stop
         stop-color="#ff9300"
         offset="0"
         id="stop5" />
      <stop
         stop-color="#ffd702"
         offset="1"
         id="stop6" />
    </linearGradient>
  </defs>
  <circle
     cx="32.516094"
     cy="31.877844"
     r="0"
     fill="url(#b)"
     stroke-width="1.5715"
     id="circle41"
     style="fill:url(#b)" />
  <g
     aria-label="GZ"
     transform="matrix(1.2212657,0,0,0.81882264,0.4960938,-0.1661539)"
     id="text93"
     style="font-weight:bold;font-size:11.5263px;line-height:1.25;font-family:sans-serif;-inkscape-font-specification:'sans-serif Bold';fill:#f2f2f2;stroke-width:0.288159" />
  <g
     id="g877"
     transform="matrix(1.1,0,0,1.1,-3.1845928,-3.2065454)">
    <rect
       x="6.3010068"
       y="5.4939413"
       width="51.635597"
       height="53.148327"
       rx="10.980581"
       ry="10.720582"
       fill="url(#linearGradient862)"
       stroke-width="3.0541"
       id="rect35-7-3"
       style="fill:#414141;fill-opacity:1;stroke:#dfdfdf;stroke-width:2.27272727;stroke-dasharray:none;stroke-opacity:1" />
    <path
       style="color:#000000;clip-rule:nonzero;display:inline;overflow:visible;visibility:visible;isolation:auto;mix-blend-mode:normal;color-interpolation:sRGB;color-interpolation-filters:linearRGB;solid-color:#000000;solid-opacity:1;fill:#dfdfdf;fill-opacity:1;fill-rule:nonzero;stroke:none;stroke-width:1.31769;stroke-linecap:butt;stroke-linejoin:miter;stroke-miterlimit:4;stroke-dasharray:none;stroke-dashoffset:0;stroke-opacity:0.3;marker:none;color-rendering:auto;image-rendering:auto;shape-rendering:auto;text-rendering:auto;enable-background:accumulate"
       d="m 29.240565,11.97202 c -0.51163,0 -0.937989,2.035601 -1.188257,4.944762 a 15.636079,16.106936 0 0 0 -3.778534,1.635859 C 22.091053,16.668207 20.38603,15.530694 20.023273,15.904377 l -4.02285,4.143992 c -0.36276,0.373677 0.741506,2.130048 2.570847,4.378498 a 15.636079,16.106936 0 0 0 -1.57416,3.89232 c -2.832023,0.257557 -4.814088,0.696115 -4.814088,1.224037 v 5.857062 c 0,0.527037 1.976094,0.966238 4.800211,1.224041 a 15.636079,16.106936 0 0 0 1.582485,3.900892 c -1.825186,2.244427 -2.927617,3.996691 -2.565295,4.369924 l 4.02285,4.143989 c 0.361978,0.372909 2.060878,-0.760032 4.236623,-2.636821 a 15.636079,16.106936 0 0 0 3.792412,1.610115 c 0.250027,2.917315 0.675771,4.959063 1.188257,4.959063 h 5.685842 c 0.511632,0 0.937991,-2.035601 1.188257,-4.944758 a 15.636079,16.106936 0 0 0 3.778534,-1.635862 c 2.182721,1.884431 3.887742,3.021943 4.250502,2.648263 l 4.02285,-4.143989 c 0.362757,-0.373641 -0.741508,-2.130051 -2.570849,-4.378501 a 15.636079,16.106936 0 0 0 1.574153,-3.892315 c 2.832034,-0.257561 4.814095,-0.696118 4.814095,-1.224041 v -5.857062 c 0,-0.527036 -1.976099,-0.966237 -4.800205,-1.224037 A 15.636079,16.106936 0 0 0 45.601253,24.41829 c 1.825185,-2.244426 2.927618,-3.996688 2.565297,-4.369921 L 44.1437,15.904377 c -0.362002,-0.372879 -2.060875,0.760036 -4.236626,2.636825 a 15.636079,16.106936 0 0 0 -3.79241,-1.610123 c -0.250028,-2.917307 -0.675768,-4.959056 -1.188257,-4.959056 z m 2.842921,13.1784 a 7.1073091,7.3213345 0 0 1 7.10731,7.321336 7.1073091,7.3213345 0 0 1 -7.10731,7.321333 7.1073091,7.3213345 0 0 1 -7.10731,-7.321333 7.1073091,7.3213345 0 0 1 7.10731,-7.321336 z"
       id="path4690"
       inkscape:connector-curvature="0" />
  </g>
</svg>
