<?xml version="1.0" encoding="UTF-8" standalone="no"?>
<svg
   width="64"
   height="64"
   version="1.1"
   id="svg73"
   sodipodi:docname="Logo.svg"
   inkscape:version="1.3.2 (091e20ef0f, 2023-11-25)"
   xmlns:inkscape="http://www.inkscape.org/namespaces/inkscape"
   xmlns:sodipodi="http://sodipodi.sourceforge.net/DTD/sodipodi-0.dtd"
   xmlns="http://www.w3.org/2000/svg"
   xmlns:svg="http://www.w3.org/2000/svg"
   xmlns:rdf="http://www.w3.org/1999/02/22-rdf-syntax-ns#"
   xmlns:cc="http://creativecommons.org/ns#"
   xmlns:dc="http://purl.org/dc/elements/1.1/">
  <metadata
     id="metadata77">
    <rdf:RDF>
      <cc:Work
         rdf:about="">
        <dc:format>image/svg+xml</dc:format>
        <dc:type
           rdf:resource="http://purl.org/dc/dcmitype/StillImage" />
      </cc:Work>
    </rdf:RDF>
  </metadata>
  <sodipodi:namedview
     pagecolor="#f5f7fa"
     bordercolor="#666666"
     borderopacity="1"
     objecttolerance="10"
     gridtolerance="10"
     guidetolerance="10"
     inkscape:pageopacity="0"
     inkscape:pageshadow="2"
     inkscape:window-width="1377"
     inkscape:window-height="886"
     id="namedview75"
     showgrid="false"
     inkscape:zoom="4.4470387"
     inkscape:cx="4.4973749"
     inkscape:cy="46.885133"
     inkscape:window-x="181"
     inkscape:window-y="77"
     inkscape:window-maximized="0"
     inkscape:current-layer="g877"
     inkscape:document-rotation="0"
     inkscape:pagecheckerboard="0"
     inkscape:showpageshadow="2"
     inkscape:deskcolor="#d1d1d1" />
  <defs
     id="defs29">
    <linearGradient
       id="b"
       x1="399.57"
       x2="399.57"
       y1="545.8"
       y2="517.8"
       gradientTransform="matrix(2.1429,0,0,2.1429,-825.86391,-1107.6662)"
       gradientUnits="userSpaceOnUse">
      <stop
         stop-color="#3889e9"
         offset="0"
         id="stop2" />
      <stop
         stop-color="#5ea5fb"
         offset="1"
         id="stop4" />
    </linearGradient>
    <linearGradient
       id="d"
       x2="1"
       gradientTransform="matrix(14.905727,-4.7106182,4.7106182,14.905727,322.04962,998.26962)"
       gradientUnits="userSpaceOnUse">
      <stop
         stop-color="#fafafa"
         offset="0"
         id="stop7" />
      <stop
         stop-color="#aaa"
         offset="1"
         id="stop8" />
    </linearGradient>
    <linearGradient
       id="e"
       x2="1"
       gradientTransform="matrix(21.439909,0,0,21.439909,26.63554,1159.7788)"
       gradientUnits="userSpaceOnUse">
      <stop
         stop-color="#f0f0f0"
         offset="0"
         id="stop9" />
      <stop
         stop-color="#b7f1ff"
         offset="1"
         id="stop10" />
    </linearGradient>
    <linearGradient
       id="b-3"
       x2="1"
       gradientTransform="matrix(-1.678415,-40.879575,40.879575,-1.678415,32.36829,51.881224)"
       gradientUnits="userSpaceOnUse">
      <stop
         stop-color="#00cafe"
         offset="0"
         id="stop3" />
      <stop
         stop-color="#1460f3"
         offset="1"
         id="stop4-6" />
    </linearGradient>
  </defs>
  <circle
     cx="32.516094"
     cy="31.877844"
     r="0"
     fill="url(#b)"
     stroke-width="1.5715"
     id="circle41"
     style="fill:url(#b)" />
  <g
     aria-label="GZ"
     transform="matrix(1.2212657,0,0,0.81882264,0.4960938,-0.1661539)"
     id="text93"
     style="font-weight:bold;font-size:11.5263px;line-height:1.25;font-family:sans-serif;-inkscape-font-specification:'sans-serif Bold';fill:#f2f2f2;stroke-width:0.288159" />
  <g
     id="g877"
     transform="matrix(1.1,0,0,1.1,-3.1845928,-3.2065454)">
    <rect
       x="6.3010068"
       y="5.4939413"
       width="51.635597"
       height="53.148327"
       rx="10.980581"
       ry="10.720582"
       fill="url(#linearGradient862)"
       stroke-width="3.0541"
       id="rect35-7-3"
       style="fill:#414141;fill-opacity:1;stroke:#dfdfdf;stroke-width:2.27272727;stroke-dasharray:none;stroke-opacity:1" />
    <path
       d="m 49.698988,42.859734 c -0.611994,1.065864 -1.723246,1.65443 -2.868172,1.65443 -0.56075,0 -1.128821,-0.142017 -1.65004,-0.44362 l -9.894388,-5.714382 v 11.428765 c 0,1.827196 -1.48167,3.308866 -3.308866,3.308866 -1.825733,0 -3.307402,-1.48167 -3.307402,-3.308866 V 38.354698 l -9.900245,5.715846 c -0.519755,0.301603 -1.08929,0.44362 -1.65004,0.44362 -1.143462,0 -2.256178,-0.588566 -2.868172,-1.65443 -0.913599,-1.582695 -0.371882,-3.606079 1.210811,-4.515287 l 9.895851,-5.715846 -9.89878,-5.717311 c -1.582692,-0.913598 -2.124409,-2.934054 -1.21081,-4.516746 0.912135,-1.582695 2.936984,-2.125873 4.518213,-1.210811 l 9.897315,5.71438 V 15.467887 c 0,-1.827199 1.483134,-3.308869 3.308867,-3.308869 1.825732,0 3.307401,1.48167 3.307401,3.308869 v 11.428762 l 9.894388,-5.714382 c 1.581228,-0.915061 3.611936,-0.371882 4.519677,1.210813 0.912135,1.582692 0.371881,3.606078 -1.210811,4.516746 l -9.892924,5.71731 9.894388,5.714385 c 1.582692,0.912134 2.127337,2.935518 1.213739,4.518213 z"
       fill="url(#b)"
       fill-rule="nonzero"
       id="path4"
       style="fill:#dfdfdf;stroke-width:1.4641;fill-opacity:1" />
  </g>
</svg>
