<?xml version="1.0" encoding="UTF-8" standalone="no"?>
<svg
   width="64"
   height="64"
   version="1.1"
   id="svg73"
   sodipodi:docname="distributor-logo.svg"
   inkscape:version="1.3.2 (091e20ef0f, 2023-11-25)"
   xmlns:inkscape="http://www.inkscape.org/namespaces/inkscape"
   xmlns:sodipodi="http://sodipodi.sourceforge.net/DTD/sodipodi-0.dtd"
   xmlns="http://www.w3.org/2000/svg"
   xmlns:svg="http://www.w3.org/2000/svg"
   xmlns:rdf="http://www.w3.org/1999/02/22-rdf-syntax-ns#"
   xmlns:cc="http://creativecommons.org/ns#"
   xmlns:dc="http://purl.org/dc/elements/1.1/">
  <metadata
     id="metadata77">
    <rdf:RDF>
      <cc:Work
         rdf:about="">
        <dc:format>image/svg+xml</dc:format>
        <dc:type
           rdf:resource="http://purl.org/dc/dcmitype/StillImage" />
      </cc:Work>
    </rdf:RDF>
  </metadata>
  <sodipodi:namedview
     pagecolor="#f5f7fa"
     bordercolor="#666666"
     borderopacity="1"
     objecttolerance="10"
     gridtolerance="10"
     guidetolerance="10"
     inkscape:pageopacity="0"
     inkscape:pageshadow="2"
     inkscape:window-width="1377"
     inkscape:window-height="886"
     id="namedview75"
     showgrid="false"
     inkscape:zoom="4.4470387"
     inkscape:cx="47.784608"
     inkscape:cy="14.054296"
     inkscape:window-x="351"
     inkscape:window-y="95"
     inkscape:window-maximized="0"
     inkscape:current-layer="g877"
     inkscape:document-rotation="0"
     inkscape:pagecheckerboard="0"
     inkscape:showpageshadow="2"
     inkscape:deskcolor="#d1d1d1" />
  <defs
     id="defs29">
    <linearGradient
       id="b"
       x1="399.57"
       x2="399.57"
       y1="545.8"
       y2="517.8"
       gradientTransform="matrix(2.1429,0,0,2.1429,-825.86391,-1107.6662)"
       gradientUnits="userSpaceOnUse">
      <stop
         stop-color="#3889e9"
         offset="0"
         id="stop2" />
      <stop
         stop-color="#5ea5fb"
         offset="1"
         id="stop4" />
    </linearGradient>
  </defs>
  <circle
     cx="32.516094"
     cy="31.877844"
     r="0"
     fill="url(#b)"
     stroke-width="1.5715"
     id="circle41"
     style="fill:url(#b)" />
  <g
     aria-label="GZ"
     transform="matrix(1.2212657,0,0,0.81882264,0.4960938,-0.1661539)"
     id="text93"
     style="font-weight:bold;font-size:11.5263px;line-height:1.25;font-family:sans-serif;-inkscape-font-specification:'sans-serif Bold';fill:#f2f2f2;stroke-width:0.288159" />
  <g
     id="g877"
     transform="matrix(1.1,0,0,1.1,-3.1845928,-3.2065454)">
    <rect
       x="6.3010068"
       y="5.4939413"
       width="51.635597"
       height="53.148327"
       rx="10.980581"
       ry="10.720582"
       fill="url(#linearGradient862)"
       stroke-width="3.0541"
       id="rect35-7-3"
       style="fill:#414141;fill-opacity:1;stroke:#dfdfdf;stroke-width:2.27272727;stroke-dasharray:none;stroke-opacity:1" />
    <path
       id="path7"
       style="fill:#dfdfdf;stroke:none;stroke-width:0.0911608;stroke-opacity:1;fill-opacity:1"
       d="m 45.922795,18.145358 c -0.528708,0 -1.024468,0.25088 -1.31625,0.666036 -0.07411,0.105457 -0.538569,1.256794 -1.072617,2.657813 l -0.94131,2.471132 -1.653221,0.726153 c -0.908629,0.399358 -1.667517,0.726187 -1.686446,0.726153 -0.01893,-3.6e-5 -0.07163,-0.128119 -0.11707,-0.284766 -0.120015,-0.413832 -0.538749,-1.239272 -0.816328,-1.607344 -0.333595,-0.442346 -0.764561,-0.890821 -1.16754,-1.215002 -0.303647,-0.24427 -0.358861,-0.312754 -0.490428,-0.615408 -0.323272,-0.743635 -0.852207,-1.361185 -1.578869,-1.839903 -2.048116,-1.349284 -4.998762,-1.087314 -6.677753,0.591679 -0.371762,0.371763 -0.642662,0.770882 -0.854298,1.257715 -0.138087,0.317649 -0.184013,0.374043 -0.517323,0.640723 -0.906213,0.72506 -1.737311,1.933036 -1.972793,2.868222 -0.0401,0.159224 -0.07106,0.206077 -0.126564,0.189845 -0.173754,-0.05082 -3.223517,-1.412038 -3.271639,-1.460214 -0.02922,-0.02926 -0.46494,-1.138514 -0.969786,-2.466387 -0.504846,-1.327874 -0.959167,-2.481717 -1.009336,-2.562893 -0.149983,-0.242677 -0.529003,-0.55016 -0.806835,-0.65496 -0.347653,-0.131137 -0.881873,-0.108625 -1.216582,0.05063 -0.305578,0.145393 -0.63971,0.487394 -0.787852,0.806836 -0.1001,0.215834 -0.121551,0.32545 -0.120235,0.626484 0.0015,0.363613 0.0042,0.372411 0.993515,2.963146 0.54569,1.428941 1.044878,2.730586 1.109005,2.893534 0.143734,0.365247 0.364969,0.677107 0.593261,0.835312 0.125468,0.08694 2.693479,1.251303 3.55166,1.610509 0.02856,0.01195 0.206337,-0.209955 0.395508,-0.493594 0.743324,-1.114519 1.544504,-1.988827 2.062969,-2.248067 0.21705,-0.108526 0.34286,-0.137497 0.648634,-0.151874 0.605431,-0.02847 0.586545,-0.04137 3.472559,2.425253 2.473022,2.113647 2.532307,2.159419 2.621424,2.080372 0.428878,-0.380414 4.86923,-4.150319 5.051426,-4.288887 0.420139,-0.319529 0.892375,-0.434601 1.265626,-0.308496 0.275631,0.09313 0.553498,0.335654 1.120077,0.979278 0.631933,0.71786 0.904759,1.069942 1.26879,1.634237 0.197643,0.30637 0.272595,0.388146 0.332226,0.36545 0.457757,-0.174259 3.360191,-1.482348 3.502617,-1.578867 0.219472,-0.148731 0.395909,-0.350011 0.51416,-0.582189 0.04619,-0.09066 0.56362,-1.414942 1.148556,-2.944158 l 1.063125,-2.781216 v -0.409749 c 7.49e-4,-0.357357 -0.01438,-0.443263 -0.12498,-0.669199 -0.264181,-0.53961 -0.835575,-0.90334 -1.419083,-0.90334 z m -11.735508,3.289044 c 0.421559,0.02065 0.901672,0.263914 1.306759,0.697675 1.009873,1.081363 1.180266,2.776528 0.327478,3.25582 -0.200279,0.112564 -0.573867,0.158783 -0.805252,0.09967 -0.317978,-0.08123 -0.679713,-0.303188 -0.97295,-0.596426 -0.996508,-0.996507 -1.257327,-2.62034 -0.52207,-3.246327 0.182321,-0.155229 0.413098,-0.222803 0.666035,-0.210412 z m -4.084804,0.02056 c 0.474291,9.8e-4 0.732663,0.173751 0.942889,0.632812 0.08777,0.191663 0.104324,0.300112 0.101255,0.683438 -0.0065,0.793596 -0.306481,1.488669 -0.906505,2.099355 -0.219041,0.222931 -0.415365,0.372336 -0.624902,0.474608 -0.327048,0.159628 -0.760673,0.22023 -1.007754,0.140801 -0.401574,-0.129089 -0.672319,-0.567505 -0.705585,-1.142225 -0.06288,-1.086273 0.665184,-2.324557 1.631073,-2.773302 0.194321,-0.09028 0.322214,-0.115985 0.569532,-0.115487 z m 8.044628,4.375897 c -0.04314,0.005 -0.09237,0.02982 -0.178769,0.07594 -0.104368,0.0557 -1.452404,1.177156 -2.994786,2.493281 -1.54238,1.316121 -2.830614,2.393615 -2.863476,2.393615 -0.03287,0 -1.316739,-1.072539 -2.852402,-2.382542 -1.982737,-1.691368 -2.842262,-2.395364 -2.963145,-2.431581 -0.250647,-0.0751 -0.591706,0.09397 -0.976113,0.484102 -0.360962,0.366328 -1.106524,1.35114 -1.449141,1.914258 -1.021885,1.679565 -1.634482,3.59322 -1.816172,5.674746 -0.06465,0.740564 -0.02899,2.169373 0.07277,2.910936 0.421059,3.068527 1.770312,5.891075 3.781055,7.910158 1.570701,1.577219 3.497872,2.556458 5.426368,2.75748 1.053829,0.109846 2.164204,-0.01582 3.236834,-0.367031 0.540329,-0.176916 1.582957,-0.69213 2.096193,-1.034649 3.349461,-2.235311 5.53711,-6.615244 5.53711,-11.08371 0,-2.834049 -0.876256,-5.554739 -2.469552,-7.664942 -0.442138,-0.585584 -1.290176,-1.528303 -1.44914,-1.610507 -0.05785,-0.02991 -0.0945,-0.0444 -0.137637,-0.03955 z m 4.162325,4.685977 c -0.005,0.0034 0.05983,0.223706 0.143963,0.488848 0.184873,0.582551 0.408167,1.627544 0.480939,2.249649 0.07657,0.654632 0.06447,0.636312 0.484101,0.704003 0.195779,0.03159 0.396799,0.07378 0.447715,0.09333 0.05092,0.01956 0.842614,0.726031 1.757637,1.570957 0.915022,0.844927 1.741118,1.590045 1.836739,1.654805 0.09562,0.06476 0.279745,0.156046 0.409745,0.202499 0.715741,0.255766 1.588939,-0.155734 1.934825,-0.911249 0.223267,-0.487677 0.134007,-1.147634 -0.215158,-1.591524 -0.05079,-0.06456 -0.968978,-0.925376 -2.040818,-1.914257 -1.258973,-1.16153 -2.029646,-1.839976 -2.176876,-1.915841 -0.172811,-0.08905 -0.569141,-0.180903 -1.640567,-0.378105 -0.777142,-0.143037 -1.417224,-0.256608 -1.422245,-0.253125 z m -20.480977,0.04113 c -0.137945,0.0094 -0.688096,0.09598 -1.330489,0.210411 -1.068698,0.190393 -1.388389,0.265047 -1.607344,0.371776 -0.217215,0.105886 -0.685962,0.515346 -2.278125,1.990195 -2.339748,2.167356 -2.280084,2.092848 -2.279706,2.836583 1.94e-4,0.38375 0.01417,0.460201 0.12498,0.670782 0.239406,0.454936 0.581156,0.740358 1.033067,0.862206 0.114581,0.0309 0.294361,0.05683 0.398671,0.05854 0.25929,0.0042 0.71244,-0.143229 0.917578,-0.299003 0.142975,-0.10857 2.739933,-2.483975 3.315939,-3.032754 0.167563,-0.159644 0.224568,-0.181524 0.61541,-0.249961 0.236877,-0.04147 0.436774,-0.08133 0.44455,-0.08701 0.0077,-0.0057 0.04388,-0.242098 0.08068,-0.526816 0.114054,-0.882026 0.260174,-1.570891 0.504667,-2.376212 0.06665,-0.219527 0.108988,-0.411499 0.09333,-0.427148 -0.002,-0.002 -0.01351,-0.003 -0.03321,-0.0015 z m -0.526817,6.728379 -0.817909,0.688183 c -1.038431,0.872997 -1.214479,1.04659 -1.355802,1.335235 -0.413902,0.845377 -2.319239,5.081051 -2.361973,5.250761 -0.06851,0.272077 -0.02894,0.71916 0.08859,0.98877 0.170164,0.390342 0.568797,0.750276 0.979277,0.884355 0.115634,0.03777 0.333766,0.05574 0.555294,0.04745 0.311701,-0.01166 0.405517,-0.03484 0.651797,-0.166114 0.498332,-0.265632 0.52726,-0.315791 1.718086,-2.928339 0.933189,-2.047317 1.112183,-2.405296 1.262461,-2.542323 L 22.19549,40.684539 21.972424,40.02325 c -0.255987,-0.756484 -0.43189,-1.430776 -0.572695,-2.200597 z m 21.613712,0.0095 c -0.0064,0.0085 -0.04852,0.231 -0.09334,0.493594 -0.114059,0.668366 -0.34432,1.557227 -0.590097,2.279709 l -0.208827,0.613827 0.181933,0.159786 c 0.160443,0.141466 0.300961,0.422369 1.205506,2.404686 0.563324,1.234524 1.05925,2.312011 1.101095,2.393614 0.171491,0.334458 0.456417,0.591824 0.828985,0.7483 0.359355,0.150927 0.874617,0.13509 1.246639,-0.03797 0.695899,-0.323719 1.092386,-1.191415 0.860626,-1.884198 -0.09849,-0.294431 -2.355021,-5.210304 -2.471133,-5.383652 -0.09605,-0.143404 -2.034291,-1.824339 -2.061385,-1.787696 z" />
  </g>
</svg>
