<?xml version="1.0" encoding="UTF-8" standalone="no"?>
<svg
   width="64"
   height="64"
   version="1.1"
   id="svg73"
   sodipodi:docname="distributor-logo.svg"
   inkscape:version="1.3.2 (091e20ef0f, 2023-11-25)"
   xmlns:inkscape="http://www.inkscape.org/namespaces/inkscape"
   xmlns:sodipodi="http://sodipodi.sourceforge.net/DTD/sodipodi-0.dtd"
   xmlns="http://www.w3.org/2000/svg"
   xmlns:svg="http://www.w3.org/2000/svg"
   xmlns:rdf="http://www.w3.org/1999/02/22-rdf-syntax-ns#"
   xmlns:cc="http://creativecommons.org/ns#"
   xmlns:dc="http://purl.org/dc/elements/1.1/">
  <metadata
     id="metadata77">
    <rdf:RDF>
      <cc:Work
         rdf:about="">
        <dc:format>image/svg+xml</dc:format>
        <dc:type
           rdf:resource="http://purl.org/dc/dcmitype/StillImage" />
      </cc:Work>
    </rdf:RDF>
  </metadata>
  <sodipodi:namedview
     pagecolor="#f5f7fa"
     bordercolor="#666666"
     borderopacity="1"
     objecttolerance="10"
     gridtolerance="10"
     guidetolerance="10"
     inkscape:pageopacity="0"
     inkscape:pageshadow="2"
     inkscape:window-width="1377"
     inkscape:window-height="886"
     id="namedview75"
     showgrid="false"
     inkscape:zoom="4.4470387"
     inkscape:cx="47.784608"
     inkscape:cy="14.054296"
     inkscape:window-x="351"
     inkscape:window-y="95"
     inkscape:window-maximized="0"
     inkscape:current-layer="g877"
     inkscape:document-rotation="0"
     inkscape:pagecheckerboard="0"
     inkscape:showpageshadow="2"
     inkscape:deskcolor="#d1d1d1" />
  <defs
     id="defs29">
    <linearGradient
       id="b"
       x1="399.57"
       x2="399.57"
       y1="545.8"
       y2="517.8"
       gradientTransform="matrix(2.1429,0,0,2.1429,-825.86391,-1107.6662)"
       gradientUnits="userSpaceOnUse">
      <stop
         stop-color="#3889e9"
         offset="0"
         id="stop2" />
      <stop
         stop-color="#5ea5fb"
         offset="1"
         id="stop4" />
    </linearGradient>
  </defs>
  <circle
     cx="32.516094"
     cy="31.877844"
     r="0"
     fill="url(#b)"
     stroke-width="1.5715"
     id="circle41"
     style="fill:url(#b)" />
  <g
     aria-label="GZ"
     transform="matrix(1.2212657,0,0,0.81882264,0.4960938,-0.1661539)"
     id="text93"
     style="font-weight:bold;font-size:11.5263px;line-height:1.25;font-family:sans-serif;-inkscape-font-specification:'sans-serif Bold';fill:#f2f2f2;stroke-width:0.288159" />
  <g
     id="g877"
     transform="matrix(1.1,0,0,1.1,-3.1845928,-3.2065454)">
    <rect
       x="6.3010068"
       y="5.4939413"
       width="51.635597"
       height="53.148327"
       rx="10.980581"
       ry="10.720582"
       fill="url(#linearGradient862)"
       stroke-width="3.0541"
       id="rect35-7-3"
       style="fill:#414141;fill-opacity:1;stroke:#dfdfdf;stroke-width:2.27272727;stroke-dasharray:none;stroke-opacity:1" />
    <path
       id="path2"
       style="fill:#dfdfdf;stroke-width:0.247356;fill-opacity:1"
       d="m 29.873142,14.146207 -7.46582,3.708205 c -4.699024,2.33291 -7.607421,3.916623 -7.843945,4.273241 -0.791059,1.19271 -0.342912,1.514705 7.592578,5.47207 4.079434,2.034379 7.782415,3.750964 8.230663,3.813478 2.463485,0.34355 3.209754,0.08942 10.834568,-3.686719 4.013339,-1.987575 7.492016,-3.787819 7.730084,-4.000392 0.238092,-0.212566 0.431837,-0.630181 0.431837,-0.928124 0,-0.297941 -0.193745,-0.715553 -0.431837,-0.928125 -0.238068,-0.212567 -3.750538,-2.036642 -7.805281,-4.054101 l -7.373433,-3.669533 h -1.948633 z m 12.619918,14.691017 -3.95527,1.980858 c -6.243308,3.126252 -7.305437,3.127742 -13.591015,0.03008 l -4.028321,-1.985156 -3.194726,1.602735 c -1.815693,0.909844 -3.315347,1.823731 -3.471875,2.116211 -0.620783,1.159942 0.374494,1.785977 10.890431,6.844921 l 4.823241,2.320313 2.02168,-0.07521 2.019531,-0.07521 7.304682,-3.637305 c 7.913481,-3.941447 8.486852,-4.351269 7.721503,-5.519336 -0.254972,-0.389144 -1.558072,-1.18039 -3.47404,-2.111913 z m -21.720699,10.349024 -3.244141,1.65 c -5.215959,2.652271 -5.233122,2.620333 3.985352,7.235937 3.968602,1.98704 7.493089,3.704841 7.833203,3.817774 0.340112,0.112929 1.509097,0.170805 2.597462,0.128906 l 1.97871,-0.07521 7.049022,-3.527734 c 7.067889,-3.537749 8.164068,-4.203672 8.164068,-4.96289 0,-0.666091 -0.948789,-1.351909 -3.944534,-2.84668 l -2.831642,-1.411524 -4.354878,2.148439 -4.354887,2.148437 h -2.07754 -2.075391 l -4.361327,-2.152729 z" />
  </g>
</svg>
