<?xml version="1.0" encoding="UTF-8" standalone="no"?>
<svg
   width="64"
   height="64"
   version="1.1"
   id="svg73"
   sodipodi:docname="audacious.svg"
   inkscape:version="1.4.2 (ebf0e940d0, 2025-05-08)"
   xmlns:inkscape="http://www.inkscape.org/namespaces/inkscape"
   xmlns:sodipodi="http://sodipodi.sourceforge.net/DTD/sodipodi-0.dtd"
   xmlns="http://www.w3.org/2000/svg"
   xmlns:svg="http://www.w3.org/2000/svg"
   xmlns:rdf="http://www.w3.org/1999/02/22-rdf-syntax-ns#"
   xmlns:cc="http://creativecommons.org/ns#"
   xmlns:dc="http://purl.org/dc/elements/1.1/">
  <metadata
     id="metadata77">
    <rdf:RDF>
      <cc:Work
         rdf:about="">
        <dc:format>image/svg+xml</dc:format>
        <dc:type
           rdf:resource="http://purl.org/dc/dcmitype/StillImage" />
      </cc:Work>
    </rdf:RDF>
  </metadata>
  <sodipodi:namedview
     pagecolor="#f5f7fa"
     bordercolor="#666666"
     borderopacity="1"
     objecttolerance="10"
     gridtolerance="10"
     guidetolerance="10"
     inkscape:pageopacity="0"
     inkscape:pageshadow="2"
     inkscape:window-width="1377"
     inkscape:window-height="886"
     id="namedview75"
     showgrid="false"
     inkscape:zoom="6.2890624"
     inkscape:cx="26.474535"
     inkscape:cy="38.877019"
     inkscape:window-x="0"
     inkscape:window-y="75"
     inkscape:window-maximized="0"
     inkscape:current-layer="g877"
     inkscape:document-rotation="0"
     inkscape:pagecheckerboard="0"
     inkscape:showpageshadow="2"
     inkscape:deskcolor="#d1d1d1" />
  <defs
     id="defs29" />
  <circle
     cx="32.516094"
     cy="31.877844"
     r="0"
     fill="url(#b)"
     stroke-width="1.5715"
     id="circle41"
     style="fill:url(#b)" />
  <g
     aria-label="GZ"
     transform="matrix(1.2212657,0,0,0.81882264,0.4960938,-0.1661539)"
     id="text93"
     style="font-weight:bold;font-size:11.5263px;line-height:1.25;font-family:sans-serif;-inkscape-font-specification:'sans-serif Bold';fill:#f2f2f2;stroke-width:0.288159" />
  <g
     id="g877"
     transform="matrix(1.1,0,0,1.1,-3.1845928,-3.2065454)">
    <rect
       x="8.3496294"
       y="8.369586"
       width="47.272728"
       height="47.272728"
       rx="9.8825235"
       ry="9.6485243"
       fill="url(#linearGradient862)"
       stroke-width="3.0541"
       id="rect35-7-3"
       style="fill:#414141;fill-opacity:1;stroke:#dfdfdf;stroke-width:2.04545;stroke-dasharray:none;stroke-opacity:1" />
    <path
       d="m 34.990125,29.827275 q 0,3.220652 -1.163764,5.602312 -1.136703,2.38166 -3.57249,3.491292 l 4.682126,5.196352 h -5.33167 l -3.437169,-4.330285 q -0.0812,0 -0.189454,0 -0.108254,0 -0.189455,0 -3.13946,0 -5.196347,-1.244962 -2.029816,-1.244958 -3.031195,-3.491299 -0.974317,-2.246336 -0.974317,-5.250475 0,-2.977076 0.974317,-5.196351 1.001379,-2.246335 3.031204,-3.464232 2.056886,-1.244957 5.223413,-1.244957 3.13946,0 5.169282,1.244957 2.056889,1.217897 3.031205,3.464232 0.974314,2.219275 0.974314,5.223416 z m -14.04638,0 q 0,3.031201 1.136702,4.763318 1.163765,1.705052 3.707813,1.705052 2.598173,0 3.707809,-1.705052 1.136701,-1.732117 1.136701,-4.763318 0,-3.031206 -1.136701,-4.76332 -1.109636,-1.732118 -3.680745,-1.732118 -2.571112,0 -3.734877,1.732118 -1.136702,1.732114 -1.136702,4.76332 z m 23.897804,6.739016 q 0.676608,0 1.299083,-0.135338 0.62248,-0.13532 1.244965,-0.324773 v 3.004146 q -0.649547,0.270696 -1.623862,0.460093 -0.947256,0.216477 -2.083952,0.216477 -1.326154,0 -2.381662,-0.433024 -1.028444,-0.432996 -1.65092,-1.488504 -0.595417,-1.082577 -0.595417,-2.977079 v -7.117903 h -1.921569 v -1.705053 l 2.219272,-1.353215 1.163771,-3.112396 h 2.571112 v 3.139459 h 4.140832 v 3.031205 H 43.08237 v 7.117915 q 0,0.838993 0.487155,1.272023 0.487151,0.405966 1.272024,0.405967 z"
       id="text3"
       style="font-weight:bold;font-size:7.51258px;-inkscape-font-specification:'sans-serif Bold';fill:#dfdfdf;stroke:none;stroke-width:0.393743;stroke-dasharray:none;stroke-opacity:0.6;fill-opacity:1"
       aria-label="Qt" />
  </g>
</svg>
