<?xml version="1.0" encoding="UTF-8" standalone="no"?>
<svg
   width="64"
   height="64"
   version="1.1"
   id="svg73"
   sodipodi:docname="audacious.svg"
   inkscape:version="1.4.2 (ebf0e940d0, 2025-05-08)"
   xmlns:inkscape="http://www.inkscape.org/namespaces/inkscape"
   xmlns:sodipodi="http://sodipodi.sourceforge.net/DTD/sodipodi-0.dtd"
   xmlns="http://www.w3.org/2000/svg"
   xmlns:svg="http://www.w3.org/2000/svg"
   xmlns:rdf="http://www.w3.org/1999/02/22-rdf-syntax-ns#"
   xmlns:cc="http://creativecommons.org/ns#"
   xmlns:dc="http://purl.org/dc/elements/1.1/">
  <metadata
     id="metadata77">
    <rdf:RDF>
      <cc:Work
         rdf:about="">
        <dc:format>image/svg+xml</dc:format>
        <dc:type
           rdf:resource="http://purl.org/dc/dcmitype/StillImage" />
      </cc:Work>
    </rdf:RDF>
  </metadata>
  <sodipodi:namedview
     pagecolor="#f5f7fa"
     bordercolor="#666666"
     borderopacity="1"
     objecttolerance="10"
     gridtolerance="10"
     guidetolerance="10"
     inkscape:pageopacity="0"
     inkscape:pageshadow="2"
     inkscape:window-width="1377"
     inkscape:window-height="886"
     id="namedview75"
     showgrid="false"
     inkscape:zoom="6.2890624"
     inkscape:cx="30.767702"
     inkscape:cy="36.173914"
     inkscape:window-x="0"
     inkscape:window-y="75"
     inkscape:window-maximized="0"
     inkscape:current-layer="g877"
     inkscape:document-rotation="0"
     inkscape:pagecheckerboard="0"
     inkscape:showpageshadow="2"
     inkscape:deskcolor="#d1d1d1" />
  <defs
     id="defs29" />
  <circle
     cx="32.516094"
     cy="31.877844"
     r="0"
     fill="url(#b)"
     stroke-width="1.5715"
     id="circle41"
     style="fill:url(#b)" />
  <g
     aria-label="GZ"
     transform="matrix(1.2212657,0,0,0.81882264,0.4960938,-0.1661539)"
     id="text93"
     style="font-weight:bold;font-size:11.5263px;line-height:1.25;font-family:sans-serif;-inkscape-font-specification:'sans-serif Bold';fill:#f2f2f2;stroke-width:0.288159" />
  <g
     id="g877"
     transform="matrix(1.1,0,0,1.1,-3.1845928,-3.2065454)">
    <rect
       x="8.3496294"
       y="8.369586"
       width="47.272728"
       height="47.272728"
       rx="9.8825235"
       ry="9.6485243"
       fill="url(#linearGradient862)"
       stroke-width="3.0541"
       id="rect35-7-3"
       style="fill:#414141;fill-opacity:1;stroke:#dfdfdf;stroke-width:2.04545;stroke-dasharray:none;stroke-opacity:1" />
    <path
       style="fill:#dfdfdf;fill-opacity:1;stroke:none;stroke-width:0.442049;stroke-dasharray:none;stroke-opacity:0.6"
       d="m 26.345357,17.828383 c -0.359285,-0.01008 -0.696707,0.02218 -0.921581,0.09692 -1.103195,0.373222 -1.795496,1.17624 -2.178562,2.517036 -0.330949,1.16851 -0.322416,3.272175 0.02309,5.103312 0.06063,0.318161 0.122396,0.607228 0.136928,0.653878 0.0182,0.06577 -0.09876,0.107406 -0.62003,0.224625 -2.548297,0.574088 -4.408702,1.429311 -5.526413,2.541654 -0.501863,0.495178 -0.780355,0.928853 -0.94158,1.475454 -0.113953,0.379161 -0.113953,1.13031 0,1.504683 0.312808,1.028607 1.193048,1.995718 2.584734,2.850899 0.966175,0.588474 1.255003,0.653217 1.567763,0.344631 0.146685,-0.144722 0.180007,-0.212748 0.180007,-0.386172 0,-0.336087 -0.105433,-0.472104 -0.560027,-0.729263 -2.850033,-1.583479 -3.350952,-3.171926 -1.447754,-4.583287 0.966206,-0.71522 2.315627,-1.281129 4.134033,-1.72008 0.796456,-0.191369 0.975431,-0.215174 0.975431,-0.11231 0,0.139899 0.586201,1.990386 0.88927,2.789358 l 0.313861,0.836961 -0.412327,0.783111 c -1.647504,3.139546 -2.70515,6.341304 -2.832438,8.681937 -0.104254,1.803571 0.227402,3.09352 1.032354,3.892489 0.880142,0.869551 2.121757,1.055532 3.717096,0.550796 0.601184,-0.191347 1.795039,-0.789328 2.490881,-1.256984 0.501883,-0.331318 0.611812,-0.429683 0.678493,-0.603104 0.06667,-0.173397 0.06667,-0.228998 0,-0.410788 -0.09941,-0.271465 -0.308669,-0.421557 -0.592334,-0.421557 -0.184266,0 -0.310664,0.05569 -0.784651,0.373866 -1.075266,0.720035 -2.084005,1.169339 -2.921671,1.309288 -1.16009,0.196196 -1.904078,-0.308634 -2.244719,-1.504684 -0.146697,-0.519112 -0.13815,-2.181706 0.02308,-3.041678 0.24611,-1.368275 0.676551,-2.789731 1.292379,-4.284813 0.364871,-0.887448 1.060868,-2.372811 1.155429,-2.470883 0.04727,-0.05142 0.109777,0.03247 0.266169,0.38771 0.796471,1.765284 2.013667,3.919201 3.201684,5.661797 2.836829,4.155082 5.942419,6.860498 8.334232,7.248028 l -0.02608,0.0046 c 1.05102,0.167446 1.937055,-0.09076 2.62319,-0.767734 0.558842,-0.561021 0.928469,-1.349815 1.136979,-2.447803 0.127308,-0.686577 0.127308,-2.607399 0,-3.546318 -0.387982,-2.798592 -1.419742,-6.007367 -2.967797,-9.203315 -0.241257,-0.499951 -0.378039,-0.621566 -0.6908,-0.621566 -0.350345,-0.0046 -0.63541,0.260862 -0.63541,0.59695 0,0.117211 0.119669,0.434577 0.318476,0.850806 1.908035,4.012816 2.93054,7.895187 2.826285,10.703568 -0.06423,1.67328 -0.487655,2.678773 -1.287755,3.066297 -0.420683,0.204543 -0.951682,0.200216 -1.652374,-0.02486 -3.216347,-1.07417 -7.572991,-6.447452 -10.3806,-12.802165 L 26.342289,31.3058 26.750001,30.618074 c 0.45939,-0.779844 1.619343,-2.521821 2.153943,-3.237072 l 0.360016,-0.475405 h 0.947728 c 5.754617,0 11.450501,1.283347 14.471434,3.250919 0.615829,0.401863 1.358559,1.136836 1.581608,1.566225 0.161247,0.299022 0.176957,0.378328 0.176957,0.775419 0,0.388728 -0.01564,0.482016 -0.147715,0.720035 -0.369794,0.70085 -1.345419,1.42869 -2.600115,1.947781 -0.581882,0.242809 -0.738502,0.402562 -0.738502,0.733879 0,0.279879 0.185826,0.513232 0.464638,0.59695 0.180608,0.05142 0.242131,0.04251 0.564646,-0.08307 2.026938,-0.790558 3.414961,-2.018977 3.698629,-3.261687 0.08,-0.33609 0.07387,-0.967378 -0.0064,-1.293905 -0.151238,-0.641035 -0.68985,-1.462475 -1.31053,-2.013863 -2.765141,-2.448395 -8.632204,-4.0271 -15.593026,-4.190962 l -0.496948,-0.01538 0.581567,-0.644646 c 0.312758,-0.360018 0.87082,-0.957324 1.253904,-1.34006 1.97968,-1.985532 3.818249,-3.284504 5.423323,-3.82633 0.511577,-0.177027 0.613697,-0.196935 1.144668,-0.196935 0.49339,0 0.611298,0.01547 0.824654,0.123084 0.289723,0.135155 0.615499,0.466664 0.781581,0.780036 0.326084,0.639944 0.436402,1.760981 0.280025,2.957057 -0.0521,0.411444 -0.09542,0.886958 -0.09542,1.05082 0,0.276299 0.0092,0.318705 0.17079,0.453864 0.132188,0.121999 0.222891,0.153856 0.393861,0.153856 0.275176,0 0.529815,-0.143857 0.606184,-0.340016 0.226669,-0.578975 0.345148,-2.630782 0.198491,-3.495544 -0.227955,-1.327659 -0.805814,-2.224408 -1.724712,-2.658583 -1.624395,-0.77512 -3.982274,-0.01823 -6.734154,2.158561 -1.439012,1.139833 -3.333396,3.073693 -4.640211,4.727907 l -0.127697,0.149244 -0.772342,0.04308 c -0.648452,0.03709 -1.704086,0.139912 -2.930907,0.284629 l -0.264624,0.03229 -0.113854,-0.640027 c -0.221825,-1.275084 -0.24153,-1.466282 -0.24153,-2.686276 0,-1.070465 0.01416,-1.276844 0.118471,-1.706232 0.255783,-1.083666 0.762868,-1.757066 1.430833,-1.897006 0.918943,-0.191308 2.060039,0.261762 3.660166,1.433909 0.511576,0.379149 1.13335,0.05648 1.056973,-0.54156 -0.03274,-0.260729 -0.274644,-0.48608 -1.089287,-1.023118 -0.682527,-0.4533 -1.44842,-0.82747 -2.073943,-1.009276 -0.30792,-0.0909 -0.688453,-0.142298 -1.047739,-0.152313 z m 0.829268,9.198886 c 0.233745,-0.01485 0.389249,-0.01759 0.389249,0 0,0.0239 -0.21738,0.355407 -0.487714,0.747725 -0.270334,0.387526 -0.653534,0.957123 -0.852346,1.280059 -0.193962,0.313371 -0.38397,0.598168 -0.421559,0.640028 -0.05211,0.05502 -0.12847,-0.09472 -0.360016,-0.823116 -0.330965,-1.004627 -0.473218,-1.54573 -0.430792,-1.592378 0.05269,-0.05292 1.46195,-0.207799 2.163178,-0.252318 z m 4.810991,3.403231 c -0.869657,0 -1.575457,0.708499 -1.575457,1.576993 0,0.868512 0.705815,1.57392 1.575457,1.57392 0.869654,0 1.575455,-0.705421 1.575455,-1.57392 0,-0.868455 -0.705816,-1.576993 -1.575455,-1.576993 z"
       id="path3-7" />
  </g>
</svg>
