<?xml version="1.0" encoding="UTF-8" standalone="no"?>
<svg
   width="64"
   height="64"
   version="1.1"
   id="svg73"
   sodipodi:docname="partitionmanager.svg"
   inkscape:version="1.4.2 (ebf0e940d0, 2025-05-08)"
   xmlns:inkscape="http://www.inkscape.org/namespaces/inkscape"
   xmlns:sodipodi="http://sodipodi.sourceforge.net/DTD/sodipodi-0.dtd"
   xmlns="http://www.w3.org/2000/svg"
   xmlns:svg="http://www.w3.org/2000/svg"
   xmlns:rdf="http://www.w3.org/1999/02/22-rdf-syntax-ns#"
   xmlns:cc="http://creativecommons.org/ns#"
   xmlns:dc="http://purl.org/dc/elements/1.1/">
  <metadata
     id="metadata77">
    <rdf:RDF>
      <cc:Work
         rdf:about="">
        <dc:format>image/svg+xml</dc:format>
        <dc:type
           rdf:resource="http://purl.org/dc/dcmitype/StillImage" />
      </cc:Work>
    </rdf:RDF>
  </metadata>
  <sodipodi:namedview
     pagecolor="#f5f7fa"
     bordercolor="#666666"
     borderopacity="1"
     objecttolerance="10"
     gridtolerance="10"
     guidetolerance="10"
     inkscape:pageopacity="0"
     inkscape:pageshadow="2"
     inkscape:window-width="1377"
     inkscape:window-height="886"
     id="namedview75"
     showgrid="false"
     inkscape:zoom="6.2890624"
     inkscape:cx="47.622361"
     inkscape:cy="45.396274"
     inkscape:window-x="264"
     inkscape:window-y="102"
     inkscape:window-maximized="0"
     inkscape:current-layer="g877"
     inkscape:document-rotation="0"
     inkscape:pagecheckerboard="0"
     inkscape:showpageshadow="2"
     inkscape:deskcolor="#d1d1d1" />
  <defs
     id="defs29" />
  <circle
     cx="32.516094"
     cy="31.877844"
     r="0"
     fill="url(#b)"
     stroke-width="1.5715"
     id="circle41"
     style="fill:url(#b)" />
  <g
     aria-label="GZ"
     transform="matrix(1.2212657,0,0,0.81882264,0.4960938,-0.1661539)"
     id="text93"
     style="font-weight:bold;font-size:11.5263px;line-height:1.25;font-family:sans-serif;-inkscape-font-specification:'sans-serif Bold';fill:#f2f2f2;stroke-width:0.288159" />
  <g
     id="g877"
     transform="matrix(1.1,0,0,1.1,-3.1845928,-3.2065454)">
    <rect
       x="8.3496294"
       y="8.369586"
       width="47.272728"
       height="47.272728"
       rx="9.8825235"
       ry="9.6485243"
       fill="url(#linearGradient862)"
       stroke-width="3.0541"
       id="rect35-7-3"
       style="fill:#414141;fill-opacity:1;stroke:#dfdfdf;stroke-width:2.04545;stroke-dasharray:none;stroke-opacity:1" />
    <path
       id="path52"
       style="fill:#dfdfdf;stroke:none;stroke-width:0.421954;stroke-dasharray:none;stroke-dashoffset:2.2;stroke-opacity:0.6;fill-opacity:1"
       d="m 32.365312,16.41763 c -0.315903,-0.0053 -0.635804,-4.26e-4 -0.960033,0.01277 -7.93578,0.323112 -14.244424,6.358552 -14.947544,14.300439 -0.738356,8.339926 5.453443,15.818723 13.887463,16.77395 4.434473,0.502246 9.093414,-1.08797 12.354832,-4.216906 3.681853,-3.532297 5.38504,-8.304334 4.740552,-13.276537 -0.684894,-5.283904 -3.945489,-9.784508 -8.744594,-12.069587 -2.094193,-0.997141 -4.119369,-1.487884 -6.330676,-1.524131 z m -0.229902,8.267769 c 1.986857,-0.0015 3.28923,0.475672 4.391458,1.607148 0.661003,0.678548 1.149855,1.54972 1.447508,2.582082 0.199758,0.692738 0.220462,0.965187 0.217155,2.697032 -0.0031,1.640032 -0.03372,2.062346 -0.21498,2.83752 -0.262566,1.122627 -0.264247,1.216322 -0.0085,1.794472 0.250416,0.566085 0.2639,1.07649 0.03628,1.42408 -0.23064,0.352104 -1.660348,1.369623 -2.039209,1.451759 -0.435516,0.09442 -1.012994,-0.08968 -1.536902,-0.489595 -0.663638,-0.506571 -1.034865,-0.525916 -1.692295,-0.08943 -0.290974,0.193233 -0.764915,0.441911 -1.051566,0.551327 -0.762877,0.291148 -2.173576,0.337803 -2.903509,0.09574 -2.001755,-0.663724 -3.140709,-2.453363 -3.042099,-4.780942 0.03073,-0.725334 0.08759,-0.972865 0.342719,-1.517744 0.361356,-0.77175 1.026978,-1.453823 1.849816,-1.892393 0.858199,-0.457411 1.255124,-0.570013 2.571437,-0.732266 0.663332,-0.08174 1.348402,-0.20845 1.522002,-0.28098 0.657157,-0.274581 0.915935,-0.819925 0.547068,-1.153743 -0.362987,-0.328495 -0.799232,-0.365629 -2.343669,-0.197966 -1.720665,0.186787 -2.580324,0.158564 -2.856678,-0.09153 -0.494948,-0.447917 -0.67639,-1.570608 -0.37039,-2.292583 0.423118,-0.998304 2.183389,-1.52004 5.13436,-1.522 z m 0.149009,8.189009 c -0.821429,-0.01302 -1.611525,0.740744 -1.372994,1.536902 0.132277,0.44149 0.515055,0.841964 0.917458,0.960034 0.566706,0.166274 1.25026,-0.0895 1.536904,-0.574743 0.365068,-0.618013 0.123578,-1.449206 -0.519397,-1.7817 -0.180475,-0.09332 -0.372407,-0.137488 -0.561971,-0.140493 z" />
  </g>
</svg>
