<?xml version="1.0" encoding="UTF-8" standalone="no"?>
<svg
   width="64"
   height="64"
   version="1.1"
   id="svg73"
   sodipodi:docname="distributor-logo.svg"
   inkscape:version="1.3.2 (091e20ef0f, 2023-11-25)"
   xmlns:inkscape="http://www.inkscape.org/namespaces/inkscape"
   xmlns:sodipodi="http://sodipodi.sourceforge.net/DTD/sodipodi-0.dtd"
   xmlns="http://www.w3.org/2000/svg"
   xmlns:svg="http://www.w3.org/2000/svg"
   xmlns:rdf="http://www.w3.org/1999/02/22-rdf-syntax-ns#"
   xmlns:cc="http://creativecommons.org/ns#"
   xmlns:dc="http://purl.org/dc/elements/1.1/">
  <metadata
     id="metadata77">
    <rdf:RDF>
      <cc:Work
         rdf:about="">
        <dc:format>image/svg+xml</dc:format>
        <dc:type
           rdf:resource="http://purl.org/dc/dcmitype/StillImage" />
      </cc:Work>
    </rdf:RDF>
  </metadata>
  <sodipodi:namedview
     pagecolor="#f5f7fa"
     bordercolor="#666666"
     borderopacity="1"
     objecttolerance="10"
     gridtolerance="10"
     guidetolerance="10"
     inkscape:pageopacity="0"
     inkscape:pageshadow="2"
     inkscape:window-width="1377"
     inkscape:window-height="886"
     id="namedview75"
     showgrid="false"
     inkscape:zoom="4.4470387"
     inkscape:cx="47.784608"
     inkscape:cy="14.054296"
     inkscape:window-x="351"
     inkscape:window-y="95"
     inkscape:window-maximized="0"
     inkscape:current-layer="g877"
     inkscape:document-rotation="0"
     inkscape:pagecheckerboard="0"
     inkscape:showpageshadow="2"
     inkscape:deskcolor="#d1d1d1" />
  <defs
     id="defs29">
    <linearGradient
       id="b"
       x1="399.57"
       x2="399.57"
       y1="545.8"
       y2="517.8"
       gradientTransform="matrix(2.1429,0,0,2.1429,-825.86391,-1107.6662)"
       gradientUnits="userSpaceOnUse">
      <stop
         stop-color="#3889e9"
         offset="0"
         id="stop2" />
      <stop
         stop-color="#5ea5fb"
         offset="1"
         id="stop4" />
    </linearGradient>
  </defs>
  <circle
     cx="32.516094"
     cy="31.877844"
     r="0"
     fill="url(#b)"
     stroke-width="1.5715"
     id="circle41"
     style="fill:url(#b)" />
  <g
     aria-label="GZ"
     transform="matrix(1.2212657,0,0,0.81882264,0.4960938,-0.1661539)"
     id="text93"
     style="font-weight:bold;font-size:11.5263px;line-height:1.25;font-family:sans-serif;-inkscape-font-specification:'sans-serif Bold';fill:#f2f2f2;stroke-width:0.288159" />
  <g
     id="g877"
     transform="matrix(1.1,0,0,1.1,-3.1845928,-3.2065454)">
    <rect
       x="6.3010068"
       y="5.4939413"
       width="51.635597"
       height="53.148327"
       rx="10.980581"
       ry="10.720582"
       fill="url(#linearGradient862)"
       stroke-width="3.0541"
       id="rect35-7-3"
       style="fill:#414141;fill-opacity:1;stroke:#dfdfdf;stroke-width:2.27272727;stroke-dasharray:none;stroke-opacity:1" />
    <path
       id="path52"
       style="fill:#dfdfdf;fill-opacity:1;stroke:none;stroke-width:1.21;stroke-dasharray:none;stroke-dashoffset:2.2;stroke-opacity:0.3"
       d="m 32.501609,15.70956 c -0.350719,-0.0058 -0.705879,-4.75e-4 -1.065841,0.01418 -8.810408,0.358716 -15.81435,7.05934 -16.594962,15.876524 -0.819732,9.259096 6.054485,17.562149 15.418047,18.622655 4.923212,0.557598 10.095622,-1.207876 13.716487,-4.68166 4.087647,-3.921607 5.978549,-9.21958 5.263026,-14.739785 -0.760374,-5.866256 -4.380328,-10.862887 -9.708359,-13.39981 -2.324998,-1.107039 -4.573376,-1.651868 -7.028398,-1.692112 z m -0.255238,9.178985 c 2.205832,-0.0014 3.651745,0.528097 4.875449,1.784277 0.733858,0.753333 1.276582,1.720519 1.607033,2.86666 0.22176,0.769088 0.244809,1.071561 0.241059,2.994279 -0.0036,1.820784 -0.03751,2.289643 -0.23868,3.150252 -0.291505,1.246355 -0.293384,1.350376 -0.0096,1.992248 0.278012,0.628476 0.293012,1.19513 0.04025,1.581034 -0.256056,0.390909 -1.843331,1.520572 -2.263946,1.611759 -0.483513,0.104808 -1.12464,-0.09957 -1.706289,-0.543554 -0.736778,-0.562402 -1.148922,-0.583879 -1.878808,-0.09925 -0.32305,0.214488 -0.849219,0.490624 -1.167462,0.612087 -0.846956,0.323265 -2.413134,0.375099 -3.223515,0.106348 -2.222128,-0.736943 -3.486609,-2.723821 -3.377129,-5.30793 0.03412,-0.805275 0.09725,-1.080089 0.38049,-1.685019 0.401183,-0.856805 1.140162,-1.614052 2.05369,-2.100958 0.952783,-0.507827 1.393455,-0.632836 2.854843,-0.812969 0.736437,-0.09077 1.497015,-0.231427 1.689746,-0.311952 0.729585,-0.304843 1.016881,-0.910292 0.607363,-1.280899 -0.402992,-0.364702 -0.887319,-0.405926 -2.601973,-0.219784 -1.910304,0.207373 -2.864711,0.17604 -3.171522,-0.101618 -0.549494,-0.497285 -0.750936,-1.74371 -0.411211,-2.545256 0.469752,-1.108331 2.424029,-1.687567 5.700233,-1.689744 z m 0.165431,9.091543 c -0.911964,-0.01445 -1.789139,0.822384 -1.524317,1.706289 0.146855,0.490149 0.571821,0.934759 1.018575,1.065841 0.629165,0.184601 1.388057,-0.09936 1.706289,-0.638086 0.405306,-0.686127 0.137198,-1.608929 -0.57664,-1.978068 -0.200367,-0.103609 -0.413452,-0.15264 -0.623907,-0.155976 z" />
  </g>
</svg>
