<?xml version="1.0" encoding="UTF-8" standalone="no"?>
<svg
   width="64"
   height="64"
   version="1.1"
   id="svg73"
   sodipodi:docname="hwloc.svg"
   inkscape:version="1.3.2 (091e20ef0f, 2023-11-25)"
   xmlns:inkscape="http://www.inkscape.org/namespaces/inkscape"
   xmlns:sodipodi="http://sodipodi.sourceforge.net/DTD/sodipodi-0.dtd"
   xmlns="http://www.w3.org/2000/svg"
   xmlns:svg="http://www.w3.org/2000/svg"
   xmlns:rdf="http://www.w3.org/1999/02/22-rdf-syntax-ns#"
   xmlns:cc="http://creativecommons.org/ns#"
   xmlns:dc="http://purl.org/dc/elements/1.1/">
  <metadata
     id="metadata77">
    <rdf:RDF>
      <cc:Work
         rdf:about="">
        <dc:format>image/svg+xml</dc:format>
        <dc:type
           rdf:resource="http://purl.org/dc/dcmitype/StillImage" />
      </cc:Work>
    </rdf:RDF>
  </metadata>
  <sodipodi:namedview
     pagecolor="#f5f7fa"
     bordercolor="#666666"
     borderopacity="1"
     objecttolerance="10"
     gridtolerance="10"
     guidetolerance="10"
     inkscape:pageopacity="0"
     inkscape:pageshadow="2"
     inkscape:window-width="1377"
     inkscape:window-height="886"
     id="namedview75"
     showgrid="false"
     inkscape:zoom="4.4470387"
     inkscape:cx="47.784608"
     inkscape:cy="14.054296"
     inkscape:window-x="181"
     inkscape:window-y="77"
     inkscape:window-maximized="0"
     inkscape:current-layer="g877"
     inkscape:document-rotation="0"
     inkscape:pagecheckerboard="0"
     inkscape:showpageshadow="2"
     inkscape:deskcolor="#d1d1d1" />
  <defs
     id="defs29">
    <linearGradient
       id="b"
       x1="399.57"
       x2="399.57"
       y1="545.8"
       y2="517.8"
       gradientTransform="matrix(2.1429,0,0,2.1429,-825.86391,-1107.6662)"
       gradientUnits="userSpaceOnUse">
      <stop
         stop-color="#3889e9"
         offset="0"
         id="stop2" />
      <stop
         stop-color="#5ea5fb"
         offset="1"
         id="stop4" />
    </linearGradient>
    <linearGradient
       id="d"
       x2="1"
       gradientTransform="matrix(14.905727,-4.7106182,4.7106182,14.905727,322.04962,998.26962)"
       gradientUnits="userSpaceOnUse">
      <stop
         stop-color="#fafafa"
         offset="0"
         id="stop7" />
      <stop
         stop-color="#aaa"
         offset="1"
         id="stop8" />
    </linearGradient>
    <linearGradient
       id="e"
       x2="1"
       gradientTransform="matrix(21.439909,0,0,21.439909,26.63554,1159.7788)"
       gradientUnits="userSpaceOnUse">
      <stop
         stop-color="#f0f0f0"
         offset="0"
         id="stop9" />
      <stop
         stop-color="#b7f1ff"
         offset="1"
         id="stop10" />
    </linearGradient>
  </defs>
  <circle
     cx="32.516094"
     cy="31.877844"
     r="0"
     fill="url(#b)"
     stroke-width="1.5715"
     id="circle41"
     style="fill:url(#b)" />
  <g
     aria-label="GZ"
     transform="matrix(1.2212657,0,0,0.81882264,0.4960938,-0.1661539)"
     id="text93"
     style="font-weight:bold;font-size:11.5263px;line-height:1.25;font-family:sans-serif;-inkscape-font-specification:'sans-serif Bold';fill:#f2f2f2;stroke-width:0.288159" />
  <g
     id="g877"
     transform="matrix(1.1,0,0,1.1,-3.1845928,-3.2065454)">
    <rect
       x="6.3010068"
       y="5.4939413"
       width="51.635597"
       height="53.148327"
       rx="10.980581"
       ry="10.720582"
       fill="url(#linearGradient862)"
       stroke-width="3.0541"
       id="rect35-7-3"
       style="fill:#414141;fill-opacity:1;stroke:#dfdfdf;stroke-width:2.27272727;stroke-dasharray:none;stroke-opacity:1" />
    <path
       id="path12"
       style="fill:#dfdfdf;fill-opacity:1;stroke:none;stroke-width:1.30451;stroke-dasharray:none;stroke-dashoffset:2.2;stroke-opacity:0.3"
       d="m 31.209997,12.836937 c -1.805847,0 -3.173529,1.787473 -2.764447,3.61289 0.243787,1.087837 0.422907,1.312731 2.1606,2.718585 l 1.5593,1.261199 -7.941734,0.08664 -7.939186,0.08664 -0.63442,0.435687 c -0.980362,0.671988 -1.40315,1.569795 -1.314703,2.792478 0.05529,0.763817 0.192247,1.170553 0.552888,1.64338 0.900032,1.180004 1.151403,1.23827 5.312326,1.23827 3.669895,0 3.710429,0.0029 3.314787,0.328681 -0.220369,0.181485 -2.888028,2.316821 -5.928911,4.744144 -3.040883,2.427322 -5.659897,4.612899 -5.81935,4.856254 -0.159458,0.243359 -0.325521,0.896939 -0.369437,1.452289 -0.06579,0.831835 -0.0095,1.130221 0.321033,1.691791 0.49224,0.836224 1.099277,1.30311 1.941481,1.493058 1.160193,0.261665 1.788688,-0.06278 4.917401,-2.540237 l 2.968276,-2.34914 0.208925,1.793704 c 0.292899,2.491473 0.649849,3.799692 1.546562,5.697056 2.216413,4.689734 6.291757,7.905903 11.197918,8.833491 2.045451,0.386697 4.969855,0.243594 6.935324,-0.338884 4.199924,-1.244689 7.432384,-3.997933 9.439881,-8.036003 1.120268,-2.253395 1.621794,-4.067084 1.768227,-6.405353 0.366529,-5.853004 -2.359666,-11.579891 -7.049981,-14.808261 -0.747626,-0.5146 -2.223263,-1.627769 -3.279113,-2.471441 C 37.951672,17.16843 32.68828,13.13741 32.31068,12.99238 32.088462,12.907031 31.59246,12.836966 31.209997,12.836966 Z m 6.140384,14.680866 c 1.332358,0.01265 2.671573,0.329784 3.903347,0.98603 2.078318,1.107259 3.903316,3.53871 4.545411,6.053756 1.193504,4.674883 -1.804429,10.042411 -6.229555,11.149515 -3.378482,0.845236 -6.127329,0.09958 -8.522653,-2.30838 -3.169253,-3.18598 -3.638963,-7.921754 -1.172022,-11.839987 1.644749,-2.612345 4.544283,-4.068434 7.475472,-4.040934 z m -0.208926,4.690642 c -2.476842,0 -4.353998,2.001289 -4.331392,4.614208 0.0188,2.171033 1.516371,4.073817 3.495686,4.438402 2.807114,0.517057 5.218046,-1.56942 5.218046,-4.514839 0,-2.631638 -1.840435,-4.537771 -4.38234,-4.537771 z" />
  </g>
</svg>
