<?xml version="1.0" encoding="UTF-8" standalone="no"?>
<svg
   width="64"
   height="64"
   version="1.1"
   id="svg73"
   sodipodi:docname="audacious.svg"
   inkscape:version="1.4.2 (ebf0e940d0, 2025-05-08)"
   xmlns:inkscape="http://www.inkscape.org/namespaces/inkscape"
   xmlns:sodipodi="http://sodipodi.sourceforge.net/DTD/sodipodi-0.dtd"
   xmlns="http://www.w3.org/2000/svg"
   xmlns:svg="http://www.w3.org/2000/svg"
   xmlns:rdf="http://www.w3.org/1999/02/22-rdf-syntax-ns#"
   xmlns:cc="http://creativecommons.org/ns#"
   xmlns:dc="http://purl.org/dc/elements/1.1/">
  <metadata
     id="metadata77">
    <rdf:RDF>
      <cc:Work
         rdf:about="">
        <dc:format>image/svg+xml</dc:format>
        <dc:type
           rdf:resource="http://purl.org/dc/dcmitype/StillImage" />
      </cc:Work>
    </rdf:RDF>
  </metadata>
  <sodipodi:namedview
     pagecolor="#f5f7fa"
     bordercolor="#666666"
     borderopacity="1"
     objecttolerance="10"
     gridtolerance="10"
     guidetolerance="10"
     inkscape:pageopacity="0"
     inkscape:pageshadow="2"
     inkscape:window-width="1377"
     inkscape:window-height="886"
     id="namedview75"
     showgrid="false"
     inkscape:zoom="6.2890624"
     inkscape:cx="47.622361"
     inkscape:cy="45.396274"
     inkscape:window-x="1"
     inkscape:window-y="75"
     inkscape:window-maximized="0"
     inkscape:current-layer="g877"
     inkscape:document-rotation="0"
     inkscape:pagecheckerboard="0"
     inkscape:showpageshadow="2"
     inkscape:deskcolor="#d1d1d1" />
  <defs
     id="defs29" />
  <circle
     cx="32.516094"
     cy="31.877844"
     r="0"
     fill="url(#b)"
     stroke-width="1.5715"
     id="circle41"
     style="fill:url(#b)" />
  <g
     aria-label="GZ"
     transform="matrix(1.2212657,0,0,0.81882264,0.4960938,-0.1661539)"
     id="text93"
     style="font-weight:bold;font-size:11.5263px;line-height:1.25;font-family:sans-serif;-inkscape-font-specification:'sans-serif Bold';fill:#f2f2f2;stroke-width:0.288159" />
  <g
     id="g877"
     transform="matrix(1.1,0,0,1.1,-3.1845928,-3.2065454)">
    <rect
       x="8.3496294"
       y="8.369586"
       width="47.272728"
       height="47.272728"
       rx="9.8825235"
       ry="9.6485243"
       fill="url(#linearGradient862)"
       stroke-width="3.0541"
       id="rect35-7-3"
       style="fill:#414141;fill-opacity:1;stroke:#dfdfdf;stroke-width:2.04545;stroke-dasharray:none;stroke-opacity:1" />
    <path
       style="fill:#dfdfdf;fill-opacity:1;stroke:none;stroke-width:0.510565;stroke-dasharray:none;stroke-opacity:0.6"
       d="m 30.124213,47.937893 c -0.97604,-0.152005 -2.184516,-0.611444 -2.486767,-0.945444 -0.271683,-0.300216 -0.292751,-1.108156 -0.238295,-9.138535 0.06765,-9.973341 0.02938,-9.682851 1.502486,-11.408633 0.446787,-0.523425 0.890732,-1.156495 0.986537,-1.40683 0.101189,-0.264399 0.149763,-2.116536 0.11587,-4.419364 -0.07048,-4.791592 -0.152747,-4.601708 1.993945,-4.601708 2.146698,0 2.064423,-0.189887 1.99394,4.601708 -0.03817,2.59558 0.0096,4.141711 0.138319,4.478328 0.108155,0.282762 0.54859,0.905598 0.978782,1.384078 1.447256,1.609694 1.420206,1.402921 1.487819,11.372421 0.06738,9.936102 0.167435,9.218968 -1.360057,9.749515 -0.828398,0.287679 -4.056594,0.498917 -5.112591,0.334522 z m -8.455231,-4.006245 c -0.429876,-0.08444 -0.971941,-0.278274 -1.204584,-0.4307 l -0.422986,-0.277145 v -6.929066 c 0,-7.356485 0.03038,-7.660279 0.872315,-8.740014 1.155296,-1.481506 1.108457,-1.272989 1.057933,-4.709958 -0.0556,-3.783289 -0.04893,-3.798546 1.650923,-3.775451 0.590488,0.008 1.170058,0.111029 1.287936,0.228909 0.154864,0.154874 0.199557,1.091012 0.161118,3.374299 l -0.05321,3.159976 0.540205,0.803058 c 0.297107,0.441677 0.665716,0.973174 0.819128,1.181097 0.22598,0.306301 0.244709,0.526439 0.09863,1.159971 -0.104559,0.453565 -0.182101,3.717093 -0.184634,7.771562 l -0.0042,6.989637 -0.901086,0.193278 c -1.0368,0.222308 -2.587283,0.222629 -3.717346,5.57e-4 z m 16.798081,-0.0039 -0.758442,-0.181807 -0.0045,-6.993918 c -0.0021,-4.115968 -0.07916,-7.31945 -0.186674,-7.785789 -0.159965,-0.694074 -0.136573,-0.854575 0.18864,-1.294395 1.364007,-1.844926 1.282864,-1.51281 1.221202,-4.99816 -0.04043,-2.287275 0.0037,-3.220369 0.158389,-3.375441 0.117887,-0.117869 0.697448,-0.220878 1.287931,-0.228914 1.69933,-0.02311 1.709578,7.9e-5 1.644403,3.716915 -0.05813,3.315134 -0.02963,3.463528 0.870272,4.499774 1.054507,1.214543 1.080253,1.442111 1.026391,9.075441 l -0.04913,6.959815 -0.668271,0.326549 c -0.800361,0.391084 -3.580625,0.555908 -4.730048,0.28043 z"
       id="path1" />
  </g>
</svg>
