<?xml version="1.0" encoding="UTF-8" standalone="no"?>
<svg
   width="64"
   height="64"
   version="1.1"
   id="svg73"
   sodipodi:docname="system-software-installer.svg"
   inkscape:version="1.4.2 (ebf0e940d0, 2025-05-08)"
   xmlns:inkscape="http://www.inkscape.org/namespaces/inkscape"
   xmlns:sodipodi="http://sodipodi.sourceforge.net/DTD/sodipodi-0.dtd"
   xmlns="http://www.w3.org/2000/svg"
   xmlns:svg="http://www.w3.org/2000/svg"
   xmlns:rdf="http://www.w3.org/1999/02/22-rdf-syntax-ns#"
   xmlns:cc="http://creativecommons.org/ns#"
   xmlns:dc="http://purl.org/dc/elements/1.1/">
  <metadata
     id="metadata77">
    <rdf:RDF>
      <cc:Work
         rdf:about="">
        <dc:format>image/svg+xml</dc:format>
        <dc:type
           rdf:resource="http://purl.org/dc/dcmitype/StillImage" />
      </cc:Work>
    </rdf:RDF>
  </metadata>
  <sodipodi:namedview
     pagecolor="#f5f7fa"
     bordercolor="#666666"
     borderopacity="1"
     objecttolerance="10"
     gridtolerance="10"
     guidetolerance="10"
     inkscape:pageopacity="0"
     inkscape:pageshadow="2"
     inkscape:window-width="1377"
     inkscape:window-height="886"
     id="namedview75"
     showgrid="false"
     inkscape:zoom="6.2890624"
     inkscape:cx="47.622361"
     inkscape:cy="45.396274"
     inkscape:window-x="147"
     inkscape:window-y="75"
     inkscape:window-maximized="0"
     inkscape:current-layer="g877"
     inkscape:document-rotation="0"
     inkscape:pagecheckerboard="0"
     inkscape:showpageshadow="2"
     inkscape:deskcolor="#d1d1d1" />
  <defs
     id="defs29">
    <linearGradient
       id="b"
       x1="399.57"
       x2="399.57"
       y1="545.8"
       y2="517.8"
       gradientTransform="matrix(2.1429,0,0,2.1429,-825.86391,-1107.6662)"
       gradientUnits="userSpaceOnUse">
      <stop
         stop-color="#3889e9"
         offset="0"
         id="stop2" />
      <stop
         stop-color="#5ea5fb"
         offset="1"
         id="stop4" />
    </linearGradient>
  </defs>
  <circle
     cx="32.516094"
     cy="31.877844"
     r="0"
     fill="url(#b)"
     stroke-width="1.5715"
     id="circle41"
     style="fill:url(#b)" />
  <g
     aria-label="GZ"
     transform="matrix(1.2212657,0,0,0.81882264,0.4960938,-0.1661539)"
     id="text93"
     style="font-weight:bold;font-size:11.5263px;line-height:1.25;font-family:sans-serif;-inkscape-font-specification:'sans-serif Bold';fill:#f2f2f2;stroke-width:0.288159" />
  <g
     id="g877"
     transform="matrix(1.1,0,0,1.1,-3.1845928,-3.2065454)">
    <rect
       x="8.3496294"
       y="8.369586"
       width="47.272728"
       height="47.272728"
       rx="9.8825235"
       ry="9.6485243"
       fill="url(#linearGradient862)"
       stroke-width="3.0541"
       id="rect35-7-3"
       style="fill:#414141;fill-opacity:1;stroke:#dfdfdf;stroke-width:2.04545;stroke-dasharray:none;stroke-opacity:1" />
    <path
       fill="#f5f7fa"
       d="m 31.985999,47.204339 c -8.521287,0 -15.42915,-6.804548 -15.42915,-15.198385 0,-8.39384 6.907863,-15.198389 15.42915,-15.198389 8.521277,0 15.429141,6.804549 15.429141,15.198389 0,8.393837 -6.907864,15.198385 -15.429141,15.198385 z m 0,-27.019363 c -6.62767,0 -12.000452,5.292438 -12.000452,11.820978 0,0.466322 0.38377,0.844349 0.857175,0.844349 0.473405,0 0.857174,-0.37802 0.857174,-0.844349 0,-5.595895 4.605245,-10.132265 10.286103,-10.132265 0.473404,0 0.857175,-0.378032 0.857175,-0.844351 0,-0.466326 -0.383772,-0.844362 -0.857175,-0.844362 z m 0,18.575817 c 3.787236,0 6.857402,-3.024253 6.857402,-6.754839 0,-3.730594 -3.070166,-6.754845 -6.857402,-6.754845 -3.787238,0 -6.857399,3.024251 -6.857399,6.754845 0,3.730586 3.070161,6.754839 6.857399,6.754839 z m 0,-1.688712 c -2.840429,0 -5.14305,-2.26818 -5.14305,-5.066126 0,-2.797951 2.302621,-5.066135 5.14305,-5.066135 2.840427,0 5.143051,2.268184 5.143051,5.066135 0,2.797946 -2.302624,5.066126 -5.143051,5.066126 z m 0,-1.688713 c 1.893614,0 3.428698,-1.512116 3.428698,-3.377413 0,-1.865305 -1.535084,-3.377425 -3.428698,-3.377425 -1.89362,0 -3.428697,1.51212 -3.428697,3.377425 0,1.865297 1.535077,3.377413 3.428697,3.377413 z"
       id="path42"
       style="fill:#dfdfdf;fill-opacity:1;stroke:none;stroke-width:0.463097;stroke-dasharray:none;stroke-opacity:0.6" />
    <rect
       x="37.737823"
       y="37.757782"
       width="22.610399"
       height="22.610399"
       rx="4.7267799"
       ry="4.6148596"
       fill="url(#linearGradient862)"
       stroke-width="3.0541"
       id="rect35-7-3-1"
       style="fill:#414141;fill-opacity:1;stroke:#dfdfdf;stroke-width:0.978336;stroke-dasharray:none;stroke-opacity:1" />
    <path
       style="fill:#dfdfdf;fill-opacity:1;stroke:none;stroke-width:0.451022;stroke-dasharray:none;stroke-opacity:0.6"
       d="m 50.897896,41.423107 c -4.725319,1.925556 -7.561663,6.439068 -7.561663,9.627797 0,3.152908 2.480889,5.7112 5.562358,5.771089 -1.539833,-0.03068 -2.780312,-1.306881 -2.780312,-2.882754 0,-1.595188 1.417808,-3.851116 3.780832,-4.813897 0,3.369731 2.53712,3.856893 1.890396,5.776676 -0.366678,1.088578 -1.261105,1.914796 -2.811696,1.923671 0.0092,5.3e-5 0.01978,0.0011 0.02933,0.0011 3.132113,0 4.933854,-1.66214 5.671151,-3.851119 1.293503,-3.839696 -3.780729,-4.813835 -3.780729,-11.553293 z"
       id="path12447"
       inkscape:transform-center-x="0.18576929"
       inkscape:transform-center-y="4.4099911" />
  </g>
</svg>
