<?xml version="1.0" encoding="UTF-8" standalone="no"?>
<svg
   width="64"
   height="64"
   version="1.1"
   id="svg73"
   sodipodi:docname="partitionmanager.svg"
   inkscape:version="1.3.2 (091e20ef0f, 2023-11-25)"
   xmlns:inkscape="http://www.inkscape.org/namespaces/inkscape"
   xmlns:sodipodi="http://sodipodi.sourceforge.net/DTD/sodipodi-0.dtd"
   xmlns="http://www.w3.org/2000/svg"
   xmlns:svg="http://www.w3.org/2000/svg"
   xmlns:rdf="http://www.w3.org/1999/02/22-rdf-syntax-ns#"
   xmlns:cc="http://creativecommons.org/ns#"
   xmlns:dc="http://purl.org/dc/elements/1.1/">
  <metadata
     id="metadata77">
    <rdf:RDF>
      <cc:Work
         rdf:about="">
        <dc:format>image/svg+xml</dc:format>
        <dc:type
           rdf:resource="http://purl.org/dc/dcmitype/StillImage" />
      </cc:Work>
    </rdf:RDF>
  </metadata>
  <sodipodi:namedview
     pagecolor="#f5f7fa"
     bordercolor="#666666"
     borderopacity="1"
     objecttolerance="10"
     gridtolerance="10"
     guidetolerance="10"
     inkscape:pageopacity="0"
     inkscape:pageshadow="2"
     inkscape:window-width="1377"
     inkscape:window-height="886"
     id="namedview75"
     showgrid="false"
     inkscape:zoom="6.2890624"
     inkscape:cx="47.622361"
     inkscape:cy="45.396274"
     inkscape:window-x="74"
     inkscape:window-y="53"
     inkscape:window-maximized="0"
     inkscape:current-layer="g877"
     inkscape:document-rotation="0"
     inkscape:pagecheckerboard="0"
     inkscape:showpageshadow="2"
     inkscape:deskcolor="#d1d1d1" />
  <defs
     id="defs29">
    <linearGradient
       id="b"
       x1="399.57"
       x2="399.57"
       y1="545.8"
       y2="517.8"
       gradientTransform="matrix(2.1429,0,0,2.1429,-825.86391,-1107.6662)"
       gradientUnits="userSpaceOnUse">
      <stop
         stop-color="#3889e9"
         offset="0"
         id="stop2" />
      <stop
         stop-color="#5ea5fb"
         offset="1"
         id="stop4" />
    </linearGradient>
  </defs>
  <circle
     cx="32.516094"
     cy="31.877844"
     r="0"
     fill="url(#b)"
     stroke-width="1.5715"
     id="circle41"
     style="fill:url(#b)" />
  <g
     aria-label="GZ"
     transform="matrix(1.2212657,0,0,0.81882264,0.4960938,-0.1661539)"
     id="text93"
     style="font-weight:bold;font-size:11.5263px;line-height:1.25;font-family:sans-serif;-inkscape-font-specification:'sans-serif Bold';fill:#f2f2f2;stroke-width:0.288159" />
  <g
     id="g877"
     transform="matrix(1.1,0,0,1.1,-3.1845928,-3.2065454)">
    <rect
       x="6.3010068"
       y="5.4939413"
       width="51.635597"
       height="53.148327"
       rx="10.980581"
       ry="10.720582"
       fill="url(#linearGradient862)"
       stroke-width="3.0541"
       id="rect35-7-3"
       style="fill:#414141;fill-opacity:1;stroke:#dfdfdf;stroke-width:2.27272727;stroke-dasharray:none;stroke-opacity:1" />
    <path
       fill="#f5f7fa"
       d="m 31.842364,51.951036 c -11.244837,0 -20.360575,-8.979405 -20.360575,-20.05605 0,-11.076654 9.115738,-20.056055 20.360575,-20.056055 11.244819,0 20.360568,8.979401 20.360568,20.056055 0,11.076645 -9.115749,20.05605 -20.360568,20.05605 z m 0,-35.655215 c -8.745985,0 -15.836002,6.983994 -15.836002,15.599165 0,0.615368 0.506431,1.114219 1.131143,1.114219 0.624713,0 1.13114,-0.498841 1.13114,-1.114219 0,-7.384438 6.077162,-13.37071 13.573719,-13.37071 0.624711,0 1.131144,-0.498858 1.131144,-1.114218 0,-0.615373 -0.506434,-1.114237 -1.131144,-1.114237 z m 0,24.512968 c 4.997703,0 9.049142,-3.990857 9.049142,-8.913803 0,-4.922956 -4.051439,-8.913808 -9.049142,-8.913808 -4.997704,0 -9.049144,3.990852 -9.049144,8.913808 0,4.922946 4.05144,8.913803 9.049144,8.913803 z m 0,-2.228455 c -3.74828,0 -6.786858,-2.993131 -6.786858,-6.685348 0,-3.692221 3.038578,-6.68536 6.786858,-6.68536 3.748276,0 6.786857,2.993139 6.786857,6.68536 0,3.692217 -3.038581,6.685348 -6.786857,6.685348 z m 0,-2.228454 c 2.498848,0 4.52457,-1.995416 4.52457,-4.456893 0,-2.461486 -2.025722,-4.456907 -4.52457,-4.456907 -2.498855,0 -4.524569,1.995421 -4.524569,4.456907 0,2.461477 2.025714,4.456893 4.524569,4.456893 z"
       id="path42"
       style="fill:#dfdfdf;fill-opacity:1;stroke:none;stroke-width:1.31769;stroke-dasharray:none;stroke-opacity:0.3" />
    <rect
       x="34.795551"
       y="33.974232"
       width="24.697144"
       height="25.420679"
       rx="5.2519779"
       ry="5.1276212"
       fill="url(#linearGradient862)"
       stroke-width="3.0541"
       id="rect35-7-3-9"
       style="fill:#414141;fill-opacity:1;stroke:#dfdfdf;stroke-width:2.27273;stroke-dasharray:none;stroke-opacity:1" />
    <path
       style="fill:#dfdfdf;fill-opacity:1;stroke:none;stroke-width:0.989999;stroke-dasharray:none;stroke-opacity:0.3"
       d="m 49.290462,38.086532 c -5.238449,2.134655 -8.382798,7.138296 -8.382798,10.673289 0,3.495293 2.750296,6.331394 6.166383,6.397782 -1.707046,-0.03401 -3.082227,-1.448793 -3.082227,-3.195797 0,-1.768412 1.57177,-4.269314 4.1914,-5.336642 0,3.735652 2.812628,4.275715 2.095676,6.403975 -0.406485,1.206789 -1.398056,2.122723 -3.117023,2.132565 0.0098,5.4e-5 0.02155,0.0012 0.03251,0.0012 3.472229,0 5.469628,-1.842639 6.28699,-4.269317 1.433962,-4.256705 -4.191287,-5.336628 -4.191287,-12.807934 z"
       id="path12447"
       inkscape:transform-center-x="0.22705814"
       inkscape:transform-center-y="5.3899656" />
  </g>
</svg>
