<?xml version="1.0" encoding="UTF-8" standalone="no"?>
<svg
   width="64"
   height="64"
   version="1.1"
   id="svg73"
   sodipodi:docname="com.github.tchx84.Flatseal.svg"
   inkscape:version="1.4.2 (ebf0e940d0, 2025-05-08)"
   xmlns:inkscape="http://www.inkscape.org/namespaces/inkscape"
   xmlns:sodipodi="http://sodipodi.sourceforge.net/DTD/sodipodi-0.dtd"
   xmlns="http://www.w3.org/2000/svg"
   xmlns:svg="http://www.w3.org/2000/svg"
   xmlns:rdf="http://www.w3.org/1999/02/22-rdf-syntax-ns#"
   xmlns:cc="http://creativecommons.org/ns#"
   xmlns:dc="http://purl.org/dc/elements/1.1/">
  <metadata
     id="metadata77">
    <rdf:RDF>
      <cc:Work
         rdf:about="">
        <dc:format>image/svg+xml</dc:format>
        <dc:type
           rdf:resource="http://purl.org/dc/dcmitype/StillImage" />
      </cc:Work>
    </rdf:RDF>
  </metadata>
  <sodipodi:namedview
     pagecolor="#f5f7fa"
     bordercolor="#666666"
     borderopacity="1"
     objecttolerance="10"
     gridtolerance="10"
     guidetolerance="10"
     inkscape:pageopacity="0"
     inkscape:pageshadow="2"
     inkscape:window-width="1377"
     inkscape:window-height="886"
     id="namedview75"
     showgrid="false"
     inkscape:zoom="6.2890624"
     inkscape:cx="47.622361"
     inkscape:cy="45.237268"
     inkscape:window-x="147"
     inkscape:window-y="75"
     inkscape:window-maximized="0"
     inkscape:current-layer="g877"
     inkscape:document-rotation="0"
     inkscape:pagecheckerboard="0"
     inkscape:showpageshadow="2"
     inkscape:deskcolor="#d1d1d1" />
  <defs
     id="defs29">
    <linearGradient
       id="b"
       x1="399.57"
       x2="399.57"
       y1="545.8"
       y2="517.8"
       gradientTransform="matrix(2.1429,0,0,2.1429,-825.86391,-1107.6662)"
       gradientUnits="userSpaceOnUse">
      <stop
         stop-color="#3889e9"
         offset="0"
         id="stop2" />
      <stop
         stop-color="#5ea5fb"
         offset="1"
         id="stop4" />
    </linearGradient>
  </defs>
  <circle
     cx="32.516094"
     cy="31.877844"
     r="0"
     fill="url(#b)"
     stroke-width="1.5715"
     id="circle41"
     style="fill:url(#b)" />
  <g
     aria-label="GZ"
     transform="matrix(1.2212657,0,0,0.81882264,0.4960938,-0.1661539)"
     id="text93"
     style="font-weight:bold;font-size:11.5263px;line-height:1.25;font-family:sans-serif;-inkscape-font-specification:'sans-serif Bold';fill:#f2f2f2;stroke-width:0.288159" />
  <g
     id="g877"
     transform="matrix(1.1,0,0,1.1,-3.1845928,-3.2065454)">
    <rect
       x="8.3496294"
       y="8.369586"
       width="47.272728"
       height="47.272728"
       rx="9.8825235"
       ry="9.6485243"
       fill="url(#linearGradient862)"
       stroke-width="3.0541"
       id="rect35-7-3"
       style="fill:#414141;fill-opacity:1;stroke:#dfdfdf;stroke-width:2.04545;stroke-dasharray:none;stroke-opacity:1" />
    <path
       d="m 31.985991,16.7706 c -0.726956,0 -1.452609,0.188277 -2.105039,0.564829 l -9.940753,5.739829 a 4.2061563,4.2061562 0 0 0 -2.10504,3.645247 v 11.479662 c 0,1.504907 0.800177,2.89214 2.10504,3.645246 l 9.940753,5.739826 a 4.2061563,4.2061562 0 0 0 4.21008,0 l 9.940756,-5.739826 A 4.2061563,4.2061562 0 0 0 46.13682,38.200167 V 26.720505 A 4.2061563,4.2061562 0 0 0 44.031788,23.075258 L 34.091032,17.335429 A 4.207464,4.2074639 0 0 0 31.985991,16.7706 Z m 0,3.083034 c 0.196129,0 0.390939,0.05099 0.563524,0.15036 l 9.942059,5.739827 c 0.172513,0.100674 0.313798,0.2445 0.411831,0.413167 L 31.985991,32.460334 V 45.067038 A 1.1283534,1.1283534 0 0 1 31.42247,44.915371 l -9.942063,-5.739824 a 1.1322758,1.1322759 0 0 1 -0.563522,-0.97538 V 26.720505 c 0,-0.200044 0.05362,-0.394856 0.151666,-0.562213 l 10.91744,6.302042 z"
       fill="#000000"
       stroke-width="1.1979"
       id="path719"
       style="fill:#dfdfdf;fill-opacity:1;stroke:none;stroke-width:0.496125;stroke-dasharray:none;stroke-opacity:0.6" />
    <rect
       x="37.737823"
       y="37.757782"
       width="22.610399"
       height="22.610399"
       rx="4.7267799"
       ry="4.6148596"
       fill="url(#linearGradient862)"
       stroke-width="3.0541"
       id="rect35-7-3-1"
       style="fill:#414141;fill-opacity:1;stroke:#dfdfdf;stroke-width:0.978336;stroke-dasharray:none;stroke-opacity:1" />
    <path
       style="fill:#dfdfdf;fill-opacity:1;stroke:none;stroke-width:0.240074;stroke-dasharray:none;stroke-opacity:0.6"
       d="m 43.15095,56.342904 c -0.320663,-0.129721 -0.590348,-0.547806 -0.645788,-1.001148 -0.02888,-0.236051 -0.04074,-1.824328 -0.02639,-3.529518 0.02385,-2.830643 0.03894,-3.11924 0.173666,-3.31767 0.219326,-0.323044 0.61529,-0.476158 1.231372,-0.476158 h 0.538388 l 8.15e-4,-1.652154 c 0.0011,-2.211091 0.171825,-2.823107 1.033418,-3.708773 0.792726,-0.81488 2.041734,-1.244851 3.616117,-1.244851 1.475747,0 2.620854,0.361329 3.388981,1.069364 0.536653,0.494671 0.814594,0.930555 1.066089,1.671902 0.198667,0.585628 0.221293,0.782806 0.258547,2.253152 l 0.04085,1.61136 0.539549,3.03e-4 c 0.397152,2.26e-4 0.610812,0.04375 0.809608,0.164962 0.49594,0.302366 0.505016,0.375024 0.505016,4.04195 0,3.669484 -0.0074,3.727666 -0.523793,4.042476 -0.239837,0.146271 -0.515343,0.153018 -6.044024,0.148381 -3.18601,-0.0027 -5.869163,-0.0358 -5.96257,-0.07356 z m 8.777347,-9.790015 c 0,-1.279915 -0.02127,-1.522403 -0.168049,-1.914668 -0.205843,-0.550165 -0.721686,-1.034179 -1.327416,-1.245514 -0.508835,-0.177532 -2.030574,-0.20378 -2.555971,-0.0441 -0.612099,0.186042 -1.101321,0.583366 -1.372322,1.11454 -0.244739,0.479702 -0.246798,0.494921 -0.273351,2.019297 l -0.02675,1.535952 h 2.861933 2.861927 z"
       id="path53" />
  </g>
</svg>
