<?xml version="1.0" encoding="UTF-8" standalone="no"?>
<svg
   width="64"
   height="64"
   version="1.1"
   id="svg73"
   sodipodi:docname="audacious.svg"
   inkscape:version="1.4.2 (ebf0e940d0, 2025-05-08)"
   xmlns:inkscape="http://www.inkscape.org/namespaces/inkscape"
   xmlns:sodipodi="http://sodipodi.sourceforge.net/DTD/sodipodi-0.dtd"
   xmlns="http://www.w3.org/2000/svg"
   xmlns:svg="http://www.w3.org/2000/svg"
   xmlns:rdf="http://www.w3.org/1999/02/22-rdf-syntax-ns#"
   xmlns:cc="http://creativecommons.org/ns#"
   xmlns:dc="http://purl.org/dc/elements/1.1/">
  <metadata
     id="metadata77">
    <rdf:RDF>
      <cc:Work
         rdf:about="">
        <dc:format>image/svg+xml</dc:format>
        <dc:type
           rdf:resource="http://purl.org/dc/dcmitype/StillImage" />
      </cc:Work>
    </rdf:RDF>
  </metadata>
  <sodipodi:namedview
     pagecolor="#f5f7fa"
     bordercolor="#666666"
     borderopacity="1"
     objecttolerance="10"
     gridtolerance="10"
     guidetolerance="10"
     inkscape:pageopacity="0"
     inkscape:pageshadow="2"
     inkscape:window-width="1377"
     inkscape:window-height="886"
     id="namedview75"
     showgrid="false"
     inkscape:zoom="6.2890624"
     inkscape:cx="47.622361"
     inkscape:cy="45.396274"
     inkscape:window-x="1"
     inkscape:window-y="75"
     inkscape:window-maximized="0"
     inkscape:current-layer="g877"
     inkscape:document-rotation="0"
     inkscape:pagecheckerboard="0"
     inkscape:showpageshadow="2"
     inkscape:deskcolor="#d1d1d1" />
  <defs
     id="defs29" />
  <circle
     cx="32.516094"
     cy="31.877844"
     r="0"
     fill="url(#b)"
     stroke-width="1.5715"
     id="circle41"
     style="fill:url(#b)" />
  <g
     aria-label="GZ"
     transform="matrix(1.2212657,0,0,0.81882264,0.4960938,-0.1661539)"
     id="text93"
     style="font-weight:bold;font-size:11.5263px;line-height:1.25;font-family:sans-serif;-inkscape-font-specification:'sans-serif Bold';fill:#f2f2f2;stroke-width:0.288159" />
  <g
     id="g877"
     transform="matrix(1.1,0,0,1.1,-3.1845928,-3.2065454)">
    <rect
       x="8.3496294"
       y="8.369586"
       width="47.272728"
       height="47.272728"
       rx="9.8825235"
       ry="9.6485243"
       fill="url(#linearGradient862)"
       stroke-width="3.0541"
       id="rect35-7-3"
       style="fill:#414141;fill-opacity:1;stroke:#dfdfdf;stroke-width:2.04545;stroke-dasharray:none;stroke-opacity:1" />
    <path
       style="fill:#dfdfdf;fill-opacity:1;stroke:none;stroke-width:0.530732;stroke-dasharray:none;stroke-opacity:0.6"
       d="M 30.510959,47.711167 C 23.634922,47.003899 18.076212,42.087816 16.5871,35.396992 c -0.28059,-1.260727 -0.33065,-1.774738 -0.33065,-3.394878 0,-1.321795 0.01244,-1.578462 0.105409,-2.1774 0.204444,-1.317015 0.494116,-2.421702 0.924426,-3.52543 1.919413,-4.923198 6.145351,-8.547748 11.304821,-9.696042 1.260731,-0.280589 1.774741,-0.330655 3.394876,-0.330655 1.321798,0 1.578463,0.01244 2.177405,0.105399 1.317012,0.204452 2.421698,0.494115 3.525428,0.924428 4.922456,1.919124 8.547918,6.146122 9.696042,11.304819 0.280596,1.260727 0.330691,1.774738 0.330691,3.394876 0,1.620136 -0.05005,2.134146 -0.330691,3.394873 -1.335747,6.001705 -6.002785,10.668738 -12.003998,12.003969 -1.136802,0.252859 -1.757418,0.318804 -3.160749,0.335502 -0.721118,0.0084 -1.490232,-0.0025 -1.709145,-0.02468 z m 0.272572,-5.102172 c 1.154144,-0.325368 1.806277,-1.017639 2.221436,-2.358247 l 0.103772,-0.335063 0.02399,-6.47478 0.024,-6.474783 0.44913,0.273841 c 1.498081,0.91341 2.479242,1.981698 2.784503,3.031764 0.167886,0.577546 0.0072,2.859849 -0.346638,4.926247 -0.07168,0.418506 -0.114953,0.76092 -0.09615,0.76092 0.05219,0 0.446576,-0.539915 0.654727,-0.896318 0.381251,-0.652888 0.708741,-1.560311 0.893974,-2.477271 0.09548,-0.472539 0.10809,-0.667307 0.106315,-1.636771 -0.0019,-1.044692 -0.0084,-1.123949 -0.127937,-1.565325 -0.25222,-0.931009 -0.646588,-1.570549 -1.647952,-2.672417 -1.080065,-1.188475 -1.358693,-1.589013 -1.81564,-2.610059 -0.282175,-0.63052 -0.851564,-2.144951 -0.894971,-2.380403 -0.04375,-0.237249 -0.254131,-0.423752 -0.506099,-0.448629 -0.233817,-0.02309 -0.385521,0.04416 -0.525838,0.233142 l -0.09817,0.132199 -0.02337,7.145191 -0.02335,7.145188 -0.491673,0.08342 c -1.601092,0.271669 -3.372755,1.111164 -4.284611,2.030216 -0.588908,0.593554 -0.819452,1.118167 -0.819452,1.864659 0,0.79411 0.229082,1.34433 0.79401,1.907086 0.497091,0.495169 1.047903,0.751022 1.913178,0.888668 0.423849,0.0674 1.338865,0.01889 1.732887,-0.09246 z"
       id="path5" />
  </g>
</svg>
