<?xml version="1.0" encoding="UTF-8" standalone="no"?>
<svg
   width="64"
   height="64"
   version="1.1"
   id="svg73"
   sodipodi:docname="Logo.svg"
   inkscape:version="1.3.2 (091e20ef0f, 2023-11-25)"
   xmlns:inkscape="http://www.inkscape.org/namespaces/inkscape"
   xmlns:sodipodi="http://sodipodi.sourceforge.net/DTD/sodipodi-0.dtd"
   xmlns="http://www.w3.org/2000/svg"
   xmlns:svg="http://www.w3.org/2000/svg"
   xmlns:rdf="http://www.w3.org/1999/02/22-rdf-syntax-ns#"
   xmlns:cc="http://creativecommons.org/ns#"
   xmlns:dc="http://purl.org/dc/elements/1.1/">
  <metadata
     id="metadata77">
    <rdf:RDF>
      <cc:Work
         rdf:about="">
        <dc:format>image/svg+xml</dc:format>
        <dc:type
           rdf:resource="http://purl.org/dc/dcmitype/StillImage" />
      </cc:Work>
    </rdf:RDF>
  </metadata>
  <sodipodi:namedview
     pagecolor="#f5f7fa"
     bordercolor="#666666"
     borderopacity="1"
     objecttolerance="10"
     gridtolerance="10"
     guidetolerance="10"
     inkscape:pageopacity="0"
     inkscape:pageshadow="2"
     inkscape:window-width="1377"
     inkscape:window-height="886"
     id="namedview75"
     showgrid="false"
     inkscape:zoom="4.4470387"
     inkscape:cx="4.4973749"
     inkscape:cy="46.885133"
     inkscape:window-x="181"
     inkscape:window-y="77"
     inkscape:window-maximized="0"
     inkscape:current-layer="g877"
     inkscape:document-rotation="0"
     inkscape:pagecheckerboard="0"
     inkscape:showpageshadow="2"
     inkscape:deskcolor="#d1d1d1" />
  <defs
     id="defs29">
    <linearGradient
       id="b"
       x1="399.57"
       x2="399.57"
       y1="545.8"
       y2="517.8"
       gradientTransform="matrix(2.1429,0,0,2.1429,-825.86391,-1107.6662)"
       gradientUnits="userSpaceOnUse">
      <stop
         stop-color="#3889e9"
         offset="0"
         id="stop2" />
      <stop
         stop-color="#5ea5fb"
         offset="1"
         id="stop4" />
    </linearGradient>
    <linearGradient
       id="d"
       x2="1"
       gradientTransform="matrix(14.905727,-4.7106182,4.7106182,14.905727,322.04962,998.26962)"
       gradientUnits="userSpaceOnUse">
      <stop
         stop-color="#fafafa"
         offset="0"
         id="stop7" />
      <stop
         stop-color="#aaa"
         offset="1"
         id="stop8" />
    </linearGradient>
    <linearGradient
       id="e"
       x2="1"
       gradientTransform="matrix(21.439909,0,0,21.439909,26.63554,1159.7788)"
       gradientUnits="userSpaceOnUse">
      <stop
         stop-color="#f0f0f0"
         offset="0"
         id="stop9" />
      <stop
         stop-color="#b7f1ff"
         offset="1"
         id="stop10" />
    </linearGradient>
  </defs>
  <circle
     cx="32.516094"
     cy="31.877844"
     r="0"
     fill="url(#b)"
     stroke-width="1.5715"
     id="circle41"
     style="fill:url(#b)" />
  <g
     aria-label="GZ"
     transform="matrix(1.2212657,0,0,0.81882264,0.4960938,-0.1661539)"
     id="text93"
     style="font-weight:bold;font-size:11.5263px;line-height:1.25;font-family:sans-serif;-inkscape-font-specification:'sans-serif Bold';fill:#f2f2f2;stroke-width:0.288159" />
  <g
     id="g877"
     transform="matrix(1.1,0,0,1.1,-3.1845928,-3.2065454)">
    <rect
       x="6.3010068"
       y="5.4939413"
       width="51.635597"
       height="53.148327"
       rx="10.980581"
       ry="10.720582"
       fill="url(#linearGradient862)"
       stroke-width="3.0541"
       id="rect35-7-3"
       style="fill:#414141;fill-opacity:1;stroke:#dfdfdf;stroke-width:2.27272727;stroke-dasharray:none;stroke-opacity:1" />
    <path
       style="fill:#dfdfdf;fill-opacity:1;stroke-width:0.13645"
       d="m 28.531432,57.488006 c -0.450284,-0.12497 -0.953982,0.639387 -1.296004,0.461845 -0.764372,-0.396779 -5.082072,-0.4897 -7.490516,-0.293878 C 14.733159,58.063461 7.4937373,55.397652 7.5043867,51.857857 L 7.0122538,47.344242 6.7534177,44.240014 C 6.3395133,39.276049 7.2236819,33.284596 7.4727031,32.959082 c 0.125078,-0.163502 1.005179,-0.511956 1.955778,-0.774342 1.9082809,-0.526727 3.5528449,-1.092599 5.2439179,-1.804361 0.612024,-0.257598 1.189756,-0.468359 1.283851,-0.468359 0.0941,0 0.227195,0.716362 0.295776,1.591912 0.260544,3.326284 1.279186,6.878541 2.618591,9.13167 1.105173,1.859111 2.831512,4.019172 3.977253,4.976487 1.468327,1.22685 3.350207,2.12583 4.691277,2.241038 1.82576,0.156848 1.915496,0.192873 1.725467,0.692688 -0.09122,0.239933 -0.295212,1.062475 -0.453309,1.827877 -0.373958,1.810436 -0.136007,3.96608 0.638771,5.786783 0.295253,0.69383 0.536822,1.334807 0.536822,1.424397 0,0.212864 -0.446497,0.183147 -1.455463,-0.09687 z m 9.496306,-9.573881 c -0.230472,-0.09247 -0.926366,-0.525947 -1.546431,-0.963282 -0.620066,-0.437338 -2.150763,-1.221844 -3.401553,-1.743345 -5.438959,-2.267712 -6.861293,-3.242127 -8.644575,-5.922236 -1.108955,-1.666654 -1.781957,-3.15558 -2.297099,-5.082007 -0.421498,-1.576233 -0.799141,-4.139618 -0.662368,-4.496043 0.06745,-0.175784 0.614721,-0.352157 1.578227,-0.508626 0.811234,-0.131741 1.474969,-0.301519 1.474969,-0.377285 0,-0.07577 -0.444195,-0.174589 -0.9871,-0.21961 -2.899501,-0.240452 -5.744417,-3.113172 -5.744417,-5.800566 0,-1.313052 0.888739,-1.805524 3.25205,-1.80204 1.997109,0.003 3.337297,0.769431 5.237633,2.995524 0.557389,0.652935 1.081113,1.187155 1.163832,1.187155 0.08272,0 -0.01076,-0.36433 -0.207734,-0.809623 -0.824668,-1.864299 -0.81728,-3.927414 0.0199,-5.558027 0.83908,-1.634304 2.813803,-3.274793 3.942002,-3.274793 0.772761,0 0.766682,0.22682 -0.04208,1.569873 -0.679293,1.128057 -1.176113,2.540788 -1.176113,3.344319 v 0.481757 l 1.119669,-0.554959 c 0.963446,-0.477529 1.366118,-0.564859 2.885992,-0.625905 2.12383,-0.0853 3.325246,0.210759 4.635512,1.142325 1.045682,0.743454 1.279616,0.653346 1.561559,-0.60149 0.201829,-0.89828 0.01432,-1.868977 -0.6521,-3.37588 -0.308768,-0.698184 -0.411225,-1.131707 -0.29494,-1.247992 0.601752,-0.601753 2.774941,1.22512 3.582168,3.011322 0.960309,2.124932 0.709845,4.133373 -0.754734,6.052071 -0.684544,0.896804 -0.83806,1.64804 -0.302969,1.482601 0.17511,-0.05414 0.824775,-0.310413 1.443692,-0.569495 1.619588,-0.677963 2.739602,-0.85205 4.025038,-0.625624 2.051955,0.361443 2.80105,1.192866 2.414846,2.68022 -0.627868,2.418011 -3.294146,4.19518 -5.971568,3.980263 l -1.176451,-0.09443 -0.346311,0.782897 c -0.190474,0.430593 -0.396907,1.03587 -0.458746,1.345059 -0.06184,0.309188 -0.180911,0.56216 -0.264611,0.56216 -0.395994,0 -0.619271,-1.643657 -0.572618,-4.215268 0.04204,-2.317497 -3.45e-4,-2.796511 -0.320993,-3.638659 -0.808472,-2.122474 -2.524951,-3.69255 -4.632351,-4.237245 -1.724761,-0.445794 -3.197659,-0.273691 -3.930631,0.45928 -0.886196,0.886197 -0.208339,2.259485 2.534391,5.134463 2.64973,2.777497 2.913132,3.120026 4.716703,6.133562 1.818042,3.037712 3.484869,5.132529 5.087432,6.39372 0.675009,0.531224 1.293595,1.049689 1.374632,1.152144 0.209061,0.264306 0.01831,3.88806 -0.242328,4.603686 -0.241918,0.664228 -0.974656,1.131553 -1.774213,1.131553 -0.287525,0 -1.206586,0.204674 -2.04236,0.454832 -1.557064,0.46605 -2.860621,0.561441 -3.602861,0.263647 z m 5.642747,-4.311655 c 0.11701,-0.275173 0.371224,-0.680357 0.564913,-0.900407 0.662437,-0.752595 0.347229,-0.904932 -2.088945,-1.009578 -1.861259,-0.07996 -2.298545,-0.04847 -2.562597,0.184516 -0.340364,0.30031 -0.430169,0.77032 -0.147187,0.77032 0.09416,0 0.221793,-0.08186 0.283637,-0.181931 0.06185,-0.100062 0.38821,-0.181933 0.725262,-0.181933 0.444321,0 0.715819,0.13094 0.987416,0.476216 0.206023,0.261918 0.327519,0.552383 0.269985,0.645477 -0.256773,0.41546 0.117954,0.697635 0.926452,0.697635 0.730745,0 0.85337,-0.05893 1.041064,-0.500315 z M 33.157726,32.537052 c 0.515722,-0.515724 0.32009,-1.122485 -0.449458,-1.393987 -0.426572,-0.150497 -0.947528,0.329526 -0.947528,0.873078 0,0.77394 0.833251,1.084643 1.396986,0.520909 z m -6.197108,13.681982 c -2.044919,-0.66904 -4.174613,-2.371064 -5.655791,-4.520037 -2.248328,-3.26199 -3.299663,-6.4122 -3.604441,-10.800305 L 17.573054,29.065404 18.5289,28.654213 c 0.7737,-0.332838 0.985223,-0.364849 1.110013,-0.167976 0.08479,0.133771 0.156133,0.325089 0.158535,0.425153 0.01907,0.794538 0.588038,4.734111 0.790386,5.4727 0.677375,2.472478 1.598623,4.398268 2.965934,6.200036 1.594891,2.10166 2.913157,3.030241 4.754775,3.349244 1.422297,0.246367 3.679613,1.066532 3.679613,1.336936 0,0.121517 -0.343943,0.414248 -0.764319,0.650512 -0.937799,0.527073 -3.101179,0.678402 -4.263219,0.298216 z"
       id="path1"
       sodipodi:nodetypes="sssscssssssssssssssscssssssscscssssssscssssssssssscscsssscsssssssssccsssssssssssssssssscsssssssss" />
  </g>
</svg>
