<?xml version="1.0" encoding="UTF-8" standalone="no"?>
<svg
   width="64"
   height="64"
   version="1.1"
   id="svg73"
   sodipodi:docname="accessories-text-editor.svg"
   inkscape:version="1.4.2 (ebf0e940d0, 2025-05-08)"
   xmlns:inkscape="http://www.inkscape.org/namespaces/inkscape"
   xmlns:sodipodi="http://sodipodi.sourceforge.net/DTD/sodipodi-0.dtd"
   xmlns="http://www.w3.org/2000/svg"
   xmlns:svg="http://www.w3.org/2000/svg"
   xmlns:rdf="http://www.w3.org/1999/02/22-rdf-syntax-ns#"
   xmlns:cc="http://creativecommons.org/ns#"
   xmlns:dc="http://purl.org/dc/elements/1.1/">
  <metadata
     id="metadata77">
    <rdf:RDF>
      <cc:Work
         rdf:about="">
        <dc:format>image/svg+xml</dc:format>
        <dc:type
           rdf:resource="http://purl.org/dc/dcmitype/StillImage" />
      </cc:Work>
    </rdf:RDF>
  </metadata>
  <sodipodi:namedview
     pagecolor="#f5f7fa"
     bordercolor="#666666"
     borderopacity="1"
     objecttolerance="10"
     gridtolerance="10"
     guidetolerance="10"
     inkscape:pageopacity="0"
     inkscape:pageshadow="2"
     inkscape:window-width="1377"
     inkscape:window-height="886"
     id="namedview75"
     showgrid="false"
     inkscape:zoom="6.2890624"
     inkscape:cx="47.622361"
     inkscape:cy="45.396274"
     inkscape:window-x="264"
     inkscape:window-y="75"
     inkscape:window-maximized="0"
     inkscape:current-layer="g877"
     inkscape:document-rotation="0"
     inkscape:pagecheckerboard="0"
     inkscape:showpageshadow="2"
     inkscape:deskcolor="#d1d1d1" />
  <defs
     id="defs29" />
  <circle
     cx="32.516094"
     cy="31.877844"
     r="0"
     fill="url(#b)"
     stroke-width="1.5715"
     id="circle41"
     style="fill:url(#b)" />
  <g
     aria-label="GZ"
     transform="matrix(1.2212657,0,0,0.81882264,0.4960938,-0.1661539)"
     id="text93"
     style="font-weight:bold;font-size:11.5263px;line-height:1.25;font-family:sans-serif;-inkscape-font-specification:'sans-serif Bold';fill:#f2f2f2;stroke-width:0.288159" />
  <g
     id="g877"
     transform="matrix(1.1,0,0,1.1,-3.1845928,-3.2065454)">
    <rect
       x="8.3496294"
       y="8.369586"
       width="47.272728"
       height="47.272728"
       rx="9.8825235"
       ry="9.6485243"
       fill="url(#linearGradient862)"
       stroke-width="3.0541"
       id="rect35-7-3"
       style="fill:#414141;fill-opacity:1;stroke:#dfdfdf;stroke-width:2.04545;stroke-dasharray:none;stroke-opacity:1" />
    <path
       style="fill:#dfdfdf;fill-opacity:1;stroke-width:0.023715"
       d="m 22.386018,47.463634 c -1.479178,-0.189954 -2.743385,-1.229949 -3.23137,-2.658271 -0.03984,-0.116582 -0.09839,-0.330055 -0.130135,-0.474309 -0.05531,-0.251388 -0.05771,-0.764198 -0.05771,-12.325344 0,-11.561147 0.0024,-12.073947 0.05771,-12.325355 0.183592,-0.834471 0.513099,-1.429015 1.12513,-2.030125 0.414863,-0.407464 0.743053,-0.630411 1.212554,-0.823722 0.553393,-0.227853 1.00295,-0.311994 1.675676,-0.313622 l 0.403152,-9.94e-4 v 12.358826 12.358826 l -0.466392,0.01846 c -0.332616,0.01333 -0.532865,0.03731 -0.698127,0.08448 -1.009135,0.28797 -1.681281,1.172774 -1.681281,2.213172 0,0.670192 0.202796,1.15747 0.680284,1.634597 0.245355,0.245165 0.334799,0.311251 0.587178,0.433653 0.403372,0.195626 0.616032,0.240481 1.143565,0.241062 l 0.434773,7.51e-4 v 0.822117 0.822119 l -0.418962,-0.0045 c -0.230431,-0.0022 -0.516652,-0.01641 -0.636047,-0.03178 z m 2.69925,-0.78604 v -0.822325 h 9.152626 9.152633 l 0.0092,-1.25689 c 0.01,-1.385928 0.0027,-1.333334 0.218326,-1.551919 0.403501,-0.409289 1.069019,-0.291832 1.313373,0.231763 l 0.07381,0.158088 -7.51e-4,1.707484 c -7.53e-4,1.649015 -0.0026,1.712349 -0.06471,1.849768 -0.07873,0.17419 -0.224686,0.330875 -0.392765,0.421733 l -0.126495,0.06838 -9.667812,0.0079 -9.667818,0.0079 z m 0,-17.802114 V 16.511505 l 9.667816,0.008 9.667812,0.008 0.128652,0.06886 c 0.168889,0.09038 0.339628,0.282589 0.405123,0.455922 0.04875,0.129076 0.05198,0.995809 0.04396,11.870264 l -0.0086,11.731023 -0.0693,0.129472 c -0.08086,0.151078 -0.2479,0.306156 -0.414097,0.384422 -0.110804,0.05217 -0.657345,0.05577 -9.769402,0.06349 l -9.652012,0.0082 z"
       id="path1" />
  </g>
</svg>
