<?xml version="1.0" encoding="UTF-8" standalone="no"?>
<svg
   width="64"
   height="64"
   version="1.1"
   id="svg73"
   sodipodi:docname="ca.desrt.dconf-editor.svg"
   inkscape:version="1.4.2 (ebf0e940d0, 2025-05-08)"
   xmlns:inkscape="http://www.inkscape.org/namespaces/inkscape"
   xmlns:sodipodi="http://sodipodi.sourceforge.net/DTD/sodipodi-0.dtd"
   xmlns="http://www.w3.org/2000/svg"
   xmlns:svg="http://www.w3.org/2000/svg"
   xmlns:rdf="http://www.w3.org/1999/02/22-rdf-syntax-ns#"
   xmlns:cc="http://creativecommons.org/ns#"
   xmlns:dc="http://purl.org/dc/elements/1.1/">
  <metadata
     id="metadata77">
    <rdf:RDF>
      <cc:Work
         rdf:about="">
        <dc:format>image/svg+xml</dc:format>
        <dc:type
           rdf:resource="http://purl.org/dc/dcmitype/StillImage" />
      </cc:Work>
    </rdf:RDF>
  </metadata>
  <sodipodi:namedview
     pagecolor="#f5f7fa"
     bordercolor="#666666"
     borderopacity="1"
     objecttolerance="10"
     gridtolerance="10"
     guidetolerance="10"
     inkscape:pageopacity="0"
     inkscape:pageshadow="2"
     inkscape:window-width="1377"
     inkscape:window-height="886"
     id="namedview75"
     showgrid="false"
     inkscape:zoom="6.2890624"
     inkscape:cx="47.622361"
     inkscape:cy="45.396274"
     inkscape:window-x="147"
     inkscape:window-y="75"
     inkscape:window-maximized="0"
     inkscape:current-layer="g877"
     inkscape:document-rotation="0"
     inkscape:pagecheckerboard="0"
     inkscape:showpageshadow="2"
     inkscape:deskcolor="#d1d1d1" />
  <defs
     id="defs29">
    <linearGradient
       id="b"
       x1="399.57"
       x2="399.57"
       y1="545.8"
       y2="517.8"
       gradientTransform="matrix(2.1429,0,0,2.1429,-825.86391,-1107.6662)"
       gradientUnits="userSpaceOnUse">
      <stop
         stop-color="#3889e9"
         offset="0"
         id="stop2" />
      <stop
         stop-color="#5ea5fb"
         offset="1"
         id="stop4" />
    </linearGradient>
  </defs>
  <circle
     cx="32.516094"
     cy="31.877844"
     r="0"
     fill="url(#b)"
     stroke-width="1.5715"
     id="circle41"
     style="fill:url(#b)" />
  <g
     aria-label="GZ"
     transform="matrix(1.2212657,0,0,0.81882264,0.4960938,-0.1661539)"
     id="text93"
     style="font-weight:bold;font-size:11.5263px;line-height:1.25;font-family:sans-serif;-inkscape-font-specification:'sans-serif Bold';fill:#f2f2f2;stroke-width:0.288159" />
  <g
     id="g877"
     transform="matrix(1.1,0,0,1.1,-3.1845928,-3.2065454)">
    <rect
       x="8.3496294"
       y="8.369586"
       width="47.272728"
       height="47.272728"
       rx="9.8825235"
       ry="9.6485243"
       fill="url(#linearGradient862)"
       stroke-width="3.0541"
       id="rect35-7-3"
       style="fill:#414141;fill-opacity:1;stroke:#dfdfdf;stroke-width:2.04545;stroke-dasharray:none;stroke-opacity:1" />
    <path
       id="path2-1"
       style="fill:#dfdfdf;fill-opacity:1;stroke:none;stroke-width:0.496125;stroke-dasharray:none;stroke-opacity:0.6"
       d="m 43.401666,16.043424 -0.220997,0.854584 c -0.443633,1.705617 -1.554213,3.693833 -2.807114,5.026805 l -0.647583,0.688144 -1.194456,-0.6308 c -2.134482,-1.127655 -4.255329,-1.667208 -6.547155,-1.667208 -2.484245,0 -4.858996,0.645012 -7.042282,1.913373 l -0.667162,0.387431 -0.509116,-0.496527 c -0.659774,-0.64356 -1.502162,-1.784388 -2.007084,-2.716209 -0.431791,-0.796858 -1.098877,-2.595485 -1.111938,-2.998738 -0.0076,-0.239146 -0.01155,-0.239965 -0.106303,-0.01961 -0.155841,0.362672 -0.127488,1.958948 0.05455,3.081259 0.230003,1.418089 0.525626,2.315865 1.194459,3.629537 l 0.570655,1.120357 -0.699329,0.746889 c -3.254359,3.478916 -4.387148,8.93324 -2.825306,13.595027 1.59035,4.74688 5.752721,8.357099 10.655035,9.242387 1.226532,0.221439 3.64736,0.225052 4.898125,0.0071 7.306886,-1.274296 12.335917,-8.213295 11.308208,-15.6022 -0.359785,-2.5868 -1.700247,-5.437378 -3.425326,-7.281488 L 41.60997,24.21721 42.175031,23.091286 c 0.310356,-0.619578 0.696928,-1.587509 0.858785,-2.151147 0.357779,-1.245914 0.577016,-3.276337 0.455969,-4.212781 z m -1.630839,16.909864 c 0.136612,0 0.538696,1.085943 0.646177,1.745536 0.365581,2.2432 -1.31507,4.601728 -3.657507,5.1345 -2.001215,0.455168 -3.783725,-0.04748 -5.063171,-1.429433 -0.35553,-0.38402 -0.603746,-0.739992 -0.552472,-0.790252 0.11928,-0.116908 2.951781,-1.685396 4.363833,-2.41689 0.594956,-0.308207 1.78106,-0.938549 2.636489,-1.401462 0.855426,-0.462914 1.587405,-0.841999 1.626651,-0.841999 z m -19.628877,0.05175 c 0.05842,-0.03612 0.990979,0.412949 2.071423,0.997249 1.080449,0.584301 2.117124,1.129323 2.305002,1.211246 0.187885,0.0819 0.905584,0.470881 1.594479,0.864373 0.688893,0.393492 1.599651,0.905465 2.023869,1.137112 l 0.772065,0.420999 -0.233577,0.325867 c -0.607925,0.853769 -1.711147,1.579596 -2.875656,1.889608 -1.154861,0.307457 -2.656577,0.139547 -3.75262,-0.419597 -0.703993,-0.359135 -1.718762,-1.381066 -2.051843,-2.065822 -0.393167,-0.80827 -0.581019,-1.78745 -0.48254,-2.513397 0.08777,-0.647063 0.461223,-1.7437 0.629398,-1.847638 z m 15.37553,2.334373 c -0.0989,0.0035 -0.273056,0.09739 -0.64758,0.304907 l -0.693741,0.383234 0.220997,0.65457 c 0.164399,0.486949 0.210411,0.879618 0.180429,1.539935 -0.03496,0.770188 -0.02015,0.860083 0.116087,0.683955 0.589526,-0.762585 1.211044,-2.938414 0.977672,-3.423938 -0.04494,-0.09344 -0.07692,-0.145403 -0.15383,-0.142666 z m -11.165546,0.0043 c -0.172876,0 -0.143565,0.880259 0.05595,1.646223 0.0959,0.368163 0.339699,0.98041 0.541285,1.35951 l 0.366451,0.689548 0.06713,-1.078381 c 0.03713,-0.593174 0.150919,-1.272305 0.251763,-1.507745 l 0.183217,-0.427967 -0.674155,-0.339875 c -0.37102,-0.18733 -0.727224,-0.341312 -0.79164,-0.341312 z" />
    <rect
       x="37.737823"
       y="37.757782"
       width="22.610399"
       height="22.610399"
       rx="4.7267799"
       ry="4.6148596"
       fill="url(#linearGradient862)"
       stroke-width="3.0541"
       id="rect35-7-3-1"
       style="fill:#414141;fill-opacity:1;stroke:#dfdfdf;stroke-width:0.978336;stroke-dasharray:none;stroke-opacity:1" />
    <path
       style="fill:#dfdfdf;fill-opacity:1;stroke:none;stroke-width:0.447526;stroke-dasharray:none;stroke-opacity:0.6"
       d="m 50.724554,41.547317 c -3.299678,0 -6.025878,2.702023 -6.025878,6.005468 0,1.255577 0.424021,2.410703 1.089434,3.378125 l -4.01729,4.026399 a 1.0954262,1.0979082 0 0 0 1.532073,1.569607 l 4.017291,-4.026391 c 0.966642,0.667053 2.14945,1.057777 3.404479,1.057777 3.299786,0 5.99188,-2.702018 5.99188,-6.005466 0,-3.303443 -2.692094,-6.005462 -5.99188,-6.005462 z m 0,2.183806 c 2.121563,0 3.813021,1.697693 3.813021,3.821662 0,2.123857 -1.691458,3.821657 -3.813021,3.821657 -2.121565,0 -3.81302,-1.6978 -3.81302,-3.821657 0,-2.123969 1.691455,-3.821662 3.81302,-3.821662 z"
       id="path8" />
  </g>
</svg>
