<?xml version="1.0" encoding="UTF-8" standalone="no"?>
<svg
   width="64"
   height="64"
   version="1.1"
   id="svg73"
   sodipodi:docname="audacious.svg"
   inkscape:version="1.4.2 (ebf0e940d0, 2025-05-08)"
   xmlns:inkscape="http://www.inkscape.org/namespaces/inkscape"
   xmlns:sodipodi="http://sodipodi.sourceforge.net/DTD/sodipodi-0.dtd"
   xmlns="http://www.w3.org/2000/svg"
   xmlns:svg="http://www.w3.org/2000/svg"
   xmlns:rdf="http://www.w3.org/1999/02/22-rdf-syntax-ns#"
   xmlns:cc="http://creativecommons.org/ns#"
   xmlns:dc="http://purl.org/dc/elements/1.1/">
  <metadata
     id="metadata77">
    <rdf:RDF>
      <cc:Work
         rdf:about="">
        <dc:format>image/svg+xml</dc:format>
        <dc:type
           rdf:resource="http://purl.org/dc/dcmitype/StillImage" />
      </cc:Work>
    </rdf:RDF>
  </metadata>
  <sodipodi:namedview
     pagecolor="#f5f7fa"
     bordercolor="#666666"
     borderopacity="1"
     objecttolerance="10"
     gridtolerance="10"
     guidetolerance="10"
     inkscape:pageopacity="0"
     inkscape:pageshadow="2"
     inkscape:window-width="1377"
     inkscape:window-height="886"
     id="namedview75"
     showgrid="false"
     inkscape:zoom="6.2890624"
     inkscape:cx="34.742858"
     inkscape:cy="35.06087"
     inkscape:window-x="1"
     inkscape:window-y="75"
     inkscape:window-maximized="0"
     inkscape:current-layer="g877"
     inkscape:document-rotation="0"
     inkscape:pagecheckerboard="0"
     inkscape:showpageshadow="2"
     inkscape:deskcolor="#d1d1d1" />
  <defs
     id="defs29" />
  <circle
     cx="32.516094"
     cy="31.877844"
     r="0"
     fill="url(#b)"
     stroke-width="1.5715"
     id="circle41"
     style="fill:url(#b)" />
  <g
     aria-label="GZ"
     transform="matrix(1.2212657,0,0,0.81882264,0.4960938,-0.1661539)"
     id="text93"
     style="font-weight:bold;font-size:11.5263px;line-height:1.25;font-family:sans-serif;-inkscape-font-specification:'sans-serif Bold';fill:#f2f2f2;stroke-width:0.288159" />
  <g
     id="g877"
     transform="matrix(1.1,0,0,1.1,-3.1845928,-3.2065454)">
    <rect
       x="8.3496294"
       y="8.369586"
       width="47.272728"
       height="47.272728"
       rx="9.8825235"
       ry="9.6485243"
       fill="url(#linearGradient862)"
       stroke-width="3.0541"
       id="rect35-7-3"
       style="fill:#414141;fill-opacity:1;stroke:#dfdfdf;stroke-width:2.04545;stroke-dasharray:none;stroke-opacity:1" />
    <path
       id="path4"
       style="fill:#dfdfdf;stroke:none;stroke-width:0.506611;stroke-dasharray:none;stroke-opacity:0.6;fill-opacity:1"
       d="m 26.270045,16.628689 c -9.121867,0 -9.260183,0.0022 -9.45957,0.201544 -0.199376,0.199384 -0.201541,0.337701 -0.201541,9.459568 0,9.121866 0.0022,9.260181 0.201541,9.45957 0.199387,0.1994 0.337702,0.201539 9.45957,0.201539 9.12187,0 9.260182,-0.0022 9.459566,-0.201539 0.199414,-0.199391 0.201541,-0.337704 0.201541,-9.45957 0,-9.121867 -0.0022,-9.260182 -0.201541,-9.459568 -0.199386,-0.199385 -0.337696,-0.201544 -9.459566,-0.201544 z m 11.386076,5.66527 -0.02842,6.920512 -0.02664,6.922099 -0.306293,0.434813 c -0.168972,0.239699 -0.503449,0.5742 -0.743134,0.742675 l -0.434814,0.306294 -6.922098,0.02664 -6.920513,0.02842 v 1.748782 c 0,1.817686 0.02594,1.940424 0.455445,2.17724 0.144129,0.07943 2.827446,0.105322 9.32944,0.08887 l 9.127905,-0.0231 0.23007,-0.230071 0.230068,-0.230069 0.02878,-9.026348 c 0.01563,-4.964494 0.0025,-9.129834 -0.02878,-9.256443 -0.03089,-0.126607 -0.145599,-0.320188 -0.2555,-0.430054 -0.18368,-0.183661 -0.341856,-0.199948 -1.967767,-0.199948 z m 5.768413,5.665267 -0.02877,6.803081 c -0.02878,6.740578 -0.03019,6.807096 -0.245946,7.209335 -0.276389,0.516011 -0.682102,0.921739 -1.19811,1.198122 -0.402127,0.215397 -0.46977,0.217565 -7.158555,0.245982 l -6.752299,0.02878 v 1.759883 1.759875 l 0.266598,0.209468 c 0.265197,0.208614 0.312815,0.209468 9.394502,0.209468 9.081696,0 9.129309,-8.92e-4 9.394513,-0.209468 l 0.266584,-0.209476 V 37.67112 28.378176 l -0.266589,-0.209474 c -0.245556,-0.193268 -0.399718,-0.209478 -1.96922,-0.209478 z" />
  </g>
</svg>
