<?xml version="1.0" encoding="UTF-8" standalone="no"?>
<svg
   width="64"
   height="64"
   version="1.1"
   id="svg73"
   sodipodi:docname="Logo.svg"
   inkscape:version="1.3.2 (091e20ef0f, 2023-11-25)"
   xmlns:inkscape="http://www.inkscape.org/namespaces/inkscape"
   xmlns:sodipodi="http://sodipodi.sourceforge.net/DTD/sodipodi-0.dtd"
   xmlns="http://www.w3.org/2000/svg"
   xmlns:svg="http://www.w3.org/2000/svg"
   xmlns:rdf="http://www.w3.org/1999/02/22-rdf-syntax-ns#"
   xmlns:cc="http://creativecommons.org/ns#"
   xmlns:dc="http://purl.org/dc/elements/1.1/">
  <metadata
     id="metadata77">
    <rdf:RDF>
      <cc:Work
         rdf:about="">
        <dc:format>image/svg+xml</dc:format>
        <dc:type
           rdf:resource="http://purl.org/dc/dcmitype/StillImage" />
      </cc:Work>
    </rdf:RDF>
  </metadata>
  <sodipodi:namedview
     pagecolor="#f5f7fa"
     bordercolor="#666666"
     borderopacity="1"
     objecttolerance="10"
     gridtolerance="10"
     guidetolerance="10"
     inkscape:pageopacity="0"
     inkscape:pageshadow="2"
     inkscape:window-width="1377"
     inkscape:window-height="886"
     id="namedview75"
     showgrid="false"
     inkscape:zoom="6.2890624"
     inkscape:cx="28.939131"
     inkscape:cy="27.905591"
     inkscape:window-x="181"
     inkscape:window-y="77"
     inkscape:window-maximized="0"
     inkscape:current-layer="g877"
     inkscape:document-rotation="0"
     inkscape:pagecheckerboard="0"
     inkscape:showpageshadow="2"
     inkscape:deskcolor="#d1d1d1" />
  <defs
     id="defs29">
    <linearGradient
       id="b"
       x1="399.57"
       x2="399.57"
       y1="545.8"
       y2="517.8"
       gradientTransform="matrix(2.1429,0,0,2.1429,-825.86391,-1107.6662)"
       gradientUnits="userSpaceOnUse">
      <stop
         stop-color="#3889e9"
         offset="0"
         id="stop2" />
      <stop
         stop-color="#5ea5fb"
         offset="1"
         id="stop4" />
    </linearGradient>
    <linearGradient
       id="d"
       x2="1"
       gradientTransform="matrix(14.905727,-4.7106182,4.7106182,14.905727,322.04962,998.26962)"
       gradientUnits="userSpaceOnUse">
      <stop
         stop-color="#fafafa"
         offset="0"
         id="stop7" />
      <stop
         stop-color="#aaa"
         offset="1"
         id="stop8" />
    </linearGradient>
    <linearGradient
       id="e"
       x2="1"
       gradientTransform="matrix(21.439909,0,0,21.439909,26.63554,1159.7788)"
       gradientUnits="userSpaceOnUse">
      <stop
         stop-color="#f0f0f0"
         offset="0"
         id="stop9" />
      <stop
         stop-color="#b7f1ff"
         offset="1"
         id="stop10" />
    </linearGradient>
  </defs>
  <circle
     cx="32.516094"
     cy="31.877844"
     r="0"
     fill="url(#b)"
     stroke-width="1.5715"
     id="circle41"
     style="fill:url(#b)" />
  <g
     aria-label="GZ"
     transform="matrix(1.2212657,0,0,0.81882264,0.4960938,-0.1661539)"
     id="text93"
     style="font-weight:bold;font-size:11.5263px;line-height:1.25;font-family:sans-serif;-inkscape-font-specification:'sans-serif Bold';fill:#f2f2f2;stroke-width:0.288159" />
  <g
     id="g877"
     transform="matrix(1.1,0,0,1.1,-3.1845928,-3.2065454)">
    <rect
       x="6.3010068"
       y="5.4939413"
       width="51.635597"
       height="53.148327"
       rx="10.980581"
       ry="10.720582"
       fill="url(#linearGradient862)"
       stroke-width="3.0541"
       id="rect35-7-3"
       style="fill:#414141;fill-opacity:1;stroke:#dfdfdf;stroke-width:2.27272727;stroke-dasharray:none;stroke-opacity:1" />
    <path
       style="fill:#dfdfdf;fill-opacity:1;stroke:none;stroke-width:1.31769;stroke-dasharray:none;stroke-dashoffset:2.2;stroke-opacity:0.3"
       d="m 39.876955,52.307563 c -0.30171,-0.191803 -3.935855,-3.583836 -8.075874,-7.537849 -4.14002,-3.954018 -7.611125,-7.181484 -7.713562,-7.172148 -0.102454,0.0093 -1.701414,1.155728 -3.553281,2.547533 -1.851866,1.391807 -3.554024,2.595745 -3.782574,2.675414 -0.624206,0.217603 -1.094948,-0.03203 -2.520024,-1.336256 -1.382818,-1.26557 -1.686925,-1.808895 -1.427525,-2.550455 0.100078,-0.286102 1.263319,-1.438503 3.256222,-3.225879 1.705287,-1.529425 3.100522,-2.830607 3.100522,-2.891518 0,-0.06091 -1.425248,-1.484616 -3.167217,-3.16379 -3.372925,-3.251335 -3.569397,-3.526012 -3.129942,-4.375825 0.126551,-0.244715 0.809499,-0.970968 1.517672,-1.613895 2.029923,-1.842904 1.687693,-1.933603 6.194271,1.641608 l 3.739995,2.967052 7.568237,-6.818397 c 4.162529,-3.750117 7.807307,-6.959453 8.099509,-7.131858 0.872666,-0.514883 1.431902,-0.34205 5.856683,1.810028 4.621002,2.247515 4.71145,2.29981 5.110922,2.954969 0.286591,0.470012 0.294949,0.871596 0.295501,14.226179 6.08e-4,14.805235 0.03542,14.141466 -0.77964,14.882685 -0.195173,0.177523 -2.227872,1.22562 -4.517036,2.329086 -4.630289,2.231985 -5.134283,2.379986 -6.07283,1.783316 z m 1.799463,-23.482984 -0.03983,-4.464207 -5.448595,4.080998 c -2.996728,2.24455 -5.578331,4.167442 -5.736902,4.273091 -0.261638,0.174324 0.242395,0.614469 5.448596,4.75803 l 5.736901,4.56594 0.0404,-4.374821 c 0.02212,-2.406152 0.02212,-6.383716 0,-8.839031 z"
       id="path72" />
  </g>
</svg>
