<?xml version="1.0" encoding="UTF-8" standalone="no"?>
<svg
   width="64"
   height="64"
   version="1.1"
   id="svg73"
   sodipodi:docname="Logo.svg"
   inkscape:version="1.3.2 (091e20ef0f, 2023-11-25)"
   xmlns:inkscape="http://www.inkscape.org/namespaces/inkscape"
   xmlns:sodipodi="http://sodipodi.sourceforge.net/DTD/sodipodi-0.dtd"
   xmlns="http://www.w3.org/2000/svg"
   xmlns:svg="http://www.w3.org/2000/svg"
   xmlns:rdf="http://www.w3.org/1999/02/22-rdf-syntax-ns#"
   xmlns:cc="http://creativecommons.org/ns#"
   xmlns:dc="http://purl.org/dc/elements/1.1/">
  <metadata
     id="metadata77">
    <rdf:RDF>
      <cc:Work
         rdf:about="">
        <dc:format>image/svg+xml</dc:format>
        <dc:type
           rdf:resource="http://purl.org/dc/dcmitype/StillImage" />
      </cc:Work>
    </rdf:RDF>
  </metadata>
  <sodipodi:namedview
     pagecolor="#f5f7fa"
     bordercolor="#666666"
     borderopacity="1"
     objecttolerance="10"
     gridtolerance="10"
     guidetolerance="10"
     inkscape:pageopacity="0"
     inkscape:pageshadow="2"
     inkscape:window-width="1377"
     inkscape:window-height="886"
     id="namedview75"
     showgrid="false"
     inkscape:zoom="6.2890624"
     inkscape:cx="28.939131"
     inkscape:cy="27.905591"
     inkscape:window-x="181"
     inkscape:window-y="77"
     inkscape:window-maximized="0"
     inkscape:current-layer="g877"
     inkscape:document-rotation="0"
     inkscape:pagecheckerboard="0"
     inkscape:showpageshadow="2"
     inkscape:deskcolor="#d1d1d1" />
  <defs
     id="defs29">
    <linearGradient
       id="b"
       x1="399.57"
       x2="399.57"
       y1="545.8"
       y2="517.8"
       gradientTransform="matrix(2.1429,0,0,2.1429,-825.86391,-1107.6662)"
       gradientUnits="userSpaceOnUse">
      <stop
         stop-color="#3889e9"
         offset="0"
         id="stop2" />
      <stop
         stop-color="#5ea5fb"
         offset="1"
         id="stop4" />
    </linearGradient>
    <linearGradient
       id="d"
       x2="1"
       gradientTransform="matrix(14.905727,-4.7106182,4.7106182,14.905727,322.04962,998.26962)"
       gradientUnits="userSpaceOnUse">
      <stop
         stop-color="#fafafa"
         offset="0"
         id="stop7" />
      <stop
         stop-color="#aaa"
         offset="1"
         id="stop8" />
    </linearGradient>
    <linearGradient
       id="e"
       x2="1"
       gradientTransform="matrix(21.439909,0,0,21.439909,26.63554,1159.7788)"
       gradientUnits="userSpaceOnUse">
      <stop
         stop-color="#f0f0f0"
         offset="0"
         id="stop9" />
      <stop
         stop-color="#b7f1ff"
         offset="1"
         id="stop10" />
    </linearGradient>
  </defs>
  <circle
     cx="32.516094"
     cy="31.877844"
     r="0"
     fill="url(#b)"
     stroke-width="1.5715"
     id="circle41"
     style="fill:url(#b)" />
  <g
     aria-label="GZ"
     transform="matrix(1.2212657,0,0,0.81882264,0.4960938,-0.1661539)"
     id="text93"
     style="font-weight:bold;font-size:11.5263px;line-height:1.25;font-family:sans-serif;-inkscape-font-specification:'sans-serif Bold';fill:#f2f2f2;stroke-width:0.288159" />
  <g
     id="g877"
     transform="matrix(1.1,0,0,1.1,-3.1845928,-3.2065454)">
    <rect
       x="6.3010068"
       y="5.4939413"
       width="51.635597"
       height="53.148327"
       rx="10.980581"
       ry="10.720582"
       fill="url(#linearGradient862)"
       stroke-width="3.0541"
       id="rect35-7-3"
       style="fill:#414141;fill-opacity:1;stroke:#dfdfdf;stroke-width:2.27272727;stroke-dasharray:none;stroke-opacity:1" />
    <path
       style="color:#000000;clip-rule:nonzero;display:inline;overflow:visible;visibility:visible;isolation:auto;mix-blend-mode:normal;color-interpolation:sRGB;color-interpolation-filters:linearRGB;solid-color:#000000;solid-opacity:1;fill:#dfdfdf;fill-opacity:1;fill-rule:nonzero;stroke:none;stroke-width:1.30451;stroke-linecap:butt;stroke-linejoin:miter;stroke-miterlimit:4;stroke-dasharray:none;stroke-dashoffset:0;stroke-opacity:0.3;marker:none;color-rendering:auto;image-rendering:auto;shape-rendering:auto;text-rendering:auto;enable-background:accumulate"
       d="m 29.365517,12.810497 c -0.506511,0 -0.928608,2.015246 -1.176373,4.895315 a 15.479719,15.945866 0 0 0 -3.74075,1.619501 c -2.160892,-1.865587 -3.848866,-2.991726 -4.207995,-2.62178 l -3.982621,4.102549 c -0.359131,0.369944 0.734091,2.108751 2.545138,4.334714 a 15.479719,15.945866 0 0 0 -1.558418,3.853397 c -2.803704,0.25498 -4.765948,0.689153 -4.765948,1.211797 v 5.798492 c 0,0.521767 1.956332,0.956575 4.75221,1.211801 a 15.479719,15.945866 0 0 0 1.566661,3.861884 c -1.806934,2.221987 -2.898343,3.956726 -2.539643,4.326224 l 3.982621,4.102552 c 0.358359,0.369119 2.040271,-0.752432 4.194257,-2.610456 a 15.479719,15.945866 0 0 0 3.754488,1.594019 c 0.247531,2.88814 0.669013,4.909468 1.176373,4.909468 h 5.628987 c 0.506511,0 0.928608,-2.01524 1.176373,-4.895309 a 15.479719,15.945866 0 0 0 3.740744,-1.619506 c 2.160901,1.86559 3.848875,2.991731 4.208001,2.621784 l 3.982614,-4.102552 c 0.359141,-0.369974 -0.734082,-2.108745 -2.545137,-4.334715 a 15.479719,15.945866 0 0 0 1.558425,-3.853393 c 2.80371,-0.254984 4.765949,-0.689157 4.765949,-1.211801 V 30.20599 c 0,-0.521767 -1.956335,-0.956573 -4.752207,-1.211797 a 15.479719,15.945866 0 0 0 -1.566664,-3.861887 c 1.806934,-2.221981 2.898344,-3.956723 2.539634,-4.326224 l -3.982614,-4.102549 c -0.358341,-0.369151 -2.040262,0.752435 -4.194256,2.610454 a 15.479719,15.945866 0 0 0 -3.754489,-1.594019 c -0.247526,-2.888137 -0.669011,-4.909467 -1.176373,-4.909467 z m 2.814494,13.04662 a 7.0362359,7.2481213 0 0 1 7.036237,7.24812 7.0362359,7.2481213 0 0 1 -7.036237,7.248121 7.0362359,7.2481213 0 0 1 -7.036238,-7.248121 7.0362359,7.2481213 0 0 1 7.036238,-7.24812 z"
       id="path4690"
       inkscape:connector-curvature="0" />
  </g>
</svg>
