<?xml version="1.0" encoding="UTF-8" standalone="no"?>
<svg
   width="64"
   height="64"
   version="1.1"
   id="svg73"
   sodipodi:docname="audacious.svg"
   inkscape:version="1.4.2 (ebf0e940d0, 2025-05-08)"
   xmlns:inkscape="http://www.inkscape.org/namespaces/inkscape"
   xmlns:sodipodi="http://sodipodi.sourceforge.net/DTD/sodipodi-0.dtd"
   xmlns="http://www.w3.org/2000/svg"
   xmlns:svg="http://www.w3.org/2000/svg"
   xmlns:rdf="http://www.w3.org/1999/02/22-rdf-syntax-ns#"
   xmlns:cc="http://creativecommons.org/ns#"
   xmlns:dc="http://purl.org/dc/elements/1.1/">
  <metadata
     id="metadata77">
    <rdf:RDF>
      <cc:Work
         rdf:about="">
        <dc:format>image/svg+xml</dc:format>
        <dc:type
           rdf:resource="http://purl.org/dc/dcmitype/StillImage" />
      </cc:Work>
    </rdf:RDF>
  </metadata>
  <sodipodi:namedview
     pagecolor="#f5f7fa"
     bordercolor="#666666"
     borderopacity="1"
     objecttolerance="10"
     gridtolerance="10"
     guidetolerance="10"
     inkscape:pageopacity="0"
     inkscape:pageshadow="2"
     inkscape:window-width="1377"
     inkscape:window-height="886"
     id="namedview75"
     showgrid="false"
     inkscape:zoom="6.2890624"
     inkscape:cx="35.696895"
     inkscape:cy="36.650932"
     inkscape:window-x="0"
     inkscape:window-y="75"
     inkscape:window-maximized="0"
     inkscape:current-layer="g877"
     inkscape:document-rotation="0"
     inkscape:pagecheckerboard="0"
     inkscape:showpageshadow="2"
     inkscape:deskcolor="#d1d1d1" />
  <defs
     id="defs29" />
  <circle
     cx="32.516094"
     cy="31.877844"
     r="0"
     fill="url(#b)"
     stroke-width="1.5715"
     id="circle41"
     style="fill:url(#b)" />
  <g
     aria-label="GZ"
     transform="matrix(1.2212657,0,0,0.81882264,0.4960938,-0.1661539)"
     id="text93"
     style="font-weight:bold;font-size:11.5263px;line-height:1.25;font-family:sans-serif;-inkscape-font-specification:'sans-serif Bold';fill:#f2f2f2;stroke-width:0.288159" />
  <g
     id="g877"
     transform="matrix(1.1,0,0,1.1,-3.1845928,-3.2065454)">
    <rect
       x="8.3496294"
       y="8.369586"
       width="47.272728"
       height="47.272728"
       rx="9.8825235"
       ry="9.6485243"
       fill="url(#linearGradient862)"
       stroke-width="3.0541"
       id="rect35-7-3"
       style="fill:#414141;fill-opacity:1;stroke:#dfdfdf;stroke-width:2.04545;stroke-dasharray:none;stroke-opacity:1" />
    <path
       d="m 31.823586,16.182286 c -0.378482,0.0066 -0.758282,0.0435 -1.130176,0.108143 -3.075337,0.936319 -5.182708,3.617349 -6.777084,6.265411 -2.508273,4.434977 -4.078913,9.558344 -3.757137,14.688307 0.473433,5.243375 4.841153,9.795723 10.055516,10.490701 0.573658,0.07648 1.15259,0.08573 1.730209,0.08963 5.393714,0.187222 10.50916,-3.912743 11.60901,-9.181173 0.788616,-3.78745 -0.08966,-7.710752 -1.305571,-11.309636 C 40.77794,23.407746 38.67848,19.402686 35.057177,17.071124 34.095803,16.423613 32.960354,16.1625 31.823586,16.182283 Z m 0.329688,9.240524 c 0.931046,0.08042 1.840986,0.606622 2.442338,1.329305 1.974176,2.169354 3.122807,5.083804 3.286348,8.002211 0.345508,2.847195 -1.715711,5.673291 -4.49433,6.315526 -2.195728,0.543326 -4.61169,-0.257158 -6.020121,-2.032203 -1.453269,-1.658997 -1.508657,-4.002427 -1.091927,-6.055731 0.64487,-2.711363 1.850212,-5.562511 4.245072,-7.167439 0.510361,-0.32705 1.074788,-0.440464 1.63262,-0.391669 z"
       fill="#02ad7b"
       fill-rule="nonzero"
       id="path2-50"
       style="fill:#dfdfdf;fill-opacity:1;stroke:none;stroke-width:0.510565;stroke-dasharray:none;stroke-opacity:0.6" />
  </g>
</svg>
