<?xml version="1.0" encoding="UTF-8" standalone="no"?>
<svg
   width="64"
   height="64"
   version="1.1"
   id="svg73"
   sodipodi:docname="com.warlordsoftwares.formatlab.svg"
   inkscape:version="1.4.2 (ebf0e940d0, 2025-05-08)"
   xmlns:inkscape="http://www.inkscape.org/namespaces/inkscape"
   xmlns:sodipodi="http://sodipodi.sourceforge.net/DTD/sodipodi-0.dtd"
   xmlns="http://www.w3.org/2000/svg"
   xmlns:svg="http://www.w3.org/2000/svg"
   xmlns:rdf="http://www.w3.org/1999/02/22-rdf-syntax-ns#"
   xmlns:cc="http://creativecommons.org/ns#"
   xmlns:dc="http://purl.org/dc/elements/1.1/">
  <metadata
     id="metadata77">
    <rdf:RDF>
      <cc:Work
         rdf:about="">
        <dc:format>image/svg+xml</dc:format>
        <dc:type
           rdf:resource="http://purl.org/dc/dcmitype/StillImage" />
      </cc:Work>
    </rdf:RDF>
  </metadata>
  <sodipodi:namedview
     pagecolor="#f5f7fa"
     bordercolor="#666666"
     borderopacity="1"
     objecttolerance="10"
     gridtolerance="10"
     guidetolerance="10"
     inkscape:pageopacity="0"
     inkscape:pageshadow="2"
     inkscape:window-width="1377"
     inkscape:window-height="886"
     id="namedview75"
     showgrid="false"
     inkscape:zoom="6.2890624"
     inkscape:cx="47.622361"
     inkscape:cy="45.396274"
     inkscape:window-x="147"
     inkscape:window-y="75"
     inkscape:window-maximized="0"
     inkscape:current-layer="g877"
     inkscape:document-rotation="0"
     inkscape:pagecheckerboard="0"
     inkscape:showpageshadow="2"
     inkscape:deskcolor="#d1d1d1" />
  <defs
     id="defs29">
    <linearGradient
       id="b"
       x1="399.57"
       x2="399.57"
       y1="545.8"
       y2="517.8"
       gradientTransform="matrix(2.1429,0,0,2.1429,-825.86391,-1107.6662)"
       gradientUnits="userSpaceOnUse">
      <stop
         stop-color="#3889e9"
         offset="0"
         id="stop2" />
      <stop
         stop-color="#5ea5fb"
         offset="1"
         id="stop4" />
    </linearGradient>
  </defs>
  <circle
     cx="32.516094"
     cy="31.877844"
     r="0"
     fill="url(#b)"
     stroke-width="1.5715"
     id="circle41"
     style="fill:url(#b)" />
  <g
     aria-label="GZ"
     transform="matrix(1.2212657,0,0,0.81882264,0.4960938,-0.1661539)"
     id="text93"
     style="font-weight:bold;font-size:11.5263px;line-height:1.25;font-family:sans-serif;-inkscape-font-specification:'sans-serif Bold';fill:#f2f2f2;stroke-width:0.288159" />
  <g
     id="g877"
     transform="matrix(1.1,0,0,1.1,-3.1845928,-3.2065454)">
    <rect
       x="8.3496294"
       y="8.369586"
       width="47.272728"
       height="47.272728"
       rx="9.8825235"
       ry="9.6485243"
       fill="url(#linearGradient862)"
       stroke-width="3.0541"
       id="rect35-7-3"
       style="fill:#414141;fill-opacity:1;stroke:#dfdfdf;stroke-width:2.04545;stroke-dasharray:none;stroke-opacity:1" />
    <path
       d="M 32.289428,47.434017 C 31.960722,47.344547 31.674804,47.134486 31.475442,46.835927 31.1798,46.395382 31.081578,46.076401 30.721752,44.38911 30.571013,43.685984 30.350255,43.217243 29.977785,42.813655 29.32718,42.109559 28.575433,41.859624 26.795752,41.755567 24.805036,41.63887 24.098024,41.462844 23.432833,40.92116 c -0.755638,-0.616564 -1.071701,-1.312882 -1.522942,-3.362917 -0.279109,-1.266202 -0.4386,-1.77774 -0.767308,-2.459465 -0.603925,-1.252585 -1.43347,-2.22509 -2.635486,-3.09062 -0.774113,-0.557243 -1.005567,-0.896648 -0.878171,-1.288568 0.104055,-0.318008 0.433737,-0.523205 0.843162,-0.523205 0.32968,0 0.530986,0.08171 0.792591,0.321898 0.250905,0.230484 0.398725,0.448326 0.745911,1.095039 0.316064,0.591284 0.620456,1.022104 0.721597,1.022104 0.06127,0 0.07099,-0.249937 0.07099,-1.792328 0,-1.071699 0.01947,-1.864289 0.04863,-1.972237 0.05933,-0.215895 0.293695,-0.429845 0.470693,-0.429845 0.293695,9.63e-4 0.546549,0.282997 0.674918,0.755635 0.02918,0.107946 0.152682,1.182565 0.274244,2.390415 0.121561,1.206878 0.239232,2.21342 0.26063,2.23773 0.06808,0.07294 0.377331,-0.315087 0.57864,-0.72646 0.197416,-0.403588 0.33065,-0.918043 0.332598,-1.281761 0,-0.115725 -0.05446,-0.481387 -0.122536,-0.813985 -0.10017,-0.49403 -0.112811,-0.639905 -0.07196,-0.795506 0.131289,-0.49306 0.672,-0.57475 1.026965,-0.153654 0.256743,0.304395 0.345238,0.649634 0.343294,1.338166 0,0.74591 -0.06419,1.024046 -0.606844,2.702591 -0.468746,1.450003 -0.616566,2.092829 -0.615594,2.676334 0,2.092823 1.730086,3.456276 4.622315,3.651748 0.257711,0.01672 0.467772,0.01466 0.467772,-0.0047 0,-0.01978 -0.160461,-0.335517 -0.357883,-0.702147 -0.678805,-1.263492 -0.954022,-2.145552 -0.954022,-3.056789 0,-0.685618 0.09919,-1.104768 0.534875,-2.247459 0.597119,-1.563786 0.655469,-1.81761 0.655469,-2.849438 9.65e-4,-0.536821 -0.02334,-0.870391 -0.08363,-1.153389 -0.324815,-1.538503 -1.124214,-2.860135 -2.252318,-3.723719 -0.447353,-0.342321 -0.580585,-0.416232 -1.724251,-0.952082 -1.099903,-0.515427 -1.38679,-0.694369 -1.826363,-1.143665 -0.472637,-0.482362 -0.672973,-0.877198 -0.705065,-1.387764 -0.01947,-0.31509 -0.01166,-0.364689 0.06711,-0.407479 0.181859,-0.09725 0.567944,-0.114756 0.913184,-0.04182 0.639907,0.135177 1.213684,0.504729 2.130757,1.370258 0.977365,0.921934 1.527803,1.263284 2.200777,1.361506 0.327732,0.04765 0.3608,0.04473 0.422066,-0.04084 0.10017,-0.139065 0.08557,-0.656439 -0.0282,-0.962779 -0.209103,-0.56405 -0.656455,-0.9832 -1.657162,-1.55017 -0.643799,-0.364688 -1.077535,-0.676863 -1.271062,-0.914153 -0.473611,-0.580586 -0.56989,-1.4325 -0.211034,-1.866237 0.340374,-0.410396 0.917071,-0.456105 1.581291,-0.126427 0.322871,0.159495 0.467774,0.277165 0.957917,0.778976 1.431527,1.464593 2.293163,3.385287 2.672441,5.956588 0.101147,0.685617 0.08753,3.272477 -0.0224,4.170098 -0.104055,0.855804 -0.270356,1.871099 -0.464856,2.848465 -0.169218,0.84608 -0.18186,1.23411 -0.05251,1.524887 0.09629,0.213952 0.294669,0.356911 0.495005,0.356911 0.227569,0 0.630183,-0.263552 1.094067,-0.714792 0.757602,-0.739103 1.181612,-1.453893 1.424738,-2.401113 0.106005,-0.412341 0.124482,-0.615594 0.155604,-1.692158 0.03208,-1.136857 0.04182,-1.238969 0.145875,-1.454865 0.149769,-0.315091 0.42693,-0.5164 0.710903,-0.5164 0.183803,0 0.24021,0.02625 0.395808,0.1838 0.405535,0.412341 0.391921,0.95208 -0.07391,2.874723 -0.332582,1.369289 -0.775071,2.425428 -1.338151,3.183982 -0.168242,0.228537 -0.665193,0.76147 -1.102818,1.185482 -0.525154,0.508624 -0.876226,0.89276 -1.032801,1.130053 -0.915127,1.389711 -0.426929,2.752186 1.076561,3.004063 0.629211,0.105994 1.326498,-0.09921 1.802051,-0.530014 0.66422,-0.599065 1.283706,-1.934312 1.717444,-3.701353 0.645743,-2.624786 0.852886,-5.48006 0.5164,-7.114838 -0.304394,-1.478207 -0.915127,-2.717176 -1.773847,-3.596321 -0.234375,-0.240209 -0.742021,-0.657414 -1.256475,-1.032801 -1.435417,-1.046413 -2.013084,-1.722304 -2.212448,-2.59075 -0.09919,-0.43082 -0.07391,-0.869419 0.05446,-0.967641 0.166299,-0.127399 0.584475,-0.188668 0.873309,-0.130317 0.714788,0.145877 1.343026,0.712845 2.00433,1.810804 0.520291,0.86261 0.75758,1.184508 1.11449,1.507381 0.265494,0.239232 0.399698,0.305363 0.399698,0.195472 0,-0.0282 -0.127397,-0.297586 -0.282027,-0.597117 -1.129075,-2.179381 -1.940144,-3.822913 -2.049065,-4.152591 -0.246042,-0.745912 -0.105024,-1.273981 0.399698,-1.500576 0.573779,-0.257711 1.211741,0.159494 1.518081,0.992926 0.06516,0.177969 0.488197,1.626028 0.940411,3.21899 0.975422,3.438775 0.909293,3.222879 0.978339,3.199539 0.08461,-0.0282 0.402618,-0.814958 0.563081,-1.394571 0.210063,-0.761471 0.300502,-1.554062 0.269382,-2.347625 -0.03208,-0.77703 -0.112809,-1.279815 -0.397755,-2.452656 -0.153657,-0.631156 -0.211033,-0.967641 -0.211033,-1.230217 0,-0.620459 0.24313,-1.126161 0.661304,-1.376094 0.464856,-0.277161 1.165063,-0.138093 1.634781,0.324815 0.460968,0.454159 0.610729,0.947219 0.570863,1.880823 -0.04279,0.998763 -0.205211,1.605606 -1.114493,4.170098 -0.810101,2.28733 -1.053223,3.139245 -1.1991,4.203163 -0.09627,0.698259 -0.09433,1.798161 0,2.384581 0.08462,0.512509 0.256746,1.07948 0.332598,1.103792 0.02731,0.0087 0.263548,-0.593227 0.523211,-1.338166 0.636987,-1.823445 0.722569,-2.028643 0.921932,-2.205638 0.393861,-0.352047 0.979308,-0.05057 0.979308,0.502783 0,0.463886 -0.984173,3.390151 -3.489345,10.385376 -0.700204,1.95279 -1.265229,3.584648 -1.25745,3.626467 0.0117,0.04957 1.011406,-0.845108 2.849442,-2.544071 3.92697,-3.629386 3.985322,-3.690654 4.239145,-4.432676 0.102081,-0.297586 0.115715,-0.40456 0.09433,-0.760499 -0.03417,-0.568914 -0.220791,-1.061002 -0.786744,-2.075323 -0.671029,-1.201043 -0.884002,-1.711607 -0.954022,-2.27955 -0.142001,-1.154363 0.875253,-1.905135 1.592961,-1.175758 0.398725,0.404562 0.951109,1.79816 1.192291,3.007957 0.06614,0.33454 0.120589,0.653521 0.120589,0.708955 0,0.28008 0.148784,0.04765 0.748831,-1.171868 0.867468,-1.763151 1.027937,-2.005304 1.494731,-2.250374 0.409428,-0.213948 0.909297,0.0097 1.181597,0.529041 0.147829,0.281054 0.142919,0.811069 -0.01058,1.284679 -0.406511,1.252585 -2.006274,3.91822 -3.729555,6.214301 -0.09624,0.127402 -0.148785,0.231453 -0.117657,0.231453 0.03205,0 0.178923,-0.07196 0.328697,-0.160479 0.927774,-0.54752 1.584216,-0.583503 2.230927,-0.120589 0.198359,0.140994 0.418177,0.559191 0.417206,0.793564 -9.66e-4,0.263579 -0.145888,0.569887 -0.34136,0.719655 -0.356908,0.274249 -0.732297,0.36275 -1.793296,0.424983 -1.747646,0.101157 -3.07414,0.578636 -4.347149,1.563785 -1.003627,0.776059 -1.590044,1.558922 -2.593672,3.46114 -0.817875,1.548228 -1.200068,2.109357 -1.964458,2.877638 -0.553353,0.556273 -0.965696,0.820796 -1.436388,0.92096 -0.30731,0.06519 -0.305368,0.06519 -0.626293,-0.0225 z"
       fill="url(#b)"
       fill-rule="nonzero"
       id="path4"
       style="fill:#dfdfdf;fill-opacity:1;stroke:none;stroke-width:0.451022;stroke-dasharray:none;stroke-opacity:0.6" />
    <rect
       x="37.737823"
       y="37.757782"
       width="22.610399"
       height="22.610399"
       rx="4.7267799"
       ry="4.6148596"
       fill="url(#linearGradient862)"
       stroke-width="3.0541"
       id="rect35-7-3-1"
       style="fill:#414141;fill-opacity:1;stroke:#dfdfdf;stroke-width:0.978336;stroke-dasharray:none;stroke-opacity:1" />
    <path
       d="m 47.318729,57.152125 h 3.606662 V 46.936724 h -3.606662 z m 1.813758,-11.612203 c 1.230019,0 2.063932,-0.833912 2.063932,-2.06393 0,-1.250864 -0.833913,-2.084776 -2.063932,-2.084776 -1.230019,0 -2.063931,0.833912 -2.063931,2.084776 0,1.230018 0.833912,2.06393 2.063931,2.06393 z"
       id="text1"
       style="font-weight:800;font-size:5.64433px;font-family:Cantarell;-inkscape-font-specification:'Cantarell Ultra-Bold';letter-spacing:0.264578px;fill:#dfdfdf;fill-opacity:1;stroke:none;stroke-width:0.451022;stroke-miterlimit:4;stroke-dasharray:none;stroke-dashoffset:2.2;stroke-opacity:0.6"
       aria-label="i" />
  </g>
</svg>
