<?xml version="1.0" encoding="UTF-8" standalone="no"?>
<svg
   width="64"
   height="64"
   version="1.1"
   id="svg73"
   sodipodi:docname="audacious.svg"
   inkscape:version="1.4.2 (ebf0e940d0, 2025-05-08)"
   xmlns:inkscape="http://www.inkscape.org/namespaces/inkscape"
   xmlns:sodipodi="http://sodipodi.sourceforge.net/DTD/sodipodi-0.dtd"
   xmlns="http://www.w3.org/2000/svg"
   xmlns:svg="http://www.w3.org/2000/svg"
   xmlns:rdf="http://www.w3.org/1999/02/22-rdf-syntax-ns#"
   xmlns:cc="http://creativecommons.org/ns#"
   xmlns:dc="http://purl.org/dc/elements/1.1/">
  <metadata
     id="metadata77">
    <rdf:RDF>
      <cc:Work
         rdf:about="">
        <dc:format>image/svg+xml</dc:format>
        <dc:type
           rdf:resource="http://purl.org/dc/dcmitype/StillImage" />
      </cc:Work>
    </rdf:RDF>
  </metadata>
  <sodipodi:namedview
     pagecolor="#f5f7fa"
     bordercolor="#666666"
     borderopacity="1"
     objecttolerance="10"
     gridtolerance="10"
     guidetolerance="10"
     inkscape:pageopacity="0"
     inkscape:pageshadow="2"
     inkscape:window-width="1377"
     inkscape:window-height="886"
     id="namedview75"
     showgrid="false"
     inkscape:zoom="12.578125"
     inkscape:cx="34.782609"
     inkscape:cy="35.021119"
     inkscape:window-x="1"
     inkscape:window-y="75"
     inkscape:window-maximized="0"
     inkscape:current-layer="g877"
     inkscape:document-rotation="0"
     inkscape:pagecheckerboard="0"
     inkscape:showpageshadow="2"
     inkscape:deskcolor="#d1d1d1" />
  <defs
     id="defs29">
    <inkscape:path-effect
       effect="fillet_chamfer"
       id="path-effect14"
       is_visible="true"
       lpeversion="1"
       nodesatellites_param="F,0,0,1,0,0,0,1 @ F,0,0,1,0,0,0,1 @ F,0,0,1,0,0,0,1 @ F,0,0,1,0,0,0,1 @ F,0,0,1,0,0,0,1 @ F,0,0,1,0,0,0,1 @ F,0,0,1,0,0,0,1 @ F,0,0,1,0,0,0,1 @ F,0,0,1,0,0,0,1 @ F,0,0,1,0,0,0,1 @ F,0,0,1,0,0,0,1 @ F,0,0,1,0,0,0,1 @ F,0,0,1,0,0,0,1 @ F,0,0,1,0,0,0,1 @ F,0,0,1,0,0,0,1 @ F,0,0,1,0,0,0,1 @ F,0,0,1,0,0,0,1 | F,0,0,1,0,0,0,1 @ F,0,0,1,0,0,0,1 @ F,0,0,1,0,0,0,1 @ F,0,0,1,0,0,0,1"
       radius="0"
       unit="px"
       method="auto"
       mode="F"
       chamfer_steps="1"
       flexible="false"
       use_knot_distance="true"
       apply_no_radius="true"
       apply_with_radius="true"
       only_selected="false"
       hide_knots="false" />
  </defs>
  <circle
     cx="32.516094"
     cy="31.877844"
     r="0"
     fill="url(#b)"
     stroke-width="1.5715"
     id="circle41"
     style="fill:url(#b)" />
  <g
     aria-label="GZ"
     transform="matrix(1.2212657,0,0,0.81882264,0.4960938,-0.1661539)"
     id="text93"
     style="font-weight:bold;font-size:11.5263px;line-height:1.25;font-family:sans-serif;-inkscape-font-specification:'sans-serif Bold';fill:#f2f2f2;stroke-width:0.288159" />
  <g
     id="g877"
     transform="matrix(1.1,0,0,1.1,-3.1845928,-3.2065454)">
    <rect
       x="8.3496294"
       y="8.369586"
       width="47.272728"
       height="47.272728"
       rx="9.8825235"
       ry="9.6485243"
       fill="url(#linearGradient862)"
       stroke-width="3.0541"
       id="rect35-7-3"
       style="fill:#414141;fill-opacity:1;stroke:#dfdfdf;stroke-width:2.04545;stroke-dasharray:none;stroke-opacity:1" />
    <path
       id="path7"
       style="fill:#dfdfdf;fill-opacity:1;stroke:none;stroke-width:0.473573;stroke-dasharray:none;stroke-opacity:0.6"
       d="M 34.238485,8.5533455 C 28.435422,15.105889 25.237039,24.91581 28.135068,33.010446 c 1.992568,5.565556 6.419369,10.419964 11.951197,13.10493 2.767759,1.343375 5.624834,2.140835 8.606312,2.402101 0.730492,0.064 4.956811,0.290802 5.87171,0.318712 l 0.201905,-3.326866 -0.04145,-3.265934 c 0,0 -5.713339,0.530093 -7.398771,0.197248 -3.698327,-0.730412 -6.610976,-2.256902 -9.290403,-4.870829 -2.673876,-2.608654 -4.254632,-5.499458 -4.98629,-9.12202 -0.334391,-1.655698 -0.332272,-4.773765 0.0037,-6.436689 0.904387,-4.480038 8.76029,-12.9550303 8.76029,-12.9550303 0,0 -2.906257,0.2408818 -4.079012,-0.028773 -2.617654,-0.6018612 -3.495677,-0.473947 -3.495677,-0.473947 z M 27.160476,15.5311 c -0.34722,-0.0025 -0.901109,0.01695 -1.770421,0.04831 -3.871734,0.13962 -6.802348,0.885692 -10.259849,2.610325 -2.188379,1.091584 -6.0972391,4.891096 -6.0972391,4.891096 0,0 0.1808307,2.099749 -0.1044519,4.001531 -0.3692493,2.461529 -0.4143923,5.456115 -0.4143923,5.456115 0.8073177,-2.155907 3.6203373,-4.827368 5.2564683,-6.349519 3.019677,-2.809318 6.803845,-4.450278 11.059115,-4.794203 0.656597,-0.05308 1.202037,-0.165216 1.225543,-0.251536 0.02331,-0.08557 0.156856,-0.664652 0.297364,-1.287672 0.216508,-0.959974 0.922815,-3.147029 1.321798,-4.092898 0.06867,-0.162808 0.06476,-0.227267 -0.513937,-0.231548 z m 8.776477,1.98731 c -0.389862,0 -1.515638,2.877121 -1.89074,4.832516 l -0.125483,0.654662 0.642853,0.301511 c 1.012225,0.476599 2.534633,1.492451 3.573503,2.383778 3.982801,3.417152 6.115701,7.968906 6.127718,13.079943 l 0.0032,1.782417 0.916153,0.313165 c 0.504038,0.172476 1.502649,0.433437 2.21904,0.579706 0.716398,0.146272 1.640076,0.269383 2.052312,0.27486 l 0.749423,0.01 0.0997,-1.592517 c 0.246212,-3.929504 -0.706055,-8.211508 -2.645118,-11.89058 -2.233771,-4.23823 -5.796252,-7.7246 -10.289067,-10.073153 -0.689644,-0.360503 -1.334456,-0.65633 -1.433527,-0.65633 z m 5.838949,30.570952 c -0.07997,-0.0054 -0.126477,0.0017 -0.134065,0.02326 -0.139435,0.397072 -1.866163,2.445594 -2.817204,3.341613 -1.514032,1.426449 -4.406451,3.836862 -3.835081,3.841548 2.242518,-0.05301 7.520987,-0.564437 7.520987,-0.564437 1.730246,-0.98337 3.635959,-3.408873 5.246987,-5.279438 l -1.471339,-0.24987 C 45.477243,49.063721 44.112872,48.729155 43.254125,48.4591 42.557306,48.239943 42.015895,48.105913 41.775908,48.089293 Z"
       sodipodi:nodetypes="sssscccsscccscscscscsssscsscsccscccscccssccscsccccsssc" />
  </g>
</svg>
