<?xml version="1.0" encoding="UTF-8" standalone="no"?>
<svg
   width="64"
   height="64"
   version="1.1"
   id="svg73"
   sodipodi:docname="Logo.svg"
   inkscape:version="1.3.2 (091e20ef0f, 2023-11-25)"
   xmlns:inkscape="http://www.inkscape.org/namespaces/inkscape"
   xmlns:sodipodi="http://sodipodi.sourceforge.net/DTD/sodipodi-0.dtd"
   xmlns="http://www.w3.org/2000/svg"
   xmlns:svg="http://www.w3.org/2000/svg"
   xmlns:rdf="http://www.w3.org/1999/02/22-rdf-syntax-ns#"
   xmlns:cc="http://creativecommons.org/ns#"
   xmlns:dc="http://purl.org/dc/elements/1.1/">
  <metadata
     id="metadata77">
    <rdf:RDF>
      <cc:Work
         rdf:about="">
        <dc:format>image/svg+xml</dc:format>
        <dc:type
           rdf:resource="http://purl.org/dc/dcmitype/StillImage" />
      </cc:Work>
    </rdf:RDF>
  </metadata>
  <sodipodi:namedview
     pagecolor="#f5f7fa"
     bordercolor="#666666"
     borderopacity="1"
     objecttolerance="10"
     gridtolerance="10"
     guidetolerance="10"
     inkscape:pageopacity="0"
     inkscape:pageshadow="2"
     inkscape:window-width="1377"
     inkscape:window-height="886"
     id="namedview75"
     showgrid="false"
     inkscape:zoom="6.2890624"
     inkscape:cx="39.115529"
     inkscape:cy="12.004969"
     inkscape:window-x="181"
     inkscape:window-y="77"
     inkscape:window-maximized="0"
     inkscape:current-layer="g877"
     inkscape:document-rotation="0"
     inkscape:pagecheckerboard="0"
     inkscape:showpageshadow="2"
     inkscape:deskcolor="#d1d1d1" />
  <defs
     id="defs29">
    <linearGradient
       id="b"
       x1="399.57"
       x2="399.57"
       y1="545.8"
       y2="517.8"
       gradientTransform="matrix(2.1429,0,0,2.1429,-825.86391,-1107.6662)"
       gradientUnits="userSpaceOnUse">
      <stop
         stop-color="#3889e9"
         offset="0"
         id="stop2" />
      <stop
         stop-color="#5ea5fb"
         offset="1"
         id="stop4" />
    </linearGradient>
    <linearGradient
       id="d"
       x2="1"
       gradientTransform="matrix(14.905727,-4.7106182,4.7106182,14.905727,322.04962,998.26962)"
       gradientUnits="userSpaceOnUse">
      <stop
         stop-color="#fafafa"
         offset="0"
         id="stop7" />
      <stop
         stop-color="#aaa"
         offset="1"
         id="stop8" />
    </linearGradient>
    <linearGradient
       id="e"
       x2="1"
       gradientTransform="matrix(21.439909,0,0,21.439909,26.63554,1159.7788)"
       gradientUnits="userSpaceOnUse">
      <stop
         stop-color="#f0f0f0"
         offset="0"
         id="stop9" />
      <stop
         stop-color="#b7f1ff"
         offset="1"
         id="stop10" />
    </linearGradient>
  </defs>
  <circle
     cx="32.516094"
     cy="31.877844"
     r="0"
     fill="url(#b)"
     stroke-width="1.5715"
     id="circle41"
     style="fill:url(#b)" />
  <g
     aria-label="GZ"
     transform="matrix(1.2212657,0,0,0.81882264,0.4960938,-0.1661539)"
     id="text93"
     style="font-weight:bold;font-size:11.5263px;line-height:1.25;font-family:sans-serif;-inkscape-font-specification:'sans-serif Bold';fill:#f2f2f2;stroke-width:0.288159" />
  <g
     id="g877"
     transform="matrix(1.1,0,0,1.1,-3.1845928,-3.2065454)">
    <rect
       x="6.3010068"
       y="5.4939413"
       width="51.635597"
       height="53.148327"
       rx="10.980581"
       ry="10.720582"
       fill="url(#linearGradient862)"
       stroke-width="3.0541"
       id="rect35-7-3"
       style="fill:#414141;fill-opacity:1;stroke:#dfdfdf;stroke-width:2.27272727;stroke-dasharray:none;stroke-opacity:1" />
    <path
       id="path123"
       style="fill:#dfdfdf;fill-opacity:1;stroke:none;stroke-width:1.31769;stroke-dasharray:none;stroke-dashoffset:2.2;stroke-opacity:0.3"
       d="m 31.898183,11.024263 c -0.490735,0.0018 -9.904125,2.798369 -14.422527,4.285065 -1.523194,0.501178 -2.937271,1.058653 -3.147531,1.240481 -0.507669,0.439022 -0.662015,1.563491 -0.66399,4.794643 -0.0056,9.05677 1.73533,16.253737 5.329953,22.019837 2.886219,4.629756 7.366033,8.328273 12.070245,9.967602 0.387547,0.13505 0.8766,0.200632 1.134963,0.149272 1.195719,-0.23772 4.679294,-2.056254 6.266749,-3.271053 2.287468,-1.750492 5.124608,-4.8518 6.428887,-7.02854 1.664583,-2.778062 3.32156,-7.038279 4.081746,-10.487472 0.780251,-3.540183 0.890288,-4.654543 0.965113,-9.841511 0.07421,-5.142367 -0.0029,-6.052322 -0.543035,-6.341381 -0.41872,-0.224091 -7.145226,-2.480393 -10.616157,-3.561883 -4.537831,-1.413921 -6.372106,-1.926905 -6.884416,-1.92506 z m 9.306191,7.725986 0.79524,0.455525 c 1.793221,1.028858 2.604497,2.380744 2.604497,4.333965 0,1.374813 -0.295711,2.205652 -1.127241,3.152676 -0.927583,1.056462 -1.625399,1.340747 -3.610772,1.474684 -2.044497,0.137952 -14.547444,0.134231 -16.671874,-0.0052 -0.876283,-0.05749 -1.614884,-0.189665 -1.891606,-0.339716 -0.82293,-0.446229 -1.66891,-1.286777 -2.123231,-2.110363 -0.406772,-0.737381 -0.446095,-0.942124 -0.447809,-2.249338 -0.0015,-1.204729 0.0536,-1.541472 0.339717,-2.076907 0.535548,-1.002232 1.196087,-1.657684 2.128379,-2.11551 l 0.859587,-0.424642 9.571267,-0.04889 z m -1.953379,1.909622 c -0.9203,0.0013 -1.854761,0.402955 -2.560743,1.207025 -0.564286,0.642679 -0.696322,1.078327 -0.594505,1.98168 0.12176,1.080236 0.925781,1.929964 2.231324,2.357429 0.572506,0.187452 1.920331,0.03764 2.450081,-0.272803 0.258256,-0.151339 0.683388,-0.537126 0.94194,-0.857012 0.422986,-0.523346 0.468403,-0.685623 0.468403,-1.613655 0,-0.924381 -0.04633,-1.089051 -0.46068,-1.60079 -0.649269,-0.802192 -1.555513,-1.203152 -2.47582,-1.201874 z m -6.53955,11.141171 c 3.456727,0.0046 6.71368,0.05328 7.484068,0.141548 1.582213,0.181276 2.235591,0.480677 3.111503,1.430929 0.977551,1.060523 1.297167,1.884997 1.299674,3.332831 0.0035,1.926439 -0.806674,3.37917 -2.367727,4.243889 l -0.808114,0.447774 -9.458032,0.02287 c -5.202632,0.01331 -9.705338,-0.02516 -10.003634,-0.08496 -1.132316,-0.226598 -2.07678,-1.061599 -2.830973,-2.496028 -0.353184,-0.671712 -0.405421,-0.949871 -0.406632,-2.133524 -0.0015,-1.59778 0.333326,-2.46309 1.351148,-3.479526 0.996658,-0.995302 1.536366,-1.17437 3.942774,-1.304822 1.571111,-0.08517 5.229218,-0.125527 8.685945,-0.120964 z M 24.393528,33.9217 c -0.120831,-6.7e-5 -0.246737,0.0046 -0.375749,0.01545 -2.022885,0.167759 -3.415921,2.256805 -2.581335,3.870723 0.350736,0.678253 1.414939,1.519399 2.120657,1.675422 1.546701,0.341947 3.048452,-0.330423 3.736887,-1.672849 0.542467,-1.057814 0.292334,-2.095322 -0.72833,-3.016296 -0.668261,-0.602991 -1.326273,-0.871991 -2.17213,-0.872457 z" />
  </g>
</svg>
