<?xml version="1.0" encoding="UTF-8" standalone="no"?>
<svg
   width="64"
   height="64"
   version="1.1"
   id="svg73"
   sodipodi:docname="audacious.svg"
   inkscape:version="1.4.2 (ebf0e940d0, 2025-05-08)"
   xmlns:inkscape="http://www.inkscape.org/namespaces/inkscape"
   xmlns:sodipodi="http://sodipodi.sourceforge.net/DTD/sodipodi-0.dtd"
   xmlns="http://www.w3.org/2000/svg"
   xmlns:svg="http://www.w3.org/2000/svg"
   xmlns:rdf="http://www.w3.org/1999/02/22-rdf-syntax-ns#"
   xmlns:cc="http://creativecommons.org/ns#"
   xmlns:dc="http://purl.org/dc/elements/1.1/">
  <metadata
     id="metadata77">
    <rdf:RDF>
      <cc:Work
         rdf:about="">
        <dc:format>image/svg+xml</dc:format>
        <dc:type
           rdf:resource="http://purl.org/dc/dcmitype/StillImage" />
      </cc:Work>
    </rdf:RDF>
  </metadata>
  <sodipodi:namedview
     pagecolor="#f5f7fa"
     bordercolor="#666666"
     borderopacity="1"
     objecttolerance="10"
     gridtolerance="10"
     guidetolerance="10"
     inkscape:pageopacity="0"
     inkscape:pageshadow="2"
     inkscape:window-width="1377"
     inkscape:window-height="886"
     id="namedview75"
     showgrid="false"
     inkscape:zoom="6.2890624"
     inkscape:cx="34.742858"
     inkscape:cy="35.06087"
     inkscape:window-x="1"
     inkscape:window-y="75"
     inkscape:window-maximized="0"
     inkscape:current-layer="g877"
     inkscape:document-rotation="0"
     inkscape:pagecheckerboard="0"
     inkscape:showpageshadow="2"
     inkscape:deskcolor="#d1d1d1" />
  <defs
     id="defs29" />
  <circle
     cx="32.516094"
     cy="31.877844"
     r="0"
     fill="url(#b)"
     stroke-width="1.5715"
     id="circle41"
     style="fill:url(#b)" />
  <g
     aria-label="GZ"
     transform="matrix(1.2212657,0,0,0.81882264,0.4960938,-0.1661539)"
     id="text93"
     style="font-weight:bold;font-size:11.5263px;line-height:1.25;font-family:sans-serif;-inkscape-font-specification:'sans-serif Bold';fill:#f2f2f2;stroke-width:0.288159" />
  <g
     id="g877"
     transform="matrix(1.1,0,0,1.1,-3.1845928,-3.2065454)">
    <rect
       x="8.3496294"
       y="8.369586"
       width="47.272728"
       height="47.272728"
       rx="9.8825235"
       ry="9.6485243"
       fill="url(#linearGradient862)"
       stroke-width="3.0541"
       id="rect35-7-3"
       style="fill:#414141;fill-opacity:1;stroke:#dfdfdf;stroke-width:2.04545;stroke-dasharray:none;stroke-opacity:1" />
    <path
       id="path6"
       style="fill:#dfdfdf;fill-opacity:1;stroke:none;stroke-width:0.463097;stroke-dasharray:none;stroke-opacity:0.6"
       d="m 32.020441,15.989537 c -2.022558,-0.0014 -2.570997,0.103855 -3.883429,0.748912 -2.63222,1.293724 -4.080257,4.314124 -4.450756,9.284867 l -0.0712,0.956614 0.494926,-0.413029 c 0.689709,-0.575412 1.895319,-1.342632 2.669264,-1.698409 0.358448,-0.164775 0.664115,-0.306123 0.680074,-0.314517 0.01592,-0.0083 0.140253,-0.43193 0.276541,-0.941189 0.516758,-1.930952 1.361905,-3.178062 2.547018,-3.761183 0.635482,-0.312682 0.737714,-0.332501 1.736387,-0.329948 0.950047,0.0024 1.120241,0.03179 1.63313,0.281286 1.164165,0.566283 2.041531,1.842273 2.577877,3.750502 l 0.278915,0.989847 0.656335,0.294344 c 0.785704,0.352137 2.455599,1.44847 2.86984,1.884746 0.162949,0.171635 0.312229,0.312147 0.332315,0.312147 0.0372,0 -0.0059,-0.503828 -0.188724,-2.219444 -0.210407,-1.971804 -0.713245,-3.795158 -1.432525,-5.194921 -0.587961,-1.1442 -1.84813,-2.409944 -2.892402,-2.905451 -1.311309,-0.622212 -1.84873,-0.723644 -3.833583,-0.725174 z m 0.154299,7.823831 c -0.174221,-0.002 -0.348231,3.84e-4 -0.522224,0.006 -3.06226,0.09764 -6.068214,1.348578 -8.239236,3.565336 -5.735401,5.856216 -4.21517,15.510128 3.032447,19.253366 1.356389,0.700551 2.528777,1.054593 4.364112,1.317424 1.630282,0.233463 4.094519,-0.158039 6.004362,-0.953056 3.604327,-1.500489 6.359578,-5.009715 7.122391,-9.072416 0.18285,-0.973731 0.158098,-3.211172 -0.04749,-4.264415 -0.849619,-4.353003 -3.905783,-7.841977 -8.099167,-9.24689 -1.174133,-0.39337 -2.395706,-0.591725 -3.615198,-0.605302 z m -0.09614,3.535678 c 3.134768,0.05269 6.12168,1.828757 7.540171,4.679819 2.63696,5.300123 -0.662729,11.550777 -6.520653,12.351734 -2.242578,0.306637 -4.487494,-0.301396 -6.359237,-1.720961 -1.505732,-1.141979 -2.709947,-3.076129 -3.108407,-4.995529 -0.258833,-1.246812 -0.20965,-2.91156 0.118687,-4.067391 0.457961,-1.612136 1.583302,-3.322468 2.878154,-4.373609 0.718732,-0.583452 2.362875,-1.400641 3.274568,-1.627193 0.7217,-0.179344 1.453306,-0.25903 2.176717,-0.24687 z m 4.546892,3.922597 c -0.01169,0 -0.819384,0.268033 -1.795732,0.594622 -1.688151,0.564676 -1.801431,0.588157 -2.314394,0.494924 -1.502665,-0.273118 -3.107918,0.621513 -3.805098,2.120932 -0.221168,0.475662 -0.266409,0.718358 -0.268232,1.43255 -0.002,0.770335 0.0316,0.929864 0.328764,1.533432 0.516477,1.049111 1.525766,1.810083 2.643154,1.992753 1.149588,0.187876 2.229901,-0.178086 3.089418,-1.048007 0.848709,-0.858987 1.083323,-1.486968 1.024264,-2.732168 -0.0421,-0.887624 -0.03022,-0.946622 0.53765,-2.647904 0.319482,-0.957146 0.571748,-1.741134 0.560206,-1.741134 z" />
  </g>
</svg>
