<?xml version="1.0" encoding="UTF-8" standalone="no"?>
<svg
   width="64"
   height="64"
   version="1.1"
   id="svg73"
   sodipodi:docname="audacious.svg"
   inkscape:version="1.4.2 (ebf0e940d0, 2025-05-08)"
   xmlns:inkscape="http://www.inkscape.org/namespaces/inkscape"
   xmlns:sodipodi="http://sodipodi.sourceforge.net/DTD/sodipodi-0.dtd"
   xmlns="http://www.w3.org/2000/svg"
   xmlns:svg="http://www.w3.org/2000/svg"
   xmlns:rdf="http://www.w3.org/1999/02/22-rdf-syntax-ns#"
   xmlns:cc="http://creativecommons.org/ns#"
   xmlns:dc="http://purl.org/dc/elements/1.1/">
  <metadata
     id="metadata77">
    <rdf:RDF>
      <cc:Work
         rdf:about="">
        <dc:format>image/svg+xml</dc:format>
        <dc:type
           rdf:resource="http://purl.org/dc/dcmitype/StillImage" />
      </cc:Work>
    </rdf:RDF>
  </metadata>
  <sodipodi:namedview
     pagecolor="#f5f7fa"
     bordercolor="#666666"
     borderopacity="1"
     objecttolerance="10"
     gridtolerance="10"
     guidetolerance="10"
     inkscape:pageopacity="0"
     inkscape:pageshadow="2"
     inkscape:window-width="1377"
     inkscape:window-height="886"
     id="namedview75"
     showgrid="false"
     inkscape:zoom="6.2890624"
     inkscape:cx="47.622361"
     inkscape:cy="45.396274"
     inkscape:window-x="1"
     inkscape:window-y="75"
     inkscape:window-maximized="0"
     inkscape:current-layer="g877"
     inkscape:document-rotation="0"
     inkscape:pagecheckerboard="0"
     inkscape:showpageshadow="2"
     inkscape:deskcolor="#d1d1d1" />
  <defs
     id="defs29" />
  <circle
     cx="32.516094"
     cy="31.877844"
     r="0"
     fill="url(#b)"
     stroke-width="1.5715"
     id="circle41"
     style="fill:url(#b)" />
  <g
     aria-label="GZ"
     transform="matrix(1.2212657,0,0,0.81882264,0.4960938,-0.1661539)"
     id="text93"
     style="font-weight:bold;font-size:11.5263px;line-height:1.25;font-family:sans-serif;-inkscape-font-specification:'sans-serif Bold';fill:#f2f2f2;stroke-width:0.288159" />
  <g
     id="g877"
     transform="matrix(1.1,0,0,1.1,-3.1845928,-3.2065454)">
    <rect
       x="8.3496294"
       y="8.369586"
       width="47.272728"
       height="47.272728"
       rx="9.8825235"
       ry="9.6485243"
       fill="url(#linearGradient862)"
       stroke-width="3.0541"
       id="rect35-7-3"
       style="fill:#414141;fill-opacity:1;stroke:#dfdfdf;stroke-width:2.04545;stroke-dasharray:none;stroke-opacity:1" />
    <path
       style="fill:#dfdfdf;fill-opacity:1;stroke:none;stroke-width:0.486252;stroke-dasharray:none;stroke-dashoffset:2.2;stroke-opacity:0.6"
       d="m 31.599602,47.708759 c -0.381278,-0.09125 -0.486458,-0.158469 -4.320205,-2.760404 -3.38057,-2.294364 -4.418613,-3.187119 -4.909912,-4.222692 -0.257376,-0.542512 -1.652362,-5.700087 -3.181397,-11.762339 l -0.695256,-2.756518 0.436972,-1.254689 c 0.240332,-0.690077 0.436973,-1.336438 0.436973,-1.436355 0,-0.09992 -0.187404,-0.554398 -0.416453,-1.009952 -0.229047,-0.455558 -0.416454,-0.890382 -0.416454,-0.966277 0,-0.194625 2.370501,-2.505864 2.811061,-2.740786 0.506989,-0.270352 2.081793,-0.27769 2.598562,-0.01212 l 0.360123,0.185059 1.359143,-1.356346 1.359141,-1.356347 h 4.942597 4.942601 l 1.359759,1.356967 1.359769,1.35697 0.506641,-0.224119 c 0.41739,-0.184632 0.645802,-0.215853 1.296524,-0.17724 0.478171,0.02842 0.933676,0.121645 1.154278,0.23636 0.435197,0.226308 1.856772,1.520674 2.462644,2.242276 l 0.432441,0.515045 -0.458466,0.890981 c -0.252136,0.490043 -0.458471,0.97965 -0.458471,1.088022 0,0.108365 0.186897,0.703805 0.4153,1.323188 0.228383,0.619388 0.415812,1.216851 0.416457,1.327703 0.0017,0.2962 -2.050408,8.351081 -3.290747,12.916735 -0.580723,2.137644 -1.03474,2.749223 -3.171593,4.27218 -2.457637,1.751593 -6.346456,4.317177 -6.543815,4.317177 -0.108938,0 -0.260462,0.0181 -0.336721,0.04121 -0.07626,0.02239 -0.279435,0.0076 -0.4515,-0.03342 z m 1.052183,-6.980365 c 0.223247,-0.170298 1.030035,-0.740813 1.792861,-1.267858 0.762826,-0.527041 1.58272,-1.133719 1.821987,-1.348175 0.538929,-0.483045 0.521401,-0.506316 -0.925025,-1.227982 -3.053222,-1.523343 -3.339446,-1.569173 -5.042926,-0.807426 -1.89675,0.848169 -2.967229,1.456192 -2.967229,1.685368 0,0.146671 0.487105,0.542176 1.726235,1.401633 0.949434,0.658521 1.928618,1.349566 2.175976,1.535676 0.557978,0.419799 0.89644,0.426675 1.418121,0.02853 z m -5.339089,-3.943222 c 0.239363,-0.163078 0.856866,-0.513971 1.37223,-0.779759 0.980434,-0.505648 2.561779,-1.773302 2.809361,-2.252074 0.20083,-0.388359 0.08603,-0.538723 -1.422819,-1.863272 -0.726222,-0.637527 -1.349367,-1.250399 -1.384767,-1.361936 -0.03903,-0.122914 0.122262,-0.680105 0.409413,-1.414485 0.646939,-1.654552 0.632101,-2.248403 -0.0652,-2.608986 -0.178513,-0.0923 -1.169278,-0.493385 -2.201703,-0.891272 -1.032424,-0.397888 -1.92742,-0.756007 -1.98887,-0.795817 -0.158099,-0.102396 0.760456,-0.209642 1.887731,-0.220369 0.865646,-0.0084 1.072071,0.03126 2.134324,0.40782 1.181413,0.418862 1.556183,0.67569 1.480015,1.014237 -0.02255,0.100443 -0.22908,1.010472 -0.458862,2.022342 -0.229776,1.011871 -0.417785,1.908667 -0.417785,1.99288 0,0.207081 0.623605,0.442128 1.716182,0.646859 0.844845,0.15831 0.96143,0.157862 1.703659,-0.0064 1.034625,-0.229172 1.577604,-0.449558 1.577604,-0.640315 0,-0.08422 -0.188006,-0.981007 -0.417788,-1.992878 -0.229783,-1.011859 -0.436269,-1.921913 -0.458862,-2.022327 -0.07727,-0.343458 0.300035,-0.602731 1.480932,-1.017658 0.984755,-0.346009 1.309482,-0.413525 1.98891,-0.413525 0.962428,0 2.09191,0.107229 2.09191,0.198625 0,0.03565 -0.245936,0.151303 -0.546603,0.25697 -1.706099,0.599692 -3.79391,1.480846 -4.002175,1.689111 -0.382429,0.382433 -0.323487,0.983362 0.231419,2.35939 0.28643,0.710279 0.449859,1.259948 0.415868,1.398761 -0.03082,0.125765 -0.606226,0.706384 -1.278736,1.290252 -1.465097,1.271987 -1.587147,1.403199 -1.587147,1.706311 0,0.325551 1.446608,1.688401 2.528773,2.382364 1.290458,0.82753 2.001806,1.211819 2.243153,1.211819 0.267752,0 1.42363,-1.011672 1.81359,-1.587336 0.587703,-0.867579 0.59141,-1.204322 0.03006,-2.759462 C 38.79835,32.185719 38.75177,31.92869 38.82532,31.7912 c 0.0556,-0.103918 0.771722,-0.793628 1.591359,-1.532698 0.819612,-0.739068 1.813357,-1.660127 2.208305,-2.046798 l 0.718258,-0.703038 -0.06157,-0.734422 c -0.03601,-0.433304 -0.153487,-0.918897 -0.28607,-1.184296 -0.418395,-0.837745 -3.392626,-4.777009 -3.694096,-4.892696 -0.06119,-0.02353 -0.835283,0.139578 -1.720042,0.362412 -0.88475,0.222831 -1.723647,0.405148 -1.864207,0.405148 -0.140558,0 -0.749632,-0.138761 -1.3535,-0.308362 -2.142598,-0.60181 -2.63271,-0.601628 -4.79388,0.0019 -0.601253,0.16787 -1.231606,0.305526 -1.400785,0.305902 -0.169178,3.73e-4 -0.801668,-0.13918 -1.405532,-0.310121 -0.603868,-0.171008 -1.323936,-0.35301 -1.600156,-0.404514 l -0.502218,-0.09364 -0.538916,0.683122 c -1.007368,1.27693 -2.565166,3.507067 -2.924149,4.186192 -0.4924,0.931538 -0.645917,1.572492 -0.475292,1.984422 0.07726,0.186478 1.003701,1.113797 2.242138,2.244216 1.160775,1.059536 2.138025,1.998144 2.171657,2.085799 0.03368,0.08766 -0.05938,0.494812 -0.20673,0.904802 -0.472244,1.314074 -0.490746,1.414629 -0.351717,1.9112 0.07051,0.251884 0.267481,0.650205 0.43769,0.885169 0.438295,0.605053 1.44736,1.532679 1.672131,1.537184 0.104223,0.0021 0.385314,-0.129613 0.624681,-0.2927 z"
       id="path14" />
  </g>
</svg>
