<?xml version="1.0" encoding="UTF-8" standalone="no"?>
<svg
   width="64"
   height="64"
   version="1.1"
   id="svg73"
   sodipodi:docname="audacious.svg"
   inkscape:version="1.4.2 (ebf0e940d0, 2025-05-08)"
   xmlns:inkscape="http://www.inkscape.org/namespaces/inkscape"
   xmlns:sodipodi="http://sodipodi.sourceforge.net/DTD/sodipodi-0.dtd"
   xmlns="http://www.w3.org/2000/svg"
   xmlns:svg="http://www.w3.org/2000/svg"
   xmlns:rdf="http://www.w3.org/1999/02/22-rdf-syntax-ns#"
   xmlns:cc="http://creativecommons.org/ns#"
   xmlns:dc="http://purl.org/dc/elements/1.1/">
  <metadata
     id="metadata77">
    <rdf:RDF>
      <cc:Work
         rdf:about="">
        <dc:format>image/svg+xml</dc:format>
        <dc:type
           rdf:resource="http://purl.org/dc/dcmitype/StillImage" />
      </cc:Work>
    </rdf:RDF>
  </metadata>
  <sodipodi:namedview
     pagecolor="#f5f7fa"
     bordercolor="#666666"
     borderopacity="1"
     objecttolerance="10"
     gridtolerance="10"
     guidetolerance="10"
     inkscape:pageopacity="0"
     inkscape:pageshadow="2"
     inkscape:window-width="1377"
     inkscape:window-height="886"
     id="namedview75"
     showgrid="false"
     inkscape:zoom="6.2890624"
     inkscape:cx="47.622361"
     inkscape:cy="42.693168"
     inkscape:window-x="16"
     inkscape:window-y="55"
     inkscape:window-maximized="0"
     inkscape:current-layer="g877"
     inkscape:document-rotation="0"
     inkscape:pagecheckerboard="0"
     inkscape:showpageshadow="2"
     inkscape:deskcolor="#d1d1d1" />
  <defs
     id="defs29" />
  <circle
     cx="32.516094"
     cy="31.877844"
     r="0"
     fill="url(#b)"
     stroke-width="1.5715"
     id="circle41"
     style="fill:url(#b)" />
  <g
     aria-label="GZ"
     transform="matrix(1.2212657,0,0,0.81882264,0.4960938,-0.1661539)"
     id="text93"
     style="font-weight:bold;font-size:11.5263px;line-height:1.25;font-family:sans-serif;-inkscape-font-specification:'sans-serif Bold';fill:#f2f2f2;stroke-width:0.288159" />
  <g
     id="g877"
     transform="matrix(1.1,0,0,1.1,-3.1845928,-3.2065454)">
    <rect
       x="8.3496294"
       y="8.369586"
       width="47.272728"
       height="47.272728"
       rx="9.8825235"
       ry="9.6485243"
       fill="url(#linearGradient862)"
       stroke-width="3.0541"
       id="rect35-7-3"
       style="fill:#414141;fill-opacity:1;stroke:#dfdfdf;stroke-width:2.04545;stroke-dasharray:none;stroke-opacity:1" />
    <path
       style="fill:#dfdfdf;fill-opacity:1;stroke:none;stroke-width:0.486252;stroke-dasharray:none;stroke-opacity:0.6"
       d="m 32.201853,43.996121 c -0.01556,-0.03793 -0.03352,-0.210647 -0.04005,-0.383864 -0.01918,-0.507868 0.06152,-1.018493 0.361467,-2.28872 0.08591,-0.363856 0.159273,-0.69912 0.163023,-0.745042 l 0.0067,-0.0835 -0.571093,-0.191286 c -0.78251,-0.262105 -1.221587,-0.333005 -1.397278,-0.225591 -0.0433,0.0264 -0.155503,0.12421 -0.249322,0.217246 -0.341165,0.33831 -0.721304,0.471335 -1.607494,0.562491 -0.08298,0.008 -0.150896,0.02239 -0.150896,0.02944 0,0.09552 0.120457,0.408368 0.275714,0.715811 0.201902,0.399848 0.238123,0.494685 0.410681,1.075435 0.118307,0.398213 0.158325,0.759676 0.102711,0.928201 -0.07563,0.22912 -0.319061,0.333377 -0.77842,0.333377 -0.307529,0 -0.89465,-0.06726 -0.945596,-0.108342 -0.05207,-0.04197 -0.121848,-0.345887 -0.119173,-0.51926 0.0029,-0.18567 -0.07406,-0.407673 -0.38278,-1.104552 -0.08635,-0.194875 -0.224322,-0.555078 -0.306618,-0.800465 -0.08229,-0.245382 -0.195032,-0.54075 -0.250528,-0.656359 -0.108717,-0.226481 -0.29292,-0.45905 -0.363617,-0.45902 -0.08737,0 -0.361187,0.151581 -0.443679,0.245599 -0.16996,0.193679 -0.19176,0.269837 -0.282259,0.987922 -0.0373,0.295919 -0.08469,0.614791 -0.105321,0.708608 -0.02065,0.09382 -0.05017,0.365491 -0.06566,0.603629 -0.03515,0.541564 -0.06443,0.729595 -0.126398,0.813336 -0.151215,0.204296 -0.459756,0.288524 -1.057619,0.2888 -0.470918,3.38e-4 -0.667959,-0.08414 -0.731613,-0.313259 -0.04877,-0.175484 -0.03039,-0.681012 0.05394,-1.484328 0.01514,-0.14437 0.0851,-0.522263 0.155438,-0.839824 0.162947,-0.735631 0.193969,-0.955759 0.178888,-1.269094 -0.0155,-0.321832 -0.09829,-0.523607 -0.287485,-0.700576 -0.225548,-0.210893 -0.483702,-0.299325 -1.067636,-0.365598 -0.49357,-0.05601 -0.762853,-0.108497 -0.998973,-0.194661 -0.470891,-0.171864 -0.638497,-0.364016 -0.854927,-0.980173 -0.175339,-0.49933 -0.393691,-0.690885 -1.162812,-1.020254 -0.358156,-0.153376 -0.497912,-0.246154 -0.640335,-0.425094 -0.259706,-0.326295 -0.344112,-0.645927 -0.32005,-1.211978 0.02514,-0.591232 -0.0351,-0.800104 -0.378043,-1.310315 -0.171543,-0.255228 -0.176099,-0.266326 -0.172667,-0.420725 0.0019,-0.08721 0.03546,-0.370547 0.07454,-0.629616 0.04942,-0.327838 0.06832,-0.54387 0.0621,-0.710609 -0.0083,-0.215977 -0.01667,-0.250737 -0.08764,-0.352944 -0.174933,-0.251877 -0.195307,-0.288869 -0.240751,-0.437072 -0.03691,-0.120446 -0.04699,-0.240283 -0.04593,-0.547837 0.0015,-0.463481 0.0295,-0.56398 0.257666,-0.927087 0.162443,-0.258534 0.207318,-0.386401 0.195038,-0.555742 l -0.0084,-0.118104 -0.20996,-0.0192 c -0.234689,-0.02141 -0.446191,-0.0105 -0.939787,0.04891 -0.184885,0.02222 -0.462421,0.03643 -0.616753,0.03156 -0.249661,-0.0079 -0.297888,-0.01756 -0.437393,-0.08757 -0.147404,-0.07403 -0.15887,-0.08659 -0.191344,-0.209964 -0.169857,-0.645175 0.442111,-1.220365 1.298392,-1.220365 0.287033,0 0.473679,0.05211 0.855402,0.238868 0.281326,0.137632 0.600255,0.247707 0.655128,0.226097 0.01782,-0.0071 0.126915,-0.162897 0.2424,-0.346382 0.301571,-0.479204 0.459976,-0.643694 0.757747,-0.786849 0.131744,-0.06334 0.404879,-0.170126 0.606961,-0.237315 0.577367,-0.191952 0.684781,-0.270562 0.977068,-0.715066 0.268361,-0.408123 0.451501,-0.539536 0.926141,-0.664567 0.181598,-0.04782 0.326568,-0.06187 0.786878,-0.07621 0.755746,-0.02354 0.763118,-0.02632 1.249332,-0.47252 0.237356,-0.217828 0.457555,-0.347296 0.771514,-0.453637 l 0.24933,-0.08445 0.695482,-2.06e-4 c 0.827841,-2.03e-4 0.90705,-0.01623 1.489456,-0.300665 0.814779,-0.397911 1.110419,-0.427945 1.981918,-0.20134 0.675697,0.175686 0.850676,0.166646 1.414441,-0.07309 0.522755,-0.222317 0.81282,-0.279725 1.149374,-0.227511 0.396631,0.06154 0.727337,0.21199 1.150486,0.523375 0.333579,0.245484 0.41987,0.291391 0.713998,0.379835 0.392402,0.118001 0.638174,0.149531 1.37785,0.176837 0.389732,0.01444 0.769125,0.03802 0.84311,0.05262 0.371062,0.07295 0.700077,0.477868 1.171103,1.441297 0.323823,0.662388 0.464783,0.916505 0.744756,1.342732 0.860126,1.309491 1.966516,2.237717 3.452528,2.89658 0.34956,0.154994 0.42045,0.21238 0.525261,0.425271 0.08592,0.174379 0.08687,0.180825 0.08677,0.544447 -3.54e-4,0.406265 -0.03105,0.590538 -0.188279,1.123682 -0.05193,0.176177 -0.110771,0.385288 -0.130839,0.464678 -0.05354,0.212731 -0.04646,0.596286 0.0181,0.984175 0.0664,0.398627 0.05727,0.609315 -0.0386,0.884947 -0.100391,0.288856 -0.260847,0.528761 -0.568172,0.849682 -0.31012,0.323896 -0.36222,0.408878 -0.561804,0.916093 -0.156581,0.398035 -0.264959,0.57771 -0.450836,0.747602 -0.354127,0.323689 -0.856479,0.473236 -1.76694,0.526102 l -0.45928,0.02669 -0.08511,0.09775 c -0.113133,0.129918 -0.279258,0.473633 -0.339034,0.701425 -0.03931,0.149925 -0.04806,0.280393 -0.04695,0.7086 0.0014,0.5723 0.02147,0.728676 0.248021,1.889634 0.217646,1.117205 0.402074,2.407566 0.35053,2.451929 -0.02332,0.02056 -1.397107,0.238971 -1.497121,0.238417 -0.04908,-3.46e-4 -0.06702,-0.03207 -0.123154,-0.216785 -0.40716,-1.343238 -0.596289,-2.34314 -0.671128,-3.549643 -0.01442,-0.23093 -0.03777,-0.459924 -0.05209,-0.508822 -0.05295,-0.180884 -0.161574,-0.248789 -0.461523,-0.288556 -0.418902,-0.05548 -0.40355,-0.05727 -0.431624,0.04814 -0.124086,0.465456 -0.888175,3.557261 -0.945602,3.826283 -0.05969,0.279565 -0.144909,0.59776 -0.168506,0.629041 -0.0024,0.0035 -0.269372,0.04802 -0.59353,0.09994 -0.32416,0.05192 -0.646325,0.104087 -0.715926,0.115925 -0.120737,0.02056 -0.127856,0.0181 -0.154747,-0.04744 z m 10.50148,-13.978378 c -0.913497,-0.172961 -2.005738,-0.844286 -3.031942,-1.863521 -0.765111,-0.75992 -1.209276,-1.416859 -1.703181,-2.519052 -0.222514,-0.496586 -0.328977,-0.676112 -0.593424,-1.000896 -0.08361,-0.102711 -0.172263,-0.238527 -0.196902,-0.301818 -0.02455,-0.06329 -0.0664,-0.146193 -0.09269,-0.184228 l -0.04781,-0.06916 -0.623676,-0.01248 c -0.501128,-0.01 -0.679551,-0.02381 -0.90795,-0.07001 -0.372178,-0.07524 -0.793339,-0.22659 -1.242172,-0.446356 -0.486973,-0.238441 -0.632332,-0.394132 -0.786072,-0.84191 -0.04076,-0.118682 -0.04955,-0.221348 -0.04955,-0.577386 0,-0.380645 0.0076,-0.456851 0.06149,-0.629871 0.123872,-0.396571 0.149966,-0.437962 0.315392,-0.50054 0.124275,-0.04703 0.185873,-0.05394 0.384224,-0.04303 0.318919,0.01746 0.552049,0.104328 1.350761,0.503135 0.853831,0.426325 1.143754,0.536254 1.51585,0.574758 l 0.137159,0.01414 0.213716,-0.267698 c 0.117614,-0.14723 0.302365,-0.403514 0.410676,-0.569509 0.221665,-0.339615 0.344921,-0.481294 0.479116,-0.55041 0.156674,-0.08071 0.438798,-0.156792 0.984176,-0.26544 0.506414,-0.100884 0.559685,-0.118428 0.883535,-0.290958 0.173243,-0.09234 0.578829,-0.158642 0.901107,-0.147329 0.250629,0.0086 0.323318,0.02265 0.551144,0.10479 0.144369,0.05205 0.363259,0.130896 0.48649,0.175201 0.241087,0.08667 0.453821,0.116729 1.129606,0.159528 0.432523,0.02739 0.643217,0.06149 0.772164,0.124854 0.04329,0.0213 0.220867,0.187283 0.394537,0.368875 l 0.315825,0.330174 0.327199,-0.107394 c 0.179965,-0.05908 0.569309,-0.190684 0.86522,-0.292505 0.699628,-0.240733 0.991065,-0.300421 1.390968,-0.284891 0.224179,0.0085 0.339313,0.02615 0.447513,0.06795 0.43557,0.168187 0.51099,0.610005 0.207886,1.217972 -0.292545,0.586881 -0.7761,1.079708 -1.294288,1.319122 -0.358544,0.165663 -0.54819,0.196522 -1.368875,0.222769 -0.40417,0.01296 -0.748391,0.02402 -0.764948,0.02476 -0.05591,0.0023 -0.101283,0.442112 -0.09889,0.959169 0.003,0.633448 0.03894,0.811621 0.354682,1.749537 0.327775,0.97366 0.400315,1.408929 0.3408,2.045062 -0.06026,0.644255 -0.220406,1.035312 -0.563964,1.377028 -0.235378,0.234126 -0.453352,0.358666 -0.803022,0.458814 -0.256796,0.07352 -0.768533,0.09235 -1.05192,0.03869 z m -2.821105,-4.70758 c 0.04221,-0.02399 0.104213,-0.09555 0.137803,-0.158988 0.163303,-0.30887 -0.02147,-0.684625 -0.335772,-0.684359 -0.152622,1.01e-4 -0.265327,0.07275 -0.33449,0.215577 -0.121357,0.250644 -0.04274,0.531749 0.18021,0.64441 0.128383,0.06487 0.21614,0.06074 0.352232,-0.0166 z m 4.057023,-0.272626 c 0.158669,-0.107968 0.196653,-0.185193 0.196653,-0.400231 0,-0.215751 -0.03756,-0.291601 -0.199232,-0.402552 -0.07063,-0.04852 -0.113379,-0.05874 -0.203989,-0.04879 -0.145873,0.01604 -0.237528,0.0832 -0.311943,0.228817 -0.197516,0.386541 0.187082,0.848404 0.518604,0.62278 z"
       id="path1" />
  </g>
</svg>
