<?xml version="1.0" encoding="UTF-8" standalone="no"?>
<svg
   width="64"
   height="64"
   version="1.1"
   id="svg73"
   sodipodi:docname="audacious.svg"
   inkscape:version="1.4.2 (ebf0e940d0, 2025-05-08)"
   xmlns:inkscape="http://www.inkscape.org/namespaces/inkscape"
   xmlns:sodipodi="http://sodipodi.sourceforge.net/DTD/sodipodi-0.dtd"
   xmlns="http://www.w3.org/2000/svg"
   xmlns:svg="http://www.w3.org/2000/svg"
   xmlns:rdf="http://www.w3.org/1999/02/22-rdf-syntax-ns#"
   xmlns:cc="http://creativecommons.org/ns#"
   xmlns:dc="http://purl.org/dc/elements/1.1/">
  <metadata
     id="metadata77">
    <rdf:RDF>
      <cc:Work
         rdf:about="">
        <dc:format>image/svg+xml</dc:format>
        <dc:type
           rdf:resource="http://purl.org/dc/dcmitype/StillImage" />
      </cc:Work>
    </rdf:RDF>
  </metadata>
  <sodipodi:namedview
     pagecolor="#f5f7fa"
     bordercolor="#666666"
     borderopacity="1"
     objecttolerance="10"
     gridtolerance="10"
     guidetolerance="10"
     inkscape:pageopacity="0"
     inkscape:pageshadow="2"
     inkscape:window-width="1377"
     inkscape:window-height="886"
     id="namedview75"
     showgrid="false"
     inkscape:zoom="6.2890624"
     inkscape:cx="37.445963"
     inkscape:cy="34.901864"
     inkscape:window-x="1"
     inkscape:window-y="75"
     inkscape:window-maximized="0"
     inkscape:current-layer="g877"
     inkscape:document-rotation="0"
     inkscape:pagecheckerboard="0"
     inkscape:showpageshadow="2"
     inkscape:deskcolor="#d1d1d1" />
  <defs
     id="defs29" />
  <circle
     cx="32.516094"
     cy="31.877844"
     r="0"
     fill="url(#b)"
     stroke-width="1.5715"
     id="circle41"
     style="fill:url(#b)" />
  <g
     aria-label="GZ"
     transform="matrix(1.2212657,0,0,0.81882264,0.4960938,-0.1661539)"
     id="text93"
     style="font-weight:bold;font-size:11.5263px;line-height:1.25;font-family:sans-serif;-inkscape-font-specification:'sans-serif Bold';fill:#f2f2f2;stroke-width:0.288159" />
  <g
     id="g877"
     transform="matrix(1.1,0,0,1.1,-3.1845928,-3.2065454)">
    <rect
       x="8.3496294"
       y="8.369586"
       width="47.272728"
       height="47.272728"
       rx="9.8825235"
       ry="9.6485243"
       fill="url(#linearGradient862)"
       stroke-width="3.0541"
       id="rect35-7-3"
       style="fill:#414141;fill-opacity:1;stroke:#dfdfdf;stroke-width:2.04545;stroke-dasharray:none;stroke-opacity:1" />
    <path
       style="fill:#dfdfdf;fill-opacity:1;stroke:none;stroke-width:0.510565;stroke-dasharray:none;stroke-opacity:0.6"
       d="m 41.364315,23.297849 c -0.0611,-0.497403 0.320414,-1.284525 0.269218,-2.356128 -0.05284,-1.073349 -0.573107,-2.569056 -2.708628,-3.65462 -0.03783,-0.01917 -0.07598,-0.0384 -0.115566,-0.05758 -1.389058,-0.677171 -3.413927,-1.16236 -5.775721,-0.925001 -1.834935,0.184999 -3.740889,0.797594 -5.537835,1.877923 -1.616924,0.968632 -3.106672,2.295049 -4.315649,3.935614 -0.710192,1.031463 -1.329542,2.199056 -1.772174,3.459149 -0.191584,0.544527 -0.350138,1.108252 -0.469057,1.684198 -0.153602,0.748725 -0.237826,1.567264 -0.204796,2.43118 0.08753,1.370045 0.474011,2.867498 1.337801,4.214855 0.407946,0.638775 0.91499,1.218208 1.501313,1.701652 0.583015,0.483444 1.250263,0.874385 1.978621,1.130943 1.167685,0.403158 2.315552,0.403158 3.265226,0.251342 0.503738,-0.08027 0.966189,-0.204199 1.374137,-0.342074 0.503737,-0.1693 0.966188,-0.364773 1.331191,-0.530573 0.796074,-0.36827 1.542601,-0.809829 2.137179,-1.165865 0.59458,-0.356036 1.177596,-0.713821 1.737491,-1.003537 0.333626,-0.167549 0.730007,-0.354291 1.121441,-0.495661 0.104034,-0.03668 0.208093,-0.07154 0.312149,-0.10122 0.389776,-0.113436 0.774605,-0.164054 1.116493,-0.127407 0.292317,0.02967 0.540073,0.130901 0.706882,0.254809 0.07101,0.04712 0.132096,0.113447 0.183291,0.183255 0.04458,0.06459 0.07435,0.125662 0.09081,0.158821 0.01835,0.04189 0.02802,0.127405 -0.0037,0.251322 -0.02996,0.125658 -0.09417,0.27052 -0.193246,0.415376 -0.102364,0.148349 -0.244412,0.30193 -0.436021,0.460754 -0.188285,0.153583 -0.4129,0.303677 -0.673865,0.448538 -0.57305,0.291461 -1.142853,0.486935 -1.94388,0.802828 -0.726706,0.286232 -1.593805,0.656229 -2.406395,1.24264 -0.426113,0.317653 -0.852226,0.713823 -1.218885,1.193776 -0.365002,0.47995 -0.682112,1.059393 -0.858835,1.73831 -0.158554,0.67891 -0.166815,1.432876 0.04625,2.157162 0.107351,0.368287 0.272514,0.717314 0.483922,1.027972 0.214707,0.314195 0.483921,0.598631 0.80268,0.825517 0.566502,0.397924 1.190809,0.544529 1.730883,0.560243 h 0.18333 c 0.457493,-0.01225 0.893518,-0.111676 1.291555,-0.253076 0.416203,-0.134385 0.792769,-0.315903 1.116486,-0.476463 0.330323,-0.165828 0.584669,-0.300179 0.850579,-0.411898 0.242767,-0.113447 0.454192,-0.186738 0.645781,-0.218183 0.181681,-0.02996 0.330342,-0.01547 0.437676,0.01547 0.0479,0.01418 0.09081,0.03662 0.125493,0.05931 0.03367,0.02288 0.05611,0.04362 0.06768,0.05414 0.0187,0.0084 0.03474,0.02254 0.04627,0.02609 0.01288,0 0.02449,0.0074 0.04127,0.0037 0.01514,-0.0037 0,0.05238 -0.0595,0.125588 -0.06937,0.08545 -0.170081,0.171047 -0.325378,0.29844 -0.150301,0.120433 -0.355111,0.27927 -0.541726,0.474717 -0.20652,0.214673 -0.407945,0.486935 -0.531817,0.823771 -0.123912,0.340335 -0.143662,0.689381 -0.09246,0.996557 0.05948,0.357758 0.216381,0.65099 0.398032,0.858686 0.244411,0.28275 0.528517,0.403155 0.738266,0.436313 0.05122,0.0074 0.09911,0.0107 0.143629,0.0084 0.373239,-0.01418 0.523567,-0.315903 0.589628,-0.404906 -0.09246,-0.09252 -0.186675,-0.32988 -0.260907,-0.532314 -0.008,-0.02287 -0.01642,-0.04362 -0.02288,-0.06631 -0.02995,-0.08904 -0.05612,-0.18674 -0.04953,-0.27402 0.0037,-0.06282 0.0187,-0.129131 0.04627,-0.171049 0.02288,-0.03662 0.05611,-0.06981 0.0859,-0.08205 0.02995,-0.0145 0.07925,-0.05586 0.16847,-0.113447 0.110634,-0.06981 0.188286,-0.109963 0.38482,-0.221599 0.153584,-0.08545 0.381499,-0.218185 0.599529,-0.39792 0.218023,-0.179779 0.469055,-0.441558 0.647433,-0.806316 0.15858,-0.326372 0.236162,-0.687648 0.236162,-1.043683 0.0017,-0.356047 -0.0743,-0.701609 -0.20649,-1.010516 -0.138797,-0.310684 -0.330339,-0.575953 -0.548341,-0.794111 -0.219632,-0.219924 -0.469047,-0.394437 -0.730004,-0.525328 -0.523562,-0.260067 -1.07519,-0.333352 -1.559119,-0.314161 -0.500432,0.01965 -0.959582,0.137895 -1.337798,0.263547 -0.373266,0.132644 -0.759739,0.307172 -1.033906,0.424109 -0.315459,0.134351 -0.558244,0.226882 -0.787818,0.28275 -0.21636,0.04014 -0.379873,0.03662 -0.498785,0.0084 -0.01483,-0.0037 -0.0297,-0.0073 -0.04459,-0.01225 -0.120567,-0.04014 -0.186631,-0.109963 -0.168463,-0.144887 0.0098,-0.01418 0.0116,-0.03126 0.01483,-0.0611 0.0034,-0.02772 0.0067,-0.05931 0.01982,-0.08728 0.01982,-0.05931 0.05285,-0.162317 0.120571,-0.258328 0.04955,-0.106458 0.132125,-0.226883 0.267553,-0.363027 0.13874,-0.139603 0.32041,-0.280976 0.538423,-0.406651 0.439327,-0.279204 0.962886,-0.486931 1.641698,-0.712078 0.627611,-0.209453 1.4881,-0.465983 2.279223,-0.813296 0.42611,-0.178008 0.868738,-0.396181 1.298158,-0.671934 0.439323,-0.280979 0.8737,-0.626559 1.270082,-1.054151 0.411249,-0.446792 0.767997,-0.973873 1.030606,-1.563776 0.269251,-0.607368 0.444349,-1.296755 0.460867,-2.035009 0.01611,-0.727536 -0.123945,-1.415179 -0.358417,-2.022539 -0.241077,-0.629309 -0.592887,-1.194778 -1.012399,-1.667752 -0.888559,-1.001789 -2.013314,-1.54632 -3.02409,-1.781932 -1.170987,-0.27401 -2.269309,-0.172783 -3.113278,0.0157 -0.234528,0.05411 -0.455845,0.113447 -0.662294,0.17802 -0.779559,0.242592 -1.426987,0.56896 -1.88118,0.822028 -0.738269,0.403158 -1.473232,0.893582 -1.973668,1.21646 -0.581367,0.375237 -1.101622,0.699859 -1.623528,0.949435 -0.232888,0.113447 -0.487236,0.214671 -0.751494,0.284483 -0.211404,0.05412 -0.417855,0.09076 -0.621004,0.10122 -0.388127,0.02092 -0.715146,-0.05235 -0.936463,-0.186747 -0.128821,-0.07328 -0.26095,-0.179762 -0.381519,-0.319386 -0.120566,-0.141368 -0.222965,-0.305424 -0.292332,-0.479954 -0.158555,-0.387452 -0.208103,-0.856932 -0.138736,-1.301981 0.01816,-0.277497 0.07598,-0.556742 0.166811,-0.834244 0.07101,-0.214669 0.168465,-0.432829 0.292339,-0.652734 0.29068,-0.516604 0.711837,-1.005284 1.205669,-1.425896 0.767997,-0.748726 1.666471,-1.289765 2.578156,-1.640566 1.01409,-0.390944 1.985233,-0.525328 2.837459,-0.532311 1.090063,-0.0069 2.066164,0.190238 2.830855,0.284481 0.02136,0.0018 0.04295,0.0054 0.0644,0.0069 1.208974,0.141369 2.135522,-0.157074 2.958031,-0.572451 0.797722,-0.401438 1.511215,-0.94422 1.957145,-0.94771 z m 0,0"
       id="path11-3" />
  </g>
</svg>
