<?xml version="1.0" encoding="UTF-8" standalone="no"?>
<svg
   width="64"
   height="64"
   version="1.1"
   id="svg73"
   sodipodi:docname="audacious.svg"
   inkscape:version="1.4.2 (ebf0e940d0, 2025-05-08)"
   xmlns:inkscape="http://www.inkscape.org/namespaces/inkscape"
   xmlns:sodipodi="http://sodipodi.sourceforge.net/DTD/sodipodi-0.dtd"
   xmlns="http://www.w3.org/2000/svg"
   xmlns:svg="http://www.w3.org/2000/svg"
   xmlns:rdf="http://www.w3.org/1999/02/22-rdf-syntax-ns#"
   xmlns:cc="http://creativecommons.org/ns#"
   xmlns:dc="http://purl.org/dc/elements/1.1/">
  <metadata
     id="metadata77">
    <rdf:RDF>
      <cc:Work
         rdf:about="">
        <dc:format>image/svg+xml</dc:format>
        <dc:type
           rdf:resource="http://purl.org/dc/dcmitype/StillImage" />
      </cc:Work>
    </rdf:RDF>
  </metadata>
  <sodipodi:namedview
     pagecolor="#f5f7fa"
     bordercolor="#666666"
     borderopacity="1"
     objecttolerance="10"
     gridtolerance="10"
     guidetolerance="10"
     inkscape:pageopacity="0"
     inkscape:pageshadow="2"
     inkscape:window-width="1377"
     inkscape:window-height="886"
     id="namedview75"
     showgrid="false"
     inkscape:zoom="6.2890624"
     inkscape:cx="47.622361"
     inkscape:cy="45.396274"
     inkscape:window-x="264"
     inkscape:window-y="84"
     inkscape:window-maximized="0"
     inkscape:current-layer="g877"
     inkscape:document-rotation="0"
     inkscape:pagecheckerboard="0"
     inkscape:showpageshadow="2"
     inkscape:deskcolor="#d1d1d1" />
  <defs
     id="defs29" />
  <circle
     cx="32.516094"
     cy="31.877844"
     r="0"
     fill="url(#b)"
     stroke-width="1.5715"
     id="circle41"
     style="fill:url(#b)" />
  <g
     aria-label="GZ"
     transform="matrix(1.2212657,0,0,0.81882264,0.4960938,-0.1661539)"
     id="text93"
     style="font-weight:bold;font-size:11.5263px;line-height:1.25;font-family:sans-serif;-inkscape-font-specification:'sans-serif Bold';fill:#f2f2f2;stroke-width:0.288159" />
  <g
     id="g877"
     transform="matrix(1.1,0,0,1.1,-3.1845928,-3.2065454)">
    <rect
       x="8.3496294"
       y="8.369586"
       width="47.272728"
       height="47.272728"
       rx="9.8825235"
       ry="9.6485243"
       fill="url(#linearGradient862)"
       stroke-width="3.0541"
       id="rect35-7-3"
       style="fill:#414141;fill-opacity:1;stroke:#dfdfdf;stroke-width:2.04545;stroke-dasharray:none;stroke-opacity:1" />
    <path
       style="fill:#dfdfdf;stroke-width:0.325986"
       d="M 16.469063,32.00595 V 16.521618 h 15.516931 15.51693 V 32.00595 47.490282 H 31.985994 16.469063 Z M 34.24459,44.314169 c 0.351367,-0.187918 0.723732,-0.627347 0.813865,-0.960446 0.08875,-0.327995 0.04002,-0.92726 -0.09695,-1.192118 -0.141698,-0.274015 -0.440581,-0.561084 -0.737919,-0.708752 -0.238886,-0.11864 -0.517179,-0.124411 -6.798083,-0.140931 -7.289777,-0.01918 -6.928474,-0.0398 -7.404324,0.422354 -0.329627,0.320129 -0.484674,0.685225 -0.486422,1.145401 -0.0029,0.739618 0.439441,1.325182 1.171696,1.551392 0.08988,0.02776 3.111958,0.04532 6.715732,0.03902 l 6.552317,-0.01148 z m -6.562017,-9.217355 c 1.168578,-0.250615 1.61638,-1.735026 0.791628,-2.624155 -0.366602,-0.395218 -0.598725,-0.462305 -1.687683,-0.487764 l -0.994257,-0.02325 V 27.34435 22.727053 l 0.994257,-0.02325 c 0.864137,-0.02021 1.028387,-0.04152 1.255046,-0.162874 0.966081,-0.517245 1.159793,-1.766088 0.392899,-2.532982 -0.494561,-0.494561 -0.494134,-0.494515 -4.378052,-0.473214 -3.325183,0.01824 -3.386521,0.02092 -3.642919,0.15953 -0.579304,0.313168 -0.881126,0.807069 -0.87873,1.437956 0.0017,0.459648 0.156752,0.825229 0.485107,1.144122 0.364603,0.354099 0.695167,0.439005 1.709181,0.439005 h 0.868548 v 4.628998 4.629001 h -0.871964 c -0.59815,0 -0.956759,0.02991 -1.14199,0.09527 -0.814324,0.287309 -1.227169,1.123593 -0.985012,1.9953 0.124758,0.449098 0.641475,0.921556 1.140846,1.043127 0.326477,0.07948 6.567665,0.07028 6.943095,-0.01023 z m 7.954463,0.0065 c 1.425158,-0.163923 2.581324,-0.727441 3.476696,-1.69455 1.879131,-2.029686 2.593659,-5.407062 2.30567,-10.898255 -0.09329,-1.778874 -0.09695,-1.806757 -0.281659,-2.14648 -0.534662,-0.983385 -1.850534,-1.1137 -2.584717,-0.255973 -0.377431,0.440943 -0.405608,0.651151 -0.3178,2.371011 0.201999,3.956482 -0.04336,6.214114 -0.854411,7.861779 -0.464844,0.944341 -1.114587,1.465268 -2.005242,1.60769 -0.225703,0.03609 -0.260163,0.02539 -0.260479,-0.08084 -0.0013,-0.46094 -0.384646,-1.027402 -0.858842,-1.269319 -0.749543,-0.382387 -1.657121,-0.11569 -2.072783,0.609098 l -0.196252,0.342201 8.55e-4,1.206148 c 7.14e-4,1.051447 0.01697,1.241722 0.126716,1.483507 0.192978,0.425146 0.597523,0.751003 1.077388,0.867825 0.292542,0.07122 1.813063,0.06883 2.444894,-0.0038 z"
       id="path13" />
  </g>
</svg>
