<?xml version="1.0" encoding="UTF-8" standalone="no"?>
<svg
   width="64"
   height="64"
   version="1.1"
   id="svg73"
   sodipodi:docname="audacious.svg"
   inkscape:version="1.4.2 (ebf0e940d0, 2025-05-08)"
   xmlns:inkscape="http://www.inkscape.org/namespaces/inkscape"
   xmlns:sodipodi="http://sodipodi.sourceforge.net/DTD/sodipodi-0.dtd"
   xmlns="http://www.w3.org/2000/svg"
   xmlns:svg="http://www.w3.org/2000/svg"
   xmlns:rdf="http://www.w3.org/1999/02/22-rdf-syntax-ns#"
   xmlns:cc="http://creativecommons.org/ns#"
   xmlns:dc="http://purl.org/dc/elements/1.1/">
  <metadata
     id="metadata77">
    <rdf:RDF>
      <cc:Work
         rdf:about="">
        <dc:format>image/svg+xml</dc:format>
        <dc:type
           rdf:resource="http://purl.org/dc/dcmitype/StillImage" />
      </cc:Work>
    </rdf:RDF>
  </metadata>
  <sodipodi:namedview
     pagecolor="#f5f7fa"
     bordercolor="#666666"
     borderopacity="1"
     objecttolerance="10"
     gridtolerance="10"
     guidetolerance="10"
     inkscape:pageopacity="0"
     inkscape:pageshadow="2"
     inkscape:window-width="1377"
     inkscape:window-height="886"
     id="namedview75"
     showgrid="false"
     inkscape:zoom="6.2890624"
     inkscape:cx="46.986336"
     inkscape:cy="40.467081"
     inkscape:window-x="12"
     inkscape:window-y="50"
     inkscape:window-maximized="0"
     inkscape:current-layer="g877"
     inkscape:document-rotation="0"
     inkscape:pagecheckerboard="0"
     inkscape:showpageshadow="2"
     inkscape:deskcolor="#d1d1d1" />
  <defs
     id="defs29" />
  <circle
     cx="32.516094"
     cy="31.877844"
     r="0"
     fill="url(#b)"
     stroke-width="1.5715"
     id="circle41"
     style="fill:url(#b)" />
  <g
     aria-label="GZ"
     transform="matrix(1.2212657,0,0,0.81882264,0.4960938,-0.1661539)"
     id="text93"
     style="font-weight:bold;font-size:11.5263px;line-height:1.25;font-family:sans-serif;-inkscape-font-specification:'sans-serif Bold';fill:#f2f2f2;stroke-width:0.288159" />
  <g
     id="g877"
     transform="matrix(1.1,0,0,1.1,-3.1845928,-3.2065454)">
    <rect
       x="8.3496294"
       y="8.369586"
       width="47.272728"
       height="47.272728"
       rx="9.8825235"
       ry="9.6485243"
       fill="url(#linearGradient862)"
       stroke-width="3.0541"
       id="rect35-7-3"
       style="fill:#414141;fill-opacity:1;stroke:#dfdfdf;stroke-width:2.04545;stroke-dasharray:none;stroke-opacity:1" />
    <path
       style="fill:#dfdfdf;fill-opacity:1;stroke:none;stroke-width:0.468838;stroke-dasharray:none;stroke-opacity:0.6"
       d="m 18.210555,46.448358 c -0.447091,-0.2213 -0.880446,-0.756318 -1.037675,-1.281106 -0.09418,-0.314392 -0.04121,-0.585998 0.566397,-2.903703 0.368669,-1.406283 0.679815,-2.722343 0.691436,-2.924567 0.01568,-0.272537 -0.07143,-0.551875 -0.336502,-1.079377 -1.153353,-2.29515 -1.614837,-4.358829 -1.523489,-6.812764 0.07738,-2.079033 0.491265,-3.681982 1.451161,-5.620448 3.077991,-6.215862 10.158531,-9.566272 17.188954,-8.13356 3.607237,0.735106 6.939197,2.80511 9.177951,5.701852 2.04825,2.650255 3.197303,6.163174 3.002336,9.178833 -0.481877,7.453463 -6.596128,13.437505 -14.276255,13.972224 -2.608455,0.181585 -5.053937,-0.249599 -7.808284,-1.376874 -0.267424,-0.109446 -0.53224,-0.05501 -3.309203,0.680433 -1.660188,0.439666 -3.101252,0.798936 -3.202366,0.798377 -0.101115,-5.55e-4 -0.364122,-0.09025 -0.584461,-0.199305 z m 15.115204,-2.01641 c 2.430485,-0.243571 4.752866,-1.12363 6.771927,-2.566105 0.846517,-0.60478 2.336734,-2.138675 2.94608,-3.032437 l 0.532701,-0.781341 -0.256942,-0.06311 c -0.141376,-0.03475 -2.613845,-0.171661 -5.494466,-0.304336 -2.880631,-0.132645 -5.247684,-0.25137 -5.260133,-0.263806 -0.01243,-0.01225 2.840804,-1.298375 6.340561,-2.857604 3.499739,-1.559227 6.379657,-2.848776 6.399794,-2.865661 0.08655,-0.07256 -0.19503,-2.205347 -0.394796,-2.990649 -1.222976,-4.807139 -5.206998,-8.479411 -10.325978,-9.517969 -1.241297,-0.251839 -4.157898,-0.22655 -5.419584,0.047 -2.42153,0.525003 -4.687811,1.681216 -6.444184,3.287701 -0.616629,0.564009 -1.531371,1.592136 -1.469895,1.652099 0.01433,0.01394 2.476955,0.141911 5.472474,0.28427 2.995519,0.142363 5.446399,0.283925 5.446399,0.314586 0,0.0307 -3.046004,1.414994 -6.768897,3.076298 l -6.768897,3.020553 0.05075,1.384184 c 0.12251,3.3416 1.393409,6.108688 3.919076,8.532885 2.833978,2.720119 6.729959,4.043769 10.724012,3.643458 z"
       id="path6" />
  </g>
</svg>
