<?xml version="1.0" encoding="UTF-8" standalone="no"?>
<svg
   width="64"
   height="64"
   version="1.1"
   id="svg73"
   sodipodi:docname="partitionmanager.svg"
   inkscape:version="1.4.2 (ebf0e940d0, 2025-05-08)"
   xmlns:inkscape="http://www.inkscape.org/namespaces/inkscape"
   xmlns:sodipodi="http://sodipodi.sourceforge.net/DTD/sodipodi-0.dtd"
   xmlns="http://www.w3.org/2000/svg"
   xmlns:svg="http://www.w3.org/2000/svg"
   xmlns:rdf="http://www.w3.org/1999/02/22-rdf-syntax-ns#"
   xmlns:cc="http://creativecommons.org/ns#"
   xmlns:dc="http://purl.org/dc/elements/1.1/">
  <metadata
     id="metadata77">
    <rdf:RDF>
      <cc:Work
         rdf:about="">
        <dc:format>image/svg+xml</dc:format>
        <dc:type
           rdf:resource="http://purl.org/dc/dcmitype/StillImage" />
      </cc:Work>
    </rdf:RDF>
  </metadata>
  <sodipodi:namedview
     pagecolor="#f5f7fa"
     bordercolor="#666666"
     borderopacity="1"
     objecttolerance="10"
     gridtolerance="10"
     guidetolerance="10"
     inkscape:pageopacity="0"
     inkscape:pageshadow="2"
     inkscape:window-width="1377"
     inkscape:window-height="886"
     id="namedview75"
     showgrid="false"
     inkscape:zoom="6.2890624"
     inkscape:cx="47.622361"
     inkscape:cy="45.396274"
     inkscape:window-x="264"
     inkscape:window-y="102"
     inkscape:window-maximized="0"
     inkscape:current-layer="g877"
     inkscape:document-rotation="0"
     inkscape:pagecheckerboard="0"
     inkscape:showpageshadow="2"
     inkscape:deskcolor="#d1d1d1" />
  <defs
     id="defs29">
    <linearGradient
       id="b"
       x1="399.57"
       x2="399.57"
       y1="545.8"
       y2="517.8"
       gradientTransform="matrix(2.1429,0,0,2.1429,-825.86391,-1107.6662)"
       gradientUnits="userSpaceOnUse">
      <stop
         stop-color="#3889e9"
         offset="0"
         id="stop2" />
      <stop
         stop-color="#5ea5fb"
         offset="1"
         id="stop4" />
    </linearGradient>
  </defs>
  <circle
     cx="32.516094"
     cy="31.877844"
     r="0"
     fill="url(#b)"
     stroke-width="1.5715"
     id="circle41"
     style="fill:url(#b)" />
  <g
     aria-label="GZ"
     transform="matrix(1.2212657,0,0,0.81882264,0.4960938,-0.1661539)"
     id="text93"
     style="font-weight:bold;font-size:11.5263px;line-height:1.25;font-family:sans-serif;-inkscape-font-specification:'sans-serif Bold';fill:#f2f2f2;stroke-width:0.288159" />
  <g
     id="g877"
     transform="matrix(1.1,0,0,1.1,-3.1845928,-3.2065454)">
    <rect
       x="8.3496294"
       y="8.369586"
       width="47.272728"
       height="47.272728"
       rx="9.8825235"
       ry="9.6485243"
       fill="url(#linearGradient862)"
       stroke-width="3.0541"
       id="rect35-7-3"
       style="fill:#414141;fill-opacity:1;stroke:#dfdfdf;stroke-width:2.04545;stroke-dasharray:none;stroke-opacity:1" />
    <path
       id="path1"
       style="fill:#dfdfdf;fill-opacity:1;stroke:none;stroke-width:0.416789;stroke-dasharray:none;stroke-dashoffset:2.2;stroke-opacity:0.6"
       d="m 40.540477,19.162628 c -0.51469,-2.15e-4 -1.065611,0.207036 -1.75511,0.611032 -1.640763,0.961354 -3.786574,1.414742 -6.733346,1.414742 -2.946486,0 -5.16388,-0.463035 -6.794871,-1.418843 -1.307842,-0.766412 -2.08864,-0.776569 -3.186239,-0.03651 -2.817907,1.898982 -4.941649,7.98746 -5.564665,15.943552 -0.373604,4.770919 -0.02463,7.286178 1.209705,8.701689 0.595322,0.682458 2.056763,0.566755 3.374881,-0.270633 1.117344,-0.709863 2.448651,-2.276267 4.039197,-4.752742 1.437282,-2.237862 3.175765,-2.974919 7.020411,-2.981219 3.836993,-0.006 5.344898,0.719986 7.114722,3.440488 2.969357,4.564343 5.713968,6.15337 7.323859,4.240119 0.891873,-1.059911 1.055111,-2.083975 1.012869,-6.347869 -0.07696,-7.745625 -2.101646,-14.79195 -5.019257,-17.481317 -0.777047,-0.716258 -1.380369,-1.061806 -2.042156,-1.062085 z m -16.669362,4.564084 h 1.779704 1.779707 v 1.52546 1.525468 h 1.525465 1.525459 v 1.906831 1.906824 h -1.525459 -1.525465 v 1.652585 1.652583 h -1.611572 c -0.885362,0 -1.682412,-0.07936 -1.775614,-0.172202 -0.09317,-0.09317 -0.172204,-0.833011 -0.172204,-1.648479 V 30.591295 H 22.34565 20.820184 V 28.684471 26.77764 h 1.525466 1.525465 v -1.525468 z m 14.508292,0 c 1.605535,0 2.293102,1.778888 1.135902,2.936112 -0.73594,0.735856 -1.407602,0.793701 -2.132369,0.180449 -1.257124,-1.063735 -0.600954,-3.116533 0.996467,-3.116533 z m -3.087824,3.260061 c 0.400898,2.79e-4 0.804555,0.16007 1.123586,0.512553 0.497316,0.549536 0.551035,1.807702 0.102554,2.394817 -0.877723,1.149058 -2.985309,0.409953 -2.985309,-1.045675 0,-1.104767 0.87721,-1.862329 1.759204,-1.861724 z m 6.302784,0.06192 c 0.462131,0.0087 0.910711,0.161484 1.172797,0.451054 0.497302,0.549536 0.551017,1.807692 0.102543,2.394817 -0.933597,1.222171 -2.985316,0.404154 -2.985316,-1.189209 0,-0.482959 0.193575,-1.006443 0.46336,-1.250715 0.308439,-0.279173 0.784588,-0.414394 1.246624,-0.405971 z m -3.104236,3.288755 c 1.423384,0 2.115962,1.5098 1.254809,2.739274 -0.294404,0.420265 -0.653406,0.565886 -1.394245,0.565886 -0.852922,0 -1.050844,-0.111007 -1.394226,-0.775065 -0.67706,-1.309314 0.06191,-2.53014 1.533662,-2.53014 z" />
  </g>
</svg>
