<?xml version="1.0" encoding="UTF-8" standalone="no"?>
<svg
   width="64"
   height="64"
   version="1.1"
   id="svg73"
   sodipodi:docname="audacious.svg"
   inkscape:version="1.4.2 (ebf0e940d0, 2025-05-08)"
   xmlns:inkscape="http://www.inkscape.org/namespaces/inkscape"
   xmlns:sodipodi="http://sodipodi.sourceforge.net/DTD/sodipodi-0.dtd"
   xmlns="http://www.w3.org/2000/svg"
   xmlns:svg="http://www.w3.org/2000/svg"
   xmlns:rdf="http://www.w3.org/1999/02/22-rdf-syntax-ns#"
   xmlns:cc="http://creativecommons.org/ns#"
   xmlns:dc="http://purl.org/dc/elements/1.1/">
  <metadata
     id="metadata77">
    <rdf:RDF>
      <cc:Work
         rdf:about="">
        <dc:format>image/svg+xml</dc:format>
        <dc:type
           rdf:resource="http://purl.org/dc/dcmitype/StillImage" />
      </cc:Work>
    </rdf:RDF>
  </metadata>
  <sodipodi:namedview
     pagecolor="#f5f7fa"
     bordercolor="#666666"
     borderopacity="1"
     objecttolerance="10"
     gridtolerance="10"
     guidetolerance="10"
     inkscape:pageopacity="0"
     inkscape:pageshadow="2"
     inkscape:window-width="1377"
     inkscape:window-height="886"
     id="namedview75"
     showgrid="false"
     inkscape:zoom="6.2890624"
     inkscape:cx="37.445963"
     inkscape:cy="34.901864"
     inkscape:window-x="1"
     inkscape:window-y="75"
     inkscape:window-maximized="0"
     inkscape:current-layer="g877"
     inkscape:document-rotation="0"
     inkscape:pagecheckerboard="0"
     inkscape:showpageshadow="2"
     inkscape:deskcolor="#d1d1d1" />
  <defs
     id="defs29" />
  <circle
     cx="32.516094"
     cy="31.877844"
     r="0"
     fill="url(#b)"
     stroke-width="1.5715"
     id="circle41"
     style="fill:url(#b)" />
  <g
     aria-label="GZ"
     transform="matrix(1.2212657,0,0,0.81882264,0.4960938,-0.1661539)"
     id="text93"
     style="font-weight:bold;font-size:11.5263px;line-height:1.25;font-family:sans-serif;-inkscape-font-specification:'sans-serif Bold';fill:#f2f2f2;stroke-width:0.288159" />
  <g
     id="g877"
     transform="matrix(1.1,0,0,1.1,-3.1845928,-3.2065454)">
    <rect
       x="8.3496294"
       y="8.369586"
       width="47.272728"
       height="47.272728"
       rx="9.8825235"
       ry="9.6485243"
       fill="url(#linearGradient862)"
       stroke-width="3.0541"
       id="rect35-7-3"
       style="fill:#414141;fill-opacity:1;stroke:#dfdfdf;stroke-width:2.04545;stroke-dasharray:none;stroke-opacity:1" />
    <path
       id="path4"
       style="fill:#dfdfdf;fill-opacity:1;stroke:none;stroke-width:0.505461;stroke-dasharray:none;stroke-opacity:0.6"
       d="m 33.369758,17.174008 c -0.870633,0.01527 -1.93493,0.118466 -2.673628,0.27072 -1.728774,0.356315 -3.860548,1.273617 -5.489954,2.36303 l -0.822652,0.550886 -0.51521,-0.292756 c -0.283211,-0.160926 -1.052326,-0.608827 -1.709315,-0.994739 -2.45056,-1.43945 -3.289224,-1.771617 -4.617984,-1.829988 l -0.9066,-0.03987 0.08183,0.366205 c 0.117469,0.522813 0.716721,1.877489 1.203551,2.721897 1.221406,2.118522 2.686821,3.633433 3.854091,3.983156 0.206441,0.06183 0.375648,0.133514 0.375648,0.159492 0,0.026 -0.173758,0.27068 -0.386142,0.543539 -2.132886,2.740179 -3.217003,6.073494 -2.785902,8.56756 0.452012,2.615014 2.441213,6.620044 4.032476,8.118464 1.310902,1.23442 2.620729,1.612731 4.625328,1.335769 0.952169,-0.131514 1.335731,-0.251915 2.483702,-0.777536 1.163811,-0.532821 1.94222,-0.735157 2.822628,-0.734512 0.794536,5.41e-4 1.221502,0.215831 1.992625,1.005229 0.351139,0.359475 0.710221,0.707243 0.797472,0.772285 0.08727,0.06508 0.528736,0.169728 0.981098,0.233972 1.123711,0.159449 4.110798,0.105321 5.237079,-0.09547 1.058325,-0.188673 2.562613,-0.679011 3.260181,-1.061893 0.616402,-0.33835 1.037112,-0.885731 1.470076,-1.912878 0.507255,-1.203409 0.646481,-1.895224 0.656865,-3.270682 0.01069,-1.381432 -0.130679,-2.029074 -0.679946,-3.118539 -1.317051,-2.612237 -4.240022,-4.748185 -7.697693,-5.625294 -3.279856,-0.832004 -7.072974,-0.574789 -9.807841,0.665257 -1.183834,0.536777 -2.696958,1.663463 -3.174142,2.364081 -0.118731,0.174326 -0.262215,0.317605 -0.318988,0.317939 -0.202526,0.0011 -0.894929,-0.886282 -1.090226,-1.396621 -0.483721,-1.264043 -0.437086,-3.124006 0.128016,-5.092272 l 0.134309,-0.46799 h 0.465894 c 0.632544,-4.88e-4 1.963505,-0.223934 2.562397,-0.430214 1.083513,-0.373197 2.265426,-1.087446 3.329441,-2.010463 1.017944,-0.883052 2.487283,-2.804152 3.427022,-4.481578 l 0.354665,-0.633777 -0.813209,-0.05667 c -0.228098,-0.01581 -0.496767,-0.02081 -0.786976,-0.01569 z m 2.762812,12.129947 c 0.630111,0.0088 1.296322,0.187387 1.619077,0.530949 0.25965,0.276363 0.217638,0.645836 -0.100748,0.882463 -0.312004,0.231926 -1.453594,0.295955 -2.013606,0.113332 -0.751263,-0.244998 -1.112363,-0.657217 -0.908701,-1.037764 0.18009,-0.336498 0.773859,-0.497828 1.40397,-0.488976 z m -16.464617,8.006182 c -0.01624,0.0261 0.06662,0.272473 0.251836,0.738714 1.95487,4.921115 6.052765,7.968943 11.617889,8.643107 4.46732,0.541182 9.148012,-0.429405 12.01137,-2.491037 0.681182,-0.490462 1.516595,-1.27265 1.254972,-1.175223 -1.988585,0.740571 -3.345267,0.973759 -5.708207,0.982144 -2.908467,0.01069 -3.556645,-0.157677 -4.401832,-1.140589 -0.238204,-0.276951 -0.590376,-0.608239 -0.78278,-0.735561 -0.307246,-0.203298 -0.434137,-0.229718 -1.04091,-0.218247 -0.837661,0.01547 -1.529086,0.187091 -2.268595,0.560325 -0.817723,0.412771 -1.633171,0.702568 -2.37877,0.845728 -0.924425,0.177492 -2.687016,0.170083 -3.308453,-0.01418 -1.750096,-0.516876 -3.208717,-2.076077 -4.692489,-5.014086 -0.347043,-0.68717 -0.533083,-1.015182 -0.554031,-0.981094 z m 13.014511,5.439592 c 0.591259,0.0404 0.972702,0.46639 0.972702,1.123803 0,0.419686 -0.260175,0.787433 -0.680997,0.963266 -0.385152,0.160898 -0.548706,0.155647 -0.918139,-0.03296 -0.954543,-0.48638 -0.700438,-1.928604 0.360956,-2.04824 0.09256,-0.01069 0.181005,-0.01193 0.265479,-0.0065 z" />
  </g>
</svg>
