<?xml version="1.0" encoding="UTF-8" standalone="no"?>
<svg
   width="64"
   height="64"
   version="1.1"
   id="svg73"
   sodipodi:docname="audacious.svg"
   inkscape:version="1.4.2 (ebf0e940d0, 2025-05-08)"
   xmlns:inkscape="http://www.inkscape.org/namespaces/inkscape"
   xmlns:sodipodi="http://sodipodi.sourceforge.net/DTD/sodipodi-0.dtd"
   xmlns="http://www.w3.org/2000/svg"
   xmlns:svg="http://www.w3.org/2000/svg"
   xmlns:rdf="http://www.w3.org/1999/02/22-rdf-syntax-ns#"
   xmlns:cc="http://creativecommons.org/ns#"
   xmlns:dc="http://purl.org/dc/elements/1.1/">
  <metadata
     id="metadata77">
    <rdf:RDF>
      <cc:Work
         rdf:about="">
        <dc:format>image/svg+xml</dc:format>
        <dc:type
           rdf:resource="http://purl.org/dc/dcmitype/StillImage" />
      </cc:Work>
    </rdf:RDF>
  </metadata>
  <sodipodi:namedview
     pagecolor="#f5f7fa"
     bordercolor="#666666"
     borderopacity="1"
     objecttolerance="10"
     gridtolerance="10"
     guidetolerance="10"
     inkscape:pageopacity="0"
     inkscape:pageshadow="2"
     inkscape:window-width="1377"
     inkscape:window-height="886"
     id="namedview75"
     showgrid="false"
     inkscape:zoom="6.2890624"
     inkscape:cx="46.986336"
     inkscape:cy="40.467081"
     inkscape:window-x="12"
     inkscape:window-y="50"
     inkscape:window-maximized="0"
     inkscape:current-layer="g877"
     inkscape:document-rotation="0"
     inkscape:pagecheckerboard="0"
     inkscape:showpageshadow="2"
     inkscape:deskcolor="#d1d1d1" />
  <defs
     id="defs29" />
  <circle
     cx="32.516094"
     cy="31.877844"
     r="0"
     fill="url(#b)"
     stroke-width="1.5715"
     id="circle41"
     style="fill:url(#b)" />
  <g
     aria-label="GZ"
     transform="matrix(1.2212657,0,0,0.81882264,0.4960938,-0.1661539)"
     id="text93"
     style="font-weight:bold;font-size:11.5263px;line-height:1.25;font-family:sans-serif;-inkscape-font-specification:'sans-serif Bold';fill:#f2f2f2;stroke-width:0.288159" />
  <g
     id="g877"
     transform="matrix(1.1,0,0,1.1,-3.1845928,-3.2065454)">
    <rect
       x="8.3496294"
       y="8.369586"
       width="47.272728"
       height="47.272728"
       rx="9.8825235"
       ry="9.6485243"
       fill="url(#linearGradient862)"
       stroke-width="3.0541"
       id="rect35-7-3"
       style="fill:#414141;fill-opacity:1;stroke:#dfdfdf;stroke-width:2.04545;stroke-dasharray:none;stroke-opacity:1" />
    <path
       id="path100"
       style="fill:#dfdfdf;fill-opacity:1;stroke:none;stroke-width:0.486252;stroke-dasharray:none;stroke-opacity:0.6"
       d="m 41.248843,16.966742 c -0.343289,0.01698 -0.710228,0.294433 -1.373281,0.888928 -0.539178,0.483432 -5.562641,5.466131 -11.162906,11.071732 l -10.182803,10.190404 3.253712,3.198622 c 1.789345,1.759059 3.282443,3.198634 3.318291,3.198634 0.07935,0 11.803526,-11.752693 16.433796,-16.473692 3.584215,-3.654435 4.863363,-5.053349 5.306988,-5.810334 0.264223,-0.45085 0.270268,-0.497463 0.113991,-0.82435 -0.309433,-0.647166 -3.726037,-4.214363 -4.82265,-5.035367 -0.36545,-0.27362 -0.618143,-0.417785 -0.885138,-0.404577 z m -6.44474,7.195012 2.233722,2.155843 c 1.22872,1.185774 2.243785,2.189224 2.256513,2.229922 l 0.002,0.002 c 0.0048,0.04774 -0.102921,0.224796 -0.245046,0.39888 l -0.26591,0.326701 -0.577414,-0.567929 -0.575533,-0.569827 -0.528034,0.59832 c -0.29008,0.329339 -0.659583,0.666146 -0.820552,0.74837 -0.368067,0.188017 -0.857773,0.268558 -1.261218,0.207038 -0.20366,-0.03106 -0.629642,-0.353485 -1.228925,-0.928818 -1.516486,-1.455886 -1.507839,-2.005285 0.05509,-3.6165 z m 0.03227,1.289707 -0.598318,0.619212 c -0.841027,0.871091 -0.825417,1.089864 0.140586,2.007689 0.955741,0.908076 1.139433,0.919142 1.977298,0.110173 l 0.619213,-0.598319 -1.069376,-1.069375 z m -3.848201,2.623102 2.254614,2.172939 c 1.240726,1.194479 2.256515,2.231013 2.256515,2.303999 0,0.07297 -0.123875,0.24892 -0.275417,0.391282 l -0.275418,0.258322 -0.545132,-0.535639 -0.545135,-0.537533 -0.62871,0.613511 c -0.345604,0.336885 -0.726863,0.659319 -0.847142,0.71798 -0.276848,0.135016 -0.731151,0.233961 -0.873734,0.189945 -0.06014,-0.01857 -0.244774,-0.06415 -0.410275,-0.100685 -0.344951,-0.07609 -1.770486,-1.373989 -2.003891,-1.825344 -0.221649,-0.428628 -0.194936,-1.179604 0.05509,-1.570822 0.115303,-0.180414 0.575883,-0.721224 1.02379,-1.202333 z m -0.004,1.318199 -0.585021,0.653402 c -0.365713,0.408642 -0.584903,0.751797 -0.585025,0.91742 -1.35e-4,0.181661 0.234468,0.500385 0.746474,1.012393 0.974682,0.974683 1.155455,0.984822 2.020984,0.110161 l 0.630608,-0.638205 -1.114961,-1.027588 z m -3.696277,3.367675 c 0.587168,-0.01683 1.038581,0.314006 2.163442,1.413171 l 1.244122,1.215632 -0.328602,0.3305 -0.3305,0.328599 -1.242221,-1.225127 c -0.84262,-0.831351 -1.322092,-1.227029 -1.489147,-1.227029 -0.153861,0 -0.499309,0.247854 -0.91932,0.659102 l -0.672396,0.659099 1.405573,1.337193 1.403675,1.335293 -0.237428,0.301996 c -0.130578,0.165358 -0.295776,0.298927 -0.366587,0.296288 -0.0708,-0.0024 -0.891299,-0.738938 -1.823449,-1.635371 l -1.694239,-1.6297 0.991499,-0.997198 c 0.807947,-0.811879 1.078904,-1.016747 1.456855,-1.101666 0.15969,-0.03587 0.303267,-0.05691 0.43877,-0.06078 z m -10.376547,8.336562 v 2.974499 2.974495 h 2.797848 c 1.641493,0 2.781247,-0.04207 2.75986,-0.100684 -0.03998,-0.109566 -4.392643,-4.720704 -5.111344,-5.415226 z" />
  </g>
</svg>
