<?xml version="1.0" encoding="UTF-8" standalone="no"?>
<svg
   width="64"
   height="64"
   version="1.1"
   id="svg73"
   sodipodi:docname="audacious.svg"
   inkscape:version="1.4.2 (ebf0e940d0, 2025-05-08)"
   xmlns:inkscape="http://www.inkscape.org/namespaces/inkscape"
   xmlns:sodipodi="http://sodipodi.sourceforge.net/DTD/sodipodi-0.dtd"
   xmlns="http://www.w3.org/2000/svg"
   xmlns:svg="http://www.w3.org/2000/svg"
   xmlns:rdf="http://www.w3.org/1999/02/22-rdf-syntax-ns#"
   xmlns:cc="http://creativecommons.org/ns#"
   xmlns:dc="http://purl.org/dc/elements/1.1/">
  <metadata
     id="metadata77">
    <rdf:RDF>
      <cc:Work
         rdf:about="">
        <dc:format>image/svg+xml</dc:format>
        <dc:type
           rdf:resource="http://purl.org/dc/dcmitype/StillImage" />
      </cc:Work>
    </rdf:RDF>
  </metadata>
  <sodipodi:namedview
     pagecolor="#f5f7fa"
     bordercolor="#666666"
     borderopacity="1"
     objecttolerance="10"
     gridtolerance="10"
     guidetolerance="10"
     inkscape:pageopacity="0"
     inkscape:pageshadow="2"
     inkscape:window-width="1377"
     inkscape:window-height="886"
     id="namedview75"
     showgrid="false"
     inkscape:zoom="6.2890624"
     inkscape:cx="37.445963"
     inkscape:cy="34.901864"
     inkscape:window-x="1"
     inkscape:window-y="75"
     inkscape:window-maximized="0"
     inkscape:current-layer="g877"
     inkscape:document-rotation="0"
     inkscape:pagecheckerboard="0"
     inkscape:showpageshadow="2"
     inkscape:deskcolor="#d1d1d1" />
  <defs
     id="defs29" />
  <circle
     cx="32.516094"
     cy="31.877844"
     r="0"
     fill="url(#b)"
     stroke-width="1.5715"
     id="circle41"
     style="fill:url(#b)" />
  <g
     aria-label="GZ"
     transform="matrix(1.2212657,0,0,0.81882264,0.4960938,-0.1661539)"
     id="text93"
     style="font-weight:bold;font-size:11.5263px;line-height:1.25;font-family:sans-serif;-inkscape-font-specification:'sans-serif Bold';fill:#f2f2f2;stroke-width:0.288159" />
  <g
     id="g877"
     transform="matrix(1.1,0,0,1.1,-3.1845928,-3.2065454)">
    <rect
       x="8.3496294"
       y="8.369586"
       width="47.272728"
       height="47.272728"
       rx="9.8825235"
       ry="9.6485243"
       fill="url(#linearGradient862)"
       stroke-width="3.0541"
       id="rect35-7-3"
       style="fill:#414141;fill-opacity:1;stroke:#dfdfdf;stroke-width:2.04545;stroke-dasharray:none;stroke-opacity:1" />
    <path
       style="fill:#dfdfdf;fill-opacity:1;stroke:none;stroke-width:0.510565;stroke-dasharray:none;stroke-opacity:0.6"
       d="m 31.985858,16.693603 c -0.131583,0 -0.26166,-5.37e-4 -0.394069,0.0036 -7.230991,0.212053 -13.565172,6.09997 -13.567216,13.292741 v 2.769036 3.750684 h -0.06685 c -0.462026,0 -0.833876,0.319953 -0.833876,0.779338 v 6.597139 c 0,0.459384 0.372305,0.709619 0.833876,0.730078 h 0.649159 0.411662 0.807488 v 1.871826 c 0,0.459401 0.424622,0.830357 0.886652,0.830357 h 2.862276 c 0.462033,4e-6 0.754712,-0.370946 0.754712,-0.830326 V 35.552732 c 0,-0.459391 -0.292701,-0.848424 -0.754712,-0.844432 H 21.6398 v -1.19804 -0.751193 h -0.02461 v -2.769036 c 0.273395,-5.506336 5.416673,-9.693382 10.370678,-9.693382 4.954007,0 10.097284,4.187046 10.37069,9.693382 v 2.769036 h -0.02449 v 0.751193 1.19804 h -1.93503 c -0.462016,-0.0039 -0.754714,0.385042 -0.754714,0.844432 v 10.935399 c 0,0.459386 0.292673,0.830328 0.754714,0.830361 h 2.862276 c 0.462033,0 0.886651,-0.370978 0.886651,-0.830361 V 44.61631 h 0.80749 0.41166 0.649159 c 0.461567,-0.0203 0.833875,-0.270699 0.833875,-0.730088 v -6.597186 c 0,-0.459388 -0.371874,-0.779337 -0.833875,-0.779337 h -0.06701 V 32.759013 29.989976 C 45.945064,22.797205 39.610998,16.909285 32.380004,16.6972 32.247595,16.693 32.117518,16.6935 31.985934,16.6935 Z"
       id="path4" />
  </g>
</svg>
