<?xml version="1.0" encoding="UTF-8" standalone="no"?>
<svg
   width="64"
   height="64"
   version="1.1"
   id="svg73"
   sodipodi:docname="Logo.svg"
   inkscape:version="1.3.2 (091e20ef0f, 2023-11-25)"
   xmlns:inkscape="http://www.inkscape.org/namespaces/inkscape"
   xmlns:sodipodi="http://sodipodi.sourceforge.net/DTD/sodipodi-0.dtd"
   xmlns="http://www.w3.org/2000/svg"
   xmlns:svg="http://www.w3.org/2000/svg"
   xmlns:rdf="http://www.w3.org/1999/02/22-rdf-syntax-ns#"
   xmlns:cc="http://creativecommons.org/ns#"
   xmlns:dc="http://purl.org/dc/elements/1.1/">
  <metadata
     id="metadata77">
    <rdf:RDF>
      <cc:Work
         rdf:about="">
        <dc:format>image/svg+xml</dc:format>
        <dc:type
           rdf:resource="http://purl.org/dc/dcmitype/StillImage" />
      </cc:Work>
    </rdf:RDF>
  </metadata>
  <sodipodi:namedview
     pagecolor="#f5f7fa"
     bordercolor="#666666"
     borderopacity="1"
     objecttolerance="10"
     gridtolerance="10"
     guidetolerance="10"
     inkscape:pageopacity="0"
     inkscape:pageshadow="2"
     inkscape:window-width="1377"
     inkscape:window-height="886"
     id="namedview75"
     showgrid="false"
     inkscape:zoom="6.2890624"
     inkscape:cx="38.797516"
     inkscape:cy="12.322982"
     inkscape:window-x="181"
     inkscape:window-y="77"
     inkscape:window-maximized="0"
     inkscape:current-layer="g877"
     inkscape:document-rotation="0"
     inkscape:pagecheckerboard="0"
     inkscape:showpageshadow="2"
     inkscape:deskcolor="#d1d1d1" />
  <defs
     id="defs29">
    <linearGradient
       id="b"
       x1="399.57"
       x2="399.57"
       y1="545.8"
       y2="517.8"
       gradientTransform="matrix(2.1429,0,0,2.1429,-825.86391,-1107.6662)"
       gradientUnits="userSpaceOnUse">
      <stop
         stop-color="#3889e9"
         offset="0"
         id="stop2" />
      <stop
         stop-color="#5ea5fb"
         offset="1"
         id="stop4" />
    </linearGradient>
    <linearGradient
       id="d"
       x2="1"
       gradientTransform="matrix(14.905727,-4.7106182,4.7106182,14.905727,322.04962,998.26962)"
       gradientUnits="userSpaceOnUse">
      <stop
         stop-color="#fafafa"
         offset="0"
         id="stop7" />
      <stop
         stop-color="#aaa"
         offset="1"
         id="stop8" />
    </linearGradient>
    <linearGradient
       id="e"
       x2="1"
       gradientTransform="matrix(21.439909,0,0,21.439909,26.63554,1159.7788)"
       gradientUnits="userSpaceOnUse">
      <stop
         stop-color="#f0f0f0"
         offset="0"
         id="stop9" />
      <stop
         stop-color="#b7f1ff"
         offset="1"
         id="stop10" />
    </linearGradient>
  </defs>
  <circle
     cx="32.516094"
     cy="31.877844"
     r="0"
     fill="url(#b)"
     stroke-width="1.5715"
     id="circle41"
     style="fill:url(#b)" />
  <g
     aria-label="GZ"
     transform="matrix(1.2212657,0,0,0.81882264,0.4960938,-0.1661539)"
     id="text93"
     style="font-weight:bold;font-size:11.5263px;line-height:1.25;font-family:sans-serif;-inkscape-font-specification:'sans-serif Bold';fill:#f2f2f2;stroke-width:0.288159" />
  <g
     id="g877"
     transform="matrix(1.1,0,0,1.1,-3.1845928,-3.2065454)">
    <rect
       x="6.3010068"
       y="5.4939413"
       width="51.635597"
       height="53.148327"
       rx="10.980581"
       ry="10.720582"
       fill="url(#linearGradient862)"
       stroke-width="3.0541"
       id="rect35-7-3"
       style="fill:#414141;fill-opacity:1;stroke:#dfdfdf;stroke-width:2.27272727;stroke-dasharray:none;stroke-opacity:1" />
    <path
       style="fill:#dfdfdf;stroke-width:0.0385374;fill-opacity:1"
       d="m 29.363025,53.94484 c -0.259678,-0.09172 -0.608218,-0.416938 -0.735993,-0.686761 -0.04792,-0.101234 -0.15763,-0.448074 -0.243734,-0.770743 -0.644463,-2.415006 -0.817011,-3.104811 -0.783918,-3.13403 0.02084,-0.0184 0.188209,-0.110486 0.371908,-0.20461 0.873922,-0.447792 2.048684,-1.190916 2.792191,-1.766282 0.221584,-0.171479 0.447032,-0.343497 0.500994,-0.382265 0.09623,-0.06915 0.0981,-0.01408 0.0981,2.888376 0,2.828324 -0.0042,2.970943 -0.102265,3.232235 -0.121063,0.323536 -0.43904,0.655729 -0.771249,0.805682 -0.281694,0.127162 -0.794387,0.135532 -1.126033,0.0184 z m 3.975407,0.02004 c -0.407317,-0.156935 -0.702745,-0.438164 -0.886587,-0.843934 -0.07855,-0.173388 -0.08834,-0.495128 -0.09763,-3.215639 -0.0079,-2.346035 0.0032,-3.012419 0.05139,-2.975852 0.03396,0.02594 0.223577,0.173686 0.421401,0.328347 0.811989,0.63488 1.953614,1.365633 2.91846,1.868116 0.423957,0.220793 0.442313,0.252413 0.343317,0.591244 -0.02885,0.09873 -0.239069,0.884743 -0.467175,1.746692 -0.228098,0.86195 -0.448413,1.64811 -0.489589,1.747027 -0.10683,0.256649 -0.413344,0.557657 -0.712126,0.699314 -0.287333,0.136228 -0.802226,0.162264 -1.08145,0.05469 z M 21.445613,48.532601 c -3.067469,-0.199613 -5.830596,-1.347282 -7.777029,-3.230183 -1.273581,-1.232013 -2.042424,-2.577898 -2.380173,-4.166577 -0.129658,-0.609871 -0.131439,-2.11201 -0.0031,-2.705794 0.39175,-1.814022 1.401831,-3.409105 3.000136,-4.737722 l 0.264599,-0.219959 0.03345,-0.471606 c 0.3114,-4.390877 1.590625,-8.449189 3.679873,-11.674303 0.167691,-0.25887 0.304899,-0.482239 0.304899,-0.496387 0,-0.01414 -0.09828,-0.05483 -0.21838,-0.09041 -0.120106,-0.0356 -0.376994,-0.143941 -0.570858,-0.24077 -1.324039,-0.661367 -2.030538,-1.728119 -1.837691,-2.774738 0.07847,-0.425876 0.338599,-1.018374 0.423946,-0.965628 0.03852,0.02386 0.04711,0.01552 0.02348,-0.02274 -0.09052,-0.146454 0.843364,-1.133421 1.621738,-1.71393 1.670214,-1.245628 3.108581,-1.367886 4.072423,-0.346175 0.337843,0.358134 0.714905,1.016652 0.779608,1.361564 0.01834,0.09777 0.04231,0.177766 0.05315,0.177766 0.0109,0 0.180871,-0.114941 0.377749,-0.255421 1.862339,-1.328874 4.113114,-2.260798 6.330769,-2.621242 0.646387,-0.105056 2.115916,-0.205876 2.586317,-0.177428 0.141305,0.0086 0.489871,0.02912 0.774581,0.0457 2.199266,0.128322 4.778844,1.009902 6.797486,2.323067 0.236379,0.153772 0.434383,0.272596 0.439995,0.264067 0.0055,-0.0085 0.08605,-0.251084 0.178713,-0.538977 0.358133,-1.112582 0.980063,-1.763406 1.861878,-1.948389 0.418212,-0.08773 0.724922,-0.06818 1.239251,0.07905 1.219418,0.349055 2.892506,1.685932 3.472728,2.774875 0.386771,0.725891 0.438916,1.387359 0.160569,2.036717 -0.289406,0.675142 -1.141881,1.394256 -2.078434,1.753265 -0.198349,0.07604 -0.369766,0.144829 -0.380894,0.152871 -0.01116,0.008 0.188359,0.321521 0.443344,0.696612 2.171155,3.193849 3.53853,7.088907 3.946284,11.241241 0.04028,0.409769 0.07364,0.887274 0.07422,1.061108 l 0.0021,0.316064 0.321139,0.271215 c 1.639974,1.384983 2.611629,2.917707 3.005303,4.740629 0.128232,0.593789 0.126458,2.09593 -0.0026,2.705806 -0.337756,1.588732 -1.109053,2.938869 -2.378675,4.163841 -1.202594,1.1603 -2.600162,1.990294 -4.310162,2.559737 -4.403346,1.466363 -9.454023,0.593232 -12.705533,-2.196445 l -0.270806,-0.232335 0.604795,-0.111129 c 2.541723,-0.467037 4.404785,-2.060775 4.77054,-4.080899 0.127836,-0.706067 0.06968,-1.037974 -0.219565,-1.253048 -0.181902,-0.135257 -0.525266,-0.16556 -0.722181,-0.06373 -0.266384,0.137754 -0.358893,0.32326 -0.415922,0.834017 -0.06462,0.578829 -0.237782,1.018875 -0.58078,1.475949 -0.61383,0.817952 -1.611197,1.402638 -2.869605,1.682229 -0.240223,0.05338 -0.46566,0.09754 -0.50099,0.09816 -0.05011,0.0021 -0.06422,-0.369352 -0.06422,-1.682851 v -1.683966 l 0.29546,-0.06693 c 1.173901,-0.265954 2.41347,-1.438515 2.968699,-2.808208 0.116183,-0.286611 0.150424,-0.463576 0.168562,-0.871117 0.02221,-0.498503 0.0184,-0.520079 -0.149223,-0.852888 -0.134445,-0.266954 -0.239537,-0.39238 -0.481687,-0.574839 -0.519702,-0.391604 -0.970481,-0.568627 -1.890427,-0.742413 -0.682057,-0.128848 -2.885804,-0.129358 -3.58331,-0.0021 -1.279528,0.235769 -2.066365,0.683242 -2.401544,1.365746 -0.121882,0.248187 -0.141677,0.350681 -0.140136,0.725761 0.0037,0.906447 0.556126,1.941308 1.520643,2.848657 0.451746,0.424966 1.104047,0.790099 1.624787,0.909498 l 0.269769,0.06185 v 1.665647 1.665648 l -0.218379,-0.03604 c -0.402099,-0.06634 -1.036315,-0.289799 -1.502114,-0.529252 -0.707831,-0.363872 -1.185054,-0.7778 -1.571566,-1.36313 -0.270441,-0.409549 -0.401886,-0.785156 -0.453717,-1.29652 -0.048,-0.473576 -0.127823,-0.640168 -0.380534,-0.794253 -0.209419,-0.12769 -0.478659,-0.12769 -0.688082,0 -0.269808,0.164507 -0.35081,0.33621 -0.341101,0.723005 0.03496,1.392938 0.854354,2.734523 2.219383,3.633805 0.739027,0.486864 1.847161,0.916296 2.633715,1.020634 0.138053,0.01827 0.251,0.04783 0.251,0.06561 0,0.01775 -0.179197,0.183224 -0.398219,0.367693 -1.935594,1.630217 -4.469547,2.586216 -7.349474,2.772788 -0.827624,0.05361 -0.894468,0.0535 -1.758197,-0.0026 z m 1.933802,-16.243638 c 0.724177,-0.36166 1.277301,-1.228755 1.611625,-2.526379 0.216978,-0.842175 0.27508,-1.440869 0.241769,-2.491151 -0.04071,-1.283722 -0.220681,-2.078338 -0.685256,-3.025642 -0.464894,-0.947964 -1.152785,-1.489039 -1.836256,-1.444352 -0.428112,0.02801 -0.743598,0.1975 -1.130045,0.607157 -0.506608,0.537026 -0.889027,1.369503 -1.121224,2.440744 -0.149447,0.689459 -0.186721,2.329135 -0.07011,3.083957 0.28516,1.845901 1.031547,3.129496 2.00629,3.4503 0.27602,0.09085 0.691995,0.05081 0.983208,-0.09463 z M 22.49897,30.470267 c -0.257615,-0.133716 -0.435127,-0.338619 -0.620112,-0.715804 -0.319268,-0.651005 -0.397252,-1.059613 -0.402029,-2.106712 -0.0032,-0.79267 0.01191,-0.988543 0.108732,-1.370134 0.371685,-1.464901 1.109644,-1.985533 1.796825,-1.267641 0.212883,0.222398 0.446557,0.728091 0.589674,1.276123 0.09723,0.372285 0.113862,0.569481 0.112661,1.335963 -0.0021,0.800727 -0.01584,0.953165 -0.133375,1.391913 -0.315421,1.177535 -0.886397,1.750045 -1.452376,1.456292 z m 0.69689,-2.798541 c 0.05456,-0.02923 0.149818,-0.150606 0.211668,-0.26976 0.163247,-0.314556 0.167159,-1.08895 0.0072,-1.435099 -0.234855,-0.508334 -0.615154,-0.327128 -0.732938,0.349236 -0.09527,0.54714 0.03035,1.164165 0.271466,1.333024 0.128683,0.09014 0.118192,0.08915 0.242566,0.02258 z m 18.671142,4.604452 c 0.316256,-0.154725 0.737593,-0.585027 0.99345,-1.014569 1.064827,-1.787688 1.149321,-5.027341 0.181359,-6.953768 -0.660416,-1.314342 -1.530545,-1.803137 -2.4193,-1.359016 -1.094364,0.546853 -1.86075,2.464691 -1.86075,4.656407 0,2.251219 0.794844,4.187637 1.941614,4.730207 0.326056,0.154249 0.773821,0.131451 1.163627,-0.05926 z M 40.92969,30.464782 c -0.179564,-0.08849 -0.458517,-0.400834 -0.588496,-0.658929 -0.176959,-0.351389 -0.350189,-1.039471 -0.408493,-1.622611 -0.132802,-1.328288 0.192201,-2.683256 0.781681,-3.258855 0.163035,-0.159203 0.245271,-0.198695 0.455822,-0.218926 0.432019,-0.04151 0.747227,0.236203 1.053104,0.927858 0.244749,0.553416 0.315281,1.006746 0.31338,2.014432 -0.0021,1.037416 -0.08418,1.484649 -0.384758,2.092544 -0.3372,0.681946 -0.778174,0.943324 -1.22224,0.724487 z m 0.764127,-2.793056 c 0.05457,-0.02923 0.150009,-0.150606 0.212092,-0.26976 0.168537,-0.323568 0.167686,-1.093451 -0.0021,-1.437214 -0.202452,-0.411079 -0.524127,-0.359206 -0.685319,0.110514 -0.164375,0.479025 -0.03093,1.389489 0.230411,1.57257 0.130729,0.09157 0.11992,0.09052 0.244411,0.02386 z"
       id="path1" />
  </g>
</svg>
