<?xml version="1.0" encoding="UTF-8" standalone="no"?>
<svg
   width="64"
   height="64"
   version="1.1"
   id="svg73"
   sodipodi:docname="audacious.svg"
   inkscape:version="1.4.2 (ebf0e940d0, 2025-05-08)"
   xmlns:inkscape="http://www.inkscape.org/namespaces/inkscape"
   xmlns:sodipodi="http://sodipodi.sourceforge.net/DTD/sodipodi-0.dtd"
   xmlns="http://www.w3.org/2000/svg"
   xmlns:svg="http://www.w3.org/2000/svg"
   xmlns:rdf="http://www.w3.org/1999/02/22-rdf-syntax-ns#"
   xmlns:cc="http://creativecommons.org/ns#"
   xmlns:dc="http://purl.org/dc/elements/1.1/">
  <metadata
     id="metadata77">
    <rdf:RDF>
      <cc:Work
         rdf:about="">
        <dc:format>image/svg+xml</dc:format>
        <dc:type
           rdf:resource="http://purl.org/dc/dcmitype/StillImage" />
      </cc:Work>
    </rdf:RDF>
  </metadata>
  <sodipodi:namedview
     pagecolor="#f5f7fa"
     bordercolor="#666666"
     borderopacity="1"
     objecttolerance="10"
     gridtolerance="10"
     guidetolerance="10"
     inkscape:pageopacity="0"
     inkscape:pageshadow="2"
     inkscape:window-width="1377"
     inkscape:window-height="886"
     id="namedview75"
     showgrid="false"
     inkscape:zoom="6.2890624"
     inkscape:cx="47.622361"
     inkscape:cy="45.396274"
     inkscape:window-x="0"
     inkscape:window-y="75"
     inkscape:window-maximized="0"
     inkscape:current-layer="g877"
     inkscape:document-rotation="0"
     inkscape:pagecheckerboard="0"
     inkscape:showpageshadow="2"
     inkscape:deskcolor="#d1d1d1" />
  <defs
     id="defs29" />
  <circle
     cx="32.516094"
     cy="31.877844"
     r="0"
     fill="url(#b)"
     stroke-width="1.5715"
     id="circle41"
     style="fill:url(#b)" />
  <g
     aria-label="GZ"
     transform="matrix(1.2212657,0,0,0.81882264,0.4960938,-0.1661539)"
     id="text93"
     style="font-weight:bold;font-size:11.5263px;line-height:1.25;font-family:sans-serif;-inkscape-font-specification:'sans-serif Bold';fill:#f2f2f2;stroke-width:0.288159" />
  <g
     id="g877"
     transform="matrix(1.1,0,0,1.1,-3.1845928,-3.2065454)">
    <rect
       x="8.3496294"
       y="8.369586"
       width="47.272728"
       height="47.272728"
       rx="9.8825235"
       ry="9.6485243"
       fill="url(#linearGradient862)"
       stroke-width="3.0541"
       id="rect35-7-3"
       style="fill:#414141;fill-opacity:1;stroke:#dfdfdf;stroke-width:2.04545;stroke-dasharray:none;stroke-opacity:1" />
    <path
       id="path10"
       style="fill:#dfdfdf;fill-opacity:1;stroke:none;stroke-width:0.463097;stroke-dasharray:none;stroke-opacity:0.6"
       d="m 43.467112,19.888341 c -0.403721,0.002 -0.779672,0.40328 -1.528683,1.153637 l -1.032578,1.034948 2.17434,2.175529 2.174343,2.175525 0.986289,-0.981537 c 1.054957,-1.04874 1.190434,-1.231177 1.190434,-1.604645 0,-0.390695 -0.320974,-0.788084 -1.90018,-2.346437 -1.112516,-1.097835 -1.606415,-1.609143 -2.063965,-1.60702 z m -3.49058,3.18674 c -0.03983,0 -0.833047,0.763015 -1.763689,1.694847 l -1.692472,1.693659 0.111602,0.320457 c 0.157776,0.455099 0.07773,0.955187 -0.259931,1.626008 -0.528576,1.049998 -1.387855,1.909275 -2.437854,2.437824 -0.681825,0.343216 -1.219917,0.42902 -1.647371,0.261114 l -0.296715,-0.117501 -1.73164,1.730454 -1.730454,1.730452 2.156537,2.158913 c 1.186652,1.18713 2.17457,2.15773 2.19452,2.15773 0.01993,0 2.603527,-2.567738 5.742064,-5.706465 l 5.70646,-5.70646 -2.138738,-2.141109 c -1.176637,-1.17713 -2.172527,-2.139923 -2.212319,-2.139923 z m -22.678668,8.365043 c -0.04877,-0.002 -0.09517,0.0029 -0.143605,0.01189 -0.50247,0.09426 -0.786174,0.75833 -0.498484,1.169065 0.06222,0.08885 0.319583,0.258689 0.570883,0.377422 0.251299,0.118736 0.504556,0.285771 0.563762,0.370304 0.17047,0.243386 0.127976,0.739155 -0.149547,1.731638 -0.414616,1.482759 -0.404871,2.254952 0.03798,2.866284 0.439601,0.606855 1.153397,0.949487 2.266918,1.090733 1.024816,0.129986 1.530627,0.266603 1.804037,0.486617 0.774987,0.623611 1.165953,1.665742 1.237904,3.299492 0.03515,0.797887 0.09353,0.969178 0.396413,1.157198 0.380426,0.236181 0.410539,0.120807 0.06528,-0.252839 -0.188737,-0.204206 -0.343307,-0.437232 -0.343007,-0.517461 3e-4,-0.0802 0.243691,-0.689516 0.540023,-1.354214 0.401533,-0.90066 0.527107,-1.254973 0.49374,-1.390987 -0.114221,-0.465628 -0.567838,-1.246932 -0.977983,-1.685373 -0.733011,-0.783596 -1.298741,-1.039278 -2.67045,-1.207043 -1.061816,-0.129872 -1.516385,-0.306321 -1.628383,-0.63261 -0.0555,-0.161648 -0.02088,-0.391605 0.169721,-1.106151 0.497458,-1.864936 0.517574,-2.280814 0.144799,-3.053814 -0.258056,-0.535105 -0.573684,-0.822679 -1.258081,-1.147699 -0.308588,-0.146552 -0.475587,-0.206726 -0.62192,-0.212449 z m 10.302012,3.940401 -1.300806,1.301994 -1.301996,1.301992 2.174343,2.175531 2.175529,2.175527 1.303179,-1.300803 1.301996,-1.301999 -2.175531,-2.175531 z m -2.285908,3.30068 c -0.07081,0.08539 -2.065148,4.478734 -2.065148,4.549263 0,0.03571 0.181235,0.247754 0.403535,0.472375 0.301518,0.304707 0.433161,0.394399 0.517474,0.350135 0.06215,-0.03253 1.092798,-0.501505 2.289467,-1.040884 1.196672,-0.539372 2.18975,-0.992946 2.207574,-1.008831 0.01781,-0.01608 -0.719967,-0.782249 -1.639063,-1.701967 -0.919097,-0.91974 -1.69012,-1.648693 -1.713839,-1.620091 z" />
  </g>
</svg>
