<?xml version="1.0" encoding="UTF-8" standalone="no"?>
<svg
   width="64"
   height="64"
   version="1.1"
   id="svg73"
   sodipodi:docname="com.github.robertsanseries.ciano.svg"
   inkscape:version="1.4.2 (ebf0e940d0, 2025-05-08)"
   xmlns:inkscape="http://www.inkscape.org/namespaces/inkscape"
   xmlns:sodipodi="http://sodipodi.sourceforge.net/DTD/sodipodi-0.dtd"
   xmlns="http://www.w3.org/2000/svg"
   xmlns:svg="http://www.w3.org/2000/svg"
   xmlns:rdf="http://www.w3.org/1999/02/22-rdf-syntax-ns#"
   xmlns:cc="http://creativecommons.org/ns#"
   xmlns:dc="http://purl.org/dc/elements/1.1/">
  <metadata
     id="metadata77">
    <rdf:RDF>
      <cc:Work
         rdf:about="">
        <dc:format>image/svg+xml</dc:format>
        <dc:type
           rdf:resource="http://purl.org/dc/dcmitype/StillImage" />
      </cc:Work>
    </rdf:RDF>
  </metadata>
  <sodipodi:namedview
     pagecolor="#f5f7fa"
     bordercolor="#666666"
     borderopacity="1"
     objecttolerance="10"
     gridtolerance="10"
     guidetolerance="10"
     inkscape:pageopacity="0"
     inkscape:pageshadow="2"
     inkscape:window-width="1377"
     inkscape:window-height="886"
     id="namedview75"
     showgrid="false"
     inkscape:zoom="6.2890624"
     inkscape:cx="47.622361"
     inkscape:cy="45.396274"
     inkscape:window-x="147"
     inkscape:window-y="75"
     inkscape:window-maximized="0"
     inkscape:current-layer="g877"
     inkscape:document-rotation="0"
     inkscape:pagecheckerboard="0"
     inkscape:showpageshadow="2"
     inkscape:deskcolor="#d1d1d1" />
  <defs
     id="defs29">
    <linearGradient
       id="b"
       x1="399.57"
       x2="399.57"
       y1="545.8"
       y2="517.8"
       gradientTransform="matrix(2.1429,0,0,2.1429,-825.86391,-1107.6662)"
       gradientUnits="userSpaceOnUse">
      <stop
         stop-color="#3889e9"
         offset="0"
         id="stop2" />
      <stop
         stop-color="#5ea5fb"
         offset="1"
         id="stop4" />
    </linearGradient>
  </defs>
  <circle
     cx="32.516094"
     cy="31.877844"
     r="0"
     fill="url(#b)"
     stroke-width="1.5715"
     id="circle41"
     style="fill:url(#b)" />
  <g
     aria-label="GZ"
     transform="matrix(1.2212657,0,0,0.81882264,0.4960938,-0.1661539)"
     id="text93"
     style="font-weight:bold;font-size:11.5263px;line-height:1.25;font-family:sans-serif;-inkscape-font-specification:'sans-serif Bold';fill:#f2f2f2;stroke-width:0.288159" />
  <g
     id="g877"
     transform="matrix(1.1,0,0,1.1,-3.1845928,-3.2065454)">
    <rect
       x="8.3496294"
       y="8.369586"
       width="47.272728"
       height="47.272728"
       rx="9.8825235"
       ry="9.6485243"
       fill="url(#linearGradient862)"
       stroke-width="3.0541"
       id="rect35-7-3"
       style="fill:#414141;fill-opacity:1;stroke:#dfdfdf;stroke-width:2.04545;stroke-dasharray:none;stroke-opacity:1" />
    <path
       id="path102"
       style="fill:#dfdfdf;fill-opacity:1;stroke:none;stroke-width:0.46533;stroke-dasharray:none;stroke-dashoffset:2.2;stroke-opacity:0.6"
       d="m 27.75684,17.319422 c -6.932827,0 -6.694427,-0.02264 -7.098591,0.661591 -0.163334,0.276535 -0.178911,1.514918 -0.178911,13.964213 0,15.084998 -0.04844,14.082647 0.689544,14.532623 0.341491,0.208159 0.630296,0.213939 10.796043,0.21433 11.380337,4.43e-4 10.791791,0.03248 11.301077,-0.615003 0.228133,-0.289974 0.227288,-0.323653 0.227288,-9.812036 v -9.519442 h -4.1372 c -4.638746,-1.92e-4 -4.718156,-0.01308 -5.095186,-0.767821 -0.172276,-0.344838 -0.191788,-0.801842 -0.191967,-4.521177 v -4.137278 z m 7.627862,0.167728 v 3.539044 c 0,3.862972 0.0198,4.011336 0.629907,4.342272 0.247013,0.134017 0.917192,0.164092 3.792495,0.167726 l 3.492454,0.0038 -1.867364,-1.945628 c -1.027709,-1.070078 -2.809007,-2.882756 -3.958359,-4.027451 z m -9.754274,13.971668 h 6.355 6.356863 v 0.821863 0.821862 h -6.356863 -6.355 v -0.821862 z m 0,3.067542 h 6.355 6.356863 v 0.877774 0.875912 h -6.356863 -6.355 v -0.875917 z m 0,3.179366 h 6.355 6.356863 v 0.875901 0.877784 h -6.356863 -6.355 v -0.877784 z m 0,3.177493 h 3.999364 4.001231 v 0.877773 0.8759 h -4.001231 -3.999364 v -0.8759 z" />
    <rect
       x="37.737823"
       y="37.757782"
       width="22.610399"
       height="22.610399"
       rx="4.7267799"
       ry="4.6148596"
       fill="url(#linearGradient862)"
       stroke-width="3.0541"
       id="rect35-7-3-1"
       style="fill:#414141;fill-opacity:1;stroke:#dfdfdf;stroke-width:0.978336;stroke-dasharray:none;stroke-opacity:1" />
    <path
       d="m 49.139384,43.567381 c -3.094293,0 -5.619123,2.418256 -5.807053,5.465463 H 41.51927 l 2.916666,4.361862 2.916662,-4.361862 h -2.075824 c 0.179092,-1.977028 1.838287,-3.521019 3.86261,-3.521019 0.748767,0 1.457393,0.211705 2.049553,0.578077 l 0.998495,-1.655407 c -0.886459,-0.545074 -1.931826,-0.867114 -3.048048,-0.867114 z m 4.598349,1.68168 -2.916665,4.361861 h 2.07582 c -0.179091,1.977029 -1.838286,3.521016 -3.862606,3.521016 -0.748767,0 -1.45739,-0.211705 -2.049553,-0.578077 l -0.998496,1.655407 c 0.886456,0.545074 1.931834,0.867117 3.048049,0.867117 3.094293,0 5.619126,-2.418255 5.807053,-5.465463 h 1.813061 z"
       style="clip-rule:evenodd;fill:#dfdfdf;fill-opacity:1;fill-rule:evenodd;stroke:none;stroke-width:0.42409;stroke-linejoin:round;stroke-miterlimit:1.41421;stroke-dasharray:none;stroke-opacity:0.6"
       id="path2-3" />
  </g>
</svg>
