<?xml version="1.0" encoding="UTF-8" standalone="no"?>
<svg
   width="64"
   height="64"
   version="1.1"
   id="svg73"
   sodipodi:docname="audacious.svg"
   inkscape:version="1.4.2 (ebf0e940d0, 2025-05-08)"
   xmlns:inkscape="http://www.inkscape.org/namespaces/inkscape"
   xmlns:sodipodi="http://sodipodi.sourceforge.net/DTD/sodipodi-0.dtd"
   xmlns="http://www.w3.org/2000/svg"
   xmlns:svg="http://www.w3.org/2000/svg"
   xmlns:rdf="http://www.w3.org/1999/02/22-rdf-syntax-ns#"
   xmlns:cc="http://creativecommons.org/ns#"
   xmlns:dc="http://purl.org/dc/elements/1.1/">
  <metadata
     id="metadata77">
    <rdf:RDF>
      <cc:Work
         rdf:about="">
        <dc:format>image/svg+xml</dc:format>
        <dc:type
           rdf:resource="http://purl.org/dc/dcmitype/StillImage" />
      </cc:Work>
    </rdf:RDF>
  </metadata>
  <sodipodi:namedview
     pagecolor="#f5f7fa"
     bordercolor="#666666"
     borderopacity="1"
     objecttolerance="10"
     gridtolerance="10"
     guidetolerance="10"
     inkscape:pageopacity="0"
     inkscape:pageshadow="2"
     inkscape:window-width="1377"
     inkscape:window-height="886"
     id="namedview75"
     showgrid="false"
     inkscape:zoom="6.2890624"
     inkscape:cx="47.622361"
     inkscape:cy="45.396274"
     inkscape:window-x="0"
     inkscape:window-y="75"
     inkscape:window-maximized="0"
     inkscape:current-layer="g877"
     inkscape:document-rotation="0"
     inkscape:pagecheckerboard="0"
     inkscape:showpageshadow="2"
     inkscape:deskcolor="#d1d1d1" />
  <defs
     id="defs29" />
  <circle
     cx="32.516094"
     cy="31.877844"
     r="0"
     fill="url(#b)"
     stroke-width="1.5715"
     id="circle41"
     style="fill:url(#b)" />
  <g
     aria-label="GZ"
     transform="matrix(1.2212657,0,0,0.81882264,0.4960938,-0.1661539)"
     id="text93"
     style="font-weight:bold;font-size:11.5263px;line-height:1.25;font-family:sans-serif;-inkscape-font-specification:'sans-serif Bold';fill:#f2f2f2;stroke-width:0.288159" />
  <g
     id="g877"
     transform="matrix(1.1,0,0,1.1,-3.1845928,-3.2065454)">
    <rect
       x="8.3496294"
       y="8.369586"
       width="47.272728"
       height="47.272728"
       rx="9.8825235"
       ry="9.6485243"
       fill="url(#linearGradient862)"
       stroke-width="3.0541"
       id="rect35-7-3"
       style="fill:#414141;fill-opacity:1;stroke:#dfdfdf;stroke-width:2.04545;stroke-dasharray:none;stroke-opacity:1" />
    <path
       id="path12"
       style="fill:#dfdfdf;stroke:none;stroke-width:0.0914666;stroke-dasharray:none;fill-opacity:1"
       d="m 28.691779,16.686082 c -3.291108,0 -6.235452,2.123251 -7.258906,5.234633 l -0.168063,0.513831 -0.326493,0.103832 c -2.058481,0.659 -3.79153,2.413224 -4.484231,4.539895 -0.248396,0.762605 -0.323284,1.271952 -0.323284,2.184845 0,0.913442 0.07535,1.421461 0.324354,2.185913 0.793175,2.435088 2.757896,4.200885 5.314919,4.777538 0.381724,0.0861 0.582539,0.09987 1.453707,0.100619 l 1.010531,9.5e-4 0.115611,0.206593 c 0.39181,0.699445 1.331748,1.709413 2.094924,2.25121 0.524825,0.37256 1.473406,0.854932 2.033907,1.035151 0.356819,0.11473 1.069271,0.276409 1.509371,0.342547 0.07546,0.01117 0.548141,0.01436 1.051208,0.0066 0.996759,-0.01596 1.406463,-0.07913 2.226592,-0.343628 0.580696,-0.18724 1.524226,-0.66564 2.049964,-1.039431 0.238962,-0.169916 0.67526,-0.548857 0.969852,-0.841396 l 0.53524,-0.532032 0.231213,0.108116 c 0.342067,0.158427 0.916409,0.330577 1.359506,0.407858 0.498725,0.08696 1.38112,0.08677 1.916157,0 2.104282,-0.341314 3.871048,-1.885628 4.518483,-3.948991 0.139506,-0.44466 0.255534,-1.112601 0.255881,-1.472976 v -0.25248 l 0.350037,-0.250492 c 0.98951,-0.707438 1.770553,-1.79074 2.140952,-2.970816 0.371648,-1.184045 0.323487,-2.568713 -0.130627,-3.74453 -0.307938,-0.797397 -0.755122,-1.465238 -1.381984,-2.06602 -0.922967,-0.884568 -2.076618,-1.43253 -3.314197,-1.5736 -0.249166,-0.02842 -0.257048,-0.03401 -0.358613,-0.242999 -0.387771,-0.798152 -1.2277,-1.627724 -2.084209,-2.057465 -0.915936,-0.459557 -2.172833,-0.5908 -3.178246,-0.332916 -0.527034,0.135181 -1.22479,0.476076 -1.68386,0.823197 -0.208835,0.15791 -0.384755,0.278921 -0.390724,0.269757 -0.408526,-0.626598 -1.280318,-1.536174 -1.885109,-1.966462 -1.343966,-0.956232 -2.889068,-1.456972 -4.493863,-1.456972 z m 11.905842,5.397347 0.181998,0.102767 c 0.105973,0.06032 0.238901,0.196341 0.320109,0.327568 l 0.138071,0.224797 0.0139,2.038189 c 0.01481,2.211079 0.0068,2.299214 -0.228031,2.58413 -0.284768,0.3455 -0.03378,0.324355 -3.787349,0.324355 -1.848765,0 -3.418877,-0.01583 -3.488683,-0.03529 -0.191813,-0.05362 -0.475045,-0.335252 -0.558788,-0.554533 -0.04098,-0.107308 -0.08889,-0.372014 -0.105978,-0.587691 l -0.03103,-0.391793 -0.811422,0.670116 -0.810351,0.67012 -9.5e-4,1.809106 -9.5e-4,1.809106 0.812494,0.669048 0.811422,0.670118 0.03101,-0.393932 c 0.01707,-0.216747 0.065,-0.482524 0.105973,-0.589831 0.08049,-0.210805 0.368314,-0.502659 0.536309,-0.543804 0.05723,-0.01404 1.650677,-0.01993 3.541135,-0.01281 l 3.437303,0.01281 0.172377,0.140236 c 0.0949,0.07681 0.215506,0.220799 0.267617,0.320071 0.09109,0.173686 0.09476,0.258886 0.107024,2.254424 l 0.01255,2.073513 -0.110306,0.240857 c -0.06571,0.14345 -0.180264,0.293629 -0.283642,0.372525 l -0.173471,0.132736 -3.456573,0.01163 c -3.74931,0.01278 -3.559934,0.02387 -3.839557,-0.232221 -0.222842,-0.204018 -0.292356,-0.458972 -0.321014,-1.172121 l -0.02674,-0.66153 -1.39483,-1.155045 -1.394832,-1.156115 -4.77968,-0.01285 -4.77861,-0.01285 -0.20553,-0.114541 c -0.257096,-0.143533 -0.479797,-0.467076 -0.548174,-0.796439 -0.03438,-0.165634 -0.0468,-0.827951 -0.03747,-2.000721 l 0.0139,-1.752371 0.126316,-0.259054 c 0.07059,-0.143784 0.200121,-0.313795 0.291151,-0.383227 0.337408,-0.257353 0.187565,-0.249418 5.250689,-0.249418 h 4.670517 l 1.398041,-1.155046 1.398045,-1.155046 0.02035,-0.669048 c 0.0181,-0.597518 0.0324,-0.69134 0.132738,-0.886354 0.06178,-0.120033 0.19142,-0.282612 0.28796,-0.360749 l 0.175559,-0.1413 3.459783,-0.01179 z m -6.425002,1.234259 v 1.577884 1.577884 h 3.017676 3.018753 v -1.577884 -1.577884 h -3.018753 z m -13.171148,4.343997 v 1.601434 1.600362 h 4.664069 4.665139 V 29.263119 27.661685 H 25.66554 Z m 13.171148,4.391096 v 1.577883 1.577885 h 3.017676 3.018753 v -1.577885 -1.577883 h -3.018753 z m 2.140955,8.197719 c -0.04032,7.73e-4 -0.0804,0.0035 -0.119902,0.0064 -1.169034,0.09412 -2.128779,0.881132 -2.458887,2.016774 -0.09592,0.329984 -0.107112,0.949799 -0.02356,1.303845 0.229109,0.970741 1.058169,1.802736 2.032836,2.039251 0.328079,0.0797 0.919989,0.0767 1.242827,-0.0058 0.978059,-0.248604 1.759846,-1.021777 2.01142,-1.988942 0.10577,-0.406559 0.07212,-1.141776 -0.07068,-1.547909 -0.140508,-0.39967 -0.503587,-0.925068 -0.814624,-1.179669 -0.502718,-0.411277 -1.19434,-0.657058 -1.799457,-0.644194 z m -8.174161,2.743629 c -0.807238,4.53e-4 -1.581021,0.460896 -1.958974,1.25246 -0.168878,0.353721 -0.171277,0.368401 -0.171277,0.912043 v 0.551294 l 0.193754,0.392871 c 0.294769,0.595095 0.76601,0.984328 1.395904,1.153968 0.747951,0.201441 1.580228,-0.04664 2.122756,-0.632653 0.992202,-1.071696 0.672896,-2.769878 -0.641217,-3.410536 -0.304496,-0.148466 -0.625074,-0.219632 -0.940949,-0.21945 z" />
  </g>
</svg>
