<?xml version="1.0" encoding="UTF-8" standalone="no"?>
<svg
   width="64"
   height="64"
   version="1.1"
   id="svg73"
   sodipodi:docname="audacious.svg"
   inkscape:version="1.4.2 (ebf0e940d0, 2025-05-08)"
   xmlns:inkscape="http://www.inkscape.org/namespaces/inkscape"
   xmlns:sodipodi="http://sodipodi.sourceforge.net/DTD/sodipodi-0.dtd"
   xmlns="http://www.w3.org/2000/svg"
   xmlns:svg="http://www.w3.org/2000/svg"
   xmlns:rdf="http://www.w3.org/1999/02/22-rdf-syntax-ns#"
   xmlns:cc="http://creativecommons.org/ns#"
   xmlns:dc="http://purl.org/dc/elements/1.1/">
  <metadata
     id="metadata77">
    <rdf:RDF>
      <cc:Work
         rdf:about="">
        <dc:format>image/svg+xml</dc:format>
        <dc:type
           rdf:resource="http://purl.org/dc/dcmitype/StillImage" />
      </cc:Work>
    </rdf:RDF>
  </metadata>
  <sodipodi:namedview
     pagecolor="#f5f7fa"
     bordercolor="#666666"
     borderopacity="1"
     objecttolerance="10"
     gridtolerance="10"
     guidetolerance="10"
     inkscape:pageopacity="0"
     inkscape:pageshadow="2"
     inkscape:window-width="1377"
     inkscape:window-height="886"
     id="namedview75"
     showgrid="false"
     inkscape:zoom="6.2890624"
     inkscape:cx="46.986336"
     inkscape:cy="40.467081"
     inkscape:window-x="12"
     inkscape:window-y="50"
     inkscape:window-maximized="0"
     inkscape:current-layer="g877"
     inkscape:document-rotation="0"
     inkscape:pagecheckerboard="0"
     inkscape:showpageshadow="2"
     inkscape:deskcolor="#d1d1d1" />
  <defs
     id="defs29" />
  <circle
     cx="32.516094"
     cy="31.877844"
     r="0"
     fill="url(#b)"
     stroke-width="1.5715"
     id="circle41"
     style="fill:url(#b)" />
  <g
     aria-label="GZ"
     transform="matrix(1.2212657,0,0,0.81882264,0.4960938,-0.1661539)"
     id="text93"
     style="font-weight:bold;font-size:11.5263px;line-height:1.25;font-family:sans-serif;-inkscape-font-specification:'sans-serif Bold';fill:#f2f2f2;stroke-width:0.288159" />
  <g
     id="g877"
     transform="matrix(1.1,0,0,1.1,-3.1845928,-3.2065454)">
    <rect
       x="8.3496294"
       y="8.369586"
       width="47.272728"
       height="47.272728"
       rx="9.8825235"
       ry="9.6485243"
       fill="url(#linearGradient862)"
       stroke-width="3.0541"
       id="rect35-7-3"
       style="fill:#414141;fill-opacity:1;stroke:#dfdfdf;stroke-width:2.04545;stroke-dasharray:none;stroke-opacity:1" />
    <path
       style="fill:#dfdfdf;fill-opacity:1;stroke:none;stroke-width:0.496125;stroke-dasharray:none;stroke-opacity:0.6"
       d="m 29.320526,47.528289 c -3.445107,-0.677183 -5.632711,-1.849099 -8.1441,-4.362873 -2.885038,-2.887766 -4.168416,-5.458701 -4.687706,-9.390673 -0.830677,-6.289708 2.557649,-12.776681 8.253795,-15.801942 2.502827,-1.329268 4.07126,-1.695865 7.255523,-1.695865 2.444683,0 3.146152,0.08191 4.462519,0.521004 8.784176,2.930179 13.277647,12.036848 10.157625,20.585903 -1.726701,4.731285 -6.056658,8.708142 -10.774405,9.895763 -1.964025,0.494417 -4.735575,0.600074 -6.523251,0.24868 z m 5.399823,-3.256258 c 1.957613,-0.421105 1.956164,-0.431828 -0.375082,-2.77523 -1.163409,-1.16948 -2.219663,-2.126323 -2.347229,-2.126323 -0.348374,0 -4.463303,4.201425 -4.287303,4.377427 0.645166,0.645166 4.950417,0.967083 7.009614,0.524126 z m -6.292252,-5.794134 3.564863,-3.570092 3.575017,3.570092 c 1.966262,1.963553 3.6973,3.570093 3.846752,3.570093 0.529343,0 2.683672,-2.460863 3.478525,-3.973479 1.08133,-2.057775 1.488806,-3.750027 1.485632,-6.16985 -0.0047,-3.522239 -1.106031,-6.313229 -3.470001,-8.793081 l -1.410482,-1.47962 -2.578771,2.56231 c -1.418323,1.40927 -2.57877,2.661443 -2.57877,2.782605 0,0.121163 0.574187,0.800539 1.275972,1.509724 l 1.275975,1.289429 1.156618,-1.142251 c 0.63614,-0.628239 1.265489,-1.074966 1.398558,-0.992726 0.133067,0.08224 0.456695,0.856584 0.719183,1.720766 0.601218,1.979377 0.507897,4.206855 -0.249463,5.954663 l -0.515431,1.189463 -3.593017,-3.588067 c -1.976161,-1.973437 -3.693493,-3.588069 -3.816297,-3.588069 -0.122807,0 -1.822568,1.601637 -3.777255,3.55919 -3.989253,3.995107 -3.767433,3.922375 -4.480596,1.469168 -0.484458,-1.666469 -0.348907,-3.976969 0.338951,-5.77755 l 0.499304,-1.30701 1.264681,1.251486 1.264681,1.251484 1.276243,-1.289702 c 0.701935,-0.709337 1.276244,-1.388836 1.276244,-1.509998 0,-0.121162 -1.160446,-1.373335 -2.57877,-2.782605 l -2.578772,-2.56231 -1.381716,1.452608 c -2.449347,2.57502 -3.51005,5.240307 -3.526686,8.861697 -0.01103,2.394463 0.374832,3.947875 1.527227,6.148818 0.786053,1.501276 2.938137,3.952907 3.469928,3.952907 0.152247,0 1.881,-1.60654 3.841673,-3.570093 z M 34.2743,22.483435 c 1.141082,-1.188401 2.074695,-2.234623 2.074695,-2.324937 0,-0.269216 -3.003592,-0.869361 -4.350957,-0.869361 -1.315839,0 -4.350958,0.597705 -4.350958,0.856832 0,0.269938 4.044347,4.498193 4.30254,4.498193 0.137493,0 1.183598,-0.972327 2.32468,-2.160727 z"
       id="path10" />
  </g>
</svg>
