<?xml version="1.0" encoding="UTF-8" standalone="no"?>
<svg
   width="64"
   height="64"
   version="1.1"
   id="svg73"
   sodipodi:docname="audacious.svg"
   inkscape:version="1.4.2 (ebf0e940d0, 2025-05-08)"
   xmlns:inkscape="http://www.inkscape.org/namespaces/inkscape"
   xmlns:sodipodi="http://sodipodi.sourceforge.net/DTD/sodipodi-0.dtd"
   xmlns="http://www.w3.org/2000/svg"
   xmlns:svg="http://www.w3.org/2000/svg"
   xmlns:rdf="http://www.w3.org/1999/02/22-rdf-syntax-ns#"
   xmlns:cc="http://creativecommons.org/ns#"
   xmlns:dc="http://purl.org/dc/elements/1.1/">
  <metadata
     id="metadata77">
    <rdf:RDF>
      <cc:Work
         rdf:about="">
        <dc:format>image/svg+xml</dc:format>
        <dc:type
           rdf:resource="http://purl.org/dc/dcmitype/StillImage" />
      </cc:Work>
    </rdf:RDF>
  </metadata>
  <sodipodi:namedview
     pagecolor="#f5f7fa"
     bordercolor="#666666"
     borderopacity="1"
     objecttolerance="10"
     gridtolerance="10"
     guidetolerance="10"
     inkscape:pageopacity="0"
     inkscape:pageshadow="2"
     inkscape:window-width="1377"
     inkscape:window-height="886"
     id="namedview75"
     showgrid="false"
     inkscape:zoom="6.2890624"
     inkscape:cx="47.622361"
     inkscape:cy="45.396274"
     inkscape:window-x="264"
     inkscape:window-y="75"
     inkscape:window-maximized="0"
     inkscape:current-layer="g877"
     inkscape:document-rotation="0"
     inkscape:pagecheckerboard="0"
     inkscape:showpageshadow="2"
     inkscape:deskcolor="#d1d1d1" />
  <defs
     id="defs29" />
  <circle
     cx="32.516094"
     cy="31.877844"
     r="0"
     fill="url(#b)"
     stroke-width="1.5715"
     id="circle41"
     style="fill:url(#b)" />
  <g
     aria-label="GZ"
     transform="matrix(1.2212657,0,0,0.81882264,0.4960938,-0.1661539)"
     id="text93"
     style="font-weight:bold;font-size:11.5263px;line-height:1.25;font-family:sans-serif;-inkscape-font-specification:'sans-serif Bold';fill:#f2f2f2;stroke-width:0.288159" />
  <g
     id="g877"
     transform="matrix(1.1,0,0,1.1,-3.1845928,-3.2065454)">
    <rect
       x="8.3496294"
       y="8.369586"
       width="47.272728"
       height="47.272728"
       rx="9.8825235"
       ry="9.6485243"
       fill="url(#linearGradient862)"
       stroke-width="3.0541"
       id="rect35-7-3"
       style="fill:#414141;fill-opacity:1;stroke:#dfdfdf;stroke-width:2.04545;stroke-dasharray:none;stroke-opacity:1" />
    <path
       style="fill:#dfdfdf;stroke:none;stroke-width:0.468838;stroke-dasharray:none;stroke-opacity:0.6;fill-opacity:1"
       d="m 25.376153,44.431737 v -2.941981 l -0.246175,-0.06176 c -0.34711,-0.08716 -1.613827,-0.729433 -2.124583,-1.07729 -1.85866,-1.265865 -3.318339,-3.351202 -3.939722,-5.628396 l -0.250506,-0.918033 -10e-4,-4.544263 -0.0012,-4.544261 0.251783,-0.918032 c 0.481327,-1.754987 1.351412,-3.270824 2.586213,-4.505624 1.181228,-1.181228 2.569444,-1.999443 4.15826,-2.450877 0.701184,-0.199232 0.816946,-0.203035 6.176871,-0.203035 5.359924,0 5.475684,0.0039 6.176865,0.203035 1.58882,0.451434 2.977036,1.269649 4.158264,2.450877 1.234804,1.2348 2.104882,2.750637 2.586208,4.505624 l 0.251756,0.918032 -0.001,4.544261 -10e-4,4.544263 -0.244667,0.891023 c -0.759407,2.765621 -2.580941,5.05633 -4.973839,6.254972 -1.689481,0.846295 -2.499741,0.978593 -5.993147,0.978593 h -2.698796 l -2.73215,2.547546 c -1.502682,1.40115 -2.823484,2.626235 -2.935116,2.722423 l -0.202969,0.174883 z m 11.019535,-6.964774 c 0.402947,-0.11966 0.620476,-0.272148 1.164818,-0.816476 1.046147,-1.046148 1.345061,-1.900797 0.901544,-2.577691 -0.208754,-0.318591 -1.584722,-1.40026 -2.435494,-1.914573 -0.84657,-0.511775 -1.431165,-0.631109 -1.901133,-0.388076 -0.152821,0.07902 -0.494243,0.39346 -0.758713,0.698744 -0.426028,0.491769 -0.519073,0.554776 -0.816033,0.552573 -0.427698,-0.0032 -1.377853,-0.407937 -2.085255,-0.888326 -1.044749,-0.709475 -2.0696,-1.994616 -2.580027,-3.2353 -0.3128,-0.760305 -0.285619,-1.061571 0.127457,-1.41287 0.956229,-0.813228 1.130353,-1.132815 0.998922,-1.833412 -0.12063,-0.643012 -1.85859,-3.085802 -2.467622,-3.468372 -0.436798,-0.274375 -1.035504,-0.197998 -1.649122,0.210385 -1.054832,0.702024 -1.813958,1.73155 -1.813958,2.460088 0,0.50975 0.331448,1.383355 1.097081,2.891603 1.78123,3.508908 3.585718,5.591697 6.472656,7.470921 1.618694,1.053675 4.427685,2.383078 5.059503,2.394501 0.104443,0.0019 0.412861,-0.06277 0.685376,-0.143662 z m 1.161433,-10.059018 c 0.175204,-0.164587 0.212513,-0.293951 0.212513,-0.737322 0,-1.667882 -1.208678,-3.165917 -2.905056,-3.600522 -1.185113,-0.303622 -1.776914,-0.12718 -1.776914,0.529784 0,0.41653 0.252454,0.620751 0.891193,0.720913 1.421682,0.222946 2.163506,0.955269 2.329415,2.299595 0.06194,0.501904 0.130162,0.705409 0.277013,0.826506 0.268437,0.221342 0.7138,0.203489 0.971871,-0.03894 z m 3.108447,-0.02575 c 0.273021,-0.27302 0.294026,-0.733787 0.08745,-1.918434 -0.387391,-2.221435 -1.628223,-3.918654 -3.557214,-4.865584 -1.047151,-0.514039 -1.697891,-0.689084 -2.822924,-0.759345 -0.806943,-0.05041 -0.887568,-0.03974 -1.078687,0.142663 -0.136449,0.13022 -0.206557,0.304975 -0.206557,0.514865 0,0.512681 0.211029,0.641183 1.24767,0.759742 1.106079,0.126499 1.874447,0.376277 2.599903,0.845164 0.954511,0.616927 1.65677,1.444943 2.033348,2.397462 0.230427,0.582863 0.453502,1.680928 0.453502,2.232376 0,0.797643 0.719992,1.174627 1.243517,0.651099 z"
       id="path7" />
  </g>
</svg>
