<?xml version="1.0" encoding="UTF-8" standalone="no"?>
<svg
   width="64"
   height="64"
   version="1.1"
   id="svg73"
   sodipodi:docname="accessories-archiver.svg"
   inkscape:version="1.2.2 (b0a8486541, 2022-12-01)"
   xmlns:inkscape="http://www.inkscape.org/namespaces/inkscape"
   xmlns:sodipodi="http://sodipodi.sourceforge.net/DTD/sodipodi-0.dtd"
   xmlns="http://www.w3.org/2000/svg"
   xmlns:svg="http://www.w3.org/2000/svg"
   xmlns:rdf="http://www.w3.org/1999/02/22-rdf-syntax-ns#"
   xmlns:cc="http://creativecommons.org/ns#"
   xmlns:dc="http://purl.org/dc/elements/1.1/">
  <metadata
     id="metadata77">
    <rdf:RDF>
      <cc:Work
         rdf:about="">
        <dc:format>image/svg+xml</dc:format>
        <dc:type
           rdf:resource="http://purl.org/dc/dcmitype/StillImage" />
      </cc:Work>
    </rdf:RDF>
  </metadata>
  <sodipodi:namedview
     pagecolor="#f5f7fa"
     bordercolor="#666666"
     borderopacity="1"
     objecttolerance="10"
     gridtolerance="10"
     guidetolerance="10"
     inkscape:pageopacity="0"
     inkscape:pageshadow="2"
     inkscape:window-width="1280"
     inkscape:window-height="603"
     id="namedview75"
     showgrid="false"
     inkscape:zoom="4.4470387"
     inkscape:cx="45.198617"
     inkscape:cy="14.166731"
     inkscape:window-x="35"
     inkscape:window-y="32"
     inkscape:window-maximized="0"
     inkscape:current-layer="g877"
     inkscape:document-rotation="0"
     inkscape:pagecheckerboard="0"
     inkscape:showpageshadow="2"
     inkscape:deskcolor="#d1d1d1" />
  <defs
     id="defs29">
    <linearGradient
       id="b"
       x1="399.57"
       x2="399.57"
       y1="545.8"
       y2="517.8"
       gradientTransform="matrix(2.1429,0,0,2.1429,-825.86391,-1107.6662)"
       gradientUnits="userSpaceOnUse">
      <stop
         stop-color="#3889e9"
         offset="0"
         id="stop2" />
      <stop
         stop-color="#5ea5fb"
         offset="1"
         id="stop4" />
    </linearGradient>
  </defs>
  <circle
     cx="32.516094"
     cy="31.877844"
     r="0"
     fill="url(#b)"
     stroke-width="1.5715"
     id="circle41"
     style="fill:url(#b)" />
  <g
     aria-label="GZ"
     transform="matrix(1.2212657,0,0,0.81882264,0.4960938,-0.1661539)"
     id="text93"
     style="font-weight:bold;font-size:11.5263px;line-height:1.25;font-family:sans-serif;-inkscape-font-specification:'sans-serif Bold';fill:#f2f2f2;stroke-width:0.288159" />
  <g
     id="g877"
     transform="matrix(1.1,0,0,1.1,-3.1845928,-3.2065454)">
    <rect
       x="6.3010068"
       y="5.4939413"
       width="51.635597"
       height="53.148327"
       rx="10.980581"
       ry="10.720582"
       fill="url(#linearGradient862)"
       stroke-width="3.0541"
       id="rect35-7-3"
       style="fill:#414141;fill-opacity:1;stroke:#dfdfdf;stroke-width:2.27272727;stroke-dasharray:none;stroke-opacity:1" />
    <path
       style="fill:#dfdfdf;stroke-width:0.0821615;fill-opacity:1"
       d="m 26.861253,49.290664 c -0.774629,-0.82036 -2.065357,-2.212528 -2.868287,-3.093709 -0.802928,-0.88118 -1.963496,-2.175221 -2.579042,-2.875647 -0.615546,-0.700425 -1.619903,-1.865063 -2.231903,-2.588083 -0.612002,-0.723019 -1.537013,-1.850683 -2.05558,-2.505919 -0.518567,-0.655236 -1.201965,-1.542577 -1.518661,-1.97187 -0.316696,-0.429294 -0.80297,-1.118537 -1.080607,-1.531652 -0.277638,-0.413116 -0.676772,-1.04165 -0.886964,-1.396744 -0.21019,-0.355091 -0.470728,-0.820013 -0.578975,-1.033157 -0.108245,-0.213144 -0.19681,-0.443216 -0.19681,-0.51127 0,-0.06806 0.757938,-0.81287 1.684307,-1.655146 0.926369,-0.842274 1.684307,-1.564248 1.684307,-1.604384 0,-0.04014 -0.03591,-0.07297 -0.07979,-0.07297 -0.04388,0 -0.367399,-0.169488 -0.718912,-0.376641 -0.351515,-0.207153 -0.897926,-0.571363 -1.214247,-0.809356 -0.316321,-0.237993 -0.806209,-0.667403 -1.088638,-0.954243 -0.282429,-0.28684 -0.513508,-0.565307 -0.513508,-0.618816 0,-0.0535 0.231079,-0.245123 0.513508,-0.425811 0.282429,-0.180688 1.012638,-0.643148 1.622686,-1.027687 0.610048,-0.38454 2.440192,-1.534624 4.066985,-2.55574 l 2.957808,-1.856576 0.05489,2.320023 c 0.0302,1.276013 0.114113,3.004016 0.186489,3.840008 0.07238,0.835992 0.205625,2.130032 0.296111,2.875645 0.09049,0.745614 0.277297,2.039277 0.415136,2.874806 0.137839,0.835531 0.35631,2.055626 0.485492,2.711325 0.129182,0.655698 0.399928,1.894657 0.60166,2.753243 0.201733,0.858587 0.571365,2.28203 0.821409,3.163211 0.250043,0.88118 0.664834,2.249166 0.921766,3.039969 0.256932,0.790803 0.737204,2.158788 1.067271,3.039968 0.330067,0.881179 0.847172,2.193708 1.149122,2.916727 0.301956,0.72302 0.565954,1.34231 0.58667,1.376202 0.02074,0.03388 0.0077,0.05807 -0.02881,0.05374 -0.03657,-0.0044 -0.700259,-0.679088 -1.474889,-1.499447 z m 8.460998,1.445703 c 0.02062,-0.03389 0.31446,-0.727127 0.652985,-1.540524 0.338526,-0.813397 0.893519,-2.236842 1.233321,-3.16321 0.3398,-0.926369 0.823155,-2.331329 1.074122,-3.122132 0.250968,-0.790803 0.627856,-2.047871 0.837526,-2.793485 0.209669,-0.745613 0.546374,-2.058139 0.748232,-2.916726 0.201857,-0.858586 0.472708,-2.097545 0.601889,-2.753243 0.12918,-0.655699 0.347654,-1.875794 0.48549,-2.711324 0.13784,-0.83553 0.324651,-2.129193 0.415138,-2.874807 0.09049,-0.745613 0.223735,-2.039653 0.296109,-2.875645 0.07238,-0.835992 0.156295,-2.563995 0.18649,-3.840008 l 0.05489,-2.320023 2.957809,1.856576 c 1.626793,1.021116 3.456935,2.1712 4.066984,2.55574 0.610047,0.38454 1.340258,0.846999 1.622687,1.027687 0.28243,0.180688 0.513508,0.372303 0.513508,0.425811 0,0.0535 -0.231078,0.331976 -0.513508,0.618816 -0.282429,0.28684 -0.772318,0.71625 -1.088638,0.954243 -0.31632,0.237993 -0.862732,0.602203 -1.214247,0.809356 -0.351513,0.207153 -0.67502,0.376642 -0.71891,0.376642 -0.04388,0 -0.07979,0.03285 -0.07979,0.07297 0,0.04014 0.757936,0.762109 1.684305,1.604383 0.92637,0.842276 1.684309,1.587091 1.684309,1.655147 0,0.06806 -0.08857,0.298125 -0.196808,0.511269 -0.108249,0.213144 -0.368786,0.678066 -0.578978,1.033158 -0.210191,0.355093 -0.609322,0.983627 -0.886961,1.396743 -0.27764,0.413115 -0.763912,1.102359 -1.08061,1.531652 -0.316693,0.429293 -1.000092,1.316635 -1.518657,1.97187 -0.51857,0.655237 -1.443899,1.782901 -2.056291,2.505919 -0.612392,0.72302 -1.499336,1.758255 -1.970988,2.30052 -0.471655,0.542263 -1.156518,1.316697 -1.521915,1.720964 -0.365398,0.404264 -1.157909,1.273122 -1.76113,1.930793 -0.603225,0.657669 -1.712403,1.848535 -2.464842,2.646376 -0.752438,0.79784 -1.397979,1.454106 -1.434539,1.458365 -0.03657,0.0042 -0.04961,-0.01997 -0.02898,-0.05388 z m -4.094774,-4.81613 c -0.135567,-0.06323 -0.329277,-0.194306 -0.430468,-0.291244 -0.101191,-0.09694 -0.24726,-0.295346 -0.324599,-0.440898 -0.08716,-0.164044 -0.139323,-0.442971 -0.13721,-0.733784 0.0026,-0.366734 0.05112,-0.54125 0.221987,-0.799449 0.120226,-0.181671 0.364965,-0.404982 0.543869,-0.496252 0.199969,-0.102016 0.486062,-0.165948 0.74263,-0.165948 0.256578,0 0.542667,0.06394 0.742637,0.165948 0.178904,0.09127 0.423643,0.314581 0.543865,0.496252 0.169933,0.256787 0.219747,0.434723 0.223809,0.799449 0.0039,0.343742 -0.04477,0.557366 -0.181792,0.799199 -0.102858,0.181533 -0.317905,0.419742 -0.477879,0.52936 -0.203671,0.139562 -0.430188,0.20726 -0.755614,0.225836 -0.280269,0.01598 -0.56259,-0.01912 -0.711235,-0.08847 z m 0.328646,-6.294106 c -0.135565,-0.03121 -0.366802,-0.11943 -0.513857,-0.196032 -0.147055,-0.0766 -0.368275,-0.29175 -0.4916,-0.478102 -0.177235,-0.267822 -0.224224,-0.43535 -0.224224,-0.799447 0,-0.311047 0.05292,-0.550954 0.162956,-0.738809 0.08962,-0.153005 0.300141,-0.389071 0.467822,-0.524595 0.217353,-0.175671 0.420976,-0.257559 0.709333,-0.285267 0.222453,-0.02137 0.535738,0.0045 0.696186,0.05741 0.160449,0.05296 0.421577,0.24001 0.580289,0.415683 0.158708,0.175673 0.330532,0.475279 0.381833,0.66579 0.0513,0.19051 0.06929,0.479143 0.03998,0.641407 -0.02931,0.162261 -0.143283,0.43294 -0.253266,0.601503 -0.109983,0.168564 -0.338577,0.375819 -0.507984,0.460566 -0.169409,0.08475 -0.418933,0.172663 -0.554499,0.195364 -0.135566,0.02271 -0.3574,0.01574 -0.492966,-0.01549 z m -0.23373,-6.448347 c -0.173745,-0.06195 -0.408333,-0.198972 -0.521318,-0.304499 -0.112982,-0.105527 -0.254196,-0.285575 -0.313812,-0.400109 -0.05961,-0.114534 -0.133057,-0.339725 -0.163204,-0.500426 -0.03015,-0.160702 -0.01127,-0.453864 0.04193,-0.651473 0.05827,-0.216388 0.217335,-0.479878 0.399934,-0.662477 0.181235,-0.181238 0.446166,-0.341688 0.658651,-0.398903 0.1955,-0.05265 0.498321,-0.07158 0.672937,-0.04208 0.174611,0.0295 0.43762,0.134601 0.584462,0.233558 0.146839,0.09895 0.347944,0.300062 0.446899,0.446902 0.09896,0.14684 0.204056,0.409847 0.233558,0.584462 0.02949,0.174613 0.0106,0.477434 -0.04208,0.672937 -0.05711,0.21207 -0.217566,0.477312 -0.397775,0.657522 -0.166137,0.166136 -0.449121,0.342889 -0.628856,0.392787 -0.179735,0.0499 -0.400739,0.08931 -0.491115,0.08758 -0.09038,-0.0017 -0.306477,-0.05383 -0.480217,-0.115782 z m -0.09644,-6.403236 c -0.136408,-0.05944 -0.363571,-0.239681 -0.504812,-0.400544 -0.14124,-0.160864 -0.301804,-0.428846 -0.356809,-0.595518 -0.05836,-0.176783 -0.07758,-0.445011 -0.04618,-0.643797 0.02961,-0.187416 0.144683,-0.478673 0.255726,-0.647239 0.111044,-0.168566 0.348274,-0.381159 0.527179,-0.47243 0.202938,-0.103531 0.486028,-0.165943 0.752681,-0.165943 0.307252,0 0.525585,0.05755 0.776656,0.204676 0.192092,0.112572 0.424774,0.326873 0.517077,0.476222 0.0923,0.149349 0.192072,0.423177 0.221707,0.608508 0.03137,0.196154 0.01209,0.463597 -0.04612,0.640003 -0.05501,0.166672 -0.215681,0.434779 -0.357054,0.595797 -0.141376,0.161015 -0.376594,0.342707 -0.522714,0.403759 -0.146119,0.06106 -0.423989,0.109556 -0.617492,0.107788 -0.193505,-0.0018 -0.463429,-0.05185 -0.599837,-0.111282 z M 26.073154,22.048355 25.804831,21.8087 25.778991,18.782443 c -0.01675,-1.960315 0.0047,-3.130069 0.06091,-3.320985 0.04772,-0.162102 0.164913,-0.365451 0.260426,-0.451888 0.114459,-0.103586 0.289746,-0.155791 0.514216,-0.153149 0.288327,0.0034 0.715442,0.221715 2.78486,1.423477 l 2.444299,1.419467 2.4443,-1.419467 c 2.069418,-1.201762 2.496532,-1.420081 2.784856,-1.423477 0.224473,-0.0027 0.399757,0.04956 0.514222,0.153149 0.09551,0.08644 0.212702,0.289786 0.260425,0.451888 0.0562,0.190916 0.07766,1.36067 0.06091,3.320985 l -0.02585,3.026257 -0.268322,0.239655 c -0.180741,0.161435 -0.356205,0.239657 -0.537582,0.239657 -0.199213,0 -0.914674,-0.373109 -2.75004,-1.434127 l -2.48076,-1.434127 -2.482731,1.434127 c -1.837068,1.061165 -2.5528,1.434127 -2.752179,1.434127 -0.181583,0 -0.356948,-0.07816 -0.537769,-0.239657 z"
       id="path1614" />
  </g>
</svg>
