<?xml version="1.0" encoding="UTF-8" standalone="no"?>
<svg
   width="64"
   height="64"
   version="1.1"
   id="svg73"
   sodipodi:docname="audacious.svg"
   inkscape:version="1.4.2 (ebf0e940d0, 2025-05-08)"
   xmlns:inkscape="http://www.inkscape.org/namespaces/inkscape"
   xmlns:sodipodi="http://sodipodi.sourceforge.net/DTD/sodipodi-0.dtd"
   xmlns="http://www.w3.org/2000/svg"
   xmlns:svg="http://www.w3.org/2000/svg"
   xmlns:rdf="http://www.w3.org/1999/02/22-rdf-syntax-ns#"
   xmlns:cc="http://creativecommons.org/ns#"
   xmlns:dc="http://purl.org/dc/elements/1.1/">
  <metadata
     id="metadata77">
    <rdf:RDF>
      <cc:Work
         rdf:about="">
        <dc:format>image/svg+xml</dc:format>
        <dc:type
           rdf:resource="http://purl.org/dc/dcmitype/StillImage" />
      </cc:Work>
    </rdf:RDF>
  </metadata>
  <sodipodi:namedview
     pagecolor="#f5f7fa"
     bordercolor="#666666"
     borderopacity="1"
     objecttolerance="10"
     gridtolerance="10"
     guidetolerance="10"
     inkscape:pageopacity="0"
     inkscape:pageshadow="2"
     inkscape:window-width="1377"
     inkscape:window-height="886"
     id="namedview75"
     showgrid="false"
     inkscape:zoom="6.2890624"
     inkscape:cx="34.742858"
     inkscape:cy="35.06087"
     inkscape:window-x="1"
     inkscape:window-y="75"
     inkscape:window-maximized="0"
     inkscape:current-layer="g877"
     inkscape:document-rotation="0"
     inkscape:pagecheckerboard="0"
     inkscape:showpageshadow="2"
     inkscape:deskcolor="#d1d1d1" />
  <defs
     id="defs29" />
  <circle
     cx="32.516094"
     cy="31.877844"
     r="0"
     fill="url(#b)"
     stroke-width="1.5715"
     id="circle41"
     style="fill:url(#b)" />
  <g
     aria-label="GZ"
     transform="matrix(1.2212657,0,0,0.81882264,0.4960938,-0.1661539)"
     id="text93"
     style="font-weight:bold;font-size:11.5263px;line-height:1.25;font-family:sans-serif;-inkscape-font-specification:'sans-serif Bold';fill:#f2f2f2;stroke-width:0.288159" />
  <g
     id="g877"
     transform="matrix(1.1,0,0,1.1,-3.1845928,-3.2065454)">
    <rect
       x="8.3496294"
       y="8.369586"
       width="47.272728"
       height="47.272728"
       rx="9.8825235"
       ry="9.6485243"
       fill="url(#linearGradient862)"
       stroke-width="3.0541"
       id="rect35-7-3"
       style="fill:#414141;fill-opacity:1;stroke:#dfdfdf;stroke-width:2.04545;stroke-dasharray:none;stroke-opacity:1" />
    <path
       style="fill:#dfdfdf;fill-opacity:1;stroke-width:0.0693369"
       d="m 27.781274,45.902719 c -0.653715,-0.69231 -1.742971,-1.867169 -2.420572,-2.610807 -0.677596,-0.743635 -1.657009,-1.835688 -2.176475,-2.426784 -0.519463,-0.591095 -1.367049,-1.573941 -1.883521,-2.184105 -0.516474,-0.610162 -1.2971,-1.561807 -1.734722,-2.114767 -0.437623,-0.552958 -1.014349,-1.301793 -1.281612,-1.664078 -0.267262,-0.362283 -0.677632,-0.943941 -0.911933,-1.292574 -0.234302,-0.348632 -0.571133,-0.879057 -0.748516,-1.178725 -0.177382,-0.299663 -0.397252,-0.692016 -0.488602,-0.87189 -0.09135,-0.179873 -0.166091,-0.374032 -0.166091,-0.431464 0,-0.05742 0.639632,-0.685989 1.421402,-1.396792 0.78177,-0.710804 1.421402,-1.320083 1.421402,-1.353955 0,-0.03388 -0.0303,-0.06157 -0.06734,-0.06157 -0.03703,0 -0.310052,-0.143033 -0.606697,-0.31785 -0.296645,-0.174819 -0.757767,-0.482179 -1.024713,-0.683023 -0.266947,-0.200846 -0.680366,-0.563228 -0.918711,-0.805295 -0.238343,-0.242066 -0.433354,-0.477067 -0.433354,-0.522224 0,-0.04515 0.195011,-0.206863 0.433354,-0.359346 0.238345,-0.152483 0.854574,-0.542756 1.369398,-0.867272 0.514825,-0.324517 2.059299,-1.295084 3.432166,-2.156812 l 2.496119,-1.566781 0.04631,1.957888 c 0.02548,1.076838 0.09631,2.535115 0.157381,3.240615 0.06109,0.705502 0.173528,1.797553 0.24989,2.426784 0.07637,0.629229 0.234012,1.720962 0.350338,2.426071 0.116322,0.705111 0.300692,1.734762 0.40971,2.288112 0.109015,0.553348 0.337502,1.598917 0.507745,2.323485 0.170245,0.724569 0.48218,1.925825 0.693194,2.669461 0.211015,0.743636 0.56106,1.898091 0.777885,2.565456 0.216829,0.667366 0.622135,1.821821 0.90068,2.565455 0.278548,0.743635 0.714935,1.85129 0.969755,2.461451 0.254824,0.610164 0.477614,1.132786 0.495097,1.16139 0.0175,0.0286 0.0065,0.049 -0.02432,0.04536 -0.03086,-0.0038 -0.590955,-0.573089 -1.244672,-1.265398 z m 7.140311,1.220042 c 0.0174,-0.02861 0.265376,-0.613629 0.551059,-1.300062 0.285685,-0.686432 0.754048,-1.88769 1.040811,-2.66946 0.28676,-0.781771 0.694669,-1.967429 0.906462,-2.634793 0.211793,-0.667366 0.529851,-1.728216 0.706793,-2.357448 0.176942,-0.629228 0.461092,-1.73688 0.631441,-2.461449 0.170348,-0.724568 0.398922,-1.770137 0.507937,-2.323485 0.109016,-0.553352 0.29339,-1.583 0.40971,-2.288111 0.116326,-0.705111 0.273977,-1.796843 0.350339,-2.426075 0.07637,-0.629227 0.188813,-1.721281 0.249889,-2.42678 0.06109,-0.705501 0.131899,-2.163779 0.157381,-3.240617 l 0.04631,-1.957887 2.496121,1.566781 c 1.372866,0.86173 2.917339,1.832293 3.432165,2.156812 0.514822,0.324515 1.131053,0.714789 1.369398,0.867273 0.238345,0.152484 0.433354,0.314189 0.433354,0.359346 0,0.04515 -0.195009,0.280156 -0.433354,0.522223 -0.238345,0.242067 -0.651765,0.604451 -0.918711,0.805294 -0.266945,0.200845 -0.728067,0.508204 -1.024713,0.683025 -0.296645,0.174816 -0.569656,0.31785 -0.606695,0.31785 -0.03703,0 -0.06734,0.02773 -0.06734,0.06157 0,0.03388 0.639631,0.643151 1.421401,1.353952 0.781772,0.710804 1.421404,1.339359 1.421404,1.396793 0,0.05744 -0.07475,0.25159 -0.16609,0.431464 -0.09135,0.179874 -0.31122,0.572226 -0.488604,0.871891 -0.177382,0.299667 -0.514212,0.83009 -0.748514,1.178723 -0.234303,0.348631 -0.644673,0.93029 -0.911935,1.292574 -0.26726,0.362285 -0.843987,1.11112 -1.281608,1.664079 -0.437625,0.552959 -1.218519,1.504605 -1.735322,2.114767 -0.516803,0.610163 -1.265303,1.483806 -1.663335,1.941428 -0.398035,0.457621 -0.975995,1.111174 -1.284358,1.452338 -0.308359,0.341161 -0.977167,1.074397 -1.486231,1.629412 -0.509066,0.555013 -1.44511,1.559993 -2.080101,2.233298 -0.634989,0.673305 -1.179767,1.227135 -1.21062,1.230728 -0.03086,0.0037 -0.04187,-0.01684 -0.02445,-0.04547 z m -3.455616,-4.064375 c -0.114407,-0.05337 -0.277879,-0.163975 -0.363275,-0.245783 -0.08539,-0.08181 -0.208665,-0.249244 -0.273932,-0.372077 -0.07356,-0.138438 -0.117575,-0.373826 -0.115792,-0.619247 0.0022,-0.309489 0.04314,-0.456765 0.187336,-0.674661 0.101451,-0.153313 0.307997,-0.341767 0.458976,-0.418791 0.168756,-0.08611 0.410192,-0.140046 0.626711,-0.140046 0.216528,0 0.457961,0.05396 0.626718,0.140046 0.150978,0.07703 0.357516,0.265478 0.458973,0.418791 0.143409,0.216704 0.185446,0.366865 0.188875,0.674661 0.0033,0.290087 -0.03777,0.470367 -0.153417,0.674452 -0.0868,0.153196 -0.268282,0.354224 -0.403286,0.446731 -0.17188,0.117778 -0.36304,0.174909 -0.637669,0.190584 -0.236521,0.01348 -0.474775,-0.01614 -0.600218,-0.07465 z m 0.277349,-5.311649 c -0.114409,-0.02634 -0.309547,-0.100789 -0.43365,-0.165432 -0.1241,-0.06465 -0.310789,-0.246212 -0.414864,-0.403476 -0.149571,-0.226017 -0.189224,-0.367395 -0.189224,-0.67466 0,-0.262494 0.04467,-0.464955 0.137517,-0.623486 0.07563,-0.129123 0.253293,-0.328342 0.394802,-0.44271 0.183424,-0.148252 0.355264,-0.217358 0.598611,-0.24074 0.187729,-0.01804 0.452114,0.0038 0.587518,0.04845 0.135403,0.04469 0.35577,0.202546 0.489709,0.350797 0.133936,0.148253 0.278939,0.401092 0.322234,0.561866 0.04328,0.160774 0.05847,0.404353 0.03374,0.54129 -0.02474,0.136933 -0.120917,0.365361 -0.213735,0.507613 -0.09281,0.142253 -0.285727,0.317156 -0.428689,0.388676 -0.142965,0.07153 -0.353542,0.145713 -0.467948,0.164869 -0.114408,0.01917 -0.301611,0.01328 -0.416018,-0.01306 z M 31.54607,32.30492 c -0.146625,-0.05227 -0.344596,-0.167912 -0.439944,-0.256968 -0.09535,-0.08905 -0.214519,-0.240999 -0.264829,-0.337656 -0.0503,-0.09664 -0.11229,-0.286696 -0.137729,-0.422312 -0.02545,-0.135619 -0.0095,-0.383021 0.0354,-0.549786 0.04917,-0.182609 0.18341,-0.404972 0.337508,-0.559068 0.152945,-0.152949 0.376524,-0.288354 0.55584,-0.336638 0.164985,-0.04443 0.420537,-0.06041 0.567898,-0.0355 0.147356,0.02489 0.369312,0.113586 0.493232,0.197101 0.123919,0.08352 0.293634,0.253225 0.377142,0.377144 0.08352,0.12392 0.172204,0.345872 0.197103,0.493232 0.0249,0.14736 0.0088,0.402911 -0.0355,0.567897 -0.04819,0.178968 -0.183607,0.40281 -0.335686,0.554889 -0.140206,0.140205 -0.379017,0.289367 -0.530698,0.331476 -0.15168,0.04212 -0.338187,0.07538 -0.414456,0.07391 -0.07627,-0.0016 -0.258639,-0.04542 -0.405259,-0.0977 z m -0.08139,-5.403745 c -0.115115,-0.05016 -0.306823,-0.202269 -0.426016,-0.338023 -0.119193,-0.135754 -0.254695,-0.361905 -0.301115,-0.502562 -0.04924,-0.149188 -0.06548,-0.375549 -0.03897,-0.543306 0.02498,-0.158162 0.1221,-0.403957 0.215811,-0.546211 0.09371,-0.142255 0.293911,-0.321662 0.44489,-0.398687 0.171261,-0.08736 0.410164,-0.140041 0.635195,-0.140041 0.259293,0 0.443545,0.04856 0.655426,0.172728 0.162108,0.09499 0.358471,0.275851 0.436367,0.401887 0.07788,0.126037 0.162089,0.357123 0.187099,0.513525 0.02647,0.165537 0.01018,0.391235 -0.03891,0.540105 -0.04642,0.140657 -0.182015,0.366913 -0.301321,0.502797 -0.119307,0.135882 -0.317811,0.289215 -0.441122,0.340736 -0.12331,0.05153 -0.357809,0.09245 -0.521108,0.09097 -0.1633,-0.0016 -0.39109,-0.04375 -0.506206,-0.09392 z M 27.11619,22.9127 26.88975,22.710454 26.86794,20.156569 c -0.01412,-1.654327 0.004,-2.641493 0.05141,-2.802608 0.04028,-0.1368 0.13917,-0.308407 0.219775,-0.381353 0.09659,-0.08743 0.244519,-0.131473 0.433951,-0.129243 0.243322,0.0028 0.603768,0.187109 2.350167,1.201285 l 2.062766,1.197901 2.062766,-1.197901 c 1.746401,-1.014176 2.106844,-1.19842 2.350164,-1.201285 0.189435,-0.0023 0.337358,0.04183 0.433956,0.129243 0.08059,0.07295 0.179501,0.244553 0.219776,0.381353 0.04743,0.161115 0.06553,1.148281 0.05141,2.802608 l -0.02181,2.553885 -0.226439,0.202246 c -0.152527,0.136238 -0.300604,0.202251 -0.45367,0.202251 -0.168117,0 -0.771901,-0.314872 -2.320782,-1.210275 l -2.093535,-1.210272 -2.095198,1.210272 c -1.550319,0.895527 -2.15433,1.210275 -2.322588,1.210275 -0.153238,0 -0.301232,-0.06596 -0.453827,-0.202251 z"
       id="path1614" />
  </g>
</svg>
