<?xml version="1.0" encoding="UTF-8" standalone="no"?>
<svg
   width="64"
   height="64"
   version="1.1"
   id="svg73"
   sodipodi:docname="ca.desrt.dconf-editor.svg"
   inkscape:version="1.4.2 (ebf0e940d0, 2025-05-08)"
   xmlns:inkscape="http://www.inkscape.org/namespaces/inkscape"
   xmlns:sodipodi="http://sodipodi.sourceforge.net/DTD/sodipodi-0.dtd"
   xmlns="http://www.w3.org/2000/svg"
   xmlns:svg="http://www.w3.org/2000/svg"
   xmlns:rdf="http://www.w3.org/1999/02/22-rdf-syntax-ns#"
   xmlns:cc="http://creativecommons.org/ns#"
   xmlns:dc="http://purl.org/dc/elements/1.1/">
  <metadata
     id="metadata77">
    <rdf:RDF>
      <cc:Work
         rdf:about="">
        <dc:format>image/svg+xml</dc:format>
        <dc:type
           rdf:resource="http://purl.org/dc/dcmitype/StillImage" />
      </cc:Work>
    </rdf:RDF>
  </metadata>
  <sodipodi:namedview
     pagecolor="#f5f7fa"
     bordercolor="#666666"
     borderopacity="1"
     objecttolerance="10"
     gridtolerance="10"
     guidetolerance="10"
     inkscape:pageopacity="0"
     inkscape:pageshadow="2"
     inkscape:window-width="1377"
     inkscape:window-height="886"
     id="namedview75"
     showgrid="false"
     inkscape:zoom="6.2890624"
     inkscape:cx="47.622361"
     inkscape:cy="45.396274"
     inkscape:window-x="147"
     inkscape:window-y="75"
     inkscape:window-maximized="0"
     inkscape:current-layer="g877"
     inkscape:document-rotation="0"
     inkscape:pagecheckerboard="0"
     inkscape:showpageshadow="2"
     inkscape:deskcolor="#d1d1d1" />
  <defs
     id="defs29">
    <linearGradient
       id="b"
       x1="399.57"
       x2="399.57"
       y1="545.8"
       y2="517.8"
       gradientTransform="matrix(2.1429,0,0,2.1429,-825.86391,-1107.6662)"
       gradientUnits="userSpaceOnUse">
      <stop
         stop-color="#3889e9"
         offset="0"
         id="stop2" />
      <stop
         stop-color="#5ea5fb"
         offset="1"
         id="stop4" />
    </linearGradient>
  </defs>
  <circle
     cx="32.516094"
     cy="31.877844"
     r="0"
     fill="url(#b)"
     stroke-width="1.5715"
     id="circle41"
     style="fill:url(#b)" />
  <g
     aria-label="GZ"
     transform="matrix(1.2212657,0,0,0.81882264,0.4960938,-0.1661539)"
     id="text93"
     style="font-weight:bold;font-size:11.5263px;line-height:1.25;font-family:sans-serif;-inkscape-font-specification:'sans-serif Bold';fill:#f2f2f2;stroke-width:0.288159" />
  <g
     id="g877"
     transform="matrix(1.1,0,0,1.1,-3.1845928,-3.2065454)">
    <rect
       x="8.3496294"
       y="8.369586"
       width="47.272728"
       height="47.272728"
       rx="9.8825235"
       ry="9.6485243"
       fill="url(#linearGradient862)"
       stroke-width="3.0541"
       id="rect35-7-3"
       style="fill:#414141;fill-opacity:1;stroke:#dfdfdf;stroke-width:2.04545;stroke-dasharray:none;stroke-opacity:1" />
    <path
       style="fill:#dfdfdf;fill-opacity:1;stroke-width:0.023715"
       d="m 22.386018,47.463634 c -1.479178,-0.189954 -2.743385,-1.229949 -3.23137,-2.658271 -0.03984,-0.116582 -0.09839,-0.330055 -0.130135,-0.474309 -0.05531,-0.251388 -0.05771,-0.764198 -0.05771,-12.325344 0,-11.561147 0.0024,-12.073947 0.05771,-12.325355 0.183592,-0.834471 0.513099,-1.429015 1.12513,-2.030125 0.414863,-0.407464 0.743053,-0.630411 1.212554,-0.823722 0.553393,-0.227853 1.00295,-0.311994 1.675676,-0.313622 l 0.403152,-9.94e-4 v 12.358826 12.358826 l -0.466392,0.01846 c -0.332616,0.01333 -0.532865,0.03731 -0.698127,0.08448 -1.009135,0.28797 -1.681281,1.172774 -1.681281,2.213172 0,0.670192 0.202796,1.15747 0.680284,1.634597 0.245355,0.245165 0.334799,0.311251 0.587178,0.433653 0.403372,0.195626 0.616032,0.240481 1.143565,0.241062 l 0.434773,7.51e-4 v 0.822117 0.822119 l -0.418962,-0.0045 c -0.230431,-0.0022 -0.516652,-0.01641 -0.636047,-0.03178 z m 2.69925,-0.78604 v -0.822325 h 9.152626 9.152633 l 0.0092,-1.25689 c 0.01,-1.385928 0.0027,-1.333334 0.218326,-1.551919 0.403501,-0.409289 1.069019,-0.291832 1.313373,0.231763 l 0.07381,0.158088 -7.51e-4,1.707484 c -7.53e-4,1.649015 -0.0026,1.712349 -0.06471,1.849768 -0.07873,0.17419 -0.224686,0.330875 -0.392765,0.421733 l -0.126495,0.06838 -9.667812,0.0079 -9.667818,0.0079 z m 0,-17.802114 V 16.511505 l 9.667816,0.008 9.667812,0.008 0.128652,0.06886 c 0.168889,0.09038 0.339628,0.282589 0.405123,0.455922 0.04875,0.129076 0.05198,0.995809 0.04396,11.870264 l -0.0086,11.731023 -0.0693,0.129472 c -0.08086,0.151078 -0.2479,0.306156 -0.414097,0.384422 -0.110804,0.05217 -0.657345,0.05577 -9.769402,0.06349 l -9.652012,0.0082 z"
       id="path1" />
    <rect
       x="37.737823"
       y="37.757782"
       width="22.610399"
       height="22.610399"
       rx="4.7267799"
       ry="4.6148596"
       fill="url(#linearGradient862)"
       stroke-width="3.0541"
       id="rect35-7-3-1"
       style="fill:#414141;fill-opacity:1;stroke:#dfdfdf;stroke-width:0.978336;stroke-dasharray:none;stroke-opacity:1" />
    <path
       style="color:#000000;clip-rule:nonzero;display:inline;overflow:visible;visibility:visible;isolation:auto;mix-blend-mode:normal;color-interpolation:sRGB;color-interpolation-filters:linearRGB;solid-color:#000000;solid-opacity:1;fill:#dfdfdf;fill-opacity:1;fill-rule:nonzero;stroke:none;stroke-width:0.454545;stroke-linecap:butt;stroke-linejoin:miter;stroke-miterlimit:4;stroke-dasharray:none;stroke-dashoffset:0;stroke-opacity:0.6;marker:none;color-rendering:auto;image-rendering:auto;shape-rendering:auto;text-rendering:auto;enable-background:accumulate"
       d="m 48.049489,41.647769 c -0.190389,0 -0.349074,0.757559 -0.442214,1.840216 a 5.8190384,5.9942708 0 0 0 -1.406201,0.608794 c -0.812308,-0.701301 -1.446838,-1.124631 -1.581842,-0.985565 l -1.497121,1.542208 c -0.135001,0.139055 0.275945,0.792706 0.956751,1.629476 a 5.8190384,5.9942708 0 0 0 -0.585828,1.448546 c -1.053952,0.09586 -1.791586,0.259074 -1.791586,0.455531 v 2.179731 c 0,0.196127 0.735411,0.359591 1.786418,0.455535 a 5.8190384,5.9942708 0 0 0 0.588931,1.451735 c -0.679249,0.835271 -1.089525,1.487383 -0.954686,1.626287 l 1.497121,1.542201 c 0.134725,0.138746 0.766967,-0.282851 1.576678,-0.981308 a 5.8190384,5.9942708 0 0 0 1.411365,0.599218 c 0.09305,1.085694 0.251481,1.845538 0.442214,1.845538 h 2.116013 c 0.190389,0 0.349077,-0.757559 0.442217,-1.840216 a 5.8190384,5.9942708 0 0 0 1.406198,-0.608791 c 0.812312,0.701299 1.446838,1.124628 1.581845,0.985559 l 1.497121,-1.542201 c 0.135001,-0.139021 -0.275945,-0.79271 -0.956751,-1.629483 a 5.8190384,5.9942708 0 0 0 0.585828,-1.448539 c 1.053949,-0.09586 1.791586,-0.259075 1.791586,-0.455535 v -2.179731 c 0,-0.196127 -0.735414,-0.359588 -1.786418,-0.455531 A 5.8190384,5.9942708 0 0 0 54.13819,46.279706 c 0.679257,-0.835272 1.089532,-1.487384 0.954693,-1.626284 l -1.497121,-1.542208 c -0.134725,-0.13878 -0.766967,0.282851 -1.576681,0.981308 a 5.8190384,5.9942708 0 0 0 -1.411362,-0.599215 c -0.09305,-1.08569 -0.251481,-1.845534 -0.442217,-1.845534 z m 1.058006,4.904405 a 2.6450176,2.7246682 0 0 1 2.645017,2.72467 2.6450176,2.7246682 0 0 1 -2.645017,2.724664 2.6450176,2.7246682 0 0 1 -2.645017,-2.724664 2.6450176,2.7246682 0 0 1 2.645017,-2.72467 z"
       id="path4690"
       inkscape:connector-curvature="0" />
  </g>
</svg>
