<?xml version="1.0" encoding="UTF-8" standalone="no"?>
<svg
   width="64"
   height="64"
   version="1.1"
   id="svg73"
   sodipodi:docname="audacious.svg"
   inkscape:version="1.4.2 (ebf0e940d0, 2025-05-08)"
   xmlns:inkscape="http://www.inkscape.org/namespaces/inkscape"
   xmlns:sodipodi="http://sodipodi.sourceforge.net/DTD/sodipodi-0.dtd"
   xmlns="http://www.w3.org/2000/svg"
   xmlns:svg="http://www.w3.org/2000/svg"
   xmlns:rdf="http://www.w3.org/1999/02/22-rdf-syntax-ns#"
   xmlns:cc="http://creativecommons.org/ns#"
   xmlns:dc="http://purl.org/dc/elements/1.1/">
  <metadata
     id="metadata77">
    <rdf:RDF>
      <cc:Work
         rdf:about="">
        <dc:format>image/svg+xml</dc:format>
        <dc:type
           rdf:resource="http://purl.org/dc/dcmitype/StillImage" />
      </cc:Work>
    </rdf:RDF>
  </metadata>
  <sodipodi:namedview
     pagecolor="#f5f7fa"
     bordercolor="#666666"
     borderopacity="1"
     objecttolerance="10"
     gridtolerance="10"
     guidetolerance="10"
     inkscape:pageopacity="0"
     inkscape:pageshadow="2"
     inkscape:window-width="1377"
     inkscape:window-height="886"
     id="namedview75"
     showgrid="false"
     inkscape:zoom="6.2890624"
     inkscape:cx="46.986336"
     inkscape:cy="40.467081"
     inkscape:window-x="12"
     inkscape:window-y="50"
     inkscape:window-maximized="0"
     inkscape:current-layer="g877"
     inkscape:document-rotation="0"
     inkscape:pagecheckerboard="0"
     inkscape:showpageshadow="2"
     inkscape:deskcolor="#d1d1d1" />
  <defs
     id="defs29" />
  <circle
     cx="32.516094"
     cy="31.877844"
     r="0"
     fill="url(#b)"
     stroke-width="1.5715"
     id="circle41"
     style="fill:url(#b)" />
  <g
     aria-label="GZ"
     transform="matrix(1.2212657,0,0,0.81882264,0.4960938,-0.1661539)"
     id="text93"
     style="font-weight:bold;font-size:11.5263px;line-height:1.25;font-family:sans-serif;-inkscape-font-specification:'sans-serif Bold';fill:#f2f2f2;stroke-width:0.288159" />
  <g
     id="g877"
     transform="matrix(1.1,0,0,1.1,-3.1845928,-3.2065454)">
    <rect
       x="8.3496294"
       y="8.369586"
       width="47.272728"
       height="47.272728"
       rx="9.8825235"
       ry="9.6485243"
       fill="url(#linearGradient862)"
       stroke-width="3.0541"
       id="rect35-7-3"
       style="fill:#414141;fill-opacity:1;stroke:#dfdfdf;stroke-width:2.04545;stroke-dasharray:none;stroke-opacity:1" />
    <path
       style="fill:#dfdfdf;fill-opacity:1;stroke:none;stroke-width:0.463097;stroke-dasharray:none;stroke-opacity:0.6"
       d="M 27.79772,46.711015 C 25.66248,45.746487 23.357471,43.58058 22.261645,41.509042 21.614192,40.2851 21.40792,39.073809 21.281406,35.752771 l -0.160229,-4.206137 0.916196,0.283021 c 2.806149,0.86684 3.047623,1.179635 3.047623,3.947756 0,3.457508 1.024549,5.584711 3.344716,6.944419 2.012404,1.179345 4.777613,1.347551 6.606386,0.401852 1.195535,-0.618232 3.384626,-2.868557 3.694336,-3.797665 0.13577,-0.407372 0.507481,-0.362684 1.788697,0.215024 0.889519,0.401117 1.617313,0.885866 1.617313,1.077219 0,0.754957 -1.17183,2.511354 -2.583915,3.872912 -2.152502,2.075481 -4.474343,3.007561 -7.491942,3.007561 -1.702206,0 -3.084414,-0.255381 -4.262861,-0.787759 z m 13.176124,-10.431936 -1.743899,-0.681103 -0.19377,-5.376425 c -0.223121,-6.190994 -0.712914,-7.451849 -3.504091,-9.020583 -4.776548,-2.684566 -10.447092,0.727104 -10.447092,6.285474 0,0.998421 -0.170863,1.815312 -0.379691,1.815312 -0.208829,0 -1.08078,-0.280516 -1.937665,-0.623378 l -1.557974,-0.623377 v -5.770914 -5.770917 l 6.684941,0.0039 c 6.192589,0.0035 6.827653,0.07054 8.622606,0.910113 2.501473,1.170042 4.950679,3.85304 5.770518,6.321352 0.508424,1.530707 0.622392,3.137016 0.537607,7.577132 l -0.10757,5.634626 z"
       id="path1" />
  </g>
</svg>
