<?xml version="1.0" encoding="UTF-8" standalone="no"?>
<svg
   width="64"
   height="64"
   version="1.1"
   id="svg73"
   sodipodi:docname="partitionmanager.svg"
   inkscape:version="1.3.2 (091e20ef0f, 2023-11-25)"
   xmlns:inkscape="http://www.inkscape.org/namespaces/inkscape"
   xmlns:sodipodi="http://sodipodi.sourceforge.net/DTD/sodipodi-0.dtd"
   xmlns="http://www.w3.org/2000/svg"
   xmlns:svg="http://www.w3.org/2000/svg"
   xmlns:rdf="http://www.w3.org/1999/02/22-rdf-syntax-ns#"
   xmlns:cc="http://creativecommons.org/ns#"
   xmlns:dc="http://purl.org/dc/elements/1.1/">
  <metadata
     id="metadata77">
    <rdf:RDF>
      <cc:Work
         rdf:about="">
        <dc:format>image/svg+xml</dc:format>
        <dc:type
           rdf:resource="http://purl.org/dc/dcmitype/StillImage" />
      </cc:Work>
    </rdf:RDF>
  </metadata>
  <sodipodi:namedview
     pagecolor="#f5f7fa"
     bordercolor="#666666"
     borderopacity="1"
     objecttolerance="10"
     gridtolerance="10"
     guidetolerance="10"
     inkscape:pageopacity="0"
     inkscape:pageshadow="2"
     inkscape:window-width="1377"
     inkscape:window-height="886"
     id="namedview75"
     showgrid="false"
     inkscape:zoom="6.2890624"
     inkscape:cx="47.701864"
     inkscape:cy="45.396274"
     inkscape:window-x="74"
     inkscape:window-y="53"
     inkscape:window-maximized="0"
     inkscape:current-layer="g877"
     inkscape:document-rotation="0"
     inkscape:pagecheckerboard="0"
     inkscape:showpageshadow="2"
     inkscape:deskcolor="#d1d1d1" />
  <defs
     id="defs29">
    <linearGradient
       id="b"
       x1="399.57"
       x2="399.57"
       y1="545.8"
       y2="517.8"
       gradientTransform="matrix(2.1429,0,0,2.1429,-825.86391,-1107.6662)"
       gradientUnits="userSpaceOnUse">
      <stop
         stop-color="#3889e9"
         offset="0"
         id="stop2" />
      <stop
         stop-color="#5ea5fb"
         offset="1"
         id="stop4" />
    </linearGradient>
  </defs>
  <circle
     cx="32.516094"
     cy="31.877844"
     r="0"
     fill="url(#b)"
     stroke-width="1.5715"
     id="circle41"
     style="fill:url(#b)" />
  <g
     aria-label="GZ"
     transform="matrix(1.2212657,0,0,0.81882264,0.4960938,-0.1661539)"
     id="text93"
     style="font-weight:bold;font-size:11.5263px;line-height:1.25;font-family:sans-serif;-inkscape-font-specification:'sans-serif Bold';fill:#f2f2f2;stroke-width:0.288159" />
  <g
     id="g877"
     transform="matrix(1.1,0,0,1.1,-3.1845928,-3.2065454)">
    <rect
       x="6.3010068"
       y="5.4939413"
       width="51.635597"
       height="53.148327"
       rx="10.980581"
       ry="10.720582"
       fill="url(#linearGradient862)"
       stroke-width="3.0541"
       id="rect35-7-3"
       style="fill:#414141;fill-opacity:1;stroke:#dfdfdf;stroke-width:2.27272727;stroke-dasharray:none;stroke-opacity:1" />
    <path
       id="path2"
       style="fill:#dfdfdf;stroke-width:0.433654;fill-opacity:1"
       d="m 46.488825,11.949132 -0.280536,1.084872 c -0.563182,2.165236 -1.973037,4.689223 -3.563565,6.381393 l -0.822088,0.873579 -1.516335,-0.800781 c -2.709667,-1.431527 -5.402024,-2.116477 -8.311435,-2.116477 -3.153681,0 -6.168364,0.818825 -8.939986,2.428977 L 22.207935,20.292527 21.561628,19.6622 c -0.837566,-0.816981 -1.906956,-2.265232 -2.54794,-3.448153 -0.548149,-1.011592 -1.394996,-3.294899 -1.411578,-3.806818 -0.0098,-0.30359 -0.01472,-0.304625 -0.134942,-0.02486 -0.197838,0.460405 -0.161838,2.486832 0.06925,3.911578 0.291984,1.800224 0.667271,2.939926 1.516335,4.607599 l 0.724431,1.42223 -0.887783,0.948153 c -4.131318,4.41639 -5.569363,11.34051 -3.586648,17.258523 2.018906,6.02603 7.302924,10.609105 13.526279,11.732955 1.55705,0.281154 4.630225,0.285767 6.218039,0.0089 9.275902,-1.617584 15.660112,-10.426448 14.355466,-19.806464 -0.456736,-3.283829 -2.158418,-6.902561 -4.348364,-9.243607 l -0.839845,-0.896663 0.717327,-1.429332 c 0.393982,-0.786536 0.884728,-2.015299 1.0902,-2.730823 0.454173,-1.581653 0.732509,-4.159222 0.578837,-5.348012 z m -2.070309,21.466619 c 0.173454,0 0.683873,1.378573 0.820309,2.215909 0.464091,2.847689 -1.669445,5.841768 -4.643106,6.518111 -2.540489,0.577821 -4.803338,-0.06028 -6.427558,-1.814631 -0.451336,-0.487497 -0.76644,-0.939386 -0.701349,-1.003195 0.151424,-0.148445 3.747206,-2.139571 5.539773,-3.068182 0.755276,-0.391261 2.261002,-1.191463 3.346946,-1.77912 1.085939,-0.587655 2.015167,-1.068892 2.064985,-1.068892 z m -24.918323,0.0657 c 0.07418,-0.04585 1.258019,0.524227 2.629617,1.26598 1.371598,0.741753 2.687627,1.433646 2.926136,1.537642 0.238509,0.103998 1.149614,0.597772 2.024148,1.0973 0.874532,0.49953 2.030713,1.149474 2.569246,1.443538 l 0.980114,0.534446 -0.29652,0.413707 c -0.771745,1.083819 -2.172254,2.005241 -3.650567,2.398793 -1.466063,0.390286 -3.372453,0.177166 -4.76385,-0.532671 -0.893699,-0.455929 -2.181922,-1.753243 -2.604758,-2.622513 -0.499115,-1.026082 -0.737588,-2.269127 -0.612571,-3.190697 0.111431,-0.821429 0.585511,-2.21358 0.799005,-2.345525 z m 19.518821,2.963422 c -0.125565,0.0045 -0.346641,0.123636 -0.822088,0.387075 l -0.880682,0.486505 0.28054,0.830966 c 0.208695,0.618168 0.267112,1.116652 0.229048,1.954901 -0.0444,0.977719 -0.02548,1.091843 0.147372,0.868253 0.748379,-0.96807 1.53738,-3.730231 1.241123,-4.346591 -0.05701,-0.118614 -0.09765,-0.184584 -0.195313,-0.181109 z m -14.174361,0.0053 c -0.219465,0 -0.18225,1.117466 0.07102,2.089843 0.121734,0.467369 0.43124,1.2446 0.687145,1.725852 l 0.465199,0.875356 0.08523,-1.368963 c 0.04712,-0.753036 0.191589,-1.61518 0.319603,-1.914063 L 26.705449,37.3149 25.849625,36.883436 c -0.471006,-0.237761 -0.923199,-0.433238 -1.004972,-0.433238 z" />
    <rect
       x="34.795551"
       y="33.974232"
       width="24.697144"
       height="25.420679"
       rx="5.2519779"
       ry="5.1276212"
       fill="url(#linearGradient862)"
       stroke-width="3.0541"
       id="rect35-7-3-9"
       style="fill:#414141;fill-opacity:1;stroke:#dfdfdf;stroke-width:2.27273;stroke-dasharray:none;stroke-opacity:1" />
    <path
       style="fill:#dfdfdf;fill-opacity:1;stroke:none;stroke-width:1;stroke-dasharray:none;stroke-opacity:0.3"
       d="m 48.808606,39.039339 c -3.454012,0 -6.307726,2.828403 -6.307726,6.286354 0,1.314308 0.44385,2.523459 1.14039,3.536132 l -4.205186,4.214717 a 1.1466616,1.14926 0 0 0 1.603731,1.643023 L 45.245,50.504851 c 1.011857,0.698251 2.249989,1.107253 3.563715,1.107253 3.45413,0 6.272144,-2.8284 6.272144,-6.286355 0,-3.45795 -2.818014,-6.286354 -6.272144,-6.286354 z m 0,2.285948 c 2.220792,0 3.991361,1.777093 3.991361,4.000406 0,2.223199 -1.770569,4.000407 -3.991361,4.000407 -2.220797,0 -3.991366,-1.777208 -3.991366,-4.000407 0,-2.223313 1.770569,-4.000406 3.991366,-4.000406 z"
       id="path8" />
  </g>
</svg>
