<?xml version="1.0" encoding="UTF-8" standalone="no"?>
<svg
   width="64"
   height="64"
   version="1.1"
   id="svg73"
   sodipodi:docname="audacious.svg"
   inkscape:version="1.4.2 (ebf0e940d0, 2025-05-08)"
   xmlns:inkscape="http://www.inkscape.org/namespaces/inkscape"
   xmlns:sodipodi="http://sodipodi.sourceforge.net/DTD/sodipodi-0.dtd"
   xmlns="http://www.w3.org/2000/svg"
   xmlns:svg="http://www.w3.org/2000/svg"
   xmlns:rdf="http://www.w3.org/1999/02/22-rdf-syntax-ns#"
   xmlns:cc="http://creativecommons.org/ns#"
   xmlns:dc="http://purl.org/dc/elements/1.1/">
  <metadata
     id="metadata77">
    <rdf:RDF>
      <cc:Work
         rdf:about="">
        <dc:format>image/svg+xml</dc:format>
        <dc:type
           rdf:resource="http://purl.org/dc/dcmitype/StillImage" />
      </cc:Work>
    </rdf:RDF>
  </metadata>
  <sodipodi:namedview
     pagecolor="#f5f7fa"
     bordercolor="#666666"
     borderopacity="1"
     objecttolerance="10"
     gridtolerance="10"
     guidetolerance="10"
     inkscape:pageopacity="0"
     inkscape:pageshadow="2"
     inkscape:window-width="1377"
     inkscape:window-height="886"
     id="namedview75"
     showgrid="false"
     inkscape:zoom="6.2890624"
     inkscape:cx="47.622361"
     inkscape:cy="45.396274"
     inkscape:window-x="264"
     inkscape:window-y="84"
     inkscape:window-maximized="0"
     inkscape:current-layer="g877"
     inkscape:document-rotation="0"
     inkscape:pagecheckerboard="0"
     inkscape:showpageshadow="2"
     inkscape:deskcolor="#d1d1d1" />
  <defs
     id="defs29" />
  <circle
     cx="32.516094"
     cy="31.877844"
     r="0"
     fill="url(#b)"
     stroke-width="1.5715"
     id="circle41"
     style="fill:url(#b)" />
  <g
     aria-label="GZ"
     transform="matrix(1.2212657,0,0,0.81882264,0.4960938,-0.1661539)"
     id="text93"
     style="font-weight:bold;font-size:11.5263px;line-height:1.25;font-family:sans-serif;-inkscape-font-specification:'sans-serif Bold';fill:#f2f2f2;stroke-width:0.288159" />
  <g
     id="g877"
     transform="matrix(1.1,0,0,1.1,-3.1845928,-3.2065454)">
    <rect
       x="8.3496294"
       y="8.369586"
       width="47.272728"
       height="47.272728"
       rx="9.8825235"
       ry="9.6485243"
       fill="url(#linearGradient862)"
       stroke-width="3.0541"
       id="rect35-7-3"
       style="fill:#414141;fill-opacity:1;stroke:#dfdfdf;stroke-width:2.04545;stroke-dasharray:none;stroke-opacity:1" />
    <path
       style="fill:#dfdfdf;stroke-width:0.047577;fill-opacity:1"
       d="m 27.926082,47.23061 v -1.014978 h -2.029955 -2.029953 v -1.014975 -1.01498 H 22.851196 21.836219 V 43.170701 42.155724 H 20.821241 19.806265 V 41.140747 40.125769 H 18.791287 17.776311 V 38.095814 36.06586 h -1.014978 -1.014977 v -4.05991 -4.059909 h 1.014977 1.014978 v -2.029954 -2.029954 h 1.014976 1.014978 v -1.014978 -1.014977 h 1.014976 1.014978 v -1.014977 -1.014978 h 1.014977 1.014978 V 18.811247 17.79627 h 2.029953 2.029955 v -1.014978 -1.014977 h 4.059909 4.05991 v 1.014977 1.014978 h 1.924969 c 1.784313,0 1.932639,0.0085 2.029954,0.116008 0.08729,0.09646 0.104986,0.267497 0.104986,1.014977 v 0.898968 h 1.014977 1.014977 v 1.014978 1.014977 h 1.01498 1.014975 v 1.014977 1.014978 h 1.014979 1.014974 v 2.029954 2.029954 h 1.014979 1.014976 v 4.059909 4.05991 h -1.014976 -1.014979 v 2.029955 2.029954 h -1.014974 -1.014979 v 1.014978 1.014977 h -1.014975 -1.01498 v 1.014977 1.014977 H 41.120787 40.10581 v 1.014979 1.014975 h -2.029954 -2.029955 v 1.014978 1.014976 h -4.05991 -4.059909 z m 8.119819,-4.059909 v -1.014977 h 2.029955 2.029954 v -1.014977 -1.014978 h 1.014977 1.014977 V 38.095814 36.06586 h 1.01498 1.014975 v -1.014978 -1.014977 h -1.014975 -1.01498 V 33.020928 32.00595 H 41.120787 40.10581 V 30.990974 29.975996 H 39.090833 38.075856 V 28.96102 27.946041 h -1.014978 -1.014977 v 1.014979 1.014976 h 1.014977 1.014978 v 1.014978 1.014976 h -3.044933 -3.044932 v -1.014976 -1.014978 h 1.014977 1.014978 V 28.96102 27.946041 h -1.014978 -1.014977 v 1.014979 1.014976 H 30.971014 29.956037 V 28.96102 27.946041 H 28.94106 27.926082 v 1.014979 1.014976 H 26.911105 25.896127 V 28.96102 27.946041 h -1.014975 -1.014978 v 1.014979 1.014976 h 1.014978 1.014975 v 1.014978 1.014976 h -1.014975 -1.014978 v 1.014978 1.014977 h -1.014978 -1.014977 v 1.014977 1.014978 h 1.014977 1.014978 v 1.014977 1.014977 h -1.014978 -1.014977 v 1.014978 1.014977 h 1.014977 1.014978 v 1.014978 1.014977 h 2.029953 2.029955 v 1.014977 1.014977 h 4.059909 4.05991 z M 27.926082,37.080837 V 36.06586 h -2.029955 -2.029953 v -1.014978 -1.014977 h 1.014978 1.014975 V 33.020928 32.00595 h 1.014978 1.014977 v -1.014976 -1.014978 h 1.014978 1.014977 v 2.029954 2.029955 h 1.014977 1.014977 v 1.014977 1.014978 h -1.014977 -1.014977 v 1.014977 1.014977 H 28.94106 27.926082 Z M 40.10581,35.050882 V 34.035905 H 39.090833 38.075856 V 33.020928 32.00595 h 1.014977 1.014977 v 1.014978 1.014977 h 1.014977 1.014977 v 1.014977 1.014978 H 41.120787 40.10581 Z"
       id="path1" />
  </g>
</svg>
