<?xml version="1.0" encoding="UTF-8" standalone="no"?>
<svg
   width="64"
   height="64"
   version="1.1"
   id="svg73"
   sodipodi:docname="audacious.svg"
   inkscape:version="1.4.2 (ebf0e940d0, 2025-05-08)"
   xmlns:inkscape="http://www.inkscape.org/namespaces/inkscape"
   xmlns:sodipodi="http://sodipodi.sourceforge.net/DTD/sodipodi-0.dtd"
   xmlns="http://www.w3.org/2000/svg"
   xmlns:svg="http://www.w3.org/2000/svg"
   xmlns:rdf="http://www.w3.org/1999/02/22-rdf-syntax-ns#"
   xmlns:cc="http://creativecommons.org/ns#"
   xmlns:dc="http://purl.org/dc/elements/1.1/">
  <metadata
     id="metadata77">
    <rdf:RDF>
      <cc:Work
         rdf:about="">
        <dc:format>image/svg+xml</dc:format>
        <dc:type
           rdf:resource="http://purl.org/dc/dcmitype/StillImage" />
      </cc:Work>
    </rdf:RDF>
  </metadata>
  <sodipodi:namedview
     pagecolor="#f5f7fa"
     bordercolor="#666666"
     borderopacity="1"
     objecttolerance="10"
     gridtolerance="10"
     guidetolerance="10"
     inkscape:pageopacity="0"
     inkscape:pageshadow="2"
     inkscape:window-width="1377"
     inkscape:window-height="886"
     id="namedview75"
     showgrid="false"
     inkscape:zoom="6.2890624"
     inkscape:cx="37.445963"
     inkscape:cy="34.901864"
     inkscape:window-x="1"
     inkscape:window-y="75"
     inkscape:window-maximized="0"
     inkscape:current-layer="g877"
     inkscape:document-rotation="0"
     inkscape:pagecheckerboard="0"
     inkscape:showpageshadow="2"
     inkscape:deskcolor="#d1d1d1" />
  <defs
     id="defs29" />
  <circle
     cx="32.516094"
     cy="31.877844"
     r="0"
     fill="url(#b)"
     stroke-width="1.5715"
     id="circle41"
     style="fill:url(#b)" />
  <g
     aria-label="GZ"
     transform="matrix(1.2212657,0,0,0.81882264,0.4960938,-0.1661539)"
     id="text93"
     style="font-weight:bold;font-size:11.5263px;line-height:1.25;font-family:sans-serif;-inkscape-font-specification:'sans-serif Bold';fill:#f2f2f2;stroke-width:0.288159" />
  <g
     id="g877"
     transform="matrix(1.1,0,0,1.1,-3.1845928,-3.2065454)">
    <rect
       x="8.3496294"
       y="8.369586"
       width="47.272728"
       height="47.272728"
       rx="9.8825235"
       ry="9.6485243"
       fill="url(#linearGradient862)"
       stroke-width="3.0541"
       id="rect35-7-3"
       style="fill:#414141;fill-opacity:1;stroke:#dfdfdf;stroke-width:2.04545;stroke-dasharray:none;stroke-opacity:1" />
    <path
       id="path11-3"
       style="fill:#dfdfdf;stroke:none;stroke-width:0.501546;stroke-dasharray:none;stroke-opacity:0.6;fill-opacity:1"
       d="m 31.988991,16.661739 c -1.120781,0 -2.241262,0.01394 -2.853849,0.04268 -6.073989,0.285232 -10.322194,1.279291 -11.756909,2.750772 -0.613247,0.628966 -0.879208,1.516956 -0.666348,2.229151 0.463369,1.550341 2.427363,2.629573 6.205382,3.408794 2.325166,0.479567 4.911143,0.750328 7.722368,0.808989 4.434178,0.09249 8.332649,-0.266034 11.526801,-1.059911 1.691547,-0.420416 2.868877,-0.88352 3.761757,-1.479504 1.839779,-1.228041 1.876514,-3.183879 0.08331,-4.383335 -1.811867,-1.211922 -5.792062,-2.022473 -11.168644,-2.274956 -0.612589,-0.02876 -1.733069,-0.04268 -2.853852,-0.04268 z m 0.04165,2.876759 c 4.441338,0.0038 8.721071,0.463986 10.875027,1.240034 0.274862,0.09903 0.536067,0.190497 0.579941,0.204073 0.061,0.01891 0.07692,0.06232 0.06663,0.183239 -0.01279,0.153893 -0.02452,0.162829 -0.412316,0.327973 -1.634031,0.695768 -4.241901,1.17047 -7.964931,1.45139 -0.79792,0.06022 -4.704501,0.09017 -5.597333,0.04267 -2.262225,-0.120324 -4.247375,-0.354534 -6.0232,-0.710076 -1.063569,-0.212935 -1.786049,-0.417743 -2.539421,-0.719447 l -0.575762,-0.230098 -0.01352,-0.160341 c -0.01029,-0.123006 0.0054,-0.166372 0.06663,-0.185324 0.04387,-0.01358 0.30509,-0.105036 0.579933,-0.204071 1.375955,-0.495739 3.672,-0.877221 6.535431,-1.085939 1.443522,-0.105234 2.942449,-0.155352 4.422892,-0.154093 z m -10.794853,5.491136 -0.15409,0.116615 c -0.274326,0.205803 -0.646982,0.610774 -0.814195,0.886042 -0.588997,0.969589 -0.478126,2.086245 0.298814,3.02356 1.386533,1.67273 5.193388,2.945531 9.630834,3.219301 2.522931,0.155648 5.461514,-0.06374 7.716121,-0.574729 4.060411,-0.920255 6.310204,-2.578286 6.165812,-4.544713 -0.02941,-0.403445 -0.145171,-0.75561 -0.368587,-1.123421 -0.167167,-0.27527 -0.539865,-0.680236 -0.814191,-0.886041 l -0.154054,-0.116615 -0.530997,0.130145 c -1.657099,0.406226 -4.150427,0.787593 -5.952392,0.909986 l -0.464359,0.03122 0.696542,0.07809 c 1.722601,0.19434 3.211334,0.543145 3.993925,0.934975 0.288216,0.14432 0.330096,0.185052 0.331092,0.322759 0.0017,0.209423 -1.229365,0.801111 -2.383239,1.145289 -1.885333,0.562352 -3.993507,0.836053 -6.443818,0.836053 -2.457466,0 -4.634025,-0.284741 -6.50732,-0.85168 -1.093731,-0.330984 -2.321242,-0.929151 -2.31975,-1.129657 10e-4,-0.138102 0.04265,-0.178353 0.331095,-0.322763 0.782607,-0.391816 2.271346,-0.74062 3.993942,-0.934958 l 0.696545,-0.07808 -0.464365,-0.03124 C 25.91719,25.947389 23.42386,25.566012 21.766775,25.159789 Z m 2.771599,6.416737 -0.181162,0.195739 c -0.26703,0.289691 -0.513948,0.692771 -0.628873,1.027639 -0.146273,0.426236 -0.136909,1.021134 0.02189,1.434732 0.32499,0.846544 1.102466,1.530496 2.284331,2.009462 1.141281,0.462516 2.766081,0.801482 4.493696,0.938095 0.708054,0.05597 3.180958,0.05867 3.874198,0.0044 2.366798,-0.186138 4.250788,-0.652653 5.443227,-1.349343 0.509893,-0.297894 1.118764,-0.905352 1.317086,-1.312916 0.459322,-0.943952 0.289852,-1.916641 -0.47998,-2.751815 l -0.180126,-0.195741 -0.31859,0.108265 c -1.094696,0.372934 -3.077671,0.772455 -4.610315,0.928638 l -0.310272,0.03122 0.575768,0.105167 c 0.715204,0.130571 1.337607,0.29672 1.670039,0.444579 0.236347,0.105124 0.254057,0.123111 0.254057,0.260296 0,0.182786 -0.08142,0.230377 -0.664268,0.387317 -2.520739,0.678738 -6.47946,0.690634 -9.052972,0.02706 -0.674252,-0.17386 -0.769427,-0.225377 -0.769427,-0.414399 0,-0.137184 0.01771,-0.155182 0.254049,-0.260293 0.332428,-0.147869 0.954833,-0.314006 1.670035,-0.444579 l 0.575766,-0.105167 -0.310271,-0.03122 c -1.552128,-0.158296 -3.569332,-0.568506 -4.675932,-0.950716 z m 7.91186,6.668706 c -1.099536,0.0042 -2.209715,0.05908 -3.160996,0.1645 -3.054782,0.338358 -5.352993,1.221907 -5.533825,2.126072 -0.05762,0.288146 0.321605,0.742058 0.882914,1.055747 1.134951,0.634284 3.333278,1.141907 5.647311,1.304594 0.377229,0.02663 0.785174,0.05563 0.906859,0.06459 0.498423,0.03676 3.19139,-0.02095 3.850253,-0.08219 2.874475,-0.267258 5.012043,-0.872994 5.878452,-1.664839 0.455382,-0.416186 0.478085,-0.747363 0.07697,-1.148415 -0.76299,-0.763052 -2.814385,-1.395634 -5.447386,-1.679448 -0.911993,-0.09829 -2.001074,-0.144757 -3.10061,-0.140545 z m -8.591748,1.156744 c -0.01216,0 -0.308956,0.09791 -0.660102,0.217601 -1.996046,0.680368 -3.309344,1.555043 -3.789862,2.5238 -0.154238,0.310952 -0.163466,0.352865 -0.163466,0.753811 0,0.404823 0.0085,0.441824 0.172837,0.774621 0.712764,1.442192 3.43977,2.715387 7.194496,3.358828 1.1327,0.194121 2.596866,0.357698 3.960613,0.441451 0.146028,0.0088 1.162066,0.01103 2.257261,0.0043 2.050946,-0.01178 2.689276,-0.04821 4.269845,-0.245735 4.389708,-0.548639 7.722348,-1.940753 8.521987,-3.558722 0.164462,-0.332761 0.172807,-0.3698 0.172807,-0.774632 0,-0.40529 -0.0081,-0.441308 -0.173837,-0.77671 -0.373053,-0.75486 -1.383017,-1.529512 -2.768475,-2.12295 -0.325334,-0.139384 -1.606619,-0.595549 -1.672121,-0.595549 -0.01216,0 0.07761,0.09627 0.200944,0.214511 0.410823,0.393889 0.565316,0.857046 0.435206,1.30459 -0.143967,0.495278 -0.592351,0.909749 -1.420158,1.312912 -1.291319,0.628909 -3.08491,1.028416 -5.59734,1.24733 -0.974447,0.08496 -3.806288,0.07116 -4.823746,-0.02415 -3.896087,-0.36431 -6.393328,-1.302719 -6.751995,-2.536496 -0.130047,-0.447336 0.01558,-0.887315 0.428964,-1.294177 0.125534,-0.123584 0.218371,-0.224884 0.206144,-0.224884 z" />
  </g>
</svg>
