<?xml version="1.0" encoding="UTF-8" standalone="no"?>
<svg
   width="64"
   height="64"
   version="1.1"
   id="svg73"
   sodipodi:docname="audacious.svg"
   inkscape:version="1.4.2 (ebf0e940d0, 2025-05-08)"
   xmlns:inkscape="http://www.inkscape.org/namespaces/inkscape"
   xmlns:sodipodi="http://sodipodi.sourceforge.net/DTD/sodipodi-0.dtd"
   xmlns="http://www.w3.org/2000/svg"
   xmlns:svg="http://www.w3.org/2000/svg"
   xmlns:rdf="http://www.w3.org/1999/02/22-rdf-syntax-ns#"
   xmlns:cc="http://creativecommons.org/ns#"
   xmlns:dc="http://purl.org/dc/elements/1.1/">
  <metadata
     id="metadata77">
    <rdf:RDF>
      <cc:Work
         rdf:about="">
        <dc:format>image/svg+xml</dc:format>
        <dc:type
           rdf:resource="http://purl.org/dc/dcmitype/StillImage" />
      </cc:Work>
    </rdf:RDF>
  </metadata>
  <sodipodi:namedview
     pagecolor="#f5f7fa"
     bordercolor="#666666"
     borderopacity="1"
     objecttolerance="10"
     gridtolerance="10"
     guidetolerance="10"
     inkscape:pageopacity="0"
     inkscape:pageshadow="2"
     inkscape:window-width="1377"
     inkscape:window-height="886"
     id="namedview75"
     showgrid="false"
     inkscape:zoom="6.2890624"
     inkscape:cx="47.622361"
     inkscape:cy="45.396274"
     inkscape:window-x="12"
     inkscape:window-y="50"
     inkscape:window-maximized="0"
     inkscape:current-layer="g877"
     inkscape:document-rotation="0"
     inkscape:pagecheckerboard="0"
     inkscape:showpageshadow="2"
     inkscape:deskcolor="#d1d1d1" />
  <defs
     id="defs29" />
  <circle
     cx="32.516094"
     cy="31.877844"
     r="0"
     fill="url(#b)"
     stroke-width="1.5715"
     id="circle41"
     style="fill:url(#b)" />
  <g
     aria-label="GZ"
     transform="matrix(1.2212657,0,0,0.81882264,0.4960938,-0.1661539)"
     id="text93"
     style="font-weight:bold;font-size:11.5263px;line-height:1.25;font-family:sans-serif;-inkscape-font-specification:'sans-serif Bold';fill:#f2f2f2;stroke-width:0.288159" />
  <g
     id="g877"
     transform="matrix(1.1,0,0,1.1,-3.1845928,-3.2065454)">
    <rect
       x="8.3496294"
       y="8.369586"
       width="47.272728"
       height="47.272728"
       rx="9.8825235"
       ry="9.6485243"
       fill="url(#linearGradient862)"
       stroke-width="3.0541"
       id="rect35-7-3"
       style="fill:#414141;fill-opacity:1;stroke:#dfdfdf;stroke-width:2.04545;stroke-dasharray:none;stroke-opacity:1" />
    <path
       id="path127"
       style="fill:#dfdfdf;fill-opacity:1;stroke:none;stroke-width:0.486252;stroke-dasharray:none;stroke-dashoffset:2.2;stroke-opacity:0.6"
       d="m 31.844979,16.667953 c -1.02917,-0.0013 -2.038761,0.05694 -2.7225,0.177216 -3.080903,0.541936 -5.951064,2.054633 -8.253185,4.348595 -1.769766,1.763502 -3.009905,3.75622 -3.768266,6.054546 -0.607019,1.839671 -0.614402,2.117826 -0.02923,0.967869 1.08602,-2.134145 2.75054,-3.820205 4.778981,-4.841297 1.572682,-0.79167 2.4767,-0.987086 4.568657,-0.981501 5.286854,0.01406 8.624071,1.977326 9.468378,5.567685 0.234318,0.996468 0.182894,3.438177 -0.08568,4.058433 -0.09546,0.220465 -0.239448,0.606858 -0.32133,0.858814 -0.08186,0.251955 -0.347315,0.764535 -0.59007,1.139242 -0.242758,0.37471 -0.442065,0.715581 -0.442065,0.757547 0,0.04196 0.10734,0.213636 0.239538,0.381699 0.475405,0.604377 1.906206,1.146579 3.497575,1.324243 2.350725,0.262478 4.213041,-0.134273 5.949388,-1.267769 2.528057,-1.650333 3.460098,-3.597955 3.135356,-6.549189 -0.156529,-1.422421 -0.440767,-2.352788 -1.16846,-3.803321 C 45.345065,23.351811 44.788415,22.55243 43.735945,21.450825 41.428497,19.03565 38.24724,17.418474 34.690152,16.852958 33.922602,16.73091 32.874136,16.669205 31.844966,16.667953 Z M 24.781671,23.3223 c -0.719225,-0.0075 -1.003232,0.04476 -1.57157,0.216169 -3.140159,0.947046 -5.710536,4.235118 -6.181128,7.904594 -0.216578,1.688774 0.120701,4.345196 0.817921,6.442083 1.630663,4.904222 5.392382,8.444287 9.902654,9.32036 0.729183,0.141548 1.218678,0.144065 4.064271,0.02669 0.09448,-0.0043 0.71485,0.03309 1.378779,0.07987 1.371178,0.09751 2.249766,-0.01934 3.626099,-0.479066 2.831853,-0.946576 5.786056,-3.116791 7.517065,-5.520947 0.676067,-0.938976 0.755355,-1.16079 0.492702,-1.378768 -0.121909,-0.101136 -0.292882,-0.03603 -0.767287,0.29015 -0.335637,0.230871 -0.921543,0.559294 -1.302835,0.730287 -1.207104,0.541345 -1.779831,0.628157 -4.072068,0.619282 -1.970511,-0.0076 -2.190345,-0.02946 -3.148981,-0.321291 -2.045588,-0.623133 -3.657342,-1.610302 -5.100304,-3.121197 -1.011987,-1.059631 -1.606288,-1.989825 -2.054529,-3.219089 -0.729973,-2.001878 -0.688871,-3.82977 0.109049,-4.950353 0.374067,-0.525325 0.272518,-0.509244 -0.467383,0.07205 -1.605755,1.261554 -2.845615,3.129615 -3.501467,5.273625 -0.270411,0.883965 -0.309651,1.204646 -0.313537,2.611504 -0.0053,1.830363 0.14105,2.509013 0.856864,4.007782 0.564674,1.182327 1.464527,2.346903 2.461544,3.18599 0.825841,0.695027 2.441065,1.571373 3.42747,1.857849 l 0.572544,0.16545 -0.825709,-0.05646 c -3.501953,-0.242362 -6.395898,-3.072564 -7.195733,-7.034043 -0.283071,-1.402027 -0.185055,-3.600554 0.222008,-4.965928 0.851327,-2.85554 2.818363,-5.282734 4.993197,-6.157758 0.9938,-0.399843 2.426298,-0.0068 3.203511,0.87829 0.457038,0.520534 0.913331,1.465429 0.932815,1.933793 0.02933,0.704982 0.203591,-0.541242 0.208378,-1.489779 0.01345,-2.6728 -1.179016,-4.83946 -3.258043,-5.922118 -1.277658,-0.665345 -2.282278,-0.901383 -4.136328,-0.973714 -0.363227,-0.01414 -0.650234,-0.02275 -0.889973,-0.02531 z" />
  </g>
</svg>
