<?xml version="1.0" encoding="UTF-8" standalone="no"?>
<svg
   width="64"
   height="64"
   version="1.1"
   id="svg73"
   sodipodi:docname="audacious.svg"
   inkscape:version="1.4.2 (ebf0e940d0, 2025-05-08)"
   xmlns:inkscape="http://www.inkscape.org/namespaces/inkscape"
   xmlns:sodipodi="http://sodipodi.sourceforge.net/DTD/sodipodi-0.dtd"
   xmlns="http://www.w3.org/2000/svg"
   xmlns:svg="http://www.w3.org/2000/svg"
   xmlns:rdf="http://www.w3.org/1999/02/22-rdf-syntax-ns#"
   xmlns:cc="http://creativecommons.org/ns#"
   xmlns:dc="http://purl.org/dc/elements/1.1/">
  <metadata
     id="metadata77">
    <rdf:RDF>
      <cc:Work
         rdf:about="">
        <dc:format>image/svg+xml</dc:format>
        <dc:type
           rdf:resource="http://purl.org/dc/dcmitype/StillImage" />
      </cc:Work>
    </rdf:RDF>
  </metadata>
  <sodipodi:namedview
     pagecolor="#f5f7fa"
     bordercolor="#666666"
     borderopacity="1"
     objecttolerance="10"
     gridtolerance="10"
     guidetolerance="10"
     inkscape:pageopacity="0"
     inkscape:pageshadow="2"
     inkscape:window-width="1377"
     inkscape:window-height="886"
     id="namedview75"
     showgrid="false"
     inkscape:zoom="6.2890624"
     inkscape:cx="46.986336"
     inkscape:cy="40.467081"
     inkscape:window-x="12"
     inkscape:window-y="50"
     inkscape:window-maximized="0"
     inkscape:current-layer="g877"
     inkscape:document-rotation="0"
     inkscape:pagecheckerboard="0"
     inkscape:showpageshadow="2"
     inkscape:deskcolor="#d1d1d1" />
  <defs
     id="defs29" />
  <circle
     cx="32.516094"
     cy="31.877844"
     r="0"
     fill="url(#b)"
     stroke-width="1.5715"
     id="circle41"
     style="fill:url(#b)" />
  <g
     aria-label="GZ"
     transform="matrix(1.2212657,0,0,0.81882264,0.4960938,-0.1661539)"
     id="text93"
     style="font-weight:bold;font-size:11.5263px;line-height:1.25;font-family:sans-serif;-inkscape-font-specification:'sans-serif Bold';fill:#f2f2f2;stroke-width:0.288159" />
  <g
     id="g877"
     transform="matrix(1.1,0,0,1.1,-3.1845928,-3.2065454)">
    <rect
       x="8.3496294"
       y="8.369586"
       width="47.272728"
       height="47.272728"
       rx="9.8825235"
       ry="9.6485243"
       fill="url(#linearGradient862)"
       stroke-width="3.0541"
       id="rect35-7-3"
       style="fill:#414141;fill-opacity:1;stroke:#dfdfdf;stroke-width:2.04545;stroke-dasharray:none;stroke-opacity:1" />
    <path
       style="fill:#dfdfdf;stroke-width:0.0647575;fill-opacity:1"
       d="m 31.036167,41.698342 c -1.897392,-0.378663 -4.110296,-1.311089 -7.684576,-3.237954 -2.702375,-1.45683 -5.599827,-3.060973 -6.013694,-3.329422 -0.343323,-0.222689 -0.500597,-0.402505 -0.69075,-0.789754 -0.229183,-0.466739 -0.246211,-0.573068 -0.246211,-1.537536 0,-0.982718 0.132948,-1.729181 0.37358,-2.097558 0.05518,-0.08448 0.703929,0.201191 2.666022,1.174002 4.678785,2.319756 7.804722,3.531833 11.184463,4.336756 l 1.186189,0.282504 -0.352074,0.381956 c -0.543444,0.589566 -0.795474,1.222161 -0.838409,2.104389 -0.04588,0.942898 0.11437,1.519918 0.63218,2.276258 0.212595,0.310524 0.377082,0.560941 0.365525,0.556479 -0.01155,-0.0044 -0.273566,-0.05851 -0.582245,-0.12012 z m 1.812657,-0.125125 c -0.673389,-0.204835 -1.010817,-0.519241 -1.348218,-1.256218 -0.477904,-1.043881 -0.269664,-2.284299 0.511945,-3.049491 0.529427,-0.518309 0.864165,-0.626248 2.096316,-0.675979 0.609301,-0.02458 1.482002,-0.129219 2.039728,-0.244539 1.289937,-0.266712 8.965006,-1.941258 9.146521,-1.995587 0.18965,-0.05675 0.25439,-0.338662 0.119986,-0.522471 -0.118552,-0.162129 -0.04776,-0.175992 -7.428279,1.454546 -2.51888,0.556483 -2.850723,0.61072 -3.755945,0.613886 -0.831458,0.0028 -1.073584,-0.02818 -1.488726,-0.191136 -0.913939,-0.358761 -1.345115,-1.01358 -1.423857,-2.162377 -0.09464,-1.380752 0.544495,-2.543468 1.672364,-3.042377 0.293721,-0.129929 5.892064,-1.237092 13.12921,-2.596514 1.089805,-0.20471 1.121204,-0.19632 1.414226,0.378048 0.288014,0.564557 0.194362,1.187699 -0.249248,1.658433 -0.30494,0.323583 -0.442971,0.370896 -1.824083,0.62521 -0.643972,0.11858 -3.385572,0.643052 -6.092444,1.165493 -5.041239,0.972989 -5.137442,0.99885 -5.137442,1.380999 0,0.31407 -0.435726,0.384795 9.325104,-1.513559 1.353435,-0.263225 2.650478,-0.478821 2.882314,-0.479099 0.370016,-4.23e-4 0.456268,0.03634 0.705862,0.30098 0.615731,0.652868 0.820089,1.894461 0.46709,2.837926 -0.35029,0.936226 -1.055261,1.485482 -2.603602,2.02849 -0.889841,0.312073 -1.570165,0.458595 -6.675448,1.437681 -3.976796,0.76267 -4.271264,0.847005 -4.141179,1.186004 0.02926,0.07626 0.09878,0.155339 0.154466,0.175713 0.151592,0.05546 6.726037,-1.159031 8.538903,-1.577392 0.86801,-0.200316 1.947319,-0.500158 2.398465,-0.666317 1.571019,-0.578619 1.587598,-0.578834 1.964317,-0.02563 0.227343,0.333849 0.243979,0.665414 0.06384,1.272055 -0.195237,0.657451 -0.49147,0.924125 -1.210426,1.089669 -0.331024,0.07623 -1.495518,0.350236 -2.587762,0.608928 -2.628264,0.622486 -5.459218,1.200249 -7.677249,1.566832 -1.769223,0.292406 -2.55345,0.349596 -2.986737,0.217796 z m -2.810076,-6.175489 c -3.014116,-0.781163 -6.29354,-2.095288 -10.588097,-4.242844 -1.171995,-0.586073 -2.267816,-1.185803 -2.435162,-1.332731 -1.076865,-0.945502 -1.107108,-2.793426 -0.06397,-3.908625 0.483133,-0.516511 0.973575,-0.77373 1.823863,-0.956556 0.562997,-0.121051 9.557599,-1.85156 13.124219,-2.525022 1.605616,-0.303179 2.981555,-0.317608 4.010544,-0.04206 0.40212,0.107682 1.510486,0.582097 2.67665,1.145689 1.094683,0.529045 3.214252,1.541894 4.710157,2.250777 1.495899,0.708882 2.751807,1.319787 2.790899,1.357571 0.0951,0.09192 0.242188,0.06092 -4.517774,0.951893 -6.521984,1.220789 -8.550883,1.637601 -9.035675,1.856269 -1.245652,0.561852 -2.112917,2.376381 -1.861369,3.894427 0.07735,0.46679 0.247791,0.907542 0.690241,1.784912 0.05398,0.107041 -0.145816,0.0718 -1.324528,-0.2337 z"
       id="path1" />
  </g>
</svg>
