<?xml version="1.0" encoding="UTF-8" standalone="no"?>
<svg
   width="64"
   height="64"
   version="1.1"
   id="svg73"
   sodipodi:docname="audacious.svg"
   inkscape:version="1.4.2 (ebf0e940d0, 2025-05-08)"
   xmlns:inkscape="http://www.inkscape.org/namespaces/inkscape"
   xmlns:sodipodi="http://sodipodi.sourceforge.net/DTD/sodipodi-0.dtd"
   xmlns="http://www.w3.org/2000/svg"
   xmlns:svg="http://www.w3.org/2000/svg"
   xmlns:rdf="http://www.w3.org/1999/02/22-rdf-syntax-ns#"
   xmlns:cc="http://creativecommons.org/ns#"
   xmlns:dc="http://purl.org/dc/elements/1.1/">
  <metadata
     id="metadata77">
    <rdf:RDF>
      <cc:Work
         rdf:about="">
        <dc:format>image/svg+xml</dc:format>
        <dc:type
           rdf:resource="http://purl.org/dc/dcmitype/StillImage" />
      </cc:Work>
    </rdf:RDF>
  </metadata>
  <sodipodi:namedview
     pagecolor="#f5f7fa"
     bordercolor="#666666"
     borderopacity="1"
     objecttolerance="10"
     gridtolerance="10"
     guidetolerance="10"
     inkscape:pageopacity="0"
     inkscape:pageshadow="2"
     inkscape:window-width="1377"
     inkscape:window-height="886"
     id="namedview75"
     showgrid="false"
     inkscape:zoom="6.2890624"
     inkscape:cx="47.622361"
     inkscape:cy="45.396274"
     inkscape:window-x="0"
     inkscape:window-y="53"
     inkscape:window-maximized="0"
     inkscape:current-layer="g877"
     inkscape:document-rotation="0"
     inkscape:pagecheckerboard="0"
     inkscape:showpageshadow="2"
     inkscape:deskcolor="#d1d1d1" />
  <defs
     id="defs29" />
  <circle
     cx="32.516094"
     cy="31.877844"
     r="0"
     fill="url(#b)"
     stroke-width="1.5715"
     id="circle41"
     style="fill:url(#b)" />
  <g
     aria-label="GZ"
     transform="matrix(1.2212657,0,0,0.81882264,0.4960938,-0.1661539)"
     id="text93"
     style="font-weight:bold;font-size:11.5263px;line-height:1.25;font-family:sans-serif;-inkscape-font-specification:'sans-serif Bold';fill:#f2f2f2;stroke-width:0.288159" />
  <g
     id="g877"
     transform="matrix(1.1,0,0,1.1,-3.1845928,-3.2065454)">
    <rect
       x="8.3496294"
       y="8.369586"
       width="47.272728"
       height="47.272728"
       rx="9.8825235"
       ry="9.6485243"
       fill="url(#linearGradient862)"
       stroke-width="3.0541"
       id="rect35-7-3"
       style="fill:#414141;fill-opacity:1;stroke:#dfdfdf;stroke-width:2.04545;stroke-dasharray:none;stroke-opacity:1" />
    <path
       style="fill:#dfdfdf;stroke:none;stroke-width:0.523046;stroke-dasharray:none;stroke-opacity:0.6;fill-opacity:1"
       d="m 17.350009,47.4421 c -0.151604,-0.06125 -0.401237,-0.271016 -0.554733,-0.466164 l -0.279081,-0.354754 v -9.739796 -9.739762 l 5.254241,-5.253033 5.254234,-5.253036 h 9.754104 9.754102 l 0.426267,0.380834 0.426262,0.380829 0.03519,9.811794 0.03519,9.811789 -5.321335,5.26868 -5.321347,5.268683 -9.593601,-0.0024 C 21.942495,47.554464 17.50133,47.503244 17.349717,47.442 Z m 21.355472,-9.857251 v -2.284192 h -4.376787 c -4.825534,0 -4.937431,-0.01586 -5.787483,-0.822398 -0.75453,-0.715866 -0.924639,-1.260947 -0.924639,-2.962829 0,-1.701892 0.170112,-2.246969 0.924639,-2.962837 0.850052,-0.806496 0.961949,-0.822395 5.787483,-0.822395 h 4.376787 v -2.284193 -2.28419 l -4.535748,0.0021 c -3.58084,0.0015 -4.711537,0.04338 -5.370711,0.198747 -2.649623,0.624571 -4.931317,2.906268 -5.55589,5.555892 -0.260778,1.106308 -0.263436,4.076573 -0.0045,5.174228 0.628082,2.663848 2.769378,4.852746 5.454943,5.576209 0.520027,0.140057 1.774545,0.185101 5.345764,0.191669 l 4.666273,0.0082 z"
       id="path5-5" />
  </g>
</svg>
