<?xml version="1.0" encoding="UTF-8" standalone="no"?>
<svg
   width="64"
   height="64"
   version="1.1"
   id="svg73"
   sodipodi:docname="Logo.svg"
   inkscape:version="1.3.2 (091e20ef0f, 2023-11-25)"
   xmlns:inkscape="http://www.inkscape.org/namespaces/inkscape"
   xmlns:sodipodi="http://sodipodi.sourceforge.net/DTD/sodipodi-0.dtd"
   xmlns="http://www.w3.org/2000/svg"
   xmlns:svg="http://www.w3.org/2000/svg"
   xmlns:rdf="http://www.w3.org/1999/02/22-rdf-syntax-ns#"
   xmlns:cc="http://creativecommons.org/ns#"
   xmlns:dc="http://purl.org/dc/elements/1.1/">
  <metadata
     id="metadata77">
    <rdf:RDF>
      <cc:Work
         rdf:about="">
        <dc:format>image/svg+xml</dc:format>
        <dc:type
           rdf:resource="http://purl.org/dc/dcmitype/StillImage" />
      </cc:Work>
    </rdf:RDF>
  </metadata>
  <sodipodi:namedview
     pagecolor="#f5f7fa"
     bordercolor="#666666"
     borderopacity="1"
     objecttolerance="10"
     gridtolerance="10"
     guidetolerance="10"
     inkscape:pageopacity="0"
     inkscape:pageshadow="2"
     inkscape:window-width="1377"
     inkscape:window-height="886"
     id="namedview75"
     showgrid="false"
     inkscape:zoom="6.2890624"
     inkscape:cx="4.2931678"
     inkscape:cy="12.004969"
     inkscape:window-x="181"
     inkscape:window-y="77"
     inkscape:window-maximized="0"
     inkscape:current-layer="g877"
     inkscape:document-rotation="0"
     inkscape:pagecheckerboard="0"
     inkscape:showpageshadow="2"
     inkscape:deskcolor="#d1d1d1" />
  <defs
     id="defs29">
    <linearGradient
       id="b"
       x1="399.57"
       x2="399.57"
       y1="545.8"
       y2="517.8"
       gradientTransform="matrix(2.1429,0,0,2.1429,-825.86391,-1107.6662)"
       gradientUnits="userSpaceOnUse">
      <stop
         stop-color="#3889e9"
         offset="0"
         id="stop2" />
      <stop
         stop-color="#5ea5fb"
         offset="1"
         id="stop4" />
    </linearGradient>
    <linearGradient
       id="d"
       x2="1"
       gradientTransform="matrix(14.905727,-4.7106182,4.7106182,14.905727,322.04962,998.26962)"
       gradientUnits="userSpaceOnUse">
      <stop
         stop-color="#fafafa"
         offset="0"
         id="stop7" />
      <stop
         stop-color="#aaa"
         offset="1"
         id="stop8" />
    </linearGradient>
    <linearGradient
       id="e"
       x2="1"
       gradientTransform="matrix(21.439909,0,0,21.439909,26.63554,1159.7788)"
       gradientUnits="userSpaceOnUse">
      <stop
         stop-color="#f0f0f0"
         offset="0"
         id="stop9" />
      <stop
         stop-color="#b7f1ff"
         offset="1"
         id="stop10" />
    </linearGradient>
  </defs>
  <circle
     cx="32.516094"
     cy="31.877844"
     r="0"
     fill="url(#b)"
     stroke-width="1.5715"
     id="circle41"
     style="fill:url(#b)" />
  <g
     aria-label="GZ"
     transform="matrix(1.2212657,0,0,0.81882264,0.4960938,-0.1661539)"
     id="text93"
     style="font-weight:bold;font-size:11.5263px;line-height:1.25;font-family:sans-serif;-inkscape-font-specification:'sans-serif Bold';fill:#f2f2f2;stroke-width:0.288159" />
  <g
     id="g877"
     transform="matrix(1.1,0,0,1.1,-3.1845928,-3.2065454)">
    <rect
       x="6.3010068"
       y="5.4939413"
       width="51.635597"
       height="53.148327"
       rx="10.980581"
       ry="10.720582"
       fill="url(#linearGradient862)"
       stroke-width="3.0541"
       id="rect35-7-3"
       style="fill:#414141;fill-opacity:1;stroke:#dfdfdf;stroke-width:2.27272727;stroke-dasharray:none;stroke-opacity:1" />
    <path
       d="m 50.093309,22.568042 -2.642848,-1.939054 c -0.326933,-0.243188 -1.10159,0.220641 -1.953549,1.082263 l -1.132189,-0.831024 c 0.571732,-1.070988 0.781098,-1.948717 0.450944,-2.190292 L 38.346248,13.938929 C 34.775747,12.971014 31.024869,12.855055 27.401223,13.600722 l -1.829541,0.37525 c -0.304387,0.06442 -0.54274,0.301165 -0.610384,0.60394 -0.06764,0.304387 0.05314,0.618437 0.302777,0.803645 0.10307,0.0757 0.222251,0.12401 0.346261,0.143335 l 2.193513,0.338208 c 2.488238,0.383301 4.693026,1.813434 6.052297,3.931254 l 0.08697,0.136894 1.575079,1.157956 -8.001014,10.89188 C 27.148374,31.784991 26.662,31.87678 26.34634,32.242376 L 15.470562,43.615797 c -0.942149,1.091925 -1.443017,2.493069 -1.380207,3.862003 0.0628,1.368934 0.684467,2.578426 1.713582,3.332146 1.029116,0.755328 2.369061,0.988852 3.694512,0.640983 1.323838,-0.349482 2.512394,-1.246535 3.272555,-2.472135 l 7.603217,-13.777911 c 0.254461,-0.40907 0.198095,-0.900275 -0.104676,-1.193389 l 8.004234,-10.89349 2.138757,1.571858 c 0.328545,0.241578 1.103199,-0.220639 1.955159,-1.083872 l 1.132189,0.831023 c -0.571731,1.070988 -0.781097,1.947106 -0.452554,2.188682 l 2.642848,1.942276 c 0.467048,0.341427 1.83276,-0.721509 3.048695,-2.375502 1.217545,-1.657216 1.821487,-3.277388 1.35444,-3.620427 z"
       fill="#ddf2e9"
       fill-rule="nonzero"
       id="path6"
       style="stroke-width:1.61051;fill:#dfdfdf;fill-opacity:1" />
  </g>
</svg>
