<?xml version="1.0" encoding="UTF-8" standalone="no"?>
<svg
   width="64"
   height="64"
   version="1.1"
   id="svg73"
   sodipodi:docname="audacious.svg"
   inkscape:version="1.4.2 (ebf0e940d0, 2025-05-08)"
   xmlns:inkscape="http://www.inkscape.org/namespaces/inkscape"
   xmlns:sodipodi="http://sodipodi.sourceforge.net/DTD/sodipodi-0.dtd"
   xmlns="http://www.w3.org/2000/svg"
   xmlns:svg="http://www.w3.org/2000/svg"
   xmlns:rdf="http://www.w3.org/1999/02/22-rdf-syntax-ns#"
   xmlns:cc="http://creativecommons.org/ns#"
   xmlns:dc="http://purl.org/dc/elements/1.1/">
  <metadata
     id="metadata77">
    <rdf:RDF>
      <cc:Work
         rdf:about="">
        <dc:format>image/svg+xml</dc:format>
        <dc:type
           rdf:resource="http://purl.org/dc/dcmitype/StillImage" />
      </cc:Work>
    </rdf:RDF>
  </metadata>
  <sodipodi:namedview
     pagecolor="#f5f7fa"
     bordercolor="#666666"
     borderopacity="1"
     objecttolerance="10"
     gridtolerance="10"
     guidetolerance="10"
     inkscape:pageopacity="0"
     inkscape:pageshadow="2"
     inkscape:window-width="1377"
     inkscape:window-height="886"
     id="namedview75"
     showgrid="false"
     inkscape:zoom="6.2890624"
     inkscape:cx="46.986336"
     inkscape:cy="44.601243"
     inkscape:window-x="264"
     inkscape:window-y="75"
     inkscape:window-maximized="0"
     inkscape:current-layer="g877"
     inkscape:document-rotation="0"
     inkscape:pagecheckerboard="0"
     inkscape:showpageshadow="2"
     inkscape:deskcolor="#d1d1d1" />
  <defs
     id="defs29" />
  <circle
     cx="32.516094"
     cy="31.877844"
     r="0"
     fill="url(#b)"
     stroke-width="1.5715"
     id="circle41"
     style="fill:url(#b)" />
  <g
     aria-label="GZ"
     transform="matrix(1.2212657,0,0,0.81882264,0.4960938,-0.1661539)"
     id="text93"
     style="font-weight:bold;font-size:11.5263px;line-height:1.25;font-family:sans-serif;-inkscape-font-specification:'sans-serif Bold';fill:#f2f2f2;stroke-width:0.288159" />
  <g
     id="g877"
     transform="matrix(1.1,0,0,1.1,-3.1845928,-3.2065454)">
    <rect
       x="8.3496294"
       y="8.369586"
       width="47.272728"
       height="47.272728"
       rx="9.8825235"
       ry="9.6485243"
       fill="url(#linearGradient862)"
       stroke-width="3.0541"
       id="rect35-7-3"
       style="fill:#414141;fill-opacity:1;stroke:#dfdfdf;stroke-width:2.04545;stroke-dasharray:none;stroke-opacity:1" />
    <path
       style="fill:#dfdfdf;fill-opacity:1;stroke:none;stroke-width:0.4725;stroke-dasharray:none;stroke-opacity:0.6"
       d="m 23.63203,44.741539 c -3.408864,-0.502214 -6.106691,-1.764361 -6.843298,-3.201548 -0.733988,-1.432073 1.047653,-3.226429 3.860559,-3.888103 4.498171,-1.058095 9.551894,-0.0939 14.337662,2.73555 0.488329,0.288693 0.887874,0.480463 0.887874,0.42611 0,-0.350314 -2.495108,-2.251478 -3.612513,-2.752595 -0.487191,-0.218491 -0.503184,-0.24226 -0.433931,-0.644358 0.03954,-0.229629 0.254933,-0.794884 0.478642,-1.256122 0.458198,-0.944692 1.004295,-1.497275 2.829664,-2.863271 1.265185,-0.946786 2.059176,-1.710604 2.337352,-2.248548 0.143992,-0.278447 0.05025,-0.218284 -0.44479,0.285493 -0.590025,0.600433 -1.217419,1.026538 -3.223322,2.189161 -1.212701,0.702882 -2.071671,1.532594 -2.478767,2.394329 l -0.340285,0.720312 -0.257986,-0.580945 c -0.141893,-0.319523 -0.498212,-1.45083 -0.791825,-2.514019 -0.746331,-2.702529 -0.721126,-2.460071 -0.255873,-2.461422 0.540823,-0.0014 1.590233,-0.508951 2.13212,-1.030862 0.481786,-0.46403 0.753394,-0.907799 0.905833,-1.480001 0.08023,-0.30118 0.07323,-0.32337 -0.0439,-0.139162 -0.504831,0.793865 -0.663365,0.982728 -1.112404,1.325221 -1.257155,0.958864 -3.199544,0.978155 -4.597165,0.04565 -0.287043,-0.191518 -0.993114,-0.746242 -1.569041,-1.232722 -0.575928,-0.48648 -1.109502,-0.884509 -1.185724,-0.884509 -0.10123,0 -0.111376,0.145613 -0.03765,0.540188 0.05551,0.297106 0.07141,0.587926 0.03536,0.64627 -0.119328,0.193084 -0.283686,-0.02318 -0.283686,-0.373281 0,-0.340453 -0.151311,-0.456475 -0.29407,-0.225487 -0.172472,0.279069 -0.277127,-0.04175 -0.115542,-0.354207 0.229676,-0.444145 0.22446,-0.467794 -0.103236,-0.467794 -0.385489,0 -0.573499,-0.27136 -0.573499,-0.827753 0,-0.461537 0.308562,-0.929586 0.612833,-0.929586 0.06714,0 0.122052,-0.131801 0.122052,-0.292887 0,-0.182243 0.06638,-0.292892 0.175735,-0.292892 0.10353,0 0.176563,0.108295 0.177758,0.263603 10e-4,0.144979 0.132911,0.387754 0.292891,0.539496 0.159974,0.151743 0.290868,0.342989 0.290868,0.424991 0,0.419631 1.049919,0.604262 1.657043,0.291394 0.397004,-0.204589 0.914852,-0.707344 1.106576,-1.074333 0.255503,-0.489074 0.19907,-0.523158 -0.215482,-0.13014 -0.209417,0.19854 -0.579094,0.430584 -0.821509,0.515655 -0.405514,0.142309 -0.454041,0.135697 -0.607036,-0.08273 -0.09145,-0.130573 -0.375326,-0.300037 -0.630818,-0.376583 -0.589614,-0.176653 -0.670692,-0.393568 -0.308151,-0.824424 0.158397,-0.188242 0.287995,-0.372837 0.287995,-0.410209 0,-0.08708 -0.650888,-0.425431 -0.818396,-0.425431 -0.09019,0 -0.08911,0.07097 0.0038,0.244345 0.07193,0.13439 0.09867,0.276451 0.05943,0.315694 -0.06242,0.0624 -0.271782,-0.118984 -1.224868,-1.061173 -0.497267,-0.491569 -0.651334,-2.061365 -0.252133,-2.568866 0.643401,-0.817952 3.746466,-1.619348 6.215574,-1.605232 1.012272,0.0058 2.539713,0.173797 1.896872,0.208648 -0.419164,0.02272 -0.194574,0.218959 0.358994,0.313675 0.381802,0.06533 0.444086,0.104023 0.268176,0.166626 -0.181324,0.06452 0.03221,0.221717 1.023518,0.753448 2.78017,1.491265 3.817724,1.799691 7.32934,2.178734 1.521317,0.164208 2.574015,0.341907 3.203464,0.540751 1.034853,0.326912 1.150776,0.454947 0.261482,0.28881 -0.316715,-0.05917 -0.590675,-0.09274 -0.608827,-0.07458 -0.01819,0.01816 0.360916,0.193423 0.842362,0.389511 0.48144,0.196085 1.170623,0.552515 1.531527,0.792066 0.687569,0.456382 0.805384,0.67224 0.194495,0.356333 -0.595224,-0.307805 -0.584687,-0.212784 0.04897,0.441411 1.119659,1.15598 1.809157,3.069978 1.969203,5.466327 l 0.0665,0.995827 -0.198555,-0.527204 -0.198524,-0.527203 -0.08332,1.129112 c -0.301163,4.081282 -3.792155,8.456309 -8.436397,10.572764 -2.009694,0.915841 -4.31316,1.562242 -6.988506,1.96111 -2.058562,0.306909 -6.265521,0.399315 -7.811383,0.171539 z m -0.468625,-23.26562 c 0.03983,-0.06443 0.03634,-0.175504 -0.0077,-0.246825 -0.07873,-0.127407 -0.279114,0.06782 -0.283368,0.276114 -0.0026,0.128417 0.20664,0.107362 0.291099,-0.02928 z m 7.49169,-0.389869 c 0.147674,-0.419893 -0.118267,-0.940547 -0.509049,-0.996631 -0.429241,-0.0616 -0.553849,0.170978 -0.136339,0.254482 0.327463,0.0655 0.35879,0.112078 0.35879,0.533547 0,0.255983 -0.06527,0.491327 -0.146443,0.528064 -0.08056,0.03645 -0.04209,0.05352 0.08545,0.03793 0.134316,-0.01643 0.280581,-0.166807 0.347599,-0.357376 z m -4.387058,-0.425459 0.292892,-0.08903 -0.337994,-0.13671 c -0.275117,-0.111278 -0.389538,-0.102931 -0.615069,0.04485 -0.152396,0.09985 -0.277071,0.206692 -0.277071,0.237422 0,0.08235 0.599353,0.04621 0.937246,-0.05652 z"
       id="path1" />
  </g>
</svg>
