<?xml version="1.0" encoding="UTF-8" standalone="no"?>
<svg
   width="64"
   height="64"
   version="1.1"
   id="svg73"
   sodipodi:docname="fr.handbrake.ghb.svg"
   inkscape:version="1.4.2 (ebf0e940d0, 2025-05-08)"
   xmlns:inkscape="http://www.inkscape.org/namespaces/inkscape"
   xmlns:sodipodi="http://sodipodi.sourceforge.net/DTD/sodipodi-0.dtd"
   xmlns="http://www.w3.org/2000/svg"
   xmlns:svg="http://www.w3.org/2000/svg"
   xmlns:rdf="http://www.w3.org/1999/02/22-rdf-syntax-ns#"
   xmlns:cc="http://creativecommons.org/ns#"
   xmlns:dc="http://purl.org/dc/elements/1.1/">
  <metadata
     id="metadata77">
    <rdf:RDF>
      <cc:Work
         rdf:about="">
        <dc:format>image/svg+xml</dc:format>
        <dc:type
           rdf:resource="http://purl.org/dc/dcmitype/StillImage" />
      </cc:Work>
    </rdf:RDF>
  </metadata>
  <sodipodi:namedview
     pagecolor="#f5f7fa"
     bordercolor="#666666"
     borderopacity="1"
     objecttolerance="10"
     gridtolerance="10"
     guidetolerance="10"
     inkscape:pageopacity="0"
     inkscape:pageshadow="2"
     inkscape:window-width="1377"
     inkscape:window-height="886"
     id="namedview75"
     showgrid="false"
     inkscape:zoom="6.2890624"
     inkscape:cx="47.622361"
     inkscape:cy="45.396274"
     inkscape:window-x="147"
     inkscape:window-y="75"
     inkscape:window-maximized="0"
     inkscape:current-layer="g877"
     inkscape:document-rotation="0"
     inkscape:pagecheckerboard="0"
     inkscape:showpageshadow="2"
     inkscape:deskcolor="#d1d1d1" />
  <defs
     id="defs29">
    <linearGradient
       id="b"
       x1="399.57"
       x2="399.57"
       y1="545.8"
       y2="517.8"
       gradientTransform="matrix(2.1429,0,0,2.1429,-825.86391,-1107.6662)"
       gradientUnits="userSpaceOnUse">
      <stop
         stop-color="#3889e9"
         offset="0"
         id="stop2" />
      <stop
         stop-color="#5ea5fb"
         offset="1"
         id="stop4" />
    </linearGradient>
  </defs>
  <circle
     cx="32.516094"
     cy="31.877844"
     r="0"
     fill="url(#b)"
     stroke-width="1.5715"
     id="circle41"
     style="fill:url(#b)" />
  <g
     aria-label="GZ"
     transform="matrix(1.2212657,0,0,0.81882264,0.4960938,-0.1661539)"
     id="text93"
     style="font-weight:bold;font-size:11.5263px;line-height:1.25;font-family:sans-serif;-inkscape-font-specification:'sans-serif Bold';fill:#f2f2f2;stroke-width:0.288159" />
  <g
     id="g877"
     transform="matrix(1.1,0,0,1.1,-3.1845928,-3.2065454)">
    <rect
       x="8.3496294"
       y="8.369586"
       width="47.272728"
       height="47.272728"
       rx="9.8825235"
       ry="9.6485243"
       fill="url(#linearGradient862)"
       stroke-width="3.0541"
       id="rect35-7-3"
       style="fill:#414141;fill-opacity:1;stroke:#dfdfdf;stroke-width:2.04545;stroke-dasharray:none;stroke-opacity:1" />
    <path
       id="path8-9"
       style="fill:#dfdfdf;fill-opacity:1;stroke:none;stroke-width:0.470741;stroke-dasharray:none;stroke-opacity:0.6"
       d="m 31.981102,18.012878 c -0.614941,0.0037 -1.240017,0.317182 -1.678757,0.950132 l -0.31671,0.454664 -0.03121,5.741589 -0.03116,5.741591 0.545985,-0.167095 c 0.700541,-0.214198 2.331992,-0.213775 3.031091,0 l 0.542156,0.165156 V 25.334137 19.767416 L 33.745356,19.172854 C 33.361049,18.40164 32.678047,18.008737 31.981112,18.012878 Z m 11.848462,0 c -0.516067,0.01968 -1.014233,0.265228 -1.412576,0.718914 -0.522922,0.595593 -0.603559,1.034767 -0.604264,3.312828 -5.91e-4,1.886026 0.015,2.032171 0.200136,1.976041 1.264788,-0.383217 2.507182,-0.39208 3.656731,-0.02334 l 0.256488,0.08353 v -2.181972 c 0,-2.721984 -0.135775,-3.145582 -1.167737,-3.672287 -0.303623,-0.154953 -0.619128,-0.225498 -0.928763,-0.213727 z m -23.856244,0.0022 c -0.37935,0.01416 -0.754323,0.146252 -1.08226,0.396372 -0.586191,0.447118 -0.847952,1.058728 -0.926812,2.176172 -0.03759,0.530136 -0.04644,0.964412 -0.02142,0.963731 0.02517,-6.82e-4 0.297717,-0.07932 0.606222,-0.172929 0.708683,-0.21498 2.378495,-0.220153 3.077724,-0.0098 l 0.532384,0.161274 v -0.769556 c -4e-6,-1.024222 -0.255265,-1.730395 -0.802468,-2.224764 -0.402083,-0.363299 -0.895685,-0.53896 -1.383419,-0.520766 z m 0.07384,4.393143 c -1.048659,0 -1.209101,0.03027 -1.908029,0.361396 -1.062648,0.503443 -1.7244,1.151329 -2.238349,2.191719 -0.407394,0.824659 -0.425531,0.916429 -0.425531,2.0149 0,1.070676 0.0244,1.203895 0.374982,1.915807 0.625723,1.270833 1.709659,2.18551 2.998061,2.531739 0.344114,0.09246 0.814706,0.170704 1.047284,0.174874 1.196606,0.02142 2.619886,-0.586311 3.452722,-1.476686 2.183812,-2.334678 1.509216,-5.908676 -1.383416,-7.33292 -0.71915,-0.354083 -0.851206,-0.380829 -1.91775,-0.380829 z m 23.879557,2.514253 c -1.158215,3.08e-4 -1.311252,0.02694 -1.943003,0.336141 -1.336557,0.653939 -2.321484,1.974839 -2.584212,3.46633 -0.428285,2.431421 1.423455,4.946809 3.872432,5.259729 2.066969,0.264084 4.03812,-0.814046 4.917745,-2.691076 0.27344,-0.583352 0.307056,-0.792561 0.307056,-1.859457 0,-1.124149 -0.02399,-1.250901 -0.369167,-1.952723 C 47.67644,26.565276 46.757072,25.660946 45.840551,25.231431 45.2513,24.955295 45.053412,24.922193 43.92668,24.92249 Z m -11.834853,6.709209 c -0.841644,-0.0083 -1.700901,0.220375 -2.490936,0.69366 -0.763128,0.457147 -1.293654,1.066815 -1.76425,2.022669 -0.336504,0.683495 -0.363906,0.827566 -0.363341,1.884717 5.4e-4,1.011439 0.03702,1.224004 0.316709,1.822543 0.615965,1.317827 1.46184,2.084662 2.807648,2.54339 0.946804,0.322733 1.827355,0.332206 2.795984,0.03268 2.302642,-0.710807 3.707531,-3.169844 3.120474,-5.461385 -0.24752,-0.966162 -0.638849,-1.600427 -1.447558,-2.349149 -0.839055,-0.776821 -1.892635,-1.178503 -2.974748,-1.189127 z m -14.172298,0.565419 0.03498,6.017489 c 0.03785,6.67031 0.01242,6.443295 0.802464,7.19496 0.217631,0.207038 0.544034,0.424498 0.72668,0.481876 0.839441,0.263718 1.909124,-0.217151 2.358812,-1.058939 0.259013,-0.484871 0.259128,-0.492939 0.291456,-6.559602 l 0.03297,-6.073842 -0.547925,0.170961 c -0.713143,0.22313 -2.437597,0.221433 -3.151585,-0.0018 z m 23.893161,2.582216 v 4.599089 c 0,3.171926 0.04041,4.737398 0.132145,5.04405 0.181264,0.605095 0.743999,1.216817 1.29598,1.410638 0.251478,0.08831 0.561693,0.16425 0.689777,0.167102 0.392774,0.0082 1.221131,-0.485552 1.589372,-0.948197 l 0.349782,-0.439112 0.0307,-4.91777 c 0.03003,-4.581177 0.0192,-4.911174 -0.161311,-4.841965 -0.106395,0.04086 -0.544642,0.134372 -0.973455,0.207897 -0.749155,0.128488 -1.883376,0.04249 -2.696885,-0.204034 z m -11.883429,6.779155 v 1.311528 c 0,1.801724 0.289037,2.4456 1.31347,2.918395 0.561494,0.259099 0.856602,0.26711 1.402854,0.03874 1.078075,-0.450441 1.391695,-1.108618 1.395077,-2.926161 l 0.0022,-1.330959 -0.542097,0.169051 c -0.71986,0.224712 -2.45221,0.22186 -3.085495,-0.0062 z" />
    <rect
       x="37.737823"
       y="37.757782"
       width="22.610399"
       height="22.610399"
       rx="4.7267799"
       ry="4.6148596"
       fill="url(#linearGradient862)"
       stroke-width="3.0541"
       id="rect35-7-3-1"
       style="fill:#414141;fill-opacity:1;stroke:#dfdfdf;stroke-width:0.978336;stroke-dasharray:none;stroke-opacity:1" />
    <path
       style="color:#000000;clip-rule:nonzero;display:inline;overflow:visible;visibility:visible;isolation:auto;mix-blend-mode:normal;color-interpolation:sRGB;color-interpolation-filters:linearRGB;solid-color:#000000;solid-opacity:1;fill:#dfdfdf;fill-opacity:1;fill-rule:nonzero;stroke:none;stroke-width:0.454545;stroke-linecap:butt;stroke-linejoin:miter;stroke-miterlimit:4;stroke-dasharray:none;stroke-dashoffset:0;stroke-opacity:0.6;marker:none;color-rendering:auto;image-rendering:auto;shape-rendering:auto;text-rendering:auto;enable-background:accumulate"
       d="m 48.049489,41.647769 c -0.190389,0 -0.349074,0.757559 -0.442214,1.840216 a 5.8190384,5.9942708 0 0 0 -1.406201,0.608794 c -0.812308,-0.701301 -1.446838,-1.124631 -1.581842,-0.985565 l -1.497121,1.542208 c -0.135001,0.139055 0.275945,0.792706 0.956751,1.629476 a 5.8190384,5.9942708 0 0 0 -0.585828,1.448546 c -1.053952,0.09586 -1.791586,0.259074 -1.791586,0.455531 v 2.179731 c 0,0.196127 0.735411,0.359591 1.786418,0.455535 a 5.8190384,5.9942708 0 0 0 0.588931,1.451735 c -0.679249,0.835271 -1.089525,1.487383 -0.954686,1.626287 l 1.497121,1.542201 c 0.134725,0.138746 0.766967,-0.282851 1.576678,-0.981308 a 5.8190384,5.9942708 0 0 0 1.411365,0.599218 c 0.09305,1.085694 0.251481,1.845538 0.442214,1.845538 h 2.116013 c 0.190389,0 0.349077,-0.757559 0.442217,-1.840216 a 5.8190384,5.9942708 0 0 0 1.406198,-0.608791 c 0.812312,0.701299 1.446838,1.124628 1.581845,0.985559 l 1.497121,-1.542201 c 0.135001,-0.139021 -0.275945,-0.79271 -0.956751,-1.629483 a 5.8190384,5.9942708 0 0 0 0.585828,-1.448539 c 1.053949,-0.09586 1.791586,-0.259075 1.791586,-0.455535 v -2.179731 c 0,-0.196127 -0.735414,-0.359588 -1.786418,-0.455531 A 5.8190384,5.9942708 0 0 0 54.13819,46.279706 c 0.679257,-0.835272 1.089532,-1.487384 0.954693,-1.626284 l -1.497121,-1.542208 c -0.134725,-0.13878 -0.766967,0.282851 -1.576681,0.981308 a 5.8190384,5.9942708 0 0 0 -1.411362,-0.599215 c -0.09305,-1.08569 -0.251481,-1.845534 -0.442217,-1.845534 z m 1.058006,4.904405 a 2.6450176,2.7246682 0 0 1 2.645017,2.72467 2.6450176,2.7246682 0 0 1 -2.645017,2.724664 2.6450176,2.7246682 0 0 1 -2.645017,-2.724664 2.6450176,2.7246682 0 0 1 2.645017,-2.72467 z"
       id="path4690"
       inkscape:connector-curvature="0" />
  </g>
</svg>
