<?xml version="1.0" encoding="UTF-8" standalone="no"?>
<svg
   width="64"
   height="64"
   version="1.1"
   id="svg73"
   sodipodi:docname="partitionmanager.svg"
   inkscape:version="1.4.2 (ebf0e940d0, 2025-05-08)"
   xmlns:inkscape="http://www.inkscape.org/namespaces/inkscape"
   xmlns:sodipodi="http://sodipodi.sourceforge.net/DTD/sodipodi-0.dtd"
   xmlns="http://www.w3.org/2000/svg"
   xmlns:svg="http://www.w3.org/2000/svg"
   xmlns:rdf="http://www.w3.org/1999/02/22-rdf-syntax-ns#"
   xmlns:cc="http://creativecommons.org/ns#"
   xmlns:dc="http://purl.org/dc/elements/1.1/">
  <metadata
     id="metadata77">
    <rdf:RDF>
      <cc:Work
         rdf:about="">
        <dc:format>image/svg+xml</dc:format>
        <dc:type
           rdf:resource="http://purl.org/dc/dcmitype/StillImage" />
      </cc:Work>
    </rdf:RDF>
  </metadata>
  <sodipodi:namedview
     pagecolor="#f5f7fa"
     bordercolor="#666666"
     borderopacity="1"
     objecttolerance="10"
     gridtolerance="10"
     guidetolerance="10"
     inkscape:pageopacity="0"
     inkscape:pageshadow="2"
     inkscape:window-width="1377"
     inkscape:window-height="886"
     id="namedview75"
     showgrid="false"
     inkscape:zoom="6.2890624"
     inkscape:cx="47.622361"
     inkscape:cy="45.396274"
     inkscape:window-x="264"
     inkscape:window-y="102"
     inkscape:window-maximized="0"
     inkscape:current-layer="g877"
     inkscape:document-rotation="0"
     inkscape:pagecheckerboard="0"
     inkscape:showpageshadow="2"
     inkscape:deskcolor="#d1d1d1" />
  <defs
     id="defs29" />
  <circle
     cx="32.516094"
     cy="31.877844"
     r="0"
     fill="url(#b)"
     stroke-width="1.5715"
     id="circle41"
     style="fill:url(#b)" />
  <g
     aria-label="GZ"
     transform="matrix(1.2212657,0,0,0.81882264,0.4960938,-0.1661539)"
     id="text93"
     style="font-weight:bold;font-size:11.5263px;line-height:1.25;font-family:sans-serif;-inkscape-font-specification:'sans-serif Bold';fill:#f2f2f2;stroke-width:0.288159" />
  <g
     id="g877"
     transform="matrix(1.1,0,0,1.1,-3.1845928,-3.2065454)">
    <rect
       x="8.3496294"
       y="8.369586"
       width="47.272728"
       height="47.272728"
       rx="9.8825235"
       ry="9.6485243"
       fill="url(#linearGradient862)"
       stroke-width="3.0541"
       id="rect35-7-3"
       style="fill:#414141;fill-opacity:1;stroke:#dfdfdf;stroke-width:2.04545;stroke-dasharray:none;stroke-opacity:1" />
    <path
       id="path10"
       style="fill:#dfdfdf;fill-opacity:1;stroke:none;stroke-width:0.421954;stroke-dasharray:none;stroke-opacity:0.6"
       d="m 38.930358,18.735145 c -0.153973,-3.4e-5 -2.747018,0.948829 -7.707977,2.819331 l -7.475277,2.818293 0.185948,0.211918 c 0.105465,0.120116 0.231353,0.374538 0.289834,0.584846 l 0.103877,0.3719 h 0.326189 c 0.277829,0 1.38547,-0.399508 7.466966,-2.69156 3.927245,-1.480137 7.201318,-2.746594 7.275825,-2.815177 0.347386,-0.319798 0.341245,-0.794966 -0.01478,-1.107371 -0.160264,-0.140721 -0.280948,-0.192138 -0.45085,-0.19218 z m -16.240766,5.315591 c -0.372694,-0.0026 -0.751097,0.124176 -1.053352,0.389557 -0.234992,0.206327 -0.513199,0.725863 -0.514211,0.9609 v 0.14024 h 1.560294 c 0.858516,0 1.561522,-0.02096 1.561331,-0.04675 -0.0015,-0.168205 -0.166581,-0.584808 -0.320992,-0.809236 -0.284413,-0.413379 -0.753885,-0.631187 -1.23307,-0.634715 z m 13.854616,1.54887 v 9.838571 9.838578 l 4.417017,-0.02001 c 4.038678,-0.01827 4.441671,-0.02902 4.69854,-0.128861 0.41585,-0.162557 0.85608,-0.510178 1.066859,-0.842478 0.388295,-0.612146 0.368776,-0.152376 0.368776,-8.888064 0,-7.93256 -4.88e-4,-7.980296 -0.129877,-8.326069 -0.235657,-0.62993 -0.757958,-1.151733 -1.356666,-1.354673 -0.172533,-0.05847 -1.328713,-0.08298 -4.647639,-0.09764 z m -0.06232,0.0021 -8.975319,0.01664 -8.976359,0.01663 -0.392673,0.181765 c -0.493265,0.227787 -0.951418,0.711184 -1.132307,1.194646 -0.128302,0.342934 -0.128809,0.406914 -0.128809,8.426832 0,7.998577 8.44e-4,8.084481 0.127777,8.423714 0.248852,0.665107 0.927657,1.222751 1.627813,1.339029 0.184939,0.03061 4.276443,0.05936 9.092708,0.06334 l 8.757175,0.0071 V 35.43708 Z m -9.951805,2.635458 c 1.070059,-0.02081 2.145014,0.190838 3.123703,0.643022 0.439535,0.203081 1.52082,0.869287 1.52082,0.937009 -1e-6,0.01788 -2.043042,0.03218 -4.539604,0.03218 -2.63206,0 -4.513745,-0.02307 -4.479349,-0.05506 0.03259,-0.03037 0.249247,-0.184076 0.482005,-0.341765 1.148071,-0.777763 2.516632,-1.188603 3.892425,-1.21539 z m 15.370238,2.129558 c 0.75708,0.02985 1.494664,0.454811 1.865712,1.219567 0.149013,0.307177 0.172211,0.431416 0.172414,0.917268 1.77e-4,0.442343 -0.02902,0.624135 -0.133994,0.855981 -0.186332,0.408792 -0.655334,0.889367 -1.062706,1.088672 -0.581673,0.284585 -1.37535,0.261912 -1.987253,-0.05713 -0.309202,-0.161247 -0.721338,-0.6136 -0.895445,-0.982714 -0.136952,-0.290513 -0.162325,-0.429421 -0.162036,-0.904806 3.86e-4,-0.675433 0.122309,-0.991297 0.565114,-1.464722 0.448684,-0.479681 1.049369,-0.695339 1.638211,-0.672108 z m -1.02634,0.974406 c -0.06128,0.0023 -0.12399,0.02476 -0.181837,0.07272 -0.125875,0.104443 -0.113228,0.413886 0.01971,0.491359 0.167891,0.0978 0.29705,0.07977 0.422787,-0.05922 0.196713,-0.217363 -0.0203,-0.513363 -0.26068,-0.504863 z m -20.241223,0.06962 h 6.006402 6.007443 l 0.197371,0.32723 c 0.242997,0.402367 0.57758,1.134285 0.57758,1.263194 0,0.08449 -0.750531,0.09556 -6.774083,0.09556 -5.612843,0 -6.774083,-0.01502 -6.774083,-0.08416 0,-0.0459 0.170355,-0.424786 0.379165,-0.842475 z M 19.515,34.594709 h 7.133512 7.133512 l 0.0374,0.140239 c 0.0492,0.183688 0.051,1.319599 0.0021,1.447063 -0.03422,0.08927 -0.724353,0.09869 -7.17195,0.09869 h -7.134473 l -0.03947,-0.289826 c -0.02188,-0.159326 -0.03946,-0.407703 -0.03946,-0.552648 0,-0.144946 0.01763,-0.394359 0.03946,-0.553687 z m 20.983969,1.623639 c 0.767961,0 0.790534,0.02329 0.790534,0.822738 0,0.496328 -0.01885,0.610727 -0.114281,0.697045 -0.08872,0.08035 -0.241454,0.103887 -0.686653,0.103887 -0.776076,0 -0.822737,-0.04635 -0.822737,-0.812349 0,-0.768001 0.04474,-0.811312 0.833126,-0.811312 z m 2.641696,0 c 0.788383,0 0.833129,0.0433 0.833129,0.811313 0,0.478685 -0.01827,0.580278 -0.124687,0.686655 -0.107053,0.107075 -0.208282,0.125673 -0.70847,0.125673 -0.774667,0 -0.821696,-0.0468 -0.821696,-0.812352 0,-0.765539 0.04701,-0.81131 0.821696,-0.81131 z M 26.647473,37.77864 c 4.301056,0 6.774083,0.02232 6.774083,0.06025 0,0.127905 -0.268611,0.741618 -0.514211,1.173866 l -0.256584,0.451891 h -5.97836 -5.979395 l -0.13193,-0.185985 c -0.154462,-0.216896 -0.687692,-1.324332 -0.687692,-1.42836 0,-0.05234 1.764679,-0.07168 6.774082,-0.07168 z m 13.810988,1.061659 c 0.444995,0 0.684848,0.06556 0.783261,0.212981 0.02553,0.03784 0.04622,0.328478 0.04669,0.646152 8.44e-4,0.495066 -0.01652,0.595192 -0.123613,0.702238 -0.104958,0.104969 -0.20811,0.124687 -0.647182,0.124687 -0.433851,0 -0.551039,-0.02146 -0.687688,-0.128862 -0.156727,-0.123264 -0.164092,-0.157046 -0.164092,-0.713661 0,-0.556639 0.0075,-0.590347 0.164092,-0.713667 0.132893,-0.104559 0.253635,-0.129877 0.628481,-0.129877 z m 2.953335,10e-4 c 0.240122,4.29e-4 0.289823,0.0332 0.403058,0.146492 0.147158,0.147158 0.15893,0.202512 0.15893,0.719904 0,0.530867 -0.008,0.567141 -0.16415,0.689763 -0.136227,0.107207 -0.253546,0.128861 -0.680423,0.128861 -0.752902,0 -0.810272,-0.0591 -0.810272,-0.835201 0,-0.78136 0.02902,-0.812149 0.780148,-0.841444 0.131936,-0.0051 0.232671,-0.008 0.312712,-0.008 z m -16.764332,2.122324 c 2.771573,0 4.527139,0.02233 4.527139,0.05818 0,0.106788 -1.063859,0.76838 -1.623665,1.00972 -0.622287,0.268278 -1.299826,0.453711 -2.018407,0.551612 -1.305486,0.177865 -2.805801,-0.07093 -4.006692,-0.663788 -0.487317,-0.240596 -1.405509,-0.833606 -1.405509,-0.907923 0,-0.0264 2.037444,-0.04782 4.527134,-0.04782 z" />
  </g>
</svg>
