<?xml version="1.0" encoding="UTF-8" standalone="no"?>
<svg
   width="64"
   height="64"
   version="1.1"
   id="svg73"
   sodipodi:docname="audacious.svg"
   inkscape:version="1.4.2 (ebf0e940d0, 2025-05-08)"
   xmlns:inkscape="http://www.inkscape.org/namespaces/inkscape"
   xmlns:sodipodi="http://sodipodi.sourceforge.net/DTD/sodipodi-0.dtd"
   xmlns="http://www.w3.org/2000/svg"
   xmlns:svg="http://www.w3.org/2000/svg"
   xmlns:rdf="http://www.w3.org/1999/02/22-rdf-syntax-ns#"
   xmlns:cc="http://creativecommons.org/ns#"
   xmlns:dc="http://purl.org/dc/elements/1.1/">
  <metadata
     id="metadata77">
    <rdf:RDF>
      <cc:Work
         rdf:about="">
        <dc:format>image/svg+xml</dc:format>
        <dc:type
           rdf:resource="http://purl.org/dc/dcmitype/StillImage" />
      </cc:Work>
    </rdf:RDF>
  </metadata>
  <sodipodi:namedview
     pagecolor="#f5f7fa"
     bordercolor="#666666"
     borderopacity="1"
     objecttolerance="10"
     gridtolerance="10"
     guidetolerance="10"
     inkscape:pageopacity="0"
     inkscape:pageshadow="2"
     inkscape:window-width="1377"
     inkscape:window-height="886"
     id="namedview75"
     showgrid="false"
     inkscape:zoom="6.2890624"
     inkscape:cx="46.986336"
     inkscape:cy="44.601243"
     inkscape:window-x="264"
     inkscape:window-y="75"
     inkscape:window-maximized="0"
     inkscape:current-layer="g877"
     inkscape:document-rotation="0"
     inkscape:pagecheckerboard="0"
     inkscape:showpageshadow="2"
     inkscape:deskcolor="#d1d1d1" />
  <defs
     id="defs29" />
  <circle
     cx="32.516094"
     cy="31.877844"
     r="0"
     fill="url(#b)"
     stroke-width="1.5715"
     id="circle41"
     style="fill:url(#b)" />
  <g
     aria-label="GZ"
     transform="matrix(1.2212657,0,0,0.81882264,0.4960938,-0.1661539)"
     id="text93"
     style="font-weight:bold;font-size:11.5263px;line-height:1.25;font-family:sans-serif;-inkscape-font-specification:'sans-serif Bold';fill:#f2f2f2;stroke-width:0.288159" />
  <g
     id="g877"
     transform="matrix(1.1,0,0,1.1,-3.1845928,-3.2065454)">
    <rect
       x="8.3496294"
       y="8.369586"
       width="47.272728"
       height="47.272728"
       rx="9.8825235"
       ry="9.6485243"
       fill="url(#linearGradient862)"
       stroke-width="3.0541"
       id="rect35-7-3"
       style="fill:#414141;fill-opacity:1;stroke:#dfdfdf;stroke-width:2.04545;stroke-dasharray:none;stroke-opacity:1" />
    <path
       id="path31"
       style="fill:#dfdfdf;fill-opacity:1;stroke:none;stroke-width:0.496125;stroke-dasharray:none;stroke-opacity:0.6"
       d="m 31.889676,16.322623 c -1.099397,0.04947 -2.392135,1.332448 -8.234511,7.145363 -7.714668,7.675764 -7.793033,7.780471 -7.112419,9.560096 0.284839,0.744775 1.807133,2.392442 6.895363,7.470945 3.590819,3.583956 6.829531,6.671575 7.197689,6.860478 0.840335,0.431183 1.961515,0.442817 2.744192,0.02693 0.725619,-0.385171 13.72827,-13.420067 14.079482,-14.114167 0.340683,-0.6733 0.308253,-1.759643 -0.07365,-2.478686 C 46.815157,29.719102 33.597674,16.709814 32.862544,16.49898 32.489276,16.391927 32.197504,16.30877 31.889676,16.322623 Z m 0.195736,1.829462 1.786824,1.775197 1.784888,1.773258 -1.674422,1.684112 -1.674422,1.684112 1.624036,1.612407 1.624034,1.612406 1.662793,-1.672484 1.662794,-1.674422 1.844966,1.835276 1.846901,1.837211 -1.674422,1.684113 -1.67442,1.682174 1.67442,1.662792 1.674422,1.664734 -1.835271,1.844965 -1.837217,1.846902 -1.68411,-1.674422 -1.682175,-1.67442 -1.612405,1.624034 -1.614345,1.624035 1.674422,1.662794 1.674422,1.662793 -1.724808,1.7345 c -0.948376,0.95397 -1.779789,1.734498 -1.846905,1.734498 -0.06712,0 -0.896591,-0.780528 -1.844963,-1.734498 l -1.724811,-1.7345 1.674422,-1.662793 1.674422,-1.662794 -1.614345,-1.624035 -1.612407,-1.624034 -1.682173,1.67442 -1.684112,1.674422 -1.837213,-1.846902 -1.835275,-1.844965 1.674422,-1.664734 1.674422,-1.662792 -1.666669,-1.678297 -1.66667,-1.678297 1.817834,-1.852719 1.815894,-1.850777 1.693801,1.682172 1.691864,1.684111 1.614344,-1.614342 1.612406,-1.612407 -1.672483,-1.682173 -1.672484,-1.682176 1.784888,-1.773258 z m -3.445743,10.58723 -1.624034,1.612406 -1.624033,1.612405 1.612406,1.624036 1.612406,1.622095 1.624035,-1.612406 1.624033,-1.612406 -1.612407,-1.622095 z m 6.916682,0 -1.624034,1.612406 -1.624036,1.612405 1.612406,1.624036 1.612407,1.622095 1.624036,-1.612406 1.624035,-1.612406 -1.612409,-1.622095 z" />
  </g>
</svg>
