<?xml version="1.0" encoding="UTF-8" standalone="no"?>
<svg
   width="64"
   height="64"
   version="1.1"
   id="svg73"
   sodipodi:docname="accessories-character-map.svg"
   inkscape:version="1.3.2 (091e20ef0f, 2023-11-25)"
   xmlns:inkscape="http://www.inkscape.org/namespaces/inkscape"
   xmlns:sodipodi="http://sodipodi.sourceforge.net/DTD/sodipodi-0.dtd"
   xmlns="http://www.w3.org/2000/svg"
   xmlns:svg="http://www.w3.org/2000/svg"
   xmlns:rdf="http://www.w3.org/1999/02/22-rdf-syntax-ns#"
   xmlns:cc="http://creativecommons.org/ns#"
   xmlns:dc="http://purl.org/dc/elements/1.1/">
  <metadata
     id="metadata77">
    <rdf:RDF>
      <cc:Work
         rdf:about="">
        <dc:format>image/svg+xml</dc:format>
        <dc:type
           rdf:resource="http://purl.org/dc/dcmitype/StillImage" />
      </cc:Work>
    </rdf:RDF>
  </metadata>
  <sodipodi:namedview
     pagecolor="#f5f7fa"
     bordercolor="#666666"
     borderopacity="1"
     objecttolerance="10"
     gridtolerance="10"
     guidetolerance="10"
     inkscape:pageopacity="0"
     inkscape:pageshadow="2"
     inkscape:window-width="1377"
     inkscape:window-height="886"
     id="namedview75"
     showgrid="false"
     inkscape:zoom="4.4470387"
     inkscape:cx="47.784608"
     inkscape:cy="14.054296"
     inkscape:window-x="181"
     inkscape:window-y="77"
     inkscape:window-maximized="0"
     inkscape:current-layer="g877"
     inkscape:document-rotation="0"
     inkscape:pagecheckerboard="0"
     inkscape:showpageshadow="2"
     inkscape:deskcolor="#d1d1d1" />
  <defs
     id="defs29">
    <linearGradient
       id="b"
       x1="399.57"
       x2="399.57"
       y1="545.8"
       y2="517.8"
       gradientTransform="matrix(2.1429,0,0,2.1429,-825.86391,-1107.6662)"
       gradientUnits="userSpaceOnUse">
      <stop
         stop-color="#3889e9"
         offset="0"
         id="stop2" />
      <stop
         stop-color="#5ea5fb"
         offset="1"
         id="stop4" />
    </linearGradient>
    <linearGradient
       id="d"
       x2="1"
       gradientTransform="matrix(14.905727,-4.7106182,4.7106182,14.905727,322.04962,998.26962)"
       gradientUnits="userSpaceOnUse">
      <stop
         stop-color="#fafafa"
         offset="0"
         id="stop7" />
      <stop
         stop-color="#aaa"
         offset="1"
         id="stop8" />
    </linearGradient>
    <linearGradient
       id="e"
       x2="1"
       gradientTransform="matrix(21.439909,0,0,21.439909,26.63554,1159.7788)"
       gradientUnits="userSpaceOnUse">
      <stop
         stop-color="#f0f0f0"
         offset="0"
         id="stop9" />
      <stop
         stop-color="#b7f1ff"
         offset="1"
         id="stop10" />
    </linearGradient>
  </defs>
  <circle
     cx="32.516094"
     cy="31.877844"
     r="0"
     fill="url(#b)"
     stroke-width="1.5715"
     id="circle41"
     style="fill:url(#b)" />
  <g
     aria-label="GZ"
     transform="matrix(1.2212657,0,0,0.81882264,0.4960938,-0.1661539)"
     id="text93"
     style="font-weight:bold;font-size:11.5263px;line-height:1.25;font-family:sans-serif;-inkscape-font-specification:'sans-serif Bold';fill:#f2f2f2;stroke-width:0.288159" />
  <g
     id="g877"
     transform="matrix(1.1,0,0,1.1,-3.1845928,-3.2065454)">
    <rect
       x="6.3010068"
       y="5.4939413"
       width="51.635597"
       height="53.148327"
       rx="10.980581"
       ry="10.720582"
       fill="url(#linearGradient862)"
       stroke-width="3.0541"
       id="rect35-7-3"
       style="fill:#414141;fill-opacity:1;stroke:#dfdfdf;stroke-width:2.27272727;stroke-dasharray:none;stroke-opacity:1" />
    <path
       style="fill:#dfdfdf;fill-opacity:1;stroke:none;stroke-width:1.089;stroke-dasharray:none;stroke-dashoffset:2.2;stroke-opacity:0.3"
       d="m 17.81157,48.990487 c -0.401843,-0.168938 -0.52961,-0.393124 -0.52961,-0.929084 0,-0.366872 0.922347,-4.818312 1.12082,-5.409312 0.105193,-0.313226 0.04532,-0.406339 -0.762981,-1.186685 -4.029109,-3.889777 -5.225148,-9.093167 -3.176671,-13.820184 1.812463,-4.182398 6.221243,-7.618986 11.60013,-9.042144 2.211004,-0.584993 3.393766,-0.732929 5.915905,-0.739938 3.881732,-0.01078 6.717262,0.610496 9.881524,2.16512 5.748213,2.82414 9.047753,7.644832 8.782939,12.832038 -0.327222,6.409893 -5.90763,11.83732 -13.902629,13.521521 -1.203228,0.253454 -2.004812,0.331704 -3.948797,0.38544 -2.672767,0.07391 -4.326922,-0.08753 -6.441755,-0.62863 l -1.125743,-0.288028 -3.237549,1.592544 c -1.780657,0.875902 -3.366017,1.617098 -3.523024,1.647113 -0.157026,0.03019 -0.450656,-0.01464 -0.652558,-0.09979 z M 42.867031,39.62044 c 0.441281,-0.441288 0.441463,-1.512728 2.89e-4,-1.988742 L 42.560587,37.300727 H 32.246419 21.932252 l -0.323846,0.384845 c -0.229465,0.272703 -0.323845,0.529654 -0.323845,0.881791 0,0.52882 0.265933,1.170557 0.52897,1.276382 0.08746,0.03522 4.791164,0.06841 10.452714,0.07384 l 10.293725,0.0099 z m -0.05862,-6.437815 c 0.309524,-0.30952 0.365638,-0.464542 0.365638,-1.01028 0,-0.545738 -0.05612,-0.700759 -0.365638,-1.010283 L 42.44277,30.796435 H 32.22933 22.015854 l -0.365624,0.365627 c -0.309522,0.309523 -0.365622,0.464545 -0.365622,1.010283 0,0.545738 0.0561,0.700758 0.365622,1.01028 l 0.365624,0.365629 H 32.22933 42.442803 Z m 0.05892,-6.469635 c 0.441144,-0.476016 0.441006,-1.547453 -2.82e-4,-1.988741 L 42.560032,24.417228 H 32.307818 c -5.638723,0 -10.343344,0.03499 -10.454707,0.0777 -0.60757,0.233147 -0.757029,1.555261 -0.244653,2.164189 l 0.323845,0.384845 h 10.314166 10.314168 z"
       id="path52" />
  </g>
</svg>
