<?xml version="1.0" encoding="UTF-8" standalone="no"?>
<svg
   width="64"
   height="64"
   version="1.1"
   id="svg73"
   sodipodi:docname="audacious.svg"
   inkscape:version="1.4.2 (ebf0e940d0, 2025-05-08)"
   xmlns:inkscape="http://www.inkscape.org/namespaces/inkscape"
   xmlns:sodipodi="http://sodipodi.sourceforge.net/DTD/sodipodi-0.dtd"
   xmlns="http://www.w3.org/2000/svg"
   xmlns:svg="http://www.w3.org/2000/svg"
   xmlns:rdf="http://www.w3.org/1999/02/22-rdf-syntax-ns#"
   xmlns:cc="http://creativecommons.org/ns#"
   xmlns:dc="http://purl.org/dc/elements/1.1/">
  <metadata
     id="metadata77">
    <rdf:RDF>
      <cc:Work
         rdf:about="">
        <dc:format>image/svg+xml</dc:format>
        <dc:type
           rdf:resource="http://purl.org/dc/dcmitype/StillImage" />
      </cc:Work>
    </rdf:RDF>
  </metadata>
  <sodipodi:namedview
     pagecolor="#f5f7fa"
     bordercolor="#666666"
     borderopacity="1"
     objecttolerance="10"
     gridtolerance="10"
     guidetolerance="10"
     inkscape:pageopacity="0"
     inkscape:pageshadow="2"
     inkscape:window-width="1377"
     inkscape:window-height="886"
     id="namedview75"
     showgrid="false"
     inkscape:zoom="6.2890624"
     inkscape:cx="46.986336"
     inkscape:cy="44.601243"
     inkscape:window-x="264"
     inkscape:window-y="75"
     inkscape:window-maximized="0"
     inkscape:current-layer="g877"
     inkscape:document-rotation="0"
     inkscape:pagecheckerboard="0"
     inkscape:showpageshadow="2"
     inkscape:deskcolor="#d1d1d1" />
  <defs
     id="defs29" />
  <circle
     cx="32.516094"
     cy="31.877844"
     r="0"
     fill="url(#b)"
     stroke-width="1.5715"
     id="circle41"
     style="fill:url(#b)" />
  <g
     aria-label="GZ"
     transform="matrix(1.2212657,0,0,0.81882264,0.4960938,-0.1661539)"
     id="text93"
     style="font-weight:bold;font-size:11.5263px;line-height:1.25;font-family:sans-serif;-inkscape-font-specification:'sans-serif Bold';fill:#f2f2f2;stroke-width:0.288159" />
  <g
     id="g877"
     transform="matrix(1.1,0,0,1.1,-3.1845928,-3.2065454)">
    <rect
       x="8.3496294"
       y="8.369586"
       width="47.272728"
       height="47.272728"
       rx="9.8825235"
       ry="9.6485243"
       fill="url(#linearGradient862)"
       stroke-width="3.0541"
       id="rect35-7-3"
       style="fill:#414141;fill-opacity:1;stroke:#dfdfdf;stroke-width:2.04545;stroke-dasharray:none;stroke-opacity:1" />
    <path
       id="path58"
       style="fill:#dfdfdf;fill-opacity:1;stroke:none;stroke-width:0.516894;stroke-dasharray:none;stroke-dashoffset:2.2;stroke-opacity:0.6"
       d="m 31.902891,16.431593 c -0.873194,0 -1.029957,0.03199 -1.673648,0.348904 -0.917325,0.451624 -1.727406,1.313245 -1.955313,2.0807 -0.137498,0.463041 -0.162538,1.547452 -0.167178,7.019867 l -0.0057,6.472884 -5.547929,4.895553 c -5.262187,4.64359 -5.566871,4.930827 -5.882298,5.571555 -0.90499,1.838291 0.133349,3.935549 2.280593,4.606612 1.049785,0.328107 2.570269,0.111108 3.472681,-0.496094 0.251995,-0.169578 2.48348,-2.100483 4.95734,-4.290426 2.473855,-2.189939 4.530592,-3.994866 4.570274,-4.010571 0.03966,-0.01563 2.160067,1.824807 4.713831,4.088708 5.44738,4.829107 5.421362,4.810149 7.099822,4.810149 0.979953,0 1.13154,-0.02983 1.782681,-0.338016 0.814093,-0.385691 1.461758,-0.999216 1.819029,-1.724526 0.363106,-0.737234 0.346364,-1.906674 -0.03831,-2.640403 -0.353397,-0.67435 -0.606963,-0.912565 -6.521953,-6.133066 l -4.8843,-4.312218 -0.03632,-6.58555 c -0.02776,-5.081663 -0.06688,-6.672885 -0.174513,-6.963532 -0.223824,-0.604382 -0.675296,-1.193113 -1.244783,-1.624583 -0.764213,-0.579 -1.417093,-0.775947 -2.564081,-0.775947 z m 0.0108,15.300872 c 1.640919,-0.101661 3.196733,1.227593 3.005677,3.092883 -0.102302,0.998731 -0.726978,1.847292 -1.677281,2.276958 -1.903719,0.860739 -4.138219,-0.754808 -3.923354,-2.836655 0.07048,-0.682838 0.526352,-1.569632 0.986749,-1.92079 0.504443,-0.384758 1.061255,-0.578504 1.608223,-0.612396 z" />
  </g>
</svg>
