<?xml version="1.0" encoding="UTF-8" standalone="no"?>
<svg
   width="64"
   height="64"
   version="1.1"
   id="svg73"
   sodipodi:docname="New name 1.svg"
   inkscape:version="1.3.2 (091e20ef0f, 2023-11-25)"
   xmlns:inkscape="http://www.inkscape.org/namespaces/inkscape"
   xmlns:sodipodi="http://sodipodi.sourceforge.net/DTD/sodipodi-0.dtd"
   xmlns="http://www.w3.org/2000/svg"
   xmlns:svg="http://www.w3.org/2000/svg"
   xmlns:rdf="http://www.w3.org/1999/02/22-rdf-syntax-ns#"
   xmlns:cc="http://creativecommons.org/ns#"
   xmlns:dc="http://purl.org/dc/elements/1.1/">
  <metadata
     id="metadata77">
    <rdf:RDF>
      <cc:Work
         rdf:about="">
        <dc:format>image/svg+xml</dc:format>
        <dc:type
           rdf:resource="http://purl.org/dc/dcmitype/StillImage" />
      </cc:Work>
    </rdf:RDF>
  </metadata>
  <sodipodi:namedview
     pagecolor="#f5f7fa"
     bordercolor="#666666"
     borderopacity="1"
     objecttolerance="10"
     gridtolerance="10"
     guidetolerance="10"
     inkscape:pageopacity="0"
     inkscape:pageshadow="2"
     inkscape:window-width="1377"
     inkscape:window-height="886"
     id="namedview75"
     showgrid="false"
     inkscape:zoom="4.4470387"
     inkscape:cx="47.784608"
     inkscape:cy="14.054296"
     inkscape:window-x="181"
     inkscape:window-y="77"
     inkscape:window-maximized="0"
     inkscape:current-layer="g877"
     inkscape:document-rotation="0"
     inkscape:pagecheckerboard="0"
     inkscape:showpageshadow="2"
     inkscape:deskcolor="#d1d1d1" />
  <defs
     id="defs29">
    <linearGradient
       id="b"
       x1="399.57"
       x2="399.57"
       y1="545.8"
       y2="517.8"
       gradientTransform="matrix(2.1429,0,0,2.1429,-825.86391,-1107.6662)"
       gradientUnits="userSpaceOnUse">
      <stop
         stop-color="#3889e9"
         offset="0"
         id="stop2" />
      <stop
         stop-color="#5ea5fb"
         offset="1"
         id="stop4" />
    </linearGradient>
    <linearGradient
       id="d"
       x2="1"
       gradientTransform="matrix(14.905727,-4.7106182,4.7106182,14.905727,322.04962,998.26962)"
       gradientUnits="userSpaceOnUse">
      <stop
         stop-color="#fafafa"
         offset="0"
         id="stop7" />
      <stop
         stop-color="#aaa"
         offset="1"
         id="stop8" />
    </linearGradient>
    <linearGradient
       id="e"
       x2="1"
       gradientTransform="matrix(21.439909,0,0,21.439909,26.63554,1159.7788)"
       gradientUnits="userSpaceOnUse">
      <stop
         stop-color="#f0f0f0"
         offset="0"
         id="stop9" />
      <stop
         stop-color="#b7f1ff"
         offset="1"
         id="stop10" />
    </linearGradient>
  </defs>
  <circle
     cx="32.516094"
     cy="31.877844"
     r="0"
     fill="url(#b)"
     stroke-width="1.5715"
     id="circle41"
     style="fill:url(#b)" />
  <g
     aria-label="GZ"
     transform="matrix(1.2212657,0,0,0.81882264,0.4960938,-0.1661539)"
     id="text93"
     style="font-weight:bold;font-size:11.5263px;line-height:1.25;font-family:sans-serif;-inkscape-font-specification:'sans-serif Bold';fill:#f2f2f2;stroke-width:0.288159" />
  <g
     id="g877"
     transform="matrix(1.1,0,0,1.1,-3.1845928,-3.2065454)">
    <rect
       x="6.3010068"
       y="5.4939413"
       width="51.635597"
       height="53.148327"
       rx="10.980581"
       ry="10.720582"
       fill="url(#linearGradient862)"
       stroke-width="3.0541"
       id="rect35-7-3"
       style="fill:#414141;fill-opacity:1;stroke:#dfdfdf;stroke-width:2.27272727;stroke-dasharray:none;stroke-opacity:1" />
    <path
       id="path58"
       style="fill:#dfdfdf;fill-opacity:1;stroke:none;stroke-width:1.1979;stroke-dasharray:none;stroke-dashoffset:2.2;stroke-opacity:0.3"
       d="m 31.846526,12.0117 c -1.124231,0 -1.326067,0.04122 -2.154818,0.449214 -1.181054,0.581463 -2.224029,1.690798 -2.517461,2.678897 -0.17703,0.596164 -0.209266,1.992341 -0.215243,9.038063 l -0.0071,8.333828 -7.142947,6.303011 c -6.775055,5.97861 -7.167332,6.348426 -7.573447,7.173362 -1.165173,2.366797 0.171687,5.067012 2.936262,5.931008 1.351595,0.422438 3.309216,0.143053 4.471068,-0.638723 0.324445,-0.218331 3.197478,-2.704369 6.382567,-5.52391 3.185081,-2.819542 5.833128,-5.143377 5.884216,-5.163602 0.05107,-0.02058 2.781085,2.349429 6.069049,5.264207 7.013492,6.217461 6.979992,6.193049 9.141008,6.193049 1.261687,0 1.456848,-0.03796 2.295198,-0.435197 1.048141,-0.496584 1.882007,-1.286484 2.341998,-2.220318 0.467496,-0.949189 0.445943,-2.454838 -0.04911,-3.399514 -0.455,-0.868219 -0.781467,-1.174924 -8.397002,-7.896313 l -6.288829,-5.551968 -0.04677,-8.478885 c -0.03567,-6.542631 -0.08604,-8.591324 -0.224619,-8.965533 -0.288173,-0.778142 -0.869442,-1.536127 -1.602658,-2.091646 -0.98392,-0.745462 -1.824505,-0.99903 -3.301244,-0.99903 z m 0.01404,19.699841 c 2.112658,-0.130905 4.115762,1.580524 3.869778,3.982082 -0.131701,1.285863 -0.935984,2.378384 -2.159496,2.931577 -2.451033,1.108198 -5.327947,-0.971814 -5.051307,-3.65219 0.09074,-0.879151 0.677675,-2.020891 1.270432,-2.473008 0.649473,-0.495377 1.366367,-0.744826 2.070593,-0.788461 z" />
  </g>
</svg>
