<?xml version="1.0" encoding="UTF-8" standalone="no"?>
<svg
   width="64"
   height="64"
   version="1.1"
   id="svg73"
   sodipodi:docname="audacious.svg"
   inkscape:version="1.4.2 (ebf0e940d0, 2025-05-08)"
   xmlns:inkscape="http://www.inkscape.org/namespaces/inkscape"
   xmlns:sodipodi="http://sodipodi.sourceforge.net/DTD/sodipodi-0.dtd"
   xmlns="http://www.w3.org/2000/svg"
   xmlns:svg="http://www.w3.org/2000/svg"
   xmlns:rdf="http://www.w3.org/1999/02/22-rdf-syntax-ns#"
   xmlns:cc="http://creativecommons.org/ns#"
   xmlns:dc="http://purl.org/dc/elements/1.1/">
  <metadata
     id="metadata77">
    <rdf:RDF>
      <cc:Work
         rdf:about="">
        <dc:format>image/svg+xml</dc:format>
        <dc:type
           rdf:resource="http://purl.org/dc/dcmitype/StillImage" />
      </cc:Work>
    </rdf:RDF>
  </metadata>
  <sodipodi:namedview
     pagecolor="#f5f7fa"
     bordercolor="#666666"
     borderopacity="1"
     objecttolerance="10"
     gridtolerance="10"
     guidetolerance="10"
     inkscape:pageopacity="0"
     inkscape:pageshadow="2"
     inkscape:window-width="1377"
     inkscape:window-height="886"
     id="namedview75"
     showgrid="false"
     inkscape:zoom="6.2890624"
     inkscape:cx="47.622361"
     inkscape:cy="45.396274"
     inkscape:window-x="0"
     inkscape:window-y="53"
     inkscape:window-maximized="0"
     inkscape:current-layer="g877"
     inkscape:document-rotation="0"
     inkscape:pagecheckerboard="0"
     inkscape:showpageshadow="2"
     inkscape:deskcolor="#d1d1d1" />
  <defs
     id="defs29" />
  <circle
     cx="32.516094"
     cy="31.877844"
     r="0"
     fill="url(#b)"
     stroke-width="1.5715"
     id="circle41"
     style="fill:url(#b)" />
  <g
     aria-label="GZ"
     transform="matrix(1.2212657,0,0,0.81882264,0.4960938,-0.1661539)"
     id="text93"
     style="font-weight:bold;font-size:11.5263px;line-height:1.25;font-family:sans-serif;-inkscape-font-specification:'sans-serif Bold';fill:#f2f2f2;stroke-width:0.288159" />
  <g
     id="g877"
     transform="matrix(1.1,0,0,1.1,-3.1845928,-3.2065454)">
    <rect
       x="8.3496294"
       y="8.369586"
       width="47.272728"
       height="47.272728"
       rx="9.8825235"
       ry="9.6485243"
       fill="url(#linearGradient862)"
       stroke-width="3.0541"
       id="rect35-7-3"
       style="fill:#414141;fill-opacity:1;stroke:#dfdfdf;stroke-width:2.04545;stroke-dasharray:none;stroke-opacity:1" />
    <path
       id="path5-2"
       style="fill:#dfdfdf;fill-opacity:1;stroke:none;stroke-width:0.530734;stroke-dasharray:none;stroke-opacity:0.6"
       d="m 32.144648,16.253715 c -0.529533,3.27e-4 -1.057305,0.01682 -1.39925,0.0485 -3.695186,0.342176 -7.129478,1.970996 -9.812348,4.653871 -3.056575,3.056572 -4.703453,6.991466 -4.703453,11.240242 0,2.518576 0.539039,4.80586 1.65596,7.034794 2.218119,4.426495 6.404737,7.487544 11.384575,8.32387 0.38631,0.06492 0.892018,0.136671 1.123803,0.158661 0.705404,0.06702 2.334056,0.05656 3.044188,-0.01895 1.618364,-0.171618 2.83715,-0.478923 4.635144,-1.170086 1.835852,-0.705706 2.498294,-0.866203 3.581845,-0.865987 1.083003,2.1e-4 1.886619,0.184301 3.75042,0.859374 1.189919,0.430987 1.664636,0.578571 1.712152,0.531057 0.04495,-0.04495 -0.09184,-0.378595 -0.570712,-1.390431 -0.944672,-1.995812 -1.249756,-3.245803 -1.142543,-4.682518 0.06591,-0.882808 0.233797,-1.473267 0.933201,-3.277766 1.215262,-3.135313 1.405941,-3.970236 1.404754,-6.150987 -0.0018,-3.089042 -0.820078,-5.827785 -2.487791,-8.322728 -2.665586,-3.987764 -6.902556,-6.494744 -11.699683,-6.923516 -0.349485,-0.03126 -0.880734,-0.04769 -1.410262,-0.04738 z m -0.228071,4.45445 c 1.360548,-0.0122 2.83969,0.10164 3.884836,0.327221 1.443874,0.311651 2.617371,1.085364 2.896553,1.908265 0.08264,0.243563 0.06425,0.610369 -0.043,0.847261 -0.115427,0.254946 -0.461335,0.58998 -0.773447,0.749202 -0.195059,0.09949 -0.29293,0.117526 -0.651142,0.116786 -0.670061,-0.0017 -1.043893,-0.188681 -2.387502,-1.19431 -0.872065,-0.652699 -1.449137,-1.037564 -1.888431,-1.259321 -1.729042,-0.872818 -4.58366,-0.372045 -5.163991,0.905654 -0.125144,0.275547 -0.110357,0.440564 0.07713,0.815308 0.450446,0.900385 1.683889,1.851018 4.809222,3.709656 0.830697,0.49401 1.8318,1.098264 2.225572,1.341952 2.179051,1.348507 3.554132,2.59059 4.322237,3.905767 0.92289,1.580196 0.89699,4.063048 -0.06278,6.031089 -0.433143,0.888164 -1.102497,1.698089 -1.974363,2.387529 -1.382484,1.09322 -2.625745,1.632118 -4.381731,1.900552 -0.597232,0.09128 -1.938009,0.126994 -2.478986,0.06612 -1.697143,-0.191073 -3.238042,-0.874583 -4.33658,-1.924798 -1.168359,-1.116957 -1.749717,-2.307739 -1.895041,-3.880424 -0.103645,-1.121676 0.149095,-2.499995 0.63462,-3.462862 0.456115,-0.904547 1.406209,-1.900746 2.48008,-2.601278 0.932172,-0.608094 1.862677,-1.01386 3.227081,-1.406955 0.990181,-0.285283 1.291273,-0.402216 1.291273,-0.502408 0,-0.197717 -1.19327,-1.28933 -2.453641,-2.244303 -2.108607,-1.597677 -2.694098,-2.263459 -2.844765,-3.232591 -0.138749,-0.892462 0.248193,-1.744703 1.033457,-2.277356 0.58617,-0.397601 1.456756,-0.731604 2.252017,-0.863785 0.611542,-0.101651 1.385006,-0.154603 2.201335,-0.16196 z m 0.840654,10.205683 c -0.162998,-4.15e-4 -0.369108,0.03059 -0.669874,0.09144 -1.222584,0.247455 -2.370359,0.81199 -3.147755,1.550189 -1.116063,1.059794 -1.463344,2.03106 -1.41247,3.945431 0.02652,0.997036 0.121916,1.421969 0.502408,2.218968 0.635949,1.332062 1.607542,2.244763 2.823834,2.653053 0.200971,0.06742 0.484599,0.140427 0.631315,0.161977 v -0.0011 c 0.586903,0.08609 1.231311,0.02808 1.85097,-0.167455 1.460294,-0.460265 2.523008,-1.634073 2.96045,-3.270064 0.151854,-0.567877 0.205417,-1.531138 0.117893,-2.129721 -0.165422,-1.131283 -0.619517,-2.158373 -1.397054,-3.163192 -0.410995,-0.531134 -1.577104,-1.664375 -1.848767,-1.795883 -0.128036,-0.06198 -0.24796,-0.09324 -0.410959,-0.09367 z" />
  </g>
</svg>
