<?xml version="1.0" encoding="UTF-8" standalone="no"?>
<svg
   width="64"
   height="64"
   version="1.1"
   id="svg73"
   sodipodi:docname="Logo.svg"
   inkscape:version="1.3.2 (091e20ef0f, 2023-11-25)"
   xmlns:inkscape="http://www.inkscape.org/namespaces/inkscape"
   xmlns:sodipodi="http://sodipodi.sourceforge.net/DTD/sodipodi-0.dtd"
   xmlns="http://www.w3.org/2000/svg"
   xmlns:svg="http://www.w3.org/2000/svg"
   xmlns:rdf="http://www.w3.org/1999/02/22-rdf-syntax-ns#"
   xmlns:cc="http://creativecommons.org/ns#"
   xmlns:dc="http://purl.org/dc/elements/1.1/">
  <metadata
     id="metadata77">
    <rdf:RDF>
      <cc:Work
         rdf:about="">
        <dc:format>image/svg+xml</dc:format>
        <dc:type
           rdf:resource="http://purl.org/dc/dcmitype/StillImage" />
      </cc:Work>
    </rdf:RDF>
  </metadata>
  <sodipodi:namedview
     pagecolor="#f5f7fa"
     bordercolor="#666666"
     borderopacity="1"
     objecttolerance="10"
     gridtolerance="10"
     guidetolerance="10"
     inkscape:pageopacity="0"
     inkscape:pageshadow="2"
     inkscape:window-width="1377"
     inkscape:window-height="886"
     id="namedview75"
     showgrid="false"
     inkscape:zoom="6.2890624"
     inkscape:cx="28.939131"
     inkscape:cy="29.495653"
     inkscape:window-x="181"
     inkscape:window-y="77"
     inkscape:window-maximized="0"
     inkscape:current-layer="g877"
     inkscape:document-rotation="0"
     inkscape:pagecheckerboard="0"
     inkscape:showpageshadow="2"
     inkscape:deskcolor="#d1d1d1" />
  <defs
     id="defs29">
    <linearGradient
       id="b"
       x1="399.57"
       x2="399.57"
       y1="545.8"
       y2="517.8"
       gradientTransform="matrix(2.1429,0,0,2.1429,-825.86391,-1107.6662)"
       gradientUnits="userSpaceOnUse">
      <stop
         stop-color="#3889e9"
         offset="0"
         id="stop2" />
      <stop
         stop-color="#5ea5fb"
         offset="1"
         id="stop4" />
    </linearGradient>
    <linearGradient
       id="d"
       x2="1"
       gradientTransform="matrix(14.905727,-4.7106182,4.7106182,14.905727,322.04962,998.26962)"
       gradientUnits="userSpaceOnUse">
      <stop
         stop-color="#fafafa"
         offset="0"
         id="stop7" />
      <stop
         stop-color="#aaa"
         offset="1"
         id="stop8" />
    </linearGradient>
    <linearGradient
       id="e"
       x2="1"
       gradientTransform="matrix(21.439909,0,0,21.439909,26.63554,1159.7788)"
       gradientUnits="userSpaceOnUse">
      <stop
         stop-color="#f0f0f0"
         offset="0"
         id="stop9" />
      <stop
         stop-color="#b7f1ff"
         offset="1"
         id="stop10" />
    </linearGradient>
  </defs>
  <circle
     cx="32.516094"
     cy="31.877844"
     r="0"
     fill="url(#b)"
     stroke-width="1.5715"
     id="circle41"
     style="fill:url(#b)" />
  <g
     aria-label="GZ"
     transform="matrix(1.2212657,0,0,0.81882264,0.4960938,-0.1661539)"
     id="text93"
     style="font-weight:bold;font-size:11.5263px;line-height:1.25;font-family:sans-serif;-inkscape-font-specification:'sans-serif Bold';fill:#f2f2f2;stroke-width:0.288159" />
  <g
     id="g877"
     transform="matrix(1.1,0,0,1.1,-3.1845928,-3.2065454)">
    <rect
       x="6.3010068"
       y="5.4939413"
       width="51.635597"
       height="53.148327"
       rx="10.980581"
       ry="10.720582"
       fill="url(#linearGradient862)"
       stroke-width="3.0541"
       id="rect35-7-3"
       style="fill:#414141;fill-opacity:1;stroke:#dfdfdf;stroke-width:2.27272727;stroke-dasharray:none;stroke-opacity:1" />
    <path
       d="m 22.585407,26.575306 c 0.04204,0.04639 0.131902,0.05218 0.182632,0.08263 -0.03623,-0.02754 0.120305,0.06813 0.239162,0.09712 0.176832,0.04348 0.310184,0.105808 0.479769,0.09567 0.08699,0 0.171037,-0.04348 0.240611,-0.09567 0.03043,0 -0.03189,-0.07972 0,-0.09712 0.0551,-0.06668 0.09566,-0.05943 0.09566,-0.143496 v -0.191328 c -0.07249,-0.253655 -0.223217,-0.626165 -0.431941,-1.39148 -0.243506,-0.882722 -0.466724,-2.042289 -0.623266,-3.16417 -0.156538,-1.124779 -0.234812,-2.224919 0,-3.21345 0.230464,-0.965341 0.762416,-1.791533 1.726306,-2.158246 0.272498,-0.105806 0.653706,-0.334824 0.911709,-0.382656 0.258004,-0.04783 0.526155,-0.02754 0.766764,0 0.797203,0.05508 1.453808,0.413095 1.917636,0.959542 0.781258,0.916058 1.150869,2.272752 1.391479,3.691772 0.236263,1.413223 0.304387,2.927908 0.334825,4.075879 v 1.39148 0.09567 c 0,0.06377 -0.03043,0.136249 0,0.191329 0.03334,0.05943 0.136235,0.06233 0.192778,0.09566 0.04348,0.02754 0.04783,0.04204 0.09566,0.04783 0.08699,0.02899 0.173935,0.06813 0.334825,0.09566 0.547896,0.101461 1.419021,0.143496 2.349574,0.288442 1.862555,0.289892 4.300544,0.826192 6.809558,1.487145 2.511912,0.659504 5.029622,1.565416 7.050168,2.877177 2.011849,1.305962 3.523636,2.997482 3.835269,5.274581 0.198576,1.411772 -0.876922,2.829343 -2.349573,4.12371 -1.469751,1.291468 -3.393183,2.506114 -5.46591,3.643941 -2.072726,1.139273 -4.229521,2.16984 -5.94713,2.974289 -0.858081,0.4015 -1.621945,0.679796 -2.206077,0.958092 -2.965593,1.197254 -6.303697,2.264055 -9.830231,2.974289 -0.139147,0 -0.475423,0.08407 -0.623267,0.09566 -17.9588051,1.55525 -9.591079,-20.667854 -9.591079,-20.667854 0.0014,0 0.442085,-1.050859 0.623268,-1.678475 0.03623,-0.143496 0.09712,-0.526153 0.09712,-0.672548 -0.0261,-0.147849 -0.117407,-0.423241 -0.192779,-0.718933 -0.175385,-0.700088 -0.447883,-1.553818 -0.623267,-2.588732 -0.172486,-1.037813 -0.284094,-2.227819 -0.04783,-3.261285 0.236262,-1.017519 0.843585,-1.994455 1.919084,-2.590181 0.414545,-0.207272 0.891417,-0.291342 1.294369,-0.191328 0.415992,0.1029 0.847932,0.411645 1.198701,0.71893 0.700088,0.61602 1.333502,1.510336 1.869802,2.494519 0.534852,0.979835 1.01607,2.024894 1.39148,2.877178 0.18698,0.427588 0.29424,0.763865 0.430489,1.055205 0.06233,0.127551 0.105807,0.310184 0.144948,0.382656 0.01884,0.04204 0.01594,0.05943 0.0088,0.06088 z M 50.245434,14.859329 c -0.02464,0.0029 -0.05074,0.0043 -0.07682,0.0058 -1.598751,0.77836 -2.422047,2.658308 -3.527981,4.168646 -0.01594,0.07537 -0.04348,0.1464 -0.08117,0.213069 -1.392933,2.46843 -3.16707,4.916564 -3.354051,7.771999 0.01013,0.450784 0.2667,0.708786 0.533402,0.766765 0.252205,0.05218 0.713133,-0.110159 0.903012,-0.392804 0.01594,-0.0406 0.0029,-0.08117 0.0261,-0.117406 0.0058,-0.0087 0.01162,-0.0174 0.01884,-0.0261 2.524956,-3.471454 4.433895,-7.587918 6.00221,-11.586976 l 0.0043,-0.01305 c 0.107255,-0.262351 0.114507,-0.365264 0.0174,-0.56239 -0.02899,-0.05943 -0.311633,-0.247856 -0.465274,-0.229014 z m -27.660027,11.715977 -0.0088,-0.01305 c 0,0.0088 0.0043,0.0145 0.0088,0.01305 z M 41.708121,13.067797 c 0.02899,0.0029 0.05798,0.0029 0.08698,0.0029 0.107255,-0.0073 0.08117,-0.0029 0.111607,0.0174 0.02899,0.02029 0.100014,0.09422 0.215968,0.233362 0.166689,0.202925 0.221768,0.307287 0.253656,0.482672 v 0.03912 c 0.247858,3.791785 -0.415995,7.664739 -1.345097,11.353611 -0.06813,0.09422 -0.113058,0.204375 -0.131901,0.320331 -0.06813,0.426141 -0.217419,0.721831 -0.449333,0.88417 -0.21452,0.149302 -0.307285,0.176834 -0.368163,0.165239 -0.08263,-0.0174 -0.223216,-0.147848 -0.333375,-0.291341 -0.01594,-0.04783 -0.03478,-0.09421 -0.05943,-0.137698 -0.595729,-2.177088 0.146398,-4.484628 0.376858,-6.753031 0.0029,-0.03623 0.0029,-0.07104 0,-0.107255 0.466727,-2.052434 0.479771,-4.336781 1.494392,-6.092075 l 0.02319,-0.04204 c -0.01012,0.02029 0.02899,-0.02464 0.113058,-0.07681 z"
       fill="#eaeff9"
       fill-rule="nonzero"
       id="path2"
       style="fill:#dfdfdf;fill-opacity:1;stroke-width:1.44946" />
  </g>
</svg>
