<?xml version="1.0" encoding="UTF-8" standalone="no"?>
<svg
   width="64"
   height="64"
   version="1.1"
   id="svg73"
   sodipodi:docname="budgie-desktop-settings copy.svg"
   inkscape:version="1.3.2 (091e20ef0f, 2023-11-25)"
   xmlns:inkscape="http://www.inkscape.org/namespaces/inkscape"
   xmlns:sodipodi="http://sodipodi.sourceforge.net/DTD/sodipodi-0.dtd"
   xmlns="http://www.w3.org/2000/svg"
   xmlns:svg="http://www.w3.org/2000/svg"
   xmlns:rdf="http://www.w3.org/1999/02/22-rdf-syntax-ns#"
   xmlns:cc="http://creativecommons.org/ns#"
   xmlns:dc="http://purl.org/dc/elements/1.1/">
  <metadata
     id="metadata77">
    <rdf:RDF>
      <cc:Work
         rdf:about="">
        <dc:format>image/svg+xml</dc:format>
        <dc:type
           rdf:resource="http://purl.org/dc/dcmitype/StillImage" />
      </cc:Work>
    </rdf:RDF>
  </metadata>
  <sodipodi:namedview
     pagecolor="#f5f7fa"
     bordercolor="#666666"
     borderopacity="1"
     objecttolerance="10"
     gridtolerance="10"
     guidetolerance="10"
     inkscape:pageopacity="0"
     inkscape:pageshadow="2"
     inkscape:window-width="1377"
     inkscape:window-height="886"
     id="namedview75"
     showgrid="false"
     inkscape:zoom="6.2890624"
     inkscape:cx="47.622361"
     inkscape:cy="45.396274"
     inkscape:window-x="74"
     inkscape:window-y="53"
     inkscape:window-maximized="0"
     inkscape:current-layer="g877"
     inkscape:document-rotation="0"
     inkscape:pagecheckerboard="0"
     inkscape:showpageshadow="2"
     inkscape:deskcolor="#d1d1d1" />
  <defs
     id="defs29">
    <linearGradient
       id="b"
       x1="399.57"
       x2="399.57"
       y1="545.8"
       y2="517.8"
       gradientTransform="matrix(2.1429,0,0,2.1429,-825.86391,-1107.6662)"
       gradientUnits="userSpaceOnUse">
      <stop
         stop-color="#3889e9"
         offset="0"
         id="stop2" />
      <stop
         stop-color="#5ea5fb"
         offset="1"
         id="stop4" />
    </linearGradient>
  </defs>
  <circle
     cx="32.516094"
     cy="31.877844"
     r="0"
     fill="url(#b)"
     stroke-width="1.5715"
     id="circle41"
     style="fill:url(#b)" />
  <g
     aria-label="GZ"
     transform="matrix(1.2212657,0,0,0.81882264,0.4960938,-0.1661539)"
     id="text93"
     style="font-weight:bold;font-size:11.5263px;line-height:1.25;font-family:sans-serif;-inkscape-font-specification:'sans-serif Bold';fill:#f2f2f2;stroke-width:0.288159" />
  <g
     id="g877"
     transform="matrix(1.1,0,0,1.1,-3.1845928,-3.2065454)">
    <rect
       x="6.3010068"
       y="5.4939413"
       width="51.635597"
       height="53.148327"
       rx="10.980581"
       ry="10.720582"
       fill="url(#linearGradient862)"
       stroke-width="3.0541"
       id="rect35-7-3"
       style="fill:#414141;fill-opacity:1;stroke:#dfdfdf;stroke-width:2.27272727;stroke-dasharray:none;stroke-opacity:1" />
    <path
       id="path5-3"
       style="fill:#dfdfdf;fill-opacity:1;stroke:none;stroke-width:0.9801;stroke-dasharray:none;stroke-opacity:0.3"
       d="m 38.035659,17.690256 c -1.054393,-0.02041 -2.354069,0.05031 -3.109293,0.184413 -2.089637,0.37116 -3.763621,1.250649 -5.468903,2.873218 -0.929389,0.884302 -1.666409,1.740767 -3.248067,3.776692 -1.67043,2.150191 -2.111692,2.676191 -3.064244,3.65114 -1.494345,1.529487 -2.453118,1.941094 -4.347971,1.867023 -1.239904,-0.04846 -2.235629,-0.363751 -3.184383,-1.008 -0.446033,-0.302876 -1.178591,-1.025966 -1.513804,-1.493976 -0.318734,-0.445006 -0.895063,-1.603397 -0.895063,-1.799141 0,-0.316965 -0.0893,0.03883 -0.204847,0.815766 -0.379024,2.548626 -0.280734,5.219815 0.271523,7.382782 0.612581,2.399246 2.117734,4.877005 4.191788,6.898604 1.460287,1.42337 2.767475,2.339239 4.675356,3.276899 2.575646,1.265832 4.837281,1.857045 8.030354,2.099499 0.639442,0.04852 2.757638,-0.02827 3.579057,-0.129759 4.572357,-0.566055 8.758133,-2.541596 11.864101,-5.599255 1.111413,-1.094116 2.520581,-3.523561 3.197607,-5.512757 0.595683,-1.750181 0.827297,-3.146477 0.827188,-4.979924 -1.33e-4,-2.083212 -0.325704,-4.19509 -0.871043,-5.647907 -1.37866,-3.672759 -4.988667,-6.108681 -9.786236,-6.604249 -0.267622,-0.02761 -0.591654,-0.04441 -0.943117,-0.0511 z m 3.609095,5.781276 c 0.753404,0 1.265557,0.316444 1.567863,0.96775 0.419888,0.904661 0.01705,2.011029 -0.86563,2.38003 -0.527025,0.22021 -1.25116,0.151888 -1.688004,-0.15918 -0.544333,-0.387593 -0.788527,-0.916709 -0.739485,-1.602101 0.03617,-0.507312 0.140235,-0.750217 0.461345,-1.075878 0.375386,-0.380742 0.695888,-0.510611 1.263911,-0.510611 z m 0.869832,0.431914 c -0.467833,0 -0.702573,0.574541 -0.370646,0.90648 0.103521,0.103576 0.240266,0.164576 0.370646,0.164576 0.275106,0 0.535836,-0.260118 0.535836,-0.535239 0,-0.275117 -0.260721,-0.535835 -0.535836,-0.535835 z m 6.995315,3.088273 c -0.01289,0.01318 0.01746,0.355039 0.06847,0.759902 0.05089,0.404867 0.09371,0.86746 0.09492,1.027824 0.0015,0.206016 0.02703,0.281542 0.0859,0.257715 0.04602,-0.01834 0.519433,-0.292705 1.052449,-0.609124 0.533025,-0.316407 0.999965,-0.586524 1.037441,-0.600111 0.03742,-0.01355 0.05322,-0.03983 0.03493,-0.05827 -0.05243,-0.05238 -2.347751,-0.804497 -2.374113,-0.777922 z m -20.910257,2.219638 c 0.388515,-0.0078 0.781596,0.05373 1.179797,0.185016 1.63324,0.538483 2.791804,2.390392 2.400455,3.83616 -0.15987,0.590628 -0.485685,1.254018 -0.85782,1.74628 -0.562898,0.744598 -1.142551,1.102025 -2.127126,1.310157 -0.608786,0.128689 -2.590591,0.228841 -3.108696,0.157361 -0.110421,-0.015 -0.471904,-0.06028 -0.803159,-0.10032 -0.331251,-0.04004 -1.073865,-0.173032 -1.65016,-0.295556 -1.120234,-0.238066 -4.805625,-1.244819 -4.806916,-1.313139 -4.32e-4,-0.0228 0.15975,-0.05983 0.356223,-0.08287 0.616911,-0.07252 1.965664,-0.442528 2.709221,-0.743084 1.674123,-0.676709 2.705693,-1.485899 3.587468,-2.813746 0.417087,-0.628088 0.747702,-0.974563 1.209236,-1.26811 0.628437,-0.399704 1.263947,-0.605416 1.911477,-0.618135 z" />
  </g>
</svg>
