<?xml version="1.0" encoding="UTF-8" standalone="no"?>
<svg
   width="64"
   height="64"
   version="1.1"
   id="svg73"
   sodipodi:docname="accessories-character-map.svg"
   inkscape:version="1.3.2 (091e20ef0f, 2023-11-25)"
   xmlns:inkscape="http://www.inkscape.org/namespaces/inkscape"
   xmlns:sodipodi="http://sodipodi.sourceforge.net/DTD/sodipodi-0.dtd"
   xmlns="http://www.w3.org/2000/svg"
   xmlns:svg="http://www.w3.org/2000/svg"
   xmlns:rdf="http://www.w3.org/1999/02/22-rdf-syntax-ns#"
   xmlns:cc="http://creativecommons.org/ns#"
   xmlns:dc="http://purl.org/dc/elements/1.1/">
  <metadata
     id="metadata77">
    <rdf:RDF>
      <cc:Work
         rdf:about="">
        <dc:format>image/svg+xml</dc:format>
        <dc:type
           rdf:resource="http://purl.org/dc/dcmitype/StillImage" />
      </cc:Work>
    </rdf:RDF>
  </metadata>
  <sodipodi:namedview
     pagecolor="#f5f7fa"
     bordercolor="#666666"
     borderopacity="1"
     objecttolerance="10"
     gridtolerance="10"
     guidetolerance="10"
     inkscape:pageopacity="0"
     inkscape:pageshadow="2"
     inkscape:window-width="1377"
     inkscape:window-height="886"
     id="namedview75"
     showgrid="false"
     inkscape:zoom="4.4470387"
     inkscape:cx="47.784608"
     inkscape:cy="14.054296"
     inkscape:window-x="181"
     inkscape:window-y="77"
     inkscape:window-maximized="0"
     inkscape:current-layer="g877"
     inkscape:document-rotation="0"
     inkscape:pagecheckerboard="0"
     inkscape:showpageshadow="2"
     inkscape:deskcolor="#d1d1d1" />
  <defs
     id="defs29">
    <linearGradient
       id="b"
       x1="399.57"
       x2="399.57"
       y1="545.8"
       y2="517.8"
       gradientTransform="matrix(2.1429,0,0,2.1429,-825.86391,-1107.6662)"
       gradientUnits="userSpaceOnUse">
      <stop
         stop-color="#3889e9"
         offset="0"
         id="stop2" />
      <stop
         stop-color="#5ea5fb"
         offset="1"
         id="stop4" />
    </linearGradient>
  </defs>
  <circle
     cx="32.516094"
     cy="31.877844"
     r="0"
     fill="url(#b)"
     stroke-width="1.5715"
     id="circle41"
     style="fill:url(#b)" />
  <g
     aria-label="GZ"
     transform="matrix(1.2212657,0,0,0.81882264,0.4960938,-0.1661539)"
     id="text93"
     style="font-weight:bold;font-size:11.5263px;line-height:1.25;font-family:sans-serif;-inkscape-font-specification:'sans-serif Bold';fill:#f2f2f2;stroke-width:0.288159" />
  <g
     id="g877"
     transform="matrix(1.1,0,0,1.1,-3.1845928,-3.2065454)">
    <rect
       x="6.3010068"
       y="5.4939413"
       width="51.635597"
       height="53.148327"
       rx="10.980581"
       ry="10.720582"
       fill="url(#linearGradient862)"
       stroke-width="3.0541"
       id="rect35-7-3"
       style="fill:#414141;fill-opacity:1;stroke:#dfdfdf;stroke-width:2.27272727;stroke-dasharray:none;stroke-opacity:1" />
    <g
       id="g2"
       transform="matrix(1.21,0,0,1.21,-5.6237613,-6.080075)"
       style="fill:#dfdfdf;fill-opacity:1">
      <path
         d="m 21.787582,22.073338 c -0.135369,-0.0065 -0.266101,0.03407 -0.373828,0.141796 l -2.335351,2.335352 c -0.215457,0.215456 -0.215457,0.562278 0,0.777734 l 2.412694,3.789843 c -0.193104,0.389613 -0.360327,0.791525 -0.500586,1.203125 l -4.382812,0.973243 c -0.3047,0 -0.55,0.2453 -0.55,0.550001 v 3.299999 c 0,0.304699 0.252555,0.483901 0.55,0.55 l 4.384962,0.975391 c 0.135804,0.407575 0.297997,0.805876 0.485546,1.192382 l -2.416992,3.798439 c -0.163586,0.257064 -0.215456,0.562277 0,0.777733 l 2.333202,2.335352 c 0.215457,0.215456 0.562279,0.215456 0.777735,0 l 3.798438,-2.41914 c 0.392934,0.195736 0.798451,0.36512 1.213866,0.507031 l 0.973244,4.382812 c 0,0.304701 0.245299,0.55 0.549999,0.55 H 32.0077 c 0.304699,0 0.4839,-0.252556 0.549999,-0.55 L 33.53309,42.85947 c 0.413632,-0.137898 0.817702,-0.302971 1.20957,-0.494141 l 3.78125,2.408399 c 0.215457,0.215456 0.562279,0.215456 0.777734,0 l 2.335351,-2.335352 c 0.215457,-0.215456 0.163588,-0.520669 0,-0.777733 l -1.03125,-1.619923 -0.769138,0.307227 -2.46426,-3.695313 c -1.241876,2.761417 -3.98683,4.538702 -7.014648,4.541797 -4.252593,0 -7.7,-3.447408 -7.7,-7.7 0.0034,-2.97091 1.715757,-5.674801 4.400001,-6.948047 v -2.367578 c -0.370124,0.126676 -0.732412,0.275178 -1.084961,0.444727 l -3.78125,-2.408399 c -0.128534,-0.0818 -0.268539,-0.135313 -0.403907,-0.141796 z"
         fill="#fff"
         id="path12"
         style="fill:#dfdfdf;stroke-width:1.1;fill-opacity:1" />
      <path
         d="M 33.657699,16.994431 28.1577,17.503611 V 38.99443 l 5.499999,-1.099998 v -8.800001 l 6.600001,9.899999 5.499999,-2.199999 -7.15,-9.255468 7.154296,-9.444532 -5.759961,-1.1 -6.344335,9.35 z"
         fill="#fff"
         id="path13"
         style="fill:#dfdfdf;stroke-width:1.1;fill-opacity:1" />
    </g>
  </g>
</svg>
