<?xml version="1.0" encoding="UTF-8" standalone="no"?>
<svg
   width="64"
   height="64"
   version="1.1"
   id="svg73"
   sodipodi:docname="audacious.svg"
   inkscape:version="1.4.2 (ebf0e940d0, 2025-05-08)"
   xmlns:inkscape="http://www.inkscape.org/namespaces/inkscape"
   xmlns:sodipodi="http://sodipodi.sourceforge.net/DTD/sodipodi-0.dtd"
   xmlns="http://www.w3.org/2000/svg"
   xmlns:svg="http://www.w3.org/2000/svg"
   xmlns:rdf="http://www.w3.org/1999/02/22-rdf-syntax-ns#"
   xmlns:cc="http://creativecommons.org/ns#"
   xmlns:dc="http://purl.org/dc/elements/1.1/">
  <metadata
     id="metadata77">
    <rdf:RDF>
      <cc:Work
         rdf:about="">
        <dc:format>image/svg+xml</dc:format>
        <dc:type
           rdf:resource="http://purl.org/dc/dcmitype/StillImage" />
      </cc:Work>
    </rdf:RDF>
  </metadata>
  <sodipodi:namedview
     pagecolor="#f5f7fa"
     bordercolor="#666666"
     borderopacity="1"
     objecttolerance="10"
     gridtolerance="10"
     guidetolerance="10"
     inkscape:pageopacity="0"
     inkscape:pageshadow="2"
     inkscape:window-width="1377"
     inkscape:window-height="886"
     id="namedview75"
     showgrid="false"
     inkscape:zoom="6.2890624"
     inkscape:cx="46.986336"
     inkscape:cy="44.601243"
     inkscape:window-x="264"
     inkscape:window-y="75"
     inkscape:window-maximized="0"
     inkscape:current-layer="g877"
     inkscape:document-rotation="0"
     inkscape:pagecheckerboard="0"
     inkscape:showpageshadow="2"
     inkscape:deskcolor="#d1d1d1" />
  <defs
     id="defs29" />
  <circle
     cx="32.516094"
     cy="31.877844"
     r="0"
     fill="url(#b)"
     stroke-width="1.5715"
     id="circle41"
     style="fill:url(#b)" />
  <g
     aria-label="GZ"
     transform="matrix(1.2212657,0,0,0.81882264,0.4960938,-0.1661539)"
     id="text93"
     style="font-weight:bold;font-size:11.5263px;line-height:1.25;font-family:sans-serif;-inkscape-font-specification:'sans-serif Bold';fill:#f2f2f2;stroke-width:0.288159" />
  <g
     id="g877"
     transform="matrix(1.1,0,0,1.1,-3.1845928,-3.2065454)">
    <rect
       x="8.3496294"
       y="8.369586"
       width="47.272728"
       height="47.272728"
       rx="9.8825235"
       ry="9.6485243"
       fill="url(#linearGradient862)"
       stroke-width="3.0541"
       id="rect35-7-3"
       style="fill:#414141;fill-opacity:1;stroke:#dfdfdf;stroke-width:2.04545;stroke-dasharray:none;stroke-opacity:1" />
    <path
       d="m 35.684665,45.434972 v 1.159603 c 0,0.636069 -0.524757,1.1596 -1.160826,1.1596 h -4.640863 c -0.63607,0 -1.159603,-0.523531 -1.159603,-1.1596 v -1.159603 z m -3.48126,-20.883877 c -4.454932,0 -8.120895,3.665965 -8.120895,8.120898 0,2.760787 1.37978,5.18642 3.480036,6.659156 v 2.622567 c 0,0.636062 0.523533,1.159603 1.160827,1.159603 h 6.961292 c 0.63607,0 1.159607,-0.523541 1.159607,-1.159603 v -2.622567 c 2.100248,-1.472736 3.480031,-3.898369 3.480031,-6.659156 0,-4.454933 -3.665958,-8.120898 -8.120898,-8.120898 z m 14.353162,11.297577 -2.725319,-0.885604 c -0.648299,-0.209175 -1.341861,0.144335 -1.552252,0.791415 -0.210387,0.645857 0.144304,1.340643 0.79019,1.552255 l 2.726547,0.884385 c 0.12601,0.04163 0.253238,0.06111 0.380392,0.06111 0.518643,0 1.000577,-0.331529 1.171826,-0.851358 0.209136,-0.648301 -0.145556,-1.341864 -0.791416,-1.552256 z m -26.414022,-0.885604 -2.72776,0.884382 c -0.645854,0.209169 -1.000585,0.903951 -0.790193,1.552257 0.168807,0.51986 0.651972,0.851353 1.170614,0.851353 0.125989,0 0.254425,-0.01969 0.381638,-0.06117 l 2.72654,-0.88315 c 0.645857,-0.211613 1.000586,-0.905179 0.790194,-1.552256 -0.207945,-0.647079 -0.897835,-1.000585 -1.551033,-0.791416 z m 23.308287,-5.045745 c 0.126011,0 0.253239,-0.02079 0.380395,-0.06116 l 2.725334,-0.885603 c 0.645849,-0.210391 1.00059,-0.905178 0.791419,-1.552255 -0.211615,-0.645854 -0.908843,-0.999362 -1.552255,-0.790193 l -2.726539,0.885605 c -0.645857,0.210391 -1.000592,0.905175 -0.790192,1.551032 0.168824,0.521085 0.651974,0.852577 1.171831,0.852577 z M 20.904608,27.513713 18.17807,26.626884 c -0.651971,-0.21039 -1.341862,0.143118 -1.552254,0.790195 -0.210394,0.64708 0.143117,1.341861 0.788969,1.552254 l 2.726539,0.886828 c 0.127216,0.04035 0.254422,0.05994 0.381638,0.05994 0.519867,0 1.00181,-0.330268 1.170616,-0.851355 0.21039,-0.645851 -0.143113,-1.340636 -0.78897,-1.55103 z m 2.999313,-4.132007 c 0.240967,0.33271 0.616497,0.507632 0.998141,0.507632 0.250753,0 0.503963,-0.07584 0.722919,-0.234856 0.549221,-0.398765 0.671541,-1.169389 0.273998,-1.719835 L 24.214616,19.61544 c -0.401214,-0.549223 -1.16939,-0.673989 -1.72228,-0.272778 -0.549222,0.398767 -0.671542,1.169391 -0.271554,1.719836 z M 39.759186,19.61544 c 0.40121,-0.550445 1.166941,-0.675212 1.721058,-0.272775 0.549215,0.398764 0.672756,1.169391 0.272784,1.719835 l -1.684368,2.31921 c -0.240959,0.332706 -0.616496,0.50763 -0.998135,0.50763 -0.249586,0 -0.503965,-0.07583 -0.722924,-0.234856 -0.549212,-0.398767 -0.671533,-1.169391 -0.272784,-1.719837 z m -7.77351,1.971816 c 0.681327,0 1.232997,-0.552893 1.232997,-1.231775 v -2.86476 c 0,-0.681328 -0.55167,-1.232995 -1.232997,-1.232995 -0.680105,0 -1.231773,0.551667 -1.231773,1.232995 v 2.86476 c 0,0.678882 0.551668,1.231775 1.231773,1.231775 z"
       fill="url(#b)"
       fill-rule="nonzero"
       id="path4"
       style="fill:#dfdfdf;fill-opacity:1;stroke:none;stroke-width:0.520931;stroke-dasharray:none;stroke-opacity:0.6" />
  </g>
</svg>
