<?xml version="1.0" encoding="UTF-8" standalone="no"?>
<svg
   width="64"
   height="64"
   version="1.1"
   id="svg73"
   sodipodi:docname="audacious.svg"
   inkscape:version="1.4.2 (ebf0e940d0, 2025-05-08)"
   xmlns:inkscape="http://www.inkscape.org/namespaces/inkscape"
   xmlns:sodipodi="http://sodipodi.sourceforge.net/DTD/sodipodi-0.dtd"
   xmlns="http://www.w3.org/2000/svg"
   xmlns:svg="http://www.w3.org/2000/svg"
   xmlns:rdf="http://www.w3.org/1999/02/22-rdf-syntax-ns#"
   xmlns:cc="http://creativecommons.org/ns#"
   xmlns:dc="http://purl.org/dc/elements/1.1/">
  <metadata
     id="metadata77">
    <rdf:RDF>
      <cc:Work
         rdf:about="">
        <dc:format>image/svg+xml</dc:format>
        <dc:type
           rdf:resource="http://purl.org/dc/dcmitype/StillImage" />
      </cc:Work>
    </rdf:RDF>
  </metadata>
  <sodipodi:namedview
     pagecolor="#f5f7fa"
     bordercolor="#666666"
     borderopacity="1"
     objecttolerance="10"
     gridtolerance="10"
     guidetolerance="10"
     inkscape:pageopacity="0"
     inkscape:pageshadow="2"
     inkscape:window-width="1377"
     inkscape:window-height="886"
     id="namedview75"
     showgrid="false"
     inkscape:zoom="6.2890624"
     inkscape:cx="46.986336"
     inkscape:cy="44.601243"
     inkscape:window-x="264"
     inkscape:window-y="75"
     inkscape:window-maximized="0"
     inkscape:current-layer="g877"
     inkscape:document-rotation="0"
     inkscape:pagecheckerboard="0"
     inkscape:showpageshadow="2"
     inkscape:deskcolor="#d1d1d1" />
  <defs
     id="defs29" />
  <circle
     cx="32.516094"
     cy="31.877844"
     r="0"
     fill="url(#b)"
     stroke-width="1.5715"
     id="circle41"
     style="fill:url(#b)" />
  <g
     aria-label="GZ"
     transform="matrix(1.2212657,0,0,0.81882264,0.4960938,-0.1661539)"
     id="text93"
     style="font-weight:bold;font-size:11.5263px;line-height:1.25;font-family:sans-serif;-inkscape-font-specification:'sans-serif Bold';fill:#f2f2f2;stroke-width:0.288159" />
  <g
     id="g877"
     transform="matrix(1.1,0,0,1.1,-3.1845928,-3.2065454)">
    <rect
       x="8.3496294"
       y="8.369586"
       width="47.272728"
       height="47.272728"
       rx="9.8825235"
       ry="9.6485243"
       fill="url(#linearGradient862)"
       stroke-width="3.0541"
       id="rect35-7-3"
       style="fill:#414141;fill-opacity:1;stroke:#dfdfdf;stroke-width:2.04545;stroke-dasharray:none;stroke-opacity:1" />
    <path
       style="fill:#dfdfdf;fill-opacity:1;stroke:none;stroke-width:0.496125;stroke-dasharray:none;stroke-dashoffset:2.2;stroke-opacity:0.6"
       d="m 26.724956,47.564701 c -1.649474,-0.255635 -3.424869,-0.926164 -4.704311,-1.776737 -1.367568,-0.909154 -2.830071,-2.705691 -3.201752,-3.933035 -0.135814,-0.448483 0.251108,-0.990265 1.308223,-1.831839 0.553648,-0.440764 1.131987,-0.965736 1.285191,-1.1666 0.209639,-0.274849 0.425705,-0.961204 0.873313,-2.774146 0.889738,-3.60372 1.907753,-6.561287 3.544698,-10.298168 1.906064,-4.351241 3.193364,-6.310787 5.039755,-7.671598 1.416377,-1.043885 2.597949,-1.468453 4.579809,-1.645645 3.238446,-0.289543 4.616824,-0.02161 6.256164,1.216115 1.526069,1.152192 3.323589,4.630959 3.457902,6.692133 0.08932,1.371049 -0.207973,1.432032 -1.012899,0.207781 -0.541108,-0.822953 -1.029889,-1.291622 -1.347056,-1.291622 -0.610807,0 -1.573313,1.106336 -2.204834,2.534297 -0.44818,1.013427 -0.998207,2.684182 -1.256291,3.81613 -0.4344,1.905296 -0.303296,4.338337 0.455139,8.444009 0.400645,2.168916 0.365017,2.064095 0.75673,2.226343 0.537804,0.222769 1.472799,1.189043 1.597033,1.650464 0.296853,1.102322 -0.710838,2.331326 -2.715652,3.312234 -1.722555,0.842819 -3.769581,1.448819 -6.858415,2.030345 -1.678647,0.316049 -4.640615,0.447382 -5.852747,0.259556 z m 6.909332,-7.050795 1.164967,-0.984256 1.157615,0.387643 c 0.636688,0.213155 1.169051,0.376061 1.183023,0.361905 0.01364,-0.01432 -0.115612,-0.611018 -0.287919,-1.326355 -0.172359,-0.71533 -0.314428,-1.386267 -0.315786,-1.490963 -0.0013,-0.104674 0.291809,-0.708672 0.65144,-1.342164 0.35965,-0.633498 0.626438,-1.179271 0.592882,-1.212838 -0.03341,-0.03355 -0.632987,-0.08142 -1.332057,-0.106335 l -1.271028,-0.04531 -0.792531,-1.190377 c -0.435895,-0.654707 -0.822907,-1.160001 -0.860029,-1.122879 -0.03713,0.03713 -0.216696,0.68215 -0.39906,1.433391 l -0.33156,1.365893 -1.160317,0.50533 c -0.638175,0.27793 -1.196526,0.541541 -1.240781,0.585795 -0.04426,0.04426 0.399407,0.56213 0.985911,1.150847 l 1.066374,1.070387 -0.07806,1.473131 c -0.04292,0.810227 -0.03756,1.472747 0.01194,1.472281 0.04949,-4.68e-4 0.614247,-0.443771 1.254979,-0.985116 z m -4.575961,-2.56648 c 0.09112,-0.781755 0.188672,-1.43878 0.216772,-1.460054 0.02809,-0.02135 0.502126,-0.370177 1.053402,-0.775339 0.551276,-0.405159 0.978592,-0.775042 0.949598,-0.821962 -0.02901,-0.04691 -0.559758,-0.385393 -1.179463,-0.752167 L 28.971899,33.471045 28.66131,32.012116 c -0.170827,-0.802412 -0.343539,-1.458954 -0.38381,-1.458984 -0.04027,-3e-5 -0.430049,0.492301 -0.866177,1.094066 l -0.792959,1.094121 -0.813779,-0.0672 c -0.447577,-0.03696 -1.046602,-0.09509 -1.331165,-0.129186 l -0.517393,-0.06199 0.231166,0.579542 c 0.127143,0.318743 0.390178,0.987676 0.584524,1.486512 l 0.353358,0.906968 -0.526159,1.361671 c -0.289381,0.748919 -0.506054,1.381774 -0.481484,1.406352 0.02462,0.02455 0.679575,-0.09853 1.455567,-0.273466 l 1.410892,-0.318162 0.84599,0.89768 c 0.465296,0.493725 0.894764,0.88444 0.954373,0.868235 0.05961,-0.01603 0.182948,-0.669062 0.274078,-1.450815 z m 7.258626,-5.976518 v -1.508545 l 1.002556,-0.941086 c 0.551407,-0.517597 0.953781,-0.9621 0.894166,-0.987788 -0.0596,-0.02572 -0.641042,-0.27755 -1.292073,-0.559696 l -1.183698,-0.512999 -0.444825,-1.334152 c -0.244655,-0.733786 -0.491247,-1.33665 -0.547982,-1.339701 -0.05672,-0.0029 -0.377774,0.489522 -0.713417,1.094603 -0.335647,0.605085 -0.641599,1.131487 -0.679897,1.169786 -0.03831,0.03831 -0.612877,0.108893 -1.276841,0.156871 -0.663965,0.04799 -1.231197,0.111226 -1.260518,0.14055 -0.04816,0.04816 0.412691,0.987108 1.078636,2.19756 l 0.251101,0.456419 -0.367179,1.416342 c -0.201951,0.778987 -0.338974,1.44455 -0.304497,1.479021 0.03449,0.03449 0.640311,-0.162027 1.346309,-0.436672 0.705999,-0.274641 1.309099,-0.499348 1.340219,-0.499348 0.03115,0 0.492812,0.339099 1.025977,0.753553 0.533164,0.414454 1.005968,0.755862 1.050675,0.75869 0.04471,0.0028 0.08131,-0.673709 0.08129,-1.503408 z"
       id="path92" />
  </g>
</svg>
