<?xml version="1.0" encoding="UTF-8" standalone="no"?>
<svg
   width="64"
   height="64"
   version="1.1"
   id="svg73"
   sodipodi:docname="hwloc.svg"
   inkscape:version="1.3.2 (091e20ef0f, 2023-11-25)"
   xmlns:inkscape="http://www.inkscape.org/namespaces/inkscape"
   xmlns:sodipodi="http://sodipodi.sourceforge.net/DTD/sodipodi-0.dtd"
   xmlns="http://www.w3.org/2000/svg"
   xmlns:svg="http://www.w3.org/2000/svg"
   xmlns:rdf="http://www.w3.org/1999/02/22-rdf-syntax-ns#"
   xmlns:cc="http://creativecommons.org/ns#"
   xmlns:dc="http://purl.org/dc/elements/1.1/">
  <metadata
     id="metadata77">
    <rdf:RDF>
      <cc:Work
         rdf:about="">
        <dc:format>image/svg+xml</dc:format>
        <dc:type
           rdf:resource="http://purl.org/dc/dcmitype/StillImage" />
      </cc:Work>
    </rdf:RDF>
  </metadata>
  <sodipodi:namedview
     pagecolor="#f5f7fa"
     bordercolor="#666666"
     borderopacity="1"
     objecttolerance="10"
     gridtolerance="10"
     guidetolerance="10"
     inkscape:pageopacity="0"
     inkscape:pageshadow="2"
     inkscape:window-width="1377"
     inkscape:window-height="886"
     id="namedview75"
     showgrid="false"
     inkscape:zoom="4.4470387"
     inkscape:cx="47.784608"
     inkscape:cy="14.054296"
     inkscape:window-x="181"
     inkscape:window-y="77"
     inkscape:window-maximized="0"
     inkscape:current-layer="g877"
     inkscape:document-rotation="0"
     inkscape:pagecheckerboard="0"
     inkscape:showpageshadow="2"
     inkscape:deskcolor="#d1d1d1" />
  <defs
     id="defs29">
    <linearGradient
       id="b"
       x1="399.57"
       x2="399.57"
       y1="545.8"
       y2="517.8"
       gradientTransform="matrix(2.1429,0,0,2.1429,-825.86391,-1107.6662)"
       gradientUnits="userSpaceOnUse">
      <stop
         stop-color="#3889e9"
         offset="0"
         id="stop2" />
      <stop
         stop-color="#5ea5fb"
         offset="1"
         id="stop4" />
    </linearGradient>
    <linearGradient
       id="d"
       x2="1"
       gradientTransform="matrix(14.905727,-4.7106182,4.7106182,14.905727,322.04962,998.26962)"
       gradientUnits="userSpaceOnUse">
      <stop
         stop-color="#fafafa"
         offset="0"
         id="stop7" />
      <stop
         stop-color="#aaa"
         offset="1"
         id="stop8" />
    </linearGradient>
    <linearGradient
       id="e"
       x2="1"
       gradientTransform="matrix(21.439909,0,0,21.439909,26.63554,1159.7788)"
       gradientUnits="userSpaceOnUse">
      <stop
         stop-color="#f0f0f0"
         offset="0"
         id="stop9" />
      <stop
         stop-color="#b7f1ff"
         offset="1"
         id="stop10" />
    </linearGradient>
  </defs>
  <circle
     cx="32.516094"
     cy="31.877844"
     r="0"
     fill="url(#b)"
     stroke-width="1.5715"
     id="circle41"
     style="fill:url(#b)" />
  <g
     aria-label="GZ"
     transform="matrix(1.2212657,0,0,0.81882264,0.4960938,-0.1661539)"
     id="text93"
     style="font-weight:bold;font-size:11.5263px;line-height:1.25;font-family:sans-serif;-inkscape-font-specification:'sans-serif Bold';fill:#f2f2f2;stroke-width:0.288159" />
  <g
     id="g877"
     transform="matrix(1.1,0,0,1.1,-3.1845928,-3.2065454)">
    <rect
       x="6.3010068"
       y="5.4939413"
       width="51.635597"
       height="53.148327"
       rx="10.980581"
       ry="10.720582"
       fill="url(#linearGradient862)"
       stroke-width="3.0541"
       id="rect35-7-3"
       style="fill:#414141;fill-opacity:1;stroke:#dfdfdf;stroke-width:2.27272727;stroke-dasharray:none;stroke-opacity:1" />
    <g
       fill="#ffffff"
       fill-rule="nonzero"
       id="g4"
       transform="matrix(1.21,0,0,1.21,5.4490452,2.9660424)"
       style="fill:#dfdfdf;fill-opacity:1">
      <path
         d="m 28.748,5.789 c -0.429,0.006 -0.875,0.047 -1.407,0.152 -0.967,0.192 -1.976,0.777 -2.828,1.371 -2.894,2.015 -3.659,5.954 -1.714,8.8 1.627,2.38 4.669,3.213 7.322,2.302 0.56,-0.192 0.784,-0.212 1.218,-0.248 0.56,-0.047 1.462,0.022 2.269,0.42 0.657,0.324 1.219,0.607 1.584,1.36 0.095,0.196 0.262,0.544 0.298,0.984 0.057,0.701 -0.083,1.042 -0.547,1.932 0.738,-0.595 1.091,-0.693 2.186,-2.025 2.18,-2.651 2.294,-7.079 -0.081,-10.553 C 35.288,7.71 32.594,6.065 30.054,5.853 29.589,5.814 29.177,5.784 28.748,5.789 Z"
         id="path2"
         style="fill:#dfdfdf;fill-opacity:1" />
      <path
         d="m 13.379,13.758 c -2.993,0.066 -6.117,2.067 -7.672,5.346 -1.318,2.778 -1.382,5.903 -0.303,8.19 0.395,0.837 0.716,1.477 1.423,2.288 0.644,0.738 1.642,1.317 2.57,1.758 3.151,1.498 6.883,0.219 8.339,-2.85 v -0.002 c 1.217,-2.568 0.42,-5.593 -1.671,-7.425 -0.442,-0.387 -0.57,-0.57 -0.816,-0.925 -0.318,-0.458 -0.708,-1.267 -0.77,-2.156 -0.05,-0.725 -0.09,-1.347 0.37,-2.03 0.119,-0.178 0.335,-0.491 0.691,-0.738 0.568,-0.394 0.927,-0.442 1.914,-0.481 -0.872,-0.341 -1.129,-0.597 -2.806,-0.884 -0.417,-0.072 -0.841,-0.101 -1.269,-0.091 z"
         id="path3"
         style="fill:#dfdfdf;fill-opacity:1" />
      <path
         d="m 31.684,27.416 c -0.205,-0.005 -0.412,0.003 -0.621,0.02 v -0.003 c -2.796,0.224 -4.985,2.375 -5.519,5.037 -0.113,0.562 -0.206,0.76 -0.389,1.141 -0.235,0.492 -0.735,1.217 -1.465,1.703 -0.594,0.396 -1.107,0.732 -1.917,0.677 -0.211,-0.015 -0.585,-0.043 -0.972,-0.224 -0.617,-0.288 -0.834,-0.566 -1.354,-1.381 0.139,0.903 0.046,1.243 0.628,2.8 1.158,3.099 4.822,5.32 8.902,4.993 3.024,-0.241 5.727,-1.711 7.149,-3.739 0.521,-0.742 0.909,-1.326 1.253,-2.319 0.313,-0.904 0.316,-2.031 0.235,-3.03 -0.259,-3.182 -2.853,-5.605 -5.93,-5.675 z"
         id="path4"
         style="fill:#dfdfdf;fill-opacity:1" />
    </g>
  </g>
</svg>
