<?xml version="1.0" encoding="UTF-8" standalone="no"?>
<svg
   width="64"
   height="64"
   version="1.1"
   id="svg73"
   sodipodi:docname="printer-network.svg"
   inkscape:version="1.4.2 (ebf0e940d0, 2025-05-08)"
   xmlns:inkscape="http://www.inkscape.org/namespaces/inkscape"
   xmlns:sodipodi="http://sodipodi.sourceforge.net/DTD/sodipodi-0.dtd"
   xmlns="http://www.w3.org/2000/svg"
   xmlns:svg="http://www.w3.org/2000/svg"
   xmlns:rdf="http://www.w3.org/1999/02/22-rdf-syntax-ns#"
   xmlns:cc="http://creativecommons.org/ns#"
   xmlns:dc="http://purl.org/dc/elements/1.1/">
  <metadata
     id="metadata77">
    <rdf:RDF>
      <cc:Work
         rdf:about="">
        <dc:format>image/svg+xml</dc:format>
        <dc:type
           rdf:resource="http://purl.org/dc/dcmitype/StillImage" />
      </cc:Work>
    </rdf:RDF>
  </metadata>
  <sodipodi:namedview
     pagecolor="#f5f7fa"
     bordercolor="#666666"
     borderopacity="1"
     objecttolerance="10"
     gridtolerance="10"
     guidetolerance="10"
     inkscape:pageopacity="0"
     inkscape:pageshadow="2"
     inkscape:window-width="1377"
     inkscape:window-height="886"
     id="namedview75"
     showgrid="false"
     inkscape:zoom="6.2890624"
     inkscape:cx="47.622361"
     inkscape:cy="45.396274"
     inkscape:window-x="147"
     inkscape:window-y="75"
     inkscape:window-maximized="0"
     inkscape:current-layer="g877"
     inkscape:document-rotation="0"
     inkscape:pagecheckerboard="0"
     inkscape:showpageshadow="2"
     inkscape:deskcolor="#d1d1d1" />
  <defs
     id="defs29">
    <linearGradient
       id="b"
       x1="399.57"
       x2="399.57"
       y1="545.8"
       y2="517.8"
       gradientTransform="matrix(2.1429,0,0,2.1429,-825.86391,-1107.6662)"
       gradientUnits="userSpaceOnUse">
      <stop
         stop-color="#3889e9"
         offset="0"
         id="stop2" />
      <stop
         stop-color="#5ea5fb"
         offset="1"
         id="stop4" />
    </linearGradient>
  </defs>
  <circle
     cx="32.516094"
     cy="31.877844"
     r="0"
     fill="url(#b)"
     stroke-width="1.5715"
     id="circle41"
     style="fill:url(#b)" />
  <g
     aria-label="GZ"
     transform="matrix(1.2212657,0,0,0.81882264,0.4960938,-0.1661539)"
     id="text93"
     style="font-weight:bold;font-size:11.5263px;line-height:1.25;font-family:sans-serif;-inkscape-font-specification:'sans-serif Bold';fill:#f2f2f2;stroke-width:0.288159" />
  <g
     id="g877"
     transform="matrix(1.1,0,0,1.1,-3.1845928,-3.2065454)">
    <rect
       x="8.3496294"
       y="8.369586"
       width="47.272728"
       height="47.272728"
       rx="9.8825235"
       ry="9.6485243"
       fill="url(#linearGradient862)"
       stroke-width="3.0541"
       id="rect35-7-3"
       style="fill:#414141;fill-opacity:1;stroke:#dfdfdf;stroke-width:2.04545;stroke-dasharray:none;stroke-opacity:1" />
    <path
       style="color:#444444;fill:#dfdfdf;fill-opacity:1;stroke:none;stroke-width:0.482482;stroke-dasharray:none;stroke-opacity:0.6"
       class="ColorScheme-Text"
       d="m 23.196653,17.723277 v 4.394668 h 17.578675 v -4.394668 z m -4.394671,6.592003 c -1.098669,0 -2.197334,1.098667 -2.197334,2.197334 v 8.789344 c 0,1.09866 1.098665,2.197333 2.197334,2.197333 H 20.99932 V 33.10462 h 21.973342 v 4.394671 h 2.197345 c 1.098667,0 2.197332,-1.098673 2.197332,-2.197333 v -8.789344 c 0,-1.098667 -1.098665,-2.197334 -2.197332,-2.197334 z m 4.394671,10.986678 V 46.288624 H 40.775328 V 35.301958 Z"
       id="path5" />
    <rect
       x="37.737823"
       y="37.757782"
       width="22.610399"
       height="22.610399"
       rx="4.7267799"
       ry="4.6148596"
       fill="url(#linearGradient862)"
       stroke-width="3.0541"
       id="rect35-7-3-1"
       style="fill:#414141;fill-opacity:1;stroke:#dfdfdf;stroke-width:0.978336;stroke-dasharray:none;stroke-opacity:1" />
    <path
       style="fill:#dfdfdf;fill-rule:evenodd;stroke:none;stroke-width:0.454545;stroke-dasharray:none;stroke-opacity:0.6;fill-opacity:1"
       d="m 49.223858,44.935065 v 0.0015 c -1.496125,0.01374 -3.001849,0.335044 -4.305073,1.030333 -0.519421,0.318483 -1.142993,0.729711 -1.612897,1.144165 -0.739363,0.681482 -1.372243,1.475951 -1.799809,2.366676 1.172082,2.434013 3.748135,4.218466 6.582723,4.482055 1.859365,0.19812 3.805654,-0.105107 5.440126,-0.97121 0.519403,-0.318483 1.142986,-0.729714 1.61289,-1.144168 0.739369,-0.682964 1.37225,-1.477436 1.799815,-2.366708 -1.171559,-2.433871 -3.748757,-4.217575 -6.582723,-4.480577 -0.376627,-0.04216 -0.756886,-0.06209 -1.135052,-0.06209 z m 0.0031,1.513727 c 1.651377,-0.03587 3.113667,1.413534 3.082592,3.0245 0.05305,1.780481 -1.755409,3.317071 -3.543741,2.98458 -1.806086,-0.207982 -3.07517,-2.195671 -2.48114,-3.878927 0.379791,-1.238369 1.620373,-2.143189 2.943911,-2.128675 z m -0.0031,1.513724 a 1.5435546,1.5128559 0 0 0 -1.543559,1.515208 1.5435546,1.5128559 0 0 0 1.543559,1.512246 1.5435546,1.5128559 0 0 0 1.543555,-1.512246 1.5435546,1.5128559 0 0 0 -1.543555,-1.510769 z"
       id="path24" />
  </g>
</svg>
