<?xml version="1.0" encoding="UTF-8" standalone="no"?>
<svg
   width="64"
   height="64"
   version="1.1"
   id="svg73"
   sodipodi:docname="Logo.svg"
   inkscape:version="1.3.2 (091e20ef0f, 2023-11-25)"
   xmlns:inkscape="http://www.inkscape.org/namespaces/inkscape"
   xmlns:sodipodi="http://sodipodi.sourceforge.net/DTD/sodipodi-0.dtd"
   xmlns="http://www.w3.org/2000/svg"
   xmlns:svg="http://www.w3.org/2000/svg"
   xmlns:rdf="http://www.w3.org/1999/02/22-rdf-syntax-ns#"
   xmlns:cc="http://creativecommons.org/ns#"
   xmlns:dc="http://purl.org/dc/elements/1.1/">
  <metadata
     id="metadata77">
    <rdf:RDF>
      <cc:Work
         rdf:about="">
        <dc:format>image/svg+xml</dc:format>
        <dc:type
           rdf:resource="http://purl.org/dc/dcmitype/StillImage" />
      </cc:Work>
    </rdf:RDF>
  </metadata>
  <sodipodi:namedview
     pagecolor="#f5f7fa"
     bordercolor="#666666"
     borderopacity="1"
     objecttolerance="10"
     gridtolerance="10"
     guidetolerance="10"
     inkscape:pageopacity="0"
     inkscape:pageshadow="2"
     inkscape:window-width="1377"
     inkscape:window-height="886"
     id="namedview75"
     showgrid="false"
     inkscape:zoom="6.2890624"
     inkscape:cx="4.2931678"
     inkscape:cy="12.004969"
     inkscape:window-x="181"
     inkscape:window-y="77"
     inkscape:window-maximized="0"
     inkscape:current-layer="g877"
     inkscape:document-rotation="0"
     inkscape:pagecheckerboard="0"
     inkscape:showpageshadow="2"
     inkscape:deskcolor="#d1d1d1" />
  <defs
     id="defs29">
    <linearGradient
       id="b"
       x1="399.57"
       x2="399.57"
       y1="545.8"
       y2="517.8"
       gradientTransform="matrix(2.1429,0,0,2.1429,-825.86391,-1107.6662)"
       gradientUnits="userSpaceOnUse">
      <stop
         stop-color="#3889e9"
         offset="0"
         id="stop2" />
      <stop
         stop-color="#5ea5fb"
         offset="1"
         id="stop4" />
    </linearGradient>
    <linearGradient
       id="d"
       x2="1"
       gradientTransform="matrix(14.905727,-4.7106182,4.7106182,14.905727,322.04962,998.26962)"
       gradientUnits="userSpaceOnUse">
      <stop
         stop-color="#fafafa"
         offset="0"
         id="stop7" />
      <stop
         stop-color="#aaa"
         offset="1"
         id="stop8" />
    </linearGradient>
    <linearGradient
       id="e"
       x2="1"
       gradientTransform="matrix(21.439909,0,0,21.439909,26.63554,1159.7788)"
       gradientUnits="userSpaceOnUse">
      <stop
         stop-color="#f0f0f0"
         offset="0"
         id="stop9" />
      <stop
         stop-color="#b7f1ff"
         offset="1"
         id="stop10" />
    </linearGradient>
  </defs>
  <circle
     cx="32.516094"
     cy="31.877844"
     r="0"
     fill="url(#b)"
     stroke-width="1.5715"
     id="circle41"
     style="fill:url(#b)" />
  <g
     aria-label="GZ"
     transform="matrix(1.2212657,0,0,0.81882264,0.4960938,-0.1661539)"
     id="text93"
     style="font-weight:bold;font-size:11.5263px;line-height:1.25;font-family:sans-serif;-inkscape-font-specification:'sans-serif Bold';fill:#f2f2f2;stroke-width:0.288159" />
  <g
     id="g877"
     transform="matrix(1.1,0,0,1.1,-3.1845928,-3.2065454)">
    <rect
       x="6.3010068"
       y="5.4939413"
       width="51.635597"
       height="53.148327"
       rx="10.980581"
       ry="10.720582"
       fill="url(#linearGradient862)"
       stroke-width="3.0541"
       id="rect35-7-3"
       style="fill:#414141;fill-opacity:1;stroke:#dfdfdf;stroke-width:2.27272727;stroke-dasharray:none;stroke-opacity:1" />
    <path
       id="path5"
       style="fill:#dfdfdf;stroke-width:0.208421;fill-opacity:1"
       d="m 32.087406,14.318343 c -15.907053,0 -17.283235,0.0081 -17.51621,0.113873 -0.372463,0.169146 -0.795168,0.579369 -0.97754,0.949609 l -0.158985,0.324415 -0.01934,17.056446 c -0.01283,11.912643 0.004,17.16403 0.05587,17.415235 0.131236,0.634892 0.67765,1.216382 1.304102,1.385741 0.258633,0.0699 3.827738,0.08554 17.451759,0.07521 15.76073,-0.01198 17.143854,-0.02323 17.376562,-0.128907 0.372465,-0.169145 0.795166,-0.579366 0.977539,-0.94961 l 0.158984,-0.324414 V 32.971078 15.706234 L 50.581157,15.38182 C 50.398782,15.011579 49.976081,14.601357 49.603616,14.432211 49.37064,14.326414 47.994463,14.318343 32.087406,14.318343 Z m -14.310743,5.452734 h 2.77793 2.780078 v 0.522071 0.519923 h 0.554298 0.556445 v 0.556445 0.554295 h 0.519923 0.522069 v 3.336524 3.334375 h -0.522069 -0.519923 v 0.554298 0.556444 h -0.556445 -0.554298 v 0.556445 0.556447 h -2.780078 -2.77793 v -0.590822 -0.59082 h 0.554298 0.556445 V 25.260335 20.88182 h -0.556445 -0.554298 v -0.554297 z m 10.976368,0 h 2.77793 2.780078 v 0.522071 0.519923 h 0.554297 0.556446 v 4.447264 4.445117 h -0.556446 -0.554297 v 0.556445 0.556447 h -2.780078 -2.77793 v -0.556447 -0.556445 h -0.556445 -0.556445 v -4.445117 -4.447264 h 0.556445 0.556445 v -0.519923 z m 9.934375,0 h 2.77793 2.780077 v 0.522071 0.519923 h 0.519923 0.522071 v 1.147265 1.145117 H 44.176664 43.063773 V 21.994711 20.88182 h -1.632812 -1.632813 v 1.078516 1.076367 h 0.556445 0.556445 v 0.556445 0.554298 h 1.110743 1.112892 v 0.556445 0.556444 h 0.554295 0.556445 v 0.554298 0.556445 h 0.519923 0.522071 v 1.667187 1.667187 h -0.522071 -0.519923 v 0.556445 0.556447 h -2.780077 -2.77793 V 30.261897 29.705452 H 38.130962 37.576663 V 28.560335 27.41307 h 1.110743 1.110742 v 1.110742 1.11289 h 1.632813 1.632812 V 28.00389 26.371078 h -0.554296 -0.556446 v -0.52207 -0.519922 H 40.84014 39.729398 v -0.556445 -0.554298 h -0.519923 -0.522069 v -0.556445 -0.556445 h -0.556444 -0.554299 v -1.145117 -1.147265 h 0.554299 0.556444 V 20.293148 Z M 21.111039,20.88182 v 4.378515 4.376367 h 0.519922 0.522071 v -0.556445 -0.556445 h 0.556443 0.554299 V 25.260335 21.994711 H 22.709475 22.153032 V 21.438266 20.88182 h -0.522071 z m 8.823634,0 v 4.378515 4.376367 h 1.596288 1.598438 V 25.260335 20.88182 h -1.598438 z m -12.15801,14.241991 h 3.334376 3.334375 v 0.556447 0.556445 h 0.519923 0.522069 v 1.667188 1.667186 h -0.522069 -0.519923 v 0.52207 0.519923 h 0.519923 0.522069 v 2.258007 2.258009 h -0.522069 -0.519923 v 0.519921 0.522071 h -3.334375 -3.334376 v -0.556446 -0.554296 h 0.554298 0.556445 v -4.378515 -4.376368 h -0.556445 -0.554298 v -0.59082 z m 10.976368,0 h 2.77793 2.780078 v 0.556447 0.556445 h 0.554297 0.556446 v 4.445118 4.447265 h -0.556446 -0.554297 v 0.519921 0.522071 h -2.780078 -2.77793 v -0.522071 -0.519921 h -0.556445 -0.556445 v -4.447265 -4.445118 h 0.556445 0.556445 v -0.556445 z m 8.823632,0 h 1.110743 1.110742 v 1.112892 1.110743 h 0.556445 0.556445 v 0.556445 0.556444 h 0.519923 0.52207 v -0.556444 -0.556445 h 0.556446 0.554296 v -1.110743 -1.112892 h 1.112891 1.110743 v 1.147267 1.147265 h -0.522071 -0.519923 v 1.076367 1.076367 h -0.556445 -0.554295 v 1.076369 1.076366 h 0.554295 0.556445 v 1.11289 1.110743 h 0.519923 0.522071 v 1.112891 1.110742 h -1.110743 -1.112891 v -1.076367 -1.076367 h -0.554296 -0.556446 v -0.556447 -0.556445 h -0.52207 -0.519923 v 0.556445 0.556447 h -0.556445 -0.556445 v 1.076367 1.076367 h -1.110742 -1.110743 v -1.110742 -1.112891 h 0.554299 0.556444 v -1.110743 -1.11289 h 0.522069 0.519923 V 40.647446 39.571077 H 39.209475 38.687406 V 38.49471 37.418343 h -0.556444 -0.554299 v -1.147265 z m -16.465624,1.181642 v 1.632813 1.632811 h 1.076368 1.076367 v -1.632811 -1.632813 h -1.076367 z m 8.823634,0 v 4.376368 4.378515 h 1.596288 1.598438 v -4.378515 -4.376368 h -1.598438 z m -8.823634,4.376368 v 2.189256 2.189259 h 1.076368 1.076367 v -2.189259 -2.189256 h -1.076367 z" />
  </g>
</svg>
