<?xml version="1.0" encoding="UTF-8" standalone="no"?>
<svg
   width="64"
   height="64"
   version="1.1"
   id="svg73"
   sodipodi:docname="audacious.svg"
   inkscape:version="1.4.2 (ebf0e940d0, 2025-05-08)"
   xmlns:inkscape="http://www.inkscape.org/namespaces/inkscape"
   xmlns:sodipodi="http://sodipodi.sourceforge.net/DTD/sodipodi-0.dtd"
   xmlns="http://www.w3.org/2000/svg"
   xmlns:svg="http://www.w3.org/2000/svg"
   xmlns:rdf="http://www.w3.org/1999/02/22-rdf-syntax-ns#"
   xmlns:cc="http://creativecommons.org/ns#"
   xmlns:dc="http://purl.org/dc/elements/1.1/">
  <metadata
     id="metadata77">
    <rdf:RDF>
      <cc:Work
         rdf:about="">
        <dc:format>image/svg+xml</dc:format>
        <dc:type
           rdf:resource="http://purl.org/dc/dcmitype/StillImage" />
      </cc:Work>
    </rdf:RDF>
  </metadata>
  <sodipodi:namedview
     pagecolor="#f5f7fa"
     bordercolor="#666666"
     borderopacity="1"
     objecttolerance="10"
     gridtolerance="10"
     guidetolerance="10"
     inkscape:pageopacity="0"
     inkscape:pageshadow="2"
     inkscape:window-width="1377"
     inkscape:window-height="886"
     id="namedview75"
     showgrid="false"
     inkscape:zoom="6.2890624"
     inkscape:cx="46.986336"
     inkscape:cy="44.601243"
     inkscape:window-x="264"
     inkscape:window-y="75"
     inkscape:window-maximized="0"
     inkscape:current-layer="g877"
     inkscape:document-rotation="0"
     inkscape:pagecheckerboard="0"
     inkscape:showpageshadow="2"
     inkscape:deskcolor="#d1d1d1" />
  <defs
     id="defs29" />
  <circle
     cx="32.516094"
     cy="31.877844"
     r="0"
     fill="url(#b)"
     stroke-width="1.5715"
     id="circle41"
     style="fill:url(#b)" />
  <g
     aria-label="GZ"
     transform="matrix(1.2212657,0,0,0.81882264,0.4960938,-0.1661539)"
     id="text93"
     style="font-weight:bold;font-size:11.5263px;line-height:1.25;font-family:sans-serif;-inkscape-font-specification:'sans-serif Bold';fill:#f2f2f2;stroke-width:0.288159" />
  <g
     id="g877"
     transform="matrix(1.1,0,0,1.1,-3.1845928,-3.2065454)">
    <rect
       x="8.3496294"
       y="8.369586"
       width="47.272728"
       height="47.272728"
       rx="9.8825235"
       ry="9.6485243"
       fill="url(#linearGradient862)"
       stroke-width="3.0541"
       id="rect35-7-3"
       style="fill:#414141;fill-opacity:1;stroke:#dfdfdf;stroke-width:2.04545;stroke-dasharray:none;stroke-opacity:1" />
    <path
       style="fill:#dfdfdf;fill-opacity:1;stroke:none;stroke-width:0.383594;stroke-dasharray:none;stroke-opacity:0.6"
       d="m 32.868148,46.87035 c 0.132089,-0.01971 0.240159,-0.06179 0.240159,-0.0943 0,-0.03261 -0.307586,-0.208776 -0.683525,-0.391628 -1.228458,-0.597508 -1.85158,-1.162708 -2.24452,-2.035895 -0.158621,-0.352479 -0.236592,-0.829205 -0.135636,-0.829205 0.02192,0 0.163263,0.06182 0.314055,0.137445 0.319104,0.159915 0.807072,0.241802 0.999197,0.167744 0.121868,-0.04701 0.113841,-0.07687 -0.08951,-0.332753 -0.38228,-0.481019 -0.524677,-0.983642 -0.524677,-1.851933 0,-0.76002 0.0024,-0.770476 0.333415,-1.431641 0.709748,-1.417791 2.079034,-2.514537 3.656887,-2.92903 0.609123,-0.160005 2.328303,-0.22893 3.214411,-0.128803 0.365785,0.04136 0.678773,0.06153 0.695528,0.04492 0.202384,-0.200705 -1.437089,-1.897241 -2.579866,-2.669717 -0.40602,-0.274457 -2.294772,-1.224304 -2.682479,-1.349016 -0.154512,-0.04971 -0.269704,-0.128782 -0.255988,-0.175738 0.05182,-0.177328 1.004584,-0.570201 1.830071,-0.754623 0.467384,-0.104423 0.876434,-0.216065 0.909003,-0.248104 0.10163,-0.09997 -0.817188,-0.605536 -1.720873,-0.946852 -0.562364,-0.212404 -2.561442,-0.684641 -2.905181,-0.686289 -0.268178,-0.0015 -0.483063,-0.109191 -0.39442,-0.19806 0.03262,-0.03269 0.660507,-0.07053 1.395333,-0.08406 1.001158,-0.01848 1.522903,0.0064 2.081512,0.09933 1.334714,0.221925 2.747838,0.754218 3.779301,1.423577 0.466904,0.302997 1.436786,1.167884 1.436786,1.28125 0,0.03599 -0.110275,0.06544 -0.24508,0.06544 -0.487252,0 -1.753394,0.290192 -1.918359,0.439677 -0.03157,0.0286 0.334193,0.194838 0.812837,0.369371 1.702312,0.620739 2.989228,1.379437 4.380254,2.58238 l 0.775891,0.67098 0.04961,-1.178779 c 0.07884,-1.872719 0.204805,-2.283051 0.903131,-2.943554 0.630902,-0.596676 1.054475,-0.758306 2.216071,-0.845625 0.533089,-0.04008 1.002508,-0.104759 1.043146,-0.143757 0.110129,-0.105597 -0.50567,-0.620229 -1.699527,-1.420391 -0.986003,-0.660856 -1.359249,-0.884054 -2.881881,-1.723364 -0.867335,-0.478095 -1.020212,-0.688479 -0.983849,-1.35393 0.0503,-0.92075 0.654752,-1.836673 1.659483,-2.514656 0.29903,-0.201752 0.543618,-0.395467 0.543618,-0.430464 0,-0.123976 -0.420161,-0.167604 -1.549669,-0.160898 -1.227693,0.0071 -1.469346,0.03193 -2.020523,0.205752 -0.19567,0.06174 -0.373266,0.09474 -0.394632,0.07338 -0.02116,-0.02137 0.07976,-0.301567 0.224783,-0.622672 0.300113,-0.664728 0.444874,-1.280184 0.573853,-2.440099 0.05874,-0.528474 0.06599,-0.892512 0.02088,-1.049525 l -0.06924,-0.240386 -0.492987,0.622173 c -0.627451,0.792045 -1.719983,1.835855 -2.428927,2.320748 -0.303048,0.207269 -1.179093,0.717549 -1.946775,1.133953 -2.210149,1.198834 -3.052391,1.778806 -4.321945,2.976123 -0.520731,0.491104 -0.792583,0.702246 -0.80759,0.627234 -0.03215,-0.160762 0.500897,-1.190585 0.888229,-1.715984 0.424852,-0.576295 1.471954,-1.672214 2.046562,-2.141976 0.564008,-0.461093 0.71073,-0.76207 0.824693,-1.691706 0.174359,-1.422325 -0.02297,-2.909309 -0.5962,-4.492318 -0.298712,-0.824923 -0.416173,-0.935655 -0.48023,-0.452712 -0.205512,1.549319 -0.496329,2.274344 -1.392177,3.470781 -0.540189,0.721439 -1.316622,1.488808 -4.374041,4.32299 -1.81635,1.683725 -3.239733,3.227925 -4.050312,4.394107 -0.229455,0.330112 -0.472881,0.646012 -0.540942,0.701995 -0.112731,0.0927 -0.11927,0.07915 -0.07341,-0.15224 0.07887,-0.397982 0.730684,-1.693869 1.106111,-2.199056 0.574652,-0.773274 1.334002,-1.597693 3.490815,-3.78995 2.054459,-2.088218 2.442071,-2.537615 2.607603,-3.023279 0.116954,-0.343119 0.105509,-1.342441 -0.02229,-1.945457 -0.19902,-0.939092 -0.557152,-1.481749 -0.557152,-0.844208 0,0.364103 -0.421692,1.633845 -0.776483,2.338026 -0.174266,0.345911 -0.530379,0.878322 -0.791348,1.183137 -0.482517,0.563585 -2.284672,2.308487 -4.999048,4.840237 -1.66352,1.551596 -2.26542,2.271229 -2.786109,3.331069 -0.425324,0.865728 -0.545978,1.453312 -0.547578,2.666674 -7.07e-4,0.535183 -0.02143,1.025658 -0.04613,1.089944 -0.02519,0.06569 -0.130429,0.117009 -0.240157,0.117163 -0.493873,6.99e-4 -1.041732,0.625725 -1.102461,1.257748 -0.02651,0.275807 -0.06529,0.367479 -0.155235,0.366945 -0.256475,-0.0016 -1.09517,-0.732644 -1.481479,-1.291458 -0.211966,-0.30661 -0.416292,-0.538376 -0.454067,-0.515028 -0.03776,0.02334 -0.06827,0.431206 -0.06771,0.90635 0.0026,2.388538 0.915589,4.25543 2.733124,5.589253 l 0.480317,0.352478 0.03945,-0.728496 c 0.04687,-0.865488 0.204098,-1.272607 0.663724,-1.718664 0.665248,-0.645603 1.771035,-0.982088 3.161673,-0.962086 0.418701,0.0062 0.778618,-0.0064 0.799812,-0.02755 0.02116,-0.02116 -0.01379,-0.139734 -0.07776,-0.263376 -0.14322,-0.276977 -0.15038,-0.820433 -0.01505,-1.144293 0.227445,-0.54435 0.981865,-0.976135 2.115606,-1.210844 0.830309,-0.171894 3.205267,-0.16891 3.830001,0.0048 0.603913,0.167928 1.268722,0.462547 1.268722,0.562246 0,0.04763 -0.211717,0.07797 -0.544125,0.07797 -0.650229,0 -1.123914,0.08275 -1.693668,0.29594 -0.493686,0.184716 -0.52364,0.28652 -0.19987,0.679312 0.284559,0.345227 0.57354,0.968546 0.633068,1.365501 0.03647,0.243137 0.0059,0.39854 -0.143034,0.723535 -0.215944,0.471678 -0.477003,0.630443 -1.036682,0.630443 -0.565855,0 -0.587441,0.03227 -0.328913,0.490249 0.196767,0.34865 0.2229,0.457374 0.193929,0.806711 -0.05754,0.693958 -0.514955,1.036652 -1.299591,0.973672 l -0.474953,-0.03817 0.05014,0.269234 c 0.136705,0.734122 0.131744,0.854091 -0.04628,1.119053 -0.278373,0.414347 -0.646461,0.555176 -1.42802,0.546377 -0.508984,-0.0062 -0.790769,-0.05163 -1.200788,-0.195612 -0.396871,-0.139358 -0.535731,-0.162934 -0.535731,-0.09087 0,0.182939 0.725221,1.180572 1.194187,1.642821 0.638926,0.629761 1.077478,0.934791 1.946331,1.35373 1.377605,0.664256 3.273868,1.086853 5.098718,1.136297 0.568988,0.01566 1.142594,0.01277 1.27468,-0.0071 z M 23.485793,33.126949 c -0.07344,-0.04518 0.173297,-0.649652 0.470867,-1.153507 0.667646,-1.130471 1.974445,-2.285276 2.778244,-2.455107 l 0.240155,-0.05075 v 0.413757 c 0,0.689873 -0.579369,1.841601 -1.343323,2.670394 -0.36964,0.401014 -0.644653,0.559142 -1.095196,0.629734 -0.31393,0.04917 -0.934549,0.01699 -1.050747,-0.05455 z"
       id="path2-65" />
  </g>
</svg>
