<?xml version="1.0" encoding="UTF-8" standalone="no"?>
<svg
   width="64"
   height="64"
   version="1.1"
   id="svg73"
   sodipodi:docname="Logo.svg"
   inkscape:version="1.3.2 (091e20ef0f, 2023-11-25)"
   xmlns:inkscape="http://www.inkscape.org/namespaces/inkscape"
   xmlns:sodipodi="http://sodipodi.sourceforge.net/DTD/sodipodi-0.dtd"
   xmlns="http://www.w3.org/2000/svg"
   xmlns:svg="http://www.w3.org/2000/svg"
   xmlns:rdf="http://www.w3.org/1999/02/22-rdf-syntax-ns#"
   xmlns:cc="http://creativecommons.org/ns#"
   xmlns:dc="http://purl.org/dc/elements/1.1/">
  <metadata
     id="metadata77">
    <rdf:RDF>
      <cc:Work
         rdf:about="">
        <dc:format>image/svg+xml</dc:format>
        <dc:type
           rdf:resource="http://purl.org/dc/dcmitype/StillImage" />
      </cc:Work>
    </rdf:RDF>
  </metadata>
  <sodipodi:namedview
     pagecolor="#f5f7fa"
     bordercolor="#666666"
     borderopacity="1"
     objecttolerance="10"
     gridtolerance="10"
     guidetolerance="10"
     inkscape:pageopacity="0"
     inkscape:pageshadow="2"
     inkscape:window-width="1377"
     inkscape:window-height="886"
     id="namedview75"
     showgrid="false"
     inkscape:zoom="6.2890624"
     inkscape:cx="27.667081"
     inkscape:cy="34.265839"
     inkscape:window-x="181"
     inkscape:window-y="77"
     inkscape:window-maximized="0"
     inkscape:current-layer="g877"
     inkscape:document-rotation="0"
     inkscape:pagecheckerboard="0"
     inkscape:showpageshadow="2"
     inkscape:deskcolor="#d1d1d1" />
  <defs
     id="defs29">
    <linearGradient
       id="b"
       x1="399.57"
       x2="399.57"
       y1="545.8"
       y2="517.8"
       gradientTransform="matrix(2.1429,0,0,2.1429,-825.86391,-1107.6662)"
       gradientUnits="userSpaceOnUse">
      <stop
         stop-color="#3889e9"
         offset="0"
         id="stop2" />
      <stop
         stop-color="#5ea5fb"
         offset="1"
         id="stop4" />
    </linearGradient>
    <linearGradient
       id="d"
       x2="1"
       gradientTransform="matrix(14.905727,-4.7106182,4.7106182,14.905727,322.04962,998.26962)"
       gradientUnits="userSpaceOnUse">
      <stop
         stop-color="#fafafa"
         offset="0"
         id="stop7" />
      <stop
         stop-color="#aaa"
         offset="1"
         id="stop8" />
    </linearGradient>
    <linearGradient
       id="e"
       x2="1"
       gradientTransform="matrix(21.439909,0,0,21.439909,26.63554,1159.7788)"
       gradientUnits="userSpaceOnUse">
      <stop
         stop-color="#f0f0f0"
         offset="0"
         id="stop9" />
      <stop
         stop-color="#b7f1ff"
         offset="1"
         id="stop10" />
    </linearGradient>
    <linearGradient
       id="a"
       x1="23.932795"
       x2="8.7911654"
       y1="46.115501"
       y2="7.6056881"
       gradientUnits="userSpaceOnUse">
      <stop
         stop-color="#333"
         offset="0"
         id="stop1" />
      <stop
         stop-color="#4d4d4d"
         offset="1"
         id="stop2-3" />
    </linearGradient>
  </defs>
  <circle
     cx="32.516094"
     cy="31.877844"
     r="0"
     fill="url(#b)"
     stroke-width="1.5715"
     id="circle41"
     style="fill:url(#b)" />
  <g
     aria-label="GZ"
     transform="matrix(1.2212657,0,0,0.81882264,0.4960938,-0.1661539)"
     id="text93"
     style="font-weight:bold;font-size:11.5263px;line-height:1.25;font-family:sans-serif;-inkscape-font-specification:'sans-serif Bold';fill:#f2f2f2;stroke-width:0.288159" />
  <g
     id="g877"
     transform="matrix(1.1,0,0,1.1,-3.1845928,-3.2065454)">
    <rect
       x="6.3010068"
       y="5.4939413"
       width="51.635597"
       height="53.148327"
       rx="10.980581"
       ry="10.720582"
       fill="url(#linearGradient862)"
       stroke-width="3.0541"
       id="rect35-7-3"
       style="fill:#414141;fill-opacity:1;stroke:#dfdfdf;stroke-width:2.27272727;stroke-dasharray:none;stroke-opacity:1" />
    <path
       style="fill:#dfdfdf;stroke-width:0.584586;fill-opacity:1"
       d="m 18.175066,53.035442 c 0.483925,-3.623912 3.060975,-7.694167 9.208672,-14.544394 5.954282,-6.634709 7.994751,-9.934406 8.374512,-13.542649 0.253092,-2.404726 -0.833498,-5.458897 -2.668082,-7.499395 -0.459532,-0.511111 -0.784417,-0.980388 -0.721964,-1.04284 0.182849,-0.18285 3.630532,1.560972 5.359178,2.710647 6.210632,4.130518 9.448864,10.198725 9.849698,18.457604 l 0.126864,2.614002 -0.545435,-0.359861 c -1.837197,-1.212126 -3.44757,-1.478147 -5.20604,-0.859999 -0.608482,0.213898 -1.134058,0.361177 -1.167947,0.327287 -0.03389,-0.03389 0.116813,-0.854865 0.334889,-1.824389 0.524466,-2.331667 0.5592,-5.871328 0.07603,-7.748925 -0.288475,-1.121024 -1.46899,-3.834877 -1.668156,-3.834877 -0.03632,0 0.08749,0.553781 0.27518,1.230626 1.214436,4.379633 0.683388,9.824079 -1.367047,14.015351 -0.599744,1.225934 -2.405931,4.021946 -2.598123,4.021946 -0.06591,0 -0.172458,-0.329041 -0.236763,-0.731204 -0.438707,-2.743527 -4.995699,-2.367477 -9.736289,0.803451 -2.687627,1.797724 -5.823215,5.183843 -7.489605,8.088012 l -0.308912,0.538367 z m -0.07053,-5.323015 c -0.707403,-4.062196 0.510654,-7.166697 4.856481,-12.377881 0.94382,-1.131757 1.968284,-2.43655 2.276589,-2.899541 0.560044,-0.841037 0.560452,-0.841242 0.448412,-0.225097 -0.17638,0.970012 -1.129272,2.99956 -2.726949,5.808092 -2.73966,4.816008 -3.994121,7.731444 -4.244933,9.865456 -0.06551,0.557404 -0.183062,1.013466 -0.261219,1.013466 -0.07816,0 -0.234931,-0.533022 -0.348381,-1.184495 z m 4.09628,-5.257031 c 0,-0.04468 0.968485,-2.036545 2.152189,-4.426361 2.406887,-4.859337 3.27276,-7.23575 3.27276,-8.982183 0,-1.045768 -0.052,-1.190872 -0.63603,-1.774902 -0.349815,-0.349816 -0.770715,-0.63603 -0.935335,-0.63603 -0.238601,0 -0.299307,-0.211688 -0.299307,-1.043733 v -1.043734 l 0.607968,0.125503 c 1.779163,0.367273 2.797239,1.818772 2.805791,4.000291 0.0061,1.533448 0.281022,0.837655 0.308937,-0.781631 0.03409,-1.977177 -0.865724,-3.31309 -2.564104,-3.806821 -0.557786,-0.162154 -1.265962,-0.241977 -1.595268,-0.179816 l -0.592195,0.111792 -0.0041,1.823512 c -0.0034,1.469217 -0.08328,1.996586 -0.41136,2.714292 -0.223951,0.489928 -0.516705,0.920487 -0.65056,0.956796 -2.46806,0.669468 -3.28414,0.949357 -3.898056,1.336907 -0.855421,0.540002 -1.125585,1.244926 -0.670037,1.748302 0.485392,0.536353 0.36231,0.721168 -0.640504,0.961739 -0.923343,0.221506 -2.650073,0.133722 -3.123363,-0.158787 -0.371052,-0.229323 0.548793,-1.39482 1.498437,-1.898605 0.584409,-0.310029 0.900312,-0.627696 1.05808,-1.063988 0.123703,-0.3421 0.448055,-0.887185 0.720778,-1.211301 0.433658,-0.51537 0.445941,-0.562581 0.09791,-0.37632 -0.218878,0.11714 -0.678972,0.539317 -1.02243,0.938168 -0.34346,0.398853 -0.966503,0.898631 -1.384538,1.110616 -0.903752,0.458291 -2.03331,1.576243 -2.339505,2.315468 -0.120721,0.291452 -0.287427,0.529913 -0.370455,0.529913 -0.28711,0 -0.595974,-1.995162 -0.525354,-3.393629 0.05749,-1.138329 0.190806,-1.640108 0.704886,-2.652925 0.689427,-1.358284 0.952152,-1.551772 0.952152,-0.70123 0,0.56102 0.414586,1.140444 0.808398,1.129816 0.680253,-0.01836 1.146006,-0.810254 1.429686,-2.430829 0.336699,-1.923463 0.566578,-2.447824 1.512396,-3.449833 0.539662,-0.571724 0.967586,-1.236279 1.089835,-1.692487 0.318637,-1.189076 1.114164,-2.271632 3.365864,-4.580272 1.988631,-2.038919 3.193424,-3.78738 3.210871,-4.659792 0.0048,-0.243486 0.0558,-0.231571 0.280601,0.06561 0.36606,0.483975 0.347979,1.780642 -0.03858,2.766468 -0.172273,0.439352 -0.767811,1.550583 -1.323418,2.469402 -1.303478,2.155599 -2.00832,3.551634 -1.696533,3.3602 0.135613,-0.08326 0.611808,-0.39741 1.058211,-0.698103 0.850161,-0.572665 3.124651,-1.606449 3.55357,-1.61514 0.137352,-0.0027 -0.09515,0.386759 -0.516701,0.865653 -0.421537,0.478891 -0.739635,0.897511 -0.706882,0.930264 0.03276,0.03277 0.390579,-0.03185 0.795167,-0.143561 0.997616,-0.275454 3.559913,-0.09848 4.48123,0.309512 l 0.748269,0.331359 -0.561202,0.172386 c -0.308662,0.09482 -0.767538,0.257048 -1.019727,0.360527 -0.453604,0.186121 -0.450515,0.191728 0.28784,0.522296 1.753905,0.78525 2.872931,2.889017 2.629593,4.943633 -0.261738,2.209969 -2.585607,5.927386 -6.214992,9.941924 -2.790829,3.08699 -4.269066,4.820223 -4.928439,5.778587 -0.536075,0.779158 -0.762372,1.011002 -0.762372,0.78106 z M 14.429523,29.641922 c 0.05918,-0.09579 0.02208,-0.227017 -0.0825,-0.291639 -0.104566,-0.06462 -0.190118,0.01374 -0.190118,0.174138 0,0.328591 0.112252,0.376971 0.27261,0.117503 z m 5.246384,-4.851782 c 0.06118,-0.243745 0.05651,-0.496374 -0.01034,-0.561399 -0.119294,-0.116003 -1.578732,1.445432 -1.579723,1.690138 -0.0013,0.325652 1.490911,-0.733629 1.590076,-1.128739 z m 29.191567,10.786308 c -0.04316,-0.133046 -0.169992,-0.704894 -0.281945,-1.270772 -0.40412,-2.042546 -1.321215,-4.626257 -2.421481,-6.821952 -0.617029,-1.231343 -1.094441,-2.266233 -1.060922,-2.299753 0.06934,-0.06934 1.806368,1.917037 2.660107,3.042021 1.164338,1.534271 2.968001,5.137546 3.347579,6.687654 0.122227,0.499159 0.102773,0.514434 -0.65488,0.514434 -0.429474,0 -0.944921,0.08781 -1.14545,0.195134 -0.270972,0.145018 -0.384747,0.133007 -0.443008,-0.04676 z M 15.965229,26.51121 c -0.228173,-0.228174 -0.128822,-1.026545 0.196223,-1.576797 0.435883,-0.737894 0.609526,-0.682617 0.496989,0.158202 -0.202873,1.515764 -0.331933,1.779872 -0.693212,1.418595 z m 4.811048,-9.588375 c 0.06525,-0.352179 0.500907,-1.27816 0.968116,-2.057739 0.46721,-0.779579 0.897827,-1.648911 0.956925,-1.931851 0.225224,-1.07826 0.614768,-0.339728 0.619333,1.174189 0.0024,0.804281 -0.06441,0.912346 -1.33023,2.151273 -1.330196,1.301918 -1.332555,1.30321 -1.214144,0.664128 z"
       id="path1" />
  </g>
</svg>
