<?xml version="1.0" encoding="UTF-8" standalone="no"?>
<svg
   width="64"
   height="64"
   version="1.1"
   id="svg73"
   sodipodi:docname="audacious.svg"
   inkscape:version="1.4.2 (ebf0e940d0, 2025-05-08)"
   xmlns:inkscape="http://www.inkscape.org/namespaces/inkscape"
   xmlns:sodipodi="http://sodipodi.sourceforge.net/DTD/sodipodi-0.dtd"
   xmlns="http://www.w3.org/2000/svg"
   xmlns:svg="http://www.w3.org/2000/svg"
   xmlns:rdf="http://www.w3.org/1999/02/22-rdf-syntax-ns#"
   xmlns:cc="http://creativecommons.org/ns#"
   xmlns:dc="http://purl.org/dc/elements/1.1/">
  <metadata
     id="metadata77">
    <rdf:RDF>
      <cc:Work
         rdf:about="">
        <dc:format>image/svg+xml</dc:format>
        <dc:type
           rdf:resource="http://purl.org/dc/dcmitype/StillImage" />
      </cc:Work>
    </rdf:RDF>
  </metadata>
  <sodipodi:namedview
     pagecolor="#f5f7fa"
     bordercolor="#666666"
     borderopacity="1"
     objecttolerance="10"
     gridtolerance="10"
     guidetolerance="10"
     inkscape:pageopacity="0"
     inkscape:pageshadow="2"
     inkscape:window-width="1377"
     inkscape:window-height="886"
     id="namedview75"
     showgrid="false"
     inkscape:zoom="6.2890624"
     inkscape:cx="47.622361"
     inkscape:cy="45.396274"
     inkscape:window-x="0"
     inkscape:window-y="75"
     inkscape:window-maximized="0"
     inkscape:current-layer="g877"
     inkscape:document-rotation="0"
     inkscape:pagecheckerboard="0"
     inkscape:showpageshadow="2"
     inkscape:deskcolor="#d1d1d1" />
  <defs
     id="defs29" />
  <circle
     cx="32.516094"
     cy="31.877844"
     r="0"
     fill="url(#b)"
     stroke-width="1.5715"
     id="circle41"
     style="fill:url(#b)" />
  <g
     aria-label="GZ"
     transform="matrix(1.2212657,0,0,0.81882264,0.4960938,-0.1661539)"
     id="text93"
     style="font-weight:bold;font-size:11.5263px;line-height:1.25;font-family:sans-serif;-inkscape-font-specification:'sans-serif Bold';fill:#f2f2f2;stroke-width:0.288159" />
  <g
     id="g877"
     transform="matrix(1.1,0,0,1.1,-3.1845928,-3.2065454)">
    <rect
       x="8.3496294"
       y="8.369586"
       width="47.272728"
       height="47.272728"
       rx="9.8825235"
       ry="9.6485243"
       fill="url(#linearGradient862)"
       stroke-width="3.0541"
       id="rect35-7-3"
       style="fill:#414141;fill-opacity:1;stroke:#dfdfdf;stroke-width:2.04545;stroke-dasharray:none;stroke-opacity:1" />
    <path
       style="fill:#dfdfdf;fill-opacity:1;stroke:none;stroke-width:0.505461;stroke-dasharray:none;stroke-opacity:0.6"
       d="m 18.048374,46.211994 c -0.743076,-0.23901 -1.299512,-0.823849 -1.489528,-1.565542 -0.06952,-0.271369 -0.07809,-0.751076 -0.0655,-3.664112 0.01439,-3.339437 0.01487,-3.352911 0.128651,-3.631869 0.23037,-0.564925 0.721061,-1.055579 1.285789,-1.285705 0.272958,-0.111225 0.340653,-0.114733 2.694439,-0.139635 l 2.414439,-0.02551 2.283163,-3.888861 c 1.255736,-2.138885 2.276355,-3.895677 2.268041,-3.903993 -0.0085,-0.0085 -0.127194,-0.06317 -0.264164,-0.12187 -0.581777,-0.249386 -1.016835,-0.710478 -1.23346,-1.307282 l -0.119017,-0.327874 v -3.425999 c 0,-3.231188 0.0059,-3.441957 0.09655,-3.706639 0.242632,-0.70522 0.790137,-1.234497 1.486394,-1.436902 0.253134,-0.07361 0.746666,-0.08091 4.606523,-0.06857 l 4.323013,0.01386 0.344382,0.168411 c 0.668044,0.326691 1.143865,0.966108 1.257425,1.689727 0.03093,0.198115 0.05173,1.55661 0.05142,3.385377 -5.26e-4,3.261083 -0.01418,3.473758 -0.255622,3.952692 -0.2515,0.499073 -0.797161,0.97689 -1.281277,1.121936 -0.1363,0.04082 -0.188366,0.08131 -0.169116,0.131461 0.01527,0.03987 1.041404,1.799857 2.280247,3.911122 l 2.252436,3.838656 2.290852,7.23e-4 c 2.477955,8.02e-4 2.575077,0.0096 3.072737,0.280485 0.324422,0.176564 0.719612,0.571015 0.895042,0.893326 0.268865,0.493951 0.281268,0.671485 0.281268,4.018289 0,3.36101 -0.01122,3.522776 -0.288518,4.031573 -0.272535,0.500727 -0.717753,0.867163 -1.286353,1.058712 -0.306819,0.103351 -0.382674,0.104832 -4.626597,0.09099 l -4.314639,-0.01417 -0.38292,-0.189252 c -0.47425,-0.23453 -0.851434,-0.617995 -1.077782,-1.095839 l -0.162983,-0.344054 -0.01411,-3.431211 c -0.01599,-3.892902 -0.02921,-3.745239 0.384131,-4.289562 0.476883,-0.627977 1.150525,-0.949488 2.088729,-0.996896 0.371755,-0.01879 0.519822,-0.04426 0.509077,-0.08762 -0.0084,-0.03362 -1.020021,-1.7719 -2.248211,-3.862857 l -2.233073,-3.801741 -1.783468,0.01338 -1.78347,0.01337 -2.257295,3.843546 -2.257293,3.843548 0.452206,0.03579 c 1.255114,0.09941 1.986441,0.50921 2.30048,1.289076 l 0.122484,0.304152 v 3.512656 3.512646 l -0.116757,0.307526 c -0.220607,0.580968 -0.70206,1.072169 -1.283208,1.309169 l -0.279994,0.114189 -4.301716,0.01102 c -4.058975,0.01029 -4.3182,0.0048 -4.593829,-0.08338 z"
       id="path2-2" />
  </g>
</svg>
