<?xml version="1.0" encoding="UTF-8" standalone="no"?>
<svg
   width="64"
   height="64"
   version="1.1"
   id="svg73"
   sodipodi:docname="audacious.svg"
   inkscape:version="1.4.2 (ebf0e940d0, 2025-05-08)"
   xmlns:inkscape="http://www.inkscape.org/namespaces/inkscape"
   xmlns:sodipodi="http://sodipodi.sourceforge.net/DTD/sodipodi-0.dtd"
   xmlns="http://www.w3.org/2000/svg"
   xmlns:svg="http://www.w3.org/2000/svg"
   xmlns:rdf="http://www.w3.org/1999/02/22-rdf-syntax-ns#"
   xmlns:cc="http://creativecommons.org/ns#"
   xmlns:dc="http://purl.org/dc/elements/1.1/">
  <metadata
     id="metadata77">
    <rdf:RDF>
      <cc:Work
         rdf:about="">
        <dc:format>image/svg+xml</dc:format>
        <dc:type
           rdf:resource="http://purl.org/dc/dcmitype/StillImage" />
      </cc:Work>
    </rdf:RDF>
  </metadata>
  <sodipodi:namedview
     pagecolor="#f5f7fa"
     bordercolor="#666666"
     borderopacity="1"
     objecttolerance="10"
     gridtolerance="10"
     guidetolerance="10"
     inkscape:pageopacity="0"
     inkscape:pageshadow="2"
     inkscape:window-width="1377"
     inkscape:window-height="886"
     id="namedview75"
     showgrid="false"
     inkscape:zoom="6.2890624"
     inkscape:cx="37.445963"
     inkscape:cy="34.901864"
     inkscape:window-x="1"
     inkscape:window-y="75"
     inkscape:window-maximized="0"
     inkscape:current-layer="g877"
     inkscape:document-rotation="0"
     inkscape:pagecheckerboard="0"
     inkscape:showpageshadow="2"
     inkscape:deskcolor="#d1d1d1" />
  <defs
     id="defs29" />
  <circle
     cx="32.516094"
     cy="31.877844"
     r="0"
     fill="url(#b)"
     stroke-width="1.5715"
     id="circle41"
     style="fill:url(#b)" />
  <g
     aria-label="GZ"
     transform="matrix(1.2212657,0,0,0.81882264,0.4960938,-0.1661539)"
     id="text93"
     style="font-weight:bold;font-size:11.5263px;line-height:1.25;font-family:sans-serif;-inkscape-font-specification:'sans-serif Bold';fill:#f2f2f2;stroke-width:0.288159" />
  <g
     id="g877"
     transform="matrix(1.1,0,0,1.1,-3.1845928,-3.2065454)">
    <rect
       x="8.3496294"
       y="8.369586"
       width="47.272728"
       height="47.272728"
       rx="9.8825235"
       ry="9.6485243"
       fill="url(#linearGradient862)"
       stroke-width="3.0541"
       id="rect35-7-3"
       style="fill:#414141;fill-opacity:1;stroke:#dfdfdf;stroke-width:2.04545;stroke-dasharray:none;stroke-opacity:1" />
    <path
       id="path8"
       style="fill:#dfdfdf;fill-opacity:1;stroke:none;stroke-width:0.486252;stroke-dasharray:none;stroke-opacity:0.6"
       d="m 38.922823,17.468294 -3.148304,2.62452 -3.149427,2.624521 4.552534,2.677235 c 2.503485,1.472587 4.563679,2.677142 4.579453,2.677236 0.126634,7.72e-4 5.737708,-4.710071 5.676367,-4.765636 -0.08586,-0.07784 -7.442107,-5.133532 -8.109089,-5.573181 z m -13.705829,0.126742 c -0.337702,0.03338 -2.138156,1.232047 -8.678864,5.75488 -0.01236,0.0084 1.272469,1.074603 2.85557,2.368796 1.583098,1.294192 2.893503,2.353096 2.911647,2.353096 0.06631,0 8.844922,-5.173978 8.959258,-5.280446 0.09133,-0.08505 -0.553,-0.668818 -2.853323,-2.58639 -1.633989,-1.362105 -3.048929,-2.533349 -3.144939,-2.602086 -0.0105,-0.0075 -0.02685,-0.01008 -0.04935,-0.0079 z m 16.40998,11.427879 c -0.02852,0.0031 -0.05264,0.01416 -0.07623,0.02913 -0.111446,0.07046 -2.162916,1.278859 -4.558139,2.685086 l -4.355176,2.556134 1.495079,1.207956 c 0.822171,0.664381 2.222694,1.796228 3.112411,2.514598 0.889724,0.718377 1.652154,1.30553 1.693601,1.30553 0.06803,0 8.310575,-5.456544 8.491555,-5.621406 0.04185,-0.03809 -1.21851,-1.128249 -2.800607,-2.422632 -2.352214,-1.924458 -2.800313,-2.276661 -3.002498,-2.254397 z m -19.404627,0.01683 c -0.03635,-0.0024 -0.05977,0.0046 -0.07627,0.01906 -0.08323,0.07193 -1.374636,1.130189 -2.869027,2.350869 -1.494396,1.22068 -2.697273,2.245021 -2.672752,2.276827 0.02455,0.03186 1.933066,1.355774 4.240734,2.941933 2.307668,1.586151 4.229696,2.88361 4.271015,2.88361 0.158662,0 6.276682,-5.178908 6.203512,-5.251288 -0.04249,-0.04205 -2.09044,-1.258731 -4.550291,-2.704186 -3.415116,-2.006785 -4.292395,-2.501064 -4.546925,-2.516848 z m 9.816155,5.705516 c -0.03435,0 -1.55762,1.248262 -3.384955,2.773691 -1.827338,1.525442 -3.374702,2.795477 -3.438797,2.821933 -0.06408,0.02637 -0.525578,-0.235094 -1.025134,-0.580984 -0.499558,-0.345888 -0.929352,-0.629204 -0.955594,-0.629204 -0.11065,0 -0.04467,2.161743 0.07069,2.312711 0.09837,0.128751 4.483964,2.754362 7.793929,4.665817 0.458512,0.264776 0.894379,0.452792 1.003823,0.432933 0.303458,-0.05505 8.36151,-4.820185 8.601465,-5.086416 0.19721,-0.218747 0.214237,-0.329325 0.214237,-1.376193 0,-0.626291 -0.02209,-1.139534 -0.05047,-1.139534 -0.02853,0 -0.437571,0.259835 -0.908494,0.576501 -0.470918,0.316669 -0.912227,0.597069 -0.981389,0.623607 -0.06993,0.02666 -1.623566,-1.15873 -3.501591,-2.672747 -1.856613,-1.496782 -3.403361,-2.722125 -3.437686,-2.722124 z" />
  </g>
</svg>
