<?xml version="1.0" encoding="UTF-8" standalone="no"?>
<svg
   width="64"
   height="64"
   version="1.1"
   id="svg73"
   sodipodi:docname="audacious.svg"
   inkscape:version="1.4.2 (ebf0e940d0, 2025-05-08)"
   xmlns:inkscape="http://www.inkscape.org/namespaces/inkscape"
   xmlns:sodipodi="http://sodipodi.sourceforge.net/DTD/sodipodi-0.dtd"
   xmlns="http://www.w3.org/2000/svg"
   xmlns:svg="http://www.w3.org/2000/svg"
   xmlns:rdf="http://www.w3.org/1999/02/22-rdf-syntax-ns#"
   xmlns:cc="http://creativecommons.org/ns#"
   xmlns:dc="http://purl.org/dc/elements/1.1/">
  <metadata
     id="metadata77">
    <rdf:RDF>
      <cc:Work
         rdf:about="">
        <dc:format>image/svg+xml</dc:format>
        <dc:type
           rdf:resource="http://purl.org/dc/dcmitype/StillImage" />
      </cc:Work>
    </rdf:RDF>
  </metadata>
  <sodipodi:namedview
     pagecolor="#f5f7fa"
     bordercolor="#666666"
     borderopacity="1"
     objecttolerance="10"
     gridtolerance="10"
     guidetolerance="10"
     inkscape:pageopacity="0"
     inkscape:pageshadow="2"
     inkscape:window-width="1377"
     inkscape:window-height="886"
     id="namedview75"
     showgrid="false"
     inkscape:zoom="6.2890624"
     inkscape:cx="46.350311"
     inkscape:cy="41.898137"
     inkscape:window-x="264"
     inkscape:window-y="75"
     inkscape:window-maximized="0"
     inkscape:current-layer="g877"
     inkscape:document-rotation="0"
     inkscape:pagecheckerboard="0"
     inkscape:showpageshadow="2"
     inkscape:deskcolor="#d1d1d1" />
  <defs
     id="defs29" />
  <circle
     cx="32.516094"
     cy="31.877844"
     r="0"
     fill="url(#b)"
     stroke-width="1.5715"
     id="circle41"
     style="fill:url(#b)" />
  <g
     aria-label="GZ"
     transform="matrix(1.2212657,0,0,0.81882264,0.4960938,-0.1661539)"
     id="text93"
     style="font-weight:bold;font-size:11.5263px;line-height:1.25;font-family:sans-serif;-inkscape-font-specification:'sans-serif Bold';fill:#f2f2f2;stroke-width:0.288159" />
  <g
     id="g877"
     transform="matrix(1.1,0,0,1.1,-3.1845928,-3.2065454)">
    <rect
       x="8.3496294"
       y="8.369586"
       width="47.272728"
       height="47.272728"
       rx="9.8825235"
       ry="9.6485243"
       fill="url(#linearGradient862)"
       stroke-width="3.0541"
       id="rect35-7-3"
       style="fill:#414141;fill-opacity:1;stroke:#dfdfdf;stroke-width:2.04545;stroke-dasharray:none;stroke-opacity:1" />
    <path
       style="fill:#dfdfdf;fill-opacity:1;stroke:none;stroke-width:0.520931;stroke-dasharray:none;stroke-opacity:0.6"
       d="m 33.813387,47.523589 c 2.0328,-0.129984 3.813117,-0.463044 5.491462,-1.027246 1.681931,-0.56543 3.267042,-1.393315 4.252072,-2.220827 1.955985,-1.64322 2.954506,-3.833266 2.865749,-6.285407 -0.04834,-1.335175 -0.31294,-2.416047 -0.863617,-3.527501 -0.538388,-1.086697 -1.149003,-1.895079 -2.30076,-3.045969 -0.973796,-0.973065 -1.057414,-1.099615 -1.085551,-1.642926 -0.03044,-0.57576 0.161701,-0.961113 0.787998,-1.585654 0.289395,-0.288582 0.521143,-0.467568 1.091935,-0.843358 0.918852,-0.604931 1.407708,-0.992433 1.984089,-1.572731 0.525099,-0.52866 0.903632,-1.01261 1.258029,-1.608374 0.301138,-0.506251 0.319608,-0.638239 0.117563,-0.840269 -0.103929,-0.103919 -0.159734,-0.129659 -0.281125,-0.129659 -0.388388,0 -1.930205,-0.194209 -2.702207,-0.340371 -0.461595,-0.08739 -0.52304,-0.142423 -0.622763,-0.557665 -0.328911,-1.369576 -1.107307,-2.70778 -2.160958,-3.715075 -1.14463,-1.094274 -2.517525,-1.777126 -4.113739,-2.046099 -0.484658,-0.08167 -1.681123,-0.09209 -2.192772,-0.01911 -3.071272,0.43815 -5.599982,2.668548 -6.367987,5.616748 -0.193154,0.741475 -0.241428,1.12499 -0.244042,1.938663 -0.0043,1.298156 0.207421,2.241081 0.75734,3.374962 0.470533,0.970198 0.988611,1.644485 1.909741,2.485564 0.411671,0.375893 0.557037,0.599392 0.6046,0.929549 0.05862,0.406914 -0.137467,0.794966 -0.443314,0.877322 -0.106987,0.02882 -1.020657,0.03628 -2.99966,0.02441 -2.984854,-0.01787 -2.950059,-0.01605 -3.837317,-0.199221 -0.466871,-0.09638 -1.285312,-0.37805 -1.753029,-0.603316 -1.136222,-0.547236 -2.116088,-1.346831 -2.671737,-2.180211 -0.238438,-0.357614 -0.330444,-0.451182 -0.522563,-0.531457 -0.365154,-0.15257 -0.677307,-0.03828 -1.032545,0.378059 -1.086283,1.273122 -1.878811,3.008399 -2.177791,4.768365 -0.250163,1.472673 -0.145412,3.357112 0.270303,4.862233 0.342021,1.238293 0.811325,2.394381 1.269412,3.127082 1.200592,1.920316 3.195953,3.509851 5.817113,4.633979 1.730371,0.742094 3.838521,1.225142 6.330431,1.450527 0.769279,0.06964 2.838304,0.101535 3.565637,0.05499 z m 5.909408,-23.475871 c -0.376496,-0.111802 -0.654437,-0.35435 -0.825743,-0.720577 -0.08972,-0.191731 -0.106965,-0.27854 -0.106501,-0.535702 4.34e-4,-0.268546 0.01575,-0.338324 0.12429,-0.558391 0.144483,-0.293461 0.35215,-0.495555 0.652391,-0.634828 0.305075,-0.141512 0.733744,-0.141512 1.038806,0 0.295479,0.137075 0.507729,0.3408 0.643365,0.617572 0.244433,0.498816 0.173372,1.049353 -0.18626,1.442842 -0.360861,0.394826 -0.846398,0.535774 -1.340348,0.389084 z"
       id="path1" />
  </g>
</svg>
