<?xml version="1.0" encoding="UTF-8" standalone="no"?>
<svg
   width="64"
   height="64"
   version="1.1"
   id="svg73"
   sodipodi:docname="Logo.svg"
   inkscape:version="1.3.2 (091e20ef0f, 2023-11-25)"
   xmlns:inkscape="http://www.inkscape.org/namespaces/inkscape"
   xmlns:sodipodi="http://sodipodi.sourceforge.net/DTD/sodipodi-0.dtd"
   xmlns="http://www.w3.org/2000/svg"
   xmlns:svg="http://www.w3.org/2000/svg"
   xmlns:rdf="http://www.w3.org/1999/02/22-rdf-syntax-ns#"
   xmlns:cc="http://creativecommons.org/ns#"
   xmlns:dc="http://purl.org/dc/elements/1.1/">
  <metadata
     id="metadata77">
    <rdf:RDF>
      <cc:Work
         rdf:about="">
        <dc:format>image/svg+xml</dc:format>
        <dc:type
           rdf:resource="http://purl.org/dc/dcmitype/StillImage" />
      </cc:Work>
    </rdf:RDF>
  </metadata>
  <sodipodi:namedview
     pagecolor="#f5f7fa"
     bordercolor="#666666"
     borderopacity="1"
     objecttolerance="10"
     gridtolerance="10"
     guidetolerance="10"
     inkscape:pageopacity="0"
     inkscape:pageshadow="2"
     inkscape:window-width="1377"
     inkscape:window-height="886"
     id="namedview75"
     showgrid="false"
     inkscape:zoom="6.2890624"
     inkscape:cx="28.462112"
     inkscape:cy="31.085715"
     inkscape:window-x="181"
     inkscape:window-y="77"
     inkscape:window-maximized="0"
     inkscape:current-layer="g877"
     inkscape:document-rotation="0"
     inkscape:pagecheckerboard="0"
     inkscape:showpageshadow="2"
     inkscape:deskcolor="#d1d1d1" />
  <defs
     id="defs29">
    <linearGradient
       id="b"
       x1="399.57"
       x2="399.57"
       y1="545.8"
       y2="517.8"
       gradientTransform="matrix(2.1429,0,0,2.1429,-825.86391,-1107.6662)"
       gradientUnits="userSpaceOnUse">
      <stop
         stop-color="#3889e9"
         offset="0"
         id="stop2" />
      <stop
         stop-color="#5ea5fb"
         offset="1"
         id="stop4" />
    </linearGradient>
    <linearGradient
       id="d"
       x2="1"
       gradientTransform="matrix(14.905727,-4.7106182,4.7106182,14.905727,322.04962,998.26962)"
       gradientUnits="userSpaceOnUse">
      <stop
         stop-color="#fafafa"
         offset="0"
         id="stop7" />
      <stop
         stop-color="#aaa"
         offset="1"
         id="stop8" />
    </linearGradient>
    <linearGradient
       id="e"
       x2="1"
       gradientTransform="matrix(21.439909,0,0,21.439909,26.63554,1159.7788)"
       gradientUnits="userSpaceOnUse">
      <stop
         stop-color="#f0f0f0"
         offset="0"
         id="stop9" />
      <stop
         stop-color="#b7f1ff"
         offset="1"
         id="stop10" />
    </linearGradient>
    <linearGradient
       id="b-3"
       x2="1"
       gradientTransform="matrix(0.16186201,-42.559246,42.559246,0.16186201,783.91966,56.594046)"
       gradientUnits="userSpaceOnUse">
      <stop
         stop-color="#ccc"
         offset="0"
         id="stop3"
         style="stop-color:#dfdfdf;stop-opacity:1;" />
      <stop
         stop-color="#fff"
         offset="1"
         id="stop4-6" />
    </linearGradient>
  </defs>
  <circle
     cx="32.516094"
     cy="31.877844"
     r="0"
     fill="url(#b)"
     stroke-width="1.5715"
     id="circle41"
     style="fill:url(#b)" />
  <g
     aria-label="GZ"
     transform="matrix(1.2212657,0,0,0.81882264,0.4960938,-0.1661539)"
     id="text93"
     style="font-weight:bold;font-size:11.5263px;line-height:1.25;font-family:sans-serif;-inkscape-font-specification:'sans-serif Bold';fill:#f2f2f2;stroke-width:0.288159" />
  <g
     id="g877"
     transform="matrix(1.1,0,0,1.1,-3.1845928,-3.2065454)">
    <rect
       x="6.3010068"
       y="5.4939413"
       width="51.635597"
       height="53.148327"
       rx="10.980581"
       ry="10.720582"
       fill="url(#linearGradient862)"
       stroke-width="3.0541"
       id="rect35-7-3"
       style="fill:#414141;fill-opacity:1;stroke:#dfdfdf;stroke-width:2.27272727;stroke-dasharray:none;stroke-opacity:1" />
    <path
       d="m 32.229226,11.175852 c -1.459059,0 -2.652328,1.190469 -2.652328,2.64953 0,1.459061 1.193269,2.652331 2.652328,2.652331 1.105138,0 2.057793,-0.685465 2.453685,-1.652111 1.812984,1.043585 3.486079,3.237072 4.708723,6.255914 1.341554,3.302821 2.155717,7.549907 2.155717,12.178892 0,3.774252 -0.539979,7.295302 -1.464657,10.256789 l 0.934471,0.292374 c 0.961049,-3.069204 1.512218,-6.681184 1.512218,-10.547765 0,-4.745094 -0.828153,-9.104091 -2.228459,-12.552398 -1.333159,-3.286032 -3.18811,-5.750909 -5.419368,-6.889621 -0.0084,-1.450666 -1.201662,-2.641137 -2.65233,-2.643935 z m 0,0.980635 c 0.928876,0 1.668898,0.74142 1.668898,1.668895 0,0.927477 -0.741422,1.670298 -1.668898,1.670298 -0.928873,0 -1.667497,-0.742821 -1.667497,-1.670298 0,-0.927475 0.740022,-1.668895 1.667497,-1.668895 z m -9.606297,7.598866 c -1.113532,-0.01406 -2.225662,0.104918 -3.309816,0.353925 -2.014426,0.48542 -3.630166,1.495431 -4.536658,3.060808 -1.340153,2.323585 -0.840746,5.349424 0.907891,8.40044 l 0.850537,-0.48542 c -1.649313,-2.88035 -2.01023,-5.513094 -0.907891,-7.422603 0.742819,-1.286997 2.082972,-2.157116 3.916942,-2.59917 1.829771,-0.442056 4.137968,-0.433664 6.689574,0.03077 l 0.174865,-0.968045 c -1.327564,-0.24201 -2.594974,-0.366513 -3.785444,-0.372108 z m 19.467198,0.02797 -0.0098,0.986231 c 3.238471,0.04197 5.632,1.042186 6.716154,2.919519 0.744217,1.284198 0.825356,2.876153 0.295171,4.677948 -0.530188,1.803192 -1.680088,3.795235 -3.350384,5.767696 l 0.751213,0.632305 c 1.736044,-2.050797 2.958688,-4.139366 3.543432,-6.12162 0.584745,-1.982249 0.514799,-3.883366 -0.387496,-5.445946 -1.317771,-2.284417 -4.119783,-3.36997 -7.558298,-3.416133 z m -4.87939,0.531586 c -3.207696,0.686864 -6.704964,2.035409 -10.14348,4.02046 -4.175738,2.411718 -7.580679,5.362014 -9.866495,8.347282 -2.217269,2.892939 -3.395147,5.82645 -3.116766,8.373861 -0.962448,0.42247 -1.589158,1.377924 -1.591956,2.428504 0,1.45906 1.194666,2.649529 2.652328,2.649529 1.457662,0 2.649532,-1.191867 2.649532,-2.649529 0,-1.457663 -1.19187,-2.653728 -2.649532,-2.653728 -0.03356,0 -0.06295,0.0098 -0.09652,0.01113 -0.187453,-2.144525 0.840744,-4.834624 2.932109,-7.561096 2.189293,-2.860766 5.504704,-5.745314 9.579722,-8.096876 3.35598,-1.936088 6.760921,-3.246866 9.855304,-3.909947 z m -4.981511,10.696049 c -1.349945,0 -2.455082,1.105136 -2.455082,2.45508 0,1.348548 1.105137,2.456482 2.455082,2.456482 1.351346,0 2.455084,-1.106536 2.455084,-2.455081 0,-1.349946 -1.103738,-2.455084 -2.455084,-2.455084 z m -12.935698,3.789638 -0.727431,0.661684 c 2.190689,2.407521 5.082231,4.732504 8.485773,6.697969 4.054035,2.341773 8.189204,3.796636 11.840353,4.326822 3.451106,0.49941 6.475544,0.173466 8.597687,-1.092547 0.477027,0.456045 1.119126,0.740021 1.825575,0.740021 1.45906,0 2.652328,-1.191867 2.652328,-2.649529 0,-1.457663 -1.193268,-2.653728 -2.652328,-2.653728 -1.460461,0 -2.649532,1.194667 -2.649532,2.653728 0,0.398688 0.09233,0.770796 0.251803,1.107935 -1.835365,1.056174 -4.614995,1.394711 -7.885642,0.919082 -3.501465,-0.506405 -7.534515,-1.917904 -11.492025,-4.203719 -3.31961,-1.916503 -6.132813,-4.185531 -8.246561,-6.507718 z m -4.14916,7.014123 c 0.927475,0 1.6661,0.741421 1.6661,1.670297 0,0.928874 -0.738625,1.668897 -1.6661,1.668897 -0.927478,0 -1.673093,-0.741421 -1.673093,-1.668897 0,-0.927476 0.744218,-1.670297 1.673093,-1.670297 z m 34.171117,0 c 0.927474,0 1.671694,0.741421 1.671694,1.670297 0,0.928874 -0.74422,1.668897 -1.671694,1.668897 -0.928875,0 -1.667498,-0.741421 -1.667498,-1.668897 0,-0.927476 0.740023,-1.670297 1.667498,-1.670297 z m -24.616578,2.701292 -0.924679,0.328744 c 0.906494,2.534819 2.103958,4.645771 3.532244,6.145399 1.425486,1.49963 3.108371,2.393532 4.914362,2.393532 2.618755,0 4.943739,-1.854951 6.695172,-4.768876 l -0.840743,-0.505006 c -1.649313,2.744658 -3.70151,4.293247 -5.854429,4.293247 -1.48564,0 -2.905532,-0.726033 -4.205117,-2.089967 -1.299586,-1.365335 -2.443891,-3.360177 -3.31681,-5.797073 z"
       fill="url(#b)"
       fill-rule="nonzero"
       id="path4"
       style="fill:url(#b-3);stroke-width:1.3989" />
  </g>
</svg>
