<?xml version="1.0" encoding="UTF-8" standalone="no"?>
<svg
   width="64"
   height="64"
   version="1.1"
   id="svg73"
   sodipodi:docname="Logo.svg"
   inkscape:version="1.3.2 (091e20ef0f, 2023-11-25)"
   xmlns:inkscape="http://www.inkscape.org/namespaces/inkscape"
   xmlns:sodipodi="http://sodipodi.sourceforge.net/DTD/sodipodi-0.dtd"
   xmlns="http://www.w3.org/2000/svg"
   xmlns:svg="http://www.w3.org/2000/svg"
   xmlns:rdf="http://www.w3.org/1999/02/22-rdf-syntax-ns#"
   xmlns:cc="http://creativecommons.org/ns#"
   xmlns:dc="http://purl.org/dc/elements/1.1/">
  <metadata
     id="metadata77">
    <rdf:RDF>
      <cc:Work
         rdf:about="">
        <dc:format>image/svg+xml</dc:format>
        <dc:type
           rdf:resource="http://purl.org/dc/dcmitype/StillImage" />
      </cc:Work>
    </rdf:RDF>
  </metadata>
  <sodipodi:namedview
     pagecolor="#f5f7fa"
     bordercolor="#666666"
     borderopacity="1"
     objecttolerance="10"
     gridtolerance="10"
     guidetolerance="10"
     inkscape:pageopacity="0"
     inkscape:pageshadow="2"
     inkscape:window-width="1377"
     inkscape:window-height="886"
     id="namedview75"
     showgrid="false"
     inkscape:zoom="6.2890624"
     inkscape:cx="4.2931678"
     inkscape:cy="12.004969"
     inkscape:window-x="43"
     inkscape:window-y="59"
     inkscape:window-maximized="0"
     inkscape:current-layer="g877"
     inkscape:document-rotation="0"
     inkscape:pagecheckerboard="0"
     inkscape:showpageshadow="2"
     inkscape:deskcolor="#d1d1d1" />
  <defs
     id="defs29">
    <linearGradient
       id="b"
       x1="399.57"
       x2="399.57"
       y1="545.8"
       y2="517.8"
       gradientTransform="matrix(2.1429,0,0,2.1429,-825.86391,-1107.6662)"
       gradientUnits="userSpaceOnUse">
      <stop
         stop-color="#3889e9"
         offset="0"
         id="stop2" />
      <stop
         stop-color="#5ea5fb"
         offset="1"
         id="stop4" />
    </linearGradient>
    <linearGradient
       id="d"
       x2="1"
       gradientTransform="matrix(14.905727,-4.7106182,4.7106182,14.905727,322.04962,998.26962)"
       gradientUnits="userSpaceOnUse">
      <stop
         stop-color="#fafafa"
         offset="0"
         id="stop7" />
      <stop
         stop-color="#aaa"
         offset="1"
         id="stop8" />
    </linearGradient>
    <linearGradient
       id="e"
       x2="1"
       gradientTransform="matrix(21.439909,0,0,21.439909,26.63554,1159.7788)"
       gradientUnits="userSpaceOnUse">
      <stop
         stop-color="#f0f0f0"
         offset="0"
         id="stop9" />
      <stop
         stop-color="#b7f1ff"
         offset="1"
         id="stop10" />
    </linearGradient>
  </defs>
  <circle
     cx="32.516094"
     cy="31.877844"
     r="0"
     fill="url(#b)"
     stroke-width="1.5715"
     id="circle41"
     style="fill:url(#b)" />
  <g
     aria-label="GZ"
     transform="matrix(1.2212657,0,0,0.81882264,0.4960938,-0.1661539)"
     id="text93"
     style="font-weight:bold;font-size:11.5263px;line-height:1.25;font-family:sans-serif;-inkscape-font-specification:'sans-serif Bold';fill:#f2f2f2;stroke-width:0.288159" />
  <g
     id="g877"
     transform="matrix(1.1,0,0,1.1,-3.1845928,-3.2065454)">
    <rect
       x="6.3010068"
       y="5.4939413"
       width="51.635597"
       height="53.148327"
       rx="10.980581"
       ry="10.720582"
       fill="url(#linearGradient862)"
       stroke-width="3.0541"
       id="rect35-7-3"
       style="fill:#414141;fill-opacity:1;stroke:#dfdfdf;stroke-width:2.27272727;stroke-dasharray:none;stroke-opacity:1" />
    <path
       style="fill:#dfdfdf;fill-opacity:1;stroke:none;stroke-width:1.17406;stroke-dasharray:none;stroke-opacity:0.3"
       d="m 20.902688,50.306235 c 0,0 2.028828,1.124324 4.72946,1.521061 1.093677,0.160695 5.254912,0.722219 8.445454,0.707526 0,0 3.885782,0.004 6.030705,-0.353721 2.24438,-0.375572 3.515753,-0.854898 4.223481,-1.811426 0.01888,-0.228023 0.341546,-0.971498 -0.530856,-1.688423 -2.230393,-1.832962 -5.113674,-2.334632 -10.714226,-3.901626 -6.19313,-1.83428 -8.138856,-3.590863 -9.063645,-4.86184 -0.876614,-1.274005 0.259569,-3.919849 5.2499,-5.21778 2.526678,-0.724342 11.414201,-1.100051 11.414201,-1.100051 -2.699876,-2.525028 -7.245551,-6.803227 -8.281522,-7.764587 -0.908645,-0.843196 -2.372956,-2.137161 -2.530268,-3.293495 -0.212321,-1.125615 1.29168,-1.667597 2.088006,-1.73012 2.565633,-0.208444 6.069287,0.591031 9.183433,1.320585 1.56539,0.366729 1.840218,0.312687 1.840218,0.312687 2.229444,0.125074 4.406617,-1.695797 4.318117,-4.593275 -0.01771,-2.939108 -2.955219,-5.295967 -5.715979,-5.398872 -2.792857,-0.0142 -9.410849,-0.0142 -9.410849,-0.0142 7.467149,1.813517 9.092245,2.728179 9.481749,3.787106 0.230641,0.625688 -0.383851,1.247366 -2.441022,1.125973 -2.2406,-0.132341 -6.831462,-0.771399 -6.831462,-0.771399 -4.369641,-0.792073 -7.035649,-1.542503 -8.362994,0.500282 -0.867009,1.334576 0.123876,2.96005 0.513148,3.91874 1.734051,3.564577 4.354493,6.010084 6.257206,7.733453 0.715951,0.648475 2.90181,2.084488 2.90181,2.084488 -6.79459,-2.188713 -12.587082,-0.958874 -16.019833,1.167307 -3.945912,2.75156 -3.270893,7.394663 2.990304,11.73572 3.698218,2.564009 5.917472,3.795561 11.972385,4.67139 3.5392,0.6648 4.255821,0.936816 4.228973,1.283858 -0.03797,0.488611 -4.378347,0.673755 -5.519256,0.766456 -2.902757,0.235873 -10.409995,-0.135867 -10.447434,-0.135867 z"
       id="path10" />
  </g>
</svg>
