<?xml version="1.0" encoding="UTF-8" standalone="no"?>
<svg
   width="64"
   height="64"
   version="1.1"
   id="svg73"
   sodipodi:docname="hwloc.svg"
   inkscape:version="1.3.2 (091e20ef0f, 2023-11-25)"
   xmlns:inkscape="http://www.inkscape.org/namespaces/inkscape"
   xmlns:sodipodi="http://sodipodi.sourceforge.net/DTD/sodipodi-0.dtd"
   xmlns="http://www.w3.org/2000/svg"
   xmlns:svg="http://www.w3.org/2000/svg"
   xmlns:rdf="http://www.w3.org/1999/02/22-rdf-syntax-ns#"
   xmlns:cc="http://creativecommons.org/ns#"
   xmlns:dc="http://purl.org/dc/elements/1.1/">
  <metadata
     id="metadata77">
    <rdf:RDF>
      <cc:Work
         rdf:about="">
        <dc:format>image/svg+xml</dc:format>
        <dc:type
           rdf:resource="http://purl.org/dc/dcmitype/StillImage" />
      </cc:Work>
    </rdf:RDF>
  </metadata>
  <sodipodi:namedview
     pagecolor="#f5f7fa"
     bordercolor="#666666"
     borderopacity="1"
     objecttolerance="10"
     gridtolerance="10"
     guidetolerance="10"
     inkscape:pageopacity="0"
     inkscape:pageshadow="2"
     inkscape:window-width="1377"
     inkscape:window-height="886"
     id="namedview75"
     showgrid="false"
     inkscape:zoom="4.4470387"
     inkscape:cx="47.784608"
     inkscape:cy="14.054296"
     inkscape:window-x="181"
     inkscape:window-y="77"
     inkscape:window-maximized="0"
     inkscape:current-layer="g877"
     inkscape:document-rotation="0"
     inkscape:pagecheckerboard="0"
     inkscape:showpageshadow="2"
     inkscape:deskcolor="#d1d1d1" />
  <defs
     id="defs29">
    <linearGradient
       id="b"
       x1="399.57"
       x2="399.57"
       y1="545.8"
       y2="517.8"
       gradientTransform="matrix(2.1429,0,0,2.1429,-825.86391,-1107.6662)"
       gradientUnits="userSpaceOnUse">
      <stop
         stop-color="#3889e9"
         offset="0"
         id="stop2" />
      <stop
         stop-color="#5ea5fb"
         offset="1"
         id="stop4" />
    </linearGradient>
    <linearGradient
       id="d"
       x2="1"
       gradientTransform="matrix(14.905727,-4.7106182,4.7106182,14.905727,322.04962,998.26962)"
       gradientUnits="userSpaceOnUse">
      <stop
         stop-color="#fafafa"
         offset="0"
         id="stop7" />
      <stop
         stop-color="#aaa"
         offset="1"
         id="stop8" />
    </linearGradient>
    <linearGradient
       id="e"
       x2="1"
       gradientTransform="matrix(21.439909,0,0,21.439909,26.63554,1159.7788)"
       gradientUnits="userSpaceOnUse">
      <stop
         stop-color="#f0f0f0"
         offset="0"
         id="stop9" />
      <stop
         stop-color="#b7f1ff"
         offset="1"
         id="stop10" />
    </linearGradient>
  </defs>
  <circle
     cx="32.516094"
     cy="31.877844"
     r="0"
     fill="url(#b)"
     stroke-width="1.5715"
     id="circle41"
     style="fill:url(#b)" />
  <g
     aria-label="GZ"
     transform="matrix(1.2212657,0,0,0.81882264,0.4960938,-0.1661539)"
     id="text93"
     style="font-weight:bold;font-size:11.5263px;line-height:1.25;font-family:sans-serif;-inkscape-font-specification:'sans-serif Bold';fill:#f2f2f2;stroke-width:0.288159" />
  <g
     id="g877"
     transform="matrix(1.1,0,0,1.1,-3.1845928,-3.2065454)">
    <rect
       x="6.3010068"
       y="5.4939413"
       width="51.635597"
       height="53.148327"
       rx="10.980581"
       ry="10.720582"
       fill="url(#linearGradient862)"
       stroke-width="3.0541"
       id="rect35-7-3"
       style="fill:#414141;fill-opacity:1;stroke:#dfdfdf;stroke-width:2.27272727;stroke-dasharray:none;stroke-opacity:1" />
    <path
       style="fill:#dfdfdf;fill-opacity:1;stroke:none;stroke-width:0.143024;stroke-dashoffset:2.2;stroke-opacity:0.3"
       d="m 15.842883,50.346653 c -0.663775,-0.349927 -1.086075,-0.782272 -1.374469,-1.407139 -0.240908,-0.521972 -0.264318,-1.020118 -0.267184,-5.68527 l -0.0031,-5.113162 0.607861,0.0033 c 0.41072,0.0022 0.839786,0.139755 1.322984,0.423951 2.178523,1.281317 2.995699,1.438534 4.021179,0.773598 1.310073,-0.849458 1.981434,-2.541812 1.888465,-4.760375 -0.08633,-2.059991 -0.825207,-3.4958 -2.149523,-4.176996 -0.933393,-0.480114 -1.72186,-0.313023 -3.317205,0.702969 -0.879625,0.56019 -1.572673,0.792971 -2.023791,0.679748 l -0.349971,-0.08784 v -4.009131 c 0,-4.351971 0.01421,-4.442536 0.838725,-5.330646 0.818592,-0.881771 0.78744,-0.877028 6.078818,-0.925638 l 4.843669,-0.04448 -0.05961,-0.824013 c -0.0481,-0.664848 -0.189243,-1.041854 -0.730778,-1.951818 -1.091895,-1.834765 -1.086502,-2.670845 0.02437,-3.781737 0.979227,-0.979226 1.995454,-1.345053 3.736416,-1.345053 1.740966,0 2.757192,0.365827 3.736418,1.345053 1.110891,1.110892 1.116282,1.946972 0.02437,3.781737 -0.544006,0.914145 -0.682573,1.285571 -0.731397,1.960559 l -0.06025,0.832752 h 4.138971 c 4.662665,0 5.239658,0.08557 6.001209,0.889992 0.845753,0.893369 0.829892,0.786411 0.907165,6.118263 l 0.07151,4.934383 0.340557,0.04817 c 0.625863,0.08852 1.223552,-0.113843 2.425006,-0.820978 0.655749,-0.385949 1.412143,-0.742983 1.680885,-0.7934 1.01447,-0.190313 2.341968,0.791249 2.932128,2.168052 1.179402,2.751444 0.07403,6.398166 -2.140506,7.06166 -0.538038,0.161202 -0.63482,0.140327 -1.617926,-0.348725 -0.575156,-0.286104 -1.334828,-0.684177 -1.688198,-0.884604 -0.480397,-0.27249 -0.805171,-0.353782 -1.287235,-0.322277 l -0.644733,0.04235 -0.07152,4.576823 c -0.077,4.927078 -0.09163,5.022668 -0.880318,5.74005 -0.788752,0.717442 -1.062573,0.767614 -4.189983,0.767614 H 34.93678 v -0.547843 c 0,-0.318602 0.157754,-0.842303 0.376981,-1.251476 0.207342,-0.38693 0.561329,-1.050576 0.786641,-1.47465 1.23107,-2.317061 -0.540735,-4.460642 -3.881109,-4.69547 -2.558121,-0.179829 -4.86628,1.147616 -5.106241,2.936663 -0.09388,0.699854 0.102754,1.315638 0.767222,2.402835 0.596537,0.976044 0.919047,1.907104 0.807865,2.332264 -0.07738,0.295915 -0.115353,0.297728 -6.247022,0.291937 -5.341397,-0.005 -6.22675,-0.03631 -6.598253,-0.231951 z"
       id="path1-3" />
  </g>
</svg>
