<?xml version="1.0" encoding="UTF-8" standalone="no"?>
<svg
   width="64"
   height="64"
   version="1.1"
   id="svg73"
   sodipodi:docname="org.gnome.Software.svg"
   inkscape:version="1.4.2 (ebf0e940d0, 2025-05-08)"
   xmlns:inkscape="http://www.inkscape.org/namespaces/inkscape"
   xmlns:sodipodi="http://sodipodi.sourceforge.net/DTD/sodipodi-0.dtd"
   xmlns="http://www.w3.org/2000/svg"
   xmlns:svg="http://www.w3.org/2000/svg"
   xmlns:rdf="http://www.w3.org/1999/02/22-rdf-syntax-ns#"
   xmlns:cc="http://creativecommons.org/ns#"
   xmlns:dc="http://purl.org/dc/elements/1.1/">
  <metadata
     id="metadata77">
    <rdf:RDF>
      <cc:Work
         rdf:about="">
        <dc:format>image/svg+xml</dc:format>
        <dc:type
           rdf:resource="http://purl.org/dc/dcmitype/StillImage" />
      </cc:Work>
    </rdf:RDF>
  </metadata>
  <sodipodi:namedview
     pagecolor="#f5f7fa"
     bordercolor="#666666"
     borderopacity="1"
     objecttolerance="10"
     gridtolerance="10"
     guidetolerance="10"
     inkscape:pageopacity="0"
     inkscape:pageshadow="2"
     inkscape:window-width="1377"
     inkscape:window-height="886"
     id="namedview75"
     showgrid="false"
     inkscape:zoom="6.2890624"
     inkscape:cx="47.622361"
     inkscape:cy="45.396274"
     inkscape:window-x="147"
     inkscape:window-y="75"
     inkscape:window-maximized="0"
     inkscape:current-layer="g877"
     inkscape:document-rotation="0"
     inkscape:pagecheckerboard="0"
     inkscape:showpageshadow="2"
     inkscape:deskcolor="#d1d1d1" />
  <defs
     id="defs29">
    <linearGradient
       id="b"
       x1="399.57"
       x2="399.57"
       y1="545.8"
       y2="517.8"
       gradientTransform="matrix(2.1429,0,0,2.1429,-825.86391,-1107.6662)"
       gradientUnits="userSpaceOnUse">
      <stop
         stop-color="#3889e9"
         offset="0"
         id="stop2" />
      <stop
         stop-color="#5ea5fb"
         offset="1"
         id="stop4" />
    </linearGradient>
  </defs>
  <circle
     cx="32.516094"
     cy="31.877844"
     r="0"
     fill="url(#b)"
     stroke-width="1.5715"
     id="circle41"
     style="fill:url(#b)" />
  <g
     aria-label="GZ"
     transform="matrix(1.2212657,0,0,0.81882264,0.4960938,-0.1661539)"
     id="text93"
     style="font-weight:bold;font-size:11.5263px;line-height:1.25;font-family:sans-serif;-inkscape-font-specification:'sans-serif Bold';fill:#f2f2f2;stroke-width:0.288159" />
  <g
     id="g877"
     transform="matrix(1.1,0,0,1.1,-3.1845928,-3.2065454)">
    <rect
       x="8.3496294"
       y="8.369586"
       width="47.272728"
       height="47.272728"
       rx="9.8825235"
       ry="9.6485243"
       fill="url(#linearGradient862)"
       stroke-width="3.0541"
       id="rect35-7-3"
       style="fill:#414141;fill-opacity:1;stroke:#dfdfdf;stroke-width:2.04545;stroke-dasharray:none;stroke-opacity:1" />
    <g
       id="g8737"
       style="fill:#dfdfdf;fill-opacity:1;stroke:none;stroke-width:0.446152;stroke-dasharray:none;stroke-opacity:0.6"
       transform="matrix(1.0403408,0,0,1.0403409,-1.5484684,0.7217466)">
      <path
         style="fill:#dfdfdf;fill-opacity:1;stroke:none;stroke-width:0.446152;stroke-dasharray:none;stroke-opacity:0.6"
         d="m 32.877806,16.65545 c -2.43174,0 -4.4,1.98 -4.4,4.4 v 8.8 c 0,2.42 1.969,4.4 4.4,4.4 2.430997,0 4.399997,-1.98 4.399997,-4.4 v -8.8 c 0,-2.42 -1.968267,-4.4 -4.399997,-4.4 z m 0,2.2 c 1.214397,0 2.199997,0.88 2.199997,2.2 0,1.099998 -0.9856,2.2 -2.199997,2.2 -1.2144,0 -2.2,-1.100002 -2.2,-2.2 0,-1.32 0.9856,-2.2 2.2,-2.2 z m 0,6.6 c 1.215024,0 2.199997,0.984973 2.199997,2.2 v 2.2 c 0,1.215027 -0.984973,2.2 -2.199997,2.2 -1.21503,0 -2.2,-0.984973 -2.2,-2.2 v -2.2 c 0,-1.215027 0.98497,-2.2 2.2,-2.2 z"
         id="path20-1" />
      <path
         style="fill:#dfdfdf;fill-opacity:1;stroke:none;stroke-width:0.446152;stroke-dasharray:none;stroke-opacity:0.6"
         d="m 31.838426,9.51125 h 1.1 c 0.0454,-0.404282 0,-1.1 0,-1.1 h -1.1 z m 1.1,0 v 1.1 h 1.1 v -1.1 z m 0,1.1 h -1.1 v 1.1 h 1.1 z m 0,1.1 v 1.1 h 1.1 v -1.1 z m 0,1.1 h -1.1 v 1.1 h 1.1 z m 0,1.1 v 1.1 h 1.1 v -1.1 z m 0,1.1 h -1.1 v 1.1 h 1.1 z m 0,1.1 c -0.13647,1.751109 1.101015,0.886361 1.1,0 z"
         id="path16"
         sodipodi:nodetypes="cccccccccccccccccccccccccccccccccccccc" />
    </g>
    <rect
       x="37.737823"
       y="37.757782"
       width="22.610399"
       height="22.610399"
       rx="4.7267799"
       ry="4.6148596"
       fill="url(#linearGradient862)"
       stroke-width="3.0541"
       id="rect35-7-3-1"
       style="fill:#414141;fill-opacity:1;stroke:#dfdfdf;stroke-width:0.978336;stroke-dasharray:none;stroke-opacity:1" />
    <path
       style="fill:#dfdfdf;fill-opacity:1;stroke:none;stroke-width:0.4455;stroke-dasharray:none;stroke-opacity:0.6"
       d="m 48.680082,55.986275 c -0.215712,-0.123929 -5.344354,-4.838043 -6.154999,-5.65751 -0.570827,-0.577042 -0.610248,-0.860513 -0.18574,-1.335824 l 0.295463,-0.330902 2.237423,-0.0339 2.237416,-0.0339 V 46.13212 43.669995 l 0.283095,-0.541922 c 0.868456,-1.66241 2.988187,-1.467797 3.623425,0.332655 0.111345,0.315546 0.146185,0.978316 0.146185,2.782435 v 2.36821 l 2.001006,0.0057 c 2.171421,0.0065 2.564147,0.07608 2.888756,0.51405 0.395169,0.533147 0.297575,0.65354 -3.037093,3.746064 -1.706239,1.582349 -3.220032,2.956487 -3.363989,3.053638 -0.300025,0.202455 -0.677444,0.224007 -0.970941,0.05539 z"
       id="path5" />
  </g>
</svg>
