<?xml version="1.0" encoding="UTF-8" standalone="no"?>
<svg
   width="64"
   height="64"
   version="1.1"
   id="svg73"
   sodipodi:docname="hwloc.svg"
   inkscape:version="1.3.2 (091e20ef0f, 2023-11-25)"
   xmlns:inkscape="http://www.inkscape.org/namespaces/inkscape"
   xmlns:sodipodi="http://sodipodi.sourceforge.net/DTD/sodipodi-0.dtd"
   xmlns="http://www.w3.org/2000/svg"
   xmlns:svg="http://www.w3.org/2000/svg"
   xmlns:rdf="http://www.w3.org/1999/02/22-rdf-syntax-ns#"
   xmlns:cc="http://creativecommons.org/ns#"
   xmlns:dc="http://purl.org/dc/elements/1.1/">
  <metadata
     id="metadata77">
    <rdf:RDF>
      <cc:Work
         rdf:about="">
        <dc:format>image/svg+xml</dc:format>
        <dc:type
           rdf:resource="http://purl.org/dc/dcmitype/StillImage" />
      </cc:Work>
    </rdf:RDF>
  </metadata>
  <sodipodi:namedview
     pagecolor="#f5f7fa"
     bordercolor="#666666"
     borderopacity="1"
     objecttolerance="10"
     gridtolerance="10"
     guidetolerance="10"
     inkscape:pageopacity="0"
     inkscape:pageshadow="2"
     inkscape:window-width="1377"
     inkscape:window-height="886"
     id="namedview75"
     showgrid="false"
     inkscape:zoom="4.4470387"
     inkscape:cx="47.784608"
     inkscape:cy="14.054296"
     inkscape:window-x="181"
     inkscape:window-y="77"
     inkscape:window-maximized="0"
     inkscape:current-layer="g877"
     inkscape:document-rotation="0"
     inkscape:pagecheckerboard="0"
     inkscape:showpageshadow="2"
     inkscape:deskcolor="#d1d1d1" />
  <defs
     id="defs29">
    <linearGradient
       id="b"
       x1="399.57"
       x2="399.57"
       y1="545.8"
       y2="517.8"
       gradientTransform="matrix(2.1429,0,0,2.1429,-825.86391,-1107.6662)"
       gradientUnits="userSpaceOnUse">
      <stop
         stop-color="#3889e9"
         offset="0"
         id="stop2" />
      <stop
         stop-color="#5ea5fb"
         offset="1"
         id="stop4" />
    </linearGradient>
    <linearGradient
       id="d"
       x2="1"
       gradientTransform="matrix(14.905727,-4.7106182,4.7106182,14.905727,322.04962,998.26962)"
       gradientUnits="userSpaceOnUse">
      <stop
         stop-color="#fafafa"
         offset="0"
         id="stop7" />
      <stop
         stop-color="#aaa"
         offset="1"
         id="stop8" />
    </linearGradient>
    <linearGradient
       id="e"
       x2="1"
       gradientTransform="matrix(21.439909,0,0,21.439909,26.63554,1159.7788)"
       gradientUnits="userSpaceOnUse">
      <stop
         stop-color="#f0f0f0"
         offset="0"
         id="stop9" />
      <stop
         stop-color="#b7f1ff"
         offset="1"
         id="stop10" />
    </linearGradient>
  </defs>
  <circle
     cx="32.516094"
     cy="31.877844"
     r="0"
     fill="url(#b)"
     stroke-width="1.5715"
     id="circle41"
     style="fill:url(#b)" />
  <g
     aria-label="GZ"
     transform="matrix(1.2212657,0,0,0.81882264,0.4960938,-0.1661539)"
     id="text93"
     style="font-weight:bold;font-size:11.5263px;line-height:1.25;font-family:sans-serif;-inkscape-font-specification:'sans-serif Bold';fill:#f2f2f2;stroke-width:0.288159" />
  <g
     id="g877"
     transform="matrix(1.1,0,0,1.1,-3.1845928,-3.2065454)">
    <rect
       x="6.3010068"
       y="5.4939413"
       width="51.635597"
       height="53.148327"
       rx="10.980581"
       ry="10.720582"
       fill="url(#linearGradient862)"
       stroke-width="3.0541"
       id="rect35-7-3"
       style="fill:#414141;fill-opacity:1;stroke:#dfdfdf;stroke-width:2.27272727;stroke-dasharray:none;stroke-opacity:1" />
    <path
       id="path36"
       style="fill:#dfdfdf;fill-opacity:1;stroke-width:0.196549;stroke-opacity:0.3"
       d="m 38.345201,13.040711 c -0.37602,0 -2.957345,2.267605 -3.908868,3.433848 -0.967994,1.186423 -2.320745,3.694348 -2.320745,4.301174 0,0.220871 0.169624,0.32383 0.538828,0.326132 1.143289,0.0071 3.354123,0.610964 4.76674,1.302168 1.964813,0.961395 3.816225,2.819873 4.792737,4.811639 0.390883,0.797259 0.765808,1.760417 0.831873,2.138769 l 0.120504,0.687716 -0.34739,-0.491562 c -0.79065,-1.124665 -2.224052,-2.426578 -3.244775,-2.947012 -0.852902,-0.434867 -2.805078,-0.983126 -3.500021,-0.983126 -0.05323,0 0.324569,0.299046 0.841332,0.666445 4.649368,3.305581 4.511341,10.25382 -0.267036,13.444707 -2.377345,1.587536 -5.195631,1.708894 -7.973714,0.345057 -3.803228,-1.867138 -6.061252,-5.950502 -4.310649,-7.791755 1.138319,-1.197259 2.506418,-1.774541 4.851818,-2.044238 0.911057,-0.104764 1.320995,-0.27927 2.112778,-0.905137 0.540347,-0.427121 0.978207,-0.885963 0.97131,-1.018573 -0.0069,-0.132608 -0.781466,-0.61513 -1.720469,-1.07293 -0.939003,-0.457801 -2.384987,-1.375571 -3.214066,-2.039513 L 25.857615,23.996884 25.63311,22.708895 c -0.129933,-0.746098 -0.166194,-1.821599 -0.08745,-2.557069 l 0.134684,-1.269083 -0.841325,0.470293 c -0.462775,0.258117 -1.496873,1.078807 -2.297111,1.824454 -0.829826,0.773209 -1.524589,1.279899 -1.618852,1.179275 -0.278284,-0.297091 -0.600271,-2.190281 -0.600271,-3.528376 0,-0.697339 -0.07747,-1.266719 -0.170173,-1.266719 -0.0927,0 -0.911463,0.772216 -1.822088,1.718104 -3.683234,3.825862 -5.335935,7.915069 -5.341017,13.220196 -0.0029,2.995066 0.470411,5.114323 1.746465,7.831916 1.059315,2.256012 2.182396,3.845853 3.944319,5.582069 2.912692,2.870189 6.301159,4.622902 10.351176,5.357559 4.473259,0.811426 9.431551,-0.132129 13.541602,-2.578341 3.407866,-2.028298 6.673623,-5.956107 7.999708,-9.620917 0.989058,-2.733352 1.265579,-4.532098 1.143841,-7.451428 -0.129746,-3.1116 -0.692628,-5.230499 -2.09859,-7.905175 -0.875544,-1.665612 -2.550837,-4.073448 -2.717768,-3.906504 -0.03934,0.03932 0.116983,0.44169 0.347388,0.893322 0.486891,0.954385 1.18165,3.533184 1.18165,4.388612 0,0.551546 -0.06736,0.499439 -1.049301,-0.822422 -0.57675,-0.776429 -2.352716,-2.743521 -3.946664,-4.37207 -2.92756,-2.991125 -4.257842,-4.72922 -4.669844,-6.104357 -0.123929,-0.413678 -0.312312,-0.751523 -0.418275,-0.751523 z m -3.601642,14.371114 c -0.113184,-0.007 -0.232325,0.02574 -0.387589,0.08036 -0.438947,0.154368 -0.593146,0.384055 -0.794064,1.174551 -0.189427,0.745221 -0.478603,1.200303 -1.193453,1.883536 -0.830724,0.793973 -1.078183,0.916297 -2.089146,1.035116 -1.299268,0.152703 -1.984552,0.457576 -2.658695,1.179278 -0.403184,0.431607 -0.448644,0.619903 -0.333212,1.38961 0.265481,1.77037 2.056041,3.639138 3.982131,4.157012 1.926946,0.518105 3.068923,0.237308 4.381526,-1.075294 2.352094,-2.352101 2.392903,-6.611291 0.08745,-9.051366 -0.523511,-0.554086 -0.745914,-0.757173 -0.994938,-0.772796 z" />
  </g>
</svg>
