<?xml version="1.0" encoding="UTF-8" standalone="no"?>
<svg
   width="64"
   height="64"
   version="1.1"
   id="svg73"
   sodipodi:docname="audacious.svg"
   inkscape:version="1.4.2 (ebf0e940d0, 2025-05-08)"
   xmlns:inkscape="http://www.inkscape.org/namespaces/inkscape"
   xmlns:sodipodi="http://sodipodi.sourceforge.net/DTD/sodipodi-0.dtd"
   xmlns="http://www.w3.org/2000/svg"
   xmlns:svg="http://www.w3.org/2000/svg"
   xmlns:rdf="http://www.w3.org/1999/02/22-rdf-syntax-ns#"
   xmlns:cc="http://creativecommons.org/ns#"
   xmlns:dc="http://purl.org/dc/elements/1.1/">
  <metadata
     id="metadata77">
    <rdf:RDF>
      <cc:Work
         rdf:about="">
        <dc:format>image/svg+xml</dc:format>
        <dc:type
           rdf:resource="http://purl.org/dc/dcmitype/StillImage" />
      </cc:Work>
    </rdf:RDF>
  </metadata>
  <sodipodi:namedview
     pagecolor="#f5f7fa"
     bordercolor="#666666"
     borderopacity="1"
     objecttolerance="10"
     gridtolerance="10"
     guidetolerance="10"
     inkscape:pageopacity="0"
     inkscape:pageshadow="2"
     inkscape:window-width="1377"
     inkscape:window-height="886"
     id="namedview75"
     showgrid="false"
     inkscape:zoom="6.2890624"
     inkscape:cx="47.622361"
     inkscape:cy="45.396274"
     inkscape:window-x="-13"
     inkscape:window-y="58"
     inkscape:window-maximized="0"
     inkscape:current-layer="g877"
     inkscape:document-rotation="0"
     inkscape:pagecheckerboard="0"
     inkscape:showpageshadow="2"
     inkscape:deskcolor="#d1d1d1" />
  <defs
     id="defs29" />
  <circle
     cx="32.516094"
     cy="31.877844"
     r="0"
     fill="url(#b)"
     stroke-width="1.5715"
     id="circle41"
     style="fill:url(#b)" />
  <g
     aria-label="GZ"
     transform="matrix(1.2212657,0,0,0.81882264,0.4960938,-0.1661539)"
     id="text93"
     style="font-weight:bold;font-size:11.5263px;line-height:1.25;font-family:sans-serif;-inkscape-font-specification:'sans-serif Bold';fill:#f2f2f2;stroke-width:0.288159" />
  <g
     id="g877"
     transform="matrix(1.1,0,0,1.1,-3.1845928,-3.2065454)">
    <rect
       x="8.3496294"
       y="8.369586"
       width="47.272728"
       height="47.272728"
       rx="9.8825235"
       ry="9.6485243"
       fill="url(#linearGradient862)"
       stroke-width="3.0541"
       id="rect35-7-3"
       style="fill:#414141;fill-opacity:1;stroke:#dfdfdf;stroke-width:2.04545;stroke-dasharray:none;stroke-opacity:1" />
    <path
       id="path36"
       style="fill:#dfdfdf;stroke:none;stroke-width:0.509409;stroke-dasharray:none;stroke-opacity:0.6;fill-opacity:1"
       d="m 36.773291,16.585763 c -0.301085,0 -2.36803,1.815736 -3.129944,2.749583 -0.775099,0.95 -1.858285,2.958167 -1.858285,3.444072 0,0.176862 0.13582,0.2593 0.431452,0.261145 0.915466,0.0058 2.685745,0.489216 3.816868,1.042682 1.573283,0.769817 3.055761,2.257955 3.837677,3.852818 0.312992,0.63839 0.613208,1.409619 0.666114,1.712576 l 0.09653,0.550674 -0.27811,-0.393609 c -0.633189,-0.900553 -1.780955,-1.943034 -2.598278,-2.359755 -0.68294,-0.348214 -2.246104,-0.787221 -2.802566,-0.787221 -0.04263,0 0.259893,0.239452 0.673678,0.533643 3.722886,2.646874 3.612364,8.210528 -0.21382,10.765568 -1.903612,1.271186 -4.160294,1.36836 -6.384788,0.276291 -3.045352,-1.495067 -4.853416,-4.764735 -3.451659,-6.23908 0.911487,-0.958681 2.006962,-1.420926 3.884992,-1.636882 0.729509,-0.08386 1.057757,-0.223618 1.691764,-0.72477 0.432669,-0.342006 0.783275,-0.709417 0.777754,-0.815599 -0.0058,-0.106179 -0.625744,-0.492552 -1.377629,-0.859126 -0.751888,-0.366576 -1.90973,-1.101461 -2.573595,-1.633097 l -1.207325,-0.96699 -0.179768,-1.031329 c -0.104044,-0.597422 -0.133077,-1.458608 -0.07001,-2.047521 l 0.107866,-1.01619 -0.673673,0.376577 c -0.370559,0.20668 -1.198592,0.863832 -1.839367,1.460894 -0.664463,0.61913 -1.220781,1.024851 -1.296261,0.944279 -0.22283,-0.23789 -0.480653,-1.753821 -0.480653,-2.825273 0,-0.558378 -0.06201,-1.014298 -0.136267,-1.014298 -0.07425,0 -0.729837,0.618336 -1.459001,1.375735 -2.949271,3.063479 -4.272634,6.337827 -4.276704,10.585793 -0.0023,2.398236 0.376673,4.095187 1.398445,6.271245 0.848225,1.806446 1.747509,3.079488 3.158331,4.469729 2.332279,2.298239 5.045518,3.701687 8.288486,4.289944 3.581867,0.649729 7.552117,-0.105787 10.843156,-2.064552 2.728772,-1.624115 5.343766,-4.769219 6.405597,-7.703751 0.791966,-2.188669 1.01338,-3.628975 0.915911,-5.966569 -0.103908,-2.491548 -0.554612,-4.188212 -1.680406,-6.329902 -0.701075,-1.333702 -2.04253,-3.261727 -2.176196,-3.12805 -0.03187,0.03146 0.09363,0.353674 0.278111,0.715309 0.389869,0.764199 0.946178,2.829124 0.946178,3.514087 0,0.44164 -0.05395,0.399915 -0.840205,-0.658537 -0.461764,-0.621708 -1.883831,-2.196818 -3.160151,-3.500843 -2.344182,-2.39508 -3.409377,-3.786822 -3.739283,-4.887934 -0.09924,-0.331244 -0.250073,-0.601766 -0.334928,-0.601766 z m -2.88394,11.507363 c -0.09064,-0.0058 -0.186027,0.02065 -0.310356,0.06435 -0.351477,0.12361 -0.474946,0.307525 -0.635827,0.940499 -0.151679,0.596724 -0.383229,0.96112 -0.955633,1.508204 -0.665184,0.635757 -0.863328,0.733705 -1.67284,0.828847 -1.040357,0.122277 -1.589086,0.366392 -2.128895,0.944281 -0.322842,0.345602 -0.359239,0.496377 -0.26681,1.112702 0.212575,1.417585 1.646331,2.913965 3.188609,3.328642 1.542961,0.414857 2.457376,0.190027 3.508413,-0.861022 1.883392,-1.883396 1.91607,-5.293853 0.07001,-7.247692 -0.41919,-0.443673 -0.597277,-0.606288 -0.796677,-0.618799 z" />
  </g>
</svg>
