<?xml version="1.0" encoding="UTF-8" standalone="no"?>
<svg
   width="64"
   height="64"
   version="1.1"
   id="svg73"
   sodipodi:docname="audacious.svg"
   inkscape:version="1.4.2 (ebf0e940d0, 2025-05-08)"
   xmlns:inkscape="http://www.inkscape.org/namespaces/inkscape"
   xmlns:sodipodi="http://sodipodi.sourceforge.net/DTD/sodipodi-0.dtd"
   xmlns="http://www.w3.org/2000/svg"
   xmlns:svg="http://www.w3.org/2000/svg"
   xmlns:rdf="http://www.w3.org/1999/02/22-rdf-syntax-ns#"
   xmlns:cc="http://creativecommons.org/ns#"
   xmlns:dc="http://purl.org/dc/elements/1.1/">
  <metadata
     id="metadata77">
    <rdf:RDF>
      <cc:Work
         rdf:about="">
        <dc:format>image/svg+xml</dc:format>
        <dc:type
           rdf:resource="http://purl.org/dc/dcmitype/StillImage" />
      </cc:Work>
    </rdf:RDF>
  </metadata>
  <sodipodi:namedview
     pagecolor="#f5f7fa"
     bordercolor="#666666"
     borderopacity="1"
     objecttolerance="10"
     gridtolerance="10"
     guidetolerance="10"
     inkscape:pageopacity="0"
     inkscape:pageshadow="2"
     inkscape:window-width="1377"
     inkscape:window-height="886"
     id="namedview75"
     showgrid="false"
     inkscape:zoom="6.2890624"
     inkscape:cx="47.622361"
     inkscape:cy="45.396274"
     inkscape:window-x="-13"
     inkscape:window-y="58"
     inkscape:window-maximized="0"
     inkscape:current-layer="g877"
     inkscape:document-rotation="0"
     inkscape:pagecheckerboard="0"
     inkscape:showpageshadow="2"
     inkscape:deskcolor="#d1d1d1" />
  <defs
     id="defs29" />
  <circle
     cx="32.516094"
     cy="31.877844"
     r="0"
     fill="url(#b)"
     stroke-width="1.5715"
     id="circle41"
     style="fill:url(#b)" />
  <g
     aria-label="GZ"
     transform="matrix(1.2212657,0,0,0.81882264,0.4960938,-0.1661539)"
     id="text93"
     style="font-weight:bold;font-size:11.5263px;line-height:1.25;font-family:sans-serif;-inkscape-font-specification:'sans-serif Bold';fill:#f2f2f2;stroke-width:0.288159" />
  <g
     id="g877"
     transform="matrix(1.1,0,0,1.1,-3.1845928,-3.2065454)">
    <rect
       x="8.3496294"
       y="8.369586"
       width="47.272728"
       height="47.272728"
       rx="9.8825235"
       ry="9.6485243"
       fill="url(#linearGradient862)"
       stroke-width="3.0541"
       id="rect35-7-3"
       style="fill:#414141;fill-opacity:1;stroke:#dfdfdf;stroke-width:2.04545;stroke-dasharray:none;stroke-opacity:1" />
    <path
       id="path66"
       style="fill:#dfdfdf;fill-opacity:1;stroke:none;stroke-width:0.4725;stroke-dasharray:none;stroke-opacity:0.6"
       d="m 34.577291,17.024378 -0.14027,1.06128 c -0.176705,1.352699 -0.816798,3.018094 -1.674054,4.354014 -0.77452,1.206983 -2.890934,3.254901 -4.263576,4.1233 l -0.943154,0.596162 v 2.369883 c 0,2.873856 -0.213101,3.414911 -2.430791,6.196026 -2.389756,2.9969 -3.656145,6.003915 -3.606504,8.562217 l 0.01848,0.998524 0.382062,-1.216318 c 1.081331,-3.441602 3.845763,-6.172633 8.248423,-8.154317 2.5983,-1.169521 3.63509,-1.900828 4.512744,-3.176454 1.993711,-2.89776 2.16376,-7.791568 0.474346,-13.695117 z m -12.334832,1.279073 -0.132892,2.017352 c -0.221397,3.331197 -1.653253,6.852055 -4.245116,10.441144 -0.687384,0.951855 -1.344739,2.07398 -1.461797,2.49539 -0.652598,2.34935 0.306335,5.737314 2.715029,9.582889 l 1.000371,1.596533 0.13843,-1.816168 c 0.225465,-2.955761 1.522378,-5.729935 4.036551,-8.632355 3.091296,-3.568666 2.662418,-8.573754 -1.238467,-14.459239 z m 25.468859,5.190116 c -0.02598,0.0053 -0.06013,0.04517 -0.103352,0.118124 -1.266095,2.137374 -4.34742,4.184282 -8.152471,5.415294 -0.818127,0.26468 -1.5778,0.563901 -1.688818,0.666298 -0.111017,0.102407 -0.329134,0.689456 -0.485419,1.303066 -0.748714,2.939706 -1.939467,4.171615 -5.900712,6.111123 -1.636258,0.801151 -3.519084,1.896687 -4.184209,2.434484 -2.158859,1.745576 -3.653979,4.155937 -4.091924,6.594701 l -0.153194,0.850865 0.64784,-0.891472 c 1.905768,-2.620649 6.432232,-4.646511 12.244396,-5.481739 3.274449,-0.470552 4.489731,-0.936065 5.96162,-2.281289 2.519082,-2.302303 4.295537,-5.952352 5.367314,-11.026233 0.481341,-2.278794 0.679501,-3.658061 0.564777,-3.803993 -9.45e-4,-0.001 -0.0027,-0.0028 -0.0036,-0.0038 l -0.0019,-0.0019 h -0.0019 l -0.0019,-0.0019 h -0.0019 -0.0019 l -0.0019,-0.0019 h -0.0019 -0.0019 -0.0019 -0.0019 -0.0019 z" />
  </g>
</svg>
