<?xml version="1.0" encoding="UTF-8" standalone="no"?>
<svg
   width="64"
   height="64"
   version="1.1"
   id="svg73"
   sodipodi:docname="audacious.svg"
   inkscape:version="1.4.2 (ebf0e940d0, 2025-05-08)"
   xmlns:inkscape="http://www.inkscape.org/namespaces/inkscape"
   xmlns:sodipodi="http://sodipodi.sourceforge.net/DTD/sodipodi-0.dtd"
   xmlns="http://www.w3.org/2000/svg"
   xmlns:svg="http://www.w3.org/2000/svg"
   xmlns:rdf="http://www.w3.org/1999/02/22-rdf-syntax-ns#"
   xmlns:cc="http://creativecommons.org/ns#"
   xmlns:dc="http://purl.org/dc/elements/1.1/">
  <metadata
     id="metadata77">
    <rdf:RDF>
      <cc:Work
         rdf:about="">
        <dc:format>image/svg+xml</dc:format>
        <dc:type
           rdf:resource="http://purl.org/dc/dcmitype/StillImage" />
      </cc:Work>
    </rdf:RDF>
  </metadata>
  <sodipodi:namedview
     pagecolor="#f5f7fa"
     bordercolor="#666666"
     borderopacity="1"
     objecttolerance="10"
     gridtolerance="10"
     guidetolerance="10"
     inkscape:pageopacity="0"
     inkscape:pageshadow="2"
     inkscape:window-width="1377"
     inkscape:window-height="886"
     id="namedview75"
     showgrid="false"
     inkscape:zoom="6.2890624"
     inkscape:cx="46.191305"
     inkscape:cy="49.053417"
     inkscape:window-x="264"
     inkscape:window-y="75"
     inkscape:window-maximized="0"
     inkscape:current-layer="g877"
     inkscape:document-rotation="0"
     inkscape:pagecheckerboard="0"
     inkscape:showpageshadow="2"
     inkscape:deskcolor="#d1d1d1" />
  <defs
     id="defs29" />
  <circle
     cx="32.516094"
     cy="31.877844"
     r="0"
     fill="url(#b)"
     stroke-width="1.5715"
     id="circle41"
     style="fill:url(#b)" />
  <g
     aria-label="GZ"
     transform="matrix(1.2212657,0,0,0.81882264,0.4960938,-0.1661539)"
     id="text93"
     style="font-weight:bold;font-size:11.5263px;line-height:1.25;font-family:sans-serif;-inkscape-font-specification:'sans-serif Bold';fill:#f2f2f2;stroke-width:0.288159" />
  <g
     id="g877"
     transform="matrix(1.1,0,0,1.1,-3.1845928,-3.2065454)">
    <rect
       x="8.3496294"
       y="8.369586"
       width="47.272728"
       height="47.272728"
       rx="9.8825235"
       ry="9.6485243"
       fill="url(#linearGradient862)"
       stroke-width="3.0541"
       id="rect35-7-3"
       style="fill:#414141;fill-opacity:1;stroke:#dfdfdf;stroke-width:2.04545;stroke-dasharray:none;stroke-opacity:1" />
    <path
       style="fill:#dfdfdf;fill-opacity:1;stroke-width:0.453017"
       d="m 52.124313,29.97376 c -2.60007,0.928069 -3.161686,1.244534 -2.594737,1.462095 0.109346,0.04196 1.366507,-0.341763 2.793612,-0.852751 2.311662,-0.827706 3.150301,-1.136962 3.150302,-1.438725 0,-0.327215 -0.650372,-0.133923 -3.349177,0.829381 z m 2.660694,2.584355 c -0.159363,0.05529 -3.987784,1.352242 -4.080263,1.44473 -0.104926,0.104937 0.775953,1.877402 0.933041,1.877402 0.07561,0 0.844577,-0.251227 1.708801,-0.558282 l 2.21237,-0.643752 0.192317,-1.337837 c 0.08632,-0.600346 0.149825,-1.169474 0.08079,-1.145521 z m -0.008,3.473136 c -0.147554,0 -2.609909,0.888206 -2.693154,0.971452 -0.04754,0.04753 0.673375,1.750603 0.790684,1.867911 0.0334,0.03341 0.506821,-0.08763 1.051985,-0.269041 l 0.991151,-0.329866 0.192319,-1.227066 c 0.0954,-0.608695 0.278565,-1.248435 0.20116,-1.248437 z m -2.485352,5.55858 -0.476491,-0.859173 -1.733268,1.120347 c -0.953304,0.616187 -1.800995,1.144308 -1.883779,1.173594 -0.146365,0.05176 1.050723,1.764977 1.233283,1.764977 0.218933,0 3.359189,-2.053387 3.348549,-2.189581 -0.0064,-0.08306 -0.226214,-0.537624 -0.488277,-1.010181 z m -1.451273,-2.764972 c -0.24627,-0.415251 -0.468159,-0.8127 -0.493151,-0.883201 -0.03777,-0.106567 -3.664258,2.090136 -4.098257,2.482527 -0.195308,0.176741 1.08656,1.834202 1.314803,1.700015 1.123993,-0.660814 3.728884,-2.370493 3.726897,-2.446101 -0.0015,-0.05427 -0.204039,-0.43799 -0.4503,-0.853232 z m -1.51375,-2.933292 c -0.248332,-0.450556 -0.482041,-0.849702 -0.519315,-0.886975 -0.079,-0.079 -4.417732,2.648356 -4.547764,2.858737 -0.09951,0.160998 0.98073,1.641061 1.197788,1.641054 0.172187,0 4.324999,-2.611371 4.322557,-2.71811 -8.43e-4,-0.04136 -0.204917,-0.444155 -0.453254,-0.894718 z M 47.806018,32.97338 c -0.24378,-0.477561 -0.508568,-0.868297 -0.588375,-0.868283 -0.0798,3.3e-5 -1.013054,0.553478 -2.073915,1.229937 -1.060841,0.676473 -2.185874,1.392224 -2.500048,1.59058 l -0.571239,0.360631 0.646198,0.827385 c 0.422818,0.541395 0.722956,0.797936 0.868241,0.742182 0.29445,-0.112984 4.259547,-2.627401 4.485811,-2.844618 0.134021,-0.128617 0.06965,-0.379136 -0.266655,-1.037833 z m -0.331999,12.012821 c -0.349241,-0.431702 -0.670167,-0.788465 -0.713185,-0.792782 -0.04304,-0.0047 -0.775583,0.691942 -1.627982,1.547205 l -1.549802,1.555041 0.780024,0.634516 c 0.429004,0.348997 0.823183,0.634515 0.875927,0.634517 0.0528,8.3e-5 0.720074,-0.628558 1.482936,-1.396805 l 1.387161,-1.396656 z M 46.2795,30.06651 c -0.251943,-0.498327 -0.478421,-0.92883 -0.503274,-0.956665 -0.03618,-0.04076 -5.442618,3.345798 -5.636074,3.530545 -0.04409,0.04213 0.433016,0.690367 1.19718,1.626549 0.07858,0.09602 4.866286,-2.795198 5.299986,-3.200638 0.05515,-0.05156 -0.10584,-0.501459 -0.357822,-0.999779 z m -1.001597,12.32511 -0.720995,-0.812413 -1.65253,1.759861 c -0.908875,0.967942 -1.665693,1.809188 -1.6818,1.869456 -0.01628,0.06015 0.323657,0.39541 0.755037,0.744722 l 0.784318,0.635143 1.623216,-1.614211 c 0.892827,-0.887752 1.621128,-1.649254 1.618503,-1.692191 -0.0025,-0.04303 -0.329285,-0.443637 -0.725831,-0.890479 z m -1.776033,6.930024 c -0.451728,-0.341041 -0.882744,-0.582141 -0.957817,-0.535742 -0.07505,0.04637 -0.623118,0.874454 -1.217857,1.840144 -0.839466,1.363057 -1.036285,1.786218 -0.879859,1.891879 0.622077,0.420195 1.687942,0.885294 1.781993,0.777593 0.06022,-0.06874 0.556002,-0.851552 1.102054,-1.739434 l 0.992806,-1.614336 z m 0.256754,-23.841472 c -0.07224,-0.113875 -0.201603,-0.181906 -0.28763,-0.150993 -0.27497,0.09871 -5.906266,3.677249 -5.910274,3.755801 -0.0023,0.0416 0.0568,0.17126 0.130884,0.288326 0.106501,0.168207 0.770752,-0.191096 3.168814,-1.714015 1.668747,-1.059763 3.033044,-1.936991 3.031771,-1.949392 -0.0014,-0.01253 -0.06129,-0.115852 -0.133523,-0.229721 z m -0.50343,14.518932 c -0.354334,-0.428691 -0.679226,-0.783347 -0.721945,-0.788101 -0.04246,-0.0047 -0.94729,0.862911 -2.010152,1.928131 l -1.932498,1.936753 0.814418,0.695776 0.814409,0.695766 1.84002,-1.84444 1.840016,-1.844436 z m -2.2001,-2.576705 -0.709271,-0.79843 -2.15855,2.165918 -2.158548,2.165917 0.750993,0.63325 c 0.413047,0.348282 0.807705,0.633252 0.877007,0.633252 0.0693,-9e-6 1.021828,-0.900388 2.116723,-2.000848 l 1.990703,-2.000852 z m -0.269486,9.878785 c -0.463213,-0.321227 -0.894228,-0.525071 -0.9578,-0.453015 -0.189934,0.215243 -2.259667,3.613387 -2.359793,3.87431 -0.06949,0.181098 0.139884,0.358338 0.841653,0.712597 0.513786,0.259383 0.949985,0.450131 0.969344,0.423927 0.201231,-0.272381 2.210591,-3.60247 2.269915,-3.761837 0.05004,-0.134425 -0.228993,-0.425481 -0.763308,-0.795985 z m -1.906757,-12.451035 -0.647087,-0.771691 -2.30271,2.295999 c -1.266528,1.262762 -2.298947,2.364645 -2.29422,2.448682 0.0046,0.08405 0.360116,0.443363 0.789656,0.798496 l 0.781065,0.645622 2.117183,-2.21528 c 1.16442,-1.218431 2.136566,-2.263577 2.160237,-2.32264 0.02355,-0.05898 -0.248116,-0.454618 -0.60402,-0.879036 z m -0.661405,10.545912 c -0.452143,-0.341357 -0.882515,-0.583323 -0.956384,-0.537663 -0.101157,0.06234 -2.480878,3.837007 -2.83345,4.494037 -0.08882,0.165548 1.785925,1.065072 1.923039,0.922697 0.06616,-0.06861 0.698176,-1.054869 1.404548,-2.191611 l 1.284326,-2.066787 z m -0.704066,7.692187 c -0.513039,-0.242594 -0.975717,-0.391356 -1.028185,-0.330501 -0.09405,0.10928 -0.885355,2.473124 -0.885358,2.615097 0,0.04051 0.563098,-0.138961 1.156355,-0.270117 l 1.145669,-0.225781 0.272136,-0.545634 0.272152,-0.802041 z m -0.757036,-20.725643 -0.638682,-0.724009 -2.541463,2.549813 -2.541461,2.549812 0.80488,0.697353 0.804878,0.69735 2.378374,-2.370353 c 1.308109,-1.303687 2.376931,-2.439142 2.375223,-2.52317 -0.0018,-0.08402 -0.290492,-0.478596 -0.641777,-0.876796 z m -1.097452,11.10099 c -0.370437,-0.272504 -0.762908,-0.529768 -0.872177,-0.571693 -0.129183,-0.04958 -0.736472,0.793231 -1.736694,2.410263 -0.845904,1.367584 -1.538028,2.546693 -1.538028,2.620258 -8e-6,0.150593 1.772761,1.034141 1.872934,0.933499 0.136607,-0.137269 2.958939,-4.739581 2.953368,-4.816037 -0.0033,-0.0445 -0.308993,-0.303752 -0.679401,-0.576293 z m -1.013525,8.34895 c -0.436034,-0.197768 -0.882541,-0.380896 -0.992249,-0.406913 -0.132601,-0.03144 -0.423656,0.583636 -0.868284,1.835009 -0.36785,1.03525 -0.775659,2.438716 -0.775659,2.465879 -3.2e-5,0.02704 0.539696,-0.05564 1.173231,-0.0803 l 1.205285,-0.07632 0.53606,-1.851239 c 0.27718,-0.789012 0.506344,-1.455293 0.5092,-1.480662 0.0026,-0.02511 -0.351527,-0.207952 -0.787587,-0.405727 z m 0.0068,-21.957486 -0.634999,-0.780637 -2.768025,2.761149 -2.768021,2.761145 0.798198,0.709482 0.798201,0.709484 2.604811,-2.59548 c 1.4327,-1.427462 2.604853,-2.637989 2.604854,-2.689985 -1.15e-4,-0.05186 -0.285737,-0.445833 -0.635021,-0.875161 z m -1.719936,11.588316 c -0.71134,-0.537067 -0.861969,-0.597473 -1.035828,-0.415439 -0.111908,0.117141 -0.831396,1.232302 -1.598883,2.47811 -0.767487,1.245795 -1.493119,2.41428 -1.612505,2.596629 -0.208833,0.318978 -0.181494,0.349518 0.721009,0.805074 0.776581,0.392032 0.971003,0.438925 1.129355,0.272467 0.105211,-0.110613 0.874823,-1.305204 1.71026,-2.654732 l 1.518984,-2.453659 z m -0.432572,-14.094973 -0.667222,-0.755037 -2.956733,2.944619 -2.956735,2.94462 0.493697,0.421712 c 1.249575,1.067409 0.853967,1.253136 3.978175,-1.867648 1.530199,-1.528562 2.780813,-2.813834 2.779103,-2.856197 -0.0019,-0.04233 -0.303349,-0.416803 -0.67034,-0.832057 z m -1.736968,22.729441 c -0.326767,-0.174889 -0.23338,-0.365971 -1.216301,2.488552 -0.400386,1.162744 -0.774728,2.233005 -0.831875,2.37835 -0.08121,0.206475 -0.02614,0.264026 0.252143,0.262785 0.324517,-0.0014 0.431695,-0.221034 1.214798,-2.491325 0.805058,-2.333914 0.841492,-2.499249 0.581369,-2.638463 z m -0.24521,-10.52385 c -0.14899,-0.05716 -0.294763,-0.04073 -0.323975,0.03659 -0.02936,0.07724 -0.863012,1.431517 -1.852891,3.009532 -1.59242,2.538552 -1.771617,2.890443 -1.555335,3.054264 0.213536,0.16172 0.472902,-0.182024 2.050964,-2.718116 0.993589,-1.596788 1.839281,-2.987618 1.879319,-3.090734 0.04007,-0.10311 -0.04909,-0.234283 -0.198069,-0.2914 z m -0.682855,-15.38681 c -0.175814,-0.10864 -2.617164,2.240677 -5.005041,4.816363 -1.075638,1.160243 -1.328722,1.513682 -1.159644,1.619507 0.162885,0.101934 0.971369,-0.618445 3.27415,-2.917316 1.681792,-1.67901 3.057874,-3.134232 3.057872,-3.233906 -8e-6,-0.09968 -0.07528,-0.227776 -0.16732,-0.284652 z"
       id="path1-8"
       sodipodi:nodetypes="ssssssssscssscssccsccccscscccsscccsscssscccccccccccccscccccccsscscsssccccscccccccssccccccccscccscscccccscccccssccscsssssscccccccccccccscccccsccccccccccccccccccscccccccccccccccccccccccscssccccscccccsccccscccccccscsccccsssscc" />
  </g>
</svg>
