<?xml version="1.0" encoding="UTF-8" standalone="no"?>
<svg
   width="64"
   height="64"
   version="1.1"
   id="svg73"
   sodipodi:docname="audacious.svg"
   inkscape:version="1.4.2 (ebf0e940d0, 2025-05-08)"
   xmlns:inkscape="http://www.inkscape.org/namespaces/inkscape"
   xmlns:sodipodi="http://sodipodi.sourceforge.net/DTD/sodipodi-0.dtd"
   xmlns="http://www.w3.org/2000/svg"
   xmlns:svg="http://www.w3.org/2000/svg"
   xmlns:rdf="http://www.w3.org/1999/02/22-rdf-syntax-ns#"
   xmlns:cc="http://creativecommons.org/ns#"
   xmlns:dc="http://purl.org/dc/elements/1.1/">
  <metadata
     id="metadata77">
    <rdf:RDF>
      <cc:Work
         rdf:about="">
        <dc:format>image/svg+xml</dc:format>
        <dc:type
           rdf:resource="http://purl.org/dc/dcmitype/StillImage" />
      </cc:Work>
    </rdf:RDF>
  </metadata>
  <sodipodi:namedview
     pagecolor="#f5f7fa"
     bordercolor="#666666"
     borderopacity="1"
     objecttolerance="10"
     gridtolerance="10"
     guidetolerance="10"
     inkscape:pageopacity="0"
     inkscape:pageshadow="2"
     inkscape:window-width="1377"
     inkscape:window-height="886"
     id="namedview75"
     showgrid="false"
     inkscape:zoom="6.2890624"
     inkscape:cx="37.445963"
     inkscape:cy="34.901864"
     inkscape:window-x="1"
     inkscape:window-y="75"
     inkscape:window-maximized="0"
     inkscape:current-layer="g877"
     inkscape:document-rotation="0"
     inkscape:pagecheckerboard="0"
     inkscape:showpageshadow="2"
     inkscape:deskcolor="#d1d1d1" />
  <defs
     id="defs29" />
  <circle
     cx="32.516094"
     cy="31.877844"
     r="0"
     fill="url(#b)"
     stroke-width="1.5715"
     id="circle41"
     style="fill:url(#b)" />
  <g
     aria-label="GZ"
     transform="matrix(1.2212657,0,0,0.81882264,0.4960938,-0.1661539)"
     id="text93"
     style="font-weight:bold;font-size:11.5263px;line-height:1.25;font-family:sans-serif;-inkscape-font-specification:'sans-serif Bold';fill:#f2f2f2;stroke-width:0.288159" />
  <g
     id="g877"
     transform="matrix(1.1,0,0,1.1,-3.1845928,-3.2065454)">
    <rect
       x="8.3496294"
       y="8.369586"
       width="47.272728"
       height="47.272728"
       rx="9.8825235"
       ry="9.6485243"
       fill="url(#linearGradient862)"
       stroke-width="3.0541"
       id="rect35-7-3"
       style="fill:#414141;fill-opacity:1;stroke:#dfdfdf;stroke-width:2.04545;stroke-dasharray:none;stroke-opacity:1" />
    <path
       style="fill:#dfdfdf;fill-opacity:1;stroke:none;stroke-width:0.463097;stroke-dasharray:none;stroke-opacity:0.6"
       d="m 22.874317,46.989845 c 0.0612,-0.446647 0.333278,-1.611069 0.556654,-2.382522 0.554689,-1.915654 1.451936,-3.690077 2.354143,-4.655618 0.210314,-0.225107 0.697903,-0.647638 1.08353,-0.939029 1.100383,-0.831467 1.740069,-1.379626 2.666714,-2.285154 2.852501,-2.787516 5.209307,-6.373584 6.762802,-10.290175 0.344886,-0.869493 0.785335,-2.16949 0.747774,-2.207052 -0.01403,-0.01469 -0.05983,0.07596 -0.10038,0.201304 -0.260687,0.806036 -1.039056,2.459035 -1.696275,3.602364 -2.251064,3.916073 -5.200473,7.174164 -9.47278,10.4642 -0.922365,0.710305 -1.529657,1.363923 -2.292183,2.467049 -0.226659,0.327907 -0.420501,0.606743 -0.430759,0.619642 -0.07949,0.09991 -0.643385,-0.910545 -0.973265,-1.744027 -0.812363,-2.052503 -1.153076,-4.092638 -1.014291,-6.073377 0.338746,-4.834704 3.391055,-8.807741 9.043285,-11.771198 1.058225,-0.554829 2.15786,-1.046042 3.61329,-1.614082 1.408118,-0.549574 2.265126,-0.96777 3.125726,-1.525255 0.751856,-0.487047 1.789416,-1.266172 2.326926,-1.747323 0.223237,-0.199887 0.429775,-0.363427 0.458851,-0.363427 0.170138,0 1.473904,2.5525 1.927368,3.773533 0.63485,1.709448 1.078779,3.53293 1.271313,5.222118 0.219145,1.922243 0.08037,4.499455 -0.326196,6.059377 -0.618135,2.37176 -2.002197,4.823143 -3.733814,6.613173 -2.357584,2.43711 -5.206055,3.763363 -8.75803,4.077766 -0.772648,0.06838 -2.78981,0.04471 -3.494451,-0.04115 l -0.304195,-0.037 -0.394256,0.778152 c -0.417923,0.824917 -0.759635,1.811058 -0.963677,2.781145 l -0.124006,0.589534 -0.716685,0.251729 c -0.394177,0.138518 -0.821145,0.296639 -0.948819,0.351479 l -0.232129,0.09971 z"
       id="path1" />
  </g>
</svg>
