<?xml version="1.0" encoding="UTF-8" standalone="no"?>
<svg
   width="64"
   height="64"
   version="1.1"
   id="svg73"
   sodipodi:docname="audacious.svg"
   inkscape:version="1.4.2 (ebf0e940d0, 2025-05-08)"
   xmlns:inkscape="http://www.inkscape.org/namespaces/inkscape"
   xmlns:sodipodi="http://sodipodi.sourceforge.net/DTD/sodipodi-0.dtd"
   xmlns="http://www.w3.org/2000/svg"
   xmlns:svg="http://www.w3.org/2000/svg"
   xmlns:rdf="http://www.w3.org/1999/02/22-rdf-syntax-ns#"
   xmlns:cc="http://creativecommons.org/ns#"
   xmlns:dc="http://purl.org/dc/elements/1.1/">
  <metadata
     id="metadata77">
    <rdf:RDF>
      <cc:Work
         rdf:about="">
        <dc:format>image/svg+xml</dc:format>
        <dc:type
           rdf:resource="http://purl.org/dc/dcmitype/StillImage" />
      </cc:Work>
    </rdf:RDF>
  </metadata>
  <sodipodi:namedview
     pagecolor="#f5f7fa"
     bordercolor="#666666"
     borderopacity="1"
     objecttolerance="10"
     gridtolerance="10"
     guidetolerance="10"
     inkscape:pageopacity="0"
     inkscape:pageshadow="2"
     inkscape:window-width="1377"
     inkscape:window-height="886"
     id="namedview75"
     showgrid="false"
     inkscape:zoom="6.2890624"
     inkscape:cx="47.622361"
     inkscape:cy="45.396274"
     inkscape:window-x="-13"
     inkscape:window-y="58"
     inkscape:window-maximized="0"
     inkscape:current-layer="g877"
     inkscape:document-rotation="0"
     inkscape:pagecheckerboard="0"
     inkscape:showpageshadow="2"
     inkscape:deskcolor="#d1d1d1" />
  <defs
     id="defs29" />
  <circle
     cx="32.516094"
     cy="31.877844"
     r="0"
     fill="url(#b)"
     stroke-width="1.5715"
     id="circle41"
     style="fill:url(#b)" />
  <g
     aria-label="GZ"
     transform="matrix(1.2212657,0,0,0.81882264,0.4960938,-0.1661539)"
     id="text93"
     style="font-weight:bold;font-size:11.5263px;line-height:1.25;font-family:sans-serif;-inkscape-font-specification:'sans-serif Bold';fill:#f2f2f2;stroke-width:0.288159" />
  <g
     id="g877"
     transform="matrix(1.1,0,0,1.1,-3.1845928,-3.2065454)">
    <rect
       x="8.3496294"
       y="8.369586"
       width="47.272728"
       height="47.272728"
       rx="9.8825235"
       ry="9.6485243"
       fill="url(#linearGradient862)"
       stroke-width="3.0541"
       id="rect35-7-3"
       style="fill:#414141;fill-opacity:1;stroke:#dfdfdf;stroke-width:2.04545;stroke-dasharray:none;stroke-opacity:1" />
    <path
       id="path71"
       style="fill:#dfdfdf;fill-opacity:1;stroke:none;stroke-width:0.496125;stroke-dasharray:none;stroke-opacity:0.6"
       d="m 32.043284,16.352735 c -2.545031,0 -3.119884,0.07393 -4.686055,0.594961 -2.462877,0.819333 -4.388316,1.999447 -6.259702,3.839155 -2.572136,2.528598 -4.087326,5.641652 -4.593032,9.439941 -0.219577,1.649196 -0.202056,2.299136 0.106589,4.125978 0.428093,2.53384 1.146573,4.371476 2.523262,6.449628 1.995975,3.012982 5.48305,5.486771 9.054282,6.42249 0.995432,0.260818 2.399565,0.428952 3.631789,0.434109 4.396753,0.0184 8.044746,-1.463612 11.135677,-4.521328 1.525004,-1.508617 2.022197,-2.187144 2.883725,-3.941867 1.35692,-2.763727 1.775207,-4.472929 1.775207,-7.251951 0,-2.697351 -0.419514,-4.490762 -1.618222,-6.916681 -1.983003,-4.013146 -5.044848,-6.681223 -9.269401,-8.081412 -1.563485,-0.518197 -2.143451,-0.593023 -4.684119,-0.593023 z m 0.292637,3.034887 c 3.102542,0.07746 6.174593,1.329342 8.546528,3.74032 2.414142,2.453873 3.535745,5.238952 3.540706,8.7849 0.0047,3.636713 -1.09845,6.383806 -3.560089,8.858548 -1.77977,1.789242 -3.430715,2.754446 -5.70931,3.337213 -2.148943,0.549618 -4.183449,0.545905 -6.304277,-0.01 -2.28109,-0.597408 -3.68975,-1.420935 -5.532955,-3.230453 -2.585049,-2.537804 -3.708343,-5.27298 -3.693806,-9.001958 0.01433,-3.679638 1.34937,-6.75183 3.982566,-9.168621 2.494479,-2.289477 5.628094,-3.387547 8.730637,-3.310085 z m -0.300389,4.860476 -3.78683,3.792644 -3.786828,3.792643 h 1.056205 1.058141 v 4.015511 4.015512 h 5.467064 5.465127 v -4.015512 -4.015511 h 1.052327 1.05233 l -1.05233,-1.067833 -1.052327,-1.067832 v -2.168608 -2.16667 h -1.00388 -1.003875 v 1.16473 1.166668 l -1.732562,-1.722869 z" />
  </g>
</svg>
