<?xml version="1.0" encoding="UTF-8" standalone="no"?>
<svg
   width="64"
   height="64"
   version="1.1"
   id="svg73"
   sodipodi:docname="accessories-text-editor.svg"
   inkscape:version="1.4.2 (ebf0e940d0, 2025-05-08)"
   xmlns:inkscape="http://www.inkscape.org/namespaces/inkscape"
   xmlns:sodipodi="http://sodipodi.sourceforge.net/DTD/sodipodi-0.dtd"
   xmlns="http://www.w3.org/2000/svg"
   xmlns:svg="http://www.w3.org/2000/svg"
   xmlns:rdf="http://www.w3.org/1999/02/22-rdf-syntax-ns#"
   xmlns:cc="http://creativecommons.org/ns#"
   xmlns:dc="http://purl.org/dc/elements/1.1/">
  <metadata
     id="metadata77">
    <rdf:RDF>
      <cc:Work
         rdf:about="">
        <dc:format>image/svg+xml</dc:format>
        <dc:type
           rdf:resource="http://purl.org/dc/dcmitype/StillImage" />
      </cc:Work>
    </rdf:RDF>
  </metadata>
  <sodipodi:namedview
     pagecolor="#f5f7fa"
     bordercolor="#666666"
     borderopacity="1"
     objecttolerance="10"
     gridtolerance="10"
     guidetolerance="10"
     inkscape:pageopacity="0"
     inkscape:pageshadow="2"
     inkscape:window-width="1377"
     inkscape:window-height="886"
     id="namedview75"
     showgrid="false"
     inkscape:zoom="6.2890624"
     inkscape:cx="43.011181"
     inkscape:cy="42.693168"
     inkscape:window-x="264"
     inkscape:window-y="75"
     inkscape:window-maximized="0"
     inkscape:current-layer="g877"
     inkscape:document-rotation="0"
     inkscape:pagecheckerboard="0"
     inkscape:showpageshadow="2"
     inkscape:deskcolor="#d1d1d1" />
  <defs
     id="defs29" />
  <circle
     cx="32.516094"
     cy="31.877844"
     r="0"
     fill="url(#b)"
     stroke-width="1.5715"
     id="circle41"
     style="fill:url(#b)" />
  <g
     aria-label="GZ"
     transform="matrix(1.2212657,0,0,0.81882264,0.4960938,-0.1661539)"
     id="text93"
     style="font-weight:bold;font-size:11.5263px;line-height:1.25;font-family:sans-serif;-inkscape-font-specification:'sans-serif Bold';fill:#f2f2f2;stroke-width:0.288159" />
  <g
     id="g877"
     transform="matrix(1.1,0,0,1.1,-3.1845928,-3.2065454)">
    <rect
       x="8.3496294"
       y="8.369586"
       width="47.272728"
       height="47.272728"
       rx="9.8825235"
       ry="9.6485243"
       fill="url(#linearGradient862)"
       stroke-width="3.0541"
       id="rect35-7-3"
       style="fill:#414141;fill-opacity:1;stroke:#dfdfdf;stroke-width:2.04545;stroke-dasharray:none;stroke-opacity:1" />
    <path
       style="fill:#dfdfdf;fill-opacity:1;stroke-width:0.318601"
       d="m 19.827541,46.110611 c -0.267016,-0.267032 -0.38232,-1.996571 -0.38232,-5.73483 v -5.352502 h 11.947557 11.947553 v 5.405016 c 0,5.017706 -0.04416,5.428644 -0.616261,5.734829 -0.928369,0.496847 -22.396401,0.447608 -22.896529,-0.05251 z m -1.914909,-12.919293 0.09888,-1.194753 13.30161,-0.08315 13.301609,-0.08315 v 1.277901 1.277902 H 31.214244 17.81375 Z m 4.300419,-2.428428 c -0.09225,-0.240443 -0.264194,-1.08023 -0.382055,-1.866191 L 21.6167,27.467675 22.939803,27.256102 c 0.727707,-0.116366 1.441229,-0.138562 1.585608,-0.04933 0.144382,0.08924 0.362269,0.827501 0.484202,1.640597 0.121936,0.813097 0.297186,1.675082 0.38945,1.915526 0.128388,0.33457 -0.206107,0.437172 -1.425249,0.437172 -1.056133,0 -1.649545,-0.147337 -1.760763,-0.437173 z m 7.427417,0.168446 c 0,-0.147802 0.28358,-1.09295 0.630165,-2.100338 0.569827,-1.656227 0.585081,-1.9188 0.159304,-2.742165 -0.258976,-0.500807 -0.470868,-1.315886 -0.470868,-1.811294 0,-1.412805 1.465073,-3.241164 2.61433,-3.262591 0.500917,-0.0092 0.506521,0.09445 0.07162,1.327053 -0.440464,1.248417 -0.430876,1.378101 0.144447,1.953423 0.969617,0.969614 2.077255,0.511392 2.546042,-1.053277 0.445517,-1.48699 0.748341,-1.599683 1.263045,-0.470033 0.819885,1.799452 -0.09136,4.388463 -1.685429,4.788548 -0.629667,0.158036 -0.916201,0.56787 -1.342472,1.92016 l -0.541943,1.719239 h -1.694122 c -0.93177,0 -1.694126,-0.120924 -1.694125,-0.268725 z m 9.707293,-2.093308 c 1.001359,-1.35405 1.872785,-2.922755 2.042027,-3.675977 0.21761,-0.968528 0.692566,-1.666727 1.806709,-2.655939 0.831315,-0.738098 1.706412,-1.457126 1.944661,-1.597841 0.500899,-0.295844 2.340992,0.675907 2.340992,1.236274 0,0.200821 -0.430969,1.315624 -0.95771,2.477324 -0.723207,1.595008 -1.261707,2.304087 -2.199244,2.895932 -0.682848,0.43106 -1.709886,1.435915 -2.282312,2.233003 -1.011828,1.408938 -1.088095,1.449257 -2.741356,1.449257 h -1.70058 z M 21.526676,25.265201 c -0.290224,-1.935345 -0.466321,-2.348779 -1.000439,-2.348779 -0.244094,0 -0.443814,-0.143372 -0.443814,-0.318602 0,-0.473755 -0.885069,-0.385494 -1.178924,0.117567 -0.140133,0.239892 -0.57259,0.534778 -0.961024,0.655303 -0.757123,0.234928 -0.702547,0.342441 -1.332981,-2.625997 -0.329502,-1.551473 -0.01896,-1.877298 1.440199,-1.511073 0.533899,0.134001 1.020101,0.04392 1.353342,-0.250687 0.56803,-0.502207 4.906179,-1.482736 6.560051,-1.482736 2.013399,0 4.183668,1.129056 4.969041,2.585086 0.246614,0.457209 0.111,0.481465 -1.224012,0.218923 -1.442725,-0.283727 -4.243143,-0.14819 -5.297464,0.256394 -0.277754,0.10659 -0.505011,0.524928 -0.505011,0.929656 0,0.404727 -0.159838,0.789145 -0.355187,0.854266 -0.258967,0.0863 -0.250517,0.62264 0.03129,1.979714 0.420287,2.024657 0.240464,2.400538 -1.153236,2.410526 -0.566349,0.0042 -0.717837,-0.242809 -0.9018,-1.469561 z"
       id="path423" />
  </g>
</svg>
