<?xml version="1.0" encoding="UTF-8" standalone="no"?>
<svg
   width="64"
   height="64"
   version="1.1"
   id="svg73"
   sodipodi:docname="audacious.svg"
   inkscape:version="1.4.2 (ebf0e940d0, 2025-05-08)"
   xmlns:inkscape="http://www.inkscape.org/namespaces/inkscape"
   xmlns:sodipodi="http://sodipodi.sourceforge.net/DTD/sodipodi-0.dtd"
   xmlns="http://www.w3.org/2000/svg"
   xmlns:svg="http://www.w3.org/2000/svg"
   xmlns:rdf="http://www.w3.org/1999/02/22-rdf-syntax-ns#"
   xmlns:cc="http://creativecommons.org/ns#"
   xmlns:dc="http://purl.org/dc/elements/1.1/">
  <metadata
     id="metadata77">
    <rdf:RDF>
      <cc:Work
         rdf:about="">
        <dc:format>image/svg+xml</dc:format>
        <dc:type
           rdf:resource="http://purl.org/dc/dcmitype/StillImage" />
      </cc:Work>
    </rdf:RDF>
  </metadata>
  <sodipodi:namedview
     pagecolor="#f5f7fa"
     bordercolor="#666666"
     borderopacity="1"
     objecttolerance="10"
     gridtolerance="10"
     guidetolerance="10"
     inkscape:pageopacity="0"
     inkscape:pageshadow="2"
     inkscape:window-width="1377"
     inkscape:window-height="886"
     id="namedview75"
     showgrid="false"
     inkscape:zoom="6.2890624"
     inkscape:cx="46.82733"
     inkscape:cy="42.21615"
     inkscape:window-x="37"
     inkscape:window-y="75"
     inkscape:window-maximized="0"
     inkscape:current-layer="g877"
     inkscape:document-rotation="0"
     inkscape:pagecheckerboard="0"
     inkscape:showpageshadow="2"
     inkscape:deskcolor="#d1d1d1" />
  <defs
     id="defs29" />
  <circle
     cx="32.516094"
     cy="31.877844"
     r="0"
     fill="url(#b)"
     stroke-width="1.5715"
     id="circle41"
     style="fill:url(#b)" />
  <g
     aria-label="GZ"
     transform="matrix(1.2212657,0,0,0.81882264,0.4960938,-0.1661539)"
     id="text93"
     style="font-weight:bold;font-size:11.5263px;line-height:1.25;font-family:sans-serif;-inkscape-font-specification:'sans-serif Bold';fill:#f2f2f2;stroke-width:0.288159" />
  <g
     id="g877"
     transform="matrix(1.1,0,0,1.1,-3.1845928,-3.2065454)">
    <rect
       x="8.3496294"
       y="8.369586"
       width="47.272728"
       height="47.272728"
       rx="9.8825235"
       ry="9.6485243"
       fill="url(#linearGradient862)"
       stroke-width="3.0541"
       id="rect35-7-3"
       style="fill:#414141;fill-opacity:1;stroke:#dfdfdf;stroke-width:2.04545;stroke-dasharray:none;stroke-opacity:1" />
    <path
       style="fill:#dfdfdf;fill-opacity:1;stroke:none;stroke-width:0.520931;stroke-dasharray:none;stroke-opacity:0.6"
       d="m 25.580144,43.865929 -1.965923,-2.252104 h -2.755015 c -1.798431,0 -2.87661,-0.03662 -3.105218,-0.104895 -0.492087,-0.147418 -0.971408,-0.572244 -1.23697,-1.096309 L 16.290375,39.965332 V 29.75594 c 0,-11.109763 -0.02868,-10.476414 0.505917,-11.177292 0.123459,-0.161855 0.405969,-0.38215 0.627805,-0.489538 l 0.403341,-0.195259 14.161123,0.0015 c 8.614375,8.27e-4 14.250165,0.0352 14.388447,0.08777 0.352186,0.133912 0.881064,0.639658 1.103436,1.055224 l 0.201438,0.376389 v 10.29529 10.295303 L 47.483093,40.373 c -0.109324,0.202261 -0.337005,0.50037 -0.505917,0.662529 -0.621123,0.596237 -0.365746,0.578423 -8.294676,0.578423 h -7.18377 l -1.965924,2.2521 c -1.081257,1.23865 -1.970607,2.252096 -1.97633,2.252096 -0.0059,0 -0.895074,-1.013446 -1.976332,-2.252096 z M 46.07729,41.06268 c 0.179171,-0.04976 0.456311,-0.225351 0.615818,-0.390158 0.610228,-0.630501 0.575152,0.03437 0.574582,-10.890745 -3.35e-4,-6.531636 -0.03293,-10.024068 -0.09548,-10.249439 -0.05224,-0.188022 -0.201687,-0.46872 -0.332136,-0.623776 -0.490265,-0.582669 0.01324,-0.551084 -8.783958,-0.551084 H 30.02984 l -0.615859,0.359889 c -1.34104,0.783659 -2.622682,1.973679 -3.432143,3.186785 -0.578327,0.866717 -0.872965,1.501066 -1.20734,2.599386 -0.213607,0.701637 -0.24229,0.954589 -0.24639,2.172911 -0.0059,1.663021 0.103089,2.138553 0.819338,3.584973 1.032966,2.085997 2.816661,3.569607 4.869156,4.04998 0.948109,0.221899 2.448475,0.146777 3.337405,-0.167097 2.79851,-0.988137 4.179691,-3.775746 3.062604,-6.181205 -0.305263,-0.657341 -0.944159,-1.325278 -1.549271,-1.619694 -0.577709,-0.28108 -1.499789,-0.338888 -2.11995,-0.132902 -1.361069,0.452074 -1.920072,2.033663 -1.032501,2.921237 0.30259,0.302588 0.404091,0.34834 0.772809,0.34834 0.237462,0 0.424462,-0.04287 0.424462,-0.09737 0,-0.05354 -0.04218,-0.07128 -0.09371,-0.03943 -0.05156,0.03186 -0.242072,0.0089 -0.423393,-0.05089 -0.258014,-0.08514 -0.368438,-0.196424 -0.507983,-0.511891 -0.45399,-1.026318 0.421602,-2.178431 1.539166,-2.025252 0.734412,0.100653 1.298465,0.483788 1.611771,1.09477 0.585941,1.142656 0.291659,2.635541 -0.699652,3.549298 -1.090964,1.005617 -2.571102,1.160459 -4.062305,0.424973 -2.414756,-1.191002 -3.263179,-4.171535 -1.962526,-6.8944 0.664897,-1.391932 1.621002,-2.33396 3.081923,-3.036538 1.119296,-0.538287 2.064841,-0.722604 3.391601,-0.661129 2.186971,0.101335 3.883903,0.868755 5.533922,2.502678 1.917709,1.899 2.791481,4.027292 2.792673,6.802254 5.5e-4,1.353705 -0.08262,1.979142 -0.417763,3.140785 -0.508654,1.762976 -1.508793,3.539524 -2.743287,4.872895 -0.49452,0.534129 -1.536372,1.402967 -2.949883,2.460019 -0.164078,0.122718 0.285958,0.137717 4.182464,0.139865 2.591666,0.0016 4.498731,-0.03438 4.692125,-0.08814 z"
       id="path8-1" />
  </g>
</svg>
