<?xml version="1.0" encoding="UTF-8" standalone="no"?>
<svg
   width="64"
   height="64"
   version="1.1"
   id="svg73"
   sodipodi:docname="audacious.svg"
   inkscape:version="1.4.2 (ebf0e940d0, 2025-05-08)"
   xmlns:inkscape="http://www.inkscape.org/namespaces/inkscape"
   xmlns:sodipodi="http://sodipodi.sourceforge.net/DTD/sodipodi-0.dtd"
   xmlns="http://www.w3.org/2000/svg"
   xmlns:svg="http://www.w3.org/2000/svg"
   xmlns:rdf="http://www.w3.org/1999/02/22-rdf-syntax-ns#"
   xmlns:cc="http://creativecommons.org/ns#"
   xmlns:dc="http://purl.org/dc/elements/1.1/">
  <metadata
     id="metadata77">
    <rdf:RDF>
      <cc:Work
         rdf:about="">
        <dc:format>image/svg+xml</dc:format>
        <dc:type
           rdf:resource="http://purl.org/dc/dcmitype/StillImage" />
      </cc:Work>
    </rdf:RDF>
  </metadata>
  <sodipodi:namedview
     pagecolor="#f5f7fa"
     bordercolor="#666666"
     borderopacity="1"
     objecttolerance="10"
     gridtolerance="10"
     guidetolerance="10"
     inkscape:pageopacity="0"
     inkscape:pageshadow="2"
     inkscape:window-width="1377"
     inkscape:window-height="886"
     id="namedview75"
     showgrid="false"
     inkscape:zoom="6.2890624"
     inkscape:cx="46.82733"
     inkscape:cy="42.21615"
     inkscape:window-x="37"
     inkscape:window-y="75"
     inkscape:window-maximized="0"
     inkscape:current-layer="g877"
     inkscape:document-rotation="0"
     inkscape:pagecheckerboard="0"
     inkscape:showpageshadow="2"
     inkscape:deskcolor="#d1d1d1" />
  <defs
     id="defs29" />
  <circle
     cx="32.516094"
     cy="31.877844"
     r="0"
     fill="url(#b)"
     stroke-width="1.5715"
     id="circle41"
     style="fill:url(#b)" />
  <g
     aria-label="GZ"
     transform="matrix(1.2212657,0,0,0.81882264,0.4960938,-0.1661539)"
     id="text93"
     style="font-weight:bold;font-size:11.5263px;line-height:1.25;font-family:sans-serif;-inkscape-font-specification:'sans-serif Bold';fill:#f2f2f2;stroke-width:0.288159" />
  <g
     id="g877"
     transform="matrix(1.1,0,0,1.1,-3.1845928,-3.2065454)">
    <rect
       x="8.3496294"
       y="8.369586"
       width="47.272728"
       height="47.272728"
       rx="9.8825235"
       ry="9.6485243"
       fill="url(#linearGradient862)"
       stroke-width="3.0541"
       id="rect35-7-3"
       style="fill:#414141;fill-opacity:1;stroke:#dfdfdf;stroke-width:2.04545;stroke-dasharray:none;stroke-opacity:1" />
    <path
       id="path83"
       style="fill:#dfdfdf;fill-opacity:1;stroke:none;stroke-width:0.541509;stroke-dasharray:none;stroke-opacity:0.6"
       d="m 41.314313,16.41002 -2.142757,0.06979 -2.140653,0.06978 -4.649355,9.006802 -4.649354,9.004686 0.708614,1.345311 c 0.390413,0.739816 0.869284,1.601932 1.063979,1.916432 0.337392,0.544996 0.367194,0.55162 0.655733,0.1227 0.166502,-0.247531 1.651705,-3.080358 3.299815,-6.295037 1.648108,-3.214684 4.089902,-7.95862 5.425658,-10.542487 z m 2.466403,0.019 -6.658857,12.907352 c -3.66263,7.099094 -6.726276,12.907358 -6.809041,12.907358 -0.08274,0 -0.858655,-1.316028 -1.723941,-2.923298 l -1.573757,-2.92116 h -2.11315 -2.113151 l 1.201469,2.252758 c 0.66168,1.238991 1.997999,3.758713 2.967719,5.59911 l 1.762019,3.346353 1.592792,0.0022 1.590682,0.0022 7.968203,-15.432977 c 4.381845,-8.487773 7.966093,-15.500566 7.966093,-15.585279 v -0.0022 -0.0022 l -0.0022,-0.0022 v -0.0022 l -0.0022,-0.0022 c -0.08006,-0.07924 -0.961121,-0.143835 -2.024307,-0.143835 z m -27.646525,19.970249 0.958216,1.766244 c 0.526856,0.971105 1.874186,3.491589 2.993101,5.601228 l 2.032771,3.834976 h 1.529337 c 1.508105,0 1.535393,-0.01122 1.975658,-0.869378 l 0.446322,-0.871484 -0.98783,-1.931241 c -0.590715,-1.153631 -1.108219,-1.883787 -1.286082,-1.817011 -0.181335,0.06809 -0.896197,-1.026781 -1.827588,-2.798496 l -1.527223,-2.906375 -2.153341,-0.0044 z" />
  </g>
</svg>
