<?xml version="1.0" encoding="UTF-8" standalone="no"?>
<svg
   width="64"
   height="64"
   version="1.1"
   id="svg73"
   sodipodi:docname="partitionmanager.svg"
   inkscape:version="1.3.2 (091e20ef0f, 2023-11-25)"
   xmlns:inkscape="http://www.inkscape.org/namespaces/inkscape"
   xmlns:sodipodi="http://sodipodi.sourceforge.net/DTD/sodipodi-0.dtd"
   xmlns="http://www.w3.org/2000/svg"
   xmlns:svg="http://www.w3.org/2000/svg"
   xmlns:rdf="http://www.w3.org/1999/02/22-rdf-syntax-ns#"
   xmlns:cc="http://creativecommons.org/ns#"
   xmlns:dc="http://purl.org/dc/elements/1.1/">
  <metadata
     id="metadata77">
    <rdf:RDF>
      <cc:Work
         rdf:about="">
        <dc:format>image/svg+xml</dc:format>
        <dc:type
           rdf:resource="http://purl.org/dc/dcmitype/StillImage" />
      </cc:Work>
    </rdf:RDF>
  </metadata>
  <sodipodi:namedview
     pagecolor="#f5f7fa"
     bordercolor="#666666"
     borderopacity="1"
     objecttolerance="10"
     gridtolerance="10"
     guidetolerance="10"
     inkscape:pageopacity="0"
     inkscape:pageshadow="2"
     inkscape:window-width="1377"
     inkscape:window-height="886"
     id="namedview75"
     showgrid="false"
     inkscape:zoom="6.2890624"
     inkscape:cx="47.701864"
     inkscape:cy="45.396274"
     inkscape:window-x="74"
     inkscape:window-y="53"
     inkscape:window-maximized="0"
     inkscape:current-layer="g877"
     inkscape:document-rotation="0"
     inkscape:pagecheckerboard="0"
     inkscape:showpageshadow="2"
     inkscape:deskcolor="#d1d1d1" />
  <defs
     id="defs29">
    <linearGradient
       id="b"
       x1="399.57"
       x2="399.57"
       y1="545.8"
       y2="517.8"
       gradientTransform="matrix(2.1429,0,0,2.1429,-825.86391,-1107.6662)"
       gradientUnits="userSpaceOnUse">
      <stop
         stop-color="#3889e9"
         offset="0"
         id="stop2" />
      <stop
         stop-color="#5ea5fb"
         offset="1"
         id="stop4" />
    </linearGradient>
  </defs>
  <circle
     cx="32.516094"
     cy="31.877844"
     r="0"
     fill="url(#b)"
     stroke-width="1.5715"
     id="circle41"
     style="fill:url(#b)" />
  <g
     aria-label="GZ"
     transform="matrix(1.2212657,0,0,0.81882264,0.4960938,-0.1661539)"
     id="text93"
     style="font-weight:bold;font-size:11.5263px;line-height:1.25;font-family:sans-serif;-inkscape-font-specification:'sans-serif Bold';fill:#f2f2f2;stroke-width:0.288159" />
  <g
     id="g877"
     transform="matrix(1.1,0,0,1.1,-3.1845928,-3.2065454)">
    <rect
       x="6.3010068"
       y="5.4939413"
       width="51.635597"
       height="53.148327"
       rx="10.980581"
       ry="10.720582"
       fill="url(#linearGradient862)"
       stroke-width="3.0541"
       id="rect35-7-3"
       style="fill:#414141;fill-opacity:1;stroke:#dfdfdf;stroke-width:2.27272727;stroke-dasharray:none;stroke-opacity:1" />
    <g
       id="g8737"
       style="fill:#dfdfdf;fill-opacity:1;stroke:none;stroke-opacity:0.3"
       transform="matrix(1.1979,0,0,1.1979,-6.7286646,-3.3209314)">
      <path
         style="fill:#dfdfdf;fill-opacity:1;stroke:none;stroke-width:1.1;stroke-opacity:0.3"
         d="m 32.877806,16.65545 c -2.43174,0 -4.4,1.98 -4.4,4.4 v 8.8 c 0,2.42 1.969,4.4 4.4,4.4 2.430997,0 4.399997,-1.98 4.399997,-4.4 v -8.8 c 0,-2.42 -1.968267,-4.4 -4.399997,-4.4 z m 0,2.2 c 1.214397,0 2.199997,0.88 2.199997,2.2 0,1.099998 -0.9856,2.2 -2.199997,2.2 -1.2144,0 -2.2,-1.100002 -2.2,-2.2 0,-1.32 0.9856,-2.2 2.2,-2.2 z m 0,6.6 c 1.215024,0 2.199997,0.984973 2.199997,2.2 v 2.2 c 0,1.215027 -0.984973,2.2 -2.199997,2.2 -1.21503,0 -2.2,-0.984973 -2.2,-2.2 v -2.2 c 0,-1.215027 0.98497,-2.2 2.2,-2.2 z"
         id="path20-1" />
      <path
         style="fill:#dfdfdf;fill-opacity:1;stroke:none;stroke-width:1.1;stroke-opacity:0.3"
         d="m 31.838426,9.51125 h 1.1 c 0.0454,-0.404282 0,-1.1 0,-1.1 h -1.1 z m 1.1,0 v 1.1 h 1.1 v -1.1 z m 0,1.1 h -1.1 v 1.1 h 1.1 z m 0,1.1 v 1.1 h 1.1 v -1.1 z m 0,1.1 h -1.1 v 1.1 h 1.1 z m 0,1.1 v 1.1 h 1.1 v -1.1 z m 0,1.1 h -1.1 v 1.1 h 1.1 z m 0,1.1 c -0.13647,1.751109 1.101015,0.886361 1.1,0 z"
         id="path16"
         sodipodi:nodetypes="cccccccccccccccccccccccccccccccccccccc" />
    </g>
    <rect
       x="34.795551"
       y="33.974232"
       width="24.697144"
       height="25.420679"
       rx="5.2519779"
       ry="5.1276212"
       fill="url(#linearGradient862)"
       stroke-width="3.0541"
       id="rect35-7-3-9"
       style="fill:#414141;fill-opacity:1;stroke:#dfdfdf;stroke-width:2.27273;stroke-dasharray:none;stroke-opacity:1" />
    <path
       style="fill:#dfdfdf;fill-opacity:1;stroke:none;stroke-width:0.989999;stroke-dasharray:none;stroke-opacity:0.3"
       d="m 46.733756,54.754805 c -0.242083,-0.139053 -5.998157,-5.42991 -6.907967,-6.349623 -0.640665,-0.647635 -0.684902,-0.965786 -0.208445,-1.499247 l 0.33166,-0.371383 2.511129,-0.03784 2.511131,-0.03825 v -2.763309 -2.763334 l 0.317713,-0.608214 c 0.974699,-1.865774 3.353742,-1.647358 4.066696,0.373348 0.124916,0.35415 0.164073,1.098002 0.164073,3.122821 v 2.657922 l 2.245802,0.0061 c 2.437061,0.0071 2.877826,0.08538 3.24215,0.576941 0.443505,0.598368 0.333965,0.733488 -3.408634,4.204335 -1.914974,1.775926 -3.613958,3.318165 -3.77552,3.427203 -0.336724,0.227267 -0.760323,0.251419 -1.089724,0.06222 z"
       id="path5" />
  </g>
</svg>
