<?xml version="1.0" encoding="UTF-8" standalone="no"?>
<svg
   width="64"
   height="64"
   version="1.1"
   id="svg73"
   sodipodi:docname="audacious.svg"
   inkscape:version="1.4.2 (ebf0e940d0, 2025-05-08)"
   xmlns:inkscape="http://www.inkscape.org/namespaces/inkscape"
   xmlns:sodipodi="http://sodipodi.sourceforge.net/DTD/sodipodi-0.dtd"
   xmlns="http://www.w3.org/2000/svg"
   xmlns:svg="http://www.w3.org/2000/svg"
   xmlns:rdf="http://www.w3.org/1999/02/22-rdf-syntax-ns#"
   xmlns:cc="http://creativecommons.org/ns#"
   xmlns:dc="http://purl.org/dc/elements/1.1/">
  <metadata
     id="metadata77">
    <rdf:RDF>
      <cc:Work
         rdf:about="">
        <dc:format>image/svg+xml</dc:format>
        <dc:type
           rdf:resource="http://purl.org/dc/dcmitype/StillImage" />
      </cc:Work>
    </rdf:RDF>
  </metadata>
  <sodipodi:namedview
     pagecolor="#f5f7fa"
     bordercolor="#666666"
     borderopacity="1"
     objecttolerance="10"
     gridtolerance="10"
     guidetolerance="10"
     inkscape:pageopacity="0"
     inkscape:pageshadow="2"
     inkscape:window-width="1377"
     inkscape:window-height="886"
     id="namedview75"
     showgrid="false"
     inkscape:zoom="6.2890624"
     inkscape:cx="46.82733"
     inkscape:cy="42.21615"
     inkscape:window-x="226"
     inkscape:window-y="192"
     inkscape:window-maximized="0"
     inkscape:current-layer="g877"
     inkscape:document-rotation="0"
     inkscape:pagecheckerboard="0"
     inkscape:showpageshadow="2"
     inkscape:deskcolor="#d1d1d1" />
  <defs
     id="defs29" />
  <circle
     cx="32.516094"
     cy="31.877844"
     r="0"
     fill="url(#b)"
     stroke-width="1.5715"
     id="circle41"
     style="fill:url(#b)" />
  <g
     aria-label="GZ"
     transform="matrix(1.2212657,0,0,0.81882264,0.4960938,-0.1661539)"
     id="text93"
     style="font-weight:bold;font-size:11.5263px;line-height:1.25;font-family:sans-serif;-inkscape-font-specification:'sans-serif Bold';fill:#f2f2f2;stroke-width:0.288159" />
  <g
     id="g877"
     transform="matrix(1.1,0,0,1.1,-3.1845928,-3.2065454)">
    <rect
       x="8.3496294"
       y="8.369586"
       width="47.272728"
       height="47.272728"
       rx="9.8825235"
       ry="9.6485243"
       fill="url(#linearGradient862)"
       stroke-width="3.0541"
       id="rect35-7-3"
       style="fill:#414141;fill-opacity:1;stroke:#dfdfdf;stroke-width:2.04545;stroke-dasharray:none;stroke-opacity:1" />
    <path
       id="path4-3"
       style="fill:#dfdfdf;fill-opacity:1;stroke:none;stroke-width:0.496125;stroke-dasharray:none;stroke-opacity:0.6"
       d="m 31.985973,16.242541 c -0.64545,0 -0.694215,0.007 -1.097739,0.146932 -0.234213,0.08118 -0.695354,0.303099 -1.035577,0.498715 -0.3374,0.193995 -2.792208,1.605666 -5.454796,3.136404 -2.662594,1.530735 -4.952391,2.857862 -5.088883,2.949911 -0.335407,0.2262 -0.808389,0.734615 -1.029927,1.109044 -0.100044,0.169099 -0.248831,0.500769 -0.330593,0.736064 l -0.148344,0.428078 v 6.754565 6.754567 l 0.148345,0.428073 c 0.264942,0.762462 0.72877,1.393179 1.336502,1.821093 0.284004,0.199959 10.651575,6.172553 11.124337,6.408435 0.302872,0.151102 0.515649,0.22628 0.878759,0.310797 0.329876,0.07674 1.246231,0.04881 1.599281,-0.04804 0.148605,-0.04081 0.412856,-0.140772 0.587722,-0.223211 0.430142,-0.202789 10.8686,-6.206088 11.211928,-6.447987 0.607967,-0.428356 1.071594,-1.058722 1.336509,-1.821093 l 0.148376,-0.428076 v -6.754563 -6.754566 l -0.14838,-0.428076 c -0.08176,-0.2353 -0.230552,-0.566969 -0.330599,-0.736068 -0.221443,-0.374272 -0.694353,-0.882531 -1.029923,-1.109043 -0.20826,-0.140578 -1.995214,-1.17214 -10.543679,-6.086315 -0.340016,-0.195461 -0.801505,-0.417595 -1.035578,-0.498717 -0.403523,-0.139849 -0.452288,-0.146931 -1.097741,-0.146931 z m -5.730289,8.721175 c 0.415639,-0.01302 0.850982,0.0036 1.190985,0.0537 1.453402,0.213758 2.884611,0.857573 4.102752,1.845109 0.190876,0.154737 0.370219,0.295326 0.398407,0.312226 0.02871,0.01719 0.225961,-0.111961 0.449269,-0.29245 1.248535,-1.009083 2.667732,-1.650093 4.12818,-1.864887 0.680017,-0.100023 1.743905,-0.06552 2.26047,0.07206 0.474887,0.126479 1.105263,0.436536 1.439641,0.70781 0.557467,0.452269 1.00612,1.181047 1.198044,1.949654 0.122975,0.492429 0.170126,1.685041 0.08762,2.196896 -0.295457,1.832606 -1.734255,3.55484 -3.861159,4.621249 l -0.404061,0.20344 -0.0283,0.463396 c -0.08608,1.377365 -0.503273,2.484901 -1.315307,3.493832 -0.672756,0.835891 -1.577157,1.439592 -2.610845,1.743394 -0.344209,0.101157 -0.512276,0.121579 -1.124582,0.137023 -0.816236,0.02079 -1.161064,-0.0266 -1.804136,-0.251475 -0.754134,-0.263401 -1.349198,-0.646632 -1.958113,-1.258781 -0.992745,-0.998002 -1.556014,-2.306372 -1.64873,-3.832908 L 26.726149,34.76569 26.293833,34.548119 C 24.765079,33.779167 23.531018,32.605136 22.908779,31.32695 22.562187,30.614992 22.45559,30.161806 22.42843,29.284052 c -0.02518,-0.81358 0.01784,-1.204691 0.199203,-1.785772 0.384113,-1.23069 1.273325,-2.066501 2.558568,-2.408814 0.258284,-0.06879 0.653847,-0.112687 1.069482,-0.125738 z m 1.69959,4.358468 c -0.150472,-0.0013 -0.311132,0.03041 -0.510019,0.09182 -0.369353,0.11408 -0.716287,0.406143 -0.716287,0.601848 0,0.225954 0.202109,0.367325 0.867458,0.60609 0.897702,0.322145 1.290159,0.546678 1.832392,1.051118 0.154379,0.143624 0.298348,0.261365 0.320709,0.261365 0.104527,0 0.154247,-0.142882 0.127149,-0.371566 -0.115777,-0.977134 -0.567617,-1.681487 -1.32944,-2.071153 -0.220476,-0.112773 -0.398497,-0.167947 -0.591962,-0.169537 z m 8.048686,0 c -0.469048,0 -1.201915,0.489971 -1.515928,1.012973 -0.26211,0.436556 -0.486474,1.384211 -0.363087,1.532881 0.03069,0.03695 0.07443,0.06639 0.09606,0.06639 0.02165,0 0.179328,-0.128414 0.350373,-0.285385 0.543383,-0.498654 0.93025,-0.72036 1.78295,-1.020033 0.779267,-0.273867 0.877345,-0.343979 0.877345,-0.630106 0,-0.300089 -0.682056,-0.676728 -1.227715,-0.676728 z m -5.231575,4.464427 c -0.06437,0.0024 -0.102385,0.05745 -0.185077,0.244412 -0.23938,0.541273 -0.347047,1.002094 -0.350372,1.506038 -0.0023,0.349547 0.01762,0.518401 0.07347,0.645647 0.09858,0.22465 0.22362,0.210815 0.419598,-0.04661 0.27096,-0.35595 0.351528,-0.643312 0.35037,-1.251735 -0.0014,-0.650738 -0.108762,-1.070248 -0.279732,-1.094915 -0.0105,-0.0015 -0.01907,-0.0031 -0.02822,-0.0026 z m 2.41729,0.0016 c -0.0071,-4.38e-4 -0.01532,3.53e-4 -0.02261,0.0015 -0.208979,0.03024 -0.373524,1.031415 -0.259958,1.578091 0.07036,0.338715 0.287829,0.76657 0.46481,0.91549 l 0.141277,0.120078 0.07772,-0.09607 c 0.234345,-0.289396 0.218625,-1.044017 -0.03673,-1.828142 -0.164109,-0.503923 -0.256929,-0.684286 -0.364503,-0.690857 z" />
  </g>
</svg>
