<?xml version="1.0" encoding="UTF-8" standalone="no"?>
<svg
   width="64"
   height="64"
   version="1.1"
   id="svg73"
   sodipodi:docname="audacious.svg"
   inkscape:version="1.4.2 (ebf0e940d0, 2025-05-08)"
   xmlns:inkscape="http://www.inkscape.org/namespaces/inkscape"
   xmlns:sodipodi="http://sodipodi.sourceforge.net/DTD/sodipodi-0.dtd"
   xmlns="http://www.w3.org/2000/svg"
   xmlns:svg="http://www.w3.org/2000/svg"
   xmlns:rdf="http://www.w3.org/1999/02/22-rdf-syntax-ns#"
   xmlns:cc="http://creativecommons.org/ns#"
   xmlns:dc="http://purl.org/dc/elements/1.1/">
  <metadata
     id="metadata77">
    <rdf:RDF>
      <cc:Work
         rdf:about="">
        <dc:format>image/svg+xml</dc:format>
        <dc:type
           rdf:resource="http://purl.org/dc/dcmitype/StillImage" />
      </cc:Work>
    </rdf:RDF>
  </metadata>
  <sodipodi:namedview
     pagecolor="#f5f7fa"
     bordercolor="#666666"
     borderopacity="1"
     objecttolerance="10"
     gridtolerance="10"
     guidetolerance="10"
     inkscape:pageopacity="0"
     inkscape:pageshadow="2"
     inkscape:window-width="1377"
     inkscape:window-height="886"
     id="namedview75"
     showgrid="false"
     inkscape:zoom="6.2890624"
     inkscape:cx="46.82733"
     inkscape:cy="42.21615"
     inkscape:window-x="226"
     inkscape:window-y="192"
     inkscape:window-maximized="0"
     inkscape:current-layer="g877"
     inkscape:document-rotation="0"
     inkscape:pagecheckerboard="0"
     inkscape:showpageshadow="2"
     inkscape:deskcolor="#d1d1d1" />
  <defs
     id="defs29" />
  <circle
     cx="32.516094"
     cy="31.877844"
     r="0"
     fill="url(#b)"
     stroke-width="1.5715"
     id="circle41"
     style="fill:url(#b)" />
  <g
     aria-label="GZ"
     transform="matrix(1.2212657,0,0,0.81882264,0.4960938,-0.1661539)"
     id="text93"
     style="font-weight:bold;font-size:11.5263px;line-height:1.25;font-family:sans-serif;-inkscape-font-specification:'sans-serif Bold';fill:#f2f2f2;stroke-width:0.288159" />
  <g
     id="g877"
     transform="matrix(1.1,0,0,1.1,-3.1845928,-3.2065454)">
    <rect
       x="8.3496294"
       y="8.369586"
       width="47.272728"
       height="47.272728"
       rx="9.8825235"
       ry="9.6485243"
       fill="url(#linearGradient862)"
       stroke-width="3.0541"
       id="rect35-7-3"
       style="fill:#414141;fill-opacity:1;stroke:#dfdfdf;stroke-width:2.04545;stroke-dasharray:none;stroke-opacity:1" />
    <path
       id="path21"
       style="fill:#dfdfdf;fill-opacity:1;stroke:none;stroke-width:0.496125;stroke-dasharray:none;stroke-opacity:0.6"
       d="m 30.835399,17.429522 c -0.657158,-0.0092 -1.330364,0.207994 -1.89621,0.706071 -1.09357,0.962598 -1.314162,2.482472 -0.53785,3.706591 0.340135,0.536336 0.840673,0.924509 1.493393,1.158097 1.045247,0.374054 2.288406,0.02993 3.06117,-0.847974 0.480691,-0.546092 0.700437,-1.155591 0.699206,-1.937405 -0.0025,-1.645651 -1.373961,-2.764801 -2.819709,-2.78538 z m 3.906853,0.170514 0.280369,0.558447 c 0.154679,0.306659 0.308963,0.701899 0.342166,0.878872 l 0.06066,0.321566 0.842254,0.06752 c 3.171402,0.252575 5.706861,1.628799 7.069871,3.837048 l 0.359317,0.581336 0.839966,-0.05721 c 0.462376,-0.03115 0.855122,-0.06847 0.872003,-0.0824 0.05014,-0.04139 -0.568504,-1.225627 -0.886874,-1.698236 -1.427549,-2.119156 -3.728363,-3.584949 -6.490822,-4.134581 -0.399917,-0.07957 -1.303692,-0.173165 -2.008356,-0.208273 z m -8.721188,3.024546 -0.778167,0.556162 c -1.683182,1.20349 -3.389465,2.788555 -4.533965,4.211254 -0.564921,0.702241 -0.627349,0.888726 -0.299822,0.900613 0.09047,0.0033 0.383645,0.109732 0.651141,0.235741 0.2675,0.126017 0.507671,0.231432 0.534419,0.234592 0.02673,0.0031 0.180519,-0.171062 0.341019,-0.387939 0.703873,-0.95112 3.473628,-3.4484 4.40122,-3.967505 0.141404,-0.07913 0.141709,-0.131585 0.0023,-0.607656 -0.08404,-0.286952 -0.19017,-0.669594 -0.235739,-0.849118 z M 44.81265,25.62087 c -0.253487,0.0054 -0.511246,0.0444 -0.767872,0.119012 -0.640553,0.186216 -1.438541,0.850911 -1.75202,1.460208 -0.284069,0.552164 -0.352341,1.718102 -0.131635,2.248671 0.362055,0.870259 0.965412,1.467037 1.777196,1.756598 0.503033,0.179424 1.357735,0.1725 1.907653,-0.0149 0.624394,-0.212749 1.349904,-0.88955 1.630732,-1.520858 0.338209,-0.76032 0.324708,-1.693773 -0.03564,-2.427191 -0.511245,-1.041405 -1.530144,-1.645196 -2.628429,-1.621537 z m -25.747024,2.371119 c -0.868204,0.0028 -1.500988,0.281163 -2.067861,0.908624 -0.535513,0.592749 -0.683425,0.95182 -0.732394,1.777197 -0.03805,0.641187 -0.01091,0.815106 0.19569,1.264521 0.340678,0.741128 0.678408,1.099258 1.359504,1.439608 1.915365,0.957117 4.105093,-0.41314 4.108257,-2.571384 0.0016,-1.148266 -0.554013,-2.045621 -1.580364,-2.54964 -0.458017,-0.224916 -0.678229,-0.270976 -1.282832,-0.268926 z m 24.560317,5.086695 -0.389086,0.804486 c -0.508425,1.05354 -1.186825,2.173752 -1.857298,3.064604 l -0.540134,0.717512 0.518391,0.584769 0.518393,0.58477 0.274624,-0.315811 c 0.600006,-0.689774 1.862964,-2.696981 2.396297,-3.809583 0.781831,-1.63101 0.764651,-1.516136 0.219735,-1.517427 -0.252463,-5.83e-4 -0.612378,-0.02619 -0.799911,-0.0572 z M 16.6556,34.965737 c -0.106435,-0.0056 -0.118322,0.154022 -0.117872,0.91549 10e-4,1.868715 0.361414,3.478507 1.135208,5.069528 0.385419,0.792472 0.614522,1.094639 0.614522,0.809065 0,-0.05015 0.200141,-0.383656 0.445158,-0.741549 l 0.446302,-0.651142 -0.254046,-0.566463 C 18.785188,39.489413 18.605203,39.02442 18.525489,38.767316 18.336893,38.159019 18.094795,36.585384 18.094063,35.96591 l -10e-4,-0.486355 -0.607656,-0.224296 c -0.334355,-0.123136 -0.684525,-0.249027 -0.77815,-0.27922 -0.01933,-0.0063 -0.03631,-0.0095 -0.0515,-0.01029 z m 20.866313,3.580708 c -0.367458,0.001 -0.532464,0.05725 -0.888029,0.231156 -1.786417,0.87402 -2.215594,3.158028 -0.857128,4.564864 0.390825,0.404739 0.729327,0.610366 1.333182,0.810214 0.845219,0.279704 2.005807,-0.04503 2.741896,-0.765582 1.351824,-1.323266 1.042471,-3.544353 -0.630546,-4.524814 -0.353728,-0.207325 -0.59803,-0.266783 -1.249644,-0.300945 -0.181924,-0.0095 -0.327265,-0.015 -0.449731,-0.015 z m -15.17883,2.337938 c -0.340482,10e-4 -0.522176,0.05438 -0.859416,0.209403 -1.076065,0.494628 -1.633162,1.2789 -1.714256,2.412315 -0.100075,1.398712 0.678042,2.527177 2.051841,2.976488 0.233337,0.0763 0.645973,0.116362 0.97042,0.09382 2.371013,-0.16473 3.528595,-2.964814 1.95114,-4.719329 -0.611848,-0.680516 -1.075383,-0.904056 -1.994626,-0.958978 -0.160387,-0.0095 -0.291614,-0.01398 -0.405103,-0.01364 z m 11.124349,2.347087 -0.717516,0.278069 c -1.594117,0.619005 -3.667927,1.064266 -4.95509,1.064266 h -0.535561 l -0.114436,0.462321 c -0.06343,0.254134 -0.222956,0.654189 -0.353609,0.889167 l -0.236879,0.427996 1.289693,-0.05491 c 1.950162,-0.08237 3.442166,-0.416459 5.595935,-1.25423 l 1.000172,-0.38908 -0.294103,-0.335312 c -0.16164,-0.184106 -0.380552,-0.504416 -0.486351,-0.711795 z" />
  </g>
</svg>
