<?xml version="1.0" encoding="UTF-8" standalone="no"?>
<svg
   width="64"
   height="64"
   version="1.1"
   id="svg73"
   sodipodi:docname="audacious.svg"
   inkscape:version="1.4.2 (ebf0e940d0, 2025-05-08)"
   xmlns:inkscape="http://www.inkscape.org/namespaces/inkscape"
   xmlns:sodipodi="http://sodipodi.sourceforge.net/DTD/sodipodi-0.dtd"
   xmlns="http://www.w3.org/2000/svg"
   xmlns:svg="http://www.w3.org/2000/svg"
   xmlns:rdf="http://www.w3.org/1999/02/22-rdf-syntax-ns#"
   xmlns:cc="http://creativecommons.org/ns#"
   xmlns:dc="http://purl.org/dc/elements/1.1/">
  <metadata
     id="metadata77">
    <rdf:RDF>
      <cc:Work
         rdf:about="">
        <dc:format>image/svg+xml</dc:format>
        <dc:type
           rdf:resource="http://purl.org/dc/dcmitype/StillImage" />
      </cc:Work>
    </rdf:RDF>
  </metadata>
  <sodipodi:namedview
     pagecolor="#f5f7fa"
     bordercolor="#666666"
     borderopacity="1"
     objecttolerance="10"
     gridtolerance="10"
     guidetolerance="10"
     inkscape:pageopacity="0"
     inkscape:pageshadow="2"
     inkscape:window-width="1377"
     inkscape:window-height="886"
     id="namedview75"
     showgrid="false"
     inkscape:zoom="6.2890624"
     inkscape:cx="46.986336"
     inkscape:cy="40.467081"
     inkscape:window-x="12"
     inkscape:window-y="50"
     inkscape:window-maximized="0"
     inkscape:current-layer="g877"
     inkscape:document-rotation="0"
     inkscape:pagecheckerboard="0"
     inkscape:showpageshadow="2"
     inkscape:deskcolor="#d1d1d1" />
  <defs
     id="defs29" />
  <circle
     cx="32.516094"
     cy="31.877844"
     r="0"
     fill="url(#b)"
     stroke-width="1.5715"
     id="circle41"
     style="fill:url(#b)" />
  <g
     aria-label="GZ"
     transform="matrix(1.2212657,0,0,0.81882264,0.4960938,-0.1661539)"
     id="text93"
     style="font-weight:bold;font-size:11.5263px;line-height:1.25;font-family:sans-serif;-inkscape-font-specification:'sans-serif Bold';fill:#f2f2f2;stroke-width:0.288159" />
  <g
     id="g877"
     transform="matrix(1.1,0,0,1.1,-3.1845928,-3.2065454)">
    <rect
       x="8.3496294"
       y="8.369586"
       width="47.272728"
       height="47.272728"
       rx="9.8825235"
       ry="9.6485243"
       fill="url(#linearGradient862)"
       stroke-width="3.0541"
       id="rect35-7-3"
       style="fill:#414141;fill-opacity:1;stroke:#dfdfdf;stroke-width:2.04545;stroke-dasharray:none;stroke-opacity:1" />
    <path
       style="fill:#dfdfdf;fill-opacity:1;stroke:none;stroke-width:0.0282562;stroke-opacity:0.5"
       d="M 22.368752,47.605526 C 20.852777,47.21409 19.696817,46.073493 19.250017,44.528244 l -0.13072,-0.452094 v -8.081262 c 0,-6.337299 0.01585,-8.191019 0.07355,-8.589869 0.214627,-1.484189 0.603646,-2.770779 1.205873,-3.988166 2.608348,-5.272694 8.545278,-8.08741 14.398751,-6.826489 2.245967,0.483814 4.50148,1.690547 6.15772,3.294471 2.074085,2.008565 3.286753,4.344351 3.772207,7.265879 0.08972,0.539728 0.100527,1.301071 0.119577,8.420331 0.01443,5.312432 0.0016,7.993643 -0.03925,8.345799 -0.06873,0.591857 -0.290919,1.270436 -0.573071,1.750302 -0.106414,0.180947 -0.409619,0.546605 -0.673809,0.812537 -0.81468,0.820021 -1.830255,1.240713 -2.995151,1.240713 -0.944639,0 -1.696001,-0.241945 -2.534181,-0.815958 -0.570922,-0.390996 -0.865117,-0.521217 -1.36345,-0.603515 -0.712068,-0.117582 -1.331522,0.06265 -2.222053,0.646554 -0.826395,0.541863 -1.5685,0.771264 -2.498446,0.772335 -0.889663,9.82e-4 -1.633937,-0.231268 -2.429429,-0.758161 -0.835325,-0.553306 -1.146855,-0.663743 -1.866647,-0.661732 -0.598523,0.0016 -1.047795,0.151856 -1.637711,0.547465 -0.598679,0.401488 -1.202018,0.674064 -1.73537,0.784015 -0.589616,0.121542 -1.380238,0.110833 -1.909674,-0.02546 z m 1.417953,-14.201 c 0.329721,-0.100002 5.39646,-2.995583 5.630098,-3.217538 0.281522,-0.267447 0.411777,-0.598719 0.410332,-1.043598 -0.0015,-0.460411 -0.121035,-0.749391 -0.429993,-1.039476 -0.219971,-0.206537 -5.20866,-3.083071 -5.558198,-3.204919 -0.25662,-0.08946 -0.674232,-0.0819 -0.955375,0.01728 -0.976154,0.344406 -1.28055,1.649032 -0.552012,2.365899 0.147375,0.145016 0.789827,0.548384 1.668064,1.04731 1.25165,0.711062 1.415664,0.819989 1.325684,0.880435 -0.05647,0.03794 -0.700299,0.40766 -1.43072,0.821607 -1.395255,0.790722 -1.62918,0.961006 -1.826164,1.329339 -0.17051,0.318832 -0.17051,0.980949 0,1.299783 0.177925,0.3327 0.479181,0.594497 0.819264,0.711954 0.361449,0.124832 0.568398,0.13218 0.89902,0.0319 z m 17.074271,-2.865652 c 0.554346,-0.153958 1.004523,-0.755896 1.004523,-1.343167 0,-0.436752 -0.09862,-0.712911 -0.36096,-1.01097 -0.434782,-0.493943 -0.164252,-0.466417 -4.583867,-0.466417 -3.655781,0 -3.913547,0.0064 -4.126651,0.103257 -0.290189,0.131829 -0.580611,0.422245 -0.712434,0.712435 -0.12843,0.282711 -0.1394,0.895862 -0.02112,1.179007 0.161797,0.387237 0.519604,0.706637 0.932209,0.832145 0.223713,0.06805 7.621895,0.06214 7.868278,-0.0063 z"
       id="path9" />
  </g>
</svg>
