<?xml version="1.0" encoding="UTF-8" standalone="no"?>
<svg
   width="64"
   height="64"
   version="1.1"
   id="svg73"
   sodipodi:docname="audacious.svg"
   inkscape:version="1.4.2 (ebf0e940d0, 2025-05-08)"
   xmlns:inkscape="http://www.inkscape.org/namespaces/inkscape"
   xmlns:sodipodi="http://sodipodi.sourceforge.net/DTD/sodipodi-0.dtd"
   xmlns="http://www.w3.org/2000/svg"
   xmlns:svg="http://www.w3.org/2000/svg"
   xmlns:rdf="http://www.w3.org/1999/02/22-rdf-syntax-ns#"
   xmlns:cc="http://creativecommons.org/ns#"
   xmlns:dc="http://purl.org/dc/elements/1.1/">
  <metadata
     id="metadata77">
    <rdf:RDF>
      <cc:Work
         rdf:about="">
        <dc:format>image/svg+xml</dc:format>
        <dc:type
           rdf:resource="http://purl.org/dc/dcmitype/StillImage" />
      </cc:Work>
    </rdf:RDF>
  </metadata>
  <sodipodi:namedview
     pagecolor="#f5f7fa"
     bordercolor="#666666"
     borderopacity="1"
     objecttolerance="10"
     gridtolerance="10"
     guidetolerance="10"
     inkscape:pageopacity="0"
     inkscape:pageshadow="2"
     inkscape:window-width="1377"
     inkscape:window-height="886"
     id="namedview75"
     showgrid="false"
     inkscape:zoom="4.4470387"
     inkscape:cx="26.422077"
     inkscape:cy="51.607377"
     inkscape:window-x="0"
     inkscape:window-y="75"
     inkscape:window-maximized="0"
     inkscape:current-layer="g877"
     inkscape:document-rotation="0"
     inkscape:pagecheckerboard="0"
     inkscape:showpageshadow="2"
     inkscape:deskcolor="#d1d1d1" />
  <defs
     id="defs29" />
  <circle
     cx="32.516094"
     cy="31.877844"
     r="0"
     fill="url(#b)"
     stroke-width="1.5715"
     id="circle41"
     style="fill:url(#b)" />
  <g
     aria-label="GZ"
     transform="matrix(1.2212657,0,0,0.81882264,0.4960938,-0.1661539)"
     id="text93"
     style="font-weight:bold;font-size:11.5263px;line-height:1.25;font-family:sans-serif;-inkscape-font-specification:'sans-serif Bold';fill:#f2f2f2;stroke-width:0.288159" />
  <g
     id="g877"
     transform="matrix(1.1,0,0,1.1,-3.1845928,-3.2065454)">
    <rect
       x="8.3496294"
       y="8.369586"
       width="47.272728"
       height="47.272728"
       rx="9.8825235"
       ry="9.6485243"
       fill="url(#linearGradient862)"
       stroke-width="3.0541"
       id="rect35-7-3"
       style="fill:#414141;fill-opacity:1;stroke:#dfdfdf;stroke-width:2.04545;stroke-dasharray:none;stroke-opacity:1" />
    <path
       style="fill:#dfdfdf;stroke:none;stroke-width:0.441045;stroke-dasharray:none;stroke-opacity:0.6;fill-opacity:1"
       d="m 41.863892,23.934767 c -0.608847,-0.02845 -2.324366,0.174913 -5.005635,2.040213 -1.499988,-0.452302 -3.212253,-0.619728 -4.997265,-0.615413 -1.632937,0.0039 -3.326262,0.137734 -4.972145,0.615413 -2.682131,-1.865201 -4.0529,-2.067538 -4.662345,-2.038818 -0.203197,0.0096 -0.301427,0.04046 -0.301427,0.04046 -1.019651,2.645121 -0.374536,4.601989 -0.181414,5.087972 -1.197826,1.342653 -1.900662,3.057266 -1.900662,5.154955 0,7.364495 4.771822,9.014142 8.929765,9.499124 -0.534538,0.480201 -0.870907,1.473049 -1.041038,2.71424 -1.066778,0.49198 -3.928427,1.696072 -5.598722,-1.240601 0,0 -0.988177,-1.84599 -2.867741,-1.981602 0,0 -1.827226,-0.02337 -0.126992,1.168031 0,0 1.22742,0.591425 2.079286,2.811921 0,0 1.265063,3.379852 6.473696,2.218834 0.0052,0.901724 -0.102096,5.203539 0.0044,5.203727 l 9.277545,0.01636 c 0.02053,3.6e-5 0.02616,-5.840509 0.02616,-7.366196 0,-1.792186 -0.740909,-2.965072 -1.412244,-3.558508 4.170522,-0.475467 8.548797,-2.101813 8.548797,-9.485171 0,-2.097691 -0.583368,-3.813713 -1.783445,-5.156349 0.191982,-0.486099 0.836343,-2.441457 -0.185609,-5.086576 0,0 -0.09841,-0.0324 -0.301433,-0.04186 z"
       id="path5"
       sodipodi:nodetypes="ccccsccscccccccssscscccc" />
  </g>
</svg>
