<?xml version="1.0" encoding="UTF-8" standalone="no"?>
<svg
   width="64"
   height="64"
   version="1.1"
   id="svg73"
   sodipodi:docname="accessories-character-map.svg"
   inkscape:version="1.3.2 (091e20ef0f, 2023-11-25)"
   xmlns:inkscape="http://www.inkscape.org/namespaces/inkscape"
   xmlns:sodipodi="http://sodipodi.sourceforge.net/DTD/sodipodi-0.dtd"
   xmlns="http://www.w3.org/2000/svg"
   xmlns:svg="http://www.w3.org/2000/svg"
   xmlns:rdf="http://www.w3.org/1999/02/22-rdf-syntax-ns#"
   xmlns:cc="http://creativecommons.org/ns#"
   xmlns:dc="http://purl.org/dc/elements/1.1/">
  <metadata
     id="metadata77">
    <rdf:RDF>
      <cc:Work
         rdf:about="">
        <dc:format>image/svg+xml</dc:format>
        <dc:type
           rdf:resource="http://purl.org/dc/dcmitype/StillImage" />
      </cc:Work>
    </rdf:RDF>
  </metadata>
  <sodipodi:namedview
     pagecolor="#f5f7fa"
     bordercolor="#666666"
     borderopacity="1"
     objecttolerance="10"
     gridtolerance="10"
     guidetolerance="10"
     inkscape:pageopacity="0"
     inkscape:pageshadow="2"
     inkscape:window-width="1377"
     inkscape:window-height="886"
     id="namedview75"
     showgrid="false"
     inkscape:zoom="4.4470387"
     inkscape:cx="47.784608"
     inkscape:cy="14.054296"
     inkscape:window-x="181"
     inkscape:window-y="77"
     inkscape:window-maximized="0"
     inkscape:current-layer="g877"
     inkscape:document-rotation="0"
     inkscape:pagecheckerboard="0"
     inkscape:showpageshadow="2"
     inkscape:deskcolor="#d1d1d1" />
  <defs
     id="defs29">
    <linearGradient
       id="b"
       x1="399.57"
       x2="399.57"
       y1="545.8"
       y2="517.8"
       gradientTransform="matrix(2.1429,0,0,2.1429,-825.86391,-1107.6662)"
       gradientUnits="userSpaceOnUse">
      <stop
         stop-color="#3889e9"
         offset="0"
         id="stop2" />
      <stop
         stop-color="#5ea5fb"
         offset="1"
         id="stop4" />
    </linearGradient>
  </defs>
  <circle
     cx="32.516094"
     cy="31.877844"
     r="0"
     fill="url(#b)"
     stroke-width="1.5715"
     id="circle41"
     style="fill:url(#b)" />
  <g
     aria-label="GZ"
     transform="matrix(1.2212657,0,0,0.81882264,0.4960938,-0.1661539)"
     id="text93"
     style="font-weight:bold;font-size:11.5263px;line-height:1.25;font-family:sans-serif;-inkscape-font-specification:'sans-serif Bold';fill:#f2f2f2;stroke-width:0.288159" />
  <g
     id="g877"
     transform="matrix(1.1,0,0,1.1,-3.1845928,-3.2065454)">
    <rect
       x="6.3010068"
       y="5.4939413"
       width="51.635597"
       height="53.148327"
       rx="10.980581"
       ry="10.720582"
       fill="url(#linearGradient862)"
       stroke-width="3.0541"
       id="rect35-7-3"
       style="fill:#414141;fill-opacity:1;stroke:#dfdfdf;stroke-width:2.27272727;stroke-dasharray:none;stroke-opacity:1" />
    <path
       id="path10"
       style="fill:#dfdfdf;fill-opacity:1;stroke-width:0.178681;stroke-opacity:0.3"
       d="m 32.245792,14.045962 c -6.707428,0.01405 -13.272277,3.662474 -16.476375,10.099805 -1.40106,2.814856 -1.898539,4.994108 -1.877738,8.21992 0.0121,1.874416 0.10153,2.656812 0.466213,4.056252 1.852831,7.110162 7.467796,12.306116 14.71036,13.614647 2.804814,0.506752 6.23347,0.245879 8.95899,-0.683204 9.076487,-3.09407 14.260294,-12.390023 12.014059,-21.54453 -1.015069,-4.136879 -3.88762,-8.168627 -7.601164,-10.671288 -3.128939,-2.108665 -6.68093,-3.098963 -10.194345,-3.091602 z m 0.09882,3.854296 c 2.640019,0.0023 2.845603,0.02869 4.378519,0.562891 2.57268,0.896563 3.90536,1.728229 5.815818,3.628711 1.395782,1.388489 1.857188,1.991809 2.537308,3.317187 1.279443,2.493324 1.643654,3.992026 1.63925,6.778322 -0.0038,2.73945 -0.263672,3.881537 -1.413662,6.251952 -1.929928,3.978092 -5.660711,6.89668 -9.949419,7.781642 -7.865447,1.623008 -15.355859,-2.976877 -17.299229,-10.624024 -0.486925,-1.916057 -0.486522,-4.830543 0,-6.859961 0.969951,-4.045938 3.803898,-7.560015 7.59258,-9.412306 2.495046,-1.219827 3.472809,-1.427164 6.698835,-1.424414 z m 5.13262,4.021875 c -0.321629,-0.0056 -0.653336,0.0866 -0.861525,0.275003 -0.172456,0.156053 -1.222492,1.871566 -2.335354,3.813475 -2.013869,3.514147 -2.028368,3.532867 -2.863868,3.830664 -0.973543,0.347003 -1.566645,1.06188 -1.699412,2.051759 l -0.09022,0.67461 -4.43008,2.270897 c -2.43662,1.249254 -4.531085,2.391932 -4.653521,2.539455 -0.169421,0.204152 -0.174576,0.375161 -0.02163,0.711131 0.230536,0.505989 0.973456,0.60033 1.55547,0.197659 0.193825,-0.134115 2.153059,-1.149357 4.35488,-2.255859 3.959016,-1.989561 4.008716,-2.010026 4.494536,-1.723048 0.671692,0.396773 1.914433,0.368098 2.6168,-0.06016 0.853965,-0.520693 1.18669,-1.299121 1.076369,-2.515821 l -0.09238,-1.014062 2.126956,-3.721093 c 2.193289,-3.837437 2.265693,-4.046083 1.628514,-4.77168 -0.17125,-0.195003 -0.48402,-0.297341 -0.805662,-0.302933 z m -5.313087,8.924611 c 1.270708,0 1.91457,1.450434 1.018358,2.292382 -0.889215,0.835374 -2.3375,0.26346 -2.3375,-0.921679 0,-0.868909 0.483945,-1.370703 1.319142,-1.370703 z" />
  </g>
</svg>
