<?xml version="1.0" encoding="UTF-8" standalone="no"?>
<svg
   width="64"
   height="64"
   version="1.1"
   id="svg73"
   sodipodi:docname="Logo.svg"
   inkscape:version="1.3.2 (091e20ef0f, 2023-11-25)"
   xmlns:inkscape="http://www.inkscape.org/namespaces/inkscape"
   xmlns:sodipodi="http://sodipodi.sourceforge.net/DTD/sodipodi-0.dtd"
   xmlns="http://www.w3.org/2000/svg"
   xmlns:svg="http://www.w3.org/2000/svg"
   xmlns:rdf="http://www.w3.org/1999/02/22-rdf-syntax-ns#"
   xmlns:cc="http://creativecommons.org/ns#"
   xmlns:dc="http://purl.org/dc/elements/1.1/">
  <metadata
     id="metadata77">
    <rdf:RDF>
      <cc:Work
         rdf:about="">
        <dc:format>image/svg+xml</dc:format>
        <dc:type
           rdf:resource="http://purl.org/dc/dcmitype/StillImage" />
      </cc:Work>
    </rdf:RDF>
  </metadata>
  <sodipodi:namedview
     pagecolor="#f5f7fa"
     bordercolor="#666666"
     borderopacity="1"
     objecttolerance="10"
     gridtolerance="10"
     guidetolerance="10"
     inkscape:pageopacity="0"
     inkscape:pageshadow="2"
     inkscape:window-width="1377"
     inkscape:window-height="886"
     id="namedview75"
     showgrid="false"
     inkscape:zoom="6.2890624"
     inkscape:cx="4.2931678"
     inkscape:cy="12.004969"
     inkscape:window-x="181"
     inkscape:window-y="77"
     inkscape:window-maximized="0"
     inkscape:current-layer="g877"
     inkscape:document-rotation="0"
     inkscape:pagecheckerboard="0"
     inkscape:showpageshadow="2"
     inkscape:deskcolor="#d1d1d1" />
  <defs
     id="defs29">
    <linearGradient
       id="b"
       x1="399.57"
       x2="399.57"
       y1="545.8"
       y2="517.8"
       gradientTransform="matrix(2.1429,0,0,2.1429,-825.86391,-1107.6662)"
       gradientUnits="userSpaceOnUse">
      <stop
         stop-color="#3889e9"
         offset="0"
         id="stop2" />
      <stop
         stop-color="#5ea5fb"
         offset="1"
         id="stop4" />
    </linearGradient>
    <linearGradient
       id="d"
       x2="1"
       gradientTransform="matrix(14.905727,-4.7106182,4.7106182,14.905727,322.04962,998.26962)"
       gradientUnits="userSpaceOnUse">
      <stop
         stop-color="#fafafa"
         offset="0"
         id="stop7" />
      <stop
         stop-color="#aaa"
         offset="1"
         id="stop8" />
    </linearGradient>
    <linearGradient
       id="e"
       x2="1"
       gradientTransform="matrix(21.439909,0,0,21.439909,26.63554,1159.7788)"
       gradientUnits="userSpaceOnUse">
      <stop
         stop-color="#f0f0f0"
         offset="0"
         id="stop9" />
      <stop
         stop-color="#b7f1ff"
         offset="1"
         id="stop10" />
    </linearGradient>
  </defs>
  <circle
     cx="32.516094"
     cy="31.877844"
     r="0"
     fill="url(#b)"
     stroke-width="1.5715"
     id="circle41"
     style="fill:url(#b)" />
  <g
     aria-label="GZ"
     transform="matrix(1.2212657,0,0,0.81882264,0.4960938,-0.1661539)"
     id="text93"
     style="font-weight:bold;font-size:11.5263px;line-height:1.25;font-family:sans-serif;-inkscape-font-specification:'sans-serif Bold';fill:#f2f2f2;stroke-width:0.288159" />
  <g
     id="g877"
     transform="matrix(1.1,0,0,1.1,-3.1845928,-3.2065454)">
    <rect
       x="6.3010068"
       y="5.4939413"
       width="51.635597"
       height="53.148327"
       rx="10.980581"
       ry="10.720582"
       fill="url(#linearGradient862)"
       stroke-width="3.0541"
       id="rect35-7-3"
       style="fill:#414141;fill-opacity:1;stroke:#dfdfdf;stroke-width:2.27272727;stroke-dasharray:none;stroke-opacity:1" />
    <path
       d="m 43.730641,35.849207 c -0.08228,-0.1089 -0.189971,-0.17182 -0.323071,-0.192389 l -2.813249,-0.430761 c -0.15367,-0.491259 -0.363,-0.993409 -0.6292,-1.50645 0.18392,-0.255309 0.4598,-0.617099 0.82885,-1.082949 0.36905,-0.46706 0.630409,-0.807071 0.78408,-1.02245 0.08228,-0.11132 0.123423,-0.23111 0.123423,-0.35332 0,-0.14399 -0.0363,-0.256521 -0.10769,-0.3388 -0.36905,-0.52272 -1.21484,-1.392711 -2.536159,-2.61239 -0.123423,-0.10406 -0.251681,-0.153671 -0.384781,-0.153671 -0.15367,0 -0.27588,0.04598 -0.36905,0.137941 l -2.18163,1.644389 c -0.42108,-0.215379 -0.88209,-0.405349 -1.38424,-0.5687 l -0.42955,-2.827769 c -0.01089,-0.13431 -0.07018,-0.24442 -0.176659,-0.33154 -0.1089,-0.08712 -0.233531,-0.130678 -0.377521,-0.130678 h -3.4122 c -0.296449,0 -0.481579,0.14399 -0.55297,0.43076 -0.1331,0.51183 -0.28193,1.46531 -0.44649,2.859229 -0.481579,0.153671 -0.947429,0.348481 -1.398759,0.58443 L 25.822644,28.30849 c -0.1331,-0.10285 -0.2662,-0.15367 -0.3993,-0.15367 -0.22506,0 -0.70906,0.36663 -1.452,1.09989 -0.74415,0.73205 -1.24751,1.2826 -1.51492,1.65165 -0.09196,0.13431 -0.13794,0.25168 -0.13794,0.353319 0,0.123423 0.05082,0.246841 0.153671,0.369051 0.686069,0.83006 1.234199,1.53791 1.644389,2.12113 -0.25652,0.4719 -0.45617,0.943799 -0.59895,1.41449 l -2.85923,0.43076 c -0.11253,0.02057 -0.21054,0.08713 -0.29161,0.19965 -0.08228,0.11132 -0.123423,0.23111 -0.123423,0.35332 v 3.4122 c 0,0.13431 0.04114,0.2541 0.123423,0.36179 0.08107,0.1089 0.188761,0.17182 0.321861,0.19239 l 2.813249,0.41503 c 0.14399,0.50215 0.35332,1.00914 0.63041,1.52097 -0.18392,0.256519 -0.461009,0.6171 -0.83006,1.08416 -0.36905,0.46585 -0.630409,0.80707 -0.78408,1.02245 -0.08228,0.11132 -0.122212,0.2299 -0.122212,0.35332 0,0.1331 0.03509,0.25047 0.10648,0.35332 0.40051,0.55297 1.24509,1.41449 2.537369,2.58214 0.112542,0.11253 0.240791,0.1694 0.383571,0.1694 0.15367,0 0.281929,-0.04718 0.38478,-0.13794 l 2.16711,-1.6456 c 0.41987,0.21538 0.88088,0.40535 1.38303,0.56991 l 0.43076,2.82777 c 0.01089,0.1331 0.06897,0.24321 0.17666,0.330329 0.10769,0.08713 0.23353,0.130678 0.37631,0.130678 h 3.41341 c 0.29645,0 0.481579,-0.14399 0.55297,-0.430759 0.1331,-0.511831 0.28193,-1.4641 0.44528,-2.85802 0.481579,-0.15367 0.94864,-0.34848 1.39876,-0.584431 l 2.12234,1.660121 c 0.14278,0.09196 0.27588,0.137939 0.3993,0.137939 0.22506,0 0.70664,-0.362999 1.44474,-1.09142 0.7381,-0.727209 1.24509,-1.281389 1.52097,-1.660119 0.09317,-0.10285 0.13915,-0.22022 0.13915,-0.35332 0,-0.1331 -0.05082,-0.261361 -0.15367,-0.38478 -0.7381,-0.901451 -1.28623,-1.608091 -1.6456,-2.12113 0.2057,-0.378731 0.40535,-0.844581 0.60016,-1.39876 l 2.8435,-0.429551 c 0.122212,-0.02057 0.22506,-0.08712 0.30734,-0.20086 0.08228,-0.112518 0.122212,-0.229899 0.122212,-0.353319 v -3.412201 c 0.0012,-0.1331 -0.03993,-0.25289 -0.122213,-0.36058 z m -8.89955,4.81822 c -0.76835,0.768351 -1.69642,1.153131 -2.783,1.153131 -1.085371,0 -2.01344,-0.38478 -2.78179,-1.153131 -0.76835,-0.768349 -1.15313,-1.695209 -1.15313,-2.78179 0,-1.086579 0.38478,-2.013439 1.15313,-2.78179 0.76835,-0.768349 1.696419,-1.153129 2.78179,-1.153129 1.08658,0 2.01465,0.38478 2.783,1.153129 0.76835,0.768351 1.15313,1.695211 1.15313,2.78179 0,1.086581 -0.38478,2.013441 -1.15313,2.78179 z"
       fill="#ffffff"
       fill-opacity="0.85"
       fill-rule="nonzero"
       id="path7"
       style="stroke-width:1.21;fill:#dfdfdf;fill-opacity:1" />
    <path
       d="m 12.387191,19.437165 v -0.934546 c 0,-3.125455 2.536363,-5.661818 5.661818,-5.661818 h 28.072727 c 3.125454,0 5.661818,2.536363 5.661818,5.661818 v 0.934546 z"
       fill="#ebebeb"
       fill-opacity="0.1"
       id="path3"
       style="stroke-width:0.909091;fill:#dfdfdf;fill-opacity:1" />
  </g>
</svg>
