<?xml version="1.0" encoding="UTF-8" standalone="no"?>
<svg
   width="64"
   height="64"
   version="1.1"
   id="svg73"
   sodipodi:docname="audacious.svg"
   inkscape:version="1.4.2 (ebf0e940d0, 2025-05-08)"
   xmlns:inkscape="http://www.inkscape.org/namespaces/inkscape"
   xmlns:sodipodi="http://sodipodi.sourceforge.net/DTD/sodipodi-0.dtd"
   xmlns="http://www.w3.org/2000/svg"
   xmlns:svg="http://www.w3.org/2000/svg"
   xmlns:rdf="http://www.w3.org/1999/02/22-rdf-syntax-ns#"
   xmlns:cc="http://creativecommons.org/ns#"
   xmlns:dc="http://purl.org/dc/elements/1.1/">
  <metadata
     id="metadata77">
    <rdf:RDF>
      <cc:Work
         rdf:about="">
        <dc:format>image/svg+xml</dc:format>
        <dc:type
           rdf:resource="http://purl.org/dc/dcmitype/StillImage" />
      </cc:Work>
    </rdf:RDF>
  </metadata>
  <sodipodi:namedview
     pagecolor="#f5f7fa"
     bordercolor="#666666"
     borderopacity="1"
     objecttolerance="10"
     gridtolerance="10"
     guidetolerance="10"
     inkscape:pageopacity="0"
     inkscape:pageshadow="2"
     inkscape:window-width="1377"
     inkscape:window-height="886"
     id="namedview75"
     showgrid="false"
     inkscape:zoom="6.2890624"
     inkscape:cx="46.82733"
     inkscape:cy="42.21615"
     inkscape:window-x="226"
     inkscape:window-y="192"
     inkscape:window-maximized="0"
     inkscape:current-layer="g877"
     inkscape:document-rotation="0"
     inkscape:pagecheckerboard="0"
     inkscape:showpageshadow="2"
     inkscape:deskcolor="#d1d1d1" />
  <defs
     id="defs29" />
  <circle
     cx="32.516094"
     cy="31.877844"
     r="0"
     fill="url(#b)"
     stroke-width="1.5715"
     id="circle41"
     style="fill:url(#b)" />
  <g
     aria-label="GZ"
     transform="matrix(1.2212657,0,0,0.81882264,0.4960938,-0.1661539)"
     id="text93"
     style="font-weight:bold;font-size:11.5263px;line-height:1.25;font-family:sans-serif;-inkscape-font-specification:'sans-serif Bold';fill:#f2f2f2;stroke-width:0.288159" />
  <g
     id="g877"
     transform="matrix(1.1,0,0,1.1,-3.1845928,-3.2065454)">
    <rect
       x="8.3496294"
       y="8.369586"
       width="47.272728"
       height="47.272728"
       rx="9.8825235"
       ry="9.6485243"
       fill="url(#linearGradient862)"
       stroke-width="3.0541"
       id="rect35-7-3"
       style="fill:#414141;fill-opacity:1;stroke:#dfdfdf;stroke-width:2.04545;stroke-dasharray:none;stroke-opacity:1" />
    <path
       style="fill:#dfdfdf;fill-opacity:1;stroke:none;stroke-width:0.4725;stroke-dasharray:none;stroke-dashoffset:2.2;stroke-opacity:0.6"
       d="m 21.005775,43.272359 c -1.382824,-0.324712 -3.059452,-1.771309 -3.773396,-3.255666 -0.583202,-1.212525 -0.749511,-1.978394 -0.74886,-3.448565 4.61e-4,-1.043777 0.04803,-1.443056 0.249608,-2.095417 0.788311,-2.551117 2.577761,-4.275248 4.807777,-4.632278 0.625388,-0.100128 0.907659,-0.09246 1.558132,0.04233 0.436908,0.09053 0.879005,0.198364 0.982433,0.239628 0.169056,0.06745 0.188046,-0.0064 0.188046,-0.732946 0,-2.428195 0.979233,-4.804151 2.686493,-6.518341 1.439648,-1.445488 2.82132,-2.11296 4.614313,-2.229121 4.210746,-0.272806 7.795121,3.465893 8.1345,8.484735 0.03897,0.576238 0.08169,1.047707 0.09491,1.047707 0.01331,0 0.235702,-0.07935 0.494268,-0.176329 0.706059,-0.264777 2.232444,-0.23726 3.040505,0.05482 1.86584,0.674412 3.383965,2.44896 3.937378,4.602427 0.271353,1.055921 0.290316,2.743984 0.04228,3.768575 -0.548847,2.267454 -2.181142,4.159007 -4.100537,4.751848 -0.681059,0.210375 -0.970256,0.215635 -11.245401,0.205114 -5.909966,-0.0062 -10.729295,-0.05377 -10.962481,-0.108515 z"
       id="path99" />
  </g>
</svg>
