<?xml version="1.0" encoding="UTF-8" standalone="no"?>
<svg
   width="64"
   height="64"
   version="1.1"
   id="svg73"
   sodipodi:docname="gnome-tweak-tool.svg"
   inkscape:version="1.4.2 (ebf0e940d0, 2025-05-08)"
   xmlns:inkscape="http://www.inkscape.org/namespaces/inkscape"
   xmlns:sodipodi="http://sodipodi.sourceforge.net/DTD/sodipodi-0.dtd"
   xmlns="http://www.w3.org/2000/svg"
   xmlns:svg="http://www.w3.org/2000/svg"
   xmlns:rdf="http://www.w3.org/1999/02/22-rdf-syntax-ns#"
   xmlns:cc="http://creativecommons.org/ns#"
   xmlns:dc="http://purl.org/dc/elements/1.1/">
  <metadata
     id="metadata77">
    <rdf:RDF>
      <cc:Work
         rdf:about="">
        <dc:format>image/svg+xml</dc:format>
        <dc:type
           rdf:resource="http://purl.org/dc/dcmitype/StillImage" />
      </cc:Work>
    </rdf:RDF>
  </metadata>
  <sodipodi:namedview
     pagecolor="#f5f7fa"
     bordercolor="#666666"
     borderopacity="1"
     objecttolerance="10"
     gridtolerance="10"
     guidetolerance="10"
     inkscape:pageopacity="0"
     inkscape:pageshadow="2"
     inkscape:window-width="1377"
     inkscape:window-height="886"
     id="namedview75"
     showgrid="false"
     inkscape:zoom="6.2890624"
     inkscape:cx="47.622361"
     inkscape:cy="45.396274"
     inkscape:window-x="147"
     inkscape:window-y="75"
     inkscape:window-maximized="0"
     inkscape:current-layer="g877"
     inkscape:document-rotation="0"
     inkscape:pagecheckerboard="0"
     inkscape:showpageshadow="2"
     inkscape:deskcolor="#d1d1d1" />
  <defs
     id="defs29">
    <linearGradient
       id="b"
       x1="399.57"
       x2="399.57"
       y1="545.8"
       y2="517.8"
       gradientTransform="matrix(2.1429,0,0,2.1429,-825.86391,-1107.6662)"
       gradientUnits="userSpaceOnUse">
      <stop
         stop-color="#3889e9"
         offset="0"
         id="stop2" />
      <stop
         stop-color="#5ea5fb"
         offset="1"
         id="stop4" />
    </linearGradient>
  </defs>
  <circle
     cx="32.516094"
     cy="31.877844"
     r="0"
     fill="url(#b)"
     stroke-width="1.5715"
     id="circle41"
     style="fill:url(#b)" />
  <g
     aria-label="GZ"
     transform="matrix(1.2212657,0,0,0.81882264,0.4960938,-0.1661539)"
     id="text93"
     style="font-weight:bold;font-size:11.5263px;line-height:1.25;font-family:sans-serif;-inkscape-font-specification:'sans-serif Bold';fill:#f2f2f2;stroke-width:0.288159" />
  <g
     id="g877"
     transform="matrix(1.1,0,0,1.1,-3.1845928,-3.2065454)">
    <rect
       x="8.3496294"
       y="8.369586"
       width="47.272728"
       height="47.272728"
       rx="9.8825235"
       ry="9.6485243"
       fill="url(#linearGradient862)"
       stroke-width="3.0541"
       id="rect35-7-3"
       style="fill:#414141;fill-opacity:1;stroke:#dfdfdf;stroke-width:2.04545;stroke-dasharray:none;stroke-opacity:1" />
    <path
       style="fill:#dfdfdf;fill-opacity:1;stroke:none;stroke-width:0.496125;stroke-dasharray:none;stroke-opacity:0.6"
       d="M 16.01415,32.00595 V 20.663788 H 31.985992 47.957837 V 32.00595 43.348112 H 31.985992 16.01415 Z m 14.671206,6.82538 v -2.30859 h -6.008955 -6.008948 v 2.30859 2.308578 h 6.008948 6.008955 z m 14.671207,-2.07e-4 V 36.52233 l -6.021961,0.01244 -6.021957,0.01244 -0.01353,2.296035 -0.01353,2.296036 h 6.035474 6.035483 V 38.830577 Z M 30.685356,32.00595 v -2.308581 h -6.008955 -6.008948 v 2.308582 2.308583 h 6.008948 6.008955 z m 14.671207,-1.99e-4 v -2.308792 l -6.021961,0.01282 -6.021957,0.01276 -0.01353,2.296036 -0.01353,2.296034 h 6.035506 6.035483 V 32.005746 Z M 30.685356,25.180579 v -2.308583 h -6.008955 -6.008948 v 2.308583 2.308584 h 6.008948 6.008955 z m 14.671207,-2.09e-4 v -2.30879 l -6.021961,0.01276 -6.021957,0.01276 -0.01353,2.296035 -0.01353,2.296037 h 6.035506 6.035483 v -2.308734 z"
       id="path2224" />
    <rect
       x="37.737823"
       y="37.757782"
       width="22.610399"
       height="22.610399"
       rx="4.7267799"
       ry="4.6148596"
       fill="url(#linearGradient862)"
       stroke-width="3.0541"
       id="rect35-7-3-1"
       style="fill:#414141;fill-opacity:1;stroke:#dfdfdf;stroke-width:0.978336;stroke-dasharray:none;stroke-opacity:1" />
    <path
       id="path915"
       style="fill:#dfdfdf;fill-opacity:1;stroke:none;stroke-width:0.454545;stroke-dasharray:none;stroke-opacity:0.6;stop-color:#000000"
       d="m 49.179146,41.85057 c -0.8301,-1.27e-4 -1.019296,0.01409 -1.452109,0.106963 -0.60563,0.129812 -1.271723,0.356822 -1.827458,0.622782 -1.441406,0.689829 -2.793456,2.054719 -3.486113,3.518621 -1.535624,3.245482 -0.602042,7.047992 2.266758,9.230595 0.224955,0.171182 0.419471,0.310786 0.431964,0.31034 0.01271,-4.37e-4 0.860365,-1.456308 1.885125,-3.234484 1.024763,-1.778172 1.893766,-3.268139 1.931253,-3.312069 0.04697,-0.05504 1.205366,-0.385502 3.725158,-1.062085 2.011009,-0.539968 3.665647,-0.991036 3.676938,-1.002323 0.011,-0.011 -0.03773,-0.168811 -0.108028,-0.350183 -0.861371,-2.222454 -2.63609,-3.875597 -4.884741,-4.54925 -0.77367,-0.231758 -1.134533,-0.278728 -2.158764,-0.2789 z m 7.363304,5.895465 c -0.0076,-0.0093 -6.631662,1.751687 -6.897791,1.833749 -0.07484,0.02302 -0.07968,0.236088 -0.07968,3.640234 v 3.616121 l 0.35228,-0.03024 c 3.106252,-0.275086 5.783557,-2.576957 6.555994,-5.635445 0.182315,-0.721993 0.243476,-1.335577 0.212826,-2.139897 -0.02096,-0.55255 -0.09645,-1.226962 -0.143659,-1.284357 z m -7.704049,2.924144 -1.506631,2.610653 c -0.828664,1.43605 -1.515116,2.64376 -1.525503,2.682999 -0.04924,0.186025 1.481968,0.700573 2.463871,0.828279 0.07497,0.0096 0.23358,0.02096 0.35228,0.02508 l 0.216021,0.0065 v -3.076156 z" />
  </g>
</svg>
