<?xml version="1.0" encoding="UTF-8" standalone="no"?>
<svg
   width="64"
   height="64"
   version="1.1"
   id="svg73"
   sodipodi:docname="hwloc.svg"
   inkscape:version="1.3.2 (091e20ef0f, 2023-11-25)"
   xmlns:inkscape="http://www.inkscape.org/namespaces/inkscape"
   xmlns:sodipodi="http://sodipodi.sourceforge.net/DTD/sodipodi-0.dtd"
   xmlns="http://www.w3.org/2000/svg"
   xmlns:svg="http://www.w3.org/2000/svg"
   xmlns:rdf="http://www.w3.org/1999/02/22-rdf-syntax-ns#"
   xmlns:cc="http://creativecommons.org/ns#"
   xmlns:dc="http://purl.org/dc/elements/1.1/">
  <metadata
     id="metadata77">
    <rdf:RDF>
      <cc:Work
         rdf:about="">
        <dc:format>image/svg+xml</dc:format>
        <dc:type
           rdf:resource="http://purl.org/dc/dcmitype/StillImage" />
      </cc:Work>
    </rdf:RDF>
  </metadata>
  <sodipodi:namedview
     pagecolor="#f5f7fa"
     bordercolor="#666666"
     borderopacity="1"
     objecttolerance="10"
     gridtolerance="10"
     guidetolerance="10"
     inkscape:pageopacity="0"
     inkscape:pageshadow="2"
     inkscape:window-width="1377"
     inkscape:window-height="886"
     id="namedview75"
     showgrid="false"
     inkscape:zoom="4.4470387"
     inkscape:cx="47.784608"
     inkscape:cy="14.054296"
     inkscape:window-x="181"
     inkscape:window-y="77"
     inkscape:window-maximized="0"
     inkscape:current-layer="g877"
     inkscape:document-rotation="0"
     inkscape:pagecheckerboard="0"
     inkscape:showpageshadow="2"
     inkscape:deskcolor="#d1d1d1" />
  <defs
     id="defs29">
    <linearGradient
       id="b"
       x1="399.57"
       x2="399.57"
       y1="545.8"
       y2="517.8"
       gradientTransform="matrix(2.1429,0,0,2.1429,-825.86391,-1107.6662)"
       gradientUnits="userSpaceOnUse">
      <stop
         stop-color="#3889e9"
         offset="0"
         id="stop2" />
      <stop
         stop-color="#5ea5fb"
         offset="1"
         id="stop4" />
    </linearGradient>
    <linearGradient
       id="d"
       x2="1"
       gradientTransform="matrix(14.905727,-4.7106182,4.7106182,14.905727,322.04962,998.26962)"
       gradientUnits="userSpaceOnUse">
      <stop
         stop-color="#fafafa"
         offset="0"
         id="stop7" />
      <stop
         stop-color="#aaa"
         offset="1"
         id="stop8" />
    </linearGradient>
    <linearGradient
       id="e"
       x2="1"
       gradientTransform="matrix(21.439909,0,0,21.439909,26.63554,1159.7788)"
       gradientUnits="userSpaceOnUse">
      <stop
         stop-color="#f0f0f0"
         offset="0"
         id="stop9" />
      <stop
         stop-color="#b7f1ff"
         offset="1"
         id="stop10" />
    </linearGradient>
  </defs>
  <circle
     cx="32.516094"
     cy="31.877844"
     r="0"
     fill="url(#b)"
     stroke-width="1.5715"
     id="circle41"
     style="fill:url(#b)" />
  <g
     aria-label="GZ"
     transform="matrix(1.2212657,0,0,0.81882264,0.4960938,-0.1661539)"
     id="text93"
     style="font-weight:bold;font-size:11.5263px;line-height:1.25;font-family:sans-serif;-inkscape-font-specification:'sans-serif Bold';fill:#f2f2f2;stroke-width:0.288159" />
  <g
     id="g877"
     transform="matrix(1.1,0,0,1.1,-3.1845928,-3.2065454)">
    <rect
       x="6.3010068"
       y="5.4939413"
       width="51.635597"
       height="53.148327"
       rx="10.980581"
       ry="10.720582"
       fill="url(#linearGradient862)"
       stroke-width="3.0541"
       id="rect35-7-3"
       style="fill:#414141;fill-opacity:1;stroke:#dfdfdf;stroke-width:2.27272727;stroke-dasharray:none;stroke-opacity:1" />
    <path
       style="fill:#dfdfdf;fill-opacity:1;stroke:none;stroke-width:1.31769;stroke-dasharray:none;stroke-opacity:0.3"
       d="m 17.312766,51.165501 c -1.071133,-0.308287 -2.239877,-1.167102 -2.856712,-2.099198 -1.370786,-2.071408 -1.115626,-4.580409 0.644849,-6.340884 0.52697,-0.52697 1.1863,-1.015396 1.465175,-1.085391 l 0.507048,-0.12727 v -9.066016 -9.066025 l -0.60466,-0.250459 c -0.797775,-0.330449 -1.849601,-1.375654 -2.327948,-2.31329 -1.221391,-2.394123 -0.350331,-5.238502 2.033311,-6.63962 0.846859,-0.497789 1.233681,-0.589327 2.470703,-0.584662 2.09651,0.0079 3.623433,0.906851 4.528147,2.665862 l 0.404108,0.785702 h 9.010325 9.010326 l 0.190295,-0.500525 c 0.575785,-1.514444 2.862234,-3.05531 4.539586,-3.059283 2.799076,-0.0065 5.142032,2.260023 5.158662,4.990663 0.004,0.660866 -0.149822,1.560089 -0.346658,2.026241 -0.421523,0.998442 -1.624351,2.285881 -2.45832,2.631323 l -0.598838,0.248051 v 9.063321 9.063321 l 0.604662,0.250434 c 0.887726,0.367695 1.916302,1.450615 2.391003,2.517274 1.696161,3.811344 -1.960339,8.015033 -5.954904,6.846061 -1.351635,-0.395547 -2.558479,-1.344706 -3.127208,-2.459508 L 41.57854,47.843808 h -8.985217 -8.98523 l -0.548383,0.935743 c -0.676374,1.154136 -1.679682,1.940449 -2.972383,2.329492 -1.114594,0.335452 -1.759553,0.348578 -2.774561,0.05643 z m 24.633062,-7.202597 0.351963,-0.73811 -1.21649,-1.229313 c -1.16305,-1.175335 -1.253569,-1.224332 -2.061336,-1.115996 -0.995507,0.133523 -2.058133,-0.348714 -2.471867,-1.12178 -0.269014,-0.502657 -0.281174,-0.50424 -3.87642,-0.50424 h -3.606562 l -0.864564,0.864568 c -0.823986,0.823985 -0.912991,0.859912 -1.896289,0.765432 -1.024372,-0.09841 -1.040324,-0.09041 -2.239224,1.12109 l -1.207502,1.220239 0.351975,0.73811 0.351977,0.738106 h 9.016185 9.016172 z M 22.976956,40.997531 c 1.158443,-1.146342 1.197459,-1.220595 1.082421,-2.059895 -0.13946,-1.017478 0.285852,-2.011426 1.084664,-2.534826 l 0.519442,-0.340351 v -3.63769 -3.637689 l -0.534512,-0.350224 c -0.807108,-0.528838 -1.20965,-1.464601 -1.069594,-2.486419 0.115155,-0.840103 0.07669,-0.912887 -1.095166,-2.072515 l -1.214509,-1.201833 -0.76688,0.365699 -0.766882,0.365703 v 8.951304 8.951305 l 0.680943,0.420974 c 0.374522,0.231547 0.725351,0.428795 0.779627,0.438307 0.05429,0.0096 0.639477,-0.517791 1.300446,-1.171863 z m 21.751603,-8.53992 -0.0013,-9.022973 -0.66278,-0.377316 -0.662774,-0.377315 -1.230163,1.215396 c -1.161051,1.147119 -1.222883,1.258789 -1.100664,1.987757 0.159425,0.950852 -0.380914,2.206111 -1.088364,2.528456 -0.48763,0.222175 -0.490625,0.246259 -0.490625,3.93719 v 3.713648 l 0.541303,0.354674 c 0.732691,0.48008 1.2049,1.663965 1.031781,2.586785 -0.127457,0.679445 -0.05369,0.814522 1.059496,1.939426 l 1.196494,1.209122 0.704474,-0.335913 0.70447,-0.335909 -0.0012,-9.022974 z m -8.213162,4.816487 c 0.128495,-0.281994 0.473615,-0.669977 0.766953,-0.862178 l 0.533345,-0.349462 V 32.434206 28.805955 L 37.199523,28.367203 C 36.86063,28.125889 36.524278,27.742331 36.452081,27.514852 36.327884,27.123571 36.120512,27.101254 32.608727,27.101254 h -3.712082 l -0.363771,0.615811 c -0.200073,0.338701 -0.550397,0.675047 -0.778496,0.747444 -0.392853,0.124675 -0.414729,0.328593 -0.414729,3.864789 v 3.73316 l 0.533343,0.349462 c 0.293338,0.192201 0.638468,0.580185 0.766956,0.862178 l 0.233615,0.512721 h 3.704112 3.704115 z m -0.06332,-12.053089 c 0.07219,-0.227474 0.415448,-0.615948 0.762775,-0.863267 0.502247,-0.35763 0.839914,-0.429644 1.649722,-0.351829 1.007652,0.09683 1.030767,0.08516 2.22573,-1.122397 l 1.207499,-1.220238 -0.351957,-0.738108 -0.35196,-0.738105 H 32.60176 23.609666 l -0.418204,0.708808 -0.41821,0.708807 1.232108,1.21925 c 1.167144,1.154966 1.281049,1.216241 2.160386,1.162165 1.099633,-0.06763 2.017434,0.351898 2.421465,1.106834 l 0.289897,0.541679 h 3.721853 c 3.521511,0 3.72892,-0.02226 3.85312,-0.413599 z"
       id="path2647" />
  </g>
</svg>
