<?xml version="1.0" encoding="UTF-8" standalone="no"?>
<svg
   width="64"
   height="64"
   version="1.1"
   id="svg73"
   sodipodi:docname="Logo.svg"
   inkscape:version="1.3.2 (091e20ef0f, 2023-11-25)"
   xmlns:inkscape="http://www.inkscape.org/namespaces/inkscape"
   xmlns:sodipodi="http://sodipodi.sourceforge.net/DTD/sodipodi-0.dtd"
   xmlns="http://www.w3.org/2000/svg"
   xmlns:svg="http://www.w3.org/2000/svg"
   xmlns:rdf="http://www.w3.org/1999/02/22-rdf-syntax-ns#"
   xmlns:cc="http://creativecommons.org/ns#"
   xmlns:dc="http://purl.org/dc/elements/1.1/">
  <metadata
     id="metadata77">
    <rdf:RDF>
      <cc:Work
         rdf:about="">
        <dc:format>image/svg+xml</dc:format>
        <dc:type
           rdf:resource="http://purl.org/dc/dcmitype/StillImage" />
      </cc:Work>
    </rdf:RDF>
  </metadata>
  <sodipodi:namedview
     pagecolor="#f5f7fa"
     bordercolor="#666666"
     borderopacity="1"
     objecttolerance="10"
     gridtolerance="10"
     guidetolerance="10"
     inkscape:pageopacity="0"
     inkscape:pageshadow="2"
     inkscape:window-width="1377"
     inkscape:window-height="886"
     id="namedview75"
     showgrid="false"
     inkscape:zoom="6.2890624"
     inkscape:cx="27.667081"
     inkscape:cy="34.265839"
     inkscape:window-x="181"
     inkscape:window-y="77"
     inkscape:window-maximized="0"
     inkscape:current-layer="g877"
     inkscape:document-rotation="0"
     inkscape:pagecheckerboard="0"
     inkscape:showpageshadow="2"
     inkscape:deskcolor="#d1d1d1" />
  <defs
     id="defs29">
    <linearGradient
       id="b"
       x1="399.57"
       x2="399.57"
       y1="545.8"
       y2="517.8"
       gradientTransform="matrix(2.1429,0,0,2.1429,-825.86391,-1107.6662)"
       gradientUnits="userSpaceOnUse">
      <stop
         stop-color="#3889e9"
         offset="0"
         id="stop2" />
      <stop
         stop-color="#5ea5fb"
         offset="1"
         id="stop4" />
    </linearGradient>
    <linearGradient
       id="d"
       x2="1"
       gradientTransform="matrix(14.905727,-4.7106182,4.7106182,14.905727,322.04962,998.26962)"
       gradientUnits="userSpaceOnUse">
      <stop
         stop-color="#fafafa"
         offset="0"
         id="stop7" />
      <stop
         stop-color="#aaa"
         offset="1"
         id="stop8" />
    </linearGradient>
    <linearGradient
       id="e"
       x2="1"
       gradientTransform="matrix(21.439909,0,0,21.439909,26.63554,1159.7788)"
       gradientUnits="userSpaceOnUse">
      <stop
         stop-color="#f0f0f0"
         offset="0"
         id="stop9" />
      <stop
         stop-color="#b7f1ff"
         offset="1"
         id="stop10" />
    </linearGradient>
  </defs>
  <circle
     cx="32.516094"
     cy="31.877844"
     r="0"
     fill="url(#b)"
     stroke-width="1.5715"
     id="circle41"
     style="fill:url(#b)" />
  <g
     aria-label="GZ"
     transform="matrix(1.2212657,0,0,0.81882264,0.4960938,-0.1661539)"
     id="text93"
     style="font-weight:bold;font-size:11.5263px;line-height:1.25;font-family:sans-serif;-inkscape-font-specification:'sans-serif Bold';fill:#f2f2f2;stroke-width:0.288159" />
  <g
     id="g877"
     transform="matrix(1.1,0,0,1.1,-3.1845928,-3.2065454)">
    <rect
       x="6.3010068"
       y="5.4939413"
       width="51.635597"
       height="53.148327"
       rx="10.980581"
       ry="10.720582"
       fill="url(#linearGradient862)"
       stroke-width="3.0541"
       id="rect35-7-3"
       style="fill:#414141;fill-opacity:1;stroke:#dfdfdf;stroke-width:2.27272727;stroke-dasharray:none;stroke-opacity:1" />
    <g
       id="g223"
       transform="matrix(1.0673289,0,0,1.0673289,-1.3516846,-1.7806002)"
       style="fill:#dfdfdf;fill-opacity:1;stroke:none;stroke-width:1.11111;stroke-dasharray:none;stroke-opacity:0.3">
      <g
         id="g157"
         style="fill:#dfdfdf;fill-opacity:1;stroke:none;stroke-width:1.41373;stroke-dasharray:none;stroke-opacity:0.3"
         transform="matrix(0.78594219,0,0,0.78594219,5.5521931,6.8175425)">
        <path
           style="fill:#dfdfdf;fill-opacity:1;stroke:none;stroke-width:1.41373;stroke-dasharray:none;stroke-opacity:0.3"
           d="m 14.468799,24.068451 c -0.982555,-0.849138 -1.882859,-1.672408 -2.000676,-1.82949 -0.525954,-0.701234 -0.468009,-1.654074 0.141838,-2.332371 0.500014,-0.556135 0.951853,-0.752848 1.74194,-0.75837 0.750202,-0.0052 1.19839,0.164376 1.663619,0.629605 l 0.297853,0.297853 0.291314,-0.283811 c 1.041658,-1.014827 2.856722,-0.839064 3.645609,0.353024 0.395395,0.597483 0.342439,1.603957 -0.112863,2.145052 -0.156389,0.185858 -3.103059,2.714871 -3.760885,3.227822 -0.101129,0.07886 -0.418177,-0.162004 -1.907749,-1.449314 z"
           id="path134" />
        <path
           style="fill:#dfdfdf;fill-opacity:1;stroke:none;stroke-width:1.41373;stroke-dasharray:none;stroke-opacity:0.3"
           d="m 12.35169,16.176876 c 0.138128,-0.384853 0.841453,-2.351897 1.562944,-4.371208 l 1.311801,-3.6714749 1.073292,-7.674e-4 1.073292,-7.672e-4 1.590062,4.2607235 c 0.874534,2.343398 1.60163,4.310786 1.615767,4.371975 0.02104,0.09107 -0.167257,0.111251 -1.038056,0.111251 H 18.47703 l -0.269228,-0.556522 -0.269228,-0.556522 h -1.613455 -1.613455 l -0.28026,0.556522 -0.28026,0.556522 h -1.025298 -1.025299 z m 5.040127,-2.659274 c -0.02088,-0.05466 -0.263828,-0.806546 -0.539882,-1.670861 -0.276053,-0.864315 -0.524925,-1.544066 -0.553049,-1.510559 -0.04752,0.05662 -0.953196,3.128945 -0.953196,3.233534 0,0.02599 0.468921,0.04726 1.042046,0.04726 0.800884,0 1.03326,-0.023 1.004081,-0.09938 z"
           id="path173" />
        <path
           style="fill:#dfdfdf;fill-opacity:1;stroke:none;stroke-width:1.41373;stroke-dasharray:none;stroke-opacity:0.3"
           d="m 28.508984,36.766211 c -2.492734,-2.311071 -4.660375,-4.377633 -4.816981,-4.592359 -0.392201,-0.537756 -0.743462,-1.260198 -0.908041,-1.867577 -0.170564,-0.629465 -0.19104,-1.929578 -0.03997,-2.537742 0.493418,-1.986323 2.150702,-3.612494 4.181819,-4.10331 0.727765,-0.175864 2.049443,-0.177312 2.768223,-0.003 1.19201,0.289019 2.368402,1.023039 3.097239,1.93255 0.384453,0.479757 0.534538,0.599428 0.534538,0.426217 0,-0.04291 0.241491,-0.335007 0.536646,-0.649111 1.52074,-1.61837 3.600913,-2.211958 5.796103,-1.653948 1.797005,0.456792 3.345249,1.892241 3.890579,3.607136 0.576426,1.812679 0.160631,3.800308 -1.077696,5.151724 -0.429356,0.468565 -9.223728,8.416599 -9.372442,8.470471 -0.03178,0.01151 -2.097286,-1.869945 -4.59002,-4.181016 z"
           id="path212" />
        <path
           style="fill:#dfdfdf;fill-opacity:1;stroke:none;stroke-width:1.41373;stroke-dasharray:none;stroke-opacity:0.3"
           d="m 47.609044,45.348915 c -1.394535,-0.364579 -2.075729,-1.643369 -1.490683,-2.798424 0.186361,-0.367932 0.465075,-0.640377 1.888198,-1.845731 0.918261,-0.777747 1.784238,-1.502819 1.924394,-1.611272 l 0.254829,-0.197186 1.852003,1.611271 c 1.563918,1.360632 1.887006,1.679289 2.077016,2.048538 0.193299,0.375642 0.219984,0.505001 0.189343,0.917878 -0.04095,0.551826 -0.187045,0.876841 -0.563231,1.253027 -0.437461,0.437461 -0.951354,0.639468 -1.639944,0.644648 -0.705283,0.0053 -1.221023,-0.192901 -1.689441,-0.649276 l -0.298136,-0.290472 -0.298137,0.290472 c -0.537213,0.523403 -1.526286,0.804283 -2.206211,0.626527 z"
           id="path251" />
        <path
           style="fill:#dfdfdf;fill-opacity:1;stroke:none;stroke-width:1.41373;stroke-dasharray:none;stroke-opacity:0.3"
           d="m 47.486343,52.08909 c -0.850775,-2.367659 -1.55879,-4.336322 -1.573365,-4.374807 -0.01458,-0.03849 0.444523,-0.06997 1.020218,-0.06997 h 1.04672 l 0.247273,0.556521 0.247273,0.556522 h 1.63893 1.638929 l 0.247273,-0.556522 0.247273,-0.556521 h 1.085204 c 0.998152,0 1.081492,0.01116 1.038933,0.13913 -0.02545,0.07652 -0.756688,2.03528 -1.624976,4.352795 l -1.578707,4.213665 -1.067057,0.02201 -1.067057,0.02201 z m 3.16866,0.532967 c 0.270561,-0.847829 0.491929,-1.581245 0.491929,-1.629814 0,-0.06003 -0.318218,-0.08831 -0.993789,-0.08831 -0.626333,0 -0.993789,0.03016 -0.993789,0.08157 0,0.164416 0.903521,3.178054 0.952814,3.178054 0.028,0 0.272274,-0.693678 0.542835,-1.541507 z"
           id="path290" />
      </g>
    </g>
  </g>
</svg>
