<?xml version="1.0" encoding="UTF-8" standalone="no"?>
<svg
   width="64"
   height="64"
   version="1.1"
   id="svg73"
   sodipodi:docname="audacious.svg"
   inkscape:version="1.4.2 (ebf0e940d0, 2025-05-08)"
   xmlns:inkscape="http://www.inkscape.org/namespaces/inkscape"
   xmlns:sodipodi="http://sodipodi.sourceforge.net/DTD/sodipodi-0.dtd"
   xmlns="http://www.w3.org/2000/svg"
   xmlns:svg="http://www.w3.org/2000/svg"
   xmlns:rdf="http://www.w3.org/1999/02/22-rdf-syntax-ns#"
   xmlns:cc="http://creativecommons.org/ns#"
   xmlns:dc="http://purl.org/dc/elements/1.1/">
  <metadata
     id="metadata77">
    <rdf:RDF>
      <cc:Work
         rdf:about="">
        <dc:format>image/svg+xml</dc:format>
        <dc:type
           rdf:resource="http://purl.org/dc/dcmitype/StillImage" />
      </cc:Work>
    </rdf:RDF>
  </metadata>
  <sodipodi:namedview
     pagecolor="#f5f7fa"
     bordercolor="#666666"
     borderopacity="1"
     objecttolerance="10"
     gridtolerance="10"
     guidetolerance="10"
     inkscape:pageopacity="0"
     inkscape:pageshadow="2"
     inkscape:window-width="1377"
     inkscape:window-height="886"
     id="namedview75"
     showgrid="false"
     inkscape:zoom="6.2890624"
     inkscape:cx="46.82733"
     inkscape:cy="42.21615"
     inkscape:window-x="226"
     inkscape:window-y="192"
     inkscape:window-maximized="0"
     inkscape:current-layer="g877"
     inkscape:document-rotation="0"
     inkscape:pagecheckerboard="0"
     inkscape:showpageshadow="2"
     inkscape:deskcolor="#d1d1d1" />
  <defs
     id="defs29" />
  <circle
     cx="32.516094"
     cy="31.877844"
     r="0"
     fill="url(#b)"
     stroke-width="1.5715"
     id="circle41"
     style="fill:url(#b)" />
  <g
     aria-label="GZ"
     transform="matrix(1.2212657,0,0,0.81882264,0.4960938,-0.1661539)"
     id="text93"
     style="font-weight:bold;font-size:11.5263px;line-height:1.25;font-family:sans-serif;-inkscape-font-specification:'sans-serif Bold';fill:#f2f2f2;stroke-width:0.288159" />
  <g
     id="g877"
     transform="matrix(1.1,0,0,1.1,-3.1845928,-3.2065454)">
    <rect
       x="8.3496294"
       y="8.369586"
       width="47.272728"
       height="47.272728"
       rx="9.8825235"
       ry="9.6485243"
       fill="url(#linearGradient862)"
       stroke-width="3.0541"
       id="rect35-7-3"
       style="fill:#414141;fill-opacity:1;stroke:#dfdfdf;stroke-width:2.04545;stroke-dasharray:none;stroke-opacity:1" />
    <path
       id="path8"
       style="fill:#dfdfdf;fill-opacity:1;stroke:none;stroke-width:0.520931;stroke-dasharray:none;stroke-opacity:0.6"
       d="m 33.666801,17.130155 c -0.07905,0.0021 -0.130303,0.01223 -0.147189,0.03047 -0.09571,0.103404 -0.619996,1.456765 -0.91004,2.349609 l -0.249498,0.766479 -0.956711,0.04307 c -0.841273,0.03902 -1.814226,0.188553 -2.197022,0.335669 -0.09392,0.0361 -0.217934,-0.09458 -0.472074,-0.493611 -0.6046,-0.949302 -1.547427,-2.251422 -1.629817,-2.250875 -0.311802,0.0021 -2.967059,1.281057 -3.764017,1.812906 -0.10971,0.07321 0.06503,1.248175 0.378735,2.548834 0.0878,0.364076 0.15975,0.727579 0.15975,0.805934 0,0.08035 -0.216523,0.311035 -0.497203,0.529514 -0.273714,0.21305 -0.883398,0.773981 -1.353395,1.247491 L 21.173921,25.717223 20.874163,25.56465 C 20.548831,25.398834 19.309443,24.86363 18.6556,24.60794 l -0.407456,-0.157956 -0.560024,0.849012 c -0.62587,0.949472 -1.371981,2.266141 -1.575969,2.782178 l -0.134624,0.339251 0.384119,0.457711 c 0.210892,0.251367 0.710077,0.81494 1.109282,1.252878 l 0.725163,0.796959 0.421812,3.422978 c 0.231732,1.883148 0.446088,3.548191 0.475664,3.699404 0.05263,0.269023 0.06658,0.277939 0.646184,0.398483 0.725236,0.150854 0.742585,0.178562 0.877731,1.391089 l 0.09872,0.893887 0.990814,0.181247 c 0.54427,0.09949 1.007387,0.161129 1.030307,0.138254 0.02291,-0.02326 -0.01254,-0.46408 -0.07897,-0.980043 -0.124831,-0.969318 -0.10143,-1.152369 0.16693,-1.288781 0.08162,-0.04145 0.921658,-0.01861 2.065992,0.05747 1.521547,0.100842 1.954938,0.154505 2.053428,0.253096 0.08381,0.08387 0.167644,0.4694 0.25488,1.172105 l 0.129237,1.046455 0.6049,0.02685 c 0.332201,0.01504 1.022995,0.03221 1.53648,0.04128 l 0.93338,0.01575 -0.03591,-0.21898 c -0.215902,-1.26912 -0.246112,-2.109694 -0.08078,-2.246913 0.157194,-0.130484 5.443116,-0.793268 5.668463,-0.710805 0.215826,0.07893 0.232018,0.132203 0.387712,1.344427 0.07019,0.546533 0.137104,1.005857 0.150775,1.019528 0.02326,0.02328 2.841524,-0.700914 2.898855,-0.744901 0.01468,-0.01147 -0.03621,-0.510557 -0.111294,-1.109285 -0.132991,-1.058452 -0.131631,-1.092961 0.01432,-1.229543 0.151354,-0.14159 3.565683,-1.278012 3.839404,-1.27801 0.284454,0 0.39205,0.254415 0.515155,1.220565 0.06598,0.517758 0.138289,0.958617 0.159766,0.980049 0.02183,0.02183 0.445086,-0.150282 0.942354,-0.380511 0.497245,-0.230257 0.911003,-0.420487 0.919,-0.42361 0.0083,-0.0032 -0.0386,-0.414869 -0.104076,-0.915429 -0.06533,-0.500565 -0.09881,-0.992616 -0.07361,-1.093129 0.03006,-0.116989 0.189373,-0.255411 0.443356,-0.38412 0.218228,-0.110576 0.395024,-0.245755 0.393114,-0.299754 -0.002,-0.054 -0.211713,-1.745897 -0.466691,-3.760428 l -0.465017,-3.663524 0.29974,-0.516946 c 0.164244,-0.284664 0.514326,-0.951509 0.779008,-1.480838 l 0.481215,-0.96232 -0.536687,-0.630029 c -0.622847,-0.730008 -2.538146,-2.580819 -2.670913,-2.58082 -0.07708,0 -1.572782,1.104162 -2.313694,1.707001 l -0.238695,0.193861 -0.597711,-0.394892 c -0.328493,-0.21713 -1.049332,-0.61774 -1.601119,-0.890314 l -1.003383,-0.495408 -0.05207,-0.954915 c -0.02954,-0.525534 -0.07565,-1.305268 -0.102312,-1.732137 L 37.793405,17.988154 37.18671,17.797887 C 36.137267,17.467302 34.2202,17.115185 33.666803,17.130155 Z m 5.961046,11.642073 c 0.425093,0.0045 0.839534,0.07957 1.157746,0.226161 0.623694,0.287318 1.019083,0.613678 1.351597,1.114667 1.145725,1.726245 0.344453,4.061059 -1.604688,4.675853 -1.755841,0.553834 -3.498283,-0.424778 -3.959672,-2.225739 -0.1551,-0.605419 -0.107384,-1.231444 0.143591,-1.904446 0.234248,-0.628132 1.038507,-1.427235 1.69444,-1.683667 0.357126,-0.139616 0.791887,-0.207215 1.216983,-0.20283 z m -0.314131,1.317496 c -1.034349,0.001 -1.971659,0.842394 -1.976252,1.997785 -0.0031,0.808261 0.537479,1.577822 1.30853,1.863162 0.416744,0.154222 1.116613,0.108375 1.522116,-0.100517 1.486558,-0.765802 1.496666,-2.815337 0.01826,-3.552214 -0.286493,-0.1428 -0.582628,-0.208506 -0.872245,-0.208219 z m -14.041917,0.518741 c 0.80135,0 0.9149,0.02074 1.337243,0.22796 0.589043,0.289074 1.173819,0.872053 1.462886,1.461093 0.207263,0.422346 0.226165,0.535893 0.226165,1.337241 0,0.801351 -0.01891,0.914898 -0.226165,1.337239 -0.288909,0.588719 -0.872926,1.172414 -1.459296,1.459299 -0.600005,0.293558 -1.743506,0.357372 -2.374724,0.131032 -0.870607,-0.312175 -1.540811,-0.973926 -1.877523,-1.852392 -0.250643,-0.653922 -0.197755,-1.777008 0.114883,-2.416009 0.286886,-0.586369 0.870585,-1.168593 1.459298,-1.457503 0.422346,-0.207257 0.535889,-0.22796 1.337241,-0.22796 z m 0.262069,1.182875 c -0.346924,0.0089 -0.702193,0.111943 -1.032102,0.330273 -0.652215,0.431617 -1.032999,1.308707 -0.874142,2.015735 0.154218,0.686371 0.583513,1.209514 1.22057,1.486221 0.374648,0.162726 1.15129,0.149685 1.54007,-0.02693 0.714247,-0.324451 1.148909,-1.005218 1.150565,-1.802125 0.0024,-1.198294 -0.964199,-2.030232 -2.004961,-2.00317 z m 22.217939,3.667092 c -0.0783,-0.04839 -1.339032,0.519439 -1.339032,0.603104 0,0.02874 0.05444,0.459645 0.120246,0.958508 0.06578,0.498867 0.09959,0.970209 0.07536,1.04646 -0.04306,0.135747 -0.305181,0.273535 -2.209591,1.159543 -1.005251,0.467716 -1.275456,0.49801 -1.401842,0.159733 -0.03623,-0.09734 -0.111943,-0.598286 -0.168682,-1.112873 -0.06168,-0.55856 -0.138576,-0.935528 -0.190269,-0.935176 -0.04765,3.27e-4 -0.624678,0.172213 -1.281599,0.382323 -1.009646,0.322938 -1.192254,0.407575 -1.186458,0.538494 0.004,0.08517 0.05384,0.593226 0.113089,1.130819 0.09314,0.844718 0.09365,0.993968 -0.0054,1.091331 -0.12347,0.121395 -3.920102,1.155949 -4.241485,1.155949 -0.106744,0 -0.238631,-0.05162 -0.292577,-0.116666 -0.05383,-0.06502 -0.158478,-0.602476 -0.233227,-1.193638 -0.07474,-0.591154 -0.158315,-1.098868 -0.18667,-1.127229 -0.04904,-0.04909 -4.125358,0.429489 -4.189421,0.491815 -0.01682,0.01611 0.02713,0.492513 0.09871,1.057226 0.159165,1.256181 0.159555,1.24769 0.0056,1.401863 -0.107526,0.107549 -0.424757,0.123899 -2.25985,0.123899 -1.93189,0 -2.152923,-0.01288 -2.311899,-0.141762 -0.150505,-0.121858 -0.193375,-0.295231 -0.306939,-1.213395 l -0.132826,-1.073382 -1.313908,-0.08616 c -0.722201,-0.04779 -1.325844,-0.07636 -1.342716,-0.06286 -0.01686,0.01324 0.02606,0.481602 0.09695,1.039269 0.114894,0.904619 0.115912,1.034035 0.009,1.19724 -0.07602,0.116094 -0.197516,0.183074 -0.33386,0.183074 -0.408018,0 -3.24657,-0.572682 -3.354768,-0.676705 -0.06408,-0.06157 -0.157677,-0.510053 -0.229744,-1.094921 l -0.12221,-0.989014 -0.725163,-0.138217 c -0.39875,-0.07564 -0.806117,-0.157371 -0.904657,-0.181284 -0.172782,-0.04204 -0.177703,-0.02399 -0.177703,0.50977 0,1.936557 1.263909,3.845795 3.410414,5.149723 1.656527,1.006282 4.096617,1.769812 6.621583,2.071379 1.108666,0.132383 4.130383,0.156798 5.266397,0.04306 5.119806,-0.512411 9.673093,-2.31575 12.421083,-4.919972 1.571655,-1.489415 2.360636,-2.980481 2.439347,-4.613029 0.0386,-0.804198 -0.08029,-1.722582 -0.235161,-1.818291 z" />
  </g>
</svg>
