<?xml version="1.0" encoding="UTF-8" standalone="no"?>
<svg
   width="64"
   height="64"
   version="1.1"
   id="svg73"
   sodipodi:docname="audacious.svg"
   inkscape:version="1.4.2 (ebf0e940d0, 2025-05-08)"
   xmlns:inkscape="http://www.inkscape.org/namespaces/inkscape"
   xmlns:sodipodi="http://sodipodi.sourceforge.net/DTD/sodipodi-0.dtd"
   xmlns="http://www.w3.org/2000/svg"
   xmlns:svg="http://www.w3.org/2000/svg"
   xmlns:rdf="http://www.w3.org/1999/02/22-rdf-syntax-ns#"
   xmlns:cc="http://creativecommons.org/ns#"
   xmlns:dc="http://purl.org/dc/elements/1.1/">
  <metadata
     id="metadata77">
    <rdf:RDF>
      <cc:Work
         rdf:about="">
        <dc:format>image/svg+xml</dc:format>
        <dc:type
           rdf:resource="http://purl.org/dc/dcmitype/StillImage" />
      </cc:Work>
    </rdf:RDF>
  </metadata>
  <sodipodi:namedview
     pagecolor="#f5f7fa"
     bordercolor="#666666"
     borderopacity="1"
     objecttolerance="10"
     gridtolerance="10"
     guidetolerance="10"
     inkscape:pageopacity="0"
     inkscape:pageshadow="2"
     inkscape:window-width="1377"
     inkscape:window-height="886"
     id="namedview75"
     showgrid="false"
     inkscape:zoom="6.2890624"
     inkscape:cx="47.622361"
     inkscape:cy="45.396274"
     inkscape:window-x="16"
     inkscape:window-y="55"
     inkscape:window-maximized="0"
     inkscape:current-layer="g877"
     inkscape:document-rotation="0"
     inkscape:pagecheckerboard="0"
     inkscape:showpageshadow="2"
     inkscape:deskcolor="#d1d1d1" />
  <defs
     id="defs29" />
  <circle
     cx="32.516094"
     cy="31.877844"
     r="0"
     fill="url(#b)"
     stroke-width="1.5715"
     id="circle41"
     style="fill:url(#b)" />
  <g
     aria-label="GZ"
     transform="matrix(1.2212657,0,0,0.81882264,0.4960938,-0.1661539)"
     id="text93"
     style="font-weight:bold;font-size:11.5263px;line-height:1.25;font-family:sans-serif;-inkscape-font-specification:'sans-serif Bold';fill:#f2f2f2;stroke-width:0.288159" />
  <g
     id="g877"
     transform="matrix(1.1,0,0,1.1,-3.1845928,-3.2065454)">
    <rect
       x="8.3496294"
       y="8.369586"
       width="47.272728"
       height="47.272728"
       rx="9.8825235"
       ry="9.6485243"
       fill="url(#linearGradient862)"
       stroke-width="3.0541"
       id="rect35-7-3"
       style="fill:#414141;fill-opacity:1;stroke:#dfdfdf;stroke-width:2.04545;stroke-dasharray:none;stroke-opacity:1" />
    <path
       style="fill:#dfdfdf;fill-opacity:1;stroke:none;stroke-width:0.534878;stroke-dasharray:none;stroke-opacity:0.6"
       d="m 30.334421,47.859726 c -2.063732,-0.222468 -4.367477,-0.963476 -6.169354,-1.984412 -4.282194,-2.426244 -7.186957,-6.658751 -7.9617,-11.600927 -0.137184,-0.875117 -0.175813,-4.321079 -0.05123,-4.572136 0.04243,-0.08553 0.152741,-0.51942 0.245125,-0.964192 0.635446,-3.059357 2.140231,-5.8108 4.396519,-8.038866 2.515166,-2.483706 5.452084,-3.942898 9.011909,-4.477515 1.008716,-0.151489 3.354369,-0.149695 4.38552,0.0034 3.500843,0.519635 6.579133,2.059858 9.044894,4.52562 3.124033,3.124035 4.774899,7.271256 4.652835,11.688649 -0.116816,4.225717 -1.7832,8.005393 -4.842229,10.982724 -2.43875,2.373625 -5.31036,3.793808 -8.804302,4.354248 -0.74167,0.118932 -3.109399,0.169532 -3.907969,0.0834 z m 9.707124,-3.700749 c 0.340465,-0.225745 0.815013,-0.567659 1.054499,-0.759725 0.457141,-0.366605 1.772876,-1.619972 1.772876,-1.688813 0,-0.0224 -0.24213,-0.0043 -0.538156,0.03844 -1.623787,0.23716 -3.830667,0.261155 -5.049973,0.05503 -2.383073,-0.402825 -4.646752,-1.218137 -8.812548,-3.173949 -3.051062,-1.432456 -5.659504,-2.331684 -7.962361,-2.744934 -0.640251,-0.114909 -2.461537,-0.16493 -2.556329,-0.07026 -0.100601,0.100464 0.467885,1.660511 0.972415,2.668519 0.760677,1.519774 1.530725,2.58302 2.764571,3.817176 0.479676,0.47979 1.121929,1.058553 1.427228,1.286127 l 0.555095,0.413786 0.342487,-0.305248 c 0.692403,-0.617128 1.811017,-1.058196 2.684024,-1.058309 0.549034,-5.6e-5 1.644941,0.179686 2.51934,0.413302 1.688812,0.451157 2.324571,0.606268 3.305447,0.806465 1.214695,0.247929 2.864387,0.489381 4.003753,0.586052 0.427668,0.03638 0.875549,0.07523 0.995294,0.08647 0.119792,0.01136 0.596969,0.02546 1.060502,0.03006 l 0.842759,0.0098 z m 5.774293,-7.536318 c 0.215035,-0.653106 0.444934,-1.512916 0.485333,-1.814846 0.01781,-0.131734 -0.01504,-0.16028 -0.259772,-0.225349 -1.813244,-0.482627 -6.179162,-3.341556 -10.823812,-7.087753 -1.847,-1.489722 -3.54738,-2.583069 -5.75405,-3.699863 -2.80207,-1.418124 -5.655844,-2.365989 -7.123368,-2.365989 h -0.422485 l -0.570423,0.602732 c -1.580239,1.669743 -2.750993,3.733793 -3.398775,5.992075 -0.08927,0.311221 -0.149414,0.578759 -0.133661,0.59452 0.0158,0.01585 0.277786,-0.03338 0.582283,-0.10916 0.731776,-0.18215 2.402385,-0.195483 3.352891,-0.02669 1.435374,0.254834 2.880008,0.687233 4.541035,1.359207 1.775023,0.71809 2.642007,1.143153 6.189491,3.034565 1.695995,0.904254 5.093866,2.56595 6.318172,3.089833 1.367661,0.585223 2.671613,1.041365 3.440783,1.203624 0.422829,0.08919 0.834115,0.113991 1.946175,0.117428 l 1.410036,0.0046 z m 0.633548,-6.438313 c -0.02396,-0.248046 -0.11405,-0.786903 -0.200225,-1.197463 -0.59109,-2.81632 -2.127717,-5.565122 -4.215563,-7.541054 -2.628189,-2.487313 -5.829897,-3.831067 -9.584174,-4.022466 l -0.622061,-0.03166 0.373237,0.164155 c 2.950723,1.29783 5.857133,3.466652 8.531221,6.366167 1.535991,1.665477 2.142199,2.395504 4.1284,4.971598 0.621899,0.806599 1.470286,1.741763 1.580136,1.741763 0.02853,0 0.03308,-0.202947 0.0085,-0.450991 z"
       id="path452" />
  </g>
</svg>
