<?xml version="1.0" encoding="UTF-8" standalone="no"?>
<svg
   width="64"
   height="64"
   version="1.1"
   id="svg73"
   sodipodi:docname="accessories-archiver.svg"
   inkscape:version="1.2.2 (b0a8486541, 2022-12-01)"
   xmlns:inkscape="http://www.inkscape.org/namespaces/inkscape"
   xmlns:sodipodi="http://sodipodi.sourceforge.net/DTD/sodipodi-0.dtd"
   xmlns="http://www.w3.org/2000/svg"
   xmlns:svg="http://www.w3.org/2000/svg"
   xmlns:rdf="http://www.w3.org/1999/02/22-rdf-syntax-ns#"
   xmlns:cc="http://creativecommons.org/ns#"
   xmlns:dc="http://purl.org/dc/elements/1.1/">
  <metadata
     id="metadata77">
    <rdf:RDF>
      <cc:Work
         rdf:about="">
        <dc:format>image/svg+xml</dc:format>
        <dc:type
           rdf:resource="http://purl.org/dc/dcmitype/StillImage" />
      </cc:Work>
    </rdf:RDF>
  </metadata>
  <sodipodi:namedview
     pagecolor="#f5f7fa"
     bordercolor="#666666"
     borderopacity="1"
     objecttolerance="10"
     gridtolerance="10"
     guidetolerance="10"
     inkscape:pageopacity="0"
     inkscape:pageshadow="2"
     inkscape:window-width="1280"
     inkscape:window-height="603"
     id="namedview75"
     showgrid="false"
     inkscape:zoom="4.4470387"
     inkscape:cx="45.198617"
     inkscape:cy="14.166731"
     inkscape:window-x="35"
     inkscape:window-y="32"
     inkscape:window-maximized="0"
     inkscape:current-layer="g877"
     inkscape:document-rotation="0"
     inkscape:pagecheckerboard="0"
     inkscape:showpageshadow="2"
     inkscape:deskcolor="#d1d1d1" />
  <defs
     id="defs29">
    <linearGradient
       id="b"
       x1="399.57"
       x2="399.57"
       y1="545.8"
       y2="517.8"
       gradientTransform="matrix(2.1429,0,0,2.1429,-825.86391,-1107.6662)"
       gradientUnits="userSpaceOnUse">
      <stop
         stop-color="#3889e9"
         offset="0"
         id="stop2" />
      <stop
         stop-color="#5ea5fb"
         offset="1"
         id="stop4" />
    </linearGradient>
  </defs>
  <circle
     cx="32.516094"
     cy="31.877844"
     r="0"
     fill="url(#b)"
     stroke-width="1.5715"
     id="circle41"
     style="fill:url(#b)" />
  <g
     aria-label="GZ"
     transform="matrix(1.2212657,0,0,0.81882264,0.4960938,-0.1661539)"
     id="text93"
     style="font-weight:bold;font-size:11.5263px;line-height:1.25;font-family:sans-serif;-inkscape-font-specification:'sans-serif Bold';fill:#f2f2f2;stroke-width:0.288159" />
  <g
     id="g877"
     transform="matrix(1.1,0,0,1.1,-3.1845928,-3.2065454)">
    <rect
       x="6.3010068"
       y="5.4939413"
       width="51.635597"
       height="53.148327"
       rx="10.980581"
       ry="10.720582"
       fill="url(#linearGradient862)"
       stroke-width="3.0541"
       id="rect35-7-3"
       style="fill:#414141;fill-opacity:1;stroke:#dfdfdf;stroke-width:2.27272727;stroke-dasharray:none;stroke-opacity:1" />
    <path
       id="path3211"
       style="fill:#dfdfdf;stroke:none;stroke-width:0.10254;stroke-opacity:1;fill-opacity:1"
       d="m 40.274879,16.971652 c -1.232019,-0.01932 -2.309313,0.47155 -3.315873,1.490944 -0.241889,0.244972 -0.578774,0.686508 -0.747869,0.981179 -0.298724,0.52056 -0.638982,0.844066 -1.845704,1.754617 -1.124101,0.848208 -2.774458,2.721839 -5.075284,5.759233 -1.456408,1.922646 -2.71566,3.703235 -3.515625,4.973011 -1.376282,2.184559 -2.55699,3.518622 -4.068537,4.595881 -0.458718,0.326921 -1.169298,0.904861 -1.578835,1.283204 l -0.744674,0.687144 0.170988,0.330788 c 0.170702,0.330102 0.170305,0.331381 -0.164595,0.63601 -0.2511,0.228403 -0.291378,0.30617 -0.159801,0.308415 0.09671,0.0016 0.225678,0.09495 0.286044,0.207742 0.06036,0.112793 0.129814,0.206143 0.155007,0.206143 0.02519,0 0.583672,-0.464152 1.240057,-1.030717 0.656384,-0.566569 1.210523,-1.01231 1.232066,-0.990768 0.02155,0.02155 -0.05325,0.307745 -0.166193,0.63601 -0.112939,0.328265 -0.206143,0.622242 -0.206143,0.653586 0,0.03136 0.230976,-0.169699 0.512961,-0.447443 l 0.512962,-0.504971 v 0.396307 c 0,0.394102 0.0039,0.389596 0.725497,-0.703125 0.812263,-1.229869 1.969254,-2.521664 2.25799,-2.521664 0.328882,0 2.615791,-0.790516 3.544389,-1.225674 l 0.89169,-0.418679 0.314809,0.282849 c 0.173329,0.154927 0.626069,0.581378 1.006747,0.947621 l 0.691939,0.664772 v -0.985973 c 0,-1.065321 0.02605,-1.110574 0.599254,-1.10902 0.253095,6.69e-4 0.285009,0.05251 0.441051,0.699929 0.174857,0.725461 0.867311,2.440601 1.024326,2.537642 0.04923,0.03043 0.08949,-0.265254 0.08949,-0.656782 0,-0.651554 0.01895,-0.716847 0.230113,-0.773438 0.482213,-0.129229 0.667463,-0.07484 0.73988,0.217329 0.08153,0.328941 0.839084,1.87434 0.992366,2.024681 0.07102,0.06965 0.08035,-0.530503 0.03037,-1.871272 -0.06435,-1.725944 -0.05251,-1.973543 0.0831,-1.973543 0.0853,0 0.286899,-0.02676 0.449041,-0.05913 0.284189,-0.05675 0.299572,-0.03887 0.423473,0.487393 0.07069,0.300255 0.310542,0.924298 0.532138,1.387074 0.401324,0.838119 1.217973,2.133055 1.295987,2.055042 0.03438,-0.03438 -0.711984,-2.340803 -0.923651,-2.854048 -0.04911,-0.119101 0.04283,-0.210592 0.348367,-0.348368 0.228505,-0.103038 0.426717,-0.169941 0.441051,-0.147015 0.949873,1.519021 1.662676,2.251764 2.985085,3.069779 0.788883,0.487985 2.430939,1.163847 2.684659,1.104225 0.07236,-0.017 -0.332216,-0.657535 -0.93963,-1.487747 -0.586864,-0.80212 -1.067472,-1.521717 -1.067472,-1.598013 0,-0.07629 0.114048,-0.245478 0.252486,-0.375532 l 0.250888,-0.236505 0.672762,0.286043 c 0.369793,0.157163 0.696073,0.262734 0.7239,0.234908 0.07079,-0.07079 -1.552397,-2.00237 -3.173651,-3.777699 -1.072473,-1.174396 -1.497845,-1.729731 -1.99272,-2.60316 -0.610302,-1.077144 -0.732085,-1.393466 -0.535334,-1.393466 0.193833,0 0.745752,-0.659773 1.041903,-1.24645 0.331437,-0.656569 0.706339,-1.968042 0.968395,-3.394175 0.159295,-0.866902 0.182901,-0.91778 0.67436,-1.377481 0.629044,-0.588398 1.263074,-1.822662 1.482955,-2.889206 0.08577,-0.416007 0.225354,-0.890975 0.310014,-1.054687 0.151411,-0.292804 0.149656,-0.296535 -0.09588,-0.234908 -0.156082,0.03918 -0.609772,-0.06026 -1.209695,-0.266867 -0.631998,-0.217664 -1.22337,-0.333194 -1.783381,-0.341975 z m -26.629262,2.807706 0.150213,0.231712 c 0.0825,0.126893 2.192088,3.356021 4.686968,7.176669 l 4.535157,6.946556 0.441051,-0.530541 c 0.242527,-0.29205 0.735742,-0.985554 1.094638,-1.540483 3.435415,-5.311896 7.798516,-10.735262 9.504971,-11.8125 0.224851,-0.141941 0.439937,-0.305665 0.476207,-0.364346 0.0455,-0.07363 -3.180568,-0.107067 -10.411044,-0.107067 z m 33.294568,0 c -2.889271,0 -3.134627,0.01493 -3.191229,0.180576 -0.247132,0.723202 -0.841721,1.750266 -1.302379,2.251597 -0.517227,0.562896 -0.552915,0.640661 -0.720703,1.516514 -0.373732,1.950874 -0.797079,3.150027 -1.414241,4.00941 l -0.335582,0.468216 0.356357,0.677557 c 0.196255,0.372986 0.74566,1.108813 1.22088,1.634767 0.475221,0.525952 0.896154,0.920942 0.934836,0.877308 0.05792,-0.06532 3.33099,-5.079106 6.8315,-10.462181 l 0.751065,-1.153764 z m -16.844638,15.355291 -0.985973,0.423473 c -0.543083,0.232948 -1.459596,0.562736 -2.035867,0.733488 -0.9046,0.268032 -1.1061,0.369282 -1.471768,0.743075 l -0.423473,0.433061 3.338246,5.104049 3.338245,5.104047 1.495739,-2.283557 c 0.822579,-1.256379 1.957823,-2.990997 2.521662,-3.854404 l 1.024325,-1.569247 -0.461825,-0.481002 c -0.25428,-0.264526 -0.61252,-0.708422 -0.79581,-0.985972 l -0.333984,-0.504972 v 1.043501 c 0,0.573634 -0.03641,1.041903 -0.0815,1.041903 -0.11038,0 -1.244058,-1.645152 -1.697088,-2.462535 -0.365224,-0.658958 -0.392617,-0.66193 -0.525746,-0.05913 l -0.06552,0.298828 -0.583274,-0.55451 C 32.030965,37.000181 31.39265,36.388093 30.932904,35.943243 Z m 7.302912,1.975143 c -0.02336,0 -0.04154,0.46036 -0.04154,1.024325 0,0.563965 0.01763,1.025923 0.03995,1.025923 0.02232,0 0.186666,-0.226485 0.364346,-0.503373 l 0.322799,-0.503375 -0.3212,-0.522549 c -0.17664,-0.287075 -0.340988,-0.520951 -0.364347,-0.520951 z" />
  </g>
</svg>
