<?xml version="1.0" encoding="UTF-8" standalone="no"?>
<svg
   width="64"
   height="64"
   version="1.1"
   id="svg73"
   sodipodi:docname="audacious.svg"
   inkscape:version="1.4.2 (ebf0e940d0, 2025-05-08)"
   xmlns:inkscape="http://www.inkscape.org/namespaces/inkscape"
   xmlns:sodipodi="http://sodipodi.sourceforge.net/DTD/sodipodi-0.dtd"
   xmlns="http://www.w3.org/2000/svg"
   xmlns:svg="http://www.w3.org/2000/svg"
   xmlns:rdf="http://www.w3.org/1999/02/22-rdf-syntax-ns#"
   xmlns:cc="http://creativecommons.org/ns#"
   xmlns:dc="http://purl.org/dc/elements/1.1/">
  <metadata
     id="metadata77">
    <rdf:RDF>
      <cc:Work
         rdf:about="">
        <dc:format>image/svg+xml</dc:format>
        <dc:type
           rdf:resource="http://purl.org/dc/dcmitype/StillImage" />
      </cc:Work>
    </rdf:RDF>
  </metadata>
  <sodipodi:namedview
     pagecolor="#f5f7fa"
     bordercolor="#666666"
     borderopacity="1"
     objecttolerance="10"
     gridtolerance="10"
     guidetolerance="10"
     inkscape:pageopacity="0"
     inkscape:pageshadow="2"
     inkscape:window-width="1377"
     inkscape:window-height="886"
     id="namedview75"
     showgrid="false"
     inkscape:zoom="6.2890624"
     inkscape:cx="46.350311"
     inkscape:cy="39.67205"
     inkscape:window-x="226"
     inkscape:window-y="192"
     inkscape:window-maximized="0"
     inkscape:current-layer="g877"
     inkscape:document-rotation="0"
     inkscape:pagecheckerboard="0"
     inkscape:showpageshadow="2"
     inkscape:deskcolor="#d1d1d1" />
  <defs
     id="defs29" />
  <circle
     cx="32.516094"
     cy="31.877844"
     r="0"
     fill="url(#b)"
     stroke-width="1.5715"
     id="circle41"
     style="fill:url(#b)" />
  <g
     aria-label="GZ"
     transform="matrix(1.2212657,0,0,0.81882264,0.4960938,-0.1661539)"
     id="text93"
     style="font-weight:bold;font-size:11.5263px;line-height:1.25;font-family:sans-serif;-inkscape-font-specification:'sans-serif Bold';fill:#f2f2f2;stroke-width:0.288159" />
  <g
     id="g877"
     transform="matrix(1.1,0,0,1.1,-3.1845928,-3.2065454)">
    <rect
       x="8.3496294"
       y="8.369586"
       width="47.272728"
       height="47.272728"
       rx="9.8825235"
       ry="9.6485243"
       fill="url(#linearGradient862)"
       stroke-width="3.0541"
       id="rect35-7-3"
       style="fill:#414141;fill-opacity:1;stroke:#dfdfdf;stroke-width:2.04545;stroke-dasharray:none;stroke-opacity:1" />
    <path
       d="m 16.812375,19.631796 -0.561991,0.562462 v 1.124891 l 0.561991,0.562461 h 1.685962 v 21.936346 l 0.562,0.562458 h 1.685961 L 45.474328,21.31944 V 20.194551 L 44.91234,19.632088 H 34.796559 l -0.561997,0.562463 v 1.124889 l 0.561997,0.562464 h 1.685964 v 1.124889 L 24.118508,34.25569 V 21.8813 h 1.685964 l 0.562,-0.562463 v -1.124889 l -0.562,-0.562461 z m 17.303414,13.499022 -0.796912,0.562462 -0.37766,1.124889 0.421494,0.562464 h 1.216151 l 0.796905,-0.562464 0.375412,-1.124889 -0.419247,-0.562462 m -4.131795,3.374756 -0.338321,1.124891 h 1.011577 l -2.13561,5.62462 h 3.371927 l 0.414757,-1.124889 h -0.976765 l 2.135611,-5.624622 m 1.347647,0 -0.393393,1.124891 h 0.842993 l -2.135611,5.62462 h 2.867299 l 0.393401,-1.124889 H 36.98633 l 1.18134,-3.374754 h 2.388443 l -1.60281,4.499725 h 2.809994 l 0.449597,-1.124886 h -0.617072 l 1.179098,-3.374757 h 2.247976 l -1.573595,4.499735 h 2.94598 l 0.515903,-1.124892 h -0.785666 l 1.596085,-4.499731 -0.900327,-1.124892 h -1.347653 l -1.124027,1.124892 h -0.955401 l -0.956509,-1.124892 h -1.066644 l -1.067762,1.124892 h -1.124032 l -1.011582,-1.124892"
       fill="url(#c)"
       id="path37"
       style="fill:#dfdfdf;fill-opacity:1;stroke:none;stroke-width:0.496125;stroke-dasharray:none;stroke-opacity:0.6" />
  </g>
</svg>
