<?xml version="1.0" encoding="UTF-8" standalone="no"?>
<svg
   width="64"
   height="64"
   version="1.1"
   id="svg73"
   sodipodi:docname="gnome-window-manager.svg"
   inkscape:version="1.4 (e7c3feb100, 2024-10-09)"
   xmlns:inkscape="http://www.inkscape.org/namespaces/inkscape"
   xmlns:sodipodi="http://sodipodi.sourceforge.net/DTD/sodipodi-0.dtd"
   xmlns="http://www.w3.org/2000/svg"
   xmlns:svg="http://www.w3.org/2000/svg"
   xmlns:rdf="http://www.w3.org/1999/02/22-rdf-syntax-ns#"
   xmlns:cc="http://creativecommons.org/ns#"
   xmlns:dc="http://purl.org/dc/elements/1.1/">
  <metadata
     id="metadata77">
    <rdf:RDF>
      <cc:Work
         rdf:about="">
        <dc:format>image/svg+xml</dc:format>
        <dc:type
           rdf:resource="http://purl.org/dc/dcmitype/StillImage" />
      </cc:Work>
    </rdf:RDF>
  </metadata>
  <sodipodi:namedview
     pagecolor="#f5f7fa"
     bordercolor="#666666"
     borderopacity="1"
     objecttolerance="10"
     gridtolerance="10"
     guidetolerance="10"
     inkscape:pageopacity="0"
     inkscape:pageshadow="2"
     inkscape:window-width="1183"
     inkscape:window-height="973"
     id="namedview75"
     showgrid="false"
     inkscape:zoom="4.4470387"
     inkscape:cx="26.646946"
     inkscape:cy="12.030478"
     inkscape:window-x="35"
     inkscape:window-y="32"
     inkscape:window-maximized="0"
     inkscape:current-layer="g877"
     inkscape:document-rotation="0"
     inkscape:pagecheckerboard="0"
     inkscape:showpageshadow="2"
     inkscape:deskcolor="#d1d1d1" />
  <defs
     id="defs29">
    <linearGradient
       id="b"
       x1="399.57"
       x2="399.57"
       y1="545.8"
       y2="517.8"
       gradientTransform="matrix(2.1429,0,0,2.1429,-825.86391,-1107.6662)"
       gradientUnits="userSpaceOnUse">
      <stop
         stop-color="#3889e9"
         offset="0"
         id="stop2" />
      <stop
         stop-color="#5ea5fb"
         offset="1"
         id="stop4" />
    </linearGradient>
    <linearGradient
       id="d"
       x2="1"
       gradientTransform="matrix(14.905727,-4.7106182,4.7106182,14.905727,322.04962,998.26962)"
       gradientUnits="userSpaceOnUse">
      <stop
         stop-color="#fafafa"
         offset="0"
         id="stop7" />
      <stop
         stop-color="#aaa"
         offset="1"
         id="stop8" />
    </linearGradient>
    <linearGradient
       id="e"
       x2="1"
       gradientTransform="matrix(21.439909,0,0,21.439909,26.63554,1159.7788)"
       gradientUnits="userSpaceOnUse">
      <stop
         stop-color="#f0f0f0"
         offset="0"
         id="stop9" />
      <stop
         stop-color="#b7f1ff"
         offset="1"
         id="stop10" />
    </linearGradient>
  </defs>
  <circle
     cx="32.516094"
     cy="31.877844"
     r="0"
     fill="url(#b)"
     stroke-width="1.5715"
     id="circle41"
     style="fill:url(#b)" />
  <g
     aria-label="GZ"
     transform="matrix(1.2212657,0,0,0.81882264,0.4960938,-0.1661539)"
     id="text93"
     style="font-weight:bold;font-size:11.5263px;line-height:1.25;font-family:sans-serif;-inkscape-font-specification:'sans-serif Bold';fill:#f2f2f2;stroke-width:0.288159" />
  <g
     id="g877"
     transform="matrix(1.1,0,0,1.1,-3.1845928,-3.2065454)">
    <rect
       x="6.3010068"
       y="5.4939413"
       width="51.635597"
       height="53.148327"
       rx="10.980581"
       ry="10.720582"
       fill="url(#linearGradient862)"
       stroke-width="3.0541"
       id="rect35-7-3"
       style="fill:#414141;fill-opacity:1;stroke:#dfdfdf;stroke-width:2.27272727;stroke-dasharray:none;stroke-opacity:1" />
    <path
       style="fill:#dfdfdf;fill-opacity:1;stroke-width:0.203749"
       d="m 31.300518,53.118581 c -0.220752,-0.11127 -0.562331,-0.325122 -0.759062,-0.475231 -0.896532,-0.684056 -6.561603,-5.610213 -7.064248,-6.142834 -1.024054,-1.085126 -0.689207,-0.05576 -5.24308,-16.117849 -2.205383,-7.778669 -4.054887,-14.33431 -4.110006,-14.568093 -0.140526,-0.596021 -0.129759,-1.089628 0.03064,-1.404012 0.260666,-0.510949 0.727699,-0.800087 2.201582,-1.362985 l 1.070085,-0.408682 H 31.985822 46.54522 l 1.040075,0.397473 c 1.62753,0.621975 2.051122,0.885767 2.272274,1.415059 0.134839,0.322715 0.106758,0.993016 -0.06916,1.65121 -0.08487,0.31751 -1.93325,6.842589 -4.107511,14.500177 -4.490252,15.814335 -4.164259,14.81513 -5.186456,15.896984 -0.50585,0.535372 -6.165733,5.458102 -7.058611,6.139285 -0.536266,0.409118 -1.116195,0.681806 -1.450004,0.681806 -0.179921,0 -0.430956,-0.07411 -0.685297,-0.202308 z m 1.535299,-4.212789 c 0.447674,-0.224413 0.813952,-0.435924 0.813952,-0.470026 0,-0.0341 -0.09227,-0.881957 -0.205048,-1.884122 l -0.20505,-1.82212 -0.591554,-0.594307 c -0.325354,-0.326868 -0.62339,-0.594306 -0.662302,-0.594306 -0.03892,0 -0.336947,0.267438 -0.662302,0.594306 l -0.591554,0.594307 -0.205048,1.82212 c -0.112778,1.002165 -0.20505,1.850006 -0.20505,1.884093 0,0.05638 1.526249,0.866306 1.64802,0.874556 0.02858,0.002 0.41826,-0.180088 0.865936,-0.404501 z m -4.38166,-5.535921 c 0.933851,-0.0926 1.747359,-0.168411 1.807793,-0.168458 0.06355,-4.9e-5 0.287765,-0.269856 0.53175,-0.639869 l 0.421872,-0.639784 -0.413959,-0.615644 c -0.268654,-0.399548 -0.467223,-0.626802 -0.565708,-0.647435 -0.193186,-0.04047 -3.641752,-0.377763 -3.862361,-0.377763 -0.143374,0 -0.218359,0.107607 -0.56863,0.816006 l -0.40348,0.816008 0.42277,0.848741 0.422768,0.848743 0.254636,-0.03608 c 0.140049,-0.01985 1.018696,-0.111854 1.952549,-0.20446 z m 9.693667,-0.608991 0.422372,-0.847948 -0.40348,-0.816008 c -0.350271,-0.708399 -0.425256,-0.816006 -0.56863,-0.816006 -0.220608,0 -3.669174,0.337291 -3.862359,0.377763 -0.09849,0.02064 -0.297054,0.247887 -0.56571,0.647435 l -0.413958,0.615644 0.421871,0.639784 c 0.350171,0.531047 0.45209,0.64053 0.599667,0.644173 0.09779,0.0023 0.987703,0.09043 1.977586,0.195584 0.989883,0.105156 1.838144,0.194869 1.885027,0.19936 0.04688,0.0045 0.275307,-0.37341 0.507614,-0.839781 z m -5.498186,-3.075797 0.593075,-0.595835 1.024364,-10.040377 1.024363,-10.040377 -1.646517,-2.471677 c -0.905586,-1.359422 -1.652182,-2.471676 -1.659108,-2.471676 -0.0069,0 -0.753522,1.112254 -1.659108,2.471676 l -1.646516,2.471677 1.024364,10.040377 1.024362,10.040377 0.593075,0.595835 c 0.326192,0.32771 0.624913,0.595835 0.663823,0.595835 0.03892,0 0.337632,-0.268125 0.663823,-0.595835 z"
       id="path6" />
  </g>
</svg>
