<?xml version="1.0" encoding="UTF-8" standalone="no"?>
<svg
   width="64"
   height="64"
   version="1.1"
   id="svg73"
   sodipodi:docname="Logo.svg"
   inkscape:version="1.3.2 (091e20ef0f, 2023-11-25)"
   xmlns:inkscape="http://www.inkscape.org/namespaces/inkscape"
   xmlns:sodipodi="http://sodipodi.sourceforge.net/DTD/sodipodi-0.dtd"
   xmlns="http://www.w3.org/2000/svg"
   xmlns:svg="http://www.w3.org/2000/svg"
   xmlns:rdf="http://www.w3.org/1999/02/22-rdf-syntax-ns#"
   xmlns:cc="http://creativecommons.org/ns#"
   xmlns:dc="http://purl.org/dc/elements/1.1/">
  <metadata
     id="metadata77">
    <rdf:RDF>
      <cc:Work
         rdf:about="">
        <dc:format>image/svg+xml</dc:format>
        <dc:type
           rdf:resource="http://purl.org/dc/dcmitype/StillImage" />
      </cc:Work>
    </rdf:RDF>
  </metadata>
  <sodipodi:namedview
     pagecolor="#f5f7fa"
     bordercolor="#666666"
     borderopacity="1"
     objecttolerance="10"
     gridtolerance="10"
     guidetolerance="10"
     inkscape:pageopacity="0"
     inkscape:pageshadow="2"
     inkscape:window-width="1377"
     inkscape:window-height="886"
     id="namedview75"
     showgrid="false"
     inkscape:zoom="6.2890624"
     inkscape:cx="4.2931678"
     inkscape:cy="12.004969"
     inkscape:window-x="181"
     inkscape:window-y="77"
     inkscape:window-maximized="0"
     inkscape:current-layer="g877"
     inkscape:document-rotation="0"
     inkscape:pagecheckerboard="0"
     inkscape:showpageshadow="2"
     inkscape:deskcolor="#d1d1d1" />
  <defs
     id="defs29">
    <linearGradient
       id="b"
       x1="399.57"
       x2="399.57"
       y1="545.8"
       y2="517.8"
       gradientTransform="matrix(2.1429,0,0,2.1429,-825.86391,-1107.6662)"
       gradientUnits="userSpaceOnUse">
      <stop
         stop-color="#3889e9"
         offset="0"
         id="stop2" />
      <stop
         stop-color="#5ea5fb"
         offset="1"
         id="stop4" />
    </linearGradient>
    <linearGradient
       id="d"
       x2="1"
       gradientTransform="matrix(14.905727,-4.7106182,4.7106182,14.905727,322.04962,998.26962)"
       gradientUnits="userSpaceOnUse">
      <stop
         stop-color="#fafafa"
         offset="0"
         id="stop7" />
      <stop
         stop-color="#aaa"
         offset="1"
         id="stop8" />
    </linearGradient>
    <linearGradient
       id="e"
       x2="1"
       gradientTransform="matrix(21.439909,0,0,21.439909,26.63554,1159.7788)"
       gradientUnits="userSpaceOnUse">
      <stop
         stop-color="#f0f0f0"
         offset="0"
         id="stop9" />
      <stop
         stop-color="#b7f1ff"
         offset="1"
         id="stop10" />
    </linearGradient>
  </defs>
  <circle
     cx="32.516094"
     cy="31.877844"
     r="0"
     fill="url(#b)"
     stroke-width="1.5715"
     id="circle41"
     style="fill:url(#b)" />
  <g
     aria-label="GZ"
     transform="matrix(1.2212657,0,0,0.81882264,0.4960938,-0.1661539)"
     id="text93"
     style="font-weight:bold;font-size:11.5263px;line-height:1.25;font-family:sans-serif;-inkscape-font-specification:'sans-serif Bold';fill:#f2f2f2;stroke-width:0.288159" />
  <g
     id="g877"
     transform="matrix(1.1,0,0,1.1,-3.1845928,-3.2065454)">
    <rect
       x="6.3010068"
       y="5.4939413"
       width="51.635597"
       height="53.148327"
       rx="10.980581"
       ry="10.720582"
       fill="url(#linearGradient862)"
       stroke-width="3.0541"
       id="rect35-7-3"
       style="fill:#414141;fill-opacity:1;stroke:#dfdfdf;stroke-width:2.27272727;stroke-dasharray:none;stroke-opacity:1" />
    <path
       id="path4"
       style="fill:#dfdfdf;fill-opacity:1;stroke:none;stroke-width:0.0947368"
       d="m 30.861822,12.561405 -0.132812,0.361328 c -0.174668,0.482665 -3.357422,9.684992 -3.357422,9.707032 0,0.0094 0.291746,0.03736 0.65039,0.06054 2.453794,0.158642 4.231029,0.935843 4.779298,2.091797 0.177392,0.374021 0.246247,1.274445 0.136719,1.785156 -0.03761,0.175396 -0.839479,2.488758 -1.781251,5.140626 -0.941769,2.651865 -1.958644,5.525157 -2.259765,6.384765 l -0.546875,1.5625 h -2.226563 c -1.224471,1.2e-4 -2.226361,-0.02082 -2.226563,-0.04687 -1.99e-4,-0.02605 0.383599,-1.127268 0.853517,-2.447265 0.46992,-1.319999 1.557616,-4.404574 2.417968,-6.853517 l 1.564453,-4.453124 -1.099608,-0.01563 c -0.605569,-0.0095 -1.113788,-0.0054 -1.128907,0.0098 -0.0371,0.0371 -3.61216,10.124011 -4.798828,13.539063 l -0.09375,0.267578 h -2.236329 c -1.816322,-3.8e-5 -2.236327,-0.01594 -2.236327,-0.08402 0,-0.0461 0.328463,-1.018482 0.730468,-2.162108 0.402005,-1.143627 2.352029,-6.924741 4.332031,-12.845703 1.980002,-5.920963 3.628128,-10.819569 3.664062,-10.88672 0.05942,-0.111026 0.0489,-0.118945 -0.115233,-0.07812 -0.377737,0.09395 -1.540804,0.573241 -2.390626,0.984376 -5.74178,2.777812 -9.894071,8.349594 -10.917969,14.650391 -0.343633,2.114633 -0.343633,4.455679 0,6.570312 0.639072,3.93268 2.540488,7.708001 5.324219,10.570313 2.328929,2.394669 4.921191,4.035162 8.015626,5.072265 0.463284,0.155271 0.849874,0.273169 0.859375,0.261719 0.0095,-0.01145 0.5743,-1.583617 1.253905,-3.494141 0.679607,-1.910522 2.397761,-6.727718 3.820313,-10.705078 2.117619,-5.920723 4.937636,-13.867154 5.035157,-14.189454 0.03596,-0.118836 7.704621,-0.04041 8.205077,0.084 0.514594,0.127905 0.821097,0.295156 1.207032,0.660157 0.712888,0.674218 0.860126,1.525594 0.470703,2.740234 -0.563622,1.757966 -4.039507,11.721885 -4.191407,12.015624 -0.15369,0.297207 -0.710619,0.757256 -1.203125,0.994142 -0.793226,0.38153 -1.036074,0.408983 -3.865234,0.458984 l -2.558594,0.04687 -0.617187,1.640624 c -0.339758,0.903156 -1.165978,3.020346 -1.835938,4.705079 -1.29794,3.263913 -2.212889,5.618132 -2.212889,5.695312 0,0.02592 0.163543,0.05778 0.36328,0.07031 0.831431,0.05217 2.686845,0.0411 3.363281,-0.01953 2.240968,-0.200853 4.506361,-0.792673 6.527344,-1.707031 5.989125,-2.709675 10.316627,-8.31514 11.408203,-14.775391 0.213978,-1.266394 0.273437,-2.0155 0.273437,-3.410156 1e-6,-1.394656 -0.05945,-2.143761 -0.273437,-3.410156 -0.667155,-3.948415 -2.540131,-7.619946 -5.361328,-10.507812 -1.580422,-1.617772 -3.134406,-2.780218 -5.068356,-3.791016 -2.887789,-1.509334 -5.969117,-2.247405 -9.375,-2.248047 z m 10.667969,13.199219 c -0.592527,-1e-6 -1.094281,0.0259 -1.113281,0.05664 -0.03681,0.05955 -4.139463,11.709578 -4.189452,11.896485 -0.02735,0.102223 0.05587,0.109373 1.101562,0.109373 h 1.130858 L 39.04151,36.11609 c 0.320683,-0.939315 1.241203,-3.604615 2.044922,-5.921875 0.803719,-2.317259 1.474024,-4.261475 1.490235,-4.322264 0.02721,-0.102124 -0.05173,-0.111329 -1.046876,-0.111329 z" />
  </g>
</svg>
