<?xml version="1.0" encoding="UTF-8" standalone="no"?>
<svg
   width="64"
   height="64"
   version="1.1"
   id="svg73"
   sodipodi:docname="Logo.svg"
   inkscape:version="1.3.2 (091e20ef0f, 2023-11-25)"
   xmlns:inkscape="http://www.inkscape.org/namespaces/inkscape"
   xmlns:sodipodi="http://sodipodi.sourceforge.net/DTD/sodipodi-0.dtd"
   xmlns="http://www.w3.org/2000/svg"
   xmlns:svg="http://www.w3.org/2000/svg"
   xmlns:rdf="http://www.w3.org/1999/02/22-rdf-syntax-ns#"
   xmlns:cc="http://creativecommons.org/ns#"
   xmlns:dc="http://purl.org/dc/elements/1.1/">
  <metadata
     id="metadata77">
    <rdf:RDF>
      <cc:Work
         rdf:about="">
        <dc:format>image/svg+xml</dc:format>
        <dc:type
           rdf:resource="http://purl.org/dc/dcmitype/StillImage" />
      </cc:Work>
    </rdf:RDF>
  </metadata>
  <sodipodi:namedview
     pagecolor="#f5f7fa"
     bordercolor="#666666"
     borderopacity="1"
     objecttolerance="10"
     gridtolerance="10"
     guidetolerance="10"
     inkscape:pageopacity="0"
     inkscape:pageshadow="2"
     inkscape:window-width="1377"
     inkscape:window-height="886"
     id="namedview75"
     showgrid="false"
     inkscape:zoom="6.2890624"
     inkscape:cx="28.462112"
     inkscape:cy="31.085715"
     inkscape:window-x="181"
     inkscape:window-y="77"
     inkscape:window-maximized="0"
     inkscape:current-layer="g877"
     inkscape:document-rotation="0"
     inkscape:pagecheckerboard="0"
     inkscape:showpageshadow="2"
     inkscape:deskcolor="#d1d1d1" />
  <defs
     id="defs29">
    <linearGradient
       id="b"
       x1="399.57"
       x2="399.57"
       y1="545.8"
       y2="517.8"
       gradientTransform="matrix(2.1429,0,0,2.1429,-825.86391,-1107.6662)"
       gradientUnits="userSpaceOnUse">
      <stop
         stop-color="#3889e9"
         offset="0"
         id="stop2" />
      <stop
         stop-color="#5ea5fb"
         offset="1"
         id="stop4" />
    </linearGradient>
    <linearGradient
       id="d"
       x2="1"
       gradientTransform="matrix(14.905727,-4.7106182,4.7106182,14.905727,322.04962,998.26962)"
       gradientUnits="userSpaceOnUse">
      <stop
         stop-color="#fafafa"
         offset="0"
         id="stop7" />
      <stop
         stop-color="#aaa"
         offset="1"
         id="stop8" />
    </linearGradient>
    <linearGradient
       id="e"
       x2="1"
       gradientTransform="matrix(21.439909,0,0,21.439909,26.63554,1159.7788)"
       gradientUnits="userSpaceOnUse">
      <stop
         stop-color="#f0f0f0"
         offset="0"
         id="stop9" />
      <stop
         stop-color="#b7f1ff"
         offset="1"
         id="stop10" />
    </linearGradient>
    <linearGradient
       id="b-3"
       x2="1"
       gradientTransform="matrix(0.16186201,-42.559246,42.559246,0.16186201,783.91966,56.594046)"
       gradientUnits="userSpaceOnUse">
      <stop
         stop-color="#ccc"
         offset="0"
         id="stop3"
         style="stop-color:#dfdfdf;stop-opacity:1;" />
      <stop
         stop-color="#fff"
         offset="1"
         id="stop4-6" />
    </linearGradient>
  </defs>
  <circle
     cx="32.516094"
     cy="31.877844"
     r="0"
     fill="url(#b)"
     stroke-width="1.5715"
     id="circle41"
     style="fill:url(#b)" />
  <g
     aria-label="GZ"
     transform="matrix(1.2212657,0,0,0.81882264,0.4960938,-0.1661539)"
     id="text93"
     style="font-weight:bold;font-size:11.5263px;line-height:1.25;font-family:sans-serif;-inkscape-font-specification:'sans-serif Bold';fill:#f2f2f2;stroke-width:0.288159" />
  <g
     id="g877"
     transform="matrix(1.1,0,0,1.1,-3.1845928,-3.2065454)">
    <rect
       x="6.3010068"
       y="5.4939413"
       width="51.635597"
       height="53.148327"
       rx="10.980581"
       ry="10.720582"
       fill="url(#linearGradient862)"
       stroke-width="3.0541"
       id="rect35-7-3"
       style="fill:#414141;fill-opacity:1;stroke:#dfdfdf;stroke-width:2.27272727;stroke-dasharray:none;stroke-opacity:1" />
    <g
       id="g7"
       transform="matrix(0.81818182,0,0,0.81818182,5.8041753,5.8241321)"
       style="stroke:none;stroke-opacity:1;fill:#dfdfdf;fill-opacity:1">
      <path
         style="fill:#dfdfdf;stroke:none;stroke-opacity:1;fill-opacity:1"
         d="m 55,11 v 12 h -3 v -2 h 1 v -8 h -1 v -2 z m 0,15 v 12 h -3 v -2 h 1 v -8 h -1 v -2 z m 0,15 v 12 h -3 v -2 h 1 V 43 H 52 V 41 Z M 9,11 v 12 h 3 v -2 h -1 v -8 h 1 v -2 z m 0,15 v 12 h 3 v -2 h -1 v -8 h 1 v -2 z m 0,15 v 12 h 3 v -2 h -1 v -8 h 1 v -2 z"
         id="path3" />
      <path
         style="fill:#dfdfdf;stroke:none;stroke-opacity:1;fill-opacity:1"
         d="m 15,41 v 12 h 3 V 41 Z m 6,0 v 12 h 3 V 41 Z M 15,26 v 12 h 3 V 26 Z m 6,0 v 12 h 3 V 26 Z M 15,11 v 12 h 3 V 11 Z m 6,0 v 12 h 3 V 11 Z"
         id="path4" />
      <path
         style="fill:#dfdfdf;stroke:none;stroke-opacity:1;fill-opacity:1"
         d="m 27,26 v 12 h 3 V 26 Z m 7,0 v 12 h 3 V 26 Z"
         id="path5" />
      <path
         style="fill:#dfdfdf;stroke:none;stroke-opacity:1;fill-opacity:1"
         d="m 40,41 v 12 h 3 V 41 Z m 6,0 v 12 h 3 V 41 Z M 40,26 v 12 h 3 V 26 Z m 6,0 v 12 h 3 V 26 Z M 40,11 v 12 h 3 V 11 Z m 6,0 v 12 h 3 V 11 Z"
         id="path6" />
    </g>
    <g
       fill="none"
       stroke-width="4"
       id="g3"
       transform="matrix(0.90909091,0,0,0.90909091,10.167812,12.00595)"
       style="fill:#414141;fill-opacity:1;stroke:#dfdfdf;stroke-opacity:1" />
  </g>
</svg>
