<?xml version="1.0" encoding="UTF-8" standalone="no"?>
<svg
   width="64"
   height="64"
   version="1.1"
   id="svg73"
   sodipodi:docname="partitionmanager.svg"
   inkscape:version="1.4.2 (ebf0e940d0, 2025-05-08)"
   xmlns:inkscape="http://www.inkscape.org/namespaces/inkscape"
   xmlns:sodipodi="http://sodipodi.sourceforge.net/DTD/sodipodi-0.dtd"
   xmlns="http://www.w3.org/2000/svg"
   xmlns:svg="http://www.w3.org/2000/svg"
   xmlns:rdf="http://www.w3.org/1999/02/22-rdf-syntax-ns#"
   xmlns:cc="http://creativecommons.org/ns#"
   xmlns:dc="http://purl.org/dc/elements/1.1/">
  <metadata
     id="metadata77">
    <rdf:RDF>
      <cc:Work
         rdf:about="">
        <dc:format>image/svg+xml</dc:format>
        <dc:type
           rdf:resource="http://purl.org/dc/dcmitype/StillImage" />
      </cc:Work>
    </rdf:RDF>
  </metadata>
  <sodipodi:namedview
     pagecolor="#f5f7fa"
     bordercolor="#666666"
     borderopacity="1"
     objecttolerance="10"
     gridtolerance="10"
     guidetolerance="10"
     inkscape:pageopacity="0"
     inkscape:pageshadow="2"
     inkscape:window-width="1377"
     inkscape:window-height="886"
     id="namedview75"
     showgrid="false"
     inkscape:zoom="6.2890624"
     inkscape:cx="28.700622"
     inkscape:cy="17.570187"
     inkscape:window-x="264"
     inkscape:window-y="102"
     inkscape:window-maximized="0"
     inkscape:current-layer="g877"
     inkscape:document-rotation="0"
     inkscape:pagecheckerboard="0"
     inkscape:showpageshadow="2"
     inkscape:deskcolor="#d1d1d1" />
  <defs
     id="defs29" />
  <circle
     cx="32.516094"
     cy="31.877844"
     r="0"
     fill="url(#b)"
     stroke-width="1.5715"
     id="circle41"
     style="fill:url(#b)" />
  <g
     aria-label="GZ"
     transform="matrix(1.2212657,0,0,0.81882264,0.4960938,-0.1661539)"
     id="text93"
     style="font-weight:bold;font-size:11.5263px;line-height:1.25;font-family:sans-serif;-inkscape-font-specification:'sans-serif Bold';fill:#f2f2f2;stroke-width:0.288159" />
  <g
     id="g877"
     transform="matrix(1.1,0,0,1.1,-3.1845928,-3.2065454)">
    <rect
       x="8.3496294"
       y="8.369586"
       width="47.272728"
       height="47.272728"
       rx="9.8825235"
       ry="9.6485243"
       fill="url(#linearGradient862)"
       stroke-width="3.0541"
       id="rect35-7-3"
       style="fill:#414141;fill-opacity:1;stroke:#dfdfdf;stroke-width:2.04545;stroke-dasharray:none;stroke-opacity:1" />
    <path
       id="path72"
       style="fill:#dfdfdf;fill-opacity:1;stroke:none;stroke-width:0.477661;stroke-dasharray:none;stroke-dashoffset:2.2;stroke-opacity:0.6"
       d="m 31.954446,17.76255 c -9.637532,0 -9.677441,0.0016 -9.984008,0.242498 -0.68894,0.54193 -0.652589,-0.27159 -0.652589,13.946859 0,7.846556 0.04495,13.157522 0.110402,13.329763 0.146746,0.385995 0.560582,0.75501 0.987751,0.881296 0.197067,0.05825 4.502646,0.0961 9.800657,0.08476 9.071427,-0.01978 9.463253,-0.02983 9.775031,-0.240496 0.698704,-0.473579 0.660473,0.332299 0.660473,-14.047416 0,-11.98953 -0.01705,-13.205237 -0.189255,-13.497342 -0.436271,-0.738599 0.137982,-0.699964 -10.50844,-0.699962 z M 16.33373,20.081113 v 1.4491 1.451073 h 1.506276 1.508248 v -1.451073 -1.4491 h -1.508248 z m 28.173675,0 v 1.4491 1.451073 h 1.565429 1.565422 v -1.451073 -1.4491 h -1.565422 z m -17.970821,1.15928 h 0.695962 0.693993 v 1.798067 1.796098 H 27.232546 26.536584 V 23.03846 Z m 4.753445,0 h 0.695963 0.695964 v 4.812592 4.810622 h -0.619074 c -0.340101,0 -0.653444,-0.03432 -0.695963,-0.07688 -0.04251,-0.04252 -0.07689,-2.20674 -0.07689,-4.810624 z m 4.86977,0 h 0.636814 0.638793 v 3.594165 3.596136 H 36.796613 36.159799 V 24.834558 Z M 16.33373,25.414197 v 1.451074 1.449103 h 1.506276 1.508248 v -1.449103 -1.451074 h -1.508248 z m 28.173675,0 v 1.451074 1.449103 h 1.565429 1.565422 v -1.449103 -1.451074 h -1.565422 z m -17.970821,0.581612 h 0.697933 0.697935 l -0.03157,1.825672 -0.03157,1.825668 -0.583586,0.03351 c -0.321161,0.01882 -0.620877,-0.0018 -0.66625,-0.04727 -0.04537,-0.04537 -0.08282,-0.883369 -0.08282,-1.861159 z m 9.623215,3.594166 h 0.636814 0.638793 v 1.796097 1.798068 h -0.638793 -0.636814 v -1.798068 z m -9.623215,1.15928 h 0.695962 0.693993 v 3.594167 3.594158 h -0.693993 -0.695962 v -3.594158 z m -10.202854,0.11435 v 1.391926 1.391923 h 1.506276 1.508248 v -1.391927 -1.391926 h -1.508248 z m 28.173675,0 v 1.391927 1.391926 h 1.565429 1.565422 v -1.391929 -1.391925 h -1.565422 z m -11.825449,1.0331 v 4.816535 4.818505 h -0.697934 -0.695964 l 0.02957,-4.783017 0.02954,-4.783018 0.666388,-0.03346 z m 3.477843,2.446714 h 0.636814 0.638793 v 4.230973 4.232962 H 36.796613 36.159799 V 38.574397 Z M 16.33373,36.198664 v 1.449103 1.449104 h 1.506276 1.508248 v -1.449104 -1.449103 h -1.508248 z m 28.173675,0 v 1.449103 1.449104 h 1.565429 1.565422 V 37.647767 36.198664 H 46.072834 Z M 16.33373,41.531749 v 1.449104 1.449099 h 1.506276 1.508248 v -1.449099 -1.449104 h -1.508248 z m 28.173675,0 v 1.449104 1.449099 h 1.565429 1.565422 v -1.449099 -1.449104 h -1.565422 z" />
  </g>
</svg>
