<?xml version="1.0" encoding="UTF-8" standalone="no"?>
<svg
   width="64"
   height="64"
   version="1.1"
   id="svg73"
   sodipodi:docname="partitionmanager.svg"
   inkscape:version="1.4.2 (ebf0e940d0, 2025-05-08)"
   xmlns:inkscape="http://www.inkscape.org/namespaces/inkscape"
   xmlns:sodipodi="http://sodipodi.sourceforge.net/DTD/sodipodi-0.dtd"
   xmlns="http://www.w3.org/2000/svg"
   xmlns:svg="http://www.w3.org/2000/svg"
   xmlns:rdf="http://www.w3.org/1999/02/22-rdf-syntax-ns#"
   xmlns:cc="http://creativecommons.org/ns#"
   xmlns:dc="http://purl.org/dc/elements/1.1/">
  <metadata
     id="metadata77">
    <rdf:RDF>
      <cc:Work
         rdf:about="">
        <dc:format>image/svg+xml</dc:format>
        <dc:type
           rdf:resource="http://purl.org/dc/dcmitype/StillImage" />
      </cc:Work>
    </rdf:RDF>
  </metadata>
  <sodipodi:namedview
     pagecolor="#f5f7fa"
     bordercolor="#666666"
     borderopacity="1"
     objecttolerance="10"
     gridtolerance="10"
     guidetolerance="10"
     inkscape:pageopacity="0"
     inkscape:pageshadow="2"
     inkscape:window-width="1377"
     inkscape:window-height="886"
     id="namedview75"
     showgrid="false"
     inkscape:zoom="6.2890624"
     inkscape:cx="47.622361"
     inkscape:cy="45.396274"
     inkscape:window-x="264"
     inkscape:window-y="102"
     inkscape:window-maximized="0"
     inkscape:current-layer="g877"
     inkscape:document-rotation="0"
     inkscape:pagecheckerboard="0"
     inkscape:showpageshadow="2"
     inkscape:deskcolor="#d1d1d1" />
  <defs
     id="defs29">
    <linearGradient
       id="b"
       x1="399.57"
       x2="399.57"
       y1="545.8"
       y2="517.8"
       gradientTransform="matrix(2.1429,0,0,2.1429,-825.86391,-1107.6662)"
       gradientUnits="userSpaceOnUse">
      <stop
         stop-color="#3889e9"
         offset="0"
         id="stop2" />
      <stop
         stop-color="#5ea5fb"
         offset="1"
         id="stop4" />
    </linearGradient>
  </defs>
  <circle
     cx="32.516094"
     cy="31.877844"
     r="0"
     fill="url(#b)"
     stroke-width="1.5715"
     id="circle41"
     style="fill:url(#b)" />
  <g
     aria-label="GZ"
     transform="matrix(1.2212657,0,0,0.81882264,0.4960938,-0.1661539)"
     id="text93"
     style="font-weight:bold;font-size:11.5263px;line-height:1.25;font-family:sans-serif;-inkscape-font-specification:'sans-serif Bold';fill:#f2f2f2;stroke-width:0.288159" />
  <g
     id="g877"
     transform="matrix(1.1,0,0,1.1,-3.1845928,-3.2065454)">
    <rect
       x="8.3496294"
       y="8.369586"
       width="47.272728"
       height="47.272728"
       rx="9.8825235"
       ry="9.6485243"
       fill="url(#linearGradient862)"
       stroke-width="3.0541"
       id="rect35-7-3"
       style="fill:#414141;fill-opacity:1;stroke:#dfdfdf;stroke-width:2.04545;stroke-dasharray:none;stroke-opacity:1" />
    <path
       d="m 31.742,16.376633 c -0.8988,-0.002 -1.792408,0.354182 -2.437399,1.073661 l -10.72928,11.965721 c -3.625785,4.89311 2.467659,4.325061 5.079834,5.734561 0.937017,1.043776 -3.590816,1.810159 -2.653797,2.854814 0.937018,1.04377 5.661615,2.009643 6.600092,3.053427 0.937018,1.043767 -1.91647,2.152444 -0.979536,3.196126 0.937019,1.043769 3.10227,0.05421 3.508052,2.463793 0.289163,1.72191 3.909214,0.739959 5.677602,-0.670259 0.937019,-1.044575 -1.791269,-0.942176 -0.854253,-1.985952 2.330049,-2.596786 4.499023,-0.947913 5.296319,-3.549922 0.39381,-1.285702 -3.432992,-1.978611 -2.494365,-3.022383 2.696014,-1.715802 12.012938,-2.833763 7.591397,-7.652147 L 34.224669,17.450559 C 33.544478,16.73891 32.640553,16.378844 31.741673,16.376901 Z m 0.09112,1.135738 c 0.641746,0.0038 1.28211,0.267382 1.742583,0.775756 l 4.248392,4.698036 c 0.402593,0.448322 0.39611,1.314095 0.170778,1.563896 l -2.107005,-1.837038 -0.41572,2.724477 -1.759703,-1.011589 -2.824682,1.936338 -0.933936,-4.089853 -1.514818,2.854817 h -2.312117 c -0.944235,0 -1.05727,-1.305426 -0.199316,-2.240348 1.498588,-1.762757 3.216993,-3.55762 4.151577,-4.598736 0.469691,-0.52318 1.112281,-0.779481 1.754024,-0.775756 z m -5.096871,18.28283 c 0.28677,0.194117 4.623416,1.155183 5.683282,1.346715 0.367446,0.08442 0.107802,0.497193 -0.398638,0.775755 -1.142307,0.330811 -6.682861,-2.12247 -5.284962,-2.12247 z m 16.868401,3.289252 c -0.872665,0.03276 -1.733162,0.516405 -1.97042,1.427446 0,0.593692 4.009179,0.98648 4.009179,-0.13656 -0.286004,-0.901858 -1.166076,-1.323645 -2.038759,-1.290847 z m -18.406025,2.569284 c -1.258008,-0.01337 -2.730963,0.99274 -1.645786,2.016976 0.950572,0.895751 2.418655,-0.226982 2.858844,-1.47705 -0.259035,-0.375089 -0.720752,-0.534954 -1.213058,-0.539936 z m 15.927981,0.08069 c -1.225302,1.197808 0.136092,2.412331 1.34395,1.638434 0.269227,-0.297701 -0.0061,-1.340714 -1.34395,-1.638434 z"
       fill="url(#b)"
       stroke-width="0.837773"
       id="path42"
       style="fill:#dfdfdf;fill-opacity:1;stroke:none;stroke-width:0.397844;stroke-dasharray:none;stroke-opacity:0.6" />
  </g>
</svg>
