<?xml version="1.0" encoding="UTF-8" standalone="no"?>
<svg
   width="64"
   height="64"
   version="1.1"
   id="svg73"
   sodipodi:docname="audacious.svg"
   inkscape:version="1.4.2 (ebf0e940d0, 2025-05-08)"
   xmlns:inkscape="http://www.inkscape.org/namespaces/inkscape"
   xmlns:sodipodi="http://sodipodi.sourceforge.net/DTD/sodipodi-0.dtd"
   xmlns="http://www.w3.org/2000/svg"
   xmlns:svg="http://www.w3.org/2000/svg"
   xmlns:rdf="http://www.w3.org/1999/02/22-rdf-syntax-ns#"
   xmlns:cc="http://creativecommons.org/ns#"
   xmlns:dc="http://purl.org/dc/elements/1.1/">
  <metadata
     id="metadata77">
    <rdf:RDF>
      <cc:Work
         rdf:about="">
        <dc:format>image/svg+xml</dc:format>
        <dc:type
           rdf:resource="http://purl.org/dc/dcmitype/StillImage" />
      </cc:Work>
    </rdf:RDF>
  </metadata>
  <sodipodi:namedview
     pagecolor="#f5f7fa"
     bordercolor="#666666"
     borderopacity="1"
     objecttolerance="10"
     gridtolerance="10"
     guidetolerance="10"
     inkscape:pageopacity="0"
     inkscape:pageshadow="2"
     inkscape:window-width="1377"
     inkscape:window-height="886"
     id="namedview75"
     showgrid="false"
     inkscape:zoom="6.2890624"
     inkscape:cx="47.622361"
     inkscape:cy="45.396274"
     inkscape:window-x="0"
     inkscape:window-y="75"
     inkscape:window-maximized="0"
     inkscape:current-layer="g877"
     inkscape:document-rotation="0"
     inkscape:pagecheckerboard="0"
     inkscape:showpageshadow="2"
     inkscape:deskcolor="#d1d1d1" />
  <defs
     id="defs29" />
  <circle
     cx="32.516094"
     cy="31.877844"
     r="0"
     fill="url(#b)"
     stroke-width="1.5715"
     id="circle41"
     style="fill:url(#b)" />
  <g
     aria-label="GZ"
     transform="matrix(1.2212657,0,0,0.81882264,0.4960938,-0.1661539)"
     id="text93"
     style="font-weight:bold;font-size:11.5263px;line-height:1.25;font-family:sans-serif;-inkscape-font-specification:'sans-serif Bold';fill:#f2f2f2;stroke-width:0.288159" />
  <g
     id="g877"
     transform="matrix(1.1,0,0,1.1,-3.1845928,-3.2065454)">
    <rect
       x="8.3496294"
       y="8.369586"
       width="47.272728"
       height="47.272728"
       rx="9.8825235"
       ry="9.6485243"
       fill="url(#linearGradient862)"
       stroke-width="3.0541"
       id="rect35-7-3"
       style="fill:#414141;fill-opacity:1;stroke:#dfdfdf;stroke-width:2.04545;stroke-dasharray:none;stroke-opacity:1" />
    <path
       id="path1"
       style="opacity:1;fill:#dfdfdf;stroke-width:0.284797;fill-opacity:1"
       d="m 26.684245,16.346165 c -0.333336,0.01052 -0.597201,0.06391 -0.940066,0.13654 -3.359592,0.7117 -5.559352,4.255152 -4.708003,7.583891 0.29897,1.168963 0.775797,1.98181 1.705829,2.908203 1.258996,1.25407 2.604716,1.821714 4.325121,1.824458 1.406535,0.0024 2.521107,-0.365436 3.723806,-1.228333 0.386092,-0.277007 0.774125,-0.502635 0.862326,-0.50138 0.207917,0.0029 3.810865,0.811131 3.840356,0.861419 0.01235,0.02102 0.170644,0.335766 0.351859,0.699438 0.801501,1.608502 2.554839,2.892285 4.417141,3.234236 0.843141,0.154817 1.182179,0.161501 1.939972,0.03855 1.386312,-0.224926 2.669056,-0.87539 3.580389,-1.815629 2.997415,-3.092501 2.141962,-8.035748 -1.72309,-9.956715 -0.699707,-0.347759 -1.368203,-0.511646 -8.496444,-2.083 -6.254539,-1.378754 -7.879179,-1.733209 -8.879196,-1.701677 z m 0.571986,2.47276 c 0.515538,-0.005 1.325435,0.209708 1.437034,0.446866 0.04128,0.08772 0.09812,0.598499 0.126287,1.135144 l 0.05127,0.975761 0.806904,0.371459 c 1.027906,0.473131 1.128833,0.623951 0.96551,1.443785 -0.181106,0.909087 -0.357866,1.027417 -1.535806,1.027417 h -0.939549 l -0.387164,0.830656 c -0.212991,0.456861 -0.458188,0.884018 -0.544858,0.949285 -0.306511,0.230822 -1.584596,-0.0043 -1.775786,-0.326682 -0.05598,-0.09442 -0.123154,-0.610738 -0.149259,-1.147345 l -0.0475,-0.97563 -0.778481,-0.361724 c -0.428226,-0.19893 -0.844815,-0.416629 -0.925665,-0.483729 -0.173678,-0.144139 -0.185889,-0.477554 -0.04205,-1.148252 0.166273,-0.775314 0.292007,-0.849086 1.447676,-0.849086 h 0.983031 l 0.39041,-0.840131 c 0.214694,-0.462085 0.456443,-0.895131 0.537328,-0.962263 0.06966,-0.05781 0.20883,-0.08386 0.380676,-0.08553 z m 14.719224,2.850706 c 0.513718,0.0048 1.028076,0.277999 1.289203,0.817419 0.322887,0.666997 0.08409,1.521895 -0.514481,1.842238 -0.801193,0.428785 -1.715749,0.156277 -2.06626,-0.615721 -0.230212,-0.507039 -0.228908,-0.765338 0.006,-1.250528 0.25878,-0.534571 0.771851,-0.798198 1.285567,-0.793408 z m -3.045911,2.051332 c 0.209646,0.0097 0.414641,0.05857 0.588208,0.14861 0.89817,0.466041 0.959733,1.832843 0.1111,2.46536 -0.144866,0.107978 -0.450672,0.204456 -0.711897,0.224667 -1.443735,0.111717 -2.108997,-1.686763 -0.950712,-2.57023 0.25153,-0.191853 0.61389,-0.284538 0.963301,-0.268407 z m 4.940973,1.141115 c 0.492786,-0.02103 1.001355,0.196324 1.30543,0.604301 0.479474,0.643313 0.225066,1.706219 -0.496446,2.074305 -0.921036,0.469879 -1.969766,-0.04404 -2.139461,-1.048443 -0.08393,-0.496831 0.249304,-1.1978 0.688927,-1.449237 0.196855,-0.112587 0.417561,-0.17136 0.64155,-0.180926 z m -3.028647,2.01577 c 1.144995,-7.75e-4 1.812898,1.137985 1.246635,2.125697 -0.116622,0.203417 -0.360855,0.44909 -0.542783,0.5459 -1.224695,0.651676 -2.568726,-0.590239 -2.008762,-1.856128 0.246691,-0.557685 0.658391,-0.815006 1.30491,-0.815469 z m -12.767833,4.24465 c -0.01934,-5.14e-4 -0.04036,-5.14e-4 -0.06334,2.51e-4 -0.306352,0.01121 -0.960961,0.156521 -2.69327,0.542393 -1.531006,0.341029 -2.838114,0.665329 -2.904702,0.720594 -0.06659,0.05527 -0.144477,0.19486 -0.17301,0.310198 -0.08161,0.329895 1.101751,5.527667 1.311139,5.759043 0.09656,0.106686 0.274632,0.194036 0.395731,0.194036 0.323895,0 5.302565,-1.106413 5.532557,-1.229503 0.107961,-0.05778 0.2227,-0.210038 0.254906,-0.33836 0.03486,-0.138876 -0.185559,-1.334685 -0.544727,-2.955161 -0.545075,-2.45923 -0.626775,-2.739196 -0.845841,-2.901321 -0.07922,-0.05861 -0.133884,-0.09777 -0.269445,-0.102144 z m -2.270545,2.406695 c 0.221608,-0.0096 0.526031,0.309549 1.100617,0.930724 0.847077,0.915759 1.006585,1.213565 0.756287,1.411986 -0.06527,0.05173 -0.631243,0.206594 -1.257794,0.344204 -1.176068,0.258308 -1.48944,0.294911 -1.598103,0.186249 -0.131647,-0.131649 -0.03786,-0.589557 0.346669,-1.692981 0.274372,-0.787318 0.416418,-1.169999 0.652324,-1.180182 z m 11.191143,3.320546 c -0.134484,0.0026 -1.415045,0.269521 -2.845777,0.593403 -2.366123,0.53563 -2.618119,0.611424 -2.78724,0.839091 l -0.185991,0.250364 0.599893,2.739996 c 0.486337,2.221528 0.640111,2.780457 0.813001,2.953635 0.117288,0.117474 0.258139,0.213631 0.312926,0.213631 0.194318,0 5.276138,-1.142297 5.487651,-1.233523 0.473457,-0.204196 0.465647,-0.358367 -0.165482,-3.242154 -0.626933,-2.86462 -0.729162,-3.123536 -1.228981,-3.114443 z m -7.336768,1.672477 c -0.416283,0.0066 -1.179046,0.171497 -2.661736,0.500859 -1.475141,0.327685 -2.758911,0.63647 -2.852783,0.686198 -0.373373,0.197797 -0.354177,0.431001 0.267886,3.265518 0.49895,2.273528 0.637621,2.772926 0.808852,2.911578 0.113676,0.09205 0.25539,0.167745 0.314871,0.168208 0.05947,0.0011 1.304259,-0.260706 2.766214,-0.58055 2.790464,-0.610486 3.085367,-0.723993 3.085367,-1.187965 0,-0.230947 -0.990375,-4.822974 -1.146047,-5.313867 -0.09659,-0.304594 -0.166343,-0.456507 -0.582624,-0.449979 z m 4.307988,0.755508 c 0.21105,0.0021 0.556692,0.111363 1.086213,0.275023 1.267782,0.391838 1.555662,0.539648 1.555662,0.79886 0,0.104318 -0.403481,0.560012 -0.96486,1.089583 -0.53069,0.500628 -1.013844,0.910222 -1.07362,0.910222 -0.299589,0 -0.427732,-0.288897 -0.683605,-1.540223 -0.235049,-1.149483 -0.322704,-1.537234 0.08022,-1.533465 z m -11.698362,0.891138 c -0.401179,-0.0063 -1.178012,0.155866 -2.810992,0.51734 -2.268658,0.50219 -2.76022,0.64013 -2.900417,0.813266 -0.09284,0.114659 -0.168983,0.278473 -0.169117,0.364062 -1.94e-4,0.0856 0.265405,1.350225 0.590026,2.810341 0.404336,1.818674 0.643562,2.708132 0.759661,2.824235 0.09321,0.0932 0.276419,0.169501 0.407152,0.169501 0.473421,0 5.408146,-1.150414 5.572404,-1.299064 0.09117,-0.08252 0.189391,-0.224551 0.218306,-0.315652 0.05281,-0.16638 -1.012536,-5.174973 -1.18654,-5.578375 -0.08371,-0.194078 -0.168456,-0.300788 -0.480483,-0.305654 z m 6.380605,0.512149 c 0.231385,0.0088 0.311608,0.09312 0.343036,0.256597 0.01398,0.07272 -0.160441,0.687532 -0.387554,1.366298 -0.54929,1.641666 -0.563965,1.64418 -1.808752,0.31617 -0.502926,-0.536551 -0.914371,-1.02701 -0.914371,-1.089977 0,-0.254817 0.325364,-0.39497 1.517893,-0.653623 0.635848,-0.137913 1.018364,-0.20433 1.249748,-0.195465 z m -7.826595,1.494275 c 0.07915,-0.0015 0.139723,0.03627 0.195202,0.104866 0.111916,0.13835 0.591714,2.230523 0.591714,2.5801 0,0.137619 -0.07711,0.278812 -0.183522,0.335766 -0.100992,0.05405 -0.197152,0.09483 -0.213634,0.09072 -0.228474,-0.05694 -2.343835,-0.819974 -2.429152,-0.876214 -0.260371,-0.171633 -0.07594,-0.464594 0.842079,-1.337485 0.67116,-0.638164 0.995013,-0.894581 1.197313,-0.897756 z" />
  </g>
</svg>
