<?xml version="1.0" encoding="UTF-8" standalone="no"?>
<svg
   width="64"
   height="64"
   version="1.1"
   id="svg73"
   sodipodi:docname="steam.svg"
   inkscape:version="1.3.2 (091e20ef0f, 2023-11-25)"
   xmlns:inkscape="http://www.inkscape.org/namespaces/inkscape"
   xmlns:sodipodi="http://sodipodi.sourceforge.net/DTD/sodipodi-0.dtd"
   xmlns="http://www.w3.org/2000/svg"
   xmlns:svg="http://www.w3.org/2000/svg"
   xmlns:rdf="http://www.w3.org/1999/02/22-rdf-syntax-ns#"
   xmlns:cc="http://creativecommons.org/ns#"
   xmlns:dc="http://purl.org/dc/elements/1.1/">
  <metadata
     id="metadata77">
    <rdf:RDF>
      <cc:Work
         rdf:about="">
        <dc:format>image/svg+xml</dc:format>
        <dc:type
           rdf:resource="http://purl.org/dc/dcmitype/StillImage" />
      </cc:Work>
    </rdf:RDF>
  </metadata>
  <sodipodi:namedview
     pagecolor="#f5f7fa"
     bordercolor="#666666"
     borderopacity="1"
     objecttolerance="10"
     gridtolerance="10"
     guidetolerance="10"
     inkscape:pageopacity="0"
     inkscape:pageshadow="2"
     inkscape:window-width="1377"
     inkscape:window-height="886"
     id="namedview75"
     showgrid="false"
     inkscape:zoom="4.4470387"
     inkscape:cx="47.784608"
     inkscape:cy="14.054296"
     inkscape:window-x="181"
     inkscape:window-y="77"
     inkscape:window-maximized="0"
     inkscape:current-layer="g877"
     inkscape:document-rotation="0"
     inkscape:pagecheckerboard="0"
     inkscape:showpageshadow="2"
     inkscape:deskcolor="#d1d1d1" />
  <defs
     id="defs29">
    <linearGradient
       id="b"
       x1="399.57"
       x2="399.57"
       y1="545.8"
       y2="517.8"
       gradientTransform="matrix(2.1429,0,0,2.1429,-825.86391,-1107.6662)"
       gradientUnits="userSpaceOnUse">
      <stop
         stop-color="#3889e9"
         offset="0"
         id="stop2" />
      <stop
         stop-color="#5ea5fb"
         offset="1"
         id="stop4" />
    </linearGradient>
  </defs>
  <circle
     cx="32.516094"
     cy="31.877844"
     r="0"
     fill="url(#b)"
     stroke-width="1.5715"
     id="circle41"
     style="fill:url(#b)" />
  <g
     aria-label="GZ"
     transform="matrix(1.2212657,0,0,0.81882264,0.4960938,-0.1661539)"
     id="text93"
     style="font-weight:bold;font-size:11.5263px;line-height:1.25;font-family:sans-serif;-inkscape-font-specification:'sans-serif Bold';fill:#f2f2f2;stroke-width:0.288159" />
  <g
     id="g877"
     transform="matrix(1.1,0,0,1.1,-3.1845928,-3.2065454)">
    <rect
       x="6.3010068"
       y="5.4939413"
       width="51.635597"
       height="53.148327"
       rx="10.980581"
       ry="10.720582"
       fill="url(#linearGradient862)"
       stroke-width="3.0541"
       id="rect35-7-3"
       style="fill:#414141;fill-opacity:1;stroke:#dfdfdf;stroke-width:2.27272727;stroke-dasharray:none;stroke-opacity:1" />
    <path
       id="path46"
       style="fill:#dfdfdf;fill-opacity:1;stroke-width:0.196549;stroke-opacity:0.3"
       d="m 30.166279,17.162424 c -15.982467,0 -15.384518,-0.04198 -16.013606,1.174549 -0.257935,0.498794 -0.297769,2.380367 -0.297769,13.959902 0,14.625459 -0.03338,14.194793 1.132011,14.827229 0.819553,0.44471 29.462021,0.453628 30.320918,0.0096 1.153962,-0.596779 1.172188,-0.737947 1.172188,-8.779592 v -7.328698 l -2.259302,2.25457 -2.259303,2.254572 v 3.689083 3.686717 H 30.166279 18.373496 V 32.294491 21.678632 l 11.932215,0.0095 11.929845,0.007 1.826821,-1.819725 c 1.00527,-1.001089 1.829181,-1.885822 1.829181,-1.96625 0,-0.08043 -0.262417,-0.281735 -0.581365,-0.446658 -0.504474,-0.260885 -2.473543,-0.300138 -15.143914,-0.300138 z m 18.658116,2.382187 c -0.309432,0.01528 -0.624542,0.09834 -0.928772,0.25996 -0.621542,0.330198 -14.644113,14.365948 -14.940674,14.954847 -0.110546,0.219522 -0.263424,1.039314 -0.340301,1.819724 l -0.13944,1.41797 h 1.290353 c 0.709591,0 1.539045,-0.09248 1.843362,-0.205607 0.30431,-0.113123 3.892799,-3.539134 7.973709,-7.614493 5.982187,-5.974034 7.441584,-7.535757 7.538868,-8.054062 0.272478,-1.452381 -0.956351,-2.644471 -2.2971,-2.57834 z" />
  </g>
</svg>
