<?xml version="1.0" encoding="UTF-8" standalone="no"?>
<svg
   width="64"
   height="64"
   version="1.1"
   id="svg73"
   sodipodi:docname="audacious.svg"
   inkscape:version="1.4.2 (ebf0e940d0, 2025-05-08)"
   xmlns:inkscape="http://www.inkscape.org/namespaces/inkscape"
   xmlns:sodipodi="http://sodipodi.sourceforge.net/DTD/sodipodi-0.dtd"
   xmlns="http://www.w3.org/2000/svg"
   xmlns:svg="http://www.w3.org/2000/svg"
   xmlns:rdf="http://www.w3.org/1999/02/22-rdf-syntax-ns#"
   xmlns:cc="http://creativecommons.org/ns#"
   xmlns:dc="http://purl.org/dc/elements/1.1/">
  <metadata
     id="metadata77">
    <rdf:RDF>
      <cc:Work
         rdf:about="">
        <dc:format>image/svg+xml</dc:format>
        <dc:type
           rdf:resource="http://purl.org/dc/dcmitype/StillImage" />
      </cc:Work>
    </rdf:RDF>
  </metadata>
  <sodipodi:namedview
     pagecolor="#f5f7fa"
     bordercolor="#666666"
     borderopacity="1"
     objecttolerance="10"
     gridtolerance="10"
     guidetolerance="10"
     inkscape:pageopacity="0"
     inkscape:pageshadow="2"
     inkscape:window-width="1377"
     inkscape:window-height="886"
     id="namedview75"
     showgrid="false"
     inkscape:zoom="6.2890624"
     inkscape:cx="46.032299"
     inkscape:cy="36.809938"
     inkscape:window-x="226"
     inkscape:window-y="192"
     inkscape:window-maximized="0"
     inkscape:current-layer="g877"
     inkscape:document-rotation="0"
     inkscape:pagecheckerboard="0"
     inkscape:showpageshadow="2"
     inkscape:deskcolor="#d1d1d1" />
  <defs
     id="defs29" />
  <circle
     cx="32.516094"
     cy="31.877844"
     r="0"
     fill="url(#b)"
     stroke-width="1.5715"
     id="circle41"
     style="fill:url(#b)" />
  <g
     aria-label="GZ"
     transform="matrix(1.2212657,0,0,0.81882264,0.4960938,-0.1661539)"
     id="text93"
     style="font-weight:bold;font-size:11.5263px;line-height:1.25;font-family:sans-serif;-inkscape-font-specification:'sans-serif Bold';fill:#f2f2f2;stroke-width:0.288159" />
  <g
     id="g877"
     transform="matrix(1.1,0,0,1.1,-3.1845928,-3.2065454)">
    <rect
       x="8.3496294"
       y="8.369586"
       width="47.272728"
       height="47.272728"
       rx="9.8825235"
       ry="9.6485243"
       fill="url(#linearGradient862)"
       stroke-width="3.0541"
       id="rect35-7-3"
       style="fill:#414141;fill-opacity:1;stroke:#dfdfdf;stroke-width:2.04545;stroke-dasharray:none;stroke-opacity:1" />
    <path
       style="fill:#dfdfdf;fill-opacity:1;stroke:none;stroke-width:0.496125;stroke-dasharray:none;stroke-opacity:0.6"
       d="M 30.121181,47.975928 C 24.645025,47.346695 19.795566,43.958944 17.329684,39.039992 16.722882,37.82955 16.29397,36.627742 15.957389,35.194848 c -0.252429,-1.074647 -0.274107,-1.32147 -0.277482,-3.159787 -0.0031,-1.746142 0.02473,-2.121076 0.22469,-3.015442 0.477361,-2.135082 1.222709,-3.95052 2.30485,-5.613892 4.989856,-7.669971 15.233718,-9.786033 22.816666,-4.713209 4.10977,2.749344 6.714173,7.101508 7.203872,12.038243 0.194539,1.960799 -0.06544,3.986518 -0.792699,6.178139 -2.413394,7.272543 -9.71672,11.94023 -17.316105,11.067028 z m 4.212272,-3.549944 c 2.600646,-0.493019 4.761943,-1.635525 6.695033,-3.53914 3.290901,-3.240716 4.570895,-7.839303 3.440585,-12.360895 -0.656961,-2.628062 -2.122284,-4.966155 -4.194964,-6.693575 -3.221523,-2.684886 -7.227922,-3.622494 -11.393149,-2.66631 -0.387873,0.08905 -0.705224,0.191894 -0.705224,0.228565 0,0.03667 0.290264,0.236417 0.645034,0.443895 0.81986,0.479471 1.839953,1.56524 2.308783,2.457429 1.844859,3.510771 0.124692,7.721685 -3.705216,9.070254 -0.819886,0.288693 -2.3166,0.352523 -3.273614,0.139608 -1.220291,-0.271489 -2.21769,-0.829203 -3.124501,-1.747122 -0.445361,-0.450815 -0.910624,-1.036902 -1.087853,-1.370355 -0.297977,-0.560637 -0.313173,-0.573434 -0.402376,-0.338816 -0.4797,1.261706 -0.628354,4.587611 -0.278133,6.222802 1.19511,5.580013 5.592449,9.607536 11.252411,10.306082 0.936527,0.115613 2.801713,0.04119 3.823184,-0.152365 z"
       id="path6" />
  </g>
</svg>
