<?xml version="1.0" encoding="UTF-8" standalone="no"?>
<svg
   width="64"
   height="64"
   version="1.1"
   id="svg73"
   sodipodi:docname="steam_icon_1934680.svg"
   inkscape:version="1.3.2 (091e20ef0f, 2023-11-25)"
   xmlns:inkscape="http://www.inkscape.org/namespaces/inkscape"
   xmlns:sodipodi="http://sodipodi.sourceforge.net/DTD/sodipodi-0.dtd"
   xmlns="http://www.w3.org/2000/svg"
   xmlns:svg="http://www.w3.org/2000/svg"
   xmlns:rdf="http://www.w3.org/1999/02/22-rdf-syntax-ns#"
   xmlns:cc="http://creativecommons.org/ns#"
   xmlns:dc="http://purl.org/dc/elements/1.1/">
  <metadata
     id="metadata77">
    <rdf:RDF>
      <cc:Work
         rdf:about="">
        <dc:format>image/svg+xml</dc:format>
        <dc:type
           rdf:resource="http://purl.org/dc/dcmitype/StillImage" />
      </cc:Work>
    </rdf:RDF>
  </metadata>
  <sodipodi:namedview
     pagecolor="#f5f7fa"
     bordercolor="#666666"
     borderopacity="1"
     objecttolerance="10"
     gridtolerance="10"
     guidetolerance="10"
     inkscape:pageopacity="0"
     inkscape:pageshadow="2"
     inkscape:window-width="1377"
     inkscape:window-height="886"
     id="namedview75"
     showgrid="false"
     inkscape:zoom="6.2890624"
     inkscape:cx="4.7701864"
     inkscape:cy="12.004969"
     inkscape:window-x="0"
     inkscape:window-y="48"
     inkscape:window-maximized="0"
     inkscape:current-layer="g877"
     inkscape:document-rotation="0"
     inkscape:pagecheckerboard="0"
     inkscape:showpageshadow="2"
     inkscape:deskcolor="#d1d1d1" />
  <defs
     id="defs29">
    <linearGradient
       id="b"
       x1="399.57"
       x2="399.57"
       y1="545.8"
       y2="517.8"
       gradientTransform="matrix(2.1429,0,0,2.1429,-825.86391,-1107.6662)"
       gradientUnits="userSpaceOnUse">
      <stop
         stop-color="#3889e9"
         offset="0"
         id="stop2" />
      <stop
         stop-color="#5ea5fb"
         offset="1"
         id="stop4" />
    </linearGradient>
    <linearGradient
       id="d"
       x2="1"
       gradientTransform="matrix(14.905727,-4.7106182,4.7106182,14.905727,322.04962,998.26962)"
       gradientUnits="userSpaceOnUse">
      <stop
         stop-color="#fafafa"
         offset="0"
         id="stop7" />
      <stop
         stop-color="#aaa"
         offset="1"
         id="stop8" />
    </linearGradient>
    <linearGradient
       id="e"
       x2="1"
       gradientTransform="matrix(21.439909,0,0,21.439909,26.63554,1159.7788)"
       gradientUnits="userSpaceOnUse">
      <stop
         stop-color="#f0f0f0"
         offset="0"
         id="stop9" />
      <stop
         stop-color="#b7f1ff"
         offset="1"
         id="stop10" />
    </linearGradient>
    <linearGradient
       id="b-2"
       x2="1"
       gradientTransform="matrix(10.719636,14.238636,-14.238636,10.719636,-67.544643,95.73886)"
       gradientUnits="userSpaceOnUse">
      <stop
         stop-color="#3077e1"
         offset="0"
         id="stop3" />
      <stop
         stop-color="#5df"
         offset="1"
         id="stop4-7" />
    </linearGradient>
    <linearGradient
       id="c"
       x2="1"
       gradientTransform="matrix(-0.30023273,-19.715,19.715,-0.30023273,61.587812,32.183496)"
       gradientUnits="userSpaceOnUse">
      <stop
         stop-color="#da9517"
         offset="0"
         id="stop5" />
      <stop
         stop-color="#ffee58"
         offset="1"
         id="stop6" />
    </linearGradient>
    <linearGradient
       id="b-6"
       x2="1"
       gradientTransform="matrix(0.16241818,-27.272727,27.272727,0.16241818,360.55326,47.591315)"
       gradientUnits="userSpaceOnUse">
      <stop
         stop-color="#d3d3d3"
         offset="0"
         id="stop3-2" />
      <stop
         stop-color="#fff"
         offset="1"
         id="stop4-9" />
    </linearGradient>
  </defs>
  <circle
     cx="32.516094"
     cy="31.877844"
     r="0"
     fill="url(#b)"
     stroke-width="1.5715"
     id="circle41"
     style="fill:url(#b)" />
  <g
     aria-label="GZ"
     transform="matrix(1.2212657,0,0,0.81882264,0.4960938,-0.1661539)"
     id="text93"
     style="font-weight:bold;font-size:11.5263px;line-height:1.25;font-family:sans-serif;-inkscape-font-specification:'sans-serif Bold';fill:#f2f2f2;stroke-width:0.288159" />
  <g
     id="g877"
     transform="matrix(1.1,0,0,1.1,-3.1845928,-3.2065454)">
    <rect
       x="6.3010068"
       y="5.4939413"
       width="51.635597"
       height="53.148327"
       rx="10.980581"
       ry="10.720582"
       fill="url(#linearGradient862)"
       stroke-width="3.0541"
       id="rect35-7-3"
       style="fill:#414141;fill-opacity:1;stroke:#dfdfdf;stroke-width:2.27272727;stroke-dasharray:none;stroke-opacity:1" />
    <path
       id="path4"
       style="fill:#dfdfdf;fill-opacity:1;stroke-width:0.0761207;stroke-opacity:0.66"
       d="M 38.279341,18.744338 C 33.05957,18.696818 27.18257,20.14843 22.362643,22.927347 l -0.571916,0.328494 -0.02363,0.361582 c -0.01278,0.197823 -0.0027,0.35922 0.02127,0.35922 0.02407,0 0.343492,-0.150046 0.708985,-0.333222 3.629712,-1.819164 8.379171,-3.126943 12.631737,-3.47875 1.36749,-0.113135 4.641464,-0.05114 5.693146,0.108702 4.858779,0.738534 7.778245,2.761811 8.649609,5.988555 0.227337,0.841852 0.24213,2.342734 0.03072,3.157343 -0.401157,1.54576 -1.35013,3.038004 -2.601974,4.090841 l -0.560097,0.470292 v 1.087109 c 0,0.597864 0.02577,1.08711 0.05908,1.08711 0.03332,0 0.31347,-0.155099 0.621543,-0.345039 2.269521,-1.399254 3.855108,-3.612098 4.386251,-6.123263 0.16741,-0.791502 0.187843,-2.377908 0.04017,-3.195155 -0.472155,-2.613058 -2.096827,-4.623676 -4.85418,-6.005097 -2.286766,-1.145662 -5.182158,-1.713227 -8.314026,-1.741741 z m -19.265467,6.068906 v 0.914591 0.912226 h 0.912227 0.914587 v -0.912226 -0.914591 h -0.914587 z m 23.439021,1.141465 0.02364,4.549316 c 0.01819,3.36265 0.0507,4.62123 0.120516,4.828184 0.177649,0.526523 0.557941,0.993659 0.992577,1.219454 0.771195,0.400642 0.694806,0.966658 0.694806,-5.192129 v -5.404825 h -0.916953 z m -12.556112,1.219453 v 4.133379 4.135744 l 0.210332,0.413573 c 0.23877,0.470972 0.680202,0.790543 1.240723,0.90041 0.186515,0.03656 0.724832,0.07103 1.19582,0.07562 l 0.855507,0.0072 V 35.890002 34.9376 h -0.836602 -0.8366 v -1.713378 -1.711016 h 0.8366 0.836602 v -0.952361 -0.952404 h -0.836602 -0.8366 v -1.217088 -1.217092 h -0.914589 z m -13.548692,0.052 -0.160702,0.144161 c -0.561907,0.503714 -1.631158,2.021238 -2.141133,3.039178 -0.785351,1.56759 -1.068041,2.753103 -1.07293,4.490234 -0.0058,2.096147 0.413012,3.609027 1.432147,5.175587 0.424828,0.653016 1.792195,1.987867 2.552346,2.490896 2.369211,1.567864 5.086024,2.347413 9.325507,2.677599 0.741559,0.05775 4.049833,-0.03179 5.137772,-0.139435 4.270219,-0.422514 8.682887,-1.604881 12.234709,-3.280233 l 0.857871,-0.406484 V 39.9477 38.475376 l -1.186367,0.588458 c -3.821098,1.894919 -8.553669,3.146656 -13.198926,3.49293 -1.557373,0.116099 -5.294486,0.04771 -6.473027,-0.118169 -5.318128,-0.748563 -8.340283,-2.887373 -9.093907,-6.435216 -0.461527,-2.172729 0.06216,-4.81492 1.394335,-7.028398 0.375369,-0.623714 0.392306,-0.675474 0.392305,-1.200546 z m 6.241426,2.372734 v 3.620547 3.620547 h 0.952403 0.9524 v -2.85957 -2.861934 l 0.945315,0.02599 c 0.878278,0.02344 0.959233,0.03893 1.141466,0.210333 l 0.19615,0.184335 v 2.651603 2.649237 h 0.912227 0.914591 v -2.620878 c 0,-1.599872 -0.03229,-2.773219 -0.08273,-3.008457 -0.12751,-0.594582 -0.483969,-1.061409 -1.016211,-1.332891 l -0.451387,-0.229239 -2.230938,-0.02599 z m -3.575643,0.0095 v 2.89502 c 0,3.152925 0.0056,3.219071 0.43957,3.681994 0.112917,0.120431 0.376761,0.298066 0.586094,0.397032 0.209332,0.09898 0.475688,0.181563 0.59082,0.181971 h 0.21033 v -3.578077 -3.578008 h -0.914587 z m 18.788085,0.02363 c -1.048171,0.0055 -2.113527,0.578857 -2.637423,1.625938 -0.319707,0.638986 -0.431198,1.178794 -0.42539,2.044239 0.01305,1.933968 0.935421,3.181785 2.54998,3.452755 0.882194,0.148056 1.853955,-0.04961 2.561797,-0.522285 0.694885,-0.464031 0.690913,-0.436584 0.134707,-0.987851 l -0.486836,-0.484495 -0.278866,0.212694 c -0.506694,0.386481 -1.348566,0.525957 -1.918984,0.319042 -0.519402,-0.188404 -0.933497,-0.769118 -0.933497,-1.313985 v -0.257596 h 2.181309 2.181308 l -0.04727,-0.742071 c -0.07357,-1.172807 -0.339471,-1.89382 -0.931135,-2.526347 -0.524752,-0.560995 -1.232533,-0.823742 -1.949708,-0.820046 z m -0.181972,1.429786 c 0.07422,-9.04e-4 0.157588,0.0034 0.255234,0.0095 0.449519,0.02861 0.512505,0.05435 0.74207,0.304865 0.245059,0.267399 0.41272,0.685748 0.413573,1.03039 4.25e-4,0.171154 0.0011,0.17252 -1.339981,0.17252 H 36.34854 l 0.03781,-0.33795 c 0.05128,-0.45493 0.314034,-0.853933 0.687714,-1.04457 0.18441,-0.09408 0.32325,-0.131996 0.545919,-0.134707 z" />
    <g
       id="g1"
       transform="matrix(1.21,0,0,1.21,2.0148825,-2.4743588)" />
  </g>
</svg>
