<?xml version="1.0" encoding="UTF-8" standalone="no"?>
<svg
   width="64"
   height="64"
   version="1.1"
   id="svg73"
   sodipodi:docname="accessories-text-editor.svg"
   inkscape:version="1.4.2 (ebf0e940d0, 2025-05-08)"
   xmlns:inkscape="http://www.inkscape.org/namespaces/inkscape"
   xmlns:sodipodi="http://sodipodi.sourceforge.net/DTD/sodipodi-0.dtd"
   xmlns="http://www.w3.org/2000/svg"
   xmlns:svg="http://www.w3.org/2000/svg"
   xmlns:rdf="http://www.w3.org/1999/02/22-rdf-syntax-ns#"
   xmlns:cc="http://creativecommons.org/ns#"
   xmlns:dc="http://purl.org/dc/elements/1.1/">
  <metadata
     id="metadata77">
    <rdf:RDF>
      <cc:Work
         rdf:about="">
        <dc:format>image/svg+xml</dc:format>
        <dc:type
           rdf:resource="http://purl.org/dc/dcmitype/StillImage" />
      </cc:Work>
    </rdf:RDF>
  </metadata>
  <sodipodi:namedview
     pagecolor="#f5f7fa"
     bordercolor="#666666"
     borderopacity="1"
     objecttolerance="10"
     gridtolerance="10"
     guidetolerance="10"
     inkscape:pageopacity="0"
     inkscape:pageshadow="2"
     inkscape:window-width="1377"
     inkscape:window-height="886"
     id="namedview75"
     showgrid="false"
     inkscape:zoom="6.2890624"
     inkscape:cx="43.011181"
     inkscape:cy="42.693168"
     inkscape:window-x="264"
     inkscape:window-y="75"
     inkscape:window-maximized="0"
     inkscape:current-layer="g877"
     inkscape:document-rotation="0"
     inkscape:pagecheckerboard="0"
     inkscape:showpageshadow="2"
     inkscape:deskcolor="#d1d1d1" />
  <defs
     id="defs29" />
  <circle
     cx="32.516094"
     cy="31.877844"
     r="0"
     fill="url(#b)"
     stroke-width="1.5715"
     id="circle41"
     style="fill:url(#b)" />
  <g
     aria-label="GZ"
     transform="matrix(1.2212657,0,0,0.81882264,0.4960938,-0.1661539)"
     id="text93"
     style="font-weight:bold;font-size:11.5263px;line-height:1.25;font-family:sans-serif;-inkscape-font-specification:'sans-serif Bold';fill:#f2f2f2;stroke-width:0.288159" />
  <g
     id="g877"
     transform="matrix(1.1,0,0,1.1,-3.1845928,-3.2065454)">
    <rect
       x="8.3496294"
       y="8.369586"
       width="47.272728"
       height="47.272728"
       rx="9.8825235"
       ry="9.6485243"
       fill="url(#linearGradient862)"
       stroke-width="3.0541"
       id="rect35-7-3"
       style="fill:#414141;fill-opacity:1;stroke:#dfdfdf;stroke-width:2.04545;stroke-dasharray:none;stroke-opacity:1" />
    <path
       style="fill:#dfdfdf;fill-opacity:1;stroke-width:0.767401"
       d="m 29.530421,16.658001 c -1.017158,0 -1.841054,0.823883 -1.841054,1.841056 0,1.017172 0.823896,1.843551 1.841054,1.843551 4.746863,0 8.595749,3.846454 8.595749,8.593254 0,1.017184 0.82387,1.841052 1.841056,1.841052 1.017187,0 1.841056,-0.823868 1.841056,-1.841052 0,-6.781146 -5.496753,-12.277861 -12.277861,-12.277861 z m -0.614518,5.52566 c -6.781147,1.6e-5 -12.277859,5.496691 -12.277859,12.277862 0,1.017184 0.823881,1.841053 1.841055,1.841053 1.017173,0 1.843552,-0.823869 1.843552,-1.841053 0,-4.746864 3.846449,-8.595752 8.593252,-8.595752 1.017185,0 1.841053,-0.823881 1.841053,-1.841056 0,-1.017171 -0.823868,-1.841054 -1.841053,-1.841054 z m 16.576987,5.525664 c -1.017186,0 -1.843554,0.823897 -1.843554,1.841054 0,4.746862 -3.846387,8.595748 -8.593254,8.595748 -1.017185,0 -1.841051,0.82387 -1.841051,1.841056 0,1.017183 0.823866,1.841056 1.841051,1.841056 6.78111,0 12.277861,-5.496754 12.277861,-12.27786 0,-1.017161 -0.823873,-1.841054 -1.841053,-1.841054 z m -21.488131,5.525663 c -1.017173,0 -1.841054,0.823867 -1.841054,1.841052 0,6.781113 5.496688,12.277861 12.277859,12.277861 1.017186,0 1.841055,-0.823874 1.841055,-1.841054 0,-1.017189 -0.823869,-1.843554 -1.841055,-1.843554 -4.746862,0 -8.595751,-3.84639 -8.595751,-8.593253 0,-1.017185 -0.82388,-1.841052 -1.841054,-1.841052 z"
       id="path3-9" />
  </g>
</svg>
