<?xml version="1.0" encoding="UTF-8" standalone="no"?>
<svg
   width="64"
   height="64"
   version="1.1"
   id="svg73"
   sodipodi:docname="accessories-text-editor.svg"
   inkscape:version="1.4.2 (ebf0e940d0, 2025-05-08)"
   xmlns:inkscape="http://www.inkscape.org/namespaces/inkscape"
   xmlns:sodipodi="http://sodipodi.sourceforge.net/DTD/sodipodi-0.dtd"
   xmlns="http://www.w3.org/2000/svg"
   xmlns:svg="http://www.w3.org/2000/svg"
   xmlns:rdf="http://www.w3.org/1999/02/22-rdf-syntax-ns#"
   xmlns:cc="http://creativecommons.org/ns#"
   xmlns:dc="http://purl.org/dc/elements/1.1/">
  <metadata
     id="metadata77">
    <rdf:RDF>
      <cc:Work
         rdf:about="">
        <dc:format>image/svg+xml</dc:format>
        <dc:type
           rdf:resource="http://purl.org/dc/dcmitype/StillImage" />
      </cc:Work>
    </rdf:RDF>
  </metadata>
  <sodipodi:namedview
     pagecolor="#f5f7fa"
     bordercolor="#666666"
     borderopacity="1"
     objecttolerance="10"
     gridtolerance="10"
     guidetolerance="10"
     inkscape:pageopacity="0"
     inkscape:pageshadow="2"
     inkscape:window-width="1377"
     inkscape:window-height="886"
     id="namedview75"
     showgrid="false"
     inkscape:zoom="6.2890624"
     inkscape:cx="43.011181"
     inkscape:cy="42.693168"
     inkscape:window-x="264"
     inkscape:window-y="75"
     inkscape:window-maximized="0"
     inkscape:current-layer="g877"
     inkscape:document-rotation="0"
     inkscape:pagecheckerboard="0"
     inkscape:showpageshadow="2"
     inkscape:deskcolor="#d1d1d1" />
  <defs
     id="defs29" />
  <circle
     cx="32.516094"
     cy="31.877844"
     r="0"
     fill="url(#b)"
     stroke-width="1.5715"
     id="circle41"
     style="fill:url(#b)" />
  <g
     aria-label="GZ"
     transform="matrix(1.2212657,0,0,0.81882264,0.4960938,-0.1661539)"
     id="text93"
     style="font-weight:bold;font-size:11.5263px;line-height:1.25;font-family:sans-serif;-inkscape-font-specification:'sans-serif Bold';fill:#f2f2f2;stroke-width:0.288159" />
  <g
     id="g877"
     transform="matrix(1.1,0,0,1.1,-3.1845928,-3.2065454)">
    <rect
       x="8.3496294"
       y="8.369586"
       width="47.272728"
       height="47.272728"
       rx="9.8825235"
       ry="9.6485243"
       fill="url(#linearGradient862)"
       stroke-width="3.0541"
       id="rect35-7-3"
       style="fill:#414141;fill-opacity:1;stroke:#dfdfdf;stroke-width:2.04545;stroke-dasharray:none;stroke-opacity:1" />
    <path
       style="fill:#dfdfdf;fill-opacity:1;stroke-width:0.540237"
       d="m 25.555348,43.113638 c -3.623788,-1.428005 -7.144433,-4.859693 -8.031512,-7.828574 -0.36542,-1.222987 -0.6644,-3.593265 -0.6644,-5.267284 v -3.043667 h 1.89082 1.890818 v 2.718524 c 0,3.512806 0.984525,5.794956 3.42396,7.936808 3.332965,2.92638 5.864568,3.206646 18.11241,2.005144 4.180529,-0.410103 4.27209,0.301134 0.351513,2.730474 -2.4081,1.492151 -3.04167,1.625772 -8.330408,1.75694 -4.789216,0.118805 -6.200835,-0.04592 -8.643201,-1.008365 z m 3.459358,-6.051236 c -3.107955,-1.216162 -3.963888,-1.988686 -4.889885,-4.413371 -1.071102,-2.804647 -0.809231,-7.160322 0.555738,-9.243528 1.735751,-2.649091 3.680687,-3.158265 12.83819,-3.360963 l 8.504048,-0.188235 0.544878,1.433134 c 0.299662,0.788226 0.544877,1.639057 0.544877,1.890737 0,0.251679 -3.911523,0.539738 -8.692279,0.640123 -8.377379,0.175915 -8.729656,0.228729 -9.724212,1.457902 -1.404206,1.735457 -1.384464,5.435661 0.03713,6.961578 1.146687,1.23082 5.707859,2.22753 6.496582,1.419633 0.253766,-0.259935 0.626501,-1.141147 0.828304,-1.958252 0.360565,-1.459957 0.323573,-1.485643 -2.139665,-1.485643 -2.705447,0 -3.686025,-0.969044 -2.466955,-2.437933 0.87398,-1.053082 9.505847,-1.165325 9.857304,-0.128178 0.439762,1.297717 -2.584979,9.213223 -3.685274,9.64406 -1.589619,0.622439 -6.783912,0.483031 -8.608794,-0.231064 z"
       id="path1714" />
  </g>
</svg>
