<?xml version="1.0" encoding="UTF-8" standalone="no"?>
<svg
   width="64"
   height="64"
   version="1.1"
   id="svg73"
   sodipodi:docname="audacious.svg"
   inkscape:version="1.4.2 (ebf0e940d0, 2025-05-08)"
   xmlns:inkscape="http://www.inkscape.org/namespaces/inkscape"
   xmlns:sodipodi="http://sodipodi.sourceforge.net/DTD/sodipodi-0.dtd"
   xmlns="http://www.w3.org/2000/svg"
   xmlns:svg="http://www.w3.org/2000/svg"
   xmlns:rdf="http://www.w3.org/1999/02/22-rdf-syntax-ns#"
   xmlns:cc="http://creativecommons.org/ns#"
   xmlns:dc="http://purl.org/dc/elements/1.1/">
  <metadata
     id="metadata77">
    <rdf:RDF>
      <cc:Work
         rdf:about="">
        <dc:format>image/svg+xml</dc:format>
        <dc:type
           rdf:resource="http://purl.org/dc/dcmitype/StillImage" />
      </cc:Work>
    </rdf:RDF>
  </metadata>
  <sodipodi:namedview
     pagecolor="#f5f7fa"
     bordercolor="#666666"
     borderopacity="1"
     objecttolerance="10"
     gridtolerance="10"
     guidetolerance="10"
     inkscape:pageopacity="0"
     inkscape:pageshadow="2"
     inkscape:window-width="1377"
     inkscape:window-height="886"
     id="namedview75"
     showgrid="false"
     inkscape:zoom="6.2890624"
     inkscape:cx="47.622361"
     inkscape:cy="45.396274"
     inkscape:window-x="28"
     inkscape:window-y="57"
     inkscape:window-maximized="0"
     inkscape:current-layer="g877"
     inkscape:document-rotation="0"
     inkscape:pagecheckerboard="0"
     inkscape:showpageshadow="2"
     inkscape:deskcolor="#d1d1d1" />
  <defs
     id="defs29" />
  <circle
     cx="32.516094"
     cy="31.877844"
     r="0"
     fill="url(#b)"
     stroke-width="1.5715"
     id="circle41"
     style="fill:url(#b)" />
  <g
     aria-label="GZ"
     transform="matrix(1.2212657,0,0,0.81882264,0.4960938,-0.1661539)"
     id="text93"
     style="font-weight:bold;font-size:11.5263px;line-height:1.25;font-family:sans-serif;-inkscape-font-specification:'sans-serif Bold';fill:#f2f2f2;stroke-width:0.288159" />
  <g
     id="g877"
     transform="matrix(1.1,0,0,1.1,-3.1845928,-3.2065454)">
    <rect
       x="8.3496294"
       y="8.369586"
       width="47.272728"
       height="47.272728"
       rx="9.8825235"
       ry="9.6485243"
       fill="url(#linearGradient862)"
       stroke-width="3.0541"
       id="rect35-7-3"
       style="fill:#414141;fill-opacity:1;stroke:#dfdfdf;stroke-width:2.04545;stroke-dasharray:none;stroke-opacity:1" />
    <path
       style="fill:#dfdfdf;fill-opacity:1;stroke:none;stroke-width:0.4725;stroke-dasharray:none;stroke-opacity:0.6"
       d="M 33.252925,47.981139 C 33.094904,47.812733 33.023487,47.8019 31.767783,47.75589 28.965094,47.653148 26.154835,47.021021 23.702238,45.941639 20.863571,44.692344 19.874215,42.89152 20.872103,40.790246 c 0.713348,-1.502105 2.351613,-2.388292 4.143901,-2.241555 2.539597,0.207906 5.013297,2.110512 7.054483,5.425831 0.310135,0.503721 0.449416,0.678777 0.419844,0.52765 -0.02432,-0.124361 -0.110785,-0.684059 -0.192093,-1.243754 -0.445911,-3.069245 -0.465437,-5.360302 -0.06938,-8.140975 0.179386,-1.259488 0.256004,-1.432207 0.635287,-1.432207 0.399506,0 0.45638,0.195133 0.310883,1.06661 -0.259022,1.551448 -0.314158,2.316429 -0.308863,4.285323 0.006,2.21014 0.110641,3.235927 0.599751,5.876025 0.380927,2.056127 0.316559,1.988473 0.740479,0.778275 1.306007,-3.72837 2.970804,-6.57796 4.352617,-7.450255 1.0024,-0.632793 2.428096,-0.720888 3.498049,-0.216155 0.583684,0.275314 0.911269,0.591481 1.181335,1.140052 0.222746,0.452451 0.245182,0.560436 0.238557,1.146851 -0.0084,0.753745 -0.234239,1.466579 -0.714775,2.257515 -1.553388,2.556933 -4.629725,4.508399 -7.948109,5.041877 -0.696491,0.111991 -0.770635,0.140078 -0.8822,0.334457 -0.153233,0.26697 -0.447175,0.282264 -0.678917,0.03536 z M 32.586117,32.459547 C 31.74555,32.165958 31.256521,31.750061 30.829641,30.965742 30.564727,30.479004 30.386114,29.611749 30.447744,29.111418 l 0.04806,-0.390267 -0.287413,0.271105 c -0.158074,0.149107 -0.507898,0.37561 -0.777378,0.503335 -0.441238,0.209137 -0.56118,0.232118 -1.206067,0.231062 -0.606947,-9.07e-4 -0.773551,-0.02943 -1.092998,-0.186648 -0.517638,-0.254743 -0.986533,-0.746443 -1.25123,-1.312085 -0.794855,-1.698564 0.181823,-3.529482 2.140598,-4.012857 l 0.499819,-0.123344 -0.514491,-0.361311 c -0.93754,-0.658408 -1.320236,-1.403223 -1.275678,-2.482756 0.02045,-0.496331 0.07138,-0.737128 0.225807,-1.06851 0.25395,-0.544931 0.701086,-1.029977 1.208747,-1.311225 0.366262,-0.202913 0.459855,-0.220846 1.152428,-0.220846 0.882512,0 1.245991,0.129712 1.8035,0.643607 l 0.344811,0.317834 v -0.568231 c 0,-1.377556 0.749931,-2.533053 1.951442,-3.006796 0.602307,-0.23748 1.753872,-0.237694 2.345178,-4.41e-4 1.27477,0.511503 2.010059,1.691218 1.947569,3.124726 -0.01429,0.320451 -0.02176,0.582559 -0.01721,0.582463 0.0045,-1.01e-4 0.140336,-0.106352 0.301518,-0.236123 0.431179,-0.347172 1.104397,-0.644994 1.697666,-0.751016 1.717285,-0.306897 3.320528,0.882907 3.607127,2.676924 0.153518,0.960859 -0.172807,1.873616 -0.948062,2.652054 -0.546993,0.549232 -1.23317,0.911881 -1.877692,0.992375 l -0.452277,0.05649 0.278205,0.172359 c 0.470727,0.291642 1.024655,0.959616 1.152345,1.389606 0.252261,0.849521 0.09699,2.085208 -0.360146,2.865205 -0.430906,0.735559 -1.34129,1.358582 -2.1213,1.451832 -0.703756,0.08413 -1.497213,-0.286001 -1.854455,-0.865066 -0.218878,-0.354839 -0.298118,-0.379962 -0.298118,-0.09457 0,0.347349 -0.476948,1.236056 -0.892108,1.66229 -0.243789,0.250271 -0.573338,0.483889 -0.896263,0.635357 -0.441302,0.206986 -0.608043,0.24274 -1.22682,0.263027 -0.595418,0.01952 -0.800501,-0.0061 -1.216904,-0.151438 z m 2.805425,-5.692028 c 1.387844,-0.667509 2.159891,-2.418249 1.573386,-3.5679 -0.47213,-0.925446 -1.822583,-1.39904 -3.177037,-1.114156 -1.977781,0.415987 -2.936712,2.313041 -1.923852,3.805954 0.309489,0.456176 0.668912,0.742043 1.229896,0.9782 0.386097,0.16254 0.535411,0.184045 1.123677,0.161835 0.575551,-0.02176 0.753545,-0.06175 1.17393,-0.263933 z"
       id="path1" />
  </g>
</svg>
