<?xml version="1.0" encoding="UTF-8" standalone="no"?>
<svg
   width="64"
   height="64"
   version="1.1"
   id="svg73"
   sodipodi:docname="audacious.svg"
   inkscape:version="1.4.2 (ebf0e940d0, 2025-05-08)"
   xmlns:inkscape="http://www.inkscape.org/namespaces/inkscape"
   xmlns:sodipodi="http://sodipodi.sourceforge.net/DTD/sodipodi-0.dtd"
   xmlns="http://www.w3.org/2000/svg"
   xmlns:svg="http://www.w3.org/2000/svg"
   xmlns:rdf="http://www.w3.org/1999/02/22-rdf-syntax-ns#"
   xmlns:cc="http://creativecommons.org/ns#"
   xmlns:dc="http://purl.org/dc/elements/1.1/">
  <metadata
     id="metadata77">
    <rdf:RDF>
      <cc:Work
         rdf:about="">
        <dc:format>image/svg+xml</dc:format>
        <dc:type
           rdf:resource="http://purl.org/dc/dcmitype/StillImage" />
      </cc:Work>
    </rdf:RDF>
  </metadata>
  <sodipodi:namedview
     pagecolor="#f5f7fa"
     bordercolor="#666666"
     borderopacity="1"
     objecttolerance="10"
     gridtolerance="10"
     guidetolerance="10"
     inkscape:pageopacity="0"
     inkscape:pageshadow="2"
     inkscape:window-width="1377"
     inkscape:window-height="886"
     id="namedview75"
     showgrid="false"
     inkscape:zoom="6.2890624"
     inkscape:cx="46.032299"
     inkscape:cy="36.809938"
     inkscape:window-x="326"
     inkscape:window-y="176"
     inkscape:window-maximized="0"
     inkscape:current-layer="g877"
     inkscape:document-rotation="0"
     inkscape:pagecheckerboard="0"
     inkscape:showpageshadow="2"
     inkscape:deskcolor="#d1d1d1" />
  <defs
     id="defs29" />
  <circle
     cx="32.516094"
     cy="31.877844"
     r="0"
     fill="url(#b)"
     stroke-width="1.5715"
     id="circle41"
     style="fill:url(#b)" />
  <g
     aria-label="GZ"
     transform="matrix(1.2212657,0,0,0.81882264,0.4960938,-0.1661539)"
     id="text93"
     style="font-weight:bold;font-size:11.5263px;line-height:1.25;font-family:sans-serif;-inkscape-font-specification:'sans-serif Bold';fill:#f2f2f2;stroke-width:0.288159" />
  <g
     id="g877"
     transform="matrix(1.1,0,0,1.1,-3.1845928,-3.2065454)">
    <rect
       x="8.3496294"
       y="8.369586"
       width="47.272728"
       height="47.272728"
       rx="9.8825235"
       ry="9.6485243"
       fill="url(#linearGradient862)"
       stroke-width="3.0541"
       id="rect35-7-3"
       style="fill:#414141;fill-opacity:1;stroke:#dfdfdf;stroke-width:2.04545;stroke-dasharray:none;stroke-opacity:1" />
    <path
       style="fill:#dfdfdf;fill-opacity:1;stroke:none;stroke-width:0.496125;stroke-dasharray:none;stroke-opacity:0.6"
       d="m 31.977164,40.666842 -0.0089,-7.41593 -0.48216,1.394983 c -0.778507,2.25237 -2.518492,4.008755 -4.855488,4.901265 -1.735855,0.662929 -4.827806,0.4164 -6.396818,-0.510032 -2.268761,-1.339607 -3.71074,-3.41411 -4.163978,-5.990512 l -0.179702,-1.021479 7.435078,-0.0089 7.435078,-0.0089 -1.394981,-0.482088 c -2.252367,-0.778509 -4.008755,-2.518489 -4.901262,-4.855488 -0.662928,-1.735855 -0.416402,-4.827804 0.51003,-6.396815 1.33961,-2.268767 3.414109,-3.710745 5.990514,-4.163986 l 1.021477,-0.179701 0.0089,7.435079 0.0088,7.435079 0.497206,-1.439427 c 0.722845,-2.092752 2.06098,-3.509026 4.349114,-4.603113 1.280768,-0.612405 1.717706,-0.682768 3.572941,-0.575371 1.637326,0.09478 2.382816,0.281242 3.307677,0.827308 2.276374,1.344039 3.717693,3.415373 4.17148,5.994902 l 0.179709,1.021477 -7.43508,0.0182 c -6.659342,0.0163 -7.312128,0.05661 -6.256534,0.386027 2.333089,0.728097 4.055971,2.383531 5.105081,4.90523 0.684377,1.645008 0.434824,4.860954 -0.501143,6.458074 -1.332026,2.272916 -3.421115,3.68576 -6.122994,4.140946 l -0.885273,0.149092 z"
       id="path1" />
  </g>
</svg>
