<?xml version="1.0" encoding="UTF-8" standalone="no"?>
<svg
   width="64"
   height="64"
   version="1.1"
   id="svg73"
   sodipodi:docname="software-properties.svg"
   inkscape:version="1.4.2 (ebf0e940d0, 2025-05-08)"
   xmlns:inkscape="http://www.inkscape.org/namespaces/inkscape"
   xmlns:sodipodi="http://sodipodi.sourceforge.net/DTD/sodipodi-0.dtd"
   xmlns="http://www.w3.org/2000/svg"
   xmlns:svg="http://www.w3.org/2000/svg"
   xmlns:rdf="http://www.w3.org/1999/02/22-rdf-syntax-ns#"
   xmlns:cc="http://creativecommons.org/ns#"
   xmlns:dc="http://purl.org/dc/elements/1.1/">
  <metadata
     id="metadata77">
    <rdf:RDF>
      <cc:Work
         rdf:about="">
        <dc:format>image/svg+xml</dc:format>
        <dc:type
           rdf:resource="http://purl.org/dc/dcmitype/StillImage" />
      </cc:Work>
    </rdf:RDF>
  </metadata>
  <sodipodi:namedview
     pagecolor="#f5f7fa"
     bordercolor="#666666"
     borderopacity="1"
     objecttolerance="10"
     gridtolerance="10"
     guidetolerance="10"
     inkscape:pageopacity="0"
     inkscape:pageshadow="2"
     inkscape:window-width="1377"
     inkscape:window-height="886"
     id="namedview75"
     showgrid="false"
     inkscape:zoom="6.2890624"
     inkscape:cx="47.622361"
     inkscape:cy="45.396274"
     inkscape:window-x="147"
     inkscape:window-y="75"
     inkscape:window-maximized="0"
     inkscape:current-layer="g877"
     inkscape:document-rotation="0"
     inkscape:pagecheckerboard="0"
     inkscape:showpageshadow="2"
     inkscape:deskcolor="#d1d1d1" />
  <defs
     id="defs29">
    <linearGradient
       id="b"
       x1="399.57"
       x2="399.57"
       y1="545.8"
       y2="517.8"
       gradientTransform="matrix(2.1429,0,0,2.1429,-825.86391,-1107.6662)"
       gradientUnits="userSpaceOnUse">
      <stop
         stop-color="#3889e9"
         offset="0"
         id="stop2" />
      <stop
         stop-color="#5ea5fb"
         offset="1"
         id="stop4" />
    </linearGradient>
  </defs>
  <circle
     cx="32.516094"
     cy="31.877844"
     r="0"
     fill="url(#b)"
     stroke-width="1.5715"
     id="circle41"
     style="fill:url(#b)" />
  <g
     aria-label="GZ"
     transform="matrix(1.2212657,0,0,0.81882264,0.4960938,-0.1661539)"
     id="text93"
     style="font-weight:bold;font-size:11.5263px;line-height:1.25;font-family:sans-serif;-inkscape-font-specification:'sans-serif Bold';fill:#f2f2f2;stroke-width:0.288159" />
  <g
     id="g877"
     transform="matrix(1.1,0,0,1.1,-3.1845928,-3.2065454)">
    <rect
       x="8.3496294"
       y="8.369586"
       width="47.272728"
       height="47.272728"
       rx="9.8825235"
       ry="9.6485243"
       fill="url(#linearGradient862)"
       stroke-width="3.0541"
       id="rect35-7-3"
       style="fill:#414141;fill-opacity:1;stroke:#dfdfdf;stroke-width:2.04545;stroke-dasharray:none;stroke-opacity:1" />
    <path
       id="path72"
       style="fill:#dfdfdf;fill-opacity:1;stroke:none;stroke-width:0.477661;stroke-dasharray:none;stroke-dashoffset:2.2;stroke-opacity:0.6"
       d="m 31.954446,17.76255 c -9.637532,0 -9.677441,0.0016 -9.984008,0.242498 -0.68894,0.54193 -0.652589,-0.27159 -0.652589,13.946859 0,7.846556 0.04495,13.157522 0.110402,13.329763 0.146746,0.385995 0.560582,0.75501 0.987751,0.881296 0.197067,0.05825 4.502646,0.0961 9.800657,0.08476 9.071427,-0.01978 9.463253,-0.02983 9.775031,-0.240496 0.698704,-0.473579 0.660473,0.332299 0.660473,-14.047416 0,-11.98953 -0.01705,-13.205237 -0.189255,-13.497342 -0.436271,-0.738599 0.137982,-0.699964 -10.50844,-0.699962 z M 16.33373,20.081113 v 1.4491 1.451073 h 1.506276 1.508248 v -1.451073 -1.4491 h -1.508248 z m 28.173675,0 v 1.4491 1.451073 h 1.565429 1.565422 v -1.451073 -1.4491 h -1.565422 z m -17.970821,1.15928 h 0.695962 0.693993 v 1.798067 1.796098 H 27.232546 26.536584 V 23.03846 Z m 4.753445,0 h 0.695963 0.695964 v 4.812592 4.810622 h -0.619074 c -0.340101,0 -0.653444,-0.03432 -0.695963,-0.07688 -0.04251,-0.04252 -0.07689,-2.20674 -0.07689,-4.810624 z m 4.86977,0 h 0.636814 0.638793 v 3.594165 3.596136 H 36.796613 36.159799 V 24.834558 Z M 16.33373,25.414197 v 1.451074 1.449103 h 1.506276 1.508248 v -1.449103 -1.451074 h -1.508248 z m 28.173675,0 v 1.451074 1.449103 h 1.565429 1.565422 v -1.449103 -1.451074 h -1.565422 z m -17.970821,0.581612 h 0.697933 0.697935 l -0.03157,1.825672 -0.03157,1.825668 -0.583586,0.03351 c -0.321161,0.01882 -0.620877,-0.0018 -0.66625,-0.04727 -0.04537,-0.04537 -0.08282,-0.883369 -0.08282,-1.861159 z m 9.623215,3.594166 h 0.636814 0.638793 v 1.796097 1.798068 h -0.638793 -0.636814 v -1.798068 z m -9.623215,1.15928 h 0.695962 0.693993 v 3.594167 3.594158 h -0.693993 -0.695962 v -3.594158 z m -10.202854,0.11435 v 1.391926 1.391923 h 1.506276 1.508248 v -1.391927 -1.391926 h -1.508248 z m 28.173675,0 v 1.391927 1.391926 h 1.565429 1.565422 v -1.391929 -1.391925 h -1.565422 z m -11.825449,1.0331 v 4.816535 4.818505 h -0.697934 -0.695964 l 0.02957,-4.783017 0.02954,-4.783018 0.666388,-0.03346 z m 3.477843,2.446714 h 0.636814 0.638793 v 4.230973 4.232962 H 36.796613 36.159799 V 38.574397 Z M 16.33373,36.198664 v 1.449103 1.449104 h 1.506276 1.508248 v -1.449104 -1.449103 h -1.508248 z m 28.173675,0 v 1.449103 1.449104 h 1.565429 1.565422 V 37.647767 36.198664 H 46.072834 Z M 16.33373,41.531749 v 1.449104 1.449099 h 1.506276 1.508248 v -1.449099 -1.449104 h -1.508248 z m 28.173675,0 v 1.449104 1.449099 h 1.565429 1.565422 v -1.449099 -1.449104 h -1.565422 z" />
    <rect
       x="37.737823"
       y="37.757782"
       width="22.610399"
       height="22.610399"
       rx="4.7267799"
       ry="4.6148596"
       fill="url(#linearGradient862)"
       stroke-width="3.0541"
       id="rect35-7-3-1"
       style="fill:#414141;fill-opacity:1;stroke:#dfdfdf;stroke-width:0.978336;stroke-dasharray:none;stroke-opacity:1" />
    <path
       style="color:#000000;clip-rule:nonzero;display:inline;overflow:visible;visibility:visible;isolation:auto;mix-blend-mode:normal;color-interpolation:sRGB;color-interpolation-filters:linearRGB;solid-color:#000000;solid-opacity:1;fill:#dfdfdf;fill-opacity:1;fill-rule:nonzero;stroke:none;stroke-width:0.454545;stroke-linecap:butt;stroke-linejoin:miter;stroke-miterlimit:4;stroke-dasharray:none;stroke-dashoffset:0;stroke-opacity:0.6;marker:none;color-rendering:auto;image-rendering:auto;shape-rendering:auto;text-rendering:auto;enable-background:accumulate"
       d="m 48.049489,41.647769 c -0.190389,0 -0.349074,0.757559 -0.442214,1.840216 a 5.8190384,5.9942708 0 0 0 -1.406201,0.608794 c -0.812308,-0.701301 -1.446838,-1.124631 -1.581842,-0.985565 l -1.497121,1.542208 c -0.135001,0.139055 0.275945,0.792706 0.956751,1.629476 a 5.8190384,5.9942708 0 0 0 -0.585828,1.448546 c -1.053952,0.09586 -1.791586,0.259074 -1.791586,0.455531 v 2.179731 c 0,0.196127 0.735411,0.359591 1.786418,0.455535 a 5.8190384,5.9942708 0 0 0 0.588931,1.451735 c -0.679249,0.835271 -1.089525,1.487383 -0.954686,1.626287 l 1.497121,1.542201 c 0.134725,0.138746 0.766967,-0.282851 1.576678,-0.981308 a 5.8190384,5.9942708 0 0 0 1.411365,0.599218 c 0.09305,1.085694 0.251481,1.845538 0.442214,1.845538 h 2.116013 c 0.190389,0 0.349077,-0.757559 0.442217,-1.840216 a 5.8190384,5.9942708 0 0 0 1.406198,-0.608791 c 0.812312,0.701299 1.446838,1.124628 1.581845,0.985559 l 1.497121,-1.542201 c 0.135001,-0.139021 -0.275945,-0.79271 -0.956751,-1.629483 a 5.8190384,5.9942708 0 0 0 0.585828,-1.448539 c 1.053949,-0.09586 1.791586,-0.259075 1.791586,-0.455535 v -2.179731 c 0,-0.196127 -0.735414,-0.359588 -1.786418,-0.455531 A 5.8190384,5.9942708 0 0 0 54.13819,46.279706 c 0.679257,-0.835272 1.089532,-1.487384 0.954693,-1.626284 l -1.497121,-1.542208 c -0.134725,-0.13878 -0.766967,0.282851 -1.576681,0.981308 a 5.8190384,5.9942708 0 0 0 -1.411362,-0.599215 c -0.09305,-1.08569 -0.251481,-1.845534 -0.442217,-1.845534 z m 1.058006,4.904405 a 2.6450176,2.7246682 0 0 1 2.645017,2.72467 2.6450176,2.7246682 0 0 1 -2.645017,2.724664 2.6450176,2.7246682 0 0 1 -2.645017,-2.724664 2.6450176,2.7246682 0 0 1 2.645017,-2.72467 z"
       id="path4690"
       inkscape:connector-curvature="0" />
  </g>
</svg>
