<?xml version="1.0" encoding="UTF-8" standalone="no"?>
<svg
   width="64"
   height="64"
   version="1.1"
   id="svg73"
   sodipodi:docname="audacious.svg"
   inkscape:version="1.4.2 (ebf0e940d0, 2025-05-08)"
   xmlns:inkscape="http://www.inkscape.org/namespaces/inkscape"
   xmlns:sodipodi="http://sodipodi.sourceforge.net/DTD/sodipodi-0.dtd"
   xmlns="http://www.w3.org/2000/svg"
   xmlns:svg="http://www.w3.org/2000/svg"
   xmlns:rdf="http://www.w3.org/1999/02/22-rdf-syntax-ns#"
   xmlns:cc="http://creativecommons.org/ns#"
   xmlns:dc="http://purl.org/dc/elements/1.1/">
  <metadata
     id="metadata77">
    <rdf:RDF>
      <cc:Work
         rdf:about="">
        <dc:format>image/svg+xml</dc:format>
        <dc:type
           rdf:resource="http://purl.org/dc/dcmitype/StillImage" />
      </cc:Work>
    </rdf:RDF>
  </metadata>
  <sodipodi:namedview
     pagecolor="#f5f7fa"
     bordercolor="#666666"
     borderopacity="1"
     objecttolerance="10"
     gridtolerance="10"
     guidetolerance="10"
     inkscape:pageopacity="0"
     inkscape:pageshadow="2"
     inkscape:window-width="1377"
     inkscape:window-height="886"
     id="namedview75"
     showgrid="false"
     inkscape:zoom="6.2890624"
     inkscape:cx="46.032299"
     inkscape:cy="36.809938"
     inkscape:window-x="226"
     inkscape:window-y="192"
     inkscape:window-maximized="0"
     inkscape:current-layer="g877"
     inkscape:document-rotation="0"
     inkscape:pagecheckerboard="0"
     inkscape:showpageshadow="2"
     inkscape:deskcolor="#d1d1d1" />
  <defs
     id="defs29" />
  <circle
     cx="32.516094"
     cy="31.877844"
     r="0"
     fill="url(#b)"
     stroke-width="1.5715"
     id="circle41"
     style="fill:url(#b)" />
  <g
     aria-label="GZ"
     transform="matrix(1.2212657,0,0,0.81882264,0.4960938,-0.1661539)"
     id="text93"
     style="font-weight:bold;font-size:11.5263px;line-height:1.25;font-family:sans-serif;-inkscape-font-specification:'sans-serif Bold';fill:#f2f2f2;stroke-width:0.288159" />
  <g
     id="g877"
     transform="matrix(1.1,0,0,1.1,-3.1845928,-3.2065454)">
    <rect
       x="8.3496294"
       y="8.369586"
       width="47.272728"
       height="47.272728"
       rx="9.8825235"
       ry="9.6485243"
       fill="url(#linearGradient862)"
       stroke-width="3.0541"
       id="rect35-7-3"
       style="fill:#414141;fill-opacity:1;stroke:#dfdfdf;stroke-width:2.04545;stroke-dasharray:none;stroke-opacity:1" />
    <path
       style="fill:#dfdfdf;fill-opacity:1;stroke:none;stroke-width:0.468838;stroke-dasharray:none;stroke-opacity:0.6"
       d="M 29.482593,46.324681 C 29.215002,46.185139 29.091254,46.05705 28.97093,45.795033 28.837013,45.5034 28.830684,45.237118 28.950812,44.94742 c 0.06463,-0.155875 2.239558,-2.372207 7.409055,-7.550081 5.584973,-5.594033 7.382553,-7.42897 7.592032,-7.749842 1.454323,-2.227652 1.477035,-4.967771 0.05889,-7.10585 -1.698704,-2.561082 -5.039278,-3.551316 -7.858667,-2.329518 -1.123701,0.486958 -0.931924,0.309312 -8.679318,8.039808 -3.945095,3.936493 -7.328811,7.350963 -7.519367,7.587713 -0.642025,0.797655 -0.949704,1.677243 -0.949704,2.714976 0,2.006981 1.303557,3.689438 3.267992,4.217874 0.580518,0.156162 1.56366,0.145595 2.157978,-0.02352 0.543521,-0.154424 1.070165,-0.404305 1.455934,-0.69084 0.150348,-0.111665 3.21521,-3.148982 6.810804,-6.749576 4.414186,-4.420244 6.577267,-6.626514 6.660049,-6.792942 0.255847,-0.514338 0.262196,-1.2091 0.01579,-1.765341 -0.139797,-0.316055 -0.559012,-0.752648 -0.878497,-0.914926 -0.585501,-0.297403 -1.36264,-0.285166 -1.919607,0.03022 -0.166731,0.09443 -2.596902,2.475979 -6.468892,6.339508 -3.411002,3.403557 -6.267285,6.221663 -6.347295,6.262467 -0.201333,0.10269 -0.711502,0.09288 -0.924176,-0.01772 -0.237476,-0.123527 -0.418955,-0.326124 -0.529907,-0.591663 -0.123381,-0.295282 -0.115658,-0.552602 0.02528,-0.842896 0.07977,-0.164088 2.137295,-2.25687 6.424507,-6.534581 6.837126,-6.821975 6.557929,-6.567264 7.553504,-6.891 0.343688,-0.111756 0.646841,-0.162005 1.09793,-0.182 0.814869,-0.03611 1.344587,0.07533 2.077013,0.436959 0.468236,0.231191 0.649357,0.364535 1.069943,0.78772 1.619595,1.629602 1.660805,4.053436 0.09902,5.823149 -0.243798,0.276289 -3.29722,3.347864 -6.785327,6.825727 -6.668762,6.649364 -6.629999,6.613379 -7.674158,7.124076 -3.49378,1.708975 -7.787873,-0.09271 -9.021441,-3.785207 -0.207291,-0.620487 -0.357679,-1.513486 -0.357845,-2.124852 -5.77e-4,-1.259545 0.49085,-2.761281 1.244122,-3.803769 0.139326,-0.192809 3.608423,-3.704962 7.70911,-7.804785 6.650872,-6.649467 7.516326,-7.494171 8.016439,-7.824256 1.016106,-0.670652 2.050936,-1.108709 3.178262,-1.345405 0.749531,-0.157375 2.625495,-0.159826 3.353139,-0.0044 2.993147,0.6394 5.432515,2.770783 6.397304,5.589608 0.329313,0.962116 0.443775,1.665988 0.448817,2.759665 0.0093,1.97401 -0.502903,3.556679 -1.670343,5.163244 -0.39563,0.544449 -14.785231,14.970958 -15.065134,15.103778 -0.243809,0.115671 -0.715468,0.11354 -0.941452,-0.0045 z"
       id="path1" />
  </g>
</svg>
