<?xml version="1.0" encoding="UTF-8" standalone="no"?>
<svg
   width="64"
   height="64"
   version="1.1"
   id="svg73"
   sodipodi:docname="Logo.svg"
   inkscape:version="1.3.2 (091e20ef0f, 2023-11-25)"
   xmlns:inkscape="http://www.inkscape.org/namespaces/inkscape"
   xmlns:sodipodi="http://sodipodi.sourceforge.net/DTD/sodipodi-0.dtd"
   xmlns="http://www.w3.org/2000/svg"
   xmlns:svg="http://www.w3.org/2000/svg"
   xmlns:rdf="http://www.w3.org/1999/02/22-rdf-syntax-ns#"
   xmlns:cc="http://creativecommons.org/ns#"
   xmlns:dc="http://purl.org/dc/elements/1.1/">
  <metadata
     id="metadata77">
    <rdf:RDF>
      <cc:Work
         rdf:about="">
        <dc:format>image/svg+xml</dc:format>
        <dc:type
           rdf:resource="http://purl.org/dc/dcmitype/StillImage" />
      </cc:Work>
    </rdf:RDF>
  </metadata>
  <sodipodi:namedview
     pagecolor="#f5f7fa"
     bordercolor="#666666"
     borderopacity="1"
     objecttolerance="10"
     gridtolerance="10"
     guidetolerance="10"
     inkscape:pageopacity="0"
     inkscape:pageshadow="2"
     inkscape:window-width="1377"
     inkscape:window-height="886"
     id="namedview75"
     showgrid="false"
     inkscape:zoom="6.2890624"
     inkscape:cx="39.115529"
     inkscape:cy="12.004969"
     inkscape:window-x="181"
     inkscape:window-y="77"
     inkscape:window-maximized="0"
     inkscape:current-layer="g877"
     inkscape:document-rotation="0"
     inkscape:pagecheckerboard="0"
     inkscape:showpageshadow="2"
     inkscape:deskcolor="#d1d1d1" />
  <defs
     id="defs29">
    <linearGradient
       id="b"
       x1="399.57"
       x2="399.57"
       y1="545.8"
       y2="517.8"
       gradientTransform="matrix(2.1429,0,0,2.1429,-825.86391,-1107.6662)"
       gradientUnits="userSpaceOnUse">
      <stop
         stop-color="#3889e9"
         offset="0"
         id="stop2" />
      <stop
         stop-color="#5ea5fb"
         offset="1"
         id="stop4" />
    </linearGradient>
    <linearGradient
       id="d"
       x2="1"
       gradientTransform="matrix(14.905727,-4.7106182,4.7106182,14.905727,322.04962,998.26962)"
       gradientUnits="userSpaceOnUse">
      <stop
         stop-color="#fafafa"
         offset="0"
         id="stop7" />
      <stop
         stop-color="#aaa"
         offset="1"
         id="stop8" />
    </linearGradient>
    <linearGradient
       id="e"
       x2="1"
       gradientTransform="matrix(21.439909,0,0,21.439909,26.63554,1159.7788)"
       gradientUnits="userSpaceOnUse">
      <stop
         stop-color="#f0f0f0"
         offset="0"
         id="stop9" />
      <stop
         stop-color="#b7f1ff"
         offset="1"
         id="stop10" />
    </linearGradient>
  </defs>
  <circle
     cx="32.516094"
     cy="31.877844"
     r="0"
     fill="url(#b)"
     stroke-width="1.5715"
     id="circle41"
     style="fill:url(#b)" />
  <g
     aria-label="GZ"
     transform="matrix(1.2212657,0,0,0.81882264,0.4960938,-0.1661539)"
     id="text93"
     style="font-weight:bold;font-size:11.5263px;line-height:1.25;font-family:sans-serif;-inkscape-font-specification:'sans-serif Bold';fill:#f2f2f2;stroke-width:0.288159" />
  <g
     id="g877"
     transform="matrix(1.1,0,0,1.1,-3.1845928,-3.2065454)">
    <rect
       x="6.3010068"
       y="5.4939413"
       width="51.635597"
       height="53.148327"
       rx="10.980581"
       ry="10.720582"
       fill="url(#linearGradient862)"
       stroke-width="3.0541"
       id="rect35-7-3"
       style="fill:#414141;fill-opacity:1;stroke:#dfdfdf;stroke-width:2.27272727;stroke-dasharray:none;stroke-opacity:1" />
    <path
       id="path12"
       style="fill:#dfdfdf;fill-opacity:1;stroke-width:0.189474"
       d="m 14.950701,12.437314 v 1.103516 c 0,0.710839 -0.02292,1.105469 -0.06445,1.105469 -0.09872,0 -0.618811,0.502252 -0.66211,0.638672 -0.0357,0.11248 -0.11283,0.11914 -1.140624,0.11914 h -1.099609 v 0.980468 0.978516 h 0.978515 0.978516 v 1.041016 1.042968 h -0.835938 c -1.228648,0.0013 -1.121093,-0.09243 -1.121093,0.986329 v 0.908204 h 0.978515 0.978516 v 1.042967 1.041016 l -0.835938,0.002 c -1.230924,0.0013 -1.121093,-0.09981 -1.121093,1.015624 v 0.941406 h 0.978515 0.978516 v 1.009719 1.009766 h -0.978516 -0.978515 v 0.980468 0.978516 h 0.978515 0.978516 v 1.041016 1.042969 h -0.978516 -0.978515 v 0.947266 0.947265 h 0.978515 0.978516 v 1.042968 1.041016 h -0.978516 -0.978515 v 0.978516 0.980468 h 0.978515 0.978516 v 1.009766 1.009766 h -0.978516 -0.978515 v 0.980469 0.978516 h 0.978515 0.978516 v 1.041015 1.042969 h -0.939453 -0.939454 l -0.03906,0.197265 c -0.02171,0.108548 -0.03906,0.534766 -0.03906,0.947266 v 0.75 h 0.978516 0.978515 v 1.042968 1.041016 h -0.978516 -0.978515 v 0.978516 0.980468 l 1.08789,0.002 1.089844,0.002 0.171875,0.248047 c 0.09448,0.136622 0.272337,0.313415 0.394531,0.392579 l 0.222657,0.14453 v 1.089845 1.08789 h 0.980468 0.978515 v -0.978608 -0.978516 h 1.041017 1.042967 v 0.978516 0.978515 h 0.947266 0.947267 v -0.978515 -0.978516 h 1.042968 1.041016 v 0.978516 0.978515 h 0.978516 0.980468 v -0.978515 -0.978516 h 1.009766 1.009766 v 0.978516 0.978515 h 0.980467 0.978516 v -0.978515 -0.978516 h 1.041017 1.042967 v 0.978516 0.978515 h 0.947267 0.947266 v -0.978515 -0.978516 h 1.042968 1.041016 v 0.978516 0.978515 h 0.978516 0.980468 v -0.978515 -0.978516 h 1.009766 1.009766 v 0.978516 0.978515 h 0.980467 0.978516 v -0.978515 -0.978516 h 1.041017 1.042968 v 0.978516 0.978515 h 0.947266 0.947266 v -0.978515 -0.978516 h 1.042968 1.041016 v 0.978516 0.978515 h 0.978516 0.980468 v -1.087891 -1.089843 l 0.222657,-0.144531 c 0.122193,-0.07916 0.300051,-0.255956 0.394531,-0.392578 l 0.171875,-0.248047 1.089844,-0.002 1.08789,-0.002 v -0.980375 -0.978516 h -0.978515 -0.978516 v -1.040996 -1.042968 h 0.978516 0.978515 V 44.394345 43.44708 h -0.978515 -0.978516 v -1.042969 -1.041016 h 0.978516 0.978515 v -0.978516 -0.980468 h -0.978515 -0.978516 v -1.009766 -1.009766 h 0.978516 0.978515 v -0.980468 -0.978516 h -0.978515 -0.978516 v -1.041016 -1.042968 h 0.978516 0.978515 v -0.947265 -0.947267 h -0.978515 -0.978516 v -1.042968 -1.041016 h 0.978516 0.978515 v -0.978516 -0.980468 h -0.978515 -0.978516 v -1.009766 -1.009766 h 0.978516 0.978515 v -0.980468 -0.978516 h -0.978515 -0.978516 v -1.041016 -1.042967 h 0.978516 0.978515 v -0.947267 -0.947266 h -0.978515 -0.978516 v -1.042968 -1.041016 h 0.978516 0.978515 v -0.978516 -0.980468 h -1.103515 c -0.710841,0 -1.10547,-0.02292 -1.10547,-0.06445 0,-0.09872 -0.502251,-0.618812 -0.638671,-0.662109 -0.11249,-0.0357 -0.119141,-0.11283 -0.119141,-1.140625 v -1.09961 h -0.980468 -0.978516 v 0.978516 0.978516 h -1.041016 -1.042968 v -0.978516 -0.978516 h -0.947266 -0.947266 v 0.978516 0.978516 H 41.950703 40.909686 V 13.415833 12.437317 H 39.93117 38.950702 v 0.978516 0.978516 H 37.940936 36.93117 v -0.978516 -0.978516 h -0.980469 -0.978516 v 0.978516 0.978516 h -1.041016 -1.042968 v -0.978516 -0.978516 h -0.947266 -0.947266 v 0.978516 0.978516 h -1.042967 -1.041017 v -0.978516 -0.978516 h -0.978516 -0.980468 v 0.978516 0.978516 H 25.940935 24.93117 v -0.978516 -0.978516 h -0.980469 -0.978516 v 0.978516 0.978516 h -1.041016 -1.042968 v -0.978516 -0.978516 h -0.947266 -0.947266 v 0.978516 0.978516 H 17.950702 16.909685 V 13.415834 12.437318 H 15.93117 Z m 4.615234,5.935547 h 12.375 12.375 l 0.363282,0.136718 c 0.490574,0.183548 0.962936,0.65591 1.146484,1.146485 l 0.136718,0.363282 v 12.375 12.375 l -0.136718,0.36328 c -0.183548,0.490575 -0.65591,0.962937 -1.146484,1.146485 l -0.363282,0.136718 -12.392578,-0.0038 -12.392578,-0.0038 -0.345703,-0.130859 C 18.712734,46.09593 18.23527,45.611415 18.05617,45.132726 l -0.136719,-0.36328 v -12.375 -12.375 l 0.136719,-0.363282 c 0.183548,-0.490575 0.65591,-0.962937 1.146484,-1.146485 z m 5.669922,5.458984 c -0.573111,-0.009 -1.08106,0.02655 -1.166016,0.111328 -0.116239,0.115994 -0.145383,0.649538 -0.04102,0.753906 0.03175,0.03175 0.318743,0.127791 0.636718,0.212891 0.317976,0.0851 0.747537,0.240936 0.95508,0.345703 0.454294,0.229328 1.100261,0.818643 1.478514,1.34961 0.657331,0.922715 3.648451,5.695916 3.625001,5.785156 -0.03318,0.126252 -3.868899,5.582579 -4.322265,6.148437 -0.678491,0.846842 -1.115289,1.07553 -2.214845,1.15625 -0.661877,0.04859 -0.714403,0.08729 -0.720702,0.546875 -0.0027,0.200368 0.03115,0.291425 0.146483,0.390625 0.147737,0.127071 0.207301,0.129938 3.054687,0.117188 1.597362,-0.0072 2.939892,-0.01412 2.982422,-0.01563 0.134664,-0.0048 0.286247,-0.383728 0.248047,-0.619141 -0.0557,-0.343257 -0.117782,-0.375485 -0.785156,-0.421875 -0.814378,-0.05661 -1.234921,-0.176679 -1.326172,-0.376953 -0.15504,-0.340278 -0.09479,-0.438296 2.41797,-4.035156 0.694735,-0.994472 1.28231,-1.809447 1.306639,-1.810547 0.08026,-0.0037 3.541107,4.990696 3.623047,5.228516 0.105589,0.306476 0.05593,0.529457 -0.164062,0.740234 -0.152353,0.145966 -0.268509,0.183651 -0.757813,0.24414 -0.442868,0.05475 -0.597875,0.100166 -0.666015,0.19336 -0.124537,0.170316 -0.112656,0.560447 0.02344,0.728516 l 0.115235,0.140624 3.40625,-0.0059 c 1.874002,-0.003 3.431164,-0.0068 3.458984,-0.0078 0.02782,-9.68e-4 0.09102,-0.1012 0.142578,-0.22461 0.100144,-0.239678 0.06886,-0.626535 -0.05859,-0.708984 -0.03948,-0.02554 -0.336788,-0.07964 -0.660156,-0.121095 -0.710998,-0.09114 -0.994992,-0.240875 -1.480469,-0.777344 -0.188831,-0.208665 -1.405146,-1.892178 -2.703125,-3.742186 -1.29798,-1.850011 -2.452408,-3.494484 -2.566407,-3.654297 l -0.207031,-0.291016 1.710938,-2.423828 c 0.941524,-1.33387 1.850684,-2.600081 2.019532,-2.812501 0.573757,-0.721816 1.044762,-0.960158 2.003905,-1.017578 0.409572,-0.02452 0.623446,-0.06652 0.703126,-0.136719 0.16941,-0.149243 0.203637,-0.456523 0.07813,-0.707031 l -0.107426,-0.214844 h -3.019531 c -2.861923,-7.34e-4 -3.026487,0.0062 -3.126954,0.117189 -0.125889,0.139111 -0.145951,0.688032 -0.0293,0.804686 0.04326,0.04326 0.361888,0.09884 0.728515,0.125001 1.35971,0.09705 1.5951,0.323474 1.148439,1.107421 -0.273426,0.479895 -2.746491,4.035157 -2.806642,4.035157 -0.03275,0 -0.569768,-0.83144 -1.193359,-1.847657 -1.250021,-2.037059 -1.535487,-2.429531 -2.285155,-3.134765 -0.582108,-0.547605 -1.235513,-0.906415 -2.046876,-1.121093 -0.345965,-0.09154 -0.985483,-0.145304 -1.558594,-0.154297 z" />
  </g>
</svg>
