<?xml version="1.0" encoding="UTF-8" standalone="no"?>
<svg
   width="64"
   height="64"
   version="1.1"
   id="svg73"
   sodipodi:docname="audacious.svg"
   inkscape:version="1.4.2 (ebf0e940d0, 2025-05-08)"
   xmlns:inkscape="http://www.inkscape.org/namespaces/inkscape"
   xmlns:sodipodi="http://sodipodi.sourceforge.net/DTD/sodipodi-0.dtd"
   xmlns="http://www.w3.org/2000/svg"
   xmlns:svg="http://www.w3.org/2000/svg"
   xmlns:rdf="http://www.w3.org/1999/02/22-rdf-syntax-ns#"
   xmlns:cc="http://creativecommons.org/ns#"
   xmlns:dc="http://purl.org/dc/elements/1.1/">
  <metadata
     id="metadata77">
    <rdf:RDF>
      <cc:Work
         rdf:about="">
        <dc:format>image/svg+xml</dc:format>
        <dc:type
           rdf:resource="http://purl.org/dc/dcmitype/StillImage" />
      </cc:Work>
    </rdf:RDF>
  </metadata>
  <sodipodi:namedview
     pagecolor="#f5f7fa"
     bordercolor="#666666"
     borderopacity="1"
     objecttolerance="10"
     gridtolerance="10"
     guidetolerance="10"
     inkscape:pageopacity="0"
     inkscape:pageshadow="2"
     inkscape:window-width="1377"
     inkscape:window-height="886"
     id="namedview75"
     showgrid="false"
     inkscape:zoom="6.2890624"
     inkscape:cx="46.032299"
     inkscape:cy="36.809938"
     inkscape:window-x="226"
     inkscape:window-y="192"
     inkscape:window-maximized="0"
     inkscape:current-layer="g877"
     inkscape:document-rotation="0"
     inkscape:pagecheckerboard="0"
     inkscape:showpageshadow="2"
     inkscape:deskcolor="#d1d1d1" />
  <defs
     id="defs29" />
  <circle
     cx="32.516094"
     cy="31.877844"
     r="0"
     fill="url(#b)"
     stroke-width="1.5715"
     id="circle41"
     style="fill:url(#b)" />
  <g
     aria-label="GZ"
     transform="matrix(1.2212657,0,0,0.81882264,0.4960938,-0.1661539)"
     id="text93"
     style="font-weight:bold;font-size:11.5263px;line-height:1.25;font-family:sans-serif;-inkscape-font-specification:'sans-serif Bold';fill:#f2f2f2;stroke-width:0.288159" />
  <g
     id="g877"
     transform="matrix(1.1,0,0,1.1,-3.1845928,-3.2065454)">
    <rect
       x="8.3496294"
       y="8.369586"
       width="47.272728"
       height="47.272728"
       rx="9.8825235"
       ry="9.6485243"
       fill="url(#linearGradient862)"
       stroke-width="3.0541"
       id="rect35-7-3"
       style="fill:#414141;fill-opacity:1;stroke:#dfdfdf;stroke-width:2.04545;stroke-dasharray:none;stroke-opacity:1" />
    <path
       style="fill:#dfdfdf;fill-opacity:1;stroke:none;stroke-width:0.451022;stroke-dasharray:none;stroke-opacity:0.6"
       d="m 19.990381,46.42865 c -1.611448,-0.561694 -2.79439,-1.754507 -3.190182,-3.216781 -0.275646,-1.018393 -0.08808,-2.448679 0.445926,-3.400508 1.028221,-1.832704 3.497478,-2.886781 5.45044,-2.326675 l 0.486108,0.139409 0.09974,-0.954315 c 0.254784,-2.437638 2.048678,-4.584122 4.470939,-5.349702 0.472491,-0.149336 0.89067,-0.297975 0.929281,-0.330308 0.03862,-0.03233 -0.653124,-0.784583 -1.537189,-1.671668 L 25.538052,27.70522 27.11429,26.175706 28.690527,24.646193 V 22.48304 20.319887 h 2.239226 2.239228 l 1.588009,-1.498049 1.588012,-1.498045 0.741501,0.626638 c 0.407826,0.344648 1.125686,1.01877 1.595242,1.498047 l 0.853744,0.871409 h 2.231134 2.231129 v 2.156934 2.156934 l 1.650155,1.534498 1.650166,1.534496 -1.650166,1.554139 -1.650155,1.554137 v 2.095651 2.095651 h -2.120334 -2.120327 l -1.249183,1.132422 -1.249174,1.132422 1.072875,0.0984 c 1.379988,0.126572 2.439734,0.661349 3.377511,1.704379 1.609361,1.789999 1.587524,4.180858 -0.05462,5.977591 -0.477688,0.522664 -1.089819,0.989882 -1.597583,1.21936 l -0.823169,0.372029 -9.215575,0.03641 c -8.550895,0.03376 -9.274159,0.01603 -10.02782,-0.246737 z M 37.750982,33.989266 c 2.151015,-0.269085 4.306544,-2.176367 5.001127,-4.425166 1.163892,-3.768257 -1.293608,-7.505741 -5.380535,-8.182966 -2.026604,-0.335819 -4.108164,0.319934 -5.653043,1.78088 -1.984644,1.876817 -2.582364,4.854165 -1.430901,7.127571 0.315912,0.623724 0.450714,0.730536 1.214435,0.962248 1.557779,0.472626 2.996006,1.425073 3.538384,2.343245 0.184915,0.313038 0.417578,0.471618 0.747075,0.509197 0.485322,0.05535 0.703999,0.04255 1.963458,-0.115009 z"
       id="path53290" />
  </g>
</svg>
