<?xml version="1.0" encoding="UTF-8" standalone="no"?>
<svg
   width="64"
   height="64"
   version="1.1"
   id="svg73"
   sodipodi:docname="audacious.svg"
   inkscape:version="1.4.2 (ebf0e940d0, 2025-05-08)"
   xmlns:inkscape="http://www.inkscape.org/namespaces/inkscape"
   xmlns:sodipodi="http://sodipodi.sourceforge.net/DTD/sodipodi-0.dtd"
   xmlns="http://www.w3.org/2000/svg"
   xmlns:svg="http://www.w3.org/2000/svg"
   xmlns:rdf="http://www.w3.org/1999/02/22-rdf-syntax-ns#"
   xmlns:cc="http://creativecommons.org/ns#"
   xmlns:dc="http://purl.org/dc/elements/1.1/">
  <metadata
     id="metadata77">
    <rdf:RDF>
      <cc:Work
         rdf:about="">
        <dc:format>image/svg+xml</dc:format>
        <dc:type
           rdf:resource="http://purl.org/dc/dcmitype/StillImage" />
      </cc:Work>
    </rdf:RDF>
  </metadata>
  <sodipodi:namedview
     pagecolor="#f5f7fa"
     bordercolor="#666666"
     borderopacity="1"
     objecttolerance="10"
     gridtolerance="10"
     guidetolerance="10"
     inkscape:pageopacity="0"
     inkscape:pageshadow="2"
     inkscape:window-width="1377"
     inkscape:window-height="886"
     id="namedview75"
     showgrid="false"
     inkscape:zoom="6.2890624"
     inkscape:cx="46.032299"
     inkscape:cy="36.809938"
     inkscape:window-x="326"
     inkscape:window-y="176"
     inkscape:window-maximized="0"
     inkscape:current-layer="g877"
     inkscape:document-rotation="0"
     inkscape:pagecheckerboard="0"
     inkscape:showpageshadow="2"
     inkscape:deskcolor="#d1d1d1" />
  <defs
     id="defs29" />
  <circle
     cx="32.516094"
     cy="31.877844"
     r="0"
     fill="url(#b)"
     stroke-width="1.5715"
     id="circle41"
     style="fill:url(#b)" />
  <g
     aria-label="GZ"
     transform="matrix(1.2212657,0,0,0.81882264,0.4960938,-0.1661539)"
     id="text93"
     style="font-weight:bold;font-size:11.5263px;line-height:1.25;font-family:sans-serif;-inkscape-font-specification:'sans-serif Bold';fill:#f2f2f2;stroke-width:0.288159" />
  <g
     id="g877"
     transform="matrix(1.1,0,0,1.1,-3.1845928,-3.2065454)">
    <rect
       x="8.3496294"
       y="8.369586"
       width="47.272728"
       height="47.272728"
       rx="9.8825235"
       ry="9.6485243"
       fill="url(#linearGradient862)"
       stroke-width="3.0541"
       id="rect35-7-3"
       style="fill:#414141;fill-opacity:1;stroke:#dfdfdf;stroke-width:2.04545;stroke-dasharray:none;stroke-opacity:1" />
    <path
       style="fill:#dfdfdf;fill-opacity:1;stroke:none;stroke-width:0.520931;stroke-dasharray:none;stroke-opacity:0.6"
       d="m 18.992231,46.993323 c -0.326872,-0.132241 -0.937157,-0.647873 -1.356186,-1.14586 -1.540534,-1.830822 -0.658546,-4.97887 2.608194,-9.309333 2.730586,-3.619732 5.356035,-5.656733 10.477319,-8.129025 2.666038,-1.287026 3.465617,-1.842548 5.291109,-3.676094 1.528783,-1.535525 2.51926,-2.859506 3.426157,-4.579752 1.165735,-2.211224 1.391072,-2.467399 2.614239,-2.972037 1.285767,-0.530468 1.389443,-0.532802 2.629623,-0.05917 2.363259,0.902539 3.077809,3.250167 1.843608,6.057119 -2.237597,5.088992 -6.304746,9.070133 -12.467451,12.203816 -5.238386,2.663673 -7.430059,4.672314 -9.423852,8.636828 -1.159692,2.305972 -2.293144,3.255786 -3.856922,3.232034 -0.655336,-0.0098 -1.458965,-0.126325 -1.785838,-0.258558 z m 7.98061,-0.145271 c -0.472674,-1.231776 2.701402,-5.777847 4.805211,-6.882269 1.176821,-0.617796 11.49363,-0.576459 13.065144,0.0523 1.474433,0.589946 2.295365,1.895149 2.295365,3.64938 0,1.112328 -0.157799,1.498986 -0.977017,2.393166 l -0.977011,1.066478 -9.020473,0.08288 c -7.954909,0.07317 -9.040645,0.03043 -9.191219,-0.362005 z M 19.544177,24.402494 c -0.494402,-0.143225 -1.297407,-0.714271 -1.78446,-1.268994 -1.716179,-1.954621 -0.947722,-5.053592 1.481314,-5.973736 1.017528,-0.385452 2.446408,-0.443196 9.308207,-0.376162 9.366595,0.0915 9.21192,0.0457 8.072624,2.390703 -0.903632,1.859952 -1.956688,3.171706 -3.570461,4.447592 l -1.381824,1.092508 -5.613246,-0.02575 c -3.087285,-0.01418 -6.017755,-0.142933 -6.512154,-0.286158 z"
       id="path1-5" />
  </g>
</svg>
