<?xml version="1.0" encoding="UTF-8" standalone="no"?>
<svg
   width="64"
   height="64"
   version="1.1"
   id="svg73"
   sodipodi:docname="audacious.svg"
   inkscape:version="1.4.2 (ebf0e940d0, 2025-05-08)"
   xmlns:inkscape="http://www.inkscape.org/namespaces/inkscape"
   xmlns:sodipodi="http://sodipodi.sourceforge.net/DTD/sodipodi-0.dtd"
   xmlns="http://www.w3.org/2000/svg"
   xmlns:svg="http://www.w3.org/2000/svg"
   xmlns:rdf="http://www.w3.org/1999/02/22-rdf-syntax-ns#"
   xmlns:cc="http://creativecommons.org/ns#"
   xmlns:dc="http://purl.org/dc/elements/1.1/">
  <metadata
     id="metadata77">
    <rdf:RDF>
      <cc:Work
         rdf:about="">
        <dc:format>image/svg+xml</dc:format>
        <dc:type
           rdf:resource="http://purl.org/dc/dcmitype/StillImage" />
      </cc:Work>
    </rdf:RDF>
  </metadata>
  <sodipodi:namedview
     pagecolor="#f5f7fa"
     bordercolor="#666666"
     borderopacity="1"
     objecttolerance="10"
     gridtolerance="10"
     guidetolerance="10"
     inkscape:pageopacity="0"
     inkscape:pageshadow="2"
     inkscape:window-width="1377"
     inkscape:window-height="886"
     id="namedview75"
     showgrid="false"
     inkscape:zoom="6.2890624"
     inkscape:cx="45.714286"
     inkscape:cy="38.559007"
     inkscape:window-x="20"
     inkscape:window-y="75"
     inkscape:window-maximized="0"
     inkscape:current-layer="g877"
     inkscape:document-rotation="0"
     inkscape:pagecheckerboard="0"
     inkscape:showpageshadow="2"
     inkscape:deskcolor="#d1d1d1" />
  <defs
     id="defs29" />
  <circle
     cx="32.516094"
     cy="31.877844"
     r="0"
     fill="url(#b)"
     stroke-width="1.5715"
     id="circle41"
     style="fill:url(#b)" />
  <g
     aria-label="GZ"
     transform="matrix(1.2212657,0,0,0.81882264,0.4960938,-0.1661539)"
     id="text93"
     style="font-weight:bold;font-size:11.5263px;line-height:1.25;font-family:sans-serif;-inkscape-font-specification:'sans-serif Bold';fill:#f2f2f2;stroke-width:0.288159" />
  <g
     id="g877"
     transform="matrix(1.1,0,0,1.1,-3.1845928,-3.2065454)">
    <rect
       x="8.3496294"
       y="8.369586"
       width="47.272728"
       height="47.272728"
       rx="9.8825235"
       ry="9.6485243"
       fill="url(#linearGradient862)"
       stroke-width="3.0541"
       id="rect35-7-3"
       style="fill:#414141;fill-opacity:1;stroke:#dfdfdf;stroke-width:2.04545;stroke-dasharray:none;stroke-opacity:1" />
    <path
       style="fill:#dfdfdf;stroke-width:0.281381;fill-opacity:1"
       d="M 30.313604,47.335585 C 24.088393,46.61209 18.903561,42.237779 17.174965,36.250853 c -0.862117,-2.985918 -0.798727,-6.044755 0.189055,-9.122528 0.350042,-1.090677 1.350111,-3.05345 2.078018,-4.078396 0.808729,-1.138749 2.449027,-2.779047 3.587777,-3.587775 2.110357,-1.498757 4.713346,-2.484045 7.364972,-2.787804 3.588421,-0.411072 7.496459,0.621987 10.54635,2.787845 1.138697,0.808635 2.779009,2.448931 3.587777,3.587734 2.155502,3.035102 3.196934,6.974878 2.787802,10.546351 -0.303759,2.651627 -1.289045,5.254615 -2.787802,7.36497 -0.810611,1.1414 -2.45529,2.786657 -3.564529,3.565785 -3.152384,2.214225 -7.010596,3.231613 -10.650781,2.80855 z M 32.48541,35.262669 c 3.112217,-1.777966 5.623541,-3.265201 5.580717,-3.304966 -0.06815,-0.06327 -10.899981,-6.262768 -11.450333,-6.553479 l -0.211036,-0.111479 v 6.712841 6.712842 l 0.211036,-0.111548 c 0.116069,-0.06134 2.757397,-1.56625 5.869616,-3.344216 z"
       id="path7" />
  </g>
</svg>
