<?xml version="1.0" encoding="UTF-8" standalone="no"?>
<svg
   width="64"
   height="64"
   version="1.1"
   id="svg73"
   sodipodi:docname="audacious.svg"
   inkscape:version="1.4.2 (ebf0e940d0, 2025-05-08)"
   xmlns:inkscape="http://www.inkscape.org/namespaces/inkscape"
   xmlns:sodipodi="http://sodipodi.sourceforge.net/DTD/sodipodi-0.dtd"
   xmlns="http://www.w3.org/2000/svg"
   xmlns:svg="http://www.w3.org/2000/svg"
   xmlns:rdf="http://www.w3.org/1999/02/22-rdf-syntax-ns#"
   xmlns:cc="http://creativecommons.org/ns#"
   xmlns:dc="http://purl.org/dc/elements/1.1/">
  <metadata
     id="metadata77">
    <rdf:RDF>
      <cc:Work
         rdf:about="">
        <dc:format>image/svg+xml</dc:format>
        <dc:type
           rdf:resource="http://purl.org/dc/dcmitype/StillImage" />
      </cc:Work>
    </rdf:RDF>
  </metadata>
  <sodipodi:namedview
     pagecolor="#f5f7fa"
     bordercolor="#666666"
     borderopacity="1"
     objecttolerance="10"
     gridtolerance="10"
     guidetolerance="10"
     inkscape:pageopacity="0"
     inkscape:pageshadow="2"
     inkscape:window-width="1377"
     inkscape:window-height="886"
     id="namedview75"
     showgrid="false"
     inkscape:zoom="6.2890624"
     inkscape:cx="46.032299"
     inkscape:cy="36.809938"
     inkscape:window-x="326"
     inkscape:window-y="176"
     inkscape:window-maximized="0"
     inkscape:current-layer="g877"
     inkscape:document-rotation="0"
     inkscape:pagecheckerboard="0"
     inkscape:showpageshadow="2"
     inkscape:deskcolor="#d1d1d1" />
  <defs
     id="defs29" />
  <circle
     cx="32.516094"
     cy="31.877844"
     r="0"
     fill="url(#b)"
     stroke-width="1.5715"
     id="circle41"
     style="fill:url(#b)" />
  <g
     aria-label="GZ"
     transform="matrix(1.2212657,0,0,0.81882264,0.4960938,-0.1661539)"
     id="text93"
     style="font-weight:bold;font-size:11.5263px;line-height:1.25;font-family:sans-serif;-inkscape-font-specification:'sans-serif Bold';fill:#f2f2f2;stroke-width:0.288159" />
  <g
     id="g877"
     transform="matrix(1.1,0,0,1.1,-3.1845928,-3.2065454)">
    <rect
       x="8.3496294"
       y="8.369586"
       width="47.272728"
       height="47.272728"
       rx="9.8825235"
       ry="9.6485243"
       fill="url(#linearGradient862)"
       stroke-width="3.0541"
       id="rect35-7-3"
       style="fill:#414141;fill-opacity:1;stroke:#dfdfdf;stroke-width:2.04545;stroke-dasharray:none;stroke-opacity:1" />
    <path
       id="path635"
       style="fill:#dfdfdf;fill-opacity:1;stroke:none;stroke-width:0.4725;stroke-dasharray:none;stroke-opacity:0.6"
       d="m 31.986051,16.412211 c -0.161644,0 -3.669431,1.687886 -7.794979,3.750858 -6.429731,3.215176 -7.526648,3.800588 -7.680802,4.098695 -0.156108,0.301872 -0.17986,1.337045 -0.17986,7.843083 0,7.456471 0.0014,7.496949 0.248346,7.811013 0.170922,0.217258 2.537773,1.462956 7.593288,3.996499 5.60473,2.808786 7.449178,3.682387 7.785027,3.687303 0.350042,0.0052 1.949493,-0.748287 7.814005,-3.680831 5.086446,-2.543476 7.450873,-3.785196 7.622169,-4.002971 0.247033,-0.314051 0.248332,-0.354529 0.248332,-7.811013 0,-6.506038 -0.02403,-7.54121 -0.17982,-7.843083 -0.154171,-0.298107 -1.251094,-0.883519 -7.680823,-4.098695 -4.125552,-2.062972 -7.633239,-3.750858 -7.794883,-3.750858 z m 0.03891,1.477218 7.102397,3.571096 7.102489,3.571098 0.0022,7.046563 0.0024,7.046664 -1.612552,0.765126 c -0.886869,0.420794 -4.092708,2.003811 -7.124144,3.517777 l -5.511655,2.75265 -7.121712,-3.528207 -7.121715,-3.528211 -0.0024,-7.036906 -0.0024,-7.037002 7.14364,-3.570324 z m -0.03891,9.064906 c -5.126494,0 -10.253051,0.05095 -10.355022,0.152909 -0.104958,0.104948 -0.140735,1.384604 -0.140735,5.034308 0,4.292289 0.02263,4.91614 0.184304,5.077777 0.164685,0.164688 1.26135,0.184301 10.311457,0.184301 9.050103,0 10.146671,-0.0198 10.311357,-0.184301 0.161636,-0.161637 0.1843,-0.785488 0.1843,-5.077777 3e-6,-3.649704 -0.03578,-4.929353 -0.140725,-5.034308 -0.101955,-0.101965 -5.22843,-0.152909 -10.354924,-0.152909 z m 3.581142,1.644038 -0.0315,2.672864 -0.03163,2.672866 -0.851866,0.03446 c -0.622416,0.02521 -0.867857,-0.0071 -0.911224,-0.120162 -0.03265,-0.08506 -0.04508,-1.287931 -0.02764,-2.673058 l 0.0317,-2.518411 0.911083,-0.03428 z m -12.435085,3.6e-4 0.908857,0.03428 0.908856,0.03418 0.03321,2.404044 c 0.01825,1.322218 0.0041,2.522816 -0.03163,2.667936 -0.05926,0.241482 -0.132505,0.263801 -0.863844,0.263801 -0.439513,0 -0.834369,-0.03514 -0.877367,-0.07815 -0.04298,-0.043 -0.07813,-1.258949 -0.07813,-2.702131 z m 3.518064,0 0.90886,0.03428 0.908855,0.03418 v 2.638575 2.638574 l -0.82598,0.034 c -0.454307,0.01869 -0.863299,-0.0034 -0.908857,-0.04889 -0.04556,-0.04556 -0.08288,-1.263585 -0.08288,-2.706768 z m 3.576799,0.06847 h 0.879488 0.879592 v 2.638578 2.638574 l -0.851961,0.03446 c -0.622468,0.02523 -0.867911,-0.007 -0.911276,-0.120153 -0.03264,-0.08506 -0.04507,-1.287932 -0.0276,-2.673058 z" />
  </g>
</svg>
