<?xml version="1.0" encoding="UTF-8" standalone="no"?>
<svg
   width="64"
   height="64"
   version="1.1"
   id="svg73"
   sodipodi:docname="audacious.svg"
   inkscape:version="1.4.2 (ebf0e940d0, 2025-05-08)"
   xmlns:inkscape="http://www.inkscape.org/namespaces/inkscape"
   xmlns:sodipodi="http://sodipodi.sourceforge.net/DTD/sodipodi-0.dtd"
   xmlns="http://www.w3.org/2000/svg"
   xmlns:svg="http://www.w3.org/2000/svg"
   xmlns:rdf="http://www.w3.org/1999/02/22-rdf-syntax-ns#"
   xmlns:cc="http://creativecommons.org/ns#"
   xmlns:dc="http://purl.org/dc/elements/1.1/">
  <metadata
     id="metadata77">
    <rdf:RDF>
      <cc:Work
         rdf:about="">
        <dc:format>image/svg+xml</dc:format>
        <dc:type
           rdf:resource="http://purl.org/dc/dcmitype/StillImage" />
      </cc:Work>
    </rdf:RDF>
  </metadata>
  <sodipodi:namedview
     pagecolor="#f5f7fa"
     bordercolor="#666666"
     borderopacity="1"
     objecttolerance="10"
     gridtolerance="10"
     guidetolerance="10"
     inkscape:pageopacity="0"
     inkscape:pageshadow="2"
     inkscape:window-width="1377"
     inkscape:window-height="886"
     id="namedview75"
     showgrid="false"
     inkscape:zoom="6.2890624"
     inkscape:cx="47.622361"
     inkscape:cy="45.396274"
     inkscape:window-x="0"
     inkscape:window-y="57"
     inkscape:window-maximized="0"
     inkscape:current-layer="g877"
     inkscape:document-rotation="0"
     inkscape:pagecheckerboard="0"
     inkscape:showpageshadow="2"
     inkscape:deskcolor="#d1d1d1" />
  <defs
     id="defs29" />
  <circle
     cx="32.516094"
     cy="31.877844"
     r="0"
     fill="url(#b)"
     stroke-width="1.5715"
     id="circle41"
     style="fill:url(#b)" />
  <g
     aria-label="GZ"
     transform="matrix(1.2212657,0,0,0.81882264,0.4960938,-0.1661539)"
     id="text93"
     style="font-weight:bold;font-size:11.5263px;line-height:1.25;font-family:sans-serif;-inkscape-font-specification:'sans-serif Bold';fill:#f2f2f2;stroke-width:0.288159" />
  <g
     id="g877"
     transform="matrix(1.1,0,0,1.1,-3.1845928,-3.2065454)">
    <rect
       x="8.3496294"
       y="8.369586"
       width="47.272728"
       height="47.272728"
       rx="9.8825235"
       ry="9.6485243"
       fill="url(#linearGradient862)"
       stroke-width="3.0541"
       id="rect35-7-3"
       style="fill:#414141;fill-opacity:1;stroke:#dfdfdf;stroke-width:2.04545;stroke-dasharray:none;stroke-opacity:1" />
    <path
       style="fill:#dfdfdf;fill-opacity:1;stroke:none;stroke-width:0.515723;stroke-dasharray:none;stroke-opacity:0.6"
       d="M 28.514316,47.622555 C 28.177537,47.455843 28.159675,47.403532 27.777477,45.465862 L 27.432173,43.71524 27.094899,43.577354 C 26.29107,43.248687 25.246568,42.653181 24.504364,42.100391 l -0.382515,-0.284876 -1.668687,0.566374 c -1.15908,0.393359 -1.7262,0.566371 -1.857005,0.566371 -0.198584,0 -0.454448,-0.106744 -0.570372,-0.237965 -0.038,-0.04331 -0.795344,-1.338243 -1.682906,-2.878057 -1.773107,-3.076106 -1.738616,-3.001784 -1.569232,-3.381979 0.06785,-0.152362 0.325125,-0.396653 1.438456,-1.366181 1.353124,-1.17833 1.35577,-1.180965 1.336099,-1.328257 -0.154172,-1.15437 -0.154268,-2.330441 -2.74e-4,-3.499844 0.01936,-0.147185 0.01596,-0.150595 -1.336053,-1.328252 -1.112596,-0.969115 -1.370305,-1.213918 -1.43818,-1.366186 -0.168838,-0.378743 -0.203178,-0.304751 1.569214,-3.380612 0.887729,-1.540586 1.645094,-2.83629 1.683041,-2.879345 0.115462,-0.130984 0.371481,-0.237972 0.569519,-0.237972 0.130023,0 0.699972,0.174064 1.856253,0.566904 l 1.668616,0.566909 0.383265,-0.285456 c 0.742764,-0.553197 1.786481,-1.148344 2.591187,-1.477544 l 0.33718,-0.137938 0.332267,-1.693152 c 0.182755,-0.931233 0.358994,-1.758874 0.391654,-1.839195 0.07735,-0.190242 0.168323,-0.287596 0.3602,-0.385529 0.149575,-0.07633 0.301424,-0.07984 3.454907,-0.07984 3.275075,0 3.29977,6.38e-4 3.483224,0.08943 0.339221,0.164217 0.356547,0.21471 0.740063,2.157152 l 0.345715,1.751016 0.337184,0.137999 c 0.805518,0.329677 1.848546,0.924503 2.591854,1.478113 l 0.383959,0.285957 1.670444,-0.567416 c 1.144116,-0.388623 1.728776,-0.567418 1.855575,-0.567418 0.195793,0 0.451868,0.107449 0.567172,0.237974 0.03783,0.04311 0.795343,1.338129 1.682912,2.877952 1.772746,3.075537 1.738366,3.001446 1.569614,3.382003 -0.06768,0.152594 -0.322718,0.394883 -1.437882,1.366183 -1.351402,1.177008 -1.355547,1.181125 -1.336483,1.328259 0.153909,1.187583 0.153909,2.318756 -1.17e-4,3.499844 -0.019,0.147187 -0.01516,0.151021 1.336105,1.328254 1.112661,0.96927 1.370136,1.21388 1.437986,1.366174 0.169373,0.380325 0.20391,0.305999 -1.568923,3.382156 -0.887359,1.539738 -1.644672,2.834754 -1.682892,2.877808 -0.116277,0.130872 -0.372029,0.238031 -0.568623,0.238031 -0.128326,0 -0.706242,-0.176685 -1.856844,-0.567712 l -1.670584,-0.567716 -0.284812,0.216413 c -0.726914,0.552295 -1.795856,1.174132 -2.584822,1.503697 l -0.44083,0.184129 -0.345713,1.750204 c -0.383511,1.941514 -0.400881,1.992144 -0.740067,2.156337 -0.183434,0.08883 -0.208346,0.08954 -3.471006,0.08954 -3.27494,-3e-5 -3.28686,-3.47e-4 -3.46889,-0.09039 z m 6.320457,-10.00726 c 1.517667,-1.821518 2.765723,-3.3307 2.773453,-3.353747 0.0093,-0.02738 -0.575086,-0.04204 -1.675605,-0.04204 h -1.689655 l -0.01092,-4.799567 -0.01111,-4.799562 -0.112197,-0.16953 C 33.889653,24.11982 33.894428,24.12055 31.986096,24.12055 c -1.908337,0 -1.903561,-7.67e-4 -2.122647,0.330299 l -0.112197,0.16953 -0.01111,4.799562 -0.01091,4.799569 h -1.686128 c -0.92738,0 -1.685856,0.01408 -1.685512,0.03165 3.47e-4,0.01767 1.263386,1.546219 2.806758,3.397376 2.113018,2.53443 2.819111,3.35498 2.858703,3.322125 0.02893,-0.02385 1.294302,-1.533963 2.811969,-3.355481 z"
       id="path5" />
  </g>
</svg>
