<?xml version="1.0" encoding="UTF-8" standalone="no"?>
<svg
   width="64"
   height="64"
   version="1.1"
   id="svg73"
   sodipodi:docname="steam_icon_1934680.svg"
   inkscape:version="1.3.2 (091e20ef0f, 2023-11-25)"
   xmlns:inkscape="http://www.inkscape.org/namespaces/inkscape"
   xmlns:sodipodi="http://sodipodi.sourceforge.net/DTD/sodipodi-0.dtd"
   xmlns="http://www.w3.org/2000/svg"
   xmlns:svg="http://www.w3.org/2000/svg"
   xmlns:rdf="http://www.w3.org/1999/02/22-rdf-syntax-ns#"
   xmlns:cc="http://creativecommons.org/ns#"
   xmlns:dc="http://purl.org/dc/elements/1.1/">
  <metadata
     id="metadata77">
    <rdf:RDF>
      <cc:Work
         rdf:about="">
        <dc:format>image/svg+xml</dc:format>
        <dc:type
           rdf:resource="http://purl.org/dc/dcmitype/StillImage" />
      </cc:Work>
    </rdf:RDF>
  </metadata>
  <sodipodi:namedview
     pagecolor="#f5f7fa"
     bordercolor="#666666"
     borderopacity="1"
     objecttolerance="10"
     gridtolerance="10"
     guidetolerance="10"
     inkscape:pageopacity="0"
     inkscape:pageshadow="2"
     inkscape:window-width="1377"
     inkscape:window-height="886"
     id="namedview75"
     showgrid="false"
     inkscape:zoom="6.2890624"
     inkscape:cx="4.7701864"
     inkscape:cy="12.004969"
     inkscape:window-x="0"
     inkscape:window-y="48"
     inkscape:window-maximized="0"
     inkscape:current-layer="g877"
     inkscape:document-rotation="0"
     inkscape:pagecheckerboard="0"
     inkscape:showpageshadow="2"
     inkscape:deskcolor="#d1d1d1" />
  <defs
     id="defs29">
    <linearGradient
       id="b"
       x1="399.57"
       x2="399.57"
       y1="545.8"
       y2="517.8"
       gradientTransform="matrix(2.1429,0,0,2.1429,-825.86391,-1107.6662)"
       gradientUnits="userSpaceOnUse">
      <stop
         stop-color="#3889e9"
         offset="0"
         id="stop2" />
      <stop
         stop-color="#5ea5fb"
         offset="1"
         id="stop4" />
    </linearGradient>
    <linearGradient
       id="d"
       x2="1"
       gradientTransform="matrix(14.905727,-4.7106182,4.7106182,14.905727,322.04962,998.26962)"
       gradientUnits="userSpaceOnUse">
      <stop
         stop-color="#fafafa"
         offset="0"
         id="stop7" />
      <stop
         stop-color="#aaa"
         offset="1"
         id="stop8" />
    </linearGradient>
    <linearGradient
       id="e"
       x2="1"
       gradientTransform="matrix(21.439909,0,0,21.439909,26.63554,1159.7788)"
       gradientUnits="userSpaceOnUse">
      <stop
         stop-color="#f0f0f0"
         offset="0"
         id="stop9" />
      <stop
         stop-color="#b7f1ff"
         offset="1"
         id="stop10" />
    </linearGradient>
    <linearGradient
       id="b-2"
       x2="1"
       gradientTransform="matrix(10.719636,14.238636,-14.238636,10.719636,-67.544643,95.73886)"
       gradientUnits="userSpaceOnUse">
      <stop
         stop-color="#3077e1"
         offset="0"
         id="stop3" />
      <stop
         stop-color="#5df"
         offset="1"
         id="stop4-7" />
    </linearGradient>
    <linearGradient
       id="c"
       x2="1"
       gradientTransform="matrix(-0.30023273,-19.715,19.715,-0.30023273,61.587812,32.183496)"
       gradientUnits="userSpaceOnUse">
      <stop
         stop-color="#da9517"
         offset="0"
         id="stop5" />
      <stop
         stop-color="#ffee58"
         offset="1"
         id="stop6" />
    </linearGradient>
    <linearGradient
       id="b-6"
       x2="1"
       gradientTransform="matrix(0.16241818,-27.272727,27.272727,0.16241818,360.55326,47.591315)"
       gradientUnits="userSpaceOnUse">
      <stop
         stop-color="#d3d3d3"
         offset="0"
         id="stop3-2" />
      <stop
         stop-color="#fff"
         offset="1"
         id="stop4-9" />
    </linearGradient>
    <linearGradient
       id="b-9"
       x2="1"
       gradientTransform="matrix(-0.52632398,39.337306,-39.337306,-0.52632398,-936.57243,-1.2657427)"
       gradientUnits="userSpaceOnUse">
      <stop
         stop-color="#fff"
         offset="0"
         id="stop3-3"
         style="stop-color:#dfdfdf;stop-opacity:1;" />
      <stop
         stop-color="#ececec"
         offset="1"
         id="stop4-6" />
    </linearGradient>
  </defs>
  <circle
     cx="32.516094"
     cy="31.877844"
     r="0"
     fill="url(#b)"
     stroke-width="1.5715"
     id="circle41"
     style="fill:url(#b)" />
  <g
     aria-label="GZ"
     transform="matrix(1.2212657,0,0,0.81882264,0.4960938,-0.1661539)"
     id="text93"
     style="font-weight:bold;font-size:11.5263px;line-height:1.25;font-family:sans-serif;-inkscape-font-specification:'sans-serif Bold';fill:#f2f2f2;stroke-width:0.288159" />
  <g
     id="g877"
     transform="matrix(1.1,0,0,1.1,-3.1845928,-3.2065454)">
    <rect
       x="6.3010068"
       y="5.4939413"
       width="51.635597"
       height="53.148327"
       rx="10.980581"
       ry="10.720582"
       fill="url(#linearGradient862)"
       stroke-width="3.0541"
       id="rect35-7-3"
       style="fill:#414141;fill-opacity:1;stroke:#dfdfdf;stroke-width:2.27272727;stroke-dasharray:none;stroke-opacity:1" />
    <path
       d="m 30.625361,34.377758 c -3.983682,-3.5937 -6.906558,-6.757485 -4.944664,-9.701657 2.877622,-4.321759 10.851643,-6.416753 9.089398,-13.356586 0,0 4.368343,4.368342 -4.142071,11.0859 -6.822706,5.389219 -1.555939,8.462498 -0.0026,11.972343 z m 0,0 h 0.391315 c -0.276848,-0.625568 -0.681472,-1.237828 -1.10473,-1.85142 0.352715,-0.0066 0.511104,-0.02928 0.713415,-0.02928 0.473837,0 0.497794,0.01332 1.637131,0.07187 0.216953,0.701437 0.09317,1.344311 -0.145076,1.874047 -0.756008,-0.03728 -0.62557,-0.06523 -1.492051,-0.06523 z m -2.626062,-1.828793 c 0.606935,0.598949 1.261788,1.155308 1.939266,1.828793 -5.339971,0.04925 -7.914125,0.79594 -8.887087,1.341648 0.972962,0.54571 4.248553,1.34165 9.573883,1.34165 5.325332,0 8.600923,-0.79594 9.573884,-1.34165 -0.757339,-0.424589 -2.371842,-0.994257 -5.791181,-1.229844 0.531069,-0.491139 1.039511,-1.079441 1.316359,-1.772892 2.88827,0.274188 5.578221,0.890441 6.37549,2.310618 0.592295,-0.264869 1.189913,-0.413943 1.750265,-0.413943 0.69212,0 1.309704,0.215622 1.786202,0.622908 1.481403,1.26445 1.17128,3.981021 -0.708092,6.183826 -1.466762,1.720983 -4.040916,1.905992 -5.080427,1.905992 -0.07587,0 -0.126445,-0.0013 -0.179685,-0.0026 -0.3993,0.501787 -0.842524,0.963644 -1.313697,1.393556 2.242734,0.598951 3.945084,1.557271 3.945084,3.043998 0,3.091914 -7.33381,3.915802 -11.666215,3.915802 -4.333736,0 -11.664884,-0.823888 -11.664884,-3.915802 0,-1.486727 1.699687,-2.445046 3.943753,-3.043998 -2.418428,-2.205466 -3.95307,-5.41717 -3.95307,-8.997559 0.0013,-2.503611 5.602179,-3.04799 9.040152,-3.170442 z m 15.850879,3.945084 c -0.421927,0 -1.010229,0.192995 -1.625151,0.602943 -0.169037,1.526657 -0.616253,2.9668 -1.289739,4.267186 0.850509,-0.121121 1.925957,-0.419265 2.562175,-1.164625 1.219196,-1.429494 1.49205,-3.043997 0.91972,-3.532473 -0.134434,-0.113135 -0.326094,-0.173031 -0.567005,-0.173031 z m -6.999729,9.79616 c 0.03993,0.117128 0.06788,0.240911 0.06788,0.375343 0,1.715659 -3.419336,2.076359 -6.284979,2.076359 -2.868305,0 -6.286313,-0.360701 -6.286313,-2.076359 0,-0.133101 0.02795,-0.256884 0.06788,-0.374012 -2.285327,0.480491 -3.46193,1.141997 -3.568411,1.49072 0.179686,0.544379 3.352789,2.015135 9.786843,2.015135 6.431392,0 9.608489,-1.470756 9.788174,-2.056396 -0.10648,-0.324764 -1.284414,-0.975623 -3.571072,-1.45079 z M 32.519375,31.416284 c -6.871954,-7.918119 7.517488,-11.511818 7.517488,-11.511818 -9.167928,5.316013 -7.474896,6.858641 -5.266768,9.961202 2.365188,3.3275 -2.783121,5.985508 -2.783121,5.985508 0,0 2.559514,-2.100318 0.532401,-4.434892 z"
       fill="url(#b)"
       id="path4"
       style="fill:url(#b-9);stroke-width:1.331" />
    <g
       id="g1"
       transform="matrix(1.21,0,0,1.21,2.0148825,-2.4743588)" />
  </g>
</svg>
