<?xml version="1.0" encoding="UTF-8" standalone="no"?>
<svg
   width="64"
   height="64"
   version="1.1"
   id="svg73"
   sodipodi:docname="audacious.svg"
   inkscape:version="1.4.2 (ebf0e940d0, 2025-05-08)"
   xmlns:inkscape="http://www.inkscape.org/namespaces/inkscape"
   xmlns:sodipodi="http://sodipodi.sourceforge.net/DTD/sodipodi-0.dtd"
   xmlns="http://www.w3.org/2000/svg"
   xmlns:svg="http://www.w3.org/2000/svg"
   xmlns:rdf="http://www.w3.org/1999/02/22-rdf-syntax-ns#"
   xmlns:cc="http://creativecommons.org/ns#"
   xmlns:dc="http://purl.org/dc/elements/1.1/">
  <metadata
     id="metadata77">
    <rdf:RDF>
      <cc:Work
         rdf:about="">
        <dc:format>image/svg+xml</dc:format>
        <dc:type
           rdf:resource="http://purl.org/dc/dcmitype/StillImage" />
      </cc:Work>
    </rdf:RDF>
  </metadata>
  <sodipodi:namedview
     pagecolor="#f5f7fa"
     bordercolor="#666666"
     borderopacity="1"
     objecttolerance="10"
     gridtolerance="10"
     guidetolerance="10"
     inkscape:pageopacity="0"
     inkscape:pageshadow="2"
     inkscape:window-width="1377"
     inkscape:window-height="886"
     id="namedview75"
     showgrid="false"
     inkscape:zoom="6.2890624"
     inkscape:cx="47.622361"
     inkscape:cy="45.396274"
     inkscape:window-x="0"
     inkscape:window-y="57"
     inkscape:window-maximized="0"
     inkscape:current-layer="g877"
     inkscape:document-rotation="0"
     inkscape:pagecheckerboard="0"
     inkscape:showpageshadow="2"
     inkscape:deskcolor="#d1d1d1" />
  <defs
     id="defs29" />
  <circle
     cx="32.516094"
     cy="31.877844"
     r="0"
     fill="url(#b)"
     stroke-width="1.5715"
     id="circle41"
     style="fill:url(#b)" />
  <g
     aria-label="GZ"
     transform="matrix(1.2212657,0,0,0.81882264,0.4960938,-0.1661539)"
     id="text93"
     style="font-weight:bold;font-size:11.5263px;line-height:1.25;font-family:sans-serif;-inkscape-font-specification:'sans-serif Bold';fill:#f2f2f2;stroke-width:0.288159" />
  <g
     id="g877"
     transform="matrix(1.1,0,0,1.1,-3.1845928,-3.2065454)">
    <rect
       x="8.3496294"
       y="8.369586"
       width="47.272728"
       height="47.272728"
       rx="9.8825235"
       ry="9.6485243"
       fill="url(#linearGradient862)"
       stroke-width="3.0541"
       id="rect35-7-3"
       style="fill:#414141;fill-opacity:1;stroke:#dfdfdf;stroke-width:2.04545;stroke-dasharray:none;stroke-opacity:1" />
    <path
       id="path5"
       style="fill:#dfdfdf;fill-opacity:1;stroke:none;stroke-width:0.496125;stroke-dasharray:none;stroke-opacity:0.6"
       d="m 44.26727,21.187271 c -0.624652,0.0037 -1.249154,0.172402 -1.795655,0.497303 -0.772516,0.45926 -1.43973,1.347307 -1.658627,2.206783 -0.116907,0.458962 -0.115611,1.287912 0.0016,1.746212 0.340256,1.33278 1.514162,2.423704 2.870802,2.667355 0.468943,0.08422 1.159818,0.0255 1.693937,-0.144101 1.784159,-0.56655 2.832009,-2.453074 2.369259,-4.262399 -0.308208,-1.20505 -1.188981,-2.147196 -2.372082,-2.537378 -0.35868,-0.118283 -0.734246,-0.176035 -1.109042,-0.173776 z m -24.606622,0.0056 c -0.367634,0.0065 -0.740782,0.06356 -1.065245,0.169557 -2.472643,0.807694 -3.294176,3.872401 -1.554071,5.795279 0.531199,0.586994 1.136114,0.931252 1.975085,1.124583 0.457448,0.105409 1.209465,0.06468 1.720782,-0.09324 1.052085,-0.324957 1.982744,-1.228173 2.343825,-2.273184 0.20086,-0.581312 0.20086,-1.722953 0,-2.304267 -0.366263,-1.060014 -1.291367,-1.947069 -2.383383,-2.285888 -0.306537,-0.09511 -0.66935,-0.139141 -1.036993,-0.132801 z m 4.217191,4.831754 c -0.01507,0 -0.02822,0.03608 -0.02822,0.07913 0,0.166666 -0.477665,1.054702 -0.741717,1.378885 l -0.276909,0.340486 1.034165,0.610326 c 0.569293,0.335513 1.251732,0.740196 1.515928,0.89995 0.264194,0.159755 0.484269,0.291436 0.488826,0.292448 0.0044,0.001 0.104832,-0.202796 0.223219,-0.452093 0.118377,-0.249277 0.354871,-0.654456 0.525548,-0.901345 0.170666,-0.246885 0.299731,-0.459091 0.286789,-0.471873 -0.04161,-0.04108 -2.999145,-1.775881 -3.027616,-1.775879 z m 16.220283,0 c -0.02557,0 -2.990204,1.736676 -3.03186,1.775882 -0.01276,0.01217 0.116103,0.224989 0.286793,0.471872 0.170708,0.24689 0.407017,0.653151 0.525565,0.902774 l 0.216121,0.453508 0.18789,-0.114433 c 0.103467,-0.063 0.728293,-0.431187 1.388784,-0.818018 0.66048,-0.386831 1.262351,-0.741806 1.336499,-0.788339 l 0.134192,-0.08334 -0.26842,-0.330593 c -0.250452,-0.307559 -0.751555,-1.240127 -0.751555,-1.398672 0,-0.03885 -0.01091,-0.07063 -0.02386,-0.07063 z m -8.112261,0.271269 c -1.131482,5.13e-4 -1.637595,0.109632 -2.521836,0.542512 -1.97404,0.96638 -3.212693,2.955495 -3.212694,5.160935 0,2.748834 1.904753,5.075349 4.624074,5.648347 0.519333,0.109478 2.001599,0.07547 2.476628,-0.05652 1.092585,-0.303629 1.943853,-0.789764 2.688544,-1.535684 0.749074,-0.750311 1.255238,-1.631084 1.535703,-2.674419 0.172378,-0.641268 0.162491,-2.166751 -0.01807,-2.826999 C 37.002063,28.524517 35.464515,26.98322 33.4467,26.431529 33.022353,26.315507 32.800299,26.295527 31.985873,26.2959 Z m -6.108921,8.074134 -0.187901,0.114433 c -0.103498,0.06299 -0.728285,0.431177 -1.388776,0.818009 -0.66049,0.386832 -1.262353,0.741807 -1.336503,0.788338 l -0.134215,0.08336 0.278317,0.341893 c 0.264372,0.324584 0.741718,1.212107 0.741718,1.378885 0,0.04306 0.01058,0.07914 0.024,0.07914 0.02526,0 2.990196,-1.736673 3.031854,-1.775879 0.01296,-0.01235 -0.116123,-0.22498 -0.286795,-0.471875 -0.170656,-0.246921 -0.406996,-0.653181 -0.525544,-0.902807 z m 12.217837,0 -0.216152,0.453505 c -0.118545,0.249627 -0.35724,0.659586 -0.531216,0.911249 -0.173963,0.251668 -0.289892,0.468983 -0.257148,0.481766 0.03274,0.01285 0.707799,0.410483 1.500387,0.884407 0.79259,0.473922 1.461491,0.864419 1.486264,0.867458 0.02523,0.003 0.04525,-0.02455 0.04525,-0.06076 0,-0.165014 0.485566,-1.078152 0.73889,-1.388778 l 0.281132,-0.344724 -0.134193,-0.08479 c -0.07419,-0.04715 -0.676038,-0.402907 -1.336528,-0.789726 -0.660495,-0.386821 -1.28527,-0.754236 -1.388781,-0.816595 z m 6.13859,1.274339 c -0.07341,5.1e-5 -0.144149,0.0036 -0.211892,0.01 -1.413444,0.131362 -2.6609,1.088662 -3.120862,2.396099 -0.183186,0.520757 -0.227677,1.496899 -0.09328,2.021708 0.358079,1.397654 1.49636,2.447816 2.931546,2.70267 0.459191,0.08152 1.151552,0.01636 1.667095,-0.1554 2.1078,-0.702927 3.069471,-3.112627 2.028771,-5.084643 -0.288545,-0.546753 -0.987141,-1.220726 -1.548414,-1.494722 -0.504122,-0.246112 -1.139055,-0.395955 -1.652968,-0.395581 z m -24.57413,0.0044 c -0.07203,7.96e-4 -0.144578,0.0043 -0.216158,0.01 -0.908203,0.07247 -1.627987,0.411533 -2.288723,1.079355 -0.487867,0.493098 -0.763993,0.978658 -0.931031,1.631773 -0.513174,2.006495 0.838124,4.057705 2.901877,4.402265 0.452216,0.07547 0.675829,0.07119 1.193812,-0.02149 0.734438,-0.130953 1.309558,-0.440883 1.884665,-1.017209 0.74506,-0.746644 1.045467,-1.474891 1.045467,-2.534556 0,-0.837342 -0.214102,-1.4623 -0.740305,-2.157338 -0.655662,-0.86573 -1.769248,-1.404151 -2.849604,-1.392713 z" />
  </g>
</svg>
