<?xml version="1.0" encoding="UTF-8" standalone="no"?>
<svg
   width="64"
   height="64"
   version="1.1"
   id="svg73"
   sodipodi:docname="distributor-logo.svg"
   inkscape:version="1.3.2 (091e20ef0f, 2023-11-25)"
   xmlns:inkscape="http://www.inkscape.org/namespaces/inkscape"
   xmlns:sodipodi="http://sodipodi.sourceforge.net/DTD/sodipodi-0.dtd"
   xmlns="http://www.w3.org/2000/svg"
   xmlns:svg="http://www.w3.org/2000/svg"
   xmlns:rdf="http://www.w3.org/1999/02/22-rdf-syntax-ns#"
   xmlns:cc="http://creativecommons.org/ns#"
   xmlns:dc="http://purl.org/dc/elements/1.1/">
  <metadata
     id="metadata77">
    <rdf:RDF>
      <cc:Work
         rdf:about="">
        <dc:format>image/svg+xml</dc:format>
        <dc:type
           rdf:resource="http://purl.org/dc/dcmitype/StillImage" />
      </cc:Work>
    </rdf:RDF>
  </metadata>
  <sodipodi:namedview
     pagecolor="#f5f7fa"
     bordercolor="#666666"
     borderopacity="1"
     objecttolerance="10"
     gridtolerance="10"
     guidetolerance="10"
     inkscape:pageopacity="0"
     inkscape:pageshadow="2"
     inkscape:window-width="1377"
     inkscape:window-height="886"
     id="namedview75"
     showgrid="false"
     inkscape:zoom="4.4470387"
     inkscape:cx="47.784608"
     inkscape:cy="14.054296"
     inkscape:window-x="351"
     inkscape:window-y="95"
     inkscape:window-maximized="0"
     inkscape:current-layer="g877"
     inkscape:document-rotation="0"
     inkscape:pagecheckerboard="0"
     inkscape:showpageshadow="2"
     inkscape:deskcolor="#d1d1d1" />
  <defs
     id="defs29">
    <linearGradient
       id="b"
       x1="399.57"
       x2="399.57"
       y1="545.8"
       y2="517.8"
       gradientTransform="matrix(2.1429,0,0,2.1429,-825.86391,-1107.6662)"
       gradientUnits="userSpaceOnUse">
      <stop
         stop-color="#3889e9"
         offset="0"
         id="stop2" />
      <stop
         stop-color="#5ea5fb"
         offset="1"
         id="stop4" />
    </linearGradient>
  </defs>
  <circle
     cx="32.516094"
     cy="31.877844"
     r="0"
     fill="url(#b)"
     stroke-width="1.5715"
     id="circle41"
     style="fill:url(#b)" />
  <g
     aria-label="GZ"
     transform="matrix(1.2212657,0,0,0.81882264,0.4960938,-0.1661539)"
     id="text93"
     style="font-weight:bold;font-size:11.5263px;line-height:1.25;font-family:sans-serif;-inkscape-font-specification:'sans-serif Bold';fill:#f2f2f2;stroke-width:0.288159" />
  <g
     id="g877"
     transform="matrix(1.1,0,0,1.1,-3.1845928,-3.2065454)">
    <rect
       x="6.3010068"
       y="5.4939413"
       width="51.635597"
       height="53.148327"
       rx="10.980581"
       ry="10.720582"
       fill="url(#linearGradient862)"
       stroke-width="3.0541"
       id="rect35-7-3"
       style="fill:#414141;fill-opacity:1;stroke:#dfdfdf;stroke-width:2.27272727;stroke-dasharray:none;stroke-opacity:1" />
    <g
       id="g2"
       style="fill:#dfdfdf;fill-opacity:1"
       transform="matrix(0.72900001,0,0,0.72900001,9.2056298,8.6788301)">
      <path
         style="fill:#dfdfdf;fill-rule:evenodd;fill-opacity:1"
         d="m 22,16 v 3 h 4 v -3 z m -4,6 v 3 h 8 v -3 z m -8,6 v 3 h 16 v -3 z m -4,6 v 3 h 20 v -3 z m 4,6 v 3 h 16 v -3 z m 8,6 v 3 h 8 v -3 z"
         id="path6" />
      <path
         style="fill:#dfdfdf;fill-opacity:1"
         d="m 39.555294,21.401844 c -0.736528,0.03972 -1.529608,0.687324 -1.527754,1.404914 L 38,43.993502 c 0,0.956862 1.408318,1.789478 2.213958,1.221036 l 15.17856,-10.62959 c 0.8109,-0.561416 0.80905,-1.878372 0,-2.442278 L 40.242112,21.585714 c -0.20223,-0.14086 -0.440704,-0.19698 -0.68632,-0.18386 z"
         id="path10" />
      <path
         id="path12"
         style="opacity:1;fill:#dfdfdf;stroke-width:0.150059;fill-opacity:1"
         d="m 32.035156,6.0117188 c -1.434671,0 -2.873653,0.00247 -3.96875,0.00781 l -3.982422,0.019531 3.958985,5.9374992 3.957031,5.9375 3.957031,-5.9375 3.958985,-5.9374992 -3.933594,-0.019531 c -1.081647,-0.00534 -2.512595,-0.00781 -3.947266,-0.00781 z M 33.988281,17.144531 33.03125,18.585938 C 32.50524,19.379285 32.04127,20.029205 32,20.029297 c -0.04127,9.2e-5 -0.475831,-0.607753 -0.966797,-1.349609 -0.490964,-0.741858 -0.905382,-1.347657 -0.919922,-1.347657 -0.01454,0 -0.02734,9.148936 -0.02734,20.332031 v 20.333985 h 1.951171 1.951172 V 37.570312 Z" />
    </g>
  </g>
</svg>
