<?xml version="1.0" encoding="UTF-8" standalone="no"?>
<svg
   width="64"
   height="64"
   version="1.1"
   id="svg73"
   sodipodi:docname="gnome-window-manager.svg"
   inkscape:version="1.4 (e7c3feb100, 2024-10-09)"
   xmlns:inkscape="http://www.inkscape.org/namespaces/inkscape"
   xmlns:sodipodi="http://sodipodi.sourceforge.net/DTD/sodipodi-0.dtd"
   xmlns="http://www.w3.org/2000/svg"
   xmlns:svg="http://www.w3.org/2000/svg"
   xmlns:rdf="http://www.w3.org/1999/02/22-rdf-syntax-ns#"
   xmlns:cc="http://creativecommons.org/ns#"
   xmlns:dc="http://purl.org/dc/elements/1.1/">
  <metadata
     id="metadata77">
    <rdf:RDF>
      <cc:Work
         rdf:about="">
        <dc:format>image/svg+xml</dc:format>
        <dc:type
           rdf:resource="http://purl.org/dc/dcmitype/StillImage" />
      </cc:Work>
    </rdf:RDF>
  </metadata>
  <sodipodi:namedview
     pagecolor="#f5f7fa"
     bordercolor="#666666"
     borderopacity="1"
     objecttolerance="10"
     gridtolerance="10"
     guidetolerance="10"
     inkscape:pageopacity="0"
     inkscape:pageshadow="2"
     inkscape:window-width="1183"
     inkscape:window-height="973"
     id="namedview75"
     showgrid="false"
     inkscape:zoom="4.4470387"
     inkscape:cx="26.646946"
     inkscape:cy="12.030478"
     inkscape:window-x="35"
     inkscape:window-y="32"
     inkscape:window-maximized="0"
     inkscape:current-layer="g877"
     inkscape:document-rotation="0"
     inkscape:pagecheckerboard="0"
     inkscape:showpageshadow="2"
     inkscape:deskcolor="#d1d1d1" />
  <defs
     id="defs29">
    <linearGradient
       id="b"
       x1="399.57"
       x2="399.57"
       y1="545.8"
       y2="517.8"
       gradientTransform="matrix(2.1429,0,0,2.1429,-825.86391,-1107.6662)"
       gradientUnits="userSpaceOnUse">
      <stop
         stop-color="#3889e9"
         offset="0"
         id="stop2" />
      <stop
         stop-color="#5ea5fb"
         offset="1"
         id="stop4" />
    </linearGradient>
    <linearGradient
       id="d"
       x2="1"
       gradientTransform="matrix(14.905727,-4.7106182,4.7106182,14.905727,322.04962,998.26962)"
       gradientUnits="userSpaceOnUse">
      <stop
         stop-color="#fafafa"
         offset="0"
         id="stop7" />
      <stop
         stop-color="#aaa"
         offset="1"
         id="stop8" />
    </linearGradient>
    <linearGradient
       id="e"
       x2="1"
       gradientTransform="matrix(21.439909,0,0,21.439909,26.63554,1159.7788)"
       gradientUnits="userSpaceOnUse">
      <stop
         stop-color="#f0f0f0"
         offset="0"
         id="stop9" />
      <stop
         stop-color="#b7f1ff"
         offset="1"
         id="stop10" />
    </linearGradient>
  </defs>
  <circle
     cx="32.516094"
     cy="31.877844"
     r="0"
     fill="url(#b)"
     stroke-width="1.5715"
     id="circle41"
     style="fill:url(#b)" />
  <g
     aria-label="GZ"
     transform="matrix(1.2212657,0,0,0.81882264,0.4960938,-0.1661539)"
     id="text93"
     style="font-weight:bold;font-size:11.5263px;line-height:1.25;font-family:sans-serif;-inkscape-font-specification:'sans-serif Bold';fill:#f2f2f2;stroke-width:0.288159" />
  <g
     id="g877"
     transform="matrix(1.1,0,0,1.1,-3.1845928,-3.2065454)">
    <rect
       x="6.3010068"
       y="5.4939413"
       width="51.635597"
       height="53.148327"
       rx="10.980581"
       ry="10.720582"
       fill="url(#linearGradient862)"
       stroke-width="3.0541"
       id="rect35-7-3"
       style="fill:#414141;fill-opacity:1;stroke:#dfdfdf;stroke-width:2.27272727;stroke-dasharray:none;stroke-opacity:1" />
    <path
       id="path2-2"
       style="fill:#dfdfdf;fill-opacity:1;stroke-width:0.196549"
       d="m 32.255173,12.082621 c -0.35219,0 -3.992121,1.114723 -8.089515,2.47672 -6.410377,2.130843 -7.49815,2.546318 -7.787016,2.987187 -0.292555,0.446456 -0.333713,1.094176 -0.3285,5.040878 0.0035,2.608491 0.114429,5.32204 0.262324,6.397403 1.632709,11.870242 6.370806,19.683053 14.177333,23.375215 0.702659,0.332346 1.434385,0.602551 1.625939,0.602637 1.030534,4.6e-4 4.883927,-2.241458 6.943326,-4.041208 4.414245,-3.857722 7.574453,-10.534567 8.831586,-18.65811 C 48.311303,27.545061 48.521603,18.805654 48.18604,17.99555 48.008445,17.56676 47.636323,17.253451 46.872076,16.891898 45.223861,16.112172 32.976569,12.082621 32.255173,12.082621 Z M 31.867584,22.6843 c 2.096441,-0.0512 4.27476,0.764019 5.199221,2.259298 0.555224,0.89805 0.60056,1.115113 0.666447,3.19043 l 0.07088,2.226211 h 0.645177 c 0.354706,0 0.853173,0.169029 1.108381,0.375762 0.462313,0.374463 0.465565,0.39201 0.465565,4.710022 0,3.897884 -0.03659,4.370871 -0.352145,4.686384 -0.321552,0.321641 -0.917228,0.352831 -7.172565,0.389921 -3.752781,0.02241 -7.01675,-0.0375 -7.252911,-0.134684 -0.767875,-0.316153 -0.848423,-0.790293 -0.848423,-5.010153 0,-4.039091 0.0011,-4.054129 0.482113,-4.535137 0.290679,-0.290697 0.710109,-0.482107 1.054023,-0.482107 h 0.569552 l 0.101618,-2.1435 c 0.118773,-2.505937 0.504647,-3.428851 1.866994,-4.466601 0.911083,-0.694004 2.138168,-1.035115 3.396038,-1.06584 z m 0.363945,2.412911 c -0.663452,-0.0047 -1.343185,0.141488 -1.937893,0.449021 -0.896537,0.463618 -1.179278,1.213891 -1.179278,3.133713 v 1.680293 h 3.164437 3.162072 l -0.06852,-1.855175 c -0.06401,-1.743012 -0.1022,-1.888915 -0.647541,-2.457813 -0.588797,-0.614217 -1.523606,-0.943165 -2.493259,-0.950039 z" />
  </g>
</svg>
