<?xml version="1.0" encoding="UTF-8" standalone="no"?>
<svg
   width="64"
   height="64"
   version="1.1"
   id="svg73"
   sodipodi:docname="Logo.svg"
   inkscape:version="1.3.2 (091e20ef0f, 2023-11-25)"
   xmlns:inkscape="http://www.inkscape.org/namespaces/inkscape"
   xmlns:sodipodi="http://sodipodi.sourceforge.net/DTD/sodipodi-0.dtd"
   xmlns="http://www.w3.org/2000/svg"
   xmlns:svg="http://www.w3.org/2000/svg"
   xmlns:rdf="http://www.w3.org/1999/02/22-rdf-syntax-ns#"
   xmlns:cc="http://creativecommons.org/ns#"
   xmlns:dc="http://purl.org/dc/elements/1.1/">
  <metadata
     id="metadata77">
    <rdf:RDF>
      <cc:Work
         rdf:about="">
        <dc:format>image/svg+xml</dc:format>
        <dc:type
           rdf:resource="http://purl.org/dc/dcmitype/StillImage" />
      </cc:Work>
    </rdf:RDF>
  </metadata>
  <sodipodi:namedview
     pagecolor="#f5f7fa"
     bordercolor="#666666"
     borderopacity="1"
     objecttolerance="10"
     gridtolerance="10"
     guidetolerance="10"
     inkscape:pageopacity="0"
     inkscape:pageshadow="2"
     inkscape:window-width="1377"
     inkscape:window-height="886"
     id="namedview75"
     showgrid="false"
     inkscape:zoom="6.2890624"
     inkscape:cx="27.667081"
     inkscape:cy="34.265839"
     inkscape:window-x="181"
     inkscape:window-y="77"
     inkscape:window-maximized="0"
     inkscape:current-layer="g877"
     inkscape:document-rotation="0"
     inkscape:pagecheckerboard="0"
     inkscape:showpageshadow="2"
     inkscape:deskcolor="#d1d1d1" />
  <defs
     id="defs29">
    <linearGradient
       id="b"
       x1="399.57"
       x2="399.57"
       y1="545.8"
       y2="517.8"
       gradientTransform="matrix(2.1429,0,0,2.1429,-825.86391,-1107.6662)"
       gradientUnits="userSpaceOnUse">
      <stop
         stop-color="#3889e9"
         offset="0"
         id="stop2" />
      <stop
         stop-color="#5ea5fb"
         offset="1"
         id="stop4" />
    </linearGradient>
    <linearGradient
       id="d"
       x2="1"
       gradientTransform="matrix(14.905727,-4.7106182,4.7106182,14.905727,322.04962,998.26962)"
       gradientUnits="userSpaceOnUse">
      <stop
         stop-color="#fafafa"
         offset="0"
         id="stop7" />
      <stop
         stop-color="#aaa"
         offset="1"
         id="stop8" />
    </linearGradient>
    <linearGradient
       id="e"
       x2="1"
       gradientTransform="matrix(21.439909,0,0,21.439909,26.63554,1159.7788)"
       gradientUnits="userSpaceOnUse">
      <stop
         stop-color="#f0f0f0"
         offset="0"
         id="stop9" />
      <stop
         stop-color="#b7f1ff"
         offset="1"
         id="stop10" />
    </linearGradient>
  </defs>
  <circle
     cx="32.516094"
     cy="31.877844"
     r="0"
     fill="url(#b)"
     stroke-width="1.5715"
     id="circle41"
     style="fill:url(#b)" />
  <g
     aria-label="GZ"
     transform="matrix(1.2212657,0,0,0.81882264,0.4960938,-0.1661539)"
     id="text93"
     style="font-weight:bold;font-size:11.5263px;line-height:1.25;font-family:sans-serif;-inkscape-font-specification:'sans-serif Bold';fill:#f2f2f2;stroke-width:0.288159" />
  <g
     id="g877"
     transform="matrix(1.1,0,0,1.1,-3.1845928,-3.2065454)">
    <rect
       x="6.3010068"
       y="5.4939413"
       width="51.635597"
       height="53.148327"
       rx="10.980581"
       ry="10.720582"
       fill="url(#linearGradient862)"
       stroke-width="3.0541"
       id="rect35-7-3"
       style="fill:#414141;fill-opacity:1;stroke:#dfdfdf;stroke-width:2.27272727;stroke-dasharray:none;stroke-opacity:1" />
    <path
       style="fill:#dfdfdf;fill-opacity:1;stroke:none;stroke-width:1.31769;stroke-dasharray:none;stroke-opacity:0.3"
       d="m 24.050728,10.907429 c -0.493296,0.287022 -0.616603,0.717536 -0.616603,1.219817 0,0.932819 0.493266,2.080796 0.739912,2.511312 0,0 0.971124,4.824368 1.094433,5.398454 -1.109902,0.07175 -2.481402,0.143511 -3.221197,0.287002 h -0.986559 c -2.096462,0.07176 -4.069615,0.143512 -4.932957,0.645796 l -0.369953,0.215257 0.369953,0.287026 c 0.616606,0.430516 0.863253,1.650355 1.109901,2.942021 0.616602,2.654885 1.356487,6.15409 5.056205,7.44564 l 0.739911,0.215254 v -0.502281 c 0,0 0.123557,-0.21526 0.123557,-0.502282 0,-0.215253 -0.123557,-0.574049 -0.246497,-1.076309 0.98656,0.07173 2.481401,0.215257 3.221195,0.215257 0.123225,0.574025 3.931139,23.96691 3.931139,23.96691 h 1.23321 c 0,0 1.807457,-23.104291 1.807457,-23.822149 0.863222,0 4.235247,0.07175 5.345086,0.14351 -0.246496,0.430536 -1.233176,2.22437 -1.233176,2.22437 l 1.72647,-0.93282 c 0.493289,-0.215261 11.222244,-6.082304 9.742355,-9.813575 -0.493294,-1.21982 -2.219768,-2.080793 -5.056205,-2.511307 h -0.247074 c -1.603161,0 -6.085179,0.07173 -9.784749,0.215255 0.12353,-1.865613 0.12353,-2.671788 0.12353,-3.174087 v -0.645774 c 0,-0.35877 0.1657,-0.861053 0.658991,-1.219822 0.493298,-0.430517 1.1099,-0.789306 1.1099,-1.219823 0,-0.143511 -0.123558,-0.28702 -0.246495,-0.430515 -0.739915,-0.645793 -7.368803,-2.296151 -9.711732,-2.439723 -0.739911,0.07175 -1.233207,0.14351 -1.479858,0.358772 z m 0.724683,11.569243 h 0.616609 c 0,0.645796 0.369953,5.364846 0.493268,6.010519 -0.986563,-0.07177 -2.727902,-0.215258 -3.467999,-0.215258 -0.369956,-0.932817 -0.493295,-1.937383 -0.616602,-2.942025 -0.123251,-0.861052 -0.246499,-1.920555 -0.493296,-2.709759 1.109898,0 3.467996,-0.143513 3.467996,-0.143513 z m 8.575217,2.42282 c 0,0 0.12325,-1.920554 0.12325,-2.494601 1.603134,0.14351 3.248657,0.215255 5.22184,0.215255 h 2.21977 c 0,0.287023 -0.123556,0.645795 -0.123556,0.645795 -0.246528,1.578592 -0.616606,3.642577 -1.726507,5.508213 -0.739884,0 -4.851791,-0.143511 -5.838382,-0.215253 0,-0.502283 0.123556,-3.659485 0.123556,-3.659485 z"
       id="path10" />
  </g>
</svg>
