<?xml version="1.0" encoding="UTF-8" standalone="no"?>
<svg
   width="64"
   height="64"
   version="1.1"
   id="svg73"
   sodipodi:docname="info.svg"
   inkscape:version="1.3.2 (091e20ef0f, 2023-11-25)"
   xmlns:inkscape="http://www.inkscape.org/namespaces/inkscape"
   xmlns:sodipodi="http://sodipodi.sourceforge.net/DTD/sodipodi-0.dtd"
   xmlns="http://www.w3.org/2000/svg"
   xmlns:svg="http://www.w3.org/2000/svg"
   xmlns:rdf="http://www.w3.org/1999/02/22-rdf-syntax-ns#"
   xmlns:cc="http://creativecommons.org/ns#"
   xmlns:dc="http://purl.org/dc/elements/1.1/">
  <metadata
     id="metadata77">
    <rdf:RDF>
      <cc:Work
         rdf:about="">
        <dc:format>image/svg+xml</dc:format>
        <dc:type
           rdf:resource="http://purl.org/dc/dcmitype/StillImage" />
      </cc:Work>
    </rdf:RDF>
  </metadata>
  <sodipodi:namedview
     pagecolor="#f5f7fa"
     bordercolor="#666666"
     borderopacity="1"
     objecttolerance="10"
     gridtolerance="10"
     guidetolerance="10"
     inkscape:pageopacity="0"
     inkscape:pageshadow="2"
     inkscape:window-width="1377"
     inkscape:window-height="886"
     id="namedview75"
     showgrid="false"
     inkscape:zoom="4.4470387"
     inkscape:cx="47.784608"
     inkscape:cy="14.054296"
     inkscape:window-x="181"
     inkscape:window-y="77"
     inkscape:window-maximized="0"
     inkscape:current-layer="g877"
     inkscape:document-rotation="0"
     inkscape:pagecheckerboard="0"
     inkscape:showpageshadow="2"
     inkscape:deskcolor="#d1d1d1" />
  <defs
     id="defs29">
    <linearGradient
       id="b"
       x1="399.57"
       x2="399.57"
       y1="545.8"
       y2="517.8"
       gradientTransform="matrix(2.1429,0,0,2.1429,-825.86391,-1107.6662)"
       gradientUnits="userSpaceOnUse">
      <stop
         stop-color="#3889e9"
         offset="0"
         id="stop2" />
      <stop
         stop-color="#5ea5fb"
         offset="1"
         id="stop4" />
    </linearGradient>
    <linearGradient
       id="d"
       x2="1"
       gradientTransform="matrix(14.905727,-4.7106182,4.7106182,14.905727,322.04962,998.26962)"
       gradientUnits="userSpaceOnUse">
      <stop
         stop-color="#fafafa"
         offset="0"
         id="stop7" />
      <stop
         stop-color="#aaa"
         offset="1"
         id="stop8" />
    </linearGradient>
    <linearGradient
       id="e"
       x2="1"
       gradientTransform="matrix(21.439909,0,0,21.439909,26.63554,1159.7788)"
       gradientUnits="userSpaceOnUse">
      <stop
         stop-color="#f0f0f0"
         offset="0"
         id="stop9" />
      <stop
         stop-color="#b7f1ff"
         offset="1"
         id="stop10" />
    </linearGradient>
  </defs>
  <circle
     cx="32.516094"
     cy="31.877844"
     r="0"
     fill="url(#b)"
     stroke-width="1.5715"
     id="circle41"
     style="fill:url(#b)" />
  <g
     aria-label="GZ"
     transform="matrix(1.2212657,0,0,0.81882264,0.4960938,-0.1661539)"
     id="text93"
     style="font-weight:bold;font-size:11.5263px;line-height:1.25;font-family:sans-serif;-inkscape-font-specification:'sans-serif Bold';fill:#f2f2f2;stroke-width:0.288159" />
  <g
     id="g877"
     transform="matrix(1.1,0,0,1.1,-3.1845928,-3.2065454)">
    <rect
       x="6.3010068"
       y="5.4939413"
       width="51.635597"
       height="53.148327"
       rx="10.980581"
       ry="10.720582"
       fill="url(#linearGradient862)"
       stroke-width="3.0541"
       id="rect35-7-3"
       style="fill:#414141;fill-opacity:1;stroke:#dfdfdf;stroke-width:2.27272727;stroke-dasharray:none;stroke-opacity:1" />
    <path
       style="fill:#dfdfdf;fill-opacity:1;stroke:none;stroke-width:1.1979;stroke-dasharray:none;stroke-dashoffset:2.2;stroke-opacity:0.3"
       d="m 22.6145,47.982481 -1.685703,-2.132302 -1.616476,-5.19e-4 c -1.918746,-6.07e-4 -2.395452,-0.191356 -2.647702,-1.059235 -0.107712,-0.370552 -0.139902,-4.738599 -0.110702,-15.014569 l 0.0412,-14.49203 0.513946,-0.470968 0.513945,-0.470968 h 14.524685 c 15.948428,0 15.092669,-0.04523 15.540625,0.821042 0.182767,0.353359 0.20871,2.228698 0.20871,15.06169 v 14.658076 l -0.401497,0.449361 -0.401454,0.44932 -9.637677,0.037 -9.637688,0.037 -1.68084,2.129936 c -0.924448,1.171544 -1.716128,2.129849 -1.759275,2.129653 -0.04302,-1.95e-4 -0.837017,-0.959898 -1.764157,-2.132654 z m 1.213184,-7.228001 c 0.239962,-0.128468 0.266134,-0.30159 0.266134,-1.761164 0,-1.075557 -0.05542,-1.674133 -0.165122,-1.783837 -0.227693,-0.227698 -3.294631,-0.227698 -3.522322,0 -0.10879,0.108812 -0.165122,0.691883 -0.165122,1.710052 0,2.002145 -0.02354,1.977379 1.87635,1.977379 0.794158,0 1.563684,-0.06415 1.710061,-0.142439 z M 43.315456,40.6273 c 1.019762,-0.621781 1.215456,-2.105544 0.395717,-3.000193 l -0.470926,-0.513942 -7.027562,-0.03804 c -6.175989,-0.03342 -7.07835,-0.01174 -7.446642,0.178667 -1.288474,0.666296 -1.274538,2.768847 0.02262,3.407857 0.414407,0.204134 1.203984,0.229247 7.275598,0.231658 6.515322,0.0025 6.829859,-0.0092 7.251235,-0.265918 z M 23.788023,31.876913 c 0.28483,-0.199492 0.305793,-0.319131 0.305793,-1.743448 0,-2.037421 0.0045,-2.032497 -1.902365,-2.032497 -1.958653,0 -1.950182,-0.0087 -1.950182,2.008589 0,1.95896 0.02221,1.981544 1.926272,1.981544 0.9672,0 1.395506,-0.05661 1.620477,-0.214189 z m 19.356088,-0.05808 c 0.700093,-0.338908 1.060903,-0.927654 1.060903,-1.731103 0,-0.767951 -0.356471,-1.394954 -0.983922,-1.730425 -0.448684,-0.239909 -0.905471,-0.256343 -7.124745,-0.256343 -7.167922,0 -7.184376,0.0015 -7.860168,0.734526 -0.421699,0.45741 -0.548698,1.521223 -0.250422,2.098021 0.271023,0.524102 0.662539,0.870111 1.149745,1.016113 0.216239,0.06481 3.330095,0.123143 6.919683,0.129648 6.235179,0.01125 6.551628,-3.28e-4 7.08893,-0.260429 z M 23.928708,22.982592 c 0.227692,-0.227697 0.227692,-3.294629 0,-3.522323 -0.227693,-0.227698 -3.294631,-0.227698 -3.522322,0 -0.227693,0.227697 -0.227693,3.294627 0,3.522323 0.227692,0.227697 3.29463,0.227697 3.522322,0 z m 19.286223,-0.0392 c 1.341633,-0.693786 1.341633,-2.750135 0,-3.443921 -0.604228,-0.312462 -13.850286,-0.304437 -14.455937,0.0087 -1.227633,0.634833 -1.277422,2.641947 -0.08358,3.369864 0.421292,0.256875 0.739265,0.268608 7.292467,0.269095 5.791308,4.35e-4 6.913135,-0.03114 7.24707,-0.203796 z"
       id="path79" />
  </g>
</svg>
