<?xml version="1.0" encoding="UTF-8" standalone="no"?>
<svg
   width="64"
   height="64"
   version="1.1"
   id="svg73"
   sodipodi:docname="audacious.svg"
   inkscape:version="1.4.2 (ebf0e940d0, 2025-05-08)"
   xmlns:inkscape="http://www.inkscape.org/namespaces/inkscape"
   xmlns:sodipodi="http://sodipodi.sourceforge.net/DTD/sodipodi-0.dtd"
   xmlns="http://www.w3.org/2000/svg"
   xmlns:svg="http://www.w3.org/2000/svg"
   xmlns:rdf="http://www.w3.org/1999/02/22-rdf-syntax-ns#"
   xmlns:cc="http://creativecommons.org/ns#"
   xmlns:dc="http://purl.org/dc/elements/1.1/">
  <metadata
     id="metadata77">
    <rdf:RDF>
      <cc:Work
         rdf:about="">
        <dc:format>image/svg+xml</dc:format>
        <dc:type
           rdf:resource="http://purl.org/dc/dcmitype/StillImage" />
      </cc:Work>
    </rdf:RDF>
  </metadata>
  <sodipodi:namedview
     pagecolor="#f5f7fa"
     bordercolor="#666666"
     borderopacity="1"
     objecttolerance="10"
     gridtolerance="10"
     guidetolerance="10"
     inkscape:pageopacity="0"
     inkscape:pageshadow="2"
     inkscape:window-width="1377"
     inkscape:window-height="886"
     id="namedview75"
     showgrid="false"
     inkscape:zoom="6.2890624"
     inkscape:cx="47.622361"
     inkscape:cy="45.396274"
     inkscape:window-x="28"
     inkscape:window-y="56"
     inkscape:window-maximized="0"
     inkscape:current-layer="g877"
     inkscape:document-rotation="0"
     inkscape:pagecheckerboard="0"
     inkscape:showpageshadow="2"
     inkscape:deskcolor="#d1d1d1" />
  <defs
     id="defs29" />
  <circle
     cx="32.516094"
     cy="31.877844"
     r="0"
     fill="url(#b)"
     stroke-width="1.5715"
     id="circle41"
     style="fill:url(#b)" />
  <g
     aria-label="GZ"
     transform="matrix(1.2212657,0,0,0.81882264,0.4960938,-0.1661539)"
     id="text93"
     style="font-weight:bold;font-size:11.5263px;line-height:1.25;font-family:sans-serif;-inkscape-font-specification:'sans-serif Bold';fill:#f2f2f2;stroke-width:0.288159" />
  <g
     id="g877"
     transform="matrix(1.1,0,0,1.1,-3.1845928,-3.2065454)">
    <rect
       x="8.3496294"
       y="8.369586"
       width="47.272728"
       height="47.272728"
       rx="9.8825235"
       ry="9.6485243"
       fill="url(#linearGradient862)"
       stroke-width="3.0541"
       id="rect35-7-3"
       style="fill:#414141;fill-opacity:1;stroke:#dfdfdf;stroke-width:2.04545;stroke-dasharray:none;stroke-opacity:1" />
    <path
       style="fill:#dfdfdf;stroke:none;stroke-width:0.472883;stroke-dasharray:none;stroke-dashoffset:2.2;stroke-opacity:0.6;fill-opacity:1"
       d="m 23.87718,45.304831 -1.422992,-1.799984 -1.364553,-4.39e-4 c -1.619718,-5.16e-4 -2.02213,-0.161539 -2.235067,-0.894153 -0.09093,-0.312818 -0.118099,-4.000106 -0.09345,-12.674608 l 0.03479,-12.233497 0.43385,-0.397569 0.433846,-0.39757 h 12.261068 c 13.462916,0 12.740524,-0.03819 13.118668,0.693087 0.154272,0.298289 0.176135,1.881363 0.176135,12.714376 v 12.373673 l -0.338932,0.379321 -0.338937,0.379291 -8.13567,0.03151 -8.13569,0.03151 -1.418888,1.79798 c -0.780376,0.988675 -1.448674,1.79763 -1.485098,1.79747 -0.03629,-1.68e-4 -0.70657,-0.810299 -1.489219,-1.800289 z m 1.024114,-6.101538 c 0.202561,-0.108387 0.224658,-0.254625 0.224658,-1.486694 0,-0.907937 -0.04677,-1.413229 -0.13938,-1.505833 -0.192209,-0.192209 -2.781175,-0.192209 -2.973379,0 -0.09184,0.09189 -0.139384,0.584058 -0.139384,1.443547 0,1.690116 -0.01985,1.66921 1.583927,1.66921 0.670392,0 1.319988,-0.05414 1.443554,-0.120239 z m 16.450672,-0.107284 c 0.860824,-0.524888 1.02603,-1.777407 0.334045,-2.532628 l -0.397542,-0.433864 -5.932333,-0.03211 c -5.21348,-0.0282 -5.975211,-0.01 -6.286109,0.150822 -1.087669,0.562459 -1.075904,2.337344 0.01915,2.876757 0.349827,0.172388 1.016349,0.193547 6.14172,0.195529 5.499926,0.0023 5.765442,-0.0075 6.121154,-0.224545 z M 24.867813,31.709261 c 0.240437,-0.168398 0.258137,-0.26939 0.258137,-1.471738 0,-1.719895 0.004,-1.715739 -1.605889,-1.715739 -1.653404,0 -1.646254,-0.0072 -1.646254,1.695559 0,1.653659 0.01875,1.672726 1.626069,1.672726 0.816467,0 1.178023,-0.04781 1.367937,-0.180808 z m 16.339509,-0.04903 c 0.590974,-0.286084 0.895573,-0.783081 0.895573,-1.461315 0,-0.64827 -0.300967,-1.177555 -0.830594,-1.460744 -0.378769,-0.202524 -0.764356,-0.216396 -6.014374,-0.216396 -6.050826,0 -6.064715,0.0016 -6.635187,0.62005 -0.355979,0.386127 -0.463183,1.284149 -0.211392,1.771056 0.228784,0.442419 0.559285,0.734506 0.970561,0.857752 0.182536,0.05471 2.811113,0.10396 5.841275,0.109445 5.263442,0.0095 5.53057,-2.78e-4 5.984138,-0.219841 z M 24.986574,24.201094 c 0.192208,-0.19221 0.192208,-2.781172 0,-2.973382 -0.192211,-0.192211 -2.781173,-0.192211 -2.973381,0 -0.19221,0.192214 -0.19221,2.781172 0,2.973382 0.192208,0.192212 2.781172,0.192212 2.973381,0 z m 16.280528,-0.03312 c 1.132541,-0.585661 1.132541,-2.321536 0,-2.907199 -0.510063,-0.263768 -11.691765,-0.256989 -12.203028,0.0074 -1.03631,0.535895 -1.07834,2.230209 -0.07055,2.844681 0.35564,0.216841 0.624056,0.226739 6.155964,0.227156 4.888744,3.68e-4 5.83574,-0.0262 6.11763,-0.172034 z"
       id="path79" />
  </g>
</svg>
