<?xml version="1.0" encoding="UTF-8" standalone="no"?>
<svg
   width="64"
   height="64"
   version="1.1"
   id="svg73"
   sodipodi:docname="Logo.svg"
   inkscape:version="1.3.2 (091e20ef0f, 2023-11-25)"
   xmlns:inkscape="http://www.inkscape.org/namespaces/inkscape"
   xmlns:sodipodi="http://sodipodi.sourceforge.net/DTD/sodipodi-0.dtd"
   xmlns="http://www.w3.org/2000/svg"
   xmlns:svg="http://www.w3.org/2000/svg"
   xmlns:rdf="http://www.w3.org/1999/02/22-rdf-syntax-ns#"
   xmlns:cc="http://creativecommons.org/ns#"
   xmlns:dc="http://purl.org/dc/elements/1.1/">
  <metadata
     id="metadata77">
    <rdf:RDF>
      <cc:Work
         rdf:about="">
        <dc:format>image/svg+xml</dc:format>
        <dc:type
           rdf:resource="http://purl.org/dc/dcmitype/StillImage" />
      </cc:Work>
    </rdf:RDF>
  </metadata>
  <sodipodi:namedview
     pagecolor="#f5f7fa"
     bordercolor="#666666"
     borderopacity="1"
     objecttolerance="10"
     gridtolerance="10"
     guidetolerance="10"
     inkscape:pageopacity="0"
     inkscape:pageshadow="2"
     inkscape:window-width="1377"
     inkscape:window-height="886"
     id="namedview75"
     showgrid="false"
     inkscape:zoom="6.2890624"
     inkscape:cx="27.667081"
     inkscape:cy="34.265839"
     inkscape:window-x="181"
     inkscape:window-y="77"
     inkscape:window-maximized="0"
     inkscape:current-layer="g877"
     inkscape:document-rotation="0"
     inkscape:pagecheckerboard="0"
     inkscape:showpageshadow="2"
     inkscape:deskcolor="#d1d1d1" />
  <defs
     id="defs29">
    <linearGradient
       id="b"
       x1="399.57"
       x2="399.57"
       y1="545.8"
       y2="517.8"
       gradientTransform="matrix(2.1429,0,0,2.1429,-825.86391,-1107.6662)"
       gradientUnits="userSpaceOnUse">
      <stop
         stop-color="#3889e9"
         offset="0"
         id="stop2" />
      <stop
         stop-color="#5ea5fb"
         offset="1"
         id="stop4" />
    </linearGradient>
    <linearGradient
       id="d"
       x2="1"
       gradientTransform="matrix(14.905727,-4.7106182,4.7106182,14.905727,322.04962,998.26962)"
       gradientUnits="userSpaceOnUse">
      <stop
         stop-color="#fafafa"
         offset="0"
         id="stop7" />
      <stop
         stop-color="#aaa"
         offset="1"
         id="stop8" />
    </linearGradient>
    <linearGradient
       id="e"
       x2="1"
       gradientTransform="matrix(21.439909,0,0,21.439909,26.63554,1159.7788)"
       gradientUnits="userSpaceOnUse">
      <stop
         stop-color="#f0f0f0"
         offset="0"
         id="stop9" />
      <stop
         stop-color="#b7f1ff"
         offset="1"
         id="stop10" />
    </linearGradient>
    <linearGradient
       id="a"
       x1="23.932795"
       x2="8.7911654"
       y1="46.115501"
       y2="7.6056881"
       gradientUnits="userSpaceOnUse">
      <stop
         stop-color="#333"
         offset="0"
         id="stop1" />
      <stop
         stop-color="#4d4d4d"
         offset="1"
         id="stop2-3" />
    </linearGradient>
  </defs>
  <circle
     cx="32.516094"
     cy="31.877844"
     r="0"
     fill="url(#b)"
     stroke-width="1.5715"
     id="circle41"
     style="fill:url(#b)" />
  <g
     aria-label="GZ"
     transform="matrix(1.2212657,0,0,0.81882264,0.4960938,-0.1661539)"
     id="text93"
     style="font-weight:bold;font-size:11.5263px;line-height:1.25;font-family:sans-serif;-inkscape-font-specification:'sans-serif Bold';fill:#f2f2f2;stroke-width:0.288159" />
  <g
     id="g877"
     transform="matrix(1.1,0,0,1.1,-3.1845928,-3.2065454)">
    <rect
       x="6.3010068"
       y="5.4939413"
       width="51.635597"
       height="53.148327"
       rx="10.980581"
       ry="10.720582"
       fill="url(#linearGradient862)"
       stroke-width="3.0541"
       id="rect35-7-3"
       style="fill:#414141;fill-opacity:1;stroke:#dfdfdf;stroke-width:2.27272727;stroke-dasharray:none;stroke-opacity:1" />
    <path
       style="fill:#dfdfdf;stroke-width:0.155024;fill-opacity:1"
       d="m 17.189315,50.091453 c -0.246657,-0.08795 -0.424545,-0.250636 -0.567353,-0.518883 -0.201569,-0.378622 -0.16131,-0.718761 0.422024,-3.565551 0.291187,-1.421052 0.575765,-2.772972 0.632395,-3.004266 l 0.102965,-0.420535 -0.818036,-0.819657 c -0.928104,-0.929945 -1.436358,-1.54555 -2.105373,-2.550066 -1.164136,-1.747932 -1.906484,-3.66867 -2.22712,-5.762414 -0.128054,-0.836193 -0.130872,-2.842835 -0.0051,-3.658832 0.487121,-3.161338 1.885456,-5.890052 4.23652,-8.267155 3.888032,-3.931092 9.729576,-6.128298 15.849326,-5.96148 3.458288,0.09427 6.555933,0.834288 9.455241,2.258829 7.298323,3.585943 10.935521,10.526349 9.074277,17.315296 -0.25391,0.926147 -0.494021,1.550848 -0.960512,2.498988 -1.958133,3.979889 -5.885973,7.203796 -10.758689,8.830556 -1.473729,0.492006 -3.097328,0.848028 -4.784705,1.049185 -0.95915,0.114344 -4.036799,0.13041 -4.996904,0.02608 -1.424251,-0.154759 -2.857232,-0.430477 -4.122979,-0.793299 l -0.712453,-0.20422 -3.259027,1.695128 c -1.792464,0.932323 -3.401908,1.746835 -3.576542,1.810029 -0.364167,0.131779 -0.595606,0.142921 -0.877917,0.04226 z M 32.400003,39.974005 c 0.09396,-0.06395 0.219478,-0.181917 0.278933,-0.262155 l 0.108101,-0.145887 0.01526,-7.140238 c 0.0106,-4.960378 -0.0016,-7.198568 -0.04001,-7.331303 -0.113643,-0.392784 -0.550777,-0.654138 -0.970749,-0.580395 -0.16926,0.02973 -0.466477,0.3063 -2.415023,2.247339 l -2.22201,2.213448 -1.812501,0.01562 -1.812501,0.01562 -0.187138,0.128298 c -0.102926,0.07057 -0.235487,0.214325 -0.294581,0.319469 -0.105548,0.187797 -0.10719,0.238988 -0.09318,2.903839 0.01391,2.64776 0.0168,2.716085 0.120801,2.85533 0.0586,0.07846 0.170721,0.190603 0.249162,0.249201 0.1368,0.102194 0.216808,0.107125 1.960444,0.120836 l 1.817823,0.01429 2.170335,2.166647 c 1.193684,1.191657 2.240095,2.202425 2.325359,2.246154 0.232293,0.119135 0.597548,0.102673 0.801483,-0.03613 z m 5.00243,-1.808202 c 1.47578,-0.715932 2.706624,-2.148181 3.253247,-3.785578 0.416682,-1.248163 0.430977,-2.801342 0.03725,-4.047696 -0.538126,-1.70347 -1.729078,-3.113794 -3.2886,-3.89436 -0.531415,-0.265982 -0.783513,-0.299891 -1.097936,-0.147681 -0.370365,0.17929 -0.554425,0.577064 -0.448701,0.969693 0.07145,0.26535 0.238224,0.414489 0.849289,0.759492 0.674784,0.380978 1.115679,0.742959 1.512898,1.242114 1.3823,1.73703 1.440039,4.085606 0.145059,5.900389 -0.320893,0.4497 -0.980688,1.043331 -1.4534,1.307653 -0.222163,0.124225 -0.504218,0.282244 -0.626788,0.351153 -0.419908,0.236073 -0.56767,0.67732 -0.36327,1.084796 0.136842,0.2728 0.311467,0.419825 0.566634,0.477079 0.256647,0.05758 0.435909,0.01503 0.914314,-0.217054 z m -1.52931,-2.899719 c 1.150134,-0.513565 1.912583,-1.834204 1.829789,-3.169381 -0.05233,-0.84412 -0.375945,-1.555924 -0.98438,-2.165265 -0.794686,-0.795871 -1.628514,-0.932745 -2.032276,-0.3336 -0.08375,0.124287 -0.116444,0.24828 -0.116444,0.441717 0,0.353872 0.134437,0.550206 0.592716,0.86561 0.671567,0.462195 0.806245,0.667456 0.843144,1.285021 0.03989,0.667575 -0.144299,1.026795 -0.736326,1.436064 -0.206835,0.142984 -0.448845,0.342865 -0.537798,0.444178 -0.140983,0.160569 -0.161692,0.222103 -0.161396,0.479538 4.04e-4,0.350081 0.106851,0.542532 0.397347,0.718388 0.255247,0.154517 0.556187,0.153763 0.905624,-0.0023 z"
       id="path6" />
  </g>
</svg>
