<?xml version="1.0" encoding="UTF-8" standalone="no"?>
<svg
   width="64"
   height="64"
   version="1.1"
   id="svg73"
   sodipodi:docname="audacious.svg"
   inkscape:version="1.4.2 (ebf0e940d0, 2025-05-08)"
   xmlns:inkscape="http://www.inkscape.org/namespaces/inkscape"
   xmlns:sodipodi="http://sodipodi.sourceforge.net/DTD/sodipodi-0.dtd"
   xmlns="http://www.w3.org/2000/svg"
   xmlns:svg="http://www.w3.org/2000/svg"
   xmlns:rdf="http://www.w3.org/1999/02/22-rdf-syntax-ns#"
   xmlns:cc="http://creativecommons.org/ns#"
   xmlns:dc="http://purl.org/dc/elements/1.1/">
  <metadata
     id="metadata77">
    <rdf:RDF>
      <cc:Work
         rdf:about="">
        <dc:format>image/svg+xml</dc:format>
        <dc:type
           rdf:resource="http://purl.org/dc/dcmitype/StillImage" />
      </cc:Work>
    </rdf:RDF>
  </metadata>
  <sodipodi:namedview
     pagecolor="#f5f7fa"
     bordercolor="#666666"
     borderopacity="1"
     objecttolerance="10"
     gridtolerance="10"
     guidetolerance="10"
     inkscape:pageopacity="0"
     inkscape:pageshadow="2"
     inkscape:window-width="1377"
     inkscape:window-height="886"
     id="namedview75"
     showgrid="false"
     inkscape:zoom="6.2890624"
     inkscape:cx="46.82733"
     inkscape:cy="42.21615"
     inkscape:window-x="226"
     inkscape:window-y="192"
     inkscape:window-maximized="0"
     inkscape:current-layer="g877"
     inkscape:document-rotation="0"
     inkscape:pagecheckerboard="0"
     inkscape:showpageshadow="2"
     inkscape:deskcolor="#d1d1d1" />
  <defs
     id="defs29" />
  <circle
     cx="32.516094"
     cy="31.877844"
     r="0"
     fill="url(#b)"
     stroke-width="1.5715"
     id="circle41"
     style="fill:url(#b)" />
  <g
     aria-label="GZ"
     transform="matrix(1.2212657,0,0,0.81882264,0.4960938,-0.1661539)"
     id="text93"
     style="font-weight:bold;font-size:11.5263px;line-height:1.25;font-family:sans-serif;-inkscape-font-specification:'sans-serif Bold';fill:#f2f2f2;stroke-width:0.288159" />
  <g
     id="g877"
     transform="matrix(1.1,0,0,1.1,-3.1845928,-3.2065454)">
    <rect
       x="8.3496294"
       y="8.369586"
       width="47.272728"
       height="47.272728"
       rx="9.8825235"
       ry="9.6485243"
       fill="url(#linearGradient862)"
       stroke-width="3.0541"
       id="rect35-7-3"
       style="fill:#414141;fill-opacity:1;stroke:#dfdfdf;stroke-width:2.04545;stroke-dasharray:none;stroke-opacity:1" />
    <path
       style="fill:#dfdfdf;stroke-width:0.179124"
       d="m 30.674352,47.407742 c -0.09852,-0.01335 -0.420942,-0.05375 -0.716499,-0.08979 -5.243663,-0.639559 -9.890406,-4.083812 -12.060552,-8.939508 -0.569592,-1.274463 -0.963789,-2.633177 -1.206474,-4.15847 -0.148948,-0.936143 -0.148948,-3.488499 0,-4.42464 0.541035,-3.400445 1.899556,-6.178006 4.179427,-8.545049 2.361011,-2.451285 5.3473,-3.973625 8.905358,-4.539737 0.936142,-0.148948 3.488498,-0.148948 4.42464,0 3.908082,0.621804 7.081798,2.368779 9.566934,5.266129 1.852698,2.160004 3.02787,4.763248 3.508768,7.772628 0.14972,0.936918 0.180042,2.926028 0.06037,3.960031 -0.423973,3.66316 -2.001349,6.913039 -4.55074,9.375924 -2.377267,2.296603 -5.157597,3.669049 -8.528737,4.210015 -0.56647,0.09091 -3.144208,0.171832 -3.582491,0.112476 z m -2.895847,-9.041175 v -4.896072 h 0.403165 0.403168 l 4.895799,4.896072 c 2.692689,2.692839 4.923035,4.896071 4.956321,4.896071 0.0333,0 0.503361,-0.443447 1.044606,-0.985439 l 0.984082,-0.98544 -3.910291,-3.910631 -3.910291,-3.910633 h 5.298932 5.298932 V 33.08239 32.694288 h -5.685475 -5.685475 l -0.345123,-0.341522 -0.345123,-0.341521 0.341524,-0.345123 0.341521,-0.345123 h 5.689076 5.689075 v -0.388102 -0.388105 h -5.298932 -5.298932 l 3.910291,-3.910633 3.910291,-3.910633 -0.984082,-0.985439 c -0.541245,-0.541991 -1.011317,-0.985439 -1.044606,-0.985439 -0.0333,0 -2.263632,2.203233 -4.956321,4.896072 l -4.895799,4.896072 H 28.18167 27.778505 V 25.64872 20.752648 h -1.432997 -1.432997 v 4.896072 4.896072 h -2.089787 -2.089788 v 0.388105 0.388102 h 2.089788 2.089787 v 0.686644 0.686645 h -2.089787 -2.089788 v 0.388102 0.388105 h 2.089788 2.089787 v 4.896072 4.896071 h 1.432997 1.432997 z"
       id="path7" />
  </g>
</svg>
