<?xml version="1.0" encoding="UTF-8" standalone="no"?>
<svg
   width="64"
   height="64"
   version="1.1"
   id="svg73"
   sodipodi:docname="k3b.svg"
   inkscape:version="1.4.2 (ebf0e940d0, 2025-05-08)"
   xmlns:inkscape="http://www.inkscape.org/namespaces/inkscape"
   xmlns:sodipodi="http://sodipodi.sourceforge.net/DTD/sodipodi-0.dtd"
   xmlns="http://www.w3.org/2000/svg"
   xmlns:svg="http://www.w3.org/2000/svg"
   xmlns:rdf="http://www.w3.org/1999/02/22-rdf-syntax-ns#"
   xmlns:cc="http://creativecommons.org/ns#"
   xmlns:dc="http://purl.org/dc/elements/1.1/">
  <metadata
     id="metadata77">
    <rdf:RDF>
      <cc:Work
         rdf:about="">
        <dc:format>image/svg+xml</dc:format>
        <dc:type
           rdf:resource="http://purl.org/dc/dcmitype/StillImage" />
      </cc:Work>
    </rdf:RDF>
  </metadata>
  <sodipodi:namedview
     pagecolor="#f5f7fa"
     bordercolor="#666666"
     borderopacity="1"
     objecttolerance="10"
     gridtolerance="10"
     guidetolerance="10"
     inkscape:pageopacity="0"
     inkscape:pageshadow="2"
     inkscape:window-width="1377"
     inkscape:window-height="886"
     id="namedview75"
     showgrid="false"
     inkscape:zoom="6.2890624"
     inkscape:cx="47.622361"
     inkscape:cy="45.396274"
     inkscape:window-x="147"
     inkscape:window-y="75"
     inkscape:window-maximized="0"
     inkscape:current-layer="g877"
     inkscape:document-rotation="0"
     inkscape:pagecheckerboard="0"
     inkscape:showpageshadow="2"
     inkscape:deskcolor="#d1d1d1" />
  <defs
     id="defs29">
    <linearGradient
       id="b"
       x1="399.57"
       x2="399.57"
       y1="545.8"
       y2="517.8"
       gradientTransform="matrix(2.1429,0,0,2.1429,-825.86391,-1107.6662)"
       gradientUnits="userSpaceOnUse">
      <stop
         stop-color="#3889e9"
         offset="0"
         id="stop2" />
      <stop
         stop-color="#5ea5fb"
         offset="1"
         id="stop4" />
    </linearGradient>
  </defs>
  <circle
     cx="32.516094"
     cy="31.877844"
     r="0"
     fill="url(#b)"
     stroke-width="1.5715"
     id="circle41"
     style="fill:url(#b)" />
  <g
     aria-label="GZ"
     transform="matrix(1.2212657,0,0,0.81882264,0.4960938,-0.1661539)"
     id="text93"
     style="font-weight:bold;font-size:11.5263px;line-height:1.25;font-family:sans-serif;-inkscape-font-specification:'sans-serif Bold';fill:#f2f2f2;stroke-width:0.288159" />
  <g
     id="g877"
     transform="matrix(1.1,0,0,1.1,-3.1845928,-3.2065454)">
    <rect
       x="8.3496294"
       y="8.369586"
       width="47.272728"
       height="47.272728"
       rx="9.8825235"
       ry="9.6485243"
       fill="url(#linearGradient862)"
       stroke-width="3.0541"
       id="rect35-7-3"
       style="fill:#414141;fill-opacity:1;stroke:#dfdfdf;stroke-width:2.04545;stroke-dasharray:none;stroke-opacity:1" />
    <path
       style="fill:#dfdfdf;fill-opacity:1;stroke:none;stroke-width:0.411701;stroke-dasharray:none;stroke-opacity:0.6"
       d="m 18.331432,44.636019 c -0.566977,-0.17682 -1.172525,-0.713831 -1.482049,-1.314341 -0.207106,-0.401816 -0.214566,-0.800662 -0.212203,-11.337244 0.0024,-10.390359 0.01258,-10.942587 0.210358,-11.369775 0.114315,-0.246954 0.353155,-0.585234 0.530724,-0.751734 0.663633,-0.622305 0.864057,-0.651394 4.487524,-0.651394 2.137011,0 3.480627,0.04515 3.750427,0.125963 0.293206,0.08784 0.737769,0.44562 1.469166,1.182334 0.711528,0.716697 1.263063,1.163462 1.715229,1.389415 l 0.666471,0.333043 8.31663,1.72e-4 c 7.695996,1.66e-4 8.345359,0.0148 8.701526,0.196439 0.211678,0.107946 0.489515,0.338868 0.617381,0.513168 0.23091,0.314774 0.23248,0.382437 0.23248,10.046369 0,7.724694 -0.03036,9.814763 -0.146609,10.143469 -0.08069,0.22774 -0.338949,0.612061 -0.573822,0.854109 -0.833788,0.859142 0.07612,0.809402 -14.649625,0.800984 -10.783628,-0.0062 -13.229611,-0.035 -13.633474,-0.161 z m 23.712589,-2.70918 0.295912,-0.295911 -0.002,-4.83949 -0.0019,-4.839526 -1.541017,-1.655696 -1.541018,-1.655686 h -3.289237 -3.28923 l -0.275257,0.297021 -0.275261,0.297013 v 6.165988 6.166 l 0.328112,0.32807 0.328115,0.328106 h 4.483325 4.483328 z"
       id="path10-0" />
    <rect
       x="37.737823"
       y="37.757782"
       width="22.610399"
       height="22.610399"
       rx="4.7267799"
       ry="4.6148596"
       fill="url(#linearGradient862)"
       stroke-width="3.0541"
       id="rect35-7-3-1"
       style="fill:#414141;fill-opacity:1;stroke:#dfdfdf;stroke-width:0.978336;stroke-dasharray:none;stroke-opacity:1" />
    <path
       style="fill:#dfdfdf;stroke-width:0.53681;fill-opacity:1"
       d="m 44.791719,42.025229 c 0.147267,0.0034 0.288452,0.05783 0.398349,0.153486 l 9.493051,7.509121 c 0.394037,0.342329 0.197536,0.977457 -0.324977,1.050331 l -3.681009,0.516974 1.725192,2.972224 c 0.385533,0.664309 0.157094,1.508549 -0.510669,1.892092 l -0.369899,0.213033 c -0.667756,0.38354 -1.516369,0.156269 -1.901903,-0.508034 l -1.791084,-3.086942 -2.625226,2.117055 c -0.404156,0.327039 -1.016345,0.04718 -1.016847,-0.464826 l -0.03161,-11.758135 c -9.72e-4,-0.340817 0.28694,-0.615131 0.636468,-0.606362 z"
       id="path6" />
  </g>
</svg>
