<?xml version="1.0" encoding="UTF-8" standalone="no"?>
<svg
   width="64"
   height="64"
   version="1.1"
   id="svg73"
   sodipodi:docname="audacious.svg"
   inkscape:version="1.4.2 (ebf0e940d0, 2025-05-08)"
   xmlns:inkscape="http://www.inkscape.org/namespaces/inkscape"
   xmlns:sodipodi="http://sodipodi.sourceforge.net/DTD/sodipodi-0.dtd"
   xmlns="http://www.w3.org/2000/svg"
   xmlns:svg="http://www.w3.org/2000/svg"
   xmlns:rdf="http://www.w3.org/1999/02/22-rdf-syntax-ns#"
   xmlns:cc="http://creativecommons.org/ns#"
   xmlns:dc="http://purl.org/dc/elements/1.1/">
  <metadata
     id="metadata77">
    <rdf:RDF>
      <cc:Work
         rdf:about="">
        <dc:format>image/svg+xml</dc:format>
        <dc:type
           rdf:resource="http://purl.org/dc/dcmitype/StillImage" />
      </cc:Work>
    </rdf:RDF>
  </metadata>
  <sodipodi:namedview
     pagecolor="#f5f7fa"
     bordercolor="#666666"
     borderopacity="1"
     objecttolerance="10"
     gridtolerance="10"
     guidetolerance="10"
     inkscape:pageopacity="0"
     inkscape:pageshadow="2"
     inkscape:window-width="1377"
     inkscape:window-height="886"
     id="namedview75"
     showgrid="false"
     inkscape:zoom="6.2890624"
     inkscape:cx="45.714286"
     inkscape:cy="42.057144"
     inkscape:window-x="0"
     inkscape:window-y="75"
     inkscape:window-maximized="0"
     inkscape:current-layer="g877"
     inkscape:document-rotation="0"
     inkscape:pagecheckerboard="0"
     inkscape:showpageshadow="2"
     inkscape:deskcolor="#d1d1d1" />
  <defs
     id="defs29" />
  <circle
     cx="32.516094"
     cy="31.877844"
     r="0"
     fill="url(#b)"
     stroke-width="1.5715"
     id="circle41"
     style="fill:url(#b)" />
  <g
     aria-label="GZ"
     transform="matrix(1.2212657,0,0,0.81882264,0.4960938,-0.1661539)"
     id="text93"
     style="font-weight:bold;font-size:11.5263px;line-height:1.25;font-family:sans-serif;-inkscape-font-specification:'sans-serif Bold';fill:#f2f2f2;stroke-width:0.288159" />
  <g
     id="g877"
     transform="matrix(1.1,0,0,1.1,-3.1845928,-3.2065454)">
    <rect
       x="8.3496294"
       y="8.369586"
       width="47.272728"
       height="47.272728"
       rx="9.8825235"
       ry="9.6485243"
       fill="url(#linearGradient862)"
       stroke-width="3.0541"
       id="rect35-7-3"
       style="fill:#414141;fill-opacity:1;stroke:#dfdfdf;stroke-width:2.04545;stroke-dasharray:none;stroke-opacity:1" />
    <path
       id="path4"
       style="fill:#dfdfdf;fill-opacity:1;stroke:none;stroke-width:1.0242;stroke-dasharray:none;stroke-dashoffset:2.2;stroke-opacity:0.3"
       d="m 28.910419,16.267387 -0.359329,0.138199 c -0.876601,0.337855 -1.507201,0.974345 -1.824267,1.84234 l -0.115876,0.317865 -0.01162,4.56599 c -0.0073,2.847797 0.003,4.565988 0.02869,4.565988 0.08703,0 0.324827,0.243125 0.400786,0.410357 0.0975,0.214657 0.102421,0.451736 0.01485,0.661243 -0.112272,0.268713 -0.143824,0.28724 -0.288098,0.165848 -0.06991,-0.05882 -0.204023,-0.127588 -0.298733,-0.153085 -0.485065,-0.130621 -0.972022,0.264854 -0.965289,0.784564 0.0061,0.468301 0.420056,0.821365 0.889811,0.75905 l 0.208363,-0.02768 v 1.080104 1.080102 l 0.196671,0.02233 c 0.120717,0.01364 0.296005,0.0839 0.45288,0.180723 0.290061,0.179038 0.564932,0.285973 0.734597,0.285973 0.118886,0 0.461085,0.308771 0.562378,0.507096 0.115595,0.226329 0.03336,0.464851 -0.192417,0.559187 -0.307988,0.128726 -0.666101,0.06037 -1.124718,-0.213655 -0.252184,-0.150705 -0.339326,-0.180208 -0.520885,-0.177538 -0.407319,0.006 -0.807899,0.278979 -1.653115,1.123689 -0.602735,0.602381 -0.911498,0.799194 -1.312919,0.835592 -0.429554,0.03896 -0.875985,-0.226528 -1.000373,-0.595331 -0.02818,-0.0835 -0.07107,-0.435409 -0.09568,-0.781375 -0.06738,-0.947794 -0.188529,-1.43438 -0.468825,-1.87636 -0.193249,-0.304722 -0.433416,-0.444375 -0.762238,-0.444375 -0.221169,0 -0.303564,0.02291 -0.480519,0.131815 -0.117707,0.07245 -0.273968,0.221633 -0.348695,0.332746 -0.318945,0.474253 -0.210793,0.777828 0.499652,1.397971 0.248158,0.216612 0.470043,0.435792 0.493279,0.487957 0.0732,0.164336 0.0029,0.305184 -0.217931,0.43481 -0.181186,0.106351 -0.250233,0.121021 -0.575136,0.121187 -0.60119,3.14e-4 -0.927262,-0.181424 -1.216182,-0.676123 -0.265078,-0.453861 -0.49144,-0.58405 -0.795195,-0.457133 -0.265184,0.1108 -0.437243,0.513828 -0.322119,0.754798 0.05256,0.11003 0.08632,0.121552 0.451817,0.166905 0.220696,0.02735 0.443182,0.08212 0.506032,0.123322 0.06175,0.04047 0.234567,0.242673 0.383779,0.449691 1.051622,1.458954 3.041697,4.014435 4.263008,5.473866 2.11829,2.531304 4.246331,4.699373 5.687555,5.795995 0.823558,0.626642 1.429139,0.978039 2.05071,1.188538 0.669251,0.226633 1.181755,0.171958 1.983733,-0.21152 1.027709,-0.491445 2.298424,-1.500671 3.861155,-3.064899 2.145491,-2.147548 4.87865,-5.42023 7.316219,-8.762022 0.313331,-0.42948 0.652984,-0.868554 0.754795,-0.975922 0.235381,-0.248165 0.410332,-0.509693 0.410332,-0.613407 0,-0.207643 -0.679046,-0.01723 -1.117301,0.313617 -0.321621,0.242831 -0.698825,0.389118 -1.077976,0.417794 -0.38558,0.02915 -0.527916,-0.0043 -0.58896,-0.138199 -0.03871,-0.08462 -0.02971,-0.131509 0.04253,-0.248761 0.09861,-0.159082 0.280297,-0.30194 0.970597,-0.767556 0.489989,-0.330495 0.715442,-0.547142 0.852606,-0.816454 0.241551,-0.474227 0.298642,-1.115595 0.125444,-1.421358 -0.221281,-0.390697 -0.623352,-0.479723 -1.098175,-0.24239 -0.48133,0.240589 -1.006889,0.799413 -1.126882,1.198106 -0.03264,0.107811 -0.08053,0.49308 -0.106282,0.855792 -0.04815,0.676526 -0.129099,1.106524 -0.2392,1.274649 -0.193404,0.295188 -0.666945,0.457377 -0.850476,0.291288 -0.04962,-0.04487 -0.117609,-0.134306 -0.150969,-0.198803 -0.115715,-0.223745 -0.07795,-0.345675 0.224349,-0.729282 0.333915,-0.423847 0.397524,-0.536271 0.435853,-0.776058 0.05869,-0.367108 -0.216156,-0.880767 -0.567694,-1.062032 -0.331574,-0.170954 -0.871287,-0.05855 -1.252328,0.26046 -0.373773,0.312962 -0.376737,0.489677 -0.0235,1.267207 0.14591,0.321038 0.274716,0.657972 0.287022,0.749484 0.02905,0.220327 -0.0692,0.367073 -0.32847,0.486896 -0.177867,0.0822 -0.278534,0.09355 -0.831337,0.09355 -0.789314,0 -1.036371,-0.06475 -1.286347,-0.335943 -0.200519,-0.217408 -0.291657,-0.396059 -0.5551,-1.090762 -0.197191,-0.520087 -0.299263,-0.720778 -0.366786,-0.720778 -0.02023,0 -0.185798,0.09701 -0.367836,0.215809 -0.509891,0.332895 -0.67046,0.402765 -0.98329,0.425223 -0.382522,0.02742 -0.716615,-0.107778 -0.807954,-0.326372 -0.05689,-0.136126 -0.05289,-0.164812 0.04783,-0.384845 0.05986,-0.130796 0.149362,-0.29414 0.198793,-0.363579 0.07786,-0.109318 0.103934,-0.121108 0.198796,-0.08505 0.312387,0.118768 0.700011,0.0087 1.24701,-0.354012 0.211454,-0.140267 0.420945,-0.255144 0.465635,-0.255144 0.114573,0 0.178682,0.116115 0.427362,0.776058 0.218082,0.578642 0.349773,0.845124 0.518782,1.048209 l 0.08928,0.106305 10e-4,-1.113058 10e-4,-1.113059 0.271059,-0.507096 c 0.149109,-0.278896 0.373108,-0.623745 0.496456,-0.766493 0.27021,-0.312635 0.34233,-0.547586 0.276413,-0.891935 -0.06467,-0.33773 -0.223174,-0.616417 -0.434802,-0.762238 -0.354945,-0.244651 -0.608372,0.120844 -0.7835,1.131133 -0.131384,0.757924 -0.173819,0.920639 -0.240278,0.920639 -0.103997,0 -0.160468,-0.17435 -0.13295,-0.408227 0.01404,-0.121464 0.0834,-0.474391 0.154201,-0.784564 0.0708,-0.310177 0.161676,-0.749255 0.201956,-0.975919 0.04044,-0.226669 0.100406,-0.48798 0.132886,-0.580451 0.04831,-0.137364 0.05842,-0.915222 0.05842,-4.252377 0,-4.292207 -0.0111,-4.58702 -0.194547,-5.115607 -0.293029,-0.84552 -0.995387,-1.542118 -1.851542,-1.835943 l -0.360386,-0.123324 h -3.600702 z m 4.183277,7.555411 c 0.142858,0.0032 0.28609,0.02794 0.405039,0.07335 0.246774,0.09424 0.557053,0.42276 0.630414,0.667622 0.164565,0.549257 -0.107982,1.16599 -0.608088,1.37458 -0.198121,0.08264 -0.699359,0.08653 -0.883433,0.0065 -0.198274,-0.08634 -0.445256,-0.318723 -0.551746,-0.519852 -0.1324,-0.250048 -0.132093,-0.756247 0,-1.005688 0.120782,-0.228069 0.390516,-0.470212 0.60384,-0.542176 0.118579,-0.04001 0.26112,-0.05748 0.403974,-0.05423 z m -4.899803,3.267952 c 0.366665,0 0.686953,0.316599 1.035455,1.022696 0.379283,0.768458 0.648196,1.78236 0.599584,2.261202 -0.03933,0.387318 -0.09338,0.409598 -0.177534,0.0723 -0.167007,-0.669378 -0.574028,-1.53042 -0.897253,-1.897623 -0.321398,-0.365124 -0.614597,-0.432296 -0.878116,-0.200926 l -0.148832,0.130757 -0.04783,-0.193482 c -0.0692,-0.2748 -0.06175,-0.74159 0.01485,-0.889809 0.10626,-0.205488 0.270047,-0.305105 0.499658,-0.305105 z m -8.177321,0.04568 c -0.159846,1.01e-4 -0.31953,0.02631 -0.434804,0.07867 -0.220715,0.100256 -0.510524,0.425742 -0.577259,0.648488 -0.168406,0.562088 0.140697,1.160375 0.686759,1.329931 0.254118,0.07889 0.375873,0.07895 0.624036,0.0043 0.578478,-0.17409 0.907376,-0.810095 0.699513,-1.354377 -0.09801,-0.256607 -0.340991,-0.526491 -0.564501,-0.628287 -0.114652,-0.05221 -0.273899,-0.07876 -0.433744,-0.07867 z m 15.775257,0.998247 c 0.113111,-0.01456 0.218185,0.01253 0.310429,0.08505 0.168824,0.132802 0.219971,0.346275 0.192412,0.807952 -0.01322,0.221515 -0.03588,0.420552 -0.04996,0.443312 -0.014,0.02269 -0.08244,-0.01548 -0.152033,-0.08505 -0.16342,-0.163404 -0.319464,-0.16271 -0.579392,0.0021 -0.252568,0.16018 -0.544737,0.553522 -0.796249,1.070539 -0.182407,0.374961 -0.195009,0.427431 -0.234945,0.933398 -0.076,0.963132 -0.119428,1.214789 -0.247697,1.467072 -0.268981,0.528995 -1.135319,0.886704 -1.639294,0.676127 -0.192427,-0.08039 -0.220125,-0.160033 -0.127573,-0.355072 0.126459,-0.266481 -0.03578,-0.71231 -0.338067,-0.931272 -0.597138,-0.432564 -1.461561,0.302173 -1.110933,0.944027 0.09668,0.176972 0.09895,0.19815 0.03724,0.308298 -0.03646,0.06507 -0.12193,0.14573 -0.190292,0.178601 -0.154397,0.07422 -0.593978,0.09969 -0.833469,0.04891 -0.469172,-0.09951 -0.861733,-0.43123 -0.996138,-0.841976 -0.264385,-0.807948 -1.060217,-1.781809 -1.532983,-1.876361 -0.116695,-0.02334 -0.156147,-0.06311 -0.227505,-0.227502 -0.11126,-0.256321 -0.145339,-0.641482 -0.06909,-0.785626 0.07497,-0.141765 0.277284,-0.16289 0.496466,-0.05103 0.217467,0.110996 0.276768,0.183523 0.470947,0.571945 0.196769,0.393607 0.519343,0.876173 0.727158,1.088608 0.08406,0.08594 0.193374,0.234542 0.242393,0.330618 0.261123,0.511837 1.002793,0.813509 1.585075,0.644235 0.319389,-0.09283 0.376087,-0.197004 0.246643,-0.450753 -0.157315,-0.308353 -0.109719,-0.606534 0.139267,-0.869611 0.17645,-0.186444 0.36402,-0.265771 0.626161,-0.265771 0.291239,0 0.483234,0.114707 0.649551,0.389092 0.17518,0.289015 0.21985,0.547795 0.125447,0.730345 -0.09643,0.186487 -0.09122,0.201529 0.103119,0.289162 0.524904,0.236695 1.468202,-0.239862 1.661618,-0.839843 0.04277,-0.132638 0.09376,-0.507084 0.119059,-0.867486 0.0575,-0.819007 0.09606,-0.995358 0.30404,-1.414978 0.339777,-0.685474 0.74926,-1.103364 1.088611,-1.147076 z M 24.1148,28.219735 c -0.103456,-4.44e-4 -0.211122,0.03792 -0.298733,0.11164 -0.201979,0.169957 -0.181405,0.313696 0.105238,0.731408 0.307693,0.448377 0.453806,0.853965 0.455005,1.267208 8.16e-4,0.27358 -0.01335,0.328182 -0.113754,0.447565 -0.09043,0.107478 -0.142819,0.132677 -0.249823,0.122262 -0.207126,-0.02016 -0.283383,-0.221477 -0.340189,-0.900443 -0.05527,-0.660771 -0.102076,-0.767434 -0.408224,-0.916375 -0.249033,-0.12116 -0.710574,-0.162434 -0.948281,-0.08399 -0.365719,0.120705 -0.626547,0.492454 -0.628286,0.895125 -0.0017,0.41196 0.221981,0.751425 0.619783,0.939774 0.318181,0.150653 0.462555,0.334066 0.675065,0.85898 0.233899,0.577754 0.288415,0.64619 0.601711,0.757987 0.315511,0.112582 0.935247,0.05686 1.27465,-0.114825 0.368159,-0.186196 0.577796,-0.640762 0.548556,-1.1896 -0.02073,-0.389373 -0.126268,-0.646059 -0.401849,-0.975919 -0.293279,-0.351029 -0.452101,-0.752243 -0.523043,-1.322488 -0.04426,-0.355825 -0.10403,-0.539026 -0.191356,-0.585766 -0.05406,-0.02892 -0.11441,-0.0423 -0.176473,-0.04253 z m 18.730659,0.001 c -0.101256,0.0014 -0.204959,0.01678 -0.309348,0.04569 -0.227874,0.06326 -0.597437,0.435389 -0.667621,0.672939 -0.16592,0.561652 0.126357,1.148323 0.668678,1.341624 0.837816,0.298648 1.668664,-0.587284 1.317181,-1.404347 -0.180184,-0.418838 -0.570273,-0.662264 -1.008896,-0.655921 z m -25.867211,2.714076 c -0.04062,0.001 -0.07998,0.0052 -0.117997,0.01377 -0.327389,0.07472 -0.63584,0.432251 -0.637854,0.73992 -0.0021,0.309712 0.212255,0.639375 0.497529,0.764365 0.299135,0.131065 0.648272,0.04659 0.874925,-0.211555 0.241633,-0.275206 0.28269,-0.590407 0.119072,-0.906823 -0.122145,-0.236205 -0.451401,-0.407037 -0.73566,-0.39972 z m 29.932481,1.10668 c -0.253531,0.0059 -0.436907,0.103204 -0.584697,0.307234 -0.29071,0.401335 -0.159391,0.94411 0.280688,1.16196 0.651901,0.322695 1.367515,-0.347389 1.075848,-1.006749 -0.124626,-0.281805 -0.347389,-0.436707 -0.65912,-0.459259 -0.03921,-0.0028 -0.07648,-0.004 -0.11268,-0.0031 z" />
  </g>
</svg>
