<?xml version="1.0" encoding="UTF-8" standalone="no"?>
<svg
   width="64"
   height="64"
   version="1.1"
   id="svg73"
   sodipodi:docname="accessories-character-map.svg"
   inkscape:version="1.3.2 (091e20ef0f, 2023-11-25)"
   xmlns:inkscape="http://www.inkscape.org/namespaces/inkscape"
   xmlns:sodipodi="http://sodipodi.sourceforge.net/DTD/sodipodi-0.dtd"
   xmlns="http://www.w3.org/2000/svg"
   xmlns:svg="http://www.w3.org/2000/svg"
   xmlns:rdf="http://www.w3.org/1999/02/22-rdf-syntax-ns#"
   xmlns:cc="http://creativecommons.org/ns#"
   xmlns:dc="http://purl.org/dc/elements/1.1/">
  <metadata
     id="metadata77">
    <rdf:RDF>
      <cc:Work
         rdf:about="">
        <dc:format>image/svg+xml</dc:format>
        <dc:type
           rdf:resource="http://purl.org/dc/dcmitype/StillImage" />
      </cc:Work>
    </rdf:RDF>
  </metadata>
  <sodipodi:namedview
     pagecolor="#f5f7fa"
     bordercolor="#666666"
     borderopacity="1"
     objecttolerance="10"
     gridtolerance="10"
     guidetolerance="10"
     inkscape:pageopacity="0"
     inkscape:pageshadow="2"
     inkscape:window-width="1377"
     inkscape:window-height="886"
     id="namedview75"
     showgrid="false"
     inkscape:zoom="4.4470387"
     inkscape:cx="47.784608"
     inkscape:cy="14.054296"
     inkscape:window-x="181"
     inkscape:window-y="77"
     inkscape:window-maximized="0"
     inkscape:current-layer="g877"
     inkscape:document-rotation="0"
     inkscape:pagecheckerboard="0"
     inkscape:showpageshadow="2"
     inkscape:deskcolor="#d1d1d1" />
  <defs
     id="defs29">
    <linearGradient
       id="b"
       x1="399.57"
       x2="399.57"
       y1="545.8"
       y2="517.8"
       gradientTransform="matrix(2.1429,0,0,2.1429,-825.86391,-1107.6662)"
       gradientUnits="userSpaceOnUse">
      <stop
         stop-color="#3889e9"
         offset="0"
         id="stop2" />
      <stop
         stop-color="#5ea5fb"
         offset="1"
         id="stop4" />
    </linearGradient>
    <linearGradient
       id="d"
       x2="1"
       gradientTransform="matrix(14.905727,-4.7106182,4.7106182,14.905727,322.04962,998.26962)"
       gradientUnits="userSpaceOnUse">
      <stop
         stop-color="#fafafa"
         offset="0"
         id="stop7" />
      <stop
         stop-color="#aaa"
         offset="1"
         id="stop8" />
    </linearGradient>
    <linearGradient
       id="e"
       x2="1"
       gradientTransform="matrix(21.439909,0,0,21.439909,26.63554,1159.7788)"
       gradientUnits="userSpaceOnUse">
      <stop
         stop-color="#f0f0f0"
         offset="0"
         id="stop9" />
      <stop
         stop-color="#b7f1ff"
         offset="1"
         id="stop10" />
    </linearGradient>
  </defs>
  <circle
     cx="32.516094"
     cy="31.877844"
     r="0"
     fill="url(#b)"
     stroke-width="1.5715"
     id="circle41"
     style="fill:url(#b)" />
  <g
     aria-label="GZ"
     transform="matrix(1.2212657,0,0,0.81882264,0.4960938,-0.1661539)"
     id="text93"
     style="font-weight:bold;font-size:11.5263px;line-height:1.25;font-family:sans-serif;-inkscape-font-specification:'sans-serif Bold';fill:#f2f2f2;stroke-width:0.288159" />
  <g
     id="g877"
     transform="matrix(1.1,0,0,1.1,-3.1845928,-3.2065454)">
    <rect
       x="6.3010068"
       y="5.4939413"
       width="51.635597"
       height="53.148327"
       rx="10.980581"
       ry="10.720582"
       fill="url(#linearGradient862)"
       stroke-width="3.0541"
       id="rect35-7-3"
       style="fill:#414141;fill-opacity:1;stroke:#dfdfdf;stroke-width:2.27272727;stroke-dasharray:none;stroke-opacity:1" />
    <path
       id="path19"
       style="fill:#dfdfdf;fill-opacity:1;stroke:none;stroke-width:1.31769;stroke-dasharray:none;stroke-dashoffset:2.2;stroke-opacity:0.3"
       d="m 27.012612,16.180833 c -1.021615,0.01265 -2.05641,0.242045 -3.044585,0.715465 -4.69329,2.248488 -5.737877,8.282592 -2.058892,11.900387 1.111188,1.092704 2.271415,1.732583 3.700856,2.043449 1.173543,0.255214 1.636276,0.26693 2.753768,0.06434 2.719896,-0.493081 5.105065,-2.632041 5.880707,-5.275905 0.365795,-1.246837 0.313524,-3.190237 -0.118387,-4.413747 -1.113275,-3.15366 -4.048636,-5.071391 -7.113467,-5.033987 z m 12.515485,4.87185 c -0.560664,0.0085 -1.125406,0.09171 -1.683146,0.257355 l -0.782381,0.231627 0.09265,1.32541 c 0.173549,2.444978 -0.7387,5.349549 -2.203013,7.013097 -0.340284,0.386584 -0.620242,0.763107 -0.620242,0.836425 0,0.175113 1.47771,1.591933 1.989403,1.907047 0.219734,0.135312 0.79898,0.385933 1.286809,0.558474 1.369971,0.48455 3.27402,0.377367 4.635076,-0.259936 1.358155,-0.635941 2.556399,-1.786248 3.178412,-3.049728 0.457857,-0.929982 0.488956,-1.096479 0.488956,-2.589057 0,-1.488947 -0.03265,-1.661106 -0.483813,-2.576188 -1.139429,-2.310597 -3.469185,-3.691503 -5.898718,-3.654526 z m -1.00886,15.161155 0.741199,0.488984 c 1.711837,1.133875 3.256193,2.884607 4.205287,4.761185 0.51231,1.012993 1.158124,3.243222 1.158124,3.999394 v 0.586785 h 3.724018 3.724019 L 52.020437,44.2641 c -0.05143,-1.708302 -0.08062,-1.836981 -0.62282,-2.933919 C 49.784423,38.06655 45.66451,36.213838 40.02482,36.213838 Z m -11.169483,0.02829 c -0.36367,3.5e-4 -0.734635,0.0069 -1.114373,0.01803 -3.176855,0.09327 -4.703394,0.348169 -6.876696,1.147832 -4.725333,1.738695 -7.268025,5.276394 -7.273032,10.119456 v 1.096356 h 14.983579 14.983571 v -1.557038 c 0,-2.91432 -0.824871,-4.908659 -2.859282,-6.923017 C 36.479292,37.456266 32.80477,36.23693 27.349754,36.24215 Z" />
  </g>
</svg>
