<?xml version="1.0" encoding="UTF-8" standalone="no"?>
<svg
   width="64"
   height="64"
   version="1.1"
   id="svg73"
   sodipodi:docname="partitionmanager.svg"
   inkscape:version="1.4.2 (ebf0e940d0, 2025-05-08)"
   xmlns:inkscape="http://www.inkscape.org/namespaces/inkscape"
   xmlns:sodipodi="http://sodipodi.sourceforge.net/DTD/sodipodi-0.dtd"
   xmlns="http://www.w3.org/2000/svg"
   xmlns:svg="http://www.w3.org/2000/svg"
   xmlns:rdf="http://www.w3.org/1999/02/22-rdf-syntax-ns#"
   xmlns:cc="http://creativecommons.org/ns#"
   xmlns:dc="http://purl.org/dc/elements/1.1/">
  <metadata
     id="metadata77">
    <rdf:RDF>
      <cc:Work
         rdf:about="">
        <dc:format>image/svg+xml</dc:format>
        <dc:type
           rdf:resource="http://purl.org/dc/dcmitype/StillImage" />
      </cc:Work>
    </rdf:RDF>
  </metadata>
  <sodipodi:namedview
     pagecolor="#f5f7fa"
     bordercolor="#666666"
     borderopacity="1"
     objecttolerance="10"
     gridtolerance="10"
     guidetolerance="10"
     inkscape:pageopacity="0"
     inkscape:pageshadow="2"
     inkscape:window-width="1377"
     inkscape:window-height="886"
     id="namedview75"
     showgrid="false"
     inkscape:zoom="6.2890624"
     inkscape:cx="28.700622"
     inkscape:cy="17.570187"
     inkscape:window-x="264"
     inkscape:window-y="102"
     inkscape:window-maximized="0"
     inkscape:current-layer="g877"
     inkscape:document-rotation="0"
     inkscape:pagecheckerboard="0"
     inkscape:showpageshadow="2"
     inkscape:deskcolor="#d1d1d1" />
  <defs
     id="defs29" />
  <circle
     cx="32.516094"
     cy="31.877844"
     r="0"
     fill="url(#b)"
     stroke-width="1.5715"
     id="circle41"
     style="fill:url(#b)" />
  <g
     aria-label="GZ"
     transform="matrix(1.2212657,0,0,0.81882264,0.4960938,-0.1661539)"
     id="text93"
     style="font-weight:bold;font-size:11.5263px;line-height:1.25;font-family:sans-serif;-inkscape-font-specification:'sans-serif Bold';fill:#f2f2f2;stroke-width:0.288159" />
  <g
     id="g877"
     transform="matrix(1.1,0,0,1.1,-3.1845928,-3.2065454)">
    <rect
       x="8.3496294"
       y="8.369586"
       width="47.272728"
       height="47.272728"
       rx="9.8825235"
       ry="9.6485243"
       fill="url(#linearGradient862)"
       stroke-width="3.0541"
       id="rect35-7-3"
       style="fill:#414141;fill-opacity:1;stroke:#dfdfdf;stroke-width:2.04545;stroke-dasharray:none;stroke-opacity:1" />
    <path
       id="path19"
       style="fill:#dfdfdf;fill-opacity:1;stroke:none;stroke-width:0.459507;stroke-dasharray:none;stroke-dashoffset:2.2;stroke-opacity:0.6"
       d="m 28.001069,19.24671 c -0.80358,0.0098 -1.617527,0.19038 -2.394805,0.562768 -3.691638,1.768612 -4.513289,6.514905 -1.619478,9.360584 0.874034,0.859494 1.786644,1.362812 2.911011,1.607332 0.923081,0.200746 1.287058,0.209965 2.166053,0.05059 2.139412,-0.387848 4.015532,-2.07031 4.625634,-4.149913 0.287729,-0.980735 0.246614,-2.50937 -0.09309,-3.471755 -0.87568,-2.480595 -3.184572,-3.989039 -5.595298,-3.959616 z m 9.844405,3.832089 c -0.44101,0.0068 -0.885221,0.07216 -1.32393,0.202438 l -0.615397,0.182197 0.07285,1.04254 c 0.136536,1.923161 -0.581038,4.20783 -1.732836,5.516343 -0.267662,0.304077 -0.487868,0.600242 -0.487868,0.657912 0,0.137739 1.162332,1.252179 1.564817,1.500041 0.172843,0.106447 0.628463,0.303568 1.012182,0.439285 1.077577,0.381133 2.575269,0.296828 3.645848,-0.204454 1.068286,-0.500218 2.010793,-1.405025 2.500063,-2.398855 0.360133,-0.731499 0.384617,-0.862464 0.384617,-2.03649 0,-1.171176 -0.02522,-1.306592 -0.380583,-2.026373 -0.89623,-1.817478 -2.728753,-2.903667 -4.639781,-2.874581 z m -0.793552,11.925433 0.583012,0.384625 c 1.346495,0.891875 2.561253,2.268965 3.307791,3.745034 0.402982,0.796804 0.910955,2.551053 0.910955,3.145835 v 0.461561 h 2.929233 2.929223 l -0.04042,-1.40491 c -0.04047,-1.343701 -0.06346,-1.444913 -0.48992,-2.307743 -1.268934,-2.567099 -4.509567,-4.024402 -8.945617,-4.024402 z m -8.785663,0.02229 c -0.286052,2.66e-4 -0.577851,0.0054 -0.876544,0.01411 -2.498845,0.07335 -3.699588,0.273841 -5.409056,0.902842 -3.716846,1.367648 -5.716868,4.150318 -5.72081,7.959756 v 0.862373 h 11.785752 11.785756 v -1.224728 c 0,-2.292334 -0.648835,-3.861035 -2.249058,-5.445481 -2.134952,-2.113924 -5.025248,-3.073027 -9.31604,-3.06892 z" />
  </g>
</svg>
