<?xml version="1.0" encoding="UTF-8" standalone="no"?>
<svg
   width="64"
   height="64"
   version="1.1"
   id="svg73"
   sodipodi:docname="hwloc.svg"
   inkscape:version="1.3.2 (091e20ef0f, 2023-11-25)"
   xmlns:inkscape="http://www.inkscape.org/namespaces/inkscape"
   xmlns:sodipodi="http://sodipodi.sourceforge.net/DTD/sodipodi-0.dtd"
   xmlns="http://www.w3.org/2000/svg"
   xmlns:svg="http://www.w3.org/2000/svg"
   xmlns:rdf="http://www.w3.org/1999/02/22-rdf-syntax-ns#"
   xmlns:cc="http://creativecommons.org/ns#"
   xmlns:dc="http://purl.org/dc/elements/1.1/">
  <metadata
     id="metadata77">
    <rdf:RDF>
      <cc:Work
         rdf:about="">
        <dc:format>image/svg+xml</dc:format>
        <dc:type
           rdf:resource="http://purl.org/dc/dcmitype/StillImage" />
      </cc:Work>
    </rdf:RDF>
  </metadata>
  <sodipodi:namedview
     pagecolor="#f5f7fa"
     bordercolor="#666666"
     borderopacity="1"
     objecttolerance="10"
     gridtolerance="10"
     guidetolerance="10"
     inkscape:pageopacity="0"
     inkscape:pageshadow="2"
     inkscape:window-width="1377"
     inkscape:window-height="886"
     id="namedview75"
     showgrid="false"
     inkscape:zoom="4.4470387"
     inkscape:cx="47.784608"
     inkscape:cy="14.054296"
     inkscape:window-x="181"
     inkscape:window-y="77"
     inkscape:window-maximized="0"
     inkscape:current-layer="g877"
     inkscape:document-rotation="0"
     inkscape:pagecheckerboard="0"
     inkscape:showpageshadow="2"
     inkscape:deskcolor="#d1d1d1" />
  <defs
     id="defs29">
    <linearGradient
       id="b"
       x1="399.57"
       x2="399.57"
       y1="545.8"
       y2="517.8"
       gradientTransform="matrix(2.1429,0,0,2.1429,-825.86391,-1107.6662)"
       gradientUnits="userSpaceOnUse">
      <stop
         stop-color="#3889e9"
         offset="0"
         id="stop2" />
      <stop
         stop-color="#5ea5fb"
         offset="1"
         id="stop4" />
    </linearGradient>
    <linearGradient
       id="d"
       x2="1"
       gradientTransform="matrix(14.905727,-4.7106182,4.7106182,14.905727,322.04962,998.26962)"
       gradientUnits="userSpaceOnUse">
      <stop
         stop-color="#fafafa"
         offset="0"
         id="stop7" />
      <stop
         stop-color="#aaa"
         offset="1"
         id="stop8" />
    </linearGradient>
    <linearGradient
       id="e"
       x2="1"
       gradientTransform="matrix(21.439909,0,0,21.439909,26.63554,1159.7788)"
       gradientUnits="userSpaceOnUse">
      <stop
         stop-color="#f0f0f0"
         offset="0"
         id="stop9" />
      <stop
         stop-color="#b7f1ff"
         offset="1"
         id="stop10" />
    </linearGradient>
  </defs>
  <circle
     cx="32.516094"
     cy="31.877844"
     r="0"
     fill="url(#b)"
     stroke-width="1.5715"
     id="circle41"
     style="fill:url(#b)" />
  <g
     aria-label="GZ"
     transform="matrix(1.2212657,0,0,0.81882264,0.4960938,-0.1661539)"
     id="text93"
     style="font-weight:bold;font-size:11.5263px;line-height:1.25;font-family:sans-serif;-inkscape-font-specification:'sans-serif Bold';fill:#f2f2f2;stroke-width:0.288159" />
  <g
     id="g877"
     transform="matrix(1.1,0,0,1.1,-3.1845928,-3.2065454)">
    <rect
       x="6.3010068"
       y="5.4939413"
       width="51.635597"
       height="53.148327"
       rx="10.980581"
       ry="10.720582"
       fill="url(#linearGradient862)"
       stroke-width="3.0541"
       id="rect35-7-3"
       style="fill:#414141;fill-opacity:1;stroke:#dfdfdf;stroke-width:2.27272727;stroke-dasharray:none;stroke-opacity:1" />
    <path
       id="path6"
       style="fill:#dfdfdf;stroke-width:0.111617;fill-opacity:1"
       d="m 32.760393,14.735279 c -0.862757,0 -1.725992,0.03377 -2.232822,0.100963 -4.385671,0.58147 -8.110086,2.458164 -11.161517,5.624121 -1.830863,1.899578 -3.270912,4.265755 -4.149812,6.816254 l -0.226519,0.656255 h 2.788115 2.786819 l 0.286061,-0.57212 c 1.753738,-3.511286 4.882274,-6.049475 8.61416,-6.988408 1.224462,-0.30807 1.912544,-0.389611 3.295515,-0.389611 1.382971,0 2.071053,0.08154 3.295514,0.389611 4.558185,1.146826 8.247307,4.754524 9.487872,9.278182 0.103364,0.376908 0.215049,0.841979 0.248525,1.032922 0.03348,0.190945 0.07349,0.390261 0.08932,0.443976 0.02686,0.09124 0.201969,0.09837 2.64832,0.09837 h 2.619844 v -0.190275 c 0,-0.591734 -0.463595,-2.651415 -0.845237,-3.758906 -0.683802,-1.984341 -1.794856,-4.006315 -3.089706,-5.622827 -0.584283,-0.729422 -1.809647,-1.986476 -2.51112,-2.574541 -2.795465,-2.343517 -6.024615,-3.754317 -9.710508,-4.243007 -0.506829,-0.0672 -1.370064,-0.100963 -2.23282,-0.100963 z m -18.474818,13.226069 -0.372783,0.182509 c -0.43907,0.216169 -0.720742,0.518753 -0.880185,0.944904 -0.108233,0.289273 -0.112612,0.430868 -0.112612,4.145929 0,3.71506 0.0044,3.856655 0.112612,4.145928 0.214963,0.574542 0.751735,1.009857 1.359108,1.101526 0.157746,0.0238 1.944043,0.03902 3.969893,0.03365 4.189859,-0.01105 3.969191,0.01199 4.514829,-0.48669 0.486096,-0.444265 0.555653,-0.665062 0.58118,-1.850977 l 0.022,-0.990207 h 13.855139 13.856436 l 0.03754,-0.487983 c 0.07203,-0.920711 0.03992,-2.827905 -0.05566,-3.292927 l -0.02589,-0.12556 H 37.312762 23.479624 l -0.022,-0.990207 c -0.02555,-1.186688 -0.09489,-1.406636 -0.582481,-1.852268 -0.54605,-0.499063 -0.336015,-0.477631 -4.737464,-0.477631 z m 34.244361,7.282234 c -2.446345,0 -2.621446,0.0071 -2.64832,0.09837 -0.01583,0.05371 -0.05584,0.253034 -0.08932,0.443976 -0.03348,0.190945 -0.14516,0.656016 -0.248524,1.032923 -1.239788,4.520823 -4.932544,8.132076 -9.487872,9.278181 -1.218595,0.306596 -1.911318,0.388317 -3.295515,0.388317 -1.384197,0 -2.076921,-0.08172 -3.295515,-0.388317 -3.665415,-0.922206 -6.808641,-3.441638 -8.539085,-6.84473 L 20.56206,38.536505 h -2.760931 c -2.331944,0 -2.759638,0.0128 -2.759638,0.07896 0,0.116016 0.367575,1.155586 0.623895,1.762959 0.618804,1.466306 1.639277,3.183705 2.636672,4.43846 0.593151,0.746203 2.262375,2.40023 2.997805,2.970622 2.807135,2.177189 6.104469,3.523788 9.45163,3.859869 0.337641,0.03389 0.701561,0.07053 0.808993,0.08285 0.423146,0.04847 2.854106,-0.02427 3.456019,-0.103551 3.434339,-0.452329 6.412799,-1.689293 9.157804,-3.80421 0.758821,-0.584642 2.427741,-2.230831 3.021104,-2.979684 1.737002,-2.192183 2.958604,-4.681363 3.588046,-7.310711 0.168411,-0.703493 0.366314,-1.834987 0.366314,-2.098204 v -0.190276 z" />
  </g>
</svg>
