<?xml version="1.0" encoding="UTF-8" standalone="no"?>
<svg
   width="64"
   height="64"
   version="1.1"
   id="svg73"
   sodipodi:docname="hwloc.svg"
   inkscape:version="1.3.2 (091e20ef0f, 2023-11-25)"
   xmlns:inkscape="http://www.inkscape.org/namespaces/inkscape"
   xmlns:sodipodi="http://sodipodi.sourceforge.net/DTD/sodipodi-0.dtd"
   xmlns="http://www.w3.org/2000/svg"
   xmlns:svg="http://www.w3.org/2000/svg"
   xmlns:rdf="http://www.w3.org/1999/02/22-rdf-syntax-ns#"
   xmlns:cc="http://creativecommons.org/ns#"
   xmlns:dc="http://purl.org/dc/elements/1.1/">
  <metadata
     id="metadata77">
    <rdf:RDF>
      <cc:Work
         rdf:about="">
        <dc:format>image/svg+xml</dc:format>
        <dc:type
           rdf:resource="http://purl.org/dc/dcmitype/StillImage" />
      </cc:Work>
    </rdf:RDF>
  </metadata>
  <sodipodi:namedview
     pagecolor="#f5f7fa"
     bordercolor="#666666"
     borderopacity="1"
     objecttolerance="10"
     gridtolerance="10"
     guidetolerance="10"
     inkscape:pageopacity="0"
     inkscape:pageshadow="2"
     inkscape:window-width="1377"
     inkscape:window-height="886"
     id="namedview75"
     showgrid="false"
     inkscape:zoom="4.4470387"
     inkscape:cx="47.784608"
     inkscape:cy="14.054296"
     inkscape:window-x="23"
     inkscape:window-y="77"
     inkscape:window-maximized="0"
     inkscape:current-layer="g877"
     inkscape:document-rotation="0"
     inkscape:pagecheckerboard="0"
     inkscape:showpageshadow="2"
     inkscape:deskcolor="#d1d1d1" />
  <defs
     id="defs29">
    <linearGradient
       id="b"
       x1="399.57"
       x2="399.57"
       y1="545.8"
       y2="517.8"
       gradientTransform="matrix(2.1429,0,0,2.1429,-825.86391,-1107.6662)"
       gradientUnits="userSpaceOnUse">
      <stop
         stop-color="#3889e9"
         offset="0"
         id="stop2" />
      <stop
         stop-color="#5ea5fb"
         offset="1"
         id="stop4" />
    </linearGradient>
    <linearGradient
       id="d"
       x2="1"
       gradientTransform="matrix(14.905727,-4.7106182,4.7106182,14.905727,322.04962,998.26962)"
       gradientUnits="userSpaceOnUse">
      <stop
         stop-color="#fafafa"
         offset="0"
         id="stop7" />
      <stop
         stop-color="#aaa"
         offset="1"
         id="stop8" />
    </linearGradient>
    <linearGradient
       id="e"
       x2="1"
       gradientTransform="matrix(21.439909,0,0,21.439909,26.63554,1159.7788)"
       gradientUnits="userSpaceOnUse">
      <stop
         stop-color="#f0f0f0"
         offset="0"
         id="stop9" />
      <stop
         stop-color="#b7f1ff"
         offset="1"
         id="stop10" />
    </linearGradient>
  </defs>
  <circle
     cx="32.516094"
     cy="31.877844"
     r="0"
     fill="url(#b)"
     stroke-width="1.5715"
     id="circle41"
     style="fill:url(#b)" />
  <g
     aria-label="GZ"
     transform="matrix(1.2212657,0,0,0.81882264,0.4960938,-0.1661539)"
     id="text93"
     style="font-weight:bold;font-size:11.5263px;line-height:1.25;font-family:sans-serif;-inkscape-font-specification:'sans-serif Bold';fill:#f2f2f2;stroke-width:0.288159" />
  <g
     id="g877"
     transform="matrix(1.1,0,0,1.1,-3.1845928,-3.2065454)">
    <rect
       x="6.3010068"
       y="5.4939413"
       width="51.635597"
       height="53.148327"
       rx="10.980581"
       ry="10.720582"
       fill="url(#linearGradient862)"
       stroke-width="3.0541"
       id="rect35-7-3"
       style="fill:#414141;fill-opacity:1;stroke:#dfdfdf;stroke-width:2.27272727;stroke-dasharray:none;stroke-opacity:1" />
    <path
       id="path90"
       style="fill:#dfdfdf;fill-opacity:1;stroke:none;stroke-width:1.1979;stroke-dasharray:none;stroke-opacity:0.3"
       d="m 32.310709,14.053738 c -1.937071,-0.0014 -2.687664,0.06932 -4.133695,0.393 -4.043745,0.905137 -7.131928,3.00382 -8.392287,5.700929 -0.807763,1.72857 -0.79243,3.490585 0.04815,5.227065 1.575608,3.254885 5.789289,5.540649 11.040742,5.99042 0.655511,0.05612 3.148231,-0.02119 3.864334,-0.119682 5.584231,-0.767914 9.71785,-3.717803 10.459888,-7.463767 0.140093,-0.707242 0.116915,-1.690621 -0.05719,-2.425927 -0.754905,-3.188452 -4.199612,-5.897609 -8.785028,-6.909038 -1.504182,-0.331782 -2.116668,-0.39151 -4.04491,-0.393 z m 12.064003,15.870413 -0.225672,0.305668 c -0.405205,0.5489 -1.290766,1.397696 -1.956295,1.874434 -4.467921,3.200528 -12.155467,3.749032 -17.679924,1.26148 -1.699364,-0.765188 -3.153078,-1.839264 -4.068988,-3.008148 -0.384591,-0.490809 -0.331752,-0.503312 -0.668136,0.145554 -0.462893,0.892917 -0.675461,1.9961 -0.561291,2.90788 0.08729,0.6971 0.349992,1.49337 0.704249,2.134815 0.356678,0.645818 1.447434,1.851537 2.147354,2.374173 2.158301,1.611639 5.143687,2.65618 8.417871,2.945076 0.951055,0.0839 3.338229,0.03285 4.314269,-0.09221 3.062151,-0.392516 5.729325,-1.395377 7.66847,-2.885237 0.626329,-0.481206 1.567693,-1.48011 1.914117,-2.031309 0.33905,-0.53945 0.684543,-1.349752 0.809581,-1.897077 0.131047,-0.5738 0.131047,-1.573954 0,-2.147754 -0.106645,-0.466805 -0.475596,-1.374786 -0.687693,-1.694909 z m -24.218297,9.529042 c -0.101046,3.7e-5 -0.51854,0.787658 -0.719299,1.397335 -0.332766,1.010575 -0.334089,2.038972 -0.0048,3.095484 1.074622,3.44489 5.641326,6.023896 11.471115,6.478841 0.667188,0.0521 3.108645,-0.02203 3.864333,-0.118075 2.419776,-0.306579 4.714526,-1.03663 6.440555,-2.047478 1.265619,-0.741207 2.59646,-1.946662 3.173633,-2.873911 0.3388,-0.544313 0.684065,-1.352609 0.80808,-1.895466 0.131088,-0.573793 0.131088,-1.573949 0,-2.147751 -0.106436,-0.466095 -0.474752,-1.375816 -0.686159,-1.694917 l -0.12639,-0.190875 -0.28891,0.368735 c -1.66564,2.135789 -4.637074,3.689217 -8.273399,4.32463 -6.03854,1.055177 -12.418683,-0.675475 -15.263214,-4.14025 -0.205957,-0.250868 -0.373192,-0.47898 -0.373192,-0.506208 0,-0.03534 -0.0081,-0.05014 -0.02262,-0.05014 z" />
  </g>
</svg>
