<?xml version="1.0" encoding="UTF-8" standalone="no"?>
<svg
   width="64"
   height="64"
   version="1.1"
   id="svg73"
   sodipodi:docname="audacious.svg"
   inkscape:version="1.4.2 (ebf0e940d0, 2025-05-08)"
   xmlns:inkscape="http://www.inkscape.org/namespaces/inkscape"
   xmlns:sodipodi="http://sodipodi.sourceforge.net/DTD/sodipodi-0.dtd"
   xmlns="http://www.w3.org/2000/svg"
   xmlns:svg="http://www.w3.org/2000/svg"
   xmlns:rdf="http://www.w3.org/1999/02/22-rdf-syntax-ns#"
   xmlns:cc="http://creativecommons.org/ns#"
   xmlns:dc="http://purl.org/dc/elements/1.1/">
  <metadata
     id="metadata77">
    <rdf:RDF>
      <cc:Work
         rdf:about="">
        <dc:format>image/svg+xml</dc:format>
        <dc:type
           rdf:resource="http://purl.org/dc/dcmitype/StillImage" />
      </cc:Work>
    </rdf:RDF>
  </metadata>
  <sodipodi:namedview
     pagecolor="#f5f7fa"
     bordercolor="#666666"
     borderopacity="1"
     objecttolerance="10"
     gridtolerance="10"
     guidetolerance="10"
     inkscape:pageopacity="0"
     inkscape:pageshadow="2"
     inkscape:window-width="1377"
     inkscape:window-height="886"
     id="namedview75"
     showgrid="false"
     inkscape:zoom="6.2890624"
     inkscape:cx="46.032299"
     inkscape:cy="36.809938"
     inkscape:window-x="326"
     inkscape:window-y="176"
     inkscape:window-maximized="0"
     inkscape:current-layer="g877"
     inkscape:document-rotation="0"
     inkscape:pagecheckerboard="0"
     inkscape:showpageshadow="2"
     inkscape:deskcolor="#d1d1d1" />
  <defs
     id="defs29" />
  <circle
     cx="32.516094"
     cy="31.877844"
     r="0"
     fill="url(#b)"
     stroke-width="1.5715"
     id="circle41"
     style="fill:url(#b)" />
  <g
     aria-label="GZ"
     transform="matrix(1.2212657,0,0,0.81882264,0.4960938,-0.1661539)"
     id="text93"
     style="font-weight:bold;font-size:11.5263px;line-height:1.25;font-family:sans-serif;-inkscape-font-specification:'sans-serif Bold';fill:#f2f2f2;stroke-width:0.288159" />
  <g
     id="g877"
     transform="matrix(1.1,0,0,1.1,-3.1845928,-3.2065454)">
    <rect
       x="8.3496294"
       y="8.369586"
       width="47.272728"
       height="47.272728"
       rx="9.8825235"
       ry="9.6485243"
       fill="url(#linearGradient862)"
       stroke-width="3.0541"
       id="rect35-7-3"
       style="fill:#414141;fill-opacity:1;stroke:#dfdfdf;stroke-width:2.04545;stroke-dasharray:none;stroke-opacity:1" />
    <path
       d="m 31.985994,16.61595 c -8.499662,0 -15.390001,6.890339 -15.390001,15.39 0,8.499661 6.890339,15.39 15.390001,15.39 8.499661,0 15.39,-6.890339 15.39,-15.39 0,-8.499661 -6.890339,-15.39 -15.39,-15.39 z m 0,2.098636 c 7.437203,0 13.291364,5.85416 13.291364,13.291364 -0.0057,6.182728 -4.046314,11.217593 -10.046915,12.707208 -0.08531,-0.215425 0.01915,-0.445323 0.04192,-0.520391 0.115345,-0.380344 0.197407,-0.543913 0.225441,-1.070773 0.04441,-0.834696 0.239819,-2.158797 0.769118,-2.761633 0.465567,-0.530256 0.554436,-0.9531 0.563598,-2.675214 0.0076,-1.425608 0.02343,-1.592639 0.206653,-2.231852 0.311888,-1.088118 0.82742,-1.85573 1.204764,-2.406566 0.191769,-0.27994 0.497457,-0.779649 0.680076,-1.110289 0.182613,-0.330649 0.44851,-0.77645 0.5899,-0.990054 0.36936,-0.558018 1.542837,-1.329062 1.932701,-1.512324 0.435699,-0.2048 0.775795,-0.756043 0.934641,-1.23428 0.163281,-0.491595 0.113772,-1.267124 -0.09957,-1.551776 -0.12572,-0.167741 -0.06583,-0.19726 -0.387951,-0.19726 -0.295017,0 -0.422548,-0.03903 -0.569235,-0.176593 -0.201767,-0.189229 -0.349431,-0.163892 -0.349431,0.06013 0,0.175687 -0.652116,0.51006 -0.730356,0.432092 -0.03258,-0.03247 4.51e-4,-0.218465 0.07514,-0.413306 0.27367,-0.714085 0.363072,-1.16929 0.319372,-1.630678 -0.07206,-0.760748 -0.545827,-1.784951 -0.804068,-1.834709 -0.0621,-0.01196 -0.399493,0.218291 -0.749587,0.512875 -1.825665,1.536219 -3.213978,2.206378 -4.180022,2.79033 -0.460991,0.27864 -0.462453,0.278004 -1.239917,0.261135 -0.9205,-0.01997 -0.76068,-0.01406 -2.296053,0.916743 -0.531781,0.322388 -1.131442,1.00731 -1.331972,1.083505 -0.201544,0.07658 -0.84025,-0.02303 -1.429661,0.03757 -1.210526,0.124416 -1.254828,0.198652 -1.707754,0.460272 -0.447917,0.258723 -0.561202,0.451426 -0.465909,0.796553 0.09331,0.33793 0.309328,1.003316 0.905566,1.589349 l 0.448999,0.581657 -0.345673,0.53542 c -0.190838,0.294635 -0.478755,0.83922 -0.638745,1.209858 -0.317964,0.736612 -0.405073,0.874919 -1.038899,1.655101 -0.549084,0.675859 -1.445208,1.648076 -2.013599,2.761634 -0.486063,0.952267 -0.719634,1.199088 -1.611891,1.709583 -0.223191,0.127696 -0.498308,0.342283 -0.781524,0.475302 -1.83668,-2.361355 -2.659886,-5.26706 -2.661901,-8.258605 0,-7.437203 5.85416,-13.291363 13.291364,-13.291363 z m 2.122421,8.583015 -0.622969,0.888608 -1.117804,0.155928 0.695106,-0.888606 z"
       style="fill:#dfdfdf;stroke-width:0.699546;fill-opacity:1"
       id="path4" />
  </g>
</svg>
