<?xml version="1.0" encoding="UTF-8" standalone="no"?>
<svg
   width="64"
   height="64"
   version="1.1"
   id="svg73"
   sodipodi:docname="hwloc.svg"
   inkscape:version="1.3.2 (091e20ef0f, 2023-11-25)"
   xmlns:inkscape="http://www.inkscape.org/namespaces/inkscape"
   xmlns:sodipodi="http://sodipodi.sourceforge.net/DTD/sodipodi-0.dtd"
   xmlns="http://www.w3.org/2000/svg"
   xmlns:svg="http://www.w3.org/2000/svg"
   xmlns:rdf="http://www.w3.org/1999/02/22-rdf-syntax-ns#"
   xmlns:cc="http://creativecommons.org/ns#"
   xmlns:dc="http://purl.org/dc/elements/1.1/">
  <metadata
     id="metadata77">
    <rdf:RDF>
      <cc:Work
         rdf:about="">
        <dc:format>image/svg+xml</dc:format>
        <dc:type
           rdf:resource="http://purl.org/dc/dcmitype/StillImage" />
      </cc:Work>
    </rdf:RDF>
  </metadata>
  <sodipodi:namedview
     pagecolor="#f5f7fa"
     bordercolor="#666666"
     borderopacity="1"
     objecttolerance="10"
     gridtolerance="10"
     guidetolerance="10"
     inkscape:pageopacity="0"
     inkscape:pageshadow="2"
     inkscape:window-width="1377"
     inkscape:window-height="886"
     id="namedview75"
     showgrid="false"
     inkscape:zoom="4.4470387"
     inkscape:cx="47.784608"
     inkscape:cy="14.054296"
     inkscape:window-x="23"
     inkscape:window-y="77"
     inkscape:window-maximized="0"
     inkscape:current-layer="g877"
     inkscape:document-rotation="0"
     inkscape:pagecheckerboard="0"
     inkscape:showpageshadow="2"
     inkscape:deskcolor="#d1d1d1" />
  <defs
     id="defs29">
    <linearGradient
       id="b"
       x1="399.57"
       x2="399.57"
       y1="545.8"
       y2="517.8"
       gradientTransform="matrix(2.1429,0,0,2.1429,-825.86391,-1107.6662)"
       gradientUnits="userSpaceOnUse">
      <stop
         stop-color="#3889e9"
         offset="0"
         id="stop2" />
      <stop
         stop-color="#5ea5fb"
         offset="1"
         id="stop4" />
    </linearGradient>
    <linearGradient
       id="d"
       x2="1"
       gradientTransform="matrix(14.905727,-4.7106182,4.7106182,14.905727,322.04962,998.26962)"
       gradientUnits="userSpaceOnUse">
      <stop
         stop-color="#fafafa"
         offset="0"
         id="stop7" />
      <stop
         stop-color="#aaa"
         offset="1"
         id="stop8" />
    </linearGradient>
    <linearGradient
       id="e"
       x2="1"
       gradientTransform="matrix(21.439909,0,0,21.439909,26.63554,1159.7788)"
       gradientUnits="userSpaceOnUse">
      <stop
         stop-color="#f0f0f0"
         offset="0"
         id="stop9" />
      <stop
         stop-color="#b7f1ff"
         offset="1"
         id="stop10" />
    </linearGradient>
  </defs>
  <circle
     cx="32.516094"
     cy="31.877844"
     r="0"
     fill="url(#b)"
     stroke-width="1.5715"
     id="circle41"
     style="fill:url(#b)" />
  <g
     aria-label="GZ"
     transform="matrix(1.2212657,0,0,0.81882264,0.4960938,-0.1661539)"
     id="text93"
     style="font-weight:bold;font-size:11.5263px;line-height:1.25;font-family:sans-serif;-inkscape-font-specification:'sans-serif Bold';fill:#f2f2f2;stroke-width:0.288159" />
  <g
     id="g877"
     transform="matrix(1.1,0,0,1.1,-3.1845928,-3.2065454)">
    <rect
       x="6.3010068"
       y="5.4939413"
       width="51.635597"
       height="53.148327"
       rx="10.980581"
       ry="10.720582"
       fill="url(#linearGradient862)"
       stroke-width="3.0541"
       id="rect35-7-3"
       style="fill:#414141;fill-opacity:1;stroke:#dfdfdf;stroke-width:2.27272727;stroke-dasharray:none;stroke-opacity:1" />
    <path
       id="path50"
       style="fill:#dfdfdf;fill-opacity:1;stroke-width:0.178681;stroke-opacity:0.3"
       d="M 32.050198,19.533474 31.88693,20.1157 C 31.445541,21.686686 26.441654,38.037848 26.382629,38.102418 26.250253,38.247202 26.1106,37.94399 24.105286,33.184645 L 22.079293,28.37859 18.121869,28.33132 14.164442,28.28191 v 1.701563 1.701562 h 2.831642 2.831642 l 2.827347,6.797655 2.827345,6.795506 1.168749,-0.05156 1.170899,-0.05156 3.319341,-10.989256 3.319338,-10.989258 5.755667,-0.04727 5.753517,-0.04727 V 21.31882 19.533468 h -6.96094 z m 2.137695,10.007421 2.939064,3.617969 c 1.616738,1.990049 2.941604,3.671233 2.943363,3.736133 0.0018,0.0649 -1.375837,1.873456 -3.061528,4.019727 -1.68569,2.14627 -3.142417,4.002156 -3.237697,4.125 -0.135495,0.1747 0.151086,0.224467 1.321287,0.223427 l 1.497464,-0.0022 2.485747,-3.216212 c 2.362623,-3.055966 2.50237,-3.200208 2.812304,-2.919726 0.179399,0.162353 1.345096,1.609051 2.591014,3.21621 l 2.266607,2.921878 h 1.514646 c 1.42651,0 1.500859,-0.01747 1.250391,-0.311527 -1.137488,-1.335866 -6.041408,-7.743307 -6.041408,-7.893359 0,-0.104302 1.145492,-1.60851 2.545904,-3.340821 1.4004,-1.73231 2.732292,-3.380331 2.960538,-3.663086 l 0.414634,-0.513476 h -1.495305 -1.493163 l -2.204299,2.683398 c -1.211671,1.475706 -2.263917,2.720382 -2.339651,2.767187 -0.07576,0.0468 -1.163099,-1.160884 -2.414841,-2.683398 l -2.275188,-2.767174 h -1.491015 z" />
  </g>
</svg>
