<?xml version="1.0" encoding="UTF-8" standalone="no"?>
<svg
   width="64"
   height="64"
   version="1.1"
   id="svg73"
   sodipodi:docname="audacious.svg"
   inkscape:version="1.4.2 (ebf0e940d0, 2025-05-08)"
   xmlns:inkscape="http://www.inkscape.org/namespaces/inkscape"
   xmlns:sodipodi="http://sodipodi.sourceforge.net/DTD/sodipodi-0.dtd"
   xmlns="http://www.w3.org/2000/svg"
   xmlns:svg="http://www.w3.org/2000/svg"
   xmlns:rdf="http://www.w3.org/1999/02/22-rdf-syntax-ns#"
   xmlns:cc="http://creativecommons.org/ns#"
   xmlns:dc="http://purl.org/dc/elements/1.1/">
  <metadata
     id="metadata77">
    <rdf:RDF>
      <cc:Work
         rdf:about="">
        <dc:format>image/svg+xml</dc:format>
        <dc:type
           rdf:resource="http://purl.org/dc/dcmitype/StillImage" />
      </cc:Work>
    </rdf:RDF>
  </metadata>
  <sodipodi:namedview
     pagecolor="#f5f7fa"
     bordercolor="#666666"
     borderopacity="1"
     objecttolerance="10"
     gridtolerance="10"
     guidetolerance="10"
     inkscape:pageopacity="0"
     inkscape:pageshadow="2"
     inkscape:window-width="1377"
     inkscape:window-height="886"
     id="namedview75"
     showgrid="false"
     inkscape:zoom="6.2890624"
     inkscape:cx="47.622361"
     inkscape:cy="45.396274"
     inkscape:window-x="0"
     inkscape:window-y="57"
     inkscape:window-maximized="0"
     inkscape:current-layer="g877"
     inkscape:document-rotation="0"
     inkscape:pagecheckerboard="0"
     inkscape:showpageshadow="2"
     inkscape:deskcolor="#d1d1d1" />
  <defs
     id="defs29" />
  <circle
     cx="32.516094"
     cy="31.877844"
     r="0"
     fill="url(#b)"
     stroke-width="1.5715"
     id="circle41"
     style="fill:url(#b)" />
  <g
     aria-label="GZ"
     transform="matrix(1.2212657,0,0,0.81882264,0.4960938,-0.1661539)"
     id="text93"
     style="font-weight:bold;font-size:11.5263px;line-height:1.25;font-family:sans-serif;-inkscape-font-specification:'sans-serif Bold';fill:#f2f2f2;stroke-width:0.288159" />
  <g
     id="g877"
     transform="matrix(1.1,0,0,1.1,-3.1845928,-3.2065454)">
    <rect
       x="8.3496294"
       y="8.369586"
       width="47.272728"
       height="47.272728"
       rx="9.8825235"
       ry="9.6485243"
       fill="url(#linearGradient862)"
       stroke-width="3.0541"
       id="rect35-7-3"
       style="fill:#414141;fill-opacity:1;stroke:#dfdfdf;stroke-width:2.04545;stroke-dasharray:none;stroke-opacity:1" />
    <path
       id="path50"
       style="fill:#dfdfdf;fill-opacity:1;stroke:none;stroke-width:0.520931;stroke-dasharray:none;stroke-opacity:0.6"
       d="m 32.127308,20.411447 -0.147061,0.524428 c -0.397573,1.41503 -4.904714,16.142979 -4.957879,16.201137 -0.119232,0.130421 -0.245023,-0.142704 -2.051265,-4.429571 l -1.82487,-4.32895 -3.564564,-0.04257 -3.564565,-0.0445 v 1.532647 1.532643 h 2.55054 2.55054 l 2.546671,6.12284 2.546669,6.120897 1.052725,-0.04647 1.054661,-0.04647 2.989824,-9.898315 2.989823,-9.898334 5.184291,-0.04257 5.182361,-0.04257 V 22.01956 20.411442 h -6.269924 z m 1.925482,9.013967 2.6473,3.258805 c 1.456237,1.792493 2.649585,3.306782 2.651171,3.365239 0.0018,0.05846 -1.239262,1.68747 -2.757607,3.620681 -1.51835,1.933209 -2.830466,3.604851 -2.916286,3.715496 -0.122047,0.157371 0.136088,0.202226 1.190121,0.201294 l 1.348809,-0.002 2.238979,-2.896929 c 2.128082,-2.752594 2.253961,-2.882517 2.533124,-2.629879 0.161558,0.146237 1.211563,1.449322 2.333796,2.896933 l 2.041601,2.631816 h 1.364281 c 1.284899,0 1.351866,-0.01575 1.126265,-0.280588 -1.024568,-1.203256 -5.441668,-6.974613 -5.441668,-7.109768 0,-0.09395 1.031779,-1.448833 2.293171,-3.009171 1.261381,-1.560342 2.461046,-3.044762 2.666632,-3.299446 l 0.373464,-0.462504 h -1.34684 -1.344936 l -1.98547,2.416997 c -1.091392,1.329215 -2.039178,2.450331 -2.107391,2.492489 -0.06824,0.04215 -1.047634,-1.045641 -2.175116,-2.417013 l -2.049332,-2.492509 h -1.343001 z" />
  </g>
</svg>
