<?xml version="1.0" encoding="UTF-8" standalone="no"?>
<svg
   width="64"
   height="64"
   version="1.1"
   id="svg73"
   sodipodi:docname="hwloc.svg"
   inkscape:version="1.3.2 (091e20ef0f, 2023-11-25)"
   xmlns:inkscape="http://www.inkscape.org/namespaces/inkscape"
   xmlns:sodipodi="http://sodipodi.sourceforge.net/DTD/sodipodi-0.dtd"
   xmlns="http://www.w3.org/2000/svg"
   xmlns:svg="http://www.w3.org/2000/svg"
   xmlns:rdf="http://www.w3.org/1999/02/22-rdf-syntax-ns#"
   xmlns:cc="http://creativecommons.org/ns#"
   xmlns:dc="http://purl.org/dc/elements/1.1/">
  <metadata
     id="metadata77">
    <rdf:RDF>
      <cc:Work
         rdf:about="">
        <dc:format>image/svg+xml</dc:format>
        <dc:type
           rdf:resource="http://purl.org/dc/dcmitype/StillImage" />
      </cc:Work>
    </rdf:RDF>
  </metadata>
  <sodipodi:namedview
     pagecolor="#f5f7fa"
     bordercolor="#666666"
     borderopacity="1"
     objecttolerance="10"
     gridtolerance="10"
     guidetolerance="10"
     inkscape:pageopacity="0"
     inkscape:pageshadow="2"
     inkscape:window-width="1377"
     inkscape:window-height="886"
     id="namedview75"
     showgrid="false"
     inkscape:zoom="4.4470387"
     inkscape:cx="47.784608"
     inkscape:cy="14.054296"
     inkscape:window-x="23"
     inkscape:window-y="77"
     inkscape:window-maximized="0"
     inkscape:current-layer="g877"
     inkscape:document-rotation="0"
     inkscape:pagecheckerboard="0"
     inkscape:showpageshadow="2"
     inkscape:deskcolor="#d1d1d1" />
  <defs
     id="defs29">
    <linearGradient
       id="b"
       x1="399.57"
       x2="399.57"
       y1="545.8"
       y2="517.8"
       gradientTransform="matrix(2.1429,0,0,2.1429,-825.86391,-1107.6662)"
       gradientUnits="userSpaceOnUse">
      <stop
         stop-color="#3889e9"
         offset="0"
         id="stop2" />
      <stop
         stop-color="#5ea5fb"
         offset="1"
         id="stop4" />
    </linearGradient>
    <linearGradient
       id="d"
       x2="1"
       gradientTransform="matrix(14.905727,-4.7106182,4.7106182,14.905727,322.04962,998.26962)"
       gradientUnits="userSpaceOnUse">
      <stop
         stop-color="#fafafa"
         offset="0"
         id="stop7" />
      <stop
         stop-color="#aaa"
         offset="1"
         id="stop8" />
    </linearGradient>
    <linearGradient
       id="e"
       x2="1"
       gradientTransform="matrix(21.439909,0,0,21.439909,26.63554,1159.7788)"
       gradientUnits="userSpaceOnUse">
      <stop
         stop-color="#f0f0f0"
         offset="0"
         id="stop9" />
      <stop
         stop-color="#b7f1ff"
         offset="1"
         id="stop10" />
    </linearGradient>
  </defs>
  <circle
     cx="32.516094"
     cy="31.877844"
     r="0"
     fill="url(#b)"
     stroke-width="1.5715"
     id="circle41"
     style="fill:url(#b)" />
  <g
     aria-label="GZ"
     transform="matrix(1.2212657,0,0,0.81882264,0.4960938,-0.1661539)"
     id="text93"
     style="font-weight:bold;font-size:11.5263px;line-height:1.25;font-family:sans-serif;-inkscape-font-specification:'sans-serif Bold';fill:#f2f2f2;stroke-width:0.288159" />
  <g
     id="g877"
     transform="matrix(1.1,0,0,1.1,-3.1845928,-3.2065454)">
    <rect
       x="6.3010068"
       y="5.4939413"
       width="51.635597"
       height="53.148327"
       rx="10.980581"
       ry="10.720582"
       fill="url(#linearGradient862)"
       stroke-width="3.0541"
       id="rect35-7-3"
       style="fill:#414141;fill-opacity:1;stroke:#dfdfdf;stroke-width:2.27272727;stroke-dasharray:none;stroke-opacity:1" />
    <path
       style="fill:#dfdfdf;fill-opacity:1;stroke:none;stroke-width:0.144469;stroke-dashoffset:2.2;stroke-opacity:0.3"
       d="m 16.037882,50.531615 c -0.67048,-0.353461 -1.097045,-0.790174 -1.388353,-1.421352 -0.243341,-0.527245 -0.266988,-1.030423 -0.269882,-5.742697 l -0.0031,-5.16481 0.614001,0.0034 c 0.414868,0.0023 0.848268,0.141166 1.336347,0.428232 2.200528,1.29426 3.025959,1.453066 4.061797,0.781413 1.323306,-0.858038 2.001448,-2.567487 1.90754,-4.80846 -0.0872,-2.080799 -0.833542,-3.531111 -2.171235,-4.219187 -0.942821,-0.484964 -1.739253,-0.316186 -3.350712,0.710069 -0.88851,0.565848 -1.588559,0.800981 -2.044234,0.686614 l -0.353505,-0.08873 V 27.64648 c 0,-4.39593 0.01435,-4.48741 0.847196,-5.384491 0.826861,-0.890678 0.795395,-0.885887 6.140221,-0.934988 l 4.892595,-0.04493 -0.06021,-0.832336 c -0.04858,-0.671564 -0.191155,-1.052378 -0.73816,-1.971534 -1.102924,-1.853297 -1.097477,-2.697823 0.02462,-3.819936 0.989118,-0.989118 2.01561,-1.358639 3.774158,-1.358639 1.758551,0 2.785042,0.369521 3.774159,1.358639 1.122113,1.122113 1.127558,1.966639 0.02462,3.819936 -0.549501,0.923379 -0.689467,1.298557 -0.738785,1.980363 l -0.06085,0.841163 h 4.180779 c 4.709763,0 5.292584,0.08644 6.061828,0.898982 0.854295,0.902393 0.838274,0.794355 0.916328,6.180064 l 0.07224,4.984225 0.343996,0.04865 c 0.632186,0.08941 1.235912,-0.114992 2.449501,-0.829271 0.662373,-0.389847 1.426407,-0.750487 1.697864,-0.801413 1.024717,-0.192236 2.365624,0.799241 2.961745,2.189951 1.191316,2.779236 0.07478,6.462794 -2.162127,7.13299 -0.543472,0.162831 -0.641232,0.141744 -1.634268,-0.352248 -0.580966,-0.288993 -1.348311,-0.691088 -1.705251,-0.893539 -0.485249,-0.275242 -0.813304,-0.357355 -1.300237,-0.325532 l -0.651246,0.04278 -0.07225,4.623053 c -0.07778,4.976847 -0.09255,5.073402 -0.88921,5.79803 -0.796719,0.724689 -1.073305,0.775368 -4.232306,0.775368 h -2.9688 V 50.21844 c 0,-0.32182 0.159348,-0.850811 0.380789,-1.264117 0.209436,-0.390838 0.566999,-1.061187 0.794587,-1.489546 1.243505,-2.340465 -0.546197,-4.505698 -3.920312,-4.742898 -2.583961,-0.181645 -4.915434,1.159208 -5.15782,2.966326 -0.09483,0.706923 0.103793,1.328928 0.774972,2.427106 0.602563,0.985904 0.928331,1.926368 0.816026,2.355823 -0.07816,0.298903 -0.116519,0.300735 -6.310124,0.294885 -5.39535,-0.0051 -6.289646,-0.03667 -6.664902,-0.234293 z"
       id="path1-3" />
  </g>
</svg>
