<?xml version="1.0" encoding="UTF-8" standalone="no"?>
<svg
   width="64"
   height="64"
   version="1.1"
   id="svg73"
   sodipodi:docname="hwloc.svg"
   inkscape:version="1.3.2 (091e20ef0f, 2023-11-25)"
   xmlns:inkscape="http://www.inkscape.org/namespaces/inkscape"
   xmlns:sodipodi="http://sodipodi.sourceforge.net/DTD/sodipodi-0.dtd"
   xmlns="http://www.w3.org/2000/svg"
   xmlns:svg="http://www.w3.org/2000/svg"
   xmlns:rdf="http://www.w3.org/1999/02/22-rdf-syntax-ns#"
   xmlns:cc="http://creativecommons.org/ns#"
   xmlns:dc="http://purl.org/dc/elements/1.1/">
  <metadata
     id="metadata77">
    <rdf:RDF>
      <cc:Work
         rdf:about="">
        <dc:format>image/svg+xml</dc:format>
        <dc:type
           rdf:resource="http://purl.org/dc/dcmitype/StillImage" />
      </cc:Work>
    </rdf:RDF>
  </metadata>
  <sodipodi:namedview
     pagecolor="#f5f7fa"
     bordercolor="#666666"
     borderopacity="1"
     objecttolerance="10"
     gridtolerance="10"
     guidetolerance="10"
     inkscape:pageopacity="0"
     inkscape:pageshadow="2"
     inkscape:window-width="1377"
     inkscape:window-height="886"
     id="namedview75"
     showgrid="false"
     inkscape:zoom="4.4470387"
     inkscape:cx="47.784608"
     inkscape:cy="14.054296"
     inkscape:window-x="23"
     inkscape:window-y="77"
     inkscape:window-maximized="0"
     inkscape:current-layer="g877"
     inkscape:document-rotation="0"
     inkscape:pagecheckerboard="0"
     inkscape:showpageshadow="2"
     inkscape:deskcolor="#d1d1d1" />
  <defs
     id="defs29">
    <linearGradient
       id="b"
       x1="399.57"
       x2="399.57"
       y1="545.8"
       y2="517.8"
       gradientTransform="matrix(2.1429,0,0,2.1429,-825.86391,-1107.6662)"
       gradientUnits="userSpaceOnUse">
      <stop
         stop-color="#3889e9"
         offset="0"
         id="stop2" />
      <stop
         stop-color="#5ea5fb"
         offset="1"
         id="stop4" />
    </linearGradient>
    <linearGradient
       id="d"
       x2="1"
       gradientTransform="matrix(14.905727,-4.7106182,4.7106182,14.905727,322.04962,998.26962)"
       gradientUnits="userSpaceOnUse">
      <stop
         stop-color="#fafafa"
         offset="0"
         id="stop7" />
      <stop
         stop-color="#aaa"
         offset="1"
         id="stop8" />
    </linearGradient>
    <linearGradient
       id="e"
       x2="1"
       gradientTransform="matrix(21.439909,0,0,21.439909,26.63554,1159.7788)"
       gradientUnits="userSpaceOnUse">
      <stop
         stop-color="#f0f0f0"
         offset="0"
         id="stop9" />
      <stop
         stop-color="#b7f1ff"
         offset="1"
         id="stop10" />
    </linearGradient>
  </defs>
  <circle
     cx="32.516094"
     cy="31.877844"
     r="0"
     fill="url(#b)"
     stroke-width="1.5715"
     id="circle41"
     style="fill:url(#b)" />
  <g
     aria-label="GZ"
     transform="matrix(1.2212657,0,0,0.81882264,0.4960938,-0.1661539)"
     id="text93"
     style="font-weight:bold;font-size:11.5263px;line-height:1.25;font-family:sans-serif;-inkscape-font-specification:'sans-serif Bold';fill:#f2f2f2;stroke-width:0.288159" />
  <g
     id="g877"
     transform="matrix(1.1,0,0,1.1,-3.1845928,-3.2065454)">
    <rect
       x="6.3010068"
       y="5.4939413"
       width="51.635597"
       height="53.148327"
       rx="10.980581"
       ry="10.720582"
       fill="url(#linearGradient862)"
       stroke-width="3.0541"
       id="rect35-7-3"
       style="fill:#414141;fill-opacity:1;stroke:#dfdfdf;stroke-width:2.27272727;stroke-dasharray:none;stroke-opacity:1" />
    <path
       style="fill:#dfdfdf;fill-opacity:1;stroke:none;stroke-width:1.089;stroke-dasharray:none;stroke-opacity:0.3"
       d="m 27.17826,45.923198 c -2.031783,-0.192191 -3.985077,-1.288727 -5.425035,-3.045497 -1.07309,-1.309183 -1.932904,-3.730963 -2.255721,-6.353534 l -0.06372,-0.517641 -0.689494,-0.03189 c -0.379219,-0.01753 -1.606438,-0.04727 -2.727152,-0.06602 l -2.037661,-0.03418 1.3e-4,-0.593738 c 7.1e-5,-0.32656 0.01551,-1.090748 0.03443,-1.6982 l 0.03422,-1.10446 0.846405,0.01855 c 0.465524,0.01023 1.661996,0.03953 2.658833,0.06526 0.996833,0.02565 1.818816,0.04049 1.826632,0.03289 0.0077,-0.0075 0.03726,-0.323201 0.06539,-0.701329 0.134461,-1.805895 0.677543,-3.817549 1.428399,-5.29094 1.14228,-2.241482 2.744656,-3.559928 4.726806,-3.889259 2.279581,-0.37875 4.537005,0.17757 6.487903,1.598867 0.690213,0.502842 1.864237,1.648295 2.559621,2.497316 0.302483,0.369317 1.023059,1.313487 1.601278,2.098159 1.84561,2.504585 2.446614,3.187216 3.075413,3.493106 0.381621,0.185656 0.52169,0.196916 0.815476,0.0656 0.295685,-0.132177 0.386113,-0.251719 0.45322,-0.599006 0.129674,-0.671224 -0.01663,-1.589835 -0.667542,-4.182832 -0.627464,-2.500683 -0.721629,-3.051955 -0.723201,-4.234075 -0.0012,-0.86806 0.01034,-0.989751 0.139737,-1.458973 0.512444,-1.860625 1.945153,-3.097121 3.588566,-3.097121 1.333933,0 3.100207,0.74169 4.901762,2.058331 0.546304,0.399259 2.02455,1.61104 2.052405,1.682442 0.02537,0.06577 -2.197878,2.562586 -2.252721,2.529594 -0.02619,-0.01588 -0.338716,-0.272054 -0.69393,-0.569229 -1.198214,-1.00238 -2.063918,-1.585159 -2.959606,-1.992357 -0.635796,-0.289041 -0.943983,-0.360273 -1.107509,-0.255964 -0.159234,0.101596 -0.23274,0.369129 -0.233114,0.848663 -6.07e-4,0.800985 0.169047,1.714681 0.717379,3.86366 0.628211,2.462041 0.791009,3.478578 0.741219,4.628413 -0.03451,0.800097 -0.171666,1.349817 -0.498734,2.000961 -0.209042,0.416217 -0.316723,0.556803 -0.746826,0.975202 -0.409146,0.398016 -0.590512,0.532638 -0.975809,0.724317 -1.644641,0.818173 -3.250649,0.698273 -4.786894,-0.357379 -0.834973,-0.57378 -1.818848,-1.624428 -2.868093,-3.062759 -0.30582,-0.419221 -0.790582,-1.084733 -1.077253,-1.47891 -2.008752,-2.762069 -3.607401,-4.13329 -5.187373,-4.449405 -0.761915,-0.152443 -1.829882,-0.05878 -2.370452,0.207893 -0.580494,0.286367 -1.228567,1.057613 -1.669579,1.986897 -0.524631,1.105487 -0.933977,2.738301 -1.023079,4.080893 l -0.03626,0.54648 0.254571,0.0333 c 2.191036,0.286461 3.55704,0.647359 4.867334,1.285945 1.865304,0.909076 3.00035,2.042711 3.990709,3.985744 1.091068,2.140615 1.176635,4.039785 0.249417,5.535842 -0.785887,1.268024 -2.162239,2.059154 -3.862353,2.220088 -0.572753,0.05422 -0.608226,0.05422 -1.17814,3.08e-4 z m 1.726024,-3.60076 c 0.208104,-0.105061 0.300007,-0.188089 0.358125,-0.3235 0.276199,-0.643536 0.0091,-1.710205 -0.732596,-2.925531 -0.707436,-1.159238 -1.545758,-1.771293 -3.112057,-2.272142 -0.567083,-0.181334 -1.935355,-0.44983 -2.295029,-0.450353 l -0.13797,-2.03e-4 0.09944,0.550314 c 0.231402,1.280719 0.597912,2.428486 1.061629,3.324623 0.402614,0.778063 1.089513,1.407821 2.007036,1.840087 0.714063,0.336388 1.139695,0.430537 1.86676,0.412805 0.541237,-0.01289 0.634115,-0.02952 0.884669,-0.156117 z"
       id="path109" />
  </g>
</svg>
