<?xml version="1.0" encoding="UTF-8" standalone="no"?>
<svg
   width="64"
   height="64"
   version="1.1"
   id="svg73"
   sodipodi:docname="audacious.svg"
   inkscape:version="1.4.2 (ebf0e940d0, 2025-05-08)"
   xmlns:inkscape="http://www.inkscape.org/namespaces/inkscape"
   xmlns:sodipodi="http://sodipodi.sourceforge.net/DTD/sodipodi-0.dtd"
   xmlns="http://www.w3.org/2000/svg"
   xmlns:svg="http://www.w3.org/2000/svg"
   xmlns:rdf="http://www.w3.org/1999/02/22-rdf-syntax-ns#"
   xmlns:cc="http://creativecommons.org/ns#"
   xmlns:dc="http://purl.org/dc/elements/1.1/">
  <metadata
     id="metadata77">
    <rdf:RDF>
      <cc:Work
         rdf:about="">
        <dc:format>image/svg+xml</dc:format>
        <dc:type
           rdf:resource="http://purl.org/dc/dcmitype/StillImage" />
      </cc:Work>
    </rdf:RDF>
  </metadata>
  <sodipodi:namedview
     pagecolor="#f5f7fa"
     bordercolor="#666666"
     borderopacity="1"
     objecttolerance="10"
     gridtolerance="10"
     guidetolerance="10"
     inkscape:pageopacity="0"
     inkscape:pageshadow="2"
     inkscape:window-width="1377"
     inkscape:window-height="886"
     id="namedview75"
     showgrid="false"
     inkscape:zoom="6.2890624"
     inkscape:cx="47.622361"
     inkscape:cy="45.396274"
     inkscape:window-x="0"
     inkscape:window-y="57"
     inkscape:window-maximized="0"
     inkscape:current-layer="g877"
     inkscape:document-rotation="0"
     inkscape:pagecheckerboard="0"
     inkscape:showpageshadow="2"
     inkscape:deskcolor="#d1d1d1" />
  <defs
     id="defs29" />
  <circle
     cx="32.516094"
     cy="31.877844"
     r="0"
     fill="url(#b)"
     stroke-width="1.5715"
     id="circle41"
     style="fill:url(#b)" />
  <g
     aria-label="GZ"
     transform="matrix(1.2212657,0,0,0.81882264,0.4960938,-0.1661539)"
     id="text93"
     style="font-weight:bold;font-size:11.5263px;line-height:1.25;font-family:sans-serif;-inkscape-font-specification:'sans-serif Bold';fill:#f2f2f2;stroke-width:0.288159" />
  <g
     id="g877"
     transform="matrix(1.1,0,0,1.1,-3.1845928,-3.2065454)">
    <rect
       x="8.3496294"
       y="8.369586"
       width="47.272728"
       height="47.272728"
       rx="9.8825235"
       ry="9.6485243"
       fill="url(#linearGradient862)"
       stroke-width="3.0541"
       id="rect35-7-3"
       style="fill:#414141;fill-opacity:1;stroke:#dfdfdf;stroke-width:2.04545;stroke-dasharray:none;stroke-opacity:1" />
    <path
       d="m 37.753769,41.967026 c 0.191377,1.580551 0.167858,3.385169 -0.123003,4.894332 -1.756004,0.67369 -3.656317,1.043581 -5.637138,1.043581 -0.807366,0 -1.601823,-0.06153 -2.378051,-0.179994 0.77243,-1.220545 1.412705,-2.751737 1.833477,-4.210764 0.180767,0.0083 0.362286,0.01254 0.544574,0.01254 2.091714,0 4.061901,-0.569639 5.760184,-1.56005 z M 21.737819,37.23523 c 1.074716,2.084122 2.767682,3.806698 4.830533,4.919397 -1.197759,0.890914 -2.842114,1.798539 -4.432548,2.292224 -2.221589,-1.766638 -3.966959,-4.110507 -5.000662,-6.795405 1.46511,0.09872 3.123896,-0.07596 4.602677,-0.416216 z m 21.773854,-5.666002 c 1.376252,0.596219 2.994783,1.576756 4.222922,2.715276 -0.421537,2.884649 -1.629923,5.52853 -3.398844,7.703787 -0.645589,-1.316247 -1.623848,-2.662105 -2.655275,-3.771005 1.162065,-1.797018 1.839551,-3.931263 1.839551,-6.211336 0,-0.146592 -0.0027,-0.291653 -0.0083,-0.436722 z m -7.231368,1.038259 -7.363524,4.631541 c -0.288618,0.17999 -0.525586,0.02489 -0.525586,-0.425333 v -9.073198 c 0,-0.51571 0.23013,-0.603057 0.525586,-0.42609 l 7.363524,4.63154 c 0.327352,0.206586 0.313684,0.463305 0,0.66154 z M 20.473221,32.381152 C 18.99444,31.783412 17.4192,30.862116 16.237392,29.83373 c 0.410898,-2.953009 1.646633,-5.65765 3.4634,-7.870885 0.64711,1.313207 1.623849,2.654515 2.652996,3.760373 -1.191683,1.81221 -1.886643,3.972277 -1.886643,6.282732 0,0.125324 0.0023,0.250643 0.0061,0.375204 z M 37.3611,21.826893 c 1.260802,-0.975221 2.795784,-1.811451 4.361152,-2.362859 2.276274,1.772713 4.066455,4.146207 5.120671,6.873634 -1.465875,-0.101766 -3.128456,0.06761 -4.611792,0.404065 -1.08611,-2.087915 -2.792749,-3.809742 -4.870031,-4.91484 z m -11.096554,0.20051 c -0.138993,-1.502323 -0.07976,-3.360864 0.283299,-4.949016 1.702079,-0.628121 3.537076,-0.971425 5.445742,-0.971425 0.807368,0 1.601823,0.06153 2.378809,0.180007 -0.773187,1.219784 -1.414221,2.751733 -1.834994,4.211525 -0.180767,-0.0084 -0.361532,-0.01293 -0.543815,-0.01293 -2.079561,0 -4.037596,0.562042 -5.729041,1.54182 z"
       fill="#ff3859"
       fill-rule="nonzero"
       id="path3-5"
       style="fill:#dfdfdf;fill-opacity:1;stroke:none;stroke-width:0.520931;stroke-dasharray:none;stroke-opacity:0.6" />
  </g>
</svg>
