<?xml version="1.0" encoding="UTF-8" standalone="no"?>
<svg
   width="64"
   height="64"
   version="1.1"
   id="svg73"
   sodipodi:docname="audacious.svg"
   inkscape:version="1.4.2 (ebf0e940d0, 2025-05-08)"
   xmlns:inkscape="http://www.inkscape.org/namespaces/inkscape"
   xmlns:sodipodi="http://sodipodi.sourceforge.net/DTD/sodipodi-0.dtd"
   xmlns="http://www.w3.org/2000/svg"
   xmlns:svg="http://www.w3.org/2000/svg"
   xmlns:rdf="http://www.w3.org/1999/02/22-rdf-syntax-ns#"
   xmlns:cc="http://creativecommons.org/ns#"
   xmlns:dc="http://purl.org/dc/elements/1.1/">
  <metadata
     id="metadata77">
    <rdf:RDF>
      <cc:Work
         rdf:about="">
        <dc:format>image/svg+xml</dc:format>
        <dc:type
           rdf:resource="http://purl.org/dc/dcmitype/StillImage" />
      </cc:Work>
    </rdf:RDF>
  </metadata>
  <sodipodi:namedview
     pagecolor="#f5f7fa"
     bordercolor="#666666"
     borderopacity="1"
     objecttolerance="10"
     gridtolerance="10"
     guidetolerance="10"
     inkscape:pageopacity="0"
     inkscape:pageshadow="2"
     inkscape:window-width="1377"
     inkscape:window-height="886"
     id="namedview75"
     showgrid="false"
     inkscape:zoom="6.2890624"
     inkscape:cx="47.622361"
     inkscape:cy="45.396274"
     inkscape:window-x="0"
     inkscape:window-y="57"
     inkscape:window-maximized="0"
     inkscape:current-layer="g877"
     inkscape:document-rotation="0"
     inkscape:pagecheckerboard="0"
     inkscape:showpageshadow="2"
     inkscape:deskcolor="#d1d1d1" />
  <defs
     id="defs29" />
  <circle
     cx="32.516094"
     cy="31.877844"
     r="0"
     fill="url(#b)"
     stroke-width="1.5715"
     id="circle41"
     style="fill:url(#b)" />
  <g
     aria-label="GZ"
     transform="matrix(1.2212657,0,0,0.81882264,0.4960938,-0.1661539)"
     id="text93"
     style="font-weight:bold;font-size:11.5263px;line-height:1.25;font-family:sans-serif;-inkscape-font-specification:'sans-serif Bold';fill:#f2f2f2;stroke-width:0.288159" />
  <g
     id="g877"
     transform="matrix(1.1,0,0,1.1,-3.1845928,-3.2065454)">
    <rect
       x="8.3496294"
       y="8.369586"
       width="47.272728"
       height="47.272728"
       rx="9.8825235"
       ry="9.6485243"
       fill="url(#linearGradient862)"
       stroke-width="3.0541"
       id="rect35-7-3"
       style="fill:#414141;fill-opacity:1;stroke:#dfdfdf;stroke-width:2.04545;stroke-dasharray:none;stroke-opacity:1" />
    <path
       style="fill:#dfdfdf;fill-opacity:1;stroke:none;stroke-width:0.468838;stroke-dasharray:none;stroke-opacity:0.6"
       d="m 31.579104,47.291407 c -0.107262,-0.02062 -3.11994,-1.272044 -6.69484,-2.781185 -5.250712,-2.216591 -6.544603,-2.79376 -6.732866,-3.003319 -0.23303,-0.259392 -0.23305,-0.259489 -0.23305,-1.571625 0,-0.721712 0.01543,-1.312208 0.03426,-1.312208 0.0444,0 4.038169,1.655744 9.118192,3.780244 l 4.025377,1.68343 0.889821,-0.0024 0.88982,-0.0024 1.525406,-0.641633 c 3.185496,-1.340139 11.569977,-4.816738 11.615982,-4.816738 0.02673,0 0.03592,0.607203 0.02126,1.349336 -0.02578,1.287252 -0.03632,1.359237 -0.2293,1.564412 -0.120078,0.12765 -0.826245,0.479187 -1.737267,0.864804 -7.589163,3.212341 -11.397567,4.796907 -11.692878,4.865098 -0.363828,0.08402 -0.472053,0.08735 -0.799714,0.02416 z M 31.308028,42.974754 C 31.1348,42.906536 23.80762,39.867828 20.672555,38.564055 c -1.398287,-0.581499 -2.590012,-1.096797 -2.648274,-1.145091 -0.137851,-0.114281 -0.136084,-0.445012 0.0029,-0.560441 0.09205,-0.07639 11.888012,-5.015035 11.978422,-5.015035 0.01713,0 0.03116,1.132012 0.03116,2.515588 0,2.378414 0.0096,2.535537 0.177095,2.881424 0.559482,1.155739 2.247604,1.418885 3.172029,0.494461 0.518068,-0.518066 0.549131,-0.714592 0.549131,-3.47396 0,-1.914455 0.02266,-2.426648 0.10594,-2.393589 1.326672,0.526755 11.83174,4.933719 11.906643,4.994938 0.05821,0.04762 0.105939,0.172595 0.105939,0.277692 0,0.105102 -0.04766,0.230525 -0.105939,0.278659 -0.05825,0.04813 -1.593202,0.704972 -3.410978,1.459592 -1.817771,0.75462 -4.773248,1.985296 -6.567722,2.734834 -3.111342,1.299595 -3.292152,1.363938 -3.89826,1.387259 -0.34957,0.01352 -0.692788,0.0017 -0.762703,-0.02546 z m -6.545333,-4.904442 c 0.616375,-0.183066 0.952175,-0.541008 0.952175,-1.01502 0,-0.297701 -0.04962,-0.417941 -0.258833,-0.627149 -0.695796,-0.695798 -2.412888,-0.674433 -3.038236,0.03779 -0.894916,1.01925 0.68202,2.098191 2.344894,1.604371 z m 6.685695,-0.98388 C 31.068184,36.865424 31.058732,36.72673 31.059927,31.386101 l 0.0011,-5.051026 h 0.886189 0.886186 v 5.215657 5.215656 l -0.208009,0.208003 c -0.164093,0.164056 -0.293816,0.207456 -0.614401,0.205425 -0.223512,-0.0015 -0.476701,-0.04346 -0.562634,-0.0934 z M 31.425584,25.233455 C 30.002,25.024947 28.742885,24.131642 28.141531,22.903515 28.00892,22.63269 27.839077,22.11444 27.764102,21.751852 c -0.115728,-0.559666 -0.120955,-0.76574 -0.03461,-1.364245 0.505068,-3.500869 4.751804,-4.946965 7.264799,-2.473803 1.634651,1.608741 1.722124,4.190126 0.200438,5.915199 -0.900875,1.021288 -2.44835,1.597906 -3.769145,1.404452 z"
       id="path1" />
  </g>
</svg>
