<?xml version="1.0" encoding="UTF-8" standalone="no"?>
<svg
   width="64"
   height="64"
   version="1.1"
   id="svg73"
   sodipodi:docname="accessories-character-map.svg"
   inkscape:version="1.3.2 (091e20ef0f, 2023-11-25)"
   xmlns:inkscape="http://www.inkscape.org/namespaces/inkscape"
   xmlns:sodipodi="http://sodipodi.sourceforge.net/DTD/sodipodi-0.dtd"
   xmlns="http://www.w3.org/2000/svg"
   xmlns:svg="http://www.w3.org/2000/svg"
   xmlns:rdf="http://www.w3.org/1999/02/22-rdf-syntax-ns#"
   xmlns:cc="http://creativecommons.org/ns#"
   xmlns:dc="http://purl.org/dc/elements/1.1/">
  <metadata
     id="metadata77">
    <rdf:RDF>
      <cc:Work
         rdf:about="">
        <dc:format>image/svg+xml</dc:format>
        <dc:type
           rdf:resource="http://purl.org/dc/dcmitype/StillImage" />
      </cc:Work>
    </rdf:RDF>
  </metadata>
  <sodipodi:namedview
     pagecolor="#f5f7fa"
     bordercolor="#666666"
     borderopacity="1"
     objecttolerance="10"
     gridtolerance="10"
     guidetolerance="10"
     inkscape:pageopacity="0"
     inkscape:pageshadow="2"
     inkscape:window-width="1377"
     inkscape:window-height="886"
     id="namedview75"
     showgrid="false"
     inkscape:zoom="4.4470387"
     inkscape:cx="47.784608"
     inkscape:cy="14.054296"
     inkscape:window-x="181"
     inkscape:window-y="77"
     inkscape:window-maximized="0"
     inkscape:current-layer="g877"
     inkscape:document-rotation="0"
     inkscape:pagecheckerboard="0"
     inkscape:showpageshadow="2"
     inkscape:deskcolor="#d1d1d1" />
  <defs
     id="defs29">
    <linearGradient
       id="b"
       x1="399.57"
       x2="399.57"
       y1="545.8"
       y2="517.8"
       gradientTransform="matrix(2.1429,0,0,2.1429,-825.86391,-1107.6662)"
       gradientUnits="userSpaceOnUse">
      <stop
         stop-color="#3889e9"
         offset="0"
         id="stop2" />
      <stop
         stop-color="#5ea5fb"
         offset="1"
         id="stop4" />
    </linearGradient>
    <linearGradient
       id="d"
       x2="1"
       gradientTransform="matrix(14.905727,-4.7106182,4.7106182,14.905727,322.04962,998.26962)"
       gradientUnits="userSpaceOnUse">
      <stop
         stop-color="#fafafa"
         offset="0"
         id="stop7" />
      <stop
         stop-color="#aaa"
         offset="1"
         id="stop8" />
    </linearGradient>
    <linearGradient
       id="e"
       x2="1"
       gradientTransform="matrix(21.439909,0,0,21.439909,26.63554,1159.7788)"
       gradientUnits="userSpaceOnUse">
      <stop
         stop-color="#f0f0f0"
         offset="0"
         id="stop9" />
      <stop
         stop-color="#b7f1ff"
         offset="1"
         id="stop10" />
    </linearGradient>
  </defs>
  <circle
     cx="32.516094"
     cy="31.877844"
     r="0"
     fill="url(#b)"
     stroke-width="1.5715"
     id="circle41"
     style="fill:url(#b)" />
  <g
     aria-label="GZ"
     transform="matrix(1.2212657,0,0,0.81882264,0.4960938,-0.1661539)"
     id="text93"
     style="font-weight:bold;font-size:11.5263px;line-height:1.25;font-family:sans-serif;-inkscape-font-specification:'sans-serif Bold';fill:#f2f2f2;stroke-width:0.288159" />
  <g
     id="g877"
     transform="matrix(1.1,0,0,1.1,-3.1845928,-3.2065454)">
    <rect
       x="6.3010068"
       y="5.4939413"
       width="51.635597"
       height="53.148327"
       rx="10.980581"
       ry="10.720582"
       fill="url(#linearGradient862)"
       stroke-width="3.0541"
       id="rect35-7-3"
       style="fill:#414141;fill-opacity:1;stroke:#dfdfdf;stroke-width:2.27272727;stroke-dasharray:none;stroke-opacity:1" />
    <g
       id="g2"
       transform="matrix(3.7043879,0,0,3.7043879,1.5788235,1.2202214)"
       style="fill:#dfdfdf;fill-opacity:1">
      <path
         fill="#f5f7fa"
         d="M 10.251383,12.403401 9.8454933,11.610934 c -0.4536417,0.290203 -1.2296084,0.502268 -1.9816983,0.502268 -2.2204563,0 -3.4261884,-1.071507 -3.4261884,-3.1363878 0,-2.2434664 1.8265045,-4.1632471 4.2737821,-4.1632471 2.1488293,0 3.4142503,1.0045378 3.4142503,2.8015443 0,1.1831204 -0.573022,2.3327554 -1.56387,2.3327554 -0.358138,0 -0.501392,-0.1674228 -0.501392,-0.4911063 0,-0.1674212 0.03581,-0.4799463 0.08356,-0.7366598 L 10.514018,6.4766336 C 10.132003,6.2534046 9.4992935,6.1194654 8.9262713,6.1194654 c -1.4564283,0 -2.9247945,0.9264066 -2.9247945,2.93548 0,0.9710536 0.5133315,1.7523596 1.754877,1.7523596 0.5610831,0 1.0624763,-0.200906 1.3967397,-0.591563 h 0.047755 c 0.16713,0.346011 0.5491446,0.591563 1.2176695,0.591563 1.671313,0 2.757666,-1.417514 2.757666,-3.3149721 0,-2.1653356 -1.707126,-3.5716882 -4.3095974,-3.5716882 -3.1516164,0 -5.4914518,2.2881134 -5.4914518,5.1677858 0,2.3885645 1.5041801,3.9065325 4.3095963,3.9065325 1.0027857,0 1.9578203,-0.234394 2.5666569,-0.591562 z M 7.9712363,9.9590288 c -0.6207722,0 -0.9192213,-0.3348443 -0.9192213,-1.0826654 0,-1.1161547 0.7520901,-1.8974606 1.7429398,-1.8974606 0.2268194,0 0.4417035,0.044647 0.5849579,0.089293 L 9.1053411,8.8205553 C 9.0814687,8.9433302 9.0456577,9.255854 9.0456577,9.389791 8.8665894,9.6911537 8.4606986,9.9590288 7.9712427,9.9590288 Z"
         id="path42"
         style="fill:#dfdfdf;fill-opacity:1;stroke:none;stroke-width:0.305588;stroke-dasharray:none;stroke-opacity:0.3" />
    </g>
  </g>
</svg>
