<?xml version="1.0" encoding="UTF-8" standalone="no"?>
<svg
   width="64"
   height="64"
   version="1.1"
   id="svg73"
   sodipodi:docname="gnome-window-manager.svg"
   inkscape:version="1.3.2 (091e20ef0f, 2023-11-25)"
   xmlns:inkscape="http://www.inkscape.org/namespaces/inkscape"
   xmlns:sodipodi="http://sodipodi.sourceforge.net/DTD/sodipodi-0.dtd"
   xmlns:xlink="http://www.w3.org/1999/xlink"
   xmlns="http://www.w3.org/2000/svg"
   xmlns:svg="http://www.w3.org/2000/svg"
   xmlns:rdf="http://www.w3.org/1999/02/22-rdf-syntax-ns#"
   xmlns:cc="http://creativecommons.org/ns#"
   xmlns:dc="http://purl.org/dc/elements/1.1/">
  <metadata
     id="metadata77">
    <rdf:RDF>
      <cc:Work
         rdf:about="">
        <dc:format>image/svg+xml</dc:format>
        <dc:type
           rdf:resource="http://purl.org/dc/dcmitype/StillImage" />
      </cc:Work>
    </rdf:RDF>
  </metadata>
  <sodipodi:namedview
     pagecolor="#f5f7fa"
     bordercolor="#666666"
     borderopacity="1"
     objecttolerance="10"
     gridtolerance="10"
     guidetolerance="10"
     inkscape:pageopacity="0"
     inkscape:pageshadow="2"
     inkscape:window-width="1226"
     inkscape:window-height="661"
     id="namedview75"
     showgrid="false"
     inkscape:zoom="6.2890624"
     inkscape:cx="4.2931678"
     inkscape:cy="30.926709"
     inkscape:window-x="35"
     inkscape:window-y="32"
     inkscape:window-maximized="0"
     inkscape:current-layer="g877"
     inkscape:document-rotation="0"
     inkscape:pagecheckerboard="0"
     inkscape:showpageshadow="2"
     inkscape:deskcolor="#d1d1d1" />
  <defs
     id="defs29">
    <linearGradient
       id="b"
       x1="399.57"
       x2="399.57"
       y1="545.8"
       y2="517.8"
       gradientTransform="matrix(2.1429,0,0,2.1429,-825.86391,-1107.6662)"
       gradientUnits="userSpaceOnUse">
      <stop
         stop-color="#3889e9"
         offset="0"
         id="stop2" />
      <stop
         stop-color="#5ea5fb"
         offset="1"
         id="stop4" />
    </linearGradient>
    <linearGradient
       id="d"
       x2="1"
       gradientTransform="matrix(14.905727,-4.7106182,4.7106182,14.905727,322.04962,998.26962)"
       gradientUnits="userSpaceOnUse">
      <stop
         stop-color="#fafafa"
         offset="0"
         id="stop7" />
      <stop
         stop-color="#aaa"
         offset="1"
         id="stop8" />
    </linearGradient>
    <linearGradient
       id="e"
       x2="1"
       gradientTransform="matrix(21.439909,0,0,21.439909,26.63554,1159.7788)"
       gradientUnits="userSpaceOnUse">
      <stop
         stop-color="#f0f0f0"
         offset="0"
         id="stop9" />
      <stop
         stop-color="#b7f1ff"
         offset="1"
         id="stop10" />
    </linearGradient>
    <linearGradient
       id="c"
       x2="1"
       gradientTransform="matrix(12.1408,0,0,12.1408,23.2412,24)"
       gradientUnits="userSpaceOnUse"
       xlink:href="#b-3" />
    <linearGradient
       id="b-3">
      <stop
         stop-color="#2e3e46"
         offset="0"
         id="stop3" />
      <stop
         stop-color="#47606a"
         offset="1"
         id="stop4-6" />
    </linearGradient>
    <linearGradient
       id="d-7"
       x2="1"
       gradientTransform="matrix(12.1408,0,0,12.1408,12.618,24)"
       gradientUnits="userSpaceOnUse"
       xlink:href="#b-3" />
    <linearGradient
       id="e-3"
       x2="1"
       gradientTransform="matrix(22.764,0,0,22.764,12.618,24.7782)"
       gradientUnits="userSpaceOnUse">
      <stop
         stop-color="#ff9300"
         offset="0"
         id="stop5" />
      <stop
         stop-color="#ffd702"
         offset="1"
         id="stop6" />
    </linearGradient>
  </defs>
  <circle
     cx="32.516094"
     cy="31.877844"
     r="0"
     fill="url(#b)"
     stroke-width="1.5715"
     id="circle41"
     style="fill:url(#b)" />
  <g
     aria-label="GZ"
     transform="matrix(1.2212657,0,0,0.81882264,0.4960938,-0.1661539)"
     id="text93"
     style="font-weight:bold;font-size:11.5263px;line-height:1.25;font-family:sans-serif;-inkscape-font-specification:'sans-serif Bold';fill:#f2f2f2;stroke-width:0.288159" />
  <g
     id="g877"
     transform="matrix(1.1,0,0,1.1,-3.1845928,-3.2065454)">
    <rect
       x="6.3010068"
       y="5.4939413"
       width="51.635597"
       height="53.148327"
       rx="10.980581"
       ry="10.720582"
       fill="url(#linearGradient862)"
       stroke-width="3.0541"
       id="rect35-7-3"
       style="fill:#414141;fill-opacity:1;stroke:#dfdfdf;stroke-width:2.27272727;stroke-dasharray:none;stroke-opacity:1" />
    <path
       id="path5"
       style="fill:#dfdfdf;stroke:none;stroke-width:0.113195;stroke-opacity:1;fill-opacity:1"
       d="m 31.279318,11.831757 -1.075995,0.607245 c -6.060038,3.426505 -9.352708,7.657391 -10.307173,13.240412 -0.250613,1.465929 -0.30576,3.534559 -0.115411,4.373224 0.546984,2.409989 1.876169,4.791757 3.545809,6.352984 2.519112,2.355537 6.412717,3.105185 9.232954,1.777343 0.920449,-0.433382 1.962303,-1.506324 2.235441,-2.301136 0.439021,-1.277521 0.154945,-3.254175 -0.580611,-4.034091 -0.301321,-0.319494 -0.438864,-0.379105 -0.855823,-0.378196 -0.288911,6.43e-4 -0.748159,0.118128 -1.100853,0.282315 -0.80189,0.373273 -1.234837,0.375238 -1.328125,0.0035 -0.09238,-0.368089 0.228821,-0.87932 1.026279,-1.633523 0.899505,-0.850717 1.477235,-1.086631 2.661576,-1.086647 0.842358,-1.3e-5 1.047796,0.04209 1.642401,0.339133 0.975756,0.487447 2.156855,1.706763 2.68821,2.773437 0.635501,1.275745 0.811568,2.085292 0.809659,3.73402 -0.0019,1.632421 -0.16628,2.37838 -0.84517,3.831677 -1.849476,3.959157 -6.605015,7.035401 -11.502131,7.441405 -3.068964,0.254445 -7.629095,-1.070192 -11.074219,-3.217323 -0.498053,-0.310407 -0.923363,-0.544627 -0.946378,-0.522018 -0.02302,0.02261 0.289596,0.463572 0.694247,0.980114 0.804903,1.027469 2.514859,2.752281 3.449929,3.480114 2.894625,2.253096 6.561756,3.765946 10.142046,4.183239 0.44586,0.05197 1.384825,0.100218 2.086292,0.108309 l 1.274859,0.01598 1.044034,-0.585938 c 5.627789,-3.154422 8.925482,-7.274336 10.065696,-12.5799 0.197941,-0.921048 0.247403,-1.542009 0.25213,-3.078835 0.0055,-1.822396 -0.01091,-1.9741 -0.31605,-2.885298 -0.797097,-2.380242 -2.18589,-4.495672 -3.789063,-5.772373 -0.857828,-0.683139 -2.485134,-1.487126 -3.581321,-1.768465 -1.046118,-0.26849 -2.914389,-0.274765 -3.883168,-0.01243 -2.655478,0.719078 -4.013096,2.47095 -3.684304,4.753197 0.174595,1.211921 0.598621,2.082386 1.122159,2.301136 0.475079,0.198499 0.815779,0.149296 1.795099,-0.259234 0.535138,-0.223238 0.723158,-0.255842 0.933949,-0.159801 0.387742,0.176669 0.328181,0.529764 -0.20419,1.219816 -0.891953,1.15614 -1.991531,1.753234 -3.224431,1.752485 -0.884441,-5.36e-4 -1.441235,-0.15286 -2.112927,-0.578834 -2.407406,-1.526733 -3.617709,-4.808988 -2.958096,-8.018467 0.908258,-4.419312 5.242433,-8.183089 10.731533,-9.318181 2.219334,-0.458937 5.12617,-0.158137 7.974078,0.823863 1.385319,0.477679 3.51001,1.484454 4.59517,2.178622 0.360383,0.230535 0.681836,0.392384 0.715554,0.358666 0.105638,-0.105642 -1.157163,-1.661764 -2.199929,-2.711297 -3.727337,-3.751477 -8.570988,-5.861253 -13.732244,-5.980064 z m -2.835582,0.316051 c -0.02451,-0.0084 -0.08151,-0.0021 -0.165128,0.0142 -7.714026,1.506128 -13.966102,7.41615 -15.846947,14.980471 -0.458828,1.845299 -0.590841,2.973654 -0.585937,5.005326 0.0065,2.684006 0.472257,5.008321 1.514559,7.565696 l 0.477628,1.170099 1.081321,0.814986 c 3.264229,2.45891 6.821881,3.950551 10.52912,4.414063 1.417213,0.177194 3.657941,-0.146458 5.433239,-0.784801 3.233676,-1.162734 6.128288,-3.705065 7.25142,-6.372515 0.910899,-2.1634 0.882607,-4.281917 -0.08167,-6.242897 -0.473936,-0.963807 -1.407451,-1.976891 -2.185725,-2.373935 -0.697922,-0.356055 -1.633468,-0.411789 -2.210582,-0.129616 l -0.45277,0.221945 0.340909,0.01243 c 1.310595,0.04495 2.259285,1.387483 2.487571,3.519176 0.359557,3.357505 -2.475545,5.882457 -6.606889,5.882457 -2.780292,0 -5.063723,-0.968782 -7.088068,-3.006037 -1.717134,-1.728078 -2.786773,-3.613728 -3.41087,-6.013847 -0.491823,-1.891421 -0.336651,-4.652173 0.410155,-7.31179 1.206999,-4.298503 3.982159,-7.88505 8.322089,-10.754617 0.645072,-0.426521 0.860101,-0.585574 0.786577,-0.610796 z m 9.231178,5.862927 c -0.834603,-0.0088 -1.641877,0.06375 -2.409445,0.22017 -4.044137,0.824143 -7.557805,3.3937 -9.133523,6.679688 -1.035311,2.159034 -1.055848,4.496773 -0.05859,6.523438 0.468305,0.951712 1.448887,1.995022 2.249645,2.393465 0.620659,0.308831 1.669665,0.361957 2.153764,0.10831 l 0.301847,-0.158025 -0.584162,-0.150924 c -1.105523,-0.283336 -1.765986,-1.290575 -2.052558,-3.133877 -0.260964,-1.678596 0.220667,-3.218685 1.35476,-4.32706 0.784496,-0.766707 1.697087,-1.273107 2.917258,-1.619318 1.351986,-0.383615 3.456198,-0.357226 4.863281,0.06215 2.81004,0.837511 4.851647,2.473357 6.477272,5.189986 1.111039,1.856686 1.729404,3.948113 1.729404,5.846946 0,6.214051 -3.081155,11.755152 -8.574218,15.417259 -0.482047,0.32137 -0.928513,0.633484 -0.990767,0.694246 -0.07418,0.07241 -0.03473,0.08975 0.113636,0.04972 0.124514,-0.0336 0.658673,-0.169001 1.187854,-0.301847 3.6427,-0.914454 7.558234,-3.409266 10.065697,-6.413353 4.777664,-5.723916 6.110611,-12.902619 3.68608,-19.84375 -0.640769,-1.83444 -0.825818,-2.12953 -1.766691,-2.830255 -3.772386,-2.809527 -7.913925,-4.3688 -11.530543,-4.406963 z" />
  </g>
</svg>
