<?xml version="1.0" encoding="UTF-8" standalone="no"?>
<svg
   width="64"
   height="64"
   version="1.1"
   id="svg73"
   sodipodi:docname="New name 1.svg"
   inkscape:version="1.3.2 (091e20ef0f, 2023-11-25)"
   xmlns:inkscape="http://www.inkscape.org/namespaces/inkscape"
   xmlns:sodipodi="http://sodipodi.sourceforge.net/DTD/sodipodi-0.dtd"
   xmlns="http://www.w3.org/2000/svg"
   xmlns:svg="http://www.w3.org/2000/svg"
   xmlns:rdf="http://www.w3.org/1999/02/22-rdf-syntax-ns#"
   xmlns:cc="http://creativecommons.org/ns#"
   xmlns:dc="http://purl.org/dc/elements/1.1/">
  <metadata
     id="metadata77">
    <rdf:RDF>
      <cc:Work
         rdf:about="">
        <dc:format>image/svg+xml</dc:format>
        <dc:type
           rdf:resource="http://purl.org/dc/dcmitype/StillImage" />
      </cc:Work>
    </rdf:RDF>
  </metadata>
  <sodipodi:namedview
     pagecolor="#f5f7fa"
     bordercolor="#666666"
     borderopacity="1"
     objecttolerance="10"
     gridtolerance="10"
     guidetolerance="10"
     inkscape:pageopacity="0"
     inkscape:pageshadow="2"
     inkscape:window-width="1377"
     inkscape:window-height="886"
     id="namedview75"
     showgrid="false"
     inkscape:zoom="4.4470387"
     inkscape:cx="47.784608"
     inkscape:cy="14.054296"
     inkscape:window-x="181"
     inkscape:window-y="77"
     inkscape:window-maximized="0"
     inkscape:current-layer="g877"
     inkscape:document-rotation="0"
     inkscape:pagecheckerboard="0"
     inkscape:showpageshadow="2"
     inkscape:deskcolor="#d1d1d1" />
  <defs
     id="defs29">
    <linearGradient
       id="b"
       x1="399.57"
       x2="399.57"
       y1="545.8"
       y2="517.8"
       gradientTransform="matrix(2.1429,0,0,2.1429,-825.86391,-1107.6662)"
       gradientUnits="userSpaceOnUse">
      <stop
         stop-color="#3889e9"
         offset="0"
         id="stop2" />
      <stop
         stop-color="#5ea5fb"
         offset="1"
         id="stop4" />
    </linearGradient>
    <linearGradient
       id="d"
       x2="1"
       gradientTransform="matrix(14.905727,-4.7106182,4.7106182,14.905727,322.04962,998.26962)"
       gradientUnits="userSpaceOnUse">
      <stop
         stop-color="#fafafa"
         offset="0"
         id="stop7" />
      <stop
         stop-color="#aaa"
         offset="1"
         id="stop8" />
    </linearGradient>
    <linearGradient
       id="e"
       x2="1"
       gradientTransform="matrix(21.439909,0,0,21.439909,26.63554,1159.7788)"
       gradientUnits="userSpaceOnUse">
      <stop
         stop-color="#f0f0f0"
         offset="0"
         id="stop9" />
      <stop
         stop-color="#b7f1ff"
         offset="1"
         id="stop10" />
    </linearGradient>
    <linearGradient
       id="c"
       x1="11.9407"
       x2="34.695301"
       y1="635.88501"
       y2="635.88501"
       gradientUnits="userSpaceOnUse"
       gradientTransform="matrix(1.61051,0,0,1.61051,-4.3698367,2.7719769)">
      <stop
         stop-color="#f6fbff"
         offset="0"
         id="stop5" />
      <stop
         stop-color="#eaeff2"
         offset="1"
         id="stop6" />
    </linearGradient>
  </defs>
  <circle
     cx="32.516094"
     cy="31.877844"
     r="0"
     fill="url(#b)"
     stroke-width="1.5715"
     id="circle41"
     style="fill:url(#b)" />
  <g
     aria-label="GZ"
     transform="matrix(1.2212657,0,0,0.81882264,0.4960938,-0.1661539)"
     id="text93"
     style="font-weight:bold;font-size:11.5263px;line-height:1.25;font-family:sans-serif;-inkscape-font-specification:'sans-serif Bold';fill:#f2f2f2;stroke-width:0.288159" />
  <g
     id="g877"
     transform="matrix(1.1,0,0,1.1,-3.1845928,-3.2065454)">
    <rect
       x="6.3010068"
       y="5.4939413"
       width="51.635597"
       height="53.148327"
       rx="10.980581"
       ry="10.720582"
       fill="url(#linearGradient862)"
       stroke-width="3.0541"
       id="rect35-7-3"
       style="fill:#414141;fill-opacity:1;stroke:#dfdfdf;stroke-width:2.27272727;stroke-dasharray:none;stroke-opacity:1" />
    <path
       style="fill:#dfdfdf;fill-opacity:1;stroke:none;stroke-width:1.31769;stroke-dasharray:none;stroke-dashoffset:2.2;stroke-opacity:0.3"
       d="m 21.653914,49.557906 -1.854273,-2.345532 -1.778123,-5.71e-4 C 15.910897,47.211136 15.38652,47.001312 15.109045,46.046645 14.990562,45.639038 14.955153,40.834186 14.987273,29.530619 l 0.04532,-15.941233 0.565341,-0.518065 0.565339,-0.518065 h 15.977154 c 17.543271,0 16.601936,-0.04975 17.094687,0.903147 0.201044,0.388694 0.229581,2.451567 0.229581,16.567859 v 16.123883 l -0.441646,0.494297 -0.4416,0.494252 -10.601445,0.0407 -10.601456,0.0407 -1.848924,2.34293 c -1.016893,1.288698 -1.887741,2.342834 -1.935203,2.342618 -0.04732,-2.14e-4 -0.920719,-1.055888 -1.940573,-2.345919 z m 1.334503,-7.950801 c 0.263958,-0.141314 0.292747,-0.331749 0.292747,-1.93728 0,-1.183113 -0.06096,-1.841546 -0.181634,-1.962221 -0.250462,-0.250468 -3.624094,-0.250468 -3.874554,0 -0.119669,0.119693 -0.181634,0.761072 -0.181634,1.881057 0,2.20236 -0.02589,2.175117 2.063985,2.175117 0.873573,0 1.720052,-0.07057 1.881067,-0.156683 z m 21.436549,-0.139898 c 1.121738,-0.683959 1.337002,-2.316098 0.435289,-3.300212 l -0.518019,-0.565336 -7.730318,-0.04184 c -6.793588,-0.03676 -7.786185,-0.01291 -8.191306,0.196534 -1.417322,0.732925 -1.401992,3.045731 0.02488,3.748642 0.455847,0.224548 1.324382,0.252172 8.003158,0.254824 7.166854,0.0027 7.512844,-0.01012 7.976358,-0.29251 z M 22.94479,31.841782 c 0.313313,-0.219442 0.336372,-0.351044 0.336372,-1.917793 0,-2.241163 0.005,-2.235747 -2.092601,-2.235747 -2.154519,0 -2.145201,-0.0096 -2.145201,2.209448 0,2.154856 0.02443,2.179698 2.1189,2.179698 1.06392,0 1.535056,-0.06227 1.782524,-0.235607 z m 21.291697,-0.06389 c 0.770102,-0.372799 1.166993,-1.02042 1.166993,-1.904214 0,-0.844746 -0.392118,-1.534449 -1.082314,-1.903467 -0.493553,-0.2639 -0.996018,-0.281977 -7.83722,-0.281977 -7.884714,0 -7.902813,0.0017 -8.646185,0.807978 -0.463869,0.503151 -0.603567,1.673345 -0.275464,2.307823 0.298125,0.576512 0.728793,0.957122 1.26472,1.117725 0.237863,0.07129 3.663104,0.135457 7.611651,0.142612 6.858697,0.01237 7.206791,-3.6e-4 7.797823,-0.286472 z M 23.099543,22.058029 c 0.250461,-0.250467 0.250461,-3.624092 0,-3.874556 -0.250462,-0.250468 -3.624094,-0.250468 -3.874554,0 -0.250462,0.250467 -0.250462,3.62409 0,3.874556 0.250461,0.250466 3.624093,0.250466 3.874554,0 z m 21.214846,-0.04312 c 1.475796,-0.763165 1.475796,-3.025149 0,-3.788314 -0.664651,-0.343708 -15.235315,-0.33488 -15.901531,0.0096 -1.350396,0.698317 -1.405164,2.906142 -0.09194,3.706851 0.463421,0.282562 0.813191,0.295469 8.021714,0.296004 6.370438,4.79e-4 7.604448,-0.03425 7.971777,-0.224175 z"
       id="path79" />
  </g>
</svg>
