<?xml version="1.0" encoding="UTF-8" standalone="no"?>
<svg
   width="64"
   height="64"
   version="1.1"
   id="svg73"
   sodipodi:docname="audacious.svg"
   inkscape:version="1.4.2 (ebf0e940d0, 2025-05-08)"
   xmlns:inkscape="http://www.inkscape.org/namespaces/inkscape"
   xmlns:sodipodi="http://sodipodi.sourceforge.net/DTD/sodipodi-0.dtd"
   xmlns="http://www.w3.org/2000/svg"
   xmlns:svg="http://www.w3.org/2000/svg"
   xmlns:rdf="http://www.w3.org/1999/02/22-rdf-syntax-ns#"
   xmlns:cc="http://creativecommons.org/ns#"
   xmlns:dc="http://purl.org/dc/elements/1.1/">
  <metadata
     id="metadata77">
    <rdf:RDF>
      <cc:Work
         rdf:about="">
        <dc:format>image/svg+xml</dc:format>
        <dc:type
           rdf:resource="http://purl.org/dc/dcmitype/StillImage" />
      </cc:Work>
    </rdf:RDF>
  </metadata>
  <sodipodi:namedview
     pagecolor="#f5f7fa"
     bordercolor="#666666"
     borderopacity="1"
     objecttolerance="10"
     gridtolerance="10"
     guidetolerance="10"
     inkscape:pageopacity="0"
     inkscape:pageshadow="2"
     inkscape:window-width="1377"
     inkscape:window-height="886"
     id="namedview75"
     showgrid="false"
     inkscape:zoom="6.2890624"
     inkscape:cx="47.622361"
     inkscape:cy="45.396274"
     inkscape:window-x="0"
     inkscape:window-y="57"
     inkscape:window-maximized="0"
     inkscape:current-layer="g877"
     inkscape:document-rotation="0"
     inkscape:pagecheckerboard="0"
     inkscape:showpageshadow="2"
     inkscape:deskcolor="#d1d1d1" />
  <defs
     id="defs29" />
  <circle
     cx="32.516094"
     cy="31.877844"
     r="0"
     fill="url(#b)"
     stroke-width="1.5715"
     id="circle41"
     style="fill:url(#b)" />
  <g
     aria-label="GZ"
     transform="matrix(1.2212657,0,0,0.81882264,0.4960938,-0.1661539)"
     id="text93"
     style="font-weight:bold;font-size:11.5263px;line-height:1.25;font-family:sans-serif;-inkscape-font-specification:'sans-serif Bold';fill:#f2f2f2;stroke-width:0.288159" />
  <g
     id="g877"
     transform="matrix(1.1,0,0,1.1,-3.1845928,-3.2065454)">
    <rect
       x="8.3496294"
       y="8.369586"
       width="47.272728"
       height="47.272728"
       rx="9.8825235"
       ry="9.6485243"
       fill="url(#linearGradient862)"
       stroke-width="3.0541"
       id="rect35-7-3"
       style="fill:#414141;fill-opacity:1;stroke:#dfdfdf;stroke-width:2.04545;stroke-dasharray:none;stroke-opacity:1" />
    <path
       id="path30"
       style="fill:#dfdfdf;fill-opacity:1;stroke:none;stroke-width:0.496125;stroke-dasharray:none;stroke-opacity:0.6"
       d="m 32.102152,16.498168 c -3.56112,0 -6.115264,0.04515 -6.343036,0.110466 -0.468213,0.134283 -0.953919,0.58068 -1.273259,1.172484 -0.229946,0.426148 -0.241083,0.605833 -0.273254,3.98838 l -0.03487,3.542641 -2.922487,0.002 c -1.788118,3.8e-4 -3.095215,0.04668 -3.36823,0.122094 -1.802398,0.497932 -2.172424,3.679226 -0.575582,4.947684 l 0.428295,0.339146 3.224812,0.03293 3.224813,0.03293 v 2.825587 c 0,2.998122 0.05759,3.411842 0.563955,4.060086 0.128691,0.16474 0.419909,0.413747 0.64535,0.552328 l 0.408917,0.251953 6.312026,-0.02933 6.312031,-0.02933 0.397285,-0.30231 c 0.218949,-0.167024 0.53018,-0.567039 0.689924,-0.887602 l 0.290682,-0.583334 v -2.933625 -2.934114 h 3.060083 c 1.891302,0 3.179973,-0.0449 3.374042,-0.118217 0.424299,-0.160312 0.897449,-0.624514 1.187986,-1.16473 0.194777,-0.362191 0.240327,-0.634686 0.240327,-1.449615 0,-1.081154 -0.188949,-1.62728 -0.742251,-2.143416 -0.588747,-0.549178 -0.878482,-0.591089 -4.104662,-0.591089 h -3.015511 v -3.451572 c 0,-2.149908 -0.04479,-3.567932 -0.118203,-3.763575 -0.221579,-0.59071 -0.687813,-1.14302 -1.156982,-1.370144 -0.453788,-0.219706 -0.663836,-0.228684 -6.432186,-0.228684 z m 0.02713,1.255815 3.753884,0.02714 0.428295,0.3469 c 0.23541,0.190605 0.553673,0.591048 0.707347,0.889521 l 0.279071,0.542635 0.03682,5.023268 c 0.02455,3.413457 -0.0025,5.207357 -0.08721,5.59497 -0.161973,0.741979 -0.606132,1.413289 -1.125951,1.705443 -0.398369,0.223858 -0.567091,0.234898 -4.137606,0.234498 -3.467703,-3.9e-4 -3.74596,-0.01648 -4.071713,-0.215118 -0.412891,-0.251769 -0.843424,-0.802215 -1.052327,-1.346901 -0.192968,-0.503135 -0.29134,-9.445332 -0.116279,-10.569789 0.142255,-0.913741 0.5873,-1.664349 1.187987,-2.007756 0.438541,-0.250705 0.474569,-0.252966 4.197681,-0.22481 z m -0.149226,2.30427 c -0.289291,0.0066 -0.568667,0.08347 -0.64535,0.226744 -0.07417,0.138564 -0.11628,1.832578 -0.11628,4.734505 v 4.519389 l 0.248066,0.17442 c 0.355203,0.248788 0.902665,0.218994 1.156978,-0.06201 0.201582,-0.222746 0.213179,-0.464634 0.213179,-4.722877 0,-3.641181 -0.02892,-4.524798 -0.153103,-4.67443 -0.115216,-0.13883 -0.414198,-0.202447 -0.70349,-0.195732 z m -14.14923,20.5388 v 3.457369 3.45931 h 0.55814 0.55814 v -3.45931 -3.457369 h -0.558158 z m 3.569774,0 v 2.901167 2.899233 h 0.558139 0.558141 V 43.49822 40.597053 h -0.558158 z m 3.459309,0 v 2.34303 2.343022 h 0.558122 0.556203 v -2.343022 -2.34303 h -0.556203 z m 3.569774,0 v 1.784885 1.784888 h 0.501939 0.50194 v -1.784888 -1.784885 h -0.501958 z m 3.457371,0 v 3.457369 3.45931 h 0.558124 0.558139 v -3.45931 -3.457369 h -0.558139 z m 3.571712,0 v 1.784885 1.784888 h 0.501939 0.501939 v -1.784888 -1.784885 h -0.501957 z m 3.457374,0 v 2.34303 2.343022 h 0.558137 0.558141 v -2.343022 -2.34303 h -0.558141 z m 2.678296,0 v 2.901167 2.899233 h 0.501942 0.501938 V 43.49822 40.597053 h -0.501938 z m 3.457373,0 v 3.457369 3.45931 h 0.558142 0.558138 v -3.45931 -3.457369 h -0.558138 z" />
  </g>
</svg>
