<?xml version="1.0" encoding="UTF-8" standalone="no"?>
<svg
   width="64"
   height="64"
   version="1.1"
   id="svg73"
   sodipodi:docname="gnome-window-manager.svg"
   inkscape:version="1.4 (e7c3feb100, 2024-10-09)"
   xmlns:inkscape="http://www.inkscape.org/namespaces/inkscape"
   xmlns:sodipodi="http://sodipodi.sourceforge.net/DTD/sodipodi-0.dtd"
   xmlns="http://www.w3.org/2000/svg"
   xmlns:svg="http://www.w3.org/2000/svg"
   xmlns:rdf="http://www.w3.org/1999/02/22-rdf-syntax-ns#"
   xmlns:cc="http://creativecommons.org/ns#"
   xmlns:dc="http://purl.org/dc/elements/1.1/">
  <metadata
     id="metadata77">
    <rdf:RDF>
      <cc:Work
         rdf:about="">
        <dc:format>image/svg+xml</dc:format>
        <dc:type
           rdf:resource="http://purl.org/dc/dcmitype/StillImage" />
      </cc:Work>
    </rdf:RDF>
  </metadata>
  <sodipodi:namedview
     pagecolor="#f5f7fa"
     bordercolor="#666666"
     borderopacity="1"
     objecttolerance="10"
     gridtolerance="10"
     guidetolerance="10"
     inkscape:pageopacity="0"
     inkscape:pageshadow="2"
     inkscape:window-width="1183"
     inkscape:window-height="973"
     id="namedview75"
     showgrid="false"
     inkscape:zoom="4.4470387"
     inkscape:cx="26.646946"
     inkscape:cy="12.030478"
     inkscape:window-x="35"
     inkscape:window-y="32"
     inkscape:window-maximized="0"
     inkscape:current-layer="g877"
     inkscape:document-rotation="0"
     inkscape:pagecheckerboard="0"
     inkscape:showpageshadow="2"
     inkscape:deskcolor="#d1d1d1" />
  <defs
     id="defs29">
    <linearGradient
       id="b"
       x1="399.57"
       x2="399.57"
       y1="545.8"
       y2="517.8"
       gradientTransform="matrix(2.1429,0,0,2.1429,-825.86391,-1107.6662)"
       gradientUnits="userSpaceOnUse">
      <stop
         stop-color="#3889e9"
         offset="0"
         id="stop2" />
      <stop
         stop-color="#5ea5fb"
         offset="1"
         id="stop4" />
    </linearGradient>
    <linearGradient
       id="d"
       x2="1"
       gradientTransform="matrix(14.905727,-4.7106182,4.7106182,14.905727,322.04962,998.26962)"
       gradientUnits="userSpaceOnUse">
      <stop
         stop-color="#fafafa"
         offset="0"
         id="stop7" />
      <stop
         stop-color="#aaa"
         offset="1"
         id="stop8" />
    </linearGradient>
    <linearGradient
       id="e"
       x2="1"
       gradientTransform="matrix(21.439909,0,0,21.439909,26.63554,1159.7788)"
       gradientUnits="userSpaceOnUse">
      <stop
         stop-color="#f0f0f0"
         offset="0"
         id="stop9" />
      <stop
         stop-color="#b7f1ff"
         offset="1"
         id="stop10" />
    </linearGradient>
  </defs>
  <circle
     cx="32.516094"
     cy="31.877844"
     r="0"
     fill="url(#b)"
     stroke-width="1.5715"
     id="circle41"
     style="fill:url(#b)" />
  <g
     aria-label="GZ"
     transform="matrix(1.2212657,0,0,0.81882264,0.4960938,-0.1661539)"
     id="text93"
     style="font-weight:bold;font-size:11.5263px;line-height:1.25;font-family:sans-serif;-inkscape-font-specification:'sans-serif Bold';fill:#f2f2f2;stroke-width:0.288159" />
  <g
     id="g877"
     transform="matrix(1.1,0,0,1.1,-3.1845928,-3.2065454)">
    <rect
       x="6.3010068"
       y="5.4939413"
       width="51.635597"
       height="53.148327"
       rx="10.980581"
       ry="10.720582"
       fill="url(#linearGradient862)"
       stroke-width="3.0541"
       id="rect35-7-3"
       style="fill:#414141;fill-opacity:1;stroke:#dfdfdf;stroke-width:2.27272727;stroke-dasharray:none;stroke-opacity:1" />
    <g
       id="g7"
       transform="matrix(1.25202,0,0,1.25202,5.49715,0.92076726)"
       style="fill:#dfdfdf;fill-opacity:1">
      <path
         d="m 7.015,21.835 1.4879996,-2.098 c 0.005,0.733 -0.14,2.856 -0.052,2.8 l 0.377,-2.048 C 10.582,23.792 13.245,26.671 16.282,28.826 c 1.352,1.097 3.431,0.717 4.989,0.207 1.418,-0.476 2.649,-1.579 3.938,-2.158 0.377,0.252 0.753,0.506 1.129,0.759 -0.574,-0.094 -1.258,-0.598 -1.579,0.184 -2.062,2.036 -5.544,2.998 -8.136,1.397 -1.988,0.567 0.708,1.935 -0.04,3.046 -0.808,1.132 -1.747,1.963 -2.395,3.142 0.395,1.045 1.562,1.771 2.463,2.452 4.417,2.824 10.353,2.786 14.941,0.38 1.306,-0.706 2.5,-1.646 3.408,-2.826 -0.471,-1.208 -1.814,-1.901 -2.216,-3.194 1.614,0.701 -1.114,-1.736 -0.18,-1.717 1.139,0.212 -1.449,-1.45 -0.027,-1.282 1.193,0.082 -1.469,-1.559 -0.472,-1.446 0.458,0.073 1.179,0.297 0.532,-0.267 -0.313,-0.381 -0.625,-0.762 -0.938,-1.143 0.746,0.155 0.553,-0.186 0.182,-0.622 -0.448,-0.843 -1.64,-0.67 -2.411,-1.088 -3.676,-1.058 -6.587,-3.679 -9.429,-6.103 l -2.923,-1.34 C 14.724,17.054 12.292,16.886 9.9129996,17.294 L 10.967,15.478 9.3549996,17.435 c -0.306,-0.309 -0.016,-0.934 -0.082,-1.37 -0.012,-0.22 0.111,-1.414 0,-0.915 l -0.46,1.957 C 6.947,16.298 6.383,19.416 8.083,19.648 Z"
         fill="#d0933a"
         id="path3"
         style="fill:#dfdfdf;fill-opacity:1" />
      <path
         d="m 26.645,10 c -0.719,0.008 -1.415,0.132 -2.057,0.391 -0.62,0.25 -0.978,0.31 -1.459,0.749 -0.155,-0.063 -0.31,-0.094 -0.48,-0.094 -0.837,0 -1.92,1.02 -2.385,2.1 -0.326,0.783 -0.387,1.112 -0.155,1.754 -1.208,0.267 -3.92,-0.062 -4.632,-0.062 0.046,0.031 0.108,0.062 0.169,0.094 l 4.975,2.879 0.045,0.046 c 1.472,1.316 3.74,3.007 5.925,4.385 1.363,0.877 6.259,2.412 6.492,2.475 -0.589,-1.472 0.992,-3.413 1.426,-4.76 0.527,-1.644 0.713,-3.446 0.093,-5.09 -1.045,-2.76 -4.845,-4.9 -7.957,-4.867 z m -3.573,1.5 c 0.154,0 0.339,0.032 0.518,0.113 0.48,0.203 0.774,0.67 0.867,1.2 0.109,0.602 0.119,1.276 -0.191,1.91 -0.457,1.001 -1.385,1.777 -2.35,1.777 -0.159,0 -0.318,-0.02 -0.48,-0.082 -0.45,-0.171 -0.668,-0.546 -0.77,-0.811 -0.288,-0.695 -0.197,-1.54 0.15,-2.318 l 0.004,-0.004 0.002,-0.006 c 0.471,-0.992 1.282,-1.779 2.25,-1.779 z"
         fill="#fdd321"
         id="path4"
         style="fill:#dfdfdf;fill-opacity:1" />
      <path
         d="m 8.8129996,17.075 c -0.155,-0.062 -0.341,-0.109 -0.511,-0.109 C 7.589,16.966 7.015,17.545 7.015,18.265 c 0,0.627 0.45,1.159 1.039,1.284 h 0.031 c 0.3869996,-0.125 1.1619996,-1.174 1.0379996,-1.832 -0.047,-0.235 -0.155,-0.454 -0.31,-0.642 z"
         fill="#ffcc86"
         id="path5"
         style="fill:#dfdfdf;fill-opacity:1" />
      <path
         d="m 23.072,12 c -0.642,0 -1.389,0.628 -1.799,1.493 -0.303,0.678 -0.358,1.424 -0.144,1.932 0.071,0.186 0.216,0.423 0.483,0.524 0.089,0.034 0.196,0.051 0.303,0.051 0.642,0 1.407,-0.626 1.799,-1.49 0.268,-0.543 0.339,-1.12 0.25,-1.611 C 23.892,12.492 23.678,12.186 23.393,12.068 23.286,12.017 23.179,12 23.072,12 Z"
         fill="#ffffff"
         id="path6"
         style="fill:#dfdfdf;fill-opacity:1" />
    </g>
  </g>
</svg>
