<?xml version="1.0" encoding="UTF-8" standalone="no"?>
<svg
   width="64"
   height="64"
   version="1.1"
   id="svg73"
   sodipodi:docname="ca.desrt.dconf-editor.svg"
   inkscape:version="1.4.2 (ebf0e940d0, 2025-05-08)"
   xmlns:inkscape="http://www.inkscape.org/namespaces/inkscape"
   xmlns:sodipodi="http://sodipodi.sourceforge.net/DTD/sodipodi-0.dtd"
   xmlns="http://www.w3.org/2000/svg"
   xmlns:svg="http://www.w3.org/2000/svg"
   xmlns:rdf="http://www.w3.org/1999/02/22-rdf-syntax-ns#"
   xmlns:cc="http://creativecommons.org/ns#"
   xmlns:dc="http://purl.org/dc/elements/1.1/">
  <metadata
     id="metadata77">
    <rdf:RDF>
      <cc:Work
         rdf:about="">
        <dc:format>image/svg+xml</dc:format>
        <dc:type
           rdf:resource="http://purl.org/dc/dcmitype/StillImage" />
      </cc:Work>
    </rdf:RDF>
  </metadata>
  <sodipodi:namedview
     pagecolor="#f5f7fa"
     bordercolor="#666666"
     borderopacity="1"
     objecttolerance="10"
     gridtolerance="10"
     guidetolerance="10"
     inkscape:pageopacity="0"
     inkscape:pageshadow="2"
     inkscape:window-width="1377"
     inkscape:window-height="886"
     id="namedview75"
     showgrid="false"
     inkscape:zoom="6.2890624"
     inkscape:cx="47.622361"
     inkscape:cy="45.396274"
     inkscape:window-x="457"
     inkscape:window-y="94"
     inkscape:window-maximized="0"
     inkscape:current-layer="g877"
     inkscape:document-rotation="0"
     inkscape:pagecheckerboard="0"
     inkscape:showpageshadow="2"
     inkscape:deskcolor="#d1d1d1" />
  <defs
     id="defs29">
    <linearGradient
       id="b"
       x1="399.57"
       x2="399.57"
       y1="545.8"
       y2="517.8"
       gradientTransform="matrix(2.1429,0,0,2.1429,-825.86391,-1107.6662)"
       gradientUnits="userSpaceOnUse">
      <stop
         stop-color="#3889e9"
         offset="0"
         id="stop2" />
      <stop
         stop-color="#5ea5fb"
         offset="1"
         id="stop4" />
    </linearGradient>
  </defs>
  <circle
     cx="32.516094"
     cy="31.877844"
     r="0"
     fill="url(#b)"
     stroke-width="1.5715"
     id="circle41"
     style="fill:url(#b)" />
  <g
     aria-label="GZ"
     transform="matrix(1.2212657,0,0,0.81882264,0.4960938,-0.1661539)"
     id="text93"
     style="font-weight:bold;font-size:11.5263px;line-height:1.25;font-family:sans-serif;-inkscape-font-specification:'sans-serif Bold';fill:#f2f2f2;stroke-width:0.288159" />
  <g
     id="g877"
     transform="matrix(1.1,0,0,1.1,-3.1845928,-3.2065454)">
    <rect
       x="8.3496294"
       y="8.369586"
       width="47.272728"
       height="47.272728"
       rx="9.8825235"
       ry="9.6485243"
       fill="url(#linearGradient862)"
       stroke-width="3.0541"
       id="rect35-7-3"
       style="fill:#414141;fill-opacity:1;stroke:#dfdfdf;stroke-width:2.04545;stroke-dasharray:none;stroke-opacity:1" />
    <path
       d="m 35.233915,19.092316 -11.364826,3.074142 c -0.853409,0.240249 -1.541776,1.192889 -1.541776,2.118371 v 14.670858 c -0.865938,-0.475269 -1.976308,-0.666433 -3.129503,-0.353057 -2.079721,0.566151 -3.383334,2.395173 -2.937307,4.084227 0.444984,1.689066 2.495456,2.634395 4.575179,2.068237 1.658763,-0.451244 2.801511,-1.73084 2.983265,-3.077276 l 0.05016,-13.863416 10.188652,-2.860008 v 10.516642 c -0.755218,-0.268451 -1.629513,-0.341571 -2.534107,-0.09507 -2.079721,0.565106 -3.381244,2.394133 -2.935216,4.084232 0.446029,1.689054 2.493366,2.633343 4.573089,2.067193 1.47701,-0.40112 2.540373,-1.458212 2.886124,-2.635436 0.371859,-0.687323 0.541085,-1.461344 0.541085,-1.770528 0,-0.09717 0.01228,-0.327999 0.01345,-0.430361 v -0.384403 c 0.05117,-0.379176 0.237059,-0.685227 0.734311,-0.685227 0.504524,0 0.699858,0.308137 0.774015,0.685227 h 0.01782 v 1.71308 c 0,0.568246 0.341543,1.026809 0.763582,1.026809 0.42096,0 0.763573,-0.458563 0.763573,-1.026809 v -3.76877 c 0,-0.301875 0.282061,-1.369422 0.508705,-1.369422 0.225575,0 0.508699,1.067541 0.508699,1.369422 v 0.343662 c 0,0.568239 0.343698,1.026801 0.765669,1.026801 0.420956,0 0.762525,-0.458562 0.762525,-1.026801 V 31.51109 c 0,-0.302923 0.283115,-0.685233 0.509748,-0.685233 0.225574,0 0.5087,0.38231 0.5087,0.685233 v 0.343662 c 0,0.567197 0.341543,1.026803 0.762524,1.026803 0.422004,0 0.763576,-0.459606 0.763576,-1.026803 v -1.028884 h 2.289684 c 0.422001,0 0.763573,-0.458566 0.763573,-1.02576 0,-0.568241 -0.341579,-1.028894 -0.763573,-1.028894 h -2.289738 v -1.026803 c 0,-0.567197 -0.341577,-1.02785 -0.763574,-1.02785 -0.420958,0 -0.762533,0.460653 -0.762533,1.02785 v 0.341568 c 0,0.302927 -0.283114,0.685233 -0.508694,0.685233 -0.226684,0 -0.509747,-0.38231 -0.509747,-0.685233 v -3.081447 c 0,-0.567198 -0.341542,-1.028896 -0.762535,-1.028896 -0.421997,0 -0.765657,0.461698 -0.765657,1.028896 v 0.341571 c 0,0.302922 -0.283114,1.370462 -0.508708,1.370462 -0.226596,0 -0.508703,-1.067542 -0.508703,-1.370462 v -3.766691 c 0,-0.567194 -0.342603,-1.028892 -0.763569,-1.028892 -0.422007,0 -0.763579,0.461698 -0.763579,1.028892 v 1.712038 c -0.05226,0.378131 -0.245474,0.684186 -0.791777,0.684186 -0.497212,0 -0.659117,-0.30606 -0.711344,-0.684186 L 36.47381,22.59473 c -9.36e-4,-0.101325 -0.123247,-1.555351 -0.154578,-1.648315 -0.08146,-0.238162 -0.103415,-0.491989 -0.150413,-0.730147 -0.06894,-0.595401 -0.434542,-1.036208 -0.93489,-1.123951 z"
       fill="url(#d)"
       fill-rule="nonzero"
       id="path11"
       style="fill:#dfdfdf;fill-opacity:1;stroke:none;stroke-width:0.509408;stroke-dasharray:none;stroke-opacity:0.6" />
    <rect
       x="37.737823"
       y="37.757782"
       width="22.610399"
       height="22.610399"
       rx="4.7267799"
       ry="4.6148596"
       fill="url(#linearGradient862)"
       stroke-width="3.0541"
       id="rect35-7-3-1"
       style="fill:#414141;fill-opacity:1;stroke:#dfdfdf;stroke-width:0.978336;stroke-dasharray:none;stroke-opacity:1" />
    <path
       style="color:#000000;clip-rule:nonzero;display:inline;overflow:visible;visibility:visible;isolation:auto;mix-blend-mode:normal;color-interpolation:sRGB;color-interpolation-filters:linearRGB;solid-color:#000000;solid-opacity:1;fill:#dfdfdf;fill-opacity:1;fill-rule:nonzero;stroke:none;stroke-width:0.454545;stroke-linecap:butt;stroke-linejoin:miter;stroke-miterlimit:4;stroke-dasharray:none;stroke-dashoffset:0;stroke-opacity:0.6;marker:none;color-rendering:auto;image-rendering:auto;shape-rendering:auto;text-rendering:auto;enable-background:accumulate"
       d="m 48.049489,41.647769 c -0.190389,0 -0.349074,0.757559 -0.442214,1.840216 a 5.8190384,5.9942708 0 0 0 -1.406201,0.608794 c -0.812308,-0.701301 -1.446838,-1.124631 -1.581842,-0.985565 l -1.497121,1.542208 c -0.135001,0.139055 0.275945,0.792706 0.956751,1.629476 a 5.8190384,5.9942708 0 0 0 -0.585828,1.448546 c -1.053952,0.09586 -1.791586,0.259074 -1.791586,0.455531 v 2.179731 c 0,0.196127 0.735411,0.359591 1.786418,0.455535 a 5.8190384,5.9942708 0 0 0 0.588931,1.451735 c -0.679249,0.835271 -1.089525,1.487383 -0.954686,1.626287 l 1.497121,1.542201 c 0.134725,0.138746 0.766967,-0.282851 1.576678,-0.981308 a 5.8190384,5.9942708 0 0 0 1.411365,0.599218 c 0.09305,1.085694 0.251481,1.845538 0.442214,1.845538 h 2.116013 c 0.190389,0 0.349077,-0.757559 0.442217,-1.840216 a 5.8190384,5.9942708 0 0 0 1.406198,-0.608791 c 0.812312,0.701299 1.446838,1.124628 1.581845,0.985559 l 1.497121,-1.542201 c 0.135001,-0.139021 -0.275945,-0.79271 -0.956751,-1.629483 a 5.8190384,5.9942708 0 0 0 0.585828,-1.448539 c 1.053949,-0.09586 1.791586,-0.259075 1.791586,-0.455535 v -2.179731 c 0,-0.196127 -0.735414,-0.359588 -1.786418,-0.455531 A 5.8190384,5.9942708 0 0 0 54.13819,46.279706 c 0.679257,-0.835272 1.089532,-1.487384 0.954693,-1.626284 l -1.497121,-1.542208 c -0.134725,-0.13878 -0.766967,0.282851 -1.576681,0.981308 a 5.8190384,5.9942708 0 0 0 -1.411362,-0.599215 c -0.09305,-1.08569 -0.251481,-1.845534 -0.442217,-1.845534 z m 1.058006,4.904405 a 2.6450176,2.7246682 0 0 1 2.645017,2.72467 2.6450176,2.7246682 0 0 1 -2.645017,2.724664 2.6450176,2.7246682 0 0 1 -2.645017,-2.724664 2.6450176,2.7246682 0 0 1 2.645017,-2.72467 z"
       id="path4690"
       inkscape:connector-curvature="0" />
  </g>
</svg>
