<?xml version="1.0" encoding="UTF-8" standalone="no"?>
<svg
   width="64"
   height="64"
   version="1.1"
   id="svg73"
   sodipodi:docname="audacious.svg"
   inkscape:version="1.4.2 (ebf0e940d0, 2025-05-08)"
   xmlns:inkscape="http://www.inkscape.org/namespaces/inkscape"
   xmlns:sodipodi="http://sodipodi.sourceforge.net/DTD/sodipodi-0.dtd"
   xmlns="http://www.w3.org/2000/svg"
   xmlns:svg="http://www.w3.org/2000/svg"
   xmlns:rdf="http://www.w3.org/1999/02/22-rdf-syntax-ns#"
   xmlns:cc="http://creativecommons.org/ns#"
   xmlns:dc="http://purl.org/dc/elements/1.1/">
  <metadata
     id="metadata77">
    <rdf:RDF>
      <cc:Work
         rdf:about="">
        <dc:format>image/svg+xml</dc:format>
        <dc:type
           rdf:resource="http://purl.org/dc/dcmitype/StillImage" />
      </cc:Work>
    </rdf:RDF>
  </metadata>
  <sodipodi:namedview
     pagecolor="#f5f7fa"
     bordercolor="#666666"
     borderopacity="1"
     objecttolerance="10"
     gridtolerance="10"
     guidetolerance="10"
     inkscape:pageopacity="0"
     inkscape:pageshadow="2"
     inkscape:window-width="1377"
     inkscape:window-height="886"
     id="namedview75"
     showgrid="false"
     inkscape:zoom="6.2890624"
     inkscape:cx="47.622361"
     inkscape:cy="45.396274"
     inkscape:window-x="0"
     inkscape:window-y="57"
     inkscape:window-maximized="0"
     inkscape:current-layer="g877"
     inkscape:document-rotation="0"
     inkscape:pagecheckerboard="0"
     inkscape:showpageshadow="2"
     inkscape:deskcolor="#d1d1d1" />
  <defs
     id="defs29" />
  <circle
     cx="32.516094"
     cy="31.877844"
     r="0"
     fill="url(#b)"
     stroke-width="1.5715"
     id="circle41"
     style="fill:url(#b)" />
  <g
     aria-label="GZ"
     transform="matrix(1.2212657,0,0,0.81882264,0.4960938,-0.1661539)"
     id="text93"
     style="font-weight:bold;font-size:11.5263px;line-height:1.25;font-family:sans-serif;-inkscape-font-specification:'sans-serif Bold';fill:#f2f2f2;stroke-width:0.288159" />
  <g
     id="g877"
     transform="matrix(1.1,0,0,1.1,-3.1845928,-3.2065454)">
    <rect
       x="8.3496294"
       y="8.369586"
       width="47.272728"
       height="47.272728"
       rx="9.8825235"
       ry="9.6485243"
       fill="url(#linearGradient862)"
       stroke-width="3.0541"
       id="rect35-7-3"
       style="fill:#414141;fill-opacity:1;stroke:#dfdfdf;stroke-width:2.04545;stroke-dasharray:none;stroke-opacity:1" />
    <path
       style="fill:#dfdfdf;fill-opacity:1;stroke:none;stroke-width:0.496125;stroke-dasharray:none;stroke-opacity:0.6"
       d="m 41.328536,21.193062 c -3.338721,0 -5.945257,2.181645 -5.945257,5.045239 3.16e-4,1.227259 2.54797,1.227259 2.54797,0 0,-1.636335 0.88163,-2.80809 3.397287,-2.80809 2.515651,0 3.397287,1.171755 3.397287,2.80809 0,1.227259 2.547967,1.227259 2.547967,0 0,-2.863594 -2.606486,-5.045239 -5.945254,-5.045239 z m 0,3.728583 c -0.938541,0 -1.698642,0.665139 -1.698642,1.487063 0,0.821871 0.760101,1.488518 1.698642,1.488518 0.938539,0 1.698642,-0.666647 1.698642,-1.488518 0,-0.821924 -0.760103,-1.487063 -1.698642,-1.487063 z m -9.342545,3.728583 c -1.764752,0 -3.844843,0.93577 -4.805636,2.103153 -0.960745,-1.167383 -2.772156,-1.954595 -4.536905,-1.954595 -2.915957,0 -5.945255,1.572176 -5.945255,5.891452 v 7.116351 c 0,0 1.29e-4,1.01225 1.176112,1.01225 1.175985,0 1.371854,-1.01225 1.371854,-1.01225 v -7.116351 c -0.001,-3.282583 1.595117,-3.802861 3.397289,-3.802861 1.802166,0 3.397289,1.003172 3.397289,3.22464 v 7.694572 c 0,0 0.06482,1.01225 1.240805,1.01225 1.175985,0 1.307159,-1.01225 1.307159,-1.01225 v -7.694572 c 0,-2.221468 1.595123,-3.22464 3.397288,-3.22464 1.144129,0 3.367431,0.133374 3.367431,3.22464 l 0.06801,2.626028 c 0,4.85418 3.547349,6.080794 5.907105,6.080794 2.359752,0 5.873146,-1.432015 5.945254,-5.726868 v -6.793013 c 0,-1.182213 -2.547967,-1.182213 -2.547967,0 v 6.69106 c 0,3.258155 -2.217409,3.591669 -3.397287,3.591669 -1.179879,0 -3.393972,-0.126658 -3.393972,-3.944137 l -0.06802,-2.384255 c 0,-3.681921 -2.882326,-5.603069 -5.88056,-5.603069 z"
       id="path8" />
  </g>
</svg>
