<?xml version="1.0" encoding="UTF-8" standalone="no"?>
<svg
   width="64"
   height="64"
   version="1.1"
   id="svg73"
   sodipodi:docname="Logo.svg"
   inkscape:version="1.3.2 (091e20ef0f, 2023-11-25)"
   xmlns:inkscape="http://www.inkscape.org/namespaces/inkscape"
   xmlns:sodipodi="http://sodipodi.sourceforge.net/DTD/sodipodi-0.dtd"
   xmlns="http://www.w3.org/2000/svg"
   xmlns:svg="http://www.w3.org/2000/svg"
   xmlns:rdf="http://www.w3.org/1999/02/22-rdf-syntax-ns#"
   xmlns:cc="http://creativecommons.org/ns#"
   xmlns:dc="http://purl.org/dc/elements/1.1/">
  <metadata
     id="metadata77">
    <rdf:RDF>
      <cc:Work
         rdf:about="">
        <dc:format>image/svg+xml</dc:format>
        <dc:type
           rdf:resource="http://purl.org/dc/dcmitype/StillImage" />
      </cc:Work>
    </rdf:RDF>
  </metadata>
  <sodipodi:namedview
     pagecolor="#f5f7fa"
     bordercolor="#666666"
     borderopacity="1"
     objecttolerance="10"
     gridtolerance="10"
     guidetolerance="10"
     inkscape:pageopacity="0"
     inkscape:pageshadow="2"
     inkscape:window-width="1377"
     inkscape:window-height="886"
     id="namedview75"
     showgrid="false"
     inkscape:zoom="6.2890624"
     inkscape:cx="4.2931678"
     inkscape:cy="12.004969"
     inkscape:window-x="181"
     inkscape:window-y="77"
     inkscape:window-maximized="0"
     inkscape:current-layer="g877"
     inkscape:document-rotation="0"
     inkscape:pagecheckerboard="0"
     inkscape:showpageshadow="2"
     inkscape:deskcolor="#d1d1d1" />
  <defs
     id="defs29">
    <linearGradient
       id="b"
       x1="399.57"
       x2="399.57"
       y1="545.8"
       y2="517.8"
       gradientTransform="matrix(2.1429,0,0,2.1429,-825.86391,-1107.6662)"
       gradientUnits="userSpaceOnUse">
      <stop
         stop-color="#3889e9"
         offset="0"
         id="stop2" />
      <stop
         stop-color="#5ea5fb"
         offset="1"
         id="stop4" />
    </linearGradient>
    <linearGradient
       id="d"
       x2="1"
       gradientTransform="matrix(14.905727,-4.7106182,4.7106182,14.905727,322.04962,998.26962)"
       gradientUnits="userSpaceOnUse">
      <stop
         stop-color="#fafafa"
         offset="0"
         id="stop7" />
      <stop
         stop-color="#aaa"
         offset="1"
         id="stop8" />
    </linearGradient>
    <linearGradient
       id="e"
       x2="1"
       gradientTransform="matrix(21.439909,0,0,21.439909,26.63554,1159.7788)"
       gradientUnits="userSpaceOnUse">
      <stop
         stop-color="#f0f0f0"
         offset="0"
         id="stop9" />
      <stop
         stop-color="#b7f1ff"
         offset="1"
         id="stop10" />
    </linearGradient>
  </defs>
  <circle
     cx="32.516094"
     cy="31.877844"
     r="0"
     fill="url(#b)"
     stroke-width="1.5715"
     id="circle41"
     style="fill:url(#b)" />
  <g
     aria-label="GZ"
     transform="matrix(1.2212657,0,0,0.81882264,0.4960938,-0.1661539)"
     id="text93"
     style="font-weight:bold;font-size:11.5263px;line-height:1.25;font-family:sans-serif;-inkscape-font-specification:'sans-serif Bold';fill:#f2f2f2;stroke-width:0.288159" />
  <g
     id="g877"
     transform="matrix(1.1,0,0,1.1,-3.1845928,-3.2065454)">
    <rect
       x="6.3010068"
       y="5.4939413"
       width="51.635597"
       height="53.148327"
       rx="10.980581"
       ry="10.720582"
       fill="url(#linearGradient862)"
       stroke-width="3.0541"
       id="rect35-7-3"
       style="fill:#414141;fill-opacity:1;stroke:#dfdfdf;stroke-width:2.27272727;stroke-dasharray:none;stroke-opacity:1" />
    <path
       id="path10"
       style="fill:#dfdfdf;stroke-width:0.167425;fill-opacity:1"
       d="m 29.611786,15.463146 -3.321403,0.744273 -3.320108,0.744274 -2.548653,1.232259 -2.547357,1.232258 -2.335079,2.75446 c -1.284391,1.514415 -2.388796,2.826767 -2.454162,2.917554 -0.06537,0.09079 -0.136308,0.269051 -0.156621,0.396082 -0.07537,0.471322 -0.641963,4.78602 -0.727447,5.539986 l -0.08802,0.781811 0.997974,2.706568 c 0.549015,1.488689 1.058134,2.850533 1.131296,3.026282 0.128944,0.309746 0.184046,0.361016 1.806967,1.669763 4.198993,3.386125 4.05184,3.273576 4.55884,3.459901 0.886118,0.325656 4.54275,1.597778 5.327705,1.853566 l 0.788283,0.257583 3.3913,0.198042 3.391299,0.196747 1.986888,-0.304181 c 1.092589,-0.167476 2.129964,-0.320896 2.305308,-0.341719 l 0.319713,-0.03883 3.559571,1.937701 c 2.716876,1.478231 3.639263,1.953762 3.894817,2.010186 0.364029,0.08038 0.642017,0.102552 0.642017,0.05049 0,-0.0181 -0.42575,-1.204446 -0.944904,-2.63667 -0.519155,-1.432227 -1.014462,-2.811566 -1.101525,-3.065114 l -0.159211,-0.460803 0.168272,-0.138499 c 0.09208,-0.07586 0.85359,-0.683138 1.69306,-1.350049 0.839471,-0.66691 1.658567,-1.365258 1.819912,-1.550678 0.296166,-0.340365 1.908802,-2.352446 2.751871,-3.434015 0.542981,-0.696589 0.47475,-0.458736 1.013507,-3.525916 l 0.381845,-2.173279 -0.43621,-1.865216 C 51.161836,27.262042 50.898654,26.15273 50.81647,25.822148 L 50.66632,25.220251 48.758391,22.960248 C 46.55632,20.35192 47.070928,20.796455 43.8656,18.743128 l -1.954528,-1.252969 -3.044403,-0.947493 -3.045697,-0.948787 -3.103946,-0.06472 z m 0.222634,1.734481 2.855424,0.05825 2.854127,0.05954 2.706568,0.840059 c 1.488896,0.462556 2.769204,0.864777 2.843773,0.893128 0.07456,0.02835 1.116597,0.682482 2.316957,1.4536 l 2.18234,1.401823 1.720244,2.037369 c 1.381889,1.637647 1.733701,2.087889 1.794023,2.293657 0.04127,0.140797 0.270041,1.092297 0.508694,2.113737 l 0.433621,1.856155 -0.376667,2.126682 c -0.20789,1.171135 -0.415234,2.183549 -0.460803,2.252236 -0.08767,0.132131 -1.494658,1.913596 -2.384264,3.018516 -0.495829,0.615831 -0.642045,0.748333 -2.260004,2.047725 -2.109602,1.694232 -2.278222,1.893046 -2.276831,2.703978 5.81e-4,0.343842 0.05224,0.534772 0.427149,1.590804 0.23427,0.659899 0.425853,1.218264 0.425853,1.241319 0,0.02306 -0.01841,0.03999 -0.04143,0.03754 -0.02302,-0.0025 -0.95075,-0.502546 -2.060667,-1.110585 -1.109917,-0.608039 -2.151753,-1.15186 -2.315662,-1.20896 -0.477897,-0.166482 -1.074678,-0.126484 -3.339524,0.225224 -1.594827,0.247656 -2.115786,0.309085 -2.399798,0.283471 -0.199516,-0.01799 -1.631531,-0.10422 -3.181609,-0.192865 l -2.81788,-0.161804 -1.227081,-0.416793 c -1.950163,-0.663049 -4.726561,-1.649707 -4.794415,-1.703414 -0.2437,-0.192881 -2.912782,-2.338572 -3.922,-3.153134 l -1.236142,-0.997973 -0.956554,-2.601722 -0.956553,-2.603017 0.116495,-0.920311 c 0.470813,-3.712376 0.62087,-4.714284 0.722269,-4.825483 0.05674,-0.06223 1.035589,-1.217376 2.175868,-2.566774 l 2.073613,-2.452867 2.247058,-1.09117 2.24706,-1.089876 0.834881,-0.186391 c 0.458991,-0.102241 1.888551,-0.425137 3.177725,-0.718387 z m 9.288537,4.869492 c -0.209203,0 -0.396478,0.02619 -0.415499,0.05696 -0.01901,0.03077 0.106537,0.512481 0.278293,1.07046 0.171761,0.557977 0.335332,1.191308 0.363725,1.408295 0.02839,0.216986 0.169609,1.793965 0.313242,3.503912 l 0.260172,3.109123 -0.172154,2.806235 -0.173448,2.807531 -0.450447,1.164951 c -0.247736,0.640977 -0.437245,1.179447 -0.420677,1.196014 0.01657,0.01657 0.38859,-0.05076 0.82582,-0.148854 0.980404,-0.219964 1.180736,-0.219321 2.747988,0.01682 0.675283,0.101747 1.280282,0.188123 1.344872,0.19157 0.109501,0.0059 0.08251,-0.102943 -0.401262,-1.615399 l -0.51905,-1.62187 -0.03883,-1.224491 c -0.03495,-1.082658 -0.02946,-1.224493 0.0466,-1.224493 0.0473,0 0.457786,0.05055 0.912544,0.111318 l 0.827115,0.110022 0.33913,-0.235578 c 0.186584,-0.129831 0.717331,-0.499643 1.180483,-0.821937 l 0.842647,-0.586357 0.520345,-1.0847 0.51905,-1.085992 -0.06472,-1.535146 -0.06472,-1.53644 -0.459508,-1.180482 -0.458214,-1.181778 -0.951376,-0.585063 c -0.523421,-0.321759 -0.979182,-0.599266 -1.012213,-0.617425 -0.03303,-0.01816 -0.670945,-0.07401 -1.417356,-0.122967 l -1.356524,-0.08802 -1.282739,-0.528111 c -1.189231,-0.489186 -1.310613,-0.528111 -1.663297,-0.528111 z m -16.490518,0.06861 c -0.03489,-0.0029 -0.05482,-0.0021 -0.05954,0.0026 -0.118508,0.118508 0.118867,0.305497 1.645169,1.296979 0.563574,0.366096 1.103537,0.757981 1.199899,0.871123 0.09636,0.113141 0.482453,0.705568 0.85818,1.316395 l 0.683438,1.110584 -0.03754,0.889246 -0.03625,0.887951 -0.227813,0.377961 c -0.12521,0.208133 -0.242232,0.377962 -0.260172,0.377962 -0.01795,0 -0.168857,-0.09384 -0.335248,-0.209691 l -0.301592,-0.210986 -0.195453,-0.764984 -0.196747,-0.763688 -0.808993,-0.81676 -0.808993,-0.815466 -0.328776,0.354663 c -0.181105,0.19458 -0.639611,0.700102 -1.018684,1.124825 l -0.688614,0.77275 v 0.293826 c 0,0.161436 -0.0165,0.520405 -0.03625,0.798638 l -0.03625,0.506107 -0.361134,0.154032 c -0.424891,0.18058 -0.424719,0.180958 -0.960437,-0.331363 l -0.341719,-0.327482 -0.174743,-1.098936 -0.174743,-1.098936 0.405144,-1.113175 c 0.22337,-0.612095 0.452449,-1.192881 0.508695,-1.290506 0.05625,-0.09762 0.41939,-0.570359 0.807699,-1.051045 0.38831,-0.480683 0.69519,-0.886553 0.680849,-0.900894 -0.01434,-0.01434 -0.727335,0.324624 -1.584333,0.753335 l -1.558443,0.780516 -0.961732,1.677528 c -0.528939,0.92308 -0.996302,1.761021 -1.038101,1.861332 -0.08266,0.198362 -0.755923,3.85534 -0.755923,4.105803 0,0.144739 0.476096,2.74701 0.530699,2.900726 0.03314,0.09328 0.03175,0.09474 1.671057,-0.903484 1.248515,-0.760265 1.482076,-0.881879 1.482076,-0.770161 0,0.05737 -0.397166,0.693821 -1.190837,1.909224 -0.383944,0.587957 -0.619557,0.999026 -0.591537,1.034216 0.02561,0.03215 0.368342,0.244009 0.761101,0.469864 l 0.714503,0.410322 0.585064,0.865946 c 0.322294,0.476509 0.709947,1.042787 0.860769,1.258147 l 0.274411,0.392198 0.200629,-0.777926 c 0.110657,-0.428067 0.338812,-1.344064 0.506106,-2.034781 l 0.304182,-1.255558 0.640723,-0.468568 0.642017,-0.467275 0.643311,0.209692 0.644607,0.210985 1.078226,1.805672 c 0.592999,0.99357 1.095393,1.806969 1.117057,1.806969 0.02166,0 0.239491,-0.408579 0.484101,-0.907368 l 0.44527,-0.906073 0.76369,-0.781811 0.764984,-0.78181 0.530702,-1.548085 0.530699,-1.549384 0.05436,-1.407 0.05307,-1.407002 -0.673083,-2.010186 c -0.370697,-1.106116 -0.697289,-2.040387 -0.724857,-2.0762 -0.02757,-0.03582 -0.671041,-0.48256 -1.430301,-0.991504 l -1.379812,-0.925499 -1.05881,-0.245935 c -1.519358,-0.353048 -2.490737,-0.558107 -2.735044,-0.578592 z m 11.811301,3.923292 -0.183803,0.106141 c -0.101031,0.05864 -0.504588,0.306093 -0.897012,0.548821 l -0.714503,0.441387 -0.587652,1.17401 -0.587652,1.174012 -0.129439,2.100794 -0.12944,2.099498 0.639428,1.786257 0.638134,1.784962 0.865946,0.869831 0.865947,0.86983 0.819348,0.1152 c 0.450459,0.06298 0.861623,0.116931 0.91384,0.120378 0.05222,0.0034 0.4411,-0.158511 0.864651,-0.359839 l 0.770163,-0.366313 0.441386,-0.735214 0.440092,-0.736507 0.31842,-1.541618 0.319713,-1.540322 -0.0246,-1.361698 -0.0246,-1.360403 -0.480223,-1.49243 L 38.10296,28.26466 37.261607,27.407775 36.420254,26.549596 35.43134,26.304955 Z m 9.678149,1.611516 0.660139,0.612246 c 0.363546,0.336573 0.672406,0.640182 0.686026,0.675671 0.01362,0.03549 -0.03285,0.415045 -0.103553,0.842647 l -0.128144,0.777929 -0.362428,0.238166 c -0.199041,0.131339 -0.525342,0.33712 -0.724859,0.45692 -0.199515,0.1198 -0.45045,0.229959 -0.557881,0.244639 -0.153919,0.02102 -0.557644,-0.02533 -1.110585,-0.126849 -0.03433,-0.0062 0.04647,-2.471809 0.09967,-3.03405 0.02549,-0.269479 0.06476,-0.507448 0.08672,-0.529404 0.02196,-0.02196 0.357899,-0.06592 0.746861,-0.09837 z m -8.243965,4.80995 0.243345,0.203218 c 0.133573,0.111195 0.402388,0.347831 0.596714,0.526818 l 0.353368,0.326185 0.155326,0.737802 0.156622,0.737802 -0.188981,0.819349 c -0.103435,0.450797 -0.193985,0.825319 -0.201924,0.832292 -0.0079,0.0069 -0.271001,0.140711 -0.585065,0.297709 -0.314061,0.157 -0.578127,0.2836 -0.586357,0.280882 -0.0082,-0.0027 -0.247343,-0.08296 -0.530702,-0.178625 l -0.515166,-0.173448 -0.301593,-0.906072 -0.302886,-0.904778 0.295121,-0.965615 0.29512,-0.965614 0.270527,-0.18251 c 0.14838,-0.10022 0.399007,-0.25077 0.557881,-0.333952 z" />
  </g>
</svg>
