<?xml version="1.0" encoding="UTF-8" standalone="no"?>
<svg
   width="64"
   height="64"
   version="1.1"
   id="svg73"
   sodipodi:docname="accessories-text-editor.svg"
   inkscape:version="1.4.2 (ebf0e940d0, 2025-05-08)"
   xmlns:inkscape="http://www.inkscape.org/namespaces/inkscape"
   xmlns:sodipodi="http://sodipodi.sourceforge.net/DTD/sodipodi-0.dtd"
   xmlns="http://www.w3.org/2000/svg"
   xmlns:svg="http://www.w3.org/2000/svg"
   xmlns:rdf="http://www.w3.org/1999/02/22-rdf-syntax-ns#"
   xmlns:cc="http://creativecommons.org/ns#"
   xmlns:dc="http://purl.org/dc/elements/1.1/">
  <metadata
     id="metadata77">
    <rdf:RDF>
      <cc:Work
         rdf:about="">
        <dc:format>image/svg+xml</dc:format>
        <dc:type
           rdf:resource="http://purl.org/dc/dcmitype/StillImage" />
      </cc:Work>
    </rdf:RDF>
  </metadata>
  <sodipodi:namedview
     pagecolor="#f5f7fa"
     bordercolor="#666666"
     borderopacity="1"
     objecttolerance="10"
     gridtolerance="10"
     guidetolerance="10"
     inkscape:pageopacity="0"
     inkscape:pageshadow="2"
     inkscape:window-width="1377"
     inkscape:window-height="886"
     id="namedview75"
     showgrid="false"
     inkscape:zoom="6.2890624"
     inkscape:cx="43.011181"
     inkscape:cy="42.693168"
     inkscape:window-x="264"
     inkscape:window-y="75"
     inkscape:window-maximized="0"
     inkscape:current-layer="g877"
     inkscape:document-rotation="0"
     inkscape:pagecheckerboard="0"
     inkscape:showpageshadow="2"
     inkscape:deskcolor="#d1d1d1" />
  <defs
     id="defs29" />
  <circle
     cx="32.516094"
     cy="31.877844"
     r="0"
     fill="url(#b)"
     stroke-width="1.5715"
     id="circle41"
     style="fill:url(#b)" />
  <g
     aria-label="GZ"
     transform="matrix(1.2212657,0,0,0.81882264,0.4960938,-0.1661539)"
     id="text93"
     style="font-weight:bold;font-size:11.5263px;line-height:1.25;font-family:sans-serif;-inkscape-font-specification:'sans-serif Bold';fill:#f2f2f2;stroke-width:0.288159" />
  <g
     id="g877"
     transform="matrix(1.1,0,0,1.1,-3.1845928,-3.2065454)">
    <rect
       x="8.3496294"
       y="8.369586"
       width="47.272728"
       height="47.272728"
       rx="9.8825235"
       ry="9.6485243"
       fill="url(#linearGradient862)"
       stroke-width="3.0541"
       id="rect35-7-3"
       style="fill:#414141;fill-opacity:1;stroke:#dfdfdf;stroke-width:2.04545;stroke-dasharray:none;stroke-opacity:1" />
    <path
       id="path7"
       style="fill:#dfdfdf;stroke:none;stroke-width:0.0667609;stroke-dasharray:none;stroke-opacity:1;fill-opacity:1"
       d="m 31.986458,16.810386 c -0.440811,6.71e-4 -0.575054,0.02288 -0.807058,0.133431 -0.224708,0.107064 -1.59988,1.454091 -7.15861,7.005746 -4.685648,4.679685 -6.926296,6.953065 -7.019996,7.126221 -0.541306,1.000329 -0.110577,2.225713 0.956036,2.720429 0.259274,0.120254 0.394935,0.146214 0.760425,0.145088 0.850347,-0.0026 0.430789,0.362003 6.148163,-5.34499 2.800184,-2.7951 5.109973,-5.082017 5.132537,-5.082017 0.02251,0 0.04145,2.546952 0.04145,5.659783 v 5.659784 l 0.485791,0.487085 0.48579,0.488381 0.953445,-0.952149 c 0.825646,-0.824635 0.967629,-0.944071 1.058375,-0.893854 0.05761,0.03189 0.279371,0.237308 0.493564,0.455995 l 0.389928,0.397698 0.01426,-5.652008 c 0.0078,-3.108311 0.03198,-5.650716 0.05442,-5.650716 0.02245,0 2.33235,2.286917 5.132539,5.082017 5.71737,5.706994 5.297816,5.342404 6.148161,5.344991 0.365489,10e-4 0.501146,-0.02486 0.760424,-0.14509 1.048035,-0.486099 1.482362,-1.677007 0.980652,-2.686745 -0.07321,-0.147331 -2.461543,-2.577059 -6.985024,-7.1042 -5.7319,-5.736531 -6.926564,-6.906749 -7.185815,-7.038131 -0.277035,-0.140396 -0.368536,-0.157465 -0.839447,-0.156749 z m 0.972876,18.274788 -0.945671,0.946968 c -0.519599,0.520274 -0.96225,0.939155 -0.984535,0.931423 -0.02228,-0.0078 -0.462178,-0.432665 -0.976763,-0.944376 l -0.935309,-0.930128 -0.998784,1.00008 -0.998787,1.000083 0.374382,0.374378 0.375681,0.374388 0.59849,-0.597198 c 0.329558,-0.328543 0.618517,-0.597202 0.64254,-0.597202 0.02405,0 0.460384,0.41359 0.968992,0.918472 0.508608,0.504877 0.939336,0.917167 0.957331,0.917167 0.01801,0 0.445371,-0.41229 0.949557,-0.917167 0.504186,-0.504882 0.94226,-0.918472 0.972876,-0.918472 0.03062,0 0.475448,0.419115 0.988421,0.93142 l 0.932718,0.931425 0.98583,-0.987126 0.987129,-0.987127 -0.374387,-0.374382 -0.375678,-0.375677 -0.611444,0.611449 -0.612746,0.610151 -0.959922,-0.958626 z m 0.0026,2.725609 -0.959919,0.959925 -0.961217,0.958628 -0.500044,-0.49875 -0.501334,-0.498748 0.0026,3.44847 c 0.0021,3.109153 0.01146,3.47423 0.09717,3.710144 0.202878,0.558466 0.657781,1.013891 1.224191,1.226783 0.192411,0.07229 0.378698,0.09432 0.706016,0.08031 0.748914,-0.03205 1.329222,-0.410452 1.680186,-1.095941 l 0.156752,-0.305699 0.01556,-3.502873 0.01555,-3.501575 -0.488381,-0.489675 z" />
  </g>
</svg>
