<?xml version="1.0" encoding="UTF-8" standalone="no"?>
<svg
   width="64"
   height="64"
   version="1.1"
   id="svg73"
   sodipodi:docname="audacious.svg"
   inkscape:version="1.4.2 (ebf0e940d0, 2025-05-08)"
   xmlns:inkscape="http://www.inkscape.org/namespaces/inkscape"
   xmlns:sodipodi="http://sodipodi.sourceforge.net/DTD/sodipodi-0.dtd"
   xmlns="http://www.w3.org/2000/svg"
   xmlns:svg="http://www.w3.org/2000/svg"
   xmlns:rdf="http://www.w3.org/1999/02/22-rdf-syntax-ns#"
   xmlns:cc="http://creativecommons.org/ns#"
   xmlns:dc="http://purl.org/dc/elements/1.1/">
  <metadata
     id="metadata77">
    <rdf:RDF>
      <cc:Work
         rdf:about="">
        <dc:format>image/svg+xml</dc:format>
        <dc:type
           rdf:resource="http://purl.org/dc/dcmitype/StillImage" />
      </cc:Work>
    </rdf:RDF>
  </metadata>
  <sodipodi:namedview
     pagecolor="#f5f7fa"
     bordercolor="#666666"
     borderopacity="1"
     objecttolerance="10"
     gridtolerance="10"
     guidetolerance="10"
     inkscape:pageopacity="0"
     inkscape:pageshadow="2"
     inkscape:window-width="1377"
     inkscape:window-height="886"
     id="namedview75"
     showgrid="false"
     inkscape:zoom="6.2890624"
     inkscape:cx="47.622361"
     inkscape:cy="45.396274"
     inkscape:window-x="264"
     inkscape:window-y="84"
     inkscape:window-maximized="0"
     inkscape:current-layer="g877"
     inkscape:document-rotation="0"
     inkscape:pagecheckerboard="0"
     inkscape:showpageshadow="2"
     inkscape:deskcolor="#d1d1d1" />
  <defs
     id="defs29" />
  <circle
     cx="32.516094"
     cy="31.877844"
     r="0"
     fill="url(#b)"
     stroke-width="1.5715"
     id="circle41"
     style="fill:url(#b)" />
  <g
     aria-label="GZ"
     transform="matrix(1.2212657,0,0,0.81882264,0.4960938,-0.1661539)"
     id="text93"
     style="font-weight:bold;font-size:11.5263px;line-height:1.25;font-family:sans-serif;-inkscape-font-specification:'sans-serif Bold';fill:#f2f2f2;stroke-width:0.288159" />
  <g
     id="g877"
     transform="matrix(1.1,0,0,1.1,-3.1845928,-3.2065454)">
    <rect
       x="8.3496294"
       y="8.369586"
       width="47.272728"
       height="47.272728"
       rx="9.8825235"
       ry="9.6485243"
       fill="url(#linearGradient862)"
       stroke-width="3.0541"
       id="rect35-7-3"
       style="fill:#414141;fill-opacity:1;stroke:#dfdfdf;stroke-width:2.04545;stroke-dasharray:none;stroke-opacity:1" />
    <path
       style="fill:#dfdfdf;stroke-width:0.736364;fill-opacity:1"
       d="m 47.715327,20.224212 c -0.337076,0.0029 -1.361994,0.07731 -4.684152,0.306074 -1.247052,0.08586 -3.172346,0.218313 -4.278426,0.294366 -1.106081,0.07605 -2.90716,0.19988 -4.002398,0.275189 -1.095238,0.07531 -2.922934,0.199996 -4.061548,0.277037 -3.891962,0.26334 -3.652902,0.241988 -3.835426,0.342813 -0.227783,0.12583 -0.371608,0.374833 -0.44015,0.762024 -0.03058,0.172852 -0.07243,0.358602 -0.09296,0.412823 -0.02054,0.05422 -0.05015,0.202768 -0.06577,0.330105 -0.01562,0.127332 -0.05197,0.298199 -0.08071,0.379703 -0.02875,0.0815 -0.06527,0.251881 -0.0811,0.378547 -0.01582,0.12667 -0.05074,0.284087 -0.07756,0.349821 -0.0268,0.06573 -0.06129,0.223639 -0.07663,0.350977 -0.01535,0.127332 -0.05078,0.296322 -0.07871,0.375465 -0.02794,0.07915 -0.06404,0.240729 -0.08032,0.35914 -0.01629,0.118422 -0.05179,0.27812 -0.07886,0.354902 -0.02709,0.07677 -0.06258,0.236495 -0.07886,0.354904 -0.01629,0.118422 -0.05179,0.278119 -0.07888,0.354906 -0.02709,0.07677 -0.06258,0.236492 -0.07886,0.354902 -0.01629,0.118422 -0.05179,0.278119 -0.07888,0.354902 -0.0271,0.07677 -0.06258,0.236494 -0.07888,0.354905 -0.01627,0.118422 -0.05179,0.278118 -0.07888,0.354903 -0.0271,0.07677 -0.06258,0.236491 -0.07888,0.354904 -0.01629,0.118422 -0.05179,0.27812 -0.07888,0.354902 -0.0271,0.07677 -0.0626,0.236904 -0.07888,0.355752 -0.01625,0.118849 -0.04655,0.260401 -0.0673,0.314622 -0.02075,0.05422 -0.06291,0.240547 -0.09373,0.414054 -0.0522,0.293903 -0.05108,0.322211 0.01562,0.414056 0.140838,0.193866 0.310862,0.237782 1.537328,0.397111 0.644136,0.08368 1.650297,0.21548 2.23587,0.292826 0.585573,0.07735 1.601453,0.211046 2.257512,0.297138 0.656057,0.08609 1.738477,0.228242 2.405382,0.315855 0.666901,0.08761 1.682782,0.220129 2.257509,0.29452 1.249277,0.161703 3.264409,0.425644 4.071408,0.533282 1.32312,0.176472 1.796894,0.239377 2.829281,0.375774 0.596415,0.0788 1.519135,0.201538 2.050491,0.272726 1.213416,0.16256 1.244311,0.163721 1.315825,0.05015 0.05535,-0.08789 0.132811,-0.435528 0.30083,-1.350609 0.04779,-0.260262 0.127745,-0.686144 0.177754,-0.946407 0.05,-0.260262 0.129393,-0.677274 0.176368,-0.926694 0.04696,-0.249417 0.118407,-0.604321 0.158729,-0.788675 0.04032,-0.184351 0.08484,-0.406166 0.09897,-0.492922 0.02626,-0.161263 0.09359,-0.513189 0.271482,-1.419613 0.05535,-0.281952 0.136905,-0.70327 0.181298,-0.93632 0.04439,-0.233049 0.11714,-0.614572 0.161581,-0.847824 0.04446,-0.233254 0.122472,-0.637087 0.173364,-0.897349 0.05089,-0.260263 0.12982,-0.668402 0.175521,-0.906974 0.07546,-0.393964 0.130057,-0.673693 0.357899,-1.83367 0.170278,-0.866958 0.178329,-0.961761 0.09342,-1.107148 -0.04244,-0.07269 -0.135343,-0.166139 -0.206403,-0.207642 -0.05463,-0.03191 -0.0093,-0.05593 -0.211489,-0.05422 z M 23.886542,31.035446 c -0.161716,-0.0018 -0.315577,0.01001 -0.473036,0.03434 -0.216877,0.03362 -1.911489,0.276075 -3.765802,0.538747 -1.854315,0.262673 -3.448446,0.505456 -3.542457,0.53952 -0.398722,0.144475 -0.43178,0.646828 -0.05499,0.835576 0.08088,0.04052 0.253569,0.104578 0.383696,0.142413 0.130126,0.03784 0.280957,0.08273 0.335176,0.09966 0.05422,0.01696 0.16956,0.05009 0.256312,0.07371 0.247376,0.06735 0.887835,0.247475 1.133685,0.318859 0.0705,0.02046 0.199134,0.05697 0.285885,0.0811 0.08675,0.02414 0.210965,0.0592 0.276027,0.07796 0.192159,0.05535 0.974276,0.276115 1.123827,0.31724 0.07591,0.02088 0.257789,0.07358 0.404183,0.117141 0.146393,0.04356 0.385946,0.114873 0.532338,0.158428 0.146394,0.04356 0.33715,0.09882 0.423901,0.122856 0.08675,0.02402 0.20209,0.05729 0.256311,0.07394 0.05423,0.01665 0.169559,0.04929 0.256311,0.07246 0.369691,0.09875 0.642951,0.176292 1.537867,0.436465 0.520509,0.151325 1.106082,0.317978 1.301272,0.370385 0.584967,0.157061 3.284102,0.929644 3.686939,1.055315 0.206033,0.06428 0.445588,0.136935 0.532339,0.161506 0.08676,0.02459 0.237053,0.06979 0.334021,0.100588 0.09695,0.03078 0.283284,0.08264 0.414041,0.115211 0.130764,0.03258 0.290985,0.07484 0.356049,0.09389 0.06507,0.01904 0.180403,0.05189 0.256309,0.07303 0.07592,0.02113 0.324332,0.09458 0.552057,0.163203 0.593163,0.178781 0.860015,0.254605 1.123825,0.319167 0.08676,0.02122 0.27307,0.07308 0.414041,0.115225 0.14097,0.04214 0.451503,0.131486 0.690069,0.198632 0.238567,0.06716 0.51021,0.147557 0.603737,0.178684 0.09352,0.03114 0.315329,0.09328 0.492906,0.138172 0.177572,0.04487 0.677821,0.18608 1.111578,0.313776 1.146036,0.337379 1.209624,0.353167 1.351026,0.33503 0.07075,-0.0091 1.951556,-0.935859 4.179615,-2.059561 4.381023,-2.209537 4.228903,-2.121863 4.228903,-2.4385 0,-0.216036 0.173926,-0.173605 -2.030775,-0.49554 -0.585572,-0.08551 -1.304228,-0.19014 -1.597015,-0.232598 -0.292786,-0.04246 -0.709784,-0.104519 -0.926666,-0.137862 -0.216878,-0.03334 -0.8823,-0.131249 -1.478714,-0.217577 -0.596419,-0.08632 -1.572374,-0.228342 -2.16879,-0.315625 -0.596417,-0.08727 -1.44816,-0.211307 -1.89276,-0.275574 -1.026224,-0.14834 -3.209309,-0.468383 -4.436156,-0.650349 -0.520509,-0.0772 -1.310146,-0.192828 -1.754748,-0.256934 -2.718214,-0.391926 -3.557281,-0.517914 -3.785519,-0.568322 -0.365965,-0.08084 -0.657289,-0.120925 -0.926818,-0.123768 z m -2.291474,4.406641 c -0.07093,0.01505 -1.513607,3.1124 -1.513607,3.249664 0,0.1557 0.112218,0.332306 0.248994,0.391794 0.159487,0.06937 0.190312,0.06959 0.37122,0.0029 0.08177,-0.03017 0.335037,-0.111618 0.562761,-0.180996 0.227722,-0.06939 0.551377,-0.169408 0.719257,-0.222276 0.292857,-0.09224 0.49115,-0.152872 1.272083,-0.389254 0.646,-0.195539 1.051009,-0.334701 1.157097,-0.39765 0.211534,-0.125505 0.437412,-0.538289 0.678285,-1.239311 0.0697,-0.202842 0.07022,-0.220093 0.0079,-0.266949 -0.03658,-0.02754 -0.138082,-0.068 -0.225508,-0.08987 -0.311991,-0.07816 -1.20002,-0.316426 -2.202706,-0.591122 -0.560229,-0.153482 -1.044357,-0.27362 -1.075844,-0.26695 z m 18.407892,2.447278 c -0.04143,0.0012 -0.09291,0.01827 -0.15157,0.05229 -0.07178,0.04165 -0.286244,0.162315 -0.476577,0.268103 -0.305619,0.169866 -0.90927,0.523394 -1.312132,0.768419 -0.07592,0.04615 -0.226739,0.129026 -0.335178,0.184152 -0.108437,0.05512 -0.294756,0.160765 -0.414041,0.234831 -0.583348,0.362212 -0.821969,0.437789 -1.072685,0.339576 -0.04982,-0.01951 -0.30867,-0.09358 -0.575238,-0.164588 -0.416983,-0.111059 -0.491881,-0.121236 -0.536266,-0.07294 -0.04793,0.05216 -0.103812,0.188859 -0.304909,0.746162 -0.04305,0.119276 -0.114475,0.305611 -0.15873,0.414053 -0.04426,0.108452 -0.09549,0.250403 -0.11374,0.315468 -0.01826,0.06507 -0.08894,0.269138 -0.157114,0.453491 -0.06818,0.184351 -0.138819,0.379549 -0.157037,0.43377 -0.0182,0.05422 -0.08879,0.249417 -0.156806,0.433771 -0.1158,0.313879 -0.318153,1.035801 -0.314996,1.123784 0.0032,0.08742 0.191931,0.264483 0.337176,0.31624 0.202249,0.07205 0.216882,0.07157 0.480897,-0.01802 0.349996,-0.118791 2.5691,-1.255664 3.163222,-1.620557 0.292787,-0.179819 0.722605,-0.42922 0.955237,-0.554227 0.232632,-0.125006 0.46066,-0.253651 0.506693,-0.285895 0.160981,-0.112752 0.275864,-0.340266 0.356588,-0.706418 0.04419,-0.200512 0.106213,-0.479952 0.137862,-0.620928 0.03163,-0.140968 0.07357,-0.336173 0.09319,-0.433773 0.01962,-0.0976 0.09886,-0.449103 0.176057,-0.781201 0.07717,-0.332097 0.140322,-0.647703 0.140322,-0.701259 0,-0.08361 -0.04117,-0.126198 -0.11022,-0.124298 z"
       id="path3" />
  </g>
</svg>
