<?xml version="1.0" encoding="UTF-8" standalone="no"?>
<svg
   width="64"
   height="64"
   version="1.1"
   id="svg73"
   sodipodi:docname="audacious.svg"
   inkscape:version="1.4.2 (ebf0e940d0, 2025-05-08)"
   xmlns:inkscape="http://www.inkscape.org/namespaces/inkscape"
   xmlns:sodipodi="http://sodipodi.sourceforge.net/DTD/sodipodi-0.dtd"
   xmlns="http://www.w3.org/2000/svg"
   xmlns:svg="http://www.w3.org/2000/svg"
   xmlns:rdf="http://www.w3.org/1999/02/22-rdf-syntax-ns#"
   xmlns:cc="http://creativecommons.org/ns#"
   xmlns:dc="http://purl.org/dc/elements/1.1/">
  <metadata
     id="metadata77">
    <rdf:RDF>
      <cc:Work
         rdf:about="">
        <dc:format>image/svg+xml</dc:format>
        <dc:type
           rdf:resource="http://purl.org/dc/dcmitype/StillImage" />
      </cc:Work>
    </rdf:RDF>
  </metadata>
  <sodipodi:namedview
     pagecolor="#f5f7fa"
     bordercolor="#666666"
     borderopacity="1"
     objecttolerance="10"
     gridtolerance="10"
     guidetolerance="10"
     inkscape:pageopacity="0"
     inkscape:pageshadow="2"
     inkscape:window-width="1377"
     inkscape:window-height="886"
     id="namedview75"
     showgrid="false"
     inkscape:zoom="6.2890624"
     inkscape:cx="47.622361"
     inkscape:cy="45.396274"
     inkscape:window-x="28"
     inkscape:window-y="57"
     inkscape:window-maximized="0"
     inkscape:current-layer="g877"
     inkscape:document-rotation="0"
     inkscape:pagecheckerboard="0"
     inkscape:showpageshadow="2"
     inkscape:deskcolor="#d1d1d1" />
  <defs
     id="defs29" />
  <circle
     cx="32.516094"
     cy="31.877844"
     r="0"
     fill="url(#b)"
     stroke-width="1.5715"
     id="circle41"
     style="fill:url(#b)" />
  <g
     aria-label="GZ"
     transform="matrix(1.2212657,0,0,0.81882264,0.4960938,-0.1661539)"
     id="text93"
     style="font-weight:bold;font-size:11.5263px;line-height:1.25;font-family:sans-serif;-inkscape-font-specification:'sans-serif Bold';fill:#f2f2f2;stroke-width:0.288159" />
  <g
     id="g877"
     transform="matrix(1.1,0,0,1.1,-3.1845928,-3.2065454)">
    <rect
       x="8.3496294"
       y="8.369586"
       width="47.272728"
       height="47.272728"
       rx="9.8825235"
       ry="9.6485243"
       fill="url(#linearGradient862)"
       stroke-width="3.0541"
       id="rect35-7-3"
       style="fill:#414141;fill-opacity:1;stroke:#dfdfdf;stroke-width:2.04545;stroke-dasharray:none;stroke-opacity:1" />
    <path
       style="fill:#dfdfdf;stroke:none;stroke-width:0.486252;stroke-dasharray:none;stroke-opacity:0.6;fill-opacity:1"
       d="m 27.291261,16.848064 c -0.09299,0.0023 -0.192491,0.02925 -0.287394,0.09214 -0.09487,0.06296 -0.172728,0.178204 -0.191576,0.276433 -0.03771,0.196452 0.0084,0.290479 0.09576,0.460719 0.402977,0.698449 0.801326,1.243363 0.957919,1.658615 0.268979,0.575781 0.265165,1.110873 0.191574,1.47431 l -0.478942,2.21149 c -2.418254,0.538668 -4.752296,1.083096 -7.088623,1.84296 -0.454741,0.139909 -0.801167,0.280755 -1.149496,0.460733 -0.0317,-0.005 -0.06408,-0.005 -0.09578,0 -0.122404,0.07011 -0.128128,0.173381 -0.191578,0.276431 -0.0317,0.05153 -0.08698,0.111575 -0.09579,0.184296 -0.0087,0.07271 0.02707,0.191438 0.09579,0.276439 0.204023,0.270418 0.478292,0.382175 0.862116,0.552875 0.38382,0.170678 0.8247,0.346698 1.149494,0.460715 1.624873,0.570412 3.714439,1.031552 5.364234,1.197885 -0.444284,1.928158 -0.873566,3.834029 -1.532652,5.712918 -0.160469,0.457426 -0.36501,0.933879 -0.574749,1.382165 -0.60239,1.287584 -1.366436,2.463143 -2.107483,3.593596 -0.782695,1.055658 -1.442237,2.084758 -2.299026,3.040724 -0.159822,0.162811 -0.417781,0.30221 -0.574748,0.460722 -0.07847,0.07933 -0.134444,0.206168 -0.191579,0.276467 -0.0286,0.03528 -0.07136,0.0494 -0.09578,0.09212 -0.02452,0.04264 -0.0093,0.06503 0,0.18426 -0.0053,0.03039 -0.0053,0.06166 0,0.09212 0.02402,0.03744 0.05686,0.06899 0.09578,0.09218 0.02402,0.03744 0.05685,0.06904 0.0958,0.09218 0.0317,0.0049 0.06408,0.0049 0.09578,0 0.171133,0.02486 0.312775,-0.04232 0.478961,-0.09218 0.166172,-0.04975 0.280493,-0.09475 0.478959,-0.18429 0.39692,-0.179136 0.908928,-0.382058 1.341075,-0.645019 0.620843,-0.377777 1.07889,-0.761923 1.436865,-1.01359 0.630875,-0.443512 2.051613,-1.715621 2.777886,-2.580022 0.834524,-0.913478 1.723087,-1.893592 2.394801,-3.132893 0.01288,-0.02375 -0.01289,-0.06818 0,-0.09216 0.04579,-0.07599 0.311179,-0.564381 0.383169,-0.73714 0.143985,-0.345522 0.24028,-0.688387 0.287383,-0.82931 l 2.107484,-6.173594 7.375937,-1.658617 c -0.182971,1.488768 -0.388217,2.930967 -0.574742,4.42298 -0.14216,1.229962 -0.239216,1.725319 -0.383175,3.040725 -0.0043,0.03932 0.0046,0.05129 0,0.09216 -0.08171,0.405441 -0.319315,1.544463 -0.383169,1.842956 -0.489615,2.288652 -1.015597,4.364011 -2.107481,6.173619 -0.261223,0.353011 -0.563416,0.724219 -0.862116,1.013592 -0.302109,-0.141018 -0.72595,-0.337392 -1.341073,-0.368571 -0.01058,-0.0015 -0.06623,0.0013 -0.09578,0 -0.0317,-0.0051 -0.06406,-0.0051 -0.09578,0 -0.0015,3.8e-4 -0.09516,0.09148 -0.09578,0.09212 -0.03894,0.02271 -0.07171,0.05468 -0.09578,0.09218 -0.04063,0.209267 0.03257,0.371056 0.09578,0.552869 0.06323,0.181836 0.114794,0.385678 0.191576,0.552876 0.553835,1.205934 1.203735,2.245295 1.820002,3.317239 0.02402,0.03744 0.05686,0.06898 0.09578,0.09218 0.02402,0.03744 0.05687,0.06898 0.09578,0.09214 0.03167,0.0049 0.06406,0.0049 0.09581,0 0.03167,0.0049 0.06406,0.0049 0.09578,0 0.03894,-0.02301 0.07171,-0.05468 0.09578,-0.09214 0.920216,-0.839015 2.0008,-2.18982 2.777893,-3.317242 1.528566,-2.205426 2.82089,-4.670991 3.73594,-7.463704 0.136729,-0.43443 0.248083,-0.87415 0.383174,-1.382166 l 2.873655,-10.5966 c 0.121509,-0.468296 0.261982,-0.988772 0.287358,-1.382166 0.0049,-0.03049 0.0049,-0.06163 0,-0.09214 -0.05947,-0.136411 -0.189568,-0.20761 -0.287358,-0.276422 -0.09786,-0.06881 -0.163641,-0.124901 -0.287361,-0.184298 -0.244307,-0.122644 -0.5717,-0.267871 -0.859992,-0.372474 -1.377949,-0.446601 -2.876435,-0.84833 -4.501951,-1.197913 -0.174256,-0.0726 -0.291562,-0.101724 -0.478863,-0.09202 -0.186562,0.0097 -0.462575,0.05476 -0.670543,0.09214 -0.415932,0.07476 -0.844268,0.214173 -1.149499,0.276439 l -3.832552,0.829219 c 0.162881,-0.489963 0.428372,-1.212169 0.192198,-2.11932 -0.327386,-1.029646 -1.171094,-1.630272 -2.107642,-1.93498 -0.798105,-0.259685 -1.576662,-0.490717 -2.394312,-0.737215 -0.133561,-0.03988 -0.734581,-0.244527 -1.342115,-0.276359 z"
       id="path8-7" />
  </g>
</svg>
