<?xml version="1.0" encoding="UTF-8" standalone="no"?>
<svg
   width="64"
   height="64"
   version="1.1"
   id="svg73"
   sodipodi:docname="audacious.svg"
   inkscape:version="1.4.2 (ebf0e940d0, 2025-05-08)"
   xmlns:inkscape="http://www.inkscape.org/namespaces/inkscape"
   xmlns:sodipodi="http://sodipodi.sourceforge.net/DTD/sodipodi-0.dtd"
   xmlns="http://www.w3.org/2000/svg"
   xmlns:svg="http://www.w3.org/2000/svg"
   xmlns:rdf="http://www.w3.org/1999/02/22-rdf-syntax-ns#"
   xmlns:cc="http://creativecommons.org/ns#"
   xmlns:dc="http://purl.org/dc/elements/1.1/">
  <metadata
     id="metadata77">
    <rdf:RDF>
      <cc:Work
         rdf:about="">
        <dc:format>image/svg+xml</dc:format>
        <dc:type
           rdf:resource="http://purl.org/dc/dcmitype/StillImage" />
      </cc:Work>
    </rdf:RDF>
  </metadata>
  <sodipodi:namedview
     pagecolor="#f5f7fa"
     bordercolor="#666666"
     borderopacity="1"
     objecttolerance="10"
     gridtolerance="10"
     guidetolerance="10"
     inkscape:pageopacity="0"
     inkscape:pageshadow="2"
     inkscape:window-width="1377"
     inkscape:window-height="886"
     id="namedview75"
     showgrid="false"
     inkscape:zoom="6.2890624"
     inkscape:cx="46.032299"
     inkscape:cy="36.809938"
     inkscape:window-x="226"
     inkscape:window-y="192"
     inkscape:window-maximized="0"
     inkscape:current-layer="g877"
     inkscape:document-rotation="0"
     inkscape:pagecheckerboard="0"
     inkscape:showpageshadow="2"
     inkscape:deskcolor="#d1d1d1" />
  <defs
     id="defs29" />
  <circle
     cx="32.516094"
     cy="31.877844"
     r="0"
     fill="url(#b)"
     stroke-width="1.5715"
     id="circle41"
     style="fill:url(#b)" />
  <g
     aria-label="GZ"
     transform="matrix(1.2212657,0,0,0.81882264,0.4960938,-0.1661539)"
     id="text93"
     style="font-weight:bold;font-size:11.5263px;line-height:1.25;font-family:sans-serif;-inkscape-font-specification:'sans-serif Bold';fill:#f2f2f2;stroke-width:0.288159" />
  <g
     id="g877"
     transform="matrix(1.1,0,0,1.1,-3.1845928,-3.2065454)">
    <rect
       x="8.3496294"
       y="8.369586"
       width="47.272728"
       height="47.272728"
       rx="9.8825235"
       ry="9.6485243"
       fill="url(#linearGradient862)"
       stroke-width="3.0541"
       id="rect35-7-3"
       style="fill:#414141;fill-opacity:1;stroke:#dfdfdf;stroke-width:2.04545;stroke-dasharray:none;stroke-opacity:1" />
    <path
       id="path98"
       style="fill:#dfdfdf;fill-opacity:1;stroke:none;stroke-width:0.451022;stroke-dasharray:none;stroke-opacity:0.6"
       d="m 30.799379,22.976588 -5.514457,0.05286 -5.51622,0.05462 -1.682526,2.637426 c -0.926038,1.45032 -1.685646,2.705268 -1.687811,2.788942 -0.0022,0.08368 1.729852,0.151515 3.84955,0.151515 2.119695,0 3.854833,0.05464 3.854833,0.121566 0,0.06692 -0.973458,2.189444 -2.161737,4.716357 -1.188278,2.526914 -2.46396,5.255307 -2.834749,6.06414 l -0.67301,1.47111 1.971463,-0.0051 1.973223,-0.0051 3.955259,-8.426723 c 2.175478,-4.635627 4.070215,-8.697908 4.21072,-9.026029 z m 10.680076,0.05286 c -3.351621,-0.02956 -6.161298,0.01683 -6.243844,0.102176 -0.08254,0.08534 -0.847525,1.661685 -1.700146,3.502474 -0.85262,1.84079 -2.685133,5.764528 -4.073299,8.720947 -1.388163,2.956417 -2.524079,5.444878 -2.522906,5.528551 v 0.0018 l 0.0018,0.0018 v 0.0018 l 0.0018,0.0018 v 0.0018 c 0.076,0.07828 0.902604,0.142717 1.897466,0.142717 h 1.897466 l 2.906984,-6.185714 2.908742,-6.187469 h 2.191691 c 1.205665,0 2.19345,0.03539 2.19345,0.07753 0,0.04213 -1.278154,2.791533 -2.840035,6.109949 -1.561881,3.318411 -2.840032,6.070825 -2.840032,6.116991 0,0.04616 0.882279,0.05837 1.960891,0.02625 l 1.96089,-0.05813 4.196628,-8.925315 4.196623,-8.925316 z" />
  </g>
</svg>
