<?xml version="1.0" encoding="UTF-8" standalone="no"?>
<svg
   width="64"
   height="64"
   version="1.1"
   id="svg73"
   sodipodi:docname="audacious.svg"
   inkscape:version="1.4.2 (ebf0e940d0, 2025-05-08)"
   xmlns:inkscape="http://www.inkscape.org/namespaces/inkscape"
   xmlns:sodipodi="http://sodipodi.sourceforge.net/DTD/sodipodi-0.dtd"
   xmlns="http://www.w3.org/2000/svg"
   xmlns:svg="http://www.w3.org/2000/svg"
   xmlns:rdf="http://www.w3.org/1999/02/22-rdf-syntax-ns#"
   xmlns:cc="http://creativecommons.org/ns#"
   xmlns:dc="http://purl.org/dc/elements/1.1/">
  <metadata
     id="metadata77">
    <rdf:RDF>
      <cc:Work
         rdf:about="">
        <dc:format>image/svg+xml</dc:format>
        <dc:type
           rdf:resource="http://purl.org/dc/dcmitype/StillImage" />
      </cc:Work>
    </rdf:RDF>
  </metadata>
  <sodipodi:namedview
     pagecolor="#f5f7fa"
     bordercolor="#666666"
     borderopacity="1"
     objecttolerance="10"
     gridtolerance="10"
     guidetolerance="10"
     inkscape:pageopacity="0"
     inkscape:pageshadow="2"
     inkscape:window-width="1377"
     inkscape:window-height="886"
     id="namedview75"
     showgrid="false"
     inkscape:zoom="6.2890624"
     inkscape:cx="47.622361"
     inkscape:cy="45.396274"
     inkscape:window-x="0"
     inkscape:window-y="75"
     inkscape:window-maximized="0"
     inkscape:current-layer="g877"
     inkscape:document-rotation="0"
     inkscape:pagecheckerboard="0"
     inkscape:showpageshadow="2"
     inkscape:deskcolor="#d1d1d1" />
  <defs
     id="defs29" />
  <circle
     cx="32.516094"
     cy="31.877844"
     r="0"
     fill="url(#b)"
     stroke-width="1.5715"
     id="circle41"
     style="fill:url(#b)" />
  <g
     aria-label="GZ"
     transform="matrix(1.2212657,0,0,0.81882264,0.4960938,-0.1661539)"
     id="text93"
     style="font-weight:bold;font-size:11.5263px;line-height:1.25;font-family:sans-serif;-inkscape-font-specification:'sans-serif Bold';fill:#f2f2f2;stroke-width:0.288159" />
  <g
     id="g877"
     transform="matrix(1.1,0,0,1.1,-3.1845928,-3.2065454)">
    <rect
       x="8.3496294"
       y="8.369586"
       width="47.272728"
       height="47.272728"
       rx="9.8825235"
       ry="9.6485243"
       fill="url(#linearGradient862)"
       stroke-width="3.0541"
       id="rect35-7-3"
       style="fill:#414141;fill-opacity:1;stroke:#dfdfdf;stroke-width:2.04545;stroke-dasharray:none;stroke-opacity:1" />
    <path
       style="fill:#dfdfdf;fill-opacity:1;stroke:none;stroke-width:0.96025;stroke-dasharray:none;stroke-dashoffset:2.2;stroke-opacity:0.3"
       d="m 26.05165,42.267496 c -2.198529,-0.351036 -4.674246,-1.804935 -6.328456,-3.716474 -0.88731,-1.025339 -2.29356,-3.133388 -2.799628,-4.196798 -0.659304,-1.385408 -0.790328,-2.198745 -0.520153,-3.22885 0.292392,-1.114814 0.811877,-2.179781 1.746653,-3.580708 2.065996,-3.096262 4.112293,-4.746643 6.952587,-5.607412 1.046491,-0.317146 3.244903,-0.34345 4.580585,-0.0548 2.558156,0.552817 5.793499,2.55127 7.510684,4.639312 0.88253,1.073129 1.376037,1.393055 2.163401,1.402481 0.524306,0.0062 0.910029,-0.184025 3.828876,-1.889125 3.758209,-2.19542 4.041661,-2.34093 4.338386,-2.227068 0.34455,0.132237 0.183226,0.970212 -0.485477,2.521014 -2.415149,5.600988 -2.441249,5.672721 -2.2425,6.162208 0.101346,0.249562 0.777886,1.841167 1.503444,3.536907 1.412331,3.300808 1.610834,4.073509 1.066331,4.150993 -0.180304,0.02551 -1.566838,-0.703578 -3.847026,-2.023319 -4.573459,-2.647051 -4.543691,-2.644024 -6.345801,-0.644986 -2.574435,2.855764 -6.038606,4.659529 -9.22825,4.805071 -0.680264,0.03127 -1.532408,0.0095 -1.893656,-0.04846 z M 23.587024,29.188627 c 0.699917,-0.699915 0.625347,-2.047398 -0.143606,-2.594938 -1.420559,-1.011528 -3.256481,0.533136 -2.508109,2.110209 0.326151,0.687318 0.867739,0.992687 1.642092,0.925883 0.478589,-0.04129 0.71155,-0.143084 1.009623,-0.441154 z"
       id="path26" />
  </g>
</svg>
