<?xml version="1.0" encoding="UTF-8" standalone="no"?>
<svg
   width="64"
   height="64"
   version="1.1"
   id="svg73"
   sodipodi:docname="clamtk.svg"
   inkscape:version="1.4.2 (ebf0e940d0, 2025-05-08)"
   xmlns:inkscape="http://www.inkscape.org/namespaces/inkscape"
   xmlns:sodipodi="http://sodipodi.sourceforge.net/DTD/sodipodi-0.dtd"
   xmlns="http://www.w3.org/2000/svg"
   xmlns:svg="http://www.w3.org/2000/svg"
   xmlns:rdf="http://www.w3.org/1999/02/22-rdf-syntax-ns#"
   xmlns:cc="http://creativecommons.org/ns#"
   xmlns:dc="http://purl.org/dc/elements/1.1/">
  <metadata
     id="metadata77">
    <rdf:RDF>
      <cc:Work
         rdf:about="">
        <dc:format>image/svg+xml</dc:format>
        <dc:type
           rdf:resource="http://purl.org/dc/dcmitype/StillImage" />
      </cc:Work>
    </rdf:RDF>
  </metadata>
  <sodipodi:namedview
     pagecolor="#f5f7fa"
     bordercolor="#666666"
     borderopacity="1"
     objecttolerance="10"
     gridtolerance="10"
     guidetolerance="10"
     inkscape:pageopacity="0"
     inkscape:pageshadow="2"
     inkscape:window-width="1377"
     inkscape:window-height="886"
     id="namedview75"
     showgrid="false"
     inkscape:zoom="6.2890624"
     inkscape:cx="47.622361"
     inkscape:cy="45.396274"
     inkscape:window-x="147"
     inkscape:window-y="75"
     inkscape:window-maximized="0"
     inkscape:current-layer="g877"
     inkscape:document-rotation="0"
     inkscape:pagecheckerboard="0"
     inkscape:showpageshadow="2"
     inkscape:deskcolor="#d1d1d1" />
  <defs
     id="defs29">
    <linearGradient
       id="b"
       x1="399.57"
       x2="399.57"
       y1="545.8"
       y2="517.8"
       gradientTransform="matrix(2.1429,0,0,2.1429,-825.86391,-1107.6662)"
       gradientUnits="userSpaceOnUse">
      <stop
         stop-color="#3889e9"
         offset="0"
         id="stop2" />
      <stop
         stop-color="#5ea5fb"
         offset="1"
         id="stop4" />
    </linearGradient>
  </defs>
  <circle
     cx="32.516094"
     cy="31.877844"
     r="0"
     fill="url(#b)"
     stroke-width="1.5715"
     id="circle41"
     style="fill:url(#b)" />
  <g
     aria-label="GZ"
     transform="matrix(1.2212657,0,0,0.81882264,0.4960938,-0.1661539)"
     id="text93"
     style="font-weight:bold;font-size:11.5263px;line-height:1.25;font-family:sans-serif;-inkscape-font-specification:'sans-serif Bold';fill:#f2f2f2;stroke-width:0.288159" />
  <g
     id="g877"
     transform="matrix(1.1,0,0,1.1,-3.1845928,-3.2065454)">
    <rect
       x="8.3496294"
       y="8.369586"
       width="47.272728"
       height="47.272728"
       rx="9.8825235"
       ry="9.6485243"
       fill="url(#linearGradient862)"
       stroke-width="3.0541"
       id="rect35-7-3"
       style="fill:#414141;fill-opacity:1;stroke:#dfdfdf;stroke-width:2.04545;stroke-dasharray:none;stroke-opacity:1" />
    <path
       d="m 19.03284,16.243209 v 2.101698 h 5.254246 v -2.101698 z m 7.355945,0 v 2.101698 h 8.406795 v -2.101698 z m -7.355945,4.203397 v 2.1017 h 6.305096 v -2.1017 z m 8.406797,0 v 2.1017 h 5.254245 v -2.1017 z m 7.355943,0 v 2.1017 h 2.101699 v -2.1017 z m -15.76274,4.203398 v 2.101699 h 3.152547 v -2.101699 z m 5.254246,0 v 2.101699 h 4.203398 v -2.101699 z m 6.305097,0 v 2.101699 H 34.79558 V 24.650004 Z M 19.03284,28.853403 v 2.101698 h 5.254246 v -2.101698 z m 7.355945,0 v 2.101698 h 8.406795 v -2.101698 z m 10.508494,0 v 2.101698 h 5.254246 V 28.853403 Z M 19.03284,33.0568 v 2.101697 h 5.254246 V 33.0568 Z m 7.355945,0 v 2.101697 h 3.152549 V 33.0568 Z m 5.254247,0 v 2.101697 h 5.254247 V 33.0568 Z M 19.03284,37.260199 v 2.1017 h 4.203396 v -2.1017 z m 6.305096,0 v 2.1017 h 9.457644 v -2.1017 z m -6.305096,4.203394 v 2.101701 h 8.406797 v -2.101701 z m 10.508494,0 v 2.101701 H 33.74473 V 41.463593 Z M 19.03284,45.66699 v 2.101702 h 5.254246 V 45.66699 Z m 7.355945,0 v 2.101702 h 6.305097 V 45.66699 Z"
       fill="#707070"
       id="path3-5"
       style="fill:#dfdfdf;fill-opacity:1;stroke:none;stroke-width:0.49228;stroke-dasharray:none;stroke-opacity:0.6" />
    <rect
       x="37.737823"
       y="37.757782"
       width="22.610399"
       height="22.610399"
       rx="4.7267799"
       ry="4.6148596"
       fill="url(#linearGradient862)"
       stroke-width="3.0541"
       id="rect35-7-3-1"
       style="fill:#414141;fill-opacity:1;stroke:#dfdfdf;stroke-width:0.978336;stroke-dasharray:none;stroke-opacity:1" />
    <path
       d="m 47.859141,47.816494 v -4.695989 c 0,-0.704194 0.571991,-1.274836 1.276188,-1.274836 0.704195,0 1.27484,0.570642 1.27484,1.274836 v 4.695989 h 4.697339 c 0.704189,0 1.274834,0.571991 1.274834,1.276189 0,0.704193 -0.570645,1.274839 -1.274834,1.274839 h -4.697339 v 4.697339 c 0,0.70419 -0.570645,1.274836 -1.27484,1.274836 -0.704197,0 -1.276188,-0.570646 -1.276188,-1.274836 v -4.697339 h -4.69599 c -0.704193,0 -1.274838,-0.570646 -1.274838,-1.274839 0,-0.704198 0.570645,-1.276189 1.274838,-1.276189 z"
       fill="#dfdfdf"
       id="path5"
       style="fill:#dfdfdf;fill-opacity:1;stroke:none;stroke-width:0.473573;stroke-dasharray:none;stroke-opacity:0.6" />
  </g>
</svg>
