<?xml version="1.0" encoding="UTF-8" standalone="no"?>
<svg
   width="64"
   height="64"
   version="1.1"
   id="svg73"
   sodipodi:docname="audacious.svg"
   inkscape:version="1.4.2 (ebf0e940d0, 2025-05-08)"
   xmlns:inkscape="http://www.inkscape.org/namespaces/inkscape"
   xmlns:sodipodi="http://sodipodi.sourceforge.net/DTD/sodipodi-0.dtd"
   xmlns="http://www.w3.org/2000/svg"
   xmlns:svg="http://www.w3.org/2000/svg"
   xmlns:rdf="http://www.w3.org/1999/02/22-rdf-syntax-ns#"
   xmlns:cc="http://creativecommons.org/ns#"
   xmlns:dc="http://purl.org/dc/elements/1.1/">
  <metadata
     id="metadata77">
    <rdf:RDF>
      <cc:Work
         rdf:about="">
        <dc:format>image/svg+xml</dc:format>
        <dc:type
           rdf:resource="http://purl.org/dc/dcmitype/StillImage" />
      </cc:Work>
    </rdf:RDF>
  </metadata>
  <sodipodi:namedview
     pagecolor="#f5f7fa"
     bordercolor="#666666"
     borderopacity="1"
     objecttolerance="10"
     gridtolerance="10"
     guidetolerance="10"
     inkscape:pageopacity="0"
     inkscape:pageshadow="2"
     inkscape:window-width="1377"
     inkscape:window-height="886"
     id="namedview75"
     showgrid="false"
     inkscape:zoom="6.2890624"
     inkscape:cx="26.474535"
     inkscape:cy="38.877019"
     inkscape:window-x="0"
     inkscape:window-y="75"
     inkscape:window-maximized="0"
     inkscape:current-layer="g877"
     inkscape:document-rotation="0"
     inkscape:pagecheckerboard="0"
     inkscape:showpageshadow="2"
     inkscape:deskcolor="#d1d1d1" />
  <defs
     id="defs29" />
  <circle
     cx="32.516094"
     cy="31.877844"
     r="0"
     fill="url(#b)"
     stroke-width="1.5715"
     id="circle41"
     style="fill:url(#b)" />
  <g
     aria-label="GZ"
     transform="matrix(1.2212657,0,0,0.81882264,0.4960938,-0.1661539)"
     id="text93"
     style="font-weight:bold;font-size:11.5263px;line-height:1.25;font-family:sans-serif;-inkscape-font-specification:'sans-serif Bold';fill:#f2f2f2;stroke-width:0.288159" />
  <g
     id="g877"
     transform="matrix(1.1,0,0,1.1,-3.1845928,-3.2065454)">
    <rect
       x="8.3496294"
       y="8.369586"
       width="47.272728"
       height="47.272728"
       rx="9.8825235"
       ry="9.6485243"
       fill="url(#linearGradient862)"
       stroke-width="3.0541"
       id="rect35-7-3"
       style="fill:#414141;fill-opacity:1;stroke:#dfdfdf;stroke-width:2.04545;stroke-dasharray:none;stroke-opacity:1" />
    <path
       id="path12"
       style="fill:#dfdfdf;fill-opacity:1;stroke:none;stroke-width:0.486252;stroke-dasharray:none;stroke-opacity:0.6"
       d="m 32.181294,21.017793 c -4.273423,-0.03159 -7.813958,-0.01361 -7.867407,0.0399 -0.05344,0.05344 1.657608,2.512033 3.802643,5.46274 2.145037,2.950707 3.968584,5.294118 4.051468,5.208216 0.0829,-0.08591 1.867044,-2.517206 3.965995,-5.403857 L 39.94993,21.07668 Z m -12.304456,11.369943 -3.943202,0.06079 3.859625,5.312685 c 2.123182,2.922161 3.947339,5.283604 4.053368,5.248099 0.106027,-0.03567 1.909853,-2.426027 4.00968,-5.312684 l 3.817838,-5.2481 -3.926104,-0.06079 c -2.159462,-0.03278 -5.701632,-0.03278 -7.871205,0 z m 20.310522,0.002 -7.759141,0.05888 3.929905,5.400049 c 3.882353,5.336242 3.933995,5.396487 4.300287,4.921407 1.662734,-2.156522 7.451919,-10.271592 7.379262,-10.344248 -0.05066,-0.05068 -3.583221,-0.06769 -7.850313,-0.03609 z" />
  </g>
</svg>
