<?xml version="1.0" encoding="UTF-8" standalone="no"?>
<svg
   width="64"
   height="64"
   version="1.1"
   id="svg73"
   sodipodi:docname="steam_icon_807120.svg"
   inkscape:version="1.3.2 (091e20ef0f, 2023-11-25)"
   xmlns:inkscape="http://www.inkscape.org/namespaces/inkscape"
   xmlns:sodipodi="http://sodipodi.sourceforge.net/DTD/sodipodi-0.dtd"
   xmlns="http://www.w3.org/2000/svg"
   xmlns:svg="http://www.w3.org/2000/svg"
   xmlns:rdf="http://www.w3.org/1999/02/22-rdf-syntax-ns#"
   xmlns:cc="http://creativecommons.org/ns#"
   xmlns:dc="http://purl.org/dc/elements/1.1/">
  <metadata
     id="metadata77">
    <rdf:RDF>
      <cc:Work
         rdf:about="">
        <dc:format>image/svg+xml</dc:format>
        <dc:type
           rdf:resource="http://purl.org/dc/dcmitype/StillImage" />
      </cc:Work>
    </rdf:RDF>
  </metadata>
  <sodipodi:namedview
     pagecolor="#f5f7fa"
     bordercolor="#666666"
     borderopacity="1"
     objecttolerance="10"
     gridtolerance="10"
     guidetolerance="10"
     inkscape:pageopacity="0"
     inkscape:pageshadow="2"
     inkscape:window-width="1377"
     inkscape:window-height="886"
     id="namedview75"
     showgrid="false"
     inkscape:zoom="6.2890624"
     inkscape:cx="47.622361"
     inkscape:cy="45.396274"
     inkscape:window-x="74"
     inkscape:window-y="53"
     inkscape:window-maximized="0"
     inkscape:current-layer="g877"
     inkscape:document-rotation="0"
     inkscape:pagecheckerboard="0"
     inkscape:showpageshadow="2"
     inkscape:deskcolor="#d1d1d1" />
  <defs
     id="defs29">
    <inkscape:path-effect
       effect="powerclip"
       id="path-effect1980"
       is_visible="true"
       lpeversion="1"
       inverse="true"
       flatten="false"
       hide_clip="false"
       message="Use fill-rule evenodd on &lt;b&gt;fill and stroke&lt;/b&gt; dialog if no flatten result after convert clip to paths." />
    <linearGradient
       id="b"
       x1="399.57"
       x2="399.57"
       y1="545.8"
       y2="517.8"
       gradientTransform="matrix(2.1429,0,0,2.1429,-825.86391,-1107.6662)"
       gradientUnits="userSpaceOnUse">
      <stop
         stop-color="#3889e9"
         offset="0"
         id="stop2" />
      <stop
         stop-color="#5ea5fb"
         offset="1"
         id="stop4" />
    </linearGradient>
    <linearGradient
       id="linearGradient862"
       x1="7.9373"
       x2="7.9373"
       y1="15.081"
       y2="1.852"
       gradientTransform="matrix(3.3743 0 0 3.3743 3.4312 3.4278)"
       gradientUnits="userSpaceOnUse">
      <stop
         stop-color="#f1efeb"
         offset="0"
         id="stop7" />
      <stop
         stop-color="#fff"
         offset="1"
         id="stop9" />
    </linearGradient>
    <linearGradient
       id="linearGradient910"
       x1="7.9373"
       x2="7.9373"
       y1="15.081"
       y2="1.852"
       gradientTransform="scale(3.7796)"
       gradientUnits="userSpaceOnUse">
      <stop
         stop-color="#613583"
         offset="0"
         id="stop12" />
      <stop
         stop-color="#a663c0"
         offset="1"
         id="stop14" />
    </linearGradient>
    <linearGradient
       id="linearGradient932"
       x1="379.24"
       x2="374.24"
       y1="546.85"
       y2="546.85"
       gradientTransform="matrix(2.1429 0 0 2.1429 -769.68 -1134.5)"
       gradientUnits="userSpaceOnUse">
      <stop
         stop-color="#f6f5f4"
         offset="0"
         id="stop17" />
      <stop
         stop-color="#fff"
         offset=".6"
         id="stop19" />
      <stop
         stop-color="#dddbd8"
         offset="1"
         id="stop21" />
    </linearGradient>
    <linearGradient
       id="linearGradient1146"
       x1="18"
       x2="18"
       y1="52"
       y2="12"
       gradientUnits="userSpaceOnUse">
      <stop
         stop-color="#5e337f"
         offset="0"
         id="stop24" />
      <stop
         stop-color="#ab60bf"
         offset="1"
         id="stop26" />
    </linearGradient>
    <clipPath
       clipPathUnits="userSpaceOnUse"
       id="clipPath1976">
      <rect
         x="9.6784649"
         y="9.925169"
         width="43.343258"
         height="44.613056"
         rx="8.6689987"
         ry="8.9229689"
         fill="url(#linearGradient862)"
         stroke-width="2.96772"
         id="rect1978"
         style="display:block;fill:#333333;fill-opacity:1" />
    </clipPath>
    <filter
       style="color-interpolation-filters:sRGB;"
       inkscape:label="Drop Shadow"
       id="filter663"
       x="-0.098870968"
       y="-0.096056853"
       width="1.2389382"
       height="1.2321374">
      <feFlood
         flood-opacity="0.301961"
         flood-color="rgb(0,0,0)"
         result="flood"
         id="feFlood653" />
      <feComposite
         in="flood"
         in2="SourceGraphic"
         operator="in"
         result="composite1"
         id="feComposite655" />
      <feGaussianBlur
         in="composite1"
         stdDeviation="2"
         result="blur"
         id="feGaussianBlur657" />
      <feOffset
         dx="2"
         dy="2"
         result="offset"
         id="feOffset659" />
      <feComposite
         in="SourceGraphic"
         in2="offset"
         operator="over"
         result="composite2"
         id="feComposite661" />
    </filter>
    <clipPath
       clipPathUnits="userSpaceOnUse"
       id="clipPath38">
      <rect
         x="0.97311002"
         y="4.6963"
         width="14.987"
         height="9.9216995"
         ry="0.29919001"
         fill="#fffffc"
         id="rect40"
         style="display:block;opacity:0.85;fill:#f2f2f2;stroke-width:0.999999" />
    </clipPath>
    <inkscape:path-effect
       effect="powerclip"
       id="path-effect42"
       is_visible="true"
       lpeversion="1"
       inverse="true"
       flatten="false"
       hide_clip="false"
       message="Use fill-rule evenodd on &lt;b&gt;fill and stroke&lt;/b&gt; dialog if no flatten result after convert clip to paths." />
    <clipPath
       clipPathUnits="userSpaceOnUse"
       id="clipPath30">
      <path
         id="path32"
         style="color:#000000;display:block;opacity:0.85;fill:#f5f7fa;stroke-linecap:round;-inkscape-stroke:none"
         d="m 27.902344,19.023438 c -5.140587,0.01596 -9.820748,0.752518 -13.330078,2.15625 a 2.5,2.5 0 0 0 -1.392578,3.248046 2.5,2.5 0 0 0 3.248046,1.392578 c 3.180816,-1.272325 8.839301,-2.056673 14.796875,-1.699218 5.957575,0.357454 12.260098,1.820223 17.035157,4.548828 a 2.5,2.5 0 0 0 3.410156,-0.929688 2.5,2.5 0 0 0 -0.929688,-3.410156 c -5.72493,-3.271389 -12.67243,-4.808627 -19.214843,-5.201172 -1.226703,-0.0736 -2.436758,-0.109153 -3.623047,-0.105468 z m -1.240235,9.966796 c -1.05657,-0.0087 -2.093217,0.01082 -3.097656,0.05859 -2.678505,0.127409 -5.127438,0.45996 -7.113281,1.027344 a 2,2 0 0 0 -1.375,2.472656 2,2 0 0 0 2.472656,1.375 c 3.028306,-0.86523 8.701737,-1.165792 14.148438,-0.68164 5.4467,0.484152 10.812065,1.834345 13.193359,3.421874 a 2,2 0 0 0 2.773437,-0.554687 2,2 0 0 0 -0.554687,-2.773437 C 43.490675,30.923467 37.856023,29.773657 32.052734,29.257808 30.239207,29.096607 28.42306,29.004783 26.662109,28.99023 Z m 0.917969,8.988282 c -3.813243,-0.0048 -7.379665,0.410834 -10.064453,1.082031 a 2,2 0 0 0 -1.455078,2.423828 2,2 0 0 0 2.423828,1.455078 c 5.391278,-1.347819 17.438862,-1.241506 23.621094,1.849609 a 2,2 0 0 0 2.683593,-0.894531 2,2 0 0 0 -0.894531,-2.683593 c -3.908877,-1.954439 -8.851018,-2.904387 -13.642578,-3.160157 -0.898417,-0.04796 -1.791896,-0.07116 -2.671875,-0.07227 z" />
    </clipPath>
    <inkscape:path-effect
       effect="powerclip"
       id="path-effect34"
       is_visible="true"
       lpeversion="1"
       inverse="true"
       flatten="false"
       hide_clip="false"
       message="Use fill-rule evenodd on &lt;b&gt;fill and stroke&lt;/b&gt; dialog if no flatten result after convert clip to paths." />
    <clipPath
       clipPathUnits="userSpaceOnUse"
       id="clipPath1299">
      <path
         style="color:#000000;display:block;opacity:0.85;fill:#f5f7fa;-inkscape-stroke:none"
         d="m 24.149464,39.847234 c 1.129182,1.129183 1.129024,2.947446 -3.54e-4,4.076824 L 11.920405,56.152763 c -1.129378,1.129378 -2.9476414,1.129536 -4.0768237,3.54e-4 -1.1291824,-1.129183 -1.1290247,-2.947446 3.535e-4,-4.076825 L 20.072639,39.847588 c 1.129379,-1.129378 2.947642,-1.129536 4.076825,-3.54e-4 z"
         id="path1301" />
    </clipPath>
    <inkscape:path-effect
       effect="powerclip"
       id="path-effect1303"
       is_visible="true"
       lpeversion="1"
       inverse="true"
       flatten="false"
       hide_clip="false"
       message="Use fill-rule evenodd on &lt;b&gt;fill and stroke&lt;/b&gt; dialog if no flatten result after convert clip to paths." />
    <clipPath
       clipPathUnits="userSpaceOnUse"
       id="clipPath703">
      <path
         id="path705"
         style="display:block;fill:#cccccc"
         d="m 43,22 a 10,10 0 0 0 -10,10 10,10 0 0 0 7.291016,9.619141 L 33.099609,56 H 32.716797 C 30.979913,56 29,58.306428 29,60 h 28 c 0,-1.693572 -1.979913,-4 -3.716797,-4 H 52.900391 L 45.708984,41.619141 A 10,10 0 0 0 53,32 10,10 0 0 0 43,22 Z" />
    </clipPath>
    <inkscape:path-effect
       effect="powerclip"
       id="path-effect707"
       is_visible="true"
       lpeversion="1"
       inverse="true"
       flatten="false"
       hide_clip="false"
       message="Use fill-rule evenodd on &lt;b&gt;fill and stroke&lt;/b&gt; dialog if no flatten result after convert clip to paths." />
    <clipPath
       clipPathUnits="userSpaceOnUse"
       id="clipPath679">
      <path
         id="path681"
         style="display:block;fill:#9499b2"
         d="m 31,6 c -0.554,0 -1,0.39025 -1,0.875 v 5.25 C 30,12.60975 30.446,13 31,13 h 2 c 0.554,0 1,-0.39025 1,-0.875 V 6.875 C 34,6.39025 33.554,6 33,6 Z m 1,10 A 16,16 0 0 0 16,32 16,16 0 0 0 32,48 16,16 0 0 0 48,32 16,16 0 0 0 32,16 Z M 6.875,30 C 6.39025,30 6,30.446 6,31 v 2 c 0,0.554 0.39025,1 0.875,1 h 5.25 C 12.60975,34 13,33.554 13,33 v -2 c 0,-0.554 -0.39025,-1 -0.875,-1 z m 45,0 C 51.39025,30 51,30.446 51,31 v 2 c 0,0.554 0.39025,1 0.875,1 h 5.25 C 57.60975,34 58,33.554 58,33 v -2 c 0,-0.554 -0.39025,-1 -0.875,-1 z M 31,51 c -0.554,0 -1,0.39025 -1,0.875 v 5.25 C 30,57.60975 30.446,58 31,58 h 2 c 0.554,0 1,-0.39025 1,-0.875 v -5.25 C 34,51.39025 33.554,51 33,51 Z" />
    </clipPath>
    <inkscape:path-effect
       effect="powerclip"
       id="path-effect683"
       is_visible="true"
       lpeversion="1"
       inverse="true"
       flatten="false"
       hide_clip="false"
       message="Use fill-rule evenodd on &lt;b&gt;fill and stroke&lt;/b&gt; dialog if no flatten result after convert clip to paths." />
    <clipPath
       clipPathUnits="userSpaceOnUse"
       id="clipPath32">
      <path
         fill="url(#deepin-feedback-c)"
         fill-rule="nonzero"
         d="m 17.266954,37.715754 c -0.854456,0 -1.547131,0.868034 -1.547131,1.938785 0,1.070753 0.692675,1.938786 1.547131,1.938786 h 30.169037 c 0.854455,0 1.547133,-0.868033 1.547133,-1.938786 0,-1.070751 -0.692678,-1.938785 -1.547133,-1.938785 z m 0,-9.693925 c -0.854456,0 -1.547131,0.867993 -1.547131,1.938784 0,1.070753 0.692675,1.938786 1.547131,1.938786 h 30.169037 c 0.854455,0 1.547133,-0.868033 1.547133,-1.938786 0,-1.070791 -0.692678,-1.938784 -1.547133,-1.938784 z m 0,-9.693965 c -0.854456,0 -1.547131,0.868033 -1.547131,1.938784 0,1.070793 0.692675,1.938825 1.547131,1.938825 h 30.169037 c 0.854455,0 1.547133,-0.868032 1.547133,-1.938825 0,-1.070751 -0.692678,-1.938784 -1.547133,-1.938784 z"
         id="path34"
         style="display:block;opacity:0.85;fill:#f9f9f9;stroke-width:0.144327" />
    </clipPath>
    <inkscape:path-effect
       effect="powerclip"
       id="path-effect36"
       is_visible="true"
       lpeversion="1"
       inverse="true"
       flatten="false"
       hide_clip="false"
       message="Use fill-rule evenodd on &lt;b&gt;fill and stroke&lt;/b&gt; dialog if no flatten result after convert clip to paths." />
    <clipPath
       clipPathUnits="userSpaceOnUse"
       id="clipPath854">
      <path
         style="display:block;fill:#ff812d;stroke-width:1.58832"
         d="M 16.422583,26.677299 C 38.790028,17.420545 36.741406,2.3199162 36.741406,2.3199162 c 0,0 12.349179,30.8061828 -6.163856,37.9881208 C 9.8965818,48.330999 11.458373,62.03536 11.458373,62.03536 c 0,0 -8.1724877,-29.921445 4.96421,-35.358061 z"
         id="path856"
         clip-path="url(#clipPath791)" />
    </clipPath>
    <inkscape:path-effect
       effect="powerclip"
       id="path-effect858"
       is_visible="true"
       lpeversion="1"
       inverse="true"
       flatten="false"
       hide_clip="false"
       message="Use fill-rule evenodd on &lt;b&gt;fill and stroke&lt;/b&gt; dialog if no flatten result after convert clip to paths." />
    <clipPath
       clipPathUnits="userSpaceOnUse"
       id="clipath_lpe_path-effect846">
      <path
         style="display:block;fill:#ffdf55;stroke-width:1.58832"
         d="M 4.2768115,34.537906 C 16.934974,18.372356 14.087849,7.0342933 14.087849,7.0342933 c 0,0 16.217779,19.6951427 5.182049,31.8936557 -12.3280457,13.627003 -7.706194,23.107411 -7.706194,23.107411 0,0 -14.5471376,-18.225493 -7.2868925,-27.497454 z"
         id="path848" />
    </clipPath>
    <inkscape:path-effect
       effect="powerclip"
       id="path-effect846"
       is_visible="true"
       lpeversion="1"
       inverse="true"
       flatten="false"
       hide_clip="false"
       message="Use fill-rule evenodd on &lt;b&gt;fill and stroke&lt;/b&gt; dialog if no flatten result after convert clip to paths." />
    <clipPath
       clipPathUnits="userSpaceOnUse"
       id="clipPath9545">
      <path
         style="display:block;fill:#f5f7fa;stroke-width:0.6561"
         d="m 33.433548,18.111827 a 4.26465,4.26465 0 0 0 -4.26465,4.26465 v 8.20125 h -0.02307 a 2.29635,2.29635 0 0 1 -2.273281,1.9683 2.29635,2.29635 0 0 1 -2.29635,-2.29635 2.29635,2.29635 0 0 1 2.29635,-2.29635 h 0.98415 v -2.6244 h -0.98415 a 4.92075,4.92075 0 0 0 -0.02435,0 4.92075,4.92075 0 0 0 -4.896404,4.92075 4.92075,4.92075 0 0 0 4.92075,4.92075 4.92075,4.92075 0 0 0 4.910498,-4.5927 h 0.01025 v -0.303703 a 4.92075,4.92075 0 0 0 0,-0.02435 v -2.29635 h 1.3122 a 1.3122,1.3122 0 0 0 1.3122,-1.3122 1.3122,1.3122 0 0 0 -1.3122,-1.3122 h -1.3122 v -2.95245 a 1.64025,1.64025 0 0 1 1.64025,-1.64025 1.64025,1.64025 0 0 1 1.64025,1.64025 v 0.32805 a 1.3122,1.3122 0 0 0 1.3122,1.3122 1.3122,1.3122 0 0 0 1.3122,-1.3122 1.3122,1.3122 0 0 0 0,-0.03204 v -0.624063 h -0.01282 a 4.26465,4.26465 0 0 0 -4.251835,-3.9366 z"
         id="path9547" />
    </clipPath>
    <inkscape:path-effect
       effect="powerclip"
       id="path-effect9549"
       is_visible="true"
       lpeversion="1"
       inverse="true"
       flatten="false"
       hide_clip="false"
       message="Use fill-rule evenodd on &lt;b&gt;fill and stroke&lt;/b&gt; dialog if no flatten result after convert clip to paths." />
    <clipPath
       clipPathUnits="userSpaceOnUse"
       id="clipPath29559">
      <path
         id="path29561"
         style="display:block;fill:#c01728"
         d="M 12.807506,15.00189 25.129742,29.152502 33.875626,6.0248098 C 25.965731,5.6856143 18.128435,8.8937717 12.807906,15.00189 Z M 7.4725772,39.888359 26.06373,36.442405 10.121942,17.410858 C 5.8683985,23.994571 4.7678131,32.29046 7.4725772,39.888559 Z M 26.663722,56.886133 32.933639,39.290367 8.2459669,43.386313 c 3.6567511,6.923908 10.3932621,12.01164 18.4189551,13.50082 z M 51.191396,48.998238 38.87016,34.847226 30.123076,57.974919 c 7.910095,0.339615 15.74739,-2.868562 21.06772,-8.976681 z M 56.527325,24.112569 37.936972,27.557523 53.87816,46.59007 c 4.253343,-6.584312 5.354129,-14.880202 2.649165,-22.477701 z M 37.33558,7.1139953 31.065663,24.710561 55.753335,20.614616 C 52.097384,13.690908 45.359473,8.6029755 37.33558,7.1139953 Z" />
    </clipPath>
    <inkscape:path-effect
       effect="powerclip"
       id="path-effect29563"
       is_visible="true"
       lpeversion="1"
       inverse="true"
       flatten="false"
       hide_clip="false"
       message="Use fill-rule evenodd on &lt;b&gt;fill and stroke&lt;/b&gt; dialog if no flatten result after convert clip to paths." />
    <clipPath
       clipPathUnits="userSpaceOnUse"
       id="clipPath1976-3">
      <rect
         x="9.6784649"
         y="9.925169"
         width="43.343258"
         height="44.613056"
         rx="8.6689987"
         ry="8.9229689"
         fill="url(#linearGradient862)"
         stroke-width="2.96772"
         id="rect1978-6"
         style="display:none;fill:#333333;fill-opacity:1"
         d="m 18.347464,9.925169 h 26.00526 c 4.802625,0 8.668999,3.979644 8.668999,8.922969 v 26.767118 c 0,4.943325 -3.866374,8.922969 -8.668999,8.922969 h -26.00526 c -4.802626,0 -8.6689991,-3.979644 -8.6689991,-8.922969 V 18.848138 c 0,-4.943325 3.8663731,-8.922969 8.6689991,-8.922969 z" />
      <path
         id="lpe_path-effect1980-7"
         style="fill:#333333;fill-opacity:1"
         class="powerclip"
         d="M 2.0757722,2.2464043 H 60.623896 V 62.216811 H 2.0757722 Z M 18.347464,9.925169 c -4.802626,0 -8.6689991,3.979644 -8.6689991,8.922969 v 26.767118 c 0,4.943325 3.8663731,8.922969 8.6689991,8.922969 h 26.00526 c 4.802625,0 8.668999,-3.979644 8.668999,-8.922969 V 18.848138 c 0,-4.943325 -3.866374,-8.922969 -8.668999,-8.922969 z" />
    </clipPath>
    <inkscape:path-effect
       effect="powerclip"
       id="path-effect1980-5"
       is_visible="true"
       lpeversion="1"
       inverse="true"
       flatten="false"
       hide_clip="false"
       message="Use fill-rule evenodd on &lt;b&gt;fill and stroke&lt;/b&gt; dialog if no flatten result after convert clip to paths." />
    <clipPath
       clipPathUnits="userSpaceOnUse"
       id="clipath_lpe_path-effect1980-5">
      <rect
         x="9.6784649"
         y="9.925169"
         width="43.343258"
         height="44.613056"
         rx="8.6689987"
         ry="8.9229689"
         fill="url(#linearGradient862)"
         stroke-width="2.96772"
         id="rect1"
         style="display:block;fill:#333333;fill-opacity:1" />
    </clipPath>
    <filter
       style="color-interpolation-filters:sRGB;"
       inkscape:label="Blur"
       id="filter1"
       x="-0.069336253"
       y="-0.067362776"
       width="1.1386725"
       height="1.1347256">
      <feGaussianBlur
         stdDeviation="1.5 1.5"
         result="blur"
         id="feGaussianBlur1" />
    </filter>
  </defs>
  <circle
     cx="32.516094"
     cy="31.877844"
     r="0"
     fill="url(#b)"
     stroke-width="1.5715"
     id="circle41"
     style="fill:url(#b)" />
  <g
     aria-label="GZ"
     transform="matrix(1.2212657,0,0,0.81882264,0.4960938,-0.1661539)"
     id="text93"
     style="font-weight:bold;font-size:11.5263px;line-height:1.25;font-family:sans-serif;-inkscape-font-specification:'sans-serif Bold';fill:#f2f2f2;stroke-width:0.288159" />
  <g
     id="g877"
     transform="matrix(1.1,0,0,1.1,-3.1845928,-3.2065454)">
    <rect
       x="6.3010068"
       y="5.4939413"
       width="51.635597"
       height="53.148327"
       rx="10.980581"
       ry="10.720582"
       fill="url(#linearGradient862)"
       stroke-width="3.0541"
       id="rect35-7-3"
       style="fill:#414141;fill-opacity:1;stroke:#dfdfdf;stroke-width:2.27272727;stroke-dasharray:none;stroke-opacity:1" />
    <path
       id="path10"
       style="fill:#dfdfdf;fill-opacity:1;stroke-width:0.187615;stroke-opacity:0.3"
       d="m 46.224259,15.736543 c -0.185575,9.02e-4 -0.376213,0.02882 -0.566228,0.08572 -1.454295,0.435718 -1.867575,1.464169 -1.879127,4.665117 l -0.0091,2.294209 0.516585,-0.203027 c 0.283754,-0.111261 1.150346,-0.203028 1.924252,-0.203028 0.773908,0 1.638218,0.09177 1.921989,0.203028 l 0.516598,0.203027 v -2.395724 c 0,-2.110164 -0.04985,-2.492708 -0.421832,-3.230391 -0.460179,-0.912549 -1.19896,-1.42284 -2.003201,-1.418935 z m -27.704221,0.02934 c -1.196215,0.01029 -2.326895,1.12749 -2.328051,2.939385 v 1.073789 l 0.480498,-0.182723 c 0.264677,-0.100632 1.102876,-0.182725 1.863342,-0.182725 0.760472,0 1.600907,0.08209 1.865598,0.182725 l 0.480496,0.182723 v -1.073799 c -4.81e-4,-0.733472 -0.118073,-1.264439 -0.367705,-1.673848 -0.536135,-0.879278 -1.276448,-1.271714 -1.99418,-1.265537 z m 13.835193,0 c -0.709862,0.0044 -1.424463,0.382229 -1.931019,1.150488 -0.320991,0.486828 -0.346267,1.021781 -0.347402,7.135283 l -0.0023,6.609668 0.4805,-0.182724 c 0.610777,-0.232198 2.804455,-0.237933 3.602607,-0.009 l 0.606827,0.173702 v -6.41115 c -2.58e-4,-5.73439 -0.03361,-6.481057 -0.327102,-7.056328 -0.478516,-0.938427 -1.277644,-1.41487 -2.082156,-1.409912 z M 18.4298,20.771632 c -3.32591,0.0462 -6.157951,3.474033 -4.95387,7.09919 0.417728,1.257663 1.884906,2.791433 3.095041,3.234902 1.156174,0.423701 3.206361,0.319589 4.2523,-0.216562 1.861587,-0.954247 2.957185,-2.743463 2.948406,-4.816259 -0.0088,-2.073513 -1.09958,-3.800847 -3.002546,-4.753095 -0.776526,-0.388577 -1.571804,-0.558836 -2.339331,-0.548176 z m 27.884687,2.959687 c -1.68848,0.0023 -2.918397,0.545977 -3.990618,1.764082 -1.815316,2.062369 -1.823414,4.903807 -0.0179,6.954815 0.879127,0.998738 1.920559,1.583481 3.137905,1.764082 2.414769,0.358255 4.48879,-0.75335 5.689273,-3.052178 0.572812,-1.097402 0.56915,-3.270823 -0.0091,-4.378623 -1.067628,-2.045656 -2.657994,-3.05519 -4.809492,-3.052187 z m -13.866766,7.902276 c -2.072639,-0.02173 -3.682775,0.935757 -4.723771,2.815313 -0.480342,0.867275 -0.556385,1.199958 -0.552687,2.413768 0.0034,1.102354 0.09901,1.589939 0.44215,2.251345 0.844049,1.626912 2.165018,2.658196 3.83947,2.99804 3.301428,0.670065 6.568865,-2.260795 6.264526,-5.61709 -0.168987,-1.863516 -1.325917,-3.575934 -3.000296,-4.441786 -0.333126,-0.172278 -1.164016,-0.354897 -1.847547,-0.403799 -0.14227,-0.01018 -0.283667,-0.01432 -0.421832,-0.0158 z M 16.191987,32.35547 v 6.855556 c 0,7.59353 0.03405,7.839614 1.161769,8.527149 0.341551,0.208232 0.872513,0.378964 1.182071,0.378964 0.309554,0 0.842757,-0.170732 1.184327,-0.378964 1.127694,-0.687535 1.161767,-0.933619 1.161767,-8.527149 v -6.855565 l -0.798576,0.142117 c -0.438548,0.07861 -1.134765,0.142122 -1.547518,0.142122 -0.412753,0 -1.108976,-0.06351 -1.547524,-0.142122 z m 27.5779,2.844638 0.0023,5.192986 c 5.97e-4,2.946757 0.0833,5.490568 0.191773,5.881026 0.107219,0.386036 0.480976,0.941145 0.850449,1.265537 0.910093,0.799076 1.880409,0.799076 2.790503,0 0.369447,-0.324396 0.743277,-0.879523 0.850462,-1.265537 0.108443,-0.390445 0.191162,-2.934269 0.19173,-5.881026 l 0.0023,-5.192986 -0.609087,0.173701 c -0.783667,0.22475 -2.877602,0.22475 -3.66126,0 z m -9.005401,7.861668 -0.514335,0.200767 c -0.640764,0.247695 -2.533001,0.30593 -3.471768,0.108258 l -0.703831,-0.146635 v 1.574589 c 0,1.329289 0.0677,1.675171 0.4286,2.210741 0.235253,0.349104 0.636191,0.73954 0.891064,0.868504 1.13571,0.574675 2.45802,0.07688 3.007063,-1.132439 0.249833,-0.550246 0.355782,-1.217259 0.358664,-2.233302 z" />
    <rect
       x="34.795551"
       y="33.974232"
       width="24.697144"
       height="25.420679"
       rx="5.2519779"
       ry="5.1276212"
       fill="url(#linearGradient862)"
       stroke-width="3.0541"
       id="rect35-7-3-9"
       style="fill:#414141;fill-opacity:1;stroke:#dfdfdf;stroke-width:2.27273;stroke-dasharray:none;stroke-opacity:1" />
    <path
       style="fill:#dfdfdf;fill-opacity:1;stroke:none;stroke-width:0.909091;stroke-dasharray:none;stroke-opacity:0.3"
       d="m 46.165745,50.888651 c -2.375964,-0.147954 -4.281592,-1.260913 -5.692476,-3.324648 -0.369373,-0.540301 -0.859093,-1.440465 -0.959459,-1.763621 -0.05333,-0.171731 0.09353,-0.321094 0.974011,-0.990692 2.182699,-1.659925 4.504691,-2.460459 6.458068,-2.226481 1.727399,0.206882 3.275658,0.985453 4.713157,2.370003 0.370748,0.357107 0.674089,0.669917 0.674089,0.695169 0,0.07951 -1.179717,1.238513 -1.660586,1.631417 -0.620727,0.507195 -1.499481,1.073328 -2.08834,1.34539 -1.35287,0.625067 -2.83131,0.645223 -3.956528,0.05395 -0.85863,-0.451209 -1.67367,-1.387163 -2.024235,-2.324586 l -0.149844,-0.400679 0.333533,-0.298177 c 0.851967,-0.761679 1.985105,-1.216062 3.215462,-1.28937 1.041002,-0.06202 1.955988,0.261721 2.690327,0.951962 l 0.395127,0.371391 -0.612722,0.52044 c -0.337003,0.286254 -0.661251,0.557797 -0.72056,0.603472 -0.09435,0.07264 -0.138918,0.03161 -0.356437,-0.327554 -0.559237,-0.923714 -1.042016,-1.242716 -1.880782,-1.242716 -0.479535,0 -0.981989,0.211521 -1.414732,0.595542 l -0.281271,0.249591 0.09346,0.283195 c 0.0514,0.155754 0.200868,0.449357 0.332089,0.652432 0.743221,1.149899 1.902281,1.6149 3.108111,1.246956 0.757175,-0.231037 1.454663,-0.712854 2.383706,-1.646639 0.457662,-0.460001 0.83211,-0.86736 0.83211,-0.905252 0,-0.0379 -0.234129,-0.300822 -0.520272,-0.584296 -0.858544,-0.850496 -1.764367,-1.381176 -2.808069,-1.645099 -0.710737,-0.179737 -1.916162,-0.147473 -2.675897,0.07164 -1.215207,0.350462 -2.411805,1.098305 -3.13007,1.956192 l -0.271479,0.324255 0.225643,0.520696 c 0.996286,2.299042 2.876198,3.662028 5.049476,3.661029 1.980927,-0.0019 3.822967,-0.77598 5.956031,-2.506127 l 0.683262,-0.554193 0.360963,0.20238 c 0.765922,0.429453 1.568325,0.905737 1.568325,0.930927 0,0.05741 -1.104352,0.75211 -1.547173,0.973275 -1.390722,0.694581 -3.541288,1.373772 -5.18514,1.637588 -0.737311,0.118301 -1.739411,0.204339 -2.110884,0.181215 z"
       id="path1-5" />
  </g>
</svg>
