<?xml version="1.0" encoding="UTF-8" standalone="no"?>
<svg
   width="64"
   height="64"
   version="1.1"
   id="svg73"
   sodipodi:docname="audacious.svg"
   inkscape:version="1.4.2 (ebf0e940d0, 2025-05-08)"
   xmlns:inkscape="http://www.inkscape.org/namespaces/inkscape"
   xmlns:sodipodi="http://sodipodi.sourceforge.net/DTD/sodipodi-0.dtd"
   xmlns="http://www.w3.org/2000/svg"
   xmlns:svg="http://www.w3.org/2000/svg"
   xmlns:rdf="http://www.w3.org/1999/02/22-rdf-syntax-ns#"
   xmlns:cc="http://creativecommons.org/ns#"
   xmlns:dc="http://purl.org/dc/elements/1.1/">
  <metadata
     id="metadata77">
    <rdf:RDF>
      <cc:Work
         rdf:about="">
        <dc:format>image/svg+xml</dc:format>
        <dc:type
           rdf:resource="http://purl.org/dc/dcmitype/StillImage" />
      </cc:Work>
    </rdf:RDF>
  </metadata>
  <sodipodi:namedview
     pagecolor="#f5f7fa"
     bordercolor="#666666"
     borderopacity="1"
     objecttolerance="10"
     gridtolerance="10"
     guidetolerance="10"
     inkscape:pageopacity="0"
     inkscape:pageshadow="2"
     inkscape:window-width="1377"
     inkscape:window-height="886"
     id="namedview75"
     showgrid="false"
     inkscape:zoom="6.2890624"
     inkscape:cx="47.622361"
     inkscape:cy="45.396274"
     inkscape:window-x="0"
     inkscape:window-y="49"
     inkscape:window-maximized="0"
     inkscape:current-layer="g877"
     inkscape:document-rotation="0"
     inkscape:pagecheckerboard="0"
     inkscape:showpageshadow="2"
     inkscape:deskcolor="#d1d1d1" />
  <defs
     id="defs29" />
  <circle
     cx="32.516094"
     cy="31.877844"
     r="0"
     fill="url(#b)"
     stroke-width="1.5715"
     id="circle41"
     style="fill:url(#b)" />
  <g
     aria-label="GZ"
     transform="matrix(1.2212657,0,0,0.81882264,0.4960938,-0.1661539)"
     id="text93"
     style="font-weight:bold;font-size:11.5263px;line-height:1.25;font-family:sans-serif;-inkscape-font-specification:'sans-serif Bold';fill:#f2f2f2;stroke-width:0.288159" />
  <g
     id="g877"
     transform="matrix(1.1,0,0,1.1,-3.1845928,-3.2065454)">
    <rect
       x="8.3496294"
       y="8.369586"
       width="47.272728"
       height="47.272728"
       rx="9.8825235"
       ry="9.6485243"
       fill="url(#linearGradient862)"
       stroke-width="3.0541"
       id="rect35-7-3"
       style="fill:#414141;fill-opacity:1;stroke:#dfdfdf;stroke-width:2.04545;stroke-dasharray:none;stroke-opacity:1" />
    <path
       style="fill:#dfdfdf;fill-opacity:1;stroke:none;stroke-width:0.515722;stroke-dasharray:none;stroke-opacity:0.6"
       d="m 17.178809,15.993903 1.076819,0.83161 c -3.41556,1.61992 5.356235,9.015989 5.356235,9.015989 0,0 1.707134,-1.580857 4.208292,-1.747275 2.480872,-2.615418 12.806004,-0.624825 12.419157,1.521638 -3.470773,0.05577 -4.569995,-0.400441 -4.569995,-0.400441 0,0 0.171333,0.203302 0.242082,0.900967 -0.253655,0.214915 -3.842702,-0.612398 -4.593029,-0.553468 -2.134983,0.167865 -3.575909,0.223336 -5.107584,0.39771 1.053727,0.357488 9.450451,1.895857 12.135292,4.565934 -0.71618,0.284038 -1.029393,0.167288 -1.268529,0.257902 -0.210305,0.07958 -0.423038,0.520506 -0.88451,0.522624 -0.33065,0.0012 -0.217633,-0.301173 -0.900493,-0.633278 -4.248796,0.173674 -5.626317,-2.493094 -6.045602,-2.820111 -1.875658,-0.460535 -5.035516,-1.501892 -5.035516,-1.501892 0,0 2.675441,2.196361 4.142332,3.415404 0.12199,0.101356 2.133016,0.485913 4.689544,1.768733 1.374207,-1.157296 5.078914,0.806489 4.390538,2.604762 -0.613174,1.601796 -4.727139,-0.04879 -4.575893,-2.227756 -0.939168,-0.300884 -2.674078,-1.163746 -3.784045,-1.575397 1.06415,0.853771 5.244946,4.43739 6.085,5.451013 3.680205,-0.464977 9.23604,0.479903 12.682384,2.752213 -0.78596,0.213461 -4.525793,0.94418 -5.274896,0.738529 -1.391949,-0.541594 -3.466521,-2.296068 -3.687567,-2.492687 -0.799559,-0.138844 -2.594143,-0.403984 -3.28349,-0.484637 0.69919,0.729874 3.008266,3.474359 3.733287,4.628836 0.30032,-0.06534 1.831958,0.313436 2.25642,0.610194 1.572497,-1.650619 4.122244,1.245699 5.689611,2.644514 -0.411755,0.860018 -6.87888,-0.463611 -6.014563,-2.390799 -0.462155,-0.06329 -1.38711,-0.585822 -1.728179,-0.61356 0.348627,0.469741 1.108997,1.107314 2.111092,2.188669 0.963895,-0.281999 4.597079,3.762956 4.69457,4.648154 -2.718814,-0.681464 -4.061599,-1.274398 -4.482531,-1.780182 -0.83082,-0.998342 -0.516271,-2.431838 -0.437117,-2.692413 -1.06915,-0.98292 -1.26834,-1.275205 -1.618031,-1.470285 -0.0088,0.01172 10e-4,0.302801 0.0177,0.444992 1.756298,1.33202 0.907672,5.018684 -0.10206,5.149404 -0.439449,0.05695 -1.452374,-5.201305 -0.187551,-5.397229 0.02905,-0.104265 0.04578,-0.414697 0.04741,-0.426957 -0.667491,-0.747559 -4.369315,-4.796592 -4.610037,-4.967127 0.1199,0.319529 0.316472,0.844969 0.496887,1.493607 2.18596,1.469716 2.547643,3.821366 2.382884,6.583485 -0.524223,-0.944008 -5.659776,-5.244956 -3.413708,-7.15156 0.01581,-0.294017 -0.06936,-0.961402 0.119813,-1.336547 -0.712448,-0.732314 -2.93031,-2.984674 -3.129322,-2.982841 0.247699,0.522363 0.401513,0.820576 0.524367,1.385429 1.690553,0.868003 1.199462,3.110134 0.429442,3.15773 -0.811229,0.05025 -2.60908,-2.523 -0.918085,-3.068686 -0.136607,-0.647856 -0.385065,-1.528377 -0.485236,-1.910901 -0.731659,-0.575655 -3.154807,-2.568079 -3.713984,-3.032532 0.687556,1.176989 1.359178,3.009008 1.695036,4.05943 2.025639,2.360831 1.465296,6.012642 1.26048,9.779376 -2.376593,-1.815145 -3.852104,-8.009973 -2.340376,-9.552001 -0.504657,-1.791243 -1.26744,-4.822179 -1.26744,-4.822179 -3.267603,-2.609145 -5.075407,-4.564714 -5.075407,-4.564714 0,0 2.177151,2.904308 2.425125,4.461177 1.906751,0.380314 3.499687,3.797405 1.983559,4.380554 -2.216071,0.852349 -4.594848,-2.764526 -2.704342,-4.111646 0,0 -1.673966,-3.172113 -2.969719,-5.954267 -5.110991,-5.771442 -4.619702,-7.504193 -3.086691,-7.697123 z"
       id="path8" />
  </g>
</svg>
