<?xml version="1.0" encoding="UTF-8" standalone="no"?>
<svg
   width="64"
   height="64"
   version="1.1"
   id="svg73"
   sodipodi:docname="hwloc.svg"
   inkscape:version="1.3.2 (091e20ef0f, 2023-11-25)"
   xmlns:inkscape="http://www.inkscape.org/namespaces/inkscape"
   xmlns:sodipodi="http://sodipodi.sourceforge.net/DTD/sodipodi-0.dtd"
   xmlns="http://www.w3.org/2000/svg"
   xmlns:svg="http://www.w3.org/2000/svg"
   xmlns:rdf="http://www.w3.org/1999/02/22-rdf-syntax-ns#"
   xmlns:cc="http://creativecommons.org/ns#"
   xmlns:dc="http://purl.org/dc/elements/1.1/">
  <metadata
     id="metadata77">
    <rdf:RDF>
      <cc:Work
         rdf:about="">
        <dc:format>image/svg+xml</dc:format>
        <dc:type
           rdf:resource="http://purl.org/dc/dcmitype/StillImage" />
      </cc:Work>
    </rdf:RDF>
  </metadata>
  <sodipodi:namedview
     pagecolor="#f5f7fa"
     bordercolor="#666666"
     borderopacity="1"
     objecttolerance="10"
     gridtolerance="10"
     guidetolerance="10"
     inkscape:pageopacity="0"
     inkscape:pageshadow="2"
     inkscape:window-width="1377"
     inkscape:window-height="886"
     id="namedview75"
     showgrid="false"
     inkscape:zoom="4.4470387"
     inkscape:cx="47.784608"
     inkscape:cy="14.054296"
     inkscape:window-x="181"
     inkscape:window-y="77"
     inkscape:window-maximized="0"
     inkscape:current-layer="g877"
     inkscape:document-rotation="0"
     inkscape:pagecheckerboard="0"
     inkscape:showpageshadow="2"
     inkscape:deskcolor="#d1d1d1" />
  <defs
     id="defs29">
    <linearGradient
       id="b"
       x1="399.57"
       x2="399.57"
       y1="545.8"
       y2="517.8"
       gradientTransform="matrix(2.1429,0,0,2.1429,-825.86391,-1107.6662)"
       gradientUnits="userSpaceOnUse">
      <stop
         stop-color="#3889e9"
         offset="0"
         id="stop2" />
      <stop
         stop-color="#5ea5fb"
         offset="1"
         id="stop4" />
    </linearGradient>
    <linearGradient
       id="d"
       x2="1"
       gradientTransform="matrix(14.905727,-4.7106182,4.7106182,14.905727,322.04962,998.26962)"
       gradientUnits="userSpaceOnUse">
      <stop
         stop-color="#fafafa"
         offset="0"
         id="stop7" />
      <stop
         stop-color="#aaa"
         offset="1"
         id="stop8" />
    </linearGradient>
    <linearGradient
       id="e"
       x2="1"
       gradientTransform="matrix(21.439909,0,0,21.439909,26.63554,1159.7788)"
       gradientUnits="userSpaceOnUse">
      <stop
         stop-color="#f0f0f0"
         offset="0"
         id="stop9" />
      <stop
         stop-color="#b7f1ff"
         offset="1"
         id="stop10" />
    </linearGradient>
  </defs>
  <circle
     cx="32.516094"
     cy="31.877844"
     r="0"
     fill="url(#b)"
     stroke-width="1.5715"
     id="circle41"
     style="fill:url(#b)" />
  <g
     aria-label="GZ"
     transform="matrix(1.2212657,0,0,0.81882264,0.4960938,-0.1661539)"
     id="text93"
     style="font-weight:bold;font-size:11.5263px;line-height:1.25;font-family:sans-serif;-inkscape-font-specification:'sans-serif Bold';fill:#f2f2f2;stroke-width:0.288159" />
  <g
     id="g877"
     transform="matrix(1.1,0,0,1.1,-3.1845928,-3.2065454)">
    <rect
       x="6.3010068"
       y="5.4939413"
       width="51.635597"
       height="53.148327"
       rx="10.980581"
       ry="10.720582"
       fill="url(#linearGradient862)"
       stroke-width="3.0541"
       id="rect35-7-3"
       style="fill:#414141;fill-opacity:1;stroke:#dfdfdf;stroke-width:2.27272727;stroke-dasharray:none;stroke-opacity:1" />
    <path
       style="color:#444444;fill:#dfdfdf;fill-opacity:1;stroke:none;stroke-width:1.1979;stroke-dasharray:none;stroke-opacity:0.3"
       class="ColorScheme-Text"
       d="m 17.917096,16.715195 c 0,0 -5.215136,0 -5.215136,5.215136 v 20.860541 c 0,5.215139 5.215136,5.215139 5.215136,5.215139 H 46.60034 c 0,0 5.215137,0 5.215137,-5.215139 V 21.930331 c 0,-5.215136 -5.215137,-5.215136 -5.215137,-5.215136 z m 0.651891,5.215136 h 3.911354 c 0.361149,0 0.651888,0.290746 0.651888,0.651895 v 3.911351 c 0,0.361149 -0.290744,0.65189 -0.651888,0.65189 h -3.911354 c -0.361149,0 -0.651891,-0.290744 -0.651891,-0.65189 v -3.911351 c 0,-0.361152 0.290744,-0.651895 0.651891,-0.651895 z m 7.822703,0 h 3.911351 c 0.361151,0 0.651892,0.290746 0.651892,0.651895 v 3.911351 c 0,0.361149 -0.290744,0.65189 -0.651892,0.65189 H 26.39169 c -0.361149,0 -0.651892,-0.290744 -0.651892,-0.65189 v -3.911351 c 0,-0.361152 0.290745,-0.651895 0.651892,-0.651895 z m 7.822703,0 h 3.91135 c 0.361151,0 0.651892,0.290746 0.651892,0.651895 v 3.911351 c 0,0.361149 -0.290753,0.65189 -0.651892,0.65189 h -3.91135 c -0.361151,0 -0.65189,-0.290744 -0.65189,-0.65189 v -3.911351 c 0,-0.361152 0.290739,-0.651895 0.65189,-0.651895 z m 7.822699,0 h 3.911358 c 0.3612,0 0.65189,0.290746 0.65189,0.651895 v 3.911351 c 0,0.361149 -0.290772,0.65189 -0.65189,0.65189 h -3.911358 c -0.361154,0 -0.651891,-0.290744 -0.651891,-0.65189 v -3.911351 c 0,-0.361152 0.290771,-0.651895 0.651891,-0.651895 z m -23.468105,7.822706 h 3.911354 c 0.361149,0 0.651888,0.290743 0.651888,0.65189 v 3.911352 c 0,0.361151 -0.290744,0.651891 -0.651888,0.651891 h -3.911354 c -0.361149,0 -0.651891,-0.290745 -0.651891,-0.651891 v -3.911352 c 0,-0.361155 0.290744,-0.65189 0.651891,-0.65189 z m 7.822703,0 h 3.911351 c 0.361151,0 0.651892,0.290743 0.651892,0.65189 v 3.911352 c 0,0.361151 -0.290744,0.651891 -0.651892,0.651891 H 26.39169 c -0.361149,0 -0.651892,-0.290745 -0.651892,-0.651891 v -3.911352 c 0,-0.361155 0.290745,-0.65189 0.651892,-0.65189 z m 7.822703,0 h 3.91135 c 0.361151,0 0.651892,0.290743 0.651892,0.65189 v 3.911352 c 0,0.361151 -0.290753,0.651891 -0.651892,0.651891 h -3.91135 c -0.361151,0 -0.65189,-0.290745 -0.65189,-0.651891 v -3.911352 c 0,-0.361155 0.290739,-0.65189 0.65189,-0.65189 z m 7.822699,0 h 3.911358 c 0.3612,0 0.65189,0.290743 0.65189,0.65189 v 3.911352 c 0,0.361151 -0.290772,0.651891 -0.65189,0.651891 h -3.911358 c -0.361154,0 -0.651891,-0.290745 -0.651891,-0.651891 v -3.911352 c 0,-0.361155 0.290771,-0.65189 0.651891,-0.65189 z m -18.25297,7.822701 h 16.949191 c 0.361199,0 0.651888,0.290743 0.651888,0.651891 v 3.911348 c 0,0.361155 -0.290772,0.651895 -0.651888,0.651895 H 23.784122 c -0.361151,0 -0.651893,-0.290725 -0.651893,-0.651895 v -3.911348 c 0,-0.36115 0.290744,-0.651891 0.651893,-0.651891 z"
       id="path5" />
  </g>
</svg>
