<?xml version="1.0" encoding="UTF-8" standalone="no"?>
<svg
   width="64"
   height="64"
   version="1.1"
   id="svg73"
   sodipodi:docname="audacious.svg"
   inkscape:version="1.4.2 (ebf0e940d0, 2025-05-08)"
   xmlns:inkscape="http://www.inkscape.org/namespaces/inkscape"
   xmlns:sodipodi="http://sodipodi.sourceforge.net/DTD/sodipodi-0.dtd"
   xmlns="http://www.w3.org/2000/svg"
   xmlns:svg="http://www.w3.org/2000/svg"
   xmlns:rdf="http://www.w3.org/1999/02/22-rdf-syntax-ns#"
   xmlns:cc="http://creativecommons.org/ns#"
   xmlns:dc="http://purl.org/dc/elements/1.1/">
  <metadata
     id="metadata77">
    <rdf:RDF>
      <cc:Work
         rdf:about="">
        <dc:format>image/svg+xml</dc:format>
        <dc:type
           rdf:resource="http://purl.org/dc/dcmitype/StillImage" />
      </cc:Work>
    </rdf:RDF>
  </metadata>
  <sodipodi:namedview
     pagecolor="#f5f7fa"
     bordercolor="#666666"
     borderopacity="1"
     objecttolerance="10"
     gridtolerance="10"
     guidetolerance="10"
     inkscape:pageopacity="0"
     inkscape:pageshadow="2"
     inkscape:window-width="1377"
     inkscape:window-height="886"
     id="namedview75"
     showgrid="false"
     inkscape:zoom="6.2890624"
     inkscape:cx="47.622361"
     inkscape:cy="45.396274"
     inkscape:window-x="0"
     inkscape:window-y="49"
     inkscape:window-maximized="0"
     inkscape:current-layer="g877"
     inkscape:document-rotation="0"
     inkscape:pagecheckerboard="0"
     inkscape:showpageshadow="2"
     inkscape:deskcolor="#d1d1d1" />
  <defs
     id="defs29" />
  <circle
     cx="32.516094"
     cy="31.877844"
     r="0"
     fill="url(#b)"
     stroke-width="1.5715"
     id="circle41"
     style="fill:url(#b)" />
  <g
     aria-label="GZ"
     transform="matrix(1.2212657,0,0,0.81882264,0.4960938,-0.1661539)"
     id="text93"
     style="font-weight:bold;font-size:11.5263px;line-height:1.25;font-family:sans-serif;-inkscape-font-specification:'sans-serif Bold';fill:#f2f2f2;stroke-width:0.288159" />
  <g
     id="g877"
     transform="matrix(1.1,0,0,1.1,-3.1845928,-3.2065454)">
    <rect
       x="8.3496294"
       y="8.369586"
       width="47.272728"
       height="47.272728"
       rx="9.8825235"
       ry="9.6485243"
       fill="url(#linearGradient862)"
       stroke-width="3.0541"
       id="rect35-7-3"
       style="fill:#414141;fill-opacity:1;stroke:#dfdfdf;stroke-width:2.04545;stroke-dasharray:none;stroke-opacity:1" />
    <path
       style="fill:#dfdfdf;stroke-width:0.208549;fill-opacity:1"
       d="m 24.604796,45.446738 c -0.495874,-0.203992 -0.813266,-0.455351 -1.052011,-0.83312 -0.108404,-0.171533 -1.422308,-2.429062 -2.919787,-5.01673 -1.49748,-2.587669 -2.972203,-5.135132 -3.277163,-5.661022 -0.30496,-0.525893 -0.603234,-1.105249 -0.66283,-1.287458 -0.154047,-0.470968 -0.09888,-1.188388 0.125121,-1.627035 0.418632,-0.819803 6.820266,-11.831005 6.970861,-11.990312 0.09262,-0.09797 0.352786,-0.278152 0.578169,-0.400413 l 0.409786,-0.222291 h 7.207437 7.207436 l 0.409787,0.222291 c 0.225385,0.122261 0.486251,0.302447 0.579707,0.400413 0.244111,0.255901 2.514123,4.216288 2.514123,4.386282 0,0.07828 -0.06321,0.199539 -0.140469,0.269462 -0.136249,0.123312 -0.37965,0.127655 -8.104149,0.144613 l -7.963687,0.01748 -0.137685,0.17504 c -0.134102,0.170483 -0.137687,0.247637 -0.137687,2.963476 0,1.533638 0.01865,2.837046 0.04146,2.896462 0.120374,0.313689 -0.232084,0.3033 10.289371,0.3033 h 9.870302 l 0.222305,0.150155 c 0.422925,0.285667 0.730988,0.981749 0.730988,1.651704 0,0.554225 -0.08773,0.781032 -0.743109,1.921217 -0.854357,1.486349 -0.895791,1.54382 -1.214443,1.684776 -0.26846,0.118755 -0.670091,0.124173 -9.585955,0.129335 l -9.305751,0.0054 -0.152581,0.143341 -0.152582,0.143343 v 4.529695 c 0,4.85437 0.0028,4.810078 -0.329981,4.988243 -0.227107,0.121545 -0.876903,0.07696 -1.276978,-0.08764 z"
       id="path1-3" />
  </g>
</svg>
