<?xml version="1.0" encoding="UTF-8" standalone="no"?>
<svg
   width="64"
   height="64"
   version="1.1"
   id="svg73"
   sodipodi:docname="audacious.svg"
   inkscape:version="1.4.2 (ebf0e940d0, 2025-05-08)"
   xmlns:inkscape="http://www.inkscape.org/namespaces/inkscape"
   xmlns:sodipodi="http://sodipodi.sourceforge.net/DTD/sodipodi-0.dtd"
   xmlns="http://www.w3.org/2000/svg"
   xmlns:svg="http://www.w3.org/2000/svg"
   xmlns:rdf="http://www.w3.org/1999/02/22-rdf-syntax-ns#"
   xmlns:cc="http://creativecommons.org/ns#"
   xmlns:dc="http://purl.org/dc/elements/1.1/">
  <metadata
     id="metadata77">
    <rdf:RDF>
      <cc:Work
         rdf:about="">
        <dc:format>image/svg+xml</dc:format>
        <dc:type
           rdf:resource="http://purl.org/dc/dcmitype/StillImage" />
      </cc:Work>
    </rdf:RDF>
  </metadata>
  <sodipodi:namedview
     pagecolor="#f5f7fa"
     bordercolor="#666666"
     borderopacity="1"
     objecttolerance="10"
     gridtolerance="10"
     guidetolerance="10"
     inkscape:pageopacity="0"
     inkscape:pageshadow="2"
     inkscape:window-width="1377"
     inkscape:window-height="886"
     id="namedview75"
     showgrid="false"
     inkscape:zoom="6.2890624"
     inkscape:cx="46.82733"
     inkscape:cy="41.739131"
     inkscape:window-x="0"
     inkscape:window-y="49"
     inkscape:window-maximized="0"
     inkscape:current-layer="g877"
     inkscape:document-rotation="0"
     inkscape:pagecheckerboard="0"
     inkscape:showpageshadow="2"
     inkscape:deskcolor="#d1d1d1" />
  <defs
     id="defs29" />
  <circle
     cx="32.516094"
     cy="31.877844"
     r="0"
     fill="url(#b)"
     stroke-width="1.5715"
     id="circle41"
     style="fill:url(#b)" />
  <g
     aria-label="GZ"
     transform="matrix(1.2212657,0,0,0.81882264,0.4960938,-0.1661539)"
     id="text93"
     style="font-weight:bold;font-size:11.5263px;line-height:1.25;font-family:sans-serif;-inkscape-font-specification:'sans-serif Bold';fill:#f2f2f2;stroke-width:0.288159" />
  <g
     id="g877"
     transform="matrix(1.1,0,0,1.1,-3.1845928,-3.2065454)">
    <rect
       x="8.3496294"
       y="8.369586"
       width="47.272728"
       height="47.272728"
       rx="9.8825235"
       ry="9.6485243"
       fill="url(#linearGradient862)"
       stroke-width="3.0541"
       id="rect35-7-3"
       style="fill:#414141;fill-opacity:1;stroke:#dfdfdf;stroke-width:2.04545;stroke-dasharray:none;stroke-opacity:1" />
    <path
       id="path40"
       style="fill:#dfdfdf;fill-opacity:1;stroke:none;stroke-width:0.4725;stroke-dasharray:none;stroke-opacity:0.6"
       d="m 32.26775,17.618478 c -2.714904,-0.03856 -5.488463,0.532479 -8.045911,1.792895 -8.23485,4.058471 -10.334725,13.522468 -4.397815,19.82233 l 0.793936,0.842174 -0.508522,2.540605 c -0.279412,1.397749 -0.510073,2.690516 -0.512542,2.872248 -0.0027,0.197776 0.113765,0.447427 0.287429,0.621085 0.159578,0.159558 0.411551,0.287393 0.560783,0.285412 0.14923,-0.002 1.517619,-0.683397 3.041086,-1.515518 l 2.769738,-1.513502 0.942677,0.275347 c 3.231716,0.939549 7.441113,0.810363 10.680988,-0.327598 3.182205,-1.117735 6.000931,-3.221926 7.662004,-5.718369 0.773483,-1.16247 1.244931,-2.169844 1.672291,-3.573728 0.285283,-0.937245 0.316845,-1.228312 0.325598,-2.98883 0.01169,-2.32646 -0.189074,-3.248279 -1.115527,-5.157605 -2.492485,-5.13666 -8.18342,-8.172129 -14.156213,-8.256946 z m 3.756636,6.791692 3.457153,0.03217 c 3.36819,0.03055 3.457152,0.03702 3.457152,0.267328 0,0.198042 -0.106437,0.249322 -0.649222,0.315562 -0.494817,0.0604 -0.709829,0.15194 -0.914541,0.389934 l -0.26934,0.311549 v 4.4782 4.480227 l 0.26934,0.311548 c 0.204692,0.237996 0.419724,0.329549 0.914541,0.389936 0.542817,0.06624 0.649222,0.117523 0.649222,0.315561 0,0.230302 -0.08898,0.236803 -3.457152,0.267328 l -3.457153,0.03217 v -0.297476 c 0,-0.245356 0.05535,-0.296931 0.323605,-0.297477 0.544702,-0.0012 1.202234,-0.234234 1.328592,-0.470334 0.158942,-0.296924 0.162708,-9.158433 0.0039,-9.454903 -0.138647,-0.259056 -0.714575,-0.476361 -1.260253,-0.476361 -0.344306,0 -0.395963,-0.03903 -0.395963,-0.297479 z m -15.012471,0.0041 h 3.310422 3.308412 v 0.295466 c 0,0.259707 -0.05133,0.295466 -0.420084,0.295466 -0.591804,0 -1.068284,0.282462 -1.222062,0.723589 -0.07312,0.209797 -0.130649,1.150686 -0.130649,2.130569 v 1.75475 h 2.305437 2.305436 v -1.943673 c 0,-1.86001 -0.01221,-1.957607 -0.273354,-2.261217 -0.211825,-0.24626 -0.410139,-0.330101 -0.886398,-0.375866 -0.550373,-0.05289 -0.615051,-0.08813 -0.615051,-0.339684 v -0.279387 h 3.370721 3.36871 v 0.295462 c 0,0.259707 -0.05134,0.295467 -0.420083,0.295467 -0.591802,0 -1.068285,0.282462 -1.222064,0.723589 -0.08622,0.247278 -0.13266,1.785457 -0.13266,4.498314 0,4.710045 0.02166,4.83973 0.789918,5.053067 0.248986,0.06913 0.571284,0.126267 0.717561,0.126627 0.204715,5.1e-4 0.267327,0.06801 0.267327,0.295465 v 0.295464 h -3.368709 -3.370721 v -0.279384 c 0,-0.24776 0.07093,-0.291219 0.602989,-0.361795 0.403208,-0.05348 0.695737,-0.173145 0.886399,-0.363809 0.279676,-0.279659 0.285417,-0.322132 0.285417,-2.417993 V 30.44212 h -2.305438 -2.305436 v 1.861232 c 9.35e-4,2.662103 0.09967,2.905415 1.236132,3.061185 0.464682,0.06369 0.536662,0.111801 0.536662,0.353757 v 0.279384 h -3.308412 -3.310422 v -0.279384 c 0,-0.246698 0.06998,-0.289468 0.584901,-0.357774 0.433651,-0.05753 0.648418,-0.157476 0.828108,-0.385914 0.234586,-0.298253 0.2412,-0.451504 0.2412,-4.733482 0,-2.943312 -0.04168,-4.504379 -0.126631,-4.663132 -0.146494,-0.27373 -0.788289,-0.572842 -1.228092,-0.572842 -0.240455,0 -0.299486,-0.05805 -0.299486,-0.295466 z" />
  </g>
</svg>
