<?xml version="1.0" encoding="UTF-8" standalone="no"?>
<svg
   width="64"
   height="64"
   version="1.1"
   id="svg73"
   sodipodi:docname="audacious.svg"
   inkscape:version="1.4.2 (ebf0e940d0, 2025-05-08)"
   xmlns:inkscape="http://www.inkscape.org/namespaces/inkscape"
   xmlns:sodipodi="http://sodipodi.sourceforge.net/DTD/sodipodi-0.dtd"
   xmlns="http://www.w3.org/2000/svg"
   xmlns:svg="http://www.w3.org/2000/svg"
   xmlns:rdf="http://www.w3.org/1999/02/22-rdf-syntax-ns#"
   xmlns:cc="http://creativecommons.org/ns#"
   xmlns:dc="http://purl.org/dc/elements/1.1/">
  <metadata
     id="metadata77">
    <rdf:RDF>
      <cc:Work
         rdf:about="">
        <dc:format>image/svg+xml</dc:format>
        <dc:type
           rdf:resource="http://purl.org/dc/dcmitype/StillImage" />
      </cc:Work>
    </rdf:RDF>
  </metadata>
  <sodipodi:namedview
     pagecolor="#f5f7fa"
     bordercolor="#666666"
     borderopacity="1"
     objecttolerance="10"
     gridtolerance="10"
     guidetolerance="10"
     inkscape:pageopacity="0"
     inkscape:pageshadow="2"
     inkscape:window-width="1377"
     inkscape:window-height="886"
     id="namedview75"
     showgrid="false"
     inkscape:zoom="6.2890624"
     inkscape:cx="46.668324"
     inkscape:cy="41.739131"
     inkscape:window-x="0"
     inkscape:window-y="49"
     inkscape:window-maximized="0"
     inkscape:current-layer="g877"
     inkscape:document-rotation="0"
     inkscape:pagecheckerboard="0"
     inkscape:showpageshadow="2"
     inkscape:deskcolor="#d1d1d1" />
  <defs
     id="defs29" />
  <circle
     cx="32.516094"
     cy="31.877844"
     r="0"
     fill="url(#b)"
     stroke-width="1.5715"
     id="circle41"
     style="fill:url(#b)" />
  <g
     aria-label="GZ"
     transform="matrix(1.2212657,0,0,0.81882264,0.4960938,-0.1661539)"
     id="text93"
     style="font-weight:bold;font-size:11.5263px;line-height:1.25;font-family:sans-serif;-inkscape-font-specification:'sans-serif Bold';fill:#f2f2f2;stroke-width:0.288159" />
  <g
     id="g877"
     transform="matrix(1.1,0,0,1.1,-3.1845928,-3.2065454)">
    <rect
       x="8.3496294"
       y="8.369586"
       width="47.272728"
       height="47.272728"
       rx="9.8825235"
       ry="9.6485243"
       fill="url(#linearGradient862)"
       stroke-width="3.0541"
       id="rect35-7-3"
       style="fill:#414141;fill-opacity:1;stroke:#dfdfdf;stroke-width:2.04545;stroke-dasharray:none;stroke-opacity:1" />
    <path
       style="fill:#dfdfdf;stroke-width:0.119043;fill-opacity:1"
       d="m 23.314571,44.781662 c -0.976537,-0.834709 -1.600653,-1.902308 -2.328899,-3.983552 -0.85998,-2.457781 -1.275282,-4.780573 -1.265744,-7.079473 0.0094,-2.26889 0.439997,-4.515702 1.274141,-6.648275 0.810574,-2.072336 1.923179,-3.508392 3.472127,-4.481554 1.385047,-0.870186 2.688556,-1.185452 4.232201,-1.023644 0.407019,0.04269 0.420186,0.04684 0.448702,0.142174 0.01987,0.06626 0.104482,0.15383 0.25971,0.269201 0.126497,0.09441 0.403218,0.348527 0.614313,0.565774 0.31755,0.326409 0.443776,0.431893 0.729699,0.609103 0.302112,0.191039 0.337784,0.216177 0.274881,0.238115 -1.126049,0.377207 -1.902032,0.591569 -2.743376,0.757894 -0.333423,0.06592 -0.848571,0.173527 -1.144748,0.239124 -0.296176,0.06562 -0.603449,0.133359 -0.682855,0.150573 -0.173353,0.03744 -0.273609,0.176055 -0.231138,0.319388 0.04878,0.164869 0.289152,0.315689 0.551776,0.345078 1.357754,0.157344 2.979513,0.29352 3.675539,0.308649 l 0.184102,0.0039 -0.09575,0.08664 c -0.260594,0.235789 -0.997934,1.496964 -1.283541,2.195538 -0.252353,0.617419 -0.290095,1.206141 -0.08535,1.33093 0.1069,0.06515 0.479461,-0.06689 0.88131,-0.312185 0.978399,-0.597366 1.749621,-0.976473 2.547675,-1.252354 0.442784,-0.153074 1.065189,-0.285401 1.150437,-0.244603 0.09583,0.04635 0.138879,0.120128 0.403569,0.698042 0.247238,0.539953 0.523499,1.100243 1.210153,2.454388 0.293147,0.578123 0.444184,0.813633 0.632256,0.985909 0.195044,0.178741 0.338078,0.238935 0.472467,0.199188 0.130671,-0.0387 0.16369,-0.148194 0.237313,-0.791871 0.03409,-0.298367 0.08265,-0.645047 0.107808,-0.770416 0.118093,-0.588143 0.494481,-1.824241 0.560393,-1.840212 0.01414,-0.0034 0.127124,0.104812 0.247852,0.241233 0.120665,0.136524 0.342457,0.375687 0.492801,0.531596 0.150308,0.15596 0.569991,0.603749 0.932532,0.995223 0.362479,0.391525 0.810804,0.874644 0.996203,1.073702 0.185402,0.198992 0.395169,0.439063 0.466243,0.533353 0.152943,0.202911 0.263669,0.248262 0.477538,0.196576 0.35901,-0.0871 0.36936,-0.383168 0.05717,-1.639184 -0.19946,-0.802589 -0.294156,-1.337296 -0.331186,-1.869869 -0.02099,-0.301795 -0.01384,-0.351071 0.05784,-0.399679 0.04495,-0.03059 0.0986,-0.04511 0.119299,-0.03249 0.02069,0.01261 0.183125,0.163525 0.361155,0.335527 1.938738,1.87236 2.825469,3.94989 2.622787,6.14502 -0.07336,0.794767 -0.238221,1.433616 -0.594766,2.304718 -0.238997,0.583496 -1.344145,2.396428 -1.763655,2.882583 -1.370709,1.614311 -2.974763,2.854343 -5.227296,4.041041 -1.681907,0.886123 -3.26421,1.494243 -4.962166,1.907139 -2.502942,0.60863 -4.793925,0.692674 -6.275397,0.2302 -0.501899,-0.156578 -1.35729,-0.624466 -1.739924,-0.951435 z m 2.913128,-2.546708 c 0.199732,-0.04195 0.390844,-0.211443 0.501725,-0.44498 0.124769,-0.263186 0.186513,-0.610586 0.1486,-0.837773 -0.02651,-0.158897 -0.04442,-0.1866 -0.139998,-0.216284 -0.169775,-0.05278 -0.484568,0.05132 -0.680907,0.225156 -0.244997,0.216903 -0.45937,0.579108 -0.445187,0.750618 0.02644,0.308334 0.345556,0.579549 0.615209,0.523058 z m 6.22229,-0.0774 c 0.260777,0.01965 0.369858,-0.05244 0.564094,-0.373262 0.283261,-0.475906 0.351752,-1.042549 0.13409,-1.175209 -0.120232,-0.07328 -0.409995,0.01189 -0.691539,0.203089 -0.183385,0.124634 -0.25286,0.198008 -0.376068,0.397004 -0.185764,0.293457 -0.198322,0.460248 -0.0635,0.673499 0.112736,0.178406 0.241943,0.260434 0.433309,0.274397 z m -8.38874,-5.673639 c 0.368282,-0.01207 0.664579,-0.562815 0.64022,-1.190079 -0.01488,-0.383025 -0.149845,-0.505495 -0.467788,-0.424551 -0.277244,0.07058 -0.764408,0.652693 -0.783095,0.935704 -0.02523,0.382062 0.252278,0.690585 0.610609,0.67887 z m 4.63686,1.505844 c 0.166827,-0.01198 0.372566,-0.143894 0.467588,-0.299801 0.112239,-0.184157 0.250475,-0.849013 0.213598,-1.027281 -0.02605,-0.126441 -0.05777,-0.170361 -0.174271,-0.241363 -0.269607,-0.164318 -0.4463,-0.08826 -0.786583,0.338619 -0.33394,0.418771 -0.382959,0.691962 -0.17952,0.99763 0.111583,0.167667 0.266491,0.245825 0.459134,0.232285 z m -5.464856,-5.992111 c 0.34734,0.03633 0.653254,-0.378597 0.700621,-0.950312 0.03662,-0.441954 -0.04049,-0.67947 -0.224864,-0.692646 -0.306095,-0.02184 -0.489995,0.09852 -0.774529,0.507068 -0.181257,0.260198 -0.211717,0.324011 -0.23401,0.494399 -0.02065,0.155945 -0.0053,0.22572 0.07525,0.344104 0.122994,0.181039 0.272403,0.277804 0.457488,0.297167 z m 10.06711,5.612704 c 0.287105,-0.05721 0.495741,-0.330606 0.597488,-0.782751 0.03482,-0.155362 0.05866,-0.3648 0.05273,-0.465479 -0.01846,-0.314202 -0.111892,-0.400402 -0.390802,-0.360522 -0.227212,0.03247 -0.359829,0.126796 -0.618951,0.440129 -0.243013,0.293987 -0.320772,0.514973 -0.26251,0.737032 0.0689,0.259523 0.385039,0.478879 0.62216,0.431597 z m -5.855339,-4.07367 c 0.218906,-0.03355 0.344311,-0.122771 0.475609,-0.338288 0.132267,-0.217128 0.297583,-0.643593 0.316376,-0.816498 0.01419,-0.131151 -0.06973,-0.296497 -0.185375,-0.364575 -0.188303,-0.107973 -0.409148,-0.04019 -0.727501,0.22884 -0.451012,0.381138 -0.542704,0.567868 -0.443278,0.902551 0.05194,0.174739 0.07786,0.20837 0.234704,0.303962 0.142732,0.08699 0.205412,0.103048 0.329465,0.08401 z m 9.437654,5.532105 c 0.199297,0.01404 0.362416,-0.08976 0.502968,-0.320008 0.248806,-0.40285 0.303113,-1.171716 0.09547,-1.298271 -0.08755,-0.05336 -0.387377,0.03687 -0.594418,0.178986 -0.478711,0.328666 -0.679002,0.84865 -0.451488,1.172262 0.09942,0.141386 0.291536,0.256229 0.448845,0.264777 z M 25.703865,28.557315 c 0.191871,0.01346 0.330252,-0.07497 0.500799,-0.320034 0.315215,-0.452898 0.421834,-1.016686 0.222024,-1.173886 -0.114567,-0.0899 -0.462328,-0.0079 -0.763326,0.180276 -0.209445,0.130982 -0.2689,0.189579 -0.389382,0.383629 -0.126915,0.203241 -0.140621,0.248594 -0.123588,0.407395 0.01019,0.09811 0.0423,0.210224 0.07126,0.249101 0.0838,0.112323 0.351448,0.264368 0.482219,0.273488 z m 7.215793,4.089483 c 0.313164,-0.08308 0.39809,-0.192928 0.519839,-0.672349 0.05251,-0.207134 0.09523,-0.441845 0.09472,-0.521674 -0.0011,-0.175916 -0.10545,-0.329721 -0.262654,-0.387103 -0.234534,-0.08565 -0.396177,0.0031 -0.72575,0.398326 -0.268046,0.321705 -0.331021,0.511057 -0.258822,0.780943 0.05904,0.220721 0.08226,0.252832 0.267996,0.370654 0.125752,0.08344 0.165701,0.08369 0.364637,0.03119 z m 5.695579,2.465355 c 0.176374,-0.01259 0.408455,-0.187755 0.47239,-0.356591 0.105006,-0.277011 0.05454,-0.932577 -0.09082,-1.181925 -0.09984,-0.171401 -0.298695,-0.236561 -0.446702,-0.146651 -0.159115,0.09672 -0.444235,0.558831 -0.516836,0.836857 -0.117609,0.453311 0.173058,0.877108 0.581554,0.847889 z M 29.58148,28.368072 c 0.139704,-0.523742 0.876303,-1.919099 1.208583,-2.289464 0.406383,-0.453103 0.460448,-0.601668 0.304642,-0.83927 -0.114259,-0.17431 -0.255095,-0.225388 -0.624403,-0.226742 -0.324655,-0.0012 -1.080392,-0.05497 -2.172757,-0.154689 l -0.676151,-0.06172 0.586228,-0.120095 c 1.143191,-0.234227 2.738718,-0.685366 3.121324,-0.882574 0.16968,-0.08745 0.274267,-0.255172 0.274199,-0.43971 -1.41e-4,-0.226108 -0.05819,-0.2927 -0.487142,-0.558513 -0.328786,-0.207296 -0.44869,-0.301139 -0.789315,-0.644587 -0.220502,-0.221941 -0.472849,-0.460693 -0.560945,-0.530304 -0.10519,-0.08315 -0.184576,-0.184622 -0.231146,-0.296072 -0.03901,-0.09316 -0.135121,-0.254509 -0.213562,-0.358209 -0.07843,-0.103872 -0.148138,-0.205873 -0.154827,-0.227086 -0.02816,-0.08774 2.897028,0.837278 3.99371,1.263149 0.648618,0.25189 1.619315,0.845581 2.032633,1.245749 0.274682,0.263781 0.308467,0.287299 0.444935,0.308183 0.204316,0.03107 0.36226,-0.07006 0.467363,-0.299402 0.16019,-0.349703 0.40728,-1.59055 0.436263,-2.190978 0.0047,-0.09523 0.01519,-0.309725 0.02354,-0.476404 0.04147,-0.829356 -0.02809,-1.895294 -0.184969,-2.833949 -0.09105,-0.544893 -0.07185,-0.737457 0.08495,-0.851964 0.194509,-0.142096 0.506731,-0.04819 0.629057,0.189192 0.06951,0.13475 0.223336,1.085623 0.284794,1.759893 0.08811,0.966992 0.06866,2.009712 -0.05409,2.896415 -0.06393,0.462024 -0.145281,0.832894 -0.394103,1.796831 -0.05518,0.213479 -0.0598,0.320982 -0.01931,0.450363 0.04894,0.156484 0.06832,0.177468 0.244362,0.26535 0.143525,0.07193 0.282459,0.09931 0.557379,0.111682 0.918668,0.04088 1.663442,0.271899 2.478741,0.768804 0.596964,0.363834 0.852531,0.582413 1.980023,1.69228 0.260781,0.256527 0.583251,0.559058 0.71682,0.672056 0.133587,0.112909 0.237909,0.21317 0.232038,0.222403 -0.0324,0.04183 -1.172958,-0.11901 -1.689599,-0.241213 -0.480351,-0.113666 -0.640003,-0.115476 -0.909443,-0.0104 -0.30828,0.120233 -0.349757,0.23749 -0.305343,0.863551 0.04001,0.563563 0.1094,0.979965 0.314921,1.889057 0.143887,0.636458 0.17858,0.856582 0.127344,0.807533 -0.03944,-0.03609 -0.37213,-0.395848 -0.74091,-0.797215 -0.809569,-0.881214 -1.974618,-2.130111 -2.140406,-2.294429 -0.256308,-0.253987 -0.574137,-0.260825 -0.777608,-0.01654 -0.244859,0.293862 -0.712134,1.968182 -0.780026,2.79464 -0.02342,0.28457 -0.03524,0.279825 -0.213473,-0.08597 -0.06277,-0.12875 -0.207259,-0.410532 -0.321139,-0.626231 -0.343278,-0.650085 -0.612893,-1.195335 -0.976252,-1.974261 -0.420712,-0.901828 -0.477325,-0.996162 -0.667107,-1.11183 -0.217893,-0.1328 -0.426694,-0.131838 -1.001511,0.0049 -0.714399,0.169882 -1.349735,0.419576 -2.189748,0.860592 -0.340482,0.178776 -1.068533,0.598366 -1.087223,0.626581 -0.0065,0.0098 -0.05971,0.03733 -0.117202,0.05939 l -0.104593,0.04026 z"
       id="path1" />
  </g>
</svg>
