<?xml version="1.0" encoding="UTF-8" standalone="no"?>
<svg
   width="64"
   height="64"
   version="1.1"
   id="svg73"
   sodipodi:docname="dconf.svg"
   inkscape:version="1.4.2 (ebf0e940d0, 2025-05-08)"
   xmlns:inkscape="http://www.inkscape.org/namespaces/inkscape"
   xmlns:sodipodi="http://sodipodi.sourceforge.net/DTD/sodipodi-0.dtd"
   xmlns="http://www.w3.org/2000/svg"
   xmlns:svg="http://www.w3.org/2000/svg"
   xmlns:rdf="http://www.w3.org/1999/02/22-rdf-syntax-ns#"
   xmlns:cc="http://creativecommons.org/ns#"
   xmlns:dc="http://purl.org/dc/elements/1.1/">
  <metadata
     id="metadata77">
    <rdf:RDF>
      <cc:Work
         rdf:about="">
        <dc:format>image/svg+xml</dc:format>
        <dc:type
           rdf:resource="http://purl.org/dc/dcmitype/StillImage" />
      </cc:Work>
    </rdf:RDF>
  </metadata>
  <sodipodi:namedview
     pagecolor="#f5f7fa"
     bordercolor="#666666"
     borderopacity="1"
     objecttolerance="10"
     gridtolerance="10"
     guidetolerance="10"
     inkscape:pageopacity="0"
     inkscape:pageshadow="2"
     inkscape:window-width="1377"
     inkscape:window-height="886"
     id="namedview75"
     showgrid="false"
     inkscape:zoom="6.2890624"
     inkscape:cx="47.622361"
     inkscape:cy="45.396274"
     inkscape:window-x="147"
     inkscape:window-y="75"
     inkscape:window-maximized="0"
     inkscape:current-layer="g877"
     inkscape:document-rotation="0"
     inkscape:pagecheckerboard="0"
     inkscape:showpageshadow="2"
     inkscape:deskcolor="#d1d1d1" />
  <defs
     id="defs29">
    <linearGradient
       id="b"
       x1="399.57"
       x2="399.57"
       y1="545.8"
       y2="517.8"
       gradientTransform="matrix(2.1429,0,0,2.1429,-825.86391,-1107.6662)"
       gradientUnits="userSpaceOnUse">
      <stop
         stop-color="#3889e9"
         offset="0"
         id="stop2" />
      <stop
         stop-color="#5ea5fb"
         offset="1"
         id="stop4" />
    </linearGradient>
  </defs>
  <circle
     cx="32.516094"
     cy="31.877844"
     r="0"
     fill="url(#b)"
     stroke-width="1.5715"
     id="circle41"
     style="fill:url(#b)" />
  <g
     aria-label="GZ"
     transform="matrix(1.2212657,0,0,0.81882264,0.4960938,-0.1661539)"
     id="text93"
     style="font-weight:bold;font-size:11.5263px;line-height:1.25;font-family:sans-serif;-inkscape-font-specification:'sans-serif Bold';fill:#f2f2f2;stroke-width:0.288159" />
  <g
     id="g877"
     transform="matrix(1.1,0,0,1.1,-3.1845928,-3.2065454)">
    <rect
       x="8.3496294"
       y="8.369586"
       width="47.272728"
       height="47.272728"
       rx="9.8825235"
       ry="9.6485243"
       fill="url(#linearGradient862)"
       stroke-width="3.0541"
       id="rect35-7-3"
       style="fill:#414141;fill-opacity:1;stroke:#dfdfdf;stroke-width:2.04545;stroke-dasharray:none;stroke-opacity:1" />
    <path
       style="fill:#dfdfdf;fill-opacity:1;stroke:none;stroke-width:0.4725;stroke-dasharray:none;stroke-opacity:1"
       d="m 19.585415,47.04358 c -0.24464,-0.349279 -0.330802,-1.013428 -0.330802,-2.550008 0,-2.511828 0.256596,-2.927733 1.806259,-2.927733 h 0.956255 V 32.003295 22.44075 h -1.050456 c -1.498568,0 -1.712058,-0.376874 -1.712058,-3.022296 0,-3.16656 -0.434162,-2.982027 6.764253,-2.875037 6.482941,0.09635 7.137439,0.197903 9.93004,1.540681 3.909815,1.879969 6.835222,5.305587 8.166546,9.562925 0.711011,2.273677 0.807045,5.451206 0.236741,7.833364 -1.375292,5.744638 -5.853276,10.246306 -11.551237,11.612341 -1.514072,0.362984 -2.509938,0.420365 -7.318647,0.421651 -5.511759,0.0019 -5.569328,-0.0028 -5.896901,-0.470799 z m 13.269261,-6.082756 c 2.323986,-0.903668 4.405922,-2.97845 5.363423,-5.345014 0.392546,-0.970219 0.473506,-1.583876 0.476614,-3.612515 0.0036,-2.38307 -0.01578,-2.484646 -0.782345,-4.089968 C 36.274643,24.48362 33.021456,22.44075 29.197512,22.44075 h -1.230358 v 9.588537 9.588536 l 1.859382,-0.101304 c 1.180005,-0.06426 2.286422,-0.267294 3.02814,-0.555724 z"
       id="path1" />
    <rect
       x="37.737823"
       y="37.757782"
       width="22.610399"
       height="22.610399"
       rx="4.7267799"
       ry="4.6148596"
       fill="url(#linearGradient862)"
       stroke-width="3.0541"
       id="rect35-7-3-1"
       style="fill:#414141;fill-opacity:1;stroke:#dfdfdf;stroke-width:0.978336;stroke-dasharray:none;stroke-opacity:1" />
    <g
       style="color:#000000;display:inline;overflow:visible;visibility:visible;fill:#dfdfdf;fill-opacity:1;fill-rule:nonzero;stroke:none;stroke-width:0.428623;stroke-linecap:butt;stroke-linejoin:miter;stroke-miterlimit:4;stroke-dasharray:none;stroke-dashoffset:0;stroke-opacity:0.6;marker:none;enable-background:accumulate"
       id="layer1-9-4-1"
       transform="matrix(0.94703303,0,0,0.94703303,41.892899,41.770731)">
      <path
         style="color:#000000;display:inline;overflow:visible;visibility:visible;fill:#dfdfdf;fill-opacity:1;fill-rule:nonzero;stroke:none;stroke-width:0.428623;stroke-linecap:butt;stroke-linejoin:miter;stroke-miterlimit:4;stroke-dasharray:none;stroke-dashoffset:0;stroke-opacity:0.6;marker:none;enable-background:accumulate"
         id="rect2996-4-03"
         d="M 13.053978,0 6,1.90625 C 5.446,2.0546939 5,2.645207 5,3.21875 V 12.3125 C 4.4382289,12.018344 3.716744,11.899398 2.96875,12.09375 1.6189863,12.444461 0.77316552,13.577902 1.0625,14.625 c 0.2893345,1.047098 1.6189863,1.631961 2.96875,1.28125 1.0768335,-0.279795 1.5252383,-1.064241 1.6436216,-1.899043 V 5.3360911 L 13.011969,3.3350644 13,10.3125 C 12.438229,10.018344 11.716744,9.8993976 10.96875,10.09375 9.6189863,10.444461 8.7731655,11.577902 9.0625,12.625 c 0.2893345,1.047098 1.618986,1.631961 2.96875,1.28125 1.076834,-0.279795 1.529345,-1.065268 1.647728,-1.90007 V 0.8125 c 0,-0.43015725 -0.265844,-0.75198835 -0.625,-0.8125 z" />
    </g>
  </g>
</svg>
