<?xml version="1.0" encoding="UTF-8" standalone="no"?>
<svg
   width="64"
   height="64"
   version="1.1"
   id="svg73"
   sodipodi:docname="partitionmanager.svg"
   inkscape:version="1.4.2 (ebf0e940d0, 2025-05-08)"
   xmlns:inkscape="http://www.inkscape.org/namespaces/inkscape"
   xmlns:sodipodi="http://sodipodi.sourceforge.net/DTD/sodipodi-0.dtd"
   xmlns="http://www.w3.org/2000/svg"
   xmlns:svg="http://www.w3.org/2000/svg"
   xmlns:rdf="http://www.w3.org/1999/02/22-rdf-syntax-ns#"
   xmlns:cc="http://creativecommons.org/ns#"
   xmlns:dc="http://purl.org/dc/elements/1.1/">
  <metadata
     id="metadata77">
    <rdf:RDF>
      <cc:Work
         rdf:about="">
        <dc:format>image/svg+xml</dc:format>
        <dc:type
           rdf:resource="http://purl.org/dc/dcmitype/StillImage" />
      </cc:Work>
    </rdf:RDF>
  </metadata>
  <sodipodi:namedview
     pagecolor="#f5f7fa"
     bordercolor="#666666"
     borderopacity="1"
     objecttolerance="10"
     gridtolerance="10"
     guidetolerance="10"
     inkscape:pageopacity="0"
     inkscape:pageshadow="2"
     inkscape:window-width="1377"
     inkscape:window-height="886"
     id="namedview75"
     showgrid="false"
     inkscape:zoom="6.2890624"
     inkscape:cx="47.622361"
     inkscape:cy="45.396274"
     inkscape:window-x="264"
     inkscape:window-y="102"
     inkscape:window-maximized="0"
     inkscape:current-layer="g877"
     inkscape:document-rotation="0"
     inkscape:pagecheckerboard="0"
     inkscape:showpageshadow="2"
     inkscape:deskcolor="#d1d1d1" />
  <defs
     id="defs29" />
  <circle
     cx="32.516094"
     cy="31.877844"
     r="0"
     fill="url(#b)"
     stroke-width="1.5715"
     id="circle41"
     style="fill:url(#b)" />
  <g
     aria-label="GZ"
     transform="matrix(1.2212657,0,0,0.81882264,0.4960938,-0.1661539)"
     id="text93"
     style="font-weight:bold;font-size:11.5263px;line-height:1.25;font-family:sans-serif;-inkscape-font-specification:'sans-serif Bold';fill:#f2f2f2;stroke-width:0.288159" />
  <g
     id="g877"
     transform="matrix(1.1,0,0,1.1,-3.1845928,-3.2065454)">
    <rect
       x="8.3496294"
       y="8.369586"
       width="47.272728"
       height="47.272728"
       rx="9.8825235"
       ry="9.6485243"
       fill="url(#linearGradient862)"
       stroke-width="3.0541"
       id="rect35-7-3"
       style="fill:#414141;fill-opacity:1;stroke:#dfdfdf;stroke-width:2.04545;stroke-dasharray:none;stroke-opacity:1" />
    <path
       style="fill:#dfdfdf;fill-opacity:1;fill-rule:evenodd;stroke:none;stroke-width:0.442049;stroke-dasharray:none;stroke-opacity:0.6"
       d="m 31.985996,22.771943 v 0.003 c -3.042018,0.02808 -6.103555,0.681269 -8.753358,2.094943 -1.056117,0.647587 -2.324001,1.483697 -3.279442,2.326391 -1.503314,1.385634 -2.790133,3.001006 -3.659486,4.812083 2.383155,4.948993 7.62095,8.577259 13.384417,9.113204 3.780585,0.40288 7.737901,-0.213655 11.061224,-1.974728 1.05608,-0.647582 2.323988,-1.483694 3.279429,-2.326397 1.503322,-1.388644 2.790144,-3.004019 3.659497,-4.812142 -2.382088,-4.948705 -7.622209,-8.575446 -13.384418,-9.110198 -0.76578,-0.08569 -1.53895,-0.126238 -2.307863,-0.126238 z m 0.0061,3.077809 c 3.357752,-0.07296 6.330965,2.87409 6.267782,6.149609 0.107846,3.620189 -3.569207,6.744489 -7.205356,6.068451 -3.67225,-0.422877 -6.252641,-4.464392 -5.044823,-7.886887 0.772227,-2.517941 3.294654,-4.357676 5.98575,-4.328165 z m -0.0061,3.077806 a 3.1384551,3.0760363 0 0 0 -3.138458,3.080818 3.1384551,3.0760363 0 0 0 3.138458,3.074802 3.1384551,3.0760363 0 0 0 3.138457,-3.074802 3.1384551,3.0760363 0 0 0 -3.138457,-3.0718 z"
       id="path24" />
  </g>
</svg>
