<?xml version="1.0" encoding="UTF-8" standalone="no"?>
<svg
   width="64"
   height="64"
   version="1.1"
   id="svg73"
   sodipodi:docname="audacious.svg"
   inkscape:version="1.4.2 (ebf0e940d0, 2025-05-08)"
   xmlns:inkscape="http://www.inkscape.org/namespaces/inkscape"
   xmlns:sodipodi="http://sodipodi.sourceforge.net/DTD/sodipodi-0.dtd"
   xmlns="http://www.w3.org/2000/svg"
   xmlns:svg="http://www.w3.org/2000/svg"
   xmlns:rdf="http://www.w3.org/1999/02/22-rdf-syntax-ns#"
   xmlns:cc="http://creativecommons.org/ns#"
   xmlns:dc="http://purl.org/dc/elements/1.1/">
  <metadata
     id="metadata77">
    <rdf:RDF>
      <cc:Work
         rdf:about="">
        <dc:format>image/svg+xml</dc:format>
        <dc:type
           rdf:resource="http://purl.org/dc/dcmitype/StillImage" />
      </cc:Work>
    </rdf:RDF>
  </metadata>
  <sodipodi:namedview
     pagecolor="#f5f7fa"
     bordercolor="#666666"
     borderopacity="1"
     objecttolerance="10"
     gridtolerance="10"
     guidetolerance="10"
     inkscape:pageopacity="0"
     inkscape:pageshadow="2"
     inkscape:window-width="1377"
     inkscape:window-height="886"
     id="namedview75"
     showgrid="false"
     inkscape:zoom="6.2890624"
     inkscape:cx="47.622361"
     inkscape:cy="45.396274"
     inkscape:window-x="-15"
     inkscape:window-y="52"
     inkscape:window-maximized="0"
     inkscape:current-layer="g877"
     inkscape:document-rotation="0"
     inkscape:pagecheckerboard="0"
     inkscape:showpageshadow="2"
     inkscape:deskcolor="#d1d1d1" />
  <defs
     id="defs29" />
  <circle
     cx="32.516094"
     cy="31.877844"
     r="0"
     fill="url(#b)"
     stroke-width="1.5715"
     id="circle41"
     style="fill:url(#b)" />
  <g
     aria-label="GZ"
     transform="matrix(1.2212657,0,0,0.81882264,0.4960938,-0.1661539)"
     id="text93"
     style="font-weight:bold;font-size:11.5263px;line-height:1.25;font-family:sans-serif;-inkscape-font-specification:'sans-serif Bold';fill:#f2f2f2;stroke-width:0.288159" />
  <g
     id="g877"
     transform="matrix(1.1,0,0,1.1,-3.1845928,-3.2065454)">
    <rect
       x="8.3496294"
       y="8.369586"
       width="47.272728"
       height="47.272728"
       rx="9.8825235"
       ry="9.6485243"
       fill="url(#linearGradient862)"
       stroke-width="3.0541"
       id="rect35-7-3"
       style="fill:#414141;fill-opacity:1;stroke:#dfdfdf;stroke-width:2.04545;stroke-dasharray:none;stroke-opacity:1" />
    <path
       id="path6"
       style="fill:#dfdfdf;fill-opacity:1;stroke:none;stroke-width:0.545739;stroke-dasharray:none;stroke-opacity:0.6"
       d="m 32.436173,16.311705 c -0.795305,0.0064 -1.593185,0.04448 -2.014077,0.109092 -2.227122,0.341908 -4.127693,1.009221 -5.921948,2.081212 -1.204567,0.719679 -1.973695,1.326718 -3.057484,2.4113 -1.359749,1.36075 -2.146807,2.444052 -2.981956,4.103687 -0.221338,0.439853 -0.402815,0.821244 -0.402815,0.847589 0,0.02632 1.328374,0.04062 2.951184,0.03219 l 2.949788,-0.01538 0.244764,-0.400018 c 0.866715,-1.418605 2.224053,-2.821189 3.609957,-3.731672 2.914044,-1.91441 6.535678,-2.443426 9.929131,-1.450416 0.08711,0.02551 0.09945,-0.07253 0.118884,-0.909133 0.02524,-1.067666 0.102753,-1.322174 0.520311,-1.699379 l 0.225223,-0.202805 -0.586042,-0.218196 c -1.076347,-0.398027 -2.316336,-0.701936 -3.586231,-0.881158 -0.410358,-0.05791 -1.203386,-0.08335 -1.998695,-0.07692 z m 9.333305,1.760917 c -0.212745,8.67e-4 -0.45406,0.003 -0.730107,0.0056 l -1.928756,0.01681 -0.160855,0.148256 c -0.310492,0.286643 -0.323959,0.386067 -0.320276,2.302202 0.0041,1.962781 0.02386,2.100554 0.346866,2.31759 0.200197,0.134588 0.219633,0.135671 2.160943,0.135671 1.908426,0 1.962372,-0.0027 2.137157,-0.127278 0.327165,-0.232962 0.344092,-0.348508 0.344092,-2.318988 0,-1.687637 -0.0079,-1.811798 -0.121647,-2.047644 -0.186902,-0.386026 -0.238009,-0.438111 -1.727379,-0.432168 z m 2.651864,3.647721 -0.04043,0.490931 c -0.06335,0.763532 -0.362091,1.221202 -0.960879,1.471396 l -0.223826,0.09371 0.276909,0.339877 c 0.836517,1.030176 1.668326,2.539117 2.075616,3.765208 0.637345,1.918623 0.780681,4.088423 0.398634,6.033844 l -0.107703,0.542683 0.748282,0.0266 c 0.622437,0.02158 0.793525,0.04869 1.029419,0.162241 0.155741,0.07496 0.298287,0.161946 0.317516,0.193018 0.05779,0.09355 0.07101,0.04408 0.18039,-0.696532 0.131533,-0.890132 0.149296,-3.219068 0.03068,-4.070119 -0.269364,-1.934867 -0.833691,-3.728665 -1.682556,-5.349903 -0.415167,-0.792925 -1.199431,-1.987973 -1.696579,-2.586134 z m -27.343913,4.993235 -0.255955,0.13707 c -0.393517,0.210113 -0.705285,0.524217 -0.886756,0.893748 l -0.165043,0.337078 -0.01681,3.798775 c -0.01831,4.207425 -0.02035,4.180202 0.360854,4.682733 0.215209,0.283679 0.667323,0.614475 0.955289,0.697933 0.102512,0.02965 1.902297,0.05581 3.998785,0.05874 4.173469,0.0062 4.049999,0.015 4.556851,-0.349669 0.353446,-0.254306 0.641429,-0.703738 0.734301,-1.146903 0.05846,-0.278942 0.07879,-1.212692 0.07972,-3.793179 0.0014,-3.512659 -0.02118,-3.911377 -0.237758,-4.335863 -0.152654,-0.299225 -0.55067,-0.679901 -0.879761,-0.841998 L 25.04282,26.713579 h -3.983397 z m 27.654419,8.531862 c -2.476479,-0.0016 -2.557557,0.0071 -2.885441,0.313303 -0.308206,0.287747 -0.307729,0.279157 -0.307729,2.864465 0,2.596263 0.0051,2.650651 0.313253,2.934403 0.08284,0.07637 0.253316,0.175445 0.379038,0.220995 0.183287,0.06644 0.687626,0.08077 2.546964,0.0699 2.620887,-0.01534 2.626584,-0.01636 2.933002,-0.479743 L 47.86896,40.92956 47.88703,38.577 c 0.01194,-1.532127 -0.0041,-2.426602 -0.04479,-2.566543 -0.08826,-0.301746 -0.279398,-0.524711 -0.562259,-0.653177 -0.222462,-0.101052 -0.432784,-0.110675 -2.54837,-0.111895 z m -23.508775,2.85328 c -1.740958,-8.68e-4 -3.16518,0.01978 -3.16518,0.04613 0,0.02591 0.181477,0.407744 0.402815,0.847586 0.462042,0.918179 0.952889,1.714374 1.566506,2.53998 0.549486,0.739313 2.229122,2.417389 2.981955,2.979158 2.391593,1.784633 5.105545,2.849026 8.036733,3.152592 0.731517,0.07576 2.90096,0.0283 3.626738,-0.07975 3.453038,-0.512416 6.353759,-1.938796 8.796214,-4.327469 l 0.833601,-0.815424 -0.923115,-0.0026 c -1.051744,-0.0024 -1.468802,-0.08244 -1.871414,-0.35943 -0.142239,-0.09785 -0.318334,-0.264465 -0.391621,-0.370642 -0.07329,-0.106171 -0.140603,-0.203336 -0.149638,-0.215371 -0.0088,-0.01227 -0.186561,0.0855 -0.394423,0.216803 -3.732698,2.357414 -8.68946,2.361277 -12.483096,0.0082 -1.321861,-0.819845 -2.690138,-2.115464 -3.492493,-3.307855 l -0.208399,-0.310492 z" />
  </g>
</svg>
