<?xml version="1.0" encoding="UTF-8" standalone="no"?>
<svg
   width="64"
   height="64"
   version="1.1"
   id="svg73"
   sodipodi:docname="audacious.svg"
   inkscape:version="1.4.2 (ebf0e940d0, 2025-05-08)"
   xmlns:inkscape="http://www.inkscape.org/namespaces/inkscape"
   xmlns:sodipodi="http://sodipodi.sourceforge.net/DTD/sodipodi-0.dtd"
   xmlns="http://www.w3.org/2000/svg"
   xmlns:svg="http://www.w3.org/2000/svg"
   xmlns:rdf="http://www.w3.org/1999/02/22-rdf-syntax-ns#"
   xmlns:cc="http://creativecommons.org/ns#"
   xmlns:dc="http://purl.org/dc/elements/1.1/">
  <metadata
     id="metadata77">
    <rdf:RDF>
      <cc:Work
         rdf:about="">
        <dc:format>image/svg+xml</dc:format>
        <dc:type
           rdf:resource="http://purl.org/dc/dcmitype/StillImage" />
      </cc:Work>
    </rdf:RDF>
  </metadata>
  <sodipodi:namedview
     pagecolor="#f5f7fa"
     bordercolor="#666666"
     borderopacity="1"
     objecttolerance="10"
     gridtolerance="10"
     guidetolerance="10"
     inkscape:pageopacity="0"
     inkscape:pageshadow="2"
     inkscape:window-width="1377"
     inkscape:window-height="886"
     id="namedview75"
     showgrid="false"
     inkscape:zoom="6.2890624"
     inkscape:cx="47.622361"
     inkscape:cy="45.396274"
     inkscape:window-x="28"
     inkscape:window-y="57"
     inkscape:window-maximized="0"
     inkscape:current-layer="g877"
     inkscape:document-rotation="0"
     inkscape:pagecheckerboard="0"
     inkscape:showpageshadow="2"
     inkscape:deskcolor="#d1d1d1" />
  <defs
     id="defs29" />
  <circle
     cx="32.516094"
     cy="31.877844"
     r="0"
     fill="url(#b)"
     stroke-width="1.5715"
     id="circle41"
     style="fill:url(#b)" />
  <g
     aria-label="GZ"
     transform="matrix(1.2212657,0,0,0.81882264,0.4960938,-0.1661539)"
     id="text93"
     style="font-weight:bold;font-size:11.5263px;line-height:1.25;font-family:sans-serif;-inkscape-font-specification:'sans-serif Bold';fill:#f2f2f2;stroke-width:0.288159" />
  <g
     id="g877"
     transform="matrix(1.1,0,0,1.1,-3.1845928,-3.2065454)">
    <rect
       x="8.3496294"
       y="8.369586"
       width="47.272728"
       height="47.272728"
       rx="9.8825235"
       ry="9.6485243"
       fill="url(#linearGradient862)"
       stroke-width="3.0541"
       id="rect35-7-3"
       style="fill:#414141;fill-opacity:1;stroke:#dfdfdf;stroke-width:2.04545;stroke-dasharray:none;stroke-opacity:1" />
    <path
       id="path7-62"
       style="fill:#dfdfdf;stroke:none;stroke-width:0.987114;stroke-dasharray:none;stroke-opacity:0.3;fill-opacity:1"
       d="m 32.08691,16.218223 c -3.335829,-0.02496 -6.677147,1.270987 -9.298501,3.892531 -3.823382,3.823657 -5.207034,9.596282 -3.545502,14.793159 0.907115,2.837234 2.964784,5.737853 5.109068,7.198971 0.358391,0.244248 0.651648,0.490497 0.651648,0.547543 0,0.244706 0.845615,1.757622 1.318719,2.359802 1.107933,1.41023 2.950915,2.478383 4.748539,2.755042 0.55726,0.08577 2.109164,-0.03105 2.772393,-0.208254 2.036085,-0.544418 3.761012,-2.024312 4.775529,-4.098826 0.40114,-0.820284 0.5441,-0.994213 1.297509,-1.57128 2.179129,-1.669063 3.854762,-4.058416 4.756266,-6.784456 1.721333,-5.205119 0.42048,-11.016644 -3.323792,-14.852884 -2.596765,-2.660548 -5.926043,-4.006421 -9.261876,-4.031348 z m 8.567813,14.180071 c 0.535824,-0.02267 1.052825,0.002 1.413186,0.07904 0.325882,0.06958 0.344064,0.104244 0.43764,0.863723 0.125009,1.014864 -0.05059,2.503917 -0.422213,3.572492 -0.878744,2.526826 -3.056508,4.461734 -5.5525,4.933619 -1.301659,0.246088 -2.72877,0.170113 -2.89385,-0.152256 -0.177247,-0.346181 -0.240955,-1.581779 -0.127249,-2.481246 0.414515,-3.27891 2.588909,-5.837158 5.621899,-6.612869 0.431791,-0.110433 0.98726,-0.179774 1.523082,-0.20244 z m -17.108631,0.0058 c 1.793195,0.0639 3.241788,0.733715 4.64636,2.124605 0.791352,0.783641 1.064396,1.148607 1.444034,1.929881 0.745565,1.534303 1.015848,2.922096 0.871435,4.463205 -0.05979,0.637896 -0.125396,0.866093 -0.267993,0.921554 -0.104265,0.04044 -0.622864,0.09368 -1.152912,0.117582 -3.501722,0.158025 -6.636985,-2.334647 -7.432246,-5.909178 -0.182225,-0.819048 -0.207626,-3.330874 -0.0347,-3.503088 0.04102,-0.04085 0.553011,-0.102239 1.135564,-0.134949 0.271119,-0.01523 0.53429,-0.01879 0.790461,-0.0096 z" />
  </g>
</svg>
