<?xml version="1.0" encoding="UTF-8" standalone="no"?>
<svg
   width="64"
   height="64"
   version="1.1"
   id="svg73"
   sodipodi:docname="steam_icon_368260.svg"
   inkscape:version="1.3.2 (091e20ef0f, 2023-11-25)"
   xmlns:inkscape="http://www.inkscape.org/namespaces/inkscape"
   xmlns:sodipodi="http://sodipodi.sourceforge.net/DTD/sodipodi-0.dtd"
   xmlns="http://www.w3.org/2000/svg"
   xmlns:svg="http://www.w3.org/2000/svg"
   xmlns:rdf="http://www.w3.org/1999/02/22-rdf-syntax-ns#"
   xmlns:cc="http://creativecommons.org/ns#"
   xmlns:dc="http://purl.org/dc/elements/1.1/">
  <metadata
     id="metadata77">
    <rdf:RDF>
      <cc:Work
         rdf:about="">
        <dc:format>image/svg+xml</dc:format>
        <dc:type
           rdf:resource="http://purl.org/dc/dcmitype/StillImage" />
      </cc:Work>
    </rdf:RDF>
  </metadata>
  <sodipodi:namedview
     pagecolor="#f5f7fa"
     bordercolor="#666666"
     borderopacity="1"
     objecttolerance="10"
     gridtolerance="10"
     guidetolerance="10"
     inkscape:pageopacity="0"
     inkscape:pageshadow="2"
     inkscape:window-width="1377"
     inkscape:window-height="886"
     id="namedview75"
     showgrid="false"
     inkscape:zoom="6.2890624"
     inkscape:cx="35.935404"
     inkscape:cy="30.926709"
     inkscape:window-x="181"
     inkscape:window-y="77"
     inkscape:window-maximized="0"
     inkscape:current-layer="g877"
     inkscape:document-rotation="0"
     inkscape:pagecheckerboard="0"
     inkscape:showpageshadow="2"
     inkscape:deskcolor="#d1d1d1" />
  <defs
     id="defs29">
    <linearGradient
       id="b"
       x1="399.57"
       x2="399.57"
       y1="545.8"
       y2="517.8"
       gradientTransform="matrix(2.1429,0,0,2.1429,-825.86391,-1107.6662)"
       gradientUnits="userSpaceOnUse">
      <stop
         stop-color="#3889e9"
         offset="0"
         id="stop2" />
      <stop
         stop-color="#5ea5fb"
         offset="1"
         id="stop4" />
    </linearGradient>
    <linearGradient
       id="d"
       x2="1"
       gradientTransform="matrix(14.905727,-4.7106182,4.7106182,14.905727,322.04962,998.26962)"
       gradientUnits="userSpaceOnUse">
      <stop
         stop-color="#fafafa"
         offset="0"
         id="stop7" />
      <stop
         stop-color="#aaa"
         offset="1"
         id="stop8" />
    </linearGradient>
    <linearGradient
       id="e"
       x2="1"
       gradientTransform="matrix(21.439909,0,0,21.439909,26.63554,1159.7788)"
       gradientUnits="userSpaceOnUse">
      <stop
         stop-color="#f0f0f0"
         offset="0"
         id="stop9" />
      <stop
         stop-color="#b7f1ff"
         offset="1"
         id="stop10" />
    </linearGradient>
  </defs>
  <circle
     cx="32.516094"
     cy="31.877844"
     r="0"
     fill="url(#b)"
     stroke-width="1.5715"
     id="circle41"
     style="fill:url(#b)" />
  <g
     aria-label="GZ"
     transform="matrix(1.2212657,0,0,0.81882264,0.4960938,-0.1661539)"
     id="text93"
     style="font-weight:bold;font-size:11.5263px;line-height:1.25;font-family:sans-serif;-inkscape-font-specification:'sans-serif Bold';fill:#f2f2f2;stroke-width:0.288159" />
  <g
     id="g877"
     transform="matrix(1.1,0,0,1.1,-3.1845928,-3.2065454)">
    <rect
       x="6.3010068"
       y="5.4939413"
       width="51.635597"
       height="53.148327"
       rx="10.980581"
       ry="10.720582"
       fill="url(#linearGradient862)"
       stroke-width="3.0541"
       id="rect35-7-3"
       style="fill:#414141;fill-opacity:1;stroke:#dfdfdf;stroke-width:2.27272727;stroke-dasharray:none;stroke-opacity:1" />
    <path
       id="path10"
       style="fill:#dfdfdf;fill-opacity:1;stroke-width:0.187615;stroke-opacity:0.3"
       d="m 46.224259,15.736543 c -0.185575,9.02e-4 -0.376213,0.02882 -0.566228,0.08572 -1.454295,0.435718 -1.867575,1.464169 -1.879127,4.665117 l -0.0091,2.294209 0.516585,-0.203027 c 0.283754,-0.111261 1.150346,-0.203028 1.924252,-0.203028 0.773908,0 1.638218,0.09177 1.921989,0.203028 l 0.516598,0.203027 v -2.395724 c 0,-2.110164 -0.04985,-2.492708 -0.421832,-3.230391 -0.460179,-0.912549 -1.19896,-1.42284 -2.003201,-1.418935 z m -27.704221,0.02934 c -1.196215,0.01029 -2.326895,1.12749 -2.328051,2.939385 v 1.073789 l 0.480498,-0.182723 c 0.264677,-0.100632 1.102876,-0.182725 1.863342,-0.182725 0.760472,0 1.600907,0.08209 1.865598,0.182725 l 0.480496,0.182723 v -1.073799 c -4.81e-4,-0.733472 -0.118073,-1.264439 -0.367705,-1.673848 -0.536135,-0.879278 -1.276448,-1.271714 -1.99418,-1.265537 z m 13.835193,0 c -0.709862,0.0044 -1.424463,0.382229 -1.931019,1.150488 -0.320991,0.486828 -0.346267,1.021781 -0.347402,7.135283 l -0.0023,6.609668 0.4805,-0.182724 c 0.610777,-0.232198 2.804455,-0.237933 3.602607,-0.009 l 0.606827,0.173702 v -6.41115 c -2.58e-4,-5.73439 -0.03361,-6.481057 -0.327102,-7.056328 -0.478516,-0.938427 -1.277644,-1.41487 -2.082156,-1.409912 z M 18.4298,20.771632 c -3.32591,0.0462 -6.157951,3.474033 -4.95387,7.09919 0.417728,1.257663 1.884906,2.791433 3.095041,3.234902 1.156174,0.423701 3.206361,0.319589 4.2523,-0.216562 1.861587,-0.954247 2.957185,-2.743463 2.948406,-4.816259 -0.0088,-2.073513 -1.09958,-3.800847 -3.002546,-4.753095 -0.776526,-0.388577 -1.571804,-0.558836 -2.339331,-0.548176 z m 27.884687,2.959687 c -1.68848,0.0023 -2.918397,0.545977 -3.990618,1.764082 -1.815316,2.062369 -1.823414,4.903807 -0.0179,6.954815 0.879127,0.998738 1.920559,1.583481 3.137905,1.764082 2.414769,0.358255 4.48879,-0.75335 5.689273,-3.052178 0.572812,-1.097402 0.56915,-3.270823 -0.0091,-4.378623 -1.067628,-2.045656 -2.657994,-3.05519 -4.809492,-3.052187 z m -13.866766,7.902276 c -2.072639,-0.02173 -3.682775,0.935757 -4.723771,2.815313 -0.480342,0.867275 -0.556385,1.199958 -0.552687,2.413768 0.0034,1.102354 0.09901,1.589939 0.44215,2.251345 0.844049,1.626912 2.165018,2.658196 3.83947,2.99804 3.301428,0.670065 6.568865,-2.260795 6.264526,-5.61709 -0.168987,-1.863516 -1.325917,-3.575934 -3.000296,-4.441786 -0.333126,-0.172278 -1.164016,-0.354897 -1.847547,-0.403799 -0.14227,-0.01018 -0.283667,-0.01432 -0.421832,-0.0158 z M 16.191987,32.35547 v 6.855556 c 0,7.59353 0.03405,7.839614 1.161769,8.527149 0.341551,0.208232 0.872513,0.378964 1.182071,0.378964 0.309554,0 0.842757,-0.170732 1.184327,-0.378964 1.127694,-0.687535 1.161767,-0.933619 1.161767,-8.527149 v -6.855565 l -0.798576,0.142117 c -0.438548,0.07861 -1.134765,0.142122 -1.547518,0.142122 -0.412753,0 -1.108976,-0.06351 -1.547524,-0.142122 z m 27.5779,2.844638 0.0023,5.192986 c 5.97e-4,2.946757 0.0833,5.490568 0.191773,5.881026 0.107219,0.386036 0.480976,0.941145 0.850449,1.265537 0.910093,0.799076 1.880409,0.799076 2.790503,0 0.369447,-0.324396 0.743277,-0.879523 0.850462,-1.265537 0.108443,-0.390445 0.191162,-2.934269 0.19173,-5.881026 l 0.0023,-5.192986 -0.609087,0.173701 c -0.783667,0.22475 -2.877602,0.22475 -3.66126,0 z m -9.005401,7.861668 -0.514335,0.200767 c -0.640764,0.247695 -2.533001,0.30593 -3.471768,0.108258 l -0.703831,-0.146635 v 1.574589 c 0,1.329289 0.0677,1.675171 0.4286,2.210741 0.235253,0.349104 0.636191,0.73954 0.891064,0.868504 1.13571,0.574675 2.45802,0.07688 3.007063,-1.132439 0.249833,-0.550246 0.355782,-1.217259 0.358664,-2.233302 z" />
  </g>
</svg>
