<?xml version="1.0" encoding="UTF-8" standalone="no"?>
<svg
   width="64"
   height="64"
   version="1.1"
   id="svg73"
   sodipodi:docname="partitionmanager.svg"
   inkscape:version="1.4.2 (ebf0e940d0, 2025-05-08)"
   xmlns:inkscape="http://www.inkscape.org/namespaces/inkscape"
   xmlns:sodipodi="http://sodipodi.sourceforge.net/DTD/sodipodi-0.dtd"
   xmlns="http://www.w3.org/2000/svg"
   xmlns:svg="http://www.w3.org/2000/svg"
   xmlns:rdf="http://www.w3.org/1999/02/22-rdf-syntax-ns#"
   xmlns:cc="http://creativecommons.org/ns#"
   xmlns:dc="http://purl.org/dc/elements/1.1/">
  <metadata
     id="metadata77">
    <rdf:RDF>
      <cc:Work
         rdf:about="">
        <dc:format>image/svg+xml</dc:format>
        <dc:type
           rdf:resource="http://purl.org/dc/dcmitype/StillImage" />
      </cc:Work>
    </rdf:RDF>
  </metadata>
  <sodipodi:namedview
     pagecolor="#f5f7fa"
     bordercolor="#666666"
     borderopacity="1"
     objecttolerance="10"
     gridtolerance="10"
     guidetolerance="10"
     inkscape:pageopacity="0"
     inkscape:pageshadow="2"
     inkscape:window-width="1377"
     inkscape:window-height="886"
     id="namedview75"
     showgrid="false"
     inkscape:zoom="6.2890624"
     inkscape:cx="47.622361"
     inkscape:cy="45.396274"
     inkscape:window-x="499"
     inkscape:window-y="208"
     inkscape:window-maximized="0"
     inkscape:current-layer="g877"
     inkscape:document-rotation="0"
     inkscape:pagecheckerboard="0"
     inkscape:showpageshadow="2"
     inkscape:deskcolor="#d1d1d1" />
  <defs
     id="defs29">
    <linearGradient
       id="b"
       x1="399.57"
       x2="399.57"
       y1="545.8"
       y2="517.8"
       gradientTransform="matrix(2.1429,0,0,2.1429,-825.86391,-1107.6662)"
       gradientUnits="userSpaceOnUse">
      <stop
         stop-color="#3889e9"
         offset="0"
         id="stop2" />
      <stop
         stop-color="#5ea5fb"
         offset="1"
         id="stop4" />
    </linearGradient>
  </defs>
  <circle
     cx="32.516094"
     cy="31.877844"
     r="0"
     fill="url(#b)"
     stroke-width="1.5715"
     id="circle41"
     style="fill:url(#b)" />
  <g
     aria-label="GZ"
     transform="matrix(1.2212657,0,0,0.81882264,0.4960938,-0.1661539)"
     id="text93"
     style="font-weight:bold;font-size:11.5263px;line-height:1.25;font-family:sans-serif;-inkscape-font-specification:'sans-serif Bold';fill:#f2f2f2;stroke-width:0.288159" />
  <g
     id="g877"
     transform="matrix(1.1,0,0,1.1,-3.1845928,-3.2065454)">
    <rect
       x="8.3496294"
       y="8.369586"
       width="47.272728"
       height="47.272728"
       rx="9.8825235"
       ry="9.6485243"
       fill="url(#linearGradient862)"
       stroke-width="3.0541"
       id="rect35-7-3"
       style="fill:#414141;fill-opacity:1;stroke:#dfdfdf;stroke-width:2.04545;stroke-dasharray:none;stroke-opacity:1" />
    <path
       style="fill:#dfdfdf;fill-opacity:1;stroke:none;stroke-width:0.436636;stroke-dasharray:none;stroke-opacity:0.6"
       d="m 17.50443,45.400972 c -0.601316,-0.18753 -1.243539,-0.757068 -1.57181,-1.393947 -0.21965,-0.426151 -0.227561,-0.849156 -0.225056,-12.023894 0.0025,-11.019661 0.01334,-11.605336 0.223098,-12.058398 0.121246,-0.261908 0.374544,-0.620677 0.562867,-0.797262 0.703829,-0.659993 0.916391,-0.690846 4.759316,-0.690846 2.266441,0 3.691437,0.04787 3.977576,0.133591 0.310965,0.09316 0.782453,0.47261 1.558147,1.253944 0.754624,0.760105 1.339561,1.233929 1.819114,1.473566 l 0.706837,0.353212 8.820333,1.82e-4 c 8.16211,1.75e-4 8.850805,0.01571 9.228546,0.208339 0.224497,0.11449 0.519162,0.359392 0.65477,0.544248 0.244892,0.333837 0.24656,0.405598 0.24656,10.654836 0,8.192548 -0.03233,10.409204 -0.155484,10.757823 -0.08559,0.241531 -0.359476,0.649129 -0.608578,0.905837 -0.884285,0.911178 0.08071,0.85842 -15.536892,0.849496 -11.436747,-0.0066 -14.030874,-0.0371 -14.459199,-0.170789 z m 25.148765,-2.873265 0.313856,-0.313857 -0.0021,-5.132595 -0.002,-5.132626 -1.634359,-1.755963 -1.634352,-1.755965 h -3.488454 -3.488445 l -0.291927,0.315011 -0.291932,0.315002 v 6.539438 6.539448 l 0.347984,0.347958 0.347987,0.347959 h 4.754863 4.754863 z"
       id="path10-0" />
  </g>
</svg>
