<?xml version="1.0" encoding="UTF-8" standalone="no"?>
<svg
   width="64"
   height="64"
   version="1.1"
   id="svg73"
   sodipodi:docname="partitionmanager.svg"
   inkscape:version="1.4.2 (ebf0e940d0, 2025-05-08)"
   xmlns:inkscape="http://www.inkscape.org/namespaces/inkscape"
   xmlns:sodipodi="http://sodipodi.sourceforge.net/DTD/sodipodi-0.dtd"
   xmlns="http://www.w3.org/2000/svg"
   xmlns:svg="http://www.w3.org/2000/svg"
   xmlns:rdf="http://www.w3.org/1999/02/22-rdf-syntax-ns#"
   xmlns:cc="http://creativecommons.org/ns#"
   xmlns:dc="http://purl.org/dc/elements/1.1/">
  <metadata
     id="metadata77">
    <rdf:RDF>
      <cc:Work
         rdf:about="">
        <dc:format>image/svg+xml</dc:format>
        <dc:type
           rdf:resource="http://purl.org/dc/dcmitype/StillImage" />
      </cc:Work>
    </rdf:RDF>
  </metadata>
  <sodipodi:namedview
     pagecolor="#f5f7fa"
     bordercolor="#666666"
     borderopacity="1"
     objecttolerance="10"
     gridtolerance="10"
     guidetolerance="10"
     inkscape:pageopacity="0"
     inkscape:pageshadow="2"
     inkscape:window-width="1377"
     inkscape:window-height="886"
     id="namedview75"
     showgrid="false"
     inkscape:zoom="6.2890624"
     inkscape:cx="47.622361"
     inkscape:cy="45.396274"
     inkscape:window-x="264"
     inkscape:window-y="102"
     inkscape:window-maximized="0"
     inkscape:current-layer="g877"
     inkscape:document-rotation="0"
     inkscape:pagecheckerboard="0"
     inkscape:showpageshadow="2"
     inkscape:deskcolor="#d1d1d1" />
  <defs
     id="defs29">
    <linearGradient
       id="b"
       x1="399.57"
       x2="399.57"
       y1="545.8"
       y2="517.8"
       gradientTransform="matrix(2.1429,0,0,2.1429,-825.86391,-1107.6662)"
       gradientUnits="userSpaceOnUse">
      <stop
         stop-color="#3889e9"
         offset="0"
         id="stop2" />
      <stop
         stop-color="#5ea5fb"
         offset="1"
         id="stop4" />
    </linearGradient>
  </defs>
  <circle
     cx="32.516094"
     cy="31.877844"
     r="0"
     fill="url(#b)"
     stroke-width="1.5715"
     id="circle41"
     style="fill:url(#b)" />
  <g
     aria-label="GZ"
     transform="matrix(1.2212657,0,0,0.81882264,0.4960938,-0.1661539)"
     id="text93"
     style="font-weight:bold;font-size:11.5263px;line-height:1.25;font-family:sans-serif;-inkscape-font-specification:'sans-serif Bold';fill:#f2f2f2;stroke-width:0.288159" />
  <g
     id="g877"
     transform="matrix(1.1,0,0,1.1,-3.1845928,-3.2065454)">
    <rect
       x="8.3496294"
       y="8.369586"
       width="47.272728"
       height="47.272728"
       rx="9.8825235"
       ry="9.6485243"
       fill="url(#linearGradient862)"
       stroke-width="3.0541"
       id="rect35-7-3"
       style="fill:#414141;fill-opacity:1;stroke:#dfdfdf;stroke-width:2.04545;stroke-dasharray:none;stroke-opacity:1" />
    <path
       id="path2-6"
       style="fill:#dfdfdf;fill-opacity:1;stroke:none;stroke-width:0.397844;stroke-dasharray:none;stroke-opacity:0.6"
       d="m 30.485767,16.396134 -6.152091,3.055686 c -3.872156,1.922397 -6.268777,3.22743 -6.463679,3.521295 -0.651859,0.982834 -0.282572,1.248168 6.256542,4.509175 3.361594,1.676397 6.412976,3.09092 6.782349,3.142435 2.029995,0.283096 2.644948,0.07367 8.928051,-3.037983 3.307126,-1.63783 6.173677,-3.121292 6.36985,-3.296459 0.196212,-0.175163 0.355847,-0.51929 0.355847,-0.764806 0,-0.245514 -0.159702,-0.589641 -0.355847,-0.764806 -0.196211,-0.175165 -3.090565,-1.678265 -6.431811,-3.340717 l -6.075962,-3.02382 h -1.60574 z m 10.399246,12.105897 -3.259279,1.632295 c -5.144701,2.576137 -6.019931,2.577365 -11.199461,0.02478 l -3.319475,-1.635841 -2.632563,1.320707 c -1.496194,0.749743 -2.731961,1.502818 -2.860945,1.743831 -0.511547,0.955832 0.308596,1.471705 8.974086,5.640444 l 3.974515,1.912014 1.665936,-0.06202 1.664162,-0.06202 6.019306,-2.997253 c 6.520978,-3.247803 6.993461,-3.58551 6.362785,-4.548036 -0.210112,-0.32067 -1.283897,-0.972681 -2.862731,-1.740288 z m -17.8986,8.527948 -2.673285,1.359653 c -4.298128,2.185553 -4.312271,2.159241 3.284066,5.962658 3.270265,1.637391 6.174562,3.052926 6.454827,3.14598 0.280265,0.09306 1.243546,0.140814 2.140399,0.106271 l 1.630524,-0.062 5.808638,-2.906978 c 5.82418,-2.915232 6.727469,-3.463969 6.727469,-4.089592 0,-0.548889 -0.781837,-1.114025 -3.250431,-2.345766 l -2.333373,-1.163148 -3.588569,1.770384 -3.588573,1.770391 H 31.88614 30.175948 l -3.593884,-1.773935 z" />
  </g>
</svg>
