<?xml version="1.0" encoding="UTF-8" standalone="no"?>
<svg
   width="64"
   height="64"
   version="1.1"
   id="svg73"
   sodipodi:docname="audacious.svg"
   inkscape:version="1.4.2 (ebf0e940d0, 2025-05-08)"
   xmlns:inkscape="http://www.inkscape.org/namespaces/inkscape"
   xmlns:sodipodi="http://sodipodi.sourceforge.net/DTD/sodipodi-0.dtd"
   xmlns="http://www.w3.org/2000/svg"
   xmlns:svg="http://www.w3.org/2000/svg"
   xmlns:rdf="http://www.w3.org/1999/02/22-rdf-syntax-ns#"
   xmlns:cc="http://creativecommons.org/ns#"
   xmlns:dc="http://purl.org/dc/elements/1.1/">
  <metadata
     id="metadata77">
    <rdf:RDF>
      <cc:Work
         rdf:about="">
        <dc:format>image/svg+xml</dc:format>
        <dc:type
           rdf:resource="http://purl.org/dc/dcmitype/StillImage" />
      </cc:Work>
    </rdf:RDF>
  </metadata>
  <sodipodi:namedview
     pagecolor="#f5f7fa"
     bordercolor="#666666"
     borderopacity="1"
     objecttolerance="10"
     gridtolerance="10"
     guidetolerance="10"
     inkscape:pageopacity="0"
     inkscape:pageshadow="2"
     inkscape:window-width="1377"
     inkscape:window-height="886"
     id="namedview75"
     showgrid="false"
     inkscape:zoom="6.2890624"
     inkscape:cx="37.445963"
     inkscape:cy="34.901864"
     inkscape:window-x="1"
     inkscape:window-y="75"
     inkscape:window-maximized="0"
     inkscape:current-layer="g877"
     inkscape:document-rotation="0"
     inkscape:pagecheckerboard="0"
     inkscape:showpageshadow="2"
     inkscape:deskcolor="#d1d1d1" />
  <defs
     id="defs29" />
  <circle
     cx="32.516094"
     cy="31.877844"
     r="0"
     fill="url(#b)"
     stroke-width="1.5715"
     id="circle41"
     style="fill:url(#b)" />
  <g
     aria-label="GZ"
     transform="matrix(1.2212657,0,0,0.81882264,0.4960938,-0.1661539)"
     id="text93"
     style="font-weight:bold;font-size:11.5263px;line-height:1.25;font-family:sans-serif;-inkscape-font-specification:'sans-serif Bold';fill:#f2f2f2;stroke-width:0.288159" />
  <g
     id="g877"
     transform="matrix(1.1,0,0,1.1,-3.1845928,-3.2065454)">
    <rect
       x="8.3496294"
       y="8.369586"
       width="47.272728"
       height="47.272728"
       rx="9.8825235"
       ry="9.6485243"
       fill="url(#linearGradient862)"
       stroke-width="3.0541"
       id="rect35-7-3"
       style="fill:#414141;fill-opacity:1;stroke:#dfdfdf;stroke-width:2.04545;stroke-dasharray:none;stroke-opacity:1" />
    <path
       id="path3-6"
       style="fill:#dfdfdf;fill-opacity:1;stroke:none;stroke-width:0.510565;stroke-dasharray:none;stroke-opacity:0.6"
       d="m 31.995743,16.804634 c -2.929317,-0.0017 -5.875525,0.847983 -8.459594,2.579096 -5.699088,3.817917 -8.126466,10.916468 -5.959007,17.426891 1.855418,5.573139 6.864605,9.644475 12.674341,10.301991 5.311344,0.601114 10.639284,-1.692812 13.859859,-5.968167 4.669293,-6.198538 3.9385,-14.848065 -1.705004,-20.182638 -2.905932,-2.746856 -6.644332,-4.155004 -10.410595,-4.157173 z m -0.06151,11.380211 c 0.437585,0 0.823964,0.208851 2.767523,1.493025 0.910586,0.601653 1.90216,1.23288 2.20355,1.401426 l 0.548264,0.306191 0.56398,-0.145243 c 0.31049,-0.07999 1.158574,-0.334256 1.884268,-0.563973 1.850569,-0.58578 2.764239,-0.821504 3.175783,-0.821751 0.316385,-1.86e-4 0.35461,0.02038 0.35461,0.194964 0,0.978657 -4.533485,5.552327 -5.724791,5.775815 -0.561904,0.105421 -1.532131,-0.330665 -4.081271,-1.834541 -0.823386,-0.485761 -1.546378,-0.883167 -1.605557,-0.883253 -0.161106,-2.37e-4 -0.67141,0.272415 -2.104102,1.125327 -1.49533,0.890204 -2.193337,1.254282 -2.826406,1.472088 -0.600696,0.206671 -0.824033,0.196133 -1.30983,-0.06151 -1.574596,-0.835053 -5.289047,-4.819755 -5.289047,-5.673749 1e-6,-0.243816 0.975944,-0.08579 2.669385,0.431812 0.848794,0.259427 1.931057,0.58447 2.405063,0.722303 l 0.862316,0.251237 0.348064,-0.155718 c 0.191267,-0.08507 0.966294,-0.564408 1.723325,-1.066441 2.342944,-1.553744 3.065612,-1.968017 3.434871,-1.968018 z" />
  </g>
</svg>
