<?xml version="1.0" encoding="UTF-8" standalone="no"?>
<svg
   width="64"
   height="64"
   version="1.1"
   id="svg73"
   sodipodi:docname="audacious.svg"
   inkscape:version="1.4.2 (ebf0e940d0, 2025-05-08)"
   xmlns:inkscape="http://www.inkscape.org/namespaces/inkscape"
   xmlns:sodipodi="http://sodipodi.sourceforge.net/DTD/sodipodi-0.dtd"
   xmlns="http://www.w3.org/2000/svg"
   xmlns:svg="http://www.w3.org/2000/svg"
   xmlns:rdf="http://www.w3.org/1999/02/22-rdf-syntax-ns#"
   xmlns:cc="http://creativecommons.org/ns#"
   xmlns:dc="http://purl.org/dc/elements/1.1/">
  <metadata
     id="metadata77">
    <rdf:RDF>
      <cc:Work
         rdf:about="">
        <dc:format>image/svg+xml</dc:format>
        <dc:type
           rdf:resource="http://purl.org/dc/dcmitype/StillImage" />
      </cc:Work>
    </rdf:RDF>
  </metadata>
  <sodipodi:namedview
     pagecolor="#f5f7fa"
     bordercolor="#666666"
     borderopacity="1"
     objecttolerance="10"
     gridtolerance="10"
     guidetolerance="10"
     inkscape:pageopacity="0"
     inkscape:pageshadow="2"
     inkscape:window-width="1377"
     inkscape:window-height="886"
     id="namedview75"
     showgrid="false"
     inkscape:zoom="6.2890624"
     inkscape:cx="47.622361"
     inkscape:cy="45.396274"
     inkscape:window-x="20"
     inkscape:window-y="75"
     inkscape:window-maximized="0"
     inkscape:current-layer="g877"
     inkscape:document-rotation="0"
     inkscape:pagecheckerboard="0"
     inkscape:showpageshadow="2"
     inkscape:deskcolor="#d1d1d1" />
  <defs
     id="defs29" />
  <circle
     cx="32.516094"
     cy="31.877844"
     r="0"
     fill="url(#b)"
     stroke-width="1.5715"
     id="circle41"
     style="fill:url(#b)" />
  <g
     aria-label="GZ"
     transform="matrix(1.2212657,0,0,0.81882264,0.4960938,-0.1661539)"
     id="text93"
     style="font-weight:bold;font-size:11.5263px;line-height:1.25;font-family:sans-serif;-inkscape-font-specification:'sans-serif Bold';fill:#f2f2f2;stroke-width:0.288159" />
  <g
     id="g877"
     transform="matrix(1.1,0,0,1.1,-3.1845928,-3.2065454)">
    <rect
       x="8.3496294"
       y="8.369586"
       width="47.272728"
       height="47.272728"
       rx="9.8825235"
       ry="9.6485243"
       fill="url(#linearGradient862)"
       stroke-width="3.0541"
       id="rect35-7-3"
       style="fill:#414141;fill-opacity:1;stroke:#dfdfdf;stroke-width:2.04545;stroke-dasharray:none;stroke-opacity:1" />
    <path
       style="fill:#dfdfdf;fill-opacity:1;stroke:none;stroke-width:0.525;stroke-dasharray:none;stroke-opacity:0.6"
       d="m 30.066728,46.622331 c -1.065693,-0.638816 -1.740475,-1.774599 -1.740475,-2.929539 v -0.731676 h -5.784749 -5.784748 v -0.542365 c 0,-0.324883 0.386718,-0.91666 0.964318,-1.4757 1.249597,-1.20945 3.04587,-3.478209 3.838417,-4.848058 1.094238,-1.891295 1.581095,-3.707952 1.798342,-6.71033 0.255165,-3.526412 0.807592,-5.128323 2.274351,-6.595082 0.578492,-0.57849 1.409432,-1.181121 1.846535,-1.339179 0.72146,-0.260883 0.804538,-0.389425 0.90108,-1.394145 0.126513,-1.316653 0.68308,-2.141994 1.917498,-2.843492 2.188375,-1.243613 5.336596,0.55404 5.354524,3.057468 0.0055,0.75946 0.106802,0.896942 0.946907,1.284319 2.512055,1.158326 3.998277,4.186716 4.008849,8.168616 0.0098,3.683528 1.930368,7.584063 5.409412,10.986004 0.749585,0.732976 1.198241,1.373923 1.198241,1.711812 v 0.540132 H 41.430479 35.64573 v 0.791476 c 0,0.958488 -0.791211,2.194398 -1.870405,2.921669 -1.07321,0.723235 -2.447535,0.703991 -3.708597,-0.05195 z"
       id="path4" />
  </g>
</svg>
