<?xml version="1.0" encoding="UTF-8" standalone="no"?>
<svg
   width="64"
   height="64"
   version="1.1"
   id="svg73"
   sodipodi:docname="org.gnome.Calculator.svg"
   inkscape:version="1.4.2 (ebf0e940d0, 2025-05-08)"
   xmlns:inkscape="http://www.inkscape.org/namespaces/inkscape"
   xmlns:sodipodi="http://sodipodi.sourceforge.net/DTD/sodipodi-0.dtd"
   xmlns="http://www.w3.org/2000/svg"
   xmlns:svg="http://www.w3.org/2000/svg"
   xmlns:rdf="http://www.w3.org/1999/02/22-rdf-syntax-ns#"
   xmlns:cc="http://creativecommons.org/ns#"
   xmlns:dc="http://purl.org/dc/elements/1.1/">
  <metadata
     id="metadata77">
    <rdf:RDF>
      <cc:Work
         rdf:about="">
        <dc:format>image/svg+xml</dc:format>
        <dc:type
           rdf:resource="http://purl.org/dc/dcmitype/StillImage" />
      </cc:Work>
    </rdf:RDF>
  </metadata>
  <sodipodi:namedview
     pagecolor="#f5f7fa"
     bordercolor="#666666"
     borderopacity="1"
     objecttolerance="10"
     gridtolerance="10"
     guidetolerance="10"
     inkscape:pageopacity="0"
     inkscape:pageshadow="2"
     inkscape:window-width="1377"
     inkscape:window-height="886"
     id="namedview75"
     showgrid="false"
     inkscape:zoom="6.2890624"
     inkscape:cx="47.622361"
     inkscape:cy="45.396274"
     inkscape:window-x="147"
     inkscape:window-y="75"
     inkscape:window-maximized="0"
     inkscape:current-layer="g877"
     inkscape:document-rotation="0"
     inkscape:pagecheckerboard="0"
     inkscape:showpageshadow="2"
     inkscape:deskcolor="#d1d1d1" />
  <defs
     id="defs29">
    <linearGradient
       id="b"
       x1="399.57"
       x2="399.57"
       y1="545.8"
       y2="517.8"
       gradientTransform="matrix(2.1429,0,0,2.1429,-825.86391,-1107.6662)"
       gradientUnits="userSpaceOnUse">
      <stop
         stop-color="#3889e9"
         offset="0"
         id="stop2" />
      <stop
         stop-color="#5ea5fb"
         offset="1"
         id="stop4" />
    </linearGradient>
  </defs>
  <circle
     cx="32.516094"
     cy="31.877844"
     r="0"
     fill="url(#b)"
     stroke-width="1.5715"
     id="circle41"
     style="fill:url(#b)" />
  <g
     aria-label="GZ"
     transform="matrix(1.2212657,0,0,0.81882264,0.4960938,-0.1661539)"
     id="text93"
     style="font-weight:bold;font-size:11.5263px;line-height:1.25;font-family:sans-serif;-inkscape-font-specification:'sans-serif Bold';fill:#f2f2f2;stroke-width:0.288159" />
  <g
     id="g877"
     transform="matrix(1.1,0,0,1.1,-3.1845928,-3.2065454)">
    <rect
       x="8.3496294"
       y="8.369586"
       width="47.272728"
       height="47.272728"
       rx="9.8825235"
       ry="9.6485243"
       fill="url(#linearGradient862)"
       stroke-width="3.0541"
       id="rect35-7-3"
       style="fill:#414141;fill-opacity:1;stroke:#dfdfdf;stroke-width:2.04545;stroke-dasharray:none;stroke-opacity:1" />
    <path
       style="fill:#dfdfdf;fill-opacity:1;stroke:none;stroke-width:0.506606;stroke-dasharray:none;stroke-opacity:0.6"
       d="m 35.283399,16.674303 c -6.617286,0 -12.084502,5.418728 -12.084502,12.043565 0,2.517983 0.850341,4.83451 2.184787,6.774621 l -8.056411,8.074684 a 2.1968055,2.2017832 0 0 0 3.072472,3.147736 l 8.05641,-8.074657 c 1.938537,1.337725 4.310587,2.121307 6.827464,2.121307 6.6175,0 12.016336,-5.41874 12.016336,-12.043581 0,-6.624837 -5.398836,-12.043565 -12.016336,-12.043565 z m 0,4.37948 c 4.254665,0 7.646759,3.404605 7.646759,7.664085 0,4.259264 -3.392094,7.664092 -7.646759,7.664092 -4.254654,0 -7.646761,-3.404828 -7.646761,-7.664092 0,-4.259479 3.392107,-7.664085 7.646761,-7.664085 z"
       id="path8" />
    <rect
       x="37.737823"
       y="37.757782"
       width="22.610399"
       height="22.610399"
       rx="4.7267799"
       ry="4.6148596"
       fill="url(#linearGradient862)"
       stroke-width="3.0541"
       id="rect35-7-3-1"
       style="fill:#414141;fill-opacity:1;stroke:#dfdfdf;stroke-width:0.978336;stroke-dasharray:none;stroke-opacity:1" />
    <g
       id="g206"
       transform="matrix(1.4464441,0,0,1.4464441,31.978928,31.913289)"
       style="fill:#dfdfdf;fill-opacity:1;stroke:none;stroke-width:0.329963;stroke-dasharray:none;stroke-opacity:0.6">
      <path
         style="fill:#dfdfdf;fill-opacity:1;stroke:none;stroke-width:0.329963;stroke-dasharray:none;stroke-opacity:0.6"
         d="m 8,7 h 8 V 9 H 8 Z"
         id="path4" />
      <path
         style="fill:#dfdfdf;fill-opacity:1;stroke:none;stroke-width:0.329963;stroke-dasharray:none;stroke-opacity:0.6"
         d="m 8,11 h 8 v 2 H 8 Z"
         id="path6" />
      <path
         style="fill:#dfdfdf;fill-opacity:1;stroke:none;stroke-width:0.329963;stroke-dasharray:none;stroke-opacity:0.6"
         d="m 8,15 h 8 v 2 H 8 Z"
         id="path8-9" />
    </g>
  </g>
</svg>
