<?xml version="1.0" encoding="UTF-8" standalone="no"?>
<svg
   width="64"
   height="64"
   version="1.1"
   id="svg73"
   sodipodi:docname="audacious.svg"
   inkscape:version="1.4.2 (ebf0e940d0, 2025-05-08)"
   xmlns:inkscape="http://www.inkscape.org/namespaces/inkscape"
   xmlns:sodipodi="http://sodipodi.sourceforge.net/DTD/sodipodi-0.dtd"
   xmlns="http://www.w3.org/2000/svg"
   xmlns:svg="http://www.w3.org/2000/svg"
   xmlns:rdf="http://www.w3.org/1999/02/22-rdf-syntax-ns#"
   xmlns:cc="http://creativecommons.org/ns#"
   xmlns:dc="http://purl.org/dc/elements/1.1/">
  <metadata
     id="metadata77">
    <rdf:RDF>
      <cc:Work
         rdf:about="">
        <dc:format>image/svg+xml</dc:format>
        <dc:type
           rdf:resource="http://purl.org/dc/dcmitype/StillImage" />
      </cc:Work>
    </rdf:RDF>
  </metadata>
  <sodipodi:namedview
     pagecolor="#f5f7fa"
     bordercolor="#666666"
     borderopacity="1"
     objecttolerance="10"
     gridtolerance="10"
     guidetolerance="10"
     inkscape:pageopacity="0"
     inkscape:pageshadow="2"
     inkscape:window-width="1377"
     inkscape:window-height="886"
     id="namedview75"
     showgrid="false"
     inkscape:zoom="6.2890624"
     inkscape:cx="47.622361"
     inkscape:cy="45.396274"
     inkscape:window-x="0"
     inkscape:window-y="75"
     inkscape:window-maximized="0"
     inkscape:current-layer="g877"
     inkscape:document-rotation="0"
     inkscape:pagecheckerboard="0"
     inkscape:showpageshadow="2"
     inkscape:deskcolor="#d1d1d1" />
  <defs
     id="defs29" />
  <circle
     cx="32.516094"
     cy="31.877844"
     r="0"
     fill="url(#b)"
     stroke-width="1.5715"
     id="circle41"
     style="fill:url(#b)" />
  <g
     aria-label="GZ"
     transform="matrix(1.2212657,0,0,0.81882264,0.4960938,-0.1661539)"
     id="text93"
     style="font-weight:bold;font-size:11.5263px;line-height:1.25;font-family:sans-serif;-inkscape-font-specification:'sans-serif Bold';fill:#f2f2f2;stroke-width:0.288159" />
  <g
     id="g877"
     transform="matrix(1.1,0,0,1.1,-3.1845928,-3.2065454)">
    <rect
       x="8.3496294"
       y="8.369586"
       width="47.272728"
       height="47.272728"
       rx="9.8825235"
       ry="9.6485243"
       fill="url(#linearGradient862)"
       stroke-width="3.0541"
       id="rect35-7-3"
       style="fill:#414141;fill-opacity:1;stroke:#dfdfdf;stroke-width:2.04545;stroke-dasharray:none;stroke-opacity:1" />
    <path
       style="fill:#dfdfdf;stroke-width:0.153577;fill-opacity:1"
       d="M 21.830029,47.908381 C 20.716016,47.800648 19.695582,47.277309 18.848354,46.379203 18.290252,45.787585 17.904229,45.101396 17.672518,44.289062 L 17.560104,43.894959 17.54479,32.325494 c -0.01067,-8.06326 0.0014,-11.716849 0.04013,-12.055791 0.2276,-1.997102 1.694011,-3.623569 3.725682,-4.132336 0.245372,-0.06146 0.551713,-0.08558 1.061592,-0.08363 0.760795,0.0028 1.162302,0.07838 1.810962,0.340386 0.165878,0.067 4.571797,2.587904 9.790933,5.602008 5.219136,3.014106 9.569966,5.520723 9.668512,5.570261 0.648633,0.326059 1.574104,1.120187 1.954394,1.677025 0.28612,0.418951 0.585386,1.066832 0.714258,1.546303 0.168239,0.625931 0.157842,1.664204 -0.02353,2.348283 -0.298569,1.12619 -0.989614,2.150355 -1.851656,2.744247 -0.368046,0.25356 -19.76254,11.459174 -20.064428,11.592684 -0.504391,0.223065 -1.065066,0.377504 -1.578233,0.434725 -0.27169,0.03029 -0.500648,0.05197 -0.508795,0.04816 -0.0081,-0.0038 -0.212711,-0.02606 -0.454584,-0.04946 z m 7.115003,-7.910955 c 0.328441,-0.163667 0.541732,-0.440055 0.619801,-0.803143 0.04068,-0.189203 0.05246,-2.212024 0.04123,-7.073558 l -0.01574,-6.808577 -0.110494,-0.204771 c -0.486045,-0.900725 -1.744232,-0.907258 -2.190668,-0.01138 l -0.130484,0.261846 5.02e-4,6.913709 5e-4,6.913711 0.120165,0.258052 c 0.125786,0.270125 0.361268,0.504389 0.621122,0.617906 0.268764,0.117411 0.737976,0.08874 1.04408,-0.06379 z m 3.681593,-4.251633 c 0.311676,-0.192695 0.508436,-0.482839 0.575338,-0.848391 0.03454,-0.188692 0.04839,-1.193285 0.03848,-2.789982 -0.01717,-2.765995 -0.0099,-2.704443 -0.363628,-3.077283 -0.233832,-0.246457 -0.515924,-0.362645 -0.880476,-0.362645 -0.382534,0 -0.655649,0.118811 -0.902484,0.392599 -0.330471,0.366552 -0.326131,0.323087 -0.326131,3.266791 v 2.663388 l 0.128211,0.249117 c 0.333391,0.647788 1.126603,0.879886 1.730693,0.506406 z M 25.16941,34.646526 c 0.285495,-0.08554 0.574816,-0.355671 0.70497,-0.658225 0.108722,-0.252729 0.11192,-0.311538 0.09685,-1.78116 -0.01707,-1.664621 -0.01756,-1.667478 -0.343235,-1.99315 -0.2415,-0.2415 -0.500156,-0.342697 -0.87537,-0.342475 -0.488628,2.89e-4 -0.855245,0.22252 -1.092523,0.662247 -0.104437,0.19354 -0.111367,0.283383 -0.126356,1.638154 -0.01111,1.005458 0.0026,1.499071 0.04574,1.653403 0.187197,0.668718 0.889008,1.031207 1.589927,0.821206 z m -3.679341,-1.188675 c 0.332816,-0.100163 0.529712,-0.257068 0.70407,-0.561075 0.125549,-0.218907 0.151376,-0.321097 0.150842,-0.596878 -0.0013,-0.727819 -0.491115,-1.228615 -1.201415,-1.228615 -0.692655,0 -1.219332,0.519819 -1.221318,1.205422 -0.0017,0.55551 0.325885,1.014328 0.837376,1.173148 0.298597,0.09272 0.44367,0.09431 0.730445,0.008 z m 14.67307,-0.08117 c 0.600294,-0.30951 0.835492,-1.002658 0.548996,-1.617924 -0.480187,-1.031225 -2.019776,-0.868084 -2.286143,0.242251 -0.158951,0.66258 0.233088,1.309717 0.897846,1.482075 0.21801,0.05653 0.622848,0.0052 0.839301,-0.106402 z m 3.634656,2.01e-4 c 0.680183,-0.349952 0.867867,-1.247591 0.391455,-1.872201 -0.273198,-0.358181 -0.870324,-0.522484 -1.362715,-0.374961 -0.786696,0.2357 -1.07921,1.327339 -0.521185,1.945005 0.397137,0.439583 0.991466,0.559909 1.492445,0.302157 z"
       id="path20" />
  </g>
</svg>
