<?xml version="1.0" encoding="UTF-8" standalone="no"?>
<svg
   width="64"
   height="64"
   version="1.1"
   id="svg73"
   sodipodi:docname="accessories-text-editor.svg"
   inkscape:version="1.4.2 (ebf0e940d0, 2025-05-08)"
   xmlns:inkscape="http://www.inkscape.org/namespaces/inkscape"
   xmlns:sodipodi="http://sodipodi.sourceforge.net/DTD/sodipodi-0.dtd"
   xmlns="http://www.w3.org/2000/svg"
   xmlns:svg="http://www.w3.org/2000/svg"
   xmlns:rdf="http://www.w3.org/1999/02/22-rdf-syntax-ns#"
   xmlns:cc="http://creativecommons.org/ns#"
   xmlns:dc="http://purl.org/dc/elements/1.1/">
  <metadata
     id="metadata77">
    <rdf:RDF>
      <cc:Work
         rdf:about="">
        <dc:format>image/svg+xml</dc:format>
        <dc:type
           rdf:resource="http://purl.org/dc/dcmitype/StillImage" />
      </cc:Work>
    </rdf:RDF>
  </metadata>
  <sodipodi:namedview
     pagecolor="#f5f7fa"
     bordercolor="#666666"
     borderopacity="1"
     objecttolerance="10"
     gridtolerance="10"
     guidetolerance="10"
     inkscape:pageopacity="0"
     inkscape:pageshadow="2"
     inkscape:window-width="1377"
     inkscape:window-height="886"
     id="namedview75"
     showgrid="false"
     inkscape:zoom="6.2890624"
     inkscape:cx="43.011181"
     inkscape:cy="42.693168"
     inkscape:window-x="264"
     inkscape:window-y="75"
     inkscape:window-maximized="0"
     inkscape:current-layer="g877"
     inkscape:document-rotation="0"
     inkscape:pagecheckerboard="0"
     inkscape:showpageshadow="2"
     inkscape:deskcolor="#d1d1d1" />
  <defs
     id="defs29" />
  <circle
     cx="32.516094"
     cy="31.877844"
     r="0"
     fill="url(#b)"
     stroke-width="1.5715"
     id="circle41"
     style="fill:url(#b)" />
  <g
     aria-label="GZ"
     transform="matrix(1.2212657,0,0,0.81882264,0.4960938,-0.1661539)"
     id="text93"
     style="font-weight:bold;font-size:11.5263px;line-height:1.25;font-family:sans-serif;-inkscape-font-specification:'sans-serif Bold';fill:#f2f2f2;stroke-width:0.288159" />
  <g
     id="g877"
     transform="matrix(1.1,0,0,1.1,-3.1845928,-3.2065454)">
    <rect
       x="8.3496294"
       y="8.369586"
       width="47.272728"
       height="47.272728"
       rx="9.8825235"
       ry="9.6485243"
       fill="url(#linearGradient862)"
       stroke-width="3.0541"
       id="rect35-7-3"
       style="fill:#414141;fill-opacity:1;stroke:#dfdfdf;stroke-width:2.04545;stroke-dasharray:none;stroke-opacity:1" />
    <path
       fill="#f5f7fa"
       d="M 38.305342,44.625941 37.007106,42.09123 c -1.450971,0.928214 -3.9329,1.606512 -6.338459,1.606512 -7.102127,0 -10.95866,-3.427217 -10.95866,-10.031739 0,-7.175726 5.842074,-13.316143 13.66969,-13.316143 6.873028,0 10.920473,3.213015 10.920473,8.960738 0,3.784207 -1.832811,7.461318 -5.002038,7.461318 -1.145503,0 -1.603701,-0.535503 -1.603701,-1.570809 0,-0.535494 0.114531,-1.535104 0.267252,-2.356202 l 1.183716,-7.175728 c -1.221874,-0.713998 -3.245593,-1.142402 -5.078402,-1.142402 -4.658384,0 -9.354952,2.963111 -9.354952,9.38913 0,3.105917 1.641889,5.60492 5.61297,5.60492 1.794625,0 3.39833,-0.642596 4.467473,-1.892104 h 0.152744 c 0.534565,1.106706 1.756439,1.892104 3.894714,1.892104 5.345693,0 8.820386,-4.533919 8.820386,-10.602933 0,-6.925825 -5.460233,-11.424042 -13.784235,-11.424042 -10.080443,0 -17.564402,7.318529 -17.564402,16.529156 0,7.639828 4.811117,12.495045 13.784236,12.495045 3.207412,0 6.262088,-0.749708 8.209444,-1.89211 z M 31.0123,36.807617 c -1.985542,0 -2.94013,-1.071001 -2.94013,-3.462908 0,-3.570018 2.405559,-6.069025 5.574791,-6.069025 0.725481,0 1.412787,0.142807 1.870985,0.285608 l -0.878216,5.604916 c -0.07637,0.392695 -0.190896,1.392301 -0.190896,1.820698 -0.572751,0.96391 -1.870991,1.820711 -3.436515,1.820711 z"
       id="path42"
       style="fill:#dfdfdf;fill-opacity:1;stroke:none;stroke-width:0.493647;stroke-dasharray:none;stroke-opacity:0.6" />
  </g>
</svg>
