<?xml version="1.0" encoding="UTF-8" standalone="no"?>
<svg
   width="64"
   height="64"
   version="1.1"
   id="svg73"
   sodipodi:docname="audacious.svg"
   inkscape:version="1.4.2 (ebf0e940d0, 2025-05-08)"
   xmlns:inkscape="http://www.inkscape.org/namespaces/inkscape"
   xmlns:sodipodi="http://sodipodi.sourceforge.net/DTD/sodipodi-0.dtd"
   xmlns="http://www.w3.org/2000/svg"
   xmlns:svg="http://www.w3.org/2000/svg"
   xmlns:rdf="http://www.w3.org/1999/02/22-rdf-syntax-ns#"
   xmlns:cc="http://creativecommons.org/ns#"
   xmlns:dc="http://purl.org/dc/elements/1.1/">
  <metadata
     id="metadata77">
    <rdf:RDF>
      <cc:Work
         rdf:about="">
        <dc:format>image/svg+xml</dc:format>
        <dc:type
           rdf:resource="http://purl.org/dc/dcmitype/StillImage" />
      </cc:Work>
    </rdf:RDF>
  </metadata>
  <sodipodi:namedview
     pagecolor="#f5f7fa"
     bordercolor="#666666"
     borderopacity="1"
     objecttolerance="10"
     gridtolerance="10"
     guidetolerance="10"
     inkscape:pageopacity="0"
     inkscape:pageshadow="2"
     inkscape:window-width="1377"
     inkscape:window-height="886"
     id="namedview75"
     showgrid="false"
     inkscape:zoom="6.2890624"
     inkscape:cx="46.82733"
     inkscape:cy="41.739131"
     inkscape:window-x="0"
     inkscape:window-y="49"
     inkscape:window-maximized="0"
     inkscape:current-layer="g877"
     inkscape:document-rotation="0"
     inkscape:pagecheckerboard="0"
     inkscape:showpageshadow="2"
     inkscape:deskcolor="#d1d1d1" />
  <defs
     id="defs29" />
  <circle
     cx="32.516094"
     cy="31.877844"
     r="0"
     fill="url(#b)"
     stroke-width="1.5715"
     id="circle41"
     style="fill:url(#b)" />
  <g
     aria-label="GZ"
     transform="matrix(1.2212657,0,0,0.81882264,0.4960938,-0.1661539)"
     id="text93"
     style="font-weight:bold;font-size:11.5263px;line-height:1.25;font-family:sans-serif;-inkscape-font-specification:'sans-serif Bold';fill:#f2f2f2;stroke-width:0.288159" />
  <g
     id="g877"
     transform="matrix(1.1,0,0,1.1,-3.1845928,-3.2065454)">
    <rect
       x="8.3496294"
       y="8.369586"
       width="47.272728"
       height="47.272728"
       rx="9.8825235"
       ry="9.6485243"
       fill="url(#linearGradient862)"
       stroke-width="3.0541"
       id="rect35-7-3"
       style="fill:#414141;fill-opacity:1;stroke:#dfdfdf;stroke-width:2.04545;stroke-dasharray:none;stroke-opacity:1" />
    <path
       d="M 31.985992,16.237754 A 15.378085,15.768195 0 0 0 16.606961,32.00498 15.378085,15.768195 0 0 0 31.985992,47.774147 15.378085,15.768195 0 0 0 47.365026,32.00498 15.378085,15.768195 0 0 0 31.985992,16.237754 Z m 0,2.005964 a 13.422128,13.762621 0 0 1 6.16627,1.551311 l -2.028307,3.555337 a 9.4081645,9.6468299 0 0 0 -4.137963,-0.992508 9.4081645,9.6468299 0 0 0 -4.08074,0.967923 L 25.795599,19.800704 A 13.422128,13.762621 0 0 1 31.9859,18.243667 Z m 0,6.017786 a 7.5519929,7.743572 0 0 1 7.551805,7.74338 7.5519929,7.743572 0 0 1 -7.551805,7.743373 7.5519929,7.743572 0 0 1 -7.551805,-7.743373 7.5519929,7.743572 0 0 1 7.551805,-7.74338 z m 11.894633,1.382763 a 13.422128,13.762621 0 0 1 1.525889,6.360617 13.422128,13.762621 0 0 1 -1.522202,6.343546 l -3.461891,-2.087328 a 9.4081645,9.6468299 0 0 0 0.97164,-4.256218 9.4081645,9.6468299 0 0 0 -0.999349,-4.299767 l 3.485815,-2.06085 z m -23.833716,0.10417 3.496978,2.009745 a 9.4081645,9.6468299 0 0 0 -0.966155,4.246713 9.4081645,9.6468299 0 0 0 0.99387,4.292201 l -3.493293,2.047568 a 13.422128,13.762621 0 0 1 -1.514824,-6.339769 13.422128,13.762621 0 0 1 1.483424,-6.256458 z m 7.795635,14.910876 a 9.4081645,9.6468299 0 0 0 4.143543,0.99251 9.4081645,9.6468299 0 0 0 4.07147,-0.96413 l 2.142854,3.508006 a 13.422128,13.762621 0 0 1 -6.214324,1.572166 13.422128,13.762621 0 0 1 -6.256788,-1.59486 l 2.113341,-3.513634 z"
       fill="url(#linearGradient898)"
       stroke-width="2.23747"
       id="path27"
       style="fill:#dfdfdf;fill-opacity:1;stroke:none;stroke-width:0.496125;stroke-dasharray:none;stroke-opacity:0.6" />
  </g>
</svg>
