<?xml version="1.0" encoding="UTF-8" standalone="no"?>
<svg
   width="64"
   height="64"
   version="1.1"
   id="svg73"
   sodipodi:docname="audacious.svg"
   inkscape:version="1.4.2 (ebf0e940d0, 2025-05-08)"
   xmlns:inkscape="http://www.inkscape.org/namespaces/inkscape"
   xmlns:sodipodi="http://sodipodi.sourceforge.net/DTD/sodipodi-0.dtd"
   xmlns="http://www.w3.org/2000/svg"
   xmlns:svg="http://www.w3.org/2000/svg"
   xmlns:rdf="http://www.w3.org/1999/02/22-rdf-syntax-ns#"
   xmlns:cc="http://creativecommons.org/ns#"
   xmlns:dc="http://purl.org/dc/elements/1.1/">
  <metadata
     id="metadata77">
    <rdf:RDF>
      <cc:Work
         rdf:about="">
        <dc:format>image/svg+xml</dc:format>
        <dc:type
           rdf:resource="http://purl.org/dc/dcmitype/StillImage" />
      </cc:Work>
    </rdf:RDF>
  </metadata>
  <sodipodi:namedview
     pagecolor="#f5f7fa"
     bordercolor="#666666"
     borderopacity="1"
     objecttolerance="10"
     gridtolerance="10"
     guidetolerance="10"
     inkscape:pageopacity="0"
     inkscape:pageshadow="2"
     inkscape:window-width="1377"
     inkscape:window-height="886"
     id="namedview75"
     showgrid="false"
     inkscape:zoom="2.2235193"
     inkscape:cx="46.54783"
     inkscape:cy="46.997567"
     inkscape:window-x="264"
     inkscape:window-y="75"
     inkscape:window-maximized="0"
     inkscape:current-layer="g877"
     inkscape:document-rotation="0"
     inkscape:pagecheckerboard="0"
     inkscape:showpageshadow="2"
     inkscape:deskcolor="#d1d1d1" />
  <defs
     id="defs29" />
  <circle
     cx="32.516094"
     cy="31.877844"
     r="0"
     fill="url(#b)"
     stroke-width="1.5715"
     id="circle41"
     style="fill:url(#b)" />
  <g
     aria-label="GZ"
     transform="matrix(1.2212657,0,0,0.81882264,0.4960938,-0.1661539)"
     id="text93"
     style="font-weight:bold;font-size:11.5263px;line-height:1.25;font-family:sans-serif;-inkscape-font-specification:'sans-serif Bold';fill:#f2f2f2;stroke-width:0.288159" />
  <g
     id="g877"
     transform="matrix(1.1,0,0,1.1,-3.1845928,-3.2065454)">
    <rect
       x="8.3496294"
       y="8.369586"
       width="47.272728"
       height="47.272728"
       rx="9.8825235"
       ry="9.6485243"
       fill="url(#linearGradient862)"
       stroke-width="3.0541"
       id="rect35-7-3"
       style="fill:#414141;fill-opacity:1;stroke:#dfdfdf;stroke-width:2.04545;stroke-dasharray:none;stroke-opacity:1" />
    <path
       style="fill:#dfdfdf;fill-opacity:1;stroke:none;stroke-width:0.468838;stroke-dasharray:none;stroke-opacity:0.6"
       d="m 40.84346,47.687553 c -2.002627,-3.342487 -3.605541,-6.210201 -3.6755,-6.305876 -0.112348,-0.153619 -0.160127,-0.152394 -0.409137,0.01069 -0.754531,0.493749 -2.84425,0.69575 -4.372843,0.422701 -0.380729,-0.06801 -2.289056,-0.599285 -4.240726,-1.180616 l -3.548495,-1.05697 -1.734066,0.08363 c -1.264305,0.06089 -1.778774,0.04639 -1.899102,-0.05345 -0.09077,-0.07533 -0.227601,-0.416547 -0.304067,-0.758234 -0.118515,-0.52958 -0.184456,-0.630331 -0.446927,-0.682822 -0.475326,-0.09507 -0.924358,-0.512372 -1.068307,-0.992833 -0.218114,-0.727999 0.02346,-1.360761 0.808711,-2.118214 0.365851,-0.352901 0.784902,-0.836831 0.931223,-1.075395 0.471592,-0.768887 1.712275,-1.791633 2.857916,-2.355904 1.959549,-0.965143 3.987531,-1.389179 7.543291,-1.577236 2.250018,-0.119 2.67677,-0.221685 5.176728,-1.245599 1.695514,-0.694432 3.160939,-1.11477 3.55486,-1.01966 0.490826,0.118511 0.925713,0.480424 1.257417,1.04644 l 0.306978,0.523791 0.229526,-0.385586 c 0.348556,-0.585504 1.259391,-1.483284 1.782331,-1.756762 0.274437,-0.143526 0.689231,-0.244995 1.007031,-0.246339 1.013852,-0.0042 1.501199,0.610089 1.501199,1.892534 0,0.804536 -0.260486,2.268885 -0.597998,3.361605 l -0.236806,0.766672 0.347316,0.364913 c 0.191057,0.200707 1.981745,2.352461 3.979394,4.781686 2.959652,3.599058 5.481999,5.581167 5.421712,5.784642 -0.0407,0.137316 -0.517329,4.850541 -0.517329,4.850541 -1.21435,2.558855 -4.204582,5.088957 -4.204582,5.088957 -1.84487,1.622838 -5.289134,0.777016 -5.289134,0.777016 z"
       id="path1-9"
       sodipodi:nodetypes="ssssscsssssssssssscsscsscssssscs" />
  </g>
</svg>
