<?xml version="1.0" encoding="UTF-8" standalone="no"?>
<svg
   width="64"
   height="64"
   version="1.1"
   id="svg73"
   sodipodi:docname="audacious.svg"
   inkscape:version="1.4.2 (ebf0e940d0, 2025-05-08)"
   xmlns:inkscape="http://www.inkscape.org/namespaces/inkscape"
   xmlns:sodipodi="http://sodipodi.sourceforge.net/DTD/sodipodi-0.dtd"
   xmlns="http://www.w3.org/2000/svg"
   xmlns:svg="http://www.w3.org/2000/svg"
   xmlns:rdf="http://www.w3.org/1999/02/22-rdf-syntax-ns#"
   xmlns:cc="http://creativecommons.org/ns#"
   xmlns:dc="http://purl.org/dc/elements/1.1/">
  <metadata
     id="metadata77">
    <rdf:RDF>
      <cc:Work
         rdf:about="">
        <dc:format>image/svg+xml</dc:format>
        <dc:type
           rdf:resource="http://purl.org/dc/dcmitype/StillImage" />
      </cc:Work>
    </rdf:RDF>
  </metadata>
  <sodipodi:namedview
     pagecolor="#f5f7fa"
     bordercolor="#666666"
     borderopacity="1"
     objecttolerance="10"
     gridtolerance="10"
     guidetolerance="10"
     inkscape:pageopacity="0"
     inkscape:pageshadow="2"
     inkscape:window-width="1377"
     inkscape:window-height="886"
     id="namedview75"
     showgrid="false"
     inkscape:zoom="6.2890624"
     inkscape:cx="47.622361"
     inkscape:cy="45.396274"
     inkscape:window-x="1"
     inkscape:window-y="75"
     inkscape:window-maximized="0"
     inkscape:current-layer="g877"
     inkscape:document-rotation="0"
     inkscape:pagecheckerboard="0"
     inkscape:showpageshadow="2"
     inkscape:deskcolor="#d1d1d1" />
  <defs
     id="defs29" />
  <circle
     cx="32.516094"
     cy="31.877844"
     r="0"
     fill="url(#b)"
     stroke-width="1.5715"
     id="circle41"
     style="fill:url(#b)" />
  <g
     aria-label="GZ"
     transform="matrix(1.2212657,0,0,0.81882264,0.4960938,-0.1661539)"
     id="text93"
     style="font-weight:bold;font-size:11.5263px;line-height:1.25;font-family:sans-serif;-inkscape-font-specification:'sans-serif Bold';fill:#f2f2f2;stroke-width:0.288159" />
  <g
     id="g877"
     transform="matrix(1.1,0,0,1.1,-3.1845928,-3.2065454)">
    <rect
       x="8.3496294"
       y="8.369586"
       width="47.272728"
       height="47.272728"
       rx="9.8825235"
       ry="9.6485243"
       fill="url(#linearGradient862)"
       stroke-width="3.0541"
       id="rect35-7-3"
       style="fill:#414141;fill-opacity:1;stroke:#dfdfdf;stroke-width:2.04545;stroke-dasharray:none;stroke-opacity:1" />
    <path
       style="fill:#dfdfdf;fill-opacity:1;stroke:none;stroke-width:0.510565;stroke-dasharray:none;stroke-opacity:0.6"
       d="m 19.76395,47.042979 c -0.859636,-0.247375 -1.797612,-0.936655 -2.292652,-1.684702 -1.100121,-1.662406 -0.895343,-3.676001 0.517523,-5.088867 0.422919,-0.422917 0.952062,-0.814912 1.175873,-0.87108 l 0.406931,-0.102133 v -7.275933 -7.275927 l -0.485268,-0.201006 c -0.640255,-0.265202 -1.484396,-1.104029 -1.868293,-1.856527 -0.980225,-1.921399 -0.281156,-4.204153 1.63183,-5.32862 0.679649,-0.399497 0.990092,-0.472962 1.982861,-0.469218 1.682551,0.0064 2.907982,0.727792 3.63406,2.139484 l 0.324314,0.630565 h 7.231224 7.231227 l 0.152747,-0.401696 c 0.46211,-1.215417 2.297101,-2.452035 3.64325,-2.455223 2.246394,-0.0053 4.126729,1.813777 4.140074,4.005249 0.0032,0.530376 -0.12024,1.252047 -0.278208,1.626156 -0.33835,0.801298 -1.303614,1.834533 -1.972923,2.111766 l -0.480584,0.199069 v 7.273757 7.273757 l 0.485259,0.200949 c 0.712447,0.295121 1.537931,1.164191 1.918905,2.020235 1.361248,3.058794 -1.573278,6.432459 -4.779102,5.494304 -1.084749,-0.317384 -2.053299,-1.079189 -2.509738,-1.973876 L 39.238419,44.377155 H 32.02734 24.816256 l -0.440105,0.750979 c -0.542822,0.926254 -1.348027,1.557304 -2.385483,1.869535 -0.894516,0.269282 -1.412125,0.279785 -2.226718,0.04534 z m 19.76923,-5.780434 0.282494,-0.592369 -0.976298,-0.98658 c -0.933426,-0.943262 -1.006074,-0.982586 -1.654347,-0.895645 -0.798941,0.107163 -1.651749,-0.279882 -1.983793,-0.900282 -0.215892,-0.40341 -0.225656,-0.40468 -3.111014,-0.40468 h -2.894439 l -0.693856,0.69386 c -0.661288,0.661287 -0.732718,0.690121 -1.521865,0.614291 -0.822107,-0.079 -0.834908,-0.07256 -1.797085,0.899744 l -0.969077,0.979292 0.282474,0.592369 0.282484,0.592374 h 7.235928 7.235919 z M 24.309734,38.88269 c 0.929709,-0.919998 0.961022,-0.97959 0.868698,-1.653164 -0.111919,-0.816576 0.229411,-1.614268 0.870498,-2.034322 l 0.416876,-0.273147 v -2.919425 -2.919424 l -0.428971,-0.281072 c -0.647743,-0.424418 -0.970803,-1.175412 -0.858403,-1.995472 0.09242,-0.674223 0.06154,-0.732637 -0.878922,-1.663296 l -0.974705,-0.964527 -0.615458,0.293488 -0.615461,0.293495 v 7.183859 7.183856 l 0.54649,0.337853 c 0.300574,0.185837 0.582131,0.344125 0.62569,0.351746 0.04358,0.008 0.51321,-0.415551 1.043668,-0.940473 z m 17.456722,-6.8537 -10e-4,-7.241376 -0.531908,-0.302815 -0.531912,-0.302809 -0.987268,0.975415 c -0.931799,0.920618 -0.981412,1.010239 -0.883344,1.595271 0.127908,0.763103 -0.30569,1.770513 -0.873448,2.02921 -0.391351,0.178307 -0.39376,0.197637 -0.39376,3.159785 v 2.980383 l 0.434419,0.284649 c 0.588025,0.385286 0.966995,1.335412 0.828057,2.076016 -0.102238,0.545293 -0.04314,0.653694 0.850302,1.556488 l 0.96024,0.970377 0.565376,-0.269573 0.565377,-0.269638 -10e-4,-7.241371 z m -6.591462,3.865468 c 0.103121,-0.226316 0.3801,-0.537693 0.615519,-0.691944 l 0.428034,-0.280461 V 32.010207 29.098358 L 35.724041,28.746236 C 35.452063,28.552571 35.182124,28.244747 35.12418,28.062184 35.02451,27.748163 34.858081,27.730251 32.039704,27.730251 h -2.979129 l -0.29194,0.494219 c -0.16057,0.271829 -0.44172,0.54176 -0.62478,0.599861 -0.31528,0.100055 -0.332841,0.26371 -0.332841,3.10168 v 2.996045 l 0.428033,0.280464 c 0.235419,0.154256 0.512403,0.465624 0.615519,0.691939 l 0.187491,0.41148 h 2.972729 2.972732 z m -0.05079,-9.673195 c 0.05794,-0.182557 0.333415,-0.494329 0.612166,-0.692812 0.403077,-0.287015 0.674072,-0.344811 1.323984,-0.282362 0.808689,0.0777 0.827234,0.06836 1.786256,-0.900777 l 0.969077,-0.979301 -0.282461,-0.592368 -0.282493,-0.592364 h -7.2166 -7.216591 l -0.335632,0.568853 -0.335634,0.568853 0.988828,0.978505 c 0.936687,0.926918 1.028101,0.976094 1.733811,0.932694 0.882511,-0.05429 1.619091,0.282422 1.943344,0.888289 l 0.232657,0.434725 h 2.986968 c 2.826185,0 2.99264,-0.01782 3.092317,-0.331934 z"
       id="path2647" />
  </g>
</svg>
