<?xml version="1.0" encoding="UTF-8" standalone="no"?>
<svg
   width="64"
   height="64"
   version="1.1"
   id="svg73"
   sodipodi:docname="audacious.svg"
   inkscape:version="1.4.2 (ebf0e940d0, 2025-05-08)"
   xmlns:inkscape="http://www.inkscape.org/namespaces/inkscape"
   xmlns:sodipodi="http://sodipodi.sourceforge.net/DTD/sodipodi-0.dtd"
   xmlns="http://www.w3.org/2000/svg"
   xmlns:svg="http://www.w3.org/2000/svg"
   xmlns:rdf="http://www.w3.org/1999/02/22-rdf-syntax-ns#"
   xmlns:cc="http://creativecommons.org/ns#"
   xmlns:dc="http://purl.org/dc/elements/1.1/">
  <metadata
     id="metadata77">
    <rdf:RDF>
      <cc:Work
         rdf:about="">
        <dc:format>image/svg+xml</dc:format>
        <dc:type
           rdf:resource="http://purl.org/dc/dcmitype/StillImage" />
      </cc:Work>
    </rdf:RDF>
  </metadata>
  <sodipodi:namedview
     pagecolor="#f5f7fa"
     bordercolor="#666666"
     borderopacity="1"
     objecttolerance="10"
     gridtolerance="10"
     guidetolerance="10"
     inkscape:pageopacity="0"
     inkscape:pageshadow="2"
     inkscape:window-width="1377"
     inkscape:window-height="886"
     id="namedview75"
     showgrid="false"
     inkscape:zoom="6.2890624"
     inkscape:cx="47.622361"
     inkscape:cy="45.396274"
     inkscape:window-x="264"
     inkscape:window-y="84"
     inkscape:window-maximized="0"
     inkscape:current-layer="g877"
     inkscape:document-rotation="0"
     inkscape:pagecheckerboard="0"
     inkscape:showpageshadow="2"
     inkscape:deskcolor="#d1d1d1" />
  <defs
     id="defs29" />
  <circle
     cx="32.516094"
     cy="31.877844"
     r="0"
     fill="url(#b)"
     stroke-width="1.5715"
     id="circle41"
     style="fill:url(#b)" />
  <g
     aria-label="GZ"
     transform="matrix(1.2212657,0,0,0.81882264,0.4960938,-0.1661539)"
     id="text93"
     style="font-weight:bold;font-size:11.5263px;line-height:1.25;font-family:sans-serif;-inkscape-font-specification:'sans-serif Bold';fill:#f2f2f2;stroke-width:0.288159" />
  <g
     id="g877"
     transform="matrix(1.1,0,0,1.1,-3.1845928,-3.2065454)">
    <rect
       x="8.3496294"
       y="8.369586"
       width="47.272728"
       height="47.272728"
       rx="9.8825235"
       ry="9.6485243"
       fill="url(#linearGradient862)"
       stroke-width="3.0541"
       id="rect35-7-3"
       style="fill:#414141;fill-opacity:1;stroke:#dfdfdf;stroke-width:2.04545;stroke-dasharray:none;stroke-opacity:1" />
    <path
       style="fill:#dfdfdf;stroke-width:0.909091;fill-opacity:1"
       d="m 28.17056,45.131014 c -6.353728,-1.723488 -11.753728,-3.30084 -12,-3.505228 -0.246271,-0.204387 -0.447766,-0.604505 -0.447766,-0.889152 0,-0.600779 2.48136,-10.009033 2.757766,-10.456267 0.306108,-0.495293 1.573484,-0.347121 5.096779,0.595878 3.75881,1.006034 4.47057,1.445509 4.216269,2.60333 -0.108713,0.49497 -0.01776,0.897169 0.253859,1.122593 0.554397,0.460109 5.593018,1.805461 6.069935,1.620722 0.202966,-0.07862 0.59203,-0.533626 0.864588,-1.011121 0.293809,-0.514724 0.735426,-0.868173 1.084737,-0.868173 1.084839,0 7.960567,1.996366 8.205407,2.382437 0.132963,0.20966 0.243754,0.531939 0.246205,0.716177 0.0096,0.722472 -2.607226,10.070301 -2.926917,10.455504 -0.186928,0.225235 -0.68384,0.399932 -1.104249,0.388216 C 40.066765,48.27421 34.524288,46.854501 28.17056,45.131014 Z M 40.450067,33.272661 c -2,-0.562599 -3.8,-1.156914 -4,-1.320697 -0.2,-0.163785 -0.363637,-0.723914 -0.363637,-1.244731 0,-1.217037 -0.250042,-1.391145 -3.074356,-2.140719 -3.06574,-0.81365 -3.563853,-0.799407 -3.910296,0.11181 -0.153639,0.4041 -0.505792,0.821624 -0.782564,0.92783 -0.500865,0.1922 -6.067357,-1.104054 -7.869147,-1.832467 -0.683224,-0.276208 -0.944926,-0.567883 -0.943547,-1.051611 0.0029,-1.006256 2.501143,-10.07105 2.912058,-10.566172 0.1965,-0.236769 0.519327,-0.43049 0.71739,-0.43049 0.772377,0 24.394773,6.410803 24.77006,6.722264 0.567253,0.470778 0.542732,0.632887 -0.933438,6.171175 -1.247017,4.678549 -1.738881,5.766154 -2.578125,5.70073 -0.169419,-0.01321 -1.944398,-0.484322 -3.944398,-1.046922 z"
       id="path1" />
  </g>
</svg>
