<?xml version="1.0" encoding="UTF-8" standalone="no"?>
<svg
   width="64"
   height="64"
   version="1.1"
   id="svg73"
   sodipodi:docname="Logo.svg"
   inkscape:version="1.3.2 (091e20ef0f, 2023-11-25)"
   xmlns:inkscape="http://www.inkscape.org/namespaces/inkscape"
   xmlns:sodipodi="http://sodipodi.sourceforge.net/DTD/sodipodi-0.dtd"
   xmlns="http://www.w3.org/2000/svg"
   xmlns:svg="http://www.w3.org/2000/svg"
   xmlns:rdf="http://www.w3.org/1999/02/22-rdf-syntax-ns#"
   xmlns:cc="http://creativecommons.org/ns#"
   xmlns:dc="http://purl.org/dc/elements/1.1/">
  <metadata
     id="metadata77">
    <rdf:RDF>
      <cc:Work
         rdf:about="">
        <dc:format>image/svg+xml</dc:format>
        <dc:type
           rdf:resource="http://purl.org/dc/dcmitype/StillImage" />
      </cc:Work>
    </rdf:RDF>
  </metadata>
  <sodipodi:namedview
     pagecolor="#f5f7fa"
     bordercolor="#666666"
     borderopacity="1"
     objecttolerance="10"
     gridtolerance="10"
     guidetolerance="10"
     inkscape:pageopacity="0"
     inkscape:pageshadow="2"
     inkscape:window-width="1377"
     inkscape:window-height="886"
     id="namedview75"
     showgrid="false"
     inkscape:zoom="6.2890624"
     inkscape:cx="38.797516"
     inkscape:cy="12.322982"
     inkscape:window-x="181"
     inkscape:window-y="77"
     inkscape:window-maximized="0"
     inkscape:current-layer="g877"
     inkscape:document-rotation="0"
     inkscape:pagecheckerboard="0"
     inkscape:showpageshadow="2"
     inkscape:deskcolor="#d1d1d1" />
  <defs
     id="defs29">
    <linearGradient
       id="b"
       x1="399.57"
       x2="399.57"
       y1="545.8"
       y2="517.8"
       gradientTransform="matrix(2.1429,0,0,2.1429,-825.86391,-1107.6662)"
       gradientUnits="userSpaceOnUse">
      <stop
         stop-color="#3889e9"
         offset="0"
         id="stop2" />
      <stop
         stop-color="#5ea5fb"
         offset="1"
         id="stop4" />
    </linearGradient>
    <linearGradient
       id="d"
       x2="1"
       gradientTransform="matrix(14.905727,-4.7106182,4.7106182,14.905727,322.04962,998.26962)"
       gradientUnits="userSpaceOnUse">
      <stop
         stop-color="#fafafa"
         offset="0"
         id="stop7" />
      <stop
         stop-color="#aaa"
         offset="1"
         id="stop8" />
    </linearGradient>
    <linearGradient
       id="e"
       x2="1"
       gradientTransform="matrix(21.439909,0,0,21.439909,26.63554,1159.7788)"
       gradientUnits="userSpaceOnUse">
      <stop
         stop-color="#f0f0f0"
         offset="0"
         id="stop9" />
      <stop
         stop-color="#b7f1ff"
         offset="1"
         id="stop10" />
    </linearGradient>
    <linearGradient
       id="a"
       x2="1"
       gradientTransform="matrix(0,-24.205325,24.205325,0,677.9578,44.069903)"
       gradientUnits="userSpaceOnUse">
      <stop
         stop-color="#006783"
         offset="0"
         id="stop1" />
      <stop
         stop-color="#13bee3"
         offset="1"
         id="stop2-6" />
    </linearGradient>
  </defs>
  <circle
     cx="32.516094"
     cy="31.877844"
     r="0"
     fill="url(#b)"
     stroke-width="1.5715"
     id="circle41"
     style="fill:url(#b)" />
  <g
     aria-label="GZ"
     transform="matrix(1.2212657,0,0,0.81882264,0.4960938,-0.1661539)"
     id="text93"
     style="font-weight:bold;font-size:11.5263px;line-height:1.25;font-family:sans-serif;-inkscape-font-specification:'sans-serif Bold';fill:#f2f2f2;stroke-width:0.288159" />
  <g
     id="g877"
     transform="matrix(1.1,0,0,1.1,-3.1845928,-3.2065454)">
    <rect
       x="6.3010068"
       y="5.4939413"
       width="51.635597"
       height="53.148327"
       rx="10.980581"
       ry="10.720582"
       fill="url(#linearGradient862)"
       stroke-width="3.0541"
       id="rect35-7-3"
       style="fill:#414141;fill-opacity:1;stroke:#dfdfdf;stroke-width:2.27272727;stroke-dasharray:none;stroke-opacity:1" />
    <path
       id="path11"
       style="fill:#dfdfdf;fill-opacity:1;stroke:none;stroke-width:0.252189;stroke-opacity:1"
       d="m 32.836142,10.873305 c -0.0067,0.01362 0.0048,0.05728 0.04159,0.142984 0.44948,1.044952 0.48921,1.899863 0.127377,2.682797 -0.150549,0.325769 -0.206331,0.638925 -0.249563,1.388192 -0.06504,1.126929 -0.161165,1.334801 -0.753886,1.635155 -0.818405,0.414719 -2.552486,0.803279 -3.592658,0.803279 -0.670805,0 -1.266651,-0.19718 -2.417639,-0.798081 -0.730438,-0.38134 -0.961309,-0.462729 -1.307601,-0.462729 h -0.421141 l 0.41334,0.397739 c 0.499768,0.484661 0.677812,0.961357 0.499125,1.3258 -0.06326,0.129041 -0.169806,0.261639 -0.239165,0.293758 -0.671154,0.310808 -1.123839,0.605756 -2.295454,1.489574 -0.748591,0.564705 -1.475655,1.125974 -1.614358,1.247813 l -0.252163,0.220968 0.519923,-0.04939 c 0.707214,-0.06598 1.23301,-0.281643 2.170675,-0.889068 1.057174,-0.68484 1.731491,-0.931843 2.690594,-0.98785 0.680306,-0.03973 0.778078,-0.02618 0.977454,0.132581 0.482777,0.384436 0.35513,0.854032 -0.642104,2.376042 -0.301003,0.4594 -0.545918,0.854028 -0.545918,0.876068 0,0.08358 1.416244,-0.670416 2.069289,-1.102233 0.374939,-0.247923 0.89183,-0.661984 1.151627,-0.917664 0.3818,-0.375744 0.526401,-0.46226 0.748688,-0.46013 0.445959,0.0044 0.738288,0.332953 0.738288,0.831875 0,0.819892 1.160821,3.099391 2.045894,4.018997 0.189586,0.196982 0.368046,0.349929 0.397741,0.337948 0.115192,-0.04673 0.741946,-0.827979 1.117831,-1.39339 0.659791,-0.992466 1.066403,-1.953919 1.136028,-2.682797 0.04947,-0.517852 0.09695,-0.665104 0.254763,-0.79288 0.331139,-0.26814 0.590526,-0.191283 1.757335,0.514722 1.538706,0.93103 2.115583,1.330589 3.743437,2.59701 0.779393,0.606342 1.452624,1.08149 1.494776,1.055443 0.123278,-0.07619 0.461483,-0.794549 0.60831,-1.289407 0.156418,-0.527187 0.179079,-1.787432 0.04159,-2.360447 -0.220286,-0.918102 -0.0037,-1.260152 0.80328,-1.266008 l 0.509523,-0.0026 -0.335351,-0.176773 C 43.61498,19.28731 41.23719,18.366257 40.159227,18.03528 c -1.342442,-0.412185 -2.793445,-0.656192 -4.494723,-0.753887 -1.483989,-0.08522 -1.583408,-0.119815 -2.001698,-0.73049 -0.525336,-0.766936 -0.700696,-1.960747 -0.439335,-2.99215 0.216546,-0.854528 0.201022,-1.680958 -0.04419,-2.191472 -0.139778,-0.291005 -0.323112,-0.534916 -0.343153,-0.493925 z m -7.512871,10.037092 c -0.04504,-0.04504 -0.744667,0.346569 -1.66375,0.933259 -0.687283,0.438729 -1.229045,0.622736 -2.204468,0.748688 l -0.748688,0.09878 -0.330149,0.418536 c -0.613136,0.775678 -1.26441,2.29098 -1.619558,3.769433 -0.773704,3.220887 -0.173933,6.944698 1.874319,11.620255 1.077057,2.458606 4.714182,9.506186 5.503373,10.663598 0.617063,0.904963 2.073367,2.408692 2.810178,2.901164 0.767605,0.513057 1.631204,0.922034 2.318851,1.102233 0.756578,0.198267 2.022462,0.217654 2.698394,0.04159 1.164068,-0.303197 2.569578,-1.20805 3.844824,-2.474827 1.166158,-1.158416 1.670936,-1.85764 3.272908,-4.541518 0.73208,-1.226496 1.6878,-2.77668 2.12648,-3.447081 2.489301,-3.804232 2.675215,-4.130736 3.246912,-5.672348 0.757536,-2.042719 1.084932,-3.512886 1.151626,-5.173222 0.08227,-2.047707 -0.186177,-3.451276 -0.972252,-5.084836 -0.475909,-0.988993 -1.159873,-2.159313 -1.689748,-2.888168 l -0.267757,-0.369142 -0.194973,0.556315 c -0.329914,0.944152 -0.948153,1.887185 -1.390791,2.116082 -0.533893,0.276088 -0.736078,0.193357 -2.030294,-0.818876 -1.859765,-1.454554 -3.07752,-2.346256 -3.751237,-2.745185 -0.338739,-0.200579 -0.628035,-0.351069 -0.642103,-0.335349 -0.01406,0.01573 -0.167957,0.364593 -0.34315,0.774684 -0.450563,1.054671 -1.484432,2.578654 -2.214866,3.267709 -0.66016,0.62276 -0.892234,0.691945 -1.484377,0.444532 -0.900179,-0.376117 -2.156554,-2.136673 -3.044142,-4.263359 l -0.09358,-0.223566 -0.699295,0.46273 c -0.749161,0.495875 -2.282672,1.273624 -2.968754,1.505173 -0.231172,0.07802 -0.65891,0.144785 -0.951457,0.150778 -0.500445,0.01023 -0.546132,-0.0042 -0.777283,-0.26256 -0.40301,-0.450335 -0.321559,-0.725016 0.675897,-2.290255 0.330805,-0.51911 0.582157,-0.962015 0.558918,-0.985253 z m 0.129986,6.977352 c 0.04609,4.7e-4 0.09199,0.0067 0.137786,0.01819 0.332534,0.08347 0.816942,0.641252 1.034644,1.193221 0.288217,0.73075 0.28264,1.847689 -0.01305,2.422837 -0.118325,0.230196 -0.342167,0.504275 -0.496525,0.608308 -0.195173,0.131568 -0.405315,0.189774 -0.688857,0.189774 -0.349188,0 -0.454251,-0.04235 -0.738289,-0.298954 -0.434738,-0.392764 -0.636701,-0.926254 -0.634305,-1.676751 0.0041,-1.268858 0.707208,-2.463688 1.398591,-2.45663 z m 14.357643,0.0079 c 0.350305,-0.02515 0.656723,0.140729 1.008647,0.52252 0.489857,0.53143 0.697118,1.036635 0.74349,1.819728 0.03446,0.581983 0.01465,0.699892 -0.192371,1.12303 -0.17047,0.348429 -0.332552,0.535069 -0.616108,0.714892 -0.771027,0.488975 -1.877011,0.239273 -2.352646,-0.530319 -0.701995,-1.135856 -0.124422,-3.116828 1.039844,-3.561463 0.129599,-0.0495 0.252376,-0.08 0.369144,-0.0884 z m -9.57956,4.731287 c 0.900275,-0.07548 1.863026,1.151029 1.86652,2.467031 0.0022,0.83884 -0.319668,1.450354 -0.925462,1.757335 -1.43546,0.72741 -2.87928,-0.550039 -2.534619,-2.240863 0.197554,-0.969152 0.77546,-1.769121 1.414187,-1.952305 0.05918,-0.01697 0.119355,-0.02617 0.179374,-0.0312 z m 11.006745,2.999951 c 0.118786,0.0081 0.242889,0.03979 0.376944,0.09097 0.45043,0.172022 0.835667,0.586786 1.133429,1.221818 0.178315,0.380295 0.218315,0.590023 0.218369,1.138629 7.4e-5,0.784745 -0.201016,1.237552 -0.740889,1.671549 -0.272583,0.219124 -0.401925,0.262438 -0.881267,0.285956 -0.822752,0.04037 -1.300159,-0.255524 -1.666352,-1.032045 -0.39103,-0.829202 -0.164995,-2.042889 0.522523,-2.807579 0.3744,-0.416414 0.680867,-0.593547 1.037243,-0.569314 z m -5.155027,4.271157 c 0.177067,0.0073 0.308403,0.07322 0.571917,0.252163 0.70161,0.476448 1.221844,1.69392 1.089235,2.552817 -0.07765,0.502959 -0.432708,1.096589 -0.808477,1.356995 -0.419097,0.290433 -1.222766,0.366749 -1.619557,0.153378 -0.697287,-0.374958 -1.070765,-1.018616 -1.065841,-1.837925 0.0075,-1.237223 0.757304,-2.36896 1.635155,-2.467027 0.07563,-0.0084 0.138548,-0.01278 0.197568,-0.01045 z m -8.365541,1.910715 c 0.200547,-0.01056 0.404939,0.08425 0.631705,0.283357 0.407506,0.357798 0.616445,0.832272 0.618706,1.408989 0.0025,0.619895 -0.202318,0.998505 -0.673297,1.240013 -0.480684,0.246429 -0.762903,0.226553 -1.195821,-0.08065 -0.712442,-0.505547 -0.707677,-1.748571 0.01045,-2.503423 0.211347,-0.222175 0.407761,-0.337787 0.608306,-0.348348 z" />
  </g>
</svg>
