<?xml version="1.0" encoding="UTF-8" standalone="no"?>
<svg
   width="64"
   height="64"
   version="1.1"
   id="svg73"
   sodipodi:docname="accessories-text-editor.svg"
   inkscape:version="1.4.2 (ebf0e940d0, 2025-05-08)"
   xmlns:inkscape="http://www.inkscape.org/namespaces/inkscape"
   xmlns:sodipodi="http://sodipodi.sourceforge.net/DTD/sodipodi-0.dtd"
   xmlns="http://www.w3.org/2000/svg"
   xmlns:svg="http://www.w3.org/2000/svg"
   xmlns:rdf="http://www.w3.org/1999/02/22-rdf-syntax-ns#"
   xmlns:cc="http://creativecommons.org/ns#"
   xmlns:dc="http://purl.org/dc/elements/1.1/">
  <metadata
     id="metadata77">
    <rdf:RDF>
      <cc:Work
         rdf:about="">
        <dc:format>image/svg+xml</dc:format>
        <dc:type
           rdf:resource="http://purl.org/dc/dcmitype/StillImage" />
      </cc:Work>
    </rdf:RDF>
  </metadata>
  <sodipodi:namedview
     pagecolor="#f5f7fa"
     bordercolor="#666666"
     borderopacity="1"
     objecttolerance="10"
     gridtolerance="10"
     guidetolerance="10"
     inkscape:pageopacity="0"
     inkscape:pageshadow="2"
     inkscape:window-width="1377"
     inkscape:window-height="886"
     id="namedview75"
     showgrid="false"
     inkscape:zoom="6.2890624"
     inkscape:cx="47.622361"
     inkscape:cy="45.396274"
     inkscape:window-x="264"
     inkscape:window-y="75"
     inkscape:window-maximized="0"
     inkscape:current-layer="g877"
     inkscape:document-rotation="0"
     inkscape:pagecheckerboard="0"
     inkscape:showpageshadow="2"
     inkscape:deskcolor="#d1d1d1" />
  <defs
     id="defs29" />
  <circle
     cx="32.516094"
     cy="31.877844"
     r="0"
     fill="url(#b)"
     stroke-width="1.5715"
     id="circle41"
     style="fill:url(#b)" />
  <g
     aria-label="GZ"
     transform="matrix(1.2212657,0,0,0.81882264,0.4960938,-0.1661539)"
     id="text93"
     style="font-weight:bold;font-size:11.5263px;line-height:1.25;font-family:sans-serif;-inkscape-font-specification:'sans-serif Bold';fill:#f2f2f2;stroke-width:0.288159" />
  <g
     id="g877"
     transform="matrix(1.1,0,0,1.1,-3.1845928,-3.2065454)">
    <rect
       x="8.3496294"
       y="8.369586"
       width="47.272728"
       height="47.272728"
       rx="9.8825235"
       ry="9.6485243"
       fill="url(#linearGradient862)"
       stroke-width="3.0541"
       id="rect35-7-3"
       style="fill:#414141;fill-opacity:1;stroke:#dfdfdf;stroke-width:2.04545;stroke-dasharray:none;stroke-opacity:1" />
    <path
       style="fill:#dfdfdf;stroke-width:0.225936;fill-opacity:1"
       d="m 32.322329,47.046746 c -1.598365,-0.812594 -1.871624,-2.353819 -0.855192,-4.823408 0.963502,-2.340984 0.621109,-3.121367 -1.883182,-4.292135 -0.643496,-0.300835 -1.170046,-0.605847 -1.170104,-0.677804 -6.5e-5,-0.07197 0.889558,-0.100265 1.976936,-0.06293 1.806464,0.06203 2.568817,-0.05794 4.700356,-0.739753 0.389396,-0.124555 0.561858,0.0451 1.073193,1.05574 0.697768,1.379114 0.772701,2.556293 0.208831,3.280732 -0.214697,0.27582 -1.123082,0.857002 -2.01863,1.291477 -2.396173,1.162491 -3.002276,2.648634 -1.637009,4.013902 0.615,0.614999 0.797462,0.676321 1.707207,0.573783 0.939086,-0.105842 0.982141,-0.08926 0.551462,0.212375 -0.724422,0.507402 -1.846538,0.578439 -2.653866,0.167996 z M 27.694178,35.391481 c -0.886073,-0.194966 -1.097889,-0.345405 -1.299129,-0.922679 -0.273494,-0.784545 -0.317121,-2.87397 -0.06754,-3.234193 0.09129,-0.131764 0.877689,-0.347492 1.74754,-0.479396 0.869852,-0.131909 2.067413,-0.468774 2.661243,-0.748594 l 1.079694,-0.508766 1.304907,0.585607 c 0.717698,0.322082 1.878088,0.652972 2.578644,0.735307 l 1.27374,0.149704 -0.647222,0.817693 c -0.355973,0.449731 -0.760652,1.249717 -0.899288,1.777744 -0.378488,1.441539 -1.466781,1.936209 -4.414557,2.006586 -1.242644,0.02967 -2.735764,-0.05091 -3.318044,-0.179013 z M 24.50162,29.689257 c -1.731612,-0.639658 -2.154573,-1.592842 -1.316565,-2.967017 0.561882,-0.921383 2.677746,-2.004237 4.847388,-2.480789 2.547152,-0.559468 7.119577,-0.386163 9.291822,0.352177 3.718247,1.263826 5.058474,3.658245 2.713073,4.847131 -1.213268,0.615007 -4.482363,0.635493 -6.03147,0.03778 -0.590259,-0.227739 -1.073195,-0.498263 -1.073195,-0.601167 0,-0.169156 0.968344,-0.673625 2.485294,-1.29474 0.545178,-0.223224 0.52945,-0.241191 -0.451874,-0.516271 -1.213732,-0.340228 -4.626809,-0.361248 -5.422452,-0.0334 -0.454124,0.187127 -0.18841,0.236232 1.355614,0.250529 1.056248,0.0098 2.049036,0.0994 2.206187,0.199157 0.188742,0.11981 -0.451264,0.559619 -1.885447,1.295668 -2.015375,1.034331 -2.303412,1.118426 -4.013675,1.17186 -1.163525,0.03636 -2.160216,-0.05981 -2.7047,-0.260939 z m 6.139176,-6.791574 c -0.693572,-0.391603 -1.110872,-1.388073 -0.862483,-2.059535 0.472368,-1.276932 2.628365,-1.63901 3.814833,-0.640662 0.834927,0.702546 0.892153,1.420194 0.179329,2.248899 -0.637843,0.74154 -2.21507,0.968832 -3.131679,0.451298 z m 3.543875,-3.274784 C 33.25556,18.59624 31.27256,18.477287 30.01497,19.372772 c -0.849592,0.604962 -1.103479,0.587193 -1.41618,-0.09912 -0.375578,-0.824305 0.0409,-1.544728 1.224124,-2.11752 1.632149,-0.790112 3.965773,-0.529569 5.191394,0.579605 0.522961,0.473273 0.517033,1.478244 -0.01155,1.956597 -0.388516,0.351604 -0.441088,0.34714 -0.818095,-0.06944 z"
       id="path1" />
  </g>
</svg>
