<?xml version="1.0" encoding="UTF-8" standalone="no"?>
<svg
   width="64"
   height="64"
   version="1.1"
   id="svg73"
   sodipodi:docname="hwloc.svg"
   inkscape:version="1.3.2 (091e20ef0f, 2023-11-25)"
   xmlns:inkscape="http://www.inkscape.org/namespaces/inkscape"
   xmlns:sodipodi="http://sodipodi.sourceforge.net/DTD/sodipodi-0.dtd"
   xmlns="http://www.w3.org/2000/svg"
   xmlns:svg="http://www.w3.org/2000/svg"
   xmlns:rdf="http://www.w3.org/1999/02/22-rdf-syntax-ns#"
   xmlns:cc="http://creativecommons.org/ns#"
   xmlns:dc="http://purl.org/dc/elements/1.1/">
  <metadata
     id="metadata77">
    <rdf:RDF>
      <cc:Work
         rdf:about="">
        <dc:format>image/svg+xml</dc:format>
        <dc:type
           rdf:resource="http://purl.org/dc/dcmitype/StillImage" />
      </cc:Work>
    </rdf:RDF>
  </metadata>
  <sodipodi:namedview
     pagecolor="#f5f7fa"
     bordercolor="#666666"
     borderopacity="1"
     objecttolerance="10"
     gridtolerance="10"
     guidetolerance="10"
     inkscape:pageopacity="0"
     inkscape:pageshadow="2"
     inkscape:window-width="1377"
     inkscape:window-height="886"
     id="namedview75"
     showgrid="false"
     inkscape:zoom="4.4470387"
     inkscape:cx="47.784608"
     inkscape:cy="14.054296"
     inkscape:window-x="181"
     inkscape:window-y="77"
     inkscape:window-maximized="0"
     inkscape:current-layer="g877"
     inkscape:document-rotation="0"
     inkscape:pagecheckerboard="0"
     inkscape:showpageshadow="2"
     inkscape:deskcolor="#d1d1d1" />
  <defs
     id="defs29">
    <linearGradient
       id="b"
       x1="399.57"
       x2="399.57"
       y1="545.8"
       y2="517.8"
       gradientTransform="matrix(2.1429,0,0,2.1429,-825.86391,-1107.6662)"
       gradientUnits="userSpaceOnUse">
      <stop
         stop-color="#3889e9"
         offset="0"
         id="stop2" />
      <stop
         stop-color="#5ea5fb"
         offset="1"
         id="stop4" />
    </linearGradient>
    <linearGradient
       id="d"
       x2="1"
       gradientTransform="matrix(14.905727,-4.7106182,4.7106182,14.905727,322.04962,998.26962)"
       gradientUnits="userSpaceOnUse">
      <stop
         stop-color="#fafafa"
         offset="0"
         id="stop7" />
      <stop
         stop-color="#aaa"
         offset="1"
         id="stop8" />
    </linearGradient>
    <linearGradient
       id="e"
       x2="1"
       gradientTransform="matrix(21.439909,0,0,21.439909,26.63554,1159.7788)"
       gradientUnits="userSpaceOnUse">
      <stop
         stop-color="#f0f0f0"
         offset="0"
         id="stop9" />
      <stop
         stop-color="#b7f1ff"
         offset="1"
         id="stop10" />
    </linearGradient>
  </defs>
  <circle
     cx="32.516094"
     cy="31.877844"
     r="0"
     fill="url(#b)"
     stroke-width="1.5715"
     id="circle41"
     style="fill:url(#b)" />
  <g
     aria-label="GZ"
     transform="matrix(1.2212657,0,0,0.81882264,0.4960938,-0.1661539)"
     id="text93"
     style="font-weight:bold;font-size:11.5263px;line-height:1.25;font-family:sans-serif;-inkscape-font-specification:'sans-serif Bold';fill:#f2f2f2;stroke-width:0.288159" />
  <g
     id="g877"
     transform="matrix(1.1,0,0,1.1,-3.1845928,-3.2065454)">
    <rect
       x="6.3010068"
       y="5.4939413"
       width="51.635597"
       height="53.148327"
       rx="10.980581"
       ry="10.720582"
       fill="url(#linearGradient862)"
       stroke-width="3.0541"
       id="rect35-7-3"
       style="fill:#414141;fill-opacity:1;stroke:#dfdfdf;stroke-width:2.27272727;stroke-dasharray:none;stroke-opacity:1" />
    <path
       id="path8"
       style="fill:#dfdfdf;fill-opacity:1;stroke-width:0.196549;stroke-opacity:0.3"
       d="m 33.192046,13.391087 c -2.107562,-0.02611 -4.225913,0.31539 -6.307604,1.023299 -2.145413,0.729583 -4.407103,1.951832 -5.688424,3.076994 l -0.864961,0.760974 2.83358,0.007 c 2.598039,0.0077 2.940444,-0.0323 4.100292,-0.496288 2.002895,-0.801278 4.149259,-1.130522 6.529752,-1.002032 2.529526,0.136533 3.89851,0.491985 6.191798,1.607033 3.964102,1.927433 6.803694,5.30125 8.186409,9.727266 0.39701,1.270814 0.460841,1.882434 0.460841,4.424061 0,2.54163 -0.06386,3.150886 -0.460841,4.4217 -1.38297,4.426812 -4.197405,7.776556 -8.186409,9.741446 -2.651585,1.306112 -3.820408,1.559332 -7.174923,1.552678 -2.69622,-0.0055 -2.948836,-0.03979 -4.693483,-0.642811 -1.79962,-0.621853 -1.913752,-0.636534 -4.762012,-0.583734 l -2.918656,0.05436 1.072932,0.786973 c 2.411249,1.765643 5.227343,2.982818 8.221859,3.554373 1.951568,0.372497 5.868228,0.230494 7.824829,-0.283592 3.367186,-0.884685 6.155053,-2.463193 8.689788,-4.92035 C 55.812442,36.927495 53.207747,21.08471 41.165755,15.29819 38.59407,14.06242 35.901756,13.424604 33.192046,13.391023 Z m -19.213492,9.202615 -0.508104,0.605002 c -0.50243,0.597105 -0.51047,0.645193 -0.51047,3.84742 v 3.242422 l 0.57428,0.574279 0.574277,0.574278 4.880178,-0.0046 c 6.388266,-0.0057 6.158712,0.16011 6.158712,-4.414609 0,-3.034845 -0.17717,-3.796912 -0.973669,-4.223184 -0.230405,-0.123305 -2.295537,-0.20088 -5.286663,-0.20088 z m 14.281319,0 -0.57428,0.574278 -0.574277,0.574277 v 3.273146 3.273143 l 0.574277,0.574279 0.57428,0.574278 h 4.887268 c 5.335208,0 5.477172,-0.02808 5.941289,-1.148557 0.161942,-0.390999 0.218011,-1.558169 0.174884,-3.660721 l -0.0638,-3.086445 -0.550643,-0.47502 c -0.551011,-0.473498 -0.55719,-0.472658 -5.471,-0.472658 z m 4.951078,11.005802 c -5.215932,0 -5.643843,0.08004 -6.085453,1.146191 -0.162399,0.392035 -0.218011,1.547958 -0.174884,3.625274 0.07001,3.373712 0.179776,3.689865 1.422697,4.067209 0.333119,0.101123 2.62455,0.165829 5.092873,0.144151 l 4.487873,-0.04025 0.574277,-0.640446 0.574275,-0.642817 v -3.254162 -3.256601 l -0.576636,-0.574277 -0.57428,-0.574278 z m -12.523039,0.02598 c -0.623709,-0.0014 -1.348635,0.0037 -2.186033,0.01418 -6.101136,0.07623 -5.615392,-0.287122 -5.700239,4.258633 l -0.06379,3.30623 0.512836,0.607365 c 0.28103,0.333989 0.751172,0.643055 1.044569,0.687713 0.293377,0.04481 2.302214,0.09548 4.464242,0.11109 6.194285,0.04481 6.189437,0.0461 6.189437,-4.42879 0,-3.359585 -0.156728,-3.961411 -1.13674,-4.367345 -0.299552,-0.124062 -1.253127,-0.184474 -3.124259,-0.189061 z" />
  </g>
</svg>
