<?xml version="1.0" encoding="UTF-8" standalone="no"?>
<svg
   width="64"
   height="64"
   version="1.1"
   id="svg73"
   sodipodi:docname="audacious.svg"
   inkscape:version="1.4.2 (ebf0e940d0, 2025-05-08)"
   xmlns:inkscape="http://www.inkscape.org/namespaces/inkscape"
   xmlns:sodipodi="http://sodipodi.sourceforge.net/DTD/sodipodi-0.dtd"
   xmlns="http://www.w3.org/2000/svg"
   xmlns:svg="http://www.w3.org/2000/svg"
   xmlns:rdf="http://www.w3.org/1999/02/22-rdf-syntax-ns#"
   xmlns:cc="http://creativecommons.org/ns#"
   xmlns:dc="http://purl.org/dc/elements/1.1/">
  <metadata
     id="metadata77">
    <rdf:RDF>
      <cc:Work
         rdf:about="">
        <dc:format>image/svg+xml</dc:format>
        <dc:type
           rdf:resource="http://purl.org/dc/dcmitype/StillImage" />
      </cc:Work>
    </rdf:RDF>
  </metadata>
  <sodipodi:namedview
     pagecolor="#f5f7fa"
     bordercolor="#666666"
     borderopacity="1"
     objecttolerance="10"
     gridtolerance="10"
     guidetolerance="10"
     inkscape:pageopacity="0"
     inkscape:pageshadow="2"
     inkscape:window-width="1377"
     inkscape:window-height="886"
     id="namedview75"
     showgrid="false"
     inkscape:zoom="6.2890624"
     inkscape:cx="46.986336"
     inkscape:cy="44.601243"
     inkscape:window-x="264"
     inkscape:window-y="75"
     inkscape:window-maximized="0"
     inkscape:current-layer="g877"
     inkscape:document-rotation="0"
     inkscape:pagecheckerboard="0"
     inkscape:showpageshadow="2"
     inkscape:deskcolor="#d1d1d1" />
  <defs
     id="defs29" />
  <circle
     cx="32.516094"
     cy="31.877844"
     r="0"
     fill="url(#b)"
     stroke-width="1.5715"
     id="circle41"
     style="fill:url(#b)" />
  <g
     aria-label="GZ"
     transform="matrix(1.2212657,0,0,0.81882264,0.4960938,-0.1661539)"
     id="text93"
     style="font-weight:bold;font-size:11.5263px;line-height:1.25;font-family:sans-serif;-inkscape-font-specification:'sans-serif Bold';fill:#f2f2f2;stroke-width:0.288159" />
  <g
     id="g877"
     transform="matrix(1.1,0,0,1.1,-3.1845928,-3.2065454)">
    <rect
       x="8.3496294"
       y="8.369586"
       width="47.272728"
       height="47.272728"
       rx="9.8825235"
       ry="9.6485243"
       fill="url(#linearGradient862)"
       stroke-width="3.0541"
       id="rect35-7-3"
       style="fill:#414141;fill-opacity:1;stroke:#dfdfdf;stroke-width:2.04545;stroke-dasharray:none;stroke-opacity:1" />
    <path
       id="path59"
       style="fill:#dfdfdf;fill-opacity:1;stroke:none;stroke-width:0.496125;stroke-dasharray:none;stroke-opacity:0.6"
       d="m 39.015915,23.812525 c -1.178313,0.0075 -2.564406,0.288823 -3.639542,0.771318 l -1.341089,0.602715 -1.680236,-0.579457 c -4.085107,-1.409991 -9.583499,-0.72047 -12.598861,1.57946 -1.003105,0.765106 -1.980671,2.337309 -2.172485,3.494193 -0.08489,0.511991 -0.444654,1.327645 -0.798452,1.812018 -0.71139,0.973939 -0.802908,1.498547 -0.329457,1.891477 0.244898,0.203247 0.621972,0.134835 1.707366,-0.306202 1.640031,-0.666405 4.468737,-1.238374 6.116292,-1.238374 1.144266,0 1.183124,0.02118 1.804267,1.003877 1.043511,1.650878 2.392607,2.331591 5.732571,2.891478 1.218972,0.204341 1.077614,-0.302081 -0.296513,-1.060079 -0.804615,-0.443842 -1.22165,-0.849816 -1.459306,-1.418606 -0.180257,-0.431421 -0.277286,-0.837017 -0.218993,-0.910856 l 0.002,-0.002 c 0.205906,-0.171545 3.685569,0.753274 5.604662,1.49225 0.951642,0.366448 2.332544,1.023232 3.067838,1.461244 0.712313,0.424323 1.350278,0.724093 1.449613,0.682171 l 0.002,-0.002 h 0.002 l 0.002,-0.002 0.002,-0.002 c 0.3425,-0.342501 -2.86957,-2.903594 -4.974817,-3.967061 -3.362265,-1.698454 -6.341459,-2.295085 -10.606608,-2.122099 -1.551485,0.06292 -2.794914,0.03223 -2.889543,-0.06782 l -0.002,-0.002 v -0.002 l -0.002,-0.002 v -0.002 -0.002 l -0.002,-0.002 c 0,-0.10843 0.396104,-0.593779 0.879848,-1.077521 1.225606,-1.225606 3.143428,-1.796515 6.021329,-1.796515 3.496938,0 6.303917,0.665249 9.277147,2.199617 2.696142,1.391368 6.916516,5.804084 9.046526,9.457382 0.510099,0.87489 0.96831,1.566004 1.062029,1.610469 l 0.002,0.002 h 0.002 0.002 0.002 0.002 0.002 l 0.002,-0.002 0.002,-0.002 c 0.139351,-0.204976 -1.138123,-3.140504 -2.135935,-4.898947 -1.461157,-2.57502 -3.126469,-4.678904 -5.168614,-6.529082 -0.983304,-0.890874 -1.853786,-1.826387 -1.934112,-2.079461 -0.185414,-0.584224 0.35088,-1.193015 1.490312,-1.695739 1.076767,-0.475064 1.098487,-0.897493 0.05619,-1.093026 -0.327327,-0.06141 -0.698312,-0.08973 -1.091084,-0.08721 z" />
  </g>
</svg>
