<?xml version="1.0" encoding="UTF-8" standalone="no"?>
<svg
   width="64"
   height="64"
   version="1.1"
   id="svg73"
   sodipodi:docname="partitionmanager.svg"
   inkscape:version="1.4.2 (ebf0e940d0, 2025-05-08)"
   xmlns:inkscape="http://www.inkscape.org/namespaces/inkscape"
   xmlns:sodipodi="http://sodipodi.sourceforge.net/DTD/sodipodi-0.dtd"
   xmlns="http://www.w3.org/2000/svg"
   xmlns:svg="http://www.w3.org/2000/svg"
   xmlns:rdf="http://www.w3.org/1999/02/22-rdf-syntax-ns#"
   xmlns:cc="http://creativecommons.org/ns#"
   xmlns:dc="http://purl.org/dc/elements/1.1/">
  <metadata
     id="metadata77">
    <rdf:RDF>
      <cc:Work
         rdf:about="">
        <dc:format>image/svg+xml</dc:format>
        <dc:type
           rdf:resource="http://purl.org/dc/dcmitype/StillImage" />
      </cc:Work>
    </rdf:RDF>
  </metadata>
  <sodipodi:namedview
     pagecolor="#f5f7fa"
     bordercolor="#666666"
     borderopacity="1"
     objecttolerance="10"
     gridtolerance="10"
     guidetolerance="10"
     inkscape:pageopacity="0"
     inkscape:pageshadow="2"
     inkscape:window-width="1377"
     inkscape:window-height="886"
     id="namedview75"
     showgrid="false"
     inkscape:zoom="6.2890624"
     inkscape:cx="28.700622"
     inkscape:cy="17.570187"
     inkscape:window-x="264"
     inkscape:window-y="102"
     inkscape:window-maximized="0"
     inkscape:current-layer="g877"
     inkscape:document-rotation="0"
     inkscape:pagecheckerboard="0"
     inkscape:showpageshadow="2"
     inkscape:deskcolor="#d1d1d1" />
  <defs
     id="defs29" />
  <circle
     cx="32.516094"
     cy="31.877844"
     r="0"
     fill="url(#b)"
     stroke-width="1.5715"
     id="circle41"
     style="fill:url(#b)" />
  <g
     aria-label="GZ"
     transform="matrix(1.2212657,0,0,0.81882264,0.4960938,-0.1661539)"
     id="text93"
     style="font-weight:bold;font-size:11.5263px;line-height:1.25;font-family:sans-serif;-inkscape-font-specification:'sans-serif Bold';fill:#f2f2f2;stroke-width:0.288159" />
  <g
     id="g877"
     transform="matrix(1.1,0,0,1.1,-3.1845928,-3.2065454)">
    <rect
       x="8.3496294"
       y="8.369586"
       width="47.272728"
       height="47.272728"
       rx="9.8825235"
       ry="9.6485243"
       fill="url(#linearGradient862)"
       stroke-width="3.0541"
       id="rect35-7-3"
       style="fill:#414141;fill-opacity:1;stroke:#dfdfdf;stroke-width:2.04545;stroke-dasharray:none;stroke-opacity:1" />
    <path
       style="color:#444444;fill:#dfdfdf;fill-opacity:1;stroke:none;stroke-width:0.482482;stroke-dasharray:none;stroke-opacity:0.6"
       class="ColorScheme-Text"
       d="m 20.888342,19.89942 c 0,0 -4.035513,0 -4.035513,4.035509 v 16.142039 c 0,4.035511 4.035513,4.035511 4.035513,4.035511 h 22.195307 c 0,0 4.035509,0 4.035509,-4.035511 V 23.934929 c 0,-4.035509 -4.035509,-4.035509 -4.035509,-4.035509 z m 0.504439,4.035509 h 3.026633 c 0.279455,0 0.504434,0.224982 0.504434,0.504441 v 3.026631 c 0,0.279456 -0.224978,0.50444 -0.504434,0.50444 h -3.026633 c -0.279457,0 -0.504439,-0.224985 -0.504439,-0.50444 V 24.43937 c 0,-0.279448 0.224978,-0.504441 0.504439,-0.504441 z m 6.053264,0 h 3.026632 c 0.279453,0 0.50444,0.224982 0.50444,0.504441 v 3.026631 c 0,0.279456 -0.224982,0.50444 -0.50444,0.50444 h -3.026632 c -0.279459,0 -0.50444,-0.224985 -0.50444,-0.50444 V 24.43937 c 0,-0.279448 0.224982,-0.504441 0.50444,-0.504441 z m 6.053264,0 h 3.026632 c 0.279471,0 0.504444,0.224982 0.504444,0.504441 v 3.026631 c 0,0.279456 -0.224999,0.50444 -0.504444,0.50444 h -3.026632 c -0.279447,0 -0.504438,-0.224985 -0.504438,-0.50444 V 24.43937 c 0,-0.279448 0.224982,-0.504441 0.504438,-0.504441 z m 6.05327,0 h 3.026629 c 0.279499,0 0.504441,0.224982 0.504441,0.504441 v 3.026631 c 0,0.279456 -0.225001,0.50444 -0.504441,0.50444 h -3.026629 c -0.279469,0 -0.504439,-0.224985 -0.504439,-0.50444 V 24.43937 c 0,-0.279448 0.225002,-0.504441 0.504439,-0.504441 z m -18.1598,6.05327 h 3.026635 c 0.279455,0 0.504434,0.22498 0.504434,0.504434 v 3.026631 c 0,0.279456 -0.224978,0.504441 -0.504434,0.504441 h -3.026635 c -0.279456,0 -0.504437,-0.224983 -0.504437,-0.504441 v -3.026631 c 0,-0.279456 0.224978,-0.504434 0.504437,-0.504434 z m 6.053266,0 h 3.026632 c 0.279453,0 0.50444,0.22498 0.50444,0.504434 v 3.026631 c 0,0.279456 -0.224982,0.504441 -0.50444,0.504441 h -3.026632 c -0.279459,0 -0.50444,-0.224983 -0.50444,-0.504441 v -3.026631 c 0,-0.279456 0.224982,-0.504434 0.50444,-0.504434 z m 6.053264,0 h 3.026632 c 0.279471,0 0.504444,0.22498 0.504444,0.504434 v 3.026631 c 0,0.279456 -0.224999,0.504441 -0.504444,0.504441 h -3.026632 c -0.279447,0 -0.504438,-0.224983 -0.504438,-0.504441 v -3.026631 c 0,-0.279456 0.224982,-0.504434 0.504438,-0.504434 z m 6.05327,0 h 3.026629 c 0.279499,0 0.504441,0.22498 0.504441,0.504434 v 3.026631 c 0,0.279456 -0.225001,0.504441 -0.504441,0.504441 h -3.026629 c -0.279469,0 -0.504439,-0.224983 -0.504439,-0.504441 v -3.026631 c 0,-0.279456 0.225002,-0.504434 0.504439,-0.504434 z m -14.124293,6.053259 h 13.115412 c 0.279407,0 0.504442,0.224964 0.504442,0.504437 v 3.026632 c 0,0.279408 -0.224999,0.504441 -0.504442,0.504441 H 25.428286 c -0.279451,0 -0.504438,-0.224999 -0.504438,-0.504441 v -3.026632 c 0,-0.279443 0.224987,-0.504437 0.504438,-0.504437 z"
       id="path5" />
  </g>
</svg>
