<?xml version="1.0" encoding="UTF-8" standalone="no"?>
<svg
   width="64"
   height="64"
   version="1.1"
   id="svg73"
   sodipodi:docname="hwloc.svg"
   inkscape:version="1.3.2 (091e20ef0f, 2023-11-25)"
   xmlns:inkscape="http://www.inkscape.org/namespaces/inkscape"
   xmlns:sodipodi="http://sodipodi.sourceforge.net/DTD/sodipodi-0.dtd"
   xmlns="http://www.w3.org/2000/svg"
   xmlns:svg="http://www.w3.org/2000/svg"
   xmlns:rdf="http://www.w3.org/1999/02/22-rdf-syntax-ns#"
   xmlns:cc="http://creativecommons.org/ns#"
   xmlns:dc="http://purl.org/dc/elements/1.1/">
  <metadata
     id="metadata77">
    <rdf:RDF>
      <cc:Work
         rdf:about="">
        <dc:format>image/svg+xml</dc:format>
        <dc:type
           rdf:resource="http://purl.org/dc/dcmitype/StillImage" />
      </cc:Work>
    </rdf:RDF>
  </metadata>
  <sodipodi:namedview
     pagecolor="#f5f7fa"
     bordercolor="#666666"
     borderopacity="1"
     objecttolerance="10"
     gridtolerance="10"
     guidetolerance="10"
     inkscape:pageopacity="0"
     inkscape:pageshadow="2"
     inkscape:window-width="1377"
     inkscape:window-height="886"
     id="namedview75"
     showgrid="false"
     inkscape:zoom="4.4470387"
     inkscape:cx="47.784608"
     inkscape:cy="14.054296"
     inkscape:window-x="181"
     inkscape:window-y="77"
     inkscape:window-maximized="0"
     inkscape:current-layer="g877"
     inkscape:document-rotation="0"
     inkscape:pagecheckerboard="0"
     inkscape:showpageshadow="2"
     inkscape:deskcolor="#d1d1d1" />
  <defs
     id="defs29">
    <linearGradient
       id="b"
       x1="399.57"
       x2="399.57"
       y1="545.8"
       y2="517.8"
       gradientTransform="matrix(2.1429,0,0,2.1429,-825.86391,-1107.6662)"
       gradientUnits="userSpaceOnUse">
      <stop
         stop-color="#3889e9"
         offset="0"
         id="stop2" />
      <stop
         stop-color="#5ea5fb"
         offset="1"
         id="stop4" />
    </linearGradient>
    <linearGradient
       id="d"
       x2="1"
       gradientTransform="matrix(14.905727,-4.7106182,4.7106182,14.905727,322.04962,998.26962)"
       gradientUnits="userSpaceOnUse">
      <stop
         stop-color="#fafafa"
         offset="0"
         id="stop7" />
      <stop
         stop-color="#aaa"
         offset="1"
         id="stop8" />
    </linearGradient>
    <linearGradient
       id="e"
       x2="1"
       gradientTransform="matrix(21.439909,0,0,21.439909,26.63554,1159.7788)"
       gradientUnits="userSpaceOnUse">
      <stop
         stop-color="#f0f0f0"
         offset="0"
         id="stop9" />
      <stop
         stop-color="#b7f1ff"
         offset="1"
         id="stop10" />
    </linearGradient>
  </defs>
  <circle
     cx="32.516094"
     cy="31.877844"
     r="0"
     fill="url(#b)"
     stroke-width="1.5715"
     id="circle41"
     style="fill:url(#b)" />
  <g
     aria-label="GZ"
     transform="matrix(1.2212657,0,0,0.81882264,0.4960938,-0.1661539)"
     id="text93"
     style="font-weight:bold;font-size:11.5263px;line-height:1.25;font-family:sans-serif;-inkscape-font-specification:'sans-serif Bold';fill:#f2f2f2;stroke-width:0.288159" />
  <g
     id="g877"
     transform="matrix(1.1,0,0,1.1,-3.1845928,-3.2065454)">
    <rect
       x="6.3010068"
       y="5.4939413"
       width="51.635597"
       height="53.148327"
       rx="10.980581"
       ry="10.720582"
       fill="url(#linearGradient862)"
       stroke-width="3.0541"
       id="rect35-7-3"
       style="fill:#414141;fill-opacity:1;stroke:#dfdfdf;stroke-width:2.27272727;stroke-dasharray:none;stroke-opacity:1" />
    <path
       id="path51393"
       style="fill:#dfdfdf;fill-opacity:1;stroke:none;stroke-width:1.089;stroke-dasharray:none;stroke-opacity:0.3"
       d="m 41.273022,21.25842 c -4.091328,-0.0069 -6.557922,2.294201 -7.552812,7.044469 -0.517021,2.468636 -0.510953,6.851158 0.01276,8.794951 0.741149,2.750822 2.319737,4.517249 4.400665,4.92815 1.693442,0.334352 3.76476,-0.314104 4.811169,-1.505881 1.315951,-1.498785 1.947955,-4.134218 1.586701,-6.612698 -0.244262,-1.675961 -0.799633,-2.824055 -1.82705,-3.771088 -0.873895,-0.805528 -1.670916,-1.086757 -3.062809,-1.08262 -1.287822,0.0038 -2.189982,0.450346 -3.169162,1.569693 l -0.814622,0.929478 v -0.803988 c 0,-1.204977 0.45538,-3.349962 0.925224,-4.358127 0.519475,-1.11466 1.354437,-1.96748 2.365174,-2.418345 0.91984,-0.410319 2.929356,-0.580153 3.851911,-0.325425 l 0.650841,0.178663 v -1.17833 c 0,-1.39044 0.0058,-1.385198 -2.177993,-1.388902 z m -16.220146,0.01705 c -0.145154,7.16e-4 -0.294077,0.0054 -0.44666,0.01276 -1.281417,0.06201 -1.655644,0.1541 -2.541709,0.629538 -0.571418,0.306611 -1.344745,0.818301 -1.720706,1.135794 l -0.684878,0.576419 0.572149,0.891193 c 0.314462,0.49004 0.623399,0.891193 0.687008,0.891193 0.0636,0 0.401832,-0.235572 0.750813,-0.52323 0.997813,-0.822483 1.996199,-1.201735 3.184049,-1.205982 1.927569,-0.0069 2.867721,1.061835 2.860753,3.252111 -0.0078,2.497209 -0.467743,3.251401 -6.236227,10.251913 l -1.922766,2.335394 v 1.169829 1.169818 h 5.627918 5.627918 v -1.299563 -1.297443 h -4.170955 c -2.411613,0 -4.146905,-0.06689 -4.113528,-0.157363 0.03172,-0.08606 1.071797,-1.341732 2.309871,-2.790564 4.604962,-5.388892 5.391863,-6.905054 5.249321,-10.107313 -0.05942,-1.335105 -0.145971,-1.718598 -0.57215,-2.49917 -0.928035,-1.699732 -2.282963,-2.446111 -4.460221,-2.435358 z M 12.33795,26.456689 c -0.270353,-0.0023 -0.558903,0.13564 -0.842274,0.419009 l -0.42539,0.425387 v 4.313461 c 0,4.101602 0.01609,4.33479 0.35733,4.768629 0.552344,0.702193 1.379083,0.588632 1.812164,-0.248851 0.369279,-0.71411 0.369279,-8.263758 0,-8.977868 -0.238392,-0.460983 -0.554227,-0.696854 -0.90183,-0.699756 z m 39.652781,0 c -0.270367,-0.0023 -0.558892,0.135636 -0.842272,0.419009 l -0.425386,0.425391 v 4.31346 c 0,4.101616 0.01787,4.33479 0.359422,4.768629 0.552349,0.702195 1.379071,0.588632 1.812157,-0.248851 0.369274,-0.714113 0.369274,-8.263754 0,-8.977867 -0.238375,-0.460999 -0.55632,-0.69687 -0.903933,-0.699771 z m -12.748948,4.843068 c 1.258219,0 2.005716,0.432315 2.548086,1.471852 0.305291,0.585141 0.361625,1.00193 0.361625,2.684214 0,1.858037 -0.03201,2.045015 -0.474311,2.796942 -0.328988,0.559633 -0.702337,0.915654 -1.222997,1.167701 -0.853722,0.413263 -1.703407,0.454825 -2.458757,0.119115 -1.912905,-0.850171 -2.922439,-4.585701 -1.769669,-6.546755 0.670066,-1.139891 1.655785,-1.693054 3.016023,-1.693054 z" />
  </g>
</svg>
