<?xml version="1.0" encoding="UTF-8" standalone="no"?>
<svg
   width="64"
   height="64"
   version="1.1"
   id="svg73"
   sodipodi:docname="hwloc.svg"
   inkscape:version="1.3.2 (091e20ef0f, 2023-11-25)"
   xmlns:inkscape="http://www.inkscape.org/namespaces/inkscape"
   xmlns:sodipodi="http://sodipodi.sourceforge.net/DTD/sodipodi-0.dtd"
   xmlns="http://www.w3.org/2000/svg"
   xmlns:svg="http://www.w3.org/2000/svg"
   xmlns:rdf="http://www.w3.org/1999/02/22-rdf-syntax-ns#"
   xmlns:cc="http://creativecommons.org/ns#"
   xmlns:dc="http://purl.org/dc/elements/1.1/">
  <metadata
     id="metadata77">
    <rdf:RDF>
      <cc:Work
         rdf:about="">
        <dc:format>image/svg+xml</dc:format>
        <dc:type
           rdf:resource="http://purl.org/dc/dcmitype/StillImage" />
      </cc:Work>
    </rdf:RDF>
  </metadata>
  <sodipodi:namedview
     pagecolor="#f5f7fa"
     bordercolor="#666666"
     borderopacity="1"
     objecttolerance="10"
     gridtolerance="10"
     guidetolerance="10"
     inkscape:pageopacity="0"
     inkscape:pageshadow="2"
     inkscape:window-width="1377"
     inkscape:window-height="886"
     id="namedview75"
     showgrid="false"
     inkscape:zoom="4.4470387"
     inkscape:cx="47.784608"
     inkscape:cy="14.054296"
     inkscape:window-x="181"
     inkscape:window-y="77"
     inkscape:window-maximized="0"
     inkscape:current-layer="g877"
     inkscape:document-rotation="0"
     inkscape:pagecheckerboard="0"
     inkscape:showpageshadow="2"
     inkscape:deskcolor="#d1d1d1" />
  <defs
     id="defs29">
    <linearGradient
       id="b"
       x1="399.57"
       x2="399.57"
       y1="545.8"
       y2="517.8"
       gradientTransform="matrix(2.1429,0,0,2.1429,-825.86391,-1107.6662)"
       gradientUnits="userSpaceOnUse">
      <stop
         stop-color="#3889e9"
         offset="0"
         id="stop2" />
      <stop
         stop-color="#5ea5fb"
         offset="1"
         id="stop4" />
    </linearGradient>
    <linearGradient
       id="d"
       x2="1"
       gradientTransform="matrix(14.905727,-4.7106182,4.7106182,14.905727,322.04962,998.26962)"
       gradientUnits="userSpaceOnUse">
      <stop
         stop-color="#fafafa"
         offset="0"
         id="stop7" />
      <stop
         stop-color="#aaa"
         offset="1"
         id="stop8" />
    </linearGradient>
    <linearGradient
       id="e"
       x2="1"
       gradientTransform="matrix(21.439909,0,0,21.439909,26.63554,1159.7788)"
       gradientUnits="userSpaceOnUse">
      <stop
         stop-color="#f0f0f0"
         offset="0"
         id="stop9" />
      <stop
         stop-color="#b7f1ff"
         offset="1"
         id="stop10" />
    </linearGradient>
  </defs>
  <circle
     cx="32.516094"
     cy="31.877844"
     r="0"
     fill="url(#b)"
     stroke-width="1.5715"
     id="circle41"
     style="fill:url(#b)" />
  <g
     aria-label="GZ"
     transform="matrix(1.2212657,0,0,0.81882264,0.4960938,-0.1661539)"
     id="text93"
     style="font-weight:bold;font-size:11.5263px;line-height:1.25;font-family:sans-serif;-inkscape-font-specification:'sans-serif Bold';fill:#f2f2f2;stroke-width:0.288159" />
  <g
     id="g877"
     transform="matrix(1.1,0,0,1.1,-3.1845928,-3.2065454)">
    <rect
       x="6.3010068"
       y="5.4939413"
       width="51.635597"
       height="53.148327"
       rx="10.980581"
       ry="10.720582"
       fill="url(#linearGradient862)"
       stroke-width="3.0541"
       id="rect35-7-3"
       style="fill:#414141;fill-opacity:1;stroke:#dfdfdf;stroke-width:2.27272727;stroke-dasharray:none;stroke-opacity:1" />
    <path
       id="path60"
       style="fill:#dfdfdf;fill-opacity:1;stroke:none;stroke-width:1.31769;stroke-dasharray:none;stroke-dashoffset:2.2;stroke-opacity:0.3"
       d="m 24.319542,14.894285 c -0.334939,-0.0037 -0.670326,0.02182 -1.003708,0.07977 -2.801168,0.486883 -4.985209,2.6292 -5.450914,5.347969 -0.557608,3.255297 1.974771,6.788289 5.275908,7.360534 2.712517,0.470207 5.564105,-1.031404 6.83037,-3.595337 0.550068,-1.11379 0.57134,-1.208125 0.57134,-2.74862 0,-1.481971 -0.03393,-1.670243 -0.483838,-2.619939 -1.093944,-2.309403 -3.394589,-3.798523 -5.739158,-3.824389 z m 19.016427,6.313072 c -2.192193,0.09664 -4.33027,1.593151 -4.954204,3.793506 l -0.247063,0.869883 -1.070624,0.0052 c -1.771698,0.0055 -3.149893,0.865432 -3.976236,2.480933 -0.5892,1.15189 -0.535978,2.248859 0.182728,3.664825 l 0.566195,1.114374 -0.944517,1.551888 c -3.516213,5.775482 -5.830557,9.496633 -5.906441,9.496633 -0.04872,0 -0.797468,-1.140706 -1.662557,-2.53501 -0.865085,-1.394309 -2.184627,-3.479883 -2.933916,-4.635075 l -1.364018,-2.100069 -0.277948,0.344863 c -0.523029,0.645914 -8.292182,13.280909 -8.292182,13.48573 0,0.06124 0.154989,0.138937 0.342288,0.174975 0.187296,0.03567 8.569977,0.07619 18.630388,0.08748 17.300286,0.01921 18.288141,0.0064 18.19287,-0.241882 -0.05536,-0.144391 -2.011916,-3.416893 -4.346833,-7.273028 -2.334904,-3.856114 -4.200328,-7.056636 -4.146093,-7.110872 0.05424,-0.05424 1.917839,-0.146845 4.140952,-0.205887 4.196216,-0.111453 4.57163,-0.168471 5.440616,-0.831277 0.982514,-0.749404 1.400876,-2.362281 0.875022,-3.379163 -0.349126,-0.675111 -1.429618,-1.514466 -2.082048,-1.618801 -0.317801,-0.05083 -0.626568,-0.169386 -0.687156,-0.262509 -0.0606,-0.09313 -0.148859,-0.891663 -0.195599,-1.773219 -0.07217,-1.36189 -0.143763,-1.703564 -0.478691,-2.275077 -0.526014,-0.897581 -1.779163,-2.047621 -2.648248,-2.432059 -0.68898,-0.304773 -1.425952,-0.428549 -2.156685,-0.396338 z" />
  </g>
</svg>
