<?xml version="1.0" encoding="UTF-8" standalone="no"?>
<svg
   width="64"
   height="64"
   version="1.1"
   id="svg73"
   sodipodi:docname="audacious.svg"
   inkscape:version="1.4.2 (ebf0e940d0, 2025-05-08)"
   xmlns:inkscape="http://www.inkscape.org/namespaces/inkscape"
   xmlns:sodipodi="http://sodipodi.sourceforge.net/DTD/sodipodi-0.dtd"
   xmlns="http://www.w3.org/2000/svg"
   xmlns:svg="http://www.w3.org/2000/svg"
   xmlns:rdf="http://www.w3.org/1999/02/22-rdf-syntax-ns#"
   xmlns:cc="http://creativecommons.org/ns#"
   xmlns:dc="http://purl.org/dc/elements/1.1/">
  <metadata
     id="metadata77">
    <rdf:RDF>
      <cc:Work
         rdf:about="">
        <dc:format>image/svg+xml</dc:format>
        <dc:type
           rdf:resource="http://purl.org/dc/dcmitype/StillImage" />
      </cc:Work>
    </rdf:RDF>
  </metadata>
  <sodipodi:namedview
     pagecolor="#f5f7fa"
     bordercolor="#666666"
     borderopacity="1"
     objecttolerance="10"
     gridtolerance="10"
     guidetolerance="10"
     inkscape:pageopacity="0"
     inkscape:pageshadow="2"
     inkscape:window-width="1377"
     inkscape:window-height="886"
     id="namedview75"
     showgrid="false"
     inkscape:zoom="6.2890624"
     inkscape:cx="45.714286"
     inkscape:cy="42.057144"
     inkscape:window-x="0"
     inkscape:window-y="75"
     inkscape:window-maximized="0"
     inkscape:current-layer="g877"
     inkscape:document-rotation="0"
     inkscape:pagecheckerboard="0"
     inkscape:showpageshadow="2"
     inkscape:deskcolor="#d1d1d1" />
  <defs
     id="defs29" />
  <circle
     cx="32.516094"
     cy="31.877844"
     r="0"
     fill="url(#b)"
     stroke-width="1.5715"
     id="circle41"
     style="fill:url(#b)" />
  <g
     aria-label="GZ"
     transform="matrix(1.2212657,0,0,0.81882264,0.4960938,-0.1661539)"
     id="text93"
     style="font-weight:bold;font-size:11.5263px;line-height:1.25;font-family:sans-serif;-inkscape-font-specification:'sans-serif Bold';fill:#f2f2f2;stroke-width:0.288159" />
  <g
     id="g877"
     transform="matrix(1.1,0,0,1.1,-3.1845928,-3.2065454)">
    <rect
       x="8.3496294"
       y="8.369586"
       width="47.272728"
       height="47.272728"
       rx="9.8825235"
       ry="9.6485243"
       fill="url(#linearGradient862)"
       stroke-width="3.0541"
       id="rect35-7-3"
       style="fill:#414141;fill-opacity:1;stroke:#dfdfdf;stroke-width:2.04545;stroke-dasharray:none;stroke-opacity:1" />
    <path
       style="fill:#dfdfdf;stroke-width:0.572953;fill-opacity:1"
       d="m 30.792131,15.963238 c 0.180191,0.08984 0.386355,0.157222 0.548708,0.280431 0.312494,0.239842 0.616873,0.496048 0.896899,0.772308 0.307624,0.30305 0.6258,0.474872 1.074656,0.567118 1.078716,0.218666 1.715826,0.460753 2.723924,0.883646 2.241844,0.943487 3.725585,2.720724 4.783197,4.858449 0.938295,1.900287 0.955341,3.960201 0.878231,6.029742 -0.159089,4.269672 -2.70263,7.386818 -4.062997,10.672414 h -0.352265 c 0.530834,0 1.006004,0.356956 1.006004,0.800543 v 1.607345 c 0,0.443586 -0.47517,1.029443 -1.006004,1.029443 h 0.756234 c 0.693982,0 1.395678,0.535834 1.395678,1.201619 v 2.180749 c 0,0.665782 -0.701696,1.201618 -1.395678,1.201618 H 26.973791 c -0.69398,0 -1.290292,-0.535836 -1.290292,-1.201618 v -2.180749 c 0,-0.665785 0.596312,-1.201619 1.290292,-1.201619 h 0.756199 c -0.530835,0 -0.900584,-0.585857 -0.900584,-1.029443 v -1.607345 c 0,-0.443587 0.369749,-0.800543 0.900584,-0.800543 h -0.147726 c -0.344149,-0.319253 -0.329087,-0.891185 -0.635898,-1.217657 -1.3904,-1.471142 -1.638773,-3.559132 -0.662329,-5.347118 0.477265,-0.872738 1.148519,-1.581034 1.922855,-2.186655 0.871739,-0.681664 1.772698,-1.324187 2.651757,-1.995583 0.251621,-0.192516 0.21998,-0.410497 0.554391,-0.712106 -0.828721,0.174868 -1.236215,0.391248 -1.903409,0.424938 -1.151766,0.05615 -2.145256,0.553425 -3.067317,1.224021 -0.356324,0.259092 -0.770279,0.466849 -1.187479,0.611237 -0.5422,0.185938 -0.811674,0.05294 -1.13472,-0.437173 -0.08522,-0.129946 -0.136362,-0.278344 -0.21753,-0.4484 -0.642033,0.01604 -0.995111,-0.476418 -1.171244,-1.070009 -0.06007,-0.202943 -0.162335,-0.390645 -0.236199,-0.587974 -0.499179,-1.321939 -0.242689,-2.492271 0.713462,-3.512604 0.21347,-0.233425 0.467523,-0.427544 0.690735,-0.651343 0.745116,-0.744395 1.494292,-1.484776 2.220739,-2.246817 0.52759,-0.554284 1.002419,-1.157498 1.534877,-1.70745 0.263794,-0.270967 0.486192,-0.542252 0.608756,-0.905626 0.185062,-0.544498 0.532458,-0.9637 1.038131,-1.247017 0.17938,-0.101072 0.808482,-0.217383 0.938348,-0.300807 0.208602,-0.607707 -0.285706,-1.367983 0.551941,-1.749965 z"
       id="path2" />
  </g>
</svg>
