<?xml version="1.0" encoding="UTF-8" standalone="no"?>
<svg
   width="64"
   height="64"
   version="1.1"
   id="svg73"
   sodipodi:docname="audacious.svg"
   inkscape:version="1.4.2 (ebf0e940d0, 2025-05-08)"
   xmlns:inkscape="http://www.inkscape.org/namespaces/inkscape"
   xmlns:sodipodi="http://sodipodi.sourceforge.net/DTD/sodipodi-0.dtd"
   xmlns="http://www.w3.org/2000/svg"
   xmlns:svg="http://www.w3.org/2000/svg"
   xmlns:rdf="http://www.w3.org/1999/02/22-rdf-syntax-ns#"
   xmlns:cc="http://creativecommons.org/ns#"
   xmlns:dc="http://purl.org/dc/elements/1.1/">
  <metadata
     id="metadata77">
    <rdf:RDF>
      <cc:Work
         rdf:about="">
        <dc:format>image/svg+xml</dc:format>
        <dc:type
           rdf:resource="http://purl.org/dc/dcmitype/StillImage" />
      </cc:Work>
    </rdf:RDF>
  </metadata>
  <sodipodi:namedview
     pagecolor="#f5f7fa"
     bordercolor="#666666"
     borderopacity="1"
     objecttolerance="10"
     gridtolerance="10"
     guidetolerance="10"
     inkscape:pageopacity="0"
     inkscape:pageshadow="2"
     inkscape:window-width="1377"
     inkscape:window-height="886"
     id="namedview75"
     showgrid="false"
     inkscape:zoom="6.2890624"
     inkscape:cx="47.622361"
     inkscape:cy="45.396274"
     inkscape:window-x="28"
     inkscape:window-y="57"
     inkscape:window-maximized="0"
     inkscape:current-layer="g877"
     inkscape:document-rotation="0"
     inkscape:pagecheckerboard="0"
     inkscape:showpageshadow="2"
     inkscape:deskcolor="#d1d1d1" />
  <defs
     id="defs29" />
  <circle
     cx="32.516094"
     cy="31.877844"
     r="0"
     fill="url(#b)"
     stroke-width="1.5715"
     id="circle41"
     style="fill:url(#b)" />
  <g
     aria-label="GZ"
     transform="matrix(1.2212657,0,0,0.81882264,0.4960938,-0.1661539)"
     id="text93"
     style="font-weight:bold;font-size:11.5263px;line-height:1.25;font-family:sans-serif;-inkscape-font-specification:'sans-serif Bold';fill:#f2f2f2;stroke-width:0.288159" />
  <g
     id="g877"
     transform="matrix(1.1,0,0,1.1,-3.1845928,-3.2065454)">
    <rect
       x="8.3496294"
       y="8.369586"
       width="47.272728"
       height="47.272728"
       rx="9.8825235"
       ry="9.6485243"
       fill="url(#linearGradient862)"
       stroke-width="3.0541"
       id="rect35-7-3"
       style="fill:#414141;fill-opacity:1;stroke:#dfdfdf;stroke-width:2.04545;stroke-dasharray:none;stroke-opacity:1" />
    <path
       style="fill:#dfdfdf;stroke-width:0.0377112;fill-opacity:1"
       d="m 31.621962,47.530218 c -1.560562,-0.115837 -3.053939,-0.476647 -4.442498,-1.073321 -1.025847,-0.44081 -2.828622,-1.531271 -4.01623,-2.429327 -2.045443,-1.546752 -3.339087,-3.136127 -3.656112,-4.491893 -0.06771,-0.289544 -0.07181,-0.421719 -0.01896,-0.611939 0.06438,-0.23185 0.39729,-0.687638 0.843039,-1.154276 0.749708,-0.784845 0.785864,-0.851048 0.522231,-0.956269 -0.239794,-0.0957 -0.747432,-0.536717 -1.594624,-1.385329 -1.189763,-1.191753 -2.116961,-2.304093 -2.283008,-2.738887 -0.06253,-0.163705 -0.06227,-0.171909 0.0067,-0.223539 0.03933,-0.02951 0.648539,-0.328325 1.353733,-0.664106 0.705191,-0.335779 1.6046,-0.772673 1.998681,-0.970874 l 0.716522,-0.360368 0.867354,-0.851426 c 0.808295,-0.793454 1.279322,-1.212821 1.478273,-1.316147 0.04563,-0.02367 0.274731,-0.07603 0.509102,-0.116313 0.7494,-0.12875 1.596555,-0.413768 1.973485,-0.66396 0.3094,-0.205366 0.816288,-0.659569 2.2049,-1.975706 1.638273,-1.552766 1.822385,-1.715353 2.092964,-1.848242 0.450323,-0.221168 1.206122,-0.309371 2.5806,-0.301168 1.097024,0.0064 1.194595,-0.01008 1.583708,-0.269922 0.127097,-0.08489 0.30864,-0.250179 0.403421,-0.367346 0.09477,-0.117161 0.293715,-0.321072 0.442076,-0.453115 0.9888,-0.880057 3.805793,-2.986764 5.135069,-3.840273 0.103415,-0.06638 0.493429,-0.403099 0.866764,-0.748253 0.99415,-0.919101 1.474283,-1.260399 1.774448,-1.26136 0.162991,-5.21e-4 0.289038,0.142334 0.874963,0.991232 0.729113,1.056383 0.879746,1.408418 0.821945,1.920894 -0.03684,0.327319 -0.127573,0.550847 -0.531851,1.311848 -0.734736,1.382947 -1.64194,3.295025 -2.021501,4.260652 -0.301049,0.765971 -0.367326,1.130299 -0.228384,1.256037 0.200439,0.181377 0.626248,0.257503 1.440485,0.257503 1.054114,0 1.131116,-0.01768 2.074695,-0.477116 0.445944,-0.217113 0.882598,-0.405492 0.970378,-0.41861 0.144926,-0.02164 0.16979,-0.01298 0.270637,0.09503 0.195635,0.209447 0.357017,0.811368 0.40037,1.493254 0.0428,0.66985 -0.09625,0.823426 -0.943764,1.044576 -1.629495,0.425173 -4.714886,2.708909 -5.77886,4.277375 -0.502368,0.740576 -0.836794,1.91782 -1.155669,4.068106 -0.291171,1.963495 -0.586485,5.48199 -0.661531,7.881618 -0.04138,1.321186 -0.08057,1.64389 -0.243031,1.998773 -0.0506,0.11053 -0.135079,0.229161 -0.187787,0.263736 -0.219755,0.144011 -1.789286,0.514725 -2.947042,0.696129 -0.932917,0.146109 -2.600011,0.218876 -3.495683,0.1523 z m -2.403998,-17.10158 c 0.07145,-0.05176 0.486255,-0.456984 0.92182,-0.900522 0.839944,-0.855322 1.170596,-1.130484 1.439972,-1.198314 0.417443,-0.1051 0.999565,-0.651228 1.256111,-1.178417 0.08177,-0.168014 0.158057,-0.364875 0.169541,-0.437472 0.03697,-0.233699 0.0079,-0.245783 -0.573542,-0.239586 -0.603544,0.0064 -0.955939,0.08214 -1.403089,0.301469 -0.469755,0.23041 -0.959726,0.798578 -1.410078,1.635117 -0.445533,0.827587 -0.798082,2.014854 -0.619672,2.086843 0.07692,0.03103 0.08357,0.02895 0.218937,-0.06913 z"
       id="path6" />
  </g>
</svg>
