<?xml version="1.0" encoding="UTF-8" standalone="no"?>
<svg
   width="64"
   height="64"
   version="1.1"
   id="svg73"
   sodipodi:docname="partitionmanager.svg"
   inkscape:version="1.3.2 (091e20ef0f, 2023-11-25)"
   xmlns:inkscape="http://www.inkscape.org/namespaces/inkscape"
   xmlns:sodipodi="http://sodipodi.sourceforge.net/DTD/sodipodi-0.dtd"
   xmlns="http://www.w3.org/2000/svg"
   xmlns:svg="http://www.w3.org/2000/svg"
   xmlns:rdf="http://www.w3.org/1999/02/22-rdf-syntax-ns#"
   xmlns:cc="http://creativecommons.org/ns#"
   xmlns:dc="http://purl.org/dc/elements/1.1/">
  <metadata
     id="metadata77">
    <rdf:RDF>
      <cc:Work
         rdf:about="">
        <dc:format>image/svg+xml</dc:format>
        <dc:type
           rdf:resource="http://purl.org/dc/dcmitype/StillImage" />
      </cc:Work>
    </rdf:RDF>
  </metadata>
  <sodipodi:namedview
     pagecolor="#f5f7fa"
     bordercolor="#666666"
     borderopacity="1"
     objecttolerance="10"
     gridtolerance="10"
     guidetolerance="10"
     inkscape:pageopacity="0"
     inkscape:pageshadow="2"
     inkscape:window-width="1377"
     inkscape:window-height="886"
     id="namedview75"
     showgrid="false"
     inkscape:zoom="6.2890624"
     inkscape:cx="47.622361"
     inkscape:cy="45.396274"
     inkscape:window-x="74"
     inkscape:window-y="53"
     inkscape:window-maximized="0"
     inkscape:current-layer="g877"
     inkscape:document-rotation="0"
     inkscape:pagecheckerboard="0"
     inkscape:showpageshadow="2"
     inkscape:deskcolor="#d1d1d1" />
  <defs
     id="defs29">
    <linearGradient
       id="b"
       x1="399.57"
       x2="399.57"
       y1="545.8"
       y2="517.8"
       gradientTransform="matrix(2.1429,0,0,2.1429,-825.86391,-1107.6662)"
       gradientUnits="userSpaceOnUse">
      <stop
         stop-color="#3889e9"
         offset="0"
         id="stop2" />
      <stop
         stop-color="#5ea5fb"
         offset="1"
         id="stop4" />
    </linearGradient>
  </defs>
  <circle
     cx="32.516094"
     cy="31.877844"
     r="0"
     fill="url(#b)"
     stroke-width="1.5715"
     id="circle41"
     style="fill:url(#b)" />
  <g
     aria-label="GZ"
     transform="matrix(1.2212657,0,0,0.81882264,0.4960938,-0.1661539)"
     id="text93"
     style="font-weight:bold;font-size:11.5263px;line-height:1.25;font-family:sans-serif;-inkscape-font-specification:'sans-serif Bold';fill:#f2f2f2;stroke-width:0.288159" />
  <g
     id="g877"
     transform="matrix(1.1,0,0,1.1,-3.1845928,-3.2065454)">
    <rect
       x="6.3010068"
       y="5.4939413"
       width="51.635597"
       height="53.148327"
       rx="10.980581"
       ry="10.720582"
       fill="url(#linearGradient862)"
       stroke-width="3.0541"
       id="rect35-7-3"
       style="fill:#414141;fill-opacity:1;stroke:#dfdfdf;stroke-width:2.27272727;stroke-dasharray:none;stroke-opacity:1" />
    <path
       style="color:#444444;fill:#dfdfdf;fill-opacity:1;stroke:none;stroke-width:1.1979;stroke-dasharray:none;stroke-opacity:0.3"
       class="ColorScheme-Text"
       d="m 14.682959,15.047184 c -2.442729,0 -2.442729,2.466623 -2.442729,2.466623 v 24.666232 c 0,2.466623 2.442729,2.466623 2.442729,2.466623 h 12.21364 c 0,0 -2.44273,0 -2.44273,2.466624 v 2.466623 h 14.656369 v -2.466623 c 0,-2.466624 -2.442725,-2.466624 -2.442725,-2.466624 h 12.213646 c 2.44272,0 2.44272,-2.466623 2.44272,-2.466623 V 17.513806 c 0,0 0,-2.466622 -2.44272,-2.466622 z m 2.442726,4.933246 H 46.438422 V 39.713414 H 17.125685 Z"
       id="path5" />
    <rect
       x="34.795551"
       y="33.974232"
       width="24.697144"
       height="25.420679"
       rx="5.2519779"
       ry="5.1276212"
       fill="url(#linearGradient862)"
       stroke-width="3.0541"
       id="rect35-7-3-9"
       style="fill:#414141;fill-opacity:1;stroke:#dfdfdf;stroke-width:2.27273;stroke-dasharray:none;stroke-opacity:1" />
    <path
       id="path6"
       style="fill:#dfdfdf;fill-opacity:1;stroke:none;stroke-width:1.089;stroke-dasharray:none;stroke-opacity:0.3"
       d="m 53.117943,39.341983 c -3.708814,0 -7.154806,1.482223 -9.777604,4.209237 -2.527011,2.62742 -3.73061,5.475996 -3.95188,9.350085 l -0.08289,1.450581 h 0.829514 c 0.734222,0 0.877458,-0.04033 1.227248,-0.353052 0.377922,-0.337671 0.399458,-0.40977 0.493453,-1.622867 0.227306,-2.934313 1.364226,-5.40192 3.388237,-7.352872 2.119244,-2.042753 4.414846,-3.079657 7.233768,-3.267001 1.125853,-0.07483 1.210055,-0.09899 1.595222,-0.482822 0.369948,-0.368624 0.406236,-0.473353 0.406236,-1.167692 v -0.763585 z m 0.433917,5.002586 c -4.023129,0 -7.460171,2.456954 -8.65883,6.189435 -0.234902,0.731387 -0.340467,1.384038 -0.389231,2.409841 l -0.06596,1.408041 h 0.840148 c 0.76176,0 0.874461,-0.03401 1.205984,-0.365828 0.275383,-0.275381 0.36632,-0.48386 0.367983,-0.8444 0.0036,-0.798422 0.330148,-2.092947 0.729547,-2.884147 1.015469,-2.01164 2.890616,-3.207759 5.449248,-3.479694 0.584792,-0.06214 0.813726,-0.154359 1.093257,-0.433917 0.316807,-0.316807 0.355208,-0.439908 0.355208,-1.176205 v -0.823148 z m -1.576079,4.883484 c -0.388856,0.0021 -0.803456,0.06731 -1.095374,0.189283 -2.123052,0.887068 -2.059505,3.932321 0.09997,4.794156 0.469521,0.187431 1.326927,0.161579 1.846195,-0.05533 1.356801,-0.566769 1.998869,-2.094069 1.418674,-3.371223 -0.244541,-0.538238 -0.976506,-1.254254 -1.476105,-1.444201 -0.203418,-0.07733 -0.490898,-0.114332 -0.793353,-0.112745 z" />
  </g>
</svg>
