<?xml version="1.0" encoding="UTF-8" standalone="no"?>
<svg
   width="64"
   height="64"
   version="1.1"
   id="svg73"
   sodipodi:docname="accessories-text-editor.svg"
   inkscape:version="1.4.2 (ebf0e940d0, 2025-05-08)"
   xmlns:inkscape="http://www.inkscape.org/namespaces/inkscape"
   xmlns:sodipodi="http://sodipodi.sourceforge.net/DTD/sodipodi-0.dtd"
   xmlns="http://www.w3.org/2000/svg"
   xmlns:svg="http://www.w3.org/2000/svg"
   xmlns:rdf="http://www.w3.org/1999/02/22-rdf-syntax-ns#"
   xmlns:cc="http://creativecommons.org/ns#"
   xmlns:dc="http://purl.org/dc/elements/1.1/">
  <metadata
     id="metadata77">
    <rdf:RDF>
      <cc:Work
         rdf:about="">
        <dc:format>image/svg+xml</dc:format>
        <dc:type
           rdf:resource="http://purl.org/dc/dcmitype/StillImage" />
      </cc:Work>
    </rdf:RDF>
  </metadata>
  <sodipodi:namedview
     pagecolor="#f5f7fa"
     bordercolor="#666666"
     borderopacity="1"
     objecttolerance="10"
     gridtolerance="10"
     guidetolerance="10"
     inkscape:pageopacity="0"
     inkscape:pageshadow="2"
     inkscape:window-width="1377"
     inkscape:window-height="886"
     id="namedview75"
     showgrid="false"
     inkscape:zoom="6.2890624"
     inkscape:cx="43.011181"
     inkscape:cy="42.693168"
     inkscape:window-x="264"
     inkscape:window-y="75"
     inkscape:window-maximized="0"
     inkscape:current-layer="g877"
     inkscape:document-rotation="0"
     inkscape:pagecheckerboard="0"
     inkscape:showpageshadow="2"
     inkscape:deskcolor="#d1d1d1" />
  <defs
     id="defs29" />
  <circle
     cx="32.516094"
     cy="31.877844"
     r="0"
     fill="url(#b)"
     stroke-width="1.5715"
     id="circle41"
     style="fill:url(#b)" />
  <g
     aria-label="GZ"
     transform="matrix(1.2212657,0,0,0.81882264,0.4960938,-0.1661539)"
     id="text93"
     style="font-weight:bold;font-size:11.5263px;line-height:1.25;font-family:sans-serif;-inkscape-font-specification:'sans-serif Bold';fill:#f2f2f2;stroke-width:0.288159" />
  <g
     id="g877"
     transform="matrix(1.1,0,0,1.1,-3.1845928,-3.2065454)">
    <rect
       x="8.3496294"
       y="8.369586"
       width="47.272728"
       height="47.272728"
       rx="9.8825235"
       ry="9.6485243"
       fill="url(#linearGradient862)"
       stroke-width="3.0541"
       id="rect35-7-3"
       style="fill:#414141;fill-opacity:1;stroke:#dfdfdf;stroke-width:2.04545;stroke-dasharray:none;stroke-opacity:1" />
    <path
       style="fill:#dfdfdf;stroke:none;stroke-width:0.0785794;fill-opacity:1"
       d="m 31.252785,47.60965 c -3.805953,-0.206298 -7.310391,-2.158474 -9.338357,-5.202004 -0.701724,-1.053137 -1.317195,-2.517683 -1.558267,-3.707971 -0.314035,-1.550562 -0.273146,-3.350292 0.110488,-4.863151 0.302218,-1.191792 0.90995,-2.618018 1.548456,-3.633917 0.590636,-0.939736 9.068911,-13.109321 9.331537,-13.394339 0.307101,-0.33329 0.468835,-0.430089 0.718603,-0.430089 0.154429,0 0.220214,0.04195 0.481282,0.30695 0.205681,0.208773 1.679013,2.294135 4.606201,6.519646 2.367085,3.416979 4.463023,6.455798 4.657632,6.752929 0.454407,0.693781 1.119076,2.045282 1.376232,2.798351 0.460176,1.347616 0.638351,2.389493 0.638688,3.734857 3.42e-4,1.332409 -0.131728,2.185389 -0.520707,3.362896 -1.181716,3.577288 -4.210633,6.33574 -8.087481,7.365313 -0.69518,0.184618 -1.63485,0.338364 -2.269935,0.371392 -0.270117,0.01403 -0.612675,0.03248 -0.76124,0.04031 -0.148567,0.0079 -0.568473,-0.0014 -0.933132,-0.02119 z m 1.718928,-4.390288 c 0.527728,-0.117163 1.311231,-0.385399 1.705223,-0.58381 0.608687,-0.306535 1.703485,-1.108332 1.623098,-1.18872 -0.01426,-0.01435 -0.277223,0.04082 -0.584374,0.122395 -0.698348,0.185472 -1.627301,0.337713 -2.300897,0.377135 -0.757458,0.04432 -1.989389,-0.05053 -2.569312,-0.197779 -1.820701,-0.462388 -3.290852,-1.794831 -3.881703,-3.518136 -0.775993,-2.2633 0.11191,-4.774223 2.164863,-6.122057 0.697559,-0.457971 1.346654,-0.702982 2.388561,-0.901597 0.525659,-0.100201 0.57443,-0.118155 0.49112,-0.180743 -0.181176,-0.136121 -0.639033,-0.346773 -1.050181,-0.483172 -0.390514,-0.129553 -0.471327,-0.13864 -1.25236,-0.140829 -0.728316,-0.0021 -0.885066,0.01205 -1.227806,0.110399 -1.745585,0.500869 -3.124239,1.97576 -3.750865,4.012689 -0.398311,1.294755 -0.409603,2.729368 -0.03131,3.978088 0.415263,1.370772 1.448906,2.7137 2.792153,3.627618 0.883615,0.601193 1.746971,0.932046 3.077295,1.179276 0.295655,0.05497 2.04784,-0.01128 2.406498,-0.09073 z m 0.444153,-3.239966 c 1.095778,-0.145894 2.560279,-0.5548 3.573716,-0.99782 1.404167,-0.613825 2.647591,-1.715907 3.225871,-2.859188 0.460849,-0.91112 0.521284,-1.84059 0.19389,-2.981921 -0.151181,-0.527015 -0.629764,-1.529286 -1.062478,-2.225076 -0.554434,-0.891513 -7.312138,-11.221629 -7.347896,-11.232311 -0.03443,-0.01029 -6.88521,10.452278 -6.88521,10.515089 0,0.01864 0.14918,-0.08602 0.33151,-0.23258 1.019566,-0.819532 2.225864,-1.360827 3.463915,-1.554345 0.507475,-0.07932 1.56687,-0.06818 2.086173,0.0219 1.129255,0.195947 2.387431,0.795779 2.906787,1.385799 0.728304,0.827394 0.676252,2.057878 -0.118859,2.809859 -0.410258,0.388011 -0.776451,0.53754 -1.517553,0.619668 -0.338396,0.0375 -0.723758,0.100401 -0.856355,0.13978 -1.99843,0.59347 -2.987115,2.845014 -2.07353,4.722069 0.389979,0.801251 1.13226,1.452971 1.95761,1.718767 0.655222,0.21101 1.315349,0.257746 2.122409,0.150295 z"
       id="path10" />
  </g>
</svg>
