<?xml version="1.0" encoding="UTF-8" standalone="no"?>
<svg
   width="64"
   height="64"
   version="1.1"
   id="svg73"
   sodipodi:docname="audacious.svg"
   inkscape:version="1.4.2 (ebf0e940d0, 2025-05-08)"
   xmlns:inkscape="http://www.inkscape.org/namespaces/inkscape"
   xmlns:sodipodi="http://sodipodi.sourceforge.net/DTD/sodipodi-0.dtd"
   xmlns="http://www.w3.org/2000/svg"
   xmlns:svg="http://www.w3.org/2000/svg"
   xmlns:rdf="http://www.w3.org/1999/02/22-rdf-syntax-ns#"
   xmlns:cc="http://creativecommons.org/ns#"
   xmlns:dc="http://purl.org/dc/elements/1.1/">
  <metadata
     id="metadata77">
    <rdf:RDF>
      <cc:Work
         rdf:about="">
        <dc:format>image/svg+xml</dc:format>
        <dc:type
           rdf:resource="http://purl.org/dc/dcmitype/StillImage" />
      </cc:Work>
    </rdf:RDF>
  </metadata>
  <sodipodi:namedview
     pagecolor="#f5f7fa"
     bordercolor="#666666"
     borderopacity="1"
     objecttolerance="10"
     gridtolerance="10"
     guidetolerance="10"
     inkscape:pageopacity="0"
     inkscape:pageshadow="2"
     inkscape:window-width="1377"
     inkscape:window-height="886"
     id="namedview75"
     showgrid="false"
     inkscape:zoom="6.2890624"
     inkscape:cx="47.622361"
     inkscape:cy="45.396274"
     inkscape:window-x="20"
     inkscape:window-y="75"
     inkscape:window-maximized="0"
     inkscape:current-layer="g877"
     inkscape:document-rotation="0"
     inkscape:pagecheckerboard="0"
     inkscape:showpageshadow="2"
     inkscape:deskcolor="#d1d1d1" />
  <defs
     id="defs29" />
  <circle
     cx="32.516094"
     cy="31.877844"
     r="0"
     fill="url(#b)"
     stroke-width="1.5715"
     id="circle41"
     style="fill:url(#b)" />
  <g
     aria-label="GZ"
     transform="matrix(1.2212657,0,0,0.81882264,0.4960938,-0.1661539)"
     id="text93"
     style="font-weight:bold;font-size:11.5263px;line-height:1.25;font-family:sans-serif;-inkscape-font-specification:'sans-serif Bold';fill:#f2f2f2;stroke-width:0.288159" />
  <g
     id="g877"
     transform="matrix(1.1,0,0,1.1,-3.1845928,-3.2065454)">
    <rect
       x="8.3496294"
       y="8.369586"
       width="47.272728"
       height="47.272728"
       rx="9.8825235"
       ry="9.6485243"
       fill="url(#linearGradient862)"
       stroke-width="3.0541"
       id="rect35-7-3"
       style="fill:#414141;fill-opacity:1;stroke:#dfdfdf;stroke-width:2.04545;stroke-dasharray:none;stroke-opacity:1" />
    <path
       id="path1"
       style="fill:#dfdfdf;fill-opacity:1;stroke:none;stroke-width:0.389716;stroke-dasharray:none;stroke-opacity:0.6"
       d="m 15.018479,23.047813 c -0.01089,0 -0.02052,0.0016 -0.02985,0.0039 -0.09441,0.0237 -0.123194,0.129983 -0.0619,0.229067 0.05902,0.09569 0.306177,0.286605 0.645059,0.498783 0.826307,0.517176 2.200266,1.188617 3.908636,1.91001 1.834956,0.774848 4.17092,2.223751 5.824837,3.613003 0.546583,0.459099 1.041306,0.998893 1.041297,1.136488 0,0.02124 -0.03911,0.09234 -0.08668,0.157872 -0.128513,0.177078 -0.379006,0.601202 -0.514263,0.870653 -0.337183,0.671701 -0.558149,1.426652 -0.664016,2.269877 -0.05428,0.432359 -0.04398,1.715973 0.01779,2.224222 0.02752,0.226284 0.05031,0.457681 0.0503,0.514261 -10e-7,0.143567 -0.09922,0.278152 -0.555281,0.752241 -0.631628,0.656631 -0.801792,0.923046 -0.804869,1.261862 -0.0016,0.185403 -1.67e-4,0.189854 0.09441,0.27668 0.08684,0.07991 0.110345,0.08827 0.249205,0.08822 0.182939,3e-6 0.44968,-0.08016 0.871035,-0.261194 0.371656,-0.159678 0.617307,-0.253456 0.664016,-0.253453 0.07899,7e-6 0.02002,0.265078 -0.234109,1.054453 -0.330592,1.026864 -0.375154,1.397427 -0.18419,1.53118 0.19466,0.136324 0.451307,-0.04239 1.959541,-1.365562 0.48011,-0.421193 0.92694,-0.807283 0.993319,-0.857879 0.0664,-0.05056 0.121487,-0.104403 0.122266,-0.119579 l 3e-6,-4.07e-4 -2e-6,-4.06e-4 h 4.08e-4 l -1e-6,-4.07e-4 v -4.04e-4 l 4.06e-4,-2e-6 4.04e-4,-4.04e-4 4.08e-4,-4.04e-4 c 0.02002,-0.0096 0.182375,0.02331 0.412876,0.08475 0.714301,0.190352 1.526206,0.337792 2.377066,0.431842 1.962575,0.21693 4.564516,0.147182 6.725666,-0.180709 l 0.450811,-0.06848 0.718965,0.322337 c 2.499224,1.120832 3.469102,1.457405 3.6931,1.281207 0.101484,-0.07982 0.205251,-0.29791 0.220185,-0.462407 0.03363,-0.37089 -0.179561,-0.746712 -0.803704,-1.41703 -0.505895,-0.543315 -0.654732,-0.745638 -0.654734,-0.888449 0,-0.06716 0.002,-0.06784 0.135044,-0.04992 0.179428,0.02413 0.604843,0.147389 1.41858,0.410948 0.822318,0.266339 1.105849,0.34328 1.340408,0.363738 0.292914,0.02555 0.397405,-0.05711 0.397415,-0.314584 -9e-6,-0.352616 -0.298978,-0.800686 -1.156615,-1.73356 -0.250775,-0.272766 -0.438704,-0.500915 -0.477484,-0.579661 -0.155933,-0.316552 -0.123665,-0.693233 0.08012,-0.934942 0.112172,-0.133031 0.277201,-0.227095 0.949583,-0.54135 2.448238,-1.144254 3.653948,-1.856807 4.37182,-2.584087 0.408151,-0.413525 0.550215,-0.679022 0.551805,-1.030463 0.0027,-0.681297 -0.508771,-1.413247 -1.35589,-1.938647 -0.991207,-0.614768 -2.275478,-0.996944 -4.62605,-1.376785 -0.393628,-0.06362 -0.75791,-0.123022 -0.809123,-0.13197 l -0.09288,-0.01624 -0.01355,-0.698067 c -0.02678,-1.384238 -0.218865,-2.141466 -0.652832,-2.572818 -0.2131,-0.211824 -0.554512,-0.294238 -0.876834,-0.211665 -0.581643,0.149009 -0.831776,0.547113 -0.831181,1.323388 8.5e-4,0.506113 0.0859,1.004172 0.299891,1.749811 0.06238,0.217338 0.113381,0.416698 0.113382,0.443065 0,0.02998 -0.02465,0.05424 -0.06579,0.06463 -0.08708,0.02184 -0.284885,-0.0016 -0.330056,-0.03907 -0.01988,-0.01635 -0.097,-0.165557 -0.171417,-0.331236 -0.56191,-1.250746 -0.787552,-1.644788 -1.125668,-1.966517 -0.389053,-0.370173 -0.756963,-0.369031 -1.133395,0.0043 -0.287657,0.285254 -0.398195,0.600634 -0.397405,1.134168 8.47e-4,0.380596 0.02788,0.555575 0.191545,1.234001 0.05629,0.233362 0.106457,0.447669 0.111831,0.475956 0.007,0.0369 -0.02394,0.07734 -0.109898,0.143556 -0.13629,0.105008 -0.279428,0.331386 -0.379991,0.601328 -0.237477,0.637407 -0.369574,0.866414 -0.552184,0.956556 -0.275153,0.13581 -0.90439,0.172641 -1.68442,0.09828 -0.70661,-0.06735 -1.426878,-0.182666 -3.353355,-0.536319 -1.841202,-0.337999 -2.116697,-0.348018 -2.851085,-0.104092 -0.146718,0.04873 -0.489753,0.20062 -0.762302,0.337425 l -0.495756,0.248537 -0.356,-0.335876 c -1.511226,-1.425044 -3.097311,-2.566081 -4.676303,-3.364678 -0.886802,-0.448512 -1.465865,-0.676907 -2.381709,-0.939141 -1.076177,-0.308143 -1.979125,-0.667559 -3.738762,-1.489003 -0.721198,-0.336675 -0.875309,-0.4053 -0.95191,-0.404757 z m 32.527466,2.625491 c -0.0058,2.83e-4 -0.0111,0.0012 -0.01666,0.0034 -0.128386,0.04926 -0.408586,1.465265 -0.415204,2.098462 -0.0027,0.235426 0.0027,0.28106 0.04604,0.327749 0.08488,0.09393 0.144818,0.06616 0.217856,-0.100999 0.189455,-0.433554 0.370681,-2.127632 0.244169,-2.282649 -0.02601,-0.03224 -0.05156,-0.0476 -0.07623,-0.04605 z m 1.471971,0.539804 c -0.03379,0.0113 -0.341757,0.431588 -0.500336,0.684522 -0.307158,0.490011 -0.544121,0.98842 -0.580823,1.22123 l -0.01619,0.102919 0.09091,-0.101801 c 0.129827,-0.144618 0.363954,-0.54337 0.641605,-1.093891 0.245003,-0.485784 0.384717,-0.795118 0.367211,-0.812606 l -0.0013,-3.65e-4 h -0.0013 -0.0013 -0.0013 -0.0013 z m -1.519578,0.04025 0.0013,-10e-7 c 9e-5,-2e-6 0.002,0 0.0028,0 l 0.0013,10e-7 0.0013,-10e-7 0.0013,3.65e-4 0.0013,3.66e-4 0.0013,3.65e-4 c 0.0028,0.0042 0.005,0.01713 0.0056,0.0387 0.0034,0.187136 -0.06764,0.772284 -0.141241,1.151193 -0.04722,0.243494 -0.07838,0.373684 -0.09363,0.390433 -2e-4,1.93e-4 -0.0028,9.2e-4 -0.0026,0.0012 l -0.0013,3.68e-4 h -0.0013 -0.0013 -0.0013 -0.0013 -0.0013 -0.0013 l -0.0013,-3.66e-4 -0.0013,-3.66e-4 c -0.0071,-0.01 -0.0077,-0.07019 -0.0028,-0.179559 0.02604,-0.413948 0.187782,-1.360516 0.230548,-1.401507 l 0.0013,-3.65e-4 c 1.81e-4,-1.09e-4 0.0028,-7.78e-4 0.0028,-9.2e-4 z m -4.603591,2.22538 c 0.162995,6.93e-4 0.326228,0.06677 0.437257,0.198118 0.301106,0.356274 0.193664,0.943019 -0.20664,1.128748 -0.189727,0.08802 -0.454134,0.04668 -0.619514,-0.09712 -0.166398,-0.14469 -0.261246,-0.432328 -0.218623,-0.662854 0.02969,-0.160394 0.07327,-0.25479 0.171802,-0.371866 0.109749,-0.130565 0.272688,-0.195669 0.435711,-0.195029 z m -1.198399,0.321559 0.02861,0.109121 c 0.124425,0.474726 0.230754,0.712877 0.399332,0.893092 0.232187,0.248224 0.5315,0.340508 1.099338,0.338585 l 0.330074,-0.0012 -0.111344,0.101869 c -0.18407,0.168231 -0.479602,0.355944 -0.621051,0.394701 -0.480227,0.131517 -0.847563,-0.01517 -1.1423,-0.455833 -0.176293,-0.263536 -0.250911,-0.505636 -0.250822,-0.814619 8.3e-5,-0.276374 0.04754,-0.403861 0.189221,-0.508073 z m 2.920341,2.70056 c 0.09838,-0.0048 0.175579,0.01265 0.237984,0.05069 0.119079,0.07261 0.116113,0.182227 -0.0082,0.296023 -0.226414,0.207238 -1.243554,0.648569 -1.985858,0.86136 -0.405349,0.116217 -0.573537,0.09741 -0.492208,-0.05455 0.06258,-0.116956 0.654092,-0.492736 1.232842,-0.783195 0.481234,-0.241554 0.798935,-0.359616 1.015367,-0.370319 z m 0.375342,0.66711 c 0.0744,8.42e-4 0.12993,0.03588 0.165997,0.105638 0.05347,0.103425 0.04653,0.26539 -0.0166,0.38927 -0.146781,0.287722 -0.651253,0.69945 -1.359375,1.109405 h -0.0012 c -0.162273,0.09395 -0.313189,0.17104 -0.335479,0.171041 -0.05433,-7e-6 -0.102163,-0.05128 -0.10217,-0.1091 -5e-6,-0.145476 0.317438,-0.588947 0.718956,-1.004923 0.42573,-0.441145 0.738995,-0.663335 0.929071,-0.66131 z m -6.793767,6.584043 c 0.0012,-4.1e-5 0.0014,0 0.0027,0 0.01417,0 0.02601,0.01148 0.02593,0.02552 0,0.01417 -0.01177,0.02594 -0.02594,0.02593 -0.01416,-7e-6 -0.0256,-0.01189 -0.02553,-0.02591 0,-0.01329 0.01,-0.02417 0.02285,-0.02553 z" />
  </g>
</svg>
