<?xml version="1.0" encoding="UTF-8" standalone="no"?>
<svg
   width="64"
   height="64"
   version="1.1"
   id="svg73"
   sodipodi:docname="audacious.svg"
   inkscape:version="1.4.2 (ebf0e940d0, 2025-05-08)"
   xmlns:inkscape="http://www.inkscape.org/namespaces/inkscape"
   xmlns:sodipodi="http://sodipodi.sourceforge.net/DTD/sodipodi-0.dtd"
   xmlns="http://www.w3.org/2000/svg"
   xmlns:svg="http://www.w3.org/2000/svg"
   xmlns:rdf="http://www.w3.org/1999/02/22-rdf-syntax-ns#"
   xmlns:cc="http://creativecommons.org/ns#"
   xmlns:dc="http://purl.org/dc/elements/1.1/">
  <metadata
     id="metadata77">
    <rdf:RDF>
      <cc:Work
         rdf:about="">
        <dc:format>image/svg+xml</dc:format>
        <dc:type
           rdf:resource="http://purl.org/dc/dcmitype/StillImage" />
      </cc:Work>
    </rdf:RDF>
  </metadata>
  <sodipodi:namedview
     pagecolor="#f5f7fa"
     bordercolor="#666666"
     borderopacity="1"
     objecttolerance="10"
     gridtolerance="10"
     guidetolerance="10"
     inkscape:pageopacity="0"
     inkscape:pageshadow="2"
     inkscape:window-width="1377"
     inkscape:window-height="886"
     id="namedview75"
     showgrid="false"
     inkscape:zoom="6.2890624"
     inkscape:cx="47.622361"
     inkscape:cy="45.396274"
     inkscape:window-x="0"
     inkscape:window-y="49"
     inkscape:window-maximized="0"
     inkscape:current-layer="g877"
     inkscape:document-rotation="0"
     inkscape:pagecheckerboard="0"
     inkscape:showpageshadow="2"
     inkscape:deskcolor="#d1d1d1" />
  <defs
     id="defs29" />
  <circle
     cx="32.516094"
     cy="31.877844"
     r="0"
     fill="url(#b)"
     stroke-width="1.5715"
     id="circle41"
     style="fill:url(#b)" />
  <g
     aria-label="GZ"
     transform="matrix(1.2212657,0,0,0.81882264,0.4960938,-0.1661539)"
     id="text93"
     style="font-weight:bold;font-size:11.5263px;line-height:1.25;font-family:sans-serif;-inkscape-font-specification:'sans-serif Bold';fill:#f2f2f2;stroke-width:0.288159" />
  <g
     id="g877"
     transform="matrix(1.1,0,0,1.1,-3.1845928,-3.2065454)">
    <rect
       x="8.3496294"
       y="8.369586"
       width="47.272728"
       height="47.272728"
       rx="9.8825235"
       ry="9.6485243"
       fill="url(#linearGradient862)"
       stroke-width="3.0541"
       id="rect35-7-3"
       style="fill:#414141;fill-opacity:1;stroke:#dfdfdf;stroke-width:2.04545;stroke-dasharray:none;stroke-opacity:1" />
    <path
       id="path2"
       style="fill:#dfdfdf;fill-opacity:1;stroke:none;stroke-width:0.525;stroke-dasharray:none;stroke-opacity:0.6"
       d="m 42.563377,16.011739 c -0.0706,0.0047 -0.122954,0.02678 -0.149688,0.06767 -0.08017,0.122435 -0.60654,0.926623 -1.170992,1.786231 l -1.027451,1.562696 -1.150492,-0.582421 c -0.632466,-0.320489 -1.254299,-0.582424 -1.382239,-0.582424 -0.127933,0 -0.553638,0.466222 -0.94541,1.035645 l -0.711621,1.033592 -3.01875,-0.120994 c -3.61332,-0.14655 -5.882543,0.315493 -8.943457,1.821094 -7.196901,3.540008 -10.022807,11.79962 -6.263086,18.309376 2.102828,3.640939 6.621903,6.685487 11.014745,7.419725 4.587481,0.766767 9.584453,-0.336139 13.188575,-2.908007 6.634095,-4.733985 7.777086,-13.307746 2.567583,-19.262984 l -1.103328,-1.259181 0.646002,-1.158691 c 0.35533,-0.636433 0.583923,-1.259106 0.506536,-1.384277 -0.07736,-0.12517 -0.584835,-0.450095 -1.127929,-0.723926 -0.543101,-0.273828 -1.030258,-0.537065 -1.082809,-0.584473 l -0.0021,-0.0021 -0.0021,-0.0021 v -0.0021 -0.0021 -0.0021 c -0.0047,-0.11095 0.441519,-0.879446 1.029487,-1.763672 1.202281,-1.808058 1.20857,-1.723104 -0.194822,-2.481446 -0.275023,-0.14862 -0.521431,-0.223601 -0.676759,-0.213283 z m -12.292386,7.446388 c 0.397415,0.0068 0.894359,0.0316 1.554493,0.06563 3.916394,0.202016 8.196803,1.568114 9.52793,3.039257 0.34422,0.380425 0.771402,1.696746 1.359661,4.191798 0.845294,3.585109 0.852037,3.650266 0.442973,4.470703 -0.301396,0.604543 -0.804558,1.0304 -1.833398,1.556542 l -1.415038,0.723925 -4.368162,0.04718 c -2.402442,0.02631 -4.668499,-0.04507 -5.034668,-0.159966 -0.366169,-0.114899 -1.220085,-0.636477 -1.896974,-1.158692 -0.676889,-0.522216 -2.011786,-1.268109 -2.967481,-1.657031 -2.387992,-0.971801 -3.803578,-2.40874 -3.789844,-3.847265 0.0173,-1.811851 2.99178,-5.210592 5.750392,-6.568652 1.174918,-0.578412 1.477875,-0.723999 2.670116,-0.703418 z m 6.556348,4.932128 c -0.884251,-0.01712 -1.576656,0.560978 -2.132812,1.755469 -0.724012,1.554997 -0.716593,2.075704 0.03896,2.973632 0.504343,0.599376 0.782836,0.726181 1.593459,0.721875 1.468047,-0.0079 2.342946,-0.889942 2.772653,-2.795215 0.239295,-1.060997 -0.0745,-1.815816 -0.941307,-2.264063 -0.486411,-0.251532 -0.929023,-0.383916 -1.330956,-0.391698 z m -7.468945,0.02872 c -1.166661,-0.0048 -1.847753,0.837278 -1.847753,2.286601 0,0.575404 0.109608,1.252036 0.244042,1.503223 0.36535,0.682678 2.106102,0.636351 2.758301,-0.07381 0.63649,-0.693058 0.861525,-1.811961 0.535254,-2.670117 -0.329673,-0.867107 -0.611158,-1.041384 -1.689844,-1.045899 z m -4.310742,6.751168 c 0.860602,0.02738 1.657255,0.430519 2.106152,1.115625 0.316504,0.48305 0.341247,0.75851 0.137403,1.515525 -0.305856,1.135862 -1.893787,3.635333 -2.641408,4.158987 -1.962982,1.374926 -5.030997,-1.614123 -3.900585,-3.800097 0.554105,-1.071522 2.373843,-2.606005 3.426856,-2.889553 0.29063,-0.07827 0.584714,-0.109621 0.871582,-0.100485 z m 5.5084,3.46992 c 0.67034,0.0068 1.270261,0.279677 1.601658,0.785452 0.495341,0.755985 0.724025,4.040088 0.332225,4.772169 -0.229203,0.428271 -0.470028,0.504958 -1.505274,0.48193 -1.440692,-0.03211 -1.903543,-0.128618 -2.942871,-0.613186 -0.686715,-0.320192 -0.766992,-0.462087 -0.766992,-1.347359 0,-1.452201 0.993357,-3.299082 2.040527,-3.795999 0.411773,-0.195398 0.838518,-0.287109 1.240722,-0.282995 z m 5.924705,0.0083 c 0.814953,-0.01479 1.345352,0.401646 1.999511,1.427344 1.370694,2.149207 1.259181,2.655461 -0.699314,3.191018 -1.209911,0.330835 -3.347575,0.335598 -3.549903,0.0083 -0.08571,-0.138647 -0.212926,-0.865832 -0.280957,-1.616013 -0.155068,-1.710113 0.291917,-2.505009 1.605761,-2.85879 0.349881,-0.09419 0.653252,-0.146838 0.924902,-0.151744 z" />
  </g>
</svg>
