<?xml version="1.0" encoding="UTF-8" standalone="no"?>
<svg
   width="64"
   height="64"
   version="1.1"
   id="svg73"
   sodipodi:docname="Logo.svg"
   inkscape:version="1.3.2 (091e20ef0f, 2023-11-25)"
   xmlns:inkscape="http://www.inkscape.org/namespaces/inkscape"
   xmlns:sodipodi="http://sodipodi.sourceforge.net/DTD/sodipodi-0.dtd"
   xmlns="http://www.w3.org/2000/svg"
   xmlns:svg="http://www.w3.org/2000/svg"
   xmlns:rdf="http://www.w3.org/1999/02/22-rdf-syntax-ns#"
   xmlns:cc="http://creativecommons.org/ns#"
   xmlns:dc="http://purl.org/dc/elements/1.1/">
  <metadata
     id="metadata77">
    <rdf:RDF>
      <cc:Work
         rdf:about="">
        <dc:format>image/svg+xml</dc:format>
        <dc:type
           rdf:resource="http://purl.org/dc/dcmitype/StillImage" />
      </cc:Work>
    </rdf:RDF>
  </metadata>
  <sodipodi:namedview
     pagecolor="#f5f7fa"
     bordercolor="#666666"
     borderopacity="1"
     objecttolerance="10"
     gridtolerance="10"
     guidetolerance="10"
     inkscape:pageopacity="0"
     inkscape:pageshadow="2"
     inkscape:window-width="1377"
     inkscape:window-height="886"
     id="namedview75"
     showgrid="false"
     inkscape:zoom="6.2890624"
     inkscape:cx="38.797516"
     inkscape:cy="12.322982"
     inkscape:window-x="181"
     inkscape:window-y="77"
     inkscape:window-maximized="0"
     inkscape:current-layer="g877"
     inkscape:document-rotation="0"
     inkscape:pagecheckerboard="0"
     inkscape:showpageshadow="2"
     inkscape:deskcolor="#d1d1d1" />
  <defs
     id="defs29">
    <linearGradient
       id="b"
       x1="399.57"
       x2="399.57"
       y1="545.8"
       y2="517.8"
       gradientTransform="matrix(2.1429,0,0,2.1429,-825.86391,-1107.6662)"
       gradientUnits="userSpaceOnUse">
      <stop
         stop-color="#3889e9"
         offset="0"
         id="stop2" />
      <stop
         stop-color="#5ea5fb"
         offset="1"
         id="stop4" />
    </linearGradient>
    <linearGradient
       id="d"
       x2="1"
       gradientTransform="matrix(14.905727,-4.7106182,4.7106182,14.905727,322.04962,998.26962)"
       gradientUnits="userSpaceOnUse">
      <stop
         stop-color="#fafafa"
         offset="0"
         id="stop7" />
      <stop
         stop-color="#aaa"
         offset="1"
         id="stop8" />
    </linearGradient>
    <linearGradient
       id="e"
       x2="1"
       gradientTransform="matrix(21.439909,0,0,21.439909,26.63554,1159.7788)"
       gradientUnits="userSpaceOnUse">
      <stop
         stop-color="#f0f0f0"
         offset="0"
         id="stop9" />
      <stop
         stop-color="#b7f1ff"
         offset="1"
         id="stop10" />
    </linearGradient>
    <linearGradient
       id="a"
       x2="1"
       gradientTransform="matrix(0,-24.205325,24.205325,0,677.9578,44.069903)"
       gradientUnits="userSpaceOnUse">
      <stop
         stop-color="#006783"
         offset="0"
         id="stop1" />
      <stop
         stop-color="#13bee3"
         offset="1"
         id="stop2-6" />
    </linearGradient>
  </defs>
  <circle
     cx="32.516094"
     cy="31.877844"
     r="0"
     fill="url(#b)"
     stroke-width="1.5715"
     id="circle41"
     style="fill:url(#b)" />
  <g
     aria-label="GZ"
     transform="matrix(1.2212657,0,0,0.81882264,0.4960938,-0.1661539)"
     id="text93"
     style="font-weight:bold;font-size:11.5263px;line-height:1.25;font-family:sans-serif;-inkscape-font-specification:'sans-serif Bold';fill:#f2f2f2;stroke-width:0.288159" />
  <g
     id="g877"
     transform="matrix(1.1,0,0,1.1,-3.1845928,-3.2065454)">
    <rect
       x="6.3010068"
       y="5.4939413"
       width="51.635597"
       height="53.148327"
       rx="10.980581"
       ry="10.720582"
       fill="url(#linearGradient862)"
       stroke-width="3.0541"
       id="rect35-7-3"
       style="fill:#414141;fill-opacity:1;stroke:#dfdfdf;stroke-width:2.27272727;stroke-dasharray:none;stroke-opacity:1" />
    <path
       d="m 31.796268,18.865892 c 7.387217,0 13.383987,5.99677 13.383987,13.383986 0,7.387217 -5.99677,13.383987 -13.383987,13.383987 -7.387216,0 -13.383986,-5.99677 -13.383986,-13.383987 0,-7.387216 5.99677,-13.383986 13.383986,-13.383986 z M 12.159719,38.786276 c -0.209285,-0.630591 -0.389844,-1.277597 -0.540995,-1.938965 -0.824829,-3.620085 -0.643586,-7.23675 0.359068,-10.556586 1.034798,0.257161 2.393783,1.466364 2.192022,2.48338 -0.241431,1.216042 -0.3577,2.467649 -0.33855,3.737038 0.01915,1.231772 0.166197,2.480644 0.450715,3.729515 0.230488,1.01086 -1.094301,2.259731 -2.12226,2.545618 z m 39.387316,-0.365907 c -1.033431,-0.266736 -2.380105,-1.490302 -2.168768,-2.505266 0.261264,-1.254342 0.385057,-2.505265 0.380954,-3.737722 -0.0041,-1.269389 -0.143627,-2.51826 -0.407627,-3.730199 -0.220229,-1.012912 1.115503,-2.246737 2.145514,-2.523732 1.064207,3.30137 1.312477,6.913931 0.554673,10.548379 -0.138155,0.664104 -0.307088,1.313845 -0.504746,1.94854 z M 25.458897,12.548356 c 0.632643,-0.20313 1.281016,-0.377534 1.943752,-0.521161 3.628292,-0.788581 7.242906,-0.571089 10.552483,0.465762 -0.26742,1.032062 -1.490302,2.378053 -2.505266,2.166716 -1.21399,-0.253741 -2.464229,-0.383006 -3.732935,-0.376166 -1.232456,0.0062 -2.482695,0.140207 -3.734302,0.412414 -1.013596,0.220229 -2.248105,-1.116871 -2.523732,-2.147565 z m -0.01163,39.396206 c 0.276311,-1.031379 1.512188,-2.36711 2.5251,-2.146882 1.251607,0.272892 2.501846,0.407627 3.734302,0.415151 1.268706,0.0068 2.518945,-0.121057 3.733619,-0.374114 1.01428,-0.211337 2.236478,1.136021 2.503898,2.168084 -3.310261,1.034798 -6.924874,1.250239 -10.553166,0.459606 -0.662737,-0.144311 -1.310426,-0.318715 -1.943753,-0.521845 z M 50.259179,41.600681 c -0.300932,0.592975 -0.632642,1.176374 -0.996497,1.74883 -1.991628,3.133805 -4.688397,5.550158 -7.753124,7.173828 -0.545098,-0.915794 -0.642218,-2.732333 0.221596,-3.30479 1.034115,-0.684622 2.005307,-1.482778 2.893059,-2.38968 0.862446,-0.880228 1.646239,-1.863047 2.332913,-2.944353 0.556042,-0.875441 2.375317,-0.813203 3.302053,-0.283835 z M 22.054937,13.993517 c 0.549202,0.915793 0.650425,2.732333 -0.212705,3.307525 -1.06626,0.709927 -2.032664,1.514239 -2.894426,2.395151 -0.887752,0.906902 -1.664706,1.895193 -2.327442,2.94367 -0.553306,0.876125 -2.371214,0.81799 -3.298634,0.292042 1.558011,-3.09824 3.91623,-5.846304 7.006263,-7.904274 0.564933,-0.375482 1.140809,-0.720186 1.726944,-1.034114 z m 19.216611,-0.142943 c 0.590239,0.304352 1.171586,0.64085 1.741306,1.008125 3.12081,2.01283 5.518698,4.726012 7.121849,7.800998 -0.919897,0.538944 -2.736437,0.623752 -3.302738,-0.244166 -0.677782,-1.038218 -1.469783,-2.014882 -2.370529,-2.908789 -0.874757,-0.867917 -1.852105,-1.65855 -2.928624,-2.352747 -0.872021,-0.562197 -0.796788,-2.380789 -0.261264,-3.303421 z M 13.474932,41.868101 c 0.919213,-0.543047 2.736437,-0.631959 3.305474,0.235275 0.703088,1.071047 1.501244,2.042239 2.376001,2.910157 0.90143,0.893907 1.883566,1.677016 2.927939,2.346592 0.872021,0.559461 0.801576,2.377369 0.270156,3.301369 -3.087981,-1.578529 -5.81963,-3.955214 -7.857082,-7.05961 -0.372062,-0.566984 -0.712664,-1.145596 -1.022488,-1.733783 z"
       fill="url(#a)"
       id="path2"
       style="fill:#dfdfdf;stroke-width:0.683938;fill-opacity:1" />
  </g>
</svg>
