<?xml version="1.0" encoding="UTF-8" standalone="no"?>
<svg
   width="64"
   height="64"
   version="1.1"
   id="svg73"
   sodipodi:docname="audacious.svg"
   inkscape:version="1.4.2 (ebf0e940d0, 2025-05-08)"
   xmlns:inkscape="http://www.inkscape.org/namespaces/inkscape"
   xmlns:sodipodi="http://sodipodi.sourceforge.net/DTD/sodipodi-0.dtd"
   xmlns="http://www.w3.org/2000/svg"
   xmlns:svg="http://www.w3.org/2000/svg"
   xmlns:rdf="http://www.w3.org/1999/02/22-rdf-syntax-ns#"
   xmlns:cc="http://creativecommons.org/ns#"
   xmlns:dc="http://purl.org/dc/elements/1.1/">
  <metadata
     id="metadata77">
    <rdf:RDF>
      <cc:Work
         rdf:about="">
        <dc:format>image/svg+xml</dc:format>
        <dc:type
           rdf:resource="http://purl.org/dc/dcmitype/StillImage" />
      </cc:Work>
    </rdf:RDF>
  </metadata>
  <sodipodi:namedview
     pagecolor="#f5f7fa"
     bordercolor="#666666"
     borderopacity="1"
     objecttolerance="10"
     gridtolerance="10"
     guidetolerance="10"
     inkscape:pageopacity="0"
     inkscape:pageshadow="2"
     inkscape:window-width="1377"
     inkscape:window-height="886"
     id="namedview75"
     showgrid="false"
     inkscape:zoom="6.2890624"
     inkscape:cx="47.622361"
     inkscape:cy="45.396274"
     inkscape:window-x="28"
     inkscape:window-y="56"
     inkscape:window-maximized="0"
     inkscape:current-layer="g877"
     inkscape:document-rotation="0"
     inkscape:pagecheckerboard="0"
     inkscape:showpageshadow="2"
     inkscape:deskcolor="#d1d1d1" />
  <defs
     id="defs29" />
  <circle
     cx="32.516094"
     cy="31.877844"
     r="0"
     fill="url(#b)"
     stroke-width="1.5715"
     id="circle41"
     style="fill:url(#b)" />
  <g
     aria-label="GZ"
     transform="matrix(1.2212657,0,0,0.81882264,0.4960938,-0.1661539)"
     id="text93"
     style="font-weight:bold;font-size:11.5263px;line-height:1.25;font-family:sans-serif;-inkscape-font-specification:'sans-serif Bold';fill:#f2f2f2;stroke-width:0.288159" />
  <g
     id="g877"
     transform="matrix(1.1,0,0,1.1,-3.1845928,-3.2065454)">
    <rect
       x="8.3496294"
       y="8.369586"
       width="47.272728"
       height="47.272728"
       rx="9.8825235"
       ry="9.6485243"
       fill="url(#linearGradient862)"
       stroke-width="3.0541"
       id="rect35-7-3"
       style="fill:#414141;fill-opacity:1;stroke:#dfdfdf;stroke-width:2.04545;stroke-dasharray:none;stroke-opacity:1" />
    <path
       id="path11"
       style="fill:#dfdfdf;stroke:none;stroke-width:0.0435042;stroke-opacity:1;fill-opacity:1"
       d="m 31.703259,17.702128 -0.293654,0.01328 c -1.439682,0.06912 -2.784233,0.321902 -4.078507,0.76673 -2.260056,0.776756 -4.372862,2.169654 -5.949524,3.921487 -2.246455,2.49604 -3.501451,5.493363 -3.711442,8.864638 l -0.02959,0.468008 h 1.283709 1.28371 l 0.02959,-0.424164 c 0.149695,-2.139215 0.833582,-4.163033 1.982156,-5.862855 0.817514,-1.20987 1.98666,-2.379016 3.196531,-3.19653 1.699822,-1.148575 3.723639,-1.832461 5.862857,-1.982156 l 0.424164,-0.02959 v -1.269432 z m 0,3.102724 -0.402751,0.02959 c -1.06683,0.07881 -2.251207,0.326443 -3.160845,0.6607 -1.020774,0.375093 -2.32686,1.11408 -3.157786,1.785366 -0.472379,0.381629 -1.308013,1.213884 -1.696662,1.690544 -0.704265,0.863759 -1.445565,2.167637 -1.829208,3.216923 -0.219338,0.599905 -0.474748,1.635394 -0.569971,2.308434 -0.110837,0.78339 -0.110837,2.26122 0,3.044609 0.09568,0.676214 0.351679,1.712012 0.570991,2.308437 0.381269,1.036878 1.090284,2.295471 1.778228,3.155747 0.395147,0.494129 1.220416,1.321513 1.720113,1.725203 0.886618,0.716287 2.134351,1.425824 3.195512,1.815958 0.777287,0.285793 1.883668,0.534068 2.790717,0.627072 0.509211,0.05219 1.453054,0.05369 2.001529,0.0033 1.507747,-0.139128 2.873827,-0.535478 4.180472,-1.213357 3.103377,-1.610013 5.311903,-4.612631 5.89039,-8.008149 0.07776,-0.456215 0.174311,-1.315013 0.17434,-1.55595 v -0.09799 h -1.283716 c -1.19496,0 -1.283713,0.0054 -1.283713,0.07647 0,0.227389 -0.143603,1.254623 -0.223274,1.595719 -0.376115,1.608181 -1.220244,3.091929 -2.414501,4.245571 -0.680564,0.657422 -1.311911,1.104353 -2.16875,1.534541 -3.327701,1.670766 -7.421849,0.961543 -10.029031,-1.73743 -0.91487,-0.947079 -1.571697,-2.02406 -1.978077,-3.245476 -1.370876,-4.120331 0.462622,-8.541597 4.34973,-10.487905 0.97344,-0.48741 2.034382,-0.777441 3.208767,-0.877899 l 0.337496,-0.02959 v -1.284735 z m 0.453735,3.149628 c -0.936278,-0.02155 -1.883454,0.119463 -2.799895,0.434362 -0.544823,0.187207 -1.532786,0.693867 -1.983176,1.016569 -1.160038,0.831151 -1.975633,1.778715 -2.585776,3.0028 -0.352899,0.708004 -0.517748,1.161073 -0.670912,1.851644 -0.268071,1.208649 -0.268071,2.309065 0,3.517714 0.153165,0.690572 0.318013,1.143639 0.670912,1.85164 0.462426,0.927729 1.113488,1.781318 1.839407,2.412441 1.276419,1.10973 2.847795,1.816026 4.444557,1.996426 0.857424,0.09687 1.791884,0.04438 2.672442,-0.150892 0.690572,-0.153187 1.14364,-0.317998 1.851643,-0.670919 1.221044,-0.608631 2.171454,-1.426518 3.002804,-2.585778 0.322759,-0.450054 0.829167,-1.437784 1.016567,-1.983175 0.992934,-2.889715 0.257601,-6.111196 -1.89039,-8.286511 -1.502738,-1.521867 -3.508375,-2.358936 -5.568183,-2.406321 z m -0.192708,2.850876 c 0.812596,-9.82e-4 1.084107,0.03968 1.731327,0.256951 0.731521,0.245566 1.559961,0.778094 2.089215,1.343868 1.954677,2.089557 1.911236,5.302626 -0.0989,7.312769 -0.679787,0.679785 -1.48681,1.139596 -2.410398,1.374452 -0.410788,0.104475 -0.622021,0.132116 -1.115472,0.145813 -0.688437,0.01877 -0.967526,-0.01132 -1.569207,-0.171301 -1.77658,-0.472856 -3.20204,-1.927941 -3.683917,-3.759368 -0.125152,-0.475658 -0.13357,-0.555202 -0.13357,-1.289829 0,-0.734627 0.0085,-0.814171 0.13357,-1.289829 0.493048,-1.873892 1.916311,-3.297345 3.788935,-3.788933 0.471576,-0.123795 0.560321,-0.133703 1.268417,-0.134593 z m 11.797086,5.495793 -0.02887,0.424164 c -0.142829,2.080151 -0.779827,4.010091 -1.883252,5.709911 -0.853757,1.315206 -2.13216,2.593605 -3.447362,3.447359 -1.416511,0.919528 -3.023944,1.527657 -4.682124,1.771096 -0.331847,0.04872 -0.627751,0.08859 -0.657659,0.08867 -0.04228,1.76e-4 -0.05404,0.286125 -0.05404,1.283708 v 1.283712 h 0.106049 c 0.188896,0 1.120539,-0.128743 1.590618,-0.220237 2.893199,-0.56298 5.483632,-1.967906 7.547282,-4.091764 0.640393,-0.659081 1.079617,-1.192076 1.553914,-1.88733 1.507333,-2.209583 2.32367,-4.611735 2.496044,-7.341318 l 0.02946,-0.468009 h -1.284495 z" />
  </g>
</svg>
