<?xml version="1.0" encoding="UTF-8" standalone="no"?>
<svg
   width="64"
   height="64"
   version="1.1"
   id="svg73"
   sodipodi:docname="audacious.svg"
   inkscape:version="1.4.2 (ebf0e940d0, 2025-05-08)"
   xmlns:inkscape="http://www.inkscape.org/namespaces/inkscape"
   xmlns:sodipodi="http://sodipodi.sourceforge.net/DTD/sodipodi-0.dtd"
   xmlns="http://www.w3.org/2000/svg"
   xmlns:svg="http://www.w3.org/2000/svg"
   xmlns:rdf="http://www.w3.org/1999/02/22-rdf-syntax-ns#"
   xmlns:cc="http://creativecommons.org/ns#"
   xmlns:dc="http://purl.org/dc/elements/1.1/">
  <metadata
     id="metadata77">
    <rdf:RDF>
      <cc:Work
         rdf:about="">
        <dc:format>image/svg+xml</dc:format>
        <dc:type
           rdf:resource="http://purl.org/dc/dcmitype/StillImage" />
      </cc:Work>
    </rdf:RDF>
  </metadata>
  <sodipodi:namedview
     pagecolor="#f5f7fa"
     bordercolor="#666666"
     borderopacity="1"
     objecttolerance="10"
     gridtolerance="10"
     guidetolerance="10"
     inkscape:pageopacity="0"
     inkscape:pageshadow="2"
     inkscape:window-width="1377"
     inkscape:window-height="886"
     id="namedview75"
     showgrid="false"
     inkscape:zoom="6.2890624"
     inkscape:cx="46.82733"
     inkscape:cy="41.739131"
     inkscape:window-x="0"
     inkscape:window-y="49"
     inkscape:window-maximized="0"
     inkscape:current-layer="g877"
     inkscape:document-rotation="0"
     inkscape:pagecheckerboard="0"
     inkscape:showpageshadow="2"
     inkscape:deskcolor="#d1d1d1" />
  <defs
     id="defs29" />
  <circle
     cx="32.516094"
     cy="31.877844"
     r="0"
     fill="url(#b)"
     stroke-width="1.5715"
     id="circle41"
     style="fill:url(#b)" />
  <g
     aria-label="GZ"
     transform="matrix(1.2212657,0,0,0.81882264,0.4960938,-0.1661539)"
     id="text93"
     style="font-weight:bold;font-size:11.5263px;line-height:1.25;font-family:sans-serif;-inkscape-font-specification:'sans-serif Bold';fill:#f2f2f2;stroke-width:0.288159" />
  <g
     id="g877"
     transform="matrix(1.1,0,0,1.1,-3.1845928,-3.2065454)">
    <rect
       x="8.3496294"
       y="8.369586"
       width="47.272728"
       height="47.272728"
       rx="9.8825235"
       ry="9.6485243"
       fill="url(#linearGradient862)"
       stroke-width="3.0541"
       id="rect35-7-3"
       style="fill:#414141;fill-opacity:1;stroke:#dfdfdf;stroke-width:2.04545;stroke-dasharray:none;stroke-opacity:1" />
    <path
       style="fill:#dfdfdf;fill-opacity:1;stroke:none;stroke-width:0.5;stroke-dasharray:none;stroke-opacity:0.6"
       d="m 26.682977,47.319979 c 0,-0.01924 0.478862,-0.75112 1.06414,-1.625689 l 1.06414,-1.59012 0.383789,0.08937 c 1.6536,0.385211 3.928774,0.385211 5.582376,0 l 0.383788,-0.08937 1.064137,1.59012 c 0.585278,0.874569 1.064146,1.606125 1.064146,1.625689 0,0.01924 -2.386469,0.03553 -5.30326,0.03553 -2.91679,0 -5.303256,-0.01581 -5.303256,-0.03553 z m 4.745018,-4.272455 c -1.628117,-0.06004 -3.538278,-0.601053 -4.976009,-1.409372 -1.42147,-0.799177 -2.733023,-1.9637 -3.622573,-3.216466 -0.422509,-0.595026 -1.156107,-1.950265 -1.273698,-2.353005 l -0.04584,-0.156995 h 10.476361 10.476361 l -0.04584,0.156995 c -0.02543,0.08635 -0.216537,0.502411 -0.425157,0.924577 -1.913269,3.871762 -6.014045,6.222029 -10.563616,6.054269 z m -1.592341,-8.657755 c 0.03357,-0.190189 2.110313,-5.525156 2.150579,-5.52466 0.04075,5.22e-4 2.117524,5.334362 2.150577,5.52343 0.0212,0.121281 -0.08433,0.127541 -2.150577,0.127541 -2.058592,0 -2.171703,-0.0067 -2.150579,-0.126311 z m -2.84812,-6.444799 c -0.200383,-0.09703 -0.333459,-0.36294 -0.325322,-0.650037 0.0088,-0.312466 0.324624,-0.700162 1.031949,-1.267021 2.51964,-2.019271 6.064506,-2.019271 8.584148,0 0.707325,0.566859 1.023087,0.954554 1.031945,1.267021 0.01203,0.437005 -0.266119,0.731636 -0.691539,0.731636 -0.246911,0 -0.366992,-0.07707 -0.837504,-0.537463 -2.133633,-2.087759 -5.511552,-2.075407 -7.619925,0.02786 -0.203968,0.203475 -0.42956,0.401375 -0.501315,0.439777 -0.164167,0.08786 -0.478021,0.08237 -0.672437,-0.01178 z m -2.937948,-2.537196 c -0.226592,-0.158712 -0.315045,-0.553217 -0.190739,-0.850722 0.132522,-0.31717 1.163941,-1.330944 1.951884,-1.918492 0.678858,-0.506209 1.800884,-1.12057 2.581847,-1.413683 3.548843,-1.331962 7.384349,-0.619563 10.413244,1.934131 0.635767,0.53602 1.233586,1.191165 1.338326,1.466657 0.09078,0.238768 -0.02337,0.643802 -0.221279,0.782109 -0.08384,0.0587 -0.285085,0.106722 -0.447271,0.106722 -0.281786,0 -0.328722,-0.03364 -1.056024,-0.757119 -1.43941,-1.431837 -3.076326,-2.3116 -4.897516,-2.632191 -0.768175,-0.135223 -2.307576,-0.134787 -3.070977,8.82e-4 -1.828005,0.324844 -3.458276,1.201875 -4.904229,2.638307 -0.720949,0.716204 -0.768442,0.750131 -1.049997,0.750131 -0.162193,0 -0.363462,-0.04803 -0.447269,-0.106722 z m -3.25485,-2.495525 c -0.393057,-0.393057 -0.332941,-0.715463 0.260223,-1.395557 1.835068,-2.104013 4.70262,-3.805397 7.556293,-4.483323 2.311203,-0.549054 5.099111,-0.495266 7.317536,0.141189 2.728835,0.782886 5.307771,2.391471 7.022625,4.380294 0.558732,0.648 0.612605,0.97111 0.226329,1.357398 -0.150084,0.150085 -0.222996,0.171721 -0.480621,0.142684 -0.281663,-0.03175 -0.368707,-0.100243 -1.198398,-0.943082 -1.289783,-1.310182 -2.627518,-2.254295 -4.123862,-2.910428 -4.43467,-1.944558 -9.470823,-1.365644 -13.392287,1.539459 -0.299395,0.221799 -0.963859,0.825627 -1.47659,1.341842 -0.861752,0.867611 -0.955001,0.941143 -1.233284,0.972508 -0.25466,0.02872 -0.328307,0.0067 -0.477964,-0.142984 z"
       id="path1" />
  </g>
</svg>
