<?xml version="1.0" encoding="UTF-8" standalone="no"?>
<svg
   width="64"
   height="64"
   version="1.1"
   id="svg73"
   sodipodi:docname="partitionmanager.svg"
   inkscape:version="1.3.2 (091e20ef0f, 2023-11-25)"
   xmlns:inkscape="http://www.inkscape.org/namespaces/inkscape"
   xmlns:sodipodi="http://sodipodi.sourceforge.net/DTD/sodipodi-0.dtd"
   xmlns="http://www.w3.org/2000/svg"
   xmlns:svg="http://www.w3.org/2000/svg"
   xmlns:rdf="http://www.w3.org/1999/02/22-rdf-syntax-ns#"
   xmlns:cc="http://creativecommons.org/ns#"
   xmlns:dc="http://purl.org/dc/elements/1.1/">
  <metadata
     id="metadata77">
    <rdf:RDF>
      <cc:Work
         rdf:about="">
        <dc:format>image/svg+xml</dc:format>
        <dc:type
           rdf:resource="http://purl.org/dc/dcmitype/StillImage" />
      </cc:Work>
    </rdf:RDF>
  </metadata>
  <sodipodi:namedview
     pagecolor="#f5f7fa"
     bordercolor="#666666"
     borderopacity="1"
     objecttolerance="10"
     gridtolerance="10"
     guidetolerance="10"
     inkscape:pageopacity="0"
     inkscape:pageshadow="2"
     inkscape:window-width="1377"
     inkscape:window-height="886"
     id="namedview75"
     showgrid="false"
     inkscape:zoom="6.2890624"
     inkscape:cx="47.701864"
     inkscape:cy="45.396274"
     inkscape:window-x="74"
     inkscape:window-y="53"
     inkscape:window-maximized="0"
     inkscape:current-layer="g877"
     inkscape:document-rotation="0"
     inkscape:pagecheckerboard="0"
     inkscape:showpageshadow="2"
     inkscape:deskcolor="#d1d1d1" />
  <defs
     id="defs29">
    <linearGradient
       id="b"
       x1="399.57"
       x2="399.57"
       y1="545.8"
       y2="517.8"
       gradientTransform="matrix(2.1429,0,0,2.1429,-825.86391,-1107.6662)"
       gradientUnits="userSpaceOnUse">
      <stop
         stop-color="#3889e9"
         offset="0"
         id="stop2" />
      <stop
         stop-color="#5ea5fb"
         offset="1"
         id="stop4" />
    </linearGradient>
  </defs>
  <circle
     cx="32.516094"
     cy="31.877844"
     r="0"
     fill="url(#b)"
     stroke-width="1.5715"
     id="circle41"
     style="fill:url(#b)" />
  <g
     aria-label="GZ"
     transform="matrix(1.2212657,0,0,0.81882264,0.4960938,-0.1661539)"
     id="text93"
     style="font-weight:bold;font-size:11.5263px;line-height:1.25;font-family:sans-serif;-inkscape-font-specification:'sans-serif Bold';fill:#f2f2f2;stroke-width:0.288159" />
  <g
     id="g877"
     transform="matrix(1.1,0,0,1.1,-3.1845928,-3.2065454)">
    <rect
       x="6.3010068"
       y="5.4939413"
       width="51.635597"
       height="53.148327"
       rx="10.980581"
       ry="10.720582"
       fill="url(#linearGradient862)"
       stroke-width="3.0541"
       id="rect35-7-3"
       style="fill:#414141;fill-opacity:1;stroke:#dfdfdf;stroke-width:2.27272727;stroke-dasharray:none;stroke-opacity:1" />
    <path
       id="path27"
       style="fill:#dfdfdf;fill-opacity:1;stroke-width:0.187615;stroke-opacity:0.3"
       d="m 15.125824,14.162833 v 1.685127 1.685126 l 3.234903,1.687384 c 4.447023,2.316934 6.20555,3.308383 6.28483,3.546211 0.06758,0.202675 -2.136111,1.464132 -6.941284,3.979335 l -2.578449,1.351261 v 1.680614 1.680615 l 1.452775,-0.796318 c 0.799706,-0.437936 3.608427,-1.981469 6.239711,-3.431161 l 4.782421,-2.6371 0.04964,-1.777618 0.04963,-1.779873 -5.114038,-2.813056 c -2.813446,-1.547069 -5.642174,-3.092665 -6.287098,-3.435674 z m 18.5725,19.537999 v 1.594892 1.594892 h 7.223266 7.223267 V 35.295724 33.700832 H 40.92159 Z" />
    <rect
       x="34.795551"
       y="33.974232"
       width="24.697144"
       height="25.420679"
       rx="5.2519779"
       ry="5.1276212"
       fill="url(#linearGradient862)"
       stroke-width="3.0541"
       id="rect35-7-3-9"
       style="fill:#414141;fill-opacity:1;stroke:#dfdfdf;stroke-width:2.27273;stroke-dasharray:none;stroke-opacity:1" />
    <path
       style="fill:#dfdfdf;fill-opacity:1;stroke:none;stroke-width:0.9801;stroke-dasharray:none;stroke-opacity:0.3"
       d="m 44.965375,55.264495 c -6.16e-4,-0.265003 -0.03659,-0.778125 -0.0799,-1.140253 -0.07163,-0.598431 -0.120613,-0.678451 -0.538259,-0.87843 -0.252739,-0.121028 -0.674215,-0.39077 -0.936682,-0.599578 l -0.477217,-0.379546 -0.899539,0.454909 c -0.494754,0.250202 -0.944174,0.454862 -0.998704,0.454772 -0.0545,-7.2e-5 -0.352396,-0.477095 -0.661839,-1.060064 -0.309489,-0.582959 -0.756863,-1.414497 -0.994224,-1.847857 l -0.431537,-0.787933 0.859039,-0.642638 0.859045,-0.642638 0.0075,-1.25785 0.0075,-1.257854 -0.858894,-0.645449 -0.858906,-0.645449 0.780728,-1.484587 c 0.429388,-0.816528 0.88793,-1.664957 1.018943,-1.885401 l 0.238228,-0.400789 0.952914,0.501423 0.952909,0.501428 0.559404,-0.428795 c 0.307702,-0.235858 0.734945,-0.501809 0.949491,-0.591057 0.34487,-0.143476 0.399334,-0.239391 0.469772,-0.828243 0.0439,-0.366282 0.0802,-0.911729 0.08083,-1.212078 l 0.0012,-0.546093 h 2.047276 2.047266 v 0.430852 c 0,0.236939 0.03659,0.782516 0.08132,1.212304 0.0733,0.704366 0.117321,0.796402 0.446173,0.933195 0.200644,0.08349 0.633564,0.34358 0.961976,0.578091 l 0.597119,0.426325 0.972208,-0.490872 0.9722,-0.490866 0.984565,1.889138 0.984556,1.889142 -0.856832,0.643858 -0.856845,0.643859 0.01247,1.261552 0.01247,1.261553 0.848335,0.634624 0.848325,0.634622 -0.861081,1.627481 c -0.473592,0.895116 -0.92882,1.743125 -1.011613,1.88447 -0.146845,0.250659 -0.174286,0.245213 -1.119133,-0.223927 l -0.968674,-0.480876 -0.5526,0.423581 c -0.303958,0.232948 -0.731797,0.498118 -0.950824,0.589227 -0.392351,0.163184 -0.399542,0.182557 -0.487381,1.310088 l -0.08918,1.144449 h -2.031155 -2.03077 l -0.0012,-0.481842 z m 3.521555,-5.358756 c 1.060606,-0.624164 1.598437,-1.631141 1.596488,-2.989109 -0.0035,-2.507135 -2.275742,-4.083832 -4.357368,-3.023695 -1.24282,0.632947 -1.856321,1.790488 -1.759363,3.319517 0.154287,2.433393 2.543213,3.856771 4.520243,2.693287 z"
       id="path792" />
  </g>
</svg>
