<?xml version="1.0" encoding="UTF-8" standalone="no"?>
<svg
   width="64"
   height="64"
   version="1.1"
   id="svg73"
   sodipodi:docname="audacious.svg"
   inkscape:version="1.4.2 (ebf0e940d0, 2025-05-08)"
   xmlns:inkscape="http://www.inkscape.org/namespaces/inkscape"
   xmlns:sodipodi="http://sodipodi.sourceforge.net/DTD/sodipodi-0.dtd"
   xmlns="http://www.w3.org/2000/svg"
   xmlns:svg="http://www.w3.org/2000/svg"
   xmlns:rdf="http://www.w3.org/1999/02/22-rdf-syntax-ns#"
   xmlns:cc="http://creativecommons.org/ns#"
   xmlns:dc="http://purl.org/dc/elements/1.1/">
  <metadata
     id="metadata77">
    <rdf:RDF>
      <cc:Work
         rdf:about="">
        <dc:format>image/svg+xml</dc:format>
        <dc:type
           rdf:resource="http://purl.org/dc/dcmitype/StillImage" />
      </cc:Work>
    </rdf:RDF>
  </metadata>
  <sodipodi:namedview
     pagecolor="#f5f7fa"
     bordercolor="#666666"
     borderopacity="1"
     objecttolerance="10"
     gridtolerance="10"
     guidetolerance="10"
     inkscape:pageopacity="0"
     inkscape:pageshadow="2"
     inkscape:window-width="1377"
     inkscape:window-height="886"
     id="namedview75"
     showgrid="false"
     inkscape:zoom="6.2890624"
     inkscape:cx="47.622361"
     inkscape:cy="45.396274"
     inkscape:window-x="20"
     inkscape:window-y="75"
     inkscape:window-maximized="0"
     inkscape:current-layer="g877"
     inkscape:document-rotation="0"
     inkscape:pagecheckerboard="0"
     inkscape:showpageshadow="2"
     inkscape:deskcolor="#d1d1d1" />
  <defs
     id="defs29" />
  <circle
     cx="32.516094"
     cy="31.877844"
     r="0"
     fill="url(#b)"
     stroke-width="1.5715"
     id="circle41"
     style="fill:url(#b)" />
  <g
     aria-label="GZ"
     transform="matrix(1.2212657,0,0,0.81882264,0.4960938,-0.1661539)"
     id="text93"
     style="font-weight:bold;font-size:11.5263px;line-height:1.25;font-family:sans-serif;-inkscape-font-specification:'sans-serif Bold';fill:#f2f2f2;stroke-width:0.288159" />
  <g
     id="g877"
     transform="matrix(1.1,0,0,1.1,-3.1845928,-3.2065454)">
    <rect
       x="8.3496294"
       y="8.369586"
       width="47.272728"
       height="47.272728"
       rx="9.8825235"
       ry="9.6485243"
       fill="url(#linearGradient862)"
       stroke-width="3.0541"
       id="rect35-7-3"
       style="fill:#414141;fill-opacity:1;stroke:#dfdfdf;stroke-width:2.04545;stroke-dasharray:none;stroke-opacity:1" />
    <path
       id="path5"
       style="fill:#dfdfdf;fill-opacity:1;stroke:none;stroke-width:0.550001;stroke-dasharray:none;stroke-opacity:0.6"
       d="m 30.76436,15.813278 -6.160979,3.419594 c -4.539378,2.519231 -6.312785,3.573206 -6.738712,4.006462 -1.009459,1.026826 -1.014058,1.065238 -0.969362,9.040518 l 0.03883,6.972782 0.412177,0.743293 c 0.226175,0.408812 0.645808,0.914293 0.932824,1.122357 0.529035,0.383492 11.820289,6.709009 12.438418,6.968204 0.184805,0.07748 0.830532,0.126273 1.435201,0.108475 l 1.099524,-0.0323 5.891522,-3.274585 c 3.240257,-1.80098 6.16127,-3.467043 6.492096,-3.701618 0.354904,-0.251687 0.777014,-0.734563 1.028728,-1.179442 l 0.425879,-0.754704 v -7.264759 -7.263928 l -0.404198,-0.731873 c -0.222718,-0.402036 -0.564301,-0.864675 -0.75928,-1.028731 -0.19499,-0.164058 -3.124907,-1.840345 -6.510355,-3.724448 L 33.261416,15.813273 H 32.01232 Z m -7.592756,6.236335 h 8.306362 8.30636 l 0.458991,0.45899 c 0.251893,0.25188 0.498756,0.62226 0.549193,0.823215 0.233855,0.931767 0.153383,1.042762 -5.924637,8.143089 l -5.836716,6.818643 5.910933,0.03553 5.912069,0.03553 v 1.781152 1.780013 h -8.306358 -8.307502 l -0.45785,-0.458108 c -0.251882,-0.2519 -0.498751,-0.62226 -0.549189,-0.823214 -0.235525,-0.938403 -0.159507,-1.043074 5.924634,-8.14766 l 5.835575,-6.81407 -5.910931,-0.0354 -5.910934,-0.03654 v -1.780012 z" />
  </g>
</svg>
