<?xml version="1.0" encoding="UTF-8" standalone="no"?>
<svg
   width="64"
   height="64"
   version="1.1"
   id="svg73"
   sodipodi:docname="hwloc.svg"
   inkscape:version="1.3.2 (091e20ef0f, 2023-11-25)"
   xmlns:inkscape="http://www.inkscape.org/namespaces/inkscape"
   xmlns:sodipodi="http://sodipodi.sourceforge.net/DTD/sodipodi-0.dtd"
   xmlns="http://www.w3.org/2000/svg"
   xmlns:svg="http://www.w3.org/2000/svg"
   xmlns:rdf="http://www.w3.org/1999/02/22-rdf-syntax-ns#"
   xmlns:cc="http://creativecommons.org/ns#"
   xmlns:dc="http://purl.org/dc/elements/1.1/">
  <metadata
     id="metadata77">
    <rdf:RDF>
      <cc:Work
         rdf:about="">
        <dc:format>image/svg+xml</dc:format>
        <dc:type
           rdf:resource="http://purl.org/dc/dcmitype/StillImage" />
      </cc:Work>
    </rdf:RDF>
  </metadata>
  <sodipodi:namedview
     pagecolor="#f5f7fa"
     bordercolor="#666666"
     borderopacity="1"
     objecttolerance="10"
     gridtolerance="10"
     guidetolerance="10"
     inkscape:pageopacity="0"
     inkscape:pageshadow="2"
     inkscape:window-width="1377"
     inkscape:window-height="886"
     id="namedview75"
     showgrid="false"
     inkscape:zoom="4.4470387"
     inkscape:cx="47.784608"
     inkscape:cy="14.054296"
     inkscape:window-x="181"
     inkscape:window-y="77"
     inkscape:window-maximized="0"
     inkscape:current-layer="g877"
     inkscape:document-rotation="0"
     inkscape:pagecheckerboard="0"
     inkscape:showpageshadow="2"
     inkscape:deskcolor="#d1d1d1" />
  <defs
     id="defs29">
    <linearGradient
       id="b"
       x1="399.57"
       x2="399.57"
       y1="545.8"
       y2="517.8"
       gradientTransform="matrix(2.1429,0,0,2.1429,-825.86391,-1107.6662)"
       gradientUnits="userSpaceOnUse">
      <stop
         stop-color="#3889e9"
         offset="0"
         id="stop2" />
      <stop
         stop-color="#5ea5fb"
         offset="1"
         id="stop4" />
    </linearGradient>
    <linearGradient
       id="d"
       x2="1"
       gradientTransform="matrix(14.905727,-4.7106182,4.7106182,14.905727,322.04962,998.26962)"
       gradientUnits="userSpaceOnUse">
      <stop
         stop-color="#fafafa"
         offset="0"
         id="stop7" />
      <stop
         stop-color="#aaa"
         offset="1"
         id="stop8" />
    </linearGradient>
    <linearGradient
       id="e"
       x2="1"
       gradientTransform="matrix(21.439909,0,0,21.439909,26.63554,1159.7788)"
       gradientUnits="userSpaceOnUse">
      <stop
         stop-color="#f0f0f0"
         offset="0"
         id="stop9" />
      <stop
         stop-color="#b7f1ff"
         offset="1"
         id="stop10" />
    </linearGradient>
  </defs>
  <circle
     cx="32.516094"
     cy="31.877844"
     r="0"
     fill="url(#b)"
     stroke-width="1.5715"
     id="circle41"
     style="fill:url(#b)" />
  <g
     aria-label="GZ"
     transform="matrix(1.2212657,0,0,0.81882264,0.4960938,-0.1661539)"
     id="text93"
     style="font-weight:bold;font-size:11.5263px;line-height:1.25;font-family:sans-serif;-inkscape-font-specification:'sans-serif Bold';fill:#f2f2f2;stroke-width:0.288159" />
  <g
     id="g877"
     transform="matrix(1.1,0,0,1.1,-3.1845928,-3.2065454)">
    <rect
       x="6.3010068"
       y="5.4939413"
       width="51.635597"
       height="53.148327"
       rx="10.980581"
       ry="10.720582"
       fill="url(#linearGradient862)"
       stroke-width="3.0541"
       id="rect35-7-3"
       style="fill:#414141;fill-opacity:1;stroke:#dfdfdf;stroke-width:2.27272727;stroke-dasharray:none;stroke-opacity:1" />
    <path
       id="path103"
       style="fill:#dfdfdf;fill-opacity:1;stroke:none;stroke-width:1.1979;stroke-dasharray:none;stroke-opacity:0.3"
       d="m 32.107837,12.116322 c -3.638737,0 -6.686668,2.277627 -7.598905,5.676539 -0.19812,0.738238 -0.205516,1.059006 -0.205516,8.028908 0,6.969903 0.0073,7.293117 0.205516,8.031354 0.73632,2.743459 2.840576,4.759214 5.713308,5.475816 1.059821,0.264385 2.658095,0.266762 3.732661,0.0051 2.898814,-0.706394 5.0105,-2.718538 5.751844,-5.480705 0.198163,-0.73824 0.205526,-1.061455 0.205526,-8.031359 0,-6.969902 -0.0074,-7.290668 -0.205526,-8.028907 -0.91224,-3.39907 -3.960172,-5.676692 -7.598908,-5.676692 z M 16.342292,29.613468 v 1.400163 c 0,3.266868 0.462676,5.342882 1.734029,7.789023 1.465396,2.819484 4.216493,5.402477 7.198152,6.758484 1.006489,0.457735 2.683593,1.003236 3.593939,1.170065 l 0.637096,0.117491 v 2.611842 2.611846 h 2.602329 2.60233 v -2.611846 -2.611842 l 0.637096,-0.117491 c 0.910344,-0.166881 2.587449,-0.712331 3.593937,-1.170065 2.786896,-1.267432 5.466657,-3.690009 6.948964,-6.281156 1.393023,-2.435074 1.983215,-4.891397 1.983215,-8.26635 v -1.400164 h -2.592052 -2.589486 l -0.0488,2.065978 c -0.04208,1.808046 -0.08049,2.181978 -0.305681,2.991257 -0.998926,3.589401 -3.889929,6.300667 -7.691425,7.21378 -0.762768,0.1832 -1.171303,0.217612 -2.589485,0.212961 -1.471839,-0.005 -1.805262,-0.03744 -2.653709,-0.254574 -3.730206,-0.953455 -6.538656,-3.627724 -7.521834,-7.162376 -0.228444,-0.821287 -0.266024,-1.186665 -0.308272,-3.001049 l -0.04882,-2.065977 h -2.589483 z" />
  </g>
</svg>
