<?xml version="1.0" encoding="UTF-8" standalone="no"?>
<svg
   width="64"
   height="64"
   version="1.1"
   id="svg73"
   sodipodi:docname="partitionmanager.svg"
   inkscape:version="1.4.2 (ebf0e940d0, 2025-05-08)"
   xmlns:inkscape="http://www.inkscape.org/namespaces/inkscape"
   xmlns:sodipodi="http://sodipodi.sourceforge.net/DTD/sodipodi-0.dtd"
   xmlns="http://www.w3.org/2000/svg"
   xmlns:svg="http://www.w3.org/2000/svg"
   xmlns:rdf="http://www.w3.org/1999/02/22-rdf-syntax-ns#"
   xmlns:cc="http://creativecommons.org/ns#"
   xmlns:dc="http://purl.org/dc/elements/1.1/">
  <metadata
     id="metadata77">
    <rdf:RDF>
      <cc:Work
         rdf:about="">
        <dc:format>image/svg+xml</dc:format>
        <dc:type
           rdf:resource="http://purl.org/dc/dcmitype/StillImage" />
      </cc:Work>
    </rdf:RDF>
  </metadata>
  <sodipodi:namedview
     pagecolor="#f5f7fa"
     bordercolor="#666666"
     borderopacity="1"
     objecttolerance="10"
     gridtolerance="10"
     guidetolerance="10"
     inkscape:pageopacity="0"
     inkscape:pageshadow="2"
     inkscape:window-width="1377"
     inkscape:window-height="886"
     id="namedview75"
     showgrid="false"
     inkscape:zoom="6.2890624"
     inkscape:cx="47.622361"
     inkscape:cy="45.396274"
     inkscape:window-x="264"
     inkscape:window-y="102"
     inkscape:window-maximized="0"
     inkscape:current-layer="g877"
     inkscape:document-rotation="0"
     inkscape:pagecheckerboard="0"
     inkscape:showpageshadow="2"
     inkscape:deskcolor="#d1d1d1" />
  <defs
     id="defs29" />
  <circle
     cx="32.516094"
     cy="31.877844"
     r="0"
     fill="url(#b)"
     stroke-width="1.5715"
     id="circle41"
     style="fill:url(#b)" />
  <g
     aria-label="GZ"
     transform="matrix(1.2212657,0,0,0.81882264,0.4960938,-0.1661539)"
     id="text93"
     style="font-weight:bold;font-size:11.5263px;line-height:1.25;font-family:sans-serif;-inkscape-font-specification:'sans-serif Bold';fill:#f2f2f2;stroke-width:0.288159" />
  <g
     id="g877"
     transform="matrix(1.1,0,0,1.1,-3.1845928,-3.2065454)">
    <rect
       x="8.3496294"
       y="8.369586"
       width="47.272728"
       height="47.272728"
       rx="9.8825235"
       ry="9.6485243"
       fill="url(#linearGradient862)"
       stroke-width="3.0541"
       id="rect35-7-3"
       style="fill:#414141;fill-opacity:1;stroke:#dfdfdf;stroke-width:2.04545;stroke-dasharray:none;stroke-opacity:1" />
    <path
       id="path8"
       style="fill:#dfdfdf;stroke:none;stroke-width:0.441045;stroke-dasharray:none;stroke-opacity:0.6;fill-opacity:1"
       d="m 31.826776,16.450481 c -0.311353,0.01008 -0.512336,0.100344 -0.76909,0.316386 -0.597781,0.503 -0.596046,0.485503 -0.598181,4.890234 l -0.002,3.957356 0.367251,-0.06611 c 0.45775,-0.08206 1.901424,-0.08569 2.335755,-0.006 l 0.323507,0.059 V 21.58297 c 0,-3.833011 -0.0078,-4.034455 -0.170905,-4.354108 -0.229096,-0.448985 -0.622388,-0.713975 -1.132305,-0.762973 -0.134445,-0.01291 -0.250241,-0.01865 -0.354026,-0.01527 z m 0.05799,9.744863 c -1.012366,-0.0013 -1.872251,0.242836 -2.810841,0.797575 -1.834997,1.084543 -2.861341,2.870662 -2.859674,4.975687 9.9e-4,1.041291 0.145815,1.651797 0.625649,2.636881 0.712458,1.462658 2.314604,2.729611 3.876988,3.065172 1.927047,0.413883 3.938454,-0.179766 5.347008,-1.578874 0.484821,-0.481563 0.766856,-0.854499 1.025456,-1.356081 0.549497,-1.06581 0.670246,-1.563744 0.66838,-2.767098 -0.0019,-1.168583 -0.08003,-1.519519 -0.554444,-2.507683 C 36.6441,28.296174 35.758626,27.409169 34.565391,26.819975 33.633906,26.360026 32.93297,26.196646 31.884763,26.195344 Z m -1.383548,2.952248 0.02235,2.66333 c 0.01256,1.464754 0.0047,2.71227 -0.01831,2.772184 -0.02299,0.05991 -0.07785,0.10885 -0.121059,0.10885 -0.0432,0 -0.501213,-0.296302 -1.018333,-0.658202 -2.021196,-1.414543 -2.626671,-1.881664 -2.626671,-2.028523 0,-0.154753 0.641517,-0.656169 2.637899,-2.064133 z m 3.014304,0.134282 c 0.342437,0.06617 3.673242,2.456758 3.751854,2.704025 0.03235,0.10212 -1.099559,0.975476 -2.757937,2.127207 -0.828118,0.575122 -0.943234,0.632585 -1.053937,0.52188 -0.103261,-0.103257 -0.06781,-5.28756 0.03663,-5.352093 0.0047,-0.0028 0.01233,-0.0031 0.02336,-0.0011 z m -3.063135,9.108028 0.02444,4.059085 0.02444,4.060104 0.243139,0.367253 c 0.153166,0.231391 0.377744,0.42874 0.605305,0.532056 0.594535,0.269939 1.19397,0.181684 1.638893,-0.241077 0.509543,-0.484215 0.495433,-0.354948 0.495433,-4.741712 v -4.034668 l -0.382511,0.05698 c -0.493626,0.07403 -1.768812,0.07415 -2.263526,0 z" />
  </g>
</svg>
