<?xml version="1.0" encoding="UTF-8" standalone="no"?>
<svg
   width="64"
   height="64"
   version="1.1"
   id="svg73"
   sodipodi:docname="audacious.svg"
   inkscape:version="1.4.2 (ebf0e940d0, 2025-05-08)"
   xmlns:inkscape="http://www.inkscape.org/namespaces/inkscape"
   xmlns:sodipodi="http://sodipodi.sourceforge.net/DTD/sodipodi-0.dtd"
   xmlns="http://www.w3.org/2000/svg"
   xmlns:svg="http://www.w3.org/2000/svg"
   xmlns:rdf="http://www.w3.org/1999/02/22-rdf-syntax-ns#"
   xmlns:cc="http://creativecommons.org/ns#"
   xmlns:dc="http://purl.org/dc/elements/1.1/">
  <metadata
     id="metadata77">
    <rdf:RDF>
      <cc:Work
         rdf:about="">
        <dc:format>image/svg+xml</dc:format>
        <dc:type
           rdf:resource="http://purl.org/dc/dcmitype/StillImage" />
      </cc:Work>
    </rdf:RDF>
  </metadata>
  <sodipodi:namedview
     pagecolor="#f5f7fa"
     bordercolor="#666666"
     borderopacity="1"
     objecttolerance="10"
     gridtolerance="10"
     guidetolerance="10"
     inkscape:pageopacity="0"
     inkscape:pageshadow="2"
     inkscape:window-width="1377"
     inkscape:window-height="886"
     id="namedview75"
     showgrid="false"
     inkscape:zoom="6.2890624"
     inkscape:cx="46.82733"
     inkscape:cy="41.739131"
     inkscape:window-x="0"
     inkscape:window-y="49"
     inkscape:window-maximized="0"
     inkscape:current-layer="g877"
     inkscape:document-rotation="0"
     inkscape:pagecheckerboard="0"
     inkscape:showpageshadow="2"
     inkscape:deskcolor="#d1d1d1" />
  <defs
     id="defs29" />
  <circle
     cx="32.516094"
     cy="31.877844"
     r="0"
     fill="url(#b)"
     stroke-width="1.5715"
     id="circle41"
     style="fill:url(#b)" />
  <g
     aria-label="GZ"
     transform="matrix(1.2212657,0,0,0.81882264,0.4960938,-0.1661539)"
     id="text93"
     style="font-weight:bold;font-size:11.5263px;line-height:1.25;font-family:sans-serif;-inkscape-font-specification:'sans-serif Bold';fill:#f2f2f2;stroke-width:0.288159" />
  <g
     id="g877"
     transform="matrix(1.1,0,0,1.1,-3.1845928,-3.2065454)">
    <rect
       x="8.3496294"
       y="8.369586"
       width="47.272728"
       height="47.272728"
       rx="9.8825235"
       ry="9.6485243"
       fill="url(#linearGradient862)"
       stroke-width="3.0541"
       id="rect35-7-3"
       style="fill:#414141;fill-opacity:1;stroke:#dfdfdf;stroke-width:2.04545;stroke-dasharray:none;stroke-opacity:1" />
    <path
       id="path51393"
       style="fill:#dfdfdf;fill-opacity:1;stroke:none;stroke-width:0.496125;stroke-dasharray:none;stroke-opacity:0.6"
       d="m 40.15902,22.693851 c -3.653656,-0.0063 -5.856386,2.048776 -6.744849,6.290884 -0.461711,2.204554 -0.456294,6.118257 0.01139,7.854112 0.661863,2.456556 2.071583,4.034014 3.929907,4.400966 1.512288,0.298627 3.362026,-0.280489 4.296494,-1.344793 1.175177,-1.338449 1.739572,-3.691961 1.416966,-5.905306 -0.218104,-1.496675 -0.714079,-2.521952 -1.631586,-3.367675 -0.780411,-0.719358 -1.492177,-0.970502 -2.735173,-0.966807 -1.150052,0.0036 -1.955708,0.402169 -2.830138,1.401774 l -0.72748,0.830047 v -0.717981 c 0,-1.076075 0.406668,-2.991601 0.82625,-3.891917 0.463905,-0.995419 1.209543,-1.75701 2.112158,-2.159643 0.821444,-0.366424 2.615988,-0.518091 3.439857,-0.29061 l 0.581212,0.15955 v -1.052279 c 0,-1.241698 0.0055,-1.237018 -1.945006,-1.240322 z m -14.484993,0.0152 c -0.129625,6.38e-4 -0.262621,0.0046 -0.398878,0.01139 -1.144338,0.05541 -1.478533,0.137637 -2.269811,0.562214 -0.51029,0.27381 -1.200891,0.73076 -1.536633,1.01429 l -0.611614,0.514757 0.510945,0.795857 c 0.280824,0.437619 0.55671,0.795858 0.613513,0.795858 0.05682,0 0.358846,-0.210372 0.670497,-0.467257 0.89107,-0.734498 1.782656,-1.073179 2.843435,-1.076973 1.721367,-0.0063 2.560947,0.948247 2.554722,2.904216 -0.0069,2.230071 -0.417704,2.903582 -5.569105,9.155218 l -1.717079,2.085565 v 1.044687 1.044679 h 5.025874 5.02587 v -1.160543 -1.158644 h -3.724767 c -2.153632,0 -3.70329,-0.05974 -3.673483,-0.140569 0.02832,-0.07684 0.957142,-1.198191 2.062772,-2.492033 4.112345,-4.812392 4.815068,-6.166362 4.687775,-9.02606 -0.05307,-1.192282 -0.130356,-1.53475 -0.510945,-2.231821 -0.828758,-1.517903 -2.038743,-2.184439 -3.983088,-2.174835 z m -11.354748,4.626974 c -0.241433,-0.0021 -0.499112,0.121131 -0.752171,0.374186 l -0.379885,0.379884 v 3.852028 c 0,3.662834 0.01439,3.871075 0.319107,4.258505 0.493257,0.627074 1.231556,0.525666 1.618308,-0.222234 0.329775,-0.637717 0.329775,-7.379741 0,-8.017461 -0.212891,-0.411666 -0.49494,-0.622305 -0.805359,-0.624895 z m 35.410928,0 c -0.241418,-0.0021 -0.499102,0.121127 -0.75217,0.374186 l -0.379882,0.379883 v 3.852028 c 0,3.662846 0.01603,3.871075 0.320992,4.258505 0.493262,0.627078 1.231548,0.525666 1.618301,-0.222234 0.329754,-0.637721 0.329754,-7.379739 0,-8.017461 -0.212883,-0.411681 -0.496818,-0.622318 -0.807245,-0.624909 z M 38.345073,31.66101 c 1.123627,0 1.791155,0.38607 2.275511,1.314403 0.272614,0.522546 0.322901,0.894749 0.322901,2.397069 0,1.659276 -0.02898,1.826252 -0.423573,2.497735 -0.293786,0.499774 -0.627206,0.817704 -1.092162,1.042794 -0.7624,0.369068 -1.521186,0.406166 -2.195738,0.106369 -1.708233,-0.759229 -2.609774,-4.095151 -1.58032,-5.84642 0.598385,-1.017952 1.478658,-1.51194 2.693381,-1.51194 z" />
  </g>
</svg>
