<?xml version="1.0" encoding="UTF-8" standalone="no"?>
<svg
   width="64"
   height="64"
   version="1.1"
   id="svg73"
   sodipodi:docname="hwloc.svg"
   inkscape:version="1.3.2 (091e20ef0f, 2023-11-25)"
   xmlns:inkscape="http://www.inkscape.org/namespaces/inkscape"
   xmlns:sodipodi="http://sodipodi.sourceforge.net/DTD/sodipodi-0.dtd"
   xmlns="http://www.w3.org/2000/svg"
   xmlns:svg="http://www.w3.org/2000/svg"
   xmlns:rdf="http://www.w3.org/1999/02/22-rdf-syntax-ns#"
   xmlns:cc="http://creativecommons.org/ns#"
   xmlns:dc="http://purl.org/dc/elements/1.1/">
  <metadata
     id="metadata77">
    <rdf:RDF>
      <cc:Work
         rdf:about="">
        <dc:format>image/svg+xml</dc:format>
        <dc:type
           rdf:resource="http://purl.org/dc/dcmitype/StillImage" />
      </cc:Work>
    </rdf:RDF>
  </metadata>
  <sodipodi:namedview
     pagecolor="#f5f7fa"
     bordercolor="#666666"
     borderopacity="1"
     objecttolerance="10"
     gridtolerance="10"
     guidetolerance="10"
     inkscape:pageopacity="0"
     inkscape:pageshadow="2"
     inkscape:window-width="1377"
     inkscape:window-height="886"
     id="namedview75"
     showgrid="false"
     inkscape:zoom="4.4470387"
     inkscape:cx="47.784608"
     inkscape:cy="14.054296"
     inkscape:window-x="181"
     inkscape:window-y="77"
     inkscape:window-maximized="0"
     inkscape:current-layer="g877"
     inkscape:document-rotation="0"
     inkscape:pagecheckerboard="0"
     inkscape:showpageshadow="2"
     inkscape:deskcolor="#d1d1d1" />
  <defs
     id="defs29">
    <linearGradient
       id="b"
       x1="399.57"
       x2="399.57"
       y1="545.8"
       y2="517.8"
       gradientTransform="matrix(2.1429,0,0,2.1429,-825.86391,-1107.6662)"
       gradientUnits="userSpaceOnUse">
      <stop
         stop-color="#3889e9"
         offset="0"
         id="stop2" />
      <stop
         stop-color="#5ea5fb"
         offset="1"
         id="stop4" />
    </linearGradient>
    <linearGradient
       id="d"
       x2="1"
       gradientTransform="matrix(14.905727,-4.7106182,4.7106182,14.905727,322.04962,998.26962)"
       gradientUnits="userSpaceOnUse">
      <stop
         stop-color="#fafafa"
         offset="0"
         id="stop7" />
      <stop
         stop-color="#aaa"
         offset="1"
         id="stop8" />
    </linearGradient>
    <linearGradient
       id="e"
       x2="1"
       gradientTransform="matrix(21.439909,0,0,21.439909,26.63554,1159.7788)"
       gradientUnits="userSpaceOnUse">
      <stop
         stop-color="#f0f0f0"
         offset="0"
         id="stop9" />
      <stop
         stop-color="#b7f1ff"
         offset="1"
         id="stop10" />
    </linearGradient>
  </defs>
  <circle
     cx="32.516094"
     cy="31.877844"
     r="0"
     fill="url(#b)"
     stroke-width="1.5715"
     id="circle41"
     style="fill:url(#b)" />
  <g
     aria-label="GZ"
     transform="matrix(1.2212657,0,0,0.81882264,0.4960938,-0.1661539)"
     id="text93"
     style="font-weight:bold;font-size:11.5263px;line-height:1.25;font-family:sans-serif;-inkscape-font-specification:'sans-serif Bold';fill:#f2f2f2;stroke-width:0.288159" />
  <g
     id="g877"
     transform="matrix(1.1,0,0,1.1,-3.1845928,-3.2065454)">
    <rect
       x="6.3010068"
       y="5.4939413"
       width="51.635597"
       height="53.148327"
       rx="10.980581"
       ry="10.720582"
       fill="url(#linearGradient862)"
       stroke-width="3.0541"
       id="rect35-7-3"
       style="fill:#414141;fill-opacity:1;stroke:#dfdfdf;stroke-width:2.27272727;stroke-dasharray:none;stroke-opacity:1" />
    <path
       id="path84"
       style="fill:#dfdfdf;fill-opacity:1;stroke-width:0.196549;stroke-opacity:0.3"
       d="m 32.825217,12.419125 c -3.2341,-0.07176 -6.033137,0.56149 -8.963928,2.006424 -7.135349,3.517859 -11.469029,10.96221 -11.0318,18.948791 0.135095,2.467591 0.449786,3.940082 1.328159,6.217795 l 0.609731,1.583396 0.522285,-0.340299 c 1.89139,-1.228266 2.58663,-1.717269 2.585427,-1.822088 -7.49e-4,-0.06577 -0.215631,-0.750772 -0.47738,-1.521954 -3.001632,-8.843589 2.06719,-18.369281 11.090883,-20.839414 1.968234,-0.538784 6.10424,-0.495378 8.117879,0.08507 2.517481,0.725696 5.423608,2.391145 6.905511,3.956132 0.317479,0.335306 0.653993,0.609727 0.7468,0.609727 0.09275,0 0.836556,-0.452604 1.654287,-1.004395 l 1.486508,-1.002043 -0.954763,-0.983126 c -3.167055,-3.258578 -7.793792,-5.465743 -12.20399,-5.820758 -0.481384,-0.03873 -0.953594,-0.06301 -1.415609,-0.07326 z m -9.169534,8.0966 c -0.04391,0 -0.08036,1.005293 -0.08036,2.233303 v 2.233301 l 2.358558,1.611756 c 1.297212,0.886239 2.358558,1.646041 2.358558,1.689747 0,0.04372 -1.061344,0.808463 -2.358558,1.699198 l -2.358559,1.618848 v 2.221485 c 0,1.221304 0.03887,2.221484 0.08506,2.221484 0.310756,0 11.512534,-7.7431 11.381568,-7.867362 -0.235251,-0.223202 -11.289838,-7.66176 -11.386298,-7.66176 z m 26.102453,2.358555 c -0.06471,0 -0.79698,0.446791 -1.628298,0.992579 l -1.512498,0.992578 0.553006,1.316348 c 0.887205,2.117315 1.233497,4.254093 1.11782,6.898417 -0.11328,2.590186 -0.448049,4.00592 -1.434504,6.097265 -2.089316,4.429588 -5.849366,7.542807 -10.601682,8.779591 -2.072407,0.539351 -5.801924,0.501712 -7.843734,-0.08036 -2.799889,-0.798167 -5.244675,-2.235309 -7.23637,-4.256266 l -0.928772,-0.94295 -1.57631,1.035115 -1.578674,1.03512 0.713712,0.810602 c 2.689104,3.054433 6.68288,5.38131 10.686762,6.22725 2.143981,0.452986 5.605803,0.483968 7.623949,0.06856 10.058729,-2.07057 16.754735,-11.020993 15.933243,-21.302615 -0.0777,-0.972622 -0.329483,-2.448309 -0.557725,-3.280257 -0.444443,-1.620034 -1.53577,-4.390979 -1.729925,-4.390979 z m -8.647253,5.733321 c -0.08393,0.03605 -2.693412,1.778684 -5.799487,3.873418 l -5.645885,3.809609 4.977073,3.365313 c 2.73823,1.850965 5.327451,3.603908 5.752235,3.89469 0.424769,0.290771 0.793068,0.532292 0.82005,0.538827 0.02698,0.0064 0.04733,-1.02692 0.04481,-2.29711 l -0.0023,-2.308925 -2.356197,-1.550314 C 37.60603,37.0804 36.547353,36.355485 36.547353,36.321351 c 0,-0.03411 1.061329,-0.782178 2.358558,-1.661386 l 2.358556,-1.59758 v -2.261657 c 0,-1.242762 -0.06965,-2.229159 -0.153618,-2.193127 z" />
  </g>
</svg>
