<?xml version="1.0" encoding="UTF-8" standalone="no"?>
<svg
   width="64"
   height="64"
   version="1.1"
   id="svg73"
   sodipodi:docname="hwloc.svg"
   inkscape:version="1.3.2 (091e20ef0f, 2023-11-25)"
   xmlns:inkscape="http://www.inkscape.org/namespaces/inkscape"
   xmlns:sodipodi="http://sodipodi.sourceforge.net/DTD/sodipodi-0.dtd"
   xmlns="http://www.w3.org/2000/svg"
   xmlns:svg="http://www.w3.org/2000/svg"
   xmlns:rdf="http://www.w3.org/1999/02/22-rdf-syntax-ns#"
   xmlns:cc="http://creativecommons.org/ns#"
   xmlns:dc="http://purl.org/dc/elements/1.1/">
  <metadata
     id="metadata77">
    <rdf:RDF>
      <cc:Work
         rdf:about="">
        <dc:format>image/svg+xml</dc:format>
        <dc:type
           rdf:resource="http://purl.org/dc/dcmitype/StillImage" />
      </cc:Work>
    </rdf:RDF>
  </metadata>
  <sodipodi:namedview
     pagecolor="#f5f7fa"
     bordercolor="#666666"
     borderopacity="1"
     objecttolerance="10"
     gridtolerance="10"
     guidetolerance="10"
     inkscape:pageopacity="0"
     inkscape:pageshadow="2"
     inkscape:window-width="1377"
     inkscape:window-height="886"
     id="namedview75"
     showgrid="false"
     inkscape:zoom="4.4470387"
     inkscape:cx="47.784608"
     inkscape:cy="14.054296"
     inkscape:window-x="181"
     inkscape:window-y="77"
     inkscape:window-maximized="0"
     inkscape:current-layer="g877"
     inkscape:document-rotation="0"
     inkscape:pagecheckerboard="0"
     inkscape:showpageshadow="2"
     inkscape:deskcolor="#d1d1d1" />
  <defs
     id="defs29">
    <linearGradient
       id="b"
       x1="399.57"
       x2="399.57"
       y1="545.8"
       y2="517.8"
       gradientTransform="matrix(2.1429,0,0,2.1429,-825.86391,-1107.6662)"
       gradientUnits="userSpaceOnUse">
      <stop
         stop-color="#3889e9"
         offset="0"
         id="stop2" />
      <stop
         stop-color="#5ea5fb"
         offset="1"
         id="stop4" />
    </linearGradient>
    <linearGradient
       id="d"
       x2="1"
       gradientTransform="matrix(14.905727,-4.7106182,4.7106182,14.905727,322.04962,998.26962)"
       gradientUnits="userSpaceOnUse">
      <stop
         stop-color="#fafafa"
         offset="0"
         id="stop7" />
      <stop
         stop-color="#aaa"
         offset="1"
         id="stop8" />
    </linearGradient>
    <linearGradient
       id="e"
       x2="1"
       gradientTransform="matrix(21.439909,0,0,21.439909,26.63554,1159.7788)"
       gradientUnits="userSpaceOnUse">
      <stop
         stop-color="#f0f0f0"
         offset="0"
         id="stop9" />
      <stop
         stop-color="#b7f1ff"
         offset="1"
         id="stop10" />
    </linearGradient>
  </defs>
  <circle
     cx="32.516094"
     cy="31.877844"
     r="0"
     fill="url(#b)"
     stroke-width="1.5715"
     id="circle41"
     style="fill:url(#b)" />
  <g
     aria-label="GZ"
     transform="matrix(1.2212657,0,0,0.81882264,0.4960938,-0.1661539)"
     id="text93"
     style="font-weight:bold;font-size:11.5263px;line-height:1.25;font-family:sans-serif;-inkscape-font-specification:'sans-serif Bold';fill:#f2f2f2;stroke-width:0.288159" />
  <g
     id="g877"
     transform="matrix(1.1,0,0,1.1,-3.1845928,-3.2065454)">
    <rect
       x="6.3010068"
       y="5.4939413"
       width="51.635597"
       height="53.148327"
       rx="10.980581"
       ry="10.720582"
       fill="url(#linearGradient862)"
       stroke-width="3.0541"
       id="rect35-7-3"
       style="fill:#414141;fill-opacity:1;stroke:#dfdfdf;stroke-width:2.27272727;stroke-dasharray:none;stroke-opacity:1" />
    <path
       id="path40"
       style="fill:#dfdfdf;fill-opacity:1;stroke:none;stroke-width:1.31769;stroke-dasharray:none;stroke-opacity:0.3"
       d="M 32.829468,13.550493 C 29.353241,13.501125 25.801911,14.23229 22.527296,15.846155 11.983203,21.042716 9.2944727,33.160639 16.89623,41.227128 l 1.016577,1.078339 -0.651124,3.253052 c -0.357767,1.789708 -0.65311,3.444999 -0.656273,3.677694 -0.0035,0.253224 0.14567,0.572895 0.368033,0.795249 0.204326,0.204336 0.526959,0.36797 0.718038,0.365454 0.191083,-0.0025 1.943197,-0.875044 3.893878,-1.94051 l 3.546439,-1.937926 1.207024,0.352559 c 4.137965,1.20302 9.527774,1.037608 13.676178,-0.419464 4.07457,-1.431176 7.683733,-4.125428 9.810613,-7.321934 0.99038,-1.488452 1.594035,-2.778318 2.141241,-4.575884 0.365272,-1.20007 0.4057,-1.57276 0.416903,-3.826967 0.01509,-2.978857 -0.242111,-4.15917 -1.428346,-6.603919 C 47.763975,17.545777 40.47717,13.659092 32.829468,13.550493 Z m 4.810084,8.696238 4.426618,0.04122 c 4.312707,0.0391 4.426616,0.04741 4.426616,0.34229 0,0.253575 -0.136285,0.31924 -0.831279,0.404053 -0.633575,0.07733 -0.908874,0.194544 -1.170998,0.49928 l -0.344874,0.398912 v 5.733994 5.736586 l 0.344874,0.398912 c 0.262097,0.304738 0.537423,0.421961 1.170998,0.499281 0.695035,0.08481 0.831279,0.15048 0.831279,0.404054 0,0.294887 -0.113922,0.303205 -4.426616,0.342288 l -4.426618,0.04122 v -0.380917 c 0,-0.314155 0.07085,-0.380197 0.414351,-0.380892 0.697447,-0.0014 1.539368,-0.299919 1.701158,-0.602227 0.203513,-0.38019 0.208315,-11.726672 0.0051,-12.106277 -0.177537,-0.331703 -0.914961,-0.609945 -1.613653,-0.609945 -0.440859,0 -0.507002,-0.04998 -0.507002,-0.380899 z m -19.222317,0.0051 h 4.238741 4.236167 v 0.378324 c 0,0.332534 -0.06573,0.378317 -0.537885,0.378317 -0.75776,0 -1.367857,0.361671 -1.564756,0.926502 -0.09363,0.268627 -0.167287,1.473364 -0.167287,2.728028 v 2.246801 h 2.951935 2.951933 v -2.488727 c 0,-2.381599 -0.01563,-2.506566 -0.350011,-2.895313 -0.271224,-0.315316 -0.525149,-0.422672 -1.134961,-0.481267 -0.70471,-0.06773 -0.787527,-0.112832 -0.787527,-0.434942 V 22.25178 h 4.315949 4.313376 v 0.378324 c 0,0.332534 -0.06573,0.378323 -0.537884,0.378323 -0.757759,0 -1.367857,0.361671 -1.564758,0.926501 -0.110364,0.316619 -0.169862,2.28614 -0.169862,5.759748 0,6.030849 0.02771,6.196899 1.011429,6.470062 0.318807,0.08851 0.731486,0.161675 0.918783,0.162142 0.262118,6.51e-4 0.342288,0.08709 0.342288,0.378322 v 0.378324 h -4.313372 -4.315949 v -0.357734 c 0,-0.317238 0.09083,-0.372886 0.772085,-0.463251 0.516273,-0.06849 0.890834,-0.221696 1.134963,-0.465828 0.358105,-0.358081 0.365454,-0.412468 0.365454,-3.096056 v -2.7306 h -2.951934 -2.951936 v 2.383166 c 0.0012,3.408618 0.127616,3.720161 1.582772,3.919613 0.59499,0.08155 0.687155,0.143153 0.687155,0.452959 v 0.357735 h -4.236167 -4.238741 v -0.357735 c 0,-0.315879 0.08962,-0.370645 0.74892,-0.458102 0.555256,-0.07366 0.830252,-0.201637 1.060329,-0.494134 0.300367,-0.38189 0.308836,-0.578116 0.308836,-6.060861 0,-3.768685 -0.05335,-5.767511 -0.162142,-5.970782 -0.187574,-0.350491 -1.00934,-0.733482 -1.572474,-0.733482 -0.307889,0 -0.383468,-0.07433 -0.383468,-0.378324 z" />
  </g>
</svg>
