<?xml version="1.0" encoding="UTF-8" standalone="no"?>
<svg
   width="64"
   height="64"
   version="1.1"
   id="svg73"
   sodipodi:docname="audacious.svg"
   inkscape:version="1.4.2 (ebf0e940d0, 2025-05-08)"
   xmlns:inkscape="http://www.inkscape.org/namespaces/inkscape"
   xmlns:sodipodi="http://sodipodi.sourceforge.net/DTD/sodipodi-0.dtd"
   xmlns="http://www.w3.org/2000/svg"
   xmlns:svg="http://www.w3.org/2000/svg"
   xmlns:rdf="http://www.w3.org/1999/02/22-rdf-syntax-ns#"
   xmlns:cc="http://creativecommons.org/ns#"
   xmlns:dc="http://purl.org/dc/elements/1.1/">
  <metadata
     id="metadata77">
    <rdf:RDF>
      <cc:Work
         rdf:about="">
        <dc:format>image/svg+xml</dc:format>
        <dc:type
           rdf:resource="http://purl.org/dc/dcmitype/StillImage" />
      </cc:Work>
    </rdf:RDF>
  </metadata>
  <sodipodi:namedview
     pagecolor="#f5f7fa"
     bordercolor="#666666"
     borderopacity="1"
     objecttolerance="10"
     gridtolerance="10"
     guidetolerance="10"
     inkscape:pageopacity="0"
     inkscape:pageshadow="2"
     inkscape:window-width="1377"
     inkscape:window-height="886"
     id="namedview75"
     showgrid="false"
     inkscape:zoom="6.2890624"
     inkscape:cx="34.742858"
     inkscape:cy="35.06087"
     inkscape:window-x="1"
     inkscape:window-y="75"
     inkscape:window-maximized="0"
     inkscape:current-layer="g877"
     inkscape:document-rotation="0"
     inkscape:pagecheckerboard="0"
     inkscape:showpageshadow="2"
     inkscape:deskcolor="#d1d1d1" />
  <defs
     id="defs29" />
  <circle
     cx="32.516094"
     cy="31.877844"
     r="0"
     fill="url(#b)"
     stroke-width="1.5715"
     id="circle41"
     style="fill:url(#b)" />
  <g
     aria-label="GZ"
     transform="matrix(1.2212657,0,0,0.81882264,0.4960938,-0.1661539)"
     id="text93"
     style="font-weight:bold;font-size:11.5263px;line-height:1.25;font-family:sans-serif;-inkscape-font-specification:'sans-serif Bold';fill:#f2f2f2;stroke-width:0.288159" />
  <g
     id="g877"
     transform="matrix(1.1,0,0,1.1,-3.1845928,-3.2065454)">
    <rect
       x="8.3496294"
       y="8.369586"
       width="47.272728"
       height="47.272728"
       rx="9.8825235"
       ry="9.6485243"
       fill="url(#linearGradient862)"
       stroke-width="3.0541"
       id="rect35-7-3"
       style="fill:#414141;fill-opacity:1;stroke:#dfdfdf;stroke-width:2.04545;stroke-dasharray:none;stroke-opacity:1" />
    <path
       style="fill:#dfdfdf;stroke:none;stroke-width:0.0659759;stroke-opacity:1;fill-opacity:1"
       d="m 31.37711,43.62118 c -4.05479,-0.335722 -7.793531,-2.070517 -10.649909,-4.941617 -0.418554,-0.420718 -0.951951,-1.000539 -1.185328,-1.288505 -1.047692,-1.292745 -2.165844,-3.258915 -2.738948,-4.816186 -0.314152,-0.853622 -0.713142,-2.437669 -0.865224,-3.43505 -0.170423,-1.117686 -0.170423,-3.698561 0,-4.816248 0.200602,-1.315594 0.868331,-3.719642 1.097596,-3.951717 0.03431,-0.03477 0.202639,0.0028 0.408335,0.09164 0.192455,0.08292 0.473218,0.203733 0.623914,0.268458 l 0.273992,0.11769 -0.293305,0.879272 c -1.173434,3.517746 -1.085975,7.346624 0.244096,10.687053 1.845345,4.634504 5.798136,8.116858 10.589109,9.32885 3.605113,0.912004 7.30053,0.532328 10.618205,-1.090967 3.004693,-1.470148 5.411215,-3.820499 6.992966,-6.829744 0.209744,-0.399154 0.414506,-0.715964 0.454881,-0.704025 0.07166,0.02116 1.177515,0.484236 1.212843,0.507852 0.03587,0.02387 -0.481523,1.068552 -0.799527,1.61466 -2.632537,4.520903 -7.290309,7.61673 -12.446497,8.272638 -0.982273,0.124912 -2.689861,0.176137 -3.53721,0.105939 z m 1.639097,-2.604812 c -0.678216,-0.190777 -0.99418,-0.452319 -1.049207,-0.868553 -0.03035,-0.229266 0.05691,-2.032662 0.340974,-7.049433 0.05341,-0.943459 0.115126,-1.960312 0.13712,-2.259678 l 0.03996,-0.544302 0.340451,-0.001 c 0.187255,-5.97e-4 0.512282,-0.04147 0.722302,-0.09089 l 0.381843,-0.08985 0.105554,0.20634 c 0.05806,0.113482 1.069982,2.044069 2.248734,4.29019 1.178747,2.246116 2.171069,4.184828 2.205147,4.308263 0.212803,0.770915 -0.750657,1.54342 -2.502586,2.006462 -0.689319,0.182163 -2.455785,0.237161 -2.970293,0.09245 z m -5.062351,-0.525012 c -1.470346,-0.383325 -2.895488,-1.162563 -3.799884,-2.077694 -0.572736,-0.579532 -0.764965,-0.961582 -0.68861,-1.368594 0.05202,-0.277196 -0.122697,-0.09089 4.426363,-4.720654 1.453587,-1.479373 2.664009,-2.689773 2.689832,-2.689773 0.02584,0 0.159343,0.07095 0.296717,0.157674 0.137357,0.08671 0.403989,0.21244 0.592471,0.279392 0.289956,0.102984 0.342683,0.147255 0.342557,0.28767 -1.97e-4,0.242765 -0.683842,5.593836 -0.988799,7.73984 -0.179044,1.25994 -0.299323,1.907948 -0.379648,2.045489 -0.06465,0.110669 -0.248037,0.270314 -0.407493,0.354642 -0.401365,0.212289 -1.251261,0.208971 -2.083507,-0.008 z M 39.730078,38.261007 C 39.43081,38.057179 38.11116,35.971078 35.453266,31.500296 l -0.989288,-1.664063 0.241666,-0.148617 c 0.132905,-0.08174 0.360423,-0.257073 0.505569,-0.389623 l 0.263901,-0.241002 4.375666,1.898198 c 2.406611,1.04401 4.446881,1.965112 4.533943,2.046892 0.473769,0.445104 0.311778,1.378404 -0.440858,2.539759 -1.277067,1.970565 -3.349467,3.307888 -4.213787,2.719167 z m -17.91553,-2.653766 c -0.741863,-0.370938 -1.47958,-1.217877 -2.012902,-2.31093 -0.398659,-0.817054 -0.54978,-1.426727 -0.501657,-2.023814 0.0487,-0.604225 0.246951,-0.943236 0.682901,-1.167766 0.258892,-0.133336 3.156396,-0.789821 6.154613,-1.394444 1.61587,-0.325857 3.003956,-0.607822 3.084635,-0.626585 0.118852,-0.02761 0.171377,0.01422 0.276672,0.220664 0.07148,0.140123 0.238378,0.396791 0.370869,0.570359 l 0.240886,0.315585 -0.154692,0.146506 c -2.547357,2.412605 -6.580645,6.040115 -7.016192,6.310315 -0.281573,0.174678 -0.72763,0.158865 -1.125133,-0.03989 z M 32.03771,28.9463 c -0.395418,-0.130506 -0.759463,-0.379444 -1.068765,-0.730829 -0.286578,-0.325573 -0.561342,-0.944309 -0.527787,-1.188539 0.0186,-0.135279 0.131068,-0.09555 1.85086,0.653828 1.007092,0.438826 1.822379,0.827876 1.811744,0.864559 -0.0108,0.03668 -0.191689,0.153406 -0.402358,0.259403 -0.452289,0.227548 -1.208288,0.291884 -1.663694,0.141578 z M 19.035806,28.654037 c -0.9448,-0.599331 -0.996905,-3.268088 -0.100999,-5.173885 0.278975,-0.593461 0.690727,-1.036897 0.962805,-1.036897 0.08658,0 2.201826,0.871025 4.700601,1.935613 l 4.543226,1.935608 v 0.587974 0.587971 l -1.451478,0.244888 c -2.83963,0.479092 -6.336478,0.93766 -7.719192,1.012277 -0.653513,0.03527 -0.746556,0.02594 -0.934951,-0.09355 z"
       id="path1-6" />
  </g>
</svg>
