<?xml version="1.0" encoding="UTF-8" standalone="no"?>
<svg
   width="64"
   height="64"
   version="1.1"
   id="svg73"
   sodipodi:docname="audacious.svg"
   inkscape:version="1.4.2 (ebf0e940d0, 2025-05-08)"
   xmlns:inkscape="http://www.inkscape.org/namespaces/inkscape"
   xmlns:sodipodi="http://sodipodi.sourceforge.net/DTD/sodipodi-0.dtd"
   xmlns="http://www.w3.org/2000/svg"
   xmlns:svg="http://www.w3.org/2000/svg"
   xmlns:rdf="http://www.w3.org/1999/02/22-rdf-syntax-ns#"
   xmlns:cc="http://creativecommons.org/ns#"
   xmlns:dc="http://purl.org/dc/elements/1.1/">
  <metadata
     id="metadata77">
    <rdf:RDF>
      <cc:Work
         rdf:about="">
        <dc:format>image/svg+xml</dc:format>
        <dc:type
           rdf:resource="http://purl.org/dc/dcmitype/StillImage" />
      </cc:Work>
    </rdf:RDF>
  </metadata>
  <sodipodi:namedview
     pagecolor="#f5f7fa"
     bordercolor="#666666"
     borderopacity="1"
     objecttolerance="10"
     gridtolerance="10"
     guidetolerance="10"
     inkscape:pageopacity="0"
     inkscape:pageshadow="2"
     inkscape:window-width="1377"
     inkscape:window-height="886"
     id="namedview75"
     showgrid="false"
     inkscape:zoom="6.2890624"
     inkscape:cx="46.82733"
     inkscape:cy="41.739131"
     inkscape:window-x="0"
     inkscape:window-y="49"
     inkscape:window-maximized="0"
     inkscape:current-layer="g877"
     inkscape:document-rotation="0"
     inkscape:pagecheckerboard="0"
     inkscape:showpageshadow="2"
     inkscape:deskcolor="#d1d1d1" />
  <defs
     id="defs29" />
  <circle
     cx="32.516094"
     cy="31.877844"
     r="0"
     fill="url(#b)"
     stroke-width="1.5715"
     id="circle41"
     style="fill:url(#b)" />
  <g
     aria-label="GZ"
     transform="matrix(1.2212657,0,0,0.81882264,0.4960938,-0.1661539)"
     id="text93"
     style="font-weight:bold;font-size:11.5263px;line-height:1.25;font-family:sans-serif;-inkscape-font-specification:'sans-serif Bold';fill:#f2f2f2;stroke-width:0.288159" />
  <g
     id="g877"
     transform="matrix(1.1,0,0,1.1,-3.1845928,-3.2065454)">
    <rect
       x="8.3496294"
       y="8.369586"
       width="47.272728"
       height="47.272728"
       rx="9.8825235"
       ry="9.6485243"
       fill="url(#linearGradient862)"
       stroke-width="3.0541"
       id="rect35-7-3"
       style="fill:#414141;fill-opacity:1;stroke:#dfdfdf;stroke-width:2.04545;stroke-dasharray:none;stroke-opacity:1" />
    <path
       style="color:#6e6e6e;fill:#dfdfdf;fill-opacity:1;stroke:none;stroke-width:0.475;stroke-dasharray:none;stroke-opacity:0.6"
       class="ColorScheme-Text"
       d="m 24.225514,16.591809 c -3.880241,0 -3.880241,4.110437 -3.880241,4.110437 v 22.607406 c 0,4.11044 3.673232,4.103037 3.880241,4.11044 h 15.520962 c 0,0 3.880238,-0.0078 3.880238,-4.11044 V 20.702246 c 0,-4.110437 -3.880238,-4.110437 -3.880238,-4.110437 z m 7.760482,4.110437 c 1.074962,0 1.940117,0.923719 1.940117,2.055219 0,1.131686 -0.865155,2.05522 -1.940117,2.05522 -1.075292,0 -1.940121,-0.923534 -1.940121,-2.05522 0,-1.1315 0.864829,-2.055219 1.940121,-2.055219 z m 0,6.165657 c 4.285918,0 7.76048,3.680692 7.76048,8.220879 0,4.54018 -3.474562,8.22087 -7.76048,8.22087 -4.28592,0 -7.760482,-3.68069 -7.760482,-8.22087 0,-4.540187 3.474562,-8.220879 7.760482,-8.220879 z m 0,4.110438 c -2.143059,0 -3.880241,1.840304 -3.880241,4.110441 0,2.270133 1.737243,4.110434 3.880241,4.110434 2.142997,0 3.880239,-1.840301 3.880239,-4.110434 0,-2.270137 -1.737242,-4.110441 -3.880239,-4.110441 z"
       id="path5" />
  </g>
</svg>
