<?xml version="1.0" encoding="UTF-8" standalone="no"?>
<svg
   width="64"
   height="64"
   version="1.1"
   id="svg73"
   sodipodi:docname="audacious.svg"
   inkscape:version="1.4.2 (ebf0e940d0, 2025-05-08)"
   xmlns:inkscape="http://www.inkscape.org/namespaces/inkscape"
   xmlns:sodipodi="http://sodipodi.sourceforge.net/DTD/sodipodi-0.dtd"
   xmlns="http://www.w3.org/2000/svg"
   xmlns:svg="http://www.w3.org/2000/svg"
   xmlns:rdf="http://www.w3.org/1999/02/22-rdf-syntax-ns#"
   xmlns:cc="http://creativecommons.org/ns#"
   xmlns:dc="http://purl.org/dc/elements/1.1/">
  <metadata
     id="metadata77">
    <rdf:RDF>
      <cc:Work
         rdf:about="">
        <dc:format>image/svg+xml</dc:format>
        <dc:type
           rdf:resource="http://purl.org/dc/dcmitype/StillImage" />
      </cc:Work>
    </rdf:RDF>
  </metadata>
  <sodipodi:namedview
     pagecolor="#f5f7fa"
     bordercolor="#666666"
     borderopacity="1"
     objecttolerance="10"
     gridtolerance="10"
     guidetolerance="10"
     inkscape:pageopacity="0"
     inkscape:pageshadow="2"
     inkscape:window-width="1377"
     inkscape:window-height="886"
     id="namedview75"
     showgrid="false"
     inkscape:zoom="6.2890624"
     inkscape:cx="47.622361"
     inkscape:cy="45.396274"
     inkscape:window-x="0"
     inkscape:window-y="57"
     inkscape:window-maximized="0"
     inkscape:current-layer="g877"
     inkscape:document-rotation="0"
     inkscape:pagecheckerboard="0"
     inkscape:showpageshadow="2"
     inkscape:deskcolor="#d1d1d1" />
  <defs
     id="defs29" />
  <circle
     cx="32.516094"
     cy="31.877844"
     r="0"
     fill="url(#b)"
     stroke-width="1.5715"
     id="circle41"
     style="fill:url(#b)" />
  <g
     aria-label="GZ"
     transform="matrix(1.2212657,0,0,0.81882264,0.4960938,-0.1661539)"
     id="text93"
     style="font-weight:bold;font-size:11.5263px;line-height:1.25;font-family:sans-serif;-inkscape-font-specification:'sans-serif Bold';fill:#f2f2f2;stroke-width:0.288159" />
  <g
     id="g877"
     transform="matrix(1.1,0,0,1.1,-3.1845928,-3.2065454)">
    <rect
       x="8.3496294"
       y="8.369586"
       width="47.272728"
       height="47.272728"
       rx="9.8825235"
       ry="9.6485243"
       fill="url(#linearGradient862)"
       stroke-width="3.0541"
       id="rect35-7-3"
       style="fill:#414141;fill-opacity:1;stroke:#dfdfdf;stroke-width:2.04545;stroke-dasharray:none;stroke-opacity:1" />
    <path
       id="path5-9"
       style="fill:#dfdfdf;fill-opacity:1;stroke:none;stroke-width:0.496125;stroke-dasharray:none;stroke-opacity:0.6"
       d="m 31.411836,15.952683 -0.856153,0.483174 c -4.821884,2.72642 -7.441812,6.092874 -8.201266,10.535202 -0.199408,1.166419 -0.243289,2.812397 -0.09183,3.479709 0.435227,1.917595 1.492841,3.812732 2.821349,5.054978 2.00442,1.874265 5.102505,2.470748 7.346526,1.414206 0.732387,-0.344836 1.561375,-1.198561 1.778707,-1.830979 0.349324,-1.016506 0.123287,-2.589301 -0.461984,-3.209869 -0.239757,-0.254217 -0.349197,-0.301648 -0.680965,-0.300925 -0.229884,5.13e-4 -0.595299,0.09399 -0.875933,0.224634 -0.638051,0.297008 -0.982542,0.298571 -1.05677,0.0026 -0.07351,-0.292882 0.18207,-0.699662 0.816596,-1.29977 0.715723,-0.676903 1.175414,-0.864616 2.117777,-0.864629 0.670251,-1.1e-5 0.833715,0.03348 1.306835,0.269845 0.776394,0.387852 1.716178,1.358046 2.138965,2.206782 0.505662,1.015092 0.645756,1.659235 0.644232,2.971104 -0.0015,1.298892 -0.132284,1.892444 -0.672488,3.048815 -1.471596,3.150236 -5.25551,5.597954 -9.152073,5.92101 -2.441929,0.202448 -6.07036,-0.851534 -8.811594,-2.559976 -0.396291,-0.247009 -0.734706,-0.433346 -0.753019,-0.415363 -0.01833,0.01807 0.230429,0.368843 0.552403,0.77987 0.64045,0.817537 2.001037,2.189946 2.745057,2.769072 2.30321,1.792753 5.221093,2.996505 8.069878,3.328546 0.354765,0.04132 1.101885,0.07978 1.660031,0.08618 l 1.014387,0.01227 0.830721,-0.466225 c 4.47795,-2.509929 7.101875,-5.788079 8.009129,-10.009634 0.157513,-0.732871 0.196857,-1.226963 0.200641,-2.449791 0.0044,-1.450054 -0.0085,-1.570762 -0.251474,-2.295788 -0.634266,-1.893499 -1.73931,-3.576716 -3.014933,-4.592567 -0.68256,-0.543563 -1.977381,-1.183285 -2.849602,-1.407143 -0.83238,-0.213633 -2.318936,-0.218626 -3.089779,-0.01 -2.112926,0.57216 -3.193161,1.966101 -2.931548,3.78205 0.13892,0.964308 0.476314,1.656925 0.892886,1.830979 0.378016,0.15794 0.649105,0.118797 1.428335,-0.206266 0.425801,-0.177625 0.575406,-0.203571 0.743129,-0.12715 0.30852,0.140572 0.261127,0.421526 -0.16247,0.97059 -0.709716,0.919922 -1.584634,1.395019 -2.565634,1.394425 -0.703736,-4.27e-4 -1.146768,-0.12163 -1.681224,-0.460571 -1.915538,-1.214798 -2.878557,-3.826441 -2.353714,-6.380177 0.722688,-3.516382 4.171328,-6.511164 8.538925,-7.414339 1.765889,-0.365171 4.078815,-0.125826 6.344856,0.655535 1.102273,0.380084 2.792862,1.181159 3.656307,1.733497 0.286762,0.183438 0.542525,0.312213 0.569358,0.285386 0.08404,-0.08405 -0.920736,-1.322241 -1.750451,-2.157338 -2.965785,-2.984996 -6.819813,-4.663714 -10.926547,-4.758249 z m -2.25623,0.251472 c -0.01949,-0.0066 -0.06485,-0.0016 -0.131394,0.01132 -6.137933,1.198388 -11.112619,5.900906 -12.609179,11.919725 -0.365083,1.468277 -0.470124,2.366093 -0.466221,3.982665 0.0053,2.135623 0.375767,3.985046 1.205111,6.019914 l 0.380041,0.931024 0.860392,0.648472 c 2.5973,1.956524 5.428071,3.143405 8.377867,3.51221 1.127655,0.140979 2.91057,-0.116532 4.323148,-0.624454 2.572989,-0.925167 4.876188,-2.948064 5.769845,-5.070517 0.72479,-1.721386 0.702278,-3.40706 -0.06499,-4.96738 -0.377097,-0.766888 -1.11988,-1.572985 -1.739143,-1.888907 -0.555326,-0.283306 -1.299725,-0.327654 -1.758927,-0.103131 l -0.360263,0.176599 0.271253,0.01 c 1.042823,0.03577 1.797682,1.104016 1.979327,2.800172 0.286096,2.671516 -1.969755,4.680579 -5.257006,4.680579 -2.212237,0 -4.02913,-0.770842 -5.639872,-2.391853 C 22.9293,34.475585 22.078203,32.9752 21.58162,31.065461 c -0.391338,-1.504977 -0.26787,-3.701668 0.326352,-5.817886 0.960391,-3.420254 3.168546,-6.274017 6.621765,-8.557289 0.513274,-0.339377 0.68437,-0.465934 0.625866,-0.486001 z m 7.34511,4.665048 c -0.664079,-0.0069 -1.306416,0.05074 -1.917157,0.175188 -3.21786,0.655759 -6.013636,2.700317 -7.26741,5.314928 -0.823783,1.717913 -0.840122,3.578017 -0.04661,5.190604 0.372623,0.757265 1.152857,1.587411 1.790008,1.904446 0.49385,0.24573 1.328528,0.288 1.713718,0.08617 l 0.240177,-0.125736 -0.464811,-0.12009 c -0.879647,-0.225445 -1.405169,-1.026891 -1.633189,-2.493579 -0.207645,-1.335633 0.175582,-2.561061 1.077962,-3.442977 0.624213,-0.610058 1.350347,-1.012994 2.32122,-1.288469 1.075756,-0.305237 2.750045,-0.284239 3.869641,0.04946 2.235905,0.666397 3.860383,1.968013 5.153869,4.129595 0.884037,1.477338 1.376055,3.141457 1.376055,4.65233 0,4.944427 -2.45162,9.353401 -6.822372,12.267287 -0.383558,0.255702 -0.738804,0.504051 -0.78834,0.5524 -0.05903,0.05758 -0.02765,0.07142 0.09043,0.03954 0.09908,-0.0266 0.524099,-0.134501 0.945159,-0.240123 2.898443,-0.727634 6.013972,-2.712722 8.00913,-5.103033 3.801513,-4.554431 4.862121,-10.26642 2.932957,-15.789374 -0.509851,-1.459664 -0.657092,-1.694464 -1.405732,-2.252019 -3.001632,-2.2355 -6.296991,-3.47619 -9.174682,-3.506556 z" />
  </g>
</svg>
