<?xml version="1.0" encoding="UTF-8" standalone="no"?>
<svg
   width="64"
   height="64"
   version="1.1"
   id="svg73"
   sodipodi:docname="Logo.svg"
   inkscape:version="1.3.2 (091e20ef0f, 2023-11-25)"
   xmlns:inkscape="http://www.inkscape.org/namespaces/inkscape"
   xmlns:sodipodi="http://sodipodi.sourceforge.net/DTD/sodipodi-0.dtd"
   xmlns="http://www.w3.org/2000/svg"
   xmlns:svg="http://www.w3.org/2000/svg"
   xmlns:rdf="http://www.w3.org/1999/02/22-rdf-syntax-ns#"
   xmlns:cc="http://creativecommons.org/ns#"
   xmlns:dc="http://purl.org/dc/elements/1.1/">
  <metadata
     id="metadata77">
    <rdf:RDF>
      <cc:Work
         rdf:about="">
        <dc:format>image/svg+xml</dc:format>
        <dc:type
           rdf:resource="http://purl.org/dc/dcmitype/StillImage" />
      </cc:Work>
    </rdf:RDF>
  </metadata>
  <sodipodi:namedview
     pagecolor="#f5f7fa"
     bordercolor="#666666"
     borderopacity="1"
     objecttolerance="10"
     gridtolerance="10"
     guidetolerance="10"
     inkscape:pageopacity="0"
     inkscape:pageshadow="2"
     inkscape:window-width="1377"
     inkscape:window-height="886"
     id="namedview75"
     showgrid="false"
     inkscape:zoom="6.2890624"
     inkscape:cx="4.452174"
     inkscape:cy="12.322982"
     inkscape:window-x="181"
     inkscape:window-y="77"
     inkscape:window-maximized="0"
     inkscape:current-layer="g877"
     inkscape:document-rotation="0"
     inkscape:pagecheckerboard="0"
     inkscape:showpageshadow="2"
     inkscape:deskcolor="#d1d1d1" />
  <defs
     id="defs29">
    <linearGradient
       id="b"
       x1="399.57"
       x2="399.57"
       y1="545.8"
       y2="517.8"
       gradientTransform="matrix(2.1429,0,0,2.1429,-825.86391,-1107.6662)"
       gradientUnits="userSpaceOnUse">
      <stop
         stop-color="#3889e9"
         offset="0"
         id="stop2" />
      <stop
         stop-color="#5ea5fb"
         offset="1"
         id="stop4" />
    </linearGradient>
    <linearGradient
       id="d"
       x2="1"
       gradientTransform="matrix(14.905727,-4.7106182,4.7106182,14.905727,322.04962,998.26962)"
       gradientUnits="userSpaceOnUse">
      <stop
         stop-color="#fafafa"
         offset="0"
         id="stop7" />
      <stop
         stop-color="#aaa"
         offset="1"
         id="stop8" />
    </linearGradient>
    <linearGradient
       id="e"
       x2="1"
       gradientTransform="matrix(21.439909,0,0,21.439909,26.63554,1159.7788)"
       gradientUnits="userSpaceOnUse">
      <stop
         stop-color="#f0f0f0"
         offset="0"
         id="stop9" />
      <stop
         stop-color="#b7f1ff"
         offset="1"
         id="stop10" />
    </linearGradient>
  </defs>
  <circle
     cx="32.516094"
     cy="31.877844"
     r="0"
     fill="url(#b)"
     stroke-width="1.5715"
     id="circle41"
     style="fill:url(#b)" />
  <g
     aria-label="GZ"
     transform="matrix(1.2212657,0,0,0.81882264,0.4960938,-0.1661539)"
     id="text93"
     style="font-weight:bold;font-size:11.5263px;line-height:1.25;font-family:sans-serif;-inkscape-font-specification:'sans-serif Bold';fill:#f2f2f2;stroke-width:0.288159" />
  <g
     id="g877"
     transform="matrix(1.1,0,0,1.1,-3.1845928,-3.2065454)">
    <rect
       x="6.3010068"
       y="5.4939413"
       width="51.635597"
       height="53.148327"
       rx="10.980581"
       ry="10.720582"
       fill="url(#linearGradient862)"
       stroke-width="3.0541"
       id="rect35-7-3"
       style="fill:#414141;fill-opacity:1;stroke:#dfdfdf;stroke-width:2.27272727;stroke-dasharray:none;stroke-opacity:1" />
    <path
       style="fill:#dfdfdf;stroke-width:0.207971;fill-opacity:1"
       d="M 17.826514,50.634125 C 17.414615,50.178983 17.367595,48.917746 17.367595,38.324582 V 26.522138 l -0.688151,-0.172713 c -0.994803,-0.249679 -2.58035,-1.735746 -3.254217,-3.050042 -0.828896,-1.616654 -0.790482,-3.891628 0.09497,-5.624447 1.199926,-2.348239 4.449791,-3.991409 5.950039,-3.008409 1.193763,0.782186 0.627285,2.64335 -0.8053,2.645809 -0.89504,0.0015 -2.381754,1.006899 -2.690725,1.819556 -0.549577,1.445496 -0.333154,2.608806 0.672417,3.614379 0.772904,0.772904 1.152676,0.942801 2.107437,0.942801 0.954764,0 1.334535,-0.169897 2.107441,-0.942801 0.666699,-0.666701 0.9428,-1.19454 0.9428,-1.802415 0,-1.123134 0.912916,-2.067231 1.747275,-1.806953 0.827847,0.258249 1.017498,0.616478 1.015333,1.91787 -0.0036,2.131354 -1.913622,4.836707 -3.738225,5.294652 l -0.68815,0.172713 v 11.877877 11.877879 l -0.616286,0.431665 c -0.79849,0.559282 -1.136939,0.544245 -1.697739,-0.07544 z m 11.912706,0.09884 c -1.423919,-0.507514 -3.106646,-2.185597 -3.669483,-3.659367 -1.047554,-2.742984 0.159495,-6.129112 2.680381,-7.519237 l 1.365032,-0.752741 0.004,-11.715694 c 0.004,-11.343172 0.02165,-11.733323 0.558614,-12.270278 0.667589,-0.667589 0.808961,-0.678436 1.602068,-0.122922 l 0.616288,0.431665 v 12.858661 c 0,13.919442 0.0205,13.728628 -1.475601,13.731194 -0.33226,7.22e-4 -1.002851,0.244169 -1.490209,0.541331 -1.841292,1.122705 -1.833529,4.175002 0.01348,5.301244 2.015281,1.228846 3.981727,0.240608 4.74488,-2.38454 0.35893,-1.234676 0.57323,-1.544443 1.172524,-1.694857 1.090286,-0.273643 1.858495,0.76682 1.62843,2.20556 -0.39645,2.479257 -2.22842,4.591398 -4.472469,5.156452 -1.515258,0.38155 -1.948115,0.367487 -3.277901,-0.106471 z m 14.033048,-0.02342 -0.61629,-0.431665 V 38.400015 26.522138 L 42.46783,26.349425 c -0.378481,-0.095 -1.134531,-0.56464 -1.680103,-1.043662 -3.105152,-2.726358 -2.869739,-7.567373 0.477775,-9.824994 2.175734,-1.467354 4.179437,-1.446547 4.554365,0.04729 0.23448,0.934233 -0.466788,1.671415 -1.791493,1.883242 -1.473341,0.235598 -2.307839,1.226171 -2.471966,2.934298 -0.124685,1.297606 -0.06936,1.452703 0.84399,2.366051 0.808069,0.808071 1.179203,0.977418 2.142054,0.977418 0.954763,0 1.334536,-0.169896 2.107438,-0.9428 0.666699,-0.666701 0.942799,-1.19454 0.942799,-1.802415 0,-0.789498 0.79353,-1.968789 1.324774,-1.968789 0.118577,0 0.492926,0.19425 0.831883,0.431666 1.788217,1.252515 -0.274307,5.873353 -3.054131,6.842406 l -0.766292,0.26713 v 11.757893 c 0,11.388161 -0.01745,11.775326 -0.554586,12.312478 -0.667592,0.667588 -0.808965,0.678435 -1.602069,0.122923 z"
       id="path1" />
  </g>
</svg>
