<?xml version="1.0" encoding="UTF-8" standalone="no"?>
<svg
   width="64"
   height="64"
   version="1.1"
   id="svg73"
   sodipodi:docname="audacious.svg"
   inkscape:version="1.4.2 (ebf0e940d0, 2025-05-08)"
   xmlns:inkscape="http://www.inkscape.org/namespaces/inkscape"
   xmlns:sodipodi="http://sodipodi.sourceforge.net/DTD/sodipodi-0.dtd"
   xmlns="http://www.w3.org/2000/svg"
   xmlns:svg="http://www.w3.org/2000/svg"
   xmlns:rdf="http://www.w3.org/1999/02/22-rdf-syntax-ns#"
   xmlns:cc="http://creativecommons.org/ns#"
   xmlns:dc="http://purl.org/dc/elements/1.1/">
  <metadata
     id="metadata77">
    <rdf:RDF>
      <cc:Work
         rdf:about="">
        <dc:format>image/svg+xml</dc:format>
        <dc:type
           rdf:resource="http://purl.org/dc/dcmitype/StillImage" />
      </cc:Work>
    </rdf:RDF>
  </metadata>
  <sodipodi:namedview
     pagecolor="#f5f7fa"
     bordercolor="#666666"
     borderopacity="1"
     objecttolerance="10"
     gridtolerance="10"
     guidetolerance="10"
     inkscape:pageopacity="0"
     inkscape:pageshadow="2"
     inkscape:window-width="1377"
     inkscape:window-height="886"
     id="namedview75"
     showgrid="false"
     inkscape:zoom="6.2890624"
     inkscape:cx="46.82733"
     inkscape:cy="41.739131"
     inkscape:window-x="0"
     inkscape:window-y="49"
     inkscape:window-maximized="0"
     inkscape:current-layer="g877"
     inkscape:document-rotation="0"
     inkscape:pagecheckerboard="0"
     inkscape:showpageshadow="2"
     inkscape:deskcolor="#d1d1d1" />
  <defs
     id="defs29" />
  <circle
     cx="32.516094"
     cy="31.877844"
     r="0"
     fill="url(#b)"
     stroke-width="1.5715"
     id="circle41"
     style="fill:url(#b)" />
  <g
     aria-label="GZ"
     transform="matrix(1.2212657,0,0,0.81882264,0.4960938,-0.1661539)"
     id="text93"
     style="font-weight:bold;font-size:11.5263px;line-height:1.25;font-family:sans-serif;-inkscape-font-specification:'sans-serif Bold';fill:#f2f2f2;stroke-width:0.288159" />
  <g
     id="g877"
     transform="matrix(1.1,0,0,1.1,-3.1845928,-3.2065454)">
    <rect
       x="8.3496294"
       y="8.369586"
       width="47.272728"
       height="47.272728"
       rx="9.8825235"
       ry="9.6485243"
       fill="url(#linearGradient862)"
       stroke-width="3.0541"
       id="rect35-7-3"
       style="fill:#414141;fill-opacity:1;stroke:#dfdfdf;stroke-width:2.04545;stroke-dasharray:none;stroke-opacity:1" />
    <path
       style="fill:#dfdfdf;fill-opacity:1;stroke:none;stroke-width:0.525;stroke-dasharray:none;stroke-opacity:0.6"
       d="m 23.785982,18.728611 c -0.399931,0.107161 -0.635624,0.515399 -0.528464,0.91533 l 2.047655,7.641949 6.407296,3.699255 3.699254,-6.407296 -2.047654,-7.641951 c -0.107163,-0.399932 -0.515398,-0.635624 -0.915327,-0.528466 z m -6.870043,11.899264 c -0.39993,0.107162 -0.635626,0.515398 -0.528465,0.915328 l 2.321179,8.662756 c 0.107158,0.399935 0.515397,0.63563 0.915328,0.528467 l 7.641952,-2.047655 3.699254,-6.407296 -6.407297,-3.699253 z m 19.790115,-5.302743 -3.699254,6.407295 6.407297,3.699254 7.641953,-2.047653 c 0.399928,-0.107159 0.635621,-0.515399 0.528463,-0.91533 L 45.263336,23.805942 C 45.156163,23.40601 44.747937,23.170314 44.348008,23.277476 Z m -4.446536,7.701625 -3.699254,6.407295 2.047653,7.641952 c 0.107159,0.399928 0.515399,0.635625 0.915329,0.528464 l 8.662755,-2.321178 c 0.399939,-0.107187 0.63563,-0.515395 0.528474,-0.915328 l -2.047662,-7.641951 z"
       id="path2" />
  </g>
</svg>
