<?xml version="1.0" encoding="UTF-8" standalone="no"?>
<svg
   width="64"
   height="64"
   version="1.1"
   id="svg73"
   sodipodi:docname="audacious.svg"
   inkscape:version="1.4.2 (ebf0e940d0, 2025-05-08)"
   xmlns:inkscape="http://www.inkscape.org/namespaces/inkscape"
   xmlns:sodipodi="http://sodipodi.sourceforge.net/DTD/sodipodi-0.dtd"
   xmlns="http://www.w3.org/2000/svg"
   xmlns:svg="http://www.w3.org/2000/svg"
   xmlns:rdf="http://www.w3.org/1999/02/22-rdf-syntax-ns#"
   xmlns:cc="http://creativecommons.org/ns#"
   xmlns:dc="http://purl.org/dc/elements/1.1/">
  <metadata
     id="metadata77">
    <rdf:RDF>
      <cc:Work
         rdf:about="">
        <dc:format>image/svg+xml</dc:format>
        <dc:type
           rdf:resource="http://purl.org/dc/dcmitype/StillImage" />
      </cc:Work>
    </rdf:RDF>
  </metadata>
  <sodipodi:namedview
     pagecolor="#f5f7fa"
     bordercolor="#666666"
     borderopacity="1"
     objecttolerance="10"
     gridtolerance="10"
     guidetolerance="10"
     inkscape:pageopacity="0"
     inkscape:pageshadow="2"
     inkscape:window-width="1377"
     inkscape:window-height="886"
     id="namedview75"
     showgrid="false"
     inkscape:zoom="6.2890624"
     inkscape:cx="47.622361"
     inkscape:cy="45.396274"
     inkscape:window-x="0"
     inkscape:window-y="57"
     inkscape:window-maximized="0"
     inkscape:current-layer="g877"
     inkscape:document-rotation="0"
     inkscape:pagecheckerboard="0"
     inkscape:showpageshadow="2"
     inkscape:deskcolor="#d1d1d1" />
  <defs
     id="defs29" />
  <circle
     cx="32.516094"
     cy="31.877844"
     r="0"
     fill="url(#b)"
     stroke-width="1.5715"
     id="circle41"
     style="fill:url(#b)" />
  <g
     aria-label="GZ"
     transform="matrix(1.2212657,0,0,0.81882264,0.4960938,-0.1661539)"
     id="text93"
     style="font-weight:bold;font-size:11.5263px;line-height:1.25;font-family:sans-serif;-inkscape-font-specification:'sans-serif Bold';fill:#f2f2f2;stroke-width:0.288159" />
  <g
     id="g877"
     transform="matrix(1.1,0,0,1.1,-3.1845928,-3.2065454)">
    <rect
       x="8.3496294"
       y="8.369586"
       width="47.272728"
       height="47.272728"
       rx="9.8825235"
       ry="9.6485243"
       fill="url(#linearGradient862)"
       stroke-width="3.0541"
       id="rect35-7-3"
       style="fill:#414141;fill-opacity:1;stroke:#dfdfdf;stroke-width:2.04545;stroke-dasharray:none;stroke-opacity:1" />
    <path
       id="path1"
       style="fill:#dfdfdf;fill-opacity:1;stroke:none;stroke-width:0.516894;stroke-dasharray:none;stroke-opacity:0.6"
       d="m 28.619483,16.152939 c -10.037125,0.0019 -10.518086,0.0071 -10.850487,0.161011 -0.426213,0.197331 -0.772352,0.55619 -0.95143,0.984885 -0.119668,0.286438 -0.135921,1.567396 -0.135921,11.24151 0,9.674117 0.01615,10.955078 0.135921,11.241513 0.179054,0.428696 0.525217,0.787563 0.95143,0.984892 0.332417,0.153948 0.813362,0.161302 10.850487,0.163076 11.501902,0.0021 10.828402,0.03267 11.398351,-0.501858 0.137572,-0.12894 0.323383,-0.392102 0.411943,-0.583402 0.154018,-0.332654 0.161302,-0.82607 0.163042,-11.329343 0.002,-10.637034 -0.0049,-10.991748 -0.165171,-11.304241 -0.213412,-0.415011 -0.575129,-0.75605 -0.982778,-0.926336 -0.2863,-0.119606 -1.524341,-0.133455 -10.825398,-0.131743 z M 25.342799,20.954 c 0.119375,-0.002 0.243717,0.0363 0.36593,0.127564 0.123212,0.09197 0.253554,0.274716 0.288558,0.405666 0.07875,0.294376 -0.06346,0.72474 -0.276013,0.838514 -0.27221,0.145682 -0.603481,0.09493 -0.82597,-0.127565 -0.472922,-0.472925 -0.06972,-1.235922 0.447487,-1.24418 z m -4.922346,0.152651 c 1.194804,0 1.478379,0.02269 1.478379,0.119192 0,0.07211 -0.137341,0.141773 -0.34921,0.175646 -0.268933,0.04303 -0.370298,0.108122 -0.434944,0.278108 -0.128394,0.337722 -0.111456,4.930092 0.01861,5.06035 0.129084,0.129097 1.015166,0.137524 1.346644,0.01251 0.377338,-0.142264 0.756181,-0.556694 1.0288,-1.127075 0.166518,-0.348376 0.298995,-0.518584 0.403558,-0.518584 0.121961,0 0.147253,0.0512 0.11501,0.238381 -0.141587,0.822433 -0.300863,1.813924 -0.301097,1.869405 -1.54e-4,0.03581 -1.076998,0.06483 -2.392171,0.06483 -2.300271,0 -2.392167,-0.0066 -2.392167,-0.167284 0,-0.114953 0.08135,-0.184197 0.26136,-0.223745 0.143857,-0.03159 0.301789,-0.128859 0.349217,-0.217466 0.114929,-0.214772 0.114929,-4.826773 0,-5.041533 -0.04743,-0.08862 -0.205326,-0.187971 -0.349217,-0.219561 -0.143852,-0.03157 -0.26136,-0.111896 -0.26136,-0.179829 0,-0.101881 0.259137,-0.123377 1.478376,-0.123377 z m 7.000854,0 h 0.825971 v 1.09362 1.093622 l 0.309477,-0.19029 c 0.4489,-0.277431 1.154616,-0.213154 1.52647,0.140097 0.513168,0.487493 0.641954,0.853575 0.641954,1.819222 0,0.802622 -0.01946,0.905478 -0.259301,1.338271 -0.371748,0.671207 -0.783679,0.921864 -1.516013,0.922154 -0.460751,1.82e-4 -0.627248,-0.03872 -0.857331,-0.20283 l -0.286492,-0.204926 -0.294831,0.225835 c -0.162546,0.12399 -0.337925,0.225835 -0.388954,0.225835 -0.06386,0 -0.092,-0.908151 -0.092,-2.914931 v -2.914928 l -0.217466,-0.09829 c -0.11957,-0.05447 -0.217462,-0.151328 -0.217462,-0.215382 0,-0.08915 0.193671,-0.117102 0.825965,-0.117102 z m 6.530367,1.819215 c 0.182538,0.01018 0.345249,0.08773 0.462128,0.23629 0.258242,0.32833 0.23773,0.755881 -0.04807,0.980707 -0.306929,0.241426 -0.431823,0.228939 -0.740236,-0.07945 -0.143486,-0.143476 -0.320522,-0.261381 -0.391016,-0.261381 -0.250999,0 -0.379763,0.554282 -0.37847,1.626842 0.0017,1.268538 0.03558,1.409775 0.357553,1.474193 0.168295,0.03364 0.250926,0.10333 0.250926,0.213289 0,0.151052 -0.08397,0.163101 -1.131258,0.163101 -1.021748,0 -1.129175,-0.01408 -1.129175,-0.152644 0,-0.0843 0.08688,-0.191178 0.194475,-0.23838 0.191926,-0.0842 0.196381,-0.119472 0.21956,-1.762758 l 0.0231,-1.674938 -0.219561,-0.08364 c -0.120578,-0.04585 -0.217452,-0.142458 -0.217452,-0.215378 0,-0.109523 0.143696,-0.131729 0.825966,-0.131729 h 0.825979 l 0.0021,0.282296 c 0.0027,0.277728 0.0061,0.28019 0.152633,0.106666 0.279778,-0.330961 0.636733,-0.500079 0.940974,-0.483035 z m 2.607549,0.01058 c 0.247331,0.0021 0.486475,0.04397 0.644049,0.125459 0.48854,0.25264 0.869881,0.964329 0.869881,1.62266 v 0.334591 h -1.001619 -0.999528 l 0.0021,0.326209 c 0.0021,0.37047 0.243801,0.960363 0.470487,1.147986 0.273134,0.226047 0.712404,0.157741 1.043439,-0.163105 0.190995,-0.185125 0.350164,-0.270414 0.439119,-0.236295 0.123929,0.04761 0.124899,0.07835 0.01237,0.292751 -0.170429,0.325637 -0.652119,0.775889 -0.951319,0.888694 -0.331929,0.125177 -0.914645,0.110262 -1.239918,-0.03137 -0.620893,-0.270317 -1.033072,-1.104443 -1.033072,-2.093147 0,-1.002305 0.416126,-1.833819 1.051798,-2.099417 0.188364,-0.07874 0.444837,-0.116992 0.692143,-0.11501 z m 5.081273,0.06901 -0.02309,8.897438 c -0.02522,9.802236 0.01563,9.097184 -0.556224,9.669037 -0.570878,0.57089 0.08582,0.532523 -9.232011,0.558308 l -8.460408,0.02309 0.02507,2.252073 0.02717,2.252056 0.261363,0.372212 c 0.279698,0.397732 0.670765,0.668142 1.116619,0.775777 0.151135,0.03634 4.971871,0.05974 10.714569,0.05229 l 10.442734,-0.01237 0.422391,-0.263457 c 0.308713,-0.190892 0.490168,-0.387022 0.66705,-0.7256 l 0.244607,-0.4663 V 35.459696 24.529752 L 47.050065,24.057193 C 46.870593,23.703138 46.70414,23.519362 46.383049,23.323231 l -0.426736,-0.261377 -2.15797,-0.02716 z m -16.479618,0.01465 h 0.825968 v 1.867311 c 0,1.774596 0.0087,1.875006 0.173552,1.978137 0.09563,0.05972 0.173555,0.177241 0.173555,0.261374 0,0.137144 -0.103099,0.152643 -0.999527,0.152643 -0.941991,0 -1.001614,-0.0097 -1.001614,-0.173555 0,-0.09563 0.03724,-0.173555 0.08152,-0.173555 0.04439,0 0.142311,-0.0608 0.217461,-0.135919 0.114026,-0.114072 0.135922,-0.39431 0.135922,-1.693775 V 23.544875 L 24.55025,23.402684 c -0.11957,-0.07833 -0.217454,-0.197231 -0.217454,-0.263466 0,-0.09414 0.182252,-0.119194 0.828059,-0.119194 z m 11.392072,0.303185 c -0.302795,0 -0.427204,0.20441 -0.518582,0.848971 l -0.05857,0.4119 h 0.526949 0.526941 l -0.0065,-0.326212 c -0.0025,-0.179333 -0.05164,-0.462012 -0.10875,-0.629401 -0.08755,-0.256706 -0.142676,-0.305294 -0.361761,-0.305294 z m -7.753634,0.156828 c -0.06413,0.002 -0.13026,0.022 -0.198645,0.05856 -0.305961,0.163747 -0.35338,0.39458 -0.35338,1.725118 0,1.181788 0.01578,1.317922 0.179828,1.526472 0.303052,0.385276 0.674417,0.263705 0.897063,-0.292744 0.209362,-0.523263 0.192685,-2.094028 -0.0271,-2.578278 -0.13407,-0.295264 -0.305243,-0.444897 -0.497682,-0.439142 z m -2.764374,5.708575 c 0.54822,-0.01648 1.083517,0.234367 1.204448,0.719323 0.136571,0.547653 -0.287987,0.961321 -0.746512,0.727686 -0.180354,-0.09192 -0.201151,-0.160142 -0.186098,-0.600149 0.01743,-0.506213 -0.04305,-0.584751 -0.31992,-0.409845 -0.0961,0.06071 -0.138633,0.288834 -0.161013,0.867786 l -0.03154,0.786237 h 0.357563 c 0.322266,0 0.355484,0.02095 0.355484,0.217468 0,0.195636 -0.03399,0.217459 -0.347109,0.217459 h -0.349227 v 1.566198 c 0,1.449229 0.01456,1.576643 0.17566,1.737669 0.09566,0.09566 0.251451,0.173555 0.347115,0.173555 0.09663,0 0.173556,0.05927 0.173556,0.131733 0,0.1095 -0.1876,0.129647 -1.173085,0.129647 -0.922949,0 -1.175168,-0.02548 -1.175168,-0.117102 0,-0.06403 0.09791,-0.160903 0.217463,-0.215382 l 0.217461,-0.09827 v -1.654093 -1.654027 h -0.217461 c -0.173911,0 -0.217452,-0.04358 -0.217452,-0.21746 0,-0.16888 0.04533,-0.217469 0.200749,-0.217469 0.182947,0 0.207467,-0.05642 0.294823,-0.662864 0.0556,-0.385904 0.166228,-0.758077 0.263468,-0.890792 0.256187,-0.349721 0.690227,-0.524604 1.116622,-0.537396 z m 2.827108,0.0022 c 0.404488,0.0168 0.789293,0.170635 0.989063,0.455849 0.111387,0.159051 0.133823,0.16685 0.133823,0.04392 0,-0.231507 0.321416,-0.497673 0.600132,-0.497673 0.422407,0 0.660774,0.268481 0.660774,0.740236 0,0.322467 -0.04215,0.441138 -0.204912,0.572948 -0.263308,0.213236 -0.539132,0.211129 -0.815511,-0.0065 l -0.21956,-0.173598 -0.125484,0.186102 c -0.14422,0.217193 -0.587235,0.254994 -0.811331,0.06902 -0.134101,-0.111294 -0.147459,-0.45789 -0.0336,-0.865697 0.06278,-0.224475 -0.296567,-0.150609 -0.416122,0.08574 -0.06049,0.119557 -0.110106,0.502239 -0.110807,0.848969 v 0.62939 h 0.34711 c 0.313039,0 0.347114,0.02177 0.347114,0.217466 0,0.195643 -0.03399,0.217471 -0.347114,0.217471 h -0.347099 v 1.472089 c 0,0.809898 0.03643,1.574219 0.08364,1.697935 0.05717,0.150363 0.173883,0.243045 0.349208,0.278106 0.144267,0.02889 0.26137,0.105719 0.26137,0.17147 0,0.09554 -0.235022,0.119192 -1.173081,0.119192 -0.922956,0 -1.175175,-0.0255 -1.175175,-0.1171 0,-0.06404 0.09791,-0.160904 0.217452,-0.215381 l 0.217458,-0.09828 V 33.368636 31.71461 h -0.217453 c -0.173912,0 -0.217453,-0.04358 -0.217453,-0.21747 0,-0.172189 0.04395,-0.21746 0.211191,-0.21746 0.192485,0 0.216038,-0.04392 0.267636,-0.499764 0.07744,-0.684206 0.188403,-1.007884 0.416115,-1.22117 0.283055,-0.265161 0.707946,-0.384821 1.112443,-0.36803 z m -7.97111,0.01465 c 0.08607,-8.29e-4 0.173071,4.81e-4 0.261372,0.0065 1.080504,0.07089 1.899487,0.658634 2.383805,1.710483 0.439298,0.954106 0.347111,2.533434 -0.198647,3.397979 -0.318458,0.50449 -0.975698,1.031698 -1.465826,1.177251 -0.458211,0.136075 -1.426292,0.161665 -1.798309,0.04808 -0.812761,-0.248114 -1.516173,-0.909486 -1.840139,-1.731384 -0.231135,-0.586374 -0.277263,-2.001802 -0.08364,-2.578271 0.425446,-1.266547 1.45054,-2.01772 2.741376,-2.030409 z m 0.02309,0.345026 c -0.159448,-0.0056 -0.303345,0.05584 -0.499778,0.188196 -0.652375,0.43964 -0.907093,1.371986 -0.848965,3.117766 0.03322,0.992718 0.0599,1.133536 0.294823,1.60384 0.187392,0.37513 0.338857,0.556371 0.560403,0.667046 0.3724,0.186037 0.626647,0.192038 0.953522,0.02294 0.60227,-0.311468 0.901138,-1.183645 0.909594,-2.653564 0.0088,-1.543514 -0.316478,-2.519201 -0.93888,-2.814561 -0.175091,-0.08311 -0.306766,-0.127539 -0.430762,-0.131737 z m 16.423139,1.597562 c 0.10831,0.0051 0.216963,0.02285 0.32619,0.05228 0.640648,0.172505 0.986462,0.688547 1.147991,1.710483 l 0.05853,0.370114 h -1.06023 -1.060171 l 0.06063,0.411939 c 0.162203,1.081767 0.858477,1.493328 1.49092,0.880334 0.257741,-0.249828 0.554133,-0.300219 0.554133,-0.0941 0,0.173548 -0.671188,0.837652 -0.995342,0.984891 -0.870743,0.395478 -1.843083,-0.06811 -2.172565,-1.035111 -0.153203,-0.449586 -0.179019,-1.471335 -0.04807,-1.942592 0.233483,-0.840569 0.939841,-1.375221 1.697934,-1.338273 z m -3.36869,0.0084 c 0.638936,0.0238 1.187726,0.383056 1.187726,1.005797 0,0.400216 -0.186185,0.595949 -0.56668,0.595949 -0.315827,0 -0.437607,-0.171648 -0.503945,-0.715142 -0.05329,-0.436424 -0.06768,-0.457906 -0.311575,-0.457906 -0.41293,0 -0.605879,0.422433 -0.610588,1.342455 -0.0046,0.885133 0.181721,1.454365 0.585494,1.794126 0.339468,0.285634 0.754335,0.244285 1.124992,-0.11082 0.204827,-0.196232 0.26573,-0.218298 0.328286,-0.117102 0.0445,0.07201 0.04283,0.185739 -0.0022,0.269748 -0.143781,0.268606 -0.685435,0.679687 -1.016264,0.771555 -0.832607,0.231231 -1.54833,-0.0877 -1.986508,-0.886593 -0.215394,-0.392756 -0.249427,-0.549666 -0.250923,-1.15008 -0.0022,-0.855384 0.133736,-1.266577 0.583403,-1.754397 0.389357,-0.422406 0.941708,-0.606096 1.438645,-0.587588 z m -3.590342,0.123339 H 31.2041 v 1.819215 c 0,1.53844 0.02021,1.841719 0.135925,1.957229 0.07514,0.07517 0.173068,0.135918 0.217451,0.135918 0.04439,0 0.08152,0.06 0.08152,0.131734 0,0.108695 -0.173883,0.129651 -1.043433,0.129651 -0.813969,0 -1.043439,-0.02624 -1.043439,-0.117101 0,-0.06408 0.09583,-0.160908 0.215358,-0.215383 l 0.217467,-0.09831 v -1.656068 -1.656117 l -0.217466,-0.09828 c -0.119568,-0.05447 -0.215357,-0.151324 -0.215357,-0.215381 0,-0.08917 0.193672,-0.117102 0.825969,-0.117102 z m 6.785478,0.271838 c -0.125588,0.0056 -0.179326,0.07292 -0.267628,0.284382 -0.07064,0.16913 -0.12755,0.465847 -0.12755,0.658679 v 0.351297 h 0.47884 0.476765 V 32.4321 c -0.002,-0.545585 -0.157146,-0.841055 -0.460041,-0.87615 -0.03804,-0.0045 -0.07138,-0.0056 -0.100338,-0.0042 z" />
  </g>
</svg>
