<?xml version="1.0" encoding="UTF-8" standalone="no"?>
<svg
   width="64"
   height="64"
   version="1.1"
   id="svg73"
   sodipodi:docname="audacious.svg"
   inkscape:version="1.4.2 (ebf0e940d0, 2025-05-08)"
   xmlns:inkscape="http://www.inkscape.org/namespaces/inkscape"
   xmlns:sodipodi="http://sodipodi.sourceforge.net/DTD/sodipodi-0.dtd"
   xmlns="http://www.w3.org/2000/svg"
   xmlns:svg="http://www.w3.org/2000/svg"
   xmlns:rdf="http://www.w3.org/1999/02/22-rdf-syntax-ns#"
   xmlns:cc="http://creativecommons.org/ns#"
   xmlns:dc="http://purl.org/dc/elements/1.1/">
  <metadata
     id="metadata77">
    <rdf:RDF>
      <cc:Work
         rdf:about="">
        <dc:format>image/svg+xml</dc:format>
        <dc:type
           rdf:resource="http://purl.org/dc/dcmitype/StillImage" />
      </cc:Work>
    </rdf:RDF>
  </metadata>
  <sodipodi:namedview
     pagecolor="#f5f7fa"
     bordercolor="#666666"
     borderopacity="1"
     objecttolerance="10"
     gridtolerance="10"
     guidetolerance="10"
     inkscape:pageopacity="0"
     inkscape:pageshadow="2"
     inkscape:window-width="1377"
     inkscape:window-height="886"
     id="namedview75"
     showgrid="false"
     inkscape:zoom="6.2890624"
     inkscape:cx="46.82733"
     inkscape:cy="41.739131"
     inkscape:window-x="0"
     inkscape:window-y="49"
     inkscape:window-maximized="0"
     inkscape:current-layer="g877"
     inkscape:document-rotation="0"
     inkscape:pagecheckerboard="0"
     inkscape:showpageshadow="2"
     inkscape:deskcolor="#d1d1d1" />
  <defs
     id="defs29" />
  <circle
     cx="32.516094"
     cy="31.877844"
     r="0"
     fill="url(#b)"
     stroke-width="1.5715"
     id="circle41"
     style="fill:url(#b)" />
  <g
     aria-label="GZ"
     transform="matrix(1.2212657,0,0,0.81882264,0.4960938,-0.1661539)"
     id="text93"
     style="font-weight:bold;font-size:11.5263px;line-height:1.25;font-family:sans-serif;-inkscape-font-specification:'sans-serif Bold';fill:#f2f2f2;stroke-width:0.288159" />
  <g
     id="g877"
     transform="matrix(1.1,0,0,1.1,-3.1845928,-3.2065454)">
    <rect
       x="8.3496294"
       y="8.369586"
       width="47.272728"
       height="47.272728"
       rx="9.8825235"
       ry="9.6485243"
       fill="url(#linearGradient862)"
       stroke-width="3.0541"
       id="rect35-7-3"
       style="fill:#414141;fill-opacity:1;stroke:#dfdfdf;stroke-width:2.04545;stroke-dasharray:none;stroke-opacity:1" />
    <path
       id="path5"
       style="fill:#dfdfdf;fill-opacity:1;stroke:none;stroke-width:0.5;stroke-dasharray:none;stroke-opacity:0.6"
       d="m 37.848999,16.475581 c -0.07099,0 -0.439293,0.246643 -0.702711,0.470746 -0.284872,0.242369 -0.364864,0.223873 -0.450279,-0.105753 l -0.06142,-0.23196 -0.419576,0.383761 c -0.447061,0.408586 -0.59295,0.41307 -0.600373,0.01708 -0.0032,-0.17235 -0.05987,-0.132396 -0.527032,0.371822 l -0.521902,0.564544 -0.104037,-0.247315 -0.104038,-0.247311 -0.266076,0.325768 c -0.690681,0.843765 -1.116166,1.832422 -1.118872,2.599341 -0.0012,0.384208 0.0373,0.521705 0.243897,0.86133 0.141354,0.23237 0.361001,0.470549 0.516799,0.559438 l 0.27119,0.153503 0.63619,-0.462218 c 1.449648,-1.051057 2.934229,-1.853458 4.685298,-2.536232 1.561168,-0.608729 1.557135,-0.573872 -0.03742,0.310419 -1.944553,1.078319 -3.564109,2.194345 -4.344173,2.993334 -0.331306,0.339333 -0.334175,0.345701 -0.245612,0.641307 0.208122,0.694653 1.074205,1.340752 2.155884,1.606677 0.297726,0.07321 0.793671,0.135097 1.101818,0.138151 l 0.561148,0.0052 -0.141598,-0.155215 c -0.12081,-0.133461 -0.125311,-0.167034 -0.03092,-0.226841 0.06078,-0.03843 0.216674,-0.06928 0.346249,-0.06994 0.270173,-0.0012 1.021101,-0.135894 1.077943,-0.192735 0.02096,-0.02093 -0.02921,-0.08579 -0.109128,-0.144976 -0.192862,-0.14235 -0.107924,-0.213066 0.498032,-0.41446 0.270482,-0.0899 0.576499,-0.211774 0.680534,-0.271196 l 0.189324,-0.107448 -0.189324,-0.0052 c -0.192588,-0.0041 -0.439966,-0.118315 -0.375239,-0.173968 0.01959,-0.01687 0.239833,-0.138042 0.489503,-0.269486 0.249695,-0.131444 0.555691,-0.322544 0.680538,-0.424699 l 0.22688,-0.185908 -0.240452,-0.0034 c -0.132767,-0.0014 -0.260586,-0.03182 -0.283126,-0.06822 -0.02233,-0.03643 0.195165,-0.242021 0.484387,-0.457099 0.289242,-0.215083 0.546801,-0.424147 0.571379,-0.463925 0.02543,-0.04082 -0.07319,-0.07333 -0.225161,-0.07333 -0.148126,0 -0.269486,-0.02525 -0.269486,-0.05799 0,-0.03281 0.172522,-0.23013 0.383761,-0.436635 0.211211,-0.206504 0.418453,-0.438332 0.460517,-0.515091 0.06576,-0.119999 0.05556,-0.13176 -0.08013,-0.08869 -0.186953,0.05933 -0.460517,-0.01354 -0.460517,-0.122803 0,-0.04239 0.19568,-0.26806 0.434929,-0.501446 l 0.434939,-0.424696 -0.30357,-0.04264 c -0.270242,-0.03757 -0.298554,-0.06135 -0.276289,-0.230257 0.01409,-0.104025 0.123696,-0.368254 0.24564,-0.586728 l 0.221725,-0.397405 -0.586735,-0.0052 c -0.322881,-0.0029 -0.649339,-0.02986 -0.724876,-0.05969 -0.130087,-0.05129 -0.129228,-0.06033 0.01752,-0.192736 0.08497,-0.07688 0.136513,-0.170323 0.114247,-0.206377 -0.06315,-0.10219 -0.542878,-0.07663 -1.072823,0.05629 -0.265534,0.06658 -0.503882,0.09821 -0.530443,0.07163 -0.02611,-0.02656 -0.01065,-0.147937 0.03591,-0.271193 0.04652,-0.12326 0.0625,-0.225144 0.03402,-0.225144 -0.02817,0 -0.298314,0.06856 -0.598672,0.151799 -0.300341,0.08323 -0.563679,0.151802 -0.58502,0.151802 -0.09006,0 -0.02852,-0.264386 0.0938,-0.402524 0.12916,-0.146002 0.127614,-0.149438 -0.0938,-0.09894 -0.12483,0.02848 -0.430105,0.151913 -0.678827,0.272898 -0.482006,0.234455 -0.610633,0.202459 -0.532151,-0.131331 0.02233,-0.09363 0.02199,-0.170563 -0.0018,-0.170563 z m -12.585652,0.0052 c -0.06193,0.003 -0.04766,0.05885 0.0222,0.165443 0.195381,0.2982 0.04878,0.398607 -0.383759,0.260954 -0.202549,-0.06446 -0.48713,-0.140739 -0.63278,-0.168859 -0.216571,-0.04182 -0.247904,-0.03299 -0.170559,0.04775 0.102069,0.106578 0.132375,0.44664 0.03923,0.445164 -0.03117,-4.94e-4 -0.245276,-0.05113 -0.474159,-0.112571 -0.429024,-0.115157 -1.05918,-0.152867 -1.05918,-0.06311 0,0.02793 0.05711,0.11467 0.126212,0.191021 0.06909,0.07636 0.100826,0.163482 0.06994,0.194437 -0.03089,0.03096 -0.360706,0.06905 -0.731704,0.08357 l -0.673713,0.02556 0.151799,0.214904 c 0.146834,0.206209 0.376936,0.769037 0.376936,0.922733 0,0.04082 -0.135183,0.06024 -0.301891,0.04434 -0.166457,-0.01591 -0.303595,7.09e-4 -0.303595,0.03583 0,0.03511 0.211043,0.264466 0.469039,0.509977 0.258003,0.245506 0.4427,0.471506 0.411053,0.503152 -0.03165,0.03165 -0.187912,0.05799 -0.347943,0.05799 h -0.291679 l 0.148387,0.208087 c 0.08138,0.114268 0.299596,0.331255 0.484392,0.482684 0.369909,0.303114 0.374211,0.409346 0.01704,0.409346 h -0.235376 l 0.182503,0.196144 c 0.100891,0.107808 0.34642,0.315098 0.544088,0.460512 0.197666,0.145408 0.358177,0.296238 0.358177,0.334302 0,0.03806 -0.122153,0.06994 -0.272897,0.06994 -0.372276,0 -0.270283,0.108701 0.498035,0.532149 0.334735,0.184482 0.597324,0.368923 0.583318,0.41105 -0.01399,0.04213 -0.125902,0.09658 -0.24731,0.119394 l -0.220021,0.04093 0.226841,0.117687 c 0.124844,0.06516 0.463657,0.196834 0.752173,0.291651 l 0.52362,0.172267 -0.175676,0.143271 c -0.09675,0.07834 -0.159337,0.157912 -0.139862,0.17738 0.06114,0.06114 0.824518,0.187616 1.132522,0.187616 0.322784,0 0.449717,0.148618 0.289947,0.341123 -0.08102,0.09762 -0.02938,0.112 0.388878,0.110863 1.460531,-0.0041 2.760499,-0.660755 3.218489,-1.625406 l 0.180807,-0.376934 -0.593551,-0.567967 c -0.326247,-0.312117 -0.913837,-0.796802 -1.306488,-1.076246 -0.774789,-0.551412 -2.702017,-1.719308 -3.452143,-2.092777 -0.594985,-0.296229 -0.676637,-0.421034 -0.158619,-0.242196 1.995103,0.688783 4.228515,1.863044 5.635314,2.964341 l 0.469041,0.368409 0.322359,-0.245608 c 0.836995,-0.638398 0.919531,-1.561883 0.259251,-2.890997 -0.370526,-0.745854 -1.019042,-1.55714 -1.025068,-1.282613 -0.0083,0.37623 -0.163166,0.326599 -0.689062,-0.220023 l -0.520211,-0.540677 -0.0018,0.24049 c -0.0012,0.132791 -0.03793,0.264527 -0.08182,0.291661 -0.04391,0.02715 -0.274691,-0.132416 -0.511684,-0.354764 -0.415866,-0.390172 -0.431847,-0.397466 -0.457102,-0.214907 -0.05316,0.384335 -0.147687,0.388254 -0.631074,0.03242 -0.509277,-0.374908 -0.594428,-0.40451 -0.537264,-0.185913 0.02161,0.08261 0.02048,0.202168 -0.0034,0.26437 -0.03576,0.09317 -0.140952,0.06679 -0.593551,-0.150095 -0.371518,-0.178054 -0.577025,-0.263167 -0.656664,-0.259264 z m 6.829237,8.343835 c -1.142772,0.01937 -2.520356,0.659926 -3.085435,1.475338 -0.225136,0.324869 -0.259651,0.7337 -0.08869,1.064296 0.262359,0.507343 1.175141,1.052433 2.094483,1.251913 0.6588,0.142954 1.768702,0.141605 2.471418,-0.0034 1.500658,-0.30971 2.28139,-1.089417 1.952913,-1.949523 -0.326433,-0.854756 -1.695048,-1.687816 -2.998451,-1.824997 -0.112003,-0.01175 -0.228019,-0.01568 -0.346237,-0.01368 z m -4.901906,0.67198 c -0.418693,-0.0011 -0.890531,0.02766 -1.161515,0.08528 -1.456646,0.309644 -2.522693,1.24378 -3.017212,2.645392 -0.127876,0.362444 -0.266891,1.52196 -0.202967,1.688548 0.180144,0.46945 2.246026,-0.924986 4.084921,-2.756256 0.759772,-0.756622 1.26231,-1.449598 1.139343,-1.572566 -0.05843,-0.0584 -0.423871,-0.08935 -0.84257,-0.0904 z m 9.69977,0.07333 c -0.134795,0.0019 -0.271403,0.0093 -0.409343,0.0222 -0.473823,0.04441 -0.559441,0.07329 -0.559441,0.191025 0,0.611437 3.238324,3.552535 4.620476,4.195785 0.225436,0.104908 0.444488,0.178737 0.486102,0.165443 0.127063,-0.04056 0.129571,-1.007494 0.0034,-1.509465 -0.476711,-1.897027 -2.119192,-3.09316 -4.14118,-3.064975 z m -0.958549,3.390745 c -0.814528,-0.0041 -1.599949,0.297279 -2.193407,0.946608 -0.425942,0.466057 -0.669296,1.02184 -0.777755,1.775535 -0.169447,1.177546 0.332518,2.57693 1.260443,3.51866 0.530416,0.538317 0.995469,0.833926 1.700484,1.081356 0.403297,0.141508 0.613346,0.168755 1.171753,0.148379 0.788107,-0.02892 1.327844,-0.232707 1.83864,-0.69418 1.117924,-1.009978 1.353644,-2.833819 0.566264,-4.390218 -0.769768,-1.521545 -2.208872,-2.37933 -3.566422,-2.386116 z m -7.538768,0.20126 c -0.550946,0.0019 -0.778831,0.04005 -1.195628,0.20126 -2.323193,0.898574 -3.519256,3.678745 -2.468009,5.739355 0.362793,0.711132 1.184303,1.331838 1.985323,1.500932 0.174072,0.0367 0.53472,0.04946 0.801633,0.02924 3.303352,-0.253239 5.141638,-4.651729 2.827892,-6.766365 -0.567979,-0.519094 -1.091679,-0.707383 -1.951211,-0.704415 z m 13.145089,2.007486 c -0.05893,0.0011 -0.112838,0.03017 -0.199529,0.08699 -0.283676,0.185846 -0.422989,0.755643 -0.422989,1.722661 0,1.800836 0.489407,3.741996 1.098408,4.350992 0.257391,0.257391 0.439612,0.223306 0.750464,-0.139845 0.580609,-0.678333 0.871858,-1.545436 0.873253,-2.604457 0.0011,-0.840622 -0.175374,-1.471606 -0.590137,-2.113243 -0.313776,-0.485469 -0.891168,-1.038452 -1.277502,-1.224622 -0.109574,-0.05281 -0.173037,-0.07965 -0.231964,-0.07846 z m -19.090824,0.08528 c -0.105149,-0.0092 -0.220846,0.05429 -0.491214,0.240492 -1.064063,0.732845 -1.622028,1.82492 -1.622028,3.175834 0,1.083318 0.299255,1.969891 0.881795,2.614692 0.149026,0.164928 0.328282,0.300204 0.397408,0.300204 0.750435,0 1.511413,-2.538145 1.432706,-4.779105 -0.03323,-0.946584 -0.17214,-1.37431 -0.491214,-1.519684 -0.03804,-0.01732 -0.0724,-0.02934 -0.107457,-0.03244 z m 9.728763,4.821725 c -0.952054,0.01565 -1.915028,0.374047 -2.665859,1.106938 -0.534744,0.521963 -0.919152,1.322816 -0.979014,2.038192 -0.150641,1.800128 1.270715,3.40416 3.266228,3.685816 0.39455,0.05566 1.194056,-0.03591 1.664671,-0.191007 2.038361,-0.670976 3.028707,-2.813052 2.135416,-4.620505 C 34.938044,36.76131 33.567617,36.0533 32.176159,36.07638 Z m 8.323347,1.277494 c -0.62384,0.01684 -1.352637,0.477271 -2.314504,1.437826 -0.779292,0.778224 -0.914138,0.953388 -1.228035,1.59303 -0.614932,1.253124 -0.817019,2.48002 -0.516799,3.140025 0.163282,0.358911 0.290906,0.474611 0.67201,0.610598 0.683748,0.244025 1.714545,0.04821 2.623217,-0.498031 0.482741,-0.290205 1.387447,-1.207064 1.66979,-1.693667 0.363522,-0.626466 0.514662,-1.234583 0.518496,-2.087657 0.0052,-1.210898 -0.316078,-2.128843 -0.830629,-2.374198 -0.189599,-0.09043 -0.385599,-0.133695 -0.593546,-0.127922 z m -16.957113,0.538962 c -0.211256,0.0014 -0.401205,0.04281 -0.559437,0.124486 -0.838828,0.433029 -0.905151,2.188373 -0.143271,3.784739 0.462295,0.968657 1.666933,1.962036 2.723847,2.246279 0.542686,0.145927 1.090791,0.139605 1.499227,-0.01752 0.462904,-0.177367 0.687226,-0.599854 0.685651,-1.292641 -0.0041,-1.791875 -1.236869,-3.64322 -3.015507,-4.528197 -0.426554,-0.212208 -0.838426,-0.31972 -1.19051,-0.317246 z m 8.785565,6.242507 c -1.388655,-3.64e-4 -2.214749,0.157369 -3.059854,0.583317 -0.919994,0.463695 -0.964559,0.79406 -0.204672,1.538459 0.546412,0.535267 1.473941,1.031058 2.242869,1.200739 1.282545,0.283057 2.791668,-0.208806 3.859783,-1.257024 0.779246,-0.764706 0.753997,-1.157929 -0.10404,-1.575977 -0.783926,-0.381943 -1.375947,-0.489149 -2.734086,-0.489514 z" />
  </g>
</svg>
