<?xml version="1.0" encoding="UTF-8" standalone="no"?>
<svg
   width="64"
   height="64"
   version="1.1"
   id="svg73"
   sodipodi:docname="audacious.svg"
   inkscape:version="1.4.2 (ebf0e940d0, 2025-05-08)"
   xmlns:inkscape="http://www.inkscape.org/namespaces/inkscape"
   xmlns:sodipodi="http://sodipodi.sourceforge.net/DTD/sodipodi-0.dtd"
   xmlns="http://www.w3.org/2000/svg"
   xmlns:svg="http://www.w3.org/2000/svg"
   xmlns:rdf="http://www.w3.org/1999/02/22-rdf-syntax-ns#"
   xmlns:cc="http://creativecommons.org/ns#"
   xmlns:dc="http://purl.org/dc/elements/1.1/">
  <metadata
     id="metadata77">
    <rdf:RDF>
      <cc:Work
         rdf:about="">
        <dc:format>image/svg+xml</dc:format>
        <dc:type
           rdf:resource="http://purl.org/dc/dcmitype/StillImage" />
      </cc:Work>
    </rdf:RDF>
  </metadata>
  <sodipodi:namedview
     pagecolor="#f5f7fa"
     bordercolor="#666666"
     borderopacity="1"
     objecttolerance="10"
     gridtolerance="10"
     guidetolerance="10"
     inkscape:pageopacity="0"
     inkscape:pageshadow="2"
     inkscape:window-width="1377"
     inkscape:window-height="886"
     id="namedview75"
     showgrid="false"
     inkscape:zoom="6.2890624"
     inkscape:cx="47.622361"
     inkscape:cy="45.396274"
     inkscape:window-x="0"
     inkscape:window-y="75"
     inkscape:window-maximized="0"
     inkscape:current-layer="g877"
     inkscape:document-rotation="0"
     inkscape:pagecheckerboard="0"
     inkscape:showpageshadow="2"
     inkscape:deskcolor="#d1d1d1" />
  <defs
     id="defs29" />
  <circle
     cx="32.516094"
     cy="31.877844"
     r="0"
     fill="url(#b)"
     stroke-width="1.5715"
     id="circle41"
     style="fill:url(#b)" />
  <g
     aria-label="GZ"
     transform="matrix(1.2212657,0,0,0.81882264,0.4960938,-0.1661539)"
     id="text93"
     style="font-weight:bold;font-size:11.5263px;line-height:1.25;font-family:sans-serif;-inkscape-font-specification:'sans-serif Bold';fill:#f2f2f2;stroke-width:0.288159" />
  <g
     id="g877"
     transform="matrix(1.1,0,0,1.1,-3.1845928,-3.2065454)">
    <rect
       x="8.3496294"
       y="8.369586"
       width="47.272728"
       height="47.272728"
       rx="9.8825235"
       ry="9.6485243"
       fill="url(#linearGradient862)"
       stroke-width="3.0541"
       id="rect35-7-3"
       style="fill:#414141;fill-opacity:1;stroke:#dfdfdf;stroke-width:2.04545;stroke-dasharray:none;stroke-opacity:1" />
    <path
       style="fill:#dfdfdf;fill-opacity:1;stroke:none;stroke-width:0.510565;stroke-dasharray:none;stroke-opacity:0.6"
       d="M 27.788937,43.91875 C 25.995272,43.749084 24.270896,42.781057 22.999696,41.230181 22.05237,40.074424 21.293321,37.936472 21.008338,35.621256 L 20.952068,35.16428 20.343383,35.13614 C 20.008604,35.12066 18.925214,35.0944 17.935841,35.07785 l -1.798855,-0.03014 1.16e-4,-0.524154 c 6.3e-5,-0.288289 0.01364,-0.962916 0.03042,-1.499177 l 0.03016,-0.975021 0.747211,0.0164 c 0.410966,0.0089 1.467215,0.03484 2.347224,0.05762 0.88001,0.02268 1.605659,0.03575 1.61256,0.02896 0.0068,-0.0066 0.03287,-0.285323 0.05774,-0.619132 0.118726,-1.594291 0.598161,-3.370186 1.261018,-4.670902 1.008411,-1.978788 2.422991,-3.142717 4.172841,-3.433451 2.012424,-0.334363 4.005286,0.156759 5.727544,1.411483 0.609324,0.443916 1.645757,1.455123 2.259644,2.204643 0.267035,0.326032 0.90316,1.159552 1.413614,1.852262 1.629314,2.211057 2.159884,2.813685 2.714987,3.083728 0.336896,0.163902 0.460551,0.173834 0.719913,0.05792 0.261032,-0.116684 0.340829,-0.222222 0.400099,-0.528805 0.1145,-0.59256 -0.01483,-1.403513 -0.589305,-3.69262 -0.553933,-2.207614 -0.637061,-2.694278 -0.638442,-3.737859 -0.001,-0.766325 0.0088,-0.873757 0.123332,-1.287985 0.452374,-1.642567 1.717175,-2.734151 3.16799,-2.734151 1.1776,0 2.736876,0.654768 4.327296,1.817102 0.482277,0.352466 1.787279,1.422233 1.811864,1.485267 0.02254,0.05807 -1.940283,2.262259 -1.988708,2.233134 -0.02254,-0.01394 -0.299053,-0.240171 -0.612603,-0.50252 -1.057758,-0.884903 -1.822006,-1.399381 -2.612727,-1.758859 -0.561283,-0.255165 -0.833344,-0.318049 -0.977709,-0.225964 -0.140568,0.08968 -0.205457,0.325867 -0.205811,0.749201 -5.38e-4,0.707114 0.149269,1.513728 0.633307,3.410855 0.554585,2.1735 0.698303,3.0709 0.654347,4.08598 -0.02996,0.706328 -0.151556,1.191621 -0.440285,1.766455 -0.184517,0.367441 -0.279529,0.491547 -0.65929,0.860911 -0.361112,0.351369 -0.521255,0.470214 -0.861406,0.63943 -1.451907,0.722301 -2.869701,0.616453 -4.225901,-0.315482 -0.737122,-0.506534 -1.605691,-1.434051 -2.531967,-2.703816 -0.269979,-0.370087 -0.69793,-0.957604 -0.951002,-1.305586 -1.773334,-2.438364 -3.184627,-3.64888 -4.579434,-3.92795 -0.672621,-0.134577 -1.615427,-0.05189 -2.092642,0.183528 -0.512463,0.252808 -1.084585,0.933665 -1.473912,1.754041 -0.463148,0.975921 -0.824521,2.417374 -0.90318,3.602619 l -0.03202,0.482435 0.224734,0.02935 c 1.934244,0.252884 3.140157,0.571485 4.296887,1.135232 1.646697,0.802536 2.648721,1.803309 3.523014,3.518633 0.963198,1.889739 1.038737,3.566342 0.220182,4.887063 -0.693783,1.119417 -1.908833,1.817829 -3.409697,1.95991 -0.50563,0.04787 -0.536943,0.04787 -1.040069,2.6e-4 z m 1.523737,-3.178763 c 0.18371,-0.09277 0.264854,-0.166085 0.316159,-0.285585 0.243832,-0.56812 0.0079,-1.509784 -0.646736,-2.582671 -0.624531,-1.023381 -1.364605,-1.5637 -2.747338,-2.005854 -0.500625,-0.16008 -1.708538,-0.397113 -2.026063,-0.397572 l -0.121803,-1.81e-4 0.0878,0.48582 c 0.204283,1.130627 0.527841,2.143876 0.937212,2.934991 0.355426,0.686873 0.961826,1.242831 1.771817,1.624434 0.630377,0.296993 1.006128,0.380099 1.647983,0.36439 0.477807,-0.0116 0.5598,-0.0261 0.780989,-0.137768 z"
       id="path109" />
  </g>
</svg>
