<?xml version="1.0" encoding="UTF-8" standalone="no"?>
<svg
   width="64"
   height="64"
   version="1.1"
   id="svg73"
   sodipodi:docname="accessories-character-map.svg"
   inkscape:version="1.3.2 (091e20ef0f, 2023-11-25)"
   xmlns:inkscape="http://www.inkscape.org/namespaces/inkscape"
   xmlns:sodipodi="http://sodipodi.sourceforge.net/DTD/sodipodi-0.dtd"
   xmlns="http://www.w3.org/2000/svg"
   xmlns:svg="http://www.w3.org/2000/svg"
   xmlns:rdf="http://www.w3.org/1999/02/22-rdf-syntax-ns#"
   xmlns:cc="http://creativecommons.org/ns#"
   xmlns:dc="http://purl.org/dc/elements/1.1/">
  <metadata
     id="metadata77">
    <rdf:RDF>
      <cc:Work
         rdf:about="">
        <dc:format>image/svg+xml</dc:format>
        <dc:type
           rdf:resource="http://purl.org/dc/dcmitype/StillImage" />
      </cc:Work>
    </rdf:RDF>
  </metadata>
  <sodipodi:namedview
     pagecolor="#f5f7fa"
     bordercolor="#666666"
     borderopacity="1"
     objecttolerance="10"
     gridtolerance="10"
     guidetolerance="10"
     inkscape:pageopacity="0"
     inkscape:pageshadow="2"
     inkscape:window-width="1377"
     inkscape:window-height="886"
     id="namedview75"
     showgrid="false"
     inkscape:zoom="4.4470387"
     inkscape:cx="47.784608"
     inkscape:cy="14.054296"
     inkscape:window-x="181"
     inkscape:window-y="77"
     inkscape:window-maximized="0"
     inkscape:current-layer="g877"
     inkscape:document-rotation="0"
     inkscape:pagecheckerboard="0"
     inkscape:showpageshadow="2"
     inkscape:deskcolor="#d1d1d1" />
  <defs
     id="defs29">
    <linearGradient
       id="b"
       x1="399.57"
       x2="399.57"
       y1="545.8"
       y2="517.8"
       gradientTransform="matrix(2.1429,0,0,2.1429,-825.86391,-1107.6662)"
       gradientUnits="userSpaceOnUse">
      <stop
         stop-color="#3889e9"
         offset="0"
         id="stop2" />
      <stop
         stop-color="#5ea5fb"
         offset="1"
         id="stop4" />
    </linearGradient>
    <linearGradient
       id="d"
       x2="1"
       gradientTransform="matrix(14.905727,-4.7106182,4.7106182,14.905727,322.04962,998.26962)"
       gradientUnits="userSpaceOnUse">
      <stop
         stop-color="#fafafa"
         offset="0"
         id="stop7" />
      <stop
         stop-color="#aaa"
         offset="1"
         id="stop8" />
    </linearGradient>
    <linearGradient
       id="e"
       x2="1"
       gradientTransform="matrix(21.439909,0,0,21.439909,26.63554,1159.7788)"
       gradientUnits="userSpaceOnUse">
      <stop
         stop-color="#f0f0f0"
         offset="0"
         id="stop9" />
      <stop
         stop-color="#b7f1ff"
         offset="1"
         id="stop10" />
    </linearGradient>
  </defs>
  <circle
     cx="32.516094"
     cy="31.877844"
     r="0"
     fill="url(#b)"
     stroke-width="1.5715"
     id="circle41"
     style="fill:url(#b)" />
  <g
     aria-label="GZ"
     transform="matrix(1.2212657,0,0,0.81882264,0.4960938,-0.1661539)"
     id="text93"
     style="font-weight:bold;font-size:11.5263px;line-height:1.25;font-family:sans-serif;-inkscape-font-specification:'sans-serif Bold';fill:#f2f2f2;stroke-width:0.288159" />
  <g
     id="g877"
     transform="matrix(1.1,0,0,1.1,-3.1845928,-3.2065454)">
    <rect
       x="6.3010068"
       y="5.4939413"
       width="51.635597"
       height="53.148327"
       rx="10.980581"
       ry="10.720582"
       fill="url(#linearGradient862)"
       stroke-width="3.0541"
       id="rect35-7-3"
       style="fill:#414141;fill-opacity:1;stroke:#dfdfdf;stroke-width:2.27272727;stroke-dasharray:none;stroke-opacity:1" />
    <path
       d="m 20.734204,19.757862 c -0.07502,0.0097 -0.15367,0.02662 -0.21054,0.08228 l -2.58093,2.56399 c -0.10769,0.1089 -0.11979,0.27104 -0.03993,0.40172 l 2.74428,4.50241 c -0.64614,1.04786 -1.14345,2.19373 -1.47983,3.408571 l -5.063849,1.044229 c -0.154881,0.03146 -0.26741,0.17908 -0.26741,0.33638 v 3.62032 c 0,0.15367 0.11737,0.283141 0.26741,0.31944 l 4.91018,1.18338 c 0.309759,1.36609 0.831269,2.64869 1.524599,3.81876 l -2.86165,4.32817 c -0.08712,0.130678 -0.06897,0.30613 0.04235,0.417451 l 2.57851,2.562779 c 0.1089,0.10769 0.2783,0.121001 0.408981,0.04235 l 4.46853,-2.69467 c 1.103519,0.659451 2.30747,1.16281 3.587649,1.48225 l 1.04181,4.983991 c 0.03267,0.153669 0.163351,0.26499 0.321861,0.26499 h 3.64694 c 0.152459,0 0.285559,-0.10285 0.32186,-0.25047 l 1.23783,-5.015451 c 1.28986,-0.33396 2.492599,-0.87483 3.599749,-1.55485 l 4.48789,2.920941 c 0.131889,0.08591 0.30492,0.07018 0.417451,-0.03993 l 2.56762,-2.561571 c 0.1089,-0.10769 0.13431,-0.274669 0.05324,-0.404139 l -1.750871,-2.868911 -0.57354,0.1815 c -0.08349,0.02541 -0.175449,-0.01331 -0.22506,-0.0847 0,0 -0.5445,-0.73568 -0.976469,-1.32132 -0.20086,-0.30613 -1.177331,-1.741191 -2.18526,-3.05525 -1.589941,3.40494 -5.005771,5.58173 -8.761611,5.58536 -5.345779,0 -9.68,-4.33422 -9.68,-9.68 0.0036,-3.67114 1.7182,-6.9333 4.840001,-8.56801 v -3.91314 c -0.67518,0.25047 -1.11925,0.560229 -1.737561,0.91234 l -4.466109,-2.904 c -0.06655,-0.04356 -0.134311,-0.05324 -0.20812,-0.04598 z m 13.67179,-7.25879 v 12.09637 l 8.47,-12.100001 7.26,2.420001 -9.679999,10.89 9.61103,10.89 -7.191031,2.42 -8.47,-12.100001 v 10.890001 l -6.049999,0.942589 V 13.096812 l 6.049999,-0.59774 v -0.0036 h 0.03388 z"
       fill="#ffffff"
       fill-opacity="0.9"
       fill-rule="nonzero"
       id="path3"
       style="stroke-width:1.21;fill:#dfdfdf;fill-opacity:0.99999988" />
  </g>
</svg>
