<?xml version="1.0" encoding="UTF-8" standalone="no"?>
<svg
   width="64"
   height="64"
   version="1.1"
   id="svg73"
   sodipodi:docname="partitionmanager.svg"
   inkscape:version="1.4.2 (ebf0e940d0, 2025-05-08)"
   xmlns:inkscape="http://www.inkscape.org/namespaces/inkscape"
   xmlns:sodipodi="http://sodipodi.sourceforge.net/DTD/sodipodi-0.dtd"
   xmlns="http://www.w3.org/2000/svg"
   xmlns:svg="http://www.w3.org/2000/svg"
   xmlns:rdf="http://www.w3.org/1999/02/22-rdf-syntax-ns#"
   xmlns:cc="http://creativecommons.org/ns#"
   xmlns:dc="http://purl.org/dc/elements/1.1/">
  <metadata
     id="metadata77">
    <rdf:RDF>
      <cc:Work
         rdf:about="">
        <dc:format>image/svg+xml</dc:format>
        <dc:type
           rdf:resource="http://purl.org/dc/dcmitype/StillImage" />
      </cc:Work>
    </rdf:RDF>
  </metadata>
  <sodipodi:namedview
     pagecolor="#f5f7fa"
     bordercolor="#666666"
     borderopacity="1"
     objecttolerance="10"
     gridtolerance="10"
     guidetolerance="10"
     inkscape:pageopacity="0"
     inkscape:pageshadow="2"
     inkscape:window-width="1377"
     inkscape:window-height="886"
     id="namedview75"
     showgrid="false"
     inkscape:zoom="6.2890624"
     inkscape:cx="47.622361"
     inkscape:cy="45.396274"
     inkscape:window-x="264"
     inkscape:window-y="102"
     inkscape:window-maximized="0"
     inkscape:current-layer="g877"
     inkscape:document-rotation="0"
     inkscape:pagecheckerboard="0"
     inkscape:showpageshadow="2"
     inkscape:deskcolor="#d1d1d1" />
  <defs
     id="defs29" />
  <circle
     cx="32.516094"
     cy="31.877844"
     r="0"
     fill="url(#b)"
     stroke-width="1.5715"
     id="circle41"
     style="fill:url(#b)" />
  <g
     aria-label="GZ"
     transform="matrix(1.2212657,0,0,0.81882264,0.4960938,-0.1661539)"
     id="text93"
     style="font-weight:bold;font-size:11.5263px;line-height:1.25;font-family:sans-serif;-inkscape-font-specification:'sans-serif Bold';fill:#f2f2f2;stroke-width:0.288159" />
  <g
     id="g877"
     transform="matrix(1.1,0,0,1.1,-3.1845928,-3.2065454)">
    <rect
       x="8.3496294"
       y="8.369586"
       width="47.272728"
       height="47.272728"
       rx="9.8825235"
       ry="9.6485243"
       fill="url(#linearGradient862)"
       stroke-width="3.0541"
       id="rect35-7-3"
       style="fill:#414141;fill-opacity:1;stroke:#dfdfdf;stroke-width:2.04545;stroke-dasharray:none;stroke-opacity:1" />
    <path
       id="path1-2"
       style="fill:#dfdfdf;fill-opacity:1;stroke:none;stroke-width:0.459507;stroke-dasharray:none;stroke-dashoffset:2.2;stroke-opacity:0.6"
       d="m 31.93016,17.337136 c -0.792966,0.0079 -1.57386,0.229001 -1.912813,0.65991 -0.116912,0.148632 -0.566168,1.335958 -1.000087,2.637784 l -0.790037,2.366389 0.436842,0.388511 c 0.461611,0.409488 1.198607,0.721687 2.074536,0.881122 0.838182,0.15256 2.541268,0.03985 3.310713,-0.219352 0.836631,-0.281841 1.519384,-0.723232 1.596798,-1.031689 0.07705,-0.307011 -1.439289,-4.742409 -1.730638,-5.061802 -0.386508,-0.423704 -1.192344,-0.628746 -1.985314,-0.620873 z m -5.171472,10.088277 -0.654336,1.892366 c -1.196811,3.456363 -1.171091,3.275688 -0.557669,3.974341 0.957286,1.090289 2.790671,1.797936 5.21051,2.011333 3.029536,0.267166 6.159126,-0.485745 7.472805,-1.799422 0.7707,-0.770696 0.770829,-0.778602 -0.07062,-3.320003 -0.410151,-1.238704 -0.788938,-2.36602 -0.840229,-2.503945 -0.09245,-0.248606 -0.09646,-0.247717 -0.433133,0.135701 -0.436315,0.496948 -1.677428,1.102649 -2.723284,1.329118 -1.22398,0.265035 -3.301014,0.240346 -4.522713,-0.05391 -1.147248,-0.276331 -2.152142,-0.780907 -2.576447,-1.295661 z m -2.652658,7.273895 c 0,-0.01406 -1.365257,0.559738 -3.033731,1.275208 -2.621661,1.124213 -3.090394,1.362223 -3.45571,1.749223 -0.37314,0.395303 -0.414805,0.493031 -0.358764,0.838368 0.03763,0.2318 0.207623,0.54113 0.41825,0.758438 0.206257,0.212836 2.720501,1.712898 5.989395,3.574673 6.59738,3.757492 5.967636,3.41824 6.693917,3.613714 0.934719,0.251575 2.626243,0.211705 3.487305,-0.08172 0.413997,-0.141098 3.207176,-1.666134 6.543353,-3.572822 6.071424,-3.469919 6.344443,-3.656801 6.344443,-4.349838 0,-0.392382 -0.286546,-0.855419 -0.680362,-1.098616 -0.31995,-0.197526 -6.206889,-2.764568 -6.206889,-2.706559 0,0.01304 0.145216,0.450483 0.321599,0.972208 0.249083,0.736963 0.299093,1.022111 0.224957,1.280782 -0.609017,2.123493 -4.407954,3.521712 -9.112364,3.353455 -3.623692,-0.129615 -6.551608,-1.214865 -7.459791,-2.76422 -0.332602,-0.567424 -0.33031,-1.009232 0.01111,-2.013187 0.150317,-0.441938 0.273261,-0.814975 0.273261,-0.829072 z" />
  </g>
</svg>
