<?xml version="1.0" encoding="UTF-8" standalone="no"?>
<svg
   width="64"
   height="64"
   version="1.1"
   id="svg73"
   sodipodi:docname="partitionmanager.svg"
   inkscape:version="1.4.2 (ebf0e940d0, 2025-05-08)"
   xmlns:inkscape="http://www.inkscape.org/namespaces/inkscape"
   xmlns:sodipodi="http://sodipodi.sourceforge.net/DTD/sodipodi-0.dtd"
   xmlns="http://www.w3.org/2000/svg"
   xmlns:svg="http://www.w3.org/2000/svg"
   xmlns:rdf="http://www.w3.org/1999/02/22-rdf-syntax-ns#"
   xmlns:cc="http://creativecommons.org/ns#"
   xmlns:dc="http://purl.org/dc/elements/1.1/">
  <metadata
     id="metadata77">
    <rdf:RDF>
      <cc:Work
         rdf:about="">
        <dc:format>image/svg+xml</dc:format>
        <dc:type
           rdf:resource="http://purl.org/dc/dcmitype/StillImage" />
      </cc:Work>
    </rdf:RDF>
  </metadata>
  <sodipodi:namedview
     pagecolor="#f5f7fa"
     bordercolor="#666666"
     borderopacity="1"
     objecttolerance="10"
     gridtolerance="10"
     guidetolerance="10"
     inkscape:pageopacity="0"
     inkscape:pageshadow="2"
     inkscape:window-width="1377"
     inkscape:window-height="886"
     id="namedview75"
     showgrid="false"
     inkscape:zoom="6.2890624"
     inkscape:cx="47.622361"
     inkscape:cy="45.396274"
     inkscape:window-x="264"
     inkscape:window-y="102"
     inkscape:window-maximized="0"
     inkscape:current-layer="g877"
     inkscape:document-rotation="0"
     inkscape:pagecheckerboard="0"
     inkscape:showpageshadow="2"
     inkscape:deskcolor="#d1d1d1" />
  <defs
     id="defs29" />
  <circle
     cx="32.516094"
     cy="31.877844"
     r="0"
     fill="url(#b)"
     stroke-width="1.5715"
     id="circle41"
     style="fill:url(#b)" />
  <g
     aria-label="GZ"
     transform="matrix(1.2212657,0,0,0.81882264,0.4960938,-0.1661539)"
     id="text93"
     style="font-weight:bold;font-size:11.5263px;line-height:1.25;font-family:sans-serif;-inkscape-font-specification:'sans-serif Bold';fill:#f2f2f2;stroke-width:0.288159" />
  <g
     id="g877"
     transform="matrix(1.1,0,0,1.1,-3.1845928,-3.2065454)">
    <rect
       x="8.3496294"
       y="8.369586"
       width="47.272728"
       height="47.272728"
       rx="9.8825235"
       ry="9.6485243"
       fill="url(#linearGradient862)"
       stroke-width="3.0541"
       id="rect35-7-3"
       style="fill:#414141;fill-opacity:1;stroke:#dfdfdf;stroke-width:2.04545;stroke-dasharray:none;stroke-opacity:1" />
    <path
       style="fill:#dfdfdf;fill-opacity:1;stroke:none;stroke-width:0.510565;stroke-dasharray:none;stroke-opacity:0.6"
       d="m 30.503613,47.59718 c -3.260557,-0.331282 -6.209645,-1.579068 -8.68788,-3.675927 -0.233993,-0.197984 -0.735073,-0.679925 -1.11351,-1.070987 -3.414185,-3.528021 -4.93604,-8.461726 -4.138911,-13.417906 0.313205,-1.94736 1.010916,-3.839595 2.06081,-5.589036 1.116339,-1.860164 2.991636,-3.784802 4.865823,-4.993857 2.144289,-1.383299 4.566379,-2.202782 7.198445,-2.435503 0.832754,-0.07365 2.706024,-0.03213 3.515143,0.07793 2.995279,0.407319 5.619111,1.452477 7.858575,3.13033 2.657451,1.991021 4.505747,4.701398 5.222173,7.657914 0.277079,1.143402 0.331013,1.614902 0.332077,2.902999 9.04e-4,1.03531 -0.01225,1.245169 -0.115474,1.751807 -0.666556,3.295468 -2.853099,5.837483 -5.89643,6.855011 -1.110184,0.371209 -1.48701,0.412032 -4.02247,0.436006 -2.189058,0.02062 -2.234287,0.02288 -2.634072,0.143598 -0.956376,0.288163 -1.592348,0.99622 -1.720036,1.914943 -0.09132,0.657051 0.130797,1.319572 0.699724,2.087239 0.383025,0.516827 0.412556,0.607875 0.438958,1.35373 0.01765,0.498995 0.0039,0.7292 -0.0583,0.976016 -0.203583,0.807653 -0.675036,1.408283 -1.36335,1.736945 l -0.393119,0.187739 -0.800827,0.008 c -0.440457,0.0045 -1.00178,-0.01223 -1.247386,-0.03704 z M 21.688521,31.95841 c 0.781485,-0.203549 1.431894,-0.778439 1.733049,-1.531833 0.163727,-0.409586 0.186906,-1.041711 0.05423,-1.478568 -0.459173,-1.51172 -2.156493,-2.221507 -3.49532,-1.461679 -0.608128,0.345135 -1.111488,1.064147 -1.230215,1.757268 -0.275967,1.611085 1.362758,3.125184 2.938278,2.714812 z m 20.40384,0.02631 c 0.437541,-0.08164 0.883456,-0.330301 1.249053,-0.696485 0.770997,-0.772232 0.946478,-1.781716 0.475411,-2.734849 -0.614281,-1.242904 -2.050233,-1.724046 -3.280337,-1.099138 -0.414565,0.210597 -0.867157,0.692382 -1.088702,1.158894 -0.162962,0.343092 -0.187803,0.446097 -0.205522,0.851854 -0.01547,0.368088 0.001,0.531854 0.08526,0.80858 0.361074,1.188753 1.566539,1.9348 2.764889,1.711152 z M 27.825367,24.697786 c 0.88485,-0.259589 1.586643,-1.047912 1.750842,-1.966712 0.224646,-1.257035 -0.726914,-2.546824 -2.042068,-2.767918 -1.145657,-0.192599 -2.35986,0.595999 -2.696648,1.751416 -0.166454,0.571029 -0.06424,1.355484 0.241562,1.854277 0.158204,0.258019 0.526953,0.643791 0.785531,0.821769 0.523945,0.360625 1.341826,0.488755 1.960781,0.307168 z m 8.813949,-0.156443 c 0.542779,-0.268958 0.920826,-0.65302 1.180009,-1.198793 0.161931,-0.341051 0.186867,-0.444685 0.204619,-0.849977 0.01579,-0.368089 -10e-4,-0.531855 -0.08526,-0.808579 -0.347873,-1.145428 -1.539063,-1.913823 -2.666981,-1.720408 -1.312929,0.225143 -2.261621,1.49082 -2.054471,2.740933 0.114361,0.690112 0.600055,1.406672 1.186389,1.750285 0.421167,0.246814 0.748311,0.324206 1.307253,0.309241 0.480975,-0.01286 0.527488,-0.02407 0.928409,-0.222704 z"
       id="path7" />
  </g>
</svg>
