<?xml version="1.0" encoding="UTF-8" standalone="no"?>
<svg
   width="64"
   height="64"
   version="1.1"
   id="svg73"
   sodipodi:docname="audacious.svg"
   inkscape:version="1.4.2 (ebf0e940d0, 2025-05-08)"
   xmlns:inkscape="http://www.inkscape.org/namespaces/inkscape"
   xmlns:sodipodi="http://sodipodi.sourceforge.net/DTD/sodipodi-0.dtd"
   xmlns="http://www.w3.org/2000/svg"
   xmlns:svg="http://www.w3.org/2000/svg"
   xmlns:rdf="http://www.w3.org/1999/02/22-rdf-syntax-ns#"
   xmlns:cc="http://creativecommons.org/ns#"
   xmlns:dc="http://purl.org/dc/elements/1.1/">
  <metadata
     id="metadata77">
    <rdf:RDF>
      <cc:Work
         rdf:about="">
        <dc:format>image/svg+xml</dc:format>
        <dc:type
           rdf:resource="http://purl.org/dc/dcmitype/StillImage" />
      </cc:Work>
    </rdf:RDF>
  </metadata>
  <sodipodi:namedview
     pagecolor="#f5f7fa"
     bordercolor="#666666"
     borderopacity="1"
     objecttolerance="10"
     gridtolerance="10"
     guidetolerance="10"
     inkscape:pageopacity="0"
     inkscape:pageshadow="2"
     inkscape:window-width="1377"
     inkscape:window-height="886"
     id="namedview75"
     showgrid="false"
     inkscape:zoom="6.2890624"
     inkscape:cx="45.714286"
     inkscape:cy="42.057144"
     inkscape:window-x="0"
     inkscape:window-y="75"
     inkscape:window-maximized="0"
     inkscape:current-layer="g877"
     inkscape:document-rotation="0"
     inkscape:pagecheckerboard="0"
     inkscape:showpageshadow="2"
     inkscape:deskcolor="#d1d1d1" />
  <defs
     id="defs29" />
  <circle
     cx="32.516094"
     cy="31.877844"
     r="0"
     fill="url(#b)"
     stroke-width="1.5715"
     id="circle41"
     style="fill:url(#b)" />
  <g
     aria-label="GZ"
     transform="matrix(1.2212657,0,0,0.81882264,0.4960938,-0.1661539)"
     id="text93"
     style="font-weight:bold;font-size:11.5263px;line-height:1.25;font-family:sans-serif;-inkscape-font-specification:'sans-serif Bold';fill:#f2f2f2;stroke-width:0.288159" />
  <g
     id="g877"
     transform="matrix(1.1,0,0,1.1,-3.1845928,-3.2065454)">
    <rect
       x="8.3496294"
       y="8.369586"
       width="47.272728"
       height="47.272728"
       rx="9.8825235"
       ry="9.6485243"
       fill="url(#linearGradient862)"
       stroke-width="3.0541"
       id="rect35-7-3"
       style="fill:#414141;fill-opacity:1;stroke:#dfdfdf;stroke-width:2.04545;stroke-dasharray:none;stroke-opacity:1" />
    <path
       style="fill:#dfdfdf;stroke-width:0.101842;fill-opacity:1"
       d="m 32.068653,47.281533 c -0.04805,-0.784196 -0.179023,-2.036863 -0.291036,-2.783713 -0.112011,-0.74685 -0.29938,-3.343857 -0.416371,-5.771117 -0.241655,-5.013634 -0.266879,-5.247061 -0.585095,-5.414539 -0.127484,-0.0671 -1.301144,-0.192467 -2.608133,-0.2786 -1.306987,-0.08614 -2.834636,-0.222056 -3.394774,-0.302047 -0.560137,-0.07999 -1.72115,-0.217587 -2.580028,-0.305769 l -1.561596,-0.160329 1.180676,-0.09645 c 0.649373,-0.05305 1.565963,-0.184619 2.036866,-0.292377 0.470903,-0.107762 2.200515,-0.290846 3.843589,-0.406864 3.421389,-0.241579 3.461342,-0.257894 3.464258,-1.414736 0.0024,-0.945342 0.384286,-8.113662 0.482101,-9.049005 0.04685,-0.448111 0.17071,-1.395254 0.275224,-2.104762 0.104513,-0.709505 0.196473,-1.687201 0.204355,-2.172655 0.01757,-1.078 0.223491,-0.624099 0.2465,0.543166 0.0081,0.410766 0.104671,1.509794 0.214612,2.442282 0.109945,0.932489 0.295539,3.651705 0.412436,6.0427 0.247485,5.062182 0.261046,5.180324 0.616507,5.370559 0.147934,0.07917 1.535467,0.232762 3.083399,0.341311 1.547935,0.108551 3.150508,0.266747 3.561275,0.351553 0.410765,0.08481 1.357909,0.225497 2.104755,0.312652 l 1.357911,0.158459 -1.357911,0.105707 c -0.746846,0.05815 -1.602333,0.160535 -1.901073,0.227546 -0.298705,0.06701 -1.918044,0.222163 -3.598457,0.344782 -3.319282,0.242209 -3.471547,0.287046 -3.590567,1.057329 -0.03592,0.232473 -0.160742,2.378068 -0.277386,4.767988 -0.116646,2.389919 -0.300414,5.078583 -0.408381,5.974799 -0.107965,0.896225 -0.204296,1.996129 -0.214073,2.444241 -0.03332,1.528103 -0.207683,1.567618 -0.299589,0.06794 z M 29.390137,42.44837 c -3.862379,-1.026011 -6.781375,-4.394518 -7.378825,-8.515137 l -0.07483,-0.516055 0.705476,0.04079 c 0.700929,0.04053 0.705203,0.04352 0.663184,0.464065 -0.02326,0.232806 0.04171,0.507783 0.14439,0.61106 0.102674,0.103279 0.391284,0.572259 0.64136,1.042181 0.570759,1.072517 1.819864,2.247822 2.952048,2.777634 0.747446,0.349787 1.269856,0.471981 3.129338,0.732066 0.360569,0.0504 0.422244,0.104794 0.332533,0.293148 -0.06057,0.127171 -0.07645,0.819404 -0.0353,1.538279 0.04115,0.718881 0.05509,1.406318 0.03094,1.527651 -0.0522,0.262295 -0.137875,0.262613 -1.110317,0.0045 z M 33.9248,41.544367 c 0.04703,-0.541471 0.09757,-1.549713 0.112365,-2.240554 0.01478,-0.690835 0.07141,-1.256067 0.125814,-1.256067 0.319399,0 2.352358,-1.749196 2.884093,-2.481529 0.337584,-0.46494 0.708272,-0.952282 0.823741,-1.082982 0.115488,-0.130695 0.209916,-0.353646 0.209916,-0.495435 0,-0.27577 0.0814,-0.289331 3.015336,-0.502268 l 1.18216,-0.0858 -0.07624,0.524775 c -0.492039,3.38705 -2.547965,6.310192 -5.478241,7.789049 -0.847398,0.427668 -2.061495,0.815289 -2.553633,0.815289 -0.327965,0 -0.330059,-0.0081 -0.245326,-0.984482 z M 22.102328,30.25389 c 0.103921,-0.758169 0.671393,-2.052046 0.94625,-2.157521 0.133725,-0.05131 0.183324,-0.182104 0.136693,-0.360428 -0.05314,-0.203154 -0.0086,-0.279889 0.162173,-0.279889 0.178481,0 0.215025,0.07384 0.151226,0.305531 -0.04628,0.168044 -0.153119,0.896291 -0.23743,1.618335 -0.162091,1.388126 -0.212587,1.463467 -0.98464,1.469057 -0.224666,0.0017 -0.246052,-0.0714 -0.174272,-0.595085 z m 18.151085,0.458134 c -0.634821,-0.03901 -1.230603,-0.118983 -1.323956,-0.177751 -0.09333,-0.05877 -0.16974,-0.273723 -0.16974,-0.477677 0,-0.64145 -0.393208,-1.952108 -0.892389,-2.97455 -0.64584,-1.322834 -1.708973,-2.448251 -2.907919,-3.078279 -0.857658,-0.450689 -0.952377,-0.541127 -0.952377,-0.909357 0,-0.224894 -0.06822,-0.536374 -0.151614,-0.69218 -0.147017,-0.274701 -0.129222,-0.280977 0.586906,-0.207066 0.406185,0.04193 1.152463,0.263911 1.658394,0.493315 3.022714,1.370561 5.54494,4.514539 5.856588,7.300287 0.0915,0.81806 0.08679,0.8349 -0.228136,0.814746 -0.176854,-0.0113 -0.840955,-0.05249 -1.475781,-0.09149 z M 27.489064,23.601839 c 0,-0.120734 0.05398,-0.219513 0.119952,-0.219513 0.06599,0 0.152043,-0.122696 0.191254,-0.272657 0.04042,-0.154626 0.326505,-0.387936 0.660842,-0.53896 0.61651,-0.278486 1.979228,-0.630256 2.069206,-0.534144 0.02868,0.03065 0.02136,0.367965 -0.01627,0.749568 l -0.06848,0.693823 -1.104834,0.08848 c -0.607665,0.04866 -1.272883,0.125478 -1.478266,0.1707 -0.287284,0.06325 -0.373425,0.03159 -0.373427,-0.137294 z"
       id="path1" />
  </g>
</svg>
