<?xml version="1.0" encoding="UTF-8" standalone="no"?>
<svg
   width="64"
   height="64"
   version="1.1"
   id="svg73"
   sodipodi:docname="audacious.svg"
   inkscape:version="1.4.2 (ebf0e940d0, 2025-05-08)"
   xmlns:inkscape="http://www.inkscape.org/namespaces/inkscape"
   xmlns:sodipodi="http://sodipodi.sourceforge.net/DTD/sodipodi-0.dtd"
   xmlns="http://www.w3.org/2000/svg"
   xmlns:svg="http://www.w3.org/2000/svg"
   xmlns:rdf="http://www.w3.org/1999/02/22-rdf-syntax-ns#"
   xmlns:cc="http://creativecommons.org/ns#"
   xmlns:dc="http://purl.org/dc/elements/1.1/">
  <metadata
     id="metadata77">
    <rdf:RDF>
      <cc:Work
         rdf:about="">
        <dc:format>image/svg+xml</dc:format>
        <dc:type
           rdf:resource="http://purl.org/dc/dcmitype/StillImage" />
      </cc:Work>
    </rdf:RDF>
  </metadata>
  <sodipodi:namedview
     pagecolor="#f5f7fa"
     bordercolor="#666666"
     borderopacity="1"
     objecttolerance="10"
     gridtolerance="10"
     guidetolerance="10"
     inkscape:pageopacity="0"
     inkscape:pageshadow="2"
     inkscape:window-width="1377"
     inkscape:window-height="886"
     id="namedview75"
     showgrid="false"
     inkscape:zoom="6.2890624"
     inkscape:cx="47.622361"
     inkscape:cy="45.396274"
     inkscape:window-x="264"
     inkscape:window-y="75"
     inkscape:window-maximized="0"
     inkscape:current-layer="g877"
     inkscape:document-rotation="0"
     inkscape:pagecheckerboard="0"
     inkscape:showpageshadow="2"
     inkscape:deskcolor="#d1d1d1" />
  <defs
     id="defs29" />
  <circle
     cx="32.516094"
     cy="31.877844"
     r="0"
     fill="url(#b)"
     stroke-width="1.5715"
     id="circle41"
     style="fill:url(#b)" />
  <g
     aria-label="GZ"
     transform="matrix(1.2212657,0,0,0.81882264,0.4960938,-0.1661539)"
     id="text93"
     style="font-weight:bold;font-size:11.5263px;line-height:1.25;font-family:sans-serif;-inkscape-font-specification:'sans-serif Bold';fill:#f2f2f2;stroke-width:0.288159" />
  <g
     id="g877"
     transform="matrix(1.1,0,0,1.1,-3.1845928,-3.2065454)">
    <rect
       x="8.3496294"
       y="8.369586"
       width="47.272728"
       height="47.272728"
       rx="9.8825235"
       ry="9.6485243"
       fill="url(#linearGradient862)"
       stroke-width="3.0541"
       id="rect35-7-3"
       style="fill:#414141;fill-opacity:1;stroke:#dfdfdf;stroke-width:2.04545;stroke-dasharray:none;stroke-opacity:1" />
    <path
       id="path17"
       style="fill:#dfdfdf;stroke:none;stroke-width:0.106983;stroke-dasharray:none;fill-opacity:1"
       d="m 27.604009,24.14289 c -0.428966,-0.03486 -0.891093,0.153975 -1.226408,0.526497 -0.124517,0.138333 -0.541732,0.577184 -0.927159,0.974739 -0.385426,0.397554 -1.025241,1.059053 -1.421729,1.470559 -0.396487,0.411503 -1.034653,1.073386 -1.418598,1.47056 -0.383944,0.397175 -1.322724,1.372363 -2.085952,2.16671 -0.763231,0.794348 -1.689917,1.756703 -2.059661,2.139168 -0.369744,0.382463 -0.904887,0.936584 -1.188843,1.230787 -0.605671,0.627526 -0.734342,0.866184 -0.734342,1.363505 0,0.574645 0.281491,1.036112 0.771278,1.264596 l 0.269199,0.125845 3.207809,-0.01309 3.20781,-0.01309 4.052332,-4.198939 c 2.228567,-2.309492 4.052626,-4.218723 4.053586,-4.242646 8.14e-4,-0.02393 -0.867817,-0.944045 -1.930695,-2.044637 -1.345153,-1.39288 -2.000752,-2.034251 -2.156696,-2.109743 -0.129855,-0.06285 -0.268945,-0.09918 -0.411931,-0.1108 z m 8.150361,1.929444 c -0.352775,0.0028 -0.562314,0.181136 -2.18048,1.853066 -4.901837,5.064715 -9.205351,9.557947 -9.267217,9.676018 -0.03888,0.0742 -0.08453,0.251759 -0.101412,0.394405 -0.05411,0.456893 0.245394,0.947206 0.686137,1.123734 0.140228,0.05616 21.371062,0.07952 21.649584,0.02375 0.09199,-0.01836 0.275116,-0.128735 0.406924,-0.244784 0.400792,-0.352792 0.492103,-0.904514 0.22224,-1.3441 -0.06281,-0.102273 -2.526969,-2.688889 -5.47594,-5.748231 -5.563368,-5.771599 -5.528265,-5.73718 -5.939826,-5.733867 z" />
  </g>
</svg>
