<?xml version="1.0" encoding="UTF-8" standalone="no"?>
<svg
   width="64"
   height="64"
   version="1.1"
   id="svg73"
   sodipodi:docname="audacious.svg"
   inkscape:version="1.4.2 (ebf0e940d0, 2025-05-08)"
   xmlns:inkscape="http://www.inkscape.org/namespaces/inkscape"
   xmlns:sodipodi="http://sodipodi.sourceforge.net/DTD/sodipodi-0.dtd"
   xmlns="http://www.w3.org/2000/svg"
   xmlns:svg="http://www.w3.org/2000/svg"
   xmlns:rdf="http://www.w3.org/1999/02/22-rdf-syntax-ns#"
   xmlns:cc="http://creativecommons.org/ns#"
   xmlns:dc="http://purl.org/dc/elements/1.1/">
  <metadata
     id="metadata77">
    <rdf:RDF>
      <cc:Work
         rdf:about="">
        <dc:format>image/svg+xml</dc:format>
        <dc:type
           rdf:resource="http://purl.org/dc/dcmitype/StillImage" />
      </cc:Work>
    </rdf:RDF>
  </metadata>
  <sodipodi:namedview
     pagecolor="#f5f7fa"
     bordercolor="#666666"
     borderopacity="1"
     objecttolerance="10"
     gridtolerance="10"
     guidetolerance="10"
     inkscape:pageopacity="0"
     inkscape:pageshadow="2"
     inkscape:window-width="1377"
     inkscape:window-height="886"
     id="namedview75"
     showgrid="false"
     inkscape:zoom="6.2890624"
     inkscape:cx="47.622361"
     inkscape:cy="45.396274"
     inkscape:window-x="20"
     inkscape:window-y="75"
     inkscape:window-maximized="0"
     inkscape:current-layer="g877"
     inkscape:document-rotation="0"
     inkscape:pagecheckerboard="0"
     inkscape:showpageshadow="2"
     inkscape:deskcolor="#d1d1d1" />
  <defs
     id="defs29" />
  <circle
     cx="32.516094"
     cy="31.877844"
     r="0"
     fill="url(#b)"
     stroke-width="1.5715"
     id="circle41"
     style="fill:url(#b)" />
  <g
     aria-label="GZ"
     transform="matrix(1.2212657,0,0,0.81882264,0.4960938,-0.1661539)"
     id="text93"
     style="font-weight:bold;font-size:11.5263px;line-height:1.25;font-family:sans-serif;-inkscape-font-specification:'sans-serif Bold';fill:#f2f2f2;stroke-width:0.288159" />
  <g
     id="g877"
     transform="matrix(1.1,0,0,1.1,-3.1845928,-3.2065454)">
    <rect
       x="8.3496294"
       y="8.369586"
       width="47.272728"
       height="47.272728"
       rx="9.8825235"
       ry="9.6485243"
       fill="url(#linearGradient862)"
       stroke-width="3.0541"
       id="rect35-7-3"
       style="fill:#414141;fill-opacity:1;stroke:#dfdfdf;stroke-width:2.04545;stroke-dasharray:none;stroke-opacity:1" />
    <path
       style="fill:#dfdfdf;fill-opacity:1;stroke:none;stroke-width:0.5;stroke-dasharray:none;stroke-opacity:0.6"
       d="m 31.138166,47.663373 c -1.472418,-0.112657 -2.71194,-0.342587 -3.907811,-0.724904 -0.767235,-0.245276 -1.980826,-0.742012 -2.454596,-1.004677 -0.749399,-0.415484 -0.98357,-0.55679 -1.558194,-0.94021 -2.437249,-1.62628 -4.423391,-4.01436 -5.608716,-6.743762 -0.884259,-2.036153 -1.279663,-3.966963 -1.279663,-6.248772 0,-1.794137 0.231301,-3.292204 0.751481,-4.867133 1.738192,-5.262614 6.078484,-9.215009 11.451259,-10.427843 2.185308,-0.493304 4.722818,-0.493304 6.908129,0 4.86171,1.097467 8.936716,4.472275 10.923082,9.046205 0.884255,2.03615 1.279663,3.966961 1.279663,6.248771 0,1.794135 -0.231277,3.292203 -0.751484,4.867132 -1.897398,5.744644 -6.893097,9.898479 -12.83287,10.67028 -0.749081,0.09738 -2.372892,0.166784 -2.92028,0.124899 z m 2.637672,-1.098525 c 2.914868,-0.344095 5.568214,-1.543094 7.946965,-3.591123 l 0.275773,-0.237428 -3.326121,-3.326565 c -1.829374,-1.829609 -3.346544,-3.326563 -3.371495,-3.326563 -0.02495,0 -0.237009,0.123905 -0.471233,0.27534 -0.932075,0.602606 -1.680276,0.817767 -2.843739,0.817767 -1.16346,0 -1.911662,-0.215152 -2.843735,-0.817767 -0.234228,-0.151435 -0.446283,-0.275341 -0.471233,-0.275341 -0.02495,0 -1.542121,1.496955 -3.371488,3.326564 l -3.326122,3.326565 0.27577,0.237394 c 1.649624,1.420274 3.233537,2.332175 5.154137,2.967386 1.140687,0.37728 2.217525,0.582495 3.766248,0.717801 0.425201,0.03704 1.965721,-0.01855 2.606272,-0.09408 z m -3.093344,-4.107516 c -0.699256,-1.39902 -1.271375,-2.557712 -1.271375,-2.574875 0,-0.01684 1.158692,-0.03127 2.574869,-0.03127 1.41618,0 2.574873,0.01409 2.574873,0.03127 0,0.06212 -2.543604,5.118543 -2.574873,5.118543 -0.01766,0 -0.604239,-1.144649 -1.303494,-2.543668 z m -6.06783,-3.807176 3.336801,-3.336365 -0.276047,-0.394888 c -0.328336,-0.469691 -0.542054,-0.93542 -0.72925,-1.589181 -0.196807,-0.687328 -0.196807,-1.97002 0,-2.657349 0.187196,-0.653762 0.400914,-1.11949 0.72925,-1.589182 l 0.276047,-0.394886 -3.350823,-3.350386 c -2.033173,-2.032907 -3.372061,-3.326352 -3.40483,-3.289264 -2.172661,2.45902 -3.398606,5.122665 -3.78572,8.225345 -0.100716,0.807265 -0.100716,2.64683 0,3.454095 0.310072,2.485189 1.211485,4.808394 2.631184,6.781326 0.408635,0.567868 1.147492,1.472217 1.205402,1.475388 0.01715,9.62e-4 1.532743,-1.49965 3.367986,-3.334653 z m -3.100859,-5.349145 c -1.390274,-0.697311 -2.527771,-1.282293 -2.527771,-1.299962 0,-0.03127 5.056386,-2.574873 5.118544,-2.574873 0.01718,0 0.03116,1.158692 0.03116,2.574872 0,1.416178 -0.0212,2.573278 -0.04709,2.571335 -0.02587,-0.0019 -1.184581,-0.574061 -2.574854,-1.271372 z m 21.671487,8.168219 c 1.860877,-2.196227 3.014862,-4.841826 3.376597,-7.741135 0.04309,-0.34541 0.07838,-1.122583 0.07838,-1.727047 0,-1.677789 -0.220385,-3.089621 -0.716413,-4.5894 -0.651232,-1.969037 -1.645089,-3.66238 -3.147663,-5.362993 -0.03264,-0.03708 -1.371658,1.256357 -3.404827,3.289264 l -3.350839,3.350386 0.276041,0.394886 c 0.328338,0.469692 0.542055,0.93542 0.729252,1.589182 0.197941,0.691358 0.196886,1.969649 -0.0023,2.665628 -0.180596,0.631114 -0.436985,1.181955 -0.751611,1.614726 l -0.251114,0.34541 3.336274,3.34425 c 1.834942,1.839333 3.354314,3.337155 3.37638,3.328489 0.02233,-0.0082 0.225402,-0.234369 0.451817,-0.501646 z m -3.349081,-9.468182 c 0,-1.41618 0.01409,-2.574872 0.03127,-2.574872 0.06212,0 5.11854,2.543605 5.11854,2.574872 0,0.03127 -5.056386,2.57487 -5.11854,2.57487 -0.01718,0 -0.03127,-1.158692 -0.03127,-2.57487 z m -6.562787,3.990983 c 1.316668,-0.441218 2.335078,-1.480036 2.742793,-2.797752 0.20694,-0.668803 0.20694,-1.71766 0,-2.386464 -0.406749,-1.314593 -1.412452,-2.342543 -2.742793,-2.80346 -0.444906,-0.154146 -0.592266,-0.174071 -1.287436,-0.174071 -0.695167,0 -0.842525,0.01993 -1.287433,0.174071 -1.33034,0.460919 -2.336043,1.488869 -2.742791,2.803462 -0.20694,0.668804 -0.20694,1.71766 0,2.386464 0.4569,1.476687 1.646835,2.570646 3.182402,2.925727 0.582307,0.134654 1.519083,0.07849 2.135258,-0.127984 z M 29.142253,27.6436 c 0.932073,-0.602605 1.680275,-0.817764 2.843735,-0.817764 1.163463,0 1.911664,0.215159 2.843739,0.817764 0.234229,0.151438 0.446282,0.275337 0.471233,0.275337 0.02495,0 1.542121,-1.496955 3.371488,-3.326566 l 3.326122,-3.326564 -0.275774,-0.237435 c -1.649617,-1.420276 -3.233532,-2.33218 -5.154135,-2.967387 -1.492849,-0.493734 -2.907429,-0.714193 -4.582673,-0.714193 -3.677473,0 -6.857117,1.202253 -9.736806,3.681578 l -0.27577,0.237435 3.326122,3.326566 c 1.829366,1.829609 3.346536,3.326564 3.371487,3.326564 0.02495,0 0.237005,-0.123895 0.471232,-0.275335 z m 0.268868,-3.523965 c 0,-0.06215 2.543603,-5.118543 2.574869,-5.118543 0.03127,0 2.574874,5.056388 2.574874,5.118543 0,0.01718 -1.158693,0.03117 -2.574874,0.03117 -1.416177,0 -2.574869,-0.01405 -2.574869,-0.03117 z"
       id="path1" />
  </g>
</svg>
