<?xml version="1.0" encoding="UTF-8" standalone="no"?>
<svg
   width="64"
   height="64"
   version="1.1"
   id="svg73"
   sodipodi:docname="partitionmanager.svg"
   inkscape:version="1.3.2 (091e20ef0f, 2023-11-25)"
   xmlns:inkscape="http://www.inkscape.org/namespaces/inkscape"
   xmlns:sodipodi="http://sodipodi.sourceforge.net/DTD/sodipodi-0.dtd"
   xmlns="http://www.w3.org/2000/svg"
   xmlns:svg="http://www.w3.org/2000/svg"
   xmlns:rdf="http://www.w3.org/1999/02/22-rdf-syntax-ns#"
   xmlns:cc="http://creativecommons.org/ns#"
   xmlns:dc="http://purl.org/dc/elements/1.1/">
  <metadata
     id="metadata77">
    <rdf:RDF>
      <cc:Work
         rdf:about="">
        <dc:format>image/svg+xml</dc:format>
        <dc:type
           rdf:resource="http://purl.org/dc/dcmitype/StillImage" />
      </cc:Work>
    </rdf:RDF>
  </metadata>
  <sodipodi:namedview
     pagecolor="#f5f7fa"
     bordercolor="#666666"
     borderopacity="1"
     objecttolerance="10"
     gridtolerance="10"
     guidetolerance="10"
     inkscape:pageopacity="0"
     inkscape:pageshadow="2"
     inkscape:window-width="1377"
     inkscape:window-height="886"
     id="namedview75"
     showgrid="false"
     inkscape:zoom="6.2890624"
     inkscape:cx="47.701864"
     inkscape:cy="45.396274"
     inkscape:window-x="74"
     inkscape:window-y="53"
     inkscape:window-maximized="0"
     inkscape:current-layer="g877"
     inkscape:document-rotation="0"
     inkscape:pagecheckerboard="0"
     inkscape:showpageshadow="2"
     inkscape:deskcolor="#d1d1d1" />
  <defs
     id="defs29">
    <linearGradient
       id="b"
       x1="399.57"
       x2="399.57"
       y1="545.8"
       y2="517.8"
       gradientTransform="matrix(2.1429,0,0,2.1429,-825.86391,-1107.6662)"
       gradientUnits="userSpaceOnUse">
      <stop
         stop-color="#3889e9"
         offset="0"
         id="stop2" />
      <stop
         stop-color="#5ea5fb"
         offset="1"
         id="stop4" />
    </linearGradient>
  </defs>
  <circle
     cx="32.516094"
     cy="31.877844"
     r="0"
     fill="url(#b)"
     stroke-width="1.5715"
     id="circle41"
     style="fill:url(#b)" />
  <g
     aria-label="GZ"
     transform="matrix(1.2212657,0,0,0.81882264,0.4960938,-0.1661539)"
     id="text93"
     style="font-weight:bold;font-size:11.5263px;line-height:1.25;font-family:sans-serif;-inkscape-font-specification:'sans-serif Bold';fill:#f2f2f2;stroke-width:0.288159" />
  <g
     id="g877"
     transform="matrix(1.1,0,0,1.1,-3.1845928,-3.2065454)">
    <rect
       x="6.3010068"
       y="5.4939413"
       width="51.635597"
       height="53.148327"
       rx="10.980581"
       ry="10.720582"
       fill="url(#linearGradient862)"
       stroke-width="3.0541"
       id="rect35-7-3"
       style="fill:#414141;fill-opacity:1;stroke:#dfdfdf;stroke-width:2.27272727;stroke-dasharray:none;stroke-opacity:1" />
    <path
       style="fill:#dfdfdf;fill-opacity:1;stroke:none;stroke-width:1.089;stroke-dasharray:none;stroke-dashoffset:2.2;stroke-opacity:0.3"
       d="m 15.643563,47.738408 c -0.171093,-0.03243 -0.467445,-0.170375 -0.65857,-0.306411 -0.760968,-0.541855 -0.718977,0.326119 -0.718977,-14.861148 0,-13.418127 0.0081,-13.911294 0.238263,-14.359432 0.131043,-0.255242 0.426552,-0.576653 0.656684,-0.714244 0.412774,-0.246787 0.641286,-0.250165 16.929316,-0.250165 h 16.510889 l 0.408397,0.291295 c 0.831911,0.593363 0.77988,-0.402964 0.77988,14.933239 0,13.343205 -0.0096,13.941766 -0.233032,14.359433 -0.128177,0.239684 -0.423677,0.548412 -0.656679,0.686006 -0.417427,0.246503 -0.662224,0.250368 -16.684369,0.265336 -8.9434,0.0084 -16.400709,-0.01162 -16.571797,-0.04387 z m 30.448013,-3.171949 c 0.681278,-0.171582 1.377483,-0.739438 1.713148,-1.397386 0.207296,-0.406318 0.249827,-0.679573 0.211496,-1.358416 -0.05854,-1.03545 -0.493961,-1.747752 -1.342212,-2.195579 l -0.55128,-0.291029 h -13.93106 c -12.291118,0 -13.985589,0.02287 -14.39438,0.193575 -1.682802,0.703119 -2.124125,2.831624 -0.880131,4.244875 0.859359,0.976287 -0.03077,0.921561 15.149001,0.931369 9.33242,0.0058 13.651266,-0.03326 14.025418,-0.12743 z"
       id="path90" />
  </g>
</svg>
