<?xml version="1.0" encoding="UTF-8" standalone="no"?>
<svg
   width="64"
   height="64"
   version="1.1"
   id="svg73"
   sodipodi:docname="Logo.svg"
   inkscape:version="1.3.2 (091e20ef0f, 2023-11-25)"
   xmlns:inkscape="http://www.inkscape.org/namespaces/inkscape"
   xmlns:sodipodi="http://sodipodi.sourceforge.net/DTD/sodipodi-0.dtd"
   xmlns="http://www.w3.org/2000/svg"
   xmlns:svg="http://www.w3.org/2000/svg"
   xmlns:rdf="http://www.w3.org/1999/02/22-rdf-syntax-ns#"
   xmlns:cc="http://creativecommons.org/ns#"
   xmlns:dc="http://purl.org/dc/elements/1.1/">
  <metadata
     id="metadata77">
    <rdf:RDF>
      <cc:Work
         rdf:about="">
        <dc:format>image/svg+xml</dc:format>
        <dc:type
           rdf:resource="http://purl.org/dc/dcmitype/StillImage" />
      </cc:Work>
    </rdf:RDF>
  </metadata>
  <sodipodi:namedview
     pagecolor="#f5f7fa"
     bordercolor="#666666"
     borderopacity="1"
     objecttolerance="10"
     gridtolerance="10"
     guidetolerance="10"
     inkscape:pageopacity="0"
     inkscape:pageshadow="2"
     inkscape:window-width="1377"
     inkscape:window-height="886"
     id="namedview75"
     showgrid="false"
     inkscape:zoom="6.2890624"
     inkscape:cx="4.2931678"
     inkscape:cy="12.004969"
     inkscape:window-x="181"
     inkscape:window-y="77"
     inkscape:window-maximized="0"
     inkscape:current-layer="g877"
     inkscape:document-rotation="0"
     inkscape:pagecheckerboard="0"
     inkscape:showpageshadow="2"
     inkscape:deskcolor="#d1d1d1" />
  <defs
     id="defs29">
    <linearGradient
       id="b"
       x1="399.57"
       x2="399.57"
       y1="545.8"
       y2="517.8"
       gradientTransform="matrix(2.1429,0,0,2.1429,-825.86391,-1107.6662)"
       gradientUnits="userSpaceOnUse">
      <stop
         stop-color="#3889e9"
         offset="0"
         id="stop2" />
      <stop
         stop-color="#5ea5fb"
         offset="1"
         id="stop4" />
    </linearGradient>
    <linearGradient
       id="d"
       x2="1"
       gradientTransform="matrix(14.905727,-4.7106182,4.7106182,14.905727,322.04962,998.26962)"
       gradientUnits="userSpaceOnUse">
      <stop
         stop-color="#fafafa"
         offset="0"
         id="stop7" />
      <stop
         stop-color="#aaa"
         offset="1"
         id="stop8" />
    </linearGradient>
    <linearGradient
       id="e"
       x2="1"
       gradientTransform="matrix(21.439909,0,0,21.439909,26.63554,1159.7788)"
       gradientUnits="userSpaceOnUse">
      <stop
         stop-color="#f0f0f0"
         offset="0"
         id="stop9" />
      <stop
         stop-color="#b7f1ff"
         offset="1"
         id="stop10" />
    </linearGradient>
  </defs>
  <circle
     cx="32.516094"
     cy="31.877844"
     r="0"
     fill="url(#b)"
     stroke-width="1.5715"
     id="circle41"
     style="fill:url(#b)" />
  <g
     aria-label="GZ"
     transform="matrix(1.2212657,0,0,0.81882264,0.4960938,-0.1661539)"
     id="text93"
     style="font-weight:bold;font-size:11.5263px;line-height:1.25;font-family:sans-serif;-inkscape-font-specification:'sans-serif Bold';fill:#f2f2f2;stroke-width:0.288159" />
  <g
     id="g877"
     transform="matrix(1.1,0,0,1.1,-3.1845928,-3.2065454)">
    <rect
       x="6.3010068"
       y="5.4939413"
       width="51.635597"
       height="53.148327"
       rx="10.980581"
       ry="10.720582"
       fill="url(#linearGradient862)"
       stroke-width="3.0541"
       id="rect35-7-3"
       style="fill:#414141;fill-opacity:1;stroke:#dfdfdf;stroke-width:2.27272727;stroke-dasharray:none;stroke-opacity:1" />
    <path
       id="path31"
       style="fill:#dfdfdf;fill-opacity:1;stroke-width:0.138981;stroke-opacity:0.3"
       d="m 10.708727,13.736886 v 1.529044 1.529043 h 1.597578 1.597577 V 15.26593 13.736886 h -1.597577 z m 38.913806,0 v 1.529044 1.529043 h 1.597575 1.599946 V 15.26593 13.736886 h -1.599946 z m -17.890044,6.272149 c -6.780796,-0.12433 -12.767103,5.243524 -13.399814,12.166173 -0.39198,4.288741 1.018312,8.062136 4.109749,10.998709 1.672737,1.588922 3.753498,2.76383 5.91766,3.344047 1.329094,0.356307 4.499417,0.40236 6.024007,0.08745 4.752964,-0.981746 8.802917,-4.901476 10.124301,-9.798161 0.444389,-1.646654 0.443153,-5.076795 -0.0024,-6.709356 -0.640105,-2.345476 -1.916569,-4.529898 -3.637091,-6.220161 -2.348277,-2.306995 -5.22103,-3.607779 -8.477094,-3.837969 -0.220252,-0.01554 -0.440593,-0.02672 -0.659353,-0.03073 z m -21.023762,0.538828 v 1.597578 1.597578 h 1.597578 1.597577 v -1.597578 -1.597578 h -1.597577 z m 38.913806,0 v 1.597578 1.597578 h 1.597575 1.599946 v -1.597578 -1.597578 h -1.599946 z m -23.07036,5.419004 h 1.032753 1.035115 l 4.539866,2.814668 c 2.497722,1.547881 4.846953,3.100155 5.220495,3.448028 0.580618,0.540716 0.680624,0.708325 0.680624,1.155645 0,0.564198 -0.1924,1.025943 -0.543553,1.30453 -0.422713,0.335349 -4.994624,3.227449 -7.512878,4.752557 l -2.535802,1.536137 h -0.957128 -0.959492 v -7.505784 z m -15.843446,1.389609 v 1.599941 1.59758 h 1.597578 1.597577 v -1.59758 -1.599941 h -1.597577 z m 38.913806,0 v 1.599941 1.59758 h 1.597575 1.599946 v -1.59758 -1.599941 h -1.599946 z m -38.913807,6.671543 v 1.599941 1.59758 h 1.597579 1.597578 v -1.59758 -1.599941 h -1.597578 z m 38.913807,0 v 1.599941 1.59758 h 1.597575 1.599946 v -1.59758 -1.599941 h -1.599946 z m -38.913807,6.810977 v 1.597577 1.597581 h 1.597579 1.597578 v -1.597581 -1.597577 h -1.597578 z m 38.913807,0 v 1.597577 1.597581 h 1.597575 1.599946 V 42.436573 40.838996 H 51.220108 Z M 10.708726,47.64761 v 1.529041 1.529046 h 1.597579 1.597578 V 49.176651 47.64761 h -1.597578 z m 38.913807,0 v 1.529041 1.529046 h 1.597575 1.599946 V 49.176651 47.64761 h -1.599946 z" />
  </g>
</svg>
