<?xml version="1.0" encoding="UTF-8" standalone="no"?>
<svg
   width="64"
   height="64"
   version="1.1"
   id="svg73"
   sodipodi:docname="accessories-text-editor.svg"
   inkscape:version="1.4.2 (ebf0e940d0, 2025-05-08)"
   xmlns:inkscape="http://www.inkscape.org/namespaces/inkscape"
   xmlns:sodipodi="http://sodipodi.sourceforge.net/DTD/sodipodi-0.dtd"
   xmlns="http://www.w3.org/2000/svg"
   xmlns:svg="http://www.w3.org/2000/svg"
   xmlns:rdf="http://www.w3.org/1999/02/22-rdf-syntax-ns#"
   xmlns:cc="http://creativecommons.org/ns#"
   xmlns:dc="http://purl.org/dc/elements/1.1/">
  <metadata
     id="metadata77">
    <rdf:RDF>
      <cc:Work
         rdf:about="">
        <dc:format>image/svg+xml</dc:format>
        <dc:type
           rdf:resource="http://purl.org/dc/dcmitype/StillImage" />
      </cc:Work>
    </rdf:RDF>
  </metadata>
  <sodipodi:namedview
     pagecolor="#f5f7fa"
     bordercolor="#666666"
     borderopacity="1"
     objecttolerance="10"
     gridtolerance="10"
     guidetolerance="10"
     inkscape:pageopacity="0"
     inkscape:pageshadow="2"
     inkscape:window-width="1377"
     inkscape:window-height="886"
     id="namedview75"
     showgrid="false"
     inkscape:zoom="6.2890624"
     inkscape:cx="43.011181"
     inkscape:cy="42.693168"
     inkscape:window-x="264"
     inkscape:window-y="75"
     inkscape:window-maximized="0"
     inkscape:current-layer="g877"
     inkscape:document-rotation="0"
     inkscape:pagecheckerboard="0"
     inkscape:showpageshadow="2"
     inkscape:deskcolor="#d1d1d1" />
  <defs
     id="defs29" />
  <circle
     cx="32.516094"
     cy="31.877844"
     r="0"
     fill="url(#b)"
     stroke-width="1.5715"
     id="circle41"
     style="fill:url(#b)" />
  <g
     aria-label="GZ"
     transform="matrix(1.2212657,0,0,0.81882264,0.4960938,-0.1661539)"
     id="text93"
     style="font-weight:bold;font-size:11.5263px;line-height:1.25;font-family:sans-serif;-inkscape-font-specification:'sans-serif Bold';fill:#f2f2f2;stroke-width:0.288159" />
  <g
     id="g877"
     transform="matrix(1.1,0,0,1.1,-3.1845928,-3.2065454)">
    <rect
       x="8.3496294"
       y="8.369586"
       width="47.272728"
       height="47.272728"
       rx="9.8825235"
       ry="9.6485243"
       fill="url(#linearGradient862)"
       stroke-width="3.0541"
       id="rect35-7-3"
       style="fill:#414141;fill-opacity:1;stroke:#dfdfdf;stroke-width:2.04545;stroke-dasharray:none;stroke-opacity:1" />
    <path
       style="fill:#dfdfdf;fill-opacity:1;stroke-width:0.0771205"
       d="m 34.546787,44.094807 c -4.059965,-0.208368 -7.9355,-1.598684 -11.105263,-3.983914 -1.027915,-0.773501 -2.009618,-1.680746 -2.788653,-2.577134 -0.08145,-0.0937 -0.186344,-0.213682 -0.233127,-0.266601 -0.278108,-0.314627 -0.89465,-1.133301 -1.229376,-1.632424 -1.264202,-1.885104 -2.137826,-3.931117 -2.59594,-6.079668 -0.144182,-0.676202 -0.225394,-1.2235 -0.326719,-2.201737 -0.04411,-0.426006 -0.04367,-2.315639 8.52e-4,-2.763973 0.133092,-1.345646 0.293864,-2.202166 0.668914,-3.563651 0.0819,-0.297302 0.154601,-0.546246 0.161562,-0.553204 0.0069,-0.0069 0.01357,0.01419 0.01466,0.04699 9.03e-4,0.03282 0.0062,0.0874 0.01105,0.121334 0.0049,0.03395 0.02705,0.250485 0.0491,0.481227 0.17836,1.866155 0.463384,3.25901 0.996708,4.870743 0.485096,1.465972 1.195914,2.994888 2.018714,4.342107 0.379855,0.62196 1.120343,1.671926 1.595685,2.262582 1.379072,1.713631 3.082753,3.28475 4.889604,4.509148 1.966571,1.332627 3.996431,2.313588 6.262728,3.02655 0.542243,0.170566 1.507172,0.441041 1.770081,0.496121 0.07465,0.01573 0.318965,0.06697 0.542922,0.114088 1.945285,0.409215 4.242359,0.60078 6.046192,0.50422 2.108853,-0.112889 3.53413,-0.335729 5.588035,-0.873639 0.392739,-0.102879 0.720339,-0.18014 0.728014,-0.171729 0.0075,0.0082 0.0028,0.01948 -0.01058,0.02462 -0.01367,0.0051 -0.291184,0.184754 -0.616951,0.399078 -0.949902,0.625015 -1.538863,0.968428 -2.381463,1.388594 -1.96671,0.980709 -4.112962,1.633102 -6.33,1.924118 -0.908443,0.11925 -1.392492,0.149848 -2.492513,0.157574 -0.583645,0.0041 -1.138908,0.0033 -1.233917,-0.0019 z m 5.330848,-3.380417 c 0.06447,-0.145062 0.188957,-0.556232 0.214635,-0.70906 0.04946,-0.294705 0.03525,-0.829218 -0.0294,-1.09882 -0.06885,-0.287799 -0.186327,-0.589686 -0.318944,-0.819661 -0.05647,-0.09799 -0.08616,-0.170703 -0.06663,-0.163182 0.308961,0.118566 1.754783,0.537562 2.482623,0.719473 1.544094,0.385916 2.941071,0.6244 4.941839,0.843642 0.349509,0.03833 0.63547,0.07655 0.63547,0.08499 0,0.01846 -0.869048,0.276347 -1.406668,0.417632 -0.700286,0.184036 -1.886668,0.425416 -2.480173,0.504608 -0.172105,0.02291 -0.272926,0.03717 -0.44421,0.06257 -0.08144,0.01197 -0.264687,0.03385 -0.407194,0.04861 -0.142533,0.01471 -0.309098,0.03179 -0.370176,0.03812 -0.501268,0.05165 -1.20705,0.08927 -1.922875,0.102501 -0.82959,0.01539 -0.848883,0.01471 -0.828435,-0.03146 z m -1.049159,-0.001 c -0.02052,-0.0038 -0.20913,-0.01881 -0.419528,-0.03316 -0.210396,-0.01435 -0.410278,-0.03075 -0.444214,-0.03637 -0.03385,-0.0058 -0.183867,-0.02257 -0.333166,-0.03792 -0.268072,-0.02735 -0.644764,-0.07918 -1.246256,-0.171284 -0.332526,-0.05095 -1.239075,-0.220926 -1.253162,-0.235011 -0.0047,-0.0048 0.04291,-0.0838 0.10584,-0.175729 0.234563,-0.342619 0.397513,-0.745612 0.468431,-1.158497 0.04725,-0.275148 0.05361,-0.671107 0.01398,-0.873021 -0.04329,-0.220651 -0.03902,-0.233883 0.112704,-0.348448 0.962707,-0.726848 2.337792,-0.607821 3.153055,0.272926 0.680351,0.734993 0.826562,1.793343 0.371749,2.690872 l -0.0621,0.122532 -0.215182,-0.0048 c -0.118361,-0.0027 -0.231832,-0.0082 -0.25221,-0.01197 z m -4.355725,-0.667892 c -0.726123,-0.16955 -2.056889,-0.599316 -3.0186,-0.974838 L 31.002102,38.894145 31.22529,38.68727 c 0.475549,-0.440773 0.784367,-0.994511 0.902606,-1.618445 0.05012,-0.264519 0.06649,-0.550112 0.04302,-0.75132 l -0.02088,-0.179181 0.09133,-0.02458 c 0.251055,-0.06761 0.615739,-0.09831 0.853128,-0.07184 1.178599,0.131423 2.041603,1.01535 2.142763,2.194713 0.03302,0.384962 -0.07433,0.87747 -0.274411,1.258995 -0.103425,0.197234 -0.383199,0.570664 -0.422786,0.564342 -0.0098,-0.0017 -0.04012,-0.0082 -0.06728,-0.01435 z m -4.442105,-1.593887 c -0.338419,-0.164026 -0.86048,-0.432727 -1.233917,-0.635084 -0.479369,-0.259758 -1.961931,-1.180268 -1.961931,-1.218143 0,-0.0061 0.08051,-0.04136 0.178922,-0.07851 0.757033,-0.285734 1.361839,-0.819789 1.703792,-1.504477 0.09043,-0.181067 0.201875,-0.518589 0.229222,-0.694226 l 0.01598,-0.102554 0.188474,-0.01617 c 0.210673,-0.01805 0.535745,0.01293 0.768517,0.07323 0.705357,0.182777 1.353549,0.771604 1.600408,1.45383 0.331972,0.917456 0.08521,1.925377 -0.632449,2.583316 -0.140865,0.129129 -0.415272,0.318053 -0.462155,0.318124 -0.01353,3e-5 -0.191256,-0.08069 -0.394853,-0.179354 z m -4.15399,-2.553321 c -0.649262,-0.509976 -0.844571,-0.674656 -1.386301,-1.168886 -0.542382,-0.494828 -0.683107,-0.631799 -0.664515,-0.646781 0.0058,-0.0047 0.114217,-0.04417 0.240935,-0.08781 0.769513,-0.264883 1.470297,-0.881051 1.780743,-1.56573 0.09387,-0.207001 0.187659,-0.529572 0.20942,-0.720198 0.02919,-0.255697 0.01641,-0.243248 0.231526,-0.225767 0.520721,0.0423 1.046281,0.269059 1.424176,0.614435 0.5351,0.48905 0.83028,1.265819 0.750343,1.974534 -0.03143,0.278686 -0.05378,0.369981 -0.15224,0.622208 -0.288954,0.740155 -0.941946,1.290383 -1.730511,1.458172 -0.303278,0.06455 -0.293161,0.06817 -0.703576,-0.254182 z m -2.58373,-2.332097 c -0.03663,-0.04411 -0.112628,-0.130177 -0.168869,-0.191256 -0.68922,-0.748526 -1.410188,-1.664369 -2.014801,-2.559409 l -0.296563,-0.439011 0.314944,-0.01661 c 0.593488,-0.03134 1.039419,-0.182693 1.527585,-0.518515 0.28114,-0.193403 0.520986,-0.445003 0.806187,-0.845687 0.03361,-0.04719 0.03845,-0.04732 0.235243,-0.0049 0.457,0.0982 0.880669,0.329599 1.191351,0.650682 0.292205,0.301986 0.454481,0.565789 0.57367,0.932588 0.417396,1.284519 -0.350724,2.681795 -1.656318,3.012989 -0.33209,0.08424 -0.42848,0.08034 -0.51243,-0.02072 z m -2.529,-3.722902 c -0.271791,-0.03068 -0.290167,-0.03827 -0.359402,-0.147926 -0.186135,-0.294852 -0.77223,-1.42368 -0.946883,-1.82371 -0.03259,-0.07464 -0.09719,-0.219022 -0.14353,-0.320821 -0.147153,-0.323199 -0.425741,-1.031745 -0.425741,-1.082808 0,-0.07817 0.276259,-0.468551 0.461502,-0.652164 0.41489,-0.411246 0.942597,-0.642855 1.540251,-0.676011 0.520701,-0.02889 1.101367,0.139554 1.414078,0.410203 0.06262,0.05421 0.183111,0.148155 0.267757,0.208789 0.415189,0.297414 0.70798,0.86324 0.78369,1.514507 0.04765,0.409843 -0.04013,0.876449 -0.240098,1.275927 -0.292458,0.58432 -0.824194,1.027977 -1.449103,1.209068 -0.161366,0.04677 -0.69289,0.12796 -0.713879,0.109059 -0.002,-0.0019 -0.08685,-0.01262 -0.188644,-0.0241 z m -2.15395,-4.131547 C 18.038623,23.926543 17.715593,22.10026 17.643209,20.245981 l -0.013,-0.333157 0.06087,0.07403 c 0.03347,0.04073 0.297456,0.390533 0.586617,0.777367 1.171676,1.567456 2.012685,2.622355 2.91236,3.653056 l 0.183672,0.210423 -0.335746,-4.39e-4 c -0.356492,-4.39e-4 -0.559507,0.0286 -0.878689,0.126118 -0.524463,0.160214 -1.045102,0.514278 -1.409273,0.958372 l -0.100747,0.122856 z"
       id="path1-5" />
  </g>
</svg>
