<?xml version="1.0" encoding="UTF-8" standalone="no"?>
<svg
   width="64"
   height="64"
   version="1.1"
   id="svg73"
   sodipodi:docname="audacious.svg"
   inkscape:version="1.4.2 (ebf0e940d0, 2025-05-08)"
   xmlns:inkscape="http://www.inkscape.org/namespaces/inkscape"
   xmlns:sodipodi="http://sodipodi.sourceforge.net/DTD/sodipodi-0.dtd"
   xmlns="http://www.w3.org/2000/svg"
   xmlns:svg="http://www.w3.org/2000/svg"
   xmlns:rdf="http://www.w3.org/1999/02/22-rdf-syntax-ns#"
   xmlns:cc="http://creativecommons.org/ns#"
   xmlns:dc="http://purl.org/dc/elements/1.1/">
  <metadata
     id="metadata77">
    <rdf:RDF>
      <cc:Work
         rdf:about="">
        <dc:format>image/svg+xml</dc:format>
        <dc:type
           rdf:resource="http://purl.org/dc/dcmitype/StillImage" />
      </cc:Work>
    </rdf:RDF>
  </metadata>
  <sodipodi:namedview
     pagecolor="#f5f7fa"
     bordercolor="#666666"
     borderopacity="1"
     objecttolerance="10"
     gridtolerance="10"
     guidetolerance="10"
     inkscape:pageopacity="0"
     inkscape:pageshadow="2"
     inkscape:window-width="1377"
     inkscape:window-height="886"
     id="namedview75"
     showgrid="false"
     inkscape:zoom="6.2890624"
     inkscape:cx="46.032299"
     inkscape:cy="36.809938"
     inkscape:window-x="226"
     inkscape:window-y="192"
     inkscape:window-maximized="0"
     inkscape:current-layer="g877"
     inkscape:document-rotation="0"
     inkscape:pagecheckerboard="0"
     inkscape:showpageshadow="2"
     inkscape:deskcolor="#d1d1d1" />
  <defs
     id="defs29" />
  <circle
     cx="32.516094"
     cy="31.877844"
     r="0"
     fill="url(#b)"
     stroke-width="1.5715"
     id="circle41"
     style="fill:url(#b)" />
  <g
     aria-label="GZ"
     transform="matrix(1.2212657,0,0,0.81882264,0.4960938,-0.1661539)"
     id="text93"
     style="font-weight:bold;font-size:11.5263px;line-height:1.25;font-family:sans-serif;-inkscape-font-specification:'sans-serif Bold';fill:#f2f2f2;stroke-width:0.288159" />
  <g
     id="g877"
     transform="matrix(1.1,0,0,1.1,-3.1845928,-3.2065454)">
    <rect
       x="8.3496294"
       y="8.369586"
       width="47.272728"
       height="47.272728"
       rx="9.8825235"
       ry="9.6485243"
       fill="url(#linearGradient862)"
       stroke-width="3.0541"
       id="rect35-7-3"
       style="fill:#414141;fill-opacity:1;stroke:#dfdfdf;stroke-width:2.04545;stroke-dasharray:none;stroke-opacity:1" />
    <path
       id="path5854"
       style="fill:#dfdfdf;fill-opacity:1;stroke:none;stroke-width:0.520931;stroke-linecap:square;stroke-dasharray:none;stroke-opacity:0.6"
       d="m 38.806926,16.34984 c -0.21103,7.2e-5 -0.488238,0.166646 -1.025046,0.581507 -0.497456,0.384438 -1.163853,0.96604 -1.480467,1.293554 l -0.575573,0.596339 0.96868,1.407778 c 0.86692,1.258506 2.363107,3.94718 2.363107,4.247069 0,0.06359 -0.411474,0.248852 -0.915275,0.412395 -1.586281,0.514929 -3.017211,1.587107 -3.972633,2.975767 -1.373782,1.996721 -1.606395,4.882931 -0.571123,7.095261 0.919362,1.964632 2.40498,3.2905 4.497776,4.014172 1.10631,0.382561 3.049044,0.399551 4.288596,0.03702 1.892169,-0.5533 3.716938,-2.120799 4.571944,-3.928131 0.663373,-1.402277 0.855572,-2.884951 0.652713,-5.014012 -0.279586,-2.934455 -1.263576,-5.350689 -3.279872,-8.05357 -1.007805,-1.350986 -4.76632,-5.311869 -5.327008,-5.613313 -0.06268,-0.03373 -0.125473,-0.05193 -0.195819,-0.05193 z m -14.711202,8.295358 c -0.238554,-0.001 -0.50318,0.0057 -0.802538,0.0193 -2.091202,0.096 -3.4433,0.712245 -4.884946,2.22366 -1.777284,1.863294 -2.360679,3.871547 -2.038237,7.013672 0.41692,4.062758 2.105009,7.110521 6.291242,11.361613 1.299345,1.319476 2.445746,2.398713 2.548538,2.398713 0.361748,0 3.039836,-2.459513 2.909012,-2.671661 -0.06997,-0.113483 -0.547533,-0.834415 -1.062138,-1.602108 -1.098135,-1.638214 -2.20103,-3.847328 -2.045653,-4.098729 0.05989,-0.09691 0.250888,-0.176522 0.424261,-0.176522 0.173369,0 0.865221,-0.275184 1.536836,-0.611175 1.508605,-0.754732 2.666081,-1.95274 3.416347,-3.53651 0.514855,-1.086838 0.556287,-1.308095 0.556287,-3.005438 0,-1.694881 -0.04102,-1.919811 -0.551838,-2.998016 -0.93852,-1.981011 -2.549256,-3.416025 -4.568973,-4.069058 -0.525651,-0.169959 -1.012542,-0.244245 -1.7282,-0.247733 z" />
  </g>
</svg>
