<?xml version="1.0" encoding="UTF-8" standalone="no"?>
<svg
   width="64"
   height="64"
   version="1.1"
   id="svg73"
   sodipodi:docname="audacious.svg"
   inkscape:version="1.4.2 (ebf0e940d0, 2025-05-08)"
   xmlns:inkscape="http://www.inkscape.org/namespaces/inkscape"
   xmlns:sodipodi="http://sodipodi.sourceforge.net/DTD/sodipodi-0.dtd"
   xmlns="http://www.w3.org/2000/svg"
   xmlns:svg="http://www.w3.org/2000/svg"
   xmlns:rdf="http://www.w3.org/1999/02/22-rdf-syntax-ns#"
   xmlns:cc="http://creativecommons.org/ns#"
   xmlns:dc="http://purl.org/dc/elements/1.1/">
  <metadata
     id="metadata77">
    <rdf:RDF>
      <cc:Work
         rdf:about="">
        <dc:format>image/svg+xml</dc:format>
        <dc:type
           rdf:resource="http://purl.org/dc/dcmitype/StillImage" />
      </cc:Work>
    </rdf:RDF>
  </metadata>
  <sodipodi:namedview
     pagecolor="#f5f7fa"
     bordercolor="#666666"
     borderopacity="1"
     objecttolerance="10"
     gridtolerance="10"
     guidetolerance="10"
     inkscape:pageopacity="0"
     inkscape:pageshadow="2"
     inkscape:window-width="1377"
     inkscape:window-height="886"
     id="namedview75"
     showgrid="false"
     inkscape:zoom="6.2890624"
     inkscape:cx="46.82733"
     inkscape:cy="41.739131"
     inkscape:window-x="0"
     inkscape:window-y="49"
     inkscape:window-maximized="0"
     inkscape:current-layer="g877"
     inkscape:document-rotation="0"
     inkscape:pagecheckerboard="0"
     inkscape:showpageshadow="2"
     inkscape:deskcolor="#d1d1d1" />
  <defs
     id="defs29" />
  <circle
     cx="32.516094"
     cy="31.877844"
     r="0"
     fill="url(#b)"
     stroke-width="1.5715"
     id="circle41"
     style="fill:url(#b)" />
  <g
     aria-label="GZ"
     transform="matrix(1.2212657,0,0,0.81882264,0.4960938,-0.1661539)"
     id="text93"
     style="font-weight:bold;font-size:11.5263px;line-height:1.25;font-family:sans-serif;-inkscape-font-specification:'sans-serif Bold';fill:#f2f2f2;stroke-width:0.288159" />
  <g
     id="g877"
     transform="matrix(1.1,0,0,1.1,-3.1845928,-3.2065454)">
    <rect
       x="8.3496294"
       y="8.369586"
       width="47.272728"
       height="47.272728"
       rx="9.8825235"
       ry="9.6485243"
       fill="url(#linearGradient862)"
       stroke-width="3.0541"
       id="rect35-7-3"
       style="fill:#414141;fill-opacity:1;stroke:#dfdfdf;stroke-width:2.04545;stroke-dasharray:none;stroke-opacity:1" />
    <path
       style="fill:#dfdfdf;fill-opacity:1;stroke:none;stroke-width:0.49228;stroke-dasharray:none;stroke-opacity:0.6"
       d="m 19.834341,47.237135 c -0.657535,-0.265995 -1.210538,-1.123299 -1.324216,-2.0529 -0.05923,-0.484031 -0.08354,-3.740868 -0.0541,-7.237435 0.04889,-5.804367 0.07984,-6.396145 0.356107,-6.803038 0.449736,-0.662416 1.261679,-0.976384 2.524982,-0.976384 h 1.103992 l 0.002,-3.387817 c 0.0025,-4.533944 0.352335,-5.788909 2.119071,-7.605012 1.625524,-1.670947 4.186674,-2.552623 7.415017,-2.552623 3.026086,0 5.374181,0.740924 6.94926,2.192781 1.100435,1.014346 1.670364,1.908147 2.186065,3.428314 0.407375,1.200859 0.453773,1.605177 0.53016,4.62019 l 0.08377,3.304167 1.106368,6.26e-4 c 0.814379,4.59e-4 1.252499,0.08972 1.660143,0.33826 1.016946,0.620011 1.035555,0.769003 1.035555,8.288203 0,7.524448 -0.01522,7.643753 -1.074059,8.289286 -0.491801,0.299931 -1.056736,0.313767 -12.393552,0.30426 -6.53306,-0.0055 -12.034992,-0.07341 -12.226525,-0.150845 z M 37.832694,27.162261 c 0,-2.624524 -0.0436,-3.121758 -0.344589,-3.926114 -0.422095,-1.128141 -1.479849,-2.120631 -2.72193,-2.553985 -1.043391,-0.364037 -4.163784,-0.417859 -5.241138,-0.09042 -1.255136,0.381487 -2.258307,1.196218 -2.814007,2.285414 -0.501849,0.98365 -0.50607,1.01486 -0.56052,4.140664 l -0.05486,3.14954 h 5.868523 5.868516 z"
       id="path53" />
  </g>
</svg>
