<?xml version="1.0" encoding="UTF-8" standalone="no"?>
<svg
   width="64"
   height="64"
   version="1.1"
   id="svg73"
   sodipodi:docname="Logo.svg"
   inkscape:version="1.3.2 (091e20ef0f, 2023-11-25)"
   xmlns:inkscape="http://www.inkscape.org/namespaces/inkscape"
   xmlns:sodipodi="http://sodipodi.sourceforge.net/DTD/sodipodi-0.dtd"
   xmlns="http://www.w3.org/2000/svg"
   xmlns:svg="http://www.w3.org/2000/svg"
   xmlns:rdf="http://www.w3.org/1999/02/22-rdf-syntax-ns#"
   xmlns:cc="http://creativecommons.org/ns#"
   xmlns:dc="http://purl.org/dc/elements/1.1/">
  <metadata
     id="metadata77">
    <rdf:RDF>
      <cc:Work
         rdf:about="">
        <dc:format>image/svg+xml</dc:format>
        <dc:type
           rdf:resource="http://purl.org/dc/dcmitype/StillImage" />
      </cc:Work>
    </rdf:RDF>
  </metadata>
  <sodipodi:namedview
     pagecolor="#f5f7fa"
     bordercolor="#666666"
     borderopacity="1"
     objecttolerance="10"
     gridtolerance="10"
     guidetolerance="10"
     inkscape:pageopacity="0"
     inkscape:pageshadow="2"
     inkscape:window-width="1377"
     inkscape:window-height="886"
     id="namedview75"
     showgrid="false"
     inkscape:zoom="6.2890624"
     inkscape:cx="27.667081"
     inkscape:cy="34.265839"
     inkscape:window-x="181"
     inkscape:window-y="77"
     inkscape:window-maximized="0"
     inkscape:current-layer="g877"
     inkscape:document-rotation="0"
     inkscape:pagecheckerboard="0"
     inkscape:showpageshadow="2"
     inkscape:deskcolor="#d1d1d1" />
  <defs
     id="defs29">
    <linearGradient
       id="b"
       x1="399.57"
       x2="399.57"
       y1="545.8"
       y2="517.8"
       gradientTransform="matrix(2.1429,0,0,2.1429,-825.86391,-1107.6662)"
       gradientUnits="userSpaceOnUse">
      <stop
         stop-color="#3889e9"
         offset="0"
         id="stop2" />
      <stop
         stop-color="#5ea5fb"
         offset="1"
         id="stop4" />
    </linearGradient>
    <linearGradient
       id="d"
       x2="1"
       gradientTransform="matrix(14.905727,-4.7106182,4.7106182,14.905727,322.04962,998.26962)"
       gradientUnits="userSpaceOnUse">
      <stop
         stop-color="#fafafa"
         offset="0"
         id="stop7" />
      <stop
         stop-color="#aaa"
         offset="1"
         id="stop8" />
    </linearGradient>
    <linearGradient
       id="e"
       x2="1"
       gradientTransform="matrix(21.439909,0,0,21.439909,26.63554,1159.7788)"
       gradientUnits="userSpaceOnUse">
      <stop
         stop-color="#f0f0f0"
         offset="0"
         id="stop9" />
      <stop
         stop-color="#b7f1ff"
         offset="1"
         id="stop10" />
    </linearGradient>
    <linearGradient
       id="a"
       x1="23.932795"
       x2="8.7911654"
       y1="46.115501"
       y2="7.6056881"
       gradientUnits="userSpaceOnUse">
      <stop
         stop-color="#333"
         offset="0"
         id="stop1" />
      <stop
         stop-color="#4d4d4d"
         offset="1"
         id="stop2-3" />
    </linearGradient>
  </defs>
  <circle
     cx="32.516094"
     cy="31.877844"
     r="0"
     fill="url(#b)"
     stroke-width="1.5715"
     id="circle41"
     style="fill:url(#b)" />
  <g
     aria-label="GZ"
     transform="matrix(1.2212657,0,0,0.81882264,0.4960938,-0.1661539)"
     id="text93"
     style="font-weight:bold;font-size:11.5263px;line-height:1.25;font-family:sans-serif;-inkscape-font-specification:'sans-serif Bold';fill:#f2f2f2;stroke-width:0.288159" />
  <g
     id="g877"
     transform="matrix(1.1,0,0,1.1,-3.1845928,-3.2065454)">
    <rect
       x="6.3010068"
       y="5.4939413"
       width="51.635597"
       height="53.148327"
       rx="10.980581"
       ry="10.720582"
       fill="url(#linearGradient862)"
       stroke-width="3.0541"
       id="rect35-7-3"
       style="fill:#414141;fill-opacity:1;stroke:#dfdfdf;stroke-width:2.27272727;stroke-dasharray:none;stroke-opacity:1" />
    <path
       id="path11"
       style="fill:#dfdfdf;fill-opacity:1;stroke:none;stroke-width:1.18592;stroke-dasharray:none;stroke-dashoffset:2.2;stroke-opacity:1"
       d="m 32.00477,11.46595 c -0.600404,0.0018 -1.193861,0.112578 -1.612112,0.333539 -0.898503,0.474693 -1.743667,1.327248 -2.163379,2.181909 -0.318006,0.647552 -0.377481,0.939362 -0.375236,1.857633 0.0022,0.910293 0.06195,1.202999 0.36134,1.771931 0.449069,0.853408 1.204761,1.612914 1.973448,1.985029 l 0.590642,0.287212 v 1.144234 1.146546 h -2.927742 -2.927743 v 1.294784 1.292468 h 2.927743 2.927742 v 5.644708 c 0,3.667189 -0.0492,5.777738 -0.143613,6.026886 -0.363597,0.959638 -1.423909,1.593107 -2.647479,1.579686 -0.975855,-0.01067 -3.817037,-0.57569 -5.401497,-1.072426 -1.340301,-0.420195 -3.081202,-1.289915 -3.525334,-1.762668 l -0.315012,-0.335858 h 1.241512 1.243828 l -2.09852,-1.98271 C 17.979389,31.768795 16.987989,30.865641 16.930601,30.85066 16.627042,30.77143 16.0584,33.265597 15.865127,35.522541 l -0.08801,1.021468 0.687925,-0.671714 c 0.37808,-0.370067 0.706687,-0.64675 0.729622,-0.613804 0.02298,0.03299 0.130996,0.239984 0.240892,0.458616 0.109901,0.218626 0.502524,0.637652 0.873227,0.931133 1.170624,0.926765 2.676491,1.591942 6.747244,2.987964 1.309525,0.449095 2.684615,0.970369 3.055137,1.158128 0.370513,0.187753 1.384233,0.978086 2.251395,1.755717 0.867169,0.77763 1.60928,1.414136 1.64917,1.415234 0.0399,0.0011 0.805868,-0.644505 1.702446,-1.43608 0.896576,-0.791572 1.843256,-1.550446 2.105471,-1.686229 0.262216,-0.135796 1.826182,-0.720772 3.474378,-1.299419 4.638339,-1.628424 7.118875,-2.963574 7.370311,-3.965424 0.04539,-0.18073 0.118979,-0.326589 0.164461,-0.326589 0.04539,0 0.37812,0.288562 0.736573,0.641603 l 0.65087,0.641601 v -0.625392 c 0,-0.81069 -0.319739,-2.606056 -0.724991,-4.065018 l -0.322007,-1.158128 -2.031352,2.04525 -2.029037,2.042934 1.15581,0.06718 1.158124,0.0695 -0.854695,0.586013 c -1.565908,1.074134 -3.702002,1.792978 -6.946405,2.339413 -1.36565,0.230012 -1.780332,0.254331 -2.249081,0.129706 C 34.582773,37.756215 33.93523,37.334311 33.62847,36.831241 33.386071,36.43372 33.369528,36.057781 33.369048,30.58431 v -5.823055 h 2.860571 2.860573 V 23.468793 22.17401 h -2.860577 -2.860571 v -1.144229 -1.146544 l 0.738885,-0.416926 C 35.98251,18.408365 36.776098,15.892737 35.840485,13.969844 35.448342,13.16391 34.477427,12.194865 33.656259,11.790251 33.213326,11.57201 32.60518,11.464078 32.004774,11.465977 Z m -0.05793,2.842041 c 0.81785,-0.05165 1.55884,0.581904 1.55884,1.487033 0,0.441628 -0.09002,0.638989 -0.46325,1.012202 -0.373214,0.373215 -0.570573,0.463251 -1.012202,0.463251 -1.568993,0 -2.065603,-2.138395 -0.653184,-2.811931 0.188951,-0.0901 0.381064,-0.138651 0.569796,-0.150551 z M 44.334157,46.81658 c -1.801137,0 -3.603508,0.05964 -3.719903,0.176028 -0.116342,0.116329 -0.162109,0.957007 -0.162109,2.920795 0,2.483332 0.02389,2.772634 0.238558,2.897636 0.323723,0.188535 6.910204,0.194952 7.261457,0.0074 0.247191,-0.132247 0.264069,-0.312599 0.264069,-2.902267 0,-1.965325 -0.04815,-2.806738 -0.164462,-2.923109 -0.116377,-0.116377 -1.916453,-0.176026 -3.717583,-0.176026 z M 19.661441,46.8282 c -3.066308,0 -3.603361,0.03209 -3.787073,0.215429 -0.179862,0.1799 -0.213093,0.63408 -0.213093,2.851306 0,2.572381 0.0061,2.644596 0.301112,2.851313 0.254363,0.178184 0.846024,0.213105 3.70137,0.213105 2.971084,0 3.430318,-0.02987 3.648097,-0.226993 0.225218,-0.203808 0.250154,-0.480549 0.250154,-2.89995 0,-1.899663 -0.04843,-2.723682 -0.164457,-2.839726 -0.118834,-0.11881 -1.138951,-0.16446 -3.73611,-0.16446 z m 12.283086,0 c -2.588305,0 -3.605734,0.04594 -3.724535,0.164463 -0.116088,0.1161 -0.164457,0.94279 -0.164457,2.851307 0,2.261398 0.03525,2.719821 0.215412,2.899942 0.183359,0.183388 0.710974,0.215429 3.678206,0.215429 3.282121,0 3.477968,-0.01547 3.736114,-0.27331 0.25298,-0.253 0.271003,-0.454926 0.271003,-2.816556 0,-2.175409 -0.03187,-2.578013 -0.224679,-2.791083 -0.207448,-0.229262 -0.509904,-0.25018 -3.787071,-0.25018 z" />
  </g>
</svg>
