<?xml version="1.0" encoding="UTF-8" standalone="no"?>
<svg
   width="64"
   height="64"
   version="1.1"
   id="svg73"
   sodipodi:docname="audacious.svg"
   inkscape:version="1.4.2 (ebf0e940d0, 2025-05-08)"
   xmlns:inkscape="http://www.inkscape.org/namespaces/inkscape"
   xmlns:sodipodi="http://sodipodi.sourceforge.net/DTD/sodipodi-0.dtd"
   xmlns="http://www.w3.org/2000/svg"
   xmlns:svg="http://www.w3.org/2000/svg"
   xmlns:rdf="http://www.w3.org/1999/02/22-rdf-syntax-ns#"
   xmlns:cc="http://creativecommons.org/ns#"
   xmlns:dc="http://purl.org/dc/elements/1.1/">
  <metadata
     id="metadata77">
    <rdf:RDF>
      <cc:Work
         rdf:about="">
        <dc:format>image/svg+xml</dc:format>
        <dc:type
           rdf:resource="http://purl.org/dc/dcmitype/StillImage" />
      </cc:Work>
    </rdf:RDF>
  </metadata>
  <sodipodi:namedview
     pagecolor="#f5f7fa"
     bordercolor="#666666"
     borderopacity="1"
     objecttolerance="10"
     gridtolerance="10"
     guidetolerance="10"
     inkscape:pageopacity="0"
     inkscape:pageshadow="2"
     inkscape:window-width="1377"
     inkscape:window-height="886"
     id="namedview75"
     showgrid="false"
     inkscape:zoom="6.2890624"
     inkscape:cx="47.622361"
     inkscape:cy="45.396274"
     inkscape:window-x="20"
     inkscape:window-y="75"
     inkscape:window-maximized="0"
     inkscape:current-layer="g877"
     inkscape:document-rotation="0"
     inkscape:pagecheckerboard="0"
     inkscape:showpageshadow="2"
     inkscape:deskcolor="#d1d1d1" />
  <defs
     id="defs29" />
  <circle
     cx="32.516094"
     cy="31.877844"
     r="0"
     fill="url(#b)"
     stroke-width="1.5715"
     id="circle41"
     style="fill:url(#b)" />
  <g
     aria-label="GZ"
     transform="matrix(1.2212657,0,0,0.81882264,0.4960938,-0.1661539)"
     id="text93"
     style="font-weight:bold;font-size:11.5263px;line-height:1.25;font-family:sans-serif;-inkscape-font-specification:'sans-serif Bold';fill:#f2f2f2;stroke-width:0.288159" />
  <g
     id="g877"
     transform="matrix(1.1,0,0,1.1,-3.1845928,-3.2065454)">
    <rect
       x="8.3496294"
       y="8.369586"
       width="47.272728"
       height="47.272728"
       rx="9.8825235"
       ry="9.6485243"
       fill="url(#linearGradient862)"
       stroke-width="3.0541"
       id="rect35-7-3"
       style="fill:#414141;fill-opacity:1;stroke:#dfdfdf;stroke-width:2.04545;stroke-dasharray:none;stroke-opacity:1" />
    <path
       id="path11"
       style="fill:#dfdfdf;fill-opacity:1;stroke:none;stroke-width:0.5;stroke-dasharray:none;stroke-dashoffset:2.2;stroke-opacity:0.6"
       d="m 32.036083,16.261316 c -0.455648,0.0015 -0.906025,0.08543 -1.223438,0.253123 -0.681878,0.360245 -1.323274,1.007254 -1.641796,1.655859 -0.241334,0.491429 -0.286473,0.712887 -0.284762,1.409766 0.0016,0.690826 0.04701,0.912961 0.27422,1.344726 0.3408,0.647653 0.914296,1.224045 1.497655,1.506446 l 0.448242,0.217969 v 0.868361 0.870117 h -2.221879 -2.221874 v 0.982617 0.980859 h 2.221874 2.221875 v 4.28379 c 0,2.783044 -0.03734,4.384747 -0.10899,4.573828 -0.27593,0.728272 -1.080605,1.209016 -2.009178,1.198828 -0.740579,-0.0081 -2.896763,-0.436891 -4.099217,-0.813867 -1.017162,-0.318888 -2.338338,-0.978921 -2.675392,-1.337695 L 21.974359,34.00116 h 0.942189 0.943946 l -1.592578,-1.504687 c -0.875751,-0.827248 -1.628129,-1.512657 -1.67168,-1.524025 -0.230372,-0.06014 -0.661918,1.832703 -0.808593,3.545508 l -0.06679,0.775196 0.522069,-0.509766 c 0.286927,-0.280845 0.536306,-0.490822 0.553712,-0.465821 0.01742,0.02501 0.09941,0.182129 0.182816,0.348048 0.0834,0.165921 0.381368,0.483918 0.662695,0.70664 0.88839,0.703327 2.031198,1.208132 5.120508,2.267575 0.993805,0.340817 2.037365,0.736418 2.318555,0.878909 0.281188,0.142491 1.050499,0.742272 1.708593,1.332423 0.658098,0.590143 1.221291,1.073187 1.251563,1.074022 0.03027,8.31e-4 0.611576,-0.489118 1.291992,-1.089842 0.680418,-0.600726 1.398857,-1.176641 1.597851,-1.279683 0.198996,-0.10308 1.385898,-0.546998 2.63672,-0.98614 3.52005,-1.235814 5.402539,-2.249066 5.593357,-3.009373 0.03439,-0.137158 0.09026,-0.247852 0.124796,-0.247852 0.03439,0 0.286941,0.21899 0.558983,0.486914 l 0.493945,0.486913 v -0.474608 c 0,-0.615239 -0.24265,-1.977748 -0.550193,-3.084961 l -0.244368,-0.878906 -1.5416,1.552149 -1.539844,1.55039 0.877146,0.05098 0.878905,0.05273 -0.648628,0.444727 c -1.188365,0.815162 -2.809454,1.360695 -5.271644,1.775387 -1.036397,0.174558 -1.351102,0.193012 -1.706835,0.09844 -0.599409,-0.15936 -1.090829,-0.479544 -1.323633,-0.861328 -0.183957,-0.30168 -0.196511,-0.586981 -0.196875,-4.74082 v -4.419138 h 2.170898 2.170901 V 25.3703 24.387683 h -2.170903 -2.170898 v -0.86836 -0.870117 l 0.560743,-0.316405 c 1.422625,-0.802881 2.024883,-2.712 1.314843,-4.171289 -0.2976,-0.611629 -1.034431,-1.347041 -1.657618,-1.654104 -0.336142,-0.165623 -0.797669,-0.247534 -1.253322,-0.246092 z m -0.04395,2.156835 c 0.620669,-0.03917 1.183008,0.441611 1.183008,1.128516 0,0.335151 -0.06833,0.48493 -0.351564,0.768164 -0.283236,0.283236 -0.43301,0.351563 -0.768164,0.351563 -1.190715,0 -1.567594,-1.622834 -0.495703,-2.133985 0.143395,-0.06838 0.289188,-0.105217 0.432423,-0.114258 z m 9.400784,24.670901 c -1.366886,0 -2.734717,0.04529 -2.823046,0.133557 -0.08834,0.08831 -0.123009,0.726268 -0.123009,2.216596 0,1.884613 0.01821,2.104166 0.181043,2.199024 0.245674,0.14311 5.244184,0.14792 5.510742,0.0055 0.187571,-0.1004 0.200387,-0.237256 0.200387,-2.202539 0,-1.491497 -0.03666,-2.13004 -0.124795,-2.218359 -0.08834,-0.08834 -1.454401,-0.133557 -2.821284,-0.133557 z m -18.724222,0.0086 c -2.327031,0 -2.734604,0.02405 -2.874024,0.163485 -0.136495,0.136512 -0.161719,0.481202 -0.161719,2.163867 0,1.952185 0.0044,2.006989 0.228515,2.163867 0.193034,0.135241 0.64205,0.161732 2.808984,0.161732 2.254767,0 2.603281,-0.02268 2.768555,-0.172281 0.170917,-0.154654 0.189842,-0.364656 0.189842,-2.20078 0,-1.441664 -0.03674,-2.067012 -0.124806,-2.155074 -0.09017,-0.09019 -0.864354,-0.124795 -2.835347,-0.124795 z m 9.32168,0 c -1.964273,0 -2.736406,0.03477 -2.826562,0.124796 -0.0881,0.0881 -0.124806,0.715485 -0.124806,2.163866 0,1.71618 0.02677,2.064082 0.163475,2.20078 0.139155,0.139158 0.539562,0.163485 2.791406,0.163485 2.490812,0 2.639444,-0.01168 2.835351,-0.207431 0.19199,-0.192004 0.205662,-0.345229 0.205662,-2.137503 0,-1.650923 -0.02419,-1.956462 -0.170508,-2.118164 -0.157424,-0.173975 -0.386966,-0.189849 -2.874018,-0.189849 z" />
  </g>
</svg>
