<?xml version="1.0" encoding="UTF-8" standalone="no"?>
<svg
   width="64"
   height="64"
   version="1.1"
   id="svg73"
   sodipodi:docname="audacious.svg"
   inkscape:version="1.4.2 (ebf0e940d0, 2025-05-08)"
   xmlns:inkscape="http://www.inkscape.org/namespaces/inkscape"
   xmlns:sodipodi="http://sodipodi.sourceforge.net/DTD/sodipodi-0.dtd"
   xmlns="http://www.w3.org/2000/svg"
   xmlns:svg="http://www.w3.org/2000/svg"
   xmlns:rdf="http://www.w3.org/1999/02/22-rdf-syntax-ns#"
   xmlns:cc="http://creativecommons.org/ns#"
   xmlns:dc="http://purl.org/dc/elements/1.1/">
  <metadata
     id="metadata77">
    <rdf:RDF>
      <cc:Work
         rdf:about="">
        <dc:format>image/svg+xml</dc:format>
        <dc:type
           rdf:resource="http://purl.org/dc/dcmitype/StillImage" />
      </cc:Work>
    </rdf:RDF>
  </metadata>
  <sodipodi:namedview
     pagecolor="#f5f7fa"
     bordercolor="#666666"
     borderopacity="1"
     objecttolerance="10"
     gridtolerance="10"
     guidetolerance="10"
     inkscape:pageopacity="0"
     inkscape:pageshadow="2"
     inkscape:window-width="1377"
     inkscape:window-height="886"
     id="namedview75"
     showgrid="false"
     inkscape:zoom="6.2890624"
     inkscape:cx="37.445963"
     inkscape:cy="34.901864"
     inkscape:window-x="1"
     inkscape:window-y="75"
     inkscape:window-maximized="0"
     inkscape:current-layer="g877"
     inkscape:document-rotation="0"
     inkscape:pagecheckerboard="0"
     inkscape:showpageshadow="2"
     inkscape:deskcolor="#d1d1d1" />
  <defs
     id="defs29" />
  <circle
     cx="32.516094"
     cy="31.877844"
     r="0"
     fill="url(#b)"
     stroke-width="1.5715"
     id="circle41"
     style="fill:url(#b)" />
  <g
     aria-label="GZ"
     transform="matrix(1.2212657,0,0,0.81882264,0.4960938,-0.1661539)"
     id="text93"
     style="font-weight:bold;font-size:11.5263px;line-height:1.25;font-family:sans-serif;-inkscape-font-specification:'sans-serif Bold';fill:#f2f2f2;stroke-width:0.288159" />
  <g
     id="g877"
     transform="matrix(1.1,0,0,1.1,-3.1845928,-3.2065454)">
    <rect
       x="8.3496294"
       y="8.369586"
       width="47.272728"
       height="47.272728"
       rx="9.8825235"
       ry="9.6485243"
       fill="url(#linearGradient862)"
       stroke-width="3.0541"
       id="rect35-7-3"
       style="fill:#414141;fill-opacity:1;stroke:#dfdfdf;stroke-width:2.04545;stroke-dasharray:none;stroke-opacity:1" />
    <path
       style="fill:#dfdfdf;fill-opacity:1;stroke:none;stroke-width:0.482487;stroke-dasharray:none;stroke-opacity:0.6"
       d="m 43.125136,16.755466 c -0.88208,0.03823 -1.752043,0.39675 -2.435432,1.069534 -1.500461,1.483181 -1.558554,3.931386 -0.117491,5.475729 l -0.0159,-0.03086 c 1.12906,1.19266 2.882724,1.497562 4.338623,0.763615 l -2.585554,-2.644197 c -0.08915,-0.107031 -0.08915,-0.260546 0,-0.367577 l 3.327121,-3.410188 c -0.735279,-0.611577 -1.629291,-0.894285 -2.511379,-0.856059 z m 2.868614,1.207078 -3.163529,3.258404 2.481515,2.551704 c 0.208018,-0.137604 0.386211,-0.303727 0.564501,-0.471923 1.441047,-1.467893 1.484276,-3.824421 0.11749,-5.338185 z m -0.170433,1.961207 c 0.07899,-3.06e-4 0.154026,0.03746 0.200507,0.104359 0.267354,0.519878 0.193945,1.14546 -0.177402,1.588883 -0.04458,0.06118 -0.135454,0.106711 -0.209641,0.106711 -0.05945,0.01526 -0.134033,0.01526 -0.19354,0 l -0.01387,-0.01413 c -0.104024,-0.107042 -0.09015,-0.291375 0.01387,-0.398406 0.222835,-0.259936 0.254567,-0.640406 0.106027,-0.946218 0,-0.01526 -0.0159,-0.01559 -0.0159,-0.03086 -0.05944,-0.137606 0.0159,-0.306413 0.149831,-0.367579 0.04456,-0.02862 0.09309,-0.04252 0.14056,-0.04269 z m -7.423846,2.675019 c -1.595436,-0.13259 -4.21619,1.659293 -10.990587,8.620299 l 1.960786,2.020498 9.181843,-9.450317 c 0.326792,-0.33639 0.758329,-0.520665 1.218878,-0.535949 -0.419694,-0.351678 -0.83914,-0.610327 -1.370939,-0.654531 z m 1.398585,1.24028 c -0.326793,0 -0.65295,0.124766 -0.905508,0.377067 l -9.151918,9.35783 1.232699,1.330394 9.672612,-8.776819 c 0.267356,-0.244655 0.416032,-0.579244 0.430864,-0.946221 0.01489,-0.351675 -0.118366,-0.705244 -0.370935,-0.965182 -0.252561,-0.252297 -0.580976,-0.377064 -0.907818,-0.377064 z m 1.426237,2.366733 c -0.0743,0.107042 -0.162009,0.198638 -0.251082,0.275092 l -9.67267,8.760215 1.723466,1.773859 c 3.996269,-3.92966 7.888284,-7.965135 8.200267,-10.809166 z m -14.172545,5.319213 -2.421611,2.492415 -0.04378,0.06169 c -0.04456,0.04585 -0.05861,0.09299 -0.04376,0.154144 0.01479,0.09173 0.102123,0.152821 0.191246,0.137529 l 4.145076,-0.917767 z m 2.347879,2.492415 -1.38246,1.422885 c -0.02972,0.04587 -0.02972,0.108265 0,0.154138 0.04456,0.03062 0.08911,0.03062 0.133635,0 l 2.274145,-0.597615 z m 1.456194,1.453708 -3.757989,0.825273 -7.755605,7.996604 2.525294,2.677392 c 0.07427,0.07653 0.208093,0.07653 0.297224,0 0.0891,-0.06123 0.149527,-0.183661 0.119812,-0.30592 L 21.867511,44.82895 c -0.04456,-0.214107 0.06034,-0.428928 0.253446,-0.535957 h 0.0137 v -0.0308 c 3.773467,-1.850114 7.309302,-4.188969 10.518224,-6.941262 z M 18.941304,44.6748 16.994339,46.695299 c -0.01484,0.04588 -0.01484,0.104916 0,0.166036 0.01484,0.04584 0.07422,0.09379 0.133637,0.109125 l 4.338612,0.289375 z"
       id="path8" />
  </g>
</svg>
