<?xml version="1.0" encoding="UTF-8" standalone="no"?>
<svg
   width="64"
   height="64"
   version="1.1"
   id="svg73"
   sodipodi:docname="audacious.svg"
   inkscape:version="1.4.2 (ebf0e940d0, 2025-05-08)"
   xmlns:inkscape="http://www.inkscape.org/namespaces/inkscape"
   xmlns:sodipodi="http://sodipodi.sourceforge.net/DTD/sodipodi-0.dtd"
   xmlns="http://www.w3.org/2000/svg"
   xmlns:svg="http://www.w3.org/2000/svg"
   xmlns:rdf="http://www.w3.org/1999/02/22-rdf-syntax-ns#"
   xmlns:cc="http://creativecommons.org/ns#"
   xmlns:dc="http://purl.org/dc/elements/1.1/">
  <metadata
     id="metadata77">
    <rdf:RDF>
      <cc:Work
         rdf:about="">
        <dc:format>image/svg+xml</dc:format>
        <dc:type
           rdf:resource="http://purl.org/dc/dcmitype/StillImage" />
      </cc:Work>
    </rdf:RDF>
  </metadata>
  <sodipodi:namedview
     pagecolor="#f5f7fa"
     bordercolor="#666666"
     borderopacity="1"
     objecttolerance="10"
     gridtolerance="10"
     guidetolerance="10"
     inkscape:pageopacity="0"
     inkscape:pageshadow="2"
     inkscape:window-width="1377"
     inkscape:window-height="886"
     id="namedview75"
     showgrid="false"
     inkscape:zoom="6.2890624"
     inkscape:cx="47.940373"
     inkscape:cy="42.534162"
     inkscape:window-x="20"
     inkscape:window-y="75"
     inkscape:window-maximized="0"
     inkscape:current-layer="g877"
     inkscape:document-rotation="0"
     inkscape:pagecheckerboard="0"
     inkscape:showpageshadow="2"
     inkscape:deskcolor="#d1d1d1" />
  <defs
     id="defs29" />
  <circle
     cx="32.516094"
     cy="31.877844"
     r="0"
     fill="url(#b)"
     stroke-width="1.5715"
     id="circle41"
     style="fill:url(#b)" />
  <g
     aria-label="GZ"
     transform="matrix(1.2212657,0,0,0.81882264,0.4960938,-0.1661539)"
     id="text93"
     style="font-weight:bold;font-size:11.5263px;line-height:1.25;font-family:sans-serif;-inkscape-font-specification:'sans-serif Bold';fill:#f2f2f2;stroke-width:0.288159" />
  <g
     id="g877"
     transform="matrix(1.1,0,0,1.1,-3.1845928,-3.2065454)">
    <rect
       x="8.3496294"
       y="8.369586"
       width="47.272728"
       height="47.272728"
       rx="9.8825235"
       ry="9.6485243"
       fill="url(#linearGradient862)"
       stroke-width="3.0541"
       id="rect35-7-3"
       style="fill:#414141;fill-opacity:1;stroke:#dfdfdf;stroke-width:2.04545;stroke-dasharray:none;stroke-opacity:1" />
    <path
       id="path17"
       style="fill:#dfdfdf;fill-opacity:1;stroke:none;stroke-width:0.475;stroke-dasharray:none;stroke-opacity:0.6"
       d="m 31.017221,19.438335 c -11.132263,0 -11.640531,0.0051 -11.982582,0.119956 -0.697967,0.234406 -1.065027,0.458329 -1.560953,0.951624 -0.561378,0.558398 -0.855449,1.081717 -1.003579,1.785965 -0.141346,0.671989 -0.143471,16.984817 -0.0023,17.651063 0.304268,1.435926 1.516067,2.588297 2.979027,2.832714 0.184075,0.03101 3.771922,0.0596 7.972853,0.06381 l 7.638192,0.0075 -0.278113,-0.535711 c -0.451474,-0.870109 -0.731464,-1.845775 -0.83891,-2.922701 L 33.896967,38.95401 H 28.898535 23.899743 L 23.74044,38.794683 23.581138,38.635358 v -1.745043 -1.745472 l 0.167329,-0.15739 0.167708,-0.15739 4.995735,-0.0172 4.995353,-0.01759 v -0.940502 -0.940545 h -0.841222 c -0.90501,0 -1.115524,-0.0519 -1.229738,-0.302558 -0.101533,-0.222831 -0.09852,-3.163512 0.0033,-3.354939 0.148832,-0.279432 0.237289,-0.300032 1.299268,-0.302183 l 1.017344,-0.002 0.143637,-0.438566 c 0.07888,-0.24111 0.242047,-0.654386 0.362542,-0.918386 0.120493,-0.263995 0.218899,-0.488833 0.218899,-0.499689 0,-0.01084 -0.630897,-0.02843 -1.40203,-0.03934 l -1.402004,-0.01985 -0.15663,-0.182225 C 31.764146,26.67241 31.76401,26.67103 31.76401,25.049415 v -1.623238 l 0.159303,-0.159303 0.159688,-0.159309 h 1.686638 1.686638 l 0.134857,0.171145 c 0.12531,0.15931 0.134471,0.255033 0.134471,1.389804 v 1.219047 l 0.427867,-0.44353 c 0.235404,-0.243829 0.658984,-0.613605 0.941305,-0.821736 0.511683,-0.37721 0.513436,-0.3791 0.513824,-0.676946 6.82e-4,-0.374375 0.108176,-0.6916 0.262834,-0.774364 0.07119,-0.03811 1.059524,-0.06342 2.467116,-0.06342 2.114024,0 2.413521,0.01309 3.003477,0.133327 0.659368,0.134371 1.649267,0.479701 2.048035,0.714387 0.118131,0.06952 0.227547,0.126448 0.243346,0.126448 0.06851,0 0.01828,-1.370242 -0.06456,-1.76113 -0.272926,-1.287623 -1.208322,-2.292128 -2.569488,-2.759673 -0.345023,-0.118508 -0.753691,-0.12263 -11.982202,-0.12263 z m -8.773576,3.669347 h 1.639266 l 0.157775,0.167326 c 0.155485,0.165374 0.157649,0.185655 0.178023,1.616729 0.02344,1.648247 -0.01857,1.927942 -0.312115,2.07974 -0.258967,0.133918 -3.131299,0.14011 -3.370986,0.0071 -0.305634,-0.169379 -0.326848,-0.293925 -0.329303,-1.90972 -0.0024,-1.578741 0.03447,-1.822126 0.292632,-1.921201 0.05782,-0.02219 0.843,-0.04011 1.744706,-0.04011 z m 5.831607,0 c 1.538599,0 1.672586,0.0092 1.814614,0.124157 L 30.043058,23.356 v 1.692368 c 0,1.674281 -0.0014,1.694256 -0.147842,1.840596 -0.14491,0.145036 -0.178623,0.147951 -1.72102,0.160447 -0.865279,0.0071 -1.617013,-0.004 -1.670592,-0.02445 -0.05359,-0.02053 -0.163364,-0.09688 -0.243735,-0.170003 -0.144291,-0.13127 -0.145933,-0.154008 -0.145933,-1.798954 0,-1.657406 6.11e-4,-1.66687 0.150137,-1.807358 0.14624,-0.137387 0.195222,-0.140968 1.81118,-0.140968 z m 13.684498,2.013651 c -1.484008,-0.001 -2.778574,0.573671 -3.897796,1.729808 -0.91256,0.942656 -1.471341,2.027856 -1.790547,3.478715 -0.107568,0.488942 -0.118429,0.905123 -0.118429,4.500251 0,4.407154 -0.0014,4.387493 0.456518,5.669241 0.763267,2.135532 2.570319,3.717305 4.611422,4.036854 0.490018,0.07671 1.431564,0.03101 1.972391,-0.09665 0.567491,-0.133603 1.422979,-0.545053 1.957492,-0.941307 1.345005,-0.997087 2.28862,-2.639 2.563006,-4.459376 0.07586,-0.503396 0.0959,-1.384529 0.09515,-4.208759 -8.39e-4,-2.01657 -0.02873,-3.769885 -0.06531,-4.026541 -0.263186,-1.850826 -1.124224,-3.440891 -2.430482,-4.488403 -1.003983,-0.80511 -2.093541,-1.192985 -3.353412,-1.193825 z m -0.05347,3.642603 c 0.05598,-0.0028 0.112549,-0.0022 0.169216,0.0022 0.151099,0.01171 0.303277,0.04943 0.448501,0.115373 0.596236,0.270776 0.691534,0.631035 0.663961,2.510663 -0.02416,1.620949 -0.06606,1.789207 -0.524139,2.092349 -0.183742,0.121592 -0.35838,0.174433 -0.622705,0.188338 -0.419169,0.02203 -0.614414,-0.04271 -0.876742,-0.291487 -0.359156,-0.340616 -0.367878,-0.390486 -0.367878,-2.163023 0,-1.626881 0.0011,-1.639082 0.161577,-1.912794 0.192425,-0.328408 0.556449,-0.521984 0.948179,-0.541715 z M 22.217297,28.95266 c 1.614791,0 1.616531,1.24e-4 1.798573,0.156629 l 0.182223,0.156629 0.0218,1.379874 c 0.02559,1.6017 -0.0052,1.900351 -0.218897,2.114124 -0.154087,0.154086 -0.155501,0.154338 -1.777177,0.154338 -1.621999,0 -1.622954,1.5e-5 -1.805067,-0.15663 l -0.182274,-0.157015 v -1.667153 -1.667538 l 0.182225,-0.156629 c 0.182071,-0.156613 0.183523,-0.156629 1.798571,-0.156629 z m 4.215261,0 h 1.653382 1.653406 l 0.168086,0.199794 0.16809,0.199802 v 1.59113 1.591135 l -0.189862,0.189865 -0.189869,0.189869 H 28.064163 26.432537 L 26.273235,32.754947 26.113929,32.59526 v -1.661806 -1.66219 l 0.159306,-0.159307 z" />
  </g>
</svg>
