<?xml version="1.0" encoding="UTF-8" standalone="no"?>
<svg
   width="64"
   height="64"
   version="1.1"
   id="svg73"
   sodipodi:docname="steam.svg"
   inkscape:version="1.3.2 (091e20ef0f, 2023-11-25)"
   xmlns:inkscape="http://www.inkscape.org/namespaces/inkscape"
   xmlns:sodipodi="http://sodipodi.sourceforge.net/DTD/sodipodi-0.dtd"
   xmlns="http://www.w3.org/2000/svg"
   xmlns:svg="http://www.w3.org/2000/svg"
   xmlns:rdf="http://www.w3.org/1999/02/22-rdf-syntax-ns#"
   xmlns:cc="http://creativecommons.org/ns#"
   xmlns:dc="http://purl.org/dc/elements/1.1/">
  <metadata
     id="metadata77">
    <rdf:RDF>
      <cc:Work
         rdf:about="">
        <dc:format>image/svg+xml</dc:format>
        <dc:type
           rdf:resource="http://purl.org/dc/dcmitype/StillImage" />
      </cc:Work>
    </rdf:RDF>
  </metadata>
  <sodipodi:namedview
     pagecolor="#f5f7fa"
     bordercolor="#666666"
     borderopacity="1"
     objecttolerance="10"
     gridtolerance="10"
     guidetolerance="10"
     inkscape:pageopacity="0"
     inkscape:pageshadow="2"
     inkscape:window-width="1377"
     inkscape:window-height="886"
     id="namedview75"
     showgrid="false"
     inkscape:zoom="4.4470387"
     inkscape:cx="47.784608"
     inkscape:cy="14.054296"
     inkscape:window-x="181"
     inkscape:window-y="77"
     inkscape:window-maximized="0"
     inkscape:current-layer="g877"
     inkscape:document-rotation="0"
     inkscape:pagecheckerboard="0"
     inkscape:showpageshadow="2"
     inkscape:deskcolor="#d1d1d1" />
  <defs
     id="defs29">
    <linearGradient
       id="b"
       x1="399.57"
       x2="399.57"
       y1="545.8"
       y2="517.8"
       gradientTransform="matrix(2.1429,0,0,2.1429,-825.86391,-1107.6662)"
       gradientUnits="userSpaceOnUse">
      <stop
         stop-color="#3889e9"
         offset="0"
         id="stop2" />
      <stop
         stop-color="#5ea5fb"
         offset="1"
         id="stop4" />
    </linearGradient>
    <linearGradient
       id="b-7"
       x2="1"
       gradientTransform="matrix(0.01710113,-26.204152,26.204152,0.01710113,31.514158,44.990262)"
       gradientUnits="userSpaceOnUse">
      <stop
         stop-color="#354956"
         offset="0"
         id="stop3" />
      <stop
         stop-color="#6a7f8c"
         offset="1"
         id="stop4-5" />
    </linearGradient>
  </defs>
  <circle
     cx="32.516094"
     cy="31.877844"
     r="0"
     fill="url(#b)"
     stroke-width="1.5715"
     id="circle41"
     style="fill:url(#b)" />
  <g
     aria-label="GZ"
     transform="matrix(1.2212657,0,0,0.81882264,0.4960938,-0.1661539)"
     id="text93"
     style="font-weight:bold;font-size:11.5263px;line-height:1.25;font-family:sans-serif;-inkscape-font-specification:'sans-serif Bold';fill:#f2f2f2;stroke-width:0.288159" />
  <g
     id="g877"
     transform="matrix(1.1,0,0,1.1,-3.1845928,-3.2065454)">
    <rect
       x="6.3010068"
       y="5.4939413"
       width="51.635597"
       height="53.148327"
       rx="10.980581"
       ry="10.720582"
       fill="url(#linearGradient862)"
       stroke-width="3.0541"
       id="rect35-7-3"
       style="fill:#414141;fill-opacity:1;stroke:#dfdfdf;stroke-width:2.27272727;stroke-dasharray:none;stroke-opacity:1" />
    <path
       d="m 42.061279,46.540023 c -2.895285,2.136599 -6.472551,3.400147 -10.342695,3.400147 -9.624451,0 -17.438653,-7.814202 -17.438653,-17.438654 0,-9.624451 7.814202,-17.438654 17.438653,-17.438654 3.870144,0 7.44741,1.26355 10.342695,3.400147 v -2.330453 h 7.095959 v 32.73792 H 42.061279 Z M 45.99418,30.904646 c -0.04602,-0.403052 -0.517412,-0.705691 -0.926043,-0.705691 -1.313758,0 -2.481076,-0.772633 -2.970598,-1.96924 -0.503466,-1.223104 -0.178513,-2.652617 0.800528,-3.552164 0.309612,-0.280322 0.345873,-0.753108 0.08786,-1.08364 -0.673616,-0.854917 -1.440672,-1.627552 -2.276063,-2.298376 -0.326347,-0.262193 -0.808894,-0.224538 -1.089219,0.08927 -0.857706,0.946965 -2.396001,1.301207 -3.584239,0.803317 -1.235656,-0.518808 -2.016659,-1.772595 -1.939953,-3.118429 0.02511,-0.421183 -0.284508,-0.789369 -0.707086,-0.838183 -1.072483,-0.125513 -2.151939,-0.126911 -3.229999,-0.0084 -0.417,0.04602 -0.725217,0.405844 -0.712665,0.820054 0.04741,1.333282 -0.743348,2.566148 -1.966451,3.066826 -1.172897,0.478363 -2.702823,0.13109 -3.554953,-0.81029 -0.283113,-0.308216 -0.754503,-0.347266 -1.086429,-0.09065 -0.859102,0.675008 -1.644288,1.449037 -2.323481,2.298378 -0.263587,0.329135 -0.225932,0.807499 0.08507,1.092007 1.004145,0.905124 1.326309,2.345794 0.804711,3.582845 -0.495099,1.181265 -1.722388,1.941346 -3.124007,1.941346 -0.457443,-0.01251 -0.781002,0.291483 -0.829814,0.705692 -0.128309,1.080851 -0.128309,2.178437 -0.0084,3.266261 0.04602,0.405843 0.532755,0.70848 0.941386,0.70848 1.250998,-0.03347 2.453183,0.740557 2.958044,1.967845 0.502072,1.2245 0.17991,2.651224 -0.803315,3.550771 -0.308217,0.283113 -0.347268,0.755897 -0.08786,1.083638 0.666639,0.852129 1.430907,1.62337 2.273273,2.298377 0.327742,0.267772 0.807501,0.227328 1.093402,-0.08507 0.857707,-0.951147 2.397397,-1.302597 3.580057,-0.8075 1.238445,0.518809 2.019447,1.772595 1.942741,3.119823 -0.0251,0.422578 0.284507,0.787976 0.707085,0.839578 0.548097,0.06136 1.100376,0.09623 1.655445,0.09623 0.524388,0 1.05017,-0.03069 1.574555,-0.08926 0.417001,-0.04602 0.726611,-0.405843 0.712665,-0.822842 -0.04742,-1.331887 0.740558,-2.561965 1.965057,-3.062641 1.181264,-0.482549 2.704219,-0.129706 3.557742,0.810289 0.281719,0.306822 0.751713,0.345872 1.083639,0.09065 0.860496,-0.676403 1.640104,-1.447643 2.324875,-2.298378 0.263588,-0.329135 0.225933,-0.808895 -0.08507,-1.092007 -0.999961,-0.905125 -1.327703,-2.345795 -0.807499,-3.584241 0.490914,-1.164529 1.670785,-1.94832 2.939914,-1.94832 l 0.178514,0.0056 c 0.41142,0.03486 0.789369,-0.284508 0.838183,-0.702902 0.128308,-1.08085 0.128308,-2.179832 0.0084,-3.269051 z m -14.253283,6.418162 c -2.641457,0 -4.790607,-2.14915 -4.790607,-4.792006 0,-2.641457 2.14915,-4.792002 4.790607,-4.792002 2.642856,0 4.792006,2.150545 4.792006,4.792002 0,2.642856 -2.14915,4.792006 -4.792006,4.792006 z"
       fill="url(#b)"
       id="path4"
       style="fill:#dfdfdf;fill-opacity:1;stroke-width:1.39465" />
  </g>
</svg>
