<?xml version="1.0" encoding="UTF-8" standalone="no"?>
<svg
   width="64"
   height="64"
   version="1.1"
   id="svg73"
   sodipodi:docname="accessories-character-map.svg"
   inkscape:version="1.3.2 (091e20ef0f, 2023-11-25)"
   xmlns:inkscape="http://www.inkscape.org/namespaces/inkscape"
   xmlns:sodipodi="http://sodipodi.sourceforge.net/DTD/sodipodi-0.dtd"
   xmlns="http://www.w3.org/2000/svg"
   xmlns:svg="http://www.w3.org/2000/svg"
   xmlns:rdf="http://www.w3.org/1999/02/22-rdf-syntax-ns#"
   xmlns:cc="http://creativecommons.org/ns#"
   xmlns:dc="http://purl.org/dc/elements/1.1/">
  <metadata
     id="metadata77">
    <rdf:RDF>
      <cc:Work
         rdf:about="">
        <dc:format>image/svg+xml</dc:format>
        <dc:type
           rdf:resource="http://purl.org/dc/dcmitype/StillImage" />
      </cc:Work>
    </rdf:RDF>
  </metadata>
  <sodipodi:namedview
     pagecolor="#f5f7fa"
     bordercolor="#666666"
     borderopacity="1"
     objecttolerance="10"
     gridtolerance="10"
     guidetolerance="10"
     inkscape:pageopacity="0"
     inkscape:pageshadow="2"
     inkscape:window-width="1377"
     inkscape:window-height="886"
     id="namedview75"
     showgrid="false"
     inkscape:zoom="4.4470387"
     inkscape:cx="47.784608"
     inkscape:cy="14.054296"
     inkscape:window-x="181"
     inkscape:window-y="77"
     inkscape:window-maximized="0"
     inkscape:current-layer="g877"
     inkscape:document-rotation="0"
     inkscape:pagecheckerboard="0"
     inkscape:showpageshadow="2"
     inkscape:deskcolor="#d1d1d1" />
  <defs
     id="defs29">
    <linearGradient
       id="b"
       x1="399.57"
       x2="399.57"
       y1="545.8"
       y2="517.8"
       gradientTransform="matrix(2.1429,0,0,2.1429,-825.86391,-1107.6662)"
       gradientUnits="userSpaceOnUse">
      <stop
         stop-color="#3889e9"
         offset="0"
         id="stop2" />
      <stop
         stop-color="#5ea5fb"
         offset="1"
         id="stop4" />
    </linearGradient>
    <linearGradient
       id="d"
       x2="1"
       gradientTransform="matrix(14.905727,-4.7106182,4.7106182,14.905727,322.04962,998.26962)"
       gradientUnits="userSpaceOnUse">
      <stop
         stop-color="#fafafa"
         offset="0"
         id="stop7" />
      <stop
         stop-color="#aaa"
         offset="1"
         id="stop8" />
    </linearGradient>
    <linearGradient
       id="e"
       x2="1"
       gradientTransform="matrix(21.439909,0,0,21.439909,26.63554,1159.7788)"
       gradientUnits="userSpaceOnUse">
      <stop
         stop-color="#f0f0f0"
         offset="0"
         id="stop9" />
      <stop
         stop-color="#b7f1ff"
         offset="1"
         id="stop10" />
    </linearGradient>
  </defs>
  <circle
     cx="32.516094"
     cy="31.877844"
     r="0"
     fill="url(#b)"
     stroke-width="1.5715"
     id="circle41"
     style="fill:url(#b)" />
  <g
     aria-label="GZ"
     transform="matrix(1.2212657,0,0,0.81882264,0.4960938,-0.1661539)"
     id="text93"
     style="font-weight:bold;font-size:11.5263px;line-height:1.25;font-family:sans-serif;-inkscape-font-specification:'sans-serif Bold';fill:#f2f2f2;stroke-width:0.288159" />
  <g
     id="g877"
     transform="matrix(1.1,0,0,1.1,-3.1845928,-3.2065454)">
    <rect
       x="6.3010068"
       y="5.4939413"
       width="51.635597"
       height="53.148327"
       rx="10.980581"
       ry="10.720582"
       fill="url(#linearGradient862)"
       stroke-width="3.0541"
       id="rect35-7-3"
       style="fill:#414141;fill-opacity:1;stroke:#dfdfdf;stroke-width:2.27272727;stroke-dasharray:none;stroke-opacity:1" />
    <path
       d="m 28.203877,38.275389 v -2.5091 c -2.143899,-0.6226 -4.684899,1.0043 -7.034499,3.3066 0,0 0.553299,-4.3219 4.196499,-5.3669 1.105501,-0.2992 0.891,-2.3859 1.1583,-3.4067 l 1.6797,-7.0774 h 3.493601 c -0.3883,-1.1638 -0.745801,-2.09 -1.045001,-2.717 -0.5071,-1.0461 -1.045,-0.3586 -2.209899,0.6567 -0.836,0.6875 -2.956801,2.209901 -6.152301,3.0459 -3.1955,0.8668 -5.763999,0.628101 -6.8398,0.4488 -1.5224,-0.2695 -2.3298,-0.5973 -2.239599,0.5676 0.0594,1.015301 0.298099,2.5982 0.865699,4.719 1.1946,4.5386 6.853001,12.8524 12.694,11.2585 1.9712,-0.5368 1.7853,-0.9713 2.7412,-2.3155 z m -11.509299,-6.5978 5.718899,-3.5112 c 0,0 0.5566,3.091 -1.4443,3.6289 -2.000899,0.5082 -4.274599,-0.117697 -4.274599,-0.117697 z"
       fill="url(#d)"
       id="path13"
       style="fill:#dfdfdf;fill-opacity:1;stroke-width:1.1" />
    <path
       d="m 48.422977,23.43199 c -1.433299,0.238699 -4.8378,0.566499 -9.0497,-0.567601 -4.2108,-1.1352 -7.018,-3.1064 -8.123499,-4.0326 -1.5829,-1.3134 -2.269301,-2.2099 -2.9271,-0.836 -0.597301,1.2243 -1.373901,3.1955 -2.1197,5.973 -1.612601,6.0038 -1.241901,19.173 7.1379,21.3246 7.6109,1.9536 15.2614,-8.9001 16.873999,-14.9028 0.746901,-2.7775 1.0758,-4.8686 1.1649,-6.2128 0.119898,-1.5532 -0.926199,-1.1044 -2.9568,-0.745799 z m -19.7076,3.161399 c 0,0 1.5378,-1.261699 3.9677,0.1232 2.4343,1.3871 2.436501,5.5297 2.436501,5.5297 z m 5.195301,14.5695 c -4.689301,-1.3739 -7.080701,-9.998999 -7.080701,-9.998999 3.1449,4.085399 11.2409,8.398499 18.9552,4.940099 -2.086699,1.6577 -7.2457,6.4031 -11.874499,5.0589 z m 3.893999,-8.2148 c 0,0 3.1812,-3.6927 5.749701,-2.945799 2.5685,0.776599 2.962299,2.028399 2.962299,2.028399 z"
       fill="url(#e)"
       id="path14"
       style="fill:#dfdfdf;fill-opacity:1;stroke-width:1.1" />
  </g>
</svg>
