<?xml version="1.0" encoding="UTF-8" standalone="no"?>
<svg
   width="64"
   height="64"
   version="1.1"
   id="svg73"
   sodipodi:docname="Logo.svg"
   inkscape:version="1.3.2 (091e20ef0f, 2023-11-25)"
   xmlns:inkscape="http://www.inkscape.org/namespaces/inkscape"
   xmlns:sodipodi="http://sodipodi.sourceforge.net/DTD/sodipodi-0.dtd"
   xmlns="http://www.w3.org/2000/svg"
   xmlns:svg="http://www.w3.org/2000/svg"
   xmlns:rdf="http://www.w3.org/1999/02/22-rdf-syntax-ns#"
   xmlns:cc="http://creativecommons.org/ns#"
   xmlns:dc="http://purl.org/dc/elements/1.1/">
  <metadata
     id="metadata77">
    <rdf:RDF>
      <cc:Work
         rdf:about="">
        <dc:format>image/svg+xml</dc:format>
        <dc:type
           rdf:resource="http://purl.org/dc/dcmitype/StillImage" />
      </cc:Work>
    </rdf:RDF>
  </metadata>
  <sodipodi:namedview
     pagecolor="#f5f7fa"
     bordercolor="#666666"
     borderopacity="1"
     objecttolerance="10"
     gridtolerance="10"
     guidetolerance="10"
     inkscape:pageopacity="0"
     inkscape:pageshadow="2"
     inkscape:window-width="1377"
     inkscape:window-height="886"
     id="namedview75"
     showgrid="false"
     inkscape:zoom="6.2890624"
     inkscape:cx="4.2931678"
     inkscape:cy="12.004969"
     inkscape:window-x="181"
     inkscape:window-y="77"
     inkscape:window-maximized="0"
     inkscape:current-layer="g877"
     inkscape:document-rotation="0"
     inkscape:pagecheckerboard="0"
     inkscape:showpageshadow="2"
     inkscape:deskcolor="#d1d1d1" />
  <defs
     id="defs29">
    <linearGradient
       id="b"
       x1="399.57"
       x2="399.57"
       y1="545.8"
       y2="517.8"
       gradientTransform="matrix(2.1429,0,0,2.1429,-825.86391,-1107.6662)"
       gradientUnits="userSpaceOnUse">
      <stop
         stop-color="#3889e9"
         offset="0"
         id="stop2" />
      <stop
         stop-color="#5ea5fb"
         offset="1"
         id="stop4" />
    </linearGradient>
    <linearGradient
       id="d"
       x2="1"
       gradientTransform="matrix(14.905727,-4.7106182,4.7106182,14.905727,322.04962,998.26962)"
       gradientUnits="userSpaceOnUse">
      <stop
         stop-color="#fafafa"
         offset="0"
         id="stop7" />
      <stop
         stop-color="#aaa"
         offset="1"
         id="stop8" />
    </linearGradient>
    <linearGradient
       id="e"
       x2="1"
       gradientTransform="matrix(21.439909,0,0,21.439909,26.63554,1159.7788)"
       gradientUnits="userSpaceOnUse">
      <stop
         stop-color="#f0f0f0"
         offset="0"
         id="stop9" />
      <stop
         stop-color="#b7f1ff"
         offset="1"
         id="stop10" />
    </linearGradient>
    <linearGradient
       id="b-2"
       x2="1"
       gradientTransform="matrix(10.719636,14.238636,-14.238636,10.719636,-67.544643,95.73886)"
       gradientUnits="userSpaceOnUse">
      <stop
         stop-color="#3077e1"
         offset="0"
         id="stop3" />
      <stop
         stop-color="#5df"
         offset="1"
         id="stop4-7" />
    </linearGradient>
    <linearGradient
       id="c"
       x2="1"
       gradientTransform="matrix(-0.30023273,-19.715,19.715,-0.30023273,61.587812,32.183496)"
       gradientUnits="userSpaceOnUse">
      <stop
         stop-color="#da9517"
         offset="0"
         id="stop5" />
      <stop
         stop-color="#ffee58"
         offset="1"
         id="stop6" />
    </linearGradient>
  </defs>
  <circle
     cx="32.516094"
     cy="31.877844"
     r="0"
     fill="url(#b)"
     stroke-width="1.5715"
     id="circle41"
     style="fill:url(#b)" />
  <g
     aria-label="GZ"
     transform="matrix(1.2212657,0,0,0.81882264,0.4960938,-0.1661539)"
     id="text93"
     style="font-weight:bold;font-size:11.5263px;line-height:1.25;font-family:sans-serif;-inkscape-font-specification:'sans-serif Bold';fill:#f2f2f2;stroke-width:0.288159" />
  <g
     id="g877"
     transform="matrix(1.1,0,0,1.1,-3.1845928,-3.2065454)">
    <rect
       x="6.3010068"
       y="5.4939413"
       width="51.635597"
       height="53.148327"
       rx="10.980581"
       ry="10.720582"
       fill="url(#linearGradient862)"
       stroke-width="3.0541"
       id="rect35-7-3"
       style="fill:#414141;fill-opacity:1;stroke:#dfdfdf;stroke-width:2.27272727;stroke-dasharray:none;stroke-opacity:1" />
    <g
       id="g9"
       transform="matrix(1.9487171,0,0,1.9487171,-14.783216,-29.741477)"
       style="fill:#dfdfdf;fill-opacity:1">
      <path
         d="m 24,35.778 c 1.105,0 2.05,-0.393 2.837,-1.18 0.786,-0.786 1.179,-1.732 1.179,-2.836 v -6.427 c 0,-1.104 -0.393,-2.05 -1.179,-2.836 -0.787,-0.787 -1.732,-1.18 -2.837,-1.18 -1.105,0 -2.05,0.393 -2.837,1.18 -0.786,0.786 -1.179,1.732 -1.179,2.836 v 6.427 c 0,1.104 0.393,2.05 1.179,2.836 0.786,0.787 1.732,1.18 2.837,1.18 z"
         fill="#ffffff"
         fill-opacity="0.85"
         fill-rule="nonzero"
         id="path2"
         style="fill:#dfdfdf;fill-opacity:1" />
      <path
         d="m 30.992,29.59 c -0.16,-0.158 -0.348,-0.238 -0.566,-0.238 -0.217,0 -0.405,0.08 -0.565,0.238 -0.158,0.159 -0.238,0.347 -0.238,0.565 v 1.607 c 0,1.548 -0.551,2.872 -1.65,3.972 -1.101,1.101 -2.425,1.651 -3.973,1.651 -1.548,0 -2.872,-0.55 -3.973,-1.651 -1.1,-1.099 -1.651,-2.424 -1.651,-3.972 v -1.607 c 0,-0.218 -0.079,-0.406 -0.238,-0.565 -0.159,-0.158 -0.347,-0.238 -0.564,-0.238 -0.218,0 -0.406,0.08 -0.566,0.238 -0.159,0.159 -0.238,0.347 -0.238,0.565 v 1.607 c 0,1.849 0.618,3.458 1.852,4.826 1.234,1.368 2.758,2.152 4.574,2.353 v 1.657 h -3.212 c -0.218,0 -0.406,0.08 -0.566,0.238 -0.159,0.16 -0.238,0.348 -0.238,0.566 0,0.217 0.079,0.405 0.238,0.565 0.16,0.158 0.348,0.238 0.566,0.238 h 8.032 c 0.218,0 0.406,-0.08 0.566,-0.238 0.158,-0.16 0.238,-0.348 0.238,-0.565 0,-0.218 -0.08,-0.406 -0.238,-0.566 -0.16,-0.158 -0.348,-0.238 -0.566,-0.238 h -3.212 v -1.657 c 1.815,-0.201 3.34,-0.985 4.574,-2.353 1.234,-1.368 1.852,-2.977 1.852,-4.826 v -1.607 c 0,-0.218 -0.08,-0.406 -0.238,-0.565 z"
         fill="#ffffff"
         fill-opacity="0.85"
         fill-rule="nonzero"
         id="path3"
         style="fill:#dfdfdf;fill-opacity:1" />
    </g>
    <g
       id="g1"
       transform="matrix(1.21,0,0,1.21,2.0148825,-2.4743588)" />
  </g>
</svg>
