<?xml version="1.0" encoding="UTF-8" standalone="no"?>
<svg
   width="64"
   height="64"
   version="1.1"
   id="svg73"
   sodipodi:docname="Logo.svg"
   inkscape:version="1.3.2 (091e20ef0f, 2023-11-25)"
   xmlns:inkscape="http://www.inkscape.org/namespaces/inkscape"
   xmlns:sodipodi="http://sodipodi.sourceforge.net/DTD/sodipodi-0.dtd"
   xmlns="http://www.w3.org/2000/svg"
   xmlns:svg="http://www.w3.org/2000/svg"
   xmlns:rdf="http://www.w3.org/1999/02/22-rdf-syntax-ns#"
   xmlns:cc="http://creativecommons.org/ns#"
   xmlns:dc="http://purl.org/dc/elements/1.1/">
  <metadata
     id="metadata77">
    <rdf:RDF>
      <cc:Work
         rdf:about="">
        <dc:format>image/svg+xml</dc:format>
        <dc:type
           rdf:resource="http://purl.org/dc/dcmitype/StillImage" />
      </cc:Work>
    </rdf:RDF>
  </metadata>
  <sodipodi:namedview
     pagecolor="#f5f7fa"
     bordercolor="#666666"
     borderopacity="1"
     objecttolerance="10"
     gridtolerance="10"
     guidetolerance="10"
     inkscape:pageopacity="0"
     inkscape:pageshadow="2"
     inkscape:window-width="1377"
     inkscape:window-height="886"
     id="namedview75"
     showgrid="false"
     inkscape:zoom="6.2890624"
     inkscape:cx="4.2931678"
     inkscape:cy="12.004969"
     inkscape:window-x="181"
     inkscape:window-y="77"
     inkscape:window-maximized="0"
     inkscape:current-layer="g877"
     inkscape:document-rotation="0"
     inkscape:pagecheckerboard="0"
     inkscape:showpageshadow="2"
     inkscape:deskcolor="#d1d1d1" />
  <defs
     id="defs29">
    <linearGradient
       id="b"
       x1="399.57"
       x2="399.57"
       y1="545.8"
       y2="517.8"
       gradientTransform="matrix(2.1429,0,0,2.1429,-825.86391,-1107.6662)"
       gradientUnits="userSpaceOnUse">
      <stop
         stop-color="#3889e9"
         offset="0"
         id="stop2" />
      <stop
         stop-color="#5ea5fb"
         offset="1"
         id="stop4" />
    </linearGradient>
    <linearGradient
       id="d"
       x2="1"
       gradientTransform="matrix(14.905727,-4.7106182,4.7106182,14.905727,322.04962,998.26962)"
       gradientUnits="userSpaceOnUse">
      <stop
         stop-color="#fafafa"
         offset="0"
         id="stop7" />
      <stop
         stop-color="#aaa"
         offset="1"
         id="stop8" />
    </linearGradient>
    <linearGradient
       id="e"
       x2="1"
       gradientTransform="matrix(21.439909,0,0,21.439909,26.63554,1159.7788)"
       gradientUnits="userSpaceOnUse">
      <stop
         stop-color="#f0f0f0"
         offset="0"
         id="stop9" />
      <stop
         stop-color="#b7f1ff"
         offset="1"
         id="stop10" />
    </linearGradient>
    <linearGradient
       id="b-2"
       x2="1"
       gradientTransform="matrix(10.719636,14.238636,-14.238636,10.719636,-67.544643,95.73886)"
       gradientUnits="userSpaceOnUse">
      <stop
         stop-color="#3077e1"
         offset="0"
         id="stop3" />
      <stop
         stop-color="#5df"
         offset="1"
         id="stop4-7" />
    </linearGradient>
    <linearGradient
       id="c"
       x2="1"
       gradientTransform="matrix(-0.30023273,-19.715,19.715,-0.30023273,61.587812,32.183496)"
       gradientUnits="userSpaceOnUse">
      <stop
         stop-color="#da9517"
         offset="0"
         id="stop5" />
      <stop
         stop-color="#ffee58"
         offset="1"
         id="stop6" />
    </linearGradient>
    <linearGradient
       id="linearGradient4227">
      <stop
         style="stop-color:#2e3436"
         id="stop4229" />
      <stop
         offset="1"
         style="stop-color:#555753"
         id="stop4231" />
    </linearGradient>
    <linearGradient
       id="b-1"
       x2="1"
       gradientTransform="matrix(5.2860191,-28.136996,28.136996,5.2860191,29.73861,49.980539)"
       gradientUnits="userSpaceOnUse">
      <stop
         stop-color="#e3e3e3"
         stop-opacity=".9"
         offset="0"
         id="stop3-8"
         style="stop-color:#dfdfdf;stop-opacity:1;" />
      <stop
         stop-color="#fffcff"
         stop-opacity=".9"
         offset="1"
         id="stop4-79" />
    </linearGradient>
  </defs>
  <circle
     cx="32.516094"
     cy="31.877844"
     r="0"
     fill="url(#b)"
     stroke-width="1.5715"
     id="circle41"
     style="fill:url(#b)" />
  <g
     aria-label="GZ"
     transform="matrix(1.2212657,0,0,0.81882264,0.4960938,-0.1661539)"
     id="text93"
     style="font-weight:bold;font-size:11.5263px;line-height:1.25;font-family:sans-serif;-inkscape-font-specification:'sans-serif Bold';fill:#f2f2f2;stroke-width:0.288159" />
  <g
     id="g877"
     transform="matrix(1.1,0,0,1.1,-3.1845928,-3.2065454)">
    <rect
       x="6.3010068"
       y="5.4939413"
       width="51.635597"
       height="53.148327"
       rx="10.980581"
       ry="10.720582"
       fill="url(#linearGradient862)"
       stroke-width="3.0541"
       id="rect35-7-3"
       style="fill:#414141;fill-opacity:1;stroke:#dfdfdf;stroke-width:2.27272727;stroke-dasharray:none;stroke-opacity:1" />
    <path
       style="fill:#dfdfdf;stroke-width:0.111617;fill-opacity:1"
       d="m 31.401355,51.147414 c -0.427404,-0.08381 -1.020149,-0.403666 -1.346783,-0.726752 -0.167179,-0.165361 -1.04111,-1.096582 -1.942069,-2.069379 l -1.638108,-1.76872 -3.300334,-0.01888 c -3.228447,-0.01847 -3.308322,-0.02156 -3.667115,-0.141901 -0.728399,-0.244304 -1.452639,-0.860178 -1.74953,-1.487752 -0.309163,-0.653519 -0.311363,-0.682947 -0.311363,-4.165407 v -3.21689 l -1.436991,-1.33374 c -2.150771,-1.996233 -2.521803,-2.362835 -2.757863,-2.724929 -0.591876,-0.90789 -0.589339,-2.139103 0.0062,-3.026059 0.146219,-0.217754 0.88006,-0.939822 2.203518,-2.168168 l 1.984288,-1.841683 4.06e-4,-3.192298 c 2.65e-4,-2.086158 0.0215,-3.29477 0.06128,-3.488038 0.198595,-0.964639 0.971733,-1.82805 1.948224,-2.175702 0.359943,-0.128149 0.388574,-0.129366 3.692385,-0.157054 l 3.329629,-0.0279 1.842362,-1.982376 c 1.496575,-1.610313 1.908624,-2.021758 2.195424,-2.192207 0.507517,-0.301627 0.871783,-0.398143 1.497138,-0.396683 0.609831,0.0014 1.07338,0.133349 1.534737,0.436787 0.166548,0.109541 1.021498,0.985155 2.120727,2.171986 l 1.841684,1.988457 3.186116,0.0011 c 3.011291,9.9e-4 3.210282,0.0071 3.626535,0.113612 0.536842,0.137301 0.940983,0.371703 1.361944,0.789931 0.355152,0.352843 0.678094,0.946799 0.777609,1.430185 0.03979,0.193269 0.06103,1.401861 0.06128,3.488038 l 4.01e-4,3.192296 1.95555,1.813781 c 2.018841,1.872479 2.27041,2.150462 2.51338,2.777284 0.171914,0.44351 0.210315,1.269724 0.08002,1.721611 -0.211326,0.732896 -0.3462,0.883034 -3.028963,3.371724 l -1.520785,1.410772 v 3.216593 c 0,3.499187 -0.0018,3.522042 -0.321339,4.175836 -0.313041,0.640416 -1.010806,1.232798 -1.739554,1.476831 -0.356933,0.119524 -0.455611,0.123623 -3.674917,0.15265 l -3.308136,0.02983 -1.763271,1.897493 c -0.969801,1.04362 -1.892072,1.994925 -2.049492,2.11401 -0.641635,0.485382 -1.487737,0.68412 -2.264276,0.53185 z m 1.524269,-8.423718 c -0.92989,-2.560498 -1.520841,-5.172538 -1.817797,-8.034774 -0.0964,-0.929148 -0.0966,-4.36978 -3.04e-4,-5.301818 0.294329,-2.848905 0.8581,-5.388151 1.757642,-7.916498 l 0.300799,-0.845453 h -0.42558 c -0.234067,0 -0.713433,0.0359 -1.065257,0.07976 -5.311605,0.662319 -9.229127,4.599843 -9.849042,9.89933 -0.516014,4.41127 1.375955,8.603799 4.940006,10.946861 1.681166,1.105224 3.94378,1.806936 5.922347,1.836719 l 0.481006,0.0072 z"
       id="path4" />
    <g
       id="g1"
       transform="matrix(1.21,0,0,1.21,2.0148825,-2.4743588)" />
  </g>
</svg>
