<?xml version="1.0" encoding="UTF-8" standalone="no"?>
<svg
   width="64"
   height="64"
   version="1.1"
   id="svg73"
   sodipodi:docname="preferences-gtk-config.svg"
   inkscape:version="1.3.2 (091e20ef0f, 2023-11-25)"
   xmlns:inkscape="http://www.inkscape.org/namespaces/inkscape"
   xmlns:sodipodi="http://sodipodi.sourceforge.net/DTD/sodipodi-0.dtd"
   xmlns="http://www.w3.org/2000/svg"
   xmlns:svg="http://www.w3.org/2000/svg"
   xmlns:rdf="http://www.w3.org/1999/02/22-rdf-syntax-ns#"
   xmlns:cc="http://creativecommons.org/ns#"
   xmlns:dc="http://purl.org/dc/elements/1.1/">
  <metadata
     id="metadata77">
    <rdf:RDF>
      <cc:Work
         rdf:about="">
        <dc:format>image/svg+xml</dc:format>
        <dc:type
           rdf:resource="http://purl.org/dc/dcmitype/StillImage" />
      </cc:Work>
    </rdf:RDF>
  </metadata>
  <sodipodi:namedview
     pagecolor="#f5f7fa"
     bordercolor="#666666"
     borderopacity="1"
     objecttolerance="10"
     gridtolerance="10"
     guidetolerance="10"
     inkscape:pageopacity="0"
     inkscape:pageshadow="2"
     inkscape:window-width="1377"
     inkscape:window-height="886"
     id="namedview75"
     showgrid="false"
     inkscape:zoom="6.2890624"
     inkscape:cx="47.701864"
     inkscape:cy="45.396274"
     inkscape:window-x="74"
     inkscape:window-y="53"
     inkscape:window-maximized="0"
     inkscape:current-layer="g877"
     inkscape:document-rotation="0"
     inkscape:pagecheckerboard="0"
     inkscape:showpageshadow="2"
     inkscape:deskcolor="#d1d1d1" />
  <defs
     id="defs29">
    <linearGradient
       id="b"
       x1="399.57"
       x2="399.57"
       y1="545.8"
       y2="517.8"
       gradientTransform="matrix(2.1429,0,0,2.1429,-825.86391,-1107.6662)"
       gradientUnits="userSpaceOnUse">
      <stop
         stop-color="#3889e9"
         offset="0"
         id="stop2" />
      <stop
         stop-color="#5ea5fb"
         offset="1"
         id="stop4" />
    </linearGradient>
  </defs>
  <circle
     cx="32.516094"
     cy="31.877844"
     r="0"
     fill="url(#b)"
     stroke-width="1.5715"
     id="circle41"
     style="fill:url(#b)" />
  <g
     aria-label="GZ"
     transform="matrix(1.2212657,0,0,0.81882264,0.4960938,-0.1661539)"
     id="text93"
     style="font-weight:bold;font-size:11.5263px;line-height:1.25;font-family:sans-serif;-inkscape-font-specification:'sans-serif Bold';fill:#f2f2f2;stroke-width:0.288159" />
  <g
     id="g877"
     transform="matrix(1.1,0,0,1.1,-3.1845928,-3.2065454)">
    <rect
       x="6.3010068"
       y="5.4939413"
       width="51.635597"
       height="53.148327"
       rx="10.980581"
       ry="10.720582"
       fill="url(#linearGradient862)"
       stroke-width="3.0541"
       id="rect35-7-3"
       style="fill:#414141;fill-opacity:1;stroke:#dfdfdf;stroke-width:2.27272727;stroke-dasharray:none;stroke-opacity:1" />
    <path
       fill="#f5f7fa"
       d="m 27.942128,14.639928 c -1.902133,0.03099 -4.171432,0.554889 -6.981982,1.781859 l -3.682802,13.498946 c 2.97968,-1.298708 5.318322,-1.906219 7.288882,-1.88985 2.988022,0.02325 5.078663,1.336841 7.033129,2.726774 l 3.708383,-13.44494 c -2.029203,-1.44877 -4.195384,-2.724428 -7.36561,-2.672789 z m 9.309309,4.103681 -3.682804,13.498937 c 3.237773,2.317407 7.146114,4.225893 14.32202,0.836931 L 51.573459,19.607536 C 44.088797,22.872545 40.49159,21.047798 37.251437,18.743609 Z m -13.63149,11.879067 c -1.90051,0.04886 -4.155242,0.563859 -6.956402,1.78186 h -0.0512 l -3.657211,13.444951 c 7.499562,-3.273194 11.046747,-1.388784 14.296437,0.917931 L 30.985532,33.21447 c -2.023607,-1.450338 -4.198085,-2.67314 -7.365607,-2.591794 z m 9.334884,3.887693 -3.708375,13.417945 c 3.243725,2.321808 6.856373,4.188603 14.34759,0.917937 l 3.554932,-13.093974 c -7.632487,2.7547 -10.946837,1.064173 -14.194147,-1.241908 z"
       id="path42-3"
       style="fill:#dfdfdf;fill-opacity:1;stroke:none;stroke-width:1.94872;stroke-dasharray:none;stroke-opacity:0.3" />
    <rect
       x="34.795551"
       y="33.974232"
       width="24.697144"
       height="25.420679"
       rx="5.2519779"
       ry="5.1276212"
       fill="url(#linearGradient862)"
       stroke-width="3.0541"
       id="rect35-7-3-9"
       style="fill:#414141;fill-opacity:1;stroke:#dfdfdf;stroke-width:2.27273;stroke-dasharray:none;stroke-opacity:1" />
    <path
       style="fill:#dfdfdf;fill-opacity:1;stroke-width:1.53807"
       d="m 51.41648,38.269718 a 3.0761626,3.0761624 0 0 0 -2.518915,1.535083 3.0761626,3.0761624 0 0 0 -0.297406,2.359724 l -4.071993,2.352187 a 3.0761626,3.0761624 0 0 0 -2.194841,-0.922082 3.0761626,3.0761624 0 0 0 -3.076164,3.076166 3.0761626,3.0761624 0 0 0 3.076164,3.076158 3.0761626,3.0761624 0 0 0 2.192997,-0.92223 l 4.071994,2.352187 a 3.0761626,3.0761624 0 0 0 0.29839,2.359419 3.0761626,3.0761624 0 0 0 4.202807,1.126644 3.0761626,3.0761624 0 0 0 1.126646,-4.202808 3.0761626,3.0761624 0 0 0 -4.202811,-1.125106 3.0761626,3.0761624 0 0 0 -0.656759,0.509104 l -4.072842,-2.350956 a 3.0761626,3.0761624 0 0 0 0.115354,-0.822876 3.0761626,3.0761624 0 0 0 -0.11228,-0.822873 l 4.071995,-2.35065 a 3.0761626,3.0761624 0 0 0 0.654454,0.509105 3.0761626,3.0761624 0 0 0 4.202805,-1.125105 3.0761626,3.0761624 0 0 0 -1.12664,-4.202807 3.0761626,3.0761624 0 0 0 -1.683429,-0.408361 z"
       id="path4" />
  </g>
</svg>
