<?xml version="1.0" encoding="UTF-8" standalone="no"?>
<svg
   width="64"
   height="64"
   version="1.1"
   id="svg73"
   sodipodi:docname="Logo.svg"
   inkscape:version="1.3.2 (091e20ef0f, 2023-11-25)"
   xmlns:inkscape="http://www.inkscape.org/namespaces/inkscape"
   xmlns:sodipodi="http://sodipodi.sourceforge.net/DTD/sodipodi-0.dtd"
   xmlns="http://www.w3.org/2000/svg"
   xmlns:svg="http://www.w3.org/2000/svg"
   xmlns:rdf="http://www.w3.org/1999/02/22-rdf-syntax-ns#"
   xmlns:cc="http://creativecommons.org/ns#"
   xmlns:dc="http://purl.org/dc/elements/1.1/">
  <metadata
     id="metadata77">
    <rdf:RDF>
      <cc:Work
         rdf:about="">
        <dc:format>image/svg+xml</dc:format>
        <dc:type
           rdf:resource="http://purl.org/dc/dcmitype/StillImage" />
      </cc:Work>
    </rdf:RDF>
  </metadata>
  <sodipodi:namedview
     pagecolor="#f5f7fa"
     bordercolor="#666666"
     borderopacity="1"
     objecttolerance="10"
     gridtolerance="10"
     guidetolerance="10"
     inkscape:pageopacity="0"
     inkscape:pageshadow="2"
     inkscape:window-width="1377"
     inkscape:window-height="886"
     id="namedview75"
     showgrid="false"
     inkscape:zoom="6.2890624"
     inkscape:cx="4.2931678"
     inkscape:cy="12.004969"
     inkscape:window-x="181"
     inkscape:window-y="77"
     inkscape:window-maximized="0"
     inkscape:current-layer="g1"
     inkscape:document-rotation="0"
     inkscape:pagecheckerboard="0"
     inkscape:showpageshadow="2"
     inkscape:deskcolor="#d1d1d1" />
  <defs
     id="defs29">
    <linearGradient
       id="b"
       x1="399.57"
       x2="399.57"
       y1="545.8"
       y2="517.8"
       gradientTransform="matrix(2.1429,0,0,2.1429,-825.86391,-1107.6662)"
       gradientUnits="userSpaceOnUse">
      <stop
         stop-color="#3889e9"
         offset="0"
         id="stop2" />
      <stop
         stop-color="#5ea5fb"
         offset="1"
         id="stop4" />
    </linearGradient>
    <linearGradient
       id="d"
       x2="1"
       gradientTransform="matrix(14.905727,-4.7106182,4.7106182,14.905727,322.04962,998.26962)"
       gradientUnits="userSpaceOnUse">
      <stop
         stop-color="#fafafa"
         offset="0"
         id="stop7" />
      <stop
         stop-color="#aaa"
         offset="1"
         id="stop8" />
    </linearGradient>
    <linearGradient
       id="e"
       x2="1"
       gradientTransform="matrix(21.439909,0,0,21.439909,26.63554,1159.7788)"
       gradientUnits="userSpaceOnUse">
      <stop
         stop-color="#f0f0f0"
         offset="0"
         id="stop9" />
      <stop
         stop-color="#b7f1ff"
         offset="1"
         id="stop10" />
    </linearGradient>
    <linearGradient
       id="b-2"
       x2="1"
       gradientTransform="matrix(10.719636,14.238636,-14.238636,10.719636,-67.544643,95.73886)"
       gradientUnits="userSpaceOnUse">
      <stop
         stop-color="#3077e1"
         offset="0"
         id="stop3" />
      <stop
         stop-color="#5df"
         offset="1"
         id="stop4-7" />
    </linearGradient>
    <linearGradient
       id="c"
       x2="1"
       gradientTransform="matrix(-0.30023273,-19.715,19.715,-0.30023273,61.587812,32.183496)"
       gradientUnits="userSpaceOnUse">
      <stop
         stop-color="#da9517"
         offset="0"
         id="stop5" />
      <stop
         stop-color="#ffee58"
         offset="1"
         id="stop6" />
    </linearGradient>
  </defs>
  <circle
     cx="32.516094"
     cy="31.877844"
     r="0"
     fill="url(#b)"
     stroke-width="1.5715"
     id="circle41"
     style="fill:url(#b)" />
  <g
     aria-label="GZ"
     transform="matrix(1.2212657,0,0,0.81882264,0.4960938,-0.1661539)"
     id="text93"
     style="font-weight:bold;font-size:11.5263px;line-height:1.25;font-family:sans-serif;-inkscape-font-specification:'sans-serif Bold';fill:#f2f2f2;stroke-width:0.288159" />
  <g
     id="g877"
     transform="matrix(1.1,0,0,1.1,-3.1845928,-3.2065454)">
    <rect
       x="6.3010068"
       y="5.4939413"
       width="51.635597"
       height="53.148327"
       rx="10.980581"
       ry="10.720582"
       fill="url(#linearGradient862)"
       stroke-width="3.0541"
       id="rect35-7-3"
       style="fill:#414141;fill-opacity:1;stroke:#dfdfdf;stroke-width:2.27272727;stroke-dasharray:none;stroke-opacity:1" />
    <g
       id="g1"
       transform="matrix(1.21,0,0,1.21,2.0148825,-2.4743588)">
      <path
         id="path2"
         style="opacity:1;fill:#dfdfdf;fill-opacity:1;stroke:none;stroke-width:0.318012;stroke-dasharray:none;stroke-opacity:1"
         d="M 27.513672 14.183594 C 27.488811 14.157931 26.951967 14.784585 26.322266 15.574219 C 25.008711 17.221392 25.381159 17.190419 23.078125 15.828125 C 22.390266 15.421242 21.786671 15.129345 21.738281 15.177734 C 21.689892 15.226123 21.53536 16.034668 21.394531 16.974609 L 21.138672 18.683594 L 19.195313 18.728516 C 18.126553 18.753071 17.251909 18.823819 17.251953 18.886719 C 17.252033 19.000233 17.563995 19.846202 18.179688 21.402344 L 18.5 22.212891 L 16.84375 23.150391 C 15.932538 23.666616 15.186049 24.138206 15.185547 24.197266 C 15.185045 24.256325 15.793756 24.785906 16.537109 25.375 C 17.280463 25.964096 17.888672 26.500196 17.888672 26.566406 C 17.888672 26.632617 17.457173 27.419031 16.929688 28.3125 C 16.402202 29.205969 15.990995 29.951383 16.015625 29.970703 C 16.040254 29.990027 16.863807 30.133495 17.847656 30.289063 L 19.636719 30.572266 L 19.636719 32.554688 C 19.636719 34.376697 19.660364 34.530347 19.916016 34.435547 C 20.069059 34.378796 20.858939 34.076674 21.671875 33.763672 C 22.484811 33.450668 23.170866 33.219503 23.197266 33.251953 C 23.223666 33.284398 23.658557 34.04501 24.162109 34.941406 C 24.665662 35.837803 25.09816 36.572266 25.125 36.572266 C 25.151835 36.572266 25.69489 35.929257 26.330078 35.144531 L 27.484375 33.71875 L 27.972656 34.009766 C 29.969736 35.204565 30.789894 35.647606 30.865234 35.572266 C 30.913215 35.524284 31.075795 34.712314 31.226563 33.767578 L 31.5 32.050781 L 33.509766 32.097656 L 35.519531 32.146484 L 34.828125 30.349609 L 34.136719 28.550781 L 34.558594 28.298828 C 34.790646 28.159653 35.535127 27.731396 36.212891 27.347656 C 36.890654 26.963918 37.445313 26.604871 37.445313 26.550781 C 37.445313 26.496696 36.837103 25.963073 36.09375 25.365234 C 35.350396 24.767397 34.742188 24.225103 34.742188 24.158203 C 34.742188 24.091299 35.172545 23.308707 35.697266 22.419922 C 36.221985 21.531137 36.650391 20.784186 36.650391 20.759766 C 36.650391 20.735346 36.311887 20.67437 35.896484 20.625 C 35.481081 20.575632 34.656717 20.450627 34.066406 20.347656 L 32.994141 20.162109 L 32.994141 18.173828 C 32.994141 16.343341 32.971024 16.193194 32.714844 16.296875 C 31.28368 16.876098 29.476994 17.525049 29.433594 17.474609 C 29.403953 17.44016 28.969929 16.694846 28.46875 15.820313 C 27.967572 14.945779 27.538532 14.209254 27.513672 14.183594 z M 39.03125 28.255859 C 38.941868 28.281659 37.017676 29.371402 36.851563 29.490234 C 36.831145 29.50484 37.20633 30.513918 37.685547 31.732422 C 38.164763 32.950925 38.558264 34.000816 38.558594 34.066406 C 38.558925 34.132001 37.387395 34.185547 35.955078 34.185547 L 33.349609 34.185547 L 32.994141 36.53125 C 32.797802 37.821186 32.585546 38.933453 32.523438 39.001953 C 32.461333 39.070455 31.429891 38.552148 30.230469 37.849609 C 29.031047 37.147071 28.0266 36.572266 28 36.572266 C 27.973398 36.572266 27.615069 37.001051 27.203125 37.525391 L 26.455078 38.478516 L 28.96875 41.476563 C 30.351642 43.12549 33.129201 46.437387 35.140625 48.835938 L 38.796875 53.195313 L 38.876953 47.361328 C 38.92068 44.152207 39.001591 41.482664 39.056641 41.427734 C 39.111688 41.372808 41.892968 41.690439 45.238281 42.134766 C 48.583597 42.579091 51.344284 42.921341 51.371094 42.894531 C 51.453652 42.811974 39.153624 28.220541 39.03125 28.255859 z "
         transform="matrix(0.7513148,0,0,0.7513148,0.72743956,4.4540496)" />
    </g>
  </g>
</svg>
