<?xml version="1.0" encoding="UTF-8" standalone="no"?>
<svg
   width="64"
   height="64"
   version="1.1"
   id="svg73"
   sodipodi:docname="accessories-character-map.svg"
   inkscape:version="1.3.2 (091e20ef0f, 2023-11-25)"
   xmlns:inkscape="http://www.inkscape.org/namespaces/inkscape"
   xmlns:sodipodi="http://sodipodi.sourceforge.net/DTD/sodipodi-0.dtd"
   xmlns="http://www.w3.org/2000/svg"
   xmlns:svg="http://www.w3.org/2000/svg"
   xmlns:rdf="http://www.w3.org/1999/02/22-rdf-syntax-ns#"
   xmlns:cc="http://creativecommons.org/ns#"
   xmlns:dc="http://purl.org/dc/elements/1.1/">
  <metadata
     id="metadata77">
    <rdf:RDF>
      <cc:Work
         rdf:about="">
        <dc:format>image/svg+xml</dc:format>
        <dc:type
           rdf:resource="http://purl.org/dc/dcmitype/StillImage" />
      </cc:Work>
    </rdf:RDF>
  </metadata>
  <sodipodi:namedview
     pagecolor="#f5f7fa"
     bordercolor="#666666"
     borderopacity="1"
     objecttolerance="10"
     gridtolerance="10"
     guidetolerance="10"
     inkscape:pageopacity="0"
     inkscape:pageshadow="2"
     inkscape:window-width="1377"
     inkscape:window-height="886"
     id="namedview75"
     showgrid="false"
     inkscape:zoom="4.4470387"
     inkscape:cx="47.784608"
     inkscape:cy="14.054296"
     inkscape:window-x="181"
     inkscape:window-y="77"
     inkscape:window-maximized="0"
     inkscape:current-layer="g877"
     inkscape:document-rotation="0"
     inkscape:pagecheckerboard="0"
     inkscape:showpageshadow="2"
     inkscape:deskcolor="#d1d1d1" />
  <defs
     id="defs29">
    <linearGradient
       id="b"
       x1="399.57"
       x2="399.57"
       y1="545.8"
       y2="517.8"
       gradientTransform="matrix(2.1429,0,0,2.1429,-825.86391,-1107.6662)"
       gradientUnits="userSpaceOnUse">
      <stop
         stop-color="#3889e9"
         offset="0"
         id="stop2" />
      <stop
         stop-color="#5ea5fb"
         offset="1"
         id="stop4" />
    </linearGradient>
    <linearGradient
       id="d"
       x2="1"
       gradientTransform="matrix(14.905727,-4.7106182,4.7106182,14.905727,322.04962,998.26962)"
       gradientUnits="userSpaceOnUse">
      <stop
         stop-color="#fafafa"
         offset="0"
         id="stop7" />
      <stop
         stop-color="#aaa"
         offset="1"
         id="stop8" />
    </linearGradient>
    <linearGradient
       id="e"
       x2="1"
       gradientTransform="matrix(21.439909,0,0,21.439909,26.63554,1159.7788)"
       gradientUnits="userSpaceOnUse">
      <stop
         stop-color="#f0f0f0"
         offset="0"
         id="stop9" />
      <stop
         stop-color="#b7f1ff"
         offset="1"
         id="stop10" />
    </linearGradient>
  </defs>
  <circle
     cx="32.516094"
     cy="31.877844"
     r="0"
     fill="url(#b)"
     stroke-width="1.5715"
     id="circle41"
     style="fill:url(#b)" />
  <g
     aria-label="GZ"
     transform="matrix(1.2212657,0,0,0.81882264,0.4960938,-0.1661539)"
     id="text93"
     style="font-weight:bold;font-size:11.5263px;line-height:1.25;font-family:sans-serif;-inkscape-font-specification:'sans-serif Bold';fill:#f2f2f2;stroke-width:0.288159" />
  <g
     id="g877"
     transform="matrix(1.1,0,0,1.1,-3.1845928,-3.2065454)">
    <rect
       x="6.3010068"
       y="5.4939413"
       width="51.635597"
       height="53.148327"
       rx="10.980581"
       ry="10.720582"
       fill="url(#linearGradient862)"
       stroke-width="3.0541"
       id="rect35-7-3"
       style="fill:#414141;fill-opacity:1;stroke:#dfdfdf;stroke-width:2.27272727;stroke-dasharray:none;stroke-opacity:1" />
    <path
       id="path4"
       style="fill:#dfdfdf;fill-opacity:1;stroke:none;stroke-width:1.331;stroke-dasharray:none;stroke-opacity:0.3"
       d="m 38.677201,13.598643 c -11.057062,0 -10.741924,-0.02779 -11.225112,0.990453 -0.202721,0.427186 -0.241765,1.228761 -0.241765,5.032842 v 4.52592 h 5.084835 c 2.99548,5.04e-4 5.314305,0.06634 5.646351,0.158577 0.309908,0.08608 0.738446,0.365069 0.954058,0.621307 l 0.392541,0.46793 v 6.025894 6.025895 h 4.858668 c 5.317706,0 5.291067,0.0056 5.768531,-0.917663 0.196145,-0.379341 0.228743,-1.924608 0.228743,-10.936557 0,-11.640649 0.03119,-11.267926 -0.990449,-11.752834 -0.446569,-0.211927 -1.71622,-0.241762 -10.476401,-0.241764 z M 25.582969,26.900845 c -11.086968,2.66e-4 -10.698312,-0.03812 -11.251108,1.06844 -0.246616,0.493662 -0.267761,1.340125 -0.267761,10.931356 0,11.623591 -0.04206,11.17512 1.06844,11.734639 0.497601,0.250727 1.246649,0.268839 10.676592,0.231359 l 10.138476,-0.04176 0.525119,-0.569315 0.522523,-0.571916 V 38.970829 c 0,-11.830362 0.0398,-11.340189 -0.972255,-11.820425 -0.470667,-0.223356 -1.58054,-0.249776 -10.440026,-0.249564 z m 1.874317,5.799728 1.965307,6.540618 c 1.080461,3.597007 1.996469,6.627537 2.035494,6.735586 0.05559,0.153938 -0.286919,0.187542 -1.583164,0.153383 L 28.218972,46.0859 27.849829,44.596324 27.480685,43.104149 h -1.887318 -1.887316 l -0.171576,0.6499 c -0.09452,0.357377 -0.280623,1.045097 -0.413337,1.528573 l -0.241763,0.881269 h -1.502573 c -1.102972,0 -1.502636,-0.05223 -1.499974,-0.192373 0.0021,-0.105105 0.88572,-3.115264 1.962703,-6.688794 l 1.957507,-6.496425 1.830125,-0.04418 z m -1.874317,2.685397 -0.579712,2.443633 c -0.319105,1.345327 -0.610447,2.500152 -0.647304,2.563217 -0.03688,0.06309 0.487002,0.114381 1.164626,0.114381 0.887586,0 1.229605,-0.05469 1.224415,-0.192373 -0.004,-0.105105 -0.267225,-1.25733 -0.584912,-2.560617 z" />
  </g>
</svg>
