<?xml version="1.0" encoding="UTF-8" standalone="no"?>
<svg
   width="64"
   height="64"
   version="1.1"
   id="svg73"
   sodipodi:docname="steam.svg"
   inkscape:version="1.3.2 (091e20ef0f, 2023-11-25)"
   xmlns:inkscape="http://www.inkscape.org/namespaces/inkscape"
   xmlns:sodipodi="http://sodipodi.sourceforge.net/DTD/sodipodi-0.dtd"
   xmlns="http://www.w3.org/2000/svg"
   xmlns:svg="http://www.w3.org/2000/svg"
   xmlns:rdf="http://www.w3.org/1999/02/22-rdf-syntax-ns#"
   xmlns:cc="http://creativecommons.org/ns#"
   xmlns:dc="http://purl.org/dc/elements/1.1/">
  <metadata
     id="metadata77">
    <rdf:RDF>
      <cc:Work
         rdf:about="">
        <dc:format>image/svg+xml</dc:format>
        <dc:type
           rdf:resource="http://purl.org/dc/dcmitype/StillImage" />
      </cc:Work>
    </rdf:RDF>
  </metadata>
  <sodipodi:namedview
     pagecolor="#f5f7fa"
     bordercolor="#666666"
     borderopacity="1"
     objecttolerance="10"
     gridtolerance="10"
     guidetolerance="10"
     inkscape:pageopacity="0"
     inkscape:pageshadow="2"
     inkscape:window-width="1377"
     inkscape:window-height="886"
     id="namedview75"
     showgrid="false"
     inkscape:zoom="4.4470387"
     inkscape:cx="47.784608"
     inkscape:cy="14.054296"
     inkscape:window-x="181"
     inkscape:window-y="77"
     inkscape:window-maximized="0"
     inkscape:current-layer="g877"
     inkscape:document-rotation="0"
     inkscape:pagecheckerboard="0"
     inkscape:showpageshadow="2"
     inkscape:deskcolor="#d1d1d1" />
  <defs
     id="defs29">
    <linearGradient
       id="b"
       x1="399.57"
       x2="399.57"
       y1="545.8"
       y2="517.8"
       gradientTransform="matrix(2.1429,0,0,2.1429,-825.86391,-1107.6662)"
       gradientUnits="userSpaceOnUse">
      <stop
         stop-color="#3889e9"
         offset="0"
         id="stop2" />
      <stop
         stop-color="#5ea5fb"
         offset="1"
         id="stop4" />
    </linearGradient>
  </defs>
  <circle
     cx="32.516094"
     cy="31.877844"
     r="0"
     fill="url(#b)"
     stroke-width="1.5715"
     id="circle41"
     style="fill:url(#b)" />
  <g
     aria-label="GZ"
     transform="matrix(1.2212657,0,0,0.81882264,0.4960938,-0.1661539)"
     id="text93"
     style="font-weight:bold;font-size:11.5263px;line-height:1.25;font-family:sans-serif;-inkscape-font-specification:'sans-serif Bold';fill:#f2f2f2;stroke-width:0.288159" />
  <g
     id="g877"
     transform="matrix(1.1,0,0,1.1,-3.1845928,-3.2065454)">
    <rect
       x="6.3010068"
       y="5.4939413"
       width="51.635597"
       height="53.148327"
       rx="10.980581"
       ry="10.720582"
       fill="url(#linearGradient862)"
       stroke-width="3.0541"
       id="rect35-7-3"
       style="fill:#414141;fill-opacity:1;stroke:#dfdfdf;stroke-width:2.27272727;stroke-dasharray:none;stroke-opacity:1" />
    <path
       style="fill:#dfdfdf;fill-opacity:1;stroke:none;stroke-width:1.21;stroke-dasharray:none;stroke-opacity:0.3"
       d="m 25.746022,15.289858 c -0.881998,1.6e-5 -1.791874,0.08227 -2.72285,0.244421 -0.930975,0.154053 -1.889246,0.389144 -2.879021,0.705327 v 2.067097 c 0.82319,-0.37294 1.681676,-0.655016 2.573465,-0.841504 0.891794,-0.186468 1.809216,-0.279325 2.750009,-0.279338 1.479767,9e-6 2.625816,0.28446 3.43921,0.851978 0.823176,0.559437 1.232397,1.473903 1.232408,2.503562 v 0.230456 h -3.788899 c -2.459758,10e-6 -4.316553,0.377435 -5.561127,1.15576 -1.234783,0.778339 -1.850329,1.812731 -1.850316,3.345064 -1.3e-5,1.313436 0.493859,2.366586 1.483644,3.153023 0.999582,0.778334 2.344369,1.166236 4.029953,1.166236 1.332767,0 2.460293,-0.193951 3.381495,-0.583118 0.921167,-0.397276 1.687852,-1.009666 2.30525,-1.836645 v 2.419764 h 2.705877 v -7.405936 c -2.7e-5,-2.075537 -0.586073,-4.341713 -1.762044,-5.363281 -1.175986,-1.021546 -2.955706,-1.53285 -5.337054,-1.532866 z m 10.575651,3.575522 v 19.665361 h 5.214828 v -2.370876 c 0.744639,1.846615 1.753393,2.092206 3.452791,2.370876 1.528857,0 3.651642,-0.675684 4.63398,-2.032181 0.98229,-1.364762 1.473437,-3.241954 1.473459,-5.384228 -2.2e-5,-2.142262 -0.491169,-3.535392 -1.473459,-4.8919 -0.982338,-1.364758 -3.105123,-2.046133 -4.63398,-2.046147 -1.952307,0.02916 -2.772184,1.008806 -3.452791,2.367385 v -7.67829 z m -8.728731,3.100647 h 2.933343 v 0.666919 c -1.5e-5,1.9597 -0.495985,2.818299 -1.49044,4.005001 -0.983778,1.175814 -2.292066,1.763321 -3.928099,1.763315 -1.186946,6e-6 -2.129648,-0.311715 -2.824699,-0.932286 -0.684365,-0.631453 -1.025314,-1.478516 -1.025314,-2.545464 0,-1.339116 0.458781,-1.571203 1.378403,-2.126456 0.919593,-0.555237 2.572223,-0.83102 4.956806,-0.831029 z m 16.561163,5.838155 c 0.843402,1.3e-5 1.484961,0.304318 1.925006,0.914828 0.447362,0.610528 0.672219,1.497801 0.672226,2.66069 -7e-6,1.162903 -0.224869,2.050176 -0.672226,2.66069 -0.440045,0.610524 -1.081604,0.914834 -1.925006,0.914832 -0.843421,2e-6 -1.490673,-0.304304 -1.945376,-0.914832 -0.447407,-0.617781 -0.672236,-1.505057 -0.672228,-2.66069 -8e-6,-1.155621 0.224826,-2.039685 0.672228,-2.650215 0.454726,-0.617776 1.101955,-0.92529 1.945376,-0.925303 z m -19.542039,5.36328 c -2.624079,1.4e-5 -4.912626,0.814111 -6.858045,2.440711 -1.93414,1.616 -3.188296,3.780082 -3.765135,6.49111 -0.565538,2.700402 -0.225653,4.867826 1.018519,6.505069 1.244172,1.626625 3.178097,2.440713 5.802179,2.440713 1.990659,0 3.714993,-0.471437 5.174092,-1.417637 1.45905,-0.946203 2.603323,-2.326837 3.429024,-4.1342 h -2.512353 c -0.576863,1.328943 -1.3382,2.326273 -2.288281,2.985421 -0.938792,0.659158 -2.083063,0.988162 -3.429021,0.988158 -1.696608,4e-6 -2.846555,-0.617357 -3.446,-1.850612 -0.588156,-1.233249 -0.618724,-3.071669 -0.09846,-5.516912 0.520283,-2.445241 1.33828,-4.280319 2.458033,-5.502953 1.13106,-1.233237 2.541564,-1.850598 4.226867,-1.85061 1.481679,1.2e-5 2.543248,0.342673 3.187973,1.023073 0.656007,0.680431 0.944897,1.765887 0.865744,3.254284 h 1.812968 l 0.91667,-4.34021 c -1.02925,-0.510296 -2.085184,-0.886775 -3.17099,-1.131316 -1.074514,-0.255135 -2.181414,-0.384075 -3.323778,-0.384089 z"
       id="path8-2" />
  </g>
</svg>
