<?xml version="1.0" encoding="UTF-8" standalone="no"?>
<svg
   width="64"
   height="64"
   version="1.1"
   id="svg73"
   sodipodi:docname="accessories-character-map.svg"
   inkscape:version="1.3.2 (091e20ef0f, 2023-11-25)"
   xmlns:inkscape="http://www.inkscape.org/namespaces/inkscape"
   xmlns:sodipodi="http://sodipodi.sourceforge.net/DTD/sodipodi-0.dtd"
   xmlns="http://www.w3.org/2000/svg"
   xmlns:svg="http://www.w3.org/2000/svg"
   xmlns:rdf="http://www.w3.org/1999/02/22-rdf-syntax-ns#"
   xmlns:cc="http://creativecommons.org/ns#"
   xmlns:dc="http://purl.org/dc/elements/1.1/">
  <metadata
     id="metadata77">
    <rdf:RDF>
      <cc:Work
         rdf:about="">
        <dc:format>image/svg+xml</dc:format>
        <dc:type
           rdf:resource="http://purl.org/dc/dcmitype/StillImage" />
      </cc:Work>
    </rdf:RDF>
  </metadata>
  <sodipodi:namedview
     pagecolor="#f5f7fa"
     bordercolor="#666666"
     borderopacity="1"
     objecttolerance="10"
     gridtolerance="10"
     guidetolerance="10"
     inkscape:pageopacity="0"
     inkscape:pageshadow="2"
     inkscape:window-width="1377"
     inkscape:window-height="886"
     id="namedview75"
     showgrid="false"
     inkscape:zoom="4.4470387"
     inkscape:cx="47.784608"
     inkscape:cy="14.054296"
     inkscape:window-x="181"
     inkscape:window-y="77"
     inkscape:window-maximized="0"
     inkscape:current-layer="g877"
     inkscape:document-rotation="0"
     inkscape:pagecheckerboard="0"
     inkscape:showpageshadow="2"
     inkscape:deskcolor="#d1d1d1" />
  <defs
     id="defs29">
    <linearGradient
       id="b"
       x1="399.57"
       x2="399.57"
       y1="545.8"
       y2="517.8"
       gradientTransform="matrix(2.1429,0,0,2.1429,-825.86391,-1107.6662)"
       gradientUnits="userSpaceOnUse">
      <stop
         stop-color="#3889e9"
         offset="0"
         id="stop2" />
      <stop
         stop-color="#5ea5fb"
         offset="1"
         id="stop4" />
    </linearGradient>
    <linearGradient
       id="d"
       x2="1"
       gradientTransform="matrix(14.905727,-4.7106182,4.7106182,14.905727,322.04962,998.26962)"
       gradientUnits="userSpaceOnUse">
      <stop
         stop-color="#fafafa"
         offset="0"
         id="stop7" />
      <stop
         stop-color="#aaa"
         offset="1"
         id="stop8" />
    </linearGradient>
    <linearGradient
       id="e"
       x2="1"
       gradientTransform="matrix(21.439909,0,0,21.439909,26.63554,1159.7788)"
       gradientUnits="userSpaceOnUse">
      <stop
         stop-color="#f0f0f0"
         offset="0"
         id="stop9" />
      <stop
         stop-color="#b7f1ff"
         offset="1"
         id="stop10" />
    </linearGradient>
    <linearGradient
       id="b-7"
       x2="1"
       gradientTransform="matrix(0.40580738,-38.686967,38.686967,0.40580738,341.83918,54.569363)"
       gradientUnits="userSpaceOnUse">
      <stop
         stop-color="#b7b7b7"
         offset="0"
         id="stop3" />
      <stop
         stop-color="#d9d9d9"
         offset="1"
         id="stop4-0" />
    </linearGradient>
  </defs>
  <circle
     cx="32.516094"
     cy="31.877844"
     r="0"
     fill="url(#b)"
     stroke-width="1.5715"
     id="circle41"
     style="fill:url(#b)" />
  <g
     aria-label="GZ"
     transform="matrix(1.2212657,0,0,0.81882264,0.4960938,-0.1661539)"
     id="text93"
     style="font-weight:bold;font-size:11.5263px;line-height:1.25;font-family:sans-serif;-inkscape-font-specification:'sans-serif Bold';fill:#f2f2f2;stroke-width:0.288159" />
  <g
     id="g877"
     transform="matrix(1.1,0,0,1.1,-3.1845928,-3.2065454)">
    <rect
       x="6.3010068"
       y="5.4939413"
       width="51.635597"
       height="53.148327"
       rx="10.980581"
       ry="10.720582"
       fill="url(#linearGradient862)"
       stroke-width="3.0541"
       id="rect35-7-3"
       style="fill:#414141;fill-opacity:1;stroke:#dfdfdf;stroke-width:2.27272727;stroke-dasharray:none;stroke-opacity:1" />
    <path
       id="path102"
       style="fill:#dfdfdf;fill-opacity:1;stroke:none;stroke-width:1.331;stroke-dasharray:none;stroke-dashoffset:2.2;stroke-opacity:0.3"
       d="m 26.55034,11.806981 c -9.670694,0 -9.338148,-0.03154 -9.901917,0.922862 -0.22784,0.385746 -0.249571,2.113177 -0.249571,19.478874 0,21.042264 -0.06758,19.644071 0.961855,20.271749 0.476352,0.290471 0.879207,0.29842 15.059547,0.298972 15.874594,6.25e-4 15.053622,0.04527 15.764035,-0.857867 0.318188,-0.404515 0.317132,-0.4515 0.317132,-13.686945 V 24.955823 h -5.771132 c -6.470647,-2.67e-4 -6.581411,-0.01826 -7.107335,-1.071042 -0.240316,-0.48102 -0.267531,-1.118501 -0.267781,-6.306651 v -5.771149 z m 10.640209,0.233967 v 4.936658 c 0,5.388513 0.02768,5.595467 0.87867,6.05709 0.34455,0.186939 1.279416,0.228904 5.290203,0.233965 l 4.871673,0.0051 -2.604811,-2.713993 C 44.19271,19.067311 41.707961,16.538781 40.104713,14.942032 Z M 23.584184,31.530219 h 8.864675 8.867269 v 1.146427 1.146428 h -8.86727 -8.864677 v -1.146428 z m 0,4.278958 h 8.864675 8.867269 v 1.224416 1.221816 h -8.86727 -8.864677 v -1.221816 z m 0,4.434932 h 8.864675 8.867269 v 1.221818 1.224417 h -8.86727 -8.864677 v -1.224417 z m 0,4.432335 h 5.578766 5.581365 v 1.224416 1.221814 H 29.16295 23.584181 V 45.90086 Z" />
  </g>
</svg>
