<?xml version="1.0" encoding="UTF-8" standalone="no"?>
<svg
   width="64"
   height="64"
   version="1.1"
   id="svg73"
   sodipodi:docname="audacious.svg"
   inkscape:version="1.4.2 (ebf0e940d0, 2025-05-08)"
   xmlns:inkscape="http://www.inkscape.org/namespaces/inkscape"
   xmlns:sodipodi="http://sodipodi.sourceforge.net/DTD/sodipodi-0.dtd"
   xmlns="http://www.w3.org/2000/svg"
   xmlns:svg="http://www.w3.org/2000/svg"
   xmlns:rdf="http://www.w3.org/1999/02/22-rdf-syntax-ns#"
   xmlns:cc="http://creativecommons.org/ns#"
   xmlns:dc="http://purl.org/dc/elements/1.1/">
  <metadata
     id="metadata77">
    <rdf:RDF>
      <cc:Work
         rdf:about="">
        <dc:format>image/svg+xml</dc:format>
        <dc:type
           rdf:resource="http://purl.org/dc/dcmitype/StillImage" />
      </cc:Work>
    </rdf:RDF>
  </metadata>
  <sodipodi:namedview
     pagecolor="#f5f7fa"
     bordercolor="#666666"
     borderopacity="1"
     objecttolerance="10"
     gridtolerance="10"
     guidetolerance="10"
     inkscape:pageopacity="0"
     inkscape:pageshadow="2"
     inkscape:window-width="1377"
     inkscape:window-height="886"
     id="namedview75"
     showgrid="false"
     inkscape:zoom="6.2890624"
     inkscape:cx="46.82733"
     inkscape:cy="41.739131"
     inkscape:window-x="0"
     inkscape:window-y="49"
     inkscape:window-maximized="0"
     inkscape:current-layer="g877"
     inkscape:document-rotation="0"
     inkscape:pagecheckerboard="0"
     inkscape:showpageshadow="2"
     inkscape:deskcolor="#d1d1d1" />
  <defs
     id="defs29" />
  <circle
     cx="32.516094"
     cy="31.877844"
     r="0"
     fill="url(#b)"
     stroke-width="1.5715"
     id="circle41"
     style="fill:url(#b)" />
  <g
     aria-label="GZ"
     transform="matrix(1.2212657,0,0,0.81882264,0.4960938,-0.1661539)"
     id="text93"
     style="font-weight:bold;font-size:11.5263px;line-height:1.25;font-family:sans-serif;-inkscape-font-specification:'sans-serif Bold';fill:#f2f2f2;stroke-width:0.288159" />
  <g
     id="g877"
     transform="matrix(1.1,0,0,1.1,-3.1845928,-3.2065454)">
    <rect
       x="8.3496294"
       y="8.369586"
       width="47.272728"
       height="47.272728"
       rx="9.8825235"
       ry="9.6485243"
       fill="url(#linearGradient862)"
       stroke-width="3.0541"
       id="rect35-7-3"
       style="fill:#414141;fill-opacity:1;stroke:#dfdfdf;stroke-width:2.04545;stroke-dasharray:none;stroke-opacity:1" />
    <path
       style="fill:#dfdfdf;fill-opacity:1;stroke:none;stroke-width:0.5;stroke-dasharray:none;stroke-opacity:0.6"
       d="m 26.282074,16.704673 c -0.754895,1.3e-5 -1.533648,0.07041 -2.330462,0.209201 -0.796813,0.131846 -1.616989,0.333062 -2.464129,0.603679 v 1.769211 c 0.704562,-0.319198 1.439332,-0.560625 2.202607,-0.720238 0.763277,-0.159599 1.54849,-0.239077 2.353708,-0.239084 1.266518,9e-6 2.247411,0.243472 2.943589,0.7292 0.70455,0.478818 1.054797,1.261501 1.054807,2.142779 v 0.197247 h -3.242886 c -2.105284,1e-5 -3.694501,0.323043 -4.759721,0.989205 -1.056838,0.666173 -1.583677,1.551501 -1.583665,2.863012 -1.2e-5,1.124155 0.422689,2.025539 1.269837,2.698644 0.855533,0.666168 2.006525,0.99817 3.449201,0.99817 1.140705,0 2.105745,-0.166007 2.89419,-0.499084 0.788419,-0.340024 1.444618,-0.864167 1.973044,-1.571968 v 2.071054 h 2.315936 v -6.338678 c -2.4e-5,-1.776436 -0.501615,-3.716034 -1.508119,-4.590385 -1.006513,-0.874334 -2.529762,-1.311952 -4.567937,-1.311965 z m 9.051608,3.060257 v 16.831408 h 4.463321 v -2.029214 c 0.637334,1.580502 1.500711,1.790703 2.955216,2.029214 1.308536,0 3.125414,-0.578312 3.966177,-1.739325 0.840738,-1.16809 1.261112,-2.774761 1.261126,-4.608314 -1.4e-5,-1.833543 -0.420388,-3.025911 -1.261126,-4.186935 -0.840763,-1.168085 -2.657641,-1.751267 -3.966177,-1.751279 -1.670959,0.02494 -2.372687,0.86343 -2.955216,2.026226 V 19.76493 Z m -7.470846,2.653815 h 2.510624 v 0.57081 c -1.4e-5,1.67729 -0.42451,2.412158 -1.275654,3.427846 -0.842008,1.006368 -1.961758,1.509209 -3.362025,1.509205 -1.015897,4e-6 -1.822749,-0.266794 -2.417636,-0.797935 -0.585744,-0.540455 -0.877556,-1.265449 -0.877556,-2.178641 0,-1.146137 0.392666,-1.344778 1.179762,-1.820017 0.787071,-0.47522 2.201542,-0.711258 4.242485,-0.711268 z m 14.174553,4.996826 c 0.72186,1.1e-5 1.270957,0.260459 1.647594,0.782992 0.382895,0.522545 0.575348,1.281954 0.575352,2.277262 -4e-6,0.995316 -0.192451,1.754725 -0.575352,2.277262 -0.376637,0.52254 -0.925734,0.782996 -1.647594,0.782993 -0.721873,3e-6 -1.275856,-0.260449 -1.665024,-0.782993 -0.382936,-0.528755 -0.575366,-1.288168 -0.575362,-2.277262 -4e-6,-0.989088 0.192416,-1.745749 0.575362,-2.268296 0.389192,-0.528748 0.943151,-0.791947 1.665024,-0.791958 z m -16.725855,4.590382 c -2.24593,1.2e-5 -4.204675,0.69679 -5.869741,2.088983 -1.655414,1.383121 -2.728836,3.235331 -3.222547,5.555673 -0.484038,2.311255 -0.19313,4.166328 0.871744,5.567633 1.064876,1.392212 2.720103,2.088986 4.966031,2.088986 1.703789,0 3.179632,-0.403497 4.428458,-1.213349 1.248788,-0.809845 2.228162,-1.991513 2.934873,-3.538422 H 27.27005 c -0.493731,1.13743 -1.145352,1.991036 -1.958516,2.555196 -0.803506,0.564168 -1.782878,0.845762 -2.934872,0.845759 -1.452111,3e-6 -2.436339,-0.528389 -2.949398,-1.583922 -0.503399,-1.055536 -0.529562,-2.629022 -0.08429,-4.721881 0.445302,-2.092854 1.14542,-3.663479 2.103808,-4.709919 0.968064,-1.055515 2.1753,-1.583909 3.617737,-1.583919 1.268153,10e-6 2.176743,0.293293 2.728558,0.875637 0.561469,0.582377 0.808727,1.511409 0.740982,2.785314 h 1.551702 l 0.784575,-3.714745 c -0.880919,-0.43676 -1.784682,-0.758985 -2.714014,-0.968285 -0.919667,-0.218368 -1.867051,-0.328727 -2.844792,-0.328739 z"
       id="path8-2" />
  </g>
</svg>
