<?xml version="1.0" encoding="UTF-8" standalone="no"?>
<svg
   width="64"
   height="64"
   version="1.1"
   id="svg73"
   sodipodi:docname="steam.svg"
   inkscape:version="1.3.2 (091e20ef0f, 2023-11-25)"
   xmlns:inkscape="http://www.inkscape.org/namespaces/inkscape"
   xmlns:sodipodi="http://sodipodi.sourceforge.net/DTD/sodipodi-0.dtd"
   xmlns="http://www.w3.org/2000/svg"
   xmlns:svg="http://www.w3.org/2000/svg"
   xmlns:rdf="http://www.w3.org/1999/02/22-rdf-syntax-ns#"
   xmlns:cc="http://creativecommons.org/ns#"
   xmlns:dc="http://purl.org/dc/elements/1.1/">
  <metadata
     id="metadata77">
    <rdf:RDF>
      <cc:Work
         rdf:about="">
        <dc:format>image/svg+xml</dc:format>
        <dc:type
           rdf:resource="http://purl.org/dc/dcmitype/StillImage" />
      </cc:Work>
    </rdf:RDF>
  </metadata>
  <sodipodi:namedview
     pagecolor="#f5f7fa"
     bordercolor="#666666"
     borderopacity="1"
     objecttolerance="10"
     gridtolerance="10"
     guidetolerance="10"
     inkscape:pageopacity="0"
     inkscape:pageshadow="2"
     inkscape:window-width="1377"
     inkscape:window-height="886"
     id="namedview75"
     showgrid="false"
     inkscape:zoom="4.4470387"
     inkscape:cx="47.784608"
     inkscape:cy="14.054296"
     inkscape:window-x="181"
     inkscape:window-y="77"
     inkscape:window-maximized="0"
     inkscape:current-layer="g877"
     inkscape:document-rotation="0"
     inkscape:pagecheckerboard="0"
     inkscape:showpageshadow="2"
     inkscape:deskcolor="#d1d1d1" />
  <defs
     id="defs29">
    <linearGradient
       id="b"
       x1="399.57"
       x2="399.57"
       y1="545.8"
       y2="517.8"
       gradientTransform="matrix(2.1429,0,0,2.1429,-825.86391,-1107.6662)"
       gradientUnits="userSpaceOnUse">
      <stop
         stop-color="#3889e9"
         offset="0"
         id="stop2" />
      <stop
         stop-color="#5ea5fb"
         offset="1"
         id="stop4" />
    </linearGradient>
  </defs>
  <circle
     cx="32.516094"
     cy="31.877844"
     r="0"
     fill="url(#b)"
     stroke-width="1.5715"
     id="circle41"
     style="fill:url(#b)" />
  <g
     aria-label="GZ"
     transform="matrix(1.2212657,0,0,0.81882264,0.4960938,-0.1661539)"
     id="text93"
     style="font-weight:bold;font-size:11.5263px;line-height:1.25;font-family:sans-serif;-inkscape-font-specification:'sans-serif Bold';fill:#f2f2f2;stroke-width:0.288159" />
  <g
     id="g877"
     transform="matrix(1.1,0,0,1.1,-3.1845928,-3.2065454)">
    <rect
       x="6.3010068"
       y="5.4939413"
       width="51.635597"
       height="53.148327"
       rx="10.980581"
       ry="10.720582"
       fill="url(#linearGradient862)"
       stroke-width="3.0541"
       id="rect35-7-3"
       style="fill:#414141;fill-opacity:1;stroke:#dfdfdf;stroke-width:2.27272727;stroke-dasharray:none;stroke-opacity:1" />
    <path
       style="color:#6e6e6e;fill:#dfdfdf;fill-opacity:1;stroke:none;stroke-width:1.331;stroke-dasharray:none;stroke-opacity:0.3"
       class="ColorScheme-Text"
       d="m 22.229733,12.709915 c -4.992124,0 -4.992124,5.288283 -4.992124,5.288283 v 29.085551 c 0,5.288287 4.725794,5.278764 4.992124,5.288287 H 42.19822 c 0,0 4.99212,-0.01056 4.99212,-5.288287 V 17.998198 c 0,-5.288283 -4.99212,-5.288283 -4.99212,-5.288283 z m 9.984243,5.288283 c 1.382993,0 2.49606,1.188411 2.49606,2.644143 0,1.45597 -1.113067,2.644141 -2.49606,2.644141 -1.383416,0 -2.49606,-1.188171 -2.49606,-2.644141 0,-1.455732 1.112644,-2.644143 2.49606,-2.644143 z m 0,7.932424 c 5.514049,0 9.984244,4.735395 9.984244,10.576569 0,5.841166 -4.470195,10.576558 -9.984244,10.576558 -5.514049,0 -9.984243,-4.735392 -9.984243,-10.576558 0,-5.841174 4.470194,-10.576569 9.984243,-10.576569 z m 0,5.288283 c -2.757151,0 -4.992121,2.367642 -4.992121,5.288285 0,2.920635 2.235049,5.28828 4.992121,5.28828 2.757072,0 4.992122,-2.367645 4.992122,-5.28828 0,-2.920643 -2.23505,-5.288285 -4.992122,-5.288285 z"
       id="path5" />
  </g>
</svg>
