<?xml version="1.0" encoding="UTF-8" standalone="no"?>
<svg
   width="64"
   height="64"
   version="1.1"
   id="svg73"
   sodipodi:docname="partitionmanager.svg"
   inkscape:version="1.4.2 (ebf0e940d0, 2025-05-08)"
   xmlns:inkscape="http://www.inkscape.org/namespaces/inkscape"
   xmlns:sodipodi="http://sodipodi.sourceforge.net/DTD/sodipodi-0.dtd"
   xmlns="http://www.w3.org/2000/svg"
   xmlns:svg="http://www.w3.org/2000/svg"
   xmlns:rdf="http://www.w3.org/1999/02/22-rdf-syntax-ns#"
   xmlns:cc="http://creativecommons.org/ns#"
   xmlns:dc="http://purl.org/dc/elements/1.1/">
  <metadata
     id="metadata77">
    <rdf:RDF>
      <cc:Work
         rdf:about="">
        <dc:format>image/svg+xml</dc:format>
        <dc:type
           rdf:resource="http://purl.org/dc/dcmitype/StillImage" />
      </cc:Work>
    </rdf:RDF>
  </metadata>
  <sodipodi:namedview
     pagecolor="#f5f7fa"
     bordercolor="#666666"
     borderopacity="1"
     objecttolerance="10"
     gridtolerance="10"
     guidetolerance="10"
     inkscape:pageopacity="0"
     inkscape:pageshadow="2"
     inkscape:window-width="1377"
     inkscape:window-height="886"
     id="namedview75"
     showgrid="false"
     inkscape:zoom="6.2890624"
     inkscape:cx="28.700622"
     inkscape:cy="17.570187"
     inkscape:window-x="264"
     inkscape:window-y="102"
     inkscape:window-maximized="0"
     inkscape:current-layer="g877"
     inkscape:document-rotation="0"
     inkscape:pagecheckerboard="0"
     inkscape:showpageshadow="2"
     inkscape:deskcolor="#d1d1d1" />
  <defs
     id="defs29" />
  <circle
     cx="32.516094"
     cy="31.877844"
     r="0"
     fill="url(#b)"
     stroke-width="1.5715"
     id="circle41"
     style="fill:url(#b)" />
  <g
     aria-label="GZ"
     transform="matrix(1.2212657,0,0,0.81882264,0.4960938,-0.1661539)"
     id="text93"
     style="font-weight:bold;font-size:11.5263px;line-height:1.25;font-family:sans-serif;-inkscape-font-specification:'sans-serif Bold';fill:#f2f2f2;stroke-width:0.288159" />
  <g
     id="g877"
     transform="matrix(1.1,0,0,1.1,-3.1845928,-3.2065454)">
    <rect
       x="8.3496294"
       y="8.369586"
       width="47.272728"
       height="47.272728"
       rx="9.8825235"
       ry="9.6485243"
       fill="url(#linearGradient862)"
       stroke-width="3.0541"
       id="rect35-7-3"
       style="fill:#414141;fill-opacity:1;stroke:#dfdfdf;stroke-width:2.04545;stroke-dasharray:none;stroke-opacity:1" />
    <path
       d="m 17.918907,16.89574 v 0.0076 6.044012 6.044008 6.044011 2.001982 4.042038 0.997182 1.004792 a 3.7540573,4.0344166 0 0 0 3.746977,4.026807 H 20.68133 l 0.06374,0.0077 h 2.812001 5.624004 5.623999 5.624015 5.623994 v -6.043991 h -5.623993 -5.623999 -3.5699 l 3.095326,-1.918216 4.866105,-3.02217 4.87319,-3.022004 -2.812,-5.22952 -4.873191,3.022008 -4.866101,3.022008 -3.081165,1.910639 1.777868,-3.311268 2.811999,-5.229515 2.812003,-5.23713 -4.887357,-3.029618 -2.812004,5.237128 -2.812,5.229516 -1.784946,3.326489 v -3.836351 -6.044011 -6.044013 z m 3.746977,24.168433 c 0.495818,0 0.970395,0.213082 1.324545,0.586132 0.354156,0.373036 0.545398,0.89061 0.545398,1.423464 0,0.53284 -0.198327,1.042854 -0.545398,1.423463 -0.347076,0.380583 -0.828727,0.586132 -1.324545,0.586132 -0.495817,0 -0.97039,-0.213173 -1.324547,-0.586132 -0.354155,-0.373037 -0.545397,-0.890623 -0.545397,-1.423463 0,-0.532854 0.198326,-1.042851 0.545397,-1.423464 0.347071,-0.380547 0.82873,-0.586132 1.324547,-0.586132 z"
       fill="#bebebe"
       id="path2-3"
       style="fill:#dfdfdf;fill-opacity:1;stroke:none;stroke-width:0.546177;stroke-dasharray:none;stroke-opacity:0.6" />
  </g>
</svg>
