<?xml version="1.0" encoding="UTF-8" standalone="no"?>
<svg
   width="64"
   height="64"
   version="1.1"
   id="svg73"
   sodipodi:docname="audacious.svg"
   inkscape:version="1.4.2 (ebf0e940d0, 2025-05-08)"
   xmlns:inkscape="http://www.inkscape.org/namespaces/inkscape"
   xmlns:sodipodi="http://sodipodi.sourceforge.net/DTD/sodipodi-0.dtd"
   xmlns="http://www.w3.org/2000/svg"
   xmlns:svg="http://www.w3.org/2000/svg"
   xmlns:rdf="http://www.w3.org/1999/02/22-rdf-syntax-ns#"
   xmlns:cc="http://creativecommons.org/ns#"
   xmlns:dc="http://purl.org/dc/elements/1.1/">
  <metadata
     id="metadata77">
    <rdf:RDF>
      <cc:Work
         rdf:about="">
        <dc:format>image/svg+xml</dc:format>
        <dc:type
           rdf:resource="http://purl.org/dc/dcmitype/StillImage" />
      </cc:Work>
    </rdf:RDF>
  </metadata>
  <sodipodi:namedview
     pagecolor="#f5f7fa"
     bordercolor="#666666"
     borderopacity="1"
     objecttolerance="10"
     gridtolerance="10"
     guidetolerance="10"
     inkscape:pageopacity="0"
     inkscape:pageshadow="2"
     inkscape:window-width="1377"
     inkscape:window-height="886"
     id="namedview75"
     showgrid="false"
     inkscape:zoom="6.2890624"
     inkscape:cx="47.145342"
     inkscape:cy="39.513044"
     inkscape:window-x="0"
     inkscape:window-y="57"
     inkscape:window-maximized="0"
     inkscape:current-layer="g877"
     inkscape:document-rotation="0"
     inkscape:pagecheckerboard="0"
     inkscape:showpageshadow="2"
     inkscape:deskcolor="#d1d1d1" />
  <defs
     id="defs29" />
  <circle
     cx="32.516094"
     cy="31.877844"
     r="0"
     fill="url(#b)"
     stroke-width="1.5715"
     id="circle41"
     style="fill:url(#b)" />
  <g
     aria-label="GZ"
     transform="matrix(1.2212657,0,0,0.81882264,0.4960938,-0.1661539)"
     id="text93"
     style="font-weight:bold;font-size:11.5263px;line-height:1.25;font-family:sans-serif;-inkscape-font-specification:'sans-serif Bold';fill:#f2f2f2;stroke-width:0.288159" />
  <g
     id="g877"
     transform="matrix(1.1,0,0,1.1,-3.1845928,-3.2065454)">
    <rect
       x="8.3496294"
       y="8.369586"
       width="47.272728"
       height="47.272728"
       rx="9.8825235"
       ry="9.6485243"
       fill="url(#linearGradient862)"
       stroke-width="3.0541"
       id="rect35-7-3"
       style="fill:#414141;fill-opacity:1;stroke:#dfdfdf;stroke-width:2.04545;stroke-dasharray:none;stroke-opacity:1" />
    <path
       id="path7250"
       style="fill:#dfdfdf;fill-opacity:1;stroke:none;stroke-width:0.45;stroke-dasharray:none;stroke-opacity:0.6"
       d="m 32.271204,21.629584 c -3.272613,-0.03988 -6.555299,0.672757 -9.518491,2.111497 -2.162754,1.050095 -4.168562,2.478002 -5.815787,4.140412 l -0.443512,0.44747 1.723919,1.563768 1.723656,1.563772 0.525565,-0.490211 c 0.288973,-0.269616 0.624766,-0.575497 0.746398,-0.679649 5.039678,-4.315328 12.216315,-5.199281 18.162359,-2.237085 1.535121,0.764768 2.764885,1.63112 4.107699,2.893251 l 0.550367,0.517124 1.722598,-1.564299 1.722597,-1.56456 -0.489675,-0.493376 c -2.447194,-2.465557 -5.489023,-4.281135 -8.909293,-5.317925 -1.884906,-0.571373 -3.844831,-0.866262 -5.8084,-0.890189 z m -0.286792,5.426096 c -0.752042,4.7e-5 -1.50392,0.02811 -1.918104,0.08364 -3.533206,0.473915 -6.561637,1.927483 -9.130911,4.382617 -0.231269,0.220992 -0.414667,0.418507 -0.407632,0.439027 0.007,0.02054 0.783727,0.736342 1.726029,1.590681 l 1.713103,1.553215 0.340878,-0.330062 c 1.645378,-1.593086 3.914451,-2.666246 6.291222,-2.975832 0.699159,-0.09102 2.07491,-0.09098 2.771885,3.08e-4 2.377262,0.311227 4.383256,1.240185 6.191757,2.867393 l 0.462243,0.415808 0.09945,-0.08918 c 0.486867,-0.435101 3.109425,-2.808697 3.213283,-2.908291 l 0.134026,-0.12849 -0.179174,-0.186793 c -0.69987,-0.729797 -1.945852,-1.725462 -2.933042,-2.34395 -0.704996,-0.44169 -2.005181,-1.086999 -2.762907,-1.37143 -1.125601,-0.422524 -2.435132,-0.747049 -3.692946,-0.915256 -0.415046,-0.05551 -1.167115,-0.08342 -1.919161,-0.08337 z m -0.0992,5.379924 c -0.177761,0.0019 -0.355763,0.0081 -0.533747,0.01927 -2.462119,0.154118 -4.704964,1.129204 -6.557437,2.850239 l -0.306318,0.284417 1.728404,1.566935 c 0.950563,0.861837 1.735011,1.567838 1.74318,1.568788 0.0081,9.9e-4 0.129881,-0.09738 0.270696,-0.218726 2.116327,-1.823487 5.299984,-1.851582 7.431266,-0.06543 l 0.345896,0.289943 0.19365,-0.171226 c 0.106521,-0.09417 0.889423,-0.80117 1.739744,-1.570903 l 1.546105,-1.399384 -0.353542,-0.331116 c -1.9607,-1.835332 -4.581542,-2.850012 -7.247897,-2.822799 z m -0.04116,5.405784 c -0.289304,0.0065 -0.57551,0.03782 -0.852199,0.0963 -0.879292,0.185977 -1.760743,0.624823 -2.332063,1.16142 l -0.142211,0.133777 1.735528,1.575381 1.735529,1.575637 1.025275,-0.93214 c 0.563861,-0.512595 1.344268,-1.218573 1.734209,-1.568781 l 0.708931,-0.636626 -0.212389,-0.199213 C 34.408397,38.262659 33.097691,37.81445 31.844046,37.841397 Z" />
  </g>
</svg>
