<?xml version="1.0" encoding="UTF-8" standalone="no"?>
<svg
   width="64"
   height="64"
   version="1.1"
   id="svg73"
   sodipodi:docname="audacious.svg"
   inkscape:version="1.4.2 (ebf0e940d0, 2025-05-08)"
   xmlns:inkscape="http://www.inkscape.org/namespaces/inkscape"
   xmlns:sodipodi="http://sodipodi.sourceforge.net/DTD/sodipodi-0.dtd"
   xmlns="http://www.w3.org/2000/svg"
   xmlns:svg="http://www.w3.org/2000/svg"
   xmlns:rdf="http://www.w3.org/1999/02/22-rdf-syntax-ns#"
   xmlns:cc="http://creativecommons.org/ns#"
   xmlns:dc="http://purl.org/dc/elements/1.1/">
  <metadata
     id="metadata77">
    <rdf:RDF>
      <cc:Work
         rdf:about="">
        <dc:format>image/svg+xml</dc:format>
        <dc:type
           rdf:resource="http://purl.org/dc/dcmitype/StillImage" />
      </cc:Work>
    </rdf:RDF>
  </metadata>
  <sodipodi:namedview
     pagecolor="#f5f7fa"
     bordercolor="#666666"
     borderopacity="1"
     objecttolerance="10"
     gridtolerance="10"
     guidetolerance="10"
     inkscape:pageopacity="0"
     inkscape:pageshadow="2"
     inkscape:window-width="1377"
     inkscape:window-height="886"
     id="namedview75"
     showgrid="false"
     inkscape:zoom="6.2890624"
     inkscape:cx="47.940373"
     inkscape:cy="42.534162"
     inkscape:window-x="20"
     inkscape:window-y="75"
     inkscape:window-maximized="0"
     inkscape:current-layer="g877"
     inkscape:document-rotation="0"
     inkscape:pagecheckerboard="0"
     inkscape:showpageshadow="2"
     inkscape:deskcolor="#d1d1d1" />
  <defs
     id="defs29" />
  <circle
     cx="32.516094"
     cy="31.877844"
     r="0"
     fill="url(#b)"
     stroke-width="1.5715"
     id="circle41"
     style="fill:url(#b)" />
  <g
     aria-label="GZ"
     transform="matrix(1.2212657,0,0,0.81882264,0.4960938,-0.1661539)"
     id="text93"
     style="font-weight:bold;font-size:11.5263px;line-height:1.25;font-family:sans-serif;-inkscape-font-specification:'sans-serif Bold';fill:#f2f2f2;stroke-width:0.288159" />
  <g
     id="g877"
     transform="matrix(1.1,0,0,1.1,-3.1845928,-3.2065454)">
    <rect
       x="8.3496294"
       y="8.369586"
       width="47.272728"
       height="47.272728"
       rx="9.8825235"
       ry="9.6485243"
       fill="url(#linearGradient862)"
       stroke-width="3.0541"
       id="rect35-7-3"
       style="fill:#414141;fill-opacity:1;stroke:#dfdfdf;stroke-width:2.04545;stroke-dasharray:none;stroke-opacity:1" />
    <path
       d="m 40.750133,42.454812 c -1.484401,0 -2.731344,-0.427851 -3.739776,-1.284591 -0.9896,-0.856757 -1.484401,-1.988627 -1.484401,-3.397708 0,-1.522058 0.589995,-2.711462 1.769985,-3.568207 1.179995,-0.875576 2.636152,-1.313889 4.367426,-1.313889 1.541933,0 2.807694,0.28558 3.797297,0.856746 v -0.399606 c 0,-1.02726 -0.352523,-1.846348 -1.056543,-2.455172 -0.704019,-0.627652 -1.570187,-0.942526 -2.597435,-0.942526 -0.761562,0 -1.456164,0.180974 -2.083818,0.54292 -0.609867,0.361946 -1.028306,0.856748 -1.256357,1.484402 l -2.39868,-1.027259 c 0.32429,-0.837918 0.961356,-1.608887 1.9133,-2.312903 0.950893,-0.722849 2.20725,-1.084795 3.768016,-1.084795 1.78881,0 3.274255,0.523045 4.45424,1.57018 1.179992,1.047135 1.769988,2.52212 1.769988,4.424956 v 8.450312 h -2.512711 v -1.941547 h -0.114006 c -1.047129,1.599472 -2.578599,2.398687 -4.596508,2.398687 z m -6.36546,-0.45714 h -2.912311 l -1.969788,-5.538001 h -8.59362 l -1.99803,5.538001 h -2.912313 l 7.70863,-20.440583 h 2.968802 z m 6.793304,-1.941547 c 1.0848,0 2.064982,-0.399614 2.940557,-1.198818 0.894409,-0.81804 1.34213,-1.779394 1.34213,-2.88302 -0.742719,-0.608822 -1.855757,-0.913236 -3.340154,-0.913236 -1.275186,0 -2.236542,0.275117 -2.883026,0.827456 -0.647531,0.552334 -0.97077,1.198817 -0.97077,1.941539 0,0.685194 0.295015,1.227065 0.884994,1.626675 0.589992,0.399618 1.265765,0.599404 2.026269,0.599404 z m -15.9288,-15.272898 h -0.114025 l -3.340163,9.221274 h 6.794348 z"
       fill="#ffffff"
       fill-opacity="0.85"
       fill-rule="nonzero"
       id="path3-3"
       style="fill:#dfdfdf;fill-opacity:1;stroke:none;stroke-width:0.5;stroke-dasharray:none;stroke-opacity:0.6" />
  </g>
</svg>
