<?xml version="1.0" encoding="UTF-8" standalone="no"?>
<svg
   width="64"
   height="64"
   version="1.1"
   id="svg73"
   sodipodi:docname="audacious.svg"
   inkscape:version="1.4.2 (ebf0e940d0, 2025-05-08)"
   xmlns:inkscape="http://www.inkscape.org/namespaces/inkscape"
   xmlns:sodipodi="http://sodipodi.sourceforge.net/DTD/sodipodi-0.dtd"
   xmlns="http://www.w3.org/2000/svg"
   xmlns:svg="http://www.w3.org/2000/svg"
   xmlns:rdf="http://www.w3.org/1999/02/22-rdf-syntax-ns#"
   xmlns:cc="http://creativecommons.org/ns#"
   xmlns:dc="http://purl.org/dc/elements/1.1/">
  <metadata
     id="metadata77">
    <rdf:RDF>
      <cc:Work
         rdf:about="">
        <dc:format>image/svg+xml</dc:format>
        <dc:type
           rdf:resource="http://purl.org/dc/dcmitype/StillImage" />
      </cc:Work>
    </rdf:RDF>
  </metadata>
  <sodipodi:namedview
     pagecolor="#f5f7fa"
     bordercolor="#666666"
     borderopacity="1"
     objecttolerance="10"
     gridtolerance="10"
     guidetolerance="10"
     inkscape:pageopacity="0"
     inkscape:pageshadow="2"
     inkscape:window-width="1377"
     inkscape:window-height="886"
     id="namedview75"
     showgrid="false"
     inkscape:zoom="6.2890624"
     inkscape:cx="47.622361"
     inkscape:cy="45.396274"
     inkscape:window-x="1"
     inkscape:window-y="75"
     inkscape:window-maximized="0"
     inkscape:current-layer="g877"
     inkscape:document-rotation="0"
     inkscape:pagecheckerboard="0"
     inkscape:showpageshadow="2"
     inkscape:deskcolor="#d1d1d1" />
  <defs
     id="defs29" />
  <circle
     cx="32.516094"
     cy="31.877844"
     r="0"
     fill="url(#b)"
     stroke-width="1.5715"
     id="circle41"
     style="fill:url(#b)" />
  <g
     aria-label="GZ"
     transform="matrix(1.2212657,0,0,0.81882264,0.4960938,-0.1661539)"
     id="text93"
     style="font-weight:bold;font-size:11.5263px;line-height:1.25;font-family:sans-serif;-inkscape-font-specification:'sans-serif Bold';fill:#f2f2f2;stroke-width:0.288159" />
  <g
     id="g877"
     transform="matrix(1.1,0,0,1.1,-3.1845928,-3.2065454)">
    <rect
       x="8.3496294"
       y="8.369586"
       width="47.272728"
       height="47.272728"
       rx="9.8825235"
       ry="9.6485243"
       fill="url(#linearGradient862)"
       stroke-width="3.0541"
       id="rect35-7-3"
       style="fill:#414141;fill-opacity:1;stroke:#dfdfdf;stroke-width:2.04545;stroke-dasharray:none;stroke-opacity:1" />
    <path
       id="path17"
       style="fill:#dfdfdf;fill-opacity:1;stroke:none;stroke-width:0.464151;stroke-dasharray:none;stroke-dashoffset:2.2;stroke-opacity:0.6"
       d="m 31.451066,15.911423 c -0.214455,0.02877 -0.430311,0.209596 -0.580203,0.499465 -0.143277,0.277063 -0.167115,1.247637 -0.167115,6.896727 0,3.616613 -0.03708,6.57625 -0.08264,6.575639 -0.04555,-6.1e-4 -1.784149,-1.436752 -3.862384,-3.190181 -2.078235,-1.753428 -3.860391,-3.218821 -3.961909,-3.257777 -0.101524,-0.03895 -0.304661,0.0077 -0.450644,0.103267 -0.44943,0.294478 -0.603919,0.976638 -0.347371,1.539697 0.0714,0.156677 1.873038,1.755444 4.003219,3.552574 2.130172,1.797133 3.884108,3.324564 3.898064,3.392973 0.01394,0.06839 -1.689571,1.514816 -3.787283,3.214591 -2.097713,1.699776 -3.89169,3.175755 -3.986319,3.280316 -0.282478,0.312107 -0.304641,1.079995 -0.04319,1.496501 0.427601,0.681197 0.485176,0.648238 4.645385,-2.732023 2.092894,-1.700513 3.843815,-3.092537 3.890554,-3.092537 0.04675,0 0.08449,2.928763 0.08449,6.508041 0,4.253539 0.03911,6.614695 0.114535,6.817876 0.06347,0.170983 0.198582,0.372849 0.29855,0.44876 0.09997,0.07594 0.288182,0.138925 0.418723,0.138925 0.245046,0 9.673,-7.123268 10.238995,-7.736046 0.406253,-0.439851 0.433522,-1.331896 0.05447,-1.77442 -0.136317,-0.15916 -2.062488,-1.670171 -4.279233,-3.357268 -2.216753,-1.687105 -4.069187,-3.100733 -4.117764,-3.143243 -0.04856,-0.04252 1.777468,-1.508295 4.059549,-3.2559 2.282075,-1.747609 4.247591,-3.30252 4.367489,-3.454935 0.250466,-0.318391 0.292512,-1.150408 0.07697,-1.535947 -0.139571,-0.249632 -9.921241,-7.780598 -10.274687,-7.910673 -0.06882,-0.02533 -0.138817,-0.03399 -0.210305,-0.02435 z m 0.972639,3.261534 c 0.113193,0 7.003752,5.312942 7.003752,5.400215 0,0.0467 -1.549395,1.274201 -3.443669,2.726389 -1.894273,1.452199 -3.484624,2.655456 -3.533797,2.675702 -0.04916,0.02025 -0.09012,-2.400468 -0.09012,-5.381437 0,-2.980967 0.02919,-5.420869 0.06384,-5.420869 z m 0.01881,14.908798 c 0.159843,0.003 6.928642,5.260447 6.928642,5.381435 0,0.06724 -1.559031,1.318722 -3.466196,2.780853 -1.907164,1.462121 -3.48453,2.65692 -3.505631,2.65692 -0.0211,0 -0.03943,-2.433702 -0.03943,-5.409604 0,-2.975907 0.03708,-5.4105 0.08264,-5.409604 z" />
  </g>
</svg>
