<?xml version="1.0" encoding="UTF-8" standalone="no"?>
<svg
   width="64"
   height="64"
   version="1.1"
   id="svg73"
   sodipodi:docname="accessories-character-map.svg"
   inkscape:version="1.3.2 (091e20ef0f, 2023-11-25)"
   xmlns:inkscape="http://www.inkscape.org/namespaces/inkscape"
   xmlns:sodipodi="http://sodipodi.sourceforge.net/DTD/sodipodi-0.dtd"
   xmlns="http://www.w3.org/2000/svg"
   xmlns:svg="http://www.w3.org/2000/svg"
   xmlns:rdf="http://www.w3.org/1999/02/22-rdf-syntax-ns#"
   xmlns:cc="http://creativecommons.org/ns#"
   xmlns:dc="http://purl.org/dc/elements/1.1/">
  <metadata
     id="metadata77">
    <rdf:RDF>
      <cc:Work
         rdf:about="">
        <dc:format>image/svg+xml</dc:format>
        <dc:type
           rdf:resource="http://purl.org/dc/dcmitype/StillImage" />
      </cc:Work>
    </rdf:RDF>
  </metadata>
  <sodipodi:namedview
     pagecolor="#f5f7fa"
     bordercolor="#666666"
     borderopacity="1"
     objecttolerance="10"
     gridtolerance="10"
     guidetolerance="10"
     inkscape:pageopacity="0"
     inkscape:pageshadow="2"
     inkscape:window-width="1377"
     inkscape:window-height="886"
     id="namedview75"
     showgrid="false"
     inkscape:zoom="4.4470387"
     inkscape:cx="47.784608"
     inkscape:cy="14.054296"
     inkscape:window-x="181"
     inkscape:window-y="77"
     inkscape:window-maximized="0"
     inkscape:current-layer="g877"
     inkscape:document-rotation="0"
     inkscape:pagecheckerboard="0"
     inkscape:showpageshadow="2"
     inkscape:deskcolor="#d1d1d1" />
  <defs
     id="defs29">
    <linearGradient
       id="b"
       x1="399.57"
       x2="399.57"
       y1="545.8"
       y2="517.8"
       gradientTransform="matrix(2.1429,0,0,2.1429,-825.86391,-1107.6662)"
       gradientUnits="userSpaceOnUse">
      <stop
         stop-color="#3889e9"
         offset="0"
         id="stop2" />
      <stop
         stop-color="#5ea5fb"
         offset="1"
         id="stop4" />
    </linearGradient>
  </defs>
  <circle
     cx="32.516094"
     cy="31.877844"
     r="0"
     fill="url(#b)"
     stroke-width="1.5715"
     id="circle41"
     style="fill:url(#b)" />
  <g
     aria-label="GZ"
     transform="matrix(1.2212657,0,0,0.81882264,0.4960938,-0.1661539)"
     id="text93"
     style="font-weight:bold;font-size:11.5263px;line-height:1.25;font-family:sans-serif;-inkscape-font-specification:'sans-serif Bold';fill:#f2f2f2;stroke-width:0.288159" />
  <g
     id="g877"
     transform="matrix(1.1,0,0,1.1,-3.1845928,-3.2065454)">
    <rect
       x="6.3010068"
       y="5.4939413"
       width="51.635597"
       height="53.148327"
       rx="10.980581"
       ry="10.720582"
       fill="url(#linearGradient862)"
       stroke-width="3.0541"
       id="rect35-7-3"
       style="fill:#414141;fill-opacity:1;stroke:#dfdfdf;stroke-width:2.27272727;stroke-dasharray:none;stroke-opacity:1" />
    <path
       d="m 40.250701,26.964683 6.817821,-6.817822 -2.489783,-2.489784 -6.817824,6.81782 z M 50.65195,20.146861 q 0,0.628262 -0.41887,1.047105 L 20.309147,51.117914 q -0.418841,0.418871 -1.047103,0.418871 -0.628266,0 -1.047108,-0.418871 l -4.607265,-4.607261 q -0.418842,-0.418869 -0.418842,-1.047101 0,-0.628266 0.418842,-1.047107 L 43.531636,14.49249 q 0.418869,-0.418842 1.047103,-0.418842 0.628264,0 1.047106,0.418842 l 4.607267,4.607261 q 0.418869,0.418848 0.418869,1.04711 z m -31.436439,-4.421114 2.280362,0.69807 -2.280362,0.698075 -0.69807,2.280357 -0.698071,-2.280357 -2.280361,-0.698075 2.280361,-0.69807 0.698071,-2.280363 z m 8.144153,3.769583 4.560727,1.396138 -4.560727,1.396142 -1.396138,4.560727 -1.39614,-4.560727 -4.560729,-1.396142 4.560729,-1.396138 1.39614,-4.560729 z m 21.640188,11.122587 2.280357,0.698071 -2.280357,0.698071 -0.698076,2.280362 -0.698067,-2.280362 -2.280357,-0.698071 2.280357,-0.698071 0.698067,-2.280363 z m -14.892169,-14.89217 2.280359,0.69807 -2.280359,0.698075 -0.698074,2.280357 -0.698072,-2.280357 -2.280361,-0.698075 2.280361,-0.69807 0.698072,-2.280363 z"
       id="path1-3-3"
       style="overflow:hidden;fill:#dfdfdf;fill-opacity:1;stroke-width:0.0407208" />
  </g>
</svg>
