<?xml version="1.0" encoding="UTF-8" standalone="no"?>
<svg
   width="64"
   height="64"
   version="1.1"
   id="svg73"
   sodipodi:docname="Logo.svg"
   inkscape:version="1.3.2 (091e20ef0f, 2023-11-25)"
   xmlns:inkscape="http://www.inkscape.org/namespaces/inkscape"
   xmlns:sodipodi="http://sodipodi.sourceforge.net/DTD/sodipodi-0.dtd"
   xmlns="http://www.w3.org/2000/svg"
   xmlns:svg="http://www.w3.org/2000/svg"
   xmlns:rdf="http://www.w3.org/1999/02/22-rdf-syntax-ns#"
   xmlns:cc="http://creativecommons.org/ns#"
   xmlns:dc="http://purl.org/dc/elements/1.1/">
  <metadata
     id="metadata77">
    <rdf:RDF>
      <cc:Work
         rdf:about="">
        <dc:format>image/svg+xml</dc:format>
        <dc:type
           rdf:resource="http://purl.org/dc/dcmitype/StillImage" />
      </cc:Work>
    </rdf:RDF>
  </metadata>
  <sodipodi:namedview
     pagecolor="#f5f7fa"
     bordercolor="#666666"
     borderopacity="1"
     objecttolerance="10"
     gridtolerance="10"
     guidetolerance="10"
     inkscape:pageopacity="0"
     inkscape:pageshadow="2"
     inkscape:window-width="1377"
     inkscape:window-height="886"
     id="namedview75"
     showgrid="false"
     inkscape:zoom="6.2890624"
     inkscape:cx="4.2931678"
     inkscape:cy="12.004969"
     inkscape:window-x="181"
     inkscape:window-y="77"
     inkscape:window-maximized="0"
     inkscape:current-layer="g877"
     inkscape:document-rotation="0"
     inkscape:pagecheckerboard="0"
     inkscape:showpageshadow="2"
     inkscape:deskcolor="#d1d1d1" />
  <defs
     id="defs29">
    <linearGradient
       id="b"
       x1="399.57"
       x2="399.57"
       y1="545.8"
       y2="517.8"
       gradientTransform="matrix(2.1429,0,0,2.1429,-825.86391,-1107.6662)"
       gradientUnits="userSpaceOnUse">
      <stop
         stop-color="#3889e9"
         offset="0"
         id="stop2" />
      <stop
         stop-color="#5ea5fb"
         offset="1"
         id="stop4" />
    </linearGradient>
    <linearGradient
       id="d"
       x2="1"
       gradientTransform="matrix(14.905727,-4.7106182,4.7106182,14.905727,322.04962,998.26962)"
       gradientUnits="userSpaceOnUse">
      <stop
         stop-color="#fafafa"
         offset="0"
         id="stop7" />
      <stop
         stop-color="#aaa"
         offset="1"
         id="stop8" />
    </linearGradient>
    <linearGradient
       id="e"
       x2="1"
       gradientTransform="matrix(21.439909,0,0,21.439909,26.63554,1159.7788)"
       gradientUnits="userSpaceOnUse">
      <stop
         stop-color="#f0f0f0"
         offset="0"
         id="stop9" />
      <stop
         stop-color="#b7f1ff"
         offset="1"
         id="stop10" />
    </linearGradient>
    <linearGradient
       id="b-2"
       x2="1"
       gradientTransform="matrix(10.719636,14.238636,-14.238636,10.719636,-67.544643,95.73886)"
       gradientUnits="userSpaceOnUse">
      <stop
         stop-color="#3077e1"
         offset="0"
         id="stop3" />
      <stop
         stop-color="#5df"
         offset="1"
         id="stop4-7" />
    </linearGradient>
    <linearGradient
       id="c"
       x2="1"
       gradientTransform="matrix(-0.30023273,-19.715,19.715,-0.30023273,61.587812,32.183496)"
       gradientUnits="userSpaceOnUse">
      <stop
         stop-color="#da9517"
         offset="0"
         id="stop5" />
      <stop
         stop-color="#ffee58"
         offset="1"
         id="stop6" />
    </linearGradient>
  </defs>
  <circle
     cx="32.516094"
     cy="31.877844"
     r="0"
     fill="url(#b)"
     stroke-width="1.5715"
     id="circle41"
     style="fill:url(#b)" />
  <g
     aria-label="GZ"
     transform="matrix(1.2212657,0,0,0.81882264,0.4960938,-0.1661539)"
     id="text93"
     style="font-weight:bold;font-size:11.5263px;line-height:1.25;font-family:sans-serif;-inkscape-font-specification:'sans-serif Bold';fill:#f2f2f2;stroke-width:0.288159" />
  <g
     id="g877"
     transform="matrix(1.1,0,0,1.1,-3.1845928,-3.2065454)">
    <rect
       x="6.3010068"
       y="5.4939413"
       width="51.635597"
       height="53.148327"
       rx="10.980581"
       ry="10.720582"
       fill="url(#linearGradient862)"
       stroke-width="3.0541"
       id="rect35-7-3"
       style="fill:#414141;fill-opacity:1;stroke:#dfdfdf;stroke-width:2.27272727;stroke-dasharray:none;stroke-opacity:1" />
    <path
       id="path8"
       style="fill:#dfdfdf;stroke-width:0.162398;fill-opacity:1"
       d="m 32.206165,11.814235 c -1.238072,-0.01219 -2.487649,0.08571 -3.739347,0.298295 -7.993254,1.357593 -14.548997,7.450456 -16.505682,15.342686 -0.407633,1.644176 -0.533283,2.570046 -0.589489,4.305753 -0.0561,1.732395 0.04535,3.087233 0.349787,4.655539 1.58026,8.140678 8.038487,14.652276 16.147018,16.278409 0.707596,0.141906 1.147753,0.206857 2.476917,0.365767 0.600892,0.07185 3.732719,-0.02966 4.506393,-0.145596 6.328675,-0.948306 11.786936,-4.618624 14.969815,-10.067472 1.864721,-3.192261 2.793375,-6.655178 2.791193,-10.403054 -0.0019,-3.29434 -0.650222,-6.09561 -2.086293,-9.012784 -1.085979,-2.206011 -2.278272,-3.883385 -3.948864,-5.553977 -3.883598,-3.8836 -9.006474,-6.010755 -14.371448,-6.063566 z m 1.752486,4.176137 0.365767,0.05149 c 6.192321,0.875183 11.400859,5.204881 13.380682,11.123934 0.242658,0.725479 0.605923,2.262734 0.701349,2.963424 l 0.04972,0.365767 -1.970881,0.98544 -1.970881,0.983664 1.976207,0.988992 1.976208,0.987216 -0.05505,0.342685 c -0.392115,2.477207 -1.28875,4.866149 -2.535511,6.756036 -2.482577,3.76319 -6.247534,6.296791 -10.672941,7.18395 -1.332911,0.267209 -1.10043,0.455897 -2.230112,-1.805753 l -0.98189,-1.96733 -0.98544,1.96733 -0.98544,1.969104 -0.26456,-0.0054 c -0.457096,-0.0091 -2.062422,-0.373499 -3.00781,-0.68352 C 25.686677,47.849342 24.17182,47.14094 23.223565,46.551452 19.579772,44.286262 16.905295,40.599182 15.888693,36.43604 15.757394,35.898349 15.626048,35.230316 15.5975,34.951664 l -0.05149,-0.506036 1.979759,-0.990767 1.979758,-0.990768 -1.969106,-0.983664 c -2.283669,-1.140683 -2.086087,-0.869183 -1.768467,-2.437856 1.172424,-5.790395 5.502695,-10.590428 11.166548,-12.37571 0.770521,-0.242872 1.975413,-0.520586 2.698864,-0.621449 l 0.381747,-0.05327 0.987217,1.974432 0.988991,1.972656 0.983665,-1.974431 z m 7.075639,7.425426 c -0.03196,-0.03196 -11.387894,6.212054 -11.576705,6.365412 -0.01987,0.01614 0.214289,0.281173 0.520242,0.589489 l 0.555753,0.561079 0.250354,-0.18821 c 0.833413,-0.621732 2.224938,-0.425477 2.856889,0.403054 0.478582,0.627451 0.575209,1.492587 0.245029,2.201704 -0.106622,0.228989 -0.23916,0.442598 -0.292969,0.475853 -0.06584,0.04069 0.08361,0.244085 0.456321,0.619673 0.430387,0.433709 0.574871,0.534912 0.646308,0.456321 0.170274,-0.187336 6.381878,-11.441275 6.338778,-11.484375 z m -11.704546,6.471946 -3.206676,5.770597 c -1.763846,3.173913 -3.220116,5.808869 -3.236861,5.855823 -0.01675,0.04691 0.0045,0.07179 0.04795,0.05505 0.04351,-0.01675 2.678051,-1.474595 5.854049,-3.238637 l 5.774147,-3.206675 -0.553977,-0.557529 -0.555753,-0.555753 -0.314276,0.207742 c -0.173579,0.114154 -0.494836,0.247974 -0.713778,0.29652 -1.520608,0.337147 -2.887295,-1.125355 -2.45206,-2.622515 0.07005,-0.240975 0.20517,-0.537607 0.301848,-0.660511 l 0.17578,-0.223721 -0.559304,-0.56108 z" />
    <g
       id="g1"
       transform="matrix(1.21,0,0,1.21,2.0148825,-2.4743588)" />
  </g>
</svg>
