<?xml version="1.0" encoding="UTF-8" standalone="no"?>
<svg
   width="64"
   height="64"
   version="1.1"
   id="svg73"
   sodipodi:docname="Logo.svg"
   inkscape:version="1.3.2 (091e20ef0f, 2023-11-25)"
   xmlns:inkscape="http://www.inkscape.org/namespaces/inkscape"
   xmlns:sodipodi="http://sodipodi.sourceforge.net/DTD/sodipodi-0.dtd"
   xmlns="http://www.w3.org/2000/svg"
   xmlns:svg="http://www.w3.org/2000/svg"
   xmlns:rdf="http://www.w3.org/1999/02/22-rdf-syntax-ns#"
   xmlns:cc="http://creativecommons.org/ns#"
   xmlns:dc="http://purl.org/dc/elements/1.1/">
  <metadata
     id="metadata77">
    <rdf:RDF>
      <cc:Work
         rdf:about="">
        <dc:format>image/svg+xml</dc:format>
        <dc:type
           rdf:resource="http://purl.org/dc/dcmitype/StillImage" />
      </cc:Work>
    </rdf:RDF>
  </metadata>
  <sodipodi:namedview
     pagecolor="#f5f7fa"
     bordercolor="#666666"
     borderopacity="1"
     objecttolerance="10"
     gridtolerance="10"
     guidetolerance="10"
     inkscape:pageopacity="0"
     inkscape:pageshadow="2"
     inkscape:window-width="1377"
     inkscape:window-height="886"
     id="namedview75"
     showgrid="false"
     inkscape:zoom="6.2890624"
     inkscape:cx="4.2931678"
     inkscape:cy="12.004969"
     inkscape:window-x="181"
     inkscape:window-y="77"
     inkscape:window-maximized="0"
     inkscape:current-layer="g877"
     inkscape:document-rotation="0"
     inkscape:pagecheckerboard="0"
     inkscape:showpageshadow="2"
     inkscape:deskcolor="#d1d1d1" />
  <defs
     id="defs29">
    <linearGradient
       id="b"
       x1="399.57"
       x2="399.57"
       y1="545.8"
       y2="517.8"
       gradientTransform="matrix(2.1429,0,0,2.1429,-825.86391,-1107.6662)"
       gradientUnits="userSpaceOnUse">
      <stop
         stop-color="#3889e9"
         offset="0"
         id="stop2" />
      <stop
         stop-color="#5ea5fb"
         offset="1"
         id="stop4" />
    </linearGradient>
    <linearGradient
       id="d"
       x2="1"
       gradientTransform="matrix(14.905727,-4.7106182,4.7106182,14.905727,322.04962,998.26962)"
       gradientUnits="userSpaceOnUse">
      <stop
         stop-color="#fafafa"
         offset="0"
         id="stop7" />
      <stop
         stop-color="#aaa"
         offset="1"
         id="stop8" />
    </linearGradient>
    <linearGradient
       id="e"
       x2="1"
       gradientTransform="matrix(21.439909,0,0,21.439909,26.63554,1159.7788)"
       gradientUnits="userSpaceOnUse">
      <stop
         stop-color="#f0f0f0"
         offset="0"
         id="stop9" />
      <stop
         stop-color="#b7f1ff"
         offset="1"
         id="stop10" />
    </linearGradient>
    <linearGradient
       id="b-2"
       x2="1"
       gradientTransform="matrix(10.719636,14.238636,-14.238636,10.719636,-67.544643,95.73886)"
       gradientUnits="userSpaceOnUse">
      <stop
         stop-color="#3077e1"
         offset="0"
         id="stop3" />
      <stop
         stop-color="#5df"
         offset="1"
         id="stop4-7" />
    </linearGradient>
    <linearGradient
       id="c"
       x2="1"
       gradientTransform="matrix(-0.30023273,-19.715,19.715,-0.30023273,61.587812,32.183496)"
       gradientUnits="userSpaceOnUse">
      <stop
         stop-color="#da9517"
         offset="0"
         id="stop5" />
      <stop
         stop-color="#ffee58"
         offset="1"
         id="stop6" />
    </linearGradient>
  </defs>
  <circle
     cx="32.516094"
     cy="31.877844"
     r="0"
     fill="url(#b)"
     stroke-width="1.5715"
     id="circle41"
     style="fill:url(#b)" />
  <g
     aria-label="GZ"
     transform="matrix(1.2212657,0,0,0.81882264,0.4960938,-0.1661539)"
     id="text93"
     style="font-weight:bold;font-size:11.5263px;line-height:1.25;font-family:sans-serif;-inkscape-font-specification:'sans-serif Bold';fill:#f2f2f2;stroke-width:0.288159" />
  <g
     id="g877"
     transform="matrix(1.1,0,0,1.1,-3.1845928,-3.2065454)">
    <rect
       x="6.3010068"
       y="5.4939413"
       width="51.635597"
       height="53.148327"
       rx="10.980581"
       ry="10.720582"
       fill="url(#linearGradient862)"
       stroke-width="3.0541"
       id="rect35-7-3"
       style="fill:#414141;fill-opacity:1;stroke:#dfdfdf;stroke-width:2.27272727;stroke-dasharray:none;stroke-opacity:1" />
    <path
       d="m 32.74068,45.174011 c 0.832634,0 1.543029,0.295851 2.132958,0.885781 0.589931,0.588156 0.88401,1.298554 0.88401,2.132958 0,0.832633 -0.294079,1.54303 -0.88401,2.132962 -0.589929,0.588157 -1.300324,0.884006 -2.132958,0.884006 -0.832634,0 -1.544801,-0.295849 -2.13296,-0.884006 -0.58993,-0.589932 -0.88401,-1.300329 -0.88401,-2.132962 0,-0.834404 0.29408,-1.544802 0.88401,-2.132958 0.588158,-0.58993 1.300326,-0.885781 2.13296,-0.885781 z M 22.182176,40.272102 c -0.944241,0 -1.744987,0.329511 -2.405779,0.990303 -0.659021,0.660792 -0.988533,1.461537 -0.988533,2.404007 0,0.944243 0.329512,1.744988 0.988533,2.40578 0.660792,0.659021 1.461538,0.98853 2.405779,0.98853 0.926528,0 1.723729,-0.329509 2.391608,-0.98853 0.667877,-0.660792 1.00093,-1.461537 1.00093,-2.40578 0,-0.94247 -0.333053,-1.743215 -1.00093,-2.404007 -0.667879,-0.659021 -1.46508,-0.990303 -2.391608,-0.990303 z m 21.117007,0.754685 c -0.722796,0 -1.342844,0.258647 -1.861912,0.777715 -0.519066,0.519066 -0.777714,1.139114 -0.777714,1.86191 0,0.722795 0.258648,1.344613 0.777714,1.861911 0.519068,0.519066 1.139116,0.777716 1.861912,0.777716 0.722797,0 1.344614,-0.25865 1.86191,-0.777716 0.519067,-0.517298 0.777716,-1.139116 0.777716,-1.861911 0,-0.722796 -0.258649,-1.342844 -0.777716,-1.86191 -0.517296,-0.519068 -1.139113,-0.777715 -1.86191,-0.777715 z M 21.42749,33.107909 c 0,-1.038135 -0.370256,-1.925688 -1.107224,-2.664428 -0.738741,-0.73874 -1.628066,-1.107225 -2.66443,-1.107225 -1.03636,0 -1.925686,0.368485 -2.662655,1.107225 -0.738741,0.73874 -1.108997,1.626293 -1.108997,2.664428 0,1.036361 0.370256,1.923915 1.108997,2.662656 0.736969,0.738742 1.626295,1.107225 2.662655,1.107225 1.036364,0 1.925689,-0.368483 2.66443,-1.107225 0.736968,-0.738741 1.107224,-1.626295 1.107224,-2.662656 z m 27.999522,-1.603262 c -0.439345,-0.441121 -0.972587,-0.660793 -1.601491,-0.660793 -0.628904,0 -1.163917,0.219672 -1.603262,0.660793 -0.439348,0.439346 -0.659022,0.974358 -0.659022,1.603262 0,0.628904 0.219674,1.162144 0.659022,1.60149 0.439345,0.441118 0.974358,0.660792 1.603262,0.660792 0.628904,0 1.162146,-0.219674 1.601491,-0.660792 0.441118,-0.439346 0.660792,-0.972586 0.660792,-1.60149 0,-0.628904 -0.219673,-1.163916 -0.660792,-1.603262 z M 22.182176,18.400409 c -1.147972,0 -2.125873,0.403915 -2.935476,1.21352 -0.809605,0.809603 -1.213521,1.787505 -1.213521,2.933704 0,1.147971 0.403916,2.125873 1.213521,2.935477 0.809603,0.809604 1.787504,1.213519 2.935476,1.213519 1.146199,0 2.124101,-0.403915 2.933705,-1.213519 0.809602,-0.809604 1.213519,-1.787506 1.213519,-2.935477 0,-1.146199 -0.403917,-2.124101 -1.213519,-2.933704 -0.809604,-0.809605 -1.787506,-1.21352 -2.933705,-1.21352 z m 21.117007,6.033936 c 0.519067,0 0.963728,-0.184252 1.332214,-0.554497 0.368485,-0.368484 0.554499,-0.813146 0.554499,-1.332215 0,-0.517295 -0.186024,-0.961957 -0.554499,-1.330443 -0.368486,-0.370256 -0.813147,-0.554498 -1.332214,-0.554498 -0.519068,0 -0.961958,0.184254 -1.332215,0.554498 -0.368482,0.368486 -0.552727,0.813148 -0.552727,1.330443 0,0.519069 0.184254,0.963731 0.552727,1.332215 0.370257,0.370257 0.813147,0.554497 1.332215,0.554497 z M 32.74068,13.496729 c -1.257808,0 -2.32606,0.441119 -3.206526,1.319812 -0.878695,0.880467 -1.319812,1.948717 -1.319812,3.206524 0,1.256039 0.439346,2.324288 1.319812,3.204756 0.880466,0.880466 1.948718,1.319812 3.206526,1.319812 1.257809,0 2.326059,-0.439346 3.204752,-1.319812 0.880467,-0.878695 1.319814,-1.948717 1.319814,-3.204756 0,-1.257807 -0.439347,-2.326057 -1.319814,-3.206524 -0.878693,-0.878693 -1.946943,-1.319812 -3.204752,-1.319812 z"
       fill="#e9ebed"
       fill-rule="nonzero"
       id="path7"
       style="stroke-width:1.77156;fill:#dfdfdf;fill-opacity:1" />
    <g
       id="g1"
       transform="matrix(1.21,0,0,1.21,2.0148825,-2.4743588)" />
  </g>
</svg>
