<?xml version="1.0" encoding="UTF-8" standalone="no"?>
<svg
   width="64"
   height="64"
   version="1.1"
   id="svg73"
   sodipodi:docname="partitionmanager.svg"
   inkscape:version="1.3.2 (091e20ef0f, 2023-11-25)"
   xmlns:inkscape="http://www.inkscape.org/namespaces/inkscape"
   xmlns:sodipodi="http://sodipodi.sourceforge.net/DTD/sodipodi-0.dtd"
   xmlns="http://www.w3.org/2000/svg"
   xmlns:svg="http://www.w3.org/2000/svg"
   xmlns:rdf="http://www.w3.org/1999/02/22-rdf-syntax-ns#"
   xmlns:cc="http://creativecommons.org/ns#"
   xmlns:dc="http://purl.org/dc/elements/1.1/">
  <metadata
     id="metadata77">
    <rdf:RDF>
      <cc:Work
         rdf:about="">
        <dc:format>image/svg+xml</dc:format>
        <dc:type
           rdf:resource="http://purl.org/dc/dcmitype/StillImage" />
      </cc:Work>
    </rdf:RDF>
  </metadata>
  <sodipodi:namedview
     pagecolor="#f5f7fa"
     bordercolor="#666666"
     borderopacity="1"
     objecttolerance="10"
     gridtolerance="10"
     guidetolerance="10"
     inkscape:pageopacity="0"
     inkscape:pageshadow="2"
     inkscape:window-width="1377"
     inkscape:window-height="886"
     id="namedview75"
     showgrid="false"
     inkscape:zoom="6.2890624"
     inkscape:cx="47.622361"
     inkscape:cy="45.396274"
     inkscape:window-x="74"
     inkscape:window-y="53"
     inkscape:window-maximized="0"
     inkscape:current-layer="g877"
     inkscape:document-rotation="0"
     inkscape:pagecheckerboard="0"
     inkscape:showpageshadow="2"
     inkscape:deskcolor="#d1d1d1" />
  <defs
     id="defs29">
    <linearGradient
       id="b"
       x1="399.57"
       x2="399.57"
       y1="545.8"
       y2="517.8"
       gradientTransform="matrix(2.1429,0,0,2.1429,-825.86391,-1107.6662)"
       gradientUnits="userSpaceOnUse">
      <stop
         stop-color="#3889e9"
         offset="0"
         id="stop2" />
      <stop
         stop-color="#5ea5fb"
         offset="1"
         id="stop4" />
    </linearGradient>
  </defs>
  <circle
     cx="32.516094"
     cy="31.877844"
     r="0"
     fill="url(#b)"
     stroke-width="1.5715"
     id="circle41"
     style="fill:url(#b)" />
  <g
     aria-label="GZ"
     transform="matrix(1.2212657,0,0,0.81882264,0.4960938,-0.1661539)"
     id="text93"
     style="font-weight:bold;font-size:11.5263px;line-height:1.25;font-family:sans-serif;-inkscape-font-specification:'sans-serif Bold';fill:#f2f2f2;stroke-width:0.288159" />
  <g
     id="g877"
     transform="matrix(1.1,0,0,1.1,-3.1845928,-3.2065454)">
    <rect
       x="6.3010068"
       y="5.4939413"
       width="51.635597"
       height="53.148327"
       rx="10.980581"
       ry="10.720582"
       fill="url(#linearGradient862)"
       stroke-width="3.0541"
       id="rect35-7-3"
       style="fill:#414141;fill-opacity:1;stroke:#dfdfdf;stroke-width:2.27272727;stroke-dasharray:none;stroke-opacity:1" />
    <path
       id="path15571"
       style="fill:#dfdfdf;fill-opacity:1;stroke:none;stroke-width:1.25779;stroke-dasharray:none;stroke-opacity:0.3"
       d="m 44.812746,11.974306 c -2.687633,0.04774 -5.279696,1.717962 -6.554291,4.370346 -1.492577,3.105993 -1.252525,6.361237 0.538004,7.318302 0.507465,0.271256 0.762745,0.324519 1.267619,0.257949 2.475534,-0.326409 5.992089,-3.545041 7.605724,-6.962092 0.478999,-1.014167 0.523209,-1.215083 0.525727,-2.355909 l 0.0047,-1.247967 -0.577321,-0.538003 c -0.412107,-0.384816 -0.790175,-0.584786 -1.316579,-0.697686 -0.496607,-0.106513 -0.995922,-0.153781 -1.493633,-0.14494 z m -12.71552,1.913714 c -1.90299,0.04489 -3.049192,1.44714 -3.171509,3.879021 -0.03343,0.664917 0.01169,1.558353 0.100727,1.987414 0.225958,1.088417 0.877725,2.400433 1.417478,2.854605 0.925777,0.778991 1.832381,0.301987 2.751426,-1.446955 1.06224,-2.021447 1.408873,-4.811091 0.756642,-6.087532 C 33.496538,14.183228 33.000978,13.8667 32.097235,13.88802 Z m -8.610491,1.854758 c -0.256049,-0.0051 -0.531678,0.03804 -0.825429,0.125284 -1.60507,0.476656 -2.444549,1.918075 -2.144639,3.682487 0.285925,1.682164 1.615676,3.713549 2.766167,4.227863 0.248954,0.111296 0.643676,0.170994 0.877016,0.13266 1.636149,-0.268804 2.326956,-4.499588 1.122681,-6.876111 -0.42859,-0.845781 -1.027655,-1.276995 -1.795796,-1.292187 z m -6.121926,6.546921 c -0.808094,-0.003 -1.672189,0.410669 -2.159378,1.127592 -0.279513,0.41133 -0.324807,0.627134 -0.277597,1.302014 0.04586,0.656017 0.159805,0.960098 0.606787,1.609094 0.61091,0.887013 1.707262,1.787422 2.554896,2.097963 0.304575,0.111573 0.668253,0.20819 0.808232,0.213731 0.464852,0.0182 1.056448,-0.399587 1.21603,-0.857365 0.551643,-1.582437 -0.378465,-4.398639 -1.722095,-5.217886 -0.303477,-0.185037 -0.659555,-0.273776 -1.026875,-0.275143 z m 16.7272,3.699686 c -2.749943,0.04309 -5.835437,0.719305 -8.460636,2.016893 -4.772365,2.358892 -7.300956,6.047967 -7.016139,10.234323 0.120558,1.772024 0.552092,3.255367 1.505918,5.185952 2.350974,4.758508 6.725871,8.376005 11.189952,9.251672 0.976426,0.191551 2.672603,0.169702 3.476132,-0.04418 3.636539,-0.968242 7.00062,-4.534887 7.829283,-8.30095 0.15184,-0.69014 0.143101,-0.855473 -0.06882,-1.302015 -0.695211,-1.465124 -4.301477,-1.644899 -6.772922,-0.339077 -1.089996,0.575916 -1.284999,0.897457 -1.30447,2.144634 -0.02697,1.727402 -0.661907,2.511418 -2.024264,2.500854 -1.389531,-0.01078 -2.885173,-0.848149 -3.395051,-1.901414 -0.610217,-1.260539 -0.257624,-2.410042 1.13005,-3.69478 0.462706,-0.42838 2.423104,-1.825282 4.355606,-3.105184 4.281366,-2.835549 5.795163,-4.173939 6.62799,-5.859063 0.480799,-0.972834 0.530437,-1.177808 0.528174,-2.210968 -0.0027,-1.311847 -0.258338,-1.932061 -1.152159,-2.793189 -1.283261,-1.236339 -3.698706,-1.826608 -6.448656,-1.783514 z" />
    <rect
       x="34.795551"
       y="33.974232"
       width="24.697144"
       height="25.420679"
       rx="5.2519779"
       ry="5.1276212"
       fill="url(#linearGradient862)"
       stroke-width="3.0541"
       id="rect35-7-3-9"
       style="fill:#414141;fill-opacity:1;stroke:#dfdfdf;stroke-width:2.27273;stroke-dasharray:none;stroke-opacity:1" />
    <path
       style="fill:#dfdfdf;fill-opacity:1;stroke:none;stroke-width:0.9801;stroke-dasharray:none;stroke-opacity:0.3"
       d="m 44.965375,55.264495 c -6.16e-4,-0.265003 -0.03659,-0.778125 -0.0799,-1.140253 -0.07163,-0.598431 -0.120613,-0.678451 -0.538259,-0.87843 -0.252739,-0.121028 -0.674215,-0.39077 -0.936682,-0.599578 l -0.477217,-0.379546 -0.899539,0.454909 c -0.494754,0.250202 -0.944174,0.454862 -0.998704,0.454772 -0.0545,-7.2e-5 -0.352396,-0.477095 -0.661839,-1.060064 -0.309489,-0.582959 -0.756863,-1.414497 -0.994224,-1.847857 l -0.431537,-0.787933 0.859039,-0.642638 0.859045,-0.642638 0.0075,-1.25785 0.0075,-1.257854 -0.858894,-0.645449 -0.858906,-0.645449 0.780728,-1.484587 c 0.429388,-0.816528 0.88793,-1.664957 1.018943,-1.885401 l 0.238228,-0.400789 0.952914,0.501423 0.952909,0.501428 0.559404,-0.428795 c 0.307702,-0.235858 0.734945,-0.501809 0.949491,-0.591057 0.34487,-0.143476 0.399334,-0.239391 0.469772,-0.828243 0.0439,-0.366282 0.0802,-0.911729 0.08083,-1.212078 l 0.0012,-0.546093 h 2.047276 2.047266 v 0.430852 c 0,0.236939 0.03659,0.782516 0.08132,1.212304 0.0733,0.704366 0.117321,0.796402 0.446173,0.933195 0.200644,0.08349 0.633564,0.34358 0.961976,0.578091 l 0.597119,0.426325 0.972208,-0.490872 0.9722,-0.490866 0.984565,1.889138 0.984556,1.889142 -0.856832,0.643858 -0.856845,0.643859 0.01247,1.261552 0.01247,1.261553 0.848335,0.634624 0.848325,0.634622 -0.861081,1.627481 c -0.473592,0.895116 -0.92882,1.743125 -1.011613,1.88447 -0.146845,0.250659 -0.174286,0.245213 -1.119133,-0.223927 l -0.968674,-0.480876 -0.5526,0.423581 c -0.303958,0.232948 -0.731797,0.498118 -0.950824,0.589227 -0.392351,0.163184 -0.399542,0.182557 -0.487381,1.310088 l -0.08918,1.144449 h -2.031155 -2.03077 l -0.0012,-0.481842 z m 3.521555,-5.358756 c 1.060606,-0.624164 1.598437,-1.631141 1.596488,-2.989109 -0.0035,-2.507135 -2.275742,-4.083832 -4.357368,-3.023695 -1.24282,0.632947 -1.856321,1.790488 -1.759363,3.319517 0.154287,2.433393 2.543213,3.856771 4.520243,2.693287 z"
       id="path792" />
  </g>
</svg>
