<?xml version="1.0" encoding="UTF-8" standalone="no"?>
<svg
   width="64"
   height="64"
   version="1.1"
   id="svg73"
   sodipodi:docname="accessories-character-map.svg"
   inkscape:version="1.3.2 (091e20ef0f, 2023-11-25)"
   xmlns:inkscape="http://www.inkscape.org/namespaces/inkscape"
   xmlns:sodipodi="http://sodipodi.sourceforge.net/DTD/sodipodi-0.dtd"
   xmlns="http://www.w3.org/2000/svg"
   xmlns:svg="http://www.w3.org/2000/svg"
   xmlns:rdf="http://www.w3.org/1999/02/22-rdf-syntax-ns#"
   xmlns:cc="http://creativecommons.org/ns#"
   xmlns:dc="http://purl.org/dc/elements/1.1/">
  <metadata
     id="metadata77">
    <rdf:RDF>
      <cc:Work
         rdf:about="">
        <dc:format>image/svg+xml</dc:format>
        <dc:type
           rdf:resource="http://purl.org/dc/dcmitype/StillImage" />
      </cc:Work>
    </rdf:RDF>
  </metadata>
  <sodipodi:namedview
     pagecolor="#f5f7fa"
     bordercolor="#666666"
     borderopacity="1"
     objecttolerance="10"
     gridtolerance="10"
     guidetolerance="10"
     inkscape:pageopacity="0"
     inkscape:pageshadow="2"
     inkscape:window-width="1377"
     inkscape:window-height="886"
     id="namedview75"
     showgrid="false"
     inkscape:zoom="4.4470387"
     inkscape:cx="47.784608"
     inkscape:cy="14.054296"
     inkscape:window-x="181"
     inkscape:window-y="77"
     inkscape:window-maximized="0"
     inkscape:current-layer="g877"
     inkscape:document-rotation="0"
     inkscape:pagecheckerboard="0"
     inkscape:showpageshadow="2"
     inkscape:deskcolor="#d1d1d1" />
  <defs
     id="defs29">
    <linearGradient
       id="b"
       x1="399.57"
       x2="399.57"
       y1="545.8"
       y2="517.8"
       gradientTransform="matrix(2.1429,0,0,2.1429,-825.86391,-1107.6662)"
       gradientUnits="userSpaceOnUse">
      <stop
         stop-color="#3889e9"
         offset="0"
         id="stop2" />
      <stop
         stop-color="#5ea5fb"
         offset="1"
         id="stop4" />
    </linearGradient>
  </defs>
  <circle
     cx="32.516094"
     cy="31.877844"
     r="0"
     fill="url(#b)"
     stroke-width="1.5715"
     id="circle41"
     style="fill:url(#b)" />
  <g
     aria-label="GZ"
     transform="matrix(1.2212657,0,0,0.81882264,0.4960938,-0.1661539)"
     id="text93"
     style="font-weight:bold;font-size:11.5263px;line-height:1.25;font-family:sans-serif;-inkscape-font-specification:'sans-serif Bold';fill:#f2f2f2;stroke-width:0.288159" />
  <g
     id="g877"
     transform="matrix(1.1,0,0,1.1,-3.1845928,-3.2065454)">
    <rect
       x="6.3010068"
       y="5.4939413"
       width="51.635597"
       height="53.148327"
       rx="10.980581"
       ry="10.720582"
       fill="url(#linearGradient862)"
       stroke-width="3.0541"
       id="rect35-7-3"
       style="fill:#414141;fill-opacity:1;stroke:#dfdfdf;stroke-width:2.27272727;stroke-dasharray:none;stroke-opacity:1" />
    <path
       style="fill:#dfdfdf;stroke-width:0.0502861;fill-opacity:1"
       d="M 30.698564,51.515669 C 23.927655,50.973315 17.921137,46.710131 15.191113,40.509101 c -2.72622,-6.192392 -1.894473,-13.407277 2.163322,-18.76546 3.526784,-4.656998 9.010943,-7.383114 14.8527,-7.383114 4.829866,0 9.438339,1.856514 12.909358,5.20051 4.798523,4.622918 6.74812,11.414894 5.142418,17.91505 -1.787775,7.237184 -7.795605,12.732408 -15.160505,13.866968 -1.432555,0.220707 -3.0215,0.283043 -4.399842,0.172597 z m 2.799904,-9.341619 c 2.114238,-0.409861 4.048661,-1.814308 5.288156,-3.83941 0.202049,-0.330108 0.510797,-0.914583 0.510797,-0.966964 0,-0.01464 -0.231958,-0.02539 -0.515429,-0.024 l -0.515429,0.0025 -0.276572,0.352292 c -0.67172,0.855636 -1.632508,1.631445 -2.639999,2.131729 -0.698609,0.346914 -1.158658,0.512125 -1.838072,0.660112 -0.599065,0.130492 -2.010289,0.130346 -2.612213,-2e-4 -1.730199,-0.375328 -3.392505,-1.412223 -4.475428,-2.791629 l -0.276573,-0.352293 -0.51543,-0.0025 c -0.383649,-0.0019 -0.515427,0.01367 -0.515427,0.06108 0,0.09637 0.561378,1.04787 0.890613,1.509517 0.41657,0.584091 1.26122,1.442317 1.8751,1.905227 0.590295,0.445121 1.589147,0.964481 2.237713,1.163507 0.360992,0.110763 1.056996,0.24984 1.533717,0.306412 0.351941,0.04162 1.358606,-0.02104 1.844476,-0.115385 z M 26.167664,28.916358 c 0.970455,-0.228757 1.761388,-1.021781 1.99119,-1.996458 0.344068,-1.45931 -0.58799,-2.920097 -2.061434,-3.230824 -0.438546,-0.09248 -0.664369,-0.09329 -1.086131,-0.0038 -1.447808,0.306896 -2.386955,1.722861 -2.086733,3.146196 0.115688,0.548508 0.338512,0.962885 0.728078,1.354028 0.683541,0.686309 1.588559,0.949335 2.51503,0.730944 z m 13.326217,-1.17e-4 c 0.473225,-0.11155 0.890613,-0.352161 1.267758,-0.730828 0.82916,-0.832516 1.014663,-2.011692 0.486787,-3.094329 -0.397435,-0.815117 -1.22152,-1.366084 -2.173922,-1.453436 -1.271785,-0.116644 -2.522184,0.789561 -2.817368,2.041845 -0.458304,1.944299 1.292448,3.695051 3.236745,3.236748 z"
       id="path1-7" />
  </g>
</svg>
