<?xml version="1.0" encoding="UTF-8" standalone="no"?>
<svg
   width="64"
   height="64"
   version="1.1"
   id="svg73"
   sodipodi:docname="audacious.svg"
   inkscape:version="1.4.2 (ebf0e940d0, 2025-05-08)"
   xmlns:inkscape="http://www.inkscape.org/namespaces/inkscape"
   xmlns:sodipodi="http://sodipodi.sourceforge.net/DTD/sodipodi-0.dtd"
   xmlns="http://www.w3.org/2000/svg"
   xmlns:svg="http://www.w3.org/2000/svg"
   xmlns:rdf="http://www.w3.org/1999/02/22-rdf-syntax-ns#"
   xmlns:cc="http://creativecommons.org/ns#"
   xmlns:dc="http://purl.org/dc/elements/1.1/">
  <metadata
     id="metadata77">
    <rdf:RDF>
      <cc:Work
         rdf:about="">
        <dc:format>image/svg+xml</dc:format>
        <dc:type
           rdf:resource="http://purl.org/dc/dcmitype/StillImage" />
      </cc:Work>
    </rdf:RDF>
  </metadata>
  <sodipodi:namedview
     pagecolor="#f5f7fa"
     bordercolor="#666666"
     borderopacity="1"
     objecttolerance="10"
     gridtolerance="10"
     guidetolerance="10"
     inkscape:pageopacity="0"
     inkscape:pageshadow="2"
     inkscape:window-width="1377"
     inkscape:window-height="886"
     id="namedview75"
     showgrid="false"
     inkscape:zoom="6.2890624"
     inkscape:cx="47.622361"
     inkscape:cy="45.396274"
     inkscape:window-x="20"
     inkscape:window-y="75"
     inkscape:window-maximized="0"
     inkscape:current-layer="g877"
     inkscape:document-rotation="0"
     inkscape:pagecheckerboard="0"
     inkscape:showpageshadow="2"
     inkscape:deskcolor="#d1d1d1" />
  <defs
     id="defs29" />
  <circle
     cx="32.516094"
     cy="31.877844"
     r="0"
     fill="url(#b)"
     stroke-width="1.5715"
     id="circle41"
     style="fill:url(#b)" />
  <g
     aria-label="GZ"
     transform="matrix(1.2212657,0,0,0.81882264,0.4960938,-0.1661539)"
     id="text93"
     style="font-weight:bold;font-size:11.5263px;line-height:1.25;font-family:sans-serif;-inkscape-font-specification:'sans-serif Bold';fill:#f2f2f2;stroke-width:0.288159" />
  <g
     id="g877"
     transform="matrix(1.1,0,0,1.1,-3.1845928,-3.2065454)">
    <rect
       x="8.3496294"
       y="8.369586"
       width="47.272728"
       height="47.272728"
       rx="9.8825235"
       ry="9.6485243"
       fill="url(#linearGradient862)"
       stroke-width="3.0541"
       id="rect35-7-3"
       style="fill:#414141;fill-opacity:1;stroke:#dfdfdf;stroke-width:2.04545;stroke-dasharray:none;stroke-opacity:1" />
    <path
       style="fill:#dfdfdf;fill-opacity:1;stroke:none;stroke-width:0.93555;stroke-dasharray:none;stroke-dashoffset:2.2;stroke-opacity:0.3"
       d="m 17.476178,44.894742 c -0.795953,-0.485317 -0.751082,0.331882 -0.716599,-13.051141 0.03067,-11.916338 0.03489,-12.11027 0.267601,-12.37122 0.543107,-0.609042 -0.01711,-0.587087 14.980275,-0.587087 13.316792,0 14.002342,0.01029 14.385881,0.215991 0.221483,0.118791 0.499926,0.39722 0.61872,0.618721 0.205139,0.382449 0.215963,1.004241 0.215566,12.343081 -4.3e-4,11.63411 -0.0068,11.950056 -0.231225,12.31877 -0.484611,0.794791 0.530853,0.74455 -15.040246,0.74407 -13.777636,-4.37e-4 -14.11027,-0.0055 -14.479997,-0.231225 z M 44.722573,25.829589 c 1.194919,-0.79083 1.382135,-2.661045 0.359518,-3.591233 -0.73777,-0.671081 0.01371,-0.634394 -12.999921,-0.634394 -11.952382,0 -11.966749,2.91e-4 -12.484083,0.250724 -0.902568,0.436924 -1.373596,1.50801 -1.161159,2.640391 0.100874,0.537672 0.696039,1.220033 1.307929,1.499534 0.450667,0.205861 1.060613,0.215058 12.480104,0.188306 l 12.006287,-0.02817 z"
       id="path15" />
  </g>
</svg>
