<?xml version="1.0" encoding="UTF-8" standalone="no"?>
<svg
   width="64"
   height="64"
   version="1.1"
   id="svg73"
   sodipodi:docname="preferences-desktop-navigation.svg"
   inkscape:version="1.3.2 (091e20ef0f, 2023-11-25)"
   xmlns:inkscape="http://www.inkscape.org/namespaces/inkscape"
   xmlns:sodipodi="http://sodipodi.sourceforge.net/DTD/sodipodi-0.dtd"
   xmlns="http://www.w3.org/2000/svg"
   xmlns:svg="http://www.w3.org/2000/svg"
   xmlns:rdf="http://www.w3.org/1999/02/22-rdf-syntax-ns#"
   xmlns:cc="http://creativecommons.org/ns#"
   xmlns:dc="http://purl.org/dc/elements/1.1/">
  <metadata
     id="metadata77">
    <rdf:RDF>
      <cc:Work
         rdf:about="">
        <dc:format>image/svg+xml</dc:format>
        <dc:type
           rdf:resource="http://purl.org/dc/dcmitype/StillImage" />
      </cc:Work>
    </rdf:RDF>
  </metadata>
  <sodipodi:namedview
     pagecolor="#f5f7fa"
     bordercolor="#666666"
     borderopacity="1"
     objecttolerance="10"
     gridtolerance="10"
     guidetolerance="10"
     inkscape:pageopacity="0"
     inkscape:pageshadow="2"
     inkscape:window-width="1377"
     inkscape:window-height="886"
     id="namedview75"
     showgrid="false"
     inkscape:zoom="6.2890624"
     inkscape:cx="4.452174"
     inkscape:cy="12.004969"
     inkscape:window-x="181"
     inkscape:window-y="77"
     inkscape:window-maximized="0"
     inkscape:current-layer="g877"
     inkscape:document-rotation="0"
     inkscape:pagecheckerboard="0"
     inkscape:showpageshadow="2"
     inkscape:deskcolor="#d1d1d1" />
  <defs
     id="defs29">
    <linearGradient
       id="b"
       x1="399.57"
       x2="399.57"
       y1="545.8"
       y2="517.8"
       gradientTransform="matrix(2.1429,0,0,2.1429,-825.86391,-1107.6662)"
       gradientUnits="userSpaceOnUse">
      <stop
         stop-color="#3889e9"
         offset="0"
         id="stop2" />
      <stop
         stop-color="#5ea5fb"
         offset="1"
         id="stop4" />
    </linearGradient>
    <linearGradient
       id="d"
       x2="1"
       gradientTransform="matrix(14.905727,-4.7106182,4.7106182,14.905727,322.04962,998.26962)"
       gradientUnits="userSpaceOnUse">
      <stop
         stop-color="#fafafa"
         offset="0"
         id="stop7" />
      <stop
         stop-color="#aaa"
         offset="1"
         id="stop8" />
    </linearGradient>
    <linearGradient
       id="e"
       x2="1"
       gradientTransform="matrix(21.439909,0,0,21.439909,26.63554,1159.7788)"
       gradientUnits="userSpaceOnUse">
      <stop
         stop-color="#f0f0f0"
         offset="0"
         id="stop9" />
      <stop
         stop-color="#b7f1ff"
         offset="1"
         id="stop10" />
    </linearGradient>
    <linearGradient
       id="b-2"
       x2="1"
       gradientTransform="matrix(10.719636,14.238636,-14.238636,10.719636,-67.544643,95.73886)"
       gradientUnits="userSpaceOnUse">
      <stop
         stop-color="#3077e1"
         offset="0"
         id="stop3" />
      <stop
         stop-color="#5df"
         offset="1"
         id="stop4-7" />
    </linearGradient>
    <linearGradient
       id="c"
       x2="1"
       gradientTransform="matrix(-0.30023273,-19.715,19.715,-0.30023273,61.587812,32.183496)"
       gradientUnits="userSpaceOnUse">
      <stop
         stop-color="#da9517"
         offset="0"
         id="stop5" />
      <stop
         stop-color="#ffee58"
         offset="1"
         id="stop6" />
    </linearGradient>
  </defs>
  <circle
     cx="32.516094"
     cy="31.877844"
     r="0"
     fill="url(#b)"
     stroke-width="1.5715"
     id="circle41"
     style="fill:url(#b)" />
  <g
     aria-label="GZ"
     transform="matrix(1.2212657,0,0,0.81882264,0.4960938,-0.1661539)"
     id="text93"
     style="font-weight:bold;font-size:11.5263px;line-height:1.25;font-family:sans-serif;-inkscape-font-specification:'sans-serif Bold';fill:#f2f2f2;stroke-width:0.288159" />
  <g
     id="g877"
     transform="matrix(1.1,0,0,1.1,-3.1845928,-3.2065454)">
    <rect
       x="6.3010068"
       y="5.4939413"
       width="51.635597"
       height="53.148327"
       rx="10.980581"
       ry="10.720582"
       fill="url(#linearGradient862)"
       stroke-width="3.0541"
       id="rect35-7-3"
       style="fill:#414141;fill-opacity:1;stroke:#dfdfdf;stroke-width:2.27272727;stroke-dasharray:none;stroke-opacity:1" />
    <g
       fill="#ffffff"
       id="g8"
       transform="matrix(1.4641,0,0,1.4641,-3.1524062,-3.1324502)"
       style="fill:#dfdfdf;fill-opacity:1">
      <circle
         cx="24"
         cy="13.5"
         r="2.25"
         fill-opacity="0.6"
         id="circle2"
         style="fill:#dfdfdf;fill-opacity:1" />
      <circle
         cx="24"
         cy="34.5"
         r="2.25"
         id="circle3"
         style="fill:#dfdfdf;fill-opacity:1" />
      <path
         d="m 36.75,24 c 0,-1.242 -1.008,-2.25 -2.25,-2.25 -1.242,0 -2.25,1.008 -2.25,2.25 0,1.242 1.008,2.25 2.25,2.25 1.242,0 2.25,-1.008 2.25,-2.25 z"
         fill-opacity="0.4"
         id="path3"
         style="fill:#dfdfdf;fill-opacity:1" />
      <path
         d="m 15.75,24 c 0,-1.242 -1.008,-2.25 -2.25,-2.25 -1.242,0 -2.25,1.008 -2.25,2.25 0,1.242 1.008,2.25 2.25,2.25 1.242,0 2.25,-1.008 2.25,-2.25 z"
         fill-opacity="0.8"
         id="path4"
         style="fill:#dfdfdf;fill-opacity:1" />
      <path
         d="m 33.015,33.015 c 0.878,-0.877 0.878,-2.303 0,-3.181 -0.877,-0.879 -2.303,-0.879 -3.181,0 -0.879,0.878 -0.879,2.304 0,3.181 0.878,0.878 2.304,0.878 3.181,0 z"
         fill-opacity="0.3"
         id="path5"
         style="fill:#dfdfdf;fill-opacity:1" />
      <path
         d="m 18.166,18.166 c 0.878,-0.878 0.878,-2.304 0,-3.182 -0.878,-0.878 -2.304,-0.878 -3.182,0 -0.878,0.878 -0.878,2.304 0,3.182 0.878,0.878 2.304,0.878 3.182,0 z"
         fill-opacity="0.7"
         id="path6"
         style="fill:#dfdfdf;fill-opacity:1" />
      <path
         d="m 14.984,33.015 c -0.878,-0.877 -0.878,-2.303 0,-3.181 0.878,-0.879 2.304,-0.879 3.182,0 0.878,0.878 0.878,2.304 0,3.181 -0.878,0.878 -2.304,0.878 -3.182,0 z"
         fill-opacity="0.9"
         id="path7"
         style="fill:#dfdfdf;fill-opacity:1" />
      <path
         d="m 29.834,18.166 c -0.879,-0.878 -0.879,-2.304 0,-3.182 0.878,-0.878 2.304,-0.878 3.181,0 0.878,0.878 0.878,2.304 0,3.182 -0.878,0.878 -2.303,0.878 -3.181,0 z"
         fill-opacity="0.5"
         id="path8"
         style="fill:#dfdfdf;fill-opacity:1" />
    </g>
    <g
       id="g1"
       transform="matrix(1.21,0,0,1.21,2.0148825,-2.4743588)" />
  </g>
</svg>
