<?xml version="1.0" encoding="UTF-8" standalone="no"?>
<svg
   width="64"
   height="64"
   version="1.1"
   id="svg73"
   sodipodi:docname="preferences-system-network-share-windows.svg"
   inkscape:version="1.4 (e7c3feb100, 2024-10-09)"
   xmlns:inkscape="http://www.inkscape.org/namespaces/inkscape"
   xmlns:sodipodi="http://sodipodi.sourceforge.net/DTD/sodipodi-0.dtd"
   xmlns="http://www.w3.org/2000/svg"
   xmlns:svg="http://www.w3.org/2000/svg"
   xmlns:rdf="http://www.w3.org/1999/02/22-rdf-syntax-ns#"
   xmlns:cc="http://creativecommons.org/ns#"
   xmlns:dc="http://purl.org/dc/elements/1.1/">
  <metadata
     id="metadata77">
    <rdf:RDF>
      <cc:Work
         rdf:about="">
        <dc:format>image/svg+xml</dc:format>
        <dc:type
           rdf:resource="http://purl.org/dc/dcmitype/StillImage" />
      </cc:Work>
    </rdf:RDF>
  </metadata>
  <sodipodi:namedview
     pagecolor="#f5f7fa"
     bordercolor="#666666"
     borderopacity="1"
     objecttolerance="10"
     gridtolerance="10"
     guidetolerance="10"
     inkscape:pageopacity="0"
     inkscape:pageshadow="2"
     inkscape:window-width="1377"
     inkscape:window-height="886"
     id="namedview75"
     showgrid="false"
     inkscape:zoom="6.2890624"
     inkscape:cx="47.701864"
     inkscape:cy="45.396274"
     inkscape:window-x="74"
     inkscape:window-y="53"
     inkscape:window-maximized="0"
     inkscape:current-layer="g877"
     inkscape:document-rotation="0"
     inkscape:pagecheckerboard="0"
     inkscape:showpageshadow="2"
     inkscape:deskcolor="#d1d1d1" />
  <defs
     id="defs29">
    <linearGradient
       id="b"
       x1="399.57"
       x2="399.57"
       y1="545.8"
       y2="517.8"
       gradientTransform="matrix(2.1429,0,0,2.1429,-825.86391,-1107.6662)"
       gradientUnits="userSpaceOnUse">
      <stop
         stop-color="#3889e9"
         offset="0"
         id="stop2" />
      <stop
         stop-color="#5ea5fb"
         offset="1"
         id="stop4" />
    </linearGradient>
  </defs>
  <circle
     cx="32.516094"
     cy="31.877844"
     r="0"
     fill="url(#b)"
     stroke-width="1.5715"
     id="circle41"
     style="fill:url(#b)" />
  <g
     aria-label="GZ"
     transform="matrix(1.2212657,0,0,0.81882264,0.4960938,-0.1661539)"
     id="text93"
     style="font-weight:bold;font-size:11.5263px;line-height:1.25;font-family:sans-serif;-inkscape-font-specification:'sans-serif Bold';fill:#f2f2f2;stroke-width:0.288159" />
  <g
     id="g877"
     transform="matrix(1.1,0,0,1.1,-3.1845928,-3.2065454)">
    <rect
       x="6.3010068"
       y="5.4939413"
       width="51.635597"
       height="53.148327"
       rx="10.980581"
       ry="10.720582"
       fill="url(#linearGradient862)"
       stroke-width="3.0541"
       id="rect35-7-3"
       style="fill:#414141;fill-opacity:1;stroke:#dfdfdf;stroke-width:2.27272727;stroke-dasharray:none;stroke-opacity:1" />
    <path
       style="fill:#dfdfdf;fill-opacity:1;stroke:none;stroke-width:1.14605;stroke-dasharray:none;stroke-opacity:0.3"
       d="m 15.947347,46.950563 c -0.664889,-0.207357 -1.375014,-0.837114 -1.737989,-1.541321 -0.242873,-0.471214 -0.251623,-0.938939 -0.248851,-13.29515 0.0027,-12.184739 0.01473,-12.832335 0.246685,-13.333301 0.134063,-0.289598 0.414145,-0.686297 0.622376,-0.881554 0.778241,-0.72977 1.013279,-0.763887 5.262506,-0.763887 2.506067,0 4.081724,0.05292 4.398115,0.147713 0.343842,0.103005 0.865179,0.52258 1.722885,1.386519 0.834409,0.840472 1.481187,1.364391 2.011445,1.629364 l 0.781568,0.390554 9.752886,2.02e-4 c 9.025063,1.91e-4 9.786576,0.01737 10.204253,0.230364 0.248258,0.126584 0.574053,0.397391 0.723992,0.601793 0.27079,0.36913 0.272628,0.44848 0.272628,11.781343 0,9.058728 -0.03544,11.509748 -0.172038,11.895225 -0.09464,0.267073 -0.397459,0.717757 -0.672927,1.00161 -0.977768,1.007521 0.08926,0.949181 -17.179559,0.939314 -12.645923,-0.0073 -15.51432,-0.04114 -15.987932,-0.188839 z m 27.807685,-3.177046 0.347041,-0.34704 -0.0022,-5.675269 -0.0022,-5.67527 -1.807148,-1.941617 -1.807146,-1.941619 h -3.857282 -3.857271 l -0.322792,0.34831 -0.322792,0.348309 v 7.230838 7.230837 l 0.384776,0.38477 0.384778,0.38477 h 5.257581 5.257585 z"
       id="path10-0" />
    <rect
       x="34.795551"
       y="33.974232"
       width="24.697144"
       height="25.420679"
       rx="5.2519779"
       ry="5.1276212"
       fill="url(#linearGradient862)"
       stroke-width="3.0541"
       id="rect35-7-3-9"
       style="fill:#414141;fill-opacity:1;stroke:#dfdfdf;stroke-width:2.27273;stroke-dasharray:none;stroke-opacity:1" />
    <path
       style="fill:#dfdfdf;fill-opacity:1;stroke-width:1.53807"
       d="m 51.41648,38.269718 a 3.0761626,3.0761624 0 0 0 -2.518915,1.535083 3.0761626,3.0761624 0 0 0 -0.297406,2.359724 l -4.071993,2.352187 a 3.0761626,3.0761624 0 0 0 -2.194841,-0.922082 3.0761626,3.0761624 0 0 0 -3.076164,3.076166 3.0761626,3.0761624 0 0 0 3.076164,3.076158 3.0761626,3.0761624 0 0 0 2.192997,-0.92223 l 4.071994,2.352187 a 3.0761626,3.0761624 0 0 0 0.29839,2.359419 3.0761626,3.0761624 0 0 0 4.202807,1.126644 3.0761626,3.0761624 0 0 0 1.126646,-4.202808 3.0761626,3.0761624 0 0 0 -4.202811,-1.125106 3.0761626,3.0761624 0 0 0 -0.656759,0.509104 l -4.072842,-2.350956 a 3.0761626,3.0761624 0 0 0 0.115354,-0.822876 3.0761626,3.0761624 0 0 0 -0.11228,-0.822873 l 4.071995,-2.35065 a 3.0761626,3.0761624 0 0 0 0.654454,0.509105 3.0761626,3.0761624 0 0 0 4.202805,-1.125105 3.0761626,3.0761624 0 0 0 -1.12664,-4.202807 3.0761626,3.0761624 0 0 0 -1.683429,-0.408361 z"
       id="path4" />
  </g>
</svg>
