<?xml version="1.0" encoding="UTF-8" standalone="no"?>
<svg
   width="64"
   height="64"
   version="1.1"
   id="svg73"
   sodipodi:docname="protondrive.svg"
   inkscape:version="1.4 (e7c3feb100, 2024-10-09)"
   xmlns:inkscape="http://www.inkscape.org/namespaces/inkscape"
   xmlns:sodipodi="http://sodipodi.sourceforge.net/DTD/sodipodi-0.dtd"
   xmlns="http://www.w3.org/2000/svg"
   xmlns:svg="http://www.w3.org/2000/svg"
   xmlns:rdf="http://www.w3.org/1999/02/22-rdf-syntax-ns#"
   xmlns:cc="http://creativecommons.org/ns#"
   xmlns:dc="http://purl.org/dc/elements/1.1/">
  <metadata
     id="metadata77">
    <rdf:RDF>
      <cc:Work
         rdf:about="">
        <dc:format>image/svg+xml</dc:format>
        <dc:type
           rdf:resource="http://purl.org/dc/dcmitype/StillImage" />
      </cc:Work>
    </rdf:RDF>
  </metadata>
  <sodipodi:namedview
     pagecolor="#f5f7fa"
     bordercolor="#666666"
     borderopacity="1"
     objecttolerance="10"
     gridtolerance="10"
     guidetolerance="10"
     inkscape:pageopacity="0"
     inkscape:pageshadow="2"
     inkscape:window-width="1377"
     inkscape:window-height="886"
     id="namedview75"
     showgrid="false"
     inkscape:zoom="6.2890624"
     inkscape:cx="47.701864"
     inkscape:cy="45.396274"
     inkscape:window-x="74"
     inkscape:window-y="53"
     inkscape:window-maximized="0"
     inkscape:current-layer="g877"
     inkscape:document-rotation="0"
     inkscape:pagecheckerboard="0"
     inkscape:showpageshadow="2"
     inkscape:deskcolor="#d1d1d1" />
  <defs
     id="defs29">
    <linearGradient
       id="b"
       x1="399.57"
       x2="399.57"
       y1="545.8"
       y2="517.8"
       gradientTransform="matrix(2.1429,0,0,2.1429,-825.86391,-1107.6662)"
       gradientUnits="userSpaceOnUse">
      <stop
         stop-color="#3889e9"
         offset="0"
         id="stop2" />
      <stop
         stop-color="#5ea5fb"
         offset="1"
         id="stop4" />
    </linearGradient>
  </defs>
  <circle
     cx="32.516094"
     cy="31.877844"
     r="0"
     fill="url(#b)"
     stroke-width="1.5715"
     id="circle41"
     style="fill:url(#b)" />
  <g
     aria-label="GZ"
     transform="matrix(1.2212657,0,0,0.81882264,0.4960938,-0.1661539)"
     id="text93"
     style="font-weight:bold;font-size:11.5263px;line-height:1.25;font-family:sans-serif;-inkscape-font-specification:'sans-serif Bold';fill:#f2f2f2;stroke-width:0.288159" />
  <g
     id="g877"
     transform="matrix(1.1,0,0,1.1,-3.1845928,-3.2065454)">
    <rect
       x="6.3010068"
       y="5.4939413"
       width="51.635597"
       height="53.148327"
       rx="10.980581"
       ry="10.720582"
       fill="url(#linearGradient862)"
       stroke-width="3.0541"
       id="rect35-7-3"
       style="fill:#414141;fill-opacity:1;stroke:#dfdfdf;stroke-width:2.27272727;stroke-dasharray:none;stroke-opacity:1" />
    <path
       fill="#f5f7fa"
       d="m 39.62281,47.746114 -1.591079,-3.106463 c -1.77827,1.137594 -4.820049,1.968892 -7.768233,1.968892 -8.704159,0 -13.430614,-4.200296 -13.430614,-12.294609 0,-8.794358 7.159875,-16.319876 16.753173,-16.319876 8.42338,0 13.383815,3.937776 13.383815,10.98202 0,4.637816 -2.24624,9.144375 -6.13035,9.144375 -1.403899,0 -1.965452,-0.6563 -1.965452,-1.925135 0,-0.656288 0.140355,-1.881384 0.32755,-2.887697 l 1.450717,-8.794363 c -1.497496,-0.875056 -3.977704,-1.400093 -6.223944,-1.400093 -5.70918,0 -11.465156,3.631501 -11.465156,11.507044 0,3.806521 2.012252,6.869227 6.879093,6.869227 2.19944,0 4.164895,-0.787545 5.475203,-2.318911 h 0.1872 c 0.655147,1.356349 2.15264,2.318911 4.773245,2.318911 6.551526,0 10.810013,-5.556637 10.810013,-12.994648 0,-8.488088 -6.69191,-14.000973 -16.893561,-14.000973 -12.354296,0 -21.526421,8.969376 -21.526421,20.257653 0,9.363147 5.896367,15.313566 16.893563,15.313566 3.930907,0 7.674631,-0.918822 10.061255,-2.31892 z m -8.938142,-9.581907 c -2.43342,0 -3.603337,-1.312589 -3.603337,-4.244037 0,-4.375312 2.948186,-7.438022 6.832303,-7.438022 0.88913,0 1.731471,0.175015 2.293028,0.350028 l -1.076318,6.869226 c -0.09358,0.481276 -0.233958,1.706366 -0.233958,2.231397 -0.701945,1.181337 -2.293032,2.231408 -4.211695,2.231408 z"
       id="path42"
       style="fill:#dfdfdf;fill-opacity:1;stroke:none;stroke-width:1.1979;stroke-dasharray:none;stroke-opacity:0.3" />
    <rect
       x="34.795551"
       y="33.974232"
       width="24.697144"
       height="25.420679"
       rx="5.2519779"
       ry="5.1276212"
       fill="url(#linearGradient862)"
       stroke-width="3.0541"
       id="rect35-7-3-9"
       style="fill:#414141;fill-opacity:1;stroke:#dfdfdf;stroke-width:2.27273;stroke-dasharray:none;stroke-opacity:1" />
    <path
       style="fill:#dfdfdf;fill-opacity:1;stroke-width:0.093069;stroke-opacity:0.3"
       d="m 40.257546,55.149484 c -0.365788,-0.147971 -0.673421,-0.62489 -0.736661,-1.142025 -0.03293,-0.269262 -0.04648,-2.081036 -0.03008,-4.026164 0.02719,-3.228959 0.04442,-3.558163 0.198103,-3.784516 0.250185,-0.3685 0.701869,-0.543161 1.404641,-0.543161 h 0.614147 l 0.0011,-1.884635 c 0.0015,-2.522223 0.196004,-3.220357 1.178835,-4.23065 0.904274,-0.929544 2.329035,-1.420017 4.124955,-1.420017 1.683404,0 2.989645,0.412172 3.865858,1.219836 0.612169,0.564278 0.929221,1.061499 1.216101,1.907164 0.226624,0.668036 0.252434,0.892956 0.294929,2.570202 l 0.04657,1.8381 0.615464,3.48e-4 c 0.453045,2.55e-4 0.696767,0.04991 0.923541,0.188173 0.565722,0.344911 0.576073,0.427794 0.576073,4.610709 0,4.185833 -0.0086,4.252203 -0.597494,4.611308 -0.273588,0.166831 -0.587862,0.174542 -6.894505,0.169259 -3.634321,-0.003 -6.695033,-0.04083 -6.801584,-0.08392 z M 50.269983,43.981877 c 0,-1.460016 -0.02427,-1.736625 -0.191692,-2.184086 -0.234811,-0.627583 -0.823235,-1.179703 -1.514202,-1.420779 -0.580436,-0.202512 -2.316304,-0.232454 -2.915633,-0.05029 -0.698229,0.212222 -1.256291,0.665456 -1.565425,1.271372 -0.279177,0.547203 -0.281527,0.564566 -0.311817,2.303442 l -0.03051,1.752082 h 3.264645 3.264642 z"
       id="path53" />
  </g>
</svg>
