<?xml version="1.0" encoding="UTF-8" standalone="no"?>
<svg
   width="64"
   height="64"
   version="1.1"
   id="svg73"
   sodipodi:docname="audacious.svg"
   inkscape:version="1.4.2 (ebf0e940d0, 2025-05-08)"
   xmlns:inkscape="http://www.inkscape.org/namespaces/inkscape"
   xmlns:sodipodi="http://sodipodi.sourceforge.net/DTD/sodipodi-0.dtd"
   xmlns="http://www.w3.org/2000/svg"
   xmlns:svg="http://www.w3.org/2000/svg"
   xmlns:rdf="http://www.w3.org/1999/02/22-rdf-syntax-ns#"
   xmlns:cc="http://creativecommons.org/ns#"
   xmlns:dc="http://purl.org/dc/elements/1.1/">
  <metadata
     id="metadata77">
    <rdf:RDF>
      <cc:Work
         rdf:about="">
        <dc:format>image/svg+xml</dc:format>
        <dc:type
           rdf:resource="http://purl.org/dc/dcmitype/StillImage" />
      </cc:Work>
    </rdf:RDF>
  </metadata>
  <sodipodi:namedview
     pagecolor="#f5f7fa"
     bordercolor="#666666"
     borderopacity="1"
     objecttolerance="10"
     gridtolerance="10"
     guidetolerance="10"
     inkscape:pageopacity="0"
     inkscape:pageshadow="2"
     inkscape:window-width="1377"
     inkscape:window-height="886"
     id="namedview75"
     showgrid="false"
     inkscape:zoom="6.2890624"
     inkscape:cx="45.714286"
     inkscape:cy="42.057144"
     inkscape:window-x="0"
     inkscape:window-y="75"
     inkscape:window-maximized="0"
     inkscape:current-layer="g877"
     inkscape:document-rotation="0"
     inkscape:pagecheckerboard="0"
     inkscape:showpageshadow="2"
     inkscape:deskcolor="#d1d1d1" />
  <defs
     id="defs29" />
  <circle
     cx="32.516094"
     cy="31.877844"
     r="0"
     fill="url(#b)"
     stroke-width="1.5715"
     id="circle41"
     style="fill:url(#b)" />
  <g
     aria-label="GZ"
     transform="matrix(1.2212657,0,0,0.81882264,0.4960938,-0.1661539)"
     id="text93"
     style="font-weight:bold;font-size:11.5263px;line-height:1.25;font-family:sans-serif;-inkscape-font-specification:'sans-serif Bold';fill:#f2f2f2;stroke-width:0.288159" />
  <g
     id="g877"
     transform="matrix(1.1,0,0,1.1,-3.1845928,-3.2065454)">
    <rect
       x="8.3496294"
       y="8.369586"
       width="47.272728"
       height="47.272728"
       rx="9.8825235"
       ry="9.6485243"
       fill="url(#linearGradient862)"
       stroke-width="3.0541"
       id="rect35-7-3"
       style="fill:#414141;fill-opacity:1;stroke:#dfdfdf;stroke-width:2.04545;stroke-dasharray:none;stroke-opacity:1" />
    <path
       id="path6-3"
       style="fill:#dfdfdf;stroke:none;stroke-width:0.0480581;fill-opacity:1"
       d="m 18.467689,17.110994 c -0.420812,0 -0.956255,0.137815 -1.430871,0.368722 -0.377025,0.183424 -0.523946,0.289895 -0.843299,0.611362 -0.788237,0.793448 -1.092975,1.798788 -0.842109,2.779671 0.09063,0.354354 0.29399,0.81876 0.381802,0.873031 0.02404,0.01491 5.166146,0.599923 11.426747,1.300036 6.260603,0.700114 11.50142,1.297513 11.646795,1.327391 0.393564,0.08089 0.743074,0.264252 1.049064,0.549512 0.264412,0.246455 0.278012,0.252024 0.417473,0.192685 0.298238,-0.126866 7.693404,-3.450362 7.794263,-3.502839 0.104243,-0.05423 0.102989,-0.05682 -0.09633,-0.296167 -0.442595,-0.531518 -0.924354,-0.863879 -1.533155,-1.056202 -0.431412,-0.136285 0.690477,-0.006 -13.614092,-1.586684 -5.867861,-0.648452 -11.446352,-1.265178 -12.396128,-1.370211 -0.949772,-0.105033 -1.831727,-0.190307 -1.96016,-0.190307 z m 30.017369,5.096661 c -0.02296,-0.02049 -0.928803,0.361436 -2.0125,0.849244 -1.083704,0.487808 -2.879175,1.295869 -3.989316,1.794834 -1.651483,0.74228 -2.015733,0.922191 -2.002975,0.991974 0.0086,0.0469 0.02859,0.286038 0.04288,0.530481 0.02945,0.490368 -0.02166,0.764918 -0.204563,1.129948 -0.185752,0.370213 -9.207513,14.291088 -9.911426,15.29355 -0.35264,0.502207 -0.710466,0.974352 -0.79453,1.049072 -0.256708,0.228161 -0.604953,0.379187 -0.933693,0.405606 l -0.300924,0.02382 0.127269,0.22239 c 0.462582,0.805359 0.60622,1.018722 0.906338,1.341661 0.510391,0.549209 1.009239,0.835286 1.730605,0.994353 0.66375,0.146344 1.417079,0.04846 2.090997,-0.273551 0.815787,-0.389796 0.390383,0.204334 8.168925,-11.442207 3.826693,-5.72957 7.00487,-10.527351 7.062776,-10.661953 0.13937,-0.323994 0.240851,-0.814262 0.241456,-1.170386 4.6e-4,-0.295312 -0.14639,-1.011873 -0.221227,-1.078733 z m -32.266562,0.296162 c -0.05258,0.0097 1.563946,2.928017 5.718727,10.324157 3.18571,5.671045 5.844379,10.382897 5.907844,10.470457 0.06346,0.08758 0.20447,0.199365 0.312817,0.248561 0.228649,0.103853 0.382394,0.113178 0.610171,0.03724 0.298315,-0.09986 0.454963,-0.268438 1.081182,-1.156112 0.830088,-1.176642 9.857616,-15.13219 9.953063,-15.386326 0.04114,-0.109764 0.07748,-0.351736 0.0797,-0.538807 0.0039,-0.292491 -0.01778,-0.38616 -0.154574,-0.663696 -0.18342,-0.372805 -0.493208,-0.650279 -0.858823,-0.769895 -0.220276,-0.07208 -22.492,-2.594773 -22.650105,-2.56558 z" />
  </g>
</svg>
