<?xml version="1.0" encoding="UTF-8" standalone="no"?>
<svg
   width="64"
   height="64"
   version="1.1"
   id="svg73"
   sodipodi:docname="audacious.svg"
   inkscape:version="1.4.2 (ebf0e940d0, 2025-05-08)"
   xmlns:inkscape="http://www.inkscape.org/namespaces/inkscape"
   xmlns:sodipodi="http://sodipodi.sourceforge.net/DTD/sodipodi-0.dtd"
   xmlns="http://www.w3.org/2000/svg"
   xmlns:svg="http://www.w3.org/2000/svg"
   xmlns:rdf="http://www.w3.org/1999/02/22-rdf-syntax-ns#"
   xmlns:cc="http://creativecommons.org/ns#"
   xmlns:dc="http://purl.org/dc/elements/1.1/">
  <metadata
     id="metadata77">
    <rdf:RDF>
      <cc:Work
         rdf:about="">
        <dc:format>image/svg+xml</dc:format>
        <dc:type
           rdf:resource="http://purl.org/dc/dcmitype/StillImage" />
      </cc:Work>
    </rdf:RDF>
  </metadata>
  <sodipodi:namedview
     pagecolor="#f5f7fa"
     bordercolor="#666666"
     borderopacity="1"
     objecttolerance="10"
     gridtolerance="10"
     guidetolerance="10"
     inkscape:pageopacity="0"
     inkscape:pageshadow="2"
     inkscape:window-width="1377"
     inkscape:window-height="886"
     id="namedview75"
     showgrid="false"
     inkscape:zoom="6.2890624"
     inkscape:cx="47.940373"
     inkscape:cy="42.534162"
     inkscape:window-x="20"
     inkscape:window-y="75"
     inkscape:window-maximized="0"
     inkscape:current-layer="g877"
     inkscape:document-rotation="0"
     inkscape:pagecheckerboard="0"
     inkscape:showpageshadow="2"
     inkscape:deskcolor="#d1d1d1" />
  <defs
     id="defs29" />
  <circle
     cx="32.516094"
     cy="31.877844"
     r="0"
     fill="url(#b)"
     stroke-width="1.5715"
     id="circle41"
     style="fill:url(#b)" />
  <g
     aria-label="GZ"
     transform="matrix(1.2212657,0,0,0.81882264,0.4960938,-0.1661539)"
     id="text93"
     style="font-weight:bold;font-size:11.5263px;line-height:1.25;font-family:sans-serif;-inkscape-font-specification:'sans-serif Bold';fill:#f2f2f2;stroke-width:0.288159" />
  <g
     id="g877"
     transform="matrix(1.1,0,0,1.1,-3.1845928,-3.2065454)">
    <rect
       x="8.3496294"
       y="8.369586"
       width="47.272728"
       height="47.272728"
       rx="9.8825235"
       ry="9.6485243"
       fill="url(#linearGradient862)"
       stroke-width="3.0541"
       id="rect35-7-3"
       style="fill:#414141;fill-opacity:1;stroke:#dfdfdf;stroke-width:2.04545;stroke-dasharray:none;stroke-opacity:1" />
    <path
       id="path13"
       style="fill:#dfdfdf;fill-opacity:1;stroke:none;stroke-width:0.525;stroke-dasharray:none;stroke-opacity:0.6"
       d="m 19.111914,16.882623 -0.0015,0.824397 -0.0015,0.82588 -0.187967,0.130246 c -0.103541,0.07159 -0.237512,0.206377 -0.297503,0.298975 l -0.109468,0.168726 H 17.687998 16.8636 v 0.742991 0.741515 h 0.741514 0.741515 v 0.788882 0.790355 h -0.63347 c -0.931063,10e-4 -0.849559,-0.07004 -0.849559,0.747437 v 0.688233 h 0.741514 0.741515 v 0.790356 0.788876 l -0.63347,0.0015 c -0.932789,10e-4 -0.849559,-0.07564 -0.849559,0.769635 v 0.713394 h 0.741514 0.741515 v 0.765161 0.765197 H 17.605114 16.8636 v 0.742993 0.741515 h 0.741514 0.741515 v 0.788909 0.790357 H 17.605114 16.8636 v 0.717833 0.717833 h 0.741514 0.741515 v 0.790358 0.788876 H 17.605114 16.8636 v 0.741517 0.742991 h 0.741514 0.741515 v 0.765191 0.765198 H 17.605114 16.8636 v 0.742995 0.741514 h 0.741514 0.741515 v 0.788875 0.790362 h -0.711913 -0.711914 l -0.02955,0.14947 c -0.01641,0.08226 -0.02955,0.405236 -0.02955,0.717831 v 0.568347 h 0.741506 0.741514 v 0.790358 0.788879 h -0.74161 -0.741514 v 0.741514 0.742999 l 0.824396,0.0015 0.825882,0.0015 0.130245,0.187966 c 0.07159,0.103541 0.206376,0.237466 0.298975,0.2975 l 0.168722,0.109533 v 0.825884 0.824397 h 0.742997 0.741515 V 46.387729 45.64621 h 0.788877 0.790357 v 0.741519 0.741511 h 0.717835 0.717833 v -0.741522 -0.741519 h 0.790357 0.788879 v 0.741519 0.741508 h 0.741514 0.742995 v -0.741552 -0.741518 h 0.765195 0.765197 v 0.741518 0.741508 h 0.742992 0.741515 v -0.741508 -0.741518 h 0.788879 0.790356 v 0.741518 0.741508 h 0.717833 0.717833 v -0.741508 -0.741518 h 0.790356 0.788879 v 0.741518 0.741508 h 0.741515 0.742994 v -0.741504 -0.741515 h 0.765197 0.765194 v 0.741515 0.741519 h 0.742995 0.741511 v -0.741519 -0.741515 h 0.788879 0.790357 v 0.741515 0.741519 h 0.717838 0.717829 v -0.741519 -0.741515 h 0.790358 0.788875 v 0.741515 0.741519 h 0.741518 0.742995 v -0.824405 -0.825876 l 0.168772,-0.109533 c 0.09261,-0.06 0.2274,-0.193955 0.298943,-0.297499 l 0.130206,-0.187966 0.825877,-0.0015 0.8244,-0.0015 v -0.742897 -0.74152 h -0.741504 -0.741515 v -0.788852 -0.790362 h 0.741515 0.741504 v -0.717815 -0.71783 H 46.368767 45.627252 V 39.591344 38.80247 h 0.741515 0.741504 V 38.060933 37.317939 H 46.368788 45.627273 V 36.55274 35.787551 h 0.741515 0.741508 v -0.742992 -0.741516 h -0.741508 -0.741515 v -0.788878 -0.790356 h 0.741515 0.741508 v -0.717834 -0.717832 h -0.741508 -0.741515 v -0.790357 -0.788877 h 0.741515 0.741508 v -0.741516 -0.742994 h -0.741508 -0.741515 v -0.765197 -0.765196 h 0.741515 0.741508 V 25.951012 25.209496 H 46.368788 45.627273 V 24.42062 23.630264 h 0.741515 0.741508 V 22.91243 22.194597 H 46.368788 45.627273 V 21.40424 20.615361 h 0.741515 0.741508 V 19.873843 19.130847 H 46.285901 45.46002 l -0.109533,-0.16873 c -0.05996,-0.09259 -0.193954,-0.227374 -0.297499,-0.298975 l -0.187966,-0.130248 -0.0015,-0.825879 -0.0015,-0.824399 h -0.742771 -0.741515 v 0.741518 0.741515 H 42.588831 41.79847 V 17.624137 16.882623 H 41.080639 40.36281 v 0.741514 0.741515 h -0.790419 -0.788874 v -0.741515 -0.741514 h -0.741516 -0.742994 v 0.741514 0.741515 H 36.53381 35.768615 V 17.624137 16.882623 H 35.02562 34.284106 v 0.741514 0.741515 H 33.495228 32.70487 v -0.741515 -0.741514 h -0.717832 -0.717835 v 0.741514 0.741515 H 30.478848 29.68997 v -0.741515 -0.741514 h -0.741516 -0.742992 v 0.741514 0.741515 h -0.765197 -0.765196 v -0.741515 -0.741514 h -0.742995 -0.741515 v 0.741514 0.741515 h -0.788877 -0.790357 v -0.741515 -0.741514 h -0.717833 -0.717834 v 0.741514 0.741515 H 21.3853 20.596424 v -0.741515 -0.741514 h -0.741515 z m 12.875124,4.497931 c 0.473752,0 0.948108,0.107437 1.382385,0.321178 0.485094,0.238746 1.063248,0.806172 1.30838,1.283219 0.368435,0.717 0.343636,0.38848 0.371499,4.959711 l 0.02515,4.099794 0.404059,0.290096 c 1.646005,1.176484 2.587944,2.993339 2.587182,4.993747 -0.0013,3.028 -2.298253,5.629405 -5.313442,6.019441 -2.852455,0.368981 -5.609434,-1.369485 -6.527123,-4.114597 -0.392199,-1.173182 -0.418778,-2.391812 -0.07696,-3.638006 0.138308,-0.504249 0.612397,-1.448174 0.953165,-1.900406 0.357389,-0.474293 1.034814,-1.123879 1.481549,-1.420865 l 0.337455,-0.224972 0.01479,-4.101275 c 0.0164,-4.578117 -0.0085,-4.243188 0.361165,-4.962672 0.245135,-0.477046 0.823286,-1.044471 1.30838,-1.283217 0.434281,-0.213736 0.908636,-0.321177 1.382389,-0.321173 z m 0,1.579234 c -0.314695,0 -0.409423,0.02198 -0.661592,0.147999 -0.341153,0.17048 -0.593608,0.450022 -0.729673,0.808121 -0.08849,0.232995 -0.09176,0.415106 -0.09176,4.681459 v 4.44021 l -0.324133,0.137645 c -1.033006,0.440075 -1.937836,1.364433 -2.369589,2.419915 -1.068297,2.611618 0.471108,5.527838 3.244311,6.145249 0.494638,0.110153 1.646824,0.07586 2.12538,-0.06365 2.139,-0.623511 3.506106,-2.604992 3.302036,-4.786544 -0.149344,-1.596496 -1.124575,-2.981619 -2.567922,-3.649844 L 33.471554,33.03462 v -4.43873 c -7.35e-4,-4.26404 -0.0046,-4.447041 -0.09324,-4.679978 -0.136066,-0.358097 -0.38852,-0.637643 -0.729674,-0.80812 -0.25217,-0.126007 -0.346903,-0.148006 -0.661592,-0.148006 z" />
  </g>
</svg>
