<?xml version="1.0" encoding="UTF-8" standalone="no"?>
<svg
   width="64"
   height="64"
   version="1.1"
   id="svg73"
   sodipodi:docname="Logo.svg"
   inkscape:version="1.3.2 (091e20ef0f, 2023-11-25)"
   xmlns:inkscape="http://www.inkscape.org/namespaces/inkscape"
   xmlns:sodipodi="http://sodipodi.sourceforge.net/DTD/sodipodi-0.dtd"
   xmlns="http://www.w3.org/2000/svg"
   xmlns:svg="http://www.w3.org/2000/svg"
   xmlns:rdf="http://www.w3.org/1999/02/22-rdf-syntax-ns#"
   xmlns:cc="http://creativecommons.org/ns#"
   xmlns:dc="http://purl.org/dc/elements/1.1/">
  <metadata
     id="metadata77">
    <rdf:RDF>
      <cc:Work
         rdf:about="">
        <dc:format>image/svg+xml</dc:format>
        <dc:type
           rdf:resource="http://purl.org/dc/dcmitype/StillImage" />
      </cc:Work>
    </rdf:RDF>
  </metadata>
  <sodipodi:namedview
     pagecolor="#f5f7fa"
     bordercolor="#666666"
     borderopacity="1"
     objecttolerance="10"
     gridtolerance="10"
     guidetolerance="10"
     inkscape:pageopacity="0"
     inkscape:pageshadow="2"
     inkscape:window-width="1377"
     inkscape:window-height="886"
     id="namedview75"
     showgrid="false"
     inkscape:zoom="6.2890624"
     inkscape:cx="28.939131"
     inkscape:cy="27.905591"
     inkscape:window-x="181"
     inkscape:window-y="77"
     inkscape:window-maximized="0"
     inkscape:current-layer="g877"
     inkscape:document-rotation="0"
     inkscape:pagecheckerboard="0"
     inkscape:showpageshadow="2"
     inkscape:deskcolor="#d1d1d1" />
  <defs
     id="defs29">
    <linearGradient
       id="b"
       x1="399.57"
       x2="399.57"
       y1="545.8"
       y2="517.8"
       gradientTransform="matrix(2.1429,0,0,2.1429,-825.86391,-1107.6662)"
       gradientUnits="userSpaceOnUse">
      <stop
         stop-color="#3889e9"
         offset="0"
         id="stop2" />
      <stop
         stop-color="#5ea5fb"
         offset="1"
         id="stop4" />
    </linearGradient>
    <linearGradient
       id="d"
       x2="1"
       gradientTransform="matrix(14.905727,-4.7106182,4.7106182,14.905727,322.04962,998.26962)"
       gradientUnits="userSpaceOnUse">
      <stop
         stop-color="#fafafa"
         offset="0"
         id="stop7" />
      <stop
         stop-color="#aaa"
         offset="1"
         id="stop8" />
    </linearGradient>
    <linearGradient
       id="e"
       x2="1"
       gradientTransform="matrix(21.439909,0,0,21.439909,26.63554,1159.7788)"
       gradientUnits="userSpaceOnUse">
      <stop
         stop-color="#f0f0f0"
         offset="0"
         id="stop9" />
      <stop
         stop-color="#b7f1ff"
         offset="1"
         id="stop10" />
    </linearGradient>
  </defs>
  <circle
     cx="32.516094"
     cy="31.877844"
     r="0"
     fill="url(#b)"
     stroke-width="1.5715"
     id="circle41"
     style="fill:url(#b)" />
  <g
     aria-label="GZ"
     transform="matrix(1.2212657,0,0,0.81882264,0.4960938,-0.1661539)"
     id="text93"
     style="font-weight:bold;font-size:11.5263px;line-height:1.25;font-family:sans-serif;-inkscape-font-specification:'sans-serif Bold';fill:#f2f2f2;stroke-width:0.288159" />
  <g
     id="g877"
     transform="matrix(1.1,0,0,1.1,-3.1845928,-3.2065454)">
    <rect
       x="6.3010068"
       y="5.4939413"
       width="51.635597"
       height="53.148327"
       rx="10.980581"
       ry="10.720582"
       fill="url(#linearGradient862)"
       stroke-width="3.0541"
       id="rect35-7-3"
       style="fill:#414141;fill-opacity:1;stroke:#dfdfdf;stroke-width:2.27272727;stroke-dasharray:none;stroke-opacity:1" />
    <path
       id="path13"
       style="fill:#dfdfdf;fill-opacity:1;stroke-width:0.172249"
       d="m 16.812644,15.045041 -0.0018,0.988991 -0.0018,0.990767 -0.225497,0.15625 c -0.124215,0.08589 -0.284935,0.247579 -0.3569,0.358665 l -0.131332,0.202415 h -0.990767 -0.988992 v 0.891335 0.88956 h 0.88956 0.88956 v 0.946378 0.948153 h -0.759944 c -1.116952,0.0012 -1.019176,-0.08403 -1.019176,0.896662 v 0.82564 h 0.88956 0.88956 v 0.948152 0.946378 l -0.759944,0.0018 c -1.119022,0.0012 -1.019176,-0.09074 -1.019176,0.923295 v 0.855824 h 0.88956 0.88956 v 0.917926 0.917969 h -0.88956 -0.88956 v 0.891335 0.88956 h 0.88956 0.88956 v 0.946378 0.948153 h -0.88956 -0.88956 v 0.861151 0.86115 h 0.88956 0.88956 v 0.948153 0.946378 h -0.88956 -0.88956 v 0.88956 0.891335 h 0.88956 0.88956 v 0.917969 0.917969 h -0.88956 -0.88956 v 0.891335 0.88956 h 0.88956 0.88956 v 0.946378 0.948153 h -0.854049 -0.854048 l -0.03551,0.179332 c -0.01974,0.09868 -0.03551,0.486151 -0.03551,0.861151 v 0.681818 h 0.889559 0.88956 v 0.948153 0.946378 h -0.88956 -0.88956 v 0.88956 0.891335 l 0.988992,0.0018 0.990767,0.0018 0.15625,0.225497 c 0.08589,0.124202 0.247579,0.284923 0.358665,0.35689 l 0.202414,0.131391 v 0.990768 0.988991 h 0.891336 0.889559 v -0.889644 -0.88956 h 0.946379 0.948152 v 0.88956 0.889559 h 0.861151 0.861151 v -0.889559 -0.88956 h 0.948153 0.946378 v 0.88956 0.889559 h 0.88956 0.891335 v -0.889559 -0.88956 h 0.917969 0.917969 v 0.88956 0.889559 h 0.891334 0.88956 v -0.889559 -0.88956 h 0.946379 0.948152 v 0.88956 0.889559 h 0.861151 0.861151 v -0.889559 -0.88956 h 0.948153 0.946378 v 0.88956 0.889559 h 0.88956 0.891335 v -0.889559 -0.88956 h 0.917969 0.917969 v 0.88956 0.889559 h 0.891334 0.88956 v -0.889559 -0.88956 h 0.946379 0.948152 v 0.88956 0.889559 h 0.861151 0.861151 v -0.889559 -0.88956 h 0.948153 0.946378 v 0.88956 0.889559 h 0.88956 0.891335 v -0.988991 -0.990767 l 0.202415,-0.131392 c 0.111085,-0.07196 0.272774,-0.232687 0.358665,-0.356889 l 0.15625,-0.225497 0.990767,-0.0018 0.988991,-0.0018 v -0.89125 -0.88956 h -0.889559 -0.88956 v -0.94636 -0.948153 h 0.88956 0.889559 v -0.861151 -0.86115 h -0.889559 -0.88956 v -0.948153 -0.946378 h 0.88956 0.889559 v -0.88956 -0.891335 h -0.889559 -0.88956 v -0.917969 -0.917969 h 0.88956 0.889559 v -0.891335 -0.88956 h -0.889559 -0.88956 V 34.9971 34.048947 h 0.88956 0.889559 v -0.86115 -0.861151 h -0.889559 -0.88956 v -0.948153 -0.946378 h 0.88956 0.889559 v -0.88956 -0.891335 h -0.889559 -0.88956 v -0.917969 -0.917969 h 0.88956 0.889559 v -0.891335 -0.88956 h -0.889559 -0.88956 v -0.946378 -0.948152 h 0.88956 0.889559 v -0.861151 -0.861151 h -0.889559 -0.88956 v -0.948153 -0.946378 h 0.88956 0.889559 v -0.88956 -0.891335 H 49.412077 48.42131 l -0.131392,-0.202415 c -0.07197,-0.111086 -0.232688,-0.272773 -0.356889,-0.358665 l -0.225498,-0.15625 -0.0018,-0.990767 -0.0018,-0.988991 h -0.89125 -0.88956 V 15.9346 16.82416 H 44.976707 44.028554 V 15.9346 15.045041 H 43.167403 42.306252 V 15.9346 16.82416 H 41.3581 40.411721 V 15.9346 15.045041 h -0.88956 -0.891334 V 15.9346 16.82416 H 37.712858 36.794889 V 15.9346 15.045041 h -0.891335 -0.88956 V 15.9346 16.82416 H 34.067616 33.119463 V 15.9346 15.045041 H 32.258312 31.397161 V 15.9346 16.82416 H 30.449009 29.50263 V 15.9346 15.045041 H 28.61307 27.721736 V 15.9346 16.82416 H 26.803767 25.885798 V 15.9346 15.045041 h -0.891335 -0.88956 V 15.9346 16.82416 H 23.158525 22.210372 V 15.9346 15.045041 H 21.349221 20.48807 V 15.9346 16.82416 H 19.539918 18.593539 V 15.9346 15.045041 H 17.70398 Z m 15.445668,5.395952 c 0.568338,0 1.1374,0.128889 1.658381,0.385298 0.581946,0.286412 1.275529,0.967127 1.569602,1.539417 0.441988,0.860151 0.412241,0.466041 0.445668,5.949929 l 0.03018,4.918324 0.48473,0.348012 c 1.974596,1.411378 3.104602,3.59097 3.103693,5.990767 -0.0015,3.632554 -2.757112,6.753331 -6.374289,7.221236 -3.421932,0.442646 -6.729348,-1.642903 -7.830257,-4.93608 -0.4705,-1.407413 -0.502386,-2.869339 -0.09233,-4.364347 0.165922,-0.604926 0.734664,-1.737307 1.143466,-2.279829 0.428744,-0.568986 1.241416,-1.348263 1.777343,-1.704545 l 0.40483,-0.269887 0.01775,-4.9201 c 0.01963,-5.49215 -0.01028,-5.090352 0.433239,-5.95348 0.294073,-0.57229 0.987656,-1.253005 1.569602,-1.539417 0.520984,-0.256409 1.090047,-0.385298 1.658384,-0.385298 z m 0,1.894531 c -0.377516,0 -0.491163,0.02639 -0.793679,0.177556 -0.409265,0.204513 -0.712123,0.539869 -0.875355,0.969461 -0.106163,0.279514 -0.110085,0.497983 -0.110085,5.616122 v 5.326704 l -0.38885,0.165129 c -1.23925,0.52793 -2.324732,1.636837 -2.842684,2.903053 -1.281584,3.133039 0.565167,6.631481 3.892045,7.372159 0.593393,0.132106 1.975616,0.091 2.549716,-0.07635 2.566055,-0.748004 4.206104,-3.12509 3.961293,-5.742188 -0.179159,-1.915248 -1.349098,-3.576915 -3.080611,-4.378551 l -0.530895,-0.246807 v -5.32493 c -8.82e-4,-5.115364 -0.0056,-5.3349 -0.11186,-5.614346 -0.163232,-0.429592 -0.466089,-0.764948 -0.875356,-0.969461 -0.302515,-0.151165 -0.416162,-0.177556 -0.793679,-0.177556 z" />
  </g>
</svg>
