<?xml version="1.0" encoding="UTF-8" standalone="no"?>
<svg
   width="64"
   height="64"
   version="1.1"
   id="svg73"
   sodipodi:docname="com.raggesilver.BlackBox.svg"
   inkscape:version="1.4.2 (ebf0e940d0, 2025-05-08)"
   xmlns:inkscape="http://www.inkscape.org/namespaces/inkscape"
   xmlns:sodipodi="http://sodipodi.sourceforge.net/DTD/sodipodi-0.dtd"
   xmlns="http://www.w3.org/2000/svg"
   xmlns:svg="http://www.w3.org/2000/svg"
   xmlns:rdf="http://www.w3.org/1999/02/22-rdf-syntax-ns#"
   xmlns:cc="http://creativecommons.org/ns#"
   xmlns:dc="http://purl.org/dc/elements/1.1/">
  <metadata
     id="metadata77">
    <rdf:RDF>
      <cc:Work
         rdf:about="">
        <dc:format>image/svg+xml</dc:format>
        <dc:type
           rdf:resource="http://purl.org/dc/dcmitype/StillImage" />
      </cc:Work>
    </rdf:RDF>
  </metadata>
  <sodipodi:namedview
     pagecolor="#f5f7fa"
     bordercolor="#666666"
     borderopacity="1"
     objecttolerance="10"
     gridtolerance="10"
     guidetolerance="10"
     inkscape:pageopacity="0"
     inkscape:pageshadow="2"
     inkscape:window-width="1315"
     inkscape:window-height="742"
     id="namedview75"
     showgrid="false"
     inkscape:zoom="4.4470387"
     inkscape:cx="45.086183"
     inkscape:cy="30.919452"
     inkscape:window-x="24"
     inkscape:window-y="21"
     inkscape:window-maximized="0"
     inkscape:current-layer="g877"
     inkscape:document-rotation="0"
     inkscape:pagecheckerboard="0"
     inkscape:showpageshadow="2"
     inkscape:deskcolor="#d1d1d1" />
  <defs
     id="defs29">
    <linearGradient
       id="b"
       x1="399.57"
       x2="399.57"
       y1="545.8"
       y2="517.8"
       gradientTransform="matrix(2.1429,0,0,2.1429,-825.86391,-1107.6662)"
       gradientUnits="userSpaceOnUse">
      <stop
         stop-color="#3889e9"
         offset="0"
         id="stop2" />
      <stop
         stop-color="#5ea5fb"
         offset="1"
         id="stop4" />
    </linearGradient>
  </defs>
  <circle
     cx="32.516094"
     cy="31.877844"
     r="0"
     fill="url(#b)"
     stroke-width="1.5715"
     id="circle41"
     style="fill:url(#b)" />
  <g
     aria-label="GZ"
     transform="matrix(1.2212657,0,0,0.81882264,0.4960938,-0.1661539)"
     id="text93"
     style="font-weight:bold;font-size:11.5263px;line-height:1.25;font-family:sans-serif;-inkscape-font-specification:'sans-serif Bold';fill:#f2f2f2;stroke-width:0.288159" />
  <g
     id="g877"
     transform="matrix(1.1,0,0,1.1,-3.1845928,-3.2065454)">
    <rect
       x="8.3496294"
       y="8.369586"
       width="47.272728"
       height="47.272728"
       rx="9.8825235"
       ry="9.6485243"
       fill="url(#linearGradient862)"
       stroke-width="3.0541"
       id="rect35-7-3"
       style="fill:#414141;fill-opacity:1;stroke:#dfdfdf;stroke-width:2.04545;stroke-dasharray:none;stroke-opacity:1" />
    <path
       style="fill:#dfdfdf;stroke-width:0.080572;fill-opacity:1"
       d="m 31.579414,33.12929 c 0.184021,-0.356134 0.519188,-0.912463 0.74483,-1.236277 0.514875,-0.738888 0.511134,-0.729268 0.876017,-2.252875 0.655215,-2.735978 2.122781,-4.580578 4.446177,-5.588443 1.831111,-0.794317 3.601577,-0.89008 6.560363,-0.354841 0.957627,0.173233 4.725202,1.491177 4.6034,1.610323 -0.04091,0.04001 -0.570924,0.526374 -1.177818,1.08079 -0.606896,0.554417 -1.417502,1.403774 -1.801346,1.887458 -0.383841,0.483685 -0.903765,1.135975 -1.155384,1.449532 -2.776419,3.459846 -5.79906,4.461691 -9.426171,3.124279 l -0.982153,-0.362149 0.248723,-0.537045 c 0.702286,-1.516297 2.354417,-3.258221 4.110086,-4.333456 0.89753,-0.549678 2.457254,-1.211551 3.250611,-1.379403 0.276411,-0.05848 0.519162,-0.148349 0.539443,-0.199705 0.05304,-0.134317 -0.362179,-0.143169 -1.081835,-0.02307 -2.76532,0.461493 -5.406451,2.188667 -7.400378,4.839496 -0.511528,0.68005 -1.485628,2.290741 -1.674274,2.768441 l -0.189684,0.480329 -0.412585,-0.162932 -0.41259,-0.162934 z m -1.755315,-5.331152 c -0.893673,-0.670952 -1.344651,-1.218003 -1.793798,-2.175939 -0.499282,-1.064861 -0.675506,-2.430774 -0.539976,-4.185344 0.05,-0.647286 0.08691,-1.282415 0.08202,-1.411399 -0.0049,-0.128985 -3.35e-4,-0.542995 0.01012,-0.920025 0.01046,-0.377033 -0.01901,-1.029693 -0.06547,-1.450361 -0.10091,-0.913572 -0.08381,-0.976405 0.23179,-0.851773 0.134145,0.05297 0.289448,0.06233 0.345116,0.02079 0.155916,-0.116357 1.117344,0.309741 1.272099,0.563781 0.07481,0.122814 0.281501,0.280749 0.459304,0.350964 0.418585,0.165301 1.979741,1.17661 2.664091,1.725785 1.498731,1.202694 2.546975,3.025793 2.607236,4.534486 0.01075,0.269193 -0.07098,0.404505 -0.570522,0.944516 -0.320692,0.346671 -0.752853,0.898974 -0.960361,1.227337 l -0.377286,0.597029 -0.04417,-0.662749 c -0.07374,-1.106452 -0.313913,-2.116142 -0.734156,-3.086379 -0.407988,-0.941942 -1.040381,-1.917282 -1.439171,-2.219635 -0.201993,-0.153147 -0.201675,-0.127325 0.0035,0.2836 1.020234,2.043277 1.389045,3.249741 1.465721,4.794706 0.03279,0.660571 -0.182651,2.465445 -0.345316,2.89296 -0.07319,0.192415 -1.577127,-0.451562 -2.270773,-0.972354 z"
       id="path1" />
    <path
       id="path27"
       style="fill:#dfdfdf;fill-opacity:1;stroke:none;stroke-width:0.396943;stroke-dasharray:none;stroke-opacity:0.6"
       d="m 16.042266,30.208611 v 1.246908 1.246909 l 2.393664,1.248576 c 3.290569,1.714414 4.591789,2.448035 4.650452,2.624015 0.05001,0.149971 -1.580612,1.083383 -5.136197,2.944504 l -1.907919,0.999865 v 1.24357 1.243571 l 1.07498,-0.589237 c 0.591739,-0.324049 2.670053,-1.466186 4.617067,-2.538883 l 3.538747,-1.95132 0.03674,-1.315347 0.03673,-1.317015 -3.784127,-2.081518 c -2.081815,-1.144753 -4.174928,-2.288416 -4.65214,-2.542222 z m 13.742703,14.457124 v 2.360276 h 5.344851 5.344849 V 44.665735 H 35.12982 Z"
       sodipodi:nodetypes="cccccccccccccccccccccccc" />
  </g>
</svg>
