<?xml version="1.0" encoding="UTF-8" standalone="no"?>
<svg
   width="64"
   height="64"
   version="1.1"
   id="svg73"
   sodipodi:docname="pulseeffects.svg"
   inkscape:version="1.3.2 (091e20ef0f, 2023-11-25)"
   xmlns:inkscape="http://www.inkscape.org/namespaces/inkscape"
   xmlns:sodipodi="http://sodipodi.sourceforge.net/DTD/sodipodi-0.dtd"
   xmlns="http://www.w3.org/2000/svg"
   xmlns:svg="http://www.w3.org/2000/svg"
   xmlns:rdf="http://www.w3.org/1999/02/22-rdf-syntax-ns#"
   xmlns:cc="http://creativecommons.org/ns#"
   xmlns:dc="http://purl.org/dc/elements/1.1/">
  <metadata
     id="metadata77">
    <rdf:RDF>
      <cc:Work
         rdf:about="">
        <dc:format>image/svg+xml</dc:format>
        <dc:type
           rdf:resource="http://purl.org/dc/dcmitype/StillImage" />
      </cc:Work>
    </rdf:RDF>
  </metadata>
  <sodipodi:namedview
     pagecolor="#f5f7fa"
     bordercolor="#666666"
     borderopacity="1"
     objecttolerance="10"
     gridtolerance="10"
     guidetolerance="10"
     inkscape:pageopacity="0"
     inkscape:pageshadow="2"
     inkscape:window-width="1377"
     inkscape:window-height="886"
     id="namedview75"
     showgrid="false"
     inkscape:zoom="6.2890624"
     inkscape:cx="47.701864"
     inkscape:cy="45.396274"
     inkscape:window-x="74"
     inkscape:window-y="53"
     inkscape:window-maximized="0"
     inkscape:current-layer="g877"
     inkscape:document-rotation="0"
     inkscape:pagecheckerboard="0"
     inkscape:showpageshadow="2"
     inkscape:deskcolor="#d1d1d1" />
  <defs
     id="defs29">
    <linearGradient
       id="b"
       x1="399.57"
       x2="399.57"
       y1="545.8"
       y2="517.8"
       gradientTransform="matrix(2.1429,0,0,2.1429,-825.86391,-1107.6662)"
       gradientUnits="userSpaceOnUse">
      <stop
         stop-color="#3889e9"
         offset="0"
         id="stop2" />
      <stop
         stop-color="#5ea5fb"
         offset="1"
         id="stop4" />
    </linearGradient>
    <linearGradient
       id="d"
       x2="1"
       gradientTransform="matrix(-0.05080327,-21.888455,21.888455,-0.05080327,26.129267,35.636314)"
       gradientUnits="userSpaceOnUse">
      <stop
         stop-color="#c52828"
         offset="0"
         id="stop7" />
      <stop
         stop-color="#ff5454"
         offset="1"
         id="stop8" />
    </linearGradient>
  </defs>
  <circle
     cx="32.516094"
     cy="31.877844"
     r="0"
     fill="url(#b)"
     stroke-width="1.5715"
     id="circle41"
     style="fill:url(#b)" />
  <g
     aria-label="GZ"
     transform="matrix(1.2212657,0,0,0.81882264,0.4960938,-0.1661539)"
     id="text93"
     style="font-weight:bold;font-size:11.5263px;line-height:1.25;font-family:sans-serif;-inkscape-font-specification:'sans-serif Bold';fill:#f2f2f2;stroke-width:0.288159" />
  <g
     id="g877"
     transform="matrix(1.1,0,0,1.1,-3.1845928,-3.2065454)">
    <rect
       x="6.3010068"
       y="5.4939413"
       width="51.635597"
       height="53.148327"
       rx="10.980581"
       ry="10.720582"
       fill="url(#linearGradient862)"
       stroke-width="3.0541"
       id="rect35-7-3"
       style="fill:#414141;fill-opacity:1;stroke:#dfdfdf;stroke-width:2.27272727;stroke-dasharray:none;stroke-opacity:1" />
    <path
       d="m 36.318083,16.487589 -14.48128,3.917132 c -1.087426,0.306129 -1.964556,1.520002 -1.964556,2.699268 v 18.693895 c -1.103398,-0.605605 -2.518252,-0.849178 -3.987675,-0.449878 -2.650021,0.721402 -4.31111,3.051982 -3.742773,5.204209 0.567007,2.152227 3.179759,3.356783 5.82978,2.63538 2.113629,-0.574991 3.569742,-2.205466 3.801337,-3.921125 L 21.836806,27.601438 34.81938,23.95716 v 13.400507 c -0.962313,-0.342066 -2.07636,-0.435236 -3.229007,-0.121121 -2.650021,0.720071 -4.308446,3.050653 -3.740109,5.204211 0.568337,2.152227 3.177097,3.355451 5.827118,2.634049 1.882033,-0.511104 3.236992,-1.858076 3.677553,-3.358114 0.473835,-0.875798 0.689458,-1.862068 0.689458,-2.256044 0,-0.12377 0.01597,-0.417934 0.0173,-0.548372 v -0.489809 c 0.06523,-0.483153 0.302137,-0.873135 0.935693,-0.873135 0.642873,0 0.89177,0.392644 0.986271,0.873135 h 0.02263 v 2.18284 c 0,0.724065 0.435239,1.308374 0.972963,1.308374 0.536391,0 0.972961,-0.584309 0.972961,-1.308374 v -4.802248 c 0,-0.384658 0.35937,-1.74494 0.648195,-1.74494 0.287498,0 0.648199,1.360282 0.648199,1.74494 v 0.437899 c 0,0.724065 0.437899,1.308374 0.975621,1.308374 0.536395,0 0.971632,-0.584309 0.971632,-1.308374 v -3.929107 c 0,-0.385991 0.360699,-0.873136 0.649528,-0.873136 0.287496,0 0.648195,0.487145 0.648195,0.873136 v 0.437899 c 0,0.722733 0.435239,1.308373 0.971632,1.308373 0.537722,0 0.972961,-0.58564 0.972961,-1.308373 v -1.311035 h 2.91755 c 0.537726,0 0.972963,-0.584309 0.972963,-1.307042 0,-0.724065 -0.435237,-1.311035 -0.972963,-1.311035 h -2.917549 v -1.308373 c 0,-0.722733 -0.435238,-1.309704 -0.972961,-1.309704 -0.536393,0 -0.971631,0.586971 -0.971631,1.309704 v 0.435237 c 0,0.38599 -0.3607,0.873136 -0.648196,0.873136 -0.288828,0 -0.649528,-0.487146 -0.649528,-0.873136 v -3.92645 c 0,-0.722733 -0.435237,-1.311035 -0.971631,-1.311035 -0.537723,0 -0.975622,0.588302 -0.975622,1.311035 v 0.435237 c 0,0.38599 -0.360701,1.746272 -0.648198,1.746272 -0.288826,0 -0.648196,-1.360282 -0.648196,-1.746272 v -4.799587 c 0,-0.722732 -0.436569,-1.311034 -0.972961,-1.311034 -0.537724,0 -0.972962,0.588302 -0.972962,1.311034 v 2.181509 c -0.06655,0.481823 -0.312784,0.871806 -1.008898,0.871806 -0.633555,0 -0.83986,-0.389983 -0.906411,-0.871806 l -0.193,-0.887776 c -0.0013,-0.129107 -0.157058,-1.98186 -0.196987,-2.100318 -0.103818,-0.303468 -0.131769,-0.626901 -0.191664,-0.930369 -0.08785,-0.75867 -0.553696,-1.320351 -1.191246,-1.432155 z"
       fill="url(#d)"
       fill-rule="nonzero"
       id="path11"
       style="fill:#dfdfdf;fill-opacity:1;stroke-width:1.331" />
  </g>
</svg>
