<?xml version="1.0" encoding="UTF-8" standalone="no"?>
<svg
   width="64"
   height="64"
   version="1.1"
   id="svg73"
   sodipodi:docname="audacious.svg"
   inkscape:version="1.4.2 (ebf0e940d0, 2025-05-08)"
   xmlns:inkscape="http://www.inkscape.org/namespaces/inkscape"
   xmlns:sodipodi="http://sodipodi.sourceforge.net/DTD/sodipodi-0.dtd"
   xmlns="http://www.w3.org/2000/svg"
   xmlns:svg="http://www.w3.org/2000/svg"
   xmlns:rdf="http://www.w3.org/1999/02/22-rdf-syntax-ns#"
   xmlns:cc="http://creativecommons.org/ns#"
   xmlns:dc="http://purl.org/dc/elements/1.1/">
  <metadata
     id="metadata77">
    <rdf:RDF>
      <cc:Work
         rdf:about="">
        <dc:format>image/svg+xml</dc:format>
        <dc:type
           rdf:resource="http://purl.org/dc/dcmitype/StillImage" />
      </cc:Work>
    </rdf:RDF>
  </metadata>
  <sodipodi:namedview
     pagecolor="#f5f7fa"
     bordercolor="#666666"
     borderopacity="1"
     objecttolerance="10"
     gridtolerance="10"
     guidetolerance="10"
     inkscape:pageopacity="0"
     inkscape:pageshadow="2"
     inkscape:window-width="1377"
     inkscape:window-height="886"
     id="namedview75"
     showgrid="false"
     inkscape:zoom="6.2890624"
     inkscape:cx="46.82733"
     inkscape:cy="41.739131"
     inkscape:window-x="0"
     inkscape:window-y="49"
     inkscape:window-maximized="0"
     inkscape:current-layer="g877"
     inkscape:document-rotation="0"
     inkscape:pagecheckerboard="0"
     inkscape:showpageshadow="2"
     inkscape:deskcolor="#d1d1d1" />
  <defs
     id="defs29" />
  <circle
     cx="32.516094"
     cy="31.877844"
     r="0"
     fill="url(#b)"
     stroke-width="1.5715"
     id="circle41"
     style="fill:url(#b)" />
  <g
     aria-label="GZ"
     transform="matrix(1.2212657,0,0,0.81882264,0.4960938,-0.1661539)"
     id="text93"
     style="font-weight:bold;font-size:11.5263px;line-height:1.25;font-family:sans-serif;-inkscape-font-specification:'sans-serif Bold';fill:#f2f2f2;stroke-width:0.288159" />
  <g
     id="g877"
     transform="matrix(1.1,0,0,1.1,-3.1845928,-3.2065454)">
    <rect
       x="8.3496294"
       y="8.369586"
       width="47.272728"
       height="47.272728"
       rx="9.8825235"
       ry="9.6485243"
       fill="url(#linearGradient862)"
       stroke-width="3.0541"
       id="rect35-7-3"
       style="fill:#414141;fill-opacity:1;stroke:#dfdfdf;stroke-width:2.04545;stroke-dasharray:none;stroke-opacity:1" />
    <path
       id="path6-5"
       style="fill:#dfdfdf;stroke-width:0.0436943;fill-opacity:1"
       d="m 32.534409,16.548228 c -0.857903,-0.01296 -1.979961,0.0259 -2.503492,0.09841 -1.787567,0.247534 -3.300128,0.709073 -4.87181,1.486957 -1.661323,0.822251 -2.933523,1.747369 -4.24134,3.0853 -2.50539,2.563077 -4.023849,5.861578 -4.342995,9.432168 -0.05792,0.64798 -0.05817,2.066794 0,2.710046 0.276209,3.054416 1.432852,5.929216 3.348085,8.323717 0.787246,0.984237 2.078164,2.206976 3.072323,2.910105 2.260892,1.599047 4.879619,2.578245 7.560227,2.827922 0.592011,0.05513 2.204882,0.05828 2.796559,0.0056 2.388747,-0.213557 4.810071,-1.01969 6.782686,-2.259095 3.659159,-2.299066 6.193372,-5.928341 7.024917,-10.060478 0.246612,-1.225264 0.281178,-1.606734 0.281178,-3.102602 0,-1.495727 -0.03461,-1.876879 -0.281178,-3.102603 -0.467697,-2.325329 -1.46734,-4.482077 -2.997702,-6.46705 -0.501683,-0.650715 -1.944701,-2.09373 -2.595414,-2.595414 -2.488264,-1.91839 -5.253313,-3.006258 -8.294512,-3.262652 -0.195359,-0.01645 -0.451562,-0.02595 -0.737532,-0.03027 z m 2.318572,4.375436 c 0.22403,0.01396 0.45033,0.07256 0.669399,0.1806 0.36758,0.181267 0.576545,0.399921 0.773218,0.808904 l 0.136257,0.283331 0.01297,2.458073 0.01189,2.456994 0.206553,-0.102732 c 0.322428,-0.162414 0.78371,-0.317293 1.279326,-0.428242 0.387184,-0.08667 0.576694,-0.101651 1.264178,-0.101651 0.687497,0 0.875925,0.01499 1.2631,0.101651 0.570628,0.127744 0.960075,0.267505 1.489123,0.53314 2.491462,1.250966 3.820196,4.104818 3.182666,6.835676 -0.568773,2.436271 -2.547443,4.264629 -5.039451,4.655529 -0.446414,0.06999 -1.461899,0.05792 -1.922763,-0.02267 -0.479199,-0.08381 -1.040344,-0.250072 -1.414502,-0.419589 -0.153525,-0.06958 -0.28654,-0.126528 -0.295227,-0.126528 -0.0087,0 -0.01623,0.14741 -0.01623,0.327674 V 38.6915 h -1.68271 -1.682695 l 0.01189,-8.269643 0.01081,-8.268557 0.115716,-0.245484 c 0.310588,-0.662444 0.954373,-1.026133 1.62646,-0.984151 z M 27.5404,26.457305 h 1.682693 1.682695 l -0.01189,8.246929 -0.01081,8.246931 -0.123281,0.267096 c -0.156913,0.339528 -0.495002,0.674641 -0.838104,0.831616 -0.207444,0.09487 -0.339835,0.122868 -0.633713,0.133011 -0.652849,0.02227 -1.135138,-0.226405 -1.480466,-0.764574 -0.260045,-0.405257 -0.267113,-0.489031 -0.267113,-3.058267 0,-1.849774 -0.01185,-2.328343 -0.05515,-2.309921 -1.194348,0.508112 -2.023852,0.664323 -3.143676,0.591563 -2.59468,-0.168604 -4.809966,-2.022857 -5.455797,-4.566846 -0.349222,-1.375618 -0.217561,-2.797802 0.380661,-4.115894 0.366613,-0.807774 1.189847,-1.802066 1.935746,-2.339118 0.697165,-0.501962 1.526483,-0.867306 2.405086,-1.058714 0.580129,-0.126388 1.835123,-0.116694 2.447258,0.01949 0.375034,0.08341 0.909236,0.26037 1.409095,0.466094 0.0686,0.0282 0.07679,-4e-4 0.07679,-0.279008 z m -2.691661,3.36106 c -0.460104,-0.01177 -0.93066,0.09441 -1.368,0.337405 -0.614799,0.341603 -1.158988,1.041364 -1.3388,1.719462 -0.09758,0.367969 -0.09905,0.983645 -0.0032,1.350698 0.282849,1.083711 1.210555,1.910756 2.306673,2.054703 0.542441,0.07124 1.155185,-0.04541 1.675125,-0.317941 0.392346,-0.20565 0.924563,-0.75639 1.124679,-1.164691 0.301512,-0.615171 0.37192,-1.258695 0.208714,-1.896815 -0.320408,-1.252806 -1.429324,-2.052755 -2.605147,-2.082821 z m 14.334256,0.0032 c -1.265645,-0.0023 -2.386657,0.909133 -2.666785,2.168266 -0.343895,1.54574 0.755465,3.085934 2.347766,3.289687 0.919244,0.117628 1.890765,-0.281846 2.46781,-1.014374 0.408529,-0.518597 0.597994,-1.061377 0.596944,-1.712973 -0.0014,-0.766045 -0.253552,-1.356077 -0.820803,-1.923852 -0.547103,-0.547597 -1.161069,-0.805357 -1.924932,-0.80674 z" />
  </g>
</svg>
