<?xml version="1.0" encoding="UTF-8" standalone="no"?>
<svg
   width="64"
   height="64"
   version="1.1"
   id="svg73"
   sodipodi:docname="Logo.svg"
   inkscape:version="1.3.2 (091e20ef0f, 2023-11-25)"
   xmlns:inkscape="http://www.inkscape.org/namespaces/inkscape"
   xmlns:sodipodi="http://sodipodi.sourceforge.net/DTD/sodipodi-0.dtd"
   xmlns="http://www.w3.org/2000/svg"
   xmlns:svg="http://www.w3.org/2000/svg"
   xmlns:rdf="http://www.w3.org/1999/02/22-rdf-syntax-ns#"
   xmlns:cc="http://creativecommons.org/ns#"
   xmlns:dc="http://purl.org/dc/elements/1.1/">
  <metadata
     id="metadata77">
    <rdf:RDF>
      <cc:Work
         rdf:about="">
        <dc:format>image/svg+xml</dc:format>
        <dc:type
           rdf:resource="http://purl.org/dc/dcmitype/StillImage" />
      </cc:Work>
    </rdf:RDF>
  </metadata>
  <sodipodi:namedview
     pagecolor="#f5f7fa"
     bordercolor="#666666"
     borderopacity="1"
     objecttolerance="10"
     gridtolerance="10"
     guidetolerance="10"
     inkscape:pageopacity="0"
     inkscape:pageshadow="2"
     inkscape:window-width="1377"
     inkscape:window-height="886"
     id="namedview75"
     showgrid="false"
     inkscape:zoom="6.2890624"
     inkscape:cx="30.211181"
     inkscape:cy="31.085715"
     inkscape:window-x="181"
     inkscape:window-y="77"
     inkscape:window-maximized="0"
     inkscape:current-layer="g877"
     inkscape:document-rotation="0"
     inkscape:pagecheckerboard="0"
     inkscape:showpageshadow="2"
     inkscape:deskcolor="#d1d1d1" />
  <defs
     id="defs29">
    <linearGradient
       id="b"
       x1="399.57"
       x2="399.57"
       y1="545.8"
       y2="517.8"
       gradientTransform="matrix(2.1429,0,0,2.1429,-825.86391,-1107.6662)"
       gradientUnits="userSpaceOnUse">
      <stop
         stop-color="#3889e9"
         offset="0"
         id="stop2" />
      <stop
         stop-color="#5ea5fb"
         offset="1"
         id="stop4" />
    </linearGradient>
    <linearGradient
       id="d"
       x2="1"
       gradientTransform="matrix(14.905727,-4.7106182,4.7106182,14.905727,322.04962,998.26962)"
       gradientUnits="userSpaceOnUse">
      <stop
         stop-color="#fafafa"
         offset="0"
         id="stop7" />
      <stop
         stop-color="#aaa"
         offset="1"
         id="stop8" />
    </linearGradient>
    <linearGradient
       id="e"
       x2="1"
       gradientTransform="matrix(21.439909,0,0,21.439909,26.63554,1159.7788)"
       gradientUnits="userSpaceOnUse">
      <stop
         stop-color="#f0f0f0"
         offset="0"
         id="stop9" />
      <stop
         stop-color="#b7f1ff"
         offset="1"
         id="stop10" />
    </linearGradient>
    <linearGradient
       id="b-3"
       x2="1"
       gradientTransform="matrix(0,21.143273,-21.143273,0,-327.20917,21.25088)"
       gradientUnits="userSpaceOnUse">
      <stop
         stop-color="#545454"
         offset="0"
         id="stop3" />
      <stop
         stop-color="#242424"
         offset="1"
         id="stop4-6" />
    </linearGradient>
  </defs>
  <circle
     cx="32.516094"
     cy="31.877844"
     r="0"
     fill="url(#b)"
     stroke-width="1.5715"
     id="circle41"
     style="fill:url(#b)" />
  <g
     aria-label="GZ"
     transform="matrix(1.2212657,0,0,0.81882264,0.4960938,-0.1661539)"
     id="text93"
     style="font-weight:bold;font-size:11.5263px;line-height:1.25;font-family:sans-serif;-inkscape-font-specification:'sans-serif Bold';fill:#f2f2f2;stroke-width:0.288159" />
  <g
     id="g877"
     transform="matrix(1.1,0,0,1.1,-3.1845928,-3.2065454)">
    <rect
       x="6.3010068"
       y="5.4939413"
       width="51.635597"
       height="53.148327"
       rx="10.980581"
       ry="10.720582"
       fill="url(#linearGradient862)"
       stroke-width="3.0541"
       id="rect35-7-3"
       style="fill:#414141;fill-opacity:1;stroke:#dfdfdf;stroke-width:2.27272727;stroke-dasharray:none;stroke-opacity:1" />
    <path
       id="path4"
       style="fill:#dfdfdf;stroke-width:0.172249;fill-opacity:1"
       d="m 32.354528,11.592922 c -6.114941,-0.116713 -12.005425,2.471262 -16.047585,7.160866 -4.974332,5.771087 -6.3805743,13.740379 -3.677201,20.84517 0.597738,1.570929 1.500301,3.248739 2.514204,4.675071 1.238987,1.742976 3.073821,3.570737 4.854403,4.833097 2.893926,2.05167 6.391045,3.366311 9.818892,3.693182 0.363158,0.03463 0.763245,0.0727 0.88956,0.08523 0.495026,0.0491 2.909246,-0.0214 3.588424,-0.104759 3.395334,-0.416685 6.281296,-1.477484 9.071377,-3.334516 1.264237,-0.841456 2.009009,-1.455032 3.162287,-2.60831 1.153279,-1.153279 1.766855,-1.89805 2.60831,-3.162288 1.893792,-2.845305 2.966853,-5.815535 3.370029,-9.33061 0.0935,-0.815175 0.0935,-3.375166 0,-4.190341 -0.301899,-2.63209 -0.990432,-4.969925 -2.125356,-7.21591 C 47.36919,16.976784 41.554206,12.773821 34.984145,11.809541 34.106192,11.680685 33.228091,11.609595 32.354528,11.592922 Z m 2.686435,4.09446 c 0.427578,-9.91e-4 0.534179,0.02067 0.861151,0.175781 0.670371,0.318027 1.086525,0.874254 1.207386,1.612216 0.03055,0.186496 0.05485,1.927246 0.05505,3.93821 l 0.0018,3.602628 0.340909,-0.17223 c 2.275573,-1.148706 4.950316,-1.187237 7.290483,-0.106535 1.958362,0.904383 3.634176,2.789868 4.330611,4.872159 0.302884,0.905601 0.40246,1.554229 0.401278,2.64027 -0.0012,1.086128 -0.102748,1.74769 -0.401278,2.64027 -0.826507,2.471194 -2.864177,4.474807 -5.36044,5.269887 -1.18347,0.376943 -2.725829,0.487009 -3.904475,0.276988 -0.663125,-0.118157 -1.733805,-0.468071 -2.288707,-0.747514 L 37.16635,39.483546 v 0.5451 0.546875 h -2.096992 -2.09517 V 28.950876 17.326231 l 0.118977,-0.319602 c 0.168676,-0.450827 0.636542,-0.941007 1.099076,-1.152344 0.305859,-0.139749 0.434877,-0.16594 0.848722,-0.166903 z m -4.133523,8.235085 v 11.62642 c 0,11.586163 3.35e-4,11.626592 -0.117187,11.940696 -0.224977,0.601303 -0.831779,1.121673 -1.482599,1.274858 -0.537302,0.126465 -0.934259,0.07779 -1.434659,-0.175781 -0.370453,-0.187722 -0.828699,-0.699589 -0.994318,-1.10973 l -0.133169,-0.330256 -0.01775,-3.831676 -0.01775,-3.831677 -0.406605,0.204191 c -0.552516,0.278241 -1.623203,0.629565 -2.285157,0.747514 -0.73467,0.130892 -2.028642,0.128469 -2.785866,-0.0035 -3.222902,-0.5619 -5.841001,-2.966786 -6.635298,-6.095526 -0.350912,-1.382243 -0.350912,-2.793894 0,-4.176136 0.691403,-2.723442 2.821324,-4.971591 5.51669,-5.823864 2.014576,-0.637007 4.347241,-0.455575 6.207386,0.481179 l 0.390626,0.195313 0.01598,-0.530896 0.01775,-0.530894 2.080967,-0.01421 z m 10.308949,4.224076 c -0.436061,0.0038 -0.879492,0.07717 -1.313921,0.227273 -0.547872,0.189292 -0.967521,0.451489 -1.45774,0.912642 -0.49572,0.466325 -0.86543,1.03389 -1.088424,1.67081 -0.147636,0.421673 -0.159801,0.528332 -0.159801,1.292613 0,0.755742 0.01321,0.873609 0.152699,1.269531 0.404223,1.147331 1.248482,2.05913 2.329546,2.517757 0.336133,0.1426 0.571632,0.203062 1.219815,0.3125 0.07894,0.01334 0.336665,0.01101 0.573508,-0.0054 1.541698,-0.106335 2.828527,-0.973707 3.480114,-2.34375 0.287941,-0.605429 0.388849,-1.058724 0.388849,-1.75071 0,-0.691985 -0.100908,-1.145281 -0.388849,-1.75071 -0.706825,-1.486184 -2.178435,-2.366124 -3.735796,-2.352628 z m -18.64169,0.0089 c -0.356118,0.0059 -0.711848,0.04969 -0.994318,0.127841 -1.423318,0.393777 -2.458845,1.417266 -2.910156,2.87642 -0.189304,0.612046 -0.189471,1.571237 0,2.180398 0.512636,1.648165 1.794463,2.75825 3.451704,2.990057 0.388048,0.05428 1.001273,0.01615 1.477273,-0.09233 1.31178,-0.298949 2.45554,-1.351188 2.926136,-2.695313 0.147635,-0.421705 0.159801,-0.528364 0.159801,-1.292645 0,-0.76428 -0.01216,-0.87094 -0.159801,-1.292613 -0.474153,-1.354285 -1.592455,-2.378332 -2.954545,-2.707742 -0.284535,-0.06881 -0.639977,-0.09997 -0.996094,-0.09411 z" />
  </g>
</svg>
