<?xml version="1.0" encoding="UTF-8" standalone="no"?>
<svg
   width="64"
   height="64"
   version="1.1"
   id="svg73"
   sodipodi:docname="audacious.svg"
   inkscape:version="1.4.2 (ebf0e940d0, 2025-05-08)"
   xmlns:inkscape="http://www.inkscape.org/namespaces/inkscape"
   xmlns:sodipodi="http://sodipodi.sourceforge.net/DTD/sodipodi-0.dtd"
   xmlns="http://www.w3.org/2000/svg"
   xmlns:svg="http://www.w3.org/2000/svg"
   xmlns:rdf="http://www.w3.org/1999/02/22-rdf-syntax-ns#"
   xmlns:cc="http://creativecommons.org/ns#"
   xmlns:dc="http://purl.org/dc/elements/1.1/">
  <metadata
     id="metadata77">
    <rdf:RDF>
      <cc:Work
         rdf:about="">
        <dc:format>image/svg+xml</dc:format>
        <dc:type
           rdf:resource="http://purl.org/dc/dcmitype/StillImage" />
      </cc:Work>
    </rdf:RDF>
  </metadata>
  <sodipodi:namedview
     pagecolor="#f5f7fa"
     bordercolor="#666666"
     borderopacity="1"
     objecttolerance="10"
     gridtolerance="10"
     guidetolerance="10"
     inkscape:pageopacity="0"
     inkscape:pageshadow="2"
     inkscape:window-width="1377"
     inkscape:window-height="886"
     id="namedview75"
     showgrid="false"
     inkscape:zoom="6.2890624"
     inkscape:cx="46.986336"
     inkscape:cy="44.601243"
     inkscape:window-x="264"
     inkscape:window-y="75"
     inkscape:window-maximized="0"
     inkscape:current-layer="g877"
     inkscape:document-rotation="0"
     inkscape:pagecheckerboard="0"
     inkscape:showpageshadow="2"
     inkscape:deskcolor="#d1d1d1" />
  <defs
     id="defs29" />
  <circle
     cx="32.516094"
     cy="31.877844"
     r="0"
     fill="url(#b)"
     stroke-width="1.5715"
     id="circle41"
     style="fill:url(#b)" />
  <g
     aria-label="GZ"
     transform="matrix(1.2212657,0,0,0.81882264,0.4960938,-0.1661539)"
     id="text93"
     style="font-weight:bold;font-size:11.5263px;line-height:1.25;font-family:sans-serif;-inkscape-font-specification:'sans-serif Bold';fill:#f2f2f2;stroke-width:0.288159" />
  <g
     id="g877"
     transform="matrix(1.1,0,0,1.1,-3.1845928,-3.2065454)">
    <rect
       x="8.3496294"
       y="8.369586"
       width="47.272728"
       height="47.272728"
       rx="9.8825235"
       ry="9.6485243"
       fill="url(#linearGradient862)"
       stroke-width="3.0541"
       id="rect35-7-3"
       style="fill:#414141;fill-opacity:1;stroke:#dfdfdf;stroke-width:2.04545;stroke-dasharray:none;stroke-opacity:1" />
    <path
       d="m 30.493395,31.555189 q 0,2.328541 -0.641922,4.09068 -0.629335,1.749552 -1.837659,2.932705 -1.195736,1.17056 -2.945288,1.762137 -1.736967,0.591572 -3.964813,0.591572 H 16.257832 V 22.530522 h 5.387109 q 2.02646,0 3.650144,0.578987 1.636274,0.578988 2.79425,1.72438 1.157977,1.132803 1.774724,2.819423 0.629336,1.686617 0.629336,3.901877 z m -3.952226,0.100695 q 0,-1.535578 -0.31467,-2.643207 -0.302078,-1.120219 -0.893653,-1.850249 -0.578989,-0.73003 -1.434886,-1.082456 -0.843308,-0.352428 -1.938351,-0.352428 h -1.799901 v 11.982543 h 1.434886 q 2.466994,0 3.700491,-1.510405 1.246084,-1.510404 1.246084,-4.543801 z m 16.979471,-9.12536 h 3.939635 L 41.720739,40.932285 H 37.466432 L 31.739479,22.530524 h 3.939641 l 3.121501,11.076301 q 0.06294,0.213972 0.163634,0.717442 0.113309,0.503467 0.226533,1.107629 0.125879,0.604162 0.239146,1.208324 0.113308,0.604163 0.176205,1.019524 0.06294,-0.415363 0.176207,-1.019524 0.113308,-0.604162 0.239186,-1.195736 0.12588,-0.604162 0.239188,-1.107631 0.12588,-0.503468 0.188819,-0.730028 z"
       id="text6"
       style="font-weight:bold;font-size:8.4665px;font-family:'Droid Sans';-inkscape-font-specification:'Droid Sans Bold';text-align:end;letter-spacing:0px;text-anchor:end;fill:#dfdfdf;stroke:none;stroke-width:0.402774;stroke-opacity:0.6;fill-opacity:1"
       aria-label="DV" />
  </g>
</svg>
