<?xml version="1.0" encoding="UTF-8" standalone="no"?>
<svg
   width="64"
   height="64"
   version="1.1"
   id="svg73"
   sodipodi:docname="partitionmanager.svg"
   inkscape:version="1.3.2 (091e20ef0f, 2023-11-25)"
   xmlns:inkscape="http://www.inkscape.org/namespaces/inkscape"
   xmlns:sodipodi="http://sodipodi.sourceforge.net/DTD/sodipodi-0.dtd"
   xmlns="http://www.w3.org/2000/svg"
   xmlns:svg="http://www.w3.org/2000/svg"
   xmlns:rdf="http://www.w3.org/1999/02/22-rdf-syntax-ns#"
   xmlns:cc="http://creativecommons.org/ns#"
   xmlns:dc="http://purl.org/dc/elements/1.1/">
  <metadata
     id="metadata77">
    <rdf:RDF>
      <cc:Work
         rdf:about="">
        <dc:format>image/svg+xml</dc:format>
        <dc:type
           rdf:resource="http://purl.org/dc/dcmitype/StillImage" />
      </cc:Work>
    </rdf:RDF>
  </metadata>
  <sodipodi:namedview
     pagecolor="#f5f7fa"
     bordercolor="#666666"
     borderopacity="1"
     objecttolerance="10"
     gridtolerance="10"
     guidetolerance="10"
     inkscape:pageopacity="0"
     inkscape:pageshadow="2"
     inkscape:window-width="1377"
     inkscape:window-height="886"
     id="namedview75"
     showgrid="false"
     inkscape:zoom="6.2890624"
     inkscape:cx="47.701864"
     inkscape:cy="45.396274"
     inkscape:window-x="74"
     inkscape:window-y="53"
     inkscape:window-maximized="0"
     inkscape:current-layer="g877"
     inkscape:document-rotation="0"
     inkscape:pagecheckerboard="0"
     inkscape:showpageshadow="2"
     inkscape:deskcolor="#d1d1d1" />
  <defs
     id="defs29">
    <linearGradient
       id="b"
       x1="399.57"
       x2="399.57"
       y1="545.8"
       y2="517.8"
       gradientTransform="matrix(2.1429,0,0,2.1429,-825.86391,-1107.6662)"
       gradientUnits="userSpaceOnUse">
      <stop
         stop-color="#3889e9"
         offset="0"
         id="stop2" />
      <stop
         stop-color="#5ea5fb"
         offset="1"
         id="stop4" />
    </linearGradient>
  </defs>
  <circle
     cx="32.516094"
     cy="31.877844"
     r="0"
     fill="url(#b)"
     stroke-width="1.5715"
     id="circle41"
     style="fill:url(#b)" />
  <g
     aria-label="GZ"
     transform="matrix(1.2212657,0,0,0.81882264,0.4960938,-0.1661539)"
     id="text93"
     style="font-weight:bold;font-size:11.5263px;line-height:1.25;font-family:sans-serif;-inkscape-font-specification:'sans-serif Bold';fill:#f2f2f2;stroke-width:0.288159" />
  <g
     id="g877"
     transform="matrix(1.1,0,0,1.1,-3.1845928,-3.2065454)">
    <rect
       x="6.3010068"
       y="5.4939413"
       width="51.635597"
       height="53.148327"
       rx="10.980581"
       ry="10.720582"
       fill="url(#linearGradient862)"
       stroke-width="3.0541"
       id="rect35-7-3"
       style="fill:#414141;fill-opacity:1;stroke:#dfdfdf;stroke-width:2.27272727;stroke-dasharray:none;stroke-opacity:1" />
    <g
       id="g18"
       transform="matrix(1.4541002,0,0,1.4324608,64.45095,5.7130944)"
       style="fill:#dfdfdf;fill-opacity:1">
      <path
         fill="#ffffff"
         d="m -27.16,5.249 c -4.03,0 -7.05,2.044 -7.05,11.754 0,8.01 2.149,10.798 5.086,11.53 0.524,6.17 6.997,4.312 6.997,4.312 v -2.044 c 0,0 -2.611,0.88 -2.975,-2.29 2.888,-0.769 4.989,-3.586 4.989,-11.508 0,-9.71 -3.02,-11.754 -7.05,-11.754 m 0,2.044 c 2.01,0 3.02,1.689 3.02,9.71 0,8.02 -1.01,9.71 -3.02,9.71 -2.01,0 -3.02,-1.689 -3.02,-9.71 0,-8.02 1.01,-9.71 3.02,-9.71"
         id="path11"
         style="fill:#dfdfdf;fill-opacity:1" />
      <path
         fill="#ffffff"
         fill-rule="evenodd"
         stroke-width="1.014"
         d="m -15.08,7.293 h 3.02 v 4.088 h 2.01 v 2.044 h -2.01 v 11.243 c 0,2.044 2.01,0.511 2.01,0.511 v 2.044 c 0,0 -6.04,3.577 -6.04,-2.555 V 13.425 h -1.01 v -2.044 h 1.01 z"
         id="path13"
         style="fill:#dfdfdf;fill-opacity:1" />
    </g>
    <rect
       x="34.795551"
       y="33.974232"
       width="24.697144"
       height="25.420679"
       rx="5.2519779"
       ry="5.1276212"
       fill="url(#linearGradient862)"
       stroke-width="3.0541"
       id="rect35-7-3-9"
       style="fill:#414141;fill-opacity:1;stroke:#dfdfdf;stroke-width:2.27273;stroke-dasharray:none;stroke-opacity:1" />
    <path
       d="M 44.905045,38.297724 40.322318,55.40136 h 2.866364 l 1.017272,-3.800909 h 5.536364 l 1.017273,3.800909 h 2.866363 L 49.043227,38.297724 Z m 2.069091,2.969091 2.004546,7.482727 h -4.009091 z"
       fill="#ffffff"
       id="path3"
       style="stroke-width:0.909091;fill:#dfdfdf;fill-opacity:1" />
  </g>
</svg>
