<?xml version="1.0" encoding="UTF-8" standalone="no"?>
<svg
   width="64"
   height="64"
   version="1.1"
   id="svg73"
   sodipodi:docname="partitionmanager.svg"
   inkscape:version="1.3.2 (091e20ef0f, 2023-11-25)"
   xmlns:inkscape="http://www.inkscape.org/namespaces/inkscape"
   xmlns:sodipodi="http://sodipodi.sourceforge.net/DTD/sodipodi-0.dtd"
   xmlns="http://www.w3.org/2000/svg"
   xmlns:svg="http://www.w3.org/2000/svg"
   xmlns:rdf="http://www.w3.org/1999/02/22-rdf-syntax-ns#"
   xmlns:cc="http://creativecommons.org/ns#"
   xmlns:dc="http://purl.org/dc/elements/1.1/">
  <metadata
     id="metadata77">
    <rdf:RDF>
      <cc:Work
         rdf:about="">
        <dc:format>image/svg+xml</dc:format>
        <dc:type
           rdf:resource="http://purl.org/dc/dcmitype/StillImage" />
      </cc:Work>
    </rdf:RDF>
  </metadata>
  <sodipodi:namedview
     pagecolor="#f5f7fa"
     bordercolor="#666666"
     borderopacity="1"
     objecttolerance="10"
     gridtolerance="10"
     guidetolerance="10"
     inkscape:pageopacity="0"
     inkscape:pageshadow="2"
     inkscape:window-width="1377"
     inkscape:window-height="886"
     id="namedview75"
     showgrid="false"
     inkscape:zoom="6.2890624"
     inkscape:cx="47.701864"
     inkscape:cy="45.396274"
     inkscape:window-x="74"
     inkscape:window-y="53"
     inkscape:window-maximized="0"
     inkscape:current-layer="g877"
     inkscape:document-rotation="0"
     inkscape:pagecheckerboard="0"
     inkscape:showpageshadow="2"
     inkscape:deskcolor="#d1d1d1" />
  <defs
     id="defs29">
    <linearGradient
       id="b"
       x1="399.57"
       x2="399.57"
       y1="545.8"
       y2="517.8"
       gradientTransform="matrix(2.1429,0,0,2.1429,-825.86391,-1107.6662)"
       gradientUnits="userSpaceOnUse">
      <stop
         stop-color="#3889e9"
         offset="0"
         id="stop2" />
      <stop
         stop-color="#5ea5fb"
         offset="1"
         id="stop4" />
    </linearGradient>
  </defs>
  <circle
     cx="32.516094"
     cy="31.877844"
     r="0"
     fill="url(#b)"
     stroke-width="1.5715"
     id="circle41"
     style="fill:url(#b)" />
  <g
     aria-label="GZ"
     transform="matrix(1.2212657,0,0,0.81882264,0.4960938,-0.1661539)"
     id="text93"
     style="font-weight:bold;font-size:11.5263px;line-height:1.25;font-family:sans-serif;-inkscape-font-specification:'sans-serif Bold';fill:#f2f2f2;stroke-width:0.288159" />
  <g
     id="g877"
     transform="matrix(1.1,0,0,1.1,-3.1845928,-3.2065454)">
    <rect
       x="6.3010068"
       y="5.4939413"
       width="51.635597"
       height="53.148327"
       rx="10.980581"
       ry="10.720582"
       fill="url(#linearGradient862)"
       stroke-width="3.0541"
       id="rect35-7-3"
       style="fill:#414141;fill-opacity:1;stroke:#dfdfdf;stroke-width:2.27272727;stroke-dasharray:none;stroke-opacity:1" />
    <path
       style="fill:#dfdfdf;fill-opacity:1;fill-rule:evenodd;stroke:none;stroke-width:1.089;stroke-dasharray:none;stroke-opacity:0.3"
       d="m 31.63979,22.048011 v 0.0036 c -3.641086,0.03363 -7.305538,0.81544 -10.47717,2.507513 -1.264099,0.775117 -2.781672,1.775885 -3.925267,2.784529 -1.799366,1.658511 -3.339599,3.592001 -4.380156,5.759733 2.852475,5.923606 9.121757,10.266394 16.020232,10.907884 4.525101,0.48221 9.261738,-0.255786 13.239525,-2.363615 1.264066,-0.775117 2.781661,-1.775882 3.92526,-2.784535 1.799373,-1.662111 3.339607,-3.595607 4.380165,-5.759805 C 47.57118,27.180053 41.299117,22.839092 34.402145,22.19903 33.485556,22.096455 32.560129,22.047932 31.63979,22.047932 Z m 0.0074,3.683928 c 4.018962,-0.08732 7.577698,3.440091 7.502073,7.360661 0.129067,4.333119 -4.272102,8.072692 -8.624324,7.263514 -4.395435,-0.506149 -7.483983,-5.343565 -6.038308,-9.440056 0.924304,-3.013804 3.943478,-5.215842 7.164535,-5.180518 z m -0.0074,3.683924 a 3.7565164,3.6818058 0 0 0 -3.756519,3.687527 3.7565164,3.6818058 0 0 0 3.756519,3.680328 3.7565164,3.6818058 0 0 0 3.756519,-3.680328 3.7565164,3.6818058 0 0 0 -3.756519,-3.676734 z"
       id="path24" />
    <rect
       x="34.795551"
       y="33.974232"
       width="24.697144"
       height="25.420679"
       rx="5.2519779"
       ry="5.1276212"
       fill="url(#linearGradient862)"
       stroke-width="3.0541"
       id="rect35-7-3-9"
       style="fill:#414141;fill-opacity:1;stroke:#dfdfdf;stroke-width:2.27273;stroke-dasharray:none;stroke-opacity:1" />
    <path
       d="m 38.952892,41.481451 v 10.736182 h 4.473409 c 2.147833,0 3.876954,-1.729121 3.876954,-3.876955 v -2.982272 c 0,-2.147833 -1.729121,-3.876955 -3.876954,-3.876955 z m 8.197671,0 3.390248,10.736182 h 1.875253 l 3.390247,-10.736182 h -1.875849 l -2.452024,7.766434 -2.452025,-7.766434 z m -6.408308,1.789363 h 2.684046 c 1.187541,0 2.087591,0.900051 2.087591,2.087592 v 2.982272 c 0,1.187541 -0.90005,2.087591 -2.087591,2.087591 h -2.684046 z"
       fill="#ffffff"
       id="path3"
       style="stroke-width:0.596455;fill:#dfdfdf;fill-opacity:1" />
  </g>
</svg>
