<?xml version="1.0" encoding="UTF-8" standalone="no"?>
<svg
   width="64"
   height="64"
   version="1.1"
   id="svg73"
   sodipodi:docname="steam_icon_1934680.svg"
   inkscape:version="1.3.2 (091e20ef0f, 2023-11-25)"
   xmlns:inkscape="http://www.inkscape.org/namespaces/inkscape"
   xmlns:sodipodi="http://sodipodi.sourceforge.net/DTD/sodipodi-0.dtd"
   xmlns="http://www.w3.org/2000/svg"
   xmlns:svg="http://www.w3.org/2000/svg"
   xmlns:rdf="http://www.w3.org/1999/02/22-rdf-syntax-ns#"
   xmlns:cc="http://creativecommons.org/ns#"
   xmlns:dc="http://purl.org/dc/elements/1.1/">
  <metadata
     id="metadata77">
    <rdf:RDF>
      <cc:Work
         rdf:about="">
        <dc:format>image/svg+xml</dc:format>
        <dc:type
           rdf:resource="http://purl.org/dc/dcmitype/StillImage" />
      </cc:Work>
    </rdf:RDF>
  </metadata>
  <sodipodi:namedview
     pagecolor="#f5f7fa"
     bordercolor="#666666"
     borderopacity="1"
     objecttolerance="10"
     gridtolerance="10"
     guidetolerance="10"
     inkscape:pageopacity="0"
     inkscape:pageshadow="2"
     inkscape:window-width="1377"
     inkscape:window-height="886"
     id="namedview75"
     showgrid="false"
     inkscape:zoom="6.2890624"
     inkscape:cx="4.7701864"
     inkscape:cy="12.004969"
     inkscape:window-x="0"
     inkscape:window-y="48"
     inkscape:window-maximized="0"
     inkscape:current-layer="g877"
     inkscape:document-rotation="0"
     inkscape:pagecheckerboard="0"
     inkscape:showpageshadow="2"
     inkscape:deskcolor="#d1d1d1" />
  <defs
     id="defs29">
    <linearGradient
       id="b"
       x1="399.57"
       x2="399.57"
       y1="545.8"
       y2="517.8"
       gradientTransform="matrix(2.1429,0,0,2.1429,-825.86391,-1107.6662)"
       gradientUnits="userSpaceOnUse">
      <stop
         stop-color="#3889e9"
         offset="0"
         id="stop2" />
      <stop
         stop-color="#5ea5fb"
         offset="1"
         id="stop4" />
    </linearGradient>
    <linearGradient
       id="d"
       x2="1"
       gradientTransform="matrix(14.905727,-4.7106182,4.7106182,14.905727,322.04962,998.26962)"
       gradientUnits="userSpaceOnUse">
      <stop
         stop-color="#fafafa"
         offset="0"
         id="stop7" />
      <stop
         stop-color="#aaa"
         offset="1"
         id="stop8" />
    </linearGradient>
    <linearGradient
       id="e"
       x2="1"
       gradientTransform="matrix(21.439909,0,0,21.439909,26.63554,1159.7788)"
       gradientUnits="userSpaceOnUse">
      <stop
         stop-color="#f0f0f0"
         offset="0"
         id="stop9" />
      <stop
         stop-color="#b7f1ff"
         offset="1"
         id="stop10" />
    </linearGradient>
    <linearGradient
       id="b-2"
       x2="1"
       gradientTransform="matrix(10.719636,14.238636,-14.238636,10.719636,-67.544643,95.73886)"
       gradientUnits="userSpaceOnUse">
      <stop
         stop-color="#3077e1"
         offset="0"
         id="stop3" />
      <stop
         stop-color="#5df"
         offset="1"
         id="stop4-7" />
    </linearGradient>
    <linearGradient
       id="c"
       x2="1"
       gradientTransform="matrix(-0.30023273,-19.715,19.715,-0.30023273,61.587812,32.183496)"
       gradientUnits="userSpaceOnUse">
      <stop
         stop-color="#da9517"
         offset="0"
         id="stop5" />
      <stop
         stop-color="#ffee58"
         offset="1"
         id="stop6" />
    </linearGradient>
  </defs>
  <circle
     cx="32.516094"
     cy="31.877844"
     r="0"
     fill="url(#b)"
     stroke-width="1.5715"
     id="circle41"
     style="fill:url(#b)" />
  <g
     aria-label="GZ"
     transform="matrix(1.2212657,0,0,0.81882264,0.4960938,-0.1661539)"
     id="text93"
     style="font-weight:bold;font-size:11.5263px;line-height:1.25;font-family:sans-serif;-inkscape-font-specification:'sans-serif Bold';fill:#f2f2f2;stroke-width:0.288159" />
  <g
     id="g877"
     transform="matrix(1.1,0,0,1.1,-3.1845928,-3.2065454)">
    <rect
       x="6.3010068"
       y="5.4939413"
       width="51.635597"
       height="53.148327"
       rx="10.980581"
       ry="10.720582"
       fill="url(#linearGradient862)"
       stroke-width="3.0541"
       id="rect35-7-3"
       style="fill:#414141;fill-opacity:1;stroke:#dfdfdf;stroke-width:2.27272727;stroke-dasharray:none;stroke-opacity:1" />
    <path
       d="m 50.883454,25.207224 c 0.440561,5.438466 0.43923,8.872446 0.0026,14.312243 -0.208965,2.588795 -2.142908,5.897661 -4.872791,6.376819 -8.703407,0.681474 -19.029305,0.59629 -28.050825,0 -2.819056,-0.359368 -4.666484,-3.788024 -4.875453,-6.376819 -0.437899,-5.438468 -0.437899,-8.533041 0,-13.971507 0.206305,-2.587464 2.10298,-5.997486 4.868798,-6.310271 8.9177,-0.75867 19.292847,-0.596288 28.052156,0 3.137167,0.117128 4.661162,3.382071 4.875453,5.969535 z m -10.80772,5.93626 c -0.05723,-0.07454 -0.130438,-0.114466 -0.223606,-0.133102 l -1.947253,-0.299475 c -0.10648,-0.344729 -0.252892,-0.696113 -0.436568,-1.054152 0.127776,-0.186342 0.31944,-0.429913 0.57499,-0.756008 0.254221,-0.326097 0.435239,-0.563013 0.541717,-0.712085 0.0559,-0.07587 0.08518,-0.17037 0.08518,-0.246235 0,-0.114466 -0.02396,-0.189002 -0.07454,-0.238249 -0.255552,-0.364694 -0.839861,-0.974294 -1.755589,-1.824801 -0.08518,-0.07587 -0.174361,-0.113135 -0.2662,-0.113135 -0.10648,0 -0.191664,0.03728 -0.255552,0.09317 l -1.512016,1.148651 c -0.291481,-0.151734 -0.60959,-0.282172 -0.958313,-0.397969 l -0.296812,-1.976535 c -0.0067,-0.09317 -0.04925,-0.169035 -0.123783,-0.228932 -0.07321,-0.05723 -0.161051,-0.09449 -0.260876,-0.09449 h -2.362525 c -0.206306,0 -0.334081,0.113135 -0.383329,0.302137 -0.09317,0.358039 -0.194326,1.022207 -0.308792,1.997831 -0.334081,0.113135 -0.656183,0.243573 -0.967637,0.408617 l -1.469423,-1.148653 c -0.09317,-0.07454 -0.18501,-0.113135 -0.276848,-0.113135 -0.155728,0 -0.492471,0.255552 -1.006237,0.767987 -0.515097,0.512435 -0.863819,0.897096 -1.048827,1.155308 -0.06256,0.0945 -0.0945,0.169037 -0.0945,0.247566 0,0.09317 0.03461,0.169039 0.105149,0.258214 0.476498,0.578985 0.855835,1.072786 1.139336,1.480072 -0.177023,0.328757 -0.315445,0.660176 -0.41527,0.988933 l -1.979197,0.300806 c -0.07853,0.01198 -0.14641,0.0559 -0.202312,0.131769 -0.0559,0.07454 -0.08518,0.17037 -0.08518,0.246235 v 2.385154 c 0,0.09317 0.02928,0.170366 0.08518,0.252888 0.05457,0.07454 0.130438,0.111804 0.223606,0.130438 l 1.947253,0.290158 c 0.09849,0.351384 0.244906,0.70543 0.436568,1.063469 -0.127776,0.189002 -0.31944,0.431244 -0.57499,0.75867 -0.255554,0.326095 -0.436568,0.564344 -0.541717,0.714747 -0.0559,0.07454 -0.08518,0.169037 -0.08518,0.244904 0,0.09583 0.02263,0.170368 0.07321,0.247568 0.276848,0.387319 0.862488,0.9876 1.75692,1.804834 0.0772,0.07587 0.166373,0.113135 0.2662,0.113135 0.10648,0 0.194324,-0.03728 0.266198,-0.0945 l 1.50137,-1.149982 c 0.291489,0.151732 0.609596,0.283501 0.958318,0.397969 l 0.296813,1.976535 c 0.0066,0.09317 0.04925,0.169035 0.123797,0.22893 0.0732,0.05723 0.161051,0.0945 0.259545,0.0945 h 2.363856 c 0.206305,0 0.334081,-0.113135 0.383328,-0.302137 0.09317,-0.35937 0.194325,-1.022209 0.308792,-1.997831 0.334081,-0.113135 0.656183,-0.243573 0.967636,-0.408617 l 1.469425,1.160632 c 0.09983,0.0559 0.191664,0.09317 0.276848,0.09317 0.155727,0 0.491139,-0.254221 1.000912,-0.761332 0.511104,-0.511102 0.862488,-0.894432 1.054152,-1.160632 0.06256,-0.07454 0.09449,-0.149072 0.09449,-0.246235 0,-0.0945 -0.03461,-0.187669 -0.105149,-0.267531 -0.511104,-0.629563 -0.89177,-1.124695 -1.139336,-1.481403 0.141081,-0.264869 0.280843,-0.589631 0.415272,-0.976954 l 1.96988,-0.300804 c 0.08518,-0.01198 0.155727,-0.05723 0.211629,-0.131769 0.0559,-0.07454 0.08518,-0.169039 0.08518,-0.246237 v -2.385152 c 0,-0.09451 -0.02795,-0.169037 -0.08518,-0.254219 z m -6.16253,3.36743 c -0.532398,0.537722 -1.17394,0.806586 -1.927288,0.806586 -0.752015,0 -1.393557,-0.268864 -1.925955,-0.806586 -0.532402,-0.537724 -0.799933,-1.185921 -0.799933,-1.944591 0,-0.757339 0.267531,-1.406867 0.799933,-1.94326 0.532398,-0.539057 1.17394,-0.806586 1.925955,-0.806586 0.753348,0 1.39489,0.26886 1.927288,0.806586 0.531069,0.537724 0.7986,1.18459 0.7986,1.94326 0,0.75867 -0.267531,1.406867 -0.7986,1.944591 z"
       fill="#ffffff"
       fill-rule="nonzero"
       id="path2"
       style="stroke-width:1.331;fill:#dfdfdf;fill-opacity:1" />
    <g
       id="g1"
       transform="matrix(1.21,0,0,1.21,2.0148825,-2.4743588)" />
  </g>
</svg>
