<?xml version="1.0" encoding="UTF-8" standalone="no"?>
<svg
   width="64"
   height="64"
   version="1.1"
   id="svg73"
   sodipodi:docname="audacious.svg"
   inkscape:version="1.4.2 (ebf0e940d0, 2025-05-08)"
   xmlns:inkscape="http://www.inkscape.org/namespaces/inkscape"
   xmlns:sodipodi="http://sodipodi.sourceforge.net/DTD/sodipodi-0.dtd"
   xmlns="http://www.w3.org/2000/svg"
   xmlns:svg="http://www.w3.org/2000/svg"
   xmlns:rdf="http://www.w3.org/1999/02/22-rdf-syntax-ns#"
   xmlns:cc="http://creativecommons.org/ns#"
   xmlns:dc="http://purl.org/dc/elements/1.1/">
  <metadata
     id="metadata77">
    <rdf:RDF>
      <cc:Work
         rdf:about="">
        <dc:format>image/svg+xml</dc:format>
        <dc:type
           rdf:resource="http://purl.org/dc/dcmitype/StillImage" />
      </cc:Work>
    </rdf:RDF>
  </metadata>
  <sodipodi:namedview
     pagecolor="#f5f7fa"
     bordercolor="#666666"
     borderopacity="1"
     objecttolerance="10"
     gridtolerance="10"
     guidetolerance="10"
     inkscape:pageopacity="0"
     inkscape:pageshadow="2"
     inkscape:window-width="1377"
     inkscape:window-height="886"
     id="namedview75"
     showgrid="false"
     inkscape:zoom="6.2890624"
     inkscape:cx="47.622361"
     inkscape:cy="45.396274"
     inkscape:window-x="0"
     inkscape:window-y="57"
     inkscape:window-maximized="0"
     inkscape:current-layer="g877"
     inkscape:document-rotation="0"
     inkscape:pagecheckerboard="0"
     inkscape:showpageshadow="2"
     inkscape:deskcolor="#d1d1d1" />
  <defs
     id="defs29" />
  <circle
     cx="32.516094"
     cy="31.877844"
     r="0"
     fill="url(#b)"
     stroke-width="1.5715"
     id="circle41"
     style="fill:url(#b)" />
  <g
     aria-label="GZ"
     transform="matrix(1.2212657,0,0,0.81882264,0.4960938,-0.1661539)"
     id="text93"
     style="font-weight:bold;font-size:11.5263px;line-height:1.25;font-family:sans-serif;-inkscape-font-specification:'sans-serif Bold';fill:#f2f2f2;stroke-width:0.288159" />
  <g
     id="g877"
     transform="matrix(1.1,0,0,1.1,-3.1845928,-3.2065454)">
    <rect
       x="8.3496294"
       y="8.369586"
       width="47.272728"
       height="47.272728"
       rx="9.8825235"
       ry="9.6485243"
       fill="url(#linearGradient862)"
       stroke-width="3.0541"
       id="rect35-7-3"
       style="fill:#414141;fill-opacity:1;stroke:#dfdfdf;stroke-width:2.04545;stroke-dasharray:none;stroke-opacity:1" />
    <path
       style="fill:#dfdfdf;fill-opacity:1;stroke:none;stroke-width:0.468838;stroke-dasharray:none;stroke-opacity:0.6"
       d="m 32.400593,47.073969 c -2.061332,-0.554161 -3.825698,-1.57777 -5.417568,-3.143036 -4.880474,-4.798913 -4.880474,-12.281459 0,-17.080372 2.489413,-2.447811 5.376552,-3.579395 8.791278,-3.445648 1.75976,0.06893 1.836002,0.05385 1.515871,-0.29964 -0.185395,-0.20472 -0.978636,-0.693175 -1.762755,-1.085454 -6.757078,-3.380428 -14.512222,1.322207 -14.574494,8.837815 -0.01568,1.89173 0.429223,3.715508 1.246619,5.110285 0.289701,0.494342 0.465069,0.898805 0.389701,0.898805 -0.329866,0 -2.72329,-1.78606 -3.693319,-2.756088 -1.108541,-1.108543 -1.859012,-2.351022 -2.124199,-3.516821 l -0.15588,-0.685278 h 0.926638 c 1.153045,0 1.770055,-0.539858 1.770055,-1.548726 0,-0.89408 -0.515218,-1.369192 -1.705029,-1.57231 l -0.920677,-0.15717 0.455745,-0.455747 c 0.443873,-0.44387 1.680542,-0.901291 2.443111,-0.903658 0.20822,-6.48e-4 0.620567,-0.243163 0.916326,-0.538925 0.945298,-0.945298 0.253998,-2.232612 -1.716613,-3.196611 l -1.054269,-0.515737 1.054269,0.115253 c 3.622682,0.396027 4.310808,0.404454 4.445122,0.05443 0.07564,-0.197122 -0.141267,-0.825528 -0.51122,-1.481048 -0.353436,-0.626256 -0.584541,-1.196714 -0.513567,-1.267689 0.229968,-0.22997 1.529951,-0.1367 2.24212,0.16086 0.38161,0.159448 1.046804,0.599812 1.478206,0.978588 0.668149,0.586642 0.856194,0.65596 1.269114,0.46782 0.569804,-0.259625 1.187277,-1.460919 1.34135,-2.609609 0.06001,-0.447445 0.173375,-0.813534 0.251908,-0.813534 0.346994,0 0.925651,0.625289 1.756159,1.897686 0.772841,1.184042 0.991063,1.379795 1.603595,1.438488 0.990395,0.0949 1.860383,-0.32005 2.178683,-1.039141 0.472004,-1.066328 0.79972,-0.621109 0.79972,1.086457 0,0.802142 0.0901,1.077828 0.407847,1.24788 0.746066,0.399282 1.741879,0.231535 3.085244,-0.519717 1.374165,-0.768472 2.550921,-1.065765 1.610054,-0.406761 -0.581789,0.407503 -1.724797,2.358114 -1.727499,2.948073 -0.0019,0.328882 0.251146,0.523784 1.052461,0.811936 2.461716,0.885221 5.170247,3.282008 6.465851,5.721641 0.903856,1.702003 1.335589,3.505537 1.335589,5.579469 0,3.405047 -1.063472,5.918753 -3.577429,8.455936 -1.730968,1.746961 -3.749381,2.892742 -5.868681,3.331449 -1.528434,0.316418 -4.127882,0.267255 -5.509437,-0.10416 z"
       id="path41" />
  </g>
</svg>
