<?xml version="1.0" encoding="UTF-8" standalone="no"?>
<svg
   width="64"
   height="64"
   version="1.1"
   id="svg73"
   sodipodi:docname="audacious.svg"
   inkscape:version="1.4.2 (ebf0e940d0, 2025-05-08)"
   xmlns:inkscape="http://www.inkscape.org/namespaces/inkscape"
   xmlns:sodipodi="http://sodipodi.sourceforge.net/DTD/sodipodi-0.dtd"
   xmlns="http://www.w3.org/2000/svg"
   xmlns:svg="http://www.w3.org/2000/svg"
   xmlns:rdf="http://www.w3.org/1999/02/22-rdf-syntax-ns#"
   xmlns:cc="http://creativecommons.org/ns#"
   xmlns:dc="http://purl.org/dc/elements/1.1/">
  <metadata
     id="metadata77">
    <rdf:RDF>
      <cc:Work
         rdf:about="">
        <dc:format>image/svg+xml</dc:format>
        <dc:type
           rdf:resource="http://purl.org/dc/dcmitype/StillImage" />
      </cc:Work>
    </rdf:RDF>
  </metadata>
  <sodipodi:namedview
     pagecolor="#f5f7fa"
     bordercolor="#666666"
     borderopacity="1"
     objecttolerance="10"
     gridtolerance="10"
     guidetolerance="10"
     inkscape:pageopacity="0"
     inkscape:pageshadow="2"
     inkscape:window-width="1377"
     inkscape:window-height="886"
     id="namedview75"
     showgrid="false"
     inkscape:zoom="6.2890624"
     inkscape:cx="47.622361"
     inkscape:cy="45.396274"
     inkscape:window-x="86"
     inkscape:window-y="56"
     inkscape:window-maximized="0"
     inkscape:current-layer="g877"
     inkscape:document-rotation="0"
     inkscape:pagecheckerboard="0"
     inkscape:showpageshadow="2"
     inkscape:deskcolor="#d1d1d1" />
  <defs
     id="defs29" />
  <circle
     cx="32.516094"
     cy="31.877844"
     r="0"
     fill="url(#b)"
     stroke-width="1.5715"
     id="circle41"
     style="fill:url(#b)" />
  <g
     aria-label="GZ"
     transform="matrix(1.2212657,0,0,0.81882264,0.4960938,-0.1661539)"
     id="text93"
     style="font-weight:bold;font-size:11.5263px;line-height:1.25;font-family:sans-serif;-inkscape-font-specification:'sans-serif Bold';fill:#f2f2f2;stroke-width:0.288159" />
  <g
     id="g877"
     transform="matrix(1.1,0,0,1.1,-3.1845928,-3.2065454)">
    <rect
       x="8.3496294"
       y="8.369586"
       width="47.272728"
       height="47.272728"
       rx="9.8825235"
       ry="9.6485243"
       fill="url(#linearGradient862)"
       stroke-width="3.0541"
       id="rect35-7-3"
       style="fill:#414141;fill-opacity:1;stroke:#dfdfdf;stroke-width:2.04545;stroke-dasharray:none;stroke-opacity:1" />
    <path
       style="color:#444444;fill:#dfdfdf;stroke:none;stroke-width:0.932827;stroke-dasharray:none;stroke-opacity:0.3;fill-opacity:1"
       class="ColorScheme-Text"
       d="m 28.225728,18.845011 c -0.752052,0 -0.75101,0.001 -1.465182,0.76013 l -2.038036,3.000137 h -4.770105 c -1.654521,0 -3.007484,1.233679 -3.007484,2.842232 v 16.796353 c 0,1.608569 1.352963,2.923026 3.007484,2.923026 h 24.067179 c 1.654518,0 3.007481,-1.314457 3.007481,-2.923026 V 25.44751 c 0,-1.608553 -1.352963,-2.842232 -3.007481,-2.842232 h -4.7701 L 37.185739,19.575765 C 36.499158,18.846276 36.49832,18.845011 35.746264,18.845011 Z m 15.959103,5.640402 a 0.94006695,0.94006695 0 0 1 0.0219,0 0.94006695,0.94006695 0 0 1 0.939993,0.940067 0.94006695,0.94006695 0 0 1 -0.940108,0.940064 0.94006695,0.94006695 0 0 1 -0.940036,-0.940064 0.94006695,0.94006695 0 0 1 0.918036,-0.940067 z m -12.312673,1.880131 a 7.5205353,7.5205353 0 0 1 0.113841,0 7.5205353,7.5205353 0 0 1 7.52053,7.520541 7.5205353,7.5205353 0 0 1 -7.520528,7.520536 7.5205353,7.5205353 0 0 1 -7.520534,-7.520536 7.5205353,7.5205353 0 0 1 7.406694,-7.520541 z m 0.02198,3.76027 a 3.7602679,3.7602679 0 0 0 -3.668453,3.760271 3.7602679,3.7602679 0 0 0 3.76027,3.760263 3.7602679,3.7602679 0 0 0 3.76027,-3.760263 3.7602679,3.7602679 0 0 0 -3.76027,-3.760271 3.7602679,3.7602679 0 0 0 -0.0918,0 z"
       id="path5-3" />
  </g>
</svg>
