<?xml version="1.0" encoding="UTF-8" standalone="no"?>
<svg
   width="64"
   height="64"
   version="1.1"
   id="svg73"
   sodipodi:docname="audacious.svg"
   inkscape:version="1.4.2 (ebf0e940d0, 2025-05-08)"
   xmlns:inkscape="http://www.inkscape.org/namespaces/inkscape"
   xmlns:sodipodi="http://sodipodi.sourceforge.net/DTD/sodipodi-0.dtd"
   xmlns="http://www.w3.org/2000/svg"
   xmlns:svg="http://www.w3.org/2000/svg"
   xmlns:rdf="http://www.w3.org/1999/02/22-rdf-syntax-ns#"
   xmlns:cc="http://creativecommons.org/ns#"
   xmlns:dc="http://purl.org/dc/elements/1.1/">
  <metadata
     id="metadata77">
    <rdf:RDF>
      <cc:Work
         rdf:about="">
        <dc:format>image/svg+xml</dc:format>
        <dc:type
           rdf:resource="http://purl.org/dc/dcmitype/StillImage" />
      </cc:Work>
    </rdf:RDF>
  </metadata>
  <sodipodi:namedview
     pagecolor="#f5f7fa"
     bordercolor="#666666"
     borderopacity="1"
     objecttolerance="10"
     gridtolerance="10"
     guidetolerance="10"
     inkscape:pageopacity="0"
     inkscape:pageshadow="2"
     inkscape:window-width="1377"
     inkscape:window-height="886"
     id="namedview75"
     showgrid="false"
     inkscape:zoom="6.2890624"
     inkscape:cx="46.82733"
     inkscape:cy="41.739131"
     inkscape:window-x="0"
     inkscape:window-y="49"
     inkscape:window-maximized="0"
     inkscape:current-layer="g877"
     inkscape:document-rotation="0"
     inkscape:pagecheckerboard="0"
     inkscape:showpageshadow="2"
     inkscape:deskcolor="#d1d1d1" />
  <defs
     id="defs29" />
  <circle
     cx="32.516094"
     cy="31.877844"
     r="0"
     fill="url(#b)"
     stroke-width="1.5715"
     id="circle41"
     style="fill:url(#b)" />
  <g
     aria-label="GZ"
     transform="matrix(1.2212657,0,0,0.81882264,0.4960938,-0.1661539)"
     id="text93"
     style="font-weight:bold;font-size:11.5263px;line-height:1.25;font-family:sans-serif;-inkscape-font-specification:'sans-serif Bold';fill:#f2f2f2;stroke-width:0.288159" />
  <g
     id="g877"
     transform="matrix(1.1,0,0,1.1,-3.1845928,-3.2065454)">
    <rect
       x="8.3496294"
       y="8.369586"
       width="47.272728"
       height="47.272728"
       rx="9.8825235"
       ry="9.6485243"
       fill="url(#linearGradient862)"
       stroke-width="3.0541"
       id="rect35-7-3"
       style="fill:#414141;fill-opacity:1;stroke:#dfdfdf;stroke-width:2.04545;stroke-dasharray:none;stroke-opacity:1" />
    <path
       style="fill:#dfdfdf;fill-opacity:1;stroke:none;stroke-width:0.525;stroke-dasharray:none;stroke-opacity:0.6"
       d="m 19.785751,47.414114 c -2.04445,-0.573344 -3.358273,-2.256016 -3.358273,-4.301077 0,-0.582996 0.106445,-1.111752 0.581361,-2.887909 l 0.581362,-2.174248 -0.344924,-1.024406 c -0.655388,-1.946492 -0.765767,-2.681394 -0.763671,-5.084537 0.002,-2.37765 0.100306,-3.037344 0.734553,-4.932747 1.533856,-4.583867 5.210236,-8.263845 9.782082,-9.791659 1.912113,-0.638987 2.565997,-0.73664 4.946487,-0.738715 2.345156,-0.002 3.066479,0.100191 4.878844,0.691534 6.902158,2.252034 11.417362,9.205089 10.63256,16.373284 -0.437197,3.993232 -2.335737,7.649482 -5.281421,10.171083 -4.341109,3.716123 -10.104856,4.797172 -15.472028,2.901933 l -0.795312,-0.280858 -2.122857,0.574143 c -2.346479,0.634623 -3.165402,0.737871 -3.998763,0.504161 z m 1.517412,-1.645612 c -0.0307,-0.114656 -0.05644,-0.489832 -0.05711,-0.833763 -0.0012,-0.608167 -0.0079,-0.625323 -0.237466,-0.625323 -0.46111,0 -1.148376,-0.533362 -1.289816,-1.00098 -0.03547,-0.11747 -0.113171,-0.194317 -0.172533,-0.170793 -0.05937,0.02345 -0.410177,0.139621 -0.779581,0.257957 -0.369404,0.118372 -0.671642,0.248686 -0.671642,0.289634 0,0.04095 0.105647,0.282961 0.234778,0.537755 0.511365,1.009134 1.604027,1.71057 2.71736,1.744418 0.279929,0.0083 0.306162,-0.01191 0.25602,-0.198934 z m 12.818613,0.0072 c 0.382142,-0.0557 0.731317,-0.134319 0.775943,-0.174653 0.07873,-0.07115 -0.183385,-1.367275 -0.301418,-1.490564 -0.03168,-0.03319 -0.432836,-0.0027 -0.891406,0.0675 -0.458569,0.0702 -1.089853,0.128619 -1.402852,0.129737 -0.674716,0.0024 -0.681553,0.01263 -0.681553,0.993321 v 0.698236 l 0.903243,-0.06112 c 0.496782,-0.03355 1.215903,-0.106683 1.598044,-0.162424 z m -4.032045,-0.192179 c 0.09655,-0.422268 0.213246,-1.321902 0.178875,-1.378912 -0.01948,-0.03247 -0.222646,-0.08688 -0.451439,-0.12115 -0.228797,-0.03427 -0.843577,-0.204419 -1.36618,-0.378008 -0.5226,-0.173607 -0.977909,-0.285846 -1.011796,-0.249371 -0.03387,0.03651 -0.187032,0.363879 -0.340317,0.727654 l -0.27871,0.6614 0.338917,0.143013 c 0.63848,0.269431 2.378557,0.769743 2.768957,0.796167 0.06272,0.0047 0.13548,-0.08605 0.161691,-0.200738 z M 25.58345,44.871271 c 0.238519,-0.06519 0.385306,-0.154449 0.361657,-0.219896 -0.0219,-0.06061 -0.115829,-0.401959 -0.208748,-0.75863 -0.0929,-0.356667 -0.178143,-0.661288 -0.189391,-0.676943 -0.01699,-0.02381 -2.623075,0.649304 -2.97637,0.768556 -0.09653,0.03247 0.03055,0.677671 0.295367,1.499247 0.03261,0.101304 0.455072,0.0058 2.717489,-0.612345 z m 12.104977,-0.159682 c 0.407621,-0.178694 0.98195,-0.471031 1.276282,-0.64958 l 0.535163,-0.324631 -0.205464,-0.339168 c -0.500565,-0.826415 -0.63901,-1.03399 -0.689614,-1.03399 -0.02995,0 -0.164696,0.07814 -0.299916,0.17368 -0.336139,0.237357 -1.466283,0.794968 -1.888976,0.931989 -0.190362,0.06173 -0.370098,0.15095 -0.399415,0.198429 -0.02933,0.04741 0.06365,0.400711 0.206576,0.785065 0.301526,0.81081 0.232732,0.798684 1.465357,0.258246 z m -12.937643,-2.589521 1.606883,-0.428683 0.801765,0.376223 c 1.645601,0.772199 2.987483,1.068662 4.831618,1.067439 1.327052,-0.001 1.94586,-0.08893 3.219918,-0.458122 3.118399,-0.90383 5.887994,-3.405245 7.115823,-6.426956 1.930401,-4.750745 0.41442,-10.231163 -3.67376,-13.281017 -2.753728,-2.054328 -6.459131,-2.721615 -9.801379,-1.765082 -1.078769,0.30874 -2.673762,1.102208 -3.587858,1.784865 -4.273993,3.191876 -5.707214,9.082466 -3.373776,13.866337 l 0.353279,0.724271 -0.730863,2.730846 c -0.401976,1.501957 -0.730863,2.762548 -0.730863,2.801299 0,0.03889 0.531526,-0.07201 1.181165,-0.246232 0.649639,-0.174149 1.904259,-0.509591 2.788047,-0.745365 z m 17.208118,-0.423241 c 0.514485,-0.528826 0.980948,-1.046573 1.036594,-1.150543 0.09045,-0.169026 0.03211,-0.240713 -0.550561,-0.676777 l -0.651738,-0.48772 -0.144709,0.216395 c -0.07955,0.119057 -0.531069,0.606937 -1.003315,1.084268 l -0.858625,0.867874 0.4729,0.631921 c 0.364752,0.487389 0.506189,0.614106 0.618456,0.554 0.08006,-0.04289 0.566487,-0.510602 1.080973,-1.039426 z m -21.839176,-0.97922 c 0.212679,-0.802501 0.386068,-1.503573 0.38531,-1.557946 -8.33e-4,-0.0544 -0.303622,-0.172958 -0.673026,-0.263514 -0.3694,-0.09059 -0.713389,-0.181617 -0.764417,-0.20229 -0.08997,-0.03651 -0.948774,2.981683 -0.87065,3.059803 0.03204,0.03211 1.29795,0.386341 1.481359,0.414593 0.03012,0.0047 0.228746,-0.648159 0.441425,-1.450649 z m 24.308613,-2.432485 c 0.337798,-0.674334 0.902917,-2.066281 0.902917,-2.224032 0,-0.07475 -0.717054,-0.313453 -1.279427,-0.425929 -0.255649,-0.05112 -0.275024,-0.02969 -0.481707,0.534398 -0.118408,0.32322 -0.378206,0.915994 -0.577267,1.317276 -0.234831,0.473383 -0.330222,0.761293 -0.271739,0.819833 0.205211,0.205211 1.091761,0.70657 1.220512,0.690226 0.07645,-0.01008 0.295443,-0.330005 0.486693,-0.711772 z M 20.159285,37.469115 c 0.342655,-0.144561 0.646769,-0.286576 0.675802,-0.315637 0.02904,-0.02894 -0.01462,-0.183034 -0.0969,-0.342246 -0.08233,-0.159201 -0.310982,-0.770801 -0.508123,-1.359107 -0.197145,-0.588308 -0.37638,-1.087585 -0.398299,-1.109504 -0.05252,-0.05252 -1.391373,0.243675 -1.485298,0.32859 -0.151522,0.136988 0.887989,3.060743 1.088213,3.060743 0.05588,0 0.381949,-0.118264 0.72461,-0.262829 z m 25.583267,-3.137396 c 0.1008,-0.262626 0.266617,-2.676924 0.201641,-2.935776 -0.05588,-0.222573 -0.09943,-0.241449 -0.556774,-0.241449 -0.272931,0 -0.626452,0.02608 -0.785682,0.05791 l -0.289454,0.0579 v 0.781278 c 0,0.429703 -0.04538,1.073892 -0.100873,1.431533 -0.05549,0.357641 -0.07507,0.676038 -0.04359,0.707547 0.03139,0.0315 0.358327,0.107158 0.726222,0.168112 0.367928,0.06096 0.695725,0.115302 0.728487,0.120804 0.03283,0.0056 0.08683,-0.06105 0.12014,-0.147848 z M 19.441217,32.959555 c 0.174614,-0.03547 0.188993,-0.111759 0.19906,-1.055605 0.0059,-0.559537 0.03905,-1.22245 0.07354,-1.473146 l 0.0627,-0.45581 -0.751667,-0.11693 c -0.413419,-0.06431 -0.776209,-0.09239 -0.806198,-0.0624 -0.126735,0.126735 -0.208465,0.929317 -0.212236,2.08417 l -0.004,1.234859 0.625323,-0.05843 c 0.343924,-0.03214 0.710016,-0.07565 0.813531,-0.09672 z m 25.64263,-3.24571 c 0.360204,-0.0432 0.558556,-0.113029 0.595638,-0.209664 0.133236,-0.347142 -0.779902,-3.141648 -1.011816,-3.096609 -0.06816,0.01321 -0.406407,0.157325 -0.751746,0.320221 -0.475628,0.224344 -0.613059,0.330835 -0.566746,0.439148 0.138142,0.323028 0.682339,2.07208 0.739491,2.376708 0.05163,0.275264 0.0933,0.320618 0.258354,0.281545 0.108234,-0.02565 0.43981,-0.07573 0.736836,-0.111354 z m -24.764482,-1.80176 c 0.118284,-0.331188 0.327766,-0.831447 0.465514,-1.111685 0.440727,-0.896618 0.447409,-0.859169 -0.229631,-1.286763 -0.331594,-0.209418 -0.645082,-0.380761 -0.696643,-0.380761 -0.192605,0 -1.300401,2.513565 -1.300401,2.950583 0,0.120157 0.174493,0.20415 0.717963,0.34559 0.394878,0.102774 0.742752,0.163989 0.773049,0.136026 0.03027,-0.02799 0.151867,-0.321805 0.270149,-0.65299 z m 23.087829,-2.54761 c 0.342957,-0.203805 0.624344,-0.398334 0.625319,-0.432279 0.0058,-0.213203 -1.720218,-2.485228 -1.947828,-2.56351 -0.08171,-0.02814 -1.119118,0.848895 -1.177961,0.99586 -0.01299,0.03309 0.187461,0.309069 0.44609,0.613202 0.258607,0.304134 0.659589,0.836332 0.891062,1.182666 0.231476,0.346335 0.447617,0.617308 0.480314,0.602161 0.03283,-0.01515 0.340072,-0.194291 0.683004,-0.3981 z m -20.203388,-2.038085 0.805152,-0.833762 -0.557387,-0.591106 -0.557388,-0.591105 -0.784436,0.776387 c -0.913865,0.904483 -1.481491,1.632999 -1.363729,1.750264 0.04504,0.04483 0.332005,0.270851 0.637715,0.502246 l 0.555842,0.420722 0.22954,-0.299941 c 0.126242,-0.16497 0.591855,-0.675136 1.034691,-1.133705 z m 17.219559,-1.511131 c 0.275895,-0.331408 0.451108,-0.618415 0.404477,-0.662489 -0.438679,-0.414572 -2.684139,-1.837773 -2.762778,-1.751085 -0.04672,0.05147 -0.700878,1.367158 -0.700878,1.40959 0,0.02038 0.364771,0.250298 0.810609,0.510854 0.445831,0.260552 0.998192,0.618972 1.227479,0.796487 0.229275,0.17751 0.443312,0.313435 0.475605,0.302055 0.03211,-0.01143 0.277765,-0.283818 0.545486,-0.605412 z M 25.620228,21.400153 c 0.26849,-0.167768 0.842512,-0.466437 1.275603,-0.66371 0.433094,-0.19727 0.798897,-0.366752 0.812898,-0.376623 0.014,-0.0099 -0.09632,-0.346946 -0.245165,-0.749057 -0.215576,-0.582405 -0.305546,-0.726105 -0.442335,-0.706521 -0.219472,0.03144 -2.328649,1.082688 -2.600701,1.296246 l -0.20562,0.161413 0.390902,0.670235 c 0.214988,0.36863 0.421354,0.670867 0.458579,0.671641 0.03722,8.34e-4 0.287357,-0.135855 0.555839,-0.303624 z m 10.738255,-1.828635 c 0.14552,-0.378864 0.264582,-0.712417 0.264582,-0.741225 0,-0.130534 -1.461283,-0.520723 -2.570768,-0.686436 l -0.764282,-0.11416 -8.34e-4,0.332337 c -4.43e-4,0.182786 -0.02676,0.548284 -0.05846,0.812223 l -0.05765,0.479887 0.359539,0.05718 c 0.671809,0.106838 2.11911,0.439414 2.258663,0.519016 0.230629,0.131557 0.293603,0.05867 0.569185,-0.658826 z m -6.765566,0.27625 c 0.274456,-0.05349 0.929226,-0.132836 1.45505,-0.17632 0.525825,-0.0435 0.966392,-0.09352 0.979037,-0.111193 0.01263,-0.01771 0.0051,-0.376043 -0.01628,-0.796402 l -0.03931,-0.764285 -0.569194,-5.32e-4 c -0.593008,-5.53e-4 -2.46781,0.256267 -2.637832,0.361348 -0.06602,0.0408 -0.03565,0.307615 0.09368,0.822512 0.105269,0.419166 0.201391,0.762119 0.213614,0.762119 0.01223,0 0.246767,-0.04376 0.52122,-0.09725 z"
       id="path6" />
  </g>
</svg>
