<?xml version="1.0" encoding="UTF-8" standalone="no"?>
<svg
   width="64"
   height="64"
   version="1.1"
   id="svg73"
   sodipodi:docname="audacious.svg"
   inkscape:version="1.4.2 (ebf0e940d0, 2025-05-08)"
   xmlns:inkscape="http://www.inkscape.org/namespaces/inkscape"
   xmlns:sodipodi="http://sodipodi.sourceforge.net/DTD/sodipodi-0.dtd"
   xmlns="http://www.w3.org/2000/svg"
   xmlns:svg="http://www.w3.org/2000/svg"
   xmlns:rdf="http://www.w3.org/1999/02/22-rdf-syntax-ns#"
   xmlns:cc="http://creativecommons.org/ns#"
   xmlns:dc="http://purl.org/dc/elements/1.1/">
  <metadata
     id="metadata77">
    <rdf:RDF>
      <cc:Work
         rdf:about="">
        <dc:format>image/svg+xml</dc:format>
        <dc:type
           rdf:resource="http://purl.org/dc/dcmitype/StillImage" />
      </cc:Work>
    </rdf:RDF>
  </metadata>
  <sodipodi:namedview
     pagecolor="#f5f7fa"
     bordercolor="#666666"
     borderopacity="1"
     objecttolerance="10"
     gridtolerance="10"
     guidetolerance="10"
     inkscape:pageopacity="0"
     inkscape:pageshadow="2"
     inkscape:window-width="1377"
     inkscape:window-height="886"
     id="namedview75"
     showgrid="false"
     inkscape:zoom="6.2890624"
     inkscape:cx="47.622361"
     inkscape:cy="45.396274"
     inkscape:window-x="28"
     inkscape:window-y="56"
     inkscape:window-maximized="0"
     inkscape:current-layer="g877"
     inkscape:document-rotation="0"
     inkscape:pagecheckerboard="0"
     inkscape:showpageshadow="2"
     inkscape:deskcolor="#d1d1d1" />
  <defs
     id="defs29" />
  <circle
     cx="32.516094"
     cy="31.877844"
     r="0"
     fill="url(#b)"
     stroke-width="1.5715"
     id="circle41"
     style="fill:url(#b)" />
  <g
     aria-label="GZ"
     transform="matrix(1.2212657,0,0,0.81882264,0.4960938,-0.1661539)"
     id="text93"
     style="font-weight:bold;font-size:11.5263px;line-height:1.25;font-family:sans-serif;-inkscape-font-specification:'sans-serif Bold';fill:#f2f2f2;stroke-width:0.288159" />
  <g
     id="g877"
     transform="matrix(1.1,0,0,1.1,-3.1845928,-3.2065454)">
    <rect
       x="8.3496294"
       y="8.369586"
       width="47.272728"
       height="47.272728"
       rx="9.8825235"
       ry="9.6485243"
       fill="url(#linearGradient862)"
       stroke-width="3.0541"
       id="rect35-7-3"
       style="fill:#414141;fill-opacity:1;stroke:#dfdfdf;stroke-width:2.04545;stroke-dasharray:none;stroke-opacity:1" />
    <path
       style="fill:#dfdfdf;fill-opacity:1;stroke:none;stroke-width:0.49228;stroke-dasharray:none;stroke-opacity:0.6"
       d="M 21.21836,47.325719 C 19.570055,47.13374 18.187587,45.929211 17.71238,44.270992 17.611685,43.919628 17.599719,43.298728 17.579944,37.39894 l -0.02175,-6.485787 H 31.98446 46.410725 l -0.02062,6.485787 c -0.02436,7.233714 0.0054,6.757463 -0.482744,7.741097 -0.331258,0.667443 -1.087446,1.423642 -1.754882,1.754892 -0.651885,0.323613 -1.103616,0.427304 -2.073926,0.476419 l -0.819626,0.04153 -0.01759,-3.405611 -0.01759,-3.405619 -0.148882,-0.302269 c -0.19013,-0.38581 -0.579516,-0.775162 -0.965262,-0.965184 l -0.302235,-0.14885 -7.722176,-0.01724 c -8.873389,-0.01964 -8.102633,-0.07145 -8.763387,0.590443 -0.628659,0.629713 -0.606499,0.471476 -0.606499,4.330306 v 3.303853 l -0.531093,-0.0081 c -0.292107,-0.005 -0.726354,-0.03113 -0.965009,-0.05889 z M 38.76039,35.900373 c 0.312045,-0.211995 0.434141,-0.45981 0.433848,-0.88011 -4.38e-4,-0.632601 -0.389438,-1.016626 -1.029759,-1.016626 -0.640328,0 -1.029317,0.384021 -1.029755,1.016626 -4.38e-4,0.648183 0.389285,1.042892 1.029755,1.042892 0.275104,0 0.410978,-0.03718 0.595925,-0.162794 z m 4.087963,0.03434 c 0.314107,-0.191535 0.465655,-0.484902 0.465655,-0.901599 0,-0.646119 -0.383395,-1.029522 -1.029518,-1.029522 -0.64612,0 -1.029516,0.383404 -1.029516,1.029522 0,0.646114 0.383396,1.029515 1.029516,1.029515 0.240055,0 0.421646,-0.04127 0.56387,-0.127917 z M 23.744459,45.84816 v -1.544993 h 8.240008 8.240019 v 1.544993 1.545012 H 31.984467 23.744459 Z M 17.581558,28.032362 c 0.03727,-2.061012 0.0712,-2.280128 0.481136,-3.106099 0.331068,-0.667062 1.087318,-1.423448 1.75489,-1.755198 0.790895,-0.393044 1.150667,-0.458458 2.542815,-0.462327 1.131848,-0.0033 1.24234,0.0069 1.480623,0.134815 0.564153,0.302822 0.825262,0.701305 0.900745,1.374591 0.05855,0.522109 0.174442,0.808695 0.4383,1.083775 0.447233,0.466241 -0.404507,0.425403 9.636905,0.461981 l 9.044692,0.033 0.381099,0.144395 c 0.541074,0.205006 0.875767,0.41499 1.225705,0.76904 0.622196,0.629501 0.851565,1.226512 0.913041,2.376613 l 0.04236,0.796252 h -14.437747 -14.438 z m 8.975054,-3.394023 c -0.455032,-0.159437 -0.687775,-0.482503 -0.687775,-0.954673 0,-0.331167 0.190624,-0.656652 0.483036,-0.824812 0.106094,-0.06103 2.524886,-0.927484 5.375097,-1.925488 2.850203,-0.998006 6.832384,-2.392345 8.849271,-3.098534 4.007749,-1.403259 3.938167,-1.386658 4.352162,-1.038306 0.513107,0.431749 0.515683,1.193038 0.005,1.556482 -0.101913,0.07252 -1.355223,0.541282 -2.785195,1.041641 -1.430038,0.500359 -3.70083,1.294931 -5.046271,1.765724 -8.282996,2.89829 -9.994859,3.493785 -10.139226,3.52701 -0.0885,0.02043 -0.271489,-0.002 -0.406604,-0.04907 z"
       id="path1-3" />
  </g>
</svg>
