<?xml version="1.0" encoding="UTF-8" standalone="no"?>
<svg
   width="64"
   height="64"
   version="1.1"
   id="svg73"
   sodipodi:docname="Logo.svg"
   inkscape:version="1.3.2 (091e20ef0f, 2023-11-25)"
   xmlns:inkscape="http://www.inkscape.org/namespaces/inkscape"
   xmlns:sodipodi="http://sodipodi.sourceforge.net/DTD/sodipodi-0.dtd"
   xmlns:xlink="http://www.w3.org/1999/xlink"
   xmlns="http://www.w3.org/2000/svg"
   xmlns:svg="http://www.w3.org/2000/svg"
   xmlns:rdf="http://www.w3.org/1999/02/22-rdf-syntax-ns#"
   xmlns:cc="http://creativecommons.org/ns#"
   xmlns:dc="http://purl.org/dc/elements/1.1/">
  <metadata
     id="metadata77">
    <rdf:RDF>
      <cc:Work
         rdf:about="">
        <dc:format>image/svg+xml</dc:format>
        <dc:type
           rdf:resource="http://purl.org/dc/dcmitype/StillImage" />
      </cc:Work>
    </rdf:RDF>
  </metadata>
  <sodipodi:namedview
     pagecolor="#f5f7fa"
     bordercolor="#666666"
     borderopacity="1"
     objecttolerance="10"
     gridtolerance="10"
     guidetolerance="10"
     inkscape:pageopacity="0"
     inkscape:pageshadow="2"
     inkscape:window-width="1377"
     inkscape:window-height="886"
     id="namedview75"
     showgrid="false"
     inkscape:zoom="6.2890624"
     inkscape:cx="28.462112"
     inkscape:cy="31.085715"
     inkscape:window-x="181"
     inkscape:window-y="77"
     inkscape:window-maximized="0"
     inkscape:current-layer="g877"
     inkscape:document-rotation="0"
     inkscape:pagecheckerboard="0"
     inkscape:showpageshadow="2"
     inkscape:deskcolor="#d1d1d1" />
  <defs
     id="defs29">
    <linearGradient
       id="b"
       x1="399.57"
       x2="399.57"
       y1="545.8"
       y2="517.8"
       gradientTransform="matrix(2.1429,0,0,2.1429,-825.86391,-1107.6662)"
       gradientUnits="userSpaceOnUse">
      <stop
         stop-color="#3889e9"
         offset="0"
         id="stop2" />
      <stop
         stop-color="#5ea5fb"
         offset="1"
         id="stop4" />
    </linearGradient>
    <linearGradient
       id="d"
       x2="1"
       gradientTransform="matrix(14.905727,-4.7106182,4.7106182,14.905727,322.04962,998.26962)"
       gradientUnits="userSpaceOnUse">
      <stop
         stop-color="#fafafa"
         offset="0"
         id="stop7" />
      <stop
         stop-color="#aaa"
         offset="1"
         id="stop8" />
    </linearGradient>
    <linearGradient
       id="e"
       x2="1"
       gradientTransform="matrix(21.439909,0,0,21.439909,26.63554,1159.7788)"
       gradientUnits="userSpaceOnUse">
      <stop
         stop-color="#f0f0f0"
         offset="0"
         id="stop9" />
      <stop
         stop-color="#b7f1ff"
         offset="1"
         id="stop10" />
    </linearGradient>
    <linearGradient
       id="b-3"
       x2="1"
       gradientTransform="matrix(0.16186201,-42.559246,42.559246,0.16186201,783.91966,56.594046)"
       gradientUnits="userSpaceOnUse">
      <stop
         stop-color="#ccc"
         offset="0"
         id="stop3"
         style="stop-color:#dfdfdf;stop-opacity:1;" />
      <stop
         stop-color="#fff"
         offset="1"
         id="stop4-6" />
    </linearGradient>
    <linearGradient
       id="g"
       x2="1"
       gradientTransform="matrix(30.1852,0,0,30.1852,11.855829,208.46672)"
       gradientUnits="userSpaceOnUse"
       xlink:href="#b-2" />
    <linearGradient
       id="b-2">
      <stop
         stop-color="#00f9af"
         offset="0"
         id="stop3-9" />
      <stop
         stop-color="#81ceac"
         offset="1"
         id="stop4-1" />
    </linearGradient>
    <linearGradient
       id="f"
       x2="1"
       gradientTransform="matrix(36.7424,35.6093,-35.6093,36.7424,-197.04156,228.03572)"
       gradientUnits="userSpaceOnUse">
      <stop
         stop-color="#373737"
         offset="0"
         id="stop5" />
      <stop
         stop-color="#1f1f1f"
         offset="1"
         id="stop6" />
    </linearGradient>
    <linearGradient
       id="e-2"
       x2="1"
       gradientTransform="matrix(10.8953,0,0,10.8953,26.926729,308.52672)"
       gradientUnits="userSpaceOnUse"
       xlink:href="#b-2" />
    <linearGradient
       id="d-0"
       x2="1"
       gradientTransform="matrix(10.8953,0,0,10.8953,26.926729,377.09072)"
       gradientUnits="userSpaceOnUse"
       xlink:href="#b-2" />
    <linearGradient
       id="c"
       x2="1"
       gradientTransform="matrix(10.8953,0,0,10.8953,26.926729,329.64973)"
       gradientUnits="userSpaceOnUse"
       xlink:href="#b-2" />
  </defs>
  <circle
     cx="32.516094"
     cy="31.877844"
     r="0"
     fill="url(#b)"
     stroke-width="1.5715"
     id="circle41"
     style="fill:url(#b)" />
  <g
     aria-label="GZ"
     transform="matrix(1.2212657,0,0,0.81882264,0.4960938,-0.1661539)"
     id="text93"
     style="font-weight:bold;font-size:11.5263px;line-height:1.25;font-family:sans-serif;-inkscape-font-specification:'sans-serif Bold';fill:#f2f2f2;stroke-width:0.288159" />
  <g
     id="g877"
     transform="matrix(1.1,0,0,1.1,-3.1845928,-3.2065454)">
    <rect
       x="6.3010068"
       y="5.4939413"
       width="51.635597"
       height="53.148327"
       rx="10.980581"
       ry="10.720582"
       fill="url(#linearGradient862)"
       stroke-width="3.0541"
       id="rect35-7-3"
       style="fill:#414141;fill-opacity:1;stroke:#dfdfdf;stroke-width:2.27272727;stroke-dasharray:none;stroke-opacity:1" />
    <path
       id="path4"
       style="fill:#dfdfdf;stroke-width:0.172249;fill-opacity:1"
       d="m 23.48525,13.004594 c -0.260933,5.28e-4 -0.518951,0.01168 -0.772372,0.03374 -2.385474,0.207564 -4.382755,1.034304 -6.20206,2.56392 -1.619953,1.362008 -2.887706,3.385528 -3.416193,5.456321 -0.274149,1.074208 -0.30015,1.31463 -0.300071,2.727273 6.6e-5,1.181658 0.01714,1.431389 0.133168,2.004616 0.184907,0.913485 0.526526,1.919304 0.933949,2.746804 l 0.346235,0.7049 -0.115411,0.731535 c -0.558175,3.500159 -0.118703,7.12336 1.253551,10.319602 2.519706,5.868881 7.967528,10.098258 14.23473,11.052913 1.916898,0.291991 3.613118,0.298411 5.587713,0.02131 l 0.669389,-0.09411 0.651633,0.287643 c 1.114165,0.493812 2.25972,0.807711 3.382458,0.925071 1.469659,0.153623 3.021637,-0.02302 4.477982,-0.507813 3.87319,-1.289332 6.667464,-4.646717 7.262074,-8.728693 0.130634,-0.896817 0.08673,-2.696561 -0.08523,-3.528054 -0.153354,-0.741558 -0.414259,-1.573373 -0.696022,-2.223011 l -0.223722,-0.520242 0.138495,-0.811434 c 0.204958,-1.187096 0.259852,-1.857545 0.259232,-3.215555 -7.74e-4,-1.7035 -0.174095,-3.108603 -0.569957,-4.632457 C 49.19582,23.549375 46.033576,19.376038 41.789582,16.910844 38.189348,14.819588 33.841037,13.969154 29.832906,14.57242 l -0.589488,0.08878 -0.410157,-0.239702 C 27.283246,13.516239 25.311783,13.000894 23.48525,13.004594 Z m 9.060724,9.6875 c 1.357348,-2.35e-4 2.426134,0.164477 3.46946,0.53267 1.007591,0.355582 2.161821,1.030291 2.565697,1.502131 0.93918,1.09722 0.676419,2.639515 -0.562855,3.311435 -0.340859,0.184809 -0.395025,0.197087 -0.907315,0.197087 -0.59259,0 -0.518755,0.02543 -1.555399,-0.536221 -0.929071,-0.503364 -2.210994,-0.813252 -3.350497,-0.811434 -1.376279,0.0022 -2.264944,0.395704 -2.643821,1.170099 -0.329451,0.673373 -0.237283,1.257327 0.278765,1.745383 0.549206,0.519417 1.234792,0.798204 3.623934,1.475498 2.507539,0.710857 3.621278,1.150713 4.648438,1.834162 0.573611,0.381667 1.314216,1.141949 1.628196,1.672585 0.73769,1.246723 0.902688,3.113412 0.415483,4.683948 -0.787106,2.537286 -3.175231,4.219377 -6.502131,4.580967 -0.511416,0.05559 -2.209147,0.07047 -2.686435,0.02308 C 29.584675,43.936187 28.249796,43.574124 27.079,43.018796 25.835106,42.428797 25.198058,41.9043 24.861315,41.193513 24.689716,40.831238 24.68062,40.77319 24.681983,40.149478 c 0.0013,-0.558093 0.02173,-0.712894 0.136718,-1.00142 0.260484,-0.653576 1.057817,-1.220575 1.800427,-1.280185 0.503513,-0.04042 0.894926,0.08595 1.480823,0.475852 1.232282,0.820074 2.811728,1.31788 4.389205,1.384944 0.637074,0.02709 0.906947,0.01395 1.292614,-0.06392 1.149269,-0.232073 1.787081,-0.775081 2.036577,-1.732955 0.129514,-0.497241 -0.0018,-0.852722 -0.475853,-1.296164 -0.537655,-0.502914 -1.331923,-0.830328 -3.526278,-1.45419 -3.241257,-0.9215 -4.46992,-1.499418 -5.557528,-2.615413 -1.163229,-1.193588 -1.622247,-3.061242 -1.226918,-4.991122 0.603466,-2.945947 3.583827,-4.882134 7.514204,-4.882813 z" />
    <g
       id="g14"
       transform="matrix(1.61051,0,0,1.61051,-6.0263129,-6.9347151)"
       style="fill:#dfdfdf;fill-opacity:1" />
    <g
       fill="none"
       stroke-width="4"
       id="g3"
       transform="matrix(0.90909091,0,0,0.90909091,10.167812,12.00595)"
       style="fill:#414141;fill-opacity:1;stroke:#dfdfdf;stroke-opacity:1" />
  </g>
</svg>
