<?xml version="1.0" encoding="UTF-8" standalone="no"?>
<svg
   width="64"
   height="64"
   version="1.1"
   id="svg73"
   sodipodi:docname="accessories-text-editor.svg"
   inkscape:version="1.4.2 (ebf0e940d0, 2025-05-08)"
   xmlns:inkscape="http://www.inkscape.org/namespaces/inkscape"
   xmlns:sodipodi="http://sodipodi.sourceforge.net/DTD/sodipodi-0.dtd"
   xmlns="http://www.w3.org/2000/svg"
   xmlns:svg="http://www.w3.org/2000/svg"
   xmlns:rdf="http://www.w3.org/1999/02/22-rdf-syntax-ns#"
   xmlns:cc="http://creativecommons.org/ns#"
   xmlns:dc="http://purl.org/dc/elements/1.1/">
  <metadata
     id="metadata77">
    <rdf:RDF>
      <cc:Work
         rdf:about="">
        <dc:format>image/svg+xml</dc:format>
        <dc:type
           rdf:resource="http://purl.org/dc/dcmitype/StillImage" />
      </cc:Work>
    </rdf:RDF>
  </metadata>
  <sodipodi:namedview
     pagecolor="#f5f7fa"
     bordercolor="#666666"
     borderopacity="1"
     objecttolerance="10"
     gridtolerance="10"
     guidetolerance="10"
     inkscape:pageopacity="0"
     inkscape:pageshadow="2"
     inkscape:window-width="1377"
     inkscape:window-height="886"
     id="namedview75"
     showgrid="false"
     inkscape:zoom="6.2890624"
     inkscape:cx="43.011181"
     inkscape:cy="42.693168"
     inkscape:window-x="264"
     inkscape:window-y="75"
     inkscape:window-maximized="0"
     inkscape:current-layer="g877"
     inkscape:document-rotation="0"
     inkscape:pagecheckerboard="0"
     inkscape:showpageshadow="2"
     inkscape:deskcolor="#d1d1d1" />
  <defs
     id="defs29" />
  <circle
     cx="32.516094"
     cy="31.877844"
     r="0"
     fill="url(#b)"
     stroke-width="1.5715"
     id="circle41"
     style="fill:url(#b)" />
  <g
     aria-label="GZ"
     transform="matrix(1.2212657,0,0,0.81882264,0.4960938,-0.1661539)"
     id="text93"
     style="font-weight:bold;font-size:11.5263px;line-height:1.25;font-family:sans-serif;-inkscape-font-specification:'sans-serif Bold';fill:#f2f2f2;stroke-width:0.288159" />
  <g
     id="g877"
     transform="matrix(1.1,0,0,1.1,-3.1845928,-3.2065454)">
    <rect
       x="8.3496294"
       y="8.369586"
       width="47.272728"
       height="47.272728"
       rx="9.8825235"
       ry="9.6485243"
       fill="url(#linearGradient862)"
       stroke-width="3.0541"
       id="rect35-7-3"
       style="fill:#414141;fill-opacity:1;stroke:#dfdfdf;stroke-width:2.04545;stroke-dasharray:none;stroke-opacity:1" />
    <path
       style="fill:#dfdfdf;fill-opacity:1;stroke-width:0.15023"
       d="m 19.504781,47.271556 c -1.042757,-0.375545 -1.501664,-0.700492 -2.104797,-1.490384 -0.635568,-0.832383 -0.962895,-1.894321 -0.962895,-3.123905 0,-1.150503 0.201336,-1.751118 0.563805,-1.681936 0.216553,0.04134 0.277922,0.273199 0.350825,1.325453 0.09984,1.441149 0.318889,1.966965 1.232152,2.95774 0.888877,0.964314 1.594498,1.278115 3.1113,1.383626 1.15212,0.08016 1.281399,0.119897 1.322306,0.406524 0.03585,0.25116 -0.0546,0.337669 -0.431915,0.413135 -0.878455,0.175692 -2.310186,0.08727 -3.080781,-0.190253 z m 18.836642,-4.63436 c -3.512054,-3.454959 -4.506901,-4.582203 -4.376617,-4.959082 0.04969,-0.14379 0.603712,-0.785601 1.231114,-1.426242 l 1.140735,-1.164801 -0.522792,-0.517808 -0.522794,-0.517807 -1.141781,1.09236 -1.141781,1.092363 -0.505947,-1.040787 c -0.82131,-1.689514 -2.054666,-2.884157 -3.953544,-3.829437 l -0.856442,-0.426348 0.9203,-0.877816 0.9203,-0.877817 -0.537381,-0.537382 -0.537386,-0.537383 -0.943906,0.935515 c -0.717705,0.711328 -1.047398,0.93552 -1.375754,0.93552 -0.363432,0 -1.011357,-0.578308 -4.089751,-3.650308 -3.146712,-3.140177 -3.657903,-3.713049 -3.657903,-4.09926 0,-0.382055 0.398771,-0.845498 2.676071,-3.110087 1.996043,-1.9849 2.768911,-2.66113 3.041415,-2.66113 0.528516,0 7.803599,7.292164 7.80261,7.820924 -4.63e-4,0.252008 -0.357402,0.737096 -1.141441,1.551298 l -1.140755,1.184634 0.534279,0.534281 0.534282,0.53428 0.895559,-0.85422 c 0.95169,-0.907761 1.412956,-1.156417 2.145175,-1.156417 0.250123,0 0.626371,-0.134979 0.836105,-0.299954 0.834351,-0.656302 2.175203,-0.673479 3.025346,-0.03875 0.721052,0.53834 0.98037,1.044129 1.040987,2.030425 0.05177,0.842339 0.01211,1.004636 -0.391508,1.60159 -0.247014,0.365342 -0.415728,0.751277 -0.37492,0.857631 0.139236,0.36284 -0.292407,1.306139 -0.898618,1.9638 l -0.605223,0.656587 0.499078,0.514916 0.499079,0.514917 0.957781,-0.895959 c 0.675439,-0.631834 1.076097,-0.895962 1.359107,-0.895962 0.323986,0 1.118971,0.717655 4.125852,3.724537 2.819812,2.81981 3.724536,3.813108 3.724536,4.089163 0,0.272189 -0.677191,1.041816 -2.671231,3.035853 -2.179757,2.17976 -2.748034,2.671227 -3.088686,2.671227 -0.340555,0 -0.973063,-0.54657 -3.43355,-2.967059 z m 4.128824,-1.42203 -0.70843,-0.719245 -0.719251,0.708434 -0.719248,0.708429 0.708434,0.719251 0.708431,0.719244 0.719253,-0.70843 0.719243,-0.708433 z m -1.994079,-0.645817 0.665613,-0.678209 -0.70945,-0.709446 -0.709451,-0.70945 -0.709448,0.70945 -0.709448,0.709446 0.665613,0.678209 c 0.366089,0.37302 0.705066,0.678213 0.753283,0.678213 0.04823,0 0.387199,-0.305193 0.753288,-0.678213 z m 4.01674,-1.383316 -0.70945,-0.709448 -0.67877,0.666163 -0.67877,0.666163 0.710332,0.721173 0.71033,0.721175 0.677887,-0.677889 0.677891,-0.677888 z m -6.119974,-0.719914 0.665611,-0.678213 -0.709446,-0.709446 -0.709451,-0.70945 -0.709448,0.70945 -0.709448,0.709446 0.665614,0.678213 c 0.366086,0.373017 0.705062,0.67821 0.753282,0.67821 0.04823,0 0.387201,-0.305193 0.753286,-0.67821 z m 4.173036,0.03405 0.632183,-0.64415 -0.719303,-0.70849 -0.71931,-0.708488 -0.66403,0.676595 -0.664035,0.676603 0.663486,0.676038 c 0.364915,0.37182 0.702934,0.676039 0.751153,0.676039 0.04823,0 0.372156,-0.289869 0.719856,-0.644147 z m -2.102917,-2.103558 0.6325,-0.644466 -0.659196,-0.646952 c -0.738415,-0.724701 -0.869529,-0.714133 -1.654243,0.133331 l -0.43496,0.469746 0.654026,0.666408 c 0.359718,0.366522 0.693483,0.666405 0.7417,0.666405 0.04823,0 0.372299,-0.290007 0.720173,-0.644472 z m -13.538397,-9.383435 0.637307,-0.713599 -0.626096,-0.638481 c -0.344352,-0.351164 -0.708898,-0.63848 -0.810105,-0.63848 -0.101199,0 -0.435991,0.307511 -0.743969,0.683359 l -0.559962,0.68336 0.6563,0.668717 c 0.36096,0.367797 0.690703,0.668719 0.732758,0.668719 0.04207,0 0.363253,-0.321118 0.713767,-0.713595 z m -2.052504,-2.067847 0.665612,-0.678211 -0.709447,-0.709446 -0.709449,-0.70945 -0.709451,0.70945 -0.709449,0.709446 0.665614,0.678211 c 0.366086,0.373016 0.705066,0.67821 0.753286,0.67821 0.04822,0 0.387197,-0.305194 0.753284,-0.67821 z m 4.173038,0.03405 0.632182,-0.644149 -0.719306,-0.708492 -0.719306,-0.708488 -0.664032,0.676599 -0.664033,0.6766 0.663484,0.676039 c 0.364913,0.37182 0.702936,0.676037 0.751154,0.676037 0.04824,0 0.372154,-0.289868 0.719857,-0.644146 z m -6.235192,-3.44448 -0.708433,-0.719249 -0.719247,0.708433 -0.719249,0.708433 0.708432,0.719249 0.708435,0.719247 0.719247,-0.708435 0.71925,-0.70843 z m 4.131958,1.341248 0.632184,-0.644147 -0.719308,-0.708493 -0.719306,-0.708488 -0.664032,0.676596 -0.664031,0.676602 0.663481,0.676038 c 0.364917,0.371822 0.702937,0.676039 0.751158,0.676039 0.04823,0 0.372153,-0.289867 0.719854,-0.644147 z m -2.109298,-3.370387 -0.709451,-0.709448 -0.678767,0.666163 -0.678771,0.666161 0.71033,0.721177 0.710332,0.721174 0.677887,-0.677887 0.677889,-0.677892 z m -3.793524,25.816012 c -1.179118,-0.308617 -1.964131,-1.0434 -2.328462,-2.179469 -0.199858,-0.623203 -0.114744,-1.990459 0.139754,-2.244957 0.278104,-0.278106 0.573335,0.191042 0.64211,1.020366 0.125175,1.509415 1.311564,2.634909 2.777481,2.634909 0.64741,0 1.118352,0.339894 0.846968,0.61128 -0.201937,0.201937 -1.525328,0.302483 -2.077851,0.157871 z m 8.812898,-1.969851 c -1.177656,-0.42367 -3.479701,-1.810806 -3.479701,-2.096745 0,-0.0705 0.238871,-0.269116 0.530826,-0.441373 l 0.530829,-0.313193 1.084156,0.742085 c 1.319422,0.903124 1.666797,0.989274 1.731512,0.429406 0.09486,-0.820683 -0.978434,-2.475484 -2.886784,-4.450819 -1.540088,-1.594144 -2.969859,-2.706689 -4.205394,-3.272336 -0.683596,-0.31296 -0.896427,-0.354276 -1.07246,-0.208182 -0.120787,0.100244 -0.219614,0.238976 -0.219614,0.308296 0,0.06931 0.362185,0.657928 0.804852,1.308029 l 0.804852,1.182002 -0.333296,0.653314 -0.333292,0.653311 -0.542491,-0.740333 c -0.93976,-1.282497 -1.794968,-3.121121 -1.869437,-4.019142 -0.06456,-0.778239 -0.04661,-0.826934 0.437855,-1.188993 0.752329,-0.562246 1.569493,-0.779198 2.908845,-0.772279 1.355349,0.007 2.543562,0.309187 3.89815,0.991365 3.13143,1.577009 5.207449,4.841518 5.233647,8.229831 0.0098,1.269146 -0.21007,2.100404 -0.745107,2.816831 -0.438879,0.587675 -1.03268,0.636925 -2.277948,0.188925 z m -8.089935,-1.090307 c -0.42648,-0.471242 -0.516911,-0.977535 -0.277114,-1.551446 0.257856,-0.617142 0.690292,-0.851747 1.454082,-0.788871 l 0.598855,0.0493 0.86374,-1.427194 c 1.022626,-1.689717 1.271297,-1.808013 2.054653,-0.977411 0.284319,0.301462 0.516942,0.673128 0.516942,0.825922 0,0.187793 -0.479771,0.582819 -1.480698,1.219155 l -1.480699,0.941348 0.07175,0.636612 c 0.06058,0.537424 0.01146,0.696908 -0.315241,1.023611 -0.521528,0.521526 -1.555766,0.546775 -2.006276,0.04897 z"
       id="path1880" />
  </g>
</svg>
