<?xml version="1.0" encoding="UTF-8" standalone="no"?>
<svg
   width="64"
   height="64"
   version="1.1"
   id="svg73"
   sodipodi:docname="steam_icon_1604030.svg"
   inkscape:version="1.4.2 (ebf0e940d0, 2025-05-08)"
   xmlns:inkscape="http://www.inkscape.org/namespaces/inkscape"
   xmlns:sodipodi="http://sodipodi.sourceforge.net/DTD/sodipodi-0.dtd"
   xmlns="http://www.w3.org/2000/svg"
   xmlns:svg="http://www.w3.org/2000/svg"
   xmlns:rdf="http://www.w3.org/1999/02/22-rdf-syntax-ns#"
   xmlns:cc="http://creativecommons.org/ns#"
   xmlns:dc="http://purl.org/dc/elements/1.1/">
  <metadata
     id="metadata77">
    <rdf:RDF>
      <cc:Work
         rdf:about="">
        <dc:format>image/svg+xml</dc:format>
        <dc:type
           rdf:resource="http://purl.org/dc/dcmitype/StillImage" />
      </cc:Work>
    </rdf:RDF>
  </metadata>
  <sodipodi:namedview
     pagecolor="#f5f7fa"
     bordercolor="#666666"
     borderopacity="1"
     objecttolerance="10"
     gridtolerance="10"
     guidetolerance="10"
     inkscape:pageopacity="0"
     inkscape:pageshadow="2"
     inkscape:window-width="1377"
     inkscape:window-height="886"
     id="namedview75"
     showgrid="false"
     inkscape:zoom="6.2890624"
     inkscape:cx="47.622361"
     inkscape:cy="45.396274"
     inkscape:window-x="147"
     inkscape:window-y="75"
     inkscape:window-maximized="0"
     inkscape:current-layer="g877"
     inkscape:document-rotation="0"
     inkscape:pagecheckerboard="0"
     inkscape:showpageshadow="2"
     inkscape:deskcolor="#d1d1d1" />
  <defs
     id="defs29" />
  <circle
     cx="32.516094"
     cy="31.877844"
     r="0"
     fill="url(#b)"
     stroke-width="1.5715"
     id="circle41"
     style="fill:url(#b)" />
  <g
     aria-label="GZ"
     transform="matrix(1.2212657,0,0,0.81882264,0.4960938,-0.1661539)"
     id="text93"
     style="font-weight:bold;font-size:11.5263px;line-height:1.25;font-family:sans-serif;-inkscape-font-specification:'sans-serif Bold';fill:#f2f2f2;stroke-width:0.288159" />
  <g
     id="g877"
     transform="matrix(1.1,0,0,1.1,-3.1845928,-3.2065454)">
    <rect
       x="8.3496294"
       y="8.369586"
       width="47.272728"
       height="47.272728"
       rx="9.8825235"
       ry="9.6485243"
       fill="url(#linearGradient862)"
       stroke-width="3.0541"
       id="rect35-7-3"
       style="fill:#414141;fill-opacity:1;stroke:#dfdfdf;stroke-width:2.04545;stroke-dasharray:none;stroke-opacity:1" />
    <path
       style="fill:#dfdfdf;fill-opacity:1;stroke-width:0.517998"
       d="m 31.149826,46.20766 c -0.250167,-0.641017 -0.716912,-2.143439 -1.037213,-3.338714 -0.359332,-1.340935 -1.548798,-3.230657 -3.105845,-4.934312 -2.50241,-2.738038 -2.516815,-2.773954 -1.725361,-4.30172 1.178528,-2.274948 1.606707,-2.358089 4.357467,-0.846103 l 2.506008,1.377454 2.590247,-1.424488 c 1.424636,-0.783468 2.701109,-1.424487 2.836601,-1.424487 0.135481,0 0.692447,0.869524 1.237668,1.932276 l 0.991317,1.932275 -2.520602,2.757937 c -1.554561,1.700944 -2.743794,3.590849 -3.102964,4.931168 -0.875197,3.266002 -1.433867,4.504206 -2.032267,4.504206 -0.297111,0 -0.744888,-0.524464 -0.995056,-1.165492 z M 18.848708,33.655022 c 1.04515,-1.368791 1.900271,-2.804838 1.900271,-3.191215 0,-0.427074 0.579021,-0.702503 1.476837,-0.702503 0.812261,0 2.593148,-0.59355 3.957529,-1.318997 3.94623,-2.098231 4.604088,-1.401854 1.443799,1.528339 -1.487616,1.379303 -2.825983,2.889777 -2.97415,3.356609 -0.156029,0.491605 -1.306621,1.109971 -2.734199,1.469453 -1.355643,0.341367 -3.028554,0.784098 -3.717581,0.983846 -1.176202,0.340978 -1.136624,0.211055 0.647494,-2.125532 z m 4.834283,-1.079561 c 0.43173,-1.125068 -0.664293,-2.183101 -1.448806,-1.398588 -0.663051,0.663052 -0.252291,2.210399 0.586776,2.210399 0.302777,0 0.690695,-0.365316 0.86203,-0.811811 z m 20.445815,2.604522 c -0.958623,-0.416197 -2.283233,-0.75672 -2.943567,-0.75672 -0.704339,0 -1.323803,-0.388134 -1.49864,-0.939 -0.163914,-0.516451 -1.499196,-2.089863 -2.967293,-3.49647 -3.113721,-2.983306 -2.476422,-3.655128 1.472931,-1.552726 1.370233,0.729431 3.134204,1.326237 3.919935,1.326237 0.890378,0 1.428611,0.277787 1.428611,0.737317 0,0.405524 0.814301,1.804111 1.809563,3.107973 1.902405,2.492284 1.648436,2.819409 -1.22154,1.573389 z m -1.797973,-2.604522 c 0.431726,-1.125068 -0.664296,-2.183101 -1.448808,-1.398588 -0.663052,0.663052 -0.252305,2.210399 0.586773,2.210399 0.302781,0 0.690702,-0.365316 0.862035,-0.811811 z M 20.748979,28.190679 c 0,-1.648736 1.290206,-4.266202 2.780174,-5.640191 1.56438,-1.442608 2.25166,-1.182127 1.34599,0.510133 -0.367355,0.686411 -0.496691,2.055655 -0.317597,3.362298 0.325842,2.377274 -0.07571,2.820389 -2.555943,2.820389 -0.913893,0 -1.252624,-0.284649 -1.252624,-1.052629 z m 19.310467,0.714615 c -0.429596,-0.174068 -0.535002,-0.966533 -0.328722,-2.471459 0.180493,-1.317021 0.0524,-2.684762 -0.316112,-3.373214 -0.905668,-1.69226 -0.218392,-1.952741 1.345988,-0.510133 1.489968,1.373989 2.780176,3.991455 2.780176,5.640191 0,0.812905 -0.324393,1.043316 -1.424491,1.011734 -0.783463,-0.02251 -1.709046,-0.156197 -2.056845,-0.297118 z M 29.645199,22.864477 c -2.23519,-2.379249 -0.744798,-6.225729 2.412277,-6.225729 3.448532,0 5.022412,3.942257 2.514499,6.298319 -1.555339,1.461165 -3.512986,1.432321 -4.926776,-0.07259 z"
       id="path293" />
    <rect
       x="37.737823"
       y="37.757782"
       width="22.610399"
       height="22.610399"
       rx="4.7267799"
       ry="4.6148596"
       fill="url(#linearGradient862)"
       stroke-width="3.0541"
       id="rect35-7-3-1"
       style="fill:#414141;fill-opacity:1;stroke:#dfdfdf;stroke-width:0.978336;stroke-dasharray:none;stroke-opacity:1" />
    <path
       id="path1"
       style="fill:#dfdfdf;fill-opacity:1;stroke:none;stroke-width:0.224244;stroke-dasharray:none;stroke-dashoffset:2.2;stroke-opacity:0.6"
       d="m 53.054544,43.299438 c -0.231167,-9.7e-5 -0.478613,0.09299 -0.788298,0.274436 -0.736938,0.431788 -1.700715,0.635422 -3.024237,0.635422 -1.323397,0 -2.319324,-0.207971 -3.051873,-0.637265 -0.587409,-0.344229 -0.938101,-0.348791 -1.431082,-0.01642 -1.265645,0.852917 -2.219508,3.587517 -2.499329,7.160943 -0.167795,2.14283 -0.01103,3.27254 0.543328,3.908309 0.267381,0.306528 0.923785,0.254559 1.515809,-0.12156 0.501846,-0.318836 1.099794,-1.022374 1.814177,-2.134665 0.645548,-1.005122 1.426374,-1.336165 3.153173,-1.338993 1.723362,-0.0026 2.400625,0.323379 3.195531,1.545274 1.333668,2.050042 2.566393,2.763747 3.289465,1.90442 0.40058,-0.476052 0.473899,-0.936006 0.454923,-2.851106 -0.03457,-3.478896 -0.94394,-6.643709 -2.254366,-7.851617 -0.349004,-0.321703 -0.619985,-0.476908 -0.917221,-0.477033 z m -7.486939,2.049926 h 0.799346 0.79934 v 0.685152 0.685155 h 0.685156 0.685148 v 0.856441 0.856435 h -0.685148 -0.685156 v 0.742248 0.742251 h -0.723826 c -0.397652,0 -0.755645,-0.03568 -0.797503,-0.07735 -0.04185,-0.04185 -0.07732,-0.374141 -0.07732,-0.740403 v -0.666745 h -0.685161 -0.685156 v -0.856437 -0.856439 h 0.685156 0.685149 v -0.685157 z m 6.516311,0 c 0.721112,0 1.029934,0.798977 0.510182,1.318734 -0.330544,0.330508 -0.632217,0.356486 -0.957741,0.08106 -0.56463,-0.477772 -0.269928,-1.399771 0.447559,-1.399771 z m -1.386879,1.464237 c 0.180072,1.21e-4 0.361362,0.07187 0.50465,0.230203 0.223372,0.246825 0.247504,0.811915 0.04607,1.075615 -0.394228,0.516094 -1.340833,0.18413 -1.340833,-0.469659 0,-0.496196 0.39399,-0.836453 0.790134,-0.836178 z m 2.830855,0.02772 c 0.207551,0.0039 0.409039,0.07252 0.526752,0.202589 0.223372,0.246826 0.247471,0.811914 0.04604,1.075617 -0.419316,0.548931 -1.340835,0.181519 -1.340835,-0.534125 0,-0.216927 0.08692,-0.452038 0.2081,-0.56175 0.138541,-0.125395 0.35239,-0.186127 0.559914,-0.182325 z m -1.394247,1.477124 c 0.639304,0 0.95037,0.678118 0.563588,1.230325 -0.132224,0.188768 -0.293477,0.254171 -0.626215,0.254171 -0.383084,0 -0.471983,-0.04986 -0.626209,-0.348115 -0.30411,-0.588069 0.02772,-1.136394 0.688836,-1.136394 z" />
  </g>
</svg>
