<?xml version="1.0" encoding="UTF-8" standalone="no"?>
<svg
   width="64"
   height="64"
   version="1.1"
   id="svg73"
   sodipodi:docname="system-software-installer.svg"
   inkscape:version="1.4.2 (ebf0e940d0, 2025-05-08)"
   xmlns:inkscape="http://www.inkscape.org/namespaces/inkscape"
   xmlns:sodipodi="http://sodipodi.sourceforge.net/DTD/sodipodi-0.dtd"
   xmlns="http://www.w3.org/2000/svg"
   xmlns:svg="http://www.w3.org/2000/svg"
   xmlns:rdf="http://www.w3.org/1999/02/22-rdf-syntax-ns#"
   xmlns:cc="http://creativecommons.org/ns#"
   xmlns:dc="http://purl.org/dc/elements/1.1/">
  <metadata
     id="metadata77">
    <rdf:RDF>
      <cc:Work
         rdf:about="">
        <dc:format>image/svg+xml</dc:format>
        <dc:type
           rdf:resource="http://purl.org/dc/dcmitype/StillImage" />
      </cc:Work>
    </rdf:RDF>
  </metadata>
  <sodipodi:namedview
     pagecolor="#f5f7fa"
     bordercolor="#666666"
     borderopacity="1"
     objecttolerance="10"
     gridtolerance="10"
     guidetolerance="10"
     inkscape:pageopacity="0"
     inkscape:pageshadow="2"
     inkscape:window-width="1377"
     inkscape:window-height="886"
     id="namedview75"
     showgrid="false"
     inkscape:zoom="6.2890624"
     inkscape:cx="47.622361"
     inkscape:cy="45.396274"
     inkscape:window-x="147"
     inkscape:window-y="75"
     inkscape:window-maximized="0"
     inkscape:current-layer="g877"
     inkscape:document-rotation="0"
     inkscape:pagecheckerboard="0"
     inkscape:showpageshadow="2"
     inkscape:deskcolor="#d1d1d1" />
  <defs
     id="defs29">
    <linearGradient
       id="b"
       x1="399.57"
       x2="399.57"
       y1="545.8"
       y2="517.8"
       gradientTransform="matrix(2.1429,0,0,2.1429,-825.86391,-1107.6662)"
       gradientUnits="userSpaceOnUse">
      <stop
         stop-color="#3889e9"
         offset="0"
         id="stop2" />
      <stop
         stop-color="#5ea5fb"
         offset="1"
         id="stop4" />
    </linearGradient>
  </defs>
  <circle
     cx="32.516094"
     cy="31.877844"
     r="0"
     fill="url(#b)"
     stroke-width="1.5715"
     id="circle41"
     style="fill:url(#b)" />
  <g
     aria-label="GZ"
     transform="matrix(1.2212657,0,0,0.81882264,0.4960938,-0.1661539)"
     id="text93"
     style="font-weight:bold;font-size:11.5263px;line-height:1.25;font-family:sans-serif;-inkscape-font-specification:'sans-serif Bold';fill:#f2f2f2;stroke-width:0.288159" />
  <g
     id="g877"
     transform="matrix(1.1,0,0,1.1,-3.1845928,-3.2065454)">
    <rect
       x="8.3496294"
       y="8.369586"
       width="47.272728"
       height="47.272728"
       rx="9.8825235"
       ry="9.6485243"
       fill="url(#linearGradient862)"
       stroke-width="3.0541"
       id="rect35-7-3"
       style="fill:#414141;fill-opacity:1;stroke:#dfdfdf;stroke-width:2.04545;stroke-dasharray:none;stroke-opacity:1" />
    <path
       style="fill:#dfdfdf;fill-opacity:1;stroke:none;stroke-width:0.389922;stroke-dasharray:none;stroke-opacity:0.6"
       d="M 31.197839,47.64037 C 30.58363,47.358317 30.446093,47.151061 30.09995,45.985892 29.64506,44.454682 29.26827,43.696868 28.403565,42.574056 27.476949,41.370877 25.67357,39.5547 24.697997,38.842208 c -0.390002,-0.284811 -0.694804,-0.532161 -0.677342,-0.549627 0.01748,-0.0181 0.348403,0.0067 0.735415,0.05296 0.387016,0.04665 0.702678,0.05765 0.701478,0.02486 -0.0014,-0.03309 -0.273631,-0.234919 -0.605399,-0.448532 -0.701821,-0.45201 -1.664874,-1.281005 -1.816032,-1.563451 -0.0921,-0.172081 -0.03191,-0.162462 0.496428,0.07941 0.33069,0.151356 0.840357,0.295916 1.132606,0.321165 l 0.531366,0.04613 -0.47379,-0.308735 c -0.638402,-0.41625 -1.629581,-1.506677 -1.957456,-2.153708 -0.411733,-0.812513 -1.099727,-4.382385 -1.092044,-5.666403 0.0025,-0.432098 0.04342,-0.355501 0.463962,0.870351 0.903169,2.632648 1.580715,3.696475 2.519324,3.95564 0.393974,0.108783 0.803219,0.05818 0.803219,-0.0993 0,-0.05056 -0.347834,-1.075532 -0.772968,-2.277699 -1.127995,-3.189702 -1.267131,-3.75268 -1.268778,-5.133786 -0.0016,-1.370769 0.117648,-1.770935 0.941522,-3.158591 1.025394,-1.727081 1.047825,-1.801609 1.045758,-3.474452 -0.0015,-1.213592 -0.044,-1.620642 -0.240417,-2.303998 -0.131228,-0.456495 -0.218711,-0.84988 -0.194404,-0.874185 0.06505,-0.06506 0.667892,1.643075 1.02874,2.914969 0.461203,1.625624 0.486953,2.231897 0.157053,3.697699 -0.466826,2.074187 -0.351729,3.466575 0.412348,4.988428 0.374609,0.746121 1.640447,2.388452 1.699731,2.20527 0.01777,-0.05475 0.149077,-0.733189 0.291906,-1.507644 0.142834,-0.774455 0.280063,-1.428475 0.304966,-1.453374 0.02492,-0.02495 0.228285,0.418328 0.451959,0.984958 0.22439,0.568449 0.418829,0.936744 0.433785,0.821659 0.01492,-0.11472 0.141011,-1.455983 0.280236,-2.980589 0.139221,-1.524608 0.271815,-2.790696 0.294653,-2.813535 0.02278,-0.0228 0.394208,1.117552 0.825271,2.534199 0.431067,1.416645 0.807446,2.575422 0.836398,2.575063 0.02899,-3.64e-4 0.405459,-1.159307 0.836681,-2.575436 0.431221,-1.416123 0.802597,-2.556215 0.825279,-2.533532 0.04034,0.04034 0.545215,5.280318 0.547763,5.685273 0.002,0.324412 0.150084,0.07985 0.525071,-0.86742 0.189999,-0.479976 0.365109,-0.853036 0.389119,-0.829025 0.04522,0.04522 0.561109,2.756047 0.561109,2.948459 0,0.217003 0.664185,-0.530541 1.257884,-1.41575 0.812831,-1.211948 1.06736,-1.966333 1.133032,-3.358093 0.04459,-0.945543 0.01069,-1.288323 -0.233907,-2.368943 -0.341732,-1.509152 -0.318695,-2.098748 0.146272,-3.737667 0.360812,-1.271894 0.963666,-2.980033 1.028742,-2.914969 0.02486,0.02427 -0.06317,0.41769 -0.194417,0.874185 -0.196409,0.683357 -0.238938,1.090406 -0.240411,2.304 -0.0024,1.672841 0.02056,1.74737 1.045754,3.474451 0.824964,1.389498 0.94346,1.787689 0.939895,3.15859 -0.0037,1.406068 -0.153482,2.017144 -1.251713,5.102988 -0.433624,1.218455 -0.788398,2.257011 -0.788398,2.307901 0,0.158025 0.408645,0.20885 0.803215,0.09991 0.939921,-0.259522 1.6132,-1.317247 2.511137,-3.944957 0.424445,-1.24209 0.463456,-1.315396 0.468964,-0.88103 0.01565,1.255673 -0.67452,4.84873 -1.088856,5.666402 -0.327468,0.646232 -1.31819,1.736576 -1.95748,2.154344 l -0.47379,0.309612 0.590936,-0.0552 c 0.331556,-0.03113 0.83117,-0.176942 1.138225,-0.332514 0.492637,-0.249642 0.53624,-0.256718 0.436851,-0.071 -0.156184,0.291654 -1.109366,1.115186 -1.821642,1.573729 -0.331824,0.213563 -0.604196,0.415399 -0.605392,0.448477 -0.0015,0.03309 0.314507,0.02209 0.70147,-0.02486 0.387022,-0.04658 0.717955,-0.07046 0.735409,-0.05299 0.01748,0.0181 -0.287327,0.264775 -0.677332,0.549631 -0.975571,0.71249 -2.778952,2.528671 -3.705569,3.731855 -0.864703,1.122799 -1.241497,1.880619 -1.696387,3.411834 -0.171645,0.57777 -0.394128,1.142887 -0.494411,1.255788 -0.260935,0.293833 -0.962787,0.592076 -1.393125,0.592076 -0.202679,0 -0.558017,-0.08698 -0.789647,-0.193374 z m -0.01365,-3.53349 c 0.159595,-0.243602 0.154093,-0.274042 -0.105079,-0.582085 -0.216221,-0.256951 -0.304088,-0.299663 -0.419536,-0.203867 -0.188304,0.156245 -0.184493,0.347368 0.01457,0.732362 0.195321,0.377678 0.291047,0.387743 0.510009,0.05361 z m 2.116737,-0.05357 c 0.193373,-0.37392 0.202087,-0.553368 0.03506,-0.720435 -0.09728,-0.09732 -0.180369,-0.07417 -0.368499,0.102574 -0.267446,0.251213 -0.298209,0.417822 -0.133905,0.724838 0.151982,0.283983 0.280409,0.254619 0.467383,-0.107031 z m -3.189055,-6.303498 c 0.153992,-0.06207 0.122655,-0.155048 -0.237071,-0.703279 -0.642887,-0.979732 -2.28044,-2.538212 -2.46894,-2.349716 -0.08172,0.08172 0.258111,1.044072 0.585715,1.658731 0.397535,0.745849 0.785219,1.133783 1.325569,1.326412 0.456066,0.162568 0.541706,0.1699 0.794727,0.06788 z m 4.431697,-0.02486 c 0.561898,-0.156489 1.090999,-0.661892 1.462209,-1.397261 0.248463,-0.492196 0.605072,-1.436558 0.613179,-1.623792 6.24e-4,-0.01442 -0.06708,-0.02635 -0.150477,-0.02635 -0.226408,0 -1.980795,1.756895 -2.416751,2.420198 -0.338165,0.514515 -0.359536,0.585671 -0.195426,0.650636 0.25226,0.09988 0.240182,0.100306 0.687257,-0.02455 z"
       id="path1-0" />
    <rect
       x="37.737823"
       y="37.757782"
       width="22.610399"
       height="22.610399"
       rx="4.7267799"
       ry="4.6148596"
       fill="url(#linearGradient862)"
       stroke-width="3.0541"
       id="rect35-7-3-1"
       style="fill:#414141;fill-opacity:1;stroke:#dfdfdf;stroke-width:0.978336;stroke-dasharray:none;stroke-opacity:1" />
    <path
       id="path1"
       style="fill:#dfdfdf;fill-opacity:1;stroke:none;stroke-width:0.224244;stroke-dasharray:none;stroke-dashoffset:2.2;stroke-opacity:0.6"
       d="m 53.054544,43.299438 c -0.231167,-9.7e-5 -0.478613,0.09299 -0.788298,0.274436 -0.736938,0.431788 -1.700715,0.635422 -3.024237,0.635422 -1.323397,0 -2.319324,-0.207971 -3.051873,-0.637265 -0.587409,-0.344229 -0.938101,-0.348791 -1.431082,-0.01642 -1.265645,0.852917 -2.219508,3.587517 -2.499329,7.160943 -0.167795,2.14283 -0.01103,3.27254 0.543328,3.908309 0.267381,0.306528 0.923785,0.254559 1.515809,-0.12156 0.501846,-0.318836 1.099794,-1.022374 1.814177,-2.134665 0.645548,-1.005122 1.426374,-1.336165 3.153173,-1.338993 1.723362,-0.0026 2.400625,0.323379 3.195531,1.545274 1.333668,2.050042 2.566393,2.763747 3.289465,1.90442 0.40058,-0.476052 0.473899,-0.936006 0.454923,-2.851106 -0.03457,-3.478896 -0.94394,-6.643709 -2.254366,-7.851617 -0.349004,-0.321703 -0.619985,-0.476908 -0.917221,-0.477033 z m -7.486939,2.049926 h 0.799346 0.79934 v 0.685152 0.685155 h 0.685156 0.685148 v 0.856441 0.856435 h -0.685148 -0.685156 v 0.742248 0.742251 h -0.723826 c -0.397652,0 -0.755645,-0.03568 -0.797503,-0.07735 -0.04185,-0.04185 -0.07732,-0.374141 -0.07732,-0.740403 v -0.666745 h -0.685161 -0.685156 v -0.856437 -0.856439 h 0.685156 0.685149 v -0.685157 z m 6.516311,0 c 0.721112,0 1.029934,0.798977 0.510182,1.318734 -0.330544,0.330508 -0.632217,0.356486 -0.957741,0.08106 -0.56463,-0.477772 -0.269928,-1.399771 0.447559,-1.399771 z m -1.386879,1.464237 c 0.180072,1.21e-4 0.361362,0.07187 0.50465,0.230203 0.223372,0.246825 0.247504,0.811915 0.04607,1.075615 -0.394228,0.516094 -1.340833,0.18413 -1.340833,-0.469659 0,-0.496196 0.39399,-0.836453 0.790134,-0.836178 z m 2.830855,0.02772 c 0.207551,0.0039 0.409039,0.07252 0.526752,0.202589 0.223372,0.246826 0.247471,0.811914 0.04604,1.075617 -0.419316,0.548931 -1.340835,0.181519 -1.340835,-0.534125 0,-0.216927 0.08692,-0.452038 0.2081,-0.56175 0.138541,-0.125395 0.35239,-0.186127 0.559914,-0.182325 z m -1.394247,1.477124 c 0.639304,0 0.95037,0.678118 0.563588,1.230325 -0.132224,0.188768 -0.293477,0.254171 -0.626215,0.254171 -0.383084,0 -0.471983,-0.04986 -0.626209,-0.348115 -0.30411,-0.588069 0.02772,-1.136394 0.688836,-1.136394 z" />
  </g>
</svg>
