<?xml version="1.0" encoding="UTF-8" standalone="no"?>
<svg
   width="64"
   height="64"
   version="1.1"
   id="svg73"
   sodipodi:docname="steam_icon_368260.svg"
   inkscape:version="1.4.2 (ebf0e940d0, 2025-05-08)"
   xmlns:inkscape="http://www.inkscape.org/namespaces/inkscape"
   xmlns:sodipodi="http://sodipodi.sourceforge.net/DTD/sodipodi-0.dtd"
   xmlns="http://www.w3.org/2000/svg"
   xmlns:svg="http://www.w3.org/2000/svg"
   xmlns:rdf="http://www.w3.org/1999/02/22-rdf-syntax-ns#"
   xmlns:cc="http://creativecommons.org/ns#"
   xmlns:dc="http://purl.org/dc/elements/1.1/">
  <metadata
     id="metadata77">
    <rdf:RDF>
      <cc:Work
         rdf:about="">
        <dc:format>image/svg+xml</dc:format>
        <dc:type
           rdf:resource="http://purl.org/dc/dcmitype/StillImage" />
      </cc:Work>
    </rdf:RDF>
  </metadata>
  <sodipodi:namedview
     pagecolor="#f5f7fa"
     bordercolor="#666666"
     borderopacity="1"
     objecttolerance="10"
     gridtolerance="10"
     guidetolerance="10"
     inkscape:pageopacity="0"
     inkscape:pageshadow="2"
     inkscape:window-width="1377"
     inkscape:window-height="886"
     id="namedview75"
     showgrid="false"
     inkscape:zoom="6.2890624"
     inkscape:cx="47.622361"
     inkscape:cy="45.396274"
     inkscape:window-x="147"
     inkscape:window-y="75"
     inkscape:window-maximized="0"
     inkscape:current-layer="g877"
     inkscape:document-rotation="0"
     inkscape:pagecheckerboard="0"
     inkscape:showpageshadow="2"
     inkscape:deskcolor="#d1d1d1" />
  <defs
     id="defs29" />
  <circle
     cx="32.516094"
     cy="31.877844"
     r="0"
     fill="url(#b)"
     stroke-width="1.5715"
     id="circle41"
     style="fill:url(#b)" />
  <g
     aria-label="GZ"
     transform="matrix(1.2212657,0,0,0.81882264,0.4960938,-0.1661539)"
     id="text93"
     style="font-weight:bold;font-size:11.5263px;line-height:1.25;font-family:sans-serif;-inkscape-font-specification:'sans-serif Bold';fill:#f2f2f2;stroke-width:0.288159" />
  <g
     id="g877"
     transform="matrix(1.1,0,0,1.1,-3.1845928,-3.2065454)">
    <rect
       x="8.3496294"
       y="8.369586"
       width="47.272728"
       height="47.272728"
       rx="9.8825235"
       ry="9.6485243"
       fill="url(#linearGradient862)"
       stroke-width="3.0541"
       id="rect35-7-3"
       style="fill:#414141;fill-opacity:1;stroke:#dfdfdf;stroke-width:2.04545;stroke-dasharray:none;stroke-opacity:1" />
    <path
       style="fill:#dfdfdf;stroke-width:0.00637721;fill-opacity:1"
       d="m 32.095444,47.759387 c -0.187311,-0.41083 -0.598737,-1.306773 -0.601568,-1.310008 -0.0021,-0.0023 -0.0497,-0.0075 -0.105818,-0.01138 -3.416652,-0.236137 -6.376386,-1.577965 -8.370037,-3.794649 -0.737556,-0.820066 -1.340013,-1.762488 -1.785593,-2.79319 -0.478328,-1.106457 -0.766562,-2.316144 -0.850912,-3.571203 -0.01805,-0.268629 -0.02412,-0.461949 -0.02504,-0.797143 -9.82e-4,-0.342245 0.0016,-0.40122 0.02814,-0.6696 0.09632,-0.972817 0.412482,-1.917881 0.939246,-2.807538 l 0.07079,-0.119571 h 0.550858 0.550864 l -0.01432,0.02391 c -0.305453,0.510279 -0.513185,0.999964 -0.662588,1.56189 -0.214297,0.80601 -0.288295,1.756859 -0.213562,2.74428 0.136271,1.800534 0.785006,3.522092 1.873212,4.970985 1.065332,1.418435 2.507548,2.537721 4.200611,3.260037 0.561412,0.239516 1.192546,0.445967 1.797944,0.588121 0.423498,0.09945 0.80951,0.168288 1.23439,0.220153 0.246517,0.03009 0.245521,0.02998 0.245521,0.02576 0,-0.01155 -3.607579,-7.875591 -3.654545,-7.96641 -0.03124,-0.06041 -0.09018,-0.170887 -0.131003,-0.24552 -0.735309,-1.344595 -1.422501,-2.204458 -2.033599,-2.544585 -0.128213,-0.07137 -0.285518,-0.127731 -0.405292,-0.145241 -0.07913,-0.01157 -0.224399,-0.0052 -0.289815,0.01263 -0.08665,0.02366 -0.186288,0.07544 -0.237346,0.123369 -0.02336,0.02192 -0.02092,0.02504 -0.03945,-0.0498 -0.02613,-0.105498 -0.03536,-0.191664 -0.03519,-0.328423 2.76e-4,-0.226459 0.03605,-0.388873 0.127596,-0.579486 0.162165,-0.337682 0.44085,-0.567012 0.777462,-0.639781 0.075,-0.01621 0.253116,-0.02253 0.337144,-0.01195 0.03345,0.0042 0.09286,0.01606 0.132032,0.02634 0.09474,0.02486 0.178903,0.06071 0.272373,0.116048 l 0.02094,0.0124 -0.0165,-0.03731 c -0.07677,-0.173724 -0.242263,-0.354609 -0.421124,-0.460305 -0.08342,-0.0493 -0.202362,-0.084 -0.287939,-0.084 h -0.0433 l -1.249619,-2.78203 c -0.687295,-1.530121 -1.280751,-2.848038 -1.318798,-2.928708 -0.14657,-0.310771 -0.340881,-0.681252 -0.511747,-0.975706 -0.698642,-1.203963 -1.504026,-2.09341 -2.35315,-2.598753 -0.37661,-0.224134 -0.787466,-0.373822 -1.062102,-0.386957 -0.04542,-0.0022 -0.0826,-0.0064 -0.0826,-0.0093 0,-0.0029 0.09514,-0.111591 0.211422,-0.241348 l 0.211424,-0.235919 h 5.323945 c 2.928166,0 5.323941,0.0015 5.323941,0.0032 0,0.0018 -0.09348,0.139528 -0.207726,0.306103 l -0.207736,0.30289 h -0.06809 c -0.141617,2.46e-4 -0.371689,0.0236 -0.531154,0.0544 -0.426017,0.08221 -0.793895,0.241764 -1.096146,0.475389 -0.08003,0.06184 -0.230988,0.209973 -0.295223,0.289659 -0.190242,0.235997 -0.304834,0.497686 -0.353249,0.806707 -0.01647,0.105124 -0.01644,0.407003 1.56e-4,0.529303 0.03925,0.291068 0.129162,0.605682 0.262447,0.91831 0.0187,0.04384 1.076306,2.388401 2.350257,5.210127 1.273875,2.82173 2.321295,5.142134 2.327526,5.156453 l 0.01132,0.02603 -0.04874,0.03228 c -0.112399,0.07445 -0.28809,0.243691 -0.413269,0.398131 -0.642081,0.792176 -0.904973,1.930945 -0.754271,3.267279 0.09748,0.864443 0.373052,1.839246 0.807645,2.856965 0.05031,0.117827 0.898271,2.001618 0.917143,2.037492 l 0.0085,0.01595 0.0062,-0.01595 c 0.0036,-0.0087 1.570911,-3.687738 3.483254,-8.175497 1.912344,-4.487757 3.47836,-8.165883 3.48004,-8.173613 0.0091,-0.04184 -0.340029,-0.6333 -0.567635,-0.961649 -0.295732,-0.426627 -0.563041,-0.747189 -0.925742,-1.110166 -0.203152,-0.203308 -0.314054,-0.305954 -0.485051,-0.448951 -1.080837,-0.903859 -2.36766,-1.440192 -3.756137,-1.565509 -0.393384,-0.0355 -0.847792,-0.03784 -1.251928,-0.0064 -0.714199,0.05551 -1.443179,0.217126 -2.128455,0.471854 l -0.09414,0.035 h -0.285883 c -0.157236,0 -0.285884,-0.0016 -0.285884,-0.0036 0,-0.0019 1.192737,-1.456172 2.650528,-3.23162 l 2.650513,-3.228054 -1.507426,-0.002 c -1.659236,-0.0021 -1.747315,-7.15e-4 -2.167457,0.03424 -1.622807,0.135093 -3.176733,0.66858 -4.467918,1.533909 -0.366007,0.245291 -0.753982,0.555144 -0.948473,0.757486 l -0.04364,0.0454 h -0.295901 c -0.222522,0 -0.295938,-0.0019 -0.295938,-0.0075 0,-0.0041 0.554321,-1.074526 1.231823,-2.378674 l 1.231826,-2.371176 h 0.204628 0.204626 l 5.21e-4,0.07492 c 0.0018,0.278405 0.185105,0.609057 0.446805,0.805752 0.279169,0.209827 0.702629,0.343322 1.280932,0.403806 0.327721,0.03427 -0.117811,0.03171 5.862191,0.03379 3.024282,0.0013 5.498695,0.0035 5.498695,0.0056 0,0.0019 -1.23821,1.418638 -2.751578,3.14827 -1.513358,1.729631 -2.750925,3.145421 -2.750135,3.146195 7.96e-4,7.96e-4 0.06026,0.0089 0.132165,0.01808 1.392305,0.177569 2.719051,0.647262 3.934698,1.392958 0.152941,0.09381 0.447895,0.289037 0.581147,0.38464 l 0.0933,0.06693 0.004,-0.03245 c 0.0064,-0.05299 0.0044,-0.34095 -0.0026,-0.429101 -0.04638,-0.562639 -0.252752,-1.047269 -0.628166,-1.475067 -0.368357,-0.419751 -0.905405,-0.745937 -1.458431,-0.885805 l -0.09402,-0.02377 0.234322,-0.259448 0.234324,-0.25944 3.519273,-5e-6 c 3.327174,-2e-6 3.519038,6.45e-4 3.515059,0.01103 -0.0079,0.0205 -0.349535,0.566104 -0.359529,0.574122 -0.0056,0.0044 -0.01827,0.008 -0.02844,0.008 -0.05622,0 -0.25596,0.05249 -0.393575,0.103425 -0.788974,0.292017 -1.580074,1.003754 -2.213098,1.991075 -0.212064,0.330754 -0.436953,0.742868 -0.607484,1.113214 -0.08692,0.188762 -8.620121,19.079623 -8.637374,19.121469 -0.0174,0.04221 -0.516772,1.147302 -0.559235,1.237566 -0.01484,0.03156 -0.155585,0.342215 -0.312748,0.690331 -0.157161,0.348108 -0.28752,0.63291 -0.289687,0.632896 -0.0021,0 -0.01276,-0.01939 -0.02354,-0.04303 z m 1.427578,-1.345548 c 0.0036,-0.01182 0.60872,-1.347617 0.612126,-1.351021 0.0013,-9.82e-4 0.04916,-0.01676 0.106811,-0.03484 0.880306,-0.275892 1.722821,-0.74123 2.480586,-1.370077 0.200508,-0.166393 0.337554,-0.292611 0.567941,-0.523067 0.232637,-0.232701 0.361819,-0.373359 0.548043,-0.596704 1.433222,-1.718958 2.341592,-4.082083 2.582486,-6.718326 0.04433,-0.485223 0.06394,-0.931468 0.06399,-1.457176 5.21e-4,-0.770177 -0.04875,-1.435126 -0.159512,-2.171419 -0.02376,-0.157976 -0.08595,-0.518869 -0.10079,-0.584927 -0.0058,-0.02556 0.01194,-0.06544 0.923514,-2.083487 0.511156,-1.131581 0.930911,-2.058964 0.932797,-2.060845 0.0043,-0.0043 0.130871,0.151013 0.261515,0.320743 0.579944,0.753476 1.07262,1.608362 1.436235,2.492147 0.63513,1.543718 0.908396,3.197758 0.812849,4.920005 -0.150951,2.720745 -1.184217,5.239765 -2.974178,7.250816 -0.30452,0.342132 -0.687999,0.721891 -1.039906,1.029832 -0.967322,0.846447 -2.076927,1.535979 -3.281044,2.038894 -1.122971,0.469028 -2.31647,0.768599 -3.563199,0.894374 -0.196916,0.01987 -0.214754,0.0203 -0.210266,0.0049 z"
       id="path1-3" />
    <rect
       x="37.737823"
       y="37.757782"
       width="22.610399"
       height="22.610399"
       rx="4.7267799"
       ry="4.6148596"
       fill="url(#linearGradient862)"
       stroke-width="3.0541"
       id="rect35-7-3-1"
       style="fill:#414141;fill-opacity:1;stroke:#dfdfdf;stroke-width:0.978336;stroke-dasharray:none;stroke-opacity:1" />
    <path
       id="path1"
       style="fill:#dfdfdf;fill-opacity:1;stroke:none;stroke-width:0.224244;stroke-dasharray:none;stroke-dashoffset:2.2;stroke-opacity:0.6"
       d="m 53.054544,43.299438 c -0.231167,-9.7e-5 -0.478613,0.09299 -0.788298,0.274436 -0.736938,0.431788 -1.700715,0.635422 -3.024237,0.635422 -1.323397,0 -2.319324,-0.207971 -3.051873,-0.637265 -0.587409,-0.344229 -0.938101,-0.348791 -1.431082,-0.01642 -1.265645,0.852917 -2.219508,3.587517 -2.499329,7.160943 -0.167795,2.14283 -0.01103,3.27254 0.543328,3.908309 0.267381,0.306528 0.923785,0.254559 1.515809,-0.12156 0.501846,-0.318836 1.099794,-1.022374 1.814177,-2.134665 0.645548,-1.005122 1.426374,-1.336165 3.153173,-1.338993 1.723362,-0.0026 2.400625,0.323379 3.195531,1.545274 1.333668,2.050042 2.566393,2.763747 3.289465,1.90442 0.40058,-0.476052 0.473899,-0.936006 0.454923,-2.851106 -0.03457,-3.478896 -0.94394,-6.643709 -2.254366,-7.851617 -0.349004,-0.321703 -0.619985,-0.476908 -0.917221,-0.477033 z m -7.486939,2.049926 h 0.799346 0.79934 v 0.685152 0.685155 h 0.685156 0.685148 v 0.856441 0.856435 h -0.685148 -0.685156 v 0.742248 0.742251 h -0.723826 c -0.397652,0 -0.755645,-0.03568 -0.797503,-0.07735 -0.04185,-0.04185 -0.07732,-0.374141 -0.07732,-0.740403 v -0.666745 h -0.685161 -0.685156 v -0.856437 -0.856439 h 0.685156 0.685149 v -0.685157 z m 6.516311,0 c 0.721112,0 1.029934,0.798977 0.510182,1.318734 -0.330544,0.330508 -0.632217,0.356486 -0.957741,0.08106 -0.56463,-0.477772 -0.269928,-1.399771 0.447559,-1.399771 z m -1.386879,1.464237 c 0.180072,1.21e-4 0.361362,0.07187 0.50465,0.230203 0.223372,0.246825 0.247504,0.811915 0.04607,1.075615 -0.394228,0.516094 -1.340833,0.18413 -1.340833,-0.469659 0,-0.496196 0.39399,-0.836453 0.790134,-0.836178 z m 2.830855,0.02772 c 0.207551,0.0039 0.409039,0.07252 0.526752,0.202589 0.223372,0.246826 0.247471,0.811914 0.04604,1.075617 -0.419316,0.548931 -1.340835,0.181519 -1.340835,-0.534125 0,-0.216927 0.08692,-0.452038 0.2081,-0.56175 0.138541,-0.125395 0.35239,-0.186127 0.559914,-0.182325 z m -1.394247,1.477124 c 0.639304,0 0.95037,0.678118 0.563588,1.230325 -0.132224,0.188768 -0.293477,0.254171 -0.626215,0.254171 -0.383084,0 -0.471983,-0.04986 -0.626209,-0.348115 -0.30411,-0.588069 0.02772,-1.136394 0.688836,-1.136394 z" />
  </g>
</svg>
