<?xml version="1.0" encoding="UTF-8" standalone="no"?>
<svg
   width="64"
   height="64"
   version="1.1"
   id="svg73"
   sodipodi:docname="steam_icon_368260.svg"
   inkscape:version="1.4.2 (ebf0e940d0, 2025-05-08)"
   xmlns:inkscape="http://www.inkscape.org/namespaces/inkscape"
   xmlns:sodipodi="http://sodipodi.sourceforge.net/DTD/sodipodi-0.dtd"
   xmlns="http://www.w3.org/2000/svg"
   xmlns:svg="http://www.w3.org/2000/svg"
   xmlns:rdf="http://www.w3.org/1999/02/22-rdf-syntax-ns#"
   xmlns:cc="http://creativecommons.org/ns#"
   xmlns:dc="http://purl.org/dc/elements/1.1/">
  <metadata
     id="metadata77">
    <rdf:RDF>
      <cc:Work
         rdf:about="">
        <dc:format>image/svg+xml</dc:format>
        <dc:type
           rdf:resource="http://purl.org/dc/dcmitype/StillImage" />
      </cc:Work>
    </rdf:RDF>
  </metadata>
  <sodipodi:namedview
     pagecolor="#f5f7fa"
     bordercolor="#666666"
     borderopacity="1"
     objecttolerance="10"
     gridtolerance="10"
     guidetolerance="10"
     inkscape:pageopacity="0"
     inkscape:pageshadow="2"
     inkscape:window-width="1377"
     inkscape:window-height="886"
     id="namedview75"
     showgrid="false"
     inkscape:zoom="6.2890624"
     inkscape:cx="47.622361"
     inkscape:cy="45.396274"
     inkscape:window-x="147"
     inkscape:window-y="75"
     inkscape:window-maximized="0"
     inkscape:current-layer="g877"
     inkscape:document-rotation="0"
     inkscape:pagecheckerboard="0"
     inkscape:showpageshadow="2"
     inkscape:deskcolor="#d1d1d1" />
  <defs
     id="defs29" />
  <circle
     cx="32.516094"
     cy="31.877844"
     r="0"
     fill="url(#b)"
     stroke-width="1.5715"
     id="circle41"
     style="fill:url(#b)" />
  <g
     aria-label="GZ"
     transform="matrix(1.2212657,0,0,0.81882264,0.4960938,-0.1661539)"
     id="text93"
     style="font-weight:bold;font-size:11.5263px;line-height:1.25;font-family:sans-serif;-inkscape-font-specification:'sans-serif Bold';fill:#f2f2f2;stroke-width:0.288159" />
  <g
     id="g877"
     transform="matrix(1.1,0,0,1.1,-3.1845928,-3.2065454)">
    <rect
       x="8.3496294"
       y="8.369586"
       width="47.272728"
       height="47.272728"
       rx="9.8825235"
       ry="9.6485243"
       fill="url(#linearGradient862)"
       stroke-width="3.0541"
       id="rect35-7-3"
       style="fill:#414141;fill-opacity:1;stroke:#dfdfdf;stroke-width:2.04545;stroke-dasharray:none;stroke-opacity:1" />
    <path
       style="fill:#dfdfdf;fill-opacity:1;stroke:none;stroke-width:0.459507;stroke-dasharray:none;stroke-opacity:0.6"
       d="m 31.915522,47.431673 c -4.36e-4,-0.0758 -0.275256,-0.981075 -0.610719,-2.011769 -0.542555,-1.666952 -0.620817,-2.026178 -0.708462,-3.251886 -0.05419,-0.757854 -0.130774,-1.461749 -0.170176,-1.564205 -0.279608,-0.727106 -2.240423,-0.841693 -2.775498,-0.162202 -0.622779,0.790866 -1.211563,0.74495 -1.074369,-0.08378 0.103351,-0.624269 0.229089,-0.83061 0.985785,-1.617653 0.699457,-0.7275 1.442969,-1.147325 2.425138,-1.369354 l 0.551168,-0.124598 0.0551,-2.692528 c 0.0303,-1.480882 0.04122,-4.064498 0.02418,-5.741364 l -0.03088,-3.048822 -0.354938,0.05592 c -0.195203,0.03079 -0.42933,0.09515 -0.520275,0.143154 -0.09094,0.04803 -0.63206,0.243211 -1.202486,0.433768 -2.366527,0.790587 -4.73667,2.473543 -5.084921,3.610618 -0.181387,0.592239 -0.274892,4.926108 -0.118724,5.502834 0.171512,0.633411 0.553706,1.158095 1.043888,1.433053 0.230184,0.129151 0.42713,0.277817 0.437677,0.330508 0.03415,0.170442 -0.821919,0.250647 -2.791787,0.261493 -1.788488,0.0105 -3.281039,-0.05861 -3.610118,-0.165397 -0.229355,-0.07448 -0.152414,-0.20437 0.27855,-0.470139 0.225733,-0.139184 0.534424,-0.436842 0.685995,-0.661397 l 0.275578,-0.408282 0.03101,-4.603287 0.03101,-4.603288 0.354789,0.191775 c 0.769925,0.4161 2.398553,0.157887 3.165817,-0.501956 0.516065,-0.4438 2.03693,-1.376328 2.932008,-1.79776 1.022378,-0.481373 2.963953,-1.151345 3.654449,-1.261023 0.257678,-0.04095 0.468492,-0.134518 0.468492,-0.207981 0,-0.07347 0.122648,-0.189454 0.272544,-0.257753 0.149893,-0.0683 0.293967,-0.237471 0.320156,-0.375951 0.08732,-0.461709 0.724487,-4.208518 0.858266,-5.046936 0.07255,-0.454712 0.16622,-0.86749 0.208159,-0.917281 0.163317,-0.193939 1.203851,4.575248 1.206093,5.528012 6.36e-4,0.259775 0.09731,0.46319 0.331568,0.697438 0.181879,0.18188 0.330699,0.364539 0.330699,0.405899 0,0.04138 0.409241,0.166436 0.909427,0.277949 1.09849,0.244905 2.594181,0.808126 3.654902,1.376309 1.118459,0.599107 2.28043,1.32409 2.60086,1.62274 0.436073,0.406443 1.080547,0.619879 1.92434,0.637323 0.534958,0.01103 0.887795,-0.04115 1.134641,-0.167919 l 0.358278,-0.18396 0.0025,4.428455 c 0.0032,5.046804 -0.0075,4.98148 0.921322,5.758046 0.352623,0.294745 0.472735,0.459707 0.392908,0.539568 -0.16731,0.167283 -6.042171,0.156176 -6.326924,-0.01189 -0.200396,-0.118364 -0.189117,-0.138112 0.165367,-0.288924 0.447665,-0.190479 0.765459,-0.520088 1.085378,-1.125664 0.213502,-0.404125 0.232119,-0.61526 0.232119,-2.636574 0,-2.816244 -0.101052,-3.426576 -0.675523,-4.079184 -0.620257,-0.704429 -1.566748,-1.383856 -2.836731,-2.036202 -1.33883,-0.687709 -3.656938,-1.516149 -3.811087,-1.362002 -0.03224,0.03221 -0.05859,2.604309 -0.05844,5.715638 l 2.44e-4,5.656967 0.466296,0.117725 c 1.656551,0.418376 3.041821,1.4745 3.456818,2.635442 0.206689,0.578179 0.183346,0.866838 -0.08153,1.008603 -0.201006,0.107538 -0.28733,0.07133 -0.633859,-0.266334 -0.489046,-0.476585 -1.072203,-0.732357 -1.669638,-0.732357 -0.449539,0 -1.177647,0.296765 -1.399992,0.570667 -0.0651,0.08027 -0.143284,0.815518 -0.173701,1.633997 -0.05341,1.437665 -0.07627,1.552891 -0.673409,3.396351 -0.339968,1.049495 -0.618124,1.929988 -0.618124,1.956634 0,0.0261 -0.04959,0.04851 -0.110228,0.04851 -0.06063,0 -0.110588,-0.06197 -0.111028,-0.137821 z"
       id="path1-3" />
    <rect
       x="37.737823"
       y="37.757782"
       width="22.610399"
       height="22.610399"
       rx="4.7267799"
       ry="4.6148596"
       fill="url(#linearGradient862)"
       stroke-width="3.0541"
       id="rect35-7-3-1"
       style="fill:#414141;fill-opacity:1;stroke:#dfdfdf;stroke-width:0.978336;stroke-dasharray:none;stroke-opacity:1" />
    <path
       id="path1"
       style="fill:#dfdfdf;fill-opacity:1;stroke:none;stroke-width:0.224244;stroke-dasharray:none;stroke-dashoffset:2.2;stroke-opacity:0.6"
       d="m 53.054544,43.299438 c -0.231167,-9.7e-5 -0.478613,0.09299 -0.788298,0.274436 -0.736938,0.431788 -1.700715,0.635422 -3.024237,0.635422 -1.323397,0 -2.319324,-0.207971 -3.051873,-0.637265 -0.587409,-0.344229 -0.938101,-0.348791 -1.431082,-0.01642 -1.265645,0.852917 -2.219508,3.587517 -2.499329,7.160943 -0.167795,2.14283 -0.01103,3.27254 0.543328,3.908309 0.267381,0.306528 0.923785,0.254559 1.515809,-0.12156 0.501846,-0.318836 1.099794,-1.022374 1.814177,-2.134665 0.645548,-1.005122 1.426374,-1.336165 3.153173,-1.338993 1.723362,-0.0026 2.400625,0.323379 3.195531,1.545274 1.333668,2.050042 2.566393,2.763747 3.289465,1.90442 0.40058,-0.476052 0.473899,-0.936006 0.454923,-2.851106 -0.03457,-3.478896 -0.94394,-6.643709 -2.254366,-7.851617 -0.349004,-0.321703 -0.619985,-0.476908 -0.917221,-0.477033 z m -7.486939,2.049926 h 0.799346 0.79934 v 0.685152 0.685155 h 0.685156 0.685148 v 0.856441 0.856435 h -0.685148 -0.685156 v 0.742248 0.742251 h -0.723826 c -0.397652,0 -0.755645,-0.03568 -0.797503,-0.07735 -0.04185,-0.04185 -0.07732,-0.374141 -0.07732,-0.740403 v -0.666745 h -0.685161 -0.685156 v -0.856437 -0.856439 h 0.685156 0.685149 v -0.685157 z m 6.516311,0 c 0.721112,0 1.029934,0.798977 0.510182,1.318734 -0.330544,0.330508 -0.632217,0.356486 -0.957741,0.08106 -0.56463,-0.477772 -0.269928,-1.399771 0.447559,-1.399771 z m -1.386879,1.464237 c 0.180072,1.21e-4 0.361362,0.07187 0.50465,0.230203 0.223372,0.246825 0.247504,0.811915 0.04607,1.075615 -0.394228,0.516094 -1.340833,0.18413 -1.340833,-0.469659 0,-0.496196 0.39399,-0.836453 0.790134,-0.836178 z m 2.830855,0.02772 c 0.207551,0.0039 0.409039,0.07252 0.526752,0.202589 0.223372,0.246826 0.247471,0.811914 0.04604,1.075617 -0.419316,0.548931 -1.340835,0.181519 -1.340835,-0.534125 0,-0.216927 0.08692,-0.452038 0.2081,-0.56175 0.138541,-0.125395 0.35239,-0.186127 0.559914,-0.182325 z m -1.394247,1.477124 c 0.639304,0 0.95037,0.678118 0.563588,1.230325 -0.132224,0.188768 -0.293477,0.254171 -0.626215,0.254171 -0.383084,0 -0.471983,-0.04986 -0.626209,-0.348115 -0.30411,-0.588069 0.02772,-1.136394 0.688836,-1.136394 z" />
  </g>
</svg>
