<?xml version="1.0" encoding="UTF-8" standalone="no"?>
<svg
   width="64"
   height="64"
   version="1.1"
   id="svg73"
   sodipodi:docname="system-software-installer.svg"
   inkscape:version="1.4.2 (ebf0e940d0, 2025-05-08)"
   xmlns:inkscape="http://www.inkscape.org/namespaces/inkscape"
   xmlns:sodipodi="http://sodipodi.sourceforge.net/DTD/sodipodi-0.dtd"
   xmlns="http://www.w3.org/2000/svg"
   xmlns:svg="http://www.w3.org/2000/svg"
   xmlns:rdf="http://www.w3.org/1999/02/22-rdf-syntax-ns#"
   xmlns:cc="http://creativecommons.org/ns#"
   xmlns:dc="http://purl.org/dc/elements/1.1/">
  <metadata
     id="metadata77">
    <rdf:RDF>
      <cc:Work
         rdf:about="">
        <dc:format>image/svg+xml</dc:format>
        <dc:type
           rdf:resource="http://purl.org/dc/dcmitype/StillImage" />
      </cc:Work>
    </rdf:RDF>
  </metadata>
  <sodipodi:namedview
     pagecolor="#f5f7fa"
     bordercolor="#666666"
     borderopacity="1"
     objecttolerance="10"
     gridtolerance="10"
     guidetolerance="10"
     inkscape:pageopacity="0"
     inkscape:pageshadow="2"
     inkscape:window-width="1377"
     inkscape:window-height="886"
     id="namedview75"
     showgrid="false"
     inkscape:zoom="6.2890624"
     inkscape:cx="47.622361"
     inkscape:cy="45.396274"
     inkscape:window-x="147"
     inkscape:window-y="75"
     inkscape:window-maximized="0"
     inkscape:current-layer="g877"
     inkscape:document-rotation="0"
     inkscape:pagecheckerboard="0"
     inkscape:showpageshadow="2"
     inkscape:deskcolor="#d1d1d1" />
  <defs
     id="defs29">
    <linearGradient
       id="b"
       x1="399.57"
       x2="399.57"
       y1="545.8"
       y2="517.8"
       gradientTransform="matrix(2.1429,0,0,2.1429,-825.86391,-1107.6662)"
       gradientUnits="userSpaceOnUse">
      <stop
         stop-color="#3889e9"
         offset="0"
         id="stop2" />
      <stop
         stop-color="#5ea5fb"
         offset="1"
         id="stop4" />
    </linearGradient>
  </defs>
  <circle
     cx="32.516094"
     cy="31.877844"
     r="0"
     fill="url(#b)"
     stroke-width="1.5715"
     id="circle41"
     style="fill:url(#b)" />
  <g
     aria-label="GZ"
     transform="matrix(1.2212657,0,0,0.81882264,0.4960938,-0.1661539)"
     id="text93"
     style="font-weight:bold;font-size:11.5263px;line-height:1.25;font-family:sans-serif;-inkscape-font-specification:'sans-serif Bold';fill:#f2f2f2;stroke-width:0.288159" />
  <g
     id="g877"
     transform="matrix(1.1,0,0,1.1,-3.1845928,-3.2065454)">
    <rect
       x="8.3496294"
       y="8.369586"
       width="47.272728"
       height="47.272728"
       rx="9.8825235"
       ry="9.6485243"
       fill="url(#linearGradient862)"
       stroke-width="3.0541"
       id="rect35-7-3"
       style="fill:#414141;fill-opacity:1;stroke:#dfdfdf;stroke-width:2.04545;stroke-dasharray:none;stroke-opacity:1" />
    <path
       style="fill:#dfdfdf;fill-opacity:1;stroke:none;stroke-width:0.482482;stroke-dasharray:none;stroke-opacity:0.6"
       d="m 26.997783,45.362443 c -0.08454,-0.110402 -1.371068,-3.825848 -2.858936,-8.256535 -1.588857,-4.731422 -2.889277,-8.349743 -3.151238,-8.768096 -0.51683,-0.825366 -1.31305,-1.317549 -2.378133,-1.470051 -0.774251,-0.110866 -1.126054,-0.466237 -0.717588,-0.724875 0.120081,-0.07603 0.736184,-0.139323 1.369126,-0.140637 0.853969,-0.0017 1.13225,-0.05284 1.078873,-0.197927 -0.03956,-0.107527 -0.442343,-1.310954 -0.895065,-2.674258 -0.916894,-2.761067 -1.342008,-3.428201 -2.359045,-3.702059 -0.703197,-0.189353 -0.87669,-0.390149 -0.612324,-0.70869 0.15625,-0.18827 0.857307,-0.227368 4.041367,-0.225387 2.126635,0.0016 3.956353,0.06818 4.084554,0.149234 0.127719,0.08077 1.077995,2.684113 2.111713,5.785236 1.033717,3.101121 1.949877,5.649933 2.035911,5.664022 0.08604,0.01415 0.629914,-0.776539 1.208617,-1.756951 0.578716,-0.980417 1.158748,-1.907006 1.288964,-2.059092 0.206737,-0.24145 0.529591,-0.276213 2.545541,-0.274125 1.269825,0.0011 2.407017,0.06461 2.5271,0.140632 0.343182,0.217299 0.08803,0.598822 -0.481494,0.719955 -0.687996,0.146326 -1.066956,0.502196 -1.064068,0.999233 0.0027,0.47395 1.523746,2.625053 1.710293,2.418816 0.248038,-0.274235 3.292896,-9.404445 3.292896,-9.874005 0,-0.536298 -0.344271,-0.976812 -0.763398,-0.976812 -0.149491,0 -0.405752,-0.09797 -0.56951,-0.217709 -0.252978,-0.184975 -0.266347,-0.255529 -0.08898,-0.46927 0.182495,-0.219896 0.746331,-0.251569 4.478475,-0.251569 2.348335,0 4.381038,0.04275 4.517126,0.09495 0.478956,0.183794 0.282969,0.665496 -0.339151,0.833683 -0.758419,0.205032 -1.237296,0.548285 -1.515531,1.086311 -0.180119,0.348335 -4.710266,13.30962 -6.690131,19.141311 -0.338414,0.996788 -0.535266,1.366484 -0.724449,1.360523 -0.14322,-0.0048 -1.207041,-1.1958 -2.371455,-2.655623 -1.161451,-1.456098 -2.180231,-2.626224 -2.263958,-2.600276 -0.08374,0.02609 -0.556649,0.710658 -1.050927,1.521574 -1.209084,1.983616 -1.216,2.627599 -0.03259,3.034432 0.412588,0.141883 0.610057,0.303067 0.610057,0.49801 0,0.254319 -0.174778,0.297523 -1.486022,0.366487 l -1.48601,0.07826 -1.277881,2.107505 c -0.702833,1.159115 -1.343382,2.129333 -1.423435,2.15602 -0.08006,0.02648 -0.214741,-0.0418 -0.299286,-0.15217 z"
       id="path1151" />
    <rect
       x="37.737823"
       y="37.757782"
       width="22.610399"
       height="22.610399"
       rx="4.7267799"
       ry="4.6148596"
       fill="url(#linearGradient862)"
       stroke-width="3.0541"
       id="rect35-7-3-1"
       style="fill:#414141;fill-opacity:1;stroke:#dfdfdf;stroke-width:0.978336;stroke-dasharray:none;stroke-opacity:1" />
    <path
       id="path1"
       style="fill:#dfdfdf;fill-opacity:1;stroke:none;stroke-width:0.224244;stroke-dasharray:none;stroke-dashoffset:2.2;stroke-opacity:0.6"
       d="m 53.054544,43.299438 c -0.231167,-9.7e-5 -0.478613,0.09299 -0.788298,0.274436 -0.736938,0.431788 -1.700715,0.635422 -3.024237,0.635422 -1.323397,0 -2.319324,-0.207971 -3.051873,-0.637265 -0.587409,-0.344229 -0.938101,-0.348791 -1.431082,-0.01642 -1.265645,0.852917 -2.219508,3.587517 -2.499329,7.160943 -0.167795,2.14283 -0.01103,3.27254 0.543328,3.908309 0.267381,0.306528 0.923785,0.254559 1.515809,-0.12156 0.501846,-0.318836 1.099794,-1.022374 1.814177,-2.134665 0.645548,-1.005122 1.426374,-1.336165 3.153173,-1.338993 1.723362,-0.0026 2.400625,0.323379 3.195531,1.545274 1.333668,2.050042 2.566393,2.763747 3.289465,1.90442 0.40058,-0.476052 0.473899,-0.936006 0.454923,-2.851106 -0.03457,-3.478896 -0.94394,-6.643709 -2.254366,-7.851617 -0.349004,-0.321703 -0.619985,-0.476908 -0.917221,-0.477033 z m -7.486939,2.049926 h 0.799346 0.79934 v 0.685152 0.685155 h 0.685156 0.685148 v 0.856441 0.856435 h -0.685148 -0.685156 v 0.742248 0.742251 h -0.723826 c -0.397652,0 -0.755645,-0.03568 -0.797503,-0.07735 -0.04185,-0.04185 -0.07732,-0.374141 -0.07732,-0.740403 v -0.666745 h -0.685161 -0.685156 v -0.856437 -0.856439 h 0.685156 0.685149 v -0.685157 z m 6.516311,0 c 0.721112,0 1.029934,0.798977 0.510182,1.318734 -0.330544,0.330508 -0.632217,0.356486 -0.957741,0.08106 -0.56463,-0.477772 -0.269928,-1.399771 0.447559,-1.399771 z m -1.386879,1.464237 c 0.180072,1.21e-4 0.361362,0.07187 0.50465,0.230203 0.223372,0.246825 0.247504,0.811915 0.04607,1.075615 -0.394228,0.516094 -1.340833,0.18413 -1.340833,-0.469659 0,-0.496196 0.39399,-0.836453 0.790134,-0.836178 z m 2.830855,0.02772 c 0.207551,0.0039 0.409039,0.07252 0.526752,0.202589 0.223372,0.246826 0.247471,0.811914 0.04604,1.075617 -0.419316,0.548931 -1.340835,0.181519 -1.340835,-0.534125 0,-0.216927 0.08692,-0.452038 0.2081,-0.56175 0.138541,-0.125395 0.35239,-0.186127 0.559914,-0.182325 z m -1.394247,1.477124 c 0.639304,0 0.95037,0.678118 0.563588,1.230325 -0.132224,0.188768 -0.293477,0.254171 -0.626215,0.254171 -0.383084,0 -0.471983,-0.04986 -0.626209,-0.348115 -0.30411,-0.588069 0.02772,-1.136394 0.688836,-1.136394 z" />
  </g>
</svg>
