<?xml version="1.0" encoding="UTF-8" standalone="no"?>
<svg
   width="64"
   height="64"
   version="1.1"
   id="svg73"
   sodipodi:docname="steam_icon_368260.svg"
   inkscape:version="1.4.2 (ebf0e940d0, 2025-05-08)"
   xmlns:inkscape="http://www.inkscape.org/namespaces/inkscape"
   xmlns:sodipodi="http://sodipodi.sourceforge.net/DTD/sodipodi-0.dtd"
   xmlns="http://www.w3.org/2000/svg"
   xmlns:svg="http://www.w3.org/2000/svg"
   xmlns:rdf="http://www.w3.org/1999/02/22-rdf-syntax-ns#"
   xmlns:cc="http://creativecommons.org/ns#"
   xmlns:dc="http://purl.org/dc/elements/1.1/">
  <metadata
     id="metadata77">
    <rdf:RDF>
      <cc:Work
         rdf:about="">
        <dc:format>image/svg+xml</dc:format>
        <dc:type
           rdf:resource="http://purl.org/dc/dcmitype/StillImage" />
      </cc:Work>
    </rdf:RDF>
  </metadata>
  <sodipodi:namedview
     pagecolor="#f5f7fa"
     bordercolor="#666666"
     borderopacity="1"
     objecttolerance="10"
     gridtolerance="10"
     guidetolerance="10"
     inkscape:pageopacity="0"
     inkscape:pageshadow="2"
     inkscape:window-width="1377"
     inkscape:window-height="886"
     id="namedview75"
     showgrid="false"
     inkscape:zoom="6.2890624"
     inkscape:cx="47.622361"
     inkscape:cy="45.396274"
     inkscape:window-x="147"
     inkscape:window-y="75"
     inkscape:window-maximized="0"
     inkscape:current-layer="g877"
     inkscape:document-rotation="0"
     inkscape:pagecheckerboard="0"
     inkscape:showpageshadow="2"
     inkscape:deskcolor="#d1d1d1" />
  <defs
     id="defs29" />
  <circle
     cx="32.516094"
     cy="31.877844"
     r="0"
     fill="url(#b)"
     stroke-width="1.5715"
     id="circle41"
     style="fill:url(#b)" />
  <g
     aria-label="GZ"
     transform="matrix(1.2212657,0,0,0.81882264,0.4960938,-0.1661539)"
     id="text93"
     style="font-weight:bold;font-size:11.5263px;line-height:1.25;font-family:sans-serif;-inkscape-font-specification:'sans-serif Bold';fill:#f2f2f2;stroke-width:0.288159" />
  <g
     id="g877"
     transform="matrix(1.1,0,0,1.1,-3.1845928,-3.2065454)">
    <rect
       x="8.3496294"
       y="8.369586"
       width="47.272728"
       height="47.272728"
       rx="9.8825235"
       ry="9.6485243"
       fill="url(#linearGradient862)"
       stroke-width="3.0541"
       id="rect35-7-3"
       style="fill:#414141;fill-opacity:1;stroke:#dfdfdf;stroke-width:2.04545;stroke-dasharray:none;stroke-opacity:1" />
    <path
       style="fill:#dfdfdf;fill-opacity:1;stroke:none;stroke-width:0.486252;stroke-dasharray:none;stroke-opacity:0.6"
       d="m 29.44009,47.686815 c -0.549347,-0.122112 -0.579643,-0.369463 -0.06229,-0.50864 l 0.151284,-0.04063 V 46.622727 46.10795 h 2.456155 2.456154 v 0.514777 0.51478 l 0.151285,0.04066 c 0.427885,0.115128 0.495013,0.301351 0.161232,0.44721 -0.143743,0.06281 -0.295867,0.06685 -2.697471,0.07195 -1.399828,0.003 -2.57718,-0.002 -2.616336,-0.01069 z m 0.575774,-1.958289 c -0.02963,-0.02946 -0.03234,-1.186846 -0.003,-1.186846 0.01177,0 0.06774,0.03309 0.124613,0.07364 0.161742,0.115127 0.728091,0.369683 1.10006,0.494365 0.675195,0.226356 1.597119,0.41193 2.438358,0.490948 0.217513,0.02056 0.284766,0.03941 0.284766,0.08018 0,0.0467 -0.245645,0.05455 -1.96047,0.06263 -1.078258,0.0048 -1.971285,-0.0015 -1.984502,-0.01473 z m 3.464423,-0.705767 c -1.537406,-0.18876 -2.689442,-0.613057 -3.31937,-1.222525 l -0.169075,-0.163606 v -0.68657 c 0,-0.37762 0.0136,-0.686575 0.03047,-0.686575 0.01669,0 0.18223,0.07989 0.367695,0.17754 0.760771,0.400507 1.827886,0.693308 2.983488,0.818625 0.205575,0.0224 0.426108,0.04836 0.490083,0.05783 l 0.116311,0.01781 -0.0097,0.861015 c -0.0083,0.734264 -0.0174,0.861881 -0.06292,0.866892 -0.02933,0.0037 -0.221589,-0.01473 -0.427158,-0.04005 z M 33.37351,42.70452 c -1.103803,-0.147695 -1.989509,-0.407965 -2.61167,-0.767476 -0.28593,-0.16522 -0.71693,-0.502186 -0.7489,-0.585506 -0.03119,-0.08121 -0.02567,-1.409752 0.0056,-1.395868 0.01476,0.0067 0.211001,0.103278 0.436055,0.215006 0.47107,0.233875 1.085213,0.445824 1.672875,0.577258 0.355531,0.07954 0.62318,0.122124 1.637436,0.260663 l 0.195779,0.02669 0.0096,0.863222 0.0097,0.863212 -0.116312,-0.004 c -0.06398,-0.0021 -0.284528,-0.02577 -0.490099,-0.05366 z m -0.0712,-2.311355 C 31.939352,40.20562 30.9069,39.826916 30.245033,39.271737 l -0.235393,-0.197424 -0.0098,-0.719155 c -0.0054,-0.395541 -0.0036,-0.719164 0.0036,-0.719164 0.0074,0 0.163884,0.07895 0.347805,0.175391 0.816626,0.428355 1.709803,0.678739 2.978295,0.834927 l 0.630961,0.07765 0.0097,0.862052 0.0096,0.86206 -0.169707,-0.0043 c -0.09334,-0.0024 -0.321892,-0.02486 -0.507884,-0.05073 z M 33.515893,38.11184 C 32.59545,38.006851 31.654854,37.7655 31.05272,37.479761 30.6961,37.310532 30.283472,37.033056 30.121014,36.85324 l -0.12919,-0.142977 v -0.694038 c 0,-0.381715 0.0061,-0.694028 0.01338,-0.694028 0.0073,0 0.104706,0.05495 0.216199,0.122063 0.699921,0.421465 2.038195,0.795543 3.29533,0.921108 l 0.443991,0.04436 0.0096,0.850962 c 0.0056,0.468021 -0.0027,0.861499 -0.01781,0.874391 -0.01492,0.0135 -0.211567,0.0024 -0.436714,-0.02271 z m 0.05338,-2.294378 C 31.95107,35.616737 30.829697,35.214381 30.182471,34.602264 L 29.99183,34.421962 v -0.688967 c 0,-0.378932 0.01069,-0.688965 0.02424,-0.688965 0.01353,0 0.177513,0.07872 0.36487,0.174893 0.80358,0.412579 1.704799,0.668344 2.832385,0.803831 0.254513,0.0306 0.531116,0.06417 0.614671,0.07467 l 0.151918,0.01902 -0.0096,0.86094 c -0.01069,0.987801 0.03388,0.894009 -0.401078,0.840059 z M 33.355692,33.486225 C 31.895669,33.290338 30.800775,32.879161 30.160913,32.286464 L 29.99184,32.129838 v -0.699793 c 0,-0.384884 0.0045,-0.699789 0.01058,-0.699789 0.0056,0 0.193971,0.09299 0.418259,0.206619 0.792544,0.40157 1.787435,0.669701 3.00584,0.810093 0.273824,0.03156 0.510092,0.06491 0.525048,0.07416 0.01492,0.0093 0.02722,0.400299 0.02722,0.869017 v 0.852212 l -0.133468,-0.0043 c -0.07342,-0.0024 -0.29367,-0.02576 -0.489449,-0.05199 z m -0.0712,-2.31424 c -1.40065,-0.189781 -2.528705,-0.623012 -3.135102,-1.204046 l -0.157557,-0.150981 v -0.451057 -0.451059 h 1.993398 1.993402 v 1.156883 1.156888 l -0.16907,-0.0041 c -0.09299,-0.0024 -0.32927,-0.02588 -0.525053,-0.05243 z M 28.85613,28.394103 C 28.69198,28.207625 28.540634,27.916826 28.525044,27.757956 L 28.51446,27.65118 h 3.470652 3.470655 l -0.01058,0.106776 c -0.01564,0.158879 -0.16695,0.449669 -0.331084,0.636149 l -0.14505,0.164767 h -2.983866 -2.984048 z m -3.349471,-1.454867 v -0.48055 h 6.478552 6.47855 v 0.48055 0.480555 h -6.478539 -6.478548 z m -0.609847,0.16751 c -0.271901,-0.19721 -1.110259,-0.813422 -2.014273,-1.480542 l -0.150195,-0.110827 -2.48e-4,-3.239275 -2.55e-4,-3.239277 1.233946,-0.907709 c 0.678666,-0.49924 1.246935,-0.913049 1.262818,-0.919576 0.0159,-0.0064 0.02893,0.185963 0.02893,0.427748 v 0.439615 l -1.157584,0.440745 c -0.636646,0.242409 -1.152804,0.445483 -1.147004,0.451277 0.0054,0.0058 0.514664,-0.124741 1.130833,-0.290038 0.616171,-0.165318 1.132326,-0.300574 1.147008,-0.300587 0.01473,-10e-6 0.02666,1.754 0.02666,3.897794 0,2.143795 -0.01255,3.897808 -0.0279,3.897808 -0.02694,0 -0.502836,-0.125137 -1.63819,-0.430814 -0.299642,-0.08068 -0.550709,-0.140773 -0.557935,-0.133538 -0.0068,0.007 0.490226,0.204947 1.105447,0.439396 l 1.118568,0.426266 v 0.436694 c 0,0.240188 -0.0063,0.436691 -0.01353,0.436691 -0.0076,0 -0.163673,-0.108817 -0.34707,-0.241844 z m 13.816145,-0.184058 c 0,-0.383678 0.007,-0.429534 0.06835,-0.462512 0.03758,-0.02013 0.450088,-0.181584 0.916603,-0.358787 1.041838,-0.395722 1.2856,-0.493087 1.23977,-0.49518 -0.01934,-8.93e-4 -0.515535,0.126472 -1.102114,0.283034 -0.58659,0.156572 -1.079151,0.284658 -1.094598,0.284658 -0.01504,0 -0.02853,-1.75401 -0.02853,-3.897808 0,-2.143796 0.01167,-3.897811 0.02793,-3.897811 0.01473,0 0.507089,0.12836 1.09324,0.285221 0.586149,0.156871 1.078199,0.281015 1.093458,0.275869 0.01473,-0.0051 -0.476699,-0.201029 -1.09324,-0.435308 l -1.120891,-0.425941 v -0.440226 c 0,-0.242118 0.0135,-0.434885 0.02946,-0.428357 0.01595,0.0065 0.58461,0.420334 1.263201,0.919573 l 1.23379,0.907709 4.44e-4,3.234155 4.44e-4,3.23415 -0.08469,0.06662 c -0.197269,0.155168 -2.411962,1.77685 -2.426604,1.77685 -0.008,0 -0.01564,-0.191655 -0.01564,-0.425906 z M 25.506685,22.276102 v -3.897808 h 6.478552 6.47855 v 3.897808 3.897811 h -6.47855 -6.478552 z m 0,-4.663134 v -0.48055 h 6.478552 6.47855 v 0.48055 0.480555 h -6.47855 -6.478552 z M 29.920643,16.61627 V 16.3137 h 2.064594 2.064593 v 0.302568 0.30257 h -2.064593 -2.064595 z"
       id="path1-7" />
    <rect
       x="37.737823"
       y="37.757782"
       width="22.610399"
       height="22.610399"
       rx="4.7267799"
       ry="4.6148596"
       fill="url(#linearGradient862)"
       stroke-width="3.0541"
       id="rect35-7-3-1"
       style="fill:#414141;fill-opacity:1;stroke:#dfdfdf;stroke-width:0.978336;stroke-dasharray:none;stroke-opacity:1" />
    <path
       id="path1"
       style="fill:#dfdfdf;fill-opacity:1;stroke:none;stroke-width:0.224244;stroke-dasharray:none;stroke-dashoffset:2.2;stroke-opacity:0.6"
       d="m 53.054544,43.299438 c -0.231167,-9.7e-5 -0.478613,0.09299 -0.788298,0.274436 -0.736938,0.431788 -1.700715,0.635422 -3.024237,0.635422 -1.323397,0 -2.319324,-0.207971 -3.051873,-0.637265 -0.587409,-0.344229 -0.938101,-0.348791 -1.431082,-0.01642 -1.265645,0.852917 -2.219508,3.587517 -2.499329,7.160943 -0.167795,2.14283 -0.01103,3.27254 0.543328,3.908309 0.267381,0.306528 0.923785,0.254559 1.515809,-0.12156 0.501846,-0.318836 1.099794,-1.022374 1.814177,-2.134665 0.645548,-1.005122 1.426374,-1.336165 3.153173,-1.338993 1.723362,-0.0026 2.400625,0.323379 3.195531,1.545274 1.333668,2.050042 2.566393,2.763747 3.289465,1.90442 0.40058,-0.476052 0.473899,-0.936006 0.454923,-2.851106 -0.03457,-3.478896 -0.94394,-6.643709 -2.254366,-7.851617 -0.349004,-0.321703 -0.619985,-0.476908 -0.917221,-0.477033 z m -7.486939,2.049926 h 0.799346 0.79934 v 0.685152 0.685155 h 0.685156 0.685148 v 0.856441 0.856435 h -0.685148 -0.685156 v 0.742248 0.742251 h -0.723826 c -0.397652,0 -0.755645,-0.03568 -0.797503,-0.07735 -0.04185,-0.04185 -0.07732,-0.374141 -0.07732,-0.740403 v -0.666745 h -0.685161 -0.685156 v -0.856437 -0.856439 h 0.685156 0.685149 v -0.685157 z m 6.516311,0 c 0.721112,0 1.029934,0.798977 0.510182,1.318734 -0.330544,0.330508 -0.632217,0.356486 -0.957741,0.08106 -0.56463,-0.477772 -0.269928,-1.399771 0.447559,-1.399771 z m -1.386879,1.464237 c 0.180072,1.21e-4 0.361362,0.07187 0.50465,0.230203 0.223372,0.246825 0.247504,0.811915 0.04607,1.075615 -0.394228,0.516094 -1.340833,0.18413 -1.340833,-0.469659 0,-0.496196 0.39399,-0.836453 0.790134,-0.836178 z m 2.830855,0.02772 c 0.207551,0.0039 0.409039,0.07252 0.526752,0.202589 0.223372,0.246826 0.247471,0.811914 0.04604,1.075617 -0.419316,0.548931 -1.340835,0.181519 -1.340835,-0.534125 0,-0.216927 0.08692,-0.452038 0.2081,-0.56175 0.138541,-0.125395 0.35239,-0.186127 0.559914,-0.182325 z m -1.394247,1.477124 c 0.639304,0 0.95037,0.678118 0.563588,1.230325 -0.132224,0.188768 -0.293477,0.254171 -0.626215,0.254171 -0.383084,0 -0.471983,-0.04986 -0.626209,-0.348115 -0.30411,-0.588069 0.02772,-1.136394 0.688836,-1.136394 z" />
  </g>
</svg>
