<?xml version="1.0" encoding="UTF-8" standalone="no"?>
<svg
   width="64"
   height="64"
   version="1.1"
   id="svg73"
   sodipodi:docname="steam_icon_368260.svg"
   inkscape:version="1.4.2 (ebf0e940d0, 2025-05-08)"
   xmlns:inkscape="http://www.inkscape.org/namespaces/inkscape"
   xmlns:sodipodi="http://sodipodi.sourceforge.net/DTD/sodipodi-0.dtd"
   xmlns="http://www.w3.org/2000/svg"
   xmlns:svg="http://www.w3.org/2000/svg"
   xmlns:rdf="http://www.w3.org/1999/02/22-rdf-syntax-ns#"
   xmlns:cc="http://creativecommons.org/ns#"
   xmlns:dc="http://purl.org/dc/elements/1.1/">
  <metadata
     id="metadata77">
    <rdf:RDF>
      <cc:Work
         rdf:about="">
        <dc:format>image/svg+xml</dc:format>
        <dc:type
           rdf:resource="http://purl.org/dc/dcmitype/StillImage" />
      </cc:Work>
    </rdf:RDF>
  </metadata>
  <sodipodi:namedview
     pagecolor="#f5f7fa"
     bordercolor="#666666"
     borderopacity="1"
     objecttolerance="10"
     gridtolerance="10"
     guidetolerance="10"
     inkscape:pageopacity="0"
     inkscape:pageshadow="2"
     inkscape:window-width="1377"
     inkscape:window-height="886"
     id="namedview75"
     showgrid="false"
     inkscape:zoom="6.2890624"
     inkscape:cx="47.622361"
     inkscape:cy="45.396274"
     inkscape:window-x="147"
     inkscape:window-y="75"
     inkscape:window-maximized="0"
     inkscape:current-layer="g877"
     inkscape:document-rotation="0"
     inkscape:pagecheckerboard="0"
     inkscape:showpageshadow="2"
     inkscape:deskcolor="#d1d1d1" />
  <defs
     id="defs29" />
  <circle
     cx="32.516094"
     cy="31.877844"
     r="0"
     fill="url(#b)"
     stroke-width="1.5715"
     id="circle41"
     style="fill:url(#b)" />
  <g
     aria-label="GZ"
     transform="matrix(1.2212657,0,0,0.81882264,0.4960938,-0.1661539)"
     id="text93"
     style="font-weight:bold;font-size:11.5263px;line-height:1.25;font-family:sans-serif;-inkscape-font-specification:'sans-serif Bold';fill:#f2f2f2;stroke-width:0.288159" />
  <g
     id="g877"
     transform="matrix(1.1,0,0,1.1,-3.1845928,-3.2065454)">
    <rect
       x="8.3496294"
       y="8.369586"
       width="47.272728"
       height="47.272728"
       rx="9.8825235"
       ry="9.6485243"
       fill="url(#linearGradient862)"
       stroke-width="3.0541"
       id="rect35-7-3"
       style="fill:#414141;fill-opacity:1;stroke:#dfdfdf;stroke-width:2.04545;stroke-dasharray:none;stroke-opacity:1" />
    <path
       d="m 19.048506,40.503479 c -0.366763,-0.366763 -0.211166,-0.966916 0.222278,-1.400367 0.91135,-0.911349 2.62291,-0.822438 3.211949,-0.455674 0.300075,0.188958 0.666844,0.111112 0.644616,-0.288962 -0.05559,-0.700192 -0.200049,-1.600429 -0.300077,-2.322841 -0.03334,-0.277858 -0.277854,-0.500124 -0.722404,-0.500137 -1.066952,-0.02228 -2.6118,0.433456 -3.867685,1.689341 -1.522622,1.522617 -2.078321,4.545633 -0.822437,5.801515 2.300601,2.300601 7.146311,-1.722675 8.146574,-0.722409 0.366762,0.366763 -0.0778,1.05583 -0.555701,1.533734 -0.922464,0.922466 -2.722934,1.033602 -3.356431,0.622383 -0.300079,-0.18896 -0.677955,-0.100012 -0.644615,0.288959 0.04448,0.711299 0.188938,1.611532 0.288964,2.333947 0.04446,0.266739 0.277852,0.500129 0.733522,0.511244 1.066947,0.02222 2.756278,-0.622381 4.212214,-2.078319 1.44482,-1.444821 2.18946,-4.501177 0.91135,-5.779287 -2.133891,-2.133895 -7.057401,1.811583 -8.102117,0.766866 z M 37.83466,31.030867 c -0.511236,0.04446 -1.422592,0.111135 -2.489535,0.155606 -0.177827,-0.333419 -0.211168,-0.989148 -0.322307,-1.344797 -0.111141,-0.400106 -0.500132,-0.411217 -0.700183,-0.0778 l -0.866892,1.467043 -1.111402,-0.04446 c 0.4779,-1.055833 0.377876,-2.956332 -0.455676,-3.789881 -1.111401,-1.111402 -2.634021,-1.189197 -3.934362,0.111141 -1.555961,1.555962 -1.733785,4.067728 -0.433447,5.36807 0.500133,0.500132 1.367025,0.811322 2.400631,0.97803 -0.889124,1.178085 -0.644615,2.934103 0.21116,3.789882 1.322568,1.322569 3.100814,0.878007 4.42338,-0.444563 0.811321,-0.81132 1.533734,-2.111663 1.478165,-3.256404 0.677956,-0.05559 1.244765,-0.111136 1.60042,-0.155605 0.377875,-0.04448 0.644606,-0.155607 0.68907,-0.577928 0.05552,-0.433447 0.08889,-1.511506 0.06667,-1.733787 -0.03316,-0.233389 -0.222294,-0.466791 -0.5557,-0.444562 z m -4.445604,4.356695 c -0.366761,0.366762 -1.178084,0.288963 -1.589305,-0.122248 -0.266742,-0.266741 -0.377871,-0.800212 -0.322303,-1.233655 0.711295,0.04446 1.455936,0.05559 2.178347,0.02229 0.0667,0.489017 -0.01114,1.078062 -0.266745,1.333685 z m -4.490063,-5.823746 c 0.288961,-0.288967 1.122519,-0.01115 1.45594,0.322305 0.23338,0.233384 0.422327,0.711306 0.377874,1.133632 -0.800207,-0.133358 -1.444822,-0.355648 -1.789355,-0.700185 -0.222272,-0.22227 -0.255605,-0.544595 -0.04445,-0.755752 z m 8.839119,-11.573163 c -0.255662,0.255638 -2.289486,2.422853 -2.634022,2.76739 -0.266745,0.266746 -0.16672,1.789356 0.06669,2.02275 0.100023,0.100034 0.188937,0.07781 0.277857,-0.01115 0.322304,-0.322305 2.278377,-2.389515 2.589564,-2.700708 1.722674,-1.72267 4.501176,-1.055832 6.246079,0.689071 1.044711,1.044719 1.30034,2.233917 0.411216,3.211952 -0.111112,0.111132 -0.755761,0.777971 -1.444821,1.511506 -0.04446,-0.555701 -0.222294,-1.089176 -0.611276,-1.478166 0,0 -1.344884,-1.366934 -2.545111,-2.611786 -0.266738,-0.266741 -0.355639,-0.489026 -0.511241,-0.866895 -0.144515,-0.388994 -0.52236,-0.366762 -0.689068,-0.02229 l -1.122528,2.300605 c -0.155626,0.33342 -0.02222,0.666843 0.27785,0.811322 0.266739,0.133354 0.544582,0.277853 0.855777,0.589047 0.978032,0.978034 1.98941,2.033866 2.489538,2.533997 0.122258,0.122249 0.222291,0.222274 0.300071,0.344538 l -0.433448,0.433514 c -0.266738,0.266745 0.08889,1.911609 0.322295,2.145004 0.08889,0.08891 0.200071,0.06668 0.288961,-0.02229 0.311183,-0.311182 3.656507,-3.745414 3.9677,-4.05661 2.08945,-2.089409 1.756028,-5.334697 -0.333405,-7.468587 -2.200576,-2.200577 -5.612582,-2.278375 -7.768703,-0.122248 z"
       id="text3"
       style="font-size:5.64433px;line-height:0.7;font-family:'Anubis Mythical Serif';-inkscape-font-specification:'Anubis Mythical Serif';letter-spacing:-0.394221px;fill:#dfdfdf;stroke-width:0.884113;fill-opacity:1"
       aria-label="S &amp; D" />
    <rect
       x="37.737823"
       y="37.757782"
       width="22.610399"
       height="22.610399"
       rx="4.7267799"
       ry="4.6148596"
       fill="url(#linearGradient862)"
       stroke-width="3.0541"
       id="rect35-7-3-1"
       style="fill:#414141;fill-opacity:1;stroke:#dfdfdf;stroke-width:0.978336;stroke-dasharray:none;stroke-opacity:1" />
    <path
       id="path1"
       style="fill:#dfdfdf;fill-opacity:1;stroke:none;stroke-width:0.224244;stroke-dasharray:none;stroke-dashoffset:2.2;stroke-opacity:0.6"
       d="m 53.054544,43.299438 c -0.231167,-9.7e-5 -0.478613,0.09299 -0.788298,0.274436 -0.736938,0.431788 -1.700715,0.635422 -3.024237,0.635422 -1.323397,0 -2.319324,-0.207971 -3.051873,-0.637265 -0.587409,-0.344229 -0.938101,-0.348791 -1.431082,-0.01642 -1.265645,0.852917 -2.219508,3.587517 -2.499329,7.160943 -0.167795,2.14283 -0.01103,3.27254 0.543328,3.908309 0.267381,0.306528 0.923785,0.254559 1.515809,-0.12156 0.501846,-0.318836 1.099794,-1.022374 1.814177,-2.134665 0.645548,-1.005122 1.426374,-1.336165 3.153173,-1.338993 1.723362,-0.0026 2.400625,0.323379 3.195531,1.545274 1.333668,2.050042 2.566393,2.763747 3.289465,1.90442 0.40058,-0.476052 0.473899,-0.936006 0.454923,-2.851106 -0.03457,-3.478896 -0.94394,-6.643709 -2.254366,-7.851617 -0.349004,-0.321703 -0.619985,-0.476908 -0.917221,-0.477033 z m -7.486939,2.049926 h 0.799346 0.79934 v 0.685152 0.685155 h 0.685156 0.685148 v 0.856441 0.856435 h -0.685148 -0.685156 v 0.742248 0.742251 h -0.723826 c -0.397652,0 -0.755645,-0.03568 -0.797503,-0.07735 -0.04185,-0.04185 -0.07732,-0.374141 -0.07732,-0.740403 v -0.666745 h -0.685161 -0.685156 v -0.856437 -0.856439 h 0.685156 0.685149 v -0.685157 z m 6.516311,0 c 0.721112,0 1.029934,0.798977 0.510182,1.318734 -0.330544,0.330508 -0.632217,0.356486 -0.957741,0.08106 -0.56463,-0.477772 -0.269928,-1.399771 0.447559,-1.399771 z m -1.386879,1.464237 c 0.180072,1.21e-4 0.361362,0.07187 0.50465,0.230203 0.223372,0.246825 0.247504,0.811915 0.04607,1.075615 -0.394228,0.516094 -1.340833,0.18413 -1.340833,-0.469659 0,-0.496196 0.39399,-0.836453 0.790134,-0.836178 z m 2.830855,0.02772 c 0.207551,0.0039 0.409039,0.07252 0.526752,0.202589 0.223372,0.246826 0.247471,0.811914 0.04604,1.075617 -0.419316,0.548931 -1.340835,0.181519 -1.340835,-0.534125 0,-0.216927 0.08692,-0.452038 0.2081,-0.56175 0.138541,-0.125395 0.35239,-0.186127 0.559914,-0.182325 z m -1.394247,1.477124 c 0.639304,0 0.95037,0.678118 0.563588,1.230325 -0.132224,0.188768 -0.293477,0.254171 -0.626215,0.254171 -0.383084,0 -0.471983,-0.04986 -0.626209,-0.348115 -0.30411,-0.588069 0.02772,-1.136394 0.688836,-1.136394 z" />
  </g>
</svg>
