<?xml version="1.0" encoding="UTF-8" standalone="no"?>
<svg
   width="64"
   height="64"
   version="1.1"
   id="svg73"
   sodipodi:docname="Logo.svg"
   inkscape:version="1.3.2 (091e20ef0f, 2023-11-25)"
   xmlns:inkscape="http://www.inkscape.org/namespaces/inkscape"
   xmlns:sodipodi="http://sodipodi.sourceforge.net/DTD/sodipodi-0.dtd"
   xmlns="http://www.w3.org/2000/svg"
   xmlns:svg="http://www.w3.org/2000/svg"
   xmlns:rdf="http://www.w3.org/1999/02/22-rdf-syntax-ns#"
   xmlns:cc="http://creativecommons.org/ns#"
   xmlns:dc="http://purl.org/dc/elements/1.1/">
  <metadata
     id="metadata77">
    <rdf:RDF>
      <cc:Work
         rdf:about="">
        <dc:format>image/svg+xml</dc:format>
        <dc:type
           rdf:resource="http://purl.org/dc/dcmitype/StillImage" />
      </cc:Work>
    </rdf:RDF>
  </metadata>
  <sodipodi:namedview
     pagecolor="#f5f7fa"
     bordercolor="#666666"
     borderopacity="1"
     objecttolerance="10"
     gridtolerance="10"
     guidetolerance="10"
     inkscape:pageopacity="0"
     inkscape:pageshadow="2"
     inkscape:window-width="1377"
     inkscape:window-height="886"
     id="namedview75"
     showgrid="false"
     inkscape:zoom="6.2890624"
     inkscape:cx="35.935404"
     inkscape:cy="30.926709"
     inkscape:window-x="181"
     inkscape:window-y="77"
     inkscape:window-maximized="0"
     inkscape:current-layer="g877"
     inkscape:document-rotation="0"
     inkscape:pagecheckerboard="0"
     inkscape:showpageshadow="2"
     inkscape:deskcolor="#d1d1d1" />
  <defs
     id="defs29">
    <linearGradient
       id="b"
       x1="399.57"
       x2="399.57"
       y1="545.8"
       y2="517.8"
       gradientTransform="matrix(2.1429,0,0,2.1429,-825.86391,-1107.6662)"
       gradientUnits="userSpaceOnUse">
      <stop
         stop-color="#3889e9"
         offset="0"
         id="stop2" />
      <stop
         stop-color="#5ea5fb"
         offset="1"
         id="stop4" />
    </linearGradient>
    <linearGradient
       id="d"
       x2="1"
       gradientTransform="matrix(14.905727,-4.7106182,4.7106182,14.905727,322.04962,998.26962)"
       gradientUnits="userSpaceOnUse">
      <stop
         stop-color="#fafafa"
         offset="0"
         id="stop7" />
      <stop
         stop-color="#aaa"
         offset="1"
         id="stop8" />
    </linearGradient>
    <linearGradient
       id="e"
       x2="1"
       gradientTransform="matrix(21.439909,0,0,21.439909,26.63554,1159.7788)"
       gradientUnits="userSpaceOnUse">
      <stop
         stop-color="#f0f0f0"
         offset="0"
         id="stop9" />
      <stop
         stop-color="#b7f1ff"
         offset="1"
         id="stop10" />
    </linearGradient>
  </defs>
  <circle
     cx="32.516094"
     cy="31.877844"
     r="0"
     fill="url(#b)"
     stroke-width="1.5715"
     id="circle41"
     style="fill:url(#b)" />
  <g
     aria-label="GZ"
     transform="matrix(1.2212657,0,0,0.81882264,0.4960938,-0.1661539)"
     id="text93"
     style="font-weight:bold;font-size:11.5263px;line-height:1.25;font-family:sans-serif;-inkscape-font-specification:'sans-serif Bold';fill:#f2f2f2;stroke-width:0.288159" />
  <g
     id="g877"
     transform="matrix(1.1,0,0,1.1,-3.1845928,-3.2065454)">
    <rect
       x="6.3010068"
       y="5.4939413"
       width="51.635597"
       height="53.148327"
       rx="10.980581"
       ry="10.720582"
       fill="url(#linearGradient862)"
       stroke-width="3.0541"
       id="rect35-7-3"
       style="fill:#414141;fill-opacity:1;stroke:#dfdfdf;stroke-width:2.27272727;stroke-dasharray:none;stroke-opacity:1" />
    <path
       style="fill:#dfdfdf;stroke-width:0.122805;fill-opacity:1"
       d="m 23.955981,53.651113 c -1.827357,-0.654129 -2.726284,-1.807487 -2.749179,-3.527315 -0.01103,-0.829477 0.06453,-1.139377 0.408021,-1.673012 0.231866,-0.360228 0.644379,-0.783788 0.916693,-0.941254 l 0.495118,-0.286284 -0.204112,0.695639 c -0.384367,1.309958 0.169657,2.233734 1.416782,2.362337 0.883563,0.09111 1.75007,-0.349532 2.097259,-1.066519 0.563447,-1.163588 0.08155,-2.726152 -1.402747,-4.548469 -0.759012,-0.931862 -1.16502,-1.690731 -1.345596,-2.51505 -0.126689,-0.578324 -0.114423,-2.435071 0.02036,-3.081677 0.201571,-0.96703 1.076253,-2.595872 1.826734,-3.401766 0.753285,-0.8089 0.937316,-1.431341 0.475577,-1.608526 -0.381302,-0.146318 -0.419442,-0.127893 -0.387392,0.187157 0.05294,0.520516 -0.002,0.63823 -0.790769,1.694845 -0.82348,1.103084 -1.089543,1.607708 -1.420289,2.693765 -0.287784,0.944979 -0.305371,2.8077 -0.03494,3.700265 0.307942,1.016359 0.651838,1.776435 0.803745,1.776435 0.06808,0 0.123768,0.07702 0.123768,0.171161 0,0.107829 -0.2272,0.131189 -0.614024,0.06314 -1.65232,-0.290682 -3.028027,-1.367452 -3.743358,-2.929937 -0.358968,-0.784095 -0.415904,-1.105037 -0.35913,-2.024473 0.09385,-1.520017 0.722847,-2.723097 2.14328,-4.099473 1.539542,-1.491789 1.949934,-2.215593 1.886287,-3.32681 -0.04433,-0.77395 -0.093,-0.877013 -0.437181,-0.925711 -0.599057,-0.08475 -0.819007,0.254525 -0.294324,0.454008 0.246879,0.09387 0.435617,0.291827 0.435099,0.45637 -0.0014,0.473801 -0.330898,1.518644 -0.478786,1.518644 -0.302714,0 -1.065305,-1.898415 -1.099982,-2.738322 -0.02961,-0.717248 0.07457,-1.074075 0.645431,-2.210486 0.607395,-1.209149 0.680768,-1.480561 0.680971,-2.518924 2.8e-4,-0.994786 -0.06495,-1.262247 -0.448658,-1.842072 -0.246887,-0.373072 -0.50763,-0.678312 -0.579428,-0.678312 -0.0718,0 -0.2918,0.150237 -0.488895,0.333858 -0.361235,0.336542 -0.498387,1.139799 -0.194616,1.139799 0.09006,0 0.163742,-0.06509 0.163742,-0.144642 0,-0.07955 0.165785,-0.194371 0.368414,-0.255152 0.348784,-0.10462 0.351543,-0.11722 0.0518,-0.236461 -0.230871,-0.09184 -0.261177,-0.160213 -0.111913,-0.252462 0.241142,-0.149036 0.230326,-0.158731 0.571438,0.512171 0.443137,0.871561 0.348779,2.249217 -0.238871,3.487599 l -0.505045,1.064307 -0.309562,-0.573087 c -0.699577,-1.295121 -1.003756,-2.644521 -1.070391,-4.74845 -0.05667,-1.789539 -0.0139,-2.236865 0.340428,-3.559647 0.596375,-2.226417 1.369222,-3.639758 2.845155,-5.203077 1.192733,-1.263352 2.131856,-1.971365 3.552663,-2.678378 7.271855,-3.6185859 15.892296,0.588731 17.570804,8.575658 0.05677,0.270171 0.103456,1.449096 0.103732,2.619834 5.26e-4,1.898982 -0.04986,2.282235 -0.466285,3.552602 -0.68877,2.101211 -0.759322,2.154019 -1.341825,1.004392 -0.398841,-0.787149 -0.483747,-1.155899 -0.483747,-2.100901 0,-1.187596 0.401137,-2.172342 0.787608,-1.93349 0.125114,0.07732 0.119743,0.130095 -0.01791,0.175978 -0.286093,0.09537 -0.240635,0.312003 0.08994,0.428606 0.1576,0.05559 0.378648,0.144006 0.491219,0.19648 0.355058,0.165511 0.223506,-0.375593 -0.219229,-0.901754 -0.233148,-0.277081 -0.485029,-0.503783 -0.559734,-0.503783 -0.234324,0 -0.792604,1.042728 -0.962047,1.796868 -0.218881,0.974162 -0.0011,2.017992 0.736377,3.530522 0.534031,1.095175 0.589372,1.326766 0.507229,2.122662 -0.08635,0.836685 -0.829598,2.538064 -1.108748,2.538064 -0.06676,0 -0.210141,-0.369978 -0.318621,-0.822172 -0.210705,-0.878315 -0.06314,-1.306443 0.45028,-1.306443 0.195251,0 0.205471,-0.04837 0.04985,-0.235876 -0.201593,-0.242907 -0.65227,-0.168906 -0.865203,0.142062 -0.181113,0.2645 -0.149336,1.038742 0.07364,1.794084 0.145539,0.493029 0.565988,1.037537 1.566189,2.028314 0.947,0.938075 1.500083,1.642667 1.799425,2.292353 0.495344,1.075084 0.65461,2.564869 0.382305,3.57613 -0.387948,1.440732 -1.813197,2.809865 -3.407511,3.273345 -1.107801,0.322046 -1.307875,0.25355 -0.873261,-0.29897 0.507084,-0.644653 0.821877,-1.857349 0.81935,-3.156415 -0.0039,-2.003201 -0.558706,-3.569322 -1.789987,-5.05282 -0.435559,-0.524779 -0.660332,-0.956733 -0.660332,-1.268983 0,-0.506606 -0.142626,-0.592747 -0.458471,-0.276902 -0.333167,0.333169 -0.224717,0.624565 0.555351,1.492188 1.741026,1.936439 2.435782,4.587074 1.780596,6.793324 -0.1518,0.511162 -0.64761,1.371837 -1.253435,2.175827 -0.551263,0.731583 -1.163998,1.728009 -1.361636,2.214283 -0.667748,1.642957 -0.07264,3.170147 1.338819,3.435759 1.590549,0.299315 2.721352,-1.011179 2.118182,-2.45476 l -0.246478,-0.589905 0.468343,0.242188 c 1.361126,0.703866 1.831932,2.632308 1.046663,4.287152 -0.627134,1.321575 -2.732264,2.300792 -4.536669,2.110251 -1.988696,-0.210001 -3.518482,-1.235426 -4.363737,-2.925043 -0.474516,-0.948526 -0.504955,-1.117561 -0.477313,-2.650537 0.01624,-0.900569 0.168765,-2.30054 0.338945,-3.111051 0.534269,-2.544514 0.568754,-2.76834 0.525406,-3.410382 -0.02327,-0.344744 -0.128189,-0.887004 -0.233145,-1.205022 -0.205262,-0.621944 -1.149526,-1.626485 -1.75171,-1.863526 -0.932915,-0.367228 -2.435864,1.15136 -2.636631,2.66407 -0.121583,0.916091 -0.105327,1.049882 0.446708,3.676839 0.425196,2.023365 0.464874,4.40763 0.09158,5.503171 -0.82971,2.435063 -4.209783,4.002962 -6.704449,3.109969 z M 28.953462,36.00332 c 0,-0.04682 -0.188354,-0.383495 -0.418563,-0.748171 -0.890261,-1.410262 -0.695167,-2.139045 1.343958,-5.020396 0.230648,-0.325914 0.231861,-0.368413 0.01049,-0.368413 -0.291985,0 -1.22379,1.247035 -1.839061,2.461212 -0.301019,0.594034 -0.415848,1.050277 -0.384155,1.526336 0.05261,0.790292 0.740927,2.234555 1.064955,2.234555 0.122298,0 0.222363,-0.03829 0.222363,-0.08512 z m 7.769635,-0.747916 c 0.590505,-1.084955 0.599086,-1.853587 0.03287,-2.944935 -0.792255,-1.527035 -1.907883,-2.874256 -1.907883,-2.303937 0,0.0771 0.247086,0.463941 0.549076,0.859634 1.429151,1.872563 1.651451,2.870557 0.946306,4.248306 -0.626293,1.223674 -0.279708,1.352341 0.379626,0.140932 z M 28.21433,30.401305 c 0.462304,-0.339318 1.02124,-1.289876 0.85576,-1.455355 -0.06304,-0.06304 -0.244016,-0.0035 -0.402168,0.132387 -0.158151,0.135853 -0.434913,0.302957 -0.615027,0.371339 -0.32366,0.122885 -0.323731,0.125729 -0.0061,0.243917 0.30546,0.113669 0.301411,0.132198 -0.08187,0.374724 -0.22177,0.140328 -0.569009,0.304622 -0.771636,0.365095 -0.202628,0.06047 -0.368415,0.187883 -0.368415,0.283127 0,0.244472 0.907386,0.03861 1.389484,-0.315234 z m 9.594117,0.197768 c -0.0063,-0.0878 -0.223639,-0.214613 -0.482907,-0.281796 -0.471244,-0.12211 -1.137698,-0.690498 -0.683566,-0.582981 0.116558,0.02759 0.245696,-0.04192 0.286971,-0.154501 0.04198,-0.114487 -0.05154,-0.204674 -0.212248,-0.204674 -0.158014,0 -0.422495,-0.122353 -0.587739,-0.271896 -0.44693,-0.404465 -0.57169,-0.120661 -0.22773,0.518035 0.401377,0.745307 1.947624,1.538056 1.907219,0.977813 z m -8.24096,-1.889564 c 0.382739,0.0076 0.695892,-0.01722 0.695892,-0.05507 0,-0.03784 -0.313153,-0.222929 -0.695892,-0.411299 -0.384193,-0.189083 -0.907413,-0.642731 -1.168119,-1.012792 -0.614571,-0.87236 -1.322929,-1.292389 -2.180841,-1.29315 -0.685845,-7.22e-4 -1.522294,0.272913 -1.522294,0.497801 0,0.262213 0.829437,0.272203 0.981588,0.01183 0.11727,-0.20069 0.155835,-0.118848 0.15961,0.338736 0.0116,1.406337 0.797342,2.116406 2.198958,1.987198 0.459361,-0.04235 1.148355,-0.07081 1.531098,-0.06325 z M 38.256481,28.5089 c 0.362243,-0.292918 0.685096,-1.053754 0.685096,-1.614491 0,-0.372099 0.05177,-0.480327 0.17217,-0.359927 0.197365,0.197364 0.974008,0.09386 0.974008,-0.129815 0,-0.391093 -1.574466,-0.609757 -2.322631,-0.322567 -0.408122,0.15666 -1.209643,0.891243 -1.606666,1.472482 -0.134838,0.197402 -0.521672,0.480909 -0.859634,0.630018 -0.755355,0.333261 -0.802909,0.606844 -0.08232,0.473626 0.292684,-0.05412 0.7532,-0.03018 1.023371,0.05317 0.558043,0.172185 1.694353,0.05808 2.016607,-0.20251 z m -4.778166,-0.852412 c 0.303207,-0.198668 0.372308,-0.326765 0.244967,-0.454104 -0.127339,-0.127341 -0.271437,-0.09225 -0.510834,0.124402 -0.415228,0.375778 -1.209919,0.39004 -1.608997,0.02888 -0.371666,-0.336352 -0.521373,-0.34569 -0.521373,-0.03252 0,0.649606 1.578439,0.869181 2.396237,0.33334 z m -9.487756,-3.115163 c -0.19061,-1.174584 0.239676,-1.704605 1.440099,-1.773905 0.620202,-0.0358 0.390851,-0.34395 -0.299357,-0.402204 -0.489999,-0.04136 -0.696109,0.04121 -1.092586,0.437688 -0.409697,0.409698 -0.48866,0.618581 -0.48866,1.292663 0,0.804397 0.08019,1.022325 0.376193,1.022325 0.08916,0 0.117153,-0.250938 0.06431,-0.576567 z m 6.43656,0.417031 c 0,-0.08774 -0.208338,-0.267269 -0.46297,-0.398945 -0.820733,-0.424416 -1.881237,-1.908707 -2.116255,-2.961923 -0.196628,-0.881182 -0.0301,-2.293294 0.388794,-3.296968 0.234923,-0.56287 0.392696,-1.303941 0.465883,-2.188306 0.07372,-0.890764 -0.539663,-2.128616 -1.054774,-2.128616 -0.339442,0 -0.98669,0.800692 -0.98669,1.220604 0,0.500667 0.174813,0.535115 0.45322,0.08932 0.112484,-0.180113 0.332836,-0.329822 0.489672,-0.332686 0.265838,-0.0049 0.26508,-0.02044 -0.01119,-0.229891 -0.167813,-0.127234 -0.226763,-0.267685 -0.135917,-0.323832 0.08824,-0.05453 0.313693,0.0957 0.501017,0.333842 0.481918,0.612657 0.437581,1.57302 -0.171306,3.710749 -0.608409,2.136046 -0.581241,3.08846 0.125128,4.386287 0.675997,1.242033 2.515386,2.792563 2.515386,2.120372 z m 4.953756,-0.314962 c 1.674557,-1.267891 2.469267,-3.441432 1.921887,-5.256388 -0.914081,-3.030836 -1.010214,-3.967791 -0.476688,-4.646058 0.187324,-0.238145 0.412782,-0.388373 0.501019,-0.333842 0.09085,0.05614 0.0319,0.196599 -0.135918,0.323833 -0.218738,0.165844 -0.235401,0.226045 -0.06363,0.22989 0.127994,0.0029 0.36282,0.122949 0.521836,0.266856 0.278318,0.251875 0.637233,0.198361 0.637233,-0.09501 0,-0.289386 -0.858417,-1.149076 -1.147376,-1.149076 -0.502686,0 -1.030876,1.058559 -1.021975,2.048161 0.0075,0.828545 0.0986,1.214912 0.673958,2.856718 0.394652,1.126166 0.332746,2.713477 -0.1428,3.661447 -0.384011,0.765499 -1.621809,2.076749 -1.96042,2.076749 -0.09207,0 -0.167397,0.110524 -0.167397,0.245609 0,0.345245 0.157236,0.30341 0.860267,-0.228888 z m 5.831274,0.119277 c 0.217763,-0.588667 -0.06586,-1.642976 -0.555219,-2.063905 -0.325353,-0.279856 -0.602939,-0.368643 -1.038744,-0.332249 -0.327106,0.02732 -0.571485,0.123353 -0.543066,0.21341 0.02842,0.09006 0.166231,0.140052 0.306248,0.111102 0.41488,-0.08578 1.138328,0.290888 1.362238,0.709266 0.123731,0.231193 0.172222,0.659259 0.119342,1.053511 -0.09473,0.706225 0.129005,0.904112 0.349201,0.308865 z m -9.638854,-2.33011 c 0,-0.03602 -0.267586,-0.333082 -0.594635,-0.66013 -0.55396,-0.55396 -0.587776,-0.644686 -0.494351,-1.326292 0.0985,-0.718635 -0.117884,-1.02697 -0.330985,-0.471637 -0.269258,0.701673 -0.08674,1.492588 0.497324,2.155142 0.271956,0.308498 0.922647,0.52213 0.922647,0.302917 z m 2.593361,-0.346704 c 0.559372,-0.470678 0.819709,-1.479569 0.524251,-2.031635 -0.305925,-0.57163 -0.45367,-0.381004 -0.37106,0.478748 0.075,0.780493 0.0496,0.845098 -0.547251,1.391787 -0.733908,0.672233 -0.383591,0.815452 0.39406,0.1611 z M 16.122125,39.443969 c -0.179991,-0.469049 -0.113393,-1.706908 0.121351,-2.255541 0.272637,-0.637189 1.000018,-1.343787 1.627287,-1.580785 0.624395,-0.235913 1.909773,-0.209924 2.374645,0.04801 0.354814,0.196869 0.361106,0.225776 0.09675,0.44448 -0.33887,0.280352 -1.045479,1.747467 -1.047731,2.175378 -0.0012,0.227588 -0.07367,0.27279 -0.288143,0.179725 -1.026672,-0.445498 -2.108911,-0.12579 -2.53211,0.748019 -0.197516,0.407831 -0.269129,0.456796 -0.352047,0.240717 z m 32.287122,-0.113612 c -0.112047,-0.777338 -1.639369,-1.371014 -2.433608,-0.945952 -0.265641,0.142169 -0.329787,0.09922 -0.426323,-0.28541 -0.0625,-0.249016 -0.355051,-0.858523 -0.650118,-1.354459 -0.486255,-0.817278 -0.511389,-0.920864 -0.268444,-1.106376 0.327658,-0.250197 1.654094,-0.267933 2.282469,-0.03051 0.564676,0.21335 1.31159,0.902374 1.621738,1.496043 0.257407,0.492714 0.316156,2.351331 0.07896,2.497927 -0.08362,0.05168 -0.17572,-0.07038 -0.204671,-0.271254 z"
       id="path1" />
  </g>
</svg>
