<?xml version="1.0" encoding="UTF-8" standalone="no"?>
<svg
   width="64"
   height="64"
   version="1.1"
   id="svg73"
   sodipodi:docname="steam_icon_368260.svg"
   inkscape:version="1.4.2 (ebf0e940d0, 2025-05-08)"
   xmlns:inkscape="http://www.inkscape.org/namespaces/inkscape"
   xmlns:sodipodi="http://sodipodi.sourceforge.net/DTD/sodipodi-0.dtd"
   xmlns="http://www.w3.org/2000/svg"
   xmlns:svg="http://www.w3.org/2000/svg"
   xmlns:rdf="http://www.w3.org/1999/02/22-rdf-syntax-ns#"
   xmlns:cc="http://creativecommons.org/ns#"
   xmlns:dc="http://purl.org/dc/elements/1.1/">
  <metadata
     id="metadata77">
    <rdf:RDF>
      <cc:Work
         rdf:about="">
        <dc:format>image/svg+xml</dc:format>
        <dc:type
           rdf:resource="http://purl.org/dc/dcmitype/StillImage" />
      </cc:Work>
    </rdf:RDF>
  </metadata>
  <sodipodi:namedview
     pagecolor="#f5f7fa"
     bordercolor="#666666"
     borderopacity="1"
     objecttolerance="10"
     gridtolerance="10"
     guidetolerance="10"
     inkscape:pageopacity="0"
     inkscape:pageshadow="2"
     inkscape:window-width="1377"
     inkscape:window-height="886"
     id="namedview75"
     showgrid="false"
     inkscape:zoom="6.2890624"
     inkscape:cx="47.622361"
     inkscape:cy="45.396274"
     inkscape:window-x="147"
     inkscape:window-y="75"
     inkscape:window-maximized="0"
     inkscape:current-layer="g877"
     inkscape:document-rotation="0"
     inkscape:pagecheckerboard="0"
     inkscape:showpageshadow="2"
     inkscape:deskcolor="#d1d1d1" />
  <defs
     id="defs29" />
  <circle
     cx="32.516094"
     cy="31.877844"
     r="0"
     fill="url(#b)"
     stroke-width="1.5715"
     id="circle41"
     style="fill:url(#b)" />
  <g
     aria-label="GZ"
     transform="matrix(1.2212657,0,0,0.81882264,0.4960938,-0.1661539)"
     id="text93"
     style="font-weight:bold;font-size:11.5263px;line-height:1.25;font-family:sans-serif;-inkscape-font-specification:'sans-serif Bold';fill:#f2f2f2;stroke-width:0.288159" />
  <g
     id="g877"
     transform="matrix(1.1,0,0,1.1,-3.1845928,-3.2065454)">
    <rect
       x="8.3496294"
       y="8.369586"
       width="47.272728"
       height="47.272728"
       rx="9.8825235"
       ry="9.6485243"
       fill="url(#linearGradient862)"
       stroke-width="3.0541"
       id="rect35-7-3"
       style="fill:#414141;fill-opacity:1;stroke:#dfdfdf;stroke-width:2.04545;stroke-dasharray:none;stroke-opacity:1" />
    <path
       style="fill:#dfdfdf;stroke:none;stroke-width:0.429663;stroke-dasharray:none;stroke-opacity:0.6;fill-opacity:1"
       d="m 32.868643,44.415809 c -0.426729,-0.516837 -0.473244,-0.82106 -0.142585,-0.932483 1.523288,-0.513326 1.971183,-1.255233 1.553648,-2.573523 -0.230683,-0.728349 -0.868261,-3.866768 -1.416835,-6.974267 -0.93774,-5.311973 -1.076171,-5.699865 -2.313801,-6.483475 -1.239717,-0.784936 -1.266398,-0.860239 -0.458036,-1.29286 1.062917,-0.568856 7.204894,-2.132026 9.90123,-2.519926 3.966859,-0.570676 5.878647,2.760241 3.093181,5.389273 -1.538185,1.4518 -1.678506,1.929731 -0.474091,1.614772 1.119106,-0.292653 3.371488,1.059377 3.976329,2.386863 0.262739,0.576608 0.604718,1.842841 0.759989,2.813853 0.256687,1.60511 0.146294,1.890378 -1.214947,3.140427 -0.823494,0.756213 -3.689434,2.363613 -6.368759,3.571994 -6.17113,2.783195 -6.139581,2.774685 -6.895323,1.859352 z m 9.395586,-5.536818 c 2.328477,-1.17443 3.035535,-2.040331 3.035535,-3.7175 0,-3.148943 -0.445224,-3.337482 -5.112637,-2.165066 -3.022918,0.759332 -3.080151,0.835456 -2.456559,3.267638 0.218567,0.852511 0.523039,2.109388 0.67658,2.793061 0.310703,1.383417 0.806475,1.360521 3.857081,-0.178157 z m -2.885914,-9.705083 c 1.293604,-0.976684 2.564283,-2.172416 2.823722,-2.657183 0.42198,-0.788482 0.332311,-0.881395 -0.850667,-0.881395 -0.727303,0 -2.342476,0.218774 -3.589259,0.486159 -1.834346,0.393398 -2.211572,0.625777 -1.977009,1.217877 0.159435,0.402443 0.398644,1.379406 0.531577,2.171025 0.132928,0.791618 0.346982,1.439305 0.475661,1.439305 0.128679,0 1.292369,-0.799105 2.585975,-1.775788 z M 26.394929,40.597421 c -0.455779,-0.59125 -2.818798,-11.054499 -2.803945,-12.415625 0.01091,-0.990603 -0.386977,-0.965622 -1.762999,0.110716 -1.547826,1.210728 -5.314366,1.072682 -5.314366,-0.194774 0,-1.51881 7.957846,-6.463596 13.611532,-8.45783 2.203373,-0.777199 2.397485,-0.780147 3.908963,-0.05938 0.874753,0.41714 1.517536,0.977198 1.428411,1.244579 -0.08912,0.267376 -1.72901,1.057423 -3.644184,1.755657 -1.915172,0.698237 -3.951149,1.57683 -4.524388,1.952429 -0.954121,0.625165 -0.988197,0.766172 -0.402958,1.667533 0.946978,1.458503 4.082128,13.908862 3.619032,14.371955 -0.556129,0.556127 -3.690938,0.574972 -4.115098,0.02461 z"
       id="path1-9" />
    <rect
       x="37.737823"
       y="37.757782"
       width="22.610399"
       height="22.610399"
       rx="4.7267799"
       ry="4.6148596"
       fill="url(#linearGradient862)"
       stroke-width="3.0541"
       id="rect35-7-3-1"
       style="fill:#414141;fill-opacity:1;stroke:#dfdfdf;stroke-width:0.978336;stroke-dasharray:none;stroke-opacity:1" />
    <path
       id="path1"
       style="fill:#dfdfdf;fill-opacity:1;stroke:none;stroke-width:0.224244;stroke-dasharray:none;stroke-dashoffset:2.2;stroke-opacity:0.6"
       d="m 53.054544,43.299438 c -0.231167,-9.7e-5 -0.478613,0.09299 -0.788298,0.274436 -0.736938,0.431788 -1.700715,0.635422 -3.024237,0.635422 -1.323397,0 -2.319324,-0.207971 -3.051873,-0.637265 -0.587409,-0.344229 -0.938101,-0.348791 -1.431082,-0.01642 -1.265645,0.852917 -2.219508,3.587517 -2.499329,7.160943 -0.167795,2.14283 -0.01103,3.27254 0.543328,3.908309 0.267381,0.306528 0.923785,0.254559 1.515809,-0.12156 0.501846,-0.318836 1.099794,-1.022374 1.814177,-2.134665 0.645548,-1.005122 1.426374,-1.336165 3.153173,-1.338993 1.723362,-0.0026 2.400625,0.323379 3.195531,1.545274 1.333668,2.050042 2.566393,2.763747 3.289465,1.90442 0.40058,-0.476052 0.473899,-0.936006 0.454923,-2.851106 -0.03457,-3.478896 -0.94394,-6.643709 -2.254366,-7.851617 -0.349004,-0.321703 -0.619985,-0.476908 -0.917221,-0.477033 z m -7.486939,2.049926 h 0.799346 0.79934 v 0.685152 0.685155 h 0.685156 0.685148 v 0.856441 0.856435 h -0.685148 -0.685156 v 0.742248 0.742251 h -0.723826 c -0.397652,0 -0.755645,-0.03568 -0.797503,-0.07735 -0.04185,-0.04185 -0.07732,-0.374141 -0.07732,-0.740403 v -0.666745 h -0.685161 -0.685156 v -0.856437 -0.856439 h 0.685156 0.685149 v -0.685157 z m 6.516311,0 c 0.721112,0 1.029934,0.798977 0.510182,1.318734 -0.330544,0.330508 -0.632217,0.356486 -0.957741,0.08106 -0.56463,-0.477772 -0.269928,-1.399771 0.447559,-1.399771 z m -1.386879,1.464237 c 0.180072,1.21e-4 0.361362,0.07187 0.50465,0.230203 0.223372,0.246825 0.247504,0.811915 0.04607,1.075615 -0.394228,0.516094 -1.340833,0.18413 -1.340833,-0.469659 0,-0.496196 0.39399,-0.836453 0.790134,-0.836178 z m 2.830855,0.02772 c 0.207551,0.0039 0.409039,0.07252 0.526752,0.202589 0.223372,0.246826 0.247471,0.811914 0.04604,1.075617 -0.419316,0.548931 -1.340835,0.181519 -1.340835,-0.534125 0,-0.216927 0.08692,-0.452038 0.2081,-0.56175 0.138541,-0.125395 0.35239,-0.186127 0.559914,-0.182325 z m -1.394247,1.477124 c 0.639304,0 0.95037,0.678118 0.563588,1.230325 -0.132224,0.188768 -0.293477,0.254171 -0.626215,0.254171 -0.383084,0 -0.471983,-0.04986 -0.626209,-0.348115 -0.30411,-0.588069 0.02772,-1.136394 0.688836,-1.136394 z" />
  </g>
</svg>
