<?xml version="1.0" encoding="UTF-8" standalone="no"?>
<svg
   width="64"
   height="64"
   version="1.1"
   id="svg73"
   sodipodi:docname="system-software-installer.svg"
   inkscape:version="1.4.2 (ebf0e940d0, 2025-05-08)"
   xmlns:inkscape="http://www.inkscape.org/namespaces/inkscape"
   xmlns:sodipodi="http://sodipodi.sourceforge.net/DTD/sodipodi-0.dtd"
   xmlns="http://www.w3.org/2000/svg"
   xmlns:svg="http://www.w3.org/2000/svg"
   xmlns:rdf="http://www.w3.org/1999/02/22-rdf-syntax-ns#"
   xmlns:cc="http://creativecommons.org/ns#"
   xmlns:dc="http://purl.org/dc/elements/1.1/">
  <metadata
     id="metadata77">
    <rdf:RDF>
      <cc:Work
         rdf:about="">
        <dc:format>image/svg+xml</dc:format>
        <dc:type
           rdf:resource="http://purl.org/dc/dcmitype/StillImage" />
      </cc:Work>
    </rdf:RDF>
  </metadata>
  <sodipodi:namedview
     pagecolor="#f5f7fa"
     bordercolor="#666666"
     borderopacity="1"
     objecttolerance="10"
     gridtolerance="10"
     guidetolerance="10"
     inkscape:pageopacity="0"
     inkscape:pageshadow="2"
     inkscape:window-width="1377"
     inkscape:window-height="886"
     id="namedview75"
     showgrid="false"
     inkscape:zoom="6.2890624"
     inkscape:cx="47.622361"
     inkscape:cy="45.396274"
     inkscape:window-x="147"
     inkscape:window-y="75"
     inkscape:window-maximized="0"
     inkscape:current-layer="g877"
     inkscape:document-rotation="0"
     inkscape:pagecheckerboard="0"
     inkscape:showpageshadow="2"
     inkscape:deskcolor="#d1d1d1" />
  <defs
     id="defs29">
    <linearGradient
       id="b"
       x1="399.57"
       x2="399.57"
       y1="545.8"
       y2="517.8"
       gradientTransform="matrix(2.1429,0,0,2.1429,-825.86391,-1107.6662)"
       gradientUnits="userSpaceOnUse">
      <stop
         stop-color="#3889e9"
         offset="0"
         id="stop2" />
      <stop
         stop-color="#5ea5fb"
         offset="1"
         id="stop4" />
    </linearGradient>
  </defs>
  <circle
     cx="32.516094"
     cy="31.877844"
     r="0"
     fill="url(#b)"
     stroke-width="1.5715"
     id="circle41"
     style="fill:url(#b)" />
  <g
     aria-label="GZ"
     transform="matrix(1.2212657,0,0,0.81882264,0.4960938,-0.1661539)"
     id="text93"
     style="font-weight:bold;font-size:11.5263px;line-height:1.25;font-family:sans-serif;-inkscape-font-specification:'sans-serif Bold';fill:#f2f2f2;stroke-width:0.288159" />
  <g
     id="g877"
     transform="matrix(1.1,0,0,1.1,-3.1845928,-3.2065454)">
    <rect
       x="8.3496294"
       y="8.369586"
       width="47.272728"
       height="47.272728"
       rx="9.8825235"
       ry="9.6485243"
       fill="url(#linearGradient862)"
       stroke-width="3.0541"
       id="rect35-7-3"
       style="fill:#414141;fill-opacity:1;stroke:#dfdfdf;stroke-width:2.04545;stroke-dasharray:none;stroke-opacity:1" />
    <path
       style="fill:#dfdfdf;fill-opacity:1;stroke:none;stroke-width:0.486252;stroke-dasharray:none;stroke-opacity:0.6"
       d="m 31.485857,47.870545 c -0.189029,-0.100769 -0.332651,-0.240965 -0.437639,-0.427007 -0.146226,-0.25916 -0.157831,-0.345291 -0.180492,-1.3399 l -0.02425,-1.062933 -0.929328,-0.685013 -0.929329,-0.685007 V 37.4279 c 0,-5.365746 -0.01293,-6.267722 -0.09177,-6.420247 -0.05045,-0.09762 -0.757208,-1.311574 -1.570536,-2.697715 -1.116105,-1.902169 -1.464446,-2.544094 -1.420373,-2.61745 0.03211,-0.05344 1.207832,-2.146676 2.612699,-4.651597 1.404865,-2.504924 2.635465,-4.63557 2.734671,-4.734778 0.456104,-0.456097 1.264621,-0.362151 1.638726,0.190419 0.08198,0.121081 1.252617,2.189704 2.60142,4.596933 1.348809,2.407226 2.494041,4.449089 2.544965,4.537471 0.09012,0.156412 0.05322,0.227792 -1.385622,2.679977 -0.813009,1.385603 -1.519495,2.599139 -1.569968,2.69674 -0.07888,0.152526 -0.09177,1.054501 -0.09177,6.420247 v 6.242785 l -0.92933,0.685007 -0.929328,0.685013 -0.02605,1.062933 c -0.0231,0.942847 -0.04152,1.092241 -0.162921,1.322359 -0.275862,0.522897 -0.931102,0.723262 -1.453788,0.444548 z M 30.083446,26.250132 c 0.09288,-0.03531 0.340907,-0.208512 0.55117,-0.384884 1.002568,-0.840976 1.786801,-0.838845 2.735877,0.0075 0.194023,0.173011 0.427978,0.343153 0.519906,0.378102 0.595218,0.226316 1.324957,-0.203734 1.446676,-0.852542 0.07722,-0.411637 -0.0747,-0.732444 -0.569296,-1.202274 -0.832577,-0.790863 -1.703996,-1.157068 -2.750454,-1.155854 -1.08958,0.0014 -2.021976,0.39633 -2.855189,1.209759 -0.42826,0.418091 -0.486109,0.502262 -0.523209,0.761292 -0.05615,0.392245 9.82e-4,0.610217 0.23414,0.893098 0.307542,0.373107 0.782082,0.508707 1.210378,0.34587 z M 20.61851,44.341965 c -0.113727,-0.05606 -0.285597,-0.217197 -0.381955,-0.358098 -0.206867,-0.302521 -1.954883,-3.138528 -2.114702,-3.430921 -0.101199,-0.18518 -0.111695,-0.507557 -0.128188,-3.93786 -0.01218,-2.528755 0.0037,-3.817073 0.04943,-3.986442 0.133517,-0.495859 0.727541,-0.877147 1.22201,-0.784384 0.249134,0.04674 0.568027,0.258547 0.741587,0.492555 0.122956,0.165776 0.132677,0.276368 0.162063,1.843305 l 0.03126,1.666944 2.183986,-3.89101 c 1.201216,-2.140049 2.200057,-3.889729 2.219676,-3.888174 0.0196,0.0015 0.521016,0.836005 1.114224,1.854327 l 1.078564,1.851497 v 5.925128 5.925114 l -0.171944,0.03452 c -0.679855,0.137159 -5.201594,0.787783 -5.467205,0.786648 -0.182611,-8.07e-4 -0.42507,-0.04727 -0.538788,-0.103309 z M 39.770476,44.036411 C 38.360529,43.81662 37.1999,43.63615 37.191303,43.635361 c -0.0089,-8.93e-4 -0.01595,-2.669965 -0.01595,-5.931514 v -5.930143 l 1.078646,-1.851497 c 0.593211,-1.018322 1.094609,-1.852769 1.114229,-1.854327 0.01933,-0.0015 1.018455,1.748125 2.219651,3.888181 l 2.183986,3.891009 0.0314,-1.666945 c 0.02946,-1.566939 0.03909,-1.677526 0.162076,-1.843302 0.173581,-0.234014 0.492456,-0.445815 0.741585,-0.492556 0.494474,-0.09277 1.088494,0.288528 1.222011,0.784384 0.0456,0.16937 0.06161,1.457687 0.0494,3.986441 -0.01627,3.430304 -0.02669,3.752717 -0.12817,3.937862 -0.160172,0.293006 -1.90805,3.128709 -2.115434,3.43199 -0.231574,0.338645 -0.505401,0.463138 -1.003853,0.456404 -0.21835,-0.0027 -1.550552,-0.185242 -2.960501,-0.404988 z"
       id="path1-3" />
    <rect
       x="37.737823"
       y="37.757782"
       width="22.610399"
       height="22.610399"
       rx="4.7267799"
       ry="4.6148596"
       fill="url(#linearGradient862)"
       stroke-width="3.0541"
       id="rect35-7-3-1"
       style="fill:#414141;fill-opacity:1;stroke:#dfdfdf;stroke-width:0.978336;stroke-dasharray:none;stroke-opacity:1" />
    <path
       id="path1"
       style="fill:#dfdfdf;fill-opacity:1;stroke:none;stroke-width:0.224244;stroke-dasharray:none;stroke-dashoffset:2.2;stroke-opacity:0.6"
       d="m 53.054544,43.299438 c -0.231167,-9.7e-5 -0.478613,0.09299 -0.788298,0.274436 -0.736938,0.431788 -1.700715,0.635422 -3.024237,0.635422 -1.323397,0 -2.319324,-0.207971 -3.051873,-0.637265 -0.587409,-0.344229 -0.938101,-0.348791 -1.431082,-0.01642 -1.265645,0.852917 -2.219508,3.587517 -2.499329,7.160943 -0.167795,2.14283 -0.01103,3.27254 0.543328,3.908309 0.267381,0.306528 0.923785,0.254559 1.515809,-0.12156 0.501846,-0.318836 1.099794,-1.022374 1.814177,-2.134665 0.645548,-1.005122 1.426374,-1.336165 3.153173,-1.338993 1.723362,-0.0026 2.400625,0.323379 3.195531,1.545274 1.333668,2.050042 2.566393,2.763747 3.289465,1.90442 0.40058,-0.476052 0.473899,-0.936006 0.454923,-2.851106 -0.03457,-3.478896 -0.94394,-6.643709 -2.254366,-7.851617 -0.349004,-0.321703 -0.619985,-0.476908 -0.917221,-0.477033 z m -7.486939,2.049926 h 0.799346 0.79934 v 0.685152 0.685155 h 0.685156 0.685148 v 0.856441 0.856435 h -0.685148 -0.685156 v 0.742248 0.742251 h -0.723826 c -0.397652,0 -0.755645,-0.03568 -0.797503,-0.07735 -0.04185,-0.04185 -0.07732,-0.374141 -0.07732,-0.740403 v -0.666745 h -0.685161 -0.685156 v -0.856437 -0.856439 h 0.685156 0.685149 v -0.685157 z m 6.516311,0 c 0.721112,0 1.029934,0.798977 0.510182,1.318734 -0.330544,0.330508 -0.632217,0.356486 -0.957741,0.08106 -0.56463,-0.477772 -0.269928,-1.399771 0.447559,-1.399771 z m -1.386879,1.464237 c 0.180072,1.21e-4 0.361362,0.07187 0.50465,0.230203 0.223372,0.246825 0.247504,0.811915 0.04607,1.075615 -0.394228,0.516094 -1.340833,0.18413 -1.340833,-0.469659 0,-0.496196 0.39399,-0.836453 0.790134,-0.836178 z m 2.830855,0.02772 c 0.207551,0.0039 0.409039,0.07252 0.526752,0.202589 0.223372,0.246826 0.247471,0.811914 0.04604,1.075617 -0.419316,0.548931 -1.340835,0.181519 -1.340835,-0.534125 0,-0.216927 0.08692,-0.452038 0.2081,-0.56175 0.138541,-0.125395 0.35239,-0.186127 0.559914,-0.182325 z m -1.394247,1.477124 c 0.639304,0 0.95037,0.678118 0.563588,1.230325 -0.132224,0.188768 -0.293477,0.254171 -0.626215,0.254171 -0.383084,0 -0.471983,-0.04986 -0.626209,-0.348115 -0.30411,-0.588069 0.02772,-1.136394 0.688836,-1.136394 z" />
  </g>
</svg>
