<?xml version="1.0" encoding="UTF-8" standalone="no"?>
<svg
   width="64"
   height="64"
   version="1.1"
   id="svg73"
   sodipodi:docname="steam_icon_2118810.svg"
   inkscape:version="1.4.2 (ebf0e940d0, 2025-05-08)"
   xmlns:inkscape="http://www.inkscape.org/namespaces/inkscape"
   xmlns:sodipodi="http://sodipodi.sourceforge.net/DTD/sodipodi-0.dtd"
   xmlns="http://www.w3.org/2000/svg"
   xmlns:svg="http://www.w3.org/2000/svg"
   xmlns:rdf="http://www.w3.org/1999/02/22-rdf-syntax-ns#"
   xmlns:cc="http://creativecommons.org/ns#"
   xmlns:dc="http://purl.org/dc/elements/1.1/">
  <metadata
     id="metadata77">
    <rdf:RDF>
      <cc:Work
         rdf:about="">
        <dc:format>image/svg+xml</dc:format>
        <dc:type
           rdf:resource="http://purl.org/dc/dcmitype/StillImage" />
      </cc:Work>
    </rdf:RDF>
  </metadata>
  <sodipodi:namedview
     pagecolor="#f5f7fa"
     bordercolor="#666666"
     borderopacity="1"
     objecttolerance="10"
     gridtolerance="10"
     guidetolerance="10"
     inkscape:pageopacity="0"
     inkscape:pageshadow="2"
     inkscape:window-width="1377"
     inkscape:window-height="886"
     id="namedview75"
     showgrid="false"
     inkscape:zoom="6.2890624"
     inkscape:cx="47.622361"
     inkscape:cy="45.396274"
     inkscape:window-x="147"
     inkscape:window-y="75"
     inkscape:window-maximized="0"
     inkscape:current-layer="g877"
     inkscape:document-rotation="0"
     inkscape:pagecheckerboard="0"
     inkscape:showpageshadow="2"
     inkscape:deskcolor="#d1d1d1" />
  <defs
     id="defs29" />
  <circle
     cx="32.516094"
     cy="31.877844"
     r="0"
     fill="url(#b)"
     stroke-width="1.5715"
     id="circle41"
     style="fill:url(#b)" />
  <g
     aria-label="GZ"
     transform="matrix(1.2212657,0,0,0.81882264,0.4960938,-0.1661539)"
     id="text93"
     style="font-weight:bold;font-size:11.5263px;line-height:1.25;font-family:sans-serif;-inkscape-font-specification:'sans-serif Bold';fill:#f2f2f2;stroke-width:0.288159" />
  <g
     id="g877"
     transform="matrix(1.1,0,0,1.1,-3.1845928,-3.2065454)">
    <rect
       x="8.3496294"
       y="8.369586"
       width="47.272728"
       height="47.272728"
       rx="9.8825235"
       ry="9.6485243"
       fill="url(#linearGradient862)"
       stroke-width="3.0541"
       id="rect35-7-3"
       style="fill:#414141;fill-opacity:1;stroke:#dfdfdf;stroke-width:2.04545;stroke-dasharray:none;stroke-opacity:1" />
    <path
       style="fill:#dfdfdf;stroke-width:0.0652631;fill-opacity:1"
       d="m 34.263682,46.819599 c -0.168986,-0.168983 -1.993478,-5.342196 -1.962006,-5.563121 0.03175,-0.222859 0.342336,-0.297935 0.491119,-0.118611 0.112708,0.135826 1.841696,5.363132 1.841696,5.568083 0,0.181008 -0.232288,0.252168 -0.370809,0.113663 z m -5.076937,-3.554324 c -0.814723,-1.017019 -1.511549,-1.899793 -1.548503,-1.961717 -0.07688,-0.128815 0.08826,-0.366016 0.254831,-0.366016 0.140897,0 3.086665,3.856187 3.086665,4.040624 0,0.407847 -0.400928,0.02474 -1.792993,-1.712891 z m 5.420047,0.565614 c -0.09188,-0.157953 -0.929501,-2.923979 -0.929501,-3.069463 0,-0.196093 0.158056,-0.309756 0.272145,-0.19568 0.07764,0.07765 0.946112,3.055323 0.946112,3.243874 0,0.100572 -0.232655,0.117683 -0.288755,0.02096 z m -7.412335,-3.479976 c -0.399611,-0.07225 -0.623101,-0.294922 -1.546788,-1.541078 -0.533852,-0.72022 -1.203232,-1.603188 -1.487509,-1.962129 -0.954724,-1.2055 -1.021079,-1.598163 -0.503512,-2.979548 0.851054,-2.27146 0.910109,-2.478579 0.861036,-3.019782 l -0.04633,-0.510924 0.404354,-0.03393 c 0.222392,-0.01869 0.417639,-0.002 0.433877,0.03701 0.101382,0.243636 0.321713,0.343673 0.643566,0.292208 0.57668,-0.09222 0.976784,-0.325276 1.007037,-0.586605 0.02319,-0.200384 0.119319,-0.268685 0.717505,-0.509811 l 0.69072,-0.278426 0.251237,0.268949 c 0.237372,0.25411 0.592138,0.446839 0.821184,0.446117 0.05671,-1.96e-4 -0.01745,-0.07387 -0.164911,-0.163763 -0.276271,-0.168472 -0.497616,-0.546716 -0.597339,-1.02076 -0.04814,-0.228837 0.06033,-0.498032 0.695012,-1.724882 0.712122,-1.376539 0.74354,-1.460253 0.591725,-1.576658 -0.08818,-0.06761 -0.450391,-0.325922 -0.804914,-0.574022 l -0.644586,-0.45109 0.05882,0.515036 c 0.03237,0.283271 0.140626,0.844774 0.240603,1.247784 l 0.181782,0.732748 -0.379178,0.762248 -0.379178,0.762248 -0.628896,0.267119 c -0.746458,0.317049 -0.779727,0.319957 -0.970142,0.0848 l -0.147625,-0.182309 -0.692993,0.210209 c -0.613984,0.186242 -0.696033,0.235751 -0.719646,0.434219 -0.02302,0.193237 -0.08086,0.232136 -0.42131,0.283189 -0.217062,0.03254 -0.411771,0.04207 -0.432686,0.02116 -0.02092,-0.02093 -0.194452,-0.421009 -0.385635,-0.889084 -0.191184,-0.468076 -0.503452,-1.148957 -0.693928,-1.513068 -0.405031,-0.77425 -2.397666,-3.208845 -4.483774,-5.478264 -2.299292,-2.501333 -2.620531,-2.939118 -2.526091,-3.442537 0.08713,-0.4644 0.431705,-0.747436 0.911029,-0.748306 0.399719,-7.01e-4 0.405451,0.0035 1.314442,0.97895 3.513826,3.770572 4.031598,4.178738 5.300862,4.178738 0.889154,0 1.580979,-0.304059 2.249644,-0.988716 l 0.457828,-0.468779 0.689278,-0.0313 c 0.474231,-0.02154 0.820634,0.01234 1.110306,0.10854 0.737927,0.245097 3.935732,2.845417 4.252474,3.457928 0.214427,0.414653 0.153675,0.878983 -0.205573,1.571252 -0.410066,0.790193 -1.701437,2.820565 -1.985655,3.121967 l -0.21117,0.223935 0.173488,0.428698 c 0.20893,0.516286 2.18034,5.592316 2.839787,7.311954 0.577296,1.505401 0.602694,1.834343 0.174704,2.262328 -0.248121,0.248148 -0.358554,0.29584 -0.684408,0.29584 -0.259648,0 -0.463606,-0.05903 -0.614798,-0.17795 -0.145677,-0.114588 -0.849597,-1.412936 -1.976675,-3.645896 -0.962735,-1.907361 -1.827102,-3.550231 -1.920814,-3.65082 -0.09371,-0.100589 -0.222993,-0.182888 -0.287287,-0.182888 -0.06429,0 -0.471324,0.628644 -0.904507,1.396985 l -0.787605,1.396985 0.848142,1.409343 c 1.234586,2.051493 1.489758,2.529812 1.489758,2.79256 0,0.262992 -0.183081,0.662698 -0.37741,0.823981 -0.168982,0.140257 -0.57994,0.247564 -0.797332,0.20829 z m 8.950826,-5.591809 c -0.935855,-0.137039 -2.153075,-0.628406 -3.389946,-1.368452 l -0.548584,-0.32823 -0.615889,-1.599537 -0.615887,-1.599538 0.686216,-1.05451 c 1.368641,-2.103193 1.683936,-2.744383 1.695251,-3.447504 0.01631,-1.013622 -0.604393,-1.750662 -3.008682,-3.572568 -0.754394,-0.57166 -1.327389,-1.039382 -1.273321,-1.039382 0.08552,0 5.39062,1.773001 13.629432,4.555049 3.723929,1.257479 4.714889,1.716169 5.031856,2.329115 0.354853,0.6862 -0.01,0.959808 -2.589886,1.941747 l -0.8445,0.321435 0.394954,0.378428 c 0.335835,0.321792 0.381211,0.404095 0.303193,0.549921 -0.194031,0.36255 -1.188558,0.594487 -3.806935,0.887832 -2.162991,0.242328 -3.141482,0.504866 -3.664696,0.983278 -0.268695,0.245684 -0.247907,0.61402 0.06683,1.185051 0.142697,0.258909 0.259486,0.543777 0.259486,0.633034 0,0.308577 -0.643728,0.400804 -1.708877,0.244829 z M 23.148121,21.537567 c -1.446127,-0.291982 -2.238403,-1.907298 -1.574129,-3.209386 0.396732,-0.777654 1.416645,-1.316074 2.254886,-1.190375 1.112368,0.166811 1.923537,1.059736 1.927871,2.122175 0.0028,0.677153 -0.154187,1.102554 -0.58256,1.579011 -0.513828,0.5715 -1.304765,0.84421 -2.026068,0.698575 z"
       id="path1-4" />
    <rect
       x="37.737823"
       y="37.757782"
       width="22.610399"
       height="22.610399"
       rx="4.7267799"
       ry="4.6148596"
       fill="url(#linearGradient862)"
       stroke-width="3.0541"
       id="rect35-7-3-1"
       style="fill:#414141;fill-opacity:1;stroke:#dfdfdf;stroke-width:0.978336;stroke-dasharray:none;stroke-opacity:1" />
    <path
       id="path1"
       style="fill:#dfdfdf;fill-opacity:1;stroke:none;stroke-width:0.224244;stroke-dasharray:none;stroke-dashoffset:2.2;stroke-opacity:0.6"
       d="m 53.054544,43.299438 c -0.231167,-9.7e-5 -0.478613,0.09299 -0.788298,0.274436 -0.736938,0.431788 -1.700715,0.635422 -3.024237,0.635422 -1.323397,0 -2.319324,-0.207971 -3.051873,-0.637265 -0.587409,-0.344229 -0.938101,-0.348791 -1.431082,-0.01642 -1.265645,0.852917 -2.219508,3.587517 -2.499329,7.160943 -0.167795,2.14283 -0.01103,3.27254 0.543328,3.908309 0.267381,0.306528 0.923785,0.254559 1.515809,-0.12156 0.501846,-0.318836 1.099794,-1.022374 1.814177,-2.134665 0.645548,-1.005122 1.426374,-1.336165 3.153173,-1.338993 1.723362,-0.0026 2.400625,0.323379 3.195531,1.545274 1.333668,2.050042 2.566393,2.763747 3.289465,1.90442 0.40058,-0.476052 0.473899,-0.936006 0.454923,-2.851106 -0.03457,-3.478896 -0.94394,-6.643709 -2.254366,-7.851617 -0.349004,-0.321703 -0.619985,-0.476908 -0.917221,-0.477033 z m -7.486939,2.049926 h 0.799346 0.79934 v 0.685152 0.685155 h 0.685156 0.685148 v 0.856441 0.856435 h -0.685148 -0.685156 v 0.742248 0.742251 h -0.723826 c -0.397652,0 -0.755645,-0.03568 -0.797503,-0.07735 -0.04185,-0.04185 -0.07732,-0.374141 -0.07732,-0.740403 v -0.666745 h -0.685161 -0.685156 v -0.856437 -0.856439 h 0.685156 0.685149 v -0.685157 z m 6.516311,0 c 0.721112,0 1.029934,0.798977 0.510182,1.318734 -0.330544,0.330508 -0.632217,0.356486 -0.957741,0.08106 -0.56463,-0.477772 -0.269928,-1.399771 0.447559,-1.399771 z m -1.386879,1.464237 c 0.180072,1.21e-4 0.361362,0.07187 0.50465,0.230203 0.223372,0.246825 0.247504,0.811915 0.04607,1.075615 -0.394228,0.516094 -1.340833,0.18413 -1.340833,-0.469659 0,-0.496196 0.39399,-0.836453 0.790134,-0.836178 z m 2.830855,0.02772 c 0.207551,0.0039 0.409039,0.07252 0.526752,0.202589 0.223372,0.246826 0.247471,0.811914 0.04604,1.075617 -0.419316,0.548931 -1.340835,0.181519 -1.340835,-0.534125 0,-0.216927 0.08692,-0.452038 0.2081,-0.56175 0.138541,-0.125395 0.35239,-0.186127 0.559914,-0.182325 z m -1.394247,1.477124 c 0.639304,0 0.95037,0.678118 0.563588,1.230325 -0.132224,0.188768 -0.293477,0.254171 -0.626215,0.254171 -0.383084,0 -0.471983,-0.04986 -0.626209,-0.348115 -0.30411,-0.588069 0.02772,-1.136394 0.688836,-1.136394 z" />
  </g>
</svg>
