<?xml version="1.0" encoding="UTF-8" standalone="no"?>
<svg
   width="64"
   height="64"
   version="1.1"
   id="svg73"
   sodipodi:docname="steam_icon_368260.svg"
   inkscape:version="1.4.2 (ebf0e940d0, 2025-05-08)"
   xmlns:inkscape="http://www.inkscape.org/namespaces/inkscape"
   xmlns:sodipodi="http://sodipodi.sourceforge.net/DTD/sodipodi-0.dtd"
   xmlns="http://www.w3.org/2000/svg"
   xmlns:svg="http://www.w3.org/2000/svg"
   xmlns:rdf="http://www.w3.org/1999/02/22-rdf-syntax-ns#"
   xmlns:cc="http://creativecommons.org/ns#"
   xmlns:dc="http://purl.org/dc/elements/1.1/">
  <metadata
     id="metadata77">
    <rdf:RDF>
      <cc:Work
         rdf:about="">
        <dc:format>image/svg+xml</dc:format>
        <dc:type
           rdf:resource="http://purl.org/dc/dcmitype/StillImage" />
      </cc:Work>
    </rdf:RDF>
  </metadata>
  <sodipodi:namedview
     pagecolor="#f5f7fa"
     bordercolor="#666666"
     borderopacity="1"
     objecttolerance="10"
     gridtolerance="10"
     guidetolerance="10"
     inkscape:pageopacity="0"
     inkscape:pageshadow="2"
     inkscape:window-width="1377"
     inkscape:window-height="886"
     id="namedview75"
     showgrid="false"
     inkscape:zoom="6.2890624"
     inkscape:cx="47.622361"
     inkscape:cy="45.396274"
     inkscape:window-x="147"
     inkscape:window-y="75"
     inkscape:window-maximized="0"
     inkscape:current-layer="g877"
     inkscape:document-rotation="0"
     inkscape:pagecheckerboard="0"
     inkscape:showpageshadow="2"
     inkscape:deskcolor="#d1d1d1" />
  <defs
     id="defs29" />
  <circle
     cx="32.516094"
     cy="31.877844"
     r="0"
     fill="url(#b)"
     stroke-width="1.5715"
     id="circle41"
     style="fill:url(#b)" />
  <g
     aria-label="GZ"
     transform="matrix(1.2212657,0,0,0.81882264,0.4960938,-0.1661539)"
     id="text93"
     style="font-weight:bold;font-size:11.5263px;line-height:1.25;font-family:sans-serif;-inkscape-font-specification:'sans-serif Bold';fill:#f2f2f2;stroke-width:0.288159" />
  <g
     id="g877"
     transform="matrix(1.1,0,0,1.1,-3.1845928,-3.2065454)">
    <rect
       x="8.3496294"
       y="8.369586"
       width="47.272728"
       height="47.272728"
       rx="9.8825235"
       ry="9.6485243"
       fill="url(#linearGradient862)"
       stroke-width="3.0541"
       id="rect35-7-3"
       style="fill:#414141;fill-opacity:1;stroke:#dfdfdf;stroke-width:2.04545;stroke-dasharray:none;stroke-opacity:1" />
    <path
       style="fill:#dfdfdf;stroke:none;stroke-width:0.482482;stroke-dasharray:none;stroke-opacity:0.6;fill-opacity:1"
       d="m 17.175743,47.092462 c 0.03701,-0.03461 1.678993,-1.03036 3.648851,-2.212384 l 3.581544,-2.149133 -3.817085,-0.03315 -3.817094,-0.03315 3.903216,-2.347732 c 2.146761,-1.291255 3.933502,-2.365037 3.970512,-2.386173 0.037,-0.02161 -0.265838,0.335763 -0.672972,0.793092 -2.234667,2.510192 -2.724763,3.070559 -2.725123,3.115827 -2.12e-4,0.02772 1.577576,0.05774 3.506213,0.06734 l 3.506602,0.01767 -5.498709,2.590923 c -5.659376,2.666126 -5.700094,2.684922 -5.585955,2.577654 z m 18.359188,0.0024 c 0.01919,-0.03046 1.46044,-1.024591 3.202639,-2.209004 l 3.167652,-2.153508 -3.380625,-0.03353 -3.38061,-0.03353 3.465779,-2.360674 c 1.906173,-1.298716 3.475039,-2.354428 3.486366,-2.346372 0.01134,0.0083 -0.662491,0.881319 -1.497357,1.940557 -0.834866,1.059237 -1.517928,1.940815 -1.517928,1.959056 0,0.01855 1.415747,0.03353 3.146128,0.03353 l 3.146116,0.0016 -4.239705,2.257422 c -2.331822,1.241571 -4.55328,2.424664 -4.936562,2.629114 -0.383295,0.204419 -0.681137,0.346705 -0.661891,0.316192 z m -8.279276,-1.918736 c 0.399114,-0.381766 2.115177,-2.011426 3.813471,-3.621505 1.698295,-1.610076 3.090326,-2.949882 3.093427,-2.977339 0.0024,-0.028 -1.783009,-0.05774 -3.969105,-0.06726 l -3.974742,-0.01735 1.736529,-1.648774 c 4.537263,-4.308024 5.941548,-5.669394 5.906515,-5.726076 -0.05331,-0.08625 -0.681505,-0.07684 -0.85887,0.01285 -0.08087,0.04085 -1.517528,1.44149 -3.192612,3.112476 l -3.045619,3.038054 -1.025835,-0.0024 c -0.979328,-0.0024 -1.054818,-0.01256 -1.665152,-0.222168 -2.197184,-0.755113 -3.672856,-2.622344 -3.871472,-4.899199 l -0.04693,-0.538059 -0.468298,-0.159427 c -1.25087,-0.425872 -2.322419,-1.512318 -2.799201,-2.838124 -0.160946,-0.447594 -0.177518,-0.584596 -0.177518,-1.469418 0,-0.884827 0.01653,-1.021823 0.177521,-1.46942 0.651363,-1.811286 2.222814,-2.986724 4.143952,-3.099668 l 0.693055,-0.04075 0.154046,-0.437431 c 0.653149,-1.854615 2.118255,-3.474523 3.895954,-4.30758 3.398503,-1.592596 7.406837,-0.504123 9.501996,2.580288 0.238588,0.351229 0.454515,0.598351 0.536924,0.614456 0.0758,0.0148 0.329747,0.06132 0.56429,0.103351 0.95595,0.171299 2.124762,0.67616 2.918999,1.260846 l 0.399053,0.29378 0.370538,-0.245935 c 0.772301,-0.512625 1.669338,-0.745006 2.64195,-0.684404 1.716259,0.106943 3.146688,1.195588 3.756518,2.858942 0.334242,0.91178 0.272039,2.257872 -0.145901,3.158285 -0.141606,0.304988 -0.149492,0.35969 -0.06238,0.431939 0.172905,0.143542 0.61585,0.951622 0.761291,1.388978 0.223874,0.673301 0.294723,1.362577 0.207433,2.018398 -0.147088,1.10567 -0.549686,1.909494 -1.363859,2.723401 -0.421051,0.420915 -0.640458,0.578452 -1.144033,0.821369 -0.667111,0.321803 -1.419938,0.510562 -2.036302,0.510562 -0.878347,0 -1.999682,-0.375682 -2.737133,-0.91703 l -0.329452,-0.241857 -0.45196,0.301921 c -1.193357,0.797149 -2.445014,1.221091 -3.850517,1.304153 -0.928033,0.05486 -2.489983,-0.147871 -2.489983,-0.323164 0,-0.034 0.393693,-0.79694 0.874862,-1.695359 0.727094,-1.357595 0.874867,-1.681672 0.874867,-1.918737 0,-0.31245 -0.113019,-0.581056 -0.32533,-0.773184 -0.135496,-0.122613 -0.139986,-0.119278 -0.360198,0.268549 -0.122644,0.215995 -0.878291,1.558997 -1.679223,2.984448 l -1.456228,2.591722 3.687004,0.03364 3.687014,0.03366 -5.689863,4.239693 c -3.12943,2.331831 -5.738309,4.264349 -5.797514,4.294472 -0.05917,0.03014 0.218908,-0.257486 0.618023,-0.639316 z"
       id="path1-3-5-9" />
    <rect
       x="37.737823"
       y="37.757782"
       width="22.610399"
       height="22.610399"
       rx="4.7267799"
       ry="4.6148596"
       fill="url(#linearGradient862)"
       stroke-width="3.0541"
       id="rect35-7-3-1"
       style="fill:#414141;fill-opacity:1;stroke:#dfdfdf;stroke-width:0.978336;stroke-dasharray:none;stroke-opacity:1" />
    <path
       id="path1"
       style="fill:#dfdfdf;fill-opacity:1;stroke:none;stroke-width:0.224244;stroke-dasharray:none;stroke-dashoffset:2.2;stroke-opacity:0.6"
       d="m 53.054544,43.299438 c -0.231167,-9.7e-5 -0.478613,0.09299 -0.788298,0.274436 -0.736938,0.431788 -1.700715,0.635422 -3.024237,0.635422 -1.323397,0 -2.319324,-0.207971 -3.051873,-0.637265 -0.587409,-0.344229 -0.938101,-0.348791 -1.431082,-0.01642 -1.265645,0.852917 -2.219508,3.587517 -2.499329,7.160943 -0.167795,2.14283 -0.01103,3.27254 0.543328,3.908309 0.267381,0.306528 0.923785,0.254559 1.515809,-0.12156 0.501846,-0.318836 1.099794,-1.022374 1.814177,-2.134665 0.645548,-1.005122 1.426374,-1.336165 3.153173,-1.338993 1.723362,-0.0026 2.400625,0.323379 3.195531,1.545274 1.333668,2.050042 2.566393,2.763747 3.289465,1.90442 0.40058,-0.476052 0.473899,-0.936006 0.454923,-2.851106 -0.03457,-3.478896 -0.94394,-6.643709 -2.254366,-7.851617 -0.349004,-0.321703 -0.619985,-0.476908 -0.917221,-0.477033 z m -7.486939,2.049926 h 0.799346 0.79934 v 0.685152 0.685155 h 0.685156 0.685148 v 0.856441 0.856435 h -0.685148 -0.685156 v 0.742248 0.742251 h -0.723826 c -0.397652,0 -0.755645,-0.03568 -0.797503,-0.07735 -0.04185,-0.04185 -0.07732,-0.374141 -0.07732,-0.740403 v -0.666745 h -0.685161 -0.685156 v -0.856437 -0.856439 h 0.685156 0.685149 v -0.685157 z m 6.516311,0 c 0.721112,0 1.029934,0.798977 0.510182,1.318734 -0.330544,0.330508 -0.632217,0.356486 -0.957741,0.08106 -0.56463,-0.477772 -0.269928,-1.399771 0.447559,-1.399771 z m -1.386879,1.464237 c 0.180072,1.21e-4 0.361362,0.07187 0.50465,0.230203 0.223372,0.246825 0.247504,0.811915 0.04607,1.075615 -0.394228,0.516094 -1.340833,0.18413 -1.340833,-0.469659 0,-0.496196 0.39399,-0.836453 0.790134,-0.836178 z m 2.830855,0.02772 c 0.207551,0.0039 0.409039,0.07252 0.526752,0.202589 0.223372,0.246826 0.247471,0.811914 0.04604,1.075617 -0.419316,0.548931 -1.340835,0.181519 -1.340835,-0.534125 0,-0.216927 0.08692,-0.452038 0.2081,-0.56175 0.138541,-0.125395 0.35239,-0.186127 0.559914,-0.182325 z m -1.394247,1.477124 c 0.639304,0 0.95037,0.678118 0.563588,1.230325 -0.132224,0.188768 -0.293477,0.254171 -0.626215,0.254171 -0.383084,0 -0.471983,-0.04986 -0.626209,-0.348115 -0.30411,-0.588069 0.02772,-1.136394 0.688836,-1.136394 z" />
  </g>
</svg>
