<?xml version="1.0" encoding="UTF-8" standalone="no"?>
<svg
   width="64"
   height="64"
   version="1.1"
   id="svg73"
   sodipodi:docname="steam_icon_1639080.svg"
   inkscape:version="1.4.2 (ebf0e940d0, 2025-05-08)"
   xmlns:inkscape="http://www.inkscape.org/namespaces/inkscape"
   xmlns:sodipodi="http://sodipodi.sourceforge.net/DTD/sodipodi-0.dtd"
   xmlns="http://www.w3.org/2000/svg"
   xmlns:svg="http://www.w3.org/2000/svg"
   xmlns:rdf="http://www.w3.org/1999/02/22-rdf-syntax-ns#"
   xmlns:cc="http://creativecommons.org/ns#"
   xmlns:dc="http://purl.org/dc/elements/1.1/">
  <metadata
     id="metadata77">
    <rdf:RDF>
      <cc:Work
         rdf:about="">
        <dc:format>image/svg+xml</dc:format>
        <dc:type
           rdf:resource="http://purl.org/dc/dcmitype/StillImage" />
      </cc:Work>
    </rdf:RDF>
  </metadata>
  <sodipodi:namedview
     pagecolor="#f5f7fa"
     bordercolor="#666666"
     borderopacity="1"
     objecttolerance="10"
     gridtolerance="10"
     guidetolerance="10"
     inkscape:pageopacity="0"
     inkscape:pageshadow="2"
     inkscape:window-width="1377"
     inkscape:window-height="886"
     id="namedview75"
     showgrid="false"
     inkscape:zoom="6.2890624"
     inkscape:cx="47.622361"
     inkscape:cy="45.396274"
     inkscape:window-x="147"
     inkscape:window-y="75"
     inkscape:window-maximized="0"
     inkscape:current-layer="g877"
     inkscape:document-rotation="0"
     inkscape:pagecheckerboard="0"
     inkscape:showpageshadow="2"
     inkscape:deskcolor="#d1d1d1" />
  <defs
     id="defs29" />
  <circle
     cx="32.516094"
     cy="31.877844"
     r="0"
     fill="url(#b)"
     stroke-width="1.5715"
     id="circle41"
     style="fill:url(#b)" />
  <g
     aria-label="GZ"
     transform="matrix(1.2212657,0,0,0.81882264,0.4960938,-0.1661539)"
     id="text93"
     style="font-weight:bold;font-size:11.5263px;line-height:1.25;font-family:sans-serif;-inkscape-font-specification:'sans-serif Bold';fill:#f2f2f2;stroke-width:0.288159" />
  <g
     id="g877"
     transform="matrix(1.1,0,0,1.1,-3.1845928,-3.2065454)">
    <rect
       x="8.3496294"
       y="8.369586"
       width="47.272728"
       height="47.272728"
       rx="9.8825235"
       ry="9.6485243"
       fill="url(#linearGradient862)"
       stroke-width="3.0541"
       id="rect35-7-3"
       style="fill:#414141;fill-opacity:1;stroke:#dfdfdf;stroke-width:2.04545;stroke-dasharray:none;stroke-opacity:1" />
    <path
       fill="#000000"
       d="M 26.521454,22.529771 C 26.402466,21.614266 24.739509,20.6062 23.923394,20.6062 c -0.160592,0 -0.288308,0.0387 -0.364999,0.124806 -1.378946,1.541754 0.899383,5.137828 0.899383,5.137828 0,0 2.260056,-1.819945 2.063676,-3.339063 z m 8.145462,3.826658 c 0,0 2.169581,-3.425936 0.856325,-4.891121 -0.07303,-0.08169 -0.194922,-0.118866 -0.347485,-0.118866 -0.778179,0 -2.361599,0.959952 -2.474771,1.832274 -0.187592,1.440276 1.965931,3.177713 1.965931,3.177713 z M 31.270192,23.1729 c -0.113173,-0.872384 -1.697287,-1.832272 -2.474643,-1.832272 -0.152624,0 -0.274592,0.03717 -0.347551,0.118862 -1.313951,1.468093 0.856325,4.891122 0.856325,4.891122 0,0 2.153459,-1.731556 1.965933,-3.177712 z M 19.475485,19.544014 a 1.0461283,1.0461283 0 0 0 -0.105207,0.0051 c -5.548034,0.565044 0.719063,18.086018 2.563793,19.251136 0,0 -1.073822,-9.587254 0.176714,-15.44193 0.457625,-2.156424 -1.51779,-3.814259 -2.635426,-3.814259 z m 25.125412,0.0051 a 1.0410071,1.041007 0 0 0 -0.105142,-0.0051 c -1.117704,0 -3.096027,1.656378 -2.635365,3.814263 1.250471,5.854676 0.176645,15.44193 0.176645,15.44193 1.847634,-1.164361 8.112582,-18.685332 2.563786,-19.251072 z M 40.047844,20.6062 c -0.816875,0 -2.482103,1.00813 -2.598185,1.923572 -0.196381,1.515515 2.064436,3.339759 2.064436,3.339759 0,0 2.277633,-3.596769 0.899381,-5.137701 -0.07738,-0.0869 -0.205095,-0.125599 -0.365698,-0.125599 z m -9.376333,22.064392 c -0.128472,-0.718877 -1.618445,-2.235215 -1.618445,-2.235215 0,0 -1.298651,1.515514 -1.284742,2.13241 0,0.135722 -0.07303,1.459998 0.128348,1.643859 0.181837,0.16723 0.811815,0.255604 1.430161,0.255604 0.598617,0 1.185476,-0.0825 1.344678,-0.25557 0.146051,-0.156132 0.02117,-1.4373 0,-1.540988 z M 26.875455,41.13105 c -0.762816,-1.308134 -1.211083,-3.225127 -1.460002,-4.661802 -0.19562,-1.13591 -0.264914,-1.970991 -0.264914,-1.970991 -0.956413,0.746693 -2.800383,8.704561 0.160591,8.704561 a 1.8980281,1.8980281 0 0 0 0.313092,-0.02714 c 0.292102,-0.04817 0.661339,-0.271547 0.949014,-0.583945 0.375244,-0.406541 0.597859,-0.959136 0.302217,-1.460703 z M 38.81558,34.496796 c 0,0 -0.0636,0.760602 -0.238802,1.816972 -0.240898,1.451973 -0.694217,3.460962 -1.48485,4.818035 -0.237981,0.408812 -0.135048,0.848294 0.110265,1.216207 0.291978,0.433723 0.778178,0.767238 1.140274,0.827111 a 1.9046034,1.9046034 0 0 0 0.313157,0.02714 c 2.966029,-0.0029 1.117639,-7.960714 0.162076,-8.708292 z m -2.617911,8.073891 c 0.01388,-0.616886 -1.284742,-2.132345 -1.284742,-2.132345 0,0 -1.487822,1.513304 -1.613387,2.232302 -0.01605,0.09133 -0.162049,1.365164 0,1.541819 0.16211,0.176645 0.746818,0.255433 1.344679,0.255433 0.618345,0 1.248322,-0.08827 1.430159,-0.255433 0.277368,-0.258456 0.124047,-1.59872 0.1255,-1.643989 z m -9.087142,0.347503 0.01536,0.0072 v -0.02783 z"
       class="cls-2"
       id="path1-3-0"
       style="fill:#dfdfdf;stroke-width:0.0632255;fill-opacity:1" />
    <rect
       x="37.737823"
       y="37.757782"
       width="22.610399"
       height="22.610399"
       rx="4.7267799"
       ry="4.6148596"
       fill="url(#linearGradient862)"
       stroke-width="3.0541"
       id="rect35-7-3-1"
       style="fill:#414141;fill-opacity:1;stroke:#dfdfdf;stroke-width:0.978336;stroke-dasharray:none;stroke-opacity:1" />
    <path
       id="path1"
       style="fill:#dfdfdf;fill-opacity:1;stroke:none;stroke-width:0.224244;stroke-dasharray:none;stroke-dashoffset:2.2;stroke-opacity:0.6"
       d="m 53.054544,43.299438 c -0.231167,-9.7e-5 -0.478613,0.09299 -0.788298,0.274436 -0.736938,0.431788 -1.700715,0.635422 -3.024237,0.635422 -1.323397,0 -2.319324,-0.207971 -3.051873,-0.637265 -0.587409,-0.344229 -0.938101,-0.348791 -1.431082,-0.01642 -1.265645,0.852917 -2.219508,3.587517 -2.499329,7.160943 -0.167795,2.14283 -0.01103,3.27254 0.543328,3.908309 0.267381,0.306528 0.923785,0.254559 1.515809,-0.12156 0.501846,-0.318836 1.099794,-1.022374 1.814177,-2.134665 0.645548,-1.005122 1.426374,-1.336165 3.153173,-1.338993 1.723362,-0.0026 2.400625,0.323379 3.195531,1.545274 1.333668,2.050042 2.566393,2.763747 3.289465,1.90442 0.40058,-0.476052 0.473899,-0.936006 0.454923,-2.851106 -0.03457,-3.478896 -0.94394,-6.643709 -2.254366,-7.851617 -0.349004,-0.321703 -0.619985,-0.476908 -0.917221,-0.477033 z m -7.486939,2.049926 h 0.799346 0.79934 v 0.685152 0.685155 h 0.685156 0.685148 v 0.856441 0.856435 h -0.685148 -0.685156 v 0.742248 0.742251 h -0.723826 c -0.397652,0 -0.755645,-0.03568 -0.797503,-0.07735 -0.04185,-0.04185 -0.07732,-0.374141 -0.07732,-0.740403 v -0.666745 h -0.685161 -0.685156 v -0.856437 -0.856439 h 0.685156 0.685149 v -0.685157 z m 6.516311,0 c 0.721112,0 1.029934,0.798977 0.510182,1.318734 -0.330544,0.330508 -0.632217,0.356486 -0.957741,0.08106 -0.56463,-0.477772 -0.269928,-1.399771 0.447559,-1.399771 z m -1.386879,1.464237 c 0.180072,1.21e-4 0.361362,0.07187 0.50465,0.230203 0.223372,0.246825 0.247504,0.811915 0.04607,1.075615 -0.394228,0.516094 -1.340833,0.18413 -1.340833,-0.469659 0,-0.496196 0.39399,-0.836453 0.790134,-0.836178 z m 2.830855,0.02772 c 0.207551,0.0039 0.409039,0.07252 0.526752,0.202589 0.223372,0.246826 0.247471,0.811914 0.04604,1.075617 -0.419316,0.548931 -1.340835,0.181519 -1.340835,-0.534125 0,-0.216927 0.08692,-0.452038 0.2081,-0.56175 0.138541,-0.125395 0.35239,-0.186127 0.559914,-0.182325 z m -1.394247,1.477124 c 0.639304,0 0.95037,0.678118 0.563588,1.230325 -0.132224,0.188768 -0.293477,0.254171 -0.626215,0.254171 -0.383084,0 -0.471983,-0.04986 -0.626209,-0.348115 -0.30411,-0.588069 0.02772,-1.136394 0.688836,-1.136394 z" />
  </g>
</svg>
