<?xml version="1.0" encoding="UTF-8" standalone="no"?>
<svg
   width="64"
   height="64"
   version="1.1"
   id="svg73"
   sodipodi:docname="steam_icon_368260.svg"
   inkscape:version="1.4.2 (ebf0e940d0, 2025-05-08)"
   xmlns:inkscape="http://www.inkscape.org/namespaces/inkscape"
   xmlns:sodipodi="http://sodipodi.sourceforge.net/DTD/sodipodi-0.dtd"
   xmlns="http://www.w3.org/2000/svg"
   xmlns:svg="http://www.w3.org/2000/svg"
   xmlns:rdf="http://www.w3.org/1999/02/22-rdf-syntax-ns#"
   xmlns:cc="http://creativecommons.org/ns#"
   xmlns:dc="http://purl.org/dc/elements/1.1/">
  <metadata
     id="metadata77">
    <rdf:RDF>
      <cc:Work
         rdf:about="">
        <dc:format>image/svg+xml</dc:format>
        <dc:type
           rdf:resource="http://purl.org/dc/dcmitype/StillImage" />
      </cc:Work>
    </rdf:RDF>
  </metadata>
  <sodipodi:namedview
     pagecolor="#f5f7fa"
     bordercolor="#666666"
     borderopacity="1"
     objecttolerance="10"
     gridtolerance="10"
     guidetolerance="10"
     inkscape:pageopacity="0"
     inkscape:pageshadow="2"
     inkscape:window-width="1377"
     inkscape:window-height="886"
     id="namedview75"
     showgrid="false"
     inkscape:zoom="6.2890624"
     inkscape:cx="47.622361"
     inkscape:cy="45.396274"
     inkscape:window-x="147"
     inkscape:window-y="75"
     inkscape:window-maximized="0"
     inkscape:current-layer="g877"
     inkscape:document-rotation="0"
     inkscape:pagecheckerboard="0"
     inkscape:showpageshadow="2"
     inkscape:deskcolor="#d1d1d1" />
  <defs
     id="defs29" />
  <circle
     cx="32.516094"
     cy="31.877844"
     r="0"
     fill="url(#b)"
     stroke-width="1.5715"
     id="circle41"
     style="fill:url(#b)" />
  <g
     aria-label="GZ"
     transform="matrix(1.2212657,0,0,0.81882264,0.4960938,-0.1661539)"
     id="text93"
     style="font-weight:bold;font-size:11.5263px;line-height:1.25;font-family:sans-serif;-inkscape-font-specification:'sans-serif Bold';fill:#f2f2f2;stroke-width:0.288159" />
  <g
     id="g877"
     transform="matrix(1.1,0,0,1.1,-3.1845928,-3.2065454)">
    <rect
       x="8.3496294"
       y="8.369586"
       width="47.272728"
       height="47.272728"
       rx="9.8825235"
       ry="9.6485243"
       fill="url(#linearGradient862)"
       stroke-width="3.0541"
       id="rect35-7-3"
       style="fill:#414141;fill-opacity:1;stroke:#dfdfdf;stroke-width:2.04545;stroke-dasharray:none;stroke-opacity:1" />
    <path
       d="m 40.224166,18.243611 c -0.173718,-0.0051 -0.347806,0.01795 -0.50967,0.06839 -0.315519,0.09997 -0.64213,0.29622 -0.800914,0.586486 -0.322126,0.588955 -0.35169,1.378794 -0.125759,2.010876 0.619847,1.734112 2.41237,2.804165 3.761868,4.045988 0.460134,0.4234 4.79793,3.492728 2.57925,6.850588 -0.08395,0.127229 -0.180329,0.24526 -0.28904,0.354995 0.295298,0.424163 0.575059,0.857975 0.798716,1.32074 0.103719,-0.08014 0.203527,-0.161296 0.300079,-0.242466 1.628694,-1.37022 1.522621,-4.086494 0.856065,-5.454883 -0.591701,-1.214719 -1.50895,-2.261345 -2.460119,-3.221345 -0.858365,-0.866371 -3.794441,-2.547793 -4.13253,-3.600604 -0.160239,-0.498861 -0.301671,-1.292165 0.145606,-1.565483 0.238991,-0.14602 0.863939,0.02543 1.171575,0.434364 0.177692,0.236584 0.468645,0.588292 0.428041,-0.0077 -0.04374,-0.640321 -0.76231,-1.352234 -1.213508,-1.49491 -0.161859,-0.05115 -0.335914,-0.08142 -0.509667,-0.08602 z m -1.26866,8.508694 c -0.05445,0.0024 -0.07549,0.07455 -0.06838,0.24704 0.05936,1.436038 -1.016794,1.846568 -1.176007,1.70216 -0.180505,-0.163865 -0.244558,-0.06692 -0.220636,0.129994 0.03157,0.260943 0.05557,0.307517 0.289038,0.716594 0.03906,0.06839 0.06128,0.221856 -0.04854,0.05295 -0.654348,-1.007492 -0.32623,-1.820281 -0.108101,-2.372473 0.124686,-0.315658 -0.02116,-0.345832 -0.189756,-0.14322 -0.819344,0.98755 -1.628851,1.739685 -2.336577,3.071387 -0.100307,0.188797 -0.103037,0.318018 0.163277,0.08602 0.657211,-0.572519 1.16814,-0.116264 0.955389,0.343979 -0.563712,1.219296 -1.555264,1.511194 -1.910722,1.66468 -1.330536,0.57448 -1.476913,0.531358 -2.060753,2.897218 -0.363432,1.472763 0.121383,5.072751 0.56704,7.033632 0.04307,0.189553 0.08928,0.371859 0.138984,0.549034 0.388616,-0.371604 0.779767,-0.767067 1.281907,-0.954727 -0.11713,-0.539038 -0.220189,-1.20633 -0.293454,-2.050565 -0.05874,-2.801805 -0.01873,-5.515464 3.830264,-4.923535 3.000953,0.416357 4.902421,0.151386 6.237416,-0.381425 -0.189944,-0.483218 -0.421249,-0.947786 -0.686143,-1.395684 -1.801478,0.580654 -4.211072,0.36188 -5.114375,-0.134594 -1.620142,-0.890315 -0.361147,-1.523232 -0.04414,-1.512577 0.770825,0.02603 1.102045,0.639027 1.156148,0.77171 0.15867,0.38931 0.253664,0.26416 0.461139,0.0618 1.45059,-1.415486 0.952298,-4.082625 -0.63324,-5.35347 -0.0853,-0.06839 -0.147361,-0.107869 -0.189752,-0.105852 z m 2.768998,8.989333 c -0.606764,0.02054 -1.303194,0.228483 -1.835705,0.862131 -0.886102,1.054256 -1.238829,2.35476 -1.396636,3.523414 0.445115,0.166703 0.905022,0.278688 1.376787,0.332932 0.158289,-1.665722 0.591716,-2.684211 1.180401,-3.219149 0.597281,-0.542758 1.205224,-0.403054 1.330443,-0.339546 0.204485,0.103583 0.335461,0.525928 0.346406,0.811391 0.02967,0.781877 0.583837,0.448453 0.686186,-0.132314 0.05169,-0.293382 0.124949,-1.374042 -0.55601,-1.655856 -0.241802,-0.09996 -0.659939,-0.198706 -1.131872,-0.182929 z m -3.382373,6.343493 c -0.01683,0.305058 -0.03608,0.564326 -0.07278,0.756288 -0.308374,1.610793 -1.118952,3.361531 -3.17718,1.115681 -0.08493,-0.135819 -0.19029,-0.299537 -0.302272,-0.518156 -0.498912,0.151392 -0.939974,0.473041 -1.235568,0.901815 0.306159,0.627109 0.635116,1.091426 0.922264,1.367013 1.405746,1.349178 3.053609,1.030417 3.854529,0.392471 0.607644,-0.483991 1.213421,-1.275003 1.423117,-3.770361 -0.47923,-0.03093 -0.951951,-0.111492 -1.412082,-0.244762 z m 4.790032,-20.635595 c -0.515605,0.01532 -1.09529,0.209883 -1.687867,0.725398 0.356778,0.3097 0.749426,0.581956 1.136278,0.857719 0.323773,-0.212942 0.709969,-0.312606 1.147312,-0.264608 1.220789,0.134094 1.647541,0.916439 1.83129,1.759504 0.101409,0.465206 0.45995,0.816606 0.458926,-0.05064 -8.12e-4,-0.661054 -0.01855,-1.421637 -1.134072,-2.387893 -0.291818,-0.252894 -0.896672,-0.629153 -1.65037,-0.63943 -0.0337,-5.07e-4 -0.06707,-0.001 -0.101451,0 z m -2.678531,1.911624 c -0.0372,0.058 -0.07549,0.113262 -0.112533,0.174285 -0.3672,0.605977 -0.666831,2.915659 0.383917,5.066866 0.489243,1.001623 1.221489,2.195177 2.184304,3.538836 2.411676,3.365597 2.224421,6.735658 -0.286863,7.986124 0.216895,0.463494 0.368078,0.959967 0.417004,1.468446 1.538981,-0.685373 2.343783,-1.73854 2.733723,-2.870756 1.027006,-2.981958 -0.296688,-5.373243 -0.679559,-5.931177 L 42.607052,29.17106 c -1.127362,-1.642857 -1.35562,-3.506804 -0.950938,-4.80004 -0.404321,-0.333106 -0.81218,-0.662122 -1.202482,-1.00986 z m -5.707887,12.909672 c -0.303566,0.01008 -0.308234,0.121913 -0.388323,0.288847 -0.262846,0.54807 -0.290432,1.137124 -0.311097,1.706578 -0.02038,0.560797 0.139158,0.763546 0.319923,0.851089 0.282449,0.136865 1.336506,1.166511 2.160039,1.854323 1.440464,1.203047 3.277747,1.344679 4.617933,1.166391 0.06838,-0.529875 -0.107637,-1.062255 -0.379488,-1.525808 -0.04917,0.0055 -0.09771,0.0075 -0.147767,0.01008 -2.251723,0.132516 -5.170836,-1.544528 -4.851858,-3.836785 0.04205,-0.301953 -0.201452,-0.31739 -0.271379,-0.370403 -0.174863,-0.132377 -0.396719,-0.132377 -0.597924,-0.143036 -0.05664,-0.0024 -0.106666,-0.0024 -0.150048,-0.002 z M 20.651442,21.449536 c -0.753692,0.01008 -1.35858,0.386589 -1.650375,0.639431 -1.115229,0.966255 -1.131082,1.726836 -1.131866,2.387891 -0.001,0.867314 0.35533,0.515909 0.45672,0.05063 0.183715,-0.843067 0.612711,-1.625529 1.833502,-1.759505 2.259142,-0.248058 3.154055,3.43686 1.11863,6.402996 l -2.014425,2.934716 c 0.349467,0.334461 0.786949,0.573229 1.244397,0.740843 0.143426,-0.234832 0.298996,-0.470068 0.467752,-0.705554 0.962817,-1.343662 1.69506,-2.537213 2.184309,-3.538834 1.050739,-2.151208 0.751117,-4.460892 0.383909,-5.066866 C 22.550358,21.895533 21.50562,21.437811 20.651442,21.44946 Z M 18.32151,33.664645 c -0.469347,1.070619 -0.949274,2.912543 -0.209614,5.060229 0.461701,1.34056 1.505599,2.570799 3.66037,3.21033 0.575019,0.170732 1.395336,0.302027 2.290215,0.255752 -0.03609,-0.526874 -0.04815,-1.05657 -0.08827,-1.583121 -0.239328,0.02319 -0.476439,0.02902 -0.706036,0.01507 -3.480886,-0.204933 -4.756108,-2.934045 -3.563291,-6.142666 -0.49146,-0.218036 -0.953185,-0.49426 -1.383396,-0.815818 z m 10.817844,2.606187 c -0.04339,-0.0015 -0.09341,-8.11e-4 -0.15006,0.002 -0.201222,0.01008 -0.423073,0.01008 -0.597929,0.143211 -0.06993,0.05295 -0.31341,0.06842 -0.271382,0.370408 0.211309,1.518367 -0.998129,2.766364 -2.493205,3.397729 0.07036,0.558192 0.106458,1.119899 0.134593,1.682346 0.55521,-0.192626 1.100211,-0.479916 1.597414,-0.895169 0.823539,-0.687822 1.877589,-1.71751 2.160038,-1.854336 0.180808,-0.08749 0.340275,-0.29029 0.319922,-0.851073 -0.02064,-0.569466 -0.04825,-1.158526 -0.311094,-1.706589 -0.08011,-0.166903 -0.08469,-0.279583 -0.388317,-0.288849 z m 7.093487,-1.353805 c -0.485307,0.01008 -0.958773,0.157474 -1.396636,0.707761 -0.119094,0.149827 -0.342207,0.36886 0.06619,0.416744 1.02872,0.120621 1.329545,0.32104 1.749651,0.628379 0.716815,0.524382 1.459799,1.029278 2.142392,1.578695 0.191176,-0.521326 0.450993,-1.017339 0.776643,-1.466238 -0.333881,-0.289416 -0.78018,-0.661896 -1.47827,-1.241363 -0.03061,-0.02546 -0.06223,-0.15978 -0.05512,-0.238128 0.01767,-0.198448 -0.07284,-0.275524 -0.337597,-0.273391 -0.485808,0.005 -0.981942,-0.122885 -1.46725,-0.112452 z m 4.487758,2.95234 c -0.302347,0.509065 -0.465495,1.082709 -0.580268,1.662509 0.02871,0.03404 0.05798,0.06896 0.08603,0.103572 0.787302,0.974056 1.787801,2.348833 0.335352,3.781385 -0.266306,0.262682 -0.577636,0.370693 -0.897997,0.379235 -3.7e-5,1.56e-4 -0.002,-1.23e-4 -0.002,0 -0.113437,0.487696 -0.268859,0.962772 -0.492026,1.406732 1.11417,0.292011 2.179901,0.138923 2.974192,-1.016461 1.106588,-1.60959 1.255514,-3.607996 -1.175996,-6.067868 -0.09975,-0.101 -0.164294,-0.165601 -0.24711,-0.249053 z M 34.96859,41.78746 c -1.034802,0.0025 -1.554687,0.736751 -2.047513,1.166399 -0.706648,0.616061 -0.879485,1.885989 -0.511884,2.906053 0.123986,0.344017 0.395088,1.259833 1.226749,1.37144 0.697485,0.09367 1.045184,0.03639 0.467748,-0.350543 -0.389201,-0.260711 -0.577584,-0.574502 -0.750169,-0.835684 -0.518691,-0.784909 -0.02339,-1.856644 0.52512,-2.275447 1.680448,-1.282522 2.482768,0.10659 3.512542,0.676933 0.03031,0.01767 0.06035,0.03193 0.09049,0.04854 0.290896,-0.377652 0.463113,-0.829252 0.569227,-1.298676 -0.02695,-0.0203 -0.05396,-0.03819 -0.07942,-0.0573 -1.345465,-1.013919 -2.294865,-1.353663 -3.002889,-1.351575 z m -7.263376,-6.870433 c -0.485308,-0.01008 -0.983643,0.116253 -1.469448,0.112462 -0.264689,-0.002 -0.355511,0.07505 -0.337574,0.273393 0.0071,0.07837 -0.02444,0.212706 -0.05514,0.23813 -1.903136,1.57971 -1.952375,1.644237 -2.8749,2.57751 -0.682275,0.690235 -1.162077,1.343209 -1.47386,1.962359 0.506728,0.220084 1.051858,0.338372 1.604031,0.390279 0.186832,-0.301771 0.406263,-0.582139 0.611164,-0.83567 0.949683,-1.17495 2.30452,-2.036673 3.574321,-2.965574 0.420112,-0.307338 0.720932,-0.507821 1.749651,-0.628391 0.408397,-0.04781 0.185299,-0.267017 0.06621,-0.41674 -0.437859,-0.550332 -0.909121,-0.697261 -1.394425,-0.707772 z m 1.237772,6.872642 c -0.705296,0.0051 -1.648387,0.346968 -2.978604,1.349397 -0.65627,0.494559 -1.81376,1.043717 -2.590279,0.277818 -0.392339,-0.386948 -0.603677,-0.770353 -0.690592,-1.142128 -0.568623,-0.08194 -1.123911,-0.236324 -1.65699,-0.449793 -0.02338,0.8669 0.277788,1.651862 0.765608,2.361431 1.215077,1.767392 3.065592,1.194523 4.752533,0.260215 0.814546,-0.451154 1.486591,-1.411765 2.563802,-1.159787 0.211769,-0.447297 0.355,-0.92102 0.465545,-1.402308 -0.188056,-0.06136 -0.395923,-0.09644 -0.631023,-0.09485 z m 2.144592,1.230349 c -0.142981,0.467872 -0.31695,0.926667 -0.529525,1.367039 0.265639,0.497824 0.367033,1.139391 0.02418,1.658051 -0.172569,0.261204 -0.360963,0.574926 -0.750162,0.835683 -0.577443,0.386842 -0.229741,0.444168 0.467748,0.350545 0.83165,-0.1117 1.102766,-1.027417 1.226743,-1.371444 0.354902,-0.984772 0.207461,-2.20253 -0.439052,-2.839895 z M 23.749188,18.25903 c -0.173741,0.0051 -0.34777,0.03484 -0.509676,0.08602 -0.45119,0.142735 -1.169801,0.854589 -1.213501,1.494907 -0.04064,0.594911 0.248156,0.243222 0.42583,0.0076 0.307637,-0.409478 0.932553,-0.580447 1.171582,-0.434387 0.447286,0.273313 0.305822,1.066622 0.145635,1.565494 -0.115322,0.359096 -0.535822,0.791409 -1.070087,1.23913 0.302747,0.296044 0.563996,0.631922 0.798706,0.985592 0.727663,-0.659386 1.36634,-1.380306 1.687872,-2.279852 0.225925,-0.632075 0.196386,-1.419706 -0.125764,-2.008657 -0.158774,-0.290268 -0.48538,-0.486425 -0.800908,-0.586507 -0.161868,-0.05139 -0.33593,-0.07301 -0.509677,-0.06846 z m -2.391703,4.983061 c -0.706428,0.512626 -1.378761,0.988567 -1.720975,1.333993 -0.951175,0.959996 -1.86842,2.008833 -2.460108,3.223531 -0.666553,1.368411 -0.770423,4.084687 0.858278,5.454909 1.354341,1.139437 3.335731,2.2315 8.167994,1.561084 3.849066,-0.591957 3.891199,2.123892 3.832464,4.925717 -0.247465,2.852419 -0.838442,3.723389 -1.156136,4.231211 -1.18026,1.287837 -1.948812,1.259833 -2.449079,0.698937 -0.477123,0.252882 -0.971964,0.479091 -1.489299,0.63061 0.216792,0.378281 0.459547,0.618583 0.701629,0.811382 0.80092,0.637957 2.448787,0.958931 3.854535,-0.390251 0.554565,-0.532268 1.263216,-1.763904 1.663604,-3.525621 0.44565,-1.960884 0.932675,-5.560873 0.569242,-7.033633 -0.583838,-2.365894 -0.730217,-2.324956 -2.060758,-2.899434 -0.355452,-0.153424 -1.347006,-0.44317 -1.910711,-1.662495 -0.212743,-0.460193 0.29818,-0.916465 0.955356,-0.343946 0.266316,0.232032 0.261388,0.102795 0.1611,-0.08602 -0.707722,-1.331704 -1.515024,-2.086055 -2.33434,-3.073603 -0.168001,-0.202525 -0.316638,-0.172222 -0.191972,0.143222 0.218105,0.552186 0.546239,1.36498 -0.108089,2.372451 -0.109777,0.169219 -0.08764,0.01502 -0.04853,-0.05295 0.233429,-0.409081 0.259602,-0.455636 0.291246,-0.716593 0.02362,-0.196911 -0.04232,-0.291591 -0.222845,-0.127958 -0.15919,0.144515 -1.233164,-0.2683 -1.173788,-1.704348 0.01243,-0.306578 -0.06315,-0.295227 -0.258146,-0.138934 -1.585532,1.270851 -2.083824,3.937989 -0.633228,5.353496 0.207424,0.202529 0.302422,0.327567 0.461129,-0.0618 0.05408,-0.132793 0.385324,-0.747932 1.156143,-0.773911 0.317026,-0.01 1.573807,0.624473 -0.04633,1.514785 -1.288571,0.708069 -5.642551,0.853976 -6.923601,-1.084818 -2.218679,-3.357889 2.119116,-6.427197 2.579253,-6.850623 0.213639,-0.196659 0.438996,-0.388471 0.66853,-0.579871 -0.148277,-0.438544 -0.377669,-0.85464 -0.73252,-1.148773 z m 0.814142,12.512782 c -0.04159,-2.78e-4 -0.08304,8.44e-4 -0.123544,0.0022 -0.388856,0.01242 -0.723778,0.0972 -0.931089,0.18292 -0.680994,0.281852 -0.609907,1.362542 -0.558211,1.655862 0.102344,0.580764 0.658317,0.914202 0.68839,0.132311 0.01091,-0.285472 0.139745,-0.709898 0.344196,-0.813578 0.125186,-0.06365 0.735369,-0.203295 1.332645,0.339554 0.116065,0.105321 0.225737,0.23055 0.328746,0.374808 0.303082,-0.302092 0.612219,-0.59774 0.935504,-0.879742 -0.03494,-0.04451 -0.06917,-0.08857 -0.105885,-0.13231 -0.554689,-0.659949 -1.287244,-0.857608 -1.910714,-0.862112 z m 2.925654,2.709832 c -0.401706,0.332301 -0.778722,0.686023 -1.123047,1.075992 1.42e-4,7.14e-4 -1.38e-4,0.0016 0,0.0021 0.09555,0.511202 0.159039,1.103672 0.183141,1.783752 0.03398,0.95855 0.1145,1.71587 0.229459,2.323929 0.493196,-0.02841 0.964818,-0.255548 1.370162,-0.537988 -0.01935,-0.08623 -0.03868,-0.171979 -0.05518,-0.257954 -0.14907,-0.778515 -0.0047,-2.630123 -0.604549,-4.389942 z m 6.277124,-21.722626 c -0.08987,0.001 -0.180441,0.01516 -0.266981,0.03079 -1.321673,0.235075 -2.577604,0.820722 -3.742012,1.48829 -0.589473,0.337969 -0.747513,0.480799 -1.034789,1.11789 -0.627346,1.391289 -1.146817,3.141277 -1.51136,4.321579 -0.195611,0.633344 -0.05924,0.742518 0.141216,1.007649 2.115022,2.797532 4.808759,5.850247 6.228582,8.279381 0.133358,0.228196 0.307248,0.658359 0.738382,-0.145267 0.0474,-0.111677 0.05739,-0.0786 0.102721,0.0077 0.428122,0.793168 0.601318,0.364982 0.734248,0.137632 1.419823,-2.429125 4.113567,-5.481841 6.228591,-8.279372 0.200426,-0.265139 0.336826,-0.374302 0.141186,-1.007651 -0.364524,-1.180308 -0.884003,-2.930302 -1.51135,-4.321585 -0.287283,-0.637092 -0.445324,-0.779918 -1.034792,-1.117893 -1.164409,-0.667566 -2.420336,-1.253315 -3.742008,-1.488293 -0.173011,-0.03079 -0.365204,-0.05443 -0.527322,0.01308 -0.10205,0.04276 -0.173944,0.155463 -0.280499,0.196153 -0.03548,0.01308 -0.07629,0.02293 -0.113077,0.01308 -0.115657,-0.02979 -0.183266,-0.165112 -0.290402,-0.209881 -0.08108,-0.03381 -0.170508,-0.04529 -0.260361,-0.04401 z"
       id="path339"
       style="fill:#dfdfdf;fill-opacity:1;stroke:none;stroke-width:0.459507;stroke-dasharray:none;stroke-opacity:0.6" />
    <rect
       x="37.737823"
       y="37.757782"
       width="22.610399"
       height="22.610399"
       rx="4.7267799"
       ry="4.6148596"
       fill="url(#linearGradient862)"
       stroke-width="3.0541"
       id="rect35-7-3-1"
       style="fill:#414141;fill-opacity:1;stroke:#dfdfdf;stroke-width:0.978336;stroke-dasharray:none;stroke-opacity:1" />
    <path
       id="path1"
       style="fill:#dfdfdf;fill-opacity:1;stroke:none;stroke-width:0.224244;stroke-dasharray:none;stroke-dashoffset:2.2;stroke-opacity:0.6"
       d="m 53.054544,43.299438 c -0.231167,-9.7e-5 -0.478613,0.09299 -0.788298,0.274436 -0.736938,0.431788 -1.700715,0.635422 -3.024237,0.635422 -1.323397,0 -2.319324,-0.207971 -3.051873,-0.637265 -0.587409,-0.344229 -0.938101,-0.348791 -1.431082,-0.01642 -1.265645,0.852917 -2.219508,3.587517 -2.499329,7.160943 -0.167795,2.14283 -0.01103,3.27254 0.543328,3.908309 0.267381,0.306528 0.923785,0.254559 1.515809,-0.12156 0.501846,-0.318836 1.099794,-1.022374 1.814177,-2.134665 0.645548,-1.005122 1.426374,-1.336165 3.153173,-1.338993 1.723362,-0.0026 2.400625,0.323379 3.195531,1.545274 1.333668,2.050042 2.566393,2.763747 3.289465,1.90442 0.40058,-0.476052 0.473899,-0.936006 0.454923,-2.851106 -0.03457,-3.478896 -0.94394,-6.643709 -2.254366,-7.851617 -0.349004,-0.321703 -0.619985,-0.476908 -0.917221,-0.477033 z m -7.486939,2.049926 h 0.799346 0.79934 v 0.685152 0.685155 h 0.685156 0.685148 v 0.856441 0.856435 h -0.685148 -0.685156 v 0.742248 0.742251 h -0.723826 c -0.397652,0 -0.755645,-0.03568 -0.797503,-0.07735 -0.04185,-0.04185 -0.07732,-0.374141 -0.07732,-0.740403 v -0.666745 h -0.685161 -0.685156 v -0.856437 -0.856439 h 0.685156 0.685149 v -0.685157 z m 6.516311,0 c 0.721112,0 1.029934,0.798977 0.510182,1.318734 -0.330544,0.330508 -0.632217,0.356486 -0.957741,0.08106 -0.56463,-0.477772 -0.269928,-1.399771 0.447559,-1.399771 z m -1.386879,1.464237 c 0.180072,1.21e-4 0.361362,0.07187 0.50465,0.230203 0.223372,0.246825 0.247504,0.811915 0.04607,1.075615 -0.394228,0.516094 -1.340833,0.18413 -1.340833,-0.469659 0,-0.496196 0.39399,-0.836453 0.790134,-0.836178 z m 2.830855,0.02772 c 0.207551,0.0039 0.409039,0.07252 0.526752,0.202589 0.223372,0.246826 0.247471,0.811914 0.04604,1.075617 -0.419316,0.548931 -1.340835,0.181519 -1.340835,-0.534125 0,-0.216927 0.08692,-0.452038 0.2081,-0.56175 0.138541,-0.125395 0.35239,-0.186127 0.559914,-0.182325 z m -1.394247,1.477124 c 0.639304,0 0.95037,0.678118 0.563588,1.230325 -0.132224,0.188768 -0.293477,0.254171 -0.626215,0.254171 -0.383084,0 -0.471983,-0.04986 -0.626209,-0.348115 -0.30411,-0.588069 0.02772,-1.136394 0.688836,-1.136394 z" />
  </g>
</svg>
