<?xml version="1.0" encoding="UTF-8" standalone="no"?>
<svg
   width="64"
   height="64"
   version="1.1"
   id="svg73"
   sodipodi:docname="Logo.svg"
   inkscape:version="1.3.2 (091e20ef0f, 2023-11-25)"
   xmlns:inkscape="http://www.inkscape.org/namespaces/inkscape"
   xmlns:sodipodi="http://sodipodi.sourceforge.net/DTD/sodipodi-0.dtd"
   xmlns="http://www.w3.org/2000/svg"
   xmlns:svg="http://www.w3.org/2000/svg"
   xmlns:rdf="http://www.w3.org/1999/02/22-rdf-syntax-ns#"
   xmlns:cc="http://creativecommons.org/ns#"
   xmlns:dc="http://purl.org/dc/elements/1.1/">
  <metadata
     id="metadata77">
    <rdf:RDF>
      <cc:Work
         rdf:about="">
        <dc:format>image/svg+xml</dc:format>
        <dc:type
           rdf:resource="http://purl.org/dc/dcmitype/StillImage" />
      </cc:Work>
    </rdf:RDF>
  </metadata>
  <sodipodi:namedview
     pagecolor="#f5f7fa"
     bordercolor="#666666"
     borderopacity="1"
     objecttolerance="10"
     gridtolerance="10"
     guidetolerance="10"
     inkscape:pageopacity="0"
     inkscape:pageshadow="2"
     inkscape:window-width="1377"
     inkscape:window-height="886"
     id="namedview75"
     showgrid="false"
     inkscape:zoom="6.2890624"
     inkscape:cx="4.452174"
     inkscape:cy="12.004969"
     inkscape:window-x="181"
     inkscape:window-y="77"
     inkscape:window-maximized="0"
     inkscape:current-layer="g877"
     inkscape:document-rotation="0"
     inkscape:pagecheckerboard="0"
     inkscape:showpageshadow="2"
     inkscape:deskcolor="#d1d1d1" />
  <defs
     id="defs29">
    <linearGradient
       id="b"
       x1="399.57"
       x2="399.57"
       y1="545.8"
       y2="517.8"
       gradientTransform="matrix(2.1429,0,0,2.1429,-825.86391,-1107.6662)"
       gradientUnits="userSpaceOnUse">
      <stop
         stop-color="#3889e9"
         offset="0"
         id="stop2" />
      <stop
         stop-color="#5ea5fb"
         offset="1"
         id="stop4" />
    </linearGradient>
    <linearGradient
       id="d"
       x2="1"
       gradientTransform="matrix(14.905727,-4.7106182,4.7106182,14.905727,322.04962,998.26962)"
       gradientUnits="userSpaceOnUse">
      <stop
         stop-color="#fafafa"
         offset="0"
         id="stop7" />
      <stop
         stop-color="#aaa"
         offset="1"
         id="stop8" />
    </linearGradient>
    <linearGradient
       id="e"
       x2="1"
       gradientTransform="matrix(21.439909,0,0,21.439909,26.63554,1159.7788)"
       gradientUnits="userSpaceOnUse">
      <stop
         stop-color="#f0f0f0"
         offset="0"
         id="stop9" />
      <stop
         stop-color="#b7f1ff"
         offset="1"
         id="stop10" />
    </linearGradient>
  </defs>
  <circle
     cx="32.516094"
     cy="31.877844"
     r="0"
     fill="url(#b)"
     stroke-width="1.5715"
     id="circle41"
     style="fill:url(#b)" />
  <g
     aria-label="GZ"
     transform="matrix(1.2212657,0,0,0.81882264,0.4960938,-0.1661539)"
     id="text93"
     style="font-weight:bold;font-size:11.5263px;line-height:1.25;font-family:sans-serif;-inkscape-font-specification:'sans-serif Bold';fill:#f2f2f2;stroke-width:0.288159" />
  <g
     id="g877"
     transform="matrix(1.1,0,0,1.1,-3.1845928,-3.2065454)">
    <rect
       x="6.3010068"
       y="5.4939413"
       width="51.635597"
       height="53.148327"
       rx="10.980581"
       ry="10.720582"
       fill="url(#linearGradient862)"
       stroke-width="3.0541"
       id="rect35-7-3"
       style="fill:#414141;fill-opacity:1;stroke:#dfdfdf;stroke-width:2.27272727;stroke-dasharray:none;stroke-opacity:1" />
    <path
       style="fill:#dfdfdf;fill-opacity:1;stroke-width:0.187174"
       d="m 11.395818,57.447255 c 0,-0.221493 -0.291214,-0.742934 -0.647141,-1.158757 -1.3301383,-1.553968 -1.3190803,-4.097895 0.02427,-5.584831 0.358591,-0.396917 0.813979,-0.773083 1.01197,-0.835926 0.656299,-0.208299 0.776732,-0.74367 0.335514,-1.491477 -0.720267,-1.220762 -0.409347,-3.429471 0.641325,-4.555852 0.462618,-0.495955 1.652102,-1.154176 2.085734,-1.154176 0.228173,0 0.262518,-0.161365 0.173134,-0.813488 -0.197346,-1.4398 0.887451,-3.193576 2.364748,-3.823061 0.787478,-0.335549 2.38559,-0.368823 2.959604,-0.06162 0.509354,0.272598 0.817699,0.113022 1.379557,-0.713959 1.391607,-2.048266 5.09435,-1.73882 5.968738,0.498818 0.202951,0.519372 0.545276,0.531513 1.339143,0.04749 0.789101,-0.481115 1.876306,-0.476377 2.886358,0.01258 1.004063,0.48606 1.634154,1.463046 1.678029,2.601862 0.03251,0.843786 0.03588,0.847797 0.75457,0.897463 1.142839,0.07897 1.496908,0.198413 2.104933,0.710033 0.343974,0.289435 0.617801,0.736301 0.691316,1.128171 0.135013,0.719676 0.526256,1.013099 1.350842,1.013099 0.301722,0 0.76274,0.168457 1.024491,0.374347 0.593329,0.466714 0.763936,0.466249 1.736891,-0.0048 0.657478,-0.318278 0.869646,-0.344165 1.32252,-0.161357 0.75251,0.303767 1.245884,0.241229 2.296336,-0.291076 1.303984,-0.660779 2.376583,-1.959761 2.829777,-3.427029 0.44362,-1.436267 0.501159,-4.137999 0.118583,-5.568057 -0.825865,-3.087093 -2.903855,-4.960105 -5.502903,-4.960105 -0.977988,0 -2.497922,0.469724 -3.130813,0.967559 -1.426915,1.122409 -1.614375,3.891172 -0.364059,5.377088 0.763806,0.907729 1.885862,1.230352 3.49876,1.005989 0.745381,-0.103687 1.418404,-0.152578 1.495623,-0.108645 0.380973,0.216781 0.07594,0.843811 -0.641437,1.318553 -0.701198,0.464031 -0.947291,0.517383 -2.386468,0.517383 -1.895574,0 -2.688058,-0.315149 -3.886112,-1.545395 -1.163813,-1.195087 -1.610376,-2.53785 -1.517011,-4.561492 0.06235,-1.351439 0.173215,-1.815238 0.67994,-2.844547 0.726014,-1.474742 1.887939,-2.563186 3.371769,-3.158531 0.881825,-0.35381 1.41368,-0.424634 3.209479,-0.427382 2.038815,-0.0031 2.219605,0.02849 3.422959,0.598479 2.530658,1.198686 4.364983,3.567801 5.214953,6.735347 0.580189,2.162142 0.579489,6.133928 -0.0029,8.189865 -0.782262,2.768451 -2.206639,4.874345 -4.252248,6.286773 -1.366819,0.943748 -3.992333,1.86297 -5.340223,1.869674 -0.754032,0.0037 -1.330846,0.107577 -1.55982,0.280763 -0.529035,0.400143 -1.472205,0.337187 -2.077131,-0.138644 -0.422856,-0.332621 -0.743735,-0.407403 -1.641326,-0.382526 -1.101751,0.03055 -2.188484,-0.321295 -2.188484,-0.708545 0,-0.30537 -1.913706,-1.426121 -2.67469,-1.566416 -0.498571,-0.09212 -0.983367,-0.404464 -1.639107,-1.056763 -0.51198,-0.509294 -1.011956,-0.925986 -1.111054,-0.925986 -0.0991,0 -0.455958,0.168141 -0.79302,0.373646 -0.337061,0.205509 -0.928694,0.373965 -1.314741,0.374348 l -0.701901,6.19e-4 v 1.035468 c 0,1.685987 -0.823893,3.132317 -2.0809,3.652984 -0.625057,0.258907 -0.631259,0.287164 -0.258772,1.178653 0.723092,1.730604 0.08893,3.725576 -1.496655,4.708214 l -0.906069,0.561519 -4.928579,0.05813 -4.928578,0.05812 z m 2.579855,-1.783802 c 0.621397,-0.435246 0.976447,-1.263329 0.976447,-2.277369 0,-1.968904 -1.685661,-3.004248 -2.873192,-1.764735 -1.072259,1.119198 -1.033393,2.912838 0.08348,3.852628 0.654592,0.550801 1.213951,0.60925 1.813265,0.189476 z m 7.719514,-0.245417 c 0.706304,-0.706304 0.867021,-1.404949 0.538945,-2.342823 -0.367694,-1.051126 -1.218146,-1.539963 -2.146251,-1.233662 -0.82584,0.272552 -1.390627,1.133225 -1.391587,2.120622 -5.85e-4,0.57048 0.131892,0.85321 0.635692,1.357011 0.825202,0.825201 1.604263,0.857789 2.363201,0.09885 z m 1.9206,-5.781361 c 0.876911,-0.793592 1.107222,-1.94598 0.5705,-2.85458 -0.530328,-0.897772 -1.376322,-1.135315 -2.314865,-0.649975 -1.393363,0.720535 -1.490757,3.007496 -0.160444,3.767479 0.535506,0.305929 1.40955,0.185282 1.904809,-0.262924 z m 16.310658,0.222383 c 0.161774,-0.161771 0.294132,-0.366327 0.294132,-0.454565 0,-0.342169 -0.613477,-0.748696 -1.129825,-0.748696 -0.357212,0 -0.612603,0.132732 -0.750246,0.389918 -0.432762,0.808621 0.904736,1.494548 1.585939,0.813343 z m 3.378478,-0.570872 c 0.595576,-0.595566 -0.0019,-1.350723 -0.890399,-1.127451 -0.560275,0.140617 -0.830091,0.763742 -0.501924,1.159153 0.300002,0.361488 1.015434,0.345197 1.392323,-0.03171 z m -6.83637,-0.154151 c 0.359672,-0.433379 0.154093,-1.105014 -0.422566,-1.380552 -1.046575,-0.50008 -1.956293,0.707072 -1.024627,1.359635 0.521197,0.365062 1.153986,0.374205 1.447193,0.02092 z M 16.200335,48.031528 c 0.594463,-0.544788 0.692306,-0.75824 0.768451,-1.676458 0.08168,-0.98487 0.04934,-1.090105 -0.505454,-1.644896 -0.510288,-0.510288 -0.685829,-0.5776 -1.262348,-0.484042 -1.165465,0.189129 -1.933429,1.207174 -1.933429,2.563029 0,0.604128 0.119189,0.891576 0.547125,1.319512 0.755914,0.755915 1.502989,0.731756 2.385655,-0.07715 z m 30.390554,-0.323563 c 0.274768,-0.513411 -0.09026,-0.962774 -0.720196,-0.886577 -0.621627,0.0752 -0.93745,0.581213 -0.609451,0.976437 0.349169,0.420712 1.082935,0.371119 1.329647,-0.08987 z M 33.019515,46.404044 c 0.49037,-0.54185 0.189608,-1.301825 -0.684631,-1.729942 -1.221023,-0.597935 -2.25258,0.246976 -1.571192,1.286907 0.551572,0.841804 1.692211,1.065822 2.255823,0.443035 z m 6.156298,0.07923 c 0.380725,-0.1461 0.381865,-0.896893 0.0017,-1.276819 -0.348079,-0.348082 -1.222159,-0.387537 -1.540174,-0.06952 -0.743553,0.743552 0.43072,1.771338 1.538233,1.346341 z m 3.490324,-0.08015 c 0.426714,-0.228369 0.473749,-0.790738 0.0926,-1.107065 -0.373683,-0.31013 -1.241568,-0.172477 -1.489827,0.236299 -0.167409,0.275648 -0.123175,0.407292 0.235824,0.701902 0.50619,0.415402 0.659184,0.437644 1.1614,0.168864 z m 2.994784,-0.374348 c 0.47078,-0.251956 0.464066,-0.861514 -0.01228,-1.116459 -0.755638,-0.404402 -1.495025,0.489023 -0.898435,1.085609 0.274985,0.274988 0.443871,0.280708 0.910735,0.03085 z m 2.788512,-0.0788 c 0.253896,-0.305948 0.112703,-0.663305 -0.262097,-0.663305 -0.336558,0 -0.727115,0.499966 -0.578462,0.740495 0.172133,0.278521 0.576121,0.241422 0.840559,-0.07719 z M 27.2922,44.825649 c 1.810362,-0.936177 0.160759,-3.256781 -1.748121,-2.459201 -1.073533,0.44855 -1.366585,1.440336 -0.624957,2.115066 0.738841,0.672191 1.519706,0.785427 2.373078,0.344135 z m 8.585946,-0.325113 c 0.364241,-0.364242 0.258308,-1.068922 -0.23482,-1.562048 -0.575023,-0.575024 -1.297059,-0.593665 -1.682459,-0.04342 -0.382531,0.546143 -0.368083,0.746213 0.09656,1.336912 0.422268,0.536825 1.407179,0.682106 1.820719,0.268565 z m 11.982781,-0.479205 c 0.04494,-0.31501 -0.0338,-0.419228 -0.316515,-0.419228 -0.448005,0 -0.660641,0.283122 -0.50914,0.677903 0.160107,0.417236 0.755846,0.230593 0.825655,-0.258675 z m 1.794352,-0.09766 c 0.141251,-0.223931 0.13149,-0.3761 -0.0347,-0.542358 -0.310904,-0.310905 -0.892566,0.24491 -0.721856,0.689779 0.138983,0.362216 0.476635,0.296428 0.756615,-0.147421 z M 19.391306,43.102359 c 1.115378,-0.529283 1.68214,-1.923699 1.170477,-2.879749 -0.236285,-0.441503 -1.135083,-0.925746 -1.716513,-0.924802 -0.626823,0.0011 -1.584701,0.645988 -1.918739,1.291946 -0.544861,1.053645 -0.310388,2.037227 0.603934,2.533412 0.668181,0.362608 1.062137,0.358203 1.860841,-0.02081 z M 31.50689,41.240413 c 0.897959,-0.34458 0.669321,-1.533889 -0.391676,-2.037365 -0.817435,-0.387898 -1.62715,-0.06727 -1.713935,0.678694 -0.100259,0.861745 1.205281,1.70416 2.105611,1.358671 z m -5.596597,-1.466861 c 0.628903,-0.628904 0.588831,-1.270147 -0.116457,-1.863607 -0.65231,-0.548883 -1.422875,-0.622085 -2.218336,-0.210735 -0.570214,0.294868 -0.762082,0.626916 -0.762082,1.318861 0,1.137194 2.182694,1.669661 3.096875,0.755481 z"
       id="path1" />
  </g>
</svg>
