<?xml version="1.0" encoding="UTF-8" standalone="no"?>
<svg
   width="64"
   height="64"
   version="1.1"
   id="svg73"
   sodipodi:docname="steam_icon_368260.svg"
   inkscape:version="1.4.2 (ebf0e940d0, 2025-05-08)"
   xmlns:inkscape="http://www.inkscape.org/namespaces/inkscape"
   xmlns:sodipodi="http://sodipodi.sourceforge.net/DTD/sodipodi-0.dtd"
   xmlns="http://www.w3.org/2000/svg"
   xmlns:svg="http://www.w3.org/2000/svg"
   xmlns:rdf="http://www.w3.org/1999/02/22-rdf-syntax-ns#"
   xmlns:cc="http://creativecommons.org/ns#"
   xmlns:dc="http://purl.org/dc/elements/1.1/">
  <metadata
     id="metadata77">
    <rdf:RDF>
      <cc:Work
         rdf:about="">
        <dc:format>image/svg+xml</dc:format>
        <dc:type
           rdf:resource="http://purl.org/dc/dcmitype/StillImage" />
      </cc:Work>
    </rdf:RDF>
  </metadata>
  <sodipodi:namedview
     pagecolor="#f5f7fa"
     bordercolor="#666666"
     borderopacity="1"
     objecttolerance="10"
     gridtolerance="10"
     guidetolerance="10"
     inkscape:pageopacity="0"
     inkscape:pageshadow="2"
     inkscape:window-width="1377"
     inkscape:window-height="886"
     id="namedview75"
     showgrid="false"
     inkscape:zoom="6.2890624"
     inkscape:cx="47.622361"
     inkscape:cy="45.396274"
     inkscape:window-x="147"
     inkscape:window-y="75"
     inkscape:window-maximized="0"
     inkscape:current-layer="g877"
     inkscape:document-rotation="0"
     inkscape:pagecheckerboard="0"
     inkscape:showpageshadow="2"
     inkscape:deskcolor="#d1d1d1" />
  <defs
     id="defs29" />
  <circle
     cx="32.516094"
     cy="31.877844"
     r="0"
     fill="url(#b)"
     stroke-width="1.5715"
     id="circle41"
     style="fill:url(#b)" />
  <g
     aria-label="GZ"
     transform="matrix(1.2212657,0,0,0.81882264,0.4960938,-0.1661539)"
     id="text93"
     style="font-weight:bold;font-size:11.5263px;line-height:1.25;font-family:sans-serif;-inkscape-font-specification:'sans-serif Bold';fill:#f2f2f2;stroke-width:0.288159" />
  <g
     id="g877"
     transform="matrix(1.1,0,0,1.1,-3.1845928,-3.2065454)">
    <rect
       x="8.3496294"
       y="8.369586"
       width="47.272728"
       height="47.272728"
       rx="9.8825235"
       ry="9.6485243"
       fill="url(#linearGradient862)"
       stroke-width="3.0541"
       id="rect35-7-3"
       style="fill:#414141;fill-opacity:1;stroke:#dfdfdf;stroke-width:2.04545;stroke-dasharray:none;stroke-opacity:1" />
    <path
       style="fill:#dfdfdf;fill-opacity:1;stroke-width:0.0508958"
       d="m 29.151825,47.466051 c -0.04229,-0.05095 -0.247902,-0.590465 -0.456933,-1.19893 -0.744368,-2.166759 -1.759922,-4.274414 -2.667149,-5.535339 -0.322219,-0.447841 -1.028318,-1.187566 -1.133584,-1.187566 -0.202013,0 -0.138947,0.922669 0.115965,1.696529 0.319698,0.970515 1.117046,2.440933 1.944856,3.586571 0.539018,0.74595 0.671772,1.231559 0.336681,1.231559 -0.187318,0 -0.46571,-0.318693 -0.911163,-1.043102 -0.524098,-0.852297 -0.978667,-1.457632 -1.368186,-1.821982 -0.422924,-0.395595 -0.609403,-0.459078 -0.769125,-0.261829 -0.148607,0.183523 -0.125079,0.248972 0.328961,0.91471 0.201118,0.294908 0.34126,0.559743 0.311433,0.588565 -0.124908,0.120713 -0.464756,-0.04908 -0.902634,-0.450899 -0.643248,-0.590297 -0.842425,-0.643649 -1.651399,-0.442286 -0.788317,0.196184 -1.673798,0.253697 -2.231202,0.144874 -1.899443,-0.370908 -3.426194,-2.09525 -4.148638,-4.685572 -0.549207,-1.969208 -0.511193,-4.421138 0.09522,-6.141601 0.419777,-1.190964 0.728247,-1.644029 1.95329,-2.868924 1.007815,-1.007687 1.278854,-1.407284 1.347465,-1.986589 0.04133,-0.348936 0.164448,-0.490707 0.30452,-0.350638 0.119826,0.119833 0.07797,0.90332 -0.06804,1.273777 -0.07371,0.187011 -0.334845,0.671194 -0.580278,1.07593 -0.609385,1.00492 -0.735793,1.355967 -0.77204,2.144052 -0.03405,0.739889 0.09269,1.19113 0.477269,1.699352 0.120086,0.15871 0.259768,0.344428 0.310395,0.41272 0.05064,0.06828 0.133427,0.49955 0.183992,0.958357 0.160267,1.454146 0.553093,2.401662 1.318621,3.180574 0.582941,0.593135 1.03049,0.819343 1.700645,0.859559 0.701854,0.04213 1.072549,-0.148452 1.452691,-0.746906 0.175572,-0.276403 0.158365,-1.362267 -0.03387,-2.136481 -0.172826,-0.696031 -0.515615,-1.477648 -0.812381,-1.852345 -0.305473,-0.385698 -0.798454,-0.600953 -1.565583,-0.683605 -1.176209,-0.12673 -1.337771,-0.177396 -1.69059,-0.530216 -0.842922,-0.842918 -0.683316,-2.392424 0.299268,-2.905356 0.85645,-0.447086 2.804128,0.62353 3.822631,2.10126 0.590775,0.857142 0.93867,1.638621 1.699039,3.816538 0.581615,1.665906 0.807625,2.234431 1.22021,3.069369 0.31367,0.634776 0.825799,1.307675 0.995242,1.307675 0.132507,0 0.303682,-0.224917 0.350905,-0.46099 0.05412,-0.270605 0.213933,-0.421502 0.299601,-0.282879 0.09496,0.153667 0.186506,0.896416 0.264837,2.148927 0.09254,1.479701 0.260582,2.348126 0.725972,3.75161 0.424852,1.281234 0.458751,1.648511 0.155418,1.683761 -0.09651,0.01105 -0.21006,-0.02147 -0.252341,-0.07227 z m -8.160332,-4.866194 c 0.679279,-0.346553 0.852083,-1.13395 0.44031,-2.006322 -0.398791,-0.844868 -1.053286,-1.280574 -1.929542,-1.284545 -0.904138,-0.0043 -1.301007,0.326557 -1.345915,1.121298 -0.03338,0.590698 0.16198,0.985603 0.757472,1.531268 0.803906,0.736641 1.478616,0.943916 2.077675,0.638301 z m 11.760634,4.771297 c -0.122965,-0.04961 -0.111013,-1.849899 0.01874,-2.852642 0.185514,-1.431626 0.491107,-2.540415 1.196791,-4.342318 0.588445,-1.502537 1.098914,-2.265963 2.600586,-3.889314 2.199711,-2.377931 2.688941,-3.254402 2.958067,-5.299572 0.250015,-1.900084 0.562147,-2.488193 1.59527,-3.005999 0.533778,-0.267528 1.047398,-0.374747 2.335436,-0.487494 1.520839,-0.133148 2.150755,-0.284137 2.668514,-0.639688 0.217398,-0.149252 0.421677,-0.271376 0.454064,-0.271376 0.256889,0 -0.05026,0.723015 -0.520799,1.226105 -0.461074,0.492919 -0.853054,0.672893 -1.624547,0.745885 -0.772173,0.07304 -0.926265,0.108717 -1.320557,0.305652 -1.015729,0.507311 -1.838952,1.630078 -2.434911,3.320903 -0.270084,0.766205 -0.427261,1.033989 -0.956036,1.628665 -1.086992,1.22246 -1.276567,1.961382 -0.589328,2.297113 0.669681,0.327158 2.100192,-0.336541 2.711981,-1.258247 0.553708,-0.834189 0.662523,-1.654753 0.32227,-2.430017 -0.242068,-0.551532 -0.24845,-0.662774 -0.05969,-1.037587 0.33655,-0.668262 1.031637,-1.276331 1.918598,-1.678498 0.737318,-0.334314 2.267948,-0.758754 2.608015,-0.72319 0.573373,0.05997 1.218272,0.82332 1.546729,1.830859 0.24161,0.74094 0.300431,1.997779 0.132465,2.826792 -0.256214,1.264532 -0.827673,2.39638 -1.650015,3.268102 -0.76257,0.808367 -1.655138,1.302021 -3.8322,2.119469 -0.53311,0.200215 -1.121979,0.441497 -1.308602,0.536259 -0.855584,0.434459 -1.788041,1.300657 -2.903976,2.69765 -0.372689,0.466539 -0.721027,0.873722 -0.774084,0.904832 -0.171034,0.100338 -0.291838,-0.0055 -0.291838,-0.256123 0,-0.504917 0.516853,-1.343266 1.413564,-2.292803 0.680161,-0.720241 0.961568,-1.115073 0.961568,-1.349147 0,-0.385796 -0.284874,-0.306476 -1.187573,0.330675 -1.45667,1.028155 -2.533764,2.582433 -3.154915,4.552619 -0.154181,0.488949 -0.320525,0.896318 -0.374539,0.917043 -0.149577,0.0574 -0.304026,-0.141456 -0.271663,-0.349785 0.01555,-0.101136 0.04569,-0.386005 0.06657,-0.63291 0.09309,-1.099558 0.50034,-2.11359 1.223249,-3.045925 1.150846,-1.484224 1.447655,-2.171871 0.961495,-2.227533 -0.519743,-0.05947 -1.870312,1.302071 -2.546095,2.566838 -0.547463,1.024605 -0.926475,2.329697 -1.30071,4.478826 -0.199549,1.145993 -0.324388,1.569958 -0.457984,1.555452 -0.02715,-0.0029 -0.08748,-0.02086 -0.134168,-0.03962 z m 7.880881,-9.384712 c 0.446301,-0.169684 1.127675,-1.025935 1.127675,-1.417093 0,-0.219323 -0.05166,-0.249279 -0.373227,-0.216317 -0.446812,0.04574 -1.662606,1.050423 -1.662606,1.373884 0,0.08883 0.03676,0.19813 0.08137,0.242959 0.09749,0.09751 0.588103,0.10734 0.826729,0.01626 z m 4.039872,-0.651281 c 1.009681,-0.460739 1.838076,-1.915245 1.838076,-3.227339 0,-0.902294 -0.313632,-1.37301 -0.914033,-1.371768 -0.965428,0.0022 -2.43276,1.68189 -2.752885,3.151699 -0.112735,0.517662 -0.06094,1.166087 0.108408,1.355907 0.335909,0.376637 1.016325,0.412822 1.720485,0.09153 z m -13.698587,7.559546 c -0.21577,-0.35481 -0.31389,-1.020944 -0.713982,-4.847222 -0.250783,-2.398385 -0.461725,-3.500979 -0.824375,-4.309079 -0.313706,-0.699029 -0.803453,-0.947741 -1.106813,-0.562079 -0.12793,0.162648 -0.140647,0.269814 -0.140647,1.185179 0,0.908818 -0.01216,1.012875 -0.125228,1.073397 -0.397112,0.21253 -0.799886,-0.662197 -1.232266,-2.676171 -0.223459,-1.040844 -0.408718,-1.473007 -0.921686,-2.150104 -0.252621,-0.333445 -0.367401,-0.547694 -0.367401,-0.685783 0,-0.143305 0.160406,-0.424268 0.559853,-0.980653 0.307919,-0.428901 0.627789,-0.824801 0.710821,-0.87978 0.08302,-0.05499 0.434213,-0.160134 0.780401,-0.233714 0.385359,-0.08186 0.872704,-0.250859 1.256787,-0.435754 1.486675,-0.715688 2.130923,-1.940459 1.918769,-3.647738 -0.252399,-2.031139 -1.485105,-3.468551 -3.052393,-3.559277 -0.793088,-0.04594 -0.981648,0.0092 -1.40655,0.411044 -1.539771,1.456253 -2.235663,4.477719 -1.264706,5.491183 0.349291,0.364581 0.662012,0.221494 1.717594,-0.786021 0.438495,-0.41852 0.581382,-0.521171 0.598892,-0.43025 0.06088,0.316117 -1.637736,2.606251 -2.415371,3.256488 -0.490254,0.409939 -0.771322,0.5117 -0.999831,0.36197 -0.237664,-0.155721 -0.872386,-1.068196 -1.18399,-1.702111 -1.454788,-2.959533 -0.632576,-7.054544 1.907868,-9.502103 0.699078,-0.673519 1.108908,-0.965699 1.923701,-1.37147 1.127424,-0.561462 2.221512,-0.829648 3.596634,-0.881612 1.99766,-0.0755 4.069923,0.526358 5.619406,1.632044 0.520356,0.371319 1.476369,1.230587 1.588428,1.427685 0.167291,0.294257 0.09822,0.42655 -0.701583,1.343917 -0.433847,0.49761 -1.169502,1.38571 -1.634803,1.973557 -0.465293,0.587846 -0.874718,1.06881 -0.909838,1.06881 -0.164206,0 -0.110965,-0.23634 0.175832,-0.780087 0.339471,-0.643641 0.347152,-0.774758 0.06067,-1.035199 -0.115167,-0.104695 -0.252954,-0.152684 -0.438312,-0.152684 -1.249466,0 -2.306485,2.257993 -1.955799,4.177954 0.16769,0.917982 0.807137,1.782084 1.640879,2.217301 0.395416,0.206405 0.467835,0.220903 1.103232,0.221034 0.631265,1.55e-4 0.712408,-0.01577 1.131359,-0.222029 1.015168,-0.499759 1.680147,-1.645994 1.682068,-2.89942 7.6e-4,-0.55961 -0.09164,-0.845179 -0.437339,-1.350128 C 36.68701,24.0313 36.60324,23.843456 36.60324,23.509286 c 0,-0.504244 0.331916,-1.054537 1.111793,-1.843268 0.887345,-0.897423 1.24916,-1.085906 2.344103,-1.221137 0.53508,-0.06608 0.828036,-0.135241 0.94931,-0.224094 0.281161,-0.20598 0.582269,-0.706948 0.675574,-1.123886 0.05673,-0.253688 0.120406,-0.386017 0.185456,-0.386017 0.160142,0 0.182879,0.172211 0.09862,0.748423 -0.09076,0.620994 -0.198342,0.914085 -0.441015,1.202553 -0.188309,0.22385 -0.308434,0.280327 -1.054492,0.496051 -0.697799,0.201771 -1.031477,0.446084 -1.268522,0.928797 -0.246948,0.50287 -0.24612,1.058594 0.0035,2.053058 0.479923,1.916471 0.02915,3.32029 -1.751327,5.454986 -1.694689,2.03164 -1.880403,2.358724 -2.284238,4.02288 -0.528998,2.179968 -0.935236,3.633586 -1.0513,3.76184 -0.145552,0.160908 -0.275613,0.164621 -0.357232,0.01018 -0.03455,-0.06522 -0.07508,-0.653105 -0.09009,-1.30627 -0.02865,-1.243477 -0.08337,-1.492939 -0.327735,-1.492939 -0.328284,0 -0.514262,0.795839 -0.610535,2.612649 -0.159651,3.013295 -0.240038,3.678522 -0.45284,3.748243 -0.309682,0.101472 -0.411447,-1.430174 -0.294495,-4.43222 0.170284,-4.370868 -0.01743,-6.765584 -0.571156,-7.285763 -0.129132,-0.121305 -0.187598,-0.137059 -0.295381,-0.07937 -0.29501,0.157877 -0.618103,0.944629 -0.95711,2.330594 -0.247154,1.010444 -0.258597,1.22568 -0.07494,1.409328 0.189712,0.189713 0.256828,0.173154 0.550677,-0.135717 0.142026,-0.149307 0.288903,-0.271446 0.32641,-0.271446 0.235549,0 0.288415,0.712966 0.145928,1.96797 -0.04449,0.3919 -0.09843,1.647596 -0.119935,2.790446 -0.04091,2.176814 0.01157,3.309069 0.254179,5.486649 0.133898,1.201725 0.162576,1.883311 0.09055,2.151858 -0.0644,0.240073 -0.219965,0.244921 -0.362106,0.01105 z m 5.464142,-11.157461 c -0.131544,-0.131565 -0.133522,-0.257452 -0.01069,-0.666041 0.114902,-0.381684 0.383582,-0.751532 0.675229,-0.929373 0.240841,-0.146867 0.627467,-0.17297 0.672242,-0.04537 0.125837,0.358611 -0.782157,1.747422 -1.14247,1.747422 -0.04827,0 -0.135806,-0.04801 -0.194438,-0.106623 z M 18.966722,26.082649 c -0.04507,-0.05434 -0.08806,-0.185371 -0.09555,-0.291255 -0.01069,-0.151343 0.01808,-0.197004 0.134505,-0.213644 0.171541,-0.02437 0.313094,0.184597 0.280304,0.414024 -0.02538,0.177653 -0.204836,0.228752 -0.319251,0.09086 z m 8.950308,-0.17369 c 0,-0.132472 0.07625,-0.279599 0.228556,-0.441098 0.253282,-0.268549 0.485822,-0.314629 0.551027,-0.109191 0.08528,0.268697 -0.291691,0.749035 -0.587834,0.749035 -0.166782,0 -0.191756,-0.02599 -0.191749,-0.198744 z m 19.317779,-0.5251 c -0.172018,-0.172027 0.121908,-0.808193 0.406432,-0.879603 0.256952,-0.06449 0.332668,0.05584 0.23673,0.376136 -0.108475,0.362249 -0.48759,0.658996 -0.64312,0.503467 z M 41.833133,17.29437 c -0.09212,-0.172149 -0.09325,-0.521545 -0.0024,-0.691651 0.03978,-0.07436 0.141515,-0.131259 0.234764,-0.131259 0.23041,0 0.366789,0.430593 0.228261,0.720469 -0.114451,0.239583 -0.358469,0.293812 -0.460862,0.102438 z"
       id="path1-3" />
    <rect
       x="37.737823"
       y="37.757782"
       width="22.610399"
       height="22.610399"
       rx="4.7267799"
       ry="4.6148596"
       fill="url(#linearGradient862)"
       stroke-width="3.0541"
       id="rect35-7-3-1"
       style="fill:#414141;fill-opacity:1;stroke:#dfdfdf;stroke-width:0.978336;stroke-dasharray:none;stroke-opacity:1" />
    <path
       id="path1"
       style="fill:#dfdfdf;fill-opacity:1;stroke:none;stroke-width:0.224244;stroke-dasharray:none;stroke-dashoffset:2.2;stroke-opacity:0.6"
       d="m 53.054544,43.299438 c -0.231167,-9.7e-5 -0.478613,0.09299 -0.788298,0.274436 -0.736938,0.431788 -1.700715,0.635422 -3.024237,0.635422 -1.323397,0 -2.319324,-0.207971 -3.051873,-0.637265 -0.587409,-0.344229 -0.938101,-0.348791 -1.431082,-0.01642 -1.265645,0.852917 -2.219508,3.587517 -2.499329,7.160943 -0.167795,2.14283 -0.01103,3.27254 0.543328,3.908309 0.267381,0.306528 0.923785,0.254559 1.515809,-0.12156 0.501846,-0.318836 1.099794,-1.022374 1.814177,-2.134665 0.645548,-1.005122 1.426374,-1.336165 3.153173,-1.338993 1.723362,-0.0026 2.400625,0.323379 3.195531,1.545274 1.333668,2.050042 2.566393,2.763747 3.289465,1.90442 0.40058,-0.476052 0.473899,-0.936006 0.454923,-2.851106 -0.03457,-3.478896 -0.94394,-6.643709 -2.254366,-7.851617 -0.349004,-0.321703 -0.619985,-0.476908 -0.917221,-0.477033 z m -7.486939,2.049926 h 0.799346 0.79934 v 0.685152 0.685155 h 0.685156 0.685148 v 0.856441 0.856435 h -0.685148 -0.685156 v 0.742248 0.742251 h -0.723826 c -0.397652,0 -0.755645,-0.03568 -0.797503,-0.07735 -0.04185,-0.04185 -0.07732,-0.374141 -0.07732,-0.740403 v -0.666745 h -0.685161 -0.685156 v -0.856437 -0.856439 h 0.685156 0.685149 v -0.685157 z m 6.516311,0 c 0.721112,0 1.029934,0.798977 0.510182,1.318734 -0.330544,0.330508 -0.632217,0.356486 -0.957741,0.08106 -0.56463,-0.477772 -0.269928,-1.399771 0.447559,-1.399771 z m -1.386879,1.464237 c 0.180072,1.21e-4 0.361362,0.07187 0.50465,0.230203 0.223372,0.246825 0.247504,0.811915 0.04607,1.075615 -0.394228,0.516094 -1.340833,0.18413 -1.340833,-0.469659 0,-0.496196 0.39399,-0.836453 0.790134,-0.836178 z m 2.830855,0.02772 c 0.207551,0.0039 0.409039,0.07252 0.526752,0.202589 0.223372,0.246826 0.247471,0.811914 0.04604,1.075617 -0.419316,0.548931 -1.340835,0.181519 -1.340835,-0.534125 0,-0.216927 0.08692,-0.452038 0.2081,-0.56175 0.138541,-0.125395 0.35239,-0.186127 0.559914,-0.182325 z m -1.394247,1.477124 c 0.639304,0 0.95037,0.678118 0.563588,1.230325 -0.132224,0.188768 -0.293477,0.254171 -0.626215,0.254171 -0.383084,0 -0.471983,-0.04986 -0.626209,-0.348115 -0.30411,-0.588069 0.02772,-1.136394 0.688836,-1.136394 z" />
  </g>
</svg>
