<?xml version="1.0" encoding="UTF-8" standalone="no"?>
<svg
   width="64"
   height="64"
   version="1.1"
   id="svg73"
   sodipodi:docname="Logo.svg"
   inkscape:version="1.3.2 (091e20ef0f, 2023-11-25)"
   xmlns:inkscape="http://www.inkscape.org/namespaces/inkscape"
   xmlns:sodipodi="http://sodipodi.sourceforge.net/DTD/sodipodi-0.dtd"
   xmlns="http://www.w3.org/2000/svg"
   xmlns:svg="http://www.w3.org/2000/svg"
   xmlns:rdf="http://www.w3.org/1999/02/22-rdf-syntax-ns#"
   xmlns:cc="http://creativecommons.org/ns#"
   xmlns:dc="http://purl.org/dc/elements/1.1/">
  <metadata
     id="metadata77">
    <rdf:RDF>
      <cc:Work
         rdf:about="">
        <dc:format>image/svg+xml</dc:format>
        <dc:type
           rdf:resource="http://purl.org/dc/dcmitype/StillImage" />
      </cc:Work>
    </rdf:RDF>
  </metadata>
  <sodipodi:namedview
     pagecolor="#f5f7fa"
     bordercolor="#666666"
     borderopacity="1"
     objecttolerance="10"
     gridtolerance="10"
     guidetolerance="10"
     inkscape:pageopacity="0"
     inkscape:pageshadow="2"
     inkscape:window-width="1377"
     inkscape:window-height="886"
     id="namedview75"
     showgrid="false"
     inkscape:zoom="6.2890624"
     inkscape:cx="10.812423"
     inkscape:cy="11.845963"
     inkscape:window-x="181"
     inkscape:window-y="77"
     inkscape:window-maximized="0"
     inkscape:current-layer="g877"
     inkscape:document-rotation="0"
     inkscape:pagecheckerboard="0"
     inkscape:showpageshadow="2"
     inkscape:deskcolor="#d1d1d1" />
  <defs
     id="defs29">
    <linearGradient
       id="b"
       x1="399.57"
       x2="399.57"
       y1="545.8"
       y2="517.8"
       gradientTransform="matrix(2.1429,0,0,2.1429,-825.86391,-1107.6662)"
       gradientUnits="userSpaceOnUse">
      <stop
         stop-color="#3889e9"
         offset="0"
         id="stop2" />
      <stop
         stop-color="#5ea5fb"
         offset="1"
         id="stop4" />
    </linearGradient>
    <linearGradient
       id="d"
       x2="1"
       gradientTransform="matrix(14.905727,-4.7106182,4.7106182,14.905727,322.04962,998.26962)"
       gradientUnits="userSpaceOnUse">
      <stop
         stop-color="#fafafa"
         offset="0"
         id="stop7" />
      <stop
         stop-color="#aaa"
         offset="1"
         id="stop8" />
    </linearGradient>
    <linearGradient
       id="e"
       x2="1"
       gradientTransform="matrix(21.439909,0,0,21.439909,26.63554,1159.7788)"
       gradientUnits="userSpaceOnUse">
      <stop
         stop-color="#f0f0f0"
         offset="0"
         id="stop9" />
      <stop
         stop-color="#b7f1ff"
         offset="1"
         id="stop10" />
    </linearGradient>
  </defs>
  <circle
     cx="32.516094"
     cy="31.877844"
     r="0"
     fill="url(#b)"
     stroke-width="1.5715"
     id="circle41"
     style="fill:url(#b)" />
  <g
     aria-label="GZ"
     transform="matrix(1.2212657,0,0,0.81882264,0.4960938,-0.1661539)"
     id="text93"
     style="font-weight:bold;font-size:11.5263px;line-height:1.25;font-family:sans-serif;-inkscape-font-specification:'sans-serif Bold';fill:#f2f2f2;stroke-width:0.288159" />
  <g
     id="g877"
     transform="matrix(1.1,0,0,1.1,-3.1845928,-3.2065454)">
    <rect
       x="6.3010068"
       y="5.4939413"
       width="51.635597"
       height="53.148327"
       rx="10.980581"
       ry="10.720582"
       fill="url(#linearGradient862)"
       stroke-width="3.0541"
       id="rect35-7-3"
       style="fill:#414141;fill-opacity:1;stroke:#dfdfdf;stroke-width:2.27272727;stroke-dasharray:none;stroke-opacity:1" />
    <path
       d="m 22.039062,24.659543 c -0.04261,0.06392 -1.640634,0.06392 -4.772753,0 l -0.873584,-0.06392 c 0.213069,-0.916198 0.55398,-2.173307 1.001425,-3.792634 l 1.022733,-3.707407 c 0.149149,-0.852277 0.170456,-0.873584 0.447446,-0.724435 0.511366,0.255683 1.171881,1.171881 1.512792,2.066772 0.319604,0.873584 0.617901,1.87501 0.916198,3.004278 0.319604,1.129267 0.553981,2.194614 0.745743,3.217347 z m 6.328159,8.032714 c 0.04261,-0.02131 0.08523,-0.02131 0.106535,-0.04261 0.191762,-0.06392 0.106535,-0.298297 -0.298297,-0.660515 -0.49006,-0.490059 -0.660515,-0.83097 -0.980119,-1.917624 l -0.788357,-3.153426 -0.404831,-1.725862 c -0.06392,-0.362218 -0.170456,-0.745742 -0.27699,-1.193188 -0.276991,-1.107961 -0.532674,-2.194614 -0.724436,-3.281268 -0.191763,-1.086654 -0.27699,-1.789782 -0.255683,-2.109386 0.04261,-0.575288 0.255683,-0.980119 0.617901,-1.214496 0.255683,-0.149148 0.27699,-0.319604 0.106534,-0.426138 -0.04261,-0.08523 -0.234376,-0.08523 -0.532673,0 -0.404832,0.08523 -0.490059,0.08523 -1.022733,-0.08523 -0.532673,-0.170455 -1.235802,-0.447446 -2.088079,-0.852277 -0.362218,-0.170456 -0.894892,-0.404832 -1.193189,-0.49006 -0.319604,-0.106534 -0.724435,-0.255683 -0.958812,-0.319604 -0.447445,-0.149148 -0.83097,-0.255683 -1.129267,-0.298297 -0.298297,-0.04261 -0.724436,-0.04261 -1.257109,-0.02131 -0.937505,0 -1.512793,0.127842 -2.152001,0.404832 -0.639208,0.319604 -1.342336,0.745743 -1.725861,1.193188 -0.27699,0.319604 -0.447446,0.639208 -0.468753,0.958812 -0.04261,0.383525 0.08523,0.660515 0.404832,0.852278 0.575287,0.340911 1.193188,0.106534 1.59802,-0.639208 0.149149,-0.234377 0.362218,-0.532674 0.639208,-0.894892 0.362218,-0.490059 0.447446,-0.532673 0.937505,-0.703128 0.660515,-0.21307 0.852277,-0.170456 0.788357,0.170455 -0.319604,1.299723 -1.129268,3.96309 -1.470179,5.454575 -0.08523,0.234376 -0.170455,0.617901 -0.234376,0.873584 -0.08523,0.234377 -0.191762,0.660515 -0.255683,0.937505 -0.106535,0.340911 -0.255683,0.809664 -0.404832,1.384951 -0.27699,0.980119 -0.596594,2.002852 -0.958812,3.068199 -0.362218,1.044039 -0.660515,1.768475 -0.873584,2.173307 -0.191763,0.362218 -0.916198,1.04404 -1.32103,1.640634 -0.191763,0.27699 -0.27699,0.575287 -0.27699,0.894891 h 2.748594 2.769902 c 0.04261,-0.06392 -0.02131,-0.234376 -0.191763,-0.511366 -0.490059,-0.788357 -0.809663,-1.704555 -0.958812,-2.791209 -0.106535,-1.214495 -0.04261,-2.130693 0.213069,-3.345188 1.193189,0.149148 2.471605,0.04261 3.664793,0.08523 h 2.684674 c 0.127841,0.532674 0.319604,1.59802 0.447445,2.194615 l 0.149149,0.745742 c 0.08523,0.340911 0.149148,0.617901 0.170455,0.809664 0.08523,0.362218 0.191763,1.278416 0.08523,1.640634 -0.08523,0.404831 -0.170455,0.575287 -0.617901,0.83097 -0.170455,0.170456 -0.191762,0.234376 -0.02131,0.362218 h 1.299723 2.684674 z m 16.593827,-0.149149 c 0,0.02131 0,0.06392 0.02131,0.08523 0.04261,0.06392 0.234376,0 0.596594,-0.234376 1.001426,-0.596594 2.194614,-0.980119 3.558258,-1.150575 0.319604,-0.02131 0.511366,-0.06392 0.575287,-0.127841 0.106535,-0.06392 0.149149,-0.170456 0.08523,-0.298297 -0.06392,-0.106535 -0.170455,-0.149149 -0.426139,-0.234377 -0.234376,-0.02131 -0.980119,-0.383524 -1.299723,-0.660514 -0.362218,-0.340911 -0.660515,-0.703129 -0.894891,-1.065347 l 0.170456,-0.575287 0.767049,-2.258535 0.703129,-2.130694 c 0.404832,-1.171881 0.958812,-2.791208 1.470178,-4.176159 0.532674,-1.363644 0.980119,-2.365069 1.363644,-3.025584 0.404832,-0.703129 0.788357,-1.193189 1.193189,-1.491486 l 0.06392,-0.04261 c 0.234377,-0.191762 0.255684,-0.27699 0.06392,-0.27699 h -2.64206 -2.791208 c -0.08523,0.06392 -0.02131,0.170456 0.170455,0.340911 0.149149,0.106535 0.255684,0.234376 0.340911,0.426139 0.596595,1.10796 0.76705,3.19604 0.340911,4.900595 -0.170455,0.809663 -0.468752,1.981544 -0.916198,3.515644 -0.447445,1.534099 -0.703129,2.492911 -0.809663,2.855129 -0.06392,0.27699 -0.170456,0.27699 -0.340911,-0.02131 l -0.362218,-0.83097 c -0.191763,-0.49006 -0.788357,-1.917625 -1.832396,-4.304001 -1.04404,-2.407684 -1.768476,-4.24008 -2.215922,-5.539803 -0.213069,-0.575287 -0.383524,-0.617901 -0.596594,0 l -3.47303,8.821071 c -0.106535,0.298297 -0.319604,0.745742 -0.404832,1.10796 -0.127841,0.362218 -0.234376,0.553981 -0.340911,0.553981 -0.127841,0 -0.340911,-0.426139 -0.617901,-1.25711 -0.703128,-1.938931 -1.278416,-3.600871 -1.768475,-4.964515 -0.639208,-1.747169 -1.022733,-2.876436 -1.150575,-3.366496 -0.106534,-0.511366 -0.08523,-0.937505 0.06392,-1.257109 0.106535,-0.213069 0.234376,-0.404832 0.383525,-0.55398 0.213069,-0.06392 0.170455,-0.340911 0.170455,-0.426139 H 31.281996 28.61863 c -0.255683,0 -0.27699,0.127842 -0.06392,0.404832 0.06392,0.08523 0.340911,0.362218 0.426139,0.511366 0.490059,0.660515 0.852277,1.661941 1.129267,2.428991 1.214495,3.153426 2.727288,7.265664 4.538377,12.358021 0.27699,0.703129 0.468753,1.32103 0.596594,1.853704 0.06392,0.27699 0.383525,0.319604 0.617901,0.127841 0.21307,-0.191762 0.340911,-0.298297 0.383525,-0.319604 0.27699,-0.170455 0.788357,-0.383524 1.512792,-0.617901 0.404832,-0.127841 0.916199,-0.213069 1.512793,-0.27699 0.27699,-0.02131 0.511366,-0.04261 0.660515,-0.02131 0.191762,0.02131 0.319604,0.02131 0.404831,-0.08523 0.06392,-0.06392 0.106535,-0.127841 0.106535,-0.191762 0,-0.06392 -0.27699,-0.213069 -0.55398,-0.298297 -0.660515,-0.319604 -1.235802,-0.83097 -1.768476,-1.534099 -0.426138,-0.639208 -0.426138,-0.468753 -0.04261,-1.470179 l 0.553981,-1.363643 c 0.234376,-0.575288 0.447445,-1.04404 0.596594,-1.448872 0.340911,-0.83097 0.852277,-1.960238 1.278416,-2.812515 0.04261,0.02131 0.106534,0.127841 0.191762,0.319604 0.106535,0.191762 0.319604,0.681822 0.639208,1.470178 l 1.129268,2.684674 1.470178,3.409109 c 0.170456,0.362218 0.362218,0.830971 0.575287,1.363644 z"
       id="text1"
       style="font-size:21.8183px;font-family:'JMH Cthulhumbus';-inkscape-font-specification:'JMH Cthulhumbus';letter-spacing:1.63636px;fill:#dfdfdf;stroke-width:2.45454"
       aria-label="AW" />
    <path
       d="m 32.157601,52.68464 c 0.09588,0.03835 0.191762,0.03835 0.287644,0 0.0767,-0.03835 0.364349,-0.15341 0.882108,-0.325996 0.517759,-0.172587 0.862932,-0.268468 1.073871,-0.306821 0.325997,-0.05753 0.82458,-0.134234 1.476573,-0.210939 0.671169,-0.05753 1.112224,-0.09588 1.361515,-0.09588 h 0.30682 c 0.134234,0 0.191763,-0.01918 0.191763,-0.05753 0,-0.05753 -0.05753,-0.115057 -0.191763,-0.191763 -0.441054,-0.287644 -0.690345,-0.92046 -0.786227,-2.186094 l -0.03835,-0.556112 h 0.09588 c 0.556112,0 0.920461,0.172586 1.112224,0.498583 0.01918,0.05753 0.03835,0.09588 0.03835,0.09588 0.01918,0.01918 0.230115,0.03835 0.230115,-0.01918 -0.03835,-0.97799 -0.01918,-1.840922 -0.01918,-2.186095 v -0.03835 c -0.03835,-0.172587 -0.09588,-0.15341 -0.383525,0.134234 -0.30682,0.30682 -0.517759,0.402701 -0.843756,0.383525 -0.191763,-0.03835 -0.191763,-0.03835 -0.191763,-0.556112 0,-0.421878 0,-1.994332 0.01918,-4.736538 0,-1.169752 0,-2.224447 0.01918,-3.183261 0.01918,-0.977989 0.01918,-1.553278 0.03835,-1.74504 0.05753,-0.920461 -0.01918,-0.843756 -0.402701,-0.517759 -0.249292,0.210938 -0.67117,0.441054 -1.265634,0.690345 -0.594464,0.249292 -1.150576,0.421878 -1.668335,0.536936 -0.230116,0.07671 -0.249292,0.172586 -0.03835,0.383525 0.115058,0.07671 0.172586,0.15341 0.191763,0.210939 0,0.03835 0.03835,2.991498 0,3.835254 -0.05753,1.89845 -0.03835,3.490081 0.01918,4.774891 0.01918,0.134234 0.01918,0.249291 0,0.30682 0,0 0,0 -0.01918,0 0,0 -0.594465,0 -1.783393,0 -1.188929,-0.01918 -1.783393,-0.01918 -1.783393,0 -0.901285,-0.03835 -1.649159,0 -1.687512,0 0.364349,-0.556112 0.632817,-0.939637 0.805403,-1.188929 0.172587,-0.249291 0.460231,-0.651993 0.82458,-1.208104 0.364349,-0.556112 0.671169,-1.035519 0.882108,-1.419044 0.441054,-0.786227 1.016343,-1.95598 1.380692,-2.895617 0.230115,-0.767051 0.402701,-1.342339 0.383525,-2.243623 -0.01918,-0.460231 -0.09588,-0.843756 -0.249291,-1.169753 -0.36435,-0.556112 -0.632817,-0.824579 -1.419044,-0.824579 -0.786227,0 -1.534102,0.61364 -1.840922,1.495749 -0.287644,0.690345 -0.09588,1.687511 -0.172587,2.473738 0,1.28481 -0.01918,2.032685 -0.05753,2.243624 -0.287644,1.955979 -1.073872,3.681843 -2.339505,5.158416 -0.249292,0.249292 -0.306821,0.421878 -0.172587,0.556112 0.03835,0.03835 0.191763,0.05753 0.460231,0.0767 0.172586,0.01918 0.441054,0.01918 0.843756,0.01918 0.01918,0 0.287644,0.01918 0.843755,0.03835 0.556112,0.01918 1.054695,0.01918 1.476573,0.01918 1.95598,0.01918 3.54761,-0.03835 3.585962,0 0.01918,0.05753 0,0.901285 -0.172586,1.687512 -0.09588,0.556111 -0.556112,1.380691 -1.035518,1.860098 -0.306821,0.287644 -0.345173,0.364349 -0.268468,0.383525 z"
       id="text3"
       style="font-size:19.6365px;font-family:'JMH Cthulhumbus';-inkscape-font-specification:'JMH Cthulhumbus';letter-spacing:1.47272px;fill:#dfdfdf;stroke-width:2.20909"
       aria-label="4" />
  </g>
</svg>
