<?xml version="1.0" encoding="UTF-8" standalone="no"?>
<svg
   width="64"
   height="64"
   version="1.1"
   id="svg73"
   sodipodi:docname="system-software-installer.svg"
   inkscape:version="1.4.2 (ebf0e940d0, 2025-05-08)"
   xmlns:inkscape="http://www.inkscape.org/namespaces/inkscape"
   xmlns:sodipodi="http://sodipodi.sourceforge.net/DTD/sodipodi-0.dtd"
   xmlns="http://www.w3.org/2000/svg"
   xmlns:svg="http://www.w3.org/2000/svg"
   xmlns:rdf="http://www.w3.org/1999/02/22-rdf-syntax-ns#"
   xmlns:cc="http://creativecommons.org/ns#"
   xmlns:dc="http://purl.org/dc/elements/1.1/">
  <metadata
     id="metadata77">
    <rdf:RDF>
      <cc:Work
         rdf:about="">
        <dc:format>image/svg+xml</dc:format>
        <dc:type
           rdf:resource="http://purl.org/dc/dcmitype/StillImage" />
      </cc:Work>
    </rdf:RDF>
  </metadata>
  <sodipodi:namedview
     pagecolor="#f5f7fa"
     bordercolor="#666666"
     borderopacity="1"
     objecttolerance="10"
     gridtolerance="10"
     guidetolerance="10"
     inkscape:pageopacity="0"
     inkscape:pageshadow="2"
     inkscape:window-width="1377"
     inkscape:window-height="886"
     id="namedview75"
     showgrid="false"
     inkscape:zoom="6.2890624"
     inkscape:cx="47.622361"
     inkscape:cy="45.396274"
     inkscape:window-x="147"
     inkscape:window-y="75"
     inkscape:window-maximized="0"
     inkscape:current-layer="g877"
     inkscape:document-rotation="0"
     inkscape:pagecheckerboard="0"
     inkscape:showpageshadow="2"
     inkscape:deskcolor="#d1d1d1" />
  <defs
     id="defs29">
    <linearGradient
       id="b"
       x1="399.57"
       x2="399.57"
       y1="545.8"
       y2="517.8"
       gradientTransform="matrix(2.1429,0,0,2.1429,-825.86391,-1107.6662)"
       gradientUnits="userSpaceOnUse">
      <stop
         stop-color="#3889e9"
         offset="0"
         id="stop2" />
      <stop
         stop-color="#5ea5fb"
         offset="1"
         id="stop4" />
    </linearGradient>
  </defs>
  <circle
     cx="32.516094"
     cy="31.877844"
     r="0"
     fill="url(#b)"
     stroke-width="1.5715"
     id="circle41"
     style="fill:url(#b)" />
  <g
     aria-label="GZ"
     transform="matrix(1.2212657,0,0,0.81882264,0.4960938,-0.1661539)"
     id="text93"
     style="font-weight:bold;font-size:11.5263px;line-height:1.25;font-family:sans-serif;-inkscape-font-specification:'sans-serif Bold';fill:#f2f2f2;stroke-width:0.288159" />
  <g
     id="g877"
     transform="matrix(1.1,0,0,1.1,-3.1845928,-3.2065454)">
    <rect
       x="8.3496294"
       y="8.369586"
       width="47.272728"
       height="47.272728"
       rx="9.8825235"
       ry="9.6485243"
       fill="url(#linearGradient862)"
       stroke-width="3.0541"
       id="rect35-7-3"
       style="fill:#414141;fill-opacity:1;stroke:#dfdfdf;stroke-width:2.04545;stroke-dasharray:none;stroke-opacity:1" />
    <path
       style="fill:#dfdfdf;fill-opacity:1;stroke:none;stroke-width:0.463097;stroke-dasharray:none;stroke-opacity:0.6"
       d="m 46.35488,43.287272 c 0,-0.164497 0.216309,-0.551782 0.480643,-0.860628 0.987916,-1.154154 0.979702,-3.043568 -0.01811,-4.147938 -0.26634,-0.294808 -0.604558,-0.574175 -0.75161,-0.620852 -0.487474,-0.154709 -0.576923,-0.552334 -0.249214,-1.107744 0.534953,-0.906676 0.304026,-2.547125 -0.476323,-3.383704 -0.343592,-0.368353 -1.227042,-0.857224 -1.549105,-0.857224 -0.169465,0 -0.194977,-0.119816 -0.128612,-0.604191 0.146584,-1.069358 -0.65912,-2.371919 -1.756335,-2.839446 -0.58487,-0.249215 -1.771813,-0.273973 -2.198141,-0.04579 -0.378307,0.202458 -0.60732,0.08396 -1.024621,-0.530266 -1.033444,-1.521281 -3.783528,-1.291452 -4.432948,0.370478 -0.150735,0.385738 -0.404986,0.394763 -0.994604,0.03529 -0.586077,-0.357336 -1.393561,-0.353813 -2.143741,0.0096 -0.745733,0.361005 -1.213713,1.086625 -1.246297,1.932441 -0.02411,0.626692 -0.02662,0.629677 -0.560431,0.666562 -0.848805,0.05863 -1.111778,0.147372 -1.563368,0.527352 -0.255474,0.214995 -0.458849,0.546864 -0.51345,0.837915 -0.100275,0.534507 -0.390861,0.752439 -1.003299,0.752439 -0.224107,0 -0.566503,0.125134 -0.760907,0.278059 -0.440678,0.346635 -0.567387,0.346283 -1.290016,-0.0038 -0.488322,-0.236386 -0.645899,-0.255585 -0.982254,-0.119815 -0.558904,0.225633 -0.925341,0.179168 -1.705524,-0.216222 -0.968492,-0.490784 -1.765126,-1.455559 -2.101722,-2.545315 -0.329479,-1.066744 -0.372214,-3.073363 -0.08809,-4.135484 0.613405,-2.29273 2.15676,-3.683845 4.087107,-3.683845 0.726368,0 1.855251,0.348873 2.325308,0.718622 1.059795,0.83363 1.199025,2.890033 0.270376,3.993643 -0.567288,0.674187 -1.400655,0.913796 -2.598582,0.74716 -0.553607,-0.07702 -1.053471,-0.113294 -1.110824,-0.08066 -0.282946,0.160995 -0.0564,0.626714 0.476404,0.979312 0.520792,0.344638 0.703568,0.384265 1.772466,0.384265 1.407876,0 1.996469,-0.234107 2.886289,-1.147786 0.864406,-0.887668 1.196073,-1.884958 1.126729,-3.387947 -0.04631,-1.003734 -0.128649,-1.348207 -0.505,-2.11269 -0.539223,-1.095314 -1.402207,-1.903717 -2.504274,-2.345892 -0.654944,-0.262778 -1.049966,-0.315378 -2.383735,-0.31742 -1.514258,-0.0024 -1.64853,0.02114 -2.542275,0.444498 -1.879561,0.890283 -3.241944,2.649861 -3.873232,5.002446 -0.430916,1.605858 -0.430392,4.555765 0.0022,6.082737 0.580997,2.056173 1.638905,3.620256 3.158211,4.669284 1.015158,0.700939 2.965165,1.38366 3.966268,1.388642 0.560029,0.0029 0.988438,0.07993 1.1585,0.208567 0.392922,0.297186 1.093434,0.250412 1.542719,-0.102953 0.314071,-0.247081 0.55239,-0.302586 1.219044,-0.284108 0.818288,0.0225 1.625423,-0.238636 1.625423,-0.526245 0,-0.226801 1.421339,-1.059205 1.986533,-1.163405 0.370298,-0.06847 0.73036,-0.300429 1.217389,-0.784915 0.380257,-0.378263 0.751596,-0.687748 0.825198,-0.687748 0.07359,0 0.338647,0.1249 0.588988,0.277503 0.250341,0.152633 0.689756,0.277737 0.976479,0.278029 l 0.521312,4.63e-4 v 0.769058 c 0,1.252202 0.611917,2.326415 1.545519,2.713121 0.464236,0.192289 0.468845,0.213241 0.192201,0.87541 -0.537053,1.285341 -0.06608,2.767039 1.111589,3.496858 l 0.672951,0.417051 3.66053,0.04317 3.660532,0.04317 z m -1.916098,-1.324851 c -0.461519,-0.323261 -0.725223,-0.938301 -0.725223,-1.691442 0,-1.462333 1.251968,-2.231301 2.133966,-1.310697 0.796383,0.83125 0.767516,2.163407 -0.06201,2.861405 -0.486172,0.40909 -0.901618,0.452504 -1.34674,0.140769 z m -5.733401,-0.182264 c -0.524582,-0.524574 -0.643951,-1.043468 -0.400282,-1.740038 0.273091,-0.780689 0.904739,-1.143755 1.594052,-0.916261 0.613366,0.2024 1.032841,0.841663 1.033555,1.575019 4.35e-4,0.423701 -0.09795,0.633687 -0.472139,1.00787 -0.612892,0.612895 -1.191511,0.637093 -1.755186,0.07341 z M 37.27892,37.486252 c -0.651294,-0.589426 -0.822348,-1.445322 -0.423718,-2.120153 0.393882,-0.666795 1.022215,-0.843216 1.719285,-0.482748 1.034876,0.535154 1.107209,2.233718 0.119173,2.798164 -0.397729,0.227269 -1.046894,0.137583 -1.414733,-0.19524 z m -12.114184,0.165169 c -0.120136,-0.120137 -0.218472,-0.27201 -0.218472,-0.337583 0,-0.254154 0.455637,-0.556071 0.839136,-0.556071 0.265284,0 0.454993,0.09859 0.557224,0.289602 0.321421,0.600573 -0.671962,1.11002 -1.177906,0.604076 z m -2.509245,-0.423996 c -0.44234,-0.442331 0.0015,-1.003202 0.66131,-0.837377 0.416129,0.104443 0.616519,0.567247 0.372787,0.860922 -0.222833,0.268473 -0.754175,0.256346 -1.034097,-0.02368 z m 5.077482,-0.114467 c -0.267133,-0.321876 -0.114449,-0.820705 0.313843,-1.02535 0.777307,-0.371414 1.452969,0.525156 0.761006,1.009824 -0.387102,0.271102 -0.857083,0.27797 -1.074852,0.01519 z m 15.053521,-0.818891 c -0.441519,-0.404621 -0.514189,-0.563154 -0.570738,-1.245127 -0.06064,-0.731484 -0.03665,-0.809642 0.375404,-1.221694 0.378999,-0.378994 0.509377,-0.428994 0.937568,-0.359504 0.865606,0.140476 1.435986,0.896585 1.435986,1.9036 0,0.448698 -0.08852,0.662189 -0.406356,0.980022 -0.561431,0.561435 -1.116294,0.543487 -1.771864,-0.05728 z M 20.214951,36.053764 c -0.204054,-0.381318 0.06705,-0.715071 0.534899,-0.658477 0.461695,0.0559 0.696261,0.431679 0.452651,0.725214 -0.259335,0.312482 -0.804312,0.275634 -0.98755,-0.06677 z m 10.079676,-0.968438 c -0.364204,-0.40244 -0.140826,-0.966885 0.508486,-1.284855 0.906874,-0.444096 1.673026,0.183434 1.166949,0.955806 -0.409661,0.625223 -1.25683,0.791599 -1.675435,0.329063 z m -4.572387,0.05885 c -0.282759,-0.108536 -0.283617,-0.66615 -0.0014,-0.948333 0.258508,-0.258508 0.907724,-0.287819 1.143919,-0.05164 0.552252,0.552246 -0.319906,1.315598 -1.142474,0.999942 z m -2.592319,-0.05957 c -0.316903,-0.169612 -0.351857,-0.587296 -0.06876,-0.822238 0.277539,-0.230338 0.922135,-0.128085 1.106519,0.175485 0.124305,0.204738 0.09149,0.302487 -0.175128,0.521314 -0.375948,0.308532 -0.489583,0.325032 -0.862584,0.125425 z m -2.224267,-0.27805 c -0.349644,-0.187147 -0.344672,-0.639858 0.0092,-0.829208 0.561226,-0.300357 1.11038,0.363202 0.667282,0.806291 -0.204278,0.20427 -0.329654,0.208506 -0.676416,0.02338 z m -2.071075,-0.05854 c -0.188588,-0.227269 -0.0837,-0.49265 0.194668,-0.49265 0.249976,0 0.540039,0.37133 0.429632,0.549977 -0.127837,0.20687 -0.427891,0.179313 -0.624297,-0.05734 z m 15.713815,-0.835013 c -1.344586,-0.695309 -0.119396,-2.418858 1.298357,-1.826489 0.797328,0.333156 1.014982,1.069764 0.464163,1.570895 -0.548748,0.499248 -1.128707,0.583352 -1.76252,0.255615 z m -6.376914,-0.24146 c -0.270526,-0.270548 -0.191852,-0.793904 0.174402,-1.160154 0.427081,-0.427079 0.963347,-0.440926 1.24959,-0.0322 0.284107,0.405624 0.273382,0.554219 -0.07172,0.992943 -0.313628,0.398716 -1.045139,0.506619 -1.352281,0.199478 z m -8.899805,-0.355919 c -0.03327,-0.233932 0.0248,-0.3114 0.235115,-0.3114 0.332739,0 0.490671,0.21029 0.378147,0.503493 -0.118928,0.309869 -0.56138,0.171248 -0.613224,-0.192084 z M 17.938982,33.2431 c -0.104927,-0.166308 -0.09767,-0.279315 0.02578,-0.402818 0.230913,-0.230921 0.662924,0.181944 0.53613,0.512316 -0.103236,0.269028 -0.354001,0.220168 -0.561949,-0.1095 z M 40.41651,32.63307 c -0.82841,-0.39311 -1.24935,-1.428763 -0.869336,-2.138834 0.175487,-0.327907 0.843046,-0.687565 1.274883,-0.686863 0.465552,8.18e-4 1.176983,0.47978 1.425079,0.959542 0.404677,0.782561 0.230512,1.513086 -0.448553,1.881606 -0.496269,0.269292 -0.788863,0.266048 -1.382073,-0.01519 z m -8.998433,-1.382872 c -0.666927,-0.255936 -0.497116,-1.139249 0.290904,-1.513186 0.607122,-0.288112 1.208509,-0.04997 1.272966,0.504071 0.07447,0.640031 -0.895181,1.265705 -1.56387,1.009115 z m 4.156679,-1.089456 c -0.467095,-0.467096 -0.437332,-0.943359 0.0865,-1.38413 0.48448,-0.407665 1.056791,-0.462033 1.647592,-0.156511 0.423508,0.219046 0.56601,0.46562 0.56601,0.979539 0,0.844616 -1.621121,1.240084 -2.300097,0.561105 z"
       id="path1-47" />
    <rect
       x="37.737823"
       y="37.757782"
       width="22.610399"
       height="22.610399"
       rx="4.7267799"
       ry="4.6148596"
       fill="url(#linearGradient862)"
       stroke-width="3.0541"
       id="rect35-7-3-1"
       style="fill:#414141;fill-opacity:1;stroke:#dfdfdf;stroke-width:0.978336;stroke-dasharray:none;stroke-opacity:1" />
    <path
       id="path1"
       style="fill:#dfdfdf;fill-opacity:1;stroke:none;stroke-width:0.224244;stroke-dasharray:none;stroke-dashoffset:2.2;stroke-opacity:0.6"
       d="m 53.054544,43.299438 c -0.231167,-9.7e-5 -0.478613,0.09299 -0.788298,0.274436 -0.736938,0.431788 -1.700715,0.635422 -3.024237,0.635422 -1.323397,0 -2.319324,-0.207971 -3.051873,-0.637265 -0.587409,-0.344229 -0.938101,-0.348791 -1.431082,-0.01642 -1.265645,0.852917 -2.219508,3.587517 -2.499329,7.160943 -0.167795,2.14283 -0.01103,3.27254 0.543328,3.908309 0.267381,0.306528 0.923785,0.254559 1.515809,-0.12156 0.501846,-0.318836 1.099794,-1.022374 1.814177,-2.134665 0.645548,-1.005122 1.426374,-1.336165 3.153173,-1.338993 1.723362,-0.0026 2.400625,0.323379 3.195531,1.545274 1.333668,2.050042 2.566393,2.763747 3.289465,1.90442 0.40058,-0.476052 0.473899,-0.936006 0.454923,-2.851106 -0.03457,-3.478896 -0.94394,-6.643709 -2.254366,-7.851617 -0.349004,-0.321703 -0.619985,-0.476908 -0.917221,-0.477033 z m -7.486939,2.049926 h 0.799346 0.79934 v 0.685152 0.685155 h 0.685156 0.685148 v 0.856441 0.856435 h -0.685148 -0.685156 v 0.742248 0.742251 h -0.723826 c -0.397652,0 -0.755645,-0.03568 -0.797503,-0.07735 -0.04185,-0.04185 -0.07732,-0.374141 -0.07732,-0.740403 v -0.666745 h -0.685161 -0.685156 v -0.856437 -0.856439 h 0.685156 0.685149 v -0.685157 z m 6.516311,0 c 0.721112,0 1.029934,0.798977 0.510182,1.318734 -0.330544,0.330508 -0.632217,0.356486 -0.957741,0.08106 -0.56463,-0.477772 -0.269928,-1.399771 0.447559,-1.399771 z m -1.386879,1.464237 c 0.180072,1.21e-4 0.361362,0.07187 0.50465,0.230203 0.223372,0.246825 0.247504,0.811915 0.04607,1.075615 -0.394228,0.516094 -1.340833,0.18413 -1.340833,-0.469659 0,-0.496196 0.39399,-0.836453 0.790134,-0.836178 z m 2.830855,0.02772 c 0.207551,0.0039 0.409039,0.07252 0.526752,0.202589 0.223372,0.246826 0.247471,0.811914 0.04604,1.075617 -0.419316,0.548931 -1.340835,0.181519 -1.340835,-0.534125 0,-0.216927 0.08692,-0.452038 0.2081,-0.56175 0.138541,-0.125395 0.35239,-0.186127 0.559914,-0.182325 z m -1.394247,1.477124 c 0.639304,0 0.95037,0.678118 0.563588,1.230325 -0.132224,0.188768 -0.293477,0.254171 -0.626215,0.254171 -0.383084,0 -0.471983,-0.04986 -0.626209,-0.348115 -0.30411,-0.588069 0.02772,-1.136394 0.688836,-1.136394 z" />
  </g>
</svg>
