<?xml version="1.0" encoding="UTF-8" standalone="no"?>
<svg
   width="64"
   height="64"
   version="1.1"
   id="svg73"
   sodipodi:docname="preferences-system-splash.svg"
   inkscape:version="1.3.2 (091e20ef0f, 2023-11-25)"
   xmlns:inkscape="http://www.inkscape.org/namespaces/inkscape"
   xmlns:sodipodi="http://sodipodi.sourceforge.net/DTD/sodipodi-0.dtd"
   xmlns="http://www.w3.org/2000/svg"
   xmlns:svg="http://www.w3.org/2000/svg"
   xmlns:rdf="http://www.w3.org/1999/02/22-rdf-syntax-ns#"
   xmlns:cc="http://creativecommons.org/ns#"
   xmlns:dc="http://purl.org/dc/elements/1.1/">
  <metadata
     id="metadata77">
    <rdf:RDF>
      <cc:Work
         rdf:about="">
        <dc:format>image/svg+xml</dc:format>
        <dc:type
           rdf:resource="http://purl.org/dc/dcmitype/StillImage" />
      </cc:Work>
    </rdf:RDF>
  </metadata>
  <sodipodi:namedview
     pagecolor="#f5f7fa"
     bordercolor="#666666"
     borderopacity="1"
     objecttolerance="10"
     gridtolerance="10"
     guidetolerance="10"
     inkscape:pageopacity="0"
     inkscape:pageshadow="2"
     inkscape:window-width="1377"
     inkscape:window-height="886"
     id="namedview75"
     showgrid="false"
     inkscape:zoom="6.2890624"
     inkscape:cx="4.6111802"
     inkscape:cy="12.004969"
     inkscape:window-x="181"
     inkscape:window-y="77"
     inkscape:window-maximized="0"
     inkscape:current-layer="g877"
     inkscape:document-rotation="0"
     inkscape:pagecheckerboard="0"
     inkscape:showpageshadow="2"
     inkscape:deskcolor="#d1d1d1" />
  <defs
     id="defs29">
    <linearGradient
       id="b"
       x1="399.57"
       x2="399.57"
       y1="545.8"
       y2="517.8"
       gradientTransform="matrix(2.1429,0,0,2.1429,-825.86391,-1107.6662)"
       gradientUnits="userSpaceOnUse">
      <stop
         stop-color="#3889e9"
         offset="0"
         id="stop2" />
      <stop
         stop-color="#5ea5fb"
         offset="1"
         id="stop4" />
    </linearGradient>
    <linearGradient
       id="d"
       x2="1"
       gradientTransform="matrix(14.905727,-4.7106182,4.7106182,14.905727,322.04962,998.26962)"
       gradientUnits="userSpaceOnUse">
      <stop
         stop-color="#fafafa"
         offset="0"
         id="stop7" />
      <stop
         stop-color="#aaa"
         offset="1"
         id="stop8" />
    </linearGradient>
    <linearGradient
       id="e"
       x2="1"
       gradientTransform="matrix(21.439909,0,0,21.439909,26.63554,1159.7788)"
       gradientUnits="userSpaceOnUse">
      <stop
         stop-color="#f0f0f0"
         offset="0"
         id="stop9" />
      <stop
         stop-color="#b7f1ff"
         offset="1"
         id="stop10" />
    </linearGradient>
    <linearGradient
       id="b-2"
       x2="1"
       gradientTransform="matrix(10.719636,14.238636,-14.238636,10.719636,-67.544643,95.73886)"
       gradientUnits="userSpaceOnUse">
      <stop
         stop-color="#3077e1"
         offset="0"
         id="stop3" />
      <stop
         stop-color="#5df"
         offset="1"
         id="stop4-7" />
    </linearGradient>
    <linearGradient
       id="c"
       x2="1"
       gradientTransform="matrix(-0.30023273,-19.715,19.715,-0.30023273,61.587812,32.183496)"
       gradientUnits="userSpaceOnUse">
      <stop
         stop-color="#da9517"
         offset="0"
         id="stop5" />
      <stop
         stop-color="#ffee58"
         offset="1"
         id="stop6" />
    </linearGradient>
  </defs>
  <circle
     cx="32.516094"
     cy="31.877844"
     r="0"
     fill="url(#b)"
     stroke-width="1.5715"
     id="circle41"
     style="fill:url(#b)" />
  <g
     aria-label="GZ"
     transform="matrix(1.2212657,0,0,0.81882264,0.4960938,-0.1661539)"
     id="text93"
     style="font-weight:bold;font-size:11.5263px;line-height:1.25;font-family:sans-serif;-inkscape-font-specification:'sans-serif Bold';fill:#f2f2f2;stroke-width:0.288159" />
  <g
     id="g877"
     transform="matrix(1.1,0,0,1.1,-3.1845928,-3.2065454)">
    <rect
       x="6.3010068"
       y="5.4939413"
       width="51.635597"
       height="53.148327"
       rx="10.980581"
       ry="10.720582"
       fill="url(#linearGradient862)"
       stroke-width="3.0541"
       id="rect35-7-3"
       style="fill:#414141;fill-opacity:1;stroke:#dfdfdf;stroke-width:2.27272727;stroke-dasharray:none;stroke-opacity:1" />
    <path
       style="fill:#dfdfdf;stroke-width:0.151611;fill-opacity:1"
       d="m 19.087334,47.574878 c -2.66091,-0.237377 -4.259465,-1.605868 -4.920083,-4.211993 -0.106633,-0.420663 -0.123019,-0.58993 -0.123019,-1.270793 0,-2.626747 0.870165,-4.130939 2.79685,-4.834714 0.430879,-0.157389 0.538514,-0.176795 1.093095,-0.197083 0.77976,-0.02853 1.182705,0.05487 1.826738,0.378085 0.834283,0.418688 1.42922,1.009421 1.831053,1.818126 0.511233,1.02887 0.466298,2.017735 -0.13236,2.912802 -0.653194,0.976611 -1.726521,1.52507 -2.567103,1.311776 -0.655786,-0.166406 -1.173444,-0.702354 -1.432831,-1.483457 -0.120101,-0.361658 -0.122887,-1.052021 -0.0056,-1.38799 0.238047,-0.681902 0.922246,-1.080892 1.754541,-1.023162 0.35069,0.02432 0.756995,0.107719 1.018839,0.20912 0.0851,0.03297 0.0828,0.02002 -0.02318,-0.12995 -0.371816,-0.526151 -1.019933,-0.931532 -1.643689,-1.028079 -1.014818,-0.157079 -2.034814,0.419745 -2.52096,1.425645 -0.245862,0.508717 -0.340411,0.896364 -0.378364,1.551268 -0.077,1.328757 0.225257,2.133046 1.146793,3.051496 0.534059,0.532272 0.970435,0.802931 1.691925,1.0494 0.928916,0.317339 2.107659,0.411169 3.039878,0.241986 2.885532,-0.523687 5.327339,-1.832422 7.659532,-4.105281 0.592953,-0.577869 3.79195,-4.156413 8.276831,-9.258852 0.21853,-0.248621 0.324684,-0.400894 0.266835,-0.382759 -1.537445,0.481983 -2.209821,0.644243 -3.346603,0.807613 -1.124843,0.161656 -2.082444,0.213332 -3.396081,0.183273 -0.667088,-0.01526 -1.52945,-0.0623 -1.91636,-0.104526 -3.951624,-0.431243 -7.820618,-1.738006 -11.420339,-3.857254 -1.165823,-0.686351 -1.70042,-0.86109 -2.493099,-0.814899 -0.730294,0.04255 -1.422475,0.385016 -2.177649,1.077403 l -0.347837,0.318914 -0.02635,-0.303591 c -0.01449,-0.166974 -0.03892,-0.820953 -0.05428,-1.453284 l -0.02792,-1.149696 0.159537,-0.02371 c 0.08774,-0.01303 0.443352,-0.04832 0.790237,-0.0784 0.911441,-0.07903 2.232912,-0.311609 3.347568,-0.589154 1.443567,-0.359449 3.156836,-0.953214 5.664111,-1.963008 1.234147,-0.497048 2.658711,-1.055603 3.165697,-1.241233 1.717096,-0.628707 3.331082,-1.039852 4.851545,-1.23588 0.938434,-0.12099 3.030527,-0.119572 3.92975,0.0026 1.860958,0.25297 3.441655,0.714238 6.040172,1.762602 0.627062,0.252987 1.598581,0.644832 2.158935,0.870768 1.91817,0.773409 3.638144,1.294212 5.007833,1.516356 0.683724,0.11089 2.147678,0.219361 2.501598,0.185355 l 0.24117,-0.02317 -0.03366,0.56353 c -0.05042,0.844093 0.021,0.762471 -0.697781,0.797382 -1.274471,0.06191 -2.646842,0.459926 -4.600851,1.33437 -0.650583,0.291141 -1.009057,0.514377 -1.36383,0.849299 -1.170549,1.105062 -1.501789,2.82587 -0.814065,4.229094 0.704627,1.437707 2.282389,1.990655 4.247274,1.488521 0.30686,-0.07842 0.69589,-0.198896 0.864514,-0.267721 0.168624,-0.06882 0.299616,-0.109682 0.291094,-0.09079 -0.0085,0.01889 -0.309769,0.427332 -0.669436,0.907636 -1.192776,1.592842 -2.442842,3.538161 -3.538492,5.506499 -0.567302,1.019162 -1.727365,3.338533 -2.164591,4.327777 -0.185209,0.419045 -0.35033,0.735602 -0.366936,0.703476 -0.0283,-0.05475 -0.07978,-1.032758 -0.190791,-3.624307 -0.103858,-2.424625 -0.143343,-6.225243 -0.09267,-8.92027 0.02777,-1.477321 0.04322,-2.693317 0.03433,-2.702214 -0.02313,-0.02312 -1.091958,0.793914 -1.611488,1.231843 -0.623142,0.525266 -1.918652,1.802351 -2.666086,2.628176 -1.105774,1.221737 -1.97953,2.292412 -3.642513,4.463418 -0.582525,0.760478 -1.210742,1.568262 -1.396036,1.79507 -2.18513,2.674718 -4.614687,4.503383 -7.265039,5.468249 -1.720761,0.626445 -3.948304,0.938307 -5.630293,0.788261 z M 33.745835,31.446091 c 3.64663,-0.352167 7.345683,-1.691923 11.567745,-4.189708 l 0.565488,-0.334544 -0.865505,-0.277854 c -0.931159,-0.298932 -1.858592,-0.643009 -3.921977,-1.455053 -1.297725,-0.51072 -3.27479,-1.211908 -3.27479,-1.16144 0,0.01441 0.06259,0.117461 0.139095,0.229003 0.515353,0.751384 0.750941,1.676194 0.637701,2.503275 -0.230017,1.679939 -1.507917,2.973642 -3.441569,3.484124 -0.397254,0.104875 -0.576813,0.123423 -1.24072,0.128157 -0.820439,0.0058 -1.075035,-0.03008 -1.746557,-0.246383 -0.763878,-0.246067 -1.298525,-0.562856 -1.861159,-1.102769 -0.544655,-0.522663 -0.864432,-1.033553 -1.080757,-1.726673 -0.162446,-0.520473 -0.162446,-1.417694 0,-1.938169 0.19665,-0.630079 0.46316,-1.083013 0.921566,-1.566204 0.145746,-0.153628 0.256057,-0.287615 0.245136,-0.297749 -0.0362,-0.03359 -1.355959,0.25763 -2.051848,0.452761 -1.080584,0.303004 -2.415803,0.774119 -4.614623,1.628214 -2.970826,1.153969 -4.259716,1.605476 -5.821284,2.039229 -0.349637,0.09712 -0.416068,0.05026 0.826103,0.582714 4.384209,1.87928 7.980567,2.939382 10.938058,3.224223 0.280323,0.027 0.586089,0.05638 0.679482,0.0653 0.527189,0.05035 2.731743,0.02411 3.400415,-0.04046 z M 47.75285,23.607596 c -1.096563,-0.151317 -2.272278,-0.473555 -4.55084,-1.247285 -3.029233,-1.028637 -3.711406,-1.25116 -4.486461,-1.463486 -3.676272,-1.007108 -7.590449,-1.033028 -11.669181,-0.07727 -0.996145,0.233423 -1.813965,0.48044 -3.371823,1.018438 -2.816275,0.972583 -4.733321,1.436257 -6.535562,1.580748 -1.268185,0.101674 -2.474691,-0.07538 -3.306852,-0.485259 -0.402482,-0.198245 -0.883722,-0.523775 -0.839575,-0.567921 0.01346,-0.01347 0.282897,0.0021 0.598726,0.03474 0.686211,0.07076 2.142724,0.03461 2.854464,-0.07084 1.426321,-0.211339 2.538786,-0.558672 4.12381,-1.287533 5.834511,-2.682956 12.073286,-3.563963 16.883373,-2.384187 1.123127,0.275472 1.447308,0.394054 3.404657,1.245365 4.81088,2.092397 7.166966,2.795814 9.908776,2.958295 l 0.553871,0.03283 -0.117232,0.09249 c -0.195553,0.154279 -0.874022,0.463391 -1.208829,0.550745 -0.37281,0.09727 -1.735698,0.139926 -2.241322,0.07016 z"
       id="path1" />
    <g
       id="g1"
       transform="matrix(1.21,0,0,1.21,2.0148825,-2.4743588)" />
  </g>
</svg>
