<?xml version="1.0" encoding="UTF-8" standalone="no"?>
<svg
   width="64"
   height="64"
   version="1.1"
   id="svg73"
   sodipodi:docname="system-software-installer.svg"
   inkscape:version="1.4.2 (ebf0e940d0, 2025-05-08)"
   xmlns:inkscape="http://www.inkscape.org/namespaces/inkscape"
   xmlns:sodipodi="http://sodipodi.sourceforge.net/DTD/sodipodi-0.dtd"
   xmlns="http://www.w3.org/2000/svg"
   xmlns:svg="http://www.w3.org/2000/svg"
   xmlns:rdf="http://www.w3.org/1999/02/22-rdf-syntax-ns#"
   xmlns:cc="http://creativecommons.org/ns#"
   xmlns:dc="http://purl.org/dc/elements/1.1/">
  <metadata
     id="metadata77">
    <rdf:RDF>
      <cc:Work
         rdf:about="">
        <dc:format>image/svg+xml</dc:format>
        <dc:type
           rdf:resource="http://purl.org/dc/dcmitype/StillImage" />
      </cc:Work>
    </rdf:RDF>
  </metadata>
  <sodipodi:namedview
     pagecolor="#f5f7fa"
     bordercolor="#666666"
     borderopacity="1"
     objecttolerance="10"
     gridtolerance="10"
     guidetolerance="10"
     inkscape:pageopacity="0"
     inkscape:pageshadow="2"
     inkscape:window-width="1377"
     inkscape:window-height="886"
     id="namedview75"
     showgrid="false"
     inkscape:zoom="6.2890624"
     inkscape:cx="47.622361"
     inkscape:cy="45.396274"
     inkscape:window-x="147"
     inkscape:window-y="75"
     inkscape:window-maximized="0"
     inkscape:current-layer="g877"
     inkscape:document-rotation="0"
     inkscape:pagecheckerboard="0"
     inkscape:showpageshadow="2"
     inkscape:deskcolor="#d1d1d1" />
  <defs
     id="defs29" />
  <circle
     cx="32.516094"
     cy="31.877844"
     r="0"
     fill="url(#b)"
     stroke-width="1.5715"
     id="circle41"
     style="fill:url(#b)" />
  <g
     aria-label="GZ"
     transform="matrix(1.2212657,0,0,0.81882264,0.4960938,-0.1661539)"
     id="text93"
     style="font-weight:bold;font-size:11.5263px;line-height:1.25;font-family:sans-serif;-inkscape-font-specification:'sans-serif Bold';fill:#f2f2f2;stroke-width:0.288159" />
  <g
     id="g877"
     transform="matrix(1.1,0,0,1.1,-3.1845928,-3.2065454)">
    <rect
       x="8.3496294"
       y="8.369586"
       width="47.272728"
       height="47.272728"
       rx="9.8825235"
       ry="9.6485243"
       fill="url(#linearGradient862)"
       stroke-width="3.0541"
       id="rect35-7-3"
       style="fill:#414141;fill-opacity:1;stroke:#dfdfdf;stroke-width:2.04545;stroke-dasharray:none;stroke-opacity:1" />
    <path
       style="fill:#dfdfdf;fill-opacity:1;stroke:none;stroke-width:0.509408;stroke-dasharray:none;stroke-dashoffset:2.2;stroke-opacity:0.6"
       d="M 30.102507,47.51439 C 28.119608,47.283819 25.965242,46.550743 24.195233,45.504279 20.430326,43.2784 17.675066,39.417481 16.615187,34.882443 c -0.22283,-0.95345 -0.254786,-1.309079 -0.253939,-2.825933 7.91e-4,-1.414184 0.04183,-1.927848 0.221903,-2.77636 0.514729,-2.425598 1.495222,-4.638277 2.877962,-6.494692 2.521579,-3.385371 5.971064,-5.514743 10.065014,-6.213146 1.557188,-0.265652 4.041546,-0.21941 5.545131,0.103215 3.169794,0.680144 5.711575,2.07585 8.048519,4.419488 1.865679,1.871027 2.949363,3.582281 3.708419,5.855958 0.501235,1.501409 0.700949,2.619733 0.770102,4.312283 0.154796,3.786554 -1.137944,7.594067 -3.610185,10.6338 -2.907217,3.574526 -7.564769,5.770172 -12.12099,5.714022 -0.574053,-0.0076 -1.368133,-0.05056 -1.764616,-0.09673 z m 0.586511,-1.64042 c 0.325257,-0.290874 0.299203,-1.034963 -0.126168,-3.604434 -0.607929,-3.672163 -1.499824,-5.357391 -2.83315,-5.353223 -1.434993,0.0044 -4.19716,1.473924 -5.654522,3.008144 -0.72928,0.767746 -0.891185,1.073146 -0.7705,1.453398 0.124169,0.391226 1.36019,1.587697 2.266275,2.193772 1.636105,1.094375 4.176184,2.222444 5.533468,2.457454 0.645736,0.111837 1.364837,0.04135 1.584597,-0.155147 z m 4.794684,-0.01082 c 2.597773,-0.686424 5.799836,-2.600233 6.908359,-4.128881 0.474517,-0.654359 0.378714,-0.895439 -0.85335,-2.147634 -1.819789,-1.849672 -4.580204,-3.055258 -5.87503,-2.566043 -1.124709,0.42494 -1.817959,2.188942 -2.362015,6.010177 -0.236243,1.659313 -0.240624,2.541453 -0.01388,2.792217 0.305062,0.337334 1.021624,0.350418 2.195904,0.04007 z M 20.846905,37.895806 c 1.864326,-2.262563 2.595337,-3.590733 2.6681,-4.847662 0.05537,-0.956326 -0.06733,-1.343016 -0.621644,-1.95957 -0.69163,-0.769263 -1.944844,-1.296281 -3.274558,-1.377064 -1.025938,-0.06232 -1.383212,0.104055 -1.735223,0.80807 -0.216521,0.43304 -0.246157,0.61498 -0.234142,1.437755 0.01345,0.91908 0.173831,1.972985 0.488137,3.206941 0.170599,0.669725 1.096959,3.723862 1.251621,4.126453 l 0.09681,0.25205 0.215129,-0.258772 c 0.118318,-0.142376 0.633911,-0.767018 1.145762,-1.388207 z m 23.635968,0.92806 c 1.146476,-1.279591 2.320999,-7.153848 1.718613,-8.595552 -0.267948,-0.641347 -1.002261,-0.788749 -2.503928,-0.502637 -3.006979,0.572911 -3.826149,2.762965 -2.207012,5.900417 0.528852,1.024775 1.198192,1.965148 2.009124,2.822705 0.551541,0.583238 0.734233,0.652928 0.983203,0.375037 z M 33.99637,36.219635 c 2.252397,-0.713347 3.988725,-2.111571 4.86199,-3.915255 0.973799,-2.011314 0.973811,-4.208568 2.7e-5,-6.345394 -0.686787,-1.507041 -1.648691,-2.654993 -2.885658,-3.443766 -1.428558,-0.910948 -2.659038,-1.220701 -4.547891,-1.144865 -1.881259,0.07555 -2.838858,0.502848 -4.486579,2.002085 -1.6391,1.491393 -2.609564,3.559711 -2.609564,5.561685 0,3.269712 2.777325,6.633344 6.147648,7.445454 0.822505,0.198185 2.651654,0.115065 3.520027,-0.159956 z m -13.799334,-9.46301 c 1.384952,-0.287661 2.650595,-0.850749 3.123927,-1.389845 0.651264,-0.741752 0.768604,-2.24322 0.264404,-3.383309 -0.262778,-0.59419 -0.364381,-0.677887 -0.715831,-0.589681 -0.316307,0.07939 -1.775113,1.539548 -2.48047,2.482768 -0.396139,0.529732 -1.48397,2.438572 -1.796312,3.152028 -0.01896,0.04333 0.07027,0.05471 0.198309,0.02534 0.128041,-0.02944 0.760729,-0.163194 1.405967,-0.297207 z m 24.946524,-0.008 c 0.236941,-0.230732 -0.01637,-0.807102 -0.999554,-2.274361 -1.062818,-1.586083 -2.260943,-2.997869 -2.620801,-3.088189 -0.548197,-0.137586 -1.356058,1.115585 -1.482939,2.300402 -0.0849,0.792794 -0.0225,1.036386 0.377873,1.493683 1.057852,1.205959 4.070758,2.206006 4.725434,1.568473 z M 28.736013,20.491282 c 0.589051,-0.200712 1.707596,-1.224831 2.04776,-1.874891 l 0.237926,-0.454687 -0.246614,-0.201947 c -0.298931,-0.24479 -0.821158,-0.207571 -2.378292,0.169471 -1.870507,0.452917 -2.937282,1.026256 -2.86161,1.537967 0.106926,0.723086 2.038075,1.220278 3.20083,0.824087 z m 8.296354,0.02119 c 1.660967,-0.504111 1.801267,-1.148761 0.388054,-1.782972 -0.746451,-0.33499 -2.649955,-0.835578 -3.476176,-0.914177 -0.525003,-0.04995 -0.671947,-0.03154 -0.779003,0.09743 -0.112025,0.134994 -0.09405,0.223675 0.119257,0.587627 0.306286,0.52263 1.654728,1.822312 2.08484,2.009442 0.405429,0.176398 1.087029,0.17748 1.663028,0.0027 z"
       id="path3-3" />
    <rect
       x="37.737823"
       y="37.757782"
       width="22.610399"
       height="22.610399"
       rx="4.7267799"
       ry="4.6148596"
       fill="url(#linearGradient862)"
       stroke-width="3.0541"
       id="rect35-7-3-1"
       style="fill:#414141;fill-opacity:1;stroke:#dfdfdf;stroke-width:0.978336;stroke-dasharray:none;stroke-opacity:1" />
    <path
       id="path1"
       style="fill:#dfdfdf;fill-opacity:1;stroke:none;stroke-width:0.224244;stroke-dasharray:none;stroke-dashoffset:2.2;stroke-opacity:0.6"
       d="m 53.054544,43.299438 c -0.231167,-9.7e-5 -0.478613,0.09299 -0.788298,0.274436 -0.736938,0.431788 -1.700715,0.635422 -3.024237,0.635422 -1.323397,0 -2.319324,-0.207971 -3.051873,-0.637265 -0.587409,-0.344229 -0.938101,-0.348791 -1.431082,-0.01642 -1.265645,0.852917 -2.219508,3.587517 -2.499329,7.160943 -0.167795,2.14283 -0.01103,3.27254 0.543328,3.908309 0.267381,0.306528 0.923785,0.254559 1.515809,-0.12156 0.501846,-0.318836 1.099794,-1.022374 1.814177,-2.134665 0.645548,-1.005122 1.426374,-1.336165 3.153173,-1.338993 1.723362,-0.0026 2.400625,0.323379 3.195531,1.545274 1.333668,2.050042 2.566393,2.763747 3.289465,1.90442 0.40058,-0.476052 0.473899,-0.936006 0.454923,-2.851106 -0.03457,-3.478896 -0.94394,-6.643709 -2.254366,-7.851617 -0.349004,-0.321703 -0.619985,-0.476908 -0.917221,-0.477033 z m -7.486939,2.049926 h 0.799346 0.79934 v 0.685152 0.685155 h 0.685156 0.685148 v 0.856441 0.856435 h -0.685148 -0.685156 v 0.742248 0.742251 h -0.723826 c -0.397652,0 -0.755645,-0.03568 -0.797503,-0.07735 -0.04185,-0.04185 -0.07732,-0.374141 -0.07732,-0.740403 v -0.666745 h -0.685161 -0.685156 v -0.856437 -0.856439 h 0.685156 0.685149 v -0.685157 z m 6.516311,0 c 0.721112,0 1.029934,0.798977 0.510182,1.318734 -0.330544,0.330508 -0.632217,0.356486 -0.957741,0.08106 -0.56463,-0.477772 -0.269928,-1.399771 0.447559,-1.399771 z m -1.386879,1.464237 c 0.180072,1.21e-4 0.361362,0.07187 0.50465,0.230203 0.223372,0.246825 0.247504,0.811915 0.04607,1.075615 -0.394228,0.516094 -1.340833,0.18413 -1.340833,-0.469659 0,-0.496196 0.39399,-0.836453 0.790134,-0.836178 z m 2.830855,0.02772 c 0.207551,0.0039 0.409039,0.07252 0.526752,0.202589 0.223372,0.246826 0.247471,0.811914 0.04604,1.075617 -0.419316,0.548931 -1.340835,0.181519 -1.340835,-0.534125 0,-0.216927 0.08692,-0.452038 0.2081,-0.56175 0.138541,-0.125395 0.35239,-0.186127 0.559914,-0.182325 z m -1.394247,1.477124 c 0.639304,0 0.95037,0.678118 0.563588,1.230325 -0.132224,0.188768 -0.293477,0.254171 -0.626215,0.254171 -0.383084,0 -0.471983,-0.04986 -0.626209,-0.348115 -0.30411,-0.588069 0.02772,-1.136394 0.688836,-1.136394 z" />
  </g>
</svg>
