<?xml version="1.0" encoding="UTF-8" standalone="no"?>
<svg
   width="64"
   height="64"
   version="1.1"
   id="svg73"
   sodipodi:docname="steam_icon_368260.svg"
   inkscape:version="1.4.2 (ebf0e940d0, 2025-05-08)"
   xmlns:inkscape="http://www.inkscape.org/namespaces/inkscape"
   xmlns:sodipodi="http://sodipodi.sourceforge.net/DTD/sodipodi-0.dtd"
   xmlns="http://www.w3.org/2000/svg"
   xmlns:svg="http://www.w3.org/2000/svg"
   xmlns:rdf="http://www.w3.org/1999/02/22-rdf-syntax-ns#"
   xmlns:cc="http://creativecommons.org/ns#"
   xmlns:dc="http://purl.org/dc/elements/1.1/">
  <metadata
     id="metadata77">
    <rdf:RDF>
      <cc:Work
         rdf:about="">
        <dc:format>image/svg+xml</dc:format>
        <dc:type
           rdf:resource="http://purl.org/dc/dcmitype/StillImage" />
      </cc:Work>
    </rdf:RDF>
  </metadata>
  <sodipodi:namedview
     pagecolor="#f5f7fa"
     bordercolor="#666666"
     borderopacity="1"
     objecttolerance="10"
     gridtolerance="10"
     guidetolerance="10"
     inkscape:pageopacity="0"
     inkscape:pageshadow="2"
     inkscape:window-width="1377"
     inkscape:window-height="886"
     id="namedview75"
     showgrid="false"
     inkscape:zoom="6.2890624"
     inkscape:cx="47.622361"
     inkscape:cy="45.396274"
     inkscape:window-x="147"
     inkscape:window-y="75"
     inkscape:window-maximized="0"
     inkscape:current-layer="g877"
     inkscape:document-rotation="0"
     inkscape:pagecheckerboard="0"
     inkscape:showpageshadow="2"
     inkscape:deskcolor="#d1d1d1" />
  <defs
     id="defs29" />
  <circle
     cx="32.516094"
     cy="31.877844"
     r="0"
     fill="url(#b)"
     stroke-width="1.5715"
     id="circle41"
     style="fill:url(#b)" />
  <g
     aria-label="GZ"
     transform="matrix(1.2212657,0,0,0.81882264,0.4960938,-0.1661539)"
     id="text93"
     style="font-weight:bold;font-size:11.5263px;line-height:1.25;font-family:sans-serif;-inkscape-font-specification:'sans-serif Bold';fill:#f2f2f2;stroke-width:0.288159" />
  <g
     id="g877"
     transform="matrix(1.1,0,0,1.1,-3.1845928,-3.2065454)">
    <rect
       x="8.3496294"
       y="8.369586"
       width="47.272728"
       height="47.272728"
       rx="9.8825235"
       ry="9.6485243"
       fill="url(#linearGradient862)"
       stroke-width="3.0541"
       id="rect35-7-3"
       style="fill:#414141;fill-opacity:1;stroke:#dfdfdf;stroke-width:2.04545;stroke-dasharray:none;stroke-opacity:1" />
    <path
       style="fill:#dfdfdf;fill-opacity:1;stroke:none;stroke-width:0.482482;stroke-dasharray:none;stroke-opacity:0.6"
       d="m 35.328444,47.47674 c 0,-0.04448 -0.03639,-0.08093 -0.08086,-0.08093 -0.04447,0 -0.08086,-0.03353 -0.08086,-0.07505 0,-0.04129 -0.04244,-0.09163 -0.09433,-0.111618 -0.08986,-0.03462 -0.08986,-0.03973 0,-0.10605 0.05187,-0.03815 0.09433,-0.121332 0.09433,-0.184871 0,-0.0666 0.0342,-0.115266 0.08086,-0.115266 0.0539,0 0.08086,-0.05387 0.08086,-0.161641 0,-0.107825 0.02696,-0.161643 0.08087,-0.161643 0.04447,0 0.08086,-0.03648 0.08086,-0.08079 0,-0.04448 0.03639,-0.08075 0.08086,-0.08075 0.05391,0 0.08087,-0.05385 0.08087,-0.161642 0,-0.107847 0.02694,-0.161669 0.08086,-0.161669 0.04447,0 0.08086,-0.03648 0.08086,-0.08093 0,-0.04448 0.02256,-0.0809 0.05027,-0.0809 0.02768,0 0.06592,-0.04928 0.08503,-0.109522 0.01905,-0.06022 0.09409,-0.173576 0.166641,-0.251883 0.07251,-0.07826 0.146044,-0.198818 0.163365,-0.267749 0.01734,-0.06899 0.05029,-0.125531 0.07324,-0.125531 0.02296,0 0.05509,-0.05094 0.07138,-0.113204 0.01628,-0.06233 0.05546,-0.09727 0.08713,-0.07766 0.03595,0.02222 0.05755,-0.02681 0.05755,-0.129276 0,-0.110611 0.02653,-0.164839 0.08086,-0.164839 0.05032,0 0.08086,-0.05092 0.08086,-0.134758 0,-0.08395 0.03055,-0.134753 0.08087,-0.134753 0.0539,0 0.08079,-0.05391 0.08079,-0.161672 0,-0.09698 0.02587,-0.156191 0.06438,-0.148213 0.03541,0.0075 0.08105,-0.05931 0.101419,-0.148335 0.0204,-0.08888 0.04029,-0.137437 0.04426,-0.107825 0.01461,0.108685 0.111745,-0.112429 0.112531,-0.256024 5.77e-4,-0.09548 0.02983,-0.148306 0.08169,-0.148306 0.05813,0 0.08085,-0.05941 0.08085,-0.211056 0,-0.116092 0.02556,-0.21958 0.0565,-0.229994 0.03115,-0.01029 0.07088,-0.157987 0.0884,-0.327844 0.01767,-0.169922 0.04978,-0.309058 0.07163,-0.309058 0.02222,0 0.05117,-0.138256 0.0652,-0.307181 0.01369,-0.168976 0.05333,-0.31649 0.08751,-0.327879 0.03388,-0.01134 0.06201,-0.116456 0.06201,-0.233495 0,-0.139384 0.02801,-0.223508 0.08079,-0.243876 0.05271,-0.02041 0.08079,-0.104002 0.08079,-0.240892 0,-0.15059 0.02222,-0.209777 0.08093,-0.209777 0.05835,0 0.08087,-0.0599 0.08087,-0.215592 0,-0.155766 0.02192,-0.215622 0.08079,-0.215622 0.05989,0 0.08093,-0.06284 0.08093,-0.242598 0,-0.179697 0.0207,-0.242539 0.08084,-0.242539 0.05971,0 0.08093,-0.06236 0.08093,-0.238061 0,-0.139992 0.0274,-0.249297 0.06739,-0.265221 0.04628,-0.01855 0.04202,-0.02862 -0.01369,-0.03214 -0.07185,-0.0046 -0.07185,-0.01102 0,-0.05642 0.102312,-0.06491 0.111317,-0.881367 0.01102,-0.98184 -0.08919,-0.08922 -0.08696,-0.781506 0.0026,-0.811314 0.05145,-0.01735 0.07148,-0.412969 0.08501,-1.672049 0.01461,-1.383379 0.0046,-1.678451 -0.06383,-1.828197 -0.04518,-0.09903 -0.08939,-0.38092 -0.09926,-0.632556 -0.01157,-0.298581 -0.04072,-0.461536 -0.08443,-0.476128 -0.05002,-0.01671 -0.06659,-0.308566 -0.06659,-1.176578 0,-0.99019 -0.01134,-1.15439 -0.08093,-1.15439 -0.0659,0 -0.08079,-0.08982 -0.08079,-0.485115 0,-0.395278 -0.01461,-0.485114 -0.08093,-0.485114 -0.06642,0 -0.08079,-0.09533 -0.08079,-0.534522 0,-0.379718 -0.01919,-0.541026 -0.06739,-0.556967 -0.04561,-0.0152 -0.0736,-0.186305 -0.0865,-0.530042 -0.01058,-0.279182 -0.04276,-0.522287 -0.07143,-0.540249 -0.0283,-0.01803 -0.06579,-0.133174 -0.0822,-0.256036 -0.01614,-0.122853 -0.04791,-0.223376 -0.06987,-0.223376 -0.02222,0 -0.05544,-0.09703 -0.07437,-0.215609 -0.01889,-0.118585 -0.05843,-0.215605 -0.08778,-0.215605 -0.02923,0 -0.05329,-0.05864 -0.05329,-0.130349 0,-0.176495 -0.05465,-0.306759 -0.113447,-0.270426 -0.02648,0.01643 -0.04859,-0.05045 -0.04898,-0.148531 -10e-4,-0.240666 -0.05487,-0.426252 -0.113205,-0.390183 -0.0262,0.01628 -0.04774,-0.05676 -0.04774,-0.162305 0,-0.134585 -0.02436,-0.191837 -0.08084,-0.191837 -0.05836,0 -0.08079,-0.05989 -0.08079,-0.215604 0,-0.155712 -0.02253,-0.215607 -0.08087,-0.215607 -0.0539,0 -0.08087,-0.0539 -0.08087,-0.161705 0,-0.107825 -0.02709,-0.161705 -0.08087,-0.161705 -0.05862,0 -0.08087,-0.06033 -0.08087,-0.219459 0,-0.123202 -0.03544,-0.254919 -0.08086,-0.300302 -0.04452,-0.04458 -0.0809,-0.149987 -0.0809,-0.234345 0,-0.08434 -0.02578,-0.161973 -0.05737,-0.172489 -0.0316,-0.0105 -0.07115,-0.121693 -0.08796,-0.247049 -0.01679,-0.125357 -0.04901,-0.227917 -0.07152,-0.227917 -0.02255,0 -0.05617,-0.06065 -0.07477,-0.134759 -0.01866,-0.07411 -0.05759,-0.134761 -0.08669,-0.134761 -0.02909,0 -0.05289,-0.06141 -0.05289,-0.136446 0,-0.07505 -0.03639,-0.150412 -0.08086,-0.167474 -0.04437,-0.0168 -0.08077,-0.08962 -0.08077,-0.161498 0,-0.07187 -0.03639,-0.144643 -0.08087,-0.161705 -0.04448,-0.01702 -0.08086,-0.08983 -0.08086,-0.161703 0,-0.07189 -0.03639,-0.144643 -0.08086,-0.161702 -0.04447,-0.01709 -0.08087,-0.08907 -0.08087,-0.160012 0,-0.07872 -0.03148,-0.128991 -0.08086,-0.128991 -0.04447,0 -0.08086,-0.03812 -0.08086,-0.08469 0,-0.04659 -0.03639,-0.121089 -0.08087,-0.165556 -0.04447,-0.04448 -0.08086,-0.127629 -0.08086,-0.184798 0,-0.05717 -0.02255,-0.10396 -0.05027,-0.10396 -0.02769,0 -0.06687,-0.05229 -0.08715,-0.116215 -0.02034,-0.06394 -0.09088,-0.167013 -0.156926,-0.229085 -0.06602,-0.06207 -0.136431,-0.179558 -0.156426,-0.261096 -0.02005,-0.08152 -0.06016,-0.148232 -0.08924,-0.148232 -0.02909,0 -0.05289,-0.03639 -0.05289,-0.08087 0,-0.04447 -0.03639,-0.08087 -0.08086,-0.08087 -0.04447,0 -0.08087,-0.03639 -0.08087,-0.08086 0,-0.04447 -0.03639,-0.08084 -0.08087,-0.08084 -0.04447,0 -0.08086,-0.02433 -0.08086,-0.05391 0,-0.02966 -0.03715,-0.0539 -0.08256,-0.0539 -0.0454,0 -0.09651,-0.03639 -0.113562,-0.08084 -0.01707,-0.04447 -0.08733,-0.08086 -0.156164,-0.08086 -0.06881,0 -0.157925,-0.03279 -0.197995,-0.07285 -0.04015,-0.03994 -0.204606,-0.08541 -0.365509,-0.100874 -0.1609,-0.01544 -0.301658,-0.05543 -0.312794,-0.08885 -0.01282,-0.03857 -0.183853,-0.06074 -0.468148,-0.06074 -0.348418,0 -0.454799,0.01803 -0.478931,0.08087 -0.02052,0.05339 -0.104895,0.08087 -0.248332,0.08087 -0.119522,0 -0.217296,0.02402 -0.217296,0.05328 0,0.02927 -0.09553,0.06853 -0.212276,0.08722 -0.11675,0.01873 -0.225146,0.06749 -0.240862,0.108432 -0.01571,0.04098 -0.05547,0.07449 -0.08834,0.07449 -0.07669,0 -0.374857,0.296807 -0.374857,0.373166 0,0.03192 -0.03639,0.05804 -0.08086,0.05804 -0.04447,0 -0.08087,0.04677 -0.08087,0.10395 0,0.05717 -0.0352,0.139143 -0.0782,0.182145 -0.043,0.043 -0.09409,0.14159 -0.113563,0.219088 -0.0194,0.07751 -0.05704,0.127502 -0.08354,0.111119 -0.02648,-0.01635 -0.04814,0.02016 -0.04814,0.08123 0,0.06272 -0.0352,0.110994 -0.08086,0.110994 -0.04447,0 -0.08087,0.03639 -0.08087,0.08087 0,0.04447 -0.03639,0.08086 -0.08087,0.08086 -0.04447,0 -0.08086,0.03639 -0.08086,0.08087 0,0.04447 -0.0238,0.08087 -0.05289,0.08087 -0.02908,0 -0.06809,0.06066 -0.08671,0.13476 -0.01866,0.07411 -0.06759,0.134759 -0.108839,0.134759 -0.04125,0 -0.07501,0.03639 -0.07501,0.08086 0,0.04447 -0.03639,0.08087 -0.08086,0.08087 -0.04447,0 -0.08087,0.02758 -0.08087,0.0612 0,0.03373 -0.05781,0.114767 -0.12845,0.180239 -0.07063,0.06547 -0.145052,0.17134 -0.165333,0.235266 -0.02037,0.06394 -0.05951,0.116227 -0.08716,0.116227 -0.02769,0 -0.05026,0.03715 -0.05026,0.08253 0,0.0454 -0.03639,0.09652 -0.08087,0.113564 -0.04609,0.01767 -0.08086,0.09807 -0.08086,0.186955 0,0.102659 -0.02767,0.155936 -0.08087,0.155936 -0.05839,0 -0.08087,0.05989 -0.08087,0.215607 0,0.155713 -0.02249,0.215607 -0.08087,0.215607 -0.0539,0 -0.08086,0.05391 -0.08086,0.161704 0,0.107813 -0.02696,0.161702 -0.08087,0.161702 -0.04447,0 -0.07801,0.01818 -0.07448,0.04042 0.02064,0.130626 -0.0168,0.229083 -0.08724,0.229083 -0.04447,0 -0.08086,0.03639 -0.08086,0.08087 0,0.04447 -0.02433,0.08087 -0.05391,0.08087 -0.02969,0 -0.05391,0.03639 -0.05391,0.08087 0,0.04447 -0.03449,0.08086 -0.07658,0.08086 -0.04212,0 -0.09257,0.07277 -0.112081,0.161703 -0.01954,0.08893 -0.05785,0.161706 -0.08512,0.161706 -0.02729,0 -0.04962,0.06141 -0.04962,0.13645 0,0.07505 -0.03639,0.150412 -0.08086,0.167477 -0.05008,0.01918 -0.08087,0.101252 -0.08087,0.215609 0,0.114338 -0.0307,0.196387 -0.08087,0.215595 -0.04916,0.01881 -0.08087,0.100411 -0.08087,0.208149 0,0.107703 -0.03166,0.189279 -0.08086,0.208149 -0.05076,0.0194 -0.08087,0.101902 -0.08087,0.221372 0,0.133263 -0.02422,0.190345 -0.08087,0.190345 -0.05804,0 -0.08087,0.05925 -0.08087,0.209833 0,0.136797 -0.02822,0.220636 -0.08086,0.24086 -0.05817,0.02231 -0.08087,0.113366 -0.08087,0.324687 0,0.173574 -0.02546,0.302125 -0.06203,0.314346 -0.03417,0.01147 -0.07351,0.158936 -0.08753,0.327901 -0.01407,0.168972 -0.04498,0.307215 -0.06881,0.307215 -0.0238,0 -0.06002,0.133408 -0.0804,0.296456 -0.02037,0.163056 -0.05851,0.296465 -0.08473,0.296465 -0.02619,0 -0.04768,0.07103 -0.04768,0.157855 0,0.08682 -0.03293,0.190808 -0.07322,0.231084 -0.04029,0.04029 -0.0849,0.214029 -0.09917,0.386121 -0.01429,0.172087 -0.05685,0.331982 -0.09457,0.355311 -0.05467,0.03379 -0.05371,0.04835 0.0048,0.07164 0.05215,0.02076 0.05395,0.03045 0.0061,0.0335 -0.09859,0.0064 -0.09859,5.428958 0,5.461704 0.04896,0.01633 0.07218,0.249228 0.08492,0.852781 0.0095,0.456722 0.03983,0.844186 0.0671,0.861029 0.02726,0.01705 0.0655,0.186912 0.08501,0.377972 0.01942,0.191022 0.05356,0.359502 0.07573,0.374299 0.0222,0.01461 0.0556,0.124009 0.07431,0.242537 0.01873,0.118585 0.05755,0.223691 0.08627,0.233524 0.02874,0.01029 0.05223,0.08408 0.05223,0.164899 0,0.08075 0.03558,0.194035 0.07915,0.251549 0.04353,0.05757 0.07991,0.159266 0.08086,0.225915 9.76e-4,0.07109 0.0352,0.121295 0.08257,0.121295 0.0539,0 0.08087,0.0539 0.08087,0.161701 0,0.107814 0.02696,0.161672 0.08086,0.161672 0.05392,0 0.08087,0.05391 0.08087,0.161701 0,0.107813 0.02694,0.161671 0.08087,0.161671 0.04447,0 0.08087,0.03647 0.08087,0.08079 0,0.04448 0.02231,0.08093 0.04962,0.08093 0.02729,0 0.06559,0.07282 0.08512,0.1617 0.01948,0.08888 0.06482,0.161673 0.100611,0.161673 0.0358,0 0.06907,0.05295 0.07396,0.117672 0.0048,0.06483 0.04642,0.138686 0.09232,0.164413 0.0459,0.02587 0.08343,0.106093 0.08343,0.178841 0,0.07269 0.02433,0.13214 0.05392,0.13214 0.02968,0 0.05392,0.03647 0.05392,0.08075 0,0.04448 0.03639,0.08079 0.08087,0.08079 0.05056,0 0.08086,0.05115 0.08086,0.136401 0,0.07505 0.03639,0.150374 0.08087,0.167394 0.04447,0.01767 0.08087,0.08982 0.08087,0.161672 0,0.07193 0.03639,0.14471 0.08087,0.16167 0.04447,0.01705 0.08086,0.08908 0.08086,0.159997 0,0.07879 0.03145,0.129032 0.08087,0.129032 0.0539,0 0.08087,0.05387 0.08087,0.161673 0,0.107714 0.02694,0.161639 0.08087,0.161639 0.0539,0 0.08086,0.05387 0.08086,0.16164 0,0.107847 0.02694,0.161641 0.08087,0.161641 0.05391,0 0.08086,0.05391 0.08086,0.161671 0,0.107847 0.02696,0.161641 0.08087,0.161641 0.05029,0 0.08086,0.0509 0.08086,0.134758 0,0.07413 0.02159,0.134725 0.04808,0.134725 0.02648,0 0.06448,0.06544 0.08458,0.145472 0.02008,0.08002 0.09549,0.200187 0.167551,0.266957 0.07206,0.06678 0.131036,0.146752 0.131036,0.177867 0,0.03081 0.03639,0.0565 0.08087,0.0565 0.04936,0 0.08087,0.05024 0.08087,0.129005 0,0.07096 0.03639,0.142884 0.08087,0.159994 0.04447,0.01705 0.08086,0.06809 0.08086,0.11354 0,0.04534 0.03639,0.08245 0.08087,0.08245 0.0503,0 0.08086,0.0509 0.08086,0.134726 0,0.08386 0.03058,0.134757 0.08087,0.134757 0.0539,0 0.08086,0.05393 0.08086,0.161669 0,0.107847 -0.02696,0.161672 -0.08086,0.161672 -0.04447,0 -0.08087,0.03648 -0.08087,0.08079 0,0.04448 -0.03639,0.08087 -0.08086,0.08087 -0.04447,0 -0.08087,0.03647 -0.08087,0.08075 0,0.05835 -0.05989,0.08079 -0.215608,0.08079 -0.155713,0 -0.215596,-0.02253 -0.215596,-0.08079 0,-0.05329 -0.05326,-0.08075 -0.155936,-0.08075 -0.08888,0 -0.169274,-0.03462 -0.18696,-0.08087 -0.01709,-0.04448 -0.06819,-0.08079 -0.113564,-0.08079 -0.04541,0 -0.08255,-0.02344 -0.08255,-0.05283 0,-0.02923 -0.06065,-0.06809 -0.134759,-0.08674 -0.07411,-0.01889 -0.134761,-0.06754 -0.134761,-0.108751 0,-0.04125 -0.03639,-0.07505 -0.08087,-0.07505 -0.04447,0 -0.08086,-0.03647 -0.08086,-0.08093 0,-0.04448 -0.0238,-0.08075 -0.05288,-0.08075 -0.02909,0 -0.06809,-0.06062 -0.08669,-0.134757 -0.01854,-0.07409 -0.06757,-0.134757 -0.108827,-0.134757 -0.04125,0 -0.07503,-0.02772 -0.07503,-0.06117 0,-0.03353 -0.06066,-0.117468 -0.134758,-0.18609 -0.07412,-0.06869 -0.134759,-0.150315 -0.134759,-0.181399 0,-0.03081 -0.03639,-0.05648 -0.08087,-0.05648 -0.04447,0 -0.08087,-0.03648 -0.08087,-0.08078 0,-0.04448 -0.03639,-0.08093 -0.08086,-0.08093 -0.04447,0 -0.08087,-0.03647 -0.08087,-0.08075 0,-0.04448 -0.03639,-0.08093 -0.08087,-0.08093 -0.04567,0 -0.08086,-0.04823 -0.08086,-0.110948 0,-0.06101 -0.02357,-0.09643 -0.05232,-0.07872 -0.02877,0.01735 -0.0678,-0.02954 -0.08671,-0.104549 -0.01894,-0.07529 -0.06811,-0.136978 -0.10939,-0.136978 -0.04125,0 -0.07501,-0.03648 -0.07501,-0.08093 0,-0.04448 -0.03639,-0.08075 -0.08086,-0.08075 -0.04447,0 -0.08087,-0.03649 -0.08087,-0.08079 0,-0.04448 -0.03639,-0.08079 -0.08087,-0.08079 -0.04447,0 -0.08087,-0.03649 -0.08087,-0.08093 0,-0.04451 -0.03639,-0.08075 -0.08086,-0.08075 -0.04447,0 -0.08087,-0.03648 -0.08087,-0.08087 0,-0.04448 -0.03639,-0.08075 -0.08086,-0.08075 -0.04447,0 -0.07478,-0.02071 -0.06739,-0.04601 0.0073,-0.02465 -0.08961,-0.14663 -0.215606,-0.269422 -0.126006,-0.123004 -0.229099,-0.247804 -0.229099,-0.27743 0,-0.02954 -0.03639,-0.05396 -0.08087,-0.05396 -0.04447,0 -0.08087,-0.03649 -0.08087,-0.08075 0,-0.04448 -0.03639,-0.08079 -0.08087,-0.08079 -0.04447,0 -0.08086,-0.03649 -0.08086,-0.08075 0,-0.04448 -0.02826,-0.08084 -0.06289,-0.08084 -0.0346,0 -0.04734,-0.01582 -0.02839,-0.03424 0.019,-0.01919 -0.08612,-0.149613 -0.233564,-0.290277 -0.14746,-0.140693 -0.268101,-0.282726 -0.268101,-0.315822 0,-0.03315 -0.03639,-0.06016 -0.08086,-0.06016 -0.04447,0 -0.08087,-0.03353 -0.08087,-0.07505 0,-0.04129 -0.03639,-0.0891 -0.08086,-0.106094 -0.04447,-0.01705 -0.08087,-0.06562 -0.08087,-0.107847 0,-0.04222 -0.03639,-0.0907 -0.08087,-0.107846 -0.04447,-0.01736 -0.08087,-0.08031 -0.08087,-0.140481 0,-0.06138 -0.0355,-0.109522 -0.08086,-0.109522 -0.05392,0 -0.08087,-0.0539 -0.08087,-0.161673 0,-0.107847 -0.02694,-0.161638 -0.08087,-0.161638 -0.05803,0 -0.08087,-0.05928 -0.08087,-0.209808 0,-0.136767 -0.02822,-0.220677 -0.08086,-0.240863 -0.04726,-0.01855 -0.08087,-0.09893 -0.08087,-0.194492 0,-0.08986 -0.02113,-0.163377 -0.04701,-0.163377 -0.02583,0 -0.06254,-0.097 -0.08148,-0.215624 -0.01897,-0.118585 -0.05846,-0.21559 -0.08773,-0.21559 -0.02925,0 -0.05326,-0.07103 -0.05326,-0.157807 0,-0.08682 -0.03444,-0.192237 -0.07648,-0.234313 -0.04206,-0.04206 -0.0845,-0.146908 -0.09433,-0.232947 -0.01029,-0.08958 -0.04662,-0.150681 -0.08524,-0.14298 -0.04344,0.0079 -0.06739,-0.05225 -0.06739,-0.171323 0,-0.101629 -0.03639,-0.221223 -0.08086,-0.265645 -0.04447,-0.04448 -0.08087,-0.14319 -0.08087,-0.219485 0,-0.08727 -0.03003,-0.138599 -0.08087,-0.138599 -0.05803,0 -0.08086,-0.05926 -0.08086,-0.209817 0,-0.1368 -0.02822,-0.220634 -0.08087,-0.240862 -0.05286,-0.02034 -0.08087,-0.104255 -0.08087,-0.242562 0,-0.138298 -0.028,-0.222271 -0.08086,-0.242559 -0.05299,-0.02037 -0.08087,-0.104381 -0.08087,-0.243836 0,-0.117042 -0.02793,-0.222114 -0.06203,-0.233492 -0.03417,-0.01147 -0.07353,-0.158867 -0.08755,-0.327847 -0.01406,-0.168971 -0.04672,-0.307214 -0.07271,-0.307214 -0.02595,0 -0.04743,-0.103079 -0.04768,-0.229079 -6.89e-4,-0.351236 -0.06329,-0.795434 -0.108188,-0.767694 -0.0221,0.01367 -0.05096,-0.125044 -0.06422,-0.308199 -0.01351,-0.18681 -0.05183,-0.342245 -0.08729,-0.35406 -0.03536,-0.01178 -0.06317,-0.124098 -0.06317,-0.255277 0,-0.136322 -0.03379,-0.268007 -0.08083,-0.315073 -0.05659,-0.05676 -0.08082,-0.195223 -0.08082,-0.462165 0,-0.302872 -0.0167,-0.381159 -0.08083,-0.381159 -0.06213,0 -0.08087,-0.06906 -0.08087,-0.298151 0,-0.215306 -0.02253,-0.306775 -0.08086,-0.329171 -0.06848,-0.02652 -0.08095,-0.209175 -0.08095,-1.184435 0,-1.061956 0.0073,-1.15318 0.09433,-1.15394 0.08061,-7.14e-4 0.08256,-0.0083 0.01351,-0.05309 -0.0539,-0.03481 -0.05839,-0.05252 -0.01351,-0.05309 0.05151,-6.31e-4 0.0674,-0.240875 0.0674,-1.01919 0,-0.812999 0.01485,-1.02408 0.07391,-1.046724 0.0546,-0.02093 0.07647,-0.164994 0.08364,-0.551446 0.007,-0.374199 0.03198,-0.545292 0.08778,-0.601119 0.05161,-0.05161 0.07803,-0.193121 0.07803,-0.417948 0,-0.2158 0.026,-0.361474 0.07115,-0.398965 0.03916,-0.03243 0.07696,-0.186511 0.08407,-0.342299 0.007,-0.155788 0.03755,-0.298475 0.06768,-0.317087 0.0301,-0.01866 0.06827,-0.134364 0.08474,-0.257216 0.01647,-0.122857 0.04784,-0.223378 0.06968,-0.223378 0.02185,0 0.05319,-0.100506 0.06969,-0.223378 0.01647,-0.12285 0.05254,-0.238076 0.08018,-0.256033 0.02767,-0.01803 0.06694,-0.12362 0.08736,-0.234783 0.02041,-0.111167 0.06032,-0.202142 0.08864,-0.202142 0.02839,0 0.05179,-0.127332 0.0522,-0.282975 8.83e-4,-0.335049 0.04681,-0.535832 0.113204,-0.494803 0.02621,0.01628 0.04777,-0.04266 0.04777,-0.130871 0,-0.08821 -0.02925,-0.170157 -0.06506,-0.182091 -0.03983,-0.01349 -0.07348,-0.171853 -0.08689,-0.408915 -0.01604,-0.283619 -0.04186,-0.387069 -0.09664,-0.387069 -0.04716,0 -0.07478,-0.05976 -0.07478,-0.161703 0,-0.08893 -0.0238,-0.161705 -0.05288,-0.161705 -0.02909,0 -0.06809,-0.06066 -0.08669,-0.134759 -0.01866,-0.07411 -0.05543,-0.134758 -0.08188,-0.134758 -0.02648,0 -0.04808,-0.03714 -0.04808,-0.08254 0,-0.04541 -0.03419,-0.09566 -0.076,-0.111711 -0.04181,-0.01604 -0.09075,-0.08804 -0.108838,-0.160019 -0.01803,-0.07196 -0.05665,-0.13085 -0.08572,-0.13085 -0.02909,0 -0.05289,-0.03639 -0.05289,-0.08087 0,-0.04447 -0.03639,-0.08087 -0.08086,-0.08087 -0.04447,0 -0.08084,-0.03639 -0.08084,-0.08087 0,-0.04447 -0.03639,-0.08086 -0.08087,-0.08086 -0.04447,0 -0.08087,-0.03639 -0.08087,-0.08087 0,-0.04447 -0.03639,-0.08087 -0.08086,-0.08087 -0.04447,0 -0.08084,-0.03639 -0.08084,-0.08085 0,-0.04447 -0.02737,-0.08086 -0.06101,-0.08086 -0.05285,0 -0.229388,-0.172479 -0.464526,-0.453845 -0.09826,-0.117588 -0.08821,-0.462483 0.01351,-0.462483 0.04447,0 0.0752,-0.01822 0.06835,-0.04042 -0.01919,-0.06204 0.189295,-0.282978 0.267048,-0.282978 0.03788,0 0.06886,-0.02161 0.06886,-0.04808 0,-0.02648 0.06066,-0.06326 0.134758,-0.08188 0.07412,-0.01866 0.13476,-0.0576 0.13476,-0.08669 0,-0.02908 0.06142,-0.05288 0.136444,-0.05288 0.07505,0 0.15041,-0.03639 0.167475,-0.08087 0.0192,-0.05009 0.101241,-0.08086 0.215605,-0.08086 0.11434,0 0.196395,-0.0307 0.215608,-0.08087 0.01778,-0.04636 0.09826,-0.08086 0.188656,-0.08086 0.09041,0 0.170868,-0.03451 0.188659,-0.08087 0.02702,-0.0704 0.388043,-0.08087 2.796693,-0.08087 2.164623,0 2.770551,0.01464 2.78813,0.0674 0.01559,0.04672 0.160196,0.0674 0.471639,0.0674 0.311433,0 0.456066,-0.02064 0.471637,-0.0674 0.01736,-0.05214 0.43664,-0.0674 1.853801,-0.0674 1.074512,0 1.818924,0.02007 1.801293,0.04863 -0.01647,0.02674 0.11743,0.06575 0.297705,0.08665 0.372676,0.04327 1.019624,-0.01103 1.019624,-0.08567 0,-0.02891 0.600214,-0.04994 1.441866,-0.05034 1.426159,-7.15e-4 1.711135,-0.02032 1.653685,-0.113205 -0.01675,-0.02691 0.314247,-0.04779 0.758412,-0.04779 0.438744,0 0.774969,0.02097 0.758672,0.04733 -0.05565,0.09003 0.31177,0.114361 1.727538,0.114361 1.227755,0 1.421647,0.01103 1.421647,0.08086 0,0.04447 0.03648,0.08084 0.08079,0.08084 0.04452,0 0.08079,0.03639 0.08079,0.08087 0,0.04447 0.03648,0.08084 0.08095,0.08084 0.05343,0 0.08079,0.05349 0.08079,0.157855 0,0.08681 -0.03647,0.194244 -0.08079,0.238703 -0.04451,0.04447 -0.08095,0.10682 -0.08095,0.1386 0,0.03176 -0.03647,0.05775 -0.08079,0.05775 -0.04451,0 -0.08079,0.03639 -0.08079,0.08087 0,0.04448 -0.03647,0.08087 -0.08096,0.08087 -0.04451,0 -0.08079,0.03639 -0.08079,0.08087 0,0.04447 -0.03647,0.08086 -0.08093,0.08086 -0.04451,0 -0.08085,0.03639 -0.08085,0.08087 0,0.04447 -0.03648,0.08087 -0.08093,0.08087 -0.04451,0 -0.08084,0.03639 -0.08084,0.08087 0,0.04447 -0.03649,0.08086 -0.08079,0.08086 -0.04448,0 -0.08079,0.02764 -0.08079,0.06118 0,0.03366 -0.05784,0.114767 -0.128484,0.180247 -0.07064,0.06547 -0.145079,0.171345 -0.165355,0.235268 -0.02039,0.06393 -0.05956,0.116226 -0.08721,0.116226 -0.02772,0 -0.05024,0.03639 -0.05024,0.08087 0,0.04447 -0.03648,0.08087 -0.08079,0.08087 -0.04448,0 -0.08085,0.03714 -0.08085,0.08254 0,0.04541 -0.03647,0.09652 -0.08079,0.113562 -0.04448,0.01708 -0.0809,0.08908 -0.0809,0.160011 0,0.07871 -0.03182,0.128986 -0.08093,0.128986 -0.0493,0 -0.08079,0.05028 -0.08079,0.128999 0,0.07094 -0.03647,0.142944 -0.08093,0.160017 -0.05338,0.02049 -0.08079,0.104895 -0.08079,0.248328 0,0.119522 -0.02436,0.217296 -0.05393,0.217296 -0.02953,0 -0.05391,0.03639 -0.05391,0.08087 0,0.04447 0.02468,0.08087 0.05391,0.08087 0.02954,0 0.05393,0.109148 0.05393,0.242555 0,0.179676 0.02069,0.242556 0.08079,0.242556 0.05056,0 0.08093,0.05109 0.08093,0.136448 0,0.07504 0.03649,0.150411 0.08079,0.167476 0.04448,0.01709 0.08093,0.08907 0.08093,0.160017 0,0.07871 0.03181,0.128985 0.0809,0.128985 0.04448,0 0.08079,0.03812 0.08079,0.08474 0,0.04658 0.03648,0.12109 0.08085,0.165558 0.04448,0.04447 0.08079,0.141496 0.08079,0.215606 0,0.07411 0.03647,0.171134 0.08087,0.215597 0.04448,0.04447 0.08079,0.164015 0.08079,0.265657 0,0.10164 0.02253,0.184795 0.04996,0.184795 0.02709,0 0.0667,0.133407 0.08706,0.296459 0.0207,0.163056 0.05853,0.296457 0.0847,0.296457 0.0268,0 0.04764,0.07103 0.04764,0.157857 0,0.08682 0.03647,0.194246 0.08096,0.238702 0.04786,0.04791 0.08093,0.179675 0.08093,0.323409 0,0.143739 0.03315,0.275496 0.08095,0.323419 0.06059,0.06059 0.08079,0.210038 0.08079,0.596766 0,0.422657 0.01461,0.515918 0.08079,0.515918 0.06466,0 0.08093,0.08087 0.08093,0.404259 0,0.259617 0.02161,0.404261 0.05971,0.404261 0.03283,0 0.04523,0.03762 0.02772,0.08362 -0.01889,0.04795 -0.0093,0.0696 0.02102,0.0507 0.03283,-0.02045 0.05331,0.102459 0.05331,0.323791 0,0.19619 0.02132,0.343433 0.04784,0.32719 0.06607,-0.04085 0.112312,0.159359 0.113204,0.490312 5.19e-4,0.174336 0.02587,0.286877 0.06813,0.30091 0.05021,0.01671 0.07194,0.306472 0.08561,1.136645 0.01103,0.651656 0.03857,1.101623 0.06734,1.083872 0.02829,-0.01767 0.04914,0.251813 0.04914,0.64342 0,0.391037 -0.02284,0.687746 -0.05391,0.70708 -0.03182,0.01965 -0.05393,0.340873 -0.05393,0.781574 0,0.440696 0.02222,0.76195 0.05393,0.781573 0.03115,0.01954 0.05391,0.334009 0.05391,0.760983 0,0.471386 -0.01919,0.715936 -0.05391,0.694357 -0.03424,-0.02101 -0.05393,0.10595 -0.05393,0.343326 0,0.262916 -0.02466,0.401058 -0.08079,0.457496 -0.04535,0.0454 -0.08093,0.177103 -0.08093,0.300315 0,0.159141 -0.02222,0.21945 -0.08079,0.21945 -0.06218,0 -0.08093,0.06906 -0.08093,0.298151 0,0.215299 -0.02253,0.306774 -0.08087,0.329173 -0.06582,0.02512 -0.08093,0.154334 -0.08093,0.693257 0,0.538926 -0.01493,0.668013 -0.08079,0.693266 -0.0611,0.02313 -0.08092,0.122335 -0.08092,0.405538 0,0.231364 -0.02344,0.382294 -0.06117,0.394895 -0.03931,0.01248 -0.07105,0.261139 -0.08875,0.689986 -0.01918,0.459772 -0.05048,0.692471 -0.100537,0.742578 -0.04015,0.04016 -0.07297,0.156162 -0.07297,0.257791 0,0.101682 -0.02376,0.184813 -0.05329,0.184813 -0.02954,0 -0.06878,0.09695 -0.08772,0.215591 -0.01919,0.118585 -0.05565,0.215623 -0.08142,0.215623 -0.02587,0 -0.04698,0.03647 -0.04698,0.08079 0,0.04448 -0.03649,0.08074 -0.08079,0.08074 -0.04451,0 -0.08079,0.04671 -0.08079,0.10395 0,0.05726 -0.03283,0.137098 -0.07373,0.177653 -0.04055,0.04053 -0.09073,0.127206 -0.111433,0.192545 -0.0207,0.06536 -0.06039,0.118683 -0.08799,0.118683 -0.02772,0 -0.05021,0.07273 -0.05021,0.16167 0,0.107847 -0.02681,0.161642 -0.08079,0.161642 -0.05393,0 -0.08079,0.0539 -0.08079,0.161671 0,0.107847 -0.02681,0.16164 -0.08079,0.16164 -0.05391,0 -0.08079,0.05399 -0.08079,0.161642 0,0.08888 -0.02344,0.161641 -0.05286,0.161641 -0.02923,0 -0.06956,0.06642 -0.08997,0.147695 -0.02039,0.08129 -0.06935,0.179907 -0.108751,0.219489 -0.03937,0.03931 -0.07176,0.106413 -0.07176,0.148731 0,0.04239 -0.03649,0.07704 -0.08093,0.07704 -0.04448,0 -0.08079,0.03649 -0.08079,0.08085 0,0.04448 -0.02469,0.08075 -0.05391,0.08075 -0.02983,0 -0.05399,0.03647 -0.05399,0.08087 0,0.04448 -0.03649,0.08075 -0.08093,0.08075 -0.04452,0 -0.08079,0.03649 -0.08079,0.08089 0,0.04448 -0.03648,0.08078 -0.08085,0.08078 -0.04451,0 -0.08093,0.03649 -0.08093,0.08075 0,0.04448 -0.03647,0.08079 -0.08084,0.08079 -0.05024,0 -0.08079,0.05092 -0.08079,0.134727 0,0.08384 -0.03047,0.134757 -0.08079,0.134757 -0.04492,0 -0.08087,0.04789 -0.08087,0.107846 0,0.0599 -0.03574,0.107825 -0.08079,0.107825 -0.05024,0 -0.08087,0.05092 -0.08087,0.134725 0,0.08386 -0.03047,0.134756 -0.08093,0.134756 -0.04452,0 -0.08079,0.02556 -0.08079,0.0565 0,0.03046 -0.06065,0.112716 -0.134757,0.181368 -0.07409,0.06872 -0.134755,0.152447 -0.134755,0.186089 0,0.03353 -0.03649,0.06119 -0.08093,0.06119 -0.04448,0 -0.08087,0.03649 -0.08087,0.08079 0,0.04448 -0.03647,0.08075 -0.08079,0.08075 -0.04452,0 -0.08087,0.03649 -0.08087,0.08087 0,0.04448 -0.03648,0.08075 -0.08079,0.08075 -0.04451,0 -0.08079,0.03647 -0.08079,0.08079 0,0.04448 -0.02709,0.08085 -0.06123,0.08085 -0.03353,0 -0.11743,0.06062 -0.186059,0.134757 -0.0687,0.07409 -0.150284,0.134727 -0.18134,0.134727 -0.03113,0 -0.05649,0.03647 -0.05649,0.08075 0,0.04448 -0.03647,0.08093 -0.08084,0.08093 -0.04448,0 -0.08079,0.03647 -0.08079,0.08079 0,0.04451 -0.0364,0.08079 -0.08087,0.08079 -0.04448,0 -0.08085,0.03647 -0.08085,0.08079 0,0.05024 -0.05091,0.08093 -0.134757,0.08093 -0.08384,0 -0.134755,0.03047 -0.134755,0.08075 0,0.04448 -0.0364,0.08093 -0.08079,0.08093 -0.04446,0 -0.08079,0.03647 -0.08079,0.08075 0,0.04448 -0.03638,0.08079 -0.08085,0.08079 -0.04446,0 -0.08087,0.03647 -0.08087,0.08078 0,0.04448 -0.03638,0.08079 -0.08087,0.08079 -0.04446,0 -0.08087,0.02344 -0.08087,0.05387 0,0.02953 -0.03662,0.0539 -0.08139,0.0539 -0.04476,0 -0.122915,0.04857 -0.173687,0.107847 -0.05076,0.05931 -0.114455,0.107846 -0.141517,0.107846 -0.02712,0 -0.105421,0.06062 -0.174108,0.134726 -0.06855,0.07411 -0.174413,0.134725 -0.235112,0.134725 -0.06218,0 -0.11038,0.03538 -0.11038,0.08075 0,0.05391 -0.05391,0.08079 -0.161701,0.08079 -0.107824,0 -0.161705,0.02681 -0.161705,0.08075 0,0.04448 -0.03639,0.08079 -0.08086,0.08079 -0.04447,0 -0.08086,-0.03648 -0.08086,-0.08079 z M 32.552513,32.842476 c -0.01834,-0.02968 -0.128905,-0.05391 -0.245742,-0.05391 -0.152888,0 -0.212432,-0.02255 -0.212432,-0.08087 0,-0.04447 -0.03639,-0.08086 -0.08087,-0.08086 -0.04448,0 -0.08086,-0.03639 -0.08086,-0.08086 0,-0.04447 -0.03639,-0.08087 -0.08087,-0.08087 -0.04447,0 -0.08087,-0.03639 -0.08087,-0.08086 0,-0.04448 -0.03639,-0.08086 -0.08087,-0.08086 -0.05029,0 -0.08086,-0.0509 -0.08086,-0.134758 0,-0.08384 -0.03055,-0.134761 -0.08087,-0.134761 -0.04493,0 -0.08087,-0.04791 -0.08087,-0.107802 0,-0.05929 -0.02255,-0.107825 -0.05026,-0.107825 -0.02767,0 -0.06723,-0.05344 -0.08796,-0.118767 -0.02072,-0.06532 -0.07087,-0.151944 -0.111421,-0.1925 -0.04055,-0.04055 -0.07375,-0.120518 -0.07375,-0.177697 0,-0.05717 -0.03639,-0.10395 -0.08087,-0.10395 -0.0503,0 -0.08087,-0.05091 -0.08087,-0.134759 0,-0.07411 -0.0238,-0.134756 -0.05289,-0.134756 -0.02908,0 -0.06922,-0.06668 -0.08915,-0.14823 -0.01999,-0.08152 -0.06287,-0.165591 -0.09536,-0.18682 -0.07393,-0.04831 -0.06463,-2.144144 0.0097,-2.192518 0.02767,-0.01803 0.06336,-0.150969 0.07922,-0.295456 0.01596,-0.14449 0.05384,-0.278131 0.08438,-0.297001 0.0305,-0.01881 0.07218,-0.100748 0.09258,-0.181988 0.02037,-0.08123 0.05872,-0.14769 0.08511,-0.14769 0.02648,0 0.04808,-0.03639 0.04808,-0.08086 0,-0.04448 0.03639,-0.08087 0.08087,-0.08087 0.04447,0 0.08087,-0.03639 0.08087,-0.08087 0,-0.04936 0.05027,-0.08087 0.128991,-0.08087 0.07095,0 0.142944,-0.03639 0.160009,-0.08086 0.01708,-0.04447 0.05778,-0.08087 0.09046,-0.08087 0.03269,0 0.09583,-0.03639 0.140293,-0.08087 0.05203,-0.05201 0.185236,-0.08086 0.373458,-0.08086 0.197721,0 0.292879,-0.02185 0.293429,-0.06739 5.98e-4,-0.04936 0.01327,-0.04771 0.04739,0.0062 0.03929,0.06202 0.05178,0.06202 0.08002,0 0.02592,-0.05689 0.04057,-0.05826 0.06491,-0.0062 0.01816,0.03901 0.131755,0.06739 0.269511,0.06739 0.190485,0 0.23823,0.01881 0.2389,0.09432 7.04e-4,0.08061 0.0083,0.08256 0.05309,0.01351 0.03484,-0.0539 0.05252,-0.05839 0.05309,-0.01351 4.3e-4,0.03706 0.03796,0.06739 0.08336,0.06739 0.0454,0 0.09651,0.03639 0.113563,0.08087 0.01709,0.04447 0.07772,0.08087 0.134759,0.08087 0.05705,0 0.117699,0.03639 0.134761,0.08086 0.01709,0.04447 0.06482,0.08087 0.106127,0.08087 0.0413,0 0.0751,0.03639 0.0751,0.08087 0,0.04447 0.03639,0.08087 0.08086,0.08087 0.05029,0 0.08087,0.0509 0.08087,0.134759 0,0.08384 0.03055,0.134759 0.08086,0.134759 0.04448,0 0.08086,0.03379 0.08086,0.07509 0,0.0413 0.03639,0.08905 0.08087,0.106104 0.04448,0.01702 0.08086,0.06819 0.08086,0.113564 0,0.0454 0.0238,0.08253 0.0529,0.08253 0.02909,0 0.0681,0.06066 0.08671,0.134759 0.01854,0.07412 0.0528,0.134761 0.07603,0.134761 0.02324,0 0.05889,0.06644 0.07926,0.147693 0.02037,0.08123 0.05633,0.160063 0.07988,0.175176 0.02359,0.01511 0.05743,0.148576 0.07532,0.296574 0.01785,0.147997 0.05733,0.277361 0.08769,0.28748 0.07332,0.02438 0.07332,0.964616 0,0.989046 -0.03036,0.01018 -0.0697,0.139468 -0.08747,0.287474 -0.01772,0.147997 -0.05356,0.277174 -0.07956,0.287048 -0.02603,0.01 -0.0473,0.07559 -0.0473,0.146011 0,0.168454 -0.170359,0.506773 -0.256033,0.50846 -0.03706,7.36e-4 -0.06739,0.06198 -0.06739,0.136082 0,0.08384 -0.03055,0.134759 -0.08086,0.134759 -0.04448,0 -0.08086,0.03639 -0.08086,0.08087 0,0.04447 -0.03639,0.08087 -0.08087,0.08087 -0.04448,0 -0.08086,0.03639 -0.08086,0.08087 0,0.04448 -0.03639,0.08086 -0.08087,0.08086 -0.04448,0 -0.08086,0.03639 -0.08086,0.08086 0,0.04447 -0.03379,0.08087 -0.0751,0.08087 -0.0413,0 -0.08905,0.03639 -0.106116,0.08086 -0.01702,0.04447 -0.0803,0.08086 -0.140519,0.08086 -0.06139,0 -0.109511,0.0355 -0.109511,0.08086 0,0.05391 -0.0539,0.08087 -0.161707,0.08087 -0.107814,0 -0.1617,0.02694 -0.1617,0.08086 0,0.06122 -0.06625,0.08087 -0.272691,0.08087 -0.168062,0 -0.259906,0.0207 -0.239372,0.0539 0.01832,0.02969 0.009,0.0539 -0.02055,0.0539 -0.02969,0 -0.06887,-0.02433 -0.08722,-0.0539 z"
       id="path1-6" />
    <rect
       x="37.737823"
       y="37.757782"
       width="22.610399"
       height="22.610399"
       rx="4.7267799"
       ry="4.6148596"
       fill="url(#linearGradient862)"
       stroke-width="3.0541"
       id="rect35-7-3-1"
       style="fill:#414141;fill-opacity:1;stroke:#dfdfdf;stroke-width:0.978336;stroke-dasharray:none;stroke-opacity:1" />
    <path
       id="path1"
       style="fill:#dfdfdf;fill-opacity:1;stroke:none;stroke-width:0.224244;stroke-dasharray:none;stroke-dashoffset:2.2;stroke-opacity:0.6"
       d="m 53.054544,43.299438 c -0.231167,-9.7e-5 -0.478613,0.09299 -0.788298,0.274436 -0.736938,0.431788 -1.700715,0.635422 -3.024237,0.635422 -1.323397,0 -2.319324,-0.207971 -3.051873,-0.637265 -0.587409,-0.344229 -0.938101,-0.348791 -1.431082,-0.01642 -1.265645,0.852917 -2.219508,3.587517 -2.499329,7.160943 -0.167795,2.14283 -0.01103,3.27254 0.543328,3.908309 0.267381,0.306528 0.923785,0.254559 1.515809,-0.12156 0.501846,-0.318836 1.099794,-1.022374 1.814177,-2.134665 0.645548,-1.005122 1.426374,-1.336165 3.153173,-1.338993 1.723362,-0.0026 2.400625,0.323379 3.195531,1.545274 1.333668,2.050042 2.566393,2.763747 3.289465,1.90442 0.40058,-0.476052 0.473899,-0.936006 0.454923,-2.851106 -0.03457,-3.478896 -0.94394,-6.643709 -2.254366,-7.851617 -0.349004,-0.321703 -0.619985,-0.476908 -0.917221,-0.477033 z m -7.486939,2.049926 h 0.799346 0.79934 v 0.685152 0.685155 h 0.685156 0.685148 v 0.856441 0.856435 h -0.685148 -0.685156 v 0.742248 0.742251 h -0.723826 c -0.397652,0 -0.755645,-0.03568 -0.797503,-0.07735 -0.04185,-0.04185 -0.07732,-0.374141 -0.07732,-0.740403 v -0.666745 h -0.685161 -0.685156 v -0.856437 -0.856439 h 0.685156 0.685149 v -0.685157 z m 6.516311,0 c 0.721112,0 1.029934,0.798977 0.510182,1.318734 -0.330544,0.330508 -0.632217,0.356486 -0.957741,0.08106 -0.56463,-0.477772 -0.269928,-1.399771 0.447559,-1.399771 z m -1.386879,1.464237 c 0.180072,1.21e-4 0.361362,0.07187 0.50465,0.230203 0.223372,0.246825 0.247504,0.811915 0.04607,1.075615 -0.394228,0.516094 -1.340833,0.18413 -1.340833,-0.469659 0,-0.496196 0.39399,-0.836453 0.790134,-0.836178 z m 2.830855,0.02772 c 0.207551,0.0039 0.409039,0.07252 0.526752,0.202589 0.223372,0.246826 0.247471,0.811914 0.04604,1.075617 -0.419316,0.548931 -1.340835,0.181519 -1.340835,-0.534125 0,-0.216927 0.08692,-0.452038 0.2081,-0.56175 0.138541,-0.125395 0.35239,-0.186127 0.559914,-0.182325 z m -1.394247,1.477124 c 0.639304,0 0.95037,0.678118 0.563588,1.230325 -0.132224,0.188768 -0.293477,0.254171 -0.626215,0.254171 -0.383084,0 -0.471983,-0.04986 -0.626209,-0.348115 -0.30411,-0.588069 0.02772,-1.136394 0.688836,-1.136394 z" />
  </g>
</svg>
