<?xml version="1.0" encoding="UTF-8" standalone="no"?>
<svg
   width="64"
   height="64"
   version="1.1"
   id="svg73"
   sodipodi:docname="steam_icon_368260.svg"
   inkscape:version="1.4.2 (ebf0e940d0, 2025-05-08)"
   xmlns:inkscape="http://www.inkscape.org/namespaces/inkscape"
   xmlns:sodipodi="http://sodipodi.sourceforge.net/DTD/sodipodi-0.dtd"
   xmlns="http://www.w3.org/2000/svg"
   xmlns:svg="http://www.w3.org/2000/svg"
   xmlns:rdf="http://www.w3.org/1999/02/22-rdf-syntax-ns#"
   xmlns:cc="http://creativecommons.org/ns#"
   xmlns:dc="http://purl.org/dc/elements/1.1/">
  <metadata
     id="metadata77">
    <rdf:RDF>
      <cc:Work
         rdf:about="">
        <dc:format>image/svg+xml</dc:format>
        <dc:type
           rdf:resource="http://purl.org/dc/dcmitype/StillImage" />
      </cc:Work>
    </rdf:RDF>
  </metadata>
  <sodipodi:namedview
     pagecolor="#f5f7fa"
     bordercolor="#666666"
     borderopacity="1"
     objecttolerance="10"
     gridtolerance="10"
     guidetolerance="10"
     inkscape:pageopacity="0"
     inkscape:pageshadow="2"
     inkscape:window-width="1377"
     inkscape:window-height="886"
     id="namedview75"
     showgrid="false"
     inkscape:zoom="6.2890624"
     inkscape:cx="47.622361"
     inkscape:cy="45.396274"
     inkscape:window-x="147"
     inkscape:window-y="75"
     inkscape:window-maximized="0"
     inkscape:current-layer="g877"
     inkscape:document-rotation="0"
     inkscape:pagecheckerboard="0"
     inkscape:showpageshadow="2"
     inkscape:deskcolor="#d1d1d1" />
  <defs
     id="defs29" />
  <circle
     cx="32.516094"
     cy="31.877844"
     r="0"
     fill="url(#b)"
     stroke-width="1.5715"
     id="circle41"
     style="fill:url(#b)" />
  <g
     aria-label="GZ"
     transform="matrix(1.2212657,0,0,0.81882264,0.4960938,-0.1661539)"
     id="text93"
     style="font-weight:bold;font-size:11.5263px;line-height:1.25;font-family:sans-serif;-inkscape-font-specification:'sans-serif Bold';fill:#f2f2f2;stroke-width:0.288159" />
  <g
     id="g877"
     transform="matrix(1.1,0,0,1.1,-3.1845928,-3.2065454)">
    <rect
       x="8.3496294"
       y="8.369586"
       width="47.272728"
       height="47.272728"
       rx="9.8825235"
       ry="9.6485243"
       fill="url(#linearGradient862)"
       stroke-width="3.0541"
       id="rect35-7-3"
       style="fill:#414141;fill-opacity:1;stroke:#dfdfdf;stroke-width:2.04545;stroke-dasharray:none;stroke-opacity:1" />
    <path
       style="fill:#dfdfdf;fill-opacity:1;stroke:none;stroke-width:0.463097;stroke-dasharray:none;stroke-opacity:0.6"
       d="m 32.200024,46.829354 c -0.442518,-0.57351 -0.968873,-1.190196 -1.169682,-1.370401 -0.355926,-0.319397 -0.389531,-0.307825 -1.336877,0.461744 -0.534475,0.43417 -1.067455,0.847747 -1.184399,0.919046 -0.326875,0.199302 0.06843,-1.066252 0.592242,-1.896012 0.240057,-0.380249 0.436457,-0.721424 0.436457,-0.758123 0,-0.06791 -1.126338,-0.562954 -1.645761,-0.723303 -0.31481,-0.09722 -1.065817,-2.386807 -1.134368,-3.458384 -0.02857,-0.4468 -0.253773,-0.905393 -0.716297,-1.458719 -0.371036,-0.443881 -0.67461,-0.948125 -0.67461,-1.120547 0,-0.760334 1.388149,-2.793868 3.507041,-5.137551 1.490218,-1.648308 2.078928,-2.562093 2.361176,-3.664974 0.23734,-0.927406 0.265161,-0.957533 0.904739,-0.979743 0.713822,-0.0248 1.334177,-0.467125 1.588734,-1.132821 0.239635,-0.626675 -0.200512,-1.482525 -1.457089,-2.833248 -0.880174,-0.946128 -1.101789,-1.303262 -1.103242,-1.777909 -0.0017,-0.584337 1.804275,-5.751226 2.012903,-5.758626 0.05882,-0.002 -0.04861,0.791882 -0.238679,1.764367 -0.656122,3.356922 -0.422057,4.544989 1.452584,7.372986 0.648572,0.978403 0.847145,1.456401 0.907529,2.184569 0.06718,0.810394 0.01315,1.008328 -0.413729,1.515674 -0.270067,0.320958 -1.196872,1.067849 -2.059571,1.659761 -2.401252,1.647543 -4.599277,3.843226 -5.273018,5.267401 -0.53835,1.137983 -0.730389,2.408985 -0.395276,2.616107 0.08908,0.05505 0.621189,-0.468281 1.182468,-1.162973 0.561279,-0.694684 1.773713,-1.863673 2.694292,-2.597756 5.473872,-4.364921 6.398332,-6.485353 4.211674,-9.660289 -0.751479,-1.091116 -0.703714,-1.599176 0.06405,-0.681051 1.184481,1.416493 2.929231,5.268768 2.929231,6.467516 0,0.540315 -1.397989,3.309007 -2.150627,4.259301 -0.327466,0.413463 -1.303656,1.212192 -2.169307,1.774946 -2.815769,1.830537 -3.467649,2.297025 -4.116316,2.945689 -0.351316,0.351301 -0.612429,0.717769 -0.580245,0.814327 0.0322,0.09656 0.548888,0.526594 1.148226,0.955629 l 1.089703,0.780087 1.349111,-1.002233 c 0.742007,-0.551226 1.77131,-1.243815 2.287334,-1.53906 1.241431,-0.710335 1.658407,-1.164273 2.416732,-2.630976 0.72417,-1.40064 1.088102,-1.66525 1.088102,-0.79116 0,0.889411 -0.680486,1.904551 -1.84527,2.752767 -0.580976,0.423078 -1.056325,0.819941 -1.056325,0.881926 0,0.06198 0.176163,0.191325 0.391485,0.287382 0.353741,0.157834 0.233107,0.274639 -1.251077,1.211114 -2.251492,1.420639 -2.228001,1.37567 -1.236501,2.36718 0.946663,0.946654 1.550387,1.862964 1.551367,2.354601 5.45e-4,0.248427 -0.41561,-0.03814 -1.548676,-1.066962 l -1.549357,-1.406624 -0.43771,0.411211 -0.437713,0.411213 0.602973,0.746429 c 0.331636,0.410531 0.695299,0.924547 0.808143,1.142257 0.296559,0.572134 0.571657,1.326981 0.48361,1.326981 -0.04159,0 -0.437644,-0.469231 -0.880162,-1.042757 z"
       id="path1-9" />
    <rect
       x="37.737823"
       y="37.757782"
       width="22.610399"
       height="22.610399"
       rx="4.7267799"
       ry="4.6148596"
       fill="url(#linearGradient862)"
       stroke-width="3.0541"
       id="rect35-7-3-1"
       style="fill:#414141;fill-opacity:1;stroke:#dfdfdf;stroke-width:0.978336;stroke-dasharray:none;stroke-opacity:1" />
    <path
       id="path1"
       style="fill:#dfdfdf;fill-opacity:1;stroke:none;stroke-width:0.224244;stroke-dasharray:none;stroke-dashoffset:2.2;stroke-opacity:0.6"
       d="m 53.054544,43.299438 c -0.231167,-9.7e-5 -0.478613,0.09299 -0.788298,0.274436 -0.736938,0.431788 -1.700715,0.635422 -3.024237,0.635422 -1.323397,0 -2.319324,-0.207971 -3.051873,-0.637265 -0.587409,-0.344229 -0.938101,-0.348791 -1.431082,-0.01642 -1.265645,0.852917 -2.219508,3.587517 -2.499329,7.160943 -0.167795,2.14283 -0.01103,3.27254 0.543328,3.908309 0.267381,0.306528 0.923785,0.254559 1.515809,-0.12156 0.501846,-0.318836 1.099794,-1.022374 1.814177,-2.134665 0.645548,-1.005122 1.426374,-1.336165 3.153173,-1.338993 1.723362,-0.0026 2.400625,0.323379 3.195531,1.545274 1.333668,2.050042 2.566393,2.763747 3.289465,1.90442 0.40058,-0.476052 0.473899,-0.936006 0.454923,-2.851106 -0.03457,-3.478896 -0.94394,-6.643709 -2.254366,-7.851617 -0.349004,-0.321703 -0.619985,-0.476908 -0.917221,-0.477033 z m -7.486939,2.049926 h 0.799346 0.79934 v 0.685152 0.685155 h 0.685156 0.685148 v 0.856441 0.856435 h -0.685148 -0.685156 v 0.742248 0.742251 h -0.723826 c -0.397652,0 -0.755645,-0.03568 -0.797503,-0.07735 -0.04185,-0.04185 -0.07732,-0.374141 -0.07732,-0.740403 v -0.666745 h -0.685161 -0.685156 v -0.856437 -0.856439 h 0.685156 0.685149 v -0.685157 z m 6.516311,0 c 0.721112,0 1.029934,0.798977 0.510182,1.318734 -0.330544,0.330508 -0.632217,0.356486 -0.957741,0.08106 -0.56463,-0.477772 -0.269928,-1.399771 0.447559,-1.399771 z m -1.386879,1.464237 c 0.180072,1.21e-4 0.361362,0.07187 0.50465,0.230203 0.223372,0.246825 0.247504,0.811915 0.04607,1.075615 -0.394228,0.516094 -1.340833,0.18413 -1.340833,-0.469659 0,-0.496196 0.39399,-0.836453 0.790134,-0.836178 z m 2.830855,0.02772 c 0.207551,0.0039 0.409039,0.07252 0.526752,0.202589 0.223372,0.246826 0.247471,0.811914 0.04604,1.075617 -0.419316,0.548931 -1.340835,0.181519 -1.340835,-0.534125 0,-0.216927 0.08692,-0.452038 0.2081,-0.56175 0.138541,-0.125395 0.35239,-0.186127 0.559914,-0.182325 z m -1.394247,1.477124 c 0.639304,0 0.95037,0.678118 0.563588,1.230325 -0.132224,0.188768 -0.293477,0.254171 -0.626215,0.254171 -0.383084,0 -0.471983,-0.04986 -0.626209,-0.348115 -0.30411,-0.588069 0.02772,-1.136394 0.688836,-1.136394 z" />
  </g>
</svg>
