<?xml version="1.0" encoding="UTF-8" standalone="no"?>
<svg
   width="64"
   height="64"
   version="1.1"
   id="svg73"
   sodipodi:docname="system-software-installer.svg"
   inkscape:version="1.4.2 (ebf0e940d0, 2025-05-08)"
   xmlns:inkscape="http://www.inkscape.org/namespaces/inkscape"
   xmlns:sodipodi="http://sodipodi.sourceforge.net/DTD/sodipodi-0.dtd"
   xmlns="http://www.w3.org/2000/svg"
   xmlns:svg="http://www.w3.org/2000/svg"
   xmlns:rdf="http://www.w3.org/1999/02/22-rdf-syntax-ns#"
   xmlns:cc="http://creativecommons.org/ns#"
   xmlns:dc="http://purl.org/dc/elements/1.1/">
  <metadata
     id="metadata77">
    <rdf:RDF>
      <cc:Work
         rdf:about="">
        <dc:format>image/svg+xml</dc:format>
        <dc:type
           rdf:resource="http://purl.org/dc/dcmitype/StillImage" />
      </cc:Work>
    </rdf:RDF>
  </metadata>
  <sodipodi:namedview
     pagecolor="#f5f7fa"
     bordercolor="#666666"
     borderopacity="1"
     objecttolerance="10"
     gridtolerance="10"
     guidetolerance="10"
     inkscape:pageopacity="0"
     inkscape:pageshadow="2"
     inkscape:window-width="1377"
     inkscape:window-height="886"
     id="namedview75"
     showgrid="false"
     inkscape:zoom="6.2890624"
     inkscape:cx="47.622361"
     inkscape:cy="45.396274"
     inkscape:window-x="147"
     inkscape:window-y="75"
     inkscape:window-maximized="0"
     inkscape:current-layer="g877"
     inkscape:document-rotation="0"
     inkscape:pagecheckerboard="0"
     inkscape:showpageshadow="2"
     inkscape:deskcolor="#d1d1d1" />
  <defs
     id="defs29" />
  <circle
     cx="32.516094"
     cy="31.877844"
     r="0"
     fill="url(#b)"
     stroke-width="1.5715"
     id="circle41"
     style="fill:url(#b)" />
  <g
     aria-label="GZ"
     transform="matrix(1.2212657,0,0,0.81882264,0.4960938,-0.1661539)"
     id="text93"
     style="font-weight:bold;font-size:11.5263px;line-height:1.25;font-family:sans-serif;-inkscape-font-specification:'sans-serif Bold';fill:#f2f2f2;stroke-width:0.288159" />
  <g
     id="g877"
     transform="matrix(1.1,0,0,1.1,-3.1845928,-3.2065454)">
    <rect
       x="8.3496294"
       y="8.369586"
       width="47.272728"
       height="47.272728"
       rx="9.8825235"
       ry="9.6485243"
       fill="url(#linearGradient862)"
       stroke-width="3.0541"
       id="rect35-7-3"
       style="fill:#414141;fill-opacity:1;stroke:#dfdfdf;stroke-width:2.04545;stroke-dasharray:none;stroke-opacity:1" />
    <path
       id="path7"
       style="fill:#dfdfdf;fill-opacity:1;stroke:none;stroke-width:0.458466;stroke-dasharray:none;stroke-dashoffset:2.2;stroke-opacity:0.6"
       d="m 32.027413,19.704474 c -1.548125,-0.009 -3.107991,0.408902 -4.441797,1.240229 -0.842347,0.52501 -2.41946,2.050418 -3.073036,2.972882 -0.845807,1.193774 -1.591244,2.87495 -1.981367,4.466835 -0.626708,2.5573 -0.450397,6.260439 0.402283,8.417883 0.08001,0.202459 0.205513,0.368896 0.277094,0.368896 0.216016,0 2.368112,-0.780527 3.675623,-1.332041 3.492286,-1.473055 7.25322,-3.527501 10.454334,-5.712073 1.079157,-0.736459 3.652283,-2.645433 3.725699,-2.764228 0.02141,-0.03463 -0.128741,-0.469365 -0.333857,-0.966481 C 39.636667,23.74015 37.742353,21.603448 35.507737,20.5057 34.429726,19.976121 33.231509,19.711517 32.027413,19.704474 Z m 13.652562,2.450414 c -0.461,0.0023 -1.004379,0.05285 -1.508984,0.148562 -0.934689,0.177315 -3.206486,0.940675 -3.530399,1.186818 -0.02025,0.01583 0.122553,0.298128 0.318874,0.627625 0.196296,0.329491 0.357227,0.662351 0.357227,0.739467 0,0.161342 0.182353,0.172551 0.736129,0.04506 1.37458,-0.316422 3.386852,-0.515596 3.386852,-0.335516 0,0.165833 -1.094939,1.397143 -2.173319,2.443738 -5.627935,5.46197 -16.353696,11.225335 -22.853351,12.280473 -0.95115,0.154433 -1.833203,0.178099 -1.911258,0.05183 -0.06807,-0.110198 1.289933,-1.723116 2.22674,-2.645742 l 0.729418,-0.719481 -0.130195,-0.557519 c -0.07208,-0.306304 -0.132702,-0.677799 -0.133531,-0.826273 -9.26e-4,-0.148478 -0.0279,-0.270413 -0.06008,-0.270413 -0.11349,0 -2.103869,1.683901 -2.817648,2.383653 -1.46833,1.439466 -2.066133,2.412029 -2.074841,3.37517 -0.0046,0.514459 0.03186,0.644567 0.240368,0.867987 0.313392,0.335746 0.707986,0.543492 1.325361,0.696063 0.659548,0.162939 1.281274,0.162044 2.453755,-0.0052 4.755596,-0.677929 11.868489,-3.837501 18.257932,-8.109214 5.851662,-3.91218 9.75974,-8.248995 9.148997,-10.153875 -0.111527,-0.347774 -0.597844,-0.892527 -0.971478,-1.088274 -0.176153,-0.09229 -0.555564,-0.137529 -1.016559,-0.135209 z m -3.96107,10.794852 c -0.0322,3.91e-4 -0.665634,0.431704 -1.407153,0.958131 -4.069557,2.889148 -9.305973,5.751804 -13.318711,7.281148 -0.508723,0.193867 -0.941267,0.403432 -0.96147,0.464048 -0.04828,0.144829 1.409107,1.239342 2.144945,1.61079 0.317575,0.160278 0.963687,0.424325 1.435533,0.587565 0.847099,0.293069 0.877823,0.297014 2.477124,0.255344 1.336658,-0.03466 1.731893,-0.07991 2.258456,-0.258759 3.816079,-1.296155 6.63408,-5.135703 7.297836,-9.941879 0.07273,-0.526406 0.105601,-0.956856 0.07348,-0.956463 z" />
    <rect
       x="37.737823"
       y="37.757782"
       width="22.610399"
       height="22.610399"
       rx="4.7267799"
       ry="4.6148596"
       fill="url(#linearGradient862)"
       stroke-width="3.0541"
       id="rect35-7-3-1"
       style="fill:#414141;fill-opacity:1;stroke:#dfdfdf;stroke-width:0.978336;stroke-dasharray:none;stroke-opacity:1" />
    <path
       id="path1"
       style="fill:#dfdfdf;fill-opacity:1;stroke:none;stroke-width:0.224244;stroke-dasharray:none;stroke-dashoffset:2.2;stroke-opacity:0.6"
       d="m 53.054544,43.299438 c -0.231167,-9.7e-5 -0.478613,0.09299 -0.788298,0.274436 -0.736938,0.431788 -1.700715,0.635422 -3.024237,0.635422 -1.323397,0 -2.319324,-0.207971 -3.051873,-0.637265 -0.587409,-0.344229 -0.938101,-0.348791 -1.431082,-0.01642 -1.265645,0.852917 -2.219508,3.587517 -2.499329,7.160943 -0.167795,2.14283 -0.01103,3.27254 0.543328,3.908309 0.267381,0.306528 0.923785,0.254559 1.515809,-0.12156 0.501846,-0.318836 1.099794,-1.022374 1.814177,-2.134665 0.645548,-1.005122 1.426374,-1.336165 3.153173,-1.338993 1.723362,-0.0026 2.400625,0.323379 3.195531,1.545274 1.333668,2.050042 2.566393,2.763747 3.289465,1.90442 0.40058,-0.476052 0.473899,-0.936006 0.454923,-2.851106 -0.03457,-3.478896 -0.94394,-6.643709 -2.254366,-7.851617 -0.349004,-0.321703 -0.619985,-0.476908 -0.917221,-0.477033 z m -7.486939,2.049926 h 0.799346 0.79934 v 0.685152 0.685155 h 0.685156 0.685148 v 0.856441 0.856435 h -0.685148 -0.685156 v 0.742248 0.742251 h -0.723826 c -0.397652,0 -0.755645,-0.03568 -0.797503,-0.07735 -0.04185,-0.04185 -0.07732,-0.374141 -0.07732,-0.740403 v -0.666745 h -0.685161 -0.685156 v -0.856437 -0.856439 h 0.685156 0.685149 v -0.685157 z m 6.516311,0 c 0.721112,0 1.029934,0.798977 0.510182,1.318734 -0.330544,0.330508 -0.632217,0.356486 -0.957741,0.08106 -0.56463,-0.477772 -0.269928,-1.399771 0.447559,-1.399771 z m -1.386879,1.464237 c 0.180072,1.21e-4 0.361362,0.07187 0.50465,0.230203 0.223372,0.246825 0.247504,0.811915 0.04607,1.075615 -0.394228,0.516094 -1.340833,0.18413 -1.340833,-0.469659 0,-0.496196 0.39399,-0.836453 0.790134,-0.836178 z m 2.830855,0.02772 c 0.207551,0.0039 0.409039,0.07252 0.526752,0.202589 0.223372,0.246826 0.247471,0.811914 0.04604,1.075617 -0.419316,0.548931 -1.340835,0.181519 -1.340835,-0.534125 0,-0.216927 0.08692,-0.452038 0.2081,-0.56175 0.138541,-0.125395 0.35239,-0.186127 0.559914,-0.182325 z m -1.394247,1.477124 c 0.639304,0 0.95037,0.678118 0.563588,1.230325 -0.132224,0.188768 -0.293477,0.254171 -0.626215,0.254171 -0.383084,0 -0.471983,-0.04986 -0.626209,-0.348115 -0.30411,-0.588069 0.02772,-1.136394 0.688836,-1.136394 z" />
  </g>
</svg>
