<?xml version="1.0" encoding="UTF-8" standalone="no"?>
<svg
   width="64"
   height="64"
   version="1.1"
   id="svg73"
   sodipodi:docname="steam_icon_368260.svg"
   inkscape:version="1.4.2 (ebf0e940d0, 2025-05-08)"
   xmlns:inkscape="http://www.inkscape.org/namespaces/inkscape"
   xmlns:sodipodi="http://sodipodi.sourceforge.net/DTD/sodipodi-0.dtd"
   xmlns="http://www.w3.org/2000/svg"
   xmlns:svg="http://www.w3.org/2000/svg"
   xmlns:rdf="http://www.w3.org/1999/02/22-rdf-syntax-ns#"
   xmlns:cc="http://creativecommons.org/ns#"
   xmlns:dc="http://purl.org/dc/elements/1.1/">
  <metadata
     id="metadata77">
    <rdf:RDF>
      <cc:Work
         rdf:about="">
        <dc:format>image/svg+xml</dc:format>
        <dc:type
           rdf:resource="http://purl.org/dc/dcmitype/StillImage" />
      </cc:Work>
    </rdf:RDF>
  </metadata>
  <sodipodi:namedview
     pagecolor="#f5f7fa"
     bordercolor="#666666"
     borderopacity="1"
     objecttolerance="10"
     gridtolerance="10"
     guidetolerance="10"
     inkscape:pageopacity="0"
     inkscape:pageshadow="2"
     inkscape:window-width="1377"
     inkscape:window-height="886"
     id="namedview75"
     showgrid="false"
     inkscape:zoom="6.2890624"
     inkscape:cx="47.622361"
     inkscape:cy="45.396274"
     inkscape:window-x="147"
     inkscape:window-y="75"
     inkscape:window-maximized="0"
     inkscape:current-layer="g877"
     inkscape:document-rotation="0"
     inkscape:pagecheckerboard="0"
     inkscape:showpageshadow="2"
     inkscape:deskcolor="#d1d1d1" />
  <defs
     id="defs29" />
  <circle
     cx="32.516094"
     cy="31.877844"
     r="0"
     fill="url(#b)"
     stroke-width="1.5715"
     id="circle41"
     style="fill:url(#b)" />
  <g
     aria-label="GZ"
     transform="matrix(1.2212657,0,0,0.81882264,0.4960938,-0.1661539)"
     id="text93"
     style="font-weight:bold;font-size:11.5263px;line-height:1.25;font-family:sans-serif;-inkscape-font-specification:'sans-serif Bold';fill:#f2f2f2;stroke-width:0.288159" />
  <g
     id="g877"
     transform="matrix(1.1,0,0,1.1,-3.1845928,-3.2065454)">
    <rect
       x="8.3496294"
       y="8.369586"
       width="47.272728"
       height="47.272728"
       rx="9.8825235"
       ry="9.6485243"
       fill="url(#linearGradient862)"
       stroke-width="3.0541"
       id="rect35-7-3"
       style="fill:#414141;fill-opacity:1;stroke:#dfdfdf;stroke-width:2.04545;stroke-dasharray:none;stroke-opacity:1" />
    <path
       style="fill:#dfdfdf;fill-opacity:1;stroke:none;stroke-width:0.463097;stroke-dasharray:none;stroke-opacity:0.6"
       d="m 24.910185,40.300718 c 1.065331,-1.111552 2.046431,-2.05893 2.180209,-2.105272 0.133804,-0.04629 0.797618,0.06044 1.475206,0.237263 1.637004,0.427205 2.803152,0.274085 5.801152,-0.761776 2.884809,-0.996849 3.512983,-1.429553 4.489548,-3.0935 0.372014,-0.633878 0.786692,-1.111313 1.042085,-1.199791 0.233317,-0.08082 1.299582,0.01388 2.369504,0.210454 3.529744,0.648521 4.747917,0.514675 5.052676,-0.55514 0.432091,-1.516827 -1.264458,-2.318772 -5.177848,-2.447522 -0.714776,-0.0235 -1.307364,-0.06519 -1.316867,-0.09262 -0.0093,-0.02742 1.292475,-0.492377 2.893263,-1.033283 l 2.910539,-0.983414 0.245884,-0.619209 c 0.328706,-0.82793 0.07557,-1.482327 -0.661835,-1.711065 -0.52647,-0.1633 -0.841125,-0.08864 -3.424088,0.812571 -1.939533,0.676802 -2.864726,0.933585 -2.908382,0.807573 -0.03501,-0.101661 0.234925,-0.496202 0.600357,-0.876777 0.925768,-0.964184 0.926067,-0.96442 0.8599,-0.668606 -0.03916,0.175062 -0.0064,0.199849 0.0971,0.07307 0.08597,-0.105546 0.09117,-0.24504 0.0111,-0.309996 -0.07969,-0.06494 0.129166,-0.304222 0.464187,-0.531722 0.722976,-0.49076 1.680264,-2.190954 1.607516,-2.85459 -0.03493,-0.319218 -0.215493,-0.571957 -0.572246,-0.801005 -1.054963,-0.677401 -2.536661,0.349392 -4.773169,3.307715 -1.176157,1.555747 -1.732341,1.90449 -2.792576,1.751018 -0.995186,-0.144048 -3.952089,0.466336 -5.777957,1.192736 -1.34201,0.533931 -1.992828,0.911986 -3.291076,1.911889 -0.890038,0.68551 -1.765735,1.248249 -1.945979,1.250536 -0.180221,0.0023 -1.690343,-0.168156 -3.355759,-0.378747 -2.601852,-0.329017 -3.109906,-0.338771 -3.609819,-0.0693 -0.798689,0.430507 -0.960525,0.77267 -0.706084,1.492823 0.342259,0.968228 1.763281,1.603233 3.372889,1.506944 1.168707,-0.06991 2.725996,0.209739 2.716842,0.487872 -0.005,0.150675 -0.884389,0.618507 -2.519007,1.340108 -1.381261,0.609762 -2.660413,1.238389 -2.842563,1.396983 -0.701134,0.61047 -0.390494,1.814542 0.591048,2.290981 0.456445,0.221601 0.593975,0.190215 2.333082,-0.531257 1.016425,-0.421696 2.051847,-0.8906 2.300931,-1.042044 0.79862,-0.485537 0.543641,0.174581 -0.448673,1.161486 -1.094166,1.088242 -1.704437,2.393024 -1.349995,2.886327 0.354068,0.492838 0.932577,0.732167 1.561497,0.646037 0.459665,-0.06295 0.90872,-0.440133 2.497412,-2.097763 z m -2.72171,0.606153 c 0.07402,-0.201172 0.903762,-1.127422 1.843946,-2.058353 2.090978,-2.070417 2.430421,-2.565326 2.205245,-3.215302 -0.09286,-0.268107 -0.282339,-0.512842 -0.421032,-0.543867 -0.319148,-0.0714 -1.238192,0.322059 -2.863897,1.225993 -1.421781,0.79057 -4.221567,1.824391 -4.303139,1.588936 -0.08578,-0.247623 0.343967,-0.520585 2.091641,-1.328597 0.910697,-0.421039 2.201034,-1.046002 2.867421,-1.388778 0.666393,-0.342787 1.354148,-0.691638 1.528326,-0.775241 0.313969,-0.15069 0.4101,-0.411726 0.38894,-1.056111 -0.01672,-0.50916 2.095848,-2.510069 3.408113,-3.227979 0.652609,-0.357033 1.965985,-0.874036 3.054145,-1.202279 1.59748,-0.481869 2.116254,-0.561085 3.177783,-0.485144 0.697743,0.0499 1.537314,0.04082 1.865704,-0.02017 0.564481,-0.104884 0.601852,-0.0789 0.684576,0.475787 0.05599,0.375476 0.186971,0.622483 0.363546,0.686101 0.167361,0.06027 1.709206,-0.390375 3.916829,-1.144799 2.002484,-0.684187 3.700344,-1.215302 3.773143,-1.179938 0.454752,0.220746 -0.50049,0.657139 -3.375886,1.542253 -3.484858,1.072724 -3.864534,1.293494 -3.506015,2.038508 0.22347,0.464523 0.784087,0.575903 4.901603,0.973978 1.602039,0.154877 2.487277,0.512558 2.185422,0.883007 -0.139102,0.170722 -1.785964,-0.02285 -4.671559,-0.54913 -1.005727,-0.18342 -2.011272,-0.2704 -2.234563,-0.193283 -0.238548,0.08238 -0.61551,0.5306 -0.914034,1.086809 -0.920487,1.715004 -1.479746,2.108418 -4.488941,3.15777 -2.538243,0.884863 -2.675379,0.913858 -3.842143,0.797262 -0.665449,-0.06634 -1.553407,-0.294042 -1.97325,-0.505997 -0.419854,-0.211957 -0.848094,-0.356027 -0.951654,-0.32015 -0.103519,0.03587 -0.48197,0.440343 -0.840895,0.898818 -1.033178,1.319732 -3.515045,4.033731 -3.771054,4.12377 -0.197376,0.06942 -0.212347,0.0266 -0.09834,-0.283845 z m 13.995049,-8.842736 c 0.232924,-0.203041 -0.05071,-1.040703 -0.411689,-1.215953 -0.60019,-0.291337 -1.368801,0.334337 -1.158042,0.942701 0.194597,0.561709 1.065086,0.71323 1.569773,0.273241 z m -6.086518,1.771568 c 0.173221,-0.688301 -0.305001,-1.144292 -0.961573,-0.91683 -0.843454,0.292203 -0.919662,1.110753 -0.134512,1.444627 0.573458,0.24385 0.947174,0.0639 1.096085,-0.527797 z m -7.003942,-0.961214 c -0.766091,-0.09608 -1.983879,-0.175121 -2.7062,-0.17562 -1.421583,-0.001 -2.943481,-0.505491 -2.441005,-0.80916 0.151494,-0.09155 0.568583,-0.123708 0.92693,-0.07145 0.358339,0.05225 1.187366,0.158287 1.842284,0.235665 0.654917,0.07736 1.464267,0.188463 1.798554,0.246863 0.334262,0.05839 0.970407,0.161343 1.413593,0.228776 1.240173,0.188688 1.299973,0.212982 1.289735,0.523948 -0.0084,0.253115 -0.05647,0.271755 -0.370357,0.143149 -0.19837,-0.0812 -0.987505,-0.226245 -1.753593,-0.322327 z m 14.857983,-5.185766 c -0.02191,-0.06308 1.607142,-2.06115 2.67156,-3.276756 0.256314,-0.292782 0.293808,-0.309037 0.150965,-0.06545 -0.104443,0.178101 -0.188372,0.432609 -0.186385,0.565566 0.0021,0.132951 -0.531558,0.796305 -1.185641,1.474116 -1.21733,1.261503 -1.405965,1.430921 -1.450411,1.302626 z m 3.311652,-3.708174 c -0.219525,-0.05169 -0.215345,-0.155503 0.0187,-0.4795 0.164526,-0.227451 0.448412,-0.465227 0.630841,-0.528427 0.311008,-0.107738 0.31599,-0.07974 0.0797,0.448218 -0.277709,0.620829 -0.322978,0.655495 -0.729588,0.559712 z"
       id="path1-26" />
    <rect
       x="37.737823"
       y="37.757782"
       width="22.610399"
       height="22.610399"
       rx="4.7267799"
       ry="4.6148596"
       fill="url(#linearGradient862)"
       stroke-width="3.0541"
       id="rect35-7-3-1"
       style="fill:#414141;fill-opacity:1;stroke:#dfdfdf;stroke-width:0.978336;stroke-dasharray:none;stroke-opacity:1" />
    <path
       id="path1"
       style="fill:#dfdfdf;fill-opacity:1;stroke:none;stroke-width:0.224244;stroke-dasharray:none;stroke-dashoffset:2.2;stroke-opacity:0.6"
       d="m 53.054544,43.299438 c -0.231167,-9.7e-5 -0.478613,0.09299 -0.788298,0.274436 -0.736938,0.431788 -1.700715,0.635422 -3.024237,0.635422 -1.323397,0 -2.319324,-0.207971 -3.051873,-0.637265 -0.587409,-0.344229 -0.938101,-0.348791 -1.431082,-0.01642 -1.265645,0.852917 -2.219508,3.587517 -2.499329,7.160943 -0.167795,2.14283 -0.01103,3.27254 0.543328,3.908309 0.267381,0.306528 0.923785,0.254559 1.515809,-0.12156 0.501846,-0.318836 1.099794,-1.022374 1.814177,-2.134665 0.645548,-1.005122 1.426374,-1.336165 3.153173,-1.338993 1.723362,-0.0026 2.400625,0.323379 3.195531,1.545274 1.333668,2.050042 2.566393,2.763747 3.289465,1.90442 0.40058,-0.476052 0.473899,-0.936006 0.454923,-2.851106 -0.03457,-3.478896 -0.94394,-6.643709 -2.254366,-7.851617 -0.349004,-0.321703 -0.619985,-0.476908 -0.917221,-0.477033 z m -7.486939,2.049926 h 0.799346 0.79934 v 0.685152 0.685155 h 0.685156 0.685148 v 0.856441 0.856435 h -0.685148 -0.685156 v 0.742248 0.742251 h -0.723826 c -0.397652,0 -0.755645,-0.03568 -0.797503,-0.07735 -0.04185,-0.04185 -0.07732,-0.374141 -0.07732,-0.740403 v -0.666745 h -0.685161 -0.685156 v -0.856437 -0.856439 h 0.685156 0.685149 v -0.685157 z m 6.516311,0 c 0.721112,0 1.029934,0.798977 0.510182,1.318734 -0.330544,0.330508 -0.632217,0.356486 -0.957741,0.08106 -0.56463,-0.477772 -0.269928,-1.399771 0.447559,-1.399771 z m -1.386879,1.464237 c 0.180072,1.21e-4 0.361362,0.07187 0.50465,0.230203 0.223372,0.246825 0.247504,0.811915 0.04607,1.075615 -0.394228,0.516094 -1.340833,0.18413 -1.340833,-0.469659 0,-0.496196 0.39399,-0.836453 0.790134,-0.836178 z m 2.830855,0.02772 c 0.207551,0.0039 0.409039,0.07252 0.526752,0.202589 0.223372,0.246826 0.247471,0.811914 0.04604,1.075617 -0.419316,0.548931 -1.340835,0.181519 -1.340835,-0.534125 0,-0.216927 0.08692,-0.452038 0.2081,-0.56175 0.138541,-0.125395 0.35239,-0.186127 0.559914,-0.182325 z m -1.394247,1.477124 c 0.639304,0 0.95037,0.678118 0.563588,1.230325 -0.132224,0.188768 -0.293477,0.254171 -0.626215,0.254171 -0.383084,0 -0.471983,-0.04986 -0.626209,-0.348115 -0.30411,-0.588069 0.02772,-1.136394 0.688836,-1.136394 z" />
  </g>
</svg>
