<?xml version="1.0" encoding="UTF-8" standalone="no"?>
<svg
   width="64"
   height="64"
   version="1.1"
   id="svg73"
   sodipodi:docname="steam_icon_226840.svg"
   inkscape:version="1.3.2 (091e20ef0f, 2023-11-25)"
   xmlns:inkscape="http://www.inkscape.org/namespaces/inkscape"
   xmlns:sodipodi="http://sodipodi.sourceforge.net/DTD/sodipodi-0.dtd"
   xmlns="http://www.w3.org/2000/svg"
   xmlns:svg="http://www.w3.org/2000/svg"
   xmlns:rdf="http://www.w3.org/1999/02/22-rdf-syntax-ns#"
   xmlns:cc="http://creativecommons.org/ns#"
   xmlns:dc="http://purl.org/dc/elements/1.1/">
  <metadata
     id="metadata77">
    <rdf:RDF>
      <cc:Work
         rdf:about="">
        <dc:format>image/svg+xml</dc:format>
        <dc:type
           rdf:resource="http://purl.org/dc/dcmitype/StillImage" />
      </cc:Work>
    </rdf:RDF>
  </metadata>
  <sodipodi:namedview
     pagecolor="#f5f7fa"
     bordercolor="#666666"
     borderopacity="1"
     objecttolerance="10"
     gridtolerance="10"
     guidetolerance="10"
     inkscape:pageopacity="0"
     inkscape:pageshadow="2"
     inkscape:window-width="1377"
     inkscape:window-height="886"
     id="namedview75"
     showgrid="false"
     inkscape:zoom="6.2890624"
     inkscape:cx="30.370187"
     inkscape:cy="36.650932"
     inkscape:window-x="481"
     inkscape:window-y="158"
     inkscape:window-maximized="0"
     inkscape:current-layer="g877"
     inkscape:document-rotation="0"
     inkscape:pagecheckerboard="0"
     inkscape:showpageshadow="2"
     inkscape:deskcolor="#d1d1d1" />
  <defs
     id="defs29">
    <inkscape:path-effect
       effect="powerclip"
       id="path-effect1980"
       is_visible="true"
       lpeversion="1"
       inverse="true"
       flatten="false"
       hide_clip="false"
       message="Use fill-rule evenodd on &lt;b&gt;fill and stroke&lt;/b&gt; dialog if no flatten result after convert clip to paths." />
    <linearGradient
       id="b"
       x1="399.57"
       x2="399.57"
       y1="545.8"
       y2="517.8"
       gradientTransform="matrix(2.1429,0,0,2.1429,-825.86391,-1107.6662)"
       gradientUnits="userSpaceOnUse">
      <stop
         stop-color="#3889e9"
         offset="0"
         id="stop2" />
      <stop
         stop-color="#5ea5fb"
         offset="1"
         id="stop4" />
    </linearGradient>
    <linearGradient
       id="linearGradient862"
       x1="7.9373"
       x2="7.9373"
       y1="15.081"
       y2="1.852"
       gradientTransform="matrix(3.3743 0 0 3.3743 3.4312 3.4278)"
       gradientUnits="userSpaceOnUse">
      <stop
         stop-color="#f1efeb"
         offset="0"
         id="stop7" />
      <stop
         stop-color="#fff"
         offset="1"
         id="stop9" />
    </linearGradient>
    <linearGradient
       id="linearGradient910"
       x1="7.9373"
       x2="7.9373"
       y1="15.081"
       y2="1.852"
       gradientTransform="scale(3.7796)"
       gradientUnits="userSpaceOnUse">
      <stop
         stop-color="#613583"
         offset="0"
         id="stop12" />
      <stop
         stop-color="#a663c0"
         offset="1"
         id="stop14" />
    </linearGradient>
    <linearGradient
       id="linearGradient932"
       x1="379.24"
       x2="374.24"
       y1="546.85"
       y2="546.85"
       gradientTransform="matrix(2.1429 0 0 2.1429 -769.68 -1134.5)"
       gradientUnits="userSpaceOnUse">
      <stop
         stop-color="#f6f5f4"
         offset="0"
         id="stop17" />
      <stop
         stop-color="#fff"
         offset=".6"
         id="stop19" />
      <stop
         stop-color="#dddbd8"
         offset="1"
         id="stop21" />
    </linearGradient>
    <linearGradient
       id="linearGradient1146"
       x1="18"
       x2="18"
       y1="52"
       y2="12"
       gradientUnits="userSpaceOnUse">
      <stop
         stop-color="#5e337f"
         offset="0"
         id="stop24" />
      <stop
         stop-color="#ab60bf"
         offset="1"
         id="stop26" />
    </linearGradient>
    <clipPath
       clipPathUnits="userSpaceOnUse"
       id="clipPath1976">
      <rect
         x="9.6784649"
         y="9.925169"
         width="43.343258"
         height="44.613056"
         rx="8.6689987"
         ry="8.9229689"
         fill="url(#linearGradient862)"
         stroke-width="2.96772"
         id="rect1978"
         style="display:block;fill:#333333;fill-opacity:1" />
    </clipPath>
    <filter
       style="color-interpolation-filters:sRGB;"
       inkscape:label="Drop Shadow"
       id="filter663"
       x="-0.098870968"
       y="-0.096056853"
       width="1.2389382"
       height="1.2321374">
      <feFlood
         flood-opacity="0.301961"
         flood-color="rgb(0,0,0)"
         result="flood"
         id="feFlood653" />
      <feComposite
         in="flood"
         in2="SourceGraphic"
         operator="in"
         result="composite1"
         id="feComposite655" />
      <feGaussianBlur
         in="composite1"
         stdDeviation="2"
         result="blur"
         id="feGaussianBlur657" />
      <feOffset
         dx="2"
         dy="2"
         result="offset"
         id="feOffset659" />
      <feComposite
         in="SourceGraphic"
         in2="offset"
         operator="over"
         result="composite2"
         id="feComposite661" />
    </filter>
    <clipPath
       clipPathUnits="userSpaceOnUse"
       id="clipPath38">
      <rect
         x="0.97311002"
         y="4.6963"
         width="14.987"
         height="9.9216995"
         ry="0.29919001"
         fill="#fffffc"
         id="rect40"
         style="display:block;opacity:0.85;fill:#f2f2f2;stroke-width:0.999999" />
    </clipPath>
    <inkscape:path-effect
       effect="powerclip"
       id="path-effect42"
       is_visible="true"
       lpeversion="1"
       inverse="true"
       flatten="false"
       hide_clip="false"
       message="Use fill-rule evenodd on &lt;b&gt;fill and stroke&lt;/b&gt; dialog if no flatten result after convert clip to paths." />
    <clipPath
       clipPathUnits="userSpaceOnUse"
       id="clipPath30">
      <path
         id="path32"
         style="color:#000000;display:block;opacity:0.85;fill:#f5f7fa;stroke-linecap:round;-inkscape-stroke:none"
         d="m 27.902344,19.023438 c -5.140587,0.01596 -9.820748,0.752518 -13.330078,2.15625 a 2.5,2.5 0 0 0 -1.392578,3.248046 2.5,2.5 0 0 0 3.248046,1.392578 c 3.180816,-1.272325 8.839301,-2.056673 14.796875,-1.699218 5.957575,0.357454 12.260098,1.820223 17.035157,4.548828 a 2.5,2.5 0 0 0 3.410156,-0.929688 2.5,2.5 0 0 0 -0.929688,-3.410156 c -5.72493,-3.271389 -12.67243,-4.808627 -19.214843,-5.201172 -1.226703,-0.0736 -2.436758,-0.109153 -3.623047,-0.105468 z m -1.240235,9.966796 c -1.05657,-0.0087 -2.093217,0.01082 -3.097656,0.05859 -2.678505,0.127409 -5.127438,0.45996 -7.113281,1.027344 a 2,2 0 0 0 -1.375,2.472656 2,2 0 0 0 2.472656,1.375 c 3.028306,-0.86523 8.701737,-1.165792 14.148438,-0.68164 5.4467,0.484152 10.812065,1.834345 13.193359,3.421874 a 2,2 0 0 0 2.773437,-0.554687 2,2 0 0 0 -0.554687,-2.773437 C 43.490675,30.923467 37.856023,29.773657 32.052734,29.257808 30.239207,29.096607 28.42306,29.004783 26.662109,28.99023 Z m 0.917969,8.988282 c -3.813243,-0.0048 -7.379665,0.410834 -10.064453,1.082031 a 2,2 0 0 0 -1.455078,2.423828 2,2 0 0 0 2.423828,1.455078 c 5.391278,-1.347819 17.438862,-1.241506 23.621094,1.849609 a 2,2 0 0 0 2.683593,-0.894531 2,2 0 0 0 -0.894531,-2.683593 c -3.908877,-1.954439 -8.851018,-2.904387 -13.642578,-3.160157 -0.898417,-0.04796 -1.791896,-0.07116 -2.671875,-0.07227 z" />
    </clipPath>
    <inkscape:path-effect
       effect="powerclip"
       id="path-effect34"
       is_visible="true"
       lpeversion="1"
       inverse="true"
       flatten="false"
       hide_clip="false"
       message="Use fill-rule evenodd on &lt;b&gt;fill and stroke&lt;/b&gt; dialog if no flatten result after convert clip to paths." />
    <clipPath
       clipPathUnits="userSpaceOnUse"
       id="clipPath1299">
      <path
         style="color:#000000;display:block;opacity:0.85;fill:#f5f7fa;-inkscape-stroke:none"
         d="m 24.149464,39.847234 c 1.129182,1.129183 1.129024,2.947446 -3.54e-4,4.076824 L 11.920405,56.152763 c -1.129378,1.129378 -2.9476414,1.129536 -4.0768237,3.54e-4 -1.1291824,-1.129183 -1.1290247,-2.947446 3.535e-4,-4.076825 L 20.072639,39.847588 c 1.129379,-1.129378 2.947642,-1.129536 4.076825,-3.54e-4 z"
         id="path1301" />
    </clipPath>
    <inkscape:path-effect
       effect="powerclip"
       id="path-effect1303"
       is_visible="true"
       lpeversion="1"
       inverse="true"
       flatten="false"
       hide_clip="false"
       message="Use fill-rule evenodd on &lt;b&gt;fill and stroke&lt;/b&gt; dialog if no flatten result after convert clip to paths." />
    <clipPath
       clipPathUnits="userSpaceOnUse"
       id="clipPath703">
      <path
         id="path705"
         style="display:block;fill:#cccccc"
         d="m 43,22 a 10,10 0 0 0 -10,10 10,10 0 0 0 7.291016,9.619141 L 33.099609,56 H 32.716797 C 30.979913,56 29,58.306428 29,60 h 28 c 0,-1.693572 -1.979913,-4 -3.716797,-4 H 52.900391 L 45.708984,41.619141 A 10,10 0 0 0 53,32 10,10 0 0 0 43,22 Z" />
    </clipPath>
    <inkscape:path-effect
       effect="powerclip"
       id="path-effect707"
       is_visible="true"
       lpeversion="1"
       inverse="true"
       flatten="false"
       hide_clip="false"
       message="Use fill-rule evenodd on &lt;b&gt;fill and stroke&lt;/b&gt; dialog if no flatten result after convert clip to paths." />
    <clipPath
       clipPathUnits="userSpaceOnUse"
       id="clipPath679">
      <path
         id="path681"
         style="display:block;fill:#9499b2"
         d="m 31,6 c -0.554,0 -1,0.39025 -1,0.875 v 5.25 C 30,12.60975 30.446,13 31,13 h 2 c 0.554,0 1,-0.39025 1,-0.875 V 6.875 C 34,6.39025 33.554,6 33,6 Z m 1,10 A 16,16 0 0 0 16,32 16,16 0 0 0 32,48 16,16 0 0 0 48,32 16,16 0 0 0 32,16 Z M 6.875,30 C 6.39025,30 6,30.446 6,31 v 2 c 0,0.554 0.39025,1 0.875,1 h 5.25 C 12.60975,34 13,33.554 13,33 v -2 c 0,-0.554 -0.39025,-1 -0.875,-1 z m 45,0 C 51.39025,30 51,30.446 51,31 v 2 c 0,0.554 0.39025,1 0.875,1 h 5.25 C 57.60975,34 58,33.554 58,33 v -2 c 0,-0.554 -0.39025,-1 -0.875,-1 z M 31,51 c -0.554,0 -1,0.39025 -1,0.875 v 5.25 C 30,57.60975 30.446,58 31,58 h 2 c 0.554,0 1,-0.39025 1,-0.875 v -5.25 C 34,51.39025 33.554,51 33,51 Z" />
    </clipPath>
    <inkscape:path-effect
       effect="powerclip"
       id="path-effect683"
       is_visible="true"
       lpeversion="1"
       inverse="true"
       flatten="false"
       hide_clip="false"
       message="Use fill-rule evenodd on &lt;b&gt;fill and stroke&lt;/b&gt; dialog if no flatten result after convert clip to paths." />
    <clipPath
       clipPathUnits="userSpaceOnUse"
       id="clipPath32">
      <path
         fill="url(#deepin-feedback-c)"
         fill-rule="nonzero"
         d="m 17.266954,37.715754 c -0.854456,0 -1.547131,0.868034 -1.547131,1.938785 0,1.070753 0.692675,1.938786 1.547131,1.938786 h 30.169037 c 0.854455,0 1.547133,-0.868033 1.547133,-1.938786 0,-1.070751 -0.692678,-1.938785 -1.547133,-1.938785 z m 0,-9.693925 c -0.854456,0 -1.547131,0.867993 -1.547131,1.938784 0,1.070753 0.692675,1.938786 1.547131,1.938786 h 30.169037 c 0.854455,0 1.547133,-0.868033 1.547133,-1.938786 0,-1.070791 -0.692678,-1.938784 -1.547133,-1.938784 z m 0,-9.693965 c -0.854456,0 -1.547131,0.868033 -1.547131,1.938784 0,1.070793 0.692675,1.938825 1.547131,1.938825 h 30.169037 c 0.854455,0 1.547133,-0.868032 1.547133,-1.938825 0,-1.070751 -0.692678,-1.938784 -1.547133,-1.938784 z"
         id="path34"
         style="display:block;opacity:0.85;fill:#f9f9f9;stroke-width:0.144327" />
    </clipPath>
    <inkscape:path-effect
       effect="powerclip"
       id="path-effect36"
       is_visible="true"
       lpeversion="1"
       inverse="true"
       flatten="false"
       hide_clip="false"
       message="Use fill-rule evenodd on &lt;b&gt;fill and stroke&lt;/b&gt; dialog if no flatten result after convert clip to paths." />
    <clipPath
       clipPathUnits="userSpaceOnUse"
       id="clipPath854">
      <path
         style="display:block;fill:#ff812d;stroke-width:1.58832"
         d="M 16.422583,26.677299 C 38.790028,17.420545 36.741406,2.3199162 36.741406,2.3199162 c 0,0 12.349179,30.8061828 -6.163856,37.9881208 C 9.8965818,48.330999 11.458373,62.03536 11.458373,62.03536 c 0,0 -8.1724877,-29.921445 4.96421,-35.358061 z"
         id="path856"
         clip-path="url(#clipPath791)" />
    </clipPath>
    <inkscape:path-effect
       effect="powerclip"
       id="path-effect858"
       is_visible="true"
       lpeversion="1"
       inverse="true"
       flatten="false"
       hide_clip="false"
       message="Use fill-rule evenodd on &lt;b&gt;fill and stroke&lt;/b&gt; dialog if no flatten result after convert clip to paths." />
    <clipPath
       clipPathUnits="userSpaceOnUse"
       id="clipath_lpe_path-effect846">
      <path
         style="display:block;fill:#ffdf55;stroke-width:1.58832"
         d="M 4.2768115,34.537906 C 16.934974,18.372356 14.087849,7.0342933 14.087849,7.0342933 c 0,0 16.217779,19.6951427 5.182049,31.8936557 -12.3280457,13.627003 -7.706194,23.107411 -7.706194,23.107411 0,0 -14.5471376,-18.225493 -7.2868925,-27.497454 z"
         id="path848" />
    </clipPath>
    <inkscape:path-effect
       effect="powerclip"
       id="path-effect846"
       is_visible="true"
       lpeversion="1"
       inverse="true"
       flatten="false"
       hide_clip="false"
       message="Use fill-rule evenodd on &lt;b&gt;fill and stroke&lt;/b&gt; dialog if no flatten result after convert clip to paths." />
    <clipPath
       clipPathUnits="userSpaceOnUse"
       id="clipPath9545">
      <path
         style="display:block;fill:#f5f7fa;stroke-width:0.6561"
         d="m 33.433548,18.111827 a 4.26465,4.26465 0 0 0 -4.26465,4.26465 v 8.20125 h -0.02307 a 2.29635,2.29635 0 0 1 -2.273281,1.9683 2.29635,2.29635 0 0 1 -2.29635,-2.29635 2.29635,2.29635 0 0 1 2.29635,-2.29635 h 0.98415 v -2.6244 h -0.98415 a 4.92075,4.92075 0 0 0 -0.02435,0 4.92075,4.92075 0 0 0 -4.896404,4.92075 4.92075,4.92075 0 0 0 4.92075,4.92075 4.92075,4.92075 0 0 0 4.910498,-4.5927 h 0.01025 v -0.303703 a 4.92075,4.92075 0 0 0 0,-0.02435 v -2.29635 h 1.3122 a 1.3122,1.3122 0 0 0 1.3122,-1.3122 1.3122,1.3122 0 0 0 -1.3122,-1.3122 h -1.3122 v -2.95245 a 1.64025,1.64025 0 0 1 1.64025,-1.64025 1.64025,1.64025 0 0 1 1.64025,1.64025 v 0.32805 a 1.3122,1.3122 0 0 0 1.3122,1.3122 1.3122,1.3122 0 0 0 1.3122,-1.3122 1.3122,1.3122 0 0 0 0,-0.03204 v -0.624063 h -0.01282 a 4.26465,4.26465 0 0 0 -4.251835,-3.9366 z"
         id="path9547" />
    </clipPath>
    <inkscape:path-effect
       effect="powerclip"
       id="path-effect9549"
       is_visible="true"
       lpeversion="1"
       inverse="true"
       flatten="false"
       hide_clip="false"
       message="Use fill-rule evenodd on &lt;b&gt;fill and stroke&lt;/b&gt; dialog if no flatten result after convert clip to paths." />
    <clipPath
       clipPathUnits="userSpaceOnUse"
       id="clipPath29559">
      <path
         id="path29561"
         style="display:block;fill:#c01728"
         d="M 12.807506,15.00189 25.129742,29.152502 33.875626,6.0248098 C 25.965731,5.6856143 18.128435,8.8937717 12.807906,15.00189 Z M 7.4725772,39.888359 26.06373,36.442405 10.121942,17.410858 C 5.8683985,23.994571 4.7678131,32.29046 7.4725772,39.888559 Z M 26.663722,56.886133 32.933639,39.290367 8.2459669,43.386313 c 3.6567511,6.923908 10.3932621,12.01164 18.4189551,13.50082 z M 51.191396,48.998238 38.87016,34.847226 30.123076,57.974919 c 7.910095,0.339615 15.74739,-2.868562 21.06772,-8.976681 z M 56.527325,24.112569 37.936972,27.557523 53.87816,46.59007 c 4.253343,-6.584312 5.354129,-14.880202 2.649165,-22.477701 z M 37.33558,7.1139953 31.065663,24.710561 55.753335,20.614616 C 52.097384,13.690908 45.359473,8.6029755 37.33558,7.1139953 Z" />
    </clipPath>
    <inkscape:path-effect
       effect="powerclip"
       id="path-effect29563"
       is_visible="true"
       lpeversion="1"
       inverse="true"
       flatten="false"
       hide_clip="false"
       message="Use fill-rule evenodd on &lt;b&gt;fill and stroke&lt;/b&gt; dialog if no flatten result after convert clip to paths." />
    <clipPath
       clipPathUnits="userSpaceOnUse"
       id="clipPath1976-3">
      <rect
         x="9.6784649"
         y="9.925169"
         width="43.343258"
         height="44.613056"
         rx="8.6689987"
         ry="8.9229689"
         fill="url(#linearGradient862)"
         stroke-width="2.96772"
         id="rect1978-6"
         style="display:none;fill:#333333;fill-opacity:1"
         d="m 18.347464,9.925169 h 26.00526 c 4.802625,0 8.668999,3.979644 8.668999,8.922969 v 26.767118 c 0,4.943325 -3.866374,8.922969 -8.668999,8.922969 h -26.00526 c -4.802626,0 -8.6689991,-3.979644 -8.6689991,-8.922969 V 18.848138 c 0,-4.943325 3.8663731,-8.922969 8.6689991,-8.922969 z" />
      <path
         id="lpe_path-effect1980-7"
         style="fill:#333333;fill-opacity:1"
         class="powerclip"
         d="M 2.0757722,2.2464043 H 60.623896 V 62.216811 H 2.0757722 Z M 18.347464,9.925169 c -4.802626,0 -8.6689991,3.979644 -8.6689991,8.922969 v 26.767118 c 0,4.943325 3.8663731,8.922969 8.6689991,8.922969 h 26.00526 c 4.802625,0 8.668999,-3.979644 8.668999,-8.922969 V 18.848138 c 0,-4.943325 -3.866374,-8.922969 -8.668999,-8.922969 z" />
    </clipPath>
    <inkscape:path-effect
       effect="powerclip"
       id="path-effect1980-5"
       is_visible="true"
       lpeversion="1"
       inverse="true"
       flatten="false"
       hide_clip="false"
       message="Use fill-rule evenodd on &lt;b&gt;fill and stroke&lt;/b&gt; dialog if no flatten result after convert clip to paths." />
    <clipPath
       clipPathUnits="userSpaceOnUse"
       id="clipath_lpe_path-effect1980-5">
      <rect
         x="9.6784649"
         y="9.925169"
         width="43.343258"
         height="44.613056"
         rx="8.6689987"
         ry="8.9229689"
         fill="url(#linearGradient862)"
         stroke-width="2.96772"
         id="rect1"
         style="display:block;fill:#333333;fill-opacity:1" />
    </clipPath>
    <filter
       style="color-interpolation-filters:sRGB;"
       inkscape:label="Blur"
       id="filter1"
       x="-0.069336253"
       y="-0.067362776"
       width="1.1386725"
       height="1.1347256">
      <feGaussianBlur
         stdDeviation="1.5 1.5"
         result="blur"
         id="feGaussianBlur1" />
    </filter>
  </defs>
  <circle
     cx="32.516094"
     cy="31.877844"
     r="0"
     fill="url(#b)"
     stroke-width="1.5715"
     id="circle41"
     style="fill:url(#b)" />
  <g
     aria-label="GZ"
     transform="matrix(1.2212657,0,0,0.81882264,0.4960938,-0.1661539)"
     id="text93"
     style="font-weight:bold;font-size:11.5263px;line-height:1.25;font-family:sans-serif;-inkscape-font-specification:'sans-serif Bold';fill:#f2f2f2;stroke-width:0.288159" />
  <g
     id="g877"
     transform="matrix(1.1,0,0,1.1,-3.1845928,-3.2065454)">
    <rect
       x="6.3010068"
       y="5.4939413"
       width="51.635597"
       height="53.148327"
       rx="10.980581"
       ry="10.720582"
       fill="url(#linearGradient862)"
       stroke-width="3.0541"
       id="rect35-7-3"
       style="fill:#414141;fill-opacity:1;stroke:#dfdfdf;stroke-width:2.27272727;stroke-dasharray:none;stroke-opacity:1" />
    <path
       style="fill:#dfdfdf;stroke-width:0.122805;fill-opacity:1"
       d="m 41.042561,54.913281 c -0.168918,-0.09007 -0.297257,-0.215294 -0.391077,-0.381577 -0.130672,-0.231596 -0.141038,-0.308544 -0.161293,-1.197349 l -0.02165,-0.949845 -0.830458,-0.61213 -0.830456,-0.612131 v -5.578604 c 0,-4.794872 -0.01152,-5.600885 -0.08201,-5.737183 -0.04509,-0.08722 -0.676651,-1.172033 -1.403446,-2.4107 -0.997362,-1.699795 -1.308644,-2.273423 -1.269259,-2.338975 0.0287,-0.04776 1.07933,-1.918287 2.334728,-4.156705 1.2554,-2.238419 2.355076,-4.142384 2.443726,-4.231035 0.407577,-0.407576 1.130074,-0.323622 1.464379,0.170161 0.07326,0.1082 1.119349,1.956735 2.324652,4.107854 1.205302,2.151118 2.228693,3.975744 2.274197,4.054721 0.08053,0.139772 0.04756,0.203561 -1.2382,2.394849 -0.726512,1.238187 -1.357835,2.322612 -1.402937,2.40983 -0.07049,0.136298 -0.08201,0.942311 -0.08201,5.737183 v 5.578604 l -0.830457,0.612131 -0.830456,0.61213 -0.02328,0.949845 c -0.02065,0.842537 -0.0371,0.976034 -0.145588,1.181674 -0.246513,0.467267 -0.832041,0.646312 -1.299116,0.397252 z M 39.789357,35.593104 c 0.083,-0.03155 0.304635,-0.186327 0.49253,-0.343937 0.895901,-0.751503 1.596698,-0.749598 2.444801,0.0067 0.173378,0.154598 0.382445,0.306643 0.464591,0.337875 0.531894,0.202226 1.183995,-0.182071 1.292763,-0.761851 0.069,-0.367831 -0.06674,-0.654507 -0.508728,-1.074353 -0.743996,-0.706721 -1.522704,-1.033966 -2.457829,-1.03288 -0.973658,0.0012 -1.806854,0.354163 -2.55142,1.08105 -0.382696,0.373611 -0.43439,0.448826 -0.467542,0.680298 -0.05019,0.350512 8.91e-4,0.545294 0.20923,0.798079 0.274826,0.333412 0.698875,0.454583 1.081604,0.309071 z m -8.457945,16.16701 c -0.10162,-0.05008 -0.255213,-0.194077 -0.341319,-0.319996 -0.184857,-0.270338 -1.746899,-2.80461 -1.889716,-3.065897 -0.09043,-0.16545 -0.09981,-0.453558 -0.114545,-3.518906 -0.01086,-2.259715 0.0034,-3.410966 0.04417,-3.562316 0.119314,-0.443102 0.650136,-0.783825 1.091998,-0.700931 0.222631,0.04177 0.507595,0.231036 0.662689,0.440151 0.109872,0.148139 0.118559,0.246961 0.144821,1.647191 l 0.02794,1.489596 1.95163,-3.477039 c 1.073398,-1.912372 1.965971,-3.475901 1.983501,-3.474511 0.01753,0.0013 0.465585,0.747061 0.995682,1.657043 l 0.963813,1.654513 v 5.294736 5.294734 l -0.153653,0.03101 c -0.607525,0.12258 -4.648186,0.703969 -4.88554,0.702955 -0.163186,-7.22e-4 -0.379845,-0.04224 -0.481465,-0.09233 z m 17.114353,-0.273096 c -1.259943,-0.196407 -2.297088,-0.35768 -2.304771,-0.358381 -0.0076,-8.02e-4 -0.01396,-2.385905 -0.01396,-5.300451 v -5.299174 l 0.96381,-1.654513 c 0.530096,-0.909982 0.978154,-1.65565 0.995683,-1.657043 0.01753,-0.0014 0.910102,1.562139 1.983498,3.474511 l 1.95163,3.477039 0.02795,-1.489596 c 0.02626,-1.40023 0.03495,-1.499052 0.144821,-1.647191 0.155094,-0.209115 0.44006,-0.398384 0.662689,-0.440151 0.441862,-0.0829 0.972683,0.257829 1.091997,0.700931 0.04075,0.15135 0.05503,1.302601 0.04417,3.562316 -0.01474,3.065348 -0.02411,3.353456 -0.114546,3.518906 -0.143116,0.261833 -1.70505,2.795843 -1.890373,3.06685 -0.206939,0.302617 -0.451629,0.413869 -0.897046,0.407847 -0.195103,-0.0026 -1.385592,-0.165493 -2.645533,-0.3619 z"
       id="path1-3" />
    <path
       d="m 42.336274,15.532988 c 0.535561,0 0.9711,-0.435542 0.9711,-0.971102 0,-0.535558 -0.435539,-0.9711 -0.9711,-0.9711 -0.535558,0 -0.971101,0.435542 -0.971101,0.9711 0,0.534977 0.435543,0.971102 0.971101,0.971102 z m 0,-1.553179 c 0.320407,0 0.581495,0.261091 0.581495,0.582077 0,0.322731 -0.261088,0.584405 -0.581495,0.584405 -0.322731,0 -0.58382,-0.261092 -0.58382,-0.584405 -6.43e-4,-0.320986 0.261089,-0.582077 0.58382,-0.582077 z m -18.195633,1.544456 h -0.41926 l 1.094377,-2.022447 1.094379,2.022447 h -0.41926 L 24.815758,14.26823 Z m -4.484509,0 h -0.419258 l 1.094376,-2.022447 0.663489,1.226377 0.663489,-1.226377 1.094379,2.022447 h -0.41926 L 21.658228,14.26823 20.994739,15.502749 20.33125,14.26823 Z m 11.496785,-1.545619 h -0.673955 v -0.38786 h 1.735189 v 0.38786 h -0.673956 v 1.545619 h -0.387278 z m 3.980349,1.545037 h -1.343839 v -1.933478 h 1.343839 v 0.387858 H 34.17438 v 0.384952 h 0.958886 v 0.387857 H 34.17438 v 0.384953 h 0.958886 z m -7.716469,-0.966448 c -0.06222,-0.08199 -0.09944,-0.18259 -0.09944,-0.293076 0,-0.03549 0,-0.186078 0,-0.186078 0,-0.269234 0.21806,-0.486714 0.487295,-0.486714 0.0052,0 1.028088,0 1.028088,0 0,0 0,0.165727 0,0.386696 h -1.028088 c -0.05524,0 -0.100012,0.04478 -0.100012,0.100023 v 0.186078 c 0,0.05525 0.04478,0.100023 0.100012,0.100023 h 0.624527 c 0.15875,0 0.298891,0.07734 0.38786,0.194221 0.06223,0.08199 0.09944,0.182589 0.09944,0.293074 0,0.03549 0,0.186079 0,0.186079 0,0.269234 -0.218062,0.486714 -0.487296,0.486714 H 27.401097 V 15.13757 h 1.028086 c 0.05524,0 0.100023,-0.04478 0.100023,-0.100023 v -0.186078 c 0,-0.05524 -0.04478,-0.101178 -0.100023,-0.101178 h -0.624527 c -0.158167,0 -0.298308,-0.07559 -0.387859,-0.193056 z m 9.837192,0.964121 h -0.384372 v -1.931151 h 1.015296 c 0.158746,0 0.298889,0.07618 0.387858,0.193057 0.06222,0.08199 0.09944,0.18259 0.09944,0.293074 0,0.01628 0,0.368087 0,0.368087 0,0.229111 -0.158169,0.420424 -0.371579,0.472175 l 0.428563,0.78793 H 38.03843 l -0.623367,-1.160086 h 0.469852 c 0.05524,0 0.100012,-0.04478 0.100012,-0.100023 v -0.368087 c 0,-0.05525 -0.04478,-0.100023 -0.100012,-0.100023 v 0.0012 H 37.25457 v 1.543876 z m 7.737984,0.0023 h -0.384951 v -1.933519 h 1.34384 v 0.387859 h -0.958889 v 0.384949 h 0.958889 v 0.38786 h -0.958889 z m -3.061583,2.646396 c -0.979241,-0.674539 -2.27947,-1.045535 -3.660528,-1.045535 -1.381055,0 -2.681284,0.371577 -3.660523,1.045533 -0.979242,0.674536 -1.518873,1.569462 -1.518873,2.520211 0,0.950746 0.539631,1.846253 1.518873,2.520208 0.979239,0.674537 2.279468,1.045532 3.660523,1.045532 1.381058,0 2.681287,-0.371577 3.660528,-1.045532 0.979241,-0.674536 1.518871,-1.569462 1.518871,-2.520208 -5.22e-4,-0.950749 -0.53963,-1.845675 -1.518871,-2.520211 z m -1.379894,4.089098 c -0.611155,0.444265 -1.427575,0.688492 -2.297496,0.688492 -0.844914,0 -1.640404,-0.234344 -2.239927,-0.660579 -0.598943,-0.425658 -0.929233,-0.991454 -0.929233,-1.59214 0,-0.600688 0.33029,-1.165903 0.929233,-1.592142 0.599523,-0.425656 1.395013,-0.66058 2.239927,-0.66058 0.870502,0 1.686342,0.244811 2.297496,0.688493 0.584986,0.425076 0.907136,0.980405 0.907136,1.563646 0,0.583242 -0.32215,1.140318 -0.907136,1.56481 z M 30.546417,17.273365 h 1.979416 v 6.833788 h -1.979416 z m -2.972617,4.878794 7.099501,5.970814 h -2.756295 l -8.630004,-7.254182 h 3.074378 c 0.653603,0 1.329302,-0.412281 1.329302,-1.101937 0,-0.689655 -0.675699,-1.101936 -1.329302,-1.101936 h -5.695186 l -1.655523,-1.390926 h 7.647271 c 0.782697,0 1.546202,0.232597 2.093393,0.637902 0.430307,0.318659 0.943768,0.899575 0.943768,1.854975 0,0.584987 -0.191312,1.09496 -0.568703,1.515381 -0.339014,0.377975 -0.817586,0.664071 -1.383964,0.826891 -0.05001,0.01396 -0.10351,0.02792 -0.168636,0.04302 z m -8.151429,-3.982082 c -0.979242,-0.674537 -2.279469,-1.045532 -3.660526,-1.045532 -1.381057,0 -2.681284,0.371577 -3.660526,1.045532 -0.97924,0.674537 -1.51887,1.569463 -1.51887,2.520209 0,0.95075 0.53963,1.846256 1.51887,2.520211 0.979242,0.674537 2.279469,1.045533 3.660526,1.045533 1.381057,0 2.681284,-0.371577 3.660526,-1.045533 0.979241,-0.674537 1.51887,-1.569461 1.51887,-2.520211 0,-0.950746 -0.539629,-1.845672 -1.51887,-2.520209 z m -6.846549,2.525445 c 0,-0.600688 0.33029,-1.165904 0.929231,-1.59214 0.599523,-0.425657 1.395012,-0.660582 2.239928,-0.660582 0.8705,0 1.686342,0.24481 2.297496,0.688492 0.584987,0.425076 0.907136,0.980405 0.907136,1.563648 0,0.583822 -0.322149,1.139153 -0.907136,1.563646 -0.611154,0.444263 -1.427576,0.688493 -2.297496,0.688493 -0.844916,0 -1.640405,-0.234344 -2.239928,-0.660583 -0.599523,-0.425073 -0.929231,-0.990287 -0.929231,-1.590974 z M 53.416123,17.27341 v 6.833756 H 51.436708 L 46.08635,19.64301 v 4.464156 H 44.096467 V 18.616088 L 42.499094,17.27341 h 3.569229 l 5.368965,4.515908 V 17.27341 Z"
       id="path1"
       style="stroke-width:0.0581496;fill:#dfdfdf;fill-opacity:1" />
  </g>
</svg>
