<?xml version="1.0" encoding="UTF-8" standalone="no"?>
<svg
   width="64"
   height="64"
   version="1.1"
   id="svg73"
   sodipodi:docname="steam_icon_368260.svg"
   inkscape:version="1.4.2 (ebf0e940d0, 2025-05-08)"
   xmlns:inkscape="http://www.inkscape.org/namespaces/inkscape"
   xmlns:sodipodi="http://sodipodi.sourceforge.net/DTD/sodipodi-0.dtd"
   xmlns="http://www.w3.org/2000/svg"
   xmlns:svg="http://www.w3.org/2000/svg"
   xmlns:rdf="http://www.w3.org/1999/02/22-rdf-syntax-ns#"
   xmlns:cc="http://creativecommons.org/ns#"
   xmlns:dc="http://purl.org/dc/elements/1.1/">
  <metadata
     id="metadata77">
    <rdf:RDF>
      <cc:Work
         rdf:about="">
        <dc:format>image/svg+xml</dc:format>
        <dc:type
           rdf:resource="http://purl.org/dc/dcmitype/StillImage" />
      </cc:Work>
    </rdf:RDF>
  </metadata>
  <sodipodi:namedview
     pagecolor="#f5f7fa"
     bordercolor="#666666"
     borderopacity="1"
     objecttolerance="10"
     gridtolerance="10"
     guidetolerance="10"
     inkscape:pageopacity="0"
     inkscape:pageshadow="2"
     inkscape:window-width="1377"
     inkscape:window-height="886"
     id="namedview75"
     showgrid="false"
     inkscape:zoom="6.2890624"
     inkscape:cx="47.622361"
     inkscape:cy="45.396274"
     inkscape:window-x="147"
     inkscape:window-y="75"
     inkscape:window-maximized="0"
     inkscape:current-layer="g877"
     inkscape:document-rotation="0"
     inkscape:pagecheckerboard="0"
     inkscape:showpageshadow="2"
     inkscape:deskcolor="#d1d1d1" />
  <defs
     id="defs29" />
  <circle
     cx="32.516094"
     cy="31.877844"
     r="0"
     fill="url(#b)"
     stroke-width="1.5715"
     id="circle41"
     style="fill:url(#b)" />
  <g
     aria-label="GZ"
     transform="matrix(1.2212657,0,0,0.81882264,0.4960938,-0.1661539)"
     id="text93"
     style="font-weight:bold;font-size:11.5263px;line-height:1.25;font-family:sans-serif;-inkscape-font-specification:'sans-serif Bold';fill:#f2f2f2;stroke-width:0.288159" />
  <g
     id="g877"
     transform="matrix(1.1,0,0,1.1,-3.1845928,-3.2065454)">
    <rect
       x="8.3496294"
       y="8.369586"
       width="47.272728"
       height="47.272728"
       rx="9.8825235"
       ry="9.6485243"
       fill="url(#linearGradient862)"
       stroke-width="3.0541"
       id="rect35-7-3"
       style="fill:#414141;fill-opacity:1;stroke:#dfdfdf;stroke-width:2.04545;stroke-dasharray:none;stroke-opacity:1" />
    <path
       style="fill:#dfdfdf;fill-opacity:1;stroke:none;stroke-width:0.459507;stroke-dasharray:none;stroke-opacity:0.6"
       d="m 32.865952,46.870238 c 0.132089,-0.01973 0.240158,-0.06179 0.240158,-0.09433 0,-0.03262 -0.307584,-0.208747 -0.683522,-0.391618 -1.22846,-0.597521 -1.851582,-1.162719 -2.24452,-2.035907 -0.158623,-0.352483 -0.236596,-0.829205 -0.135637,-0.829205 0.02192,0 0.163263,0.06182 0.314056,0.137445 0.319103,0.159916 0.807072,0.241802 0.999197,0.167744 0.121869,-0.04701 0.113841,-0.07687 -0.08951,-0.332754 -0.382285,-0.481017 -0.52468,-0.983639 -0.52468,-1.851934 0,-0.760018 0.0024,-0.770472 0.333413,-1.431636 0.709748,-1.417792 2.079035,-2.514534 3.656889,-2.929031 0.609122,-0.160004 2.3283,-0.2289 3.21441,-0.128803 0.365786,0.04131 0.678774,0.06153 0.695528,0.04492 0.202386,-0.200667 -1.437088,-1.897205 -2.579867,-2.669682 -0.40602,-0.274456 -2.294771,-1.224304 -2.682477,-1.349015 -0.154513,-0.04971 -0.269704,-0.128781 -0.25599,-0.175738 0.05182,-0.177331 1.004585,-0.570202 1.830073,-0.754626 0.467383,-0.104422 0.876432,-0.216064 0.909001,-0.248101 0.101629,-0.09997 -0.817188,-0.605538 -1.720873,-0.946853 -0.562364,-0.212401 -2.56144,-0.684638 -2.905181,-0.686286 -0.268176,-0.0015 -0.483063,-0.109191 -0.39442,-0.198057 0.03263,-0.03269 0.660507,-0.07053 1.395333,-0.08406 1.001157,-0.01848 1.522903,0.0064 2.081514,0.09933 1.334712,0.221927 2.747837,0.754218 3.7793,1.423578 0.466902,0.303001 1.436787,1.167885 1.436787,1.281253 0,0.03598 -0.110275,0.06544 -0.245081,0.06544 -0.48725,0 -1.753394,0.290189 -1.918358,0.439672 -0.03157,0.02859 0.334194,0.194841 0.812835,0.369374 1.702313,0.620739 2.989227,1.379437 4.380256,2.582381 l 0.775891,0.670976 0.04961,-1.178775 c 0.07885,-1.872718 0.204804,-2.283054 0.903134,-2.943554 0.630904,-0.596676 1.054473,-0.758309 2.216071,-0.845628 0.533087,-0.04008 1.002507,-0.104769 1.043147,-0.143756 0.11014,-0.105597 -0.505669,-0.620229 -1.699531,-1.420393 -0.986004,-0.660856 -1.359247,-0.884051 -2.881882,-1.723362 -0.867335,-0.478095 -1.020209,-0.68848 -0.983843,-1.353932 0.05031,-0.920749 0.654749,-1.836671 1.659478,-2.514653 0.299029,-0.201754 0.543625,-0.395468 0.543625,-0.430467 0,-0.123978 -0.420166,-0.167603 -1.549674,-0.160896 -1.227689,0.0071 -1.469345,0.03193 -2.020521,0.205751 -0.195668,0.06174 -0.37327,0.09474 -0.394632,0.07338 -0.02116,-0.02137 0.07976,-0.301567 0.224781,-0.62267 0.300113,-0.664729 0.444873,-1.280186 0.573854,-2.440102 0.05879,-0.528473 0.06599,-0.89251 0.02058,-1.049524 l -0.06893,-0.240391 -0.49299,0.622173 c -0.627485,0.792049 -1.720017,1.83586 -2.428966,2.320754 -0.303048,0.207268 -1.17909,0.717547 -1.946772,1.133954 -2.210147,1.198832 -3.052391,1.778805 -4.321942,2.976122 -0.520733,0.491103 -0.792585,0.702243 -0.807593,0.627233 -0.03215,-0.160763 0.500899,-1.190585 0.888229,-1.715984 0.42485,-0.576294 1.471952,-1.672215 2.046562,-2.141976 0.564008,-0.461091 0.71073,-0.76207 0.824693,-1.691704 0.174361,-1.42233 -0.02297,-2.90931 -0.596199,-4.49232 -0.298711,-0.824922 -0.416172,-0.935654 -0.480231,-0.452712 -0.205512,1.54932 -0.496329,2.274343 -1.392179,3.470782 -0.540188,0.721438 -1.316618,1.488808 -4.374039,4.322989 -1.816351,1.683725 -3.239732,3.227925 -4.050313,4.394109 -0.229454,0.33011 -0.472877,0.64601 -0.540942,0.701995 -0.112731,0.09271 -0.119271,0.07915 -0.07341,-0.152241 0.07888,-0.397983 0.730683,-1.693869 1.106113,-2.199058 0.574652,-0.773273 1.334001,-1.597692 3.490813,-3.789949 2.05446,-2.088218 2.44207,-2.537615 2.607603,-3.023279 0.116954,-0.34312 0.105498,-1.34244 -0.02229,-1.945456 -0.19902,-0.939093 -0.557152,-1.481748 -0.557152,-0.844209 0,0.364104 -0.421692,1.633844 -0.776482,2.338024 -0.174269,0.345911 -0.53038,0.878325 -0.79135,1.18314 -0.482515,0.563583 -2.284672,2.308486 -4.999047,4.840236 -1.663521,1.551599 -2.26542,2.271228 -2.786108,3.331069 -0.425327,0.865727 -0.545978,1.45331 -0.54758,2.666675 -7.06e-4,0.535182 -0.02143,1.025657 -0.04613,1.089943 -0.02519,0.06569 -0.13043,0.117014 -0.240156,0.117162 -0.493873,6.99e-4 -1.041732,0.625725 -1.102463,1.257745 -0.02651,0.275809 -0.06529,0.367481 -0.155236,0.366947 -0.256471,-0.0016 -1.095166,-0.732643 -1.481477,-1.291454 -0.211965,-0.306611 -0.416291,-0.538377 -0.454064,-0.51503 -0.03776,0.02334 -0.06827,0.431204 -0.06771,0.906351 0.0026,2.388538 0.915589,4.255429 2.733124,5.589254 l 0.480312,0.352478 0.03945,-0.7285 c 0.04687,-0.86548 0.204101,-1.272609 0.663725,-1.71866 0.665248,-0.645603 1.771035,-0.98209 3.161672,-0.962083 0.418704,0.0061 0.778618,-0.0064 0.799812,-0.02726 0.02116,-0.02116 -0.01379,-0.139735 -0.07776,-0.263404 -0.143221,-0.276977 -0.150378,-0.820435 -0.01505,-1.144293 0.227443,-0.544349 0.981868,-0.976136 2.115608,-1.210845 0.830309,-0.17189 3.205266,-0.168908 3.830002,0.0048 0.603909,0.167929 1.268719,0.462548 1.268719,0.562249 0,0.04763 -0.211716,0.07797 -0.544122,0.07797 -0.650231,0 -1.123914,0.08276 -1.693671,0.29594 -0.493684,0.184712 -0.523638,0.28652 -0.199866,0.679312 0.28456,0.345227 0.573541,0.968541 0.63307,1.365495 0.03647,0.243138 0.0059,0.39854 -0.143038,0.723536 -0.215945,0.47168 -0.477003,0.63044 -1.036683,0.63044 -0.565856,0 -0.587439,0.03227 -0.328914,0.490251 0.19677,0.34865 0.222901,0.457373 0.19393,0.806714 -0.05753,0.693958 -0.514956,1.036654 -1.29959,0.973673 l -0.474953,-0.03817 0.05014,0.269233 c 0.136704,0.734118 0.131743,0.854089 -0.04628,1.119049 -0.278372,0.414348 -0.64646,0.555182 -1.428019,0.54638 -0.508984,-0.0061 -0.79077,-0.05164 -1.200788,-0.195611 -0.396871,-0.139358 -0.535732,-0.162933 -0.535732,-0.09089 0,0.182941 0.725224,1.180575 1.194189,1.642825 0.638925,0.629759 1.077477,0.93479 1.946328,1.353731 1.377608,0.664252 3.273871,1.086847 5.09872,1.136296 0.568988,0.01566 1.142594,0.01277 1.274679,-0.0071 z M 23.483598,33.126841 c -0.07344,-0.04519 0.173296,-0.649652 0.470866,-1.153506 0.667644,-1.130469 1.974445,-2.285277 2.778243,-2.455107 l 0.24016,-0.05075 v 0.413761 c 0,0.689872 -0.579368,1.8416 -1.343325,2.670392 -0.369641,0.401013 -0.644651,0.559143 -1.095196,0.629733 -0.313927,0.04917 -0.934548,0.01699 -1.050747,-0.05455 z"
       id="path2-65" />
    <rect
       x="37.737823"
       y="37.757782"
       width="22.610399"
       height="22.610399"
       rx="4.7267799"
       ry="4.6148596"
       fill="url(#linearGradient862)"
       stroke-width="3.0541"
       id="rect35-7-3-1"
       style="fill:#414141;fill-opacity:1;stroke:#dfdfdf;stroke-width:0.978336;stroke-dasharray:none;stroke-opacity:1" />
    <path
       id="path1"
       style="fill:#dfdfdf;fill-opacity:1;stroke:none;stroke-width:0.224244;stroke-dasharray:none;stroke-dashoffset:2.2;stroke-opacity:0.6"
       d="m 53.054544,43.299438 c -0.231167,-9.7e-5 -0.478613,0.09299 -0.788298,0.274436 -0.736938,0.431788 -1.700715,0.635422 -3.024237,0.635422 -1.323397,0 -2.319324,-0.207971 -3.051873,-0.637265 -0.587409,-0.344229 -0.938101,-0.348791 -1.431082,-0.01642 -1.265645,0.852917 -2.219508,3.587517 -2.499329,7.160943 -0.167795,2.14283 -0.01103,3.27254 0.543328,3.908309 0.267381,0.306528 0.923785,0.254559 1.515809,-0.12156 0.501846,-0.318836 1.099794,-1.022374 1.814177,-2.134665 0.645548,-1.005122 1.426374,-1.336165 3.153173,-1.338993 1.723362,-0.0026 2.400625,0.323379 3.195531,1.545274 1.333668,2.050042 2.566393,2.763747 3.289465,1.90442 0.40058,-0.476052 0.473899,-0.936006 0.454923,-2.851106 -0.03457,-3.478896 -0.94394,-6.643709 -2.254366,-7.851617 -0.349004,-0.321703 -0.619985,-0.476908 -0.917221,-0.477033 z m -7.486939,2.049926 h 0.799346 0.79934 v 0.685152 0.685155 h 0.685156 0.685148 v 0.856441 0.856435 h -0.685148 -0.685156 v 0.742248 0.742251 h -0.723826 c -0.397652,0 -0.755645,-0.03568 -0.797503,-0.07735 -0.04185,-0.04185 -0.07732,-0.374141 -0.07732,-0.740403 v -0.666745 h -0.685161 -0.685156 v -0.856437 -0.856439 h 0.685156 0.685149 v -0.685157 z m 6.516311,0 c 0.721112,0 1.029934,0.798977 0.510182,1.318734 -0.330544,0.330508 -0.632217,0.356486 -0.957741,0.08106 -0.56463,-0.477772 -0.269928,-1.399771 0.447559,-1.399771 z m -1.386879,1.464237 c 0.180072,1.21e-4 0.361362,0.07187 0.50465,0.230203 0.223372,0.246825 0.247504,0.811915 0.04607,1.075615 -0.394228,0.516094 -1.340833,0.18413 -1.340833,-0.469659 0,-0.496196 0.39399,-0.836453 0.790134,-0.836178 z m 2.830855,0.02772 c 0.207551,0.0039 0.409039,0.07252 0.526752,0.202589 0.223372,0.246826 0.247471,0.811914 0.04604,1.075617 -0.419316,0.548931 -1.340835,0.181519 -1.340835,-0.534125 0,-0.216927 0.08692,-0.452038 0.2081,-0.56175 0.138541,-0.125395 0.35239,-0.186127 0.559914,-0.182325 z m -1.394247,1.477124 c 0.639304,0 0.95037,0.678118 0.563588,1.230325 -0.132224,0.188768 -0.293477,0.254171 -0.626215,0.254171 -0.383084,0 -0.471983,-0.04986 -0.626209,-0.348115 -0.30411,-0.588069 0.02772,-1.136394 0.688836,-1.136394 z" />
  </g>
</svg>
