<?xml version="1.0" encoding="UTF-8" standalone="no"?>
<svg
   width="64"
   height="64"
   version="1.1"
   id="svg73"
   sodipodi:docname="steam_icon_368260.svg"
   inkscape:version="1.4.2 (ebf0e940d0, 2025-05-08)"
   xmlns:inkscape="http://www.inkscape.org/namespaces/inkscape"
   xmlns:sodipodi="http://sodipodi.sourceforge.net/DTD/sodipodi-0.dtd"
   xmlns="http://www.w3.org/2000/svg"
   xmlns:svg="http://www.w3.org/2000/svg"
   xmlns:rdf="http://www.w3.org/1999/02/22-rdf-syntax-ns#"
   xmlns:cc="http://creativecommons.org/ns#"
   xmlns:dc="http://purl.org/dc/elements/1.1/">
  <metadata
     id="metadata77">
    <rdf:RDF>
      <cc:Work
         rdf:about="">
        <dc:format>image/svg+xml</dc:format>
        <dc:type
           rdf:resource="http://purl.org/dc/dcmitype/StillImage" />
      </cc:Work>
    </rdf:RDF>
  </metadata>
  <sodipodi:namedview
     pagecolor="#f5f7fa"
     bordercolor="#666666"
     borderopacity="1"
     objecttolerance="10"
     gridtolerance="10"
     guidetolerance="10"
     inkscape:pageopacity="0"
     inkscape:pageshadow="2"
     inkscape:window-width="1377"
     inkscape:window-height="886"
     id="namedview75"
     showgrid="false"
     inkscape:zoom="6.2890624"
     inkscape:cx="47.622361"
     inkscape:cy="45.396274"
     inkscape:window-x="147"
     inkscape:window-y="75"
     inkscape:window-maximized="0"
     inkscape:current-layer="g877"
     inkscape:document-rotation="0"
     inkscape:pagecheckerboard="0"
     inkscape:showpageshadow="2"
     inkscape:deskcolor="#d1d1d1" />
  <defs
     id="defs29" />
  <circle
     cx="32.516094"
     cy="31.877844"
     r="0"
     fill="url(#b)"
     stroke-width="1.5715"
     id="circle41"
     style="fill:url(#b)" />
  <g
     aria-label="GZ"
     transform="matrix(1.2212657,0,0,0.81882264,0.4960938,-0.1661539)"
     id="text93"
     style="font-weight:bold;font-size:11.5263px;line-height:1.25;font-family:sans-serif;-inkscape-font-specification:'sans-serif Bold';fill:#f2f2f2;stroke-width:0.288159" />
  <g
     id="g877"
     transform="matrix(1.1,0,0,1.1,-3.1845928,-3.2065454)">
    <rect
       x="8.3496294"
       y="8.369586"
       width="47.272728"
       height="47.272728"
       rx="9.8825235"
       ry="9.6485243"
       fill="url(#linearGradient862)"
       stroke-width="3.0541"
       id="rect35-7-3"
       style="fill:#414141;fill-opacity:1;stroke:#dfdfdf;stroke-width:2.04545;stroke-dasharray:none;stroke-opacity:1" />
    <path
       style="fill:#dfdfdf;stroke-width:0.0545257;fill-opacity:1"
       d="m 21.910456,47.006025 c -0.01636,-0.127467 -0.104349,-0.734733 -0.195523,-1.349509 -0.286471,-1.931616 -0.349819,-2.802074 -0.317439,-4.362049 0.02097,-1.010145 0.05978,-1.591716 0.141868,-2.1265 0.425759,-2.773261 1.447451,-4.968739 3.220273,-6.919926 l 0.481259,-0.529679 -0.306734,-0.460037 c -0.89392,-1.340693 -2.057848,-2.018026 -4.153179,-2.416883 -0.755495,-0.143813 -2.601483,-0.35974 -4.07579,-0.476751 -0.457336,-0.03631 -0.831516,-0.08233 -0.831516,-0.102302 0,-0.07724 2.633214,-1.362667 3.435114,-1.676887 2.53328,-0.992657 4.330371,-1.376092 6.449471,-1.376092 1.06173,0 1.715726,0.0619 2.629046,0.248808 1.125164,0.230274 2.223457,0.601381 3.132627,1.058504 l 0.459419,0.23099 0.155762,-0.182998 c 0.590002,-0.693191 1.03242,-1.517496 1.239546,-2.309502 0.25512,-0.975538 0.196161,-2.330027 -0.165299,-3.797377 -0.271834,-1.103511 -0.899765,-3.286705 -1.007347,-3.502366 -0.04383,-0.08788 -0.07972,-0.16889 -0.07972,-0.180048 0,-0.01111 0.196376,0.123854 0.436387,0.300025 0.539088,0.395688 1.669622,1.420745 2.139288,1.939701 0.796313,0.879883 1.720308,2.171852 2.355154,3.293083 1.510259,2.667344 2.039505,5.751457 1.471964,8.577719 -0.02755,0.136607 -0.0088,0.148752 0.47844,0.309387 1.344485,0.443399 2.66105,0.354475 4.13989,-0.279615 0.541505,-0.232184 1.415977,-0.681475 2.773861,-1.425172 0.31488,-0.172462 0.866956,-0.46091 1.226825,-0.641001 0.35987,-0.180088 0.721784,-0.375174 0.80425,-0.433516 0.08249,-0.05837 0.149942,-0.09135 0.149942,-0.07334 0,0.01799 -0.204745,0.442935 -0.455022,0.944279 -0.613312,1.228651 -1.464041,2.669035 -1.987569,3.365189 -2.202422,2.92865 -4.711954,4.752877 -7.726442,5.616492 -0.526441,0.150841 -1.740841,0.408585 -1.924953,0.408585 -0.09512,0 -0.117688,0.04626 -0.15042,0.308248 -0.09997,0.80016 0.05046,1.740225 0.408518,2.552964 0.399624,0.907079 1.438608,2.082082 2.923101,3.305785 0.451021,0.371787 1.252092,1.031758 1.780163,1.466602 0.528068,0.434836 0.953894,0.797301 0.946281,0.805468 -0.03259,0.035 -1.603933,-0.171197 -2.455967,-0.322235 -1.203152,-0.213301 -1.629983,-0.314275 -2.619187,-0.61962 -4.084638,-1.260864 -6.92817,-3.388257 -8.695982,-6.505934 -0.329156,-0.580494 -0.269122,-0.563135 -0.957551,-0.276891 -0.895091,0.372188 -1.749139,1.092012 -2.322352,1.95737 -0.386155,0.582961 -1.177061,2.17343 -2.121382,4.26599 -0.402459,0.89182 -0.746955,1.621783 -0.765546,1.622133 -0.01858,8.24e-4 -0.04719,-0.103635 -0.06353,-0.231076 z m 15.877976,-1.746683 c -0.01246,-0.0088 -0.259113,-0.204891 -0.548073,-0.436385 -0.630378,-0.505036 -1.415783,-1.314632 -1.798604,-1.854005 -0.778743,-1.097198 -1.171454,-2.451567 -1.083891,-3.738077 l 0.02726,-0.400557 -2.599079,0.01885 c -1.429495,0.0105 -2.614793,0.03459 -2.633995,0.0538 -0.0541,0.05414 0.625184,1.163855 1.064412,1.738908 0.739974,0.968801 1.895776,2.009197 3.050885,2.746255 0.954687,0.609172 2.562907,1.313904 4.089421,1.792017 0.347015,0.108673 0.522034,0.14075 0.431661,0.07914 z m -14.67428,-3.59506 c 0.622839,-1.36962 1.562885,-2.49839 2.639528,-3.169431 0.430559,-0.268337 1.249684,-0.632758 1.426265,-0.634499 0.07407,-7.45e-4 0.09129,-0.0264 0.06413,-0.09641 -0.178755,-0.459607 -0.516931,-1.516917 -0.768757,-2.403513 -0.322611,-1.135819 -0.604852,-2.079636 -0.684757,-2.28984 -0.04654,-0.122417 -0.05816,-0.115955 -0.334247,0.185728 -1.572925,1.718782 -2.552653,3.918653 -2.875626,6.456913 -0.08437,0.663093 -0.132112,2.28692 -0.08408,2.860499 l 0.04092,0.488635 0.205036,-0.515898 c 0.112766,-0.283761 0.279994,-0.680724 0.371603,-0.88218 z M 37.102296,37.25265 c 2.677384,-0.580374 5.073885,-2.113689 7.078872,-4.529168 0.366889,-0.442003 1.044361,-1.352678 1.006293,-1.352678 -0.01246,0 -0.190508,0.10248 -0.395997,0.227718 -0.897946,0.547282 -2.059961,1.017643 -3.018117,1.221675 -0.561292,0.119521 -1.828028,0.13651 -2.317339,0.03107 -0.290576,-0.0626 -1.095571,-0.297753 -1.262328,-0.368736 -0.0388,-0.01651 -0.119642,0.14628 -0.211561,0.42587 -0.169601,0.515835 -0.654671,1.749338 -1.035645,2.633608 -0.227046,0.526965 -0.734729,1.817525 -0.734729,1.867683 0,0.02407 0.295473,-0.02814 0.890562,-0.157047 z m -4.434727,-0.521387 c 1.747725,-0.639332 3.78764,-2.014095 4.193034,-2.825818 0.40186,-0.804648 -0.051,-1.431027 -1.810476,-2.504066 -0.986186,-0.601445 -1.401099,-1.103186 -1.401099,-1.694307 0,-0.122292 -0.04709,-0.214076 -0.162691,-0.317069 -0.176411,-0.157184 -0.289281,-0.384529 -0.348857,-0.702672 -0.04843,-0.25864 -0.146836,-0.328285 -0.105697,-0.07481 0.01683,0.103698 0.0028,0.268049 -0.03101,0.365229 -0.05226,0.149877 -0.0444,0.20966 0.05167,0.393989 0.06905,0.132458 0.100768,0.267095 0.08124,0.34483 -0.0306,0.121878 -0.138979,0.182167 -0.138979,0.07731 0,-0.02762 -0.116548,-0.166331 -0.258999,-0.308248 -0.142445,-0.141911 -0.320334,-0.370059 -0.395307,-0.506996 -0.07813,-0.142709 -0.237379,-0.316668 -0.373107,-0.407588 -0.220817,-0.147911 -0.235436,-0.172861 -0.216661,-0.369715 0.02331,-0.244609 -0.03614,-0.284955 -0.082,-0.05563 -0.04042,0.202098 0.0051,0.372633 0.162594,0.606916 0.178115,0.265241 0.169583,0.540205 -0.02245,0.7234 -0.304372,0.290365 -0.716918,0.346882 -0.866434,0.118691 -0.08744,-0.133432 -0.08615,-0.15228 0.02599,-0.383137 0.136434,-0.280817 0.145169,-0.430892 0.03616,-0.621559 -0.07666,-0.134104 -0.07797,-0.132499 -0.07985,0.09901 -0.0026,0.321888 -0.08308,0.457376 -0.258824,0.436032 -0.130968,-0.01591 -0.150322,0.01297 -0.289572,0.431607 -0.108794,0.32713 -0.239587,0.569787 -0.482848,0.895874 -0.31012,0.415747 -0.376785,0.47195 -0.947118,0.798514 -1.522308,0.871649 -2.218217,1.541523 -2.220293,2.137222 -0.0012,0.305204 0.239326,0.743815 0.602331,1.099016 0.857587,0.83915 2.428965,1.775081 3.812514,2.270785 0.745824,0.267206 0.721851,0.26764 1.526717,-0.02667 z m -1.499456,-0.312464 c -1.400628,-0.372205 -3.069518,-1.458633 -3.440804,-2.239925 -0.160007,-0.3367 -0.181981,-0.969352 -0.043,-1.238106 0.210651,-0.407353 0.97523,-1.033393 1.929829,-1.580152 0.650234,-0.372432 1.713044,-0.698643 2.2762,-0.698643 0.407921,0 1.260325,0.236238 1.835503,0.508705 0.660255,0.312766 1.559983,0.910411 1.942888,1.290565 0.42811,0.425035 0.509846,0.624557 0.473444,1.15567 -0.02461,0.359297 -0.05713,0.470852 -0.203741,0.699334 -0.463804,0.722775 -2.088877,1.765701 -3.216333,2.064155 -0.675484,0.178811 -0.995812,0.186725 -1.55398,0.0384 z m 1.251823,-0.387755 c 1.298609,-0.338242 2.113692,-1.538488 1.933577,-2.847263 -0.18926,-1.375192 -1.576918,-2.387513 -2.939049,-2.144086 -1.231049,0.22 -2.126191,1.277629 -2.126191,2.512135 0,1.639507 1.573388,2.885095 3.131663,2.479214 z m -0.87459,-0.514591 c -0.169997,-0.06877 -0.39574,-0.363049 -0.433693,-0.565361 -0.02229,-0.118915 0.0073,-0.296371 0.08892,-0.53002 0.167423,-0.480163 0.168995,-1.2384 0.0038,-1.741653 -0.140946,-0.428887 -0.143563,-0.501908 -0.02683,-0.747923 0.115358,-0.243091 0.365129,-0.396705 0.645041,-0.396705 0.315234,0 0.541164,0.159215 0.657246,0.463165 0.09548,0.250015 0.09501,0.261719 -0.02553,0.635963 -0.182459,0.566518 -0.201753,1.073754 -0.0598,1.572219 0.172142,0.604501 0.180503,0.71342 0.07108,0.925848 -0.180198,0.349816 -0.586277,0.5195 -0.920079,0.384467 z M 26.830281,30.39166 c 0.234699,-0.17866 0.828261,-0.58722 1.319028,-0.90791 2.117518,-1.383689 2.773437,-1.825237 2.773437,-1.867002 0,-0.02448 -0.208935,-0.135208 -0.464307,-0.246123 -1.631987,-0.7088 -2.973404,-0.994796 -4.741769,-1.010958 -1.691641,-0.01547 -3.370017,0.289392 -5.317368,0.965829 l -0.299894,0.104181 0.354416,0.0389 c 1.800493,0.197666 2.879991,0.504702 3.897503,1.108558 0.544585,0.323192 1.430084,1.193871 1.773167,1.743494 0.134947,0.216195 0.252945,0.393708 0.262214,0.394474 0.0092,7.45e-4 0.208876,-0.144782 0.443573,-0.323439 z m 10.630356,-0.452154 c 0.446736,-3.029648 -0.427528,-6.046907 -2.597399,-8.964159 -0.229598,-0.308681 -0.422163,-0.555769 -0.427919,-0.549085 -0.0058,0.0067 0.04766,0.241145 0.118719,0.521029 0.480339,1.892065 0.434848,3.386868 -0.145491,4.780912 -0.170226,0.408894 -0.644371,1.168259 -0.972975,1.55826 l -0.165079,0.195919 0.393294,0.267546 c 0.216313,0.147152 0.957833,0.687463 1.647828,1.200688 1.22898,0.91413 1.9753,1.438728 2.046815,1.438728 0.01971,0 0.06573,-0.202428 0.102228,-0.449839 z"
       id="path1-1-1" />
    <rect
       x="37.737823"
       y="37.757782"
       width="22.610399"
       height="22.610399"
       rx="4.7267799"
       ry="4.6148596"
       fill="url(#linearGradient862)"
       stroke-width="3.0541"
       id="rect35-7-3-1"
       style="fill:#414141;fill-opacity:1;stroke:#dfdfdf;stroke-width:0.978336;stroke-dasharray:none;stroke-opacity:1" />
    <path
       id="path1"
       style="fill:#dfdfdf;fill-opacity:1;stroke:none;stroke-width:0.224244;stroke-dasharray:none;stroke-dashoffset:2.2;stroke-opacity:0.6"
       d="m 53.054544,43.299438 c -0.231167,-9.7e-5 -0.478613,0.09299 -0.788298,0.274436 -0.736938,0.431788 -1.700715,0.635422 -3.024237,0.635422 -1.323397,0 -2.319324,-0.207971 -3.051873,-0.637265 -0.587409,-0.344229 -0.938101,-0.348791 -1.431082,-0.01642 -1.265645,0.852917 -2.219508,3.587517 -2.499329,7.160943 -0.167795,2.14283 -0.01103,3.27254 0.543328,3.908309 0.267381,0.306528 0.923785,0.254559 1.515809,-0.12156 0.501846,-0.318836 1.099794,-1.022374 1.814177,-2.134665 0.645548,-1.005122 1.426374,-1.336165 3.153173,-1.338993 1.723362,-0.0026 2.400625,0.323379 3.195531,1.545274 1.333668,2.050042 2.566393,2.763747 3.289465,1.90442 0.40058,-0.476052 0.473899,-0.936006 0.454923,-2.851106 -0.03457,-3.478896 -0.94394,-6.643709 -2.254366,-7.851617 -0.349004,-0.321703 -0.619985,-0.476908 -0.917221,-0.477033 z m -7.486939,2.049926 h 0.799346 0.79934 v 0.685152 0.685155 h 0.685156 0.685148 v 0.856441 0.856435 h -0.685148 -0.685156 v 0.742248 0.742251 h -0.723826 c -0.397652,0 -0.755645,-0.03568 -0.797503,-0.07735 -0.04185,-0.04185 -0.07732,-0.374141 -0.07732,-0.740403 v -0.666745 h -0.685161 -0.685156 v -0.856437 -0.856439 h 0.685156 0.685149 v -0.685157 z m 6.516311,0 c 0.721112,0 1.029934,0.798977 0.510182,1.318734 -0.330544,0.330508 -0.632217,0.356486 -0.957741,0.08106 -0.56463,-0.477772 -0.269928,-1.399771 0.447559,-1.399771 z m -1.386879,1.464237 c 0.180072,1.21e-4 0.361362,0.07187 0.50465,0.230203 0.223372,0.246825 0.247504,0.811915 0.04607,1.075615 -0.394228,0.516094 -1.340833,0.18413 -1.340833,-0.469659 0,-0.496196 0.39399,-0.836453 0.790134,-0.836178 z m 2.830855,0.02772 c 0.207551,0.0039 0.409039,0.07252 0.526752,0.202589 0.223372,0.246826 0.247471,0.811914 0.04604,1.075617 -0.419316,0.548931 -1.340835,0.181519 -1.340835,-0.534125 0,-0.216927 0.08692,-0.452038 0.2081,-0.56175 0.138541,-0.125395 0.35239,-0.186127 0.559914,-0.182325 z m -1.394247,1.477124 c 0.639304,0 0.95037,0.678118 0.563588,1.230325 -0.132224,0.188768 -0.293477,0.254171 -0.626215,0.254171 -0.383084,0 -0.471983,-0.04986 -0.626209,-0.348115 -0.30411,-0.588069 0.02772,-1.136394 0.688836,-1.136394 z" />
  </g>
</svg>
