<?xml version="1.0" encoding="UTF-8" standalone="no"?>
<svg
   width="64"
   height="64"
   version="1.1"
   id="svg73"
   sodipodi:docname="steam_icon_368260.svg"
   inkscape:version="1.4.2 (ebf0e940d0, 2025-05-08)"
   xmlns:inkscape="http://www.inkscape.org/namespaces/inkscape"
   xmlns:sodipodi="http://sodipodi.sourceforge.net/DTD/sodipodi-0.dtd"
   xmlns="http://www.w3.org/2000/svg"
   xmlns:svg="http://www.w3.org/2000/svg"
   xmlns:rdf="http://www.w3.org/1999/02/22-rdf-syntax-ns#"
   xmlns:cc="http://creativecommons.org/ns#"
   xmlns:dc="http://purl.org/dc/elements/1.1/">
  <metadata
     id="metadata77">
    <rdf:RDF>
      <cc:Work
         rdf:about="">
        <dc:format>image/svg+xml</dc:format>
        <dc:type
           rdf:resource="http://purl.org/dc/dcmitype/StillImage" />
      </cc:Work>
    </rdf:RDF>
  </metadata>
  <sodipodi:namedview
     pagecolor="#f5f7fa"
     bordercolor="#666666"
     borderopacity="1"
     objecttolerance="10"
     gridtolerance="10"
     guidetolerance="10"
     inkscape:pageopacity="0"
     inkscape:pageshadow="2"
     inkscape:window-width="1377"
     inkscape:window-height="886"
     id="namedview75"
     showgrid="false"
     inkscape:zoom="6.2890624"
     inkscape:cx="47.622361"
     inkscape:cy="45.396274"
     inkscape:window-x="147"
     inkscape:window-y="75"
     inkscape:window-maximized="0"
     inkscape:current-layer="g877"
     inkscape:document-rotation="0"
     inkscape:pagecheckerboard="0"
     inkscape:showpageshadow="2"
     inkscape:deskcolor="#d1d1d1" />
  <defs
     id="defs29" />
  <circle
     cx="32.516094"
     cy="31.877844"
     r="0"
     fill="url(#b)"
     stroke-width="1.5715"
     id="circle41"
     style="fill:url(#b)" />
  <g
     aria-label="GZ"
     transform="matrix(1.2212657,0,0,0.81882264,0.4960938,-0.1661539)"
     id="text93"
     style="font-weight:bold;font-size:11.5263px;line-height:1.25;font-family:sans-serif;-inkscape-font-specification:'sans-serif Bold';fill:#f2f2f2;stroke-width:0.288159" />
  <g
     id="g877"
     transform="matrix(1.1,0,0,1.1,-3.1845928,-3.2065454)">
    <rect
       x="8.3496294"
       y="8.369586"
       width="47.272728"
       height="47.272728"
       rx="9.8825235"
       ry="9.6485243"
       fill="url(#linearGradient862)"
       stroke-width="3.0541"
       id="rect35-7-3"
       style="fill:#414141;fill-opacity:1;stroke:#dfdfdf;stroke-width:2.04545;stroke-dasharray:none;stroke-opacity:1" />
    <path
       style="fill:#dfdfdf;fill-opacity:1;stroke:none;stroke-width:0.459507;stroke-dasharray:none;stroke-opacity:0.6"
       d="m 27.809897,46.249614 c -0.104044,-2.537093 -0.109511,-2.499581 0.357724,-2.459008 l 0.21376,0.01828 -0.01722,1.844576 c -0.01804,1.931897 -0.03568,2.038767 -0.33674,2.038767 -0.15648,0 -0.159058,-0.01712 -0.217531,-1.442892 z m 2.357924,1.188416 c -0.138378,-0.138345 -0.13908,-0.236905 -0.0064,-0.895779 0.05805,-0.288344 0.150037,-0.964292 0.204403,-1.50218 0.114407,-1.131939 0.202307,-1.337796 0.571315,-1.337796 0.435312,0 0.574027,0.382265 0.400778,1.104439 -0.03762,0.156813 -0.151743,0.748706 -0.253637,1.315442 -0.219414,1.220319 -0.306269,1.427847 -0.597632,1.427847 -0.113759,0 -0.257227,-0.05034 -0.318812,-0.111954 z m 5.615604,0.0584 c -0.04519,-0.0303 -0.114443,-0.484535 -0.160159,-1.050911 -0.04427,-0.548646 -0.112659,-1.109565 -0.15194,-1.246467 -0.103267,-0.359947 -0.08769,-0.963674 0.03231,-1.25084 0.119602,-0.286228 0.35513,-0.403613 0.592721,-0.29536 0.203714,0.09282 0.263053,0.32265 0.193407,0.749178 -0.08326,0.509899 -0.101944,0.740673 -0.159573,1.971455 -0.04348,0.928443 -0.07312,1.142695 -0.160238,1.157789 -0.05879,0.01008 -0.142721,-0.0058 -0.186521,-0.03473 z m -6.649422,-0.227049 c -0.153435,-0.15345 -0.155612,-0.195002 -0.179853,-3.4347 -0.003,-0.434329 0.119968,-0.560795 0.437567,-0.449094 0.312905,0.110041 0.34153,0.312904 0.242553,1.719004 -0.170173,2.417561 -0.184686,2.480375 -0.500267,2.16479 z m 4.030013,-0.02204 c -0.14083,-0.222347 -0.482544,-2.052111 -0.492263,-2.635953 -0.0091,-0.550645 0.157645,-0.873306 0.451475,-0.873306 0.141265,0 0.185596,0.06418 0.295491,0.427516 0.07109,0.235107 0.144624,0.587842 0.163365,0.783799 0.01873,0.19593 0.08874,0.763897 0.15559,1.262112 0.117196,0.8737 0.116847,0.911015 -0.0098,1.051007 -0.174095,0.192367 -0.436824,0.185262 -0.563813,-0.01507 z m 1.343704,0.08664 c -0.02502,-0.04064 -0.07623,-0.657837 -0.113749,-1.371707 -0.03752,-0.713877 -0.08619,-1.467206 -0.108177,-1.674079 -0.05057,-0.475827 0.04608,-0.615877 0.38681,-0.560576 0.46157,0.07496 0.535831,0.294053 0.343888,1.014876 -0.06933,0.260361 -0.08653,0.645949 -0.06078,1.362031 0.03418,0.949836 0.02846,1.006302 -0.11621,1.150964 -0.167773,0.167775 -0.262691,0.190246 -0.331778,0.07844 z m 2.28742,-0.371629 c -0.01798,-0.08819 -0.053,-0.304613 -0.07795,-0.480969 -0.02495,-0.176386 -0.0727,-0.480965 -0.106093,-0.676918 -0.03339,-0.195903 -0.06297,-0.612782 -0.06566,-0.926297 -0.0038,-0.450842 0.02464,-0.618951 0.137736,-0.804003 0.145998,-0.239426 0.323677,-0.356108 0.410357,-0.269437 0.05527,0.05529 0.03673,1.845477 -0.02841,2.730086 -0.03157,0.427545 -0.06974,0.587851 -0.140344,0.587851 -0.05339,0 -0.111746,-0.07216 -0.129644,-0.160323 z m -9.929355,-1.53121 c 0.01722,-1.322151 0.03195,-1.480042 0.139832,-1.500768 0.337192,-0.06485 0.49244,0.939026 0.320395,2.071636 -0.105962,0.697508 -0.193612,0.906723 -0.379884,0.906723 -0.08271,0 -0.09634,-0.250501 -0.08035,-1.477591 z m 4.799618,-2.090584 c -0.101451,-0.120569 -0.185487,-0.272918 -0.18674,-0.338472 -0.0049,-0.263727 -0.342333,-0.511133 -0.696867,-0.511133 -0.291457,0 -0.383484,0.137967 -0.327121,0.490437 0.09722,0.607895 -0.240203,0.662436 -0.933232,0.150841 -0.265449,-0.195903 -0.525603,-0.356268 -0.578127,-0.356268 -0.115091,0 -0.278692,0.247747 -0.341054,0.516595 -0.02499,0.107747 -0.07477,0.195901 -0.110588,0.195901 -0.03582,0 -0.180774,-0.141098 -0.322125,-0.313637 -0.14135,-0.172532 -0.335611,-0.333353 -0.431694,-0.357477 -0.200504,-0.0503 -0.591859,0.09334 -0.739641,0.271526 -0.142682,0.172038 -0.217604,0.02581 -0.218966,-0.427036 -0.0016,-0.533028 0.09993,-0.749645 0.457317,-0.97575 0.364458,-0.230581 0.80046,-0.691147 0.8986,-0.949277 0.280934,-0.738914 -0.381013,-1.923578 -1.214328,-2.173251 -0.908588,-0.272191 -2.673916,0.605258 -3.153386,1.567436 l -0.171715,0.344579 -0.256413,-0.131529 c -0.412627,-0.211656 -1.118922,-0.911464 -1.485875,-1.472183 -0.358593,-0.547961 -0.68499,-1.31616 -0.88042,-2.072156 -0.113228,-0.437989 -0.112463,-0.459443 0.02132,-0.605657 0.420129,-0.459225 0.616175,-1.231147 0.561503,-2.210888 -0.04832,-0.866033 -0.230853,-1.443098 -0.657852,-2.079867 l -0.3036,-0.45275 0.686037,-0.482952 c 0.909023,-0.639925 2.17587,-1.894751 2.645687,-2.620574 0.494911,-0.764589 0.551164,-0.819423 0.840654,-0.819423 0.200425,0 0.326708,0.07413 0.673994,0.39566 1.448825,1.341352 2.908728,2.008233 4.900118,2.238359 0.372305,0.043 0.731679,0.09496 0.798616,0.115404 0.18419,0.05629 0.697721,0.737859 0.697721,0.926049 0,0.27058 -0.714742,1.590145 -1.064766,1.965777 -0.392073,0.420765 -0.684519,0.525492 -0.992842,0.355545 -0.118074,-0.06509 -0.474575,-0.342781 -0.792221,-0.617112 -1.512192,-1.305976 -3.05015,-1.946975 -4.489343,-1.871088 -0.614902,0.03241 -1.277737,0.254947 -1.58342,0.531586 -0.07017,0.06348 -0.14199,0.101 -0.159632,0.08336 -0.02859,-0.02862 0.320173,-0.322487 0.709866,-0.598041 0.133432,-0.09435 0.125499,-0.100916 -0.124697,-0.103037 -0.14696,-0.0015 -0.267201,-0.02201 -0.267201,-0.04616 0,-0.02418 0.113795,-0.198926 0.252889,-0.3884 0.291384,-0.396942 0.758593,-0.759921 1.316699,-1.022961 l 0.389903,-0.183767 -0.285012,0.04002 c -0.705911,0.0991 -1.742287,0.809835 -2.071051,1.420312 -0.07404,0.137478 -0.188822,0.249953 -0.255085,0.249953 -0.302012,0 -0.325788,0.05163 -0.232435,0.504639 0.155367,0.753936 0.191297,2.046027 0.100695,3.621141 l -0.08736,1.519233 0.154869,0.152377 0.154866,0.15235 -0.04122,-0.178155 c -0.02672,-0.11552 0.09639,-0.591514 0.350209,-1.35385 0.215282,-0.646633 0.392057,-1.09553 0.392834,-0.997558 8.1e-4,0.09798 -0.04682,0.657291 -0.105774,1.242921 -0.05893,0.585633 -0.08293,1.085513 -0.05328,1.11085 0.02959,0.02522 0.18216,0.122189 0.33892,0.215272 l 0.285023,0.169194 -0.182025,-0.246879 -0.182026,-0.246877 0.336081,-1.353831 c 0.184843,-0.744601 0.338903,-1.271654 0.342347,-1.171228 0.0033,0.100433 -0.04357,0.705258 -0.104454,1.344063 -0.0609,0.638802 -0.100968,1.169683 -0.08908,1.179736 0.01189,0.01008 0.289526,0.185116 0.616944,0.389013 0.697038,0.434091 1.159561,0.540829 2.041103,0.470992 1.074397,-0.08506 2.12998,-0.479917 3.063033,-1.145737 0.478328,-0.341324 0.594223,-0.525179 0.164957,-0.261685 -0.282372,0.173344 -1.485232,0.676398 -1.524173,0.637454 -0.03269,-0.03269 1.468904,-1.133234 2.061351,-1.510703 0.228927,-0.14586 0.521494,-0.309181 0.650146,-0.362938 0.219467,-0.0917 0.247393,-0.145236 0.451997,-0.866503 l 0.218077,-0.768767 0.0045,0.421586 c 0.0025,0.23188 0.02074,0.405456 0.0405,0.38574 0.01973,-0.01973 0.09872,-0.321656 0.175549,-0.670975 l 0.139698,-0.63513 -0.04099,0.944118 c -0.03852,0.887862 -0.03305,0.944125 0.09165,0.944213 0.122864,5.4e-5 0.131658,-0.06427 0.119332,-0.872864 l -0.01336,-0.872958 0.120187,0.547191 c 0.156843,0.714082 0.252385,0.793918 0.197867,0.16535 l -0.04326,-0.498779 0.235724,0.813593 0.235723,0.81359 0.443249,0.234986 c 0.243784,0.129244 0.5949,0.338359 0.780251,0.464707 0.375249,0.255798 1.650938,1.18886 1.762087,1.288824 0.105311,0.0947 -0.638188,-0.198802 -1.210142,-0.477721 -0.273682,-0.133475 -0.508322,-0.231951 -0.521424,-0.218831 -0.04824,0.04824 0.892207,0.670417 1.390152,0.919673 0.836398,0.418683 1.489845,0.570073 2.479034,0.574349 0.918994,0.0041 1.048614,-0.0354 1.912847,-0.580961 l 0.280457,-0.177053 -0.04665,-0.758756 c -0.02553,-0.417317 -0.06182,-0.999241 -0.08038,-1.293164 -0.02694,-0.423949 0.01971,-0.25458 0.223276,0.819422 0.14133,0.744602 0.266972,1.364964 0.27918,1.378585 0.01189,0.01391 0.120626,-0.03332 0.240934,-0.104443 0.257143,-0.151885 0.257316,-0.154203 0.111839,-1.381038 -0.05808,-0.489869 -0.102974,-0.922737 -0.09977,-0.961927 0.0035,-0.0392 0.145215,0.472998 0.315518,1.138191 0.22739,0.888042 0.289242,1.234071 0.232757,1.302109 -0.155712,0.187609 0.0075,0.164325 0.22832,-0.03242 l 0.227247,-0.203036 -0.08542,-1.494304 c -0.09021,-1.577897 -0.04913,-3.041375 0.10395,-3.699656 0.09761,-0.419914 0.07316,-0.462616 -0.269263,-0.470015 -0.10207,-0.0022 -0.239193,-0.123052 -0.403889,-0.356022 -0.420347,-0.594447 -1.177625,-1.068294 -1.98622,-1.242816 -0.158873,-0.03428 -0.2251,-0.02704 -0.195118,0.02146 0.02495,0.04036 0.141417,0.09449 0.258853,0.120281 0.337564,0.07413 1.053334,0.591752 1.368447,0.98959 l 0.288285,0.363941 -0.276801,0.03562 -0.276832,0.03563 0.249401,0.155333 c 0.137155,0.08543 0.345562,0.258128 0.463152,0.383775 l 0.213736,0.228445 -0.314595,-0.224219 c -0.411222,-0.293183 -1.120786,-0.507753 -1.678874,-0.507753 -0.245573,0 -0.759137,0.07931 -1.141234,0.176234 -1.190934,0.302062 -1.977059,0.7562 -3.426191,1.979195 -0.414171,0.349538 -0.527315,0.409711 -0.7704,0.409711 -0.250371,0 -0.328748,-0.04537 -0.646076,-0.374086 -0.384652,-0.398449 -1.10762,-1.70847 -1.10762,-2.007035 0,-0.18882 0.514373,-0.870634 0.697722,-0.924849 0.06693,-0.01977 0.506474,-0.08527 0.976751,-0.145511 1.943729,-0.248989 3.30588,-0.881473 4.693063,-2.179117 0.375259,-0.351037 0.498863,-0.425994 0.702466,-0.425994 0.28997,0 0.346022,0.05461 0.841099,0.819422 0.470684,0.727164 1.737136,1.980972 2.650305,2.623847 l 0.690663,0.486227 -0.293764,0.430351 c -0.43949,0.643851 -0.633445,1.242643 -0.678825,2.095717 -0.05219,0.980879 0.144578,1.75316 0.563391,2.210884 0.133733,0.146218 0.134545,0.167689 0.02116,0.605664 -0.195438,0.755989 -0.521822,1.524191 -0.88042,2.072149 -0.373534,0.570781 -1.076974,1.263355 -1.50494,1.481684 l -0.274308,0.139968 -0.08749,-0.266045 c -0.213996,-0.650493 -1.457569,-1.505961 -2.431727,-1.672816 -0.603414,-0.103415 -0.955126,-0.0051 -1.377903,0.384475 -0.554112,0.510757 -0.807463,1.266043 -0.604099,1.800924 0.09835,0.25868 0.61464,0.799405 0.935405,0.979689 0.165049,0.09278 0.301102,0.236467 0.346159,0.365776 0.08181,0.234642 0.09684,0.777032 0.02841,1.031823 -0.04223,0.157714 -0.04692,0.158669 -0.139068,0.02694 -0.136604,-0.195003 -0.573097,-0.385311 -0.761216,-0.33188 -0.08715,0.02464 -0.290114,0.191755 -0.451002,0.371068 -0.160883,0.179316 -0.325588,0.3056 -0.366004,0.280631 -0.04042,-0.02464 -0.09401,-0.154785 -0.119077,-0.28843 -0.0543,-0.289446 -0.198232,-0.427653 -0.384063,-0.368668 -0.0744,0.02351 -0.320309,0.186596 -0.546398,0.362161 -0.460191,0.357349 -0.694125,0.399774 -0.854508,0.154987 -0.08778,-0.133994 -0.09217,-0.205036 -0.0238,-0.38619 0.109765,-0.2908 -0.01205,-0.447165 -0.34845,-0.447165 -0.365106,0 -0.508238,0.109599 -0.695172,0.532288 -0.153162,0.346335 -0.340107,0.536534 -0.527347,0.536534 -0.03828,0 -0.152618,-0.09864 -0.254075,-0.219244 z m -0.187567,-3.448759 c 0.11266,-0.05828 0.262248,-0.232496 0.33492,-0.390062 0.07223,-0.156611 0.147359,-0.284777 0.166956,-0.284777 0.01956,0 0.09471,0.128138 0.166963,0.284777 0.150585,0.326546 0.423138,0.495342 0.799818,0.495342 0.208539,0 0.317179,-0.05584 0.537944,-0.276599 0.264648,-0.264625 0.276638,-0.2967 0.276638,-0.740194 0,-0.611342 -0.270106,-1.538206 -0.710776,-2.438992 -0.48638,-0.994289 -0.871318,-1.364812 -0.962349,-0.92637 -0.121047,0.583032 -0.127953,0.589918 -0.196516,0.19594 -0.07829,-0.449924 -0.176483,-0.472509 -0.475752,-0.109444 -0.576206,0.699036 -1.141107,2.160179 -1.198782,3.100697 l -0.03814,0.62206 0.286432,0.28643 c 0.230269,0.230294 0.337676,0.28643 0.547747,0.28643 0.143719,0 0.352928,-0.04735 0.4649,-0.105289 z m -2.488552,-6.48304 c -0.325732,-0.392482 -2.269098,-1.403146 -3.452752,-1.795632 -0.666092,-0.220869 -0.689597,-0.234769 -0.32596,-0.192743 1.444015,0.166884 2.882902,0.876184 3.702899,1.825351 0.126964,0.146966 0.215407,0.267204 0.196557,0.267204 -0.01884,0 -0.07319,-0.04688 -0.120748,-0.10417 z m 6.049118,-0.145213 c 0.837628,-0.999363 2.164272,-1.653507 3.746076,-1.847128 0.300111,-0.03673 0.243108,-0.006 -0.361585,0.195566 -1.194622,0.398022 -2.824103,1.241082 -3.447879,1.783861 -0.113506,0.09876 -0.09111,0.05205 0.0634,-0.132299 z M 20.204861,30.2895 c 0.02359,-0.879216 0.153212,-2.313495 0.269568,-2.982586 0.246238,-1.415963 1.346567,-3.500559 2.598411,-4.922726 0.204582,-0.232414 0.358244,-0.436302 0.341467,-0.453077 -0.06154,-0.06153 -1.44809,1.373571 -1.850449,1.915252 -0.228122,0.307116 -0.414767,0.542332 -0.414767,0.522706 0,-0.122322 0.540749,-1.416253 0.840512,-2.011211 1.640604,-3.256222 4.290054,-5.236758 7.806367,-5.835477 0.386127,-0.06574 0.709843,-0.109478 0.71937,-0.09717 0.285688,0.368923 1.416187,2.039129 1.416471,2.092696 2.56e-4,0.04138 -0.184232,0.401291 -0.409889,0.799834 l -0.410288,0.724627 0.348335,0.896845 0.348331,0.896845 -0.135755,0.904091 -0.135751,0.904095 0.266275,0.554908 c 0.146447,0.305204 0.279803,0.541379 0.296336,0.524845 0.01652,-0.01652 -0.03763,-0.295149 -0.120342,-0.619145 l -0.150407,-0.589083 0.187248,-0.878276 0.187249,-0.878274 -0.291494,-0.795408 c -0.336048,-0.916979 -0.386028,-0.709969 0.442497,-1.832662 0.270068,-0.36596 0.473486,-0.702633 0.452036,-0.74817 -0.02145,-0.04554 -0.346333,-0.528399 -0.721964,-1.073036 l -0.682967,-0.99024 1.055207,0.04097 c 1.774659,0.06892 3.219656,0.406246 4.627865,1.08039 2.212011,1.058943 3.79125,2.669777 4.939423,5.038267 0.367021,0.757103 0.853592,1.934203 0.759736,1.837937 -0.01712,-0.01745 -0.183461,-0.240157 -0.369936,-0.49489 -0.382963,-0.523227 -1.207,-1.398631 -1.633279,-1.735077 -0.238932,-0.188583 -0.203237,-0.127715 0.223391,0.381248 0.719697,0.858483 1.256382,1.68462 1.73586,2.672032 0.551814,1.136392 0.676416,1.537492 0.819018,2.6364 0.113551,0.874759 0.25433,3.099199 0.200454,3.166129 -0.03296,0.04093 -0.7949,-0.491797 -1.379865,-0.964743 -0.766782,-0.619956 -1.815906,-1.753099 -2.246307,-2.426228 -0.221634,-0.346614 -0.46714,-0.722187 -0.545582,-0.834607 l -0.142636,-0.204398 0.204341,-0.173636 c 0.352774,-0.299775 1.193934,-0.670308 1.621979,-0.714487 0.493755,-0.05097 0.525832,-0.163783 0.04656,-0.163783 -1.046626,0 -1.693467,0.332181 -2.739943,1.407081 -0.429127,0.440782 -1.007023,0.957246 -1.284218,1.147696 -0.761307,0.523073 -0.910686,0.581478 -0.52395,0.204865 0.18497,-0.180122 0.453399,-0.510558 0.596524,-0.734295 0.247313,-0.386615 0.708941,-1.511771 0.646053,-1.574664 -0.01653,-0.0163 -0.118278,0.121684 -0.226581,0.306584 -0.276117,0.471083 -1.245667,1.465683 -1.922322,1.971931 -0.798868,0.597681 -1.879375,1.112924 -2.50217,1.193169 -0.643655,0.08294 -2.137274,0.08093 -2.789052,-0.0038 -0.912492,-0.11852 -2.240467,-0.855123 -3.284805,-1.822015 -0.530899,-0.49153 -1.080944,-1.154234 -1.230547,-1.482574 -0.173092,-0.379893 -0.190594,-0.170246 -0.02614,0.313225 0.240133,0.706017 0.509423,1.172715 0.961591,1.666492 l 0.391899,0.427935 -0.285016,-0.170483 c -0.539294,-0.322567 -1.070428,-0.771616 -1.783418,-1.507777 -0.763017,-0.787813 -1.163719,-1.054705 -1.853043,-1.234251 -0.45309,-0.118017 -1.1732,-0.14744 -1.1732,-0.04794 0,0.03372 0.179694,0.07984 0.399327,0.102501 0.440109,0.04542 1.292475,0.425354 1.614186,0.719502 l 0.196534,0.179693 -0.20468,0.305748 c -0.112567,0.168163 -0.344047,0.530196 -0.514396,0.804526 -0.403987,0.650585 -1.974439,2.2252 -2.79995,2.807375 -0.347637,0.245164 -0.668281,0.459657 -0.712543,0.476656 -0.05699,0.02189 -0.07532,-0.161722 -0.06278,-0.629008 z"
       id="path482" />
    <rect
       x="37.737823"
       y="37.757782"
       width="22.610399"
       height="22.610399"
       rx="4.7267799"
       ry="4.6148596"
       fill="url(#linearGradient862)"
       stroke-width="3.0541"
       id="rect35-7-3-1"
       style="fill:#414141;fill-opacity:1;stroke:#dfdfdf;stroke-width:0.978336;stroke-dasharray:none;stroke-opacity:1" />
    <path
       id="path1"
       style="fill:#dfdfdf;fill-opacity:1;stroke:none;stroke-width:0.224244;stroke-dasharray:none;stroke-dashoffset:2.2;stroke-opacity:0.6"
       d="m 53.054544,43.299438 c -0.231167,-9.7e-5 -0.478613,0.09299 -0.788298,0.274436 -0.736938,0.431788 -1.700715,0.635422 -3.024237,0.635422 -1.323397,0 -2.319324,-0.207971 -3.051873,-0.637265 -0.587409,-0.344229 -0.938101,-0.348791 -1.431082,-0.01642 -1.265645,0.852917 -2.219508,3.587517 -2.499329,7.160943 -0.167795,2.14283 -0.01103,3.27254 0.543328,3.908309 0.267381,0.306528 0.923785,0.254559 1.515809,-0.12156 0.501846,-0.318836 1.099794,-1.022374 1.814177,-2.134665 0.645548,-1.005122 1.426374,-1.336165 3.153173,-1.338993 1.723362,-0.0026 2.400625,0.323379 3.195531,1.545274 1.333668,2.050042 2.566393,2.763747 3.289465,1.90442 0.40058,-0.476052 0.473899,-0.936006 0.454923,-2.851106 -0.03457,-3.478896 -0.94394,-6.643709 -2.254366,-7.851617 -0.349004,-0.321703 -0.619985,-0.476908 -0.917221,-0.477033 z m -7.486939,2.049926 h 0.799346 0.79934 v 0.685152 0.685155 h 0.685156 0.685148 v 0.856441 0.856435 h -0.685148 -0.685156 v 0.742248 0.742251 h -0.723826 c -0.397652,0 -0.755645,-0.03568 -0.797503,-0.07735 -0.04185,-0.04185 -0.07732,-0.374141 -0.07732,-0.740403 v -0.666745 h -0.685161 -0.685156 v -0.856437 -0.856439 h 0.685156 0.685149 v -0.685157 z m 6.516311,0 c 0.721112,0 1.029934,0.798977 0.510182,1.318734 -0.330544,0.330508 -0.632217,0.356486 -0.957741,0.08106 -0.56463,-0.477772 -0.269928,-1.399771 0.447559,-1.399771 z m -1.386879,1.464237 c 0.180072,1.21e-4 0.361362,0.07187 0.50465,0.230203 0.223372,0.246825 0.247504,0.811915 0.04607,1.075615 -0.394228,0.516094 -1.340833,0.18413 -1.340833,-0.469659 0,-0.496196 0.39399,-0.836453 0.790134,-0.836178 z m 2.830855,0.02772 c 0.207551,0.0039 0.409039,0.07252 0.526752,0.202589 0.223372,0.246826 0.247471,0.811914 0.04604,1.075617 -0.419316,0.548931 -1.340835,0.181519 -1.340835,-0.534125 0,-0.216927 0.08692,-0.452038 0.2081,-0.56175 0.138541,-0.125395 0.35239,-0.186127 0.559914,-0.182325 z m -1.394247,1.477124 c 0.639304,0 0.95037,0.678118 0.563588,1.230325 -0.132224,0.188768 -0.293477,0.254171 -0.626215,0.254171 -0.383084,0 -0.471983,-0.04986 -0.626209,-0.348115 -0.30411,-0.588069 0.02772,-1.136394 0.688836,-1.136394 z" />
  </g>
</svg>
