<?xml version="1.0" encoding="UTF-8" standalone="no"?>
<svg
   width="64"
   height="64"
   version="1.1"
   id="svg73"
   sodipodi:docname="steam_icon_368260.svg"
   inkscape:version="1.4.2 (ebf0e940d0, 2025-05-08)"
   xmlns:inkscape="http://www.inkscape.org/namespaces/inkscape"
   xmlns:sodipodi="http://sodipodi.sourceforge.net/DTD/sodipodi-0.dtd"
   xmlns="http://www.w3.org/2000/svg"
   xmlns:svg="http://www.w3.org/2000/svg"
   xmlns:rdf="http://www.w3.org/1999/02/22-rdf-syntax-ns#"
   xmlns:cc="http://creativecommons.org/ns#"
   xmlns:dc="http://purl.org/dc/elements/1.1/">
  <metadata
     id="metadata77">
    <rdf:RDF>
      <cc:Work
         rdf:about="">
        <dc:format>image/svg+xml</dc:format>
        <dc:type
           rdf:resource="http://purl.org/dc/dcmitype/StillImage" />
      </cc:Work>
    </rdf:RDF>
  </metadata>
  <sodipodi:namedview
     pagecolor="#f5f7fa"
     bordercolor="#666666"
     borderopacity="1"
     objecttolerance="10"
     gridtolerance="10"
     guidetolerance="10"
     inkscape:pageopacity="0"
     inkscape:pageshadow="2"
     inkscape:window-width="1377"
     inkscape:window-height="886"
     id="namedview75"
     showgrid="false"
     inkscape:zoom="6.2890624"
     inkscape:cx="47.622361"
     inkscape:cy="45.396274"
     inkscape:window-x="147"
     inkscape:window-y="75"
     inkscape:window-maximized="0"
     inkscape:current-layer="g877"
     inkscape:document-rotation="0"
     inkscape:pagecheckerboard="0"
     inkscape:showpageshadow="2"
     inkscape:deskcolor="#d1d1d1" />
  <defs
     id="defs29" />
  <circle
     cx="32.516094"
     cy="31.877844"
     r="0"
     fill="url(#b)"
     stroke-width="1.5715"
     id="circle41"
     style="fill:url(#b)" />
  <g
     aria-label="GZ"
     transform="matrix(1.2212657,0,0,0.81882264,0.4960938,-0.1661539)"
     id="text93"
     style="font-weight:bold;font-size:11.5263px;line-height:1.25;font-family:sans-serif;-inkscape-font-specification:'sans-serif Bold';fill:#f2f2f2;stroke-width:0.288159" />
  <g
     id="g877"
     transform="matrix(1.1,0,0,1.1,-3.1845928,-3.2065454)">
    <rect
       x="8.3496294"
       y="8.369586"
       width="47.272728"
       height="47.272728"
       rx="9.8825235"
       ry="9.6485243"
       fill="url(#linearGradient862)"
       stroke-width="3.0541"
       id="rect35-7-3"
       style="fill:#414141;fill-opacity:1;stroke:#dfdfdf;stroke-width:2.04545;stroke-dasharray:none;stroke-opacity:1" />
    <path
       style="fill:#dfdfdf;stroke:none;stroke-width:0.394184;stroke-dasharray:none;stroke-opacity:0.6;fill-opacity:1"
       d="m 16.89732,46.927796 c 0.01364,-0.103897 0.120676,-1.016794 0.237571,-2.028551 0.17494,-1.514459 0.225356,-1.835548 0.285132,-1.816803 0.215846,0.06767 0.721848,0.05469 0.966554,-0.02525 0.438109,-0.142293 1.043057,-0.479601 1.29993,-0.724899 0.132857,-0.126825 0.905685,-1.058484 1.717427,-2.070244 1.151806,-1.435625 2.310469,-2.877 2.551138,-3.173607 0.05017,-0.06181 0.49078,0.24114 0.615562,0.423286 0.19049,0.278127 0.352179,0.742084 0.395565,1.135402 l 0.03607,0.325376 0.425695,0.06605 c 0.43181,0.0669 0.858455,0.228928 1.096724,0.416323 0.177048,0.139254 0.367527,0.403854 0.367527,0.510512 0,0.0541 -0.984107,0.880118 -2.608143,2.189035 -1.69233,1.363961 -2.667694,2.183862 -2.777734,2.335007 -0.460298,0.632151 -0.741279,1.500626 -0.625655,1.933822 0.03114,0.117224 0.05269,0.217643 0.04741,0.222885 -0.008,0.0083 -3.966769,0.47014 -4.030519,0.47014 -0.01364,0 -0.01364,-0.08506 -8.2e-5,-0.189 z M 27.702142,42.313457 C 27.639861,42.149489 27.54723,41.307845 27.54723,40.9051 c 0,-1.113056 -0.681404,-1.944772 -1.829581,-2.23318 l -0.327775,-0.08241 -0.08248,-0.328282 c -0.149372,-0.594661 -0.486571,-1.131502 -0.897883,-1.429455 -0.359317,-0.260307 -0.700442,-0.352251 -1.493018,-0.402484 -0.399804,-0.02501 -0.836455,-0.06061 -0.970316,-0.07832 -0.466296,-0.06189 -0.474916,-0.02204 0.274908,-1.280252 0.371364,-0.623284 1.040903,-1.748357 1.487869,-2.500161 0.66547,-1.119348 0.840149,-1.378301 0.964426,-1.429779 0.107803,-0.04462 0.289302,-0.05255 0.62611,-0.02728 0.58341,0.04373 0.68561,0.122307 0.741577,0.570046 0.09792,0.783381 0.08545,0.839045 -0.383836,1.713201 -0.23566,0.438887 -0.428388,0.837612 -0.428388,0.886052 0,0.148105 0.131015,0.348313 0.400162,0.61128 l 0.256872,0.250989 8.768154,-8.768419 8.768158,-8.768425 1.827291,-0.359737 c 1.005005,-0.197859 1.830805,-0.356603 1.8351,-0.352793 0.0043,0.004 -0.151212,0.823409 -0.345563,1.821302 l -0.353446,1.814355 -8.775589,8.78108 -8.77559,8.781075 0.251037,0.256838 c 0.300826,0.307829 0.496561,0.419218 0.673783,0.383356 0.07243,-0.01408 0.467872,-0.209652 0.878858,-0.433285 0.818958,-0.445681 0.836136,-0.449556 1.610544,-0.363479 0.506231,0.0563 0.582795,0.150511 0.623282,0.76676 0.02461,0.37879 0.01503,0.509985 -0.04604,0.628203 -0.0608,0.117259 -0.606318,0.464051 -2.534168,1.610988 -1.351179,0.803866 -2.475938,1.469089 -2.499463,1.478265 -0.02359,0.0088 -0.06406,-0.03921 -0.09011,-0.107693 z M 45.839927,18.120205 c -0.01279,-0.01167 -0.488021,0.02224 -1.056267,0.07556 l -1.033188,0.09697 -8.428786,8.426683 -8.428795,8.42668 0.490487,0.492331 0.490485,0.49233 8.994573,-8.994573 c 4.947015,-4.947017 8.984176,-9.004203 8.971491,-9.015978 z"
       id="path1-7" />
    <rect
       x="37.737823"
       y="37.757782"
       width="22.610399"
       height="22.610399"
       rx="4.7267799"
       ry="4.6148596"
       fill="url(#linearGradient862)"
       stroke-width="3.0541"
       id="rect35-7-3-1"
       style="fill:#414141;fill-opacity:1;stroke:#dfdfdf;stroke-width:0.978336;stroke-dasharray:none;stroke-opacity:1" />
    <path
       id="path1"
       style="fill:#dfdfdf;fill-opacity:1;stroke:none;stroke-width:0.224244;stroke-dasharray:none;stroke-dashoffset:2.2;stroke-opacity:0.6"
       d="m 53.054544,43.299438 c -0.231167,-9.7e-5 -0.478613,0.09299 -0.788298,0.274436 -0.736938,0.431788 -1.700715,0.635422 -3.024237,0.635422 -1.323397,0 -2.319324,-0.207971 -3.051873,-0.637265 -0.587409,-0.344229 -0.938101,-0.348791 -1.431082,-0.01642 -1.265645,0.852917 -2.219508,3.587517 -2.499329,7.160943 -0.167795,2.14283 -0.01103,3.27254 0.543328,3.908309 0.267381,0.306528 0.923785,0.254559 1.515809,-0.12156 0.501846,-0.318836 1.099794,-1.022374 1.814177,-2.134665 0.645548,-1.005122 1.426374,-1.336165 3.153173,-1.338993 1.723362,-0.0026 2.400625,0.323379 3.195531,1.545274 1.333668,2.050042 2.566393,2.763747 3.289465,1.90442 0.40058,-0.476052 0.473899,-0.936006 0.454923,-2.851106 -0.03457,-3.478896 -0.94394,-6.643709 -2.254366,-7.851617 -0.349004,-0.321703 -0.619985,-0.476908 -0.917221,-0.477033 z m -7.486939,2.049926 h 0.799346 0.79934 v 0.685152 0.685155 h 0.685156 0.685148 v 0.856441 0.856435 h -0.685148 -0.685156 v 0.742248 0.742251 h -0.723826 c -0.397652,0 -0.755645,-0.03568 -0.797503,-0.07735 -0.04185,-0.04185 -0.07732,-0.374141 -0.07732,-0.740403 v -0.666745 h -0.685161 -0.685156 v -0.856437 -0.856439 h 0.685156 0.685149 v -0.685157 z m 6.516311,0 c 0.721112,0 1.029934,0.798977 0.510182,1.318734 -0.330544,0.330508 -0.632217,0.356486 -0.957741,0.08106 -0.56463,-0.477772 -0.269928,-1.399771 0.447559,-1.399771 z m -1.386879,1.464237 c 0.180072,1.21e-4 0.361362,0.07187 0.50465,0.230203 0.223372,0.246825 0.247504,0.811915 0.04607,1.075615 -0.394228,0.516094 -1.340833,0.18413 -1.340833,-0.469659 0,-0.496196 0.39399,-0.836453 0.790134,-0.836178 z m 2.830855,0.02772 c 0.207551,0.0039 0.409039,0.07252 0.526752,0.202589 0.223372,0.246826 0.247471,0.811914 0.04604,1.075617 -0.419316,0.548931 -1.340835,0.181519 -1.340835,-0.534125 0,-0.216927 0.08692,-0.452038 0.2081,-0.56175 0.138541,-0.125395 0.35239,-0.186127 0.559914,-0.182325 z m -1.394247,1.477124 c 0.639304,0 0.95037,0.678118 0.563588,1.230325 -0.132224,0.188768 -0.293477,0.254171 -0.626215,0.254171 -0.383084,0 -0.471983,-0.04986 -0.626209,-0.348115 -0.30411,-0.588069 0.02772,-1.136394 0.688836,-1.136394 z" />
  </g>
</svg>
