<?xml version="1.0" encoding="UTF-8" standalone="no"?>
<svg
   width="64"
   height="64"
   version="1.1"
   id="svg73"
   sodipodi:docname="Logo.svg"
   inkscape:version="1.3.2 (091e20ef0f, 2023-11-25)"
   xmlns:inkscape="http://www.inkscape.org/namespaces/inkscape"
   xmlns:sodipodi="http://sodipodi.sourceforge.net/DTD/sodipodi-0.dtd"
   xmlns="http://www.w3.org/2000/svg"
   xmlns:svg="http://www.w3.org/2000/svg"
   xmlns:rdf="http://www.w3.org/1999/02/22-rdf-syntax-ns#"
   xmlns:cc="http://creativecommons.org/ns#"
   xmlns:dc="http://purl.org/dc/elements/1.1/">
  <metadata
     id="metadata77">
    <rdf:RDF>
      <cc:Work
         rdf:about="">
        <dc:format>image/svg+xml</dc:format>
        <dc:type
           rdf:resource="http://purl.org/dc/dcmitype/StillImage" />
      </cc:Work>
    </rdf:RDF>
  </metadata>
  <sodipodi:namedview
     pagecolor="#f5f7fa"
     bordercolor="#666666"
     borderopacity="1"
     objecttolerance="10"
     gridtolerance="10"
     guidetolerance="10"
     inkscape:pageopacity="0"
     inkscape:pageshadow="2"
     inkscape:window-width="1377"
     inkscape:window-height="886"
     id="namedview75"
     showgrid="false"
     inkscape:zoom="6.2890624"
     inkscape:cx="35.935404"
     inkscape:cy="30.926709"
     inkscape:window-x="181"
     inkscape:window-y="77"
     inkscape:window-maximized="0"
     inkscape:current-layer="g877"
     inkscape:document-rotation="0"
     inkscape:pagecheckerboard="0"
     inkscape:showpageshadow="2"
     inkscape:deskcolor="#d1d1d1" />
  <defs
     id="defs29">
    <linearGradient
       id="b"
       x1="399.57"
       x2="399.57"
       y1="545.8"
       y2="517.8"
       gradientTransform="matrix(2.1429,0,0,2.1429,-825.86391,-1107.6662)"
       gradientUnits="userSpaceOnUse">
      <stop
         stop-color="#3889e9"
         offset="0"
         id="stop2" />
      <stop
         stop-color="#5ea5fb"
         offset="1"
         id="stop4" />
    </linearGradient>
    <linearGradient
       id="d"
       x2="1"
       gradientTransform="matrix(14.905727,-4.7106182,4.7106182,14.905727,322.04962,998.26962)"
       gradientUnits="userSpaceOnUse">
      <stop
         stop-color="#fafafa"
         offset="0"
         id="stop7" />
      <stop
         stop-color="#aaa"
         offset="1"
         id="stop8" />
    </linearGradient>
    <linearGradient
       id="e"
       x2="1"
       gradientTransform="matrix(21.439909,0,0,21.439909,26.63554,1159.7788)"
       gradientUnits="userSpaceOnUse">
      <stop
         stop-color="#f0f0f0"
         offset="0"
         id="stop9" />
      <stop
         stop-color="#b7f1ff"
         offset="1"
         id="stop10" />
    </linearGradient>
  </defs>
  <circle
     cx="32.516094"
     cy="31.877844"
     r="0"
     fill="url(#b)"
     stroke-width="1.5715"
     id="circle41"
     style="fill:url(#b)" />
  <g
     aria-label="GZ"
     transform="matrix(1.2212657,0,0,0.81882264,0.4960938,-0.1661539)"
     id="text93"
     style="font-weight:bold;font-size:11.5263px;line-height:1.25;font-family:sans-serif;-inkscape-font-specification:'sans-serif Bold';fill:#f2f2f2;stroke-width:0.288159" />
  <g
     id="g877"
     transform="matrix(1.1,0,0,1.1,-3.1845928,-3.2065454)">
    <rect
       x="6.3010068"
       y="5.4939413"
       width="51.635597"
       height="53.148327"
       rx="10.980581"
       ry="10.720582"
       fill="url(#linearGradient862)"
       stroke-width="3.0541"
       id="rect35-7-3"
       style="fill:#414141;fill-opacity:1;stroke:#dfdfdf;stroke-width:2.27272727;stroke-dasharray:none;stroke-opacity:1" />
    <path
       d="m 30.308975,53.06258 v -5.765455 l -3.051818,1.810909 -1.493636,-0.94 v -2.026363 l 4.545454,-2.714546 v -3.789091 l -3.636363,2.228182 v -4.014545 l -3.636364,1.903636 v 5.445454 l -1.502727,1.118182 -1.224546,-1.01 v -3.647272 l -5.067273,2.838181 -2.205454,-0.908181 V 41.29258 l 5.168182,-2.881819 -3.35,-1.656363 v -2.109091 l 1.93,-1.024546 4.74,2.789091 3.283636,-1.894545 -0.07455,-0.05909 -3.331818,-1.93 3.243636,-2.025455 -3.251818,-1.893636 -4.739091,2.774545 -1.8,-0.880909 v -2.097273 l 3.220005,-1.798182 -5.038182,-2.775455 v -2.299091 l 2.11,-1.012727 5.162727,2.906364 v -3.705455 l 1.35,-1.024545 1.766364,1.072727 -0.05091,5.55 3.339091,1.929091 0.03,-3.919091 3.565454,1.908182 v -3.788182 l -4.545453,-2.716364 v -2.012727 l 1.493636,-0.954545 3.051818,1.810909 V 11.82167 l 1.812728,-1.203636 1.823636,1.203636 v 5.752728 l 3.550909,-1.846364 1.903636,1.108182 v 1.810909 l -5.454545,2.8 v 3.788182 l 3.636364,-2.060909 v 4.121818 l 3.636363,-1.894546 v -5.930909 l 1.322728,-0.787272 1.404545,0.786363 v 3.788182 l 5.310909,-2.8 1.961818,1.107273 v 2.144545 l -4.995454,2.881818 3.177272,1.776364 v 2.049091 l -1.663636,0.905455 -4.842727,-2.87091 -3.344546,2.132728 3.226364,2.025454 -3.326364,1.929091 3.429091,1.810909 4.899091,-2.714545 1.622727,1.105454 v 1.954546 l -3.018181,1.715454 4.836363,2.881819 v 2.263636 l -2.292727,0.942727 -4.98,-2.716363 v 3.595454 l -1.381818,0.953637 -1.345455,-0.953637 v -5.456363 l -3.636363,-2.011819 v 3.789091 l -3.636364,-2.061818 v 3.789091 l 4.545455,2.714545 v 2.144546 l -1.497273,0.821818 -3.048182,-1.809091 v 5.765455 l -1.823636,1.190909 z m -1.332727,-20.542728 1.714546,2.643637 h 3.194545 l 1.466364,-2.643637 -1.549091,-2.810909 h -3.194546 z"
       id="path1"
       style="stroke-width:0.909091;fill:#dfdfdf;fill-opacity:1" />
  </g>
</svg>
