<?xml version="1.0" encoding="UTF-8" standalone="no"?>
<svg
   width="64"
   height="64"
   version="1.1"
   id="svg73"
   sodipodi:docname="steam_icon_1604030.svg"
   inkscape:version="1.4.2 (ebf0e940d0, 2025-05-08)"
   xmlns:inkscape="http://www.inkscape.org/namespaces/inkscape"
   xmlns:sodipodi="http://sodipodi.sourceforge.net/DTD/sodipodi-0.dtd"
   xmlns="http://www.w3.org/2000/svg"
   xmlns:svg="http://www.w3.org/2000/svg"
   xmlns:rdf="http://www.w3.org/1999/02/22-rdf-syntax-ns#"
   xmlns:cc="http://creativecommons.org/ns#"
   xmlns:dc="http://purl.org/dc/elements/1.1/">
  <metadata
     id="metadata77">
    <rdf:RDF>
      <cc:Work
         rdf:about="">
        <dc:format>image/svg+xml</dc:format>
        <dc:type
           rdf:resource="http://purl.org/dc/dcmitype/StillImage" />
      </cc:Work>
    </rdf:RDF>
  </metadata>
  <sodipodi:namedview
     pagecolor="#f5f7fa"
     bordercolor="#666666"
     borderopacity="1"
     objecttolerance="10"
     gridtolerance="10"
     guidetolerance="10"
     inkscape:pageopacity="0"
     inkscape:pageshadow="2"
     inkscape:window-width="1377"
     inkscape:window-height="886"
     id="namedview75"
     showgrid="false"
     inkscape:zoom="6.2890624"
     inkscape:cx="47.622361"
     inkscape:cy="45.396274"
     inkscape:window-x="147"
     inkscape:window-y="75"
     inkscape:window-maximized="0"
     inkscape:current-layer="g877"
     inkscape:document-rotation="0"
     inkscape:pagecheckerboard="0"
     inkscape:showpageshadow="2"
     inkscape:deskcolor="#d1d1d1" />
  <defs
     id="defs29" />
  <circle
     cx="32.516094"
     cy="31.877844"
     r="0"
     fill="url(#b)"
     stroke-width="1.5715"
     id="circle41"
     style="fill:url(#b)" />
  <g
     aria-label="GZ"
     transform="matrix(1.2212657,0,0,0.81882264,0.4960938,-0.1661539)"
     id="text93"
     style="font-weight:bold;font-size:11.5263px;line-height:1.25;font-family:sans-serif;-inkscape-font-specification:'sans-serif Bold';fill:#f2f2f2;stroke-width:0.288159" />
  <g
     id="g877"
     transform="matrix(1.1,0,0,1.1,-3.1845928,-3.2065454)">
    <rect
       x="8.3496294"
       y="8.369586"
       width="47.272728"
       height="47.272728"
       rx="9.8825235"
       ry="9.6485243"
       fill="url(#linearGradient862)"
       stroke-width="3.0541"
       id="rect35-7-3"
       style="fill:#414141;fill-opacity:1;stroke:#dfdfdf;stroke-width:2.04545;stroke-dasharray:none;stroke-opacity:1" />
    <path
       style="fill:#dfdfdf;stroke-width:0.110987;fill-opacity:1"
       d="m 31.079165,47.351526 c -1.380756,-0.145106 -2.486074,-0.414471 -3.699592,-0.90161 -1.920524,-0.770946 -3.263802,-1.758378 -4.770632,-3.506853 -1.516104,-1.759239 -2.329927,-3.282886 -3.139382,-5.877583 -0.124496,-0.399074 -0.3021,-1.413061 -0.409707,-2.339129 -0.188355,-1.62099 -0.01415,-3.978826 0.41215,-5.577998 0.223772,-0.839455 0.276435,-1.014329 0.490222,-1.627822 0.361531,-1.037477 0.400288,-1.130479 0.939464,-2.254436 0.839561,-1.750137 1.849465,-3.167077 3.316802,-4.653617 2.094368,-2.121778 4.137789,-3.348516 6.453719,-3.874394 0.426201,-0.09678 0.906827,-0.125781 2.071773,-0.125023 1.695812,9.09e-4 2.488342,0.124115 3.65291,0.56698 1.303492,0.495693 2.957353,1.562495 3.696275,2.38424 0.07422,0.08256 0.34257,0.366538 0.596301,0.631058 0.44936,0.468484 1.300764,1.572347 1.527111,1.97994 0.06195,0.11155 0.236431,0.412174 0.387766,0.668052 1.133193,1.91615 1.972547,4.505055 2.284041,7.044937 0.179188,1.461007 0.110536,3.663049 -0.164894,5.29042 -0.131736,0.778213 -0.603942,2.709182 -0.769032,3.144654 -0.05398,0.142422 -0.173415,0.458751 -0.265397,0.702923 -0.223031,0.592078 -0.758153,1.721994 -1.042929,2.20213 -0.126445,0.21317 -0.295118,0.50412 -0.374906,0.646553 -0.45372,0.810178 -1.731803,2.293885 -2.579949,2.995025 -1.038662,0.858647 -2.552576,1.704137 -3.580648,1.999729 -0.244172,0.0702 -0.524053,0.158778 -0.621955,0.196814 -0.659389,0.256257 -3.150834,0.417275 -4.409491,0.285017 z m 2.863541,-1.412321 c 0.642165,-0.129846 1.322655,-0.349822 1.612965,-0.521399 0.06104,-0.03608 0.188863,-0.09913 0.284044,-0.140086 0.247337,-0.106447 1.113448,-0.677184 1.412593,-0.93083 0.496331,-0.420848 1.20212,-1.186819 1.709834,-1.855633 0.283298,-0.373195 0.515094,-0.697186 0.515094,-0.719984 0,-0.02268 0.112048,-0.216914 0.248973,-0.431342 0.473729,-0.741904 0.920773,-1.711297 1.578805,-3.42356 0.06257,-0.162763 0.142903,-0.36256 0.178569,-0.443948 0.07542,-0.172178 0.421708,-1.474596 0.521307,-1.960786 0.386327,-1.885784 0.479745,-3.250576 0.367518,-5.369144 -0.04933,-0.931271 -0.118813,-1.827271 -0.154404,-1.99111 -0.0356,-0.163838 -0.102825,-0.529264 -0.149421,-0.812051 -0.04658,-0.282791 -0.198511,-0.93207 -0.337591,-1.442843 -0.966279,-3.548667 -2.815727,-6.001363 -5.404308,-7.167063 -0.685455,-0.308677 -0.920502,-0.300673 -1.631849,0.05555 -0.582685,0.291804 -1.621431,1.157451 -1.819441,1.516245 -0.05192,0.0941 -0.251476,0.365483 -0.443437,0.603077 -0.374732,0.463817 -0.665547,0.977122 -0.855932,1.510781 -0.152562,0.427639 -0.170041,1.960456 -0.02793,2.449042 0.134536,0.462545 0.569408,1.012227 0.981624,1.240788 0.332444,0.184328 0.345523,0.18572 0.541112,0.05757 0.110241,-0.07223 0.264641,-0.28111 0.343109,-0.464175 0.07847,-0.183064 0.193124,-0.383294 0.254783,-0.444953 0.06165,-0.06166 0.145951,-0.175343 0.18731,-0.252629 0.132588,-0.247735 0.333368,-0.306488 0.522904,-0.153005 0.164282,0.133028 0.172879,0.133001 0.316792,-10e-4 0.08135,-0.0758 0.166619,-0.136756 0.189465,-0.135461 0.09622,0.0055 0.27166,0.196952 0.35691,0.389588 0.294719,0.665929 -0.154071,1.478522 -1.055267,1.910744 -0.419189,0.201046 -0.497889,0.212924 -1.410914,0.212979 -1.076691,6.6e-5 -1.511417,-0.09139 -2.177692,-0.458133 -0.543546,-0.299187 -0.964402,-0.766812 -1.279748,-1.421962 -0.660978,-1.373216 -0.660977,-2.466256 6e-6,-4.140072 0.14683,-0.371819 0.298948,-0.717429 0.338038,-0.768017 0.0391,-0.05059 0.167716,-0.296324 0.28583,-0.546079 0.199951,-0.42278 0.589859,-0.992703 0.76495,-1.1181 0.171714,-0.122979 -0.07033,-0.04323 -0.464688,0.153142 -1.263901,0.629301 -2.217728,1.475403 -3.37183,2.991018 -0.147467,0.193657 -0.268118,0.367817 -0.268118,0.387023 0,0.01921 -0.110781,0.210369 -0.24618,0.424811 -0.720559,1.141192 -1.606426,3.704607 -1.924655,5.569319 -0.341119,1.998866 -0.374258,2.408169 -0.374398,4.62449 -1.49e-4,2.901781 0.182796,4.328278 0.811322,6.325078 0.16256,0.516455 0.628811,1.605812 0.74723,1.74586 0.05432,0.06422 0.09878,0.138677 0.09878,0.165374 0,0.05243 0.446955,0.803671 0.514441,0.864691 0.02251,0.02027 0.140708,0.184719 0.262683,0.365254 0.634595,0.939327 2.355136,2.342542 3.528484,2.87771 1.408617,0.642477 2.85066,0.890017 3.922343,0.673308 z"
       id="path1-7" />
    <rect
       x="37.737823"
       y="37.757782"
       width="22.610399"
       height="22.610399"
       rx="4.7267799"
       ry="4.6148596"
       fill="url(#linearGradient862)"
       stroke-width="3.0541"
       id="rect35-7-3-1"
       style="fill:#414141;fill-opacity:1;stroke:#dfdfdf;stroke-width:0.978336;stroke-dasharray:none;stroke-opacity:1" />
    <path
       id="path1"
       style="fill:#dfdfdf;fill-opacity:1;stroke:none;stroke-width:0.224244;stroke-dasharray:none;stroke-dashoffset:2.2;stroke-opacity:0.6"
       d="m 53.054544,43.299438 c -0.231167,-9.7e-5 -0.478613,0.09299 -0.788298,0.274436 -0.736938,0.431788 -1.700715,0.635422 -3.024237,0.635422 -1.323397,0 -2.319324,-0.207971 -3.051873,-0.637265 -0.587409,-0.344229 -0.938101,-0.348791 -1.431082,-0.01642 -1.265645,0.852917 -2.219508,3.587517 -2.499329,7.160943 -0.167795,2.14283 -0.01103,3.27254 0.543328,3.908309 0.267381,0.306528 0.923785,0.254559 1.515809,-0.12156 0.501846,-0.318836 1.099794,-1.022374 1.814177,-2.134665 0.645548,-1.005122 1.426374,-1.336165 3.153173,-1.338993 1.723362,-0.0026 2.400625,0.323379 3.195531,1.545274 1.333668,2.050042 2.566393,2.763747 3.289465,1.90442 0.40058,-0.476052 0.473899,-0.936006 0.454923,-2.851106 -0.03457,-3.478896 -0.94394,-6.643709 -2.254366,-7.851617 -0.349004,-0.321703 -0.619985,-0.476908 -0.917221,-0.477033 z m -7.486939,2.049926 h 0.799346 0.79934 v 0.685152 0.685155 h 0.685156 0.685148 v 0.856441 0.856435 h -0.685148 -0.685156 v 0.742248 0.742251 h -0.723826 c -0.397652,0 -0.755645,-0.03568 -0.797503,-0.07735 -0.04185,-0.04185 -0.07732,-0.374141 -0.07732,-0.740403 v -0.666745 h -0.685161 -0.685156 v -0.856437 -0.856439 h 0.685156 0.685149 v -0.685157 z m 6.516311,0 c 0.721112,0 1.029934,0.798977 0.510182,1.318734 -0.330544,0.330508 -0.632217,0.356486 -0.957741,0.08106 -0.56463,-0.477772 -0.269928,-1.399771 0.447559,-1.399771 z m -1.386879,1.464237 c 0.180072,1.21e-4 0.361362,0.07187 0.50465,0.230203 0.223372,0.246825 0.247504,0.811915 0.04607,1.075615 -0.394228,0.516094 -1.340833,0.18413 -1.340833,-0.469659 0,-0.496196 0.39399,-0.836453 0.790134,-0.836178 z m 2.830855,0.02772 c 0.207551,0.0039 0.409039,0.07252 0.526752,0.202589 0.223372,0.246826 0.247471,0.811914 0.04604,1.075617 -0.419316,0.548931 -1.340835,0.181519 -1.340835,-0.534125 0,-0.216927 0.08692,-0.452038 0.2081,-0.56175 0.138541,-0.125395 0.35239,-0.186127 0.559914,-0.182325 z m -1.394247,1.477124 c 0.639304,0 0.95037,0.678118 0.563588,1.230325 -0.132224,0.188768 -0.293477,0.254171 -0.626215,0.254171 -0.383084,0 -0.471983,-0.04986 -0.626209,-0.348115 -0.30411,-0.588069 0.02772,-1.136394 0.688836,-1.136394 z" />
  </g>
</svg>
