<?xml version="1.0" encoding="UTF-8" standalone="no"?>
<svg
   width="64"
   height="64"
   version="1.1"
   id="svg73"
   sodipodi:docname="steam_icon_368260.svg"
   inkscape:version="1.4.2 (ebf0e940d0, 2025-05-08)"
   xmlns:inkscape="http://www.inkscape.org/namespaces/inkscape"
   xmlns:sodipodi="http://sodipodi.sourceforge.net/DTD/sodipodi-0.dtd"
   xmlns="http://www.w3.org/2000/svg"
   xmlns:svg="http://www.w3.org/2000/svg"
   xmlns:rdf="http://www.w3.org/1999/02/22-rdf-syntax-ns#"
   xmlns:cc="http://creativecommons.org/ns#"
   xmlns:dc="http://purl.org/dc/elements/1.1/">
  <metadata
     id="metadata77">
    <rdf:RDF>
      <cc:Work
         rdf:about="">
        <dc:format>image/svg+xml</dc:format>
        <dc:type
           rdf:resource="http://purl.org/dc/dcmitype/StillImage" />
      </cc:Work>
    </rdf:RDF>
  </metadata>
  <sodipodi:namedview
     pagecolor="#f5f7fa"
     bordercolor="#666666"
     borderopacity="1"
     objecttolerance="10"
     gridtolerance="10"
     guidetolerance="10"
     inkscape:pageopacity="0"
     inkscape:pageshadow="2"
     inkscape:window-width="1377"
     inkscape:window-height="886"
     id="namedview75"
     showgrid="false"
     inkscape:zoom="6.2890624"
     inkscape:cx="47.622361"
     inkscape:cy="45.396274"
     inkscape:window-x="147"
     inkscape:window-y="75"
     inkscape:window-maximized="0"
     inkscape:current-layer="g877"
     inkscape:document-rotation="0"
     inkscape:pagecheckerboard="0"
     inkscape:showpageshadow="2"
     inkscape:deskcolor="#d1d1d1" />
  <defs
     id="defs29" />
  <circle
     cx="32.516094"
     cy="31.877844"
     r="0"
     fill="url(#b)"
     stroke-width="1.5715"
     id="circle41"
     style="fill:url(#b)" />
  <g
     aria-label="GZ"
     transform="matrix(1.2212657,0,0,0.81882264,0.4960938,-0.1661539)"
     id="text93"
     style="font-weight:bold;font-size:11.5263px;line-height:1.25;font-family:sans-serif;-inkscape-font-specification:'sans-serif Bold';fill:#f2f2f2;stroke-width:0.288159" />
  <g
     id="g877"
     transform="matrix(1.1,0,0,1.1,-3.1845928,-3.2065454)">
    <rect
       x="8.3496294"
       y="8.369586"
       width="47.272728"
       height="47.272728"
       rx="9.8825235"
       ry="9.6485243"
       fill="url(#linearGradient862)"
       stroke-width="3.0541"
       id="rect35-7-3"
       style="fill:#414141;fill-opacity:1;stroke:#dfdfdf;stroke-width:2.04545;stroke-dasharray:none;stroke-opacity:1" />
    <path
       fill="#000000"
       d="m 24.475211,16.516578 c -3.104545,1.42922 -5.153198,3.727165 -5.153198,6.304549 0,1.696388 0.871905,3.267247 2.353236,4.550536 -0.757819,1.65013 -1.233793,3.502574 -1.352038,5.47132 1.117102,0.0365 2.178464,0.27319 3.131068,0.760142 2.700547,1.38063 3.968601,4.349382 3.754446,7.867491 0.491563,0.118916 0.993029,0.217938 1.502228,0.297592 0.05804,-1.08891 0.05401,-2.174419 -0.03218,-3.256461 l 1.21041,-0.09647 c 0.0935,1.17178 0.09523,2.339862 0.02975,3.504409 0.521211,0.04937 1.048642,0.07853 1.580236,0.08991 v -3.653685 h 1.214083 v 3.646798 c 0.508728,-0.01624 1.019584,-0.04923 1.531027,-0.09828 -0.06447,-1.159397 -0.06235,-2.322381 0.0306,-3.488933 l 1.210413,0.09641 c -0.08604,1.078319 -0.09018,2.160066 -0.03257,3.245278 0.474745,-0.0695 0.948559,-0.152987 1.420475,-0.249749 -0.225334,-3.534042 1.042041,-6.518667 3.75182,-7.904025 0.952483,-0.487089 2.013964,-0.723925 3.130933,-0.760292 -0.119642,-1.995648 -0.607007,-3.871851 -1.382825,-5.53887 1.43456,-1.270823 2.276839,-2.816228 2.276839,-4.482979 0,-2.57738 -2.048668,-4.875391 -5.15322,-6.304422 0.848177,1.076368 1.370355,2.366035 1.370355,3.727821 0,2.773464 -2.047224,5.172562 -5.004414,6.311633 l -0.398898,-0.929079 c 0.724278,-0.288468 1.37951,-0.662499 1.941052,-1.102157 0.65621,-0.513596 1.1826,-1.110155 1.553435,-1.764215 -1.93934,-1.645901 -4.329748,-2.61721 -6.91858,-2.61721 -2.620904,0 -5.038699,0.994962 -6.990824,2.678282 0.368643,0.630217 0.882831,1.20553 1.518488,1.703143 0.628271,0.491825 1.373806,0.90159 2.202118,1.201308 l -0.397947,0.92674 C 25.27391,25.557505 23.105,23.099475 23.105,20.244671 c 0,-1.361785 0.522229,-2.651452 1.370419,-3.727821 z m 0.668305,11.897954 c 0.0043,-2.75e-4 0.0059,2.71e-4 0.007,0.0059 1.196374,1.517023 3.373932,2.579107 5.917906,2.804221 -0.382787,1.279794 -1.75355,2.243436 -3.421975,2.243436 -1.962784,0 -3.583021,-1.337354 -3.583021,-2.957278 1.2e-4,-0.809843 0.403149,-1.559082 1.046664,-2.090292 0.0059,0.0059 0.02146,-0.0043 0.03203,-0.0059 z m 13.752204,1.15e-4 c 0.0051,-2.02e-4 0.0051,4.44e-4 0.0079,0.0059 0.643661,0.531134 1.04679,1.280377 1.04679,2.090286 0,1.619735 -1.620178,2.957148 -3.583126,2.957148 -1.66844,0 -3.039074,-0.963512 -3.421996,-2.243444 2.544133,-0.225187 4.721773,-1.287258 5.918114,-2.804109 0.0051,0.0059 0.02116,-0.0043 0.03127,-0.0059 z m -6.859607,2.86871 c 0.365456,1.781478 0.904895,3.562986 2.138174,5.344462 -1.317204,0.352956 -2.911845,0.365614 -4.276362,0 1.167381,-1.781476 1.743416,-3.562984 2.138188,-5.344462 z M 27.078206,42.6883 c -0.15204,1.000533 -0.416661,2.033579 -0.795892,3.077767 0.570822,0.37295 1.171891,0.691638 1.797278,0.950973 0.235663,-1.249039 0.424703,-2.493309 0.541189,-3.732857 -0.521037,-0.07932 -1.035871,-0.177634 -1.542646,-0.295807 z m 9.927652,0.03127 c -0.485994,0.09764 -0.974256,0.182362 -1.463553,0.25262 0.115485,1.232616 0.302463,2.46986 0.535891,3.711771 0.597207,-0.253198 1.171749,-0.560702 1.718595,-0.917795 -0.375246,-1.03357 -0.638265,-2.056096 -0.790933,-3.046818 z m -2.669914,0.397293 c -0.541535,0.05201 -1.082926,0.08592 -1.622647,0.102743 v 4.268216 c 0.75652,-0.04998 1.494699,-0.182606 2.207254,-0.390741 -0.253263,-1.321529 -0.458571,-2.648438 -0.584607,-3.980265 z m -4.509101,0.01507 c -0.126977,1.334616 -0.333295,2.664054 -0.587512,3.988338 0.729406,0.206631 1.485223,0.33437 2.259858,0.375054 v -4.269307 c -0.561469,-0.01102 -1.119693,-0.04198 -1.672346,-0.09374 z"
       id="path1-4"
       style="fill:#dfdfdf;fill-opacity:1;stroke:none;stroke-width:0.459507;stroke-dasharray:none;stroke-opacity:0.6" />
    <rect
       x="37.737823"
       y="37.757782"
       width="22.610399"
       height="22.610399"
       rx="4.7267799"
       ry="4.6148596"
       fill="url(#linearGradient862)"
       stroke-width="3.0541"
       id="rect35-7-3-1"
       style="fill:#414141;fill-opacity:1;stroke:#dfdfdf;stroke-width:0.978336;stroke-dasharray:none;stroke-opacity:1" />
    <path
       id="path1"
       style="fill:#dfdfdf;fill-opacity:1;stroke:none;stroke-width:0.224244;stroke-dasharray:none;stroke-dashoffset:2.2;stroke-opacity:0.6"
       d="m 53.054544,43.299438 c -0.231167,-9.7e-5 -0.478613,0.09299 -0.788298,0.274436 -0.736938,0.431788 -1.700715,0.635422 -3.024237,0.635422 -1.323397,0 -2.319324,-0.207971 -3.051873,-0.637265 -0.587409,-0.344229 -0.938101,-0.348791 -1.431082,-0.01642 -1.265645,0.852917 -2.219508,3.587517 -2.499329,7.160943 -0.167795,2.14283 -0.01103,3.27254 0.543328,3.908309 0.267381,0.306528 0.923785,0.254559 1.515809,-0.12156 0.501846,-0.318836 1.099794,-1.022374 1.814177,-2.134665 0.645548,-1.005122 1.426374,-1.336165 3.153173,-1.338993 1.723362,-0.0026 2.400625,0.323379 3.195531,1.545274 1.333668,2.050042 2.566393,2.763747 3.289465,1.90442 0.40058,-0.476052 0.473899,-0.936006 0.454923,-2.851106 -0.03457,-3.478896 -0.94394,-6.643709 -2.254366,-7.851617 -0.349004,-0.321703 -0.619985,-0.476908 -0.917221,-0.477033 z m -7.486939,2.049926 h 0.799346 0.79934 v 0.685152 0.685155 h 0.685156 0.685148 v 0.856441 0.856435 h -0.685148 -0.685156 v 0.742248 0.742251 h -0.723826 c -0.397652,0 -0.755645,-0.03568 -0.797503,-0.07735 -0.04185,-0.04185 -0.07732,-0.374141 -0.07732,-0.740403 v -0.666745 h -0.685161 -0.685156 v -0.856437 -0.856439 h 0.685156 0.685149 v -0.685157 z m 6.516311,0 c 0.721112,0 1.029934,0.798977 0.510182,1.318734 -0.330544,0.330508 -0.632217,0.356486 -0.957741,0.08106 -0.56463,-0.477772 -0.269928,-1.399771 0.447559,-1.399771 z m -1.386879,1.464237 c 0.180072,1.21e-4 0.361362,0.07187 0.50465,0.230203 0.223372,0.246825 0.247504,0.811915 0.04607,1.075615 -0.394228,0.516094 -1.340833,0.18413 -1.340833,-0.469659 0,-0.496196 0.39399,-0.836453 0.790134,-0.836178 z m 2.830855,0.02772 c 0.207551,0.0039 0.409039,0.07252 0.526752,0.202589 0.223372,0.246826 0.247471,0.811914 0.04604,1.075617 -0.419316,0.548931 -1.340835,0.181519 -1.340835,-0.534125 0,-0.216927 0.08692,-0.452038 0.2081,-0.56175 0.138541,-0.125395 0.35239,-0.186127 0.559914,-0.182325 z m -1.394247,1.477124 c 0.639304,0 0.95037,0.678118 0.563588,1.230325 -0.132224,0.188768 -0.293477,0.254171 -0.626215,0.254171 -0.383084,0 -0.471983,-0.04986 -0.626209,-0.348115 -0.30411,-0.588069 0.02772,-1.136394 0.688836,-1.136394 z" />
  </g>
</svg>
