<?xml version="1.0" encoding="UTF-8" standalone="no"?>
<svg
   width="64"
   height="64"
   version="1.1"
   id="svg73"
   sodipodi:docname="steam_icon_368260.svg"
   inkscape:version="1.4.2 (ebf0e940d0, 2025-05-08)"
   xmlns:inkscape="http://www.inkscape.org/namespaces/inkscape"
   xmlns:sodipodi="http://sodipodi.sourceforge.net/DTD/sodipodi-0.dtd"
   xmlns="http://www.w3.org/2000/svg"
   xmlns:svg="http://www.w3.org/2000/svg"
   xmlns:rdf="http://www.w3.org/1999/02/22-rdf-syntax-ns#"
   xmlns:cc="http://creativecommons.org/ns#"
   xmlns:dc="http://purl.org/dc/elements/1.1/">
  <metadata
     id="metadata77">
    <rdf:RDF>
      <cc:Work
         rdf:about="">
        <dc:format>image/svg+xml</dc:format>
        <dc:type
           rdf:resource="http://purl.org/dc/dcmitype/StillImage" />
      </cc:Work>
    </rdf:RDF>
  </metadata>
  <sodipodi:namedview
     pagecolor="#f5f7fa"
     bordercolor="#666666"
     borderopacity="1"
     objecttolerance="10"
     gridtolerance="10"
     guidetolerance="10"
     inkscape:pageopacity="0"
     inkscape:pageshadow="2"
     inkscape:window-width="1377"
     inkscape:window-height="886"
     id="namedview75"
     showgrid="false"
     inkscape:zoom="6.2890624"
     inkscape:cx="47.622361"
     inkscape:cy="45.396274"
     inkscape:window-x="147"
     inkscape:window-y="75"
     inkscape:window-maximized="0"
     inkscape:current-layer="g877"
     inkscape:document-rotation="0"
     inkscape:pagecheckerboard="0"
     inkscape:showpageshadow="2"
     inkscape:deskcolor="#d1d1d1" />
  <defs
     id="defs29" />
  <circle
     cx="32.516094"
     cy="31.877844"
     r="0"
     fill="url(#b)"
     stroke-width="1.5715"
     id="circle41"
     style="fill:url(#b)" />
  <g
     aria-label="GZ"
     transform="matrix(1.2212657,0,0,0.81882264,0.4960938,-0.1661539)"
     id="text93"
     style="font-weight:bold;font-size:11.5263px;line-height:1.25;font-family:sans-serif;-inkscape-font-specification:'sans-serif Bold';fill:#f2f2f2;stroke-width:0.288159" />
  <g
     id="g877"
     transform="matrix(1.1,0,0,1.1,-3.1845928,-3.2065454)">
    <rect
       x="8.3496294"
       y="8.369586"
       width="47.272728"
       height="47.272728"
       rx="9.8825235"
       ry="9.6485243"
       fill="url(#linearGradient862)"
       stroke-width="3.0541"
       id="rect35-7-3"
       style="fill:#414141;fill-opacity:1;stroke:#dfdfdf;stroke-width:2.04545;stroke-dasharray:none;stroke-opacity:1" />
    <path
       style="fill:#dfdfdf;fill-opacity:1;stroke:none;stroke-width:0.463097;stroke-dasharray:none;stroke-opacity:0.6"
       d="M 30.695247,45.425423 C 28.94515,43.255986 27.459883,40.938254 26.25929,38.503184 l -1.057738,-2.145323 0.05192,-3.518324 c 0.04938,-3.345788 -0.247715,-7.197834 -0.814031,-10.554984 -0.07962,-0.471969 -0.114954,-0.889834 -0.07854,-0.928586 0.03642,-0.03873 0.221164,0.06976 0.410534,0.241128 0.189365,0.171377 0.344141,0.28031 0.343943,0.242083 -1.89e-4,-0.03822 -0.386445,-1.105602 -0.858326,-2.371948 -0.471885,-1.266344 -0.829397,-2.331018 -0.794478,-2.365939 0.03493,-0.03491 0.689188,0.367514 1.453922,0.894302 0.873153,0.60147 1.558312,1.226265 1.8417,1.679435 0.248194,0.396906 0.407378,0.586488 0.353731,0.421298 -0.157425,-0.484769 0.25497,-0.358475 1.563805,0.478906 1.21451,0.777033 1.217283,0.780573 0.975368,1.244286 -0.196301,0.376279 -0.242629,1.677046 -0.242702,6.815188 -6.3e-5,4.053379 0.06763,6.598451 0.187158,7.036655 0.279472,1.02453 1.458581,3.363977 1.976541,3.921594 l 0.454295,0.489085 0.399206,-0.489085 c 0.468544,-0.574037 1.678729,-2.971654 1.936091,-3.835784 0.286301,-0.961317 0.388909,-5.595868 0.218476,-9.868478 -0.0866,-2.171065 -0.185585,-4.100872 -0.219957,-4.288461 -0.0474,-0.258743 0.204331,-0.520428 1.042913,-1.084115 0.607974,-0.408675 1.234408,-0.709308 1.392079,-0.668077 0.182499,0.04771 0.393675,-0.106173 0.581069,-0.423399 0.256258,-0.433779 2.993068,-2.452971 3.133897,-2.312141 0.02863,0.02873 -0.333833,1.088386 -0.805682,2.35473 -0.471879,1.266346 -0.858128,2.333726 -0.858327,2.371952 -1.69e-4,0.03822 0.154533,-0.07072 0.343948,-0.24208 0.189338,-0.171369 0.381056,-0.274834 0.425984,-0.229906 0.04492,0.04494 -0.02894,0.733103 -0.164323,1.529276 -0.573093,3.372766 -0.810299,6.84976 -0.6861,10.056978 l 0.120719,3.117367 -0.888279,1.859782 c -1.19885,2.510034 -2.698542,4.917512 -4.446,7.137263 -0.798836,1.014749 -1.498493,1.844931 -1.554803,1.844857 -0.0563,-7.9e-5 -0.642245,-0.66936 -1.302083,-1.4873 z m 6.262665,-25.200376 c 0,-0.04719 -0.0386,-0.08581 -0.08579,-0.08581 -0.0472,0 -0.0858,0.03861 -0.0858,0.08581 0,0.04719 0.0386,0.08581 0.0858,0.08581 0.0472,0 0.08579,-0.03861 0.08579,-0.08581 z"
       id="path1-5" />
    <rect
       x="37.737823"
       y="37.757782"
       width="22.610399"
       height="22.610399"
       rx="4.7267799"
       ry="4.6148596"
       fill="url(#linearGradient862)"
       stroke-width="3.0541"
       id="rect35-7-3-1"
       style="fill:#414141;fill-opacity:1;stroke:#dfdfdf;stroke-width:0.978336;stroke-dasharray:none;stroke-opacity:1" />
    <path
       id="path1"
       style="fill:#dfdfdf;fill-opacity:1;stroke:none;stroke-width:0.224244;stroke-dasharray:none;stroke-dashoffset:2.2;stroke-opacity:0.6"
       d="m 53.054544,43.299438 c -0.231167,-9.7e-5 -0.478613,0.09299 -0.788298,0.274436 -0.736938,0.431788 -1.700715,0.635422 -3.024237,0.635422 -1.323397,0 -2.319324,-0.207971 -3.051873,-0.637265 -0.587409,-0.344229 -0.938101,-0.348791 -1.431082,-0.01642 -1.265645,0.852917 -2.219508,3.587517 -2.499329,7.160943 -0.167795,2.14283 -0.01103,3.27254 0.543328,3.908309 0.267381,0.306528 0.923785,0.254559 1.515809,-0.12156 0.501846,-0.318836 1.099794,-1.022374 1.814177,-2.134665 0.645548,-1.005122 1.426374,-1.336165 3.153173,-1.338993 1.723362,-0.0026 2.400625,0.323379 3.195531,1.545274 1.333668,2.050042 2.566393,2.763747 3.289465,1.90442 0.40058,-0.476052 0.473899,-0.936006 0.454923,-2.851106 -0.03457,-3.478896 -0.94394,-6.643709 -2.254366,-7.851617 -0.349004,-0.321703 -0.619985,-0.476908 -0.917221,-0.477033 z m -7.486939,2.049926 h 0.799346 0.79934 v 0.685152 0.685155 h 0.685156 0.685148 v 0.856441 0.856435 h -0.685148 -0.685156 v 0.742248 0.742251 h -0.723826 c -0.397652,0 -0.755645,-0.03568 -0.797503,-0.07735 -0.04185,-0.04185 -0.07732,-0.374141 -0.07732,-0.740403 v -0.666745 h -0.685161 -0.685156 v -0.856437 -0.856439 h 0.685156 0.685149 v -0.685157 z m 6.516311,0 c 0.721112,0 1.029934,0.798977 0.510182,1.318734 -0.330544,0.330508 -0.632217,0.356486 -0.957741,0.08106 -0.56463,-0.477772 -0.269928,-1.399771 0.447559,-1.399771 z m -1.386879,1.464237 c 0.180072,1.21e-4 0.361362,0.07187 0.50465,0.230203 0.223372,0.246825 0.247504,0.811915 0.04607,1.075615 -0.394228,0.516094 -1.340833,0.18413 -1.340833,-0.469659 0,-0.496196 0.39399,-0.836453 0.790134,-0.836178 z m 2.830855,0.02772 c 0.207551,0.0039 0.409039,0.07252 0.526752,0.202589 0.223372,0.246826 0.247471,0.811914 0.04604,1.075617 -0.419316,0.548931 -1.340835,0.181519 -1.340835,-0.534125 0,-0.216927 0.08692,-0.452038 0.2081,-0.56175 0.138541,-0.125395 0.35239,-0.186127 0.559914,-0.182325 z m -1.394247,1.477124 c 0.639304,0 0.95037,0.678118 0.563588,1.230325 -0.132224,0.188768 -0.293477,0.254171 -0.626215,0.254171 -0.383084,0 -0.471983,-0.04986 -0.626209,-0.348115 -0.30411,-0.588069 0.02772,-1.136394 0.688836,-1.136394 z" />
  </g>
</svg>
