<?xml version="1.0" encoding="UTF-8" standalone="no"?>
<svg
   width="64"
   height="64"
   version="1.1"
   id="svg73"
   sodipodi:docname="steam_icon_368260.svg"
   inkscape:version="1.4.2 (ebf0e940d0, 2025-05-08)"
   xmlns:inkscape="http://www.inkscape.org/namespaces/inkscape"
   xmlns:sodipodi="http://sodipodi.sourceforge.net/DTD/sodipodi-0.dtd"
   xmlns="http://www.w3.org/2000/svg"
   xmlns:svg="http://www.w3.org/2000/svg"
   xmlns:rdf="http://www.w3.org/1999/02/22-rdf-syntax-ns#"
   xmlns:cc="http://creativecommons.org/ns#"
   xmlns:dc="http://purl.org/dc/elements/1.1/">
  <metadata
     id="metadata77">
    <rdf:RDF>
      <cc:Work
         rdf:about="">
        <dc:format>image/svg+xml</dc:format>
        <dc:type
           rdf:resource="http://purl.org/dc/dcmitype/StillImage" />
      </cc:Work>
    </rdf:RDF>
  </metadata>
  <sodipodi:namedview
     pagecolor="#f5f7fa"
     bordercolor="#666666"
     borderopacity="1"
     objecttolerance="10"
     gridtolerance="10"
     guidetolerance="10"
     inkscape:pageopacity="0"
     inkscape:pageshadow="2"
     inkscape:window-width="1377"
     inkscape:window-height="886"
     id="namedview75"
     showgrid="false"
     inkscape:zoom="6.2890624"
     inkscape:cx="47.622361"
     inkscape:cy="45.396274"
     inkscape:window-x="147"
     inkscape:window-y="75"
     inkscape:window-maximized="0"
     inkscape:current-layer="g877"
     inkscape:document-rotation="0"
     inkscape:pagecheckerboard="0"
     inkscape:showpageshadow="2"
     inkscape:deskcolor="#d1d1d1" />
  <defs
     id="defs29" />
  <circle
     cx="32.516094"
     cy="31.877844"
     r="0"
     fill="url(#b)"
     stroke-width="1.5715"
     id="circle41"
     style="fill:url(#b)" />
  <g
     aria-label="GZ"
     transform="matrix(1.2212657,0,0,0.81882264,0.4960938,-0.1661539)"
     id="text93"
     style="font-weight:bold;font-size:11.5263px;line-height:1.25;font-family:sans-serif;-inkscape-font-specification:'sans-serif Bold';fill:#f2f2f2;stroke-width:0.288159" />
  <g
     id="g877"
     transform="matrix(1.1,0,0,1.1,-3.1845928,-3.2065454)">
    <rect
       x="8.3496294"
       y="8.369586"
       width="47.272728"
       height="47.272728"
       rx="9.8825235"
       ry="9.6485243"
       fill="url(#linearGradient862)"
       stroke-width="3.0541"
       id="rect35-7-3"
       style="fill:#414141;fill-opacity:1;stroke:#dfdfdf;stroke-width:2.04545;stroke-dasharray:none;stroke-opacity:1" />
    <path
       style="fill:#dfdfdf;fill-opacity:1;stroke:none;stroke-width:0.459507;stroke-dasharray:none;stroke-opacity:0.6"
       d="m 28.872829,19.566144 c -2.955796,0 -6.068972,0.768642 -9.268497,2.286951 -2.604324,1.235861 -3.717854,2.255508 -3.10204,2.841838 0.217231,0.206835 0.06703,0.249893 3.714922,-1.103505 2.492995,-0.924919 5.559161,-1.705249 7.216671,-1.838652 2.559334,-0.205983 5.607523,0.434537 11.003695,2.310465 1.937775,0.673649 4.166223,1.381238 4.95166,1.572178 1.679809,0.408359 1.856708,0.345022 3.257218,0.349548 l 0.989077,0.0015 v -0.800983 c 0,-0.913629 -0.114096,-0.840168 -1.324511,-0.840168 -2.698468,0 -3.371588,-0.414102 -7.432977,-2.127066 -4.350121,-1.834769 -6.985448,-2.652178 -10.005218,-2.652178 z m -1.815141,6.429795 c -0.458789,0.01683 -0.868219,0.05911 -1.19755,0.126965 -1.518941,0.312873 -3.553471,1.449825 -4.801188,2.603584 -1.934009,1.788371 -4.120211,5.132162 -3.906154,5.975225 0.09639,0.379642 0.198795,0.405326 1.902918,0.476513 0.989264,0.04131 2.926685,0.265505 4.445369,0.496892 l 2.794813,0.418518 v 1.177175 c -0.476341,2.15749 -0.136482,3.322613 -0.05172,4.108361 0.317438,2.843778 0.321568,3.153293 1.056479,3.050314 1.135281,-1.845518 1.104682,-5.385378 1.112907,-7.425145 l 1.158368,1.122314 c 3.173685,2.799248 4.349037,3.000203 7.07089,4.309003 2.251268,0.917579 4.181415,1.324149 6.356125,1.166195 1.33684,0 3.024683,-1.481663 3.023668,-3.194519 -5.51e-4,-1.320761 -0.372903,-2.436323 -1.277495,-2.860644 -1.662987,-0.780062 -3.506454,0.145042 -3.506454,1.876272 0,1.699159 1.637642,2.643198 2.724284,1.56904 0.453283,-0.44807 0.564841,-1.203922 0.242934,-1.658392 -0.142839,-0.201788 -0.158178,-0.168066 -0.06899,0.144199 0.307832,1.077596 -0.531585,1.824258 -1.496947,1.33079 -1.008878,-0.515718 -0.817828,-2.172375 0.282169,-2.445269 0.543342,-0.134806 1.494939,0.735768 1.85119,1.454617 0.191958,0.387387 0.199062,0.623321 0.0344,1.166202 -0.539806,1.78099 -2.965462,1.790063 -6.61632,0.02934 -0.884835,-0.426225 -2.071513,-1.069746 -2.636388,-1.430648 -0.973584,-0.622027 -2.2414,-1.384692 -3.94064,-2.860648 -0.900171,-0.781894 -0.951106,-0.674758 1.396622,-1.053347 0.674971,-0.108839 2.648606,-0.675601 4.384235,-1.258684 3.083434,-1.035872 3.200575,-1.27977 5.084893,-1.293169 1.060679,-0.0075 -0.701697,-0.07411 1.058051,0.0016 l 3.294842,0.136332 V 31.696881 29.98206 L 43.013058,29.88804 C 37.686587,29.749724 40.283211,29.626881 34.785366,27.527388 33.735554,27.12649 32.616443,26.641854 31.882397,26.452096 30.580658,26.115583 28.434064,25.94546 27.057701,25.99596 Z m 6.236996,2.732116 c 0.06383,0 0.972385,0.509888 2.437429,1.130152 1.465047,0.62026 2.853917,1.173185 3.084796,1.230466 0.230873,0.05729 0.418526,0.166377 0.418526,0.239825 0,0.07347 -0.887112,0.569494 -1.971893,1.101938 -2.212221,1.085824 -3.52419,1.54095 -5.661737,1.645853 l -0.526671,0.02191 0.568996,-0.443595 c 0.313439,-0.244188 0.786667,-0.808185 1.051777,-1.253987 0.420607,-0.707265 0.482785,-0.992357 0.482785,-2.239926 0,-0.786354 0.05216,-1.432677 0.115998,-1.432676 z m -9.224605,0.377761 c 0.262741,-0.04922 0.260871,0.353694 0.263333,1.158365 0.0049,1.583532 0.389553,2.446414 1.495373,3.354404 l 0.722611,0.592507 -3.718058,-0.311929 c -1.805877,-0.170281 -3.208252,-0.346597 -3.257223,-0.395005 -0.175516,-0.173492 1.114992,-1.499316 2.534614,-2.84654 1.057014,-1.003105 1.696598,-1.502591 1.95935,-1.551802 z"
       id="path3-8" />
    <rect
       x="37.737823"
       y="37.757782"
       width="22.610399"
       height="22.610399"
       rx="4.7267799"
       ry="4.6148596"
       fill="url(#linearGradient862)"
       stroke-width="3.0541"
       id="rect35-7-3-1"
       style="fill:#414141;fill-opacity:1;stroke:#dfdfdf;stroke-width:0.978336;stroke-dasharray:none;stroke-opacity:1" />
    <path
       id="path1"
       style="fill:#dfdfdf;fill-opacity:1;stroke:none;stroke-width:0.224244;stroke-dasharray:none;stroke-dashoffset:2.2;stroke-opacity:0.6"
       d="m 53.054544,43.299438 c -0.231167,-9.7e-5 -0.478613,0.09299 -0.788298,0.274436 -0.736938,0.431788 -1.700715,0.635422 -3.024237,0.635422 -1.323397,0 -2.319324,-0.207971 -3.051873,-0.637265 -0.587409,-0.344229 -0.938101,-0.348791 -1.431082,-0.01642 -1.265645,0.852917 -2.219508,3.587517 -2.499329,7.160943 -0.167795,2.14283 -0.01103,3.27254 0.543328,3.908309 0.267381,0.306528 0.923785,0.254559 1.515809,-0.12156 0.501846,-0.318836 1.099794,-1.022374 1.814177,-2.134665 0.645548,-1.005122 1.426374,-1.336165 3.153173,-1.338993 1.723362,-0.0026 2.400625,0.323379 3.195531,1.545274 1.333668,2.050042 2.566393,2.763747 3.289465,1.90442 0.40058,-0.476052 0.473899,-0.936006 0.454923,-2.851106 -0.03457,-3.478896 -0.94394,-6.643709 -2.254366,-7.851617 -0.349004,-0.321703 -0.619985,-0.476908 -0.917221,-0.477033 z m -7.486939,2.049926 h 0.799346 0.79934 v 0.685152 0.685155 h 0.685156 0.685148 v 0.856441 0.856435 h -0.685148 -0.685156 v 0.742248 0.742251 h -0.723826 c -0.397652,0 -0.755645,-0.03568 -0.797503,-0.07735 -0.04185,-0.04185 -0.07732,-0.374141 -0.07732,-0.740403 v -0.666745 h -0.685161 -0.685156 v -0.856437 -0.856439 h 0.685156 0.685149 v -0.685157 z m 6.516311,0 c 0.721112,0 1.029934,0.798977 0.510182,1.318734 -0.330544,0.330508 -0.632217,0.356486 -0.957741,0.08106 -0.56463,-0.477772 -0.269928,-1.399771 0.447559,-1.399771 z m -1.386879,1.464237 c 0.180072,1.21e-4 0.361362,0.07187 0.50465,0.230203 0.223372,0.246825 0.247504,0.811915 0.04607,1.075615 -0.394228,0.516094 -1.340833,0.18413 -1.340833,-0.469659 0,-0.496196 0.39399,-0.836453 0.790134,-0.836178 z m 2.830855,0.02772 c 0.207551,0.0039 0.409039,0.07252 0.526752,0.202589 0.223372,0.246826 0.247471,0.811914 0.04604,1.075617 -0.419316,0.548931 -1.340835,0.181519 -1.340835,-0.534125 0,-0.216927 0.08692,-0.452038 0.2081,-0.56175 0.138541,-0.125395 0.35239,-0.186127 0.559914,-0.182325 z m -1.394247,1.477124 c 0.639304,0 0.95037,0.678118 0.563588,1.230325 -0.132224,0.188768 -0.293477,0.254171 -0.626215,0.254171 -0.383084,0 -0.471983,-0.04986 -0.626209,-0.348115 -0.30411,-0.588069 0.02772,-1.136394 0.688836,-1.136394 z" />
  </g>
</svg>
