<?xml version="1.0" encoding="UTF-8" standalone="no"?>
<svg
   width="64"
   height="64"
   version="1.1"
   id="svg73"
   sodipodi:docname="steam_icon_368260.svg"
   inkscape:version="1.4.2 (ebf0e940d0, 2025-05-08)"
   xmlns:inkscape="http://www.inkscape.org/namespaces/inkscape"
   xmlns:sodipodi="http://sodipodi.sourceforge.net/DTD/sodipodi-0.dtd"
   xmlns="http://www.w3.org/2000/svg"
   xmlns:svg="http://www.w3.org/2000/svg"
   xmlns:rdf="http://www.w3.org/1999/02/22-rdf-syntax-ns#"
   xmlns:cc="http://creativecommons.org/ns#"
   xmlns:dc="http://purl.org/dc/elements/1.1/">
  <metadata
     id="metadata77">
    <rdf:RDF>
      <cc:Work
         rdf:about="">
        <dc:format>image/svg+xml</dc:format>
        <dc:type
           rdf:resource="http://purl.org/dc/dcmitype/StillImage" />
      </cc:Work>
    </rdf:RDF>
  </metadata>
  <sodipodi:namedview
     pagecolor="#f5f7fa"
     bordercolor="#666666"
     borderopacity="1"
     objecttolerance="10"
     gridtolerance="10"
     guidetolerance="10"
     inkscape:pageopacity="0"
     inkscape:pageshadow="2"
     inkscape:window-width="1377"
     inkscape:window-height="886"
     id="namedview75"
     showgrid="false"
     inkscape:zoom="6.2890624"
     inkscape:cx="47.622361"
     inkscape:cy="45.396274"
     inkscape:window-x="147"
     inkscape:window-y="75"
     inkscape:window-maximized="0"
     inkscape:current-layer="g877"
     inkscape:document-rotation="0"
     inkscape:pagecheckerboard="0"
     inkscape:showpageshadow="2"
     inkscape:deskcolor="#d1d1d1" />
  <defs
     id="defs29" />
  <circle
     cx="32.516094"
     cy="31.877844"
     r="0"
     fill="url(#b)"
     stroke-width="1.5715"
     id="circle41"
     style="fill:url(#b)" />
  <g
     aria-label="GZ"
     transform="matrix(1.2212657,0,0,0.81882264,0.4960938,-0.1661539)"
     id="text93"
     style="font-weight:bold;font-size:11.5263px;line-height:1.25;font-family:sans-serif;-inkscape-font-specification:'sans-serif Bold';fill:#f2f2f2;stroke-width:0.288159" />
  <g
     id="g877"
     transform="matrix(1.1,0,0,1.1,-3.1845928,-3.2065454)">
    <rect
       x="8.3496294"
       y="8.369586"
       width="47.272728"
       height="47.272728"
       rx="9.8825235"
       ry="9.6485243"
       fill="url(#linearGradient862)"
       stroke-width="3.0541"
       id="rect35-7-3"
       style="fill:#414141;fill-opacity:1;stroke:#dfdfdf;stroke-width:2.04545;stroke-dasharray:none;stroke-opacity:1" />
    <path
       d="m 25.898697,18.772082 q -0.08821,0 -0.08821,-0.117635 h 0.05882 v 0.05882 l 0.05882,-0.0294 0.0294,0.05882 z m 0.352903,0.05881 h -0.08821 q -0.05882,0 -0.08821,-0.176451 h 0.0294 q 0.147043,0.05882 0.147043,0.176451 z m -0.646987,0.05882 h -0.05882 q 0,-0.147046 0.05882,-0.147046 h 0.05882 q 0,0.147046 -0.05882,0.147046 z m -0.294085,0.0294 q -0.176451,-0.0294 -0.176451,-0.147046 h 0.117633 q 0.05882,0.02941 0.05882,0.147046 z m -0.323493,0.05881 h -0.08821 q 0,-0.147042 0.08821,-0.147042 0.08821,0 0.08821,0.05882 z m -0.499946,0.205859 -0.02941,-0.05882 q 0.02941,-0.147044 0.117638,-0.264679 0.117634,0.05882 0.264677,0.05882 0,0.08821 -0.264677,0.117632 0,-0.02941 -0.02941,-0.02941 0,0.17645 -0.05882,0.17645 z m 1.940964,-0.17645 h -0.08821 v -0.05882 h 0.08821 z m -2.411501,0.235264 q -0.05882,0 -0.05882,-0.05882 0,-0.147048 0.205858,-0.147048 0.08821,0 0.08821,0.05882 -0.08821,0.147042 -0.235268,0.147042 z m -0.382309,0.264683 -0.147044,-0.08821 v 0.05882 q -0.117633,0 -0.117633,-0.05882 h 0.08821 l -0.02941,-0.02941 q -0.117638,0.05882 -0.26468,0.05882 l -0.02941,-0.05882 q 0.588169,-0.294085 0.676395,-0.294085 0.117633,0.02941 0.117633,0.08821 0,0.08821 -0.294084,0.23527 z m -0.97048,25.70304 h -0.08821 l 0.02941,-0.08823 -0.617579,0.02934 q -0.08821,0 -0.08821,-0.11764 l -0.235272,0.05881 -0.02941,-0.05881 0.02941,-0.05881 -0.294087,0.02934 -0.08821,-0.05881 q 0,0.117639 -0.05881,0.117639 -0.235268,0 -0.470536,-0.176445 l -0.08821,0.05881 Q 20.45818,44.827872 19.399471,44.47498 19.281837,44.327937 19.281837,44.239671 h -0.176454 q -0.05882,0 -0.05882,-0.117639 h 0.176449 v -0.02934 q -0.08821,0 -0.08821,-0.05881 l -0.205857,0.05881 q -0.529423,-0.205704 -0.705873,-0.205704 l 0.0294,0.05881 -0.117634,0.235307 0.117634,-0.02934 -0.0294,0.08826 q 0.08821,0 0.08821,-0.08826 h 0.08821 q 0,0.147044 -0.117637,0.205848 -0.08821,-0.05881 -0.176449,-0.05881 0,0.08826 -0.05882,0.08826 -0.117637,-0.05881 -0.117637,-0.08826 0.05881,-0.08823 0.05881,-0.176445 h -0.02941 q -0.176452,0.264681 -0.323494,0.264681 v -0.264681 q -0.05882,0 -0.05882,-0.02934 -0.176451,0.05881 -0.176451,0.176445 h -0.05882 l 0.0294,-0.117641 -0.0294,-0.11764 q 0,-0.05881 0.0294,-0.08826 h -0.0294 l -0.147042,0.147043 q -0.117635,0 -0.205857,-0.235307 l -0.117635,0.02934 0.05882,0.205848 H 16.89964 Q 16.576148,43.887 16.576148,43.622309 l 0.02941,-0.08823 0.147044,0.02934 q 0.05882,-0.117639 0.08821,-0.117639 0.117636,0.147042 0.205859,0.147042 0.117633,0.205848 0.176452,0.205848 v -0.08823 q -0.11759,-0.08826 -0.11759,-0.205879 l 0.205859,-0.02934 q 0,-0.05881 0.205858,-0.117639 l 0.117635,0.05881 q 0.05882,-0.117639 0.205859,-0.294085 h -0.0294 l -0.147042,0.11764 h -0.08821 q 0,-0.02934 0.147044,-0.11764 l -0.0294,-0.147042 q 0.05882,-0.08826 0.05882,-0.147042 h -0.08821 v -0.02934 q 0.117637,-0.117639 0.117637,-0.235308 -0.117637,-0.05881 -0.117637,-0.117639 0.205859,-0.20585 0.205859,-0.294086 -0.05882,0 -0.05882,-0.05881 l 0.117633,-0.08823 0.02941,0.05881 -0.05882,0.08826 q 0.05882,0 0.08821,-0.05881 0.02941,-0.08823 -0.02941,-0.147042 0.23527,-0.117639 0.23527,-0.205846 0,-0.08823 0.26468,-0.176446 l -0.02941,-0.147043 q 0,-0.02934 0.176453,-0.147041 v -0.02934 l -0.20586,0.147042 -0.02941,-0.02934 0.264677,-0.294084 h 0.176451 q 0,-0.147042 0.235269,-0.176444 l 0.02941,0.08823 -0.02941,0.05881 q 0,0.02934 0.02941,0.02934 0,-0.11764 0.117636,-0.11764 0.646986,0.470538 0.646986,0.646985 0.382311,0.176445 0.676397,0.44113 0.294086,0.05881 0.941074,0.38232 l 0.117632,-0.02934 q 0.117634,0.02934 0.117634,0.117639 0.05882,0 0.05882,-0.05881 l 0.55876,0.147043 0.147045,-0.08826 q 0.117635,0.08826 0.411721,0.08826 0.26468,0 0.970481,-0.11764 l 0.147043,0.08826 h 0.05882 v -0.02934 h -0.0882 q 0,-0.08826 0.05882,-0.08826 0.147041,0 0.147041,0.147044 h 0.0294 l -0.0294,-0.176448 q 0.08821,0 0.08821,0.08823 h 0.02941 q 0,-0.147042 0.294086,-0.205848 0.05882,0.117639 0.117635,0.117639 0.235269,0 0.441126,-0.176445 -0.0294,-0.05881 -0.0294,-0.147042 0.0294,-0.11764 0.294085,-0.11764 0,-0.147042 0.147041,-0.147042 l 0.205861,0.02934 0.323494,-0.08826 -0.02941,-0.05881 0.05882,-0.02934 q 0.02941,0 0.02941,0.02934 0.176449,0 0.323492,-0.205848 l 0.08821,0.02934 q 0.117635,-0.02934 0.117635,-0.08821 v -0.147044 h 0.0294 q 0.117635,0.05881 0.117635,0.147042 h 0.05882 l -0.08821,-0.117646 q 0.05882,0 0.05882,-0.05881 l -0.0294,-0.117637 0.08821,0.02934 q 0,-0.23531 0.411715,-0.264684 0,-0.117639 0.117638,-0.147041 0,-0.11764 0.02941,-0.176446 l 0.05882,0.02934 q 0.05882,0 0.05882,-0.05881 l -0.02941,-0.11764 0.08821,-0.05881 0.05882,0.02934 q 0.470535,-0.499961 0.676395,-0.647004 v -0.117634 h 0.08821 q 0,0.05881 0.235268,0.23531 -0.117638,0 -0.147042,0.02934 l -0.02941,-0.08826 q -0.05881,0 -0.05881,0.05881 l 0.02941,0.08826 -0.205858,0.323491 h 0.0294 l 0.205858,-0.176445 h 0.05882 q 0,0.11764 -0.352902,0.38232 l 0.0294,0.11764 q -0.235278,0.235422 -0.235278,0.353063 l 0.08821,0.02934 q 0,-0.08826 0.529355,-0.676394 l 0.08821,0.02934 q 0.147042,-0.117639 0.323494,-0.441126 l 0.08821,-0.02934 -0.0294,-0.05881 q 0,-0.05881 0.05882,-0.05881 l 0.08821,0.02934 q 0.17645,-0.147043 0.352901,-0.294084 0.17645,-0.176445 0.264679,-0.558762 l -0.02941,-0.02934 q 0,0.294085 -0.44113,0.646988 l -0.02941,-0.08826 q 0.117633,-0.205847 0.294084,-0.205847 v -0.05881 h -0.08821 v -0.235272 l 0.08821,-0.08823 q -0.05882,-0.02934 -0.05882,-0.117639 0.176451,0 0.323494,-0.264683 0.08821,0 0.08821,-0.117638 -0.05882,0 -0.08821,-0.08823 v -0.02934 q 0.117635,-0.205849 0.17645,-0.205849 l -0.02939,-0.08823 q 0.117637,-0.176444 0.117637,-0.352908 0.147042,0 0.147042,-0.117639 l -0.0294,-0.176444 q 0.02939,-0.117613 0.117624,-0.117613 v -0.02934 q -0.235267,0 -0.235267,-0.08823 0.117634,-0.02934 0.117634,-0.176445 l -0.05882,-0.0294 q 0,-0.0294 0.117633,-0.176446 l -0.08821,-0.0294 0.02941,-0.05881 -0.02941,-0.117639 0.176451,-0.08821 -0.0294,-0.08821 0.147042,-0.02941 v 0.05881 h -0.08819 q 0.02941,0.0294 0.02941,0.08821 h -0.05881 v 0.02941 q 0.14704,0 0.20586,-0.02941 l 0.117635,0.02941 q 0,0.41172 -0.147044,0.41172 h -0.08821 v 0.0294 q 0.147042,0 0.147042,0.117638 -0.0294,0.147042 -0.205859,0.147042 l 0.02941,0.05881 q 0,0.205848 -0.264681,0.588172 -0.0294,0.38232 -0.117631,0.38232 0,-0.02934 -0.0294,-0.02934 l 0.0294,0.176444 -0.08821,0.352908 q 0,0.02934 0.02941,0.02934 0.20586,-0.499948 0.294084,-0.499948 l -0.17645,0.529353 h 0.02941 q 0.147043,-0.147042 0.38231,-0.646982 l -0.0294,-0.235282 q 0,-0.235278 0.20586,-0.323498 0.05882,-0.117639 0.05882,-0.411721 l -0.05886,-0.08873 q 0,-0.176445 0.147042,-0.470537 l -0.02941,-0.147039 0.02941,-0.147042 -0.205859,0.02941 v -0.05837 h -0.382293 v -0.08821 h 0.05882 l -0.05882,-0.08821 v -0.176451 q 0,-0.05882 0.08821,-0.05882 v -0.14703 Q 30.251143,35.15274 30.251143,34.976286 h -0.08821 q 0,-0.264677 0.147043,-0.352902 l 0.08821,0.117634 q 0,0.08821 -0.08821,0.08821 v 0.02941 l 0.17645,-0.02941 q 0,-0.08821 -0.05882,-0.147042 0,-0.05881 0.05882,-0.05881 0.08821,0 0.08821,0.117634 0.08821,0 0.117637,-0.352901 l -0.05882,0.05882 q -0.08821,0 -0.294089,-0.588169 L 29.89824,33.3 q 0,-0.147042 0.05882,-0.147042 0.470537,0.617578 0.558762,0.676394 h 0.0294 l -0.0294,-0.08821 0.0294,-0.08821 -0.08821,0.05882 -0.02941,-0.05882 V 33.5353 q 0,-0.05881 0.08821,-0.05881 0.17645,0.26468 0.20586,0.26468 0.02941,0 0.02941,-0.02941 -0.147046,-0.323494 -0.264679,-0.323494 l -0.117636,0.05881 -0.0294,-0.05881 q 0,-0.08821 0.08821,-0.08821 v -0.02941 h -0.05882 l -0.147042,0.05882 q -0.382282,-0.47059 -0.617549,-0.61763 0,-0.0294 0.117634,-0.08821 0.117636,0 0.117636,0.117633 h 0.02941 Q 29.839436,32.5354 29.339482,32.270721 h -0.176451 l 0.05882,0.08821 q 0,0.05881 -0.05882,0.05881 -0.235267,-0.117636 -0.294085,-0.117636 v 0.02941 q 0.470538,0.294087 0.470538,0.352901 -0.117637,0.294086 -0.235268,0.294086 0,-0.176452 -0.882256,-0.529354 l -0.17645,0.205858 0.05882,0.02941 q -0.05882,0.02941 -0.147042,0.02941 -0.58817,-0.147046 -0.58817,-0.323493 l -0.176452,0.117634 -0.0294,-0.05881 q 0.117635,-0.117635 0.23527,-0.117635 0.08821,0 0.08821,0.117635 l 0.05882,-0.02941 q 0.117633,0 0.323492,0.117635 0.0294,-0.05882 0.05882,-0.05882 l 0.176451,0.02941 0.05882,-0.08821 -0.235271,-0.02941 -0.205858,0.02941 q -0.02941,-0.205858 -0.117635,-0.205858 -0.235268,0 -0.3529,0.05881 -0.735221,-0.14704 -0.941078,-0.14704 l -0.08821,0.02941 v 0.05882 l 0.08821,-0.05882 q 0,0.147043 -0.235269,0.176452 h -0.02941 l -0.147042,-0.08821 -0.02941,0.117634 H 25.72224 q -0.08821,0.08821 -0.176452,0.08821 l 0.0294,0.05881 q 0,0.117633 -0.352902,0.205859 l -0.97048,0.470537 -0.0294,-0.02941 -0.05882,0.02941 -0.117635,-0.05881 q 0,0.08821 -0.08821,0.08821 -0.05882,0 -0.05882,-0.05882 0.05882,-0.08821 0.05882,-0.147042 -0.02941,0 -0.20586,0.294088 -0.323491,0.147041 -0.323491,0.264678 0.117633,0.117638 0.117633,0.235269 l 0.08821,-0.05881 q 0,0.02941 0.0294,0.02941 l -0.0294,-0.117636 q 0.05882,0 0.147042,0.117633 l -0.117635,0.147046 0.05882,0.08821 -0.08821,0.05881 q -0.08821,0 -0.08821,-0.147041 h -0.05882 q 0,0.117637 0.08821,0.205859 v 0.176406 h -0.0294 Q 23.398995,34.1822 23.310769,34.1822 l 0.0294,0.294085 -0.235268,-0.205859 v 0.02941 q 0.08821,0.117635 0.08821,0.235269 l -0.08821,0.0294 q -0.02941,-0.02941 -0.147043,-0.02941 l -0.02941,0.08821 0.17645,0.02941 q 0,0.08821 -0.294084,0.147045 -0.176451,-0.08821 -0.205859,-0.147045 0,-0.08821 0.05882,-0.08821 -0.05881,-0.117638 -0.05881,-0.176456 l 0.05881,-0.02941 0.08821,0.02941 q 0,-0.08821 0.235267,-0.08821 v -0.02941 q -0.17645,0 -0.26468,-0.05882 l 0.02941,-0.117637 -0.02941,-0.176451 q 0.02941,-0.117636 0.117635,-0.117636 l -0.05882,-0.147042 -0.08821,0.05882 q -0.05882,0 -0.05882,-0.08821 h -0.0294 l 0.0294,0.08821 q 0,0.176452 -0.264677,0.352902 v 0.0294 l 0.205858,-0.0294 q 0,0.05882 -0.382311,0.38231 l -0.0294,-0.05879 q 0,0.08821 -0.05882,0.08821 -0.02941,-0.147043 -0.176452,-0.264678 v -0.147042 q 0,-0.05881 0.08821,-0.05881 Q 21.86972,33.7705 21.86972,33.71168 h -0.117625 l 0.0294,0.147042 q -0.117635,0 -0.117635,-0.08821 h -0.08821 q -0.176452,0 -0.176452,-0.147041 h 0.05882 q -0.05881,-0.117634 -0.05881,-0.235269 l 0.08821,-0.02941 q 0,-0.05881 -0.05882,-0.05881 0,0.02941 -0.02941,0.02941 -0.08821,-0.117637 -0.08821,-0.147042 -0.02941,0 -0.02941,0.02941 0.05882,0.08821 0.05882,0.176452 h -0.05882 l -0.05882,-0.176452 -0.05882,0.02941 q -0.05882,-0.08821 -0.05882,-0.205859 0.05882,0 0.117633,0.05881 V 33.0647 q -0.05881,-0.176451 -0.323488,-0.499946 h -0.05882 q 0,0.176451 -0.08821,0.176451 -0.117635,-0.05881 -0.117635,-0.176451 l -0.08821,0.05882 q -0.05882,-0.08821 -0.05882,-0.352899 0.294086,-0.735212 0.411719,-0.735212 0.382311,-0.205861 0.441129,-0.294088 0,0.02941 0.02941,0.02941 0,-0.08821 0.499946,-0.264678 l 0.02941,-0.05882 0.147042,0.0294 q 0.294084,-0.117637 0.646988,-0.17645 0,-0.117634 0.08821,-0.117634 l 0.117633,0.08821 q 0.352902,-0.147042 0.352902,-0.20586 0.0294,-0.08821 0.05882,-0.08821 h 0.323494 q 0,-0.08821 0.05882,-0.08821 0.08821,0.05882 0.176451,0.05882 l 0.117635,-0.08821 0.05882,0.0294 q 0,-0.08821 0.411718,-0.205861 0,-0.02941 0.264681,-0.117636 0,-0.147042 0.323492,-0.176452 l 0.823431,-0.617582 q 0.05882,0 0.176451,-0.117637 l 0.117634,0.02941 -0.05882,-0.08821 0.05882,-0.02941 q 0.02941,0.05882 0.05882,0.05882 0.08821,-0.264678 0.205858,-0.264678 0.05881,0.05882 0.147043,0.05882 0.294089,-0.176451 0.294089,-0.323494 -0.05881,0 -0.08821,-0.08821 0.02941,-0.176452 0.23527,-0.176452 l -0.02941,-0.05882 q 0,-0.147042 0.323492,-0.205859 0,-0.05881 0.205861,-0.147044 l -0.0294,-0.08821 q 0.294084,-0.117634 0.294084,-0.264679 0.147043,-0.02941 0.147043,-0.17645 l -0.05882,-0.08821 0.176452,0.0294 -0.02941,-0.05882 0.02941,-0.05882 q -0.02941,0 -0.08821,-0.08821 0.05881,0 0.235272,-0.26468 0.176449,0 0.205857,-0.235266 h 0.05882 l -0.02946,-0.176428 q 0.117633,0 0.117633,-0.05882 -0.08821,0 -0.08821,-0.08821 0.117633,-0.02941 0.470534,-0.705808 0.02941,0 0.02941,-0.0294 l -0.02941,-0.117633 0.05882,-0.0294 q 0,0.0294 0.08821,0.08821 h 0.0294 q -0.08821,-0.11768 -0.08821,-0.205907 l 0.02941,-0.117637 -0.02941,-0.08821 0.05882,-0.02941 -0.02941,-0.08821 q 0,-0.235271 0.205858,-0.235271 l -0.02941,-0.05882 q 0,-0.02941 0.176451,-0.147041 h 0.176451 v 0.08821 h -0.176447 l 0.02941,0.05882 -0.02941,0.05881 q 0.05881,0 0.08821,0.117636 0,0.08821 -0.117635,0.08821 0,0.58817 -0.205858,0.58817 v 0.02941 q 0.117637,0 0.117637,0.08821 h -0.176485 v -0.05882 h -0.02941 v 0.08821 q 0.05881,0 0.05881,0.05882 l -0.08821,0.323503 h 0.05882 q 0.05882,-0.20586 0.147045,-0.20586 -0.05882,0.382309 -0.205859,0.382309 l 0.05882,0.08821 -0.05882,0.294085 q 0,0.08821 0.05882,0.08821 0.147042,-0.676395 0.382313,-0.676395 0.117636,-0.441127 0.235266,-0.441127 l -0.05882,-0.08821 q 0.147043,0 0.411718,-0.411721 l 0.02941,-0.588171 H 30.0747 q 0,0.470536 -0.17645,0.676395 0,0.05882 -0.05882,0.05882 l -0.0294,-0.08821 q 0.0294,-0.264679 0.176449,-0.264679 v -0.05882 q -0.117633,0 -0.117633,-0.235269 l 0.05882,-0.117633 q -0.08821,0 -0.08821,-0.05882 0,-0.08821 0.117634,-0.08821 v -0.235268 q 0,-0.05881 0.08821,-0.05881 V 23.88921 l -0.117633,-0.117637 0.02941,-0.411717 q -0.05882,0 -0.05882,-0.05882 l 0.02941,-0.26468 q -0.117637,-0.205859 -0.117637,-0.294087 0.08821,0 0.08821,-0.05881 0,-0.05882 -0.294087,-0.470535 0,-0.176453 0.08821,-0.176453 0.205859,0 0.323493,1.088119 l 0.117634,0.441127 -0.05882,0.02941 q 0,-0.02941 -0.02941,-0.02941 v 0.05882 q 0.147047,0.176449 0.147047,0.617578 h 0.02941 l 0.02941,-0.676396 q 0.08821,-0.02941 0.08821,0.05882 v 0.676395 h 0.02941 q 0.08821,-0.264679 0.117636,-0.735213 0,-0.147042 -0.235265,-0.794028 l -0.02941,-0.176452 0.05882,-0.117633 q 0,-0.382311 -0.735213,-1.058709 -0.205878,-0.382309 -0.470553,-0.617577 l -0.05882,0.0294 q -0.323494,-0.264686 -0.470538,-0.264686 0,0.147045 -0.05882,0.147045 -0.05882,0 -0.05882,-0.08821 h -0.0294 q -0.264685,0.323493 -0.294094,0.323493 h -0.117633 v -0.08821 q -0.352902,0 -0.470537,-0.17645 l -0.176449,-0.02941 q -0.20586,0 -0.529356,0.05882 -0.08821,0 -0.23527,-0.05882 v 0.05882 q -0.205859,0 -0.294088,-0.176452 0.02941,-0.08821 0.176451,-0.08821 l 0.02941,0.117635 0.05882,-0.147042 -0.05882,-0.08821 -0.05882,0.05882 q -0.08821,0 -0.08821,-0.08821 0,-0.05881 0.147042,-0.05881 -0.05882,-0.08821 -0.235266,-0.205859 l -0.02941,0.02941 0.02941,0.08821 q -0.08821,0.05882 -0.17645,0.05882 H 25.60457 q -0.382312,0.08821 -0.499945,0.08821 -0.117636,0 -0.117636,-0.05882 0.05882,-0.05882 0.735213,-0.20586 v -0.0588 q -0.08821,0 -0.08821,-0.05882 h -0.0294 q 0,0.117637 -0.05882,0.117637 -0.05882,0 -0.117635,-0.117637 0,-0.02941 0.29409,-0.117634 v -0.02941 h -0.176456 q -0.205859,0 -0.205859,0.235271 h -0.02941 q -0.05882,-0.05882 -0.05882,-0.117636 h -0.02941 q 0,0.205859 -0.20586,0.205859 -0.352902,0.02941 -0.470536,0.117634 h -0.05882 l -0.02941,-0.117634 0.117637,-0.05882 v -0.02941 h -0.08824 q -0.499946,0.08821 -0.499946,0.264674 l 0.05881,-0.0294 0.02941,0.0294 0.05882,-0.0294 q 0.05882,0.0294 0.05882,0.147042 l -0.0882,-0.0882 q -0.235271,0.176453 -0.235271,0.235271 0.352903,-0.117633 0.441128,-0.117633 0.05882,0 0.176452,0.205858 l -0.02941,0.147043 -0.05882,-0.0294 q -0.08821,0 -0.764623,0.235269 0,0.147043 0.147042,0.323493 -0.29408,0.176456 -0.617573,0.176456 l -0.08821,-0.0294 q 0,0.117635 -0.08821,0.117635 0,-0.205856 0.08821,-0.205856 l 0.117635,0.02941 q 0,-0.117633 0.323494,-0.117633 l -0.0294,-0.05882 q 0,-0.05882 0.117636,-0.05882 V 21.00728 q -0.05882,0 -0.294084,0.23527 l -0.176457,-0.08823 q -0.382312,0.352901 -0.470536,0.352901 -0.294088,0.117635 -0.441127,0.205859 l 0.05882,0.117637 q -0.05882,0.147042 -0.147042,0.20586 -0.02941,0 -0.02941,-0.0294 l 0.02941,-0.117635 -0.176453,-0.08821 q -0.02941,0.176452 -0.14704,0.176452 v 0.05882 l 0.117632,-0.02941 v 0.05882 h -0.05882 v 0.02941 q 0.117634,0 0.117634,0.05882 l -0.294088,0.147042 0.02941,-0.176452 h -0.02941 q -0.176451,0.147042 -0.205858,0.147042 0,0.02941 0.147044,0.08821 -0.147044,0.17645 -0.147044,0.20586 h -0.05882 l 0.02941,-0.147042 q -0.147042,0 -0.235269,0.235269 l 0.08821,0.02941 q 0,0.205858 -0.294085,0.323492 l -0.02941,0.176451 h -0.05882 v -0.08821 q -0.05882,0 -0.08821,0.147042 l 0.0294,0.08821 -0.05882,0.02941 -0.0294,-0.02941 q 0,0.05881 -0.235268,0.411719 h -0.205861 q 0,0.08821 -0.11763,0.352901 l 0.08821,0.08821 -0.147042,0.411719 h -0.05882 v 0.08821 h 0.02941 v -0.05881 h 0.05882 q 0.147042,0.205857 0.147042,0.294087 l -0.08821,0.294085 q 0.147042,-0.117635 0.205859,-0.117635 0,0.352902 -0.08821,0.352902 l 0.0294,0.05882 q 0,0.0294 -0.08821,0.08821 -0.05882,0 -0.17645,-0.294084 -0.05882,0 -0.08821,0.05882 l 0.0294,0.05882 q -0.05882,0 -0.26468,-0.147046 -0.117633,-0.05882 -0.235266,-0.05882 l -0.05882,0.117636 q 0.117634,0.205861 0.117634,0.26468 l 0.205858,-0.02941 q 0.0294,0.05882 0.0294,0.147043 h -0.05882 l 0.294084,0.323491 -0.05882,0.02941 -0.147041,-0.02941 q 0,0.05882 -0.147043,0.147043 h -0.117634 q -0.0294,0 -0.08821,-0.08821 v -0.02941 h 0.176453 q 0,-0.05882 -0.17645,-0.05882 -0.05881,0 -0.05881,0.117635 l 0.147043,0.117633 -0.147043,0.588171 q 0.147043,0.17645 0.176451,0.38231 0.08821,0.05882 0.235268,0.05882 0.117633,-0.08821 0.264681,-0.08821 h 0.382282 q 0.05882,0 0.05882,0.05882 l -0.02941,0.147043 0.44113,-0.147043 q 0,0.02941 0.0294,0.02941 -0.382278,0.558744 -1.058676,0.558744 -1.970369,-0.117635 -2.470313,-1.205749 0,-0.05882 -0.882257,-1.882146 1.029297,-0.76462 1.029297,-0.882256 Q 17.723162,23.507 17.929021,23.507 v -0.0588 h -0.08821 q 0,-0.117636 0.264679,-0.411721 l -0.02941,-0.117634 q 0.02941,0 0.26468,-0.176452 l -0.0294,-0.05882 q 0.470522,-0.41172 0.470522,-0.55876 0.147043,0 0.147043,-0.05882 0,-0.05882 0.117633,-0.20586 -0.05882,-0.05882 -0.05882,-0.08821 0.205859,-0.17645 0.294084,-0.294084 h 0.147044 l -0.0294,-0.117637 0.05882,-0.02941 q 0,0.05881 0.05882,0.05881 l -0.02941,-0.205857 0.176452,-0.147044 0.02941,0.08821 0.117635,-0.117634 0.05882,0.02941 q 0.117635,-0.05882 0.20586,-0.05882 0,-0.05882 -0.02941,-0.08821 l 0.05882,-0.0294 q 0.08821,0.176452 0.117633,0.176452 l 0.02941,-0.05882 -0.05882,-0.08821 0.0294,-0.117635 0.176454,0.02941 0.08821,-0.02941 q 0,0.05882 0.05882,0.05882 0.0294,-0.117635 0.08821,-0.117635 l 0.08821,0.05882 -0.02941,-0.147042 q 0.05882,-0.0294 0.294084,-0.05882 v -0.0294 h -0.05882 v -0.02941 q 0.88224,-0.646994 0.999876,-0.646994 0.558761,-0.205858 0.882255,-0.352903 h 0.02941 v 0.05882 q -0.176451,0.17645 -1.029297,0.617578 -0.05881,0.08821 -0.147043,0.147043 v 0.05882 q 0.117634,0 0.235271,0.205858 0,-0.117633 0.05882,-0.117633 0.02941,0 0.117633,0.147042 -0.05882,0 -0.05882,0.05882 h 0.05882 q 0.382325,-0.235247 0.499958,-0.235247 l 0.02941,0.02941 q 0,-0.05882 0.08821,-0.08821 0.08821,-0.02941 0.117637,0 0,-0.147045 0.176449,-0.147045 v -0.147041 q -0.117633,0 -0.117633,-0.05882 0,-0.05882 0.08821,-0.05882 l 0.176449,0.117631 q 0.05881,-0.05882 0.05881,-0.117631 l -0.117634,0.02941 q 0,-0.147044 0.05882,-0.147044 0,0.05882 0.176452,0.147044 v -0.02941 q -0.05882,0 -0.117637,-0.235269 0.117637,0 0.17645,0.294085 h 0.05882 l 0.14704,-0.264679 h 0.147043 l -0.02941,0.147042 q 0.323494,0 0.441128,-0.117635 h 0.147042 l 0.02941,-0.117634 q -0.02941,0 -0.02941,-0.02941 l 0.147043,0.05882 q 0.17645,0 0.588169,-0.117636 0.08821,0 0.205858,0.05882 0,-0.08821 0.08821,-0.08821 l 0.117638,0.05882 q 0.02941,0 0.02941,-0.02941 -0.117638,0 -0.117638,-0.117633 h 0.147044 q 0.147043,0.14704 0.205859,0.14704 0,-0.05882 0.05882,-0.05882 l 0.05882,0.0294 q 0.02941,-0.117634 0.147043,-0.117634 v 0.08821 h 0.02941 q 0,-0.05881 0.02941,-0.05881 l 0.20586,0.02941 q 0.05882,-0.08821 0.05882,-0.264679 l -0.05882,0.02941 q 0,-0.02941 -0.02941,-0.08821 0,-0.08821 0.176452,-0.08821 0.117631,0.0294 0.117631,0.08821 l -0.02941,0.205859 0.02941,0.02941 q 0.05882,-0.26468 0.147046,-0.26468 h 0.294086 l 0.08821,-0.05882 q 0.205859,0.117637 0.205859,0.411719 l 0.05882,-0.02941 -0.02941,-0.05882 v -0.235286 q 0,-0.05882 0.08821,-0.05882 0.323493,0.147043 0.41172,0.147043 0.02941,-0.05882 0.05881,-0.05882 0.147043,0.117634 0.558762,0.23527 l 0.235268,-0.0294 q 0.558763,0.08821 1.323383,0.794029 l -0.05882,0.0294 -0.294086,-0.0294 q 0.323494,0.235268 0.470537,0.646989 l 0.05882,0.02941 0.0294,-0.02941 q -0.05883,-0.117673 -0.17647,-0.264716 h 0.117636 q -0.205805,-0.205946 -0.264624,-0.205946 v -0.08821 q 0.264679,0 0.499943,0.382309 0.17645,0 0.23527,0.26468 l -0.05881,0.02938 q 0.617578,0.79403 0.617578,1.058705 0.294087,0.735214 0.41172,1.99978 -0.08821,0 -0.20586,0.23527 -0.08821,0 -0.147043,-0.02941 0.02941,0.08821 0.08821,0.147043 l -0.147044,0.176451 0.05882,0.117634 q -0.02941,0.02941 -0.147042,0.02941 v 0.0294 Q 30.927515,25.8596 30.721637,25.8596 l 0.02941,0.05882 -0.147042,0.41172 q 0.02941,0 0.02941,0.02941 l -0.117635,0.0294 0.02941,0.05882 q 0,0.08821 -0.08821,0.08821 v 0.02941 q 0.117634,0 0.117634,0.08821 -0.05882,0 -0.05882,0.05882 0.08821,0 0.08821,0.05882 0,0.176452 -0.147042,0.352901 0.117633,0 0.117633,0.08821 -0.147043,0.441127 -0.235267,0.441127 l 0.02941,0.08821 q -0.08821,0 -0.17645,0.26468 -0.117635,0 -0.26468,0.323493 -0.235269,0.147041 -0.235269,0.20586 -0.117632,0.411719 -0.323491,0.411719 l 0.02941,0.05882 q 0,0.05882 -0.05882,0.05882 -0.02941,0 -0.294084,-0.20586 h -0.02941 q 0.294084,0.235268 0.294084,0.294088 -0.02941,0.117637 -0.08821,0.117637 -0.05881,0 -0.117638,-0.05882 -0.08821,0.147042 -0.117633,0.382311 -0.05882,0.08821 -0.117637,0.08821 l 0.02941,0.117633 -0.05882,0.02941 -0.205861,-0.147042 q 0.02941,0 0.117635,0.147042 v 0.05882 l -0.08821,0.147043 q 0.02941,0 0.08821,0.08821 -0.294087,0.05881 -0.294087,0.176451 l 0.147042,-0.0294 q 0,0.0294 -0.264679,0.264676 l -0.147043,-0.02941 0.02941,0.176451 q 0.646986,0.235268 0.646986,0.294084 l -1.058711,-0.176437 v 0.05882 h -0.05882 v -0.08821 h -0.14704 q 0.0294,0.05882 0.05881,0.05882 l -0.02941,0.147041 h -0.02941 q 0,0.117635 0.117635,0.147043 l 0.176446,-0.02938 q 0.02941,-0.05882 0.05882,-0.05882 0.02941,0.0294 0.02941,0.08821 0,0.05882 -0.05882,0.08821 h 0.08821 q 0.117637,-0.08821 0.20586,-0.08821 0,0.02941 0.02941,0.02941 l -0.02941,0.117635 0.117636,0.205857 q -0.117636,0 -0.794029,-0.382308 h -0.08821 l 0.02941,0.117636 -0.02941,0.02941 -0.08821,-0.02941 q 0,0.05882 0.411719,0.147041 0.0294,0.05882 0.05882,0.05882 l 0.147042,-0.0294 q 0.05882,0.05882 0.05882,0.147043 0.08821,-0.05882 0.147041,-0.05882 l 0.235272,0.05882 q 0,-0.05882 0.08821,-0.05882 l -0.08822,-0.117633 v -0.02941 h 0.08821 q 0.02941,0 0.117632,0.117632 v 0.08821 l 0.117638,0.02941 q 0,-0.05882 0.05882,-0.05882 0.05882,0 0.05882,0.08821 h 0.0294 q 0.02941,-0.23527 0.117635,-0.23527 l 0.02941,0.08821 -0.147042,0.264678 0.352901,-0.02941 q 0.147043,0.05882 0.147043,0.117635 0,0.05881 -0.05882,0.05881 l -0.08821,-0.0294 v 0.0294 q 0.17645,0.17645 0.529353,0.352902 l 0.05882,0.08821 q 0.117635,0 0.117635,-0.08821 h 0.05882 v 0.147042 q 0,0.02941 0.55876,0.646988 v 0.117635 l -0.02941,0.05881 0.147043,-0.02941 q 0.0294,0 0.0294,0.323491 h 0.02941 q 0,-0.264676 0.05881,-0.264676 0.05882,0.05882 0.05882,0.147042 0.02941,0.08821 -0.02941,0.147043 l 0.02941,0.08821 q -0.02941,0 -0.02941,0.0294 0.08821,0 0.08821,0.147042 l 0.147041,-0.02941 0.02941,0.05882 q 0,0.08821 -0.08821,0.08821 v 0.02942 q 0.117632,0 0.117632,0.05881 0,0.08821 -0.02941,0.08821 0.05882,0.117633 0.117634,0.117633 0.205859,0 0.205859,-0.05881 l -0.02941,-0.08821 q 0.02941,-0.02941 0.117633,0 0.08821,0.02941 0.08821,0.176452 0,0.117635 -0.26468,0.147042 v 0.02941 q 0.323492,0 0.323492,0.147042 0.02941,0.147043 0.147045,0.264679 -0.02941,0.117637 -0.29409,0.323494 h 0.0294 q 0.205859,-0.117633 0.294088,-0.117633 0,0.02941 0.02941,0.02941 -0.05882,0.205859 -0.05882,0.352901 0,0.05881 0.05882,0.05881 l -0.02941,0.411715 q 0.147042,0 0.147042,0.38231 -0.02941,0.352903 -0.08821,0.352903 L 31.72149,36.47597 q -0.02941,0.205847 -0.176453,0.352902 l 0.05882,0.0294 q 0.05882,-0.05881 0.05882,-0.147044 l 0.08821,0.0294 q 0,-0.176446 0.05882,-0.176446 0.08821,0.117641 0.08821,0.176446 l -0.0294,0.0882 q 0.05882,0 0.05882,0.0882 0,0.05881 -0.05882,0.05881 -0.05882,0 -0.08821,-0.02934 0,0.23528 0.05882,0.411716 -0.147043,0.294084 -0.23527,0.882257 -0.117637,0.235279 -0.176451,0.558761 -0.05882,0 -0.294088,0.147042 h -0.08823 q 0,0.147041 -0.176452,0.264682 0.05882,0 0.05882,0.11764 h -0.17645 q -0.352904,0.970487 -0.617581,0.970487 l 0.02941,0.08826 -0.294088,0.38232 0.02941,0.05881 q 0,0.05881 -0.17645,0.05881 l 0.02941,0.05881 q 0,0.08823 -0.176451,0.08823 v 0.02934 q 0.147042,0 0.147042,0.05881 0,0.05881 -0.117635,0.05881 0.08821,0.05881 0.08821,0.117638 -0.17645,0.323494 -0.294087,0.323494 l -0.147043,-0.02934 -0.08821,0.147042 h 0.117639 v -0.08826 q 0.147039,0 0.147039,0.117639 -0.294086,0.529353 -0.499943,0.558761 l 0.05881,0.08823 q -0.264681,0.02934 -0.264681,0.205848 -0.117636,0 -0.529352,0.323492 l -0.235271,0.05881 q 0,-0.02934 -0.02941,-0.02934 0,0.235308 -0.411719,0.411722 0,-0.02934 -0.02941,-0.02934 0,0.11764 -0.05882,0.11764 -0.02941,0 -0.294087,-0.352911 v 0.02934 q 0.20586,0.294084 0.20586,0.382318 0,0.05881 -0.08821,0.08826 -0.117637,0 -0.117637,-0.08826 -0.264677,0.147044 -0.264677,0.382322 l -0.117629,-0.02933 q 0,0.117639 -0.05882,0.117639 l -0.05882,-0.02934 q 0,0.11764 -0.05882,0.11764 -0.17645,-0.176445 -0.17645,-0.264681 -0.0294,0 -0.0294,0.02934 0.05882,0.08823 0.05882,0.235307 -0.17645,0.08826 -0.17645,0.147044 l 0.02941,0.11764 -0.147043,-0.02934 q -0.205858,0 -0.235265,0.08826 l 0.05882,0.02934 0.08821,-0.02934 v 0.02926 q -0.23527,0.176444 -0.470538,0.176444 l -0.0294,-0.08823 h -0.02941 q -0.02941,0.205847 -0.264678,0.205847 -0.08821,0 -0.08821,-0.147041 -0.235268,0.147041 -0.352899,0.147041 0,-0.05881 0.08821,-0.05881 v -0.02934 q -0.05882,0 -0.176449,-0.08826 h -0.02941 l 0.05881,0.08826 q -0.02941,0 -0.08821,0.08823 0.02941,0 0.02941,0.02934 l -0.05882,0.02934 q 0,-0.02934 -0.02941,-0.02934 0,0.08826 -0.05881,0.08826 h -0.117648 q -0.05882,0 -0.05882,-0.08826 -0.05882,0 -0.05882,0.08826 l 0.02941,0.08823 q -0.08821,0 -0.147042,-0.05881 0,0.11764 -0.05882,0.11764 l -0.0294,-0.08823 h -0.08821 q 0,0.205847 -0.441127,0.205847 -0.05882,-0.176445 -0.26468,-0.176445 l 0.05881,0.08826 q -0.352901,0.05881 -0.441127,0.117641 l -0.294083,-0.02933 z m 2.999668,-25.850089 h -0.08821 q 0,-0.117634 0.05882,-0.117634 z m 0.205858,0 -0.0294,-0.05882 q 0,-0.05881 0.05882,-0.05881 l 0.0294,0.05881 q 0,0.05882 -0.05882,0.05882 z m -1.646876,0.05882 q -0.05882,0 -0.05882,-0.05882 l 0.08821,-0.05882 0.0294,0.05882 q 0,0.05882 -0.05882,0.05882 z m 0.82344,0.05882 H 24.92822 q 0.0294,-0.117634 0.205858,-0.117634 0.08821,0 0.08821,0.05882 -0.117633,0.05882 -0.176452,0.05882 z m 1.146932,0 q -0.08821,0 -0.08821,-0.05881 0.02941,-0.05882 0.05882,-0.05882 z m -3.117303,0.147043 q -0.05882,0 -0.05882,-0.05882 l -0.05882,0.02941 q -0.05882,0 -0.05882,-0.176451 h 0.05882 q 0.05882,0 0.05882,0.08821 l 0.05882,-0.0294 q 0.05881,0 0.05881,0.05882 0,0.08821 -0.05881,0.08821 z m 1.441015,-0.02941 q -0.117635,0 -0.117635,-0.05882 l 0.147046,-0.08821 q 0.05882,0 0.05882,0.05882 0,0.0294 -0.08822,0.08821 z m 0.352902,-0.05882 h -0.08821 v -0.08821 h 0.0294 q 0.05882,0 0.05882,0.08821 z m -0.911664,0.205858 -0.05882,-0.08821 0.05882,-0.02941 h 0.117634 q 0.05881,0 0.05881,0.08821 z m -2.205639,0.05882 q 0,-0.147043 0.05882,-0.147043 h 0.05881 v 0.02941 q -0.05881,0.117635 -0.117635,0.117635 z m -0.205859,0.117634 q -0.08821,0 -0.08821,-0.05882 l 0.235266,-0.147041 q 0,0.147041 -0.147042,0.205859 z m 1.235159,0.147044 h -0.08821 q 0,-0.05882 0.05882,-0.08821 h 0.0294 z m -0.411719,0.323494 h -0.147044 v -0.08821 q 0.20586,0 0.20586,-0.176451 l 0.147042,0.117633 q 0,-0.176452 0.05882,-0.176452 l 0.117638,0.08821 h 0.147042 q 0,0.08821 -0.147042,0.147044 l -0.08821,-0.0294 z m -0.117634,-0.20586 h -0.02941 q 0,-0.05882 0.05881,-0.08821 h 0.02941 q 0,0.08821 -0.05882,0.08821 z m 1.99978,0.08821 v -0.02939 q 0.08821,-0.147044 0.117634,-0.147044 0.05882,0.02941 0.05882,0.05882 0,0.117634 -0.17645,0.117634 z m 0.235271,0.235269 q -0.05882,0 -0.05882,-0.08821 0,-0.117637 0.05882,-0.117637 0.05881,0.02941 0.05881,0.117637 0,0.08821 -0.05881,0.08821 z m 1.088112,0 q -0.0294,-0.02941 -0.0294,-0.08821 0,-0.08821 0.176451,-0.117637 h 0.176452 q 0.05882,0.02941 0.05882,0.08821 z m -3.411385,0.02941 -0.02941,-0.08821 h 0.02941 q 0.05882,0 0.05882,0.05882 z m 2.646766,0.382311 q -0.205858,0 -0.205858,-0.05882 0,-0.05882 0.08821,-0.08821 l 0.08821,0.05882 q 0,-0.05882 0.117634,-0.05882 0,-0.08821 -0.117634,-0.147042 l -0.05882,0.02941 q 0,-0.02941 -0.02941,-0.08821 0,-0.08821 0.17645,-0.08821 0.05882,0 0.05882,0.264679 l 0.147041,-0.05882 0.08821,0.02941 v 0.05881 q -0.08821,0 -0.352901,0.147042 z m 0.676396,-0.08821 q -0.05882,0 -0.05882,-0.05882 0,-0.117633 0.235272,-0.147042 0,-0.08821 0.38231,-0.147045 0.117634,0.0294 0.117634,0.08821 0,0.05882 -0.411719,0.176452 0,-0.02941 -0.0294,-0.02941 0,0.02941 -0.23527,0.117632 z M 24.634135,20.65421 h -0.08821 q 0,-0.117637 0.05882,-0.117637 z m -4.264236,0.05882 q -0.147043,0 -0.147043,-0.08821 l 0.294084,-0.0294 v 0.05882 q 0,0.05882 -0.147041,0.05882 z m 3.970151,0.41172 q -0.05882,0 -0.117638,-0.08821 0,-0.08821 0.20586,-0.117638 l -0.05882,-0.08821 0.05882,-0.02941 q 0.05882,0.05882 0.05882,0.117637 l 0.08821,-0.02941 v 0.05882 q -0.0294,0 -0.235269,0.176452 z m 4.028964,-0.147048 h -0.05882 v -0.0294 q 0.02941,-0.117636 0.08821,-0.117636 h 0.05882 v 0.0294 q -0.05882,0.117636 -0.08822,0.117636 z m 0.941076,1.088117 -0.02941,-0.05881 0.02941,-0.117634 q 0,-0.117638 -0.264679,-0.264681 -0.117636,-0.205858 -0.117636,-0.323493 -0.05882,0 -0.05882,0.08821 h -0.05882 L 28.51606,21.212949 q 0,-0.08821 0.323495,-0.352901 h 0.05882 l 0.529351,0.529353 -0.117633,0.117634 0.08821,0.05882 0.08821,-0.0294 q 0.117636,0 0.264679,0.323494 -0.235268,0.205859 -0.441128,0.205859 z M 26.86918,21.00714 h -0.176452 v -0.05882 h 0.176452 z m 0.499946,0.02941 h -0.05881 q -0.05882,0 -0.05882,-0.08821 l 0.117633,0.02941 z m 1.14693,0.05882 -0.02941,-0.05882 q 0,-0.08821 0.05882,-0.08821 0.05882,0 0.05882,0.05882 0,0.02941 -0.08821,0.08821 z m -2.470314,-0.05882 h -0.08821 v -0.05881 h 0.08821 z m 1.911553,0.117633 q -0.441127,-0.08822 -0.441127,-0.147046 l 0.08821,-0.02941 0.352904,0.117634 z m 2.852627,0.176453 q -0.02941,0 -0.147043,-0.176453 v -0.0294 h 0.02941 q 0.117634,0.05882 0.117634,0.205863 z m -3.676067,0.0294 -0.17645,-0.0294 v -0.05882 l 0.17645,0.02941 z M 22.899029,21.5659 h -0.117635 q 0,-0.08821 0.08821,-0.08821 0.08821,0.02941 0.08821,0.05882 z m 5.087673,0.08821 -0.0294,-0.117635 h 0.08821 q 0,0.117635 -0.05881,0.117635 z m -4.499503,0.05881 q -0.117633,0 -0.117633,-0.05881 l 0.117633,-0.02941 q 0.05882,0.02941 0.05882,0.05882 z m 4.823,0.117637 q -0.05882,-0.0294 -0.05882,-0.117637 h 0.05882 q 0.05882,0.02941 0.05882,0.05882 0,0.05882 -0.05882,0.05882 z m 0.235266,0.176452 q -0.05882,0 -0.08821,-0.117635 0,-0.05882 0.05882,-0.05882 0.08821,0.02941 0.08821,0.08821 0,0.08821 -0.05882,0.08821 z m 0.79403,0.382307 h -0.05882 q 0,-0.05882 -0.176453,-0.323495 v -0.0588 q 0.08821,0 0.235268,0.382312 z m 0.764621,0.294084 h -0.05882 q -0.05882,-0.235268 -0.05882,-0.323493 0.05882,-0.05882 0.05882,-0.323493 0.05882,0 0.147044,0.323493 l -0.117636,0.117636 z m -0.382309,-0.08821 q -0.117635,0 -0.264678,-0.382311 l 0.05882,-0.0294 q 0.20586,0.294084 0.20586,0.41172 z m -11.439914,-0.02941 -0.02941,-0.05882 0.08821,-0.05882 0.02941,0.05882 z m 10.851743,0.264676 h -0.05882 l -0.02941,-0.17645 h 0.05882 z m 0.26468,1.499835 q -0.02941,-0.02941 -0.117635,-0.02941 0,-0.08821 0.05881,-0.176451 -0.08821,-0.117634 -0.08821,-0.3529 l 0.02941,-0.176453 h 0.08821 l 0.02941,0.205861 0.117635,-0.0294 q 0,0.08821 -0.08821,0.176449 0.02941,0 0.02941,0.0294 l -0.05882,0.02941 q 0,-0.02941 -0.02941,-0.02941 v 0.05882 q 0.08821,0 0.147041,0.117634 -0.05882,0 -0.117636,0.176451 z m 1.940958,0.411727 q -0.117634,0 -0.117634,-0.05882 0,-0.205862 0.235268,-0.441126 h 0.02941 q 0,0.499942 -0.147042,0.499942 z m -1.764511,-0.235273 q -0.08821,0 -0.147046,-0.08821 0.05882,-0.117637 0.08821,-0.117637 l 0.05882,0.08821 q 0,0.02941 -0.0294,0.02941 z m -9.204867,0.176449 q -0.117636,0 -0.117636,-0.08821 h 0.05882 q 0.05882,0.02941 0.05882,0.08821 z m 10.969377,0.294088 q -0.205858,0 -0.235267,-0.08821 0,-0.05882 0.117634,-0.117635 0.05882,0 0.117633,0.08821 z m -0.26468,0.676394 -0.0294,-0.08821 0.05882,-0.323493 -0.02941,-0.235272 h 0.05881 q 0.117635,0 0.117635,0.147044 -0.05882,0.441127 -0.176449,0.499947 z m -0.382309,1.323383 h -0.05882 l 0.02941,-0.117634 -0.02941,-0.294085 q 0,-0.08821 0.147045,-0.382311 l 0.08821,0.02941 v -0.08821 q -0.08821,0 -0.08821,-0.117635 0.08821,0 0.147043,-0.205859 0.117634,-0.05881 0.20586,-0.05881 l 0.0294,0.08821 -0.05882,0.147042 h -0.05882 q -0.05882,-0.05882 -0.117638,-0.05882 0.05882,0.08821 0.05882,0.17645 -0.117633,0.235269 -0.205858,0.676398 -0.05882,0 -0.08821,0.205858 z M 19.899358,26.741791 q -0.176449,0 -0.235268,-0.176451 0.08821,-0.294084 0.176453,-0.294084 0.05882,0 0.05882,0.08821 l -0.05882,0.147043 q 0.205858,0 0.205858,0.05882 0,0.05882 -0.147043,0.17645 z m 8.146163,0.08821 q 0,-0.117634 0.147041,-0.176451 0.0294,0 0.08821,0.08821 0,0.05882 -0.235268,0.08821 z m -0.147045,0.205859 q 0,-0.08821 0.05881,-0.08821 l 0.02941,0.05882 z m 2.499722,0.147042 0.02941,-0.117635 q -0.117635,0 -0.117635,0.05882 v 0.05882 z m -3.764287,1.617467 h -0.05882 q 0,-0.14704 0.05882,-0.14704 0.05881,0 0.05881,0.05882 0,0.08821 -0.05881,0.08821 z m 2.38209,0.441131 q 0,-0.117635 0.117635,-0.147043 v -0.02941 h -0.08821 q -0.05882,0.08821 -0.05882,0.147045 0,0.02941 0.0294,0.02941 z m 0.05882,0.176451 q 0,-0.117634 0.05882,-0.117634 l 0.02941,0.05882 q -0.05882,0.05882 -0.08821,0.05882 z m -6.76396,1.3822 h -0.08821 v -0.05882 h 0.08821 z m 5.528802,0.205859 -0.117632,-0.02941 v -0.05882 h 0.05882 q 0.05882,0.02941 0.05882,0.08821 z m 1.088114,0.08821 q 0,-0.08821 0.117638,-0.176451 0.05882,0.02941 0.05882,0.05882 0,0.117633 -0.176453,0.117638 z m 0.147046,0.117637 q -0.05881,0 -0.05881,-0.117637 h 0.08821 q 0.05882,0.0294 0.05882,0.05881 -0.05882,0.05882 -0.08821,0.05882 z m 1.029294,0.470535 q -0.117632,0 -0.411717,-0.147043 l -0.117634,0.02941 q 0,-0.20586 -0.05882,-0.20586 l 0.0294,0.05882 -0.05882,0.02941 -0.05882,-0.08821 0.02941,-0.08821 q -0.205861,-0.05882 -0.205861,-0.117635 0.02941,-0.05882 0.05882,-0.05882 0.852846,0.352903 0.852846,0.499947 0,0.05882 -0.05882,0.08821 z m -1.764507,-0.44112 h -0.0294 q 0,-0.05882 0.05882,-0.08821 h 0.0294 q 0,0.08821 -0.05881,0.08821 z m 0.411719,0.26468 q -0.05882,0 -0.05882,-0.05882 l 0.08821,-0.05882 q 0.05882,0 0.05882,0.05882 z m 1.676286,0.411725 q -0.294088,-0.08821 -0.294088,-0.17645 0,-0.05882 0.08821,-0.08821 h 0.05882 q 0.147042,0.05882 0.205858,0.205859 0,0.05882 -0.05882,0.05882 z m -0.882256,-0.0294 q -0.08821,0 -0.08821,-0.05881 l 0.05882,-0.02941 z m 0.264681,0.235268 -0.147044,-0.176452 v -0.05881 h 0.05882 q 0.147045,0.08821 0.147045,0.20586 z m 0.470535,-0.05883 h -0.147043 v -0.05881 h 0.08821 q 0.05882,0 0.05882,0.05881 z m 0.411718,0.147042 q -0.117633,0 -0.117633,-0.05882 0.08821,-0.05881 0.17645,-0.05881 h 0.02941 q 0,0.05881 -0.08821,0.117637 z m 0.294088,0.235269 -0.235271,-0.235269 0.117634,-0.08821 h 0.05882 q 0,0.17645 0.117636,0.294084 z m -3.793699,-0.02941 q -0.176451,0 -0.205858,-0.117636 l 0.08821,-0.02941 q 0.0294,0 0.117634,0.117635 z m 3.1173,0.05883 q -0.117632,-0.02941 -0.176449,-0.147043 l 0.05882,-0.02941 q 0.176452,0.05881 0.176452,0.117636 0,0.05882 -0.05882,0.05882 z m -3.881923,-0.02941 q -0.08821,0 -0.08821,-0.05881 h 0.08821 z m 2.82322,0.05882 -0.02941,-0.05882 0.08821,-0.0294 q 0,0.08821 -0.05882,0.08821 z m 1.911551,0.117633 q -0.05882,0 -0.117635,-0.08821 0.0294,-0.05882 0.08821,-0.05882 0.05882,0 0.117635,0.08821 0,0.05882 -0.08821,0.05882 z m -1.558649,0 q -0.176451,0 -0.20586,-0.117633 h 0.147045 q 0.05881,0.02941 0.05881,0.117633 z m -1.176343,0.08823 q -0.08821,0 -0.08821,-0.05881 l 0.05882,-0.0294 z m 2.117416,0 h -0.08821 q 0,-0.05881 0.05882,-0.08821 h 0.0294 z m -1.11753,0.176453 q -0.08821,0 -0.08821,-0.08821 0,-0.08821 0.147044,-0.117635 l 0.0294,0.05881 q 0,0.147042 -0.08821,0.147042 z m 1.940965,0.05881 q -0.08821,-0.02941 -0.08821,-0.264676 h 0.05882 q 0.08821,0.02941 0.08821,0.20586 0,0.05881 -0.05882,0.05882 z M 27.486762,32.82933 q -0.117633,0 -0.117633,-0.05882 l 0.02941,-0.05881 q 0.147042,0.05881 0.147042,0.08821 z m 3.293756,0.20586 q -0.05882,0 -0.176452,-0.235267 v -0.05882 h 0.02941 q 0.05882,0 0.205858,0.235269 0,0.05881 -0.05882,0.05881 z m -3.058485,-0.117635 q -0.08821,0 -0.08821,-0.08821 l 0.05882,-0.0294 z m -2.205641,0.02941 q -0.08821,0 -0.08821,-0.05881 l 0.05882,-0.05881 z m 3.381979,0.176455 q -0.264679,-0.08821 -0.264679,-0.117638 0,-0.08821 0.08821,-0.117636 l 0.235271,0.117636 v -0.05882 h 0.05882 v 0.08821 q 0,0.08821 -0.117637,0.08821 z m 0.411722,-0.08821 -0.02941,-0.05881 0.05881,-0.02941 0.02941,0.05881 z m -0.352903,0.117633 q 0,-0.05881 0.08821,-0.08821 l 0.02941,0.05882 z m 0.617579,0.411727 -0.441129,-0.294086 0.02941,-0.05881 h -0.08821 q 0,-0.05881 0.117635,-0.08821 0.05882,0 0.05882,0.05881 l -0.0294,0.08821 q 0.117635,0 0.205858,0.08821 l 0.02941,-0.176451 q -0.05882,0 -0.05882,-0.05882 0.02941,-0.05881 0.05882,-0.05881 h 0.02941 q 0.20586,0.08821 0.20586,0.147042 0,0.05882 -0.235271,0.176451 0.117638,0.02941 0.117638,0.08821 z M 25.19289,33.388099 h -0.02941 q -0.08821,-0.147041 -0.264674,-0.147041 v -0.08821 q 0.176452,0 0.294085,0.176451 z m 6.381649,-0.08821 q -0.05882,0 -0.05882,-0.08821 0,-0.05882 0.05882,-0.05882 0.05882,0 0.05882,0.05882 0,0.08821 -0.05882,0.08821 z m -7.293313,0.470527 q -0.0294,0 -0.08821,-0.08821 l 0.117637,-0.117634 -0.05881,-0.147042 0.05881,-0.02941 0.05882,0.02941 q 0,-0.08821 0.05882,-0.08821 h 0.05882 l -0.02941,0.117637 q 0.05882,0 0.05882,0.05881 -0.17645,0.02941 -0.17645,0.235271 z M 21.516828,33.50575 v -0.117635 h -0.0294 v 0.117635 z m 9.587178,-0.02941 q -0.05882,0 -0.05882,-0.05881 l 0.05882,-0.0294 q 0.05882,0 0.05882,0.05881 z m 0.705801,0.08821 q -0.08821,0 -0.08821,-0.08821 0,-0.08821 0.05882,-0.08821 l 0.05881,0.02941 q -0.02941,0.05881 -0.02941,0.147043 z m -6.969817,0 q -0.05882,0 -0.117634,-0.08821 v -0.02941 h 0.17645 q 0,0.117634 -0.05882,0.117634 z m -0.970483,0.147043 -0.08821,-0.147043 0.05882,-0.02941 0.08821,0.147043 z m 7.440358,0.02941 q -0.147042,0 -0.147042,-0.05881 l 0.147042,-0.02941 z m 0.558761,0.17645 q -0.05882,0 -0.05882,-0.05881 0.0294,-0.17645 0.08821,-0.17645 h 0.02941 l -0.02941,0.08821 0.02941,0.117637 z m -7.822665,-0.08821 q -0.05882,0 -0.05882,-0.08821 h 0.05882 z m 6.234606,0.382311 q -0.235271,-0.294095 -0.235271,-0.382321 l 0.05882,-0.02941 q 0.235269,0.147043 0.235269,0.382311 z m -0.0294,0.323494 q -0.08821,0 -0.352903,-0.352904 0.05882,0 0.05882,-0.05881 -0.117637,0 -0.235268,-0.205857 -0.0294,-0.08821 0.05882,-0.08821 h 0.02941 q 0.147048,0.176444 0.205862,0.176444 0.23527,0.294085 0.23527,0.529351 z m 0.999889,-0.411721 -0.08821,-0.08821 q 0.02941,-0.05881 0.08821,-0.05881 0.0294,0 0.08821,0.08821 z m 0.529353,0.02941 h -0.05882 v -0.08821 h 0.05882 z m -2.235047,0.02941 q -0.08821,0 -0.08821,-0.08821 h 0.0294 q 0.05882,0.02941 0.05882,0.08821 z m 0.235268,0.411721 q -0.05882,0 -0.05882,-0.08821 h 0.05882 z m 0.235267,0.794028 h -0.05882 V 35.21143 h 0.05882 z m -0.264679,0.352902 h -0.05881 v -0.147043 h 0.05881 z m 0.352903,0.08821 H 30.0453 v -0.117619 h 0.05882 z m 0.05882,0.441129 q -0.08821,0 -0.08821,-0.05882 v -0.26468 h 0.08821 z m -0.470534,0.235272 -0.02941,-0.05881 0.05882,-0.02941 h 0.02941 q 0,0.08821 -0.05882,0.08822 z m -0.02941,0.205848 -0.05882,-0.05881 0.117632,-0.0294 q 0,0.0882 -0.05882,0.0882 z m 0.08821,0.147041 h -0.147045 q 0,-0.0882 0.08821,-0.0882 h 0.05882 z m 0.264678,0.411715 h -0.05881 q 0.0294,-0.205846 0.08821,-0.205846 h 0.02941 q -0.05882,0.147042 -0.05882,0.205846 z m 1.823328,-0.117638 q 0,-0.08823 0.05881,-0.08823 l 0.02941,0.05881 z m -1.617456,0.32349 h -0.05882 V 37.29942 q 0,-0.05881 0.05882,-0.05881 h 0.02941 z m 0.294084,0.205848 h -0.05882 q 0,-0.235281 0.235267,-0.294085 0,-0.02934 0.08821,-0.08823 h 0.02941 q 0,0.264682 -0.264677,0.264682 z m -0.941083,-0.205847 h -0.05881 q 0,-0.11764 0.05881,-0.11764 z m -0.382311,1.176337 q -0.117631,-0.02934 -0.117631,-0.08823 l 0.117631,-0.05881 q 0,-0.323499 0.147044,-0.441127 h 0.05882 l -0.0294,0.176445 0.117633,-0.02934 v 0.05881 q -0.08821,0.117639 -0.20586,0.117639 0.08821,0.08823 0.08821,0.176445 -0.08821,0 -0.176452,0.08823 z m 0.147044,0.205848 q -0.05881,0 -0.117637,-0.08823 0,-0.05881 0.08821,-0.117639 0.05882,0.02934 0.05882,0.05881 z m -0.676392,0.91166 q -0.117637,0 -0.147042,-0.08823 v -0.17644 q 0,-0.05881 0.08821,-0.08823 l -0.0294,-0.05881 q 0.117643,-0.323504 0.205869,-0.352911 l 0.176451,0.02934 q 0.02941,0 0.02941,-0.02934 -0.08821,0 -0.08821,-0.08823 l 0.352901,-0.05881 q 0.05882,0.02934 0.05882,0.08823 l -0.205858,-0.02934 0.0294,0.05881 -0.0294,0.05881 q 0.0294,0.05881 0.0294,0.147043 -0.205858,0.117641 -0.264679,0.411721 z m 2.411499,-0.411715 q -0.117636,-0.02934 -0.117636,-0.117642 0,-0.117639 0.411719,-0.323497 v 0.02934 q -0.05882,0.23528 -0.294087,0.411719 z m -0.08821,0.176444 q -0.08821,0 -0.176449,-0.117641 l 0.08821,-0.05881 h 0.08821 q 0.05882,0 0.05882,0.08823 0,0.08826 -0.05882,0.08826 z m -0.38231,0.588167 -0.02941,-0.08826 q 0.176451,-0.235309 0.205858,-0.499943 0.08821,0 0.117634,0.08823 -0.176451,0.470536 -0.294084,0.499942 z m -0.941073,1.41161 v -0.02935 l 0.264669,-0.646996 q 0.08821,-0.02934 0.176452,-0.176446 l 0.05882,0.02935 q 0.05882,0 0.05882,-0.11764 -0.08821,0 -0.08821,-0.05881 0.26468,-0.323495 0.499946,-0.323495 l 0.02941,0.05881 q -0.117634,0.205848 -0.235271,0.205848 0,-0.08826 -0.05882,-0.08826 0,0.294084 -0.23527,0.470532 0,0.147042 -0.470534,0.676398 z m -2.676175,-0.64695 v -0.02934 q 0.05882,-0.11764 0.176451,-0.11764 l 0.05882,0.11764 z m -0.17645,0.176445 -0.02941,-0.05881 0.05882,-0.02934 h 0.0294 q 0,0.08823 -0.05882,0.08823 z m -1.999779,1.293971 q -0.08821,0 -0.08821,-0.05881 0,-0.05881 0.117635,-0.117639 0.05882,0.02934 0.05882,0.08826 0,0.02934 -0.08821,0.08823 z m 2.382089,1.088114 q 0,-0.05881 -0.08821,-0.05881 0,0.05881 0.08821,0.05881 z m -0.176451,0.294091 h -0.0294 q 0,-0.05881 0.05881,-0.08826 h 0.02941 q 0,0.08826 -0.05882,0.08826 z m -8.46965,0.676403 h -0.02941 l 0.02941,-0.176445 h 0.05882 q 0,0.176445 -0.05882,0.176445 z m 0.0294,0.205848 h -0.05881 v -0.08823 h 0.05881 z m 0.735214,0.235307 h -0.0294 q -0.147045,-0.08826 -0.20586,-0.08826 -0.147042,0.08826 -0.235267,0.08826 l -0.02941,-0.05881 v -0.117657 l 0.117641,0.05881 q 0,-0.05881 0.05882,-0.05881 l 0.02941,0.02934 0.147041,-0.117639 H 19.223 v 0.08826 l 0.147041,-0.02934 q 0.05882,0.05881 0.05882,0.117639 h -0.117634 z m 0.735212,0.499945 -0.02941,-0.117639 0.05882,-0.11764 q -0.02941,0 -0.117634,-0.117642 l 0.05882,-0.02934 q 0.117636,0.05881 0.117636,0.23531 0,0.08826 -0.08821,0.147043 z m -0.411722,-0.147042 q -0.117634,-0.02934 -0.117634,-0.08823 v -0.117641 h 0.02941 q 0.176449,0.117641 0.176449,0.147044 0,0.05881 -0.08821,0.05881 z m 1.20575,0.05881 -0.02941,-0.05881 q 0,-0.05881 0.05882,-0.05881 l 0.0294,0.05881 q 0,0.05881 -0.05882,0.05881 z M 41.308758,18.772061 q -0.08826,0 -0.08826,-0.117635 h 0.05881 v 0.05882 l 0.05881,-0.02941 0.02934,0.05882 z m 0.35291,0.05882 h -0.08826 q -0.05881,0 -0.08823,-0.176451 h 0.02934 q 0.147041,0.05881 0.147041,0.176451 z m -0.646987,0.05882 h -0.05881 q 0,-0.147041 0.05881,-0.147041 h 0.05881 q 0,0.147041 -0.05881,0.147041 z m -0.294084,0.0294 q -0.176452,-0.0294 -0.176452,-0.147048 h 0.11764 q 0.05881,0.02941 0.05881,0.147041 z m -0.323495,0.05882 h -0.08826 q 0,-0.147041 0.08826,-0.147041 0.08823,0 0.08823,0.05882 z m -0.499943,0.20586 -0.02934,-0.05882 q 0.02934,-0.147045 0.117639,-0.264679 0.117641,0.05882 0.264683,0.05882 0,0.08821 -0.264683,0.117634 0,-0.02941 -0.02934,-0.02941 0,0.176449 -0.05881,0.176449 z m 1.940964,-0.176452 h -0.08823 v -0.05881 h 0.08823 z m -2.4115,0.23527 q -0.05881,0 -0.05881,-0.05882 0,-0.147043 0.205849,-0.147043 0.08826,0 0.08826,0.05882 -0.08826,0.147041 -0.235311,0.147044 z m -0.382318,0.26468 -0.147043,-0.08821 v 0.05881 q -0.117638,0 -0.117638,-0.05881 h 0.08826 l -0.02934,-0.02941 q -0.11764,0.05882 -0.264682,0.05882 l -0.02934,-0.05882 q 0.588176,-0.294088 0.676395,-0.294088 0.117641,0.02941 0.117641,0.08821 0,0.08821 -0.294085,0.235271 z m -0.970488,25.703037 h -0.08826 l 0.02934,-0.08823 -0.617577,0.02934 q -0.08823,0 -0.08823,-0.11764 l -0.235282,0.05881 -0.02934,-0.05881 0.02934,-0.05881 -0.294081,0.02934 -0.0882,-0.05881 q 0,0.11764 -0.05881,0.11764 -0.23527,0 -0.470535,-0.176445 l -0.08821,0.05881 Q 35.868097,44.827859 34.809389,44.474963 34.691754,44.327919 34.691754,44.239655 H 34.5153 q -0.05881,0 -0.05881,-0.11764 h 0.176453 v -0.02934 q -0.08821,0 -0.08821,-0.05881 l -0.205861,0.05881 q -0.529254,-0.205734 -0.705707,-0.205734 l 0.02941,0.05881 -0.117635,0.235309 0.117635,-0.02934 -0.02941,0.08823 q 0.08821,0 0.08821,-0.08823 h 0.08821 q 0,0.147043 -0.117637,0.205847 -0.08821,-0.05881 -0.17645,-0.05881 0,0.08823 -0.05881,0.08823 -0.117634,-0.05881 -0.117634,-0.08823 0.05882,-0.08826 0.05882,-0.176443 h -0.0294 q -0.176452,0.264683 -0.323495,0.264683 v -0.264681 q -0.05882,0 -0.05882,-0.02934 -0.17645,0.05881 -0.17645,0.176444 h -0.05881 l 0.02941,-0.117639 -0.02941,-0.117639 q 0,-0.05881 0.02941,-0.08823 h -0.02941 l -0.147043,0.147041 q -0.117636,0 -0.205861,-0.235306 l -0.117633,0.02934 0.05881,0.205846 h -0.02941 Q 31.98626,43.886974 31.98626,43.622283 l 0.0294,-0.08826 0.147042,0.02934 q 0.05882,-0.117639 0.08821,-0.117639 0.117638,0.147041 0.205859,0.147041 0.117636,0.205847 0.176452,0.205847 v -0.08826 q -0.117629,-0.08822 -0.117629,-0.20584 l 0.20586,-0.02934 q 0,-0.05881 0.205859,-0.117639 l 0.117634,0.05881 q 0.05881,-0.117642 0.205858,-0.294086 h -0.0294 l -0.147042,0.117639 h -0.08821 q 0,-0.02934 0.147043,-0.117639 l -0.02941,-0.147043 q 0.05881,-0.08826 0.05881,-0.147042 h -0.08821 v -0.02934 q 0.117635,-0.11764 0.117635,-0.235309 -0.117635,-0.05881 -0.117635,-0.11764 0.205861,-0.205847 0.205861,-0.294086 -0.05882,0 -0.05882,-0.05881 l 0.117634,-0.08826 0.02941,0.05881 -0.05881,0.08823 q 0.05881,0 0.08821,-0.05881 0.02941,-0.08826 -0.02941,-0.147042 0.235271,-0.117638 0.235271,-0.205847 0,-0.08826 0.26468,-0.176445 l -0.02941,-0.147043 q 0,-0.02934 0.176451,-0.147041 v -0.02934 l -0.20586,0.147042 -0.02941,-0.02934 0.264677,-0.294084 h 0.176458 q 0,-0.147043 0.235268,-0.176445 l 0.02941,0.08826 -0.02941,0.05881 q 0,0.02934 0.02941,0.02934 0,-0.117638 0.117637,-0.117638 0.646988,0.470539 0.646988,0.646989 0.382311,0.176445 0.676395,0.441132 0.294088,0.05881 0.941071,0.382316 l 0.117642,-0.02934 q 0.117638,0.02934 0.117638,0.11764 0.05881,0 0.05881,-0.05881 l 0.558758,0.147042 0.147042,-0.08823 q 0.11764,0.08823 0.411718,0.08823 0.264682,0 0.970486,-0.11764 l 0.147042,0.08823 h 0.05881 v -0.02934 h -0.08823 q 0,-0.08826 0.05881,-0.08826 0.147042,0 0.147042,0.147041 h 0.02934 L 39.573655,42.4167 q 0.08826,0 0.08826,0.08826 h 0.02934 q 0,-0.147042 0.294084,-0.205846 0.05881,0.117638 0.11764,0.117638 0.235308,0 0.441129,-0.176445 -0.02934,-0.05881 -0.02934,-0.147042 0.02934,-0.117639 0.294087,-0.117639 0,-0.147042 0.14704,-0.147042 l 0.205849,0.02934 0.323494,-0.08823 -0.02934,-0.05881 0.05881,-0.02934 q 0.02934,0 0.02934,0.02934 0.176445,0 0.323492,-0.205848 l 0.08823,0.02934 q 0.11764,-0.02934 0.11764,-0.08826 v -0.147043 h 0.02934 q 0.117638,0.05881 0.117638,0.147043 h 0.05881 l -0.08823,-0.11764 q 0.05881,0 0.05881,-0.05881 l -0.02934,-0.117641 0.08826,0.02934 q 0,-0.235308 0.411716,-0.264682 0,-0.117641 0.11764,-0.147042 0,-0.117641 0.02934,-0.176445 l 0.05881,0.02934 q 0.05881,0 0.05881,-0.05881 l -0.02934,-0.11764 0.08826,-0.05881 0.05881,0.02934 q 0.470534,-0.499944 0.676403,-0.646984 v -0.117651 h 0.08826 q 0,0.05881 0.235306,0.235309 -0.117638,0 -0.147041,0.02934 l -0.02934,-0.08823 q -0.05881,0 -0.05881,0.05881 l 0.02934,0.08823 -0.205848,0.323492 h 0.02934 l 0.205848,-0.176444 h 0.05881 q 0,0.117639 -0.352914,0.382319 l 0.02934,0.11764 q -0.235308,0.235308 -0.235308,0.352907 l 0.08826,0.02934 q 0,-0.08826 0.529352,-0.676393 l 0.08826,0.02934 Q 44.279046,40.24 44.455498,39.916512 l 0.08826,-0.02934 -0.02934,-0.05881 q 0,-0.05881 0.05881,-0.05881 l 0.08826,0.02934 q 0.176446,-0.147041 0.352915,-0.294085 0.176445,-0.176443 0.264681,-0.558759 l -0.02934,-0.02934 q 0,0.294085 -0.441134,0.646987 l -0.02934,-0.08826 q 0.117661,-0.205857 0.294106,-0.205857 v -0.05881 h -0.08826 v -0.235279 l 0.08826,-0.08823 q -0.05881,-0.02934 -0.05881,-0.117639 0.176445,0 0.323491,-0.264682 0.08826,0 0.08826,-0.117639 -0.05881,0 -0.08826,-0.08823 v -0.02934 q 0.11764,-0.205846 0.176446,-0.205846 l -0.02934,-0.08823 q 0.117639,-0.176445 0.117639,-0.352907 0.147042,0 0.147042,-0.117641 l -0.02934,-0.176443 q 0.02934,-0.11764 0.11764,-0.11764 v -0.02934 q -0.23531,0 -0.23531,-0.08823 0.117641,-0.02934 0.117641,-0.176446 l -0.05881,-0.0294 q 0,-0.0294 0.11764,-0.176445 l -0.08826,-0.0294 0.02934,-0.05881 -0.02934,-0.117639 0.176446,-0.08821 -0.02934,-0.08821 0.147042,-0.0294 v 0.05882 h -0.08826 q 0.02934,0.02941 0.02934,0.08821 h -0.05881 v 0.02941 q 0.147042,0 0.205846,-0.02941 l 0.117641,0.02941 q 0,0.411722 -0.147043,0.411722 h -0.08826 v 0.0294 q 0.147043,0 0.147043,0.117639 -0.02934,0.147044 -0.205849,0.147044 l 0.02934,0.05881 q 0,0.205848 -0.264682,0.588173 -0.02934,0.382315 -0.117639,0.382315 0,-0.02934 -0.02934,-0.02934 l 0.02934,0.176448 -0.08823,0.352909 q 0,0.02934 0.02934,0.02934 0.205848,-0.499946 0.294082,-0.499946 l -0.176444,0.529351 h 0.02934 q 0.147041,-0.147042 0.382321,-0.646986 l -0.02934,-0.235279 q 0,-0.235279 0.205848,-0.3235 0.05881,-0.117639 0.05881,-0.411717 l -0.05881,-0.08823 q 0,-0.176446 0.147042,-0.470536 l -0.02934,-0.147043 0.02934,-0.147043 -0.205846,0.02941 v -0.05882 H 45.74965 v -0.08821 h 0.05881 l -0.05881,-0.08821 v -0.176327 q 0,-0.05881 0.08823,-0.05881 V 35.711444 Q 45.661401,35.152683 45.661401,34.97623 h -0.08826 q 0,-0.264679 0.147041,-0.352901 l 0.08826,0.117632 q 0,0.08821 -0.08826,0.08821 v 0.02941 l 0.176446,-0.02941 q 0,-0.08821 -0.05881,-0.147042 0,-0.05881 0.05881,-0.05881 0.08823,0 0.08823,0.117635 0.08826,0 0.117638,-0.352902 l -0.05881,0.05881 q -0.08826,0 -0.294084,-0.58817 l -0.441079,-0.558706 q 0,-0.147044 0.05881,-0.147044 0.470534,0.617582 0.558762,0.676398 h 0.02934 l -0.02934,-0.08821 0.02934,-0.08821 -0.08826,0.05881 -0.02934,-0.05881 v -0.11763 q 0,-0.05882 0.08826,-0.05882 0.176445,0.264678 0.205847,0.264678 0.02934,0 0.02934,-0.0294 -0.147042,-0.323492 -0.264681,-0.323492 l -0.117641,0.05881 -0.02934,-0.05881 q 0,-0.08821 0.08823,-0.08821 v -0.02941 h -0.05881 l -0.147043,0.05881 q -0.382279,-0.470593 -0.617554,-0.617635 0,-0.0294 0.117639,-0.08821 0.117641,0 0.117641,0.117633 h 0.02934 q -0.02934,-0.205858 -0.52935,-0.470535 h -0.176446 l 0.05881,0.08821 q 0,0.05881 -0.05881,0.05881 -0.23531,-0.117639 -0.294087,-0.117639 v 0.02941 q 0.470536,0.294092 0.470536,0.352904 -0.11764,0.294084 -0.235308,0.294084 0,-0.176451 -0.882256,-0.529353 l -0.176444,0.20586 0.05881,0.0294 q -0.05881,0.02941 -0.147042,0.02941 -0.588173,-0.147043 -0.588173,-0.323493 l -0.176446,0.117638 -0.02934,-0.05882 q 0.11764,-0.117637 0.23531,-0.117637 0.08826,0 0.08826,0.117637 l 0.05881,-0.0294 q 0.11764,0 0.323492,0.117637 0.02934,-0.05882 0.05881,-0.05882 l 0.176445,0.02941 0.05881,-0.08821 -0.235307,-0.02941 -0.205849,0.02941 q -0.02934,-0.20586 -0.117639,-0.20586 -0.23531,0 -0.352909,0.05881 -0.735209,-0.147043 -0.94107,-0.147043 l -0.08826,0.02941 v 0.05882 l 0.08826,-0.05882 q 0,0.147043 -0.235308,0.176452 h -0.02934 l -0.147041,-0.08821 -0.02934,0.117632 H 41.13261 q -0.08826,0.08821 -0.176445,0.08821 l 0.02934,0.05881 q 0,0.117636 -0.352909,0.205861 l -0.970485,0.470537 -0.02934,-0.0294 -0.05881,0.0294 -0.117638,-0.05882 q 0,0.08821 -0.08823,0.08821 -0.05881,0 -0.05881,-0.05881 0.05881,-0.08821 0.05881,-0.147043 -0.02934,0 -0.205848,0.294089 -0.323492,0.147044 -0.323492,0.264677 0.117639,0.117637 0.117639,0.235269 l 0.08826,-0.05881 q 0,0.02941 0.02934,0.02941 l -0.02934,-0.117635 q 0.05881,0 0.147042,0.117635 l -0.11764,0.147043 0.05881,0.08821 -0.08826,0.05881 q -0.08826,0 -0.08826,-0.147044 h -0.05881 q 0,0.117633 0.08826,0.205857 v 0.176453 h -0.02934 q -0.147042,-0.117635 -0.235307,-0.117635 l 0.02934,0.294085 -0.235309,-0.20586 v 0.02941 q 0.08823,0.117635 0.08823,0.235271 l -0.08823,0.02941 q -0.02934,-0.02941 -0.147042,-0.02941 l -0.02934,0.08821 0.176445,0.02941 q 0,0.08821 -0.294084,0.147042 -0.176446,-0.08821 -0.205849,-0.147042 0,-0.08821 0.05881,-0.08821 -0.05881,-0.117637 -0.05881,-0.176451 l 0.05881,-0.02941 0.08823,0.02941 q 0,-0.08821 0.23531,-0.08821 v -0.02941 q -0.176444,0 -0.264681,-0.05881 l 0.02934,-0.117634 -0.02934,-0.17645 q 0.02934,-0.117634 0.117639,-0.117634 l -0.05881,-0.147042 -0.08826,0.05881 q -0.05881,0 -0.05881,-0.08821 h -0.02934 l 0.02934,0.08821 q 0,0.176449 -0.264683,0.3529 v 0.02941 l 0.205848,-0.02941 q 0,0.05882 -0.38231,0.382311 l -0.02934,-0.05881 q 0,0.08821 -0.05881,0.08821 -0.02934,-0.147042 -0.176444,-0.264679 v -0.147122 q 0,-0.05882 0.08823,-0.05882 -0.147043,-0.235268 -0.147043,-0.294084 h -0.117632 l 0.02934,0.147042 q -0.117642,0 -0.117642,-0.08821 h -0.08823 q -0.176445,0 -0.176445,-0.147043 h 0.05881 q -0.05911,-0.117656 -0.05911,-0.235289 l 0.0882,-0.02941 q 0,-0.05882 -0.05881,-0.05882 0,0.02941 -0.0294,0.02941 -0.0882,-0.117636 -0.0882,-0.147042 -0.0294,0 -0.0294,0.0294 0.05881,0.08821 0.05881,0.17645 h -0.05883 l -0.05881,-0.17645 -0.05881,0.02941 q -0.05881,-0.08821 -0.05881,-0.205859 0.05881,0 0.117638,0.05882 v -0.0294 q -0.05881,-0.176455 -0.323487,-0.499951 h -0.05882 q 0,0.176452 -0.08821,0.176452 -0.117637,-0.05882 -0.117637,-0.176452 l -0.08821,0.05882 q -0.05881,-0.08821 -0.05881,-0.352901 0.294082,-0.735213 0.41172,-0.735213 0.382312,-0.205859 0.44113,-0.294085 0,0.0294 0.0294,0.0294 0,-0.08821 0.499944,-0.264679 l 0.02934,-0.05881 0.147042,0.0294 q 0.294085,-0.117637 0.64699,-0.176452 0,-0.117635 0.08826,-0.117635 l 0.11764,0.08821 q 0.352908,-0.147041 0.352908,-0.205858 0.02934,-0.08821 0.05881,-0.08821 h 0.323494 q 0,-0.08821 0.05881,-0.08821 0.08823,0.05882 0.176443,0.05882 l 0.117642,-0.08821 0.05881,0.02941 q 0,-0.08821 0.411721,-0.205858 0,-0.02941 0.264681,-0.117637 0,-0.147043 0.323494,-0.176451 l 0.82344,-0.61758 q 0.05881,0 0.176445,-0.117637 l 0.11764,0.02941 -0.05881,-0.08821 0.05881,-0.02941 q 0.02934,0.05881 0.05881,0.05881 0.08826,-0.26468 0.205848,-0.26468 0.05881,0.05882 0.147042,0.05882 0.294085,-0.176451 0.294085,-0.323493 -0.05881,0 -0.08823,-0.08821 0.02934,-0.176449 0.235306,-0.176449 l -0.02934,-0.05882 q 0,-0.147043 0.323495,-0.205859 0,-0.05882 0.205847,-0.147042 l -0.02934,-0.08821 q 0.294084,-0.117635 0.294084,-0.264681 0.147042,-0.02941 0.147042,-0.176449 l -0.05881,-0.08821 0.176445,0.02941 -0.02934,-0.05881 0.02934,-0.05882 q -0.02934,0 -0.08826,-0.08821 0.05881,0 0.23531,-0.264678 0.176445,0 0.205848,-0.235269 h 0.05881 l -0.02934,-0.176451 q 0.117639,0 0.117639,-0.05882 -0.08826,0 -0.08826,-0.08821 0.11764,-0.02941 0.470537,-0.705804 0.02934,0 0.02934,-0.0294 l -0.02934,-0.117636 0.05881,-0.02941 q 0,0.02941 0.08826,0.08821 h 0.02934 q -0.08827,-0.117673 -0.08827,-0.205898 l 0.02934,-0.117636 -0.02934,-0.08821 0.05881,-0.02941 -0.02934,-0.08821 q 0,-0.235271 0.205848,-0.235271 l -0.02934,-0.05882 q 0,-0.02941 0.176445,-0.147041 h 0.176444 v 0.08821 h -0.176444 l 0.02934,0.05882 -0.02934,0.05882 q 0.05881,0 0.08823,0.117637 0,0.08821 -0.11764,0.08821 0,0.58817 -0.205847,0.58817 v 0.02941 q 0.11764,0 0.11764,0.08821 h -0.176423 v -0.05882 h -0.02934 v 0.08821 q 0.05881,0 0.05881,0.05882 l -0.08826,0.323494 h 0.05881 q 0.05881,-0.205861 0.147041,-0.205861 -0.05881,0.382311 -0.205847,0.382311 l 0.05881,0.08821 -0.05881,0.294085 q 0,0.08821 0.05881,0.08821 0.147042,-0.676396 0.382316,-0.676396 0.117641,-0.441128 0.235308,-0.441128 l -0.05881,-0.08821 q 0.147043,0 0.41172,-0.411722 l 0.02934,-0.588168 h -0.02934 q 0,0.470536 -0.176446,0.676396 0,0.05881 -0.05881,0.05881 l -0.02934,-0.08821 q 0.02934,-0.264678 0.176446,-0.264678 v -0.05882 q -0.11764,0 -0.11764,-0.235268 l 0.05881,-0.117634 q -0.08826,0 -0.08826,-0.05882 0,-0.08821 0.117642,-0.08821 v -0.235269 q 0,-0.05882 0.08826,-0.05882 V 23.88916 l -0.11764,-0.117638 0.02934,-0.411717 q -0.05881,0 -0.05881,-0.05882 l 0.02934,-0.264678 q -0.11764,-0.20586 -0.11764,-0.294089 0.08826,0 0.08826,-0.05881 0,-0.05882 -0.294085,-0.470535 0,-0.17645 0.08823,-0.17645 0.205848,0 0.323494,1.088113 l 0.11764,0.441128 -0.05881,0.02941 q 0,-0.02941 -0.02934,-0.02941 v 0.05882 q 0.147043,0.176451 0.147043,0.617579 h 0.02934 l 0.02934,-0.676396 q 0.08823,-0.02941 0.08823,0.05881 v 0.676394 h 0.02934 q 0.08826,-0.264679 0.117639,-0.735212 0,-0.147042 -0.23531,-0.794029 l -0.02934,-0.176452 0.05881,-0.117634 q 0,-0.382309 -0.735209,-1.058706 -0.205852,-0.382314 -0.470541,-0.617582 l -0.05881,0.02941 q -0.323494,-0.264678 -0.470542,-0.264678 0,0.147046 -0.05881,0.147046 -0.05881,0 -0.05881,-0.08821 h -0.02934 q -0.264683,0.323492 -0.294085,0.323492 H 43.39706 v -0.08824 q -0.352908,0 -0.470537,-0.176452 l -0.176446,-0.02941 q -0.205847,0 -0.529353,0.05881 -0.08823,0 -0.235306,-0.05881 v 0.05881 q -0.205849,0 -0.294085,-0.176449 0.02934,-0.08821 0.176445,-0.08821 l 0.02934,0.117634 0.05881,-0.147041 -0.05881,-0.08821 -0.05881,0.05881 q -0.08823,0 -0.08823,-0.08821 0,-0.05882 0.147041,-0.05882 -0.05881,-0.08821 -0.235307,-0.205859 l -0.02934,0.0294 0.02934,0.08821 q -0.08826,0.05881 -0.176445,0.05881 H 41.01483 q -0.382318,0.08821 -0.499943,0.08821 -0.117639,0 -0.117639,-0.05882 0.05881,-0.05882 0.735209,-0.205858 v -0.05882 q -0.08826,0 -0.08826,-0.05882 h -0.02934 q 0,0.117637 -0.05881,0.117637 -0.05881,0 -0.117639,-0.117637 0,-0.0294 0.294084,-0.117635 v -0.0294 h -0.176445 q -0.205847,0 -0.205847,0.235272 h -0.02934 q -0.05881,-0.05882 -0.05881,-0.117637 h -0.02934 q 0,0.205858 -0.205847,0.205858 -0.352908,0.0294 -0.470532,0.117635 h -0.05881 l -0.02934,-0.117635 0.117641,-0.05882 v -0.02941 h -0.08826 q -0.49995,0.08821 -0.49995,0.26468 l 0.05881,-0.0294 0.02934,0.0294 0.05881,-0.0294 q 0.05881,0.0294 0.05881,0.147042 l -0.08826,-0.08821 q -0.235309,0.176453 -0.235309,0.235269 0.35291,-0.117635 0.44113,-0.117635 0.05881,0 0.176444,0.205861 l -0.02934,0.147041 -0.05881,-0.02941 q -0.08826,0 -0.764622,0.235268 0,0.147041 0.147041,0.323493 -0.294084,0.176451 -0.61758,0.176451 l -0.0882,-0.0294 q 0,0.117636 -0.08823,0.117636 0,-0.205859 0.08823,-0.205859 l 0.117639,0.02941 q 0,-0.117634 0.323494,-0.117634 l -0.02934,-0.05882 q 0,-0.05882 0.117641,-0.05882 v -0.147046 q -0.05881,0 -0.294085,0.235266 l -0.176446,-0.08821 q -0.382319,0.352903 -0.470528,0.352903 -0.294086,0.117633 -0.441127,0.205859 l 0.05881,0.117638 q -0.05881,0.147042 -0.147044,0.205858 -0.02934,0 -0.02934,-0.0294 l 0.02934,-0.117634 -0.176444,-0.08821 q -0.02998,0.176467 -0.14771,0.176467 v 0.05882 l 0.11764,-0.0294 v 0.05882 h -0.05881 v 0.02941 q 0.11764,0 0.11764,0.05882 l -0.294085,0.147041 0.02934,-0.176449 h -0.02934 q -0.176444,0.147043 -0.205848,0.147043 0,0.02941 0.147042,0.08821 -0.147042,0.176451 -0.147042,0.20586 h -0.05881 l 0.0294,-0.147042 q -0.147041,0 -0.235279,0.23527 l 0.0882,0.02941 q 0,0.205859 -0.294086,0.323492 l -0.02941,0.176453 h -0.05881 v -0.08821 q -0.05882,0 -0.08821,0.147042 l 0.02941,0.08821 -0.05882,0.02941 -0.02941,-0.02941 q 0,0.05882 -0.235272,0.411719 h -0.205888 q 0,0.08821 -0.117633,0.352902 l 0.08821,0.08821 -0.147044,0.411719 h -0.05884 v 0.08821 h 0.02941 v -0.05882 h 0.05881 q 0.147043,0.20586 0.147043,0.294086 l -0.08821,0.294084 q 0.147045,-0.117632 0.205859,-0.117632 0,0.3529 -0.08821,0.3529 l 0.02941,0.05882 q 0,0.0294 -0.08821,0.08821 -0.05882,0 -0.176452,-0.294089 -0.05882,0 -0.08821,0.05882 l 0.02941,0.05882 q -0.05881,0 -0.264678,-0.147045 -0.117637,-0.05882 -0.235271,-0.05882 l -0.05881,0.117637 q 0.117634,0.205859 0.117634,0.264679 l 0.205859,-0.02941 q 0.0294,0.05882 0.0294,0.147042 h -0.05881 l 0.294084,0.323493 -0.05882,0.02941 -0.147044,-0.02941 q 0,0.05882 -0.147042,0.147042 h -0.117716 q -0.0294,0 -0.08821,-0.08821 v -0.02941 h 0.176452 q 0,-0.05882 -0.176452,-0.05882 -0.05881,0 -0.05881,0.117635 l 0.147043,0.117633 -0.147043,0.588171 q 0.147043,0.17645 0.17645,0.382311 0.08821,0.05882 0.235273,0.05882 0.117631,-0.08821 0.264677,-0.08821 h 0.382311 q 0.05882,0 0.05882,0.05882 l -0.02941,0.147041 0.441129,-0.147041 q 0,0.0294 0.02941,0.0294 -0.381024,0.558766 -1.05742,0.558766 -1.970372,-0.117636 -2.470316,-1.205752 0,-0.05882 -0.882256,-1.882145 1.029297,-0.76462 1.029297,-0.882255 0.05882,-0.352902 0.264677,-0.352902 v -0.05879 h -0.08821 q 0,-0.117635 0.264677,-0.411719 l -0.02941,-0.117636 q 0.02941,0 0.264681,-0.176452 l -0.0294,-0.05882 q 0.470538,-0.411719 0.470538,-0.558761 0.147042,0 0.147042,-0.05882 0,-0.05882 0.117637,-0.205857 -0.05882,-0.05882 -0.05882,-0.08821 0.205858,-0.176452 0.294084,-0.294083 h 0.147044 l -0.02941,-0.11764 0.05881,-0.02941 q 0,0.05882 0.05882,0.05882 l -0.02941,-0.205859 0.17645,-0.147043 0.02941,0.08821 0.117637,-0.117634 0.05882,0.02941 q 0.117635,-0.05882 0.205861,-0.05882 0,-0.05882 -0.02941,-0.08821 l 0.05881,-0.02941 q 0.08821,0.17645 0.117637,0.17645 l 0.02941,-0.05882 -0.05881,-0.08821 0.02941,-0.117633 0.176452,0.02941 0.08821,-0.02941 q 0,0.05882 0.05881,0.05882 0.02941,-0.117636 0.08821,-0.117636 l 0.08821,0.05882 -0.0294,-0.147041 q 0.05881,-0.0294 0.294087,-0.05882 v -0.02941 h -0.05882 v -0.0294 q 0.882225,-0.646994 0.999859,-0.646994 0.558763,-0.205859 0.882257,-0.352902 h 0.02934 v 0.05882 q -0.176445,0.176451 -1.029299,0.617578 -0.05881,0.08821 -0.147042,0.147046 v 0.05881 q 0.11764,0 0.235279,0.205859 0,-0.117632 0.05881,-0.117632 0.02934,0 0.117639,0.147041 -0.05881,0 -0.05881,0.05882 h 0.05881 q 0.382314,-0.235272 0.499944,-0.235272 l 0.02934,0.02941 q 0,-0.05882 0.08826,-0.08821 0.08823,-0.02941 0.117639,0 0,-0.147044 0.176446,-0.147044 v -0.147036 q -0.11764,0 -0.11764,-0.05882 0,-0.05882 0.08826,-0.05882 l 0.176445,0.117633 q 0.05881,-0.05881 0.05881,-0.117633 l -0.117638,0.02941 q 0,-0.147042 0.05881,-0.147042 0,0.05882 0.176444,0.147042 v -0.02941 q -0.05881,0 -0.11764,-0.235268 0.11764,0 0.176444,0.294085 h 0.05881 l 0.147043,-0.26468 h 0.147042 l -0.02934,0.147044 q 0.323493,0 0.44113,-0.117634 h 0.147043 l 0.02934,-0.117635 q -0.02934,0 -0.02934,-0.02941 l 0.147041,0.05882 q 0.176445,0 0.588173,-0.117637 0.08823,0 0.205846,0.05881 0,-0.08821 0.08826,-0.08821 l 0.11764,0.05882 q 0.02934,0 0.02934,-0.02941 -0.11764,0 -0.11764,-0.117633 h 0.147045 q 0.147043,0.147041 0.205849,0.147041 0,-0.05882 0.05881,-0.05882 l 0.05881,0.02941 q 0.02934,-0.117632 0.147043,-0.117632 v 0.08821 h 0.02934 q 0,-0.05882 0.02934,-0.05882 l 0.205848,0.02941 q 0.05881,-0.08821 0.05881,-0.264681 l -0.05881,0.0294 q 0,-0.0294 -0.02934,-0.08821 0,-0.08821 0.176444,-0.08821 0.117641,0.02941 0.117641,0.08821 l -0.02934,0.205858 0.02934,0.0294 q 0.05881,-0.264679 0.147043,-0.264679 h 0.294084 l 0.08823,-0.05882 q 0.205847,0.117636 0.205847,0.411719 l 0.05881,-0.02941 -0.02934,-0.05882 v -0.235283 q 0,-0.05882 0.08826,-0.05882 0.323494,0.147042 0.411717,0.147042 0.02934,-0.05882 0.05881,-0.05882 0.147041,0.117634 0.558764,0.235271 l 0.235308,-0.02941 q 0.558762,0.08821 1.323385,0.794028 l -0.05881,0.02941 -0.294086,-0.02941 q 0.323495,0.235268 0.470537,0.646987 l 0.05881,0.0294 0.02934,-0.0294 q -0.05881,-0.117671 -0.176445,-0.264714 h 0.117639 q -0.205828,-0.205922 -0.264663,-0.205922 v -0.0882 q 0.264684,0 0.499947,0.38231 0.176445,0 0.235307,0.264679 l -0.05881,0.02941 q 0.617582,0.794031 0.617582,1.058707 0.294084,0.735213 0.411718,1.999778 -0.08826,0 -0.205846,0.235269 -0.08823,0 -0.147044,-0.02941 0.02934,0.08821 0.08823,0.147042 l -0.147042,0.176451 0.05881,0.117634 q -0.02934,0.02941 -0.147043,0.02941 v 0.0294 q -0.08826,1.088115 -0.294084,1.088115 l 0.02934,0.05881 -0.147044,0.411719 q 0.02934,0 0.02934,0.02941 l -0.11764,0.02941 0.02934,0.05882 q 0,0.08821 -0.08823,0.08821 v 0.0294 q 0.11764,0 0.11764,0.08821 -0.05881,0 -0.05881,0.05882 0.08823,0 0.08823,0.05882 0,0.176451 -0.147042,0.352903 0.117639,0 0.117639,0.08821 -0.147042,0.441127 -0.23531,0.441127 l 0.02934,0.08821 q -0.08823,0 -0.176447,0.26468 -0.117639,0 -0.26468,0.323493 -0.235309,0.147042 -0.235309,0.205859 -0.117638,0.41172 -0.323493,0.41172 l 0.02934,0.05881 q 0,0.05882 -0.05881,0.05882 -0.02934,0 -0.294084,-0.205863 h -0.02934 q 0.294084,0.23527 0.294084,0.294086 -0.02934,0.117637 -0.08823,0.117637 -0.05881,0 -0.11764,-0.05882 -0.08823,0.147044 -0.117639,0.382313 -0.05881,0.08821 -0.11764,0.08821 l 0.02934,0.117632 -0.05881,0.0294 -0.20585,-0.147042 q 0.02934,0 0.117641,0.147042 v 0.05881 l -0.08823,0.147044 q 0.02934,0 0.08823,0.08821 -0.294086,0.05882 -0.294086,0.17645 l 0.147043,-0.02941 q 0,0.02941 -0.264682,0.264676 l -0.147042,-0.0294 0.02934,0.17645 q 0.646989,0.235271 0.646989,0.294084 L 43.22074,30.800067 v 0.05882 h -0.05881 v -0.08821 h -0.147042 q 0.02934,0.05881 0.05881,0.05881 l -0.02934,0.147043 h -0.02934 q 0,0.117632 0.117639,0.147041 l 0.176445,-0.02938 q 0.02934,-0.05882 0.05881,-0.05882 0.02934,0.0294 0.02934,0.08821 0,0.05882 -0.05881,0.08821 h 0.08823 q 0.117639,-0.08821 0.205846,-0.08821 0,0.02941 0.02934,0.02941 l -0.02934,0.117632 0.11764,0.205861 q -0.11764,0 -0.794027,-0.382311 h -0.08826 l 0.02934,0.117636 -0.02934,0.02941 -0.08826,-0.02941 q 0,0.05882 0.411719,0.147043 0.02934,0.05882 0.05881,0.05882 l 0.147043,-0.0294 q 0.05881,0.05882 0.05881,0.147042 0.08823,-0.05882 0.147042,-0.05882 l 0.235308,0.05882 q 0,-0.05882 0.08826,-0.05882 l -0.08826,-0.117634 v -0.02941 h 0.08826 q 0.02934,0 0.117639,0.117634 v 0.08821 l 0.11764,0.0294 q 0,-0.05882 0.05881,-0.05882 0.05881,0 0.05881,0.08821 h 0.02934 q 0.02934,-0.235271 0.11764,-0.235271 l 0.02934,0.08821 -0.147043,0.26468 0.352907,-0.02941 q 0.147043,0.05882 0.147043,0.117634 0,0.05882 -0.05881,0.05882 l -0.08826,-0.02941 v 0.02941 q 0.176445,0.176453 0.529355,0.352903 l 0.05881,0.08821 q 0.117638,0 0.117638,-0.08821 h 0.05881 v 0.147043 q 0,0.02941 0.558762,0.646988 v 0.117633 l -0.02934,0.05882 0.147042,-0.02941 q 0.02934,0 0.02934,0.323494 h 0.02934 q 0,-0.264679 0.05881,-0.264679 0.05881,0.05881 0.05881,0.147042 0.02934,0.08821 -0.02934,0.147042 l 0.02934,0.08821 q -0.02934,0 -0.02934,0.02941 0.08823,0 0.08823,0.147043 l 0.147042,-0.02941 0.02934,0.05881 q 0,0.08821 -0.08823,0.08821 v 0.02941 q 0.117639,0 0.117639,0.05881 0,0.08821 -0.02934,0.08821 0.05881,0.117635 0.11764,0.117635 0.205848,0 0.205848,-0.05881 l -0.02934,-0.08821 q 0.02934,-0.02941 0.11764,0 0.08823,0.0294 0.08823,0.176449 0,0.117633 -0.264682,0.147042 v 0.02941 q 0.323492,0 0.323492,0.147042 0.02934,0.147042 0.147043,0.264679 -0.02934,0.117637 -0.294084,0.323494 h 0.02934 q 0.205847,-0.117627 0.294083,-0.117627 0,0.02941 0.02934,0.02941 -0.05881,0.20586 -0.05881,0.352903 0,0.05882 0.05881,0.05882 l -0.02934,0.411719 q 0.147043,0 0.147043,0.382311 -0.02934,0.3529 -0.08823,0.3529 l -0.176473,-0.117637 q -0.02934,0.205848 -0.176445,0.352902 l 0.05881,0.0294 q 0.05881,-0.05881 0.05881,-0.147042 l 0.08826,0.0294 q 0,-0.176447 0.05881,-0.176447 0.08826,0.117641 0.08826,0.176447 l -0.02934,0.0882 q 0.05881,0 0.05881,0.0882 0,0.05881 -0.05881,0.05881 -0.05881,0 -0.08826,-0.02934 0,0.235278 0.05881,0.411715 -0.147042,0.294083 -0.235308,0.882254 -0.11764,0.235279 -0.176445,0.55876 -0.05881,0 -0.294085,0.147042 h -0.08823 q 0,0.147043 -0.176445,0.264683 0.05881,0 0.05881,0.117639 h -0.176444 q -0.352908,0.970484 -0.617576,0.970484 l 0.02934,0.08826 -0.294084,0.382315 0.02934,0.05881 q 0,0.05881 -0.176445,0.05881 l 0.02934,0.05881 q 0,0.08823 -0.176446,0.08823 v 0.02934 q 0.147044,0 0.147044,0.05881 0,0.05881 -0.11764,0.05881 0.08826,0.05881 0.08826,0.11764 -0.176445,0.323492 -0.294086,0.323492 L 44.6615,41.59295 44.57327,41.739992 h 0.117638 v -0.08826 q 0.147045,0 0.147045,0.117641 -0.294085,0.529359 -0.499945,0.558767 l 0.05881,0.08826 q -0.264681,0.02934 -0.264681,0.205847 -0.117641,0 -0.529355,0.323493 l -0.235309,0.05881 q 0,-0.02934 -0.02934,-0.02934 0,0.235312 -0.41172,0.41172 0,-0.02935 -0.02934,-0.02935 0,0.117641 -0.05881,0.117641 -0.02934,0 -0.294084,-0.352912 v 0.02934 q 0.205846,0.294085 0.205846,0.382322 0,0.05881 -0.08823,0.08826 -0.117641,0 -0.117641,-0.08826 -0.264681,0.147043 -0.264681,0.382317 l -0.11764,-0.02934 q 0,0.117638 -0.05881,0.117638 l -0.05881,-0.02934 q 0,0.117639 -0.05881,0.117639 -0.176446,-0.176445 -0.176446,-0.264681 -0.02934,0 -0.02934,0.02934 0.05881,0.08823 0.05881,0.235309 -0.176447,0.08826 -0.176447,0.147041 l 0.02935,0.117639 -0.147042,-0.02934 q -0.205847,0 -0.235309,0.08826 l 0.05881,0.02934 0.08826,-0.02934 v 0.02934 q -0.235284,0.176459 -0.470508,0.176459 l -0.02935,-0.08826 h -0.02934 q -0.02935,0.205848 -0.264684,0.205848 -0.08823,0 -0.08823,-0.147042 -0.235308,0.147042 -0.352908,0.147042 0,-0.05881 0.08826,-0.05881 v -0.02934 q -0.05881,0 -0.176444,-0.08826 h -0.02934 l 0.05881,0.08826 q -0.02934,0 -0.08823,0.08826 0.02934,0 0.02934,0.02934 l -0.05881,0.02934 q 0,-0.02934 -0.02934,-0.02934 0,0.08826 -0.05881,0.08826 h -0.11764 q -0.05881,0 -0.05881,-0.08826 -0.05881,0 -0.05881,0.08826 l 0.02934,0.08826 q -0.08823,0 -0.147043,-0.05881 0,0.117639 -0.05881,0.117639 l -0.02934,-0.08826 h -0.08823 q 0,0.205849 -0.441131,0.205849 -0.05881,-0.176446 -0.264682,-0.176446 l 0.05881,0.08823 q -0.352908,0.05881 -0.441129,0.117639 l -0.294086,-0.02934 z m 2.999668,-25.850085 h -0.08823 q 0,-0.117635 0.05881,-0.117635 z m 0.205848,0 -0.02934,-0.05882 q 0,-0.05882 0.05881,-0.05882 l 0.02934,0.05882 q 0,0.05882 -0.05881,0.05882 z m -1.646872,0.05882 q -0.05881,0 -0.05881,-0.05882 l 0.08826,-0.05882 0.02934,0.05882 q 0,0.05882 -0.05881,0.05882 z m 0.823432,0.05882 h -0.117639 q 0.02934,-0.117634 0.205847,-0.117634 0.08826,0 0.08826,0.05882 -0.117641,0.05882 -0.176444,0.05882 z m 1.146933,0 q -0.08826,0 -0.08826,-0.05882 0.02934,-0.05882 0.05881,-0.05882 z m -3.117305,0.147042 q -0.05881,0 -0.05881,-0.05882 l -0.05881,0.02941 q -0.05881,0 -0.05881,-0.176451 h 0.05881 q 0.05881,0 0.05881,0.08821 l 0.05881,-0.02941 q 0.05881,0 0.05881,0.05881 0,0.08821 -0.05881,0.08821 z m 1.441027,-0.02941 q -0.117641,0 -0.117641,-0.05881 l 0.147043,-0.08821 q 0.05881,0 0.05881,0.05882 0,0.0294 -0.08826,0.08821 z m 0.352922,-0.05881 h -0.08821 v -0.08823 h 0.02934 q 0.05881,0 0.05881,0.08821 z m -0.911663,0.205859 -0.05881,-0.08821 0.05881,-0.02941 h 0.117639 q 0.05881,0 0.05881,0.08821 z m -2.205641,0.05881 q 0,-0.147043 0.05881,-0.147043 h 0.05881 v 0.02941 q -0.05881,0.117641 -0.11764,0.117641 z M 36.956317,19.919 q -0.08823,0 -0.08823,-0.05882 l 0.235278,-0.147043 q 0,0.147043 -0.147044,0.205859 z m 1.235161,0.147046 h -0.08826 q 0,-0.05881 0.05881,-0.08821 h 0.02934 z m -0.411728,0.323485 h -0.147042 v -0.08821 q 0.205847,0 0.205847,-0.17645 l 0.147042,0.117635 q 0,-0.176454 0.05881,-0.176454 l 0.117641,0.08821 h 0.147042 q 0,0.08821 -0.147042,0.147042 l -0.08826,-0.02941 z m -0.11764,-0.205859 h -0.02934 q 0,-0.05882 0.05881,-0.08821 h 0.02934 q 0,0.08821 -0.05881,0.08821 z m 1.999775,0.08821 v -0.02941 q 0.08823,-0.147043 0.117641,-0.147043 0.05881,0.02941 0.05881,0.05882 0,0.117634 -0.176445,0.117637 z m 0.235309,0.235269 q -0.05881,0 -0.05881,-0.08821 0,-0.117634 0.05881,-0.117634 0.05881,0.02941 0.05881,0.117634 0,0.08821 -0.05881,0.08821 z m 1.088112,0 q -0.02934,-0.02941 -0.02934,-0.08821 0,-0.08821 0.176445,-0.117634 h 0.176445 q 0.05881,0.02941 0.05881,0.08821 z m -3.411382,0.02941 -0.02934,-0.08821 h 0.02934 q 0.05881,0 0.05881,0.05882 z m 2.646769,0.382312 q -0.205848,0 -0.205848,-0.05882 0,-0.05882 0.08823,-0.08821 l 0.08826,0.05882 q 0,-0.05882 0.11764,-0.05882 0,-0.08821 -0.11764,-0.147041 l -0.05881,0.02941 q 0,-0.02941 -0.02934,-0.08821 0,-0.08821 0.176445,-0.08821 0.05881,0 0.05881,0.264678 l 0.147043,-0.05882 0.08826,0.0294 v 0.05882 q -0.08826,0 -0.352908,0.147041 z m 0.676394,-0.08821 q -0.05881,0 -0.05881,-0.05882 0,-0.117633 0.23531,-0.147041 0,-0.08821 0.382316,-0.147046 0.117642,0.0294 0.117642,0.08821 0,0.05882 -0.411722,0.176452 0,-0.02941 -0.02934,-0.02941 0,0.02941 -0.235311,0.117633 z m -0.852849,-0.176484 h -0.08826 q 0,-0.117638 0.05881,-0.117638 z M 35.780007,20.713 q -0.147043,0 -0.147043,-0.08821 l 0.294088,-0.02941 v 0.05882 q 0,0.05882 -0.147045,0.05882 z m 3.970147,0.411719 q -0.05881,0 -0.117639,-0.08821 0,-0.08821 0.205848,-0.117636 l -0.05881,-0.08821 0.05881,-0.02941 q 0.05881,0.05882 0.05881,0.117636 l 0.08826,-0.0294 v 0.05882 q -0.02934,0 -0.235308,0.17645 z m 4.028968,-0.147042 h -0.05881 v -0.02941 q 0.02934,-0.117639 0.08823,-0.117639 h 0.05881 v 0.02941 q -0.05881,0.117638 -0.08823,0.117639 z m 0.941072,1.088114 -0.02934,-0.05881 0.02934,-0.117633 q 0,-0.117636 -0.264681,-0.26468 -0.11764,-0.20586 -0.11764,-0.323494 -0.05881,0 -0.05881,0.08821 h -0.05881 l -0.294091,-0.176426 q 0,-0.08821 0.323492,-0.352902 h 0.05881 l 0.529353,0.529354 -0.11764,0.117635 0.08823,0.05882 0.08826,-0.02941 q 0.117639,0 0.264681,0.323493 -0.235307,0.20586 -0.441124,0.20586 z M 42.279252,21.0071 h -0.176447 v -0.05882 h 0.176447 z m 0.499938,0.02941 h -0.05881 q -0.05881,0 -0.05881,-0.08821 l 0.117639,0.02941 z m 1.146934,0.05882 -0.02934,-0.05882 q 0,-0.08821 0.05881,-0.08821 0.05881,0 0.05881,0.05882 0,0.02941 -0.08823,0.08821 z m -2.470316,-0.05882 h -0.08823 v -0.05882 h 0.08823 z m 1.91155,0.117636 q -0.441121,-0.08821 -0.441121,-0.147037 l 0.08823,-0.02941 0.352907,0.117633 z m 2.85263,0.176451 q -0.02934,0 -0.147042,-0.176451 v -0.02941 h 0.02934 q 0.11764,0.05882 0.11764,0.205858 z m -3.67606,0.02941 -0.176446,-0.02941 v -0.05881 l 0.176446,0.02941 z M 38.3091,21.565866 h -0.11764 q 0,-0.08821 0.08823,-0.08821 0.08826,0.02941 0.08826,0.05882 z m 5.087676,0.08822 -0.02934,-0.117635 h 0.08826 q 0,0.117635 -0.05881,0.117635 z m -4.499498,0.05882 q -0.11764,0 -0.11764,-0.05882 l 0.11764,-0.02941 q 0.05881,0.02941 0.05881,0.05882 z m 4.822987,0.117637 q -0.05881,-0.02941 -0.05881,-0.117637 h 0.05881 q 0.05881,0.02941 0.05881,0.05882 0,0.05881 -0.05881,0.05881 z m 0.235309,0.17645 q -0.05881,0 -0.08826,-0.117634 0,-0.05882 0.05881,-0.05882 0.08826,0.02941 0.08826,0.08821 0,0.08821 -0.05881,0.08821 z m 0.794031,0.382312 h -0.05881 q 0,-0.05882 -0.176444,-0.323494 v -0.05882 q 0.08826,0 0.235307,0.382308 z m 0.764621,0.294083 h -0.05881 q -0.05881,-0.235268 -0.05881,-0.323492 0.05881,-0.05882 0.05881,-0.323495 0.05881,0 0.147043,0.323495 l -0.117638,0.117637 z m -0.382331,-0.08822 q -0.117638,0 -0.264682,-0.38231 l 0.05881,-0.02941 q 0.205849,0.294089 0.205849,0.411718 z m -11.439914,-0.02941 -0.02941,-0.05882 0.08821,-0.05882 0.02941,0.05882 z m 10.851739,0.26468 h -0.05881 l -0.02934,-0.176452 h 0.05881 z m 0.264682,1.499834 q -0.02934,-0.02941 -0.117639,-0.02941 0,-0.08821 0.05881,-0.176451 -0.08823,-0.117634 -0.08823,-0.352901 l 0.02934,-0.176451 h 0.08823 l 0.02934,0.205858 0.11764,-0.02941 q 0,0.08821 -0.08823,0.176452 0.02934,0 0.02934,0.02941 l -0.05881,0.02941 q 0,-0.02941 -0.02934,-0.02941 v 0.05882 q 0.08823,0 0.147043,0.117633 -0.05881,0 -0.11764,0.176451 z m 1.94096,0.41172 q -0.117641,0 -0.117641,-0.05882 0,-0.205859 0.23531,-0.441129 h 0.02934 q 0,0.499946 -0.147043,0.499946 z m -1.764509,-0.235271 q -0.08823,0 -0.147042,-0.08821 0.05881,-0.117635 0.08826,-0.117635 l 0.05881,0.08821 q 0,0.02941 -0.02934,0.02941 z m -9.204884,0.176451 q -0.117634,0 -0.117634,-0.08821 h 0.05881 q 0.05882,0.02941 0.05882,0.08821 z m 10.969377,0.294085 q -0.205847,0 -0.235307,-0.08821 0,-0.05882 0.117639,-0.117634 0.05881,0 0.11764,0.08821 z m -0.264681,0.676397 -0.02934,-0.08821 0.05881,-0.323495 -0.02934,-0.23527 h 0.05881 q 0.117639,0 0.117639,0.147044 -0.05881,0.441127 -0.176445,0.499945 z m -0.382333,1.323387 h -0.05881 l 0.02934,-0.117635 -0.02934,-0.294084 q 0,-0.08821 0.147041,-0.38231 l 0.08826,0.02941 v -0.08821 q -0.08826,0 -0.08826,-0.117635 0.08826,0 0.147046,-0.20586 0.117638,-0.05882 0.205846,-0.05882 l 0.02934,0.08821 -0.05881,0.147044 h -0.05881 q -0.05881,-0.05882 -0.117639,-0.05882 0.05881,0.08821 0.05881,0.176453 -0.117638,0.235266 -0.205849,0.676395 -0.05881,0 -0.08823,0.20586 z M 35.309431,26.741777 q -0.176451,0 -0.235268,-0.176451 0.08821,-0.294085 0.17645,-0.294085 0.05881,0 0.05881,0.08821 l -0.05881,0.147042 q 0.205859,0 0.205859,0.05882 0,0.05882 -0.147041,0.176451 z m 8.146159,0.08821 q 0,-0.117635 0.147044,-0.176449 0.02934,0 0.08826,0.08821 0,0.05882 -0.235309,0.08821 z m -0.147042,0.205861 q 0,-0.08821 0.05881,-0.08821 l 0.02934,0.05882 z m 2.499723,0.147041 0.02934,-0.117632 q -0.117639,0 -0.117639,0.05881 v 0.05882 z m -3.764293,1.61747 h -0.05881 q 0,-0.147042 0.05881,-0.147042 0.05881,0 0.05881,0.05882 0,0.08821 -0.05881,0.08821 z m 2.382095,0.441128 q 0,-0.117635 0.11764,-0.147043 v -0.02941 h -0.08823 q -0.05881,0.08821 -0.05881,0.147043 0,0.02941 0.02934,0.02941 z m 0.05881,0.17645 q 0,-0.117633 0.05881,-0.117633 l 0.02934,0.05882 q -0.05881,0.05882 -0.08823,0.05882 z m -6.763979,1.382208 h -0.08819 v -0.05882 h 0.08819 z m 5.5288,0.205859 -0.11764,-0.02941 v -0.05881 h 0.05881 q 0.05881,0.0294 0.05881,0.08822 z m 1.088115,0.08821 q 0,-0.08821 0.117639,-0.17645 0.05881,0.02941 0.05881,0.05882 0,0.117636 -0.176445,0.117636 z m 0.147043,0.117635 q -0.05881,0 -0.05881,-0.117635 h 0.08826 q 0.05881,0.0294 0.05881,0.05882 -0.05881,0.05881 -0.08826,0.05882 z m 1.029297,0.470535 q -0.11764,0 -0.41172,-0.147043 l -0.11764,0.0294 q 0,-0.205858 -0.05881,-0.205858 l 0.02934,0.05882 -0.05881,0.02941 -0.05881,-0.08821 0.02934,-0.08821 q -0.205848,-0.05882 -0.205848,-0.117636 0.02934,-0.05882 0.05881,-0.05882 0.852848,0.352902 0.852848,0.499946 0,0.05882 -0.05881,0.08821 z m -1.764497,-0.441127 h -0.02934 q 0,-0.05882 0.05881,-0.08821 h 0.02934 q 0,0.08821 -0.05881,0.08821 z m 0.411721,0.264679 q -0.05881,0 -0.05881,-0.05882 l 0.08823,-0.05881 q 0.05881,0 0.05881,0.05881 z m 1.676287,0.41172 q -0.294086,-0.08821 -0.294086,-0.17645 0,-0.05882 0.08826,-0.08821 h 0.05881 q 0.147045,0.05882 0.205848,0.205858 0,0.05882 -0.05881,0.05882 z m -0.88225,-0.02941 q -0.08823,0 -0.08823,-0.05882 l 0.05881,-0.02941 z m 0.264683,0.235266 -0.147041,-0.17645 v -0.05882 h 0.05881 q 0.147041,0.08821 0.147041,0.205858 z m 0.470542,-0.05881 h -0.147043 v -0.05881 h 0.08826 q 0.05881,0 0.05881,0.05881 z m 0.411722,0.147043 q -0.11764,0 -0.11764,-0.05882 0.08826,-0.05881 0.176446,-0.05881 h 0.02934 q 0,0.05881 -0.08826,0.117638 z m 0.294084,0.235268 -0.235306,-0.235268 0.117637,-0.08821 h 0.05881 q 0,0.176451 0.11764,0.294085 z m -3.793681,-0.02941 q -0.176444,0 -0.205847,-0.117637 l 0.08826,-0.0294 q 0.02934,0 0.11764,0.117636 z m 3.117301,0.05882 q -0.117644,-0.02941 -0.17645,-0.147043 l 0.05881,-0.02941 q 0.176446,0.05882 0.176446,0.117635 0,0.05882 -0.05881,0.05882 z m -3.881929,-0.02941 q -0.08826,0 -0.08826,-0.05882 h 0.08826 z m 2.823223,0.05881 -0.02934,-0.05881 0.08826,-0.02941 q 0,0.08821 -0.05881,0.08821 z m 1.91155,0.117634 q -0.05881,0 -0.117639,-0.08821 0.02934,-0.05882 0.08823,-0.05882 0.05881,0 0.117641,0.08821 0,0.05882 -0.08826,0.05882 z m -1.558649,0 q -0.176446,0 -0.205848,-0.117634 h 0.147042 q 0.05881,0.02941 0.05881,0.117634 z m -1.176342,0.08823 q -0.08826,0 -0.08826,-0.05881 l 0.05881,-0.02941 z m 2.117409,0 h -0.08823 q 0,-0.05881 0.05881,-0.08821 h 0.02934 z m -1.117521,0.176453 q -0.08823,0 -0.08823,-0.08821 0,-0.08821 0.147043,-0.117635 l 0.02934,0.05882 q 0,0.147042 -0.08826,0.147042 z m 1.940962,0.05881 q -0.08826,-0.02941 -0.08826,-0.264676 h 0.05881 q 0.08826,0.02941 0.08826,0.205857 0,0.05881 -0.05881,0.05882 z M 42.89685,32.829315 q -0.117638,0 -0.117638,-0.05882 l 0.02934,-0.05881 q 0.147041,0.05881 0.147041,0.08821 z m 3.293754,0.205859 q -0.05881,0 -0.176444,-0.235271 v -0.05883 h 0.02934 q 0.05881,0 0.205849,0.235268 0,0.05881 -0.05881,0.05881 z M 43.13212,32.917545 q -0.08826,0 -0.08826,-0.08821 l 0.05881,-0.0294 z m -2.205639,0.02941 q -0.08826,0 -0.08826,-0.05882 l 0.05881,-0.05881 z m 3.38198,0.176449 q -0.264683,-0.08821 -0.264683,-0.117637 0,-0.08821 0.08826,-0.117637 l 0.235309,0.117637 v -0.05881 h 0.05881 v 0.08821 q 0,0.08821 -0.117641,0.08821 z m 0.411717,-0.08821 -0.02934,-0.05881 0.05881,-0.02941 0.02934,0.05881 z m -0.352907,0.117635 q 0,-0.05882 0.08823,-0.08821 l 0.02934,0.05881 z m 0.617578,0.411719 -0.441125,-0.294085 0.02934,-0.05882 h -0.08826 q 0,-0.05881 0.117638,-0.08821 0.05881,0 0.05881,0.05882 l -0.02934,0.08821 q 0.117641,0 0.205848,0.08821 l 0.02934,-0.176451 q -0.05881,0 -0.05881,-0.05882 0.02934,-0.05881 0.05881,-0.05881 h 0.02934 q 0.205846,0.08821 0.205846,0.147044 0,0.05882 -0.235307,0.176451 0.117639,0.02941 0.117639,0.08821 z m -4.381866,-0.176452 h -0.02935 q -0.08826,-0.14704 -0.264679,-0.14704 v -0.08821 q 0.176445,0 0.294086,0.17645 z m 6.381645,-0.08821 q -0.05881,0 -0.05881,-0.08821 0,-0.05882 0.05881,-0.05882 0.05881,0 0.05881,0.05882 0,0.08821 -0.05881,0.08821 z m -7.293316,0.470539 q -0.02934,0 -0.08826,-0.08821 l 0.117639,-0.117635 -0.05881,-0.147042 0.05881,-0.02941 0.05881,0.02941 q 0,-0.08821 0.05881,-0.08821 h 0.05881 l -0.02934,0.117638 q 0.05881,0 0.05881,0.05881 -0.176445,0.02941 -0.176445,0.23527 z m -2.76441,-0.26468 V 33.38811 h -0.02934 v 0.117635 z m 9.587176,-0.02941 q -0.05881,0 -0.05881,-0.05881 l 0.05881,-0.02941 q 0.05881,0 0.05881,0.05882 z m 0.705804,0.08821 q -0.08823,0 -0.08823,-0.08821 0,-0.08821 0.05881,-0.08821 l 0.05881,0.02941 q -0.02934,0.05882 -0.02934,0.147043 z m -6.969816,0 q -0.05881,0 -0.117641,-0.08821 v -0.02941 h 0.176445 q 0,0.117634 -0.05881,0.117634 z m -0.970483,0.147043 -0.08826,-0.147043 0.05881,-0.02941 0.08826,0.147043 z m 7.440354,0.02941 q -0.147042,0 -0.147042,-0.05881 l 0.147042,-0.02941 z m 0.558765,0.17645 q -0.05881,0 -0.05881,-0.05881 0.02934,-0.17645 0.08826,-0.17645 h 0.02934 l -0.02934,0.08821 0.02934,0.117638 z m -7.822667,-0.08821 q -0.05881,0 -0.05881,-0.08821 h 0.05881 z m 6.23461,0.38231 Q 45.45535,33.917481 45.45535,33.829257 l 0.05881,-0.02941 q 0.235306,0.147041 0.235306,0.38231 z m -0.02934,0.323494 q -0.08826,0 -0.352913,-0.3529 0.05881,0 0.05881,-0.05881 -0.117639,0 -0.235308,-0.205862 -0.02934,-0.08821 0.05881,-0.08821 h 0.02934 q 0.147045,0.176451 0.20585,0.176451 0.235307,0.294086 0.235307,0.529352 z m 0.999888,-0.411721 -0.08826,-0.08821 q 0.02934,-0.05882 0.08826,-0.05882 0.02934,0 0.08823,0.08821 z m 0.529351,0.02941 h -0.05881 v -0.08821 h 0.05881 z m -2.235048,0.02941 q -0.08826,0 -0.08826,-0.08821 h 0.02934 q 0.05881,0.02941 0.05881,0.08821 z m 0.235306,0.411721 q -0.05881,0 -0.05881,-0.08821 h 0.05881 z M 45.42611,35.38789 H 45.3673 v -0.17645 h 0.05881 z m -0.264681,0.352902 h -0.05881 v -0.147041 h 0.05881 z m 0.352907,0.08821 h -0.05881 v -0.117607 h 0.05881 z m 0.05881,0.441129 q -0.08826,0 -0.08826,-0.05882 V 35.94663 h 0.08826 z m -0.470535,0.235269 -0.02934,-0.05882 0.05881,-0.02941 h 0.02934 q 0,0.08821 -0.05881,0.08822 z m -0.02934,0.205849 -0.05881,-0.05881 0.117641,-0.0294 q 0,0.0882 -0.05881,0.08823 z m 0.08826,0.147042 H 45.0145 q 0,-0.0882 0.08823,-0.0882 h 0.05881 z m 0.264682,0.411724 h -0.05881 q 0.02934,-0.205851 0.08827,-0.205851 h 0.02934 q -0.05881,0.147044 -0.05881,0.205847 z m 1.823585,-0.117639 q 0,-0.08823 0.05881,-0.08823 l 0.02934,0.05881 z m -1.617476,0.323499 h -0.05881 v -0.176446 q 0,-0.05881 0.05881,-0.05881 h 0.02934 z m 0.294086,0.205848 h -0.05881 q 0,-0.235279 0.235307,-0.294085 0,-0.02934 0.08826,-0.08823 h 0.02934 q 0,0.264682 -0.264681,0.264682 z m -0.941072,-0.205848 h -0.05881 q 0,-0.117639 0.05881,-0.117639 z m -0.382338,1.17634 q -0.117639,-0.02934 -0.117639,-0.08823 l 0.117639,-0.05881 q 0,-0.323499 0.147043,-0.441125 h 0.05881 l -0.02934,0.176445 0.117641,-0.02934 v 0.05881 q -0.08826,0.117639 -0.205848,0.117639 0.08823,0.08823 0.08823,0.176445 -0.08823,0 -0.176445,0.08823 z m 0.147043,0.205848 q -0.05881,0 -0.117641,-0.08823 0,-0.05881 0.08823,-0.117639 0.05881,0.02934 0.05881,0.05881 z m -0.676398,0.911668 q -0.11764,0 -0.147043,-0.08823 v -0.176445 q 0,-0.05881 0.08826,-0.08826 l -0.02934,-0.05881 q 0.117639,-0.323497 0.205849,-0.352905 l 0.176443,0.02934 q 0.02934,0 0.02934,-0.02934 -0.08826,0 -0.08826,-0.08823 l 0.352909,-0.05881 q 0.05881,0.02934 0.05881,0.08823 l -0.205849,-0.02934 0.02934,0.05881 -0.02934,0.05881 q 0.02934,0.05881 0.02934,0.147041 -0.205847,0.11764 -0.264682,0.411725 z m 2.411202,-0.411711 q -0.117642,-0.02934 -0.117642,-0.117638 0,-0.11764 0.41172,-0.323498 v 0.02934 q -0.05881,0.235279 -0.294085,0.411721 z m -0.08826,0.176446 q -0.08823,0 -0.176445,-0.11764 l 0.08823,-0.05881 h 0.08826 q 0.05881,0 0.05881,0.08826 0,0.08826 -0.05881,0.08826 z m -0.382317,0.588173 -0.02934,-0.08823 q 0.176444,-0.23531 0.205848,-0.499945 0.08823,0 0.11764,0.08826 -0.176446,0.470535 -0.294085,0.499943 z m -0.941074,1.411609 v -0.02934 l 0.26468,-0.646982 q 0.08826,-0.02934 0.176446,-0.176447 l 0.05881,0.02934 q 0.05881,0 0.05881,-0.117637 -0.08826,0 -0.08826,-0.05881 0.264682,-0.323494 0.499945,-0.323494 l 0.02934,0.05881 q -0.11764,0.205848 -0.23531,0.205848 0,-0.08826 -0.05881,-0.08826 0,0.294085 -0.235307,0.470536 0,0.147043 -0.470537,0.676395 z m -2.676325,-0.646974 v -0.02934 q 0.05881,-0.117639 0.176445,-0.117639 l 0.05881,0.117639 z m -0.176447,0.176445 -0.02934,-0.05881 0.05881,-0.02934 h 0.02934 q 0,0.08826 -0.05881,0.08826 z m -1.999777,1.293972 q -0.08826,0 -0.08826,-0.05881 0,-0.05881 0.117639,-0.117638 0.05881,0.02934 0.05881,0.08823 0,0.02934 -0.08826,0.08826 z m 2.382083,1.08812 q 0,-0.05881 -0.08826,-0.05881 0,0.05881 0.08826,0.05881 z m -0.176446,0.294084 h -0.02934 q 0,-0.05881 0.05881,-0.08823 h 0.02934 q 0,0.08823 -0.05881,0.08823 z m -8.469651,0.676391 h -0.02941 l 0.02941,-0.176444 h 0.05882 q 0,0.176444 -0.05882,0.176444 z m 0.02941,0.205849 h -0.05881 v -0.08823 h 0.05881 z m 0.735213,0.235309 h -0.02941 q -0.147043,-0.08826 -0.205859,-0.08826 -0.147044,0.08826 -0.235269,0.08826 l -0.02941,-0.05881 V 44.68099 l 0.117637,0.05881 q 0,-0.05881 0.05881,-0.05881 l 0.02941,0.02934 0.147043,-0.11764 h 0.05882 v 0.08826 l 0.147043,-0.02934 q 0.05881,0.05881 0.05881,0.117641 h -0.117633 z m 0.735211,0.499946 -0.0294,-0.117639 0.05881,-0.11764 q -0.02941,0 -0.117634,-0.117641 l 0.05881,-0.02934 q 0.117632,0.05881 0.117632,0.235309 0,0.08823 -0.08821,0.147041 z M 35.044738,45.210343 Q 34.9271,45.181003 34.9271,45.122083 v -0.117639 h 0.02941 q 0.176451,0.117639 0.176451,0.147043 0,0.05881 -0.08822,0.05881 z m 1.205747,0.05881 -0.02941,-0.05881 q 0,-0.05881 0.05882,-0.05881 l 0.02941,0.05881 q 0,0.05881 -0.05881,0.05881 z"
       id="text1"
       style="font-size:29.0909px;font-family:'Dark SIlence';-inkscape-font-specification:'Dark SIlence';fill:#dfdfdf;stroke-width:0.459507;stroke-opacity:0.6;fill-opacity:1"
       aria-label="33" />
    <rect
       x="37.737823"
       y="37.757782"
       width="22.610399"
       height="22.610399"
       rx="4.7267799"
       ry="4.6148596"
       fill="url(#linearGradient862)"
       stroke-width="3.0541"
       id="rect35-7-3-1"
       style="fill:#414141;fill-opacity:1;stroke:#dfdfdf;stroke-width:0.978336;stroke-dasharray:none;stroke-opacity:1" />
    <path
       id="path1"
       style="fill:#dfdfdf;fill-opacity:1;stroke:none;stroke-width:0.224244;stroke-dasharray:none;stroke-dashoffset:2.2;stroke-opacity:0.6"
       d="m 53.054544,43.299438 c -0.231167,-9.7e-5 -0.478613,0.09299 -0.788298,0.274436 -0.736938,0.431788 -1.700715,0.635422 -3.024237,0.635422 -1.323397,0 -2.319324,-0.207971 -3.051873,-0.637265 -0.587409,-0.344229 -0.938101,-0.348791 -1.431082,-0.01642 -1.265645,0.852917 -2.219508,3.587517 -2.499329,7.160943 -0.167795,2.14283 -0.01103,3.27254 0.543328,3.908309 0.267381,0.306528 0.923785,0.254559 1.515809,-0.12156 0.501846,-0.318836 1.099794,-1.022374 1.814177,-2.134665 0.645548,-1.005122 1.426374,-1.336165 3.153173,-1.338993 1.723362,-0.0026 2.400625,0.323379 3.195531,1.545274 1.333668,2.050042 2.566393,2.763747 3.289465,1.90442 0.40058,-0.476052 0.473899,-0.936006 0.454923,-2.851106 -0.03457,-3.478896 -0.94394,-6.643709 -2.254366,-7.851617 -0.349004,-0.321703 -0.619985,-0.476908 -0.917221,-0.477033 z m -7.486939,2.049926 h 0.799346 0.79934 v 0.685152 0.685155 h 0.685156 0.685148 v 0.856441 0.856435 h -0.685148 -0.685156 v 0.742248 0.742251 h -0.723826 c -0.397652,0 -0.755645,-0.03568 -0.797503,-0.07735 -0.04185,-0.04185 -0.07732,-0.374141 -0.07732,-0.740403 v -0.666745 h -0.685161 -0.685156 v -0.856437 -0.856439 h 0.685156 0.685149 v -0.685157 z m 6.516311,0 c 0.721112,0 1.029934,0.798977 0.510182,1.318734 -0.330544,0.330508 -0.632217,0.356486 -0.957741,0.08106 -0.56463,-0.477772 -0.269928,-1.399771 0.447559,-1.399771 z m -1.386879,1.464237 c 0.180072,1.21e-4 0.361362,0.07187 0.50465,0.230203 0.223372,0.246825 0.247504,0.811915 0.04607,1.075615 -0.394228,0.516094 -1.340833,0.18413 -1.340833,-0.469659 0,-0.496196 0.39399,-0.836453 0.790134,-0.836178 z m 2.830855,0.02772 c 0.207551,0.0039 0.409039,0.07252 0.526752,0.202589 0.223372,0.246826 0.247471,0.811914 0.04604,1.075617 -0.419316,0.548931 -1.340835,0.181519 -1.340835,-0.534125 0,-0.216927 0.08692,-0.452038 0.2081,-0.56175 0.138541,-0.125395 0.35239,-0.186127 0.559914,-0.182325 z m -1.394247,1.477124 c 0.639304,0 0.95037,0.678118 0.563588,1.230325 -0.132224,0.188768 -0.293477,0.254171 -0.626215,0.254171 -0.383084,0 -0.471983,-0.04986 -0.626209,-0.348115 -0.30411,-0.588069 0.02772,-1.136394 0.688836,-1.136394 z" />
  </g>
</svg>
