<?xml version="1.0" encoding="UTF-8" standalone="no"?>
<svg
   width="64"
   height="64"
   version="1.1"
   id="svg73"
   sodipodi:docname="system-software-installer.svg"
   inkscape:version="1.4.2 (ebf0e940d0, 2025-05-08)"
   xmlns:inkscape="http://www.inkscape.org/namespaces/inkscape"
   xmlns:sodipodi="http://sodipodi.sourceforge.net/DTD/sodipodi-0.dtd"
   xmlns="http://www.w3.org/2000/svg"
   xmlns:svg="http://www.w3.org/2000/svg"
   xmlns:rdf="http://www.w3.org/1999/02/22-rdf-syntax-ns#"
   xmlns:cc="http://creativecommons.org/ns#"
   xmlns:dc="http://purl.org/dc/elements/1.1/">
  <metadata
     id="metadata77">
    <rdf:RDF>
      <cc:Work
         rdf:about="">
        <dc:format>image/svg+xml</dc:format>
        <dc:type
           rdf:resource="http://purl.org/dc/dcmitype/StillImage" />
      </cc:Work>
    </rdf:RDF>
  </metadata>
  <sodipodi:namedview
     pagecolor="#f5f7fa"
     bordercolor="#666666"
     borderopacity="1"
     objecttolerance="10"
     gridtolerance="10"
     guidetolerance="10"
     inkscape:pageopacity="0"
     inkscape:pageshadow="2"
     inkscape:window-width="1377"
     inkscape:window-height="886"
     id="namedview75"
     showgrid="false"
     inkscape:zoom="6.2890624"
     inkscape:cx="47.622361"
     inkscape:cy="45.396274"
     inkscape:window-x="147"
     inkscape:window-y="75"
     inkscape:window-maximized="0"
     inkscape:current-layer="g877"
     inkscape:document-rotation="0"
     inkscape:pagecheckerboard="0"
     inkscape:showpageshadow="2"
     inkscape:deskcolor="#d1d1d1" />
  <defs
     id="defs29">
    <linearGradient
       id="b"
       x1="399.57"
       x2="399.57"
       y1="545.8"
       y2="517.8"
       gradientTransform="matrix(2.1429,0,0,2.1429,-825.86391,-1107.6662)"
       gradientUnits="userSpaceOnUse">
      <stop
         stop-color="#3889e9"
         offset="0"
         id="stop2" />
      <stop
         stop-color="#5ea5fb"
         offset="1"
         id="stop4" />
    </linearGradient>
  </defs>
  <circle
     cx="32.516094"
     cy="31.877844"
     r="0"
     fill="url(#b)"
     stroke-width="1.5715"
     id="circle41"
     style="fill:url(#b)" />
  <g
     aria-label="GZ"
     transform="matrix(1.2212657,0,0,0.81882264,0.4960938,-0.1661539)"
     id="text93"
     style="font-weight:bold;font-size:11.5263px;line-height:1.25;font-family:sans-serif;-inkscape-font-specification:'sans-serif Bold';fill:#f2f2f2;stroke-width:0.288159" />
  <g
     id="g877"
     transform="matrix(1.1,0,0,1.1,-3.1845928,-3.2065454)">
    <rect
       x="8.3496294"
       y="8.369586"
       width="47.272728"
       height="47.272728"
       rx="9.8825235"
       ry="9.6485243"
       fill="url(#linearGradient862)"
       stroke-width="3.0541"
       id="rect35-7-3"
       style="fill:#414141;fill-opacity:1;stroke:#dfdfdf;stroke-width:2.04545;stroke-dasharray:none;stroke-opacity:1" />
    <path
       style="fill:#dfdfdf;fill-opacity:1;stroke-width:0.0587846"
       d="M 30.886276,46.747437 C 24.388908,42.820783 21.810422,40.40937 20.436777,36.97501 c -0.423364,-1.058484 -0.875518,-2.843408 -1.012601,-3.997349 -0.0192,-0.161656 -0.05969,-0.465868 -0.08998,-0.67602 -0.223375,-1.549837 -0.352564,-4.637463 -0.368127,-8.798189 l -0.0116,-3.103496 0.587845,-0.167659 c 0.323309,-0.0922 0.70688,-0.202669 0.85237,-0.245457 0.682696,-0.200782 4.933778,-1.438908 6.260561,-1.823392 1.032286,-0.299141 3.149021,-0.914924 4.421917,-1.286388 1.004235,-0.293064 0.808684,-0.298041 1.98561,0.05052 0.661485,0.195917 2.482139,0.725677 3.644646,1.060502 0.48497,0.139681 1.212434,0.352112 1.616576,0.472067 0.404139,0.119954 0.814171,0.238562 0.911164,0.263569 0.09697,0.02496 0.40782,0.114304 0.690725,0.198419 0.844588,0.25114 1.493461,0.441287 2.424863,0.710596 0.484972,0.140228 1.278563,0.370261 1.763539,0.511187 l 0.881775,0.256233 0.01885,1.556586 c 0.0203,1.6927 -0.08096,6.407366 -0.165861,7.728973 -0.254475,3.95806 -0.758125,6.290382 -1.797118,8.321603 -1.035804,2.024982 -2.509346,3.616132 -5.207918,5.623587 -1.338331,0.995572 -5.639056,3.719589 -5.872557,3.719589 -0.0479,0 -0.536119,-0.271382 -1.084956,-0.603067 z m 1.767486,-1.815872 c 0.321946,-0.198802 0.823436,-0.5082 1.114421,-0.687525 2.147107,-1.32319 3.975025,-2.67601 5.17305,-3.828526 1.602902,-1.542013 2.373819,-2.640834 3.011778,-4.292876 0.447033,-1.15762 0.852263,-3.094063 0.9841,-4.702774 0.02002,-0.242503 0.06118,-0.678958 0.09183,-0.96994 0.106557,-1.012034 0.232987,-4.612535 0.232987,-6.633186 0,-1.87671 -0.0075,-2.037596 -0.1029,-2.087701 -0.05658,-0.02983 -0.38063,-0.13444 -0.720124,-0.232388 -1.828383,-0.527585 -3.930659,-1.139656 -4.996649,-1.454787 -0.404161,-0.119471 -0.814182,-0.23708 -0.911175,-0.26135 -0.09699,-0.02426 -0.507021,-0.141877 -0.911164,-0.26135 -0.404154,-0.119473 -1.039029,-0.30558 -1.410839,-0.413573 -0.371811,-0.10799 -0.999156,-0.291295 -1.394089,-0.407343 -0.394933,-0.116046 -0.772815,-0.210993 -0.839726,-0.210993 -0.06691,0 -0.444796,0.09495 -0.839731,0.210989 -0.394935,0.116045 -1.02227,0.29943 -1.39409,0.407525 -0.371812,0.108089 -0.914097,0.266479 -1.205081,0.351979 -0.290984,0.08549 -0.92586,0.270627 -1.410829,0.411402 -0.484972,0.14078 -1.11985,0.325671 -1.410829,0.410873 -0.290988,0.0852 -1.031674,0.300524 -1.645975,0.478499 -0.614298,0.177975 -1.434343,0.41659 -1.822323,0.530252 -0.387977,0.113668 -0.850699,0.246551 -1.028269,0.295308 -0.609648,0.167386 -0.551019,-0.170704 -0.511561,2.949833 0.107262,8.483345 0.697883,11.508093 2.779387,14.23404 0.771252,1.010036 2.256083,2.385887 3.845314,3.563107 1.19959,0.888593 4.445735,2.956778 4.646473,2.960363 0.04985,0.0015 0.354077,-0.161106 0.676024,-0.359851 z M 31.328618,42.773207 C 28.124745,40.815882 25.711493,38.803445 24.619529,37.178426 23.201603,35.068334 22.70344,32.18159 22.58944,25.414464 l -0.03829,-2.272576 0.200327,-0.05837 c 0.110194,-0.03212 0.530995,-0.15528 0.935136,-0.27375 0.40415,-0.118475 1.237421,-0.361378 1.85172,-0.53978 0.614301,-0.178403 1.434344,-0.417457 1.822324,-0.531223 0.387981,-0.113771 0.824452,-0.241198 0.969943,-0.283174 0.374965,-0.108177 1.269443,-0.36702 1.616578,-0.467795 0.161636,-0.04693 0.598135,-0.175757 0.969949,-0.286289 0.37181,-0.11053 0.761985,-0.219586 0.867071,-0.242348 l 0.191051,-0.04139 V 31.76787 c 0,6.242562 -0.01977,11.349293 -0.04411,11.348294 -0.02422,-0.0015 -0.295395,-0.155335 -0.602542,-0.343 z"
       id="path1-1-0" />
    <rect
       x="37.737823"
       y="37.757782"
       width="22.610399"
       height="22.610399"
       rx="4.7267799"
       ry="4.6148596"
       fill="url(#linearGradient862)"
       stroke-width="3.0541"
       id="rect35-7-3-1"
       style="fill:#414141;fill-opacity:1;stroke:#dfdfdf;stroke-width:0.978336;stroke-dasharray:none;stroke-opacity:1" />
    <path
       id="path1"
       style="fill:#dfdfdf;fill-opacity:1;stroke:none;stroke-width:0.224244;stroke-dasharray:none;stroke-dashoffset:2.2;stroke-opacity:0.6"
       d="m 53.054544,43.299438 c -0.231167,-9.7e-5 -0.478613,0.09299 -0.788298,0.274436 -0.736938,0.431788 -1.700715,0.635422 -3.024237,0.635422 -1.323397,0 -2.319324,-0.207971 -3.051873,-0.637265 -0.587409,-0.344229 -0.938101,-0.348791 -1.431082,-0.01642 -1.265645,0.852917 -2.219508,3.587517 -2.499329,7.160943 -0.167795,2.14283 -0.01103,3.27254 0.543328,3.908309 0.267381,0.306528 0.923785,0.254559 1.515809,-0.12156 0.501846,-0.318836 1.099794,-1.022374 1.814177,-2.134665 0.645548,-1.005122 1.426374,-1.336165 3.153173,-1.338993 1.723362,-0.0026 2.400625,0.323379 3.195531,1.545274 1.333668,2.050042 2.566393,2.763747 3.289465,1.90442 0.40058,-0.476052 0.473899,-0.936006 0.454923,-2.851106 -0.03457,-3.478896 -0.94394,-6.643709 -2.254366,-7.851617 -0.349004,-0.321703 -0.619985,-0.476908 -0.917221,-0.477033 z m -7.486939,2.049926 h 0.799346 0.79934 v 0.685152 0.685155 h 0.685156 0.685148 v 0.856441 0.856435 h -0.685148 -0.685156 v 0.742248 0.742251 h -0.723826 c -0.397652,0 -0.755645,-0.03568 -0.797503,-0.07735 -0.04185,-0.04185 -0.07732,-0.374141 -0.07732,-0.740403 v -0.666745 h -0.685161 -0.685156 v -0.856437 -0.856439 h 0.685156 0.685149 v -0.685157 z m 6.516311,0 c 0.721112,0 1.029934,0.798977 0.510182,1.318734 -0.330544,0.330508 -0.632217,0.356486 -0.957741,0.08106 -0.56463,-0.477772 -0.269928,-1.399771 0.447559,-1.399771 z m -1.386879,1.464237 c 0.180072,1.21e-4 0.361362,0.07187 0.50465,0.230203 0.223372,0.246825 0.247504,0.811915 0.04607,1.075615 -0.394228,0.516094 -1.340833,0.18413 -1.340833,-0.469659 0,-0.496196 0.39399,-0.836453 0.790134,-0.836178 z m 2.830855,0.02772 c 0.207551,0.0039 0.409039,0.07252 0.526752,0.202589 0.223372,0.246826 0.247471,0.811914 0.04604,1.075617 -0.419316,0.548931 -1.340835,0.181519 -1.340835,-0.534125 0,-0.216927 0.08692,-0.452038 0.2081,-0.56175 0.138541,-0.125395 0.35239,-0.186127 0.559914,-0.182325 z m -1.394247,1.477124 c 0.639304,0 0.95037,0.678118 0.563588,1.230325 -0.132224,0.188768 -0.293477,0.254171 -0.626215,0.254171 -0.383084,0 -0.471983,-0.04986 -0.626209,-0.348115 -0.30411,-0.588069 0.02772,-1.136394 0.688836,-1.136394 z" />
  </g>
</svg>
