<?xml version="1.0" encoding="UTF-8" standalone="no"?>
<svg
   width="64"
   height="64"
   version="1.1"
   id="svg73"
   sodipodi:docname="steam_icon_368260.svg"
   inkscape:version="1.4.2 (ebf0e940d0, 2025-05-08)"
   xmlns:inkscape="http://www.inkscape.org/namespaces/inkscape"
   xmlns:sodipodi="http://sodipodi.sourceforge.net/DTD/sodipodi-0.dtd"
   xmlns="http://www.w3.org/2000/svg"
   xmlns:svg="http://www.w3.org/2000/svg"
   xmlns:rdf="http://www.w3.org/1999/02/22-rdf-syntax-ns#"
   xmlns:cc="http://creativecommons.org/ns#"
   xmlns:dc="http://purl.org/dc/elements/1.1/">
  <metadata
     id="metadata77">
    <rdf:RDF>
      <cc:Work
         rdf:about="">
        <dc:format>image/svg+xml</dc:format>
        <dc:type
           rdf:resource="http://purl.org/dc/dcmitype/StillImage" />
      </cc:Work>
    </rdf:RDF>
  </metadata>
  <sodipodi:namedview
     pagecolor="#f5f7fa"
     bordercolor="#666666"
     borderopacity="1"
     objecttolerance="10"
     gridtolerance="10"
     guidetolerance="10"
     inkscape:pageopacity="0"
     inkscape:pageshadow="2"
     inkscape:window-width="1377"
     inkscape:window-height="886"
     id="namedview75"
     showgrid="false"
     inkscape:zoom="6.2890624"
     inkscape:cx="47.622361"
     inkscape:cy="45.396274"
     inkscape:window-x="147"
     inkscape:window-y="75"
     inkscape:window-maximized="0"
     inkscape:current-layer="g877"
     inkscape:document-rotation="0"
     inkscape:pagecheckerboard="0"
     inkscape:showpageshadow="2"
     inkscape:deskcolor="#d1d1d1" />
  <defs
     id="defs29" />
  <circle
     cx="32.516094"
     cy="31.877844"
     r="0"
     fill="url(#b)"
     stroke-width="1.5715"
     id="circle41"
     style="fill:url(#b)" />
  <g
     aria-label="GZ"
     transform="matrix(1.2212657,0,0,0.81882264,0.4960938,-0.1661539)"
     id="text93"
     style="font-weight:bold;font-size:11.5263px;line-height:1.25;font-family:sans-serif;-inkscape-font-specification:'sans-serif Bold';fill:#f2f2f2;stroke-width:0.288159" />
  <g
     id="g877"
     transform="matrix(1.1,0,0,1.1,-3.1845928,-3.2065454)">
    <rect
       x="8.3496294"
       y="8.369586"
       width="47.272728"
       height="47.272728"
       rx="9.8825235"
       ry="9.6485243"
       fill="url(#linearGradient862)"
       stroke-width="3.0541"
       id="rect35-7-3"
       style="fill:#414141;fill-opacity:1;stroke:#dfdfdf;stroke-width:2.04545;stroke-dasharray:none;stroke-opacity:1" />
    <path
       style="fill:#dfdfdf;fill-opacity:1;stroke:none;stroke-width:0.463097;stroke-dasharray:none;stroke-opacity:0.6"
       d="m 25.906955,47.262513 c -1.316895,-0.471394 -1.964712,-1.302569 -1.981211,-2.541971 -0.008,-0.597768 0.04649,-0.821099 0.294045,-1.205668 0.167093,-0.259619 0.464375,-0.564843 0.66062,-0.67832 l 0.35681,-0.206345 -0.147095,0.501313 c -0.276998,0.944034 0.122263,1.609764 1.021013,1.702439 0.636744,0.0657 1.261198,-0.251906 1.511402,-0.768592 0.406048,-0.838524 0.05876,-1.964602 -1.010903,-3.277863 -0.546984,-0.671554 -0.839577,-1.218434 -0.96971,-1.812493 -0.0913,-0.416769 -0.08246,-1.754847 0.01467,-2.220829 0.14527,-0.696879 0.775615,-1.870713 1.316454,-2.451488 0.54286,-0.582937 0.675483,-1.031501 0.342728,-1.159195 -0.274788,-0.105441 -0.302275,-0.09217 -0.279176,0.134879 0.03814,0.375112 -0.0015,0.459943 -0.569874,1.221399 -0.593447,0.794946 -0.785186,1.158602 -1.023541,1.941278 -0.207391,0.681004 -0.220071,2.023383 -0.02514,2.666615 0.221927,0.73245 0.469752,1.280203 0.579224,1.280203 0.04907,0 0.08918,0.05552 0.08918,0.123352 0,0.0777 -0.163729,0.09454 -0.442499,0.04556 -1.190803,-0.209545 -2.182212,-0.985526 -2.69772,-2.111545 -0.258693,-0.565063 -0.299724,-0.796354 -0.258809,-1.458951 0.06764,-1.095404 0.520923,-1.962412 1.544568,-2.954307 1.109479,-1.075066 1.40523,-1.596682 1.359362,-2.397485 -0.03196,-0.557752 -0.06701,-0.632025 -0.315059,-0.66712 -0.431714,-0.06109 -0.59022,0.183423 -0.212105,0.327187 0.177913,0.06764 0.31393,0.210304 0.313554,0.328884 -10e-4,0.341447 -0.238464,1.094422 -0.34504,1.094422 -0.21815,0 -0.767716,-1.368105 -0.792708,-1.973388 -0.02132,-0.516894 0.05375,-0.774043 0.465136,-1.593003 0.437725,-0.871383 0.490601,-1.066977 0.490746,-1.815279 2.03e-4,-0.716898 -0.04681,-0.909645 -0.323329,-1.327499 -0.177919,-0.268857 -0.365826,-0.48883 -0.417566,-0.48883 -0.05174,0 -0.21029,0.108269 -0.352324,0.240599 -0.260327,0.24253 -0.359168,0.821403 -0.140248,0.821403 0.06488,0 0.118003,-0.0469 0.118003,-0.104234 0,-0.05734 0.119476,-0.14007 0.265498,-0.183875 0.251359,-0.0754 0.253345,-0.08447 0.03733,-0.170405 -0.166378,-0.06618 -0.18822,-0.115461 -0.08065,-0.181941 0.173781,-0.107402 0.165989,-0.114389 0.411813,0.369098 0.319345,0.628096 0.251349,1.620912 -0.172146,2.51336 l -0.363973,0.766997 -0.223086,-0.412999 c -0.50416,-0.933341 -0.723368,-1.905794 -0.771389,-3.422005 -0.04083,-1.28964 -0.01,-1.612008 0.245332,-2.565281 0.429782,-1.60448 0.986739,-2.623011 2.050379,-3.749629 0.859551,-0.91044 1.536336,-1.420675 2.560249,-1.930189 5.240505,-2.607754 11.452875,0.424275 12.662498,6.1801 0.04095,0.194699 0.07458,1.0443 0.0748,1.888 3.84e-4,1.368513 -0.03584,1.644705 -0.336029,2.560203 -0.496361,1.514252 -0.547197,1.552309 -0.966989,0.723822 -0.28744,-0.567265 -0.348616,-0.833007 -0.348616,-1.514026 0,-0.855848 0.289105,-1.565513 0.567597,-1.393382 0.09012,0.05571 0.08627,0.09374 -0.01315,0.126822 -0.20617,0.06871 -0.173381,0.22485 0.06479,0.308873 0.113532,0.04006 0.272916,0.103782 0.354007,0.141596 0.255907,0.119275 0.161107,-0.270674 -0.157981,-0.649853 -0.168003,-0.199682 -0.349534,-0.363055 -0.403386,-0.363055 -0.168851,0 -0.571187,0.751448 -0.693302,1.294924 -0.157747,0.702034 -8.15e-4,1.454279 0.530676,2.544291 0.384859,0.789247 0.424733,0.956141 0.365538,1.52971 -0.06219,0.602961 -0.597857,1.829073 -0.799026,1.829073 -0.0481,0 -0.151434,-0.266628 -0.229607,-0.592505 -0.151814,-0.632964 -0.04556,-0.941497 0.324462,-0.941497 0.140739,0 0.148133,-0.03486 0.03586,-0.169982 -0.145297,-0.175055 -0.470057,-0.121724 -0.623505,0.102375 -0.130569,0.190617 -0.1076,0.748571 0.05307,1.292916 0.104884,0.355302 0.407876,0.747706 1.128673,1.461715 0.682466,0.676032 1.081047,1.183799 1.296776,1.651999 0.356967,0.774766 0.471746,1.848391 0.275487,2.577159 -0.279578,1.038265 -1.306703,2.024948 -2.455651,2.358958 -0.798344,0.23209 -0.942533,0.182703 -0.629322,-0.215404 0.365436,-0.464576 0.592284,-1.33851 0.590473,-2.27469 -0.0023,-1.443649 -0.402454,-2.572287 -1.289781,-3.641379 -0.313901,-0.378186 -0.475876,-0.689474 -0.475876,-0.914502 0,-0.365088 -0.102753,-0.427165 -0.3304,-0.199547 -0.240056,0.240101 -0.161909,0.450094 0.400225,1.075355 1.254674,1.395507 1.755358,3.305697 1.283193,4.895646 -0.109323,0.368374 -0.466706,0.988618 -0.903298,1.568027 -0.397268,0.527217 -0.838842,1.245296 -0.981273,1.595735 -0.481213,1.184001 -0.05237,2.284579 0.964829,2.475997 1.14624,0.215667 1.961156,-0.728716 1.526483,-1.76904 l -0.177618,-0.425117 0.337544,0.17458 c 0.980904,0.507245 1.320197,1.896994 0.75428,3.089564 -0.451945,0.952393 -1.96902,1.658078 -3.269376,1.520766 -1.433086,-0.151353 -2.535538,-0.890363 -3.144675,-2.108 -0.34196,-0.683555 -0.363899,-0.805371 -0.343975,-1.910127 0.01167,-0.648996 0.121622,-1.65789 0.244264,-2.241994 0.385023,-1.83372 0.409875,-1.995026 0.378637,-2.45771 -0.01672,-0.248456 -0.09238,-0.639234 -0.168022,-0.868406 -0.147958,-0.448242 -0.828448,-1.172163 -1.262416,-1.34299 -0.672312,-0.264648 -1.755418,0.829729 -1.900104,1.919877 -0.08761,0.660189 -0.0759,0.756602 0.321926,2.64974 0.306418,1.458146 0.335012,3.176381 0.06599,3.965891 -0.597937,1.754838 -3.033807,2.884751 -4.831604,2.241215 z m 3.601463,-12.71798 c 0,-0.0337 -0.135735,-0.276366 -0.301637,-0.539173 -0.641571,-1.016315 -0.500975,-1.541519 0.96853,-3.61798 0.166222,-0.234872 0.167094,-0.265494 0.0075,-0.265494 -0.210422,0 -0.881932,0.898682 -1.325332,1.773686 -0.216926,0.428095 -0.299686,0.756888 -0.276843,1.099964 0.03791,0.569529 0.533953,1.610347 0.767466,1.610347 0.08814,0 0.160253,-0.02761 0.160253,-0.06134 z m 5.599237,-0.538989 c 0.425551,-0.78188 0.431733,-1.3358 0.0237,-2.122288 -0.570942,-1.100465 -1.374928,-2.071347 -1.374928,-1.660345 0,0.05556 0.178066,0.334345 0.395697,0.619504 1.029926,1.34947 1.190126,2.068682 0.681961,3.061564 -0.451343,0.881849 -0.201567,0.974573 0.273578,0.101556 z M 28.97576,30.507408 c 0.333162,-0.244528 0.735964,-0.929559 0.616708,-1.048808 -0.04543,-0.04543 -0.175849,-0.0024 -0.289825,0.0954 -0.113973,0.09791 -0.313421,0.218328 -0.443221,0.267608 -0.233246,0.08856 -0.233287,0.09062 -0.0044,0.175777 0.220132,0.08193 0.217212,0.09527 -0.059,0.27005 -0.159819,0.101125 -0.410058,0.219523 -0.556084,0.263103 -0.146024,0.04358 -0.265503,0.135401 -0.265503,0.204041 0,0.176178 0.653913,0.02785 1.001341,-0.227178 z m 6.914056,0.142529 c -0.0043,-0.06327 -0.161167,-0.154665 -0.348011,-0.203083 -0.339604,-0.088 -0.819886,-0.497613 -0.492613,-0.420131 0.084,0.0199 0.17706,-0.03019 0.206808,-0.11134 0.03022,-0.08251 -0.03713,-0.147492 -0.152961,-0.147492 -0.113871,0 -0.304479,-0.08818 -0.423558,-0.195939 -0.322085,-0.291484 -0.411991,-0.08696 -0.16412,0.373319 0.289257,0.537109 1.403567,1.108409 1.374455,0.704666 z m -5.938895,-1.361734 c 0.27582,0.0055 0.501499,-0.01239 0.501499,-0.03969 0,-0.02729 -0.225682,-0.160654 -0.501499,-0.296403 -0.276872,-0.136263 -0.653933,-0.463188 -0.841814,-0.729873 -0.442893,-0.628671 -0.953375,-0.931369 -1.571634,-0.931916 -0.494259,-5.21e-4 -1.097051,0.196676 -1.097051,0.358741 0,0.188963 0.597739,0.196167 0.707386,0.0086 0.08451,-0.144624 0.112302,-0.08564 0.115026,0.244114 0.0084,1.013485 0.57461,1.525198 1.584692,1.432085 0.331045,-0.03048 0.827569,-0.05102 1.103395,-0.04558 z m 6.261775,-0.144562 c 0.26104,-0.211098 0.493715,-0.759397 0.493715,-1.163497 0,-0.268152 0.03728,-0.346146 0.124081,-0.259386 0.142259,0.142227 0.701928,0.06764 0.701928,-0.09355 0,-0.281842 -1.134642,-0.439425 -1.67381,-0.232455 -0.294106,0.112901 -0.871729,0.642281 -1.157845,1.061154 -0.09718,0.142259 -0.375948,0.346571 -0.619502,0.454025 -0.544351,0.240169 -0.578623,0.437325 -0.05933,0.341321 0.210922,-0.039 0.542797,-0.02173 0.7375,0.03831 0.402155,0.124087 1.221042,0.04185 1.453281,-0.145941 z M 32.769282,28.52934 c 0.218514,-0.143169 0.268308,-0.235487 0.176541,-0.327253 -0.09177,-0.09177 -0.195611,-0.06649 -0.368136,0.08964 -0.299233,0.2708 -0.871936,0.281084 -1.159535,0.02084 -0.267841,-0.242395 -0.375729,-0.249121 -0.375729,-0.02341 0,0.468142 1.137512,0.626382 1.726864,0.240226 z m -6.837408,-2.244962 c -0.137364,-0.846472 0.172726,-1.228435 1.037815,-1.278376 0.446954,-0.02581 0.281672,-0.247866 -0.215735,-0.289845 -0.353119,-0.02981 -0.501656,0.0297 -0.787378,0.315418 -0.295253,0.295253 -0.352153,0.445783 -0.352153,0.931564 0,0.579692 0.05779,0.736745 0.271103,0.736745 0.06425,0 0.08443,-0.180842 0.04635,-0.415506 z m 4.638546,0.300535 c 0,-0.06323 -0.150143,-0.19261 -0.333644,-0.287503 -0.591463,-0.305857 -1.355723,-1.37552 -1.525089,-2.134527 -0.141702,-0.63503 -0.02168,-1.652674 0.280184,-2.375978 0.169301,-0.405637 0.283001,-0.939695 0.335744,-1.577017 0.05312,-0.641934 -0.388912,-1.534001 -0.760129,-1.534001 -0.244622,0 -0.711066,0.577027 -0.711066,0.879638 0,0.360809 0.125981,0.385634 0.326617,0.06435 0.08107,-0.129797 0.239861,-0.237686 0.352887,-0.239752 0.191578,-0.0035 0.191029,-0.01476 -0.0081,-0.165675 -0.120938,-0.0917 -0.16341,-0.19291 -0.09795,-0.233374 0.06358,-0.03931 0.226065,0.06895 0.361063,0.240586 0.347281,0.441518 0.315332,1.13361 -0.123466,2.674177 -0.438441,1.539357 -0.418861,2.225718 0.09018,3.161006 0.487163,0.895077 1.812728,2.012475 1.812732,1.528061 z m 3.569955,-0.226979 c 1.206779,-0.913713 1.77949,-2.480089 1.385019,-3.788046 -0.658737,-2.184191 -0.728018,-2.859413 -0.343529,-3.348211 0.134993,-0.171625 0.297476,-0.279882 0.361063,-0.240584 0.06545,0.04046 0.02306,0.141673 -0.09796,0.233372 -0.157638,0.119515 -0.169641,0.162899 -0.04586,0.165673 0.09224,0.0021 0.261474,0.0886 0.376065,0.192315 0.200559,0.181513 0.459224,0.142951 0.459224,-0.06846 0,-0.208556 -0.618623,-0.828089 -0.826863,-0.828089 -0.362265,0 -0.742907,0.762857 -0.736493,1.47602 0.0055,0.5971 0.07106,0.875537 0.485693,2.058714 0.284414,0.811578 0.239799,1.955483 -0.102911,2.638643 -0.276735,0.551662 -1.168765,1.496621 -1.412786,1.496621 -0.06634,0 -0.120638,0.07964 -0.120638,0.176998 0,0.248801 0.113314,0.218654 0.619957,-0.164946 z m 4.202335,0.08596 c 0.156959,-0.424227 -0.04749,-1.184021 -0.400117,-1.487367 -0.234458,-0.201681 -0.434508,-0.265665 -0.748578,-0.239434 -0.235714,0.0197 -0.411844,0.08888 -0.391366,0.153792 0.02075,0.06488 0.119814,0.100926 0.220722,0.08007 0.298953,-0.06183 0.820342,0.209631 0.981709,0.511136 0.08917,0.16661 0.124082,0.4751 0.08604,0.759218 -0.06824,0.508947 0.09299,0.651554 0.25167,0.222584 z m -6.946291,-1.679208 c 0,-0.02592 -0.192841,-0.240037 -0.428528,-0.475726 -0.399213,-0.399215 -0.423586,-0.464596 -0.356257,-0.9558 0.071,-0.517891 -0.08495,-0.740092 -0.238525,-0.339889 -0.194043,0.505665 -0.06249,1.075642 0.358399,1.553115 0.195987,0.22232 0.664911,0.376278 0.664911,0.2183 z m 1.86892,-0.249855 c 0.403117,-0.339195 0.590728,-1.06626 0.377805,-1.464109 -0.220465,-0.41195 -0.32694,-0.274571 -0.267407,0.345015 0.05405,0.562467 0.03576,0.609025 -0.394379,1.002998 -0.528896,0.484449 -0.276433,0.587662 0.283981,0.116096 z m -13.0039,12.509215 c -0.129711,-0.338024 -0.08172,-1.23009 0.08744,-1.625464 0.196479,-0.459194 0.720671,-0.968409 1.172717,-1.139205 0.449974,-0.170014 1.376288,-0.151273 1.711301,0.03458 0.255692,0.141873 0.26023,0.162712 0.06972,0.320317 -0.244208,0.20204 -0.753432,1.259319 -0.755053,1.567695 -8.5e-4,0.164043 -0.0531,0.196574 -0.207655,0.129537 -0.739876,-0.321055 -1.519799,-0.09064 -1.82478,0.539062 -0.142337,0.293892 -0.193951,0.329194 -0.253703,0.17344 z m 23.267906,-0.08186 c -0.08077,-0.560204 -1.181418,-0.988037 -1.75379,-0.681711 -0.191413,0.102469 -0.237673,0.07151 -0.307248,-0.205662 -0.04502,-0.17943 -0.255907,-0.6187 -0.468507,-0.976099 -0.350418,-0.588977 -0.368536,-0.663625 -0.193486,-0.797317 0.236181,-0.180307 1.192029,-0.193089 1.644874,-0.02195 0.406937,0.153751 0.945203,0.650301 1.168713,1.078132 0.185507,0.35508 0.227822,1.6945 0.0569,1.800147 -0.06032,0.03726 -0.126655,-0.05069 -0.14752,-0.195502 z"
       id="path1-9-7" />
    <rect
       x="37.737823"
       y="37.757782"
       width="22.610399"
       height="22.610399"
       rx="4.7267799"
       ry="4.6148596"
       fill="url(#linearGradient862)"
       stroke-width="3.0541"
       id="rect35-7-3-1"
       style="fill:#414141;fill-opacity:1;stroke:#dfdfdf;stroke-width:0.978336;stroke-dasharray:none;stroke-opacity:1" />
    <path
       id="path1"
       style="fill:#dfdfdf;fill-opacity:1;stroke:none;stroke-width:0.224244;stroke-dasharray:none;stroke-dashoffset:2.2;stroke-opacity:0.6"
       d="m 53.054544,43.299438 c -0.231167,-9.7e-5 -0.478613,0.09299 -0.788298,0.274436 -0.736938,0.431788 -1.700715,0.635422 -3.024237,0.635422 -1.323397,0 -2.319324,-0.207971 -3.051873,-0.637265 -0.587409,-0.344229 -0.938101,-0.348791 -1.431082,-0.01642 -1.265645,0.852917 -2.219508,3.587517 -2.499329,7.160943 -0.167795,2.14283 -0.01103,3.27254 0.543328,3.908309 0.267381,0.306528 0.923785,0.254559 1.515809,-0.12156 0.501846,-0.318836 1.099794,-1.022374 1.814177,-2.134665 0.645548,-1.005122 1.426374,-1.336165 3.153173,-1.338993 1.723362,-0.0026 2.400625,0.323379 3.195531,1.545274 1.333668,2.050042 2.566393,2.763747 3.289465,1.90442 0.40058,-0.476052 0.473899,-0.936006 0.454923,-2.851106 -0.03457,-3.478896 -0.94394,-6.643709 -2.254366,-7.851617 -0.349004,-0.321703 -0.619985,-0.476908 -0.917221,-0.477033 z m -7.486939,2.049926 h 0.799346 0.79934 v 0.685152 0.685155 h 0.685156 0.685148 v 0.856441 0.856435 h -0.685148 -0.685156 v 0.742248 0.742251 h -0.723826 c -0.397652,0 -0.755645,-0.03568 -0.797503,-0.07735 -0.04185,-0.04185 -0.07732,-0.374141 -0.07732,-0.740403 v -0.666745 h -0.685161 -0.685156 v -0.856437 -0.856439 h 0.685156 0.685149 v -0.685157 z m 6.516311,0 c 0.721112,0 1.029934,0.798977 0.510182,1.318734 -0.330544,0.330508 -0.632217,0.356486 -0.957741,0.08106 -0.56463,-0.477772 -0.269928,-1.399771 0.447559,-1.399771 z m -1.386879,1.464237 c 0.180072,1.21e-4 0.361362,0.07187 0.50465,0.230203 0.223372,0.246825 0.247504,0.811915 0.04607,1.075615 -0.394228,0.516094 -1.340833,0.18413 -1.340833,-0.469659 0,-0.496196 0.39399,-0.836453 0.790134,-0.836178 z m 2.830855,0.02772 c 0.207551,0.0039 0.409039,0.07252 0.526752,0.202589 0.223372,0.246826 0.247471,0.811914 0.04604,1.075617 -0.419316,0.548931 -1.340835,0.181519 -1.340835,-0.534125 0,-0.216927 0.08692,-0.452038 0.2081,-0.56175 0.138541,-0.125395 0.35239,-0.186127 0.559914,-0.182325 z m -1.394247,1.477124 c 0.639304,0 0.95037,0.678118 0.563588,1.230325 -0.132224,0.188768 -0.293477,0.254171 -0.626215,0.254171 -0.383084,0 -0.471983,-0.04986 -0.626209,-0.348115 -0.30411,-0.588069 0.02772,-1.136394 0.688836,-1.136394 z" />
  </g>
</svg>
