<?xml version="1.0" encoding="UTF-8" standalone="no"?>
<svg
   width="64"
   height="64"
   version="1.1"
   id="svg73"
   sodipodi:docname="steam_icon_368260.svg"
   inkscape:version="1.4.2 (ebf0e940d0, 2025-05-08)"
   xmlns:inkscape="http://www.inkscape.org/namespaces/inkscape"
   xmlns:sodipodi="http://sodipodi.sourceforge.net/DTD/sodipodi-0.dtd"
   xmlns="http://www.w3.org/2000/svg"
   xmlns:svg="http://www.w3.org/2000/svg"
   xmlns:rdf="http://www.w3.org/1999/02/22-rdf-syntax-ns#"
   xmlns:cc="http://creativecommons.org/ns#"
   xmlns:dc="http://purl.org/dc/elements/1.1/">
  <metadata
     id="metadata77">
    <rdf:RDF>
      <cc:Work
         rdf:about="">
        <dc:format>image/svg+xml</dc:format>
        <dc:type
           rdf:resource="http://purl.org/dc/dcmitype/StillImage" />
      </cc:Work>
    </rdf:RDF>
  </metadata>
  <sodipodi:namedview
     pagecolor="#f5f7fa"
     bordercolor="#666666"
     borderopacity="1"
     objecttolerance="10"
     gridtolerance="10"
     guidetolerance="10"
     inkscape:pageopacity="0"
     inkscape:pageshadow="2"
     inkscape:window-width="1377"
     inkscape:window-height="886"
     id="namedview75"
     showgrid="false"
     inkscape:zoom="6.2890624"
     inkscape:cx="47.622361"
     inkscape:cy="45.396274"
     inkscape:window-x="147"
     inkscape:window-y="75"
     inkscape:window-maximized="0"
     inkscape:current-layer="g877"
     inkscape:document-rotation="0"
     inkscape:pagecheckerboard="0"
     inkscape:showpageshadow="2"
     inkscape:deskcolor="#d1d1d1" />
  <defs
     id="defs29" />
  <circle
     cx="32.516094"
     cy="31.877844"
     r="0"
     fill="url(#b)"
     stroke-width="1.5715"
     id="circle41"
     style="fill:url(#b)" />
  <g
     aria-label="GZ"
     transform="matrix(1.2212657,0,0,0.81882264,0.4960938,-0.1661539)"
     id="text93"
     style="font-weight:bold;font-size:11.5263px;line-height:1.25;font-family:sans-serif;-inkscape-font-specification:'sans-serif Bold';fill:#f2f2f2;stroke-width:0.288159" />
  <g
     id="g877"
     transform="matrix(1.1,0,0,1.1,-3.1845928,-3.2065454)">
    <rect
       x="8.3496294"
       y="8.369586"
       width="47.272728"
       height="47.272728"
       rx="9.8825235"
       ry="9.6485243"
       fill="url(#linearGradient862)"
       stroke-width="3.0541"
       id="rect35-7-3"
       style="fill:#414141;fill-opacity:1;stroke:#dfdfdf;stroke-width:2.04545;stroke-dasharray:none;stroke-opacity:1" />
    <path
       style="fill:#dfdfdf;fill-opacity:1;stroke:none;stroke-width:0.441045;stroke-dasharray:none;stroke-opacity:0.6"
       d="m 28.893517,45.24283 -1.657943,-2.272755 0.047,-2.513497 0.04701,-2.5135 1.653341,-0.04848 1.653341,-0.04848 v 4.838975 c 0,2.66144 -0.01907,4.837093 -0.0424,4.834781 -0.02332,-0.0022 -0.78847,-1.026924 -1.700339,-2.276944 z m 4.286332,-2.517787 V 37.85829 h 1.695734 1.695734 V 40.426149 42.994 l -1.553706,2.137799 c -0.854541,1.175797 -1.61762,2.210298 -1.695735,2.29891 -0.07812,0.08864 -0.142031,-2.028938 -0.142027,-4.705666 z M 23.005447,35.273622 c -0.392626,-0.205812 -0.427569,-0.32521 -0.473184,-1.616734 l -0.04925,-1.394511 h 0.87109 0.871092 l -0.05874,0.847972 -0.05874,0.847971 0.6359,-1.05e-4 c 0.635566,-1.03e-4 0.635898,-0.0015 0.635898,-0.724534 0,-0.68358 -0.08127,-0.805292 -1.441375,-2.158313 l -1.441398,-1.43389 v -1.390612 c 0,-1.881035 0.05067,-1.923557 2.291739,-1.923557 2.149326,0 2.286743,0.11436 2.286743,1.903038 v 1.149282 H 26.227334 25.379465 V 28.531765 27.683897 H 24.73247 24.085475 l 0.03493,0.720311 c 0.03229,0.666339 0.141162,0.821092 1.45248,2.065316 l 1.417535,1.345003 0.05453,1.453335 c 0.07618,2.031004 -0.005,2.11805 -2.033168,2.179795 -1.061526,0.03233 -1.721945,-0.02505 -2.006333,-0.174042 z m 5.256775,-4.367835 v -4.578478 h 0.763079 0.76308 v 4.578478 4.578484 h -0.76308 -0.763079 z m 2.713173,0 v -4.578478 h 0.743525 0.743526 l 0.856811,2.16206 0.856813,2.162062 0.01057,-2.162062 0.01058,-2.16206 h 0.763065 0.763083 v 4.578478 4.578484 h -0.65789 -0.657963 l -0.861596,-2.246852 -0.861602,-2.246843 -0.0065,2.246843 -0.0066,2.246852 H 31.823384 30.97552 Z m 6.613357,4.468651 c -0.519524,-0.201696 -0.678287,-0.640031 -0.678287,-1.872671 v -1.23939 h 0.84787 0.847865 v 0.847861 0.847874 h 0.637122 0.637118 L 39.8196,33.193263 C 39.763512,32.487962 39.647904,32.31927 38.334619,31.026512 L 36.91047,29.624599 v -1.271768 c 0,-1.927133 0.111132,-2.025522 2.286746,-2.025522 2.214967,0 2.291733,0.06006 2.291733,1.792634 v 1.259686 h -0.869435 -0.869441 l 0.08146,-0.847864 0.08149,-0.847868 h -0.65341 -0.653401 v 0.738999 c 0,0.708685 0.05914,0.794241 1.441372,2.085858 l 1.441372,1.34687 v 1.539197 c 0,1.223882 -0.05745,1.586876 -0.280003,1.771935 -0.289157,0.240267 -3.118162,0.402564 -3.620164,0.20768 z M 27.244783,20.22267 v -3.730615 h 1.695731 1.695735 v 3.730615 3.730613 h -1.695735 -1.695731 z m 5.935066,0 v -3.730615 h 1.695734 1.695734 v 3.730615 3.730613 h -1.695734 -1.695734 z"
       id="path1-9"
       sodipodi:nodetypes="ccccccscccscccccssscscccccssscssscccccccsscssccccccccccccccccccccccccccccccccssccccccccccssscccccccsscscsscccccccccccccccccc" />
    <rect
       x="37.737823"
       y="37.757782"
       width="22.610399"
       height="22.610399"
       rx="4.7267799"
       ry="4.6148596"
       fill="url(#linearGradient862)"
       stroke-width="3.0541"
       id="rect35-7-3-1"
       style="fill:#414141;fill-opacity:1;stroke:#dfdfdf;stroke-width:0.978336;stroke-dasharray:none;stroke-opacity:1" />
    <path
       id="path1"
       style="fill:#dfdfdf;fill-opacity:1;stroke:none;stroke-width:0.224244;stroke-dasharray:none;stroke-dashoffset:2.2;stroke-opacity:0.6"
       d="m 53.054544,43.299438 c -0.231167,-9.7e-5 -0.478613,0.09299 -0.788298,0.274436 -0.736938,0.431788 -1.700715,0.635422 -3.024237,0.635422 -1.323397,0 -2.319324,-0.207971 -3.051873,-0.637265 -0.587409,-0.344229 -0.938101,-0.348791 -1.431082,-0.01642 -1.265645,0.852917 -2.219508,3.587517 -2.499329,7.160943 -0.167795,2.14283 -0.01103,3.27254 0.543328,3.908309 0.267381,0.306528 0.923785,0.254559 1.515809,-0.12156 0.501846,-0.318836 1.099794,-1.022374 1.814177,-2.134665 0.645548,-1.005122 1.426374,-1.336165 3.153173,-1.338993 1.723362,-0.0026 2.400625,0.323379 3.195531,1.545274 1.333668,2.050042 2.566393,2.763747 3.289465,1.90442 0.40058,-0.476052 0.473899,-0.936006 0.454923,-2.851106 -0.03457,-3.478896 -0.94394,-6.643709 -2.254366,-7.851617 -0.349004,-0.321703 -0.619985,-0.476908 -0.917221,-0.477033 z m -7.486939,2.049926 h 0.799346 0.79934 v 0.685152 0.685155 h 0.685156 0.685148 v 0.856441 0.856435 h -0.685148 -0.685156 v 0.742248 0.742251 h -0.723826 c -0.397652,0 -0.755645,-0.03568 -0.797503,-0.07735 -0.04185,-0.04185 -0.07732,-0.374141 -0.07732,-0.740403 v -0.666745 h -0.685161 -0.685156 v -0.856437 -0.856439 h 0.685156 0.685149 v -0.685157 z m 6.516311,0 c 0.721112,0 1.029934,0.798977 0.510182,1.318734 -0.330544,0.330508 -0.632217,0.356486 -0.957741,0.08106 -0.56463,-0.477772 -0.269928,-1.399771 0.447559,-1.399771 z m -1.386879,1.464237 c 0.180072,1.21e-4 0.361362,0.07187 0.50465,0.230203 0.223372,0.246825 0.247504,0.811915 0.04607,1.075615 -0.394228,0.516094 -1.340833,0.18413 -1.340833,-0.469659 0,-0.496196 0.39399,-0.836453 0.790134,-0.836178 z m 2.830855,0.02772 c 0.207551,0.0039 0.409039,0.07252 0.526752,0.202589 0.223372,0.246826 0.247471,0.811914 0.04604,1.075617 -0.419316,0.548931 -1.340835,0.181519 -1.340835,-0.534125 0,-0.216927 0.08692,-0.452038 0.2081,-0.56175 0.138541,-0.125395 0.35239,-0.186127 0.559914,-0.182325 z m -1.394247,1.477124 c 0.639304,0 0.95037,0.678118 0.563588,1.230325 -0.132224,0.188768 -0.293477,0.254171 -0.626215,0.254171 -0.383084,0 -0.471983,-0.04986 -0.626209,-0.348115 -0.30411,-0.588069 0.02772,-1.136394 0.688836,-1.136394 z" />
  </g>
</svg>
