<?xml version="1.0" encoding="UTF-8" standalone="no"?>
<svg
   width="64"
   height="64"
   version="1.1"
   id="svg73"
   sodipodi:docname="steam_icon_368260.svg"
   inkscape:version="1.4.2 (ebf0e940d0, 2025-05-08)"
   xmlns:inkscape="http://www.inkscape.org/namespaces/inkscape"
   xmlns:sodipodi="http://sodipodi.sourceforge.net/DTD/sodipodi-0.dtd"
   xmlns="http://www.w3.org/2000/svg"
   xmlns:svg="http://www.w3.org/2000/svg"
   xmlns:rdf="http://www.w3.org/1999/02/22-rdf-syntax-ns#"
   xmlns:cc="http://creativecommons.org/ns#"
   xmlns:dc="http://purl.org/dc/elements/1.1/">
  <metadata
     id="metadata77">
    <rdf:RDF>
      <cc:Work
         rdf:about="">
        <dc:format>image/svg+xml</dc:format>
        <dc:type
           rdf:resource="http://purl.org/dc/dcmitype/StillImage" />
      </cc:Work>
    </rdf:RDF>
  </metadata>
  <sodipodi:namedview
     pagecolor="#f5f7fa"
     bordercolor="#666666"
     borderopacity="1"
     objecttolerance="10"
     gridtolerance="10"
     guidetolerance="10"
     inkscape:pageopacity="0"
     inkscape:pageshadow="2"
     inkscape:window-width="1377"
     inkscape:window-height="886"
     id="namedview75"
     showgrid="false"
     inkscape:zoom="6.2890624"
     inkscape:cx="47.622361"
     inkscape:cy="45.396274"
     inkscape:window-x="147"
     inkscape:window-y="75"
     inkscape:window-maximized="0"
     inkscape:current-layer="g877"
     inkscape:document-rotation="0"
     inkscape:pagecheckerboard="0"
     inkscape:showpageshadow="2"
     inkscape:deskcolor="#d1d1d1" />
  <defs
     id="defs29" />
  <circle
     cx="32.516094"
     cy="31.877844"
     r="0"
     fill="url(#b)"
     stroke-width="1.5715"
     id="circle41"
     style="fill:url(#b)" />
  <g
     aria-label="GZ"
     transform="matrix(1.2212657,0,0,0.81882264,0.4960938,-0.1661539)"
     id="text93"
     style="font-weight:bold;font-size:11.5263px;line-height:1.25;font-family:sans-serif;-inkscape-font-specification:'sans-serif Bold';fill:#f2f2f2;stroke-width:0.288159" />
  <g
     id="g877"
     transform="matrix(1.1,0,0,1.1,-3.1845928,-3.2065454)">
    <rect
       x="8.3496294"
       y="8.369586"
       width="47.272728"
       height="47.272728"
       rx="9.8825235"
       ry="9.6485243"
       fill="url(#linearGradient862)"
       stroke-width="3.0541"
       id="rect35-7-3"
       style="fill:#414141;fill-opacity:1;stroke:#dfdfdf;stroke-width:2.04545;stroke-dasharray:none;stroke-opacity:1" />
    <path
       style="fill:#dfdfdf;fill-opacity:1;stroke:none;stroke-width:0.463097;stroke-dasharray:none;stroke-opacity:0.6"
       d="m 29.121071,47.420807 0.43699,-0.465155 -1.127021,-0.228907 c -2.544718,-0.516819 -5.003413,-1.908629 -7.285084,-4.123902 -0.746871,-0.725132 -1.528603,-1.303935 -1.859141,-1.376535 -0.785051,-0.172458 -0.717685,-0.480579 0.105062,-0.480579 0.371488,0 0.675429,-0.04171 0.675429,-0.09264 0,-0.0509 -0.340042,-0.541839 -0.755652,-1.090965 -1.866162,-2.46561 -2.714397,-5.185596 -2.724804,-8.737489 -0.005,-1.658119 -0.08661,-2.472697 -0.282631,-2.815571 -0.318987,-0.558012 -0.354764,-0.771912 -0.129105,-0.771912 0.08819,0 0.276556,0.217099 0.418569,0.482442 0.142014,0.265353 0.312991,0.482457 0.379954,0.482457 0.06697,0 0.225749,-0.50346 0.352846,-1.118796 0.469373,-2.272488 1.950096,-4.756242 4.257344,-7.141245 0.544476,-0.562814 1.0433,-1.235825 1.108493,-1.495583 0.06516,-0.259741 0.189888,-0.472268 0.277117,-0.472268 0.08722,0 0.07782,0.281654 -0.02096,0.625904 -0.312067,1.088155 -0.227921,1.162652 0.640666,0.567198 1.315543,-0.901838 2.706816,-1.540288 4.469956,-2.051231 0.905132,-0.262288 1.900062,-0.608434 2.210956,-0.769204 0.538037,-0.278241 0.560427,-0.273822 0.464874,0.09162 -0.05524,0.211144 -0.176748,0.431077 -0.270078,0.488752 -0.464433,0.287031 -0.02914,0.369609 1.3259,0.251516 2.672951,-0.232938 4.268821,0.08381 6.898998,1.36904 2.285882,1.117059 4.510869,2.727879 5.181311,3.751093 0.193867,0.295906 0.577649,0.530929 0.99469,0.609155 0.995503,0.186765 1.090689,0.531395 0.121217,0.43895 -0.438534,-0.04183 -0.797321,-0.05892 -0.797321,-0.03792 0,0.02096 0.43545,0.740157 0.967678,1.598285 0.652622,1.052233 1.131716,2.141054 1.471494,3.344171 0.322376,1.141534 0.681838,1.975045 0.998205,2.314635 0.526152,0.564767 0.360193,0.719923 -0.264586,0.247365 -0.206083,-0.155842 -0.439728,-0.286097 -0.519332,-0.289468 -0.07961,-0.0029 -0.146261,0.840559 -0.148073,1.875409 -0.007,3.825367 -1.130857,6.704501 -3.848522,9.857617 -0.853637,0.990417 -1.604788,2.010796 -1.669209,2.267506 -0.131126,0.522307 -0.461272,0.635649 -0.461272,0.158302 0,-0.260027 -0.0984,-0.242757 -0.627176,0.10985 -2.384522,1.590426 -5.415108,2.514265 -8.247917,2.514265 -0.948477,0 -1.829249,0.113211 -2.250964,0.289426 -0.928454,0.387933 -0.980202,0.368537 -0.468922,-0.175718 z m 4.937209,-4.262702 c 1.649864,-0.345209 4.128098,-1.550379 5.330476,-2.59222 1.237277,-1.072077 2.591666,-3.127849 3.189982,-4.841953 2.081104,-5.96208 -1.148136,-12.601432 -7.06973,-14.53544 -2.038636,-0.665821 -3.451043,-0.779048 -5.401427,-0.433 -4.137546,0.734103 -7.494081,3.673309 -8.817199,7.720946 -0.428143,1.309774 -0.510694,1.913719 -0.516425,3.778233 -0.0061,1.92363 0.05897,2.392553 0.487125,3.520223 1.095629,2.885722 2.947118,5.031523 5.498018,6.371977 2.383556,1.252521 4.647142,1.566118 7.29918,1.011234 z M 28.84785,40.858986 C 28.211017,40.712561 27.386032,40.51365 27.014548,40.416934 L 26.33912,40.241098 26.169042,38.672364 c -0.198247,-1.828503 -0.112451,-2.17216 0.542374,-2.17216 0.518392,0 0.601427,0.07324 1.44707,1.277002 1.128293,1.60605 3.437036,2.143681 5.310686,1.23666 1.016943,-0.492314 1.425241,-1.007406 1.586573,-2.001572 0.225512,-1.389675 -0.875914,-2.60828 -4.639343,-5.132924 -2.909168,-1.951565 -3.789427,-3.062779 -3.785928,-4.779209 0.004,-1.90282 1.373668,-3.751845 3.254082,-4.392568 1.19213,-0.406197 3.622889,-0.365613 5.707941,0.09524 0.949959,0.210009 1.787166,0.446942 1.860458,0.526531 0.07328,0.07962 0.193954,0.904543 0.268181,1.833259 l 0.134894,1.68856 -0.740986,-0.01018 c -0.667579,-0.01008 -0.798386,-0.100286 -1.319948,-0.916643 -1.467404,-2.296831 -4.935809,-2.640488 -5.994135,-0.5939 -0.647418,1.251964 0.130408,2.414091 2.828415,4.225919 4.489806,3.015087 5.483532,4.233952 5.351853,6.564387 -0.05759,1.019567 -0.196089,1.493977 -0.652806,2.236 -0.623477,1.013043 -1.984296,2.052539 -3.139429,2.398162 -1.150273,0.344181 -4.051421,0.400815 -5.341139,0.10436 z"
       id="path2363" />
    <rect
       x="37.737823"
       y="37.757782"
       width="22.610399"
       height="22.610399"
       rx="4.7267799"
       ry="4.6148596"
       fill="url(#linearGradient862)"
       stroke-width="3.0541"
       id="rect35-7-3-1"
       style="fill:#414141;fill-opacity:1;stroke:#dfdfdf;stroke-width:0.978336;stroke-dasharray:none;stroke-opacity:1" />
    <path
       id="path1"
       style="fill:#dfdfdf;fill-opacity:1;stroke:none;stroke-width:0.224244;stroke-dasharray:none;stroke-dashoffset:2.2;stroke-opacity:0.6"
       d="m 53.054544,43.299438 c -0.231167,-9.7e-5 -0.478613,0.09299 -0.788298,0.274436 -0.736938,0.431788 -1.700715,0.635422 -3.024237,0.635422 -1.323397,0 -2.319324,-0.207971 -3.051873,-0.637265 -0.587409,-0.344229 -0.938101,-0.348791 -1.431082,-0.01642 -1.265645,0.852917 -2.219508,3.587517 -2.499329,7.160943 -0.167795,2.14283 -0.01103,3.27254 0.543328,3.908309 0.267381,0.306528 0.923785,0.254559 1.515809,-0.12156 0.501846,-0.318836 1.099794,-1.022374 1.814177,-2.134665 0.645548,-1.005122 1.426374,-1.336165 3.153173,-1.338993 1.723362,-0.0026 2.400625,0.323379 3.195531,1.545274 1.333668,2.050042 2.566393,2.763747 3.289465,1.90442 0.40058,-0.476052 0.473899,-0.936006 0.454923,-2.851106 -0.03457,-3.478896 -0.94394,-6.643709 -2.254366,-7.851617 -0.349004,-0.321703 -0.619985,-0.476908 -0.917221,-0.477033 z m -7.486939,2.049926 h 0.799346 0.79934 v 0.685152 0.685155 h 0.685156 0.685148 v 0.856441 0.856435 h -0.685148 -0.685156 v 0.742248 0.742251 h -0.723826 c -0.397652,0 -0.755645,-0.03568 -0.797503,-0.07735 -0.04185,-0.04185 -0.07732,-0.374141 -0.07732,-0.740403 v -0.666745 h -0.685161 -0.685156 v -0.856437 -0.856439 h 0.685156 0.685149 v -0.685157 z m 6.516311,0 c 0.721112,0 1.029934,0.798977 0.510182,1.318734 -0.330544,0.330508 -0.632217,0.356486 -0.957741,0.08106 -0.56463,-0.477772 -0.269928,-1.399771 0.447559,-1.399771 z m -1.386879,1.464237 c 0.180072,1.21e-4 0.361362,0.07187 0.50465,0.230203 0.223372,0.246825 0.247504,0.811915 0.04607,1.075615 -0.394228,0.516094 -1.340833,0.18413 -1.340833,-0.469659 0,-0.496196 0.39399,-0.836453 0.790134,-0.836178 z m 2.830855,0.02772 c 0.207551,0.0039 0.409039,0.07252 0.526752,0.202589 0.223372,0.246826 0.247471,0.811914 0.04604,1.075617 -0.419316,0.548931 -1.340835,0.181519 -1.340835,-0.534125 0,-0.216927 0.08692,-0.452038 0.2081,-0.56175 0.138541,-0.125395 0.35239,-0.186127 0.559914,-0.182325 z m -1.394247,1.477124 c 0.639304,0 0.95037,0.678118 0.563588,1.230325 -0.132224,0.188768 -0.293477,0.254171 -0.626215,0.254171 -0.383084,0 -0.471983,-0.04986 -0.626209,-0.348115 -0.30411,-0.588069 0.02772,-1.136394 0.688836,-1.136394 z" />
  </g>
</svg>
