<?xml version="1.0" encoding="UTF-8" standalone="no"?>
<svg
   width="64"
   height="64"
   version="1.1"
   id="svg73"
   sodipodi:docname="steam_icon_368260.svg"
   inkscape:version="1.4.2 (ebf0e940d0, 2025-05-08)"
   xmlns:inkscape="http://www.inkscape.org/namespaces/inkscape"
   xmlns:sodipodi="http://sodipodi.sourceforge.net/DTD/sodipodi-0.dtd"
   xmlns="http://www.w3.org/2000/svg"
   xmlns:svg="http://www.w3.org/2000/svg"
   xmlns:rdf="http://www.w3.org/1999/02/22-rdf-syntax-ns#"
   xmlns:cc="http://creativecommons.org/ns#"
   xmlns:dc="http://purl.org/dc/elements/1.1/">
  <metadata
     id="metadata77">
    <rdf:RDF>
      <cc:Work
         rdf:about="">
        <dc:format>image/svg+xml</dc:format>
        <dc:type
           rdf:resource="http://purl.org/dc/dcmitype/StillImage" />
      </cc:Work>
    </rdf:RDF>
  </metadata>
  <sodipodi:namedview
     pagecolor="#f5f7fa"
     bordercolor="#666666"
     borderopacity="1"
     objecttolerance="10"
     gridtolerance="10"
     guidetolerance="10"
     inkscape:pageopacity="0"
     inkscape:pageshadow="2"
     inkscape:window-width="1377"
     inkscape:window-height="886"
     id="namedview75"
     showgrid="false"
     inkscape:zoom="6.2890624"
     inkscape:cx="47.622361"
     inkscape:cy="45.396274"
     inkscape:window-x="147"
     inkscape:window-y="75"
     inkscape:window-maximized="0"
     inkscape:current-layer="g877"
     inkscape:document-rotation="0"
     inkscape:pagecheckerboard="0"
     inkscape:showpageshadow="2"
     inkscape:deskcolor="#d1d1d1" />
  <defs
     id="defs29" />
  <circle
     cx="32.516094"
     cy="31.877844"
     r="0"
     fill="url(#b)"
     stroke-width="1.5715"
     id="circle41"
     style="fill:url(#b)" />
  <g
     aria-label="GZ"
     transform="matrix(1.2212657,0,0,0.81882264,0.4960938,-0.1661539)"
     id="text93"
     style="font-weight:bold;font-size:11.5263px;line-height:1.25;font-family:sans-serif;-inkscape-font-specification:'sans-serif Bold';fill:#f2f2f2;stroke-width:0.288159" />
  <g
     id="g877"
     transform="matrix(1.1,0,0,1.1,-3.1845928,-3.2065454)">
    <rect
       x="8.3496294"
       y="8.369586"
       width="47.272728"
       height="47.272728"
       rx="9.8825235"
       ry="9.6485243"
       fill="url(#linearGradient862)"
       stroke-width="3.0541"
       id="rect35-7-3"
       style="fill:#414141;fill-opacity:1;stroke:#dfdfdf;stroke-width:2.04545;stroke-dasharray:none;stroke-opacity:1" />
    <path
       style="fill:#dfdfdf;fill-opacity:1;stroke:none;stroke-width:0.486252;stroke-dasharray:none;stroke-dashoffset:2.2;stroke-opacity:0.6"
       d="m 23.437744,47.682146 c 0,-0.04292 0.16902,-0.42003 0.375614,-0.838128 0.216908,-0.438983 0.415969,-1.039239 0.471126,-1.420649 0.118881,-0.822059 0.128083,-7.761966 0.01058,-7.947236 -0.102396,-0.161399 -1.208305,0.205278 -2.355871,0.781046 -0.814747,0.408811 -0.820576,0.402007 -0.549159,-0.640012 0.351598,-1.349833 1.275437,-2.684658 2.374759,-3.431192 l 0.61947,-0.420675 v -5.14422 c 0,-3.38414 -0.03794,-5.227533 -0.110945,-5.387715 -0.279753,-0.613994 -1.417789,-1.079576 -2.386725,-0.976441 -0.535751,0.05703 -0.657285,0.04181 -0.657285,-0.08226 0,-0.175051 1.578493,-1.925736 3.859402,-4.280409 l 1.577987,-1.629017 0.606572,0.402744 c 0.925424,0.614446 1.517369,1.210309 1.842817,1.855016 0.401295,0.794967 0.503487,1.222598 0.626124,2.620148 0.10438,1.189611 0.160572,1.416186 0.300397,1.211625 0.04023,-0.05888 0.380761,-0.339805 0.756728,-0.624311 0.647494,-0.489988 1.797103,-1.394706 5.047922,-3.972619 0.780847,-0.619218 1.469743,-1.126024 1.530898,-1.126233 0.06113,-2.1e-4 0.329392,0.295392 0.596223,0.656901 0.686895,0.930819 1.700636,1.922413 2.224682,2.176105 0.533484,0.258249 1.418755,0.286046 2.047308,0.06426 0.237068,-0.08367 0.452005,-0.118393 0.477485,-0.07715 0.0857,0.13865 -0.136484,1.060307 -0.362332,1.502987 -0.285887,0.560428 -1.039374,1.367434 -1.516698,1.624495 l -0.370277,0.199412 0.002,6.732938 0.002,6.732943 0.313597,0.568916 c 0.172508,0.312894 0.313598,0.589572 0.313598,0.614822 0,0.02486 -0.485909,0.01258 -1.079819,-0.02793 -2.338486,-0.159437 -4.75584,0.599105 -7.415871,2.326914 -0.479176,0.3112 -0.899835,0.565906 -0.934799,0.565906 -0.03493,0 -0.447422,-0.366753 -0.916575,-0.815035 l -0.853024,-0.815032 -0.02844,2.260238 c -0.03119,2.476724 0.03335,2.989546 0.500651,3.977618 l 0.307612,0.650447 h -0.968762 c -1.42162,0 -3.312602,0.612411 -5.24157,1.697519 -0.930834,0.523566 -1.037213,0.567978 -1.037213,0.432943 z M 34.915298,35.418237 c 0.04005,-2.354177 0.03211,-7.870782 -0.01462,-10.104407 l -0.0525,-2.517481 -0.366975,-0.09489 c -0.201837,-0.0522 -0.580738,-0.251802 -0.842001,-0.443586 -0.451484,-0.331422 -0.485856,-0.340068 -0.693549,-0.174507 -0.120183,0.09581 -0.375826,0.292509 -0.568087,0.43711 -0.192262,0.1446 -0.401232,0.310235 -0.46437,0.368078 -0.06314,0.05782 -0.553358,0.456722 -1.089371,0.886405 l -0.974565,0.78124 0.05913,3.951186 c 0.03257,2.173155 0.08199,4.141889 0.109919,4.37497 0.05022,0.419117 0.05945,0.427082 0.836046,0.723595 1.04064,0.397314 2.147325,1.142295 3.035662,2.043499 0.423764,0.429904 0.7839,0.712192 0.867611,0.680068 0.102742,-0.03944 0.147228,-0.296553 0.157687,-0.911283 z"
       id="path1-7-3" />
    <rect
       x="37.737823"
       y="37.757782"
       width="22.610399"
       height="22.610399"
       rx="4.7267799"
       ry="4.6148596"
       fill="url(#linearGradient862)"
       stroke-width="3.0541"
       id="rect35-7-3-1"
       style="fill:#414141;fill-opacity:1;stroke:#dfdfdf;stroke-width:0.978336;stroke-dasharray:none;stroke-opacity:1" />
    <path
       id="path1"
       style="fill:#dfdfdf;fill-opacity:1;stroke:none;stroke-width:0.224244;stroke-dasharray:none;stroke-dashoffset:2.2;stroke-opacity:0.6"
       d="m 53.054544,43.299438 c -0.231167,-9.7e-5 -0.478613,0.09299 -0.788298,0.274436 -0.736938,0.431788 -1.700715,0.635422 -3.024237,0.635422 -1.323397,0 -2.319324,-0.207971 -3.051873,-0.637265 -0.587409,-0.344229 -0.938101,-0.348791 -1.431082,-0.01642 -1.265645,0.852917 -2.219508,3.587517 -2.499329,7.160943 -0.167795,2.14283 -0.01103,3.27254 0.543328,3.908309 0.267381,0.306528 0.923785,0.254559 1.515809,-0.12156 0.501846,-0.318836 1.099794,-1.022374 1.814177,-2.134665 0.645548,-1.005122 1.426374,-1.336165 3.153173,-1.338993 1.723362,-0.0026 2.400625,0.323379 3.195531,1.545274 1.333668,2.050042 2.566393,2.763747 3.289465,1.90442 0.40058,-0.476052 0.473899,-0.936006 0.454923,-2.851106 -0.03457,-3.478896 -0.94394,-6.643709 -2.254366,-7.851617 -0.349004,-0.321703 -0.619985,-0.476908 -0.917221,-0.477033 z m -7.486939,2.049926 h 0.799346 0.79934 v 0.685152 0.685155 h 0.685156 0.685148 v 0.856441 0.856435 h -0.685148 -0.685156 v 0.742248 0.742251 h -0.723826 c -0.397652,0 -0.755645,-0.03568 -0.797503,-0.07735 -0.04185,-0.04185 -0.07732,-0.374141 -0.07732,-0.740403 v -0.666745 h -0.685161 -0.685156 v -0.856437 -0.856439 h 0.685156 0.685149 v -0.685157 z m 6.516311,0 c 0.721112,0 1.029934,0.798977 0.510182,1.318734 -0.330544,0.330508 -0.632217,0.356486 -0.957741,0.08106 -0.56463,-0.477772 -0.269928,-1.399771 0.447559,-1.399771 z m -1.386879,1.464237 c 0.180072,1.21e-4 0.361362,0.07187 0.50465,0.230203 0.223372,0.246825 0.247504,0.811915 0.04607,1.075615 -0.394228,0.516094 -1.340833,0.18413 -1.340833,-0.469659 0,-0.496196 0.39399,-0.836453 0.790134,-0.836178 z m 2.830855,0.02772 c 0.207551,0.0039 0.409039,0.07252 0.526752,0.202589 0.223372,0.246826 0.247471,0.811914 0.04604,1.075617 -0.419316,0.548931 -1.340835,0.181519 -1.340835,-0.534125 0,-0.216927 0.08692,-0.452038 0.2081,-0.56175 0.138541,-0.125395 0.35239,-0.186127 0.559914,-0.182325 z m -1.394247,1.477124 c 0.639304,0 0.95037,0.678118 0.563588,1.230325 -0.132224,0.188768 -0.293477,0.254171 -0.626215,0.254171 -0.383084,0 -0.471983,-0.04986 -0.626209,-0.348115 -0.30411,-0.588069 0.02772,-1.136394 0.688836,-1.136394 z" />
  </g>
</svg>
