<?xml version="1.0" encoding="UTF-8" standalone="no"?>
<svg
   width="64"
   height="64"
   version="1.1"
   id="svg73"
   sodipodi:docname="Logo.svg"
   inkscape:version="1.3.2 (091e20ef0f, 2023-11-25)"
   xmlns:inkscape="http://www.inkscape.org/namespaces/inkscape"
   xmlns:sodipodi="http://sodipodi.sourceforge.net/DTD/sodipodi-0.dtd"
   xmlns="http://www.w3.org/2000/svg"
   xmlns:svg="http://www.w3.org/2000/svg"
   xmlns:rdf="http://www.w3.org/1999/02/22-rdf-syntax-ns#"
   xmlns:cc="http://creativecommons.org/ns#"
   xmlns:dc="http://purl.org/dc/elements/1.1/">
  <metadata
     id="metadata77">
    <rdf:RDF>
      <cc:Work
         rdf:about="">
        <dc:format>image/svg+xml</dc:format>
        <dc:type
           rdf:resource="http://purl.org/dc/dcmitype/StillImage" />
      </cc:Work>
    </rdf:RDF>
  </metadata>
  <sodipodi:namedview
     pagecolor="#f5f7fa"
     bordercolor="#666666"
     borderopacity="1"
     objecttolerance="10"
     gridtolerance="10"
     guidetolerance="10"
     inkscape:pageopacity="0"
     inkscape:pageshadow="2"
     inkscape:window-width="1377"
     inkscape:window-height="886"
     id="namedview75"
     showgrid="false"
     inkscape:zoom="6.2890624"
     inkscape:cx="35.935404"
     inkscape:cy="30.926709"
     inkscape:window-x="181"
     inkscape:window-y="77"
     inkscape:window-maximized="0"
     inkscape:current-layer="g877"
     inkscape:document-rotation="0"
     inkscape:pagecheckerboard="0"
     inkscape:showpageshadow="2"
     inkscape:deskcolor="#d1d1d1" />
  <defs
     id="defs29">
    <linearGradient
       id="b"
       x1="399.57"
       x2="399.57"
       y1="545.8"
       y2="517.8"
       gradientTransform="matrix(2.1429,0,0,2.1429,-825.86391,-1107.6662)"
       gradientUnits="userSpaceOnUse">
      <stop
         stop-color="#3889e9"
         offset="0"
         id="stop2" />
      <stop
         stop-color="#5ea5fb"
         offset="1"
         id="stop4" />
    </linearGradient>
    <linearGradient
       id="d"
       x2="1"
       gradientTransform="matrix(14.905727,-4.7106182,4.7106182,14.905727,322.04962,998.26962)"
       gradientUnits="userSpaceOnUse">
      <stop
         stop-color="#fafafa"
         offset="0"
         id="stop7" />
      <stop
         stop-color="#aaa"
         offset="1"
         id="stop8" />
    </linearGradient>
    <linearGradient
       id="e"
       x2="1"
       gradientTransform="matrix(21.439909,0,0,21.439909,26.63554,1159.7788)"
       gradientUnits="userSpaceOnUse">
      <stop
         stop-color="#f0f0f0"
         offset="0"
         id="stop9" />
      <stop
         stop-color="#b7f1ff"
         offset="1"
         id="stop10" />
    </linearGradient>
  </defs>
  <circle
     cx="32.516094"
     cy="31.877844"
     r="0"
     fill="url(#b)"
     stroke-width="1.5715"
     id="circle41"
     style="fill:url(#b)" />
  <g
     aria-label="GZ"
     transform="matrix(1.2212657,0,0,0.81882264,0.4960938,-0.1661539)"
     id="text93"
     style="font-weight:bold;font-size:11.5263px;line-height:1.25;font-family:sans-serif;-inkscape-font-specification:'sans-serif Bold';fill:#f2f2f2;stroke-width:0.288159" />
  <g
     id="g877"
     transform="matrix(1.1,0,0,1.1,-3.1845928,-3.2065454)">
    <rect
       x="6.3010068"
       y="5.4939413"
       width="51.635597"
       height="53.148327"
       rx="10.980581"
       ry="10.720582"
       fill="url(#linearGradient862)"
       stroke-width="3.0541"
       id="rect35-7-3"
       style="fill:#414141;fill-opacity:1;stroke:#dfdfdf;stroke-width:2.27272727;stroke-dasharray:none;stroke-opacity:1" />
    <path
       style="fill:#dfdfdf;fill-opacity:1;stroke:none;stroke-width:1.07811;stroke-dasharray:none;stroke-dashoffset:2.2;stroke-opacity:0.3"
       d="m 29.803456,51.666261 c -2.476366,-0.287954 -5.166873,-1.20347 -7.37737,-2.510354 -4.701848,-2.779809 -8.14279,-7.601563 -9.46643,-13.265207 -0.278286,-1.190728 -0.318194,-1.634861 -0.317137,-3.529204 9.89e-4,-1.766119 0.05226,-2.407615 0.27713,-3.467287 0.642823,-3.02924 1.867326,-5.792572 3.594176,-8.110977 3.149104,-4.227864 7.457031,-6.887154 12.569811,-7.759363 1.944714,-0.331758 5.047335,-0.274007 6.925105,0.128912 3.958637,0.849404 7.132973,2.59245 10.051491,5.519332 2.329978,2.336655 3.683356,4.473773 4.631308,7.313285 0.625964,1.875052 0.875383,3.271685 0.961751,5.385445 0.193268,4.728883 -1.421136,9.483938 -4.508634,13.280148 -3.630697,4.464089 -9.447345,7.206142 -15.137437,7.136019 -0.716914,-0.0092 -1.708608,-0.06316 -2.203764,-0.120782 z m 0.732473,-2.048659 c 0.406198,-0.36326 0.373669,-1.292526 -0.157569,-4.50144 -0.759216,-4.586019 -1.873075,-6.690644 -3.538211,-6.685441 -1.792111,0.0058 -5.241676,1.840733 -7.06172,3.756766 -0.910772,0.9588 -1.112968,1.340207 -0.962249,1.815086 0.155067,0.488586 1.698689,1.982817 2.830266,2.739719 2.043268,1.366723 5.215476,2.775525 6.910537,3.069026 0.806438,0.139623 1.704494,0.05168 1.978948,-0.193726 z m 5.987898,-0.01372 c 3.24426,-0.857402 7.243197,-3.247487 8.627586,-5.156558 0.59261,-0.817206 0.472977,-1.118278 -1.06572,-2.6821 -2.272651,-2.309755 -5.72004,-3.815372 -7.337097,-3.204406 -1.404603,0.530693 -2.270382,2.733683 -2.949831,7.505885 -0.295033,2.072249 -0.300508,3.173929 -0.01732,3.487087 0.38098,0.421295 1.275867,0.437621 2.742383,0.04998 z M 18.244485,39.654001 c 2.328288,-2.825635 3.24122,-4.484337 3.33209,-6.054069 0.06914,-1.19432 -0.08406,-1.677243 -0.776347,-2.447232 -0.863753,-0.960701 -2.428843,-1.618876 -4.089471,-1.719762 -1.281254,-0.07784 -1.727443,0.129944 -2.167056,1.009167 -0.2704,0.540807 -0.307408,0.768027 -0.292409,1.795559 0.01673,1.147805 0.217092,2.463983 0.609618,4.005027 0.213048,0.836393 1.369951,4.650597 1.563101,5.15337 l 0.120903,0.314736 0.268669,-0.323152 c 0.147774,-0.177764 0.791672,-0.957872 1.430901,-1.733644 z m 29.51806,1.159012 c 1.431801,-1.598028 2.898614,-8.93417 2.146322,-10.734661 -0.334676,-0.800952 -1.251694,-0.985036 -3.12707,-0.627723 -3.755293,0.715486 -4.778326,3.450562 -2.756252,7.368809 0.660469,1.279801 1.496376,2.454204 2.509127,3.525171 0.688798,0.728391 0.916947,0.815422 1.227873,0.468404 z M 34.666354,37.560688 c 2.812933,-0.890872 4.981368,-2.637062 6.071957,-4.889613 1.216143,-2.511854 1.216156,-5.255922 3.3e-5,-7.924524 -0.857694,-1.882086 -2.058986,-3.315719 -3.60379,-4.300789 -1.78407,-1.137646 -3.320771,-1.524488 -5.679687,-1.429779 -2.349435,0.09434 -3.545347,0.627991 -5.603121,2.500328 -2.04701,1.862544 -3.258984,4.445589 -3.258984,6.94578 0,4.083418 3.468496,8.284132 7.677565,9.29834 1.027195,0.247514 3.31155,0.143712 4.396027,-0.199743 z M 17.432887,25.742674 c 1.729617,-0.359251 3.31023,-1.06247 3.901355,-1.735725 0.813341,-0.926346 0.959883,-2.801476 0.330208,-4.225287 -0.328175,-0.742061 -0.455065,-0.846589 -0.893976,-0.736429 -0.395023,0.09914 -2.216873,1.92268 -3.097765,3.100634 -0.494724,0.661559 -1.853275,3.045439 -2.243346,3.936447 -0.02369,0.05412 0.08776,0.06832 0.247664,0.03156 0.159909,-0.03677 0.950045,-0.203801 1.755859,-0.371179 z m 31.154776,-0.0099 c 0.295939,-0.288175 -0.02058,-1.007977 -1.248316,-2.84038 -1.327314,-1.98081 -2.823593,-3.743935 -3.273008,-3.856732 -0.684627,-0.171829 -1.693531,1.393212 -1.851988,2.872885 -0.106007,0.99009 -0.02881,1.294304 0.471892,1.865408 1.321109,1.506074 5.083812,2.754994 5.90142,1.958803 z M 28.096896,17.918142 c 0.735642,-0.250659 2.132551,-1.529644 2.557368,-2.34148 l 0.297137,-0.567842 -0.307987,-0.252209 c -0.373321,-0.3057 -1.025512,-0.259226 -2.97016,0.211647 -2.336003,0.565633 -3.668261,1.281655 -3.573754,1.920712 0.13354,0.903033 2.545273,1.523956 3.997396,1.029172 z m 10.361,0.02648 c 2.074315,-0.629591 2.249536,-1.434672 0.484629,-2.226712 -0.932213,-0.418356 -3.309429,-1.043524 -4.341268,-1.141683 -0.655654,-0.06236 -0.83917,-0.03938 -0.972868,0.121679 -0.139912,0.168582 -0.117443,0.279338 0.148935,0.733864 0.382503,0.652695 2.066527,2.275817 2.603676,2.509518 0.506327,0.220288 1.357552,0.221645 2.076898,0.0034 z"
       id="path3-3" />
  </g>
</svg>
