<?xml version="1.0" encoding="UTF-8" standalone="no"?>
<svg
   width="64"
   height="64"
   version="1.1"
   id="svg73"
   sodipodi:docname="audacious.svg"
   inkscape:version="1.4.2 (ebf0e940d0, 2025-05-08)"
   xmlns:inkscape="http://www.inkscape.org/namespaces/inkscape"
   xmlns:sodipodi="http://sodipodi.sourceforge.net/DTD/sodipodi-0.dtd"
   xmlns="http://www.w3.org/2000/svg"
   xmlns:svg="http://www.w3.org/2000/svg"
   xmlns:rdf="http://www.w3.org/1999/02/22-rdf-syntax-ns#"
   xmlns:cc="http://creativecommons.org/ns#"
   xmlns:dc="http://purl.org/dc/elements/1.1/">
  <metadata
     id="metadata77">
    <rdf:RDF>
      <cc:Work
         rdf:about="">
        <dc:format>image/svg+xml</dc:format>
        <dc:type
           rdf:resource="http://purl.org/dc/dcmitype/StillImage" />
      </cc:Work>
    </rdf:RDF>
  </metadata>
  <sodipodi:namedview
     pagecolor="#f5f7fa"
     bordercolor="#666666"
     borderopacity="1"
     objecttolerance="10"
     gridtolerance="10"
     guidetolerance="10"
     inkscape:pageopacity="0"
     inkscape:pageshadow="2"
     inkscape:window-width="1377"
     inkscape:window-height="886"
     id="namedview75"
     showgrid="false"
     inkscape:zoom="6.2890624"
     inkscape:cx="46.986336"
     inkscape:cy="40.467081"
     inkscape:window-x="12"
     inkscape:window-y="50"
     inkscape:window-maximized="0"
     inkscape:current-layer="g877"
     inkscape:document-rotation="0"
     inkscape:pagecheckerboard="0"
     inkscape:showpageshadow="2"
     inkscape:deskcolor="#d1d1d1" />
  <defs
     id="defs29" />
  <circle
     cx="32.516094"
     cy="31.877844"
     r="0"
     fill="url(#b)"
     stroke-width="1.5715"
     id="circle41"
     style="fill:url(#b)" />
  <g
     aria-label="GZ"
     transform="matrix(1.2212657,0,0,0.81882264,0.4960938,-0.1661539)"
     id="text93"
     style="font-weight:bold;font-size:11.5263px;line-height:1.25;font-family:sans-serif;-inkscape-font-specification:'sans-serif Bold';fill:#f2f2f2;stroke-width:0.288159" />
  <g
     id="g877"
     transform="matrix(1.1,0,0,1.1,-3.1845928,-3.2065454)">
    <rect
       x="8.3496294"
       y="8.369586"
       width="47.272728"
       height="47.272728"
       rx="9.8825235"
       ry="9.6485243"
       fill="url(#linearGradient862)"
       stroke-width="3.0541"
       id="rect35-7-3"
       style="fill:#414141;fill-opacity:1;stroke:#dfdfdf;stroke-width:2.04545;stroke-dasharray:none;stroke-opacity:1" />
    <path
       id="path8"
       style="fill:#dfdfdf;stroke:none;stroke-width:0.451022;stroke-dasharray:none;stroke-opacity:0.6;fill-opacity:1"
       d="m 43.185196,16.622042 -10.732995,3.353972 c -5.903356,1.844638 -10.754733,3.361489 -10.779613,3.369512 -0.02489,0.0081 2.51493,0.976756 5.64411,2.153095 3.129179,1.176341 5.74477,2.126349 5.810819,2.112128 0.06605,-0.01425 2.348825,-0.721797 5.07334,-1.573853 l 4.953257,-1.549834 0.01569,-3.931804 z m -22.397017,7.261757 v 3.919088 3.917677 l 11.122924,4.176221 c 6.117786,2.296942 11.156518,4.178067 11.197801,4.180453 0.05932,0.0038 0.07491,-0.812044 0.07491,-3.89083 v -3.895076 l -0.165287,-0.06782 c -0.09086,-0.0366 -5.129591,-1.927856 -11.197842,-4.203064 z m 10.136792,12.48627 -5.053561,1.579506 -5.053563,1.579501 -0.01554,3.930391 -0.01551,3.930392 10.732993,-3.353974 c 5.903367,-1.844644 10.754782,-3.361509 10.779616,-3.369511 0.02488,-0.0079 -2.524986,-0.976907 -5.665307,-2.154512 z" />
  </g>
</svg>
