<?xml version="1.0" encoding="UTF-8" standalone="no"?>
<svg
   width="64"
   height="64"
   version="1.1"
   id="svg73"
   sodipodi:docname="Logo.svg"
   inkscape:version="1.3.2 (091e20ef0f, 2023-11-25)"
   xmlns:inkscape="http://www.inkscape.org/namespaces/inkscape"
   xmlns:sodipodi="http://sodipodi.sourceforge.net/DTD/sodipodi-0.dtd"
   xmlns="http://www.w3.org/2000/svg"
   xmlns:svg="http://www.w3.org/2000/svg"
   xmlns:rdf="http://www.w3.org/1999/02/22-rdf-syntax-ns#"
   xmlns:cc="http://creativecommons.org/ns#"
   xmlns:dc="http://purl.org/dc/elements/1.1/">
  <metadata
     id="metadata77">
    <rdf:RDF>
      <cc:Work
         rdf:about="">
        <dc:format>image/svg+xml</dc:format>
        <dc:type
           rdf:resource="http://purl.org/dc/dcmitype/StillImage" />
      </cc:Work>
    </rdf:RDF>
  </metadata>
  <sodipodi:namedview
     pagecolor="#f5f7fa"
     bordercolor="#666666"
     borderopacity="1"
     objecttolerance="10"
     gridtolerance="10"
     guidetolerance="10"
     inkscape:pageopacity="0"
     inkscape:pageshadow="2"
     inkscape:window-width="1377"
     inkscape:window-height="886"
     id="namedview75"
     showgrid="false"
     inkscape:zoom="6.2890624"
     inkscape:cx="4.2931678"
     inkscape:cy="12.004969"
     inkscape:window-x="181"
     inkscape:window-y="77"
     inkscape:window-maximized="0"
     inkscape:current-layer="g877"
     inkscape:document-rotation="0"
     inkscape:pagecheckerboard="0"
     inkscape:showpageshadow="2"
     inkscape:deskcolor="#d1d1d1" />
  <defs
     id="defs29">
    <linearGradient
       id="b"
       x1="399.57"
       x2="399.57"
       y1="545.8"
       y2="517.8"
       gradientTransform="matrix(2.1429,0,0,2.1429,-825.86391,-1107.6662)"
       gradientUnits="userSpaceOnUse">
      <stop
         stop-color="#3889e9"
         offset="0"
         id="stop2" />
      <stop
         stop-color="#5ea5fb"
         offset="1"
         id="stop4" />
    </linearGradient>
    <linearGradient
       id="d"
       x2="1"
       gradientTransform="matrix(14.905727,-4.7106182,4.7106182,14.905727,322.04962,998.26962)"
       gradientUnits="userSpaceOnUse">
      <stop
         stop-color="#fafafa"
         offset="0"
         id="stop7" />
      <stop
         stop-color="#aaa"
         offset="1"
         id="stop8" />
    </linearGradient>
    <linearGradient
       id="e"
       x2="1"
       gradientTransform="matrix(21.439909,0,0,21.439909,26.63554,1159.7788)"
       gradientUnits="userSpaceOnUse">
      <stop
         stop-color="#f0f0f0"
         offset="0"
         id="stop9" />
      <stop
         stop-color="#b7f1ff"
         offset="1"
         id="stop10" />
    </linearGradient>
  </defs>
  <circle
     cx="32.516094"
     cy="31.877844"
     r="0"
     fill="url(#b)"
     stroke-width="1.5715"
     id="circle41"
     style="fill:url(#b)" />
  <g
     aria-label="GZ"
     transform="matrix(1.2212657,0,0,0.81882264,0.4960938,-0.1661539)"
     id="text93"
     style="font-weight:bold;font-size:11.5263px;line-height:1.25;font-family:sans-serif;-inkscape-font-specification:'sans-serif Bold';fill:#f2f2f2;stroke-width:0.288159" />
  <g
     id="g877"
     transform="matrix(1.1,0,0,1.1,-3.1845928,-3.2065454)">
    <rect
       x="6.3010068"
       y="5.4939413"
       width="51.635597"
       height="53.148327"
       rx="10.980581"
       ry="10.720582"
       fill="url(#linearGradient862)"
       stroke-width="3.0541"
       id="rect35-7-3"
       style="fill:#414141;fill-opacity:1;stroke:#dfdfdf;stroke-width:2.27272727;stroke-dasharray:none;stroke-opacity:1" />
    <path
       id="path14"
       style="fill:#dfdfdf;stroke-width:0.189474;fill-opacity:1"
       d="m 32.06794,12.796869 c -2.916692,0.0035 -5.426634,0.949428 -7.306641,2.753907 -1.01894,0.978001 -1.728836,2.103048 -2.18164,3.45703 -0.369927,1.10616 -0.418549,1.497854 -0.455079,3.765625 l -0.0332,2.052734 -0.234375,0.285157 c -0.64531,0.780874 -0.968533,1.387037 -1.898437,3.56836 -1.56626,3.674045 -2.060587,5.397112 -2.126953,7.396483 -0.05403,1.62771 0.168806,2.71878 0.867187,4.240235 0.232683,0.506909 0.376953,0.711028 0.376953,0.533203 0,-0.08913 0.958836,-1.006823 1.388672,-1.328124 0.828223,-0.6191 2.133108,-1.302891 3.263672,-1.712892 l 0.388672,-0.142577 -0.117188,-0.273437 c -0.173801,-0.405468 -0.370817,-1.101678 -0.507814,-1.789063 -0.136798,-0.686375 -0.225623,-2.2592 -0.158203,-2.798828 l 0.04492,-0.357422 0.453125,0.156249 c 2.168712,0.739668 4.454502,0.21291 5.154298,-1.187499 0.162881,-0.32596 0.195311,-0.461197 0.195311,-0.849609 0,-1.066415 -0.61728,-1.965373 -1.933594,-2.818361 -0.58267,-0.377577 -1.000068,-0.754793 -1.154297,-1.042967 -0.05437,-0.101596 -0.02664,-0.158737 0.167969,-0.341798 0.684046,-0.643477 1.421441,-1.164995 2.19336,-1.552734 0.543599,-0.27305 1.522474,-0.620748 1.927735,-0.685548 l 0.249999,-0.04102 -0.36914,-0.394531 C 29.827299,23.22341 29.460569,22.642694 29.269107,22.113269 L 29.132388,21.73241 28.634341,21.60155 c -0.712205,-0.186116 -1.129206,-0.423715 -1.634766,-0.935546 -0.6683,-0.676595 -0.978362,-1.430468 -0.976563,-2.373048 0.0026,-1.348167 0.796413,-2.792541 1.841798,-3.351561 0.342185,-0.182983 0.463175,-0.214528 0.841797,-0.216797 0.380901,-0.0023 0.498205,0.02649 0.851562,0.208984 1.011989,0.522637 2.266881,1.611075 2.81836,2.445311 l 0.251953,0.382814 0.333984,-0.333985 c 0.428709,-0.431162 1.112276,-0.777372 1.628906,-0.824219 1.542837,-0.139899 2.796548,1.624789 2.304688,3.244141 -0.232528,0.765542 -0.846152,1.430702 -1.541016,1.669922 -0.204895,0.07053 -0.24873,0.12306 -0.33789,0.40039 -0.193518,0.601934 -0.776485,1.484042 -1.314453,1.988281 l -0.164063,0.152345 0.556641,0.140624 c 1.449583,0.366434 2.672228,1.055274 3.78125,2.13086 l 0.519531,0.501953 -0.162109,0.21289 c -0.08892,0.116581 -0.492087,0.436555 -0.896485,0.710938 -1.370209,0.929686 -1.967509,1.777376 -1.974609,2.802734 -0.0038,0.548166 0.154698,0.942965 0.554687,1.375 0.413549,0.446683 0.997219,0.761354 1.701172,0.91797 0.649176,0.144427 1.996559,0.09933 2.677735,-0.08984 0.260523,-0.07235 0.491731,-0.131995 0.513671,-0.132812 0.08631,-0.0032 0.120571,1.0803 0.05664,1.794921 -0.101574,1.135406 -0.363907,2.272636 -0.722656,3.132813 -0.03255,0.07806 0.08802,0.149581 0.576171,0.339843 1.712732,0.667556 3.214338,1.616439 4.115235,2.59961 l 0.386719,0.421875 0.28125,-0.591798 c 0.593879,-1.255152 0.85337,-2.304036 0.90039,-3.624999 0.07849,-2.204814 -0.573161,-4.633605 -2.220703,-8.267578 -0.847143,-1.868547 -1.095327,-2.302215 -1.773436,-3.101566 L 42.0777,24.941395 42.04645,22.83202 c -0.03607,-2.330924 -0.08234,-2.709638 -0.455078,-3.824218 -0.452804,-1.353982 -1.1627,-2.479029 -2.18164,-3.45703 -1.88952,-1.813609 -4.40547,-2.757443 -7.341792,-2.753903 z m -2.638673,4.874999 c -0.155249,0.0012 -0.315107,0.03539 -0.470702,0.107426 -0.481423,0.222892 -0.726563,0.600163 -0.726563,1.121095 0,0.506468 0.31627,0.953182 0.798828,1.130858 0.681999,0.251111 1.501225,-0.265797 1.583984,-1 0.08538,-0.757525 -0.512798,-1.36438 -1.185547,-1.359374 z m 4.593751,0.0098 c -0.423623,0.008 -0.833764,0.250793 -1.052734,0.703126 -0.32453,0.670387 0.04777,1.445918 0.804687,1.673827 0.365827,0.110153 0.741233,0.01646 1.0625,-0.265625 0.544378,-0.477967 0.5919,-1.163792 0.115235,-1.691406 -0.261947,-0.289967 -0.600203,-0.426177 -0.929688,-0.419946 z m -1.96875,2.101562 c -0.854493,0.0097 -1.67808,0.413525 -2.486328,1.222657 -0.385899,0.386317 -0.399978,0.411786 -0.367188,0.65625 0.05052,0.376664 0.554704,1.337524 0.951171,1.812501 0.36927,0.442387 1.003599,0.989334 1.523439,1.312499 0.173684,0.107976 0.35396,0.196605 0.40039,0.197265 0.14433,0.0021 1.018668,-0.641238 1.53711,-1.128906 0.721324,-0.678506 1.441406,-1.847259 1.441406,-2.341796 0,-0.160767 -0.903647,-0.989935 -1.400391,-1.285157 -0.558096,-0.331685 -0.994691,-0.45221 -1.599609,-0.445313 z m 0.101563,8.068361 c -0.737747,-0.0066 -1.473251,0.123578 -2.21875,0.388672 -0.445315,0.158352 -1.261718,0.567551 -1.261718,0.632812 0,0.01641 0.07098,0.137732 0.158203,0.269532 0.188667,0.285089 0.410156,0.889441 0.410156,1.11914 v 0.164063 l 0.173828,-0.123047 c 0.322417,-0.227619 0.950841,-0.513012 1.404297,-0.638673 1.371059,-0.379941 2.874063,-0.124041 4.023438,0.685548 l 0.429687,0.302733 0.04492,-0.386718 c 0.02779,-0.23694 0.127053,-0.551023 0.257814,-0.814453 l 0.214843,-0.429688 -0.164063,-0.117187 c -0.344456,-0.245057 -1.203875,-0.63559 -1.740235,-0.791016 -0.583462,-0.169082 -1.158614,-0.256557 -1.732422,-0.261718 z m 3.201173,3.396483 -1.638673,1.226564 -1.640624,1.228515 -0.453126,-0.375001 C 31.37476,33.121331 30.71515,32.568808 30.159737,32.101556 l -1.009766,-0.84961 -0.07031,0.166016 c -0.03857,0.09148 -0.150417,0.261116 -0.248047,0.376954 l -0.177736,0.210937 0.169923,0.136719 c 0.09329,0.07521 0.749955,0.620419 1.458985,1.210937 l 1.289061,1.074219 0.0038,0.994141 0.0038,0.99414 h 0.47461 0.472655 v -0.972656 -0.972656 l 1.595703,-1.185546 c 0.877097,-0.65112 1.615879,-1.201551 1.64258,-1.224611 0.0267,-0.02306 -0.05389,-0.215794 -0.179689,-0.427733 z m 1.294921,1.34375 c -0.04316,0.0033 -0.02592,0.09986 0.0625,0.427735 0.08892,0.329691 0.125412,0.676279 0.128905,1.218751 0.0056,0.865097 -0.08808,1.311828 -0.429687,2.035156 -0.212055,0.448998 -0.214419,0.458537 -0.07813,0.460936 0.07645,0.0013 0.451885,0.06788 0.833984,0.146486 l 0.695313,0.142578 0.113281,-0.251953 c 0.170617,-0.380457 0.347941,-0.949498 0.431641,-1.384766 0.0858,-0.446134 0.104379,-1.639395 0.0332,-2.074219 l -0.04687,-0.292969 -0.392578,-0.04102 c -0.332609,-0.03566 -0.94174,-0.20974 -1.3125,-0.375 -0.01643,-0.0073 -0.0291,-0.01248 -0.03906,-0.01172 z m -9.175781,0.179688 c -0.06683,0.0047 -0.205564,0.03241 -0.359375,0.07227 -0.205081,0.05314 -0.576696,0.11371 -0.824219,0.136719 -0.527476,0.04902 -0.506513,0.01636 -0.564453,0.910157 -0.06081,0.938147 0.117355,1.963609 0.492188,2.84375 l 0.121093,0.287109 0.708985,-0.144532 c 0.389699,-0.07894 0.76655,-0.144048 0.83789,-0.144531 0.123432,-8.35e-4 0.121331,-0.0201 -0.07422,-0.42578 -0.429138,-0.890255 -0.570632,-2.013037 -0.375,-2.978517 0.05857,-0.289087 0.09351,-0.539306 0.07813,-0.554687 -0.0038,-0.0038 -0.01874,-0.0035 -0.04102,-0.002 z m 4.435547,3.722657 c -1.123775,0.01297 -2.303804,0.06366 -2.921875,0.140625 -6.02107,0.74972 -10.337596,3.270391 -10.810547,6.312499 -0.09611,0.618183 -7.53e-4,1.268056 0.281249,1.925781 l 0.203126,0.476563 1.884766,1.558594 c 1.036,0.857463 1.930081,1.573756 1.988281,1.591796 0.0582,0.01804 0.418686,0.164924 0.800781,0.326172 1.691031,0.713617 4.165162,1.275087 6.505859,1.476563 0.921001,0.07924 3.496984,0.08298 4.433594,0.0059 1.702312,-0.14017 3.49997,-0.465164 4.933594,-0.890625 0.830235,-0.246393 2.014457,-0.694791 2.433594,-0.921875 0.178711,-0.09683 1.126319,-0.841579 2.105468,-1.654297 1.701547,-1.412315 1.788097,-1.494017 1.951172,-1.857422 0.25485,-0.567862 0.341797,-0.961022 0.341797,-1.55664 0,-1.13249 -0.467804,-2.107357 -1.496093,-3.115234 -2.095013,-2.053407 -5.838284,-3.411752 -10.404297,-3.775391 -0.294911,-0.02349 -0.696085,-0.03696 -1.148438,-0.04297 -0.339264,-0.0045 -0.707436,-0.0043 -1.082031,0 z m 16.839844,1.892577 c -0.04664,-3.85e-4 -0.08863,0.0014 -0.125,0.0038 -0.71643,0.04932 -1.425542,0.56299 -1.664063,1.205078 -0.05377,0.144757 -0.413557,2.125148 -0.798828,4.400391 -0.749301,4.425101 -0.751328,4.46239 -0.492187,5.048828 0.335076,0.7583 0.680634,0.972056 2.013671,1.246094 0.538541,0.110706 1.107356,0.203278 1.263672,0.205078 0.580572,0.0069 1.230271,-0.448782 1.5,-1.050781 0.07461,-0.166517 0.61435,-2.136447 1.197266,-4.376953 1.16519,-4.478587 1.185895,-4.605151 0.908203,-5.1875 -0.207098,-0.434315 -0.534889,-0.783914 -0.90625,-0.964844 -0.422932,-0.206058 -2.196955,-0.523527 -2.896484,-0.529297 z m -33.322266,0.002 c -0.655857,0.0079 -2.400501,0.319765 -2.833985,0.517579 -0.665181,0.30356 -1.124576,1.000256 -1.128905,1.710938 -0.0018,0.297655 0.233084,1.244969 1.091797,4.419922 0.60128,2.223139 1.135695,4.16189 1.187499,4.306639 0.169652,0.474054 0.672074,0.949188 1.160157,1.097657 0.299639,0.09115 0.637255,0.05818 1.65039,-0.160156 1.374599,-0.296279 1.673273,-0.483396 2.017578,-1.261765 0.263709,-0.596161 0.252798,-0.698776 -0.539062,-5.087892 -0.404222,-2.240507 -0.780432,-4.195287 -0.835938,-4.343749 -0.241151,-0.645015 -0.93575,-1.147616 -1.654297,-1.197267 -0.03335,-0.0023 -0.07151,-0.0025 -0.115234,-0.002 z m 18.371094,1.023439 c 0.02682,-0.0026 0.05217,-1.96e-4 0.07813,0.0098 0.358785,0.137683 0.416276,0.925544 0.236327,3.279297 -0.132333,1.730948 -0.223501,2.238513 -0.460937,2.572265 -0.336895,0.47356 -0.679341,-0.05641 -0.681641,-1.05664 -0.0016,-0.683587 0.236153,-3.644029 0.320313,-3.988281 0.117597,-0.481012 0.320042,-0.797928 0.507812,-0.816407 z m -2.404297,0.002 c 0.043,0.0133 0.08947,0.06009 0.173828,0.15039 0.27513,0.294528 0.3722,0.761225 0.552734,2.69336 0.181363,1.940894 0.175721,2.618808 -0.01953,2.953125 -0.189138,0.323848 -0.392722,0.299818 -0.580078,-0.06837 -0.204373,-0.401628 -0.257409,-0.696575 -0.417968,-2.378908 -0.225985,-2.367822 -0.195011,-3.07478 0.142578,-3.298828 0.06601,-0.04381 0.105446,-0.06407 0.148438,-0.05078 z m 4.482422,1.011718 c 0.157744,0.0035 0.298924,0.156153 0.371093,0.457032 0.06265,0.261105 0.04546,0.4819 -0.117187,1.570311 -0.208555,1.395588 -0.251717,1.556443 -0.494141,1.810548 -0.356829,0.37405 -0.710937,0.06822 -0.710937,-0.615234 0,-0.587146 0.321426,-2.456101 0.478515,-2.785156 0.141379,-0.296133 0.314913,-0.441006 0.472657,-0.437501 z m -6.558594,0.0332 c 0.217827,0.0239 0.457413,0.266273 0.556641,0.634765 0.135753,0.504189 0.441406,2.304951 0.441406,2.601564 0,0.332796 -0.125747,0.641204 -0.28711,0.703125 -0.145658,0.0559 -0.174173,0.05002 -0.332031,-0.06054 -0.254701,-0.178408 -0.384565,-0.564468 -0.617186,-1.835939 -0.236172,-1.290861 -0.247905,-1.608699 -0.06445,-1.888671 0.05721,-0.08731 0.131616,-0.135064 0.210937,-0.150391 0.02974,-0.0057 0.06068,-0.0073 0.0918,-0.0038 z m -3.078125,0.166016 c 0.993442,-0.01178 1.955446,0.722013 2.039062,1.859375 0.06256,0.850935 -0.330307,1.568581 -1.060546,1.937499 -1.060917,0.535992 -2.264606,0.145431 -2.78125,-0.904296 -0.127764,-0.259593 -0.15283,-0.406272 -0.152345,-0.88086 5.06e-4,-0.493928 0.02254,-0.610308 0.169923,-0.890625 0.09329,-0.177421 0.313593,-0.452513 0.490234,-0.611327 0.384733,-0.345909 0.843353,-0.50441 1.294922,-0.509766 z m 12.191407,0.01563 c 0.828058,0 1.445698,0.383901 1.810546,1.124999 0.243453,0.494515 0.276592,1.047331 0.09375,1.580079 -0.150025,0.43713 -0.587145,0.915733 -1.025392,1.123047 -0.372702,0.17632 -0.988982,0.253636 -1.328123,0.166015 -0.651678,-0.16836 -1.253693,-0.702174 -1.45508,-1.289062 -0.179774,-0.523918 -0.144289,-1.096437 0.09766,-1.587891 0.360701,-0.732698 0.981958,-1.117187 1.806639,-1.117187 z" />
  </g>
</svg>
