<?xml version="1.0" encoding="UTF-8" standalone="no"?>
<svg
   width="64"
   height="64"
   version="1.1"
   viewBox="0 0 16.933 16.933"
   id="svg7"
   sodipodi:docname="system-reboot.svg"
   inkscape:version="1.4.2 (ebf0e940d0, 2025-05-08)"
   xmlns:inkscape="http://www.inkscape.org/namespaces/inkscape"
   xmlns:sodipodi="http://sodipodi.sourceforge.net/DTD/sodipodi-0.dtd"
   xmlns="http://www.w3.org/2000/svg"
   xmlns:svg="http://www.w3.org/2000/svg"
   xmlns:rdf="http://www.w3.org/1999/02/22-rdf-syntax-ns#"
   xmlns:cc="http://creativecommons.org/ns#"
   xmlns:dc="http://purl.org/dc/elements/1.1/">
  <sodipodi:namedview
     id="namedview7"
     pagecolor="#9c4444"
     bordercolor="#000000"
     borderopacity="0.25"
     inkscape:showpageshadow="2"
     inkscape:pageopacity="0.0"
     inkscape:pagecheckerboard="0"
     inkscape:deskcolor="#d1d1d1"
     inkscape:zoom="6.15625"
     inkscape:cx="15.756345"
     inkscape:cy="26.639594"
     inkscape:window-width="1226"
     inkscape:window-height="669"
     inkscape:window-x="427"
     inkscape:window-y="205"
     inkscape:window-maximized="0"
     inkscape:current-layer="svg7"
     showgrid="false" />
  <defs
     id="defs2" />
  <metadata
     id="metadata2">
    <rdf:RDF>
      <cc:Work
         rdf:about="">
        <dc:format>image/svg+xml</dc:format>
        <dc:type
           rdf:resource="http://purl.org/dc/dcmitype/StillImage" />
      </cc:Work>
    </rdf:RDF>
  </metadata>
  <path
     style="fill:#dfdfdf;fill-opacity:1;stroke-width:0.830361"
     d="m 8.4778551,2.6539843 a 0.8304425,0.8304425 0 1 0 -0.00322,1.6607186 c 1.1606501,0.00197 2.2673249,0.4894198 3.0522029,1.3444693 0.706248,0.7693875 1.08851,1.7715715 1.088227,2.8073282 h -1.655868 l 1.24554,1.6607206 1.245538,1.660719 1.245536,-1.660719 1.245544,-1.6607207 h -1.66559 C 14.275587,7.017235 13.737423,5.6113296 12.749666,4.5352676 11.651497,3.3389257 10.101799,2.6568183 8.4778551,2.6539843 Z M 3.4827235,5.1450626 2.2371844,6.8057818 0.9916454,8.4665003 h 1.6655839 c 1.855e-4,1.4492655 0.5383524,2.8551717 1.5261102,3.9312337 1.098167,1.196339 2.6478656,1.878446 4.2718101,1.881281 a 0.8304425,0.8304425 0 1 0 0.00322,-1.660717 C 7.2977325,12.616275 6.1910554,12.128882 5.4061735,11.273829 4.699923,10.504442 4.3176658,9.5022576 4.3179486,8.4665003 H 5.9738023 L 4.7282631,6.8057818 Z"
     id="path4-3" />
</svg>
