<?xml version="1.0" encoding="UTF-8" standalone="no"?>
<svg
   width="64"
   height="64"
   version="1.1"
   viewBox="0 0 16.933 16.933"
   id="svg7"
   sodipodi:docname="system-log-out.svg"
   inkscape:version="1.4.2 (ebf0e940d0, 2025-05-08)"
   xmlns:inkscape="http://www.inkscape.org/namespaces/inkscape"
   xmlns:sodipodi="http://sodipodi.sourceforge.net/DTD/sodipodi-0.dtd"
   xmlns="http://www.w3.org/2000/svg"
   xmlns:svg="http://www.w3.org/2000/svg"
   xmlns:rdf="http://www.w3.org/1999/02/22-rdf-syntax-ns#"
   xmlns:cc="http://creativecommons.org/ns#"
   xmlns:dc="http://purl.org/dc/elements/1.1/">
  <sodipodi:namedview
     id="namedview7"
     pagecolor="#9c4444"
     bordercolor="#000000"
     borderopacity="0.25"
     inkscape:showpageshadow="2"
     inkscape:pageopacity="0.0"
     inkscape:pagecheckerboard="0"
     inkscape:deskcolor="#d1d1d1"
     inkscape:zoom="6.15625"
     inkscape:cx="15.756345"
     inkscape:cy="26.639594"
     inkscape:window-width="1226"
     inkscape:window-height="669"
     inkscape:window-x="427"
     inkscape:window-y="205"
     inkscape:window-maximized="0"
     inkscape:current-layer="svg7"
     showgrid="false" />
  <defs
     id="defs2" />
  <metadata
     id="metadata2">
    <rdf:RDF>
      <cc:Work
         rdf:about="">
        <dc:format>image/svg+xml</dc:format>
        <dc:type
           rdf:resource="http://purl.org/dc/dcmitype/StillImage" />
      </cc:Work>
    </rdf:RDF>
  </metadata>
  <path
     style="fill:#dfdfdf;fill-opacity:1;stroke-width:0.822057"
     d="m 7.700603,2.7143304 c -0.17184,0.00475 -0.3431806,0.017013 -0.5137852,0.03693 C 5.8219805,2.9106219 4.5142009,3.5527076 3.5437613,4.6458842 1.6028811,6.8322363 1.614145,10.143132 3.5702633,12.315893 c 1.9560996,2.172764 5.2506076,2.535066 7.6320997,0.83813 0.895929,-0.636456 -0.06165,-1.97837 -0.956118,-1.339882 -1.7105065,1.218823 -4.0467642,0.963296 -5.45174,-0.59729 C 3.3895294,9.6562664 3.3812028,7.308047 4.7752403,5.7377006 6.1692749,4.1673555 8.5039842,3.8942112 10.222966,5.1010748 11.125599,5.7596244 12.09586,4.3814998 11.170257,3.7555717 10.123189,3.0204449 8.9034662,2.6810886 7.700603,2.7143304 Z m 3.43754,2.8748492 V 7.6443639 H 8.6719768 c -0.4540093,0 -0.8220557,0.368055 -0.8220557,0.8220732 0,0.4540182 0.3680464,0.8220729 0.8220557,0.8220729 h 2.4661662 v 2.055185 l 3.699253,-2.8772579 z"
     id="path4-3" />
</svg>
