<?xml version="1.0" encoding="UTF-8" standalone="no"?>
<svg
   clip-rule="evenodd"
   fill-rule="evenodd"
   stroke-linejoin="round"
   stroke-miterlimit="2"
   viewBox="0 0 48 48"
   version="1.1"
   id="svg5"
   sodipodi:docname="system-reboot.svg"
   inkscape:version="1.3.2 (091e20ef0f, 2023-11-25)"
   xmlns:inkscape="http://www.inkscape.org/namespaces/inkscape"
   xmlns:sodipodi="http://sodipodi.sourceforge.net/DTD/sodipodi-0.dtd"
   xmlns="http://www.w3.org/2000/svg"
   xmlns:svg="http://www.w3.org/2000/svg">
  <defs
     id="defs5" />
  <sodipodi:namedview
     id="namedview5"
     pagecolor="#ffffff"
     bordercolor="#000000"
     borderopacity="0.25"
     inkscape:showpageshadow="2"
     inkscape:pageopacity="0.0"
     inkscape:pagecheckerboard="0"
     inkscape:deskcolor="#d1d1d1"
     inkscape:zoom="11.195857"
     inkscape:cx="24.026744"
     inkscape:cy="24.026744"
     inkscape:window-width="1920"
     inkscape:window-height="937"
     inkscape:window-x="0"
     inkscape:window-y="32"
     inkscape:window-maximized="1"
     inkscape:current-layer="svg5" />
  <linearGradient
     id="a"
     x2="1"
     gradientTransform="matrix(.797685 -42.8718 42.8718 .797685 192.201 49.5999)"
     gradientUnits="userSpaceOnUse">
    <stop
       stop-color="#404e5b"
       offset="0"
       id="stop1" />
    <stop
       stop-color="#6c7884"
       offset="1"
       id="stop2" />
  </linearGradient>
  <linearGradient
     id="b"
     x2="1"
     gradientTransform="matrix(0 -28.7697 30.9751 0 23.9795 37.171)"
     gradientUnits="userSpaceOnUse">
    <stop
       stop-color="#00042a"
       offset="0"
       id="stop3" />
    <stop
       stop-color="#001760"
       offset="1"
       id="stop4" />
  </linearGradient>
  <path
     d="m 42.802125,31.363705 c 0.276715,-0.958985 0.08638,-1.99264 -0.513899,-2.790574 -0.600281,-0.797935 -1.519736,-1.292801 -2.518252,-1.308906 -0.06735,-0.0014 -0.117128,0 -0.163979,0 -1.427498,0.0029 -2.682231,0.945809 -3.083395,2.316207 -1.565123,5.358606 -6.524029,9.25604 -12.400927,9.25604 -7.169697,0 -12.974854,-5.7993 -12.974854,-12.957285 0,-7.093565 5.846151,-12.857726 12.922147,-12.957285 v 2.105376 c 0,0.958985 0.68227,1.387966 1.518271,0.958985 l 10.816771,-5.535762 c 0.834537,-0.428982 0.834537,-1.1229644 0,-1.5519457 L 25.587237,3.3745062 c -0.836001,-0.4289813 -1.518271,0 -1.518271,0.9531291 v 2.122945 C 13.405925,6.5516032 4.6593911,15.220539 4.6593911,25.8909 c 0,10.733317 8.7113959,19.438855 19.4637459,19.438855 8.846093,0 16.317395,-5.893002 18.678988,-13.96605 z"
     fill="url(#b)"
     id="path5"
     style="fill:#dfdfdf;fill-opacity:1;stroke-width:1.4641" />
</svg>
