<?xml version="1.0" encoding="UTF-8" standalone="no"?>
<svg
   clip-rule="evenodd"
   fill-rule="evenodd"
   stroke-linejoin="round"
   stroke-miterlimit="2"
   viewBox="0 0 48 48"
   version="1.1"
   id="svg5"
   sodipodi:docname="system-shutdown.svg"
   inkscape:version="1.3.2 (091e20ef0f, 2023-11-25)"
   xmlns:inkscape="http://www.inkscape.org/namespaces/inkscape"
   xmlns:sodipodi="http://sodipodi.sourceforge.net/DTD/sodipodi-0.dtd"
   xmlns="http://www.w3.org/2000/svg"
   xmlns:svg="http://www.w3.org/2000/svg">
  <defs
     id="defs5" />
  <sodipodi:namedview
     id="namedview5"
     pagecolor="#ffffff"
     bordercolor="#000000"
     borderopacity="0.25"
     inkscape:showpageshadow="2"
     inkscape:pageopacity="0.0"
     inkscape:pagecheckerboard="0"
     inkscape:deskcolor="#d1d1d1"
     inkscape:zoom="11.195857"
     inkscape:cx="24.026744"
     inkscape:cy="24.026744"
     inkscape:window-width="1920"
     inkscape:window-height="937"
     inkscape:window-x="0"
     inkscape:window-y="32"
     inkscape:window-maximized="1"
     inkscape:current-layer="svg5" />
  <linearGradient
     id="a"
     x2="1"
     gradientTransform="matrix(.797685 -42.8718 42.8718 .797685 245.191 50.5858)"
     gradientUnits="userSpaceOnUse">
    <stop
       stop-color="#404e5b"
       offset="0"
       id="stop1" />
    <stop
       stop-color="#6c7884"
       offset="1"
       id="stop2" />
  </linearGradient>
  <linearGradient
     id="b"
     x2="1"
     gradientTransform="matrix(0 -29.806 32.0974 0 24.0005 37.673)"
     gradientUnits="userSpaceOnUse">
    <stop
       stop-color="#00042a"
       offset="0"
       id="stop3" />
    <stop
       stop-color="#001760"
       offset="1"
       id="stop4" />
  </linearGradient>
  <path
     d="M 40.389769,17.418886 C 39.110678,14.859373 37.311166,12.713801 34.991232,10.98217 34.32174,10.472397 33.567063,10.274078 32.72587,10.385882 c -0.842523,0.110473 -1.512016,0.508442 -2.003154,1.191245 -0.509774,0.668162 -0.702769,1.418846 -0.58431,2.253383 0.117128,0.834537 0.512436,1.505361 1.180598,2.013803 1.555939,1.176604 2.761825,2.615415 3.611003,4.316433 0.850509,1.699687 1.275098,3.512509 1.275098,5.434473 0,1.653102 -0.320771,3.230337 -0.966306,4.733036 -0.644204,1.501368 -1.513347,2.801755 -2.608761,3.898499 -1.098074,1.095413 -2.395799,1.965887 -3.898498,2.610091 -1.501368,0.644204 -3.079934,0.966306 -4.731705,0.966306 -1.653102,0 -3.230337,-0.322102 -4.733036,-0.966306 -1.501368,-0.644204 -2.801755,-1.514678 -3.897168,-2.610091 -1.095413,-1.096744 -1.965887,-2.397131 -2.610091,-3.898499 -0.644204,-1.501368 -0.964975,-3.079934 -0.964975,-4.733036 0,-1.921964 0.424589,-3.734786 1.275098,-5.434473 0.850509,-1.701018 2.053733,-3.139829 3.612334,-4.316433 0.666831,-0.508442 1.060807,-1.179266 1.179266,-2.013803 0.11979,-0.834537 -0.07454,-1.585221 -0.584309,-2.253383 -0.49247,-0.682803 -1.155308,-1.080772 -1.989845,-1.191245 -0.834537,-0.111804 -1.594538,0.08652 -2.277341,0.596288 -2.321264,1.731631 -4.1207765,3.877203 -5.3998675,6.436716 -1.279091,2.558182 -1.919302,5.28407 -1.919302,8.176333 0,2.479653 0.484484,4.847502 1.454783,7.104878 0.968968,2.257376 2.272017,4.204629 3.9091475,5.841759 1.635799,1.635799 3.583052,2.940179 5.841759,3.909147 2.257376,0.968968 4.625225,1.454783 7.104878,1.454783 2.476991,0 4.847502,-0.485815 7.103547,-1.454783 2.257376,-0.968968 4.204629,-2.273348 5.841759,-3.909147 1.63713,-1.63713 2.940179,-3.584383 3.909147,-5.841759 0.970299,-2.257376 1.454783,-4.625225 1.454783,-7.104878 0,-2.892263 -0.63888,-5.618151 -1.919302,-8.176333 z M 23.998504,25.59655 c 0.82655,0 1.542628,-0.302137 2.145572,-0.906411 0.604274,-0.604274 0.906411,-1.319021 0.906411,-2.145572 V 7.285983 c 0,-0.826551 -0.302137,-1.541298 -0.906411,-2.145572 C 25.541132,4.536137 24.825054,4.234 23.998504,4.234 c -0.826552,0 -1.541299,0.302137 -2.145573,0.906411 -0.604274,0.604274 -0.906411,1.319021 -0.906411,2.145572 v 15.258584 c 0,0.826551 0.302137,1.541298 0.906411,2.145572 0.602943,0.604274 1.31769,0.906411 2.145573,0.906411 z"
     fill="url(#b)"
     id="path5"
     style="fill:#dfdfdf;fill-opacity:1;stroke-width:1.331" />
</svg>
