<?xml version="1.0" encoding="UTF-8" standalone="no"?>
<svg
   width="64"
   height="64"
   version="1.1"
   viewBox="0 0 16.933 16.933"
   id="svg7"
   sodipodi:docname="system-lock-screen.svg"
   inkscape:version="1.4.2 (ebf0e940d0, 2025-05-08)"
   xmlns:inkscape="http://www.inkscape.org/namespaces/inkscape"
   xmlns:sodipodi="http://sodipodi.sourceforge.net/DTD/sodipodi-0.dtd"
   xmlns="http://www.w3.org/2000/svg"
   xmlns:svg="http://www.w3.org/2000/svg"
   xmlns:rdf="http://www.w3.org/1999/02/22-rdf-syntax-ns#"
   xmlns:cc="http://creativecommons.org/ns#"
   xmlns:dc="http://purl.org/dc/elements/1.1/">
  <sodipodi:namedview
     id="namedview7"
     pagecolor="#9c4444"
     bordercolor="#000000"
     borderopacity="0.25"
     inkscape:showpageshadow="2"
     inkscape:pageopacity="0.0"
     inkscape:pagecheckerboard="0"
     inkscape:deskcolor="#d1d1d1"
     inkscape:zoom="6.15625"
     inkscape:cx="15.756345"
     inkscape:cy="26.639594"
     inkscape:window-width="1226"
     inkscape:window-height="669"
     inkscape:window-x="124"
     inkscape:window-y="131"
     inkscape:window-maximized="0"
     inkscape:current-layer="svg7"
     showgrid="false" />
  <defs
     id="defs2" />
  <metadata
     id="metadata2">
    <rdf:RDF>
      <cc:Work
         rdf:about="">
        <dc:format>image/svg+xml</dc:format>
        <dc:type
           rdf:resource="http://purl.org/dc/dcmitype/StillImage" />
      </cc:Work>
    </rdf:RDF>
  </metadata>
  <path
     style="fill:#dfdfdf;fill-opacity:1;stroke-width:0.830361"
     d="m 8.4664993,2.6539842 c -1.840076,0 -3.3214378,1.4813615 -3.3214378,3.3214386 v 1.660719 H 4.3147021 c -0.4600193,0 -0.8303595,0.37034 -0.8303595,0.830359 v 4.9821582 c 0,0.460023 0.3703402,0.830357 0.8303595,0.830357 h 8.3035959 c 0.46002,0 0.830359,-0.370334 0.830359,-0.830357 V 8.4665008 c 0,-0.460019 -0.370339,-0.830359 -0.830359,-0.830359 H 11.78794 v -1.660719 c 0,-1.8400771 -1.481362,-3.3214386 -3.3214407,-3.3214386 z m 0,1.6607192 c 0.9200389,0 1.6607197,0.7406805 1.6607197,1.6607194 v 1.660719 H 6.8057807 v -1.660719 c 0,-0.9200389 0.7406808,-1.6607194 1.6607186,-1.6607194 z"
     id="path4-6" />
</svg>
