<?xml version="1.0" encoding="UTF-8" standalone="no"?>
<svg
   width="64"
   height="64"
   version="1.1"
   id="svg73"
   sodipodi:docname="xfsm-logout.svg"
   inkscape:version="1.3.2 (091e20ef0f, 2023-11-25)"
   xmlns:inkscape="http://www.inkscape.org/namespaces/inkscape"
   xmlns:sodipodi="http://sodipodi.sourceforge.net/DTD/sodipodi-0.dtd"
   xmlns="http://www.w3.org/2000/svg"
   xmlns:svg="http://www.w3.org/2000/svg"
   xmlns:rdf="http://www.w3.org/1999/02/22-rdf-syntax-ns#"
   xmlns:cc="http://creativecommons.org/ns#"
   xmlns:dc="http://purl.org/dc/elements/1.1/">
  <metadata
     id="metadata77">
    <rdf:RDF>
      <cc:Work
         rdf:about="">
        <dc:format>image/svg+xml</dc:format>
        <dc:type
           rdf:resource="http://purl.org/dc/dcmitype/StillImage" />
      </cc:Work>
    </rdf:RDF>
  </metadata>
  <sodipodi:namedview
     pagecolor="#f5f7fa"
     bordercolor="#666666"
     borderopacity="1"
     objecttolerance="10"
     gridtolerance="10"
     guidetolerance="10"
     inkscape:pageopacity="0"
     inkscape:pageshadow="2"
     inkscape:window-width="1377"
     inkscape:window-height="886"
     id="namedview75"
     showgrid="false"
     inkscape:zoom="6.2890624"
     inkscape:cx="30.44969"
     inkscape:cy="48.417392"
     inkscape:window-x="74"
     inkscape:window-y="77"
     inkscape:window-maximized="0"
     inkscape:current-layer="g877"
     inkscape:document-rotation="0"
     inkscape:pagecheckerboard="0"
     inkscape:showpageshadow="2"
     inkscape:deskcolor="#d1d1d1" />
  <defs
     id="defs29" />
  <g
     id="g877"
     transform="matrix(1.1,0,0,1.1,-3.1845928,-3.2065454)">
    <path
       style="fill:#f5f7fa;stroke-width:0.204426;fill-opacity:1"
       d=""
       id="path3" />
    <path
       id="path83"
       style="fill:#dfdfdf;fill-opacity:1;stroke-width:0.261606;stroke-opacity:0.3"
       d="m 34.738576,8.4770366 c 3.455907,-0.00935 4.360911,0.075977 6.1212,0.5819176 9.211862,2.6477428 15.78465,9.8228288 17.410503,19.0021328 0.402416,2.271916 0.334668,6.414559 -0.141535,8.725693 -2.050779,9.952615 -10.255141,17.556259 -20.373587,18.879456 -2.45513,0.321035 -3.734295,0.298573 -6.445195,-0.110122 -2.761994,-0.416358 -5.064307,-1.196787 -7.844944,-2.657976 -2.434816,-1.279458 -3.114077,-2.111724 -3.114077,-3.809232 0,-1.145674 0.114757,-1.426416 0.890183,-2.201869 1.314282,-1.314276 2.46905,-1.236586 5.699702,0.386896 5.215929,2.621159 10.315918,2.666567 15.576656,0.138401 1.914378,-0.919998 2.807749,-1.554358 4.315646,-3.06058 3.327183,-3.3235 4.874964,-6.754527 5.108338,-11.32705 0.169945,-3.330311 -0.352928,-5.846109 -1.830698,-8.816911 -1.517262,-3.050176 -4.456993,-5.971942 -7.524107,-7.47692 -5.296888,-2.599091 -10.890656,-2.474418 -16.130271,0.358591 -2.302648,1.245019 -3.30319,1.423385 -4.510693,0.798964 -2.230044,-1.153205 -2.25896,-4.259046 -0.05358,-5.718569 1.749046,-1.157405 4.142614,-2.2546164 6.492467,-2.9756708 2.067939,-0.6345438 2.710174,-0.7071933 6.353968,-0.717178 z m -15.041917,12.0788254 0.07231,4.089184 0.07239,4.08604 h 6.542694 c 7.296546,0 7.956887,0.121627 8.870392,1.619948 0.970506,1.591813 0.510159,3.571712 -1.047461,4.491812 -0.620691,0.366648 -1.70237,0.427796 -7.552415,0.427796 h -6.825795 v 4.205569 4.205568 L 19.23115,43.203638 C 18.903299,42.941406 15.668393,40.33102 12.04362,37.403289 l -6.5898951,-5.322216 1.365151,-1.11037 c 0.75126,-0.609745 3.9560451,-3.200037 7.1214701,-5.759463 z" />
  </g>
</svg>
