<?xml version="1.0" encoding="UTF-8" standalone="no"?>
<svg
   width="64"
   height="64"
   version="1.1"
   id="svg73"
   sodipodi:docname="partitionmanager.svg"
   inkscape:version="1.3.2 (091e20ef0f, 2023-11-25)"
   xmlns:inkscape="http://www.inkscape.org/namespaces/inkscape"
   xmlns:sodipodi="http://sodipodi.sourceforge.net/DTD/sodipodi-0.dtd"
   xmlns="http://www.w3.org/2000/svg"
   xmlns:svg="http://www.w3.org/2000/svg"
   xmlns:rdf="http://www.w3.org/1999/02/22-rdf-syntax-ns#"
   xmlns:cc="http://creativecommons.org/ns#"
   xmlns:dc="http://purl.org/dc/elements/1.1/">
  <metadata
     id="metadata77">
    <rdf:RDF>
      <cc:Work
         rdf:about="">
        <dc:format>image/svg+xml</dc:format>
        <dc:type
           rdf:resource="http://purl.org/dc/dcmitype/StillImage" />
      </cc:Work>
    </rdf:RDF>
  </metadata>
  <sodipodi:namedview
     pagecolor="#f5f7fa"
     bordercolor="#666666"
     borderopacity="1"
     objecttolerance="10"
     gridtolerance="10"
     guidetolerance="10"
     inkscape:pageopacity="0"
     inkscape:pageshadow="2"
     inkscape:window-width="1377"
     inkscape:window-height="886"
     id="namedview75"
     showgrid="false"
     inkscape:zoom="6.2890624"
     inkscape:cx="47.701864"
     inkscape:cy="45.396274"
     inkscape:window-x="74"
     inkscape:window-y="53"
     inkscape:window-maximized="0"
     inkscape:current-layer="g877"
     inkscape:document-rotation="0"
     inkscape:pagecheckerboard="0"
     inkscape:showpageshadow="2"
     inkscape:deskcolor="#d1d1d1" />
  <defs
     id="defs29">
    <linearGradient
       id="b"
       x1="399.57"
       x2="399.57"
       y1="545.8"
       y2="517.8"
       gradientTransform="matrix(2.1429,0,0,2.1429,-825.86391,-1107.6662)"
       gradientUnits="userSpaceOnUse">
      <stop
         stop-color="#3889e9"
         offset="0"
         id="stop2" />
      <stop
         stop-color="#5ea5fb"
         offset="1"
         id="stop4" />
    </linearGradient>
  </defs>
  <circle
     cx="32.516094"
     cy="31.877844"
     r="0"
     fill="url(#b)"
     stroke-width="1.5715"
     id="circle41"
     style="fill:url(#b)" />
  <g
     aria-label="GZ"
     transform="matrix(1.2212657,0,0,0.81882264,0.4960938,-0.1661539)"
     id="text93"
     style="font-weight:bold;font-size:11.5263px;line-height:1.25;font-family:sans-serif;-inkscape-font-specification:'sans-serif Bold';fill:#f2f2f2;stroke-width:0.288159" />
  <g
     id="g877"
     transform="matrix(1.1,0,0,1.1,-3.1845928,-3.2065454)">
    <rect
       x="6.3010068"
       y="5.4939413"
       width="51.635597"
       height="53.148327"
       rx="10.980581"
       ry="10.720582"
       fill="url(#linearGradient862)"
       stroke-width="3.0541"
       id="rect35-7-3"
       style="fill:#414141;fill-opacity:1;stroke:#dfdfdf;stroke-width:2.27272727;stroke-dasharray:none;stroke-opacity:1" />
    <path
       style="color:#000000;clip-rule:nonzero;display:inline;overflow:visible;visibility:visible;isolation:auto;mix-blend-mode:normal;color-interpolation:sRGB;color-interpolation-filters:linearRGB;solid-color:#000000;solid-opacity:1;fill:#dfdfdf;fill-opacity:1;fill-rule:nonzero;stroke:none;stroke-width:1.31769;stroke-linecap:butt;stroke-linejoin:miter;stroke-miterlimit:4;stroke-dasharray:none;stroke-dashoffset:0;stroke-opacity:0.3;marker:none;color-rendering:auto;image-rendering:auto;shape-rendering:auto;text-rendering:auto;enable-background:accumulate"
       d="m 29.27559,11.443254 c -0.51163,0 -0.93799,2.035603 -1.188258,4.944762 a 15.636079,16.106936 0 0 0 -3.778533,1.635861 c -2.182721,-1.884435 -3.887744,-3.021949 -4.250502,-2.648266 l -4.022848,4.143993 c -0.36276,0.373677 0.741505,2.130047 2.570846,4.378497 a 15.636079,16.106936 0 0 0 -1.57416,3.892322 c -2.832023,0.257556 -4.81409,0.696114 -4.81409,1.224036 v 5.857063 c 0,0.527035 1.976096,0.966236 4.800213,1.22404 a 15.636079,16.106936 0 0 0 1.582485,3.900891 c -1.825186,2.244427 -2.927617,3.996691 -2.565294,4.369924 l 4.02285,4.143989 c 0.361977,0.372908 2.060877,-0.760032 4.236621,-2.636821 a 15.636079,16.106936 0 0 0 3.792413,1.610115 c 0.250027,2.917315 0.67577,4.959063 1.188257,4.959063 h 5.685843 c 0.511632,0 0.93799,-2.035601 1.188257,-4.944758 a 15.636079,16.106936 0 0 0 3.778534,-1.635862 c 2.182722,1.884431 3.887741,3.021943 4.250501,2.648263 l 4.022852,-4.143989 c 0.362756,-0.373641 -0.74151,-2.130051 -2.570851,-4.378501 a 15.636079,16.106936 0 0 0 1.574155,-3.892314 c 2.832032,-0.257561 4.814093,-0.696117 4.814093,-1.22404 v -5.857063 c 0,-0.527036 -1.976097,-0.966234 -4.800204,-1.224036 a 15.636079,16.106936 0 0 0 -1.582491,-3.900899 c 1.825184,-2.244425 2.927618,-3.996688 2.565298,-4.36992 l -4.022852,-4.143993 c -0.361977,-0.37288 -2.060874,0.760037 -4.236624,2.636826 A 15.636079,16.106936 0 0 0 36.14969,16.402314 c -0.250028,-2.917308 -0.67577,-4.959057 -1.188257,-4.959057 z m 2.842921,13.178401 a 7.1073091,7.3213345 0 0 1 7.10731,7.321336 7.1073091,7.3213345 0 0 1 -7.10731,7.321332 7.1073091,7.3213345 0 0 1 -7.10731,-7.321332 7.1073091,7.3213345 0 0 1 7.10731,-7.321336 z"
       id="path4690"
       inkscape:connector-curvature="0" />
    <rect
       x="34.795551"
       y="33.974232"
       width="24.697144"
       height="25.420679"
       rx="5.2519779"
       ry="5.1276212"
       fill="url(#linearGradient862)"
       stroke-width="3.0541"
       id="rect35-7-3-9"
       style="fill:#414141;fill-opacity:1;stroke:#dfdfdf;stroke-width:2.27273;stroke-dasharray:none;stroke-opacity:1" />
    <g
       id="g206"
       transform="matrix(1.6836916,0,0,1.6836916,27.187564,26.936093)"
       style="fill:#dfdfdf;fill-opacity:1;stroke:none;stroke-width:0.646793;stroke-dasharray:none;stroke-opacity:0.3">
      <path
         style="fill:#dfdfdf;fill-opacity:1;stroke:none;stroke-width:0.646793;stroke-dasharray:none;stroke-opacity:0.3"
         d="m 8,7 h 8 V 9 H 8 Z"
         id="path4" />
      <path
         style="fill:#dfdfdf;fill-opacity:1;stroke:none;stroke-width:0.646793;stroke-dasharray:none;stroke-opacity:0.3"
         d="m 8,11 h 8 v 2 H 8 Z"
         id="path6" />
      <path
         style="fill:#dfdfdf;fill-opacity:1;stroke:none;stroke-width:0.646793;stroke-dasharray:none;stroke-opacity:0.3"
         d="m 8,15 h 8 v 2 H 8 Z"
         id="path8" />
    </g>
  </g>
</svg>
