<?xml version="1.0" encoding="UTF-8" standalone="no"?>
<svg
   width="64"
   height="64"
   version="1.1"
   id="svg73"
   sodipodi:docname="audacious.svg"
   inkscape:version="1.4.2 (ebf0e940d0, 2025-05-08)"
   xmlns:inkscape="http://www.inkscape.org/namespaces/inkscape"
   xmlns:sodipodi="http://sodipodi.sourceforge.net/DTD/sodipodi-0.dtd"
   xmlns="http://www.w3.org/2000/svg"
   xmlns:svg="http://www.w3.org/2000/svg"
   xmlns:rdf="http://www.w3.org/1999/02/22-rdf-syntax-ns#"
   xmlns:cc="http://creativecommons.org/ns#"
   xmlns:dc="http://purl.org/dc/elements/1.1/">
  <metadata
     id="metadata77">
    <rdf:RDF>
      <cc:Work
         rdf:about="">
        <dc:format>image/svg+xml</dc:format>
        <dc:type
           rdf:resource="http://purl.org/dc/dcmitype/StillImage" />
      </cc:Work>
    </rdf:RDF>
  </metadata>
  <sodipodi:namedview
     pagecolor="#f5f7fa"
     bordercolor="#666666"
     borderopacity="1"
     objecttolerance="10"
     gridtolerance="10"
     guidetolerance="10"
     inkscape:pageopacity="0"
     inkscape:pageshadow="2"
     inkscape:window-width="1377"
     inkscape:window-height="886"
     id="namedview75"
     showgrid="false"
     inkscape:zoom="6.2890624"
     inkscape:cx="47.622361"
     inkscape:cy="45.396274"
     inkscape:window-x="264"
     inkscape:window-y="75"
     inkscape:window-maximized="0"
     inkscape:current-layer="g877"
     inkscape:document-rotation="0"
     inkscape:pagecheckerboard="0"
     inkscape:showpageshadow="2"
     inkscape:deskcolor="#d1d1d1" />
  <defs
     id="defs29" />
  <circle
     cx="32.516094"
     cy="31.877844"
     r="0"
     fill="url(#b)"
     stroke-width="1.5715"
     id="circle41"
     style="fill:url(#b)" />
  <g
     aria-label="GZ"
     transform="matrix(1.2212657,0,0,0.81882264,0.4960938,-0.1661539)"
     id="text93"
     style="font-weight:bold;font-size:11.5263px;line-height:1.25;font-family:sans-serif;-inkscape-font-specification:'sans-serif Bold';fill:#f2f2f2;stroke-width:0.288159" />
  <g
     id="g877"
     transform="matrix(1.1,0,0,1.1,-3.1845928,-3.2065454)">
    <rect
       x="8.3496294"
       y="8.369586"
       width="47.272728"
       height="47.272728"
       rx="9.8825235"
       ry="9.6485243"
       fill="url(#linearGradient862)"
       stroke-width="3.0541"
       id="rect35-7-3"
       style="fill:#414141;fill-opacity:1;stroke:#dfdfdf;stroke-width:2.04545;stroke-dasharray:none;stroke-opacity:1" />
    <path
       style="fill:#dfdfdf;stroke-width:0.879332;fill-opacity:1"
       d="m 18.907833,19.695933 c -1.278942,0 -2.309968,1.034429 -2.309968,2.306534 v 9.811782 c 0,0.615533 0.247519,1.197298 0.678391,1.635011 l 10.189623,10.189622 c 0.902782,0.90278 2.36037,0.90278 3.263152,0 l 9.811784,-9.811785 c 0.902781,-0.902783 0.902781,-2.367208 0,-3.263151 L 30.351192,20.374325 C 29.920319,19.943451 29.331716,19.695933 28.71618,19.695933 Z m 13.626236,0 9.437381,9.444249 c 0.813868,0.813872 1.265757,1.90294 1.265757,3.058776 0,1.155834 -0.445053,2.234629 -1.265757,3.05534 l -8.372563,8.365694 0.02234,0.01871 c 0.902781,0.902784 2.360369,0.902784 3.263148,0 l 9.811779,-9.811552 c 0.902838,-0.902783 0.902728,-2.367209 0.0069,-3.263152 L 36.513396,20.374325 c -0.437713,-0.430874 -1.019478,-0.678392 -1.635009,-0.678392 z m -10.660203,2.638 c 1.459487,0 2.638001,1.181505 2.638001,2.643153 0,1.461645 -1.186318,2.632849 -2.638001,2.632849 -1.451681,0 -2.638001,-1.181503 -2.638001,-2.643152 0,-1.461647 1.178516,-2.63285 2.638001,-2.63285 z"
       id="path3" />
  </g>
</svg>
