<?xml version="1.0" encoding="UTF-8" standalone="no"?>
<svg
   width="64"
   height="64"
   version="1.1"
   id="svg73"
   sodipodi:docname="audacious.svg"
   inkscape:version="1.4.2 (ebf0e940d0, 2025-05-08)"
   xmlns:inkscape="http://www.inkscape.org/namespaces/inkscape"
   xmlns:sodipodi="http://sodipodi.sourceforge.net/DTD/sodipodi-0.dtd"
   xmlns="http://www.w3.org/2000/svg"
   xmlns:svg="http://www.w3.org/2000/svg"
   xmlns:rdf="http://www.w3.org/1999/02/22-rdf-syntax-ns#"
   xmlns:cc="http://creativecommons.org/ns#"
   xmlns:dc="http://purl.org/dc/elements/1.1/">
  <metadata
     id="metadata77">
    <rdf:RDF>
      <cc:Work
         rdf:about="">
        <dc:format>image/svg+xml</dc:format>
        <dc:type
           rdf:resource="http://purl.org/dc/dcmitype/StillImage" />
      </cc:Work>
    </rdf:RDF>
  </metadata>
  <sodipodi:namedview
     pagecolor="#f5f7fa"
     bordercolor="#666666"
     borderopacity="1"
     objecttolerance="10"
     gridtolerance="10"
     guidetolerance="10"
     inkscape:pageopacity="0"
     inkscape:pageshadow="2"
     inkscape:window-width="1377"
     inkscape:window-height="886"
     id="namedview75"
     showgrid="false"
     inkscape:zoom="6.2890624"
     inkscape:cx="47.622361"
     inkscape:cy="45.396274"
     inkscape:window-x="264"
     inkscape:window-y="75"
     inkscape:window-maximized="0"
     inkscape:current-layer="g877"
     inkscape:document-rotation="0"
     inkscape:pagecheckerboard="0"
     inkscape:showpageshadow="2"
     inkscape:deskcolor="#d1d1d1" />
  <defs
     id="defs29" />
  <circle
     cx="32.516094"
     cy="31.877844"
     r="0"
     fill="url(#b)"
     stroke-width="1.5715"
     id="circle41"
     style="fill:url(#b)" />
  <g
     aria-label="GZ"
     transform="matrix(1.2212657,0,0,0.81882264,0.4960938,-0.1661539)"
     id="text93"
     style="font-weight:bold;font-size:11.5263px;line-height:1.25;font-family:sans-serif;-inkscape-font-specification:'sans-serif Bold';fill:#f2f2f2;stroke-width:0.288159" />
  <g
     id="g877"
     transform="matrix(1.1,0,0,1.1,-3.1845928,-3.2065454)">
    <rect
       x="8.3496294"
       y="8.369586"
       width="47.272728"
       height="47.272728"
       rx="9.8825235"
       ry="9.6485243"
       fill="url(#linearGradient862)"
       stroke-width="3.0541"
       id="rect35-7-3"
       style="fill:#414141;fill-opacity:1;stroke:#dfdfdf;stroke-width:2.04545;stroke-dasharray:none;stroke-opacity:1" />
    <path
       style="fill:#dfdfdf;stroke-width:1.02846;fill-opacity:1"
       d="m 33.432899,46.458264 c -4.030815,-1.454289 -6.143185,-1.135029 -7.79992,-1.082399 -1.760188,0.152077 -3.463597,0.607022 -5.189604,1.174213 -0.945849,0.275798 -0.947099,0.261449 -0.06336,-0.726709 2.719779,-2.379918 5.878189,-4.326992 9.031657,-4.96396 2.289458,0 3.804308,-1.83343 3.314789,-3.35578 -1.838441,-2.993308 -6.911239,-6.900724 -6.911239,-7.96557 0,-0.891294 1.556421,-3.154348 3.590957,-5.302957 0.900259,-0.950733 2.11151,-1.711125 1.830702,-1.969741 -0.585133,-0.538869 -6.19665,-1.572547 -8.818907,-1.572547 -2.094421,0 -3.940575,1.410987 -3.940575,2.794188 0,0.383735 0.256808,1.449448 1.074112,2.368247 l 1.486013,1.670538 c -0.982919,1.120964 -1.402817,2.336044 -3.09338,2.336044 -2.424671,0 -2.424671,-1.963043 -2.411847,-3.872474 0.342368,-4.675753 7.479457,-10.024139 14.229993,-9.353056 4.269777,0.425232 8.012468,0.66512 12.1,0.971132 2.27411,0.112201 3.699773,-0.08529 5.832629,-0.893128 1.545607,-0.585417 0.55993,1.298041 -1.753907,3.351413 -2.783035,2.469759 -4.429654,3.094883 -8.887293,2.684017 -3.334142,-0.307311 -4.246364,0.340999 -5.0102,2.375662 -0.606157,1.614658 0.877734,3.153546 4.026306,6.439559 1.552605,1.620371 2.097685,2.666982 2.086921,3.691112 -0.0096,0.916496 -0.423158,1.814984 -1.628237,3.090565 -1.062503,1.124662 -2.493018,2.243415 -2.341053,2.486104 0.476777,0.761449 3.633506,2.486205 5.35402,2.486205 0.906855,0 3.440631,-0.569509 4.458563,-1.082087 1.72183,-0.867028 2.452687,-0.859214 2.452687,0.02639 0,0.701183 -6.241859,5.177769 -9.341406,5.169665 -0.56384,-0.0017 -2.219055,-0.448129 -3.678431,-0.974687 z"
       id="path3" />
  </g>
</svg>
