<?xml version="1.0" encoding="UTF-8" standalone="no"?>
<svg
   width="64"
   height="64"
   version="1.1"
   id="svg73"
   sodipodi:docname="audacious.svg"
   inkscape:version="1.4.2 (ebf0e940d0, 2025-05-08)"
   xmlns:inkscape="http://www.inkscape.org/namespaces/inkscape"
   xmlns:sodipodi="http://sodipodi.sourceforge.net/DTD/sodipodi-0.dtd"
   xmlns="http://www.w3.org/2000/svg"
   xmlns:svg="http://www.w3.org/2000/svg"
   xmlns:rdf="http://www.w3.org/1999/02/22-rdf-syntax-ns#"
   xmlns:cc="http://creativecommons.org/ns#"
   xmlns:dc="http://purl.org/dc/elements/1.1/">
  <metadata
     id="metadata77">
    <rdf:RDF>
      <cc:Work
         rdf:about="">
        <dc:format>image/svg+xml</dc:format>
        <dc:type
           rdf:resource="http://purl.org/dc/dcmitype/StillImage" />
      </cc:Work>
    </rdf:RDF>
  </metadata>
  <sodipodi:namedview
     pagecolor="#f5f7fa"
     bordercolor="#666666"
     borderopacity="1"
     objecttolerance="10"
     gridtolerance="10"
     guidetolerance="10"
     inkscape:pageopacity="0"
     inkscape:pageshadow="2"
     inkscape:window-width="1377"
     inkscape:window-height="886"
     id="namedview75"
     showgrid="false"
     inkscape:zoom="6.2890624"
     inkscape:cx="46.82733"
     inkscape:cy="41.739131"
     inkscape:window-x="0"
     inkscape:window-y="49"
     inkscape:window-maximized="0"
     inkscape:current-layer="g877"
     inkscape:document-rotation="0"
     inkscape:pagecheckerboard="0"
     inkscape:showpageshadow="2"
     inkscape:deskcolor="#d1d1d1" />
  <defs
     id="defs29" />
  <circle
     cx="32.516094"
     cy="31.877844"
     r="0"
     fill="url(#b)"
     stroke-width="1.5715"
     id="circle41"
     style="fill:url(#b)" />
  <g
     aria-label="GZ"
     transform="matrix(1.2212657,0,0,0.81882264,0.4960938,-0.1661539)"
     id="text93"
     style="font-weight:bold;font-size:11.5263px;line-height:1.25;font-family:sans-serif;-inkscape-font-specification:'sans-serif Bold';fill:#f2f2f2;stroke-width:0.288159" />
  <g
     id="g877"
     transform="matrix(1.1,0,0,1.1,-3.1845928,-3.2065454)">
    <rect
       x="8.3496294"
       y="8.369586"
       width="47.272728"
       height="47.272728"
       rx="9.8825235"
       ry="9.6485243"
       fill="url(#linearGradient862)"
       stroke-width="3.0541"
       id="rect35-7-3"
       style="fill:#414141;fill-opacity:1;stroke:#dfdfdf;stroke-width:2.04545;stroke-dasharray:none;stroke-opacity:1" />
    <path
       id="path10"
       style="fill:#dfdfdf;fill-opacity:1;stroke:none;stroke-width:0.4725;stroke-dasharray:none;stroke-opacity:0.6"
       d="m 32.001566,16.74682 c -5.647622,0.01183 -11.17519,3.083784 -13.873026,8.503985 -1.179684,2.370094 -1.59856,4.205013 -1.581046,6.921131 0.01018,1.578249 0.08548,2.237023 0.392549,3.415345 1.560074,5.986722 6.287846,10.361687 12.386051,11.463463 2.361639,0.426685 5.248551,0.20703 7.543426,-0.575252 7.642352,-2.605195 12.007093,-10.432337 10.115778,-18.140389 -0.854682,-3.48323 -3.273362,-6.877942 -6.40014,-8.985169 -2.634556,-1.775486 -5.625313,-2.609312 -8.583592,-2.603114 z m 0.0832,3.245297 c 2.222882,0.002 2.395984,0.02415 3.686691,0.473951 2.166185,0.754903 3.288294,1.455161 4.896888,3.055357 1.175237,1.169102 1.563742,1.677095 2.136398,2.793056 1.07729,2.099365 1.383955,3.361265 1.380244,5.707312 -0.0033,2.306604 -0.222031,3.268236 -1.190296,5.264112 -1.624992,3.349533 -4.766291,5.806973 -8.377364,6.552102 -6.622666,1.366569 -12.929556,-2.506515 -14.565864,-8.945373 -0.409988,-1.61331 -0.409649,-4.067293 0,-5.776054 0.816695,-3.406659 3.202864,-6.365494 6.392917,-7.925112 2.100816,-1.02709 2.924087,-1.201667 5.640386,-1.199351 z m 4.321641,3.386399 c -0.270813,-0.0047 -0.550108,0.07292 -0.725401,0.231551 -0.145208,0.131397 -1.029333,1.575851 -1.966357,3.210927 -1.695668,2.958895 -1.707876,2.974657 -2.411363,3.225401 -0.819718,0.292174 -1.319107,0.894098 -1.430897,1.727571 l -0.07597,0.568017 -3.730105,1.912084 c -2.051624,1.051865 -3.815151,2.013996 -3.918242,2.138209 -0.142652,0.171906 -0.14699,0.315883 -0.01822,0.598771 0.194114,0.426037 0.819645,0.505472 1.309699,0.166441 0.163192,-0.112922 1.812858,-0.967748 3.666779,-1.899416 3.333487,-1.675223 3.375333,-1.692454 3.784392,-1.450819 0.565561,0.33408 1.611943,0.309935 2.203332,-0.05065 0.719035,-0.438421 0.999186,-1.093853 0.906297,-2.118308 l -0.07778,-0.853836 1.790887,-3.133143 c 1.846736,-3.231102 1.907705,-3.40678 1.371203,-4.01773 -0.14419,-0.164193 -0.407546,-0.250359 -0.678365,-0.255067 z m -4.473594,7.514477 c 1.069931,0 1.612058,1.221259 0.857452,1.930175 -0.748714,0.703379 -1.968163,0.221834 -1.968163,-0.77605 0,-0.731615 0.407481,-1.154125 1.110711,-1.154125 z" />
  </g>
</svg>
