<?xml version="1.0" encoding="UTF-8" standalone="no"?>
<svg
   width="64"
   height="64"
   version="1.1"
   id="svg73"
   sodipodi:docname="Logo.svg"
   inkscape:version="1.3.2 (091e20ef0f, 2023-11-25)"
   xmlns:inkscape="http://www.inkscape.org/namespaces/inkscape"
   xmlns:sodipodi="http://sodipodi.sourceforge.net/DTD/sodipodi-0.dtd"
   xmlns="http://www.w3.org/2000/svg"
   xmlns:svg="http://www.w3.org/2000/svg"
   xmlns:rdf="http://www.w3.org/1999/02/22-rdf-syntax-ns#"
   xmlns:cc="http://creativecommons.org/ns#"
   xmlns:dc="http://purl.org/dc/elements/1.1/">
  <metadata
     id="metadata77">
    <rdf:RDF>
      <cc:Work
         rdf:about="">
        <dc:format>image/svg+xml</dc:format>
        <dc:type
           rdf:resource="http://purl.org/dc/dcmitype/StillImage" />
      </cc:Work>
    </rdf:RDF>
  </metadata>
  <sodipodi:namedview
     pagecolor="#f5f7fa"
     bordercolor="#666666"
     borderopacity="1"
     objecttolerance="10"
     gridtolerance="10"
     guidetolerance="10"
     inkscape:pageopacity="0"
     inkscape:pageshadow="2"
     inkscape:window-width="1377"
     inkscape:window-height="886"
     id="namedview75"
     showgrid="false"
     inkscape:zoom="6.2890624"
     inkscape:cx="30.211181"
     inkscape:cy="31.085715"
     inkscape:window-x="181"
     inkscape:window-y="77"
     inkscape:window-maximized="0"
     inkscape:current-layer="g877"
     inkscape:document-rotation="0"
     inkscape:pagecheckerboard="0"
     inkscape:showpageshadow="2"
     inkscape:deskcolor="#d1d1d1" />
  <defs
     id="defs29">
    <linearGradient
       id="b"
       x1="399.57"
       x2="399.57"
       y1="545.8"
       y2="517.8"
       gradientTransform="matrix(2.1429,0,0,2.1429,-825.86391,-1107.6662)"
       gradientUnits="userSpaceOnUse">
      <stop
         stop-color="#3889e9"
         offset="0"
         id="stop2" />
      <stop
         stop-color="#5ea5fb"
         offset="1"
         id="stop4" />
    </linearGradient>
    <linearGradient
       id="d"
       x2="1"
       gradientTransform="matrix(14.905727,-4.7106182,4.7106182,14.905727,322.04962,998.26962)"
       gradientUnits="userSpaceOnUse">
      <stop
         stop-color="#fafafa"
         offset="0"
         id="stop7" />
      <stop
         stop-color="#aaa"
         offset="1"
         id="stop8" />
    </linearGradient>
    <linearGradient
       id="e"
       x2="1"
       gradientTransform="matrix(21.439909,0,0,21.439909,26.63554,1159.7788)"
       gradientUnits="userSpaceOnUse">
      <stop
         stop-color="#f0f0f0"
         offset="0"
         id="stop9" />
      <stop
         stop-color="#b7f1ff"
         offset="1"
         id="stop10" />
    </linearGradient>
    <linearGradient
       id="b-3"
       x2="1"
       gradientTransform="matrix(0,21.143273,-21.143273,0,-327.20917,21.25088)"
       gradientUnits="userSpaceOnUse">
      <stop
         stop-color="#545454"
         offset="0"
         id="stop3" />
      <stop
         stop-color="#242424"
         offset="1"
         id="stop4-6" />
    </linearGradient>
  </defs>
  <circle
     cx="32.516094"
     cy="31.877844"
     r="0"
     fill="url(#b)"
     stroke-width="1.5715"
     id="circle41"
     style="fill:url(#b)" />
  <g
     aria-label="GZ"
     transform="matrix(1.2212657,0,0,0.81882264,0.4960938,-0.1661539)"
     id="text93"
     style="font-weight:bold;font-size:11.5263px;line-height:1.25;font-family:sans-serif;-inkscape-font-specification:'sans-serif Bold';fill:#f2f2f2;stroke-width:0.288159" />
  <g
     id="g877"
     transform="matrix(1.1,0,0,1.1,-3.1845928,-3.2065454)">
    <rect
       x="6.3010068"
       y="5.4939413"
       width="51.635597"
       height="53.148327"
       rx="10.980581"
       ry="10.720582"
       fill="url(#linearGradient862)"
       stroke-width="3.0541"
       id="rect35-7-3"
       style="fill:#414141;fill-opacity:1;stroke:#dfdfdf;stroke-width:2.27272727;stroke-dasharray:none;stroke-opacity:1" />
    <path
       d="m 33.904647,48.975588 c -4.664624,-1.682251 -7.109671,-1.311834 -9.027642,-1.251802 -2.038026,0.175688 -4.008706,0.702764 -6.005738,1.358681 -1.095147,0.319174 -1.096611,0.303069 -0.07467,-0.840393 3.149279,-2.755433 6.805137,-5.008686 10.453674,-5.745129 2.650021,0 4.402549,-2.121481 3.835942,-3.884257 -2.127337,-3.464061 -7.998378,-7.986666 -7.998378,-9.219438 0,-1.030726 1.800843,-3.651462 4.156578,-6.137507 1.040977,-1.099539 2.443584,-1.980927 2.118554,-2.279604 -0.676414,-0.623706 -7.172626,-1.819876 -10.206241,-1.819876 -2.424549,0 -4.562135,1.633936 -4.562135,3.2342 0,0.443619 0.298676,1.677856 1.244485,2.740792 l 1.720317,1.934076 c -1.137607,1.297193 -1.623687,2.702732 -3.581189,2.702732 -2.80668,0 -2.80668,-2.270819 -2.790575,-4.481613 0.395308,-5.411314 8.65576,-11.601529 16.468198,-10.824092 4.941337,0.490474 9.273609,0.768653 14.004116,1.122965 2.632452,0.130305 4.282492,-0.0981 6.750965,-1.033654 1.78913,-0.677879 0.648597,1.502166 -2.029242,3.878404 -3.22102,2.859384 -5.127279,3.581185 -10.285303,3.10682 -3.859369,-0.35578 -4.914984,0.395304 -5.7993,2.749576 -0.701305,1.869656 1.014621,3.650002 4.658766,7.452269 1.796451,1.87698 2.427478,3.086327 2.415765,4.272244 -0.01023,1.061473 -0.489009,2.100984 -1.884296,3.576797 -1.229844,1.303049 -2.885742,2.597316 -2.708585,2.87842 0.550501,0.881388 4.204895,2.876957 6.194607,2.876957 1.049759,0 3.983816,-0.658845 5.162416,-1.251806 1.991176,-1.004369 2.837425,-0.995588 2.837425,0.02928 0,0.812576 -7.223868,5.994026 -10.810913,5.983777 -0.652989,-0.0029 -2.568032,-0.518292 -4.257603,-1.128821 z"
       fill="url(#b)"
       fill-rule="nonzero"
       id="path4"
       style="fill:#dfdfdf;fill-opacity:1;stroke-width:1.4641" />
  </g>
</svg>
