<?xml version="1.0" encoding="UTF-8" standalone="no"?>
<svg
   width="64"
   height="64"
   version="1.1"
   id="svg73"
   sodipodi:docname="partitionmanager.svg"
   inkscape:version="1.4.2 (ebf0e940d0, 2025-05-08)"
   xmlns:inkscape="http://www.inkscape.org/namespaces/inkscape"
   xmlns:sodipodi="http://sodipodi.sourceforge.net/DTD/sodipodi-0.dtd"
   xmlns="http://www.w3.org/2000/svg"
   xmlns:svg="http://www.w3.org/2000/svg"
   xmlns:rdf="http://www.w3.org/1999/02/22-rdf-syntax-ns#"
   xmlns:cc="http://creativecommons.org/ns#"
   xmlns:dc="http://purl.org/dc/elements/1.1/">
  <metadata
     id="metadata77">
    <rdf:RDF>
      <cc:Work
         rdf:about="">
        <dc:format>image/svg+xml</dc:format>
        <dc:type
           rdf:resource="http://purl.org/dc/dcmitype/StillImage" />
      </cc:Work>
    </rdf:RDF>
  </metadata>
  <sodipodi:namedview
     pagecolor="#f5f7fa"
     bordercolor="#666666"
     borderopacity="1"
     objecttolerance="10"
     gridtolerance="10"
     guidetolerance="10"
     inkscape:pageopacity="0"
     inkscape:pageshadow="2"
     inkscape:window-width="1377"
     inkscape:window-height="886"
     id="namedview75"
     showgrid="false"
     inkscape:zoom="6.2890624"
     inkscape:cx="28.700622"
     inkscape:cy="17.570187"
     inkscape:window-x="264"
     inkscape:window-y="102"
     inkscape:window-maximized="0"
     inkscape:current-layer="g877"
     inkscape:document-rotation="0"
     inkscape:pagecheckerboard="0"
     inkscape:showpageshadow="2"
     inkscape:deskcolor="#d1d1d1" />
  <defs
     id="defs29" />
  <circle
     cx="32.516094"
     cy="31.877844"
     r="0"
     fill="url(#b)"
     stroke-width="1.5715"
     id="circle41"
     style="fill:url(#b)" />
  <g
     aria-label="GZ"
     transform="matrix(1.2212657,0,0,0.81882264,0.4960938,-0.1661539)"
     id="text93"
     style="font-weight:bold;font-size:11.5263px;line-height:1.25;font-family:sans-serif;-inkscape-font-specification:'sans-serif Bold';fill:#f2f2f2;stroke-width:0.288159" />
  <g
     id="g877"
     transform="matrix(1.1,0,0,1.1,-3.1845928,-3.2065454)">
    <rect
       x="8.3496294"
       y="8.369586"
       width="47.272728"
       height="47.272728"
       rx="9.8825235"
       ry="9.6485243"
       fill="url(#linearGradient862)"
       stroke-width="3.0541"
       id="rect35-7-3"
       style="fill:#414141;fill-opacity:1;stroke:#dfdfdf;stroke-width:2.04545;stroke-dasharray:none;stroke-opacity:1" />
    <path
       id="path7"
       style="fill:#dfdfdf;stroke:none;stroke-width:0.3722;stroke-dasharray:none;stroke-opacity:0.6;fill-opacity:1"
       d="m 44.162432,18.973811 c -0.466743,0 -0.904399,0.221468 -1.161983,0.587977 -0.06548,0.09309 -0.475451,1.109504 -0.946912,2.346328 l -0.83099,2.181524 -1.45947,0.64105 c -0.802143,0.352556 -1.472097,0.64108 -1.488803,0.641051 -0.01682,-3.2e-5 -0.06325,-0.113112 -0.10331,-0.251397 -0.105972,-0.365327 -0.475644,-1.094028 -0.720699,-1.418964 -0.294493,-0.390505 -0.67495,-0.78642 -1.030703,-1.072608 -0.26806,-0.215644 -0.316803,-0.276102 -0.432952,-0.543284 -0.285382,-0.656485 -0.752331,-1.201659 -1.393829,-1.624275 -1.808085,-1.191154 -4.412926,-0.959884 -5.895147,0.522337 -0.328191,0.328192 -0.567344,0.680539 -0.754176,1.110316 -0.121905,0.280421 -0.162447,0.330207 -0.456694,0.565631 -0.80001,0.640088 -1.533705,1.706494 -1.74159,2.532078 -0.03539,0.140564 -0.06275,0.181925 -0.111734,0.167596 -0.15339,-0.04486 -2.845733,-1.246553 -2.888214,-1.289082 -0.02579,-0.02584 -0.410452,-1.005085 -0.856131,-2.177336 -0.445678,-1.172252 -0.846754,-2.190868 -0.891044,-2.262531 -0.132406,-0.214236 -0.467008,-0.485683 -0.712276,-0.578199 -0.30691,-0.11577 -0.778522,-0.0959 -1.074005,0.04469 -0.269763,0.128352 -0.564738,0.430273 -0.695517,0.712278 -0.08838,0.190546 -0.107329,0.287311 -0.106138,0.553062 0.0015,0.321005 0.0038,0.328763 0.877079,2.615876 0.481735,1.261474 0.922421,2.410572 0.979033,2.554422 0.126883,0.322444 0.322198,0.597751 0.523734,0.737416 0.110761,0.07674 2.377811,1.104653 3.135417,1.421763 0.02517,0.01058 0.182162,-0.185342 0.349155,-0.435747 0.65621,-0.983901 1.363496,-1.755744 1.821197,-1.984602 0.191616,-0.09581 0.302686,-0.121384 0.572619,-0.134076 0.534474,-0.02514 0.5178,-0.03652 3.065584,2.141022 2.183195,1.865936 2.235533,1.906343 2.314206,1.836559 0.378612,-0.335828 4.298574,-3.663915 4.459418,-3.786245 0.370897,-0.282083 0.787787,-0.383668 1.117295,-0.272337 0.243368,0.08221 0.488634,0.296314 0.988809,0.86451 0.557869,0.633731 0.798724,0.94455 1.120101,1.44271 0.174473,0.27047 0.240701,0.342653 0.293318,0.322622 0.404107,-0.153841 2.966392,-1.308623 3.092121,-1.39383 0.193697,-0.131294 0.349491,-0.30899 0.453906,-0.513958 0.04079,-0.08003 0.497568,-1.249117 1.013945,-2.599114 l 0.938517,-2.455269 V 20.36205 c 6.63e-4,-0.315477 -0.01212,-0.391315 -0.110334,-0.590772 -0.233225,-0.47637 -0.737633,-0.797474 -1.252756,-0.797475 z M 33.802283,21.87739 c 0.372149,0.01824 0.796,0.232982 1.153612,0.615909 0.891519,0.954634 1.041942,2.451129 0.289102,2.874251 -0.176805,0.09937 -0.506613,0.140174 -0.710881,0.08799 -0.280713,-0.07173 -0.600054,-0.267665 -0.858924,-0.526537 -0.87972,-0.879721 -1.109973,-2.313246 -0.460886,-2.865868 0.160954,-0.137039 0.364685,-0.196692 0.587977,-0.185753 z m -3.606079,0.01818 c 0.418704,8.44e-4 0.646799,0.153388 0.832385,0.558648 0.07748,0.169201 0.0921,0.26494 0.08939,0.603342 -0.0059,0.700594 -0.270562,1.314208 -0.800266,1.853324 -0.19337,0.196805 -0.366688,0.328703 -0.551669,0.418987 -0.288723,0.140909 -0.671522,0.194402 -0.889649,0.124284 -0.354509,-0.113991 -0.593525,-0.501023 -0.622892,-1.008386 -0.05551,-0.95897 0.587225,-2.052128 1.439915,-2.448283 0.171545,-0.07969 0.284451,-0.102375 0.502784,-0.101934 z m 7.101826,3.863059 c -0.03807,0.0044 -0.08155,0.02627 -0.157858,0.06703 -0.09215,0.04915 -1.282172,1.039175 -2.643791,2.201055 -1.361618,1.161878 -2.498877,2.113093 -2.527886,2.113093 -0.02905,0 -1.162422,-0.946839 -2.518111,-2.103316 -1.750344,-1.493161 -2.509137,-2.114652 -2.615851,-2.146625 -0.221272,-0.0663 -0.522361,0.08296 -0.861716,0.427367 -0.318659,0.323395 -0.976845,1.192792 -1.279308,1.689913 -0.902126,1.482727 -1.442927,3.172109 -1.603323,5.009689 -0.05707,0.65377 -0.02555,1.915129 0.06423,2.569783 0.371711,2.708905 1.562836,5.200667 3.337929,6.983119 1.386619,1.392379 3.087931,2.256859 4.790414,2.434318 0.930325,0.09695 1.910568,-0.01391 2.857492,-0.324057 0.477002,-0.156204 1.397438,-0.611012 1.850524,-0.913391 2.956926,-1.973339 4.888195,-5.839957 4.888195,-9.784739 0,-2.501907 -0.77357,-4.903743 -2.180128,-6.766638 -0.39031,-0.516945 -1.138985,-1.34918 -1.279317,-1.421752 -0.05102,-0.02642 -0.08345,-0.03917 -0.121497,-0.03491 z m 3.674517,4.136799 c -0.0044,0.0029 0.05284,0.197492 0.127007,0.431556 0.163193,0.514278 0.360322,1.436803 0.424579,1.985998 0.06754,0.577911 0.05694,0.56174 0.427353,0.621496 0.172878,0.02796 0.350301,0.06511 0.395252,0.0824 0.04492,0.01724 0.743861,0.640941 1.55165,1.386846 0.807783,0.745903 1.537062,1.403696 1.621483,1.460868 0.08444,0.05716 0.246908,0.137753 0.361708,0.178774 0.631853,0.225772 1.402717,-0.137502 1.70807,-0.804455 0.197119,-0.430519 0.118334,-1.013131 -0.1899,-1.404998 -0.04483,-0.057 -0.855402,-0.816944 -1.80163,-1.689935 -1.111429,-1.0254 -1.791776,-1.624335 -1.921755,-1.691309 -0.15259,-0.07862 -0.502437,-0.1597 -1.448293,-0.333791 -0.68607,-0.126275 -1.251132,-0.22654 -1.255574,-0.22346 z m -18.080683,0.03627 c -0.121779,0.0084 -0.60745,0.08472 -1.174558,0.185744 -0.943451,0.168091 -1.225676,0.233993 -1.418971,0.328218 -0.191756,0.09348 -0.605569,0.454947 -2.011137,1.75695 -2.065535,1.913349 -2.012865,1.847571 -2.012531,2.504146 1.72e-4,0.33878 0.01246,0.406267 0.110334,0.592168 0.211344,0.401622 0.513044,0.65359 0.911994,0.761159 0.101146,0.02723 0.259869,0.05018 0.351951,0.05167 0.228905,0.0038 0.628943,-0.126449 0.81004,-0.263966 0.12622,-0.09586 2.418826,-2.192864 2.927324,-2.677327 0.147926,-0.140938 0.198249,-0.160247 0.543286,-0.220669 0.209119,-0.03659 0.385583,-0.0718 0.392453,-0.07682 0.0069,-0.005 0.03871,-0.213723 0.07122,-0.465073 0.100695,-0.778656 0.229683,-1.386788 0.445522,-2.097728 0.05884,-0.19381 0.09621,-0.363273 0.08239,-0.377086 -0.0018,-0.0018 -0.01193,-0.0026 -0.02934,-0.0015 z m -0.465073,5.939835 -0.722055,0.607532 c -0.916729,0.770681 -1.072146,0.923931 -1.196905,1.178749 -0.365397,0.746309 -2.047434,4.485571 -2.085159,4.635388 -0.06047,0.240209 -0.02555,0.634883 0.0782,0.872895 0.150216,0.344647 0.502135,0.662352 0.86451,0.780712 0.102081,0.03334 0.294645,0.0492 0.490215,0.04184 0.275172,-0.01039 0.357996,-0.03093 0.575408,-0.146695 0.439931,-0.234497 0.465469,-0.278803 1.516733,-2.585144 0.823827,-1.807348 0.981842,-2.123374 1.114511,-2.24434 l 0.153633,-0.141069 -0.196925,-0.583789 c -0.22599,-0.667752 -0.381278,-1.263024 -0.50558,-1.942624 z m 19.080665,0.0085 c -0.0051,0.0078 -0.04283,0.203926 -0.0824,0.435746 -0.100685,0.59004 -0.304003,1.374727 -0.520933,2.012532 l -0.184419,0.541895 0.160642,0.141097 c 0.141649,0.124917 0.265637,0.372861 1.064226,2.122863 0.497309,1.089839 0.935109,2.041053 0.972053,2.113091 0.151421,0.295296 0.402907,0.522458 0.731831,0.660599 0.317211,0.133242 0.77211,0.119236 1.100534,-0.03334 0.614337,-0.285818 0.964369,-1.051782 0.759766,-1.663366 -0.08696,-0.259954 -2.079019,-4.599679 -2.181525,-4.752714 -0.08482,-0.126599 -1.795884,-1.610533 -1.819796,-1.578184 z" />
  </g>
</svg>
