<?xml version="1.0" encoding="UTF-8" standalone="no"?>
<svg
   width="64"
   height="64"
   version="1.1"
   id="svg73"
   sodipodi:docname="audacious.svg"
   inkscape:version="1.4.2 (ebf0e940d0, 2025-05-08)"
   xmlns:inkscape="http://www.inkscape.org/namespaces/inkscape"
   xmlns:sodipodi="http://sodipodi.sourceforge.net/DTD/sodipodi-0.dtd"
   xmlns="http://www.w3.org/2000/svg"
   xmlns:svg="http://www.w3.org/2000/svg"
   xmlns:rdf="http://www.w3.org/1999/02/22-rdf-syntax-ns#"
   xmlns:cc="http://creativecommons.org/ns#"
   xmlns:dc="http://purl.org/dc/elements/1.1/">
  <metadata
     id="metadata77">
    <rdf:RDF>
      <cc:Work
         rdf:about="">
        <dc:format>image/svg+xml</dc:format>
        <dc:type
           rdf:resource="http://purl.org/dc/dcmitype/StillImage" />
      </cc:Work>
    </rdf:RDF>
  </metadata>
  <sodipodi:namedview
     pagecolor="#f5f7fa"
     bordercolor="#666666"
     borderopacity="1"
     objecttolerance="10"
     gridtolerance="10"
     guidetolerance="10"
     inkscape:pageopacity="0"
     inkscape:pageshadow="2"
     inkscape:window-width="1377"
     inkscape:window-height="886"
     id="namedview75"
     showgrid="false"
     inkscape:zoom="6.2890624"
     inkscape:cx="47.622361"
     inkscape:cy="45.396274"
     inkscape:window-x="1"
     inkscape:window-y="75"
     inkscape:window-maximized="0"
     inkscape:current-layer="g877"
     inkscape:document-rotation="0"
     inkscape:pagecheckerboard="0"
     inkscape:showpageshadow="2"
     inkscape:deskcolor="#d1d1d1" />
  <defs
     id="defs29" />
  <circle
     cx="32.516094"
     cy="31.877844"
     r="0"
     fill="url(#b)"
     stroke-width="1.5715"
     id="circle41"
     style="fill:url(#b)" />
  <g
     aria-label="GZ"
     transform="matrix(1.2212657,0,0,0.81882264,0.4960938,-0.1661539)"
     id="text93"
     style="font-weight:bold;font-size:11.5263px;line-height:1.25;font-family:sans-serif;-inkscape-font-specification:'sans-serif Bold';fill:#f2f2f2;stroke-width:0.288159" />
  <g
     id="g877"
     transform="matrix(1.1,0,0,1.1,-3.1845928,-3.2065454)">
    <rect
       x="8.3496294"
       y="8.369586"
       width="47.272728"
       height="47.272728"
       rx="9.8825235"
       ry="9.6485243"
       fill="url(#linearGradient862)"
       stroke-width="3.0541"
       id="rect35-7-3"
       style="fill:#414141;fill-opacity:1;stroke:#dfdfdf;stroke-width:2.04545;stroke-dasharray:none;stroke-opacity:1" />
    <path
       style="fill:#dfdfdf;stroke:none;stroke-width:0.022483;stroke-opacity:0.5;fill-opacity:1"
       d="m 30.502098,47.879366 c -3.810997,-0.37978 -7.249265,-2.032915 -9.915898,-4.767631 -2.449002,-2.511524 -3.909114,-5.528872 -4.414476,-9.122606 -0.11295,-0.803157 -0.11295,-3.153851 0,-3.957007 0.267756,-1.904091 0.731297,-3.428691 1.538039,-5.058677 0.847052,-1.711434 1.802352,-3.024015 3.175105,-4.362598 2.498586,-2.436392 5.551859,-3.918648 9.077639,-4.406879 0.721463,-0.09992 2.532372,-0.137269 3.335651,-0.06881 2.88605,0.245923 5.557406,1.226954 7.951232,2.92002 1.410516,0.997601 2.916907,2.542308 3.907827,4.007221 1.428016,2.11108 2.2686,4.329166 2.643171,6.974647 0.112776,0.796366 0.112776,3.150809 0,3.947172 -0.258825,1.827686 -0.71241,3.361023 -1.446475,4.88935 -0.781956,1.627992 -1.697002,2.934572 -2.968156,4.238173 -1.313661,1.347197 -2.628713,2.310305 -4.295146,3.145637 -1.5994,0.801736 -3.20646,1.295085 -5.083671,1.560627 -0.614521,0.08688 -2.854666,0.126202 -3.50484,0.06132 z m 3.076305,-2.270729 c 1.504325,-0.165721 2.920711,-0.576403 4.331804,-1.256043 1.362874,-0.65642 2.514626,-1.458202 3.574242,-2.488177 1.274961,-1.239315 2.067702,-2.332384 2.825407,-3.895796 0.936027,-1.931342 1.356446,-3.777974 1.356446,-5.957997 0,-2.180019 -0.420419,-4.026651 -1.356446,-5.957996 -0.746323,-1.539924 -1.544289,-2.64628 -2.774707,-3.847032 -0.694733,-0.67799 -1.248503,-1.127523 -2.023365,-1.642514 C 38.87262,20.138278 37.4689,19.423126 36.78264,19.172662 35.423503,18.676619 34.026095,18.400027 32.491844,18.323374 l -0.505869,-0.02523 v 1.235512 1.235513 l 0.236075,1.55e-4 c 0.412626,2.67e-4 1.250715,0.09245 1.861551,0.204742 4.121736,0.757746 7.549639,3.891814 8.710639,7.963982 0.84142,2.951236 0.432033,6.128854 -1.129562,8.767818 -0.576368,0.973993 -1.363466,1.942375 -2.137011,2.629173 -2.00861,1.7834 -4.346021,2.753029 -6.990854,2.900014 l -0.550836,0.03047 v 1.228758 1.228772 l 0.505868,-0.02466 c 0.278227,-0.01432 0.76718,-0.05403 1.086559,-0.08926 z m -0.436855,-4.539078 c 3.062462,-0.399168 5.683871,-2.266425 7.036233,-5.011994 2.23051,-4.528348 0.354539,-10.043478 -4.167348,-12.251522 -1.126273,-0.549959 -2.627744,-0.923515 -3.712,-0.923515 h -0.312458 v 1.252888 1.252886 l 0.438418,0.03111 c 1.186108,0.08428 2.293459,0.473558 3.316246,1.165792 0.526431,0.356297 1.317248,1.148698 1.679525,1.68289 0.81506,1.201842 1.226664,2.627757 1.158196,4.012291 -0.08467,1.711746 -0.736945,3.188528 -1.936602,4.38444 -1.139242,1.135694 -2.479705,1.766117 -4.082466,1.919981 l -0.573317,0.05501 v 1.249423 1.249418 h 0.312457 c 0.171857,0 0.551253,-0.03182 0.843113,-0.06921 z m 0.01351,-4.634767 c 1.561325,-0.392447 2.844769,-1.680278 3.266375,-3.277535 0.103803,-0.393364 0.118693,-0.536913 0.118693,-1.146633 0,-0.609716 -0.01492,-0.753267 -0.118693,-1.146632 -0.497545,-1.885045 -2.119157,-3.248351 -4.064492,-3.417083 l -0.37097,-0.03214 v 4.595894 4.595892 l 0.370966,-0.03218 c 0.204033,-0.01772 0.563198,-0.0805 0.798147,-0.139558 z"
       id="path7" />
  </g>
</svg>
