<?xml version="1.0" encoding="UTF-8" standalone="no"?>
<svg
   width="64"
   height="64"
   version="1.1"
   id="svg73"
   sodipodi:docname="info.svg"
   inkscape:version="1.3.2 (091e20ef0f, 2023-11-25)"
   xmlns:inkscape="http://www.inkscape.org/namespaces/inkscape"
   xmlns:sodipodi="http://sodipodi.sourceforge.net/DTD/sodipodi-0.dtd"
   xmlns="http://www.w3.org/2000/svg"
   xmlns:svg="http://www.w3.org/2000/svg"
   xmlns:rdf="http://www.w3.org/1999/02/22-rdf-syntax-ns#"
   xmlns:cc="http://creativecommons.org/ns#"
   xmlns:dc="http://purl.org/dc/elements/1.1/">
  <metadata
     id="metadata77">
    <rdf:RDF>
      <cc:Work
         rdf:about="">
        <dc:format>image/svg+xml</dc:format>
        <dc:type
           rdf:resource="http://purl.org/dc/dcmitype/StillImage" />
      </cc:Work>
    </rdf:RDF>
  </metadata>
  <sodipodi:namedview
     pagecolor="#f5f7fa"
     bordercolor="#666666"
     borderopacity="1"
     objecttolerance="10"
     gridtolerance="10"
     guidetolerance="10"
     inkscape:pageopacity="0"
     inkscape:pageshadow="2"
     inkscape:window-width="1377"
     inkscape:window-height="886"
     id="namedview75"
     showgrid="false"
     inkscape:zoom="4.4470387"
     inkscape:cx="47.784608"
     inkscape:cy="14.054296"
     inkscape:window-x="181"
     inkscape:window-y="77"
     inkscape:window-maximized="0"
     inkscape:current-layer="g877"
     inkscape:document-rotation="0"
     inkscape:pagecheckerboard="0"
     inkscape:showpageshadow="2"
     inkscape:deskcolor="#d1d1d1" />
  <defs
     id="defs29">
    <linearGradient
       id="b"
       x1="399.57"
       x2="399.57"
       y1="545.8"
       y2="517.8"
       gradientTransform="matrix(2.1429,0,0,2.1429,-825.86391,-1107.6662)"
       gradientUnits="userSpaceOnUse">
      <stop
         stop-color="#3889e9"
         offset="0"
         id="stop2" />
      <stop
         stop-color="#5ea5fb"
         offset="1"
         id="stop4" />
    </linearGradient>
    <linearGradient
       id="d"
       x2="1"
       gradientTransform="matrix(14.905727,-4.7106182,4.7106182,14.905727,322.04962,998.26962)"
       gradientUnits="userSpaceOnUse">
      <stop
         stop-color="#fafafa"
         offset="0"
         id="stop7" />
      <stop
         stop-color="#aaa"
         offset="1"
         id="stop8" />
    </linearGradient>
    <linearGradient
       id="e"
       x2="1"
       gradientTransform="matrix(21.439909,0,0,21.439909,26.63554,1159.7788)"
       gradientUnits="userSpaceOnUse">
      <stop
         stop-color="#f0f0f0"
         offset="0"
         id="stop9" />
      <stop
         stop-color="#b7f1ff"
         offset="1"
         id="stop10" />
    </linearGradient>
  </defs>
  <circle
     cx="32.516094"
     cy="31.877844"
     r="0"
     fill="url(#b)"
     stroke-width="1.5715"
     id="circle41"
     style="fill:url(#b)" />
  <g
     aria-label="GZ"
     transform="matrix(1.2212657,0,0,0.81882264,0.4960938,-0.1661539)"
     id="text93"
     style="font-weight:bold;font-size:11.5263px;line-height:1.25;font-family:sans-serif;-inkscape-font-specification:'sans-serif Bold';fill:#f2f2f2;stroke-width:0.288159" />
  <g
     id="g877"
     transform="matrix(1.1,0,0,1.1,-3.1845928,-3.2065454)">
    <rect
       x="6.3010068"
       y="5.4939413"
       width="51.635597"
       height="53.148327"
       rx="10.980581"
       ry="10.720582"
       fill="url(#linearGradient862)"
       stroke-width="3.0541"
       id="rect35-7-3"
       style="fill:#414141;fill-opacity:1;stroke:#dfdfdf;stroke-width:2.27272727;stroke-dasharray:none;stroke-opacity:1" />
    <g
       id="g1"
       transform="matrix(1.331,0,0,1.331,1.0958235,-0.3074316)"
       style="fill:#dfdfdf;fill-opacity:1">
      <g
         fill-opacity="0.84"
         fill-rule="nonzero"
         id="g4"
         style="fill:#dfdfdf;fill-opacity:1">
        <path
           d="m 28.286,28.092 -3.412,-0.005 v -4.133 c 0,-1.02 -0.692,-1.851 -1.612,-1.851 -0.921,0 -1.613,0.831 -1.613,1.851 v 6.258 c -0.387,-0.44 -0.799,-0.702 -1.317,-0.702 -0.286,0 -0.573,0.083 -0.825,0.24 -0.794,0.498 -1.081,1.588 -0.649,2.488 0.708,1.407 3.028,6.028 3.186,6.264 0.524,0.794 1.319,1.258 2.183,1.258 h 4.558 c 1.747,0 2.667,-0.918 2.667,-2.488 v -5.756 c 0,-0.029 0.04,-0.058 0.038,-0.087 0.002,-0.045 -0.002,-0.091 -0.002,-0.139 0,-1.763 -1.439,-3.198 -3.202,-3.198 z"
           id="path2"
           style="fill:#dfdfdf;fill-opacity:1" />
        <path
           d="m 26.293,26.732 h 2.043 c 0.308,0 0.609,0.02 0.9,0.078 0.663,-1.074 1.046,-2.343 1.046,-3.695 0,-3.883 -3.159,-7.045 -7.042,-7.045 -3.883,0 -7.042,3.158 -7.042,7.041 0,2.197 1.001,4.162 2.584,5.455 0.447,-0.274 0.933,-0.425 1.449,-0.438 v -2.612 c -0.516,-0.659 -0.84,-1.496 -0.84,-2.407 0,-2.116 1.727,-3.838 3.843,-3.838 2.117,0 3.809,1.722 3.809,3.838 0,0.833 -0.234,1.605 -0.75,2.234 z"
           id="path3"
           style="fill:#dfdfdf;fill-opacity:1" />
        <path
           d="m 36.335,23.109 c 0,-7.233 -5.873,-13.118 -13.106,-13.118 -7.233,0 -13.112,5.885 -13.112,13.118 0,5.705 3.664,10.57 8.759,12.372 l -1.271,-2.652 c -0.275,-0.573 -0.372,-1.195 -0.314,-1.794 -2.406,-1.811 -3.965,-4.69 -3.965,-7.926 0,-5.466 4.448,-9.914 9.914,-9.914 5.466,0 9.914,4.448 9.914,9.914 0,1.869 -0.52,3.618 -1.422,5.111 0.735,0.813 1.184,1.89 1.184,3.07 0,0.044 -0.023,0.087 -0.024,0.13 10e-4,0.028 -0.021,0.061 -0.021,0.096 v 0.441 c 2.193,-2.335 3.464,-5.442 3.464,-8.848 z"
           id="path4"
           style="fill:#dfdfdf;fill-opacity:1" />
      </g>
    </g>
  </g>
</svg>
