<?xml version="1.0" encoding="UTF-8" standalone="no"?>
<svg
   width="64"
   height="64"
   version="1.1"
   id="svg73"
   sodipodi:docname="audacious.svg"
   inkscape:version="1.4.2 (ebf0e940d0, 2025-05-08)"
   xmlns:inkscape="http://www.inkscape.org/namespaces/inkscape"
   xmlns:sodipodi="http://sodipodi.sourceforge.net/DTD/sodipodi-0.dtd"
   xmlns="http://www.w3.org/2000/svg"
   xmlns:svg="http://www.w3.org/2000/svg"
   xmlns:rdf="http://www.w3.org/1999/02/22-rdf-syntax-ns#"
   xmlns:cc="http://creativecommons.org/ns#"
   xmlns:dc="http://purl.org/dc/elements/1.1/">
  <metadata
     id="metadata77">
    <rdf:RDF>
      <cc:Work
         rdf:about="">
        <dc:format>image/svg+xml</dc:format>
        <dc:type
           rdf:resource="http://purl.org/dc/dcmitype/StillImage" />
      </cc:Work>
    </rdf:RDF>
  </metadata>
  <sodipodi:namedview
     pagecolor="#f5f7fa"
     bordercolor="#666666"
     borderopacity="1"
     objecttolerance="10"
     gridtolerance="10"
     guidetolerance="10"
     inkscape:pageopacity="0"
     inkscape:pageshadow="2"
     inkscape:window-width="1377"
     inkscape:window-height="886"
     id="namedview75"
     showgrid="false"
     inkscape:zoom="6.2890624"
     inkscape:cx="26.474535"
     inkscape:cy="38.877019"
     inkscape:window-x="0"
     inkscape:window-y="75"
     inkscape:window-maximized="0"
     inkscape:current-layer="g877"
     inkscape:document-rotation="0"
     inkscape:pagecheckerboard="0"
     inkscape:showpageshadow="2"
     inkscape:deskcolor="#d1d1d1" />
  <defs
     id="defs29" />
  <circle
     cx="32.516094"
     cy="31.877844"
     r="0"
     fill="url(#b)"
     stroke-width="1.5715"
     id="circle41"
     style="fill:url(#b)" />
  <g
     aria-label="GZ"
     transform="matrix(1.2212657,0,0,0.81882264,0.4960938,-0.1661539)"
     id="text93"
     style="font-weight:bold;font-size:11.5263px;line-height:1.25;font-family:sans-serif;-inkscape-font-specification:'sans-serif Bold';fill:#f2f2f2;stroke-width:0.288159" />
  <g
     id="g877"
     transform="matrix(1.1,0,0,1.1,-3.1845928,-3.2065454)">
    <rect
       x="8.3496294"
       y="8.369586"
       width="47.272728"
       height="47.272728"
       rx="9.8825235"
       ry="9.6485243"
       fill="url(#linearGradient862)"
       stroke-width="3.0541"
       id="rect35-7-3"
       style="fill:#414141;fill-opacity:1;stroke:#dfdfdf;stroke-width:2.04545;stroke-dasharray:none;stroke-opacity:1" />
    <path
       style="fill:#dfdfdf;fill-opacity:1;stroke:none;stroke-width:0.530734;stroke-dasharray:none;stroke-opacity:0.6"
       d="m 39.907442,15.83299 c -3.1e-5,0 -1.050874,0.134046 -1.817088,0.279293 -1.801791,0.23638 -3.53079,0.449927 -5.176954,0.520359 h -4.729746 -3.359866 c -0.205256,-0.03045 -0.354664,-0.06652 -0.87945,-0.06652 -0.297597,8.5e-5 -0.595149,0.02232 -0.889426,0.06652 -0.846513,0.126738 -1.919529,0.239087 -3.439663,1.265145 -1.520056,1.026125 -2.950898,3.689241 -2.950898,5.547685 0.06602,1.279867 0.375983,2.401784 0.611788,3.230188 0.102302,0.707218 0.20521,1.414149 0.307562,2.109683 0.01218,0.08284 0.02591,0.165454 0.04155,0.247706 0.197789,1.038702 0.385546,1.95077 0.95094,3.158705 0.282692,0.603973 0.647209,1.324263 1.5195,2.176186 0.813539,0.794538 2.389678,1.646801 4.141232,1.767213 -0.566273,0.474702 -1.088736,0.986162 -1.399805,1.449683 -0.01684,0.02536 -0.03335,0.0508 -0.04985,0.07651 -1.128614,1.739049 -1.175597,5.617452 0.123023,7.464519 0.718137,1.021418 2.485004,2.342946 3.883547,2.733108 1.398534,0.39014 2.332256,0.334067 3.245152,0.285895 l 0.0067,-0.0017 c 1.113899,-0.05978 2.06865,-0.149898 2.990799,-0.254297 0.408361,-0.01253 0.70425,1.25e-4 0.807962,0.0098 0.01719,0.0018 0.03431,0.0039 0.05153,0.0047 0.472931,0.04094 0.923743,0.08784 1.664141,0.04324 0.740395,-0.04458 1.734246,-0.301658 2.137943,-0.448871 0.06774,-0.0247 0.134337,-0.05088 0.201184,-0.07814 2.054971,-0.835091 4.438817,-4.058002 4.438817,-6.521891 0,-1.473127 -0.591934,-3.931724 -2.560221,-5.506127 -0.286163,-0.228898 -0.578572,-0.363974 -0.869473,-0.531993 -6.65e-4,-0.191579 -0.0026,-0.355363 -0.0034,-0.53698 0.349018,0.05332 0.805535,0.252704 1.082275,0.252704 1.109801,0 2.655146,-0.09679 4.383947,-1.348268 1.728805,-1.251483 2.756388,-3.806377 2.756388,-5.451261 0,-0.830684 -0.04462,-1.166175 -0.149662,-1.866962 0.06346,-0.504088 0.132072,-0.990335 0.222767,-1.366555 l -0.01253,0.05486 c 0.505699,-2.01689 -0.636646,-5.795004 -2.637525,-7.277878 -1.345087,-0.977116 -3.125332,-1.475651 -4.643305,-1.486254 z m 0.0071,3.404753 c 0.874626,0.0021 1.832834,0.278186 2.57684,0.819602 1.058608,0.76201 1.621077,2.592781 1.338293,3.720622 l 0.0071,-0.02331 c -0.147767,0.613943 -0.264918,1.30552 -0.345815,2.068122 0.0026,-0.0017 0.0044,0.08885 0.03314,0.244386 0.0044,0.02261 0.0082,0.04541 0.01158,0.06817 0.108365,0.686175 0.133086,1.133322 0.133086,1.647515 0,0.865672 -0.492778,2.08163 -1.343285,2.6982 -0.8505,0.616564 -1.679442,0.696577 -2.375679,0.696577 -0.974772,0 -2.488664,-0.428491 -3.218555,-1.715676 -0.196836,-0.347661 -0.308592,-0.736597 -0.327511,-1.135471 -0.02195,-0.458057 0.0052,-1.099339 0.02331,-1.70404 -0.316463,0.01892 -0.619778,0.039 -0.929324,0.05988 -0.0038,0.05392 -0.0092,0.107692 -0.01668,0.161268 -0.05964,0.438824 -0.108585,1.334635 -0.111386,2.540264 0.05754,0.590794 0.0591,1.194963 0.07481,2.294218 0.01752,1.227103 0.02654,2.903432 0.02654,5.040629 v 0.630097 c 0.687171,0.01692 1.431977,0.14205 2.134619,0.704889 0.966126,0.773902 1.280115,1.992778 1.280115,2.852805 0,1.327937 -1.154714,2.899029 -2.307527,3.368186 -0.02862,0.01157 -0.05737,0.023 -0.08646,0.03314 -0.257375,0.09402 -0.75256,0.22253 -1.170383,0.247734 -0.417825,0.02504 -0.743262,-0.0023 -1.16041,-0.03805 -0.0072,-5.95e-4 -0.01441,-10e-4 -0.02161,-0.0018 -0.305864,-0.02875 -0.739727,-0.04053 -1.273458,-0.02165 -0.885355,0.107119 -1.867978,0.193606 -3.029033,0.256054 h -0.0017 c -0.742106,0.03932 -1.376834,0.05068 -2.141271,-0.162922 -0.764573,-0.213565 -1.616315,-0.859107 -2.001758,-1.408127 -0.65991,-0.93997 -0.640352,-2.754741 -0.05321,-3.660768 0.0071,-0.01081 0.01434,-0.02132 0.02159,-0.03179 0.38693,-0.577371 1.165033,-1.235197 1.950086,-1.517842 0.306628,-0.110381 0.612401,-0.07987 0.909375,-0.129736 0.0044,-0.100548 0.0027,-0.224391 0.0083,-0.320838 -2e-6,-0.0023 -2e-6,-0.0047 0,-0.0071 0.06013,-1.028873 0.06532,-2.622856 -0.0017,-4.699927 -5.96e-4,-0.0023 -0.001,-0.0044 -0.0017,-0.0067 -0.06462,-2.178448 0.01505,-4.023825 0.07481,-5.91509 -0.278437,-0.0046 -0.462367,0.0034 -0.776374,-0.0049 0.06622,0.581816 0.208608,1.447676 0.231086,1.885251 0.0054,0.110275 0.0023,0.220784 -0.0067,0.330827 l -0.06699,0.856787 c -0.06131,0.87335 -0.760017,1.974318 -1.514518,2.403941 -0.754502,0.42963 -1.365038,0.457181 -1.891898,0.457181 -0.877777,0 -1.67113,-0.455327 -2.101371,-0.876122 -0.430239,-0.4208 -0.641607,-0.811873 -0.814615,-1.182025 -0.346012,-0.7403 -0.520682,-1.465628 -0.689926,-2.355728 -0.0069,-0.03531 -0.01294,-0.0708 -0.0183,-0.106413 -0.137083,-0.932896 -0.273612,-1.877031 -0.41063,-2.8312 -0.0044,0.0049 -0.01363,0.0083 -0.01337,0.01492 -0.0092,-0.04358 -0.02118,-0.09039 -0.04323,-0.141305 -0.02418,-0.05572 -0.04628,-0.1123 -0.06647,-0.169579 -0.182316,-0.519782 -0.347294,-0.939379 -0.347294,-1.720609 0,-0.951024 0.675398,-2.206383 1.449683,-2.729784 0.774315,-0.523404 1.416978,-0.625131 2.026556,-0.716529 0.126265,-0.01892 0.254686,-0.02834 0.382366,-0.02821 0.331279,0 0.472904,0.02631 0.683284,0.05486 0.0576,0.008 0.102238,0.0105 0.124684,0.01167 h 3.426353 4.829497 c 1.908187,-0.07971 3.811884,-0.319726 5.718924,-0.571916 0.587966,-0.121077 0.740131,-0.184579 1.203628,-0.232744 z m 0,2.553564 c -0.05748,6.99e-4 -0.116505,0.0046 -0.176181,0.01 -0.272768,0.06489 -0.475411,0.127965 -0.611798,0.192848 -1.955059,0.259539 -3.978773,0.518634 -6.069956,0.605144 H 28.14551 24.599447 c -0.06819,0 -0.180029,-0.01326 -0.339144,-0.03486 -0.159112,-0.02159 -0.272622,-0.03165 -0.340809,-0.03165 -0.863741,0.129772 -1.296723,0.380321 -1.296723,0.921018 0,0.194651 0.06643,0.486819 0.202822,0.876124 0.159115,0.367675 0.241058,0.626645 0.241058,0.778039 0.136387,0.951632 0.27259,1.892883 0.408967,2.822887 0.295496,1.557215 0.658713,2.337442 1.090588,2.337442 0.545527,0 0.830118,-0.162687 0.85285,-0.487107 l 0.06807,-0.876144 c -0.04545,-0.886748 -0.22873,-2.367514 -0.546954,-4.443798 1.295627,-0.08651 1.990502,-0.131338 2.08142,-0.131338 1.932075,0.06489 3.335179,0.07483 4.03982,0.03164 l 0.103068,0.09974 c -0.159113,2.443958 -0.193989,5.201306 -0.103068,8.272481 0.06818,2.119541 0.06818,3.761331 0,4.929248 -0.0227,0.41093 -0.0349,0.887365 -0.0349,1.428062 0.02269,0.173039 0.0349,0.355604 0.0349,0.550283 0,0.367659 -0.437481,0.553604 -1.142123,0.553604 -1.341082,0 -1.829693,0.23904 -2.147917,0.714866 -0.181838,0.281224 -0.181838,0.550088 0,0.809627 0.272766,0.389322 0.681087,0.55199 1.908523,0.487105 1.204703,-0.06482 2.229572,-0.151185 3.070593,-0.259405 0.613716,-0.02165 1.146361,-0.01157 1.600964,0.03145 0.7501,0.06483 0.933076,0.04333 1.228571,-0.06483 0.477335,-0.194619 0.714866,-0.528324 0.714866,-1.004139 0,-0.80024 -0.431319,-1.148849 -1.29507,-1.04071 h -1.941742 c -0.113656,-0.151319 -0.171228,-0.410341 -0.171228,-0.778013 v -2.368944 c 0,-4.260718 -0.03487,-6.672771 -0.103078,-7.2351 0,-1.319306 0.04541,-2.312017 0.13632,-2.982485 l -0.13633,-1.168711 c -0.04543,-0.410929 -0.04543,-0.75622 0,-1.037384 1.863882,-0.173026 4.022289,-0.304173 6.136208,-0.39068 0.04545,0.04326 0.0803,0.06653 0.103078,0.06653 0,0.32442 -0.02468,0.973501 -0.06983,1.946759 -0.04546,0.821862 -0.05607,1.811753 -0.03314,2.287569 0.159065,0.281167 0.489099,0.418944 0.989168,0.418944 0.772837,0 1.158744,-0.278881 1.158744,-0.841212 0,-0.173028 -0.03535,-0.817621 -0.10311,-1.250182 -0.06821,-0.367675 -0.09086,-0.671467 -0.06812,-0.909375 0.09087,-0.886747 0.2271,-1.708475 0.40897,-2.465454 0.113563,-0.454189 1.47e-4,-0.799479 -0.340792,-1.037385 -0.298375,-0.227084 -0.647901,-0.337378 -1.050685,-0.332504 z"
       id="path4" />
  </g>
</svg>
