<?xml version="1.0" encoding="UTF-8" standalone="no"?>
<svg
   width="64"
   height="64"
   version="1.1"
   id="svg73"
   sodipodi:docname="audacious.svg"
   inkscape:version="1.4.2 (ebf0e940d0, 2025-05-08)"
   xmlns:inkscape="http://www.inkscape.org/namespaces/inkscape"
   xmlns:sodipodi="http://sodipodi.sourceforge.net/DTD/sodipodi-0.dtd"
   xmlns="http://www.w3.org/2000/svg"
   xmlns:svg="http://www.w3.org/2000/svg"
   xmlns:rdf="http://www.w3.org/1999/02/22-rdf-syntax-ns#"
   xmlns:cc="http://creativecommons.org/ns#"
   xmlns:dc="http://purl.org/dc/elements/1.1/">
  <metadata
     id="metadata77">
    <rdf:RDF>
      <cc:Work
         rdf:about="">
        <dc:format>image/svg+xml</dc:format>
        <dc:type
           rdf:resource="http://purl.org/dc/dcmitype/StillImage" />
      </cc:Work>
    </rdf:RDF>
  </metadata>
  <sodipodi:namedview
     pagecolor="#f5f7fa"
     bordercolor="#666666"
     borderopacity="1"
     objecttolerance="10"
     gridtolerance="10"
     guidetolerance="10"
     inkscape:pageopacity="0"
     inkscape:pageshadow="2"
     inkscape:window-width="1377"
     inkscape:window-height="886"
     id="namedview75"
     showgrid="false"
     inkscape:zoom="6.2890624"
     inkscape:cx="26.474535"
     inkscape:cy="38.877019"
     inkscape:window-x="0"
     inkscape:window-y="75"
     inkscape:window-maximized="0"
     inkscape:current-layer="g877"
     inkscape:document-rotation="0"
     inkscape:pagecheckerboard="0"
     inkscape:showpageshadow="2"
     inkscape:deskcolor="#d1d1d1" />
  <defs
     id="defs29" />
  <circle
     cx="32.516094"
     cy="31.877844"
     r="0"
     fill="url(#b)"
     stroke-width="1.5715"
     id="circle41"
     style="fill:url(#b)" />
  <g
     aria-label="GZ"
     transform="matrix(1.2212657,0,0,0.81882264,0.4960938,-0.1661539)"
     id="text93"
     style="font-weight:bold;font-size:11.5263px;line-height:1.25;font-family:sans-serif;-inkscape-font-specification:'sans-serif Bold';fill:#f2f2f2;stroke-width:0.288159" />
  <g
     id="g877"
     transform="matrix(1.1,0,0,1.1,-3.1845928,-3.2065454)">
    <rect
       x="8.3496294"
       y="8.369586"
       width="47.272728"
       height="47.272728"
       rx="9.8825235"
       ry="9.6485243"
       fill="url(#linearGradient862)"
       stroke-width="3.0541"
       id="rect35-7-3"
       style="fill:#414141;fill-opacity:1;stroke:#dfdfdf;stroke-width:2.04545;stroke-dasharray:none;stroke-opacity:1" />
    <path
       id="path11"
       style="fill:#dfdfdf;fill-opacity:1;stroke:none;stroke-width:0.530732;stroke-dasharray:none;stroke-opacity:0.6"
       d="m 32.105493,16.071307 c -0.431931,-0.01317 -0.865327,0.03874 -1.208641,0.157557 -0.452977,0.156763 -11.387943,6.443043 -11.939866,6.864018 -0.169351,0.12917 -0.473221,0.482819 -0.675384,0.785561 -0.660343,0.988869 -0.663876,1.033297 -0.663264,8.062744 3.14e-4,3.583115 0.03881,6.444467 0.09144,6.765958 0.120701,0.737096 0.465051,1.420609 0.980575,1.943518 0.312292,0.316829 1.848945,1.254162 5.971586,3.641348 3.053113,1.767877 5.783044,3.310225 6.06634,3.427598 0.716729,0.296946 1.809818,0.297282 2.52966,0.0013 0.283445,-0.116638 3.012734,-1.65834 6.06635,-3.426501 3.947103,-2.285533 5.671241,-3.334392 5.963866,-3.62702 0.4923,-0.492301 0.855507,-1.19824 0.989387,-1.924792 0.0641,-0.347883 0.08818,-2.81348 0.07051,-7.117421 l -0.02648,-6.585289 -0.219247,-0.543171 c -0.450011,-1.115278 -0.625903,-1.240558 -6.710822,-4.76404 -3.039,-1.759735 -5.777187,-3.303891 -6.08507,-3.430907 -0.338262,-0.139552 -0.768994,-0.217129 -1.200928,-0.23027 z m 0.753611,4.240709 c 0.03865,0.0016 2.093349,1.17422 4.565733,2.605684 l 4.495207,2.602373 0.02466,5.26205 c 0.01582,3.480997 -0.0079,5.260948 -0.07051,5.260948 -0.05184,0 -0.852073,-0.429222 -1.779364,-0.954135 L 38.4076,34.134807 V 31.9522 c 0,-1.200621 -0.02314,-2.183704 -0.05295,-2.183704 -0.09841,0 -4.769094,2.753284 -4.838965,2.852479 -0.09084,0.128977 -0.0919,5.084923 -10e-4,5.140858 0.03865,0.02344 0.949203,-0.479441 2.023951,-1.1183 1.074739,-0.638859 2.001861,-1.161642 2.060299,-1.161264 0.103436,6.82e-4 3.311642,1.817463 3.457354,1.957843 0.04016,0.03866 -1.139811,0.767571 -2.622213,1.620697 -1.482385,0.853132 -3.475085,2.002756 -4.427992,2.553902 -0.952903,0.551154 -1.795743,1.033214 -1.873006,1.072022 -0.09533,0.04785 -1.554938,-0.75351 -4.541487,-2.4933 -2.420869,-1.410276 -4.458687,-2.597968 -4.528243,-2.639838 -0.0868,-0.05225 0.409015,-0.389437 1.579939,-1.074223 0.938353,-0.548781 1.749978,-0.998205 1.804696,-0.998205 0.05469,0 0.953783,0.505702 1.997505,1.123804 1.043751,0.618099 1.941973,1.123808 1.99643,1.123808 0.06719,0 0.09916,-0.825103 0.09916,-2.568227 v -2.569325 l -0.257886,-0.177386 c -0.532625,-0.367225 -4.489959,-2.645346 -4.595473,-2.645346 -0.08116,0 -0.110577,0.573364 -0.112383,2.178194 l -0.0023,2.177098 -1.238386,0.698522 c -0.68114,0.384563 -1.460464,0.820084 -1.730883,0.967353 l -0.49139,0.267729 0.0023,-5.275271 0.0011,-5.274166 4.463267,-2.575934 c 2.454823,-1.416483 4.498049,-2.589614 4.540388,-2.606785 0.04233,-0.01718 0.07714,0.892914 0.07714,2.021746 v 2.052596 l -1.750715,1.030157 c -0.962895,0.566574 -1.764221,1.069588 -1.780455,1.118293 -0.03433,0.103089 4.190362,2.564918 4.401564,2.564918 0.216278,1e-6 4.324003,-2.403481 4.349784,-2.545086 0.01345,-0.07351 -0.718813,-0.54239 -1.801395,-1.153551 l -1.825658,-1.030156 v -2.03717 c -3.16e-4,-1.120306 0.03079,-2.036263 0.06943,-2.034966 z" />
  </g>
</svg>
