<?xml version="1.0" encoding="UTF-8" standalone="no"?>
<svg
   width="64"
   height="64"
   version="1.1"
   id="svg73"
   sodipodi:docname="partitionmanager.svg"
   inkscape:version="1.3.2 (091e20ef0f, 2023-11-25)"
   xmlns:inkscape="http://www.inkscape.org/namespaces/inkscape"
   xmlns:sodipodi="http://sodipodi.sourceforge.net/DTD/sodipodi-0.dtd"
   xmlns="http://www.w3.org/2000/svg"
   xmlns:svg="http://www.w3.org/2000/svg"
   xmlns:rdf="http://www.w3.org/1999/02/22-rdf-syntax-ns#"
   xmlns:cc="http://creativecommons.org/ns#"
   xmlns:dc="http://purl.org/dc/elements/1.1/">
  <metadata
     id="metadata77">
    <rdf:RDF>
      <cc:Work
         rdf:about="">
        <dc:format>image/svg+xml</dc:format>
        <dc:type
           rdf:resource="http://purl.org/dc/dcmitype/StillImage" />
      </cc:Work>
    </rdf:RDF>
  </metadata>
  <sodipodi:namedview
     pagecolor="#f5f7fa"
     bordercolor="#666666"
     borderopacity="1"
     objecttolerance="10"
     gridtolerance="10"
     guidetolerance="10"
     inkscape:pageopacity="0"
     inkscape:pageshadow="2"
     inkscape:window-width="1377"
     inkscape:window-height="886"
     id="namedview75"
     showgrid="false"
     inkscape:zoom="6.2890624"
     inkscape:cx="47.622361"
     inkscape:cy="45.396274"
     inkscape:window-x="175"
     inkscape:window-y="58"
     inkscape:window-maximized="0"
     inkscape:current-layer="g877"
     inkscape:document-rotation="0"
     inkscape:pagecheckerboard="0"
     inkscape:showpageshadow="2"
     inkscape:deskcolor="#d1d1d1" />
  <defs
     id="defs29">
    <linearGradient
       id="b"
       x1="399.57"
       x2="399.57"
       y1="545.8"
       y2="517.8"
       gradientTransform="matrix(2.1429,0,0,2.1429,-825.86391,-1107.6662)"
       gradientUnits="userSpaceOnUse">
      <stop
         stop-color="#3889e9"
         offset="0"
         id="stop2" />
      <stop
         stop-color="#5ea5fb"
         offset="1"
         id="stop4" />
    </linearGradient>
  </defs>
  <circle
     cx="32.516094"
     cy="31.877844"
     r="0"
     fill="url(#b)"
     stroke-width="1.5715"
     id="circle41"
     style="fill:url(#b)" />
  <g
     aria-label="GZ"
     transform="matrix(1.2212657,0,0,0.81882264,0.4960938,-0.1661539)"
     id="text93"
     style="font-weight:bold;font-size:11.5263px;line-height:1.25;font-family:sans-serif;-inkscape-font-specification:'sans-serif Bold';fill:#f2f2f2;stroke-width:0.288159" />
  <g
     id="g877"
     transform="matrix(1.1,0,0,1.1,-3.1845928,-3.2065454)">
    <rect
       x="6.3010068"
       y="5.4939413"
       width="51.635597"
       height="53.148327"
       rx="10.980581"
       ry="10.720582"
       fill="url(#linearGradient862)"
       stroke-width="3.0541"
       id="rect35-7-3"
       style="fill:#414141;fill-opacity:1;stroke:#dfdfdf;stroke-width:2.27272727;stroke-dasharray:none;stroke-opacity:1" />
    <path
       style="fill:#dfdfdf;fill-opacity:1;stroke:none;stroke-width:1.44946;stroke-dasharray:none;stroke-opacity:0.3"
       d="m 36.017241,11.859177 c -8.192534,0 -14.961223,7.267216 -14.961223,16.151986 0,3.37694 1.052767,6.4837 2.704878,9.085634 l -9.974236,10.82917 a 2.7197548,2.9528764 0 0 0 3.80387,4.221541 l 9.97424,-10.829171 c 2.400005,1.794073 5.336721,2.844952 8.45274,2.844952 8.192802,0 14.876829,-7.267216 14.876829,-16.151983 0,-8.884766 -6.684027,-16.151985 -14.876829,-16.151985 z m 0,5.873448 c 5.267477,0 9.467073,4.566019 9.467073,10.278538 0,5.712218 -4.199596,10.27853 -9.467073,10.27853 -5.267478,0 -9.467072,-4.566312 -9.467072,-10.27853 0,-5.712522 4.199594,-10.278538 9.467072,-10.278538 z"
       id="path8-6" />
    <rect
       x="34.795551"
       y="33.974232"
       width="24.697144"
       height="25.420679"
       rx="5.2519779"
       ry="5.1276212"
       fill="url(#linearGradient862)"
       stroke-width="3.0541"
       id="rect35-7-3-9"
       style="fill:#414141;fill-opacity:1;stroke:#dfdfdf;stroke-width:2.27273;stroke-dasharray:none;stroke-opacity:1" />
    <g
       id="g206"
       transform="matrix(1.6836916,0,0,1.6836916,27.187564,26.791542)"
       style="fill:#dfdfdf;fill-opacity:1;stroke:none;stroke-width:0.646793;stroke-dasharray:none;stroke-opacity:0.3">
      <path
         style="fill:#dfdfdf;fill-opacity:1;stroke:none;stroke-width:0.646793;stroke-dasharray:none;stroke-opacity:0.3"
         d="m 8,7 h 8 V 9 H 8 Z"
         id="path4" />
      <path
         style="fill:#dfdfdf;fill-opacity:1;stroke:none;stroke-width:0.646793;stroke-dasharray:none;stroke-opacity:0.3"
         d="m 8,11 h 8 v 2 H 8 Z"
         id="path6" />
      <path
         style="fill:#dfdfdf;fill-opacity:1;stroke:none;stroke-width:0.646793;stroke-dasharray:none;stroke-opacity:0.3"
         d="m 8,15 h 8 v 2 H 8 Z"
         id="path8" />
    </g>
  </g>
</svg>
