<?xml version="1.0" encoding="UTF-8" standalone="no"?>
<svg
   width="64"
   height="64"
   version="1.1"
   id="svg73"
   sodipodi:docname="Logo.svg"
   inkscape:version="1.3.2 (091e20ef0f, 2023-11-25)"
   xmlns:inkscape="http://www.inkscape.org/namespaces/inkscape"
   xmlns:sodipodi="http://sodipodi.sourceforge.net/DTD/sodipodi-0.dtd"
   xmlns="http://www.w3.org/2000/svg"
   xmlns:svg="http://www.w3.org/2000/svg"
   xmlns:rdf="http://www.w3.org/1999/02/22-rdf-syntax-ns#"
   xmlns:cc="http://creativecommons.org/ns#"
   xmlns:dc="http://purl.org/dc/elements/1.1/">
  <metadata
     id="metadata77">
    <rdf:RDF>
      <cc:Work
         rdf:about="">
        <dc:format>image/svg+xml</dc:format>
        <dc:type
           rdf:resource="http://purl.org/dc/dcmitype/StillImage" />
      </cc:Work>
    </rdf:RDF>
  </metadata>
  <sodipodi:namedview
     pagecolor="#f5f7fa"
     bordercolor="#666666"
     borderopacity="1"
     objecttolerance="10"
     gridtolerance="10"
     guidetolerance="10"
     inkscape:pageopacity="0"
     inkscape:pageshadow="2"
     inkscape:window-width="1377"
     inkscape:window-height="886"
     id="namedview75"
     showgrid="false"
     inkscape:zoom="6.2890624"
     inkscape:cx="30.211181"
     inkscape:cy="31.085715"
     inkscape:window-x="181"
     inkscape:window-y="77"
     inkscape:window-maximized="0"
     inkscape:current-layer="g877"
     inkscape:document-rotation="0"
     inkscape:pagecheckerboard="0"
     inkscape:showpageshadow="2"
     inkscape:deskcolor="#d1d1d1" />
  <defs
     id="defs29">
    <linearGradient
       id="b"
       x1="399.57"
       x2="399.57"
       y1="545.8"
       y2="517.8"
       gradientTransform="matrix(2.1429,0,0,2.1429,-825.86391,-1107.6662)"
       gradientUnits="userSpaceOnUse">
      <stop
         stop-color="#3889e9"
         offset="0"
         id="stop2" />
      <stop
         stop-color="#5ea5fb"
         offset="1"
         id="stop4" />
    </linearGradient>
    <linearGradient
       id="d"
       x2="1"
       gradientTransform="matrix(14.905727,-4.7106182,4.7106182,14.905727,322.04962,998.26962)"
       gradientUnits="userSpaceOnUse">
      <stop
         stop-color="#fafafa"
         offset="0"
         id="stop7" />
      <stop
         stop-color="#aaa"
         offset="1"
         id="stop8" />
    </linearGradient>
    <linearGradient
       id="e"
       x2="1"
       gradientTransform="matrix(21.439909,0,0,21.439909,26.63554,1159.7788)"
       gradientUnits="userSpaceOnUse">
      <stop
         stop-color="#f0f0f0"
         offset="0"
         id="stop9" />
      <stop
         stop-color="#b7f1ff"
         offset="1"
         id="stop10" />
    </linearGradient>
    <linearGradient
       id="b-3"
       x2="1"
       gradientTransform="matrix(0,21.143273,-21.143273,0,-327.20917,21.25088)"
       gradientUnits="userSpaceOnUse">
      <stop
         stop-color="#545454"
         offset="0"
         id="stop3" />
      <stop
         stop-color="#242424"
         offset="1"
         id="stop4-6" />
    </linearGradient>
  </defs>
  <circle
     cx="32.516094"
     cy="31.877844"
     r="0"
     fill="url(#b)"
     stroke-width="1.5715"
     id="circle41"
     style="fill:url(#b)" />
  <g
     aria-label="GZ"
     transform="matrix(1.2212657,0,0,0.81882264,0.4960938,-0.1661539)"
     id="text93"
     style="font-weight:bold;font-size:11.5263px;line-height:1.25;font-family:sans-serif;-inkscape-font-specification:'sans-serif Bold';fill:#f2f2f2;stroke-width:0.288159" />
  <g
     id="g877"
     transform="matrix(1.1,0,0,1.1,-3.1845928,-3.2065454)">
    <rect
       x="6.3010068"
       y="5.4939413"
       width="51.635597"
       height="53.148327"
       rx="10.980581"
       ry="10.720582"
       fill="url(#linearGradient862)"
       stroke-width="3.0541"
       id="rect35-7-3"
       style="fill:#414141;fill-opacity:1;stroke:#dfdfdf;stroke-width:2.27272727;stroke-dasharray:none;stroke-opacity:1" />
    <path
       d="m 37.68475,53.528535 0.06919,-8.745689 -10.798507,-0.03143 -0.07091,8.749103 z m -2.585876,-2.032266 -2.198044,-0.0041 0.01907,-1.800958 2.194605,0.0075 z m -3.344538,-0.0085 -2.203179,-0.0041 0.01735,-1.799258 2.198045,0.0041 z m 8.858444,-9.14341 0.236221,-28.393058 c 0.01341,-1.541738 -1.229896,-2.798458 -2.775095,-2.805039 l -11.193841,-0.02328 c -1.547779,-0.004 -2.81055,1.250365 -2.820526,2.790411 L 23.822476,42.30388 Z m -8.363588,-3.829253 -1.49096,-2.620183 1.081481,0.0024 0.08424,-10.115443 -2.775882,2.603279 c -0.180003,0.220639 -0.306473,0.509156 -0.315777,0.807713 -0.01353,1.562274 -0.01988,2.111542 -0.01988,2.111542 l 0.877842,0.003 -0.02005,2.618919 -2.620705,-0.0064 0.02091,-2.62148 0.878684,0.0056 0.01718,-2.086746 c 0.005,-0.586923 0.332429,-1.20035 0.712702,-1.590178 0.0086,-0.0085 2.943557,-2.757238 2.943557,-2.757238 0.180006,-0.22064 0.306485,-0.510867 0.31664,-0.808566 l 0.02451,-3.29055 c 8.68e-4,-0.0042 8.86e-4,-0.0076 9.06e-4,-0.01113 l 0.01399,-1.489546 c -1.000833,-0.203016 -1.748169,-1.087452 -1.739063,-2.14665 0.01078,-1.208922 0.999112,-2.186714 2.207219,-2.183654 1.207255,0.0023 2.179092,0.984524 2.169188,2.192595 -0.0082,1.060059 -0.770203,1.941528 -1.772332,2.139786 l -0.01162,1.51437 c 0.0044,0.298631 0.124315,0.590183 0.299386,0.81187 0,0 2.891687,2.762883 2.901049,2.772343 l -0.0016,0.0016 c 0.373488,0.391335 0.690216,1.005629 0.685364,1.590839 l -0.01759,2.163748 c 0.508124,0.179837 0.870875,0.663495 0.866957,1.234166 -0.0056,0.723816 -0.595678,1.3076 -1.319513,1.305425 -0.722985,-0.0013 -1.305918,-0.590532 -1.29947,-1.313491 0.0048,-0.571523 0.377823,-1.049519 0.889578,-1.227306 5.61e-4,-0.264382 0.0062,-0.981354 0.01689,-2.188565 -0.0044,-0.29863 -0.127737,-0.5902 -0.30366,-0.812749 l -2.732494,-2.612301 -0.112058,13.387152 1.078068,6.52e-4 z"
       fill="#ffffff"
       fill-rule="nonzero"
       id="path2"
       style="stroke-width:1.21;fill:#dfdfdf;fill-opacity:1" />
  </g>
</svg>
