<?xml version="1.0" encoding="UTF-8" standalone="no"?>
<svg
   width="64"
   height="64"
   version="1.1"
   id="svg73"
   sodipodi:docname="Logo.svg"
   inkscape:version="1.3.2 (091e20ef0f, 2023-11-25)"
   xmlns:inkscape="http://www.inkscape.org/namespaces/inkscape"
   xmlns:sodipodi="http://sodipodi.sourceforge.net/DTD/sodipodi-0.dtd"
   xmlns="http://www.w3.org/2000/svg"
   xmlns:svg="http://www.w3.org/2000/svg"
   xmlns:rdf="http://www.w3.org/1999/02/22-rdf-syntax-ns#"
   xmlns:cc="http://creativecommons.org/ns#"
   xmlns:dc="http://purl.org/dc/elements/1.1/">
  <metadata
     id="metadata77">
    <rdf:RDF>
      <cc:Work
         rdf:about="">
        <dc:format>image/svg+xml</dc:format>
        <dc:type
           rdf:resource="http://purl.org/dc/dcmitype/StillImage" />
      </cc:Work>
    </rdf:RDF>
  </metadata>
  <sodipodi:namedview
     pagecolor="#f5f7fa"
     bordercolor="#666666"
     borderopacity="1"
     objecttolerance="10"
     gridtolerance="10"
     guidetolerance="10"
     inkscape:pageopacity="0"
     inkscape:pageshadow="2"
     inkscape:window-width="1377"
     inkscape:window-height="886"
     id="namedview75"
     showgrid="false"
     inkscape:zoom="6.2890624"
     inkscape:cx="30.211181"
     inkscape:cy="31.085715"
     inkscape:window-x="181"
     inkscape:window-y="77"
     inkscape:window-maximized="0"
     inkscape:current-layer="g877"
     inkscape:document-rotation="0"
     inkscape:pagecheckerboard="0"
     inkscape:showpageshadow="2"
     inkscape:deskcolor="#d1d1d1" />
  <defs
     id="defs29">
    <linearGradient
       id="b"
       x1="399.57"
       x2="399.57"
       y1="545.8"
       y2="517.8"
       gradientTransform="matrix(2.1429,0,0,2.1429,-825.86391,-1107.6662)"
       gradientUnits="userSpaceOnUse">
      <stop
         stop-color="#3889e9"
         offset="0"
         id="stop2" />
      <stop
         stop-color="#5ea5fb"
         offset="1"
         id="stop4" />
    </linearGradient>
    <linearGradient
       id="d"
       x2="1"
       gradientTransform="matrix(14.905727,-4.7106182,4.7106182,14.905727,322.04962,998.26962)"
       gradientUnits="userSpaceOnUse">
      <stop
         stop-color="#fafafa"
         offset="0"
         id="stop7" />
      <stop
         stop-color="#aaa"
         offset="1"
         id="stop8" />
    </linearGradient>
    <linearGradient
       id="e"
       x2="1"
       gradientTransform="matrix(21.439909,0,0,21.439909,26.63554,1159.7788)"
       gradientUnits="userSpaceOnUse">
      <stop
         stop-color="#f0f0f0"
         offset="0"
         id="stop9" />
      <stop
         stop-color="#b7f1ff"
         offset="1"
         id="stop10" />
    </linearGradient>
    <linearGradient
       id="b-3"
       x2="1"
       gradientTransform="matrix(0,21.143273,-21.143273,0,-327.20917,21.25088)"
       gradientUnits="userSpaceOnUse">
      <stop
         stop-color="#545454"
         offset="0"
         id="stop3" />
      <stop
         stop-color="#242424"
         offset="1"
         id="stop4-6" />
    </linearGradient>
  </defs>
  <circle
     cx="32.516094"
     cy="31.877844"
     r="0"
     fill="url(#b)"
     stroke-width="1.5715"
     id="circle41"
     style="fill:url(#b)" />
  <g
     aria-label="GZ"
     transform="matrix(1.2212657,0,0,0.81882264,0.4960938,-0.1661539)"
     id="text93"
     style="font-weight:bold;font-size:11.5263px;line-height:1.25;font-family:sans-serif;-inkscape-font-specification:'sans-serif Bold';fill:#f2f2f2;stroke-width:0.288159" />
  <g
     id="g877"
     transform="matrix(1.1,0,0,1.1,-3.1845928,-3.2065454)">
    <rect
       x="6.3010068"
       y="5.4939413"
       width="51.635597"
       height="53.148327"
       rx="10.980581"
       ry="10.720582"
       fill="url(#linearGradient862)"
       stroke-width="3.0541"
       id="rect35-7-3"
       style="fill:#414141;fill-opacity:1;stroke:#dfdfdf;stroke-width:2.27272727;stroke-dasharray:none;stroke-opacity:1" />
    <path
       id="path4"
       style="fill:#dfdfdf;stroke-width:0.189474;fill-opacity:1"
       d="m 15.866615,15.557002 -0.251953,0.136719 c -0.335738,0.181498 -0.627853,0.493888 -0.785156,0.841797 -0.125507,0.277587 -0.127554,0.394816 -0.128906,5.005859 l -0.002,4.720703 h 3.999999 4.001954 l 1.341796,3.93164 c 0.737897,2.162366 1.362832,3.953279 1.388672,3.98047 0.03565,0.03752 3.172678,-9.076038 4.935547,-14.337892 0.107646,-0.321315 0.216375,-0.583984 0.240235,-0.583984 0.02386,0 0.906038,1.974464 1.960937,4.388672 1.054898,2.414208 1.934049,4.388879 1.955078,4.388672 0.02103,-2.08e-4 0.935088,-2.304325 2.029297,-5.121094 1.094211,-2.816771 2.003125,-5.131207 2.021484,-5.142578 0.01836,-0.01137 1.320841,3.842948 2.894532,8.564453 l 2.861328,8.583985 h 2.427734 2.425781 l -0.002,-9.046876 c -0.0013,-8.961931 -0.0015,-9.050504 -0.128862,-9.33203 -0.157302,-0.347909 -0.449416,-0.660299 -0.785156,-0.841797 L 48.01502,15.557002 H 31.940834 Z m -1.167968,15.125 v 9.033203 c 0,9.853991 -0.02311,9.21386 0.351562,9.705078 0.177055,0.232131 0.630312,0.51909 0.933593,0.591797 0.110048,0.02638 7.347687,0.0444 16.083985,0.03906 l 15.882813,-0.0098 0.261717,-0.138672 c 0.408928,-0.218764 0.632775,-0.438194 0.808595,-0.791016 l 0.162109,-0.326172 v -4.724609 -4.72461 H 45.177162 41.171303 L 39.73185,35.013996 c -0.791989,-2.376816 -1.456843,-4.311018 -1.476563,-4.298828 -0.01972,0.01219 -0.801663,1.998185 -1.738281,4.414062 -0.936618,2.415879 -1.727003,4.3844 -1.757813,4.375 -0.03081,-0.0093 -0.854959,-1.842016 -1.830078,-4.072265 -0.97512,-2.230252 -1.788684,-4.054688 -1.808594,-4.054688 -0.0272,0 -4.36734,12.692 -5.470703,15.998047 -0.09051,0.271194 -0.181192,0.477011 -0.201172,0.457031 -0.01998,-0.01998 -1.34843,-3.878655 -2.953125,-8.576172 L 19.577553,30.715157 17.1381,30.697577 Z" />
  </g>
</svg>
