<?xml version="1.0" encoding="UTF-8" standalone="no"?>
<svg
   width="64"
   height="64"
   version="1.1"
   id="svg73"
   sodipodi:docname="audacious.svg"
   inkscape:version="1.4.2 (ebf0e940d0, 2025-05-08)"
   xmlns:inkscape="http://www.inkscape.org/namespaces/inkscape"
   xmlns:sodipodi="http://sodipodi.sourceforge.net/DTD/sodipodi-0.dtd"
   xmlns="http://www.w3.org/2000/svg"
   xmlns:svg="http://www.w3.org/2000/svg"
   xmlns:rdf="http://www.w3.org/1999/02/22-rdf-syntax-ns#"
   xmlns:cc="http://creativecommons.org/ns#"
   xmlns:dc="http://purl.org/dc/elements/1.1/">
  <metadata
     id="metadata77">
    <rdf:RDF>
      <cc:Work
         rdf:about="">
        <dc:format>image/svg+xml</dc:format>
        <dc:type
           rdf:resource="http://purl.org/dc/dcmitype/StillImage" />
      </cc:Work>
    </rdf:RDF>
  </metadata>
  <sodipodi:namedview
     pagecolor="#f5f7fa"
     bordercolor="#666666"
     borderopacity="1"
     objecttolerance="10"
     gridtolerance="10"
     guidetolerance="10"
     inkscape:pageopacity="0"
     inkscape:pageshadow="2"
     inkscape:window-width="1377"
     inkscape:window-height="886"
     id="namedview75"
     showgrid="false"
     inkscape:zoom="6.2890624"
     inkscape:cx="46.986336"
     inkscape:cy="44.601243"
     inkscape:window-x="264"
     inkscape:window-y="75"
     inkscape:window-maximized="0"
     inkscape:current-layer="g877"
     inkscape:document-rotation="0"
     inkscape:pagecheckerboard="0"
     inkscape:showpageshadow="2"
     inkscape:deskcolor="#d1d1d1" />
  <defs
     id="defs29" />
  <circle
     cx="32.516094"
     cy="31.877844"
     r="0"
     fill="url(#b)"
     stroke-width="1.5715"
     id="circle41"
     style="fill:url(#b)" />
  <g
     aria-label="GZ"
     transform="matrix(1.2212657,0,0,0.81882264,0.4960938,-0.1661539)"
     id="text93"
     style="font-weight:bold;font-size:11.5263px;line-height:1.25;font-family:sans-serif;-inkscape-font-specification:'sans-serif Bold';fill:#f2f2f2;stroke-width:0.288159" />
  <g
     id="g877"
     transform="matrix(1.1,0,0,1.1,-3.1845928,-3.2065454)">
    <rect
       x="8.3496294"
       y="8.369586"
       width="47.272728"
       height="47.272728"
       rx="9.8825235"
       ry="9.6485243"
       fill="url(#linearGradient862)"
       stroke-width="3.0541"
       id="rect35-7-3"
       style="fill:#414141;fill-opacity:1;stroke:#dfdfdf;stroke-width:2.04545;stroke-dasharray:none;stroke-opacity:1" />
    <path
       d="m 17.108774,22.272411 12.431018,24.096998 c 0,0 0.673881,1.291621 2.367638,1.291621 1.689227,0 2.36311,-1.291621 2.36311,-1.291621 0,0 8.639259,-14.518444 12.165992,-22.263164 0.354946,-0.778922 0.736776,-1.567692 0.898537,-2.415669 a 3.7512449,4.1163102 0 0 0 0.03083,-1.774711 3.4682955,3.805824 0 0 0 -0.929962,-1.912786 3.6975826,4.0574266 0 0 0 -2.084577,-0.995829 4.3265625,4.7476171 0 0 0 -2.403556,0.532402 3.1448255,3.4508749 0 0 0 -1.244459,1.32122 3.8187785,4.1904164 0 0 0 -0.390841,1.833911 4.5554476,4.9987772 0 0 0 0.256053,1.715583 c 0.116786,0.350109 0.269507,0.690154 0.390843,1.035287 0.09438,0.296022 0.233649,0.576749 0.260525,0.887357 a 2.8752734,3.1550902 0 0 1 -0.125883,1.483848 c -0.807902,2.257923 -2.205129,4.421949 -4.051657,5.748255 -0.763765,0.547185 -1.74315,0.685222 -2.650663,0.729609 -1.042288,0.04928 -2.24633,-0.04007 -3.086456,-0.547228 -0.844609,-0.50284 -1.239958,-1.380341 -1.770082,-2.149409 -2.426013,-3.534713 -6.393112,-11.274586 -6.393112,-11.274586 0,0 -1.725185,-3.347368 -4.8296,-1.321178 -3.099925,2.031076 -1.208531,5.274772 -1.208531,5.274772 z"
       fill="url(#linearGradient984)"
       fill-rule="evenodd"
       id="path20-7"
       style="fill:#dfdfdf;fill-opacity:1;stroke:none;stroke-width:0.497252;stroke-dasharray:none;stroke-opacity:0.6" />
  </g>
</svg>
