<?xml version="1.0" encoding="UTF-8" standalone="no"?>
<svg
   width="64"
   height="64"
   version="1.1"
   id="svg73"
   sodipodi:docname="steam_icon_1934680.svg"
   inkscape:version="1.3.2 (091e20ef0f, 2023-11-25)"
   xmlns:inkscape="http://www.inkscape.org/namespaces/inkscape"
   xmlns:sodipodi="http://sodipodi.sourceforge.net/DTD/sodipodi-0.dtd"
   xmlns="http://www.w3.org/2000/svg"
   xmlns:svg="http://www.w3.org/2000/svg"
   xmlns:rdf="http://www.w3.org/1999/02/22-rdf-syntax-ns#"
   xmlns:cc="http://creativecommons.org/ns#"
   xmlns:dc="http://purl.org/dc/elements/1.1/">
  <metadata
     id="metadata77">
    <rdf:RDF>
      <cc:Work
         rdf:about="">
        <dc:format>image/svg+xml</dc:format>
        <dc:type
           rdf:resource="http://purl.org/dc/dcmitype/StillImage" />
      </cc:Work>
    </rdf:RDF>
  </metadata>
  <sodipodi:namedview
     pagecolor="#f5f7fa"
     bordercolor="#666666"
     borderopacity="1"
     objecttolerance="10"
     gridtolerance="10"
     guidetolerance="10"
     inkscape:pageopacity="0"
     inkscape:pageshadow="2"
     inkscape:window-width="1377"
     inkscape:window-height="886"
     id="namedview75"
     showgrid="false"
     inkscape:zoom="6.2890624"
     inkscape:cx="4.7701864"
     inkscape:cy="12.004969"
     inkscape:window-x="0"
     inkscape:window-y="48"
     inkscape:window-maximized="0"
     inkscape:current-layer="g877"
     inkscape:document-rotation="0"
     inkscape:pagecheckerboard="0"
     inkscape:showpageshadow="2"
     inkscape:deskcolor="#d1d1d1" />
  <defs
     id="defs29">
    <linearGradient
       id="b"
       x1="399.57"
       x2="399.57"
       y1="545.8"
       y2="517.8"
       gradientTransform="matrix(2.1429,0,0,2.1429,-825.86391,-1107.6662)"
       gradientUnits="userSpaceOnUse">
      <stop
         stop-color="#3889e9"
         offset="0"
         id="stop2" />
      <stop
         stop-color="#5ea5fb"
         offset="1"
         id="stop4" />
    </linearGradient>
    <linearGradient
       id="d"
       x2="1"
       gradientTransform="matrix(14.905727,-4.7106182,4.7106182,14.905727,322.04962,998.26962)"
       gradientUnits="userSpaceOnUse">
      <stop
         stop-color="#fafafa"
         offset="0"
         id="stop7" />
      <stop
         stop-color="#aaa"
         offset="1"
         id="stop8" />
    </linearGradient>
    <linearGradient
       id="e"
       x2="1"
       gradientTransform="matrix(21.439909,0,0,21.439909,26.63554,1159.7788)"
       gradientUnits="userSpaceOnUse">
      <stop
         stop-color="#f0f0f0"
         offset="0"
         id="stop9" />
      <stop
         stop-color="#b7f1ff"
         offset="1"
         id="stop10" />
    </linearGradient>
    <linearGradient
       id="b-2"
       x2="1"
       gradientTransform="matrix(10.719636,14.238636,-14.238636,10.719636,-67.544643,95.73886)"
       gradientUnits="userSpaceOnUse">
      <stop
         stop-color="#3077e1"
         offset="0"
         id="stop3" />
      <stop
         stop-color="#5df"
         offset="1"
         id="stop4-7" />
    </linearGradient>
    <linearGradient
       id="c"
       x2="1"
       gradientTransform="matrix(-0.30023273,-19.715,19.715,-0.30023273,61.587812,32.183496)"
       gradientUnits="userSpaceOnUse">
      <stop
         stop-color="#da9517"
         offset="0"
         id="stop5" />
      <stop
         stop-color="#ffee58"
         offset="1"
         id="stop6" />
    </linearGradient>
  </defs>
  <circle
     cx="32.516094"
     cy="31.877844"
     r="0"
     fill="url(#b)"
     stroke-width="1.5715"
     id="circle41"
     style="fill:url(#b)" />
  <g
     aria-label="GZ"
     transform="matrix(1.2212657,0,0,0.81882264,0.4960938,-0.1661539)"
     id="text93"
     style="font-weight:bold;font-size:11.5263px;line-height:1.25;font-family:sans-serif;-inkscape-font-specification:'sans-serif Bold';fill:#f2f2f2;stroke-width:0.288159" />
  <g
     id="g877"
     transform="matrix(1.1,0,0,1.1,-3.1845928,-3.2065454)">
    <rect
       x="6.3010068"
       y="5.4939413"
       width="51.635597"
       height="53.148327"
       rx="10.980581"
       ry="10.720582"
       fill="url(#linearGradient862)"
       stroke-width="3.0541"
       id="rect35-7-3"
       style="fill:#414141;fill-opacity:1;stroke:#dfdfdf;stroke-width:2.27272727;stroke-dasharray:none;stroke-opacity:1" />
    <path
       id="path6"
       style="fill:#dfdfdf;stroke-width:0.0514714;stroke-opacity:0.66;fill-opacity:1"
       d="m 31.674706,13.407379 c -4.117947,0.06005 -8.086257,1.498063 -11.37145,4.132458 -0.724436,0.580925 -1.952026,1.779881 -2.53125,2.472124 -2.428784,2.902693 -3.89775,6.355597 -4.289063,10.081854 -0.0911,0.867507 -0.104595,2.710429 -0.02557,3.58434 0.191579,2.118587 0.767396,4.242363 1.692294,6.240234 l 0.209339,0.450639 h 10.607601 c 6.178501,0 10.600012,-0.01966 10.590022,-0.04634 -0.0094,-0.0252 -0.410434,-0.637209 -0.891691,-1.361507 l -0.87571,-1.316761 -6.523083,-0.0016 c -5.184914,-9.9e-4 -6.524146,-0.01438 -6.523082,-0.06552 7.16e-4,-0.03539 0.8304,-1.92867 1.844105,-4.207564 l 1.844105,-4.143644 -2.317117,-1.39027 c -1.273865,-0.76435 -2.317857,-1.403194 -2.320312,-1.419034 -0.0024,-0.01584 0.621126,-1.69933 1.385476,-3.742543 l 1.39027,-3.715376 10.832919,-0.0016 H 45.23543 l -0.255682,-0.262066 c -0.39456,-0.404762 -1.267675,-1.147757 -1.909625,-1.62514 -3.064388,-2.278818 -6.71064,-3.540172 -10.570845,-3.656251 -0.275709,-0.0083 -0.550044,-0.0104 -0.824573,-0.0064 z m 6.320135,10.233666 c -6.173535,0 -10.592022,0.01966 -10.582032,0.04634 0.0094,0.0252 0.410434,0.637211 0.89169,1.361506 l 0.875711,1.316761 6.523082,0.0016 c 5.203429,9.9e-4 6.524681,0.01552 6.524681,0.06711 0,0.03559 -0.622592,1.92887 -1.382281,4.207564 l -1.380682,4.142046 1.864881,1.399858 1.864879,1.39826 -1.396662,3.734552 -1.39826,3.734554 -10.83292,0.01438 -10.834517,0.01279 0.667969,0.61044 c 3.129475,2.855094 6.953184,4.514392 11.219637,4.869141 0.768656,0.06391 2.63052,0.02428 3.44851,-0.0735 2.310248,-0.276199 4.249099,-0.856073 6.280184,-1.879261 3.570823,-1.798857 6.426043,-4.655485 8.232955,-8.236152 1.017628,-2.016578 1.593576,-3.927915 1.890447,-6.278587 0.0918,-0.726887 0.0918,-3.442324 0,-4.169211 -0.268236,-2.123933 -0.799382,-4.007257 -1.615589,-5.727273 L 48.59445,23.641027 Z m -7.851031,6.537464 -0.442649,1.773793 c -0.24416,0.976377 -0.444247,1.799522 -0.444247,1.828125 0,0.03424 0.779523,0.05114 2.283559,0.05114 h 2.285155 l 0.44265,-1.773793 c 0.244159,-0.976375 0.444246,-1.799521 0.444246,-1.828125 0,-0.03424 -0.779522,-0.05114 -2.283557,-0.05114 z" />
    <g
       id="g1"
       transform="matrix(1.21,0,0,1.21,2.0148825,-2.4743588)" />
  </g>
</svg>
