<?xml version="1.0" encoding="UTF-8" standalone="no"?>
<svg
   width="64"
   height="64"
   version="1.1"
   id="svg73"
   sodipodi:docname="gnome-window-manager.svg"
   inkscape:version="1.3.2 (091e20ef0f, 2023-11-25)"
   xmlns:inkscape="http://www.inkscape.org/namespaces/inkscape"
   xmlns:sodipodi="http://sodipodi.sourceforge.net/DTD/sodipodi-0.dtd"
   xmlns:xlink="http://www.w3.org/1999/xlink"
   xmlns="http://www.w3.org/2000/svg"
   xmlns:svg="http://www.w3.org/2000/svg"
   xmlns:rdf="http://www.w3.org/1999/02/22-rdf-syntax-ns#"
   xmlns:cc="http://creativecommons.org/ns#"
   xmlns:dc="http://purl.org/dc/elements/1.1/">
  <metadata
     id="metadata77">
    <rdf:RDF>
      <cc:Work
         rdf:about="">
        <dc:format>image/svg+xml</dc:format>
        <dc:type
           rdf:resource="http://purl.org/dc/dcmitype/StillImage" />
      </cc:Work>
    </rdf:RDF>
  </metadata>
  <sodipodi:namedview
     pagecolor="#f5f7fa"
     bordercolor="#666666"
     borderopacity="1"
     objecttolerance="10"
     gridtolerance="10"
     guidetolerance="10"
     inkscape:pageopacity="0"
     inkscape:pageshadow="2"
     inkscape:window-width="1226"
     inkscape:window-height="661"
     id="namedview75"
     showgrid="false"
     inkscape:zoom="6.2890624"
     inkscape:cx="24.645963"
     inkscape:cy="30.926709"
     inkscape:window-x="35"
     inkscape:window-y="32"
     inkscape:window-maximized="0"
     inkscape:current-layer="g877"
     inkscape:document-rotation="0"
     inkscape:pagecheckerboard="0"
     inkscape:showpageshadow="2"
     inkscape:deskcolor="#d1d1d1" />
  <defs
     id="defs29">
    <linearGradient
       id="b"
       x1="399.57"
       x2="399.57"
       y1="545.8"
       y2="517.8"
       gradientTransform="matrix(2.1429,0,0,2.1429,-825.86391,-1107.6662)"
       gradientUnits="userSpaceOnUse">
      <stop
         stop-color="#3889e9"
         offset="0"
         id="stop2" />
      <stop
         stop-color="#5ea5fb"
         offset="1"
         id="stop4" />
    </linearGradient>
    <linearGradient
       id="d"
       x2="1"
       gradientTransform="matrix(14.905727,-4.7106182,4.7106182,14.905727,322.04962,998.26962)"
       gradientUnits="userSpaceOnUse">
      <stop
         stop-color="#fafafa"
         offset="0"
         id="stop7" />
      <stop
         stop-color="#aaa"
         offset="1"
         id="stop8" />
    </linearGradient>
    <linearGradient
       id="e"
       x2="1"
       gradientTransform="matrix(21.439909,0,0,21.439909,26.63554,1159.7788)"
       gradientUnits="userSpaceOnUse">
      <stop
         stop-color="#f0f0f0"
         offset="0"
         id="stop9" />
      <stop
         stop-color="#b7f1ff"
         offset="1"
         id="stop10" />
    </linearGradient>
    <linearGradient
       id="c"
       x2="1"
       gradientTransform="matrix(12.1408,0,0,12.1408,23.2412,24)"
       gradientUnits="userSpaceOnUse"
       xlink:href="#b-3" />
    <linearGradient
       id="b-3">
      <stop
         stop-color="#2e3e46"
         offset="0"
         id="stop3" />
      <stop
         stop-color="#47606a"
         offset="1"
         id="stop4-6" />
    </linearGradient>
    <linearGradient
       id="d-7"
       x2="1"
       gradientTransform="matrix(12.1408,0,0,12.1408,12.618,24)"
       gradientUnits="userSpaceOnUse"
       xlink:href="#b-3" />
    <linearGradient
       id="e-3"
       x2="1"
       gradientTransform="matrix(22.764,0,0,22.764,12.618,24.7782)"
       gradientUnits="userSpaceOnUse">
      <stop
         stop-color="#ff9300"
         offset="0"
         id="stop5" />
      <stop
         stop-color="#ffd702"
         offset="1"
         id="stop6" />
    </linearGradient>
    <linearGradient
       id="a"
       x2="1"
       gradientTransform="matrix(0.27689273,-41.834818,41.834818,0.27689273,24.625266,45.836496)"
       gradientUnits="userSpaceOnUse">
      <stop
         stop-color="#c45e00"
         offset="0"
         id="stop1" />
      <stop
         stop-color="#cd9700"
         offset="1"
         id="stop2-2" />
    </linearGradient>
  </defs>
  <circle
     cx="32.516094"
     cy="31.877844"
     r="0"
     fill="url(#b)"
     stroke-width="1.5715"
     id="circle41"
     style="fill:url(#b)" />
  <g
     aria-label="GZ"
     transform="matrix(1.2212657,0,0,0.81882264,0.4960938,-0.1661539)"
     id="text93"
     style="font-weight:bold;font-size:11.5263px;line-height:1.25;font-family:sans-serif;-inkscape-font-specification:'sans-serif Bold';fill:#f2f2f2;stroke-width:0.288159" />
  <g
     id="g877"
     transform="matrix(1.1,0,0,1.1,-3.1845928,-3.2065454)">
    <rect
       x="6.3010068"
       y="5.4939413"
       width="51.635597"
       height="53.148327"
       rx="10.980581"
       ry="10.720582"
       fill="url(#linearGradient862)"
       stroke-width="3.0541"
       id="rect35-7-3"
       style="fill:#414141;fill-opacity:1;stroke:#dfdfdf;stroke-width:2.27272727;stroke-dasharray:none;stroke-opacity:1" />
    <g
       id="g10"
       transform="matrix(0.90909091,0,0,0.90909091,10.167812,10.187769)"
       style="fill:#dfdfdf;fill-opacity:1">
      <path
         id="path3"
         style="fill:#dfdfdf;stroke-width:0.0622568;fill-opacity:1"
         d="M 23.986328,1.2890625 C 23.078654,1.289059 22.174499,1.3246332 21.572266,1.3945312 16.285796,2.0081045 11.635885,4.2391154 7.9375,7.9375 4.173803,11.701197 1.9433814,16.422497 1.3632812,21.851562 c -0.1090175,1.020279 -0.092311,3.508801 0.03125,4.576172 0.610955,5.277665 2.8481409,9.943845 6.5410158,13.636719 4.042674,4.042674 9.170787,6.307118 15.068359,6.654297 1.237712,0.07286 3.57746,-0.08604 5.011719,-0.339844 9.287323,-1.643464 16.670619,-9.028745 18.359375,-18.363281 0.459043,-2.53734 0.459043,-5.49391 0,-8.03125 C 45.543279,15.387071 43.360549,11.229975 40.033203,7.90625 36.355676,4.2327259 31.678052,1.995962 26.416016,1.3945312 25.804423,1.3246286 24.894002,1.289066 23.986328,1.2890625 Z M 24.541016,7.15625 c 3.39836,0.1017981 6.730098,1.2419223 9.59375,3.378906 0.474945,0.354425 0.661325,0.529963 0.640625,0.601563 -0.01609,0.05564 -0.0752,0.60436 -0.13086,1.220703 -0.09904,1.096694 -0.106756,1.139202 -0.43164,1.992187 C 33.694857,15.709712 32.824043,18.40858 32.5,19.658203 l -0.06836,0.263672 h -1.109375 c -1.379091,0 -1.875,0.04493 -1.875,0.171875 0,0.07813 0.08558,0.08702 0.548828,0.05078 0.382639,-0.02993 0.77276,-0.01298 1.291015,0.05859 0.40873,0.05644 0.753995,0.11352 0.765625,0.125 0.04063,0.04008 -0.56614,1.932714 -0.748046,2.333984 -0.100896,0.222568 -0.253054,0.739733 -0.339844,1.150391 -0.357204,1.690099 -0.726873,2.970612 -1.00586,3.486328 -0.155723,0.287863 -0.188585,0.312738 -0.425781,0.330078 -0.236647,0.0173 -0.276647,-0.0025 -0.511719,-0.269531 -0.447107,-0.50794 -1.184057,-1.888275 -1.279296,-2.394531 -0.02247,-0.119442 -0.127925,-0.383352 -0.234376,-0.587891 -0.106449,-0.204538 -0.485656,-1.01778 -0.84375,-1.806641 -0.481207,-1.060073 -0.707606,-1.645964 -0.867187,-2.24414 -0.246563,-0.924227 -0.524622,-1.605331 -0.96875,-2.382813 -0.391078,-0.684606 -0.480074,-0.757965 -0.939453,-0.759765 -0.588046,-0.0023 -1.031366,0.251771 -1.511719,0.863281 -0.237146,0.301896 -0.258122,0.352247 -0.201172,0.515625 0.07719,0.221442 -0.13275,0.864274 -0.707031,2.160156 -0.207078,0.467281 -0.536075,1.283715 -0.732422,1.814453 -0.469266,1.26846 -0.896847,2.264986 -1.126953,2.63086 -0.232987,0.37046 -0.428098,0.392769 -0.763672,0.0918 -0.187366,-0.168046 -0.257411,-0.307155 -0.414062,-0.824219 -0.490248,-1.618174 -0.953748,-4.452855 -1.101563,-6.738281 -0.03651,-0.564462 -0.05439,-0.638672 -0.15625,-0.638672 -0.11271,0 -0.169241,-0.214926 -0.06836,-0.259766 0.02568,-0.01141 0.113312,-0.165895 0.195312,-0.34375 0.082,-0.177855 0.242535,-0.414039 0.357422,-0.52539 0.215916,-0.209275 0.27295,-0.340724 0.123047,-0.283204 -0.04719,0.0181 -0.111348,0.0078 -0.142578,-0.02344 -0.03421,-0.03418 -0.141964,-0.03324 -0.271484,0.0039 -0.452927,0.129898 -0.550372,0.09303 -0.708985,-0.265625 C 16.502292,15.008786 16.25,14.159531 16.25,13.988281 c 0,-0.0868 0.06418,-0.105469 0.373047,-0.105469 0.207523,0 0.373047,-0.02791 0.373047,-0.0625 0,-0.03583 -0.19304,-0.0625 -0.455078,-0.0625 H 16.085938 L 15.9375,13.246094 c -0.170404,-0.591434 -0.757598,-1.785673 -1.230469,-2.5 -0.17881,-0.270114 -0.326172,-0.513083 -0.326172,-0.539063 0,-0.02598 0.259442,-0.2126208 0.576172,-0.4160154 0.762215,-0.4894717 0.72678,-0.4722857 0.8125,-0.4023437 0.04925,0.040188 0.204209,0.040184 0.449219,0 0.205447,-0.033695 0.667811,-0.049439 1.027344,-0.035156 0.522765,0.020768 0.708475,0.055067 0.927734,0.1679688 l 0.273438,0.140625 0.285156,-0.1289063 c 0.157375,-0.070795 0.35458,-0.1368544 0.4375,-0.1464843 0.08292,-0.00963 0.161681,-0.052901 0.175781,-0.095703 0.02007,-0.060948 -0.332748,-0.076172 -1.628906,-0.076172 -0.910245,0 -1.654297,-0.02366 -1.654297,-0.052734 0,-0.029075 0.275844,-0.1830759 0.613281,-0.3417969 2.538489,-1.194035 5.222065,-1.7432395 7.865235,-1.6640632 z m -12.511719,5.046875 c 0.02685,0 0.04883,0.237229 0.04883,0.527344 0,0.344186 0.126981,1.322392 0.367187,2.816406 0.348705,2.168833 0.371681,2.364347 0.40625,3.720703 0.02007,0.787548 0.05426,1.58 0.07617,1.759766 0.03749,0.307518 0.0315,0.326172 -0.09766,0.326172 -0.167621,0 -0.378906,0.106686 -0.378906,0.191406 0,0.03866 0.117133,0.04714 0.310547,0.02148 l 0.3125,-0.04102 v 1.816406 c 0,1.500657 0.02166,1.955186 0.123047,2.607422 0.244095,1.570317 0.557988,2.875869 0.992187,4.128906 0.150943,0.435597 0.26107,0.888307 0.287109,1.175781 0.0638,0.704312 0.143586,1.07179 0.269532,1.244141 0.06255,0.0856 0.184987,0.408626 0.273437,0.716797 0.259623,0.904555 0.356976,1.069829 1.050781,1.800781 0.755982,0.796458 1.395887,1.289269 2.179688,1.681641 0.710353,0.355604 0.842219,0.359596 1.140625,0.0293 0.41573,-0.460162 0.602428,-1.02285 0.878906,-2.640624 0.330556,-1.934197 0.628354,-3.311454 0.777344,-3.589844 0.05511,-0.102979 0.07471,-0.09921 0.287109,0.04492 0.235959,0.160126 0.875477,0.376476 0.935547,0.316406 0.120584,-0.120585 -0.22025,-0.392317 -0.728515,-0.580078 -0.154086,-0.05692 -0.301272,-0.119675 -0.326172,-0.140625 -0.06543,-0.05505 0.273317,-1.366384 0.53125,-2.058594 0.121212,-0.325292 0.250752,-0.801784 0.289062,-1.058594 0.150176,-1.006718 0.550595,-2.112283 1.324219,-3.664062 l 0.505859,-1.017578 0.248047,0.03906 c 0.342199,0.05472 0.353501,0.0667 0.353516,0.396485 1.7e-5,0.428496 0.23097,1.771472 0.369141,2.146484 0.06572,0.178366 0.233716,0.595046 0.373046,0.925781 0.365953,0.868675 0.61576,1.899117 0.6875,2.841797 0.07644,1.004476 0.284257,1.744737 1.121094,3.982422 0.467418,1.249865 0.653474,1.839311 0.746094,2.351562 0.222168,1.228731 0.461638,1.985743 0.769531,2.441407 0.115703,0.171231 0.173572,0.201008 0.384766,0.201171 0.651135,5.03e-4 1.254843,-0.7166 2.302734,-2.734374 0.741299,-1.427415 1.182498,-2.077775 1.556641,-2.294922 0.10701,-0.06211 0.11151,-0.08111 0.03125,-0.134766 -0.05136,-0.03435 -0.169512,-0.06198 -0.263672,-0.0625 -0.232268,-0.0013 -0.218245,-0.143145 0.02344,-0.234375 0.171529,-0.06474 0.191807,-0.09566 0.160157,-0.253906 -0.03519,-0.175948 -0.02552,-0.184405 0.503906,-0.394531 0.492748,-0.19557 0.540914,-0.228594 0.521484,-0.367188 -0.02503,-0.178483 -0.181358,-0.371094 -0.300781,-0.371094 -0.04606,0 -0.08398,-0.04044 -0.08398,-0.0918 0,-0.07344 0.0861,-0.09375 0.404297,-0.09375 0.318198,0 0.40625,-0.02032 0.40625,-0.09375 -10e-7,-0.05731 -0.05974,-0.09375 -0.152344,-0.09375 -0.196077,0 -0.503468,-0.261466 -0.585938,-0.498047 -0.05374,-0.15418 -0.04804,-0.1875 0.03125,-0.1875 0.07568,1e-6 0.09095,-0.06135 0.07422,-0.294921 l -0.02148,-0.294922 0.328125,-0.04102 c 0.180405,-0.02215 0.369202,-0.07509 0.419922,-0.117187 0.119402,-0.09913 0.117951,-0.248047 -0.002,-0.248047 -0.138839,0 -0.111473,-0.165295 0.0332,-0.203125 0.07111,-0.0186 0.17551,-0.149438 0.24414,-0.302735 l 0.121094,-0.269531 -0.291016,-0.115234 c -0.330848,-0.129397 -0.572619,-0.327315 -0.574218,-0.472656 -5.95e-4,-0.05395 0.164567,-0.588279 0.367187,-1.1875 0.336919,-0.996396 0.37453,-1.162994 0.4375,-1.931641 0.08676,-1.059045 0.293933,-2.059744 0.689453,-3.330078 0.373398,-1.199279 0.568928,-2.024318 0.748047,-3.144531 0.148132,-0.926409 0.448574,-1.927155 0.820313,-2.736329 0.303263,-0.660118 0.60424,-1.133491 0.6875,-1.082031 0.16352,0.101061 1.102595,1.648359 1.542968,2.542969 1.186676,2.410704 1.742033,4.803961 1.742188,7.505859 2.25e-4,3.929946 -1.327842,7.629106 -3.833985,10.673828 -2.786753,3.38564 -6.730161,5.526424 -11.107421,6.033204 -1.025056,0.118644 -2.865086,0.117857 -3.859376,-0.002 C 18.30325,40.290017 14.957194,38.694923 12.271442,36.080016 8.947015,32.8433 7.160156,28.616139 7.160156,23.996094 c 0,-3.559176 1.089635,-6.94797 3.16211,-9.832032 0.604839,-0.841695 1.579281,-1.960937 1.707031,-1.960937 z m 25.136719,1.306641 c 0.0909,0 0.266973,0.296223 0.220703,0.371093 -0.02209,0.03574 -0.0937,0.06445 -0.160157,0.06445 -0.0966,10e-7 -0.121093,-0.04261 -0.121093,-0.216796 0,-0.119848 0.0271,-0.21875 0.06055,-0.21875 z" />
      <path
         id="path4"
         style="fill:#dfdfdf;stroke-width:0.0622568;fill-opacity:1"
         d="m 24.859375,12.322266 c -0.04631,0.0014 -0.128777,0.02492 -0.240234,0.07422 -0.192175,0.08501 -0.307242,0.105943 -0.357422,0.06445 -0.07923,-0.06551 -0.603516,0.202701 -0.603516,0.308593 0,0.03077 0.05016,0.05469 0.113281,0.05469 0.155454,0 0.810833,-0.227481 0.988282,-0.34375 0.154036,-0.100925 0.176787,-0.160572 0.09961,-0.158203 z m -2.908203,1.144531 c -0.0032,6.2e-5 -0.0078,0.0014 -0.01367,0.002 -0.08178,0.0081 -0.395786,0.08185 -0.759766,0.179688 -0.686348,0.184492 -0.757659,0.216811 -0.757812,0.345703 -9e-5,0.07812 -0.04239,0.158024 -0.09375,0.177734 -0.05136,0.01971 -0.0918,0.06122 -0.0918,0.0918 0,0.09538 0.13796,0.0615 0.636719,-0.15625 0.481508,-0.210222 1.131567,-0.593042 1.085937,-0.638672 -8.28e-4,-8.28e-4 -0.0026,-0.002 -0.0059,-0.002 z" />
      <path
         id="path5"
         style="fill:#dfdfdf;stroke-width:0.0622568;fill-opacity:1"
         d="m 30.861328,8.6328125 c -0.03313,0.0055 -0.161821,0.043983 -0.310547,0.09375 -0.302508,0.1012267 -0.310412,0.1062878 -0.320312,0.2070313 l -0.0098,0.1015624 0.130859,-0.019531 c 0.190465,-0.030457 0.358726,-0.1294686 0.447266,-0.2597656 0.04293,-0.063179 0.07541,-0.1179869 0.07031,-0.1230469 -6.33e-4,-6.325e-4 -0.0031,-7.861e-4 -0.0078,0 z M 20.824219,9.1835938 v 0.091797 0.09375 h 0.402343 0.400391 l 0.08203,0.109375 c 0.0457,0.059922 0.0888,0.109375 0.0957,0.109375 0.0069,0 0.122345,-0.047539 0.255859,-0.1054687 l 0.242187,-0.1054688 0.300782,0.046875 c 0.261602,0.040688 0.339013,0.041585 0.591796,0.00391 l 0.291016,-0.042969 0.0098,-0.1015625 0.0098,-0.099609 H 22.166016 Z M 11.183594,23.308594 c -0.03315,0.01197 -0.219553,0.199292 -0.433594,0.4375 -0.348571,0.387925 -0.416016,0.498477 -0.416016,0.685547 0,0.301272 0.136793,0.290708 0.367188,-0.02734 0.175748,-0.242613 0.533418,-1.048613 0.486328,-1.095703 -8.07e-4,-8.07e-4 -0.0017,-7.99e-4 -0.0039,0 z m 13.089844,5.330078 c -0.0373,0.009 -0.223939,0.08527 -0.431641,0.175781 l -0.402344,0.173828 v 0.115235 c 0,0.06267 0.01802,0.131303 0.03906,0.152343 0.05211,0.05211 0.05704,0.04993 0.46875,-0.197265 0.342935,-0.205905 0.362325,-0.22276 0.363281,-0.31836 5.6e-4,-0.05564 -0.01506,-0.101562 -0.0332,-0.101562 -0.0011,0 -0.0014,-6.02e-4 -0.0039,0 z" />
      <path
         style="fill:#dfdfdf;stroke-width:0.0311284;fill-opacity:1"
         d="m 13.373801,30.77821 c -0.08024,-0.312451 -0.145523,-0.585603 -0.145064,-0.607004 4.59e-4,-0.0214 0.03531,-0.03891 0.07746,-0.03891 0.06244,0 0.08219,0.0216 0.10669,0.116731 0.118185,0.458822 0.258576,0.997289 0.271883,1.042802 0.01258,0.04304 -0.0031,0.05448 -0.07457,0.05448 h -0.0905 z"
         id="path9" />
    </g>
  </g>
</svg>
