<?xml version="1.0" encoding="UTF-8" standalone="no"?>
<svg
   width="64"
   height="64"
   version="1.1"
   id="svg73"
   sodipodi:docname="applications-education-miscellaneous.svg"
   inkscape:version="1.3.2 (091e20ef0f, 2023-11-25)"
   xmlns:inkscape="http://www.inkscape.org/namespaces/inkscape"
   xmlns:sodipodi="http://sodipodi.sourceforge.net/DTD/sodipodi-0.dtd"
   xmlns="http://www.w3.org/2000/svg"
   xmlns:svg="http://www.w3.org/2000/svg"
   xmlns:rdf="http://www.w3.org/1999/02/22-rdf-syntax-ns#"
   xmlns:cc="http://creativecommons.org/ns#"
   xmlns:dc="http://purl.org/dc/elements/1.1/">
  <metadata
     id="metadata77">
    <rdf:RDF>
      <cc:Work
         rdf:about="">
        <dc:format>image/svg+xml</dc:format>
        <dc:type
           rdf:resource="http://purl.org/dc/dcmitype/StillImage" />
      </cc:Work>
    </rdf:RDF>
  </metadata>
  <sodipodi:namedview
     pagecolor="#f5f7fa"
     bordercolor="#666666"
     borderopacity="1"
     objecttolerance="10"
     gridtolerance="10"
     guidetolerance="10"
     inkscape:pageopacity="0"
     inkscape:pageshadow="2"
     inkscape:window-width="1377"
     inkscape:window-height="886"
     id="namedview75"
     showgrid="false"
     inkscape:zoom="4.4470387"
     inkscape:cx="4.7222436"
     inkscape:cy="46.885133"
     inkscape:window-x="-35"
     inkscape:window-y="45"
     inkscape:window-maximized="0"
     inkscape:current-layer="g877"
     inkscape:document-rotation="0"
     inkscape:pagecheckerboard="0"
     inkscape:showpageshadow="2"
     inkscape:deskcolor="#d1d1d1" />
  <defs
     id="defs29">
    <linearGradient
       id="b"
       x1="399.57"
       x2="399.57"
       y1="545.8"
       y2="517.8"
       gradientTransform="matrix(2.1429,0,0,2.1429,-825.86391,-1107.6662)"
       gradientUnits="userSpaceOnUse">
      <stop
         stop-color="#3889e9"
         offset="0"
         id="stop2" />
      <stop
         stop-color="#5ea5fb"
         offset="1"
         id="stop4" />
    </linearGradient>
    <linearGradient
       id="d"
       x2="1"
       gradientTransform="matrix(14.905727,-4.7106182,4.7106182,14.905727,322.04962,998.26962)"
       gradientUnits="userSpaceOnUse">
      <stop
         stop-color="#fafafa"
         offset="0"
         id="stop7" />
      <stop
         stop-color="#aaa"
         offset="1"
         id="stop8" />
    </linearGradient>
    <linearGradient
       id="e"
       x2="1"
       gradientTransform="matrix(21.439909,0,0,21.439909,26.63554,1159.7788)"
       gradientUnits="userSpaceOnUse">
      <stop
         stop-color="#f0f0f0"
         offset="0"
         id="stop9" />
      <stop
         stop-color="#b7f1ff"
         offset="1"
         id="stop10" />
    </linearGradient>
    <linearGradient
       id="b-3"
       x2="1"
       gradientTransform="matrix(-1.678415,-40.879575,40.879575,-1.678415,32.36829,51.881224)"
       gradientUnits="userSpaceOnUse">
      <stop
         stop-color="#00cafe"
         offset="0"
         id="stop3" />
      <stop
         stop-color="#1460f3"
         offset="1"
         id="stop4-6" />
    </linearGradient>
  </defs>
  <circle
     cx="32.516094"
     cy="31.877844"
     r="0"
     fill="url(#b)"
     stroke-width="1.5715"
     id="circle41"
     style="fill:url(#b)" />
  <g
     aria-label="GZ"
     transform="matrix(1.2212657,0,0,0.81882264,0.4960938,-0.1661539)"
     id="text93"
     style="font-weight:bold;font-size:11.5263px;line-height:1.25;font-family:sans-serif;-inkscape-font-specification:'sans-serif Bold';fill:#f2f2f2;stroke-width:0.288159" />
  <g
     id="g877"
     transform="matrix(1.1,0,0,1.1,-3.1845928,-3.2065454)">
    <rect
       x="6.3010068"
       y="5.4939413"
       width="51.635597"
       height="53.148327"
       rx="10.980581"
       ry="10.720582"
       fill="url(#linearGradient862)"
       stroke-width="3.0541"
       id="rect35-7-3"
       style="fill:#414141;fill-opacity:1;stroke:#dfdfdf;stroke-width:2.27272727;stroke-dasharray:none;stroke-opacity:1" />
    <path
       id="path7"
       style="opacity:0.9;fill:#dfdfdf;stroke:none;stroke-width:0.114381;stroke-dasharray:none;stroke-opacity:1;fill-opacity:1"
       d="m 31.984238,14.905453 c -0.01,0.01069 -0.177263,0.637131 -0.372869,1.392045 -0.195611,0.754915 -0.407114,1.547232 -0.468749,1.761364 l -0.111876,0.390625 -0.568181,0.04794 c -2.096038,0.177181 -4.750056,1.222332 -6.557177,2.581677 -2.697802,2.029331 -4.512892,4.844938 -5.216624,8.09304 -0.08899,0.410798 -0.183276,1.001662 -0.209527,1.312144 l -0.04793,0.564631 -0.388849,0.111863 c -0.214132,0.0618 -1.015464,0.274289 -1.780898,0.472301 -0.765435,0.198013 -1.383033,0.36619 -1.372516,0.374645 0.01065,0.0085 0.704176,0.194265 1.542972,0.411932 2.242436,0.58191 1.990914,0.445219 2.04723,1.111505 0.119916,1.418671 0.615904,3.057451 1.402701,4.630682 0.30979,0.619474 0.575241,1.12571 0.589487,1.12571 0.01409,0 0.272544,-0.34372 0.573511,-0.765269 l 0.546874,-0.767047 -0.344459,-0.777697 c -0.788475,-1.774994 -1.072446,-3.087241 -1.072446,-4.971591 0,-1.459131 0.149981,-2.419691 0.575286,-3.70206 1.141499,-3.441754 3.932074,-6.298748 7.281607,-7.453835 1.814618,-0.625771 3.712251,-0.83086 5.422591,-0.587713 1.413342,0.200924 2.208873,0.42899 3.504971,1.003195 l 0.775926,0.342686 0.731535,-0.514914 C 38.869044,20.810157 39.187373,20.541775 39.173502,20.49672 39.128284,20.349924 37.041104,19.351636 36.24914,19.097573 35.274785,18.785 34.244576,18.559421 33.511212,18.49743 l -0.56994,-0.04972 -0.102977,-0.349787 c -0.05614,-0.193041 -0.266686,-0.994309 -0.468757,-1.780894 -0.202075,-0.786585 -0.37549,-1.422277 -0.3853,-1.411576 z m 15.630331,1.518111 c -0.01134,-0.01422 -4.002997,2.800291 -8.870739,6.253551 l -8.851212,6.278409 2.572798,2.574574 c 1.414717,1.415463 2.588888,2.571877 2.610088,2.571023 0.05161,-0.0021 12.565794,-17.644539 12.539065,-17.677557 z m -4.083808,8.451704 c -0.07934,-0.0054 -0.203549,0.156208 -0.578836,0.680043 l -0.548644,0.763494 0.268112,0.57706 c 2.179528,4.717271 1.201535,10.100309 -2.475145,13.629264 -1.890361,1.814411 -4.110411,2.880685 -6.718751,3.227979 -2.16942,0.288865 -4.440776,-0.07594 -6.569607,-1.054684 l -0.582386,-0.266325 -0.775925,0.541548 c -0.911833,0.637554 -0.954765,0.525722 0.491833,1.237573 1.458865,0.717887 3.054071,1.187403 4.424721,1.303268 l 0.564628,0.04793 0.111876,0.390625 c 0.0613,0.214131 0.27433,1.018963 0.474075,1.789772 l 0.363995,1.4027 0.369318,-1.4027 c 0.20379,-0.770809 0.421079,-1.5772 0.481178,-1.791549 l 0.108303,-0.388848 0.591264,-0.05326 c 0.841526,-0.07552 1.884033,-0.313364 2.895953,-0.662286 4.037221,-1.392093 7.199132,-4.639427 8.519176,-8.748225 0.271169,-0.844091 0.577062,-2.369786 0.577062,-2.874645 0,-0.299169 -0.146201,-0.239981 2.020593,-0.802556 0.8388,-0.217778 1.533927,-0.404708 1.544744,-0.413708 0.01065,-0.009 -0.67559,-0.195172 -1.525207,-0.413707 -2.174347,-0.559282 -2.04013,-0.505314 -2.04013,-0.806108 0,-0.50169 -0.305151,-2.028492 -0.575289,-2.874645 -0.250691,-0.785132 -1.090673,-2.647343 -1.345872,-2.98473 -0.02371,-0.03151 -0.04456,-0.05147 -0.07102,-0.05327 z m -14.667971,5.120739 -6.216271,8.767755 c -3.418077,4.822164 -6.227368,8.807909 -6.244675,8.858311 -0.02337,0.06834 -0.0041,0.07016 0.07635,0.0072 0.05924,-0.04649 4.018609,-2.856482 8.799723,-6.244676 4.781117,-3.388189 8.709517,-6.173084 8.728697,-6.189629 0.01924,-0.01656 -1.130886,-1.194088 -2.555044,-2.615412 z" />
  </g>
</svg>
