<?xml version="1.0" encoding="UTF-8" standalone="no"?>
<svg
   width="64"
   height="64"
   version="1.1"
   id="svg73"
   sodipodi:docname="audacious.svg"
   inkscape:version="1.4.2 (ebf0e940d0, 2025-05-08)"
   xmlns:inkscape="http://www.inkscape.org/namespaces/inkscape"
   xmlns:sodipodi="http://sodipodi.sourceforge.net/DTD/sodipodi-0.dtd"
   xmlns="http://www.w3.org/2000/svg"
   xmlns:svg="http://www.w3.org/2000/svg"
   xmlns:rdf="http://www.w3.org/1999/02/22-rdf-syntax-ns#"
   xmlns:cc="http://creativecommons.org/ns#"
   xmlns:dc="http://purl.org/dc/elements/1.1/">
  <metadata
     id="metadata77">
    <rdf:RDF>
      <cc:Work
         rdf:about="">
        <dc:format>image/svg+xml</dc:format>
        <dc:type
           rdf:resource="http://purl.org/dc/dcmitype/StillImage" />
      </cc:Work>
    </rdf:RDF>
  </metadata>
  <sodipodi:namedview
     pagecolor="#f5f7fa"
     bordercolor="#666666"
     borderopacity="1"
     objecttolerance="10"
     gridtolerance="10"
     guidetolerance="10"
     inkscape:pageopacity="0"
     inkscape:pageshadow="2"
     inkscape:window-width="1377"
     inkscape:window-height="886"
     id="namedview75"
     showgrid="false"
     inkscape:zoom="6.2890624"
     inkscape:cx="47.622361"
     inkscape:cy="45.396274"
     inkscape:window-x="264"
     inkscape:window-y="75"
     inkscape:window-maximized="0"
     inkscape:current-layer="g877"
     inkscape:document-rotation="0"
     inkscape:pagecheckerboard="0"
     inkscape:showpageshadow="2"
     inkscape:deskcolor="#d1d1d1" />
  <defs
     id="defs29" />
  <circle
     cx="32.516094"
     cy="31.877844"
     r="0"
     fill="url(#b)"
     stroke-width="1.5715"
     id="circle41"
     style="fill:url(#b)" />
  <g
     aria-label="GZ"
     transform="matrix(1.2212657,0,0,0.81882264,0.4960938,-0.1661539)"
     id="text93"
     style="font-weight:bold;font-size:11.5263px;line-height:1.25;font-family:sans-serif;-inkscape-font-specification:'sans-serif Bold';fill:#f2f2f2;stroke-width:0.288159" />
  <g
     id="g877"
     transform="matrix(1.1,0,0,1.1,-3.1845928,-3.2065454)">
    <rect
       x="8.3496294"
       y="8.369586"
       width="47.272728"
       height="47.272728"
       rx="9.8825235"
       ry="9.6485243"
       fill="url(#linearGradient862)"
       stroke-width="3.0541"
       id="rect35-7-3"
       style="fill:#414141;fill-opacity:1;stroke:#dfdfdf;stroke-width:2.04545;stroke-dasharray:none;stroke-opacity:1" />
    <path
       d="m 32.054824,16.833129 c -8.421143,0 -15.247829,6.793109 -15.247829,15.172821 0,8.379718 6.826686,15.172821 15.247829,15.172821 8.421132,0 15.247828,-6.793103 15.247828,-15.172821 0,-8.379711 -6.826696,-15.172821 -15.247828,-15.172821 z m -1.089133,4.199619 c 0.145728,-0.01518 0.329487,0.0086 0.476527,0 0.01727,0.0694 -0.106125,0.316184 -0.27227,0.677362 -1.058329,2.300547 -1.118366,4.994807 -0.136171,6.434902 0.177752,0.261097 0.340354,0.509586 0.340354,0.54189 0,0.0323 -0.191668,0.06758 -0.408441,0.06758 -0.508795,0 -0.990285,-0.308569 -1.97405,-1.083753 -0.437003,-0.344358 -1.005158,-0.633598 -1.225276,-0.677378 -0.345617,-0.06872 -0.437744,-0.0386 -0.884935,0.406411 -0.416014,0.413917 -0.544528,0.637104 -0.544528,1.016039 0,1.436954 1.714465,2.579249 4.90109,3.251321 4.327548,0.912689 5.394357,1.732128 5.513718,3.99641 0.149855,2.839436 -1.369251,4.980524 -4.696876,6.638112 -0.397157,0.197909 -0.650239,0.274686 -0.816872,0.338667 -0.07407,-0.0069 -0.130497,0.0069 -0.204099,0 -0.02802,-0.08777 -0.06834,-0.291431 -0.06834,-0.677367 0,-1.508134 -0.597384,-3.060464 -1.497524,-3.928672 -0.241631,-0.233053 -0.9182,-0.726879 -1.497567,-1.083766 -0.579355,-0.356866 -1.163088,-0.771425 -1.293351,-0.948297 -0.215864,-0.293512 -0.233816,-0.47383 -0.06833,-1.016037 0.302228,-0.99029 0.662013,-1.541843 1.361394,-2.167548 0.366692,-0.328035 0.735612,-0.603122 0.816874,-0.609625 0.0815,-0.0065 -0.468622,-0.170805 -1.293342,-0.338676 -0.824726,-0.168161 -2.03103,-0.520434 -2.654814,-0.745059 -1.140497,-0.410637 -2.680306,-1.272693 -3.267417,-1.896599 -0.02471,-0.02646 -0.0461,-0.04424 -0.06833,-0.06758 0.841095,-3.333817 3.201462,-6.066223 6.330553,-7.383204 0.654684,-0.275561 1.329656,-0.464613 2.042122,-0.609629 0.354839,-0.07217 0.722686,-0.0984 1.089128,-0.135467 z m 10.210594,5.080188 c 0.255759,0.157352 1.221815,2.237015 1.497554,3.251316 0.356028,1.309611 0.330189,3.575911 0,4.876982 -0.125688,0.495149 -0.286783,0.958379 -0.340353,1.016037 -0.05353,0.05768 -0.2479,-0.274266 -0.476528,-0.677362 -0.228574,-0.40303 -0.958746,-1.259452 -1.565592,-1.896599 -1.751622,-1.839229 -2.027064,-2.799559 -1.293337,-4.267356 0.369978,-0.740201 1.980256,-2.424619 2.178256,-2.303018 z"
       fill="#333333"
       id="path2-0"
       style="fill:#dfdfdf;fill-opacity:1;stroke:none;stroke-width:0.922427;stroke-dasharray:none;stroke-opacity:0.3" />
  </g>
</svg>
