<?xml version="1.0" encoding="UTF-8" standalone="no"?>
<svg
   width="64"
   height="64"
   version="1.1"
   id="svg73"
   sodipodi:docname="accessories-character-map.svg"
   inkscape:version="1.3.2 (091e20ef0f, 2023-11-25)"
   xmlns:inkscape="http://www.inkscape.org/namespaces/inkscape"
   xmlns:sodipodi="http://sodipodi.sourceforge.net/DTD/sodipodi-0.dtd"
   xmlns="http://www.w3.org/2000/svg"
   xmlns:svg="http://www.w3.org/2000/svg"
   xmlns:rdf="http://www.w3.org/1999/02/22-rdf-syntax-ns#"
   xmlns:cc="http://creativecommons.org/ns#"
   xmlns:dc="http://purl.org/dc/elements/1.1/">
  <metadata
     id="metadata77">
    <rdf:RDF>
      <cc:Work
         rdf:about="">
        <dc:format>image/svg+xml</dc:format>
        <dc:type
           rdf:resource="http://purl.org/dc/dcmitype/StillImage" />
      </cc:Work>
    </rdf:RDF>
  </metadata>
  <sodipodi:namedview
     pagecolor="#f5f7fa"
     bordercolor="#666666"
     borderopacity="1"
     objecttolerance="10"
     gridtolerance="10"
     guidetolerance="10"
     inkscape:pageopacity="0"
     inkscape:pageshadow="2"
     inkscape:window-width="1377"
     inkscape:window-height="886"
     id="namedview75"
     showgrid="false"
     inkscape:zoom="4.4470387"
     inkscape:cx="47.784608"
     inkscape:cy="14.054296"
     inkscape:window-x="181"
     inkscape:window-y="77"
     inkscape:window-maximized="0"
     inkscape:current-layer="g877"
     inkscape:document-rotation="0"
     inkscape:pagecheckerboard="0"
     inkscape:showpageshadow="2"
     inkscape:deskcolor="#d1d1d1" />
  <defs
     id="defs29">
    <linearGradient
       id="b"
       x1="399.57"
       x2="399.57"
       y1="545.8"
       y2="517.8"
       gradientTransform="matrix(2.1429,0,0,2.1429,-825.86391,-1107.6662)"
       gradientUnits="userSpaceOnUse">
      <stop
         stop-color="#3889e9"
         offset="0"
         id="stop2" />
      <stop
         stop-color="#5ea5fb"
         offset="1"
         id="stop4" />
    </linearGradient>
  </defs>
  <circle
     cx="32.516094"
     cy="31.877844"
     r="0"
     fill="url(#b)"
     stroke-width="1.5715"
     id="circle41"
     style="fill:url(#b)" />
  <g
     aria-label="GZ"
     transform="matrix(1.2212657,0,0,0.81882264,0.4960938,-0.1661539)"
     id="text93"
     style="font-weight:bold;font-size:11.5263px;line-height:1.25;font-family:sans-serif;-inkscape-font-specification:'sans-serif Bold';fill:#f2f2f2;stroke-width:0.288159" />
  <g
     id="g877"
     transform="matrix(1.1,0,0,1.1,-3.1845928,-3.2065454)">
    <rect
       x="6.3010068"
       y="5.4939413"
       width="51.635597"
       height="53.148327"
       rx="10.980581"
       ry="10.720582"
       fill="url(#linearGradient862)"
       stroke-width="3.0541"
       id="rect35-7-3"
       style="fill:#414141;fill-opacity:1;stroke:#dfdfdf;stroke-width:2.27272727;stroke-dasharray:none;stroke-opacity:1" />
    <g
       id="g903"
       transform="matrix(5.7308685,0,0,5.7308685,-25.678719,-22.793459)"
       style="fill:#dfdfdf;fill-opacity:1;stroke:none;stroke-width:0.209026;stroke-dasharray:none;stroke-opacity:0.3">
      <path
         fill="#f5f7fa"
         d="M 9.3931918,6.627736 C 9.0743599,6.632926 8.6939847,6.720745 8.2228868,6.9264072 L 7.6055829,9.189072 C 8.1050304,8.9713855 8.4970291,8.8695556 8.8273301,8.872299 c 0.500846,0.0039 0.8512752,0.224079 1.1788779,0.4570571 L 10.6278,7.0757429 C 10.287669,6.8329034 9.9245781,6.6190798 9.3931918,6.627736 Z m 1.5604062,0.68785 -0.617304,2.2626641 c 0.542709,0.3884378 1.197817,0.7083349 2.400627,0.1402838 L 13.354225,7.4603957 C 12.099662,8.0076694 11.496706,7.7018089 10.953598,7.315586 Z M 8.6687173,9.3067299 c -0.3185597,0.00819 -0.6964936,0.094513 -1.166018,0.2986712 h -0.00858 L 6.8811058,11.859016 C 8.1381662,11.31037 8.7327381,11.626231 9.2774442,12.012877 L 9.9033244,9.7411619 C 9.5641318,9.4980591 9.1996502,9.2930957 8.668717,9.3067299 Z M 10.23341,9.9583769 9.6118201,12.207465 c 0.5437069,0.389176 1.1492509,0.702084 2.4049129,0.153862 l 0.59587,-2.194784 C 11.333262,10.62828 10.777718,10.344917 10.23341,9.9583769 Z"
         id="path42-3"
         style="fill:#dfdfdf;fill-opacity:1;stroke:none;stroke-width:0.209026;stroke-dasharray:none;stroke-opacity:0.3" />
    </g>
  </g>
</svg>
