<?xml version="1.0" encoding="UTF-8" standalone="no"?>
<svg
   width="64"
   height="64"
   version="1.1"
   id="svg73"
   sodipodi:docname="software-properties.svg"
   inkscape:version="1.4.2 (ebf0e940d0, 2025-05-08)"
   xmlns:inkscape="http://www.inkscape.org/namespaces/inkscape"
   xmlns:sodipodi="http://sodipodi.sourceforge.net/DTD/sodipodi-0.dtd"
   xmlns="http://www.w3.org/2000/svg"
   xmlns:svg="http://www.w3.org/2000/svg"
   xmlns:rdf="http://www.w3.org/1999/02/22-rdf-syntax-ns#"
   xmlns:cc="http://creativecommons.org/ns#"
   xmlns:dc="http://purl.org/dc/elements/1.1/">
  <metadata
     id="metadata77">
    <rdf:RDF>
      <cc:Work
         rdf:about="">
        <dc:format>image/svg+xml</dc:format>
        <dc:type
           rdf:resource="http://purl.org/dc/dcmitype/StillImage" />
      </cc:Work>
    </rdf:RDF>
  </metadata>
  <sodipodi:namedview
     pagecolor="#f5f7fa"
     bordercolor="#666666"
     borderopacity="1"
     objecttolerance="10"
     gridtolerance="10"
     guidetolerance="10"
     inkscape:pageopacity="0"
     inkscape:pageshadow="2"
     inkscape:window-width="1377"
     inkscape:window-height="886"
     id="namedview75"
     showgrid="false"
     inkscape:zoom="6.2890624"
     inkscape:cx="47.622361"
     inkscape:cy="45.396274"
     inkscape:window-x="147"
     inkscape:window-y="75"
     inkscape:window-maximized="0"
     inkscape:current-layer="g877"
     inkscape:document-rotation="0"
     inkscape:pagecheckerboard="0"
     inkscape:showpageshadow="2"
     inkscape:deskcolor="#d1d1d1" />
  <defs
     id="defs29">
    <linearGradient
       id="b"
       x1="399.57"
       x2="399.57"
       y1="545.8"
       y2="517.8"
       gradientTransform="matrix(2.1429,0,0,2.1429,-825.86391,-1107.6662)"
       gradientUnits="userSpaceOnUse">
      <stop
         stop-color="#3889e9"
         offset="0"
         id="stop2" />
      <stop
         stop-color="#5ea5fb"
         offset="1"
         id="stop4" />
    </linearGradient>
  </defs>
  <circle
     cx="32.516094"
     cy="31.877844"
     r="0"
     fill="url(#b)"
     stroke-width="1.5715"
     id="circle41"
     style="fill:url(#b)" />
  <g
     aria-label="GZ"
     transform="matrix(1.2212657,0,0,0.81882264,0.4960938,-0.1661539)"
     id="text93"
     style="font-weight:bold;font-size:11.5263px;line-height:1.25;font-family:sans-serif;-inkscape-font-specification:'sans-serif Bold';fill:#f2f2f2;stroke-width:0.288159" />
  <g
     id="g877"
     transform="matrix(1.1,0,0,1.1,-3.1845928,-3.2065454)">
    <rect
       x="8.3496294"
       y="8.369586"
       width="47.272728"
       height="47.272728"
       rx="9.8825235"
       ry="9.6485243"
       fill="url(#linearGradient862)"
       stroke-width="3.0541"
       id="rect35-7-3"
       style="fill:#414141;fill-opacity:1;stroke:#dfdfdf;stroke-width:2.04545;stroke-dasharray:none;stroke-opacity:1" />
    <g
       id="g2"
       transform="matrix(0.18964225,0,0,0.18964225,16.424899,18.291303)"
       style="fill:#dfdfdf;fill-opacity:1;stroke:none;stroke-width:2.39686;stroke-dasharray:none;stroke-opacity:0.6">
      <path
         d="m 34.089,6.949 c 0,0 32.8,-17.843 60.859,3.654 L 79.246,64.561 c 0,0 -17.574,-12.104 -30.623,-10.8 -13.049,1.304 -30.234,7.554 -30.234,7.554 z M 15.621,70.823 c 0,0 17.604,-8.188 32.221,-7.146 14.615,1.043 26.285,8.91 28.802,10.717 l -15.865,54.521 c 0,0 -17.635,-11.476 -30.162,-10.432 C 18.089,119.53 7.229,121.438 0,125.181 Z m 69.238,8.849 c 0,0 16.744,10.888 27.705,10.627 10.799,-0.258 18.27,-1.109 32.921,-6.852 0.114,-0.045 0.412,-0.258 0.313,-0.195 -0.313,0.195 -15.699,54.031 -15.699,54.031 0,0 -17.273,8.082 -32.935,7.301 -15.658,-0.783 -25.062,-9.738 -27.929,-10.873 z"
         id="path1-6"
         style="fill:#dfdfdf;fill-opacity:1;stroke:none;stroke-width:2.39686;stroke-dasharray:none;stroke-opacity:0.6" />
      <path
         d="M 103.251,16.295 87.51,69.942 c 0,0 12.788,12.527 30.797,11.482 18.008,-1.043 27.795,-6.719 30.176,-7.52 l 15.627,-54.12 c 0,0 -20.748,8.66 -34.32,7.094 -13.571,-1.564 -22.024,-7.335 -26.539,-10.583 z"
         id="path2"
         style="fill:#dfdfdf;fill-opacity:1;stroke:none;stroke-width:2.39686;stroke-dasharray:none;stroke-opacity:0.6" />
    </g>
    <rect
       x="37.737823"
       y="37.757782"
       width="22.610399"
       height="22.610399"
       rx="4.7267799"
       ry="4.6148596"
       fill="url(#linearGradient862)"
       stroke-width="3.0541"
       id="rect35-7-3-1"
       style="fill:#414141;fill-opacity:1;stroke:#dfdfdf;stroke-width:0.978336;stroke-dasharray:none;stroke-opacity:1" />
    <path
       style="color:#000000;clip-rule:nonzero;display:inline;overflow:visible;visibility:visible;isolation:auto;mix-blend-mode:normal;color-interpolation:sRGB;color-interpolation-filters:linearRGB;solid-color:#000000;solid-opacity:1;fill:#dfdfdf;fill-opacity:1;fill-rule:nonzero;stroke:none;stroke-width:0.454545;stroke-linecap:butt;stroke-linejoin:miter;stroke-miterlimit:4;stroke-dasharray:none;stroke-dashoffset:0;stroke-opacity:0.6;marker:none;color-rendering:auto;image-rendering:auto;shape-rendering:auto;text-rendering:auto;enable-background:accumulate"
       d="m 48.049489,41.647769 c -0.190389,0 -0.349074,0.757559 -0.442214,1.840216 a 5.8190384,5.9942708 0 0 0 -1.406201,0.608794 c -0.812308,-0.701301 -1.446838,-1.124631 -1.581842,-0.985565 l -1.497121,1.542208 c -0.135001,0.139055 0.275945,0.792706 0.956751,1.629476 a 5.8190384,5.9942708 0 0 0 -0.585828,1.448546 c -1.053952,0.09586 -1.791586,0.259074 -1.791586,0.455531 v 2.179731 c 0,0.196127 0.735411,0.359591 1.786418,0.455535 a 5.8190384,5.9942708 0 0 0 0.588931,1.451735 c -0.679249,0.835271 -1.089525,1.487383 -0.954686,1.626287 l 1.497121,1.542201 c 0.134725,0.138746 0.766967,-0.282851 1.576678,-0.981308 a 5.8190384,5.9942708 0 0 0 1.411365,0.599218 c 0.09305,1.085694 0.251481,1.845538 0.442214,1.845538 h 2.116013 c 0.190389,0 0.349077,-0.757559 0.442217,-1.840216 a 5.8190384,5.9942708 0 0 0 1.406198,-0.608791 c 0.812312,0.701299 1.446838,1.124628 1.581845,0.985559 l 1.497121,-1.542201 c 0.135001,-0.139021 -0.275945,-0.79271 -0.956751,-1.629483 a 5.8190384,5.9942708 0 0 0 0.585828,-1.448539 c 1.053949,-0.09586 1.791586,-0.259075 1.791586,-0.455535 v -2.179731 c 0,-0.196127 -0.735414,-0.359588 -1.786418,-0.455531 A 5.8190384,5.9942708 0 0 0 54.13819,46.279706 c 0.679257,-0.835272 1.089532,-1.487384 0.954693,-1.626284 l -1.497121,-1.542208 c -0.134725,-0.13878 -0.766967,0.282851 -1.576681,0.981308 a 5.8190384,5.9942708 0 0 0 -1.411362,-0.599215 c -0.09305,-1.08569 -0.251481,-1.845534 -0.442217,-1.845534 z m 1.058006,4.904405 a 2.6450176,2.7246682 0 0 1 2.645017,2.72467 2.6450176,2.7246682 0 0 1 -2.645017,2.724664 2.6450176,2.7246682 0 0 1 -2.645017,-2.724664 2.6450176,2.7246682 0 0 1 2.645017,-2.72467 z"
       id="path4690"
       inkscape:connector-curvature="0" />
  </g>
</svg>
