<?xml version="1.0" encoding="UTF-8" standalone="no"?>
<svg
   width="64"
   height="64"
   version="1.1"
   id="svg73"
   sodipodi:docname="applications-education-miscellaneous.svg"
   inkscape:version="1.3.2 (091e20ef0f, 2023-11-25)"
   xmlns:inkscape="http://www.inkscape.org/namespaces/inkscape"
   xmlns:sodipodi="http://sodipodi.sourceforge.net/DTD/sodipodi-0.dtd"
   xmlns="http://www.w3.org/2000/svg"
   xmlns:svg="http://www.w3.org/2000/svg"
   xmlns:rdf="http://www.w3.org/1999/02/22-rdf-syntax-ns#"
   xmlns:cc="http://creativecommons.org/ns#"
   xmlns:dc="http://purl.org/dc/elements/1.1/">
  <metadata
     id="metadata77">
    <rdf:RDF>
      <cc:Work
         rdf:about="">
        <dc:format>image/svg+xml</dc:format>
        <dc:type
           rdf:resource="http://purl.org/dc/dcmitype/StillImage" />
      </cc:Work>
    </rdf:RDF>
  </metadata>
  <sodipodi:namedview
     pagecolor="#f5f7fa"
     bordercolor="#666666"
     borderopacity="1"
     objecttolerance="10"
     gridtolerance="10"
     guidetolerance="10"
     inkscape:pageopacity="0"
     inkscape:pageshadow="2"
     inkscape:window-width="1377"
     inkscape:window-height="886"
     id="namedview75"
     showgrid="false"
     inkscape:zoom="4.4470387"
     inkscape:cx="4.7222436"
     inkscape:cy="46.885133"
     inkscape:window-x="-35"
     inkscape:window-y="45"
     inkscape:window-maximized="0"
     inkscape:current-layer="g877"
     inkscape:document-rotation="0"
     inkscape:pagecheckerboard="0"
     inkscape:showpageshadow="2"
     inkscape:deskcolor="#d1d1d1" />
  <defs
     id="defs29">
    <linearGradient
       id="b"
       x1="399.57"
       x2="399.57"
       y1="545.8"
       y2="517.8"
       gradientTransform="matrix(2.1429,0,0,2.1429,-825.86391,-1107.6662)"
       gradientUnits="userSpaceOnUse">
      <stop
         stop-color="#3889e9"
         offset="0"
         id="stop2" />
      <stop
         stop-color="#5ea5fb"
         offset="1"
         id="stop4" />
    </linearGradient>
    <linearGradient
       id="d"
       x2="1"
       gradientTransform="matrix(14.905727,-4.7106182,4.7106182,14.905727,322.04962,998.26962)"
       gradientUnits="userSpaceOnUse">
      <stop
         stop-color="#fafafa"
         offset="0"
         id="stop7" />
      <stop
         stop-color="#aaa"
         offset="1"
         id="stop8" />
    </linearGradient>
    <linearGradient
       id="e"
       x2="1"
       gradientTransform="matrix(21.439909,0,0,21.439909,26.63554,1159.7788)"
       gradientUnits="userSpaceOnUse">
      <stop
         stop-color="#f0f0f0"
         offset="0"
         id="stop9" />
      <stop
         stop-color="#b7f1ff"
         offset="1"
         id="stop10" />
    </linearGradient>
    <linearGradient
       id="b-3"
       x2="1"
       gradientTransform="matrix(-1.678415,-40.879575,40.879575,-1.678415,32.36829,51.881224)"
       gradientUnits="userSpaceOnUse">
      <stop
         stop-color="#00cafe"
         offset="0"
         id="stop3" />
      <stop
         stop-color="#1460f3"
         offset="1"
         id="stop4-6" />
    </linearGradient>
  </defs>
  <circle
     cx="32.516094"
     cy="31.877844"
     r="0"
     fill="url(#b)"
     stroke-width="1.5715"
     id="circle41"
     style="fill:url(#b)" />
  <g
     aria-label="GZ"
     transform="matrix(1.2212657,0,0,0.81882264,0.4960938,-0.1661539)"
     id="text93"
     style="font-weight:bold;font-size:11.5263px;line-height:1.25;font-family:sans-serif;-inkscape-font-specification:'sans-serif Bold';fill:#f2f2f2;stroke-width:0.288159" />
  <g
     id="g877"
     transform="matrix(1.1,0,0,1.1,-3.1845928,-3.2065454)">
    <rect
       x="6.3010068"
       y="5.4939413"
       width="51.635597"
       height="53.148327"
       rx="10.980581"
       ry="10.720582"
       fill="url(#linearGradient862)"
       stroke-width="3.0541"
       id="rect35-7-3"
       style="fill:#414141;fill-opacity:1;stroke:#dfdfdf;stroke-width:2.27272727;stroke-dasharray:none;stroke-opacity:1" />
    <path
       style="fill:#dfdfdf;fill-opacity:1;stroke-width:0.126094"
       d="m 16.113518,29.611575 c -1.601353,-0.367138 -2.897897,-1.663983 -3.270693,-3.271453 -0.10063,-0.433907 -0.12432,-1.434007 -0.128411,-5.421018 -0.0035,-3.39421 0.02414,-4.998505 0.09036,-5.247276 0.303036,-1.138535 1.205678,-2.218132 2.307477,-2.759839 0.817575,-0.401968 1.394157,-0.494727 3.089323,-0.497004 l 1.239931,-0.0016 v -0.630509 -0.630471 h 2.269704 2.269706 v 0.630471 0.630473 h 1.579538 c 2.255338,0 3.037107,0.250289 4.033674,1.291408 0.637126,0.66561 0.904024,1.13247 1.111758,1.944701 0.158807,0.620936 0.168094,0.928246 0.166154,5.498892 -0.0013,3.033812 -0.03458,4.982427 -0.08918,5.219484 -0.33646,1.460888 -1.621816,2.752047 -3.131006,3.145141 -0.683574,0.178047 -10.814227,0.264645 -11.538336,0.09863 z m 3.117826,-9.107535 c 0.768733,-0.397906 1.215223,-1.146762 1.215223,-2.03817 0,-1.307397 -0.961654,-2.269487 -2.266013,-2.267039 -1.597579,0.0031 -2.651864,1.493399 -2.142089,3.02819 0.183975,0.553893 0.775789,1.174002 1.30596,1.368397 0.508972,0.186621 1.436631,0.141696 1.886919,-0.09137 z M 26.9152,20.44537 c 0.993633,-0.503512 1.463378,-1.603643 1.147984,-2.688562 -0.2667,-0.91741 -1.235501,-1.644705 -2.190851,-1.644705 -0.958091,0 -1.921754,0.718242 -2.186571,1.629707 -0.154525,0.531849 -0.125727,1.115357 0.07924,1.605932 0.243888,0.583706 0.913612,1.132499 1.60295,1.31351 0.399079,0.104786 1.110232,0.0056 1.547246,-0.215882 z"
       id="path4" />
  </g>
</svg>
