<?xml version="1.0" encoding="UTF-8" standalone="no"?>
<svg
   width="64"
   height="64"
   version="1.1"
   id="svg73"
   sodipodi:docname="audacious.svg"
   inkscape:version="1.4.2 (ebf0e940d0, 2025-05-08)"
   xmlns:inkscape="http://www.inkscape.org/namespaces/inkscape"
   xmlns:sodipodi="http://sodipodi.sourceforge.net/DTD/sodipodi-0.dtd"
   xmlns="http://www.w3.org/2000/svg"
   xmlns:svg="http://www.w3.org/2000/svg"
   xmlns:rdf="http://www.w3.org/1999/02/22-rdf-syntax-ns#"
   xmlns:cc="http://creativecommons.org/ns#"
   xmlns:dc="http://purl.org/dc/elements/1.1/">
  <metadata
     id="metadata77">
    <rdf:RDF>
      <cc:Work
         rdf:about="">
        <dc:format>image/svg+xml</dc:format>
        <dc:type
           rdf:resource="http://purl.org/dc/dcmitype/StillImage" />
      </cc:Work>
    </rdf:RDF>
  </metadata>
  <sodipodi:namedview
     pagecolor="#f5f7fa"
     bordercolor="#666666"
     borderopacity="1"
     objecttolerance="10"
     gridtolerance="10"
     guidetolerance="10"
     inkscape:pageopacity="0"
     inkscape:pageshadow="2"
     inkscape:window-width="1377"
     inkscape:window-height="886"
     id="namedview75"
     showgrid="false"
     inkscape:zoom="6.2890624"
     inkscape:cx="47.145342"
     inkscape:cy="39.513044"
     inkscape:window-x="0"
     inkscape:window-y="57"
     inkscape:window-maximized="0"
     inkscape:current-layer="g877"
     inkscape:document-rotation="0"
     inkscape:pagecheckerboard="0"
     inkscape:showpageshadow="2"
     inkscape:deskcolor="#d1d1d1" />
  <defs
     id="defs29" />
  <circle
     cx="32.516094"
     cy="31.877844"
     r="0"
     fill="url(#b)"
     stroke-width="1.5715"
     id="circle41"
     style="fill:url(#b)" />
  <g
     aria-label="GZ"
     transform="matrix(1.2212657,0,0,0.81882264,0.4960938,-0.1661539)"
     id="text93"
     style="font-weight:bold;font-size:11.5263px;line-height:1.25;font-family:sans-serif;-inkscape-font-specification:'sans-serif Bold';fill:#f2f2f2;stroke-width:0.288159" />
  <g
     id="g877"
     transform="matrix(1.1,0,0,1.1,-3.1845928,-3.2065454)">
    <rect
       x="8.3496294"
       y="8.369586"
       width="47.272728"
       height="47.272728"
       rx="9.8825235"
       ry="9.6485243"
       fill="url(#linearGradient862)"
       stroke-width="3.0541"
       id="rect35-7-3"
       style="fill:#414141;fill-opacity:1;stroke:#dfdfdf;stroke-width:2.04545;stroke-dasharray:none;stroke-opacity:1" />
    <path
       id="path51"
       style="fill:#dfdfdf;fill-opacity:1;stroke:none;stroke-width:0.496125;stroke-dasharray:none;stroke-opacity:0.6"
       d="m 32.384288,18.948548 c -2.24414,0 -2.692333,0.05094 -4.949622,0.554263 -2.098696,0.467971 -2.798613,0.705978 -4.532955,1.538763 l -2.050392,0.984499 -1.85853,2.172483 c -1.022203,1.194768 -1.927965,2.329617 -2.011631,2.523262 -0.08366,0.193645 -0.284809,1.417363 -0.447676,2.718997 l -0.29651,2.366284 0.887599,2.385664 0.88566,2.385664 2.325585,1.877911 2.32365,1.879846 2.645354,0.89729 c 2.614149,0.885765 2.677936,0.898578 5.253885,1.054263 2.110679,0.127578 2.877194,0.112407 4.023264,-0.07365 2.259657,-0.366781 2.237951,-0.370418 4.969,1.108534 1.359507,0.736202 2.714413,1.43974 3.009699,1.563954 0.27684,0.116464 0.528889,0.191504 0.585269,0.174424 8.32e-4,-3.34e-4 0.0051,-0.0016 0.0055,-0.002 l 0.002,-0.002 v -0.002 c 0.03136,-0.03136 -0.304422,-1.056792 -0.748058,-2.279076 -0.443677,-1.222284 -0.808147,-2.326744 -0.808147,-2.453493 0,-0.126762 0.586429,-0.68984 1.302328,-1.251939 0.840644,-0.660041 1.795991,-1.635546 2.695741,-2.755822 l 1.391645,-1.734511 0.374056,-2.017445 0.374018,-2.017445 -0.463027,-1.93992 -0.463176,-1.939926 -1.52714,-1.808141 c -1.373868,-1.626237 -1.722592,-1.93602 -3.47283,-3.07354 -1.783553,-1.159176 -2.155587,-1.330828 -4.451557,-2.050394 l -2.505821,-0.784883 z m 5.042645,5.044582 c 0.339539,-0.01008 0.98016,0.148243 1.587213,0.420544 0.628296,0.281833 1.308312,0.442127 2.110466,0.496125 0.985278,0.06632 1.318603,0.165286 1.986433,0.591086 0.69064,0.440341 0.847642,0.638735 1.133729,1.43605 0.185812,0.517834 0.370007,1.517452 0.41861,2.267446 0.08077,1.245297 0.05661,1.399843 -0.344954,2.160857 -0.302648,0.573556 -0.708,1.017774 -1.352716,1.478684 -0.840612,0.600968 -0.988885,0.651705 -1.680234,0.585274 l -0.757751,-0.07365 0.07559,0.961242 c 0.04132,0.528699 0.25434,1.515787 0.472866,2.193803 0.211654,0.656827 0.355981,1.228057 0.329448,1.298454 v 0.002 l -0.002,0.002 -0.002,0.002 -0.002,0.002 c -0.07048,0.03273 -0.645792,-0.01126 -1.304261,-0.102732 -0.679703,-0.09454 -1.488468,-0.12843 -1.798451,-0.07365 -0.310015,0.0548 -0.689233,0.137568 -0.841089,0.182162 -0.350424,0.102932 -0.349821,0.108454 0.116293,-1.129846 0.323039,-0.858309 0.408101,-1.443539 0.49417,-3.356597 0.125293,-2.785124 -0.162219,-6.787319 -0.587211,-8.155055 -0.161775,-0.520654 -0.295422,-1.00081 -0.296513,-1.065894 -0.0014,-0.07921 0.08985,-0.117527 0.244189,-0.122093 z M 24.56063,24.03576 c 0.03402,-0.001 0.07297,0.0056 0.116277,0.01742 0.151856,0.04181 0.844557,0.193952 1.538763,0.339148 0.98955,0.20698 1.524563,0.435274 2.47675,1.05428 l 1.215119,0.788766 0.581395,1.746125 c 0.534444,1.60391 0.573103,1.843851 0.482562,2.943807 -0.133716,1.624322 -0.739976,3.212154 -1.57171,4.110473 -0.364741,0.393941 -0.797341,1.018804 -0.961242,1.3876 -0.153658,0.345745 -0.321947,0.632166 -0.387597,0.666667 h -0.002 c -0.0025,5.99e-4 -0.0064,0.0018 -0.0078,0.002 l -0.002,0.002 c -0.05507,0 -0.506282,-0.667148 -1.00388,-1.48256 -1.042497,-1.70838 -1.391293,-1.918238 -2.236414,-1.33915 -0.457826,0.313707 -0.550368,0.515159 -0.879846,1.910856 -0.199381,0.844588 -0.410808,1.568084 -0.474808,1.625972 l -0.002,0.002 h -0.002 l -0.002,0.002 h -0.002 -0.002 -0.002 c -0.0827,-0.0057 -0.419468,-0.422241 -0.769381,-0.959307 -0.422297,-0.648166 -0.891736,-1.150526 -1.279073,-1.368221 -0.336728,-0.189252 -0.612405,-0.405061 -0.612405,-0.48062 0,-0.07556 0.287264,-0.55969 0.637599,-1.075583 0.317491,-0.467528 0.552395,-0.859188 0.560079,-0.928297 v -0.002 -0.002 -0.002 -0.002 h -0.002 v -0.002 h -0.002 -0.002 c -0.0451,0 -0.552787,0.287522 -1.127908,0.639535 -0.548166,0.335513 -1.016935,0.592647 -1.077523,0.593025 h -0.002 -0.002 l -0.002,-0.002 c -0.02064,-0.02661 -0.142076,-0.592629 -0.271319,-1.257753 -0.215755,-1.110325 -0.211342,-1.341924 0.05426,-2.829463 0.243643,-1.364527 0.419683,-1.854213 1.112406,-3.104658 l 0.821707,-1.484499 1.24225,-0.624032 c 0.683519,-0.343667 1.313002,-0.602392 1.399228,-0.573646 l 0.002,0.002 h 0.002 l 0.002,0.002 h 0.002 l 0.002,0.002 0.002,0.002 v 0.002 c 0.04311,0.07224 -0.190762,0.475415 -0.548451,0.936048 -0.931371,1.199422 -1.30182,2.313592 -1.156978,3.472875 0.08853,0.708541 0.191083,0.941134 0.511629,1.151164 0.491047,0.321747 0.651914,0.185365 0.804264,-0.676357 0.07959,-0.450158 0.352355,-0.924037 0.885662,-1.540702 l 0.76938,-0.889535 0.755817,0.744188 c 0.478616,0.47142 0.789316,0.932069 0.850776,1.25969 0.132824,0.708019 0.484145,0.988544 0.709302,0.567834 0.611025,-1.14171 -0.423216,-3.125149 -2.217058,-4.253886 -0.59737,-0.375883 -1.085272,-0.789683 -1.085272,-0.918606 0,-0.110263 0.0569,-0.171029 0.158913,-0.174421 z m 9.494204,3.211247 c 0.186438,-0.0056 0.396861,0.04679 0.755815,0.141471 1.263323,0.333257 2.082476,1.205877 2.498067,2.658921 0.494434,1.728704 0.567766,3.016598 0.259692,4.567838 -0.327675,1.649866 -0.757434,2.442766 -1.573648,2.905044 -0.345333,0.195596 -0.770248,0.346852 -0.943799,0.335279 -1.004452,-0.06699 -1.311395,-0.20143 -2.007757,-0.88179 -0.591236,-0.577651 -0.847771,-1.007192 -1.240312,-2.079463 -0.477597,-1.304598 -0.491478,-1.415712 -0.406977,-3.193803 0.07746,-1.630222 0.142485,-1.947883 0.556202,-2.767448 0.378229,-0.749271 0.614501,-1.006293 1.240312,-1.346903 0.422568,-0.229989 0.622696,-0.332079 0.862405,-0.339146 z m 6.439941,1.484498 v 1.327522 c 0,0.914719 0.0599,1.352167 0.195732,1.406979 0.351554,0.141861 0.504668,0.109655 1.0659,-0.23062 0.683133,-0.414192 0.783842,-0.563426 0.786821,-1.172483 0.0035,-0.691243 -0.702536,-1.331398 -1.467063,-1.331398 z m -5.505831,3.879852 c -0.09758,0.0055 -0.194556,0.07893 -0.370156,0.217055 -0.548674,0.431584 -0.819489,1.444221 -0.585272,2.184113 0.101378,0.320252 0.296936,0.670601 0.43411,0.77907 0.309073,0.244405 0.536105,0.24718 1.044575,0.01551 0.827968,-0.37725 0.783018,-2.320562 -0.06784,-2.94962 -0.232813,-0.172128 -0.344834,-0.252366 -0.455427,-0.246124 z" />
  </g>
</svg>
