<?xml version="1.0" encoding="UTF-8" standalone="no"?>
<svg
   width="64"
   height="64"
   version="1.1"
   id="svg73"
   sodipodi:docname="Logo.svg"
   inkscape:version="1.3.2 (091e20ef0f, 2023-11-25)"
   xmlns:inkscape="http://www.inkscape.org/namespaces/inkscape"
   xmlns:sodipodi="http://sodipodi.sourceforge.net/DTD/sodipodi-0.dtd"
   xmlns="http://www.w3.org/2000/svg"
   xmlns:svg="http://www.w3.org/2000/svg"
   xmlns:rdf="http://www.w3.org/1999/02/22-rdf-syntax-ns#"
   xmlns:cc="http://creativecommons.org/ns#"
   xmlns:dc="http://purl.org/dc/elements/1.1/">
  <metadata
     id="metadata77">
    <rdf:RDF>
      <cc:Work
         rdf:about="">
        <dc:format>image/svg+xml</dc:format>
        <dc:type
           rdf:resource="http://purl.org/dc/dcmitype/StillImage" />
      </cc:Work>
    </rdf:RDF>
  </metadata>
  <sodipodi:namedview
     pagecolor="#f5f7fa"
     bordercolor="#666666"
     borderopacity="1"
     objecttolerance="10"
     gridtolerance="10"
     guidetolerance="10"
     inkscape:pageopacity="0"
     inkscape:pageshadow="2"
     inkscape:window-width="1377"
     inkscape:window-height="886"
     id="namedview75"
     showgrid="false"
     inkscape:zoom="6.2890624"
     inkscape:cx="28.939131"
     inkscape:cy="27.905591"
     inkscape:window-x="181"
     inkscape:window-y="77"
     inkscape:window-maximized="0"
     inkscape:current-layer="g877"
     inkscape:document-rotation="0"
     inkscape:pagecheckerboard="0"
     inkscape:showpageshadow="2"
     inkscape:deskcolor="#d1d1d1" />
  <defs
     id="defs29">
    <linearGradient
       id="b"
       x1="399.57"
       x2="399.57"
       y1="545.8"
       y2="517.8"
       gradientTransform="matrix(2.1429,0,0,2.1429,-825.86391,-1107.6662)"
       gradientUnits="userSpaceOnUse">
      <stop
         stop-color="#3889e9"
         offset="0"
         id="stop2" />
      <stop
         stop-color="#5ea5fb"
         offset="1"
         id="stop4" />
    </linearGradient>
    <linearGradient
       id="d"
       x2="1"
       gradientTransform="matrix(14.905727,-4.7106182,4.7106182,14.905727,322.04962,998.26962)"
       gradientUnits="userSpaceOnUse">
      <stop
         stop-color="#fafafa"
         offset="0"
         id="stop7" />
      <stop
         stop-color="#aaa"
         offset="1"
         id="stop8" />
    </linearGradient>
    <linearGradient
       id="e"
       x2="1"
       gradientTransform="matrix(21.439909,0,0,21.439909,26.63554,1159.7788)"
       gradientUnits="userSpaceOnUse">
      <stop
         stop-color="#f0f0f0"
         offset="0"
         id="stop9" />
      <stop
         stop-color="#b7f1ff"
         offset="1"
         id="stop10" />
    </linearGradient>
  </defs>
  <circle
     cx="32.516094"
     cy="31.877844"
     r="0"
     fill="url(#b)"
     stroke-width="1.5715"
     id="circle41"
     style="fill:url(#b)" />
  <g
     aria-label="GZ"
     transform="matrix(1.2212657,0,0,0.81882264,0.4960938,-0.1661539)"
     id="text93"
     style="font-weight:bold;font-size:11.5263px;line-height:1.25;font-family:sans-serif;-inkscape-font-specification:'sans-serif Bold';fill:#f2f2f2;stroke-width:0.288159" />
  <g
     id="g877"
     transform="matrix(1.1,0,0,1.1,-3.1845928,-3.2065454)">
    <rect
       x="6.3010068"
       y="5.4939413"
       width="51.635597"
       height="53.148327"
       rx="10.980581"
       ry="10.720582"
       fill="url(#linearGradient862)"
       stroke-width="3.0541"
       id="rect35-7-3"
       style="fill:#414141;fill-opacity:1;stroke:#dfdfdf;stroke-width:2.27272727;stroke-dasharray:none;stroke-opacity:1" />
    <path
       id="path69"
       style="fill:#dfdfdf;fill-opacity:1;stroke-width:0.216204;stroke-opacity:0.3"
       d="m 51.123223,12.210809 c -2.906661,0.0026 -8.216828,1.446253 -11.167934,3.036342 -3.508925,1.890651 -6.201008,4.61165 -13.307403,13.44778 l -1.694948,2.108282 -3.597863,0.0077 -3.597856,0.0077 -1.471381,2.295455 c -0.808841,1.261708 -1.392578,2.368377 -1.29721,2.459231 0.09538,0.09086 1.307629,0.473836 2.6932,0.852672 2.864952,0.783308 3.041573,0.984147 2.313653,2.610005 -0.220544,0.49265 -0.400339,1.067255 -0.400339,1.279008 0,0.904843 3.056952,4.313487 4.575312,5.100436 0.514647,0.266725 0.698985,0.243533 1.728745,-0.200169 0.948232,-0.408589 1.910712,-0.543301 1.910712,-0.267782 0,0.182714 1.359615,5.233049 1.447982,5.378591 0.138694,0.228441 0.06445,0.270044 2.610008,-1.468781 l 2.212271,-1.510371 v -3.805803 -3.805827 l 4.377745,-3.764236 c 6.976334,-5.997023 9.08658,-8.289351 10.832574,-11.768431 1.238244,-2.467339 2.297996,-6.635469 2.623016,-10.317852 l 0.148152,-1.674146 z M 40.774174,20.44377 c 1.143787,0.04889 2.266519,0.681466 2.843973,1.87432 0.784494,1.620551 0.343643,3.328308 -1.149025,4.442731 -0.655957,0.48974 -2.218736,0.672613 -2.98436,0.350949 -1.958536,-0.822862 -2.739576,-3.180324 -1.671548,-5.043244 0.653688,-1.140203 1.817166,-1.673665 2.96096,-1.624756 z M 17.299685,41.061277 c -0.176475,0.0035 -0.48908,0.213501 -0.930661,0.644702 -1.795957,1.753704 -3.055252,5.069182 -3.363897,8.859468 l -0.158567,1.923711 1.915913,-0.129999 c 3.611865,-0.248011 6.549705,-1.390521 8.362949,-3.252108 1.393697,-1.430858 0.998564,-1.677264 -1.05544,-0.657701 -1.495368,0.742262 -4.093247,1.357245 -5.799735,1.372592 l -0.839671,0.0076 0.153385,-1.746939 c 0.196194,-2.249048 0.617643,-3.895409 1.390793,-5.420184 0.529517,-1.044297 0.619089,-1.607333 0.324931,-1.601357 z" />
  </g>
</svg>
