<?xml version="1.0" encoding="UTF-8" standalone="no"?>
<svg
   width="64"
   height="64"
   version="1.1"
   id="svg73"
   sodipodi:docname="audacious.svg"
   inkscape:version="1.4.2 (ebf0e940d0, 2025-05-08)"
   xmlns:inkscape="http://www.inkscape.org/namespaces/inkscape"
   xmlns:sodipodi="http://sodipodi.sourceforge.net/DTD/sodipodi-0.dtd"
   xmlns="http://www.w3.org/2000/svg"
   xmlns:svg="http://www.w3.org/2000/svg"
   xmlns:rdf="http://www.w3.org/1999/02/22-rdf-syntax-ns#"
   xmlns:cc="http://creativecommons.org/ns#"
   xmlns:dc="http://purl.org/dc/elements/1.1/">
  <metadata
     id="metadata77">
    <rdf:RDF>
      <cc:Work
         rdf:about="">
        <dc:format>image/svg+xml</dc:format>
        <dc:type
           rdf:resource="http://purl.org/dc/dcmitype/StillImage" />
      </cc:Work>
    </rdf:RDF>
  </metadata>
  <sodipodi:namedview
     pagecolor="#f5f7fa"
     bordercolor="#666666"
     borderopacity="1"
     objecttolerance="10"
     gridtolerance="10"
     guidetolerance="10"
     inkscape:pageopacity="0"
     inkscape:pageshadow="2"
     inkscape:window-width="1377"
     inkscape:window-height="886"
     id="namedview75"
     showgrid="false"
     inkscape:zoom="6.2890624"
     inkscape:cx="45.714286"
     inkscape:cy="38.559007"
     inkscape:window-x="20"
     inkscape:window-y="75"
     inkscape:window-maximized="0"
     inkscape:current-layer="g877"
     inkscape:document-rotation="0"
     inkscape:pagecheckerboard="0"
     inkscape:showpageshadow="2"
     inkscape:deskcolor="#d1d1d1" />
  <defs
     id="defs29" />
  <circle
     cx="32.516094"
     cy="31.877844"
     r="0"
     fill="url(#b)"
     stroke-width="1.5715"
     id="circle41"
     style="fill:url(#b)" />
  <g
     aria-label="GZ"
     transform="matrix(1.2212657,0,0,0.81882264,0.4960938,-0.1661539)"
     id="text93"
     style="font-weight:bold;font-size:11.5263px;line-height:1.25;font-family:sans-serif;-inkscape-font-specification:'sans-serif Bold';fill:#f2f2f2;stroke-width:0.288159" />
  <g
     id="g877"
     transform="matrix(1.1,0,0,1.1,-3.1845928,-3.2065454)">
    <rect
       x="8.3496294"
       y="8.369586"
       width="47.272728"
       height="47.272728"
       rx="9.8825235"
       ry="9.6485243"
       fill="url(#linearGradient862)"
       stroke-width="3.0541"
       id="rect35-7-3"
       style="fill:#414141;fill-opacity:1;stroke:#dfdfdf;stroke-width:2.04545;stroke-dasharray:none;stroke-opacity:1" />
    <path
       style="fill:#dfdfdf;fill-opacity:1;stroke:none;stroke-width:0.5;stroke-dasharray:none;stroke-opacity:0.6"
       d="m 19.643762,47.475991 c -0.667848,-0.270166 -1.229522,-1.140914 -1.344984,-2.085093 -0.06015,-0.491623 -0.08485,-3.799534 -0.05493,-7.350934 0.04966,-5.895391 0.0811,-6.496449 0.361693,-6.909723 0.456787,-0.672803 1.281465,-0.991697 2.564578,-0.991697 h 1.121305 l 0.002,-3.440944 c 0.0026,-4.605046 0.357859,-5.879691 2.152301,-7.724274 1.651016,-1.69715 4.25233,-2.592653 7.531301,-2.592653 3.07354,0 5.458459,0.752542 7.058238,2.227167 1.117693,1.030253 1.69656,1.938072 2.220348,3.482077 0.413763,1.219692 0.460888,1.630351 0.538473,4.692645 l 0.08508,3.355982 1.12372,6.37e-4 c 0.827149,4.67e-4 1.272139,0.09112 1.686177,0.343566 1.032893,0.629734 1.051794,0.781062 1.051794,8.418179 0,7.642445 -0.01546,7.763622 -1.090903,8.419277 -0.499512,0.304636 -1.073307,0.318689 -12.587908,0.309034 -6.635495,-0.0055 -12.22371,-0.07456 -12.418247,-0.153212 z M 37.924366,27.086302 c 0,-2.665683 -0.04429,-3.170712 -0.349992,-3.987684 -0.428716,-1.145833 -1.503057,-2.153888 -2.764617,-2.594037 -1.059752,-0.369746 -4.229079,-0.424411 -5.323328,-0.09182 -1.274821,0.38747 -2.293724,1.214979 -2.858137,2.321255 -0.509719,0.999076 -0.514008,1.030776 -0.569311,4.205597 l -0.05571,3.198933 h 5.960553 5.960547 z"
       id="path53" />
  </g>
</svg>
