<?xml version="1.0" encoding="UTF-8" standalone="no"?>
<svg
   width="64"
   height="64"
   version="1.1"
   id="svg73"
   sodipodi:docname="Logo.svg"
   inkscape:version="1.3.2 (091e20ef0f, 2023-11-25)"
   xmlns:inkscape="http://www.inkscape.org/namespaces/inkscape"
   xmlns:sodipodi="http://sodipodi.sourceforge.net/DTD/sodipodi-0.dtd"
   xmlns="http://www.w3.org/2000/svg"
   xmlns:svg="http://www.w3.org/2000/svg"
   xmlns:rdf="http://www.w3.org/1999/02/22-rdf-syntax-ns#"
   xmlns:cc="http://creativecommons.org/ns#"
   xmlns:dc="http://purl.org/dc/elements/1.1/">
  <metadata
     id="metadata77">
    <rdf:RDF>
      <cc:Work
         rdf:about="">
        <dc:format>image/svg+xml</dc:format>
        <dc:type
           rdf:resource="http://purl.org/dc/dcmitype/StillImage" />
      </cc:Work>
    </rdf:RDF>
  </metadata>
  <sodipodi:namedview
     pagecolor="#f5f7fa"
     bordercolor="#666666"
     borderopacity="1"
     objecttolerance="10"
     gridtolerance="10"
     guidetolerance="10"
     inkscape:pageopacity="0"
     inkscape:pageshadow="2"
     inkscape:window-width="1377"
     inkscape:window-height="886"
     id="namedview75"
     showgrid="false"
     inkscape:zoom="6.2890624"
     inkscape:cx="4.2931678"
     inkscape:cy="12.004969"
     inkscape:window-x="181"
     inkscape:window-y="77"
     inkscape:window-maximized="0"
     inkscape:current-layer="g877"
     inkscape:document-rotation="0"
     inkscape:pagecheckerboard="0"
     inkscape:showpageshadow="2"
     inkscape:deskcolor="#d1d1d1" />
  <defs
     id="defs29">
    <linearGradient
       id="b"
       x1="399.57"
       x2="399.57"
       y1="545.8"
       y2="517.8"
       gradientTransform="matrix(2.1429,0,0,2.1429,-825.86391,-1107.6662)"
       gradientUnits="userSpaceOnUse">
      <stop
         stop-color="#3889e9"
         offset="0"
         id="stop2" />
      <stop
         stop-color="#5ea5fb"
         offset="1"
         id="stop4" />
    </linearGradient>
    <linearGradient
       id="d"
       x2="1"
       gradientTransform="matrix(14.905727,-4.7106182,4.7106182,14.905727,322.04962,998.26962)"
       gradientUnits="userSpaceOnUse">
      <stop
         stop-color="#fafafa"
         offset="0"
         id="stop7" />
      <stop
         stop-color="#aaa"
         offset="1"
         id="stop8" />
    </linearGradient>
    <linearGradient
       id="e"
       x2="1"
       gradientTransform="matrix(21.439909,0,0,21.439909,26.63554,1159.7788)"
       gradientUnits="userSpaceOnUse">
      <stop
         stop-color="#f0f0f0"
         offset="0"
         id="stop9" />
      <stop
         stop-color="#b7f1ff"
         offset="1"
         id="stop10" />
    </linearGradient>
  </defs>
  <circle
     cx="32.516094"
     cy="31.877844"
     r="0"
     fill="url(#b)"
     stroke-width="1.5715"
     id="circle41"
     style="fill:url(#b)" />
  <g
     aria-label="GZ"
     transform="matrix(1.2212657,0,0,0.81882264,0.4960938,-0.1661539)"
     id="text93"
     style="font-weight:bold;font-size:11.5263px;line-height:1.25;font-family:sans-serif;-inkscape-font-specification:'sans-serif Bold';fill:#f2f2f2;stroke-width:0.288159" />
  <g
     id="g877"
     transform="matrix(1.1,0,0,1.1,-3.1845928,-3.2065454)">
    <rect
       x="6.3010068"
       y="5.4939413"
       width="51.635597"
       height="53.148327"
       rx="10.980581"
       ry="10.720582"
       fill="url(#linearGradient862)"
       stroke-width="3.0541"
       id="rect35-7-3"
       style="fill:#414141;fill-opacity:1;stroke:#dfdfdf;stroke-width:2.27272727;stroke-dasharray:none;stroke-opacity:1" />
    <g
       id="g1"
       transform="matrix(0.90909091,0,0,0.90909091,10.076846,12.005949)"
       style="fill:#dfdfdf;fill-opacity:1">
      <path
         id="path5"
         style="fill:#dfdfdf;stroke:none;stroke-width:0.0947368;stroke-dasharray:none;stroke-opacity:1;fill-opacity:1"
         d="m 29.021484,6.03125 c -13.581507,0 -12.431564,-0.039424 -13.484375,0.4726562 -1.310791,0.6375601 -2.275387,1.9678899 -2.46289,3.3964844 l -0.04492,0.3320314 h 11.496094 c 12.330831,0 11.871398,-0.01108 12.796875,0.3125 1.399395,0.489271 2.645493,1.733417 3.134765,3.132812 0.317866,0.909123 0.310547,0.745129 0.310547,9.285157 v 7.984375 h 0.16992 c 0.290264,0 0.979542,-0.195018 1.441406,-0.408204 1.223316,-0.564653 2.16391,-1.722217 2.47461,-3.046874 0.108652,-0.463392 0.115234,-0.982337 0.115234,-8.986329 0,-9.5527393 0.02784,-8.9663479 -0.476562,-9.9667965 C 43.892513,7.3496453 42.926678,6.5563007 41.619141,6.1777344 L 41.115234,6.03125 Z M 24,11.810547 c -13.394533,0 -12.380356,-0.03326 -13.253906,0.425781 -0.581829,0.305742 -1.2040239,0.927937 -1.5097659,1.509766 -0.2306564,0.438939 -0.4257812,1.04963 -0.4257812,1.330078 v 0.144531 l 11.0996091,0.002 c 10.652844,7.97e-4 11.124217,0.0041 11.681641,0.119141 2.015634,0.41596 3.649955,2.052389 4.066406,4.070312 0.11279,0.546525 0.118356,0.97878 0.119141,8.171875 l 0.002,7.595704 h 0.193359 c 0.329519,0 1.137426,-0.311207 1.585938,-0.609376 0.51812,-0.344445 0.925498,-0.795457 1.21875,-1.353515 0.437439,-0.832456 0.412109,-0.246892 0.412109,-9.722656 0,-9.50293 0.02677,-8.884888 -0.425781,-9.746094 C 38.45466,13.159996 37.83775,12.541429 37.257812,12.238281 36.377726,11.778239 37.396344,11.810547 24,11.810547 Z m 2.464844,4.996094 c -1.809502,-0.0015 -4.264676,0.0032 -7.617188,0.0078 l -12.1523435,0.01758 -0.4023437,0.150391 c -1.1548675,0.431989 -2.012315,1.35509 -2.3867188,2.568359 -0.1100306,0.356551 -0.1171875,0.809459 -0.1171875,8.902344 0,6.974017 0.01572,8.58892 0.085937,8.873047 0.3405181,1.377863 1.4955984,2.514364 2.8515625,2.80664 0.3432793,0.07399 2.3420996,0.08955 12.207031,0.09375 12.830388,0.0055 12.28158,0.01949 13.080078,-0.33789 0.462216,-0.206874 1.061003,-0.669171 1.371094,-1.058594 0.315731,-0.396506 0.646161,-1.088106 0.744141,-1.554687 0.04959,-0.236156 0.07031,-2.830175 0.07031,-8.8125 0,-9.341102 0.02336,-8.777474 -0.394531,-9.640625 -0.274281,-0.566519 -1.06308,-1.353988 -1.630859,-1.628907 -0.657009,-0.318119 -0.280479,-0.382223 -5.708985,-0.386718 z m -12.302735,4.36914 c 0.169936,-0.0071 0.342719,0.0047 0.515625,0.03516 0.816774,0.143869 0.972567,0.257343 2.705078,1.984374 l 1.59375,1.587891 1.564454,-1.550781 c 1.714689,-1.701302 1.950013,-1.875293 2.755859,-2.015625 1.102107,-0.191925 2.267695,0.419656 2.773437,1.453125 0.191314,0.390948 0.203126,0.455184 0.203126,1.109375 0,0.654908 -0.01255,0.719931 -0.208985,1.134765 -0.185904,0.392604 -0.378306,0.609593 -1.783203,2.021485 l -1.574219,1.583984 1.517578,1.513672 c 0.834338,0.832808 1.59909,1.642512 1.699219,1.798828 0.823765,1.28601 0.286821,3.08517 -1.117187,3.742188 -0.805412,0.376894 -1.858677,0.293111 -2.570313,-0.205078 -0.141827,-0.09929 -0.924798,-0.849658 -1.740234,-1.667969 l -1.482422,-1.488281 -1.582031,1.574218 c -1.419329,1.412299 -1.628768,1.596457 -2.023438,1.78125 -0.58346,0.273195 -1.369391,0.318954 -1.951172,0.113282 -1.525302,-0.539238 -2.186691,-2.158187 -1.490234,-3.646485 0.167664,-0.358287 0.395165,-0.615695 1.751953,-1.982422 l 1.560547,-1.570312 -1.552735,-1.5625 c -0.854293,-0.859774 -1.628153,-1.694142 -1.720703,-1.855469 -0.25708,-0.448152 -0.373865,-1.114462 -0.291015,-1.648437 0.195433,-1.259598 1.257722,-2.190396 2.447265,-2.240235 z" />
    </g>
  </g>
</svg>
