<?xml version="1.0" encoding="UTF-8" standalone="no"?>
<svg
   width="64"
   height="64"
   version="1.1"
   id="svg73"
   sodipodi:docname="audacious.svg"
   inkscape:version="1.4.2 (ebf0e940d0, 2025-05-08)"
   xmlns:inkscape="http://www.inkscape.org/namespaces/inkscape"
   xmlns:sodipodi="http://sodipodi.sourceforge.net/DTD/sodipodi-0.dtd"
   xmlns="http://www.w3.org/2000/svg"
   xmlns:svg="http://www.w3.org/2000/svg"
   xmlns:rdf="http://www.w3.org/1999/02/22-rdf-syntax-ns#"
   xmlns:cc="http://creativecommons.org/ns#"
   xmlns:dc="http://purl.org/dc/elements/1.1/">
  <metadata
     id="metadata77">
    <rdf:RDF>
      <cc:Work
         rdf:about="">
        <dc:format>image/svg+xml</dc:format>
        <dc:type
           rdf:resource="http://purl.org/dc/dcmitype/StillImage" />
      </cc:Work>
    </rdf:RDF>
  </metadata>
  <sodipodi:namedview
     pagecolor="#f5f7fa"
     bordercolor="#666666"
     borderopacity="1"
     objecttolerance="10"
     gridtolerance="10"
     guidetolerance="10"
     inkscape:pageopacity="0"
     inkscape:pageshadow="2"
     inkscape:window-width="1377"
     inkscape:window-height="886"
     id="namedview75"
     showgrid="false"
     inkscape:zoom="6.2890624"
     inkscape:cx="45.714286"
     inkscape:cy="42.057144"
     inkscape:window-x="0"
     inkscape:window-y="75"
     inkscape:window-maximized="0"
     inkscape:current-layer="g877"
     inkscape:document-rotation="0"
     inkscape:pagecheckerboard="0"
     inkscape:showpageshadow="2"
     inkscape:deskcolor="#d1d1d1" />
  <defs
     id="defs29" />
  <circle
     cx="32.516094"
     cy="31.877844"
     r="0"
     fill="url(#b)"
     stroke-width="1.5715"
     id="circle41"
     style="fill:url(#b)" />
  <g
     aria-label="GZ"
     transform="matrix(1.2212657,0,0,0.81882264,0.4960938,-0.1661539)"
     id="text93"
     style="font-weight:bold;font-size:11.5263px;line-height:1.25;font-family:sans-serif;-inkscape-font-specification:'sans-serif Bold';fill:#f2f2f2;stroke-width:0.288159" />
  <g
     id="g877"
     transform="matrix(1.1,0,0,1.1,-3.1845928,-3.2065454)">
    <rect
       x="8.3496294"
       y="8.369586"
       width="47.272728"
       height="47.272728"
       rx="9.8825235"
       ry="9.6485243"
       fill="url(#linearGradient862)"
       stroke-width="3.0541"
       id="rect35-7-3"
       style="fill:#414141;fill-opacity:1;stroke:#dfdfdf;stroke-width:2.04545;stroke-dasharray:none;stroke-opacity:1" />
    <path
       style="fill:#dfdfdf;stroke-width:0.048274;fill-opacity:1"
       d="m 31.079015,46.417659 c -0.06638,-0.01148 -0.316196,-0.04492 -0.555152,-0.0747 -1.733843,-0.2161 -3.547712,-1.01263 -5.285998,-2.321241 -1.0877,-0.818844 -1.880493,-1.562168 -4.539383,-4.25619 -1.882606,-1.907476 -2.625425,-2.566155 -3.731828,-3.309107 -0.488563,-0.328069 -0.723709,-0.574134 -0.898044,-0.939727 -0.370185,-0.776315 -0.301353,-1.790966 0.167743,-2.472757 0.0933,-0.135598 0.359201,-0.395215 0.590899,-0.576927 0.496314,-0.389245 1.87602,-1.758728 2.683535,-2.663657 l 0.570175,-0.63896 -1.464493,-1.515622 c -0.889042,-0.92008 -1.528884,-1.622887 -1.628365,-1.788604 -0.563711,-0.93905 -0.412904,-2.111476 0.372657,-2.89717 0.801137,-0.801274 2.092026,-0.932399 3.010856,-0.305837 0.127327,0.08682 0.863658,0.814992 1.636298,1.618148 0.772639,0.803159 1.420166,1.46029 1.438947,1.46029 0.01876,0 0.239357,-0.164845 0.490175,-0.366329 0.250816,-0.201477 0.76324,-0.571871 1.138718,-0.823093 l 0.682684,-0.456772 -0.07177,-0.275136 c -0.03947,-0.151324 -0.26522,-0.991047 -0.501657,-1.866051 -0.376478,-1.393266 -0.429885,-1.640025 -0.429885,-1.986215 0,-1.817831 1.916289,-2.948068 3.535303,-2.085143 0.399183,0.212763 0.77448,0.604963 0.97706,1.021062 0.102019,0.209549 0.335889,0.946367 0.596148,1.878209 0.235549,0.843361 0.440534,1.545645 0.45552,1.560631 0.01504,0.01499 0.327852,7.34e-4 0.695264,-0.03145 0.62844,-0.05521 1.673254,-0.0411 2.405881,0.03249 l 0.289642,0.02909 0.447535,-1.603381 c 0.246143,-0.881869 0.506426,-1.726013 0.57841,-1.875887 0.171081,-0.356207 0.679005,-0.867658 1.032023,-1.039191 0.991425,-0.481737 2.032038,-0.314594 2.797846,0.449388 0.50904,0.507824 0.770592,1.194261 0.70267,1.844117 -0.01646,0.160528 -0.2486,1.09829 -0.515137,2.083919 -0.266539,0.985629 -0.478488,1.817359 -0.470977,1.848289 0.0078,0.03094 0.306911,0.252649 0.665363,0.492713 0.358417,0.240056 0.856909,0.60122 1.107726,0.802576 0.250823,0.201355 0.471115,0.366106 0.489548,0.366106 0.01863,0 0.63721,-0.624544 1.375065,-1.387877 0.737841,-0.76333 1.41906,-1.454878 1.513818,-1.536767 0.853864,-0.737954 2.158187,-0.735321 3.047514,0.0062 0.94088,0.784458 1.139735,2.12213 0.466887,3.140739 -0.08581,0.129919 -0.803307,0.90494 -1.594406,1.722265 l -1.438378,1.486048 0.59166,0.662214 c 0.822511,0.920586 2.154944,2.24305 2.658078,2.638181 0.729262,0.572725 0.970044,1.050292 0.975192,1.934223 0.0059,0.995753 -0.256623,1.466828 -1.164643,2.090749 -1.200193,0.824681 -1.778435,1.343816 -3.95454,3.550343 -1.836242,1.861909 -2.698858,2.696707 -3.397687,3.288117 -2.015206,1.705431 -3.876611,2.637331 -5.985977,2.996823 -0.435094,0.07416 -2.273281,0.139441 -2.558518,0.09085 z m 2.085376,-2.892714 c 3.572104,-0.471548 6.527453,-2.91432 7.640091,-6.314988 0.0939,-0.286943 0.170708,-0.542188 0.170708,-0.567217 0,-0.0278 -0.843319,-0.04551 -2.169497,-0.04551 h -2.169516 l -0.153495,0.287987 c -0.367071,0.688672 -1.124907,1.455937 -1.873018,1.896302 -0.7856,0.462436 -1.486512,0.662352 -2.444504,0.697226 -0.56855,0.02058 -0.755014,0.0082 -1.174616,-0.0785 -1.027618,-0.212456 -1.932666,-0.703125 -2.664496,-1.444585 -0.651655,-0.660228 -1.089261,-1.412349 -1.32983,-2.285611 -0.153564,-0.557427 -0.207816,-1.513179 -0.11999,-2.113827 0.310473,-2.123331 1.969132,-3.863076 4.106239,-4.306979 0.657132,-0.136496 1.715679,-0.101732 2.356079,0.07738 1.3244,0.370405 2.408552,1.19891 3.118137,2.382861 l 0.180844,0.301711 h 2.169754 2.169753 l -0.03167,-0.132752 C 40.875327,31.590548 40.576109,30.777925 40.39716,30.39059 39.580301,28.622778 38.100175,27.068827 36.336861,26.1279 33.73669,24.740418 30.482697,24.698852 27.855928,26.019566 c -1.843836,0.927063 -3.270643,2.367496 -4.189619,4.229635 -0.68979,1.397731 -0.97905,2.772396 -0.924163,4.391937 0.03949,1.166021 0.223684,2.086432 0.615211,3.074539 0.857412,2.163895 2.501221,3.945136 4.559724,4.940945 1.638784,0.792775 3.49399,1.099768 5.24732,0.868317 z"
       id="path5" />
  </g>
</svg>
