<?xml version="1.0" encoding="UTF-8" standalone="no"?>
<svg
   width="64"
   height="64"
   version="1.1"
   id="svg73"
   sodipodi:docname="audacious.svg"
   inkscape:version="1.4.2 (ebf0e940d0, 2025-05-08)"
   xmlns:inkscape="http://www.inkscape.org/namespaces/inkscape"
   xmlns:sodipodi="http://sodipodi.sourceforge.net/DTD/sodipodi-0.dtd"
   xmlns="http://www.w3.org/2000/svg"
   xmlns:svg="http://www.w3.org/2000/svg"
   xmlns:rdf="http://www.w3.org/1999/02/22-rdf-syntax-ns#"
   xmlns:cc="http://creativecommons.org/ns#"
   xmlns:dc="http://purl.org/dc/elements/1.1/">
  <metadata
     id="metadata77">
    <rdf:RDF>
      <cc:Work
         rdf:about="">
        <dc:format>image/svg+xml</dc:format>
        <dc:type
           rdf:resource="http://purl.org/dc/dcmitype/StillImage" />
      </cc:Work>
    </rdf:RDF>
  </metadata>
  <sodipodi:namedview
     pagecolor="#f5f7fa"
     bordercolor="#666666"
     borderopacity="1"
     objecttolerance="10"
     gridtolerance="10"
     guidetolerance="10"
     inkscape:pageopacity="0"
     inkscape:pageshadow="2"
     inkscape:window-width="1377"
     inkscape:window-height="886"
     id="namedview75"
     showgrid="false"
     inkscape:zoom="6.2890624"
     inkscape:cx="45.714286"
     inkscape:cy="42.057144"
     inkscape:window-x="0"
     inkscape:window-y="75"
     inkscape:window-maximized="0"
     inkscape:current-layer="g877"
     inkscape:document-rotation="0"
     inkscape:pagecheckerboard="0"
     inkscape:showpageshadow="2"
     inkscape:deskcolor="#d1d1d1" />
  <defs
     id="defs29" />
  <circle
     cx="32.516094"
     cy="31.877844"
     r="0"
     fill="url(#b)"
     stroke-width="1.5715"
     id="circle41"
     style="fill:url(#b)" />
  <g
     aria-label="GZ"
     transform="matrix(1.2212657,0,0,0.81882264,0.4960938,-0.1661539)"
     id="text93"
     style="font-weight:bold;font-size:11.5263px;line-height:1.25;font-family:sans-serif;-inkscape-font-specification:'sans-serif Bold';fill:#f2f2f2;stroke-width:0.288159" />
  <g
     id="g877"
     transform="matrix(1.1,0,0,1.1,-3.1845928,-3.2065454)">
    <rect
       x="8.3496294"
       y="8.369586"
       width="47.272728"
       height="47.272728"
       rx="9.8825235"
       ry="9.6485243"
       fill="url(#linearGradient862)"
       stroke-width="3.0541"
       id="rect35-7-3"
       style="fill:#414141;fill-opacity:1;stroke:#dfdfdf;stroke-width:2.04545;stroke-dasharray:none;stroke-opacity:1" />
    <path
       id="path4"
       style="fill:#dfdfdf;stroke-width:0.048274;fill-opacity:1"
       d="m 36.886314,17.577221 c -0.368533,7.74e-4 -0.746862,0.09053 -1.118649,0.271188 -0.353019,0.171535 -0.860562,0.683348 -1.031643,1.039553 -0.07197,0.149876 -0.332391,0.993855 -0.578532,1.875713 l -0.447459,1.603396 -0.290396,-0.02936 c -0.732631,-0.07361 -1.777222,-0.08798 -2.40566,-0.03277 -0.367412,0.03226 -0.679933,0.04664 -0.69492,0.03164 -0.01499,-0.01497 -0.21982,-0.717091 -0.45537,-1.56045 -0.260261,-0.931847 -0.494592,-1.668424 -0.596611,-1.877977 -0.202576,-0.4161 -0.578223,-0.80871 -0.977405,-1.021473 -1.619014,-0.862925 -3.534477,0.266925 -3.534477,2.084755 0,0.346192 0.0529,0.593182 0.429379,1.986448 0.236436,0.875006 0.462226,1.715349 0.501697,1.866675 l 0.07231,0.274577 -0.68362,0.456499 c -0.375477,0.251221 -0.887039,0.622251 -1.137856,0.82373 -0.250819,0.201481 -0.471618,0.366107 -0.490399,0.366107 -0.01876,0 -0.666914,-0.656736 -1.439552,-1.459894 -0.77264,-0.80316 -1.50884,-1.531261 -1.636166,-1.618087 -0.918825,-0.62656 -2.209041,-0.496186 -3.01018,0.305087 -0.78556,0.785693 -0.936594,1.958137 -0.372883,2.897185 0.09948,0.165716 0.739213,0.868629 1.628254,1.788709 l 1.464414,1.516391 -0.570623,0.63842 c -0.807518,0.904931 -2.186183,2.274044 -2.682497,2.663287 -0.231699,0.181713 -0.497669,0.441807 -0.590965,0.577404 -0.469097,0.681793 -0.538544,1.696014 -0.168361,2.472326 0.174333,0.365596 0.409745,0.612046 0.898307,0.94012 1.106404,0.742945 1.849615,1.402142 3.732219,3.309618 2.658892,2.694015 3.451302,3.436545 4.539001,4.255382 1.738286,1.308613 3.552052,2.105934 5.285895,2.32204 0.238957,0.02963 0.488431,0.06328 0.554806,0.0746 0.285236,0.04854 2.124238,-0.01733 2.559332,-0.09151 2.109367,-0.359484 3.970131,-1.291192 5.985334,-2.99663 0.698838,-0.591406 1.561512,-1.426237 3.397755,-3.288148 2.176102,-2.206555 2.754619,-2.725647 3.954818,-3.550328 0.908033,-0.623907 1.170774,-1.094641 1.164977,-2.090389 -0.0052,-0.883931 -0.246994,-1.361746 -0.976277,-1.934471 -0.503127,-0.395132 -1.835126,-1.717841 -2.657637,-2.638427 l -0.592089,-0.662143 1.438424,-1.485882 c 0.791104,-0.817326 1.508532,-1.592121 1.594356,-1.722041 0.672852,-1.018609 0.474216,-2.356796 -0.466672,-3.141255 -0.889313,-0.74147 -2.193596,-0.743604 -3.047463,-0.0057 -0.09476,0.08188 -0.775154,0.773398 -1.513003,1.536729 -0.737851,0.763332 -1.356715,1.387578 -1.375149,1.387578 -0.01818,0 -0.239548,-0.164748 -0.490391,-0.366104 -0.250811,-0.201358 -0.748914,-0.562206 -1.107352,-0.802267 -0.35842,-0.24006 -0.658027,-0.46173 -0.665539,-0.492658 -0.0077,-0.03093 0.204667,-0.862966 0.471186,-1.848594 0.266548,-0.98563 0.498479,-1.923098 0.515258,-2.083626 0.06792,-0.649856 -0.193792,-1.336253 -0.702831,-1.844076 -0.478625,-0.477474 -1.064879,-0.722388 -1.6791,-0.720892 z m -4.849738,7.480257 c 1.414915,0.0042 2.829879,0.323795 4.109621,0.967236 2.813767,1.414733 4.710291,4.133715 5.067819,7.265565 0.21573,1.889708 -0.195982,3.936458 -1.119785,5.564994 -1.4924,2.630855 -4.117048,4.365561 -7.094939,4.690412 -2.253821,0.245867 -4.529184,-0.34879 -6.410195,-1.675709 -0.593474,-0.418657 -1.715755,-1.538278 -2.125432,-2.120914 -1.110058,-1.578707 -1.657731,-3.204859 -1.722041,-5.108495 -0.05473,-1.619807 0.232394,-2.980201 0.925428,-4.390978 0.481947,-0.981082 0.944136,-1.63123 1.72995,-2.430519 0.516795,-0.525655 0.915186,-0.858641 1.472322,-1.230513 1.528581,-1.020282 3.348078,-1.536377 5.167252,-1.531079 z m -0.0407,3.554816 c -0.867769,0 -0.978855,0.01065 -1.414695,0.128812 -1.035309,0.280598 -1.898564,0.778807 -2.646324,1.526563 -0.75188,0.751882 -1.256319,1.628288 -1.522038,2.64634 -0.164318,0.629538 -0.208117,1.713436 -0.09605,2.35594 0.421814,2.418232 2.284307,4.295441 4.689282,4.725442 0.510732,0.0913 1.391612,0.09446 1.93221,0.0069 2.403138,-0.389925 4.311964,-2.297168 4.736741,-4.732371 0.111082,-0.636766 0.06846,-1.726984 -0.09265,-2.341252 -0.280346,-1.069059 -0.770426,-1.908274 -1.57853,-2.703953 -0.767976,-0.756173 -1.542534,-1.198897 -2.593229,-1.483624 -0.436907,-0.118397 -0.546508,-0.128813 -1.414697,-0.128813 z" />
  </g>
</svg>
