<?xml version="1.0" encoding="UTF-8" standalone="no"?>
<svg
   width="64"
   height="64"
   version="1.1"
   id="svg73"
   sodipodi:docname="partitionmanager.svg"
   inkscape:version="1.4.2 (ebf0e940d0, 2025-05-08)"
   xmlns:inkscape="http://www.inkscape.org/namespaces/inkscape"
   xmlns:sodipodi="http://sodipodi.sourceforge.net/DTD/sodipodi-0.dtd"
   xmlns="http://www.w3.org/2000/svg"
   xmlns:svg="http://www.w3.org/2000/svg"
   xmlns:rdf="http://www.w3.org/1999/02/22-rdf-syntax-ns#"
   xmlns:cc="http://creativecommons.org/ns#"
   xmlns:dc="http://purl.org/dc/elements/1.1/">
  <metadata
     id="metadata77">
    <rdf:RDF>
      <cc:Work
         rdf:about="">
        <dc:format>image/svg+xml</dc:format>
        <dc:type
           rdf:resource="http://purl.org/dc/dcmitype/StillImage" />
      </cc:Work>
    </rdf:RDF>
  </metadata>
  <sodipodi:namedview
     pagecolor="#f5f7fa"
     bordercolor="#666666"
     borderopacity="1"
     objecttolerance="10"
     gridtolerance="10"
     guidetolerance="10"
     inkscape:pageopacity="0"
     inkscape:pageshadow="2"
     inkscape:window-width="1377"
     inkscape:window-height="886"
     id="namedview75"
     showgrid="false"
     inkscape:zoom="6.2890624"
     inkscape:cx="28.700622"
     inkscape:cy="17.570187"
     inkscape:window-x="264"
     inkscape:window-y="102"
     inkscape:window-maximized="0"
     inkscape:current-layer="g877"
     inkscape:document-rotation="0"
     inkscape:pagecheckerboard="0"
     inkscape:showpageshadow="2"
     inkscape:deskcolor="#d1d1d1" />
  <defs
     id="defs29" />
  <circle
     cx="32.516094"
     cy="31.877844"
     r="0"
     fill="url(#b)"
     stroke-width="1.5715"
     id="circle41"
     style="fill:url(#b)" />
  <g
     aria-label="GZ"
     transform="matrix(1.2212657,0,0,0.81882264,0.4960938,-0.1661539)"
     id="text93"
     style="font-weight:bold;font-size:11.5263px;line-height:1.25;font-family:sans-serif;-inkscape-font-specification:'sans-serif Bold';fill:#f2f2f2;stroke-width:0.288159" />
  <g
     id="g877"
     transform="matrix(1.1,0,0,1.1,-3.1845928,-3.2065454)">
    <rect
       x="8.3496294"
       y="8.369586"
       width="47.272728"
       height="47.272728"
       rx="9.8825235"
       ry="9.6485243"
       fill="url(#linearGradient862)"
       stroke-width="3.0541"
       id="rect35-7-3"
       style="fill:#414141;fill-opacity:1;stroke:#dfdfdf;stroke-width:2.04545;stroke-dasharray:none;stroke-opacity:1" />
    <path
       style="color:#000000;clip-rule:nonzero;display:inline;overflow:visible;visibility:visible;isolation:auto;mix-blend-mode:normal;color-interpolation:sRGB;color-interpolation-filters:linearRGB;solid-color:#000000;solid-opacity:1;fill:#dfdfdf;fill-rule:nonzero;stroke:none;stroke-width:0.48139;stroke-linecap:butt;stroke-linejoin:miter;stroke-miterlimit:4;stroke-dasharray:none;stroke-dashoffset:0;stroke-opacity:0.6;marker:none;color-rendering:auto;image-rendering:auto;shape-rendering:auto;text-rendering:auto;enable-background:accumulate;fill-opacity:1"
       d="m 29.856298,16.649151 c -0.383273,0 -0.702666,1.524916 -0.890151,3.704232 a 11.71333,12.06606 0 0 0 -2.830581,1.225459 c -1.635123,-1.411672 -2.912393,-2.26381 -3.184142,-1.983875 l -3.013605,3.104355 c -0.271752,0.279929 0.555476,1.595667 1.925876,3.280029 a 11.71333,12.06606 0 0 0 -1.179237,2.915823 c -2.121532,0.192941 -3.606339,0.521475 -3.606339,0.916954 v 4.387652 c 0,0.394814 1.480336,0.723829 3.595943,0.916958 a 11.71333,12.06606 0 0 0 1.185474,2.922242 c -1.367285,1.681342 -2.193142,2.994001 -1.921717,3.273598 l 3.013605,3.104348 c 0.27116,0.279351 1.543846,-0.569347 3.173746,-1.975296 a 11.71333,12.06606 0 0 0 2.840977,1.206175 c 0.187301,2.185428 0.506238,3.714945 0.890151,3.714945 h 4.25939 c 0.383274,0 0.702669,-1.524917 0.890149,-3.70423 a 11.71333,12.06606 0 0 0 2.830584,-1.225456 c 1.635128,1.411671 2.912392,2.263802 3.184146,1.983862 l 3.013608,-3.104348 c 0.271767,-0.279867 -0.555482,-1.595663 -1.925881,-3.280027 a 11.71333,12.06606 0 0 0 1.179233,-2.915813 c 2.121532,-0.192949 3.606344,-0.521479 3.606344,-0.916959 v -4.387653 c 0,-0.394815 -1.480339,-0.723828 -3.595938,-0.916952 a 11.71333,12.06606 0 0 0 -1.185486,-2.922247 c 1.367287,-1.681351 2.19315,-2.994009 1.921728,-3.273605 l -3.013608,-3.104355 c -0.271189,-0.279328 -1.543849,0.569361 -3.173753,1.975302 a 11.71333,12.06606 0 0 0 -2.840977,-1.206176 c -0.187301,-2.185419 -0.506233,-3.714937 -0.890149,-3.714937 z m 2.129695,9.87223 a 5.3242411,5.4845722 0 0 1 5.324241,5.484574 5.3242411,5.4845722 0 0 1 -5.324241,5.484569 5.3242411,5.4845722 0 0 1 -5.324239,-5.484569 5.3242411,5.4845722 0 0 1 5.324239,-5.484574 z"
       id="path4690"
       inkscape:connector-curvature="0" />
  </g>
</svg>
