<?xml version="1.0" encoding="UTF-8" standalone="no"?>
<svg
   width="64"
   height="64"
   version="1.1"
   id="svg73"
   sodipodi:docname="audacious.svg"
   inkscape:version="1.4.2 (ebf0e940d0, 2025-05-08)"
   xmlns:inkscape="http://www.inkscape.org/namespaces/inkscape"
   xmlns:sodipodi="http://sodipodi.sourceforge.net/DTD/sodipodi-0.dtd"
   xmlns="http://www.w3.org/2000/svg"
   xmlns:svg="http://www.w3.org/2000/svg"
   xmlns:rdf="http://www.w3.org/1999/02/22-rdf-syntax-ns#"
   xmlns:cc="http://creativecommons.org/ns#"
   xmlns:dc="http://purl.org/dc/elements/1.1/">
  <metadata
     id="metadata77">
    <rdf:RDF>
      <cc:Work
         rdf:about="">
        <dc:format>image/svg+xml</dc:format>
        <dc:type
           rdf:resource="http://purl.org/dc/dcmitype/StillImage" />
      </cc:Work>
    </rdf:RDF>
  </metadata>
  <sodipodi:namedview
     pagecolor="#f5f7fa"
     bordercolor="#666666"
     borderopacity="1"
     objecttolerance="10"
     gridtolerance="10"
     guidetolerance="10"
     inkscape:pageopacity="0"
     inkscape:pageshadow="2"
     inkscape:window-width="1377"
     inkscape:window-height="886"
     id="namedview75"
     showgrid="false"
     inkscape:zoom="6.2890624"
     inkscape:cx="47.145342"
     inkscape:cy="43.806212"
     inkscape:window-x="0"
     inkscape:window-y="75"
     inkscape:window-maximized="0"
     inkscape:current-layer="g877"
     inkscape:document-rotation="0"
     inkscape:pagecheckerboard="0"
     inkscape:showpageshadow="2"
     inkscape:deskcolor="#d1d1d1" />
  <defs
     id="defs29" />
  <circle
     cx="32.516094"
     cy="31.877844"
     r="0"
     fill="url(#b)"
     stroke-width="1.5715"
     id="circle41"
     style="fill:url(#b)" />
  <g
     aria-label="GZ"
     transform="matrix(1.2212657,0,0,0.81882264,0.4960938,-0.1661539)"
     id="text93"
     style="font-weight:bold;font-size:11.5263px;line-height:1.25;font-family:sans-serif;-inkscape-font-specification:'sans-serif Bold';fill:#f2f2f2;stroke-width:0.288159" />
  <g
     id="g877"
     transform="matrix(1.1,0,0,1.1,-3.1845928,-3.2065454)">
    <rect
       x="8.3496294"
       y="8.369586"
       width="47.272728"
       height="47.272728"
       rx="9.8825235"
       ry="9.6485243"
       fill="url(#linearGradient862)"
       stroke-width="3.0541"
       id="rect35-7-3"
       style="fill:#414141;fill-opacity:1;stroke:#dfdfdf;stroke-width:2.04545;stroke-dasharray:none;stroke-opacity:1" />
    <path
       fill="#3d3846"
       d="m 43.664506,16.579042 c -2.157471,0 -3.123606,0.837057 -6.024206,5.485929 l -4.091396,6.627884 -1.934477,-6.780901 c -1.191341,-4.265761 -2.827566,-5.332912 -4.75983,-5.332912 -2.156918,0 -4.761491,1.904206 -8.10975,5.78913 -0.37185,0.30603 0.298252,0.991775 0.596501,0.610931 2.008072,-2.13373 3.71789,-3.123239 4.982274,-3.123239 1.041938,0 2.530975,0.531026 3.719549,4.568963 l 2.528762,8.686806 -5.206926,7.922866 c -1.188575,1.751193 -2.305769,2.285049 -3.271901,2.285049 -1.487376,0 -1.636778,-1.523362 -3.348259,-1.523362 -1.189127,0 -2.008624,0.761678 -2.157471,1.828827 -0.296039,2.056654 1.785625,3.807845 3.720103,3.807845 2.232727,0 3.198859,-0.914697 6.025872,-5.5613 l 4.610983,-7.464948 2.381575,8.226631 c 1.115534,3.962563 2.528764,4.799616 4.461576,4.799616 2.156916,0 4.76149,-1.979577 8.107531,-5.789122 0.374082,-0.380847 -0.222471,-0.989508 -0.59428,-0.686308 -2.008069,2.134299 -3.644299,3.123804 -4.908675,3.123804 -1.11554,0 -2.455725,-0.306031 -3.497107,-3.885489 l -2.974761,-10.284988 4.68679,-7.008724 c 1.190786,-1.676382 2.305768,-2.285047 3.271898,-2.285047 1.487379,0 1.636224,1.523364 3.348258,1.523364 1.189128,0 2.008073,-0.761682 2.157471,-1.828831 0.296048,-1.981282 -1.785626,-3.732473 -3.720104,-3.732474 z m 0,0"
       id="path6"
       style="fill:#dfdfdf;stroke-width:1.02846;fill-opacity:1" />
  </g>
</svg>
