<?xml version="1.0" encoding="UTF-8" standalone="no"?>
<svg
   width="64"
   height="64"
   version="1.1"
   id="svg73"
   sodipodi:docname="gnome-window-manager.svg"
   inkscape:version="1.3.2 (091e20ef0f, 2023-11-25)"
   xmlns:inkscape="http://www.inkscape.org/namespaces/inkscape"
   xmlns:sodipodi="http://sodipodi.sourceforge.net/DTD/sodipodi-0.dtd"
   xmlns:xlink="http://www.w3.org/1999/xlink"
   xmlns="http://www.w3.org/2000/svg"
   xmlns:svg="http://www.w3.org/2000/svg"
   xmlns:rdf="http://www.w3.org/1999/02/22-rdf-syntax-ns#"
   xmlns:cc="http://creativecommons.org/ns#"
   xmlns:dc="http://purl.org/dc/elements/1.1/">
  <metadata
     id="metadata77">
    <rdf:RDF>
      <cc:Work
         rdf:about="">
        <dc:format>image/svg+xml</dc:format>
        <dc:type
           rdf:resource="http://purl.org/dc/dcmitype/StillImage" />
      </cc:Work>
    </rdf:RDF>
  </metadata>
  <sodipodi:namedview
     pagecolor="#f5f7fa"
     bordercolor="#666666"
     borderopacity="1"
     objecttolerance="10"
     gridtolerance="10"
     guidetolerance="10"
     inkscape:pageopacity="0"
     inkscape:pageshadow="2"
     inkscape:window-width="1226"
     inkscape:window-height="661"
     id="namedview75"
     showgrid="false"
     inkscape:zoom="6.2890624"
     inkscape:cx="4.2931678"
     inkscape:cy="30.926709"
     inkscape:window-x="35"
     inkscape:window-y="32"
     inkscape:window-maximized="0"
     inkscape:current-layer="g877"
     inkscape:document-rotation="0"
     inkscape:pagecheckerboard="0"
     inkscape:showpageshadow="2"
     inkscape:deskcolor="#d1d1d1" />
  <defs
     id="defs29">
    <linearGradient
       id="b"
       x1="399.57"
       x2="399.57"
       y1="545.8"
       y2="517.8"
       gradientTransform="matrix(2.1429,0,0,2.1429,-825.86391,-1107.6662)"
       gradientUnits="userSpaceOnUse">
      <stop
         stop-color="#3889e9"
         offset="0"
         id="stop2" />
      <stop
         stop-color="#5ea5fb"
         offset="1"
         id="stop4" />
    </linearGradient>
    <linearGradient
       id="d"
       x2="1"
       gradientTransform="matrix(14.905727,-4.7106182,4.7106182,14.905727,322.04962,998.26962)"
       gradientUnits="userSpaceOnUse">
      <stop
         stop-color="#fafafa"
         offset="0"
         id="stop7" />
      <stop
         stop-color="#aaa"
         offset="1"
         id="stop8" />
    </linearGradient>
    <linearGradient
       id="e"
       x2="1"
       gradientTransform="matrix(21.439909,0,0,21.439909,26.63554,1159.7788)"
       gradientUnits="userSpaceOnUse">
      <stop
         stop-color="#f0f0f0"
         offset="0"
         id="stop9" />
      <stop
         stop-color="#b7f1ff"
         offset="1"
         id="stop10" />
    </linearGradient>
    <linearGradient
       id="c"
       x2="1"
       gradientTransform="matrix(12.1408,0,0,12.1408,23.2412,24)"
       gradientUnits="userSpaceOnUse"
       xlink:href="#b-3" />
    <linearGradient
       id="b-3">
      <stop
         stop-color="#2e3e46"
         offset="0"
         id="stop3" />
      <stop
         stop-color="#47606a"
         offset="1"
         id="stop4-6" />
    </linearGradient>
    <linearGradient
       id="d-7"
       x2="1"
       gradientTransform="matrix(12.1408,0,0,12.1408,12.618,24)"
       gradientUnits="userSpaceOnUse"
       xlink:href="#b-3" />
    <linearGradient
       id="e-3"
       x2="1"
       gradientTransform="matrix(22.764,0,0,22.764,12.618,24.7782)"
       gradientUnits="userSpaceOnUse">
      <stop
         stop-color="#ff9300"
         offset="0"
         id="stop5" />
      <stop
         stop-color="#ffd702"
         offset="1"
         id="stop6" />
    </linearGradient>
  </defs>
  <circle
     cx="32.516094"
     cy="31.877844"
     r="0"
     fill="url(#b)"
     stroke-width="1.5715"
     id="circle41"
     style="fill:url(#b)" />
  <g
     aria-label="GZ"
     transform="matrix(1.2212657,0,0,0.81882264,0.4960938,-0.1661539)"
     id="text93"
     style="font-weight:bold;font-size:11.5263px;line-height:1.25;font-family:sans-serif;-inkscape-font-specification:'sans-serif Bold';fill:#f2f2f2;stroke-width:0.288159" />
  <g
     id="g877"
     transform="matrix(1.1,0,0,1.1,-3.1845928,-3.2065454)">
    <rect
       x="6.3010068"
       y="5.4939413"
       width="51.635597"
       height="53.148327"
       rx="10.980581"
       ry="10.720582"
       fill="url(#linearGradient862)"
       stroke-width="3.0541"
       id="rect35-7-3"
       style="fill:#414141;fill-opacity:1;stroke:#dfdfdf;stroke-width:2.27272727;stroke-dasharray:none;stroke-opacity:1" />
    <path
       d="m 49.261095,44.529451 -10.15795,-18.79372 v -11.19613 c 0,-1.05391 -0.882089,-1.893651 -1.934789,-1.893651 h -10.36849 c -1.053911,0 -1.920271,0.839741 -1.920271,1.893651 v 11.19613 l -10.16763,18.79372 c -0.7744,1.43264 -0.73568,3.17262 0.09801,4.572591 0.833689,1.399969 2.34619,2.26391 3.974849,2.26391 h 26.397361 c 1.62866,0 3.14479,-0.863941 3.97848,-2.26391 0.833689,-1.399971 0.876039,-3.139951 0.100419,-4.572591 z m -15.59811,-7.86258 c 0.909921,0 1.64802,0.736891 1.64802,1.64681 0,0.90992 -0.739309,1.64802 -1.64802,1.64802 -0.909919,0 -1.64802,-0.7381 -1.64802,-1.64802 0,-0.9075 0.738101,-1.64681 1.64802,-1.64681 z m -4.63309,-9.90627 c 0.911131,0 1.64802,0.7381 1.64802,1.64802 0,0.90871 -0.736889,1.64681 -1.64802,1.64681 -0.909919,0 -1.64681,-0.7381 -1.64681,-1.64681 0,-0.90992 0.736891,-1.64802 1.64681,-1.64802 z m 0,5.75113 c 1.47499,0 2.670471,1.19669 2.670471,2.67047 0,1.47378 -1.195481,2.66926 -2.670471,2.66926 -1.47499,0 -2.670469,-1.19548 -2.670469,-2.66926 0,-1.47499 1.195479,-2.67047 2.670469,-2.67047 z m 15.33675,13.6972 c -0.342429,0.58322 -0.969209,0.92807 -1.644389,0.92807 H 21.244755 c -0.675179,0 -1.30196,-0.34485 -1.644389,-0.92807 -0.342431,-0.58443 -0.352111,-1.29591 -0.02299,-1.88881 l 2.58093,-4.64035 c 0.36784,-0.66308 1.09505,-1.04302 1.85009,-0.971629 3.427929,0.326699 7.28057,3.25974 10.72423,3.129059 1.84404,-0.07018 3.55619,-0.74294 5.187269,-1.64076 0.920811,-0.50941 2.078781,-0.17545 2.589401,0.74415 l 1.881549,3.37832 c 0.326701,0.5929 0.318231,1.3068 -0.0242,1.89002 z"
       fill="#ffffff"
       fill-opacity="0.85"
       fill-rule="nonzero"
       id="path3"
       style="stroke-width:1.21;fill:#dfdfdf;fill-opacity:1" />
  </g>
</svg>
