<?xml version="1.0" encoding="UTF-8" standalone="no"?>
<svg
   width="64"
   height="64"
   version="1.1"
   id="svg73"
   sodipodi:docname="preferences-gtk-config.svg"
   inkscape:version="1.3.2 (091e20ef0f, 2023-11-25)"
   xmlns:inkscape="http://www.inkscape.org/namespaces/inkscape"
   xmlns:sodipodi="http://sodipodi.sourceforge.net/DTD/sodipodi-0.dtd"
   xmlns="http://www.w3.org/2000/svg"
   xmlns:svg="http://www.w3.org/2000/svg"
   xmlns:rdf="http://www.w3.org/1999/02/22-rdf-syntax-ns#"
   xmlns:cc="http://creativecommons.org/ns#"
   xmlns:dc="http://purl.org/dc/elements/1.1/">
  <metadata
     id="metadata77">
    <rdf:RDF>
      <cc:Work
         rdf:about="">
        <dc:format>image/svg+xml</dc:format>
        <dc:type
           rdf:resource="http://purl.org/dc/dcmitype/StillImage" />
      </cc:Work>
    </rdf:RDF>
  </metadata>
  <sodipodi:namedview
     pagecolor="#f5f7fa"
     bordercolor="#666666"
     borderopacity="1"
     objecttolerance="10"
     gridtolerance="10"
     guidetolerance="10"
     inkscape:pageopacity="0"
     inkscape:pageshadow="2"
     inkscape:window-width="1377"
     inkscape:window-height="886"
     id="namedview75"
     showgrid="false"
     inkscape:zoom="6.2890624"
     inkscape:cx="47.701864"
     inkscape:cy="45.396274"
     inkscape:window-x="74"
     inkscape:window-y="53"
     inkscape:window-maximized="0"
     inkscape:current-layer="g877"
     inkscape:document-rotation="0"
     inkscape:pagecheckerboard="0"
     inkscape:showpageshadow="2"
     inkscape:deskcolor="#d1d1d1" />
  <defs
     id="defs29">
    <linearGradient
       id="b"
       x1="399.57"
       x2="399.57"
       y1="545.8"
       y2="517.8"
       gradientTransform="matrix(2.1429,0,0,2.1429,-825.86391,-1107.6662)"
       gradientUnits="userSpaceOnUse">
      <stop
         stop-color="#3889e9"
         offset="0"
         id="stop2" />
      <stop
         stop-color="#5ea5fb"
         offset="1"
         id="stop4" />
    </linearGradient>
  </defs>
  <circle
     cx="32.516094"
     cy="31.877844"
     r="0"
     fill="url(#b)"
     stroke-width="1.5715"
     id="circle41"
     style="fill:url(#b)" />
  <g
     aria-label="GZ"
     transform="matrix(1.2212657,0,0,0.81882264,0.4960938,-0.1661539)"
     id="text93"
     style="font-weight:bold;font-size:11.5263px;line-height:1.25;font-family:sans-serif;-inkscape-font-specification:'sans-serif Bold';fill:#f2f2f2;stroke-width:0.288159" />
  <g
     id="g877"
     transform="matrix(1.1,0,0,1.1,-3.1845928,-3.2065454)">
    <rect
       x="6.3010068"
       y="5.4939413"
       width="51.635597"
       height="53.148327"
       rx="10.980581"
       ry="10.720582"
       fill="url(#linearGradient862)"
       stroke-width="3.0541"
       id="rect35-7-3"
       style="fill:#414141;fill-opacity:1;stroke:#dfdfdf;stroke-width:2.27272727;stroke-dasharray:none;stroke-opacity:1" />
    <path
       d="m 18.172265,12.974115 1.746672,4.102408 4.272244,4.878381 c -1.385039,0.218151 -2.617811,0.590034 -3.778843,1.035119 -0.655916,0.316247 -1.282551,0.655917 -1.632471,1.348436 l -1.0644,1.885761 c -0.3426,0.692519 -1.068793,0.806719 -1.781811,1.368934 l -2.915023,2.276675 c 0.579783,0.281108 1.101004,0.650062 1.579764,1.087826 -0.515364,-0.284035 -1.016086,-0.58271 -1.616366,-0.740834 -0.418732,-0.06589 -0.83161,-0.06149 -1.212275,0.24304 -0.342599,0.284037 -0.304532,0.765726 -0.234256,1.215203 0.131769,0.693985 0.713017,1.311835 1.373326,1.777419 0.614922,0.275251 1.181529,0.134697 1.72471,-0.185942 0.47144,-0.437766 0.664701,-1.204954 0.606137,-2.254714 0.339671,-0.06442 0.265003,1.96043 0.32503,1.729103 0.03221,-0.122984 4.998438,-3.045328 6.313199,-3.354254 1.341116,-0.345526 3.433315,-0.01757 4.947195,-0.489009 0.939952,-0.301605 1.628079,-0.576856 2.210791,-1.472884 l -0.468512,0.995587 c -0.351384,0.566608 -0.900422,0.982411 -1.541698,1.166889 l -0.841857,8.970541 -0.01757,8.674792 -1.467028,2.187364 0.998516,-0.03513 1.064401,-1.406999 -0.783294,1.683714 c 0,0 5.119958,-0.342599 5.119958,-0.305997 0,0.03661 -1.579764,-10.374612 -1.579764,-10.374612 0,0 1.711533,-1.912115 1.74667,-1.938468 0.0366,-0.02928 6.257565,2.098055 6.257565,2.098055 l -0.957522,-1.128821 -0.787686,-0.434838 0.954594,0.314781 c 0,0 2.219575,2.688088 2.22836,2.726156 0.01023,0.03661 0.396771,-0.483153 0.396771,-0.483153 l -2.323527,9.427338 3.086323,1.052689 -0.09663,-1.440675 0.737906,1.787666 1.134678,0.07613 -0.767188,-1.863799 1.335259,1.623687 0.734977,-0.146411 -1.322082,-1.90333 1.543162,-9.1843 -1.778881,-1.404072 -1.377719,-1.846231 1.304514,1.32794 -1.414322,-2.013138 -0.111272,-2.661733 0.494867,2.291316 0.53586,-1.882832 -0.278178,2.199078 1.027798,2.254714 2.055596,1.531448 -0.03807,0.351383 1.617832,-0.592959 1.045367,-2.361593 0.0893,-1.462636 0.15081,1.483133 c 0,0 -0.898957,2.177116 -0.898957,2.251786 0,0.07322 1.174208,-1.109788 1.174208,-1.109788 l -1.288408,1.515343 2.05852,3.712958 0.696916,4.048237 0.512435,-0.367491 -0.109802,0.146411 -1.651504,2.158084 1.083429,-0.23572 0.420201,-0.666166 -0.184476,0.811112 0.386522,0.02049 -0.08931,0.88578 0.806719,-0.721801 0.601741,0.187405 0.187409,-1.076114 v 1.093683 l 0.566602,-0.112736 0.273787,0.923847 0.404092,-1.163959 0.78915,-0.03661 c -0.752548,-5.714383 -1.7496,-10.698179 -2.016066,-16.412561 -0.02928,-1.087827 -0.942881,-3.013118 -1.92822,-4.27078 -1.149314,-1.325012 -3.496271,-4.155116 -6.827098,-4.950122 -1.816948,-0.216687 -3.669035,0.07759 -5.6851,0.736442 -1.784738,0.522683 -3.626576,0.426052 -5.627996,1.386503 0.471435,0.773045 1.095146,1.531449 2.159543,2.430406 0.333814,0.32503 0.934095,0.41434 1.524128,0.368953 -0.408484,0.144946 -0.828681,0.266465 -1.267906,0.0366 -0.717414,-0.486081 -1.307446,-1.093683 -1.871125,-1.734958 -0.344063,-0.426053 -0.632491,-0.891637 -0.862355,-1.387967 -0.341135,-0.773045 0.06003,-1.753992 0.715945,-2.808144 0.595889,-0.73205 1.251806,-1.446531 2.585601,-1.958966 1.200562,-0.47876 2.405516,-0.957521 3.544586,-1.588547 1.288408,-0.836002 3.344009,-3.4992 4.437692,-5.360071 -2.979444,1.092219 -5.955964,1.96775 -8.917838,3.711493 -1.108324,0.761332 -2.194681,1.939934 -3.301545,3.159528 -0.471436,0.534398 -0.982412,1.03512 -1.652969,1.389432 -0.920919,0.493401 -1.55487,0.02489 -1.980928,-0.351385 C 24.85295,20.723583 24.270239,19.944682 23.77098,19.111609 23.1136,18.212666 22.426941,17.312244 21.4211,16.413286 20.264461,15.338636 19.222026,14.100008 18.172262,12.974115 Z m 18.845896,2.947233 -2.625131,3.185882 1.781809,-0.617849 -3.584116,1.75692 z m -12.447778,6.651407 c 0.229863,-0.0058 0.461191,0 0.685199,0.02343 -1.450924,0.112735 -2.114161,0.361632 -3.373287,1.008763 0.461191,-0.352848 0.721801,-0.61492 1.55341,-0.898956 0.363097,-0.08052 0.749619,-0.125912 1.134678,-0.133233 z m 0.402627,2.001425 c 0.717409,0.01174 1.203489,0.327958 1.203489,0.327958 -1.590011,-0.427517 -2.462616,-0.07319 -3.141957,0.96777 -0.08053,-0.06589 0.450943,-0.969233 1.156639,-1.184457 0.281107,-0.08492 0.543181,-0.115664 0.781829,-0.111271 z m -0.12152,0.534397 c 0.150807,-0.0058 0.301606,0.0058 0.449479,0.0366 0.297212,0.103939 0.43191,0.326493 0.578319,0.534395 -0.308924,-0.272322 -0.626635,-0.48608 -1.013157,-0.386522 0.437766,0.04978 0.600281,0.323566 0.663237,0.683736 0.05417,0.483153 -0.361631,0.767187 -0.638346,0.808183 -0.27818,0.04246 -0.632493,-0.02928 -0.836001,-0.32796 -0.05856,-0.12152 -0.21376,-0.56807 0.03367,-0.88578 -0.270859,0.109802 -0.519757,0.267931 -0.733516,0.465584 0.187406,-0.272323 0.415805,-0.486081 0.759868,-0.71448 0.225472,-0.130305 0.477297,-0.203511 0.736443,-0.215223 z m -11.725977,5.87104 c 0.371881,0.439231 0.733515,0.862356 0.910671,1.445067 0.02488,0.540254 -0.213759,0.528541 -0.44655,0.525613 -0.194725,-0.0029 -0.563679,-0.224008 -0.445088,-0.404092 0.115664,-0.232793 0.16398,-0.493403 0.140554,-0.752547 z M 11.7639,31.11285 c 0.292821,0.305997 0.57832,0.51097 0.632492,0.938488 0.02196,0.102487 0.041,0.354312 -0.161051,0.316245 -0.587105,-0.556357 -0.232793,-0.496329 -0.468512,-1.254733 z"
       fill="#ffffff"
       fill-rule="nonzero"
       id="path2"
       style="stroke-width:1.4641;fill:#dfdfdf;fill-opacity:1" />
    <rect
       x="34.795551"
       y="33.974232"
       width="24.697144"
       height="25.420679"
       rx="5.2519779"
       ry="5.1276212"
       fill="url(#linearGradient862)"
       stroke-width="3.0541"
       id="rect35-7-3-9"
       style="fill:#414141;fill-opacity:1;stroke:#dfdfdf;stroke-width:2.27273;stroke-dasharray:none;stroke-opacity:1" />
    <path
       style="fill:#dfdfdf;fill-opacity:1;stroke:none;stroke-width:0.9801;stroke-dasharray:none;stroke-opacity:0.3"
       d="m 44.965375,55.264495 c -6.16e-4,-0.265003 -0.03659,-0.778125 -0.0799,-1.140253 -0.07163,-0.598431 -0.120613,-0.678451 -0.538259,-0.87843 -0.252739,-0.121028 -0.674215,-0.39077 -0.936682,-0.599578 l -0.477217,-0.379546 -0.899539,0.454909 c -0.494754,0.250202 -0.944174,0.454862 -0.998704,0.454772 -0.0545,-7.2e-5 -0.352396,-0.477095 -0.661839,-1.060064 -0.309489,-0.582959 -0.756863,-1.414497 -0.994224,-1.847857 l -0.431537,-0.787933 0.859039,-0.642638 0.859045,-0.642638 0.0075,-1.25785 0.0075,-1.257854 -0.858894,-0.645449 -0.858906,-0.645449 0.780728,-1.484587 c 0.429388,-0.816528 0.88793,-1.664957 1.018943,-1.885401 l 0.238228,-0.400789 0.952914,0.501423 0.952909,0.501428 0.559404,-0.428795 c 0.307702,-0.235858 0.734945,-0.501809 0.949491,-0.591057 0.34487,-0.143476 0.399334,-0.239391 0.469772,-0.828243 0.0439,-0.366282 0.0802,-0.911729 0.08083,-1.212078 l 0.0012,-0.546093 h 2.047276 2.047266 v 0.430852 c 0,0.236939 0.03659,0.782516 0.08132,1.212304 0.0733,0.704366 0.117321,0.796402 0.446173,0.933195 0.200644,0.08349 0.633564,0.34358 0.961976,0.578091 l 0.597119,0.426325 0.972208,-0.490872 0.9722,-0.490866 0.984565,1.889138 0.984556,1.889142 -0.856832,0.643858 -0.856845,0.643859 0.01247,1.261552 0.01247,1.261553 0.848335,0.634624 0.848325,0.634622 -0.861081,1.627481 c -0.473592,0.895116 -0.92882,1.743125 -1.011613,1.88447 -0.146845,0.250659 -0.174286,0.245213 -1.119133,-0.223927 l -0.968674,-0.480876 -0.5526,0.423581 c -0.303958,0.232948 -0.731797,0.498118 -0.950824,0.589227 -0.392351,0.163184 -0.399542,0.182557 -0.487381,1.310088 l -0.08918,1.144449 h -2.031155 -2.03077 l -0.0012,-0.481842 z m 3.521555,-5.358756 c 1.060606,-0.624164 1.598437,-1.631141 1.596488,-2.989109 -0.0035,-2.507135 -2.275742,-4.083832 -4.357368,-3.023695 -1.24282,0.632947 -1.856321,1.790488 -1.759363,3.319517 0.154287,2.433393 2.543213,3.856771 4.520243,2.693287 z"
       id="path792" />
  </g>
</svg>
