<?xml version="1.0" encoding="UTF-8" standalone="no"?>
<svg
   width="64"
   height="64"
   version="1.1"
   id="svg73"
   sodipodi:docname="accessories-character-map.svg"
   inkscape:version="1.3.2 (091e20ef0f, 2023-11-25)"
   xmlns:inkscape="http://www.inkscape.org/namespaces/inkscape"
   xmlns:sodipodi="http://sodipodi.sourceforge.net/DTD/sodipodi-0.dtd"
   xmlns="http://www.w3.org/2000/svg"
   xmlns:svg="http://www.w3.org/2000/svg"
   xmlns:rdf="http://www.w3.org/1999/02/22-rdf-syntax-ns#"
   xmlns:cc="http://creativecommons.org/ns#"
   xmlns:dc="http://purl.org/dc/elements/1.1/">
  <metadata
     id="metadata77">
    <rdf:RDF>
      <cc:Work
         rdf:about="">
        <dc:format>image/svg+xml</dc:format>
        <dc:type
           rdf:resource="http://purl.org/dc/dcmitype/StillImage" />
      </cc:Work>
    </rdf:RDF>
  </metadata>
  <sodipodi:namedview
     pagecolor="#f5f7fa"
     bordercolor="#666666"
     borderopacity="1"
     objecttolerance="10"
     gridtolerance="10"
     guidetolerance="10"
     inkscape:pageopacity="0"
     inkscape:pageshadow="2"
     inkscape:window-width="1377"
     inkscape:window-height="886"
     id="namedview75"
     showgrid="false"
     inkscape:zoom="4.4470387"
     inkscape:cx="47.784608"
     inkscape:cy="14.054296"
     inkscape:window-x="181"
     inkscape:window-y="77"
     inkscape:window-maximized="0"
     inkscape:current-layer="g877"
     inkscape:document-rotation="0"
     inkscape:pagecheckerboard="0"
     inkscape:showpageshadow="2"
     inkscape:deskcolor="#d1d1d1" />
  <defs
     id="defs29">
    <linearGradient
       id="b"
       x1="399.57"
       x2="399.57"
       y1="545.8"
       y2="517.8"
       gradientTransform="matrix(2.1429,0,0,2.1429,-825.86391,-1107.6662)"
       gradientUnits="userSpaceOnUse">
      <stop
         stop-color="#3889e9"
         offset="0"
         id="stop2" />
      <stop
         stop-color="#5ea5fb"
         offset="1"
         id="stop4" />
    </linearGradient>
    <linearGradient
       id="d"
       x2="1"
       gradientTransform="matrix(14.905727,-4.7106182,4.7106182,14.905727,322.04962,998.26962)"
       gradientUnits="userSpaceOnUse">
      <stop
         stop-color="#fafafa"
         offset="0"
         id="stop7" />
      <stop
         stop-color="#aaa"
         offset="1"
         id="stop8" />
    </linearGradient>
    <linearGradient
       id="e"
       x2="1"
       gradientTransform="matrix(21.439909,0,0,21.439909,26.63554,1159.7788)"
       gradientUnits="userSpaceOnUse">
      <stop
         stop-color="#f0f0f0"
         offset="0"
         id="stop9" />
      <stop
         stop-color="#b7f1ff"
         offset="1"
         id="stop10" />
    </linearGradient>
  </defs>
  <circle
     cx="32.516094"
     cy="31.877844"
     r="0"
     fill="url(#b)"
     stroke-width="1.5715"
     id="circle41"
     style="fill:url(#b)" />
  <g
     aria-label="GZ"
     transform="matrix(1.2212657,0,0,0.81882264,0.4960938,-0.1661539)"
     id="text93"
     style="font-weight:bold;font-size:11.5263px;line-height:1.25;font-family:sans-serif;-inkscape-font-specification:'sans-serif Bold';fill:#f2f2f2;stroke-width:0.288159" />
  <g
     id="g877"
     transform="matrix(1.1,0,0,1.1,-3.1845928,-3.2065454)">
    <rect
       x="6.3010068"
       y="5.4939413"
       width="51.635597"
       height="53.148327"
       rx="10.980581"
       ry="10.720582"
       fill="url(#linearGradient862)"
       stroke-width="3.0541"
       id="rect35-7-3"
       style="fill:#414141;fill-opacity:1;stroke:#dfdfdf;stroke-width:2.27272727;stroke-dasharray:none;stroke-opacity:1" />
    <path
       id="path19"
       style="fill:#dfdfdf;fill-opacity:1;stroke:none;stroke-width:1.331;stroke-dasharray:none;stroke-dashoffset:2.2;stroke-opacity:0.3"
       d="m 27.0258,16.052162 c -1.031932,0.01265 -2.077182,0.244486 -3.075336,0.722693 -4.740697,2.271199 -5.795838,8.366254 -2.079689,12.020592 1.12241,1.103741 2.294357,1.750083 3.738238,2.064089 1.185397,0.257794 1.6528,0.269626 2.781582,0.06499 2.747374,-0.498064 5.156632,-2.65863 5.940107,-5.329198 0.369493,-1.259433 0.316694,-3.222464 -0.119572,-4.458332 -1.12452,-3.185515 -4.089531,-5.122617 -7.185319,-5.084834 z m 12.641902,4.92106 c -0.566325,0.0086 -1.136771,0.09265 -1.700144,0.259959 l -0.790281,0.233966 0.09358,1.338799 c 0.175299,2.469676 -0.746165,5.403586 -2.225271,7.083935 -0.34372,0.390492 -0.626504,0.770817 -0.626504,0.844875 0,0.176881 1.492634,1.608013 2.009497,1.926309 0.221955,0.136688 0.807051,0.389831 1.299806,0.564116 1.38381,0.489443 3.307092,0.381178 4.681897,-0.262559 1.371873,-0.642365 2.582224,-1.804293 3.210516,-3.080537 0.462467,-0.939373 0.493909,-1.107553 0.493909,-2.615208 0,-1.503986 -0.03269,-1.677885 -0.488727,-2.602207 -1.150921,-2.333944 -3.50421,-3.728797 -5.958286,-3.691448 z m -1.019047,15.314299 0.748688,0.493925 c 1.729128,1.145327 3.289082,2.913741 4.247762,4.809276 0.517504,1.023223 1.169824,3.275985 1.169824,4.039792 v 0.592712 h 3.761633 3.761634 l -0.05195,-1.804127 C 52.234273,42.69354 52.204787,42.563563 51.657107,41.455542 50.02762,38.158947 45.866093,36.287521 40.169435,36.287521 Z m -11.282306,0.02858 c -0.367343,3.53e-4 -0.742054,0.0069 -1.125631,0.01821 -3.208943,0.09423 -4.750903,0.351686 -6.946156,1.159425 -4.773064,1.756257 -7.341439,5.329689 -7.346496,10.22167 v 1.107434 h 15.134926 15.134925 v -1.57277 c 0,-2.943761 -0.833209,-4.958246 -2.888164,-6.992947 -2.741652,-2.714622 -6.453286,-3.946274 -11.963404,-3.941001 z" />
  </g>
</svg>
