<?xml version="1.0" encoding="UTF-8" standalone="no"?>
<svg
   width="64"
   height="64"
   version="1.1"
   id="svg73"
   sodipodi:docname="accessories-archiver.svg"
   inkscape:version="1.2.2 (b0a8486541, 2022-12-01)"
   xmlns:inkscape="http://www.inkscape.org/namespaces/inkscape"
   xmlns:sodipodi="http://sodipodi.sourceforge.net/DTD/sodipodi-0.dtd"
   xmlns="http://www.w3.org/2000/svg"
   xmlns:svg="http://www.w3.org/2000/svg"
   xmlns:rdf="http://www.w3.org/1999/02/22-rdf-syntax-ns#"
   xmlns:cc="http://creativecommons.org/ns#"
   xmlns:dc="http://purl.org/dc/elements/1.1/">
  <metadata
     id="metadata77">
    <rdf:RDF>
      <cc:Work
         rdf:about="">
        <dc:format>image/svg+xml</dc:format>
        <dc:type
           rdf:resource="http://purl.org/dc/dcmitype/StillImage" />
      </cc:Work>
    </rdf:RDF>
  </metadata>
  <sodipodi:namedview
     pagecolor="#f5f7fa"
     bordercolor="#666666"
     borderopacity="1"
     objecttolerance="10"
     gridtolerance="10"
     guidetolerance="10"
     inkscape:pageopacity="0"
     inkscape:pageshadow="2"
     inkscape:window-width="1280"
     inkscape:window-height="603"
     id="namedview75"
     showgrid="false"
     inkscape:zoom="4.4470387"
     inkscape:cx="45.198617"
     inkscape:cy="14.166731"
     inkscape:window-x="35"
     inkscape:window-y="32"
     inkscape:window-maximized="0"
     inkscape:current-layer="g877"
     inkscape:document-rotation="0"
     inkscape:pagecheckerboard="0"
     inkscape:showpageshadow="2"
     inkscape:deskcolor="#d1d1d1" />
  <defs
     id="defs29">
    <linearGradient
       id="b"
       x1="399.57"
       x2="399.57"
       y1="545.8"
       y2="517.8"
       gradientTransform="matrix(2.1429,0,0,2.1429,-825.86391,-1107.6662)"
       gradientUnits="userSpaceOnUse">
      <stop
         stop-color="#3889e9"
         offset="0"
         id="stop2" />
      <stop
         stop-color="#5ea5fb"
         offset="1"
         id="stop4" />
    </linearGradient>
  </defs>
  <circle
     cx="32.516094"
     cy="31.877844"
     r="0"
     fill="url(#b)"
     stroke-width="1.5715"
     id="circle41"
     style="fill:url(#b)" />
  <g
     aria-label="GZ"
     transform="matrix(1.2212657,0,0,0.81882264,0.4960938,-0.1661539)"
     id="text93"
     style="font-weight:bold;font-size:11.5263px;line-height:1.25;font-family:sans-serif;-inkscape-font-specification:'sans-serif Bold';fill:#f2f2f2;stroke-width:0.288159" />
  <g
     id="g877"
     transform="matrix(1.1,0,0,1.1,-3.1845928,-3.2065454)">
    <rect
       x="6.3010068"
       y="5.4939413"
       width="51.635597"
       height="53.148327"
       rx="10.980581"
       ry="10.720582"
       fill="url(#linearGradient862)"
       stroke-width="3.0541"
       id="rect35-7-3"
       style="fill:#414141;fill-opacity:1;stroke:#dfdfdf;stroke-width:2.27272727;stroke-dasharray:none;stroke-opacity:1" />
    <g
       id="f"
       transform="matrix(0.73636364,0,0,0.73636364,3.0900541,2.8081646)"
       style="fill:#dfdfdf;fill-opacity:1">
      <path
         class="i"
         d="m 63.4352,57.677 c -0.0536,3.2125 -2.7416,5.7589 -5.9546,5.7589 H 35.4044 c -1.1221,0 -1.8295,-1.2103 -1.2751,-2.1859 1.4628,-2.5738 4.3202,-6.7829 8.5529,-9.1539 0.4406,-0.2468 0.9366,-0.3783 1.4416,-0.3783 H 57.577 c 3.2692,0 5.9129,2.6774 5.8582,5.9591 z"
         id="path312"
         style="fill:#dfdfdf;stroke-width:0px;fill-opacity:1" />
      <path
         class="i"
         d="m 45.8707,18.7498 c -1.4628,2.5738 -4.3202,6.7829 -8.5529,9.1539 -0.4406,0.2468 -0.9366,0.3783 -1.4416,0.3783 H 22.5195 c -3.213,0 -5.901,-2.5464 -5.9546,-5.7589 -0.0547,-3.2817 2.589,-5.9591 5.8582,-5.9591 h 22.1726 c 1.1221,0 1.8295,1.2103 1.2751,2.1859 z"
         id="path314"
         style="fill:#dfdfdf;stroke-width:0px;fill-opacity:1" />
      <path
         class="i"
         d="m 22.4207,63.4375 c -0.7473,0 -1.5065,-0.1438 -2.2398,-0.4475 -2.9896,-1.2383 -4.4093,-4.6657 -3.171,-7.6551 1.9045,-4.5977 4.6342,-8.7196 8.1136,-12.2511 3.6044,-3.6585 7.8551,-6.5172 12.6343,-8.4968 6.5691,-2.7211 11.6853,-7.8373 14.4061,-14.4061 1.2383,-2.9896 4.6658,-4.409 7.6551,-3.171 2.9896,1.2383 4.4093,4.6657 3.171,7.6551 -1.9045,4.5977 -4.6342,8.7196 -8.1136,12.2511 -3.6044,3.6585 -7.8551,6.5172 -12.6343,8.4968 -6.5691,2.7211 -11.6853,7.8373 -14.4061,14.4061 -0.9345,2.2562 -3.1164,3.6185 -5.4153,3.6185 z"
         id="path316"
         style="fill:#dfdfdf;stroke-width:0px;fill-opacity:1" />
    </g>
  </g>
</svg>
