<?xml version="1.0" encoding="UTF-8" standalone="no"?>
<svg
   width="64"
   height="64"
   version="1.1"
   id="svg73"
   sodipodi:docname="applications-office.svg"
   inkscape:version="1.4.2 (ebf0e940d0, 2025-05-08)"
   xmlns:inkscape="http://www.inkscape.org/namespaces/inkscape"
   xmlns:sodipodi="http://sodipodi.sourceforge.net/DTD/sodipodi-0.dtd"
   xmlns="http://www.w3.org/2000/svg"
   xmlns:svg="http://www.w3.org/2000/svg"
   xmlns:rdf="http://www.w3.org/1999/02/22-rdf-syntax-ns#"
   xmlns:cc="http://creativecommons.org/ns#"
   xmlns:dc="http://purl.org/dc/elements/1.1/">
  <metadata
     id="metadata77">
    <rdf:RDF>
      <cc:Work
         rdf:about="">
        <dc:format>image/svg+xml</dc:format>
        <dc:type
           rdf:resource="http://purl.org/dc/dcmitype/StillImage" />
      </cc:Work>
    </rdf:RDF>
  </metadata>
  <sodipodi:namedview
     pagecolor="#f5f7fa"
     bordercolor="#666666"
     borderopacity="1"
     objecttolerance="10"
     gridtolerance="10"
     guidetolerance="10"
     inkscape:pageopacity="0"
     inkscape:pageshadow="2"
     inkscape:window-width="1377"
     inkscape:window-height="886"
     id="namedview75"
     showgrid="false"
     inkscape:zoom="6.2890624"
     inkscape:cx="46.350311"
     inkscape:cy="44.124224"
     inkscape:window-x="264"
     inkscape:window-y="75"
     inkscape:window-maximized="0"
     inkscape:current-layer="g877"
     inkscape:document-rotation="0"
     inkscape:pagecheckerboard="0"
     inkscape:showpageshadow="2"
     inkscape:deskcolor="#d1d1d1" />
  <defs
     id="defs29" />
  <circle
     cx="32.516094"
     cy="31.877844"
     r="0"
     fill="url(#b)"
     stroke-width="1.5715"
     id="circle41"
     style="fill:url(#b)" />
  <g
     aria-label="GZ"
     transform="matrix(1.2212657,0,0,0.81882264,0.4960938,-0.1661539)"
     id="text93"
     style="font-weight:bold;font-size:11.5263px;line-height:1.25;font-family:sans-serif;-inkscape-font-specification:'sans-serif Bold';fill:#f2f2f2;stroke-width:0.288159" />
  <g
     id="g877"
     transform="matrix(1.1,0,0,1.1,-3.1845928,-3.2065454)">
    <path
       id="path102"
       style="fill:#dfdfdf;fill-opacity:1;stroke:none;stroke-width:1.83143;stroke-dasharray:none;stroke-dashoffset:2.2;stroke-opacity:0.3"
       d="m 23.868663,3.8172124 c -13.306604,0 -12.849031,-0.043443 -13.624764,1.2698339 C 9.9304067,5.6178201 9.90049,7.9947211 9.90049,31.889426 c 0,28.953569 -0.092994,27.029694 1.323488,27.893354 0.655447,0.39963 1.209762,0.410584 20.721515,0.411359 21.843005,8.73e-4 20.713364,0.06215 21.690877,-1.180394 0.437851,-0.556638 0.436379,-0.6212 0.436379,-18.83285 V 21.909647 h -7.940933 c -8.90343,-3.68e-4 -9.055838,-0.02513 -9.779492,-1.47372 -0.330666,-0.661869 -0.368116,-1.539028 -0.368462,-8.677775 V 3.8172124 Z M 38.509288,4.139144 v 6.792708 c 0,7.414442 0.03806,7.699204 1.209026,8.334383 0.474095,0.257221 1.76044,0.314964 7.279173,0.321936 l 6.703287,0.0075 -3.584147,-3.734378 c -1.97255,-2.05369 -5.391501,-5.532878 -7.597535,-7.7299616 z M 19.787312,30.955836 h 12.197542 12.201121 v 1.577454 1.57745 H 31.984854 19.787312 v -1.57745 z m 0,5.887722 h 12.197542 12.201121 v 1.684766 1.68118 H 31.984854 19.787312 v -1.681183 z m 0,6.102345 h 12.197542 12.201121 v 1.681191 1.684763 H 31.984854 19.787312 v -1.684763 z m 0,6.098769 h 7.676225 7.679804 v 1.684764 1.681177 h -7.679804 -7.676225 v -1.681177 z" />
  </g>
</svg>
