<?xml version="1.0" encoding="UTF-8" standalone="no"?>
<svg
   width="64"
   height="64"
   version="1.1"
   id="svg73"
   sodipodi:docname="applications-internet.svg"
   inkscape:version="1.4.2 (ebf0e940d0, 2025-05-08)"
   xmlns:inkscape="http://www.inkscape.org/namespaces/inkscape"
   xmlns:sodipodi="http://sodipodi.sourceforge.net/DTD/sodipodi-0.dtd"
   xmlns="http://www.w3.org/2000/svg"
   xmlns:svg="http://www.w3.org/2000/svg"
   xmlns:rdf="http://www.w3.org/1999/02/22-rdf-syntax-ns#"
   xmlns:cc="http://creativecommons.org/ns#"
   xmlns:dc="http://purl.org/dc/elements/1.1/">
  <metadata
     id="metadata77">
    <rdf:RDF>
      <cc:Work
         rdf:about="">
        <dc:format>image/svg+xml</dc:format>
        <dc:type
           rdf:resource="http://purl.org/dc/dcmitype/StillImage" />
      </cc:Work>
    </rdf:RDF>
  </metadata>
  <sodipodi:namedview
     pagecolor="#f5f7fa"
     bordercolor="#666666"
     borderopacity="1"
     objecttolerance="10"
     gridtolerance="10"
     guidetolerance="10"
     inkscape:pageopacity="0"
     inkscape:pageshadow="2"
     inkscape:window-width="1377"
     inkscape:window-height="886"
     id="namedview75"
     showgrid="false"
     inkscape:zoom="6.2890624"
     inkscape:cx="46.350311"
     inkscape:cy="44.124224"
     inkscape:window-x="264"
     inkscape:window-y="75"
     inkscape:window-maximized="0"
     inkscape:current-layer="g877"
     inkscape:document-rotation="0"
     inkscape:pagecheckerboard="0"
     inkscape:showpageshadow="2"
     inkscape:deskcolor="#d1d1d1" />
  <defs
     id="defs29" />
  <circle
     cx="32.516094"
     cy="31.877844"
     r="0"
     fill="url(#b)"
     stroke-width="1.5715"
     id="circle41"
     style="fill:url(#b)" />
  <g
     aria-label="GZ"
     transform="matrix(1.2212657,0,0,0.81882264,0.4960938,-0.1661539)"
     id="text93"
     style="font-weight:bold;font-size:11.5263px;line-height:1.25;font-family:sans-serif;-inkscape-font-specification:'sans-serif Bold';fill:#f2f2f2;stroke-width:0.288159" />
  <g
     id="g877"
     transform="matrix(1.1,0,0,1.1,-3.1845928,-3.2065454)">
    <path
       style="fill:#dfdfdf;fill-opacity:1;stroke:none;stroke-width:1.66113;stroke-dasharray:none;stroke-dashoffset:2.2;stroke-opacity:0.3"
       d="M 12.465423,51.734433 C 10.010094,51.157883 7.0330997,48.589316 5.7654299,45.953715 4.729903,43.800777 4.4346086,42.440901 4.435764,39.83049 c 8.158e-4,-1.853319 0.085237,-2.562276 0.443199,-3.720597 1.399715,-4.529734 4.5770421,-7.591077 8.536627,-8.225017 1.110435,-0.177788 1.611627,-0.16415 2.766601,0.07515 0.775769,0.160746 1.56075,0.352212 1.744396,0.425481 0.300177,0.119778 0.333889,-0.0115 0.333889,-1.30141 0,-4.311469 1.738712,-8.530189 4.7701,-11.573878 2.556226,-2.566589 5.009507,-3.751742 8.193123,-3.958001 7.476546,-0.484385 13.84091,6.154004 14.443511,15.06539 0.06907,1.023163 0.145021,1.860295 0.168476,1.860295 0.02325,0 0.418497,-0.14089 0.877612,-0.313089 1.253677,-0.470131 3.963904,-0.421274 5.398692,0.09732 3.312954,1.197475 6.008519,4.348343 6.991153,8.172014 0.481775,1.874877 0.515459,4.872181 0.07511,6.691431 -0.974535,4.026059 -3.872805,7.384675 -7.280867,8.437312 C 50.6881,51.936429 50.174611,51.94573 31.930201,51.927129 21.436534,51.916349 12.8794,51.831627 12.465354,51.73447 Z"
       id="path99" />
  </g>
</svg>
