<?xml version="1.0" encoding="UTF-8" standalone="no"?>
<svg
   width="64"
   height="64"
   version="1.1"
   id="svg73"
   sodipodi:docname="gnome-settings.svg"
   inkscape:version="1.4.2 (ebf0e940d0, 2025-05-08)"
   xmlns:inkscape="http://www.inkscape.org/namespaces/inkscape"
   xmlns:sodipodi="http://sodipodi.sourceforge.net/DTD/sodipodi-0.dtd"
   xmlns="http://www.w3.org/2000/svg"
   xmlns:svg="http://www.w3.org/2000/svg"
   xmlns:rdf="http://www.w3.org/1999/02/22-rdf-syntax-ns#"
   xmlns:cc="http://creativecommons.org/ns#"
   xmlns:dc="http://purl.org/dc/elements/1.1/">
  <metadata
     id="metadata77">
    <rdf:RDF>
      <cc:Work
         rdf:about="">
        <dc:format>image/svg+xml</dc:format>
        <dc:type
           rdf:resource="http://purl.org/dc/dcmitype/StillImage" />
      </cc:Work>
    </rdf:RDF>
  </metadata>
  <sodipodi:namedview
     pagecolor="#f5f7fa"
     bordercolor="#666666"
     borderopacity="1"
     objecttolerance="10"
     gridtolerance="10"
     guidetolerance="10"
     inkscape:pageopacity="0"
     inkscape:pageshadow="2"
     inkscape:window-width="1377"
     inkscape:window-height="886"
     id="namedview75"
     showgrid="false"
     inkscape:zoom="6.2890624"
     inkscape:cx="47.622361"
     inkscape:cy="45.396274"
     inkscape:window-x="147"
     inkscape:window-y="75"
     inkscape:window-maximized="0"
     inkscape:current-layer="g877"
     inkscape:document-rotation="0"
     inkscape:pagecheckerboard="0"
     inkscape:showpageshadow="2"
     inkscape:deskcolor="#d1d1d1" />
  <defs
     id="defs29">
    <linearGradient
       id="b"
       x1="399.57"
       x2="399.57"
       y1="545.8"
       y2="517.8"
       gradientTransform="matrix(2.1429,0,0,2.1429,-825.86391,-1107.6662)"
       gradientUnits="userSpaceOnUse">
      <stop
         stop-color="#3889e9"
         offset="0"
         id="stop2" />
      <stop
         stop-color="#5ea5fb"
         offset="1"
         id="stop4" />
    </linearGradient>
  </defs>
  <circle
     cx="32.516094"
     cy="31.877844"
     r="0"
     fill="url(#b)"
     stroke-width="1.5715"
     id="circle41"
     style="fill:url(#b)" />
  <g
     aria-label="GZ"
     transform="matrix(1.2212657,0,0,0.81882264,0.4960938,-0.1661539)"
     id="text93"
     style="font-weight:bold;font-size:11.5263px;line-height:1.25;font-family:sans-serif;-inkscape-font-specification:'sans-serif Bold';fill:#f2f2f2;stroke-width:0.288159" />
  <g
     id="g877"
     transform="matrix(1.1,0,0,1.1,-3.1845928,-3.2065454)">
    <path
       id="path8-9"
       style="fill:#dfdfdf;fill-opacity:1;stroke:none;stroke-width:0.758133;stroke-dasharray:none;stroke-opacity:0.6"
       d="m 31.978119,9.469969 c -0.990368,0.00594 -1.99706,0.5108246 -2.703656,1.530198 l -0.510064,0.732241 -0.05026,9.246885 -0.05019,9.24689 0.879314,-0.269108 c 1.12823,-0.344967 3.755696,-0.344287 4.881602,0 l 0.873147,0.265986 V 21.260932 12.29567 L 34.819466,11.338121 C 34.200537,10.096075 33.100555,9.4633008 31.978134,9.469969 Z m 19.082066,0 c -0.83113,0.031702 -1.63343,0.4271531 -2.274968,1.157819 -0.842172,0.959208 -0.972037,1.666503 -0.973172,5.335342 -9.52e-4,3.037465 0.02416,3.272832 0.322322,3.182434 2.036951,-0.617175 4.037841,-0.63145 5.889201,-0.03759 l 0.413077,0.134522 V 15.72841 c 0,-4.383782 -0.218668,-5.06599 -1.880652,-5.9142532 C 52.067004,9.564602 51.55888,9.4509885 51.060212,9.469947 Z m -38.420719,0.00352 c -0.610946,0.022814 -1.214845,0.2355408 -1.742989,0.638361 -0.944066,0.72009 -1.3656377,1.705092 -1.4926426,3.504747 -0.060544,0.853791 -0.074789,1.553195 -0.034496,1.552098 0.040546,-0.0011 0.4794768,-0.127748 0.9763276,-0.278505 1.141342,-0.346226 3.83059,-0.354557 4.956706,-0.0158 l 0.857408,0.259735 v -1.239378 c -5e-6,-1.649519 -0.411105,-2.786817 -1.292381,-3.583004 -0.647559,-0.5850974 -1.44251,-0.868002 -2.22801,-0.8386991 z m 0.118906,7.075202 c -1.688875,0 -1.947268,0.04875 -3.072898,0.582031 -1.7114064,0.8108 -2.7771645,1.854227 -3.6048844,3.529786 -0.6561128,1.32812 -0.6853222,1.475917 -0.6853222,3.245015 0,1.724335 0.039289,1.938887 0.6039122,3.085426 1.0077328,2.046691 2.753424,3.519787 4.8284064,4.077391 0.5542,0.148908 1.312095,0.274922 1.686662,0.281638 1.927146,0.0345 4.219354,-0.944261 5.560644,-2.378219 3.51705,-3.760021 2.430607,-9.515981 -2.228006,-11.80974 -1.158196,-0.570254 -1.370876,-0.613328 -3.088554,-0.613328 z m 38.458266,4.049229 c -1.865316,4.94e-4 -2.111784,0.04338 -3.129226,0.541357 -2.152538,1.053175 -3.738772,3.180498 -4.161898,5.582559 -0.689758,3.91583 2.292488,7.966886 6.23659,8.470847 3.328873,0.425311 6.503432,-1.311028 7.920078,-4.334005 0.440377,-0.939492 0.494517,-1.276427 0.494517,-2.994674 0,-1.810453 -0.03863,-2.014587 -0.594549,-3.14488 -0.726546,-1.475454 -2.207195,-2.931887 -3.683263,-3.623626 -0.948994,-0.44472 -1.267694,-0.498031 -3.082308,-0.497553 z m -19.06015,10.805248 c -1.355473,-0.01332 -2.739317,0.354916 -4.011676,1.117145 -1.229024,0.736241 -2.083442,1.718118 -2.841343,3.25753 -0.541942,1.100775 -0.586074,1.332804 -0.585164,3.035356 8.69e-4,1.628932 0.05962,1.97127 0.510062,2.935223 0.992019,2.122374 2.354308,3.357368 4.521746,4.096155 1.524837,0.519765 2.942974,0.535022 4.50296,0.05262 3.70843,-1.144763 5.971017,-5.105065 5.025555,-8.795615 -0.398634,-1.556014 -1.028873,-2.577503 -2.331306,-3.783328 -1.351306,-1.251078 -3.048108,-1.897992 -4.790862,-1.915101 z m -22.8246277,0.910613 0.056342,9.691225 c 0.060962,10.742603 0.019998,10.376993 1.2923787,11.587557 0.350495,0.333435 0.876171,0.683658 1.170325,0.776065 1.351927,0.424719 3.074662,-0.349724 3.798889,-1.705432 0.417144,-0.780889 0.417329,-0.793883 0.469392,-10.564304 l 0.05311,-9.781985 -0.882438,0.275335 c -1.148523,0.359352 -3.925774,0.356622 -5.07566,-0.0029 z m 38.4801817,4.158714 v 7.406879 c 0,5.108417 0.06509,7.629625 0.212821,8.123493 0.291927,0.974511 1.198219,1.959695 2.087188,2.271847 0.405008,0.142222 0.904613,0.264524 1.110893,0.269119 0.632567,0.01318 1.966644,-0.781988 2.5597,-1.527082 l 0.563327,-0.707193 0.04944,-7.920119 c 0.04836,-7.378031 0.03092,-7.909495 -0.259793,-7.798033 -0.17135,0.0658 -0.87715,0.216408 -1.56776,0.33482 -1.20652,0.206932 -3.033194,0.06843 -4.343359,-0.328597 z M 28.673665,47.390342 v 2.112231 c 0,2.901693 0.465498,3.938663 2.115357,4.700104 0.904292,0.41728 1.379566,0.430183 2.259312,0.06239 1.736249,-0.725441 2.241337,-1.785441 2.246784,-4.712614 l 0.0035,-2.143519 -0.873053,0.272257 c -1.159341,0.361901 -3.949308,0.357308 -4.96922,-0.01001 z" />
  </g>
</svg>
