<?xml version="1.0" encoding="UTF-8" standalone="no"?>
<svg
   width="64"
   height="64"
   version="1.1"
   id="svg73"
   sodipodi:docname="user-trash-full.svg"
   inkscape:version="1.3.2 (091e20ef0f, 2023-11-25)"
   xmlns:inkscape="http://www.inkscape.org/namespaces/inkscape"
   xmlns:sodipodi="http://sodipodi.sourceforge.net/DTD/sodipodi-0.dtd"
   xmlns="http://www.w3.org/2000/svg"
   xmlns:svg="http://www.w3.org/2000/svg"
   xmlns:rdf="http://www.w3.org/1999/02/22-rdf-syntax-ns#"
   xmlns:cc="http://creativecommons.org/ns#"
   xmlns:dc="http://purl.org/dc/elements/1.1/">
  <metadata
     id="metadata77">
    <rdf:RDF>
      <cc:Work
         rdf:about="">
        <dc:format>image/svg+xml</dc:format>
        <dc:type
           rdf:resource="http://purl.org/dc/dcmitype/StillImage" />
      </cc:Work>
    </rdf:RDF>
  </metadata>
  <sodipodi:namedview
     pagecolor="#f5f7fa"
     bordercolor="#666666"
     borderopacity="1"
     objecttolerance="10"
     gridtolerance="10"
     guidetolerance="10"
     inkscape:pageopacity="0"
     inkscape:pageshadow="2"
     inkscape:window-width="1377"
     inkscape:window-height="886"
     id="namedview75"
     showgrid="false"
     inkscape:zoom="4.4470387"
     inkscape:cx="47.784608"
     inkscape:cy="14.054296"
     inkscape:window-x="181"
     inkscape:window-y="77"
     inkscape:window-maximized="0"
     inkscape:current-layer="g877"
     inkscape:document-rotation="0"
     inkscape:pagecheckerboard="0"
     inkscape:showpageshadow="2"
     inkscape:deskcolor="#d1d1d1" />
  <defs
     id="defs29">
    <linearGradient
       id="b"
       x1="399.57"
       x2="399.57"
       y1="545.8"
       y2="517.8"
       gradientTransform="matrix(2.1429,0,0,2.1429,-825.86391,-1107.6662)"
       gradientUnits="userSpaceOnUse">
      <stop
         stop-color="#3889e9"
         offset="0"
         id="stop2" />
      <stop
         stop-color="#5ea5fb"
         offset="1"
         id="stop4" />
    </linearGradient>
  </defs>
  <circle
     cx="32.516094"
     cy="31.877844"
     r="0"
     fill="url(#b)"
     stroke-width="1.5715"
     id="circle41"
     style="fill:url(#b)" />
  <g
     aria-label="GZ"
     transform="matrix(1.2212657,0,0,0.81882264,0.4960938,-0.1661539)"
     id="text93"
     style="font-weight:bold;font-size:11.5263px;line-height:1.25;font-family:sans-serif;-inkscape-font-specification:'sans-serif Bold';fill:#f2f2f2;stroke-width:0.288159" />
  <g
     id="g877"
     transform="matrix(1.1,0,0,1.1,-3.1845928,-3.2065454)">
    <rect
       x="6.3010068"
       y="5.4939413"
       width="51.635597"
       height="53.148327"
       rx="10.980581"
       ry="10.720582"
       fill="url(#linearGradient862)"
       stroke-width="3.0541"
       id="rect35-7-3"
       style="fill:#414141;fill-opacity:1;stroke:#dfdfdf;stroke-width:2.27272727;stroke-dasharray:none;stroke-opacity:1" />
    <path
       id="path1"
       style="fill:#dfdfdf;fill-opacity:1;stroke-width:0.0460408"
       d="m 31.98584,14.049048 c -0.745102,0 -1.489441,0.02941 -1.955966,0.08623 -2.314175,0.284004 -4.213782,0.856428 -6.216264,1.874483 -1.678013,0.8531 -3.045581,1.840269 -4.415306,3.188076 -1.455287,1.431949 -2.521302,2.887275 -3.430931,4.682184 -1.003497,1.980065 -1.569477,3.866934 -1.852095,6.169864 -0.114504,0.933061 -0.114504,2.980471 0,3.913533 0.212849,1.734455 0.601534,3.270438 1.204901,4.763693 2.301031,5.694663 7.386879,9.846842 13.420099,10.954378 0.556684,0.102177 1.509905,0.224248 2.141335,0.274872 0.126612,0.01006 0.736314,0.01161 1.356712,0 1.191683,-0.01548 1.937897,-0.08545 2.993076,-0.279669 7.328247,-1.348815 13.077385,-7.09805 14.428444,-14.428398 0.221818,-1.203522 0.279653,-1.863027 0.279653,-3.245589 0,-1.38117 -0.05636,-2.03789 -0.278055,-3.245591 -1.012208,-5.513994 -4.542578,-10.235345 -9.549716,-12.772895 -1.980111,-1.003502 -3.866971,-1.569424 -6.169921,-1.852113 -0.466525,-0.05728 -1.210865,-0.08623 -1.955966,-0.08623 z m 0.351562,2.515257 c 0.31429,0.0077 0.596053,0.0178 0.813388,0.03793 3.11208,0.298016 5.905211,1.430942 8.365589,3.392585 0.64963,0.517929 1.778397,1.646752 2.296342,2.296351 1.820729,2.283655 2.907486,4.832352 3.327061,7.80307 0.115718,0.819351 0.117739,3.052692 0.0032,3.868792 -0.267058,1.902814 -0.770569,3.517985 -1.604403,5.15839 -1.162471,2.286984 -2.931312,4.291898 -5.059305,5.733677 -2.047629,1.387285 -4.295182,2.236592 -6.812322,2.574395 -0.507742,0.06812 -2.474001,0.125322 -2.970703,0.08631 -2.016455,-0.158527 -3.906635,-0.662677 -5.674515,-1.514926 -4.572827,-2.204391 -7.751047,-6.463701 -8.570136,-11.486474 -0.554772,-3.402028 0.0881,-7.051373 1.767402,-10.037108 2.377294,-4.226876 6.46865,-7.037673 11.326704,-7.782326 0.618944,-0.0949 1.848858,-0.146531 2.791725,-0.131049 z M 27.14067,18.09038 c -0.0239,-0.0077 -0.109016,0.198393 -0.190164,0.458635 -1.44443,4.632875 -2.909491,7.843245 -6.687678,14.660153 -1.158543,2.090371 -1.268859,2.302698 -1.224076,2.347516 0.05797,0.05806 1.649821,0.424731 2.349076,0.541693 1.188809,0.19878 2.316185,0.331069 8.319247,0.969985 1.278774,0.136158 2.386568,0.243908 2.462535,0.239728 0.138119,-0.0077 0.139068,-0.0077 0.15341,-0.329211 0.0079,-0.177261 -0.01997,-0.851629 -0.06072,-1.497357 -0.08819,-1.397502 -0.651947,-9.341918 -0.712712,-10.041908 l -0.04315,-0.488978 -0.397905,-0.679168 C 30.634429,23.462412 30.037427,22.51534 29.015136,20.955593 28.600219,20.32256 28.018172,19.422473 27.722344,18.954937 27.426522,18.487399 27.164575,18.098353 27.14067,18.09038 Z m 5.647372,7.502654 c -0.01178,0 -0.01971,0 -0.02398,0 -0.01351,0.01316 0.07292,0.260552 0.191762,0.548118 0.849062,2.054532 1.234663,3.669624 1.356711,5.693735 0.09838,1.631504 -0.09244,3.186065 -0.597656,4.886692 -0.165337,0.556555 -0.16407,0.540842 -0.06072,0.572114 0.04432,0.01316 0.723532,0.01625 1.508522,0.0077 1.115374,-0.01471 1.566022,-0.03947 2.059837,-0.111853 0.680962,-0.100009 1.52992,-0.280057 2.013495,-0.426665 0.820464,-0.248709 1.846063,-0.668873 1.917613,-0.784596 0.03824,-0.06193 -0.662129,-1.462292 -1.065874,-2.131783 -1.245048,-2.064595 -2.621552,-3.775904 -4.762073,-5.91899 -1.354743,-1.356399 -2.360951,-2.280791 -2.537643,-2.334744 z m 4.309836,2.58562 c -0.0075,3.87e-4 -0.0121,0 -0.01438,0 -0.01102,0.01084 0.07018,0.08345 0.180576,0.159846 1.908453,1.319631 2.324899,1.642572 3.009056,2.333041 0.902464,0.910846 1.484579,1.925726 1.705078,2.973891 0.04984,0.236943 0.158165,1.454629 0.159801,1.799399 9.9e-4,0.206676 1.221663,-0.645031 1.927201,-1.343936 0.528615,-0.523658 1.202134,-1.395801 1.450995,-1.879283 0.104563,-0.203116 0.06252,-0.266899 -0.397905,-0.610431 -0.991447,-0.739621 -2.462743,-1.533583 -3.908737,-2.109335 -1.195083,-0.475897 -3.878958,-1.339061 -4.111682,-1.326365 z m 7.57777,8.085915 c -0.02552,0 -0.394111,0.208611 -0.81978,0.463435 -2.217663,1.327759 -4.646903,2.266394 -7.253373,2.8029 -2.617625,0.538752 -6.744202,0.787769 -10.80895,0.651998 -1.603552,-0.05342 -4.481194,-0.212482 -4.685368,-0.258848 -0.05698,-0.01316 -0.102274,0 -0.102274,0.02399 0,0.08662 0.80195,0.933216 1.388673,1.465388 2.130424,1.932384 5.105168,3.233128 8.002841,3.499639 0.6221,0.05729 1.960063,0.06193 2.55522,0.0077 3.317232,-0.301112 6.351045,-1.722301 8.701172,-4.074926 1.169529,-1.170701 1.952337,-2.271348 2.750176,-3.867167 0.284182,-0.568399 0.339751,-0.71431 0.271663,-0.71431 z" />
  </g>
</svg>
