<?xml version="1.0" encoding="UTF-8" standalone="no"?>
<svg
   width="64"
   height="64"
   version="1.1"
   id="svg73"
   sodipodi:docname="audio-speakers.svg"
   inkscape:version="1.4.2 (ebf0e940d0, 2025-05-08)"
   xmlns:inkscape="http://www.inkscape.org/namespaces/inkscape"
   xmlns:sodipodi="http://sodipodi.sourceforge.net/DTD/sodipodi-0.dtd"
   xmlns="http://www.w3.org/2000/svg"
   xmlns:svg="http://www.w3.org/2000/svg"
   xmlns:rdf="http://www.w3.org/1999/02/22-rdf-syntax-ns#"
   xmlns:cc="http://creativecommons.org/ns#"
   xmlns:dc="http://purl.org/dc/elements/1.1/">
  <metadata
     id="metadata77">
    <rdf:RDF>
      <cc:Work
         rdf:about="">
        <dc:format>image/svg+xml</dc:format>
        <dc:type
           rdf:resource="http://purl.org/dc/dcmitype/StillImage" />
      </cc:Work>
    </rdf:RDF>
  </metadata>
  <sodipodi:namedview
     pagecolor="#f5f7fa"
     bordercolor="#666666"
     borderopacity="1"
     objecttolerance="10"
     gridtolerance="10"
     guidetolerance="10"
     inkscape:pageopacity="0"
     inkscape:pageshadow="2"
     inkscape:window-width="1377"
     inkscape:window-height="886"
     id="namedview75"
     showgrid="false"
     inkscape:zoom="6.2890624"
     inkscape:cx="46.350311"
     inkscape:cy="44.124224"
     inkscape:window-x="264"
     inkscape:window-y="75"
     inkscape:window-maximized="0"
     inkscape:current-layer="g877"
     inkscape:document-rotation="0"
     inkscape:pagecheckerboard="0"
     inkscape:showpageshadow="2"
     inkscape:deskcolor="#d1d1d1" />
  <defs
     id="defs29" />
  <circle
     cx="32.516094"
     cy="31.877844"
     r="0"
     fill="url(#b)"
     stroke-width="1.5715"
     id="circle41"
     style="fill:url(#b)" />
  <g
     aria-label="GZ"
     transform="matrix(1.2212657,0,0,0.81882264,0.4960938,-0.1661539)"
     id="text93"
     style="font-weight:bold;font-size:11.5263px;line-height:1.25;font-family:sans-serif;-inkscape-font-specification:'sans-serif Bold';fill:#f2f2f2;stroke-width:0.288159" />
  <g
     id="g877"
     transform="matrix(1.1,0,0,1.1,-3.1845928,-3.2065454)">
    <path
       id="path50"
       style="fill:#dfdfdf;fill-opacity:1;stroke:none;stroke-width:1.73772;stroke-dasharray:none;stroke-dashoffset:2.2;stroke-opacity:0.3"
       d="m 31.932687,4.9232984 c -1.817873,-3.66e-4 -3.618339,0.1202159 -4.775311,0.3631514 -2.494547,0.5237323 -5.659883,1.6277496 -7.55837,2.6371144 l -1.669833,0.8892213 h -2.521714 c -2.236436,0.00165 -2.634677,0.056177 -3.519544,0.4751549 -1.207337,0.5717448 -2.1326958,1.5128506 -2.6778426,2.7185686 -0.3365395,0.744328 -0.407022,1.315373 -0.4106729,3.346456 l -0.00341,2.450441 -1.0927767,2.24002 C 5.5954317,24.37401 4.9148123,27.331379 4.9269762,32.064856 4.9392214,36.79826 5.6824125,39.9223 7.8186362,44.1949 l 0.9774644,1.948138 v 2.497958 c 0,1.757279 0.086592,2.707767 0.295273,3.207291 0.5080482,1.215933 1.4579264,2.220571 2.6540774,2.806823 1.033171,0.506436 1.399524,0.569363 3.933614,0.668648 2.568608,0.100474 2.870748,0.152563 3.706213,0.644834 2.010554,1.184742 5.430449,2.34998 8.369522,2.847536 0.823322,0.139382 2.622494,0.260724 3.994697,0.271504 4.29235,0.0338 8.084375,-0.814842 11.875501,-2.657471 l 2.192496,-1.06571 2.694827,-0.08484 c 2.316887,-0.07264 2.821915,-0.151243 3.594212,-0.54646 1.223542,-0.626228 1.937592,-1.328423 2.552257,-2.511538 0.467048,-0.89895 0.52377,-1.265499 0.593883,-3.692631 l 0.07817,-2.69142 0.862055,-1.696981 C 58.033913,40.510654 58.8713,37.168239 59.023483,32.862477 59.189019,28.180142 58.40839,24.395434 56.447458,20.389645 L 55.422485,18.292148 55.300286,15.597334 C 55.164923,12.556045 54.859272,11.575753 53.660933,10.377409 52.425425,9.1418945 51.718026,8.9185681 48.814343,8.8467293 L 46.217952,8.7822605 44.022053,7.7165528 C 41.577143,6.5280521 39.459509,5.8149482 36.813253,5.2898678 35.586601,5.0465144 33.750603,4.9236871 31.932728,4.923321 Z M 13.323562,11.487236 c 0.09404,-0.007 0.190411,-0.0075 0.285084,0 0.454437,0.03465 0.908327,0.232939 1.282919,0.607517 0.967605,0.967594 0.785636,2.406695 -0.39369,3.125848 -1.757035,1.07144 -3.759631,-0.776921 -2.816991,-2.599785 0.358993,-0.694216 0.984193,-1.085285 1.642678,-1.13358 z m 37.306498,0 c 0.514682,0.02783 0.975805,0.276817 1.371155,0.746672 0.6888,0.818592 0.672593,1.774149 -0.04299,2.569233 -0.662305,0.734705 -1.696025,0.938056 -2.491171,0.492116 -0.690915,-0.387462 -0.953711,-0.878669 -0.953711,-1.792014 0,-0.98932 0.305963,-1.478713 1.13699,-1.825954 0.344792,-0.144067 0.672034,-0.20676 0.980846,-0.190059 z m -18.68719,0.950307 c 6.243944,-0.02062 12.601346,3.258673 16.162075,8.434016 0.973157,1.414428 2.361345,4.45019 2.837367,6.20417 0.633843,2.3353 0.634263,7.483574 0.0034,9.761053 -1.939355,7.001248 -6.799482,11.965572 -13.708235,14.000126 -2.459363,0.72423 -6.745182,0.870913 -9.282502,0.315637 -5.764638,-1.261588 -10.5371,-4.88257 -13.267082,-10.05973 -6.5752907,-12.469416 1.861841,-27.54218 16.009345,-28.604362 0.414408,-0.03109 0.829327,-0.04953 1.245589,-0.0508 z m 0.08483,12.971744 c -0.123969,0.0015 -0.251055,0.0038 -0.380111,0.01056 -2.566201,0.123903 -4.61343,1.448432 -5.715444,3.69609 -0.671774,1.370154 -0.755768,3.744565 -0.186683,5.260646 0.747297,1.990819 2.470425,3.52787 4.592042,4.099921 2.151117,0.579998 4.370069,0.02578 6.058233,-1.51711 2.961355,-2.706509 3.014935,-7.104812 0.118822,-9.82553 -1.319888,-1.240031 -2.62708,-1.74762 -4.48684,-1.724242 z M 50.708111,48.51203 c 0.367337,0.031 0.735909,0.168208 1.065722,0.427656 1.028179,0.808773 0.86372,2.698064 -0.285031,3.292153 -1.452189,0.750946 -2.976527,-0.120274 -2.976527,-1.703781 0,-1.260421 1.093805,-2.109163 2.195901,-2.016007 z m -37.228433,0.0205 c 0.937967,0 1.628957,0.470009 1.90062,1.293095 0.29086,0.881326 0.0852,1.593567 -0.634674,2.199286 -1.652899,1.39064 -4.06458,-0.547236 -3.071537,-2.467603 0.39138,-0.756874 0.867608,-1.02498 1.805591,-1.02498 z" />
  </g>
</svg>
