<?xml version="1.0" encoding="UTF-8" standalone="no"?>
<svg
   width="64"
   height="64"
   version="1.1"
   id="svg73"
   sodipodi:docname="cpu.svg"
   inkscape:version="1.4.2 (ebf0e940d0, 2025-05-08)"
   xmlns:inkscape="http://www.inkscape.org/namespaces/inkscape"
   xmlns:sodipodi="http://sodipodi.sourceforge.net/DTD/sodipodi-0.dtd"
   xmlns="http://www.w3.org/2000/svg"
   xmlns:svg="http://www.w3.org/2000/svg"
   xmlns:rdf="http://www.w3.org/1999/02/22-rdf-syntax-ns#"
   xmlns:cc="http://creativecommons.org/ns#"
   xmlns:dc="http://purl.org/dc/elements/1.1/">
  <metadata
     id="metadata77">
    <rdf:RDF>
      <cc:Work
         rdf:about="">
        <dc:format>image/svg+xml</dc:format>
        <dc:type
           rdf:resource="http://purl.org/dc/dcmitype/StillImage" />
      </cc:Work>
    </rdf:RDF>
  </metadata>
  <sodipodi:namedview
     pagecolor="#f5f7fa"
     bordercolor="#666666"
     borderopacity="1"
     objecttolerance="10"
     gridtolerance="10"
     guidetolerance="10"
     inkscape:pageopacity="0"
     inkscape:pageshadow="2"
     inkscape:window-width="1377"
     inkscape:window-height="886"
     id="namedview75"
     showgrid="false"
     inkscape:zoom="6.2890624"
     inkscape:cx="46.350311"
     inkscape:cy="44.124224"
     inkscape:window-x="264"
     inkscape:window-y="75"
     inkscape:window-maximized="0"
     inkscape:current-layer="g877"
     inkscape:document-rotation="0"
     inkscape:pagecheckerboard="0"
     inkscape:showpageshadow="2"
     inkscape:deskcolor="#d1d1d1" />
  <defs
     id="defs29" />
  <circle
     cx="32.516094"
     cy="31.877844"
     r="0"
     fill="url(#b)"
     stroke-width="1.5715"
     id="circle41"
     style="fill:url(#b)" />
  <g
     aria-label="GZ"
     transform="matrix(1.2212657,0,0,0.81882264,0.4960938,-0.1661539)"
     id="text93"
     style="font-weight:bold;font-size:11.5263px;line-height:1.25;font-family:sans-serif;-inkscape-font-specification:'sans-serif Bold';fill:#f2f2f2;stroke-width:0.288159" />
  <g
     id="g877"
     transform="matrix(1.1,0,0,1.1,-3.1845928,-3.2065454)">
    <path
       id="path2294"
       style="fill:#dfdfdf;fill-opacity:1;stroke:none;stroke-width:1.77702;stroke-dasharray:none;stroke-opacity:0.3"
       d="m 42.292367,6.8841299 c -2.578431,-0.012112 -6.013538,0.00678 -10.61007,0.027782 l -16.836604,0.076375 -0.829508,0.9266965 -0.829507,0.9301556 0.07634,23.271376 c 0.07396,22.818898 0.08449,23.283744 0.638619,23.899588 0.310818,0.345327 0.820659,0.733535 1.131457,0.860741 0.901532,0.369024 32.947214,0.323106 34.013346,-0.0474 1.79972,-0.62741 1.728433,0.388446 1.728433,-24.801972 0,-13.886452 -0.106689,-23.1625296 -0.270824,-23.5941586 C 50.042113,7.217169 50.027819,6.9209901 42.292357,6.8846272 Z M 4.4369202,11.087205 v 2.540591 2.54406 h 2.6828829 2.6863607 v -2.54406 -2.540591 H 7.1198031 Z m 49.7288888,0 v 2.540591 2.54406 h 2.686362 2.682896 v -2.54406 -2.540591 H 56.852176 Z M 4.4369202,20.690769 v 2.401763 2.401758 H 7.1198031 9.8061638 V 23.092532 20.690769 H 7.1198031 Z m 49.7288888,0 v 2.401763 2.401758 h 2.686362 2.682896 V 23.092532 20.690769 H 56.852176 Z M 4.4369202,30.016673 v 2.544062 2.540586 H 7.1198031 9.8061638 V 32.560735 30.016673 H 7.1198031 Z m 49.7288888,0 v 2.544062 2.540586 h 2.686362 2.682896 V 32.560735 30.016673 H 56.852176 Z M 4.4369202,39.342579 v 2.540589 2.544057 H 7.1198031 9.8061638 V 41.883168 39.342579 H 7.1198031 Z m 49.7288888,0 v 2.540589 2.544057 h 2.686362 2.682896 V 41.883168 39.342579 H 56.852176 Z M 4.4369202,48.949612 v 2.401769 2.401751 H 7.1198031 9.8061638 V 51.351381 48.949612 H 7.1198031 Z m 49.7288888,0 v 2.401769 2.401751 h 2.686362 2.682896 v -2.401751 -2.401769 h -2.682891 z" />
  </g>
</svg>
