<?xml version="1.0" encoding="UTF-8" standalone="no"?>
<svg
   width="64"
   height="64"
   version="1.1"
   id="svg73"
   sodipodi:docname="device_usb.svg"
   inkscape:version="1.4.2 (ebf0e940d0, 2025-05-08)"
   xmlns:inkscape="http://www.inkscape.org/namespaces/inkscape"
   xmlns:sodipodi="http://sodipodi.sourceforge.net/DTD/sodipodi-0.dtd"
   xmlns="http://www.w3.org/2000/svg"
   xmlns:svg="http://www.w3.org/2000/svg"
   xmlns:rdf="http://www.w3.org/1999/02/22-rdf-syntax-ns#"
   xmlns:cc="http://creativecommons.org/ns#"
   xmlns:dc="http://purl.org/dc/elements/1.1/">
  <metadata
     id="metadata77">
    <rdf:RDF>
      <cc:Work
         rdf:about="">
        <dc:format>image/svg+xml</dc:format>
        <dc:type
           rdf:resource="http://purl.org/dc/dcmitype/StillImage" />
      </cc:Work>
    </rdf:RDF>
  </metadata>
  <sodipodi:namedview
     pagecolor="#f5f7fa"
     bordercolor="#666666"
     borderopacity="1"
     objecttolerance="10"
     gridtolerance="10"
     guidetolerance="10"
     inkscape:pageopacity="0"
     inkscape:pageshadow="2"
     inkscape:window-width="1377"
     inkscape:window-height="886"
     id="namedview75"
     showgrid="false"
     inkscape:zoom="6.2890624"
     inkscape:cx="47.622361"
     inkscape:cy="45.396274"
     inkscape:window-x="0"
     inkscape:window-y="61"
     inkscape:window-maximized="0"
     inkscape:current-layer="g877"
     inkscape:document-rotation="0"
     inkscape:pagecheckerboard="0"
     inkscape:showpageshadow="2"
     inkscape:deskcolor="#d1d1d1" />
  <defs
     id="defs29" />
  <circle
     cx="32.516094"
     cy="31.877844"
     r="0"
     fill="url(#b)"
     stroke-width="1.5715"
     id="circle41"
     style="fill:url(#b)" />
  <g
     aria-label="GZ"
     transform="matrix(1.2212657,0,0,0.81882264,0.4960938,-0.1661539)"
     id="text93"
     style="font-weight:bold;font-size:11.5263px;line-height:1.25;font-family:sans-serif;-inkscape-font-specification:'sans-serif Bold';fill:#f2f2f2;stroke-width:0.288159" />
  <g
     id="g877"
     transform="matrix(1.1,0,0,1.1,-3.1845928,-3.2065454)">
    <path
       style="color:#444444;fill:#dfdfdf;fill-opacity:1;stroke:none;stroke-width:1.65121;stroke-dasharray:none;stroke-opacity:0.3"
       class="ColorScheme-Text"
       d="M 31.968917,3.8235609 23.161913,17.914754 h 5.284199 V 35.528748 H 17.877715 v -4.479184 c 2.176069,-1.256329 3.518359,-3.576396 3.5228,-6.089205 0,-3.891293 -3.154417,-7.045605 -7.045598,-7.045605 -3.891181,0 -7.0455976,3.154425 -7.0455976,7.045605 0.00182,2.515165 1.3446109,4.838453 3.5227976,6.09609 v 4.472299 c 0,7.045594 7.045598,7.045594 7.045598,7.045594 h 10.568397 v 4.479192 c -2.176067,1.25634 -3.518366,3.576406 -3.522794,6.08922 0,3.891283 3.154416,7.045585 7.045599,7.045585 3.891173,0 7.045595,-3.15441 7.045595,-7.045585 -0.0019,-2.515186 -1.344621,-4.838459 -3.522801,-6.096106 v -4.472306 h 10.568398 c 0,0 7.045591,0 7.045591,-7.045594 V 32.00595 c 0,0 3.963153,-0.660519 3.522815,-3.522795 V 21.437559 C 57.068853,17.474409 53.1057,17.914754 53.1057,17.914754 h -7.045591 c -3.742978,0 -3.522799,3.522805 -3.522799,3.522805 v 7.045596 c 0,3.522795 3.522799,3.522795 3.522799,3.522795 v 3.522798 H 35.491711 V 17.914754 h 5.284198 z"
       id="path5-3" />
  </g>
</svg>
