<?xml version="1.0" encoding="UTF-8" standalone="no"?>
<svg
   width="64"
   height="64"
   version="1.1"
   id="svg73"
   sodipodi:docname="input-keyboard.svg"
   inkscape:version="1.4.2 (ebf0e940d0, 2025-05-08)"
   xmlns:inkscape="http://www.inkscape.org/namespaces/inkscape"
   xmlns:sodipodi="http://sodipodi.sourceforge.net/DTD/sodipodi-0.dtd"
   xmlns="http://www.w3.org/2000/svg"
   xmlns:svg="http://www.w3.org/2000/svg"
   xmlns:rdf="http://www.w3.org/1999/02/22-rdf-syntax-ns#"
   xmlns:cc="http://creativecommons.org/ns#"
   xmlns:dc="http://purl.org/dc/elements/1.1/">
  <metadata
     id="metadata77">
    <rdf:RDF>
      <cc:Work
         rdf:about="">
        <dc:format>image/svg+xml</dc:format>
        <dc:type
           rdf:resource="http://purl.org/dc/dcmitype/StillImage" />
      </cc:Work>
    </rdf:RDF>
  </metadata>
  <sodipodi:namedview
     pagecolor="#f5f7fa"
     bordercolor="#666666"
     borderopacity="1"
     objecttolerance="10"
     gridtolerance="10"
     guidetolerance="10"
     inkscape:pageopacity="0"
     inkscape:pageshadow="2"
     inkscape:window-width="1377"
     inkscape:window-height="886"
     id="namedview75"
     showgrid="false"
     inkscape:zoom="6.2890624"
     inkscape:cx="47.622361"
     inkscape:cy="45.396274"
     inkscape:window-x="0"
     inkscape:window-y="61"
     inkscape:window-maximized="0"
     inkscape:current-layer="g877"
     inkscape:document-rotation="0"
     inkscape:pagecheckerboard="0"
     inkscape:showpageshadow="2"
     inkscape:deskcolor="#d1d1d1" />
  <defs
     id="defs29" />
  <circle
     cx="32.516094"
     cy="31.877844"
     r="0"
     fill="url(#b)"
     stroke-width="1.5715"
     id="circle41"
     style="fill:url(#b)" />
  <g
     aria-label="GZ"
     transform="matrix(1.2212657,0,0,0.81882264,0.4960938,-0.1661539)"
     id="text93"
     style="font-weight:bold;font-size:11.5263px;line-height:1.25;font-family:sans-serif;-inkscape-font-specification:'sans-serif Bold';fill:#f2f2f2;stroke-width:0.288159" />
  <g
     id="g877"
     transform="matrix(1.1,0,0,1.1,-3.1845928,-3.2065454)">
    <path
       style="color:#444444;fill:#dfdfdf;fill-opacity:1;stroke:none;stroke-width:1.65121;stroke-dasharray:none;stroke-opacity:0.3"
       class="ColorScheme-Text"
       d="m 12.217193,10.439991 c 0,0 -7.1886527,0 -7.1886527,7.188656 v 28.754604 c 0,7.188658 7.1886527,7.188658 7.1886527,7.188658 h 39.537589 c 0,0 7.188665,0 7.188665,-7.188658 V 17.628647 c 0,-7.188656 -7.188665,-7.188656 -7.188665,-7.188656 z m 0.898583,7.188656 h 5.391488 c 0.497818,0 0.898579,0.400779 0.898579,0.898584 v 5.391489 c 0,0.497817 -0.400774,0.89858 -0.898579,0.89858 h -5.391488 c -0.497817,0 -0.898583,-0.40078 -0.898583,-0.89858 v -5.391489 c 0,-0.497818 0.400771,-0.898583 0.898583,-0.898584 z m 10.782981,0 h 5.391486 c 0.497827,0 0.898581,0.400779 0.898581,0.898584 v 5.391489 c 0,0.497817 -0.400767,0.89858 -0.898581,0.89858 h -5.391486 c -0.497831,0 -0.898586,-0.40078 -0.898586,-0.89858 v -5.391489 c 0,-0.497818 0.400771,-0.898583 0.898586,-0.898584 z m 10.782978,0 h 5.391484 c 0.49782,0 0.898589,0.400779 0.898589,0.898584 v 5.391489 c 0,0.497817 -0.400761,0.89858 -0.898589,0.89858 h -5.391484 c -0.497818,0 -0.898584,-0.40078 -0.898584,-0.89858 v -5.391489 c 0,-0.497818 0.400766,-0.898583 0.898584,-0.898584 z m 10.782972,0 h 5.391499 c 0.497825,0 0.898576,0.400779 0.898576,0.898584 v 5.391489 c 0,0.497817 -0.400824,0.89858 -0.898576,0.89858 h -5.391499 c -0.497825,0 -0.898575,-0.40078 -0.898575,-0.89858 v -5.391489 c 0,-0.497818 0.40075,-0.898583 0.898575,-0.898584 z M 13.115776,28.411625 h 5.391488 c 0.497818,0 0.898579,0.40077 0.898579,0.898576 v 5.391498 c 0,0.497825 -0.400774,0.898576 -0.898579,0.898576 h -5.391488 c -0.497817,0 -0.898583,-0.400771 -0.898583,-0.898576 v -5.391498 c 0,-0.497814 0.400771,-0.898576 0.898583,-0.898576 z m 10.782981,0 h 5.391486 c 0.497827,0 0.898581,0.40077 0.898581,0.898576 v 5.391498 c 0,0.497825 -0.400767,0.898576 -0.898581,0.898576 h -5.391486 c -0.497831,0 -0.898586,-0.400771 -0.898586,-0.898576 v -5.391498 c 0,-0.497814 0.400771,-0.898576 0.898586,-0.898576 z m 10.782978,0 h 5.391484 c 0.49782,0 0.898589,0.40077 0.898589,0.898576 v 5.391498 c 0,0.497825 -0.400761,0.898576 -0.898589,0.898576 h -5.391484 c -0.497818,0 -0.898584,-0.400771 -0.898584,-0.898576 v -5.391498 c 0,-0.497814 0.400766,-0.898576 0.898584,-0.898576 z m 10.782972,0 h 5.391499 c 0.497825,0 0.898576,0.40077 0.898576,0.898576 v 5.391498 c 0,0.497825 -0.400824,0.898576 -0.898576,0.898576 h -5.391499 c -0.497825,0 -0.898575,-0.400771 -0.898575,-0.898576 v -5.391498 c 0,-0.497814 0.40075,-0.898576 0.898575,-0.898576 z m -25.160284,10.78298 h 23.363124 c 0.497826,0 0.898585,0.40078 0.898585,0.898578 v 5.391477 c 0,0.4979 -0.400822,0.898591 -0.898585,0.898591 H 20.304423 c -0.497817,0 -0.89858,-0.400824 -0.89858,-0.898591 v -5.391477 c 0,-0.497796 0.400771,-0.898578 0.89858,-0.898578 z"
       id="path5" />
  </g>
</svg>
