<?xml version="1.0" encoding="UTF-8" standalone="no"?>
<svg
   width="64"
   height="64"
   version="1.1"
   id="svg73"
   sodipodi:docname="input-gaming.svg"
   inkscape:version="1.4.2 (ebf0e940d0, 2025-05-08)"
   xmlns:inkscape="http://www.inkscape.org/namespaces/inkscape"
   xmlns:sodipodi="http://sodipodi.sourceforge.net/DTD/sodipodi-0.dtd"
   xmlns="http://www.w3.org/2000/svg"
   xmlns:svg="http://www.w3.org/2000/svg"
   xmlns:rdf="http://www.w3.org/1999/02/22-rdf-syntax-ns#"
   xmlns:cc="http://creativecommons.org/ns#"
   xmlns:dc="http://purl.org/dc/elements/1.1/">
  <metadata
     id="metadata77">
    <rdf:RDF>
      <cc:Work
         rdf:about="">
        <dc:format>image/svg+xml</dc:format>
        <dc:type
           rdf:resource="http://purl.org/dc/dcmitype/StillImage" />
      </cc:Work>
    </rdf:RDF>
  </metadata>
  <sodipodi:namedview
     pagecolor="#f5f7fa"
     bordercolor="#666666"
     borderopacity="1"
     objecttolerance="10"
     gridtolerance="10"
     guidetolerance="10"
     inkscape:pageopacity="0"
     inkscape:pageshadow="2"
     inkscape:window-width="1377"
     inkscape:window-height="886"
     id="namedview75"
     showgrid="false"
     inkscape:zoom="6.2890624"
     inkscape:cx="47.622361"
     inkscape:cy="45.396274"
     inkscape:window-x="0"
     inkscape:window-y="61"
     inkscape:window-maximized="0"
     inkscape:current-layer="g877"
     inkscape:document-rotation="0"
     inkscape:pagecheckerboard="0"
     inkscape:showpageshadow="2"
     inkscape:deskcolor="#d1d1d1" />
  <defs
     id="defs29" />
  <circle
     cx="32.516094"
     cy="31.877844"
     r="0"
     fill="url(#b)"
     stroke-width="1.5715"
     id="circle41"
     style="fill:url(#b)" />
  <g
     aria-label="GZ"
     transform="matrix(1.2212657,0,0,0.81882264,0.4960938,-0.1661539)"
     id="text93"
     style="font-weight:bold;font-size:11.5263px;line-height:1.25;font-family:sans-serif;-inkscape-font-specification:'sans-serif Bold';fill:#f2f2f2;stroke-width:0.288159" />
  <g
     id="g877"
     transform="matrix(1.1,0,0,1.1,-3.1845928,-3.2065454)">
    <path
       id="path1-0"
       style="fill:#dfdfdf;fill-opacity:1;stroke:none;stroke-width:1.71997;stroke-dasharray:none;stroke-dashoffset:2.2;stroke-opacity:0.3"
       d="m 47.011164,9.4478143 c -0.903998,-3.762e-4 -1.871638,0.3636358 -3.082684,1.0732217 -2.881853,1.688531 -6.650779,2.484868 -11.826518,2.484868 -5.175242,0 -9.069893,-0.813281 -11.934585,-2.49207 -2.297108,-1.3461347 -3.668508,-1.3639756 -5.596344,-0.06413 -4.9494008,3.335389 -8.6795638,14.029254 -9.7738338,28.00342 -0.6562056,8.379693 -0.043231,12.797512 2.1247363,15.283735 1.0456333,1.198679 3.6125215,0.995462 5.9276755,-0.475359 1.962518,-1.246811 4.300843,-3.998053 7.094492,-8.347773 2.524456,-3.9306 5.577946,-5.22517 12.330721,-5.236239 6.739337,-0.01045 9.387829,1.2646 12.49637,6.042919 5.215411,8.016844 10.036077,10.807833 12.863712,7.44739 1.566482,-1.861642 1.853202,-3.660318 1.779009,-11.149478 C 59.278731,28.413838 55.722559,16.037597 50.598033,11.313971 49.233223,10.055922 48.173541,9.448999 47.011164,9.4485095 Z M 17.732932,17.464218 h 3.12589 3.125896 v 2.679342 2.679343 h 2.679344 2.679336 v 3.349176 3.349166 h -2.679336 -2.679344 v 2.902615 2.902619 h -2.830579 c -1.555061,0 -2.955007,-0.139382 -3.118707,-0.30246 -0.163624,-0.163621 -0.302467,-1.463109 -0.302467,-2.895406 v -2.607368 h -2.679373 -2.679348 v -3.349166 -3.349176 h 2.679348 2.67934 V 20.14356 Z m 25.482522,0 c 2.819972,0 4.027636,3.124462 1.995102,5.157017 -1.292621,1.292469 -2.472326,1.394061 -3.74531,0.316945 -2.208028,-1.868358 -1.055522,-5.473912 1.750208,-5.473912 z m -5.423494,5.726007 c 0.704144,4.89e-4 1.413131,0.28115 1.973485,0.900249 0.873491,0.965212 0.967844,3.17507 0.180098,4.206286 -1.541651,2.018215 -5.243436,0.720047 -5.243436,-1.836642 0,-1.940416 1.540739,-3.271006 3.089877,-3.26995 z m 11.070276,0.108746 c 0.811684,0.01531 1.599582,0.283627 2.059918,0.792234 0.873461,0.965213 0.96781,3.175055 0.180023,4.206283 -1.639769,2.146633 -5.243433,0.70986 -5.243433,-2.088738 0,-0.848273 0.339912,-1.767725 0.813852,-2.196766 0.541796,-0.490353 1.378048,-0.727846 2.189578,-0.713058 z m -5.452314,5.776407 c 2.500051,0 3.716502,2.651832 2.203962,4.811292 -0.51712,0.738159 -1.14765,0.993923 -2.448856,0.993923 -1.498093,0 -1.845721,-0.194977 -2.448841,-1.361327 -1.189197,-2.299691 0.108735,-4.443959 2.693735,-4.443959 z" />
  </g>
</svg>
