<?xml version="1.0" encoding="UTF-8" standalone="no"?>
<svg
   width="64"
   height="64"
   version="1.1"
   id="svg73"
   sodipodi:docname="media-cdr.svg"
   inkscape:version="1.4.2 (ebf0e940d0, 2025-05-08)"
   xmlns:inkscape="http://www.inkscape.org/namespaces/inkscape"
   xmlns:sodipodi="http://sodipodi.sourceforge.net/DTD/sodipodi-0.dtd"
   xmlns="http://www.w3.org/2000/svg"
   xmlns:svg="http://www.w3.org/2000/svg"
   xmlns:rdf="http://www.w3.org/1999/02/22-rdf-syntax-ns#"
   xmlns:cc="http://creativecommons.org/ns#"
   xmlns:dc="http://purl.org/dc/elements/1.1/">
  <metadata
     id="metadata77">
    <rdf:RDF>
      <cc:Work
         rdf:about="">
        <dc:format>image/svg+xml</dc:format>
        <dc:type
           rdf:resource="http://purl.org/dc/dcmitype/StillImage" />
      </cc:Work>
    </rdf:RDF>
  </metadata>
  <sodipodi:namedview
     pagecolor="#f5f7fa"
     bordercolor="#666666"
     borderopacity="1"
     objecttolerance="10"
     gridtolerance="10"
     guidetolerance="10"
     inkscape:pageopacity="0"
     inkscape:pageshadow="2"
     inkscape:window-width="1377"
     inkscape:window-height="886"
     id="namedview75"
     showgrid="false"
     inkscape:zoom="6.2890624"
     inkscape:cx="47.622361"
     inkscape:cy="45.396274"
     inkscape:window-x="0"
     inkscape:window-y="61"
     inkscape:window-maximized="0"
     inkscape:current-layer="g877"
     inkscape:document-rotation="0"
     inkscape:pagecheckerboard="0"
     inkscape:showpageshadow="2"
     inkscape:deskcolor="#d1d1d1" />
  <defs
     id="defs29" />
  <circle
     cx="32.516094"
     cy="31.877844"
     r="0"
     fill="url(#b)"
     stroke-width="1.5715"
     id="circle41"
     style="fill:url(#b)" />
  <g
     aria-label="GZ"
     transform="matrix(1.2212657,0,0,0.81882264,0.4960938,-0.1661539)"
     id="text93"
     style="font-weight:bold;font-size:11.5263px;line-height:1.25;font-family:sans-serif;-inkscape-font-specification:'sans-serif Bold';fill:#f2f2f2;stroke-width:0.288159" />
  <g
     id="g877"
     transform="matrix(1.1,0,0,1.1,-3.1845928,-3.2065454)">
    <path
       fill="#f5f7fa"
       d="m 31.985992,59.651632 c -15.50012,0 -28.0654452,-12.3774 -28.0654452,-27.645679 0,-15.268292 12.5653252,-27.6456836 28.0654452,-27.6456836 15.500112,0 28.065448,12.3773916 28.065448,27.6456836 0,15.268279 -12.565336,27.645679 -28.065448,27.645679 z m 0,-15.358715 c 6.888942,0 12.473525,-5.501066 12.473525,-12.286964 0,-6.785901 -5.584583,-12.286977 -12.473525,-12.286977 -6.88894,0 -12.473527,5.501076 -12.473527,12.286977 0,6.785898 5.584587,12.286964 12.473527,12.286964 z m 0,-3.071737 c -5.16671,0 -9.355145,-4.125793 -9.355145,-9.215227 0,-5.089432 4.188435,-9.215234 9.355145,-9.215234 5.166706,0 9.355156,4.125802 9.355156,9.215234 0,5.089434 -4.18845,9.215227 -9.355156,9.215227 z m 0,-3.071744 c 3.444468,0 6.236761,-2.750524 6.236761,-6.143471 0,-3.392968 -2.792293,-6.143501 -6.236761,-6.143501 -3.444472,0 -6.236763,2.750533 -6.236763,6.143501 0,3.392947 2.792291,6.143471 6.236763,6.143471 z"
       id="path42"
       style="fill:#dfdfdf;fill-opacity:1;stroke:none;stroke-width:1.81633;stroke-dasharray:none;stroke-opacity:0.3"
       sodipodi:nodetypes="ssssssssssssssssssss" />
  </g>
</svg>
