<?xml version="1.0" encoding="UTF-8" standalone="no"?>
<svg
   width="64"
   height="64"
   version="1.1"
   id="svg73"
   sodipodi:docname="memory.svg"
   inkscape:version="1.4.2 (ebf0e940d0, 2025-05-08)"
   xmlns:inkscape="http://www.inkscape.org/namespaces/inkscape"
   xmlns:sodipodi="http://sodipodi.sourceforge.net/DTD/sodipodi-0.dtd"
   xmlns="http://www.w3.org/2000/svg"
   xmlns:svg="http://www.w3.org/2000/svg"
   xmlns:rdf="http://www.w3.org/1999/02/22-rdf-syntax-ns#"
   xmlns:cc="http://creativecommons.org/ns#"
   xmlns:dc="http://purl.org/dc/elements/1.1/">
  <metadata
     id="metadata77">
    <rdf:RDF>
      <cc:Work
         rdf:about="">
        <dc:format>image/svg+xml</dc:format>
        <dc:type
           rdf:resource="http://purl.org/dc/dcmitype/StillImage" />
      </cc:Work>
    </rdf:RDF>
  </metadata>
  <sodipodi:namedview
     pagecolor="#f5f7fa"
     bordercolor="#666666"
     borderopacity="1"
     objecttolerance="10"
     gridtolerance="10"
     guidetolerance="10"
     inkscape:pageopacity="0"
     inkscape:pageshadow="2"
     inkscape:window-width="1377"
     inkscape:window-height="886"
     id="namedview75"
     showgrid="false"
     inkscape:zoom="6.2890624"
     inkscape:cx="47.622361"
     inkscape:cy="45.396274"
     inkscape:window-x="0"
     inkscape:window-y="61"
     inkscape:window-maximized="0"
     inkscape:current-layer="g877"
     inkscape:document-rotation="0"
     inkscape:pagecheckerboard="0"
     inkscape:showpageshadow="2"
     inkscape:deskcolor="#d1d1d1" />
  <defs
     id="defs29" />
  <circle
     cx="32.516094"
     cy="31.877844"
     r="0"
     fill="url(#b)"
     stroke-width="1.5715"
     id="circle41"
     style="fill:url(#b)" />
  <g
     aria-label="GZ"
     transform="matrix(1.2212657,0,0,0.81882264,0.4960938,-0.1661539)"
     id="text93"
     style="font-weight:bold;font-size:11.5263px;line-height:1.25;font-family:sans-serif;-inkscape-font-specification:'sans-serif Bold';fill:#f2f2f2;stroke-width:0.288159" />
  <g
     id="g877"
     transform="matrix(1.1,0,0,1.1,-3.1845928,-3.2065454)">
    <path
       style="color:#444444;fill:#dfdfdf;fill-opacity:1;stroke:none;stroke-width:1.6924;stroke-dasharray:none;stroke-opacity:0.3"
       class="ColorScheme-Text"
       d="m 4.6979999,47.355948 c 0,1.889742 1.5213528,3.411096 3.4111037,3.411096 h 3.4111104 3.411103 3.411103 3.411107 3.411106 V 43.944839 H 18.34242 14.931317 11.520214 4.6979999 Z m 0,-6.822217 h 3.4111037 27.2888454 3.410082 13.644767 3.411109 3.411104 v -6.822214 -3.411108 a 3.4111055,3.4111056 0 0 1 -3.411104,-3.411105 3.4111055,3.4111056 0 0 1 3.172316,-3.40428 5.1166581,5.1166581 0 0 1 0.238693,-0.007 v -3.410957 -1.705549 -1.705554 c 0,-1.889753 -1.521345,-3.411107 -3.411102,-3.411107 H 54.158352 52.452798 11.519187 9.8136306 8.1080828 c -1.8897562,0 -3.4111064,1.521354 -3.4111064,3.411107 v 1.705554 1.705549 3.411111 a 3.4111055,3.4111056 0 0 1 0.3411114,0.02033 3.4111055,3.4111056 0 0 1 3.0710169,3.390645 3.4111055,3.4111056 0 0 1 -3.4111048,3.411104 V 33.711432 37.1222 Z M 14.931317,33.711517 V 20.067096 h 6.82221 v 13.644421 z m 13.644421,0 V 20.067096 h 6.822211 v 13.644421 z m 3.411106,17.055527 h 3.411105 3.410082 3.411441 3.41111 3.411102 3.411114 3.411109 c 1.88975,0 3.411104,-1.521354 3.411104,-3.411096 v -3.411109 h -6.822213 -3.411114 -3.411102 -3.41111 -6.821523 -3.411105 z M 42.219472,33.711517 V 20.067096 h 6.822212 v 13.644421 z"
       id="path5-5" />
  </g>
</svg>
