<?xml version="1.0" encoding="UTF-8" standalone="no"?>
<svg
   width="64"
   height="64"
   version="1.1"
   id="svg73"
   sodipodi:docname="multimedia-player.svg"
   inkscape:version="1.4.2 (ebf0e940d0, 2025-05-08)"
   xmlns:inkscape="http://www.inkscape.org/namespaces/inkscape"
   xmlns:sodipodi="http://sodipodi.sourceforge.net/DTD/sodipodi-0.dtd"
   xmlns="http://www.w3.org/2000/svg"
   xmlns:svg="http://www.w3.org/2000/svg"
   xmlns:rdf="http://www.w3.org/1999/02/22-rdf-syntax-ns#"
   xmlns:cc="http://creativecommons.org/ns#"
   xmlns:dc="http://purl.org/dc/elements/1.1/">
  <metadata
     id="metadata77">
    <rdf:RDF>
      <cc:Work
         rdf:about="">
        <dc:format>image/svg+xml</dc:format>
        <dc:type
           rdf:resource="http://purl.org/dc/dcmitype/StillImage" />
      </cc:Work>
    </rdf:RDF>
  </metadata>
  <sodipodi:namedview
     pagecolor="#f5f7fa"
     bordercolor="#666666"
     borderopacity="1"
     objecttolerance="10"
     gridtolerance="10"
     guidetolerance="10"
     inkscape:pageopacity="0"
     inkscape:pageshadow="2"
     inkscape:window-width="1377"
     inkscape:window-height="886"
     id="namedview75"
     showgrid="false"
     inkscape:zoom="6.2890624"
     inkscape:cx="47.622361"
     inkscape:cy="45.396274"
     inkscape:window-x="0"
     inkscape:window-y="61"
     inkscape:window-maximized="0"
     inkscape:current-layer="g877"
     inkscape:document-rotation="0"
     inkscape:pagecheckerboard="0"
     inkscape:showpageshadow="2"
     inkscape:deskcolor="#d1d1d1" />
  <defs
     id="defs29" />
  <circle
     cx="32.516094"
     cy="31.877844"
     r="0"
     fill="url(#b)"
     stroke-width="1.5715"
     id="circle41"
     style="fill:url(#b)" />
  <g
     aria-label="GZ"
     transform="matrix(1.2212657,0,0,0.81882264,0.4960938,-0.1661539)"
     id="text93"
     style="font-weight:bold;font-size:11.5263px;line-height:1.25;font-family:sans-serif;-inkscape-font-specification:'sans-serif Bold';fill:#f2f2f2;stroke-width:0.288159" />
  <g
     id="g877"
     transform="matrix(1.1,0,0,1.1,-3.1845928,-3.2065454)">
    <path
       id="path6189"
       style="fill:#dfdfdf;fill-opacity:1;stroke-width:0.118111"
       d="m 21.27189,4.0958976 c -7.980251,-0.00146 -8.132211,0.044416 -8.619964,0.2269554 -0.817354,0.305816 -1.759571,1.1418019 -2.175859,1.9308441 L 10.157842,6.8569608 10.12707,31.800734 c -0.03039,24.762921 -0.02867,24.94757 0.207926,25.579736 0.431955,1.154498 1.459501,2.067868 2.708353,2.406701 0.420582,0.114103 4.662159,0.141476 19.201035,0.124049 l 18.66122,-0.0226 0.668737,-0.328468 c 0.878759,-0.43148 1.584905,-1.132424 1.97135,-1.956705 l 0.312862,-0.667644 V 31.955459 6.9750834 L 53.453398,6.2283198 C 53.008675,5.4081721 52.395214,4.8161816 51.564485,4.4068059 L 51.023616,4.1408122 32.163745,4.1095869 c -4.702127,-0.00772 -8.231887,-0.012911 -10.891962,-0.01347 z m 10.51957,4.8558951 c 12.100548,-0.023232 16.364746,0.00396 16.610301,0.105424 0.700752,0.2892648 0.673561,-0.1685453 0.673561,11.3590623 0,7.4233 -0.03883,10.670424 -0.131223,10.934436 -0.07304,0.210078 -0.278903,0.451997 -0.466598,0.549098 -0.290708,0.15031 -2.499892,0.172975 -16.492685,0.166422 -8.886636,-0.0042 -16.271562,-0.05369 -16.410766,-0.109824 -0.664279,-0.268076 -0.632558,0.304677 -0.632558,-11.477183 V 9.6458344 L 15.226533,9.3144308 15.51157,8.9830316 Z M 28.019095,15.27681 c -0.19223,-0.0068 -0.448125,0.102718 -0.619863,0.264055 l -0.292365,0.274789 v 4.683112 4.68312 l 0.265519,0.242084 c 0.146132,0.132941 0.345243,0.267855 0.442681,0.300173 0.09742,0.03239 0.361721,-0.01612 0.587155,-0.107866 0.987597,-0.401577 8.065711,-4.351144 8.275393,-4.61771 0.301994,-0.38391 0.293117,-0.652551 -0.03366,-1.027893 -0.355383,-0.408199 -8.204071,-4.679671 -8.624842,-4.693863 z m 13.142506,18.709052 c 2.45184,0.118846 4.058675,2.070136 3.861199,4.689456 -0.123078,1.631386 -1.100246,3.022314 -2.485303,3.537602 -2.738388,1.018765 -5.373849,-0.656637 -5.592412,-3.555661 -0.206575,-2.740078 1.648924,-4.795865 4.216516,-4.671397 z m -18.188753,0.03714 c 0.990507,-8.7e-4 1.201063,0.03847 1.795634,0.330431 0.851917,0.418348 1.656366,1.302054 1.988437,2.184637 0.215384,0.572413 0.24639,0.859616 0.20696,1.913757 -0.03992,1.066201 -0.09194,1.327333 -0.369469,1.863943 -0.598167,1.156591 -1.607324,1.904157 -2.903581,2.149984 -0.708088,0.134304 -0.810632,0.134025 -1.502798,-0.0032 -1.186713,-0.234862 -2.391347,-1.200034 -2.916762,-2.336905 -0.214756,-0.464651 -0.255267,-0.767492 -0.255267,-1.910343 0,-1.321372 0.01113,-1.378508 0.402656,-2.100693 0.456171,-0.841269 0.926732,-1.299034 1.816632,-1.767333 0.545676,-0.287162 0.743164,-0.32408 1.737563,-0.324585 z M 41.164036,45.93702 c 2.006497,0.05982 3.693877,1.677141 3.860227,3.883638 0.147298,1.954076 -0.724214,3.571094 -2.327167,4.31803 -0.948263,0.441892 -2.296756,0.486715 -3.197409,0.106414 -1.775213,-0.74954 -2.709659,-2.367787 -2.554602,-4.424437 0.150631,-1.997837 1.411153,-3.435006 3.342851,-3.811407 0.296144,-0.05828 0.589467,-0.08087 0.8761,-0.07227 z m -18.191188,0.03805 c 0.50108,0.0038 1.10626,0.08904 1.393466,0.195235 1.128592,0.417732 2.053099,1.358044 2.430631,2.472131 0.282691,0.834169 0.257399,2.498706 -0.05068,3.322341 -0.318933,0.852405 -1.135055,1.745872 -1.965003,2.151936 -0.793831,0.388364 -2.290387,0.507616 -3.008033,0.23967 -1.179246,-0.440492 -1.860118,-1.035998 -2.438936,-2.133113 -0.292185,-0.55384 -0.318233,-0.71458 -0.318233,-1.961585 0,-1.597421 0.178702,-2.112852 1.05669,-3.051478 0.779877,-0.833855 1.743481,-1.244439 2.900114,-1.235373 z" />
  </g>
</svg>
