<?xml version="1.0" encoding="UTF-8" standalone="no"?>
<svg
   width="64"
   height="64"
   version="1.1"
   id="svg73"
   sodipodi:docname="network-workgroup.svg"
   inkscape:version="1.4.2 (ebf0e940d0, 2025-05-08)"
   xmlns:inkscape="http://www.inkscape.org/namespaces/inkscape"
   xmlns:sodipodi="http://sodipodi.sourceforge.net/DTD/sodipodi-0.dtd"
   xmlns="http://www.w3.org/2000/svg"
   xmlns:svg="http://www.w3.org/2000/svg"
   xmlns:rdf="http://www.w3.org/1999/02/22-rdf-syntax-ns#"
   xmlns:cc="http://creativecommons.org/ns#"
   xmlns:dc="http://purl.org/dc/elements/1.1/">
  <metadata
     id="metadata77">
    <rdf:RDF>
      <cc:Work
         rdf:about="">
        <dc:format>image/svg+xml</dc:format>
        <dc:type
           rdf:resource="http://purl.org/dc/dcmitype/StillImage" />
      </cc:Work>
    </rdf:RDF>
  </metadata>
  <sodipodi:namedview
     pagecolor="#f5f7fa"
     bordercolor="#666666"
     borderopacity="1"
     objecttolerance="10"
     gridtolerance="10"
     guidetolerance="10"
     inkscape:pageopacity="0"
     inkscape:pageshadow="2"
     inkscape:window-width="1377"
     inkscape:window-height="886"
     id="namedview75"
     showgrid="false"
     inkscape:zoom="6.2890624"
     inkscape:cx="28.859628"
     inkscape:cy="17.570187"
     inkscape:window-x="264"
     inkscape:window-y="75"
     inkscape:window-maximized="0"
     inkscape:current-layer="g877"
     inkscape:document-rotation="0"
     inkscape:pagecheckerboard="0"
     inkscape:showpageshadow="2"
     inkscape:deskcolor="#d1d1d1" />
  <defs
     id="defs29" />
  <circle
     cx="32.516094"
     cy="31.877844"
     r="0"
     fill="url(#b)"
     stroke-width="1.5715"
     id="circle41"
     style="fill:url(#b)" />
  <g
     aria-label="GZ"
     transform="matrix(1.2212657,0,0,0.81882264,0.4960938,-0.1661539)"
     id="text93"
     style="font-weight:bold;font-size:11.5263px;line-height:1.25;font-family:sans-serif;-inkscape-font-specification:'sans-serif Bold';fill:#f2f2f2;stroke-width:0.288159" />
  <g
     id="g877"
     transform="matrix(1.1,0,0,1.1,-3.1845928,-3.2065454)">
    <path
       id="path59"
       style="fill:#dfdfdf;fill-opacity:1;stroke:none;stroke-width:0.942358;stroke-dasharray:none;stroke-dashoffset:2.2;stroke-opacity:0.6"
       d="m 32.09427,4.4419494 c -28.0622868,0 -26.9529382,-0.04214 -27.5457923,1.0656522 C 4.411394,5.7638239 4.3251106,8.2477511 4.3251106,12.02235 c 0,6.737927 0.012245,6.808593 1.3732642,7.40097 0.5536852,0.240991 5.1876802,0.29335 26.2677402,0.300281 23.254242,0.0078 25.663226,-0.02427 26.337319,-0.344225 1.350626,-0.640939 1.396422,-0.900629 1.325657,-7.642658 L 59.56694,5.6980277 58.86387,5.068161 58.157138,4.4419454 Z m 15.299962,2.3583472 c 0.857541,0.021925 1.67441,0.3770481 2.080035,0.996072 0.792952,1.2102076 0.287164,2.6311154 -1.153542,3.2409004 -0.854982,0.361898 -1.273664,0.360224 -2.134963,-0.01436 -0.872703,-0.379839 -1.373266,-1.1144841 -1.373266,-2.0141378 0,-0.9459472 0.303997,-1.4773125 1.072987,-1.8749584 0.465924,-0.2408977 0.994226,-0.3462814 1.508749,-0.3332449 z m -7.862383,0.011011 c 2.628294,0 3.340873,3.2269744 0.926502,4.1930234 -0.919237,0.367842 -1.063733,0.373985 -2.039757,0.0916 -1.360426,-0.3937 -1.946222,-1.8653973 -1.267063,-3.1787434 0.384839,-0.7441777 1.167547,-1.1059302 2.380318,-1.1059302 z m 14.717695,0 c 2.738243,0 3.593525,3.1815781 1.120581,4.1710474 -0.48067,0.192346 -0.993234,0.340274 -1.138888,0.329586 -2.313116,-0.169732 -3.307158,-2.2555403 -1.79437,-3.7683027 0.638171,-0.6383609 0.869546,-0.7324021 1.812677,-0.7324021 z M 30.058185,7.8878894 c 0.525991,0 1.402555,0.9895039 1.402555,1.5820013 0,0.4791479 -2.777466,4.3844323 -4.273594,6.0093913 -0.981297,1.065794 -2.618352,0.575717 -2.618352,-0.783677 0,-0.561912 0.43895,-1.282367 2.164262,-3.541178 2.120047,-2.7756395 2.623711,-3.2665618 3.325129,-3.2665618 z m -18.01719,0.036586 c 0.28635,-0.031911 0.548558,0.098538 0.864234,0.3332263 1.088773,0.8092601 0.912883,1.4356474 -1.168194,4.1711333 -1.028781,1.352327 -2.1182815,2.724766 -2.4206,3.050492 C 8.6559224,16.191003 7.7440432,16.25796 7.1265487,15.640488 6.3090981,14.823051 6.5525102,14.213636 8.9612175,11.066615 10.662646,8.8436893 11.410993,7.9942858 12.040995,7.9245953 Z m 6.086283,0.00748 c 0.09811,5.302e-4 0.197596,0.018238 0.300267,0.044088 0.703251,0.1763784 1.273977,1.0551497 1.109596,1.7100556 -0.133906,0.533619 -3.736164,5.355604 -4.485974,6.005744 -0.580874,0.503656 -1.523787,0.478776 -2.006789,-0.05497 -0.769094,-0.84981 -0.518098,-1.48568 1.713841,-4.387076 2.013997,-2.6180895 2.682453,-3.3214702 3.369059,-3.3177995 z m 5.716432,0.044088 c 0.607144,-0.042515 1.292544,0.2556466 1.450163,0.6664075 0.355192,0.9255807 0.08785,1.5045561 -1.933549,4.1636921 -1.139868,1.499561 -2.227604,2.847552 -2.413272,2.995619 -0.870859,0.694409 -2.405958,-0.02607 -2.405958,-1.127913 0,-0.748609 4.345102,-6.4815896 5.046277,-6.6575698 0.08169,-0.020504 0.169609,-0.034133 0.256333,-0.040304 z m 8.019849,16.2372816 c -12.905801,0.004 -25.785082,0.126218 -26.2421099,0.362561 -1.2873968,0.665719 -1.2963624,0.707607 -1.2963624,7.386331 0,3.757234 0.087473,6.260827 0.223387,6.514746 0.1213872,0.226865 0.4828922,0.557243 0.8056396,0.732402 0.5084416,0.275941 4.0748605,0.318417 26.6962057,0.325914 l 26.106618,0.0074 0.706739,-0.626199 0.703069,-0.629858 0.06215,-6.038694 c 0.07055,-6.772167 0.01291,-7.112769 -1.361963,-7.686608 -0.564933,-0.235817 -13.497453,-0.351556 -26.40326,-0.34769 z m 7.602377,2.427932 c 0.364304,0.0077 0.725418,0.117951 1.179171,0.333243 1.436272,0.681565 1.74404,2.46264 0.611578,3.526555 -0.383013,0.359747 -0.865715,0.530244 -1.713797,0.600556 -1.120686,0.09298 -1.221416,0.05665 -1.940918,-0.662817 -1.241033,-1.241033 -0.938092,-2.846634 0.662852,-3.515541 0.467311,-0.195258 0.836787,-0.289907 1.201142,-0.281967 z m 14.860503,0 c 0.364287,0.0077 0.725436,0.117951 1.179176,0.333243 1.436273,0.681555 1.74406,2.462628 0.611486,3.526537 -0.38303,0.359752 -0.865745,0.530243 -1.713823,0.600589 -1.12064,0.09298 -1.221353,0.05666 -1.940883,-0.66283 -1.241031,-1.241041 -0.938087,-2.846645 0.662846,-3.515549 0.467347,-0.195256 0.836763,-0.289902 1.201139,-0.281978 z m -6.829667,0.04763 c 0.116341,0.0051 0.228839,0.02032 0.336816,0.04404 0.846622,0.185978 1.850849,1.037809 2.021432,1.717493 0.195119,0.777265 -0.379393,1.965636 -1.138899,2.35835 -1.240606,0.641554 -3.15289,0.263625 -3.683966,-0.72874 -0.358351,-0.669601 -0.252912,-1.846434 0.216037,-2.442576 0.468534,-0.59555 1.433858,-0.987323 2.248479,-0.948461 z m -35.415496,1.226725 c 0.801039,0 1.505095,0.67358 1.505095,1.439181 0,0.717706 -4.1556273,6.265656 -4.9071209,6.551372 -0.6971965,0.265117 -0.7740436,0.253281 -1.4172092,-0.252633 -0.9716094,-0.764266 -0.7767934,-1.391647 1.2780427,-4.11246 2.5809984,-3.4175 2.7862534,-3.625406 3.5411924,-3.625418 z m 6.137557,0 c 0.556143,0 1.398897,0.908099 1.398897,1.508764 0,0.517 -4.299839,6.160366 -4.910788,6.445169 -0.571583,0.266438 -0.638516,0.265296 -1.259733,0.0145 -0.590689,-0.238183 -0.746494,-0.500009 -0.769024,-1.292556 -0.01406,-0.49367 0.485398,-1.299925 2.18623,-3.533861 2.235546,-2.936229 2.455087,-3.142014 3.354418,-3.142011 z m 5.789672,0.0073 c 0.410733,-0.01718 0.814564,0.107063 1.065657,0.384526 0.759663,0.839473 0.47855,1.548237 -1.805383,4.529972 -1.18991,1.553434 -2.347077,2.923437 -2.570756,3.043153 -0.223636,0.119706 -0.563546,0.219723 -0.754368,0.219723 -0.520809,0 -1.402561,-0.989231 -1.402561,-1.571012 0,-0.451612 2.989788,-4.654317 4.361478,-6.13024 0.278408,-0.299547 0.695206,-0.458937 1.105933,-0.476043 z m 5.815302,0.01803 c 0.98277,-0.105237 1.819947,0.729385 1.567354,1.735821 -0.168953,0.673272 -4.120836,5.812194 -4.727684,6.148502 -0.587574,0.325588 -0.788593,0.327491 -1.340306,0.0145 -1.30664,-0.740938 -1.085025,-1.493813 1.409878,-4.764301 1.190869,-1.561063 2.389219,-2.926315 2.662299,-3.032151 0.1437,-0.05569 0.28807,-0.08748 0.428461,-0.102586 z m 2.270463,16.339953 c -28.0622322,0 -26.9529409,-0.04166 -27.5457923,1.065657 -0.3059716,0.571531 -0.2992487,12.387087 0.00718,12.959934 0.1259526,0.235556 0.538102,0.615865 0.9155093,0.845914 0.6692909,0.408056 1.3177928,0.416681 26.373943,0.417331 28.179001,8.94e-4 26.801534,0.06412 27.498171,-1.281719 0.299593,-0.579322 0.340329,-1.492522 0.285795,-6.708824 l -0.0622,-6.042395 -0.703067,-0.626132 -0.706734,-0.6298 z m 6.774752,2.376682 c 0.178145,-0.0013 0.393661,0.01547 0.673784,0.04103 0.848083,0.06983 1.330897,0.237263 1.713835,0.596899 1.132478,1.063905 0.824719,2.844973 -0.611564,3.526542 -0.890804,0.422693 -1.528918,0.435118 -2.427923,0.0434 -1.557498,-0.677598 -1.839156,-2.284063 -0.615207,-3.508002 0.539604,-0.539716 0.732512,-0.695446 1.267057,-0.699473 z m 8.180981,0 c 1.18879,-0.07838 2.364339,0.538472 2.709903,1.585678 0.298465,0.904193 0.0089,1.681663 -0.860569,2.325383 -1.650415,1.22041 -4.086841,0.196487 -4.086841,-1.717506 0,-0.945936 0.303997,-1.477319 1.072987,-1.874951 0.368696,-0.190689 0.768291,-0.292518 1.16452,-0.318625 z m 6.679548,0 c 0.178145,-0.0013 0.393548,0.01547 0.673781,0.04103 0.848069,0.06983 1.330876,0.237263 1.713844,0.596899 1.132467,1.063919 0.824672,2.844992 -0.611613,3.526549 -0.89082,0.422688 -1.528915,0.435119 -2.427939,0.044 -1.557498,-0.677889 -1.839149,-2.284309 -0.615209,-3.508249 0.539659,-0.539661 0.7325,-0.695366 1.267063,-0.699476 z m -23.755597,1.069349 c 0.594334,0 1.486782,0.94928 1.486782,1.582011 0,0.478947 -2.777471,4.384456 -4.273591,6.009409 -1.021135,1.109059 -2.618357,0.600689 -2.618357,-0.834954 0,-0.476325 0.50485,-1.307159 1.955529,-3.215273 2.19666,-2.889295 2.830418,-3.541193 3.449637,-3.541193 z m -17.749863,0.05471 c 0.227413,0.02217 0.446697,0.141828 0.699451,0.329566 1.062763,0.789728 0.882577,1.427265 -1.179175,4.152758 -1.024694,1.354232 -2.1143649,2.728109 -2.4206038,3.053841 C 8.6550556,56.028458 7.7433704,56.095198 7.1265487,55.478397 6.3110438,54.662761 6.5555522,54.053584 8.9502362,50.930014 10.799135,48.51837 11.541913,47.713796 12.224096,47.780662 Z m 5.844596,0.03688 c 0.550872,0.01547 1.137027,0.360432 1.373261,0.878896 0.342065,0.750762 0.01718,1.347389 -2.457215,4.522622 -1.827836,2.345651 -2.084662,2.589286 -2.772163,2.647634 -0.54774,0.04577 -0.866668,-0.05828 -1.157194,-0.380885 -0.787274,-0.869787 -0.540709,-1.48045 1.809039,-4.507831 1.215502,-1.566044 2.422045,-2.943665 2.680611,-3.061462 0.161831,-0.07356 0.34006,-0.104247 0.523658,-0.09901 z m 5.760381,0.0038 c 0.520213,-0.02618 1.178137,0.251665 1.435514,0.637262 0.503802,0.754524 0.129639,1.564335 -2.010455,4.328536 -1.191512,1.53898 -2.278873,2.867388 -2.41694,2.955243 -0.869754,0.553276 -2.296093,-0.208595 -2.296093,-1.226786 0,-0.756094 4.363895,-6.486256 5.075569,-6.66489 0.06703,-0.01547 0.138078,-0.02619 0.212405,-0.02853 z" />
  </g>
</svg>
