<?xml version="1.0" encoding="UTF-8" standalone="no"?>
<svg
   width="64"
   height="64"
   version="1.1"
   id="svg73"
   sodipodi:docname="network-wireless.svg"
   inkscape:version="1.4.2 (ebf0e940d0, 2025-05-08)"
   xmlns:inkscape="http://www.inkscape.org/namespaces/inkscape"
   xmlns:sodipodi="http://sodipodi.sourceforge.net/DTD/sodipodi-0.dtd"
   xmlns="http://www.w3.org/2000/svg"
   xmlns:svg="http://www.w3.org/2000/svg"
   xmlns:rdf="http://www.w3.org/1999/02/22-rdf-syntax-ns#"
   xmlns:cc="http://creativecommons.org/ns#"
   xmlns:dc="http://purl.org/dc/elements/1.1/">
  <metadata
     id="metadata77">
    <rdf:RDF>
      <cc:Work
         rdf:about="">
        <dc:format>image/svg+xml</dc:format>
        <dc:type
           rdf:resource="http://purl.org/dc/dcmitype/StillImage" />
      </cc:Work>
    </rdf:RDF>
  </metadata>
  <sodipodi:namedview
     pagecolor="#f5f7fa"
     bordercolor="#666666"
     borderopacity="1"
     objecttolerance="10"
     gridtolerance="10"
     guidetolerance="10"
     inkscape:pageopacity="0"
     inkscape:pageshadow="2"
     inkscape:window-width="1377"
     inkscape:window-height="886"
     id="namedview75"
     showgrid="false"
     inkscape:zoom="6.2890624"
     inkscape:cx="47.622361"
     inkscape:cy="45.396274"
     inkscape:window-x="0"
     inkscape:window-y="61"
     inkscape:window-maximized="0"
     inkscape:current-layer="g877"
     inkscape:document-rotation="0"
     inkscape:pagecheckerboard="0"
     inkscape:showpageshadow="2"
     inkscape:deskcolor="#d1d1d1" />
  <defs
     id="defs29" />
  <circle
     cx="32.516094"
     cy="31.877844"
     r="0"
     fill="url(#b)"
     stroke-width="1.5715"
     id="circle41"
     style="fill:url(#b)" />
  <g
     aria-label="GZ"
     transform="matrix(1.2212657,0,0,0.81882264,0.4960938,-0.1661539)"
     id="text93"
     style="font-weight:bold;font-size:11.5263px;line-height:1.25;font-family:sans-serif;-inkscape-font-specification:'sans-serif Bold';fill:#f2f2f2;stroke-width:0.288159" />
  <g
     id="g877"
     transform="matrix(1.1,0,0,1.1,-3.1845928,-3.2065454)">
    <path
       id="path7250"
       style="fill:#dfdfdf;fill-opacity:1;stroke:none;stroke-width:0.400802;stroke-dasharray:none;stroke-opacity:1"
       d="M 32.49241,13.581808 C 26.6816,13.51099 20.852906,14.776349 15.591499,17.330957 11.751341,19.195494 8.1898546,21.730869 5.2650617,24.682623 l -0.7874954,0.794521 3.0609694,2.776605 3.0605013,2.776611 0.933187,-0.870411 c 0.513099,-0.478723 1.109327,-1.021847 1.325293,-1.206777 8.948391,-7.662239 21.691135,-9.231776 32.248858,-3.972137 2.725733,1.357907 4.909291,2.896193 7.293577,5.137218 l 0.977218,0.918198 3.058632,-2.777543 3.058619,-2.778019 -0.869465,-0.876032 C 54.279761,20.227044 48.878717,17.003331 42.805733,15.162417 39.458917,14.147896 35.978898,13.624296 32.49241,13.581808 Z m -0.509223,9.63451 c -1.33532,7.9e-5 -2.670348,0.04978 -3.405762,0.148489 -6.273522,0.841476 -11.650761,3.422414 -16.21273,7.781718 -0.410635,0.392384 -0.736277,0.743092 -0.723786,0.77953 0.01237,0.0365 1.391575,1.307442 3.064715,2.824393 l 3.041763,2.757865 0.605259,-0.586052 c 2.921513,-2.828661 6.950453,-4.734145 11.170614,-5.283843 1.241419,-0.161601 3.684187,-0.161549 4.921724,5.47e-4 4.221035,0.552611 7.782859,2.202053 10.994007,5.091303 l 0.820747,0.738306 0.176643,-0.158345 c 0.864476,-0.772558 5.521069,-4.987087 5.705465,-5.163925 l 0.237973,-0.22815 -0.3181,-0.331673 c -1.24277,-1.295798 -3.45512,-3.063689 -5.207964,-4.161868 -1.251779,-0.784257 -3.560375,-1.930057 -4.905785,-2.435096 -1.998601,-0.750222 -4.323786,-1.326445 -6.557145,-1.625115 -0.73695,-0.09854 -2.072312,-0.148117 -3.407635,-0.148037 z m -0.176148,9.552524 c -0.315628,0.0033 -0.631689,0.0145 -0.947711,0.03415 -4.371699,0.273676 -8.35407,2.005024 -11.643297,5.060875 l -0.543894,0.505012 3.068934,2.782226 c 1.687812,1.530264 3.08066,2.783835 3.095168,2.785513 0.0145,0.0015 0.230622,-0.172957 0.480643,-0.388368 3.757723,-3.237756 9.410584,-3.287638 13.194863,-0.11622 l 0.614169,0.514869 0.343841,-0.30401 c 0.189142,-0.167166 1.579251,-1.422508 3.089074,-2.789236 l 2.745239,-2.484719 -0.627745,-0.587928 C 41.194938,34.522178 36.541405,32.720522 31.807049,32.76884 Z m -0.07307,9.59844 c -0.513681,0.01125 -1.02187,0.06711 -1.513154,0.170955 -1.561259,0.330251 -3.126353,1.109423 -4.140784,2.062199 l -0.252503,0.237572 3.081584,2.797228 3.081581,2.79768 1.820468,-1.655095 c 1.001187,-0.910142 2.386867,-2.163668 3.079242,-2.785492 l 1.258766,-1.130391 -0.377108,-0.35372 c -1.484864,-1.39293 -3.812135,-2.188763 -6.038099,-2.140921 z" />
  </g>
</svg>
