<?xml version="1.0" encoding="UTF-8" standalone="no"?>
<svg
   width="64"
   height="64"
   version="1.1"
   id="svg73"
   sodipodi:docname="scanner.svg"
   inkscape:version="1.4.2 (ebf0e940d0, 2025-05-08)"
   xmlns:inkscape="http://www.inkscape.org/namespaces/inkscape"
   xmlns:sodipodi="http://sodipodi.sourceforge.net/DTD/sodipodi-0.dtd"
   xmlns="http://www.w3.org/2000/svg"
   xmlns:svg="http://www.w3.org/2000/svg"
   xmlns:rdf="http://www.w3.org/1999/02/22-rdf-syntax-ns#"
   xmlns:cc="http://creativecommons.org/ns#"
   xmlns:dc="http://purl.org/dc/elements/1.1/">
  <metadata
     id="metadata77">
    <rdf:RDF>
      <cc:Work
         rdf:about="">
        <dc:format>image/svg+xml</dc:format>
        <dc:type
           rdf:resource="http://purl.org/dc/dcmitype/StillImage" />
      </cc:Work>
    </rdf:RDF>
  </metadata>
  <sodipodi:namedview
     pagecolor="#f5f7fa"
     bordercolor="#666666"
     borderopacity="1"
     objecttolerance="10"
     gridtolerance="10"
     guidetolerance="10"
     inkscape:pageopacity="0"
     inkscape:pageshadow="2"
     inkscape:window-width="1377"
     inkscape:window-height="886"
     id="namedview75"
     showgrid="false"
     inkscape:zoom="6.2890624"
     inkscape:cx="47.622361"
     inkscape:cy="45.396274"
     inkscape:window-x="0"
     inkscape:window-y="61"
     inkscape:window-maximized="0"
     inkscape:current-layer="g877"
     inkscape:document-rotation="0"
     inkscape:pagecheckerboard="0"
     inkscape:showpageshadow="2"
     inkscape:deskcolor="#d1d1d1" />
  <defs
     id="defs29" />
  <circle
     cx="32.516094"
     cy="31.877844"
     r="0"
     fill="url(#b)"
     stroke-width="1.5715"
     id="circle41"
     style="fill:url(#b)" />
  <g
     aria-label="GZ"
     transform="matrix(1.2212657,0,0,0.81882264,0.4960938,-0.1661539)"
     id="text93"
     style="font-weight:bold;font-size:11.5263px;line-height:1.25;font-family:sans-serif;-inkscape-font-specification:'sans-serif Bold';fill:#f2f2f2;stroke-width:0.288159" />
  <g
     id="g877"
     transform="matrix(1.1,0,0,1.1,-3.1845928,-3.2065454)">
    <path
       style="fill:#dfdfdf;fill-opacity:1;stroke:none;stroke-width:1.75253;stroke-dasharray:none;stroke-opacity:0.3"
       d="M 13.058435,58.935716 C 10.160997,58.598271 7.7308479,56.480899 6.8955111,53.566016 6.7185147,52.948397 6.6974837,51.856944 6.6627119,41.486124 L 6.6243549,30.085203 H 31.983308 57.342242 l -0.0367,11.400921 c -0.04246,12.71564 0.0095,11.878458 -0.848595,13.607533 -0.582349,1.173251 -1.91156,2.50251 -3.084787,3.084811 -1.145903,0.568808 -1.93998,0.751126 -3.645611,0.837462 L 48.28578,59.08855 48.25395,53.102064 48.22294,47.115547 47.961171,46.584349 C 47.627118,45.906479 46.94269,45.2221 46.264583,44.888078 L 45.733138,44.626306 32.158875,44.596136 C 16.561149,44.561876 17.91601,44.47061 16.754512,45.634007 c -1.105075,1.106925 -1.066117,0.828784 -1.066117,7.611946 v 5.807633 l -0.933578,-0.01547 c -0.512964,-0.0096 -1.276284,-0.05546 -1.6958,-0.103598 z m 30.835938,-20.08382 c 0.548413,-0.372659 0.763132,-0.808268 0.762615,-1.547084 -7.69e-4,-1.112011 -0.684524,-1.787058 -1.810136,-1.787058 -1.125588,0 -1.809355,0.675038 -1.810132,1.787058 -7.66e-4,1.139394 0.684293,1.833227 1.810132,1.833227 0.483661,0 0.722434,-0.06534 1.04754,-0.286173 z m 7.185942,0.06042 c 0.552166,-0.336682 0.818535,-0.852376 0.818535,-1.58486 0,-1.135765 -0.673874,-1.809724 -1.80972,-1.809724 -1.135771,0 -1.809708,0.673963 -1.809708,1.809724 0,1.135764 0.673877,1.809721 1.809708,1.809721 0.421982,0 0.74117,-0.0726 0.991217,-0.224877 z M 17.498896,56.338441 v -2.71586 h 14.484542 14.484561 v 2.71586 2.715848 H 31.983438 17.498896 Z M 6.6655494,25.021256 c 0.06557,-3.622911 0.1252071,-4.008076 0.8457573,-5.459999 0.581964,-1.172586 1.9113195,-2.502178 3.0847983,-3.085342 1.390263,-0.690904 2.022683,-0.805891 4.469847,-0.81269 1.989589,-0.0059 2.18382,0.01251 2.602683,0.236975 0.991685,0.53232 1.450667,1.232773 1.583355,2.416302 0.10296,0.917781 0.306634,1.421551 0.770465,1.905092 0.786157,0.819571 -0.71106,0.747785 16.940044,0.812079 l 15.899055,0.05784 0.669875,0.253822 c 0.951139,0.360365 1.539457,0.729481 2.154599,1.35184 1.093727,1.106557 1.496904,2.156007 1.604961,4.17768 l 0.07422,1.399683 H 31.986343 6.6067724 Z M 22.442173,19.055138 c -0.799856,-0.280267 -1.208986,-0.848166 -1.208986,-1.678152 0,-0.582139 0.335085,-1.154283 0.849096,-1.449884 0.186485,-0.107217 4.438324,-1.630363 9.448518,-3.384681 5.010176,-1.75433 12.010171,-4.2053433 15.55553,-5.4467038 7.044939,-2.4666866 6.922634,-2.4375084 7.650378,-1.8251712 0.901932,0.7589458 0.90646,2.0971646 0.0096,2.7360378 -0.179114,0.127523 -2.382262,0.9514824 -4.89593,1.8310248 -2.514385,0.8795464 -6.506068,2.2762764 -8.871121,3.1038484 -14.559808,5.094709 -17.568979,6.14149 -17.822741,6.199891 -0.155608,0.03578 -0.477234,-0.0036 -0.714744,-0.08623 z"
       id="path1-3" />
  </g>
</svg>
