<?xml version="1.0" encoding="UTF-8" standalone="no"?>
<svg
   width="64"
   height="64"
   version="1.1"
   id="svg73"
   sodipodi:docname="application-audio-playlist.svg"
   inkscape:version="1.3.2 (091e20ef0f, 2023-11-25)"
   xmlns:inkscape="http://www.inkscape.org/namespaces/inkscape"
   xmlns:sodipodi="http://sodipodi.sourceforge.net/DTD/sodipodi-0.dtd"
   xmlns="http://www.w3.org/2000/svg"
   xmlns:svg="http://www.w3.org/2000/svg"
   xmlns:rdf="http://www.w3.org/1999/02/22-rdf-syntax-ns#"
   xmlns:cc="http://creativecommons.org/ns#"
   xmlns:dc="http://purl.org/dc/elements/1.1/">
  <metadata
     id="metadata77">
    <rdf:RDF>
      <cc:Work
         rdf:about="">
        <dc:format>image/svg+xml</dc:format>
        <dc:type
           rdf:resource="http://purl.org/dc/dcmitype/StillImage" />
      </cc:Work>
    </rdf:RDF>
  </metadata>
  <sodipodi:namedview
     pagecolor="#f5f7fa"
     bordercolor="#666666"
     borderopacity="1"
     objecttolerance="10"
     gridtolerance="10"
     guidetolerance="10"
     inkscape:pageopacity="0"
     inkscape:pageshadow="2"
     inkscape:window-width="1377"
     inkscape:window-height="886"
     id="namedview75"
     showgrid="false"
     inkscape:zoom="4.4470387"
     inkscape:cx="47.784608"
     inkscape:cy="14.054296"
     inkscape:window-x="424"
     inkscape:window-y="101"
     inkscape:window-maximized="0"
     inkscape:current-layer="g877"
     inkscape:document-rotation="0"
     inkscape:pagecheckerboard="0"
     inkscape:showpageshadow="2"
     inkscape:deskcolor="#d1d1d1" />
  <defs
     id="defs29">
    <linearGradient
       id="b"
       x1="399.57"
       x2="399.57"
       y1="545.8"
       y2="517.8"
       gradientTransform="matrix(2.1429,0,0,2.1429,-825.86391,-1107.6662)"
       gradientUnits="userSpaceOnUse">
      <stop
         stop-color="#3889e9"
         offset="0"
         id="stop2" />
      <stop
         stop-color="#5ea5fb"
         offset="1"
         id="stop4" />
    </linearGradient>
    <linearGradient
       id="d"
       x2="1"
       gradientTransform="matrix(14.905727,-4.7106182,4.7106182,14.905727,322.04962,998.26962)"
       gradientUnits="userSpaceOnUse">
      <stop
         stop-color="#fafafa"
         offset="0"
         id="stop7" />
      <stop
         stop-color="#aaa"
         offset="1"
         id="stop8" />
    </linearGradient>
    <linearGradient
       id="e"
       x2="1"
       gradientTransform="matrix(21.439909,0,0,21.439909,26.63554,1159.7788)"
       gradientUnits="userSpaceOnUse">
      <stop
         stop-color="#f0f0f0"
         offset="0"
         id="stop9" />
      <stop
         stop-color="#b7f1ff"
         offset="1"
         id="stop10" />
    </linearGradient>
  </defs>
  <circle
     cx="32.516094"
     cy="31.877844"
     r="0"
     fill="url(#b)"
     stroke-width="1.5715"
     id="circle41"
     style="fill:url(#b)" />
  <g
     aria-label="GZ"
     transform="matrix(1.2212657,0,0,0.81882264,0.4960938,-0.1661539)"
     id="text93"
     style="font-weight:bold;font-size:11.5263px;line-height:1.25;font-family:sans-serif;-inkscape-font-specification:'sans-serif Bold';fill:#f2f2f2;stroke-width:0.288159" />
  <g
     id="g877"
     transform="matrix(1.1,0,0,1.1,-3.1845928,-3.2065454)">
    <rect
       x="13.389396"
       y="8.0488043"
       width="37.45882"
       height="48.038597"
       rx="7.9658151"
       ry="9.6898966"
       fill="url(#linearGradient862)"
       stroke-width="3.0541"
       id="rect35-7-3"
       style="fill:#414141;fill-opacity:1;stroke:#dfdfdf;stroke-width:2.27272727;stroke-dasharray:none;stroke-opacity:1" />
    <path
       d="m 36.231387,35.748014 c 0.08716,0.218916 0.148586,0.452692 0.181276,0.701327 0.126796,0.949964 -0.162454,2.066343 -0.836047,3.227301 -1.481903,2.554698 -3.885044,3.50169 -5.489778,3.299612 -0.03566,-0.004 -0.06934,-0.01586 -0.09906,-0.03269 -0.05052,-0.02972 -0.09113,-0.07627 -0.112925,-0.132738 -0.03567,-0.08915 -0.01882,-0.191182 0.04359,-0.265475 0.63496,-0.747885 0.464582,-1.496762 0.248637,-2.444745 -0.225852,-0.991567 -0.482413,-2.114881 0.211982,-3.427395 0.873688,-1.653275 1.917758,-2.24663 2.638897,-2.453662 0.149578,-0.04261 0.300145,-0.07231 0.451703,-0.09113 z m 6.464509,-14.373276 c 0.553731,0.321938 0.765714,1.016334 0.483401,1.591858 -0.176325,0.361559 -4.333777,8.85675 -5.026188,10.051386 -0.347692,0.598309 -0.990577,1.412563 -1.591859,2.125777 l -2.76272,-1.619593 c 0.320948,-0.875669 0.706282,-1.833558 1.048031,-2.423941 0.68449,-1.179779 6.000917,-9.021187 6.226768,-9.354021 0.35958,-0.53095 1.067843,-0.692414 1.622567,-0.371466 z M 29.427113,38.721725 c 0.02872,0.545809 0.143634,1.047041 0.246655,1.498744 0.221888,0.972746 0.309059,1.463081 -0.135711,1.988088 -0.09014,0.106983 -0.147595,0.232786 -0.172361,0.364532 -0.169387,-0.17038 -0.297173,-0.396232 -0.350664,-0.683498 -0.06934,-0.468542 -0.216936,-0.704299 -0.512127,-0.818217 -0.41307,-0.144623 -0.869726,-0.15651 -1.264967,-0.15651 -0.07429,0 -0.148588,0 -0.222881,8.91e-4 -0.905387,0.0059 -1.787,0.0059 -2.451678,-0.858832 -0.75581,-0.984634 -0.317975,-1.872191 0.105002,-2.73102 0.223871,-0.454677 0.455664,-0.92421 0.502222,-1.401666 0.01189,-0.105002 -0.0089,-0.18722 -0.06538,-0.25557 -0.213965,-0.261515 -0.907368,-0.315004 -1.57898,-0.367505 -0.682506,-0.05251 -1.387799,-0.106982 -1.824642,-0.366513 -0.810293,-0.483403 -1.00841,-1.195626 -1.031192,-1.709737 -0.04359,-0.96284 0.506186,-2.054456 1.336289,-2.655737 0.04459,-0.03269 0.106982,-0.02476 0.141653,0.01783 0.03567,0.04261 0.03269,0.105001 -0.0068,0.143633 -0.648828,0.622084 -1.279826,2.115874 -0.75383,2.949939 0.283305,0.433873 0.750858,0.619111 1.564121,0.619111 0.236749,0 0.483403,-0.01486 0.722132,-0.02872 0.232785,-0.01386 0.473497,-0.02872 0.698356,-0.02872 0.27241,0 0.487365,0.02081 0.673594,0.06538 0.639913,0.121841 1.216428,0.542838 1.463081,1.071806 0.296185,0.63694 0.138683,1.307562 -0.07529,1.937567 -0.01486,0.04458 -0.0416,0.106983 -0.07529,0.18623 -0.132737,0.312031 -0.440808,1.039114 -0.226842,1.306572 0.01882,0.01684 0.08024,0.04953 0.256559,0.04953 0.251606,0 0.611186,-0.06241 0.992558,-0.128775 0.426938,-0.07529 0.868735,-0.151558 1.221382,-0.151558 0.04359,0 0.08519,8.91e-4 0.124814,0.0029 0.233775,0.01486 0.464579,0.06141 0.700337,0.139671 z"
       fill="#4d2167"
       id="path8"
       style="fill:#dfdfdf;fill-opacity:1;stroke-width:0.990585" />
  </g>
</svg>
