<?xml version="1.0" encoding="UTF-8" standalone="no"?>
<svg
   width="64"
   height="64"
   version="1.1"
   id="svg73"
   sodipodi:docname="application-x-st-disk-image.svg"
   inkscape:version="1.3.2 (091e20ef0f, 2023-11-25)"
   xmlns:inkscape="http://www.inkscape.org/namespaces/inkscape"
   xmlns:sodipodi="http://sodipodi.sourceforge.net/DTD/sodipodi-0.dtd"
   xmlns="http://www.w3.org/2000/svg"
   xmlns:svg="http://www.w3.org/2000/svg"
   xmlns:rdf="http://www.w3.org/1999/02/22-rdf-syntax-ns#"
   xmlns:cc="http://creativecommons.org/ns#"
   xmlns:dc="http://purl.org/dc/elements/1.1/">
  <metadata
     id="metadata77">
    <rdf:RDF>
      <cc:Work
         rdf:about="">
        <dc:format>image/svg+xml</dc:format>
        <dc:type
           rdf:resource="http://purl.org/dc/dcmitype/StillImage" />
      </cc:Work>
    </rdf:RDF>
  </metadata>
  <sodipodi:namedview
     pagecolor="#f5f7fa"
     bordercolor="#666666"
     borderopacity="1"
     objecttolerance="10"
     gridtolerance="10"
     guidetolerance="10"
     inkscape:pageopacity="0"
     inkscape:pageshadow="2"
     inkscape:window-width="1377"
     inkscape:window-height="886"
     id="namedview75"
     showgrid="false"
     inkscape:zoom="4.4470387"
     inkscape:cx="47.897042"
     inkscape:cy="14.054296"
     inkscape:window-x="119"
     inkscape:window-y="32"
     inkscape:window-maximized="0"
     inkscape:current-layer="g877"
     inkscape:document-rotation="0"
     inkscape:pagecheckerboard="0"
     inkscape:showpageshadow="2"
     inkscape:deskcolor="#d1d1d1" />
  <defs
     id="defs29">
    <linearGradient
       id="b"
       x1="399.57"
       x2="399.57"
       y1="545.8"
       y2="517.8"
       gradientTransform="matrix(2.1429,0,0,2.1429,-825.86391,-1107.6662)"
       gradientUnits="userSpaceOnUse">
      <stop
         stop-color="#3889e9"
         offset="0"
         id="stop2" />
      <stop
         stop-color="#5ea5fb"
         offset="1"
         id="stop4" />
    </linearGradient>
    <linearGradient
       id="d"
       x2="1"
       gradientTransform="matrix(14.905727,-4.7106182,4.7106182,14.905727,322.04962,998.26962)"
       gradientUnits="userSpaceOnUse">
      <stop
         stop-color="#fafafa"
         offset="0"
         id="stop7" />
      <stop
         stop-color="#aaa"
         offset="1"
         id="stop8" />
    </linearGradient>
    <linearGradient
       id="e"
       x2="1"
       gradientTransform="matrix(21.439909,0,0,21.439909,26.63554,1159.7788)"
       gradientUnits="userSpaceOnUse">
      <stop
         stop-color="#f0f0f0"
         offset="0"
         id="stop9" />
      <stop
         stop-color="#b7f1ff"
         offset="1"
         id="stop10" />
    </linearGradient>
    <linearGradient
       id="_Linear2"
       x2="1"
       gradientTransform="matrix(-0.33662128,-17.588561,17.588561,-0.33662128,289.63742,32.316102)"
       gradientUnits="userSpaceOnUse">
      <stop
         style="stop-color:#fefffe"
         offset="0"
         id="stop5" />
      <stop
         style="stop-color:#f1f1f0"
         offset="1"
         id="stop6" />
    </linearGradient>
    <clipPath
       clipPathUnits="userSpaceOnUse"
       id="clipPath7">
      <path
         d="m 33.894,28.457 v 1.292 h -8.831 v -1.292 z m 5.169,-2.508 v 1.292 h -14 v -1.292 z m 0,-2.538 v 1.292 h -14 v -1.292 z"
         style="display:block;fill:#d9dee3"
         id="path7" />
    </clipPath>
    <inkscape:path-effect
       effect="powerclip"
       id="path-effect7"
       is_visible="true"
       lpeversion="1"
       inverse="true"
       flatten="false"
       hide_clip="false"
       message="Use fill-rule evenodd on &lt;b&gt;fill and stroke&lt;/b&gt; dialog if no flatten result after convert clip to paths." />
  </defs>
  <circle
     cx="32.516094"
     cy="31.877844"
     r="0"
     fill="url(#b)"
     stroke-width="1.5715"
     id="circle41"
     style="fill:url(#b)" />
  <g
     aria-label="GZ"
     transform="matrix(1.2212657,0,0,0.81882264,0.4960938,-0.1661539)"
     id="text93"
     style="font-weight:bold;font-size:11.5263px;line-height:1.25;font-family:sans-serif;-inkscape-font-specification:'sans-serif Bold';fill:#f2f2f2;stroke-width:0.288159" />
  <g
     id="g877"
     transform="matrix(1.1,0,0,1.1,-3.1845928,-3.2065454)">
    <rect
       x="13.389396"
       y="8.0488043"
       width="37.45882"
       height="48.038597"
       rx="7.9658151"
       ry="9.6898966"
       fill="url(#linearGradient862)"
       stroke-width="3.0541"
       id="rect35-7-3"
       style="fill:#414141;fill-opacity:1;stroke:#dfdfdf;stroke-width:2.27272727;stroke-dasharray:none;stroke-opacity:1" />
    <path
       d="m 32.291448,39.770496 c -0.148182,0.0091 -0.296364,0.03364 -0.44,0.07273 -0.575455,0.153636 -1.082727,0.543636 -1.38,1.06 -0.298182,0.515455 -0.381818,1.15 -0.227273,1.725455 0.154546,0.575454 0.544546,1.081818 1.06,1.38 0.515455,0.297272 1.150909,0.380909 1.725455,0.227272 0.575454,-0.154545 1.082727,-0.544545 1.38,-1.06 0.298182,-0.516363 0.381818,-1.150909 0.227273,-1.726363 -0.154546,-0.574546 -0.544546,-1.081819 -1.06,-1.379091 -0.386364,-0.223637 -0.84,-0.328182 -1.285455,-0.3 z m 6.393636,-9.093637 c -0.651818,0.01818 -1.299091,0.226364 -1.827272,0.609091 -0.611819,0.444546 -1.045455,1.083637 -1.522728,1.669091 -0.239091,0.292727 -0.492727,0.576364 -0.785454,0.815455 -0.292727,0.239091 -0.627273,0.434545 -0.991818,0.532727 -0.365455,0.09727 -0.752728,0.09454 -1.126364,0.03364 -0.372727,-0.06091 -0.734545,-0.18 -1.088182,-0.314545 -0.707273,-0.269091 -1.401818,-0.606364 -2.153636,-0.685455 -1.038182,-0.109091 -2.119091,0.320909 -2.796364,1.113637 -0.678182,0.791818 -0.934545,1.924545 -0.664545,2.930909 0.27,1.006363 1.058182,1.858182 2.041818,2.205454 0.984545,0.347273 2.135454,0.180909 2.98,-0.431818 0.611818,-0.443636 1.045454,-1.082727 1.522727,-1.669091 0.239091,-0.292727 0.492727,-0.575454 0.785455,-0.814545 0.292727,-0.239091 0.627272,-0.434546 0.991818,-0.532727 0.365454,-0.09727 0.752727,-0.09455 1.126364,-0.03364 0.372727,0.06091 0.734545,0.18 1.088181,0.314546 0.707273,0.269091 1.401819,0.605454 2.153637,0.685454 1.038182,0.109091 2.119091,-0.321818 2.796363,-1.113636 0.678182,-0.791818 0.934546,-1.925455 0.664546,-2.931818 -0.27,-1.006364 -1.058182,-1.857273 -2.041818,-2.204546 -0.369091,-0.130909 -0.761819,-0.189091 -1.152728,-0.178183 z m -0.191818,-9.09 c -0.868182,0.02273 -1.732727,0.293637 -2.435454,0.791819 -0.816364,0.577272 -1.393637,1.41 -2.03,2.170909 -0.318182,0.380909 -0.657273,0.748181 -1.047273,1.058181 -0.390909,0.31091 -0.835455,0.563637 -1.322727,0.69091 -0.487273,0.127272 -1.002728,0.125454 -1.500909,0.04636 -0.497273,-0.07909 -0.98091,-0.233636 -1.451819,-0.408182 -0.942727,-0.35 -1.87,-0.789091 -2.873636,-0.891818 -1.383636,-0.141818 -2.824545,0.417273 -3.728182,1.447273 -0.903636,1.03 -1.246364,2.501818 -0.886363,3.81 0.360909,1.309091 1.413636,2.416364 2.725454,2.868182 1.311818,0.451818 2.846364,0.235454 3.971818,-0.560909 0.816364,-0.577273 1.393637,-1.41 2.03,-2.171819 0.318182,-0.380909 0.657273,-0.747272 1.047273,-1.058181 0.390909,-0.310909 0.835455,-0.563637 1.322727,-0.690909 0.487273,-0.127273 1.002728,-0.125455 1.500909,-0.04636 0.497273,0.07909 0.980909,0.233636 1.451819,0.409091 0.942727,0.349091 1.87,0.788182 2.873636,0.890909 1.383636,0.141818 2.824545,-0.417273 3.728182,-1.447273 0.903636,-1.03 1.246363,-2.501818 0.886363,-3.81 -0.360909,-1.308182 -1.413636,-2.415454 -2.725454,-2.867273 -0.492727,-0.17 -1.014546,-0.245454 -1.536364,-0.230909 z"
       style="clip-rule:evenodd;fill:#dfdfdf;fill-rule:nonzero;stroke-width:0.909091;stroke-linejoin:round;stroke-miterlimit:2;fill-opacity:1"
       id="path2" />
  </g>
</svg>
