<?xml version="1.0" encoding="UTF-8" standalone="no"?>
<svg
   width="64"
   height="64"
   version="1.1"
   id="svg73"
   sodipodi:docname="application-blank.svg"
   inkscape:version="1.3.2 (091e20ef0f, 2023-11-25)"
   xmlns:inkscape="http://www.inkscape.org/namespaces/inkscape"
   xmlns:sodipodi="http://sodipodi.sourceforge.net/DTD/sodipodi-0.dtd"
   xmlns="http://www.w3.org/2000/svg"
   xmlns:svg="http://www.w3.org/2000/svg"
   xmlns:rdf="http://www.w3.org/1999/02/22-rdf-syntax-ns#"
   xmlns:cc="http://creativecommons.org/ns#"
   xmlns:dc="http://purl.org/dc/elements/1.1/">
  <metadata
     id="metadata77">
    <rdf:RDF>
      <cc:Work
         rdf:about="">
        <dc:format>image/svg+xml</dc:format>
        <dc:type
           rdf:resource="http://purl.org/dc/dcmitype/StillImage" />
      </cc:Work>
    </rdf:RDF>
  </metadata>
  <sodipodi:namedview
     pagecolor="#f5f7fa"
     bordercolor="#666666"
     borderopacity="1"
     objecttolerance="10"
     gridtolerance="10"
     guidetolerance="10"
     inkscape:pageopacity="0"
     inkscape:pageshadow="2"
     inkscape:window-width="1377"
     inkscape:window-height="886"
     id="namedview75"
     showgrid="false"
     inkscape:zoom="4.4470387"
     inkscape:cx="47.784608"
     inkscape:cy="14.054296"
     inkscape:window-x="119"
     inkscape:window-y="32"
     inkscape:window-maximized="0"
     inkscape:current-layer="g877"
     inkscape:document-rotation="0"
     inkscape:pagecheckerboard="0"
     inkscape:showpageshadow="2"
     inkscape:deskcolor="#d1d1d1" />
  <defs
     id="defs29">
    <linearGradient
       id="b"
       x1="399.57"
       x2="399.57"
       y1="545.8"
       y2="517.8"
       gradientTransform="matrix(2.1429,0,0,2.1429,-825.86391,-1107.6662)"
       gradientUnits="userSpaceOnUse">
      <stop
         stop-color="#3889e9"
         offset="0"
         id="stop2" />
      <stop
         stop-color="#5ea5fb"
         offset="1"
         id="stop4" />
    </linearGradient>
    <linearGradient
       id="d"
       x2="1"
       gradientTransform="matrix(14.905727,-4.7106182,4.7106182,14.905727,322.04962,998.26962)"
       gradientUnits="userSpaceOnUse">
      <stop
         stop-color="#fafafa"
         offset="0"
         id="stop7" />
      <stop
         stop-color="#aaa"
         offset="1"
         id="stop8" />
    </linearGradient>
    <linearGradient
       id="e"
       x2="1"
       gradientTransform="matrix(21.439909,0,0,21.439909,26.63554,1159.7788)"
       gradientUnits="userSpaceOnUse">
      <stop
         stop-color="#f0f0f0"
         offset="0"
         id="stop9" />
      <stop
         stop-color="#b7f1ff"
         offset="1"
         id="stop10" />
    </linearGradient>
  </defs>
  <circle
     cx="32.516094"
     cy="31.877844"
     r="0"
     fill="url(#b)"
     stroke-width="1.5715"
     id="circle41"
     style="fill:url(#b)" />
  <g
     aria-label="GZ"
     transform="matrix(1.2212657,0,0,0.81882264,0.4960938,-0.1661539)"
     id="text93"
     style="font-weight:bold;font-size:11.5263px;line-height:1.25;font-family:sans-serif;-inkscape-font-specification:'sans-serif Bold';fill:#f2f2f2;stroke-width:0.288159" />
  <g
     id="g877"
     transform="matrix(1.1,0,0,1.1,-3.1845928,-3.2065454)">
    <rect
       x="13.389396"
       y="8.0488043"
       width="37.45882"
       height="48.038597"
       rx="7.9658151"
       ry="9.6898966"
       fill="url(#linearGradient862)"
       stroke-width="3.0541"
       id="rect35-7-3"
       style="fill:#414141;fill-opacity:1;stroke:#dfdfdf;stroke-width:2.27272727;stroke-dasharray:none;stroke-opacity:1" />
    <path
       style="fill:#dfdfdf;fill-opacity:1;stroke-width:0.8019"
       d="m 32.067053,21.256401 c -6.200291,0 -11.2266,5.026309 -11.2266,11.2266 0,6.200289 5.026309,11.226597 11.2266,11.226597 6.200297,0 11.226605,-5.026308 11.226605,-11.226597 0,-6.200291 -5.026308,-11.2266 -11.226605,-11.2266 z m -1.12454,2.145709 c 0.130889,-0.01364 0.297086,0.0078 0.429143,0 0.01573,0.06261 -0.09504,0.284817 -0.244331,0.610822 -0.95056,2.07659 -1.004371,4.510769 -0.122161,5.810644 0.159642,0.235675 0.303845,0.459499 0.303845,0.488656 0,0.02911 -0.171826,0.05952 -0.366495,0.05952 -0.456989,0 -0.889352,-0.277626 -1.77295,-0.977315 -0.392525,-0.310824 -0.90178,-0.571306 -1.09948,-0.610824 -0.310451,-0.06201 -0.394011,-0.03517 -0.795633,0.366494 -0.373675,0.373607 -0.48866,0.575772 -0.48866,0.917801 0,1.297019 1.538905,2.325247 4.401053,2.93195 3.886909,0.823804 4.845149,1.564669 4.95236,3.608544 0.1346,2.562967 -1.230675,4.496217 -4.219374,5.992323 -0.35672,0.178639 -0.583318,0.246135 -0.732986,0.303846 -0.06631,-0.0061 -0.115553,0.0061 -0.181678,0 -0.02542,-0.07926 -0.06265,-0.262504 -0.06265,-0.610821 0,-1.36127 -0.535301,-2.76234 -1.343808,-3.545906 -0.217031,-0.21034 -0.826563,-0.655183 -1.346943,-0.977313 -0.520361,-0.322113 -1.045132,-0.695509 -1.162129,-0.855151 -0.193885,-0.264928 -0.208478,-0.428391 -0.05952,-0.9178 0.271477,-0.893848 0.593464,-1.392989 1.221644,-1.957763 0.329331,-0.296085 0.66003,-0.542238 0.732986,-0.548173 0.07297,-0.0061 -0.418276,-0.155452 -1.158994,-0.306977 -0.740677,-0.151816 -1.826712,-0.470723 -2.386906,-0.67347 -1.024364,-0.370652 -2.40468,-1.147154 -2.931948,-1.710303 -0.02231,-0.02387 -0.04327,-0.04151 -0.06265,-0.06265 0.755449,-3.009236 2.874886,-5.47411 5.685345,-6.662662 0.588055,-0.248725 1.19568,-0.42042 1.835599,-0.551306 0.318747,-0.06514 0.6482,-0.0887 0.977316,-0.122162 z m 9.171738,4.585866 c 0.229769,0.142032 1.096138,2.019455 1.343808,2.93508 0.319765,1.182074 0.296631,3.226781 0,4.401049 -0.112899,0.446933 -0.255714,0.865757 -0.303844,0.9178 -0.04813,0.05205 -0.223829,-0.246984 -0.429142,-0.610822 -0.205341,-0.363785 -0.861408,-1.138332 -1.406456,-1.713434 -1.573272,-1.660117 -1.821145,-2.524827 -1.16213,-3.849745 0.332346,-0.668111 1.779923,-2.189693 1.957764,-2.079928 z"
       id="path14" />
  </g>
</svg>
