<?xml version="1.0" encoding="UTF-8" standalone="no"?>
<svg
   width="64"
   height="64"
   version="1.1"
   id="svg73"
   sodipodi:docname="application-x-st-disk-image.svg"
   inkscape:version="1.3.2 (091e20ef0f, 2023-11-25)"
   xmlns:inkscape="http://www.inkscape.org/namespaces/inkscape"
   xmlns:sodipodi="http://sodipodi.sourceforge.net/DTD/sodipodi-0.dtd"
   xmlns="http://www.w3.org/2000/svg"
   xmlns:svg="http://www.w3.org/2000/svg"
   xmlns:rdf="http://www.w3.org/1999/02/22-rdf-syntax-ns#"
   xmlns:cc="http://creativecommons.org/ns#"
   xmlns:dc="http://purl.org/dc/elements/1.1/">
  <metadata
     id="metadata77">
    <rdf:RDF>
      <cc:Work
         rdf:about="">
        <dc:format>image/svg+xml</dc:format>
        <dc:type
           rdf:resource="http://purl.org/dc/dcmitype/StillImage" />
      </cc:Work>
    </rdf:RDF>
  </metadata>
  <sodipodi:namedview
     pagecolor="#f5f7fa"
     bordercolor="#666666"
     borderopacity="1"
     objecttolerance="10"
     gridtolerance="10"
     guidetolerance="10"
     inkscape:pageopacity="0"
     inkscape:pageshadow="2"
     inkscape:window-width="1377"
     inkscape:window-height="886"
     id="namedview75"
     showgrid="false"
     inkscape:zoom="4.4470387"
     inkscape:cx="47.897042"
     inkscape:cy="14.054296"
     inkscape:window-x="119"
     inkscape:window-y="32"
     inkscape:window-maximized="0"
     inkscape:current-layer="g877"
     inkscape:document-rotation="0"
     inkscape:pagecheckerboard="0"
     inkscape:showpageshadow="2"
     inkscape:deskcolor="#d1d1d1" />
  <defs
     id="defs29">
    <linearGradient
       id="b"
       x1="399.57"
       x2="399.57"
       y1="545.8"
       y2="517.8"
       gradientTransform="matrix(2.1429,0,0,2.1429,-825.86391,-1107.6662)"
       gradientUnits="userSpaceOnUse">
      <stop
         stop-color="#3889e9"
         offset="0"
         id="stop2" />
      <stop
         stop-color="#5ea5fb"
         offset="1"
         id="stop4" />
    </linearGradient>
    <linearGradient
       id="d"
       x2="1"
       gradientTransform="matrix(14.905727,-4.7106182,4.7106182,14.905727,322.04962,998.26962)"
       gradientUnits="userSpaceOnUse">
      <stop
         stop-color="#fafafa"
         offset="0"
         id="stop7" />
      <stop
         stop-color="#aaa"
         offset="1"
         id="stop8" />
    </linearGradient>
    <linearGradient
       id="e"
       x2="1"
       gradientTransform="matrix(21.439909,0,0,21.439909,26.63554,1159.7788)"
       gradientUnits="userSpaceOnUse">
      <stop
         stop-color="#f0f0f0"
         offset="0"
         id="stop9" />
      <stop
         stop-color="#b7f1ff"
         offset="1"
         id="stop10" />
    </linearGradient>
    <linearGradient
       id="_Linear2"
       x2="1"
       gradientTransform="matrix(-0.33662128,-17.588561,17.588561,-0.33662128,289.63742,32.316102)"
       gradientUnits="userSpaceOnUse">
      <stop
         style="stop-color:#fefffe"
         offset="0"
         id="stop5" />
      <stop
         style="stop-color:#f1f1f0"
         offset="1"
         id="stop6" />
    </linearGradient>
    <clipPath
       clipPathUnits="userSpaceOnUse"
       id="clipPath7">
      <path
         d="m 33.894,28.457 v 1.292 h -8.831 v -1.292 z m 5.169,-2.508 v 1.292 h -14 v -1.292 z m 0,-2.538 v 1.292 h -14 v -1.292 z"
         style="display:block;fill:#d9dee3"
         id="path7" />
    </clipPath>
    <inkscape:path-effect
       effect="powerclip"
       id="path-effect7"
       is_visible="true"
       lpeversion="1"
       inverse="true"
       flatten="false"
       hide_clip="false"
       message="Use fill-rule evenodd on &lt;b&gt;fill and stroke&lt;/b&gt; dialog if no flatten result after convert clip to paths." />
  </defs>
  <circle
     cx="32.516094"
     cy="31.877844"
     r="0"
     fill="url(#b)"
     stroke-width="1.5715"
     id="circle41"
     style="fill:url(#b)" />
  <g
     aria-label="GZ"
     transform="matrix(1.2212657,0,0,0.81882264,0.4960938,-0.1661539)"
     id="text93"
     style="font-weight:bold;font-size:11.5263px;line-height:1.25;font-family:sans-serif;-inkscape-font-specification:'sans-serif Bold';fill:#f2f2f2;stroke-width:0.288159" />
  <g
     id="g877"
     transform="matrix(1.1,0,0,1.1,-3.1845928,-3.2065454)">
    <rect
       x="13.389396"
       y="8.0488043"
       width="37.45882"
       height="48.038597"
       rx="7.9658151"
       ry="9.6898966"
       fill="url(#linearGradient862)"
       stroke-width="3.0541"
       id="rect35-7-3"
       style="fill:#414141;fill-opacity:1;stroke:#dfdfdf;stroke-width:2.27272727;stroke-dasharray:none;stroke-opacity:1" />
    <path
       d="m 20.227811,19.037769 c -1.085454,-0.02364 -1.596363,0.742727 -1.372727,2.061818 0.07273,0.424545 0.438182,1.031818 1.225455,2.038182 0.875454,1.118182 1.227272,1.728182 1.609091,2.785454 0.600909,1.668182 0.88,2.225455 1.368181,2.747273 0.38,0.404545 0.38,0.406364 0.124546,1.231818 -0.395455,1.280909 -0.475455,3.848182 -0.158182,5.055455 0.475455,1.806363 1.06,2.625454 1.875455,2.625454 0.581818,0 1.059091,-0.495454 1.23,-1.278182 0.05909,-0.270909 0.170909,-0.658181 0.247272,-0.860909 0.131819,-0.35 0.167273,-0.323636 0.685455,0.538182 0.3,0.499091 0.870909,1.243637 1.269091,1.652727 0.920909,0.945455 2.185454,2.01 2.276364,1.919091 0.03818,-0.03818 -0.328182,-0.598181 -0.816364,-1.244545 -0.488182,-0.646364 -1.41,-2.147273 -2.047273,-3.336364 -0.743636,-1.386363 -1.248182,-2.161818 -1.406364,-2.162727 -0.514545,-0.0036 -0.993636,0.822727 -1.271818,2.19 -0.32,1.574545 -0.881818,1.31 -1.34,-0.630909 -0.263636,-1.118182 -0.126363,-2.625455 0.365455,-4.035455 0.223636,-0.641818 0.406363,-1.233636 0.406363,-1.316363 0,-0.08182 -0.358181,-0.769091 -0.795454,-1.528182 -0.436364,-0.759091 -0.95,-1.834546 -1.14,-2.39 -0.460909,-1.35 -0.68,-1.742727 -1.606364,-2.889091 -0.954545,-1.180909 -1.044545,-1.725455 -0.284545,-1.72 0.590909,0.0036 1.544545,0.41 2.501818,1.066364 0.606364,0.416363 0.810909,0.470909 1.784545,0.470909 1.223637,0 1.488182,0.102727 3.183637,1.240909 1.727273,1.159091 3.013636,2.236363 3.904545,3.270909 0.791819,0.918182 1.221819,1.717273 3.550909,6.585454 0.894546,1.869091 1.687273,2.769091 2.78091,3.155455 1.68909,0.596364 2.265454,0.867273 3.01,1.410909 l 0.786363,0.575455 -0.530909,0.103636 c -0.291818,0.05636 -0.925454,0.15 -1.41,0.207273 -1.009091,0.119091 -1.670909,0.547272 -1.670909,1.081818 0,0.601818 2.013636,2.325454 4.032727,3.450909 0.97,0.540909 1.903637,1.073636 2.073637,1.184545 0.452727,0.296364 0.574545,0.261819 0.458181,-0.127272 -0.244545,-0.817273 -1.070909,-1.612728 -3.37,-3.246364 -1.34909,-0.958182 -1.363636,-0.923636 0.438182,-1.106364 1.285455,-0.13 1.931818,-0.353636 1.931818,-0.66909 0,-0.143637 -0.651818,-0.906364 -1.44909,-1.697273 -1.248182,-1.239091 -1.67091,-1.55 -3.046364,-2.231818 -1.872727,-0.929091 -2.554546,-1.664546 -2.986364,-3.228182 -0.644545,-2.332727 -2.377272,-5.073637 -4.679091,-7.397273 -2.375454,-2.398182 -4.642727,-3.724545 -6.721818,-3.932727 -0.845454,-0.08455 -1.281818,-0.215455 -1.719091,-0.516364 -0.74,-0.510909 -2.458182,-1.086363 -3.297273,-1.104545 z m 3.911819,4.515454 c -0.138182,-0.01091 -0.26,0.01273 -0.342728,0.08182 -0.308181,0.254546 -0.27,0.564546 0.09182,0.758182 0.170909,0.09 0.412727,0.41 0.538181,0.71 0.422728,1.008182 1.070909,0.332728 0.781819,-0.815454 -0.09182,-0.361818 -0.654546,-0.702728 -1.069091,-0.734546 z"
       style="clip-rule:evenodd;fill:#dfdfdf;fill-opacity:1;fill-rule:nonzero;stroke-width:0.909091;stroke-linejoin:round;stroke-miterlimit:2"
       id="path2" />
    <g
       transform="matrix(0.52960909,0,0,0.52960909,19.275358,20.354587)"
       id="g5"
       style="fill:#dfdfdf;fill-opacity:1" />
  </g>
</svg>
