<?xml version="1.0" encoding="UTF-8" standalone="no"?>
<svg
   width="64"
   height="64"
   version="1.1"
   id="svg73"
   sodipodi:docname="application-bitwig-template.svg"
   inkscape:version="1.3.2 (091e20ef0f, 2023-11-25)"
   xmlns:inkscape="http://www.inkscape.org/namespaces/inkscape"
   xmlns:sodipodi="http://sodipodi.sourceforge.net/DTD/sodipodi-0.dtd"
   xmlns="http://www.w3.org/2000/svg"
   xmlns:svg="http://www.w3.org/2000/svg"
   xmlns:rdf="http://www.w3.org/1999/02/22-rdf-syntax-ns#"
   xmlns:cc="http://creativecommons.org/ns#"
   xmlns:dc="http://purl.org/dc/elements/1.1/">
  <metadata
     id="metadata77">
    <rdf:RDF>
      <cc:Work
         rdf:about="">
        <dc:format>image/svg+xml</dc:format>
        <dc:type
           rdf:resource="http://purl.org/dc/dcmitype/StillImage" />
      </cc:Work>
    </rdf:RDF>
  </metadata>
  <sodipodi:namedview
     pagecolor="#f5f7fa"
     bordercolor="#666666"
     borderopacity="1"
     objecttolerance="10"
     gridtolerance="10"
     guidetolerance="10"
     inkscape:pageopacity="0"
     inkscape:pageshadow="2"
     inkscape:window-width="1377"
     inkscape:window-height="886"
     id="namedview75"
     showgrid="false"
     inkscape:zoom="4.4470387"
     inkscape:cx="47.897042"
     inkscape:cy="14.054296"
     inkscape:window-x="29"
     inkscape:window-y="32"
     inkscape:window-maximized="0"
     inkscape:current-layer="g877"
     inkscape:document-rotation="0"
     inkscape:pagecheckerboard="0"
     inkscape:showpageshadow="2"
     inkscape:deskcolor="#d1d1d1" />
  <defs
     id="defs29">
    <linearGradient
       id="b"
       x1="399.57"
       x2="399.57"
       y1="545.8"
       y2="517.8"
       gradientTransform="matrix(2.1429,0,0,2.1429,-825.86391,-1107.6662)"
       gradientUnits="userSpaceOnUse">
      <stop
         stop-color="#3889e9"
         offset="0"
         id="stop2" />
      <stop
         stop-color="#5ea5fb"
         offset="1"
         id="stop4" />
    </linearGradient>
    <linearGradient
       id="d"
       x2="1"
       gradientTransform="matrix(14.905727,-4.7106182,4.7106182,14.905727,322.04962,998.26962)"
       gradientUnits="userSpaceOnUse">
      <stop
         stop-color="#fafafa"
         offset="0"
         id="stop7" />
      <stop
         stop-color="#aaa"
         offset="1"
         id="stop8" />
    </linearGradient>
    <linearGradient
       id="e"
       x2="1"
       gradientTransform="matrix(21.439909,0,0,21.439909,26.63554,1159.7788)"
       gradientUnits="userSpaceOnUse">
      <stop
         stop-color="#f0f0f0"
         offset="0"
         id="stop9" />
      <stop
         stop-color="#b7f1ff"
         offset="1"
         id="stop10" />
    </linearGradient>
    <linearGradient
       id="_Linear2"
       x2="1"
       gradientTransform="matrix(-0.33662128,-17.588561,17.588561,-0.33662128,289.63742,32.316102)"
       gradientUnits="userSpaceOnUse">
      <stop
         style="stop-color:#fefffe"
         offset="0"
         id="stop5" />
      <stop
         style="stop-color:#f1f1f0"
         offset="1"
         id="stop6" />
    </linearGradient>
  </defs>
  <circle
     cx="32.516094"
     cy="31.877844"
     r="0"
     fill="url(#b)"
     stroke-width="1.5715"
     id="circle41"
     style="fill:url(#b)" />
  <g
     aria-label="GZ"
     transform="matrix(1.2212657,0,0,0.81882264,0.4960938,-0.1661539)"
     id="text93"
     style="font-weight:bold;font-size:11.5263px;line-height:1.25;font-family:sans-serif;-inkscape-font-specification:'sans-serif Bold';fill:#f2f2f2;stroke-width:0.288159" />
  <g
     id="g877"
     transform="matrix(1.1,0,0,1.1,-3.1845928,-3.2065454)">
    <rect
       x="13.389396"
       y="8.0488043"
       width="37.45882"
       height="48.038597"
       rx="7.9658151"
       ry="9.6898966"
       fill="url(#linearGradient862)"
       stroke-width="3.0541"
       id="rect35-7-3"
       style="fill:#414141;fill-opacity:1;stroke:#dfdfdf;stroke-width:2.27272727;stroke-dasharray:none;stroke-opacity:1" />
    <path
       d="m 28.890789,30.478808 c 0.752727,0 1.363636,0.610909 1.363636,1.363637 0,0.752727 -0.610909,1.363636 -1.363636,1.363636 -0.752727,0 -1.363636,-0.610909 -1.363636,-1.363636 0,-0.752728 0.610909,-1.363637 1.363636,-1.363637 z m 5.454546,0 c 0.752727,0 1.363636,0.610909 1.363636,1.363637 0,0.752727 -0.610909,1.363636 -1.363636,1.363636 -0.752728,0 -1.363637,-0.610909 -1.363637,-1.363636 0,-0.752728 0.610909,-1.363637 1.363637,-1.363637 z m -2.727273,-2.727273 c 0.752727,0 1.363636,0.61091 1.363636,1.363637 0,0.752727 -0.610909,1.363636 -1.363636,1.363636 -0.752727,0 -1.363637,-0.610909 -1.363637,-1.363636 0,-0.752727 0.61091,-1.363637 1.363637,-1.363637 z m 0,5.454546 c 0.752727,0 1.363636,0.610909 1.363636,1.363636 0,0.752728 -0.610909,1.363637 -1.363636,1.363637 -0.752727,0 -1.363637,-0.610909 -1.363637,-1.363637 0,-0.752727 0.61091,-1.363636 1.363637,-1.363636 z m 0.454545,-10 c 0.501818,0 0.909091,0.407273 0.909091,0.909091 0,0.501818 -0.407273,0.909091 -0.909091,0.909091 -0.501818,0 -0.909091,-0.407273 -0.909091,-0.909091 0,-0.501818 0.407273,-0.909091 0.909091,-0.909091 z m 0,16.363636 c 0.501818,0 0.909091,0.407273 0.909091,0.909091 0,0.501818 -0.407273,0.909091 -0.909091,0.909091 -0.501818,0 -0.909091,-0.407273 -0.909091,-0.909091 0,-0.501818 0.407273,-0.909091 0.909091,-0.909091 z m -8.181818,-8.181818 c 0.501818,0 0.909091,0.407273 0.909091,0.909091 0,0.501818 -0.407273,0.909091 -0.909091,0.909091 -0.501818,0 -0.909091,-0.407273 -0.909091,-0.909091 0,-0.501818 0.407273,-0.909091 0.909091,-0.909091 z m 2.727273,-2.727273 c 0.501818,0 0.909091,0.407273 0.909091,0.909091 0,0.501818 -0.407273,0.909091 -0.909091,0.909091 -0.501818,0 -0.909091,-0.407273 -0.909091,-0.909091 0,-0.501818 0.407273,-0.909091 0.909091,-0.909091 z m 2.727273,-2.727272 c 0.501818,0 0.90909,0.407272 0.90909,0.909091 0,0.501818 -0.407272,0.90909 -0.90909,0.90909 -0.501819,0 -0.909091,-0.407272 -0.909091,-0.90909 0,-0.501819 0.407272,-0.909091 0.909091,-0.909091 z m 5.454545,0 c 0.501818,0 0.909091,0.407272 0.909091,0.909091 0,0.501818 -0.407273,0.90909 -0.909091,0.90909 -0.501818,0 -0.909091,-0.407272 -0.909091,-0.90909 0,-0.501819 0.407273,-0.909091 0.909091,-0.909091 z m 2.727273,2.727272 c 0.501818,0 0.909091,0.407273 0.909091,0.909091 0,0.501818 -0.407273,0.909091 -0.909091,0.909091 -0.501818,0 -0.909091,-0.407273 -0.909091,-0.909091 0,-0.501818 0.407273,-0.909091 0.909091,-0.909091 z m 2.727272,2.727273 c 0.501819,0 0.909091,0.407273 0.909091,0.909091 0,0.501818 -0.407272,0.909091 -0.909091,0.909091 -0.501818,0 -0.90909,-0.407273 -0.90909,-0.909091 0,-0.501818 0.407272,-0.909091 0.90909,-0.909091 z m -2.727272,2.727273 c 0.501818,0 0.909091,0.407273 0.909091,0.909091 0,0.501818 -0.407273,0.909091 -0.909091,0.909091 -0.501818,0 -0.909091,-0.407273 -0.909091,-0.909091 0,-0.501818 0.407273,-0.909091 0.909091,-0.909091 z m -2.727273,2.727273 c 0.501818,0 0.909091,0.407272 0.909091,0.90909 0,0.501819 -0.407273,0.909091 -0.909091,0.909091 -0.501818,0 -0.909091,-0.407272 -0.909091,-0.909091 0,-0.501818 0.407273,-0.90909 0.909091,-0.90909 z m -5.454545,0 c 0.501818,0 0.90909,0.407272 0.90909,0.90909 0,0.501819 -0.407272,0.909091 -0.90909,0.909091 -0.501819,0 -0.909091,-0.407272 -0.909091,-0.909091 0,-0.501818 0.407272,-0.90909 0.909091,-0.90909 z m -2.727273,-2.727273 c 0.501818,0 0.909091,0.407273 0.909091,0.909091 0,0.501818 -0.407273,0.909091 -0.909091,0.909091 -0.501818,0 -0.909091,-0.407273 -0.909091,-0.909091 0,-0.501818 0.407273,-0.909091 0.909091,-0.909091 z m 10.454545,-10 c 0.250909,0 0.454546,0.203636 0.454546,0.454545 0,0.250909 -0.203637,0.454546 -0.454546,0.454546 -0.250909,0 -0.454545,-0.203637 -0.454545,-0.454546 0,-0.250909 0.203636,-0.454545 0.454545,-0.454545 z m 2.727273,2.727273 c 0.250909,0 0.454545,0.203636 0.454545,0.454545 0,0.250909 -0.203636,0.454545 -0.454545,0.454545 -0.250909,0 -0.454545,-0.203636 -0.454545,-0.454545 0,-0.250909 0.203636,-0.454545 0.454545,-0.454545 z m 0,10 c 0.250909,0 0.454545,0.203636 0.454545,0.454545 0,0.250909 -0.203636,0.454545 -0.454545,0.454545 -0.250909,0 -0.454545,-0.203636 -0.454545,-0.454545 0,-0.250909 0.203636,-0.454545 0.454545,-0.454545 z m -2.727273,2.727272 c 0.250909,0 0.454546,0.203637 0.454546,0.454546 0,0.250909 -0.203637,0.454545 -0.454546,0.454545 -0.250909,0 -0.454545,-0.203636 -0.454545,-0.454545 0,-0.250909 0.203636,-0.454546 0.454545,-0.454546 z m -10,0 c 0.250909,0 0.454546,0.203637 0.454546,0.454546 0,0.250909 -0.203637,0.454545 -0.454546,0.454545 -0.250909,0 -0.454545,-0.203636 -0.454545,-0.454545 0,-0.250909 0.203636,-0.454546 0.454545,-0.454546 z m -2.727272,-2.727272 c 0.250909,0 0.454545,0.203636 0.454545,0.454545 0,0.250909 -0.203636,0.454545 -0.454545,0.454545 -0.25091,0 -0.454546,-0.203636 -0.454546,-0.454545 0,-0.250909 0.203636,-0.454545 0.454546,-0.454545 z m 0,-10 c 0.250909,0 0.454545,0.203636 0.454545,0.454545 0,0.250909 -0.203636,0.454545 -0.454545,0.454545 -0.25091,0 -0.454546,-0.203636 -0.454546,-0.454545 0,-0.250909 0.203636,-0.454545 0.454546,-0.454545 z m 2.727272,-2.727273 c 0.250909,0 0.454546,0.203636 0.454546,0.454545 0,0.250909 -0.203637,0.454546 -0.454546,0.454546 -0.250909,0 -0.454545,-0.203637 -0.454545,-0.454546 0,-0.250909 0.203636,-0.454545 0.454545,-0.454545 z"
       fill="#4e4e4e"
       id="path3"
       style="stroke-width:0.909091;fill:#dfdfdf;fill-opacity:1" />
  </g>
</svg>
