<?xml version="1.0" encoding="UTF-8" standalone="no"?>
<svg
   width="64"
   height="64"
   version="1.1"
   id="svg73"
   sodipodi:docname="application-vnd.rn-realmedia.svg"
   inkscape:version="1.4.2 (ebf0e940d0, 2025-05-08)"
   xmlns:inkscape="http://www.inkscape.org/namespaces/inkscape"
   xmlns:sodipodi="http://sodipodi.sourceforge.net/DTD/sodipodi-0.dtd"
   xmlns:xlink="http://www.w3.org/1999/xlink"
   xmlns="http://www.w3.org/2000/svg"
   xmlns:svg="http://www.w3.org/2000/svg"
   xmlns:rdf="http://www.w3.org/1999/02/22-rdf-syntax-ns#"
   xmlns:cc="http://creativecommons.org/ns#"
   xmlns:dc="http://purl.org/dc/elements/1.1/">
  <metadata
     id="metadata77">
    <rdf:RDF>
      <cc:Work
         rdf:about="">
        <dc:format>image/svg+xml</dc:format>
        <dc:type
           rdf:resource="http://purl.org/dc/dcmitype/StillImage" />
      </cc:Work>
    </rdf:RDF>
  </metadata>
  <sodipodi:namedview
     pagecolor="#f5f7fa"
     bordercolor="#666666"
     borderopacity="1"
     objecttolerance="10"
     gridtolerance="10"
     guidetolerance="10"
     inkscape:pageopacity="0"
     inkscape:pageshadow="2"
     inkscape:window-width="1377"
     inkscape:window-height="886"
     id="namedview75"
     showgrid="false"
     inkscape:zoom="4.4470387"
     inkscape:cx="48.234345"
     inkscape:cy="14.054296"
     inkscape:window-x="119"
     inkscape:window-y="32"
     inkscape:window-maximized="0"
     inkscape:current-layer="g877"
     inkscape:document-rotation="0"
     inkscape:pagecheckerboard="0"
     inkscape:showpageshadow="2"
     inkscape:deskcolor="#d1d1d1" />
  <defs
     id="defs29">
    <linearGradient
       id="b"
       x1="399.57"
       x2="399.57"
       y1="545.8"
       y2="517.8"
       gradientTransform="matrix(2.1429,0,0,2.1429,-825.86391,-1107.6662)"
       gradientUnits="userSpaceOnUse">
      <stop
         stop-color="#3889e9"
         offset="0"
         id="stop2" />
      <stop
         stop-color="#5ea5fb"
         offset="1"
         id="stop4" />
    </linearGradient>
    <linearGradient
       id="d"
       x2="1"
       gradientTransform="matrix(14.905727,-4.7106182,4.7106182,14.905727,322.04962,998.26962)"
       gradientUnits="userSpaceOnUse">
      <stop
         stop-color="#fafafa"
         offset="0"
         id="stop7" />
      <stop
         stop-color="#aaa"
         offset="1"
         id="stop8" />
    </linearGradient>
    <linearGradient
       id="e"
       x2="1"
       gradientTransform="matrix(21.439909,0,0,21.439909,26.63554,1159.7788)"
       gradientUnits="userSpaceOnUse">
      <stop
         stop-color="#f0f0f0"
         offset="0"
         id="stop9" />
      <stop
         stop-color="#b7f1ff"
         offset="1"
         id="stop10" />
    </linearGradient>
    <linearGradient
       id="_Linear2"
       x2="1"
       gradientTransform="matrix(-0.33662128,-17.588561,17.588561,-0.33662128,289.63742,32.316102)"
       gradientUnits="userSpaceOnUse">
      <stop
         style="stop-color:#fefffe"
         offset="0"
         id="stop5" />
      <stop
         style="stop-color:#f1f1f0"
         offset="1"
         id="stop6" />
    </linearGradient>
    <clipPath
       clipPathUnits="userSpaceOnUse"
       id="clipPath7">
      <path
         d="m 33.894,28.457 v 1.292 h -8.831 v -1.292 z m 5.169,-2.508 v 1.292 h -14 v -1.292 z m 0,-2.538 v 1.292 h -14 v -1.292 z"
         style="display:block;fill:#d9dee3"
         id="path7" />
    </clipPath>
    <inkscape:path-effect
       effect="powerclip"
       id="path-effect7"
       is_visible="true"
       lpeversion="1"
       inverse="true"
       flatten="false"
       hide_clip="false"
       message="" />
    <linearGradient
       id="linearGradient1"
       inkscape:collect="always">
      <stop
         style="stop-color:#d8dee9;stop-opacity:1;"
         offset="0"
         id="stop1" />
      <stop
         style="stop-color:#eceff4;stop-opacity:1;"
         offset="1"
         id="stop2-0" />
    </linearGradient>
    <linearGradient
       inkscape:collect="always"
       xlink:href="#linearGradient1"
       id="linearGradient5"
       x1="37.830982"
       y1="26.034248"
       x2="20.853935"
       y2="19.901464"
       gradientUnits="userSpaceOnUse" />
  </defs>
  <circle
     cx="32.516094"
     cy="31.877844"
     r="0"
     fill="url(#b)"
     stroke-width="1.5715"
     id="circle41"
     style="fill:url(#b)" />
  <g
     aria-label="GZ"
     transform="matrix(1.2212657,0,0,0.81882264,0.4960938,-0.1661539)"
     id="text93"
     style="font-weight:bold;font-size:11.5263px;line-height:1.25;font-family:sans-serif;-inkscape-font-specification:'sans-serif Bold';fill:#f2f2f2;stroke-width:0.288159" />
  <g
     id="g877"
     transform="matrix(1.1,0,0,1.1,-3.1845928,-3.2065454)">
    <rect
       x="13.256583"
       y="7.9866519"
       width="37.45882"
       height="48.038597"
       rx="7.9658151"
       ry="9.6898966"
       fill="url(#linearGradient862)"
       stroke-width="3.0541"
       id="rect35-7-3"
       style="fill:#414141;fill-opacity:1;stroke:#dfdfdf;stroke-width:2.27273;stroke-dasharray:none;stroke-opacity:1" />
    <path
       fill="#f5f7fa"
       d="m 34.324955,38.447415 h -5.496346 v -0.64688 c 0.483605,-0.03048 0.885055,-0.09112 1.20436,-0.182215 0.319304,-0.09112 0.478953,-0.203475 0.478953,-0.33713 0,-0.05469 -0.0062,-0.121456 -0.01859,-0.200414 -0.01241,-0.07896 -0.031,-0.148815 -0.05579,-0.209516 l -1.097417,-2.897328 h -4.62214 c -0.173602,0.425175 -0.314652,0.795679 -0.423153,1.111536 -0.108499,0.315835 -0.206151,0.607393 -0.292953,0.874652 -0.0806,0.261171 -0.1364,0.473769 -0.167401,0.63777 -0.03101,0.164011 -0.0465,0.29763 -0.0465,0.40088 0,0.24297 0.195301,0.431257 0.585906,0.564884 0.390604,0.13362 0.830805,0.212578 1.320612,0.236876 v 0.646877 H 20.728254 V 37.80053 c 0.161204,-0.01225 0.362702,-0.04704 0.604506,-0.104787 0.241804,-0.05774 0.440203,-0.135151 0.595205,-0.232339 0.248004,-0.164011 0.440202,-0.335604 0.576604,-0.514766 0.136399,-0.17918 0.269702,-0.426696 0.399903,-0.742551 0.663411,-1.621734 1.395008,-3.443907 2.194818,-5.466558 0.799811,-2.022644 1.512811,-3.823558 2.139018,-5.402804 h 0.744001 l 4.398936,11.151834 c 0.09301,0.236901 0.198411,0.428213 0.316202,0.573991 0.117812,0.145756 0.282101,0.288527 0.492907,0.428214 0.142609,0.08502 0.328602,0.156385 0.558007,0.214107 0.229387,0.05775 0.421601,0.08959 0.576601,0.09563 z m -5.319645,-5.284361 -1.999517,-5.011037 -1.962318,5.011037 z m 14.238422,5.120365 c -0.291403,0.103254 -0.547152,0.186749 -0.767256,0.250539 -0.220093,0.06378 -0.469651,0.09565 -0.748657,0.09565 -0.483604,0 -0.869554,-0.110852 -1.157857,-0.332556 -0.288306,-0.221706 -0.472755,-0.545138 -0.553358,-0.970318 h -0.05579 c -0.403008,0.437326 -0.835455,0.771399 -1.297359,1.002207 -0.461907,0.230836 -1.018355,0.346234 -1.669364,0.346234 -0.688215,0 -1.253962,-0.206511 -1.697266,-0.619548 -0.443297,-0.413031 -0.664948,-0.953614 -0.664948,-1.621757 0,-0.34623 0.0496,-0.655987 0.148816,-0.929322 0.09919,-0.273329 0.248004,-0.519313 0.446402,-0.737977 0.154995,-0.182213 0.3596,-0.344708 0.613803,-0.48744 0.254186,-0.142748 0.492896,-0.256634 0.716099,-0.34166 0.279004,-0.103256 0.844753,-0.294584 1.697267,-0.573993 0.852511,-0.279387 1.427558,-0.498066 1.725163,-0.655991 v -0.901975 c 0,-0.07895 -0.01698,-0.230811 -0.05115,-0.455548 -0.03409,-0.224738 -0.106958,-0.437325 -0.218563,-0.637764 -0.123989,-0.224742 -0.299147,-0.420629 -0.525455,-0.587659 -0.226298,-0.167036 -0.547152,-0.250552 -0.962558,-0.250552 -0.285202,0 -0.550251,0.04711 -0.795155,0.141221 -0.244917,0.09414 -0.416954,0.19285 -0.516156,0.296101 0,0.121484 0.02944,0.300662 0.08834,0.537553 0.05892,0.236884 0.08834,0.455541 0.08834,0.655988 0,0.212586 -0.09763,0.406954 -0.292949,0.583101 -0.195295,0.176164 -0.466556,0.264225 -0.813761,0.264225 -0.310003,0 -0.53785,-0.10783 -0.683554,-0.323445 -0.1457,-0.215626 -0.218562,-0.457061 -0.218562,-0.724318 0,-0.279407 0.100751,-0.546662 0.302253,-0.801772 0.201501,-0.255106 0.463443,-0.482875 0.785849,-0.683319 0.279002,-0.170069 0.616904,-0.314328 1.013707,-0.432769 0.396806,-0.118447 0.784305,-0.177661 1.162513,-0.177661 0.520806,0 0.974954,0.03493 1.362458,0.104774 0.387508,0.06986 0.739356,0.220181 1.055561,0.450993 0.316203,0.224737 0.556451,0.529952 0.720755,0.915652 0.164317,0.3857 0.246448,0.882244 0.246448,1.489642 0,0.868582 -0.0095,1.638449 -0.02791,2.30963 -0.01864,0.671181 -0.02791,1.404605 -0.02791,2.200304 0,0.236877 0.04186,0.425174 0.125549,0.564877 0.08372,0.139714 0.212355,0.258138 0.385952,0.355338 0.09298,0.05469 0.240242,0.08503 0.441754,0.09112 0.201501,0.0061 0.407652,0.0092 0.618455,0.0092 z m -3.245725,-4.810592 c -0.527009,0.151849 -0.988909,0.300638 -1.385713,0.446435 -0.396806,0.145782 -0.765702,0.327987 -1.10671,0.54666 -0.310001,0.20651 -0.554905,0.450989 -0.734708,0.733432 -0.179818,0.282433 -0.269714,0.618026 -0.269714,1.00676 0,0.504142 0.134844,0.874659 0.404553,1.111543 0.269717,0.236902 0.612255,0.355336 1.027659,0.355336 0.440209,0 0.827705,-0.104784 1.162511,-0.314351 0.334803,-0.209517 0.616904,-0.457064 0.846306,-0.742542 z"
       id="path42-3-7"
       style="fill:#dfdfdf;stroke:none;stroke-width:0.909088;stroke-dasharray:none;stroke-opacity:0.3;fill-opacity:1" />
    <path
       style="color:#4d4d4d;clip-rule:nonzero;display:inline;overflow:visible;visibility:visible;isolation:auto;mix-blend-mode:normal;color-interpolation:sRGB;color-interpolation-filters:linearRGB;solid-color:#000000;solid-opacity:1;fill:#dfdfdf;fill-opacity:1;fill-rule:nonzero;stroke-width:0.990001;stroke-linecap:butt;stroke-linejoin:miter;stroke-miterlimit:4;stroke-dasharray:none;stroke-dashoffset:0;stroke-opacity:1;color-rendering:auto;image-rendering:auto;shape-rendering:auto;text-rendering:auto;enable-background:accumulate;opacity:0"
       id="path31"
       d="m 35.945994,20.12595 -3.96,4.455 -1.2474,1.485 h 3.2274 v 0.99 h -7.920001 v 10.890003 h -3.20562 l 1.225621,1.484996 3.96,4.455001 3.96,-4.455001 1.2474,-1.484996 h -3.2274 v -0.99 h 7.920005 V 26.06595 h 3.205614 l -1.225618,-1.485 z m 0,1.48896 3.075931,3.46104 h -2.085932 v 10.890006 h -6.929999 v -1.980004 h 4.95 V 25.07595 h -2.08593 z m -8.910001,6.431042 h 6.930001 v 1.98 h -4.95 v 8.91 h 2.08593 l -3.07593,3.461037 -3.075931,-3.461037 h 2.08593 v -0.989999 z m 2.970001,2.97 h 3.96 v 1.98 h -3.96 z"
       fill="#ffffff"
       opacity="0.75" />
    <g
       transform="matrix(0.52960909,0,0,0.52960909,19.275358,20.354587)"
       id="g5"
       style="fill:#dfdfdf;fill-opacity:1" />
  </g>
</svg>
