<?xml version="1.0" encoding="UTF-8" standalone="no"?>
<svg
   width="64"
   height="64"
   version="1.1"
   id="svg73"
   sodipodi:docname="application-blank.svg"
   inkscape:version="1.3.2 (091e20ef0f, 2023-11-25)"
   xmlns:inkscape="http://www.inkscape.org/namespaces/inkscape"
   xmlns:sodipodi="http://sodipodi.sourceforge.net/DTD/sodipodi-0.dtd"
   xmlns="http://www.w3.org/2000/svg"
   xmlns:svg="http://www.w3.org/2000/svg"
   xmlns:rdf="http://www.w3.org/1999/02/22-rdf-syntax-ns#"
   xmlns:cc="http://creativecommons.org/ns#"
   xmlns:dc="http://purl.org/dc/elements/1.1/">
  <metadata
     id="metadata77">
    <rdf:RDF>
      <cc:Work
         rdf:about="">
        <dc:format>image/svg+xml</dc:format>
        <dc:type
           rdf:resource="http://purl.org/dc/dcmitype/StillImage" />
      </cc:Work>
    </rdf:RDF>
  </metadata>
  <sodipodi:namedview
     pagecolor="#f5f7fa"
     bordercolor="#666666"
     borderopacity="1"
     objecttolerance="10"
     gridtolerance="10"
     guidetolerance="10"
     inkscape:pageopacity="0"
     inkscape:pageshadow="2"
     inkscape:window-width="1377"
     inkscape:window-height="886"
     id="namedview75"
     showgrid="false"
     inkscape:zoom="4.4470387"
     inkscape:cx="47.784608"
     inkscape:cy="14.054296"
     inkscape:window-x="119"
     inkscape:window-y="32"
     inkscape:window-maximized="0"
     inkscape:current-layer="g877"
     inkscape:document-rotation="0"
     inkscape:pagecheckerboard="0"
     inkscape:showpageshadow="2"
     inkscape:deskcolor="#d1d1d1" />
  <defs
     id="defs29">
    <linearGradient
       id="b"
       x1="399.57"
       x2="399.57"
       y1="545.8"
       y2="517.8"
       gradientTransform="matrix(2.1429,0,0,2.1429,-825.86391,-1107.6662)"
       gradientUnits="userSpaceOnUse">
      <stop
         stop-color="#3889e9"
         offset="0"
         id="stop2" />
      <stop
         stop-color="#5ea5fb"
         offset="1"
         id="stop4" />
    </linearGradient>
    <linearGradient
       id="d"
       x2="1"
       gradientTransform="matrix(14.905727,-4.7106182,4.7106182,14.905727,322.04962,998.26962)"
       gradientUnits="userSpaceOnUse">
      <stop
         stop-color="#fafafa"
         offset="0"
         id="stop7" />
      <stop
         stop-color="#aaa"
         offset="1"
         id="stop8" />
    </linearGradient>
    <linearGradient
       id="e"
       x2="1"
       gradientTransform="matrix(21.439909,0,0,21.439909,26.63554,1159.7788)"
       gradientUnits="userSpaceOnUse">
      <stop
         stop-color="#f0f0f0"
         offset="0"
         id="stop9" />
      <stop
         stop-color="#b7f1ff"
         offset="1"
         id="stop10" />
    </linearGradient>
    <linearGradient
       id="_Linear2"
       x2="1"
       gradientTransform="matrix(-0.33662128,-17.588561,17.588561,-0.33662128,289.63742,32.316102)"
       gradientUnits="userSpaceOnUse">
      <stop
         style="stop-color:#fefffe"
         offset="0"
         id="stop5" />
      <stop
         style="stop-color:#f1f1f0"
         offset="1"
         id="stop6" />
    </linearGradient>
  </defs>
  <circle
     cx="32.516094"
     cy="31.877844"
     r="0"
     fill="url(#b)"
     stroke-width="1.5715"
     id="circle41"
     style="fill:url(#b)" />
  <g
     aria-label="GZ"
     transform="matrix(1.2212657,0,0,0.81882264,0.4960938,-0.1661539)"
     id="text93"
     style="font-weight:bold;font-size:11.5263px;line-height:1.25;font-family:sans-serif;-inkscape-font-specification:'sans-serif Bold';fill:#f2f2f2;stroke-width:0.288159" />
  <g
     id="g877"
     transform="matrix(1.1,0,0,1.1,-3.1845928,-3.2065454)">
    <rect
       x="13.389396"
       y="8.0488043"
       width="37.45882"
       height="48.038597"
       rx="7.9658151"
       ry="9.6898966"
       fill="url(#linearGradient862)"
       stroke-width="3.0541"
       id="rect35-7-3"
       style="fill:#414141;fill-opacity:1;stroke:#dfdfdf;stroke-width:2.27272727;stroke-dasharray:none;stroke-opacity:1" />
    <path
       id="path19"
       style="fill:#dfdfdf;fill-opacity:1;stroke:none;stroke-width:0.785942;stroke-dasharray:none;stroke-dashoffset:2.2;stroke-opacity:0.3"
       d="m 29.121397,22.76201 c -0.609346,0.0075 -1.226555,0.144366 -1.815956,0.426742 -2.799334,1.341122 -3.422383,4.940191 -1.228035,7.09804 0.662773,0.651748 1.354796,1.033407 2.207392,1.218825 0.699965,0.152226 0.975963,0.15921 1.642498,0.03838 1.622295,-0.294101 3.044938,-1.569894 3.507573,-3.146839 0.218181,-0.743681 0.187005,-1.902831 -0.07061,-2.632598 -0.664014,-1.881021 -2.414822,-3.02486 -4.242854,-3.00255 z m 7.464918,2.905837 c -0.33441,0.005 -0.671253,0.05471 -1.003921,0.153504 l -0.466651,0.138154 0.05527,0.790549 c 0.103509,1.458317 -0.440604,3.190761 -1.314001,4.182992 -0.202962,0.230581 -0.369945,0.455159 -0.369945,0.498888 0,0.10445 0.881385,0.949518 1.186588,1.137467 0.13106,0.08071 0.476555,0.230194 0.767522,0.333106 0.817124,0.289009 1.952804,0.225082 2.764615,-0.155039 0.810075,-0.379309 1.524776,-1.065417 1.895773,-1.819026 0.273087,-0.554692 0.291652,-0.653999 0.291652,-1.544255 0,-0.888089 -0.01908,-0.990773 -0.288587,-1.536576 -0.67961,-1.378171 -2.069202,-2.201819 -3.518311,-2.179764 z m -0.601739,9.04294 0.442095,0.291657 c 1.02103,0.676305 1.942167,1.720536 2.508261,2.839829 0.305579,0.604205 0.690769,1.934435 0.690769,2.38546 v 0.34999 h 2.221206 2.221203 l -0.03068,-1.065322 c -0.03068,-1.018923 -0.04809,-1.095672 -0.371489,-1.749948 -0.962207,-1.946608 -3.419544,-3.051666 -6.783365,-3.051666 z m -6.662089,0.01689 c -0.216908,2.08e-4 -0.438176,0.0041 -0.664672,0.01075 -1.894849,0.05562 -2.805363,0.207662 -4.101636,0.684623 -2.818448,1.037055 -4.335049,3.147129 -4.338033,6.035796 v 0.653924 h 8.937022 8.937022 v -0.9287 c 0,-1.738262 -0.492003,-2.927794 -1.705436,-4.129264 -1.618914,-1.602962 -3.810596,-2.330239 -7.064266,-2.327127 z" />
  </g>
</svg>
