<?xml version="1.0" encoding="UTF-8" standalone="no"?>
<svg
   width="64"
   height="64"
   version="1.1"
   id="svg73"
   sodipodi:docname="application-x-st-disk-image.svg"
   inkscape:version="1.3.2 (091e20ef0f, 2023-11-25)"
   xmlns:inkscape="http://www.inkscape.org/namespaces/inkscape"
   xmlns:sodipodi="http://sodipodi.sourceforge.net/DTD/sodipodi-0.dtd"
   xmlns="http://www.w3.org/2000/svg"
   xmlns:svg="http://www.w3.org/2000/svg"
   xmlns:rdf="http://www.w3.org/1999/02/22-rdf-syntax-ns#"
   xmlns:cc="http://creativecommons.org/ns#"
   xmlns:dc="http://purl.org/dc/elements/1.1/">
  <metadata
     id="metadata77">
    <rdf:RDF>
      <cc:Work
         rdf:about="">
        <dc:format>image/svg+xml</dc:format>
        <dc:type
           rdf:resource="http://purl.org/dc/dcmitype/StillImage" />
      </cc:Work>
    </rdf:RDF>
  </metadata>
  <sodipodi:namedview
     pagecolor="#f5f7fa"
     bordercolor="#666666"
     borderopacity="1"
     objecttolerance="10"
     gridtolerance="10"
     guidetolerance="10"
     inkscape:pageopacity="0"
     inkscape:pageshadow="2"
     inkscape:window-width="1377"
     inkscape:window-height="886"
     id="namedview75"
     showgrid="false"
     inkscape:zoom="4.4470387"
     inkscape:cx="47.897042"
     inkscape:cy="14.054296"
     inkscape:window-x="119"
     inkscape:window-y="32"
     inkscape:window-maximized="0"
     inkscape:current-layer="g877"
     inkscape:document-rotation="0"
     inkscape:pagecheckerboard="0"
     inkscape:showpageshadow="2"
     inkscape:deskcolor="#d1d1d1" />
  <defs
     id="defs29">
    <linearGradient
       id="b"
       x1="399.57"
       x2="399.57"
       y1="545.8"
       y2="517.8"
       gradientTransform="matrix(2.1429,0,0,2.1429,-825.86391,-1107.6662)"
       gradientUnits="userSpaceOnUse">
      <stop
         stop-color="#3889e9"
         offset="0"
         id="stop2" />
      <stop
         stop-color="#5ea5fb"
         offset="1"
         id="stop4" />
    </linearGradient>
    <linearGradient
       id="d"
       x2="1"
       gradientTransform="matrix(14.905727,-4.7106182,4.7106182,14.905727,322.04962,998.26962)"
       gradientUnits="userSpaceOnUse">
      <stop
         stop-color="#fafafa"
         offset="0"
         id="stop7" />
      <stop
         stop-color="#aaa"
         offset="1"
         id="stop8" />
    </linearGradient>
    <linearGradient
       id="e"
       x2="1"
       gradientTransform="matrix(21.439909,0,0,21.439909,26.63554,1159.7788)"
       gradientUnits="userSpaceOnUse">
      <stop
         stop-color="#f0f0f0"
         offset="0"
         id="stop9" />
      <stop
         stop-color="#b7f1ff"
         offset="1"
         id="stop10" />
    </linearGradient>
    <linearGradient
       id="_Linear2"
       x2="1"
       gradientTransform="matrix(-0.33662128,-17.588561,17.588561,-0.33662128,289.63742,32.316102)"
       gradientUnits="userSpaceOnUse">
      <stop
         style="stop-color:#fefffe"
         offset="0"
         id="stop5" />
      <stop
         style="stop-color:#f1f1f0"
         offset="1"
         id="stop6" />
    </linearGradient>
    <clipPath
       clipPathUnits="userSpaceOnUse"
       id="clipPath7">
      <path
         d="m 33.894,28.457 v 1.292 h -8.831 v -1.292 z m 5.169,-2.508 v 1.292 h -14 v -1.292 z m 0,-2.538 v 1.292 h -14 v -1.292 z"
         style="display:block;fill:#d9dee3"
         id="path7" />
    </clipPath>
    <inkscape:path-effect
       effect="powerclip"
       id="path-effect7"
       is_visible="true"
       lpeversion="1"
       inverse="true"
       flatten="false"
       hide_clip="false"
       message="Use fill-rule evenodd on &lt;b&gt;fill and stroke&lt;/b&gt; dialog if no flatten result after convert clip to paths." />
  </defs>
  <circle
     cx="32.516094"
     cy="31.877844"
     r="0"
     fill="url(#b)"
     stroke-width="1.5715"
     id="circle41"
     style="fill:url(#b)" />
  <g
     aria-label="GZ"
     transform="matrix(1.2212657,0,0,0.81882264,0.4960938,-0.1661539)"
     id="text93"
     style="font-weight:bold;font-size:11.5263px;line-height:1.25;font-family:sans-serif;-inkscape-font-specification:'sans-serif Bold';fill:#f2f2f2;stroke-width:0.288159" />
  <g
     id="g877"
     transform="matrix(1.1,0,0,1.1,-3.1845928,-3.2065454)">
    <rect
       x="13.389396"
       y="8.0488043"
       width="37.45882"
       height="48.038597"
       rx="7.9658151"
       ry="9.6898966"
       fill="url(#linearGradient862)"
       stroke-width="3.0541"
       id="rect35-7-3"
       style="fill:#414141;fill-opacity:1;stroke:#dfdfdf;stroke-width:2.27272727;stroke-dasharray:none;stroke-opacity:1" />
    <path
       d="m 38.105085,27.388842 c -0.05273,-0.279091 0.500909,-1.92 -1.270909,-2.847272 -0.352727,-0.183637 -0.793636,-0.35091 -1.310909,-0.473637 -1.121818,-0.264545 -2.602727,-0.311818 -4.182727,0.144546 -1.324546,0.381818 -2.586364,1.081818 -3.662727,2.048181 -0.96,0.862728 -1.737273,1.907273 -2.276364,3.06091 -0.04636,0.100909 -0.09182,0.202727 -0.134545,0.304545 -0.30091,0.716364 -0.506364,1.526364 -0.546364,2.381818 -0.03909,0.823637 0.07545,1.735455 0.454545,2.635455 0.370909,0.773636 0.992728,1.585454 1.892728,2.198182 0.542727,0.370909 1.209091,0.676363 1.958181,0.827272 0.291819,0.05818 0.608182,0.09545 0.944546,0.09636 0.619091,0.0064 1.205454,-0.111818 1.745454,-0.304545 0.488182,-0.173637 0.933637,-0.405455 1.331819,-0.654546 0.362727,-0.226364 0.691818,-0.468182 0.979091,-0.680909 0.284545,-0.210909 0.517272,-0.383636 0.752727,-0.536364 0.216363,-0.140909 0.413636,-0.246363 0.591818,-0.317272 0.170909,-0.06818 0.303636,-0.09727 0.401818,-0.104546 0.09182,-0.01727 0.167273,-0.01091 0.195455,-0.01727 0.02909,-0.01818 0.03545,-0.0027 0.03545,-0.06545 0.0045,-0.05636 0.04182,-0.02 0.05636,0.01636 0.01909,0.05636 0.01364,0.151818 -0.02545,0.272727 -0.05818,0.124545 -0.149091,0.256363 -0.280909,0.404545 -0.143636,0.161818 -0.319091,0.322728 -0.510909,0.49 -0.05182,0.04546 -0.104545,0.09091 -0.158182,0.136364 -0.163636,0.14 -0.342727,0.288182 -0.528181,0.448182 -0.252728,0.219091 -0.518182,0.463636 -0.765455,0.748182 -0.263636,0.301818 -0.498182,0.645454 -0.668182,1.023636 -0.182727,0.403636 -0.289091,0.844545 -0.278182,1.301818 0.01545,0.366364 0.11,0.699091 0.246364,0.98 0.159091,0.326364 0.376364,0.586364 0.610909,0.774546 0.226364,0.180909 0.461818,0.288181 0.669091,0.338181 0.07182,0.01727 0.143636,0.02727 0.213636,0.03 0.483637,0.02364 0.794546,-0.243636 0.919091,-0.322727 -0.122727,-0.141818 -0.220909,-0.430909 -0.304545,-0.730909 -0.01091,-0.04091 -0.02273,-0.08091 -0.03364,-0.117273 -0.03273,-0.107272 -0.06273,-0.21 -0.08,-0.311818 -0.01727,-0.102727 -0.02727,-0.210909 -0.02273,-0.316364 0.0045,-0.09182 0.02091,-0.17909 0.05091,-0.254545 0.02727,-0.09455 0.08,-0.210909 0.17,-0.34 0.08727,-0.124545 0.207273,-0.257273 0.36,-0.385455 0.153637,-0.130909 0.333637,-0.258181 0.556364,-0.400909 0.17,-0.109091 0.334545,-0.207272 0.538182,-0.331818 0.06273,-0.03909 0.13,-0.08091 0.198182,-0.124545 0.247272,-0.157273 0.554545,-0.366364 0.853636,-0.623637 0.274545,-0.236363 0.574545,-0.540909 0.830909,-0.927272 0.246364,-0.345455 0.477273,-0.795455 0.580909,-1.333637 0.09636,-0.500909 0.08182,-1.089091 -0.146364,-1.672727 -0.27,-0.676364 -0.774545,-1.214545 -1.360909,-1.567273 -0.585454,-0.351818 -1.232727,-0.513636 -1.835454,-0.547273 -0.614546,-0.02454 -1.180909,0.08091 -1.671818,0.234546 -0.5,0.156364 -0.948182,0.370909 -1.326364,0.581818 -0.373636,0.207273 -0.734545,0.441818 -1.007273,0.614546 -0.312727,0.199091 -0.550909,0.345454 -0.784545,0.464545 -0.235455,0.12 -0.434546,0.192727 -0.595455,0.228182 -0.174545,0.03727 -0.278182,0.02545 -0.332727,0.0036 -0.02636,-0.01364 -0.05546,-0.03091 -0.08364,-0.05182 -0.07727,-0.05818 -0.144546,-0.144545 -0.172728,-0.237273 -0.05545,-0.161818 -0.06091,-0.357272 -0.03091,-0.530909 -0.01545,-0.173636 0,-0.392727 0.05,-0.640909 0.05364,-0.267273 0.144546,-0.559091 0.271818,-0.869091 0.01818,-0.04455 0.03727,-0.08909 0.05727,-0.133636 0.230909,-0.510909 0.590909,-0.989091 1.045455,-1.394546 0.51,-0.454545 1.085454,-0.77 1.652727,-0.969091 0.685455,-0.241818 1.360909,-0.314545 1.96,-0.360909 0.272727,-0.02091 0.522727,-0.03727 0.747273,-0.06364 1.180909,-0.138182 1.980909,-1.109091 2.466363,-1.227273 z"
       fill="#87898c"
       fill-rule="nonzero"
       id="path3"
       style="stroke-width:0.909091;fill:#dfdfdf;fill-opacity:1" />
    <g
       transform="matrix(0.52960909,0,0,0.52960909,19.275358,20.354587)"
       id="g5"
       style="fill:#dfdfdf;fill-opacity:1" />
  </g>
</svg>
