<?xml version="1.0" encoding="UTF-8" standalone="no"?>
<svg
   width="64"
   height="64"
   version="1.1"
   id="svg73"
   sodipodi:docname="application-x-thz.svg"
   inkscape:version="1.3.2 (091e20ef0f, 2023-11-25)"
   xmlns:inkscape="http://www.inkscape.org/namespaces/inkscape"
   xmlns:sodipodi="http://sodipodi.sourceforge.net/DTD/sodipodi-0.dtd"
   xmlns="http://www.w3.org/2000/svg"
   xmlns:svg="http://www.w3.org/2000/svg"
   xmlns:rdf="http://www.w3.org/1999/02/22-rdf-syntax-ns#"
   xmlns:cc="http://creativecommons.org/ns#"
   xmlns:dc="http://purl.org/dc/elements/1.1/">
  <metadata
     id="metadata77">
    <rdf:RDF>
      <cc:Work
         rdf:about="">
        <dc:format>image/svg+xml</dc:format>
        <dc:type
           rdf:resource="http://purl.org/dc/dcmitype/StillImage" />
      </cc:Work>
    </rdf:RDF>
  </metadata>
  <sodipodi:namedview
     pagecolor="#f5f7fa"
     bordercolor="#666666"
     borderopacity="1"
     objecttolerance="10"
     gridtolerance="10"
     guidetolerance="10"
     inkscape:pageopacity="0"
     inkscape:pageshadow="2"
     inkscape:window-width="1377"
     inkscape:window-height="886"
     id="namedview75"
     showgrid="false"
     inkscape:zoom="8.8940774"
     inkscape:cx="29.514022"
     inkscape:cy="30.975669"
     inkscape:window-x="120"
     inkscape:window-y="56"
     inkscape:window-maximized="0"
     inkscape:current-layer="g877"
     inkscape:document-rotation="0"
     inkscape:pagecheckerboard="0"
     inkscape:showpageshadow="2"
     inkscape:deskcolor="#d1d1d1" />
  <defs
     id="defs29">
    <linearGradient
       id="b"
       x1="399.57"
       x2="399.57"
       y1="545.8"
       y2="517.8"
       gradientTransform="matrix(2.1429,0,0,2.1429,-825.86391,-1107.6662)"
       gradientUnits="userSpaceOnUse">
      <stop
         stop-color="#3889e9"
         offset="0"
         id="stop2" />
      <stop
         stop-color="#5ea5fb"
         offset="1"
         id="stop4" />
    </linearGradient>
    <linearGradient
       id="d"
       x2="1"
       gradientTransform="matrix(14.905727,-4.7106182,4.7106182,14.905727,322.04962,998.26962)"
       gradientUnits="userSpaceOnUse">
      <stop
         stop-color="#fafafa"
         offset="0"
         id="stop7" />
      <stop
         stop-color="#aaa"
         offset="1"
         id="stop8" />
    </linearGradient>
    <linearGradient
       id="e"
       x2="1"
       gradientTransform="matrix(21.439909,0,0,21.439909,26.63554,1159.7788)"
       gradientUnits="userSpaceOnUse">
      <stop
         stop-color="#f0f0f0"
         offset="0"
         id="stop9" />
      <stop
         stop-color="#b7f1ff"
         offset="1"
         id="stop10" />
    </linearGradient>
  </defs>
  <circle
     cx="32.516094"
     cy="31.877844"
     r="0"
     fill="url(#b)"
     stroke-width="1.5715"
     id="circle41"
     style="fill:url(#b)" />
  <g
     aria-label="GZ"
     transform="matrix(1.2212657,0,0,0.81882264,0.4960938,-0.1661539)"
     id="text93"
     style="font-weight:bold;font-size:11.5263px;line-height:1.25;font-family:sans-serif;-inkscape-font-specification:'sans-serif Bold';fill:#f2f2f2;stroke-width:0.288159" />
  <g
     id="g877"
     transform="matrix(1.1,0,0,1.1,-3.1845928,-3.2065454)">
    <rect
       x="11.206388"
       y="10.543033"
       width="41.824833"
       height="43.050148"
       rx="8.8942709"
       ry="8.683672"
       fill="url(#linearGradient862)"
       stroke-width="3.0541"
       id="rect35-7-3"
       style="fill:#414141;fill-opacity:1;stroke:#dfdfdf;stroke-width:2.27272727;stroke-dasharray:none;stroke-opacity:1" />
    <path
       d="m 26.946221,19.851588 c 0.03146,-0.01211 0.24926,0.30129 0.482791,0.69212 0.233529,0.39083 0.832479,1.32374 1.32858,2.07152 1.01277,1.52339 1.805319,2.77937 2.2506,3.56587 l 0.298869,0.52514 0.113728,1.47136 c 0.06171,0.80828 0.25652,3.53804 0.43439,6.06573 0.26015,3.71228 0.308549,4.60526 0.24805,4.64277 -0.04114,0.02541 -0.08833,0.0484 -0.10406,0.04235 -0.01573,0 -0.87604,-0.09317 -1.910589,-0.19844 -7.197081,-0.739309 -8.632141,-0.91839 -9.954671,-1.24025 -0.52514,-0.127044 -1.012769,-0.245629 -1.08416,-0.26257 -0.07139,-0.01573 -0.130678,-0.06292 -0.130678,-0.10406 0,-0.04114 0.37268,-0.736891 0.828851,-1.547591 3.769149,-6.69735 5.78985,-11.041249 6.861909,-14.741429 0.153671,-0.52877 0.30492,-0.97163 0.33638,-0.98252 z m 5.540591,7.41972 c 0.01573,-0.01211 0.04477,0.01211 0.0847,0.02783 0.23474,0.125846 1.76539,1.545171 2.75638,2.55552 2.27601,2.32199 3.92645,4.515721 5.08321,6.76027 0.34727,0.671551 0.44649,0.91355 0.402929,0.98131 -0.08107,0.129467 -1.142239,0.56023 -1.950519,0.794971 -0.81191,0.234739 -1.71941,0.401719 -2.640221,0.483999 v -0.01211 c -0.857889,0.08107 -2.87496,0.08228 -2.922149,0.01211 -0.01936,-0.03146 0.04598,-0.310969 0.14641,-0.62194 1.005509,-3.12785 0.74536,-6.84376 -0.72237,-10.27895 -0.22264,-0.52151 -0.28677,-0.6897 -0.23837,-0.70543 z m 4.268879,2.58819 c 0.08349,-0.02178 0.415031,0.06292 1.028501,0.249261 2.19373,0.66792 3.665089,1.232989 4.973099,1.914219 1.13014,0.589271 2.43694,1.4883 2.43694,1.67585 0,0.04599 -0.08349,0.22143 -0.185129,0.38841 -0.62315,1.02971 -1.55727,2.01465 -2.504701,2.64143 -0.34485,0.22748 -0.649769,0.41261 -0.6776,0.41261 -0.08107,0 -0.09559,-0.09922 -0.124635,-0.867569 -0.03268,-0.84095 -0.16577,-1.409651 -0.500942,-2.125971 -0.618308,-1.322529 -1.754498,-2.42968 -3.980898,-3.88531 -0.38115,-0.24926 -0.54692,-0.38115 -0.464642,-0.40293 z m 8.91165,7.066401 c 0.0363,0.10164 -2.13807,2.665629 -2.53858,3.264579 -1.77507,2.657161 -10.844019,4.61736 -18.510579,4.255571 -2.744281,-0.129466 -5.644651,-3.801821 -5.553901,-3.783671 0.07261,0.01573 8.868091,1.79322 16.75366,0.493681 5.53817,-0.912341 9.8373,-4.261621 9.8494,-4.23016 z"
       style="clip-rule:evenodd;fill-opacity:1;fill-rule:nonzero;stroke-width:1.21;stroke-linejoin:round;stroke-miterlimit:2;fill:#dfdfdf"
       id="path7" />
  </g>
</svg>
