<?xml version="1.0" encoding="UTF-8" standalone="no"?>
<svg
   width="64"
   height="64"
   version="1.1"
   id="svg73"
   sodipodi:docname="application-blank.svg"
   inkscape:version="1.3.2 (091e20ef0f, 2023-11-25)"
   xmlns:inkscape="http://www.inkscape.org/namespaces/inkscape"
   xmlns:sodipodi="http://sodipodi.sourceforge.net/DTD/sodipodi-0.dtd"
   xmlns="http://www.w3.org/2000/svg"
   xmlns:svg="http://www.w3.org/2000/svg"
   xmlns:rdf="http://www.w3.org/1999/02/22-rdf-syntax-ns#"
   xmlns:cc="http://creativecommons.org/ns#"
   xmlns:dc="http://purl.org/dc/elements/1.1/">
  <metadata
     id="metadata77">
    <rdf:RDF>
      <cc:Work
         rdf:about="">
        <dc:format>image/svg+xml</dc:format>
        <dc:type
           rdf:resource="http://purl.org/dc/dcmitype/StillImage" />
      </cc:Work>
    </rdf:RDF>
  </metadata>
  <sodipodi:namedview
     pagecolor="#f5f7fa"
     bordercolor="#666666"
     borderopacity="1"
     objecttolerance="10"
     gridtolerance="10"
     guidetolerance="10"
     inkscape:pageopacity="0"
     inkscape:pageshadow="2"
     inkscape:window-width="1377"
     inkscape:window-height="886"
     id="namedview75"
     showgrid="false"
     inkscape:zoom="4.4470387"
     inkscape:cx="47.784608"
     inkscape:cy="14.054296"
     inkscape:window-x="119"
     inkscape:window-y="32"
     inkscape:window-maximized="0"
     inkscape:current-layer="g877"
     inkscape:document-rotation="0"
     inkscape:pagecheckerboard="0"
     inkscape:showpageshadow="2"
     inkscape:deskcolor="#d1d1d1" />
  <defs
     id="defs29">
    <linearGradient
       id="b"
       x1="399.57"
       x2="399.57"
       y1="545.8"
       y2="517.8"
       gradientTransform="matrix(2.1429,0,0,2.1429,-825.86391,-1107.6662)"
       gradientUnits="userSpaceOnUse">
      <stop
         stop-color="#3889e9"
         offset="0"
         id="stop2" />
      <stop
         stop-color="#5ea5fb"
         offset="1"
         id="stop4" />
    </linearGradient>
    <linearGradient
       id="d"
       x2="1"
       gradientTransform="matrix(14.905727,-4.7106182,4.7106182,14.905727,322.04962,998.26962)"
       gradientUnits="userSpaceOnUse">
      <stop
         stop-color="#fafafa"
         offset="0"
         id="stop7" />
      <stop
         stop-color="#aaa"
         offset="1"
         id="stop8" />
    </linearGradient>
    <linearGradient
       id="e"
       x2="1"
       gradientTransform="matrix(21.439909,0,0,21.439909,26.63554,1159.7788)"
       gradientUnits="userSpaceOnUse">
      <stop
         stop-color="#f0f0f0"
         offset="0"
         id="stop9" />
      <stop
         stop-color="#b7f1ff"
         offset="1"
         id="stop10" />
    </linearGradient>
  </defs>
  <circle
     cx="32.516094"
     cy="31.877844"
     r="0"
     fill="url(#b)"
     stroke-width="1.5715"
     id="circle41"
     style="fill:url(#b)" />
  <g
     aria-label="GZ"
     transform="matrix(1.2212657,0,0,0.81882264,0.4960938,-0.1661539)"
     id="text93"
     style="font-weight:bold;font-size:11.5263px;line-height:1.25;font-family:sans-serif;-inkscape-font-specification:'sans-serif Bold';fill:#f2f2f2;stroke-width:0.288159" />
  <g
     id="g877"
     transform="matrix(1.1,0,0,1.1,-3.1845928,-3.2065454)">
    <rect
       x="13.389396"
       y="8.0488043"
       width="37.45882"
       height="48.038597"
       rx="7.9658151"
       ry="9.6898966"
       fill="url(#linearGradient862)"
       stroke-width="3.0541"
       id="rect35-7-3"
       style="fill:#414141;fill-opacity:1;stroke:#dfdfdf;stroke-width:2.27272727;stroke-dasharray:none;stroke-opacity:1" />
    <g
       id="g2"
       style="fill:#dfdfdf;fill-opacity:1"
       transform="matrix(0.90909091,0,0,0.90909091,2.8950843,-4.357686)">
      <path
         fill="#f5f7fa"
         d="m 44.222739,39.683319 v 1.251354 H 19.886271 v -1.251354 z m 0,6.256766 v 1.251357 H 19.886271 v -1.251357 z m -7.8408,6.256773 v 1.251357 H 19.886271 v -1.251357 z"
         id="path42-7"
         style="fill:#dfdfdf;fill-opacity:1;stroke:none;stroke-width:1.089;stroke-dasharray:none;stroke-opacity:0.3"
         sodipodi:nodetypes="ccccccccccccccc" />
      <path
         d="m 20.143825,34.001545 h 1.386671 v -7.40269 h -1.386671 z m 3.125335,0 h 1.301338 V 28.23086 l -0.128001,0.05333 3.765346,5.717351 h 1.536004 v -7.40269 h -1.312004 l -0.01067,5.834685 0.170667,-0.05333 -3.754679,-5.781351 H 23.26916 Z m 8.202684,0 h 1.386671 v -3.07201 h 3.210677 v -1.205337 h -3.210677 v -1.920006 h 3.552011 v -1.205337 h -4.938682 z m 9.344034,0.096 c 2.218674,0 3.701345,-1.536005 3.701345,-3.861345 0,-2.240007 -1.440004,-3.733345 -3.594678,-3.733345 -2.19734,0 -3.658678,1.536004 -3.658678,3.850678 0,2.250674 1.418671,3.744012 3.552011,3.744012 z m 0.106667,-1.205337 c -1.344004,0 -2.22934,-1.045337 -2.22934,-2.656008 0,-1.514672 0.842669,-2.528008 2.122673,-2.528008 1.365338,0 2.272008,1.056003 2.272008,2.645341 0,1.536005 -0.864003,2.538675 -2.165341,2.538675 z"
         id="text5"
         style="font-weight:bold;font-size:10.6667px;line-height:0.8;font-family:Cantarell;-inkscape-font-specification:'Cantarell Bold';text-align:center;letter-spacing:0px;text-anchor:middle;fill:#dfdfdf;stroke-width:2;fill-opacity:1"
         aria-label="INFO" />
    </g>
  </g>
</svg>
