<?xml version="1.0" encoding="UTF-8" standalone="no"?>
<svg
   width="64"
   height="64"
   version="1.1"
   id="svg73"
   sodipodi:docname="application-x-st-disk-image.svg"
   inkscape:version="1.3.2 (091e20ef0f, 2023-11-25)"
   xmlns:inkscape="http://www.inkscape.org/namespaces/inkscape"
   xmlns:sodipodi="http://sodipodi.sourceforge.net/DTD/sodipodi-0.dtd"
   xmlns="http://www.w3.org/2000/svg"
   xmlns:svg="http://www.w3.org/2000/svg"
   xmlns:rdf="http://www.w3.org/1999/02/22-rdf-syntax-ns#"
   xmlns:cc="http://creativecommons.org/ns#"
   xmlns:dc="http://purl.org/dc/elements/1.1/">
  <metadata
     id="metadata77">
    <rdf:RDF>
      <cc:Work
         rdf:about="">
        <dc:format>image/svg+xml</dc:format>
        <dc:type
           rdf:resource="http://purl.org/dc/dcmitype/StillImage" />
      </cc:Work>
    </rdf:RDF>
  </metadata>
  <sodipodi:namedview
     pagecolor="#f5f7fa"
     bordercolor="#666666"
     borderopacity="1"
     objecttolerance="10"
     gridtolerance="10"
     guidetolerance="10"
     inkscape:pageopacity="0"
     inkscape:pageshadow="2"
     inkscape:window-width="1377"
     inkscape:window-height="886"
     id="namedview75"
     showgrid="false"
     inkscape:zoom="4.4470387"
     inkscape:cx="47.897042"
     inkscape:cy="14.054296"
     inkscape:window-x="119"
     inkscape:window-y="32"
     inkscape:window-maximized="0"
     inkscape:current-layer="g877"
     inkscape:document-rotation="0"
     inkscape:pagecheckerboard="0"
     inkscape:showpageshadow="2"
     inkscape:deskcolor="#d1d1d1" />
  <defs
     id="defs29">
    <linearGradient
       id="b"
       x1="399.57"
       x2="399.57"
       y1="545.8"
       y2="517.8"
       gradientTransform="matrix(2.1429,0,0,2.1429,-825.86391,-1107.6662)"
       gradientUnits="userSpaceOnUse">
      <stop
         stop-color="#3889e9"
         offset="0"
         id="stop2" />
      <stop
         stop-color="#5ea5fb"
         offset="1"
         id="stop4" />
    </linearGradient>
    <linearGradient
       id="d"
       x2="1"
       gradientTransform="matrix(14.905727,-4.7106182,4.7106182,14.905727,322.04962,998.26962)"
       gradientUnits="userSpaceOnUse">
      <stop
         stop-color="#fafafa"
         offset="0"
         id="stop7" />
      <stop
         stop-color="#aaa"
         offset="1"
         id="stop8" />
    </linearGradient>
    <linearGradient
       id="e"
       x2="1"
       gradientTransform="matrix(21.439909,0,0,21.439909,26.63554,1159.7788)"
       gradientUnits="userSpaceOnUse">
      <stop
         stop-color="#f0f0f0"
         offset="0"
         id="stop9" />
      <stop
         stop-color="#b7f1ff"
         offset="1"
         id="stop10" />
    </linearGradient>
    <linearGradient
       id="_Linear2"
       x2="1"
       gradientTransform="matrix(-0.33662128,-17.588561,17.588561,-0.33662128,289.63742,32.316102)"
       gradientUnits="userSpaceOnUse">
      <stop
         style="stop-color:#fefffe"
         offset="0"
         id="stop5" />
      <stop
         style="stop-color:#f1f1f0"
         offset="1"
         id="stop6" />
    </linearGradient>
    <clipPath
       clipPathUnits="userSpaceOnUse"
       id="clipPath7">
      <path
         d="m 33.894,28.457 v 1.292 h -8.831 v -1.292 z m 5.169,-2.508 v 1.292 h -14 v -1.292 z m 0,-2.538 v 1.292 h -14 v -1.292 z"
         style="display:block;fill:#d9dee3"
         id="path7" />
    </clipPath>
    <inkscape:path-effect
       effect="powerclip"
       id="path-effect7"
       is_visible="true"
       lpeversion="1"
       inverse="true"
       flatten="false"
       hide_clip="false"
       message="Use fill-rule evenodd on &lt;b&gt;fill and stroke&lt;/b&gt; dialog if no flatten result after convert clip to paths." />
  </defs>
  <circle
     cx="32.516094"
     cy="31.877844"
     r="0"
     fill="url(#b)"
     stroke-width="1.5715"
     id="circle41"
     style="fill:url(#b)" />
  <g
     aria-label="GZ"
     transform="matrix(1.2212657,0,0,0.81882264,0.4960938,-0.1661539)"
     id="text93"
     style="font-weight:bold;font-size:11.5263px;line-height:1.25;font-family:sans-serif;-inkscape-font-specification:'sans-serif Bold';fill:#f2f2f2;stroke-width:0.288159" />
  <g
     id="g877"
     transform="matrix(1.1,0,0,1.1,-3.1845928,-3.2065454)">
    <rect
       x="13.389396"
       y="8.0488043"
       width="37.45882"
       height="48.038597"
       rx="7.9658151"
       ry="9.6898966"
       fill="url(#linearGradient862)"
       stroke-width="3.0541"
       id="rect35-7-3"
       style="fill:#414141;fill-opacity:1;stroke:#dfdfdf;stroke-width:2.27272727;stroke-dasharray:none;stroke-opacity:1" />
    <g
       id="g9"
       transform="matrix(0.90909091,0,0,0.90909091,2.8950843,7.7332231)"
       style="fill:#dfdfdf;fill-opacity:1">
      <path
         d="m 33.761,20.107 c -0.178,-0.178 -0.464,-0.186 -0.65,-0.018 -0.962,0.864 -6.018,5.253 -11.126,6.805 l -0.056,0.017 c -0.132,0.04 -0.241,0.136 -0.296,0.264 -0.055,0.127 -0.052,0.272 0.009,0.397 l 0.026,0.051 c 0,10e-4 0.001,0.002 0.001,0.002 0.017,0.037 0.754,1.574 0.85,3.741 0.059,1.347 -0.136,2.642 -0.579,3.851 -0.158,0.012 -0.313,0.079 -0.434,0.2 -0.269,0.269 -0.269,0.706 0,0.976 0.27,0.269 0.707,0.27 0.976,0 0.156,-0.156 0.221,-0.368 0.197,-0.571 l 4.949,-4.949 c 0.124,-0.124 0.169,-0.305 0.118,-0.472 -0.175,-0.575 -0.019,-1.197 0.408,-1.624 0.308,-0.308 0.717,-0.477 1.152,-0.477 0.436,0 0.845,0.169 1.153,0.477 0.308,0.308 0.477,0.717 0.477,1.153 0,0.435 -0.169,0.844 -0.477,1.152 -0.308,0.308 -0.717,0.477 -1.152,0.477 -0.161,0 -0.321,-0.023 -0.473,-0.07 -0.167,-0.05 -0.348,-0.005 -0.471,0.118 l -4.949,4.95 c -0.203,-0.025 -0.415,0.04 -0.571,0.196 -0.27,0.27 -0.27,0.707 0,0.977 0.269,0.269 0.707,0.269 0.976,0 0.121,-0.121 0.187,-0.276 0.2,-0.434 1.066,-0.391 2.201,-0.589 3.374,-0.589 0.147,0 0.298,0.003 0.448,0.009 2.173,0.09 3.759,0.845 3.773,0.853 l 0.051,0.024 c 0.065,0.032 0.137,0.049 0.208,0.049 0.064,0 0.128,-0.013 0.188,-0.039 0.127,-0.056 0.224,-0.164 0.264,-0.297 l 0.017,-0.055 c 1.552,-5.108 5.941,-10.164 6.805,-11.126 0.167,-0.187 0.16,-0.472 -0.018,-0.65 z"
         fill="#3a4148"
         id="path7-6"
         style="fill:#dfdfdf;fill-opacity:1" />
      <path
         d="M 43.165,21.559 37.676,16.07 c -0.089,-0.089 -0.209,-0.138 -0.334,-0.138 -0.126,0 -0.246,0.049 -0.334,0.138 l -2.349,2.349 c -0.185,0.184 -0.185,0.483 0,0.668 l 5.49,5.489 c 0.088,0.089 0.208,0.139 0.334,0.139 0.125,0 0.245,-0.05 0.334,-0.139 l 2.349,-2.348 c 0.184,-0.185 0.184,-0.484 -10e-4,-0.669 z"
         fill="#3a4148"
         id="path8"
         style="fill:#dfdfdf;fill-opacity:1" />
    </g>
  </g>
</svg>
