<?xml version="1.0" encoding="UTF-8" standalone="no"?>
<svg
   width="64"
   height="64"
   version="1.1"
   id="svg73"
   sodipodi:docname="application-blank.svg"
   inkscape:version="1.3.2 (091e20ef0f, 2023-11-25)"
   xmlns:inkscape="http://www.inkscape.org/namespaces/inkscape"
   xmlns:sodipodi="http://sodipodi.sourceforge.net/DTD/sodipodi-0.dtd"
   xmlns="http://www.w3.org/2000/svg"
   xmlns:svg="http://www.w3.org/2000/svg"
   xmlns:rdf="http://www.w3.org/1999/02/22-rdf-syntax-ns#"
   xmlns:cc="http://creativecommons.org/ns#"
   xmlns:dc="http://purl.org/dc/elements/1.1/">
  <metadata
     id="metadata77">
    <rdf:RDF>
      <cc:Work
         rdf:about="">
        <dc:format>image/svg+xml</dc:format>
        <dc:type
           rdf:resource="http://purl.org/dc/dcmitype/StillImage" />
      </cc:Work>
    </rdf:RDF>
  </metadata>
  <sodipodi:namedview
     pagecolor="#f5f7fa"
     bordercolor="#666666"
     borderopacity="1"
     objecttolerance="10"
     gridtolerance="10"
     guidetolerance="10"
     inkscape:pageopacity="0"
     inkscape:pageshadow="2"
     inkscape:window-width="1377"
     inkscape:window-height="886"
     id="namedview75"
     showgrid="false"
     inkscape:zoom="4.4470387"
     inkscape:cx="47.784608"
     inkscape:cy="14.054296"
     inkscape:window-x="119"
     inkscape:window-y="32"
     inkscape:window-maximized="0"
     inkscape:current-layer="g877"
     inkscape:document-rotation="0"
     inkscape:pagecheckerboard="0"
     inkscape:showpageshadow="2"
     inkscape:deskcolor="#d1d1d1" />
  <defs
     id="defs29">
    <linearGradient
       id="b"
       x1="399.57"
       x2="399.57"
       y1="545.8"
       y2="517.8"
       gradientTransform="matrix(2.1429,0,0,2.1429,-825.86391,-1107.6662)"
       gradientUnits="userSpaceOnUse">
      <stop
         stop-color="#3889e9"
         offset="0"
         id="stop2" />
      <stop
         stop-color="#5ea5fb"
         offset="1"
         id="stop4" />
    </linearGradient>
    <linearGradient
       id="d"
       x2="1"
       gradientTransform="matrix(14.905727,-4.7106182,4.7106182,14.905727,322.04962,998.26962)"
       gradientUnits="userSpaceOnUse">
      <stop
         stop-color="#fafafa"
         offset="0"
         id="stop7" />
      <stop
         stop-color="#aaa"
         offset="1"
         id="stop8" />
    </linearGradient>
    <linearGradient
       id="e"
       x2="1"
       gradientTransform="matrix(21.439909,0,0,21.439909,26.63554,1159.7788)"
       gradientUnits="userSpaceOnUse">
      <stop
         stop-color="#f0f0f0"
         offset="0"
         id="stop9" />
      <stop
         stop-color="#b7f1ff"
         offset="1"
         id="stop10" />
    </linearGradient>
  </defs>
  <circle
     cx="32.516094"
     cy="31.877844"
     r="0"
     fill="url(#b)"
     stroke-width="1.5715"
     id="circle41"
     style="fill:url(#b)" />
  <g
     aria-label="GZ"
     transform="matrix(1.2212657,0,0,0.81882264,0.4960938,-0.1661539)"
     id="text93"
     style="font-weight:bold;font-size:11.5263px;line-height:1.25;font-family:sans-serif;-inkscape-font-specification:'sans-serif Bold';fill:#f2f2f2;stroke-width:0.288159" />
  <g
     id="g877"
     transform="matrix(1.1,0,0,1.1,-3.1845928,-3.2065454)">
    <rect
       x="13.389396"
       y="8.0488043"
       width="37.45882"
       height="48.038597"
       rx="7.9658151"
       ry="9.6898966"
       fill="url(#linearGradient862)"
       stroke-width="3.0541"
       id="rect35-7-3"
       style="fill:#414141;fill-opacity:1;stroke:#dfdfdf;stroke-width:2.27272727;stroke-dasharray:none;stroke-opacity:1" />
    <g
       id="g2"
       style="fill:#dfdfdf;fill-opacity:1"
       transform="matrix(0.90909091,0,0,0.90909091,2.8950843,-4.357686)">
      <path
         fill="#f5f7fa"
         d="m 44.222739,39.683319 v 1.251354 H 19.886271 v -1.251354 z m 0,6.256766 v 1.251357 H 19.886271 v -1.251357 z m -7.8408,6.256773 v 1.251357 H 19.886271 v -1.251357 z"
         id="path42-7"
         style="fill:#dfdfdf;fill-opacity:1;stroke:none;stroke-width:1.089;stroke-dasharray:none;stroke-opacity:0.3"
         sodipodi:nodetypes="ccccccccccccccc" />
      <path
         d="m 22.433507,34.191965 0.08533,-1.13067 c -0.938669,0 -1.216004,-0.330668 -1.120003,-0.949336 l 0.181334,-1.248004 c 0.128,-0.853336 -0.394668,-1.557338 -1.248004,-1.696006 v 0.01067 c 0.810669,-0.128 1.386671,-0.810669 1.29067,-1.514671 l -0.181333,-1.322671 c -0.096,-0.672002 0.224,-0.981337 1.077336,-0.981337 l -0.08533,-1.120003 c -1.834673,0 -2.474675,0.661335 -2.304008,1.984006 l 0.181334,1.322671 c 0.08533,0.640002 -0.384001,1.16267 -1.09867,1.184004 v 1.077336 c 0.714669,0.02133 1.184004,0.522669 1.088004,1.162671 l -0.181334,1.22667 c -0.192001,1.301338 0.416001,1.994673 2.314674,1.994673 z m 5.386669,-9.941364 -0.07467,1.120003 c 0.928003,0 1.205337,0.341335 1.109336,0.960003 l -0.181333,1.248004 c -0.128001,0.853336 0.394667,1.546672 1.248004,1.696005 v -0.02133 c -0.81067,0.128 -1.386672,0.821336 -1.290671,1.525338 l 0.181334,1.312004 c 0.096,0.672002 -0.224001,0.981337 -1.06667,0.981337 l 0.07467,1.13067 c 1.834672,0 2.474674,-0.672002 2.304007,-1.984006 l -0.181334,-1.322671 c -0.08533,-0.640002 0.384001,-1.173337 1.09867,-1.184004 V 28.623951 C 30.32685,28.613281 29.857515,28.111949 29.953516,27.471947 L 30.13485,26.23461 c 0.192,-1.301338 -0.416002,-1.984006 -2.314674,-1.984006 z"
         id="text3"
         style="font-weight:bold;font-size:10.6667px;line-height:0.8;font-family:Cantarell;-inkscape-font-specification:'Cantarell Bold';text-align:center;letter-spacing:0px;text-anchor:middle;fill:#dfdfdf;stroke-width:2;fill-opacity:1"
         aria-label="{  }" />
    </g>
  </g>
</svg>
