<?xml version="1.0" encoding="UTF-8" standalone="no"?>
<svg
   width="64"
   height="64"
   version="1.1"
   id="svg73"
   sodipodi:docname="application-vnd.rn-realmedia.svg"
   inkscape:version="1.4.2 (ebf0e940d0, 2025-05-08)"
   xmlns:inkscape="http://www.inkscape.org/namespaces/inkscape"
   xmlns:sodipodi="http://sodipodi.sourceforge.net/DTD/sodipodi-0.dtd"
   xmlns:xlink="http://www.w3.org/1999/xlink"
   xmlns="http://www.w3.org/2000/svg"
   xmlns:svg="http://www.w3.org/2000/svg"
   xmlns:rdf="http://www.w3.org/1999/02/22-rdf-syntax-ns#"
   xmlns:cc="http://creativecommons.org/ns#"
   xmlns:dc="http://purl.org/dc/elements/1.1/">
  <metadata
     id="metadata77">
    <rdf:RDF>
      <cc:Work
         rdf:about="">
        <dc:format>image/svg+xml</dc:format>
        <dc:type
           rdf:resource="http://purl.org/dc/dcmitype/StillImage" />
      </cc:Work>
    </rdf:RDF>
  </metadata>
  <sodipodi:namedview
     pagecolor="#f5f7fa"
     bordercolor="#666666"
     borderopacity="1"
     objecttolerance="10"
     gridtolerance="10"
     guidetolerance="10"
     inkscape:pageopacity="0"
     inkscape:pageshadow="2"
     inkscape:window-width="1377"
     inkscape:window-height="886"
     id="namedview75"
     showgrid="false"
     inkscape:zoom="4.4470387"
     inkscape:cx="48.234345"
     inkscape:cy="14.054296"
     inkscape:window-x="119"
     inkscape:window-y="32"
     inkscape:window-maximized="0"
     inkscape:current-layer="g877"
     inkscape:document-rotation="0"
     inkscape:pagecheckerboard="0"
     inkscape:showpageshadow="2"
     inkscape:deskcolor="#d1d1d1" />
  <defs
     id="defs29">
    <linearGradient
       id="b"
       x1="399.57"
       x2="399.57"
       y1="545.8"
       y2="517.8"
       gradientTransform="matrix(2.1429,0,0,2.1429,-825.86391,-1107.6662)"
       gradientUnits="userSpaceOnUse">
      <stop
         stop-color="#3889e9"
         offset="0"
         id="stop2" />
      <stop
         stop-color="#5ea5fb"
         offset="1"
         id="stop4" />
    </linearGradient>
    <linearGradient
       id="d"
       x2="1"
       gradientTransform="matrix(14.905727,-4.7106182,4.7106182,14.905727,322.04962,998.26962)"
       gradientUnits="userSpaceOnUse">
      <stop
         stop-color="#fafafa"
         offset="0"
         id="stop7" />
      <stop
         stop-color="#aaa"
         offset="1"
         id="stop8" />
    </linearGradient>
    <linearGradient
       id="e"
       x2="1"
       gradientTransform="matrix(21.439909,0,0,21.439909,26.63554,1159.7788)"
       gradientUnits="userSpaceOnUse">
      <stop
         stop-color="#f0f0f0"
         offset="0"
         id="stop9" />
      <stop
         stop-color="#b7f1ff"
         offset="1"
         id="stop10" />
    </linearGradient>
    <linearGradient
       id="_Linear2"
       x2="1"
       gradientTransform="matrix(-0.33662128,-17.588561,17.588561,-0.33662128,289.63742,32.316102)"
       gradientUnits="userSpaceOnUse">
      <stop
         style="stop-color:#fefffe"
         offset="0"
         id="stop5" />
      <stop
         style="stop-color:#f1f1f0"
         offset="1"
         id="stop6" />
    </linearGradient>
    <clipPath
       clipPathUnits="userSpaceOnUse"
       id="clipPath7">
      <path
         d="m 33.894,28.457 v 1.292 h -8.831 v -1.292 z m 5.169,-2.508 v 1.292 h -14 v -1.292 z m 0,-2.538 v 1.292 h -14 v -1.292 z"
         style="display:block;fill:#d9dee3"
         id="path7" />
    </clipPath>
    <inkscape:path-effect
       effect="powerclip"
       id="path-effect7"
       is_visible="true"
       lpeversion="1"
       inverse="true"
       flatten="false"
       hide_clip="false"
       message="" />
    <linearGradient
       id="linearGradient1"
       inkscape:collect="always">
      <stop
         style="stop-color:#d8dee9;stop-opacity:1;"
         offset="0"
         id="stop1" />
      <stop
         style="stop-color:#eceff4;stop-opacity:1;"
         offset="1"
         id="stop2-0" />
    </linearGradient>
    <linearGradient
       inkscape:collect="always"
       xlink:href="#linearGradient1"
       id="linearGradient5"
       x1="37.830982"
       y1="26.034248"
       x2="20.853935"
       y2="19.901464"
       gradientUnits="userSpaceOnUse" />
  </defs>
  <circle
     cx="32.516094"
     cy="31.877844"
     r="0"
     fill="url(#b)"
     stroke-width="1.5715"
     id="circle41"
     style="fill:url(#b)" />
  <g
     aria-label="GZ"
     transform="matrix(1.2212657,0,0,0.81882264,0.4960938,-0.1661539)"
     id="text93"
     style="font-weight:bold;font-size:11.5263px;line-height:1.25;font-family:sans-serif;-inkscape-font-specification:'sans-serif Bold';fill:#f2f2f2;stroke-width:0.288159" />
  <g
     id="g877"
     transform="matrix(1.1,0,0,1.1,-3.1845928,-3.2065454)">
    <rect
       x="13.256583"
       y="7.9866519"
       width="37.45882"
       height="48.038597"
       rx="7.9658151"
       ry="9.6898966"
       fill="url(#linearGradient862)"
       stroke-width="3.0541"
       id="rect35-7-3"
       style="fill:#414141;fill-opacity:1;stroke:#dfdfdf;stroke-width:2.27273;stroke-dasharray:none;stroke-opacity:1" />
    <path
       style="fill:#dfdfdf;fill-opacity:1;stroke-width:0.818182"
       d="m 32.260833,38.145918 c -0.133621,0.0083 -0.266877,0.03084 -0.396281,0.06552 -0.517614,0.138707 -0.973635,0.48992 -1.241573,0.954044 -0.267936,0.464128 -0.343226,1.035653 -0.204531,1.553319 0.138693,0.517667 0.48987,0.973732 0.953949,1.241696 0.464082,0.267964 1.03555,0.34326 1.553165,0.204552 0.517615,-0.138707 0.973636,-0.489919 1.241574,-0.954044 0.267936,-0.464127 0.343226,-1.035652 0.204531,-1.553319 -0.138694,-0.517667 -0.48987,-0.973733 -0.95395,-1.241697 -0.348061,-0.200972 -0.756021,-0.294866 -1.156884,-0.270073 z m 5.754058,-8.183958 c -0.58637,0.01606 -1.169402,0.203497 -1.644245,0.548136 -0.550643,0.399655 -0.941452,0.974901 -1.371002,1.50218 -0.214775,0.263641 -0.442796,0.518358 -0.706275,0.733512 -0.263478,0.215155 -0.564434,0.391466 -0.893228,0.479419 -0.328795,0.08795 -0.677139,0.08518 -1.013074,0.03037 -0.335936,-0.0548 -0.661475,-0.161746 -0.979516,-0.282857 -0.636083,-0.242221 -1.261225,-0.545604 -1.938259,-0.616853 -0.934133,-0.09831 -1.90656,0.28902 -2.516701,1.001986 -0.610142,0.712968 -0.840728,1.732621 -0.597616,2.638403 0.24311,0.905785 0.952112,1.671909 1.83759,1.984795 0.88548,0.312888 1.921539,0.163093 2.681285,-0.388328 0.550646,-0.399655 0.941453,-0.974902 1.371004,-1.50218 0.214775,-0.263641 0.442797,-0.518358 0.706276,-0.733512 0.263477,-0.215155 0.564434,-0.391466 0.893228,-0.479419 0.328793,-0.08795 0.677137,-0.08518 1.013072,-0.03037 0.335936,0.05481 0.661473,0.161746 0.979515,0.282856 0.636083,0.242223 1.261225,0.545604 1.93826,0.616854 0.934134,0.09831 1.906559,-0.289019 2.516703,-1.001986 0.610141,-0.712967 0.840727,-1.732621 0.597615,-2.638404 -0.243112,-0.905785 -0.952111,-1.671908 -1.83759,-1.984796 -0.332055,-0.117332 -0.685218,-0.169446 -1.037042,-0.159806 z m -0.172574,-8.181816 c -0.781828,0.02089 -1.559204,0.264708 -2.192325,0.712737 -0.734193,0.519552 -1.253673,1.26897 -1.826407,1.954432 -0.286366,0.342731 -0.59146,0.672745 -0.942763,0.952446 -0.351305,0.279701 -0.752048,0.507308 -1.190441,0.621647 -0.438392,0.114339 -0.902317,0.112805 -1.350231,0.04154 -0.447914,-0.07125 -0.883031,-0.210112 -1.307087,-0.367555 -0.848109,-0.314889 -1.682697,-0.709603 -2.58541,-0.802228 -1.245511,-0.1278 -2.54208,0.375566 -3.355602,1.302423 -0.813523,0.926856 -1.121503,2.251926 -0.797354,3.429444 0.324146,1.17752 1.272144,2.174122 2.452784,2.580874 1.18064,0.406755 2.561519,0.211859 3.574515,-0.504988 0.734193,-0.519551 1.253672,-1.26897 1.826406,-1.954433 0.286366,-0.342731 0.59146,-0.672744 0.942764,-0.952445 0.351303,-0.279701 0.752047,-0.50731 1.190439,-0.621647 0.438393,-0.11434 0.902318,-0.112806 1.350232,-0.04154 0.447915,0.07125 0.883031,0.210111 1.307087,0.367555 0.84811,0.314888 1.682697,0.709603 2.585411,0.802227 1.24551,0.1278 2.542078,-0.375564 3.355601,-1.302422 0.813523,-0.926857 1.121502,-2.251926 0.797355,-3.429445 -0.324148,-1.177519 -1.272145,-2.174121 -2.452785,-2.580874 -0.44274,-0.152532 -0.913092,-0.220281 -1.382189,-0.207748 z"
       id="path7-8" />
    <path
       style="color:#4d4d4d;clip-rule:nonzero;display:inline;overflow:visible;visibility:visible;isolation:auto;mix-blend-mode:normal;color-interpolation:sRGB;color-interpolation-filters:linearRGB;solid-color:#000000;solid-opacity:1;fill:#dfdfdf;fill-opacity:1;fill-rule:nonzero;stroke-width:0.990001;stroke-linecap:butt;stroke-linejoin:miter;stroke-miterlimit:4;stroke-dasharray:none;stroke-dashoffset:0;stroke-opacity:1;color-rendering:auto;image-rendering:auto;shape-rendering:auto;text-rendering:auto;enable-background:accumulate;opacity:0"
       id="path31"
       d="m 35.945994,20.12595 -3.96,4.455 -1.2474,1.485 h 3.2274 v 0.99 h -7.920001 v 10.890003 h -3.20562 l 1.225621,1.484996 3.96,4.455001 3.96,-4.455001 1.2474,-1.484996 h -3.2274 v -0.99 h 7.920005 V 26.06595 h 3.205614 l -1.225618,-1.485 z m 0,1.48896 3.075931,3.46104 h -2.085932 v 10.890006 h -6.929999 v -1.980004 h 4.95 V 25.07595 h -2.08593 z m -8.910001,6.431042 h 6.930001 v 1.98 h -4.95 v 8.91 h 2.08593 l -3.07593,3.461037 -3.075931,-3.461037 h 2.08593 v -0.989999 z m 2.970001,2.97 h 3.96 v 1.98 h -3.96 z"
       fill="#ffffff"
       opacity="0.75" />
    <g
       transform="matrix(0.52960909,0,0,0.52960909,19.275358,20.354587)"
       id="g5"
       style="fill:#dfdfdf;fill-opacity:1" />
  </g>
</svg>
