<?xml version="1.0" encoding="UTF-8" standalone="no"?>
<svg
   width="64"
   height="64"
   version="1.1"
   id="svg73"
   sodipodi:docname="application-x-st-disk-image.svg"
   inkscape:version="1.3.2 (091e20ef0f, 2023-11-25)"
   xmlns:inkscape="http://www.inkscape.org/namespaces/inkscape"
   xmlns:sodipodi="http://sodipodi.sourceforge.net/DTD/sodipodi-0.dtd"
   xmlns="http://www.w3.org/2000/svg"
   xmlns:svg="http://www.w3.org/2000/svg"
   xmlns:rdf="http://www.w3.org/1999/02/22-rdf-syntax-ns#"
   xmlns:cc="http://creativecommons.org/ns#"
   xmlns:dc="http://purl.org/dc/elements/1.1/">
  <metadata
     id="metadata77">
    <rdf:RDF>
      <cc:Work
         rdf:about="">
        <dc:format>image/svg+xml</dc:format>
        <dc:type
           rdf:resource="http://purl.org/dc/dcmitype/StillImage" />
      </cc:Work>
    </rdf:RDF>
  </metadata>
  <sodipodi:namedview
     pagecolor="#f5f7fa"
     bordercolor="#666666"
     borderopacity="1"
     objecttolerance="10"
     gridtolerance="10"
     guidetolerance="10"
     inkscape:pageopacity="0"
     inkscape:pageshadow="2"
     inkscape:window-width="1377"
     inkscape:window-height="886"
     id="namedview75"
     showgrid="false"
     inkscape:zoom="4.4470387"
     inkscape:cx="47.897042"
     inkscape:cy="14.054296"
     inkscape:window-x="119"
     inkscape:window-y="32"
     inkscape:window-maximized="0"
     inkscape:current-layer="g877"
     inkscape:document-rotation="0"
     inkscape:pagecheckerboard="0"
     inkscape:showpageshadow="2"
     inkscape:deskcolor="#d1d1d1" />
  <defs
     id="defs29">
    <linearGradient
       id="b"
       x1="399.57"
       x2="399.57"
       y1="545.8"
       y2="517.8"
       gradientTransform="matrix(2.1429,0,0,2.1429,-825.86391,-1107.6662)"
       gradientUnits="userSpaceOnUse">
      <stop
         stop-color="#3889e9"
         offset="0"
         id="stop2" />
      <stop
         stop-color="#5ea5fb"
         offset="1"
         id="stop4" />
    </linearGradient>
    <linearGradient
       id="d"
       x2="1"
       gradientTransform="matrix(14.905727,-4.7106182,4.7106182,14.905727,322.04962,998.26962)"
       gradientUnits="userSpaceOnUse">
      <stop
         stop-color="#fafafa"
         offset="0"
         id="stop7" />
      <stop
         stop-color="#aaa"
         offset="1"
         id="stop8" />
    </linearGradient>
    <linearGradient
       id="e"
       x2="1"
       gradientTransform="matrix(21.439909,0,0,21.439909,26.63554,1159.7788)"
       gradientUnits="userSpaceOnUse">
      <stop
         stop-color="#f0f0f0"
         offset="0"
         id="stop9" />
      <stop
         stop-color="#b7f1ff"
         offset="1"
         id="stop10" />
    </linearGradient>
    <linearGradient
       id="_Linear2"
       x2="1"
       gradientTransform="matrix(-0.33662128,-17.588561,17.588561,-0.33662128,289.63742,32.316102)"
       gradientUnits="userSpaceOnUse">
      <stop
         style="stop-color:#fefffe"
         offset="0"
         id="stop5" />
      <stop
         style="stop-color:#f1f1f0"
         offset="1"
         id="stop6" />
    </linearGradient>
    <clipPath
       clipPathUnits="userSpaceOnUse"
       id="clipPath7">
      <path
         d="m 33.894,28.457 v 1.292 h -8.831 v -1.292 z m 5.169,-2.508 v 1.292 h -14 v -1.292 z m 0,-2.538 v 1.292 h -14 v -1.292 z"
         style="display:block;fill:#d9dee3"
         id="path7" />
    </clipPath>
    <inkscape:path-effect
       effect="powerclip"
       id="path-effect7"
       is_visible="true"
       lpeversion="1"
       inverse="true"
       flatten="false"
       hide_clip="false"
       message="Use fill-rule evenodd on &lt;b&gt;fill and stroke&lt;/b&gt; dialog if no flatten result after convert clip to paths." />
  </defs>
  <circle
     cx="32.516094"
     cy="31.877844"
     r="0"
     fill="url(#b)"
     stroke-width="1.5715"
     id="circle41"
     style="fill:url(#b)" />
  <g
     aria-label="GZ"
     transform="matrix(1.2212657,0,0,0.81882264,0.4960938,-0.1661539)"
     id="text93"
     style="font-weight:bold;font-size:11.5263px;line-height:1.25;font-family:sans-serif;-inkscape-font-specification:'sans-serif Bold';fill:#f2f2f2;stroke-width:0.288159" />
  <g
     id="g877"
     transform="matrix(1.1,0,0,1.1,-3.1845928,-3.2065454)">
    <rect
       x="13.389396"
       y="8.0488043"
       width="37.45882"
       height="48.038597"
       rx="7.9658151"
       ry="9.6898966"
       fill="url(#linearGradient862)"
       stroke-width="3.0541"
       id="rect35-7-3"
       style="fill:#414141;fill-opacity:1;stroke:#dfdfdf;stroke-width:2.27272727;stroke-dasharray:none;stroke-opacity:1" />
    <path
       id="path72"
       style="fill:#dfdfdf;fill-opacity:1;stroke:none;stroke-width:0.714493;stroke-dasharray:none;stroke-dashoffset:2.2;stroke-opacity:0.3"
       d="m 31.969765,21.904446 c -6.821543,0 -6.849791,9.9e-4 -7.066782,0.171647 -0.487637,0.383583 -0.461909,-0.192232 -0.461909,9.871724 0,5.553868 0.0318,9.313024 0.07815,9.434934 0.103872,0.273201 0.396786,0.534406 0.699143,0.623791 0.139478,0.04123 3.187016,0.06802 6.937001,0.05998 6.420841,-0.01389 6.698179,-0.02109 6.918861,-0.170214 0.494553,-0.335194 0.467491,0.235208 0.467491,-9.942897 0,-8.486309 -0.01191,-9.346798 -0.133983,-9.553552 -0.308787,-0.52277 0.09766,-0.495423 -7.437969,-0.495423 z m -11.056499,1.641101 v 1.025688 1.027084 h 1.066158 1.067552 v -1.027084 -1.025688 h -1.067552 z m 19.94161,0 v 1.025688 1.027084 H 41.9629 43.07092 V 24.571235 23.545547 H 41.9629 Z m -12.719928,0.820552 h 0.492609 0.491213 v 1.27269 1.271294 h -0.491213 -0.492609 v -1.271294 z m 3.364534,0 h 0.49261 0.49261 v 3.4064 3.405004 h -0.438186 c -0.240728,0 -0.462514,-0.02433 -0.492609,-0.05441 -0.03009,-0.03009 -0.05442,-1.561948 -0.05442,-3.405005 z m 3.446872,0 h 0.450743 0.452143 v 2.543984 2.545382 h -0.452143 -0.450743 v -2.545382 z m -14.033088,2.954259 v 1.027083 1.025689 h 1.066158 1.067552 v -1.025689 -1.027083 h -1.067552 z m 19.94161,0 v 1.027083 1.025689 H 41.9629 43.07092 V 28.347441 27.320358 H 41.9629 Z M 28.134948,27.73203 h 0.494004 0.494005 l -0.02234,1.292227 -0.02235,1.292227 -0.413067,0.02371 c -0.227386,0.01332 -0.43953,-0.0013 -0.471647,-0.03348 -0.03212,-0.03212 -0.05861,-0.625259 -0.05861,-1.317347 z m 6.811406,2.543985 h 0.450743 0.452143 V 31.54731 32.82 h -0.452143 -0.450743 v -1.27269 z m -6.811406,0.820549 h 0.492609 0.491213 v 2.543987 2.543985 h -0.491213 -0.492609 v -2.543985 z m -7.221682,0.08095 v 0.985218 0.985218 h 1.066158 1.067552 v -0.985219 -0.985219 h -1.067552 z m 19.94161,0 v 0.985219 0.985218 h 1.108024 1.10802 v -0.98522 -0.985219 H 41.9629 Z m -8.370174,0.731236 v 3.409192 3.410587 h -0.494006 -0.492609 l 0.02093,-3.385468 0.02093,-3.385468 0.471678,-0.02371 z m 2.461652,1.73181 h 0.450743 0.452143 v 2.99473 2.996125 H 35.397097 34.946354 V 36.63529 Z m -14.033088,1.313156 v 1.02569 1.025686 h 1.066158 1.067552 v -1.025686 -1.02569 h -1.067552 z m 19.94161,0 v 1.02569 1.025686 h 1.108024 1.10802 v -1.025686 -1.02569 H 41.9629 Z m -19.94161,3.774811 v 1.025689 1.02569 h 1.066158 1.067552 v -1.02569 -1.025689 h -1.067552 z m 19.94161,0 v 1.025689 1.02569 h 1.108024 1.10802 v -1.02569 -1.025689 H 41.9629 Z" />
  </g>
</svg>
