<?xml version="1.0" encoding="UTF-8" standalone="no"?>
<svg
   width="64"
   height="64"
   version="1.1"
   id="svg73"
   sodipodi:docname="application-vnd.rn-realmedia.svg"
   inkscape:version="1.4.2 (ebf0e940d0, 2025-05-08)"
   xmlns:inkscape="http://www.inkscape.org/namespaces/inkscape"
   xmlns:sodipodi="http://sodipodi.sourceforge.net/DTD/sodipodi-0.dtd"
   xmlns:xlink="http://www.w3.org/1999/xlink"
   xmlns="http://www.w3.org/2000/svg"
   xmlns:svg="http://www.w3.org/2000/svg"
   xmlns:rdf="http://www.w3.org/1999/02/22-rdf-syntax-ns#"
   xmlns:cc="http://creativecommons.org/ns#"
   xmlns:dc="http://purl.org/dc/elements/1.1/">
  <metadata
     id="metadata77">
    <rdf:RDF>
      <cc:Work
         rdf:about="">
        <dc:format>image/svg+xml</dc:format>
        <dc:type
           rdf:resource="http://purl.org/dc/dcmitype/StillImage" />
      </cc:Work>
    </rdf:RDF>
  </metadata>
  <sodipodi:namedview
     pagecolor="#f5f7fa"
     bordercolor="#666666"
     borderopacity="1"
     objecttolerance="10"
     gridtolerance="10"
     guidetolerance="10"
     inkscape:pageopacity="0"
     inkscape:pageshadow="2"
     inkscape:window-width="1377"
     inkscape:window-height="886"
     id="namedview75"
     showgrid="false"
     inkscape:zoom="4.4470387"
     inkscape:cx="48.234345"
     inkscape:cy="14.054296"
     inkscape:window-x="119"
     inkscape:window-y="32"
     inkscape:window-maximized="0"
     inkscape:current-layer="g877"
     inkscape:document-rotation="0"
     inkscape:pagecheckerboard="0"
     inkscape:showpageshadow="2"
     inkscape:deskcolor="#d1d1d1" />
  <defs
     id="defs29">
    <linearGradient
       id="b"
       x1="399.57"
       x2="399.57"
       y1="545.8"
       y2="517.8"
       gradientTransform="matrix(2.1429,0,0,2.1429,-825.86391,-1107.6662)"
       gradientUnits="userSpaceOnUse">
      <stop
         stop-color="#3889e9"
         offset="0"
         id="stop2" />
      <stop
         stop-color="#5ea5fb"
         offset="1"
         id="stop4" />
    </linearGradient>
    <linearGradient
       id="d"
       x2="1"
       gradientTransform="matrix(14.905727,-4.7106182,4.7106182,14.905727,322.04962,998.26962)"
       gradientUnits="userSpaceOnUse">
      <stop
         stop-color="#fafafa"
         offset="0"
         id="stop7" />
      <stop
         stop-color="#aaa"
         offset="1"
         id="stop8" />
    </linearGradient>
    <linearGradient
       id="e"
       x2="1"
       gradientTransform="matrix(21.439909,0,0,21.439909,26.63554,1159.7788)"
       gradientUnits="userSpaceOnUse">
      <stop
         stop-color="#f0f0f0"
         offset="0"
         id="stop9" />
      <stop
         stop-color="#b7f1ff"
         offset="1"
         id="stop10" />
    </linearGradient>
    <linearGradient
       id="_Linear2"
       x2="1"
       gradientTransform="matrix(-0.33662128,-17.588561,17.588561,-0.33662128,289.63742,32.316102)"
       gradientUnits="userSpaceOnUse">
      <stop
         style="stop-color:#fefffe"
         offset="0"
         id="stop5" />
      <stop
         style="stop-color:#f1f1f0"
         offset="1"
         id="stop6" />
    </linearGradient>
    <clipPath
       clipPathUnits="userSpaceOnUse"
       id="clipPath7">
      <path
         d="m 33.894,28.457 v 1.292 h -8.831 v -1.292 z m 5.169,-2.508 v 1.292 h -14 v -1.292 z m 0,-2.538 v 1.292 h -14 v -1.292 z"
         style="display:block;fill:#d9dee3"
         id="path7" />
    </clipPath>
    <inkscape:path-effect
       effect="powerclip"
       id="path-effect7"
       is_visible="true"
       lpeversion="1"
       inverse="true"
       flatten="false"
       hide_clip="false"
       message="" />
    <linearGradient
       id="linearGradient1"
       inkscape:collect="always">
      <stop
         style="stop-color:#d8dee9;stop-opacity:1;"
         offset="0"
         id="stop1" />
      <stop
         style="stop-color:#eceff4;stop-opacity:1;"
         offset="1"
         id="stop2-0" />
    </linearGradient>
    <linearGradient
       inkscape:collect="always"
       xlink:href="#linearGradient1"
       id="linearGradient5"
       x1="37.830982"
       y1="26.034248"
       x2="20.853935"
       y2="19.901464"
       gradientUnits="userSpaceOnUse" />
  </defs>
  <circle
     cx="32.516094"
     cy="31.877844"
     r="0"
     fill="url(#b)"
     stroke-width="1.5715"
     id="circle41"
     style="fill:url(#b)" />
  <g
     aria-label="GZ"
     transform="matrix(1.2212657,0,0,0.81882264,0.4960938,-0.1661539)"
     id="text93"
     style="font-weight:bold;font-size:11.5263px;line-height:1.25;font-family:sans-serif;-inkscape-font-specification:'sans-serif Bold';fill:#f2f2f2;stroke-width:0.288159" />
  <g
     id="g877"
     transform="matrix(1.1,0,0,1.1,-3.1845928,-3.2065454)">
    <rect
       x="13.256583"
       y="7.9866519"
       width="37.45882"
       height="48.038597"
       rx="7.9658151"
       ry="9.6898966"
       fill="url(#linearGradient862)"
       stroke-width="3.0541"
       id="rect35-7-3"
       style="fill:#414141;fill-opacity:1;stroke:#dfdfdf;stroke-width:2.27273;stroke-dasharray:none;stroke-opacity:1" />
    <path
       d="m 23.33365,27.005947 c -0.74419,0 -1.347657,0.624152 -1.347657,1.368963 v 7.262077 c 0,0.744813 0.603467,1.368967 1.347657,1.368967 h 5.486505 c 0.74419,0 1.347657,-0.624155 1.347657,-1.368967 V 32.91504 h 3.636363 v 2.721947 c 0,0.744813 0.603467,1.368967 1.347657,1.368967 h 5.486506 c 0.74419,0 1.347655,-0.624155 1.347655,-1.368967 V 28.37491 c 0,-0.744812 -0.603465,-1.368963 -1.347655,-1.368963 h -5.486506 c -0.74419,0 -1.347657,0.624152 -1.347657,1.368963 v 2.721948 H 30.167812 V 28.37491 c 0,-0.744812 -0.603467,-1.368963 -1.347657,-1.368963 z m 0,0.891336 h 5.486505 c 0.253962,0 0.456321,0.200326 0.456321,0.477627 v 2.721948 h -1.381392 c -0.503636,0 -0.90909,0.405455 -0.90909,0.90909 0,0.503637 0.405454,0.909092 0.90909,0.909092 h 1.381392 v 2.721947 c 0,0.277319 -0.20236,0.477629 -0.456321,0.477629 H 23.33365 c -0.253962,0 -0.456321,-0.200319 -0.456321,-0.477629 V 28.37491 c 0,-0.277302 0.20236,-0.477627 0.456321,-0.477627 z m 11.818182,0 h 5.486506 c 0.253955,0 0.456321,0.200326 0.456321,0.477627 v 7.262077 c 0,0.277319 -0.202346,0.477629 -0.456321,0.477629 h -5.486506 c -0.253962,0 -0.456321,-0.200319 -0.456321,-0.477629 V 32.91504 h 1.381391 c 0.503637,0 0.909091,-0.405455 0.909091,-0.909092 0,-0.503635 -0.405454,-0.90909 -0.909091,-0.90909 H 34.695511 V 28.37491 c 0,-0.277302 0.202359,-0.477627 0.456321,-0.477627 z"
       color="#000000"
       color-rendering="auto"
       dominant-baseline="auto"
       fill="#ffffff"
       image-rendering="auto"
       opacity="0.6"
       shape-rendering="auto"
       solid-color="#000000"
       style="font-variant-ligatures:normal;font-variant-position:normal;font-variant-caps:normal;font-variant-numeric:normal;font-variant-alternates:normal;font-feature-settings:normal;text-indent:0;text-decoration-line:none;text-decoration-style:solid;text-decoration-color:#000000;text-transform:none;text-orientation:mixed;white-space:normal;shape-padding:0;opacity:1;isolation:auto;mix-blend-mode:normal;fill:#dfdfdf;stroke-width:0.909091;fill-opacity:1"
       id="path7-0" />
    <path
       style="color:#4d4d4d;clip-rule:nonzero;display:inline;overflow:visible;visibility:visible;isolation:auto;mix-blend-mode:normal;color-interpolation:sRGB;color-interpolation-filters:linearRGB;solid-color:#000000;solid-opacity:1;fill:#dfdfdf;fill-opacity:1;fill-rule:nonzero;stroke-width:0.990001;stroke-linecap:butt;stroke-linejoin:miter;stroke-miterlimit:4;stroke-dasharray:none;stroke-dashoffset:0;stroke-opacity:1;color-rendering:auto;image-rendering:auto;shape-rendering:auto;text-rendering:auto;enable-background:accumulate;opacity:0"
       id="path31"
       d="m 35.945994,20.12595 -3.96,4.455 -1.2474,1.485 h 3.2274 v 0.99 h -7.920001 v 10.890003 h -3.20562 l 1.225621,1.484996 3.96,4.455001 3.96,-4.455001 1.2474,-1.484996 h -3.2274 v -0.99 h 7.920005 V 26.06595 h 3.205614 l -1.225618,-1.485 z m 0,1.48896 3.075931,3.46104 h -2.085932 v 10.890006 h -6.929999 v -1.980004 h 4.95 V 25.07595 h -2.08593 z m -8.910001,6.431042 h 6.930001 v 1.98 h -4.95 v 8.91 h 2.08593 l -3.07593,3.461037 -3.075931,-3.461037 h 2.08593 v -0.989999 z m 2.970001,2.97 h 3.96 v 1.98 h -3.96 z"
       fill="#ffffff"
       opacity="0.75" />
    <g
       transform="matrix(0.52960909,0,0,0.52960909,19.275358,20.354587)"
       id="g5"
       style="fill:#dfdfdf;fill-opacity:1" />
  </g>
</svg>
