<?xml version="1.0" encoding="UTF-8" standalone="no"?>
<svg
   width="64"
   height="64"
   version="1.1"
   id="svg73"
   sodipodi:docname="application-x-st-disk-image.svg"
   inkscape:version="1.3.2 (091e20ef0f, 2023-11-25)"
   xmlns:inkscape="http://www.inkscape.org/namespaces/inkscape"
   xmlns:sodipodi="http://sodipodi.sourceforge.net/DTD/sodipodi-0.dtd"
   xmlns="http://www.w3.org/2000/svg"
   xmlns:svg="http://www.w3.org/2000/svg"
   xmlns:rdf="http://www.w3.org/1999/02/22-rdf-syntax-ns#"
   xmlns:cc="http://creativecommons.org/ns#"
   xmlns:dc="http://purl.org/dc/elements/1.1/">
  <metadata
     id="metadata77">
    <rdf:RDF>
      <cc:Work
         rdf:about="">
        <dc:format>image/svg+xml</dc:format>
        <dc:type
           rdf:resource="http://purl.org/dc/dcmitype/StillImage" />
      </cc:Work>
    </rdf:RDF>
  </metadata>
  <sodipodi:namedview
     pagecolor="#f5f7fa"
     bordercolor="#666666"
     borderopacity="1"
     objecttolerance="10"
     gridtolerance="10"
     guidetolerance="10"
     inkscape:pageopacity="0"
     inkscape:pageshadow="2"
     inkscape:window-width="1377"
     inkscape:window-height="886"
     id="namedview75"
     showgrid="false"
     inkscape:zoom="4.4470387"
     inkscape:cx="47.897042"
     inkscape:cy="14.054296"
     inkscape:window-x="119"
     inkscape:window-y="32"
     inkscape:window-maximized="0"
     inkscape:current-layer="g877"
     inkscape:document-rotation="0"
     inkscape:pagecheckerboard="0"
     inkscape:showpageshadow="2"
     inkscape:deskcolor="#d1d1d1" />
  <defs
     id="defs29">
    <linearGradient
       id="b"
       x1="399.57"
       x2="399.57"
       y1="545.8"
       y2="517.8"
       gradientTransform="matrix(2.1429,0,0,2.1429,-825.86391,-1107.6662)"
       gradientUnits="userSpaceOnUse">
      <stop
         stop-color="#3889e9"
         offset="0"
         id="stop2" />
      <stop
         stop-color="#5ea5fb"
         offset="1"
         id="stop4" />
    </linearGradient>
    <linearGradient
       id="d"
       x2="1"
       gradientTransform="matrix(14.905727,-4.7106182,4.7106182,14.905727,322.04962,998.26962)"
       gradientUnits="userSpaceOnUse">
      <stop
         stop-color="#fafafa"
         offset="0"
         id="stop7" />
      <stop
         stop-color="#aaa"
         offset="1"
         id="stop8" />
    </linearGradient>
    <linearGradient
       id="e"
       x2="1"
       gradientTransform="matrix(21.439909,0,0,21.439909,26.63554,1159.7788)"
       gradientUnits="userSpaceOnUse">
      <stop
         stop-color="#f0f0f0"
         offset="0"
         id="stop9" />
      <stop
         stop-color="#b7f1ff"
         offset="1"
         id="stop10" />
    </linearGradient>
    <linearGradient
       id="_Linear2"
       x2="1"
       gradientTransform="matrix(-0.33662128,-17.588561,17.588561,-0.33662128,289.63742,32.316102)"
       gradientUnits="userSpaceOnUse">
      <stop
         style="stop-color:#fefffe"
         offset="0"
         id="stop5" />
      <stop
         style="stop-color:#f1f1f0"
         offset="1"
         id="stop6" />
    </linearGradient>
    <clipPath
       clipPathUnits="userSpaceOnUse"
       id="clipPath7">
      <path
         d="m 33.894,28.457 v 1.292 h -8.831 v -1.292 z m 5.169,-2.508 v 1.292 h -14 v -1.292 z m 0,-2.538 v 1.292 h -14 v -1.292 z"
         style="display:block;fill:#d9dee3"
         id="path7" />
    </clipPath>
    <inkscape:path-effect
       effect="powerclip"
       id="path-effect7"
       is_visible="true"
       lpeversion="1"
       inverse="true"
       flatten="false"
       hide_clip="false"
       message="Use fill-rule evenodd on &lt;b&gt;fill and stroke&lt;/b&gt; dialog if no flatten result after convert clip to paths." />
  </defs>
  <circle
     cx="32.516094"
     cy="31.877844"
     r="0"
     fill="url(#b)"
     stroke-width="1.5715"
     id="circle41"
     style="fill:url(#b)" />
  <g
     aria-label="GZ"
     transform="matrix(1.2212657,0,0,0.81882264,0.4960938,-0.1661539)"
     id="text93"
     style="font-weight:bold;font-size:11.5263px;line-height:1.25;font-family:sans-serif;-inkscape-font-specification:'sans-serif Bold';fill:#f2f2f2;stroke-width:0.288159" />
  <g
     id="g877"
     transform="matrix(1.1,0,0,1.1,-3.1845928,-3.2065454)">
    <rect
       x="13.389396"
       y="8.0488043"
       width="37.45882"
       height="48.038597"
       rx="7.9658151"
       ry="9.6898966"
       fill="url(#linearGradient862)"
       stroke-width="3.0541"
       id="rect35-7-3"
       style="fill:#414141;fill-opacity:1;stroke:#dfdfdf;stroke-width:2.27272727;stroke-dasharray:none;stroke-opacity:1" />
    <g
       id="g12"
       style="clip-rule:evenodd;fill-rule:evenodd;stroke-linejoin:round;stroke-miterlimit:2;fill:#dfdfdf;fill-opacity:1"
       transform="matrix(0.90909091,0,0,0.90909091,1.9860107,8.2786776)">
      <path
         d="m 40.21,13.179 c -0.065,0.04 -0.092,0.075 -0.076,0.049 -0.734,1.242 -0.741,2.868 -1.073,4.328 0.002,0.025 0.002,0.051 0,0.076 -0.163,1.598 -0.685,3.225 -0.266,4.759 0.017,0.031 0.031,0.063 0.042,0.097 0.078,0.101 0.177,0.193 0.235,0.205 0.043,0.008 0.108,-0.011 0.26,-0.116 0.163,-0.114 0.268,-0.323 0.316,-0.623 0.014,-0.082 0.045,-0.159 0.093,-0.226 0.655,-2.6 1.123,-5.33 0.949,-8.002 v -0.027 c -0.023,-0.123 -0.061,-0.197 -0.18,-0.34 -0.081,-0.098 -0.131,-0.15 -0.152,-0.165 -0.021,-0.015 -0.003,-0.017 -0.078,-0.013 -0.023,0.001 -0.047,0.001 -0.07,-0.002 z"
         style="fill:#dfdfdf;fill-rule:nonzero;fill-opacity:1"
         id="path9" />
      <path
         d="m 46.236,14.442 c -0.019,0.003 -0.037,0.004 -0.055,0.004 -1.127,0.549 -1.707,1.874 -2.486,2.939 -0.011,0.052 -0.031,0.103 -0.057,0.15 -0.982,1.74 -2.232,3.464 -2.364,5.477 0.006,0.318 0.188,0.499 0.376,0.54 0.178,0.038 0.503,-0.077 0.636,-0.276 0.011,-0.029 0.002,-0.058 0.019,-0.083 0.004,-0.006 0.008,-0.013 0.012,-0.019 1.78,-2.446 3.126,-5.347 4.231,-8.166 10e-4,-0.003 0.002,-0.006 0.002,-0.008 0.077,-0.185 0.081,-0.258 0.013,-0.398 -0.02,-0.041 -0.219,-0.174 -0.327,-0.16 z"
         style="fill:#dfdfdf;fill-rule:nonzero;fill-opacity:1"
         id="path10" />
      <path
         d="m 28.729,15.255 c -0.181,0.034 -0.45,0.196 -0.642,0.271 -0.68,0.258 -1.055,0.84 -1.217,1.521 -0.165,0.696 -0.11,1.471 0,2.264 0.11,0.791 0.268,1.607 0.44,2.23 0.147,0.539 0.253,0.802 0.304,0.981 v 0.135 c 0,0.059 -0.029,0.054 -0.068,0.101 -0.022,0.012 0.022,0.068 0,0.068 -0.049,0.037 -0.108,0.067 -0.169,0.067 -0.12,0.008 -0.214,-0.036 -0.338,-0.067 -0.084,-0.02 -0.194,-0.088 -0.169,-0.068 -0.039,-0.024 -0.109,-0.026 -0.135,-0.068 0,0.016 0.024,0.016 0,-0.033 -0.027,-0.051 -0.058,-0.18 -0.101,-0.271 -0.097,-0.205 -0.172,-0.442 -0.304,-0.743 -0.264,-0.6 -0.603,-1.337 -0.981,-2.028 -0.378,-0.694 -0.824,-1.323 -1.318,-1.757 -0.246,-0.217 -0.551,-0.435 -0.845,-0.507 -0.283,-0.071 -0.619,-0.011 -0.912,0.135 -0.757,0.42 -1.185,1.108 -1.352,1.825 -0.167,0.728 -0.088,1.567 0.034,2.298 0.124,0.73 0.316,1.331 0.439,1.825 0.053,0.208 0.118,0.403 0.135,0.507 0,0.103 -0.042,0.373 -0.067,0.473 -0.128,0.443 -0.439,1.183 -0.44,1.183 0,0 -5.897,15.663 6.76,14.566 0.104,-0.008 0.341,-0.068 0.439,-0.068 2.486,-0.5 4.838,-1.252 6.928,-2.095 0.411,-0.197 0.95,-0.392 1.555,-0.676 1.21,-0.567 2.73,-1.293 4.19,-2.095 1.462,-0.803 2.817,-1.658 3.853,-2.569 1.038,-0.912 1.795,-1.911 1.656,-2.906 -0.22,-1.604 -1.285,-2.797 -2.703,-3.718 -1.424,-0.924 -3.199,-1.562 -4.968,-2.027 -1.77,-0.466 -3.487,-0.844 -4.799,-1.048 -0.656,-0.102 -1.271,-0.132 -1.656,-0.203 -0.115,-0.02 -0.175,-0.048 -0.237,-0.068 -0.033,-0.004 -0.036,-0.014 -0.068,-0.033 -0.039,-0.024 -0.111,-0.027 -0.135,-0.068 -0.021,-0.039 0,-0.09 0,-0.135 v -1.048 c -0.021,-0.809 -0.069,-1.877 -0.236,-2.872 -0.17,-1 -0.43,-1.956 -0.98,-2.603 -0.327,-0.384 -0.79,-0.636 -1.352,-0.676 -0.169,-0.019 -0.358,-0.033 -0.541,0 z"
         style="fill:#dfdfdf;fill-rule:nonzero;fill-opacity:1"
         id="path11" />
    </g>
    <g
       transform="matrix(0.52960909,0,0,0.52960909,19.275358,20.354587)"
       id="g5"
       style="fill:#dfdfdf;fill-opacity:1" />
  </g>
</svg>
