<?xml version="1.0" encoding="UTF-8" standalone="no"?>
<svg
   width="64"
   height="64"
   version="1.1"
   id="svg73"
   sodipodi:docname="application-vnd.rn-realmedia.svg"
   inkscape:version="1.4.2 (ebf0e940d0, 2025-05-08)"
   xmlns:inkscape="http://www.inkscape.org/namespaces/inkscape"
   xmlns:sodipodi="http://sodipodi.sourceforge.net/DTD/sodipodi-0.dtd"
   xmlns:xlink="http://www.w3.org/1999/xlink"
   xmlns="http://www.w3.org/2000/svg"
   xmlns:svg="http://www.w3.org/2000/svg"
   xmlns:rdf="http://www.w3.org/1999/02/22-rdf-syntax-ns#"
   xmlns:cc="http://creativecommons.org/ns#"
   xmlns:dc="http://purl.org/dc/elements/1.1/">
  <metadata
     id="metadata77">
    <rdf:RDF>
      <cc:Work
         rdf:about="">
        <dc:format>image/svg+xml</dc:format>
        <dc:type
           rdf:resource="http://purl.org/dc/dcmitype/StillImage" />
      </cc:Work>
    </rdf:RDF>
  </metadata>
  <sodipodi:namedview
     pagecolor="#f5f7fa"
     bordercolor="#666666"
     borderopacity="1"
     objecttolerance="10"
     gridtolerance="10"
     guidetolerance="10"
     inkscape:pageopacity="0"
     inkscape:pageshadow="2"
     inkscape:window-width="1377"
     inkscape:window-height="886"
     id="namedview75"
     showgrid="false"
     inkscape:zoom="4.4470387"
     inkscape:cx="48.234345"
     inkscape:cy="14.054296"
     inkscape:window-x="119"
     inkscape:window-y="32"
     inkscape:window-maximized="0"
     inkscape:current-layer="g877"
     inkscape:document-rotation="0"
     inkscape:pagecheckerboard="0"
     inkscape:showpageshadow="2"
     inkscape:deskcolor="#d1d1d1" />
  <defs
     id="defs29">
    <linearGradient
       id="b"
       x1="399.57"
       x2="399.57"
       y1="545.8"
       y2="517.8"
       gradientTransform="matrix(2.1429,0,0,2.1429,-825.86391,-1107.6662)"
       gradientUnits="userSpaceOnUse">
      <stop
         stop-color="#3889e9"
         offset="0"
         id="stop2" />
      <stop
         stop-color="#5ea5fb"
         offset="1"
         id="stop4" />
    </linearGradient>
    <linearGradient
       id="d"
       x2="1"
       gradientTransform="matrix(14.905727,-4.7106182,4.7106182,14.905727,322.04962,998.26962)"
       gradientUnits="userSpaceOnUse">
      <stop
         stop-color="#fafafa"
         offset="0"
         id="stop7" />
      <stop
         stop-color="#aaa"
         offset="1"
         id="stop8" />
    </linearGradient>
    <linearGradient
       id="e"
       x2="1"
       gradientTransform="matrix(21.439909,0,0,21.439909,26.63554,1159.7788)"
       gradientUnits="userSpaceOnUse">
      <stop
         stop-color="#f0f0f0"
         offset="0"
         id="stop9" />
      <stop
         stop-color="#b7f1ff"
         offset="1"
         id="stop10" />
    </linearGradient>
    <linearGradient
       id="_Linear2"
       x2="1"
       gradientTransform="matrix(-0.33662128,-17.588561,17.588561,-0.33662128,289.63742,32.316102)"
       gradientUnits="userSpaceOnUse">
      <stop
         style="stop-color:#fefffe"
         offset="0"
         id="stop5" />
      <stop
         style="stop-color:#f1f1f0"
         offset="1"
         id="stop6" />
    </linearGradient>
    <clipPath
       clipPathUnits="userSpaceOnUse"
       id="clipPath7">
      <path
         d="m 33.894,28.457 v 1.292 h -8.831 v -1.292 z m 5.169,-2.508 v 1.292 h -14 v -1.292 z m 0,-2.538 v 1.292 h -14 v -1.292 z"
         style="display:block;fill:#d9dee3"
         id="path7" />
    </clipPath>
    <inkscape:path-effect
       effect="powerclip"
       id="path-effect7"
       is_visible="true"
       lpeversion="1"
       inverse="true"
       flatten="false"
       hide_clip="false"
       message="" />
    <linearGradient
       id="linearGradient1"
       inkscape:collect="always">
      <stop
         style="stop-color:#d8dee9;stop-opacity:1;"
         offset="0"
         id="stop1" />
      <stop
         style="stop-color:#eceff4;stop-opacity:1;"
         offset="1"
         id="stop2-0" />
    </linearGradient>
    <linearGradient
       inkscape:collect="always"
       xlink:href="#linearGradient1"
       id="linearGradient5"
       x1="37.830982"
       y1="26.034248"
       x2="20.853935"
       y2="19.901464"
       gradientUnits="userSpaceOnUse" />
  </defs>
  <circle
     cx="32.516094"
     cy="31.877844"
     r="0"
     fill="url(#b)"
     stroke-width="1.5715"
     id="circle41"
     style="fill:url(#b)" />
  <g
     aria-label="GZ"
     transform="matrix(1.2212657,0,0,0.81882264,0.4960938,-0.1661539)"
     id="text93"
     style="font-weight:bold;font-size:11.5263px;line-height:1.25;font-family:sans-serif;-inkscape-font-specification:'sans-serif Bold';fill:#f2f2f2;stroke-width:0.288159" />
  <g
     id="g877"
     transform="matrix(1.1,0,0,1.1,-3.1845928,-3.2065454)">
    <rect
       x="13.256583"
       y="7.9866519"
       width="37.45882"
       height="48.038597"
       rx="7.9658151"
       ry="9.6898966"
       fill="url(#linearGradient862)"
       stroke-width="3.0541"
       id="rect35-7-3"
       style="fill:#414141;fill-opacity:1;stroke:#dfdfdf;stroke-width:2.27273;stroke-dasharray:none;stroke-opacity:1" />
    <path
       fill="#f5f7fa"
       d="m 35.714091,30.465313 c -0.648198,-0.236389 -1.104906,-0.78761 -1.104906,-1.436454 0,-0.649802 0.457807,-1.201031 1.106006,-1.436453 0.08584,-0.03158 0.138658,-0.109094 0.116642,-0.188517 -0.195879,-0.701489 -0.515027,-1.360859 -0.93652,-1.959939 -0.04842,-0.06891 -0.148565,-0.09188 -0.23551,-0.06029 -0.650397,0.231595 -1.42185,0.123456 -1.950094,-0.335906 -0.528243,-0.459355 -0.652599,-1.129254 -0.386278,-1.694839 0.03521,-0.07465 0.01003,-0.161732 -0.06933,-0.204796 -0.690013,-0.366529 -1.448258,-0.644058 -2.254926,-0.814405 -0.09134,-0.01912 -0.180483,0.02677 -0.2168,0.101443 -0.270725,0.564629 -0.905714,0.963697 -1.652956,0.963697 -0.746141,0 -1.380032,-0.398112 -1.651855,-0.961781 -0.03632,-0.07465 -0.125457,-0.120583 -0.216799,-0.101445 -0.80667,0.171305 -1.566017,0.449786 -2.254931,0.817275 -0.07924,0.04212 -0.103448,0.128239 -0.06933,0.201925 0.265222,0.565585 0.140864,1.235483 -0.387376,1.694843 -0.527141,0.458401 -1.296393,0.567496 -1.94569,0.337817 -0.08584,-0.03064 -0.183787,-0.0086 -0.232204,0.06029 -0.421494,0.600038 -0.74064,1.260365 -0.935429,1.961845 -0.02201,0.07846 0.03082,0.156935 0.116654,0.188518 0.645995,0.236388 1.102705,0.787606 1.102705,1.435494 0,0.647887 -0.454508,1.197203 -1.099403,1.434538 -0.08585,0.03158 -0.138663,0.109094 -0.116654,0.188517 0.19589,0.701482 0.517237,1.360851 0.939829,1.96089 0.04842,0.06795 0.146368,0.08994 0.232208,0.0603 0.649297,-0.228707 1.41745,-0.118657 1.943489,0.338778 0.526041,0.456488 0.651497,1.124472 0.389578,1.688141 -0.03413,0.07465 -0.0088,0.15981 0.06933,0.201946 0.690017,0.367488 1.449365,0.645018 2.256033,0.815365 0.09024,0.0192 0.180483,-0.027 0.216799,-0.101447 0.272925,-0.560801 0.905714,-0.956044 1.649654,-0.956044 0.74504,0 1.37673,0.395243 1.649655,0.956044 0.03632,0.07464 0.125456,0.120594 0.216799,0.101447 0.806669,-0.170358 1.566016,-0.447877 2.25603,-0.815365 0.07924,-0.04211 0.10345,-0.127301 0.06932,-0.201946 -0.264122,-0.564627 -0.138656,-1.233569 0.388477,-1.691968 0.527144,-0.458404 1.297498,-0.566541 1.946792,-0.336866 0.08586,0.03064 0.183772,0.0086 0.232199,-0.0603 0.42259,-0.600031 0.742837,-1.259405 0.93873,-1.961839 0.01976,-0.07942 -0.03301,-0.156964 -0.119982,-0.188518 z m -7.580269,1.912076 c -2.123971,0 -3.851759,-1.502484 -3.851759,-3.349489 0,-1.846999 1.727788,-3.349487 3.851759,-3.349487 2.123971,0 3.851761,1.502488 3.851761,3.349487 0,1.847005 -1.72779,3.349489 -3.851761,3.349489 z m 15.397683,5.11175 c -0.0047,0.05261 -0.05363,0.09232 -0.112969,0.09627 -0.453094,0.03868 -0.858252,0.303695 -1.000912,0.706629 -0.142636,0.401953 0.0206,0.819778 0.369776,1.073847 0.04682,0.03376 0.06163,0.09035 0.03081,0.135957 -0.27506,0.402941 -0.61858,0.758244 -1.012322,1.05995 -0.04565,0.03476 -0.110687,0.03176 -0.157498,-0.0011 -0.352657,-0.250096 -0.853685,-0.310644 -1.280524,-0.114138 -0.426848,0.19649 -0.650536,0.589523 -0.611734,0.98353 0.0055,0.05262 -0.02852,0.101221 -0.08675,0.114137 -0.507873,0.112133 -1.038573,0.158779 -1.57612,0.130002 -0.06048,-0.0033 -0.10615,-0.04565 -0.111856,-0.09824 -0.04679,-0.393018 -0.351522,-0.742364 -0.812599,-0.866423 -0.462223,-0.124072 -0.940421,0.0167 -1.232598,0.318586 -0.0388,0.0407 -0.103839,0.05361 -0.156356,0.027 -0.463361,-0.240187 -0.871946,-0.537914 -1.218898,-0.880311 -0.03994,-0.03973 -0.03651,-0.09627 0.0011,-0.136986 0.285325,-0.30568 0.354943,-0.740383 0.128972,-1.110568 -0.225992,-0.371182 -0.677924,-0.566698 -1.129876,-0.532956 -0.05934,0.0051 -0.115278,-0.02477 -0.130112,-0.07542 -0.130114,-0.442636 -0.183746,-0.904128 -0.151795,-1.37158 0.0034,-0.05262 0.05249,-0.09232 0.112998,-0.09727 0.451951,-0.04074 0.853686,-0.305742 0.996345,-0.706696 0.142665,-0.401949 -0.01948,-0.818782 -0.367494,-1.072852 -0.04566,-0.03376 -0.06163,-0.09032 -0.03081,-0.135958 0.273919,-0.40195 0.617436,-0.758243 1.010037,-1.05995 0.04566,-0.03476 0.110714,-0.03176 0.157499,0.0011 0.351522,0.250095 0.852544,0.310643 1.279388,0.114138 0.427986,-0.196491 0.651676,-0.591508 0.611736,-0.985518 -0.0055,-0.0516 0.0285,-0.101221 0.08675,-0.114138 0.507874,-0.113133 1.039714,-0.15978 1.57726,-0.131975 0.06048,0.0032 0.106148,0.04664 0.111854,0.09928 0.04453,0.395001 0.350377,0.74633 0.8126,0.870389 0.463362,0.124073 0.943843,-0.01782 1.236011,-0.322552 0.0388,-0.03968 0.10384,-0.0536 0.156359,-0.027 0.463365,0.239185 0.871947,0.537916 1.218899,0.87932 0.03994,0.03869 0.03765,0.09727 -0.001,0.137961 -0.28875,0.306671 -0.358371,0.742364 -0.132368,1.114537 0.225966,0.372178 0.68021,0.567689 1.134442,0.53196 0.06048,-0.0051 0.117534,0.02561 0.132367,0.0764 0.128972,0.44165 0.182603,0.903146 0.149511,1.370597 z m -5.862797,1.803307 c 1.315906,0.352324 2.717405,-0.291788 3.122563,-1.436097 0.405159,-1.144308 -0.335541,-2.363056 -1.651443,-2.715379 -1.315906,-0.352326 -2.717411,0.291786 -3.12257,1.436093 -0.405159,1.144314 0.335544,2.36306 1.65145,2.715383 z"
       id="path42-3"
       style="fill:#dfdfdf;fill-opacity:1;stroke:none;stroke-width:0.909088;stroke-dasharray:none;stroke-opacity:0.3" />
    <path
       style="color:#4d4d4d;clip-rule:nonzero;display:inline;overflow:visible;visibility:visible;isolation:auto;mix-blend-mode:normal;color-interpolation:sRGB;color-interpolation-filters:linearRGB;solid-color:#000000;solid-opacity:1;fill:#dfdfdf;fill-opacity:1;fill-rule:nonzero;stroke-width:0.990001;stroke-linecap:butt;stroke-linejoin:miter;stroke-miterlimit:4;stroke-dasharray:none;stroke-dashoffset:0;stroke-opacity:1;color-rendering:auto;image-rendering:auto;shape-rendering:auto;text-rendering:auto;enable-background:accumulate;opacity:0"
       id="path31"
       d="m 35.945994,20.12595 -3.96,4.455 -1.2474,1.485 h 3.2274 v 0.99 h -7.920001 v 10.890003 h -3.20562 l 1.225621,1.484996 3.96,4.455001 3.96,-4.455001 1.2474,-1.484996 h -3.2274 v -0.99 h 7.920005 V 26.06595 h 3.205614 l -1.225618,-1.485 z m 0,1.48896 3.075931,3.46104 h -2.085932 v 10.890006 h -6.929999 v -1.980004 h 4.95 V 25.07595 h -2.08593 z m -8.910001,6.431042 h 6.930001 v 1.98 h -4.95 v 8.91 h 2.08593 l -3.07593,3.461037 -3.075931,-3.461037 h 2.08593 v -0.989999 z m 2.970001,2.97 h 3.96 v 1.98 h -3.96 z"
       fill="#ffffff"
       opacity="0.75" />
    <g
       transform="matrix(0.52960909,0,0,0.52960909,19.275358,20.354587)"
       id="g5"
       style="fill:#dfdfdf;fill-opacity:1" />
  </g>
</svg>
