<?xml version="1.0" encoding="UTF-8" standalone="no"?>
<svg
   width="64"
   height="64"
   version="1.1"
   id="svg73"
   sodipodi:docname="application-blank.svg"
   inkscape:version="1.3.2 (091e20ef0f, 2023-11-25)"
   xmlns:inkscape="http://www.inkscape.org/namespaces/inkscape"
   xmlns:sodipodi="http://sodipodi.sourceforge.net/DTD/sodipodi-0.dtd"
   xmlns="http://www.w3.org/2000/svg"
   xmlns:svg="http://www.w3.org/2000/svg"
   xmlns:rdf="http://www.w3.org/1999/02/22-rdf-syntax-ns#"
   xmlns:cc="http://creativecommons.org/ns#"
   xmlns:dc="http://purl.org/dc/elements/1.1/">
  <metadata
     id="metadata77">
    <rdf:RDF>
      <cc:Work
         rdf:about="">
        <dc:format>image/svg+xml</dc:format>
        <dc:type
           rdf:resource="http://purl.org/dc/dcmitype/StillImage" />
      </cc:Work>
    </rdf:RDF>
  </metadata>
  <sodipodi:namedview
     pagecolor="#f5f7fa"
     bordercolor="#666666"
     borderopacity="1"
     objecttolerance="10"
     gridtolerance="10"
     guidetolerance="10"
     inkscape:pageopacity="0"
     inkscape:pageshadow="2"
     inkscape:window-width="1377"
     inkscape:window-height="886"
     id="namedview75"
     showgrid="false"
     inkscape:zoom="4.4470387"
     inkscape:cx="47.784608"
     inkscape:cy="14.054296"
     inkscape:window-x="119"
     inkscape:window-y="32"
     inkscape:window-maximized="0"
     inkscape:current-layer="g877"
     inkscape:document-rotation="0"
     inkscape:pagecheckerboard="0"
     inkscape:showpageshadow="2"
     inkscape:deskcolor="#d1d1d1" />
  <defs
     id="defs29">
    <linearGradient
       id="b"
       x1="399.57"
       x2="399.57"
       y1="545.8"
       y2="517.8"
       gradientTransform="matrix(2.1429,0,0,2.1429,-825.86391,-1107.6662)"
       gradientUnits="userSpaceOnUse">
      <stop
         stop-color="#3889e9"
         offset="0"
         id="stop2" />
      <stop
         stop-color="#5ea5fb"
         offset="1"
         id="stop4" />
    </linearGradient>
    <linearGradient
       id="d"
       x2="1"
       gradientTransform="matrix(14.905727,-4.7106182,4.7106182,14.905727,322.04962,998.26962)"
       gradientUnits="userSpaceOnUse">
      <stop
         stop-color="#fafafa"
         offset="0"
         id="stop7" />
      <stop
         stop-color="#aaa"
         offset="1"
         id="stop8" />
    </linearGradient>
    <linearGradient
       id="e"
       x2="1"
       gradientTransform="matrix(21.439909,0,0,21.439909,26.63554,1159.7788)"
       gradientUnits="userSpaceOnUse">
      <stop
         stop-color="#f0f0f0"
         offset="0"
         id="stop9" />
      <stop
         stop-color="#b7f1ff"
         offset="1"
         id="stop10" />
    </linearGradient>
  </defs>
  <circle
     cx="32.516094"
     cy="31.877844"
     r="0"
     fill="url(#b)"
     stroke-width="1.5715"
     id="circle41"
     style="fill:url(#b)" />
  <g
     aria-label="GZ"
     transform="matrix(1.2212657,0,0,0.81882264,0.4960938,-0.1661539)"
     id="text93"
     style="font-weight:bold;font-size:11.5263px;line-height:1.25;font-family:sans-serif;-inkscape-font-specification:'sans-serif Bold';fill:#f2f2f2;stroke-width:0.288159" />
  <g
     id="g877"
     transform="matrix(1.1,0,0,1.1,-3.1845928,-3.2065454)">
    <rect
       x="13.389396"
       y="8.0488043"
       width="37.45882"
       height="48.038597"
       rx="7.9658151"
       ry="9.6898966"
       fill="url(#linearGradient862)"
       stroke-width="3.0541"
       id="rect35-7-3"
       style="fill:#414141;fill-opacity:1;stroke:#dfdfdf;stroke-width:2.27272727;stroke-dasharray:none;stroke-opacity:1" />
    <path
       d="M 32.221392,19.767601 A 11.863094,12.164036 0 0 0 20.35757,31.930888 11.863094,12.164036 0 0 0 32.221392,44.095672 11.863094,12.164036 0 0 0 44.085215,31.930888 11.863094,12.164036 0 0 0 32.221392,19.767601 Z m 0,1.547456 a 10.354213,10.616878 0 0 1 4.756838,1.196726 l -1.564696,2.742689 a 7.257727,7.4418398 0 0 0 -3.192142,-0.765649 7.257727,7.4418398 0 0 0 -3.147998,0.746683 l -1.627448,-2.719345 a 10.354213,10.616878 0 0 1 4.775373,-1.201142 z m 0,4.642294 a 5.8258229,5.9736124 0 0 1 5.825676,5.973463 5.8258229,5.9736124 0 0 1 -5.825676,5.973461 5.8258229,5.9736124 0 0 1 -5.825678,-5.973461 5.8258229,5.9736124 0 0 1 5.825678,-5.973463 z m 9.175862,1.066702 a 10.354213,10.616878 0 0 1 1.177113,4.906761 10.354213,10.616878 0 0 1 -1.174269,4.893593 l -2.670603,-1.610225 a 7.257727,7.4418398 0 0 0 0.749553,-3.283368 7.257727,7.4418398 0 0 0 -0.77093,-3.316961 l 2.689061,-1.5898 z m -18.386012,0.08036 2.69767,1.550373 a 7.257727,7.4418398 0 0 0 -0.745319,3.276039 7.257727,7.4418398 0 0 0 0.766698,3.311127 l -2.694826,1.57955 a 10.354213,10.616878 0 0 1 -1.168578,-4.890677 10.354213,10.616878 0 0 1 1.144355,-4.826412 z m 6.013777,11.502676 a 7.257727,7.4418398 0 0 0 3.196447,0.765649 7.257727,7.4418398 0 0 0 3.140848,-0.743758 l 1.653055,2.70618 a 10.354213,10.616878 0 0 1 -4.793903,1.212813 10.354213,10.616878 0 0 1 -4.826665,-1.23032 l 1.630291,-2.710516 z"
       fill="url(#linearGradient898)"
       stroke-width="0.664406"
       id="path27-4"
       style="fill:#dfdfdf;fill-opacity:1;stroke:none;stroke-width:0.750221;stroke-dasharray:none;stroke-opacity:0.3" />
  </g>
</svg>
