<?xml version="1.0" encoding="UTF-8" standalone="no"?>
<svg
   width="64"
   height="64"
   version="1.1"
   id="svg73"
   sodipodi:docname="application-blank.svg"
   inkscape:version="1.3.2 (091e20ef0f, 2023-11-25)"
   xmlns:inkscape="http://www.inkscape.org/namespaces/inkscape"
   xmlns:sodipodi="http://sodipodi.sourceforge.net/DTD/sodipodi-0.dtd"
   xmlns="http://www.w3.org/2000/svg"
   xmlns:svg="http://www.w3.org/2000/svg"
   xmlns:rdf="http://www.w3.org/1999/02/22-rdf-syntax-ns#"
   xmlns:cc="http://creativecommons.org/ns#"
   xmlns:dc="http://purl.org/dc/elements/1.1/">
  <metadata
     id="metadata77">
    <rdf:RDF>
      <cc:Work
         rdf:about="">
        <dc:format>image/svg+xml</dc:format>
        <dc:type
           rdf:resource="http://purl.org/dc/dcmitype/StillImage" />
      </cc:Work>
    </rdf:RDF>
  </metadata>
  <sodipodi:namedview
     pagecolor="#f5f7fa"
     bordercolor="#666666"
     borderopacity="1"
     objecttolerance="10"
     gridtolerance="10"
     guidetolerance="10"
     inkscape:pageopacity="0"
     inkscape:pageshadow="2"
     inkscape:window-width="1377"
     inkscape:window-height="886"
     id="namedview75"
     showgrid="false"
     inkscape:zoom="4.4470387"
     inkscape:cx="47.784608"
     inkscape:cy="14.054296"
     inkscape:window-x="119"
     inkscape:window-y="32"
     inkscape:window-maximized="0"
     inkscape:current-layer="g877"
     inkscape:document-rotation="0"
     inkscape:pagecheckerboard="0"
     inkscape:showpageshadow="2"
     inkscape:deskcolor="#d1d1d1" />
  <defs
     id="defs29">
    <linearGradient
       id="b"
       x1="399.57"
       x2="399.57"
       y1="545.8"
       y2="517.8"
       gradientTransform="matrix(2.1429,0,0,2.1429,-825.86391,-1107.6662)"
       gradientUnits="userSpaceOnUse">
      <stop
         stop-color="#3889e9"
         offset="0"
         id="stop2" />
      <stop
         stop-color="#5ea5fb"
         offset="1"
         id="stop4" />
    </linearGradient>
    <linearGradient
       id="d"
       x2="1"
       gradientTransform="matrix(14.905727,-4.7106182,4.7106182,14.905727,322.04962,998.26962)"
       gradientUnits="userSpaceOnUse">
      <stop
         stop-color="#fafafa"
         offset="0"
         id="stop7" />
      <stop
         stop-color="#aaa"
         offset="1"
         id="stop8" />
    </linearGradient>
    <linearGradient
       id="e"
       x2="1"
       gradientTransform="matrix(21.439909,0,0,21.439909,26.63554,1159.7788)"
       gradientUnits="userSpaceOnUse">
      <stop
         stop-color="#f0f0f0"
         offset="0"
         id="stop9" />
      <stop
         stop-color="#b7f1ff"
         offset="1"
         id="stop10" />
    </linearGradient>
    <linearGradient
       id="_Linear2"
       x2="1"
       gradientTransform="matrix(-0.33662128,-17.588561,17.588561,-0.33662128,289.63742,32.316102)"
       gradientUnits="userSpaceOnUse">
      <stop
         style="stop-color:#fefffe"
         offset="0"
         id="stop5" />
      <stop
         style="stop-color:#f1f1f0"
         offset="1"
         id="stop6" />
    </linearGradient>
  </defs>
  <circle
     cx="32.516094"
     cy="31.877844"
     r="0"
     fill="url(#b)"
     stroke-width="1.5715"
     id="circle41"
     style="fill:url(#b)" />
  <g
     aria-label="GZ"
     transform="matrix(1.2212657,0,0,0.81882264,0.4960938,-0.1661539)"
     id="text93"
     style="font-weight:bold;font-size:11.5263px;line-height:1.25;font-family:sans-serif;-inkscape-font-specification:'sans-serif Bold';fill:#f2f2f2;stroke-width:0.288159" />
  <g
     id="g877"
     transform="matrix(1.1,0,0,1.1,-3.1845928,-3.2065454)">
    <rect
       x="13.389396"
       y="8.0488043"
       width="37.45882"
       height="48.038597"
       rx="7.9658151"
       ry="9.6898966"
       fill="url(#linearGradient862)"
       stroke-width="3.0541"
       id="rect35-7-3"
       style="fill:#414141;fill-opacity:1;stroke:#dfdfdf;stroke-width:2.27272727;stroke-dasharray:none;stroke-opacity:1" />
    <path
       d="m 22.215994,28.945951 c 0.275454,0.290909 0.68,0.290909 0.812727,0.290909 0.247273,0 0.552727,-0.04091 0.99,-0.132728 0.342727,-0.07182 0.639091,-0.143636 0.9,-0.207272 0.512727,-0.124546 0.883636,-0.214546 1.232727,-0.214546 0.196364,0 0.555455,0.08545 0.935455,0.175455 0.591818,0.140909 1.328181,0.315454 2.040909,0.315454 0.719091,0 1.476363,-0.05545 1.953636,-0.09909 0.158182,0.594546 0.535455,1.573637 1.390909,2.274546 1.162727,0.953636 2.025455,1.378182 2.061818,1.396364 0.220909,0.107272 0.486364,0.05091 0.643637,-0.137273 0.158182,-0.188182 0.167272,-0.46 0.02364,-0.658182 -0.0055,-0.0073 -0.586364,-0.829091 -0.564545,-1.752727 0.0091,-0.367273 0.02273,-0.655455 0.03636,-0.874546 0.724546,0.213637 1.958182,0.690909 2.594546,1.59 0.963636,1.360909 1.359091,3.456364 1.253636,4.144546 -0.110909,0.716363 -0.123636,0.716363 -0.463636,0.716363 -0.740909,0 -1.362728,0.03 -2.063637,0.411819 -0.62,0.337272 -0.960909,0.706363 -0.998181,0.747272 -0.139091,0.154546 -0.176364,0.375455 -0.09455,0.566364 0.08091,0.191818 0.265455,0.318182 0.472727,0.326364 0.200909,0.0073 0.806364,0.05727 1.196364,0.199091 0.206364,0.07545 0.384545,0.162727 0.557273,0.248181 0.275454,0.135455 0.536363,0.264546 0.84,0.3 0.09909,0.01182 0.2,0.01727 0.296363,0.01546 0.111819,0.26 0.302728,0.570909 0.622728,0.816364 0.245454,0.188181 0.495454,0.304545 0.715454,0.407272 0.270909,0.125455 0.484546,0.225455 0.648182,0.429091 0.43,0.532727 0.574545,1.110909 0.575455,1.116364 0.05636,0.230909 0.25909,0.399091 0.496363,0.409091 0.0082,9.09e-4 0.01636,9.09e-4 0.02455,9.09e-4 0.227272,0 0.431818,-0.143637 0.506363,-0.360909 0.03273,-0.09727 0.315455,-0.990909 -0.06,-2.299091 -0.134545,-0.468182 -0.341818,-0.872727 -0.542727,-1.264546 -0.327273,-0.636363 -0.61,-1.186363 -0.490909,-1.860909 0.556364,-3.167273 0.518182,-5.743636 -0.114546,-7.655454 -0.983636,-2.973637 -3.365454,-4.63 -3.832727,-4.931819 -0.231818,-0.15 -0.440909,-0.281818 -0.617273,-0.390909 0.163637,-0.13 0.37091,-0.267272 0.617273,-0.371818 0.560909,-0.238182 0.797273,-0.303636 0.862727,-0.319091 h 0.01182 c 0.232727,0 0.411818,-0.153636 0.48,-0.380909 0.07091,-0.235454 -0.06,-0.489091 -0.272728,-0.613636 -0.04,-0.02455 -1.003636,-0.584546 -2.274545,-0.584546 -0.261818,0 -0.521818,0.02364 -0.773636,0.07091 -0.783637,0.148182 -1.337273,0.369091 -1.872728,0.582728 -0.522727,0.209091 -1.016363,0.405454 -1.753636,0.560909 -0.358182,0.07545 -0.688182,0.133636 -1.007273,0.19 -1.097273,0.193636 -2.044545,0.360909 -3.461818,1.084545 -1.849091,0.944546 -2.889091,1.978182 -2.928182,2.91 -0.0082,0.196364 -0.0036,0.371818 0.01364,0.525455 -0.173637,0.08636 -0.383637,0.196363 -0.596364,0.317273 -0.864546,0.491818 -1.227273,0.86 -1.251818,1.270909 -0.01636,0.286363 0.06,0.521818 0.228182,0.7 z"
       style="clip-rule:evenodd;fill:#dfdfdf;fill-rule:nonzero;stroke-width:0.909091;stroke-linejoin:round;stroke-miterlimit:2;fill-opacity:1"
       id="path4" />
  </g>
</svg>
