<?xml version="1.0" encoding="UTF-8" standalone="no"?>
<svg
   width="64"
   height="64"
   version="1.1"
   id="svg73"
   sodipodi:docname="application-blank.svg"
   inkscape:version="1.3.2 (091e20ef0f, 2023-11-25)"
   xmlns:inkscape="http://www.inkscape.org/namespaces/inkscape"
   xmlns:sodipodi="http://sodipodi.sourceforge.net/DTD/sodipodi-0.dtd"
   xmlns="http://www.w3.org/2000/svg"
   xmlns:svg="http://www.w3.org/2000/svg"
   xmlns:rdf="http://www.w3.org/1999/02/22-rdf-syntax-ns#"
   xmlns:cc="http://creativecommons.org/ns#"
   xmlns:dc="http://purl.org/dc/elements/1.1/">
  <metadata
     id="metadata77">
    <rdf:RDF>
      <cc:Work
         rdf:about="">
        <dc:format>image/svg+xml</dc:format>
        <dc:type
           rdf:resource="http://purl.org/dc/dcmitype/StillImage" />
      </cc:Work>
    </rdf:RDF>
  </metadata>
  <sodipodi:namedview
     pagecolor="#f5f7fa"
     bordercolor="#666666"
     borderopacity="1"
     objecttolerance="10"
     gridtolerance="10"
     guidetolerance="10"
     inkscape:pageopacity="0"
     inkscape:pageshadow="2"
     inkscape:window-width="1377"
     inkscape:window-height="886"
     id="namedview75"
     showgrid="false"
     inkscape:zoom="4.4470387"
     inkscape:cx="47.784608"
     inkscape:cy="14.054296"
     inkscape:window-x="119"
     inkscape:window-y="32"
     inkscape:window-maximized="0"
     inkscape:current-layer="g877"
     inkscape:document-rotation="0"
     inkscape:pagecheckerboard="0"
     inkscape:showpageshadow="2"
     inkscape:deskcolor="#d1d1d1" />
  <defs
     id="defs29">
    <linearGradient
       id="b"
       x1="399.57"
       x2="399.57"
       y1="545.8"
       y2="517.8"
       gradientTransform="matrix(2.1429,0,0,2.1429,-825.86391,-1107.6662)"
       gradientUnits="userSpaceOnUse">
      <stop
         stop-color="#3889e9"
         offset="0"
         id="stop2" />
      <stop
         stop-color="#5ea5fb"
         offset="1"
         id="stop4" />
    </linearGradient>
    <linearGradient
       id="d"
       x2="1"
       gradientTransform="matrix(14.905727,-4.7106182,4.7106182,14.905727,322.04962,998.26962)"
       gradientUnits="userSpaceOnUse">
      <stop
         stop-color="#fafafa"
         offset="0"
         id="stop7" />
      <stop
         stop-color="#aaa"
         offset="1"
         id="stop8" />
    </linearGradient>
    <linearGradient
       id="e"
       x2="1"
       gradientTransform="matrix(21.439909,0,0,21.439909,26.63554,1159.7788)"
       gradientUnits="userSpaceOnUse">
      <stop
         stop-color="#f0f0f0"
         offset="0"
         id="stop9" />
      <stop
         stop-color="#b7f1ff"
         offset="1"
         id="stop10" />
    </linearGradient>
  </defs>
  <circle
     cx="32.516094"
     cy="31.877844"
     r="0"
     fill="url(#b)"
     stroke-width="1.5715"
     id="circle41"
     style="fill:url(#b)" />
  <g
     aria-label="GZ"
     transform="matrix(1.2212657,0,0,0.81882264,0.4960938,-0.1661539)"
     id="text93"
     style="font-weight:bold;font-size:11.5263px;line-height:1.25;font-family:sans-serif;-inkscape-font-specification:'sans-serif Bold';fill:#f2f2f2;stroke-width:0.288159" />
  <g
     id="g877"
     transform="matrix(1.1,0,0,1.1,-3.1845928,-3.2065454)">
    <rect
       x="13.389396"
       y="8.0488043"
       width="37.45882"
       height="48.038597"
       rx="7.9658151"
       ry="9.6898966"
       fill="url(#linearGradient862)"
       stroke-width="3.0541"
       id="rect35-7-3"
       style="fill:#414141;fill-opacity:1;stroke:#dfdfdf;stroke-width:2.27272727;stroke-dasharray:none;stroke-opacity:1" />
    <path
       d="m 42.629997,33.538769 c -0.44,-0.433999 -1.415,-0.663 -2.899,-0.682 -1.005,-0.01599 -2.214,0.076 -3.485999,0.255 -0.569001,-0.329 -1.156001,-0.686 -1.617,-1.117 -1.240001,-1.156999 -2.274001,-2.763999 -2.919001,-4.53 0.042,-0.165 0.078,-0.31 0.111,-0.458 0,0 0.698001,-3.966 0.514,-5.306 -0.026,-0.184 -0.041,-0.238 -0.091,-0.381 l -0.06101,-0.155 c -0.189,-0.438 -0.562,-0.902 -1.146,-0.875999 l -0.341999,-0.016 h -0.009 c -0.651,0 -1.182,0.332999 -1.321,0.83 -0.423001,1.561 0.013,3.896 0.804999,6.92 l -0.202999,0.491999 c -0.566001,1.382001 -1.277,2.774001 -1.903,4.001001 l -0.082,0.16 c -0.659,1.29 -1.257,2.386 -1.798999,3.313 l -0.560001,0.296 c -0.041,0.022 -1.001,0.529 -1.226,0.665999 -1.909,1.140001 -3.174999,2.434001 -3.383999,3.461001 -0.067,0.327 -0.01701,0.747 0.321999,0.941 l 0.542,0.272999 c 0.235001,0.118001 0.482,0.177001 0.736,0.177001 1.36,0 2.939,-1.694 5.114,-5.490001 2.511,-0.816999 5.37,-1.497 7.876,-1.871999 1.909001,1.076 4.258,1.822 5.74,1.822 0.263,0 0.49,-0.025 0.675,-0.074 0.284,-0.075 0.523,-0.236999 0.67,-0.456999 0.287,-0.433001 0.345001,-1.029001 0.267,-1.639 -0.023,-0.181001 -0.168,-0.405001 -0.324,-0.558001 z m -20.313,7.236 c 0.248,-0.678 1.23,-2.018999 2.681,-3.208 0.092,-0.074 0.317,-0.284999 0.522,-0.48 -1.516999,2.421 -2.534,3.386001 -3.203,3.688 z m 8.597,-19.797 c 0.437001,0 0.686,1.102 0.707,2.135 0.02,1.033 -0.221,1.758 -0.521,2.295 -0.248,-0.794999 -0.368,-2.046 -0.368,-2.864999 0,0 -0.018,-1.565001 0.182,-1.565001 z m -2.564,14.108 c 0.304,-0.545 0.621,-1.12 0.945001,-1.729999 0.788999,-1.492001 1.287,-2.660001 1.659,-3.620001 0.738,1.343001 1.656999,2.485 2.737999,3.400001 0.135001,0.113999 0.278001,0.228999 0.428,0.342999 -2.197999,0.435 -4.098,0.964 -5.77,1.607 z M 42.207998,34.96277 c -0.134001,0.083 -0.518,0.132999 -0.764001,0.132999 -0.796999,0 -1.781,-0.363999 -3.161999,-0.956 0.529999,-0.04 1.016999,-0.06001 1.452999,-0.06001 0.798,0 1.035,0 1.816,0.196001 0.781,0.198999 0.790001,0.603 0.657001,0.687 z"
       style="clip-rule:evenodd;fill:#dfdfdf;fill-rule:nonzero;stroke-width:1;stroke-linejoin:round;stroke-miterlimit:2;fill-opacity:1"
       id="path5" />
  </g>
</svg>
