<?xml version="1.0" encoding="UTF-8" standalone="no"?>
<svg
   width="64"
   height="64"
   version="1.1"
   id="svg73"
   sodipodi:docname="application-x-st-disk-image.svg"
   inkscape:version="1.3.2 (091e20ef0f, 2023-11-25)"
   xmlns:inkscape="http://www.inkscape.org/namespaces/inkscape"
   xmlns:sodipodi="http://sodipodi.sourceforge.net/DTD/sodipodi-0.dtd"
   xmlns="http://www.w3.org/2000/svg"
   xmlns:svg="http://www.w3.org/2000/svg"
   xmlns:rdf="http://www.w3.org/1999/02/22-rdf-syntax-ns#"
   xmlns:cc="http://creativecommons.org/ns#"
   xmlns:dc="http://purl.org/dc/elements/1.1/">
  <metadata
     id="metadata77">
    <rdf:RDF>
      <cc:Work
         rdf:about="">
        <dc:format>image/svg+xml</dc:format>
        <dc:type
           rdf:resource="http://purl.org/dc/dcmitype/StillImage" />
      </cc:Work>
    </rdf:RDF>
  </metadata>
  <sodipodi:namedview
     pagecolor="#f5f7fa"
     bordercolor="#666666"
     borderopacity="1"
     objecttolerance="10"
     gridtolerance="10"
     guidetolerance="10"
     inkscape:pageopacity="0"
     inkscape:pageshadow="2"
     inkscape:window-width="1377"
     inkscape:window-height="886"
     id="namedview75"
     showgrid="false"
     inkscape:zoom="4.4470387"
     inkscape:cx="47.897042"
     inkscape:cy="14.054296"
     inkscape:window-x="119"
     inkscape:window-y="32"
     inkscape:window-maximized="0"
     inkscape:current-layer="g877"
     inkscape:document-rotation="0"
     inkscape:pagecheckerboard="0"
     inkscape:showpageshadow="2"
     inkscape:deskcolor="#d1d1d1" />
  <defs
     id="defs29">
    <linearGradient
       id="b"
       x1="399.57"
       x2="399.57"
       y1="545.8"
       y2="517.8"
       gradientTransform="matrix(2.1429,0,0,2.1429,-825.86391,-1107.6662)"
       gradientUnits="userSpaceOnUse">
      <stop
         stop-color="#3889e9"
         offset="0"
         id="stop2" />
      <stop
         stop-color="#5ea5fb"
         offset="1"
         id="stop4" />
    </linearGradient>
    <linearGradient
       id="d"
       x2="1"
       gradientTransform="matrix(14.905727,-4.7106182,4.7106182,14.905727,322.04962,998.26962)"
       gradientUnits="userSpaceOnUse">
      <stop
         stop-color="#fafafa"
         offset="0"
         id="stop7" />
      <stop
         stop-color="#aaa"
         offset="1"
         id="stop8" />
    </linearGradient>
    <linearGradient
       id="e"
       x2="1"
       gradientTransform="matrix(21.439909,0,0,21.439909,26.63554,1159.7788)"
       gradientUnits="userSpaceOnUse">
      <stop
         stop-color="#f0f0f0"
         offset="0"
         id="stop9" />
      <stop
         stop-color="#b7f1ff"
         offset="1"
         id="stop10" />
    </linearGradient>
    <linearGradient
       id="_Linear2"
       x2="1"
       gradientTransform="matrix(-0.33662128,-17.588561,17.588561,-0.33662128,289.63742,32.316102)"
       gradientUnits="userSpaceOnUse">
      <stop
         style="stop-color:#fefffe"
         offset="0"
         id="stop5" />
      <stop
         style="stop-color:#f1f1f0"
         offset="1"
         id="stop6" />
    </linearGradient>
    <clipPath
       clipPathUnits="userSpaceOnUse"
       id="clipPath7">
      <path
         d="m 33.894,28.457 v 1.292 h -8.831 v -1.292 z m 5.169,-2.508 v 1.292 h -14 v -1.292 z m 0,-2.538 v 1.292 h -14 v -1.292 z"
         style="display:block;fill:#d9dee3"
         id="path7" />
    </clipPath>
    <inkscape:path-effect
       effect="powerclip"
       id="path-effect7"
       is_visible="true"
       lpeversion="1"
       inverse="true"
       flatten="false"
       hide_clip="false"
       message="Use fill-rule evenodd on &lt;b&gt;fill and stroke&lt;/b&gt; dialog if no flatten result after convert clip to paths." />
  </defs>
  <circle
     cx="32.516094"
     cy="31.877844"
     r="0"
     fill="url(#b)"
     stroke-width="1.5715"
     id="circle41"
     style="fill:url(#b)" />
  <g
     aria-label="GZ"
     transform="matrix(1.2212657,0,0,0.81882264,0.4960938,-0.1661539)"
     id="text93"
     style="font-weight:bold;font-size:11.5263px;line-height:1.25;font-family:sans-serif;-inkscape-font-specification:'sans-serif Bold';fill:#f2f2f2;stroke-width:0.288159" />
  <g
     id="g877"
     transform="matrix(1.1,0,0,1.1,-3.1845928,-3.2065454)">
    <rect
       x="13.389396"
       y="8.0488043"
       width="37.45882"
       height="48.038597"
       rx="7.9658151"
       ry="9.6898966"
       fill="url(#linearGradient862)"
       stroke-width="3.0541"
       id="rect35-7-3"
       style="fill:#414141;fill-opacity:1;stroke:#dfdfdf;stroke-width:2.27272727;stroke-dasharray:none;stroke-opacity:1" />
    <path
       d="m 38.065994,35.420496 c -0.431818,0 -0.824545,0.117273 -1.183636,0.343637 L 37.02054,35.00686 h -1.583637 l -0.996363,5.454546 h 1.583636 l 0.528182,-2.898182 c 0.117273,-0.296364 0.426363,-0.739091 1.26,-0.739091 h 1.121818 l 0.256364,-1.403637 z m 2.811818,2.269091 c -0.204545,1.16091 0.369091,1.551819 0.992728,1.551819 0.528181,0 0.93,-0.267273 1.263636,-0.630909 l 0.985455,0.823636 c -0.634546,0.652727 -1.55,1.027273 -2.39091,1.027273 -1.615454,0 -2.717272,-1.07 -2.421818,-2.728182 0.295455,-1.658182 1.593637,-2.726364 3.21,-2.726364 1.29,0 2.443637,1.068182 2.15,2.726364 l -0.08818,0.500909 h -3.31 l 0.191819,-1.09 h 1.698181 c 0.106364,-0.533637 -0.233636,-0.983637 -0.816363,-0.983637 -0.71,0 -1.258182,0.37091 -1.464546,1.529091 z m -9.617272,2.503637 c -0.318182,0.198182 -0.649091,0.266363 -1.067273,0.266363 -0.996364,0 -2.114546,-0.93 -1.784546,-2.716363 0.285455,-1.56 1.599091,-2.738182 3.112728,-2.738182 1.472727,0 2.533636,0.876364 2.230909,2.522727 l -0.518182,2.933637 h -1.56 l 0.44,-2.528182 c 0.17,-0.919091 0.04,-1.474546 -0.803636,-1.474546 -0.732728,0 -1.217273,0.625455 -1.330909,1.240909 -0.147273,0.808182 0.228181,1.197273 0.815454,1.197273 0.284546,0 0.541818,-0.06273 0.729091,-0.13 z m -6.958182,-3.689091 -0.26,1.427273 c -0.03455,0.294545 -0.04091,0.948181 0.652727,0.944545 0.347273,-0.0027 0.490909,-0.127273 0.539091,-0.167273 0.228182,-0.196363 0.335454,-0.570909 0.355454,-0.687272 l 0.0027,-0.01818 0.876363,-4.806364 1.583637,-0.01 -0.876364,4.802727 c -0.02909,0.183637 -0.221818,1.127273 -1.000909,1.81 -0.340909,0.298182 -0.925455,0.655455 -1.77,0.66 -0.708182,0.0055 -1.190909,-0.247272 -1.502727,-0.615454 -0.446364,0.368182 -1.020909,0.620909 -1.726364,0.615454 -0.842727,-0.0045 -1.296364,-0.361818 -1.528182,-0.66 -0.530909,-0.682727 -0.375454,-1.626363 -0.341818,-1.81 l 0.878182,-4.802727 1.576364,0.01 -0.875455,4.806364 -0.0036,0.01818 c -0.02273,0.116363 -0.05182,0.490909 0.102727,0.687272 0.03364,0.04 0.131818,0.164546 0.48,0.167273 0.686364,0.0036 0.922727,-0.641818 0.995454,-0.938182 l 0.468182,-2.57 -0.468182,2.569091 0.165455,-0.908182 0.294545,-1.616363 0.358182,-1.96 0.04636,-0.254546 h 1.582727 z m 0.199091,-1.091818 -0.143637,0.786363 0.148182,-0.809091 v -0.0036 z m 11.120909,-9.496364 h -1.818182 v 5.454545 h 1.818182 z m 2.727273,0 h -1.818182 v 5.454545 h 1.818182 z m -6.693637,-1.818182 -1.354545,5.340909 c 0,0 -1.034546,-3.966363 -1.201818,-4.529091 -0.169091,-0.563636 -0.517273,-0.811818 -1.008182,-0.811818 -0.490909,0 -0.839091,0.249091 -1.008182,0.810909 -0.169091,0.562728 -1.202727,4.529091 -1.202727,4.529091 l -1.354546,-5.34 h -1.630909 c 0,0 1.566364,5.695455 1.78,6.348182 0.164545,0.510909 0.558182,0.924545 1.138182,0.924545 0.666363,0 0.977273,-0.480909 1.121818,-0.924545 0.141818,-0.441818 1.156364,-4.166364 1.156364,-4.166364 0,0 1.014545,3.724546 1.155454,4.166364 0.145455,0.443636 0.455455,0.924545 1.12,0.924545 0.581818,0 0.974546,-0.415454 1.141818,-0.924545 0.212728,-0.652727 1.776364,-6.348182 1.776364,-6.348182 z m 2.148182,0.0018 c 0,0.5 0.403636,0.907273 0.898182,0.907273 0.515454,0 0.92,-0.399091 0.92,-0.907273 0,-0.510909 -0.404546,-0.910909 -0.92,-0.910909 -0.494546,0 -0.898182,0.409091 -0.898182,0.910909 z m 2.727273,0 c 0,0.5 0.403636,0.907273 0.898182,0.907273 0.515454,0 0.92,-0.399091 0.92,-0.907273 0,-0.510909 -0.404546,-0.910909 -0.92,-0.910909 -0.494546,0 -0.898182,0.409091 -0.898182,0.910909 z"
       fill="#ffffff"
       fill-opacity="0.5"
       fill-rule="nonzero"
       id="path3"
       style="stroke-width:0.909091;fill:#dfdfdf;fill-opacity:1" />
  </g>
</svg>
