<?xml version="1.0" encoding="UTF-8" standalone="no"?>
<svg
   width="64"
   height="64"
   version="1.1"
   id="svg73"
   sodipodi:docname="application-vnd.rn-realmedia.svg"
   inkscape:version="1.4.2 (ebf0e940d0, 2025-05-08)"
   xmlns:inkscape="http://www.inkscape.org/namespaces/inkscape"
   xmlns:sodipodi="http://sodipodi.sourceforge.net/DTD/sodipodi-0.dtd"
   xmlns:xlink="http://www.w3.org/1999/xlink"
   xmlns="http://www.w3.org/2000/svg"
   xmlns:svg="http://www.w3.org/2000/svg"
   xmlns:rdf="http://www.w3.org/1999/02/22-rdf-syntax-ns#"
   xmlns:cc="http://creativecommons.org/ns#"
   xmlns:dc="http://purl.org/dc/elements/1.1/">
  <metadata
     id="metadata77">
    <rdf:RDF>
      <cc:Work
         rdf:about="">
        <dc:format>image/svg+xml</dc:format>
        <dc:type
           rdf:resource="http://purl.org/dc/dcmitype/StillImage" />
      </cc:Work>
    </rdf:RDF>
  </metadata>
  <sodipodi:namedview
     pagecolor="#f5f7fa"
     bordercolor="#666666"
     borderopacity="1"
     objecttolerance="10"
     gridtolerance="10"
     guidetolerance="10"
     inkscape:pageopacity="0"
     inkscape:pageshadow="2"
     inkscape:window-width="1377"
     inkscape:window-height="886"
     id="namedview75"
     showgrid="false"
     inkscape:zoom="4.4470387"
     inkscape:cx="48.234345"
     inkscape:cy="14.054296"
     inkscape:window-x="119"
     inkscape:window-y="32"
     inkscape:window-maximized="0"
     inkscape:current-layer="g877"
     inkscape:document-rotation="0"
     inkscape:pagecheckerboard="0"
     inkscape:showpageshadow="2"
     inkscape:deskcolor="#d1d1d1" />
  <defs
     id="defs29">
    <linearGradient
       id="b"
       x1="399.57"
       x2="399.57"
       y1="545.8"
       y2="517.8"
       gradientTransform="matrix(2.1429,0,0,2.1429,-825.86391,-1107.6662)"
       gradientUnits="userSpaceOnUse">
      <stop
         stop-color="#3889e9"
         offset="0"
         id="stop2" />
      <stop
         stop-color="#5ea5fb"
         offset="1"
         id="stop4" />
    </linearGradient>
    <linearGradient
       id="d"
       x2="1"
       gradientTransform="matrix(14.905727,-4.7106182,4.7106182,14.905727,322.04962,998.26962)"
       gradientUnits="userSpaceOnUse">
      <stop
         stop-color="#fafafa"
         offset="0"
         id="stop7" />
      <stop
         stop-color="#aaa"
         offset="1"
         id="stop8" />
    </linearGradient>
    <linearGradient
       id="e"
       x2="1"
       gradientTransform="matrix(21.439909,0,0,21.439909,26.63554,1159.7788)"
       gradientUnits="userSpaceOnUse">
      <stop
         stop-color="#f0f0f0"
         offset="0"
         id="stop9" />
      <stop
         stop-color="#b7f1ff"
         offset="1"
         id="stop10" />
    </linearGradient>
    <linearGradient
       id="_Linear2"
       x2="1"
       gradientTransform="matrix(-0.33662128,-17.588561,17.588561,-0.33662128,289.63742,32.316102)"
       gradientUnits="userSpaceOnUse">
      <stop
         style="stop-color:#fefffe"
         offset="0"
         id="stop5" />
      <stop
         style="stop-color:#f1f1f0"
         offset="1"
         id="stop6" />
    </linearGradient>
    <clipPath
       clipPathUnits="userSpaceOnUse"
       id="clipPath7">
      <path
         d="m 33.894,28.457 v 1.292 h -8.831 v -1.292 z m 5.169,-2.508 v 1.292 h -14 v -1.292 z m 0,-2.538 v 1.292 h -14 v -1.292 z"
         style="display:block;fill:#d9dee3"
         id="path7" />
    </clipPath>
    <inkscape:path-effect
       effect="powerclip"
       id="path-effect7"
       is_visible="true"
       lpeversion="1"
       inverse="true"
       flatten="false"
       hide_clip="false"
       message="" />
    <linearGradient
       id="linearGradient1"
       inkscape:collect="always">
      <stop
         style="stop-color:#d8dee9;stop-opacity:1;"
         offset="0"
         id="stop1" />
      <stop
         style="stop-color:#eceff4;stop-opacity:1;"
         offset="1"
         id="stop2-0" />
    </linearGradient>
    <linearGradient
       inkscape:collect="always"
       xlink:href="#linearGradient1"
       id="linearGradient5"
       x1="37.830982"
       y1="26.034248"
       x2="20.853935"
       y2="19.901464"
       gradientUnits="userSpaceOnUse" />
  </defs>
  <circle
     cx="32.516094"
     cy="31.877844"
     r="0"
     fill="url(#b)"
     stroke-width="1.5715"
     id="circle41"
     style="fill:url(#b)" />
  <g
     aria-label="GZ"
     transform="matrix(1.2212657,0,0,0.81882264,0.4960938,-0.1661539)"
     id="text93"
     style="font-weight:bold;font-size:11.5263px;line-height:1.25;font-family:sans-serif;-inkscape-font-specification:'sans-serif Bold';fill:#f2f2f2;stroke-width:0.288159" />
  <g
     id="g877"
     transform="matrix(1.1,0,0,1.1,-3.1845928,-3.2065454)">
    <rect
       x="13.256583"
       y="7.9866519"
       width="37.45882"
       height="48.038597"
       rx="7.9658151"
       ry="9.6898966"
       fill="url(#linearGradient862)"
       stroke-width="3.0541"
       id="rect35-7-3"
       style="fill:#414141;fill-opacity:1;stroke:#dfdfdf;stroke-width:2.27273;stroke-dasharray:none;stroke-opacity:1" />
    <g
       fill="#393634"
       fill-opacity="0.51"
       id="g25"
       transform="matrix(0.73636367,0,0,0.73636366,-156.52311,-153.55769)"
       style="fill:#dfdfdf;fill-opacity:1">
      <path
         d="m 241.5,232 0.5,-1 h -3 v 3 h 1.5 c 0.373,0 0.5,0 0.5,0.5 0,0.6 0,1.5 -0.5,1.5 -1,0 -1.5,-0.5 -1.5,-0.5 v 1 c 0,0 0.5,0.5 1.5,0.5 1.5,0 1.5,-1.528 1.5,-2.5 0,-1 0,-1.5 -1.5,-1.5 H 240 v -1 z"
         id="path2"
         style="fill:#dfdfdf;fill-opacity:1" />
      <path
         d="m 245,231 a 2,3 0 0 0 -2,3 2,3 0 0 0 2,3 2,3 0 0 0 2,-3 2,3 0 0 0 -2,-3 z m 0,1 a 1,2 0 0 1 1,2 1,2 0 0 1 -1,2 1,2 0 0 1 -1,-2 1,2 0 0 1 1,-2 z"
         id="path3-0"
         style="fill:#dfdfdf;fill-opacity:1" />
      <path
         d="m 253.5,231 c -1.5,0 -1.5,0 -1.5,3 0,3 0,3 1.5,3 1.5,0 1.5,0 1.5,-2 0,-2 0,-2 -1.5,-2 H 253 c 0,-0.5 0,-1 0.5,-1 h 1 l 0.5,-1 z m 0,3 c 0.276,0 0.5,0.448 0.5,1 0,0.552 -0.224,1 -0.5,1 -0.276,0 -0.5,-0.448 -0.5,-1 v -1 z"
         id="path4"
         style="fill:#dfdfdf;fill-opacity:1" />
      <path
         d="m 259,231 -0.5,1 H 257 v 1 h 1 v 1 h -1 v 3 h -1 v -6 z"
         id="path5"
         style="fill:#dfdfdf;fill-opacity:1" />
      <path
         d="m 265,231 h 3 v 1 l -2,5 -1,-0.5 2,-4.5 h -2 z"
         id="path6"
         style="fill:#dfdfdf;fill-opacity:1" />
      <path
         d="m 240,243 c 0,4 0,4 1,4 v -2 h 1 v 4 h -1 v -1 c -2,0 -2,0 -2,-5 z"
         id="path7-6"
         style="fill:#dfdfdf;fill-opacity:1" />
      <path
         d="m 244.5,249 c 1.5,0 1.5,0 1.5,-3 0,-3 0,-3 -1.5,-3 -1.5,0 -1.5,0 -1.5,2 0,2 0,2 1.5,2 h 0.5 c 0,0.5 0,1 -0.5,1 h -1 l -0.5,1 z m 0,-3 c -0.276,0 -0.5,-0.448 -0.5,-1 0,-0.552 0.224,-1 0.5,-1 0.276,0 0.5,0.448 0.5,1 v 1 z"
         id="path8"
         style="fill:#dfdfdf;fill-opacity:1" />
      <path
         d="m 253.5,243 c -1.5,0 -1.5,0 -1.5,3 0,3 0,3 1.5,3 1.5,0 1.5,0 1.5,-2 0,-2 0,-2 -1.5,-2 H 253 c 0,-0.5 0,-1 0.5,-1 h 1 l 0.5,-1 z m 0,3 c 0.276,0 0.5,0.448 0.5,1 0,0.552 -0.224,1 -0.5,1 -0.276,0 -0.5,-0.448 -0.5,-1 v -1 z"
         id="path9"
         style="fill:#dfdfdf;fill-opacity:1" />
      <path
         d="m 271,231 a 2,3 0 0 0 -2,3 2,3 0 0 0 2,3 2,3 0 0 0 2,-3 2,3 0 0 0 -2,-3 z m 0,1 a 1,2 0 0 1 1,2 1,2 0 0 1 -1,2 1,2 0 0 1 -1,-2 1,2 0 0 1 1,-2 z"
         id="path10"
         style="fill:#dfdfdf;fill-opacity:1" />
      <path
         d="m 256,249 v -1 h 2 v -1 h -1 v -1 h 1 v -2 h -1.5 l -0.5,-1 h 3 v 6 z"
         id="path11"
         style="fill:#dfdfdf;fill-opacity:1" />
      <path
         d="m 272,243 -0.5,1 H 270 v 1 h 1 v 1 h -1 v 3 h -1 v -6 z"
         id="path12"
         style="fill:#dfdfdf;fill-opacity:1" />
      <path
         d="m 266.5,243 c -1.5,0 -1.5,0 -1.5,3 0,3 0,3 1.5,3 1.5,0 1.5,0 1.5,-2 0,-2 0,-2 -1.5,-2 H 266 c 0,-0.5 0,-1 0.5,-1 h 1 l 0.5,-1 z m 0,3 c 0.276,0 0.5,0.448 0.5,1 0,0.552 -0.224,1 -0.5,1 -0.276,0 -0.5,-0.448 -0.5,-1 v -1 z"
         id="path13"
         style="fill:#dfdfdf;fill-opacity:1" />
      <path
         d="m 240.5,255 c -1.5,0 -1.5,0 -1.5,3 0,3 0,3 1.5,3 1.5,0 1.5,0 1.5,-2 0,-2 0,-2 -1.5,-2 H 240 c 0,-0.5 0,-1 0.5,-1 h 1 l 0.5,-1 z m 0,3 c 0.276,0 0.5,0.448 0.5,1 0,0.552 -0.224,1 -0.5,1 -0.276,0 -0.5,-0.448 -0.5,-1 v -1 z"
         id="path14"
         style="fill:#dfdfdf;fill-opacity:1" />
      <path
         d="m 246,255 -0.5,1 H 244 v 1 h 1 v 1 h -1 v 2 h 1.5 l 0.5,1 h -3 v -6 z"
         id="path15"
         style="fill:#dfdfdf;fill-opacity:1" />
      <path
         d="m 256,261 v -1 h 2 v -1 h -1 v -1 h 1 v -2 h -1.5 l -0.5,-1 h 3 v 6 z"
         id="path16"
         style="fill:#dfdfdf;fill-opacity:1" />
      <path
         d="m 268,260 -0.5,1 H 265 v -3 h 1.5 c 0.373,0 0.5,0 0.5,-0.5 0,-0.6 0,-1.5 -0.5,-1.5 -1,0 -1.5,0.5 -1.5,0.5 v -1 c 0,0 0.5,-0.5 1.5,-0.5 1.5,0 1.5,1.528 1.5,2.5 0,1 0,1.5 -1.5,1.5 H 266 v 1 z"
         id="path17"
         style="fill:#dfdfdf;fill-opacity:1" />
      <path
         d="m 252,255 h 3 v 1 l -2,5 -1,-0.5 2,-4.5 h -2 z"
         id="path18"
         style="fill:#dfdfdf;fill-opacity:1" />
      <path
         d="m 271,255 a 2,3 0 0 0 -2,3 2,3 0 0 0 2,3 2,3 0 0 0 2,-3 2,3 0 0 0 -2,-3 z m 0,1 a 1,2 0 0 1 1,2 1,2 0 0 1 -1,2 1,2 0 0 1 -1,-2 1,2 0 0 1 1,-2 z"
         id="path19"
         style="fill:#dfdfdf;fill-opacity:1" />
      <path
         d="m 240,267 c 0,4 0,4 1,4 v -2 h 1 v 4 h -1 v -1 c -2,0 -2,0 -2,-5 z"
         id="path20"
         style="fill:#dfdfdf;fill-opacity:1" />
      <path
         d="m 244.5,273 c 1.5,0 1.5,0 1.5,-3 0,-3 0,-3 -1.5,-3 -1.5,0 -1.5,0 -1.5,2 0,2 0,2 1.5,2 h 0.5 c 0,0.5 0,1 -0.5,1 h -1 l -0.5,1 z m 0,-3 c -0.276,0 -0.5,-0.448 -0.5,-1 0,-0.552 0.224,-1 0.5,-1 0.276,0 0.5,0.448 0.5,1 v 1 z"
         id="path21"
         style="fill:#dfdfdf;fill-opacity:1" />
      <path
         d="m 253.5,267 c -1.5,0 -1.5,0 -1.5,3 0,3 0,3 1.5,3 1.5,0 1.5,0 1.5,-2 0,-2 0,-2 -1.5,-2 H 253 c 0,-0.5 0,-1 0.5,-1 h 1 l 0.5,-1 z m 0,3 c 0.276,0 0.5,0.448 0.5,1 0,0.552 -0.224,1 -0.5,1 -0.276,0 -0.5,-0.448 -0.5,-1 v -1 z"
         id="path22"
         style="fill:#dfdfdf;fill-opacity:1" />
      <path
         d="m 266.5,267 c -1.5,0 -1.5,0 -1.5,3 0,3 0,3 1.5,3 1.5,0 1.5,0 1.5,-2 0,-2 0,-2 -1.5,-2 H 266 c 0,-0.5 0,-1 0.5,-1 h 1 l 0.5,-1 z m 0,3 c 0.276,0 0.5,0.448 0.5,1 0,0.552 -0.224,1 -0.5,1 -0.276,0 -0.5,-0.448 -0.5,-1 v -1 z"
         id="path23"
         style="fill:#dfdfdf;fill-opacity:1" />
      <path
         d="m 272,267 -0.5,1 H 270 v 1 h 1 v 1 h -1 v 2 h 1.5 l 0.5,1 h -3 v -6 z"
         id="path24"
         style="fill:#dfdfdf;fill-opacity:1" />
      <path
         d="m 257,267 -0.5,1 h 0.5 v 4 h -1 v 1 h 3 v -1 h -1 v -5 z"
         id="path25"
         style="fill:#dfdfdf;fill-opacity:1" />
    </g>
    <g
       transform="matrix(0.52960909,0,0,0.52960909,19.275358,20.354587)"
       id="g5"
       style="fill:#dfdfdf;fill-opacity:1" />
  </g>
</svg>
