<?xml version="1.0" encoding="UTF-8" standalone="no"?>
<svg
   width="64"
   height="64"
   version="1.1"
   id="svg73"
   sodipodi:docname="application-x-st-disk-image.svg"
   inkscape:version="1.3.2 (091e20ef0f, 2023-11-25)"
   xmlns:inkscape="http://www.inkscape.org/namespaces/inkscape"
   xmlns:sodipodi="http://sodipodi.sourceforge.net/DTD/sodipodi-0.dtd"
   xmlns="http://www.w3.org/2000/svg"
   xmlns:svg="http://www.w3.org/2000/svg"
   xmlns:rdf="http://www.w3.org/1999/02/22-rdf-syntax-ns#"
   xmlns:cc="http://creativecommons.org/ns#"
   xmlns:dc="http://purl.org/dc/elements/1.1/">
  <metadata
     id="metadata77">
    <rdf:RDF>
      <cc:Work
         rdf:about="">
        <dc:format>image/svg+xml</dc:format>
        <dc:type
           rdf:resource="http://purl.org/dc/dcmitype/StillImage" />
      </cc:Work>
    </rdf:RDF>
  </metadata>
  <sodipodi:namedview
     pagecolor="#f5f7fa"
     bordercolor="#666666"
     borderopacity="1"
     objecttolerance="10"
     gridtolerance="10"
     guidetolerance="10"
     inkscape:pageopacity="0"
     inkscape:pageshadow="2"
     inkscape:window-width="1377"
     inkscape:window-height="886"
     id="namedview75"
     showgrid="false"
     inkscape:zoom="4.4470387"
     inkscape:cx="47.897042"
     inkscape:cy="14.054296"
     inkscape:window-x="119"
     inkscape:window-y="32"
     inkscape:window-maximized="0"
     inkscape:current-layer="g877"
     inkscape:document-rotation="0"
     inkscape:pagecheckerboard="0"
     inkscape:showpageshadow="2"
     inkscape:deskcolor="#d1d1d1" />
  <defs
     id="defs29">
    <linearGradient
       id="b"
       x1="399.57"
       x2="399.57"
       y1="545.8"
       y2="517.8"
       gradientTransform="matrix(2.1429,0,0,2.1429,-825.86391,-1107.6662)"
       gradientUnits="userSpaceOnUse">
      <stop
         stop-color="#3889e9"
         offset="0"
         id="stop2" />
      <stop
         stop-color="#5ea5fb"
         offset="1"
         id="stop4" />
    </linearGradient>
    <linearGradient
       id="d"
       x2="1"
       gradientTransform="matrix(14.905727,-4.7106182,4.7106182,14.905727,322.04962,998.26962)"
       gradientUnits="userSpaceOnUse">
      <stop
         stop-color="#fafafa"
         offset="0"
         id="stop7" />
      <stop
         stop-color="#aaa"
         offset="1"
         id="stop8" />
    </linearGradient>
    <linearGradient
       id="e"
       x2="1"
       gradientTransform="matrix(21.439909,0,0,21.439909,26.63554,1159.7788)"
       gradientUnits="userSpaceOnUse">
      <stop
         stop-color="#f0f0f0"
         offset="0"
         id="stop9" />
      <stop
         stop-color="#b7f1ff"
         offset="1"
         id="stop10" />
    </linearGradient>
    <linearGradient
       id="_Linear2"
       x2="1"
       gradientTransform="matrix(-0.33662128,-17.588561,17.588561,-0.33662128,289.63742,32.316102)"
       gradientUnits="userSpaceOnUse">
      <stop
         style="stop-color:#fefffe"
         offset="0"
         id="stop5" />
      <stop
         style="stop-color:#f1f1f0"
         offset="1"
         id="stop6" />
    </linearGradient>
    <clipPath
       clipPathUnits="userSpaceOnUse"
       id="clipPath7">
      <path
         d="m 33.894,28.457 v 1.292 h -8.831 v -1.292 z m 5.169,-2.508 v 1.292 h -14 v -1.292 z m 0,-2.538 v 1.292 h -14 v -1.292 z"
         style="display:block;fill:#d9dee3"
         id="path7" />
    </clipPath>
    <inkscape:path-effect
       effect="powerclip"
       id="path-effect7"
       is_visible="true"
       lpeversion="1"
       inverse="true"
       flatten="false"
       hide_clip="false"
       message="Use fill-rule evenodd on &lt;b&gt;fill and stroke&lt;/b&gt; dialog if no flatten result after convert clip to paths." />
  </defs>
  <circle
     cx="32.516094"
     cy="31.877844"
     r="0"
     fill="url(#b)"
     stroke-width="1.5715"
     id="circle41"
     style="fill:url(#b)" />
  <g
     aria-label="GZ"
     transform="matrix(1.2212657,0,0,0.81882264,0.4960938,-0.1661539)"
     id="text93"
     style="font-weight:bold;font-size:11.5263px;line-height:1.25;font-family:sans-serif;-inkscape-font-specification:'sans-serif Bold';fill:#f2f2f2;stroke-width:0.288159" />
  <g
     id="g877"
     transform="matrix(1.1,0,0,1.1,-3.1845928,-3.2065454)">
    <rect
       x="13.389396"
       y="8.0488043"
       width="37.45882"
       height="48.038597"
       rx="7.9658151"
       ry="9.6898966"
       fill="url(#linearGradient862)"
       stroke-width="3.0541"
       id="rect35-7-3"
       style="fill:#414141;fill-opacity:1;stroke:#dfdfdf;stroke-width:2.27272727;stroke-dasharray:none;stroke-opacity:1" />
    <g
       opacity="0.88"
       id="g6"
       style="clip-rule:evenodd;fill-rule:evenodd;stroke-linejoin:round;stroke-miterlimit:2;fill:#dfdfdf;fill-opacity:1"
       transform="matrix(0.90909091,0,0,0.90909091,2.8950842,6.5514044)">
      <path
         d="m 43.344,24.917 c -0.188,-1.607 -1.648,-2.768 -3.26,-2.58 -0.157,0.018 -0.308,0.05 -0.453,0.091 -1.065,-4.06 -4.7,-6.837 -8.643,-6.378 -3.942,0.458 -6.842,3.997 -6.946,8.193 -0.146,-0.007 -0.294,0 -0.442,0.017 -1.607,0.188 -2.768,1.648 -2.58,3.261 0.183,1.569 1.579,2.713 3.145,2.588 -0.057,0.499 -0.062,1.001 -0.003,1.505 0.117,1.008 0.464,1.96 1.037,2.824 0.544,0.824 1.258,1.531 2.13,2.105 1.754,1.155 3.962,1.65 6.202,1.389 2.24,-0.261 4.279,-1.25 5.725,-2.783 0.717,-0.758 1.254,-1.611 1.59,-2.537 0.354,-0.971 0.478,-1.979 0.361,-2.987 -0.059,-0.504 -0.174,-0.992 -0.349,-1.463 1.559,-0.23 2.669,-1.666 2.486,-3.245 z m -3.136,4.824 c 0.024,0.209 0.034,0.416 0.034,0.623 l -2.397,0.279 -10.178,1.184 -2.397,0.279 c -0.047,-0.201 -0.085,-0.404 -0.11,-0.613 -0.066,-0.571 -0.04,-1.133 0.065,-1.676 0.038,-0.178 0.08,-0.351 0.132,-0.526 0.278,-0.924 0.795,-1.785 1.49,-2.521 0.077,-0.081 0.159,-0.163 0.242,-0.245 -0.159,-0.203 -0.309,-0.417 -0.446,-0.642 -1.157,-1.943 -0.857,-4.003 0.669,-4.6 0.189,-0.075 0.391,-0.122 0.595,-0.146 1.299,-0.151 2.864,0.664 3.906,2.042 0.698,-1.585 2.035,-2.734 3.333,-2.885 0.204,-0.023 0.412,-0.023 0.613,0.006 1.622,0.231 2.387,2.166 1.708,4.323 -0.082,0.25 -0.173,0.497 -0.286,0.727 0.104,0.065 0.207,0.13 0.311,0.195 0.842,0.558 1.531,1.268 2.014,2.099 0.09,0.153 0.171,0.313 0.243,0.478 0.238,0.507 0.392,1.048 0.459,1.619 z m -11.093,2.93 11.034,-1.284 c -0.537,2.8 -3.24,5.135 -6.73,5.541 -3.491,0.406 -6.658,-1.245 -7.823,-3.847 z m -4.952,-3.574 c -1.06,0.124 -2.021,-0.637 -2.145,-1.698 -0.123,-1.06 0.637,-2.021 1.698,-2.145 0.119,-0.013 0.239,-0.018 0.356,-0.007 0.008,0.11 0.02,0.219 0.034,0.333 0.033,0.286 0.079,0.56 0.135,0.833 -0.22,-0.114 -0.476,-0.195 -0.764,-0.229 -0.274,-0.031 -0.525,0.167 -0.556,0.44 -0.031,0.274 0.167,0.526 0.441,0.556 0.845,0.1 1.227,1.019 1.234,1.038 0.014,0.037 0.032,0.068 0.05,0.1 -0.019,0.041 -0.034,0.081 -0.053,0.122 -0.082,0.207 -0.155,0.413 -0.213,0.618 -0.07,0.017 -0.141,0.03 -0.217,0.039 z m 16.484,-1.918 c -0.081,0.009 -0.157,0.013 -0.239,0.013 -0.109,-0.185 -0.222,-0.369 -0.349,-0.552 -0.04,-0.058 -0.086,-0.116 -0.127,-0.178 0.004,-0.01 0.003,-0.02 0.006,-0.03 0.004,-0.01 0.158,-1.007 0.963,-1.293 0.26,-0.093 0.394,-0.383 0.302,-0.643 -0.093,-0.259 -0.384,-0.394 -0.643,-0.301 -0.24,0.086 -0.448,0.207 -0.625,0.343 -0.007,-0.264 -0.028,-0.527 -0.059,-0.793 -0.013,-0.11 -0.03,-0.219 -0.043,-0.328 0.116,-0.038 0.238,-0.066 0.367,-0.081 1.06,-0.124 2.021,0.637 2.145,1.698 0.123,1.06 -0.637,2.021 -1.698,2.145 z"
         style="fill:#dfdfdf;fill-rule:nonzero;fill-opacity:1"
         id="path2" />
      <path
         d="m 31.469,28.464 c -0.254,-0.236 -0.652,-0.218 -0.887,0.036 -0.236,0.254 -0.218,0.652 0.036,0.887 l 0.653,0.604 c 0.14,0.128 0.325,0.184 0.501,0.163 0.143,-0.016 0.28,-0.081 0.387,-0.194 0.236,-0.254 0.218,-0.652 -0.036,-0.888 z"
         style="fill:#dfdfdf;fill-rule:nonzero;fill-opacity:1"
         id="path3" />
      <path
         d="m 34.243,28.069 c -0.287,-0.193 -0.679,-0.119 -0.872,0.169 l -0.497,0.737 c -0.193,0.288 -0.119,0.679 0.169,0.872 0.13,0.086 0.278,0.117 0.421,0.101 0.176,-0.021 0.343,-0.117 0.45,-0.275 l 0.498,-0.737 c 0.198,-0.283 0.119,-0.674 -0.169,-0.867 z"
         style="fill:#dfdfdf;fill-rule:nonzero;fill-opacity:1"
         id="path4" />
      <path
         d="m 29.888,24.531 c 0.56,-0.065 1.066,0.336 1.131,0.895 0.065,0.559 -0.336,1.066 -0.895,1.131 -0.559,0.065 -1.066,-0.336 -1.131,-0.895 -0.065,-0.559 0.336,-1.066 0.895,-1.131 z"
         style="fill:#dfdfdf;fill-opacity:1"
         id="path5" />
      <path
         d="m 34.007,24.052 c 0.559,-0.065 1.066,0.336 1.131,0.895 0.065,0.559 -0.336,1.066 -0.895,1.131 -0.559,0.065 -1.066,-0.336 -1.131,-0.895 -0.065,-0.559 0.336,-1.066 0.895,-1.131 z"
         style="fill:#dfdfdf;fill-opacity:1"
         id="path6" />
    </g>
  </g>
</svg>
