<?xml version="1.0" encoding="UTF-8" standalone="no"?>
<svg
   width="64"
   height="64"
   version="1.1"
   id="svg73"
   sodipodi:docname="application-vnd.rn-realmedia.svg"
   inkscape:version="1.4.2 (ebf0e940d0, 2025-05-08)"
   xmlns:inkscape="http://www.inkscape.org/namespaces/inkscape"
   xmlns:sodipodi="http://sodipodi.sourceforge.net/DTD/sodipodi-0.dtd"
   xmlns:xlink="http://www.w3.org/1999/xlink"
   xmlns="http://www.w3.org/2000/svg"
   xmlns:svg="http://www.w3.org/2000/svg"
   xmlns:rdf="http://www.w3.org/1999/02/22-rdf-syntax-ns#"
   xmlns:cc="http://creativecommons.org/ns#"
   xmlns:dc="http://purl.org/dc/elements/1.1/">
  <metadata
     id="metadata77">
    <rdf:RDF>
      <cc:Work
         rdf:about="">
        <dc:format>image/svg+xml</dc:format>
        <dc:type
           rdf:resource="http://purl.org/dc/dcmitype/StillImage" />
      </cc:Work>
    </rdf:RDF>
  </metadata>
  <sodipodi:namedview
     pagecolor="#f5f7fa"
     bordercolor="#666666"
     borderopacity="1"
     objecttolerance="10"
     gridtolerance="10"
     guidetolerance="10"
     inkscape:pageopacity="0"
     inkscape:pageshadow="2"
     inkscape:window-width="1377"
     inkscape:window-height="886"
     id="namedview75"
     showgrid="false"
     inkscape:zoom="4.4470387"
     inkscape:cx="48.234345"
     inkscape:cy="14.054296"
     inkscape:window-x="119"
     inkscape:window-y="32"
     inkscape:window-maximized="0"
     inkscape:current-layer="g877"
     inkscape:document-rotation="0"
     inkscape:pagecheckerboard="0"
     inkscape:showpageshadow="2"
     inkscape:deskcolor="#d1d1d1" />
  <defs
     id="defs29">
    <linearGradient
       id="linearGradient47"
       inkscape:collect="always">
      <stop
         style="stop-color:#dfdfdf;stop-opacity:1;"
         offset="0"
         id="stop46" />
      <stop
         style="stop-color:#eceff4;stop-opacity:1;"
         offset="1"
         id="stop47" />
    </linearGradient>
    <linearGradient
       id="b"
       x1="399.57"
       x2="399.57"
       y1="545.8"
       y2="517.8"
       gradientTransform="matrix(2.1429,0,0,2.1429,-825.86391,-1107.6662)"
       gradientUnits="userSpaceOnUse">
      <stop
         stop-color="#3889e9"
         offset="0"
         id="stop2" />
      <stop
         stop-color="#5ea5fb"
         offset="1"
         id="stop4" />
    </linearGradient>
    <linearGradient
       id="d"
       x2="1"
       gradientTransform="matrix(14.905727,-4.7106182,4.7106182,14.905727,322.04962,998.26962)"
       gradientUnits="userSpaceOnUse">
      <stop
         stop-color="#fafafa"
         offset="0"
         id="stop7" />
      <stop
         stop-color="#aaa"
         offset="1"
         id="stop8" />
    </linearGradient>
    <linearGradient
       id="e"
       x2="1"
       gradientTransform="matrix(21.439909,0,0,21.439909,26.63554,1159.7788)"
       gradientUnits="userSpaceOnUse">
      <stop
         stop-color="#f0f0f0"
         offset="0"
         id="stop9" />
      <stop
         stop-color="#b7f1ff"
         offset="1"
         id="stop10" />
    </linearGradient>
    <linearGradient
       id="_Linear2"
       x2="1"
       gradientTransform="matrix(-0.33662128,-17.588561,17.588561,-0.33662128,289.63742,32.316102)"
       gradientUnits="userSpaceOnUse">
      <stop
         style="stop-color:#fefffe"
         offset="0"
         id="stop5" />
      <stop
         style="stop-color:#f1f1f0"
         offset="1"
         id="stop6" />
    </linearGradient>
    <clipPath
       clipPathUnits="userSpaceOnUse"
       id="clipPath7">
      <path
         d="m 33.894,28.457 v 1.292 h -8.831 v -1.292 z m 5.169,-2.508 v 1.292 h -14 v -1.292 z m 0,-2.538 v 1.292 h -14 v -1.292 z"
         style="display:block;fill:#d9dee3"
         id="path7" />
    </clipPath>
    <inkscape:path-effect
       effect="powerclip"
       id="path-effect7"
       is_visible="true"
       lpeversion="1"
       inverse="true"
       flatten="false"
       hide_clip="false"
       message="" />
    <linearGradient
       id="linearGradient1"
       inkscape:collect="always">
      <stop
         style="stop-color:#d8dee9;stop-opacity:1;"
         offset="0"
         id="stop1" />
      <stop
         style="stop-color:#eceff4;stop-opacity:1;"
         offset="1"
         id="stop2-0" />
    </linearGradient>
    <linearGradient
       inkscape:collect="always"
       xlink:href="#linearGradient1"
       id="linearGradient5"
       x1="37.830982"
       y1="26.034248"
       x2="20.853935"
       y2="19.901464"
       gradientUnits="userSpaceOnUse" />
    <linearGradient
       inkscape:collect="always"
       xlink:href="#linearGradient47"
       id="linearGradient14"
       x1="42.46376"
       y1="38.95821"
       x2="21.11157"
       y2="21.173138"
       gradientUnits="userSpaceOnUse"
       gradientTransform="translate(-0.00609955,1.8380647)" />
  </defs>
  <circle
     cx="32.516094"
     cy="31.877844"
     r="0"
     fill="url(#b)"
     stroke-width="1.5715"
     id="circle41"
     style="fill:url(#b)" />
  <g
     aria-label="GZ"
     transform="matrix(1.2212657,0,0,0.81882264,0.4960938,-0.1661539)"
     id="text93"
     style="font-weight:bold;font-size:11.5263px;line-height:1.25;font-family:sans-serif;-inkscape-font-specification:'sans-serif Bold';fill:#f2f2f2;stroke-width:0.288159" />
  <g
     id="g877"
     transform="matrix(1.1,0,0,1.1,-3.1845928,-3.2065454)">
    <rect
       x="13.256583"
       y="7.9866519"
       width="37.45882"
       height="48.038597"
       rx="7.9658151"
       ry="9.6898966"
       fill="url(#linearGradient862)"
       stroke-width="3.0541"
       id="rect35-7-3"
       style="fill:#414141;fill-opacity:1;stroke:#dfdfdf;stroke-width:2.27273;stroke-dasharray:none;stroke-opacity:1" />
    <path
       id="path72"
       style="fill:url(#linearGradient14);stroke:none;stroke-width:0.643044;stroke-dasharray:none;stroke-dashoffset:2.2;stroke-opacity:0.3"
       d="m 31.965898,22.932491 c -6.139389,0 -6.164812,8.91e-4 -6.360104,0.154483 -0.438873,0.345224 -0.415718,-0.173009 -0.415718,8.884551 0,4.998481 0.02862,8.381722 0.07034,8.491441 0.09348,0.245881 0.357107,0.480965 0.629229,0.561412 0.12553,0.03711 2.868314,0.06122 6.2433,0.05398 5.778757,-0.0125 6.028362,-0.01898 6.226975,-0.153193 0.445098,-0.301675 0.420742,0.211687 0.420742,-8.948607 0,-7.637678 -0.01072,-8.412118 -0.120584,-8.598197 -0.277909,-0.470493 0.08789,-0.445881 -6.694172,-0.445881 z m -9.950849,1.476991 v 0.923119 0.924376 h 0.959542 0.960797 v -0.924376 -0.923119 h -0.960797 z m 17.947449,0 v 0.923119 0.924376 h 0.997221 0.997218 v -0.924376 -0.923119 h -0.997218 z m -11.447935,0.738497 h 0.443348 0.442091 V 26.2934 27.437565 H 28.957911 28.514563 V 26.2934 Z m 3.02808,0 h 0.443349 0.443349 v 3.06576 3.064504 h -0.394367 c -0.216655,0 -0.416263,-0.0219 -0.443348,-0.04897 -0.02708,-0.02708 -0.04898,-1.405754 -0.04898,-3.064505 z m 3.102185,0 h 0.405669 0.406928 v 2.289586 2.290843 h -0.406928 -0.405669 v -2.290843 z m -12.629779,2.658833 v 0.924375 0.92312 h 0.959542 0.960797 v -0.92312 -0.924375 h -0.960797 z m 17.947449,0 v 0.924375 0.92312 h 0.997221 0.997218 v -0.92312 -0.924375 h -0.997218 z m -11.447935,0.370505 h 0.444603 0.444605 l -0.02011,1.163004 -0.02012,1.163004 -0.371761,0.02134 c -0.204647,0.01199 -0.395577,-0.0012 -0.424482,-0.03013 -0.02891,-0.02891 -0.05275,-0.562733 -0.05275,-1.185612 z m 6.130265,2.289586 h 0.405669 0.406928 v 1.144166 1.145421 h -0.406928 -0.405669 v -1.145421 z m -6.130265,0.738494 h 0.443348 0.442091 v 2.289589 2.289586 h -0.442091 -0.443348 v -2.289586 z m -6.499514,0.07286 v 0.886697 0.886696 h 0.959542 0.960797 v -0.886697 -0.886697 h -0.960797 z m 17.947449,0 v 0.886698 0.886696 h 0.997221 0.997218 v -0.886698 -0.886697 h -0.997218 z m -7.533157,0.658113 v 3.068273 3.069528 h -0.444605 -0.443348 l 0.01884,-3.046921 0.01884,-3.046921 0.42451,-0.02134 z m 2.215487,1.558629 h 0.405669 0.406928 v 2.695257 2.696512 h -0.406928 -0.405669 v -2.696512 z m -12.629779,1.18184 v 0.923121 0.923118 h 0.959542 0.960797 V 35.59996 34.676839 h -0.960797 z m 17.947449,0 v 0.923121 0.923118 h 0.997221 0.997218 V 35.59996 34.676839 h -0.997218 z m -17.947449,3.39733 v 0.92312 0.923121 h 0.959542 0.960797 v -0.923121 -0.92312 h -0.960797 z m 17.947449,0 v 0.92312 0.923121 h 0.997221 0.997218 v -0.923121 -0.92312 h -0.997218 z" />
    <path
       style="color:#4d4d4d;clip-rule:nonzero;display:inline;overflow:visible;visibility:visible;isolation:auto;mix-blend-mode:normal;color-interpolation:sRGB;color-interpolation-filters:linearRGB;solid-color:#000000;solid-opacity:1;fill:#dfdfdf;fill-opacity:1;fill-rule:nonzero;stroke-width:0.990001;stroke-linecap:butt;stroke-linejoin:miter;stroke-miterlimit:4;stroke-dasharray:none;stroke-dashoffset:0;stroke-opacity:1;color-rendering:auto;image-rendering:auto;shape-rendering:auto;text-rendering:auto;enable-background:accumulate;opacity:0"
       id="path31"
       d="m 35.945994,20.12595 -3.96,4.455 -1.2474,1.485 h 3.2274 v 0.99 h -7.920001 v 10.890003 h -3.20562 l 1.225621,1.484996 3.96,4.455001 3.96,-4.455001 1.2474,-1.484996 h -3.2274 v -0.99 h 7.920005 V 26.06595 h 3.205614 l -1.225618,-1.485 z m 0,1.48896 3.075931,3.46104 h -2.085932 v 10.890006 h -6.929999 v -1.980004 h 4.95 V 25.07595 h -2.08593 z m -8.910001,6.431042 h 6.930001 v 1.98 h -4.95 v 8.91 h 2.08593 l -3.07593,3.461037 -3.075931,-3.461037 h 2.08593 v -0.989999 z m 2.970001,2.97 h 3.96 v 1.98 h -3.96 z"
       fill="#ffffff"
       opacity="0.75" />
    <g
       transform="matrix(0.52960909,0,0,0.52960909,19.275358,20.354587)"
       id="g5"
       style="fill:#dfdfdf;fill-opacity:1" />
  </g>
</svg>
