<?xml version="1.0" encoding="UTF-8" standalone="no"?>
<svg
   width="64"
   height="64"
   version="1.1"
   id="svg73"
   sodipodi:docname="application-x-st-disk-image.svg"
   inkscape:version="1.3.2 (091e20ef0f, 2023-11-25)"
   xmlns:inkscape="http://www.inkscape.org/namespaces/inkscape"
   xmlns:sodipodi="http://sodipodi.sourceforge.net/DTD/sodipodi-0.dtd"
   xmlns="http://www.w3.org/2000/svg"
   xmlns:svg="http://www.w3.org/2000/svg"
   xmlns:rdf="http://www.w3.org/1999/02/22-rdf-syntax-ns#"
   xmlns:cc="http://creativecommons.org/ns#"
   xmlns:dc="http://purl.org/dc/elements/1.1/">
  <metadata
     id="metadata77">
    <rdf:RDF>
      <cc:Work
         rdf:about="">
        <dc:format>image/svg+xml</dc:format>
        <dc:type
           rdf:resource="http://purl.org/dc/dcmitype/StillImage" />
      </cc:Work>
    </rdf:RDF>
  </metadata>
  <sodipodi:namedview
     pagecolor="#f5f7fa"
     bordercolor="#666666"
     borderopacity="1"
     objecttolerance="10"
     gridtolerance="10"
     guidetolerance="10"
     inkscape:pageopacity="0"
     inkscape:pageshadow="2"
     inkscape:window-width="1377"
     inkscape:window-height="886"
     id="namedview75"
     showgrid="false"
     inkscape:zoom="4.4470387"
     inkscape:cx="47.897042"
     inkscape:cy="14.054296"
     inkscape:window-x="119"
     inkscape:window-y="32"
     inkscape:window-maximized="0"
     inkscape:current-layer="g877"
     inkscape:document-rotation="0"
     inkscape:pagecheckerboard="0"
     inkscape:showpageshadow="2"
     inkscape:deskcolor="#d1d1d1" />
  <defs
     id="defs29">
    <linearGradient
       id="b"
       x1="399.57"
       x2="399.57"
       y1="545.8"
       y2="517.8"
       gradientTransform="matrix(2.1429,0,0,2.1429,-825.86391,-1107.6662)"
       gradientUnits="userSpaceOnUse">
      <stop
         stop-color="#3889e9"
         offset="0"
         id="stop2" />
      <stop
         stop-color="#5ea5fb"
         offset="1"
         id="stop4" />
    </linearGradient>
    <linearGradient
       id="d"
       x2="1"
       gradientTransform="matrix(14.905727,-4.7106182,4.7106182,14.905727,322.04962,998.26962)"
       gradientUnits="userSpaceOnUse">
      <stop
         stop-color="#fafafa"
         offset="0"
         id="stop7" />
      <stop
         stop-color="#aaa"
         offset="1"
         id="stop8" />
    </linearGradient>
    <linearGradient
       id="e"
       x2="1"
       gradientTransform="matrix(21.439909,0,0,21.439909,26.63554,1159.7788)"
       gradientUnits="userSpaceOnUse">
      <stop
         stop-color="#f0f0f0"
         offset="0"
         id="stop9" />
      <stop
         stop-color="#b7f1ff"
         offset="1"
         id="stop10" />
    </linearGradient>
    <linearGradient
       id="_Linear2"
       x2="1"
       gradientTransform="matrix(-0.33662128,-17.588561,17.588561,-0.33662128,289.63742,32.316102)"
       gradientUnits="userSpaceOnUse">
      <stop
         style="stop-color:#fefffe"
         offset="0"
         id="stop5" />
      <stop
         style="stop-color:#f1f1f0"
         offset="1"
         id="stop6" />
    </linearGradient>
    <clipPath
       clipPathUnits="userSpaceOnUse"
       id="clipPath7">
      <path
         d="m 33.894,28.457 v 1.292 h -8.831 v -1.292 z m 5.169,-2.508 v 1.292 h -14 v -1.292 z m 0,-2.538 v 1.292 h -14 v -1.292 z"
         style="display:block;fill:#d9dee3"
         id="path7" />
    </clipPath>
    <inkscape:path-effect
       effect="powerclip"
       id="path-effect7"
       is_visible="true"
       lpeversion="1"
       inverse="true"
       flatten="false"
       hide_clip="false"
       message="Use fill-rule evenodd on &lt;b&gt;fill and stroke&lt;/b&gt; dialog if no flatten result after convert clip to paths." />
  </defs>
  <circle
     cx="32.516094"
     cy="31.877844"
     r="0"
     fill="url(#b)"
     stroke-width="1.5715"
     id="circle41"
     style="fill:url(#b)" />
  <g
     aria-label="GZ"
     transform="matrix(1.2212657,0,0,0.81882264,0.4960938,-0.1661539)"
     id="text93"
     style="font-weight:bold;font-size:11.5263px;line-height:1.25;font-family:sans-serif;-inkscape-font-specification:'sans-serif Bold';fill:#f2f2f2;stroke-width:0.288159" />
  <g
     id="g877"
     transform="matrix(1.1,0,0,1.1,-3.1845928,-3.2065454)">
    <rect
       x="13.389396"
       y="8.0488043"
       width="37.45882"
       height="48.038597"
       rx="7.9658151"
       ry="9.6898966"
       fill="url(#linearGradient862)"
       stroke-width="3.0541"
       id="rect35-7-3"
       style="fill:#414141;fill-opacity:1;stroke:#dfdfdf;stroke-width:2.27272727;stroke-dasharray:none;stroke-opacity:1" />
    <path
       d="m 33.897812,19.01595 -4.454546,0.428182 V 37.79595 l 4.406364,-0.666364 v -7.824545 l 5.93,8.680909 4.645454,-1.475455 -6.072727,-8.347272 6.12,-7.871819 -4.74,-1.084545 -5.882727,7.870909 z m -10.099091,4.473636 c -0.05091,0.0027 -0.104546,0.01909 -0.142728,0.05727 l -1.751818,1.750909 c -0.07273,0.07364 -0.08273,0.187273 -0.02636,0.276364 l 2.046363,3.379091 c -0.363636,0.610909 -0.658182,1.265454 -0.866363,1.960909 l -3.76,0.78 c -0.104546,0.02273 -0.18,0.120909 -0.18,0.228181 v 2.475455 c 0,0.104545 0.07909,0.194545 0.18,0.218182 l 3.645454,0.885454 c 0.195455,0.804546 0.496364,1.573637 0.895455,2.275455 l -2.113637,3.216364 c -0.05909,0.09 -0.04727,0.21 0.02727,0.285454 l 1.750909,1.751818 c 0.07364,0.07364 0.187273,0.08273 0.276364,0.02636 l 3.311818,-2.008182 c 0.65,0.375455 1.353636,0.675455 2.094545,0.875455 l 0.77091,3.712727 c 0.02273,0.104545 0.111818,0.180909 0.21909,0.180909 h 2.474546 c 0.103636,0 0.193636,-0.07 0.219091,-0.171818 l 0.913636,-3.730909 c 0.763637,-0.206364 1.484546,-0.511818 2.150909,-0.904546 l 3.264546,2.141819 c 0.09,0.05909 0.209091,0.04727 0.285454,-0.02636 l 1.741818,-1.751818 c 0.07455,-0.07364 0.09273,-0.186364 0.03818,-0.275455 l -1.19,-1.960909 -0.39,0.123636 c -0.05636,0.01909 -0.119091,-0.0082 -0.152727,-0.05727 0,0 -0.750909,-1.105455 -1.731818,-2.540909 -1.172727,2.295454 -3.565455,3.864545 -6.32,3.864545 -3.915455,0 -7.090909,-3.176364 -7.090909,-7.090909 0,-2.88 1.721818,-5.353636 4.187272,-6.463636 v -1.827273 c -0.448181,0.157273 -0.881818,0.346363 -1.294545,0.570909 0,0 9.09e-4,-0.0073 0,-0.01091 l -3.34,-2.189091 c -0.04546,-0.03 -0.09273,-0.03455 -0.143636,-0.02636 z"
       style="clip-rule:evenodd;fill:#dfdfdf;fill-opacity:1;fill-rule:nonzero;stroke-width:0.909091;stroke-linejoin:round;stroke-miterlimit:2"
       id="path9" />
  </g>
</svg>
