<?xml version="1.0" encoding="UTF-8" standalone="no"?>
<svg
   width="64"
   height="64"
   version="1.1"
   id="svg73"
   sodipodi:docname="application-blank.svg"
   inkscape:version="1.3.2 (091e20ef0f, 2023-11-25)"
   xmlns:inkscape="http://www.inkscape.org/namespaces/inkscape"
   xmlns:sodipodi="http://sodipodi.sourceforge.net/DTD/sodipodi-0.dtd"
   xmlns="http://www.w3.org/2000/svg"
   xmlns:svg="http://www.w3.org/2000/svg"
   xmlns:rdf="http://www.w3.org/1999/02/22-rdf-syntax-ns#"
   xmlns:cc="http://creativecommons.org/ns#"
   xmlns:dc="http://purl.org/dc/elements/1.1/">
  <metadata
     id="metadata77">
    <rdf:RDF>
      <cc:Work
         rdf:about="">
        <dc:format>image/svg+xml</dc:format>
        <dc:type
           rdf:resource="http://purl.org/dc/dcmitype/StillImage" />
      </cc:Work>
    </rdf:RDF>
  </metadata>
  <sodipodi:namedview
     pagecolor="#f5f7fa"
     bordercolor="#666666"
     borderopacity="1"
     objecttolerance="10"
     gridtolerance="10"
     guidetolerance="10"
     inkscape:pageopacity="0"
     inkscape:pageshadow="2"
     inkscape:window-width="1377"
     inkscape:window-height="886"
     id="namedview75"
     showgrid="false"
     inkscape:zoom="4.4470387"
     inkscape:cx="47.784608"
     inkscape:cy="14.054296"
     inkscape:window-x="119"
     inkscape:window-y="32"
     inkscape:window-maximized="0"
     inkscape:current-layer="g877"
     inkscape:document-rotation="0"
     inkscape:pagecheckerboard="0"
     inkscape:showpageshadow="2"
     inkscape:deskcolor="#d1d1d1" />
  <defs
     id="defs29">
    <linearGradient
       id="b"
       x1="399.57"
       x2="399.57"
       y1="545.8"
       y2="517.8"
       gradientTransform="matrix(2.1429,0,0,2.1429,-825.86391,-1107.6662)"
       gradientUnits="userSpaceOnUse">
      <stop
         stop-color="#3889e9"
         offset="0"
         id="stop2" />
      <stop
         stop-color="#5ea5fb"
         offset="1"
         id="stop4" />
    </linearGradient>
    <linearGradient
       id="d"
       x2="1"
       gradientTransform="matrix(14.905727,-4.7106182,4.7106182,14.905727,322.04962,998.26962)"
       gradientUnits="userSpaceOnUse">
      <stop
         stop-color="#fafafa"
         offset="0"
         id="stop7" />
      <stop
         stop-color="#aaa"
         offset="1"
         id="stop8" />
    </linearGradient>
    <linearGradient
       id="e"
       x2="1"
       gradientTransform="matrix(21.439909,0,0,21.439909,26.63554,1159.7788)"
       gradientUnits="userSpaceOnUse">
      <stop
         stop-color="#f0f0f0"
         offset="0"
         id="stop9" />
      <stop
         stop-color="#b7f1ff"
         offset="1"
         id="stop10" />
    </linearGradient>
  </defs>
  <circle
     cx="32.516094"
     cy="31.877844"
     r="0"
     fill="url(#b)"
     stroke-width="1.5715"
     id="circle41"
     style="fill:url(#b)" />
  <g
     aria-label="GZ"
     transform="matrix(1.2212657,0,0,0.81882264,0.4960938,-0.1661539)"
     id="text93"
     style="font-weight:bold;font-size:11.5263px;line-height:1.25;font-family:sans-serif;-inkscape-font-specification:'sans-serif Bold';fill:#f2f2f2;stroke-width:0.288159" />
  <g
     id="g877"
     transform="matrix(1.1,0,0,1.1,-3.1845928,-3.2065454)">
    <rect
       x="13.389396"
       y="8.0488043"
       width="37.45882"
       height="48.038597"
       rx="7.9658151"
       ry="9.6898966"
       fill="url(#linearGradient862)"
       stroke-width="3.0541"
       id="rect35-7-3"
       style="fill:#414141;fill-opacity:1;stroke:#dfdfdf;stroke-width:2.27272727;stroke-dasharray:none;stroke-opacity:1" />
    <g
       id="g223"
       transform="matrix(3.3676237,0,0,3.3676237,3.5391058,1.9229391)"
       style="fill:#dfdfdf;fill-opacity:1;stroke:none;stroke-width:0.32664;stroke-dasharray:none;stroke-opacity:0.3">
      <path
         fill="#f5f7fa"
         d="m 7.8650167,5.5330392 c -0.4904828,0 -0.8880971,0.2699678 -0.8880971,0.6029891 0.014268,0.1242412 0.094355,0.2811301 0.1366304,0.3349926 0.2049454,0.2679948 0.2049454,0.4354928 0.1537091,0.5359896 H 5.6106164 c -0.3027729,0 -0.5465213,0.2390526 -0.5465213,0.5359912 v 1.3567251 c 0.1024727,0.050248 0.2732609,0.050248 0.5465213,-0.1507487 0.054921,-0.041459 0.2148924,-0.1200039 0.3415757,-0.1339974 0.3395647,0 0.6148365,0.3899528 0.6148365,0.8709848 0,0.481029 -0.2752718,0.8709805 -0.6148365,0.8709805 -0.1042167,-0.0018 -0.262654,-0.09314 -0.3415757,-0.133997 C 5.337356,10.021955 5.1665678,10.021955 5.0640951,10.072203 v 1.758717 c 0,0.296938 0.2437484,0.535989 0.5465213,0.535989 h 2.203164 c 0.051236,-0.100498 0.051236,-0.267994 -0.1537088,-0.535989 -0.042275,-0.05386 -0.1223625,-0.210751 -0.1366305,-0.334994 0,-0.333022 0.3976146,-0.60299 0.8880969,-0.60299 0.4904826,0 0.8880976,0.269968 0.8880976,0.60299 -0.0018,0.102208 -0.09497,0.257592 -0.136631,0.334994 -0.204945,0.267995 -0.204945,0.435491 -0.153709,0.535989 h 0.973491 c 0.3027734,0 0.5465214,-0.239051 0.5465214,-0.535989 v -1.490722 c 0.102473,-0.05025 0.273259,-0.05025 0.546521,0.150746 0.07892,0.04085 0.237359,0.132268 0.341576,0.133997 0.339565,0 0.614835,-0.389951 0.614835,-0.8709825 0,-0.481029 -0.27527,-0.8709813 -0.614835,-0.8709813 -0.126684,0.01399 -0.286655,0.092536 -0.341576,0.1339973 -0.273262,0.200996 -0.444048,0.200996 -0.546521,0.150747 V 7.5430017 c 0,-0.2969386 -0.243748,-0.5359912 -0.5465214,-0.5359912 H 8.4627744 C 8.4115384,6.9065137 8.4115384,6.7390157 8.6164836,6.4710209 c 0.04166,-0.0774 0.134865,-0.2327844 0.13663,-0.3349926 0,-0.3330213 -0.3976145,-0.6029891 -0.8880969,-0.6029891 z"
         id="path42"
         style="fill:#dfdfdf;fill-opacity:1;stroke:none;stroke-width:0.32664;stroke-dasharray:none;stroke-opacity:0.3" />
    </g>
  </g>
</svg>
