<?xml version="1.0" encoding="UTF-8" standalone="no"?>
<svg
   width="64"
   height="64"
   version="1.1"
   id="svg73"
   sodipodi:docname="application-vnd.rn-realmedia.svg"
   inkscape:version="1.4.2 (ebf0e940d0, 2025-05-08)"
   xmlns:inkscape="http://www.inkscape.org/namespaces/inkscape"
   xmlns:sodipodi="http://sodipodi.sourceforge.net/DTD/sodipodi-0.dtd"
   xmlns:xlink="http://www.w3.org/1999/xlink"
   xmlns="http://www.w3.org/2000/svg"
   xmlns:svg="http://www.w3.org/2000/svg"
   xmlns:rdf="http://www.w3.org/1999/02/22-rdf-syntax-ns#"
   xmlns:cc="http://creativecommons.org/ns#"
   xmlns:dc="http://purl.org/dc/elements/1.1/">
  <metadata
     id="metadata77">
    <rdf:RDF>
      <cc:Work
         rdf:about="">
        <dc:format>image/svg+xml</dc:format>
        <dc:type
           rdf:resource="http://purl.org/dc/dcmitype/StillImage" />
      </cc:Work>
    </rdf:RDF>
  </metadata>
  <sodipodi:namedview
     pagecolor="#f5f7fa"
     bordercolor="#666666"
     borderopacity="1"
     objecttolerance="10"
     gridtolerance="10"
     guidetolerance="10"
     inkscape:pageopacity="0"
     inkscape:pageshadow="2"
     inkscape:window-width="1377"
     inkscape:window-height="886"
     id="namedview75"
     showgrid="false"
     inkscape:zoom="4.4470387"
     inkscape:cx="48.234345"
     inkscape:cy="14.054296"
     inkscape:window-x="119"
     inkscape:window-y="32"
     inkscape:window-maximized="0"
     inkscape:current-layer="g877"
     inkscape:document-rotation="0"
     inkscape:pagecheckerboard="0"
     inkscape:showpageshadow="2"
     inkscape:deskcolor="#d1d1d1" />
  <defs
     id="defs29">
    <linearGradient
       id="b"
       x1="399.57"
       x2="399.57"
       y1="545.8"
       y2="517.8"
       gradientTransform="matrix(2.1429,0,0,2.1429,-825.86391,-1107.6662)"
       gradientUnits="userSpaceOnUse">
      <stop
         stop-color="#3889e9"
         offset="0"
         id="stop2" />
      <stop
         stop-color="#5ea5fb"
         offset="1"
         id="stop4" />
    </linearGradient>
    <linearGradient
       id="d"
       x2="1"
       gradientTransform="matrix(14.905727,-4.7106182,4.7106182,14.905727,322.04962,998.26962)"
       gradientUnits="userSpaceOnUse">
      <stop
         stop-color="#fafafa"
         offset="0"
         id="stop7" />
      <stop
         stop-color="#aaa"
         offset="1"
         id="stop8" />
    </linearGradient>
    <linearGradient
       id="e"
       x2="1"
       gradientTransform="matrix(21.439909,0,0,21.439909,26.63554,1159.7788)"
       gradientUnits="userSpaceOnUse">
      <stop
         stop-color="#f0f0f0"
         offset="0"
         id="stop9" />
      <stop
         stop-color="#b7f1ff"
         offset="1"
         id="stop10" />
    </linearGradient>
    <linearGradient
       id="_Linear2"
       x2="1"
       gradientTransform="matrix(-0.33662128,-17.588561,17.588561,-0.33662128,289.63742,32.316102)"
       gradientUnits="userSpaceOnUse">
      <stop
         style="stop-color:#fefffe"
         offset="0"
         id="stop5" />
      <stop
         style="stop-color:#f1f1f0"
         offset="1"
         id="stop6" />
    </linearGradient>
    <clipPath
       clipPathUnits="userSpaceOnUse"
       id="clipPath7">
      <path
         d="m 33.894,28.457 v 1.292 h -8.831 v -1.292 z m 5.169,-2.508 v 1.292 h -14 v -1.292 z m 0,-2.538 v 1.292 h -14 v -1.292 z"
         style="display:block;fill:#d9dee3"
         id="path7" />
    </clipPath>
    <inkscape:path-effect
       effect="powerclip"
       id="path-effect7"
       is_visible="true"
       lpeversion="1"
       inverse="true"
       flatten="false"
       hide_clip="false"
       message="" />
    <linearGradient
       id="linearGradient1"
       inkscape:collect="always">
      <stop
         style="stop-color:#d8dee9;stop-opacity:1;"
         offset="0"
         id="stop1" />
      <stop
         style="stop-color:#eceff4;stop-opacity:1;"
         offset="1"
         id="stop2-0" />
    </linearGradient>
    <linearGradient
       inkscape:collect="always"
       xlink:href="#linearGradient1"
       id="linearGradient5"
       x1="37.830982"
       y1="26.034248"
       x2="20.853935"
       y2="19.901464"
       gradientUnits="userSpaceOnUse" />
  </defs>
  <circle
     cx="32.516094"
     cy="31.877844"
     r="0"
     fill="url(#b)"
     stroke-width="1.5715"
     id="circle41"
     style="fill:url(#b)" />
  <g
     aria-label="GZ"
     transform="matrix(1.2212657,0,0,0.81882264,0.4960938,-0.1661539)"
     id="text93"
     style="font-weight:bold;font-size:11.5263px;line-height:1.25;font-family:sans-serif;-inkscape-font-specification:'sans-serif Bold';fill:#f2f2f2;stroke-width:0.288159" />
  <g
     id="g877"
     transform="matrix(1.1,0,0,1.1,-3.1845928,-3.2065454)">
    <rect
       x="13.256583"
       y="7.9866519"
       width="37.45882"
       height="48.038597"
       rx="7.9658151"
       ry="9.6898966"
       fill="url(#linearGradient862)"
       stroke-width="3.0541"
       id="rect35-7-3"
       style="fill:#414141;fill-opacity:1;stroke:#dfdfdf;stroke-width:2.27273;stroke-dasharray:none;stroke-opacity:1" />
    <g
       id="g1"
       transform="translate(-0.04954905,0.03774036)"
       style="fill:#dfdfdf;fill-opacity:1">
      <g
         id="g6"
         style="fill:#dfdfdf;fill-opacity:1">
        <path
           fill="#f5f7fa"
           d="m 43.097573,31.718058 v 1.137596 H 20.973512 v -1.137596 z m 0,5.687971 v 1.137599 H 20.973512 v -1.137599 z m -7.127999,5.687977 v 1.137598 H 20.973512 v -1.137598 z"
           id="path42-7"
           style="fill:#dfdfdf;fill-opacity:1;stroke:none;stroke-width:0.990001;stroke-dasharray:none;stroke-opacity:0.3"
           sodipodi:nodetypes="ccccccccccccccc" />
      </g>
      <path
         d="m 21.825193,26.628473 v -6.923657 h 0.87273 v 6.147897 h 3.025464 v 0.77576 z M 31.30886,24.01998 q 0,1.289701 -0.659396,1.997582 -0.649699,0.707881 -1.764853,0.707881 -0.688487,0 -1.231519,-0.310304 -0.533335,-0.320001 -0.843639,-0.921215 -0.310304,-0.610911 -0.310304,-1.473944 0,-1.289701 0.649699,-1.987885 0.649699,-0.698183 1.764853,-0.698183 0.707881,0 1.241216,0.320001 0.543032,0.310303 0.843639,0.911517 0.310304,0.591517 0.310304,1.45455 z m -3.927284,0 q 0,0.921215 0.358789,1.464247 0.368486,0.533335 1.16364,0.533335 0.785456,0 1.153942,-0.533335 0.368486,-0.543032 0.368486,-1.464247 0,-0.921215 -0.368486,-1.444853 -0.368486,-0.523638 -1.163639,-0.523638 -0.795154,0 -1.153943,0.523638 -0.358789,0.523638 -0.358789,1.444853 z m 7.117593,-2.686068 q 0.513941,0 0.921215,0.19394 0.416971,0.19394 0.707881,0.591516 h 0.04848 l 0.116364,-0.688486 h 0.67879 v 5.284864 q 0,1.115155 -0.572123,1.677581 -0.562426,0.562426 -1.755157,0.562426 -1.144246,0 -1.871521,-0.329698 v -0.785457 q 0.766063,0.407274 1.920006,0.407274 0.669093,0 1.047276,-0.397577 0.38788,-0.38788 0.38788,-1.06667 v -0.203637 q 0,-0.116364 0.0097,-0.329698 0.0097,-0.223031 0.01939,-0.310304 h -0.03879 q -0.523638,0.785457 -1.609702,0.785457 -1.008488,0 -1.580611,-0.707881 -0.562426,-0.707881 -0.562426,-1.978188 0,-1.241216 0.562426,-1.968491 0.572123,-0.736971 1.570914,-0.736971 z m 0.116364,0.717577 q -0.649699,0 -1.008488,0.523638 -0.358789,0.513941 -0.358789,1.473944 0,0.960003 0.349092,1.473944 0.358789,0.504244 1.037579,0.504244 0.785457,0 1.144246,-0.416971 0.358789,-0.426668 0.358789,-1.367277 v -0.203637 q 0,-1.06667 -0.368486,-1.522429 -0.368486,-0.465456 -1.153943,-0.465456 z"
         id="text2"
         style="font-size:9.697px;opacity:1;fill:#dfdfdf;fill-opacity:1;stroke-width:3.63636"
         aria-label="Log" />
    </g>
    <path
       style="color:#4d4d4d;clip-rule:nonzero;display:inline;overflow:visible;visibility:visible;isolation:auto;mix-blend-mode:normal;color-interpolation:sRGB;color-interpolation-filters:linearRGB;solid-color:#000000;solid-opacity:1;fill:#dfdfdf;fill-opacity:1;fill-rule:nonzero;stroke-width:0.990001;stroke-linecap:butt;stroke-linejoin:miter;stroke-miterlimit:4;stroke-dasharray:none;stroke-dashoffset:0;stroke-opacity:1;color-rendering:auto;image-rendering:auto;shape-rendering:auto;text-rendering:auto;enable-background:accumulate;opacity:0"
       id="path31"
       d="m 35.945994,20.12595 -3.96,4.455 -1.2474,1.485 h 3.2274 v 0.99 h -7.920001 v 10.890003 h -3.20562 l 1.225621,1.484996 3.96,4.455001 3.96,-4.455001 1.2474,-1.484996 h -3.2274 v -0.99 h 7.920005 V 26.06595 h 3.205614 l -1.225618,-1.485 z m 0,1.48896 3.075931,3.46104 h -2.085932 v 10.890006 h -6.929999 v -1.980004 h 4.95 V 25.07595 h -2.08593 z m -8.910001,6.431042 h 6.930001 v 1.98 h -4.95 v 8.91 h 2.08593 l -3.07593,3.461037 -3.075931,-3.461037 h 2.08593 v -0.989999 z m 2.970001,2.97 h 3.96 v 1.98 h -3.96 z"
       fill="#ffffff"
       opacity="0.75" />
    <g
       transform="matrix(0.52960909,0,0,0.52960909,19.275358,20.354587)"
       id="g5"
       style="fill:#dfdfdf;fill-opacity:1" />
  </g>
</svg>
