<?xml version="1.0" encoding="UTF-8" standalone="no"?>
<svg
   width="64"
   height="64"
   version="1.1"
   id="svg73"
   sodipodi:docname="application-x-mplayer2.svg"
   inkscape:version="1.4.2 (ebf0e940d0, 2025-05-08)"
   xmlns:inkscape="http://www.inkscape.org/namespaces/inkscape"
   xmlns:sodipodi="http://sodipodi.sourceforge.net/DTD/sodipodi-0.dtd"
   xmlns="http://www.w3.org/2000/svg"
   xmlns:svg="http://www.w3.org/2000/svg"
   xmlns:rdf="http://www.w3.org/1999/02/22-rdf-syntax-ns#"
   xmlns:cc="http://creativecommons.org/ns#"
   xmlns:dc="http://purl.org/dc/elements/1.1/">
  <metadata
     id="metadata77">
    <rdf:RDF>
      <cc:Work
         rdf:about="">
        <dc:format>image/svg+xml</dc:format>
        <dc:type
           rdf:resource="http://purl.org/dc/dcmitype/StillImage" />
      </cc:Work>
    </rdf:RDF>
  </metadata>
  <sodipodi:namedview
     pagecolor="#f5f7fa"
     bordercolor="#666666"
     borderopacity="1"
     objecttolerance="10"
     gridtolerance="10"
     guidetolerance="10"
     inkscape:pageopacity="0"
     inkscape:pageshadow="2"
     inkscape:window-width="1377"
     inkscape:window-height="886"
     id="namedview75"
     showgrid="false"
     inkscape:zoom="4.4470387"
     inkscape:cx="48.234345"
     inkscape:cy="14.054296"
     inkscape:window-x="119"
     inkscape:window-y="32"
     inkscape:window-maximized="0"
     inkscape:current-layer="g877"
     inkscape:document-rotation="0"
     inkscape:pagecheckerboard="0"
     inkscape:showpageshadow="2"
     inkscape:deskcolor="#d1d1d1" />
  <defs
     id="defs29">
    <linearGradient
       id="b"
       x1="399.57"
       x2="399.57"
       y1="545.8"
       y2="517.8"
       gradientTransform="matrix(2.1429,0,0,2.1429,-825.86391,-1107.6662)"
       gradientUnits="userSpaceOnUse">
      <stop
         stop-color="#3889e9"
         offset="0"
         id="stop2" />
      <stop
         stop-color="#5ea5fb"
         offset="1"
         id="stop4" />
    </linearGradient>
    <linearGradient
       id="d"
       x2="1"
       gradientTransform="matrix(14.905727,-4.7106182,4.7106182,14.905727,322.04962,998.26962)"
       gradientUnits="userSpaceOnUse">
      <stop
         stop-color="#fafafa"
         offset="0"
         id="stop7" />
      <stop
         stop-color="#aaa"
         offset="1"
         id="stop8" />
    </linearGradient>
    <linearGradient
       id="e"
       x2="1"
       gradientTransform="matrix(21.439909,0,0,21.439909,26.63554,1159.7788)"
       gradientUnits="userSpaceOnUse">
      <stop
         stop-color="#f0f0f0"
         offset="0"
         id="stop9" />
      <stop
         stop-color="#b7f1ff"
         offset="1"
         id="stop10" />
    </linearGradient>
    <linearGradient
       id="_Linear2"
       x2="1"
       gradientTransform="matrix(-0.33662128,-17.588561,17.588561,-0.33662128,289.63742,32.316102)"
       gradientUnits="userSpaceOnUse">
      <stop
         style="stop-color:#fefffe"
         offset="0"
         id="stop5" />
      <stop
         style="stop-color:#f1f1f0"
         offset="1"
         id="stop6" />
    </linearGradient>
    <clipPath
       clipPathUnits="userSpaceOnUse"
       id="clipPath7">
      <path
         d="m 33.894,28.457 v 1.292 h -8.831 v -1.292 z m 5.169,-2.508 v 1.292 h -14 v -1.292 z m 0,-2.538 v 1.292 h -14 v -1.292 z"
         style="display:block;fill:#d9dee3"
         id="path7" />
    </clipPath>
    <inkscape:path-effect
       effect="powerclip"
       id="path-effect7"
       is_visible="true"
       lpeversion="1"
       inverse="true"
       flatten="false"
       hide_clip="false"
       message="" />
  </defs>
  <circle
     cx="32.516094"
     cy="31.877844"
     r="0"
     fill="url(#b)"
     stroke-width="1.5715"
     id="circle41"
     style="fill:url(#b)" />
  <g
     aria-label="GZ"
     transform="matrix(1.2212657,0,0,0.81882264,0.4960938,-0.1661539)"
     id="text93"
     style="font-weight:bold;font-size:11.5263px;line-height:1.25;font-family:sans-serif;-inkscape-font-specification:'sans-serif Bold';fill:#f2f2f2;stroke-width:0.288159" />
  <g
     id="g877"
     transform="matrix(1.1,0,0,1.1,-3.1845928,-3.2065454)">
    <rect
       x="13.256583"
       y="7.9866519"
       width="37.45882"
       height="48.038597"
       rx="7.9658151"
       ry="9.6898966"
       fill="url(#linearGradient862)"
       stroke-width="3.0541"
       id="rect35-7-3"
       style="fill:#414141;fill-opacity:1;stroke:#dfdfdf;stroke-width:2.27273;stroke-dasharray:none;stroke-opacity:1" />
    <path
       d="m 35.806827,35.283413 c 0.07844,0.197023 0.133728,0.407422 0.163149,0.631194 0.114116,0.854968 -0.146209,1.859709 -0.752443,2.904572 -1.333713,2.299228 -3.49654,3.151522 -4.9408,2.969651 -0.03209,-0.0037 -0.06241,-0.01423 -0.08915,-0.02938 -0.04547,-0.0266 -0.08202,-0.06865 -0.101632,-0.119459 -0.0321,-0.08024 -0.01695,-0.172061 0.03923,-0.23892 0.571464,-0.673153 0.418124,-1.347142 0.223773,-2.200327 -0.203266,-0.892411 -0.434171,-1.903393 0.190784,-3.084656 0.786319,-1.487948 1.725982,-2.021966 2.375008,-2.208296 0.13462,-0.03835 0.27013,-0.06508 0.406532,-0.08202 z m 5.81806,-12.935949 c 0.498356,0.289743 0.689141,0.914701 0.43506,1.432672 -0.158702,0.325403 -3.9004,7.971075 -4.523571,9.046248 -0.312923,0.538478 -0.891519,1.271306 -1.432672,1.913199 L 33.617256,33.28195 c 0.288853,-0.788103 0.635653,-1.650203 0.943227,-2.181548 0.616041,-1.061801 5.400828,-8.119068 5.604091,-8.418618 0.323623,-0.477855 0.961059,-0.623173 1.460313,-0.33432 z M 29.68298,37.959752 c 0.02586,0.491229 0.129272,0.942338 0.221989,1.348871 0.199697,0.875473 0.278152,1.316775 -0.122141,1.789281 -0.08113,0.09627 -0.132835,0.20951 -0.155124,0.328076 -0.152449,-0.153352 -0.267456,-0.356606 -0.315598,-0.615146 -0.06241,-0.42169 -0.195242,-0.633869 -0.460914,-0.736397 -0.371763,-0.130159 -0.782753,-0.140859 -1.13847,-0.140859 -0.06686,0 -0.133731,0 -0.200592,8.04e-4 -0.814848,0.0052 -1.6083,0.0052 -2.20651,-0.772951 -0.680229,-0.88617 -0.286178,-1.684971 0.0945,-2.457917 0.201484,-0.409211 0.410098,-0.83179 0.452,-1.2615 0.0107,-0.0945 -0.008,-0.168499 -0.05884,-0.230014 -0.192568,-0.235362 -0.816631,-0.283503 -1.421082,-0.330753 -0.614255,-0.04726 -1.249019,-0.09628 -1.642178,-0.329863 -0.729263,-0.435062 -0.907569,-1.076062 -0.928072,-1.538763 -0.03923,-0.866556 0.455567,-1.84901 1.20266,-2.390164 0.04013,-0.02941 0.09628,-0.02229 0.127487,0.01605 0.0321,0.03835 0.02941,0.0945 -0.0061,0.129269 -0.583945,0.559876 -1.151843,1.904287 -0.678447,2.654945 0.254976,0.390486 0.675773,0.5572 1.407709,0.5572 0.213074,0 0.435063,-0.01336 0.649919,-0.02585 0.209508,-0.01246 0.426147,-0.02586 0.628521,-0.02586 0.245169,0 0.438628,0.01874 0.606234,0.05884 0.575922,0.109657 1.094785,0.488554 1.316773,0.964626 0.266566,0.573246 0.124816,1.176805 -0.06776,1.74381 -0.01336,0.04012 -0.03744,0.09629 -0.06776,0.167609 -0.119462,0.280827 -0.396727,0.935202 -0.204157,1.175915 0.01695,0.01516 0.07222,0.04458 0.230903,0.04458 0.226445,0 0.550068,-0.05617 0.893302,-0.115898 0.384245,-0.06776 0.781862,-0.136402 1.099244,-0.136402 0.03923,0 0.07667,8.02e-4 0.112332,0.0026 0.210397,0.01336 0.418121,0.05527 0.630303,0.125703 z"
       fill="#4d2167"
       id="path8"
       style="fill:#dfdfdf;stroke-width:0.891527;fill-opacity:1" />
    <g
       transform="matrix(0.52960909,0,0,0.52960909,19.275358,20.354587)"
       id="g5"
       style="fill:#dfdfdf;fill-opacity:1" />
  </g>
</svg>
