<?xml version="1.0" encoding="UTF-8" standalone="no"?>
<svg
   width="64"
   height="64"
   version="1.1"
   id="svg73"
   sodipodi:docname="application-x-st-disk-image.svg"
   inkscape:version="1.3.2 (091e20ef0f, 2023-11-25)"
   xmlns:inkscape="http://www.inkscape.org/namespaces/inkscape"
   xmlns:sodipodi="http://sodipodi.sourceforge.net/DTD/sodipodi-0.dtd"
   xmlns="http://www.w3.org/2000/svg"
   xmlns:svg="http://www.w3.org/2000/svg"
   xmlns:rdf="http://www.w3.org/1999/02/22-rdf-syntax-ns#"
   xmlns:cc="http://creativecommons.org/ns#"
   xmlns:dc="http://purl.org/dc/elements/1.1/">
  <metadata
     id="metadata77">
    <rdf:RDF>
      <cc:Work
         rdf:about="">
        <dc:format>image/svg+xml</dc:format>
        <dc:type
           rdf:resource="http://purl.org/dc/dcmitype/StillImage" />
      </cc:Work>
    </rdf:RDF>
  </metadata>
  <sodipodi:namedview
     pagecolor="#f5f7fa"
     bordercolor="#666666"
     borderopacity="1"
     objecttolerance="10"
     gridtolerance="10"
     guidetolerance="10"
     inkscape:pageopacity="0"
     inkscape:pageshadow="2"
     inkscape:window-width="1377"
     inkscape:window-height="886"
     id="namedview75"
     showgrid="false"
     inkscape:zoom="4.4470387"
     inkscape:cx="47.897042"
     inkscape:cy="14.054296"
     inkscape:window-x="119"
     inkscape:window-y="32"
     inkscape:window-maximized="0"
     inkscape:current-layer="g877"
     inkscape:document-rotation="0"
     inkscape:pagecheckerboard="0"
     inkscape:showpageshadow="2"
     inkscape:deskcolor="#d1d1d1" />
  <defs
     id="defs29">
    <linearGradient
       id="b"
       x1="399.57"
       x2="399.57"
       y1="545.8"
       y2="517.8"
       gradientTransform="matrix(2.1429,0,0,2.1429,-825.86391,-1107.6662)"
       gradientUnits="userSpaceOnUse">
      <stop
         stop-color="#3889e9"
         offset="0"
         id="stop2" />
      <stop
         stop-color="#5ea5fb"
         offset="1"
         id="stop4" />
    </linearGradient>
    <linearGradient
       id="d"
       x2="1"
       gradientTransform="matrix(14.905727,-4.7106182,4.7106182,14.905727,322.04962,998.26962)"
       gradientUnits="userSpaceOnUse">
      <stop
         stop-color="#fafafa"
         offset="0"
         id="stop7" />
      <stop
         stop-color="#aaa"
         offset="1"
         id="stop8" />
    </linearGradient>
    <linearGradient
       id="e"
       x2="1"
       gradientTransform="matrix(21.439909,0,0,21.439909,26.63554,1159.7788)"
       gradientUnits="userSpaceOnUse">
      <stop
         stop-color="#f0f0f0"
         offset="0"
         id="stop9" />
      <stop
         stop-color="#b7f1ff"
         offset="1"
         id="stop10" />
    </linearGradient>
    <linearGradient
       id="_Linear2"
       x2="1"
       gradientTransform="matrix(-0.33662128,-17.588561,17.588561,-0.33662128,289.63742,32.316102)"
       gradientUnits="userSpaceOnUse">
      <stop
         style="stop-color:#fefffe"
         offset="0"
         id="stop5" />
      <stop
         style="stop-color:#f1f1f0"
         offset="1"
         id="stop6" />
    </linearGradient>
    <clipPath
       clipPathUnits="userSpaceOnUse"
       id="clipPath7">
      <path
         d="m 33.894,28.457 v 1.292 h -8.831 v -1.292 z m 5.169,-2.508 v 1.292 h -14 v -1.292 z m 0,-2.538 v 1.292 h -14 v -1.292 z"
         style="display:block;fill:#d9dee3"
         id="path7" />
    </clipPath>
    <inkscape:path-effect
       effect="powerclip"
       id="path-effect7"
       is_visible="true"
       lpeversion="1"
       inverse="true"
       flatten="false"
       hide_clip="false"
       message="Use fill-rule evenodd on &lt;b&gt;fill and stroke&lt;/b&gt; dialog if no flatten result after convert clip to paths." />
  </defs>
  <circle
     cx="32.516094"
     cy="31.877844"
     r="0"
     fill="url(#b)"
     stroke-width="1.5715"
     id="circle41"
     style="fill:url(#b)" />
  <g
     aria-label="GZ"
     transform="matrix(1.2212657,0,0,0.81882264,0.4960938,-0.1661539)"
     id="text93"
     style="font-weight:bold;font-size:11.5263px;line-height:1.25;font-family:sans-serif;-inkscape-font-specification:'sans-serif Bold';fill:#f2f2f2;stroke-width:0.288159" />
  <g
     id="g877"
     transform="matrix(1.1,0,0,1.1,-3.1845928,-3.2065454)">
    <rect
       x="13.389396"
       y="8.0488043"
       width="37.45882"
       height="48.038597"
       rx="7.9658151"
       ry="9.6898966"
       fill="url(#linearGradient862)"
       stroke-width="3.0541"
       id="rect35-7-3"
       style="fill:#414141;fill-opacity:1;stroke:#dfdfdf;stroke-width:2.27272727;stroke-dasharray:none;stroke-opacity:1" />
    <g
       id="g1091"
       style="fill:#dfdfdf;fill-opacity:1;stroke:none;stroke-width:0.975351;stroke-dasharray:none;stroke-opacity:0.3"
       transform="matrix(0.73994892,0,0,0.73994892,7.7401691,8.0310196)">
      <path
         style="opacity:1;fill:#dfdfdf;fill-opacity:1;stroke:none;stroke-width:0.975351;stroke-dasharray:none;stroke-opacity:0.3"
         d="m 31.321296,47.627904 c -0.724018,-0.220616 -1.194567,-0.536891 -2.13594,-1.43565 -1.94142,-1.853533 -10.601341,-10.679987 -10.924192,-11.134268 -1.393276,-1.960461 -0.584377,-4.923634 1.61648,-5.921531 1.39925,-0.634436 2.877396,-0.514611 3.963697,0.321315 0.285883,0.219992 2.281272,2.179707 4.434196,4.354923 2.152926,2.175215 3.988294,3.954936 4.078598,3.954936 0.0903,0 1.991191,-1.84487 4.224195,-4.099713 2.233004,-2.254842 4.287132,-4.238396 4.564728,-4.4079 1.9292,-1.177993 4.545999,-0.347454 5.575412,1.769566 0.607464,1.249275 0.546607,2.701012 -0.161023,3.841126 -0.313836,0.505643 -11.049132,11.465347 -11.801466,12.048162 -0.651591,0.504771 -1.295469,0.730656 -2.201844,0.772448 -0.489525,0.02257 -1.044305,-0.0059 -1.232841,-0.06341 z"
         id="path241" />
      <path
         style="opacity:1;fill:#dfdfdf;fill-opacity:1;stroke:none;stroke-width:0.975351;stroke-dasharray:none;stroke-opacity:0.3"
         d="m 31.786159,30.349154 c -0.588739,-0.333439 -7.163017,-7.006483 -7.541456,-7.654752 -0.60917,-1.043512 -0.269892,-2.526937 0.741871,-3.243691 0.568027,-0.402402 1.722148,-0.54108 2.383992,-0.286458 0.252694,0.09722 1.42779,1.17652 2.886738,2.651415 1.35331,1.368103 2.531807,2.503301 2.618885,2.522663 0.08709,0.01936 1.259037,-1.083809 2.60435,-2.451491 1.345315,-1.367683 2.631577,-2.575817 2.858362,-2.684738 0.632308,-0.303696 1.857822,-0.181127 2.460929,0.246126 0.977773,0.692675 1.332431,2.127782 0.791706,3.203592 -0.288755,0.574499 -6.804738,7.201908 -7.520132,7.648729 -0.596644,0.372654 -1.672675,0.39554 -2.285245,0.0486 z"
         id="path280" />
    </g>
  </g>
</svg>
