<?xml version="1.0" encoding="UTF-8" standalone="no"?>
<svg
   width="64"
   height="64"
   version="1.1"
   id="svg73"
   sodipodi:docname="application-vnd.rn-realmedia.svg"
   inkscape:version="1.4.2 (ebf0e940d0, 2025-05-08)"
   xmlns:inkscape="http://www.inkscape.org/namespaces/inkscape"
   xmlns:sodipodi="http://sodipodi.sourceforge.net/DTD/sodipodi-0.dtd"
   xmlns:xlink="http://www.w3.org/1999/xlink"
   xmlns="http://www.w3.org/2000/svg"
   xmlns:svg="http://www.w3.org/2000/svg"
   xmlns:rdf="http://www.w3.org/1999/02/22-rdf-syntax-ns#"
   xmlns:cc="http://creativecommons.org/ns#"
   xmlns:dc="http://purl.org/dc/elements/1.1/">
  <metadata
     id="metadata77">
    <rdf:RDF>
      <cc:Work
         rdf:about="">
        <dc:format>image/svg+xml</dc:format>
        <dc:type
           rdf:resource="http://purl.org/dc/dcmitype/StillImage" />
      </cc:Work>
    </rdf:RDF>
  </metadata>
  <sodipodi:namedview
     pagecolor="#f5f7fa"
     bordercolor="#666666"
     borderopacity="1"
     objecttolerance="10"
     gridtolerance="10"
     guidetolerance="10"
     inkscape:pageopacity="0"
     inkscape:pageshadow="2"
     inkscape:window-width="1377"
     inkscape:window-height="886"
     id="namedview75"
     showgrid="false"
     inkscape:zoom="4.4470387"
     inkscape:cx="48.234345"
     inkscape:cy="14.054296"
     inkscape:window-x="119"
     inkscape:window-y="32"
     inkscape:window-maximized="0"
     inkscape:current-layer="g877"
     inkscape:document-rotation="0"
     inkscape:pagecheckerboard="0"
     inkscape:showpageshadow="2"
     inkscape:deskcolor="#d1d1d1" />
  <defs
     id="defs29">
    <linearGradient
       id="b"
       x1="399.57"
       x2="399.57"
       y1="545.8"
       y2="517.8"
       gradientTransform="matrix(2.1429,0,0,2.1429,-825.86391,-1107.6662)"
       gradientUnits="userSpaceOnUse">
      <stop
         stop-color="#3889e9"
         offset="0"
         id="stop2" />
      <stop
         stop-color="#5ea5fb"
         offset="1"
         id="stop4" />
    </linearGradient>
    <linearGradient
       id="d"
       x2="1"
       gradientTransform="matrix(14.905727,-4.7106182,4.7106182,14.905727,322.04962,998.26962)"
       gradientUnits="userSpaceOnUse">
      <stop
         stop-color="#fafafa"
         offset="0"
         id="stop7" />
      <stop
         stop-color="#aaa"
         offset="1"
         id="stop8" />
    </linearGradient>
    <linearGradient
       id="e"
       x2="1"
       gradientTransform="matrix(21.439909,0,0,21.439909,26.63554,1159.7788)"
       gradientUnits="userSpaceOnUse">
      <stop
         stop-color="#f0f0f0"
         offset="0"
         id="stop9" />
      <stop
         stop-color="#b7f1ff"
         offset="1"
         id="stop10" />
    </linearGradient>
    <linearGradient
       id="_Linear2"
       x2="1"
       gradientTransform="matrix(-0.33662128,-17.588561,17.588561,-0.33662128,289.63742,32.316102)"
       gradientUnits="userSpaceOnUse">
      <stop
         style="stop-color:#fefffe"
         offset="0"
         id="stop5" />
      <stop
         style="stop-color:#f1f1f0"
         offset="1"
         id="stop6" />
    </linearGradient>
    <clipPath
       clipPathUnits="userSpaceOnUse"
       id="clipPath7">
      <path
         d="m 33.894,28.457 v 1.292 h -8.831 v -1.292 z m 5.169,-2.508 v 1.292 h -14 v -1.292 z m 0,-2.538 v 1.292 h -14 v -1.292 z"
         style="display:block;fill:#d9dee3"
         id="path7" />
    </clipPath>
    <inkscape:path-effect
       effect="powerclip"
       id="path-effect7"
       is_visible="true"
       lpeversion="1"
       inverse="true"
       flatten="false"
       hide_clip="false"
       message="" />
    <linearGradient
       id="linearGradient1"
       inkscape:collect="always">
      <stop
         style="stop-color:#d8dee9;stop-opacity:1;"
         offset="0"
         id="stop1" />
      <stop
         style="stop-color:#eceff4;stop-opacity:1;"
         offset="1"
         id="stop2-0" />
    </linearGradient>
    <linearGradient
       inkscape:collect="always"
       xlink:href="#linearGradient1"
       id="linearGradient5"
       x1="37.830982"
       y1="26.034248"
       x2="20.853935"
       y2="19.901464"
       gradientUnits="userSpaceOnUse" />
  </defs>
  <circle
     cx="32.516094"
     cy="31.877844"
     r="0"
     fill="url(#b)"
     stroke-width="1.5715"
     id="circle41"
     style="fill:url(#b)" />
  <g
     aria-label="GZ"
     transform="matrix(1.2212657,0,0,0.81882264,0.4960938,-0.1661539)"
     id="text93"
     style="font-weight:bold;font-size:11.5263px;line-height:1.25;font-family:sans-serif;-inkscape-font-specification:'sans-serif Bold';fill:#f2f2f2;stroke-width:0.288159" />
  <g
     id="g877"
     transform="matrix(1.1,0,0,1.1,-3.1845928,-3.2065454)">
    <rect
       x="13.256583"
       y="7.9866519"
       width="37.45882"
       height="48.038597"
       rx="7.9658151"
       ry="9.6898966"
       fill="url(#linearGradient862)"
       stroke-width="3.0541"
       id="rect35-7-3"
       style="fill:#414141;fill-opacity:1;stroke:#dfdfdf;stroke-width:2.27273;stroke-dasharray:none;stroke-opacity:1" />
    <path
       id="path16"
       style="fill:#dfdfdf;stroke-width:0.0939762;fill-opacity:1"
       d="m 28.488943,25.443877 v 1.080256 1.080255 h 1.126599 1.128195 v -1.080255 -1.080256 h -1.128195 z m 3.005862,0 v 1.080256 1.080255 h 1.081853 1.080256 v -1.080255 -1.080256 h -1.080256 z m 6.340912,1.927202 c -0.227818,-0.0039 -0.384621,0.128554 -0.604049,0.431463 -0.63751,0.880058 -0.579516,1.898056 0.155023,2.715021 0.328914,0.365833 0.533835,0.501447 0.925249,0.615234 0.432896,0.125845 0.534856,0.20494 0.746271,0.565697 0.164948,0.28147 0.406156,0.509685 0.735085,0.698331 0.959764,0.550441 2.191564,0.276776 2.825286,-0.628019 0.253979,-0.362614 0.265978,-0.416008 0.154992,-0.683948 -0.162444,-0.392169 -0.844461,-0.978056 -1.297588,-1.113815 -0.588298,-0.176261 -0.902953,-0.138329 -1.727446,0.212535 -0.141137,0.06006 -0.15363,0.01113 -0.105482,-0.455433 0.09924,-0.961509 -0.407548,-1.829916 -1.291192,-2.21005 -0.216684,-0.09322 -0.379472,-0.144681 -0.516159,-0.147019 z m -13.106896,0.985973 v 1.126598 1.128196 h 1.128195 1.128199 V 29.48365 28.357052 h -1.128199 z m 2.913174,0 v 1.126598 1.128196 h 1.128199 1.128194 V 29.48365 28.357052 h -1.128194 z m 3.007461,0 v 1.126598 1.128196 h 1.081853 1.080257 V 29.48365 28.357052 h -1.080257 z m 2.913175,0 v 1.126598 1.128196 h 1.128198 1.128195 V 29.48365 28.357052 h -1.128195 z m -12.430936,3.005859 0.05272,0.642401 c 0.0993,1.184472 0.611862,2.623873 1.206498,3.39098 1.277908,1.648547 3.139086,2.6754 5.57067,3.072975 1.09199,0.178554 3.61818,0.104429 4.667795,-0.137427 3.564869,-0.821401 5.743928,-3.091694 6.061258,-6.312146 l 0.06553,-0.656783 h -8.81304 z m 3.659448,1.391868 c 0.39302,0 0.784623,0.341487 0.784623,0.685547 0,0.261654 -0.246155,0.708342 -0.428266,0.778232 -0.242538,0.09307 -0.640234,0.06204 -0.802202,-0.06233 -0.629137,-0.48304 -0.336819,-1.401456 0.445845,-1.401458 z" />
    <path
       style="color:#4d4d4d;clip-rule:nonzero;display:inline;overflow:visible;visibility:visible;isolation:auto;mix-blend-mode:normal;color-interpolation:sRGB;color-interpolation-filters:linearRGB;solid-color:#000000;solid-opacity:1;fill:#dfdfdf;fill-opacity:1;fill-rule:nonzero;stroke-width:0.990001;stroke-linecap:butt;stroke-linejoin:miter;stroke-miterlimit:4;stroke-dasharray:none;stroke-dashoffset:0;stroke-opacity:1;color-rendering:auto;image-rendering:auto;shape-rendering:auto;text-rendering:auto;enable-background:accumulate;opacity:0"
       id="path31"
       d="m 35.945994,20.12595 -3.96,4.455 -1.2474,1.485 h 3.2274 v 0.99 h -7.920001 v 10.890003 h -3.20562 l 1.225621,1.484996 3.96,4.455001 3.96,-4.455001 1.2474,-1.484996 h -3.2274 v -0.99 h 7.920005 V 26.06595 h 3.205614 l -1.225618,-1.485 z m 0,1.48896 3.075931,3.46104 h -2.085932 v 10.890006 h -6.929999 v -1.980004 h 4.95 V 25.07595 h -2.08593 z m -8.910001,6.431042 h 6.930001 v 1.98 h -4.95 v 8.91 h 2.08593 l -3.07593,3.461037 -3.075931,-3.461037 h 2.08593 v -0.989999 z m 2.970001,2.97 h 3.96 v 1.98 h -3.96 z"
       fill="#ffffff"
       opacity="0.75" />
    <g
       transform="matrix(0.52960909,0,0,0.52960909,19.275358,20.354587)"
       id="g5"
       style="fill:#dfdfdf;fill-opacity:1" />
  </g>
</svg>
