<?xml version="1.0" encoding="UTF-8" standalone="no"?>
<svg
   width="64"
   height="64"
   version="1.1"
   id="svg73"
   sodipodi:docname="application-vnd.rn-realmedia.svg"
   inkscape:version="1.4.2 (ebf0e940d0, 2025-05-08)"
   xmlns:inkscape="http://www.inkscape.org/namespaces/inkscape"
   xmlns:sodipodi="http://sodipodi.sourceforge.net/DTD/sodipodi-0.dtd"
   xmlns:xlink="http://www.w3.org/1999/xlink"
   xmlns="http://www.w3.org/2000/svg"
   xmlns:svg="http://www.w3.org/2000/svg"
   xmlns:rdf="http://www.w3.org/1999/02/22-rdf-syntax-ns#"
   xmlns:cc="http://creativecommons.org/ns#"
   xmlns:dc="http://purl.org/dc/elements/1.1/">
  <metadata
     id="metadata77">
    <rdf:RDF>
      <cc:Work
         rdf:about="">
        <dc:format>image/svg+xml</dc:format>
        <dc:type
           rdf:resource="http://purl.org/dc/dcmitype/StillImage" />
      </cc:Work>
    </rdf:RDF>
  </metadata>
  <sodipodi:namedview
     pagecolor="#f5f7fa"
     bordercolor="#666666"
     borderopacity="1"
     objecttolerance="10"
     gridtolerance="10"
     guidetolerance="10"
     inkscape:pageopacity="0"
     inkscape:pageshadow="2"
     inkscape:window-width="1377"
     inkscape:window-height="886"
     id="namedview75"
     showgrid="false"
     inkscape:zoom="4.4470387"
     inkscape:cx="48.234345"
     inkscape:cy="14.054296"
     inkscape:window-x="119"
     inkscape:window-y="32"
     inkscape:window-maximized="0"
     inkscape:current-layer="g877"
     inkscape:document-rotation="0"
     inkscape:pagecheckerboard="0"
     inkscape:showpageshadow="2"
     inkscape:deskcolor="#d1d1d1" />
  <defs
     id="defs29">
    <linearGradient
       id="b"
       x1="399.57"
       x2="399.57"
       y1="545.8"
       y2="517.8"
       gradientTransform="matrix(2.1429,0,0,2.1429,-825.86391,-1107.6662)"
       gradientUnits="userSpaceOnUse">
      <stop
         stop-color="#3889e9"
         offset="0"
         id="stop2" />
      <stop
         stop-color="#5ea5fb"
         offset="1"
         id="stop4" />
    </linearGradient>
    <linearGradient
       id="d"
       x2="1"
       gradientTransform="matrix(14.905727,-4.7106182,4.7106182,14.905727,322.04962,998.26962)"
       gradientUnits="userSpaceOnUse">
      <stop
         stop-color="#fafafa"
         offset="0"
         id="stop7" />
      <stop
         stop-color="#aaa"
         offset="1"
         id="stop8" />
    </linearGradient>
    <linearGradient
       id="e"
       x2="1"
       gradientTransform="matrix(21.439909,0,0,21.439909,26.63554,1159.7788)"
       gradientUnits="userSpaceOnUse">
      <stop
         stop-color="#f0f0f0"
         offset="0"
         id="stop9" />
      <stop
         stop-color="#b7f1ff"
         offset="1"
         id="stop10" />
    </linearGradient>
    <linearGradient
       id="_Linear2"
       x2="1"
       gradientTransform="matrix(-0.33662128,-17.588561,17.588561,-0.33662128,289.63742,32.316102)"
       gradientUnits="userSpaceOnUse">
      <stop
         style="stop-color:#fefffe"
         offset="0"
         id="stop5" />
      <stop
         style="stop-color:#f1f1f0"
         offset="1"
         id="stop6" />
    </linearGradient>
    <clipPath
       clipPathUnits="userSpaceOnUse"
       id="clipPath7">
      <path
         d="m 33.894,28.457 v 1.292 h -8.831 v -1.292 z m 5.169,-2.508 v 1.292 h -14 v -1.292 z m 0,-2.538 v 1.292 h -14 v -1.292 z"
         style="display:block;fill:#d9dee3"
         id="path7" />
    </clipPath>
    <inkscape:path-effect
       effect="powerclip"
       id="path-effect7"
       is_visible="true"
       lpeversion="1"
       inverse="true"
       flatten="false"
       hide_clip="false"
       message="" />
    <linearGradient
       id="linearGradient1"
       inkscape:collect="always">
      <stop
         style="stop-color:#d8dee9;stop-opacity:1;"
         offset="0"
         id="stop1" />
      <stop
         style="stop-color:#eceff4;stop-opacity:1;"
         offset="1"
         id="stop2-0" />
    </linearGradient>
    <linearGradient
       inkscape:collect="always"
       xlink:href="#linearGradient1"
       id="linearGradient5"
       x1="37.830982"
       y1="26.034248"
       x2="20.853935"
       y2="19.901464"
       gradientUnits="userSpaceOnUse" />
  </defs>
  <circle
     cx="32.516094"
     cy="31.877844"
     r="0"
     fill="url(#b)"
     stroke-width="1.5715"
     id="circle41"
     style="fill:url(#b)" />
  <g
     aria-label="GZ"
     transform="matrix(1.2212657,0,0,0.81882264,0.4960938,-0.1661539)"
     id="text93"
     style="font-weight:bold;font-size:11.5263px;line-height:1.25;font-family:sans-serif;-inkscape-font-specification:'sans-serif Bold';fill:#f2f2f2;stroke-width:0.288159" />
  <g
     id="g877"
     transform="matrix(1.1,0,0,1.1,-3.1845928,-3.2065454)">
    <rect
       x="13.256583"
       y="7.9866519"
       width="37.45882"
       height="48.038597"
       rx="7.9658151"
       ry="9.6898966"
       fill="url(#linearGradient862)"
       stroke-width="3.0541"
       id="rect35-7-3"
       style="fill:#414141;fill-opacity:1;stroke:#dfdfdf;stroke-width:2.27273;stroke-dasharray:none;stroke-opacity:1" />
    <path
       id="path6"
       style="fill:#dfdfdf;fill-opacity:1;stroke:none;stroke-width:0.144374;stroke-opacity:1"
       d="m 32.259348,22.476683 c -0.482898,0.004 -0.967358,0.02701 -1.222917,0.06623 -1.352276,0.207601 -2.506275,0.612785 -3.595719,1.263682 -0.731395,0.436978 -1.1984,0.805563 -1.856459,1.464106 -0.825619,0.826226 -1.303509,1.483991 -1.810598,2.491695 -0.134393,0.267072 -0.244583,0.498648 -0.244583,0.514645 0,0.01598 0.806568,0.02468 1.791914,0.01953 l 1.791067,-0.0094 0.148618,-0.242885 c 0.526255,-0.861336 1.350411,-1.712964 2.191911,-2.265795 1.769365,-1.162402 3.968366,-1.483611 6.028816,-0.880672 0.05293,0.01549 0.06038,-0.04405 0.07219,-0.552011 0.01508,-0.648271 0.06242,-0.802805 0.31592,-1.031839 L 36.006236,23.190834 35.6504,23.058352 c -0.653511,-0.241677 -1.406412,-0.426207 -2.177473,-0.535028 -0.249163,-0.03517 -0.730678,-0.05061 -1.213577,-0.0467 z m 5.667038,1.069204 c -0.12919,5.26e-4 -0.275698,0.0019 -0.443308,0.0034 l -1.171114,0.01019 -0.09766,0.09002 c -0.188538,0.174048 -0.196696,0.234415 -0.194479,1.397863 0.0023,1.191773 0.01463,1.275424 0.210615,1.407205 0.121563,0.08172 0.133352,0.08238 1.312088,0.08238 1.158771,0 1.191525,-0.0017 1.297652,-0.07728 0.198651,-0.141453 0.208916,-0.21161 0.208916,-1.408055 0,-1.024709 -0.0045,-1.100097 -0.07389,-1.243299 -0.113473,-0.234388 -0.144497,-0.266011 -1.048822,-0.262403 z m 1.610175,2.214841 -0.02463,0.298087 c -0.03843,0.463603 -0.219849,0.741493 -0.583433,0.893408 l -0.13588,0.0569 0.168152,0.206367 c 0.50792,0.625507 1.01298,1.541714 1.260283,2.286178 0.386988,1.16496 0.474017,2.482429 0.242037,3.66366 l -0.06539,0.329508 0.454349,0.01615 c 0.377931,0.0131 0.481814,0.02956 0.625047,0.09851 0.09455,0.04551 0.181119,0.09833 0.192779,0.117197 0.0351,0.05681 0.04313,0.02676 0.109553,-0.422925 0.07985,-0.540474 0.09063,-1.954569 0.01868,-2.471314 -0.16358,-1.174816 -0.506227,-2.263985 -1.021646,-3.248377 -0.252083,-0.481451 -0.72828,-1.207067 -1.030139,-1.570261 z m -16.602813,3.031818 -0.155412,0.08322 c -0.238936,0.127578 -0.428238,0.318297 -0.538423,0.542669 l -0.100213,0.204669 -0.01019,2.30656 c -0.01113,2.554685 -0.01237,2.538155 0.219106,2.843285 0.130673,0.172247 0.405187,0.373101 0.580037,0.423775 0.06224,0.01805 1.155046,0.03389 2.428003,0.03567 2.534068,0.0036 2.459097,0.0091 2.766852,-0.212312 0.214606,-0.15442 0.389466,-0.427303 0.445854,-0.696385 0.0355,-0.16937 0.04784,-0.736328 0.0484,-2.303162 8.02e-4,-2.132833 -0.01289,-2.374928 -0.144371,-2.63267 -0.09269,-0.181685 -0.334358,-0.412826 -0.534177,-0.511249 l -0.169002,-0.08408 h -2.41866 z m 16.791347,5.180418 c -1.503682,-8.91e-4 -1.55291,0.0044 -1.752001,0.190231 -0.187118,0.174717 -0.186833,0.169496 -0.186833,1.739261 0,1.576412 0.0032,1.609439 0.19023,1.781724 0.0503,0.04636 0.153822,0.106523 0.230147,0.134181 0.111298,0.04036 0.417516,0.04908 1.546481,0.04246 1.591361,-0.0093 1.594821,-0.01025 1.780875,-0.291291 l 0.09596,-0.145222 0.01104,-1.428438 c 0.0072,-0.930289 -0.0022,-1.4734 -0.02718,-1.55837 -0.05358,-0.183215 -0.169648,-0.318597 -0.341397,-0.396599 -0.135094,-0.06136 -0.262779,-0.06719 -1.547333,-0.06794 z M 25.450922,35.70543 c -1.057084,-5.26e-4 -1.92185,0.01221 -1.92185,0.02803 0,0.0158 0.110191,0.247575 0.244583,0.514645 0.280544,0.557504 0.578581,1.040941 0.951159,1.542236 0.333639,0.4489 1.353488,1.4678 1.810598,1.8089 1.45214,1.083603 3.10001,1.729884 4.879783,1.914207 0.444166,0.04599 1.76142,0.01698 2.202102,-0.0484 2.096629,-0.311136 3.857904,-1.177207 5.340926,-2.627576 l 0.506152,-0.495111 -0.560504,-0.0017 c -0.638602,-0.0014 -0.891834,-0.05007 -1.136295,-0.21826 -0.08637,-0.05942 -0.193271,-0.160578 -0.23779,-0.22505 -0.04451,-0.06447 -0.08537,-0.123448 -0.09087,-0.130785 -0.0055,-0.0074 -0.11328,0.05194 -0.239487,0.131633 -2.266438,1.43139 -5.276107,1.433734 -7.579546,0.005 -0.802599,-0.497801 -1.633395,-1.28448 -2.120574,-2.008485 l -0.126537,-0.188533 z" />
    <path
       style="color:#4d4d4d;clip-rule:nonzero;display:inline;overflow:visible;visibility:visible;isolation:auto;mix-blend-mode:normal;color-interpolation:sRGB;color-interpolation-filters:linearRGB;solid-color:#000000;solid-opacity:1;fill:#dfdfdf;fill-opacity:1;fill-rule:nonzero;stroke-width:0.990001;stroke-linecap:butt;stroke-linejoin:miter;stroke-miterlimit:4;stroke-dasharray:none;stroke-dashoffset:0;stroke-opacity:1;color-rendering:auto;image-rendering:auto;shape-rendering:auto;text-rendering:auto;enable-background:accumulate;opacity:0"
       id="path31"
       d="m 35.945994,20.12595 -3.96,4.455 -1.2474,1.485 h 3.2274 v 0.99 h -7.920001 v 10.890003 h -3.20562 l 1.225621,1.484996 3.96,4.455001 3.96,-4.455001 1.2474,-1.484996 h -3.2274 v -0.99 h 7.920005 V 26.06595 h 3.205614 l -1.225618,-1.485 z m 0,1.48896 3.075931,3.46104 h -2.085932 v 10.890006 h -6.929999 v -1.980004 h 4.95 V 25.07595 h -2.08593 z m -8.910001,6.431042 h 6.930001 v 1.98 h -4.95 v 8.91 h 2.08593 l -3.07593,3.461037 -3.075931,-3.461037 h 2.08593 v -0.989999 z m 2.970001,2.97 h 3.96 v 1.98 h -3.96 z"
       fill="#ffffff"
       opacity="0.75" />
    <g
       transform="matrix(0.52960909,0,0,0.52960909,19.275358,20.354587)"
       id="g5"
       style="fill:#dfdfdf;fill-opacity:1" />
  </g>
</svg>
