<?xml version="1.0" encoding="UTF-8" standalone="no"?>
<svg
   width="64"
   height="64"
   version="1.1"
   id="svg73"
   sodipodi:docname="application-vnd.rn-realmedia.svg"
   inkscape:version="1.4.2 (ebf0e940d0, 2025-05-08)"
   xmlns:inkscape="http://www.inkscape.org/namespaces/inkscape"
   xmlns:sodipodi="http://sodipodi.sourceforge.net/DTD/sodipodi-0.dtd"
   xmlns:xlink="http://www.w3.org/1999/xlink"
   xmlns="http://www.w3.org/2000/svg"
   xmlns:svg="http://www.w3.org/2000/svg"
   xmlns:rdf="http://www.w3.org/1999/02/22-rdf-syntax-ns#"
   xmlns:cc="http://creativecommons.org/ns#"
   xmlns:dc="http://purl.org/dc/elements/1.1/">
  <metadata
     id="metadata77">
    <rdf:RDF>
      <cc:Work
         rdf:about="">
        <dc:format>image/svg+xml</dc:format>
        <dc:type
           rdf:resource="http://purl.org/dc/dcmitype/StillImage" />
      </cc:Work>
    </rdf:RDF>
  </metadata>
  <sodipodi:namedview
     pagecolor="#f5f7fa"
     bordercolor="#666666"
     borderopacity="1"
     objecttolerance="10"
     gridtolerance="10"
     guidetolerance="10"
     inkscape:pageopacity="0"
     inkscape:pageshadow="2"
     inkscape:window-width="1377"
     inkscape:window-height="886"
     id="namedview75"
     showgrid="false"
     inkscape:zoom="4.4470387"
     inkscape:cx="48.234345"
     inkscape:cy="14.054296"
     inkscape:window-x="119"
     inkscape:window-y="32"
     inkscape:window-maximized="0"
     inkscape:current-layer="g877"
     inkscape:document-rotation="0"
     inkscape:pagecheckerboard="0"
     inkscape:showpageshadow="2"
     inkscape:deskcolor="#d1d1d1" />
  <defs
     id="defs29">
    <linearGradient
       id="b"
       x1="399.57"
       x2="399.57"
       y1="545.8"
       y2="517.8"
       gradientTransform="matrix(2.1429,0,0,2.1429,-825.86391,-1107.6662)"
       gradientUnits="userSpaceOnUse">
      <stop
         stop-color="#3889e9"
         offset="0"
         id="stop2" />
      <stop
         stop-color="#5ea5fb"
         offset="1"
         id="stop4" />
    </linearGradient>
    <linearGradient
       id="d"
       x2="1"
       gradientTransform="matrix(14.905727,-4.7106182,4.7106182,14.905727,322.04962,998.26962)"
       gradientUnits="userSpaceOnUse">
      <stop
         stop-color="#fafafa"
         offset="0"
         id="stop7" />
      <stop
         stop-color="#aaa"
         offset="1"
         id="stop8" />
    </linearGradient>
    <linearGradient
       id="e"
       x2="1"
       gradientTransform="matrix(21.439909,0,0,21.439909,26.63554,1159.7788)"
       gradientUnits="userSpaceOnUse">
      <stop
         stop-color="#f0f0f0"
         offset="0"
         id="stop9" />
      <stop
         stop-color="#b7f1ff"
         offset="1"
         id="stop10" />
    </linearGradient>
    <linearGradient
       id="_Linear2"
       x2="1"
       gradientTransform="matrix(-0.33662128,-17.588561,17.588561,-0.33662128,289.63742,32.316102)"
       gradientUnits="userSpaceOnUse">
      <stop
         style="stop-color:#fefffe"
         offset="0"
         id="stop5" />
      <stop
         style="stop-color:#f1f1f0"
         offset="1"
         id="stop6" />
    </linearGradient>
    <clipPath
       clipPathUnits="userSpaceOnUse"
       id="clipPath7">
      <path
         d="m 33.894,28.457 v 1.292 h -8.831 v -1.292 z m 5.169,-2.508 v 1.292 h -14 v -1.292 z m 0,-2.538 v 1.292 h -14 v -1.292 z"
         style="display:block;fill:#d9dee3"
         id="path7" />
    </clipPath>
    <inkscape:path-effect
       effect="powerclip"
       id="path-effect7"
       is_visible="true"
       lpeversion="1"
       inverse="true"
       flatten="false"
       hide_clip="false"
       message="" />
    <linearGradient
       id="linearGradient1"
       inkscape:collect="always">
      <stop
         style="stop-color:#d8dee9;stop-opacity:1;"
         offset="0"
         id="stop1" />
      <stop
         style="stop-color:#eceff4;stop-opacity:1;"
         offset="1"
         id="stop2-0" />
    </linearGradient>
    <linearGradient
       inkscape:collect="always"
       xlink:href="#linearGradient1"
       id="linearGradient5"
       x1="37.830982"
       y1="26.034248"
       x2="20.853935"
       y2="19.901464"
       gradientUnits="userSpaceOnUse" />
  </defs>
  <circle
     cx="32.516094"
     cy="31.877844"
     r="0"
     fill="url(#b)"
     stroke-width="1.5715"
     id="circle41"
     style="fill:url(#b)" />
  <g
     aria-label="GZ"
     transform="matrix(1.2212657,0,0,0.81882264,0.4960938,-0.1661539)"
     id="text93"
     style="font-weight:bold;font-size:11.5263px;line-height:1.25;font-family:sans-serif;-inkscape-font-specification:'sans-serif Bold';fill:#f2f2f2;stroke-width:0.288159" />
  <g
     id="g877"
     transform="matrix(1.1,0,0,1.1,-3.1845928,-3.2065454)">
    <rect
       x="13.256583"
       y="7.9866519"
       width="37.45882"
       height="48.038597"
       rx="7.9658151"
       ry="9.6898966"
       fill="url(#linearGradient862)"
       stroke-width="3.0541"
       id="rect35-7-3"
       style="fill:#414141;fill-opacity:1;stroke:#dfdfdf;stroke-width:2.27273;stroke-dasharray:none;stroke-opacity:1" />
    <g
       id="g12"
       style="clip-rule:evenodd;fill:#dfdfdf;fill-opacity:1;fill-rule:evenodd;stroke:none;stroke-linejoin:round;stroke-miterlimit:2;stroke-opacity:1"
       transform="matrix(0.73636364,0,0,0.73636364,9.8950694,11.387609)">
      <path
         d="m 16.415,25.642 c -0.062,0 -0.078,-0.031 -0.047,-0.078 l 0.327,-0.42 c 0.032,-0.047 0.109,-0.078 0.172,-0.078 h 5.562 c 0.062,0 0.078,0.047 0.047,0.093 l -0.265,0.405 c -0.031,0.047 -0.109,0.094 -0.156,0.094 z"
         style="fill:#dfdfdf;fill-opacity:1;fill-rule:nonzero;stroke:none;stroke-opacity:1"
         id="path7-9" />
      <path
         d="m 14.062,27.076 c -0.062,0 -0.078,-0.032 -0.046,-0.078 l 0.327,-0.421 c 0.031,-0.047 0.109,-0.078 0.171,-0.078 h 7.105 c 0.062,0 0.093,0.047 0.078,0.094 l -0.125,0.374 c -0.016,0.062 -0.078,0.093 -0.14,0.093 z"
         style="fill:#dfdfdf;fill-opacity:1;fill-rule:nonzero;stroke:none;stroke-opacity:1"
         id="path8" />
      <path
         d="m 17.833,28.509 c -0.063,0 -0.078,-0.047 -0.047,-0.093 l 0.218,-0.39 c 0.031,-0.047 0.094,-0.093 0.156,-0.093 h 3.116 c 0.062,0 0.093,0.046 0.093,0.109 l -0.031,0.374 c 0,0.062 -0.062,0.109 -0.109,0.109 z"
         style="fill:#dfdfdf;fill-opacity:1;fill-rule:nonzero;stroke:none;stroke-opacity:1"
         id="path9" />
      <path
         d="m 34.005,25.362 c -0.981,0.249 -1.651,0.436 -2.617,0.685 -0.234,0.063 -0.25,0.078 -0.452,-0.155 -0.234,-0.265 -0.405,-0.437 -0.733,-0.593 -0.981,-0.482 -1.931,-0.342 -2.82,0.234 -1.059,0.686 -1.604,1.698 -1.589,2.96 0.016,1.247 0.873,2.275 2.104,2.447 1.059,0.14 1.947,-0.234 2.648,-1.029 0.14,-0.171 0.265,-0.358 0.421,-0.576 H 27.96 c -0.327,0 -0.405,-0.203 -0.296,-0.468 0.202,-0.483 0.576,-1.293 0.795,-1.698 0.046,-0.093 0.155,-0.249 0.389,-0.249 h 5.671 c -0.031,0.421 -0.031,0.841 -0.093,1.262 -0.172,1.122 -0.592,2.15 -1.278,3.054 -1.122,1.48 -2.586,2.399 -4.44,2.648 -1.527,0.203 -2.945,-0.093 -4.191,-1.028 -1.153,-0.873 -1.808,-2.026 -1.979,-3.459 -0.203,-1.698 0.296,-3.225 1.324,-4.565 1.107,-1.449 2.571,-2.368 4.363,-2.695 1.464,-0.265 2.867,-0.094 4.129,0.763 0.825,0.545 1.417,1.293 1.807,2.197 0.093,0.14 0.031,0.218 -0.156,0.265 z"
         style="fill:#dfdfdf;fill-opacity:1;fill-rule:nonzero;stroke:none;stroke-opacity:1"
         id="path10" />
      <path
         d="m 39.162,33.978 c -1.418,-0.031 -2.711,-0.437 -3.801,-1.371 -0.92,-0.795 -1.496,-1.808 -1.683,-3.007 -0.281,-1.761 0.202,-3.319 1.262,-4.706 1.137,-1.495 2.508,-2.274 4.362,-2.602 1.59,-0.28 3.085,-0.124 4.441,0.795 1.231,0.841 1.994,1.979 2.197,3.474 0.264,2.104 -0.343,3.818 -1.792,5.282 -1.028,1.044 -2.29,1.698 -3.739,1.994 -0.421,0.078 -0.842,0.094 -1.247,0.141 z m 3.708,-6.295 c -0.015,-0.202 -0.015,-0.358 -0.046,-0.514 -0.281,-1.542 -1.699,-2.415 -3.179,-2.072 -1.449,0.327 -2.384,1.246 -2.726,2.711 -0.281,1.215 0.311,2.446 1.433,2.945 0.857,0.374 1.714,0.327 2.54,-0.094 1.23,-0.639 1.9,-1.636 1.978,-2.976 z"
         style="fill:#dfdfdf;fill-opacity:1;fill-rule:nonzero;stroke:none;stroke-opacity:1"
         id="path11" />
    </g>
    <path
       style="color:#4d4d4d;clip-rule:nonzero;display:inline;overflow:visible;visibility:visible;isolation:auto;mix-blend-mode:normal;color-interpolation:sRGB;color-interpolation-filters:linearRGB;solid-color:#000000;solid-opacity:1;fill:#dfdfdf;fill-opacity:1;fill-rule:nonzero;stroke-width:0.990001;stroke-linecap:butt;stroke-linejoin:miter;stroke-miterlimit:4;stroke-dasharray:none;stroke-dashoffset:0;stroke-opacity:1;color-rendering:auto;image-rendering:auto;shape-rendering:auto;text-rendering:auto;enable-background:accumulate;opacity:0"
       id="path31"
       d="m 35.945994,20.12595 -3.96,4.455 -1.2474,1.485 h 3.2274 v 0.99 h -7.920001 v 10.890003 h -3.20562 l 1.225621,1.484996 3.96,4.455001 3.96,-4.455001 1.2474,-1.484996 h -3.2274 v -0.99 h 7.920005 V 26.06595 h 3.205614 l -1.225618,-1.485 z m 0,1.48896 3.075931,3.46104 h -2.085932 v 10.890006 h -6.929999 v -1.980004 h 4.95 V 25.07595 h -2.08593 z m -8.910001,6.431042 h 6.930001 v 1.98 h -4.95 v 8.91 h 2.08593 l -3.07593,3.461037 -3.075931,-3.461037 h 2.08593 v -0.989999 z m 2.970001,2.97 h 3.96 v 1.98 h -3.96 z"
       fill="#ffffff"
       opacity="0.75" />
    <g
       transform="matrix(0.52960909,0,0,0.52960909,19.275358,20.354587)"
       id="g5"
       style="fill:#dfdfdf;fill-opacity:1" />
  </g>
</svg>
