<?xml version="1.0" encoding="UTF-8" standalone="no"?>
<svg
   width="64"
   height="64"
   version="1.1"
   id="svg73"
   sodipodi:docname="application-x-st-disk-image.svg"
   inkscape:version="1.3.2 (091e20ef0f, 2023-11-25)"
   xmlns:inkscape="http://www.inkscape.org/namespaces/inkscape"
   xmlns:sodipodi="http://sodipodi.sourceforge.net/DTD/sodipodi-0.dtd"
   xmlns="http://www.w3.org/2000/svg"
   xmlns:svg="http://www.w3.org/2000/svg"
   xmlns:rdf="http://www.w3.org/1999/02/22-rdf-syntax-ns#"
   xmlns:cc="http://creativecommons.org/ns#"
   xmlns:dc="http://purl.org/dc/elements/1.1/">
  <metadata
     id="metadata77">
    <rdf:RDF>
      <cc:Work
         rdf:about="">
        <dc:format>image/svg+xml</dc:format>
        <dc:type
           rdf:resource="http://purl.org/dc/dcmitype/StillImage" />
      </cc:Work>
    </rdf:RDF>
  </metadata>
  <sodipodi:namedview
     pagecolor="#f5f7fa"
     bordercolor="#666666"
     borderopacity="1"
     objecttolerance="10"
     gridtolerance="10"
     guidetolerance="10"
     inkscape:pageopacity="0"
     inkscape:pageshadow="2"
     inkscape:window-width="1377"
     inkscape:window-height="886"
     id="namedview75"
     showgrid="false"
     inkscape:zoom="4.4470387"
     inkscape:cx="47.897042"
     inkscape:cy="14.054296"
     inkscape:window-x="119"
     inkscape:window-y="32"
     inkscape:window-maximized="0"
     inkscape:current-layer="g877"
     inkscape:document-rotation="0"
     inkscape:pagecheckerboard="0"
     inkscape:showpageshadow="2"
     inkscape:deskcolor="#d1d1d1" />
  <defs
     id="defs29">
    <linearGradient
       id="b"
       x1="399.57"
       x2="399.57"
       y1="545.8"
       y2="517.8"
       gradientTransform="matrix(2.1429,0,0,2.1429,-825.86391,-1107.6662)"
       gradientUnits="userSpaceOnUse">
      <stop
         stop-color="#3889e9"
         offset="0"
         id="stop2" />
      <stop
         stop-color="#5ea5fb"
         offset="1"
         id="stop4" />
    </linearGradient>
    <linearGradient
       id="d"
       x2="1"
       gradientTransform="matrix(14.905727,-4.7106182,4.7106182,14.905727,322.04962,998.26962)"
       gradientUnits="userSpaceOnUse">
      <stop
         stop-color="#fafafa"
         offset="0"
         id="stop7" />
      <stop
         stop-color="#aaa"
         offset="1"
         id="stop8" />
    </linearGradient>
    <linearGradient
       id="e"
       x2="1"
       gradientTransform="matrix(21.439909,0,0,21.439909,26.63554,1159.7788)"
       gradientUnits="userSpaceOnUse">
      <stop
         stop-color="#f0f0f0"
         offset="0"
         id="stop9" />
      <stop
         stop-color="#b7f1ff"
         offset="1"
         id="stop10" />
    </linearGradient>
    <linearGradient
       id="_Linear2"
       x2="1"
       gradientTransform="matrix(-0.33662128,-17.588561,17.588561,-0.33662128,289.63742,32.316102)"
       gradientUnits="userSpaceOnUse">
      <stop
         style="stop-color:#fefffe"
         offset="0"
         id="stop5" />
      <stop
         style="stop-color:#f1f1f0"
         offset="1"
         id="stop6" />
    </linearGradient>
    <clipPath
       clipPathUnits="userSpaceOnUse"
       id="clipPath7">
      <path
         d="m 33.894,28.457 v 1.292 h -8.831 v -1.292 z m 5.169,-2.508 v 1.292 h -14 v -1.292 z m 0,-2.538 v 1.292 h -14 v -1.292 z"
         style="display:block;fill:#d9dee3"
         id="path7" />
    </clipPath>
    <inkscape:path-effect
       effect="powerclip"
       id="path-effect7"
       is_visible="true"
       lpeversion="1"
       inverse="true"
       flatten="false"
       hide_clip="false"
       message="Use fill-rule evenodd on &lt;b&gt;fill and stroke&lt;/b&gt; dialog if no flatten result after convert clip to paths." />
  </defs>
  <circle
     cx="32.516094"
     cy="31.877844"
     r="0"
     fill="url(#b)"
     stroke-width="1.5715"
     id="circle41"
     style="fill:url(#b)" />
  <g
     aria-label="GZ"
     transform="matrix(1.2212657,0,0,0.81882264,0.4960938,-0.1661539)"
     id="text93"
     style="font-weight:bold;font-size:11.5263px;line-height:1.25;font-family:sans-serif;-inkscape-font-specification:'sans-serif Bold';fill:#f2f2f2;stroke-width:0.288159" />
  <g
     id="g877"
     transform="matrix(1.1,0,0,1.1,-3.1845928,-3.2065454)">
    <rect
       x="13.389396"
       y="8.0488043"
       width="37.45882"
       height="48.038597"
       rx="7.9658151"
       ry="9.6898966"
       fill="url(#linearGradient862)"
       stroke-width="3.0541"
       id="rect35-7-3"
       style="fill:#414141;fill-opacity:1;stroke:#dfdfdf;stroke-width:2.27272727;stroke-dasharray:none;stroke-opacity:1" />
    <path
       style="fill:#dfdfdf;fill-opacity:1;stroke:none;stroke-width:0.707347;stroke-dasharray:none;stroke-opacity:0.3"
       d="m 25.65823,43.677299 c 0,0 1.222328,0.677381 2.849402,0.916406 0.658918,0.09682 3.165977,0.435123 5.088212,0.426271 0,0 2.341103,0.0024 3.633375,-0.21311 1.352193,-0.226275 2.118169,-0.515059 2.54456,-1.091347 0.01138,-0.137378 0.205774,-0.585307 -0.31983,-1.01724 -1.343766,-1.104322 -3.080883,-1.406566 -6.455099,-2.350649 -3.731232,-1.105115 -4.903493,-2.16342 -5.460659,-2.929159 -0.528142,-0.76756 0.156385,-2.361627 3.162956,-3.143602 1.522271,-0.436402 6.876821,-0.66276 6.876821,-0.66276 -1.62662,-1.521277 -4.365295,-4.098803 -4.989447,-4.678003 -0.547439,-0.508008 -1.429656,-1.287596 -1.524433,-1.984262 -0.12792,-0.678161 0.77821,-1.004693 1.25798,-1.042363 1.545741,-0.125582 3.656621,0.356085 5.532828,0.795626 0.943115,0.220948 1.108693,0.188387 1.108693,0.188387 1.343195,0.07536 2.654897,-1.021681 2.601577,-2.767352 -0.01067,-1.770753 -1.780458,-3.190711 -3.443759,-3.25271 -1.682638,-0.0085 -5.669842,-0.0085 -5.669842,-0.0085 4.498802,1.092607 5.477889,1.643672 5.712557,2.281653 0.138956,0.376965 -0.231261,0.751513 -1.470664,0.678376 -1.349916,-0.07974 -4.115816,-0.464751 -4.115816,-0.464751 -2.632617,-0.477209 -4.238833,-0.929327 -5.03853,0.301408 -0.522355,0.804056 0.07464,1.78337 0.309161,2.36096 1.044729,2.147585 2.623492,3.620952 3.769838,4.659246 0.431344,0.390693 1.74828,1.25586 1.74828,1.25586 -4.093601,-1.318653 -7.583457,-0.577701 -9.651619,0.70328 -2.377331,1.657758 -1.970646,4.455131 1.801596,7.070528 2.228099,1.544764 3.565156,2.286748 7.213115,2.814416 2.132295,0.400529 2.564045,0.564413 2.547869,0.773499 -0.02288,0.294377 -2.637863,0.405923 -3.325237,0.461774 -1.748852,0.142108 -6.271807,-0.08185 -6.294363,-0.08185 z"
       id="path10" />
  </g>
</svg>
