<?xml version="1.0" encoding="UTF-8" standalone="no"?>
<svg
   width="64"
   height="64"
   version="1.1"
   id="svg73"
   sodipodi:docname="application-blank.svg"
   inkscape:version="1.3.2 (091e20ef0f, 2023-11-25)"
   xmlns:inkscape="http://www.inkscape.org/namespaces/inkscape"
   xmlns:sodipodi="http://sodipodi.sourceforge.net/DTD/sodipodi-0.dtd"
   xmlns="http://www.w3.org/2000/svg"
   xmlns:svg="http://www.w3.org/2000/svg"
   xmlns:rdf="http://www.w3.org/1999/02/22-rdf-syntax-ns#"
   xmlns:cc="http://creativecommons.org/ns#"
   xmlns:dc="http://purl.org/dc/elements/1.1/">
  <metadata
     id="metadata77">
    <rdf:RDF>
      <cc:Work
         rdf:about="">
        <dc:format>image/svg+xml</dc:format>
        <dc:type
           rdf:resource="http://purl.org/dc/dcmitype/StillImage" />
      </cc:Work>
    </rdf:RDF>
  </metadata>
  <sodipodi:namedview
     pagecolor="#f5f7fa"
     bordercolor="#666666"
     borderopacity="1"
     objecttolerance="10"
     gridtolerance="10"
     guidetolerance="10"
     inkscape:pageopacity="0"
     inkscape:pageshadow="2"
     inkscape:window-width="1377"
     inkscape:window-height="886"
     id="namedview75"
     showgrid="false"
     inkscape:zoom="4.4470387"
     inkscape:cx="47.784608"
     inkscape:cy="14.054296"
     inkscape:window-x="119"
     inkscape:window-y="32"
     inkscape:window-maximized="0"
     inkscape:current-layer="g877"
     inkscape:document-rotation="0"
     inkscape:pagecheckerboard="0"
     inkscape:showpageshadow="2"
     inkscape:deskcolor="#d1d1d1" />
  <defs
     id="defs29">
    <linearGradient
       id="b"
       x1="399.57"
       x2="399.57"
       y1="545.8"
       y2="517.8"
       gradientTransform="matrix(2.1429,0,0,2.1429,-825.86391,-1107.6662)"
       gradientUnits="userSpaceOnUse">
      <stop
         stop-color="#3889e9"
         offset="0"
         id="stop2" />
      <stop
         stop-color="#5ea5fb"
         offset="1"
         id="stop4" />
    </linearGradient>
    <linearGradient
       id="d"
       x2="1"
       gradientTransform="matrix(14.905727,-4.7106182,4.7106182,14.905727,322.04962,998.26962)"
       gradientUnits="userSpaceOnUse">
      <stop
         stop-color="#fafafa"
         offset="0"
         id="stop7" />
      <stop
         stop-color="#aaa"
         offset="1"
         id="stop8" />
    </linearGradient>
    <linearGradient
       id="e"
       x2="1"
       gradientTransform="matrix(21.439909,0,0,21.439909,26.63554,1159.7788)"
       gradientUnits="userSpaceOnUse">
      <stop
         stop-color="#f0f0f0"
         offset="0"
         id="stop9" />
      <stop
         stop-color="#b7f1ff"
         offset="1"
         id="stop10" />
    </linearGradient>
  </defs>
  <circle
     cx="32.516094"
     cy="31.877844"
     r="0"
     fill="url(#b)"
     stroke-width="1.5715"
     id="circle41"
     style="fill:url(#b)" />
  <g
     aria-label="GZ"
     transform="matrix(1.2212657,0,0,0.81882264,0.4960938,-0.1661539)"
     id="text93"
     style="font-weight:bold;font-size:11.5263px;line-height:1.25;font-family:sans-serif;-inkscape-font-specification:'sans-serif Bold';fill:#f2f2f2;stroke-width:0.288159" />
  <g
     id="g877"
     transform="matrix(1.1,0,0,1.1,-3.1845928,-3.2065454)">
    <rect
       x="13.389396"
       y="8.0488043"
       width="37.45882"
       height="48.038597"
       rx="7.9658151"
       ry="9.6898966"
       fill="url(#linearGradient862)"
       stroke-width="3.0541"
       id="rect35-7-3"
       style="fill:#414141;fill-opacity:1;stroke:#dfdfdf;stroke-width:2.27272727;stroke-dasharray:none;stroke-opacity:1" />
    <path
       d="m 29.426903,35.51686 c 0.192727,0.711818 0.171818,1.375455 -0.02727,1.976364 -0.02182,0.06727 -0.04636,0.133636 -0.07273,0.198182 -0.02636,0.06545 -0.05546,0.13 -0.08546,0.193636 -0.153636,0.318182 -0.359091,0.615454 -0.610909,0.890909 -0.769091,0.838182 -1.842727,1.155455 -2.303636,0.888182 -0.497273,-0.288182 -0.248182,-1.470909 0.643636,-2.412727 0.958182,-1.012728 2.338182,-1.664546 2.338182,-1.664546 l -0.0027,-0.0045 c 0.03909,-0.02091 0.08,-0.04364 0.120909,-0.06546 z M 40.354176,23.543224 c -0.599091,-2.349091 -4.494546,-3.121818 -8.181819,-1.811818 -2.194545,0.78 -4.57,2.002727 -6.277272,3.600909 -2.030909,1.899091 -2.354546,3.552727 -2.221818,4.243636 0.470909,2.437273 3.810909,4.030909 5.183636,5.212727 v 0.0073 c -0.404546,0.199091 -3.367273,1.699091 -4.060909,3.231818 -0.731818,1.617273 0.116363,2.778182 0.678182,2.934546 1.739091,0.483636 3.524545,-0.386364 4.484545,-1.818182 0.925455,-1.380909 0.848182,-3.164546 0.446364,-4.050909 0.554545,-0.147273 1.201818,-0.212728 2.024545,-0.116364 2.32,0.270909 2.775455,1.72 2.688182,2.326364 -0.08636,0.606363 -0.573636,0.94 -0.736364,1.04 -0.162727,0.100909 -0.211818,0.136363 -0.198181,0.210909 0.01909,0.109091 0.09454,0.104545 0.233636,0.08091 0.190909,-0.03182 1.218182,-0.492727 1.262727,-1.612727 0.05545,-1.420909 -1.306363,-3.010909 -3.718182,-2.969091 -0.992727,0.01727 -1.617272,0.111818 -2.068181,0.28 -0.03364,-0.03818 -0.06727,-0.07636 -0.102728,-0.113637 -1.490909,-1.590909 -4.246363,-2.715454 -4.13,-4.853636 0.04273,-0.778182 0.312728,-2.824545 5.296364,-5.308182 4.081818,-2.033636 7.349091,-1.473636 7.913636,-0.233636 0.807273,1.772727 -1.746363,5.066363 -5.985454,5.541818 -1.614546,0.180909 -2.465455,-0.445455 -2.676364,-0.678182 -0.222727,-0.245454 -0.256364,-0.256363 -0.339091,-0.210909 -0.135454,0.07545 -0.05,0.291818 0,0.420909 0.126364,0.33 0.645455,0.913637 1.530909,1.204546 0.779091,0.255454 2.675455,0.395454 4.968182,-0.490909 2.569091,-0.993637 4.574546,-3.757273 3.985455,-6.067273"
       style="clip-rule:evenodd;fill:#dfdfdf;fill-rule:nonzero;stroke-width:0.909091;stroke-linejoin:round;stroke-miterlimit:2;fill-opacity:1"
       id="path6" />
  </g>
</svg>
