<?xml version="1.0" encoding="UTF-8" standalone="no"?>
<svg
   width="64"
   height="64"
   version="1.1"
   id="svg73"
   sodipodi:docname="application-blank.svg"
   inkscape:version="1.3.2 (091e20ef0f, 2023-11-25)"
   xmlns:inkscape="http://www.inkscape.org/namespaces/inkscape"
   xmlns:sodipodi="http://sodipodi.sourceforge.net/DTD/sodipodi-0.dtd"
   xmlns="http://www.w3.org/2000/svg"
   xmlns:svg="http://www.w3.org/2000/svg"
   xmlns:rdf="http://www.w3.org/1999/02/22-rdf-syntax-ns#"
   xmlns:cc="http://creativecommons.org/ns#"
   xmlns:dc="http://purl.org/dc/elements/1.1/">
  <metadata
     id="metadata77">
    <rdf:RDF>
      <cc:Work
         rdf:about="">
        <dc:format>image/svg+xml</dc:format>
        <dc:type
           rdf:resource="http://purl.org/dc/dcmitype/StillImage" />
      </cc:Work>
    </rdf:RDF>
  </metadata>
  <sodipodi:namedview
     pagecolor="#f5f7fa"
     bordercolor="#666666"
     borderopacity="1"
     objecttolerance="10"
     gridtolerance="10"
     guidetolerance="10"
     inkscape:pageopacity="0"
     inkscape:pageshadow="2"
     inkscape:window-width="1377"
     inkscape:window-height="886"
     id="namedview75"
     showgrid="false"
     inkscape:zoom="4.4470387"
     inkscape:cx="47.784608"
     inkscape:cy="14.054296"
     inkscape:window-x="119"
     inkscape:window-y="32"
     inkscape:window-maximized="0"
     inkscape:current-layer="g877"
     inkscape:document-rotation="0"
     inkscape:pagecheckerboard="0"
     inkscape:showpageshadow="2"
     inkscape:deskcolor="#d1d1d1" />
  <defs
     id="defs29">
    <linearGradient
       id="b"
       x1="399.57"
       x2="399.57"
       y1="545.8"
       y2="517.8"
       gradientTransform="matrix(2.1429,0,0,2.1429,-825.86391,-1107.6662)"
       gradientUnits="userSpaceOnUse">
      <stop
         stop-color="#3889e9"
         offset="0"
         id="stop2" />
      <stop
         stop-color="#5ea5fb"
         offset="1"
         id="stop4" />
    </linearGradient>
    <linearGradient
       id="d"
       x2="1"
       gradientTransform="matrix(14.905727,-4.7106182,4.7106182,14.905727,322.04962,998.26962)"
       gradientUnits="userSpaceOnUse">
      <stop
         stop-color="#fafafa"
         offset="0"
         id="stop7" />
      <stop
         stop-color="#aaa"
         offset="1"
         id="stop8" />
    </linearGradient>
    <linearGradient
       id="e"
       x2="1"
       gradientTransform="matrix(21.439909,0,0,21.439909,26.63554,1159.7788)"
       gradientUnits="userSpaceOnUse">
      <stop
         stop-color="#f0f0f0"
         offset="0"
         id="stop9" />
      <stop
         stop-color="#b7f1ff"
         offset="1"
         id="stop10" />
    </linearGradient>
    <linearGradient
       id="_Linear2"
       x2="1"
       gradientTransform="matrix(-0.33662128,-17.588561,17.588561,-0.33662128,289.63742,32.316102)"
       gradientUnits="userSpaceOnUse">
      <stop
         style="stop-color:#fefffe"
         offset="0"
         id="stop5" />
      <stop
         style="stop-color:#f1f1f0"
         offset="1"
         id="stop6" />
    </linearGradient>
  </defs>
  <circle
     cx="32.516094"
     cy="31.877844"
     r="0"
     fill="url(#b)"
     stroke-width="1.5715"
     id="circle41"
     style="fill:url(#b)" />
  <g
     aria-label="GZ"
     transform="matrix(1.2212657,0,0,0.81882264,0.4960938,-0.1661539)"
     id="text93"
     style="font-weight:bold;font-size:11.5263px;line-height:1.25;font-family:sans-serif;-inkscape-font-specification:'sans-serif Bold';fill:#f2f2f2;stroke-width:0.288159" />
  <g
     id="g877"
     transform="matrix(1.1,0,0,1.1,-3.1845928,-3.2065454)">
    <rect
       x="13.389396"
       y="8.0488043"
       width="37.45882"
       height="48.038597"
       rx="7.9658151"
       ry="9.6898966"
       fill="url(#linearGradient862)"
       stroke-width="3.0541"
       id="rect35-7-3"
       style="fill:#414141;fill-opacity:1;stroke:#dfdfdf;stroke-width:2.27272727;stroke-dasharray:none;stroke-opacity:1" />
    <path
       d="m 38.428721,51.348678 c -0.02727,0 -0.05727,-9.09e-4 -0.09091,-0.0045 -0.03273,-0.0027 -0.06182,-0.0064 -0.08727,-0.01091 v -0.346363 c 0.02273,0.0045 0.04909,0.0082 0.08,0.0091 0.03091,0.0036 0.06,0.0055 0.08727,0.0055 0.05818,0 0.109091,-0.0073 0.154545,-0.02364 0.04727,-0.01455 0.09,-0.03727 0.127273,-0.07 0.03818,-0.03364 0.07091,-0.07636 0.09818,-0.13 0.03091,-0.05273 0.05818,-0.118182 0.08545,-0.194546 l 0.04909,-0.150909 -0.939091,-2.538181 h 0.435455 l 0.71,2.11909 h 0.01 l 0.71,-2.11909 h 0.43 l -0.992728,2.690909 c -0.05455,0.147272 -0.10909,0.269091 -0.163636,0.366363 -0.05545,0.09909 -0.116364,0.178182 -0.183636,0.235455 -0.06546,0.06 -0.140909,0.101818 -0.225455,0.124545 -0.08364,0.02546 -0.180909,0.03727 -0.294545,0.03727 z M 36.112357,48.625042 H 35.71963 c 0.0036,-0.106364 0.03,-0.205455 0.08,-0.298182 0.05091,-0.09182 0.118182,-0.171818 0.204545,-0.24 0.08636,-0.06727 0.186364,-0.12 0.300909,-0.157273 0.116364,-0.03909 0.240909,-0.05818 0.374546,-0.05818 0.15,0 0.285454,0.01909 0.407273,0.05818 0.12,0.03727 0.222727,0.09182 0.31,0.164546 0.08636,0.07091 0.151818,0.156363 0.197272,0.258181 0.04636,0.100909 0.07091,0.213637 0.07091,0.337273 v 1.740909 h -0.388181 v -0.44 h -0.01 c -0.03636,0.07 -0.08182,0.134546 -0.139091,0.192727 -0.05546,0.05546 -0.12,0.105455 -0.19,0.145455 -0.07091,0.04 -0.147273,0.07 -0.230909,0.09182 -0.08091,0.02182 -0.167273,0.03273 -0.255455,0.03273 -0.128182,0 -0.246364,-0.01727 -0.35,-0.05182 -0.105455,-0.03545 -0.196364,-0.08636 -0.271818,-0.150909 -0.07546,-0.06545 -0.133637,-0.143636 -0.173637,-0.234545 -0.04091,-0.09273 -0.06182,-0.195455 -0.06182,-0.308182 0,-0.219091 0.08182,-0.391818 0.242728,-0.515455 0.160909,-0.123636 0.397272,-0.194545 0.708181,-0.214545 l 0.71,-0.04091 v -0.211818 c 0,-0.159091 -0.05,-0.279091 -0.15,-0.362728 -0.09818,-0.08454 -0.242727,-0.127272 -0.430909,-0.127272 -0.07364,0 -0.141818,0.01 -0.204545,0.02909 -0.06273,0.01727 -0.119091,0.04273 -0.17,0.07727 -0.04818,0.03273 -0.08818,0.07273 -0.120909,0.122728 -0.03182,0.04818 -0.05364,0.101818 -0.06636,0.160909 z m -7.429091,1.828181 c -0.18,0 -0.340909,-0.03 -0.485454,-0.09182 -0.142728,-0.06091 -0.263637,-0.147272 -0.367273,-0.258182 -0.101818,-0.112727 -0.179091,-0.24909 -0.234546,-0.407272 -0.05455,-0.16 -0.08182,-0.337273 -0.08182,-0.533637 0,-0.197272 0.02727,-0.375454 0.08182,-0.534545 0.05545,-0.16 0.132728,-0.294546 0.234546,-0.406364 0.103636,-0.112727 0.224545,-0.2 0.367273,-0.259091 0.144545,-0.06091 0.305454,-0.09091 0.485454,-0.09091 0.178182,0 0.339091,0.03 0.481818,0.09091 0.144546,0.05909 0.267273,0.146364 0.369091,0.259091 0.101818,0.111818 0.18,0.246364 0.234546,0.406364 0.05636,0.159091 0.08273,0.337273 0.08273,0.534545 0,0.196364 -0.02636,0.373637 -0.08273,0.533637 -0.05455,0.158182 -0.132728,0.294545 -0.234546,0.407272 -0.101818,0.11091 -0.224545,0.197273 -0.369091,0.258182 -0.142727,0.06182 -0.303636,0.09182 -0.481818,0.09182 z m 6.450909,-0.02273 h -0.390909 v -0.428179 h -0.0073 c -0.08182,0.146364 -0.193636,0.259091 -0.332727,0.335455 -0.14,0.07636 -0.301818,0.115454 -0.487273,0.115454 -0.16,0 -0.307272,-0.03 -0.44,-0.09182 -0.130909,-0.06182 -0.246363,-0.150909 -0.343636,-0.263636 -0.09545,-0.112727 -0.169091,-0.248182 -0.222727,-0.407273 -0.05364,-0.16 -0.08,-0.335454 -0.08,-0.528182 0,-0.192727 0.02636,-0.368181 0.08,-0.527272 0.05364,-0.16 0.126363,-0.295455 0.220909,-0.408182 0.09545,-0.114546 0.209091,-0.2 0.34,-0.261818 0.132727,-0.06364 0.278182,-0.09364 0.435454,-0.09364 0.181819,0 0.342728,0.03727 0.482728,0.112728 0.139091,0.07545 0.248182,0.181818 0.327272,0.322727 h 0.0082 v -1.418182 h 0.41 z M 30.666903,47.89413 v 0.412727 h 0.01 c 0.160909,-0.290909 0.437272,-0.435455 0.828181,-0.435455 0.139091,0 0.265455,0.02182 0.376364,0.06546 0.111818,0.04273 0.206364,0.104545 0.283636,0.185454 0.07909,0.08 0.138182,0.178182 0.18,0.294546 0.04182,0.113636 0.06273,0.243636 0.06273,0.388182 v 1.625454 H 31.99963 v -1.555454 c 0,-0.208182 -0.05364,-0.367273 -0.158182,-0.475455 -0.105455,-0.109091 -0.258182,-0.164545 -0.459091,-0.164545 -0.102727,0 -0.197273,0.01818 -0.283636,0.05182 -0.08455,0.03455 -0.157273,0.08364 -0.219091,0.145454 -0.06,0.06364 -0.105455,0.14 -0.138182,0.229091 -0.03454,0.08909 -0.05,0.188182 -0.05,0.296364 V 50.4305 h -0.41 v -2.536363 z m -6.589091,2.536363 h -0.394546 v -3.394545 h 0.490909 l 1.171818,2.831818 h 0.01818 l 1.170909,-2.831818 h 0.491819 v 3.394545 H 26.632355 V 47.81413 h -0.01727 l -1.080909,2.591818 H 25.175994 L 24.094176,47.81413 h -0.01636 z m 12.46,-0.332727 c 0.103636,0 0.2,-0.01545 0.287272,-0.04727 0.08818,-0.03091 0.163637,-0.07455 0.225455,-0.130909 0.06364,-0.05636 0.114545,-0.123636 0.150909,-0.2 0.03545,-0.07818 0.05364,-0.163636 0.05364,-0.254545 v -0.204546 l -0.662727,0.04273 c -0.191818,0.01273 -0.336364,0.05273 -0.432727,0.121819 -0.09727,0.06818 -0.145455,0.162727 -0.145455,0.285454 0,0.05909 0.01091,0.112727 0.03455,0.16 0.02545,0.04727 0.06091,0.08727 0.105454,0.121818 0.04727,0.03455 0.103637,0.06091 0.167273,0.08 0.06455,0.01727 0.136364,0.02546 0.216364,0.02546 z m -7.854546,-0.0091 c 0.117273,0 0.222727,-0.02091 0.314546,-0.06364 0.09364,-0.04182 0.173636,-0.102728 0.238181,-0.18 0.06546,-0.08 0.114546,-0.178182 0.147273,-0.292728 0.03546,-0.114545 0.05273,-0.244545 0.05273,-0.39 0,-0.145454 -0.01727,-0.276363 -0.05273,-0.39 -0.03273,-0.115454 -0.08182,-0.212727 -0.147273,-0.292727 -0.06454,-0.08 -0.144545,-0.14 -0.238181,-0.18 -0.09182,-0.04273 -0.197273,-0.06455 -0.314546,-0.06455 -0.118182,0 -0.223636,0.02182 -0.318182,0.06455 -0.09182,0.04182 -0.171818,0.102727 -0.237272,0.182727 -0.06455,0.07909 -0.113637,0.174546 -0.148182,0.29 -0.03273,0.113637 -0.04909,0.244546 -0.04909,0.39 0,0.145455 0.01636,0.275455 0.05182,0.39 0.03364,0.114546 0.08364,0.212728 0.148182,0.292728 0.06364,0.07727 0.142727,0.138181 0.234545,0.18 0.09455,0.04273 0.2,0.06364 0.318182,0.06364 z m 5.305455,-1.853636 c -0.111818,0 -0.212728,0.02182 -0.303637,0.06636 -0.09091,0.04364 -0.169091,0.107273 -0.234545,0.188182 -0.06455,0.08 -0.115455,0.177273 -0.150909,0.290909 -0.03455,0.115455 -0.05182,0.242727 -0.05182,0.381818 0,0.140909 0.01727,0.269091 0.05182,0.382728 0.03545,0.112727 0.08636,0.21 0.150909,0.292727 0.06545,0.08 0.143636,0.141818 0.234545,0.185454 0.09091,0.04364 0.191819,0.06546 0.303637,0.06546 0.11,0 0.209091,-0.02182 0.301818,-0.06546 0.09091,-0.04636 0.168182,-0.10909 0.232727,-0.190909 0.06364,-0.08091 0.113637,-0.179091 0.15,-0.291818 0.03636,-0.113636 0.05364,-0.24 0.05364,-0.378182 0,-0.138181 -0.01727,-0.262727 -0.05364,-0.377272 -0.03636,-0.113637 -0.08636,-0.211819 -0.15,-0.292728 -0.06455,-0.08182 -0.141818,-0.144545 -0.232727,-0.188181 -0.09273,-0.04636 -0.191818,-0.06909 -0.301818,-0.06909 z"
       style="clip-rule:evenodd;fill:#dfdfdf;fill-rule:nonzero;stroke-width:0.909091;stroke-linejoin:round;stroke-miterlimit:2;fill-opacity:1"
       id="path2" />
    <path
       d="m 21.968503,24.525668 h -2.185528 c 0,-1.362273 0.495573,-2.49259 1.488191,-3.390217 1.000718,-0.905728 2.268,-1.358592 3.804055,-1.358592 1.622945,0 2.893909,0.4293 3.815836,1.287164 0.921191,0.859336 1.381418,2.052245 1.381418,3.579464 0,0.748145 -0.243,1.472727 -0.731945,2.173745 -0.480109,0.701019 -1.138418,1.224572 -1.972718,1.5714 0.945491,0.298963 1.673754,0.796009 2.185527,1.488191 0.519136,0.692918 0.779809,1.540472 0.779809,2.539718 0,1.544891 -0.503673,2.768727 -1.512491,3.674454 -1.008082,0.905728 -2.318809,1.358592 -3.933654,1.358592 -1.61411,0 -2.929991,-0.436664 -3.945437,-1.311464 -1.008082,-0.874064 -1.512491,-2.027945 -1.512491,-3.460909 h 2.197309 c 0,0.904991 0.295282,1.629573 0.886582,2.173745 0.589827,0.5427 1.382155,0.814419 2.374037,0.814419 1.055209,0 1.862263,-0.2754 2.4219,-0.8262 0.5589,-0.552273 0.838718,-1.343127 0.838718,-2.37551 0,-0.999245 -0.3078,-1.767273 -0.921191,-2.303345 -0.614864,-0.5346 -1.499973,-0.810736 -2.659009,-0.8262 h -1.641355 v -1.784209 h 1.641355 c 1.032382,-0.01546 1.843118,-0.287919 2.434418,-0.815155 0.590564,-0.527972 0.885109,-1.240036 0.885109,-2.1384 0,-2.015427 -1.002927,-3.023508 -3.011727,-3.023508 -0.944755,0 -1.701,0.271717 -2.268,0.814417 -0.5589,0.536073 -0.838718,1.248136 -0.838718,2.1384 z m 22.374409,5.351155 c 0,2.5596 -0.4374,4.462364 -1.311464,5.706082 -0.874064,1.244454 -2.240755,1.866682 -4.099336,1.866682 -1.835019,0 -3.193609,-0.606764 -4.075037,-1.819555 -0.8829,-1.220154 -1.339445,-3.039709 -1.371109,-5.457927 v -2.917473 c 0,-2.528673 0.4374,-4.4064 1.3122,-5.634654 0.873327,-1.228255 2.244437,-1.843119 4.110382,-1.843119 1.851218,0 3.213491,0.594983 4.087555,1.784209 0.874063,1.181127 1.322509,3.008046 1.346809,5.481491 z m -2.185528,-2.9889 c 0,-1.850482 -0.259936,-3.196555 -0.779072,-4.039691 -0.520609,-0.8505 -1.343128,-1.275381 -2.469764,-1.275381 -1.1178,0 -1.932955,0.4212 -2.445464,1.2636 -0.511772,0.843136 -0.775391,2.1384 -0.791591,3.886527 v 3.496254 c 0,1.858582 0.268037,3.233373 0.803373,4.123636 0.544173,0.882164 1.363009,1.32251 2.457246,1.32251 1.079509,0 1.878463,-0.416783 2.3976,-1.251819 0.528709,-0.835036 0.804109,-2.150181 0.827672,-3.945436 z"
       style="clip-rule:evenodd;fill:#dfdfdf;fill-rule:nonzero;stroke-width:0.736364;stroke-linejoin:round;stroke-miterlimit:2;fill-opacity:1"
       id="path3" />
  </g>
</svg>
