<?xml version="1.0" encoding="UTF-8" standalone="no"?>
<svg
   width="64"
   height="64"
   version="1.1"
   id="svg73"
   sodipodi:docname="application-vnd.rn-realmedia.svg"
   inkscape:version="1.4.2 (ebf0e940d0, 2025-05-08)"
   xmlns:inkscape="http://www.inkscape.org/namespaces/inkscape"
   xmlns:sodipodi="http://sodipodi.sourceforge.net/DTD/sodipodi-0.dtd"
   xmlns:xlink="http://www.w3.org/1999/xlink"
   xmlns="http://www.w3.org/2000/svg"
   xmlns:svg="http://www.w3.org/2000/svg"
   xmlns:rdf="http://www.w3.org/1999/02/22-rdf-syntax-ns#"
   xmlns:cc="http://creativecommons.org/ns#"
   xmlns:dc="http://purl.org/dc/elements/1.1/">
  <metadata
     id="metadata77">
    <rdf:RDF>
      <cc:Work
         rdf:about="">
        <dc:format>image/svg+xml</dc:format>
        <dc:type
           rdf:resource="http://purl.org/dc/dcmitype/StillImage" />
      </cc:Work>
    </rdf:RDF>
  </metadata>
  <sodipodi:namedview
     pagecolor="#f5f7fa"
     bordercolor="#666666"
     borderopacity="1"
     objecttolerance="10"
     gridtolerance="10"
     guidetolerance="10"
     inkscape:pageopacity="0"
     inkscape:pageshadow="2"
     inkscape:window-width="1377"
     inkscape:window-height="886"
     id="namedview75"
     showgrid="false"
     inkscape:zoom="4.4470387"
     inkscape:cx="48.234345"
     inkscape:cy="14.054296"
     inkscape:window-x="119"
     inkscape:window-y="32"
     inkscape:window-maximized="0"
     inkscape:current-layer="g877"
     inkscape:document-rotation="0"
     inkscape:pagecheckerboard="0"
     inkscape:showpageshadow="2"
     inkscape:deskcolor="#d1d1d1" />
  <defs
     id="defs29">
    <linearGradient
       id="b"
       x1="399.57"
       x2="399.57"
       y1="545.8"
       y2="517.8"
       gradientTransform="matrix(2.1429,0,0,2.1429,-825.86391,-1107.6662)"
       gradientUnits="userSpaceOnUse">
      <stop
         stop-color="#3889e9"
         offset="0"
         id="stop2" />
      <stop
         stop-color="#5ea5fb"
         offset="1"
         id="stop4" />
    </linearGradient>
    <linearGradient
       id="d"
       x2="1"
       gradientTransform="matrix(14.905727,-4.7106182,4.7106182,14.905727,322.04962,998.26962)"
       gradientUnits="userSpaceOnUse">
      <stop
         stop-color="#fafafa"
         offset="0"
         id="stop7" />
      <stop
         stop-color="#aaa"
         offset="1"
         id="stop8" />
    </linearGradient>
    <linearGradient
       id="e"
       x2="1"
       gradientTransform="matrix(21.439909,0,0,21.439909,26.63554,1159.7788)"
       gradientUnits="userSpaceOnUse">
      <stop
         stop-color="#f0f0f0"
         offset="0"
         id="stop9" />
      <stop
         stop-color="#b7f1ff"
         offset="1"
         id="stop10" />
    </linearGradient>
    <linearGradient
       id="_Linear2"
       x2="1"
       gradientTransform="matrix(-0.33662128,-17.588561,17.588561,-0.33662128,289.63742,32.316102)"
       gradientUnits="userSpaceOnUse">
      <stop
         style="stop-color:#fefffe"
         offset="0"
         id="stop5" />
      <stop
         style="stop-color:#f1f1f0"
         offset="1"
         id="stop6" />
    </linearGradient>
    <clipPath
       clipPathUnits="userSpaceOnUse"
       id="clipPath7">
      <path
         d="m 33.894,28.457 v 1.292 h -8.831 v -1.292 z m 5.169,-2.508 v 1.292 h -14 v -1.292 z m 0,-2.538 v 1.292 h -14 v -1.292 z"
         style="display:block;fill:#d9dee3"
         id="path7" />
    </clipPath>
    <inkscape:path-effect
       effect="powerclip"
       id="path-effect7"
       is_visible="true"
       lpeversion="1"
       inverse="true"
       flatten="false"
       hide_clip="false"
       message="" />
    <linearGradient
       id="linearGradient1"
       inkscape:collect="always">
      <stop
         style="stop-color:#d8dee9;stop-opacity:1;"
         offset="0"
         id="stop1" />
      <stop
         style="stop-color:#eceff4;stop-opacity:1;"
         offset="1"
         id="stop2-0" />
    </linearGradient>
    <linearGradient
       inkscape:collect="always"
       xlink:href="#linearGradient1"
       id="linearGradient5"
       x1="37.830982"
       y1="26.034248"
       x2="20.853935"
       y2="19.901464"
       gradientUnits="userSpaceOnUse" />
  </defs>
  <circle
     cx="32.516094"
     cy="31.877844"
     r="0"
     fill="url(#b)"
     stroke-width="1.5715"
     id="circle41"
     style="fill:url(#b)" />
  <g
     aria-label="GZ"
     transform="matrix(1.2212657,0,0,0.81882264,0.4960938,-0.1661539)"
     id="text93"
     style="font-weight:bold;font-size:11.5263px;line-height:1.25;font-family:sans-serif;-inkscape-font-specification:'sans-serif Bold';fill:#f2f2f2;stroke-width:0.288159" />
  <g
     id="g877"
     transform="matrix(1.1,0,0,1.1,-3.1845928,-3.2065454)">
    <rect
       x="13.256583"
       y="7.9866519"
       width="37.45882"
       height="48.038597"
       rx="7.9658151"
       ry="9.6898966"
       fill="url(#linearGradient862)"
       stroke-width="3.0541"
       id="rect35-7-3"
       style="fill:#414141;fill-opacity:1;stroke:#dfdfdf;stroke-width:2.27273;stroke-dasharray:none;stroke-opacity:1" />
    <path
       d="m 24.717476,41.7389 q -0.530322,0 -0.925463,-0.07277 -0.395141,-0.0624 -0.686298,-0.176776 v -1.663765 q 0.353548,0.09359 0.759087,0.145576 0.40554,0.06239 0.87347,0.06239 0.384743,0 0.769486,-0.103984 0.395141,-0.09359 0.707094,-0.353547 0.322352,-0.259961 0.519923,-0.717493 0.19757,-0.457532 0.19757,-1.164627 V 22.491365 h 1.944511 v 14.994568 q 0,1.091837 -0.311955,1.892518 -0.301553,0.800681 -0.852671,1.320603 -0.54072,0.530322 -1.310205,0.779884 -0.759087,0.259962 -1.684549,0.259962 z m 16.148795,-8.110793 q 0,1.00865 -0.363945,1.809331 -0.353548,0.790282 -1.01905,1.3414 -0.665502,0.551118 -1.622157,0.842275 -0.956658,0.280759 -2.15248,0.280759 -1.154228,0 -2.162878,-0.187173 -0.998251,-0.176776 -1.674151,-0.530321 v -1.850925 q 0.353548,0.166375 0.800681,0.332749 0.457532,0.155978 0.956658,0.28076 0.499125,0.124781 1.029446,0.207967 0.530321,0.07279 1.050244,0.07279 1.663754,0 2.454034,-0.623907 0.800681,-0.623907 0.800681,-1.788533 0,-0.561517 -0.155994,-0.977455 -0.145559,-0.415935 -0.530302,-0.759084 -0.374346,-0.353548 -1.008651,-0.675899 -0.634306,-0.332751 -1.601362,-0.717494 -0.925462,-0.363945 -1.61176,-0.790282 -0.675899,-0.436735 -1.123033,-0.977454 -0.436735,-0.54072 -0.655102,-1.227018 -0.207969,-0.686298 -0.207969,-1.559767 0,-0.915064 0.332749,-1.632558 0.332749,-0.717493 0.93586,-1.20622 0.603111,-0.499126 1.434987,-0.759087 0.842274,-0.259961 1.850924,-0.259961 1.237418,0 2.225269,0.239163 0.987854,0.228765 1.75734,0.592712 l -0.696698,1.622159 q -0.675899,-0.301555 -1.538968,-0.519922 -0.852675,-0.228766 -1.767738,-0.228766 -1.268611,0 -1.965308,0.592712 -0.696696,0.582313 -0.696696,1.580564 0,0.592712 0.155977,1.029447 0.155978,0.426336 0.519923,0.779884 0.363946,0.34315 0.956658,0.655102 0.60311,0.301554 1.47658,0.644704 0.946259,0.374345 1.653353,0.769486 0.717493,0.395141 1.195822,0.894267 0.478329,0.499125 0.717492,1.154228 0.249557,0.655102 0.249557,1.549369 z"
       id="text1"
       style="font-size:6.19791px;font-family:'Droid Sans';-inkscape-font-specification:'Droid Sans';text-align:end;letter-spacing:0px;text-anchor:end;fill:#dfdfdf;stroke-width:0.665502;fill-opacity:1"
       aria-label="JS" />
    <g
       transform="matrix(0.52960909,0,0,0.52960909,19.275358,20.354587)"
       id="g5"
       style="fill:#dfdfdf;fill-opacity:1" />
  </g>
</svg>
