<?xml version="1.0" encoding="UTF-8" standalone="no"?>
<svg
   width="64"
   height="64"
   version="1.1"
   id="svg73"
   sodipodi:docname="application-vnd.rn-realmedia.svg"
   inkscape:version="1.4.2 (ebf0e940d0, 2025-05-08)"
   xmlns:inkscape="http://www.inkscape.org/namespaces/inkscape"
   xmlns:sodipodi="http://sodipodi.sourceforge.net/DTD/sodipodi-0.dtd"
   xmlns:xlink="http://www.w3.org/1999/xlink"
   xmlns="http://www.w3.org/2000/svg"
   xmlns:svg="http://www.w3.org/2000/svg"
   xmlns:rdf="http://www.w3.org/1999/02/22-rdf-syntax-ns#"
   xmlns:cc="http://creativecommons.org/ns#"
   xmlns:dc="http://purl.org/dc/elements/1.1/">
  <metadata
     id="metadata77">
    <rdf:RDF>
      <cc:Work
         rdf:about="">
        <dc:format>image/svg+xml</dc:format>
        <dc:type
           rdf:resource="http://purl.org/dc/dcmitype/StillImage" />
      </cc:Work>
    </rdf:RDF>
  </metadata>
  <sodipodi:namedview
     pagecolor="#f5f7fa"
     bordercolor="#666666"
     borderopacity="1"
     objecttolerance="10"
     gridtolerance="10"
     guidetolerance="10"
     inkscape:pageopacity="0"
     inkscape:pageshadow="2"
     inkscape:window-width="1377"
     inkscape:window-height="886"
     id="namedview75"
     showgrid="false"
     inkscape:zoom="4.4470387"
     inkscape:cx="48.234345"
     inkscape:cy="14.054296"
     inkscape:window-x="119"
     inkscape:window-y="32"
     inkscape:window-maximized="0"
     inkscape:current-layer="g877"
     inkscape:document-rotation="0"
     inkscape:pagecheckerboard="0"
     inkscape:showpageshadow="2"
     inkscape:deskcolor="#d1d1d1" />
  <defs
     id="defs29">
    <linearGradient
       id="b"
       x1="399.57"
       x2="399.57"
       y1="545.8"
       y2="517.8"
       gradientTransform="matrix(2.1429,0,0,2.1429,-825.86391,-1107.6662)"
       gradientUnits="userSpaceOnUse">
      <stop
         stop-color="#3889e9"
         offset="0"
         id="stop2" />
      <stop
         stop-color="#5ea5fb"
         offset="1"
         id="stop4" />
    </linearGradient>
    <linearGradient
       id="d"
       x2="1"
       gradientTransform="matrix(14.905727,-4.7106182,4.7106182,14.905727,322.04962,998.26962)"
       gradientUnits="userSpaceOnUse">
      <stop
         stop-color="#fafafa"
         offset="0"
         id="stop7" />
      <stop
         stop-color="#aaa"
         offset="1"
         id="stop8" />
    </linearGradient>
    <linearGradient
       id="e"
       x2="1"
       gradientTransform="matrix(21.439909,0,0,21.439909,26.63554,1159.7788)"
       gradientUnits="userSpaceOnUse">
      <stop
         stop-color="#f0f0f0"
         offset="0"
         id="stop9" />
      <stop
         stop-color="#b7f1ff"
         offset="1"
         id="stop10" />
    </linearGradient>
    <linearGradient
       id="_Linear2"
       x2="1"
       gradientTransform="matrix(-0.33662128,-17.588561,17.588561,-0.33662128,289.63742,32.316102)"
       gradientUnits="userSpaceOnUse">
      <stop
         style="stop-color:#fefffe"
         offset="0"
         id="stop5" />
      <stop
         style="stop-color:#f1f1f0"
         offset="1"
         id="stop6" />
    </linearGradient>
    <clipPath
       clipPathUnits="userSpaceOnUse"
       id="clipPath7">
      <path
         d="m 33.894,28.457 v 1.292 h -8.831 v -1.292 z m 5.169,-2.508 v 1.292 h -14 v -1.292 z m 0,-2.538 v 1.292 h -14 v -1.292 z"
         style="display:block;fill:#d9dee3"
         id="path7" />
    </clipPath>
    <inkscape:path-effect
       effect="powerclip"
       id="path-effect7"
       is_visible="true"
       lpeversion="1"
       inverse="true"
       flatten="false"
       hide_clip="false"
       message="" />
    <linearGradient
       id="linearGradient1"
       inkscape:collect="always">
      <stop
         style="stop-color:#d8dee9;stop-opacity:1;"
         offset="0"
         id="stop1" />
      <stop
         style="stop-color:#eceff4;stop-opacity:1;"
         offset="1"
         id="stop2-0" />
    </linearGradient>
    <linearGradient
       inkscape:collect="always"
       xlink:href="#linearGradient1"
       id="linearGradient5"
       x1="37.830982"
       y1="26.034248"
       x2="20.853935"
       y2="19.901464"
       gradientUnits="userSpaceOnUse" />
  </defs>
  <circle
     cx="32.516094"
     cy="31.877844"
     r="0"
     fill="url(#b)"
     stroke-width="1.5715"
     id="circle41"
     style="fill:url(#b)" />
  <g
     aria-label="GZ"
     transform="matrix(1.2212657,0,0,0.81882264,0.4960938,-0.1661539)"
     id="text93"
     style="font-weight:bold;font-size:11.5263px;line-height:1.25;font-family:sans-serif;-inkscape-font-specification:'sans-serif Bold';fill:#f2f2f2;stroke-width:0.288159" />
  <g
     id="g877"
     transform="matrix(1.1,0,0,1.1,-3.1845928,-3.2065454)">
    <rect
       x="13.256583"
       y="7.9866519"
       width="37.45882"
       height="48.038597"
       rx="7.9658151"
       ry="9.6898966"
       fill="url(#linearGradient862)"
       stroke-width="3.0541"
       id="rect35-7-3"
       style="fill:#414141;fill-opacity:1;stroke:#dfdfdf;stroke-width:2.27273;stroke-dasharray:none;stroke-opacity:1" />
    <path
       d="m 26.385539,41.005953 h -0.432 c -1.008818,0 -1.808182,-0.294551 -2.398091,-0.88446 -0.576,-0.589091 -0.864,-1.375365 -0.864,-2.358 v -3.360275 c 0,-0.536728 -0.137454,-0.943364 -0.413182,-1.218273 -0.274909,-0.288 -0.621818,-0.432 -1.041545,-0.432 v -1.494 c 0.419727,0 0.766636,-0.137454 1.041545,-0.412363 0.275728,-0.288002 0.413182,-0.701182 0.413182,-1.23791 V 26.2484 c 0,-0.982636 0.288002,-1.76891 0.864,-2.358 0.589909,-0.58991 1.389273,-0.884455 2.398091,-0.884455 h 0.432 v 1.493182 h -0.432 c -0.459,0 -0.845182,0.164455 -1.159364,0.491727 -0.301908,0.327273 -0.452454,0.766636 -0.452454,1.316454 v 3.360274 c 0,1.19209 -0.451637,1.958727 -1.355728,2.29909 v 0.07854 c 0.904091,0.314182 1.355728,1.080818 1.355728,2.299092 v 3.360274 c 0,0.550636 0.150544,0.989182 0.452454,1.316454 0.314182,0.328091 0.700364,0.491726 1.159364,0.491726 h 0.432 z m 11.632907,0 h -0.431999 v -1.493188 h 0.431999 c 0.459002,0 0.838638,-0.163649 1.13973,-0.491725 0.314998,-0.327276 0.472089,-0.765821 0.472089,-1.316457 v -3.360275 c 0,-1.218272 0.451636,-1.984908 1.355727,-2.29909 v -0.07854 c -0.904091,-0.340362 -1.355727,-1.106999 -1.355727,-2.29909 v -3.360273 c 0,-0.549818 -0.157094,-0.989181 -0.472089,-1.316454 -0.301092,-0.327273 -0.680728,-0.491727 -1.13973,-0.491727 h -0.431999 v -1.493182 h 0.431999 c 1.008819,0 1.801637,0.294545 2.377637,0.884454 0.589909,0.589091 0.884455,1.375364 0.884455,2.358 v 3.360273 c 0,0.536727 0.137457,0.949909 0.413182,1.237909 0.274914,0.274909 0.62182,0.412364 1.041545,0.412364 v 1.494 c -0.419725,0 -0.766638,0.144001 -1.041545,0.432 -0.275719,0.274909 -0.413182,0.681545 -0.413182,1.218272 V 37.7635 c 0,0.982635 -0.294552,1.768909 -0.884455,2.358 -0.576,0.589911 -1.368818,0.884458 -2.377637,0.884456 z M 31.966357,30.966036 c 0.564546,0 1.022727,0.458182 1.022727,1.022728 0,0.564544 -0.458181,1.022726 -1.022727,1.022726 -0.564545,0 -1.022728,-0.458182 -1.022728,-1.022726 0,-0.564546 0.458183,-1.022728 1.022728,-1.022728 z m 4.909091,0 c 0.564546,0 1.022726,0.458182 1.022726,1.022728 0,0.564544 -0.45818,1.022726 -1.022726,1.022726 -0.564546,0 -1.022727,-0.458182 -1.022727,-1.022726 0,-0.564546 0.458181,-1.022728 1.022727,-1.022728 z m -9.818182,0 c 0.564545,0 1.022727,0.458182 1.022727,1.022728 0,0.564544 -0.458182,1.022726 -1.022727,1.022726 -0.564545,0 -1.022727,-0.458182 -1.022727,-1.022726 0,-0.564546 0.458182,-1.022728 1.022727,-1.022728 z"
       style="clip-rule:evenodd;fill:#dfdfdf;fill-rule:nonzero;stroke-width:0.818182;stroke-linejoin:round;stroke-miterlimit:2;fill-opacity:1"
       id="path6-3" />
    <g
       transform="matrix(0.52960909,0,0,0.52960909,19.275358,20.354587)"
       id="g5"
       style="fill:#dfdfdf;fill-opacity:1" />
  </g>
</svg>
