<?xml version="1.0" encoding="UTF-8" standalone="no"?>
<svg
   width="64"
   height="64"
   version="1.1"
   id="svg73"
   sodipodi:docname="application-x-st-disk-image.svg"
   inkscape:version="1.3.2 (091e20ef0f, 2023-11-25)"
   xmlns:inkscape="http://www.inkscape.org/namespaces/inkscape"
   xmlns:sodipodi="http://sodipodi.sourceforge.net/DTD/sodipodi-0.dtd"
   xmlns="http://www.w3.org/2000/svg"
   xmlns:svg="http://www.w3.org/2000/svg"
   xmlns:rdf="http://www.w3.org/1999/02/22-rdf-syntax-ns#"
   xmlns:cc="http://creativecommons.org/ns#"
   xmlns:dc="http://purl.org/dc/elements/1.1/">
  <metadata
     id="metadata77">
    <rdf:RDF>
      <cc:Work
         rdf:about="">
        <dc:format>image/svg+xml</dc:format>
        <dc:type
           rdf:resource="http://purl.org/dc/dcmitype/StillImage" />
      </cc:Work>
    </rdf:RDF>
  </metadata>
  <sodipodi:namedview
     pagecolor="#f5f7fa"
     bordercolor="#666666"
     borderopacity="1"
     objecttolerance="10"
     gridtolerance="10"
     guidetolerance="10"
     inkscape:pageopacity="0"
     inkscape:pageshadow="2"
     inkscape:window-width="1377"
     inkscape:window-height="886"
     id="namedview75"
     showgrid="false"
     inkscape:zoom="4.4470387"
     inkscape:cx="47.897042"
     inkscape:cy="14.054296"
     inkscape:window-x="119"
     inkscape:window-y="32"
     inkscape:window-maximized="0"
     inkscape:current-layer="g877"
     inkscape:document-rotation="0"
     inkscape:pagecheckerboard="0"
     inkscape:showpageshadow="2"
     inkscape:deskcolor="#d1d1d1" />
  <defs
     id="defs29">
    <linearGradient
       id="b"
       x1="399.57"
       x2="399.57"
       y1="545.8"
       y2="517.8"
       gradientTransform="matrix(2.1429,0,0,2.1429,-825.86391,-1107.6662)"
       gradientUnits="userSpaceOnUse">
      <stop
         stop-color="#3889e9"
         offset="0"
         id="stop2" />
      <stop
         stop-color="#5ea5fb"
         offset="1"
         id="stop4" />
    </linearGradient>
    <linearGradient
       id="d"
       x2="1"
       gradientTransform="matrix(14.905727,-4.7106182,4.7106182,14.905727,322.04962,998.26962)"
       gradientUnits="userSpaceOnUse">
      <stop
         stop-color="#fafafa"
         offset="0"
         id="stop7" />
      <stop
         stop-color="#aaa"
         offset="1"
         id="stop8" />
    </linearGradient>
    <linearGradient
       id="e"
       x2="1"
       gradientTransform="matrix(21.439909,0,0,21.439909,26.63554,1159.7788)"
       gradientUnits="userSpaceOnUse">
      <stop
         stop-color="#f0f0f0"
         offset="0"
         id="stop9" />
      <stop
         stop-color="#b7f1ff"
         offset="1"
         id="stop10" />
    </linearGradient>
    <linearGradient
       id="_Linear2"
       x2="1"
       gradientTransform="matrix(-0.33662128,-17.588561,17.588561,-0.33662128,289.63742,32.316102)"
       gradientUnits="userSpaceOnUse">
      <stop
         style="stop-color:#fefffe"
         offset="0"
         id="stop5" />
      <stop
         style="stop-color:#f1f1f0"
         offset="1"
         id="stop6" />
    </linearGradient>
    <clipPath
       clipPathUnits="userSpaceOnUse"
       id="clipPath7">
      <path
         d="m 33.894,28.457 v 1.292 h -8.831 v -1.292 z m 5.169,-2.508 v 1.292 h -14 v -1.292 z m 0,-2.538 v 1.292 h -14 v -1.292 z"
         style="display:block;fill:#d9dee3"
         id="path7" />
    </clipPath>
    <inkscape:path-effect
       effect="powerclip"
       id="path-effect7"
       is_visible="true"
       lpeversion="1"
       inverse="true"
       flatten="false"
       hide_clip="false"
       message="Use fill-rule evenodd on &lt;b&gt;fill and stroke&lt;/b&gt; dialog if no flatten result after convert clip to paths." />
  </defs>
  <circle
     cx="32.516094"
     cy="31.877844"
     r="0"
     fill="url(#b)"
     stroke-width="1.5715"
     id="circle41"
     style="fill:url(#b)" />
  <g
     aria-label="GZ"
     transform="matrix(1.2212657,0,0,0.81882264,0.4960938,-0.1661539)"
     id="text93"
     style="font-weight:bold;font-size:11.5263px;line-height:1.25;font-family:sans-serif;-inkscape-font-specification:'sans-serif Bold';fill:#f2f2f2;stroke-width:0.288159" />
  <g
     id="g877"
     transform="matrix(1.1,0,0,1.1,-3.1845928,-3.2065454)">
    <rect
       x="13.389396"
       y="8.0488043"
       width="37.45882"
       height="48.038597"
       rx="7.9658151"
       ry="9.6898966"
       fill="url(#linearGradient862)"
       stroke-width="3.0541"
       id="rect35-7-3"
       style="fill:#414141;fill-opacity:1;stroke:#dfdfdf;stroke-width:2.27272727;stroke-dasharray:none;stroke-opacity:1" />
    <g
       id="g11"
       style="clip-rule:evenodd;fill-rule:evenodd;stroke-linejoin:round;stroke-miterlimit:2;fill:#dfdfdf;fill-opacity:1"
       transform="matrix(0.90909091,0,0,0.90909091,2.8950843,8.3695866)">
      <path
         d="m 35.683,24.882 -4.951,13.206 h 2.196 l 1.233,-3.304 h 5.227 l 1.244,3.304 h 2.196 L 37.879,24.882 Z m 1.096,2.941 1.784,4.765 h -3.566 z"
         style="fill:#dfdfdf;fill-opacity:1"
         id="path2" />
      <path
         d="m 21.172,25.656 2.761,-0.254 c 0.166,0.875 0.503,1.517 1.011,1.927 0.508,0.41 1.194,0.615 2.056,0.615 0.914,0 1.603,-0.182 2.066,-0.547 0.463,-0.365 0.695,-0.792 0.695,-1.28 0,-0.314 -0.098,-0.58 -0.292,-0.801 -0.195,-0.22 -0.536,-0.411 -1.021,-0.574 -0.333,-0.109 -1.09,-0.301 -2.272,-0.579 -1.521,-0.356 -2.588,-0.793 -3.202,-1.312 -0.862,-0.729 -1.294,-1.619 -1.294,-2.668 0,-0.675 0.203,-1.307 0.609,-1.895 0.406,-0.588 0.99,-1.036 1.754,-1.343 0.764,-0.308 1.686,-0.462 2.766,-0.462 1.763,0 3.091,0.365 3.982,1.095 0.892,0.729 1.36,1.703 1.405,2.922 l -2.838,0.117 c -0.121,-0.681 -0.382,-1.171 -0.781,-1.47 -0.399,-0.298 -0.998,-0.448 -1.797,-0.448 -0.825,0 -1.47,0.16 -1.937,0.48 -0.3,0.205 -0.45,0.479 -0.45,0.823 0,0.314 0.141,0.582 0.422,0.805 0.358,0.284 1.227,0.579 2.607,0.887 1.38,0.307 2.401,0.625 3.063,0.954 0.661,0.329 1.179,0.778 1.552,1.348 0.374,0.57 0.561,1.274 0.561,2.112 0,0.76 -0.223,1.471 -0.671,2.135 -0.447,0.663 -1.08,1.156 -1.898,1.479 -0.818,0.322 -1.837,0.484 -3.058,0.484 -1.776,0 -3.14,-0.388 -4.093,-1.163 -0.952,-0.775 -1.521,-1.904 -1.706,-3.387 z m 2.492,-12.429 h 2.176 l 1.036,1.348 1.112,-1.348 h 2.166 l -1.984,2.668 h -2.493 z"
         style="fill:#dfdfdf;fill-rule:nonzero;fill-opacity:1"
         id="path3" />
    </g>
  </g>
</svg>
