<?xml version="1.0" encoding="UTF-8" standalone="no"?>
<svg
   width="64"
   height="64"
   version="1.1"
   id="svg73"
   sodipodi:docname="application-blank.svg"
   inkscape:version="1.3.2 (091e20ef0f, 2023-11-25)"
   xmlns:inkscape="http://www.inkscape.org/namespaces/inkscape"
   xmlns:sodipodi="http://sodipodi.sourceforge.net/DTD/sodipodi-0.dtd"
   xmlns="http://www.w3.org/2000/svg"
   xmlns:svg="http://www.w3.org/2000/svg"
   xmlns:rdf="http://www.w3.org/1999/02/22-rdf-syntax-ns#"
   xmlns:cc="http://creativecommons.org/ns#"
   xmlns:dc="http://purl.org/dc/elements/1.1/">
  <metadata
     id="metadata77">
    <rdf:RDF>
      <cc:Work
         rdf:about="">
        <dc:format>image/svg+xml</dc:format>
        <dc:type
           rdf:resource="http://purl.org/dc/dcmitype/StillImage" />
      </cc:Work>
    </rdf:RDF>
  </metadata>
  <sodipodi:namedview
     pagecolor="#f5f7fa"
     bordercolor="#666666"
     borderopacity="1"
     objecttolerance="10"
     gridtolerance="10"
     guidetolerance="10"
     inkscape:pageopacity="0"
     inkscape:pageshadow="2"
     inkscape:window-width="1377"
     inkscape:window-height="886"
     id="namedview75"
     showgrid="false"
     inkscape:zoom="4.4470387"
     inkscape:cx="47.784608"
     inkscape:cy="14.054296"
     inkscape:window-x="119"
     inkscape:window-y="32"
     inkscape:window-maximized="0"
     inkscape:current-layer="g877"
     inkscape:document-rotation="0"
     inkscape:pagecheckerboard="0"
     inkscape:showpageshadow="2"
     inkscape:deskcolor="#d1d1d1" />
  <defs
     id="defs29">
    <linearGradient
       id="b"
       x1="399.57"
       x2="399.57"
       y1="545.8"
       y2="517.8"
       gradientTransform="matrix(2.1429,0,0,2.1429,-825.86391,-1107.6662)"
       gradientUnits="userSpaceOnUse">
      <stop
         stop-color="#3889e9"
         offset="0"
         id="stop2" />
      <stop
         stop-color="#5ea5fb"
         offset="1"
         id="stop4" />
    </linearGradient>
    <linearGradient
       id="d"
       x2="1"
       gradientTransform="matrix(14.905727,-4.7106182,4.7106182,14.905727,322.04962,998.26962)"
       gradientUnits="userSpaceOnUse">
      <stop
         stop-color="#fafafa"
         offset="0"
         id="stop7" />
      <stop
         stop-color="#aaa"
         offset="1"
         id="stop8" />
    </linearGradient>
    <linearGradient
       id="e"
       x2="1"
       gradientTransform="matrix(21.439909,0,0,21.439909,26.63554,1159.7788)"
       gradientUnits="userSpaceOnUse">
      <stop
         stop-color="#f0f0f0"
         offset="0"
         id="stop9" />
      <stop
         stop-color="#b7f1ff"
         offset="1"
         id="stop10" />
    </linearGradient>
    <linearGradient
       id="_Linear2"
       x2="1"
       gradientTransform="matrix(-0.33662128,-17.588561,17.588561,-0.33662128,289.63742,32.316102)"
       gradientUnits="userSpaceOnUse">
      <stop
         style="stop-color:#fefffe"
         offset="0"
         id="stop5" />
      <stop
         style="stop-color:#f1f1f0"
         offset="1"
         id="stop6" />
    </linearGradient>
  </defs>
  <circle
     cx="32.516094"
     cy="31.877844"
     r="0"
     fill="url(#b)"
     stroke-width="1.5715"
     id="circle41"
     style="fill:url(#b)" />
  <g
     aria-label="GZ"
     transform="matrix(1.2212657,0,0,0.81882264,0.4960938,-0.1661539)"
     id="text93"
     style="font-weight:bold;font-size:11.5263px;line-height:1.25;font-family:sans-serif;-inkscape-font-specification:'sans-serif Bold';fill:#f2f2f2;stroke-width:0.288159" />
  <g
     id="g877"
     transform="matrix(1.1,0,0,1.1,-3.1845928,-3.2065454)">
    <rect
       x="13.389396"
       y="8.0488043"
       width="37.45882"
       height="48.038597"
       rx="7.9658151"
       ry="9.6898966"
       fill="url(#linearGradient862)"
       stroke-width="3.0541"
       id="rect35-7-3"
       style="fill:#414141;fill-opacity:1;stroke:#dfdfdf;stroke-width:2.27272727;stroke-dasharray:none;stroke-opacity:1" />
    <g
       id="g2"
       style="fill:#dfdfdf;fill-opacity:1"
       transform="matrix(0.90909091,0,0,0.90909091,2.8950843,-4.357686)">
      <path
         fill="#f5f7fa"
         d="m 44.222739,39.683319 v 1.251354 H 19.886271 v -1.251354 z m 0,6.256766 v 1.251357 H 19.886271 v -1.251357 z m -7.8408,6.256773 v 1.251357 H 19.886271 v -1.251357 z"
         id="path42-7"
         style="fill:#dfdfdf;fill-opacity:1;stroke:none;stroke-width:1.089;stroke-dasharray:none;stroke-opacity:0.3"
         sodipodi:nodetypes="ccccccccccccccc" />
      <path
         d="m 23.830181,34.121769 c 0.768002,0 1.600005,-0.181334 2.22934,-0.490668 l -0.309334,-1.00267 c -0.469335,0.181334 -1.077337,0.288001 -1.589338,0.288001 -1.621339,0 -2.634675,-1.056003 -2.634675,-2.720008 0,-1.578672 0.917336,-2.464008 2.474674,-2.464008 0.586669,0 1.258671,0.117334 1.738672,0.309334 l 0.394668,-1.06667 c -0.640002,-0.298667 -1.365337,-0.458668 -2.090673,-0.458668 -2.346674,0 -3.936013,1.546672 -3.936013,3.872012 0,2.240007 1.504005,3.733345 3.722679,3.733345 z m 5.504011,0 c 1.813339,0 2.901342,-0.885336 2.901342,-2.282673 0,-2.666676 -3.904012,-1.738673 -3.904012,-3.232011 0,-0.576002 0.522668,-0.885336 1.440004,-0.885336 0.618669,0 1.290671,0.117334 1.813339,0.320001 l 0.394668,-1.09867 c -0.618668,-0.277334 -1.397337,-0.426668 -2.122673,-0.426668 -1.770672,0 -2.954676,0.90667 -2.954676,2.293341 0,2.528008 3.882679,1.706672 3.882679,3.210676 0,0.533335 -0.469335,0.87467 -1.386671,0.87467 -0.672002,0 -1.493338,-0.160001 -2.218674,-0.458668 l -0.394668,1.109337 c 0.789336,0.352001 1.696006,0.576001 2.549342,0.576001 z m 6.112018,0 c 1.813339,0 2.901342,-0.885336 2.901342,-2.282673 0,-2.666676 -3.904012,-1.738673 -3.904012,-3.232011 0,-0.576002 0.522668,-0.885336 1.440004,-0.885336 0.618669,0 1.290671,0.117334 1.81334,0.320001 l 0.394667,-1.09867 c -0.618668,-0.277334 -1.397337,-0.426668 -2.122673,-0.426668 -1.770672,0 -2.954676,0.90667 -2.954676,2.293341 0,2.528008 3.882679,1.706672 3.882679,3.210676 0,0.533335 -0.469335,0.87467 -1.386671,0.87467 -0.672002,0 -1.493338,-0.160001 -2.218674,-0.458668 l -0.394668,1.109337 c 0.789336,0.352001 1.696006,0.576001 2.549342,0.576001 z"
         id="text4"
         style="font-weight:bold;font-size:10.6667px;line-height:0.8;font-family:Cantarell;-inkscape-font-specification:'Cantarell Bold';text-align:center;letter-spacing:0px;text-anchor:middle;fill:#dfdfdf;stroke-width:2;fill-opacity:1"
         aria-label="CSS" />
    </g>
  </g>
</svg>
