<?xml version="1.0" encoding="UTF-8" standalone="no"?>
<svg
   width="64"
   height="64"
   version="1.1"
   id="svg73"
   sodipodi:docname="application-blank.svg"
   inkscape:version="1.3.2 (091e20ef0f, 2023-11-25)"
   xmlns:inkscape="http://www.inkscape.org/namespaces/inkscape"
   xmlns:sodipodi="http://sodipodi.sourceforge.net/DTD/sodipodi-0.dtd"
   xmlns="http://www.w3.org/2000/svg"
   xmlns:svg="http://www.w3.org/2000/svg"
   xmlns:rdf="http://www.w3.org/1999/02/22-rdf-syntax-ns#"
   xmlns:cc="http://creativecommons.org/ns#"
   xmlns:dc="http://purl.org/dc/elements/1.1/">
  <metadata
     id="metadata77">
    <rdf:RDF>
      <cc:Work
         rdf:about="">
        <dc:format>image/svg+xml</dc:format>
        <dc:type
           rdf:resource="http://purl.org/dc/dcmitype/StillImage" />
      </cc:Work>
    </rdf:RDF>
  </metadata>
  <sodipodi:namedview
     pagecolor="#f5f7fa"
     bordercolor="#666666"
     borderopacity="1"
     objecttolerance="10"
     gridtolerance="10"
     guidetolerance="10"
     inkscape:pageopacity="0"
     inkscape:pageshadow="2"
     inkscape:window-width="1377"
     inkscape:window-height="886"
     id="namedview75"
     showgrid="false"
     inkscape:zoom="4.4470387"
     inkscape:cx="47.784608"
     inkscape:cy="14.054296"
     inkscape:window-x="119"
     inkscape:window-y="32"
     inkscape:window-maximized="0"
     inkscape:current-layer="g877"
     inkscape:document-rotation="0"
     inkscape:pagecheckerboard="0"
     inkscape:showpageshadow="2"
     inkscape:deskcolor="#d1d1d1" />
  <defs
     id="defs29">
    <linearGradient
       id="b"
       x1="399.57"
       x2="399.57"
       y1="545.8"
       y2="517.8"
       gradientTransform="matrix(2.1429,0,0,2.1429,-825.86391,-1107.6662)"
       gradientUnits="userSpaceOnUse">
      <stop
         stop-color="#3889e9"
         offset="0"
         id="stop2" />
      <stop
         stop-color="#5ea5fb"
         offset="1"
         id="stop4" />
    </linearGradient>
    <linearGradient
       id="d"
       x2="1"
       gradientTransform="matrix(14.905727,-4.7106182,4.7106182,14.905727,322.04962,998.26962)"
       gradientUnits="userSpaceOnUse">
      <stop
         stop-color="#fafafa"
         offset="0"
         id="stop7" />
      <stop
         stop-color="#aaa"
         offset="1"
         id="stop8" />
    </linearGradient>
    <linearGradient
       id="e"
       x2="1"
       gradientTransform="matrix(21.439909,0,0,21.439909,26.63554,1159.7788)"
       gradientUnits="userSpaceOnUse">
      <stop
         stop-color="#f0f0f0"
         offset="0"
         id="stop9" />
      <stop
         stop-color="#b7f1ff"
         offset="1"
         id="stop10" />
    </linearGradient>
  </defs>
  <circle
     cx="32.516094"
     cy="31.877844"
     r="0"
     fill="url(#b)"
     stroke-width="1.5715"
     id="circle41"
     style="fill:url(#b)" />
  <g
     aria-label="GZ"
     transform="matrix(1.2212657,0,0,0.81882264,0.4960938,-0.1661539)"
     id="text93"
     style="font-weight:bold;font-size:11.5263px;line-height:1.25;font-family:sans-serif;-inkscape-font-specification:'sans-serif Bold';fill:#f2f2f2;stroke-width:0.288159" />
  <g
     id="g877"
     transform="matrix(1.1,0,0,1.1,-3.1845928,-3.2065454)">
    <rect
       x="13.389396"
       y="8.0488043"
       width="37.45882"
       height="48.038597"
       rx="7.9658151"
       ry="9.6898966"
       fill="url(#linearGradient862)"
       stroke-width="3.0541"
       id="rect35-7-3"
       style="fill:#414141;fill-opacity:1;stroke:#dfdfdf;stroke-width:2.27272727;stroke-dasharray:none;stroke-opacity:1" />
    <path
       d="m 34.223322,46.371293 c -0.51198,0.536782 -1.158601,0.80783 -1.939858,0.80783 -0.783031,-0.0017 -1.442051,-0.271048 -1.982377,-0.809603 -0.511982,-0.538553 -0.767086,-1.186945 -0.767086,-1.94163 0,-0.752913 0.255104,-1.401304 0.767086,-1.938089 0.540326,-0.538553 1.199346,-0.807831 1.982377,-0.807831 0.781257,0 1.427878,0.269278 1.939858,0.807831 0.538555,0.536785 0.807832,1.185176 0.807832,1.93986 0,0.752914 -0.269277,1.401306 -0.807832,1.941632 z m -0.04074,-8.409602 h -3.799999 v -1.900882 c 0,-1.211749 0.256877,-2.249885 0.76886,-3.112634 0.511979,-0.889325 1.413703,-1.927459 2.708715,-3.112634 0.72634,-0.673192 1.23832,-1.172773 1.535944,-1.496969 0.322424,-0.348996 0.632448,-0.822005 0.930068,-1.413705 0.322426,-0.620045 0.485409,-1.254265 0.485409,-1.900886 0,-1.240091 -0.405688,-2.237481 -1.213518,-2.992164 -0.78126,-0.754686 -1.87254,-1.132028 -3.275617,-1.132028 -2.317201,0 -3.908065,1.29501 -4.770814,3.88149 l -3.475805,-1.454453 c 0.565127,-1.537716 1.535942,-2.912446 2.910675,-4.124193 1.401305,-1.240093 3.179951,-1.860139 5.335941,-1.860139 2.453612,0 4.44839,0.728112 5.984334,2.182563 1.535943,1.42965 2.304801,3.261443 2.304801,5.498924 0,0.970817 -0.256877,1.954033 -0.768858,2.951422 -0.511983,0.997388 -0.969044,1.711328 -1.374732,2.143588 -0.377343,0.403917 -0.915897,0.930071 -1.617435,1.57669 l -0.201958,0.201959 c -1.64401,1.482795 -2.466012,2.963821 -2.466012,4.446615 z"
       style="clip-rule:evenodd;fill:#dfdfdf;fill-rule:nonzero;stroke-width:1.77156;stroke-linejoin:round;stroke-miterlimit:2;fill-opacity:1"
       id="path3" />
  </g>
</svg>
