<?xml version="1.0" encoding="UTF-8" standalone="no"?>
<svg
   width="64"
   height="64"
   version="1.1"
   id="svg73"
   sodipodi:docname="application-vnd.rn-realmedia.svg"
   inkscape:version="1.4.2 (ebf0e940d0, 2025-05-08)"
   xmlns:inkscape="http://www.inkscape.org/namespaces/inkscape"
   xmlns:sodipodi="http://sodipodi.sourceforge.net/DTD/sodipodi-0.dtd"
   xmlns:xlink="http://www.w3.org/1999/xlink"
   xmlns="http://www.w3.org/2000/svg"
   xmlns:svg="http://www.w3.org/2000/svg"
   xmlns:rdf="http://www.w3.org/1999/02/22-rdf-syntax-ns#"
   xmlns:cc="http://creativecommons.org/ns#"
   xmlns:dc="http://purl.org/dc/elements/1.1/">
  <metadata
     id="metadata77">
    <rdf:RDF>
      <cc:Work
         rdf:about="">
        <dc:format>image/svg+xml</dc:format>
        <dc:type
           rdf:resource="http://purl.org/dc/dcmitype/StillImage" />
      </cc:Work>
    </rdf:RDF>
  </metadata>
  <sodipodi:namedview
     pagecolor="#f5f7fa"
     bordercolor="#666666"
     borderopacity="1"
     objecttolerance="10"
     gridtolerance="10"
     guidetolerance="10"
     inkscape:pageopacity="0"
     inkscape:pageshadow="2"
     inkscape:window-width="1377"
     inkscape:window-height="886"
     id="namedview75"
     showgrid="false"
     inkscape:zoom="4.4470387"
     inkscape:cx="48.234345"
     inkscape:cy="14.054296"
     inkscape:window-x="119"
     inkscape:window-y="32"
     inkscape:window-maximized="0"
     inkscape:current-layer="g877"
     inkscape:document-rotation="0"
     inkscape:pagecheckerboard="0"
     inkscape:showpageshadow="2"
     inkscape:deskcolor="#d1d1d1" />
  <defs
     id="defs29">
    <linearGradient
       id="b"
       x1="399.57"
       x2="399.57"
       y1="545.8"
       y2="517.8"
       gradientTransform="matrix(2.1429,0,0,2.1429,-825.86391,-1107.6662)"
       gradientUnits="userSpaceOnUse">
      <stop
         stop-color="#3889e9"
         offset="0"
         id="stop2" />
      <stop
         stop-color="#5ea5fb"
         offset="1"
         id="stop4" />
    </linearGradient>
    <linearGradient
       id="d"
       x2="1"
       gradientTransform="matrix(14.905727,-4.7106182,4.7106182,14.905727,322.04962,998.26962)"
       gradientUnits="userSpaceOnUse">
      <stop
         stop-color="#fafafa"
         offset="0"
         id="stop7" />
      <stop
         stop-color="#aaa"
         offset="1"
         id="stop8" />
    </linearGradient>
    <linearGradient
       id="e"
       x2="1"
       gradientTransform="matrix(21.439909,0,0,21.439909,26.63554,1159.7788)"
       gradientUnits="userSpaceOnUse">
      <stop
         stop-color="#f0f0f0"
         offset="0"
         id="stop9" />
      <stop
         stop-color="#b7f1ff"
         offset="1"
         id="stop10" />
    </linearGradient>
    <linearGradient
       id="_Linear2"
       x2="1"
       gradientTransform="matrix(-0.33662128,-17.588561,17.588561,-0.33662128,289.63742,32.316102)"
       gradientUnits="userSpaceOnUse">
      <stop
         style="stop-color:#fefffe"
         offset="0"
         id="stop5" />
      <stop
         style="stop-color:#f1f1f0"
         offset="1"
         id="stop6" />
    </linearGradient>
    <clipPath
       clipPathUnits="userSpaceOnUse"
       id="clipPath7">
      <path
         d="m 33.894,28.457 v 1.292 h -8.831 v -1.292 z m 5.169,-2.508 v 1.292 h -14 v -1.292 z m 0,-2.538 v 1.292 h -14 v -1.292 z"
         style="display:block;fill:#d9dee3"
         id="path7" />
    </clipPath>
    <inkscape:path-effect
       effect="powerclip"
       id="path-effect7"
       is_visible="true"
       lpeversion="1"
       inverse="true"
       flatten="false"
       hide_clip="false"
       message="" />
    <linearGradient
       id="linearGradient1"
       inkscape:collect="always">
      <stop
         style="stop-color:#d8dee9;stop-opacity:1;"
         offset="0"
         id="stop1" />
      <stop
         style="stop-color:#eceff4;stop-opacity:1;"
         offset="1"
         id="stop2-0" />
    </linearGradient>
    <linearGradient
       inkscape:collect="always"
       xlink:href="#linearGradient1"
       id="linearGradient5"
       x1="37.830982"
       y1="26.034248"
       x2="20.853935"
       y2="19.901464"
       gradientUnits="userSpaceOnUse" />
  </defs>
  <circle
     cx="32.516094"
     cy="31.877844"
     r="0"
     fill="url(#b)"
     stroke-width="1.5715"
     id="circle41"
     style="fill:url(#b)" />
  <g
     aria-label="GZ"
     transform="matrix(1.2212657,0,0,0.81882264,0.4960938,-0.1661539)"
     id="text93"
     style="font-weight:bold;font-size:11.5263px;line-height:1.25;font-family:sans-serif;-inkscape-font-specification:'sans-serif Bold';fill:#f2f2f2;stroke-width:0.288159" />
  <g
     id="g877"
     transform="matrix(1.1,0,0,1.1,-3.1845928,-3.2065454)">
    <rect
       x="13.256583"
       y="7.9866519"
       width="37.45882"
       height="48.038597"
       rx="7.9658151"
       ry="9.6898966"
       fill="url(#linearGradient862)"
       stroke-width="3.0541"
       id="rect35-7-3"
       style="fill:#414141;fill-opacity:1;stroke:#dfdfdf;stroke-width:2.27273;stroke-dasharray:none;stroke-opacity:1" />
    <path
       id="path6"
       style="fill:#dfdfdf;stroke:none;stroke-width:0.721712;stroke-dasharray:none;stroke-dashoffset:2.2;stroke-opacity:0.3;fill-opacity:1"
       d="m 31.844007,20.494439 c -0.909474,5.97e-4 -1.594009,0.172656 -2.455506,0.599077 -1.510045,0.747432 -2.571585,1.982948 -3.13634,3.648019 -0.163911,0.48323 -0.173212,0.711465 -0.200168,5.477666 -0.03202,5.664317 -0.03288,5.645691 0.618811,7.001441 0.32349,0.672975 0.484966,0.892223 1.133309,1.536454 0.954427,0.948353 1.831544,1.425776 3.125063,1.698553 0.201748,0.0425 0.776982,0.06432 1.2785,0.04937 0.721176,-0.02165 1.050018,-0.07387 1.574514,-0.250931 1.628022,-0.549509 2.845477,-1.623532 3.57472,-3.154653 0.580186,-1.218157 0.570885,-1.11112 0.570885,-6.589835 0,-5.589036 0.0213,-5.375694 -0.676604,-6.795634 -0.316864,-0.645112 -0.506363,-0.904542 -1.057189,-1.450496 -1.163587,-1.153295 -2.352345,-1.683415 -3.945443,-1.759167 -0.140288,-0.0067 -0.274626,-0.01 -0.404552,-0.0099 z m 8.653471,13.579993 c -0.313776,0 -0.431281,0.239727 -0.490538,1.003628 -0.143522,1.85059 -0.827272,3.478132 -2.058,4.902558 -0.881183,1.019868 -2.523039,2.019312 -3.929936,2.392074 -0.815973,0.216193 -2.405292,0.295874 -3.261793,0.163519 -0.895163,-0.138344 -2.135176,-0.585832 -2.917852,-1.05298 -0.740076,-0.441732 -2.017034,-1.629961 -2.465374,-2.294814 -0.736272,-1.091845 -1.283593,-2.593802 -1.372941,-3.763609 -0.08107,-1.06123 -0.114183,-1.184073 -0.336891,-1.285547 -0.151471,-0.06902 -0.258132,-0.06735 -0.421467,0.0071 l -0.218492,0.100073 0.04792,0.928921 c 0.15292,3.026654 1.981402,5.856108 4.730584,7.318591 0.831388,0.442272 1.433984,0.661619 2.373753,0.865487 0.875762,0.190011 2.551328,0.212655 3.419667,0.04649 1.721955,-0.329443 3.185944,-1.077399 4.489543,-2.294812 1.671924,-1.561393 2.655991,-3.644787 2.837505,-6.006269 0.04656,-0.606223 0.03367,-0.722514 -0.0959,-0.865484 -0.08222,-0.09084 -0.230006,-0.164932 -0.329856,-0.164932 z" />
    <path
       style="color:#4d4d4d;clip-rule:nonzero;display:inline;overflow:visible;visibility:visible;isolation:auto;mix-blend-mode:normal;color-interpolation:sRGB;color-interpolation-filters:linearRGB;solid-color:#000000;solid-opacity:1;fill:#dfdfdf;fill-opacity:1;fill-rule:nonzero;stroke-width:0.990001;stroke-linecap:butt;stroke-linejoin:miter;stroke-miterlimit:4;stroke-dasharray:none;stroke-dashoffset:0;stroke-opacity:1;color-rendering:auto;image-rendering:auto;shape-rendering:auto;text-rendering:auto;enable-background:accumulate;opacity:0"
       id="path31"
       d="m 35.945994,20.12595 -3.96,4.455 -1.2474,1.485 h 3.2274 v 0.99 h -7.920001 v 10.890003 h -3.20562 l 1.225621,1.484996 3.96,4.455001 3.96,-4.455001 1.2474,-1.484996 h -3.2274 v -0.99 h 7.920005 V 26.06595 h 3.205614 l -1.225618,-1.485 z m 0,1.48896 3.075931,3.46104 h -2.085932 v 10.890006 h -6.929999 v -1.980004 h 4.95 V 25.07595 h -2.08593 z m -8.910001,6.431042 h 6.930001 v 1.98 h -4.95 v 8.91 h 2.08593 l -3.07593,3.461037 -3.075931,-3.461037 h 2.08593 v -0.989999 z m 2.970001,2.97 h 3.96 v 1.98 h -3.96 z"
       fill="#ffffff"
       opacity="0.75" />
    <g
       transform="matrix(0.52960909,0,0,0.52960909,19.275358,20.354587)"
       id="g5"
       style="fill:#dfdfdf;fill-opacity:1" />
  </g>
</svg>
