<?xml version="1.0" encoding="UTF-8" standalone="no"?>
<svg
   width="64"
   height="64"
   version="1.1"
   id="svg73"
   sodipodi:docname="4kyoutubetomp3.svg"
   inkscape:version="1.4.2 (ebf0e940d0, 2025-05-08)"
   xmlns:inkscape="http://www.inkscape.org/namespaces/inkscape"
   xmlns:sodipodi="http://sodipodi.sourceforge.net/DTD/sodipodi-0.dtd"
   xmlns="http://www.w3.org/2000/svg"
   xmlns:svg="http://www.w3.org/2000/svg"
   xmlns:rdf="http://www.w3.org/1999/02/22-rdf-syntax-ns#"
   xmlns:cc="http://creativecommons.org/ns#"
   xmlns:dc="http://purl.org/dc/elements/1.1/">
  <metadata
     id="metadata77">
    <rdf:RDF>
      <cc:Work
         rdf:about="">
        <dc:format>image/svg+xml</dc:format>
        <dc:type
           rdf:resource="http://purl.org/dc/dcmitype/StillImage" />
      </cc:Work>
    </rdf:RDF>
  </metadata>
  <sodipodi:namedview
     pagecolor="#f5f7fa"
     bordercolor="#666666"
     borderopacity="1"
     objecttolerance="10"
     gridtolerance="10"
     guidetolerance="10"
     inkscape:pageopacity="0"
     inkscape:pageshadow="2"
     inkscape:window-width="1377"
     inkscape:window-height="886"
     id="namedview75"
     showgrid="false"
     inkscape:zoom="6.2890624"
     inkscape:cx="47.622361"
     inkscape:cy="45.396274"
     inkscape:window-x="28"
     inkscape:window-y="57"
     inkscape:window-maximized="0"
     inkscape:current-layer="g877"
     inkscape:document-rotation="0"
     inkscape:pagecheckerboard="0"
     inkscape:showpageshadow="2"
     inkscape:deskcolor="#d1d1d1" />
  <defs
     id="defs29" />
  <circle
     cx="32.516094"
     cy="31.877844"
     r="0"
     fill="url(#b)"
     stroke-width="1.5715"
     id="circle41"
     style="fill:url(#b)" />
  <g
     aria-label="GZ"
     transform="matrix(1.2212657,0,0,0.81882264,0.4960938,-0.1661539)"
     id="text93"
     style="font-weight:bold;font-size:11.5263px;line-height:1.25;font-family:sans-serif;-inkscape-font-specification:'sans-serif Bold';fill:#f2f2f2;stroke-width:0.288159" />
  <g
     id="g877"
     transform="matrix(1.1,0,0,1.1,-3.1845928,-3.2065454)">
    <path
       style="fill:#dfdfdf;fill-opacity:1;stroke-width:0.0756344"
       d="M 15.156756,50.9366 C 9.9510442,50.2462 5.9624746,46.50477 5.0118155,41.420222 4.8019408,40.297708 4.8207784,38.226055 5.0506274,37.146845 c 0.490962,-2.304797 1.4523312,-4.136609 3.0278329,-5.769307 1.2420529,-1.287144 2.5100277,-2.155867 4.0307947,-2.761597 0.812766,-0.323733 2.006386,-0.64537 2.730944,-0.735897 l 0.413307,-0.05159 0.09089,-0.465051 c 0.361513,-1.849087 1.275851,-3.522013 2.644059,-4.837725 1.1272,-1.083955 2.476542,-1.840892 3.981064,-2.233261 l 0.816077,-0.212826 0.312543,-0.513127 c 1.157732,-1.900806 2.838691,-3.556833 4.765221,-4.694535 1.323001,-0.781287 2.960181,-1.384543 4.538099,-1.672163 1.065136,-0.194164 3.548593,-0.194164 4.61373,0 4.309827,0.785583 7.879794,3.45895 9.832567,7.363085 0.907216,1.813779 1.320658,3.53539 1.379773,5.745433 l 0.03964,1.452094 0.198187,0.03702 c 0.109054,0.02041 0.40254,0.05945 0.652111,0.08679 0.717787,0.07886 2.059492,0.443514 2.855428,0.776084 1.507431,0.629865 2.711014,1.464105 3.92028,2.717276 1.575504,1.632704 2.536866,3.464516 3.027837,5.769313 0.22989,1.079209 0.248727,3.150858 0.03964,4.273378 -0.681893,3.64698 -3.012392,6.742257 -6.287541,8.350782 -0.985761,0.484191 -1.761048,0.759305 -2.852821,1.012512 L 49.118273,50.9463 32.25168,50.95609 c -9.276347,0.0058 -16.968424,-0.0035 -17.093218,-0.02006 z m 10.513256,-6.454159 c 1.147254,-0.436933 2.141277,-1.426821 2.491205,-2.480829 0.231172,-0.696294 0.264819,-1.534833 0.267641,-6.670004 l 0.0029,-5.180991 4.821209,-1.696685 c 2.651663,-0.933172 4.863758,-1.711125 4.915757,-1.728782 0.07477,-0.02533 0.09455,0.730669 0.09455,3.615285 v 3.647387 l -0.170129,-0.0551 c -0.09359,-0.03025 -0.531899,-0.07191 -0.974015,-0.09253 -0.616491,-0.02872 -0.907355,-0.0077 -1.247974,0.09007 -1.425751,0.409331 -2.617744,1.656885 -2.904953,3.040354 -0.128215,0.617431 -0.059,1.776432 0.138415,2.320309 0.407659,1.122887 1.286927,2.012467 2.416169,2.444508 0.674122,0.257877 1.739663,0.323922 2.419237,0.149826 1.463378,-0.3749 2.632872,-1.531644 3.009172,-2.97639 0.162362,-0.623215 0.171132,-18.729205 0.01001,-18.690912 -0.05686,0.01346 -3.528195,1.23272 -7.713951,2.709488 l -7.610903,2.685086 -7.99e-4,5.540262 c -4.4e-4,3.04714 -0.0264,5.539441 -0.05754,5.538454 -0.03124,-10e-4 -0.192871,-0.03562 -0.359269,-0.07682 -0.536055,-0.132901 -1.613301,-0.09624 -2.1611,0.07356 -1.641812,0.508967 -2.758776,1.963607 -2.8497,3.711227 -0.06524,1.254183 0.311345,2.241842 1.182449,3.101096 0.548677,0.541252 1.089411,0.866191 1.78616,1.073493 0.645793,0.192132 1.869147,0.147363 2.49595,-0.09136 z"
       id="path7" />
  </g>
</svg>
