<?xml version="1.0" encoding="UTF-8" standalone="no"?>
<svg
   width="64"
   height="64"
   version="1.1"
   id="svg73"
   sodipodi:docname="abiword.svg"
   inkscape:version="1.4.2 (ebf0e940d0, 2025-05-08)"
   xmlns:inkscape="http://www.inkscape.org/namespaces/inkscape"
   xmlns:sodipodi="http://sodipodi.sourceforge.net/DTD/sodipodi-0.dtd"
   xmlns="http://www.w3.org/2000/svg"
   xmlns:svg="http://www.w3.org/2000/svg"
   xmlns:rdf="http://www.w3.org/1999/02/22-rdf-syntax-ns#"
   xmlns:cc="http://creativecommons.org/ns#"
   xmlns:dc="http://purl.org/dc/elements/1.1/">
  <metadata
     id="metadata77">
    <rdf:RDF>
      <cc:Work
         rdf:about="">
        <dc:format>image/svg+xml</dc:format>
        <dc:type
           rdf:resource="http://purl.org/dc/dcmitype/StillImage" />
      </cc:Work>
    </rdf:RDF>
  </metadata>
  <sodipodi:namedview
     pagecolor="#f5f7fa"
     bordercolor="#666666"
     borderopacity="1"
     objecttolerance="10"
     gridtolerance="10"
     guidetolerance="10"
     inkscape:pageopacity="0"
     inkscape:pageshadow="2"
     inkscape:window-width="1377"
     inkscape:window-height="886"
     id="namedview75"
     showgrid="false"
     inkscape:zoom="6.2890624"
     inkscape:cx="47.622361"
     inkscape:cy="45.396274"
     inkscape:window-x="28"
     inkscape:window-y="57"
     inkscape:window-maximized="0"
     inkscape:current-layer="g877"
     inkscape:document-rotation="0"
     inkscape:pagecheckerboard="0"
     inkscape:showpageshadow="2"
     inkscape:deskcolor="#d1d1d1" />
  <defs
     id="defs29" />
  <circle
     cx="32.516094"
     cy="31.877844"
     r="0"
     fill="url(#b)"
     stroke-width="1.5715"
     id="circle41"
     style="fill:url(#b)" />
  <g
     aria-label="GZ"
     transform="matrix(1.2212657,0,0,0.81882264,0.4960938,-0.1661539)"
     id="text93"
     style="font-weight:bold;font-size:11.5263px;line-height:1.25;font-family:sans-serif;-inkscape-font-specification:'sans-serif Bold';fill:#f2f2f2;stroke-width:0.288159" />
  <g
     id="g877"
     transform="matrix(1.1,0,0,1.1,-3.1845928,-3.2065454)">
    <path
       style="fill:#dfdfdf;fill-opacity:1;stroke:none;stroke-width:0.846206;stroke-dasharray:none;stroke-opacity:0.6"
       d="m 45.095591,41.700358 c -9.867414,4.679848 -20.022799,9.071653 -30.80479,11.411876 -3.475215,-0.01611 -1.760598,-4.356762 -1.199252,-6.323722 2.695762,-8.355293 6.875768,-16.177922 10.851318,-24.021449 1.573946,-2.478217 2.690323,-5.893708 5.863697,-6.847218 3.082405,-0.328581 5.107719,2.531183 6.704278,4.617506 6.52861,9.592357 12.694366,19.435603 18.100834,29.650728 1.369466,2.662407 2.711217,5.337734 4.038664,8.019564 C 54.702956,42.74856 49.390357,27.415934 40.824705,13.696214 38.90487,10.987116 37.156757,8.0468369 34.566043,5.8671139 32.041467,4.0071873 28.93667,6.0095854 27.070164,7.8100751 21.20828,13.450294 17.637391,20.810954 14.137959,27.917727 10.057251,36.32777 7.3801508,45.293385 5.4146667,54.349582 c -0.6890667,3.0499 2.5808995,5.263677 5.4868853,4.317333 8.049109,-1.606039 15.613568,-4.974825 22.731883,-8.840849 4.102577,-2.311158 8.048263,-4.935518 11.461406,-8.126601 z"
       id="path8" />
  </g>
</svg>
