<?xml version="1.0" encoding="UTF-8" standalone="no"?>
<svg
   width="64"
   height="64"
   version="1.1"
   id="svg73"
   sodipodi:docname="akonadi.svg"
   inkscape:version="1.4.2 (ebf0e940d0, 2025-05-08)"
   xmlns:inkscape="http://www.inkscape.org/namespaces/inkscape"
   xmlns:sodipodi="http://sodipodi.sourceforge.net/DTD/sodipodi-0.dtd"
   xmlns="http://www.w3.org/2000/svg"
   xmlns:svg="http://www.w3.org/2000/svg"
   xmlns:rdf="http://www.w3.org/1999/02/22-rdf-syntax-ns#"
   xmlns:cc="http://creativecommons.org/ns#"
   xmlns:dc="http://purl.org/dc/elements/1.1/">
  <metadata
     id="metadata77">
    <rdf:RDF>
      <cc:Work
         rdf:about="">
        <dc:format>image/svg+xml</dc:format>
        <dc:type
           rdf:resource="http://purl.org/dc/dcmitype/StillImage" />
      </cc:Work>
    </rdf:RDF>
  </metadata>
  <sodipodi:namedview
     pagecolor="#f5f7fa"
     bordercolor="#666666"
     borderopacity="1"
     objecttolerance="10"
     gridtolerance="10"
     guidetolerance="10"
     inkscape:pageopacity="0"
     inkscape:pageshadow="2"
     inkscape:window-width="1377"
     inkscape:window-height="886"
     id="namedview75"
     showgrid="false"
     inkscape:zoom="6.2890624"
     inkscape:cx="45.714286"
     inkscape:cy="42.057144"
     inkscape:window-x="0"
     inkscape:window-y="75"
     inkscape:window-maximized="0"
     inkscape:current-layer="g877"
     inkscape:document-rotation="0"
     inkscape:pagecheckerboard="0"
     inkscape:showpageshadow="2"
     inkscape:deskcolor="#d1d1d1" />
  <defs
     id="defs29" />
  <circle
     cx="32.516094"
     cy="31.877844"
     r="0"
     fill="url(#b)"
     stroke-width="1.5715"
     id="circle41"
     style="fill:url(#b)" />
  <g
     aria-label="GZ"
     transform="matrix(1.2212657,0,0,0.81882264,0.4960938,-0.1661539)"
     id="text93"
     style="font-weight:bold;font-size:11.5263px;line-height:1.25;font-family:sans-serif;-inkscape-font-specification:'sans-serif Bold';fill:#f2f2f2;stroke-width:0.288159" />
  <g
     id="g877"
     transform="matrix(1.1,0,0,1.1,-3.1845928,-3.2065454)">
    <path
       id="path6"
       style="fill:#dfdfdf;fill-opacity:1;stroke:none;stroke-width:0.258468;stroke-opacity:1"
       d="M 19.48028,5.0676707 C 19.094421,5.0930795 18.778978,5.3020332 17.577114,6.1144116 14.349317,8.2961823 11.364717,11.42333 9.3478948,14.738141 7.134578,18.37591 5.8463551,22.175221 5.3016808,26.67061 l -0.057499,0.473809 0.2438417,-0.224017 C 5.9409108,26.499848 7.108418,25.737743 8.1009152,25.217465 10.735778,23.836233 13.83548,23.015023 18.223391,22.53122 c 1.349461,-0.148795 6.666155,-0.202531 8.623733,-0.08726 3.080988,0.181476 6.238226,0.530854 9.450419,1.048722 0.890341,0.143541 1.658126,0.248213 1.706904,0.231953 0.107569,-0.03584 -1.24393,-2.772998 -2.323453,-4.704396 C 32.846833,13.949584 29.858419,10.22609 26.751962,7.8946394 24.507743,6.2103065 22.330095,5.3153858 19.92435,5.0874666 19.744753,5.0704565 19.608895,5.0591696 19.480275,5.0676481 Z m 13.213141,0.7097196 c -1.572199,-0.042665 -3.157836,0.060246 -4.736112,0.3132339 -0.616012,0.098772 -1.171284,0.208627 -1.235076,0.2438428 -0.0025,0.00121 -0.006,0.00194 -0.008,0.00423 l -0.0015,0.00157 c -8.24e-4,9.015e-4 -0.0051,0.00496 -0.006,0.00581 -0.0012,0.00157 -0.0035,0.00774 -0.004,0.010164 -0.0145,0.063767 0.140494,0.2099362 0.493632,0.4619139 1.292809,0.9225282 2.919977,2.4513685 4.21076,3.9570051 2.467924,2.87872 4.488299,6.055697 6.847441,10.764796 l 1.248955,2.493941 1.980484,0.402441 c 4.591672,0.93461 8.882329,2.039575 13.355875,3.43958 1.042486,0.326247 1.990884,0.629245 2.109344,0.67404 0.111671,0.04221 0.214517,0.04748 0.23988,0.01392 6.71e-4,-0.0012 0.0036,-0.0048 0.004,-0.006 0.01562,-0.04116 -0.0338,-0.511204 -0.111017,-1.044758 C 56.271411,21.911943 53.714023,16.913372 49.616024,12.926177 48.323315,11.668416 47.434737,10.949593 45.980181,9.9822106 42.012745,7.3435768 37.410301,5.9053224 32.693698,5.7773975 Z M 23.63553,23.437207 c -3.040236,-0.0285 -5.791664,0.173649 -8.298604,0.608615 -5.4167518,0.939837 -9.2395382,3.027415 -11.405133,6.226931 l -0.3310716,0.49165 0.057499,1.076483 c 0.086768,1.578393 0.2750338,3.067131 0.5650028,4.480372 2.335316,11.381796 11.5496708,20.284638 23.0025588,22.225434 0.861121,0.145929 1.783577,0.254022 3.273053,0.382619 0.640761,0.05531 3.603721,-0.02711 4.480377,-0.124874 4.610111,-0.514222 8.951066,-2.079394 12.695716,-4.57752 6.700625,-4.470109 11.176935,-11.47009 12.376537,-19.354825 0.210661,-1.384602 0.388779,-3.757765 0.293411,-3.887618 l -0.0015,-0.0015 C 60.231621,30.877263 57.687767,29.963707 55.66461,29.303695 48.655605,27.017142 40.563358,25.14712 33.665175,24.218661 c -3.661224,-0.49278 -6.989063,-0.752597 -10.0293,-0.78109 z" />
  </g>
</svg>
