<?xml version="1.0" encoding="UTF-8" standalone="no"?>
<svg
   width="64"
   height="64"
   version="1.1"
   id="svg73"
   sodipodi:docname="akregator.svg"
   inkscape:version="1.4.2 (ebf0e940d0, 2025-05-08)"
   xmlns:inkscape="http://www.inkscape.org/namespaces/inkscape"
   xmlns:sodipodi="http://sodipodi.sourceforge.net/DTD/sodipodi-0.dtd"
   xmlns="http://www.w3.org/2000/svg"
   xmlns:svg="http://www.w3.org/2000/svg"
   xmlns:rdf="http://www.w3.org/1999/02/22-rdf-syntax-ns#"
   xmlns:cc="http://creativecommons.org/ns#"
   xmlns:dc="http://purl.org/dc/elements/1.1/">
  <metadata
     id="metadata77">
    <rdf:RDF>
      <cc:Work
         rdf:about="">
        <dc:format>image/svg+xml</dc:format>
        <dc:type
           rdf:resource="http://purl.org/dc/dcmitype/StillImage" />
      </cc:Work>
    </rdf:RDF>
  </metadata>
  <sodipodi:namedview
     pagecolor="#f5f7fa"
     bordercolor="#666666"
     borderopacity="1"
     objecttolerance="10"
     gridtolerance="10"
     guidetolerance="10"
     inkscape:pageopacity="0"
     inkscape:pageshadow="2"
     inkscape:window-width="1377"
     inkscape:window-height="886"
     id="namedview75"
     showgrid="false"
     inkscape:zoom="6.2890624"
     inkscape:cx="47.622361"
     inkscape:cy="45.396274"
     inkscape:window-x="28"
     inkscape:window-y="57"
     inkscape:window-maximized="0"
     inkscape:current-layer="g877"
     inkscape:document-rotation="0"
     inkscape:pagecheckerboard="0"
     inkscape:showpageshadow="2"
     inkscape:deskcolor="#d1d1d1" />
  <defs
     id="defs29" />
  <circle
     cx="32.516094"
     cy="31.877844"
     r="0"
     fill="url(#b)"
     stroke-width="1.5715"
     id="circle41"
     style="fill:url(#b)" />
  <g
     aria-label="GZ"
     transform="matrix(1.2212657,0,0,0.81882264,0.4960938,-0.1661539)"
     id="text93"
     style="font-weight:bold;font-size:11.5263px;line-height:1.25;font-family:sans-serif;-inkscape-font-specification:'sans-serif Bold';fill:#f2f2f2;stroke-width:0.288159" />
  <g
     id="g877"
     transform="matrix(1.1,0,0,1.1,-3.1845928,-3.2065454)">
    <g
       id="g43"
       transform="matrix(3.4590358,0,0,3.1428814,-127.12965,-37.137441)"
       style="font-size:34.1545px;line-height:1.25;font-family:'padmaa-Bold.1.1';-inkscape-font-specification:'padmaa-Bold.1.1';fill:#dfdfdf;fill-opacity:1;stroke:none;stroke-width:0.569489;stroke-dasharray:none;stroke-opacity:0.3">
      <circle
         style="fill:#dfdfdf;fill-opacity:1;stroke:none;stroke-width:0.569489;stroke-dasharray:none;stroke-opacity:0.3"
         cx="41"
         cy="27"
         r="3"
         id="circle24" />
      <path
         style="fill:#dfdfdf;fill-opacity:1;stroke:none;stroke-width:0.569489;stroke-dasharray:none;stroke-opacity:0.3"
         d="m 38,19 v 1.408 c 0.01,0.751 0.62,1.354 1.371,1.355 v 0 c 3.762,0 6.874,3.123 6.874,6.866 v 0 c 0.001,0.757 0.606,1.37 1.363,1.371 H 49 V 28.645 C 49,23.476 44.873,19 39.75,19 Z"
         id="path26" />
      <path
         style="fill:#dfdfdf;fill-opacity:1;stroke:none;stroke-width:0.569489;stroke-dasharray:none;stroke-opacity:0.3"
         d="M 54,28.551 C 54,20.667 47.582,14 39.726,14 H 38 v 1.352 c 0,0.729 0.603,1.315 1.332,1.316 v 0 c 6.62,0 12.01,5.395 12,12.016 C 51.341,29.413 51.935,30 52.664,30 H 54"
         id="path28-3" />
    </g>
  </g>
</svg>
