<?xml version="1.0" encoding="UTF-8" standalone="no"?>
<svg
   width="64"
   height="64"
   version="1.1"
   id="svg73"
   sodipodi:docname="alienarena.svg"
   inkscape:version="1.4.2 (ebf0e940d0, 2025-05-08)"
   xmlns:inkscape="http://www.inkscape.org/namespaces/inkscape"
   xmlns:sodipodi="http://sodipodi.sourceforge.net/DTD/sodipodi-0.dtd"
   xmlns="http://www.w3.org/2000/svg"
   xmlns:svg="http://www.w3.org/2000/svg"
   xmlns:rdf="http://www.w3.org/1999/02/22-rdf-syntax-ns#"
   xmlns:cc="http://creativecommons.org/ns#"
   xmlns:dc="http://purl.org/dc/elements/1.1/">
  <metadata
     id="metadata77">
    <rdf:RDF>
      <cc:Work
         rdf:about="">
        <dc:format>image/svg+xml</dc:format>
        <dc:type
           rdf:resource="http://purl.org/dc/dcmitype/StillImage" />
      </cc:Work>
    </rdf:RDF>
  </metadata>
  <sodipodi:namedview
     pagecolor="#f5f7fa"
     bordercolor="#666666"
     borderopacity="1"
     objecttolerance="10"
     gridtolerance="10"
     guidetolerance="10"
     inkscape:pageopacity="0"
     inkscape:pageshadow="2"
     inkscape:window-width="1377"
     inkscape:window-height="886"
     id="namedview75"
     showgrid="false"
     inkscape:zoom="6.2890624"
     inkscape:cx="47.622361"
     inkscape:cy="45.396274"
     inkscape:window-x="28"
     inkscape:window-y="57"
     inkscape:window-maximized="0"
     inkscape:current-layer="g877"
     inkscape:document-rotation="0"
     inkscape:pagecheckerboard="0"
     inkscape:showpageshadow="2"
     inkscape:deskcolor="#d1d1d1" />
  <defs
     id="defs29" />
  <circle
     cx="32.516094"
     cy="31.877844"
     r="0"
     fill="url(#b)"
     stroke-width="1.5715"
     id="circle41"
     style="fill:url(#b)" />
  <g
     aria-label="GZ"
     transform="matrix(1.2212657,0,0,0.81882264,0.4960938,-0.1661539)"
     id="text93"
     style="font-weight:bold;font-size:11.5263px;line-height:1.25;font-family:sans-serif;-inkscape-font-specification:'sans-serif Bold';fill:#f2f2f2;stroke-width:0.288159" />
  <g
     id="g877"
     transform="matrix(1.1,0,0,1.1,-3.1845928,-3.2065454)">
    <path
       id="path7-62"
       style="fill:#dfdfdf;fill-opacity:1;stroke:none;stroke-width:1.58976;stroke-dasharray:none;stroke-opacity:0.3"
       d="m 32.148521,6.5796571 c -5.372385,-0.040208 -10.753612,2.0469368 -14.975328,6.2689589 -6.157597,6.15804 -8.3859822,15.454909 -5.710067,23.824532 1.460918,4.569395 4.774815,9.240871 8.228204,11.594015 0.577192,0.393363 1.049486,0.78995 1.049486,0.881824 0,0.3941 1.361873,2.830667 2.12381,3.800486 1.784337,2.271188 4.752478,3.991458 7.647572,4.437021 0.897471,0.138137 3.396827,-0.05001 4.464965,-0.335395 3.279135,-0.876792 6.057146,-3.260176 7.691037,-6.601202 0.646041,-1.321074 0.876278,-1.601189 2.089652,-2.530561 3.509508,-2.688041 6.208132,-6.536119 7.660014,-10.926435 C 55.190089,28.610006 53.095052,19.250486 47.064865,13.072183 42.882748,8.7873446 37.520915,6.6198025 32.148521,6.5796571 Z M 45.947069,29.416804 c 0.86295,-0.03651 1.695586,0.0032 2.275951,0.127283 0.524837,0.112058 0.554119,0.167887 0.704823,1.391035 0.201329,1.634448 -0.08147,4.032582 -0.679978,5.753533 -1.415225,4.069478 -4.922536,7.185667 -8.942356,7.945643 -2.096336,0.396327 -4.394713,0.273969 -4.660576,-0.24521 -0.285457,-0.557528 -0.388059,-2.54747 -0.204936,-3.99607 0.667582,-5.280718 4.169465,-9.400802 9.054126,-10.650091 0.695404,-0.177856 1.58999,-0.28953 2.452939,-0.326034 z m -27.553621,0.0094 c 2.887958,0.102905 5.220932,1.181654 7.483011,3.421697 1.274479,1.262061 1.71422,1.849843 2.32563,3.108092 1.200739,2.471011 1.636033,4.706066 1.403455,7.188037 -0.09629,1.027339 -0.201953,1.394852 -0.431605,1.484172 -0.167921,0.06512 -1.003129,0.150871 -1.856777,0.189368 -5.639559,0.254501 -10.68893,-3.759975 -11.969706,-9.516792 -0.293476,-1.319085 -0.334385,-5.364405 -0.05589,-5.641759 0.06606,-0.06578 0.890629,-0.164655 1.828837,-0.217335 0.43664,-0.02453 0.860478,-0.03026 1.273044,-0.01547 z" />
  </g>
</svg>
