<?xml version="1.0" encoding="UTF-8" standalone="no"?>
<svg
   width="64"
   height="64"
   version="1.1"
   id="svg73"
   sodipodi:docname="amarok.svg"
   inkscape:version="1.4.2 (ebf0e940d0, 2025-05-08)"
   xmlns:inkscape="http://www.inkscape.org/namespaces/inkscape"
   xmlns:sodipodi="http://sodipodi.sourceforge.net/DTD/sodipodi-0.dtd"
   xmlns="http://www.w3.org/2000/svg"
   xmlns:svg="http://www.w3.org/2000/svg"
   xmlns:rdf="http://www.w3.org/1999/02/22-rdf-syntax-ns#"
   xmlns:cc="http://creativecommons.org/ns#"
   xmlns:dc="http://purl.org/dc/elements/1.1/">
  <metadata
     id="metadata77">
    <rdf:RDF>
      <cc:Work
         rdf:about="">
        <dc:format>image/svg+xml</dc:format>
        <dc:type
           rdf:resource="http://purl.org/dc/dcmitype/StillImage" />
      </cc:Work>
    </rdf:RDF>
  </metadata>
  <sodipodi:namedview
     pagecolor="#f5f7fa"
     bordercolor="#666666"
     borderopacity="1"
     objecttolerance="10"
     gridtolerance="10"
     guidetolerance="10"
     inkscape:pageopacity="0"
     inkscape:pageshadow="2"
     inkscape:window-width="1377"
     inkscape:window-height="886"
     id="namedview75"
     showgrid="false"
     inkscape:zoom="6.2890624"
     inkscape:cx="47.622361"
     inkscape:cy="45.396274"
     inkscape:window-x="28"
     inkscape:window-y="57"
     inkscape:window-maximized="0"
     inkscape:current-layer="g877"
     inkscape:document-rotation="0"
     inkscape:pagecheckerboard="0"
     inkscape:showpageshadow="2"
     inkscape:deskcolor="#d1d1d1" />
  <defs
     id="defs29" />
  <circle
     cx="32.516094"
     cy="31.877844"
     r="0"
     fill="url(#b)"
     stroke-width="1.5715"
     id="circle41"
     style="fill:url(#b)" />
  <g
     aria-label="GZ"
     transform="matrix(1.2212657,0,0,0.81882264,0.4960938,-0.1661539)"
     id="text93"
     style="font-weight:bold;font-size:11.5263px;line-height:1.25;font-family:sans-serif;-inkscape-font-specification:'sans-serif Bold';fill:#f2f2f2;stroke-width:0.288159" />
  <g
     id="g877"
     transform="matrix(1.1,0,0,1.1,-3.1845928,-3.2065454)">
    <path
       style="fill:#dfdfdf;fill-opacity:1;stroke-width:0.0668076"
       d="M 31.341086,59.508139 C 28.576457,59.302926 25.930848,58.663727 23.47093,57.606685 21.653579,56.825763 18.459854,54.893946 16.355932,53.302984 12.732308,50.562819 10.440539,47.747143 9.8789089,45.345322 9.7589616,44.832375 9.7516917,44.598221 9.8453149,44.261236 9.9593695,43.850498 10.549138,43.043041 11.338809,42.216364 12.666962,40.825965 12.731015,40.70868 12.263974,40.522276 11.839168,40.352737 10.939857,39.571449 9.4390046,38.068082 7.3312661,35.956818 5.688679,33.986237 5.3945159,33.215974 5.2837368,32.925962 5.2841893,32.911427 5.4063739,32.819962 c 0.069672,-0.05228 1.1489265,-0.581648 2.398221,-1.176506 1.2492887,-0.594852 2.8426461,-1.368835 3.5407851,-1.719961 l 1.269362,-0.638414 1.536571,-1.50835 c 1.431944,-1.405654 2.266396,-2.148591 2.618851,-2.331636 0.08083,-0.04193 0.486702,-0.134683 0.901904,-0.206057 1.327609,-0.228088 2.828397,-0.733013 3.496151,-1.176244 0.548121,-0.363821 1.446104,-1.168468 3.906114,-3.500086 2.902301,-2.750819 3.228467,-3.038851 3.707814,-3.274273 0.797775,-0.391812 2.136716,-0.548069 4.57169,-0.533536 1.943444,0.01125 2.116297,-0.01786 2.805636,-0.478185 0.22516,-0.15039 0.546773,-0.443205 0.714683,-0.650776 0.167892,-0.207556 0.520337,-0.568798 0.783166,-0.802719 1.751719,-1.559078 6.742194,-5.2912346 9.097089,-6.8032792 0.183204,-0.1175878 0.874138,-0.7141151 1.535524,-1.3255753 1.761197,-1.6282425 2.611782,-2.2328746 3.143543,-2.2345769 0.288749,-9.224e-4 0.512049,0.252154 1.55005,1.756028 1.291667,1.8714486 1.558525,2.4951002 1.456126,3.4029808 -0.06525,0.5798656 -0.226004,0.9758596 -0.942206,2.3240186 -1.301632,2.449975 -2.908796,5.837338 -3.581214,7.548006 -0.533323,1.356965 -0.650739,2.002394 -0.404596,2.225144 0.355091,0.321323 1.109437,0.456183 2.551909,0.456183 1.867426,0 2.003839,-0.03133 3.675449,-0.845239 0.790016,-0.384629 1.563575,-0.718353 1.719082,-0.741593 0.256743,-0.03834 0.300794,-0.023 0.479452,0.16835 0.346577,0.37105 0.632476,1.43739 0.709278,2.645392 0.07583,1.186679 -0.170512,1.45875 -1.671935,1.850529 -2.88675,0.75322 -8.352707,4.798997 -10.237602,7.577632 -0.889978,1.311975 -1.482433,3.397536 -2.04734,7.206897 -0.515827,3.478452 -1.038993,9.711679 -1.171942,13.962767 -0.07332,2.340563 -0.142734,2.912252 -0.430544,3.540948 -0.08965,0.195811 -0.239302,0.405972 -0.332676,0.467225 -0.389309,0.255123 -3.169829,0.911866 -5.220865,1.233236 -1.652719,0.258841 -4.606078,0.387753 -6.192815,0.269808 z M 27.082259,29.211647 c 0.126578,-0.0917 0.86143,-0.809575 1.633059,-1.595332 1.488013,-1.515253 2.073781,-2.00272 2.550998,-2.122885 0.739525,-0.186191 1.770791,-1.153688 2.225279,-2.087636 0.144872,-0.297649 0.280006,-0.646399 0.30035,-0.77501 0.06549,-0.414011 0.01406,-0.435419 -1.016064,-0.42444 -1.069216,0.01137 -1.693503,0.145502 -2.485657,0.534071 -0.8322,0.408184 -1.700215,1.414731 -2.49804,2.896709 -0.789289,1.466122 -1.41385,3.569437 -1.097786,3.696971 0.136263,0.05496 0.148055,0.05129 0.387861,-0.122452 z"
       id="path6" />
  </g>
</svg>
