<?xml version="1.0" encoding="UTF-8" standalone="no"?>
<svg
   width="64"
   height="64"
   version="1.1"
   id="svg73"
   sodipodi:docname="androidstudio.svg"
   inkscape:version="1.4.2 (ebf0e940d0, 2025-05-08)"
   xmlns:inkscape="http://www.inkscape.org/namespaces/inkscape"
   xmlns:sodipodi="http://sodipodi.sourceforge.net/DTD/sodipodi-0.dtd"
   xmlns="http://www.w3.org/2000/svg"
   xmlns:svg="http://www.w3.org/2000/svg"
   xmlns:rdf="http://www.w3.org/1999/02/22-rdf-syntax-ns#"
   xmlns:cc="http://creativecommons.org/ns#"
   xmlns:dc="http://purl.org/dc/elements/1.1/">
  <metadata
     id="metadata77">
    <rdf:RDF>
      <cc:Work
         rdf:about="">
        <dc:format>image/svg+xml</dc:format>
        <dc:type
           rdf:resource="http://purl.org/dc/dcmitype/StillImage" />
      </cc:Work>
    </rdf:RDF>
  </metadata>
  <sodipodi:namedview
     pagecolor="#f5f7fa"
     bordercolor="#666666"
     borderopacity="1"
     objecttolerance="10"
     gridtolerance="10"
     guidetolerance="10"
     inkscape:pageopacity="0"
     inkscape:pageshadow="2"
     inkscape:window-width="1377"
     inkscape:window-height="886"
     id="namedview75"
     showgrid="false"
     inkscape:zoom="6.2890624"
     inkscape:cx="47.622361"
     inkscape:cy="45.396274"
     inkscape:window-x="147"
     inkscape:window-y="75"
     inkscape:window-maximized="0"
     inkscape:current-layer="g877"
     inkscape:document-rotation="0"
     inkscape:pagecheckerboard="0"
     inkscape:showpageshadow="2"
     inkscape:deskcolor="#d1d1d1" />
  <defs
     id="defs29" />
  <circle
     cx="32.516094"
     cy="31.877844"
     r="0"
     fill="url(#b)"
     stroke-width="1.5715"
     id="circle41"
     style="fill:url(#b)" />
  <g
     aria-label="GZ"
     transform="matrix(1.2212657,0,0,0.81882264,0.4960938,-0.1661539)"
     id="text93"
     style="font-weight:bold;font-size:11.5263px;line-height:1.25;font-family:sans-serif;-inkscape-font-specification:'sans-serif Bold';fill:#f2f2f2;stroke-width:0.288159" />
  <g
     id="g877"
     transform="matrix(1.1,0,0,1.1,-3.1845928,-3.2065454)">
    <path
       id="path7"
       style="fill:#dfdfdf;fill-opacity:1;stroke:none;stroke-width:0.913635;stroke-dasharray:none;stroke-opacity:0.6"
       d="m 10.536779,15.639199 c -0.242942,0.0061 -0.469735,0.106194 -0.8743504,0.307255 -1.1386771,0.56577 -1.7847467,1.491868 -1.7847467,2.556685 0,0.708246 0.4332394,1.521703 2.4732281,4.635415 l 2.473231,3.774323 1.951656,-1.564733 c 1.073497,-0.861313 2.036899,-1.566637 2.139418,-1.566637 0.434972,0 0.06271,-0.704227 -2.114769,-4.009511 -2.100552,-3.188477 -2.387361,-3.525356 -3.292577,-3.871059 -0.469425,-0.179281 -0.728142,-0.267788 -0.97109,-0.261738 z m 42.7277,0.142267 c -0.48761,0.0064 -0.966496,0.179689 -1.403524,0.523484 -0.612023,0.481453 -4.893351,6.792106 -4.893351,7.21295 0,0.11132 0.385155,0.458741 0.855391,0.771933 0.470199,0.313195 1.366794,0.994971 1.991483,1.513522 0.624645,0.518549 1.188684,0.939571 1.253685,0.936945 0.06487,-0.0029 1.196376,-1.669557 2.51306,-3.704149 2.102053,-3.248208 2.393563,-3.819533 2.393563,-4.68662 0,-0.849112 -0.119294,-1.096576 -0.8516,-1.767678 -0.588926,-0.539645 -1.231725,-0.808385 -1.858707,-0.800387 z M 31.728034,19.58235 c -3.037471,0.01894 -6.032688,0.548981 -8.927522,1.589389 -9.975799,3.585305 -17.1624952,12.546406 -18.6876774,23.300325 -0.2786183,1.964558 -0.017716,2.881495 0.9919463,3.499311 0.6906049,0.422603 1.4756202,0.433618 27.1201731,0.377455 l 26.408939,-0.05711 0.665697,-0.745391 c 0.789692,-0.883872 0.84964,-1.763136 0.314898,-4.582313 C 57.554377,32.104374 49.252625,23.10262 38.867017,20.468095 36.478573,19.862215 34.090514,19.567652 31.728034,19.582354 Z M 18.540641,34.952778 c 1.134092,0 2.009101,0.54934 2.554781,1.604567 0.679582,1.314166 0.184915,3.09434 -1.0735,3.861576 -2.074587,1.264838 -4.609661,-0.193693 -4.572817,-2.630648 0.02653,-1.756271 1.202779,-2.835495 3.091536,-2.835495 z m 27.15621,0 c 2.900888,0 3.934146,3.955651 1.431968,5.481315 -0.925865,0.564519 -2.123893,0.568298 -3.040321,0.0095 -1.030366,-0.628281 -1.452843,-1.348864 -1.452843,-2.484606 0,-1.854635 1.1732,-3.006191 3.061196,-3.006191 z" />
  </g>
</svg>
