<?xml version="1.0" encoding="UTF-8" standalone="no"?>
<svg
   width="64"
   height="64"
   version="1.1"
   id="svg73"
   sodipodi:docname="anydesk.svg"
   inkscape:version="1.4.2 (ebf0e940d0, 2025-05-08)"
   xmlns:inkscape="http://www.inkscape.org/namespaces/inkscape"
   xmlns:sodipodi="http://sodipodi.sourceforge.net/DTD/sodipodi-0.dtd"
   xmlns="http://www.w3.org/2000/svg"
   xmlns:svg="http://www.w3.org/2000/svg"
   xmlns:rdf="http://www.w3.org/1999/02/22-rdf-syntax-ns#"
   xmlns:cc="http://creativecommons.org/ns#"
   xmlns:dc="http://purl.org/dc/elements/1.1/">
  <metadata
     id="metadata77">
    <rdf:RDF>
      <cc:Work
         rdf:about="">
        <dc:format>image/svg+xml</dc:format>
        <dc:type
           rdf:resource="http://purl.org/dc/dcmitype/StillImage" />
      </cc:Work>
    </rdf:RDF>
  </metadata>
  <sodipodi:namedview
     pagecolor="#f5f7fa"
     bordercolor="#666666"
     borderopacity="1"
     objecttolerance="10"
     gridtolerance="10"
     guidetolerance="10"
     inkscape:pageopacity="0"
     inkscape:pageshadow="2"
     inkscape:window-width="1377"
     inkscape:window-height="886"
     id="namedview75"
     showgrid="false"
     inkscape:zoom="6.2890624"
     inkscape:cx="47.622361"
     inkscape:cy="45.396274"
     inkscape:window-x="28"
     inkscape:window-y="57"
     inkscape:window-maximized="0"
     inkscape:current-layer="g877"
     inkscape:document-rotation="0"
     inkscape:pagecheckerboard="0"
     inkscape:showpageshadow="2"
     inkscape:deskcolor="#d1d1d1" />
  <defs
     id="defs29" />
  <circle
     cx="32.516094"
     cy="31.877844"
     r="0"
     fill="url(#b)"
     stroke-width="1.5715"
     id="circle41"
     style="fill:url(#b)" />
  <g
     aria-label="GZ"
     transform="matrix(1.2212657,0,0,0.81882264,0.4960938,-0.1661539)"
     id="text93"
     style="font-weight:bold;font-size:11.5263px;line-height:1.25;font-family:sans-serif;-inkscape-font-specification:'sans-serif Bold';fill:#f2f2f2;stroke-width:0.288159" />
  <g
     id="g877"
     transform="matrix(1.1,0,0,1.1,-3.1845928,-3.2065454)">
    <path
       id="path6-3"
       style="fill:#dfdfdf;fill-opacity:1;stroke:none;stroke-width:0.820405;stroke-dasharray:none;stroke-opacity:0.6"
       d="m 25.506057,10.834387 c -1.022389,7.2e-4 -1.201848,0.03191 -1.775021,0.321699 -0.527061,0.266522 -2.203788,1.88836 -9.668003,9.351983 -10.3027545,10.301946 -9.7112448,9.60527 -9.7077403,11.480875 0.00173,0.881373 0.047131,1.125229 0.3311661,1.761774 0.3096319,0.693898 0.8651264,1.276352 9.0397432,9.47687 4.790266,4.805455 8.960743,8.923394 9.268719,9.151401 0.307979,0.228105 0.819713,0.507355 1.137303,0.620658 0.435484,0.155414 0.831678,0.197092 1.608496,0.170336 1.567967,-0.05409 1.978367,-0.297785 4.201012,-2.488431 l 1.820429,-1.792048 -1.247058,-1.254621 -1.248952,-1.254635 -1.547939,1.532817 -1.547941,1.534689 h -0.613116 -0.615018 l -8.333895,-8.332015 c -6.062513,-6.060417 -8.3682581,-8.434196 -8.4606856,-8.714256 -0.2752552,-0.83403 -0.451493,-0.635982 8.4020226,-9.486335 7.339608,-7.337 8.329528,-8.285281 8.699122,-8.345254 0.743748,-0.120674 0.99533,0.03397 2.535746,1.559294 l 1.483596,1.46846 1.218676,-1.224352 1.220563,-1.224346 -1.905594,-1.882886 c -2.323631,-2.294832 -2.569205,-2.432831 -4.295631,-2.43167 z m 13.17074,0.677466 c -1.110034,0.0074 -1.65751,0.63098 -10.421157,9.372798 -6.80777,6.790806 -9.034993,9.079099 -9.257364,9.510935 -0.394796,0.766668 -0.47396,1.84395 -0.200585,2.745795 0.199923,0.659527 0.293347,0.756793 9.200595,9.688825 8.539815,8.563583 9.326038,9.304141 10.190292,9.58852 0.502874,0.165499 1.834523,0.03984 2.444914,-0.229037 0.473805,-0.209047 2.046093,-1.725097 9.418216,-9.088938 9.954761,-9.943514 9.573088,-9.500776 9.569599,-11.104226 -0.0037,-1.622024 0.453977,-1.091186 -9.522292,-11.053187 -9.869991,-9.855936 -9.34761,-9.401638 -10.88668,-9.418227 -0.207194,-0.0025 -0.376951,-0.01436 -0.535529,-0.01291 z" />
  </g>
</svg>
