<?xml version="1.0" encoding="UTF-8" standalone="no"?>
<svg
   width="64"
   height="64"
   version="1.1"
   id="svg73"
   sodipodi:docname="app.grayjay.Grayjay.svg"
   inkscape:version="1.4.2 (ebf0e940d0, 2025-05-08)"
   xmlns:inkscape="http://www.inkscape.org/namespaces/inkscape"
   xmlns:sodipodi="http://sodipodi.sourceforge.net/DTD/sodipodi-0.dtd"
   xmlns="http://www.w3.org/2000/svg"
   xmlns:svg="http://www.w3.org/2000/svg"
   xmlns:rdf="http://www.w3.org/1999/02/22-rdf-syntax-ns#"
   xmlns:cc="http://creativecommons.org/ns#"
   xmlns:dc="http://purl.org/dc/elements/1.1/">
  <metadata
     id="metadata77">
    <rdf:RDF>
      <cc:Work
         rdf:about="">
        <dc:format>image/svg+xml</dc:format>
        <dc:type
           rdf:resource="http://purl.org/dc/dcmitype/StillImage" />
      </cc:Work>
    </rdf:RDF>
  </metadata>
  <sodipodi:namedview
     pagecolor="#f5f7fa"
     bordercolor="#666666"
     borderopacity="1"
     objecttolerance="10"
     gridtolerance="10"
     guidetolerance="10"
     inkscape:pageopacity="0"
     inkscape:pageshadow="2"
     inkscape:window-width="1377"
     inkscape:window-height="886"
     id="namedview75"
     showgrid="false"
     inkscape:zoom="6.2890624"
     inkscape:cx="46.986336"
     inkscape:cy="42.21615"
     inkscape:window-x="226"
     inkscape:window-y="75"
     inkscape:window-maximized="0"
     inkscape:current-layer="g877"
     inkscape:document-rotation="0"
     inkscape:pagecheckerboard="0"
     inkscape:showpageshadow="2"
     inkscape:deskcolor="#d1d1d1" />
  <defs
     id="defs29" />
  <circle
     cx="32.516094"
     cy="31.877844"
     r="0"
     fill="url(#b)"
     stroke-width="1.5715"
     id="circle41"
     style="fill:url(#b)" />
  <g
     aria-label="GZ"
     transform="matrix(1.2212657,0,0,0.81882264,0.4960938,-0.1661539)"
     id="text93"
     style="font-weight:bold;font-size:11.5263px;line-height:1.25;font-family:sans-serif;-inkscape-font-specification:'sans-serif Bold';fill:#f2f2f2;stroke-width:0.288159" />
  <g
     id="g877"
     transform="matrix(1.1,0,0,1.1,-3.1845928,-3.2065454)">
    <path
       id="path3211"
       style="fill:#dfdfdf;fill-opacity:1;stroke:none;stroke-width:0.155316;stroke-opacity:1"
       d="m 44.734676,8.7527827 c -1.866119,-0.029271 -3.497879,0.714252 -5.022497,2.2583113 -0.366386,0.371055 -0.876663,1.039846 -1.132787,1.486176 -0.452475,0.788484 -0.967857,1.278493 -2.79566,2.657692 -1.702658,1.284766 -4.20243,4.122729 -7.687456,8.723421 -2.205998,2.912203 -4.113369,5.609234 -5.325062,7.532546 -2.084634,3.308916 -3.873033,5.329601 -6.16255,6.96131 -0.694815,0.495181 -1.771119,1.370575 -2.39144,1.943649 l -1.127944,1.040806 0.258994,0.501039 c 0.258556,0.5 0.257954,0.501941 -0.249313,0.963353 -0.380337,0.345961 -0.441342,0.463754 -0.242047,0.467153 0.146492,0.0022 0.341831,0.143832 0.433268,0.314662 0.09141,0.170851 0.196627,0.312243 0.234784,0.312243 0.03816,0 0.884081,-0.703043 1.878297,-1.561211 0.994215,-0.858171 1.83356,-1.533329 1.866193,-1.500702 0.03264,0.03265 -0.08066,0.466137 -0.251732,0.963355 -0.171061,0.497218 -0.312239,0.9425 -0.312239,0.989977 0,0.04749 0.349854,-0.25704 0.776972,-0.677734 l 0.776973,-0.764872 v 0.60028 c 0,0.596939 0.0058,0.590116 1.098903,-1.065015 1.23032,-1.862863 2.982798,-3.819524 3.420144,-3.819524 0.49815,0 3.962097,-1.197382 5.36863,-1.856508 l 1.35063,-0.634168 0.476837,0.428426 c 0.262537,0.234665 0.948293,0.880607 1.524901,1.435349 l 1.04807,1.006921 v -1.49344 c 0,-1.613626 0.03948,-1.68217 0.907682,-1.679816 0.383357,10e-4 0.431699,0.07954 0.668054,1.060173 0.26485,1.098844 1.313701,3.69674 1.551528,3.843725 0.07457,0.04609 0.135546,-0.401776 0.135546,-0.994818 0,-0.986899 0.0287,-1.085793 0.348552,-1.171514 0.730399,-0.195742 1.010993,-0.113365 1.120684,0.329186 0.123491,0.498244 1.270946,2.839035 1.503119,3.066754 0.107569,0.105523 0.121696,-0.803547 0.046,-2.834387 -0.09747,-2.614262 -0.07954,-2.989297 0.125873,-2.989297 0.129187,0 0.434563,-0.04055 0.680158,-0.08957 0.430456,-0.08595 0.453757,-0.05887 0.641428,0.73825 0.107063,0.454787 0.470374,1.400018 0.806021,2.100978 0.607879,1.269485 1.844845,3.230906 1.963007,3.11274 0.05206,-0.05206 -1.078426,-3.545578 -1.399037,-4.322981 -0.07439,-0.180404 0.06487,-0.318984 0.527668,-0.52767 0.346112,-0.156058 0.646342,-0.257405 0.668054,-0.222681 1.438757,2.300839 2.518427,3.410712 4.52146,4.649746 1.194909,0.739144 3.682107,1.762862 4.066412,1.672556 0.109604,-0.02575 -0.503203,-0.995959 -1.423244,-2.25347 -0.888909,-1.214957 -1.616884,-2.30492 -1.616884,-2.420484 0,-0.115555 0.172746,-0.371822 0.382439,-0.568815 l 0.380017,-0.358228 1.019021,0.433264 c 0.560119,0.23805 1.054332,0.397959 1.096481,0.355811 0.107217,-0.107228 -2.351393,-3.032958 -4.807081,-5.722023 -1.624458,-1.778839 -2.268761,-2.619995 -3.018341,-3.942965 -0.924416,-1.631533 -1.108879,-2.110665 -0.810866,-2.110665 0.2936,0 1.12958,-0.999347 1.578159,-1.887976 0.502019,-0.994497 1.069877,-2.980965 1.46681,-5.141106 0.241282,-1.313082 0.277038,-1.390145 1.021444,-2.08645 0.952803,-0.891237 1.913158,-2.760755 2.24621,-4.376237 0.129905,-0.630115 0.341341,-1.349544 0.469572,-1.597516 C 49.642831,9.5872834 49.640172,9.5816327 49.268255,9.6749776 49.031842,9.7343226 48.344642,9.5837106 47.435948,9.2707584 46.478656,8.9410642 45.582912,8.7660718 44.734673,8.7527695 Z M 4.3997442,13.005573 4.627268,13.356545 c 0.1249676,0.192201 3.3203227,5.08331 7.09928,10.870389 l 6.869332,10.521843 0.668054,-0.803605 c 0.367353,-0.442361 1.114417,-1.492803 1.65803,-2.333344 5.203571,-8.045847 11.812293,-16.260537 14.397035,-17.892212 0.340579,-0.214997 0.666364,-0.462987 0.721304,-0.55187 0.06893,-0.11155 -4.817558,-0.16217 -15.769449,-0.16217 z m 50.4307728,0 c -4.376337,0 -4.747972,0.02262 -4.833707,0.273514 -0.374327,1.095424 -1.274943,2.651102 -1.972694,3.410461 -0.783436,0.852611 -0.83749,0.970401 -1.091636,2.297041 -0.566087,2.954959 -1.207324,4.771297 -2.142132,6.072993 l -0.5083,0.709198 0.539769,1.026283 c 0.297264,0.564959 1.129441,1.679504 1.849248,2.476158 0.719809,0.796656 1.357391,1.394936 1.415982,1.328847 0.08772,-0.09893 5.045399,-7.693245 10.347569,-15.846905 l 1.137626,-1.74759 z m -25.514315,23.258423 -1.493441,0.64143 c -0.822598,0.352841 -2.210828,0.852365 -3.083694,1.111002 -1.370184,0.405983 -1.675393,0.559346 -2.229265,1.125526 l -0.641429,0.655949 5.056389,7.731025 5.05639,7.73102 2.265573,-3.458869 c 1.245947,-1.903017 2.965485,-4.530419 3.81952,-5.838205 l 1.551532,-2.376915 -0.699521,-0.728565 c -0.385153,-0.400673 -0.927771,-1.073037 -1.205401,-1.493437 l -0.505879,-0.764875 v 1.580576 c 0,0.868874 -0.05514,1.578154 -0.123437,1.578154 -0.167183,0 -1.884355,-2.491886 -2.570552,-3.729963 -0.553198,-0.998115 -0.594692,-1.002616 -0.79634,-0.08957 l -0.09923,0.452634 -0.883476,-0.839908 c -0.48617,-0.461317 -1.453014,-1.388434 -2.149384,-2.062244 z m 11.061605,2.99172 c -0.0354,0 -0.06293,0.697298 -0.06293,1.551529 0,0.854229 0.02673,1.553948 0.06051,1.553948 0.03381,0 0.282742,-0.343052 0.551874,-0.762449 l 0.488937,-0.762454 -0.486517,-0.791497 c -0.267538,-0.43483 -0.516474,-0.789077 -0.551854,-0.789077 z" />
  </g>
</svg>
