<?xml version="1.0" encoding="UTF-8" standalone="no"?>
<svg
   width="64"
   height="64"
   version="1.1"
   id="svg73"
   sodipodi:docname="appimagekit-draw.io.svg"
   inkscape:version="1.4.2 (ebf0e940d0, 2025-05-08)"
   xmlns:inkscape="http://www.inkscape.org/namespaces/inkscape"
   xmlns:sodipodi="http://sodipodi.sourceforge.net/DTD/sodipodi-0.dtd"
   xmlns="http://www.w3.org/2000/svg"
   xmlns:svg="http://www.w3.org/2000/svg"
   xmlns:rdf="http://www.w3.org/1999/02/22-rdf-syntax-ns#"
   xmlns:cc="http://creativecommons.org/ns#"
   xmlns:dc="http://purl.org/dc/elements/1.1/">
  <metadata
     id="metadata77">
    <rdf:RDF>
      <cc:Work
         rdf:about="">
        <dc:format>image/svg+xml</dc:format>
        <dc:type
           rdf:resource="http://purl.org/dc/dcmitype/StillImage" />
      </cc:Work>
    </rdf:RDF>
  </metadata>
  <sodipodi:namedview
     pagecolor="#f5f7fa"
     bordercolor="#666666"
     borderopacity="1"
     objecttolerance="10"
     gridtolerance="10"
     guidetolerance="10"
     inkscape:pageopacity="0"
     inkscape:pageshadow="2"
     inkscape:window-width="1377"
     inkscape:window-height="886"
     id="namedview75"
     showgrid="false"
     inkscape:zoom="6.2890624"
     inkscape:cx="47.622361"
     inkscape:cy="45.396274"
     inkscape:window-x="0"
     inkscape:window-y="75"
     inkscape:window-maximized="0"
     inkscape:current-layer="g877"
     inkscape:document-rotation="0"
     inkscape:pagecheckerboard="0"
     inkscape:showpageshadow="2"
     inkscape:deskcolor="#d1d1d1" />
  <defs
     id="defs29" />
  <circle
     cx="32.516094"
     cy="31.877844"
     r="0"
     fill="url(#b)"
     stroke-width="1.5715"
     id="circle41"
     style="fill:url(#b)" />
  <g
     aria-label="GZ"
     transform="matrix(1.2212657,0,0,0.81882264,0.4960938,-0.1661539)"
     id="text93"
     style="font-weight:bold;font-size:11.5263px;line-height:1.25;font-family:sans-serif;-inkscape-font-specification:'sans-serif Bold';fill:#f2f2f2;stroke-width:0.288159" />
  <g
     id="g877"
     transform="matrix(1.1,0,0,1.1,-3.1845928,-3.2065454)">
    <path
       style="fill:#dfdfdf;fill-opacity:1;stroke:none;stroke-width:0.895456;stroke-dasharray:none;stroke-opacity:0.6"
       d="M 7.2946507,57.172816 C 5.9782433,56.749393 4.9924862,55.713316 4.6558603,54.399363 4.5327029,53.918615 4.5175175,53.068786 4.5398237,47.908165 c 0.025489,-5.916017 0.026354,-5.939888 0.2279111,-6.434078 0.4081153,-1.000801 1.2774045,-1.870023 2.2778543,-2.277705 0.4835632,-0.19704 0.6034875,-0.203256 4.7733629,-0.247372 l 4.277328,-0.04521 4.044761,-6.889354 c 2.224615,-3.789165 4.032704,-6.90143 4.017972,-6.916159 -0.01514,-0.01497 -0.22533,-0.111913 -0.467981,-0.215903 -1.030653,-0.441804 -1.801387,-1.258657 -2.185149,-2.315932 l -0.210847,-0.580849 v -6.069364 c 0,-5.724248 0.01045,-6.0976378 0.171044,-6.5665381 C 21.895918,8.1003638 22.865856,7.162717 24.09932,6.8041444 24.54776,6.673733 25.422083,6.660809 32.260056,6.682664 l 7.658478,0.024551 0.610094,0.2983521 c 1.183481,0.5787515 2.026428,1.7115184 2.227607,2.9934551 0.05479,0.3509718 0.09163,2.7576288 0.09109,5.9973988 -9.33e-4,5.777208 -0.02514,6.153974 -0.452849,7.002437 -0.445549,0.884138 -1.41222,1.730621 -2.269862,1.987576 -0.241464,0.07231 -0.333702,0.144039 -0.2996,0.232893 0.02706,0.07064 1.844912,3.188557 4.039597,6.928791 l 3.99033,6.800412 4.058383,0.0013 c 4.389847,0.0014 4.561906,0.01702 5.443541,0.496896 0.574733,0.312795 1.274837,1.011589 1.58562,1.582583 0.476311,0.875066 0.498286,1.189575 0.498286,7.118644 0,5.954232 -0.01987,6.240811 -0.511128,7.142176 -0.482813,0.887069 -1.271542,1.536234 -2.278853,1.875573 -0.543548,0.183094 -0.67793,0.185717 -8.196299,0.161195 l -7.64365,-0.02509 -0.678367,-0.335271 c -0.840158,-0.415523 -1.50836,-1.094854 -1.90935,-1.941384 l -0.288737,-0.609514 -0.025,-6.078599 c -0.02833,-6.896511 -0.05174,-6.634919 0.680514,-7.59922 0.844828,-1.112499 2.038224,-1.682077 3.700309,-1.766062 0.658587,-0.03329 0.920899,-0.07842 0.901861,-0.15522 -0.01481,-0.05955 -1.807028,-3.139029 -3.982842,-6.843288 l -3.956026,-6.735016 -3.159521,0.0237 -3.159527,0.02369 -3.998935,6.809076 -3.998934,6.80908 0.801112,0.0634 c 2.223512,0.17611 3.519103,0.902096 4.075441,2.283678 l 0.216987,0.538822 v 6.222886 6.222866 l -0.206843,0.544799 c -0.390818,1.029223 -1.243741,1.899415 -2.27328,2.319275 l -0.496026,0.202293 -7.620752,0.01951 c -7.1907227,0.01823 -7.6499548,0.0085 -8.1382479,-0.147716 z"
       id="path2-2" />
  </g>
</svg>
