<?xml version="1.0" encoding="UTF-8" standalone="no"?>
<svg
   width="64"
   height="64"
   version="1.1"
   id="svg73"
   sodipodi:docname="appimagekit-beekeeper-studio.svg"
   inkscape:version="1.4.2 (ebf0e940d0, 2025-05-08)"
   xmlns:inkscape="http://www.inkscape.org/namespaces/inkscape"
   xmlns:sodipodi="http://sodipodi.sourceforge.net/DTD/sodipodi-0.dtd"
   xmlns="http://www.w3.org/2000/svg"
   xmlns:svg="http://www.w3.org/2000/svg"
   xmlns:rdf="http://www.w3.org/1999/02/22-rdf-syntax-ns#"
   xmlns:cc="http://creativecommons.org/ns#"
   xmlns:dc="http://purl.org/dc/elements/1.1/">
  <metadata
     id="metadata77">
    <rdf:RDF>
      <cc:Work
         rdf:about="">
        <dc:format>image/svg+xml</dc:format>
        <dc:type
           rdf:resource="http://purl.org/dc/dcmitype/StillImage" />
      </cc:Work>
    </rdf:RDF>
  </metadata>
  <sodipodi:namedview
     pagecolor="#f5f7fa"
     bordercolor="#666666"
     borderopacity="1"
     objecttolerance="10"
     gridtolerance="10"
     guidetolerance="10"
     inkscape:pageopacity="0"
     inkscape:pageshadow="2"
     inkscape:window-width="1377"
     inkscape:window-height="886"
     id="namedview75"
     showgrid="false"
     inkscape:zoom="6.2890624"
     inkscape:cx="47.622361"
     inkscape:cy="45.396274"
     inkscape:window-x="264"
     inkscape:window-y="75"
     inkscape:window-maximized="0"
     inkscape:current-layer="g877"
     inkscape:document-rotation="0"
     inkscape:pagecheckerboard="0"
     inkscape:showpageshadow="2"
     inkscape:deskcolor="#d1d1d1" />
  <defs
     id="defs29" />
  <circle
     cx="32.516094"
     cy="31.877844"
     r="0"
     fill="url(#b)"
     stroke-width="1.5715"
     id="circle41"
     style="fill:url(#b)" />
  <g
     aria-label="GZ"
     transform="matrix(1.2212657,0,0,0.81882264,0.4960938,-0.1661539)"
     id="text93"
     style="font-weight:bold;font-size:11.5263px;line-height:1.25;font-family:sans-serif;-inkscape-font-specification:'sans-serif Bold';fill:#f2f2f2;stroke-width:0.288159" />
  <g
     id="g877"
     transform="matrix(1.1,0,0,1.1,-3.1845928,-3.2065454)">
    <path
       id="path5"
       style="fill:#dfdfdf;fill-opacity:1;stroke:none;stroke-width:0.0435128;stroke-opacity:0.5"
       d="M 31.879217,5.287239 C 31.303687,5.294419 30.727655,5.335834 30.375991,5.4106491 29.056764,5.6912663 28.71593,5.8564978 25.3727,7.8356407 L 23.41327,8.9948449 V 20.261596 31.526467 l 0.231835,0.631954 c 0.791991,2.167097 2.958304,4.178887 5.425836,5.038815 0.647346,0.225595 0.791223,0.243009 2.045443,0.241189 1.238517,-0.0014 1.409259,-0.02198 2.088441,-0.244926 2.658202,-0.872562 4.526706,-2.83236 5.188389,-5.440797 0.238078,-0.938527 0.287867,-2.302282 0.11777,-3.240173 -0.253999,-1.400701 -0.957693,-2.760877 -1.981873,-3.832872 -1.335836,-1.398203 -2.922899,-2.160864 -4.956548,-2.38012 L 31.028478,22.2416 v -2.832595 -2.832581 l 0.805837,0.05052 c 0.917393,0.05735 2.06949,0.364736 2.875582,0.768446 0.29692,0.148698 1.779118,0.995994 3.294394,1.882774 2.931191,1.715412 3.689062,2.27156 4.509689,3.309354 0.890054,1.125579 1.472011,2.360856 1.751898,3.716939 0.141228,0.684203 0.16171,1.210175 0.162682,4.117056 9.33e-4,2.706524 -0.02416,3.458205 -0.136527,4.003001 -0.389799,1.893732 -1.235933,3.418035 -2.625021,4.728434 -0.794773,0.749746 -0.898459,0.818011 -4.070311,2.668048 -2.909259,1.696866 -3.632699,2.035858 -4.913548,2.301585 -1.612922,0.33462 -3.685608,0.102586 -5.180906,-0.577733 C 26.969344,43.30237 22.160303,40.490822 21.34911,39.947552 20.666644,39.490495 19.553171,38.357963 19.075565,37.634743 18.618255,36.942272 18.11516,35.842734 17.873353,35.007839 L 17.67144,34.310445 17.64713,23.367157 c -0.01318,-6.018905 -0.0434,-10.943293 -0.06731,-10.943293 -0.172729,0 -6.009792,3.538055 -6.465383,3.918869 -1.4326845,1.197517 -2.4029912,2.794565 -2.8512797,4.69666 -0.1410508,0.59847 -0.1571042,1.444599 -0.1869593,10.18046 -0.033165,9.697389 -0.00165,10.962345 0.2916683,12.098757 0.4522133,1.749339 1.561549,3.453923 2.9372837,4.515303 0.423104,0.326441 3.978071,2.430354 13.762777,8.142491 4.009576,2.340719 4.573282,2.59005 6.155018,2.735353 0.396,0.03628 0.817059,0.05618 0.936719,0.04289 0.119645,-0.01318 0.47388,-0.04655 0.787136,-0.07294 0.787654,-0.06653 1.746647,-0.345957 2.520344,-0.734787 0.732479,-0.368134 16.278775,-9.457428 16.872074,-9.864479 0.645494,-0.442888 1.534562,-1.339963 2.008041,-2.024876 0.886104,-1.281789 1.340522,-2.558041 1.484534,-4.175013 0.10901,-1.223552 0.10901,-18.484781 0,-19.693438 C 55.602101,19.641337 54.320275,17.37465 52.305567,15.950075 51.75557,15.561187 36.172563,6.4243145 35.424131,6.0519419 34.885191,5.7837986 34.010994,5.4930465 33.378694,5.3732464 33.029949,5.3071889 32.454735,5.2800631 31.879205,5.2872505 Z m -1.80799,11.47989 v 2.780226 c 0,2.99003 0.01562,2.884934 -0.43937,2.884934 -0.09,0 -0.458122,0.09298 -0.818925,0.207533 l -0.656264,0.209409 v -2.862496 c 0,-1.574428 0.01647,-2.862501 0.03736,-2.862493 0.02079,0 0.30575,-0.0551 0.631961,-0.121533 0.326209,-0.06642 0.738524,-0.146163 0.918017,-0.177626 z m -2.871841,0.979721 v 2.798923 2.800793 l -0.40759,0.258017 c -0.224412,0.141784 -0.656543,0.489113 -0.959152,0.772181 l -0.549693,0.514168 0.02246,-3.195298 0.02241,-3.195303 0.936716,-0.377673 z" />
  </g>
</svg>
