<?xml version="1.0" encoding="UTF-8" standalone="no"?>
<svg
   width="64"
   height="64"
   version="1.1"
   id="svg73"
   sodipodi:docname="appimagekit-kitty.svg"
   inkscape:version="1.4.2 (ebf0e940d0, 2025-05-08)"
   xmlns:inkscape="http://www.inkscape.org/namespaces/inkscape"
   xmlns:sodipodi="http://sodipodi.sourceforge.net/DTD/sodipodi-0.dtd"
   xmlns="http://www.w3.org/2000/svg"
   xmlns:svg="http://www.w3.org/2000/svg"
   xmlns:rdf="http://www.w3.org/1999/02/22-rdf-syntax-ns#"
   xmlns:cc="http://creativecommons.org/ns#"
   xmlns:dc="http://purl.org/dc/elements/1.1/">
  <metadata
     id="metadata77">
    <rdf:RDF>
      <cc:Work
         rdf:about="">
        <dc:format>image/svg+xml</dc:format>
        <dc:type
           rdf:resource="http://purl.org/dc/dcmitype/StillImage" />
      </cc:Work>
    </rdf:RDF>
  </metadata>
  <sodipodi:namedview
     pagecolor="#f5f7fa"
     bordercolor="#666666"
     borderopacity="1"
     objecttolerance="10"
     gridtolerance="10"
     guidetolerance="10"
     inkscape:pageopacity="0"
     inkscape:pageshadow="2"
     inkscape:window-width="1377"
     inkscape:window-height="886"
     id="namedview75"
     showgrid="false"
     inkscape:zoom="6.2890624"
     inkscape:cx="47.622361"
     inkscape:cy="45.396274"
     inkscape:window-x="264"
     inkscape:window-y="75"
     inkscape:window-maximized="0"
     inkscape:current-layer="g877"
     inkscape:document-rotation="0"
     inkscape:pagecheckerboard="0"
     inkscape:showpageshadow="2"
     inkscape:deskcolor="#d1d1d1" />
  <defs
     id="defs29" />
  <circle
     cx="32.516094"
     cy="31.877844"
     r="0"
     fill="url(#b)"
     stroke-width="1.5715"
     id="circle41"
     style="fill:url(#b)" />
  <g
     aria-label="GZ"
     transform="matrix(1.2212657,0,0,0.81882264,0.4960938,-0.1661539)"
     id="text93"
     style="font-weight:bold;font-size:11.5263px;line-height:1.25;font-family:sans-serif;-inkscape-font-specification:'sans-serif Bold';fill:#f2f2f2;stroke-width:0.288159" />
  <g
     id="g877"
     transform="matrix(1.1,0,0,1.1,-3.1845928,-3.2065454)">
    <path
       d="m 35.431582,25.117862 h 1.840414 c 2.378546,4.122095 6.834275,6.888086 11.93577,6.888086 1.183895,0 2.346255,-0.150646 3.444043,-0.430504 v 0.430504 3.444047 20.664279 c 0,1.904989 -1.539051,3.444044 -3.444043,3.444044 -1.904983,0 -3.444054,-1.539055 -3.444054,-3.444044 V 40.960472 L 31.126523,52.670229 h 6.027085 c 1.904986,0 3.444041,1.53906 3.444041,3.444045 0,1.904989 -1.539055,3.444044 -3.444041,3.444044 H 21.655401 c -5.704205,0 -10.332144,-4.627941 -10.332144,-10.332135 v -24.05451 c 0,-1.732783 -1.29151,-3.207266 -3.0135337,-3.422519 L 7.4594682,21.641549 C 5.5652447,21.415524 4.2306802,19.693501 4.4566947,17.799276 4.6827092,15.905051 6.4154971,14.570479 8.2989576,14.807258 l 0.8502505,0.107635 c 5.1660669,0.645757 9.0513829,5.036918 9.0513829,10.256803 v 9.180529 c 3.702346,-5.56429 10.030784,-9.234349 17.22023,-9.234349 z m 17.220227,2.852099 v 0 c -1.076266,0.376687 -2.238625,0.591941 -3.444043,0.591941 -3.056592,0 -5.811823,-1.334567 -7.706053,-3.444044 v 0 c -0.398218,-0.441267 -0.753383,-0.914823 -1.0655,-1.420664 -0.990162,-1.59287 -1.560584,-3.465576 -1.560584,-5.46743 v 0 V 7.8976286 5.7451027 5.6051783 c 0,-0.6349961 0.505845,-1.14084 1.14084,-1.151601 h 0.02154 c 0.355173,0 0.688809,0.1722127 0.904061,0.4520315 v 0.010648 l 1.377614,1.829649 2.92745,3.9068372 0.516612,0.688809 h 6.888093 l 0.516622,-0.688809 2.927426,-3.9068372 1.377621,-1.829649 v -0.010648 c 0.215286,-0.2798322 0.54885,-0.4520315 0.904062,-0.4520315 h 0.02223 c 0.634992,0.010648 1.140842,0.5166076 1.140842,1.151601 V 5.7451027 7.8976275 18.229764 c 0,1.861942 -0.495106,3.61625 -1.356106,5.123022 -1.216186,2.131 -3.185743,3.788453 -5.531999,4.617174 z m -5.166058,-9.740197 c 0,-0.94711 -0.774918,-1.722016 -1.722039,-1.722016 -0.947107,0 -1.722015,0.774906 -1.722015,1.722016 0,0.947119 0.774908,1.722028 1.722015,1.722028 0.947121,0 1.722039,-0.774909 1.722039,-1.722028 z m 5.166058,1.722028 c 0.947111,0 1.722031,-0.774909 1.722031,-1.722028 0,-0.94711 -0.77492,-1.722016 -1.722031,-1.722016 -0.947105,0 -1.722015,0.774906 -1.722015,1.722016 0,0.947119 0.77491,1.722028 1.722015,1.722028 z"
       id="path1"
       style="fill:#dfdfdf;fill-opacity:1;stroke-width:0.107626" />
  </g>
</svg>
