<?xml version="1.0" encoding="UTF-8" standalone="no"?>
<svg
   width="64"
   height="64"
   version="1.1"
   id="svg73"
   sodipodi:docname="application-x-pml21free.svg"
   inkscape:version="1.4.2 (ebf0e940d0, 2025-05-08)"
   xmlns:inkscape="http://www.inkscape.org/namespaces/inkscape"
   xmlns:sodipodi="http://sodipodi.sourceforge.net/DTD/sodipodi-0.dtd"
   xmlns="http://www.w3.org/2000/svg"
   xmlns:svg="http://www.w3.org/2000/svg"
   xmlns:rdf="http://www.w3.org/1999/02/22-rdf-syntax-ns#"
   xmlns:cc="http://creativecommons.org/ns#"
   xmlns:dc="http://purl.org/dc/elements/1.1/">
  <metadata
     id="metadata77">
    <rdf:RDF>
      <cc:Work
         rdf:about="">
        <dc:format>image/svg+xml</dc:format>
        <dc:type
           rdf:resource="http://purl.org/dc/dcmitype/StillImage" />
      </cc:Work>
    </rdf:RDF>
  </metadata>
  <sodipodi:namedview
     pagecolor="#f5f7fa"
     bordercolor="#666666"
     borderopacity="1"
     objecttolerance="10"
     gridtolerance="10"
     guidetolerance="10"
     inkscape:pageopacity="0"
     inkscape:pageshadow="2"
     inkscape:window-width="1377"
     inkscape:window-height="886"
     id="namedview75"
     showgrid="false"
     inkscape:zoom="6.2890624"
     inkscape:cx="26.633541"
     inkscape:cy="38.877019"
     inkscape:window-x="0"
     inkscape:window-y="75"
     inkscape:window-maximized="0"
     inkscape:current-layer="g877"
     inkscape:document-rotation="0"
     inkscape:pagecheckerboard="0"
     inkscape:showpageshadow="2"
     inkscape:deskcolor="#d1d1d1" />
  <defs
     id="defs29" />
  <circle
     cx="32.516094"
     cy="31.877844"
     r="0"
     fill="url(#b)"
     stroke-width="1.5715"
     id="circle41"
     style="fill:url(#b)" />
  <g
     aria-label="GZ"
     transform="matrix(1.2212657,0,0,0.81882264,0.4960938,-0.1661539)"
     id="text93"
     style="font-weight:bold;font-size:11.5263px;line-height:1.25;font-family:sans-serif;-inkscape-font-specification:'sans-serif Bold';fill:#f2f2f2;stroke-width:0.288159" />
  <g
     id="g877"
     transform="matrix(1.1,0,0,1.1,-3.1845928,-3.2065454)">
    <g
       id="g5"
       transform="matrix(1.0493147,0,0,1.0493147,-1.5920754,-1.5721184)"
       style="fill:#dfdfdf;fill-opacity:1">
      <path
         style="opacity:1;fill:#dfdfdf;fill-opacity:1"
         d="m 6,6 v 42 h 4 V 10 H 54 V 54 H 16 v 4 H 58 V 6 Z m 0,46 v 6 h 6 v -6 z"
         id="path2-3" />
      <g
         style="font-size:34.2857px;line-height:1.25;letter-spacing:0px;word-spacing:0px;fill:#dfdfdf;fill-opacity:1"
         transform="matrix(1.4927822,0,0,1.4166667,-52.305376,-26.811268)"
         id="g4">
        <path
           style="fill:#dfdfdf;fill-opacity:1"
           transform="matrix(0.96761902,0,0,1,33.25248,17.513836)"
           d="M 21.945312,12 C 20.88232,12 19.713091,12.04529 18.4375,12.136719 17.185532,12.20529 16.039371,12.35346 15,12.582031 V 15 36 h 4.464844 1.073617 v -8.389817 h 1.158805 c 1.795275,0 3.389502,-0.14817 4.783203,-0.445313 1.3937,-0.297143 2.574464,-0.755904 3.542969,-1.373047 0.968503,-0.64 1.701202,-1.450736 2.197265,-2.433594 C 32.740388,22.352516 33,21.152905 33,19.75862 33,17.084334 32.044245,15.141908 30.130859,13.884766 28.241096,12.627623 25.512242,12 21.945312,12 Z m 0.31836,3.736328 c 0.850394,0 1.642716,0.06989 2.375,0.207031 0.755906,0.114286 1.403959,0.320045 1.947266,0.617188 0.543307,0.297143 0.968304,0.708661 1.27539,1.234375 0.307087,0.525715 0.460938,1.151399 0.460938,1.928542 0,1.622857 -0.578848,2.731886 -1.736328,3.326172 -1.157481,0.571428 -2.809379,0.857422 -4.958985,0.857422 h -1.088492 v -8.100417 c 0.642915,-0.04232 0.834464,-0.07031 1.725211,-0.07031 z"
           id="path4" />
      </g>
    </g>
  </g>
</svg>
