<?xml version="1.0" encoding="UTF-8" standalone="no"?>
<svg
   width="64"
   height="64"
   version="1.1"
   id="svg73"
   sodipodi:docname="assistant.svg"
   inkscape:version="1.4.2 (ebf0e940d0, 2025-05-08)"
   xmlns:inkscape="http://www.inkscape.org/namespaces/inkscape"
   xmlns:sodipodi="http://sodipodi.sourceforge.net/DTD/sodipodi-0.dtd"
   xmlns="http://www.w3.org/2000/svg"
   xmlns:svg="http://www.w3.org/2000/svg"
   xmlns:rdf="http://www.w3.org/1999/02/22-rdf-syntax-ns#"
   xmlns:cc="http://creativecommons.org/ns#"
   xmlns:dc="http://purl.org/dc/elements/1.1/">
  <metadata
     id="metadata77">
    <rdf:RDF>
      <cc:Work
         rdf:about="">
        <dc:format>image/svg+xml</dc:format>
        <dc:type
           rdf:resource="http://purl.org/dc/dcmitype/StillImage" />
      </cc:Work>
    </rdf:RDF>
  </metadata>
  <sodipodi:namedview
     pagecolor="#f5f7fa"
     bordercolor="#666666"
     borderopacity="1"
     objecttolerance="10"
     gridtolerance="10"
     guidetolerance="10"
     inkscape:pageopacity="0"
     inkscape:pageshadow="2"
     inkscape:window-width="1377"
     inkscape:window-height="886"
     id="namedview75"
     showgrid="false"
     inkscape:zoom="6.2890624"
     inkscape:cx="26.633541"
     inkscape:cy="38.877019"
     inkscape:window-x="0"
     inkscape:window-y="75"
     inkscape:window-maximized="0"
     inkscape:current-layer="g877"
     inkscape:document-rotation="0"
     inkscape:pagecheckerboard="0"
     inkscape:showpageshadow="2"
     inkscape:deskcolor="#d1d1d1" />
  <defs
     id="defs29" />
  <circle
     cx="32.516094"
     cy="31.877844"
     r="0"
     fill="url(#b)"
     stroke-width="1.5715"
     id="circle41"
     style="fill:url(#b)" />
  <g
     aria-label="GZ"
     transform="matrix(1.2212657,0,0,0.81882264,0.4960938,-0.1661539)"
     id="text93"
     style="font-weight:bold;font-size:11.5263px;line-height:1.25;font-family:sans-serif;-inkscape-font-specification:'sans-serif Bold';fill:#f2f2f2;stroke-width:0.288159" />
  <g
     id="g877"
     transform="matrix(1.1,0,0,1.1,-3.1845928,-3.2065454)">
    <path
       d="m 37.307995,28.146293 q 0,5.705582 -2.061679,9.924839 -2.013739,4.219257 -6.328882,6.185036 l 8.294669,9.205655 h -9.445378 l -6.089154,-7.671362 q -0.143848,0 -0.335629,0 -0.191778,0 -0.335631,0 -5.561744,0 -9.205646,-2.205528 -3.5959428,-2.20552 -5.3699483,-6.185049 -1.7260592,-3.979521 -1.7260592,-9.301537 0,-5.274073 1.7260592,-9.205652 1.7740055,-3.979522 5.3699653,-6.137099 3.643897,-2.205518 9.253593,-2.205518 5.561747,0 9.157698,2.205518 3.643906,2.157577 5.369967,6.137099 1.726055,3.931579 1.726055,9.253598 z m -24.884018,0 q 0,5.369959 2.013737,8.43851 2.06168,3.020601 6.568617,3.020601 4.60282,0 6.568609,-3.020601 2.013736,-3.068551 2.013736,-8.43851 0,-5.369966 -2.013736,-8.438514 -1.965789,-3.068549 -6.520665,-3.068549 -4.554881,0 -6.616561,3.068549 -2.013737,3.068548 -2.013737,8.438514 z M 54.760394,40.08487 q 1.198652,0 2.301405,-0.239758 1.102761,-0.239727 2.20553,-0.575354 v 5.322027 q -1.15071,0.479555 -2.876769,0.815084 -1.678122,0.383501 -3.691848,0.383501 -2.349362,0 -4.21926,-0.76713 Q 46.6575,44.256164 45.554748,42.386267 44.499931,40.468414 44.499931,37.112188 V 24.50239 h -3.404178 v -3.020606 l 3.931575,-2.397303 2.061691,-5.5138 h 4.554884 v 5.561743 h 7.335735 v 5.369966 h -7.335735 v 12.60982 q 0,1.486328 0.863022,2.253466 0.86302,0.719193 2.253469,0.719194 z"
       id="text3"
       style="font-weight:bold;font-size:7.51258px;-inkscape-font-specification:'sans-serif Bold';fill:#dfdfdf;fill-opacity:1;stroke:none;stroke-width:0.69754;stroke-dasharray:none;stroke-opacity:0.6"
       aria-label="Qt" />
  </g>
</svg>
