<?xml version="1.0" encoding="UTF-8" standalone="no"?>
<svg
   width="64"
   height="64"
   version="1.1"
   id="svg73"
   sodipodi:docname="bitwig-studio.svg"
   inkscape:version="1.4.2 (ebf0e940d0, 2025-05-08)"
   xmlns:inkscape="http://www.inkscape.org/namespaces/inkscape"
   xmlns:sodipodi="http://sodipodi.sourceforge.net/DTD/sodipodi-0.dtd"
   xmlns="http://www.w3.org/2000/svg"
   xmlns:svg="http://www.w3.org/2000/svg"
   xmlns:rdf="http://www.w3.org/1999/02/22-rdf-syntax-ns#"
   xmlns:cc="http://creativecommons.org/ns#"
   xmlns:dc="http://purl.org/dc/elements/1.1/">
  <metadata
     id="metadata77">
    <rdf:RDF>
      <cc:Work
         rdf:about="">
        <dc:format>image/svg+xml</dc:format>
        <dc:type
           rdf:resource="http://purl.org/dc/dcmitype/StillImage" />
      </cc:Work>
    </rdf:RDF>
  </metadata>
  <sodipodi:namedview
     pagecolor="#f5f7fa"
     bordercolor="#666666"
     borderopacity="1"
     objecttolerance="10"
     gridtolerance="10"
     guidetolerance="10"
     inkscape:pageopacity="0"
     inkscape:pageshadow="2"
     inkscape:window-width="1377"
     inkscape:window-height="886"
     id="namedview75"
     showgrid="false"
     inkscape:zoom="6.2890624"
     inkscape:cx="47.622361"
     inkscape:cy="45.396274"
     inkscape:window-x="1"
     inkscape:window-y="75"
     inkscape:window-maximized="0"
     inkscape:current-layer="g877"
     inkscape:document-rotation="0"
     inkscape:pagecheckerboard="0"
     inkscape:showpageshadow="2"
     inkscape:deskcolor="#d1d1d1" />
  <defs
     id="defs29" />
  <circle
     cx="32.516094"
     cy="31.877844"
     r="0"
     fill="url(#b)"
     stroke-width="1.5715"
     id="circle41"
     style="fill:url(#b)" />
  <g
     aria-label="GZ"
     transform="matrix(1.2212657,0,0,0.81882264,0.4960938,-0.1661539)"
     id="text93"
     style="font-weight:bold;font-size:11.5263px;line-height:1.25;font-family:sans-serif;-inkscape-font-specification:'sans-serif Bold';fill:#f2f2f2;stroke-width:0.288159" />
  <g
     id="g877"
     transform="matrix(1.1,0,0,1.1,-3.1845928,-3.2065454)">
    <path
       d="m 17.633387,18.849486 c -1.968866,0 -3.588456,1.619588 -3.588456,3.588454 0.0012,1.967664 1.620788,3.586059 3.588456,3.586059 1.967665,0 3.587252,-1.618394 3.58845,-3.586059 0,-1.968866 -1.619587,-3.588454 -3.58845,-3.588454 z m 9.569201,0 c -1.968865,0 -3.58845,1.619588 -3.58845,3.588454 0.0012,1.967664 1.620786,3.586059 3.58845,3.586059 1.96767,0 3.587259,-1.618394 3.588455,-3.586059 0,-1.968866 -1.61959,-3.588454 -3.588455,-3.588454 z m 9.569202,0 c -1.968858,0 -3.58845,1.619588 -3.58845,3.588454 0.0012,1.967664 1.620785,3.586059 3.58845,3.586059 1.967672,0 3.58726,-1.618394 3.588461,-3.586059 0,-1.968866 -1.619594,-3.588454 -3.588461,-3.588454 z m 9.566808,0 c -1.968858,0 -3.588445,1.619588 -3.588445,3.588454 0.0012,1.967664 1.620778,3.586059 3.588445,3.586059 1.967689,0 3.587264,-1.618394 3.588453,-3.586059 0,-1.968866 -1.619575,-3.588454 -3.588453,-3.588454 z M 8.0641829,28.416301 c -1.968865,0 -3.5884534,1.619585 -3.5884534,3.588451 0,1.968865 1.6195884,3.588451 3.5884534,3.588451 1.9688581,0 3.5884471,-1.619586 3.5884471,-3.588451 0,-1.968866 -1.619589,-3.588451 -3.5884471,-3.588451 z m 9.5692041,0 c -1.968866,0 -3.588456,1.619585 -3.588456,3.588451 0,1.968865 1.61959,3.588451 3.588456,3.588451 1.968863,0 3.58845,-1.619586 3.58845,-3.588451 0,-1.968866 -1.619587,-3.588451 -3.58845,-3.588451 z m 9.569201,0 c -1.968865,0 -3.58845,1.619585 -3.58845,3.588451 0,1.968865 1.619585,3.588451 3.58845,3.588451 1.968865,0 3.588455,-1.619586 3.588455,-3.588451 0,-1.968866 -1.61959,-3.588451 -3.588455,-3.588451 z m 9.569202,0 c -1.968858,0 -3.58845,1.619585 -3.58845,3.588451 0,1.968865 1.619592,3.588451 3.58845,3.588451 1.968867,0 3.588461,-1.619586 3.588461,-3.588451 0,-1.968866 -1.619594,-3.588451 -3.588461,-3.588451 z m 9.566808,0 c -1.968858,0 -3.588445,1.619585 -3.588445,3.588451 0,1.968865 1.619587,3.588451 3.588445,3.588451 1.968863,0 3.588453,-1.619586 3.588453,-3.588451 0,-1.968866 -1.619575,-3.588451 -3.588453,-3.588451 z m 9.569208,0 c -1.968863,0 -3.588449,1.619585 -3.588449,3.588451 0,1.968865 1.619586,3.588451 3.588449,3.588451 1.968862,0 3.588452,-1.619586 3.588452,-3.588451 0,-1.968866 -1.61959,-3.588451 -3.588452,-3.588451 z M 8.0641829,37.985506 c -1.968865,0 -3.5884534,1.619589 -3.5884534,3.588454 0,1.968863 1.6195884,3.588454 3.5884534,3.588454 1.9688581,0 3.5884471,-1.619591 3.5884471,-3.588454 0,-1.968865 -1.619589,-3.588454 -3.5884471,-3.588454 z m 9.5692041,0 c -1.968866,0 -3.588456,1.619589 -3.588456,3.588454 0,1.968863 1.61959,3.588454 3.588456,3.588454 1.968863,0 3.58845,-1.619591 3.58845,-3.588454 0,-1.968865 -1.619587,-3.588454 -3.58845,-3.588454 z m 28.705211,0 c -1.968858,0 -3.588445,1.619589 -3.588445,3.588454 0,1.968863 1.619587,3.588454 3.588445,3.588454 1.968863,0 3.588453,-1.619591 3.588453,-3.588454 0,-1.968865 -1.619575,-3.588454 -3.588453,-3.588454 z m 9.569208,0 c -1.968863,0 -3.588449,1.619589 -3.588449,3.588454 0,1.968863 1.619586,3.588454 3.588449,3.588454 1.968862,0 3.588452,-1.619591 3.588452,-3.588454 0,-1.968865 -1.61959,-3.588454 -3.588452,-3.588454 z"
       fill="#ffffff"
       fill-rule="nonzero"
       id="path16"
       style="fill:#dfdfdf;fill-opacity:1;stroke:none;stroke-width:0.820405;stroke-dasharray:none;stroke-opacity:0.6" />
  </g>
</svg>
