<?xml version="1.0" encoding="UTF-8" standalone="no"?>
<svg
   width="64"
   height="64"
   version="1.1"
   id="svg73"
   sodipodi:docname="blockbench.svg"
   inkscape:version="1.4.2 (ebf0e940d0, 2025-05-08)"
   xmlns:inkscape="http://www.inkscape.org/namespaces/inkscape"
   xmlns:sodipodi="http://sodipodi.sourceforge.net/DTD/sodipodi-0.dtd"
   xmlns="http://www.w3.org/2000/svg"
   xmlns:svg="http://www.w3.org/2000/svg"
   xmlns:rdf="http://www.w3.org/1999/02/22-rdf-syntax-ns#"
   xmlns:cc="http://creativecommons.org/ns#"
   xmlns:dc="http://purl.org/dc/elements/1.1/">
  <metadata
     id="metadata77">
    <rdf:RDF>
      <cc:Work
         rdf:about="">
        <dc:format>image/svg+xml</dc:format>
        <dc:type
           rdf:resource="http://purl.org/dc/dcmitype/StillImage" />
      </cc:Work>
    </rdf:RDF>
  </metadata>
  <sodipodi:namedview
     pagecolor="#f5f7fa"
     bordercolor="#666666"
     borderopacity="1"
     objecttolerance="10"
     gridtolerance="10"
     guidetolerance="10"
     inkscape:pageopacity="0"
     inkscape:pageshadow="2"
     inkscape:window-width="1377"
     inkscape:window-height="886"
     id="namedview75"
     showgrid="false"
     inkscape:zoom="6.2890624"
     inkscape:cx="47.622361"
     inkscape:cy="45.396274"
     inkscape:window-x="264"
     inkscape:window-y="75"
     inkscape:window-maximized="0"
     inkscape:current-layer="g877"
     inkscape:document-rotation="0"
     inkscape:pagecheckerboard="0"
     inkscape:showpageshadow="2"
     inkscape:deskcolor="#d1d1d1" />
  <defs
     id="defs29" />
  <circle
     cx="32.516094"
     cy="31.877844"
     r="0"
     fill="url(#b)"
     stroke-width="1.5715"
     id="circle41"
     style="fill:url(#b)" />
  <g
     aria-label="GZ"
     transform="matrix(1.2212657,0,0,0.81882264,0.4960938,-0.1661539)"
     id="text93"
     style="font-weight:bold;font-size:11.5263px;line-height:1.25;font-family:sans-serif;-inkscape-font-specification:'sans-serif Bold';fill:#f2f2f2;stroke-width:0.288159" />
  <g
     id="g877"
     transform="matrix(1.1,0,0,1.1,-3.1845928,-3.2065454)">
    <path
       style="fill:#dfdfdf;fill-opacity:1;stroke-width:1.18592"
       d="m 57.318253,13.031341 c -0.542866,0.0046 -2.193507,0.124502 -7.543874,0.492935 -2.008391,0.138284 -5.109096,0.351594 -6.890448,0.474079 -1.781355,0.122491 -4.682011,0.321909 -6.445903,0.443195 -1.763892,0.121281 -4.707412,0.322095 -6.541164,0.44617 -6.268043,0.424112 -5.883034,0.389725 -6.176991,0.552104 -0.366846,0.202652 -0.598479,0.603673 -0.708865,1.227247 -0.04925,0.278381 -0.116644,0.577532 -0.149714,0.664855 -0.03308,0.08732 -0.08077,0.32656 -0.105919,0.531638 -0.02516,0.20507 -0.08371,0.480253 -0.129985,0.611515 -0.0463,0.131263 -0.105127,0.405658 -0.130612,0.609656 -0.02548,0.204003 -0.08171,0.457524 -0.124914,0.563389 -0.04316,0.105853 -0.09871,0.360172 -0.12341,0.565252 -0.02472,0.205069 -0.0818,0.47723 -0.126765,0.604688 -0.04499,0.127471 -0.103125,0.3877 -0.129347,0.5784 -0.02623,0.190719 -0.08341,0.447916 -0.127017,0.571572 -0.04364,0.123637 -0.100782,0.38088 -0.127004,0.571579 -0.02623,0.190719 -0.08341,0.447913 -0.127044,0.571578 -0.04364,0.123636 -0.100782,0.380873 -0.127004,0.571575 -0.02623,0.19072 -0.08341,0.447911 -0.127043,0.571573 -0.04365,0.123637 -0.100782,0.380874 -0.127045,0.571577 -0.02621,0.19072 -0.08341,0.447911 -0.127043,0.571577 -0.04365,0.12365 -0.100782,0.380871 -0.127045,0.571575 -0.02623,0.190719 -0.08341,0.447914 -0.127043,0.571573 -0.04365,0.12365 -0.100815,0.381537 -0.127045,0.572941 -0.02618,0.191408 -0.07497,0.419379 -0.108383,0.506703 -0.03342,0.08732 -0.10131,0.387402 -0.150952,0.666838 -0.08407,0.473334 -0.08227,0.518923 0.02516,0.666842 0.226822,0.312223 0.500647,0.382949 2.475883,0.639552 1.037387,0.134771 2.657819,0.347031 3.600891,0.471597 0.94307,0.124568 2.579155,0.339894 3.635745,0.478546 1.056587,0.138649 2.799835,0.367584 3.873892,0.508687 1.07405,0.141096 2.710137,0.354519 3.635741,0.474328 2.011972,0.260422 5.257363,0.685503 6.557043,0.858854 2.130898,0.284211 2.893915,0.385518 4.556585,0.605188 0.960531,0.126911 2.446581,0.32458 3.302337,0.439229 1.954218,0.261805 2.003974,0.263674 2.119147,0.08078 0.08914,-0.141549 0.213897,-0.701422 0.484491,-2.175169 0.07697,-0.419155 0.205735,-1.105044 0.286275,-1.524199 0.08053,-0.419155 0.208389,-1.090756 0.284043,-1.492449 0.07564,-0.401689 0.190695,-0.973265 0.255634,-1.27017 0.06494,-0.296899 0.13663,-0.654134 0.159392,-0.793857 0.04231,-0.259714 0.150729,-0.826495 0.437226,-2.286299 0.08914,-0.454087 0.220486,-1.132623 0.291982,-1.507952 0.07149,-0.375329 0.188655,-0.989775 0.260228,-1.365431 0.07161,-0.375658 0.197242,-1.026035 0.279204,-1.44519 0.08196,-0.419155 0.209076,-1.076468 0.282677,-1.46069 0.121533,-0.634483 0.209458,-1.084989 0.576401,-2.953142 0.274234,-1.396247 0.2872,-1.548927 0.150453,-1.783075 -0.06835,-0.11708 -0.217971,-0.267568 -0.332413,-0.334409 -0.08798,-0.05139 -0.01498,-0.09007 -0.340605,-0.08732 z M 18.941755,30.44294 c -0.260444,-0.0029 -0.508239,0.01611 -0.761829,0.05531 -0.349282,0.05414 -3.078471,0.444623 -6.064861,0.867659 -2.9863937,0.423037 -5.5537575,0.814041 -5.7051624,0.868902 -0.6421457,0.232678 -0.6953857,1.041723 -0.08856,1.345702 0.130265,0.06525 0.408375,0.168425 0.6179446,0.229359 0.2095696,0.06094 0.4524856,0.133233 0.5398064,0.160503 0.087314,0.02732 0.2730765,0.08067 0.4127915,0.118713 0.3984024,0.108482 1.429868,0.398561 1.8258119,0.513526 0.1135343,0.03296 0.320706,0.09175 0.460421,0.130612 0.139704,0.03886 0.339761,0.09534 0.444545,0.125566 0.309473,0.08914 1.56908,0.444685 1.809935,0.510918 0.122252,0.03364 0.415171,0.118495 0.65094,0.188657 0.235766,0.07016 0.62157,0.185004 0.857335,0.25515 0.235768,0.07016 0.542984,0.15915 0.682698,0.19786 0.139703,0.03869 0.325468,0.09226 0.41279,0.119077 0.08734,0.02683 0.273077,0.07938 0.412793,0.116704 0.595391,0.159037 1.035477,0.283919 2.47675,0.702932 0.838283,0.243709 1.781355,0.512104 2.095711,0.596507 0.942095,0.252949 5.289078,1.497201 5.937852,1.699597 0.331818,0.103532 0.717624,0.220534 0.857336,0.260107 0.139734,0.03961 0.381777,0.112397 0.537945,0.161997 0.156139,0.04958 0.456231,0.133087 0.666817,0.185547 0.210596,0.05247 0.468634,0.120528 0.573421,0.151211 0.104797,0.03065 0.290541,0.08358 0.412789,0.117612 0.122265,0.03402 0.522338,0.152323 0.889092,0.262842 0.955296,0.287928 1.385064,0.410042 1.809932,0.514021 0.139733,0.03417 0.43978,0.117697 0.666817,0.185571 0.227034,0.06786 0.72715,0.211759 1.111363,0.319899 0.384215,0.108174 0.821699,0.237643 0.972324,0.287772 0.150616,0.05015 0.507841,0.150227 0.79383,0.222526 0.285981,0.07227 1.091637,0.299685 1.790208,0.505341 1.845702,0.543352 1.948111,0.568779 2.175842,0.539569 0.113933,-0.01465 3.142999,-1.50721 6.731311,-3.316944 7.055679,-3.558481 6.81069,-3.41728 6.81069,-3.927229 0,-0.347929 0.28011,-0.279592 -3.270583,-0.798072 -0.943069,-0.137713 -2.100473,-0.306221 -2.57201,-0.3746 -0.471533,-0.06839 -1.143114,-0.16833 -1.492403,-0.22203 -0.349285,-0.05369 -1.420954,-0.211376 -2.381486,-0.350407 -0.960536,-0.139017 -2.532323,-0.367749 -3.492857,-0.508318 -0.960536,-0.140553 -2.332277,-0.340312 -3.048308,-0.443816 -1.652744,-0.238902 -5.168624,-0.754335 -7.144473,-1.047392 -0.83829,-0.124349 -2.11001,-0.31057 -2.826046,-0.413815 -4.37771,-0.631201 -5.729037,-0.834104 -6.096616,-0.915288 -0.589389,-0.130185 -1.058572,-0.194751 -1.49265,-0.19933 z m -3.690442,7.09694 c -0.114224,0.02422 -2.437679,5.012551 -2.437679,5.233617 0,0.250757 0.180728,0.535182 0.401008,0.630987 0.256855,0.11172 0.3065,0.112083 0.597855,0.0046 0.131702,-0.0486 0.539578,-0.179762 0.906331,-0.291495 0.366748,-0.111756 0.887996,-0.272832 1.15837,-0.357979 0.47165,-0.148553 0.791001,-0.246201 2.048704,-0.626898 1.040388,-0.314915 1.69266,-0.539038 1.863515,-0.640418 0.340677,-0.202127 0.704458,-0.866919 1.092385,-1.995923 0.112251,-0.326678 0.113086,-0.354462 0.01278,-0.429924 -0.05892,-0.04434 -0.222383,-0.109516 -0.363183,-0.144741 -0.502464,-0.125886 -1.932645,-0.509607 -3.547479,-0.952007 -0.902255,-0.247185 -1.681948,-0.440668 -1.732658,-0.429927 z m 29.646095,3.941365 c -0.06672,0.0018 -0.149633,0.02942 -0.244105,0.08422 -0.115615,0.06707 -0.460998,0.261412 -0.767533,0.431783 -0.4922,0.273571 -1.464389,0.842933 -2.113199,1.237547 -0.122267,0.07432 -0.365167,0.207798 -0.53981,0.296578 -0.174638,0.08877 -0.474706,0.258915 -0.666818,0.378199 -0.939486,0.583344 -1.323788,0.705063 -1.727569,0.546889 -0.08023,-0.03143 -0.497116,-0.150711 -0.926426,-0.26507 -0.671555,-0.178862 -0.792178,-0.19525 -0.863662,-0.117455 -0.07719,0.08401 -0.16719,0.304159 -0.491057,1.201703 -0.06932,0.192094 -0.184365,0.492189 -0.255637,0.666835 -0.07129,0.174664 -0.153787,0.403277 -0.18318,0.508065 -0.02941,0.104797 -0.143233,0.433449 -0.253035,0.730352 -0.109813,0.296898 -0.22357,0.611267 -0.25291,0.698592 -0.0293,0.08732 -0.142999,0.401686 -0.252535,0.698591 -0.186497,0.505505 -0.512389,1.668168 -0.507306,1.809865 0.0051,0.140788 0.309108,0.425953 0.543027,0.509308 0.325723,0.116051 0.34929,0.115265 0.774489,-0.02902 0.563671,-0.191314 4.137561,-2.02226 5.094401,-2.609923 0.471535,-0.2896 1.163762,-0.691262 1.538417,-0.892588 0.374657,-0.201324 0.741898,-0.408508 0.816035,-0.460439 0.259262,-0.181586 0.444282,-0.548 0.574289,-1.137692 0.07117,-0.322927 0.171057,-0.772966 0.222028,-1.00001 0.05094,-0.22703 0.118483,-0.541411 0.150084,-0.698596 0.03159,-0.157187 0.159215,-0.723284 0.283541,-1.258132 0.124289,-0.534845 0.225991,-1.043131 0.225991,-1.129385 0,-0.134652 -0.06631,-0.203242 -0.177512,-0.200183 z"
       id="path3" />
  </g>
</svg>
