<?xml version="1.0" encoding="UTF-8" standalone="no"?>
<svg
   width="64"
   height="64"
   version="1.1"
   id="svg73"
   sodipodi:docname="bluefish.svg"
   inkscape:version="1.4.2 (ebf0e940d0, 2025-05-08)"
   xmlns:inkscape="http://www.inkscape.org/namespaces/inkscape"
   xmlns:sodipodi="http://sodipodi.sourceforge.net/DTD/sodipodi-0.dtd"
   xmlns="http://www.w3.org/2000/svg"
   xmlns:svg="http://www.w3.org/2000/svg"
   xmlns:rdf="http://www.w3.org/1999/02/22-rdf-syntax-ns#"
   xmlns:cc="http://creativecommons.org/ns#"
   xmlns:dc="http://purl.org/dc/elements/1.1/">
  <metadata
     id="metadata77">
    <rdf:RDF>
      <cc:Work
         rdf:about="">
        <dc:format>image/svg+xml</dc:format>
        <dc:type
           rdf:resource="http://purl.org/dc/dcmitype/StillImage" />
      </cc:Work>
    </rdf:RDF>
  </metadata>
  <sodipodi:namedview
     pagecolor="#f5f7fa"
     bordercolor="#666666"
     borderopacity="1"
     objecttolerance="10"
     gridtolerance="10"
     guidetolerance="10"
     inkscape:pageopacity="0"
     inkscape:pageshadow="2"
     inkscape:window-width="1377"
     inkscape:window-height="886"
     id="namedview75"
     showgrid="false"
     inkscape:zoom="6.2890624"
     inkscape:cx="47.622361"
     inkscape:cy="45.396274"
     inkscape:window-x="0"
     inkscape:window-y="75"
     inkscape:window-maximized="0"
     inkscape:current-layer="g877"
     inkscape:document-rotation="0"
     inkscape:pagecheckerboard="0"
     inkscape:showpageshadow="2"
     inkscape:deskcolor="#d1d1d1" />
  <defs
     id="defs29" />
  <circle
     cx="32.516094"
     cy="31.877844"
     r="0"
     fill="url(#b)"
     stroke-width="1.5715"
     id="circle41"
     style="fill:url(#b)" />
  <g
     aria-label="GZ"
     transform="matrix(1.2212657,0,0,0.81882264,0.4960938,-0.1661539)"
     id="text93"
     style="font-weight:bold;font-size:11.5263px;line-height:1.25;font-family:sans-serif;-inkscape-font-specification:'sans-serif Bold';fill:#f2f2f2;stroke-width:0.288159" />
  <g
     id="g877"
     transform="matrix(1.1,0,0,1.1,-3.1845928,-3.2065454)">
    <path
       style="fill:#dfdfdf;fill-opacity:1;stroke:none;stroke-width:1.70115;stroke-dasharray:none;stroke-dashoffset:2.2;stroke-opacity:0.3"
       d="M 21.472942,50.184905 C 17.578114,49.563024 13.19223,46.987353 10.261695,43.600944 8.6897716,41.784495 6.1985127,38.049957 5.3019836,36.166062 4.1339885,33.711727 3.90187,32.270851 4.3805017,30.445959 c 0.5179892,-1.974964 1.43829,-3.861618 3.0943021,-6.343444 3.6600382,-5.485217 7.2851782,-8.408969 12.3169322,-9.933871 1.853923,-0.561846 5.748543,-0.608443 8.114786,-0.09708 4.531928,0.979346 10.263537,4.519729 13.305634,8.218822 1.563455,1.901114 2.437734,2.467881 3.832597,2.484581 0.928841,0.01101 1.612172,-0.326012 6.783088,-3.3467 6.657896,-3.889321 7.160049,-4.147101 7.685716,-3.945386 0.610391,0.234264 0.324595,1.718788 -0.860052,4.466128 -4.278584,9.922494 -4.324822,10.049571 -3.972727,10.916729 0.179541,0.442115 1.378073,3.261738 2.663442,6.265845 2.502032,5.847584 2.853691,7.21647 1.889072,7.353739 -0.319421,0.04521 -2.775749,-1.246433 -6.815241,-3.584434 -8.102165,-4.689412 -8.049427,-4.68405 -11.241974,-1.142633 -4.560769,5.05916 -10.697758,8.254643 -16.348409,8.512476 -1.205129,0.0554 -2.714755,0.01682 -3.354726,-0.08586 z M 17.106707,27.014892 c 1.239946,-1.239944 1.107841,-3.627091 -0.254408,-4.597092 -2.516605,-1.791984 -5.769054,0.944484 -4.443267,3.738364 0.577796,1.217625 1.537252,1.758607 2.909066,1.640258 0.847851,-0.07316 1.260555,-0.253481 1.788609,-0.78153 z"
       id="path26" />
  </g>
</svg>
