<?xml version="1.0" encoding="UTF-8" standalone="no"?>
<svg
   width="64"
   height="64"
   version="1.1"
   id="svg73"
   sodipodi:docname="bottles.svg"
   inkscape:version="1.4.2 (ebf0e940d0, 2025-05-08)"
   xmlns:inkscape="http://www.inkscape.org/namespaces/inkscape"
   xmlns:sodipodi="http://sodipodi.sourceforge.net/DTD/sodipodi-0.dtd"
   xmlns="http://www.w3.org/2000/svg"
   xmlns:svg="http://www.w3.org/2000/svg"
   xmlns:rdf="http://www.w3.org/1999/02/22-rdf-syntax-ns#"
   xmlns:cc="http://creativecommons.org/ns#"
   xmlns:dc="http://purl.org/dc/elements/1.1/">
  <metadata
     id="metadata77">
    <rdf:RDF>
      <cc:Work
         rdf:about="">
        <dc:format>image/svg+xml</dc:format>
        <dc:type
           rdf:resource="http://purl.org/dc/dcmitype/StillImage" />
      </cc:Work>
    </rdf:RDF>
  </metadata>
  <sodipodi:namedview
     pagecolor="#f5f7fa"
     bordercolor="#666666"
     borderopacity="1"
     objecttolerance="10"
     gridtolerance="10"
     guidetolerance="10"
     inkscape:pageopacity="0"
     inkscape:pageshadow="2"
     inkscape:window-width="1377"
     inkscape:window-height="886"
     id="namedview75"
     showgrid="false"
     inkscape:zoom="6.2890624"
     inkscape:cx="47.622361"
     inkscape:cy="45.396274"
     inkscape:window-x="1"
     inkscape:window-y="75"
     inkscape:window-maximized="0"
     inkscape:current-layer="g877"
     inkscape:document-rotation="0"
     inkscape:pagecheckerboard="0"
     inkscape:showpageshadow="2"
     inkscape:deskcolor="#d1d1d1" />
  <defs
     id="defs29" />
  <circle
     cx="32.516094"
     cy="31.877844"
     r="0"
     fill="url(#b)"
     stroke-width="1.5715"
     id="circle41"
     style="fill:url(#b)" />
  <g
     aria-label="GZ"
     transform="matrix(1.2212657,0,0,0.81882264,0.4960938,-0.1661539)"
     id="text93"
     style="font-weight:bold;font-size:11.5263px;line-height:1.25;font-family:sans-serif;-inkscape-font-specification:'sans-serif Bold';fill:#f2f2f2;stroke-width:0.288159" />
  <g
     id="g877"
     transform="matrix(1.1,0,0,1.1,-3.1845928,-3.2065454)">
    <path
       style="fill:#dfdfdf;fill-opacity:1;stroke:none;stroke-width:0.904496;stroke-dasharray:none;stroke-opacity:0.6"
       d="m 28.687758,60.230359 c -1.729115,-0.269286 -3.870003,-1.083211 -4.405461,-1.674912 -0.4813,-0.531852 -0.518626,-1.963167 -0.422156,-16.189473 0.119839,-17.668383 0.05204,-17.153762 2.661747,-20.211089 0.791514,-0.927277 1.577988,-2.048801 1.747711,-2.492285 0.179265,-0.4684 0.265316,-3.749573 0.205273,-7.829172 -0.124861,-8.4885987 -0.270602,-8.1522071 3.532394,-8.1522071 3.803005,0 3.657251,-0.3363957 3.532386,8.1522071 -0.06763,4.598228 0.01702,7.337293 0.245039,7.933629 0.191605,0.500933 0.971864,1.604324 1.733973,2.451981 2.563903,2.851672 2.515983,2.485358 2.635762,20.146936 0.119366,17.602412 0.296624,16.331964 -2.409422,17.271862 -1.467558,0.509639 -7.186504,0.883862 -9.05727,0.592625 z M 13.708801,53.13305 C 12.947248,52.983468 11.986945,52.640071 11.574806,52.370041 L 10.82546,51.87906 V 39.603798 c 0,-13.032464 0.05382,-13.570652 1.54536,-15.483469 2.046676,-2.624579 1.963699,-2.255178 1.874191,-8.343977 -0.0985,-6.7023254 -0.08667,-6.7293546 2.924713,-6.6884423 1.046085,0.014201 2.072827,0.1966943 2.281656,0.405526 0.274353,0.2743697 0.353527,1.9327933 0.28543,5.9777773 l -0.09426,5.598089 0.957009,1.422669 c 0.52634,0.782455 1.179354,1.724035 1.451134,2.092382 0.400335,0.54263 0.433516,0.932621 0.174729,2.05496 -0.185235,0.803519 -0.322603,6.585059 -0.327092,13.767799 l -0.0075,12.382566 -1.596328,0.342404 c -1.836754,0.393831 -4.58353,0.3944 -6.585504,9.88e-4 z m 29.758826,-0.0069 -1.343629,-0.322081 -0.0081,-12.390153 c -0.0036,-7.29169 -0.140247,-12.966853 -0.330703,-13.793 -0.283387,-1.229594 -0.241948,-1.51393 0.334186,-2.293099 2.416422,-3.2684 2.272672,-2.680035 2.163436,-8.854546 -0.07162,-4.052048 0.0067,-5.7050792 0.280594,-5.9797976 0.208845,-0.208813 1.235572,-0.3913008 2.281649,-0.4055381 3.010465,-0.040942 3.02862,1.419e-4 2.913161,6.5847437 -0.102971,5.872961 -0.05249,6.135851 1.541739,7.971622 1.868123,2.151639 1.913735,2.554788 1.818314,16.077698 l -0.08702,12.329737 -1.183882,0.578503 c -1.417888,0.692828 -6.343296,0.984824 -8.37957,0.496799 z"
       id="path1" />
  </g>
</svg>
