<?xml version="1.0" encoding="UTF-8" standalone="no"?>
<svg
   width="64"
   height="64"
   version="1.1"
   id="svg73"
   sodipodi:docname="boxes.svg"
   inkscape:version="1.4.2 (ebf0e940d0, 2025-05-08)"
   xmlns:inkscape="http://www.inkscape.org/namespaces/inkscape"
   xmlns:sodipodi="http://sodipodi.sourceforge.net/DTD/sodipodi-0.dtd"
   xmlns="http://www.w3.org/2000/svg"
   xmlns:svg="http://www.w3.org/2000/svg"
   xmlns:rdf="http://www.w3.org/1999/02/22-rdf-syntax-ns#"
   xmlns:cc="http://creativecommons.org/ns#"
   xmlns:dc="http://purl.org/dc/elements/1.1/">
  <metadata
     id="metadata77">
    <rdf:RDF>
      <cc:Work
         rdf:about="">
        <dc:format>image/svg+xml</dc:format>
        <dc:type
           rdf:resource="http://purl.org/dc/dcmitype/StillImage" />
      </cc:Work>
    </rdf:RDF>
  </metadata>
  <sodipodi:namedview
     pagecolor="#f5f7fa"
     bordercolor="#666666"
     borderopacity="1"
     objecttolerance="10"
     gridtolerance="10"
     guidetolerance="10"
     inkscape:pageopacity="0"
     inkscape:pageshadow="2"
     inkscape:window-width="1377"
     inkscape:window-height="886"
     id="namedview75"
     showgrid="false"
     inkscape:zoom="6.2890624"
     inkscape:cx="47.622361"
     inkscape:cy="45.396274"
     inkscape:window-x="1"
     inkscape:window-y="75"
     inkscape:window-maximized="0"
     inkscape:current-layer="g877"
     inkscape:document-rotation="0"
     inkscape:pagecheckerboard="0"
     inkscape:showpageshadow="2"
     inkscape:deskcolor="#d1d1d1" />
  <defs
     id="defs29" />
  <circle
     cx="32.516094"
     cy="31.877844"
     r="0"
     fill="url(#b)"
     stroke-width="1.5715"
     id="circle41"
     style="fill:url(#b)" />
  <g
     aria-label="GZ"
     transform="matrix(1.2212657,0,0,0.81882264,0.4960938,-0.1661539)"
     id="text93"
     style="font-weight:bold;font-size:11.5263px;line-height:1.25;font-family:sans-serif;-inkscape-font-specification:'sans-serif Bold';fill:#f2f2f2;stroke-width:0.288159" />
  <g
     id="g877"
     transform="matrix(1.1,0,0,1.1,-3.1845928,-3.2065454)">
    <path
       style="fill:#dfdfdf;fill-opacity:1;stroke:none;stroke-width:0.904496;stroke-dasharray:none;stroke-opacity:0.6"
       d="M 10.333899,58.644962 C 8.8109994,58.206723 7.1493188,56.985622 6.2723241,55.660412 4.3233927,52.715356 4.6861701,49.148152 7.1891484,46.645173 7.938376,45.89595 8.875785,45.201507 9.27228,45.102002 L 9.9931804,44.921067 V 32.031306 19.14156 L 9.1334996,18.785464 C 7.9992489,18.315645 6.5038019,16.829611 5.8237069,15.496513 4.0871774,12.092638 5.325621,8.048601 8.7145921,6.0565376 9.9186301,5.3488051 10.468599,5.2186573 12.227351,5.2252909 c 2.980741,0.011313 5.151667,1.2893273 6.437958,3.7902255 L 19.239853,10.1326 h 12.810556 12.810558 l 0.270599,-0.7116269 c 0.818657,-2.1531868 4.069457,-4.3439316 6.45424,-4.3495777 3.979625,-0.00932 7.310753,3.2132161 7.334395,7.0955406 0.0056,0.939595 -0.213012,2.218079 -0.492865,2.880837 -0.599406,1.419548 -2.30943,3.249984 -3.495152,3.741121 l -0.851383,0.352664 v 12.885903 12.885904 l 0.859664,0.355993 c 1.262143,0.522826 2.72454,2.062436 3.39946,3.57897 2.411532,5.418841 -2.78716,11.395494 -8.466475,9.733496 -1.921696,-0.562267 -3.637541,-1.911849 -4.446151,-3.496842 L 44.83411,53.922293 H 32.059242 19.284367 l -0.779674,1.330404 c -0.961642,1.640918 -2.388112,2.758862 -4.226029,3.311997 -1.58469,0.477049 -2.501666,0.495656 -3.944765,0.08033 z m 35.022398,-10.24039 0.500452,-1.049418 -1.729571,-1.747786 c -1.65362,-1.671048 -1.782321,-1.740711 -2.930775,-1.58669 -1.415376,0.189845 -2.926174,-0.495829 -3.514411,-1.594905 -0.382466,-0.714665 -0.399763,-0.716915 -5.511351,-0.716915 h -5.127675 l -1.229208,1.229216 c -1.171512,1.171509 -1.298054,1.222591 -2.696076,1.088254 -1.456414,-0.139954 -1.479092,-0.128548 -3.183649,1.593951 l -1.716776,1.734875 0.500419,1.049418 0.500437,1.049427 H 32.037 44.855872 Z m -26.969265,-4.21606 c 1.647034,-1.629831 1.702508,-1.735404 1.538951,-2.928678 -0.198271,-1.446614 0.406415,-2.859775 1.542141,-3.603926 l 0.738519,-0.483896 V 32.00007 26.828133 l -0.759946,-0.497937 c -1.147517,-0.751882 -1.719838,-2.082313 -1.520714,-3.535101 0.163728,-1.194426 0.109021,-1.297909 -1.557063,-2.946628 l -1.726751,-1.708718 -1.090321,0.519932 -1.090328,0.519943 V 31.90627 44.632908 l 0.968141,0.598527 c 0.532487,0.329223 1.031281,0.609639 1.108449,0.623141 0.0772,0.0142 0.909182,-0.736174 1.848922,-1.666106 z m 30.925648,-12.141747 -0.0018,-12.82854 -0.942308,-0.536453 -0.942314,-0.536445 -1.749007,1.728006 c -1.650738,1.630932 -1.738631,1.7897 -1.564897,2.826122 0.226597,1.351882 -0.54155,3.136571 -1.547367,3.594869 -0.693302,0.315882 -0.697571,0.350125 -0.697571,5.59775 v 5.279929 l 0.769602,0.504275 c 1.041722,0.682559 1.713092,2.365764 1.466954,3.677791 -0.181122,0.966018 -0.07642,1.158057 1.506361,2.757412 l 1.701124,1.719083 1.001599,-0.477566 1.001597,-0.477682 -0.0016,-12.828529 z m -11.677177,6.847913 c 0.182683,-0.400933 0.673369,-0.952555 1.09043,-1.225822 L 39.48422,37.172002 V 32.01349 26.854972 l -0.876047,-0.623804 c -0.481826,-0.34309 -0.96004,-0.888419 -1.062689,-1.211841 -0.176572,-0.556308 -0.471411,-0.58804 -5.464339,-0.58804 h -5.27771 l -0.517187,0.87554 c -0.28446,0.481561 -0.782536,0.959761 -1.106838,1.06269 -0.558537,0.177255 -0.589649,0.467179 -0.589649,5.494815 v 5.307679 l 0.758286,0.496858 c 0.417061,0.273274 0.907754,0.82488 1.090431,1.225811 l 0.332152,0.728962 h 5.26637 5.266376 z m -0.08999,-17.136655 c 0.10263,-0.32341 0.590666,-0.875734 1.084489,-1.227358 0.714075,-0.508465 1.19416,-0.610855 2.345519,-0.500222 1.432641,0.137655 1.465492,0.121107 3.164461,-1.595781 l 1.71678,-1.734892 -0.500396,-1.049416 -0.500452,-1.049408 H 32.07127 19.28664 l -0.594591,1.007756 -0.594598,1.007758 1.751769,1.733481 c 1.659398,1.642093 1.821343,1.729211 3.071551,1.652325 1.563423,-0.09618 2.868318,0.500328 3.442755,1.573658 l 0.412163,0.770143 h 5.291597 c 5.00676,0 5.301645,-0.03157 5.47823,-0.588043 z"
       id="path2647" />
  </g>
</svg>
