<?xml version="1.0" encoding="UTF-8" standalone="no"?>
<svg
   width="64"
   height="64"
   version="1.1"
   id="svg73"
   sodipodi:docname="brave-browser.svg"
   inkscape:version="1.4.2 (ebf0e940d0, 2025-05-08)"
   xmlns:inkscape="http://www.inkscape.org/namespaces/inkscape"
   xmlns:sodipodi="http://sodipodi.sourceforge.net/DTD/sodipodi-0.dtd"
   xmlns="http://www.w3.org/2000/svg"
   xmlns:svg="http://www.w3.org/2000/svg"
   xmlns:rdf="http://www.w3.org/1999/02/22-rdf-syntax-ns#"
   xmlns:cc="http://creativecommons.org/ns#"
   xmlns:dc="http://purl.org/dc/elements/1.1/">
  <metadata
     id="metadata77">
    <rdf:RDF>
      <cc:Work
         rdf:about="">
        <dc:format>image/svg+xml</dc:format>
        <dc:type
           rdf:resource="http://purl.org/dc/dcmitype/StillImage" />
      </cc:Work>
    </rdf:RDF>
  </metadata>
  <sodipodi:namedview
     pagecolor="#f5f7fa"
     bordercolor="#666666"
     borderopacity="1"
     objecttolerance="10"
     gridtolerance="10"
     guidetolerance="10"
     inkscape:pageopacity="0"
     inkscape:pageshadow="2"
     inkscape:window-width="1377"
     inkscape:window-height="886"
     id="namedview75"
     showgrid="false"
     inkscape:zoom="6.2890624"
     inkscape:cx="47.622361"
     inkscape:cy="45.396274"
     inkscape:window-x="1"
     inkscape:window-y="75"
     inkscape:window-maximized="0"
     inkscape:current-layer="g877"
     inkscape:document-rotation="0"
     inkscape:pagecheckerboard="0"
     inkscape:showpageshadow="2"
     inkscape:deskcolor="#d1d1d1" />
  <defs
     id="defs29" />
  <circle
     cx="32.516094"
     cy="31.877844"
     r="0"
     fill="url(#b)"
     stroke-width="1.5715"
     id="circle41"
     style="fill:url(#b)" />
  <g
     aria-label="GZ"
     transform="matrix(1.2212657,0,0,0.81882264,0.4960938,-0.1661539)"
     id="text93"
     style="font-weight:bold;font-size:11.5263px;line-height:1.25;font-family:sans-serif;-inkscape-font-specification:'sans-serif Bold';fill:#f2f2f2;stroke-width:0.288159" />
  <g
     id="g877"
     transform="matrix(1.1,0,0,1.1,-3.1845928,-3.2065454)">
    <path
       style="fill:#dfdfdf;fill-opacity:1;stroke:none;stroke-width:0.861425;stroke-dasharray:none;stroke-dashoffset:2.2;stroke-opacity:0.6"
       d="M 31.301478,59.824442 C 30.62602,59.662787 30.439688,59.543703 23.64797,54.934218 17.659085,50.869611 15.820129,49.288042 14.949762,47.453461 14.493806,46.492367 12.022502,37.35541 9.3137258,26.615761 l -1.231692,-4.88334 0.7741228,-2.222759 c 0.4257627,-1.222513 0.774125,-2.367582 0.774125,-2.544592 0,-0.177013 -0.3319965,-0.982148 -0.7377722,-1.789191 -0.4057713,-0.807048 -0.7377733,-1.577366 -0.7377733,-1.711817 0,-0.344791 4.1994889,-4.4392914 4.9799659,-4.8554698 0.898162,-0.4789444 3.688022,-0.4919453 4.603511,-0.021461 L 18.376193,8.9149741 20.783999,6.512124 23.1918,4.1092742 h 8.756111 8.756121 l 2.408894,2.4039485 2.408915,2.4039558 0.897543,-0.3970417 c 0.739433,-0.3270872 1.144079,-0.3823963 2.296875,-0.3139906 0.847108,0.050347 1.654062,0.2155021 2.044872,0.4187249 0.770979,0.4009203 3.289385,2.6939679 4.362724,3.9723299 l 0.766097,0.912432 -0.812202,1.578429 c -0.446673,0.868141 -0.81221,1.735512 -0.81221,1.927498 0,0.191974 0.3311,1.246831 0.73573,2.344107 0.404596,1.097284 0.736638,2.155726 0.73778,2.352108 0.003,0.524737 -3.632425,14.794447 -5.82976,22.882782 -1.028785,3.786967 -1.833105,4.870418 -5.618669,7.568427 -4.353857,3.103055 -11.243137,7.648145 -11.592768,7.648145 -0.192991,0 -0.461426,0.03206 -0.596524,0.073 -0.135106,0.03967 -0.495034,0.01346 -0.799859,-0.0592 z m 1.864006,-12.366141 c 0.395496,-0.301695 1.824771,-1.312399 3.176162,-2.24609 1.351395,-0.933684 2.803885,-2.008452 3.22776,-2.388374 0.954749,-0.855745 0.923697,-0.89697 -1.638736,-2.175446 -5.408972,-2.698694 -5.916033,-2.779885 -8.933851,-1.430402 -3.360209,1.502581 -5.256626,2.579732 -5.256626,2.985731 0,0.259835 0.862934,0.960498 3.058131,2.483079 1.681978,1.166611 3.416662,2.390837 3.854872,2.720542 0.988492,0.743699 1.588097,0.755883 2.512288,0.05054 z M 23.706962,40.47264 c 0.424046,-0.288901 1.517991,-0.910532 2.43099,-1.381389 1.736898,-0.895787 4.538347,-3.141514 4.976952,-3.989687 0.355784,-0.688002 0.152404,-0.954381 -2.520609,-3.300901 -1.286546,-1.129416 -2.390485,-2.215158 -2.453198,-2.412752 -0.06912,-0.21775 0.216593,-1.204847 0.725299,-2.505847 1.146092,-2.931138 1.119806,-3.983181 -0.115507,-4.621977 -0.316245,-0.163515 -2.071447,-0.874061 -3.90045,-1.578944 -1.829004,-0.704881 -3.414542,-1.339313 -3.523406,-1.409838 -0.280082,-0.1814 1.347192,-0.371393 3.344233,-0.390397 1.533544,-0.01481 1.899238,0.05538 3.781082,0.722479 2.092947,0.74204 2.756875,1.197024 2.621938,1.796783 -0.03994,0.177939 -0.405828,1.790112 -0.812902,3.582701 -0.40706,1.792591 -0.740132,3.381321 -0.740132,3.530508 0,0.366856 1.104755,0.783258 3.04032,1.145951 1.496696,0.280457 1.703232,0.279661 3.018136,-0.01137 1.832904,-0.405992 2.794824,-0.796419 2.794824,-1.134357 0,-0.149196 -0.333065,-1.737914 -0.740137,-3.530505 -0.407075,-1.792571 -0.772877,-3.404786 -0.812902,-3.582677 -0.136894,-0.608456 0.53153,-1.067773 2.62356,-1.802842 1.744554,-0.612975 2.319829,-0.732585 3.523476,-0.732585 1.705001,0 3.705947,0.189965 3.705947,0.351877 0,0.06314 -0.435693,0.268042 -0.968339,0.455237 -3.022459,1.062392 -6.721143,2.623411 -7.090101,2.992365 -0.677494,0.677503 -0.573075,1.742087 0.409974,4.179803 0.507429,1.258302 0.796953,2.232074 0.736736,2.477991 -0.05459,0.2228 -1.073967,1.251401 -2.265359,2.285757 -2.59551,2.253405 -2.811728,2.485855 -2.811728,3.022837 0,0.576732 2.562756,2.991105 4.479876,4.220502 2.286125,1.466019 3.546321,2.146811 3.973881,2.146811 0.474339,0 2.52205,-1.792237 3.212887,-2.812061 1.041152,-1.536969 1.047718,-2.133531 0.05326,-4.888557 -0.351057,-0.973158 -0.433577,-1.428502 -0.30328,-1.672074 0.0985,-0.184097 1.367155,-1.40596 2.819191,-2.715268 1.451992,-1.309303 3.212471,-2.941014 3.912147,-3.626026 l 1.272438,-1.245475 -0.109065,-1.301074 c -0.06379,-0.767625 -0.271912,-1.627882 -0.506791,-2.098052 -0.741212,-1.484115 -6.010245,-8.462762 -6.544316,-8.66771 -0.108394,-0.04168 -1.479755,0.247271 -3.04716,0.642036 -1.567389,0.39476 -3.053545,0.717744 -3.302557,0.717744 -0.249006,0 -1.328019,-0.245823 -2.397808,-0.546283 -3.795742,-1.066143 -4.664006,-1.06582 -8.49265,0.0033 -1.065158,0.297391 -2.181865,0.541259 -2.481575,0.541923 -0.299712,6.62e-4 -1.420206,-0.246566 -2.489988,-0.549396 -1.069788,-0.302951 -2.345434,-0.62538 -2.834773,-0.716623 l -0.889724,-0.165793 -0.954719,1.210193 c -1.784616,2.262158 -4.544351,6.212982 -5.18031,7.416093 -0.872317,1.650275 -1.144282,2.785764 -0.842009,3.515525 0.136879,0.330357 1.778118,1.973158 3.972083,3.975764 2.056385,1.877034 3.787643,3.539837 3.847223,3.695122 0.05965,0.1553 -0.105182,0.87659 -0.366234,1.602913 -0.836608,2.327962 -0.869387,2.506101 -0.623089,3.385805 0.124914,0.44623 0.473858,1.15188 0.775395,1.568131 0.776468,1.071889 2.564086,2.715236 2.962283,2.723216 0.184637,0.0037 0.682607,-0.229616 1.106661,-0.518536 z"
       id="path14" />
  </g>
</svg>
