<?xml version="1.0" encoding="UTF-8" standalone="no"?>
<svg
   width="64"
   height="64"
   version="1.1"
   id="svg73"
   sodipodi:docname="chromium-browser.svg"
   inkscape:version="1.4.2 (ebf0e940d0, 2025-05-08)"
   xmlns:inkscape="http://www.inkscape.org/namespaces/inkscape"
   xmlns:sodipodi="http://sodipodi.sourceforge.net/DTD/sodipodi-0.dtd"
   xmlns="http://www.w3.org/2000/svg"
   xmlns:svg="http://www.w3.org/2000/svg"
   xmlns:rdf="http://www.w3.org/1999/02/22-rdf-syntax-ns#"
   xmlns:cc="http://creativecommons.org/ns#"
   xmlns:dc="http://purl.org/dc/elements/1.1/">
  <metadata
     id="metadata77">
    <rdf:RDF>
      <cc:Work
         rdf:about="">
        <dc:format>image/svg+xml</dc:format>
        <dc:type
           rdf:resource="http://purl.org/dc/dcmitype/StillImage" />
      </cc:Work>
    </rdf:RDF>
  </metadata>
  <sodipodi:namedview
     pagecolor="#f5f7fa"
     bordercolor="#666666"
     borderopacity="1"
     objecttolerance="10"
     gridtolerance="10"
     guidetolerance="10"
     inkscape:pageopacity="0"
     inkscape:pageshadow="2"
     inkscape:window-width="1377"
     inkscape:window-height="886"
     id="namedview75"
     showgrid="false"
     inkscape:zoom="6.2890624"
     inkscape:cx="47.622361"
     inkscape:cy="45.396274"
     inkscape:window-x="499"
     inkscape:window-y="75"
     inkscape:window-maximized="0"
     inkscape:current-layer="g877"
     inkscape:document-rotation="0"
     inkscape:pagecheckerboard="0"
     inkscape:showpageshadow="2"
     inkscape:deskcolor="#d1d1d1" />
  <defs
     id="defs29">
    <linearGradient
       id="b"
       x1="399.57"
       x2="399.57"
       y1="545.8"
       y2="517.8"
       gradientTransform="matrix(2.1429,0,0,2.1429,-825.86391,-1107.6662)"
       gradientUnits="userSpaceOnUse">
      <stop
         stop-color="#3889e9"
         offset="0"
         id="stop2" />
      <stop
         stop-color="#5ea5fb"
         offset="1"
         id="stop4" />
    </linearGradient>
  </defs>
  <circle
     cx="32.516094"
     cy="31.877844"
     r="0"
     fill="url(#b)"
     stroke-width="1.5715"
     id="circle41"
     style="fill:url(#b)" />
  <g
     aria-label="GZ"
     transform="matrix(1.2212657,0,0,0.81882264,0.4960938,-0.1661539)"
     id="text93"
     style="font-weight:bold;font-size:11.5263px;line-height:1.25;font-family:sans-serif;-inkscape-font-specification:'sans-serif Bold';fill:#f2f2f2;stroke-width:0.288159" />
  <g
     id="g877"
     transform="matrix(1.1,0,0,1.1,-3.1845928,-3.2065454)">
    <path
       style="fill:#dfdfdf;fill-opacity:1;stroke:none;stroke-width:0.710305;stroke-dasharray:none;stroke-opacity:0.6"
       d="M 31.986087,3.8224006 A 28.150213,28.183551 0 0 0 9.8001926,14.67307 L 18.192481,29.222825 A 14.075108,14.091776 0 0 1 31.986087,17.914176 h 24.34992 A 28.150213,28.183551 0 0 0 31.986087,3.8224006 Z M 7.629107,17.949406 A 28.150213,28.183551 0 0 0 3.8358684,32.005949 28.150213,28.183551 0 0 0 28.097833,59.872427 L 36.486596,45.35791 a 14.075108,14.091776 0 0 1 -4.500511,0.739801 14.075108,14.091776 0 0 1 -12.171453,-7.045878 h -0.02126 z m 24.356978,3.48771 A 10.556331,10.568831 0 0 0 21.429752,32.005949 10.556331,10.568831 0 0 0 31.986085,42.574774 10.556331,10.568831 0 0 0 42.542425,32.005949 10.556331,10.568831 0 0 0 31.986085,21.437116 Z m 9.286058,0 a 14.075108,14.091776 0 0 1 4.789037,10.568833 14.075108,14.091776 0 0 1 -1.896612,7.045884 h 0.01346 L 31.992878,60.189498 A 28.150213,28.183551 0 0 0 60.136128,32.005949 28.150213,28.183551 0 0 0 58.060039,21.437116 Z"
       id="path2-50" />
  </g>
</svg>
