<?xml version="1.0" encoding="UTF-8" standalone="no"?>
<svg
   width="64"
   height="64"
   version="1.1"
   id="svg73"
   sodipodi:docname="codelite.svg"
   inkscape:version="1.4.2 (ebf0e940d0, 2025-05-08)"
   xmlns:inkscape="http://www.inkscape.org/namespaces/inkscape"
   xmlns:sodipodi="http://sodipodi.sourceforge.net/DTD/sodipodi-0.dtd"
   xmlns="http://www.w3.org/2000/svg"
   xmlns:svg="http://www.w3.org/2000/svg"
   xmlns:rdf="http://www.w3.org/1999/02/22-rdf-syntax-ns#"
   xmlns:cc="http://creativecommons.org/ns#"
   xmlns:dc="http://purl.org/dc/elements/1.1/">
  <metadata
     id="metadata77">
    <rdf:RDF>
      <cc:Work
         rdf:about="">
        <dc:format>image/svg+xml</dc:format>
        <dc:type
           rdf:resource="http://purl.org/dc/dcmitype/StillImage" />
      </cc:Work>
    </rdf:RDF>
  </metadata>
  <sodipodi:namedview
     pagecolor="#f5f7fa"
     bordercolor="#666666"
     borderopacity="1"
     objecttolerance="10"
     gridtolerance="10"
     guidetolerance="10"
     inkscape:pageopacity="0"
     inkscape:pageshadow="2"
     inkscape:window-width="1377"
     inkscape:window-height="886"
     id="namedview75"
     showgrid="false"
     inkscape:zoom="6.2890624"
     inkscape:cx="34.901864"
     inkscape:cy="35.06087"
     inkscape:window-x="1"
     inkscape:window-y="75"
     inkscape:window-maximized="0"
     inkscape:current-layer="g877"
     inkscape:document-rotation="0"
     inkscape:pagecheckerboard="0"
     inkscape:showpageshadow="2"
     inkscape:deskcolor="#d1d1d1" />
  <defs
     id="defs29" />
  <circle
     cx="32.516094"
     cy="31.877844"
     r="0"
     fill="url(#b)"
     stroke-width="1.5715"
     id="circle41"
     style="fill:url(#b)" />
  <g
     aria-label="GZ"
     transform="matrix(1.2212657,0,0,0.81882264,0.4960938,-0.1661539)"
     id="text93"
     style="font-weight:bold;font-size:11.5263px;line-height:1.25;font-family:sans-serif;-inkscape-font-specification:'sans-serif Bold';fill:#f2f2f2;stroke-width:0.288159" />
  <g
     id="g877"
     transform="matrix(1.1,0,0,1.1,-3.1845928,-3.2065454)">
    <path
       id="path4"
       style="fill:#dfdfdf;fill-opacity:1;stroke:none;stroke-width:0.897492;stroke-dasharray:none;stroke-opacity:0.6"
       d="m 21.859842,4.7641901 c -16.1599408,0 -16.4049779,0.00386 -16.7582052,0.3570474 C 4.748432,5.474458 4.7445961,5.7194951 4.7445961,21.87944 c 0,16.15994 0.00386,16.404975 0.3570407,16.758206 0.3532273,0.35325 0.5982596,0.357037 16.7582052,0.357037 16.15995,0 16.404978,-0.0038 16.7582,-0.357037 0.353275,-0.353233 0.357042,-0.598266 0.357042,-16.758206 0,-16.1599449 -0.0038,-16.4049796 -0.357042,-16.7582025 -0.353226,-0.3532234 -0.59825,-0.3570474 -16.7582,-0.3570474 z m 20.17113,10.0363689 -0.05035,12.260112 -0.04718,12.262921 -0.542617,0.770297 c -0.299345,0.424641 -0.89189,1.01723 -1.316508,1.315692 l -0.770297,0.542621 -12.262919,0.04718 -12.260112,0.05035 v 3.098073 c 0,3.220141 0.04595,3.437578 0.806847,3.857114 0.255334,0.140714 5.008994,0.186583 16.527673,0.157444 l 16.170642,-0.04091 0.407582,-0.407586 0.40758,-0.407581 0.05098,-15.990726 c 0.02769,-8.794904 0.0044,-16.174057 -0.05098,-16.398354 -0.05473,-0.224293 -0.257937,-0.567234 -0.452635,-0.761868 -0.325401,-0.325366 -0.605618,-0.35422 -3.486019,-0.35422 z m 10.219096,10.036368 -0.05097,12.052072 c -0.05099,11.941345 -0.05348,12.059187 -0.435708,12.771779 -0.489641,0.914144 -1.208387,1.632916 -2.122525,2.122546 -0.712393,0.38159 -0.832226,0.385429 -12.681817,0.43577 l -11.962113,0.05099 v 3.11774 3.117727 l 0.472294,0.371086 c 0.469813,0.369573 0.554169,0.371085 16.642934,0.371085 16.088778,0 16.173127,-0.0015 16.642952,-0.371085 L 59.227392,58.50553 V 42.04214 25.579121 l -0.472279,-0.371095 c -0.43502,-0.342384 -0.708126,-0.371102 -3.488596,-0.371102 z" />
  </g>
</svg>
