<?xml version="1.0" encoding="UTF-8" standalone="no"?>
<svg
   width="64"
   height="64"
   version="1.1"
   id="svg73"
   sodipodi:docname="com.github.phase1geo.minder.svg"
   inkscape:version="1.4.2 (ebf0e940d0, 2025-05-08)"
   xmlns:inkscape="http://www.inkscape.org/namespaces/inkscape"
   xmlns:sodipodi="http://sodipodi.sourceforge.net/DTD/sodipodi-0.dtd"
   xmlns="http://www.w3.org/2000/svg"
   xmlns:svg="http://www.w3.org/2000/svg"
   xmlns:rdf="http://www.w3.org/1999/02/22-rdf-syntax-ns#"
   xmlns:cc="http://creativecommons.org/ns#"
   xmlns:dc="http://purl.org/dc/elements/1.1/">
  <metadata
     id="metadata77">
    <rdf:RDF>
      <cc:Work
         rdf:about="">
        <dc:format>image/svg+xml</dc:format>
        <dc:type
           rdf:resource="http://purl.org/dc/dcmitype/StillImage" />
      </cc:Work>
    </rdf:RDF>
  </metadata>
  <sodipodi:namedview
     pagecolor="#f5f7fa"
     bordercolor="#666666"
     borderopacity="1"
     objecttolerance="10"
     gridtolerance="10"
     guidetolerance="10"
     inkscape:pageopacity="0"
     inkscape:pageshadow="2"
     inkscape:window-width="1377"
     inkscape:window-height="886"
     id="namedview75"
     showgrid="false"
     inkscape:zoom="6.2890624"
     inkscape:cx="47.622361"
     inkscape:cy="45.396274"
     inkscape:window-x="0"
     inkscape:window-y="75"
     inkscape:window-maximized="0"
     inkscape:current-layer="g877"
     inkscape:document-rotation="0"
     inkscape:pagecheckerboard="0"
     inkscape:showpageshadow="2"
     inkscape:deskcolor="#d1d1d1" />
  <defs
     id="defs29" />
  <circle
     cx="32.516094"
     cy="31.877844"
     r="0"
     fill="url(#b)"
     stroke-width="1.5715"
     id="circle41"
     style="fill:url(#b)" />
  <g
     aria-label="GZ"
     transform="matrix(1.2212657,0,0,0.81882264,0.4960938,-0.1661539)"
     id="text93"
     style="font-weight:bold;font-size:11.5263px;line-height:1.25;font-family:sans-serif;-inkscape-font-specification:'sans-serif Bold';fill:#f2f2f2;stroke-width:0.288159" />
  <g
     id="g877"
     transform="matrix(1.1,0,0,1.1,-3.1845928,-3.2065454)">
    <path
       id="path12"
       style="fill:#dfdfdf;fill-opacity:1;stroke:none;stroke-width:0.162038;stroke-dasharray:none"
       d="m 26.150091,4.8659387 c -5.830397,0 -11.046484,3.7614694 -12.859594,9.2734733 l -0.297732,0.910282 -0.578404,0.183946 c -3.6467259,1.167458 -6.7169274,4.275172 -7.94409,8.042699 -0.4400472,1.351004 -0.572716,2.253342 -0.572716,3.870588 0,1.618217 0.1334966,2.518203 0.5746127,3.872478 1.4051578,4.313906 4.8857802,7.442124 9.4157023,8.463699 0.67625,0.152532 1.032004,0.176927 2.575332,0.178254 l 1.790216,0.0015 0.204812,0.365991 c 0.694116,1.239111 2.359274,3.02833 3.711285,3.988155 0.929762,0.660014 2.610231,1.514565 3.603192,1.833834 0.632126,0.20325 1.894279,0.489676 2.673942,0.606843 0.133688,0.0198 0.971064,0.02544 1.86228,0.01174 1.765819,-0.02829 2.491634,-0.140173 3.944543,-0.608757 1.028739,-0.331707 2.700258,-1.179223 3.631637,-1.841414 0.423335,-0.301019 1.196263,-0.972337 1.718152,-1.490586 l 0.948211,-0.942529 0.409605,0.191536 c 0.605996,0.280661 1.623475,0.585637 2.408451,0.722547 0.88352,0.154059 2.446737,0.153721 3.394587,0 3.727864,-0.60466 6.857797,-3.340507 8.004768,-6.995879 0.247142,-0.787743 0.452695,-1.971044 0.45331,-2.609468 v -0.447243 l 0.620112,-0.443761 c 1.752977,-1.25327 3.136643,-3.172407 3.792827,-5.262983 0.658397,-2.097608 0.573075,-4.550631 -0.231415,-6.633663 -0.54553,-1.412638 -1.337743,-2.595758 -2.448269,-3.660081 -1.635092,-1.567066 -3.678854,-2.537815 -5.8713,-2.787727 -0.441416,-0.05035 -0.455378,-0.06026 -0.635306,-0.430488 C 49.761883,11.814948 48.273898,10.345311 46.756539,9.5840015 45.133902,8.7698662 42.907232,8.5373636 41.126081,8.9942189 40.192409,9.2336999 38.956293,9.8376175 38.143021,10.45256 37.773058,10.73231 37.461405,10.946688 37.450829,10.930454 36.7271,9.8204351 35.182668,8.2090638 34.111242,7.4467825 31.730325,5.7527583 28.993083,4.8656686 26.150091,4.8656686 Z m 21.091926,9.5617293 0.322422,0.18206 c 0.187736,0.106854 0.423226,0.347828 0.567091,0.580305 l 0.244603,0.398242 0.02462,3.610777 c 0.02623,3.917061 0.01198,4.073197 -0.403973,4.577943 -0.504482,0.612074 -0.05986,0.574616 -6.709518,0.574616 -3.275201,0 -6.056751,-0.02805 -6.180415,-0.06252 -0.33981,-0.095 -0.841572,-0.593922 -0.989929,-0.982391 -0.0726,-0.190101 -0.157476,-0.659044 -0.187746,-1.041129 l -0.05496,-0.694085 -1.437484,1.18715 -1.435586,1.187158 -0.0015,3.204943 -0.0015,3.204942 1.439383,1.185259 1.437482,1.187154 0.05493,-0.697874 c 0.03025,-0.38398 0.115144,-0.854819 0.187739,-1.04492 0.142588,-0.373456 0.652492,-0.890493 0.950105,-0.963384 0.101376,-0.02486 2.924276,-0.0353 6.273336,-0.0227 l 6.089392,0.0227 0.305378,0.248437 c 0.16812,0.136073 0.381779,0.391159 0.474098,0.567025 0.161373,0.307697 0.167873,0.458634 0.1896,3.993851 l 0.02223,3.673353 -0.195413,0.426696 c -0.116414,0.254129 -0.319347,0.520181 -0.50249,0.659948 l -0.307314,0.23515 -6.12353,0.0206 c -6.642131,0.02265 -6.306641,0.04231 -6.802009,-0.411393 -0.394779,-0.361431 -0.517928,-0.813097 -0.568697,-2.076482 l -0.04737,-1.171942 -2.471027,-2.046234 -2.471028,-2.048127 -8.467495,-0.02277 -8.4656,-0.02277 -0.36411,-0.202918 c -0.455606,-0.254254 -0.850133,-0.827431 -0.971269,-1.410917 -0.06091,-0.29343 -0.08291,-1.466766 -0.06639,-3.544399 l 0.02462,-3.104434 0.223775,-0.458928 c 0.125048,-0.254721 0.354529,-0.555908 0.515795,-0.67891 0.597737,-0.455917 0.332281,-0.441862 9.301914,-0.441862 h 8.274106 l 2.476715,-2.046232 2.476723,-2.046235 0.03605,-1.185258 c 0.03207,-1.05854 0.05739,-1.224754 0.235152,-1.570231 0.109461,-0.212646 0.339112,-0.500663 0.510141,-0.639089 l 0.311011,-0.250322 6.129217,-0.0209 z m -11.382282,2.186567 v 2.795315 2.79532 h 5.345995 5.347906 V 19.40955 16.614235 H 41.20573 Z M 12.526243,24.30989 v 2.837038 2.835138 h 8.262682 8.264578 V 27.146928 24.30989 h -8.264578 z m 23.333492,7.779095 v 2.795314 2.795322 h 5.345995 5.347906 V 34.884299 32.088985 H 41.20573 Z m 3.792831,14.522758 c -0.07143,0.0013 -0.142428,0.0062 -0.212413,0.01125 -2.071015,0.16674 -3.771261,1.56098 -4.356068,3.572837 -0.169929,0.58459 -0.189756,1.682627 -0.04174,2.309842 0.40588,1.719727 1.87461,3.193658 3.601293,3.612658 0.581212,0.141197 1.629817,0.135883 2.201742,-0.01023 1.732691,-0.440416 3.117674,-1.810141 3.563354,-3.523532 0.187378,-0.720244 0.127762,-2.022726 -0.125207,-2.742216 -0.248919,-0.708039 -0.892133,-1.638813 -1.443156,-2.089855 -0.890595,-0.728603 -2.115847,-1.164018 -3.187848,-1.141228 z m -14.481025,4.860506 c -1.430071,8.04e-4 -2.800875,0.816506 -3.47044,2.218811 -0.299179,0.626637 -0.303429,0.652644 -0.303429,1.615739 v 0.97665 l 0.343247,0.695996 c 0.522201,1.054245 1.357033,1.743797 2.472929,2.044324 1.325043,0.356866 2.799471,-0.08262 3.760591,-1.120783 1.757746,-1.898575 1.192078,-4.907009 -1.135954,-6.041971 -0.539433,-0.263018 -1.107357,-0.389094 -1.666948,-0.38877 z" />
  </g>
</svg>
