<?xml version="1.0" encoding="UTF-8" standalone="no"?>
<svg
   width="64"
   height="64"
   version="1.1"
   id="svg73"
   sodipodi:docname="calibre.svg"
   inkscape:version="1.4.2 (ebf0e940d0, 2025-05-08)"
   xmlns:inkscape="http://www.inkscape.org/namespaces/inkscape"
   xmlns:sodipodi="http://sodipodi.sourceforge.net/DTD/sodipodi-0.dtd"
   xmlns="http://www.w3.org/2000/svg"
   xmlns:svg="http://www.w3.org/2000/svg"
   xmlns:rdf="http://www.w3.org/1999/02/22-rdf-syntax-ns#"
   xmlns:cc="http://creativecommons.org/ns#"
   xmlns:dc="http://purl.org/dc/elements/1.1/">
  <metadata
     id="metadata77">
    <rdf:RDF>
      <cc:Work
         rdf:about="">
        <dc:format>image/svg+xml</dc:format>
        <dc:type
           rdf:resource="http://purl.org/dc/dcmitype/StillImage" />
      </cc:Work>
    </rdf:RDF>
  </metadata>
  <sodipodi:namedview
     pagecolor="#f5f7fa"
     bordercolor="#666666"
     borderopacity="1"
     objecttolerance="10"
     gridtolerance="10"
     guidetolerance="10"
     inkscape:pageopacity="0"
     inkscape:pageshadow="2"
     inkscape:window-width="1377"
     inkscape:window-height="886"
     id="namedview75"
     showgrid="false"
     inkscape:zoom="6.2890624"
     inkscape:cx="47.622361"
     inkscape:cy="45.396274"
     inkscape:window-x="264"
     inkscape:window-y="75"
     inkscape:window-maximized="0"
     inkscape:current-layer="g877"
     inkscape:document-rotation="0"
     inkscape:pagecheckerboard="0"
     inkscape:showpageshadow="2"
     inkscape:deskcolor="#d1d1d1" />
  <defs
     id="defs29" />
  <circle
     cx="32.516094"
     cy="31.877844"
     r="0"
     fill="url(#b)"
     stroke-width="1.5715"
     id="circle41"
     style="fill:url(#b)" />
  <g
     aria-label="GZ"
     transform="matrix(1.2212657,0,0,0.81882264,0.4960938,-0.1661539)"
     id="text93"
     style="font-weight:bold;font-size:11.5263px;line-height:1.25;font-family:sans-serif;-inkscape-font-specification:'sans-serif Bold';fill:#f2f2f2;stroke-width:0.288159" />
  <g
     id="g877"
     transform="matrix(1.1,0,0,1.1,-3.1845928,-3.2065454)">
    <path
       style="fill:#dfdfdf;fill-opacity:1;stroke-width:0.0420125"
       d="M 14.979032,59.390345 C 12.358577,59.053829 10.118956,57.211414 9.2544631,54.681057 9.1838981,54.474525 9.0801593,54.096343 9.0239207,53.840789 8.9259437,53.39544 8.9216867,52.486967 8.9216867,32.00569 c 0,-20.481278 0.00418,-21.389734 0.102234,-21.835119 C 9.3491665,8.6922544 9.9329068,7.6389835 11.017159,6.5740818 11.752114,5.8522346 12.333521,5.45727 13.165273,5.114809 14.145641,4.7111525 14.942059,4.5620899 16.133832,4.5592069 l 0.714212,-0.00173 V 26.451892 48.346306 l -0.826246,0.0327 c -0.589247,0.02361 -0.944001,0.06608 -1.236771,0.149665 -1.787746,0.510156 -2.978492,2.077639 -2.978492,3.920769 0,1.187287 0.359264,2.050529 1.205163,2.895787 0.43466,0.434327 0.593118,0.551401 1.040221,0.768244 0.714598,0.346562 1.09134,0.426026 2.025896,0.427056 l 0.770229,0.0013 v 1.456431 1.456435 l -0.74222,-0.0079 c -0.408223,-0.0038 -0.915281,-0.02905 -1.126794,-0.05631 z m 4.781885,-1.392518 v -1.456799 h 16.214436 16.214449 l 0.01629,-2.226658 c 0.01771,-2.455256 0.0048,-2.36208 0.386776,-2.749318 0.714827,-0.725081 1.893834,-0.516997 2.326721,0.410581 l 0.130758,0.280064 -0.0013,3.024911 c -0.0013,2.921332 -0.0046,3.033531 -0.114635,3.276977 -0.13947,0.308588 -0.398044,0.586166 -0.695807,0.747127 l -0.224092,0.121134 -17.12712,0.01406 -17.127129,0.01406 z m 0,-31.537532 V 4.5567606 l 17.127126,0.014202 17.12712,0.014202 0.227915,0.1219995 c 0.299198,0.1601165 0.601672,0.5006223 0.717701,0.8076951 0.08636,0.2286634 0.09209,1.7641364 0.07789,21.0288968 l -0.0153,20.782222 -0.122772,0.229369 c -0.143248,0.267642 -0.439171,0.542372 -0.7336,0.681026 -0.196295,0.09242 -1.164525,0.09881 -17.30709,0.11247 l -17.099129,0.0145 z"
       id="path1" />
  </g>
</svg>
