<?xml version="1.0" encoding="UTF-8" standalone="no"?>
<svg
   width="64"
   height="64"
   version="1.1"
   id="svg73"
   sodipodi:docname="com.github.maoschanz.drawing.svg"
   inkscape:version="1.4.2 (ebf0e940d0, 2025-05-08)"
   xmlns:inkscape="http://www.inkscape.org/namespaces/inkscape"
   xmlns:sodipodi="http://sodipodi.sourceforge.net/DTD/sodipodi-0.dtd"
   xmlns="http://www.w3.org/2000/svg"
   xmlns:svg="http://www.w3.org/2000/svg"
   xmlns:rdf="http://www.w3.org/1999/02/22-rdf-syntax-ns#"
   xmlns:cc="http://creativecommons.org/ns#"
   xmlns:dc="http://purl.org/dc/elements/1.1/">
  <metadata
     id="metadata77">
    <rdf:RDF>
      <cc:Work
         rdf:about="">
        <dc:format>image/svg+xml</dc:format>
        <dc:type
           rdf:resource="http://purl.org/dc/dcmitype/StillImage" />
      </cc:Work>
    </rdf:RDF>
  </metadata>
  <sodipodi:namedview
     pagecolor="#f5f7fa"
     bordercolor="#666666"
     borderopacity="1"
     objecttolerance="10"
     gridtolerance="10"
     guidetolerance="10"
     inkscape:pageopacity="0"
     inkscape:pageshadow="2"
     inkscape:window-width="1377"
     inkscape:window-height="886"
     id="namedview75"
     showgrid="false"
     inkscape:zoom="6.2890624"
     inkscape:cx="47.622361"
     inkscape:cy="45.396274"
     inkscape:window-x="0"
     inkscape:window-y="75"
     inkscape:window-maximized="0"
     inkscape:current-layer="g877"
     inkscape:document-rotation="0"
     inkscape:pagecheckerboard="0"
     inkscape:showpageshadow="2"
     inkscape:deskcolor="#d1d1d1" />
  <defs
     id="defs29" />
  <circle
     cx="32.516094"
     cy="31.877844"
     r="0"
     fill="url(#b)"
     stroke-width="1.5715"
     id="circle41"
     style="fill:url(#b)" />
  <g
     aria-label="GZ"
     transform="matrix(1.2212657,0,0,0.81882264,0.4960938,-0.1661539)"
     id="text93"
     style="font-weight:bold;font-size:11.5263px;line-height:1.25;font-family:sans-serif;-inkscape-font-specification:'sans-serif Bold';fill:#f2f2f2;stroke-width:0.288159" />
  <g
     id="g877"
     transform="matrix(1.1,0,0,1.1,-3.1845928,-3.2065454)">
    <path
       id="path10"
       style="fill:#dfdfdf;fill-opacity:1;stroke:none;stroke-width:0.820405;stroke-dasharray:none;stroke-opacity:0.6"
       d="m 52.325494,10.538866 c -0.715214,0.0035 -1.381235,0.714436 -2.708154,2.043738 l -1.829275,1.833475 3.851977,3.854083 3.85198,3.854072 1.74727,-1.738853 c 1.868921,-1.857906 2.108927,-2.181102 2.108927,-2.842726 0,-0.692139 -0.568624,-1.396139 -3.366286,-4.156855 -1.970888,-1.94488 -2.845861,-2.850696 -3.656439,-2.846934 z m -6.183774,5.645503 c -0.07055,0 -1.475795,1.351729 -3.124483,3.002526 l -2.998317,3.000421 0.19771,0.567708 c 0.279508,0.806236 0.137698,1.692173 -0.460485,2.880572 -0.936405,1.860136 -2.458671,3.382396 -4.318809,4.318755 -1.207891,0.608028 -2.161155,0.760035 -2.918418,0.462579 l -0.525646,-0.20816 -3.067707,3.065603 -3.065605,3.065604 3.820438,3.824644 c 2.102224,2.103075 3.852383,3.822553 3.887727,3.822553 0.0353,0 4.612306,-4.548907 10.172414,-10.109354 L 53.849881,23.768479 50.060977,19.975373 C 47.976494,17.890017 46.212214,16.184369 46.14172,16.184369 Z M 5.9650759,31.003553 c -0.086406,-0.0035 -0.168599,0.0051 -0.2544062,0.02107 -0.8901569,0.166988 -1.3927545,1.343428 -0.8830947,2.071071 0.1102201,0.15741 0.5661606,0.458283 1.0113535,0.668627 0.4451917,0.210349 0.8938536,0.506259 0.9987413,0.656016 0.3019978,0.431173 0.2267165,1.309457 -0.2649332,3.067701 -0.7345171,2.626799 -0.7172529,3.994785 0.0673,5.077799 0.7787802,1.07508 2.043313,1.682072 4.0159834,1.932299 1.815523,0.230278 2.711599,0.472302 3.195961,0.862072 1.372937,1.104763 2.065559,2.950963 2.193023,5.84525 0.06228,1.413507 0.165693,1.71696 0.702271,2.050047 0.673948,0.418411 0.727295,0.214018 0.115652,-0.447918 -0.334361,-0.361764 -0.60819,-0.774584 -0.607659,-0.916714 5.32e-4,-0.142076 0.431714,-1.221521 0.956684,-2.399075 0.711341,-1.595572 0.933801,-2.223259 0.874692,-2.464217 C 17.884288,46.202691 17.080677,44.818563 16.35408,44.041839 15.055505,42.65365 14.053281,42.200695 11.623214,41.903488 9.7421438,41.673413 8.936847,41.360822 8.7384345,40.782781 8.6401055,40.496412 8.7014305,40.089029 9.0391052,38.823166 9.9203845,35.519318 9.9560201,34.782568 9.2956263,33.413151 8.8384575,32.465178 8.2793044,31.955723 7.0668535,31.379931 6.5201694,31.120304 6.2243208,31.013703 5.9650831,31.003563 Z m 18.2506421,6.980662 -2.304458,2.306562 -2.306564,2.306558 3.85198,3.854084 3.854084,3.85408 2.30866,-2.30445 2.306566,-2.306571 -3.854086,-3.854087 z m -4.049626,5.847356 c -0.125447,0.151276 -3.658535,7.934352 -3.658535,8.059298 0,0.06326 0.321068,0.43891 0.714888,0.836839 0.534157,0.539808 0.767369,0.698703 0.916735,0.620286 0.11011,-0.05763 1.93596,-0.888447 4.05593,-1.843991 2.119978,-0.955529 3.879276,-1.759063 3.910854,-1.787205 0.03155,-0.0285 -1.275466,-1.385801 -2.903702,-3.015136 -1.628233,-1.629376 -2.994151,-2.920762 -3.03617,-2.870091 z" />
  </g>
</svg>
