<?xml version="1.0" encoding="UTF-8" standalone="no"?>
<svg
   width="64"
   height="64"
   version="1.1"
   id="svg73"
   sodipodi:docname="com.github.geigi.cozy.svg"
   inkscape:version="1.4.2 (ebf0e940d0, 2025-05-08)"
   xmlns:inkscape="http://www.inkscape.org/namespaces/inkscape"
   xmlns:sodipodi="http://sodipodi.sourceforge.net/DTD/sodipodi-0.dtd"
   xmlns="http://www.w3.org/2000/svg"
   xmlns:svg="http://www.w3.org/2000/svg"
   xmlns:rdf="http://www.w3.org/1999/02/22-rdf-syntax-ns#"
   xmlns:cc="http://creativecommons.org/ns#"
   xmlns:dc="http://purl.org/dc/elements/1.1/">
  <metadata
     id="metadata77">
    <rdf:RDF>
      <cc:Work
         rdf:about="">
        <dc:format>image/svg+xml</dc:format>
        <dc:type
           rdf:resource="http://purl.org/dc/dcmitype/StillImage" />
      </cc:Work>
    </rdf:RDF>
  </metadata>
  <sodipodi:namedview
     pagecolor="#f5f7fa"
     bordercolor="#666666"
     borderopacity="1"
     objecttolerance="10"
     gridtolerance="10"
     guidetolerance="10"
     inkscape:pageopacity="0"
     inkscape:pageshadow="2"
     inkscape:window-width="1377"
     inkscape:window-height="886"
     id="namedview75"
     showgrid="false"
     inkscape:zoom="6.2890624"
     inkscape:cx="37.445963"
     inkscape:cy="34.901864"
     inkscape:window-x="1"
     inkscape:window-y="75"
     inkscape:window-maximized="0"
     inkscape:current-layer="g877"
     inkscape:document-rotation="0"
     inkscape:pagecheckerboard="0"
     inkscape:showpageshadow="2"
     inkscape:deskcolor="#d1d1d1" />
  <defs
     id="defs29" />
  <circle
     cx="32.516094"
     cy="31.877844"
     r="0"
     fill="url(#b)"
     stroke-width="1.5715"
     id="circle41"
     style="fill:url(#b)" />
  <g
     aria-label="GZ"
     transform="matrix(1.2212657,0,0,0.81882264,0.4960938,-0.1661539)"
     id="text93"
     style="font-weight:bold;font-size:11.5263px;line-height:1.25;font-family:sans-serif;-inkscape-font-specification:'sans-serif Bold';fill:#f2f2f2;stroke-width:0.288159" />
  <g
     id="g877"
     transform="matrix(1.1,0,0,1.1,-3.1845928,-3.2065454)">
    <path
       style="fill:#dfdfdf;fill-opacity:1;stroke:none;stroke-width:0.904496;stroke-dasharray:none;stroke-opacity:0.6"
       d="m 31.985747,4.8791646 c -0.233106,0 -0.463544,-9.517e-4 -0.698116,0.00639 C 18.477489,5.2612175 7.2561014,15.692022 7.2524799,28.434454 v 4.905515 6.644566 H 7.1340572 c -0.8185081,0 -1.4772624,0.566818 -1.4772624,1.380646 v 11.687232 c 0,0.813829 0.6595601,1.257133 1.4772624,1.29338 h 1.150023 0.7292846 1.4305152 v 3.316055 c 0,0.813856 0.752244,1.471028 1.570758,1.471028 h 5.070696 c 0.818522,5e-6 1.337017,-0.657156 1.337017,-1.470975 V 38.289262 c 0,-0.813841 -0.518537,-1.503036 -1.337017,-1.495963 h -3.428257 v -2.122403 -1.330783 h -0.0436 v -4.905517 c 0.484337,-9.754809 9.595967,-17.172417 18.37229,-17.172417 8.776324,0 17.887952,7.417608 18.37231,17.172417 v 4.905517 H 50.3147 v 1.330783 2.122403 h -3.428034 c -0.81849,-0.0069 -1.33702,0.682125 -1.33702,1.495963 v 19.372723 c 0,0.813833 0.518488,1.470979 1.33702,1.471038 h 5.070698 c 0.818518,0 1.570757,-0.65721 1.570757,-1.471038 v -3.316043 h 1.430516 0.729281 1.150025 c 0.817695,-0.03596 1.477259,-0.479559 1.477259,-1.293394 V 41.36523 c 0,-0.813835 -0.658797,-1.380644 -1.477259,-1.380644 H 56.71923 V 33.340017 28.4345 C 56.715376,15.692066 45.494155,5.2612574 32.68401,4.8855361 c -0.234571,-0.00746 -0.465012,-0.00652 -0.698121,-0.00652 z"
       id="path4" />
  </g>
</svg>
