<?xml version="1.0" encoding="UTF-8" standalone="no"?>
<svg
   width="64"
   height="64"
   version="1.1"
   id="svg73"
   sodipodi:docname="com.unity.UnityHub.svg"
   inkscape:version="1.4.2 (ebf0e940d0, 2025-05-08)"
   xmlns:inkscape="http://www.inkscape.org/namespaces/inkscape"
   xmlns:sodipodi="http://sodipodi.sourceforge.net/DTD/sodipodi-0.dtd"
   xmlns="http://www.w3.org/2000/svg"
   xmlns:svg="http://www.w3.org/2000/svg"
   xmlns:rdf="http://www.w3.org/1999/02/22-rdf-syntax-ns#"
   xmlns:cc="http://creativecommons.org/ns#"
   xmlns:dc="http://purl.org/dc/elements/1.1/">
  <metadata
     id="metadata77">
    <rdf:RDF>
      <cc:Work
         rdf:about="">
        <dc:format>image/svg+xml</dc:format>
        <dc:type
           rdf:resource="http://purl.org/dc/dcmitype/StillImage" />
      </cc:Work>
    </rdf:RDF>
  </metadata>
  <sodipodi:namedview
     pagecolor="#f5f7fa"
     bordercolor="#666666"
     borderopacity="1"
     objecttolerance="10"
     gridtolerance="10"
     guidetolerance="10"
     inkscape:pageopacity="0"
     inkscape:pageshadow="2"
     inkscape:window-width="1377"
     inkscape:window-height="886"
     id="namedview75"
     showgrid="false"
     inkscape:zoom="6.2890624"
     inkscape:cx="26.633541"
     inkscape:cy="38.877019"
     inkscape:window-x="0"
     inkscape:window-y="75"
     inkscape:window-maximized="0"
     inkscape:current-layer="g877"
     inkscape:document-rotation="0"
     inkscape:pagecheckerboard="0"
     inkscape:showpageshadow="2"
     inkscape:deskcolor="#d1d1d1" />
  <defs
     id="defs29" />
  <circle
     cx="32.516094"
     cy="31.877844"
     r="0"
     fill="url(#b)"
     stroke-width="1.5715"
     id="circle41"
     style="fill:url(#b)" />
  <g
     aria-label="GZ"
     transform="matrix(1.2212657,0,0,0.81882264,0.4960938,-0.1661539)"
     id="text93"
     style="font-weight:bold;font-size:11.5263px;line-height:1.25;font-family:sans-serif;-inkscape-font-specification:'sans-serif Bold';fill:#f2f2f2;stroke-width:0.288159" />
  <g
     id="g877"
     transform="matrix(1.1,0,0,1.1,-3.1845928,-3.2065454)">
    <path
       id="path11"
       style="fill:#dfdfdf;fill-opacity:1;stroke:none;stroke-width:0.940225;stroke-dasharray:none;stroke-opacity:0.6"
       d="m 32.197693,3.7767551 c -0.76519,-0.023332 -1.532979,0.068626 -2.14118,0.2791213 C 29.254036,4.3335909 9.8820781,15.47012 8.9043112,16.215902 8.6042961,16.444735 8.0659715,17.071244 7.707828,17.60757 6.5379903,19.359412 6.5317322,19.438119 6.5328151,31.891214 c 5.566e-4,6.347706 0.068764,11.416768 0.1619912,11.986308 0.21383,1.305809 0.8238672,2.516697 1.7371484,3.443061 0.553245,0.561281 3.2755183,2.221825 10.5790293,6.450868 5.408775,3.131903 10.245016,5.864268 10.746891,6.072201 1.26973,0.526058 3.206202,0.526652 4.481447,0.0022 0.50214,-0.206632 5.337243,-2.937851 10.746911,-6.070256 6.992532,-4.048961 10.046948,-5.907078 10.56535,-6.425488 0.872141,-0.872141 1.515585,-2.122755 1.752759,-3.409887 0.113558,-0.616296 0.15622,-4.984249 0.124915,-12.608944 l -0.0469,-11.666243 -0.38841,-0.962259 C 56.196719,16.726989 55.885115,16.505046 45.105311,10.262984 39.721537,7.1455056 34.87067,4.4099398 34.325237,4.1849223 33.725986,3.9376983 32.962919,3.8002646 32.19772,3.7769854 Z m 1.335068,7.5126729 c 0.06849,0.0029 3.708497,2.080204 8.088475,4.616129 l 7.963534,4.610261 0.04368,9.322042 c 0.02803,6.166801 -0.01406,9.320091 -0.124914,9.320091 -0.09183,0 -1.509499,-0.760392 -3.152251,-1.690307 l -2.989029,-1.690297 v -3.866621 c 0,-2.126976 -0.041,-3.868567 -0.0938,-3.868567 -0.174339,0 -8.448742,4.877612 -8.572524,5.05334 -0.160921,0.228491 -0.162806,9.008254 -0.0017,9.107344 0.06846,0.04153 1.681571,-0.849359 3.585554,-1.981137 1.903966,-1.131775 3.546418,-2.057919 3.649946,-2.057249 0.183242,0.0012 5.866773,3.219746 6.124914,3.468438 0.07116,0.0685 -2.019248,1.359798 -4.645412,2.871163 -2.626134,1.511375 -6.156325,3.548006 -7.844456,4.524394 -1.688127,0.976403 -3.181269,1.830403 -3.318147,1.899152 -0.168882,0.08478 -2.754667,-1.33489 -8.045519,-4.417033 -4.288718,-2.49839 -7.898838,-4.602458 -8.02206,-4.676634 -0.153772,-0.09255 0.724595,-0.68991 2.798958,-1.903052 1.662351,-0.972199 3.100194,-1.76838 3.197129,-1.76838 0.0969,0 1.689686,0.895882 3.538701,1.990887 1.849069,1.094999 3.440325,1.990894 3.536799,1.990894 0.119028,0 0.175667,-1.46172 0.175667,-4.549772 v -4.551713 l -0.45691,-0.314252 c -0.943579,-0.650561 -7.954238,-4.686392 -8.14116,-4.686392 -0.14379,0 -0.195895,1.01575 -0.199095,3.858805 l -0.0041,3.856862 -2.193877,1.237474 c -1.206679,0.681276 -2.587302,1.452828 -3.066364,1.713726 l -0.870528,0.474297 0.004,-9.345465 0.0019,-9.343506 7.906952,-4.563424 c 4.348865,-2.509386 7.968567,-4.587659 8.043573,-4.618078 0.07499,-0.03045 0.136644,1.581849 0.136644,3.581646 v 3.636297 l -3.1015,1.824988 c -1.705826,1.00372 -3.125425,1.894838 -3.154182,1.981124 -0.06082,0.182629 7.42348,4.54391 7.797638,4.54391 0.383148,1e-6 7.660236,-4.257914 7.705908,-4.508778 0.02383,-0.130225 -1.273423,-0.960876 -3.191283,-2.043584 l -3.234264,-1.824986 v -3.60897 c -5.59e-4,-1.984691 0.05456,-3.607366 0.122998,-3.605067 z" />
  </g>
</svg>
