<?xml version="1.0" encoding="UTF-8" standalone="no"?>
<svg
   width="64"
   height="64"
   version="1.1"
   id="svg73"
   sodipodi:docname="com.frac_tion.teleport.svg"
   inkscape:version="1.4.2 (ebf0e940d0, 2025-05-08)"
   xmlns:inkscape="http://www.inkscape.org/namespaces/inkscape"
   xmlns:sodipodi="http://sodipodi.sourceforge.net/DTD/sodipodi-0.dtd"
   xmlns="http://www.w3.org/2000/svg"
   xmlns:svg="http://www.w3.org/2000/svg"
   xmlns:rdf="http://www.w3.org/1999/02/22-rdf-syntax-ns#"
   xmlns:cc="http://creativecommons.org/ns#"
   xmlns:dc="http://purl.org/dc/elements/1.1/">
  <metadata
     id="metadata77">
    <rdf:RDF>
      <cc:Work
         rdf:about="">
        <dc:format>image/svg+xml</dc:format>
        <dc:type
           rdf:resource="http://purl.org/dc/dcmitype/StillImage" />
      </cc:Work>
    </rdf:RDF>
  </metadata>
  <sodipodi:namedview
     pagecolor="#f5f7fa"
     bordercolor="#666666"
     borderopacity="1"
     objecttolerance="10"
     gridtolerance="10"
     guidetolerance="10"
     inkscape:pageopacity="0"
     inkscape:pageshadow="2"
     inkscape:window-width="1377"
     inkscape:window-height="886"
     id="namedview75"
     showgrid="false"
     inkscape:zoom="6.2890624"
     inkscape:cx="37.445963"
     inkscape:cy="34.901864"
     inkscape:window-x="1"
     inkscape:window-y="75"
     inkscape:window-maximized="0"
     inkscape:current-layer="g877"
     inkscape:document-rotation="0"
     inkscape:pagecheckerboard="0"
     inkscape:showpageshadow="2"
     inkscape:deskcolor="#d1d1d1" />
  <defs
     id="defs29" />
  <circle
     cx="32.516094"
     cy="31.877844"
     r="0"
     fill="url(#b)"
     stroke-width="1.5715"
     id="circle41"
     style="fill:url(#b)" />
  <g
     aria-label="GZ"
     transform="matrix(1.2212657,0,0,0.81882264,0.4960938,-0.1661539)"
     id="text93"
     style="font-weight:bold;font-size:11.5263px;line-height:1.25;font-family:sans-serif;-inkscape-font-specification:'sans-serif Bold';fill:#f2f2f2;stroke-width:0.288159" />
  <g
     id="g877"
     transform="matrix(1.1,0,0,1.1,-3.1845928,-3.2065454)">
    <path
       id="path11-3"
       style="fill:#dfdfdf;fill-opacity:1;stroke:none;stroke-width:0.888519;stroke-dasharray:none;stroke-opacity:0.6"
       d="m 31.991305,4.8227441 c -1.985533,0 -3.970534,0.024689 -5.055768,0.075601 C 16.175093,5.4036499 8.6491387,7.1646875 6.1074542,9.771505 c -1.0864048,1.114253 -1.5575709,2.68738 -1.1804759,3.949076 0.8208881,2.746525 4.3002214,4.658448 10.9932117,6.038889 4.119174,0.84958 8.700391,1.329251 13.680648,1.433171 7.855416,0.163852 14.761795,-0.471294 20.420432,-1.877698 2.996678,-0.74479 5.082389,-1.565207 6.66418,-2.621029 3.25928,-2.175549 3.324359,-5.640437 0.147588,-7.7653467 C 53.623204,6.7815737 46.572047,5.3456341 37.047104,4.8983449 35.961864,4.8473942 33.976865,4.8227441 31.991329,4.8227441 Z m 0.07378,5.0963534 c 7.8681,0.00682 15.449907,0.8219795 19.265773,2.1967955 0.486933,0.175438 0.949675,0.337478 1.0274,0.361528 0.108064,0.03351 0.136263,0.110389 0.118035,0.324619 -0.02266,0.272632 -0.04344,0.288463 -0.730442,0.581025 -2.894786,1.232596 -7.514786,2.07356 -14.110361,2.571225 -1.413562,0.106689 -8.33431,0.159748 -9.916018,0.07559 C 23.7118,15.816722 20.194985,15.401804 17.049003,14.77194 15.164828,14.394714 13.88491,14.031883 12.550263,13.497396 l -1.019997,-0.407632 -0.02396,-0.284056 c -0.01823,-0.217911 0.0096,-0.294737 0.118036,-0.328312 0.07773,-0.02406 0.540485,-0.186078 1.027387,-0.361524 2.437589,-0.878232 6.505171,-1.554049 11.577914,-1.923807 2.557289,-0.186427 5.212729,-0.2752148 7.835424,-0.272984 z m -19.123743,9.7278815 -0.272978,0.206593 c -0.485986,0.36459 -1.14617,1.082022 -1.442397,1.569676 -1.043444,1.717686 -0.847029,3.695912 0.529366,5.356422 2.456331,2.963342 9.200404,5.218188 17.061611,5.703187 4.469527,0.275742 9.675406,-0.112905 13.669579,-1.018168 7.193267,-1.630286 11.178911,-4.567588 10.923111,-8.051235 -0.05208,-0.714727 -0.257176,-1.338608 -0.652973,-1.990209 -0.296146,-0.487657 -0.956402,-1.205081 -1.442389,-1.569675 l -0.272916,-0.206593 -0.940693,0.230562 c -2.935653,0.719652 -7.352737,1.395268 -10.545026,1.612096 l -0.82264,0.05531 1.233966,0.138342 c 3.051692,0.344284 5.689074,0.962215 7.075482,1.656366 0.510593,0.255672 0.584784,0.327831 0.586551,0.571786 0.003,0.371005 -2.177897,1.419219 -4.222053,2.02895 -3.339983,0.996242 -7.074744,1.48112 -11.415619,1.48112 -4.353548,0 -8.209456,-0.504437 -11.528114,-1.508804 -1.937612,-0.586359 -4.112221,-1.646047 -4.109579,-2.001256 0.0016,-0.244657 0.07555,-0.315964 0.586556,-0.571795 1.386435,-0.694126 4.023828,-1.312054 7.075511,-1.656334 l 1.233973,-0.138328 -0.822651,-0.05534 C 21.234738,21.272837 16.817652,20.597205 13.882024,19.877555 Z m 4.910058,11.367642 -0.320941,0.346764 c -0.473057,0.513207 -0.910488,1.227285 -1.114085,1.820527 -0.259133,0.755101 -0.242543,1.809 0.03877,2.541714 0.57574,1.499703 1.953084,2.711368 4.046832,3.559884 2.021848,0.819375 4.900281,1.419873 7.960856,1.661895 1.254362,0.09915 5.63526,0.103939 6.863377,0.0077 4.192926,-0.329756 7.53053,-1.156219 9.643009,-2.390446 0.903307,-0.527736 1.981958,-1.603888 2.333299,-2.325911 0.813717,-1.672267 0.51349,-3.395445 -0.850314,-4.875007 L 46.1331,31.015057 45.568698,31.206855 c -1.939322,0.660676 -5.452282,1.368451 -8.167456,1.645139 l -0.549664,0.0553 1.020008,0.18631 c 1.267028,0.231314 2.369653,0.525657 2.958576,0.787597 0.418704,0.186235 0.450079,0.218101 0.450079,0.461131 0,0.323816 -0.144243,0.408127 -1.176793,0.686156 -4.465642,1.202426 -11.478758,1.223502 -16.03789,0.04795 -1.19448,-0.308005 -1.363088,-0.399268 -1.363088,-0.734132 0,-0.24303 0.03137,-0.274915 0.450063,-0.461126 0.588917,-0.261959 1.691545,-0.55628 2.958569,-0.787599 l 1.020005,-0.186308 -0.549665,-0.0553 C 23.831759,32.571603 20.25816,31.84489 18.29775,31.167783 Z m 14.016338,11.81402 c -1.947894,0.0075 -3.914643,0.104665 -5.599895,0.291423 -5.411734,0.599419 -9.483157,2.164681 -9.803509,3.766465 -0.10208,0.510467 0.569743,1.3146 1.564136,1.870321 2.010635,1.123671 5.905105,2.022958 10.004556,2.311166 0.668284,0.04717 1.390982,0.09854 1.606556,0.11443 0.882987,0.06512 5.653742,-0.03711 6.820957,-0.145604 5.092308,-0.473465 8.87914,-1.546562 10.414036,-2.949364 0.806738,-0.737298 0.846956,-1.323999 0.136367,-2.034486 C 45.659256,44.701199 42.025085,43.58054 37.36056,43.077746 35.74491,42.903621 33.815537,42.8213 31.867642,42.828762 Z M 16.64693,44.877884 c -0.02155,0 -0.547333,0.173452 -1.169411,0.385493 -3.536115,1.205312 -5.8627035,2.754853 -6.7139704,4.471065 -0.2732433,0.550872 -0.2895926,0.625122 -0.2895926,1.335422 0,0.717171 0.014982,0.78272 0.3061938,1.372288 1.2627042,2.554933 6.0937602,4.810475 12.7454882,5.950369 2.006646,0.343898 4.600506,0.633685 7.016467,0.782058 0.258697,0.01562 2.058671,0.01953 3.998874,0.0076 3.633378,-0.02089 4.764219,-0.0854 7.564293,-0.435334 7.776634,-0.971947 13.68061,-3.438164 15.097219,-6.304492 0.291356,-0.589509 0.30614,-0.655124 0.30614,-1.372309 0,-0.717997 -0.01436,-0.781802 -0.307964,-1.37599 -0.660887,-1.33728 -2.450097,-2.709623 -4.904523,-3.760935 -0.576349,-0.246926 -2.846225,-1.055052 -2.962265,-1.055052 -0.02155,0 0.137494,0.170548 0.355986,0.380022 0.727796,0.697795 1.001492,1.518308 0.770994,2.311161 -0.255047,0.877413 -1.049387,1.611674 -2.515898,2.325901 -2.287649,1.114152 -5.465106,1.821904 -9.916029,2.209722 -1.726293,0.150519 -6.743073,0.126072 -8.545559,-0.04278 -6.902155,-0.645397 -11.326171,-2.307846 -11.961572,-4.493558 -0.230386,-0.792481 0.0276,-1.571931 0.759934,-2.292714 0.222394,-0.218936 0.386858,-0.398394 0.365199,-0.398394 z" />
  </g>
</svg>
