<?xml version="1.0" encoding="UTF-8" standalone="no"?>
<svg
   width="64"
   height="64"
   version="1.1"
   id="svg73"
   sodipodi:docname="com.tracktion.Waveform.svg"
   inkscape:version="1.4.2 (ebf0e940d0, 2025-05-08)"
   xmlns:inkscape="http://www.inkscape.org/namespaces/inkscape"
   xmlns:sodipodi="http://sodipodi.sourceforge.net/DTD/sodipodi-0.dtd"
   xmlns="http://www.w3.org/2000/svg"
   xmlns:svg="http://www.w3.org/2000/svg"
   xmlns:rdf="http://www.w3.org/1999/02/22-rdf-syntax-ns#"
   xmlns:cc="http://creativecommons.org/ns#"
   xmlns:dc="http://purl.org/dc/elements/1.1/">
  <metadata
     id="metadata77">
    <rdf:RDF>
      <cc:Work
         rdf:about="">
        <dc:format>image/svg+xml</dc:format>
        <dc:type
           rdf:resource="http://purl.org/dc/dcmitype/StillImage" />
      </cc:Work>
    </rdf:RDF>
  </metadata>
  <sodipodi:namedview
     pagecolor="#f5f7fa"
     bordercolor="#666666"
     borderopacity="1"
     objecttolerance="10"
     gridtolerance="10"
     guidetolerance="10"
     inkscape:pageopacity="0"
     inkscape:pageshadow="2"
     inkscape:window-width="1377"
     inkscape:window-height="886"
     id="namedview75"
     showgrid="false"
     inkscape:zoom="6.2890624"
     inkscape:cx="46.986336"
     inkscape:cy="40.467081"
     inkscape:window-x="12"
     inkscape:window-y="50"
     inkscape:window-maximized="0"
     inkscape:current-layer="g877"
     inkscape:document-rotation="0"
     inkscape:pagecheckerboard="0"
     inkscape:showpageshadow="2"
     inkscape:deskcolor="#d1d1d1" />
  <defs
     id="defs29" />
  <circle
     cx="32.516094"
     cy="31.877844"
     r="0"
     fill="url(#b)"
     stroke-width="1.5715"
     id="circle41"
     style="fill:url(#b)" />
  <g
     aria-label="GZ"
     transform="matrix(1.2212657,0,0,0.81882264,0.4960938,-0.1661539)"
     id="text93"
     style="font-weight:bold;font-size:11.5263px;line-height:1.25;font-family:sans-serif;-inkscape-font-specification:'sans-serif Bold';fill:#f2f2f2;stroke-width:0.288159" />
  <g
     id="g877"
     transform="matrix(1.1,0,0,1.1,-3.1845928,-3.2065454)">
    <path
       style="fill:#dfdfdf;fill-opacity:1;stroke:none;stroke-width:0.878917;stroke-dasharray:none;stroke-opacity:0.6"
       d="M 27.263955,59.50472 C 21.16074,58.305049 17.285263,56.228928 12.836185,51.775624 7.7251637,46.659772 5.4515822,42.105202 4.5316287,35.139474 3.0600326,23.996872 9.0626595,12.504804 19.153728,7.1453711 23.587639,4.7904899 26.366216,4.1410417 32.00733,4.1410417 c 4.330905,0 5.573603,0.145107 7.905625,0.9229913 15.561703,5.190991 23.522161,21.324009 17.994854,36.469182 -3.058957,8.381762 -10.729741,15.427004 -19.087517,17.530949 -3.47939,0.87589 -8.389359,1.063066 -11.556337,0.440552 z m 9.566117,-5.768659 c 3.46803,-0.746014 3.465463,-0.76501 -0.664483,-4.916489 -2.061048,-2.071805 -3.932268,-3.76691 -4.158259,-3.76691 -0.617164,0 -7.907012,7.443078 -7.595218,7.754877 1.142952,1.142951 8.769966,1.713247 12.41796,0.928522 z M 25.682961,43.4714 l 6.315374,-6.324637 6.33336,6.324637 c 3.483356,3.478553 6.549993,6.324637 6.814757,6.324637 0.937764,0 4.754288,-4.35957 6.162419,-7.03926 1.91564,-3.645475 2.63751,-6.643402 2.631887,-10.930268 -0.0084,-6.239861 -1.959402,-11.18427 -6.147317,-15.577479 l -2.498755,-2.621236 -4.568452,4.539288 c -2.512644,2.496607 -4.568447,4.714908 -4.568447,4.929554 0,0.21465 1.017207,1.418204 2.260461,2.674568 l 2.26047,2.284303 2.049017,-2.023567 c 1.12696,-1.112963 2.241892,-1.904368 2.477631,-1.758675 0.235736,0.145692 0.809064,1.51749 1.274076,3.048443 1.065094,3.506585 0.899772,7.452698 -0.441938,10.549048 l -0.913117,2.107205 -6.36525,-6.356478 C 35.258247,30.125419 32.21589,27.265 31.998335,27.265 c -0.217559,0 -3.22879,2.837397 -6.691638,6.305323 -7.067206,7.077575 -6.674237,6.948725 -7.937648,2.60272 -0.858247,-2.952252 -0.61811,-7.045443 0.600472,-10.235284 l 0.884548,-2.315448 2.240459,2.217084 2.24046,2.217081 2.260942,-2.284786 c 1.24352,-1.256633 2.260943,-2.460405 2.260943,-2.675054 0,-0.214646 -2.055799,-2.432947 -4.568448,-4.929554 l -4.568451,-4.539288 -2.447795,2.573385 c -4.339167,4.561803 -6.218269,9.283522 -6.247739,15.699036 -0.01952,4.241937 0.664038,6.993901 2.705576,10.893006 1.392541,2.659601 5.205087,7.002816 6.147188,7.002816 0.269717,0 3.332306,-2.846084 6.805757,-6.324637 z M 36.039869,15.136233 c 2.021497,-2.105325 3.675447,-3.958771 3.675447,-4.118767 0,-0.476934 -5.321046,-1.5401243 -7.707986,-1.5401243 -2.331086,0 -7.707984,1.0588693 -7.707984,1.5179283 0,0.478212 7.164804,7.968824 7.622211,7.968824 0.243575,0 2.096815,-1.722539 4.118312,-3.827861 z"
       id="path10" />
  </g>
</svg>
