<?xml version="1.0" encoding="UTF-8" standalone="no"?>
<svg
   width="64"
   height="64"
   version="1.1"
   id="svg73"
   sodipodi:docname="com.viber.Viber.svg"
   inkscape:version="1.4.2 (ebf0e940d0, 2025-05-08)"
   xmlns:inkscape="http://www.inkscape.org/namespaces/inkscape"
   xmlns:sodipodi="http://sodipodi.sourceforge.net/DTD/sodipodi-0.dtd"
   xmlns="http://www.w3.org/2000/svg"
   xmlns:svg="http://www.w3.org/2000/svg"
   xmlns:rdf="http://www.w3.org/1999/02/22-rdf-syntax-ns#"
   xmlns:cc="http://creativecommons.org/ns#"
   xmlns:dc="http://purl.org/dc/elements/1.1/">
  <metadata
     id="metadata77">
    <rdf:RDF>
      <cc:Work
         rdf:about="">
        <dc:format>image/svg+xml</dc:format>
        <dc:type
           rdf:resource="http://purl.org/dc/dcmitype/StillImage" />
      </cc:Work>
    </rdf:RDF>
  </metadata>
  <sodipodi:namedview
     pagecolor="#f5f7fa"
     bordercolor="#666666"
     borderopacity="1"
     objecttolerance="10"
     gridtolerance="10"
     guidetolerance="10"
     inkscape:pageopacity="0"
     inkscape:pageshadow="2"
     inkscape:window-width="1377"
     inkscape:window-height="886"
     id="namedview75"
     showgrid="false"
     inkscape:zoom="6.2890624"
     inkscape:cx="47.622361"
     inkscape:cy="45.396274"
     inkscape:window-x="264"
     inkscape:window-y="75"
     inkscape:window-maximized="0"
     inkscape:current-layer="g877"
     inkscape:document-rotation="0"
     inkscape:pagecheckerboard="0"
     inkscape:showpageshadow="2"
     inkscape:deskcolor="#d1d1d1" />
  <defs
     id="defs29" />
  <circle
     cx="32.516094"
     cy="31.877844"
     r="0"
     fill="url(#b)"
     stroke-width="1.5715"
     id="circle41"
     style="fill:url(#b)" />
  <g
     aria-label="GZ"
     transform="matrix(1.2212657,0,0,0.81882264,0.4960938,-0.1661539)"
     id="text93"
     style="font-weight:bold;font-size:11.5263px;line-height:1.25;font-family:sans-serif;-inkscape-font-specification:'sans-serif Bold';fill:#f2f2f2;stroke-width:0.288159" />
  <g
     id="g877"
     transform="matrix(1.1,0,0,1.1,-3.1845928,-3.2065454)">
    <path
       style="fill:#dfdfdf;fill-opacity:1;stroke:none;stroke-width:0.830574;stroke-dasharray:none;stroke-opacity:0.6"
       d="M 20.276146,54.018988 V 48.807086 L 19.840031,48.69768 C 19.225106,48.543268 16.981039,47.405448 16.076203,46.789197 12.783474,44.546641 10.197564,40.85234 9.0967479,36.81815 l -0.4437884,-1.62635 -0.00165,-8.050439 -0.00209,-8.050436 0.4460467,-1.626349 c 0.8527024,-3.109067 2.3941098,-5.794464 4.5816358,-7.9819868 2.092616,-2.0926179 4.551926,-3.5421374 7.366613,-4.341878 1.242188,-0.3529533 1.447267,-0.3596908 10.942702,-0.3596908 9.495433,0 9.700508,0.00692 10.942693,0.3596908 2.814691,0.7997406 5.274002,2.2492601 7.36662,4.341878 2.187529,2.1875228 3.728925,4.8729198 4.581623,7.9819868 l 0.446002,1.626349 -0.0016,8.050436 -0.0017,8.050439 -0.433442,1.5785 c -1.345336,4.899467 -4.572294,8.957599 -8.81146,11.081066 -2.993018,1.499265 -4.428445,1.733637 -10.617225,1.733637 h -4.781082 l -4.840171,4.513134 c -2.662093,2.482222 -5.001974,4.652534 -5.199737,4.822938 l -0.35957,0.309817 z M 39.797924,41.680464 c 0.713845,-0.211982 1.099212,-0.482127 2.063547,-1.446434 1.853313,-1.853316 2.382856,-3.367381 1.59714,-4.566539 -0.369822,-0.564404 -2.807431,-2.480647 -4.314626,-3.391782 -1.49975,-0.90664 -2.535396,-1.118048 -3.367972,-0.687499 -0.270734,0.139982 -0.875585,0.697037 -1.344109,1.237866 -0.754733,0.8712 -0.919567,0.982822 -1.445652,0.978916 -0.757692,-0.0056 -2.440951,-0.722684 -3.694155,-1.573722 -1.850836,-1.25688 -3.666423,-3.533585 -4.570676,-5.731531 -0.554144,-1.346929 -0.50599,-1.880638 0.225798,-2.502985 1.694016,-1.440684 2.002489,-2.006854 1.769652,-3.248001 -0.213703,-1.139137 -3.292605,-5.46669 -4.371544,-6.144435 -0.773813,-0.486071 -1.834459,-0.350763 -2.921519,0.372712 -1.8687,1.243677 -3.213539,3.067544 -3.213539,4.358195 0,0.903053 0.587181,2.450697 1.943548,5.122651 3.155558,6.216244 6.352317,9.906033 11.466703,13.235191 2.867616,1.866648 7.843916,4.221769 8.963218,4.242004 0.185029,0.0033 0.731411,-0.111223 1.214186,-0.254504 z M 41.855473,23.8603 c 0.310386,-0.291574 0.37648,-0.520751 0.37648,-1.30621 0,-2.954752 -2.141245,-5.608616 -5.146484,-6.378544 -2.099498,-0.537884 -3.147911,-0.225308 -3.147911,0.938544 0,0.737909 0.447237,1.099699 1.578803,1.277142 2.518596,0.394962 3.832783,1.692318 4.126699,4.073873 0.109714,0.889154 0.230591,1.249676 0.490748,1.464207 0.475552,0.392121 1.26454,0.360493 1.721729,-0.06897 z m 5.506803,-0.04562 c 0.483675,-0.48367 0.520886,-1.299946 0.154916,-3.39862 -0.686286,-3.935409 -2.884495,-6.942134 -6.301821,-8.619681 -1.855091,-0.91065 -3.007916,-1.220754 -5.000983,-1.345226 -1.429549,-0.08931 -1.572381,-0.0704 -1.91096,0.252736 -0.241727,0.230692 -0.365928,0.540284 -0.365928,0.912114 0,0.908247 0.373851,1.135896 2.210325,1.34593 1.959485,0.224101 3.320697,0.6666 4.605886,1.49726 1.690973,1.092924 2.935068,2.559806 3.602199,4.247252 0.408217,1.032576 0.803406,2.977865 0.803406,3.954788 0,1.413074 1.275511,2.080924 2.202968,1.153462 z"
       id="path7" />
  </g>
</svg>
