<?xml version="1.0" encoding="UTF-8" standalone="no"?>
<svg
   width="64"
   height="64"
   version="1.1"
   id="svg73"
   sodipodi:docname="com.jeffser.Alpaca.svg"
   inkscape:version="1.4.2 (ebf0e940d0, 2025-05-08)"
   xmlns:inkscape="http://www.inkscape.org/namespaces/inkscape"
   xmlns:sodipodi="http://sodipodi.sourceforge.net/DTD/sodipodi-0.dtd"
   xmlns="http://www.w3.org/2000/svg"
   xmlns:svg="http://www.w3.org/2000/svg"
   xmlns:rdf="http://www.w3.org/1999/02/22-rdf-syntax-ns#"
   xmlns:cc="http://creativecommons.org/ns#"
   xmlns:dc="http://purl.org/dc/elements/1.1/">
  <metadata
     id="metadata77">
    <rdf:RDF>
      <cc:Work
         rdf:about="">
        <dc:format>image/svg+xml</dc:format>
        <dc:type
           rdf:resource="http://purl.org/dc/dcmitype/StillImage" />
      </cc:Work>
    </rdf:RDF>
  </metadata>
  <sodipodi:namedview
     pagecolor="#f5f7fa"
     bordercolor="#666666"
     borderopacity="1"
     objecttolerance="10"
     gridtolerance="10"
     guidetolerance="10"
     inkscape:pageopacity="0"
     inkscape:pageshadow="2"
     inkscape:window-width="1377"
     inkscape:window-height="886"
     id="namedview75"
     showgrid="false"
     inkscape:zoom="6.2890624"
     inkscape:cx="47.622361"
     inkscape:cy="42.693168"
     inkscape:window-x="16"
     inkscape:window-y="55"
     inkscape:window-maximized="0"
     inkscape:current-layer="g877"
     inkscape:document-rotation="0"
     inkscape:pagecheckerboard="0"
     inkscape:showpageshadow="2"
     inkscape:deskcolor="#d1d1d1" />
  <defs
     id="defs29" />
  <circle
     cx="32.516094"
     cy="31.877844"
     r="0"
     fill="url(#b)"
     stroke-width="1.5715"
     id="circle41"
     style="fill:url(#b)" />
  <g
     aria-label="GZ"
     transform="matrix(1.2212657,0,0,0.81882264,0.4960938,-0.1661539)"
     id="text93"
     style="font-weight:bold;font-size:11.5263px;line-height:1.25;font-family:sans-serif;-inkscape-font-specification:'sans-serif Bold';fill:#f2f2f2;stroke-width:0.288159" />
  <g
     id="g877"
     transform="matrix(1.1,0,0,1.1,-3.1845928,-3.2065454)">
    <path
       style="fill:#dfdfdf;fill-opacity:1;stroke:none;stroke-width:0.861425;stroke-dasharray:none;stroke-opacity:0.6"
       d="m 32.368394,53.24727 c -0.02757,-0.06719 -0.05939,-0.373176 -0.07097,-0.680041 -0.03398,-0.899718 0.108988,-1.804321 0.640362,-4.054605 0.152193,-0.644595 0.282161,-1.238535 0.288805,-1.319889 l 0.01186,-0.147925 -1.011725,-0.338872 c -1.386264,-0.464338 -2.164118,-0.589943 -2.475364,-0.399652 -0.0767,0.04675 -0.275483,0.220048 -0.441689,0.384866 -0.604394,0.599338 -1.277833,0.834998 -2.847773,0.996486 -0.147009,0.0142 -0.267322,0.03967 -0.267322,0.05215 0,0.16922 0.213397,0.723449 0.488443,1.268104 0.357683,0.708354 0.421851,0.876364 0.727547,1.905199 0.209588,0.705458 0.280484,1.345812 0.181958,1.644366 -0.13398,0.405899 -0.565235,0.590595 -1.379016,0.590595 -0.544807,0 -1.584927,-0.11916 -1.675181,-0.191933 -0.09225,-0.07437 -0.215863,-0.612761 -0.211122,-0.919903 0.0051,-0.328925 -0.13121,-0.722216 -0.678119,-1.956782 -0.152983,-0.345229 -0.397401,-0.983351 -0.543194,-1.418069 -0.14578,-0.434711 -0.345511,-0.957972 -0.443824,-1.162781 -0.192599,-0.401223 -0.518926,-0.813234 -0.644171,-0.813182 -0.154786,0 -0.639865,0.268535 -0.786003,0.435094 -0.301094,0.343115 -0.339713,0.478031 -0.50004,1.750164 -0.06607,0.524239 -0.150034,1.089139 -0.186582,1.255343 -0.03659,0.166206 -0.08889,0.647489 -0.11633,1.069365 -0.06228,0.959413 -0.114151,1.292521 -0.223922,1.440874 -0.267888,0.361923 -0.814485,0.511138 -1.873635,0.511627 -0.834262,5.97e-4 -1.183331,-0.149052 -1.296099,-0.554959 -0.08639,-0.310879 -0.05383,-1.206453 0.09556,-2.629579 0.0268,-0.255758 0.15076,-0.925218 0.275368,-1.487796 0.28867,-1.303217 0.34363,-1.693187 0.316912,-2.248279 -0.02745,-0.570144 -0.174127,-0.927602 -0.509297,-1.241112 -0.399572,-0.373609 -0.85691,-0.530273 -1.891383,-0.64768 C 14.448051,44.239234 13.971001,44.146256 13.5527,43.99361 12.718491,43.689144 12.421564,43.348736 12.038147,42.257175 11.727521,41.372583 11.3407,41.033229 9.9781539,40.449732 9.3436585,40.178017 9.0960727,40.013655 8.8437602,39.696652 8.3836775,39.118604 8.2341457,38.552354 8.2767729,37.549558 8.3212888,36.502156 8.214591,36.132126 7.6070458,35.228257 7.3031495,34.776104 7.2950764,34.756443 7.3011554,34.482917 7.3045434,34.328421 7.3639786,33.826471 7.4332039,33.367515 7.5207595,32.786729 7.554245,32.404016 7.543205,32.108627 7.5285519,31.72601 7.5136689,31.664431 7.3879523,31.483364 7.0780495,31.03715 7.0419552,30.971617 6.9614479,30.709065 c -0.065388,-0.213376 -0.083248,-0.425675 -0.08136,-0.970526 0.00266,-0.821085 0.05226,-0.999126 0.4564725,-1.642392 0.2877767,-0.458009 0.3672773,-0.684532 0.3455215,-0.98453 l -0.01481,-0.209229 -0.3719576,-0.03401 C 6.8795466,26.830437 6.5048592,26.849764 5.6304237,26.955023 5.302887,26.994381 4.8112156,27.01956 4.5378082,27.010936 4.0955013,26.996887 4.0100644,26.979837 3.7629217,26.855803 3.5017875,26.72466 3.4814737,26.7024 3.4239452,26.483838 c -0.3009138,-1.142966 0.783227,-2.161951 2.3001809,-2.161951 0.508494,0 0.8391507,0.09231 1.5153955,0.423169 0.4983881,0.243824 1.0633895,0.438828 1.1606009,0.400546 0.03157,-0.01265 0.2248367,-0.288584 0.4294246,-0.613638 0.5342513,-0.84894 0.8148767,-1.140345 1.3423949,-1.39395 0.233392,-0.112203 0.71727,-0.30139 1.07527,-0.42042 1.02284,-0.340054 1.21313,-0.479317 1.730934,-1.26678 0.475419,-0.723018 0.799863,-0.955823 1.640716,-1.177323 0.321712,-0.08471 0.578536,-0.109626 1.394003,-0.135004 1.338851,-0.0417 1.351908,-0.04661 2.213267,-0.837099 0.420489,-0.385896 0.810587,-0.615258 1.366785,-0.803646 l 0.441704,-0.149601 1.232087,-3.64e-4 c 1.466572,-3.6e-4 1.606894,-0.02875 2.638662,-0.532645 1.443431,-0.704924 1.967177,-0.758131 3.511089,-0.356687 1.197041,0.311238 1.507023,0.295225 2.50577,-0.12948 0.926092,-0.393848 1.43996,-0.495548 2.036185,-0.40305 0.702655,0.109021 1.288524,0.375552 2.038157,0.927191 0.590956,0.434891 0.743825,0.516218 1.26489,0.672902 0.695164,0.209046 1.130564,0.264902 2.440945,0.313278 0.690435,0.02557 1.362552,0.06735 1.493623,0.09321 0.657357,0.12924 1.240227,0.846569 2.074678,2.553343 0.573671,1.173461 0.823392,1.623646 1.319381,2.378734 1.523766,2.319842 3.483804,3.964252 6.116363,5.131468 0.619267,0.274579 0.744855,0.376243 0.930534,0.753393 0.152209,0.308924 0.153901,0.320342 0.153723,0.96452 -6.28e-4,0.719724 -0.05501,1.046175 -0.333548,1.990671 -0.09198,0.312108 -0.196238,0.68256 -0.231789,0.823205 -0.09485,0.376867 -0.0823,1.056359 0.03206,1.743528 0.117624,0.706191 0.101464,1.079437 -0.06839,1.567737 -0.177848,0.511727 -0.462106,0.936732 -1.006552,1.505264 -0.549395,0.5738 -0.641693,0.724352 -0.995271,1.622914 -0.277392,0.705144 -0.46939,1.023449 -0.798681,1.324423 -0.627357,0.573435 -1.517304,0.838365 -3.130243,0.93202 l -0.813643,0.04729 -0.150776,0.173171 c -0.200422,0.230157 -0.494721,0.839069 -0.600618,1.242617 -0.06963,0.265601 -0.08516,0.496734 -0.08319,1.25533 0.0024,1.013864 0.03804,1.290893 0.439383,3.3476 0.385574,1.979197 0.712298,4.265151 0.620986,4.343742 -0.0413,0.03643 -2.475061,0.42335 -2.652242,0.422369 -0.08696,-6.11e-4 -0.118725,-0.05683 -0.218175,-0.384047 -0.721309,-2.379626 -1.056362,-4.151014 -1.188944,-6.288409 -0.02555,-0.409106 -0.06691,-0.814782 -0.09228,-0.901409 -0.0938,-0.320445 -0.286239,-0.440745 -0.817616,-0.511194 -0.742112,-0.09827 -0.714913,-0.101464 -0.764648,0.08527 -0.219826,0.824584 -1.573457,6.301903 -1.675193,6.778495 -0.105754,0.495266 -0.256715,1.058966 -0.298518,1.114383 -0.0042,0.0062 -0.477209,0.08506 -1.051476,0.177051 -0.574268,0.09197 -1.145001,0.184394 -1.268303,0.205366 -0.213893,0.03643 -0.226508,0.03206 -0.274147,-0.08404 z M 50.972406,28.483718 c -1.618314,-0.306409 -3.553285,-1.495703 -5.371269,-3.30134 -1.35544,-1.346243 -2.142305,-2.510052 -3.017288,-4.462653 -0.394197,-0.879733 -0.582803,-1.197776 -1.051287,-1.773149 -0.148117,-0.18196 -0.305175,-0.422566 -0.348826,-0.534689 -0.04349,-0.112118 -0.117624,-0.258992 -0.164205,-0.326371 l -0.0847,-0.122532 -1.104879,-0.02211 c -0.88778,-0.01771 -1.203866,-0.04218 -1.608489,-0.124023 -0.659335,-0.133288 -1.405448,-0.401421 -2.200581,-0.79075 -0.862704,-0.422413 -1.120217,-0.698229 -1.392577,-1.491496 -0.0722,-0.210251 -0.0878,-0.39213 -0.0878,-1.022875 0,-0.674334 0.01346,-0.80934 0.108922,-1.115853 0.219449,-0.70255 0.265675,-0.775876 0.558738,-0.886736 0.22016,-0.0833 0.329286,-0.09556 0.680676,-0.07623 0.564985,0.03093 0.977989,0.184822 2.392955,0.891334 1.512614,0.755259 2.02623,0.950004 2.685421,1.018217 l 0.242985,0.02504 0.378612,-0.474243 c 0.20836,-0.260826 0.535657,-0.714849 0.727537,-1.00892 0.392693,-0.60165 0.611049,-0.852641 0.848784,-0.975085 0.277555,-0.142983 0.777357,-0.277766 1.743526,-0.470242 0.897145,-0.178724 0.991517,-0.209802 1.565237,-0.51545 0.306911,-0.163587 1.025433,-0.281043 1.596367,-0.261004 0.444005,0.01531 0.572775,0.04014 0.976384,0.185644 0.25576,0.09222 0.643535,0.23189 0.861847,0.310378 0.427101,0.153545 0.803971,0.206793 2.001168,0.282613 0.766239,0.04852 1.139496,0.108922 1.367936,0.221186 0.07669,0.03774 0.391278,0.331785 0.698945,0.653486 l 0.559501,0.584923 0.579654,-0.190254 c 0.318818,-0.104665 1.008566,-0.337809 1.532791,-0.518191 1.239433,-0.426473 1.755732,-0.532216 2.464183,-0.504701 0.397149,0.01514 0.601114,0.04632 0.792796,0.120395 0.77164,0.297952 0.905251,1.080661 0.368284,2.157709 -0.518262,1.039697 -1.374909,1.912769 -2.29291,2.336908 -0.635182,0.29348 -0.971152,0.348149 -2.425044,0.394648 -0.716013,0.02298 -1.325823,0.04256 -1.355152,0.04388 -0.09904,0.004 -0.17943,0.783229 -0.175191,1.699224 0.0053,1.122193 0.06897,1.437839 0.628341,3.099413 0.580672,1.724898 0.709181,2.496004 0.603749,3.622952 -0.106755,1.141338 -0.390465,1.834121 -0.999097,2.439489 -0.416988,0.414771 -0.803143,0.635399 -1.422605,0.812819 -0.454927,0.130252 -1.361501,0.163603 -1.86354,0.06855 z m -4.997759,-8.339764 c 0.07478,-0.04249 0.184621,-0.169273 0.244128,-0.281657 0.289301,-0.547181 -0.03804,-1.212854 -0.59484,-1.212384 -0.270381,1.78e-4 -0.470044,0.128867 -0.592571,0.381909 -0.214992,0.44403 -0.07571,0.942024 0.319254,1.141611 0.227438,0.114938 0.382905,0.107591 0.624,-0.02941 z m 7.187265,-0.482973 c 0.281091,-0.191272 0.348383,-0.328081 0.348383,-0.709035 0,-0.382214 -0.06655,-0.516589 -0.352952,-0.713146 -0.125129,-0.08595 -0.200858,-0.10406 -0.361379,-0.08643 -0.258424,0.0284 -0.420795,0.147393 -0.552626,0.405364 -0.349912,0.684783 0.331428,1.503001 0.918738,1.103293 z"
       id="path1" />
  </g>
</svg>
