<?xml version="1.0" encoding="UTF-8" standalone="no"?>
<svg
   width="64"
   height="64"
   version="1.1"
   id="svg73"
   sodipodi:docname="com.github.sdv43.whaler.svg"
   inkscape:version="1.4.2 (ebf0e940d0, 2025-05-08)"
   xmlns:inkscape="http://www.inkscape.org/namespaces/inkscape"
   xmlns:sodipodi="http://sodipodi.sourceforge.net/DTD/sodipodi-0.dtd"
   xmlns="http://www.w3.org/2000/svg"
   xmlns:svg="http://www.w3.org/2000/svg"
   xmlns:rdf="http://www.w3.org/1999/02/22-rdf-syntax-ns#"
   xmlns:cc="http://creativecommons.org/ns#"
   xmlns:dc="http://purl.org/dc/elements/1.1/">
  <metadata
     id="metadata77">
    <rdf:RDF>
      <cc:Work
         rdf:about="">
        <dc:format>image/svg+xml</dc:format>
        <dc:type
           rdf:resource="http://purl.org/dc/dcmitype/StillImage" />
      </cc:Work>
    </rdf:RDF>
  </metadata>
  <sodipodi:namedview
     pagecolor="#f5f7fa"
     bordercolor="#666666"
     borderopacity="1"
     objecttolerance="10"
     gridtolerance="10"
     guidetolerance="10"
     inkscape:pageopacity="0"
     inkscape:pageshadow="2"
     inkscape:window-width="1377"
     inkscape:window-height="886"
     id="namedview75"
     showgrid="false"
     inkscape:zoom="6.2890624"
     inkscape:cx="37.445963"
     inkscape:cy="34.901864"
     inkscape:window-x="1"
     inkscape:window-y="75"
     inkscape:window-maximized="0"
     inkscape:current-layer="g877"
     inkscape:document-rotation="0"
     inkscape:pagecheckerboard="0"
     inkscape:showpageshadow="2"
     inkscape:deskcolor="#d1d1d1" />
  <defs
     id="defs29" />
  <circle
     cx="32.516094"
     cy="31.877844"
     r="0"
     fill="url(#b)"
     stroke-width="1.5715"
     id="circle41"
     style="fill:url(#b)" />
  <g
     aria-label="GZ"
     transform="matrix(1.2212657,0,0,0.81882264,0.4960938,-0.1661539)"
     id="text93"
     style="font-weight:bold;font-size:11.5263px;line-height:1.25;font-family:sans-serif;-inkscape-font-specification:'sans-serif Bold';fill:#f2f2f2;stroke-width:0.288159" />
  <g
     id="g877"
     transform="matrix(1.1,0,0,1.1,-3.1845928,-3.2065454)">
    <path
       id="path4"
       style="fill:#dfdfdf;fill-opacity:1;stroke:none;stroke-width:0.895456;stroke-dasharray:none;stroke-opacity:0.6"
       d="m 34.437417,5.7302654 c -1.54238,0.027056 -3.427847,0.2098721 -4.736495,0.4795956 -3.06263,0.6312353 -6.839197,2.2562921 -9.725789,4.186254 L 18.517754,11.372043 17.60503,10.853408 C 17.103304,10.568318 15.740767,9.7748341 14.576874,9.0911665 10.235557,6.5410925 8.749813,5.9526405 6.3958326,5.8492326 L 4.7897354,5.7785961 4.9346959,6.4273497 c 0.2081045,0.9261945 1.2697159,3.3260861 2.1321652,4.8220073 2.163796,3.75309 4.7598669,6.436847 6.8277569,7.056402 0.365721,0.109527 0.665483,0.236529 0.665483,0.282552 0,0.04607 -0.307823,0.479526 -0.684072,0.962913 -3.77854,4.854392 -5.6991191,10.759563 -4.9353968,15.177955 0.800767,4.632655 4.3247578,11.727811 7.1437748,14.382354 2.322346,2.186849 4.642785,2.857051 8.194053,2.366396 1.686825,-0.232986 2.366328,-0.446285 4.400029,-1.377453 2.061762,-0.943925 3.440761,-1.302374 5.000458,-1.301232 1.40757,9.57e-4 2.163965,0.382356 3.530058,1.780824 0.622061,0.636831 1.258198,1.252924 1.41277,1.368149 0.154608,0.115289 0.936687,0.300683 1.738075,0.414497 1.990723,0.282474 7.282527,0.186583 9.277802,-0.169131 1.87489,-0.334247 4.539827,-1.20291 5.775612,-1.88121 1.091994,-0.599408 1.837308,-1.569126 2.604329,-3.388779 0.898633,-2.131911 1.145278,-3.357506 1.163677,-5.794212 0.01894,-2.447291 -0.231506,-3.594629 -1.204565,-5.524683 C 55.643466,30.976961 50.465246,27.193 44.339771,25.639146 38.529306,24.165204 31.809565,24.620874 26.964582,26.817691 c -2.097235,0.950932 -4.777825,2.946925 -5.623187,4.188113 -0.210338,0.308829 -0.464529,0.562656 -0.565106,0.56325 -0.358787,0.0018 -1.585421,-1.570102 -1.931402,-2.4742 -0.856941,-2.239329 -0.774326,-5.534367 0.226789,-9.021273 l 0.237937,-0.829071 h 0.825358 c 1.120591,-8.63e-4 3.478468,-0.396712 4.539443,-0.762151 1.919509,-0.66114 4.013339,-1.926477 5.898309,-3.561656 1.803349,-1.56438 4.406372,-4.9677272 6.071176,-7.9393895 L 37.272211,5.8585388 35.831563,5.7581451 c -0.404089,-0.027999 -0.880054,-0.036869 -1.394178,-0.027806 z m 4.894489,21.4889416 c 1.116281,0.01562 2.296515,0.331968 2.868294,0.940609 0.459986,0.489593 0.385559,1.144139 -0.17848,1.563338 -0.552736,0.410871 -2.575131,0.5243 -3.567226,0.200772 -1.330907,-0.434027 -1.970619,-1.1643 -1.609819,-1.838462 0.31904,-0.596126 1.370938,-0.881933 2.487218,-0.866251 z M 10.163834,41.402646 c -0.02876,0.04623 0.118024,0.482705 0.446141,1.308677 3.463173,8.718057 10.722844,14.11747 20.581799,15.311791 7.914132,0.958738 16.206264,-0.760717 21.278877,-4.413021 1.206756,-0.868886 2.68674,-2.254579 2.223258,-2.081981 -3.522897,1.311966 -5.926343,1.725072 -10.112436,1.739928 -5.152527,0.01894 -6.300815,-0.279334 -7.798113,-2.020623 -0.421995,-0.490635 -1.045888,-1.077533 -1.386743,-1.303091 -0.544306,-0.360155 -0.769099,-0.406959 -1.844036,-0.386639 -1.483968,0.02741 -2.708869,0.331442 -4.018955,0.992651 -1.448645,0.731249 -2.893263,1.244642 -4.214136,1.498256 -1.637674,0.314441 -4.760212,0.301313 -5.861125,-0.02513 -3.100404,-0.915675 -5.684441,-3.677894 -8.313032,-8.882756 -0.614807,-1.217365 -0.944388,-1.798456 -0.981499,-1.738068 z m 23.055999,9.63657 c 1.047452,0.07158 1.723202,0.826236 1.723202,1.990886 0,0.743497 -0.460914,1.394986 -1.206429,1.706483 -0.682318,0.28504 -0.972064,0.275739 -1.626537,-0.05841 -1.691034,-0.861651 -1.240869,-3.416637 0.639454,-3.628581 0.163976,-0.01894 0.320663,-0.02113 0.470311,-0.01149 z" />
  </g>
</svg>
