<?xml version="1.0" encoding="UTF-8" standalone="no"?>
<svg
   width="64"
   height="64"
   version="1.1"
   id="svg73"
   sodipodi:docname="com.xnview.XnViewMP.svg"
   inkscape:version="1.4.2 (ebf0e940d0, 2025-05-08)"
   xmlns:inkscape="http://www.inkscape.org/namespaces/inkscape"
   xmlns:sodipodi="http://sodipodi.sourceforge.net/DTD/sodipodi-0.dtd"
   xmlns="http://www.w3.org/2000/svg"
   xmlns:svg="http://www.w3.org/2000/svg"
   xmlns:rdf="http://www.w3.org/1999/02/22-rdf-syntax-ns#"
   xmlns:cc="http://creativecommons.org/ns#"
   xmlns:dc="http://purl.org/dc/elements/1.1/">
  <metadata
     id="metadata77">
    <rdf:RDF>
      <cc:Work
         rdf:about="">
        <dc:format>image/svg+xml</dc:format>
        <dc:type
           rdf:resource="http://purl.org/dc/dcmitype/StillImage" />
      </cc:Work>
    </rdf:RDF>
  </metadata>
  <sodipodi:namedview
     pagecolor="#f5f7fa"
     bordercolor="#666666"
     borderopacity="1"
     objecttolerance="10"
     gridtolerance="10"
     guidetolerance="10"
     inkscape:pageopacity="0"
     inkscape:pageshadow="2"
     inkscape:window-width="1377"
     inkscape:window-height="886"
     id="namedview75"
     showgrid="false"
     inkscape:zoom="6.2890624"
     inkscape:cx="45.714286"
     inkscape:cy="42.057144"
     inkscape:window-x="0"
     inkscape:window-y="75"
     inkscape:window-maximized="0"
     inkscape:current-layer="g877"
     inkscape:document-rotation="0"
     inkscape:pagecheckerboard="0"
     inkscape:showpageshadow="2"
     inkscape:deskcolor="#d1d1d1" />
  <defs
     id="defs29" />
  <circle
     cx="32.516094"
     cy="31.877844"
     r="0"
     fill="url(#b)"
     stroke-width="1.5715"
     id="circle41"
     style="fill:url(#b)" />
  <g
     aria-label="GZ"
     transform="matrix(1.2212657,0,0,0.81882264,0.4960938,-0.1661539)"
     id="text93"
     style="font-weight:bold;font-size:11.5263px;line-height:1.25;font-family:sans-serif;-inkscape-font-specification:'sans-serif Bold';fill:#f2f2f2;stroke-width:0.288159" />
  <g
     id="g877"
     transform="matrix(1.1,0,0,1.1,-3.1845928,-3.2065454)">
    <path
       id="path4"
       style="fill:#dfdfdf;fill-opacity:1;stroke-width:0.0777458"
       d="m 39.878015,8.7683366 c -0.593527,0.00121 -1.202828,0.1457951 -1.801595,0.4367517 -0.568541,0.2762573 -1.385944,1.1005377 -1.661472,1.6742097 -0.115918,0.241377 -0.53532,1.600614 -0.931734,3.020854 l -0.720635,2.582287 -0.467686,-0.04729 c -1.179908,-0.118556 -2.862233,-0.141696 -3.874339,-0.05278 -0.59172,0.05195 -1.095039,0.07511 -1.119175,0.05095 C 29.277245,16.409212 28.947356,15.278441 28.568,13.920202 28.148847,12.419453 27.771455,11.233188 27.607153,10.895701 27.2809,10.225569 26.675918,9.5932662 26.033032,9.2506096 c -2.607438,-1.3897499 -5.69231,0.4298844 -5.69231,3.3575184 0,0.557546 0.08519,0.955326 0.691517,3.199193 0.380784,1.409208 0.744421,2.762587 0.80799,3.0063 l 0.11645,0.442209 -1.100977,0.735196 c -0.60471,0.404594 -1.428585,1.002141 -1.832527,1.326625 -0.403946,0.324488 -0.759547,0.589619 -0.789793,0.589619 -0.03022,0 -1.074073,-1.05768 -2.318414,-2.351173 -1.244344,-1.293496 -2.430003,-2.466111 -2.635061,-2.605945 -1.479777,-1.009082 -3.557683,-0.799114 -4.8479258,0.491345 -1.2651526,1.265367 -1.508394,3.153599 -0.6005307,4.665947 0.1602128,0.266885 1.1905091,1.398935 2.6223185,2.880733 l 2.358453,2.442162 -0.918993,1.028182 c -1.300517,1.457399 -3.5208689,3.66237 -4.3201901,4.28925 -0.3731531,0.292652 -0.8014991,0.711534 -0.9517533,0.929915 -0.7554865,1.098034 -0.8673316,2.731448 -0.2711477,3.981707 0.2807648,0.588794 0.6598977,0.985705 1.4467317,1.514072 1.7818759,1.19652 2.9788254,2.258164 6.0107764,5.330173 4.282174,4.338738 5.558356,5.53459 7.310106,6.853335 2.799528,2.107533 5.720616,3.391628 8.512988,3.739669 0.384843,0.04771 0.786622,0.101915 0.893521,0.120153 0.459374,0.07817 3.421106,-0.02792 4.12183,-0.147378 3.397154,-0.578953 6.393935,-2.079478 9.63944,-4.826103 1.125486,-0.952466 2.51483,-2.296969 5.472119,-5.295595 3.504633,-3.553679 4.436342,-4.389683 6.369273,-5.717839 1.462396,-1.004808 1.885543,-1.762931 1.876206,-3.366593 -0.0084,-1.423579 -0.397784,-2.193104 -1.572303,-3.115485 -0.81029,-0.636364 -2.955488,-2.766599 -4.28015,-4.249212 l -0.953567,-1.066389 2.316597,-2.393027 c 1.274081,-1.316313 2.429505,-2.564127 2.567728,-2.773363 1.083633,-1.640481 0.763727,-3.795646 -0.75158,-5.059023 -1.432249,-1.194146 -3.53281,-1.197583 -4.907972,-0.0092 -0.152613,0.131875 -1.248392,1.245564 -2.436707,2.474916 -1.188316,1.229353 -2.185,2.234708 -2.21469,2.234708 -0.02928,0 -0.385795,-0.265329 -0.789779,-0.589613 -0.403934,-0.324289 -1.206133,-0.90544 -1.783403,-1.292059 -0.577238,-0.386619 -1.059759,-0.743621 -1.071856,-0.793432 -0.01237,-0.04981 0.329618,-1.389814 0.758851,-2.977178 0.429277,-1.587367 0.802803,-3.097168 0.829827,-3.3557 0.109384,-1.0466 -0.312104,-2.15205 -1.131918,-2.9699024 C 41.811378,9.1603183 40.867209,8.7658825 39.877999,8.7682915 Z M 32.067463,20.815365 c 2.278735,0.0068 4.557549,0.521475 6.618585,1.557742 4.531602,2.278442 7.585971,6.657391 8.161773,11.701268 0.347436,3.04339 -0.31563,6.339703 -1.803424,8.962477 -2.403526,4.23702 -6.630546,7.03078 -11.426468,7.553955 -3.629804,0.395973 -7.294299,-0.56173 -10.323686,-2.698746 -0.955794,-0.67425 -2.763239,-2.47741 -3.423027,-3.415752 -1.787761,-2.542525 -2.669795,-5.161459 -2.773365,-8.227284 -0.08813,-2.608715 0.374271,-4.799643 1.490409,-7.071713 0.77618,-1.580043 1.520541,-2.627113 2.786103,-3.914374 0.832303,-0.846576 1.473916,-1.382851 2.371189,-1.981756 2.461796,-1.643174 5.392114,-2.474349 8.321911,-2.465817 z m -0.06556,5.725067 c -1.397551,0 -1.576457,0.01716 -2.278381,0.207452 -1.667375,0.451906 -3.057657,1.254276 -4.26193,2.458546 -1.210911,1.210913 -2.023315,2.622374 -2.451258,4.261958 -0.264637,1.013875 -0.335173,2.759505 -0.15469,3.794264 0.679336,3.894587 3.6789,6.91785 7.552135,7.610371 0.822542,0.147041 2.241207,0.152129 3.111843,0.01113 3.870278,-0.627979 6.944463,-3.699613 7.628571,-7.621531 0.178899,-1.025517 0.110256,-2.781325 -0.149215,-3.770609 C 40.547481,31.770269 39.758201,30.418704 38.456743,29.137254 37.21991,27.91943 35.972476,27.20642 34.280322,26.747864 33.576678,26.557184 33.400165,26.54041 32.001938,26.54041 Z" />
  </g>
</svg>
