<?xml version="1.0" encoding="UTF-8" standalone="no"?>
<svg
   width="64"
   height="64"
   version="1.1"
   id="svg73"
   sodipodi:docname="com.notepadqq.Notepadqq.svg"
   inkscape:version="1.4.2 (ebf0e940d0, 2025-05-08)"
   xmlns:inkscape="http://www.inkscape.org/namespaces/inkscape"
   xmlns:sodipodi="http://sodipodi.sourceforge.net/DTD/sodipodi-0.dtd"
   xmlns="http://www.w3.org/2000/svg"
   xmlns:svg="http://www.w3.org/2000/svg"
   xmlns:rdf="http://www.w3.org/1999/02/22-rdf-syntax-ns#"
   xmlns:cc="http://creativecommons.org/ns#"
   xmlns:dc="http://purl.org/dc/elements/1.1/">
  <metadata
     id="metadata77">
    <rdf:RDF>
      <cc:Work
         rdf:about="">
        <dc:format>image/svg+xml</dc:format>
        <dc:type
           rdf:resource="http://purl.org/dc/dcmitype/StillImage" />
      </cc:Work>
    </rdf:RDF>
  </metadata>
  <sodipodi:namedview
     pagecolor="#f5f7fa"
     bordercolor="#666666"
     borderopacity="1"
     objecttolerance="10"
     gridtolerance="10"
     guidetolerance="10"
     inkscape:pageopacity="0"
     inkscape:pageshadow="2"
     inkscape:window-width="1377"
     inkscape:window-height="886"
     id="namedview75"
     showgrid="false"
     inkscape:zoom="6.2890624"
     inkscape:cx="46.986336"
     inkscape:cy="40.467081"
     inkscape:window-x="12"
     inkscape:window-y="50"
     inkscape:window-maximized="0"
     inkscape:current-layer="g877"
     inkscape:document-rotation="0"
     inkscape:pagecheckerboard="0"
     inkscape:showpageshadow="2"
     inkscape:deskcolor="#d1d1d1" />
  <defs
     id="defs29" />
  <circle
     cx="32.516094"
     cy="31.877844"
     r="0"
     fill="url(#b)"
     stroke-width="1.5715"
     id="circle41"
     style="fill:url(#b)" />
  <g
     aria-label="GZ"
     transform="matrix(1.2212657,0,0,0.81882264,0.4960938,-0.1661539)"
     id="text93"
     style="font-weight:bold;font-size:11.5263px;line-height:1.25;font-family:sans-serif;-inkscape-font-specification:'sans-serif Bold';fill:#f2f2f2;stroke-width:0.288159" />
  <g
     id="g877"
     transform="matrix(1.1,0,0,1.1,-3.1845928,-3.2065454)">
    <path
       id="path100"
       style="fill:#dfdfdf;fill-opacity:1;stroke:none;stroke-width:0.861425;stroke-dasharray:none;stroke-opacity:0.6"
       d="M 48.395722,5.3630751 C 47.787564,5.393169 47.137509,5.8846803 45.96287,6.9378655 45.007682,7.7942938 36.108312,16.621451 26.187101,26.552115 L 8.1476443,44.605037 13.911794,50.271592 c 3.169934,3.116279 5.815049,5.666573 5.878555,5.666573 0.140568,0 20.910666,-20.820612 29.113472,-29.18415 6.349657,-6.474055 8.615746,-8.952315 9.401653,-10.293361 0.468086,-0.798707 0.478797,-0.881288 0.201942,-1.460385 C 57.959238,13.853774 51.906515,7.5342661 49.963796,6.0798098 49.316381,5.5950741 48.868719,5.3396761 48.395722,5.3630751 Z m -11.41725,12.7464009 3.957175,3.819209 c 2.176752,2.100671 3.975,3.878344 3.997549,3.950444 l 0.0035,0.0035 c 0.0085,0.08457 -0.18233,0.398238 -0.434115,0.706639 l -0.471075,0.578771 -1.022923,-1.006121 -1.019593,-1.009484 -0.935444,1.05996 c -0.513893,0.583445 -1.168491,1.18012 -1.453657,1.325784 -0.652055,0.333084 -1.519597,0.475768 -2.234324,0.36678 -0.360798,-0.05503 -1.115451,-0.626219 -2.177116,-1.645458 -2.68655,-2.57919 -2.671229,-3.552484 0.0976,-6.40685 z m 0.05716,2.284796 -1.059955,1.09697 c -1.489932,1.543191 -1.462278,1.930764 0.249055,3.556746 1.693153,1.608712 2.018574,1.628316 3.502904,0.195177 l 1.096972,-1.059958 -1.894464,-1.894462 z m -6.817324,4.646984 3.994187,3.849497 c 2.198022,2.116091 3.997553,3.952373 3.997553,4.081674 0,0.12928 -0.21945,0.440976 -0.487917,0.69318 l -0.48792,0.457632 -0.965736,-0.948915 -0.965738,-0.952275 -1.1138,1.086872 c -0.612257,0.596815 -1.287681,1.168023 -1.500762,1.271945 -0.490455,0.239191 -1.295278,0.414478 -1.547874,0.336501 -0.106557,-0.0329 -0.433632,-0.113643 -0.726827,-0.178369 -0.611101,-0.134801 -3.136525,-2.434107 -3.550014,-3.233709 -0.392665,-0.759342 -0.345342,-2.089741 0.0976,-2.782807 0.204265,-0.319615 1.020211,-1.277693 1.813707,-2.130007 z m -0.007,2.335271 -1.0364,1.15754 c -0.647883,0.723938 -1.036192,1.331856 -1.036407,1.625268 -2.39e-4,0.321822 0.415374,0.886461 1.322425,1.793517 1.726708,1.726709 2.04696,1.74467 3.580296,0.195156 l 1.11716,-1.130619 -1.975222,-1.820437 z m -6.548179,5.966043 c 1.040203,-0.02981 1.83991,0.55628 3.83267,2.503518 l 2.204037,2.153566 -0.582137,0.585501 -0.585503,0.582134 -2.200668,-2.170387 c -1.492754,-1.47279 -2.34217,-2.173758 -2.638116,-2.173758 -0.272574,0 -0.884557,0.43909 -1.628633,1.167638 l -1.19119,1.167635 2.490059,2.36892 2.486696,2.365551 -0.420618,0.535007 c -0.231327,0.29294 -0.523987,0.529566 -0.649432,0.524891 -0.125434,-0.0042 -1.57899,-1.309074 -3.23035,-2.897159 l -3.001448,-2.887113 1.756499,-1.766598 c 1.431329,-1.438292 1.911346,-1.801228 2.580909,-1.951667 0.282899,-0.06355 0.537255,-0.100815 0.777307,-0.10769 z M 5.2803697,48.111297 v 5.269506 5.269501 h 4.9565583 c 2.908004,0 4.927149,-0.07454 4.88926,-0.17837 -0.07083,-0.194102 -7.7818359,-8.363015 -9.0550584,-9.593402 z" />
  </g>
</svg>
