<?xml version="1.0" encoding="UTF-8" standalone="no"?>
<svg
   width="64"
   height="64"
   version="1.1"
   id="svg73"
   sodipodi:docname="com.xnview.XnConvert.svg"
   inkscape:version="1.4.2 (ebf0e940d0, 2025-05-08)"
   xmlns:inkscape="http://www.inkscape.org/namespaces/inkscape"
   xmlns:sodipodi="http://sodipodi.sourceforge.net/DTD/sodipodi-0.dtd"
   xmlns="http://www.w3.org/2000/svg"
   xmlns:svg="http://www.w3.org/2000/svg"
   xmlns:rdf="http://www.w3.org/1999/02/22-rdf-syntax-ns#"
   xmlns:cc="http://creativecommons.org/ns#"
   xmlns:dc="http://purl.org/dc/elements/1.1/">
  <metadata
     id="metadata77">
    <rdf:RDF>
      <cc:Work
         rdf:about="">
        <dc:format>image/svg+xml</dc:format>
        <dc:type
           rdf:resource="http://purl.org/dc/dcmitype/StillImage" />
      </cc:Work>
    </rdf:RDF>
  </metadata>
  <sodipodi:namedview
     pagecolor="#f5f7fa"
     bordercolor="#666666"
     borderopacity="1"
     objecttolerance="10"
     gridtolerance="10"
     guidetolerance="10"
     inkscape:pageopacity="0"
     inkscape:pageshadow="2"
     inkscape:window-width="1377"
     inkscape:window-height="886"
     id="namedview75"
     showgrid="false"
     inkscape:zoom="6.2890624"
     inkscape:cx="45.714286"
     inkscape:cy="42.057144"
     inkscape:window-x="0"
     inkscape:window-y="75"
     inkscape:window-maximized="0"
     inkscape:current-layer="g877"
     inkscape:document-rotation="0"
     inkscape:pagecheckerboard="0"
     inkscape:showpageshadow="2"
     inkscape:deskcolor="#d1d1d1" />
  <defs
     id="defs29" />
  <circle
     cx="32.516094"
     cy="31.877844"
     r="0"
     fill="url(#b)"
     stroke-width="1.5715"
     id="circle41"
     style="fill:url(#b)" />
  <g
     aria-label="GZ"
     transform="matrix(1.2212657,0,0,0.81882264,0.4960938,-0.1661539)"
     id="text93"
     style="font-weight:bold;font-size:11.5263px;line-height:1.25;font-family:sans-serif;-inkscape-font-specification:'sans-serif Bold';fill:#f2f2f2;stroke-width:0.288159" />
  <g
     id="g877"
     transform="matrix(1.1,0,0,1.1,-3.1845928,-3.2065454)">
    <path
       style="fill:#dfdfdf;fill-opacity:1;stroke-width:0.0777458"
       d="m 30.525296,55.216156 c -0.106898,-0.01849 -0.509237,-0.07235 -0.894077,-0.12031 -2.792373,-0.348031 -5.713627,-1.63085 -8.513153,-3.738381 C 19.366315,50.038708 18.089514,48.841577 13.807345,44.502828 10.775388,41.430819 9.5790702,40.37001 7.797198,39.173478 7.0103629,38.645121 6.6316571,38.248831 6.3508887,37.660038 5.7547011,36.409776 5.8655565,34.77567 6.6210405,33.677639 6.7713007,33.459256 7.1995379,33.04114 7.5726886,32.748491 8.3720072,32.121609 10.594039,29.916043 11.894548,28.458646 L 12.812822,27.429594 10.454241,24.98867 C 9.0224306,23.506872 7.9919583,22.374993 7.8317433,22.108104 6.9238817,20.595756 7.1667566,18.707552 8.431911,17.442185 c 1.2902384,-1.290461 3.369227,-1.501638 4.849013,-0.492554 0.205061,0.139822 1.390931,1.312553 2.635275,2.606043 1.244343,1.293496 2.287192,2.351812 2.317438,2.351812 0.03022,0 0.385486,-0.265486 0.789432,-0.589976 0.403942,-0.324482 1.229204,-0.921004 1.833917,-1.325601 l 1.099469,-0.735636 -0.115591,-0.443109 c -0.06358,-0.243708 -0.427147,-1.59609 -0.807928,-3.005292 -0.606322,-2.243869 -0.692337,-2.641277 -0.692337,-3.19882 0,-2.9276332 3.086203,-4.7478923 5.693642,-3.3581435 0.642888,0.3426566 1.247306,0.9742995 1.573563,1.6444315 0.164304,0.337481 0.540954,1.524134 0.960103,3.024874 0.379355,1.358242 0.709486,2.489277 0.733621,2.513412 0.02421,0.02413 0.528008,0.0012 1.11973,-0.05065 1.012108,-0.08891 2.694792,-0.06619 3.874696,0.05232 l 0.466469,0.04685 0.72076,-2.582261 c 0.396418,-1.42026 0.815606,-2.779761 0.931536,-3.021135 0.275529,-0.573674 1.093544,-1.3973727 1.662084,-1.6736278 1.596698,-0.7758432 3.272617,-0.5066556 4.505958,0.723745 0.819813,0.8178528 1.241047,1.9233688 1.131656,2.9699688 -0.02651,0.258531 -0.400373,1.768807 -0.829633,3.356173 -0.429264,1.587364 -0.770609,2.926872 -0.758512,2.976687 0.01264,0.04982 0.494283,0.406892 1.071574,0.793519 0.577234,0.386611 1.38006,0.968271 1.784004,1.292556 0.403952,0.324284 0.758734,0.589618 0.788421,0.589618 0.03,0 1.026233,-1.005834 2.214556,-2.235189 1.188301,-1.229352 2.28541,-2.343097 2.438019,-2.474979 1.375156,-1.188483 3.475783,-1.184243 4.908051,0.01001 1.515296,1.263377 1.835556,3.417713 0.751927,5.05819 -0.138196,0.209237 -1.293735,1.457415 -2.567807,2.773726 l -2.316522,2.393295 0.952875,1.066502 c 1.324663,1.482614 3.470558,3.612455 4.280859,4.248817 1.174486,0.92238 1.562267,1.691504 1.570557,3.115087 0.0095,1.60367 -0.413293,2.36234 -1.875667,3.367169 -1.932924,1.32816 -2.864188,2.16423 -6.368828,5.717865 -2.957285,2.998623 -4.346537,4.343074 -5.472008,5.295544 -3.24551,2.746614 -6.243321,4.247449 -9.640475,4.826415 -0.700722,0.119439 -3.661143,0.224571 -4.12052,0.146307 z m 3.35852,-4.658744 c 5.752908,-0.759431 10.512527,-4.693541 12.304442,-10.170351 0.151227,-0.462126 0.274925,-0.873198 0.274925,-0.91351 0,-0.04477 -1.358172,-0.0733 -3.493994,-0.0733 h -3.494028 l -0.247203,0.463807 c -0.591173,1.109114 -1.811676,2.344801 -3.016516,3.054013 -1.265216,0.744757 -2.394043,1.066725 -3.9369,1.122889 -0.915654,0.03314 -1.215955,0.01318 -1.891729,-0.126432 -1.65499,-0.342157 -3.112579,-1.132386 -4.291197,-2.326513 -1.049497,-1.063304 -1.754267,-2.274604 -2.141706,-3.681 -0.247315,-0.897742 -0.334688,-2.43699 -0.193243,-3.404341 0.50002,-3.419645 3.171304,-6.221521 6.613137,-6.936432 1.058317,-0.219828 2.76312,-0.163841 3.79449,0.124622 2.132959,0.596541 3.878996,1.930856 5.021791,3.83762 l 0.29125,0.48591 h 3.494412 3.494408 l -0.05101,-0.213798 C 46.302351,31.336949 45.820452,30.028211 45.532253,29.404404 44.216694,26.557326 41.832938,24.054672 38.993103,22.5393 34.8055,20.304746 29.564912,20.237803 25.334474,22.364827 c -2.969515,1.493043 -5.267402,3.812875 -6.747423,6.811869 -1.110915,2.251061 -1.576769,4.464972 -1.488374,7.073257 0.0636,1.87789 0.360245,3.360222 0.990805,4.951579 1.38087,3.484972 4.028241,6.353679 7.34348,7.957439 2.639277,1.276773 5.627106,1.771188 8.450861,1.398433 z"
       id="path5" />
  </g>
</svg>
