<?xml version="1.0" encoding="UTF-8" standalone="no"?>
<svg
   width="64"
   height="64"
   version="1.1"
   id="svg73"
   sodipodi:docname="com.dropbox.Client.svg"
   inkscape:version="1.4.2 (ebf0e940d0, 2025-05-08)"
   xmlns:inkscape="http://www.inkscape.org/namespaces/inkscape"
   xmlns:sodipodi="http://sodipodi.sourceforge.net/DTD/sodipodi-0.dtd"
   xmlns="http://www.w3.org/2000/svg"
   xmlns:svg="http://www.w3.org/2000/svg"
   xmlns:rdf="http://www.w3.org/1999/02/22-rdf-syntax-ns#"
   xmlns:cc="http://creativecommons.org/ns#"
   xmlns:dc="http://purl.org/dc/elements/1.1/">
  <metadata
     id="metadata77">
    <rdf:RDF>
      <cc:Work
         rdf:about="">
        <dc:format>image/svg+xml</dc:format>
        <dc:type
           rdf:resource="http://purl.org/dc/dcmitype/StillImage" />
      </cc:Work>
    </rdf:RDF>
  </metadata>
  <sodipodi:namedview
     pagecolor="#f5f7fa"
     bordercolor="#666666"
     borderopacity="1"
     objecttolerance="10"
     gridtolerance="10"
     guidetolerance="10"
     inkscape:pageopacity="0"
     inkscape:pageshadow="2"
     inkscape:window-width="1377"
     inkscape:window-height="886"
     id="namedview75"
     showgrid="false"
     inkscape:zoom="6.2890624"
     inkscape:cx="37.445963"
     inkscape:cy="34.901864"
     inkscape:window-x="1"
     inkscape:window-y="75"
     inkscape:window-maximized="0"
     inkscape:current-layer="g877"
     inkscape:document-rotation="0"
     inkscape:pagecheckerboard="0"
     inkscape:showpageshadow="2"
     inkscape:deskcolor="#d1d1d1" />
  <defs
     id="defs29" />
  <circle
     cx="32.516094"
     cy="31.877844"
     r="0"
     fill="url(#b)"
     stroke-width="1.5715"
     id="circle41"
     style="fill:url(#b)" />
  <g
     aria-label="GZ"
     transform="matrix(1.2212657,0,0,0.81882264,0.4960938,-0.1661539)"
     id="text93"
     style="font-weight:bold;font-size:11.5263px;line-height:1.25;font-family:sans-serif;-inkscape-font-specification:'sans-serif Bold';fill:#f2f2f2;stroke-width:0.288159" />
  <g
     id="g877"
     transform="matrix(1.1,0,0,1.1,-3.1845928,-3.2065454)">
    <path
       id="path8"
       style="fill:#dfdfdf;fill-opacity:1;stroke:none;stroke-width:0.861425;stroke-dasharray:none;stroke-opacity:0.6"
       d="m 44.275009,6.2516118 -5.57741,4.6494942 -5.579404,4.6495 8.065093,4.742887 c 4.435075,2.608775 8.084835,4.74272 8.112779,4.742885 0.224339,0.0013 10.164698,-8.344177 10.056032,-8.442613 C 59.199984,16.455875 46.167953,7.4993977 44.986352,6.720534 Z M 19.994298,6.4761406 c -0.598259,0.059133 -3.787874,2.1826467 -15.375136,10.1951224 -0.021909,0.01481 2.254256,1.903723 5.0588166,4.196466 2.8045524,2.29274 5.1260154,4.168652 5.1581594,4.168652 0.117467,0 15.669319,-9.166016 15.87187,-9.354631 0.161798,-0.150664 -0.979672,-1.184852 -5.054833,-4.581946 -2.894713,-2.4130536 -5.401363,-4.4879836 -5.571454,-4.6097556 -0.01861,-0.013177 -0.04755,-0.01786 -0.08744,-0.01406 z M 49.06558,26.721327 c -0.05053,0.0054 -0.09326,0.02509 -0.13505,0.05159 -0.197433,0.124835 -3.831739,2.265576 -8.07502,4.756793 l -7.71546,4.528347 2.648622,2.139967 c 1.456528,1.176992 3.937638,3.182127 5.513827,4.454764 1.5762,1.272648 2.92689,2.312825 3.000317,2.312825 0.120504,0 14.722689,-9.666599 15.043307,-9.958662 0.07414,-0.06748 -2.158665,-1.998763 -4.961447,-4.291839 -4.16709,-3.409296 -4.960924,-4.033245 -5.319106,-3.993804 z m -34.376481,0.02981 c -0.06441,-0.0042 -0.105886,0.0083 -0.135123,0.03378 -0.147443,0.127417 -2.43525,2.002199 -5.0826555,4.164706 -2.6474145,2.16251 -4.7783853,3.977193 -4.7349454,4.033539 0.043484,0.05643 3.4245451,2.401838 7.5127199,5.211814 4.088175,2.809963 7.493163,5.108491 7.566365,5.108491 0.281078,0 11.119526,-9.174753 10.9899,-9.302978 -0.07526,-0.07451 -3.703341,-2.229919 -8.061119,-4.79063 -6.050085,-3.555152 -7.60424,-4.430797 -8.055154,-4.458758 z m 17.389918,10.107669 c -0.06085,0 -2.759419,2.211372 -5.996657,4.913763 -3.237238,2.702412 -5.978489,4.952356 -6.092037,4.999225 -0.113522,0.04672 -0.931093,-0.416483 -1.81609,-1.029246 -0.884996,-0.612764 -1.646402,-1.114675 -1.692891,-1.114675 -0.196022,0 -0.07913,3.82966 0.125234,4.097109 0.174269,0.228089 7.943615,4.879521 13.807421,8.26578 0.812283,0.469067 1.584447,0.802148 1.778333,0.766966 0.537595,-0.09754 14.812924,-8.539251 15.23802,-9.010895 0.34937,-0.387524 0.379532,-0.58342 0.379532,-2.438011 0,-1.109513 -0.03913,-2.018753 -0.08942,-2.018753 -0.05054,0 -0.775182,0.460313 -1.609449,1.021307 -0.83426,0.560998 -1.616068,1.057742 -1.738591,1.104756 -0.123877,0.04723 -2.876248,-2.05276 -6.203283,-4.734934 -3.289102,-2.651641 -6.029262,-4.822408 -6.090072,-4.822407 z" />
  </g>
</svg>
