<?xml version="1.0" encoding="UTF-8" standalone="no"?>
<svg
   width="64"
   height="64"
   version="1.1"
   id="svg73"
   sodipodi:docname="com.avocode.Avocode.svg"
   inkscape:version="1.4.2 (ebf0e940d0, 2025-05-08)"
   xmlns:inkscape="http://www.inkscape.org/namespaces/inkscape"
   xmlns:sodipodi="http://sodipodi.sourceforge.net/DTD/sodipodi-0.dtd"
   xmlns="http://www.w3.org/2000/svg"
   xmlns:svg="http://www.w3.org/2000/svg"
   xmlns:rdf="http://www.w3.org/1999/02/22-rdf-syntax-ns#"
   xmlns:cc="http://creativecommons.org/ns#"
   xmlns:dc="http://purl.org/dc/elements/1.1/">
  <metadata
     id="metadata77">
    <rdf:RDF>
      <cc:Work
         rdf:about="">
        <dc:format>image/svg+xml</dc:format>
        <dc:type
           rdf:resource="http://purl.org/dc/dcmitype/StillImage" />
      </cc:Work>
    </rdf:RDF>
  </metadata>
  <sodipodi:namedview
     pagecolor="#f5f7fa"
     bordercolor="#666666"
     borderopacity="1"
     objecttolerance="10"
     gridtolerance="10"
     guidetolerance="10"
     inkscape:pageopacity="0"
     inkscape:pageshadow="2"
     inkscape:window-width="1377"
     inkscape:window-height="886"
     id="namedview75"
     showgrid="false"
     inkscape:zoom="6.2890624"
     inkscape:cx="35.855901"
     inkscape:cy="36.650932"
     inkscape:window-x="0"
     inkscape:window-y="75"
     inkscape:window-maximized="0"
     inkscape:current-layer="g877"
     inkscape:document-rotation="0"
     inkscape:pagecheckerboard="0"
     inkscape:showpageshadow="2"
     inkscape:deskcolor="#d1d1d1" />
  <defs
     id="defs29" />
  <circle
     cx="32.516094"
     cy="31.877844"
     r="0"
     fill="url(#b)"
     stroke-width="1.5715"
     id="circle41"
     style="fill:url(#b)" />
  <g
     aria-label="GZ"
     transform="matrix(1.2212657,0,0,0.81882264,0.4960938,-0.1661539)"
     id="text93"
     style="font-weight:bold;font-size:11.5263px;line-height:1.25;font-family:sans-serif;-inkscape-font-specification:'sans-serif Bold';fill:#f2f2f2;stroke-width:0.288159" />
  <g
     id="g877"
     transform="matrix(1.1,0,0,1.1,-3.1845928,-3.2065454)">
    <path
       d="m 31.698279,3.9733711 c -0.670505,0.011713 -1.343343,0.077065 -2.002176,0.1915828 -5.448146,1.6587472 -9.181482,6.4083541 -12.006018,11.0995581 -4.443558,7.85683 -7.226043,16.933189 -6.655996,26.02123 0.838714,9.288959 8.576397,17.353723 17.813958,18.58492 1.016271,0.135487 2.041883,0.15187 3.06517,0.158779 9.555295,0.331674 18.617621,-6.931664 20.566072,-16.265009 1.39708,-6.7097 -0.158847,-13.660067 -2.312899,-20.03571 C 47.561464,16.773709 43.842143,9.6785019 37.426781,5.5479977 35.72365,4.4008922 33.712133,3.9383138 31.698279,3.9733604 Z m 0.584063,16.3701519 c 1.649405,0.142473 3.261417,1.07467 4.32675,2.354944 3.497372,3.843145 5.532245,9.006271 5.821965,14.176405 0.612088,5.043981 -3.039486,10.050581 -7.961978,11.18834 -3.889867,0.962536 -8.16989,-0.45557 -10.665011,-3.600169 -2.574555,-2.939016 -2.67268,-7.090546 -1.934416,-10.728098 1.142424,-4.803347 3.277762,-9.85433 7.520404,-12.697556 0.904135,-0.579389 1.904051,-0.780309 2.892286,-0.693866 z"
       fill="#02ad7b"
       fill-rule="nonzero"
       id="path2-50"
       style="fill:#dfdfdf;fill-opacity:1;stroke:none;stroke-width:0.904496;stroke-dasharray:none;stroke-opacity:0.6" />
  </g>
</svg>
