<?xml version="1.0" encoding="UTF-8" standalone="no"?>
<svg
   width="64"
   height="64"
   version="1.1"
   id="svg73"
   sodipodi:docname="com.github.dail8859.NotepadNext.svg"
   inkscape:version="1.4.2 (ebf0e940d0, 2025-05-08)"
   xmlns:inkscape="http://www.inkscape.org/namespaces/inkscape"
   xmlns:sodipodi="http://sodipodi.sourceforge.net/DTD/sodipodi-0.dtd"
   xmlns="http://www.w3.org/2000/svg"
   xmlns:svg="http://www.w3.org/2000/svg"
   xmlns:rdf="http://www.w3.org/1999/02/22-rdf-syntax-ns#"
   xmlns:cc="http://creativecommons.org/ns#"
   xmlns:dc="http://purl.org/dc/elements/1.1/">
  <metadata
     id="metadata77">
    <rdf:RDF>
      <cc:Work
         rdf:about="">
        <dc:format>image/svg+xml</dc:format>
        <dc:type
           rdf:resource="http://purl.org/dc/dcmitype/StillImage" />
      </cc:Work>
    </rdf:RDF>
  </metadata>
  <sodipodi:namedview
     pagecolor="#f5f7fa"
     bordercolor="#666666"
     borderopacity="1"
     objecttolerance="10"
     gridtolerance="10"
     guidetolerance="10"
     inkscape:pageopacity="0"
     inkscape:pageshadow="2"
     inkscape:window-width="1377"
     inkscape:window-height="886"
     id="namedview75"
     showgrid="false"
     inkscape:zoom="6.2890624"
     inkscape:cx="47.622361"
     inkscape:cy="45.396274"
     inkscape:window-x="147"
     inkscape:window-y="75"
     inkscape:window-maximized="0"
     inkscape:current-layer="g877"
     inkscape:document-rotation="0"
     inkscape:pagecheckerboard="0"
     inkscape:showpageshadow="2"
     inkscape:deskcolor="#d1d1d1" />
  <defs
     id="defs29">
    <linearGradient
       id="b"
       x1="399.57"
       x2="399.57"
       y1="545.8"
       y2="517.8"
       gradientTransform="matrix(2.1429,0,0,2.1429,-825.86391,-1107.6662)"
       gradientUnits="userSpaceOnUse">
      <stop
         stop-color="#3889e9"
         offset="0"
         id="stop2" />
      <stop
         stop-color="#5ea5fb"
         offset="1"
         id="stop4" />
    </linearGradient>
  </defs>
  <circle
     cx="32.516094"
     cy="31.877844"
     r="0"
     fill="url(#b)"
     stroke-width="1.5715"
     id="circle41"
     style="fill:url(#b)" />
  <g
     aria-label="GZ"
     transform="matrix(1.2212657,0,0,0.81882264,0.4960938,-0.1661539)"
     id="text93"
     style="font-weight:bold;font-size:11.5263px;line-height:1.25;font-family:sans-serif;-inkscape-font-specification:'sans-serif Bold';fill:#f2f2f2;stroke-width:0.288159" />
  <g
     id="g877"
     transform="matrix(1.1,0,0,1.1,-3.1845928,-3.2065454)">
    <path
       d="M 11.507914,4.0812918 V 7.8045793 H 20.81613 V 4.0812918 Z m 13.031505,0 V 7.8045793 H 39.432568 V 4.0812918 Z M 11.507914,11.527866 v 3.723291 h 11.169861 v -3.723291 z m 14.893152,0 v 3.723291 h 9.308217 v -3.723291 z m 13.031502,0 v 3.723291 h 3.723289 v -3.723291 z m -27.924654,7.446575 v 3.72329 h 5.584927 v -3.72329 z m 9.308216,0 v 3.72329 h 7.446575 v -3.72329 z m 11.169864,0 v 3.72329 h 7.446574 v -3.72329 z m -20.47808,7.44658 v 3.723286 h 9.308216 v -3.723286 z m 13.031505,0 v 3.723286 h 14.893149 v -3.723286 z m 18.616438,0 v 3.723286 h 9.308216 v -3.723286 z m -31.647943,7.446573 v 3.723285 h 9.308216 v -3.723285 z m 13.031505,0 v 3.723285 h 5.584932 v -3.723285 z m 9.308218,0 v 3.723285 h 9.30822 v -3.723285 z m -22.339723,7.446577 v 3.723291 h 7.44657 v -3.723291 z m 11.169861,0 v 3.723291 h 16.754793 v -3.723291 z m -11.169861,7.44657 v 3.723293 h 14.893152 v -3.723293 z m 18.616437,0 v 3.723293 h 7.446572 v -3.723293 z m -18.616437,7.446574 v 3.723294 h 9.308216 v -3.723294 z m 13.031505,0 v 3.723294 h 11.169864 v -3.723294 z"
       fill="#707070"
       id="path3-5"
       style="fill:#dfdfdf;fill-opacity:1;stroke:none;stroke-width:0.872104;stroke-dasharray:none;stroke-opacity:0.6" />
  </g>
</svg>
