<?xml version="1.0" encoding="UTF-8" standalone="no"?>
<svg
   width="64"
   height="64"
   version="1.1"
   id="svg73"
   sodipodi:docname="com.cassidyjames.butler.svg"
   inkscape:version="1.4.2 (ebf0e940d0, 2025-05-08)"
   xmlns:inkscape="http://www.inkscape.org/namespaces/inkscape"
   xmlns:sodipodi="http://sodipodi.sourceforge.net/DTD/sodipodi-0.dtd"
   xmlns="http://www.w3.org/2000/svg"
   xmlns:svg="http://www.w3.org/2000/svg"
   xmlns:rdf="http://www.w3.org/1999/02/22-rdf-syntax-ns#"
   xmlns:cc="http://creativecommons.org/ns#"
   xmlns:dc="http://purl.org/dc/elements/1.1/">
  <metadata
     id="metadata77">
    <rdf:RDF>
      <cc:Work
         rdf:about="">
        <dc:format>image/svg+xml</dc:format>
        <dc:type
           rdf:resource="http://purl.org/dc/dcmitype/StillImage" />
      </cc:Work>
    </rdf:RDF>
  </metadata>
  <sodipodi:namedview
     pagecolor="#f5f7fa"
     bordercolor="#666666"
     borderopacity="1"
     objecttolerance="10"
     gridtolerance="10"
     guidetolerance="10"
     inkscape:pageopacity="0"
     inkscape:pageshadow="2"
     inkscape:window-width="1377"
     inkscape:window-height="886"
     id="namedview75"
     showgrid="false"
     inkscape:zoom="6.2890624"
     inkscape:cx="34.901864"
     inkscape:cy="35.06087"
     inkscape:window-x="1"
     inkscape:window-y="75"
     inkscape:window-maximized="0"
     inkscape:current-layer="g877"
     inkscape:document-rotation="0"
     inkscape:pagecheckerboard="0"
     inkscape:showpageshadow="2"
     inkscape:deskcolor="#d1d1d1" />
  <defs
     id="defs29" />
  <circle
     cx="32.516094"
     cy="31.877844"
     r="0"
     fill="url(#b)"
     stroke-width="1.5715"
     id="circle41"
     style="fill:url(#b)" />
  <g
     aria-label="GZ"
     transform="matrix(1.2212657,0,0,0.81882264,0.4960938,-0.1661539)"
     id="text93"
     style="font-weight:bold;font-size:11.5263px;line-height:1.25;font-family:sans-serif;-inkscape-font-specification:'sans-serif Bold';fill:#f2f2f2;stroke-width:0.288159" />
  <g
     id="g877"
     transform="matrix(1.1,0,0,1.1,-3.1845928,-3.2065454)">
    <path
       style="fill:#dfdfdf;fill-opacity:1;stroke-width:0.122835"
       d="M 24.537083,56.624917 C 23.378987,55.398448 21.449304,53.317111 20.248894,51.999712 19.04849,50.682316 17.313401,48.747677 16.393133,47.700517 15.472873,46.653354 13.971323,44.912183 13.056363,43.83124 12.141398,42.750301 10.75847,41.064403 9.9831968,40.084801 9.207919,39.105204 8.1862148,37.778596 7.7127409,37.136788 7.2392703,36.494981 6.5122757,35.464537 6.0971973,34.846912 5.6821164,34.229289 5.0854008,33.28961 4.7711569,32.758731 4.4569118,32.227856 4.0673987,31.532779 3.9055677,31.214123 3.7437341,30.895466 3.6113275,30.551501 3.6113275,30.449757 c 0,-0.101728 1.1331468,-1.215271 2.5180993,-2.474502 1.3849515,-1.259231 2.5181005,-2.338606 2.5181005,-2.398611 0,-0.06003 -0.05368,-0.109065 -0.1192939,-0.109065 -0.065593,0 -0.5492773,-0.253395 -1.0748016,-0.563092 C 6.9279022,24.594776 6.1109985,24.050267 5.6380882,23.694459 5.1651755,23.33865 4.4327781,22.696665 4.0105356,22.26783 3.5882959,21.838994 3.2428216,21.422676 3.2428216,21.342678 c 0,-0.07999 0.3454743,-0.366471 0.767714,-0.636603 0.4222425,-0.270134 1.5139299,-0.961525 2.4259699,-1.536425 0.9120447,-0.574901 3.6481755,-2.294321 6.0802935,-3.820925 l 4.422028,-2.775647 0.08203,3.468517 c 0.04513,1.907685 0.170618,4.491113 0.278809,5.740948 0.108218,1.249839 0.307416,3.184474 0.442696,4.299194 0.135298,1.11472 0.414566,3.048791 0.620646,4.297934 0.206069,1.249146 0.532692,3.073237 0.725825,4.053529 0.193127,0.980291 0.597904,2.832579 0.899502,4.116197 0.301598,1.283617 0.85421,3.411716 1.228034,4.729113 0.373826,1.317395 0.993952,3.362584 1.37807,4.544861 0.384126,1.182279 1.102151,3.227467 1.59561,4.544862 0.493466,1.317393 1.266553,3.279672 1.717981,4.36061 0.451435,1.08094 0.846122,2.0068 0.877095,2.057473 0.031,0.05068 0.0115,0.0868 -0.04308,0.08037 -0.05469,-0.0068 -1.046913,-1.015263 -2.205014,-2.241731 z m 12.649499,2.161377 c 0.03083,-0.05069 0.470127,-1.087081 0.976233,-2.303139 0.506106,-1.216056 1.335841,-3.344156 1.843859,-4.729111 0.508014,-1.384955 1.23065,-3.48542 1.605854,-4.667697 0.375203,-1.18228 0.938664,-3.06164 1.252126,-4.176362 0.313464,-1.114716 0.816855,-3.076987 1.118635,-4.360606 0.301783,-1.283617 0.706716,-3.135907 0.899842,-4.116197 0.193129,-0.980295 0.51976,-2.80438 0.725826,-4.053528 0.20608,-1.249148 0.48537,-3.183215 0.620647,-4.297939 0.135298,-1.114715 0.334494,-3.049356 0.442695,-4.29919 0.108218,-1.249838 0.233667,-3.833266 0.278809,-5.74095 l 0.08203,-3.468518 4.422032,2.77565 c 2.432115,1.526607 5.168244,3.246019 6.080291,3.820924 0.912037,0.574898 2.003727,1.266291 2.425969,1.536427 0.422242,0.270134 0.767715,0.556604 0.767715,0.636603 0,0.07999 -0.345473,0.496312 -0.767715,0.925152 -0.422242,0.428835 -1.154641,1.070819 -1.627552,1.426625 -0.47291,0.35581 -1.289813,0.900314 -1.815341,1.210022 -0.525525,0.309696 -1.009182,0.56309 -1.074799,0.56309 -0.06559,0 -0.119294,0.04912 -0.119294,0.109065 0,0.06003 1.133149,1.139382 2.5181,2.398609 1.384956,1.259232 2.518105,2.372755 2.518105,2.474502 0,0.101761 -0.132408,0.445708 -0.294239,0.764366 -0.161833,0.318657 -0.551345,1.013733 -0.865591,1.544607 -0.314246,0.530879 -0.91096,1.470556 -1.326039,2.08818 -0.415081,0.617621 -1.142078,1.648066 -1.615549,2.289874 -0.473468,0.64181 -1.495175,1.968417 -2.270446,2.948018 -0.775282,0.979601 -2.158681,2.665499 -3.074229,3.746439 -0.915548,1.08094 -2.241563,2.628652 -2.946701,3.439357 -0.705141,0.810705 -1.729034,1.968513 -2.275319,2.572904 -0.546275,0.60439 -1.731108,1.903362 -2.632948,2.886604 -0.90184,0.983241 -2.5601,2.763623 -3.685025,3.956422 -1.124922,1.192803 -2.090029,2.173947 -2.144688,2.18031 -0.05468,0.0065 -0.07418,-0.02983 -0.04331,-0.08055 z m -6.121837,-7.200288 c -0.202677,-0.09454 -0.492279,-0.290491 -0.643562,-0.43542 -0.151276,-0.144931 -0.369665,-0.441549 -0.485289,-0.659157 -0.130318,-0.24525 -0.208291,-0.662254 -0.205133,-1.097033 0.0038,-0.548279 0.07643,-0.809187 0.331878,-1.195202 0.179726,-0.271605 0.545636,-0.605463 0.813104,-0.741917 0.298959,-0.152548 0.72668,-0.248098 1.110258,-0.248098 0.383591,0 0.811305,0.0956 1.110266,0.248098 0.267468,0.136454 0.633362,0.470312 0.813102,0.741917 0.254058,0.383903 0.328529,0.649923 0.334602,1.195202 0.0058,0.513908 -0.06691,0.833285 -0.271787,1.194834 -0.153771,0.271393 -0.475278,0.627529 -0.714447,0.791408 -0.304494,0.208653 -0.643148,0.309864 -1.129669,0.337633 -0.419011,0.02387 -0.841092,-0.02858 -1.063323,-0.132235 z m 0.491339,-9.40991 c -0.202681,-0.04667 -0.54838,-0.178553 -0.768235,-0.293074 -0.219852,-0.114515 -0.550583,-0.436177 -0.734956,-0.714779 -0.264975,-0.400405 -0.335224,-0.650866 -0.335224,-1.195202 0,-0.465025 0.07912,-0.823699 0.24362,-1.104544 0.13398,-0.228751 0.448724,-0.581679 0.699415,-0.784288 0.324949,-0.262637 0.629373,-0.385065 1.060476,-0.426487 0.332575,-0.03194 0.800949,0.0068 1.040825,0.08583 0.239875,0.07918 0.630269,0.358824 0.86755,0.621459 0.237275,0.26264 0.494158,0.710559 0.570856,0.99538 0.07668,0.284821 0.103576,0.716336 0.05976,0.958927 -0.04381,0.242587 -0.214212,0.647261 -0.378644,0.899269 -0.164419,0.25201 -0.506183,0.561861 -0.759448,0.688563 -0.253272,0.126712 -0.626323,0.25814 -0.829,0.292075 -0.20268,0.03397 -0.534323,0.02353 -0.737001,-0.02314 z m -0.349437,-9.640509 c -0.259752,-0.0926 -0.610471,-0.297469 -0.779386,-0.455236 -0.168917,-0.157766 -0.380034,-0.426944 -0.46916,-0.598179 -0.08912,-0.171203 -0.198929,-0.507898 -0.243996,-0.748152 -0.0451,-0.240255 -0.01684,-0.678545 0.0627,-0.973979 0.08712,-0.323502 0.324922,-0.717433 0.597917,-0.990422 0.270951,-0.27096 0.667033,-0.510838 0.984704,-0.596375 0.29228,-0.07872 0.745008,-0.107008 1.006066,-0.0629 0.261049,0.04409 0.654259,0.201225 0.873789,0.349176 0.219531,0.147958 0.520191,0.448605 0.66813,0.668134 0.147958,0.219531 0.305071,0.612734 0.34918,0.873791 0.04411,0.261057 0.01562,0.713781 -0.06288,1.006064 -0.08536,0.317052 -0.325268,0.713602 -0.594686,0.983019 -0.248385,0.248383 -0.671452,0.512631 -0.940165,0.587231 -0.268711,0.07462 -0.599119,0.13354 -0.734234,0.130929 -0.135122,-0.0029 -0.458194,-0.08048 -0.717942,-0.17308 z m -0.144183,-9.573065 c -0.203934,-0.08888 -0.543555,-0.358334 -0.754713,-0.598829 -0.211159,-0.240496 -0.451208,-0.641137 -0.533443,-0.890319 -0.08723,-0.264296 -0.115991,-0.665309 -0.06906,-0.9625 0.04425,-0.280193 0.216307,-0.715636 0.382321,-0.967646 0.166013,-0.252013 0.520683,-0.569844 0.78815,-0.706299 0.3034,-0.15477 0.726633,-0.248092 1.125287,-0.248092 0.459352,0 0.785767,0.08603 1.161126,0.306 0.287185,0.16828 0.635055,0.488687 0.773052,0.711968 0.137977,0.223281 0.28715,0.632664 0.331458,0.90974 0.04689,0.293258 0.01803,0.693099 -0.06894,0.956829 -0.08225,0.249182 -0.32245,0.650008 -0.533809,0.890734 -0.21136,0.240725 -0.563021,0.512363 -0.781473,0.603635 -0.218452,0.09128 -0.633882,0.163783 -0.923176,0.161161 -0.289295,-0.0029 -0.69284,-0.07748 -0.896775,-0.166386 z m -7.703614,-7.065827 -0.401151,-0.358293 -0.03863,-4.524361 c -0.02501,-2.9307414 0.007,-4.6795668 0.09107,-4.9649912 0.07136,-0.2423497 0.246546,-0.5463634 0.389345,-0.6755903 0.171115,-0.1548831 0.433179,-0.2329131 0.768771,-0.2289613 0.43106,0.00493 1.069612,0.331475 4.163464,2.1281495 l 3.654313,2.1221533 3.654317,-2.1221533 c 3.093858,-1.7966745 3.732402,-2.1230744 4.163459,-2.1281495 0.335597,-0.00413 0.59765,0.074097 0.768781,0.2289613 0.142765,0.1292535 0.317996,0.4332406 0.389347,0.6755903 0.08402,0.2854244 0.116087,2.0342498 0.09107,4.9649912 l -0.03863,4.524361 -0.40115,0.358293 c -0.270212,0.241355 -0.532541,0.3583 -0.803706,0.3583 -0.297829,0 -1.36747,-0.557816 -4.111407,-2.144077 l -3.708824,-2.144071 -3.711772,2.144071 c -2.746502,1.586481 -3.816543,2.144077 -4.114621,2.144077 -0.271472,0 -0.533652,-0.116862 -0.803982,-0.3583 z"
       id="path1614" />
  </g>
</svg>
