<?xml version="1.0" encoding="UTF-8" standalone="no"?>
<svg
   width="64"
   height="64"
   version="1.1"
   id="svg73"
   sodipodi:docname="com.system76.CosmicAppletMinimize.svg"
   inkscape:version="1.4.2 (ebf0e940d0, 2025-05-08)"
   xmlns:inkscape="http://www.inkscape.org/namespaces/inkscape"
   xmlns:sodipodi="http://sodipodi.sourceforge.net/DTD/sodipodi-0.dtd"
   xmlns="http://www.w3.org/2000/svg"
   xmlns:svg="http://www.w3.org/2000/svg"
   xmlns:rdf="http://www.w3.org/1999/02/22-rdf-syntax-ns#"
   xmlns:cc="http://creativecommons.org/ns#"
   xmlns:dc="http://purl.org/dc/elements/1.1/">
  <metadata
     id="metadata77">
    <rdf:RDF>
      <cc:Work
         rdf:about="">
        <dc:format>image/svg+xml</dc:format>
        <dc:type
           rdf:resource="http://purl.org/dc/dcmitype/StillImage" />
      </cc:Work>
    </rdf:RDF>
  </metadata>
  <sodipodi:namedview
     pagecolor="#f5f7fa"
     bordercolor="#666666"
     borderopacity="1"
     objecttolerance="10"
     gridtolerance="10"
     guidetolerance="10"
     inkscape:pageopacity="0"
     inkscape:pageshadow="2"
     inkscape:window-width="1377"
     inkscape:window-height="886"
     id="namedview75"
     showgrid="false"
     inkscape:zoom="6.2890624"
     inkscape:cx="46.986336"
     inkscape:cy="40.467081"
     inkscape:window-x="12"
     inkscape:window-y="50"
     inkscape:window-maximized="0"
     inkscape:current-layer="g877"
     inkscape:document-rotation="0"
     inkscape:pagecheckerboard="0"
     inkscape:showpageshadow="2"
     inkscape:deskcolor="#d1d1d1" />
  <defs
     id="defs29" />
  <circle
     cx="32.516094"
     cy="31.877844"
     r="0"
     fill="url(#b)"
     stroke-width="1.5715"
     id="circle41"
     style="fill:url(#b)" />
  <g
     aria-label="GZ"
     transform="matrix(1.2212657,0,0,0.81882264,0.4960938,-0.1661539)"
     id="text93"
     style="font-weight:bold;font-size:11.5263px;line-height:1.25;font-family:sans-serif;-inkscape-font-specification:'sans-serif Bold';fill:#f2f2f2;stroke-width:0.288159" />
  <g
     id="g877"
     transform="matrix(1.1,0,0,1.1,-3.1845928,-3.2065454)">
    <path
       id="path6"
       style="fill:#dfdfdf;fill-opacity:1;stroke:none;stroke-width:0.878917;stroke-dasharray:none;stroke-opacity:0.6"
       d="m 47.028725,12.774825 c -2.230555,-4.04e-4 -4.87044,0.0044 -7.959671,0.01186 l -17.315129,0.04447 -0.571718,0.305973 c -0.761269,0.407765 -1.336096,0.994371 -1.654813,1.689172 -0.229988,0.501349 -0.261332,0.97736 -0.264107,3.950941 l -0.0062,3.381704 11.151132,0.03855 11.151904,0.03937 0.683237,0.338663 c 0.902309,0.448119 1.806981,1.34654 2.242473,2.226557 l 0.352003,0.712543 0.04047,8.158339 0.04046,8.159228 6.158984,-0.0062 c 5.656885,-0.0058 6.205969,-0.02416 6.732401,-0.26322 0.706764,-0.32108 1.364945,-0.963773 1.721894,-1.682495 0.259169,-0.521703 0.270645,-1.048167 0.270645,-12.587095 V 15.252712 l -0.401972,-0.683206 c -0.505401,-0.860073 -1.332274,-1.464442 -2.28171,-1.669071 -0.394825,-0.085 -3.401429,-0.125314 -10.093169,-0.126525 z M 23.179033,24.874053 c -17.3445153,0 -17.5346583,0.0062 -18.0025419,0.288343 -0.2855874,0.174143 -0.5828582,0.537558 -0.7511139,0.91797 -0.2700799,0.61053 -0.2774349,0.983534 -0.2397663,12.216564 0.037881,11.232994 0.047344,11.600084 0.3177243,11.999483 0.1533845,0.226498 0.4740543,0.53103 0.7125548,0.676463 0.4162141,0.253799 1.1430562,0.26437 18.075467,0.264974 h 17.641238 l 0.600247,-0.559174 0.600187,-0.559962 0.03684,-11.874538 c 0.03562,-11.651094 0.03138,-11.883192 -0.24806,-12.338915 -0.1563,-0.255534 -0.493825,-0.592057 -0.74932,-0.747811 -0.456792,-0.278544 -0.752883,-0.283343 -17.993317,-0.283343 z"
       sodipodi:nodetypes="ccccsccccccccccscscccccccccccccccscccc" />
  </g>
</svg>
