<?xml version="1.0" encoding="UTF-8" standalone="no"?>
<svg
   width="64"
   height="64"
   version="1.1"
   id="svg73"
   sodipodi:docname="com.rafaelmardojai.Blanket.svg"
   inkscape:version="1.4.2 (ebf0e940d0, 2025-05-08)"
   xmlns:inkscape="http://www.inkscape.org/namespaces/inkscape"
   xmlns:sodipodi="http://sodipodi.sourceforge.net/DTD/sodipodi-0.dtd"
   xmlns="http://www.w3.org/2000/svg"
   xmlns:svg="http://www.w3.org/2000/svg"
   xmlns:rdf="http://www.w3.org/1999/02/22-rdf-syntax-ns#"
   xmlns:cc="http://creativecommons.org/ns#"
   xmlns:dc="http://purl.org/dc/elements/1.1/">
  <metadata
     id="metadata77">
    <rdf:RDF>
      <cc:Work
         rdf:about="">
        <dc:format>image/svg+xml</dc:format>
        <dc:type
           rdf:resource="http://purl.org/dc/dcmitype/StillImage" />
      </cc:Work>
    </rdf:RDF>
  </metadata>
  <sodipodi:namedview
     pagecolor="#f5f7fa"
     bordercolor="#666666"
     borderopacity="1"
     objecttolerance="10"
     gridtolerance="10"
     guidetolerance="10"
     inkscape:pageopacity="0"
     inkscape:pageshadow="2"
     inkscape:window-width="1377"
     inkscape:window-height="886"
     id="namedview75"
     showgrid="false"
     inkscape:zoom="6.2890624"
     inkscape:cx="46.986336"
     inkscape:cy="40.467081"
     inkscape:window-x="12"
     inkscape:window-y="50"
     inkscape:window-maximized="0"
     inkscape:current-layer="g877"
     inkscape:document-rotation="0"
     inkscape:pagecheckerboard="0"
     inkscape:showpageshadow="2"
     inkscape:deskcolor="#d1d1d1" />
  <defs
     id="defs29" />
  <circle
     cx="32.516094"
     cy="31.877844"
     r="0"
     fill="url(#b)"
     stroke-width="1.5715"
     id="circle41"
     style="fill:url(#b)" />
  <g
     aria-label="GZ"
     transform="matrix(1.2212657,0,0,0.81882264,0.4960938,-0.1661539)"
     id="text93"
     style="font-weight:bold;font-size:11.5263px;line-height:1.25;font-family:sans-serif;-inkscape-font-specification:'sans-serif Bold';fill:#f2f2f2;stroke-width:0.288159" />
  <g
     id="g877"
     transform="matrix(1.1,0,0,1.1,-3.1845928,-3.2065454)">
    <path
       style="fill:#dfdfdf;fill-opacity:1;stroke-width:0.114722"
       d="M 30.303317,49.176612 C 26.941973,48.505788 23.021679,46.853939 16.689623,43.440381 11.9022,40.859519 6.7691876,38.017679 6.0359954,37.542108 5.4277792,37.147601 5.1491598,36.829044 4.8122916,36.143009 4.4062794,35.31615 4.3761137,35.127783 4.3761137,33.419171 c 0,-1.740945 0.2355257,-3.063351 0.6618184,-3.715953 0.097761,-0.149664 1.2470547,0.356422 4.7230218,2.079817 8.2887531,4.10959 13.8265401,6.256856 19.8139591,7.682828 l 2.101407,0.500472 -0.623722,0.676659 c -0.962744,1.044452 -1.409232,2.165133 -1.485295,3.728053 -0.08129,1.670401 0.202615,2.692627 1.119946,4.03253 0.376627,0.550113 0.668025,0.99374 0.647552,0.985836 -0.02047,-0.0077 -0.484639,-0.103664 -1.031484,-0.212801 z m 3.211233,-0.221665 c -1.192949,-0.362878 -1.790724,-0.919866 -2.388451,-2.225466 -0.846634,-1.8493 -0.477725,-4.046777 0.906942,-5.40236 0.937912,-0.918217 1.530921,-1.109436 3.713752,-1.197537 1.079413,-0.04354 2.625458,-0.228919 3.613502,-0.433217 2.285203,-0.472496 15.882057,-3.439057 16.20362,-3.535303 0.335977,-0.10054 0.450667,-0.599961 0.212563,-0.92559 -0.210022,-0.287221 -0.08461,-0.311781 -13.159651,2.576817 -4.462349,0.985843 -5.050227,1.081927 -6.653885,1.087535 -1.472976,0.005 -1.901919,-0.04993 -2.637368,-0.338606 -1.619099,-0.635567 -2.382953,-1.795618 -2.522451,-3.830784 -0.167658,-2.446087 0.964609,-4.50591 2.962697,-5.389757 0.520346,-0.230178 10.43815,-2.191585 23.259197,-4.599884 1.930655,-0.362656 1.986281,-0.347791 2.505385,0.669735 0.510237,1.000148 0.344325,2.104083 -0.441557,2.938016 -0.54022,0.573247 -0.784749,0.657066 -3.231474,1.107597 -1.140835,0.210073 -5.997746,1.139208 -10.793134,2.064741 -8.930862,1.72371 -9.101295,1.769525 -9.101295,2.446524 0,0.556396 -0.771914,0.681691 16.519993,-2.68136 2.397691,-0.466318 4.695481,-0.848261 5.106194,-0.848753 0.655507,-7.5e-4 0.808307,0.06438 1.250478,0.533204 1.090806,1.156595 1.452838,3.356154 0.827477,5.027558 -0.620559,1.658583 -1.869459,2.631623 -4.612439,3.593595 -1.576409,0.552855 -2.781642,0.812431 -11.825963,2.546938 -7.045137,1.351118 -7.566805,1.500524 -7.33635,2.101082 0.05183,0.135106 0.174995,0.27519 0.273643,0.311284 0.268555,0.09825 11.915586,-2.053293 15.127188,-2.794446 1.537732,-0.354873 3.449794,-0.88606 4.249029,-1.180421 2.783156,-1.02506 2.812525,-1.02544 3.479907,-0.0454 0.402752,0.591435 0.432224,1.178821 0.113086,2.253523 -0.345874,1.164716 -0.870667,1.637145 -2.144343,1.930416 -0.586429,0.135048 -2.649402,0.620463 -4.584378,1.078752 -4.65613,1.102772 -9.671338,2.126314 -13.600716,2.775738 -3.134285,0.518016 -4.523591,0.619332 -5.291187,0.38584 z M 28.536329,38.014692 C 23.196639,36.630813 17.386939,34.302761 9.7788707,30.498234 7.7026083,29.459971 5.7612964,28.397512 5.4648331,28.13722 3.5570988,26.462205 3.5035234,23.188496 5.3514984,21.212855 c 0.8558983,-0.915033 1.7247473,-1.370712 3.2310827,-1.6946 0.9973843,-0.214448 16.9318699,-3.280152 23.2503569,-4.473229 2.844444,-0.537103 5.282005,-0.562663 7.104921,-0.07452 0.712381,0.190764 2.67592,1.031221 4.741849,2.029657 1.939297,0.937236 5.694243,2.73156 8.34433,3.987388 2.650076,1.255828 4.874996,2.338084 4.944249,2.405021 0.168474,0.162842 0.429051,0.107921 -8.003514,1.686337 -11.554092,2.162702 -15.14841,2.901109 -16.007247,3.288492 -2.206749,0.995356 -3.743162,4.209905 -3.29753,6.899217 0.137024,0.826946 0.438977,1.607763 1.222804,3.162079 0.09563,0.189631 -0.258322,0.127204 -2.346483,-0.414014 z"
       id="path1" />
  </g>
</svg>
