<?xml version="1.0" encoding="UTF-8" standalone="no"?>
<svg
   width="64"
   height="64"
   version="1.1"
   id="svg73"
   sodipodi:docname="com.system76.CosmicPlayer.svg"
   inkscape:version="1.4.2 (ebf0e940d0, 2025-05-08)"
   xmlns:inkscape="http://www.inkscape.org/namespaces/inkscape"
   xmlns:sodipodi="http://sodipodi.sourceforge.net/DTD/sodipodi-0.dtd"
   xmlns="http://www.w3.org/2000/svg"
   xmlns:svg="http://www.w3.org/2000/svg"
   xmlns:rdf="http://www.w3.org/1999/02/22-rdf-syntax-ns#"
   xmlns:cc="http://creativecommons.org/ns#"
   xmlns:dc="http://purl.org/dc/elements/1.1/">
  <metadata
     id="metadata77">
    <rdf:RDF>
      <cc:Work
         rdf:about="">
        <dc:format>image/svg+xml</dc:format>
        <dc:type
           rdf:resource="http://purl.org/dc/dcmitype/StillImage" />
      </cc:Work>
    </rdf:RDF>
  </metadata>
  <sodipodi:namedview
     pagecolor="#f5f7fa"
     bordercolor="#666666"
     borderopacity="1"
     objecttolerance="10"
     gridtolerance="10"
     guidetolerance="10"
     inkscape:pageopacity="0"
     inkscape:pageshadow="2"
     inkscape:window-width="1377"
     inkscape:window-height="886"
     id="namedview75"
     showgrid="false"
     inkscape:zoom="6.2890624"
     inkscape:cx="46.986336"
     inkscape:cy="40.467081"
     inkscape:window-x="12"
     inkscape:window-y="50"
     inkscape:window-maximized="0"
     inkscape:current-layer="g877"
     inkscape:document-rotation="0"
     inkscape:pagecheckerboard="0"
     inkscape:showpageshadow="2"
     inkscape:deskcolor="#d1d1d1" />
  <defs
     id="defs29" />
  <circle
     cx="32.516094"
     cy="31.877844"
     r="0"
     fill="url(#b)"
     stroke-width="1.5715"
     id="circle41"
     style="fill:url(#b)" />
  <g
     aria-label="GZ"
     transform="matrix(1.2212657,0,0,0.81882264,0.4960938,-0.1661539)"
     id="text93"
     style="font-weight:bold;font-size:11.5263px;line-height:1.25;font-family:sans-serif;-inkscape-font-specification:'sans-serif Bold';fill:#f2f2f2;stroke-width:0.288159" />
  <g
     id="g877"
     transform="matrix(1.1,0,0,1.1,-3.1845928,-3.2065454)">
    <g
       id="g1178"
       transform="matrix(5.2744685,0,0,5.2744685,-12.754274,-13.548151)"
       style="fill:#dfdfdf;fill-opacity:1;stroke:none;stroke-width:0.166636;stroke-dasharray:none;stroke-opacity:0.6">
      <path
         style="fill:#dfdfdf;fill-opacity:1;stroke:none;stroke-width:0.166636;stroke-dasharray:none;stroke-opacity:0.6"
         d="M 7.3295516,10.698589 C 7.219476,10.664188 7.1210173,10.576958 7.0704094,10.469001 l -0.028577,-0.06096 -0.00281,-1.7772012 C 7.035871,6.6406159 7.0297733,6.795085 7.1161339,6.6777721 7.2209846,6.5353428 7.3914669,6.4743447 7.5583977,6.5195304 c 0.064001,0.017325 0.1873067,0.099616 1.323762,0.8834525 0.6892534,0.4753921 1.2763963,0.8868156 1.3047673,0.9142745 0.02838,0.027458 0.06703,0.081242 0.08593,0.1195185 0.03139,0.063618 0.03435,0.078421 0.03435,0.1724192 0,0.097306 -0.0021,0.1072333 -0.04057,0.184934 -0.0248,0.050185 -0.05691,0.096085 -0.08258,0.1180569 -0.09299,0.079596 -2.5304754,1.753086 -2.5877119,1.77663 -0.069921,0.02876 -0.1917521,0.03323 -0.2667899,0.0098 z"
         id="path101" />
      <path
         style="fill:#dfdfdf;fill-opacity:1;stroke:none;stroke-width:0.166636;stroke-dasharray:none;stroke-opacity:0.6"
         d="m 4.5058594,4.6621094 c -0.7615165,0 -1.3886719,0.6291085 -1.3886719,1.390625 v 5.1699216 c 0,0.761517 0.6271557,1.388672 1.3886719,1.388672 h 7.9531246 c 0.761517,0 1.388672,-0.627155 1.388672,-1.388672 V 6.0527344 c 0,-0.7615162 -0.627155,-1.390625 -1.388672,-1.390625 z m 0,0.9257812 h 7.9531246 c 0.264518,0 0.462891,0.2003262 0.462891,0.4648438 v 5.1699216 c 0,0.264518 -0.198373,0.462891 -0.462891,0.462891 H 4.5058594 c -0.2645176,0 -0.4628907,-0.198373 -0.4628907,-0.462891 V 6.0527344 c 0,-0.2645173 0.1983734,-0.4648438 0.4628907,-0.4648438 z"
         id="rect253" />
    </g>
  </g>
</svg>
