<?xml version="1.0" encoding="UTF-8" standalone="no"?>
<svg
   width="64"
   height="64"
   version="1.1"
   id="svg73"
   sodipodi:docname="com.georgefb.haruna.svg"
   inkscape:version="1.4.2 (ebf0e940d0, 2025-05-08)"
   xmlns:inkscape="http://www.inkscape.org/namespaces/inkscape"
   xmlns:sodipodi="http://sodipodi.sourceforge.net/DTD/sodipodi-0.dtd"
   xmlns="http://www.w3.org/2000/svg"
   xmlns:svg="http://www.w3.org/2000/svg"
   xmlns:rdf="http://www.w3.org/1999/02/22-rdf-syntax-ns#"
   xmlns:cc="http://creativecommons.org/ns#"
   xmlns:dc="http://purl.org/dc/elements/1.1/">
  <metadata
     id="metadata77">
    <rdf:RDF>
      <cc:Work
         rdf:about="">
        <dc:format>image/svg+xml</dc:format>
        <dc:type
           rdf:resource="http://purl.org/dc/dcmitype/StillImage" />
      </cc:Work>
    </rdf:RDF>
  </metadata>
  <sodipodi:namedview
     pagecolor="#f5f7fa"
     bordercolor="#666666"
     borderopacity="1"
     objecttolerance="10"
     gridtolerance="10"
     guidetolerance="10"
     inkscape:pageopacity="0"
     inkscape:pageshadow="2"
     inkscape:window-width="1377"
     inkscape:window-height="886"
     id="namedview75"
     showgrid="false"
     inkscape:zoom="6.2890624"
     inkscape:cx="47.622361"
     inkscape:cy="45.396274"
     inkscape:window-x="264"
     inkscape:window-y="75"
     inkscape:window-maximized="0"
     inkscape:current-layer="g877"
     inkscape:document-rotation="0"
     inkscape:pagecheckerboard="0"
     inkscape:showpageshadow="2"
     inkscape:deskcolor="#d1d1d1" />
  <defs
     id="defs29" />
  <circle
     cx="32.516094"
     cy="31.877844"
     r="0"
     fill="url(#b)"
     stroke-width="1.5715"
     id="circle41"
     style="fill:url(#b)" />
  <g
     aria-label="GZ"
     transform="matrix(1.2212657,0,0,0.81882264,0.4960938,-0.1661539)"
     id="text93"
     style="font-weight:bold;font-size:11.5263px;line-height:1.25;font-family:sans-serif;-inkscape-font-specification:'sans-serif Bold';fill:#f2f2f2;stroke-width:0.288159" />
  <g
     id="g877"
     transform="matrix(1.1,0,0,1.1,-3.1845928,-3.2065454)">
    <path
       style="fill:#dfdfdf;fill-opacity:1;stroke:none;stroke-width:0.673304;stroke-dasharray:none;stroke-opacity:0.6"
       d="M 6.8966964,32.005937 V 4.674983 h 5.6903606 5.690351 V 16.098798 27.522619 H 31.985992 45.694559 V 16.098798 4.674983 h 5.690376 5.690354 V 32.005937 59.336872 H 51.384935 45.694559 V 49.076992 38.817115 H 31.983632 18.272682 l 0.02394,10.25991 0.02394,10.259893 -5.711916,-8e-6 -5.7119094,-3.8e-5 z m 9.1390506,17.114181 v -3.49181 h -3.44869 -3.4487053 v 3.49181 3.491811 h 3.4487053 3.44869 z m 38.797891,0 v -3.49181 h -3.448703 -3.4487 v 3.49181 3.491811 h 3.4487 3.448703 z M 16.035747,33.12676 v -3.448704 h -3.44869 -3.4487053 v 3.448704 3.448702 h 3.4487053 3.44869 z m 38.797891,0 v -3.448704 h -3.448703 -3.4487 v 3.448704 3.448702 h 3.4487 3.448703 z M 16.035747,14.891761 v -3.491816 h -3.44869 -3.4487053 v 3.491816 3.491807 h 3.4487053 3.44869 z m 38.797891,0 v -3.491816 h -3.448703 -3.4487 v 3.491816 3.491807 h 3.4487 3.448703 z"
       id="path7" />
  </g>
</svg>
