<?xml version="1.0" encoding="UTF-8" standalone="no"?>
<svg
   width="64"
   height="64"
   version="1.1"
   id="svg73"
   sodipodi:docname="com.rosegardenmusic.rosegarden.svg"
   inkscape:version="1.4.2 (ebf0e940d0, 2025-05-08)"
   xmlns:inkscape="http://www.inkscape.org/namespaces/inkscape"
   xmlns:sodipodi="http://sodipodi.sourceforge.net/DTD/sodipodi-0.dtd"
   xmlns="http://www.w3.org/2000/svg"
   xmlns:svg="http://www.w3.org/2000/svg"
   xmlns:rdf="http://www.w3.org/1999/02/22-rdf-syntax-ns#"
   xmlns:cc="http://creativecommons.org/ns#"
   xmlns:dc="http://purl.org/dc/elements/1.1/">
  <metadata
     id="metadata77">
    <rdf:RDF>
      <cc:Work
         rdf:about="">
        <dc:format>image/svg+xml</dc:format>
        <dc:type
           rdf:resource="http://purl.org/dc/dcmitype/StillImage" />
      </cc:Work>
    </rdf:RDF>
  </metadata>
  <sodipodi:namedview
     pagecolor="#f5f7fa"
     bordercolor="#666666"
     borderopacity="1"
     objecttolerance="10"
     gridtolerance="10"
     guidetolerance="10"
     inkscape:pageopacity="0"
     inkscape:pageshadow="2"
     inkscape:window-width="1377"
     inkscape:window-height="886"
     id="namedview75"
     showgrid="false"
     inkscape:zoom="6.2890624"
     inkscape:cx="46.986336"
     inkscape:cy="40.467081"
     inkscape:window-x="12"
     inkscape:window-y="50"
     inkscape:window-maximized="0"
     inkscape:current-layer="g877"
     inkscape:document-rotation="0"
     inkscape:pagecheckerboard="0"
     inkscape:showpageshadow="2"
     inkscape:deskcolor="#d1d1d1" />
  <defs
     id="defs29" />
  <circle
     cx="32.516094"
     cy="31.877844"
     r="0"
     fill="url(#b)"
     stroke-width="1.5715"
     id="circle41"
     style="fill:url(#b)" />
  <g
     aria-label="GZ"
     transform="matrix(1.2212657,0,0,0.81882264,0.4960938,-0.1661539)"
     id="text93"
     style="font-weight:bold;font-size:11.5263px;line-height:1.25;font-family:sans-serif;-inkscape-font-specification:'sans-serif Bold';fill:#f2f2f2;stroke-width:0.288159" />
  <g
     id="g877"
     transform="matrix(1.1,0,0,1.1,-3.1845928,-3.2065454)">
    <g
       id="g7"
       transform="matrix(0.10584726,0,0,0.10584726,4.8891283,4.9091038)"
       style="fill:#dfdfdf;fill-opacity:1">
      <path
         class="st0"
         d="m 236.045,349.027 c 5.206,4.634 16.184,12.451 30.896,12.451 3.811,0 7.189,-0.382 10.772,-1.134 12.863,-2.821 27.75,-17.538 38.831,-38.434 12.389,-23.223 19.418,-51.78 19.294,-78.372 0,-27.807 -8.708,-51.626 -25.186,-68.908 -16.508,-17.188 -38.83,-26.282 -64.536,-26.282 -6.205,0 -12.688,0.525 -19.258,1.586 -28.217,4.768 -47.985,17.282 -60.396,38.259 -9.572,16.2 -14.434,37.703 -14.434,63.923 0,26.694 6.957,51.339 19.584,69.372 9.851,13.964 22.167,22.656 35.283,25.098 -2.868,-5.665 -4.274,-10.988 -4.274,-16.211 0,-18.424 3.476,-35.2 10.34,-49.937 -11.617,-5.984 -21.123,-13.172 -28.286,-21.4 -9.134,-10.628 -13.954,-22.636 -13.954,-34.738 0,-11.822 4.593,-23.316 13.28,-33.244 8.316,-9.34 20.34,-16.806 34.772,-21.638 9.248,-3.028 18.754,-4.562 28.295,-4.562 11.71,0 23.435,2.318 33.904,6.725 10.489,4.553 18.568,10.587 24.057,17.951 4.192,5.695 6.396,12.007 6.396,18.269 0,6.386 -2.313,12.729 -6.509,17.868 -4.032,5.068 -9.614,9.362 -17.014,13.059 -22.054,11.092 -37.744,23.676 -47.965,38.486 -10.433,15.057 -15.504,32.452 -15.504,53.161 0,1.493 0.818,4.522 2.605,7.662 2.03,3.678 5.218,7.56 9.007,10.99 z"
         id="path1"
         style="fill:#dfdfdf;fill-opacity:1" />
      <path
         class="st0"
         d="m 246.117,126.536 c 31.607,0 60.113,11.73 80.277,33.048 9.099,9.578 16.283,20.67 21.422,33.018 11.096,-15.479 22.966,-27.158 36.132,-35.561 10.278,-6.375 20.978,-10.732 32.642,-13.306 -3.775,-23.45 -15.062,-47.62 -34.413,-73.799 -5.614,-7.652 -10.835,-12.708 -15.958,-15.479 -4.248,-2.328 -8.306,-3.327 -13.609,-3.327 -0.011,0 -0.016,0 -0.026,0 -5.468,0 -11.292,1.03 -18.038,2.214 -6.993,1.226 -14.908,2.616 -23.929,3.234 -15.412,1.009 -37.616,4.366 -55.957,14.613 -2.415,1.4 -4.758,2.842 -7.096,4.532 -4.387,3.172 -7.749,6.086 -10.581,9.145 -9.346,9.907 -15.036,22.801 -16.937,38.341 -0.252,2.368 -0.493,4.346 -0.69,5.994 1.308,-0.248 2.642,-0.474 4.001,-0.7 7.24,-1.317 14.706,-1.967 22.76,-1.967 z"
         id="path2-4"
         style="fill:#dfdfdf;fill-opacity:1" />
      <path
         class="st0"
         d="m 287.749,212.252 c 1.642,-2.092 1.864,-3.43 1.864,-4.45 0,-1.482 -0.777,-3.347 -2.245,-5.407 -1.828,-2.574 -4.825,-5.16 -8.429,-7.302 -8.538,-5.375 -20.123,-8.424 -31.869,-8.424 -7.481,0 -14.644,1.154 -21.297,3.45 -10.844,3.543 -19.609,8.877 -25.391,15.479 -5.221,5.798 -7.852,12.08 -7.852,18.702 0,6.952 2.919,13.79 8.671,20.34 5.366,6.364 13.228,12.204 22.899,17.044 12.518,-16.57 30.267,-30.463 54.134,-42.41 5.972,-2.975 8.644,-5.911 9.515,-7.022 z"
         id="path3-4"
         style="fill:#dfdfdf;fill-opacity:1" />
      <path
         class="st0"
         d="m 377.413,364.485 c -12.214,-10.082 -29.505,-18.136 -47.497,-22.131 -13.641,21.595 -29.84,35.066 -47.275,39.186 -5.227,1.154 -10.34,1.74 -15.252,1.74 -12.682,0 -25.366,-3.748 -36.678,-10.844 -1.797,-1.204 -3.492,-2.44 -5.103,-3.687 -16.746,13.532 -39.644,20.391 -68.115,20.391 -14.835,0 -30.741,-1.936 -47.327,-5.768 -5.556,5.13 -8.445,9.949 -8.445,14.223 0,3.934 2.776,8.619 7.802,13.213 5.484,5.108 13.795,10.34 24.067,15.138 20.046,9.465 43.439,15.5 54.279,17.261 8.182,1.286 15.386,4.871 22.342,8.342 l 4.805,2.358 c 7.034,3.45 15.01,6.962 21.148,6.962 1.951,0 3.83,-0.33 5.741,-1 5.85,-2.12 12.822,-2.883 21.647,-3.862 l 4.66,-0.515 c 9.511,-1.05 20.284,-2.234 32.224,-4.51 32.584,-6.066 59.474,-17.703 82.229,-35.592 7.194,-5.634 11.246,-11.38 12.409,-17.59 0.34,-1.298 0.479,-2.492 0.479,-3.883 0,-2.42 -0.463,-4.932 -1.39,-7.466 -2.373,-7.27 -8.315,-15.036 -16.75,-21.966 z"
         id="path4"
         style="fill:#dfdfdf;fill-opacity:1" />
      <path
         class="st0"
         d="m 504.178,178.277 c -5.087,-7.25 -12.677,-11.432 -23.903,-13.204 -12.244,-1.895 -23.099,-2.811 -33.182,-2.811 -3.789,0 -7.461,0.134 -10.998,0.516 -4.485,0.268 -8.734,0.854 -13.209,1.843 -9.799,2.039 -18.687,5.602 -27.209,10.926 -14.253,8.99 -26.997,23.121 -39.994,44.356 1.302,7.322 1.967,15.262 1.967,23.625 0,26.745 -6.041,54.562 -17.08,78.907 19.129,5.098 36.998,13.955 50.756,25.232 10.999,8.96 18.816,19.196 22.827,29.794 7.25,-2.235 14.192,-5.417 21.122,-9.66 16.092,-10.02 31.406,-25.437 46.797,-47.157 20.943,-29.063 29.135,-76.055 29.794,-107.465 L 512,209.945 c 0,-13.738 -2.636,-24.448 -7.822,-31.668 z"
         id="path5"
         style="fill:#dfdfdf;fill-opacity:1" />
      <path
         class="st0"
         d="m 89.985,135.404 c 23.569,0 47.08,7.59 71.751,23.212 9.464,-9.762 21.22,-17.476 35.035,-22.976 0.021,-2.657 0.32,-4.995 0.814,-8.599 l 0.839,-6.446 c 1.91,-16.324 7.363,-30.68 16.22,-42.719 -9.537,-3.976 -18.764,-7.261 -25.221,-9.516 -11.385,-3.789 -23.105,-7.352 -34.788,-10.555 -6.061,-1.668 -11.364,-3.008 -15.592,-4.11 l -6.761,-1.751 c -2.363,-0.546 -4.212,-0.814 -5.88,-0.814 -4.372,0.124 -8.518,1.473 -12.951,4.285 -4.876,3.079 -9.819,8.002 -14.7,14.634 -10.108,13.615 -20.52,35.201 -30.948,64.139 -0.386,1.072 -0.736,2.111 -1.066,3.131 7.838,-1.288 15.274,-1.915 22.581,-1.915 z"
         id="path6"
         style="fill:#dfdfdf;fill-opacity:1" />
      <path
         class="st0"
         d="m 125.166,364.279 c 11.086,2.018 21.931,3.048 32.327,3.048 0.01,0 0.03,0 0.046,0 11.626,0 21.735,-1.276 30.592,-3.789 -13.089,-5.757 -24.835,-15.818 -34.408,-29.599 -13.605,-19.443 -21.586,-44.273 -23.084,-71.78 -0.278,-3.265 -0.417,-6.653 -0.417,-10.042 v -2.728 c 0.329,-28.62 6.21,-52.925 17.461,-72.266 0.201,-0.37 0.412,-0.762 0.639,-1.132 -20.572,-12.802 -39.418,-18.775 -59.005,-18.775 -8.883,0 -18.085,1.143 -28.97,3.585 -4.501,0.957 -8.965,2.028 -13.429,3.13 -10.304,2.524 -19.666,4.717 -29.697,5.798 -8.063,0.989 -11.205,3.347 -13.44,6.582 -2.446,3.449 -3.78,9.422 -3.78,16.899 -0.087,12.235 3.281,27.642 6.54,42.523 1.618,7.394 3.193,14.625 4.32,21.298 1.488,8.98 5.34,26.673 14.336,44.366 8.877,17.178 20.711,30.298 35.138,38.991 13.012,7.826 29.665,14.84 46.87,19.742 5.87,1.595 11.915,2.924 17.961,4.149 z"
         id="path7"
         style="fill:#dfdfdf;fill-opacity:1" />
    </g>
  </g>
</svg>
