<?xml version="1.0" encoding="UTF-8" standalone="no"?>
<svg
   width="64"
   height="64"
   version="1.1"
   id="svg73"
   sodipodi:docname="com.visualstudio.code-oss.svg"
   inkscape:version="1.4.2 (ebf0e940d0, 2025-05-08)"
   xmlns:inkscape="http://www.inkscape.org/namespaces/inkscape"
   xmlns:sodipodi="http://sodipodi.sourceforge.net/DTD/sodipodi-0.dtd"
   xmlns="http://www.w3.org/2000/svg"
   xmlns:svg="http://www.w3.org/2000/svg"
   xmlns:rdf="http://www.w3.org/1999/02/22-rdf-syntax-ns#"
   xmlns:cc="http://creativecommons.org/ns#"
   xmlns:dc="http://purl.org/dc/elements/1.1/">
  <metadata
     id="metadata77">
    <rdf:RDF>
      <cc:Work
         rdf:about="">
        <dc:format>image/svg+xml</dc:format>
        <dc:type
           rdf:resource="http://purl.org/dc/dcmitype/StillImage" />
      </cc:Work>
    </rdf:RDF>
  </metadata>
  <sodipodi:namedview
     pagecolor="#f5f7fa"
     bordercolor="#666666"
     borderopacity="1"
     objecttolerance="10"
     gridtolerance="10"
     guidetolerance="10"
     inkscape:pageopacity="0"
     inkscape:pageshadow="2"
     inkscape:window-width="1377"
     inkscape:window-height="886"
     id="namedview75"
     showgrid="false"
     inkscape:zoom="6.2890624"
     inkscape:cx="34.901864"
     inkscape:cy="35.06087"
     inkscape:window-x="1"
     inkscape:window-y="75"
     inkscape:window-maximized="0"
     inkscape:current-layer="g877"
     inkscape:document-rotation="0"
     inkscape:pagecheckerboard="0"
     inkscape:showpageshadow="2"
     inkscape:deskcolor="#d1d1d1" />
  <defs
     id="defs29" />
  <circle
     cx="32.516094"
     cy="31.877844"
     r="0"
     fill="url(#b)"
     stroke-width="1.5715"
     id="circle41"
     style="fill:url(#b)" />
  <g
     aria-label="GZ"
     transform="matrix(1.2212657,0,0,0.81882264,0.4960938,-0.1661539)"
     id="text93"
     style="font-weight:bold;font-size:11.5263px;line-height:1.25;font-family:sans-serif;-inkscape-font-specification:'sans-serif Bold';fill:#f2f2f2;stroke-width:0.288159" />
  <g
     id="g877"
     transform="matrix(1.1,0,0,1.1,-3.1845928,-3.2065454)">
    <g
       id="g10"
       transform="matrix(1.017326,0,0,1.017326,-3.6204172,-0.54848089)"
       style="fill:#dfdfdf;fill-opacity:1;stroke:none;stroke-width:0.846754;stroke-dasharray:none;stroke-opacity:0.6">
      <g
         id="path5-0"
         style="fill:#dfdfdf;fill-opacity:1;stroke:none;stroke-width:0.846754;stroke-dasharray:none;stroke-opacity:0.6">
        <path
           style="color:#000000;fill:#dfdfdf;fill-opacity:1;stroke:none;stroke-width:0.846754;stroke-linecap:round;stroke-dasharray:none;stroke-opacity:0.6"
           d="M 22,7 V 57"
           id="path1" />
        <path
           style="color:#000000;fill:#dfdfdf;fill-opacity:1;stroke:none;stroke-width:0.846754;stroke-linecap:round;stroke-dasharray:none;stroke-opacity:0.6"
           d="m 22,4 a 3,3 0 0 0 -3,3 v 50 a 3,3 0 0 0 3,3 3,3 0 0 0 3,-3 V 7 A 3,3 0 0 0 22,4 Z"
           id="path2-7" />
      </g>
      <g
         id="path6"
         style="fill:#dfdfdf;fill-opacity:1;stroke:none;stroke-width:0.846754;stroke-dasharray:none;stroke-opacity:0.6">
        <path
           style="color:#000000;fill:#dfdfdf;fill-opacity:1;stroke:none;stroke-width:0.846754;stroke-linecap:round;stroke-dasharray:none;stroke-opacity:0.6"
           d="M 30.042727,13.9994 H 41"
           id="path4-8" />
        <path
           style="color:#000000;fill:#dfdfdf;fill-opacity:1;stroke:none;stroke-width:0.846754;stroke-linecap:round;stroke-dasharray:none;stroke-opacity:0.6"
           d="m 30.042969,11 a 3,3 0 0 0 -3,3 3,3 0 0 0 3,3 H 41 a 3,3 0 0 0 3,-3 3,3 0 0 0 -3,-3 z"
           id="path12" />
      </g>
      <g
         id="path7"
         style="fill:#dfdfdf;fill-opacity:1;stroke:none;stroke-width:0.846754;stroke-dasharray:none;stroke-opacity:0.6">
        <path
           style="color:#000000;fill:#dfdfdf;fill-opacity:1;stroke:none;stroke-width:0.846754;stroke-linecap:round;stroke-dasharray:none;stroke-opacity:0.6"
           d="M 34.042727,22.9997 H 48"
           id="path13" />
        <path
           style="color:#000000;fill:#dfdfdf;fill-opacity:1;stroke:none;stroke-width:0.846754;stroke-linecap:round;stroke-dasharray:none;stroke-opacity:0.6"
           d="m 34.042969,20 a 3,3 0 0 0 -3,3 3,3 0 0 0 3,3 H 48 a 3,3 0 0 0 3,-3 3,3 0 0 0 -3,-3 z"
           id="path14" />
      </g>
      <g
         id="path8"
         style="fill:#dfdfdf;fill-opacity:1;stroke:none;stroke-width:0.846754;stroke-dasharray:none;stroke-opacity:0.6">
        <path
           style="color:#000000;fill:#dfdfdf;fill-opacity:1;stroke:none;stroke-width:0.846754;stroke-linecap:round;stroke-dasharray:none;stroke-opacity:0.6"
           d="M 34.042727,31.9997 H 48"
           id="path15" />
        <path
           style="color:#000000;fill:#dfdfdf;fill-opacity:1;stroke:none;stroke-width:0.846754;stroke-linecap:round;stroke-dasharray:none;stroke-opacity:0.6"
           d="m 34.042969,29 a 3,3 0 0 0 -3,3 3,3 0 0 0 3,3 H 48 a 3,3 0 0 0 3,-3 3,3 0 0 0 -3,-3 z"
           id="path16" />
      </g>
      <g
         id="path9"
         style="fill:#dfdfdf;fill-opacity:1;stroke:none;stroke-width:0.846754;stroke-dasharray:none;stroke-opacity:0.6">
        <path
           style="color:#000000;fill:#dfdfdf;fill-opacity:1;stroke:none;stroke-width:0.846754;stroke-linecap:round;stroke-dasharray:none;stroke-opacity:0.6"
           d="M 34.042727,40.9997 H 48"
           id="path17" />
        <path
           style="color:#000000;fill:#dfdfdf;fill-opacity:1;stroke:none;stroke-width:0.846754;stroke-linecap:round;stroke-dasharray:none;stroke-opacity:0.6"
           d="m 34.042969,38 a 3,3 0 0 0 -3,3 3,3 0 0 0 3,3 H 48 a 3,3 0 0 0 3,-3 3,3 0 0 0 -3,-3 z"
           id="path19" />
      </g>
      <g
         id="path10-3"
         style="fill:#dfdfdf;fill-opacity:1;stroke:none;stroke-width:0.846754;stroke-dasharray:none;stroke-opacity:0.6">
        <path
           style="color:#000000;fill:#dfdfdf;fill-opacity:1;stroke:none;stroke-width:0.846754;stroke-linecap:round;stroke-dasharray:none;stroke-opacity:0.6"
           d="M 30.042727,49.9997 H 41"
           id="path21" />
        <path
           style="color:#000000;fill:#dfdfdf;fill-opacity:1;stroke:none;stroke-width:0.846754;stroke-linecap:round;stroke-dasharray:none;stroke-opacity:0.6"
           d="m 30.042969,47 a 3,3 0 0 0 -3,3 3,3 0 0 0 3,3 H 41 a 3,3 0 0 0 3,-3 3,3 0 0 0 -3,-3 z"
           id="path23" />
      </g>
    </g>
  </g>
</svg>
