<?xml version="1.0" encoding="UTF-8" standalone="no"?>
<svg
   width="64"
   height="64"
   version="1.1"
   id="svg73"
   sodipodi:docname="com.mitchellh.ghostty.svg"
   inkscape:version="1.4.2 (ebf0e940d0, 2025-05-08)"
   xmlns:inkscape="http://www.inkscape.org/namespaces/inkscape"
   xmlns:sodipodi="http://sodipodi.sourceforge.net/DTD/sodipodi-0.dtd"
   xmlns="http://www.w3.org/2000/svg"
   xmlns:svg="http://www.w3.org/2000/svg"
   xmlns:rdf="http://www.w3.org/1999/02/22-rdf-syntax-ns#"
   xmlns:cc="http://creativecommons.org/ns#"
   xmlns:dc="http://purl.org/dc/elements/1.1/">
  <metadata
     id="metadata77">
    <rdf:RDF>
      <cc:Work
         rdf:about="">
        <dc:format>image/svg+xml</dc:format>
        <dc:type
           rdf:resource="http://purl.org/dc/dcmitype/StillImage" />
      </cc:Work>
    </rdf:RDF>
  </metadata>
  <sodipodi:namedview
     pagecolor="#f5f7fa"
     bordercolor="#666666"
     borderopacity="1"
     objecttolerance="10"
     gridtolerance="10"
     guidetolerance="10"
     inkscape:pageopacity="0"
     inkscape:pageshadow="2"
     inkscape:window-width="1377"
     inkscape:window-height="886"
     id="namedview75"
     showgrid="false"
     inkscape:zoom="6.2890624"
     inkscape:cx="46.986336"
     inkscape:cy="40.467081"
     inkscape:window-x="12"
     inkscape:window-y="50"
     inkscape:window-maximized="0"
     inkscape:current-layer="g877"
     inkscape:document-rotation="0"
     inkscape:pagecheckerboard="0"
     inkscape:showpageshadow="2"
     inkscape:deskcolor="#d1d1d1" />
  <defs
     id="defs29" />
  <circle
     cx="32.516094"
     cy="31.877844"
     r="0"
     fill="url(#b)"
     stroke-width="1.5715"
     id="circle41"
     style="fill:url(#b)" />
  <g
     aria-label="GZ"
     transform="matrix(1.2212657,0,0,0.81882264,0.4960938,-0.1661539)"
     id="text93"
     style="font-weight:bold;font-size:11.5263px;line-height:1.25;font-family:sans-serif;-inkscape-font-specification:'sans-serif Bold';fill:#f2f2f2;stroke-width:0.288159" />
  <g
     id="g877"
     transform="matrix(1.1,0,0,1.1,-3.1845928,-3.2065454)">
    <path
       style="fill:#dfdfdf;fill-opacity:1;stroke:none;stroke-width:0.0500576;stroke-opacity:0.5"
       d="M 14.94846,59.641551 C 12.262818,58.948097 10.214964,56.927461 9.4234308,54.189957 L 9.1918522,53.389046 V 39.072598 c 0,-11.226914 0.028083,-14.510891 0.1303049,-15.217477 0.380226,-2.62933 1.0693959,-4.908605 2.1362789,-7.065282 4.620846,-9.3408971 15.138479,-14.3273392 25.508265,-12.0935414 3.978868,0.8571079 7.974646,2.9949081 10.908777,5.8363564 3.674368,3.558296 5.822684,7.696286 6.682694,12.871948 0.15894,0.956162 0.178089,2.304928 0.211838,14.917129 0.02556,9.411301 0.0029,14.161228 -0.06954,14.785093 -0.12176,1.048513 -0.515381,2.250655 -1.01523,3.100769 -0.188518,0.320557 -0.725666,0.968343 -1.193694,1.439458 -1.443255,1.452716 -3.242408,2.197999 -5.306092,2.197999 -1.673487,0 -3.00457,-0.42862 -4.489456,-1.445518 -1.011424,-0.692675 -1.532609,-0.923369 -2.415437,-1.069165 -1.261471,-0.208304 -2.358871,0.110981 -3.936502,1.14541 -1.464008,0.959942 -2.778692,1.366342 -4.426149,1.368237 -1.576092,0.0016 -2.894619,-0.409706 -4.303882,-1.343127 -1.479829,-0.980216 -2.031722,-1.175861 -3.306879,-1.172299 -1.060319,0.0029 -1.856231,0.269022 -2.901304,0.969868 -1.060596,0.71126 -2.129447,1.194146 -3.074314,1.388929 -1.04454,0.215321 -2.445176,0.196348 -3.383103,-0.04511 z m 2.51199,-25.157937 c 0.584122,-0.177162 9.560158,-5.306861 9.974063,-5.700066 0.498732,-0.473798 0.729487,-1.060667 0.726927,-1.848799 -0.0027,-0.815644 -0.214421,-1.327591 -0.761759,-1.841494 -0.38969,-0.365892 -9.22746,-5.46185 -9.846686,-5.67771 -0.454618,-0.15849 -1.194443,-0.145094 -1.692504,0.03061 -1.729319,0.610138 -2.268574,2.92136 -0.977925,4.191334 0.261085,0.256906 1.399228,0.971497 2.955078,1.855375 2.217376,1.25969 2.507936,1.45266 2.348531,1.559743 -0.100045,0.0672 -1.240623,0.722196 -2.534608,1.455529 -2.471779,1.400811 -2.886192,1.702479 -3.235161,2.355003 -0.30207,0.564832 -0.30207,1.737812 0,2.302646 0.315203,0.589399 0.848897,1.053188 1.451376,1.261269 0.640329,0.221148 1.006951,0.234167 1.592668,0.05652 z m 30.248112,-5.076679 c 0.982059,-0.272746 1.779576,-1.339116 1.779576,-2.379501 0,-0.773735 -0.174711,-1.262966 -0.639462,-1.790995 -0.770245,-0.875051 -0.290984,-0.826286 -8.120603,-0.826286 -6.476438,0 -6.933086,0.01125 -7.310611,0.182926 -0.514088,0.233542 -1.02859,0.748033 -1.262122,1.262122 -0.227522,0.500839 -0.246954,1.587073 -0.03741,2.088682 0.286634,0.686014 0.92051,1.251852 1.651465,1.474194 0.396322,0.120552 13.502652,0.110086 13.939133,-0.01113 z"
       id="path9" />
  </g>
</svg>
