<?xml version="1.0" encoding="UTF-8" standalone="no"?>
<svg
   width="64"
   height="64"
   version="1.1"
   id="svg73"
   sodipodi:docname="com.belmoussaoui.Authenticator.svg"
   inkscape:version="1.4.2 (ebf0e940d0, 2025-05-08)"
   xmlns:inkscape="http://www.inkscape.org/namespaces/inkscape"
   xmlns:sodipodi="http://sodipodi.sourceforge.net/DTD/sodipodi-0.dtd"
   xmlns="http://www.w3.org/2000/svg"
   xmlns:svg="http://www.w3.org/2000/svg"
   xmlns:rdf="http://www.w3.org/1999/02/22-rdf-syntax-ns#"
   xmlns:cc="http://creativecommons.org/ns#"
   xmlns:dc="http://purl.org/dc/elements/1.1/">
  <metadata
     id="metadata77">
    <rdf:RDF>
      <cc:Work
         rdf:about="">
        <dc:format>image/svg+xml</dc:format>
        <dc:type
           rdf:resource="http://purl.org/dc/dcmitype/StillImage" />
      </cc:Work>
    </rdf:RDF>
  </metadata>
  <sodipodi:namedview
     pagecolor="#f5f7fa"
     bordercolor="#666666"
     borderopacity="1"
     objecttolerance="10"
     gridtolerance="10"
     guidetolerance="10"
     inkscape:pageopacity="0"
     inkscape:pageshadow="2"
     inkscape:window-width="1377"
     inkscape:window-height="886"
     id="namedview75"
     showgrid="false"
     inkscape:zoom="6.2890624"
     inkscape:cx="34.901864"
     inkscape:cy="35.06087"
     inkscape:window-x="1"
     inkscape:window-y="75"
     inkscape:window-maximized="0"
     inkscape:current-layer="g877"
     inkscape:document-rotation="0"
     inkscape:pagecheckerboard="0"
     inkscape:showpageshadow="2"
     inkscape:deskcolor="#d1d1d1" />
  <defs
     id="defs29" />
  <circle
     cx="32.516094"
     cy="31.877844"
     r="0"
     fill="url(#b)"
     stroke-width="1.5715"
     id="circle41"
     style="fill:url(#b)" />
  <g
     aria-label="GZ"
     transform="matrix(1.2212657,0,0,0.81882264,0.4960938,-0.1661539)"
     id="text93"
     style="font-weight:bold;font-size:11.5263px;line-height:1.25;font-family:sans-serif;-inkscape-font-specification:'sans-serif Bold';fill:#f2f2f2;stroke-width:0.288159" />
  <g
     id="g877"
     transform="matrix(1.1,0,0,1.1,-3.1845928,-3.2065454)">
    <path
       id="path6"
       style="fill:#dfdfdf;fill-opacity:1;stroke:none;stroke-width:0.820405;stroke-dasharray:none;stroke-opacity:0.6"
       d="M 32.04702,3.6318733 C 28.463936,3.6294775 27.492342,3.81586 25.167289,4.958618 20.50415,7.2505275 17.938863,12.601352 17.282503,21.407325 l -0.126139,1.694701 0.876792,-0.731706 c 1.221862,-1.019378 3.357673,-2.378553 4.728764,-3.008834 0.635011,-0.291911 1.176519,-0.542316 1.204794,-0.557189 0.0282,-0.01465 0.248464,-0.765189 0.489907,-1.667373 0.91547,-3.420799 2.412698,-5.630129 4.512197,-6.663164 1.125797,-0.5539351 1.306907,-0.589046 3.076115,-0.584525 1.683068,0.00418 1.984575,0.05632 2.893191,0.498317 2.062388,1.003205 3.616696,3.263697 4.566866,6.644244 l 0.494116,1.753574 1.162736,0.521448 c 1.391923,0.623833 4.350244,2.566052 5.084098,3.338942 0.288673,0.304062 0.553134,0.552988 0.588715,0.552988 0.0659,0 -0.01045,-0.892562 -0.334336,-3.931881 -0.372752,-3.49317 -1.263558,-6.723354 -2.537806,-9.203118 C 42.920903,8.0367283 40.688437,5.7943845 38.838444,4.9165638 36.515383,3.8142788 35.563306,3.6345832 32.04702,3.6318733 Z m 0.273349,13.8603937 c -0.30864,-0.0035 -0.616911,6.82e-4 -0.925152,0.01067 -5.42498,0.172975 -10.750211,2.389089 -14.596307,6.316211 -10.1606141,10.374644 -7.4674313,27.477138 5.372165,34.108514 2.402924,1.241067 4.479882,1.868274 7.731289,2.333895 2.888144,0.413593 7.253691,-0.279975 10.637095,-1.688398 6.385286,-2.658206 11.266379,-8.875014 12.617749,-16.072336 0.323929,-1.725025 0.280081,-5.688788 -0.08413,-7.554671 C 51.567933,27.23458 46.153753,21.05365 38.724914,18.564761 36.644868,17.86788 34.480778,17.516483 32.320371,17.492432 Z m -0.170316,6.263669 c 5.553432,0.09336 10.84493,3.239755 13.357873,8.290586 4.671534,9.389492 -1.174066,20.462907 -11.551735,21.881851 -3.972865,0.543225 -7.949872,-0.533942 -11.265778,-3.04879 -2.667494,-2.023083 -4.800836,-5.449548 -5.506733,-8.849882 -0.458537,-2.208805 -0.371407,-5.158006 0.210262,-7.205633 0.811307,-2.855996 2.804917,-5.885954 5.098826,-7.748114 1.273276,-1.03362 4.185979,-2.481322 5.801098,-2.882671 1.278535,-0.31772 2.574621,-0.458889 3.856187,-0.437347 z m 8.055095,6.949122 c -0.02072,0 -1.451588,0.474835 -3.181248,1.053407 -2.990661,1.000359 -3.191344,1.041957 -4.10009,0.87679 -2.662063,-0.483845 -5.505866,1.101047 -6.740964,3.75736 -0.391811,0.842664 -0.471959,1.272616 -0.47519,2.53785 -0.0035,1.364695 0.05599,1.64731 0.582428,2.716568 0.914968,1.858563 2.702985,3.206672 4.682508,3.530282 2.036564,0.332834 3.950404,-0.315488 5.473093,-1.856607 1.503539,-1.521748 1.919171,-2.634254 1.814545,-4.840201 -0.07457,-1.572482 -0.05353,-1.677001 0.952478,-4.690926 0.565984,-1.69564 1.012888,-3.084523 0.99244,-3.084523 z" />
  </g>
</svg>
