<?xml version="1.0" encoding="UTF-8" standalone="no"?>
<svg
   width="64"
   height="64"
   version="1.1"
   id="svg73"
   sodipodi:docname="com.stremio.Stremio.svg"
   inkscape:version="1.4.2 (ebf0e940d0, 2025-05-08)"
   xmlns:inkscape="http://www.inkscape.org/namespaces/inkscape"
   xmlns:sodipodi="http://sodipodi.sourceforge.net/DTD/sodipodi-0.dtd"
   xmlns="http://www.w3.org/2000/svg"
   xmlns:svg="http://www.w3.org/2000/svg"
   xmlns:rdf="http://www.w3.org/1999/02/22-rdf-syntax-ns#"
   xmlns:cc="http://creativecommons.org/ns#"
   xmlns:dc="http://purl.org/dc/elements/1.1/">
  <metadata
     id="metadata77">
    <rdf:RDF>
      <cc:Work
         rdf:about="">
        <dc:format>image/svg+xml</dc:format>
        <dc:type
           rdf:resource="http://purl.org/dc/dcmitype/StillImage" />
      </cc:Work>
    </rdf:RDF>
  </metadata>
  <sodipodi:namedview
     pagecolor="#f5f7fa"
     bordercolor="#666666"
     borderopacity="1"
     objecttolerance="10"
     gridtolerance="10"
     guidetolerance="10"
     inkscape:pageopacity="0"
     inkscape:pageshadow="2"
     inkscape:window-width="1377"
     inkscape:window-height="886"
     id="namedview75"
     showgrid="false"
     inkscape:zoom="6.2890624"
     inkscape:cx="46.986336"
     inkscape:cy="40.467081"
     inkscape:window-x="12"
     inkscape:window-y="50"
     inkscape:window-maximized="0"
     inkscape:current-layer="g877"
     inkscape:document-rotation="0"
     inkscape:pagecheckerboard="0"
     inkscape:showpageshadow="2"
     inkscape:deskcolor="#d1d1d1" />
  <defs
     id="defs29" />
  <circle
     cx="32.516094"
     cy="31.877844"
     r="0"
     fill="url(#b)"
     stroke-width="1.5715"
     id="circle41"
     style="fill:url(#b)" />
  <g
     aria-label="GZ"
     transform="matrix(1.2212657,0,0,0.81882264,0.4960938,-0.1661539)"
     id="text93"
     style="font-weight:bold;font-size:11.5263px;line-height:1.25;font-family:sans-serif;-inkscape-font-specification:'sans-serif Bold';fill:#f2f2f2;stroke-width:0.288159" />
  <g
     id="g877"
     transform="matrix(1.1,0,0,1.1,-3.1845928,-3.2065454)">
    <path
       id="path7"
       style="fill:#dfdfdf;fill-opacity:1;stroke:none;stroke-width:0.830574;stroke-dasharray:none;stroke-opacity:0.6"
       d="M 31.741168,4.7751395 C 30.998585,4.8007213 30.265655,4.9447128 29.716926,5.1992945 29.123841,5.4744542 26.937555,7.5796328 18.252553,16.244686 6.7643844,27.706458 6.7259645,27.750443 6.5329912,29.379839 l -0.087943,0.736246 H 16.576596 26.708145 l 0.03791,-4.826107 0.03968,-4.826114 6.583096,4.826114 6.583097,4.826107 h 8.788373 8.78665 l -0.09477,-0.622447 C 57.379701,29.15105 57.14282,28.475489 56.906231,27.991838 56.530504,27.223631 55.100574,25.738177 45.588435,16.246406 35.124234,5.8046112 34.665705,5.369431 33.8206,5.0579078 33.23596,4.8424015 32.483768,4.7495389 31.74118,4.7751395 Z M 28.323755,24.108878 v 7.848675 c 0,6.239966 0.0371,7.827027 0.182777,7.74005 0.358501,-0.214086 10.007504,-7.283713 10.255694,-7.514174 0.235339,-0.218545 0.05458,-0.3806 -2.63807,-2.351844 -1.589919,-1.16396 -3.994902,-2.927265 -5.345093,-3.919162 z M 6.4864365,33.780062 v 0.508643 c 0,0.279113 0.139807,0.888718 0.3103577,1.355241 0.2945044,0.805553 0.8533005,1.391428 11.1022878,11.666122 5.935556,5.950426 11.074056,10.988325 11.419548,11.193668 0.345495,0.205364 0.906936,0.46455 1.246618,0.575864 0.926629,0.303823 2.54844,0.16534 3.582939,-0.305193 0.747289,-0.339891 2.083279,-1.624028 11.635076,-11.186746 C 57.362885,35.994807 57.182454,36.198134 57.425244,34.476647 l 0.09827,-0.696587 H 48.781669 40.04157 l -6.595168,4.836454 c -3.626466,2.660089 -6.625181,4.836459 -6.664136,4.836459 -0.03895,0 -0.07069,-2.17637 -0.07069,-4.836459 V 33.780062 H 16.599007 Z" />
  </g>
</svg>
