<?xml version="1.0" encoding="UTF-8" standalone="no"?>
<svg
   width="64"
   height="64"
   version="1.1"
   id="svg73"
   sodipodi:docname="com.gitlab.davem.ClamTk.svg"
   inkscape:version="1.4.2 (ebf0e940d0, 2025-05-08)"
   xmlns:inkscape="http://www.inkscape.org/namespaces/inkscape"
   xmlns:sodipodi="http://sodipodi.sourceforge.net/DTD/sodipodi-0.dtd"
   xmlns="http://www.w3.org/2000/svg"
   xmlns:svg="http://www.w3.org/2000/svg"
   xmlns:rdf="http://www.w3.org/1999/02/22-rdf-syntax-ns#"
   xmlns:cc="http://creativecommons.org/ns#"
   xmlns:dc="http://purl.org/dc/elements/1.1/">
  <metadata
     id="metadata77">
    <rdf:RDF>
      <cc:Work
         rdf:about="">
        <dc:format>image/svg+xml</dc:format>
        <dc:type
           rdf:resource="http://purl.org/dc/dcmitype/StillImage" />
      </cc:Work>
    </rdf:RDF>
  </metadata>
  <sodipodi:namedview
     pagecolor="#f5f7fa"
     bordercolor="#666666"
     borderopacity="1"
     objecttolerance="10"
     gridtolerance="10"
     guidetolerance="10"
     inkscape:pageopacity="0"
     inkscape:pageshadow="2"
     inkscape:window-width="1377"
     inkscape:window-height="886"
     id="namedview75"
     showgrid="false"
     inkscape:zoom="6.2890624"
     inkscape:cx="47.622361"
     inkscape:cy="45.396274"
     inkscape:window-x="147"
     inkscape:window-y="75"
     inkscape:window-maximized="0"
     inkscape:current-layer="g877"
     inkscape:document-rotation="0"
     inkscape:pagecheckerboard="0"
     inkscape:showpageshadow="2"
     inkscape:deskcolor="#d1d1d1" />
  <defs
     id="defs29">
    <linearGradient
       id="b"
       x1="399.57"
       x2="399.57"
       y1="545.8"
       y2="517.8"
       gradientTransform="matrix(2.1429,0,0,2.1429,-825.86391,-1107.6662)"
       gradientUnits="userSpaceOnUse">
      <stop
         stop-color="#3889e9"
         offset="0"
         id="stop2" />
      <stop
         stop-color="#5ea5fb"
         offset="1"
         id="stop4" />
    </linearGradient>
  </defs>
  <circle
     cx="32.516094"
     cy="31.877844"
     r="0"
     fill="url(#b)"
     stroke-width="1.5715"
     id="circle41"
     style="fill:url(#b)" />
  <g
     aria-label="GZ"
     transform="matrix(1.2212657,0,0,0.81882264,0.4960938,-0.1661539)"
     id="text93"
     style="font-weight:bold;font-size:11.5263px;line-height:1.25;font-family:sans-serif;-inkscape-font-specification:'sans-serif Bold';fill:#f2f2f2;stroke-width:0.288159" />
  <g
     id="g877"
     transform="matrix(1.1,0,0,1.1,-3.1845928,-3.2065454)">
    <path
       id="path2-1"
       style="fill:#dfdfdf;fill-opacity:1;stroke:none;stroke-width:0.878917;stroke-dasharray:none;stroke-opacity:0.6"
       d="m 52.209552,3.7273625 -0.39151,1.5139472 c -0.785923,3.0216065 -2.753383,6.5438493 -4.972973,8.9052933 l -1.147233,1.219088 -2.116051,-1.117502 c -3.781366,-1.99771 -7.538577,-2.953561 -11.598685,-2.953561 -4.400994,0 -8.608009,1.142679 -12.475832,3.389657 l -1.18192,0.68636 -0.90193,-0.879628 C 16.254589,13.35091 14.762249,11.329864 13.867746,9.679087 13.102803,8.2674042 11.921021,5.0810254 11.897882,4.3666378 c -0.01346,-0.4236613 -0.02047,-0.4251121 -0.188324,-0.034739 -0.276081,0.642495 -0.22585,3.470398 0.09665,5.4586381 0.407466,2.5122331 0.93118,4.1026971 2.116058,6.4299461 l 1.010951,1.984781 -1.238905,1.323159 c -5.7652945,6.163114 -7.7720995,15.825779 -5.0052022,24.08442 2.8174022,8.409389 10.1912962,14.805111 18.8760452,16.373454 2.172877,0.392292 6.461522,0.398693 8.677327,0.01265 C 49.18707,57.741446 58.096305,45.448588 56.275657,32.358692 55.638277,27.776019 53.263565,22.726045 50.207482,19.459091 l -1.172023,-1.251301 1.00104,-1.994642 c 0.549813,-1.097621 1.23465,-2.81237 1.52139,-3.810889 0.633827,-2.207213 1.022219,-5.8042317 0.807776,-7.4631994 z M 49.32042,33.684218 c 0.242019,0 0.954335,1.923814 1.144743,3.092323 0.647649,3.973964 -2.329728,8.15224 -6.479497,9.09608 -3.545275,0.806358 -6.7031,-0.08412 -8.969717,-2.532328 -0.629842,-0.680314 -1.069572,-1.310941 -0.978737,-1.399979 0.211312,-0.20711 5.229259,-2.985781 7.730797,-4.281669 1.054,-0.546008 3.155255,-1.662696 4.670701,-2.482775 1.515439,-0.820078 2.812184,-1.491652 2.88171,-1.491652 z m -34.773751,0.09167 c 0.103499,-0.06399 1.755581,0.731565 3.669651,1.766687 1.914083,1.035125 3.750614,2.000663 4.083453,2.145796 0.332849,0.145093 1.604297,0.834196 2.824716,1.531289 1.220414,0.697095 2.833879,1.604086 3.585408,2.014464 l 1.367761,0.745825 -0.413796,0.577296 c -1.076977,1.512503 -3.031403,2.798348 -5.094402,3.347553 -2.045906,0.544679 -4.706287,0.247216 -6.647995,-0.743341 -1.247165,-0.63623 -3.044892,-2.446644 -3.634964,-3.65973 -0.696521,-1.431898 -1.029312,-3.166576 -0.85485,-4.452636 0.155495,-1.14631 0.817085,-3.08907 1.115018,-3.273203 z m 27.23869,4.135483 c -0.175208,0.0062 -0.483736,0.172531 -1.147229,0.540162 l -1.229003,0.678921 0.391507,1.159611 c 0.291244,0.86266 0.372757,1.558298 0.319643,2.728092 -0.06194,1.364433 -0.03571,1.523688 0.205655,1.211665 1.044381,-1.350966 2.145438,-5.205579 1.732005,-6.065713 -0.07961,-0.165536 -0.136265,-0.257592 -0.272518,-0.252743 z m -19.780448,0.0076 c -0.306258,0 -0.254333,1.559433 0.09911,2.916386 0.169893,0.652222 0.601797,1.736857 0.95892,2.408455 l 0.649192,1.221573 0.118906,-1.910417 c 0.06577,-1.050842 0.267362,-2.253965 0.446013,-2.67106 l 0.324582,-0.758114 -1.194307,-0.602108 C 22.750043,38.191819 22.119005,37.91903 22.004889,37.91903 Z" />
  </g>
</svg>
