<?xml version="1.0" encoding="UTF-8" standalone="no"?>
<svg
   width="64"
   height="64"
   version="1.1"
   id="svg73"
   sodipodi:docname="com.alientrap.nexuiz-classic.svg"
   inkscape:version="1.4.2 (ebf0e940d0, 2025-05-08)"
   xmlns:inkscape="http://www.inkscape.org/namespaces/inkscape"
   xmlns:sodipodi="http://sodipodi.sourceforge.net/DTD/sodipodi-0.dtd"
   xmlns="http://www.w3.org/2000/svg"
   xmlns:svg="http://www.w3.org/2000/svg"
   xmlns:rdf="http://www.w3.org/1999/02/22-rdf-syntax-ns#"
   xmlns:cc="http://creativecommons.org/ns#"
   xmlns:dc="http://purl.org/dc/elements/1.1/">
  <metadata
     id="metadata77">
    <rdf:RDF>
      <cc:Work
         rdf:about="">
        <dc:format>image/svg+xml</dc:format>
        <dc:type
           rdf:resource="http://purl.org/dc/dcmitype/StillImage" />
      </cc:Work>
    </rdf:RDF>
  </metadata>
  <sodipodi:namedview
     pagecolor="#f5f7fa"
     bordercolor="#666666"
     borderopacity="1"
     objecttolerance="10"
     gridtolerance="10"
     guidetolerance="10"
     inkscape:pageopacity="0"
     inkscape:pageshadow="2"
     inkscape:window-width="1377"
     inkscape:window-height="886"
     id="namedview75"
     showgrid="false"
     inkscape:zoom="6.2890624"
     inkscape:cx="47.622361"
     inkscape:cy="45.396274"
     inkscape:window-x="28"
     inkscape:window-y="57"
     inkscape:window-maximized="0"
     inkscape:current-layer="g877"
     inkscape:document-rotation="0"
     inkscape:pagecheckerboard="0"
     inkscape:showpageshadow="2"
     inkscape:deskcolor="#d1d1d1" />
  <defs
     id="defs29" />
  <circle
     cx="32.516094"
     cy="31.877844"
     r="0"
     fill="url(#b)"
     stroke-width="1.5715"
     id="circle41"
     style="fill:url(#b)" />
  <g
     aria-label="GZ"
     transform="matrix(1.2212657,0,0,0.81882264,0.4960938,-0.1661539)"
     id="text93"
     style="font-weight:bold;font-size:11.5263px;line-height:1.25;font-family:sans-serif;-inkscape-font-specification:'sans-serif Bold';fill:#f2f2f2;stroke-width:0.288159" />
  <g
     id="g877"
     transform="matrix(1.1,0,0,1.1,-3.1845928,-3.2065454)">
    <path
       style="fill:#dfdfdf;fill-opacity:1;stroke:none;stroke-width:0.861425;stroke-dasharray:none;stroke-opacity:0.6"
       d="m 23.668991,5.1528202 c -0.164736,0.00413 -0.34101,0.051829 -0.509137,0.1632311 -0.168068,0.1115511 -0.305997,0.3156984 -0.339386,0.4897182 -0.0668,0.3480251 0.01481,0.5145997 0.169642,0.8161922 0.713899,1.2373453 1.419599,2.2026921 1.697013,2.9383369 0.476513,1.0200304 0.469758,1.9679794 0.339386,2.6118324 l -0.848476,3.917787 c -4.284085,0.954283 -8.418983,1.91877 -12.557927,3.264917 -0.805603,0.247858 -1.419316,0.497373 -2.0364028,0.816217 -0.056166,-0.0088 -0.1135222,-0.0088 -0.1696805,0 -0.2168441,0.124195 -0.2269861,0.307155 -0.339394,0.489713 -0.056166,0.09128 -0.1540924,0.197662 -0.1696948,0.326493 -0.015466,0.128815 0.04796,0.339143 0.1696948,0.489729 0.3614402,0.47906 0.8473256,0.677046 1.5272923,0.979451 0.679962,0.302367 1.461007,0.614196 2.0364,0.816185 2.878561,1.010519 6.580355,1.827458 9.503068,2.122125 -0.787078,3.41585 -1.547576,6.792217 -2.715187,10.120783 -0.284281,0.810358 -0.64664,1.654424 -1.018204,2.448589 -1.067171,2.281036 -2.420724,4.36361 -3.733534,6.366276 -1.38659,1.870162 -2.55501,3.693276 -4.072865,5.386826 -0.283133,0.288431 -0.7401249,0.535384 -1.0182005,0.816199 -0.1390158,0.140539 -0.2381775,0.365238 -0.339394,0.489777 -0.050677,0.06251 -0.1264186,0.08751 -0.1696816,0.163196 -0.043439,0.07553 -0.016478,0.115192 0,0.326428 -0.00935,0.05383 -0.00935,0.109241 0,0.163195 0.042559,0.06632 0.100749,0.122227 0.1696816,0.163303 0.042559,0.06632 0.100716,0.122293 0.1697157,0.163305 0.056166,0.0087 0.1135222,0.0087 0.1696794,0 0.3031732,0.04404 0.5540994,-0.07496 0.8485094,-0.163305 0.294383,-0.08812 0.496909,-0.167854 0.848503,-0.32648 0.703169,-0.31735 1.610224,-0.67684 2.375796,-1.142691 1.099863,-0.669253 1.91132,-1.349792 2.545497,-1.795637 1.117633,-0.785708 3.634556,-3.039326 4.921193,-4.570664 1.478412,-1.618283 3.052555,-3.354613 4.242537,-5.55011 0.02282,-0.04208 -0.02285,-0.120794 0,-0.163269 0.08114,-0.134623 0.551272,-0.999835 0.678808,-1.305888 0.255077,-0.612113 0.42567,-1.219521 0.509115,-1.469173 L 30.286894,24.57851 43.353818,21.640168 c -0.324146,2.637443 -0.687751,5.192387 -1.018191,7.835579 -0.251845,2.178953 -0.423786,3.056507 -0.678819,5.38683 -0.0076,0.06966 0.0083,0.09087 0,0.163266 -0.144756,0.718263 -0.565685,2.736112 -0.678806,3.26491 -0.867384,4.054486 -1.799193,7.731111 -3.733533,10.936944 -0.462773,0.625379 -0.998123,1.282998 -1.527289,1.795639 -0.535205,-0.249822 -1.286064,-0.597711 -2.375795,-0.652947 -0.01874,-0.0028 -0.117309,0.0022 -0.16968,0 -0.05617,-0.009 -0.113498,-0.009 -0.169679,0 -0.0026,6.74e-4 -0.168582,0.162063 -0.16968,0.163198 -0.06897,0.04023 -0.127044,0.09688 -0.169679,0.163302 -0.07198,0.370728 0.05771,0.657348 0.169679,0.979442 0.11201,0.322132 0.203365,0.683251 0.33939,0.979451 0.98115,2.136388 2.132488,3.977677 3.224243,5.876692 0.04256,0.06632 0.100727,0.122212 0.16968,0.163302 0.04256,0.06632 0.10076,0.122212 0.169681,0.163231 0.05611,0.0087 0.113498,0.0087 0.169733,0 0.05611,0.0087 0.113498,0.0087 0.169679,0 0.06897,-0.04075 0.127044,-0.09688 0.169682,-0.163231 1.630218,-1.486367 3.544539,-3.879399 4.921205,-5.876697 2.707948,-3.907047 4.997381,-8.274946 6.618446,-13.222406 0.242224,-0.769617 0.439495,-1.54861 0.678817,-2.44859 l 5.090855,-18.772525 c 0.215259,-0.829615 0.464115,-1.751669 0.509072,-2.448592 0.0087,-0.05401 0.0087,-0.109175 0,-0.163232 -0.105369,-0.24166 -0.335833,-0.367793 -0.509072,-0.489698 -0.173366,-0.121906 -0.289901,-0.22127 -0.509078,-0.326495 -0.432805,-0.217271 -1.0128,-0.47455 -1.523527,-0.659859 -2.441123,-0.791182 -5.095781,-1.50287 -7.975482,-2.122176 -0.308705,-0.128616 -0.51652,-0.180212 -0.848333,-0.163019 -0.330509,0.01718 -0.819482,0.09702 -1.18791,0.163231 -0.736848,0.132448 -1.495672,0.379419 -2.036408,0.48973 l -6.789598,1.469011 c 0.288553,-0.868 0.758887,-2.147432 0.340489,-3.754504 C 33.443926,8.5458731 31.949245,7.4818276 30.290094,6.94202 28.876202,6.4819695 27.496941,6.0726834 26.048425,5.6359968 25.811812,5.5653328 24.747069,5.2028019 23.670785,5.14641 Z"
       id="path8-7" />
  </g>
</svg>
