<?xml version="1.0" encoding="UTF-8" standalone="no"?>
<svg
   width="64"
   height="64"
   version="1.1"
   id="svg73"
   sodipodi:docname="dbeaver.svg"
   inkscape:version="1.4.2 (ebf0e940d0, 2025-05-08)"
   xmlns:inkscape="http://www.inkscape.org/namespaces/inkscape"
   xmlns:sodipodi="http://sodipodi.sourceforge.net/DTD/sodipodi-0.dtd"
   xmlns="http://www.w3.org/2000/svg"
   xmlns:svg="http://www.w3.org/2000/svg"
   xmlns:rdf="http://www.w3.org/1999/02/22-rdf-syntax-ns#"
   xmlns:cc="http://creativecommons.org/ns#"
   xmlns:dc="http://purl.org/dc/elements/1.1/">
  <metadata
     id="metadata77">
    <rdf:RDF>
      <cc:Work
         rdf:about="">
        <dc:format>image/svg+xml</dc:format>
        <dc:type
           rdf:resource="http://purl.org/dc/dcmitype/StillImage" />
      </cc:Work>
    </rdf:RDF>
  </metadata>
  <sodipodi:namedview
     pagecolor="#f5f7fa"
     bordercolor="#666666"
     borderopacity="1"
     objecttolerance="10"
     gridtolerance="10"
     guidetolerance="10"
     inkscape:pageopacity="0"
     inkscape:pageshadow="2"
     inkscape:window-width="1377"
     inkscape:window-height="886"
     id="namedview75"
     showgrid="false"
     inkscape:zoom="6.2890624"
     inkscape:cx="46.986336"
     inkscape:cy="44.601243"
     inkscape:window-x="264"
     inkscape:window-y="75"
     inkscape:window-maximized="0"
     inkscape:current-layer="g877"
     inkscape:document-rotation="0"
     inkscape:pagecheckerboard="0"
     inkscape:showpageshadow="2"
     inkscape:deskcolor="#d1d1d1" />
  <defs
     id="defs29" />
  <circle
     cx="32.516094"
     cy="31.877844"
     r="0"
     fill="url(#b)"
     stroke-width="1.5715"
     id="circle41"
     style="fill:url(#b)" />
  <g
     aria-label="GZ"
     transform="matrix(1.2212657,0,0,0.81882264,0.4960938,-0.1661539)"
     id="text93"
     style="font-weight:bold;font-size:11.5263px;line-height:1.25;font-family:sans-serif;-inkscape-font-specification:'sans-serif Bold';fill:#f2f2f2;stroke-width:0.288159" />
  <g
     id="g877"
     transform="matrix(1.1,0,0,1.1,-3.1845928,-3.2065454)">
    <path
       style="fill:#dfdfdf;fill-opacity:1;stroke:none;stroke-width:0.837063;stroke-dasharray:none;stroke-opacity:0.6"
       d="M 17.186417,54.567821 C 11.147403,53.678119 6.3680404,51.442148 5.0630963,48.896084 3.7627905,46.35908 6.9190768,43.180268 11.90231,42.008072 c 7.968786,-1.874478 16.921763,-0.16635 25.400043,4.846194 0.865106,0.511438 1.572923,0.851169 1.572923,0.754879 0,-0.620602 -4.420236,-3.988631 -6.399786,-4.876389 -0.863089,-0.38707 -0.89142,-0.429178 -0.768737,-1.141518 0.07004,-0.406803 0.45163,-1.408187 0.847945,-2.225298 0.811726,-1.673581 1.77917,-2.652514 5.012922,-5.072462 2.241353,-1.677287 3.647956,-3.030437 4.140762,-3.983437 0.255091,-0.493287 0.08903,-0.386705 -0.787973,0.505767 -1.045266,1.063703 -2.156731,1.818576 -5.710311,3.878233 -2.148376,1.245199 -3.670093,2.715082 -4.391286,4.241699 l -0.602837,1.276078 -0.457037,-1.02918 c -0.251373,-0.566054 -0.882614,-2.570234 -1.402768,-4.453737 -1.322171,-4.787696 -1.277516,-4.358166 -0.453295,-4.36056 0.958102,-0.0025 2.817195,-0.90164 3.777183,-1.826237 0.853512,-0.822056 1.334681,-1.608221 1.604738,-2.621912 0.142135,-0.533557 0.129732,-0.572869 -0.07777,-0.246532 -0.894339,1.406382 -1.175192,1.740962 -1.970691,2.34771 -2.227127,1.698686 -5.668188,1.732861 -8.144159,0.08087 -0.508514,-0.339287 -1.759362,-1.322014 -2.779652,-2.183844 -1.020293,-0.861828 -1.965551,-1.56696 -2.100582,-1.56696 -0.179336,0 -0.19731,0.257962 -0.06668,0.956975 0.09835,0.526342 0.126498,1.041547 0.06266,1.144908 -0.211399,0.342059 -0.502569,-0.04105 -0.502569,-0.66129 0,-0.603134 -0.268055,-0.808676 -0.520962,-0.399465 -0.305544,0.494389 -0.490948,-0.07396 -0.204689,-0.627499 0.406885,-0.786831 0.397644,-0.828726 -0.18289,-0.828726 -0.682916,0 -1.015987,-0.480732 -1.015987,-1.466414 0,-0.817641 0.546636,-1.646819 1.085671,-1.646819 0.118943,0 0.216222,-0.233493 0.216222,-0.518868 0,-0.322854 0.117588,-0.518875 0.311325,-0.518875 0.18341,0 0.312793,0.191852 0.314909,0.466988 0.0016,0.256839 0.23546,0.68693 0.518874,0.955752 0.283406,0.268822 0.515291,0.607625 0.515291,0.752897 0,0.743401 1.859995,1.070486 2.935555,0.516222 0.703315,-0.362441 1.620713,-1.253103 1.960365,-1.903246 0.452637,-0.866425 0.352664,-0.926809 -0.381741,-0.230553 -0.370994,0.351726 -1.025898,0.762809 -1.455353,0.913515 -0.718391,0.252109 -0.80436,0.240395 -1.075401,-0.146556 -0.162008,-0.231318 -0.664912,-0.531534 -1.117532,-0.66714 -1.044537,-0.312951 -1.188172,-0.697229 -0.545907,-1.460518 0.280609,-0.333481 0.5102,-0.660504 0.5102,-0.726709 0,-0.154272 -1.153089,-0.753678 -1.449839,-0.753678 -0.15978,0 -0.157864,0.12574 0.0068,0.432874 0.127416,0.23808 0.1748,0.489749 0.105281,0.55927 -0.110582,0.110545 -0.48148,-0.210787 -2.169927,-1.879933 -0.88094,-0.870844 -1.15388,-3.651833 -0.446671,-4.550903 1.139823,-1.449052 6.637094,-2.8687733 11.011269,-2.8437648 1.793301,0.01023 4.499256,0.30789 3.360423,0.3696319 -0.742571,0.040249 -0.344697,0.3878985 0.635982,0.5556939 0.676385,0.115724 0.786724,0.184283 0.47509,0.295189 -0.321227,0.114309 0.05707,0.392783 1.813225,1.334779 4.92524,2.641865 6.763329,3.188263 12.984372,3.859759 2.695104,0.290905 4.560024,0.60571 5.675131,0.957974 1.833305,0.579144 2.03867,0.805967 0.463231,0.511646 -0.561077,-0.10483 -1.046415,-0.164298 -1.078571,-0.132116 -0.03222,0.03219 0.639381,0.342659 1.492294,0.690041 0.8529,0.347378 2.07383,0.978816 2.713194,1.403194 1.21807,0.808508 1.426787,1.190915 0.344559,0.631266 -1.054475,-0.545295 -1.035808,-0.376959 0.08677,0.781984 1.983543,2.04789 3.205032,5.438657 3.488562,9.683934 l 0.117806,1.764168 -0.351751,-0.933975 -0.351699,-0.93397 -0.147604,2.000289 c -0.5335,7.230238 -6.718004,14.980866 -14.945562,18.730294 -3.560296,1.622468 -7.641026,2.767608 -12.380565,3.474226 -3.646868,0.543708 -11.099752,0.707411 -13.838341,0.303891 z M 16.356218,13.351357 c 0.07055,-0.114152 0.06438,-0.310916 -0.01376,-0.437266 -0.139471,-0.22571 -0.494468,0.120153 -0.502006,0.489153 -0.0046,0.227497 0.366077,0.190199 0.515701,-0.05188 z M 29.628203,12.66068 c 0.261614,-0.743867 -0.209518,-1.666236 -0.901813,-1.765595 -0.760426,-0.109131 -0.981176,0.302901 -0.241532,0.450832 0.580123,0.116039 0.635618,0.198553 0.635618,0.94521 0,0.453492 -0.11564,0.870417 -0.259432,0.935497 -0.142721,0.06458 -0.07456,0.09482 0.151372,0.06719 0.23795,-0.02912 0.497067,-0.295506 0.615794,-0.633111 z m -7.771942,-0.753729 0.518876,-0.157716 -0.598776,-0.24219 c -0.487387,-0.197134 -0.69009,-0.182348 -1.089633,0.07946 -0.269977,0.176891 -0.490848,0.366169 -0.490848,0.420609 0,0.145898 1.061791,0.08186 1.660391,-0.100133 z"
       id="path1" />
  </g>
</svg>
