<?xml version="1.0" encoding="UTF-8" standalone="no"?>
<svg
   width="64"
   height="64"
   version="1.1"
   id="svg73"
   sodipodi:docname="de.haeckerfelix.Shortwave.svg"
   inkscape:version="1.4.2 (ebf0e940d0, 2025-05-08)"
   xmlns:inkscape="http://www.inkscape.org/namespaces/inkscape"
   xmlns:sodipodi="http://sodipodi.sourceforge.net/DTD/sodipodi-0.dtd"
   xmlns="http://www.w3.org/2000/svg"
   xmlns:svg="http://www.w3.org/2000/svg"
   xmlns:rdf="http://www.w3.org/1999/02/22-rdf-syntax-ns#"
   xmlns:cc="http://creativecommons.org/ns#"
   xmlns:dc="http://purl.org/dc/elements/1.1/">
  <metadata
     id="metadata77">
    <rdf:RDF>
      <cc:Work
         rdf:about="">
        <dc:format>image/svg+xml</dc:format>
        <dc:type
           rdf:resource="http://purl.org/dc/dcmitype/StillImage" />
      </cc:Work>
    </rdf:RDF>
  </metadata>
  <sodipodi:namedview
     pagecolor="#f5f7fa"
     bordercolor="#666666"
     borderopacity="1"
     objecttolerance="10"
     gridtolerance="10"
     guidetolerance="10"
     inkscape:pageopacity="0"
     inkscape:pageshadow="2"
     inkscape:window-width="1377"
     inkscape:window-height="886"
     id="namedview75"
     showgrid="false"
     inkscape:zoom="6.2890624"
     inkscape:cx="47.622361"
     inkscape:cy="45.396274"
     inkscape:window-x="264"
     inkscape:window-y="75"
     inkscape:window-maximized="0"
     inkscape:current-layer="g877"
     inkscape:document-rotation="0"
     inkscape:pagecheckerboard="0"
     inkscape:showpageshadow="2"
     inkscape:deskcolor="#d1d1d1" />
  <defs
     id="defs29" />
  <circle
     cx="32.516094"
     cy="31.877844"
     r="0"
     fill="url(#b)"
     stroke-width="1.5715"
     id="circle41"
     style="fill:url(#b)" />
  <g
     aria-label="GZ"
     transform="matrix(1.2212657,0,0,0.81882264,0.4960938,-0.1661539)"
     id="text93"
     style="font-weight:bold;font-size:11.5263px;line-height:1.25;font-family:sans-serif;-inkscape-font-specification:'sans-serif Bold';fill:#f2f2f2;stroke-width:0.288159" />
  <g
     id="g877"
     transform="matrix(1.1,0,0,1.1,-3.1845928,-3.2065454)">
    <path
       id="path10"
       style="fill:#dfdfdf;fill-opacity:1;stroke:none;stroke-width:0.747516;stroke-dasharray:none;stroke-opacity:0.6"
       d="M 44.28836,8.4959096 C 44.015588,8.495848 39.42185,10.176817 30.633209,13.490528 L 17.3903,18.483305 17.719717,18.85873 c 0.186841,0.212792 0.409857,0.663517 0.513459,1.036089 l 0.184026,0.658844 h 0.577862 c 0.492194,0 2.454445,-0.707752 13.228188,-4.768262 6.957353,-2.622153 12.757573,-4.865759 12.889566,-4.987257 0.615417,-0.566542 0.604538,-1.4083315 -0.02619,-1.9617767 C 44.802712,8.587071 44.588911,8.4959844 44.28792,8.4959096 Z M 15.516853,17.912803 c -0.660249,-0.0046 -1.330615,0.219985 -1.866078,0.690123 -0.416301,0.365521 -0.909163,1.285912 -0.910954,1.702293 v 0.248444 h 2.764154 c 1.520915,0 2.766332,-0.03715 2.765994,-0.08283 -0.0026,-0.297983 -0.295108,-1.036022 -0.568657,-1.43361 -0.503856,-0.732318 -1.335553,-1.118179 -2.184459,-1.124429 z m 24.544299,2.743918 v 17.429627 17.429643 l 7.825011,-0.03544 c 7.154767,-0.03237 7.868692,-0.0514 8.323752,-0.228286 0.736703,-0.287979 1.516598,-0.90381 1.890006,-1.492501 0.687889,-1.084455 0.653311,-0.269943 0.653311,-15.745747 0,-14.053014 -8.67e-4,-14.137581 -0.230087,-14.750139 -0.41748,-1.115961 -1.342769,-2.040366 -2.403416,-2.399885 -0.305654,-0.103576 -2.353895,-0.147008 -8.233574,-0.172978 z m -0.110413,0.0036 -15.900325,0.02947 -15.9021686,0.02945 -0.6956428,0.322006 C 6.5787527,21.444814 5.7671064,22.301181 5.44665,23.157662 5.2193558,23.76519 5.2184573,23.878536 5.2184573,38.08631 c 0,14.169968 0.00146,14.322152 0.2263656,14.923121 0.4408551,1.178279 1.643399,2.16618 2.8837686,2.372173 0.3276306,0.05422 7.5759805,0.10516 16.1082875,0.112204 l 15.513869,0.01264 V 38.084406 Z m -17.630232,4.66894 c 1.895675,-0.03687 3.800026,0.338083 5.533829,1.139153 0.778665,0.359771 2.694226,1.539994 2.694226,1.65997 -2e-6,0.03168 -3.619373,0.057 -8.042185,0.057 -4.662854,0 -7.996373,-0.04088 -7.935438,-0.09755 0.05773,-0.05381 0.441555,-0.326102 0.853899,-0.605458 2.033879,-1.377854 4.458368,-2.105684 6.895669,-2.153138 z m 27.229314,3.772642 c 1.341212,0.05288 2.647888,0.805724 3.305223,2.160538 0.263984,0.544183 0.305082,0.76428 0.305443,1.624997 3.12e-4,0.783637 -0.0514,1.105692 -0.23738,1.516423 -0.3301,0.724199 -1.160964,1.575567 -1.882647,1.928647 -1.03047,0.504161 -2.436516,0.463994 -3.520542,-0.101189 -0.547769,-0.28566 -1.277894,-1.087029 -1.586334,-1.740937 -0.242618,-0.514661 -0.287569,-0.760744 -0.287058,-1.602921 6.85e-4,-1.196569 0.216678,-1.756141 1.001134,-2.594842 0.794871,-0.849785 1.85902,-1.231836 2.902192,-1.190681 z m -1.818223,1.726221 c -0.108559,0.004 -0.219656,0.04388 -0.322136,0.128827 -0.222994,0.185027 -0.200589,0.733224 0.0349,0.870473 0.297429,0.173259 0.526241,0.141315 0.748991,-0.104907 0.348491,-0.385074 -0.03596,-0.909455 -0.461809,-0.894398 z m -35.858561,0.12333 h 10.640707 10.642552 l 0.349654,0.579708 c 0.430484,0.712818 1.023218,2.009454 1.023218,2.237825 0,0.14968 -1.329612,0.16929 -12.0007,0.16929 -9.943495,0 -12.000701,-0.02661 -12.000701,-0.1491 0,-0.08131 0.301793,-0.752534 0.671713,-1.492495 z M 9.8928663,36.592029 H 22.530318 35.16777 l 0.06624,0.248443 c 0.08715,0.325414 0.09035,2.337749 0.0036,2.563559 -0.06061,0.158151 -1.283236,0.174835 -12.705548,0.174835 H 9.8929059 l -0.069927,-0.513442 c -0.038764,-0.282259 -0.069905,-0.722273 -0.069905,-0.979052 0,-0.25678 0.031229,-0.69863 0.069905,-0.98089 z m 37.1743817,2.876376 c 1.360488,0 1.400478,0.04126 1.400478,1.457531 0,0.879274 -0.03338,1.081938 -0.202456,1.234856 -0.157169,0.142356 -0.42775,0.184043 -1.216446,0.184043 -1.374868,0 -1.457532,-0.08212 -1.457532,-1.439126 0,-1.36056 0.07924,-1.437289 1.475936,-1.437289 z m 4.679924,0 c 1.39667,0 1.475938,0.0767 1.475938,1.43729 0,0.848019 -0.03236,1.027999 -0.220888,1.216451 -0.189652,0.189689 -0.368985,0.222638 -1.255098,0.222638 -1.37237,0 -1.455686,-0.08291 -1.455686,-1.439131 0,-1.356199 0.08328,-1.437287 1.455686,-1.437287 z m -29.218696,2.764156 c 7.619584,0 12.000701,0.03953 12.000701,0.106744 0,0.226593 -0.47586,1.313823 -0.910955,2.079576 l -0.454553,0.800554 H 22.572638 11.979775 l -0.233723,-0.329482 c -0.27364,-0.384245 -1.218288,-2.346135 -1.218288,-2.530429 0,-0.09272 3.126237,-0.126977 12.000699,-0.126977 z m 24.467009,1.880794 c 0.788334,0 1.21325,0.116148 1.387592,0.37731 0.04523,0.06703 0.08187,0.58192 0.08273,1.144697 0.0014,0.877039 -0.02927,1.054419 -0.218985,1.244058 -0.18594,0.185959 -0.36868,0.220892 -1.146523,0.220892 -0.768595,0 -0.976199,-0.03803 -1.218282,-0.228288 -0.277651,-0.21837 -0.290698,-0.278217 -0.290698,-1.264295 0,-0.986118 0.01332,-1.045835 0.290698,-1.264303 0.235428,-0.185235 0.449331,-0.230086 1.113393,-0.230086 z m 5.232011,0.0016 c 0.425393,7.6e-4 0.513442,0.05882 0.714043,0.25952 0.260699,0.2607 0.281555,0.358764 0.281555,1.275355 0,0.940462 -0.0142,1.004724 -0.2908,1.221956 -0.241335,0.189923 -0.449172,0.228284 -1.205413,0.228284 -1.333812,0 -1.435447,-0.104698 -1.435447,-1.479609 0,-1.384225 0.0514,-1.438771 1.382081,-1.49067 0.233731,-0.0091 0.412191,-0.0142 0.55399,-0.0142 z m -29.699039,3.759846 c 4.910012,0 8.020104,0.03956 8.020104,0.10307 0,0.189183 -1.884691,1.361233 -2.876421,1.788781 -1.102422,0.475271 -2.302722,0.803776 -3.575732,0.977216 -2.312748,0.315097 -4.970648,-0.125647 -7.098099,-1.175943 -0.863312,-0.426231 -2.489945,-1.476784 -2.489945,-1.608441 0,-0.04675 3.609455,-0.08471 8.020093,-0.08471 z" />
  </g>
</svg>
