<?xml version="1.0" encoding="UTF-8" standalone="no"?>
<svg
   width="64"
   height="64"
   version="1.1"
   id="svg73"
   sodipodi:docname="deltachat-desktop.svg"
   inkscape:version="1.4.2 (ebf0e940d0, 2025-05-08)"
   xmlns:inkscape="http://www.inkscape.org/namespaces/inkscape"
   xmlns:sodipodi="http://sodipodi.sourceforge.net/DTD/sodipodi-0.dtd"
   xmlns="http://www.w3.org/2000/svg"
   xmlns:svg="http://www.w3.org/2000/svg"
   xmlns:rdf="http://www.w3.org/1999/02/22-rdf-syntax-ns#"
   xmlns:cc="http://creativecommons.org/ns#"
   xmlns:dc="http://purl.org/dc/elements/1.1/">
  <metadata
     id="metadata77">
    <rdf:RDF>
      <cc:Work
         rdf:about="">
        <dc:format>image/svg+xml</dc:format>
        <dc:type
           rdf:resource="http://purl.org/dc/dcmitype/StillImage" />
      </cc:Work>
    </rdf:RDF>
  </metadata>
  <sodipodi:namedview
     pagecolor="#f5f7fa"
     bordercolor="#666666"
     borderopacity="1"
     objecttolerance="10"
     gridtolerance="10"
     guidetolerance="10"
     inkscape:pageopacity="0"
     inkscape:pageshadow="2"
     inkscape:window-width="1377"
     inkscape:window-height="886"
     id="namedview75"
     showgrid="false"
     inkscape:zoom="6.2890624"
     inkscape:cx="47.622361"
     inkscape:cy="45.396274"
     inkscape:window-x="0"
     inkscape:window-y="53"
     inkscape:window-maximized="0"
     inkscape:current-layer="g877"
     inkscape:document-rotation="0"
     inkscape:pagecheckerboard="0"
     inkscape:showpageshadow="2"
     inkscape:deskcolor="#d1d1d1" />
  <defs
     id="defs29" />
  <circle
     cx="32.516094"
     cy="31.877844"
     r="0"
     fill="url(#b)"
     stroke-width="1.5715"
     id="circle41"
     style="fill:url(#b)" />
  <g
     aria-label="GZ"
     transform="matrix(1.2212657,0,0,0.81882264,0.4960938,-0.1661539)"
     id="text93"
     style="font-weight:bold;font-size:11.5263px;line-height:1.25;font-family:sans-serif;-inkscape-font-specification:'sans-serif Bold';fill:#f2f2f2;stroke-width:0.288159" />
  <g
     id="g877"
     transform="matrix(1.1,0,0,1.1,-3.1845928,-3.2065454)">
    <path
       id="path5-2"
       style="fill:#dfdfdf;fill-opacity:1;stroke:none;stroke-width:0.940228;stroke-dasharray:none;stroke-opacity:0.6"
       d="m 32.26706,4.0999022 c -0.9381,5.802e-4 -1.87308,0.029788 -2.478858,0.085916 -6.546245,0.6061867 -12.630304,3.4917404 -17.383171,8.2446148 -5.4149106,5.414904 -8.3324558,12.38581 -8.3324558,19.912776 0,4.461811 0.9549419,8.513875 2.9336345,12.462567 3.9295343,7.841807 11.3463823,13.26464 20.1684703,14.746243 0.68437,0.114998 1.580264,0.242121 1.990886,0.281078 1.249666,0.118727 4.134923,0.1002 5.392964,-0.03355 2.86703,-0.304034 5.026185,-0.848441 8.21144,-2.072879 3.252324,-1.250203 4.42588,-1.534532 6.345457,-1.534149 1.918605,3.71e-4 3.342261,0.326501 6.644098,1.522433 2.108014,0.76352 2.949003,1.024974 3.033182,0.940801 0.07962,-0.07964 -0.1627,-0.670704 -1.011051,-2.463234 -1.673543,-3.535703 -2.21402,-5.750139 -2.024084,-8.295366 0.116753,-1.56395 0.414184,-2.609985 1.653222,-5.806765 2.152911,-5.554397 2.490711,-7.033512 2.488607,-10.896847 -0.0032,-5.47243 -1.452819,-10.324277 -4.407273,-14.74422 C 50.769878,9.38475 43.263827,4.9434806 34.765426,4.1838856 34.14629,4.1285027 33.205151,4.0993938 32.26706,4.0999528 Z m -0.404041,7.8913298 c 2.410293,-0.02162 5.030682,0.180061 6.882223,0.57969 2.557911,0.55211 4.636834,1.922789 5.131421,3.380611 0.146396,0.431485 0.113825,1.081305 -0.07617,1.500973 -0.204487,0.45165 -0.817283,1.045186 -1.370207,1.327256 -0.34556,0.176254 -0.518944,0.208206 -1.153541,0.206896 -1.187054,-0.003 -1.849318,-0.334262 -4.229604,-2.115794 -1.544915,-1.156295 -2.567235,-1.838108 -3.34547,-2.230965 -3.063103,-1.546248 -8.120234,-0.659098 -9.148325,1.604421 -0.221701,0.488152 -0.195507,0.780487 0.136629,1.44437 0.797994,1.595085 2.983112,3.279189 8.519831,6.57188 1.47163,0.87517 3.245143,1.945644 3.942736,2.37735 3.86032,2.388963 6.296361,4.589388 7.657105,6.919305 1.634958,2.799415 1.589074,7.197938 -0.111235,10.684442 -0.767338,1.573436 -1.95314,3.008269 -3.497703,4.229655 -2.449155,1.936704 -4.651669,2.891396 -7.762503,3.366942 -1.058035,0.161707 -3.433301,0.224979 -4.391676,0.117128 -3.006594,-0.338497 -5.736387,-1.549377 -7.682516,-3.409898 -2.06982,-1.978756 -3.099732,-4.0883 -3.35718,-6.874406 -0.183614,-1.987119 0.26413,-4.428896 1.124267,-6.134672 0.808036,-1.60246 2.491184,-3.367287 4.393613,-4.608322 1.6514,-1.077275 3.299845,-1.796115 5.716971,-2.492509 1.754166,-0.505395 2.287569,-0.712548 2.287569,-0.890043 0,-0.350269 -2.113953,-2.284128 -4.346776,-3.975922 -3.735525,-2.830381 -4.77276,-4.009855 -5.039674,-5.726731 -0.245802,-1.581052 0.439688,-3.090847 1.830831,-4.034475 1.038437,-0.704375 2.580735,-1.29608 3.989586,-1.530248 1.083386,-0.180081 2.453624,-0.273888 3.8998,-0.286923 z m 1.48927,18.079989 c -0.288762,-7.33e-4 -0.653897,0.0542 -1.186723,0.161994 -2.165883,0.438382 -4.199237,1.438486 -5.57644,2.746252 -1.977174,1.877491 -2.592404,3.598148 -2.502277,6.989573 0.04698,1.76631 0.215982,2.519104 0.890046,3.931036 1.126624,2.35983 2.84786,3.976734 5.002594,4.700045 0.356034,0.119439 0.858499,0.248776 1.118415,0.286953 v -0.0018 c 1.039734,0.152514 2.181341,0.04975 3.279106,-0.296656 2.586999,-0.81539 4.469661,-2.894863 5.244618,-5.79312 0.269017,-1.006028 0.363908,-2.712504 0.208853,-3.77293 -0.293055,-2.004137 -1.097513,-3.823688 -2.474967,-5.603788 -0.728102,-0.940935 -2.793935,-2.948541 -3.275202,-3.181515 -0.226825,-0.109802 -0.439277,-0.16518 -0.728039,-0.165942 z" />
  </g>
</svg>
