<?xml version="1.0" encoding="UTF-8" standalone="no"?>
<svg
   width="64"
   height="64"
   version="1.1"
   id="svg73"
   sodipodi:docname="deluge.svg"
   inkscape:version="1.4.2 (ebf0e940d0, 2025-05-08)"
   xmlns:inkscape="http://www.inkscape.org/namespaces/inkscape"
   xmlns:sodipodi="http://sodipodi.sourceforge.net/DTD/sodipodi-0.dtd"
   xmlns="http://www.w3.org/2000/svg"
   xmlns:svg="http://www.w3.org/2000/svg"
   xmlns:rdf="http://www.w3.org/1999/02/22-rdf-syntax-ns#"
   xmlns:cc="http://creativecommons.org/ns#"
   xmlns:dc="http://purl.org/dc/elements/1.1/">
  <metadata
     id="metadata77">
    <rdf:RDF>
      <cc:Work
         rdf:about="">
        <dc:format>image/svg+xml</dc:format>
        <dc:type
           rdf:resource="http://purl.org/dc/dcmitype/StillImage" />
      </cc:Work>
    </rdf:RDF>
  </metadata>
  <sodipodi:namedview
     pagecolor="#f5f7fa"
     bordercolor="#666666"
     borderopacity="1"
     objecttolerance="10"
     gridtolerance="10"
     guidetolerance="10"
     inkscape:pageopacity="0"
     inkscape:pageshadow="2"
     inkscape:window-width="1377"
     inkscape:window-height="886"
     id="namedview75"
     showgrid="false"
     inkscape:zoom="6.2890624"
     inkscape:cx="43.170187"
     inkscape:cy="42.693168"
     inkscape:window-x="264"
     inkscape:window-y="75"
     inkscape:window-maximized="0"
     inkscape:current-layer="g877"
     inkscape:document-rotation="0"
     inkscape:pagecheckerboard="0"
     inkscape:showpageshadow="2"
     inkscape:deskcolor="#d1d1d1" />
  <defs
     id="defs29" />
  <circle
     cx="32.516094"
     cy="31.877844"
     r="0"
     fill="url(#b)"
     stroke-width="1.5715"
     id="circle41"
     style="fill:url(#b)" />
  <g
     aria-label="GZ"
     transform="matrix(1.2212657,0,0,0.81882264,0.4960938,-0.1661539)"
     id="text93"
     style="font-weight:bold;font-size:11.5263px;line-height:1.25;font-family:sans-serif;-inkscape-font-specification:'sans-serif Bold';fill:#f2f2f2;stroke-width:0.288159" />
  <g
     id="g877"
     transform="matrix(1.1,0,0,1.1,-3.1845928,-3.2065454)">
    <path
       style="fill:#dfdfdf;fill-opacity:1;stroke:none;stroke-width:0.139208"
       d="M 30.68707,59.648885 C 23.944594,59.283417 17.736268,55.825016 14.143603,50.433218 12.900454,48.567522 11.810111,45.97299 11.383039,43.864322 10.826704,41.117407 10.899143,37.929077 11.578774,35.248954 12.114172,33.137623 13.190807,30.610975 14.321957,28.811248 15.368306,27.146449 30.388087,5.587285 30.853346,5.0823582 31.397394,4.4919161 31.683916,4.32043 32.126395,4.32043 c 0.273579,0 0.390122,0.074337 0.85262,0.5437801 0.364376,0.3698542 2.974472,4.0642002 8.160166,11.5499499 4.193434,6.053387 7.906517,11.436842 8.251281,11.963226 0.805008,1.229075 1.982509,3.623341 2.438077,4.95745 0.815229,2.387384 1.130877,4.233131 1.131474,6.616528 6.05e-4,2.360444 -0.233364,3.871551 -0.922465,5.957575 -2.09348,6.337384 -7.459392,11.224149 -14.327466,13.048102 -1.231554,0.32706 -2.896235,0.599431 -4.021327,0.657942 -0.478529,0.02485 -1.085392,0.05754 -1.348583,0.0714 -0.263197,0.01406 -1.007085,-0.0024 -1.653102,-0.03753 z m 3.045185,-7.777662 c 0.934903,-0.207563 2.322927,-0.682757 3.020908,-1.034254 1.078326,-0.543047 3.017828,-1.963479 2.875418,-2.10589 -0.02528,-0.02543 -0.491117,0.07231 -1.035253,0.21683 -1.237167,0.328574 -2.882865,0.598276 -4.076182,0.668118 -1.341882,0.07851 -3.524323,-0.08951 -4.55169,-0.350379 -3.225484,-0.819149 -5.829945,-3.179652 -6.876675,-6.232593 -1.37472,-4.009574 0.198256,-8.457827 3.835187,-10.845598 1.23577,-0.811322 2.385678,-1.245374 4.231481,-1.597233 0.931237,-0.177511 1.017638,-0.20932 0.870048,-0.320199 -0.320963,-0.241145 -1.132085,-0.614328 -1.860459,-0.855967 -0.691818,-0.229511 -0.834985,-0.245609 -2.218631,-0.249489 -1.290257,-0.0036 -1.56795,0.02137 -2.175134,0.19558 -3.092408,0.887321 -5.53478,3.500179 -6.644885,7.108725 -0.705632,2.293736 -0.725637,4.83524 -0.05546,7.047425 0.735663,2.428406 2.566823,4.807485 4.946468,6.426546 1.565379,1.065051 3.094865,1.651176 5.451617,2.08916 0.523769,0.09739 3.627873,-0.01998 4.263256,-0.160729 z m 0.786846,-5.739797 c 1.941238,-0.258461 4.53569,-0.982861 6.331056,-1.767699 2.487569,-1.087427 4.690368,-3.039835 5.714827,-5.065226 0.816422,-1.614105 0.923487,-3.260718 0.343489,-5.282656 C 46.640647,33.082207 45.792808,31.306622 45.026227,30.073989 44.044014,28.494617 32.07233,10.194188 32.008982,10.175264 c -0.061,-0.01823 -12.19757,18.516846 -12.19757,18.628121 0,0.03302 0.264283,-0.152387 0.587292,-0.41203 1.806221,-1.45185 3.943253,-2.410786 6.136535,-2.753616 0.899023,-0.140509 2.775806,-0.120782 3.695783,0.0388 2.000543,0.347132 4.229481,1.409772 5.14955,2.455026 1.290235,1.465779 1.198021,3.645658 -0.210566,4.977837 -0.726797,0.687387 -1.375529,0.952287 -2.688438,1.097779 -0.599489,0.06643 -1.282182,0.177869 -1.517083,0.247629 -3.54034,1.051369 -5.291857,5.040116 -3.673385,8.365434 0.69087,1.419465 2.005868,2.574026 3.468025,3.0449 1.160766,0.37382 2.330221,0.456614 3.759976,0.266258 z"
       id="path10" />
  </g>
</svg>
