<?xml version="1.0" encoding="UTF-8" standalone="no"?>
<svg
   width="64"
   height="64"
   version="1.1"
   id="svg73"
   sodipodi:docname="designer.svg"
   inkscape:version="1.4.2 (ebf0e940d0, 2025-05-08)"
   xmlns:inkscape="http://www.inkscape.org/namespaces/inkscape"
   xmlns:sodipodi="http://sodipodi.sourceforge.net/DTD/sodipodi-0.dtd"
   xmlns="http://www.w3.org/2000/svg"
   xmlns:svg="http://www.w3.org/2000/svg"
   xmlns:rdf="http://www.w3.org/1999/02/22-rdf-syntax-ns#"
   xmlns:cc="http://creativecommons.org/ns#"
   xmlns:dc="http://purl.org/dc/elements/1.1/">
  <metadata
     id="metadata77">
    <rdf:RDF>
      <cc:Work
         rdf:about="">
        <dc:format>image/svg+xml</dc:format>
        <dc:type
           rdf:resource="http://purl.org/dc/dcmitype/StillImage" />
      </cc:Work>
    </rdf:RDF>
  </metadata>
  <sodipodi:namedview
     pagecolor="#f5f7fa"
     bordercolor="#666666"
     borderopacity="1"
     objecttolerance="10"
     gridtolerance="10"
     guidetolerance="10"
     inkscape:pageopacity="0"
     inkscape:pageshadow="2"
     inkscape:window-width="1377"
     inkscape:window-height="886"
     id="namedview75"
     showgrid="false"
     inkscape:zoom="6.2890624"
     inkscape:cx="46.986336"
     inkscape:cy="44.601243"
     inkscape:window-x="264"
     inkscape:window-y="75"
     inkscape:window-maximized="0"
     inkscape:current-layer="g877"
     inkscape:document-rotation="0"
     inkscape:pagecheckerboard="0"
     inkscape:showpageshadow="2"
     inkscape:deskcolor="#d1d1d1" />
  <defs
     id="defs29" />
  <circle
     cx="32.516094"
     cy="31.877844"
     r="0"
     fill="url(#b)"
     stroke-width="1.5715"
     id="circle41"
     style="fill:url(#b)" />
  <g
     aria-label="GZ"
     transform="matrix(1.2212657,0,0,0.81882264,0.4960938,-0.1661539)"
     id="text93"
     style="font-weight:bold;font-size:11.5263px;line-height:1.25;font-family:sans-serif;-inkscape-font-specification:'sans-serif Bold';fill:#f2f2f2;stroke-width:0.288159" />
  <g
     id="g877"
     transform="matrix(1.1,0,0,1.1,-3.1845928,-3.2065454)">
    <path
       style="fill:#dfdfdf;fill-opacity:1;stroke:none;stroke-width:0.71192;stroke-dasharray:none;stroke-opacity:0.6"
       d="m 4.6312302,7.3866644 c 0.3572032,0 0,0.2770138 0,0 z m 0,0 v 8.2064296 c 0,-0.277021 0.3572032,0 0,0 H 10.10218 V 48.418813 H 4.6312302 c 0.3572032,0 0,0.277122 0,0 v 8.206423 c 0,-0.277122 0.3572032,0 0,0 H 23.779566 c -0.357244,0 0,-0.277122 0,0 v -8.206423 c 0,0.277122 -0.357244,0 0,0 H 18.308614 V 15.593094 h 5.470952 c -0.357244,0 0,-0.277021 0,0 V 7.3866656 c 0,0.2770126 -0.357244,0 0,0 z m 24.6192898,0 c 0.476278,0 0,0.612362 0,0 z m 0,0 v 8.2064296 c 0,-0.612361 0.476278,0 0,0 h 19.148342 c -0.476366,0 0,-0.612361 0,0 V 7.3866656 c 0,0.6123608 -0.476366,0 0,0 z M 42.927904,21.064049 c 0.48995,0 0,0.612353 0,0 z m 0,0 v 8.206431 c 0,-0.612364 0.48995,0 0,0 h 16.412853 c -0.489875,0 0,-0.612364 0,0 v -8.206431 c 0,0.612353 -0.489875,0 0,0 z m 0,13.677383 c 0.48995,0 0,0.61236 0,0 z m 0,0 v 8.206436 c 0,-0.612369 0.48995,0 0,0 h 16.412853 c -0.489875,0 0,-0.612369 0,0 v -8.206436 c 0,0.61236 -0.489875,0 0,0 z M 29.25052,48.418813 c 0.476278,0 0,0.612347 0,0 z m 0,0 v 8.206423 c 0,-0.612346 0.476278,0 0,0 h 19.148342 c -0.476366,0 0,-0.612346 0,0 v -8.206423 c 0,0.612347 -0.476366,0 0,0 z"
       id="path3-2" />
  </g>
</svg>
