<?xml version="1.0" encoding="UTF-8" standalone="no"?>
<svg
   width="64"
   height="64"
   version="1.1"
   id="svg73"
   sodipodi:docname="dialog-information.svg"
   inkscape:version="1.4.2 (ebf0e940d0, 2025-05-08)"
   xmlns:inkscape="http://www.inkscape.org/namespaces/inkscape"
   xmlns:sodipodi="http://sodipodi.sourceforge.net/DTD/sodipodi-0.dtd"
   xmlns="http://www.w3.org/2000/svg"
   xmlns:svg="http://www.w3.org/2000/svg"
   xmlns:rdf="http://www.w3.org/1999/02/22-rdf-syntax-ns#"
   xmlns:cc="http://creativecommons.org/ns#"
   xmlns:dc="http://purl.org/dc/elements/1.1/">
  <metadata
     id="metadata77">
    <rdf:RDF>
      <cc:Work
         rdf:about="">
        <dc:format>image/svg+xml</dc:format>
        <dc:type
           rdf:resource="http://purl.org/dc/dcmitype/StillImage" />
      </cc:Work>
    </rdf:RDF>
  </metadata>
  <sodipodi:namedview
     pagecolor="#f5f7fa"
     bordercolor="#666666"
     borderopacity="1"
     objecttolerance="10"
     gridtolerance="10"
     guidetolerance="10"
     inkscape:pageopacity="0"
     inkscape:pageshadow="2"
     inkscape:window-width="1377"
     inkscape:window-height="886"
     id="namedview75"
     showgrid="false"
     inkscape:zoom="6.2890624"
     inkscape:cx="46.986336"
     inkscape:cy="44.601243"
     inkscape:window-x="264"
     inkscape:window-y="75"
     inkscape:window-maximized="0"
     inkscape:current-layer="g877"
     inkscape:document-rotation="0"
     inkscape:pagecheckerboard="0"
     inkscape:showpageshadow="2"
     inkscape:deskcolor="#d1d1d1" />
  <defs
     id="defs29" />
  <circle
     cx="32.516094"
     cy="31.877844"
     r="0"
     fill="url(#b)"
     stroke-width="1.5715"
     id="circle41"
     style="fill:url(#b)" />
  <g
     aria-label="GZ"
     transform="matrix(1.2212657,0,0,0.81882264,0.4960938,-0.1661539)"
     id="text93"
     style="font-weight:bold;font-size:11.5263px;line-height:1.25;font-family:sans-serif;-inkscape-font-specification:'sans-serif Bold';fill:#f2f2f2;stroke-width:0.288159" />
  <g
     id="g877"
     transform="matrix(1.1,0,0,1.1,-3.1845928,-3.2065454)">
    <path
       d="m 38.538415,55.796281 v 2.054309 c 0,1.126833 -0.929638,2.054301 -2.056473,2.054301 h -8.221573 c -1.126838,0 -2.054306,-0.927468 -2.054306,-2.054301 V 55.796281 Z M 32.37115,18.799219 c -7.892182,0 -14.386659,6.494481 -14.386659,14.386666 0,4.890902 2.444365,9.18806 6.165095,11.797102 v 4.646038 c 0,1.126821 0.92747,2.054308 2.056477,2.054308 h 12.332352 c 1.126839,0 2.054317,-0.927487 2.054317,-2.054308 v -4.646038 c 3.720717,-2.609042 6.165085,-6.9062 6.165085,-11.797102 0,-7.892185 -6.494467,-14.386666 -14.386667,-14.386666 z m 25.427502,20.014346 -4.828068,-1.5689 c -1.1485,-0.370567 -2.377188,0.255698 -2.74991,1.40204 -0.372711,1.144175 0.255646,2.37503 1.39987,2.749914 l 4.830244,1.566741 c 0.223235,0.07375 0.448629,0.108251 0.673888,0.108251 0.918809,0 1.772585,-0.587323 2.075963,-1.508231 0.370495,-1.148506 -0.257862,-2.377193 -1.402042,-2.749917 z m -46.794049,-1.5689 -4.8323944,1.566736 c -1.1441701,0.370556 -1.7725963,1.601407 -1.3998751,2.749919 0.2990531,0.920964 1.1550086,1.508222 2.0738136,1.508222 0.2231966,0 0.4507299,-0.03488 0.676096,-0.108372 l 4.8302319,-1.564552 c 1.144175,-0.374887 1.772599,-1.603582 1.399875,-2.749919 -0.368387,-1.146334 -1.590568,-1.772591 -2.747747,-1.402034 z m 41.292051,-8.938846 c 0.223236,0 0.448629,-0.03685 0.673894,-0.10835 l 4.828096,-1.568899 c 1.14416,-0.372719 1.772604,-1.603578 1.402045,-2.749915 -0.374889,-1.144169 -1.610071,-1.770431 -2.749915,-1.399877 l -4.83023,1.568904 c -1.144174,0.372721 -1.772608,1.603572 -1.399873,2.747747 0.299083,0.923135 1.155012,1.510395 2.075971,1.510395 z M 12.354643,24.047677 7.5244138,22.476606 c -1.1550043,-0.372719 -2.3771895,0.253542 -2.7499134,1.399879 -0.372724,1.146342 0.2535422,2.377189 1.3977082,2.749912 l 4.8302294,1.571069 c 0.225372,0.07148 0.450725,0.106172 0.676097,0.106172 0.920975,0 1.774767,-0.585089 2.073815,-1.508224 0.37272,-1.144168 -0.253532,-2.37502 -1.397707,-2.747745 z m 5.313466,-7.320102 c 0.426887,0.589416 1.092162,0.899303 1.768269,0.899303 0.444222,0 0.892799,-0.134347 1.280695,-0.416066 0.972978,-0.706434 1.189674,-2.071642 0.485402,-3.046788 L 18.218524,10.055405 C 17.507749,9.0824229 16.146878,8.8613933 15.1674,9.5721616 14.19442,10.278603 13.977722,11.643808 14.686325,12.618956 Z m 28.088568,-6.67217 c 0.710769,-0.9751469 2.067308,-1.1961776 3.048961,-0.4832379 0.972967,0.7064359 1.19183,2.0716499 0.483252,3.0467919 l -2.983959,4.108625 c -0.426874,0.589407 -1.092161,0.899296 -1.768259,0.899296 -0.442156,0 -0.892803,-0.134331 -1.280702,-0.416061 -0.972962,-0.706441 -1.189663,-2.071649 -0.483254,-3.046795 z m -13.771245,3.493194 c 1.207011,0 2.184329,-0.979485 2.184329,-2.182167 V 6.2913359 c 0,-1.2070133 -0.977318,-2.1843253 -2.184329,-2.1843253 -1.204848,0 -2.182161,0.977312 -2.182161,2.1843253 v 5.0750961 c 0,1.202682 0.977313,2.182167 2.182161,2.182167 z"
       fill="url(#b)"
       fill-rule="nonzero"
       id="path4"
       style="fill:#dfdfdf;fill-opacity:1;stroke:none;stroke-width:0.922862;stroke-dasharray:none;stroke-opacity:0.6" />
  </g>
</svg>
