<?xml version="1.0" encoding="UTF-8" standalone="no"?>
<svg
   width="64"
   height="64"
   version="1.1"
   id="svg73"
   sodipodi:docname="digikam.svg"
   inkscape:version="1.4.2 (ebf0e940d0, 2025-05-08)"
   xmlns:inkscape="http://www.inkscape.org/namespaces/inkscape"
   xmlns:sodipodi="http://sodipodi.sourceforge.net/DTD/sodipodi-0.dtd"
   xmlns="http://www.w3.org/2000/svg"
   xmlns:svg="http://www.w3.org/2000/svg"
   xmlns:rdf="http://www.w3.org/1999/02/22-rdf-syntax-ns#"
   xmlns:cc="http://creativecommons.org/ns#"
   xmlns:dc="http://purl.org/dc/elements/1.1/">
  <metadata
     id="metadata77">
    <rdf:RDF>
      <cc:Work
         rdf:about="">
        <dc:format>image/svg+xml</dc:format>
        <dc:type
           rdf:resource="http://purl.org/dc/dcmitype/StillImage" />
      </cc:Work>
    </rdf:RDF>
  </metadata>
  <sodipodi:namedview
     pagecolor="#f5f7fa"
     bordercolor="#666666"
     borderopacity="1"
     objecttolerance="10"
     gridtolerance="10"
     guidetolerance="10"
     inkscape:pageopacity="0"
     inkscape:pageshadow="2"
     inkscape:window-width="1377"
     inkscape:window-height="886"
     id="namedview75"
     showgrid="false"
     inkscape:zoom="6.2890624"
     inkscape:cx="47.622361"
     inkscape:cy="45.396274"
     inkscape:window-x="86"
     inkscape:window-y="56"
     inkscape:window-maximized="0"
     inkscape:current-layer="g877"
     inkscape:document-rotation="0"
     inkscape:pagecheckerboard="0"
     inkscape:showpageshadow="2"
     inkscape:deskcolor="#d1d1d1" />
  <defs
     id="defs29" />
  <circle
     cx="32.516094"
     cy="31.877844"
     r="0"
     fill="url(#b)"
     stroke-width="1.5715"
     id="circle41"
     style="fill:url(#b)" />
  <g
     aria-label="GZ"
     transform="matrix(1.2212657,0,0,0.81882264,0.4960938,-0.1661539)"
     id="text93"
     style="font-weight:bold;font-size:11.5263px;line-height:1.25;font-family:sans-serif;-inkscape-font-specification:'sans-serif Bold';fill:#f2f2f2;stroke-width:0.288159" />
  <g
     id="g877"
     transform="matrix(1.1,0,0,1.1,-3.1845928,-3.2065454)">
    <path
       style="fill:#dfdfdf;fill-opacity:1;stroke-width:1.55058"
       d="M 31.985998,5.6463598 C 25.764662,5.6573708 19.747642,7.8680679 14.999437,11.887988 L 23.930331,27.354274 36.243996,6.0249131 C 34.837258,5.7836548 33.413241,5.6570574 31.985998,5.6463598 Z m 8.92787,1.5929601 -8.92787,15.4632581 H 56.63454 C 53.905609,15.498632 48.16189,9.8489534 40.913868,7.2393199 Z M 11.607571,15.313163 c -3.8615917,4.706602 -5.9749632,10.604785 -5.9811874,16.692804 0.00351,1.560058 0.145298,3.116737 0.4240021,4.651699 H 23.930346 Z M 40.041668,27.354274 52.36442,48.698786 c 3.861599,-4.706597 5.974974,-10.604797 5.981184,-16.692819 -0.0035,-1.560054 -0.145298,-3.116729 -0.424056,-4.651693 z m 0,9.303392 -12.313666,21.329376 c 1.406741,0.241191 2.830757,0.367793 4.257996,0.378502 6.22134,-0.01162 12.238372,-2.221717 16.986573,-6.241644 z M 7.3374615,41.309371 c 2.7289345,7.203948 8.4726605,12.853626 15.7206725,15.463255 l 8.927864,-15.463255 z"
       id="path3-7" />
  </g>
</svg>
