<?xml version="1.0" encoding="UTF-8" standalone="no"?>
<svg
   width="64"
   height="64"
   version="1.1"
   id="svg73"
   sodipodi:docname="display-im6.Q16.svg"
   inkscape:version="1.4.2 (ebf0e940d0, 2025-05-08)"
   xmlns:inkscape="http://www.inkscape.org/namespaces/inkscape"
   xmlns:sodipodi="http://sodipodi.sourceforge.net/DTD/sodipodi-0.dtd"
   xmlns="http://www.w3.org/2000/svg"
   xmlns:svg="http://www.w3.org/2000/svg"
   xmlns:rdf="http://www.w3.org/1999/02/22-rdf-syntax-ns#"
   xmlns:cc="http://creativecommons.org/ns#"
   xmlns:dc="http://purl.org/dc/elements/1.1/">
  <metadata
     id="metadata77">
    <rdf:RDF>
      <cc:Work
         rdf:about="">
        <dc:format>image/svg+xml</dc:format>
        <dc:type
           rdf:resource="http://purl.org/dc/dcmitype/StillImage" />
      </cc:Work>
    </rdf:RDF>
  </metadata>
  <sodipodi:namedview
     pagecolor="#f5f7fa"
     bordercolor="#666666"
     borderopacity="1"
     objecttolerance="10"
     gridtolerance="10"
     guidetolerance="10"
     inkscape:pageopacity="0"
     inkscape:pageshadow="2"
     inkscape:window-width="1377"
     inkscape:window-height="886"
     id="namedview75"
     showgrid="false"
     inkscape:zoom="6.2890624"
     inkscape:cx="46.986336"
     inkscape:cy="44.601243"
     inkscape:window-x="264"
     inkscape:window-y="75"
     inkscape:window-maximized="0"
     inkscape:current-layer="g877"
     inkscape:document-rotation="0"
     inkscape:pagecheckerboard="0"
     inkscape:showpageshadow="2"
     inkscape:deskcolor="#d1d1d1" />
  <defs
     id="defs29" />
  <circle
     cx="32.516094"
     cy="31.877844"
     r="0"
     fill="url(#b)"
     stroke-width="1.5715"
     id="circle41"
     style="fill:url(#b)" />
  <g
     aria-label="GZ"
     transform="matrix(1.2212657,0,0,0.81882264,0.4960938,-0.1661539)"
     id="text93"
     style="font-weight:bold;font-size:11.5263px;line-height:1.25;font-family:sans-serif;-inkscape-font-specification:'sans-serif Bold';fill:#f2f2f2;stroke-width:0.288159" />
  <g
     id="g877"
     transform="matrix(1.1,0,0,1.1,-3.1845928,-3.2065454)">
    <path
       style="fill:#dfdfdf;fill-opacity:1;stroke:none;stroke-width:0.878917;stroke-dasharray:none;stroke-dashoffset:2.2;stroke-opacity:0.6"
       d="M 22.665746,59.569227 C 19.743601,59.116354 16.598379,57.928471 14.331771,56.421629 11.909041,54.811007 9.318128,51.628332 8.6596724,49.454018 8.4190716,48.659503 9.1045267,47.699702 10.97727,46.208801 c 0.98082,-0.780838 2.005383,-1.710859 2.276793,-2.066703 0.371388,-0.48691 0.754163,-1.702828 1.547127,-4.914568 1.576224,-6.384209 3.379702,-11.623718 6.279649,-18.243832 3.37671,-7.70849 5.657239,-11.1799445 8.928234,-13.5907041 2.509198,-1.8493059 4.602425,-2.6014552 8.113412,-2.9153609 5.737104,-0.5129435 8.178983,-0.03828 11.083174,2.1544234 2.703525,2.0411765 5.887943,8.2040256 6.125885,11.8555206 0.158232,2.428897 -0.368436,2.536932 -1.794411,0.368095 -0.958606,-1.457909 -1.824512,-2.288186 -2.386393,-2.288186 -1.082083,0 -2.787219,1.959944 -3.905998,4.489662 -0.793977,1.795348 -1.768384,4.755193 -2.225597,6.760508 -0.769568,3.375347 -0.537306,7.685628 0.806308,14.959077 0.709768,3.842367 0.646649,3.656668 1.340593,3.944103 0.952753,0.394649 2.609153,2.106461 2.829243,2.923898 0.525891,1.95283 -1.259295,4.130085 -4.810945,5.867823 -3.05161,1.493106 -6.678044,2.566672 -12.1501,3.59688 -2.973825,0.5599 -8.221134,0.792565 -10.368498,0.45982 z m 12.240302,-12.490913 2.063811,-1.743671 2.050786,0.686735 c 1.12793,0.377617 2.071044,0.666213 2.095797,0.641135 0.02416,-0.02537 -0.204814,-1.082455 -0.510067,-2.34972 -0.305346,-1.26725 -0.557028,-2.455855 -0.559435,-2.64133 -0.0022,-0.185437 0.516958,-1.255456 1.154067,-2.377726 0.63714,-1.122278 1.109773,-2.089152 1.050327,-2.148617 -0.05919,-0.05943 -1.121375,-0.144243 -2.359819,-0.188379 l -2.251705,-0.08026 -1.404018,-2.108824 c -0.772213,-1.159854 -1.457831,-2.055015 -1.523593,-1.98925 -0.06576,0.06576 -0.38389,1.208471 -0.70696,2.539339 l -0.587378,2.419761 -2.055573,0.895225 c -1.130565,0.49237 -2.119717,0.959372 -2.198119,1.037771 -0.07842,0.07842 0.707575,0.995849 1.746602,2.038796 l 1.889145,1.896257 -0.138297,2.609739 c -0.07602,1.435367 -0.06655,2.609062 0.02114,2.608236 0.08768,-8.28e-4 1.088177,-0.786167 2.223272,-1.745193 z m -8.106595,-4.546677 c 0.161425,-1.384927 0.334246,-2.548885 0.384027,-2.586576 0.04976,-0.03783 0.889546,-0.65579 1.866166,-1.373559 0.976618,-0.717764 1.733633,-1.373033 1.68227,-1.456157 -0.05139,-0.0831 -0.991646,-0.682745 -2.089491,-1.33251 l -1.996082,-1.181382 -0.550228,-2.584579 c -0.302631,-1.421522 -0.6086,-2.584627 -0.679942,-2.58468 -0.07135,-5.4e-5 -0.76186,0.872141 -1.534487,1.938205 l -1.404774,1.938303 -1.44166,-0.11904 c -0.792911,-0.06548 -1.854119,-0.168458 -2.358239,-0.228863 l -0.916594,-0.109824 0.409525,1.026695 c 0.225242,0.564674 0.691225,1.74973 1.03552,2.633448 l 0.625994,1.606748 -0.932122,2.412284 c -0.512655,1.326754 -0.896506,2.447897 -0.852979,2.491439 0.04361,0.04348 1.20391,-0.174552 2.578628,-0.484463 l 2.49948,-0.563644 1.498724,1.590297 c 0.824297,0.874662 1.585128,1.566836 1.69073,1.53813 0.1056,-0.02839 0.324102,-1.185284 0.485543,-2.570208 z M 39.658554,31.94387 v -2.67248 l 1.776089,-1.667189 c 0.976851,-0.916956 1.689681,-1.704418 1.58407,-1.749928 -0.105589,-0.04556 -1.135647,-0.491695 -2.288986,-0.991535 L 38.632731,23.953929 37.8447,21.590396 c -0.433423,-1.299944 -0.870276,-2.367955 -0.970787,-2.373361 -0.100474,-0.0052 -0.669248,0.867217 -1.26386,1.939155 -0.59462,1.071946 -1.136631,2.004499 -1.204479,2.072348 -0.06786,0.06787 -1.085751,0.192911 -2.262003,0.277908 -1.176255,0.08503 -2.181139,0.197044 -2.233084,0.248991 -0.08533,0.08533 0.731107,1.748723 1.91087,3.893113 l 0.44484,0.808572 -0.650478,2.509137 c -0.35777,1.380024 -0.600514,2.559109 -0.539437,2.620176 0.06109,0.06109 1.134349,-0.28704 2.385068,-0.773591 1.250721,-0.486544 2.31915,-0.884624 2.37428,-0.884624 0.0552,0 0.873048,0.600733 1.817583,1.334965 0.944532,0.73423 1.782132,1.339054 1.861332,1.344064 0.07921,0.0049 0.144038,-1.193515 0.144009,-2.663379 z"
       id="path92" />
  </g>
</svg>
