<?xml version="1.0" encoding="UTF-8" standalone="no"?>
<svg
   width="64"
   height="64"
   version="1.1"
   id="svg73"
   sodipodi:docname="dolphin-emu.svg"
   inkscape:version="1.4.2 (ebf0e940d0, 2025-05-08)"
   xmlns:inkscape="http://www.inkscape.org/namespaces/inkscape"
   xmlns:sodipodi="http://sodipodi.sourceforge.net/DTD/sodipodi-0.dtd"
   xmlns="http://www.w3.org/2000/svg"
   xmlns:svg="http://www.w3.org/2000/svg"
   xmlns:rdf="http://www.w3.org/1999/02/22-rdf-syntax-ns#"
   xmlns:cc="http://creativecommons.org/ns#"
   xmlns:dc="http://purl.org/dc/elements/1.1/">
  <metadata
     id="metadata77">
    <rdf:RDF>
      <cc:Work
         rdf:about="">
        <dc:format>image/svg+xml</dc:format>
        <dc:type
           rdf:resource="http://purl.org/dc/dcmitype/StillImage" />
      </cc:Work>
    </rdf:RDF>
  </metadata>
  <sodipodi:namedview
     pagecolor="#f5f7fa"
     bordercolor="#666666"
     borderopacity="1"
     objecttolerance="10"
     gridtolerance="10"
     guidetolerance="10"
     inkscape:pageopacity="0"
     inkscape:pageshadow="2"
     inkscape:window-width="1377"
     inkscape:window-height="886"
     id="namedview75"
     showgrid="false"
     inkscape:zoom="6.2890624"
     inkscape:cx="46.986336"
     inkscape:cy="44.601243"
     inkscape:window-x="264"
     inkscape:window-y="75"
     inkscape:window-maximized="0"
     inkscape:current-layer="g877"
     inkscape:document-rotation="0"
     inkscape:pagecheckerboard="0"
     inkscape:showpageshadow="2"
     inkscape:deskcolor="#d1d1d1" />
  <defs
     id="defs29" />
  <circle
     cx="32.516094"
     cy="31.877844"
     r="0"
     fill="url(#b)"
     stroke-width="1.5715"
     id="circle41"
     style="fill:url(#b)" />
  <g
     aria-label="GZ"
     transform="matrix(1.2212657,0,0,0.81882264,0.4960938,-0.1661539)"
     id="text93"
     style="font-weight:bold;font-size:11.5263px;line-height:1.25;font-family:sans-serif;-inkscape-font-specification:'sans-serif Bold';fill:#f2f2f2;stroke-width:0.288159" />
  <g
     id="g877"
     transform="matrix(1.1,0,0,1.1,-3.1845928,-3.2065454)">
    <path
       id="path59"
       style="fill:#dfdfdf;fill-opacity:1;stroke:none;stroke-width:0.878917;stroke-dasharray:none;stroke-opacity:0.6"
       d="m 44.439913,17.490824 c -2.087453,0.01332 -4.543001,0.511668 -6.44767,1.366437 l -2.375821,1.067747 -2.976639,-1.026543 c -7.237018,-2.497884 -16.977756,-1.276357 -22.319654,2.79811 -1.7770597,1.355431 -3.5088787,4.140685 -3.8486878,6.190175 -0.1503897,0.907023 -0.7877318,2.352004 -1.4145074,3.2101 -1.2602707,1.725394 -1.4224011,2.654768 -0.5836529,3.350867 0.4338515,0.360066 1.1018612,0.23887 3.0247025,-0.542456 2.9054146,-1.180577 7.9166406,-2.193854 10.8353836,-2.193854 2.027136,0 2.095979,0.03752 3.196372,1.77843 1.848641,2.924631 4.238648,4.130556 10.155598,5.122429 2.159481,0.362002 1.909057,-0.535156 -0.525291,-1.877994 -1.425425,-0.786294 -2.164229,-1.505502 -2.585251,-2.513148 -0.319336,-0.764289 -0.491227,-1.482827 -0.38796,-1.613637 l 0.0035,-0.0035 c 0.364776,-0.3039 6.529213,1.334472 9.929003,2.643613 1.685889,0.649184 4.132242,1.812717 5.434861,2.588681 1.261906,0.751717 2.392102,1.282777 2.568078,1.208508 l 0.0035,-0.0035 h 0.0035 l 0.0035,-0.0035 0.0035,-0.0035 C 46.743283,38.427333 41.052905,33.890198 37.323331,32.006204 31.366874,28.997287 26.08905,27.940319 18.53308,28.246776 c -2.748552,0.111453 -4.951363,0.05709 -5.119003,-0.120153 l -0.0035,-0.0035 v -0.0035 l -0.0035,-0.0035 v -0.0035 -0.0035 l -0.0035,-0.0035 c 0,-0.192092 0.701722,-1.051917 1.558705,-1.908895 2.171236,-2.171236 5.568774,-3.182637 10.667149,-3.182637 6.195042,0 11.167776,1.17853 16.435034,3.896757 4.776379,2.464893 12.253029,10.282288 16.026471,16.754329 0.903672,1.549919 1.715421,2.774271 1.88145,2.853043 l 0.0035,0.0035 h 0.0035 0.0035 0.0035 0.0035 0.0035 l 0.0035,-0.0035 0.0035,-0.0035 c 0.246869,-0.363131 -2.016255,-5.563595 -3.783939,-8.678786 -2.588529,-4.561805 -5.538731,-8.288965 -9.156515,-11.566668 -1.741983,-1.578236 -3.284094,-3.235557 -3.426397,-3.683891 -0.328472,-1.034989 0.621606,-2.1135 2.640178,-3.004105 1.907559,-0.841605 1.946037,-1.589962 0.09955,-1.936363 -0.579878,-0.10879 -1.237102,-0.158958 -1.932921,-0.154495 z" />
  </g>
</svg>
