<?xml version="1.0" encoding="UTF-8" standalone="no"?>
<svg
   width="64"
   height="64"
   version="1.1"
   id="svg73"
   sodipodi:docname="dragonplayer.svg"
   inkscape:version="1.4.2 (ebf0e940d0, 2025-05-08)"
   xmlns:inkscape="http://www.inkscape.org/namespaces/inkscape"
   xmlns:sodipodi="http://sodipodi.sourceforge.net/DTD/sodipodi-0.dtd"
   xmlns="http://www.w3.org/2000/svg"
   xmlns:svg="http://www.w3.org/2000/svg"
   xmlns:rdf="http://www.w3.org/1999/02/22-rdf-syntax-ns#"
   xmlns:cc="http://creativecommons.org/ns#"
   xmlns:dc="http://purl.org/dc/elements/1.1/">
  <metadata
     id="metadata77">
    <rdf:RDF>
      <cc:Work
         rdf:about="">
        <dc:format>image/svg+xml</dc:format>
        <dc:type
           rdf:resource="http://purl.org/dc/dcmitype/StillImage" />
      </cc:Work>
    </rdf:RDF>
  </metadata>
  <sodipodi:namedview
     pagecolor="#f5f7fa"
     bordercolor="#666666"
     borderopacity="1"
     objecttolerance="10"
     gridtolerance="10"
     guidetolerance="10"
     inkscape:pageopacity="0"
     inkscape:pageshadow="2"
     inkscape:window-width="1377"
     inkscape:window-height="886"
     id="namedview75"
     showgrid="false"
     inkscape:zoom="6.2890624"
     inkscape:cx="46.986336"
     inkscape:cy="44.601243"
     inkscape:window-x="264"
     inkscape:window-y="75"
     inkscape:window-maximized="0"
     inkscape:current-layer="g877"
     inkscape:document-rotation="0"
     inkscape:pagecheckerboard="0"
     inkscape:showpageshadow="2"
     inkscape:deskcolor="#d1d1d1" />
  <defs
     id="defs29" />
  <circle
     cx="32.516094"
     cy="31.877844"
     r="0"
     fill="url(#b)"
     stroke-width="1.5715"
     id="circle41"
     style="fill:url(#b)" />
  <g
     aria-label="GZ"
     transform="matrix(1.2212657,0,0,0.81882264,0.4960938,-0.1661539)"
     id="text93"
     style="font-weight:bold;font-size:11.5263px;line-height:1.25;font-family:sans-serif;-inkscape-font-specification:'sans-serif Bold';fill:#f2f2f2;stroke-width:0.288159" />
  <g
     id="g877"
     transform="matrix(1.1,0,0,1.1,-3.1845928,-3.2065454)">
    <path
       style="fill:#dfdfdf;fill-opacity:1;stroke:none;stroke-width:0.679559;stroke-dasharray:none;stroke-opacity:0.6"
       d="m 33.547085,58.339128 c 0.234004,-0.0349 0.425455,-0.109472 0.425455,-0.167059 0,-0.05778 -0.544906,-0.36986 -1.210905,-0.693791 -2.17629,-1.058522 -3.280188,-2.059809 -3.976305,-3.606713 -0.281008,-0.624439 -0.419137,-1.468986 -0.240285,-1.468986 0.03883,0 0.289228,0.109516 0.556365,0.243491 0.565314,0.283298 1.429777,0.428367 1.770139,0.297166 0.215898,-0.08328 0.201677,-0.136189 -0.15857,-0.58949 -0.677234,-0.852156 -0.929498,-1.742582 -0.929498,-3.280811 0,-1.346423 0.0042,-1.364947 0.590665,-2.536242 1.257361,-2.511703 3.683136,-4.454656 6.478397,-5.188953 1.079101,-0.28346 4.124733,-0.405564 5.694525,-0.228184 0.648014,0.07329 1.202489,0.10901 1.232171,0.07957 0.358537,-0.355561 -2.545891,-3.361079 -4.570389,-4.729565 -0.719288,-0.486219 -4.065329,-2.168931 -4.752176,-2.389866 -0.273726,-0.08807 -0.477796,-0.228144 -0.453497,-0.31133 0.09181,-0.314146 1.77968,-1.010146 3.242082,-1.336861 0.827998,-0.18499 1.552655,-0.382772 1.610354,-0.43953 0.180044,-0.177104 -1.447698,-1.072745 -3.048631,-1.677408 -0.996262,-0.376286 -4.537752,-1.212882 -5.146706,-1.2158 -0.475094,-0.0027 -0.855776,-0.193442 -0.698739,-0.350876 0.05779,-0.05793 1.170127,-0.124941 2.471917,-0.148925 1.773615,-0.03275 2.697917,0.01137 3.687526,0.175969 2.364528,0.393154 4.867963,1.336143 6.695264,2.521954 0.827147,0.536778 2.545352,2.068978 2.545352,2.26981 0,0.06377 -0.195357,0.11593 -0.434175,0.11593 -0.863194,0 -3.106243,0.514095 -3.398489,0.778917 -0.05592,0.05068 0.592044,0.345168 1.439991,0.654363 3.015749,1.099678 5.2956,2.443758 7.759887,4.574842 l 1.374538,1.188685 0.08788,-2.088281 c 0.139661,-3.317636 0.362823,-4.044564 1.599951,-5.214685 1.117684,-1.057047 1.868068,-1.343385 3.925906,-1.498075 0.9444,-0.071 1.776001,-0.185589 1.847995,-0.254674 0.1951,-0.187072 -0.895824,-1.098774 -3.010814,-2.516312 -1.746765,-1.170745 -2.407992,-1.566155 -5.10543,-3.053043 -1.536535,-0.846975 -1.807366,-1.219682 -1.742946,-2.39857 0.0891,-1.631163 1.159933,-3.253777 2.939875,-4.454866 0.52975,-0.357416 0.963052,-0.700593 0.963052,-0.762594 0,-0.219631 -0.744342,-0.296919 -2.745334,-0.28504 -2.174934,0.01265 -2.603037,0.05655 -3.579479,0.364501 -0.346643,0.109373 -0.661264,0.167838 -0.699116,0.129999 -0.0375,-0.03787 0.1413,-0.534242 0.39822,-1.1031 0.531667,-1.177607 0.788121,-2.267923 1.016614,-4.322785 0.10406,-0.936222 0.11691,-1.581139 0.037,-1.859297 l -0.122665,-0.425858 -0.873356,1.102219 c -1.111569,1.403155 -3.047054,3.252327 -4.302995,4.111344 -0.536866,0.367191 -2.088832,1.271181 -3.448828,2.008867 -3.915415,2.123808 -5.407497,3.151264 -7.656591,5.272383 -0.922506,0.870022 -1.404108,1.244073 -1.430694,1.111184 -0.05697,-0.284801 0.887368,-2.109193 1.573552,-3.039968 0.752652,-1.020944 2.607657,-2.96243 3.625611,-3.794643 0.999173,-0.816855 1.259101,-1.350054 1.460994,-2.99696 C 37.170636,12.391444 36.82105,9.7571632 35.805543,6.9527658 35.276361,5.4913681 35.068272,5.2951983 34.954791,6.1507625 34.590713,8.8954756 34.075512,10.1799 32.488463,12.299463 c -0.956978,1.278073 -2.332474,2.637514 -7.74888,7.65844 -3.217775,2.98282 -5.739384,5.718466 -7.175376,7.78443 -0.406494,0.584813 -0.837737,1.144449 -0.958311,1.243626 -0.199708,0.164225 -0.211293,0.140217 -0.130039,-0.269703 0.139736,-0.705049 1.294452,-3.000792 1.959545,-3.895763 1.018031,-1.369901 2.363264,-2.83041 6.18419,-6.714127 3.6396,-3.699403 4.326278,-4.495538 4.619529,-5.355921 0.207192,-0.607857 0.186914,-2.378218 -0.03949,-3.4464965 -0.352576,-1.6636591 -0.98703,-2.6250089 -0.98703,-1.4955666 0,0.645029 -0.747053,2.8944561 -1.375586,4.1419561 -0.308724,0.612802 -0.939599,1.556 -1.401922,2.095999 -0.854806,0.998426 -4.047435,4.089626 -8.856119,8.574775 -2.947027,2.748747 -4.01333,4.02362 -4.93576,5.901192 -0.753489,1.533689 -0.967234,2.574631 -0.970068,4.724174 -0.0012,0.948112 -0.03796,1.817016 -0.08171,1.930904 -0.04463,0.116378 -0.231063,0.207289 -0.425452,0.20756 -0.8749272,0.0012 -1.8454935,1.108512 -1.953079,2.22818 -0.04697,0.488606 -0.1156639,0.65101 -0.2750099,0.650062 C 7.4835407,38.260249 5.9977394,36.965256 5.31337,35.975283 4.937859,35.432104 4.5758829,35.021516 4.5089628,35.062879 c -0.066897,0.04135 -0.1209479,0.763908 -0.1199497,1.605656 0.00466,4.231439 1.622023,7.538753 4.8418955,9.9017 l 0.8509124,0.624437 0.06989,-1.290576 c 0.08304,-1.533264 0.36157,-2.254498 1.175826,-3.044717 1.178526,-1.143724 3.137498,-1.739829 5.601098,-1.704394 0.741753,0.01089 1.379367,-0.01125 1.416916,-0.0488 0.0375,-0.0375 -0.02444,-0.247547 -0.137756,-0.466586 -0.253725,-0.490681 -0.266409,-1.453448 -0.02666,-2.027186 0.402931,-0.964349 1.739432,-1.729283 3.747922,-2.145085 1.470944,-0.30452 5.678328,-0.299233 6.785081,0.0085 1.06987,0.297498 2.247619,0.819434 2.247619,0.996057 0,0.08437 -0.37507,0.138136 -0.963951,0.138136 -1.151921,0 -1.991082,0.146589 -3.000437,0.524277 -0.874593,0.327233 -0.92766,0.507586 -0.354082,1.203442 0.504114,0.611589 1.016061,1.715836 1.121519,2.419066 0.0646,0.430733 0.01045,0.70604 -0.253391,1.281787 -0.38256,0.835607 -0.845042,1.116871 -1.836547,1.116871 -1.002446,0 -1.040687,0.05717 -0.58269,0.868505 0.348584,0.617654 0.39488,0.810264 0.343557,1.429137 -0.101926,1.229389 -0.912274,1.836492 -2.302306,1.724919 l -0.841407,-0.06763 0.08882,0.476963 c 0.24218,1.300542 0.233392,1.513075 -0.08199,1.982473 -0.493155,0.734039 -1.145245,0.983527 -2.529824,0.967937 -0.901696,-0.01089 -1.400894,-0.09147 -2.127268,-0.346537 -0.703082,-0.246881 -0.949082,-0.288648 -0.949082,-0.160986 0,0.324087 1.284774,2.091455 2.115577,2.910357 1.131895,1.115659 1.908815,1.65604 3.448044,2.398215 2.440511,1.176771 5.799858,1.925428 9.03269,2.013019 1.007995,0.02773 2.024172,0.02264 2.258173,-0.01265 z M 16.92567,33.991855 c -0.130105,-0.08004 0.307007,-1.150899 0.83417,-2.043509 1.182776,-2.0027 3.49785,-4.048506 4.921827,-4.349372 l 0.42545,-0.08989 v 0.732997 c 0,1.222152 -1.026387,3.262508 -2.379776,4.730766 -0.65484,0.710419 -1.142043,0.990554 -1.940209,1.115609 -0.556145,0.08712 -1.655609,0.03011 -1.861462,-0.09665 z"
       id="path2-65" />
  </g>
</svg>
