<?xml version="1.0" encoding="UTF-8" standalone="no"?>
<svg
   width="64"
   height="64"
   version="1.1"
   id="svg73"
   sodipodi:docname="dust3d.svg"
   inkscape:version="1.4.2 (ebf0e940d0, 2025-05-08)"
   xmlns:inkscape="http://www.inkscape.org/namespaces/inkscape"
   xmlns:sodipodi="http://sodipodi.sourceforge.net/DTD/sodipodi-0.dtd"
   xmlns="http://www.w3.org/2000/svg"
   xmlns:svg="http://www.w3.org/2000/svg"
   xmlns:rdf="http://www.w3.org/1999/02/22-rdf-syntax-ns#"
   xmlns:cc="http://creativecommons.org/ns#"
   xmlns:dc="http://purl.org/dc/elements/1.1/">
  <metadata
     id="metadata77">
    <rdf:RDF>
      <cc:Work
         rdf:about="">
        <dc:format>image/svg+xml</dc:format>
        <dc:type
           rdf:resource="http://purl.org/dc/dcmitype/StillImage" />
      </cc:Work>
    </rdf:RDF>
  </metadata>
  <sodipodi:namedview
     pagecolor="#f5f7fa"
     bordercolor="#666666"
     borderopacity="1"
     objecttolerance="10"
     gridtolerance="10"
     guidetolerance="10"
     inkscape:pageopacity="0"
     inkscape:pageshadow="2"
     inkscape:window-width="1377"
     inkscape:window-height="886"
     id="namedview75"
     showgrid="false"
     inkscape:zoom="6.2890623"
     inkscape:cx="46.668324"
     inkscape:cy="46.986337"
     inkscape:window-x="264"
     inkscape:window-y="75"
     inkscape:window-maximized="0"
     inkscape:current-layer="g877"
     inkscape:document-rotation="0"
     inkscape:pagecheckerboard="0"
     inkscape:showpageshadow="2"
     inkscape:deskcolor="#d1d1d1" />
  <defs
     id="defs29" />
  <circle
     cx="32.516094"
     cy="31.877844"
     r="0"
     fill="url(#b)"
     stroke-width="1.5715"
     id="circle41"
     style="fill:url(#b)" />
  <g
     aria-label="GZ"
     transform="matrix(1.2212657,0,0,0.81882264,0.4960938,-0.1661539)"
     id="text93"
     style="font-weight:bold;font-size:11.5263px;line-height:1.25;font-family:sans-serif;-inkscape-font-specification:'sans-serif Bold';fill:#f2f2f2;stroke-width:0.288159" />
  <g
     id="g877"
     transform="matrix(1.1,0,0,1.1,-3.1845928,-3.2065454)">
    <path
       style="fill:#dfdfdf;fill-opacity:1;stroke:none;stroke-width:0.755067;stroke-dasharray:none;stroke-opacity:0.6"
       d="m 38.108332,42.9249 c -3.225248,-5.38311 -5.806758,-10.001591 -5.919429,-10.155679 -0.180936,-0.247404 -0.257884,-0.245429 -0.658918,0.01722 -1.21518,0.79519 -4.580692,1.120514 -7.042508,0.680765 -0.613168,-0.109527 -3.686546,-0.965153 -6.829731,-1.901392 L 11.94286,29.863547 9.1501305,29.99823 C 7.113953,30.096304 6.2853958,30.072939 6.0916046,29.912154 5.9454148,29.790834 5.725052,29.241301 5.6019031,28.69101 5.4110328,27.838116 5.3048349,27.675856 4.8821226,27.591319 4.1166046,27.438208 3.3934351,26.766139 3.1616028,25.992352 c -0.3512736,-1.17245 0.037787,-2.191521 1.3024381,-3.411405 0.5892057,-0.568352 1.264093,-1.347726 1.4997441,-1.731935 0.7595037,-1.2383 2.7576348,-2.885442 4.602702,-3.794206 3.155873,-1.554373 6.421958,-2.237286 12.148545,-2.540155 3.623677,-0.191651 4.310965,-0.357027 8.337172,-2.00605 2.730643,-1.11839 5.090724,-1.795349 5.725138,-1.642173 0.79048,0.190863 1.49087,0.773728 2.025083,1.685303 l 0.494391,0.843571 0.369654,-0.62099 c 0.561353,-0.94296 2.028262,-2.388845 2.870461,-2.8292854 0.441984,-0.2311474 1.110015,-0.3945645 1.621834,-0.3967304 1.632819,-0.00682 2.417696,0.9825548 2.417696,3.0479458 0,1.295713 -0.419514,3.654062 -0.963081,5.413898 l -0.381379,1.234734 0.559356,0.587696 c 0.307699,0.323242 3.19162,3.788661 6.408853,7.700952 4.76655,5.79632 8.828816,8.988525 8.731722,9.316225 -0.06556,0.221149 -0.833164,7.811844 -0.833164,7.811844 -1.955722,4.121061 -6.771521,8.195816 -6.771521,8.195816 -2.97118,2.613597 -8.518202,1.251392 -8.518202,1.251392 z"
       id="path1-9"
       sodipodi:nodetypes="ssssscsssssssssssscsscsscssssscs" />
  </g>
</svg>
