<?xml version="1.0" encoding="UTF-8" standalone="no"?>
<svg
   width="64"
   height="64"
   version="1.1"
   id="svg73"
   sodipodi:docname="Element.svg"
   inkscape:version="1.4.2 (ebf0e940d0, 2025-05-08)"
   xmlns:inkscape="http://www.inkscape.org/namespaces/inkscape"
   xmlns:sodipodi="http://sodipodi.sourceforge.net/DTD/sodipodi-0.dtd"
   xmlns="http://www.w3.org/2000/svg"
   xmlns:svg="http://www.w3.org/2000/svg"
   xmlns:rdf="http://www.w3.org/1999/02/22-rdf-syntax-ns#"
   xmlns:cc="http://creativecommons.org/ns#"
   xmlns:dc="http://purl.org/dc/elements/1.1/">
  <metadata
     id="metadata77">
    <rdf:RDF>
      <cc:Work
         rdf:about="">
        <dc:format>image/svg+xml</dc:format>
        <dc:type
           rdf:resource="http://purl.org/dc/dcmitype/StillImage" />
      </cc:Work>
    </rdf:RDF>
  </metadata>
  <sodipodi:namedview
     pagecolor="#f5f7fa"
     bordercolor="#666666"
     borderopacity="1"
     objecttolerance="10"
     gridtolerance="10"
     guidetolerance="10"
     inkscape:pageopacity="0"
     inkscape:pageshadow="2"
     inkscape:window-width="1377"
     inkscape:window-height="886"
     id="namedview75"
     showgrid="false"
     inkscape:zoom="6.2890624"
     inkscape:cx="43.170187"
     inkscape:cy="42.693168"
     inkscape:window-x="264"
     inkscape:window-y="75"
     inkscape:window-maximized="0"
     inkscape:current-layer="g877"
     inkscape:document-rotation="0"
     inkscape:pagecheckerboard="0"
     inkscape:showpageshadow="2"
     inkscape:deskcolor="#d1d1d1" />
  <defs
     id="defs29" />
  <circle
     cx="32.516094"
     cy="31.877844"
     r="0"
     fill="url(#b)"
     stroke-width="1.5715"
     id="circle41"
     style="fill:url(#b)" />
  <g
     aria-label="GZ"
     transform="matrix(1.2212657,0,0,0.81882264,0.4960938,-0.1661539)"
     id="text93"
     style="font-weight:bold;font-size:11.5263px;line-height:1.25;font-family:sans-serif;-inkscape-font-specification:'sans-serif Bold';fill:#f2f2f2;stroke-width:0.288159" />
  <g
     id="g877"
     transform="matrix(1.1,0,0,1.1,-3.1845928,-3.2065454)">
    <path
       style="fill:#dfdfdf;fill-opacity:1;stroke-width:1.3595"
       d="m 27.635798,4.8161207 c -1.801957,0 -3.261541,1.4595603 -3.261541,3.2615446 0,1.8019826 1.459584,3.2659617 3.261541,3.2659617 8.409357,0 15.227891,6.814227 15.227891,15.223473 0,1.802007 1.459539,3.261537 3.261544,3.261537 1.802011,0 3.261544,-1.45953 3.261544,-3.261537 0,-12.013214 -9.737832,-21.7509793 -21.750979,-21.7509793 z m -1.088657,9.7890443 c -12.013217,2.9e-5 -21.750976,9.737723 -21.750976,21.750981 0,1.802004 1.4595543,3.26154 3.2615423,3.26154 1.8019837,0 3.2659637,-1.459536 3.2659637,-3.26154 0,-8.409358 6.814221,-15.227899 15.22347,-15.227899 1.802003,0 3.261537,-1.459555 3.261537,-3.261544 0,-1.801979 -1.459534,-3.261538 -3.261537,-3.261538 z m 29.367145,9.78905 c -1.80201,0 -3.26597,1.459586 -3.26597,3.261541 0,8.409356 -6.814107,15.22789 -15.223472,15.22789 -1.802009,0 -3.261535,1.459539 -3.261535,3.261543 0,1.802004 1.459526,3.261545 3.261535,3.261545 12.013149,0 21.750978,-9.737834 21.750978,-21.750978 0,-1.801964 -1.459541,-3.261541 -3.261536,-3.261541 z m -38.067535,9.78905 c -1.801986,0 -3.261541,1.459529 -3.261541,3.261537 0,12.013153 9.737719,21.750979 21.750976,21.750979 1.802008,0 3.261543,-1.459543 3.261543,-3.261539 0,-1.802012 -1.459535,-3.265969 -3.261543,-3.265969 -8.409355,0 -15.227897,-6.814115 -15.227897,-15.223471 0,-1.802008 -1.459553,-3.261537 -3.261538,-3.261537 z"
       id="path3-9" />
  </g>
</svg>
