<?xml version="1.0" encoding="UTF-8" standalone="no"?>
<svg
   width="64"
   height="64"
   version="1.1"
   id="svg73"
   sodipodi:docname="falkon.svg"
   inkscape:version="1.4.2 (ebf0e940d0, 2025-05-08)"
   xmlns:inkscape="http://www.inkscape.org/namespaces/inkscape"
   xmlns:sodipodi="http://sodipodi.sourceforge.net/DTD/sodipodi-0.dtd"
   xmlns="http://www.w3.org/2000/svg"
   xmlns:svg="http://www.w3.org/2000/svg"
   xmlns:rdf="http://www.w3.org/1999/02/22-rdf-syntax-ns#"
   xmlns:cc="http://creativecommons.org/ns#"
   xmlns:dc="http://purl.org/dc/elements/1.1/">
  <metadata
     id="metadata77">
    <rdf:RDF>
      <cc:Work
         rdf:about="">
        <dc:format>image/svg+xml</dc:format>
        <dc:type
           rdf:resource="http://purl.org/dc/dcmitype/StillImage" />
      </cc:Work>
    </rdf:RDF>
  </metadata>
  <sodipodi:namedview
     pagecolor="#f5f7fa"
     bordercolor="#666666"
     borderopacity="1"
     objecttolerance="10"
     gridtolerance="10"
     guidetolerance="10"
     inkscape:pageopacity="0"
     inkscape:pageshadow="2"
     inkscape:window-width="1377"
     inkscape:window-height="886"
     id="namedview75"
     showgrid="false"
     inkscape:zoom="6.2890624"
     inkscape:cx="45.714286"
     inkscape:cy="38.559007"
     inkscape:window-x="20"
     inkscape:window-y="75"
     inkscape:window-maximized="0"
     inkscape:current-layer="g877"
     inkscape:document-rotation="0"
     inkscape:pagecheckerboard="0"
     inkscape:showpageshadow="2"
     inkscape:deskcolor="#d1d1d1" />
  <defs
     id="defs29" />
  <circle
     cx="32.516094"
     cy="31.877844"
     r="0"
     fill="url(#b)"
     stroke-width="1.5715"
     id="circle41"
     style="fill:url(#b)" />
  <g
     aria-label="GZ"
     transform="matrix(1.2212657,0,0,0.81882264,0.4960938,-0.1661539)"
     id="text93"
     style="font-weight:bold;font-size:11.5263px;line-height:1.25;font-family:sans-serif;-inkscape-font-specification:'sans-serif Bold';fill:#f2f2f2;stroke-width:0.288159" />
  <g
     id="g877"
     transform="matrix(1.1,0,0,1.1,-3.1845928,-3.2065454)">
    <path
       d="M 59.265173,23.613465 C 58.615106,20.847928 54.048112,17.944671 51.221979,18.233896 51.43958,17.200949 46.798226,13.661396 45.897493,13.110495 41.085346,10.171421 35.097025,7.2736589 29.185825,7.2158173 17.479127,7.1029243 12.361231,15.950395 9.9041927,18.335818 c -1.4929453,1.44887 -3.7791943,3.575353 -5.509036,5.407111 1.7215774,0 4.2474713,0 5.509036,0 -1.4654035,2.459786 -6.0682025,7.861391 -5.509036,13.772596 2.3523577,-3.156682 3.9582417,-3.787462 5.9001793,-4.652385 -3.5808728,10.728856 1.33043,21.179496 7.872415,23.934014 -0.77402,-3.443148 -0.862158,-9.296498 0,-11.018074 3.313688,5.605447 10.615917,9.58297 13.772597,11.018074 0,-5.853352 -0.605995,-13.11426 2.754512,-19.281629 2.176076,-3.99681 6.627378,-8.26356 11.018078,-8.26356 3.743389,0 5.897426,0 11.018077,0 0.603238,0.818096 1.377258,1.377267 2.754516,2.75452 0,-1.977744 0.179022,-3.751653 0.129467,-5.509035 -0.02769,-0.955821 -0.121174,-1.908881 -0.349821,-2.883985 z M 39.1682,21.269371 c -2.349602,0 -4.043631,-1.487435 -4.47334,-3.035475 -0.592214,-0.658337 -2.294511,-1.826246 -2.754512,-2.754518 1.178929,1.12109 9.985126,2.754518 11.018071,2.754518 0,1.468158 -0.603237,3.035475 -3.790219,3.035475 z"
       id="path1"
       style="fill:#dfdfdf;fill-opacity:1;stroke-width:2.75448" />
  </g>
</svg>
