<?xml version="1.0" encoding="UTF-8" standalone="no"?>
<svg
   width="64"
   height="64"
   version="1.1"
   id="svg73"
   sodipodi:docname="ferdi.svg"
   inkscape:version="1.4.2 (ebf0e940d0, 2025-05-08)"
   xmlns:inkscape="http://www.inkscape.org/namespaces/inkscape"
   xmlns:sodipodi="http://sodipodi.sourceforge.net/DTD/sodipodi-0.dtd"
   xmlns="http://www.w3.org/2000/svg"
   xmlns:svg="http://www.w3.org/2000/svg"
   xmlns:rdf="http://www.w3.org/1999/02/22-rdf-syntax-ns#"
   xmlns:cc="http://creativecommons.org/ns#"
   xmlns:dc="http://purl.org/dc/elements/1.1/">
  <metadata
     id="metadata77">
    <rdf:RDF>
      <cc:Work
         rdf:about="">
        <dc:format>image/svg+xml</dc:format>
        <dc:type
           rdf:resource="http://purl.org/dc/dcmitype/StillImage" />
      </cc:Work>
    </rdf:RDF>
  </metadata>
  <sodipodi:namedview
     pagecolor="#f5f7fa"
     bordercolor="#666666"
     borderopacity="1"
     objecttolerance="10"
     gridtolerance="10"
     guidetolerance="10"
     inkscape:pageopacity="0"
     inkscape:pageshadow="2"
     inkscape:window-width="1377"
     inkscape:window-height="886"
     id="namedview75"
     showgrid="false"
     inkscape:zoom="6.2890624"
     inkscape:cx="37.445963"
     inkscape:cy="34.901864"
     inkscape:window-x="1"
     inkscape:window-y="75"
     inkscape:window-maximized="0"
     inkscape:current-layer="g877"
     inkscape:document-rotation="0"
     inkscape:pagecheckerboard="0"
     inkscape:showpageshadow="2"
     inkscape:deskcolor="#d1d1d1" />
  <defs
     id="defs29" />
  <circle
     cx="32.516094"
     cy="31.877844"
     r="0"
     fill="url(#b)"
     stroke-width="1.5715"
     id="circle41"
     style="fill:url(#b)" />
  <g
     aria-label="GZ"
     transform="matrix(1.2212657,0,0,0.81882264,0.4960938,-0.1661539)"
     id="text93"
     style="font-weight:bold;font-size:11.5263px;line-height:1.25;font-family:sans-serif;-inkscape-font-specification:'sans-serif Bold';fill:#f2f2f2;stroke-width:0.288159" />
  <g
     id="g877"
     transform="matrix(1.1,0,0,1.1,-3.1845928,-3.2065454)">
    <path
       d="m 39.626857,16.313801 c -0.949197,-0.03505 -2.033241,0.343252 -3.70747,0.971965 -1.775805,0.66724 -3.600642,1.210137 -4.055974,1.210137 -0.458829,0 -1.861615,-0.434321 -3.126041,-0.970209 -3.147055,-1.339734 -4.406234,-1.518363 -5.691673,-0.807344 -0.570918,0.315232 -2.686472,2.295936 -4.70745,4.397477 -3.071753,3.194339 -3.97542,3.936884 -5.493778,4.542826 -2.388756,0.956205 -4.4009772,1.187372 -6.0541919,0.69176 -2.2433942,-0.672495 -3.4552843,0.588433 -2.4903253,2.584896 0.9211731,1.905392 4.5953683,3.632163 9.4691892,4.446506 6.765214,1.133084 11.245,0.08056 15.999735,-3.747748 0.912421,-0.733789 1.926409,-1.334472 2.25215,-1.334472 0.32398,0 1.42905,0.679496 2.455299,1.504349 2.436039,1.961436 3.62341,2.584895 6.513027,3.434269 2.054246,0.605947 2.847598,0.674239 5.738957,0.493856 6.076962,-0.381786 10.145189,-1.66372 12.287016,-3.879093 0.721528,-0.746047 0.991227,-1.320467 0.991227,-2.094537 0,-1.555141 -0.838876,-1.94392 -2.982429,-1.394021 -1.299463,0.336254 -2.020998,0.34151 -3.330962,0.04729 C 50.488322,25.693685 49.038249,24.702457 45.304515,20.692016 42.4009,17.57823 41.203013,16.371597 39.626857,16.313805 Z m -9.392138,19.13453 c -0.959698,0 -1.751287,0.791581 -1.751287,1.751287 0,0.115615 0.01237,0.229414 0.03505,0.3415 l 1.751287,8.756437 c 0.162875,0.816095 0.884398,1.406282 1.716261,1.406282 0.831855,0 1.553387,-0.590234 1.716256,-1.406282 l 1.751256,-8.75644 c 0.02279,-0.112095 0.03505,-0.225913 0.03505,-0.341502 0,-0.959708 -0.791582,-1.751288 -1.751289,-1.751288 z"
       fill="#ffffff"
       fill-opacity="0.89"
       fill-rule="nonzero"
       id="path3-3"
       style="fill:#dfdfdf;fill-opacity:1;stroke:none;stroke-width:0.902449;stroke-dasharray:none;stroke-opacity:0.6" />
  </g>
</svg>
