<?xml version="1.0" encoding="UTF-8" standalone="no"?>
<svg
   width="64"
   height="64"
   version="1.1"
   id="svg73"
   sodipodi:docname="filen.svg"
   inkscape:version="1.4.2 (ebf0e940d0, 2025-05-08)"
   xmlns:inkscape="http://www.inkscape.org/namespaces/inkscape"
   xmlns:sodipodi="http://sodipodi.sourceforge.net/DTD/sodipodi-0.dtd"
   xmlns="http://www.w3.org/2000/svg"
   xmlns:svg="http://www.w3.org/2000/svg"
   xmlns:rdf="http://www.w3.org/1999/02/22-rdf-syntax-ns#"
   xmlns:cc="http://creativecommons.org/ns#"
   xmlns:dc="http://purl.org/dc/elements/1.1/">
  <metadata
     id="metadata77">
    <rdf:RDF>
      <cc:Work
         rdf:about="">
        <dc:format>image/svg+xml</dc:format>
        <dc:type
           rdf:resource="http://purl.org/dc/dcmitype/StillImage" />
      </cc:Work>
    </rdf:RDF>
  </metadata>
  <sodipodi:namedview
     pagecolor="#f5f7fa"
     bordercolor="#666666"
     borderopacity="1"
     objecttolerance="10"
     gridtolerance="10"
     guidetolerance="10"
     inkscape:pageopacity="0"
     inkscape:pageshadow="2"
     inkscape:window-width="1377"
     inkscape:window-height="886"
     id="namedview75"
     showgrid="false"
     inkscape:zoom="6.2890624"
     inkscape:cx="43.170187"
     inkscape:cy="42.693168"
     inkscape:window-x="264"
     inkscape:window-y="75"
     inkscape:window-maximized="0"
     inkscape:current-layer="g877"
     inkscape:document-rotation="0"
     inkscape:pagecheckerboard="0"
     inkscape:showpageshadow="2"
     inkscape:deskcolor="#d1d1d1" />
  <defs
     id="defs29" />
  <circle
     cx="32.516094"
     cy="31.877844"
     r="0"
     fill="url(#b)"
     stroke-width="1.5715"
     id="circle41"
     style="fill:url(#b)" />
  <g
     aria-label="GZ"
     transform="matrix(1.2212657,0,0,0.81882264,0.4960938,-0.1661539)"
     id="text93"
     style="font-weight:bold;font-size:11.5263px;line-height:1.25;font-family:sans-serif;-inkscape-font-specification:'sans-serif Bold';fill:#f2f2f2;stroke-width:0.288159" />
  <g
     id="g877"
     transform="matrix(1.1,0,0,1.1,-3.1845928,-3.2065454)">
    <g
       id="g11"
       style="fill:#dfdfdf;fill-opacity:1"
       transform="matrix(1.1190628,0,0,1.1190628,-3.8240172,-3.80406)">
      <path
         style="fill:#dfdfdf;fill-opacity:1"
         d="M 32,7 A 25,25 0 0 0 7,32 25,25 0 0 0 32,57 25,25 0 0 0 57,32 25,25 0 0 0 32,7 Z m 0,3 A 22,22 0 0 1 54,32 22,22 0 0 1 32,54 22,22 0 0 1 10,32 22,22 0 0 1 32,10 Z"
         id="path7" />
      <path
         style="fill:#dfdfdf;fill-opacity:1"
         d="M 42,12 V 23 H 20 v 7 h 3 V 26 H 45 V 14 Z m -30,7 v 25 l 3,4 V 18 H 34 V 15 H 16 Z m 30,13 v 21 l 3,-2 V 35 h 10 v -3 z m -22,4 v 16 l 3,2 V 39 h 4 v -3 z m 15,-1 v 21 l 3,-2 V 35 Z"
         id="path8" />
      <circle
         style="fill:#dfdfdf;fill-opacity:1"
         cx="34.5"
         cy="16.5"
         r="2.5"
         id="circle8" />
      <circle
         style="fill:#dfdfdf;fill-opacity:1"
         cx="21.5"
         cy="30.5"
         r="2.5"
         id="circle9" />
      <circle
         style="fill:#dfdfdf;fill-opacity:1"
         cx="27.5"
         cy="37.5"
         r="2.5"
         id="circle10" />
      <circle
         style="fill:#dfdfdf;fill-opacity:1"
         cx="36.5"
         cy="34.5"
         r="2.5"
         id="circle11" />
    </g>
  </g>
</svg>
