<?xml version="1.0" encoding="UTF-8" standalone="no"?>
<svg
   width="64"
   height="64"
   version="1.1"
   id="svg73"
   sodipodi:docname="filelight.svg"
   inkscape:version="1.4.2 (ebf0e940d0, 2025-05-08)"
   xmlns:inkscape="http://www.inkscape.org/namespaces/inkscape"
   xmlns:sodipodi="http://sodipodi.sourceforge.net/DTD/sodipodi-0.dtd"
   xmlns="http://www.w3.org/2000/svg"
   xmlns:svg="http://www.w3.org/2000/svg"
   xmlns:rdf="http://www.w3.org/1999/02/22-rdf-syntax-ns#"
   xmlns:cc="http://creativecommons.org/ns#"
   xmlns:dc="http://purl.org/dc/elements/1.1/">
  <metadata
     id="metadata77">
    <rdf:RDF>
      <cc:Work
         rdf:about="">
        <dc:format>image/svg+xml</dc:format>
        <dc:type
           rdf:resource="http://purl.org/dc/dcmitype/StillImage" />
      </cc:Work>
    </rdf:RDF>
  </metadata>
  <sodipodi:namedview
     pagecolor="#f5f7fa"
     bordercolor="#666666"
     borderopacity="1"
     objecttolerance="10"
     gridtolerance="10"
     guidetolerance="10"
     inkscape:pageopacity="0"
     inkscape:pageshadow="2"
     inkscape:window-width="1377"
     inkscape:window-height="886"
     id="namedview75"
     showgrid="false"
     inkscape:zoom="6.2890624"
     inkscape:cx="47.622361"
     inkscape:cy="45.396274"
     inkscape:window-x="28"
     inkscape:window-y="56"
     inkscape:window-maximized="0"
     inkscape:current-layer="g877"
     inkscape:document-rotation="0"
     inkscape:pagecheckerboard="0"
     inkscape:showpageshadow="2"
     inkscape:deskcolor="#d1d1d1" />
  <defs
     id="defs29" />
  <circle
     cx="32.516094"
     cy="31.877844"
     r="0"
     fill="url(#b)"
     stroke-width="1.5715"
     id="circle41"
     style="fill:url(#b)" />
  <g
     aria-label="GZ"
     transform="matrix(1.2212657,0,0,0.81882264,0.4960938,-0.1661539)"
     id="text93"
     style="font-weight:bold;font-size:11.5263px;line-height:1.25;font-family:sans-serif;-inkscape-font-specification:'sans-serif Bold';fill:#f2f2f2;stroke-width:0.288159" />
  <g
     id="g877"
     transform="matrix(1.1,0,0,1.1,-3.1845928,-3.2065454)">
    <path
       id="path11"
       style="fill:#dfdfdf;fill-opacity:1;stroke:none;stroke-width:0.0847773;stroke-opacity:1"
       d="M 31.435029,4.1318484 30.86278,4.1577364 C 28.057249,4.292419 25.437096,4.7850314 22.914923,5.6518753 18.510712,7.1655526 14.393454,9.8799164 11.320986,13.293744 6.9432788,18.157822 4.4976476,23.998755 4.088433,30.568415 L 4.030774,31.480432 H 6.5323606 9.033948 l 0.057651,-0.826576 c 0.2917134,-4.168726 1.624417,-8.112573 3.862663,-11.425047 1.593103,-2.357695 3.871438,-4.636027 6.229133,-6.229134 3.312471,-2.238244 7.256319,-3.5709467 11.425051,-3.862659 L 31.435021,9.079365 V 6.6055888 Z m 0,6.0463296 -0.784848,0.05765 c -2.07895,0.153578 -4.386966,0.636147 -6.159594,1.287517 -1.989198,0.730951 -4.53439,2.171028 -6.15363,3.479174 -0.920534,0.743688 -2.548947,2.365515 -3.306314,3.294392 -1.372415,1.683222 -2.816999,4.224111 -3.56461,6.268874 -0.427428,1.169043 -0.925147,3.186919 -1.110711,4.498485 -0.215992,1.526604 -0.215992,4.406477 0,5.933082 0.186452,1.317748 0.685323,3.336226 1.112697,4.49849 0.742988,2.020579 2.124657,4.473224 3.465265,6.149657 0.770028,0.962919 2.378245,2.575255 3.352015,3.361934 1.727767,1.395839 4.159244,2.778527 6.227148,3.538788 1.514712,0.556932 3.670738,1.040747 5.438317,1.221985 0.992309,0.101717 2.831592,0.104643 3.900414,0.0064 2.938174,-0.27112 5.600277,-1.043494 8.146558,-2.364489 6.047604,-3.137458 10.351395,-8.988712 11.478704,-15.605617 0.151533,-0.889034 0.339681,-2.562589 0.339738,-3.032107 v -0.190955 h -2.501597 c -2.32864,0 -2.501596,0.01056 -2.501596,0.14902 0,0.443118 -0.27984,2.444908 -0.435095,3.109604 -0.732944,3.133891 -2.377914,6.025298 -4.705181,8.273418 -1.326227,1.281132 -2.556543,2.152072 -4.226281,2.990387 -6.484746,3.255852 -14.463083,1.873774 -19.543743,-3.38576 -1.782824,-1.845589 -3.062795,-3.944319 -3.854712,-6.324513 -2.671452,-8.029361 0.901519,-16.645157 8.476393,-20.43796 1.896958,-0.949825 3.964434,-1.515014 6.25298,-1.710778 l 0.657683,-0.05765 v -2.503584 z m 0.884203,6.137734 c -1.824544,-0.042 -3.67032,0.232799 -5.456206,0.846449 -1.061703,0.364814 -2.986965,1.352151 -3.864648,1.981006 -2.260586,1.619677 -3.849951,3.466211 -5.038947,5.851609 -0.6877,1.379698 -1.008945,2.262604 -1.307415,3.608331 -0.522397,2.355314 -0.522397,4.499711 0,6.855028 0.298473,1.345728 0.619715,2.228628 1.307415,3.608321 0.901139,1.807883 2.169874,3.471285 3.584484,4.701167 2.48738,2.162548 5.549547,3.53892 8.661184,3.890469 1.670878,0.188773 3.491878,0.08649 5.207835,-0.294045 1.345729,-0.298519 2.228632,-0.619689 3.608329,-1.307433 2.379467,-1.186048 4.231548,-2.779878 5.851613,-5.03895 0.628967,-0.877028 1.615812,-2.801834 1.981004,-3.864647 1.934945,-5.631237 0.501991,-11.908991 -3.683835,-16.148065 -2.928413,-2.965689 -6.836832,-4.596898 -10.850813,-4.68924 z m -0.375536,5.555552 c 1.583521,-0.0019 2.112621,0.07732 3.373868,0.500723 1.425526,0.478541 3.039922,1.516287 4.071287,2.618821 3.809114,4.071955 3.724459,10.333316 -0.192728,14.250516 -1.324712,1.32471 -2.897373,2.220751 -4.697183,2.678419 -0.800509,0.203591 -1.212144,0.257457 -2.173739,0.284147 -1.341569,0.03659 -1.885434,-0.02206 -3.057941,-0.333816 -3.462052,-0.921465 -6.239872,-3.757011 -7.178911,-7.325945 -0.243888,-0.926923 -0.260291,-1.081931 -0.260291,-2.513511 0,-1.431579 0.01647,-1.586591 0.260291,-2.513514 0.96081,-3.651684 3.734348,-6.42559 7.383561,-7.383557 0.918969,-0.241241 1.091907,-0.260547 2.471786,-0.262283 z m 22.989182,10.709745 -0.05627,0.826575 c -0.278331,4.053628 -1.519661,7.814534 -3.669923,11.127002 -1.663732,2.562964 -4.154979,5.054203 -6.717932,6.717929 -2.760382,1.7919 -5.892812,2.976969 -9.124136,3.451363 -0.646677,0.09494 -1.22331,0.17264 -1.281592,0.172799 -0.0824,3.44e-4 -0.105292,0.557577 -0.105292,2.501584 v 2.501591 h 0.206661 c 0.368101,0 2.183613,-0.250882 3.099662,-0.42918 5.638027,-1.097087 10.686046,-3.834891 14.707517,-7.973691 1.247946,-1.28436 2.103869,-2.323018 3.02814,-3.677871 2.937365,-4.305851 4.528176,-8.986968 4.864083,-14.306152 l 0.0574,-0.912018 h -2.503117 z" />
  </g>
</svg>
