<?xml version="1.0" encoding="UTF-8" standalone="no"?>
<svg
   width="64"
   height="64"
   version="1.1"
   id="svg73"
   sodipodi:docname="fm.reaper.Reaper.svg"
   inkscape:version="1.4.2 (ebf0e940d0, 2025-05-08)"
   xmlns:inkscape="http://www.inkscape.org/namespaces/inkscape"
   xmlns:sodipodi="http://sodipodi.sourceforge.net/DTD/sodipodi-0.dtd"
   xmlns="http://www.w3.org/2000/svg"
   xmlns:svg="http://www.w3.org/2000/svg"
   xmlns:rdf="http://www.w3.org/1999/02/22-rdf-syntax-ns#"
   xmlns:cc="http://creativecommons.org/ns#"
   xmlns:dc="http://purl.org/dc/elements/1.1/">
  <metadata
     id="metadata77">
    <rdf:RDF>
      <cc:Work
         rdf:about="">
        <dc:format>image/svg+xml</dc:format>
        <dc:type
           rdf:resource="http://purl.org/dc/dcmitype/StillImage" />
      </cc:Work>
    </rdf:RDF>
  </metadata>
  <sodipodi:namedview
     pagecolor="#f5f7fa"
     bordercolor="#666666"
     borderopacity="1"
     objecttolerance="10"
     gridtolerance="10"
     guidetolerance="10"
     inkscape:pageopacity="0"
     inkscape:pageshadow="2"
     inkscape:window-width="1377"
     inkscape:window-height="886"
     id="namedview75"
     showgrid="false"
     inkscape:zoom="6.2890624"
     inkscape:cx="47.622361"
     inkscape:cy="45.396274"
     inkscape:window-x="480"
     inkscape:window-y="58"
     inkscape:window-maximized="0"
     inkscape:current-layer="g877"
     inkscape:document-rotation="0"
     inkscape:pagecheckerboard="0"
     inkscape:showpageshadow="2"
     inkscape:deskcolor="#d1d1d1" />
  <defs
     id="defs29" />
  <circle
     cx="32.516094"
     cy="31.877844"
     r="0"
     fill="url(#b)"
     stroke-width="1.5715"
     id="circle41"
     style="fill:url(#b)" />
  <g
     aria-label="GZ"
     transform="matrix(1.2212657,0,0,0.81882264,0.4960938,-0.1661539)"
     id="text93"
     style="font-weight:bold;font-size:11.5263px;line-height:1.25;font-family:sans-serif;-inkscape-font-specification:'sans-serif Bold';fill:#f2f2f2;stroke-width:0.288159" />
  <g
     id="g877"
     transform="matrix(1.1,0,0,1.1,-3.1845928,-3.2065454)">
    <path
       d="M 37.171497,4.3953863 C 29.56383,4.4416919 20.975655,6.1463912 12.601663,8.3121567 12.187646,12.376326 12.867127,16.529453 14.274795,20.744357 23.403664,10.42128 48.742085,6.7111781 59.841026,16.630105 56.17993,7.3838873 47.596764,4.3319467 37.171379,4.3953863 Z M 9.6274798,8.6923409 5.1257752,9.8326427 c 0.6729487,9.3044113 3.4042126,15.7883513 7.2076918,20.8061903 -1.972459,1.234033 -4.8527911,2.346078 -8.202505,3.201125 0.6754531,0.786717 1.6993635,1.929526 3.6408169,2.209773 2.9629751,-0.516373 4.7596441,-1.786657 6.4098801,-3.171318 9.091901,10.15386 22.684422,14.185832 30.1862,26.739068 l 5.895428,-0.01531 C 36.500222,34.198078 11.458625,44.869855 9.6275997,8.6923409 Z"
       fill="#ffffff"
       fill-rule="evenodd"
       id="path2-2"
       style="fill:#dfdfdf;fill-opacity:1;stroke:none;stroke-width:0.922862;stroke-dasharray:none;stroke-opacity:0.6" />
  </g>
</svg>
