<?xml version="1.0" encoding="UTF-8" standalone="no"?>
<svg
   width="64"
   height="64"
   version="1.1"
   id="svg73"
   sodipodi:docname="fr.free.Homebank.svg"
   inkscape:version="1.4.2 (ebf0e940d0, 2025-05-08)"
   xmlns:inkscape="http://www.inkscape.org/namespaces/inkscape"
   xmlns:sodipodi="http://sodipodi.sourceforge.net/DTD/sodipodi-0.dtd"
   xmlns="http://www.w3.org/2000/svg"
   xmlns:svg="http://www.w3.org/2000/svg"
   xmlns:rdf="http://www.w3.org/1999/02/22-rdf-syntax-ns#"
   xmlns:cc="http://creativecommons.org/ns#"
   xmlns:dc="http://purl.org/dc/elements/1.1/">
  <metadata
     id="metadata77">
    <rdf:RDF>
      <cc:Work
         rdf:about="">
        <dc:format>image/svg+xml</dc:format>
        <dc:type
           rdf:resource="http://purl.org/dc/dcmitype/StillImage" />
      </cc:Work>
    </rdf:RDF>
  </metadata>
  <sodipodi:namedview
     pagecolor="#f5f7fa"
     bordercolor="#666666"
     borderopacity="1"
     objecttolerance="10"
     gridtolerance="10"
     guidetolerance="10"
     inkscape:pageopacity="0"
     inkscape:pageshadow="2"
     inkscape:window-width="1377"
     inkscape:window-height="886"
     id="namedview75"
     showgrid="false"
     inkscape:zoom="6.2890624"
     inkscape:cx="47.622361"
     inkscape:cy="45.396274"
     inkscape:window-x="480"
     inkscape:window-y="58"
     inkscape:window-maximized="0"
     inkscape:current-layer="g877"
     inkscape:document-rotation="0"
     inkscape:pagecheckerboard="0"
     inkscape:showpageshadow="2"
     inkscape:deskcolor="#d1d1d1" />
  <defs
     id="defs29" />
  <circle
     cx="32.516094"
     cy="31.877844"
     r="0"
     fill="url(#b)"
     stroke-width="1.5715"
     id="circle41"
     style="fill:url(#b)" />
  <g
     aria-label="GZ"
     transform="matrix(1.2212657,0,0,0.81882264,0.4960938,-0.1661539)"
     id="text93"
     style="font-weight:bold;font-size:11.5263px;line-height:1.25;font-family:sans-serif;-inkscape-font-specification:'sans-serif Bold';fill:#f2f2f2;stroke-width:0.288159" />
  <g
     id="g877"
     transform="matrix(1.1,0,0,1.1,-3.1845928,-3.2065454)">
    <path
       id="path71"
       style="fill:#dfdfdf;fill-opacity:1;stroke:none;stroke-width:0.878917;stroke-dasharray:none;stroke-opacity:0.6"
       d="m 32.087487,4.2753234 c -4.508677,0 -5.527064,0.1309704 -8.30163,1.0540108 -4.36314,1.4515 -7.774172,3.5421417 -11.089445,6.8012978 -4.5566965,4.479565 -7.2409482,9.994531 -8.1368376,16.723431 -0.3889941,2.921651 -0.3579538,4.07306 0.188829,7.309422 0.7583922,4.488852 2.0312227,7.744337 4.4701129,11.425909 3.5359917,5.337681 9.7135577,9.720149 16.0402127,11.377833 1.763469,0.462054 4.250976,0.759915 6.433936,0.769052 7.789116,0.03259 14.251759,-2.592879 19.727529,-8.00981 2.701638,-2.672608 3.582447,-3.87466 5.108697,-6.983258 2.403866,-4.896111 3.144887,-7.924067 3.144887,-12.847273 0,-4.778523 -0.743194,-7.955659 -2.866779,-12.253323 C 53.293988,12.533082 47.869743,7.8064229 40.385691,5.3259017 37.615881,4.4078829 36.588435,4.2753234 32.087487,4.2753234 Z m 0.518424,5.376487 c 5.496344,0.1372316 10.938668,2.3550106 15.140696,6.6262066 4.276801,4.347186 6.263787,9.281123 6.272577,15.562986 0.0084,6.442658 -1.945972,11.309302 -6.306916,15.693458 -3.15297,3.169751 -6.077721,4.879669 -10.114391,5.912076 -3.806983,0.973683 -7.411236,0.967104 -11.16841,-0.01771 -4.041089,-1.058344 -6.536617,-2.517272 -9.801968,-5.722943 -4.579572,-4.495874 -6.569554,-9.341406 -6.543802,-15.947519 0.02539,-6.518704 2.390489,-11.961278 7.055358,-16.242771 4.419123,-4.055949 9.97051,-6.0012473 15.466856,-5.8640168 z m -0.532157,8.6106316 -6.7086,6.7189 -6.708596,6.718899 h 1.871131 1.87456 v 7.113722 7.113724 h 9.685238 9.681807 v -7.113724 -7.113722 h 1.864259 1.864268 L 43.633553,29.808509 41.769294,27.91678 v -3.841821 -3.83839 h -1.778436 -1.778425 v 2.063391 2.066824 l -3.06934,-3.052169 z" />
  </g>
</svg>
