<?xml version="1.0" encoding="UTF-8" standalone="no"?>
<svg
   width="64"
   height="64"
   version="1.1"
   id="svg73"
   sodipodi:docname="fr.sgued.bodev.svg"
   inkscape:version="1.4.2 (ebf0e940d0, 2025-05-08)"
   xmlns:inkscape="http://www.inkscape.org/namespaces/inkscape"
   xmlns:sodipodi="http://sodipodi.sourceforge.net/DTD/sodipodi-0.dtd"
   xmlns="http://www.w3.org/2000/svg"
   xmlns:svg="http://www.w3.org/2000/svg"
   xmlns:rdf="http://www.w3.org/1999/02/22-rdf-syntax-ns#"
   xmlns:cc="http://creativecommons.org/ns#"
   xmlns:dc="http://purl.org/dc/elements/1.1/">
  <metadata
     id="metadata77">
    <rdf:RDF>
      <cc:Work
         rdf:about="">
        <dc:format>image/svg+xml</dc:format>
        <dc:type
           rdf:resource="http://purl.org/dc/dcmitype/StillImage" />
      </cc:Work>
    </rdf:RDF>
  </metadata>
  <sodipodi:namedview
     pagecolor="#f5f7fa"
     bordercolor="#666666"
     borderopacity="1"
     objecttolerance="10"
     gridtolerance="10"
     guidetolerance="10"
     inkscape:pageopacity="0"
     inkscape:pageshadow="2"
     inkscape:window-width="1377"
     inkscape:window-height="886"
     id="namedview75"
     showgrid="false"
     inkscape:zoom="6.2890624"
     inkscape:cx="43.170187"
     inkscape:cy="42.693168"
     inkscape:window-x="264"
     inkscape:window-y="75"
     inkscape:window-maximized="0"
     inkscape:current-layer="g877"
     inkscape:document-rotation="0"
     inkscape:pagecheckerboard="0"
     inkscape:showpageshadow="2"
     inkscape:deskcolor="#d1d1d1" />
  <defs
     id="defs29" />
  <circle
     cx="32.516094"
     cy="31.877844"
     r="0"
     fill="url(#b)"
     stroke-width="1.5715"
     id="circle41"
     style="fill:url(#b)" />
  <g
     aria-label="GZ"
     transform="matrix(1.2212657,0,0,0.81882264,0.4960938,-0.1661539)"
     id="text93"
     style="font-weight:bold;font-size:11.5263px;line-height:1.25;font-family:sans-serif;-inkscape-font-specification:'sans-serif Bold';fill:#f2f2f2;stroke-width:0.288159" />
  <g
     id="g877"
     transform="matrix(1.1,0,0,1.1,-3.1845928,-3.2065454)">
    <path
       style="fill:#dfdfdf;fill-opacity:1;stroke-width:0.564421"
       d="M 10.446553,56.993217 C 9.9735191,56.520153 9.7692513,53.456171 9.7692513,46.833616 V 37.351332 H 30.935078 52.100897 v 9.575317 c 0,8.889172 -0.07824,9.617174 -1.091744,10.159598 -1.644663,0.880195 -39.676591,0.792965 -40.5626,-0.09303 z M 7.0541755,34.105902 7.2293484,31.989326 30.793962,31.842028 54.358573,31.69473 v 2.26388 2.26388 H 30.618793 6.8790014 Z M 14.672632,29.803794 C 14.509204,29.377834 14.204594,27.8901 13.995796,26.497723 l -0.379637,-2.531603 2.343956,-0.374816 c 1.289179,-0.206149 2.553227,-0.24547 2.809003,-0.0874 0.255781,0.158089 0.641782,1.465969 0.857792,2.906419 0.216018,1.44045 0.526486,2.967509 0.689937,3.39347 0.227447,0.592711 -0.365132,0.774477 -2.524918,0.774477 -1.871003,0 -2.922267,-0.261017 -3.119297,-0.774479 z m 13.158122,0.298412 c 0,-0.261841 0.502379,-1.936227 1.116376,-3.720877 1.009484,-2.934108 1.036504,-3.399271 0.282215,-4.857913 -0.458792,-0.88721 -0.83417,-2.331171 -0.83417,-3.208818 0,-2.50287 2.595467,-5.741917 4.631444,-5.779877 0.887406,-0.01629 0.897333,0.167322 0.126885,2.350953 -0.78031,2.211648 -0.763325,2.441391 0.255896,3.460608 1.717737,1.717733 3.679984,0.905963 4.51047,-1.865942 0.789258,-2.634295 1.325731,-2.833939 2.237561,-0.832695 1.452476,3.187842 -0.161852,7.774432 -2.985841,8.483205 -1.115495,0.279973 -1.623106,1.006017 -2.37827,3.401682 l -0.960085,3.045736 h -3.001243 c -1.650685,0 -3.001247,-0.214223 -3.001245,-0.476062 z m 17.197062,-3.708421 c 1.773968,-2.398785 3.317751,-5.177842 3.617575,-6.51222 0.385509,-1.715806 1.226922,-2.952709 3.200694,-4.705156 1.472725,-1.307587 3.023014,-2.581389 3.445087,-2.830674 0.887371,-0.524106 4.14721,1.19741 4.14721,2.190135 0,0.355766 -0.763488,2.330709 -1.696644,4.38873 -1.281203,2.825654 -2.235189,4.081832 -3.896094,5.13032 -1.209706,0.763649 -3.029166,2.543813 -4.043255,3.9559 -1.792514,2.496021 -1.927624,2.567448 -4.856478,2.567448 H 41.93323 Z m -31.57114,-6.329483 c -0.514149,-3.42858 -0.826116,-4.161006 -1.772339,-4.161006 -0.432427,0 -0.786245,-0.253992 -0.786245,-0.564422 0,-0.839285 -1.5679519,-0.682925 -2.0885346,0.208278 C 8.5613017,15.972134 7.7951807,16.494544 7.107044,16.708061 5.7657566,17.124249 5.8624405,17.314715 4.7455876,12.055946 4.161855,9.3074181 4.7119936,8.7301986 7.2969886,9.3789885 8.2428242,9.6163784 9.1041583,9.4567805 9.6945151,8.93488 10.700816,8.0451912 18.386111,6.3081237 21.316045,6.3081237 c 3.566861,0 7.411624,2.0001919 8.802961,4.5796373 0.436891,0.809975 0.196643,0.852946 -2.168411,0.387837 -2.555876,-0.502641 -7.516987,-0.262529 -9.384781,0.454216 -0.492059,0.18883 -0.894659,0.929943 -0.894659,1.646943 0,0.716998 -0.283162,1.398019 -0.629234,1.513383 -0.458778,0.152887 -0.443807,1.103045 0.05544,3.507185 0.744564,3.586803 0.425996,4.252699 -2.04303,4.270393 -1.003321,0.0075 -1.27169,-0.430151 -1.597594,-2.603416 z"
       id="path423" />
  </g>
</svg>
