<?xml version="1.0" encoding="UTF-8" standalone="no"?>
<svg
   width="64"
   height="64"
   version="1.1"
   id="svg73"
   sodipodi:docname="fractal.svg"
   inkscape:version="1.4.2 (ebf0e940d0, 2025-05-08)"
   xmlns:inkscape="http://www.inkscape.org/namespaces/inkscape"
   xmlns:sodipodi="http://sodipodi.sourceforge.net/DTD/sodipodi-0.dtd"
   xmlns="http://www.w3.org/2000/svg"
   xmlns:svg="http://www.w3.org/2000/svg"
   xmlns:rdf="http://www.w3.org/1999/02/22-rdf-syntax-ns#"
   xmlns:cc="http://creativecommons.org/ns#"
   xmlns:dc="http://purl.org/dc/elements/1.1/">
  <metadata
     id="metadata77">
    <rdf:RDF>
      <cc:Work
         rdf:about="">
        <dc:format>image/svg+xml</dc:format>
        <dc:type
           rdf:resource="http://purl.org/dc/dcmitype/StillImage" />
      </cc:Work>
    </rdf:RDF>
  </metadata>
  <sodipodi:namedview
     pagecolor="#f5f7fa"
     bordercolor="#666666"
     borderopacity="1"
     objecttolerance="10"
     gridtolerance="10"
     guidetolerance="10"
     inkscape:pageopacity="0"
     inkscape:pageshadow="2"
     inkscape:window-width="1377"
     inkscape:window-height="886"
     id="namedview75"
     showgrid="false"
     inkscape:zoom="6.2890624"
     inkscape:cx="46.986336"
     inkscape:cy="42.21615"
     inkscape:window-x="37"
     inkscape:window-y="75"
     inkscape:window-maximized="0"
     inkscape:current-layer="g877"
     inkscape:document-rotation="0"
     inkscape:pagecheckerboard="0"
     inkscape:showpageshadow="2"
     inkscape:deskcolor="#d1d1d1" />
  <defs
     id="defs29" />
  <circle
     cx="32.516094"
     cy="31.877844"
     r="0"
     fill="url(#b)"
     stroke-width="1.5715"
     id="circle41"
     style="fill:url(#b)" />
  <g
     aria-label="GZ"
     transform="matrix(1.2212657,0,0,0.81882264,0.4960938,-0.1661539)"
     id="text93"
     style="font-weight:bold;font-size:11.5263px;line-height:1.25;font-family:sans-serif;-inkscape-font-specification:'sans-serif Bold';fill:#f2f2f2;stroke-width:0.288159" />
  <g
     id="g877"
     transform="matrix(1.1,0,0,1.1,-3.1845928,-3.2065454)">
    <path
       style="fill:#dfdfdf;fill-opacity:1;stroke:none;stroke-width:0.922862;stroke-dasharray:none;stroke-opacity:0.6"
       d="m 20.637641,53.016589 -3.482753,-3.989738 h -4.880677 c -3.1860315,0 -5.0960907,-0.06487 -5.501085,-0.185829 C 5.9013658,48.579861 5.0522201,47.827257 4.5817595,46.898842 L 4.1802474,46.106443 V 28.019882 c 0,-19.68162 -0.050805,-18.5596046 0.8962635,-19.8012549 0.2187152,-0.2867348 0.7191977,-0.6770013 1.1121924,-0.867246 l 0.7145449,-0.3459124 25.0872948,0.00278 c 15.26089,0.00145 25.245037,0.062363 25.49001,0.1554959 0.623919,0.2372314 1.56086,1.1331918 1.954804,1.8693932 l 0.356861,0.6667947 V 27.938584 46.177343 l -0.352168,0.651354 c -0.193673,0.358319 -0.597027,0.886437 -0.896263,1.173711 -1.100357,1.056271 -0.64794,1.024712 -14.694523,1.024712 H 31.122777 l -3.482755,3.989675 c -1.915513,2.194342 -3.491049,3.989725 -3.50119,3.989725 -0.01056,0 -1.585677,-1.795383 -3.501191,-3.989725 z m 36.311946,-4.966127 c 0.317409,-0.08814 0.808381,-0.399223 1.090958,-0.691189 1.081054,-1.116971 1.018916,0.0609 1.017907,-19.293618 C 59.057858,16.494463 59.00013,10.307407 58.889302,9.908149 58.796759,9.5750558 58.532001,9.0777821 58.300904,8.8030912 57.43237,7.7708567 58.324356,7.8268137 42.739585,7.8268137 H 28.520549 L 27.429517,8.464377 c -2.375734,1.3883001 -4.646241,3.496494 -6.080251,5.645584 -1.02454,1.535443 -1.546511,2.65923 -2.138878,4.604971 -0.378415,1.242993 -0.429231,1.691112 -0.436494,3.849444 -0.01045,2.946144 0.182626,3.788576 1.451507,6.350999 1.829964,3.695472 4.989887,6.323776 8.626008,7.174786 1.679633,0.393108 4.337622,0.260026 5.912414,-0.29602 4.957733,-1.750547 7.404577,-6.688965 5.425593,-10.950383 -0.540793,-1.16452 -1.672637,-2.347814 -2.744629,-2.869387 -1.023447,-0.49795 -2.656969,-0.60036 -3.75562,-0.235446 -2.411217,0.800879 -3.401527,3.60276 -1.829138,5.175151 0.536056,0.536053 0.715872,0.617106 1.369075,0.617106 0.42068,0 0.751962,-0.07597 0.751962,-0.172498 0,-0.09485 -0.07471,-0.126285 -0.166013,-0.06985 -0.09134,0.05643 -0.428847,0.0158 -0.750067,-0.09016 -0.457087,-0.150823 -0.652709,-0.347976 -0.899922,-0.906845 -0.80427,-1.818185 0.746892,-3.859224 2.726727,-3.587856 1.301055,0.17831 2.300308,0.857058 2.855351,1.93945 1.038028,2.024283 0.516691,4.669022 -1.239477,6.287799 -1.932711,1.781511 -4.554865,2.055825 -7.196621,0.752865 -4.277889,-2.109931 -5.78092,-7.390129 -3.476735,-12.213851 1.177905,-2.465891 2.871704,-4.134753 5.459815,-5.379413 1.9829,-0.953608 3.657991,-1.280137 6.008427,-1.171228 3.874352,0.179521 6.880571,1.539052 9.803682,4.433646 3.397337,3.364194 4.945278,7.134592 4.94739,12.050605 9.72e-4,2.398174 -0.146367,3.506175 -0.740093,5.564095 -0.90111,3.12322 -2.672918,6.270482 -4.859901,8.63263 -0.876072,0.946242 -2.721777,2.485442 -5.225898,4.358074 -0.290673,0.217402 0.506594,0.243975 7.409489,0.247781 4.591296,0.0029 7.96978,-0.06091 8.312387,-0.156141 z"
       id="path8-1" />
  </g>
</svg>
