<?xml version="1.0" encoding="UTF-8" standalone="no"?>
<svg
   width="64"
   height="64"
   version="1.1"
   id="svg73"
   sodipodi:docname="freetube-bin.svg"
   inkscape:version="1.4.2 (ebf0e940d0, 2025-05-08)"
   xmlns:inkscape="http://www.inkscape.org/namespaces/inkscape"
   xmlns:sodipodi="http://sodipodi.sourceforge.net/DTD/sodipodi-0.dtd"
   xmlns="http://www.w3.org/2000/svg"
   xmlns:svg="http://www.w3.org/2000/svg"
   xmlns:rdf="http://www.w3.org/1999/02/22-rdf-syntax-ns#"
   xmlns:cc="http://creativecommons.org/ns#"
   xmlns:dc="http://purl.org/dc/elements/1.1/">
  <metadata
     id="metadata77">
    <rdf:RDF>
      <cc:Work
         rdf:about="">
        <dc:format>image/svg+xml</dc:format>
        <dc:type
           rdf:resource="http://purl.org/dc/dcmitype/StillImage" />
      </cc:Work>
    </rdf:RDF>
  </metadata>
  <sodipodi:namedview
     pagecolor="#f5f7fa"
     bordercolor="#666666"
     borderopacity="1"
     objecttolerance="10"
     gridtolerance="10"
     guidetolerance="10"
     inkscape:pageopacity="0"
     inkscape:pageshadow="2"
     inkscape:window-width="1377"
     inkscape:window-height="886"
     id="namedview75"
     showgrid="false"
     inkscape:zoom="6.2890624"
     inkscape:cx="46.986336"
     inkscape:cy="42.21615"
     inkscape:window-x="37"
     inkscape:window-y="75"
     inkscape:window-maximized="0"
     inkscape:current-layer="g877"
     inkscape:document-rotation="0"
     inkscape:pagecheckerboard="0"
     inkscape:showpageshadow="2"
     inkscape:deskcolor="#d1d1d1" />
  <defs
     id="defs29" />
  <circle
     cx="32.516094"
     cy="31.877844"
     r="0"
     fill="url(#b)"
     stroke-width="1.5715"
     id="circle41"
     style="fill:url(#b)" />
  <g
     aria-label="GZ"
     transform="matrix(1.2212657,0,0,0.81882264,0.4960938,-0.1661539)"
     id="text93"
     style="font-weight:bold;font-size:11.5263px;line-height:1.25;font-family:sans-serif;-inkscape-font-specification:'sans-serif Bold';fill:#f2f2f2;stroke-width:0.288159" />
  <g
     id="g877"
     transform="matrix(1.1,0,0,1.1,-3.1845928,-3.2065454)">
    <g
       id="g7"
       transform="matrix(1.3320768,0,0,1.3320768,-11.306503,-10.620507)"
       style="fill:#dfdfdf;fill-opacity:1;stroke:none;stroke-width:0.685871;stroke-dasharray:none;stroke-opacity:0.6">
      <path
         style="fill:#dfdfdf;fill-opacity:1;stroke:none;stroke-width:0.685871;stroke-dasharray:none;stroke-opacity:0.6"
         d="M 14.75,12 C 13.2265,12 12,13.274286 12,14.857143 v 30 C 12,49.142857 17.5,52 20.25,52 H 23 v -2.857143 -4.285714 -30 C 23,13.274286 21.7735,12 20.25,12 Z"
         id="path4" />
      <path
         style="fill:#dfdfdf;fill-opacity:1;stroke:none;stroke-width:0.685871;stroke-dasharray:none;stroke-opacity:0.6"
         d="M 26,20.25 C 26,21.7735 27.267579,23 28.842105,23 H 45.894737 C 50.157895,23 53,17.5 53,14.75 V 12 H 50.157895 45.894737 28.842105 C 27.267579,12 26,13.2265 26,14.75 Z"
         id="path5" />
      <path
         style="fill:#dfdfdf;fill-opacity:1;stroke:none;stroke-width:0.685871;stroke-dasharray:none;stroke-opacity:0.6"
         d="m 27.321275,26.000307 a 1.2913161,1.1414724 0 0 0 -1.321274,1.142629 v 7.358815 7.358816 a 1.2913161,1.1414724 0 0 0 1.936147,0.986925 l 7.209509,-3.679407 7.209511,-3.679409 a 1.2913161,1.1414724 0 0 0 0,-1.976244 l -7.209511,-3.679408 -7.209509,-3.679407 a 1.2913161,1.1414724 0 0 0 -0.614873,-0.15331 z"
         id="path6" />
    </g>
  </g>
</svg>
