<?xml version="1.0" encoding="UTF-8" standalone="no"?>
<svg
   width="64"
   height="64"
   version="1.1"
   id="svg73"
   sodipodi:docname="fs-uae-launcher.svg"
   inkscape:version="1.4.2 (ebf0e940d0, 2025-05-08)"
   xmlns:inkscape="http://www.inkscape.org/namespaces/inkscape"
   xmlns:sodipodi="http://sodipodi.sourceforge.net/DTD/sodipodi-0.dtd"
   xmlns="http://www.w3.org/2000/svg"
   xmlns:svg="http://www.w3.org/2000/svg"
   xmlns:rdf="http://www.w3.org/1999/02/22-rdf-syntax-ns#"
   xmlns:cc="http://creativecommons.org/ns#"
   xmlns:dc="http://purl.org/dc/elements/1.1/">
  <metadata
     id="metadata77">
    <rdf:RDF>
      <cc:Work
         rdf:about="">
        <dc:format>image/svg+xml</dc:format>
        <dc:type
           rdf:resource="http://purl.org/dc/dcmitype/StillImage" />
      </cc:Work>
    </rdf:RDF>
  </metadata>
  <sodipodi:namedview
     pagecolor="#f5f7fa"
     bordercolor="#666666"
     borderopacity="1"
     objecttolerance="10"
     gridtolerance="10"
     guidetolerance="10"
     inkscape:pageopacity="0"
     inkscape:pageshadow="2"
     inkscape:window-width="1377"
     inkscape:window-height="886"
     id="namedview75"
     showgrid="false"
     inkscape:zoom="6.2890624"
     inkscape:cx="46.986336"
     inkscape:cy="42.21615"
     inkscape:window-x="37"
     inkscape:window-y="75"
     inkscape:window-maximized="0"
     inkscape:current-layer="g877"
     inkscape:document-rotation="0"
     inkscape:pagecheckerboard="0"
     inkscape:showpageshadow="2"
     inkscape:deskcolor="#d1d1d1" />
  <defs
     id="defs29" />
  <circle
     cx="32.516094"
     cy="31.877844"
     r="0"
     fill="url(#b)"
     stroke-width="1.5715"
     id="circle41"
     style="fill:url(#b)" />
  <g
     aria-label="GZ"
     transform="matrix(1.2212657,0,0,0.81882264,0.4960938,-0.1661539)"
     id="text93"
     style="font-weight:bold;font-size:11.5263px;line-height:1.25;font-family:sans-serif;-inkscape-font-specification:'sans-serif Bold';fill:#f2f2f2;stroke-width:0.288159" />
  <g
     id="g877"
     transform="matrix(1.1,0,0,1.1,-3.1845928,-3.2065454)">
    <path
       id="path83"
       style="fill:#dfdfdf;fill-opacity:1;stroke:none;stroke-width:0.959317;stroke-dasharray:none;stroke-opacity:0.6"
       d="m 48.51168,4.3768207 -3.796025,0.1236499 -3.792297,0.1236233 -8.236617,15.9561001 -8.236614,15.952351 1.255354,2.3833 c 0.691642,1.310628 1.53999,2.837919 1.884902,3.395076 0.597711,0.965493 0.65051,0.977228 1.161675,0.217368 0.294966,-0.438515 2.926092,-5.45704 5.845821,-11.152039 2.919724,-5.695011 7.245511,-14.099182 9.611885,-18.676659 z M 52.881062,4.4104817 41.084493,27.276644 C 34.595922,39.853122 29.168484,50.142816 29.02186,50.142816 c -0.146571,0 -1.521158,-2.331425 -3.054066,-5.1788 l -2.788006,-5.175014 h -3.743575 -3.743574 l 2.128475,3.990897 c 1.172205,2.194948 3.539575,6.658791 5.257494,9.919164 l 3.121526,5.92827 2.821726,0.0038 2.817991,0.0038 14.116158,-27.340459 C 53.718714,17.257995 60.068428,4.8344025 60.068428,4.6843295 v -0.00386 -0.00386 l -0.0038,-0.00386 v -0.00386 l -0.0038,-0.00386 C 59.918973,4.5249184 58.35813,4.4104843 56.474634,4.4104843 Z M 3.9035592,39.788996 l 1.6975366,3.12901 c 0.933359,1.720371 3.3202369,6.185562 5.3024612,9.922915 l 3.601179,6.793896 h 2.709312 c 2.671702,0 2.720045,-0.01987 3.5,-1.540158 l 0.790685,-1.543885 -1.750001,-3.421312 c -1.046487,-2.043728 -1.963277,-3.337242 -2.27837,-3.218946 -0.321247,0.120629 -1.587669,-1.819005 -3.237685,-4.957706 l -2.705569,-5.148821 -3.8147747,-0.0077 z" />
  </g>
</svg>
