<?xml version="1.0" encoding="UTF-8" standalone="no"?>
<svg
   width="64"
   height="64"
   version="1.1"
   id="svg73"
   sodipodi:docname="garden.jamie.Morphosis.svg"
   inkscape:version="1.4.2 (ebf0e940d0, 2025-05-08)"
   xmlns:inkscape="http://www.inkscape.org/namespaces/inkscape"
   xmlns:sodipodi="http://sodipodi.sourceforge.net/DTD/sodipodi-0.dtd"
   xmlns="http://www.w3.org/2000/svg"
   xmlns:svg="http://www.w3.org/2000/svg"
   xmlns:rdf="http://www.w3.org/1999/02/22-rdf-syntax-ns#"
   xmlns:cc="http://creativecommons.org/ns#"
   xmlns:dc="http://purl.org/dc/elements/1.1/">
  <metadata
     id="metadata77">
    <rdf:RDF>
      <cc:Work
         rdf:about="">
        <dc:format>image/svg+xml</dc:format>
        <dc:type
           rdf:resource="http://purl.org/dc/dcmitype/StillImage" />
      </cc:Work>
    </rdf:RDF>
  </metadata>
  <sodipodi:namedview
     pagecolor="#f5f7fa"
     bordercolor="#666666"
     borderopacity="1"
     objecttolerance="10"
     gridtolerance="10"
     guidetolerance="10"
     inkscape:pageopacity="0"
     inkscape:pageshadow="2"
     inkscape:window-width="1377"
     inkscape:window-height="886"
     id="namedview75"
     showgrid="false"
     inkscape:zoom="6.2890624"
     inkscape:cx="47.622361"
     inkscape:cy="45.396274"
     inkscape:window-x="147"
     inkscape:window-y="75"
     inkscape:window-maximized="0"
     inkscape:current-layer="g877"
     inkscape:document-rotation="0"
     inkscape:pagecheckerboard="0"
     inkscape:showpageshadow="2"
     inkscape:deskcolor="#d1d1d1" />
  <defs
     id="defs29">
    <linearGradient
       id="b"
       x1="399.57"
       x2="399.57"
       y1="545.8"
       y2="517.8"
       gradientTransform="matrix(2.1429,0,0,2.1429,-825.86391,-1107.6662)"
       gradientUnits="userSpaceOnUse">
      <stop
         stop-color="#3889e9"
         offset="0"
         id="stop2" />
      <stop
         stop-color="#5ea5fb"
         offset="1"
         id="stop4" />
    </linearGradient>
  </defs>
  <circle
     cx="32.516094"
     cy="31.877844"
     r="0"
     fill="url(#b)"
     stroke-width="1.5715"
     id="circle41"
     style="fill:url(#b)" />
  <g
     aria-label="GZ"
     transform="matrix(1.2212657,0,0,0.81882264,0.4960938,-0.1661539)"
     id="text93"
     style="font-weight:bold;font-size:11.5263px;line-height:1.25;font-family:sans-serif;-inkscape-font-specification:'sans-serif Bold';fill:#f2f2f2;stroke-width:0.288159" />
  <g
     id="g877"
     transform="matrix(1.1,0,0,1.1,-3.1845928,-3.2065454)">
    <path
       id="path102"
       style="fill:#dfdfdf;fill-opacity:1;stroke:none;stroke-width:0.878917;stroke-dasharray:none;stroke-dashoffset:2.2;stroke-opacity:0.6"
       d="m 23.997976,4.2660627 c -13.094712,0 -12.644422,-0.042751 -13.407807,1.249609 -0.3085,0.5223292 -0.337925,2.8613752 -0.337925,26.3755843 0,28.49252 -0.09146,26.599279 1.302411,27.449194 0.645009,0.393138 1.1905,0.404072 20.391544,0.404857 21.495155,8.29e-4 20.383517,0.06109 21.345458,-1.161613 0.430888,-0.5477 0.429316,-0.611306 0.429316,-18.532959 V 22.070397 h -7.814355 c -8.761652,-3.64e-4 -8.911636,-0.02471 -9.623772,-1.450257 -0.325398,-0.651329 -0.362249,-1.51452 -0.362587,-8.539592 V 4.2660627 Z M 38.40547,4.5828659 v 6.6845381 c 0,7.296376 0.03738,7.576609 1.18977,8.201676 0.466557,0.253132 1.732389,0.309942 7.163257,0.316804 l 6.596539,0.007 -3.527068,-3.674904 C 47.886823,14.097016 44.522316,10.673236 42.351421,8.511138 Z M 19.981616,30.972533 h 12.003312 12.006834 v 1.552328 1.552334 H 31.984928 19.981616 v -1.552334 z m 0,5.793967 h 12.003312 12.006834 v 1.657934 1.654425 H 31.984928 19.981616 v -1.65443 z m 0,6.005181 h 12.003312 12.006834 v 1.654405 1.657948 H 31.984928 19.981616 v -1.657948 z m 0,6.001642 h 7.55399 7.557515 v 1.657939 1.654405 h -7.557515 -7.55399 v -1.654405 z" />
  </g>
</svg>
