<?xml version="1.0" encoding="UTF-8" standalone="no"?>
<svg
   width="64"
   height="64"
   version="1.1"
   id="svg73"
   sodipodi:docname="gdlauncher.svg"
   inkscape:version="1.4.2 (ebf0e940d0, 2025-05-08)"
   xmlns:inkscape="http://www.inkscape.org/namespaces/inkscape"
   xmlns:sodipodi="http://sodipodi.sourceforge.net/DTD/sodipodi-0.dtd"
   xmlns="http://www.w3.org/2000/svg"
   xmlns:svg="http://www.w3.org/2000/svg"
   xmlns:rdf="http://www.w3.org/1999/02/22-rdf-syntax-ns#"
   xmlns:cc="http://creativecommons.org/ns#"
   xmlns:dc="http://purl.org/dc/elements/1.1/">
  <metadata
     id="metadata77">
    <rdf:RDF>
      <cc:Work
         rdf:about="">
        <dc:format>image/svg+xml</dc:format>
        <dc:type
           rdf:resource="http://purl.org/dc/dcmitype/StillImage" />
      </cc:Work>
    </rdf:RDF>
  </metadata>
  <sodipodi:namedview
     pagecolor="#f5f7fa"
     bordercolor="#666666"
     borderopacity="1"
     objecttolerance="10"
     gridtolerance="10"
     guidetolerance="10"
     inkscape:pageopacity="0"
     inkscape:pageshadow="2"
     inkscape:window-width="1377"
     inkscape:window-height="886"
     id="namedview75"
     showgrid="false"
     inkscape:zoom="6.2890624"
     inkscape:cx="46.986336"
     inkscape:cy="42.21615"
     inkscape:window-x="226"
     inkscape:window-y="75"
     inkscape:window-maximized="0"
     inkscape:current-layer="g877"
     inkscape:document-rotation="0"
     inkscape:pagecheckerboard="0"
     inkscape:showpageshadow="2"
     inkscape:deskcolor="#d1d1d1" />
  <defs
     id="defs29" />
  <circle
     cx="32.516094"
     cy="31.877844"
     r="0"
     fill="url(#b)"
     stroke-width="1.5715"
     id="circle41"
     style="fill:url(#b)" />
  <g
     aria-label="GZ"
     transform="matrix(1.2212657,0,0,0.81882264,0.4960938,-0.1661539)"
     id="text93"
     style="font-weight:bold;font-size:11.5263px;line-height:1.25;font-family:sans-serif;-inkscape-font-specification:'sans-serif Bold';fill:#f2f2f2;stroke-width:0.288159" />
  <g
     id="g877"
     transform="matrix(1.1,0,0,1.1,-3.1845928,-3.2065454)">
    <path
       id="path4-3"
       style="fill:#dfdfdf;fill-opacity:1;stroke:none;stroke-width:0.878917;stroke-dasharray:none;stroke-opacity:0.6"
       d="m 31.985958,4.0801072 c -1.143455,0 -1.229846,0.012511 -1.944713,0.2602983 -0.414923,0.1438186 -1.231861,0.5369587 -1.834588,0.8835045 -0.597725,0.3436746 -4.946566,2.8445358 -9.663502,5.556332 -4.71695,2.71179 -8.7734639,5.062875 -9.0152692,5.225947 -0.5941914,0.400727 -1.4321076,1.301414 -1.824577,1.964741 -0.1772349,0.299568 -0.4408187,0.887141 -0.5856666,1.303981 l -0.2628,0.758366 v 11.966122 11.96613 l 0.2628024,0.758357 c 0.4693614,1.350749 1.2910627,2.468099 2.3676954,3.226177 0.5031312,0.35424 18.869915,10.935053 19.707441,11.352933 0.536555,0.267686 0.913503,0.40087 1.556776,0.550596 0.584394,0.135943 2.207773,0.08648 2.833223,-0.08508 0.263262,-0.0723 0.731399,-0.249385 1.041186,-0.395432 0.762022,-0.359252 19.254388,-10.994463 19.862612,-11.423002 1.077053,-0.758858 1.898397,-1.875591 2.367709,-3.226178 l 0.262858,-0.758367 V 31.999405 20.033278 l -0.262866,-0.758362 c -0.144842,-0.416847 -0.408435,-1.00442 -0.585676,-1.30399 -0.3923,-0.663046 -1.230088,-1.563456 -1.82457,-1.964737 C 54.075087,15.757147 50.909389,13.929672 35.765262,5.22391 35.162902,4.8776398 34.345347,4.484115 33.930672,4.3404028 33.215808,4.0926531 33.129417,4.0801046 31.985958,4.0801046 Z M 21.834401,19.530201 c 0.736329,-0.02305 1.507565,0.0064 2.109903,0.09514 2.57479,0.378684 5.110266,1.519243 7.268275,3.268724 0.338148,0.274126 0.655865,0.523187 0.705801,0.553128 0.05085,0.03046 0.400306,-0.198347 0.795908,-0.518095 2.211856,-1.787653 4.726051,-2.92324 7.313322,-3.303761 1.204693,-0.177198 3.089436,-0.116075 4.004561,0.12767 0.841291,0.224065 1.958043,0.77335 2.550412,1.253927 0.987586,0.801225 1.782403,2.092299 2.122408,3.453932 0.217857,0.872369 0.301388,2.985153 0.155222,3.891936 -0.52342,3.246573 -3.07234,6.297615 -6.840279,8.186825 l -0.715819,0.360404 -0.05013,0.820935 c -0.1525,2.440086 -0.891578,4.402155 -2.330147,6.189537 -1.191828,1.480831 -2.79403,2.550325 -4.625271,3.08853 -0.609787,0.179204 -0.907529,0.215382 -1.992267,0.242744 -1.446009,0.03685 -2.056894,-0.04712 -3.196136,-0.445503 -1.335994,-0.466632 -2.390185,-1.145548 -3.468916,-2.230008 -1.758708,-1.768021 -2.756573,-4.085878 -2.920825,-6.790231 l -0.05256,-0.881021 -0.765874,-0.38544 c -2.708282,-1.362247 -4.894495,-3.442116 -5.99683,-5.706501 -0.614011,-1.261276 -0.80285,-2.064122 -0.850966,-3.619118 -0.04462,-1.441309 0.03159,-2.134184 0.352897,-3.163604 0.680481,-2.180243 2.255774,-3.660933 4.532662,-4.26736 0.457563,-0.121866 1.158328,-0.199632 1.894652,-0.222753 z m 3.010927,7.721291 c -0.26657,-0.0023 -0.551188,0.05387 -0.903528,0.162666 -0.654332,0.2021 -1.268948,0.719508 -1.268948,1.06621 0,0.400291 0.358049,0.650739 1.536755,1.073726 1.590334,0.570699 2.285596,0.968474 3.246194,1.862119 0.273492,0.254438 0.528542,0.463025 0.568156,0.463025 0.185176,0 0.273257,-0.253126 0.225252,-0.658252 -0.205105,-1.731053 -1.005568,-2.978858 -2.355185,-3.669174 -0.390585,-0.199784 -0.705961,-0.297528 -1.048696,-0.300346 z m 14.258737,0 c -0.830946,0 -2.129265,0.868017 -2.685558,1.794546 -0.464344,0.773384 -0.861818,2.452213 -0.643231,2.715592 0.05437,0.06545 0.131863,0.117612 0.170176,0.117612 0.03836,0 0.317691,-0.227495 0.620707,-0.505578 0.962637,-0.883396 1.647995,-1.276162 3.158605,-1.80705 1.380519,-0.485173 1.554271,-0.60938 1.554271,-1.116273 0,-0.531625 -1.208305,-1.198863 -2.174973,-1.198863 z m -9.268053,7.909007 c -0.114042,0.0042 -0.181381,0.101783 -0.327876,0.432988 -0.424076,0.9589 -0.614815,1.775273 -0.620706,2.668038 -0.0041,0.619245 0.03121,0.918381 0.130159,1.143804 0.174639,0.397983 0.396157,0.373472 0.743344,-0.08257 0.480023,-0.630587 0.622754,-1.139666 0.620701,-2.217526 -0.0025,-1.15282 -0.192677,-1.896008 -0.49556,-1.939706 -0.01861,-0.0027 -0.03379,-0.0055 -0.04998,-0.0046 z m 4.282376,0.0029 c -0.01265,-7.78e-4 -0.02713,6.22e-4 -0.04006,0.0026 -0.370219,0.05358 -0.66172,1.827214 -0.460529,2.795685 0.124647,0.600052 0.509906,1.358024 0.823438,1.621844 l 0.250281,0.212726 0.137683,-0.170194 c 0.415158,-0.512683 0.387309,-1.849539 -0.06507,-3.238664 -0.29073,-0.89273 -0.455164,-1.212256 -0.645738,-1.223895 z" />
  </g>
</svg>
