<?xml version="1.0" encoding="UTF-8" standalone="no"?>
<svg
   width="64"
   height="64"
   version="1.1"
   id="svg73"
   sodipodi:docname="Geogebra.svg"
   inkscape:version="1.4.2 (ebf0e940d0, 2025-05-08)"
   xmlns:inkscape="http://www.inkscape.org/namespaces/inkscape"
   xmlns:sodipodi="http://sodipodi.sourceforge.net/DTD/sodipodi-0.dtd"
   xmlns="http://www.w3.org/2000/svg"
   xmlns:svg="http://www.w3.org/2000/svg"
   xmlns:rdf="http://www.w3.org/1999/02/22-rdf-syntax-ns#"
   xmlns:cc="http://creativecommons.org/ns#"
   xmlns:dc="http://purl.org/dc/elements/1.1/">
  <metadata
     id="metadata77">
    <rdf:RDF>
      <cc:Work
         rdf:about="">
        <dc:format>image/svg+xml</dc:format>
        <dc:type
           rdf:resource="http://purl.org/dc/dcmitype/StillImage" />
      </cc:Work>
    </rdf:RDF>
  </metadata>
  <sodipodi:namedview
     pagecolor="#f5f7fa"
     bordercolor="#666666"
     borderopacity="1"
     objecttolerance="10"
     gridtolerance="10"
     guidetolerance="10"
     inkscape:pageopacity="0"
     inkscape:pageshadow="2"
     inkscape:window-width="1377"
     inkscape:window-height="886"
     id="namedview75"
     showgrid="false"
     inkscape:zoom="6.2890624"
     inkscape:cx="46.986336"
     inkscape:cy="42.21615"
     inkscape:window-x="226"
     inkscape:window-y="75"
     inkscape:window-maximized="0"
     inkscape:current-layer="g877"
     inkscape:document-rotation="0"
     inkscape:pagecheckerboard="0"
     inkscape:showpageshadow="2"
     inkscape:deskcolor="#d1d1d1" />
  <defs
     id="defs29" />
  <circle
     cx="32.516094"
     cy="31.877844"
     r="0"
     fill="url(#b)"
     stroke-width="1.5715"
     id="circle41"
     style="fill:url(#b)" />
  <g
     aria-label="GZ"
     transform="matrix(1.2212657,0,0,0.81882264,0.4960938,-0.1661539)"
     id="text93"
     style="font-weight:bold;font-size:11.5263px;line-height:1.25;font-family:sans-serif;-inkscape-font-specification:'sans-serif Bold';fill:#f2f2f2;stroke-width:0.288159" />
  <g
     id="g877"
     transform="matrix(1.1,0,0,1.1,-3.1845928,-3.2065454)">
    <path
       id="path21"
       style="fill:#dfdfdf;fill-opacity:1;stroke:none;stroke-width:0.878917;stroke-dasharray:none;stroke-opacity:0.6"
       d="m 29.947645,6.1829175 c -1.164196,-0.016287 -2.356822,0.3684741 -3.359253,1.2508484 -1.937324,1.7053004 -2.328117,4.3978511 -0.952832,6.5664521 0.602569,0.950153 1.489302,1.637824 2.645635,2.051639 1.851719,0.662659 4.054051,0.05301 5.423051,-1.502237 0.851572,-0.967436 1.240867,-2.047199 1.238684,-3.432231 -0.0044,-2.915372 -2.434056,-4.8980142 -4.995285,-4.9344715 z m 6.921228,0.3020765 0.496691,0.9893226 c 0.274024,0.5432645 0.547346,1.2434563 0.606167,1.556975 l 0.107459,0.5696735 1.492105,0.1196206 c 5.618331,0.4474533 10.110052,2.8855193 12.524707,6.7975653 l 0.636553,1.029872 1.48805,-0.101343 c 0.819128,-0.0552 1.514899,-0.121294 1.544805,-0.145971 0.08882,-0.07333 -1.007138,-2.171273 -1.57115,-3.008528 C 51.66527,10.537972 47.589239,7.9412312 42.695375,6.9675239 41.986897,6.8265613 40.385806,6.6607514 39.137449,6.5985549 Z m -15.450117,5.358167 -1.378571,0.985275 c -2.98186,2.132055 -6.004643,4.940096 -8.032195,7.460494 -1.000791,1.244063 -1.111386,1.574433 -0.531152,1.595492 0.160278,0.0058 0.679651,0.194395 1.153535,0.417629 0.473892,0.223248 0.89937,0.409996 0.946757,0.415592 0.04734,0.0054 0.319799,-0.303046 0.604135,-0.687256 1.246955,-1.684967 6.153742,-6.109052 7.797031,-7.028678 0.250503,-0.140173 0.251044,-0.233111 0.0041,-1.0765 -0.148876,-0.508352 -0.336898,-1.186225 -0.417627,-1.504262 z m 33.290442,8.851229 c -0.449068,0.0095 -0.905705,0.07865 -1.360334,0.210837 -1.134779,0.329895 -2.548462,1.507443 -3.103811,2.586848 -0.503243,0.978192 -0.624194,3.043722 -0.2332,3.983658 0.641404,1.541718 1.710287,2.598947 3.148414,3.11192 0.891153,0.317862 2.40531,0.305595 3.379523,-0.02639 1.106152,-0.376896 2.391438,-1.575892 2.888941,-2.694291 0.599158,-1.346955 0.57524,-3.000623 -0.06313,-4.299916 C 58.4599,21.72214 56.654857,20.652488 54.709178,20.6944 Z M 9.0967725,24.894974 c -1.538075,0.0049 -2.6590916,0.498095 -3.6633408,1.609682 -0.9486948,1.05009 -1.2107287,1.686206 -1.297482,3.148414 -0.067388,1.135902 -0.019326,1.444009 0.3466776,2.240174 0.6035327,1.312954 1.2018407,1.947403 2.4084442,2.550355 3.3931865,1.695591 7.2724225,-0.731903 7.2780275,-4.555366 0.0029,-2.034221 -0.981466,-3.623941 -2.799711,-4.516842 -0.811404,-0.398453 -1.201522,-0.480049 -2.2726155,-0.476417 z m 43.5101005,9.01139 -0.689289,1.425196 c -0.900707,1.866411 -2.102534,3.850934 -3.290317,5.429133 l -0.956881,1.271117 0.91836,1.035951 0.918368,1.035956 0.486511,-0.559477 c 1.062949,-1.221976 3.300353,-4.777866 4.245187,-6.748909 1.385062,-2.889434 1.354626,-2.685927 0.389274,-2.688215 -0.447254,-10e-4 -1.084866,-0.0464 -1.417091,-0.101321 z m -47.7796073,3.34303 c -0.188556,-0.0099 -0.2096164,0.272859 -0.2088178,1.621844 0.00173,3.310544 0.6402669,6.162388 2.0110906,8.980978 0.6827933,1.403913 1.0886624,1.939221 1.0886624,1.433309 0,-0.08886 0.354564,-0.679671 0.788624,-1.313699 L 9.2974774,46.818289 8.8474201,45.814766 C 8.5999586,45.263361 8.281106,44.439598 8.139888,43.984123 7.8057795,42.906487 7.3768865,40.118696 7.3755906,39.021262 l -0.00169,-0.861611 -1.0765007,-0.397353 c -0.5923664,-0.218142 -1.2127133,-0.441167 -1.378576,-0.494653 -0.034246,-0.01118 -0.064314,-0.01684 -0.091226,-0.01822 z m 36.9659463,6.343441 c -0.650974,0.0016 -0.943292,0.101431 -1.573198,0.409508 -3.164747,1.54838 -3.925058,5.594639 -1.518455,8.086934 0.692372,0.717021 1.292049,1.081302 2.361813,1.435345 1.497357,0.495511 3.553411,-0.07976 4.857435,-1.356275 2.39484,-2.344247 1.846802,-6.27904 -1.117051,-8.015985 -0.626649,-0.367289 -1.059444,-0.472624 -2.213819,-0.533142 -0.322288,-0.01682 -0.57977,-0.02658 -0.796725,-0.02658 z m -26.890224,4.141799 c -0.603185,0.0016 -0.925068,0.09634 -1.522509,0.370972 -1.906314,0.876262 -2.893245,2.26565 -3.036907,4.273563 -0.177289,2.477903 1.201191,4.477048 3.634961,5.27303 0.413371,0.135165 1.144381,0.206141 1.719159,0.166207 4.200392,-0.291829 6.251121,-5.252349 3.456563,-8.360579 -1.083927,-1.205577 -1.905105,-1.601591 -3.533602,-1.698888 -0.284135,-0.01682 -0.516611,-0.02477 -0.717665,-0.02416 z m 19.707463,4.158009 -1.271124,0.492616 c -2.824074,1.096605 -6.497956,1.88541 -8.778245,1.88541 h -0.948778 l -0.202729,0.819032 c -0.11236,0.450214 -0.394981,1.158936 -0.626441,1.575213 l -0.419644,0.758222 2.284768,-0.09727 c 3.45483,-0.145927 6.098008,-0.737783 9.913541,-2.221945 l 1.771867,-0.689277 -0.521023,-0.594025 c -0.286356,-0.326155 -0.674172,-0.893605 -0.861601,-1.26099 z" />
  </g>
</svg>
