<?xml version="1.0" encoding="UTF-8" standalone="no"?>
<svg
   width="64"
   height="64"
   version="1.1"
   id="svg73"
   sodipodi:docname="gnumeric.svg"
   inkscape:version="1.4.2 (ebf0e940d0, 2025-05-08)"
   xmlns:inkscape="http://www.inkscape.org/namespaces/inkscape"
   xmlns:sodipodi="http://sodipodi.sourceforge.net/DTD/sodipodi-0.dtd"
   xmlns="http://www.w3.org/2000/svg"
   xmlns:svg="http://www.w3.org/2000/svg"
   xmlns:rdf="http://www.w3.org/1999/02/22-rdf-syntax-ns#"
   xmlns:cc="http://creativecommons.org/ns#"
   xmlns:dc="http://purl.org/dc/elements/1.1/">
  <metadata
     id="metadata77">
    <rdf:RDF>
      <cc:Work
         rdf:about="">
        <dc:format>image/svg+xml</dc:format>
        <dc:type
           rdf:resource="http://purl.org/dc/dcmitype/StillImage" />
      </cc:Work>
    </rdf:RDF>
  </metadata>
  <sodipodi:namedview
     pagecolor="#f5f7fa"
     bordercolor="#666666"
     borderopacity="1"
     objecttolerance="10"
     gridtolerance="10"
     guidetolerance="10"
     inkscape:pageopacity="0"
     inkscape:pageshadow="2"
     inkscape:window-width="1377"
     inkscape:window-height="886"
     id="namedview75"
     showgrid="false"
     inkscape:zoom="6.2890624"
     inkscape:cx="47.622361"
     inkscape:cy="45.396274"
     inkscape:window-x="147"
     inkscape:window-y="75"
     inkscape:window-maximized="0"
     inkscape:current-layer="g877"
     inkscape:document-rotation="0"
     inkscape:pagecheckerboard="0"
     inkscape:showpageshadow="2"
     inkscape:deskcolor="#d1d1d1" />
  <defs
     id="defs29">
    <linearGradient
       id="b"
       x1="399.57"
       x2="399.57"
       y1="545.8"
       y2="517.8"
       gradientTransform="matrix(2.1429,0,0,2.1429,-825.86391,-1107.6662)"
       gradientUnits="userSpaceOnUse">
      <stop
         stop-color="#3889e9"
         offset="0"
         id="stop2" />
      <stop
         stop-color="#5ea5fb"
         offset="1"
         id="stop4" />
    </linearGradient>
  </defs>
  <circle
     cx="32.516094"
     cy="31.877844"
     r="0"
     fill="url(#b)"
     stroke-width="1.5715"
     id="circle41"
     style="fill:url(#b)" />
  <g
     aria-label="GZ"
     transform="matrix(1.2212657,0,0,0.81882264,0.4960938,-0.1661539)"
     id="text93"
     style="font-weight:bold;font-size:11.5263px;line-height:1.25;font-family:sans-serif;-inkscape-font-specification:'sans-serif Bold';fill:#f2f2f2;stroke-width:0.288159" />
  <g
     id="g877"
     transform="matrix(1.1,0,0,1.1,-3.1845928,-3.2065454)">
    <path
       id="path915"
       style="fill:#dfdfdf;fill-opacity:1;stroke:none;stroke-width:1.72614;stroke-dasharray:none;stroke-opacity:0.6;stop-color:#000000"
       d="M 31.95637,3.5521192 C 28.804069,3.5516347 28.085594,3.6056386 26.441988,3.9583071 24.142108,4.4512669 21.612619,5.3133369 19.50222,6.3233198 14.028479,8.942944 8.8940708,14.126112 6.2637112,19.685274 0.43217445,32.009989 3.977454,46.450014 14.87172,54.738445 c 0.854266,0.650063 1.592946,1.180211 1.640382,1.178518 0.04829,-0.0015 3.267234,-5.530329 7.158758,-12.282948 3.89154,-6.752607 7.191574,-12.410756 7.333937,-12.577581 0.178365,-0.208977 4.577369,-1.463937 14.146275,-4.03326 7.636801,-2.050531 13.920285,-3.763458 13.963168,-3.806323 0.04176,-0.04176 -0.143278,-0.64106 -0.410241,-1.32982 C 55.43295,13.447269 48.69345,7.1694583 40.154206,4.611261 37.216193,3.7311599 35.845819,3.5527913 31.956307,3.5521378 Z M 59.918502,25.940131 c -0.02885,-0.0353 -25.183724,6.65203 -26.194348,6.963661 -0.284168,0.08739 -0.302607,0.896542 -0.302607,13.823778 V 60.459786 L 34.75933,60.344957 C 46.55532,59.300321 56.72238,50.558968 59.655705,38.944365 60.348049,36.202602 60.580306,33.872512 60.46391,30.81811 60.38429,28.719797 60.097644,26.158717 59.918369,25.940762 Z M 30.662393,37.04456 24.940962,46.958515 c -3.146851,5.453398 -5.753651,10.039675 -5.793095,10.188685 -0.186979,0.706428 5.627776,2.660424 9.356547,3.145392 0.284711,0.03648 0.887017,0.07962 1.337778,0.09525 l 0.820346,0.02465 V 48.730791 Z" />
  </g>
</svg>
