<?xml version="1.0" encoding="UTF-8" standalone="no"?>
<svg
   width="64"
   height="64"
   version="1.1"
   id="svg73"
   sodipodi:docname="godot.svg"
   inkscape:version="1.4.2 (ebf0e940d0, 2025-05-08)"
   xmlns:inkscape="http://www.inkscape.org/namespaces/inkscape"
   xmlns:sodipodi="http://sodipodi.sourceforge.net/DTD/sodipodi-0.dtd"
   xmlns="http://www.w3.org/2000/svg"
   xmlns:svg="http://www.w3.org/2000/svg"
   xmlns:rdf="http://www.w3.org/1999/02/22-rdf-syntax-ns#"
   xmlns:cc="http://creativecommons.org/ns#"
   xmlns:dc="http://purl.org/dc/elements/1.1/">
  <metadata
     id="metadata77">
    <rdf:RDF>
      <cc:Work
         rdf:about="">
        <dc:format>image/svg+xml</dc:format>
        <dc:type
           rdf:resource="http://purl.org/dc/dcmitype/StillImage" />
      </cc:Work>
    </rdf:RDF>
  </metadata>
  <sodipodi:namedview
     pagecolor="#f5f7fa"
     bordercolor="#666666"
     borderopacity="1"
     objecttolerance="10"
     gridtolerance="10"
     guidetolerance="10"
     inkscape:pageopacity="0"
     inkscape:pageshadow="2"
     inkscape:window-width="1377"
     inkscape:window-height="886"
     id="namedview75"
     showgrid="false"
     inkscape:zoom="6.2890624"
     inkscape:cx="46.986336"
     inkscape:cy="42.21615"
     inkscape:window-x="226"
     inkscape:window-y="75"
     inkscape:window-maximized="0"
     inkscape:current-layer="g877"
     inkscape:document-rotation="0"
     inkscape:pagecheckerboard="0"
     inkscape:showpageshadow="2"
     inkscape:deskcolor="#d1d1d1" />
  <defs
     id="defs29" />
  <circle
     cx="32.516094"
     cy="31.877844"
     r="0"
     fill="url(#b)"
     stroke-width="1.5715"
     id="circle41"
     style="fill:url(#b)" />
  <g
     aria-label="GZ"
     transform="matrix(1.2212657,0,0,0.81882264,0.4960938,-0.1661539)"
     id="text93"
     style="font-weight:bold;font-size:11.5263px;line-height:1.25;font-family:sans-serif;-inkscape-font-specification:'sans-serif Bold';fill:#f2f2f2;stroke-width:0.288159" />
  <g
     id="g877"
     transform="matrix(1.1,0,0,1.1,-3.1845928,-3.2065454)">
    <path
       id="path8"
       style="fill:#dfdfdf;fill-opacity:1;stroke:none;stroke-width:0.922862;stroke-dasharray:none;stroke-opacity:0.6"
       d="m 34.963671,5.6525675 c -0.140028,0.00375 -0.230842,0.021659 -0.260754,0.05399 -0.169556,0.1831843 -1.098362,2.5807463 -1.61219,4.1624748 l -0.442003,1.3578637 -1.694871,0.07631 c -1.490368,0.06911 -3.214012,0.334032 -3.892161,0.594657 -0.166383,0.06396 -0.386083,-0.167554 -0.836304,-0.874461 C 25.1543,9.3416529 23.484025,7.0348674 23.338066,7.0358354 22.78569,7.0394654 18.08174,9.3053078 16.66988,10.247509 c -0.194357,0.129693 0.115192,2.211218 0.670953,4.515417 0.155542,0.64498 0.283007,1.288951 0.283007,1.427761 0,0.142339 -0.383585,0.551017 -0.880826,0.938066 -0.484902,0.377431 -1.564993,1.371154 -2.397622,2.210006 l -1.513621,1.526326 -0.531037,-0.270296 C 11.724387,20.301038 9.5287351,19.35289 8.3704131,18.89992 l -0.721833,-0.279828 -0.9921177,1.504075 c -1.1087678,1.682048 -2.430548,4.014609 -2.7919265,4.9288 l -0.2384925,0.601004 0.6804897,0.810863 c 0.3736076,0.445313 1.2579455,1.443716 1.9651614,2.219549 l 1.2846691,1.411863 0.7472685,6.064013 c 0.4105244,3.336112 0.7902697,6.285836 0.842666,6.553721 0.093225,0.476588 0.1179508,0.492385 1.1447529,0.705935 1.284801,0.267247 1.315537,0.316334 1.554957,2.4644 l 0.174888,1.583575 1.755286,0.321089 c 0.964208,0.176252 1.784648,0.28545 1.825252,0.244926 0.04058,-0.04123 -0.02222,-0.822146 -0.139909,-1.736206 -0.221144,-1.717205 -0.17969,-2.041491 0.295726,-2.283154 0.144595,-0.07344 1.632773,-0.03298 3.660032,0.101805 2.695514,0.178649 3.463292,0.273714 3.637774,0.448375 0.148472,0.148585 0.296989,0.831571 0.451533,2.076455 l 0.228951,1.853861 1.071618,0.04756 c 0.588514,0.02663 1.812298,0.05707 2.721967,0.07312 l 1.65354,0.02792 -0.06362,-0.387937 c -0.382482,-2.248324 -0.436001,-3.73745 -0.143115,-3.980543 0.278478,-0.231163 9.642813,-1.405323 10.042028,-1.259236 0.382349,0.139822 0.411033,0.234206 0.686856,2.381736 0.124342,0.968216 0.242887,1.781936 0.267107,1.806156 0.04123,0.04125 5.033932,-1.241714 5.135499,-1.319637 0.02602,-0.02033 -0.06414,-0.904484 -0.197166,-1.965167 -0.235602,-1.875113 -0.233193,-1.936247 0.02537,-2.178211 0.268132,-0.250835 6.316825,-2.264074 6.801741,-2.264072 0.503925,0 0.69454,0.450709 0.912626,2.162305 0.116886,0.917238 0.244987,1.698249 0.283036,1.736214 0.03868,0.03865 0.788498,-0.266232 1.669437,-0.674096 0.8809,-0.407915 1.613898,-0.744919 1.628065,-0.750451 0.01465,-0.0056 -0.06839,-0.734966 -0.184375,-1.621739 -0.115737,-0.886779 -0.175049,-1.75848 -0.130412,-1.936545 0.05326,-0.207252 0.335485,-0.452475 0.785431,-0.680493 0.386603,-0.19589 0.699809,-0.43537 0.696425,-0.531031 -0.0035,-0.09567 -0.375062,-3.092964 -0.826772,-6.661828 l -0.823797,-6.49018 0.531007,-0.915802 c 0.290968,-0.504298 0.91116,-1.685655 1.38006,-2.623394 l 0.852502,-1.704808 -0.950773,-1.116135 c -1.103412,-1.293252 -4.496481,-4.57208 -4.731686,-4.572083 -0.136556,0 -2.786279,1.956094 -4.09885,3.024057 l -0.422863,0.343438 -1.058882,-0.699575 c -0.581922,-0.384645 -1.858934,-1.09435 -2.836458,-1.577229 l -1.777552,-0.877647 -0.09225,-1.691689 C 42.488943,10.68701 42.407257,9.3056642 42.360014,8.5494395 L 42.274189,7.1725598 41.199392,6.8354889 C 39.340245,6.249838 35.944045,5.6260418 34.96367,5.6525626 Z M 45.524029,26.277209 c 0.753076,0.0081 1.487283,0.140963 2.051017,0.400657 1.104911,0.509001 1.805367,1.087169 2.394433,1.974703 2.029725,3.058146 0.610222,7.194412 -2.842799,8.283557 -3.110582,0.981151 -6.197423,-0.752521 -7.014802,-3.943033 -0.274769,-1.072537 -0.190237,-2.181577 0.25438,-3.373842 0.414985,-1.112774 1.839781,-2.528435 3.001802,-2.982718 0.632673,-0.24734 1.402879,-0.367095 2.155962,-0.359326 z m -0.556504,2.334023 c -1.832412,0.0016 -3.492914,1.492353 -3.50105,3.539198 -0.0055,1.431884 0.952175,2.795209 2.31814,3.300705 0.738288,0.273215 1.978149,0.191994 2.696521,-0.17807 2.633528,-1.356667 2.651435,-4.987543 0.03235,-6.292966 -0.50754,-0.252978 -1.032159,-0.36938 -1.545235,-0.368872 z m -24.876114,0.918983 c 1.419642,0 1.620802,0.03674 2.369009,0.403844 1.043527,0.512111 2.07949,1.544895 2.591592,2.588416 0.367179,0.748212 0.400666,0.949366 0.400666,2.369003 0,1.419643 -0.03351,1.620797 -0.400666,2.369 -0.51182,1.042951 -1.54644,2.077003 -2.585231,2.585239 -1.062946,0.520055 -3.088729,0.633106 -4.206971,0.232131 -1.542332,-0.553037 -2.72964,-1.725368 -3.326145,-3.281625 -0.444029,-1.158463 -0.350335,-3.148079 0.203522,-4.280108 0.508237,-1.038789 1.542295,-2.070235 2.585236,-2.582056 0.748213,-0.367169 0.94936,-0.403844 2.369004,-0.403844 z m 0.464272,2.095534 c -0.614596,0.0158 -1.243976,0.198315 -1.82843,0.5851 -1.15544,0.764635 -1.830022,2.318453 -1.548596,3.570997 0.273207,1.215949 1.033729,2.142726 2.162315,2.632931 0.663711,0.288278 2.03958,0.265177 2.728327,-0.0477 1.265332,-0.574784 2.035362,-1.780806 2.038296,-3.192576 0.0042,-2.12285 -1.708138,-3.59668 -3.551912,-3.548736 z m 39.360434,6.496477 c -0.138708,-0.08572 -2.372175,0.920218 -2.372175,1.068438 0,0.05091 0.09645,0.814286 0.213023,1.698054 0.116547,0.883773 0.176429,1.718784 0.133511,1.853868 -0.0763,0.240482 -0.540648,0.484582 -3.914426,2.0542 -1.780864,0.828589 -2.259547,0.882256 -2.483449,0.282976 -0.06416,-0.172444 -0.198312,-1.059897 -0.29883,-1.971522 -0.109274,-0.989521 -0.245496,-1.657344 -0.337073,-1.656721 -0.08441,5.8e-4 -1.106655,0.305087 -2.27043,0.677309 -1.788648,0.572104 -2.112151,0.722043 -2.101884,0.953975 0.007,0.150888 0.09536,1.050936 0.200344,2.003315 0.165004,1.496469 0.165908,1.760874 -0.0096,1.933359 -0.218735,0.215059 -6.944699,2.047834 -7.514046,2.047834 -0.189107,0 -0.422752,-0.09145 -0.51832,-0.206683 -0.09535,-0.11518 -0.280755,-1.06732 -0.413178,-2.1146 -0.132394,-1.047265 -0.280463,-1.946711 -0.330696,-1.996955 -0.08687,-0.08697 -7.308323,0.760867 -7.421816,0.871281 -0.02979,0.02853 0.04805,0.872515 0.174872,1.872941 0.281972,2.2254 0.282662,2.210359 0.01001,2.483484 -0.190487,0.190529 -0.752481,0.219494 -4.003463,0.219494 -3.42246,0 -3.814033,-0.02282 -4.09567,-0.251137 -0.266627,-0.21588 -0.342574,-0.523021 -0.543761,-2.149605 l -0.235393,-1.901562 -2.327669,-0.152645 c -1.279422,-0.08467 -2.348813,-0.135283 -2.378705,-0.111369 -0.02989,0.02345 0.04618,0.853188 0.171753,1.84113 0.203544,1.602588 0.205347,1.831855 0.01595,2.120984 -0.134666,0.205667 -0.34991,0.324326 -0.591452,0.324326 -0.722828,0 -5.751497,-1.014541 -5.943176,-1.198823 -0.113522,-0.109065 -0.279335,-0.903589 -0.407005,-1.939721 L 10.106755,45.025766 8.8220852,44.780906 C 8.1157169,44.646912 7.3940421,44.502114 7.2194706,44.45975 6.9133781,44.385291 6.90466,44.417257 6.90466,45.362838 c 0,3.430731 2.2390916,6.813062 6.041755,9.123051 2.934639,1.782689 7.257408,3.135329 11.73054,3.669571 1.96407,0.234526 7.317224,0.277778 9.329742,0.07628 9.07005,-0.907767 17.136475,-4.102491 22.004707,-8.716029 2.784282,-2.638588 4.182011,-5.280103 4.321452,-8.172264 0.06839,-1.424682 -0.142239,-3.051658 -0.416601,-3.221213 z" />
  </g>
</svg>
