<?xml version="1.0" encoding="UTF-8" standalone="no"?>
<svg
   width="64"
   height="64"
   version="1.1"
   id="svg73"
   sodipodi:docname="google-earth.svg"
   inkscape:version="1.4.2 (ebf0e940d0, 2025-05-08)"
   xmlns:inkscape="http://www.inkscape.org/namespaces/inkscape"
   xmlns:sodipodi="http://sodipodi.sourceforge.net/DTD/sodipodi-0.dtd"
   xmlns="http://www.w3.org/2000/svg"
   xmlns:svg="http://www.w3.org/2000/svg"
   xmlns:rdf="http://www.w3.org/1999/02/22-rdf-syntax-ns#"
   xmlns:cc="http://creativecommons.org/ns#"
   xmlns:dc="http://purl.org/dc/elements/1.1/">
  <metadata
     id="metadata77">
    <rdf:RDF>
      <cc:Work
         rdf:about="">
        <dc:format>image/svg+xml</dc:format>
        <dc:type
           rdf:resource="http://purl.org/dc/dcmitype/StillImage" />
      </cc:Work>
    </rdf:RDF>
  </metadata>
  <sodipodi:namedview
     pagecolor="#f5f7fa"
     bordercolor="#666666"
     borderopacity="1"
     objecttolerance="10"
     gridtolerance="10"
     guidetolerance="10"
     inkscape:pageopacity="0"
     inkscape:pageshadow="2"
     inkscape:window-width="1377"
     inkscape:window-height="886"
     id="namedview75"
     showgrid="false"
     inkscape:zoom="6.2890624"
     inkscape:cx="47.622361"
     inkscape:cy="45.396274"
     inkscape:window-x="16"
     inkscape:window-y="55"
     inkscape:window-maximized="0"
     inkscape:current-layer="g877"
     inkscape:document-rotation="0"
     inkscape:pagecheckerboard="0"
     inkscape:showpageshadow="2"
     inkscape:deskcolor="#d1d1d1" />
  <defs
     id="defs29" />
  <circle
     cx="32.516094"
     cy="31.877844"
     r="0"
     fill="url(#b)"
     stroke-width="1.5715"
     id="circle41"
     style="fill:url(#b)" />
  <g
     aria-label="GZ"
     transform="matrix(1.2212657,0,0,0.81882264,0.4960938,-0.1661539)"
     id="text93"
     style="font-weight:bold;font-size:11.5263px;line-height:1.25;font-family:sans-serif;-inkscape-font-specification:'sans-serif Bold';fill:#f2f2f2;stroke-width:0.288159" />
  <g
     id="g877"
     transform="matrix(1.1,0,0,1.1,-3.1845928,-3.2065454)">
    <path
       style="fill:#dfdfdf;fill-opacity:1;stroke:none;stroke-width:0.94757;stroke-dasharray:none;stroke-opacity:0.6"
       d="M 29.06013,60.091851 C 25.4041,59.697736 21.322876,58.384995 18.130741,56.576344 10.544574,52.278104 5.3986073,44.779959 4.026104,36.024595 3.7830741,34.47427 3.7146406,28.369539 3.9353564,27.924776 4.010518,27.77326 4.2059461,27.004592 4.3696111,26.216651 5.4953408,20.796813 8.1611617,15.922465 12.158313,11.975308 c 4.455769,-4.4000344 9.6587,-6.9850838 15.965145,-7.9321889 1.787003,-0.2683722 5.942469,-0.265195 7.769216,0.00598 6.201958,0.9205649 11.655336,3.6491639 16.023583,8.0174119 5.534414,5.534418 8.459025,12.881472 8.242779,20.707153 -0.206945,7.486115 -3.159047,14.182044 -8.578302,19.456567 -4.320396,4.205022 -9.407628,6.720963 -15.597359,7.713815 -1.313913,0.210696 -5.508489,0.300336 -6.923205,0.147749 z m 17.196761,-6.556102 c 0.603153,-0.399921 1.443847,-1.005644 1.868109,-1.345902 0.809854,-0.649462 3.140756,-2.869878 3.140756,-2.991835 0,-0.03968 -0.428947,-0.0076 -0.953375,0.0681 -2.876638,0.420144 -6.786259,0.462652 -8.946333,0.09748 C 37.144287,48.649961 33.134043,47.205585 25.75408,43.740746 20.348937,41.203063 15.727923,39.610025 11.648273,38.877928 10.514029,38.674359 7.2875093,38.585744 7.1195794,38.753453 c -0.1782209,0.177977 0.8288863,2.941697 1.7226924,4.727443 1.3475862,2.692374 2.7117742,4.575978 4.8976062,6.762361 0.849776,0.849977 1.987567,1.875291 2.528422,2.278452 l 0.983384,0.733045 0.606737,-0.540762 c 1.226634,-1.093281 3.208328,-1.87466 4.754913,-1.87486 0.972646,-10e-5 2.914112,0.318324 4.463164,0.73219 2.991834,0.799251 4.118119,1.074041 5.8558,1.428701 2.151906,0.43922 5.074436,0.866967 7.092895,1.038227 0.757638,0.06445 1.551087,0.133278 1.763222,0.153192 0.212218,0.02012 1.057567,0.04511 1.878744,0.05326 l 1.493,0.01738 z M 56.486402,40.184702 c 0.380949,-1.157019 0.788229,-2.680223 0.8598,-3.215111 0.03155,-0.233375 -0.02663,-0.283948 -0.460205,-0.39922 C 53.673726,35.715367 45.939235,30.650601 37.710955,24.013984 34.438882,21.37485 31.426554,19.437918 27.517303,17.459451 22.553267,14.947157 17.497633,13.267958 14.897822,13.267958 h -0.748456 l -1.010538,1.067774 c -2.79949,2.958052 -4.8735535,6.614642 -6.0211386,10.615328 -0.1581518,0.551348 -0.264696,1.025306 -0.2367885,1.053229 0.027987,0.02807 0.4921154,-0.05914 1.0315497,-0.193383 1.2963863,-0.32269 4.2559724,-0.346312 5.9398494,-0.04729 2.542853,0.451454 5.102111,1.217474 8.044721,2.407917 3.144563,1.272141 4.680478,2.025165 10.965063,5.375917 3.004556,1.60194 9.024093,4.545736 11.193025,5.473828 2.422895,1.036758 4.732925,1.844842 6.095556,2.132292 0.749068,0.158008 1.477688,0.201942 3.447769,0.20803 L 56.0964,41.3698 Z M 57.608773,28.778837 C 57.566327,28.339408 57.406726,27.384789 57.254063,26.657456 56.20691,21.668175 53.484682,16.798505 49.785933,13.298021 45.129935,8.8915935 39.457916,6.5110519 32.806985,6.1719761 l -1.102018,-0.056084 0.661211,0.2908101 c 5.227387,2.2991866 10.37627,6.1413858 15.11358,11.2780518 2.7211,2.950495 3.795034,4.243785 7.313713,8.807492 1.101729,1.428938 2.604698,3.08564 2.799306,3.08564 0.05054,0 0.0586,-0.359533 0.01497,-0.798959 z"
       id="path452" />
  </g>
</svg>
