<?xml version="1.0" encoding="UTF-8" standalone="no"?>
<svg
   width="64"
   height="64"
   version="1.1"
   id="svg73"
   sodipodi:docname="gtkwave.svg"
   inkscape:version="1.4.2 (ebf0e940d0, 2025-05-08)"
   xmlns:inkscape="http://www.inkscape.org/namespaces/inkscape"
   xmlns:sodipodi="http://sodipodi.sourceforge.net/DTD/sodipodi-0.dtd"
   xmlns="http://www.w3.org/2000/svg"
   xmlns:svg="http://www.w3.org/2000/svg"
   xmlns:rdf="http://www.w3.org/1999/02/22-rdf-syntax-ns#"
   xmlns:cc="http://creativecommons.org/ns#"
   xmlns:dc="http://purl.org/dc/elements/1.1/">
  <metadata
     id="metadata77">
    <rdf:RDF>
      <cc:Work
         rdf:about="">
        <dc:format>image/svg+xml</dc:format>
        <dc:type
           rdf:resource="http://purl.org/dc/dcmitype/StillImage" />
      </cc:Work>
    </rdf:RDF>
  </metadata>
  <sodipodi:namedview
     pagecolor="#f5f7fa"
     bordercolor="#666666"
     borderopacity="1"
     objecttolerance="10"
     gridtolerance="10"
     guidetolerance="10"
     inkscape:pageopacity="0"
     inkscape:pageshadow="2"
     inkscape:window-width="1377"
     inkscape:window-height="886"
     id="namedview75"
     showgrid="false"
     inkscape:zoom="4.4470387"
     inkscape:cx="23.498784"
     inkscape:cy="40.363939"
     inkscape:window-x="12"
     inkscape:window-y="50"
     inkscape:window-maximized="0"
     inkscape:current-layer="g877"
     inkscape:document-rotation="0"
     inkscape:pagecheckerboard="0"
     inkscape:showpageshadow="2"
     inkscape:deskcolor="#d1d1d1" />
  <defs
     id="defs29" />
  <circle
     cx="32.516094"
     cy="31.877844"
     r="0"
     fill="url(#b)"
     stroke-width="1.5715"
     id="circle41"
     style="fill:url(#b)" />
  <g
     aria-label="GZ"
     transform="matrix(1.2212657,0,0,0.81882264,0.4960938,-0.1661539)"
     id="text93"
     style="font-weight:bold;font-size:11.5263px;line-height:1.25;font-family:sans-serif;-inkscape-font-specification:'sans-serif Bold';fill:#f2f2f2;stroke-width:0.288159" />
  <g
     id="g877"
     transform="matrix(1.1,0,0,1.1,-3.1845928,-3.2065454)">
    <path
       style="baseline-shift:baseline;display:inline;overflow:visible;fill:#dfdfdf;fill-opacity:1;stroke:none;stroke-width:0.551349;stroke-linecap:square;stroke-linejoin:round;stroke-dasharray:none;stroke-opacity:0.6;enable-background:accumulate;stop-color:#000000"
       d="m 24.760266,14.671932 c -0.869016,-5.78e-4 -1.634532,0.502232 -1.880104,1.23489 L 12.830206,45.897374 H 7.1494676 4.9455968 l 2.3315927,3.442595 h 2.3265864 4.6921031 c 0.86808,-4.05e-4 1.632272,-0.503019 1.877575,-1.23489 L 26.223412,18.114525 h 3.088018 3.585839 1.958441 3.085489 l 10.049952,29.990554 c 0.245303,0.731872 1.009497,1.234486 1.877582,1.23489 h 4.694626 1.958439 c 0.473843,0 2.684243,-3.442595 2.454306,-3.442595 H 57.017671 51.334404 L 41.284441,15.906822 c -0.2453,-0.731871 -1.009489,-1.234484 -1.87757,-1.23489 H 34.85571 32.897269 29.31143 Z"
       id="path4"
       sodipodi:nodetypes="cccccccccccccccccsscccccccc" />
  </g>
</svg>
