<?xml version="1.0" encoding="UTF-8" standalone="no"?>
<svg
   width="64"
   height="64"
   version="1.1"
   id="svg73"
   sodipodi:docname="helio-workstation.svg"
   inkscape:version="1.4.2 (ebf0e940d0, 2025-05-08)"
   xmlns:inkscape="http://www.inkscape.org/namespaces/inkscape"
   xmlns:sodipodi="http://sodipodi.sourceforge.net/DTD/sodipodi-0.dtd"
   xmlns="http://www.w3.org/2000/svg"
   xmlns:svg="http://www.w3.org/2000/svg"
   xmlns:rdf="http://www.w3.org/1999/02/22-rdf-syntax-ns#"
   xmlns:cc="http://creativecommons.org/ns#"
   xmlns:dc="http://purl.org/dc/elements/1.1/">
  <metadata
     id="metadata77">
    <rdf:RDF>
      <cc:Work
         rdf:about="">
        <dc:format>image/svg+xml</dc:format>
        <dc:type
           rdf:resource="http://purl.org/dc/dcmitype/StillImage" />
      </cc:Work>
    </rdf:RDF>
  </metadata>
  <sodipodi:namedview
     pagecolor="#f5f7fa"
     bordercolor="#666666"
     borderopacity="1"
     objecttolerance="10"
     gridtolerance="10"
     guidetolerance="10"
     inkscape:pageopacity="0"
     inkscape:pageshadow="2"
     inkscape:window-width="1377"
     inkscape:window-height="886"
     id="namedview75"
     showgrid="false"
     inkscape:zoom="6.2890624"
     inkscape:cx="46.191305"
     inkscape:cy="49.053417"
     inkscape:window-x="264"
     inkscape:window-y="75"
     inkscape:window-maximized="0"
     inkscape:current-layer="g877"
     inkscape:document-rotation="0"
     inkscape:pagecheckerboard="0"
     inkscape:showpageshadow="2"
     inkscape:deskcolor="#d1d1d1" />
  <defs
     id="defs29" />
  <circle
     cx="32.516094"
     cy="31.877844"
     r="0"
     fill="url(#b)"
     stroke-width="1.5715"
     id="circle41"
     style="fill:url(#b)" />
  <g
     aria-label="GZ"
     transform="matrix(1.2212657,0,0,0.81882264,0.4960938,-0.1661539)"
     id="text93"
     style="font-weight:bold;font-size:11.5263px;line-height:1.25;font-family:sans-serif;-inkscape-font-specification:'sans-serif Bold';fill:#f2f2f2;stroke-width:0.288159" />
  <g
     id="g877"
     transform="matrix(1.1,0,0,1.1,-3.1845928,-3.2065454)">
    <path
       style="fill:#dfdfdf;fill-opacity:1;stroke-width:0.802548"
       d="m 53.922587,14.354184 c -4.606185,1.644132 -5.601121,2.204767 -4.596735,2.590191 0.193711,0.07436 2.420849,-0.605454 4.949054,-1.510703 4.095249,-1.466329 5.580949,-2.014195 5.58095,-2.548787 0,-0.579681 -1.152172,-0.237253 -5.933269,1.469299 z m 4.713581,4.578342 c -0.282321,0.09794 -7.064604,2.39558 -7.228435,2.559428 -0.185884,0.185902 1.374648,3.325932 1.65294,3.325932 0.13395,0 1.496218,-0.445064 3.027245,-0.989031 l 3.91935,-1.140447 0.340698,-2.370059 c 0.152917,-1.063549 0.265426,-2.071794 0.143131,-2.02936 z m -0.0142,6.152873 c -0.261402,0 -4.623613,1.57351 -4.771088,1.720986 -0.08422,0.08421 1.192928,3.1013 1.400746,3.309118 0.05917,0.05918 0.897864,-0.155237 1.863655,-0.476621 l 1.755884,-0.58438 0.340706,-2.173822 c 0.169007,-1.078339 0.493495,-2.211678 0.356367,-2.211683 z m -4.402952,9.847363 -0.844133,-1.522077 -3.07059,1.984762 c -1.688837,1.091615 -3.190573,2.027212 -3.337231,2.079095 -0.259294,0.0917 1.861421,3.126763 2.184836,3.126763 0.387853,0 5.951008,-3.637699 5.932161,-3.878976 -0.01126,-0.147153 -0.400756,-0.952433 -0.865019,-1.789598 z m -2.571017,-4.898316 c -0.436282,-0.735642 -0.829371,-1.439748 -0.873645,-1.564645 -0.06691,-0.188789 -6.491459,3.702803 -7.260312,4.397947 -0.346,0.313108 1.924907,3.249399 2.329253,3.011682 1.991222,-1.170674 6.605945,-4.199475 6.602426,-4.333416 -0.0026,-0.09615 -0.361468,-0.775926 -0.797734,-1.511554 z m -2.681704,-5.196507 c -0.439937,-0.798186 -0.853967,-1.505299 -0.919999,-1.571331 -0.139954,-0.139951 -7.82628,4.691726 -8.05664,5.064429 -0.17629,0.285217 1.737422,2.907241 2.121953,2.907227 0.305043,0 7.662001,-4.626204 7.657675,-4.815298 -0.0014,-0.07328 -0.363025,-0.786846 -0.802967,-1.585047 z m -2.693862,-5.169745 c -0.431869,-0.846028 -0.900958,-1.538241 -1.04234,-1.538218 -0.141374,5.9e-5 -1.794689,0.980521 -3.674066,2.178908 -1.879346,1.198414 -3.87241,2.466412 -4.428989,2.81781 l -1.011986,0.63888 1.14478,1.465764 c 0.749048,0.959113 1.280762,1.413593 1.538141,1.314821 0.521637,-0.200157 7.546049,-4.654601 7.946887,-5.039415 0.237428,-0.227854 0.123397,-0.671661 -0.472394,-1.838584 z M 45.684307,40.94964 c -0.618701,-0.764787 -1.187243,-1.396814 -1.26345,-1.404463 -0.07624,-0.0084 -1.373996,1.225817 -2.884071,2.740967 l -2.745568,2.75485 1.381862,1.124086 c 0.760004,0.618269 1.458317,1.12408 1.551756,1.124085 0.09354,1.48e-4 1.275656,-1.113528 2.627112,-2.474526 l 2.45744,-2.474262 z M 43.568142,14.518497 c -0.446332,-0.882818 -0.847552,-1.645481 -0.89158,-1.69479 -0.06411,-0.0722 -9.64193,5.927283 -9.98465,6.254576 -0.07812,0.07464 0.767115,1.223025 2.120879,2.88153 0.139206,0.170105 8.620923,-4.951865 9.389249,-5.670126 0.0977,-0.09134 -0.187502,-0.888365 -0.633903,-1.77117 z m -1.77439,21.834684 -1.277285,-1.43924 -2.927558,3.117701 c -1.610128,1.714769 -2.950875,3.205087 -2.979411,3.311855 -0.02884,0.106568 0.573377,0.700493 1.337593,1.31932 l 1.389467,1.125196 2.875628,-2.859674 c 1.581696,-1.572708 2.871926,-2.921755 2.867276,-2.99782 -0.0044,-0.07623 -0.583349,-0.785929 -1.285854,-1.577536 z m -3.14635,12.276959 c -0.800265,-0.604174 -1.563835,-1.031297 -1.696832,-0.949099 -0.132954,0.08215 -1.103891,1.549149 -2.157507,3.259927 -1.487166,2.414739 -1.835842,3.164396 -1.558723,3.351579 1.102047,0.744401 2.990292,1.568354 3.156909,1.377555 0.106689,-0.121774 0.98499,-1.508578 1.952356,-3.081515 L 40.10242,49.728694 Z M 39.102257,6.3935196 C 38.974281,6.1917811 38.745105,6.0712603 38.592704,6.1260249 38.105578,6.3008953 28.129394,12.640497 28.122292,12.779655 c -0.0041,0.0737 0.100628,0.303399 0.231871,0.510787 0.188672,0.29799 1.365433,-0.338537 5.613745,-3.03648 2.95629,-1.8774343 5.373223,-3.4314986 5.370968,-3.4534662 -0.0024,-0.022203 -0.108581,-0.2052414 -0.236543,-0.4069666 z M 38.210401,32.114692 c -0.627725,-0.759452 -1.203291,-1.387748 -1.27897,-1.396169 -0.07523,-0.0084 -1.678182,1.528699 -3.561106,3.415802 l -3.423541,3.431076 1.442792,1.23261 1.442776,1.232593 3.259709,-3.26754 3.259699,-3.26753 z m -3.897611,-4.564788 -1.256518,-1.414468 -3.824004,3.837053 -3.823997,3.837055 1.330428,1.121842 c 0.731741,0.617003 1.430899,1.121844 1.553673,1.121844 0.122771,-1.6e-5 1.81023,-1.595091 3.749904,-3.544624 l 3.52665,-3.544632 z m -0.477412,17.500869 c -0.820609,-0.569075 -1.584179,-0.930196 -1.696801,-0.802543 -0.336478,0.381315 -4.003138,6.401334 -4.180517,6.863575 -0.123104,0.320825 0.247813,0.634815 1.491039,1.262409 0.910204,0.459513 1.682956,0.797433 1.717252,0.751013 0.356492,-0.482539 3.916198,-6.381996 4.021293,-6.664324 0.08863,-0.238143 -0.405674,-0.753764 -1.352245,-1.410134 z m -3.377936,-22.057768 -1.146354,-1.367098 -4.079391,4.067501 c -2.243732,2.237061 -4.072725,4.189114 -4.06435,4.337991 0.0083,0.148907 0.637966,0.785444 1.398921,1.414583 l 1.383707,1.143759 3.750718,-3.924504 c 2.062841,-2.158524 3.785058,-4.010063 3.826993,-4.114699 0.04172,-0.1045 -0.439554,-0.805381 -1.070057,-1.557264 z M 29.285724,41.67573 c -0.801,-0.604735 -1.56343,-1.033391 -1.694295,-0.952502 -0.179204,0.110437 -4.395025,6.797492 -5.019628,7.961459 -0.157347,0.293281 3.163875,1.88684 3.406781,1.634615 0.117224,-0.121546 1.236861,-1.868763 2.488243,-3.882571 l 2.27526,-3.661442 z m -1.247298,13.627181 c -0.908879,-0.429772 -1.728543,-0.693312 -1.821491,-0.585505 -0.166617,0.193598 -1.568461,4.38129 -1.568466,4.632804 0,0.07176 0.997562,-0.246177 2.048553,-0.478529 l 2.029621,-0.399984 0.482108,-0.966624 0.482134,-1.420865 z m -1.341134,-36.716743 -1.131466,-1.282627 -4.502356,4.517152 -4.502352,4.517145 1.425893,1.235405 1.425892,1.235395 4.213433,-4.199223 c 2.317394,-2.30956 4.210879,-4.321086 4.207853,-4.469948 -0.0032,-0.148843 -0.514624,-0.847864 -1.136948,-1.553299 z m -1.944204,19.666081 c -0.65625,-0.482755 -1.351537,-0.938515 -1.545115,-1.012788 -0.228856,-0.08783 -1.304705,1.405255 -3.07666,4.269927 -1.498569,2.422759 -2.724709,4.511624 -2.724709,4.641947 -1.3e-5,0.266784 3.140554,1.832045 3.318016,1.65375 0.24201,-0.24318 5.241942,-8.396456 5.232074,-8.531902 -0.0058,-0.07882 -0.547402,-0.538116 -1.203601,-1.020939 z m -1.795521,14.790675 c -0.772462,-0.350359 -1.563475,-0.67478 -1.75783,-0.720872 -0.234911,-0.05568 -0.750533,1.033948 -1.538218,3.25083 -0.651667,1.83401 -1.374126,4.320335 -1.374126,4.368457 -6e-5,0.04789 0.956102,-0.09857 2.07845,-0.142251 l 2.135234,-0.135211 0.949664,-3.279583 c 0.491042,-1.397783 0.897019,-2.57814 0.902078,-2.623082 0.0046,-0.04448 -0.622751,-0.368403 -1.395255,-0.718771 z m 0.01211,-38.899026 -1.124939,-1.382946 -4.903728,4.891544 -4.903716,4.891535 1.414058,1.256893 1.414061,1.256894 4.61458,-4.598052 c 2.538116,-2.528836 4.614658,-4.673359 4.614659,-4.765474 -2.04e-4,-0.09188 -0.506202,-0.789819 -1.124977,-1.5504 z M 19.922632,34.673306 C 18.66245,33.721861 18.395601,33.614847 18.0876,33.937331 c -0.198252,0.207522 -1.472869,2.1831 -2.832519,4.390122 -1.359652,2.207002 -2.64515,4.277044 -2.85665,4.600087 -0.369962,0.565089 -0.321528,0.619193 1.277311,1.426239 1.37576,0.694508 1.72019,0.777582 2.00072,0.482691 0.186387,-0.195957 1.549804,-2.312248 3.029831,-4.70302 l 2.690971,-4.346808 z M 19.156306,9.7032025 17.974281,8.365608 l -5.238033,5.216572 -5.2380365,5.216574 0.874616,0.747088 c 2.2136965,1.890979 1.5128531,2.220007 7.0475775,-3.30865 2.710842,-2.707944 4.92638,-4.984881 4.923352,-5.059929 -0.0034,-0.07499 -0.537402,-0.73839 -1.187549,-1.4740407 z M 16.07916,49.969793 c -0.578886,-0.309826 -0.413446,-0.64834 -2.154752,4.40862 -0.709306,2.059876 -1.372478,3.955906 -1.473717,4.213394 -0.143862,0.365783 -0.04631,0.467738 0.446688,0.465541 0.574901,-0.0025 0.764773,-0.391577 2.152089,-4.413537 1.426209,-4.13467 1.490754,-4.427571 1.02993,-4.674198 z M 15.644764,31.326151 c -0.263944,-0.101277 -0.52219,-0.07215 -0.573941,0.06483 -0.05202,0.136835 -1.528877,2.53602 -3.28251,5.331568 -2.8210675,4.497201 -3.1385264,5.120598 -2.75537,5.410817 0.3782933,0.286497 0.8377743,-0.322467 3.633408,-4.815309 1.760203,-2.828807 3.258398,-5.292748 3.329327,-5.475424 0.07099,-0.182664 -0.08697,-0.415046 -0.350889,-0.516232 z M 14.435045,4.0674789 C 14.123579,3.875015 9.7985793,8.0369742 5.568311,12.599959 3.6627535,14.6554 3.2143968,15.281539 3.5139303,15.469014 3.8024911,15.649596 5.2347697,14.373403 9.3142856,10.300812 12.293684,7.3263437 14.731499,4.748328 14.731492,4.5717496 14.731481,4.3951605 14.598127,4.1682303 14.435076,4.0674709 Z"
       id="path1-8"
       sodipodi:nodetypes="ssssssssscssscssccsccccscscccsscccsscssscccccccccccccscccccccsscscsssccccscccccccssccccccccscccscscccccscccccssccscsssssscccccccccccccscccccsccccccccccccccccccscccccccccccccccccccccccscssccccscccccsccccscccccccscsccccsssscc" />
  </g>
</svg>
