<?xml version="1.0" encoding="UTF-8" standalone="no"?>
<svg
   width="64"
   height="64"
   version="1.1"
   id="svg73"
   sodipodi:docname="heroic.svg"
   inkscape:version="1.4.2 (ebf0e940d0, 2025-05-08)"
   xmlns:inkscape="http://www.inkscape.org/namespaces/inkscape"
   xmlns:sodipodi="http://sodipodi.sourceforge.net/DTD/sodipodi-0.dtd"
   xmlns="http://www.w3.org/2000/svg"
   xmlns:svg="http://www.w3.org/2000/svg"
   xmlns:rdf="http://www.w3.org/1999/02/22-rdf-syntax-ns#"
   xmlns:cc="http://creativecommons.org/ns#"
   xmlns:dc="http://purl.org/dc/elements/1.1/">
  <metadata
     id="metadata77">
    <rdf:RDF>
      <cc:Work
         rdf:about="">
        <dc:format>image/svg+xml</dc:format>
        <dc:type
           rdf:resource="http://purl.org/dc/dcmitype/StillImage" />
      </cc:Work>
    </rdf:RDF>
  </metadata>
  <sodipodi:namedview
     pagecolor="#f5f7fa"
     bordercolor="#666666"
     borderopacity="1"
     objecttolerance="10"
     gridtolerance="10"
     guidetolerance="10"
     inkscape:pageopacity="0"
     inkscape:pageshadow="2"
     inkscape:window-width="1377"
     inkscape:window-height="886"
     id="namedview75"
     showgrid="false"
     inkscape:zoom="6.2890624"
     inkscape:cx="26.633541"
     inkscape:cy="38.877019"
     inkscape:window-x="0"
     inkscape:window-y="75"
     inkscape:window-maximized="0"
     inkscape:current-layer="g877"
     inkscape:document-rotation="0"
     inkscape:pagecheckerboard="0"
     inkscape:showpageshadow="2"
     inkscape:deskcolor="#d1d1d1" />
  <defs
     id="defs29" />
  <circle
     cx="32.516094"
     cy="31.877844"
     r="0"
     fill="url(#b)"
     stroke-width="1.5715"
     id="circle41"
     style="fill:url(#b)" />
  <g
     aria-label="GZ"
     transform="matrix(1.2212657,0,0,0.81882264,0.4960938,-0.1661539)"
     id="text93"
     style="font-weight:bold;font-size:11.5263px;line-height:1.25;font-family:sans-serif;-inkscape-font-specification:'sans-serif Bold';fill:#f2f2f2;stroke-width:0.288159" />
  <g
     id="g877"
     transform="matrix(1.1,0,0,1.1,-3.1845928,-3.2065454)">
    <path
       style="fill:#dfdfdf;fill-opacity:1;stroke:none;stroke-width:0.854745;stroke-dasharray:none;stroke-opacity:0.6"
       d="M 31.048765,59.613006 C 30.746143,59.46049 30.277896,59.167314 30.008209,58.96153 28.779198,58.023801 21.013251,51.270788 20.324206,50.540656 18.920386,49.053109 19.37941,50.464217 13.136746,28.445557 10.113501,17.782194 7.5781167,8.795412 7.502557,8.4749336 7.3099141,7.6578773 7.3246882,6.9812174 7.5445077,6.5502457 7.9018436,5.8498142 8.5420744,5.453446 10.562543,4.6817989 l 1.466923,-0.5602391 h 19.958707 19.958698 l 1.42579,0.5448794 c 2.231094,0.85263 2.811777,1.2142469 3.114941,1.9398259 0.184784,0.442399 0.146411,1.3612715 -0.09482,2.2635553 -0.116354,0.4352546 -2.650197,9.3801476 -5.630775,19.8775256 -6.155438,21.679029 -5.708562,20.309262 -7.109839,21.792327 -0.693442,0.733909 -8.452271,7.482217 -9.676266,8.416015 -0.735143,0.560803 -1.530137,0.934654 -1.987738,0.934654 -0.246644,0 -0.590774,-0.101585 -0.939438,-0.277294 z m 2.104658,-5.775093 c 0.613692,-0.307551 1.115805,-0.597626 1.115805,-0.644295 0,-0.04642 -0.126486,-1.209024 -0.281077,-2.582841 l -0.281103,-2.497858 -0.810927,-0.814693 c -0.446016,-0.448169 -0.854574,-0.814705 -0.907914,-0.814705 -0.05332,0 -0.461904,0.366617 -0.907914,0.814705 l -0.810934,0.814693 -0.28108,2.497858 c -0.154624,1.373817 -0.281094,2.536072 -0.281094,2.582791 0,0.07735 2.092254,1.187583 2.259187,1.198894 0.03919,0.003 0.573368,-0.24682 1.18706,-0.554515 z M 27.14684,46.249018 c 1.280168,-0.127043 2.395364,-0.230858 2.478207,-0.230963 0.0871,-7e-5 0.394472,-0.370017 0.728949,-0.877159 l 0.578323,-0.877074 -0.56748,-0.843939 c -0.36828,-0.547757 -0.640487,-0.859271 -0.775493,-0.887547 -0.264838,-0.05577 -4.992289,-0.517968 -5.294708,-0.517968 -0.196532,0 -0.299342,0.14754 -0.779503,1.118622 l -0.553108,1.118631 0.579555,1.163488 0.579553,1.163499 0.349056,-0.05015 c 0.191972,-0.02698 1.396472,-0.153272 2.676642,-0.280205 z m 13.288534,-0.834842 0.579016,-1.162395 -0.553118,-1.118626 c -0.480164,-0.971105 -0.58296,-1.118619 -0.779497,-1.118619 -0.30244,0 -5.029884,0.462407 -5.29471,0.51791 -0.135005,0.02803 -0.407206,0.339866 -0.775501,0.887534 l -0.567471,0.843952 0.578317,0.877043 c 0.480032,0.727985 0.619747,0.878073 0.822051,0.883069 0.134037,0.0033 1.353985,0.123983 2.710971,0.268182 1.356972,0.144185 2.519813,0.267154 2.584078,0.273356 0.06425,0.0067 0.377387,-0.511926 0.695864,-1.151218 z M 32.898201,41.197741 33.711217,40.380934 35.115465,26.617127 36.519709,12.8533 34.262585,9.4650139 C 33.021164,7.601455 31.997696,6.0767267 31.988205,6.0767267 c -0.0096,0 -1.032966,1.5247283 -2.274384,3.3882872 l -2.25712,3.3882861 1.40424,13.763827 1.404251,13.763807 0.81301,0.816807 c 0.447161,0.449245 0.856661,0.816795 0.910003,0.816795 0.05333,0 0.462836,-0.367536 0.909996,-0.816795 z"
       id="path6" />
  </g>
</svg>
