<?xml version="1.0" encoding="UTF-8" standalone="no"?>
<svg
   width="64"
   height="64"
   version="1.1"
   id="svg73"
   sodipodi:docname="idea.svg"
   inkscape:version="1.4.2 (ebf0e940d0, 2025-05-08)"
   xmlns:inkscape="http://www.inkscape.org/namespaces/inkscape"
   xmlns:sodipodi="http://sodipodi.sourceforge.net/DTD/sodipodi-0.dtd"
   xmlns="http://www.w3.org/2000/svg"
   xmlns:svg="http://www.w3.org/2000/svg"
   xmlns:rdf="http://www.w3.org/1999/02/22-rdf-syntax-ns#"
   xmlns:cc="http://creativecommons.org/ns#"
   xmlns:dc="http://purl.org/dc/elements/1.1/">
  <metadata
     id="metadata77">
    <rdf:RDF>
      <cc:Work
         rdf:about="">
        <dc:format>image/svg+xml</dc:format>
        <dc:type
           rdf:resource="http://purl.org/dc/dcmitype/StillImage" />
      </cc:Work>
    </rdf:RDF>
  </metadata>
  <sodipodi:namedview
     pagecolor="#f5f7fa"
     bordercolor="#666666"
     borderopacity="1"
     objecttolerance="10"
     gridtolerance="10"
     guidetolerance="10"
     inkscape:pageopacity="0"
     inkscape:pageshadow="2"
     inkscape:window-width="1377"
     inkscape:window-height="886"
     id="namedview75"
     showgrid="false"
     inkscape:zoom="6.2890624"
     inkscape:cx="47.622361"
     inkscape:cy="45.396274"
     inkscape:window-x="264"
     inkscape:window-y="75"
     inkscape:window-maximized="0"
     inkscape:current-layer="g877"
     inkscape:document-rotation="0"
     inkscape:pagecheckerboard="0"
     inkscape:showpageshadow="2"
     inkscape:deskcolor="#d1d1d1" />
  <defs
     id="defs29" />
  <circle
     cx="32.516094"
     cy="31.877844"
     r="0"
     fill="url(#b)"
     stroke-width="1.5715"
     id="circle41"
     style="fill:url(#b)" />
  <g
     aria-label="GZ"
     transform="matrix(1.2212657,0,0,0.81882264,0.4960938,-0.1661539)"
     id="text93"
     style="font-weight:bold;font-size:11.5263px;line-height:1.25;font-family:sans-serif;-inkscape-font-specification:'sans-serif Bold';fill:#f2f2f2;stroke-width:0.288159" />
  <g
     id="g877"
     transform="matrix(1.1,0,0,1.1,-3.1845928,-3.2065454)">
    <path
       style="fill:#dfdfdf;stroke-width:0.525005"
       d="M 6.9958217,32.00595 V 7.0682794 H 31.985994 56.976165 V 32.00595 56.943622 H 31.985994 6.9958217 Z M 35.623486,51.828459 c 0.56588,-0.302644 1.165578,-1.010349 1.310738,-1.546809 0.14294,-0.528237 0.06445,-1.493361 -0.156139,-1.919916 -0.228209,-0.441305 -0.709561,-0.903632 -1.188426,-1.141453 -0.384727,-0.19107 -0.832923,-0.200365 -10.94838,-0.22697 -11.74026,-0.03089 -11.158377,-0.06411 -11.92474,0.680205 -0.530866,0.515571 -0.780572,1.103563 -0.783388,1.84468 -0.0046,1.191163 0.707725,2.134219 1.887031,2.498532 0.144754,0.0447 5.011839,0.07299 10.815752,0.06283 l 10.552574,-0.01849 z M 25.055292,36.983816 c 1.882006,-0.403617 2.603196,-2.794276 1.274924,-4.226226 -0.590415,-0.636504 -0.964253,-0.744548 -2.71803,-0.785551 l -1.601261,-0.03743 V 24.4984 17.062197 l 1.601261,-0.03743 c 1.391701,-0.03254 1.656227,-0.06687 2.021264,-0.26231 1.555884,-0.833028 1.867858,-2.844302 0.632768,-4.079392 -0.796495,-0.796496 -0.795807,-0.796423 -7.050895,-0.762115 -5.355242,0.02938 -5.454026,0.03368 -5.866959,0.256923 -0.932976,0.50436 -1.419063,1.299792 -1.415203,2.315842 0.0028,0.740268 0.25245,1.32904 0.78127,1.842619 0.587197,0.570281 1.119573,0.707024 2.752653,0.707024 h 1.398803 v 7.455048 7.455053 h -1.404306 c -0.963326,0 -1.540868,0.04817 -1.839185,0.153432 -1.311476,0.462714 -1.976369,1.809557 -1.586373,3.213452 0.200926,0.723273 1.033102,1.484174 1.837345,1.679965 0.525794,0.128003 10.577289,0.113184 11.181924,-0.01647 z m 12.810742,0.01045 c 2.29523,-0.263998 4.157248,-1.171549 5.599253,-2.729089 3.02636,-3.268829 4.177115,-8.708128 3.713305,-17.551747 -0.150244,-2.864896 -0.156139,-2.909803 -0.453614,-3.456928 -0.861078,-1.583754 -2.980303,-1.793625 -4.162713,-0.412247 -0.607856,0.710142 -0.653236,1.048685 -0.51182,3.818537 0.325321,6.371953 -0.06984,10.007891 -1.376038,12.661475 -0.748635,1.520868 -1.795054,2.359826 -3.229462,2.589199 -0.363497,0.05812 -0.418995,0.04089 -0.419504,-0.130185 -0.0021,-0.742347 -0.619476,-1.654641 -1.383175,-2.04425 -1.207144,-0.615838 -2.668807,-0.18632 -3.338236,0.98096 l -0.316066,0.551117 0.0013,1.942512 c 0.0011,1.693367 0.02733,1.999807 0.204077,2.389203 0.310792,0.684703 0.962317,1.209499 1.735144,1.397642 0.471141,0.114696 2.919957,0.110848 3.937526,-0.0062 z"
       id="path13" />
  </g>
</svg>
