<?xml version="1.0" encoding="UTF-8" standalone="no"?>
<svg
   width="64"
   height="64"
   version="1.1"
   id="svg73"
   sodipodi:docname="im.nheko.Nheko.svg"
   inkscape:version="1.4.2 (ebf0e940d0, 2025-05-08)"
   xmlns:inkscape="http://www.inkscape.org/namespaces/inkscape"
   xmlns:sodipodi="http://sodipodi.sourceforge.net/DTD/sodipodi-0.dtd"
   xmlns="http://www.w3.org/2000/svg"
   xmlns:svg="http://www.w3.org/2000/svg"
   xmlns:rdf="http://www.w3.org/1999/02/22-rdf-syntax-ns#"
   xmlns:cc="http://creativecommons.org/ns#"
   xmlns:dc="http://purl.org/dc/elements/1.1/">
  <metadata
     id="metadata77">
    <rdf:RDF>
      <cc:Work
         rdf:about="">
        <dc:format>image/svg+xml</dc:format>
        <dc:type
           rdf:resource="http://purl.org/dc/dcmitype/StillImage" />
      </cc:Work>
    </rdf:RDF>
  </metadata>
  <sodipodi:namedview
     pagecolor="#f5f7fa"
     bordercolor="#666666"
     borderopacity="1"
     objecttolerance="10"
     gridtolerance="10"
     guidetolerance="10"
     inkscape:pageopacity="0"
     inkscape:pageshadow="2"
     inkscape:window-width="1377"
     inkscape:window-height="886"
     id="namedview75"
     showgrid="false"
     inkscape:zoom="6.2890624"
     inkscape:cx="46.191305"
     inkscape:cy="36.809938"
     inkscape:window-x="226"
     inkscape:window-y="75"
     inkscape:window-maximized="0"
     inkscape:current-layer="g877"
     inkscape:document-rotation="0"
     inkscape:pagecheckerboard="0"
     inkscape:showpageshadow="2"
     inkscape:deskcolor="#d1d1d1" />
  <defs
     id="defs29" />
  <circle
     cx="32.516094"
     cy="31.877844"
     r="0"
     fill="url(#b)"
     stroke-width="1.5715"
     id="circle41"
     style="fill:url(#b)" />
  <g
     aria-label="GZ"
     transform="matrix(1.2212657,0,0,0.81882264,0.4960938,-0.1661539)"
     id="text93"
     style="font-weight:bold;font-size:11.5263px;line-height:1.25;font-family:sans-serif;-inkscape-font-specification:'sans-serif Bold';fill:#f2f2f2;stroke-width:0.288159" />
  <g
     id="g877"
     transform="matrix(1.1,0,0,1.1,-3.1845928,-3.2065454)">
    <path
       id="path98"
       style="fill:#dfdfdf;fill-opacity:1;stroke:none;stroke-width:0.799012;stroke-dasharray:none;stroke-opacity:0.6"
       d="m 29.883831,16.009882 -9.769195,0.09365 -9.77232,0.09677 -2.9806983,4.672358 c -1.6405337,2.569331 -2.9862238,4.792548 -2.9900597,4.940781 -0.00386,0.148248 3.0645389,0.268418 6.819711,0.268418 3.755171,0 6.829073,0.09679 6.829073,0.215362 0,0.118556 -1.724539,3.878733 -3.829648,8.355314 -2.105108,4.476583 -4.3650568,9.310097 -5.0219317,10.742993 l -1.1922779,2.606161 3.4925646,-0.009 3.495686,-0.0091 7.006981,-14.928452 c 3.853993,-8.212297 7.210637,-15.408875 7.45955,-15.990162 z m 18.920407,0.09365 c -5.937603,-0.05238 -10.915114,0.02981 -11.061349,0.181008 -0.146219,0.151179 -1.501444,2.943779 -3.011913,6.204847 -1.510467,3.261072 -4.756877,10.212214 -7.216098,15.44969 -2.459215,5.237472 -4.471562,9.645933 -4.469483,9.794166 v 0.0032 l 0.0032,0.0032 v 0.0032 l 0.0032,0.0032 v 0.0032 c 0.134639,0.13868 1.59902,0.252829 3.361477,0.252829 H 29.77473 L 34.924629,37.043659 40.077644,26.08218 h 3.882714 c 2.135909,0 3.88583,0.06269 3.88583,0.137347 0,0.07464 -2.264328,4.945371 -5.031297,10.824146 -2.766966,5.87877 -5.031287,10.754838 -5.031287,10.836624 0,0.0818 1.56301,0.103411 3.473837,0.0465 l 3.473836,-0.102971 7.434583,-15.81174 7.434572,-15.811741 z" />
  </g>
</svg>
