<?xml version="1.0" encoding="UTF-8" standalone="no"?>
<svg
   width="64"
   height="64"
   version="1.1"
   id="svg73"
   sodipodi:docname="input-remapper.svg"
   inkscape:version="1.4.2 (ebf0e940d0, 2025-05-08)"
   xmlns:inkscape="http://www.inkscape.org/namespaces/inkscape"
   xmlns:sodipodi="http://sodipodi.sourceforge.net/DTD/sodipodi-0.dtd"
   xmlns="http://www.w3.org/2000/svg"
   xmlns:svg="http://www.w3.org/2000/svg"
   xmlns:rdf="http://www.w3.org/1999/02/22-rdf-syntax-ns#"
   xmlns:cc="http://creativecommons.org/ns#"
   xmlns:dc="http://purl.org/dc/elements/1.1/">
  <metadata
     id="metadata77">
    <rdf:RDF>
      <cc:Work
         rdf:about="">
        <dc:format>image/svg+xml</dc:format>
        <dc:type
           rdf:resource="http://purl.org/dc/dcmitype/StillImage" />
      </cc:Work>
    </rdf:RDF>
  </metadata>
  <sodipodi:namedview
     pagecolor="#f5f7fa"
     bordercolor="#666666"
     borderopacity="1"
     objecttolerance="10"
     gridtolerance="10"
     guidetolerance="10"
     inkscape:pageopacity="0"
     inkscape:pageshadow="2"
     inkscape:window-width="1377"
     inkscape:window-height="886"
     id="namedview75"
     showgrid="false"
     inkscape:zoom="6.2890624"
     inkscape:cx="47.622361"
     inkscape:cy="45.396274"
     inkscape:window-x="0"
     inkscape:window-y="75"
     inkscape:window-maximized="0"
     inkscape:current-layer="g877"
     inkscape:document-rotation="0"
     inkscape:pagecheckerboard="0"
     inkscape:showpageshadow="2"
     inkscape:deskcolor="#d1d1d1" />
  <defs
     id="defs29" />
  <circle
     cx="32.516094"
     cy="31.877844"
     r="0"
     fill="url(#b)"
     stroke-width="1.5715"
     id="circle41"
     style="fill:url(#b)" />
  <g
     aria-label="GZ"
     transform="matrix(1.2212657,0,0,0.81882264,0.4960938,-0.1661539)"
     id="text93"
     style="font-weight:bold;font-size:11.5263px;line-height:1.25;font-family:sans-serif;-inkscape-font-specification:'sans-serif Bold';fill:#f2f2f2;stroke-width:0.288159" />
  <g
     id="g877"
     transform="matrix(1.1,0,0,1.1,-3.1845928,-3.2065454)">
    <path
       id="path1"
       style="opacity:1;fill:#dfdfdf;fill-opacity:1;stroke-width:0.504537"
       d="m 22.593632,4.263693 c -0.590525,0.018634 -1.05798,0.1132149 -1.665384,0.2418894 -5.951726,1.2608193 -9.848733,7.5382616 -8.340516,13.4353246 0.529644,2.070891 1.374371,3.510896 3.021979,5.152061 2.23039,2.221661 4.614414,3.227276 7.662216,3.23214 2.491764,0.0042 4.466294,-0.647394 6.596951,-2.176071 0.683983,-0.490732 1.371408,-0.890445 1.527661,-0.888223 0.368338,0.0051 6.75118,1.436967 6.803425,1.526057 0.02187,0.03723 0.302306,0.59483 0.623341,1.239097 1.419908,2.849559 4.526053,5.123858 7.825232,5.729647 1.493678,0.274267 2.094305,0.286108 3.436781,0.06828 2.455937,-0.398471 4.728395,-1.550808 6.342878,-3.216498 C 61.7383,23.128846 60.222811,14.371581 53.375636,10.968471 52.136061,10.352396 50.951783,10.062063 38.323668,7.2783125 27.243369,4.8357662 24.365223,4.207827 22.593632,4.2636864 Z m 1.013307,4.380644 c 0.913307,-0.00891 2.348088,0.3715129 2.545792,0.7916524 0.07314,0.1553992 0.173827,1.0602786 0.223727,2.0109776 l 0.09083,1.72862 1.429479,0.658062 c 1.820998,0.83818 1.999798,1.105365 1.710459,2.557753 -0.32084,1.610504 -0.633981,1.820133 -2.720775,1.820133 h -1.664465 l -0.685885,1.471556 c -0.377327,0.809357 -0.811709,1.566092 -0.96525,1.681719 -0.543003,0.408914 -2.807208,-0.0076 -3.145913,-0.57874 -0.09918,-0.167272 -0.218174,-1.081958 -0.264423,-2.032591 l -0.08416,-1.728388 -1.379126,-0.640816 c -0.758628,-0.352416 -1.496641,-0.738084 -1.639872,-0.856955 -0.307679,-0.255352 -0.329313,-0.846018 -0.07449,-2.034198 0.294563,-1.373518 0.517309,-1.50421 2.564648,-1.50421 h 1.741504 l 0.691635,-1.488341 C 22.361,9.6819571 22.789272,8.9147918 22.932565,8.7958631 23.055976,8.6934311 23.30252,8.6472916 23.606957,8.6443458 Z m 26.076003,5.050201 c 0.910083,0.0085 1.821299,0.492493 2.283902,1.448107 0.572014,1.181628 0.148971,2.696131 -0.911437,3.263639 -1.419361,0.759618 -3.039552,0.276853 -3.660504,-1.090788 -0.407835,-0.898251 -0.405524,-1.355842 0.01067,-2.215387 0.458442,-0.947024 1.36738,-1.414056 2.277461,-1.405571 z m -5.396017,3.634061 c 0.371401,0.01718 0.734561,0.103774 1.042046,0.263272 1.591163,0.82562 1.700226,3.246991 0.196821,4.367534 -0.256641,0.191291 -0.798392,0.362209 -1.261169,0.398013 -2.557665,0.197914 -3.736218,-2.988203 -1.684244,-4.55332 0.4456,-0.339878 1.087541,-0.504077 1.706546,-0.475499 z m 8.753235,2.021554 c 0.873,-0.03725 1.773962,0.3478 2.312649,1.070556 0.849417,1.13967 0.398717,3.022673 -0.879484,3.674758 -1.631673,0.832421 -3.489562,-0.07801 -3.790187,-1.857379 -0.148681,-0.880167 0.441658,-2.121976 1.220476,-2.567414 0.34874,-0.199453 0.739734,-0.303574 1.136546,-0.320521 z m -5.365433,3.57106 c 2.028428,-0.0013 3.211658,2.016009 2.208489,3.7658 -0.206602,0.360368 -0.639276,0.795592 -0.961574,0.967097 -2.169621,1.154484 -4.550655,-1.045645 -3.558644,-3.288243 0.43703,-0.987975 1.16638,-1.443834 2.311729,-1.444654 z m -22.618996,7.519658 c -0.03425,-9.13e-4 -0.0715,-9.13e-4 -0.112203,4.42e-4 -0.542722,0.01985 -1.702401,0.277286 -4.771292,0.960883 -2.712269,0.604154 -5.027891,1.178671 -5.145856,1.276576 -0.117963,0.09792 -0.255951,0.345205 -0.306499,0.549533 -0.144578,0.584431 1.951818,9.792602 2.322763,10.202499 0.171063,0.189001 0.486527,0.343745 0.701063,0.343745 0.573799,0 9.393817,-1.960076 9.801261,-2.178139 0.191262,-0.102366 0.394526,-0.372095 0.451581,-0.599424 0.06175,-0.246028 -0.328728,-2.364478 -0.965016,-5.235248 -0.965635,-4.356677 -1.110371,-4.852654 -1.498459,-5.139868 -0.140334,-0.103829 -0.237184,-0.173204 -0.47734,-0.180956 z m -4.022408,4.263606 c 0.392592,-0.01702 0.931895,0.548384 1.949811,1.648835 1.500645,1.62232 1.783226,2.149904 1.339807,2.501418 -0.11564,0.09164 -1.118283,0.365995 -2.228258,0.609779 -2.083476,0.457608 -2.638633,0.522454 -2.831137,0.329949 -0.233221,-0.233221 -0.06708,-1.044434 0.614144,-2.999218 0.486067,-1.394781 0.73771,-2.072726 1.155633,-2.090763 z m 19.825793,5.88255 c -0.238247,0.0046 -2.506839,0.477471 -5.041469,1.051249 -4.19173,0.948902 -4.638157,1.083173 -4.937765,1.4865 l -0.329494,0.443536 1.062747,4.85407 c 0.861576,3.935572 1.133995,4.925747 1.440281,5.232546 0.207784,0.20811 0.457309,0.378458 0.554366,0.378458 0.344247,0 9.347001,-2.023648 9.72171,-2.185261 0.838758,-0.361746 0.824921,-0.634868 -0.293161,-5.743674 -1.11065,-5.074849 -1.291756,-5.533532 -2.177215,-5.517424 z m -12.997534,2.962892 c -0.73747,0.01174 -2.088751,0.30382 -4.715426,0.887304 -2.613303,0.580514 -4.887578,1.127545 -5.05388,1.215642 -0.661453,0.35041 -0.627445,0.763545 0.474577,5.785065 0.883919,4.027694 1.129583,4.912408 1.432929,5.158037 0.201385,0.163073 0.45244,0.29717 0.557814,0.297991 0.105369,0.0018 2.310575,-0.461856 4.900519,-1.028478 4.943475,-1.081514 5.465914,-1.282601 5.465914,-2.104554 0,-0.409138 -1.754509,-8.544193 -2.030292,-9.413839 -0.171114,-0.539608 -0.294687,-0.80873 -1.032155,-0.797168 z m 7.631864,1.33843 c 0.373888,0.0037 0.986214,0.197287 1.924292,0.487221 2.245955,0.694164 2.755951,0.956018 2.755951,1.41523 0,0.184803 -0.714791,0.992095 -1.709307,1.930262 -0.940149,0.886893 -1.796087,1.612513 -1.901984,1.612513 -0.530739,0 -0.757753,-0.511799 -1.211049,-2.728598 -0.416404,-2.03638 -0.571689,-2.723305 0.142107,-2.716628 z m -20.724361,1.578707 c -0.710714,-0.01113 -2.08692,0.276126 -4.9798425,0.916498 -4.0190663,0.889661 -4.8898989,1.13403 -5.1382675,1.440751 -0.1644703,0.203126 -0.2993632,0.493331 -0.2996015,0.644958 -3.419e-4,0.151646 0.4701825,2.392005 1.0452672,4.978691 0.7163079,3.22189 1.1401092,4.797621 1.3457862,5.003302 0.1651287,0.165109 0.4896943,0.300284 0.7212931,0.300284 0.8386943,0 9.580862,-2.038029 9.871855,-2.301372 0.161515,-0.146191 0.335518,-0.397806 0.386743,-0.559197 0.09355,-0.294752 -1.793769,-9.167778 -2.102029,-9.882432 -0.148297,-0.343821 -0.298428,-0.532862 -0.851204,-0.541483 z m 11.30363,0.907302 c 0.409913,0.01562 0.552032,0.164967 0.607711,0.454578 0.02477,0.128828 -0.284232,1.218004 -0.686576,2.420478 -0.9731,2.908314 -0.999101,2.912767 -3.204316,0.560116 -0.890962,-0.950534 -1.619864,-1.819412 -1.619864,-1.93096 0,-0.451423 0.576402,-0.699714 2.689041,-1.157935 1.126443,-0.244319 1.804092,-0.361983 2.214004,-0.346277 z m -13.86529,2.647198 c 0.140217,-0.0026 0.247528,0.06426 0.345812,0.185778 0.198267,0.245095 1.048259,3.951506 1.048259,4.570804 0,0.243802 -0.1366,0.493933 -0.325124,0.594833 -0.178913,0.09573 -0.349265,0.167995 -0.378462,0.160712 -0.404755,-0.10087 -4.1522485,-1.452635 -4.3033918,-1.552268 -0.461263,-0.304058 -0.1345212,-0.823056 1.4917948,-2.369436 1.189,-1.130548 1.762727,-1.584805 2.121112,-1.590431 z" />
  </g>
</svg>
