<?xml version="1.0" encoding="UTF-8" standalone="no"?>
<svg
   width="64"
   height="64"
   version="1.1"
   id="svg73"
   sodipodi:docname="intellij-idea-community.svg"
   inkscape:version="1.4.2 (ebf0e940d0, 2025-05-08)"
   xmlns:inkscape="http://www.inkscape.org/namespaces/inkscape"
   xmlns:sodipodi="http://sodipodi.sourceforge.net/DTD/sodipodi-0.dtd"
   xmlns="http://www.w3.org/2000/svg"
   xmlns:svg="http://www.w3.org/2000/svg"
   xmlns:rdf="http://www.w3.org/1999/02/22-rdf-syntax-ns#"
   xmlns:cc="http://creativecommons.org/ns#"
   xmlns:dc="http://purl.org/dc/elements/1.1/">
  <metadata
     id="metadata77">
    <rdf:RDF>
      <cc:Work
         rdf:about="">
        <dc:format>image/svg+xml</dc:format>
        <dc:type
           rdf:resource="http://purl.org/dc/dcmitype/StillImage" />
      </cc:Work>
    </rdf:RDF>
  </metadata>
  <sodipodi:namedview
     pagecolor="#f5f7fa"
     bordercolor="#666666"
     borderopacity="1"
     objecttolerance="10"
     gridtolerance="10"
     guidetolerance="10"
     inkscape:pageopacity="0"
     inkscape:pageshadow="2"
     inkscape:window-width="1377"
     inkscape:window-height="886"
     id="namedview75"
     showgrid="false"
     inkscape:zoom="6.2890624"
     inkscape:cx="47.622361"
     inkscape:cy="45.396274"
     inkscape:window-x="264"
     inkscape:window-y="75"
     inkscape:window-maximized="0"
     inkscape:current-layer="g877"
     inkscape:document-rotation="0"
     inkscape:pagecheckerboard="0"
     inkscape:showpageshadow="2"
     inkscape:deskcolor="#d1d1d1" />
  <defs
     id="defs29" />
  <circle
     cx="32.516094"
     cy="31.877844"
     r="0"
     fill="url(#b)"
     stroke-width="1.5715"
     id="circle41"
     style="fill:url(#b)" />
  <g
     aria-label="GZ"
     transform="matrix(1.2212657,0,0,0.81882264,0.4960938,-0.1661539)"
     id="text93"
     style="font-weight:bold;font-size:11.5263px;line-height:1.25;font-family:sans-serif;-inkscape-font-specification:'sans-serif Bold';fill:#f2f2f2;stroke-width:0.288159" />
  <g
     id="g877"
     transform="matrix(1.1,0,0,1.1,-3.1845928,-3.2065454)">
    <path
       style="fill:#dfdfdf;stroke-width:0.577505"
       d="M 4.4968045,32.00595 V 4.5745123 H 31.985994 59.475182 V 32.00595 59.437389 H 31.985994 4.4968045 Z M 35.987235,53.81071 c 0.622468,-0.332909 1.282136,-1.111384 1.441812,-1.70149 0.157234,-0.581061 0.0709,-1.642697 -0.171753,-2.111908 -0.25103,-0.485435 -0.780517,-0.993995 -1.307268,-1.255598 -0.4232,-0.210177 -0.916216,-0.220401 -12.043218,-0.249667 -12.914286,-0.03398 -12.274215,-0.07052 -13.117214,0.748226 -0.583953,0.567128 -0.8586296,1.213919 -0.8617272,2.029148 -0.00506,1.310279 0.7784972,2.34764 2.0757342,2.748385 0.159229,0.04917 5.513023,0.08029 11.897327,0.06911 L 35.508759,54.06658 Z M 24.362222,37.481603 c 2.070206,-0.443979 2.863515,-3.073704 1.402416,-4.648849 C 25.115182,32.1326 24.70396,32.013751 22.774805,31.968648 l -1.761387,-0.04117 v -8.17983 -8.179823 l 1.761387,-0.04117 c 1.530871,-0.03579 1.82185,-0.07356 2.223391,-0.288541 1.711472,-0.916331 2.054643,-3.128733 0.696044,-4.487332 -0.876144,-0.8761452 -0.875387,-0.8760649 -7.755984,-0.8383261 -5.890766,0.032318 -5.999429,0.037048 -6.453655,0.2826151 -1.026274,0.554796 -1.5609692,1.429771 -1.5567232,2.547426 0.00308,0.814295 0.2776952,1.461944 0.8593972,2.026881 0.645916,0.627309 1.23153,0.777727 3.027918,0.777727 h 1.538683 v 8.200553 8.200558 H 13.80914 c -1.059659,0 -1.694955,0.05299 -2.023104,0.168775 -1.442623,0.508985 -2.1740056,1.990513 -1.74501,3.534797 0.221019,0.795601 1.136412,1.632592 2.021079,1.847962 0.578374,0.140803 11.635018,0.124502 12.300117,-0.01812 z m 14.091816,0.0115 c 2.524753,-0.290398 4.572973,-1.288704 6.159178,-3.001998 3.328996,-3.595712 4.594827,-9.578941 4.084636,-19.306922 C 48.532583,12.032797 48.526099,11.9834 48.198876,11.381562 47.251691,9.6394327 44.920543,9.4085746 43.619892,10.92809 c -0.668641,0.781157 -0.718559,1.153554 -0.563002,4.200391 0.357853,7.009148 -0.07682,11.00868 -1.513642,13.927623 -0.823498,1.672954 -1.974559,2.595808 -3.552408,2.848119 -0.399847,0.06393 -0.460894,0.04498 -0.461454,-0.143204 -0.0023,-0.816582 -0.681424,-1.820105 -1.521493,-2.248675 -1.327858,-0.677422 -2.935687,-0.204952 -3.672059,1.079056 l -0.347673,0.606229 0.0014,2.136763 c 0.0012,1.862704 0.03006,2.199788 0.224485,2.628123 0.341871,0.753174 1.058548,1.330449 1.908658,1.537406 0.518255,0.126166 3.211953,0.121933 4.331279,-0.0068 z"
       id="path13" />
  </g>
</svg>
