<?xml version="1.0" encoding="UTF-8" standalone="no"?>
<svg
   width="64"
   height="64"
   version="1.1"
   id="svg73"
   sodipodi:docname="io.atom.Atom.svg"
   inkscape:version="1.4.2 (ebf0e940d0, 2025-05-08)"
   xmlns:inkscape="http://www.inkscape.org/namespaces/inkscape"
   xmlns:sodipodi="http://sodipodi.sourceforge.net/DTD/sodipodi-0.dtd"
   xmlns="http://www.w3.org/2000/svg"
   xmlns:svg="http://www.w3.org/2000/svg"
   xmlns:rdf="http://www.w3.org/1999/02/22-rdf-syntax-ns#"
   xmlns:cc="http://creativecommons.org/ns#"
   xmlns:dc="http://purl.org/dc/elements/1.1/">
  <metadata
     id="metadata77">
    <rdf:RDF>
      <cc:Work
         rdf:about="">
        <dc:format>image/svg+xml</dc:format>
        <dc:type
           rdf:resource="http://purl.org/dc/dcmitype/StillImage" />
      </cc:Work>
    </rdf:RDF>
  </metadata>
  <sodipodi:namedview
     pagecolor="#f5f7fa"
     bordercolor="#666666"
     borderopacity="1"
     objecttolerance="10"
     gridtolerance="10"
     guidetolerance="10"
     inkscape:pageopacity="0"
     inkscape:pageshadow="2"
     inkscape:window-width="1377"
     inkscape:window-height="886"
     id="namedview75"
     showgrid="false"
     inkscape:zoom="6.2890624"
     inkscape:cx="30.767702"
     inkscape:cy="36.173914"
     inkscape:window-x="0"
     inkscape:window-y="75"
     inkscape:window-maximized="0"
     inkscape:current-layer="g877"
     inkscape:document-rotation="0"
     inkscape:pagecheckerboard="0"
     inkscape:showpageshadow="2"
     inkscape:deskcolor="#d1d1d1" />
  <defs
     id="defs29" />
  <circle
     cx="32.516094"
     cy="31.877844"
     r="0"
     fill="url(#b)"
     stroke-width="1.5715"
     id="circle41"
     style="fill:url(#b)" />
  <g
     aria-label="GZ"
     transform="matrix(1.2212657,0,0,0.81882264,0.4960938,-0.1661539)"
     id="text93"
     style="font-weight:bold;font-size:11.5263px;line-height:1.25;font-family:sans-serif;-inkscape-font-specification:'sans-serif Bold';fill:#f2f2f2;stroke-width:0.288159" />
  <g
     id="g877"
     transform="matrix(1.1,0,0,1.1,-3.1845928,-3.2065454)">
    <path
       style="fill:#dfdfdf;fill-opacity:1;stroke:none;stroke-width:0.783116;stroke-dasharray:none;stroke-opacity:0.6"
       d="m 21.993253,6.8895287 c -0.636495,-0.01786 -1.234258,0.039289 -1.632637,0.1717002 -1.954378,0.6611851 -3.18083,2.0837808 -3.859455,4.4590811 -0.586298,2.070087 -0.571179,5.796859 0.0409,9.04083 0.107415,0.563643 0.216832,1.075741 0.242576,1.158383 0.03223,0.116511 -0.17496,0.190276 -1.09842,0.397937 -4.514464,1.017035 -7.8102849,2.532113 -9.7903786,4.502695 -0.8890821,0.87724 -1.3824467,1.64552 -1.668066,2.613858 -0.2018754,0.671708 -0.2018754,2.002414 0,2.665638 0.5541566,1.82224 2.1135565,3.535537 4.5790127,5.05054 1.7116399,1.042518 2.2233149,1.157216 2.7773879,0.610536 0.259862,-0.256384 0.318894,-0.376897 0.318894,-0.684127 0,-0.5954 -0.186781,-0.836363 -0.992123,-1.291934 -5.0490074,-2.805231 -5.9364153,-5.61926 -2.5647828,-8.119572 1.7116938,-1.267056 4.1022748,-2.269597 7.3236918,-3.047227 1.41097,-0.339022 1.728033,-0.381194 1.728033,-0.198964 0,0.247839 1.038492,3.52609 1.575397,4.941515 l 0.556024,1.482731 -0.730463,1.387328 c -2.918653,5.561896 -4.792337,11.234006 -5.017836,15.38058 -0.184691,3.195136 0.402857,5.480361 1.828878,6.895783 1.559227,1.540462 3.758822,1.869938 6.585064,0.975769 1.065032,-0.338983 3.18002,-1.398344 4.412748,-2.226825 0.889115,-0.586948 1.083861,-0.761211 1.20199,-1.068436 0.118108,-0.307184 0.118108,-0.405683 0,-0.727736 -0.17611,-0.480916 -0.546828,-0.746812 -1.049355,-0.746812 -0.326438,0 -0.550361,0.09866 -1.390056,0.662324 -1.904901,1.275588 -3.691944,2.071558 -5.175919,2.319484 -2.055171,0.347575 -3.373193,-0.546762 -3.976657,-2.665636 -0.259884,-0.919641 -0.244741,-3.865028 0.04089,-5.388521 0.435998,-2.423983 1.19855,-4.942178 2.289529,-7.590808 0.646389,-1.572166 1.879392,-4.203579 2.046914,-4.377319 0.08374,-0.09109 0.194474,0.05752 0.471534,0.686851 1.410996,3.127311 3.567333,6.943105 5.671977,10.03022 5.025616,7.360982 10.527357,12.153791 14.7646,12.840324 l -0.04621,0.0082 c 1.861946,0.29664 3.431612,-0.160794 4.647142,-1.360089 0.990021,-0.993881 1.64484,-2.391278 2.014225,-4.336431 0.225536,-1.216316 0.225536,-4.619167 0,-6.282518 -0.687333,-4.957879 -2.515157,-10.64242 -5.257631,-16.304233 -0.427401,-0.885696 -0.66972,-1.101144 -1.223796,-1.101144 -0.620657,-0.0083 -1.125667,0.462132 -1.125667,1.057532 0,0.207646 0.212001,0.769882 0.5642,1.507257 3.3802,7.108946 5.191629,13.986803 5.006935,18.96202 -0.113776,2.964319 -0.863909,4.745611 -2.281335,5.432135 -0.745265,0.362359 -1.685963,0.354694 -2.927281,-0.04404 C 35.175781,52.665429 27.45772,43.146334 22.48387,31.888572 l -0.496053,-1.122945 0.722286,-1.218349 c 0.813838,-1.381541 2.868765,-4.467558 3.81584,-5.734669 l 0.637791,-0.842211 h 1.67896 c 10.194653,0 20.285259,2.27353 25.637027,5.759203 1.090977,0.711923 2.406771,2.013976 2.801916,2.774662 0.285656,0.529738 0.313487,0.670231 0.313487,1.373702 0,0.688656 -0.0277,0.853921 -0.261685,1.275588 -0.655111,1.241598 -2.383492,2.531009 -4.606262,3.45061 -1.030839,0.430152 -1.308302,0.713163 -1.308302,1.300115 0,0.495821 0.329202,0.90922 0.823135,1.057532 0.319959,0.09109 0.428951,0.07531 1.000307,-0.147169 3.590842,-1.400522 6.04981,-3.57674 6.552346,-5.778277 0.141725,-0.595405 0.130878,-1.71377 -0.01125,-2.292233 -0.26789,-1.135633 -1.222074,-2.590863 -2.321645,-3.567681 -4.898621,-4.33748 -15.292479,-7.134253 -27.623999,-7.424545 l -0.880374,-0.02725 1.030281,-1.142029 c 0.554071,-0.637794 1.542712,-1.695958 2.221367,-2.373997 3.507124,-3.517493 6.764262,-5.818701 9.607749,-6.778577 0.906289,-0.313614 1.087199,-0.348883 2.027849,-0.348883 0.87407,0 1.082951,0.02741 1.460924,0.21805 0.513262,0.239436 1.090394,0.826725 1.38462,1.381881 0.577675,1.133701 0.773112,3.119686 0.49608,5.238608 -0.09229,0.728898 -0.169044,1.571301 -0.169044,1.861592 0,0.489481 0.01629,0.564604 0.302567,0.804046 0.234179,0.21613 0.394864,0.272567 0.697747,0.272567 0.487492,0 0.938601,-0.254852 1.073895,-0.60236 0.401556,-1.025687 0.61145,-4.660591 0.351639,-6.192569 C 49.03923,10.710958 48.015519,9.1223134 46.387636,8.3531439 43.509921,6.9799723 39.332793,8.3208479 34.45767,12.177167 c -2.549298,2.019284 -5.905313,5.445236 -8.220417,8.375775 l -0.226222,0.264396 -1.368252,0.07632 c -1.148773,0.06571 -3.018892,0.247862 -5.192279,0.504238 l -0.4688,0.05721 -0.201699,-1.133848 c -0.392977,-2.258889 -0.427883,-2.597607 -0.427883,-4.758901 0,-1.896393 0.02509,-2.262007 0.209878,-3.022695 0.453135,-1.91978 1.351466,-3.1127499 2.534808,-3.3606624 1.627963,-0.3389122 3.649483,0.4637292 6.484207,2.5402584 0.906287,0.671684 2.007798,0.100056 1.872492,-0.959408 C 29.395511,10.297953 28.966955,9.8987297 27.523764,8.9473353 26.314626,8.1442792 24.957799,7.4814147 23.849648,7.1593333 23.304147,6.9982992 22.630012,6.9072443 21.993513,6.889502 Z m 1.469099,16.2963883 c 0.414095,-0.0263 0.689577,-0.03116 0.689577,0 0,0.04234 -0.385101,0.629625 -0.864012,1.324641 -0.478916,0.686524 -1.157778,1.695599 -1.509983,2.267701 -0.343617,0.555157 -0.680228,1.05969 -0.74682,1.133848 -0.09232,0.09747 -0.227591,-0.167802 -0.637789,-1.4582 -0.586326,-1.779758 -0.838333,-2.738355 -0.763177,-2.820995 0.09336,-0.09374 2.589935,-0.368127 3.832204,-0.446995 z m 8.522963,6.02903 c -1.540649,0 -2.791016,1.255149 -2.791016,2.79374 0,1.538623 1.250393,2.788296 2.791016,2.788296 1.540646,0 2.791016,-1.249698 2.791016,-2.788296 0,-1.538522 -1.250397,-2.79374 -2.791016,-2.79374 z"
       id="path3-7" />
  </g>
</svg>
