<?xml version="1.0" encoding="UTF-8" standalone="no"?>
<svg
   width="64"
   height="64"
   version="1.1"
   id="svg73"
   sodipodi:docname="io.github.diegoivan.pdf_metadata_editor.svg"
   inkscape:version="1.4.2 (ebf0e940d0, 2025-05-08)"
   xmlns:inkscape="http://www.inkscape.org/namespaces/inkscape"
   xmlns:sodipodi="http://sodipodi.sourceforge.net/DTD/sodipodi-0.dtd"
   xmlns="http://www.w3.org/2000/svg"
   xmlns:svg="http://www.w3.org/2000/svg"
   xmlns:rdf="http://www.w3.org/1999/02/22-rdf-syntax-ns#"
   xmlns:cc="http://creativecommons.org/ns#"
   xmlns:dc="http://purl.org/dc/elements/1.1/">
  <metadata
     id="metadata77">
    <rdf:RDF>
      <cc:Work
         rdf:about="">
        <dc:format>image/svg+xml</dc:format>
        <dc:type
           rdf:resource="http://purl.org/dc/dcmitype/StillImage" />
      </cc:Work>
    </rdf:RDF>
  </metadata>
  <sodipodi:namedview
     pagecolor="#f5f7fa"
     bordercolor="#666666"
     borderopacity="1"
     objecttolerance="10"
     gridtolerance="10"
     guidetolerance="10"
     inkscape:pageopacity="0"
     inkscape:pageshadow="2"
     inkscape:window-width="1377"
     inkscape:window-height="886"
     id="namedview75"
     showgrid="false"
     inkscape:zoom="6.2890624"
     inkscape:cx="46.191305"
     inkscape:cy="36.809938"
     inkscape:window-x="226"
     inkscape:window-y="75"
     inkscape:window-maximized="0"
     inkscape:current-layer="g877"
     inkscape:document-rotation="0"
     inkscape:pagecheckerboard="0"
     inkscape:showpageshadow="2"
     inkscape:deskcolor="#d1d1d1" />
  <defs
     id="defs29" />
  <circle
     cx="32.516094"
     cy="31.877844"
     r="0"
     fill="url(#b)"
     stroke-width="1.5715"
     id="circle41"
     style="fill:url(#b)" />
  <g
     aria-label="GZ"
     transform="matrix(1.2212657,0,0,0.81882264,0.4960938,-0.1661539)"
     id="text93"
     style="font-weight:bold;font-size:11.5263px;line-height:1.25;font-family:sans-serif;-inkscape-font-specification:'sans-serif Bold';fill:#f2f2f2;stroke-width:0.288159" />
  <g
     id="g877"
     transform="matrix(1.1,0,0,1.1,-3.1845928,-3.2065454)">
    <path
       style="fill:#dfdfdf;fill-opacity:1;stroke:none;stroke-width:0.830574;stroke-dasharray:none;stroke-opacity:0.6"
       d="m 27.551061,57.372452 c -0.474055,-0.247207 -0.693281,-0.474123 -0.906442,-0.938303 -0.237242,-0.516646 -0.248455,-0.98838 -0.03563,-1.501599 0.11449,-0.276143 3.967513,-4.202509 13.125594,-13.375427 9.894119,-9.910173 13.078641,-13.160875 13.449747,-13.729319 2.57642,-3.946421 2.616655,-8.80071 0.104335,-12.588447 -3.009358,-4.537115 -8.92739,-6.2913732 -13.92211,-4.126883 -1.990703,0.862676 -1.650956,0.547965 -15.375941,14.24301 -6.988975,6.973738 -12.983434,13.022679 -13.321014,13.442097 -1.1373893,1.413093 -1.6824613,2.971337 -1.6824613,4.809744 0,3.55549 2.3093323,6.536064 5.7894463,7.472222 1.028424,0.27665 2.77012,0.25793 3.822992,-0.04167 0.962879,-0.273571 1.895863,-0.716252 2.579275,-1.223866 0.266351,-0.19782 5.695941,-5.578611 12.065754,-11.957286 7.820002,-7.83073 11.652032,-11.739271 11.798685,-12.03411 0.453248,-0.91118 0.464496,-2.141993 0.02797,-3.127411 -0.247661,-0.55991 -0.990326,-1.33336 -1.556312,-1.620847 -1.037251,-0.526866 -2.414,-0.505188 -3.400701,0.05353 -0.295375,0.167289 -4.60057,4.386349 -11.460037,11.230826 -6.042799,6.029609 -11.102877,11.022055 -11.244618,11.094342 -0.356676,0.181923 -1.260471,0.164545 -1.637237,-0.03138 -0.420702,-0.218834 -0.742203,-0.577749 -0.938761,-1.048165 -0.218578,-0.523112 -0.204896,-0.97897 0.04479,-1.493243 0.141316,-0.290692 3.786347,-3.998182 11.381404,-11.57641 12.112387,-12.085545 11.617771,-11.634309 13.381496,-12.207826 0.608861,-0.197982 1.145917,-0.287001 1.945049,-0.322425 1.443591,-0.06398 2.382019,0.133453 3.679553,0.774103 0.829511,0.409567 1.150378,0.645793 1.895471,1.395493 2.869212,2.886937 2.942218,7.180907 0.175419,10.316062 C 46.904875,29.748728 41.49555,35.190209 35.316156,41.351457 23.502047,53.131201 23.570719,53.067449 21.720927,53.972183 15.531482,56.999739 7.9242317,53.807945 5.7388935,47.266461 5.3716644,46.16723 5.1052421,44.585228 5.104948,43.502155 5.1039244,41.270795 5.974518,38.610378 7.3089859,36.763547 7.5558113,36.421974 13.701529,30.199981 20.966143,22.936895 32.748571,11.156958 34.281775,9.6605143 35.167754,9.0757466 c 1.800095,-1.1881001 3.63336,-1.9641454 5.630485,-2.3834649 1.327844,-0.2788021 4.651226,-0.2831424 5.940291,-0.00774 5.302544,1.1327352 9.624031,4.9086093 11.333216,9.9023293 0.583397,1.704446 0.786173,2.9514 0.795105,4.888917 0.01647,3.497079 -0.890924,6.300872 -2.959114,9.146999 -0.700883,0.964526 -26.192938,26.521966 -26.688804,26.757265 -0.431923,0.20492 -1.267495,0.201144 -1.667839,-0.008 z"
       id="path1" />
  </g>
</svg>
