<?xml version="1.0" encoding="UTF-8" standalone="no"?>
<svg
   width="64"
   height="64"
   version="1.1"
   id="svg73"
   sodipodi:docname="io.github.flattool.Warehouse.svg"
   inkscape:version="1.4.2 (ebf0e940d0, 2025-05-08)"
   xmlns:inkscape="http://www.inkscape.org/namespaces/inkscape"
   xmlns:sodipodi="http://sodipodi.sourceforge.net/DTD/sodipodi-0.dtd"
   xmlns="http://www.w3.org/2000/svg"
   xmlns:svg="http://www.w3.org/2000/svg"
   xmlns:rdf="http://www.w3.org/1999/02/22-rdf-syntax-ns#"
   xmlns:cc="http://creativecommons.org/ns#"
   xmlns:dc="http://purl.org/dc/elements/1.1/">
  <metadata
     id="metadata77">
    <rdf:RDF>
      <cc:Work
         rdf:about="">
        <dc:format>image/svg+xml</dc:format>
        <dc:type
           rdf:resource="http://purl.org/dc/dcmitype/StillImage" />
      </cc:Work>
    </rdf:RDF>
  </metadata>
  <sodipodi:namedview
     pagecolor="#f5f7fa"
     bordercolor="#666666"
     borderopacity="1"
     objecttolerance="10"
     gridtolerance="10"
     guidetolerance="10"
     inkscape:pageopacity="0"
     inkscape:pageshadow="2"
     inkscape:window-width="1301"
     inkscape:window-height="799"
     id="namedview75"
     showgrid="false"
     inkscape:zoom="6.2890624"
     inkscape:cx="32.357764"
     inkscape:cy="45.316771"
     inkscape:window-x="24"
     inkscape:window-y="32"
     inkscape:window-maximized="0"
     inkscape:current-layer="g877"
     inkscape:document-rotation="0"
     inkscape:pagecheckerboard="0"
     inkscape:showpageshadow="2"
     inkscape:deskcolor="#d1d1d1" />
  <defs
     id="defs29">
    <linearGradient
       id="b"
       x1="399.57"
       x2="399.57"
       y1="545.8"
       y2="517.8"
       gradientTransform="matrix(2.1429,0,0,2.1429,-825.86391,-1107.6662)"
       gradientUnits="userSpaceOnUse">
      <stop
         stop-color="#3889e9"
         offset="0"
         id="stop2" />
      <stop
         stop-color="#5ea5fb"
         offset="1"
         id="stop4" />
    </linearGradient>
  </defs>
  <circle
     cx="32.516094"
     cy="31.877844"
     r="0"
     fill="url(#b)"
     stroke-width="1.5715"
     id="circle41"
     style="fill:url(#b)" />
  <g
     aria-label="GZ"
     transform="matrix(1.2212657,0,0,0.81882264,0.4960938,-0.1661539)"
     id="text93"
     style="font-weight:bold;font-size:11.5263px;line-height:1.25;font-family:sans-serif;-inkscape-font-specification:'sans-serif Bold';fill:#f2f2f2;stroke-width:0.288159" />
  <g
     id="g877"
     transform="matrix(1.1,0,0,1.1,-3.1845928,-3.2065454)">
    <path
       d="m 31.985991,4.943035 c -1.274968,0 -2.547652,0.3302078 -3.691912,0.9906194 L 10.859535,16.00043 a 7.3769479,7.3769478 0 0 0 -3.6919142,6.393198 v 20.133554 c 0,2.639372 1.4033853,5.072363 3.6919142,6.393198 l 17.434544,10.066765 a 7.3769479,7.3769478 0 0 0 7.383829,0 L 53.112457,48.92038 a 7.3769479,7.3769478 0 0 0 3.691901,-6.393198 V 22.393628 A 7.3769479,7.3769478 0 0 0 53.112457,16.00043 L 35.677908,5.9336544 A 7.3792413,7.3792411 0 0 0 31.985991,4.943035 Z m 0,5.407166 c 0.343982,0 0.685648,0.08943 0.988335,0.263705 l 17.436835,10.066768 c 0.30256,0.176571 0.550355,0.428815 0.722285,0.724635 L 31.985991,32.460403 v 22.11021 A 1.9789575,1.9789575 0 0 1 30.997664,54.304608 L 13.560823,44.237848 A 1.9858365,1.9858366 0 0 1 12.572494,42.527182 V 22.393628 c 0,-0.350848 0.09405,-0.692513 0.265998,-0.986033 l 19.147499,11.052808 z"
       fill="#000000"
       stroke-width="1.1979"
       id="path719"
       style="fill:#dfdfdf;fill-opacity:1;stroke:none;stroke-width:0.870126;stroke-dasharray:none;stroke-opacity:0.6" />
  </g>
</svg>
