<?xml version="1.0" encoding="UTF-8" standalone="no"?>
<svg
   width="64"
   height="64"
   version="1.1"
   id="svg73"
   sodipodi:docname="io.gitlab.librewolf-community.svg"
   inkscape:version="1.4.2 (ebf0e940d0, 2025-05-08)"
   xmlns:inkscape="http://www.inkscape.org/namespaces/inkscape"
   xmlns:sodipodi="http://sodipodi.sourceforge.net/DTD/sodipodi-0.dtd"
   xmlns="http://www.w3.org/2000/svg"
   xmlns:svg="http://www.w3.org/2000/svg"
   xmlns:rdf="http://www.w3.org/1999/02/22-rdf-syntax-ns#"
   xmlns:cc="http://creativecommons.org/ns#"
   xmlns:dc="http://purl.org/dc/elements/1.1/">
  <metadata
     id="metadata77">
    <rdf:RDF>
      <cc:Work
         rdf:about="">
        <dc:format>image/svg+xml</dc:format>
        <dc:type
           rdf:resource="http://purl.org/dc/dcmitype/StillImage" />
      </cc:Work>
    </rdf:RDF>
  </metadata>
  <sodipodi:namedview
     pagecolor="#f5f7fa"
     bordercolor="#666666"
     borderopacity="1"
     objecttolerance="10"
     gridtolerance="10"
     guidetolerance="10"
     inkscape:pageopacity="0"
     inkscape:pageshadow="2"
     inkscape:window-width="1377"
     inkscape:window-height="886"
     id="namedview75"
     showgrid="false"
     inkscape:zoom="6.2890624"
     inkscape:cx="46.191305"
     inkscape:cy="36.809938"
     inkscape:window-x="326"
     inkscape:window-y="75"
     inkscape:window-maximized="0"
     inkscape:current-layer="g877"
     inkscape:document-rotation="0"
     inkscape:pagecheckerboard="0"
     inkscape:showpageshadow="2"
     inkscape:deskcolor="#d1d1d1" />
  <defs
     id="defs29" />
  <circle
     cx="32.516094"
     cy="31.877844"
     r="0"
     fill="url(#b)"
     stroke-width="1.5715"
     id="circle41"
     style="fill:url(#b)" />
  <g
     aria-label="GZ"
     transform="matrix(1.2212657,0,0,0.81882264,0.4960938,-0.1661539)"
     id="text93"
     style="font-weight:bold;font-size:11.5263px;line-height:1.25;font-family:sans-serif;-inkscape-font-specification:'sans-serif Bold';fill:#f2f2f2;stroke-width:0.288159" />
  <g
     id="g877"
     transform="matrix(1.1,0,0,1.1,-3.1845928,-3.2065454)">
    <path
       d="m 31.985994,4.7416262 c -15.057669,0 -27.2643251,12.2066558 -27.2643251,27.2643238 0,15.057668 12.2066561,27.264324 27.2643251,27.264324 15.057668,0 27.264324,-12.206656 27.264324,-27.264324 0,-15.057668 -12.206656,-27.2643238 -27.264324,-27.2643238 z m 0,3.7178624 c 13.175459,0 23.546463,10.3710014 23.546463,23.5464614 -0.01012,10.953079 -7.168292,19.872651 -17.798724,22.511593 -0.151129,-0.381638 0.03395,-0.788915 0.07426,-0.921903 0.20434,-0.673803 0.349719,-0.963578 0.399383,-1.896941 0.07867,-1.478715 0.424854,-3.824438 1.36254,-4.892401 0.824781,-0.939379 0.982216,-1.688473 0.998449,-4.739304 0.01346,-2.525551 0.04151,-2.821458 0.366097,-3.953862 0.552529,-1.927668 1.465825,-3.28754 2.134314,-4.263379 0.339729,-0.495931 0.881275,-1.381196 1.204796,-1.966945 0.323507,-0.585763 0.794562,-1.375528 1.045043,-1.75394 0.654344,-0.988562 2.73323,-2.354516 3.423898,-2.679175 0.771867,-0.362815 1.374369,-1.339376 1.655774,-2.186601 0.28926,-0.87089 0.201553,-2.244788 -0.176395,-2.749066 -0.222721,-0.297164 -0.116608,-0.349458 -0.68728,-0.349458 -0.522641,0 -0.748569,-0.06912 -1.008434,-0.312848 -0.357441,-0.33523 -0.619038,-0.290343 -0.619038,0.106513 0,0.311243 -1.155263,0.903604 -1.293868,0.76548 -0.05772,-0.05752 7.97e-4,-0.387026 0.133101,-0.732197 0.484823,-1.265047 0.643203,-2.071468 0.565786,-2.888847 -0.127669,-1.347712 -0.966965,-3.162148 -1.424457,-3.250298 -0.110013,-0.0212 -0.707725,0.386716 -1.327938,0.908591 -3.234276,2.721506 -5.693758,3.908732 -7.405165,4.943239 -0.816673,0.493628 -0.819263,0.492499 -2.196587,0.462616 -1.630723,-0.03539 -1.347591,-0.02492 -4.067599,1.624066 -0.942082,0.57113 -2.004418,1.784511 -2.359668,1.919495 -0.357048,0.135663 -1.488557,-0.0408 -2.532733,0.06656 -2.144521,0.220412 -2.223004,0.351925 -3.025389,0.815399 -0.793513,0.458344 -0.994206,0.79973 -0.825387,1.411144 0.165304,0.598662 0.547993,1.777434 1.604264,2.815627 l 0.79543,1.030441 -0.612381,0.948531 c -0.338081,0.521962 -0.848144,1.486729 -1.131577,2.143337 -0.563291,1.304952 -0.71761,1.549971 -1.840472,2.932111 -0.972736,1.197327 -2.560275,2.919669 -3.567214,4.892403 -0.861091,1.686999 -1.274875,2.124259 -2.855562,3.028632 -0.395398,0.22622 -0.882782,0.606375 -1.384518,0.842025 -3.2537887,-4.183284 -4.7121478,-9.330915 -4.7157173,-14.63062 0,-13.175461 10.3709993,-23.5464607 23.5464603,-23.5464607 z m 3.759998,15.2053354 -1.103627,1.574222 -1.980259,0.276237 1.231423,-1.574222 z"
       style="fill:#dfdfdf;fill-opacity:1;stroke-width:1.23929"
       id="path4" />
  </g>
</svg>
