<?xml version="1.0" encoding="UTF-8" standalone="no"?>
<svg
   width="64"
   height="64"
   version="1.1"
   id="svg73"
   sodipodi:docname="io.github.jeffshee.Hidamari.svg"
   inkscape:version="1.4.2 (ebf0e940d0, 2025-05-08)"
   xmlns:inkscape="http://www.inkscape.org/namespaces/inkscape"
   xmlns:sodipodi="http://sodipodi.sourceforge.net/DTD/sodipodi-0.dtd"
   xmlns="http://www.w3.org/2000/svg"
   xmlns:svg="http://www.w3.org/2000/svg"
   xmlns:rdf="http://www.w3.org/1999/02/22-rdf-syntax-ns#"
   xmlns:cc="http://creativecommons.org/ns#"
   xmlns:dc="http://purl.org/dc/elements/1.1/">
  <metadata
     id="metadata77">
    <rdf:RDF>
      <cc:Work
         rdf:about="">
        <dc:format>image/svg+xml</dc:format>
        <dc:type
           rdf:resource="http://purl.org/dc/dcmitype/StillImage" />
      </cc:Work>
    </rdf:RDF>
  </metadata>
  <sodipodi:namedview
     pagecolor="#f5f7fa"
     bordercolor="#666666"
     borderopacity="1"
     objecttolerance="10"
     gridtolerance="10"
     guidetolerance="10"
     inkscape:pageopacity="0"
     inkscape:pageshadow="2"
     inkscape:window-width="1377"
     inkscape:window-height="886"
     id="namedview75"
     showgrid="false"
     inkscape:zoom="6.2890624"
     inkscape:cx="47.622361"
     inkscape:cy="45.396274"
     inkscape:window-x="28"
     inkscape:window-y="57"
     inkscape:window-maximized="0"
     inkscape:current-layer="g877"
     inkscape:document-rotation="0"
     inkscape:pagecheckerboard="0"
     inkscape:showpageshadow="2"
     inkscape:deskcolor="#d1d1d1" />
  <defs
     id="defs29" />
  <circle
     cx="32.516094"
     cy="31.877844"
     r="0"
     fill="url(#b)"
     stroke-width="1.5715"
     id="circle41"
     style="fill:url(#b)" />
  <g
     aria-label="GZ"
     transform="matrix(1.2212657,0,0,0.81882264,0.4960938,-0.1661539)"
     id="text93"
     style="font-weight:bold;font-size:11.5263px;line-height:1.25;font-family:sans-serif;-inkscape-font-specification:'sans-serif Bold';fill:#f2f2f2;stroke-width:0.288159" />
  <g
     id="g877"
     transform="matrix(1.1,0,0,1.1,-3.1845928,-3.2065454)">
    <path
       style="fill:#dfdfdf;fill-opacity:1;stroke:none;stroke-width:0.760966;stroke-dasharray:none;stroke-opacity:0.6"
       d="m 34.026401,57.734152 c -0.254496,-0.27122 -0.369513,-0.288667 -2.391836,-0.362766 -4.51376,-0.165467 -9.03971,-1.183514 -12.989642,-2.92187 -4.5717,-2.012002 -6.165069,-4.912247 -4.557961,-8.296368 1.148854,-2.419157 3.787296,-3.846371 6.673794,-3.610048 4.090048,0.334834 8.073966,3.399001 11.361315,8.738354 0.499476,0.811247 0.72379,1.093177 0.676164,0.849786 -0.03916,-0.200284 -0.178421,-1.101683 -0.309368,-2.003078 -0.718145,-4.943051 -0.749591,-8.63282 -0.111743,-13.111121 0.288901,-2.02842 0.412296,-2.306584 1.023136,-2.306584 0.643409,0 0.735003,0.314264 0.500679,1.717787 -0.417158,2.498621 -0.505954,3.73063 -0.497425,6.901554 0.0097,3.559452 0.178187,5.211494 0.965903,9.463396 0.613488,3.311415 0.509822,3.202458 1.19255,1.253422 2.103337,-6.004579 4.78451,-10.593871 7.009933,-11.998711 1.614376,-1.019119 3.910472,-1.160998 5.633643,-0.34812 0.940029,0.443395 1.467609,0.952585 1.902552,1.836065 0.358734,0.728676 0.394867,0.902588 0.384197,1.847014 -0.01346,1.213916 -0.377244,2.361941 -1.151152,3.635752 -2.501746,4.117966 -7.456217,7.260822 -12.800508,8.119992 -1.121706,0.180363 -1.241116,0.225598 -1.420792,0.538647 -0.246782,0.429957 -0.720179,0.454589 -1.093403,0.05696 z M 32.952499,32.736473 c -1.353742,-0.472828 -2.141327,-1.142636 -2.828822,-2.405789 -0.426646,-0.783897 -0.714305,-2.180618 -0.615049,-2.986407 l 0.07742,-0.62853 -0.462881,0.436619 c -0.254581,0.240137 -0.817976,0.604924 -1.251975,0.810624 -0.71062,0.336819 -0.903786,0.37383 -1.942384,0.372128 -0.977494,-0.0014 -1.245812,-0.0474 -1.760285,-0.300597 -0.83366,-0.410267 -1.588819,-1.202155 -2.015119,-2.113127 -1.28012,-2.735553 0.29283,-5.684265 3.447456,-6.462746 l 0.804964,-0.198646 -0.828594,-0.581896 c -1.509916,-1.060373 -2.126252,-2.259905 -2.054493,-3.998504 0.03292,-0.799344 0.114962,-1.187152 0.363666,-1.720845 0.40899,-0.877615 1.129108,-1.658788 1.946698,-2.111741 0.58987,-0.326794 0.740602,-0.355675 1.855997,-0.355675 1.421296,0 2.006683,0.208904 2.904555,1.036536 l 0.555324,0.511875 v -0.915143 c 0,-2.2185667 1.207771,-4.0795048 3.142815,-4.8424739 0.970021,-0.3824641 2.824629,-0.3828089 3.776934,-7.115e-4 2.05303,0.8237825 3.237218,2.7237243 3.136577,5.0324034 -0.02301,0.51609 -0.03505,0.938218 -0.02771,0.938062 0.0073,-1.62e-4 0.226013,-0.17128 0.485597,-0.380278 0.694419,-0.559122 1.778644,-1.038769 2.734111,-1.209519 2.765702,-0.49426 5.347743,1.421932 5.809313,4.311213 0.247243,1.547474 -0.278306,3.017478 -1.526864,4.27116 -0.880936,0.884544 -1.986033,1.468592 -3.02404,1.598231 l -0.728398,0.09098 0.448053,0.277586 c 0.75811,0.469691 1.650216,1.54547 1.855863,2.237973 0.40627,1.368162 0.156203,3.358249 -0.580018,4.614441 -0.693979,1.184626 -2.160162,2.188009 -3.416376,2.33819 -1.133406,0.135488 -2.411277,-0.460607 -2.986619,-1.393197 -0.352504,-0.571472 -0.48012,-0.611932 -0.48012,-0.152307 0,0.55941 -0.768131,1.990682 -1.43675,2.677135 -0.392625,0.403064 -0.923366,0.779309 -1.443441,1.023249 -0.710722,0.333354 -0.979259,0.390935 -1.975805,0.423608 -0.958926,0.03144 -1.289216,-0.0098 -1.959837,-0.243892 z m 4.518165,-9.167068 c 2.235136,-1.075031 3.478525,-3.894615 2.533953,-5.746139 -0.760369,-1.490442 -2.935286,-2.253169 -5.116648,-1.794361 -3.185237,0.669952 -4.729603,3.725177 -3.098383,6.129528 0.498434,0.734677 1.077288,1.195069 1.980759,1.575401 0.621814,0.261773 0.862286,0.296405 1.809694,0.260637 0.926931,-0.03505 1.213591,-0.09945 1.890625,-0.425066 z"
       id="path1" />
  </g>
</svg>
