<?xml version="1.0" encoding="UTF-8" standalone="no"?>
<svg
   width="64"
   height="64"
   version="1.1"
   id="svg73"
   sodipodi:docname="io.podman_desktop.PodmanDesktop.svg"
   inkscape:version="1.4.2 (ebf0e940d0, 2025-05-08)"
   xmlns:inkscape="http://www.inkscape.org/namespaces/inkscape"
   xmlns:sodipodi="http://sodipodi.sourceforge.net/DTD/sodipodi-0.dtd"
   xmlns="http://www.w3.org/2000/svg"
   xmlns:svg="http://www.w3.org/2000/svg"
   xmlns:rdf="http://www.w3.org/1999/02/22-rdf-syntax-ns#"
   xmlns:cc="http://creativecommons.org/ns#"
   xmlns:dc="http://purl.org/dc/elements/1.1/">
  <metadata
     id="metadata77">
    <rdf:RDF>
      <cc:Work
         rdf:about="">
        <dc:format>image/svg+xml</dc:format>
        <dc:type
           rdf:resource="http://purl.org/dc/dcmitype/StillImage" />
      </cc:Work>
    </rdf:RDF>
  </metadata>
  <sodipodi:namedview
     pagecolor="#f5f7fa"
     bordercolor="#666666"
     borderopacity="1"
     objecttolerance="10"
     gridtolerance="10"
     guidetolerance="10"
     inkscape:pageopacity="0"
     inkscape:pageshadow="2"
     inkscape:window-width="1377"
     inkscape:window-height="886"
     id="namedview75"
     showgrid="false"
     inkscape:zoom="6.2890624"
     inkscape:cx="46.191305"
     inkscape:cy="36.809938"
     inkscape:window-x="326"
     inkscape:window-y="75"
     inkscape:window-maximized="0"
     inkscape:current-layer="g877"
     inkscape:document-rotation="0"
     inkscape:pagecheckerboard="0"
     inkscape:showpageshadow="2"
     inkscape:deskcolor="#d1d1d1" />
  <defs
     id="defs29" />
  <circle
     cx="32.516094"
     cy="31.877844"
     r="0"
     fill="url(#b)"
     stroke-width="1.5715"
     id="circle41"
     style="fill:url(#b)" />
  <g
     aria-label="GZ"
     transform="matrix(1.2212657,0,0,0.81882264,0.4960938,-0.1661539)"
     id="text93"
     style="font-weight:bold;font-size:11.5263px;line-height:1.25;font-family:sans-serif;-inkscape-font-specification:'sans-serif Bold';fill:#f2f2f2;stroke-width:0.288159" />
  <g
     id="g877"
     transform="matrix(1.1,0,0,1.1,-3.1845928,-3.2065454)">
    <path
       id="path635"
       style="fill:#dfdfdf;fill-opacity:1;stroke:none;stroke-width:0.837063;stroke-dasharray:none;stroke-opacity:0.6"
       d="m 31.986095,4.380691 c -0.286363,0 -6.50062,2.9901926 -13.809279,6.644873 -11.3906618,5.695883 -13.333918,6.732975 -13.6070113,7.261089 -0.2765539,0.534785 -0.3186322,2.368658 -0.3186322,13.894501 0,13.209594 0.0024,13.281301 0.4399595,13.837684 0.3027985,0.384887 4.495821,2.591717 13.451974,7.080042 9.92912,4.975938 13.196673,6.523574 13.791649,6.532281 0.620121,0.0092 3.453647,-1.325633 13.842986,-6.520814 9.010949,-4.505923 13.199678,-6.705707 13.503138,-7.091509 0.437633,-0.556359 0.439935,-0.62807 0.439935,-13.837684 0,-11.525843 -0.04257,-13.359715 -0.318563,-13.894501 C 59.129129,17.758539 57.185864,16.721447 45.795206,11.025564 38.48654,7.3708836 32.272457,4.380691 31.986095,4.380691 Z m 0.06894,2.6169814 12.582329,6.3264146 12.582493,6.326417 0.0038,12.483418 0.0042,12.483594 -2.856735,1.355467 c -1.571069,0.745463 -7.250407,3.549873 -12.620781,6.231956 L 31.986135,57.081428 19.369589,50.830994 6.7530353,44.580553 6.7488003,32.114244 6.7445653,19.647765 19.399961,13.322717 Z m -0.06894,16.0590336 c -9.081898,0 -18.163904,0.09028 -18.344552,0.270886 -0.18594,0.185924 -0.249322,2.452912 -0.249322,8.918586 0,7.604051 0.04008,8.709242 0.326504,8.995592 0.291752,0.291754 2.23456,0.326499 18.267377,0.326499 16.03281,0 17.975447,-0.03509 18.267199,-0.326499 0.286348,-0.28635 0.326498,-1.391541 0.326498,-8.995592 3e-6,-6.465674 -0.06339,-8.73265 -0.249303,-8.918586 -0.18062,-0.180635 -9.262483,-0.270886 -18.34438,-0.270886 z m 6.344212,2.912514 -0.0558,4.735143 -0.05603,4.735144 -1.509133,0.06106 c -1.102647,0.04466 -1.53746,-0.01264 -1.61429,-0.212875 -0.05785,-0.150695 -0.07987,-2.281648 -0.04896,-4.735484 l 0.05617,-4.461521 1.614039,-0.06073 z m -22.029511,6.36e-4 1.610095,0.06073 1.610093,0.06056 0.05883,4.258913 c 0.03234,2.342391 0.0074,4.469322 -0.05603,4.72641 -0.104995,0.427801 -0.234741,0.467339 -1.530352,0.467339 -0.778622,0 -1.478136,-0.06226 -1.554308,-0.138446 -0.07614,-0.07617 -0.138401,-2.230302 -0.138401,-4.786989 z m 6.232465,0 1.6101,0.06073 1.610091,0.06056 v 4.674397 4.674397 l -1.463275,0.06022 c -0.80483,0.03312 -1.529385,-0.0059 -1.610093,-0.08662 -0.08071,-0.08071 -0.14683,-2.238519 -0.14683,-4.795206 z m 6.336518,0.121308 h 1.558065 1.558251 v 4.674403 4.674395 l -1.509299,0.06106 c -1.102742,0.04469 -1.537559,-0.01238 -1.614383,-0.212859 -0.05782,-0.150695 -0.07985,-2.28165 -0.0489,-4.735484 z" />
  </g>
</svg>
