<?xml version="1.0" encoding="UTF-8" standalone="no"?>
<svg
   width="64"
   height="64"
   version="1.1"
   id="svg73"
   sodipodi:docname="it.mijorus.gearlever.svg"
   inkscape:version="1.4.2 (ebf0e940d0, 2025-05-08)"
   xmlns:inkscape="http://www.inkscape.org/namespaces/inkscape"
   xmlns:sodipodi="http://sodipodi.sourceforge.net/DTD/sodipodi-0.dtd"
   xmlns="http://www.w3.org/2000/svg"
   xmlns:svg="http://www.w3.org/2000/svg"
   xmlns:rdf="http://www.w3.org/1999/02/22-rdf-syntax-ns#"
   xmlns:cc="http://creativecommons.org/ns#"
   xmlns:dc="http://purl.org/dc/elements/1.1/">
  <metadata
     id="metadata77">
    <rdf:RDF>
      <cc:Work
         rdf:about="">
        <dc:format>image/svg+xml</dc:format>
        <dc:type
           rdf:resource="http://purl.org/dc/dcmitype/StillImage" />
      </cc:Work>
    </rdf:RDF>
  </metadata>
  <sodipodi:namedview
     pagecolor="#f5f7fa"
     bordercolor="#666666"
     borderopacity="1"
     objecttolerance="10"
     gridtolerance="10"
     guidetolerance="10"
     inkscape:pageopacity="0"
     inkscape:pageshadow="2"
     inkscape:window-width="1377"
     inkscape:window-height="886"
     id="namedview75"
     showgrid="false"
     inkscape:zoom="6.2890624"
     inkscape:cx="47.622361"
     inkscape:cy="45.396274"
     inkscape:window-x="0"
     inkscape:window-y="57"
     inkscape:window-maximized="0"
     inkscape:current-layer="g877"
     inkscape:document-rotation="0"
     inkscape:pagecheckerboard="0"
     inkscape:showpageshadow="2"
     inkscape:deskcolor="#d1d1d1" />
  <defs
     id="defs29" />
  <circle
     cx="32.516094"
     cy="31.877844"
     r="0"
     fill="url(#b)"
     stroke-width="1.5715"
     id="circle41"
     style="fill:url(#b)" />
  <g
     aria-label="GZ"
     transform="matrix(1.2212657,0,0,0.81882264,0.4960938,-0.1661539)"
     id="text93"
     style="font-weight:bold;font-size:11.5263px;line-height:1.25;font-family:sans-serif;-inkscape-font-specification:'sans-serif Bold';fill:#f2f2f2;stroke-width:0.288159" />
  <g
     id="g877"
     transform="matrix(1.1,0,0,1.1,-3.1845928,-3.2065454)">
    <path
       style="fill:#dfdfdf;fill-opacity:1;stroke:none;stroke-width:0.913635;stroke-dasharray:none;stroke-opacity:0.6"
       d="M 25.835705,59.671716 C 25.23908,59.376375 25.207437,59.283705 24.530348,55.851003 l -0.611724,-3.101332 -0.597502,-0.244275 c -1.424033,-0.582252 -3.274433,-1.637228 -4.589291,-2.61653 l -0.677648,-0.504675 -2.956182,1.003366 c -2.05338,0.696861 -3.058068,1.003361 -3.289798,1.003361 -0.351804,0 -0.805081,-0.189104 -1.010449,-0.42157 C 10.730434,50.892634 9.3887546,48.59857 7.8163838,45.870697 4.6752173,40.421186 4.7363209,40.552851 5.0363934,39.879313 5.156596,39.609395 5.6123732,39.176619 7.5847059,37.459039 9.9818482,35.371557 9.9865353,35.366888 9.9516873,35.105951 9.6785628,33.060915 9.6783923,30.977433 9.9512011,28.905765 9.9855046,28.645016 9.9794788,28.638975 7.5843029,26.552684 5.613271,24.835838 5.1567238,24.402155 5.0364786,24.132405 4.7373709,23.461438 4.6765363,23.592518 7.8164388,18.143443 c 1.5726634,-2.729242 2.9143822,-5.02466 2.9816082,-5.100937 0.204548,-0.232045 0.658101,-0.421581 1.008938,-0.421581 0.230343,0 1.240042,0.308364 3.288464,1.004305 l 2.956055,1.004315 0.678979,-0.505701 c 1.31585,-0.980024 3.164859,-2.034363 4.590446,-2.617562 l 0.597333,-0.244365 0.588632,-2.9995234 c 0.323763,-1.6497353 0.63598,-3.1159514 0.69384,-3.2582445 0.137025,-0.3370252 0.298194,-0.5094948 0.638117,-0.6829894 0.264979,-0.1352243 0.533988,-0.141432 6.120575,-0.141432 5.801998,0 5.845745,0.00113 6.170746,0.1584263 0.600949,0.2909206 0.631645,0.3803717 1.311067,3.821526 l 0.612455,3.102032 0.597341,0.244474 c 1.427026,0.584042 3.274813,1.637813 4.591627,2.618567 l 0.680207,0.506591 2.959294,-1.005212 c 2.026871,-0.68847 3.062633,-1.005216 3.287264,-1.005216 0.346861,0 0.800512,0.190352 1.004779,0.421587 0.06702,0.07637 1.409,2.370575 2.981384,5.098467 3.140526,5.4485 3.079619,5.317244 2.780665,5.991424 -0.119911,0.270328 -0.571715,0.699558 -2.547296,2.420275 -2.39409,2.085141 -2.401434,2.092438 -2.367659,2.353092 0.272657,2.103877 0.272657,4.107818 -2.07e-4,6.200188 -0.03366,0.26075 -0.02686,0.267543 2.366991,2.353084 1.971144,1.71712 2.427279,2.150461 2.547479,2.420259 0.300055,0.67377 0.361239,0.542097 -2.779443,5.991698 -1.57201,2.727739 -2.913636,5.021937 -2.981346,5.098211 -0.205991,0.231848 -0.659072,0.421687 -1.007349,0.421687 -0.227337,0 -1.251151,-0.313011 -3.289513,-1.005737 l -2.959542,-1.005744 -0.50456,0.383388 c -1.287775,0.978425 -3.181469,2.080048 -4.579172,2.663892 l -0.780957,0.326194 -0.61245,3.100595 c -0.679414,3.43951 -0.710185,3.529203 -1.311075,3.820083 -0.324965,0.157363 -0.369098,0.158619 -6.1491,0.158619 -5.801755,-5.4e-5 -5.822872,-6.16e-4 -6.145349,-0.160134 z M 37.032781,41.943244 c 2.688639,-3.226929 4.899645,-5.900537 4.91334,-5.941365 0.01647,-0.0485 -1.018799,-0.07447 -2.968436,-0.07447 h -2.993327 l -0.01934,-8.502728 -0.01968,-8.502716 -0.198763,-0.300333 c -0.388126,-0.586438 -0.379667,-0.585145 -3.760393,-0.585145 -3.380734,0 -3.372274,-0.0013 -3.760397,0.585145 l -0.198764,0.300333 -0.01968,8.502716 -0.01933,8.50273 h -2.98708 c -1.642911,0 -2.986597,0.02494 -2.985987,0.05607 6.17e-4,0.03131 2.238164,2.739222 4.972344,6.01866 3.743338,4.489898 4.994228,5.943552 5.064366,5.885347 0.05125,-0.04223 2.292934,-2.71751 4.981576,-5.94444 z"
       id="path5" />
  </g>
</svg>
