<?xml version="1.0" encoding="UTF-8" standalone="no"?>
<svg
   width="64"
   height="64"
   version="1.1"
   id="svg73"
   sodipodi:docname="appimagekit-jitsi-meet.svg"
   inkscape:version="1.4.2 (ebf0e940d0, 2025-05-08)"
   xmlns:inkscape="http://www.inkscape.org/namespaces/inkscape"
   xmlns:sodipodi="http://sodipodi.sourceforge.net/DTD/sodipodi-0.dtd"
   xmlns="http://www.w3.org/2000/svg"
   xmlns:svg="http://www.w3.org/2000/svg"
   xmlns:rdf="http://www.w3.org/1999/02/22-rdf-syntax-ns#"
   xmlns:cc="http://creativecommons.org/ns#"
   xmlns:dc="http://purl.org/dc/elements/1.1/">
  <metadata
     id="metadata77">
    <rdf:RDF>
      <cc:Work
         rdf:about="">
        <dc:format>image/svg+xml</dc:format>
        <dc:type
           rdf:resource="http://purl.org/dc/dcmitype/StillImage" />
      </cc:Work>
    </rdf:RDF>
  </metadata>
  <sodipodi:namedview
     pagecolor="#f5f7fa"
     bordercolor="#666666"
     borderopacity="1"
     objecttolerance="10"
     gridtolerance="10"
     guidetolerance="10"
     inkscape:pageopacity="0"
     inkscape:pageshadow="2"
     inkscape:window-width="1377"
     inkscape:window-height="886"
     id="namedview75"
     showgrid="false"
     inkscape:zoom="6.2890624"
     inkscape:cx="47.622361"
     inkscape:cy="45.396274"
     inkscape:window-x="264"
     inkscape:window-y="75"
     inkscape:window-maximized="0"
     inkscape:current-layer="g877"
     inkscape:document-rotation="0"
     inkscape:pagecheckerboard="0"
     inkscape:showpageshadow="2"
     inkscape:deskcolor="#d1d1d1" />
  <defs
     id="defs29" />
  <circle
     cx="32.516094"
     cy="31.877844"
     r="0"
     fill="url(#b)"
     stroke-width="1.5715"
     id="circle41"
     style="fill:url(#b)" />
  <g
     aria-label="GZ"
     transform="matrix(1.2212657,0,0,0.81882264,0.4960938,-0.1661539)"
     id="text93"
     style="font-weight:bold;font-size:11.5263px;line-height:1.25;font-family:sans-serif;-inkscape-font-specification:'sans-serif Bold';fill:#f2f2f2;stroke-width:0.288159" />
  <g
     id="g877"
     transform="matrix(1.1,0,0,1.1,-3.1845928,-3.2065454)">
    <path
       style="fill:#dfdfdf;fill-opacity:1;stroke-width:0.400259"
       d="m 32.581833,58.651648 c -2.831601,-1.43956 -3.315698,-4.169935 -1.515026,-8.544961 1.706904,-4.147196 1.100334,-5.529693 -3.336171,-7.60378 -1.139993,-0.532947 -2.072807,-1.073294 -2.07291,-1.200771 -1.17e-4,-0.12751 1.575906,-0.177625 3.502261,-0.111477 3.200261,0.109879 4.550817,-0.10263 8.326968,-1.310517 0.689839,-0.220656 0.995367,0.07989 1.901227,1.870308 1.236137,2.443185 1.368886,4.528629 0.369957,5.812016 -0.380347,0.488631 -1.989608,1.518231 -3.576127,2.287932 -4.244965,2.059423 -5.318713,4.692214 -2.900061,7.110871 1.089511,1.089509 1.412756,1.198144 3.024423,1.016493 1.663648,-0.187508 1.73992,-0.158136 0.976947,0.376234 -1.283357,0.898893 -3.271253,1.024739 -4.701484,0.297616 z M 24.382779,38.003636 c -1.569731,-0.345394 -1.944975,-0.611908 -2.301484,-1.634583 -0.484512,-1.38987 -0.561801,-5.091413 -0.119645,-5.729571 0.161726,-0.233428 1.554879,-0.615602 3.095874,-0.849276 1.540995,-0.233685 3.662548,-0.830465 4.714554,-1.326182 l 1.912745,-0.901309 2.31172,1.037437 c 1.271446,0.570588 3.327148,1.156781 4.568224,1.302639 l 2.256511,0.265213 -1.146594,1.448592 c -0.630628,0.796726 -1.347541,2.21395 -1.593143,3.149383 -0.670514,2.553773 -2.598492,3.430111 -7.820657,3.554787 -2.201421,0.05256 -4.846574,-0.09019 -5.87812,-0.31713 z M 18.72697,27.901797 c -3.067657,-1.133193 -3.816958,-2.821815 -2.332375,-5.256249 0.995408,-1.632289 4.74379,-3.55063 8.587445,-4.39487 4.512432,-0.991132 12.612763,-0.684111 16.461027,0.623902 6.587102,2.238946 8.961396,6.480804 4.806374,8.586989 -2.149377,1.08952 -7.940779,1.125814 -10.685117,0.06694 -1.045678,-0.403454 -1.90123,-0.882703 -1.90123,-1.065006 0,-0.29967 1.715482,-1.193367 4.40285,-2.293708 0.965816,-0.395458 0.937952,-0.427285 -0.800523,-0.914607 -2.150198,-0.602735 -8.196674,-0.639972 -9.606204,-0.05917 -0.804508,0.331506 -0.333779,0.418499 2.401554,0.443827 1.871208,0.01738 3.629992,0.176092 3.908393,0.352818 0.334368,0.212252 -0.799442,0.991401 -3.340184,2.295356 -3.570359,1.83238 -4.080635,1.98136 -7.110468,2.076022 -2.061258,0.06442 -3.826956,-0.105963 -4.791542,-0.46227 z M 29.602894,15.87011 c -1.228705,-0.693748 -1.967977,-2.459055 -1.52794,-3.648593 0.836828,-2.2621605 4.656307,-2.9036057 6.758209,-1.13497 1.479124,1.244604 1.580504,2.51596 0.317692,3.98406 -1.129979,1.313686 -3.924133,1.716346 -5.547961,0.799503 z m 6.278191,-5.801482 C 34.235108,8.2498421 30.722103,8.0391085 28.494207,9.6255153 26.989101,10.697243 26.539325,10.665762 25.985358,9.449919 c -0.665361,-1.4603072 0.07246,-2.7365791 2.168607,-3.7513154 2.891454,-1.3997329 7.025608,-0.9381648 9.196873,1.0268036 0.926456,0.8384332 0.915955,2.6188007 -0.02046,3.4662308 -0.68828,0.622888 -0.781413,0.61498 -1.449306,-0.123011 z"
       id="path1" />
  </g>
</svg>
