<?xml version="1.0" encoding="UTF-8" standalone="no"?>
<svg
   width="64"
   height="64"
   version="1.1"
   id="svg73"
   sodipodi:docname="jockey.svg"
   inkscape:version="1.4.2 (ebf0e940d0, 2025-05-08)"
   xmlns:inkscape="http://www.inkscape.org/namespaces/inkscape"
   xmlns:sodipodi="http://sodipodi.sourceforge.net/DTD/sodipodi-0.dtd"
   xmlns="http://www.w3.org/2000/svg"
   xmlns:svg="http://www.w3.org/2000/svg"
   xmlns:rdf="http://www.w3.org/1999/02/22-rdf-syntax-ns#"
   xmlns:cc="http://creativecommons.org/ns#"
   xmlns:dc="http://purl.org/dc/elements/1.1/">
  <metadata
     id="metadata77">
    <rdf:RDF>
      <cc:Work
         rdf:about="">
        <dc:format>image/svg+xml</dc:format>
        <dc:type
           rdf:resource="http://purl.org/dc/dcmitype/StillImage" />
      </cc:Work>
    </rdf:RDF>
  </metadata>
  <sodipodi:namedview
     pagecolor="#f5f7fa"
     bordercolor="#666666"
     borderopacity="1"
     objecttolerance="10"
     gridtolerance="10"
     guidetolerance="10"
     inkscape:pageopacity="0"
     inkscape:pageshadow="2"
     inkscape:window-width="1377"
     inkscape:window-height="886"
     id="namedview75"
     showgrid="false"
     inkscape:zoom="6.2890624"
     inkscape:cx="47.622361"
     inkscape:cy="45.396274"
     inkscape:window-x="147"
     inkscape:window-y="75"
     inkscape:window-maximized="0"
     inkscape:current-layer="g877"
     inkscape:document-rotation="0"
     inkscape:pagecheckerboard="0"
     inkscape:showpageshadow="2"
     inkscape:deskcolor="#d1d1d1" />
  <defs
     id="defs29">
    <linearGradient
       id="b"
       x1="399.57"
       x2="399.57"
       y1="545.8"
       y2="517.8"
       gradientTransform="matrix(2.1429,0,0,2.1429,-825.86391,-1107.6662)"
       gradientUnits="userSpaceOnUse">
      <stop
         stop-color="#3889e9"
         offset="0"
         id="stop2" />
      <stop
         stop-color="#5ea5fb"
         offset="1"
         id="stop4" />
    </linearGradient>
  </defs>
  <circle
     cx="32.516094"
     cy="31.877844"
     r="0"
     fill="url(#b)"
     stroke-width="1.5715"
     id="circle41"
     style="fill:url(#b)" />
  <g
     aria-label="GZ"
     transform="matrix(1.2212657,0,0,0.81882264,0.4960938,-0.1661539)"
     id="text93"
     style="font-weight:bold;font-size:11.5263px;line-height:1.25;font-family:sans-serif;-inkscape-font-specification:'sans-serif Bold';fill:#f2f2f2;stroke-width:0.288159" />
  <g
     id="g877"
     transform="matrix(1.1,0,0,1.1,-3.1845928,-3.2065454)">
    <path
       id="path72"
       style="fill:#dfdfdf;fill-opacity:1;stroke:none;stroke-width:0.846206;stroke-dasharray:none;stroke-dashoffset:2.2;stroke-opacity:0.6"
       d="m 31.930105,6.7728964 c -17.073477,0 -17.144177,0.0029 -17.687278,0.429602 -1.220498,0.9600615 -1.156101,-0.4811396 -1.156101,24.7077106 0,13.900652 0.07962,23.309353 0.195583,23.614488 0.259968,0.683815 0.993105,1.337546 1.749861,1.561272 0.349116,0.103202 7.976712,0.170247 17.362463,0.150163 16.070584,-0.03505 16.764729,-0.05284 17.317063,-0.426054 1.237795,-0.838976 1.170068,0.588688 1.170068,-24.885854 0,-21.240184 -0.03022,-23.3938835 -0.335277,-23.9113664 C 49.773607,6.704385 50.790932,6.7728298 31.930143,6.7728322 Z M 4.2570544,10.880373 v 2.567169 2.570666 h 2.6684592 2.671955 v -2.570666 -2.567169 h -2.671955 z m 49.9113836,0 v 2.567169 2.570666 h 2.773255 2.773239 v -2.570666 -2.567169 h -2.773239 z m -31.836406,2.053735 h 1.23294 1.229451 v 3.185387 3.181896 h -1.229451 -1.23294 v -3.181896 z m 8.421018,0 h 1.232942 1.232942 v 8.525801 8.522309 h -1.096727 c -0.602511,0 -1.157616,-0.06081 -1.232942,-0.136204 -0.07531,-0.07534 -0.136218,-3.909374 -0.136218,-8.522315 z m 8.627097,0 h 1.128153 1.13166 v 6.367283 6.370775 H 40.5083 39.380147 V 19.301391 Z M 4.2570544,20.328257 v 2.570665 2.567176 h 2.668458 2.6719562 V 22.898922 20.328257 H 6.9255124 Z m 49.9113836,0 v 2.570665 2.567176 h 2.773255 2.773239 v -2.567176 -2.570665 h -2.773239 z m -31.836406,1.030361 h 1.236431 1.236436 l -0.05592,3.234289 -0.05592,3.234283 -1.03386,0.05938 c -0.568956,0.03333 -1.099919,-0.0032 -1.180301,-0.08374 -0.08038,-0.08038 -0.146719,-1.564943 -0.146719,-3.297158 z m 17.048115,6.367286 h 1.128153 1.13166 v 3.181893 3.185389 H 40.5083 39.380147 v -3.185389 z m -17.048115,2.053734 h 1.23294 1.229451 v 6.367285 6.367271 h -1.229451 -1.23294 V 36.146923 Z M 4.2570544,29.982216 v 2.465881 2.465877 h 2.668458 2.6719562 V 32.44809 29.982207 H 6.9255124 Z m 49.9113836,0 v 2.465882 2.465883 h 2.773255 2.773239 v -2.465886 -2.46588 h -2.773239 z m -20.949504,1.830199 v 8.532786 8.536275 H 31.9825 30.749558 l 0.05239,-8.473406 0.05232,-8.473409 1.180547,-0.05928 z m 6.161213,4.334504 h 1.128153 1.13166 v 7.495424 7.498953 H 40.5083 39.380147 V 43.642354 Z M 4.2570544,39.433598 v 2.567175 2.567174 h 2.668458 2.6719562 V 42.000773 39.433598 H 6.9255124 Z m 49.9113836,0 v 2.567175 2.567174 h 2.773255 2.773239 V 42.000773 39.433598 H 56.941693 Z M 4.2570544,48.881484 v 2.567174 2.567168 h 2.668458 2.6719562 V 51.448658 48.881484 H 6.9255124 Z m 49.9113836,0 v 2.567174 2.567168 h 2.773255 2.773239 v -2.567168 -2.567174 h -2.773239 z" />
  </g>
</svg>
