<?xml version="1.0" encoding="UTF-8" standalone="no"?>
<svg
   width="64"
   height="64"
   version="1.1"
   id="svg73"
   sodipodi:docname="k3b.svg"
   inkscape:version="1.4.2 (ebf0e940d0, 2025-05-08)"
   xmlns:inkscape="http://www.inkscape.org/namespaces/inkscape"
   xmlns:sodipodi="http://sodipodi.sourceforge.net/DTD/sodipodi-0.dtd"
   xmlns="http://www.w3.org/2000/svg"
   xmlns:svg="http://www.w3.org/2000/svg"
   xmlns:rdf="http://www.w3.org/1999/02/22-rdf-syntax-ns#"
   xmlns:cc="http://creativecommons.org/ns#"
   xmlns:dc="http://purl.org/dc/elements/1.1/">
  <metadata
     id="metadata77">
    <rdf:RDF>
      <cc:Work
         rdf:about="">
        <dc:format>image/svg+xml</dc:format>
        <dc:type
           rdf:resource="http://purl.org/dc/dcmitype/StillImage" />
      </cc:Work>
    </rdf:RDF>
  </metadata>
  <sodipodi:namedview
     pagecolor="#f5f7fa"
     bordercolor="#666666"
     borderopacity="1"
     objecttolerance="10"
     gridtolerance="10"
     guidetolerance="10"
     inkscape:pageopacity="0"
     inkscape:pageshadow="2"
     inkscape:window-width="1377"
     inkscape:window-height="886"
     id="namedview75"
     showgrid="false"
     inkscape:zoom="6.2890624"
     inkscape:cx="47.622361"
     inkscape:cy="45.396274"
     inkscape:window-x="147"
     inkscape:window-y="75"
     inkscape:window-maximized="0"
     inkscape:current-layer="g877"
     inkscape:document-rotation="0"
     inkscape:pagecheckerboard="0"
     inkscape:showpageshadow="2"
     inkscape:deskcolor="#d1d1d1" />
  <defs
     id="defs29">
    <linearGradient
       id="b"
       x1="399.57"
       x2="399.57"
       y1="545.8"
       y2="517.8"
       gradientTransform="matrix(2.1429,0,0,2.1429,-825.86391,-1107.6662)"
       gradientUnits="userSpaceOnUse">
      <stop
         stop-color="#3889e9"
         offset="0"
         id="stop2" />
      <stop
         stop-color="#5ea5fb"
         offset="1"
         id="stop4" />
    </linearGradient>
  </defs>
  <circle
     cx="32.516094"
     cy="31.877844"
     r="0"
     fill="url(#b)"
     stroke-width="1.5715"
     id="circle41"
     style="fill:url(#b)" />
  <g
     aria-label="GZ"
     transform="matrix(1.2212657,0,0,0.81882264,0.4960938,-0.1661539)"
     id="text93"
     style="font-weight:bold;font-size:11.5263px;line-height:1.25;font-family:sans-serif;-inkscape-font-specification:'sans-serif Bold';fill:#f2f2f2;stroke-width:0.288159" />
  <g
     id="g877"
     transform="matrix(1.1,0,0,1.1,-3.1845928,-3.2065454)">
    <path
       fill="#f5f7fa"
       d="m 31.985999,58.930823 c -15.095976,0 -27.333678,-12.054674 -27.333678,-26.924869 0,-14.870198 12.237702,-26.9248728 27.333678,-26.9248728 15.095966,0 27.333668,12.0546748 27.333668,26.9248728 0,14.870195 -12.237702,26.924869 -27.333668,26.924869 z m 0,-47.866451 c -11.741319,0 -21.25953,9.375878 -21.25953,20.941582 0,0.82612 0.679871,1.495817 1.518538,1.495817 0.838667,0 1.518535,-0.669685 1.518535,-1.495817 0,-9.913467 8.158474,-17.949924 18.222457,-17.949924 0.838668,0 1.518543,-0.669705 1.518543,-1.495817 0,-0.826127 -0.679876,-1.495841 -1.518543,-1.495841 z m 0,32.908193 c 6.709323,0 12.14831,-5.357649 12.14831,-11.966611 0,-6.608974 -5.438987,-11.966619 -12.14831,-11.966619 -6.70932,0 -12.148296,5.357645 -12.148296,11.966619 0,6.608962 5.438976,11.966611 12.148296,11.966611 z m 0,-2.991656 c -5.031988,0 -9.111224,-4.018219 -9.111224,-8.974954 0,-4.956739 4.079236,-8.974963 9.111224,-8.974963 5.031991,0 9.111233,4.018224 9.111233,8.974963 0,4.956735 -4.079242,8.974954 -9.111233,8.974954 z m 0,-2.991658 c 3.354657,0 6.07415,-2.678807 6.07415,-5.983296 0,-3.3045 -2.719493,-5.983311 -6.07415,-5.983311 -3.354661,0 -6.074142,2.678811 -6.074142,5.983311 0,3.304489 2.719481,5.983296 6.074142,5.983296 z"
       id="path42"
       style="fill:#dfdfdf;fill-opacity:1;stroke:none;stroke-width:0.820405;stroke-dasharray:none;stroke-opacity:0.6" />
  </g>
</svg>
