<?xml version="1.0" encoding="UTF-8" standalone="no"?>
<svg
   width="64"
   height="64"
   version="1.1"
   id="svg73"
   sodipodi:docname="kalzium.svg"
   inkscape:version="1.4.2 (ebf0e940d0, 2025-05-08)"
   xmlns:inkscape="http://www.inkscape.org/namespaces/inkscape"
   xmlns:sodipodi="http://sodipodi.sourceforge.net/DTD/sodipodi-0.dtd"
   xmlns="http://www.w3.org/2000/svg"
   xmlns:svg="http://www.w3.org/2000/svg"
   xmlns:rdf="http://www.w3.org/1999/02/22-rdf-syntax-ns#"
   xmlns:cc="http://creativecommons.org/ns#"
   xmlns:dc="http://purl.org/dc/elements/1.1/">
  <metadata
     id="metadata77">
    <rdf:RDF>
      <cc:Work
         rdf:about="">
        <dc:format>image/svg+xml</dc:format>
        <dc:type
           rdf:resource="http://purl.org/dc/dcmitype/StillImage" />
      </cc:Work>
    </rdf:RDF>
  </metadata>
  <sodipodi:namedview
     pagecolor="#f5f7fa"
     bordercolor="#666666"
     borderopacity="1"
     objecttolerance="10"
     gridtolerance="10"
     guidetolerance="10"
     inkscape:pageopacity="0"
     inkscape:pageshadow="2"
     inkscape:window-width="1377"
     inkscape:window-height="886"
     id="namedview75"
     showgrid="false"
     inkscape:zoom="6.2890624"
     inkscape:cx="47.622361"
     inkscape:cy="45.396274"
     inkscape:window-x="0"
     inkscape:window-y="57"
     inkscape:window-maximized="0"
     inkscape:current-layer="g877"
     inkscape:document-rotation="0"
     inkscape:pagecheckerboard="0"
     inkscape:showpageshadow="2"
     inkscape:deskcolor="#d1d1d1" />
  <defs
     id="defs29" />
  <circle
     cx="32.516094"
     cy="31.877844"
     r="0"
     fill="url(#b)"
     stroke-width="1.5715"
     id="circle41"
     style="fill:url(#b)" />
  <g
     aria-label="GZ"
     transform="matrix(1.2212657,0,0,0.81882264,0.4960938,-0.1661539)"
     id="text93"
     style="font-weight:bold;font-size:11.5263px;line-height:1.25;font-family:sans-serif;-inkscape-font-specification:'sans-serif Bold';fill:#f2f2f2;stroke-width:0.288159" />
  <g
     id="g877"
     transform="matrix(1.1,0,0,1.1,-3.1845928,-3.2065454)">
    <path
       id="path5"
       style="fill:#dfdfdf;fill-opacity:1;stroke:none;stroke-width:0.878917;stroke-dasharray:none;stroke-opacity:0.6"
       d="m 53.74299,12.83995 c -1.106607,0.0067 -2.212954,0.305421 -3.181113,0.881001 -1.368558,0.81361 -2.55057,2.38684 -2.938358,3.909452 -0.207108,0.813079 -0.204812,2.281616 0.0029,3.093522 0.602783,2.361101 2.68243,4.293739 5.085802,4.725383 0.830759,0.149196 2.054687,0.04516 3.000913,-0.255284 3.160743,-1.003678 5.017074,-4.34577 4.197285,-7.551101 C 59.36434,15.508104 57.803997,13.839034 55.708062,13.147804 55.072637,12.938257 54.4073,12.835948 53.743326,12.839949 Z m -43.592132,0.0099 c -0.6512867,0.0115 -1.3123416,0.112603 -1.8871466,0.30038 -4.3804383,1.430882 -5.8358324,6.860195 -2.7531327,10.266691 0.9410533,1.039896 2.0126958,1.64977 3.4989855,1.992269 0.8103953,0.186737 2.1426408,0.114587 3.0484698,-0.16518 1.863833,-0.575683 3.512549,-2.175784 4.152227,-4.027087 0.355837,-1.029829 0.355837,-3.052314 0,-4.082149 -0.648856,-1.877856 -2.287734,-3.449327 -4.222307,-4.049569 -0.543049,-0.168492 -1.185792,-0.246494 -1.837096,-0.235262 z m 7.471011,8.559748 c -0.02671,0 -0.04998,0.06392 -0.04998,0.140172 0,0.295261 -0.846214,1.868469 -1.313997,2.44278 l -0.490562,0.603192 1.832088,1.081229 c 1.008535,0.594381 2.217519,1.311302 2.685557,1.594316 0.468038,0.283016 0.857913,0.516296 0.865985,0.51809 0.0077,0.0016 0.185719,-0.359265 0.395448,-0.800912 0.209712,-0.441606 0.628674,-1.159408 0.93104,-1.596785 0.302345,-0.437373 0.530993,-0.813307 0.508065,-0.835954 -0.07372,-0.07279 -5.31317,-3.146083 -5.363607,-3.146075 z m 28.735221,0 c -0.04529,0 -5.297329,3.076627 -5.371126,3.146083 -0.02261,0.02156 0.205684,0.398582 0.508073,0.835949 0.30242,0.437381 0.721056,1.157099 0.931069,1.59932 l 0.382872,0.803417 0.332859,-0.202726 c 0.183298,-0.111598 1.290214,-0.763873 2.460313,-1.449167 1.170082,-0.685296 2.236333,-1.314156 2.367691,-1.39659 l 0.237728,-0.147636 -0.475521,-0.585667 c -0.443692,-0.54486 -1.331425,-2.196959 -1.331425,-2.477831 0,-0.06883 -0.01933,-0.125127 -0.04227,-0.125127 z m -14.371366,0.480571 c -2.004489,9.07e-4 -2.9011,0.194218 -4.467586,0.961092 -3.497133,1.712001 -5.691483,5.235838 -5.691484,9.142912 0,4.869725 3.374387,8.99129 8.191829,10.00639 0.920032,0.193946 3.545955,0.133702 4.387498,-0.100122 1.935582,-0.537896 3.443653,-1.399115 4.762921,-2.720557 1.32703,-1.329223 2.223729,-2.889565 2.720591,-4.737897 0.305378,-1.136046 0.287862,-3.838533 -0.03203,-5.008202 -0.98525,-3.59547 -3.709109,-6.325969 -7.283791,-7.303326 -0.751758,-0.205539 -1.145139,-0.240936 -2.587945,-0.240275 z m -10.822325,14.303819 -0.332878,0.202725 c -0.183353,0.111587 -1.290201,0.763857 -2.460302,1.449154 -1.170098,0.685295 -2.236335,1.314156 -2.367697,1.396587 l -0.237771,0.147684 0.493056,0.605684 c 0.468351,0.575023 1.313999,2.147322 1.313999,2.44278 0,0.0763 0.01874,0.140203 0.0425,0.140203 0.04476,0 5.297314,-3.076621 5.371114,-3.14608 0.02298,-0.02187 -0.205718,-0.398566 -0.508073,-0.835953 -0.302329,-0.437437 -0.721021,-1.157151 -0.931034,-1.599379 z m 21.644643,0 -0.382928,0.803413 c -0.210008,0.44223 -0.632871,1.168495 -0.941079,1.614333 -0.308187,0.445845 -0.513561,0.83083 -0.455554,0.853477 0.05799,0.02277 1.25391,0.727196 2.658028,1.56678 1.404121,0.839583 2.589119,1.531373 2.633006,1.536756 0.04469,0.0053 0.08015,-0.04349 0.08015,-0.107646 0,-0.292332 0.86021,-1.910012 1.308988,-2.460305 l 0.498038,-0.610677 -0.23773,-0.150211 c -0.131436,-0.08352 -1.197642,-0.713774 -2.367741,-1.399046 -1.170106,-0.68528 -2.276935,-1.336177 -2.460311,-1.446649 z m 10.874887,2.25757 c -0.130039,8.8e-5 -0.255368,0.0064 -0.37538,0.01771 -2.504002,0.232715 -4.713946,1.928629 -5.528798,4.244834 -0.324523,0.922554 -0.403343,2.65185 -0.165251,3.58158 0.634359,2.476029 2.650893,4.336456 5.193413,4.787945 0.813484,0.144418 2.040044,0.029 2.95336,-0.275301 3.734096,-1.245278 5.437756,-5.514209 3.594092,-9.007756 -0.511174,-0.968607 -1.748782,-2.16259 -2.74311,-2.64799 -0.893082,-0.436003 -2.017906,-0.701459 -2.928334,-0.700796 z m -43.534569,0.0077 c -0.12759,0.0014 -0.2561305,0.0076 -0.3829385,0.01771 -1.6089381,0.128389 -2.8840786,0.729056 -4.0546132,1.912144 -0.8642865,0.873553 -1.3534596,1.733751 -1.6493782,2.890784 -0.9091182,3.554628 1.4847891,7.188473 5.140853,7.798881 0.8011289,0.133702 1.1972719,0.126112 2.1149109,-0.03807 1.301101,-0.231992 2.319962,-0.78105 3.338798,-1.802047 1.319921,-1.322727 1.852108,-2.612859 1.852108,-4.490121 0,-1.483403 -0.379295,-2.590553 -1.311495,-3.821857 -1.161545,-1.533692 -3.13433,-2.487538 -5.048245,-2.467275 z" />
  </g>
</svg>
