<?xml version="1.0" encoding="UTF-8" standalone="no"?>
<svg
   width="64"
   height="64"
   version="1.1"
   id="svg73"
   sodipodi:docname="kazam.svg"
   inkscape:version="1.4.2 (ebf0e940d0, 2025-05-08)"
   xmlns:inkscape="http://www.inkscape.org/namespaces/inkscape"
   xmlns:sodipodi="http://sodipodi.sourceforge.net/DTD/sodipodi-0.dtd"
   xmlns="http://www.w3.org/2000/svg"
   xmlns:svg="http://www.w3.org/2000/svg"
   xmlns:rdf="http://www.w3.org/1999/02/22-rdf-syntax-ns#"
   xmlns:cc="http://creativecommons.org/ns#"
   xmlns:dc="http://purl.org/dc/elements/1.1/">
  <metadata
     id="metadata77">
    <rdf:RDF>
      <cc:Work
         rdf:about="">
        <dc:format>image/svg+xml</dc:format>
        <dc:type
           rdf:resource="http://purl.org/dc/dcmitype/StillImage" />
      </cc:Work>
    </rdf:RDF>
  </metadata>
  <sodipodi:namedview
     pagecolor="#f5f7fa"
     bordercolor="#666666"
     borderopacity="1"
     objecttolerance="10"
     gridtolerance="10"
     guidetolerance="10"
     inkscape:pageopacity="0"
     inkscape:pageshadow="2"
     inkscape:window-width="1377"
     inkscape:window-height="886"
     id="namedview75"
     showgrid="false"
     inkscape:zoom="6.2890624"
     inkscape:cx="47.622361"
     inkscape:cy="45.396274"
     inkscape:window-x="264"
     inkscape:window-y="75"
     inkscape:window-maximized="0"
     inkscape:current-layer="g877"
     inkscape:document-rotation="0"
     inkscape:pagecheckerboard="0"
     inkscape:showpageshadow="2"
     inkscape:deskcolor="#d1d1d1" />
  <defs
     id="defs29" />
  <circle
     cx="32.516094"
     cy="31.877844"
     r="0"
     fill="url(#b)"
     stroke-width="1.5715"
     id="circle41"
     style="fill:url(#b)" />
  <g
     aria-label="GZ"
     transform="matrix(1.2212657,0,0,0.81882264,0.4960938,-0.1661539)"
     id="text93"
     style="font-weight:bold;font-size:11.5263px;line-height:1.25;font-family:sans-serif;-inkscape-font-specification:'sans-serif Bold';fill:#f2f2f2;stroke-width:0.288159" />
  <g
     id="g877"
     transform="matrix(1.1,0,0,1.1,-3.1845928,-3.2065454)">
    <path
       d="m 41.889617,23.416782 12.30794,-8.317734 c 1.00798,-0.681199 1.92881,-0.201019 2.056371,1.070276 l 2.54839,25.385372 c 0.127789,1.27232 -0.676822,1.958958 -1.794855,1.534271 l -13.707324,-5.20486 0.297422,3.05011 c 0.248787,2.552772 -1.46755,4.839486 -3.831267,5.107334 L 11.936712,49.194873 C 9.5720226,49.462817 7.4538176,47.617772 7.2042575,45.05782 L 5.18039,24.299798 C 4.9315303,21.74703 6.6478825,19.460311 9.0116144,19.192466 L 36.841181,16.039142 c 2.364701,-0.267964 4.482911,1.577115 4.732469,4.137072 z m 0,0 -11.37401,7.686618 c -1.007134,0.680634 -0.917977,1.577858 0.201058,2.002841 l 12.583466,4.778231 z"
       fill="#f5f7fa"
       id="path27"
       style="fill:#dfdfdf;fill-opacity:1;stroke:none;stroke-width:0.679559;stroke-dasharray:none;stroke-opacity:0.6" />
  </g>
</svg>
