<?xml version="1.0" encoding="UTF-8" standalone="no"?>
<svg
   width="64"
   height="64"
   version="1.1"
   id="svg73"
   sodipodi:docname="kphotoalbum.svg"
   inkscape:version="1.4.2 (ebf0e940d0, 2025-05-08)"
   xmlns:inkscape="http://www.inkscape.org/namespaces/inkscape"
   xmlns:sodipodi="http://sodipodi.sourceforge.net/DTD/sodipodi-0.dtd"
   xmlns="http://www.w3.org/2000/svg"
   xmlns:svg="http://www.w3.org/2000/svg"
   xmlns:rdf="http://www.w3.org/1999/02/22-rdf-syntax-ns#"
   xmlns:cc="http://creativecommons.org/ns#"
   xmlns:dc="http://purl.org/dc/elements/1.1/">
  <metadata
     id="metadata77">
    <rdf:RDF>
      <cc:Work
         rdf:about="">
        <dc:format>image/svg+xml</dc:format>
        <dc:type
           rdf:resource="http://purl.org/dc/dcmitype/StillImage" />
      </cc:Work>
    </rdf:RDF>
  </metadata>
  <sodipodi:namedview
     pagecolor="#f5f7fa"
     bordercolor="#666666"
     borderopacity="1"
     objecttolerance="10"
     gridtolerance="10"
     guidetolerance="10"
     inkscape:pageopacity="0"
     inkscape:pageshadow="2"
     inkscape:window-width="1377"
     inkscape:window-height="886"
     id="namedview75"
     showgrid="false"
     inkscape:zoom="6.2890624"
     inkscape:cx="47.622361"
     inkscape:cy="45.396274"
     inkscape:window-x="86"
     inkscape:window-y="56"
     inkscape:window-maximized="0"
     inkscape:current-layer="g877"
     inkscape:document-rotation="0"
     inkscape:pagecheckerboard="0"
     inkscape:showpageshadow="2"
     inkscape:deskcolor="#d1d1d1" />
  <defs
     id="defs29" />
  <circle
     cx="32.516094"
     cy="31.877844"
     r="0"
     fill="url(#b)"
     stroke-width="1.5715"
     id="circle41"
     style="fill:url(#b)" />
  <g
     aria-label="GZ"
     transform="matrix(1.2212657,0,0,0.81882264,0.4960938,-0.1661539)"
     id="text93"
     style="font-weight:bold;font-size:11.5263px;line-height:1.25;font-family:sans-serif;-inkscape-font-specification:'sans-serif Bold';fill:#f2f2f2;stroke-width:0.288159" />
  <g
     id="g877"
     transform="matrix(1.1,0,0,1.1,-3.1845928,-3.2065454)">
    <path
       style="color:#444444;fill:#dfdfdf;fill-opacity:1;stroke:none;stroke-width:1.65255;stroke-dasharray:none;stroke-opacity:0.3"
       class="ColorScheme-Text"
       d="m 25.324455,8.6905436 c -1.332306,0 -1.330461,0.00165 -2.59566,1.3466154 l -3.610505,5.314928 h -8.450533 c -2.9310836,0 -5.3279408,2.185538 -5.3279408,5.035188 v 29.755761 c 0,2.849679 2.3968572,5.17832 5.3279408,5.17832 h 42.636477 c 2.931079,0 5.327936,-2.328641 5.327936,-5.17832 V 20.387275 c 0,-2.84965 -2.396857,-5.035187 -5.327936,-5.035187 H 44.853711 L 41.19766,9.9851193 C 39.981339,8.6927843 39.979857,8.6905436 38.647542,8.6905436 Z m 28.272523,9.9923154 a 1.6653859,1.6653859 0 0 1 0.03881,0 1.6653859,1.6653859 0 0 1 1.665254,1.665386 1.6653859,1.6653859 0 0 1 -1.665459,1.665381 1.6653859,1.6653859 0 0 1 -1.665329,-1.665381 1.6653859,1.6653859 0 0 1 1.626355,-1.665386 z m -21.812652,3.330767 a 13.323087,13.323087 0 0 1 0.201679,0 A 13.323087,13.323087 0 0 1 45.309082,35.336725 13.323087,13.323087 0 0 1 31.986007,48.659811 13.323087,13.323087 0 0 1 18.662922,35.336725 13.323087,13.323087 0 0 1 31.784332,22.013626 Z m 0.03895,6.661547 a 6.661544,6.661544 0 0 0 -6.498889,6.661552 6.661544,6.661544 0 0 0 6.661548,6.661535 6.661544,6.661544 0 0 0 6.661548,-6.661535 6.661544,6.661544 0 0 0 -6.661548,-6.661551 6.661544,6.661544 0 0 0 -0.162629,0 z"
       id="path5-3" />
  </g>
</svg>
