<?xml version="1.0" encoding="UTF-8" standalone="no"?>
<svg
   width="64"
   height="64"
   version="1.1"
   id="svg73"
   sodipodi:docname="krita.svg"
   inkscape:version="1.4.2 (ebf0e940d0, 2025-05-08)"
   xmlns:inkscape="http://www.inkscape.org/namespaces/inkscape"
   xmlns:sodipodi="http://sodipodi.sourceforge.net/DTD/sodipodi-0.dtd"
   xmlns="http://www.w3.org/2000/svg"
   xmlns:svg="http://www.w3.org/2000/svg"
   xmlns:rdf="http://www.w3.org/1999/02/22-rdf-syntax-ns#"
   xmlns:cc="http://creativecommons.org/ns#"
   xmlns:dc="http://purl.org/dc/elements/1.1/">
  <metadata
     id="metadata77">
    <rdf:RDF>
      <cc:Work
         rdf:about="">
        <dc:format>image/svg+xml</dc:format>
        <dc:type
           rdf:resource="http://purl.org/dc/dcmitype/StillImage" />
      </cc:Work>
    </rdf:RDF>
  </metadata>
  <sodipodi:namedview
     pagecolor="#f5f7fa"
     bordercolor="#666666"
     borderopacity="1"
     objecttolerance="10"
     gridtolerance="10"
     guidetolerance="10"
     inkscape:pageopacity="0"
     inkscape:pageshadow="2"
     inkscape:window-width="1377"
     inkscape:window-height="886"
     id="namedview75"
     showgrid="false"
     inkscape:zoom="6.2890624"
     inkscape:cx="47.622361"
     inkscape:cy="45.396274"
     inkscape:window-x="264"
     inkscape:window-y="75"
     inkscape:window-maximized="0"
     inkscape:current-layer="g877"
     inkscape:document-rotation="0"
     inkscape:pagecheckerboard="0"
     inkscape:showpageshadow="2"
     inkscape:deskcolor="#d1d1d1" />
  <defs
     id="defs29" />
  <circle
     cx="32.516094"
     cy="31.877844"
     r="0"
     fill="url(#b)"
     stroke-width="1.5715"
     id="circle41"
     style="fill:url(#b)" />
  <g
     aria-label="GZ"
     transform="matrix(1.2212657,0,0,0.81882264,0.4960938,-0.1661539)"
     id="text93"
     style="font-weight:bold;font-size:11.5263px;line-height:1.25;font-family:sans-serif;-inkscape-font-specification:'sans-serif Bold';fill:#f2f2f2;stroke-width:0.288159" />
  <g
     id="g877"
     transform="matrix(1.1,0,0,1.1,-3.1845928,-3.2065454)">
    <path
       style="fill:#dfdfdf;fill-opacity:1;stroke:none;stroke-width:0.904496;stroke-dasharray:none;stroke-opacity:0.6"
       d="M 29.359866,59.626781 C 23.58359,59.039893 18.359101,56.829363 13.968755,53.11465 13.554224,52.763908 12.66653,51.91012 11.996106,51.217331 5.947668,44.967226 3.2516104,36.226868 4.6637721,27.446693 5.2186341,23.996826 6.4546713,20.644616 8.3146224,17.545376 10.292286,14.249981 13.614488,10.840367 16.934726,8.6984518 20.733464,6.247852 25.024344,4.7960895 29.687211,4.3838096 c 1.475275,-0.130478 4.793886,-0.056914 6.227288,0.13805 5.306321,0.7215909 9.9546,2.5731521 13.921947,5.5455704 4.707836,3.527216 7.982205,8.328813 9.251398,13.566462 0.49086,2.025607 0.586409,2.860899 0.588293,5.142841 0.0015,1.834114 -0.02169,2.205891 -0.204568,3.103431 -1.180846,5.838125 -5.05444,10.341459 -10.445885,12.144072 -1.966759,0.657619 -2.63433,0.729939 -7.126052,0.77241 -3.878049,0.03653 -3.958176,0.04055 -4.666419,0.254392 -1.694277,0.5105 -2.820941,1.764863 -3.047148,3.39244 -0.16178,1.164006 0.231715,2.337701 1.239604,3.697672 0.678549,0.915588 0.730867,1.076886 0.777638,2.398213 0.03128,0.884001 0.0069,1.291823 -0.103279,1.729073 -0.360658,1.430807 -1.195865,2.494858 -2.415256,3.077103 l -0.696432,0.332592 -1.418716,0.0142 c -0.780298,0.008 -1.774714,-0.02166 -2.20982,-0.0656 z M 13.743393,31.921744 c 1.384447,-0.360597 2.536687,-1.379051 3.070202,-2.713736 0.290052,-0.725605 0.331115,-1.845455 0.09607,-2.619372 -0.813454,-2.678104 -3.820359,-3.935536 -6.192173,-2.589454 -1.0773362,0.611428 -1.9690677,1.8852 -2.1793998,3.113107 -0.4888939,2.854136 2.4142098,5.536454 5.2053388,4.809455 z m 36.146646,0.0466 c 0.775132,-0.144623 1.565098,-0.585148 2.212774,-1.233864 1.365869,-1.368056 1.676745,-3.156421 0.842219,-4.844954 -1.088234,-2.201878 -3.632111,-3.054252 -5.811316,-1.94719 -0.734428,0.373086 -1.536221,1.226598 -1.928702,2.053052 -0.288698,0.607811 -0.332703,0.790287 -0.364093,1.509112 -0.02741,0.652089 0.0016,0.942211 0.151049,1.432449 0.639663,2.105948 2.775219,3.427616 4.89817,3.031408 z M 24.61519,19.059099 c 1.567566,-0.459877 2.810836,-1.856439 3.101725,-3.484149 0.397972,-2.226915 -1.287775,-4.511854 -3.61765,-4.903536 -2.029601,-0.341201 -4.180635,1.055849 -4.777276,3.102742 -0.294882,1.011612 -0.1138,2.401321 0.427941,3.284962 0.280269,0.457097 0.93353,1.140518 1.391617,1.455814 0.928201,0.638872 2.377128,0.865861 3.473643,0.544167 z m 15.614447,-0.277146 c 0.961566,-0.476476 1.6313,-1.156867 2.090458,-2.123735 0.286871,-0.604193 0.331047,-0.787788 0.362496,-1.505786 0.02797,-0.652093 -0.0017,-0.942215 -0.151049,-1.432447 -0.616278,-2.029198 -2.726544,-3.390454 -4.724721,-3.04781 -2.325933,0.398855 -4.006599,2.64108 -3.63962,4.855731 0.202599,1.222577 1.063034,2.492006 2.101761,3.100737 0.746122,0.437245 1.325679,0.574351 2.315877,0.54784 0.852079,-0.02278 0.934479,-0.04264 1.644733,-0.394534 z"
       id="path7" />
  </g>
</svg>
