<?xml version="1.0" encoding="UTF-8" standalone="no"?>
<svg
   width="64"
   height="64"
   version="1.1"
   id="svg73"
   sodipodi:docname="kvantummanager.svg"
   inkscape:version="1.4.2 (ebf0e940d0, 2025-05-08)"
   xmlns:inkscape="http://www.inkscape.org/namespaces/inkscape"
   xmlns:sodipodi="http://sodipodi.sourceforge.net/DTD/sodipodi-0.dtd"
   xmlns="http://www.w3.org/2000/svg"
   xmlns:svg="http://www.w3.org/2000/svg"
   xmlns:rdf="http://www.w3.org/1999/02/22-rdf-syntax-ns#"
   xmlns:cc="http://creativecommons.org/ns#"
   xmlns:dc="http://purl.org/dc/elements/1.1/">
  <metadata
     id="metadata77">
    <rdf:RDF>
      <cc:Work
         rdf:about="">
        <dc:format>image/svg+xml</dc:format>
        <dc:type
           rdf:resource="http://purl.org/dc/dcmitype/StillImage" />
      </cc:Work>
    </rdf:RDF>
  </metadata>
  <sodipodi:namedview
     pagecolor="#f5f7fa"
     bordercolor="#666666"
     borderopacity="1"
     objecttolerance="10"
     gridtolerance="10"
     guidetolerance="10"
     inkscape:pageopacity="0"
     inkscape:pageshadow="2"
     inkscape:window-width="1377"
     inkscape:window-height="886"
     id="namedview75"
     showgrid="false"
     inkscape:zoom="6.2890624"
     inkscape:cx="28.859628"
     inkscape:cy="17.570187"
     inkscape:window-x="264"
     inkscape:window-y="75"
     inkscape:window-maximized="0"
     inkscape:current-layer="g877"
     inkscape:document-rotation="0"
     inkscape:pagecheckerboard="0"
     inkscape:showpageshadow="2"
     inkscape:deskcolor="#d1d1d1" />
  <defs
     id="defs29" />
  <circle
     cx="32.516094"
     cy="31.877844"
     r="0"
     fill="url(#b)"
     stroke-width="1.5715"
     id="circle41"
     style="fill:url(#b)" />
  <g
     aria-label="GZ"
     transform="matrix(1.2212657,0,0,0.81882264,0.4960938,-0.1661539)"
     id="text93"
     style="font-weight:bold;font-size:11.5263px;line-height:1.25;font-family:sans-serif;-inkscape-font-specification:'sans-serif Bold';fill:#f2f2f2;stroke-width:0.288159" />
  <g
     id="g877"
     transform="matrix(1.1,0,0,1.1,-3.1845928,-3.2065454)">
    <path
       d="m 7.0652923,5.237402 v 0.013469 10.707338 10.707325 10.707335 3.546634 7.160717 1.766569 1.780051 a 6.6505414,7.1472151 0 0 0 6.6379997,7.133734 h -1.744199 l 0.112905,0.01361 h 4.981633 9.963265 9.963257 9.963285 9.963249 v -10.7073 h -9.963248 -9.963256 -6.324295 l 5.483558,-3.398236 8.620603,-5.353958 8.633154,-5.353665 -4.981629,-9.264413 -8.633155,5.353671 -8.620598,5.353671 -5.458471,3.384815 3.149603,-5.866115 4.981628,-9.264402 4.981635,-9.277898 -8.658253,-5.3671522 -4.981636,9.2778922 -4.98163,9.264405 -3.162142,5.893079 V 26.652255 15.944922 5.2375844 Z m 6.6379997,42.815853 c 0.878372,0 1.719113,0.377489 2.346512,1.038368 0.627409,0.660855 0.966206,1.577771 0.966206,2.521753 0,0.943961 -0.35135,1.84748 -0.966206,2.521753 -0.614865,0.674226 -1.46814,1.038369 -2.346512,1.038369 -0.878371,0 -1.719106,-0.377651 -2.346517,-1.038369 -0.627405,-0.660858 -0.966204,-1.577792 -0.966204,-2.521753 0,-0.943982 0.351347,-1.847472 0.966204,-2.521753 0.614858,-0.674161 1.468146,-1.038368 2.346517,-1.038368 z"
       fill="#bebebe"
       id="path2-3"
       style="fill:#dfdfdf;fill-opacity:1;stroke:none;stroke-width:0.967585;stroke-dasharray:none;stroke-opacity:0.6" />
  </g>
</svg>
