<?xml version="1.0" encoding="UTF-8" standalone="no"?>
<svg
   width="64"
   height="64"
   version="1.1"
   id="svg73"
   sodipodi:docname="kwalletmanager2.svg"
   inkscape:version="1.4.2 (ebf0e940d0, 2025-05-08)"
   xmlns:inkscape="http://www.inkscape.org/namespaces/inkscape"
   xmlns:sodipodi="http://sodipodi.sourceforge.net/DTD/sodipodi-0.dtd"
   xmlns="http://www.w3.org/2000/svg"
   xmlns:svg="http://www.w3.org/2000/svg"
   xmlns:rdf="http://www.w3.org/1999/02/22-rdf-syntax-ns#"
   xmlns:cc="http://creativecommons.org/ns#"
   xmlns:dc="http://purl.org/dc/elements/1.1/">
  <metadata
     id="metadata77">
    <rdf:RDF>
      <cc:Work
         rdf:about="">
        <dc:format>image/svg+xml</dc:format>
        <dc:type
           rdf:resource="http://purl.org/dc/dcmitype/StillImage" />
      </cc:Work>
    </rdf:RDF>
  </metadata>
  <sodipodi:namedview
     pagecolor="#f5f7fa"
     bordercolor="#666666"
     borderopacity="1"
     objecttolerance="10"
     gridtolerance="10"
     guidetolerance="10"
     inkscape:pageopacity="0"
     inkscape:pageshadow="2"
     inkscape:window-width="1377"
     inkscape:window-height="886"
     id="namedview75"
     showgrid="false"
     inkscape:zoom="6.2890624"
     inkscape:cx="28.859628"
     inkscape:cy="17.570187"
     inkscape:window-x="264"
     inkscape:window-y="75"
     inkscape:window-maximized="0"
     inkscape:current-layer="g877"
     inkscape:document-rotation="0"
     inkscape:pagecheckerboard="0"
     inkscape:showpageshadow="2"
     inkscape:deskcolor="#d1d1d1" />
  <defs
     id="defs29" />
  <circle
     cx="32.516094"
     cy="31.877844"
     r="0"
     fill="url(#b)"
     stroke-width="1.5715"
     id="circle41"
     style="fill:url(#b)" />
  <g
     aria-label="GZ"
     transform="matrix(1.2212657,0,0,0.81882264,0.4960938,-0.1661539)"
     id="text93"
     style="font-weight:bold;font-size:11.5263px;line-height:1.25;font-family:sans-serif;-inkscape-font-specification:'sans-serif Bold';fill:#f2f2f2;stroke-width:0.288159" />
  <g
     id="g877"
     transform="matrix(1.1,0,0,1.1,-3.1845928,-3.2065454)">
    <path
       id="path19"
       style="fill:#dfdfdf;fill-opacity:1;stroke:none;stroke-width:0.814044;stroke-dasharray:none;stroke-dashoffset:2.2;stroke-opacity:0.6"
       d="m 24.926457,9.4021847 c -1.42359,0.01738 -2.865548,0.3372688 -4.242543,0.9969783 -6.539962,3.133203 -7.995567,11.54155 -2.869004,16.582844 1.548406,1.522647 3.16515,2.414306 5.157032,2.847487 1.635296,0.355633 2.280103,0.371967 3.837297,0.08963 3.790101,-0.687095 7.113759,-3.667681 8.194592,-7.351825 0.50973,-1.73743 0.436894,-4.445499 -0.164914,-6.150424 -1.551323,-4.394526 -5.641664,-7.0668261 -9.912414,-7.0147026 z m 17.439964,6.7887783 c -0.781276,0.01211 -1.568221,0.127842 -2.345422,0.358633 l -1.090213,0.322771 0.129053,1.846924 c 0.241883,3.406995 -1.029344,7.454426 -3.069824,9.772537 -0.474181,0.538692 -0.864288,1.063368 -0.864288,1.165533 0,0.244013 2.059141,2.21831 2.772168,2.657413 0.306201,0.188578 1.113359,0.537791 1.79314,0.778221 1.908997,0.675201 4.562249,0.525849 6.458845,-0.362203 1.892534,-0.886166 3.562241,-2.489088 4.429014,-4.249717 0.637996,-1.295894 0.681373,-1.527909 0.681373,-3.607765 0,-2.074813 -0.04467,-2.31471 -0.674228,-3.589846 -1.587725,-3.219773 -4.834151,-5.144022 -8.219655,-5.092495 z m -1.405826,21.126631 1.032843,0.68139 c 2.385398,1.580009 4.537413,4.019609 5.859953,6.634555 0.713906,1.411585 1.613812,4.519343 1.613812,5.573039 v 0.817683 h 5.189314 5.189298 l -0.07161,-2.488883 c -0.0717,-2.380449 -0.11243,-2.559753 -0.867924,-4.08831 -2.247993,-4.547773 -7.988972,-7.129474 -15.847704,-7.129474 z m -15.564338,0.03949 c -0.506758,4.72e-4 -1.023696,0.0095 -1.552852,0.025 -4.426855,0.129946 -6.554046,0.485129 -9.582471,1.599442 C 7.6763138,41.404396 4.1331543,46.334068 4.1261706,53.08272 v 1.527746 H 25.005349 45.884534 v -2.169687 c 0,-4.06101 -1.149451,-6.84006 -3.984343,-9.647003 -3.782198,-3.744944 -8.902533,-5.444054 -16.503934,-5.436778 z" />
  </g>
</svg>
