<?xml version="1.0" encoding="UTF-8" standalone="no"?>
<svg
   width="64"
   height="64"
   version="1.1"
   id="svg73"
   sodipodi:docname="libreoffice-draw.svg"
   inkscape:version="1.4.2 (ebf0e940d0, 2025-05-08)"
   xmlns:inkscape="http://www.inkscape.org/namespaces/inkscape"
   xmlns:sodipodi="http://sodipodi.sourceforge.net/DTD/sodipodi-0.dtd"
   xmlns="http://www.w3.org/2000/svg"
   xmlns:svg="http://www.w3.org/2000/svg"
   xmlns:rdf="http://www.w3.org/1999/02/22-rdf-syntax-ns#"
   xmlns:cc="http://creativecommons.org/ns#"
   xmlns:dc="http://purl.org/dc/elements/1.1/">
  <metadata
     id="metadata77">
    <rdf:RDF>
      <cc:Work
         rdf:about="">
        <dc:format>image/svg+xml</dc:format>
        <dc:type
           rdf:resource="http://purl.org/dc/dcmitype/StillImage" />
      </cc:Work>
    </rdf:RDF>
  </metadata>
  <sodipodi:namedview
     pagecolor="#f5f7fa"
     bordercolor="#666666"
     borderopacity="1"
     objecttolerance="10"
     gridtolerance="10"
     guidetolerance="10"
     inkscape:pageopacity="0"
     inkscape:pageshadow="2"
     inkscape:window-width="1377"
     inkscape:window-height="886"
     id="namedview75"
     showgrid="false"
     inkscape:zoom="6.2890624"
     inkscape:cx="47.622361"
     inkscape:cy="45.396274"
     inkscape:window-x="0"
     inkscape:window-y="75"
     inkscape:window-maximized="0"
     inkscape:current-layer="g877"
     inkscape:document-rotation="0"
     inkscape:pagecheckerboard="0"
     inkscape:showpageshadow="2"
     inkscape:deskcolor="#d1d1d1" />
  <defs
     id="defs29" />
  <circle
     cx="32.516094"
     cy="31.877844"
     r="0"
     fill="url(#b)"
     stroke-width="1.5715"
     id="circle41"
     style="fill:url(#b)" />
  <g
     aria-label="GZ"
     transform="matrix(1.2212657,0,0,0.81882264,0.4960938,-0.1661539)"
     id="text93"
     style="font-weight:bold;font-size:11.5263px;line-height:1.25;font-family:sans-serif;-inkscape-font-specification:'sans-serif Bold';fill:#f2f2f2;stroke-width:0.288159" />
  <g
     id="g877"
     transform="matrix(1.1,0,0,1.1,-3.1845928,-3.2065454)">
    <path
       style="fill:#dfdfdf;fill-opacity:1;stroke:none;stroke-width:0.904496;stroke-dasharray:none;stroke-opacity:0.6"
       d="m 24.550652,53.110208 c -3.177585,-0.300574 -6.232425,-2.015493 -8.484433,-4.762963 -1.678246,-2.047497 -3.022946,-5.835007 -3.527811,-9.936554 l -0.09969,-0.809562 -1.078322,-0.04983 C 10.76731,37.523876 8.8480191,37.477357 7.0952844,37.448042 l -3.1867813,-0.05338 2.063e-4,-0.928572 c 1.105e-4,-0.510719 0.024157,-1.705863 0.053892,-2.655881 l 0.05344,-1.727309 1.3237287,0.02904 c 0.7280502,0.01579 2.5992613,0.06172 4.1582506,0.10208 1.5589933,0.04018 2.8445223,0.06334 2.8567493,0.05133 0.01211,-0.01174 0.05824,-0.505469 0.102278,-1.096832 0.210331,-2.824383 1.059679,-5.970488 2.233969,-8.274788 1.786461,-3.505543 4.292477,-5.567513 7.392443,-6.082567 3.56513,-0.592344 7.095608,0.277708 10.146694,2.500527 1.079454,0.786426 2.915557,2.577842 4.003096,3.905662 0.473069,0.577585 1.600003,2.054218 2.504304,3.281393 2.88643,3.917023 3.826366,4.984615 4.809766,5.463015 0.596831,0.290361 0.815892,0.307956 1.275369,0.102608 0.462433,-0.206714 0.603798,-0.393679 0.7088,-0.936811 0.202843,-1.049757 -0.02626,-2.48641 -1.04399,-6.541703 -0.981327,-3.910921 -1.12859,-4.773078 -1.131039,-6.621845 -0.0017,-1.35759 0.01562,-1.547911 0.21849,-2.281742 0.801407,-2.90991 3.04208,-4.843715 5.612289,-4.843715 2.086188,0 4.84854,1.15996 7.666067,3.219105 0.854383,0.624415 3.166273,2.519572 3.209829,2.631242 0.03993,0.102883 -3.437331,4.007731 -3.523118,3.956132 -0.03993,-0.02469 -0.52979,-0.425478 -1.085264,-0.890243 -1.873882,-1.567661 -3.227795,-2.47909 -4.628605,-3.115927 -0.994346,-0.452041 -1.47632,-0.563444 -1.73207,-0.400308 -0.249026,0.158877 -0.363981,0.577291 -0.364608,1.327254 -9.54e-4,1.252695 0.26444,2.681663 1.121942,6.042537 0.98248,3.850488 1.237086,5.440288 1.159213,7.238562 -0.0531,1.251304 -0.268489,2.111031 -0.779989,3.129385 -0.326885,0.650944 -0.495203,0.870806 -1.167973,1.525155 -0.639732,0.622472 -0.923436,0.833013 -1.526033,1.13279 -2.572143,1.2796 -5.083851,1.092084 -7.486441,-0.558895 -1.305856,-0.897357 -2.84458,-2.54051 -4.485534,-4.789976 -0.478286,-0.655633 -1.236426,-1.696453 -1.684759,-2.312923 -3.141568,-4.319713 -5.64176,-6.464214 -8.112746,-6.958605 -1.191588,-0.238412 -2.861828,-0.09194 -3.707243,0.32513 -0.907861,0.447865 -1.921408,1.654046 -2.611126,3.107392 -0.820494,1.728904 -1.460688,4.282525 -1.600038,6.382259 l -0.05672,0.854663 0.39813,0.05201 c 3.426632,0.447999 5.562979,1.01242 7.612196,2.011132 2.917226,1.421742 4.692375,3.194673 6.241236,6.233473 1.706365,3.347787 1.840186,6.317994 0.390065,8.657732 -1.229078,1.983114 -3.381614,3.220395 -6.040485,3.4721 -0.895757,0.08481 -0.951226,0.08481 -1.842548,4.61e-4 z m 2.699392,-5.631373 c 0.325454,-0.164347 0.469207,-0.29423 0.560097,-0.50593 0.431963,-1.00646 0.01406,-2.674675 -1.145733,-4.575361 -1.106396,-1.812981 -2.417481,-2.770188 -4.867079,-3.553492 -0.886886,-0.283593 -3.026778,-0.703511 -3.589292,-0.704324 l -0.215781,-3.2e-4 0.155544,0.86066 c 0.361899,2.002974 0.935101,3.798008 1.660326,5.199515 0.62966,1.21684 1.703935,2.201752 3.138883,2.877785 1.116751,0.526141 1.782415,0.673368 2.919502,0.645538 0.846464,-0.02055 0.991719,-0.04623 1.38357,-0.244063 z"
       id="path109" />
  </g>
</svg>
