<?xml version="1.0" encoding="UTF-8" standalone="no"?>
<svg
   width="64"
   height="64"
   version="1.1"
   id="svg73"
   sodipodi:docname="libreoffice-calc.svg"
   inkscape:version="1.4.2 (ebf0e940d0, 2025-05-08)"
   xmlns:inkscape="http://www.inkscape.org/namespaces/inkscape"
   xmlns:sodipodi="http://sodipodi.sourceforge.net/DTD/sodipodi-0.dtd"
   xmlns="http://www.w3.org/2000/svg"
   xmlns:svg="http://www.w3.org/2000/svg"
   xmlns:rdf="http://www.w3.org/1999/02/22-rdf-syntax-ns#"
   xmlns:cc="http://creativecommons.org/ns#"
   xmlns:dc="http://purl.org/dc/elements/1.1/">
  <metadata
     id="metadata77">
    <rdf:RDF>
      <cc:Work
         rdf:about="">
        <dc:format>image/svg+xml</dc:format>
        <dc:type
           rdf:resource="http://purl.org/dc/dcmitype/StillImage" />
      </cc:Work>
    </rdf:RDF>
  </metadata>
  <sodipodi:namedview
     pagecolor="#f5f7fa"
     bordercolor="#666666"
     borderopacity="1"
     objecttolerance="10"
     gridtolerance="10"
     guidetolerance="10"
     inkscape:pageopacity="0"
     inkscape:pageshadow="2"
     inkscape:window-width="1377"
     inkscape:window-height="886"
     id="namedview75"
     showgrid="false"
     inkscape:zoom="6.2890624"
     inkscape:cx="47.622361"
     inkscape:cy="45.396274"
     inkscape:window-x="0"
     inkscape:window-y="57"
     inkscape:window-maximized="0"
     inkscape:current-layer="g877"
     inkscape:document-rotation="0"
     inkscape:pagecheckerboard="0"
     inkscape:showpageshadow="2"
     inkscape:deskcolor="#d1d1d1" />
  <defs
     id="defs29" />
  <circle
     cx="32.516094"
     cy="31.877844"
     r="0"
     fill="url(#b)"
     stroke-width="1.5715"
     id="circle41"
     style="fill:url(#b)" />
  <g
     aria-label="GZ"
     transform="matrix(1.2212657,0,0,0.81882264,0.4960938,-0.1661539)"
     id="text93"
     style="font-weight:bold;font-size:11.5263px;line-height:1.25;font-family:sans-serif;-inkscape-font-specification:'sans-serif Bold';fill:#f2f2f2;stroke-width:0.288159" />
  <g
     id="g877"
     transform="matrix(1.1,0,0,1.1,-3.1845928,-3.2065454)">
    <path
       style="fill:#dfdfdf;fill-opacity:1;stroke:none;stroke-width:0.799015;stroke-dasharray:none;stroke-opacity:0.6"
       d="M 6.26318,32.00595 V 13.739284 H 31.985992 57.708807 V 32.00595 50.272616 H 31.985992 6.26318 Z m 23.628124,10.992343 v -3.718007 h -9.677482 -9.67747 v 3.718007 3.71799 h 9.67747 9.677482 z m 23.628126,-3.35e-4 v -3.718332 l -9.698428,0.02004 -9.698423,0.02003 -0.0218,3.697787 -0.02179,3.697789 h 9.720189 9.720206 V 42.997081 Z M 29.891304,32.00595 v -3.717992 h -9.677482 -9.67747 v 3.717993 3.717996 h 9.67747 9.677482 z m 23.628126,-3.22e-4 v -3.718331 l -9.698428,0.02065 -9.698423,0.02055 -0.0218,3.69779 -0.02179,3.697786 h 9.720249 9.720204 V 32.005622 Z M 29.891304,21.013621 v -3.717994 h -9.677482 -9.67747 v 3.717994 3.717998 h 9.67747 9.677482 z m 23.628126,-3.36e-4 v -3.71833 l -9.698428,0.02055 -9.698423,0.02055 -0.0218,3.697787 -0.02179,3.697791 h 9.720249 9.720204 v -3.718226 z"
       id="path2224" />
  </g>
</svg>
