<?xml version="1.0" encoding="UTF-8" standalone="no"?>
<svg
   width="64"
   height="64"
   version="1.1"
   id="svg73"
   sodipodi:docname="libreoffice-startcenter.svg"
   inkscape:version="1.4.2 (ebf0e940d0, 2025-05-08)"
   xmlns:inkscape="http://www.inkscape.org/namespaces/inkscape"
   xmlns:sodipodi="http://sodipodi.sourceforge.net/DTD/sodipodi-0.dtd"
   xmlns="http://www.w3.org/2000/svg"
   xmlns:svg="http://www.w3.org/2000/svg"
   xmlns:rdf="http://www.w3.org/1999/02/22-rdf-syntax-ns#"
   xmlns:cc="http://creativecommons.org/ns#"
   xmlns:dc="http://purl.org/dc/elements/1.1/">
  <metadata
     id="metadata77">
    <rdf:RDF>
      <cc:Work
         rdf:about="">
        <dc:format>image/svg+xml</dc:format>
        <dc:type
           rdf:resource="http://purl.org/dc/dcmitype/StillImage" />
      </cc:Work>
    </rdf:RDF>
  </metadata>
  <sodipodi:namedview
     pagecolor="#f5f7fa"
     bordercolor="#666666"
     borderopacity="1"
     objecttolerance="10"
     gridtolerance="10"
     guidetolerance="10"
     inkscape:pageopacity="0"
     inkscape:pageshadow="2"
     inkscape:window-width="1377"
     inkscape:window-height="886"
     id="namedview75"
     showgrid="false"
     inkscape:zoom="6.2890624"
     inkscape:cx="47.622361"
     inkscape:cy="45.396274"
     inkscape:window-x="0"
     inkscape:window-y="57"
     inkscape:window-maximized="0"
     inkscape:current-layer="g877"
     inkscape:document-rotation="0"
     inkscape:pagecheckerboard="0"
     inkscape:showpageshadow="2"
     inkscape:deskcolor="#d1d1d1" />
  <defs
     id="defs29" />
  <circle
     cx="32.516094"
     cy="31.877844"
     r="0"
     fill="url(#b)"
     stroke-width="1.5715"
     id="circle41"
     style="fill:url(#b)" />
  <g
     aria-label="GZ"
     transform="matrix(1.2212657,0,0,0.81882264,0.4960938,-0.1661539)"
     id="text93"
     style="font-weight:bold;font-size:11.5263px;line-height:1.25;font-family:sans-serif;-inkscape-font-specification:'sans-serif Bold';fill:#f2f2f2;stroke-width:0.288159" />
  <g
     id="g877"
     transform="matrix(1.1,0,0,1.1,-3.1845928,-3.2065454)">
    <path
       id="path1"
       style="fill:#dfdfdf;fill-opacity:1;stroke:none;stroke-width:0.915707;stroke-dasharray:none;stroke-opacity:0.6"
       d="M 26.022013,3.9213769 C 8.2406344,3.9247044 7.388584,3.9340214 6.7997133,4.2066183 6.0446503,4.5562028 5.4314453,5.1919429 5.1141979,5.9514036 4.9021989,6.4588462 4.8734054,8.7281399 4.8734054,25.866424 c 0,17.138289 0.028603,19.407589 0.2407925,19.915024 0.317205,0.759464 0.9304524,1.395217 1.6855154,1.744796 0.5888973,0.27273 1.4409211,0.285759 19.2222997,0.288902 20.37632,0.0036 19.183175,0.05787 20.192874,-0.889074 0.243718,-0.228426 0.572895,-0.694632 0.729783,-1.033531 0.272851,-0.589318 0.285756,-1.463434 0.288839,-20.070622 C 47.23697,6.9777643 47.224858,6.3493654 46.940898,5.7957674 46.562826,5.0605479 45.922022,4.4563764 45.199846,4.1547052 44.69265,3.9428141 42.499385,3.9182811 26.021995,3.9213144 Z M 20.217168,12.42675 c 0.21148,-0.0035 0.43176,0.06429 0.648268,0.225989 0.218277,0.162929 0.449186,0.486676 0.511197,0.718659 0.139514,0.521507 -0.112433,1.283921 -0.488973,1.485481 -0.482239,0.258084 -1.069104,0.168175 -1.463258,-0.225992 -0.837809,-0.837814 -0.123517,-2.189509 0.792752,-2.204138 z m -8.720235,0.270429 c 2.116668,0 2.619037,0.04021 2.619037,0.21116 0,0.127735 -0.243307,0.251159 -0.618647,0.311166 -0.47643,0.07623 -0.656006,0.191544 -0.770529,0.492684 -0.227459,0.598295 -0.197451,8.733958 0.03297,8.964719 0.22868,0.228705 1.798429,0.243632 2.385661,0.02216 0.668478,-0.252029 1.339622,-0.986216 1.822582,-1.996682 0.294998,-0.617169 0.52969,-0.918706 0.714929,-0.918706 0.21606,0 0.260866,0.09072 0.203747,0.422309 -0.250832,1.456991 -0.532997,3.213476 -0.533412,3.311767 -2.73e-4,0.06344 -1.907969,0.114841 -4.237877,0.114841 -4.0750709,0 -4.2378698,-0.01174 -4.2378698,-0.296357 0,-0.203645 0.1441121,-0.326315 0.4630131,-0.396376 0.2548546,-0.05597 0.5346385,-0.228282 0.6186598,-0.385255 0.2036059,-0.380481 0.2036059,-8.550923 0,-8.931383 -0.084021,-0.156988 -0.3637477,-0.332997 -0.6186628,-0.38896 -0.2548403,-0.05592 -0.4630131,-0.198231 -0.4630131,-0.318579 0,-0.180488 0.4590762,-0.218571 2.6190328,-0.218571 z m 12.40244,0 h 1.463256 v 1.937415 1.93742 l 0.548257,-0.337111 c 0.795255,-0.491485 2.045475,-0.377616 2.704234,0.24819 0.90911,0.863625 1.137261,1.512161 1.137261,3.222863 0,1.421895 -0.03449,1.604109 -0.459367,2.37083 -0.658573,1.189083 -1.388333,1.633138 -2.685709,1.633651 -0.81625,3.23e-4 -1.111208,-0.06858 -1.518815,-0.359325 l -0.507537,-0.363041 -0.522312,0.400082 c -0.28796,0.219656 -0.598654,0.400078 -0.689053,0.400078 -0.113147,0 -0.162985,-1.608843 -0.162985,-5.163976 v -5.163972 l -0.385254,-0.174127 c -0.211826,-0.09649 -0.385248,-0.268087 -0.385248,-0.381564 0,-0.157927 0.343101,-0.207452 1.463247,-0.207452 z m 11.568942,3.222852 c 0.323377,0.01803 0.611628,0.155414 0.818688,0.418603 0.457491,0.581655 0.421153,1.339089 -0.08517,1.737382 -0.543744,0.427702 -0.765002,0.40558 -1.311372,-0.140757 -0.254195,-0.25418 -0.567826,-0.463053 -0.692711,-0.463053 -0.444661,0 -0.672772,0.981944 -0.670482,2.882048 0.003,2.247294 0.06304,2.497503 0.633426,2.611623 0.298148,0.0596 0.444532,0.183056 0.444532,0.377854 0,0.267597 -0.148763,0.288944 -2.004093,0.288944 -1.810087,0 -2.000401,-0.02494 -2.000401,-0.270417 0,-0.149342 0.153917,-0.338685 0.344524,-0.422304 0.34001,-0.149167 0.347901,-0.211654 0.388964,-3.122834 l 0.04091,-2.967258 -0.388965,-0.148166 c -0.213613,-0.08122 -0.385229,-0.252372 -0.385229,-0.381553 0,-0.194028 0.254565,-0.233368 1.463246,-0.233368 h 1.463274 l 0.0036,0.500105 c 0.0048,0.492013 0.01078,0.496374 0.2704,0.188965 0.495641,-0.586318 1.128009,-0.885919 1.666992,-0.855725 z m 4.619433,0.01874 c 0.438161,0.0036 0.861821,0.0779 1.140972,0.222258 0.865477,0.447567 1.541046,1.708369 1.541046,2.874641 v 0.592748 h -1.77443 -1.770721 l 0.0036,0.577901 c 0.0036,0.65631 0.431906,1.70134 0.833493,2.033726 0.483876,0.400457 1.262067,0.279449 1.848516,-0.288951 0.338361,-0.327961 0.620337,-0.479053 0.777927,-0.418609 0.219547,0.08435 0.221266,0.138811 0.02192,0.518625 -0.301926,0.576884 -1.15527,1.374534 -1.68532,1.574376 -0.588033,0.221759 -1.620349,0.195335 -2.19659,-0.05558 -1.09995,-0.478883 -1.830151,-1.956587 -1.830151,-3.708138 0,-1.775644 0.737194,-3.248724 1.863324,-3.719244 0.333699,-0.139485 0.788057,-0.207261 1.226174,-0.203748 z m 9.001785,0.122252 -0.0409,15.762354 c -0.04467,17.365259 0.02769,16.116217 -0.985385,17.129288 -1.011346,1.011368 0.152032,0.943399 -16.35507,0.989077 l -14.98813,0.0409 0.04442,3.989686 0.04815,3.989654 0.463022,0.659396 c 0.4955,0.704607 1.1883,1.183656 1.978158,1.374336 0.267744,0.06438 8.807973,0.105831 18.981512,0.09264 l 18.49994,-0.02192 0.748292,-0.466729 c 0.546903,-0.338178 0.868363,-0.685635 1.181721,-1.285444 l 0.433334,-0.82608 V 38.124475 18.761415 l -0.425671,-0.83717 c -0.317945,-0.627231 -0.612825,-0.952798 -1.181657,-1.300258 l -0.75599,-0.463044 -3.822976,-0.04814 z m -29.194649,0.02594 h 1.463253 v 3.308055 c 0,3.143806 0.01547,3.321689 0.307458,3.504391 0.169414,0.105798 0.307463,0.313994 0.307463,0.46304 0,0.242958 -0.182647,0.270416 -1.770723,0.270416 -1.668796,0 -1.774421,-0.01718 -1.774421,-0.307463 0,-0.169414 0.06598,-0.307464 0.144419,-0.307464 0.07864,0 0.252112,-0.107712 0.385246,-0.240788 0.202005,-0.202087 0.240792,-0.698542 0.240792,-3.000625 V 17.01663 l -0.385252,-0.251901 c -0.211824,-0.138768 -0.385232,-0.349409 -0.385232,-0.466747 0,-0.166774 0.322871,-0.211158 1.466957,-0.211158 z m 20.181751,0.53711 c -0.536421,0 -0.756817,0.362123 -0.918701,1.504006 l -0.103774,0.729705 h 0.933524 0.933507 L 40.909571,18.27988 C 40.905175,17.962181 40.818099,17.4614 40.716919,17.164858 40.56181,16.71009 40.464158,16.624011 40.076036,16.624011 Z M 26.3406,16.901901 c -0.113607,0.0035 -0.230763,0.03897 -0.351913,0.103741 -0.542027,0.29009 -0.626033,0.699024 -0.626033,3.056152 0,2.093612 0.02796,2.334781 0.318576,2.704239 0.536874,0.682541 1.194772,0.467171 1.589202,-0.518613 0.370897,-0.926991 0.341353,-3.709698 -0.04801,-4.567576 -0.237515,-0.523078 -0.540758,-0.788164 -0.881675,-0.777967 z m -4.897258,10.113092 c 0.971205,-0.02918 1.919516,0.415194 2.133753,1.274324 0.241945,0.9702 -0.510188,1.703038 -1.322492,1.289141 -0.319509,-0.162843 -0.35635,-0.283704 -0.329683,-1.063201 0.03088,-0.896789 -0.07627,-1.035923 -0.566759,-0.726069 -0.170247,0.107558 -0.245596,0.51169 -0.285244,1.53734 l -0.05588,1.392866 h 0.633444 c 0.570916,0 0.629763,0.0371 0.629763,0.385256 0,0.346581 -0.06021,0.385243 -0.614926,0.385243 h -0.618676 v 2.774616 c 0,2.567397 0.0258,2.793118 0.311192,3.078385 0.169467,0.169468 0.445461,0.307462 0.614934,0.307462 0.171187,0 0.307467,0.105006 0.307467,0.233375 0,0.193987 -0.332344,0.229676 -2.078193,0.229676 -1.635061,0 -2.08188,-0.04513 -2.08188,-0.207451 0,-0.113426 0.173454,-0.285049 0.385249,-0.381562 l 0.385245,-0.174084 v -2.930322 -2.93021 h -0.385244 c -0.308093,0 -0.38523,-0.0772 -0.38523,-0.385245 0,-0.29918 0.08031,-0.385258 0.35564,-0.385258 0.3241,0 0.36754,-0.09996 0.522297,-1.174305 0.0985,-0.683652 0.294483,-1.34298 0.466749,-1.578091 0.45385,-0.619555 1.222778,-0.92937 1.978164,-0.95203 z m 5.008394,0.0038 c 0.716575,0.02977 1.398281,0.302289 1.752184,0.807563 0.197331,0.28177 0.237078,0.295585 0.237078,0.07779 0,-0.410129 0.569407,-0.881658 1.06317,-0.881658 0.748318,0 1.170601,0.47563 1.170601,1.311372 0,0.571272 -0.07468,0.781505 -0.363014,1.015014 -0.466466,0.37776 -0.955106,0.374028 -1.444728,-0.01162 l -0.388963,-0.307539 -0.222304,0.329691 c -0.255496,0.384769 -1.040321,0.451737 -1.437321,0.122265 -0.237568,-0.197163 -0.261235,-0.811181 -0.05953,-1.533636 0.111235,-0.397671 -0.525388,-0.266811 -0.737187,0.151887 -0.107162,0.211802 -0.195057,0.889747 -0.196301,1.504001 v 1.115003 h 0.614928 c 0.554567,0 0.614934,0.03857 0.614934,0.385256 0,0.346593 -0.06021,0.385262 -0.614934,0.385262 H 25.82544 v 2.607894 c 0,1.434784 0.06454,2.788827 0.148167,3.007996 0.101288,0.266378 0.308044,0.430568 0.618641,0.492681 0.255579,0.05119 0.463034,0.187288 0.463034,0.303771 0,0.169254 -0.416356,0.211156 -2.078185,0.211156 -1.635073,0 -2.081893,-0.04515 -2.081893,-0.207451 0,-0.113437 0.173454,-0.28505 0.38523,-0.38156 l 0.385243,-0.173947 v -2.930041 -2.930207 h -0.385232 c -0.308098,0 -0.385232,-0.0772 -0.385232,-0.385263 0,-0.305043 0.07785,-0.385243 0.374138,-0.385243 0.340999,0 0.382725,-0.07779 0.474133,-0.885361 0.137187,-1.212114 0.333767,-1.785529 0.737173,-2.163378 0.501452,-0.469749 1.254171,-0.681734 1.97076,-0.651988 z m -14.121309,0.02594 c 0.152483,-0.0014 0.306607,8.53e-4 0.463037,0.0115 1.914182,0.125594 3.365058,1.166809 4.223057,3.030224 0.778242,1.690259 0.614929,4.488133 -0.351915,6.019728 -0.564168,0.893733 -1.728509,1.827715 -2.5968,2.08557 -0.81175,0.241066 -2.526765,0.286401 -3.185815,0.08518 C 9.4421347,37.837357 8.1959975,36.665696 7.6220716,35.209653 7.2126028,34.170856 7.1308842,31.663338 7.4739047,30.642089 8.2276082,28.398323 10.043627,27.067576 12.330421,27.045096 Z m 0.0409,0.611234 c -0.28247,-0.01001 -0.537393,0.09891 -0.885386,0.333399 -1.155721,0.778851 -1.6069701,2.43056 -1.5039914,5.523313 0.058839,1.75866 0.1061174,2.008128 0.5222944,2.841301 0.331977,0.664566 0.600306,0.985646 0.992788,1.181713 0.659729,0.329576 1.110145,0.340207 1.689223,0.04062 1.066957,-0.551785 1.596421,-2.0969 1.611402,-4.70095 0.01562,-2.734431 -0.56066,-4.462918 -1.663284,-4.986167 -0.310185,-0.147233 -0.543454,-0.225944 -0.76312,-0.233381 z m 29.094594,2.830178 c 0.191878,0.0091 0.384363,0.04046 0.577865,0.09262 1.134948,0.305604 1.747578,1.219804 2.033735,3.030225 l 0.103686,0.65568 h -1.878253 -1.878157 l 0.107415,0.729775 c 0.287352,1.916416 1.520845,2.645521 2.641256,1.559565 0.456604,-0.442585 0.981679,-0.531856 0.981679,-0.166704 0,0.30745 -1.189052,1.483953 -1.763308,1.744795 -1.542574,0.700614 -3.265134,-0.12065 -3.848833,-1.833763 -0.271407,-0.796471 -0.317142,-2.60656 -0.08517,-3.441421 0.413632,-1.489119 1.664988,-2.436288 3.007994,-2.370831 z m -5.967839,0.01481 c 1.131913,0.04217 2.104127,0.678608 2.104127,1.78183 0,0.709007 -0.329838,1.055759 -1.003907,1.055759 -0.559506,0 -0.775247,-0.304084 -0.892769,-1.266916 -0.0944,-0.773151 -0.119899,-0.811209 -0.551976,-0.811209 -0.73153,0 -1.07335,0.748368 -1.081692,2.378242 -0.0083,1.568066 0.32193,2.576493 1.037238,3.178402 0.601389,0.50602 1.336352,0.432767 1.992991,-0.196323 0.362864,-0.347639 0.470756,-0.386728 0.58158,-0.207454 0.07885,0.127563 0.07587,0.329048 -0.0038,0.477876 -0.254717,0.475852 -1.214291,1.204108 -1.800374,1.366857 -1.475014,0.40964 -2.742961,-0.155366 -3.51922,-1.570654 -0.381585,-0.695792 -0.441874,-0.973767 -0.444527,-2.037437 -0.0038,-1.515364 0.236924,-2.243818 1.033536,-3.108022 0.689769,-0.748317 1.668292,-1.073735 2.548647,-1.040947 z m -6.36051,0.218503 h 1.463244 v 3.22296 c 0,2.725442 0.03579,3.262718 0.240799,3.467352 0.133101,0.133173 0.306598,0.240785 0.385228,0.240785 0.07864,0 0.144417,0.106304 0.144417,0.233376 0,0.192561 -0.308044,0.229686 -1.848504,0.229686 -1.441996,0 -1.848516,-0.04649 -1.848516,-0.207451 0,-0.113523 0.169769,-0.285059 0.38152,-0.381565 l 0.385257,-0.174163 v -2.93388 -2.933913 L 28.055761,31.30858 c -0.211823,-0.0965 -0.381517,-0.26808 -0.381517,-0.381561 0,-0.157976 0.343102,-0.207453 1.463251,-0.207453 z m 12.020887,0.481576 c -0.222486,0.01001 -0.317686,0.129174 -0.474118,0.503799 -0.12514,0.299626 -0.225963,0.825278 -0.225963,1.166893 v 0.622342 h 0.848293 0.84462 V 32.7607 c -0.0035,-0.966535 -0.278393,-1.489979 -0.814992,-1.552153 -0.06737,-0.008 -0.126458,-0.01001 -0.177756,-0.0075 z" />
  </g>
</svg>
