<?xml version="1.0" encoding="UTF-8" standalone="no"?>
<svg
   width="64"
   height="64"
   version="1.1"
   id="svg73"
   sodipodi:docname="lightworks.svg"
   inkscape:version="1.4.2 (ebf0e940d0, 2025-05-08)"
   xmlns:inkscape="http://www.inkscape.org/namespaces/inkscape"
   xmlns:sodipodi="http://sodipodi.sourceforge.net/DTD/sodipodi-0.dtd"
   xmlns="http://www.w3.org/2000/svg"
   xmlns:svg="http://www.w3.org/2000/svg"
   xmlns:rdf="http://www.w3.org/1999/02/22-rdf-syntax-ns#"
   xmlns:cc="http://creativecommons.org/ns#"
   xmlns:dc="http://purl.org/dc/elements/1.1/">
  <metadata
     id="metadata77">
    <rdf:RDF>
      <cc:Work
         rdf:about="">
        <dc:format>image/svg+xml</dc:format>
        <dc:type
           rdf:resource="http://purl.org/dc/dcmitype/StillImage" />
      </cc:Work>
    </rdf:RDF>
  </metadata>
  <sodipodi:namedview
     pagecolor="#f5f7fa"
     bordercolor="#666666"
     borderopacity="1"
     objecttolerance="10"
     gridtolerance="10"
     guidetolerance="10"
     inkscape:pageopacity="0"
     inkscape:pageshadow="2"
     inkscape:window-width="1377"
     inkscape:window-height="886"
     id="namedview75"
     showgrid="false"
     inkscape:zoom="6.2890624"
     inkscape:cx="47.622361"
     inkscape:cy="45.396274"
     inkscape:window-x="0"
     inkscape:window-y="57"
     inkscape:window-maximized="0"
     inkscape:current-layer="g877"
     inkscape:document-rotation="0"
     inkscape:pagecheckerboard="0"
     inkscape:showpageshadow="2"
     inkscape:deskcolor="#d1d1d1" />
  <defs
     id="defs29" />
  <circle
     cx="32.516094"
     cy="31.877844"
     r="0"
     fill="url(#b)"
     stroke-width="1.5715"
     id="circle41"
     style="fill:url(#b)" />
  <g
     aria-label="GZ"
     transform="matrix(1.2212657,0,0,0.81882264,0.4960938,-0.1661539)"
     id="text93"
     style="font-weight:bold;font-size:11.5263px;line-height:1.25;font-family:sans-serif;-inkscape-font-specification:'sans-serif Bold';fill:#f2f2f2;stroke-width:0.288159" />
  <g
     id="g877"
     transform="matrix(1.1,0,0,1.1,-3.1845928,-3.2065454)">
    <path
       d="m 47.09472,33.082073 c 6.817164,0.497613 12.20085,6.151616 12.20085,13.085488 0,7.265629 -5.887461,13.161274 -13.153085,13.161274 -6.935926,0 -12.608351,-5.395981 -13.08549,-12.209038 7.48679,-0.542641 13.495062,-6.559126 14.037725,-14.037724 h -0.0081 z m -30.600401,0 C 9.8614697,33.75375 4.6641301,39.352464 4.6641301,46.167561 c 0,7.265629 5.8854049,13.153068 13.1510279,13.153068 6.946165,0 12.602213,-5.387775 13.093686,-12.200832 -7.488839,-0.542704 -13.497104,-6.559126 -14.039771,-14.047965 -0.131064,0.01823 -0.253937,-0.0084 -0.387041,0 z m 28.10002,1.023903 c -0.526257,6.395305 -4.114036,9.983066 -10.507294,10.509361 V 34.105976 Z m -14.719641,0 V 44.615337 C 23.479395,44.089042 19.891636,40.501281 19.36535,34.105976 Z M 46.154785,4.6851159 c 7.265628,0 13.153071,5.8935951 13.153071,13.1592131 0,6.937975 -5.395972,12.596071 -12.209032,13.087544 C 46.556148,23.44304 40.547879,17.434769 33.06109,16.892103 33.552566,10.076996 39.20861,4.6851159 46.152736,4.6851159 Z m -28.339627,0 c -7.265623,0 -13.1510279,5.8854021 -13.1510279,13.1510221 0,6.946166 5.3918809,12.602212 12.2069899,13.093689 C 17.41379,23.440989 23.422059,17.432723 30.910892,16.890049 30.419418,10.076996 24.761323,4.6830661 17.823351,4.6830661 Z M 44.594339,29.90388 H 34.087045 V 19.39452 c 6.393258,0.526291 9.981013,4.114048 10.507294,10.50936 z m -14.719641,0 H 19.36535 c 0.526286,-6.395312 4.114045,-9.983069 10.509348,-10.50936 z"
       fill="#ffffff"
       fill-opacity="0.56"
       fill-rule="nonzero"
       id="path2-52"
       style="fill:#dfdfdf;fill-opacity:1;stroke:none;stroke-width:0.959317;stroke-dasharray:none;stroke-opacity:0.6" />
  </g>
</svg>
