<?xml version="1.0" encoding="UTF-8" standalone="no"?>
<svg
   width="64"
   height="64"
   version="1.1"
   id="svg73"
   sodipodi:docname="logseq.svg"
   inkscape:version="1.4.2 (ebf0e940d0, 2025-05-08)"
   xmlns:inkscape="http://www.inkscape.org/namespaces/inkscape"
   xmlns:sodipodi="http://sodipodi.sourceforge.net/DTD/sodipodi-0.dtd"
   xmlns="http://www.w3.org/2000/svg"
   xmlns:svg="http://www.w3.org/2000/svg"
   xmlns:rdf="http://www.w3.org/1999/02/22-rdf-syntax-ns#"
   xmlns:cc="http://creativecommons.org/ns#"
   xmlns:dc="http://purl.org/dc/elements/1.1/">
  <metadata
     id="metadata77">
    <rdf:RDF>
      <cc:Work
         rdf:about="">
        <dc:format>image/svg+xml</dc:format>
        <dc:type
           rdf:resource="http://purl.org/dc/dcmitype/StillImage" />
      </cc:Work>
    </rdf:RDF>
  </metadata>
  <sodipodi:namedview
     pagecolor="#f5f7fa"
     bordercolor="#666666"
     borderopacity="1"
     objecttolerance="10"
     gridtolerance="10"
     guidetolerance="10"
     inkscape:pageopacity="0"
     inkscape:pageshadow="2"
     inkscape:window-width="1377"
     inkscape:window-height="886"
     id="namedview75"
     showgrid="false"
     inkscape:zoom="6.2890624"
     inkscape:cx="47.145342"
     inkscape:cy="43.806212"
     inkscape:window-x="0"
     inkscape:window-y="75"
     inkscape:window-maximized="0"
     inkscape:current-layer="g877"
     inkscape:document-rotation="0"
     inkscape:pagecheckerboard="0"
     inkscape:showpageshadow="2"
     inkscape:deskcolor="#d1d1d1" />
  <defs
     id="defs29" />
  <circle
     cx="32.516094"
     cy="31.877844"
     r="0"
     fill="url(#b)"
     stroke-width="1.5715"
     id="circle41"
     style="fill:url(#b)" />
  <g
     aria-label="GZ"
     transform="matrix(1.2212657,0,0,0.81882264,0.4960938,-0.1661539)"
     id="text93"
     style="font-weight:bold;font-size:11.5263px;line-height:1.25;font-family:sans-serif;-inkscape-font-specification:'sans-serif Bold';fill:#f2f2f2;stroke-width:0.288159" />
  <g
     id="g877"
     transform="matrix(1.1,0,0,1.1,-3.1845928,-3.2065454)">
    <path
       style="fill:#dfdfdf;fill-opacity:1;stroke-width:1.48402"
       d="m 39.437372,6.7777886 a 5.7709254,9.0085914 78.451456 0 0 -3.475261,0.4666522 5.7709254,9.0085914 78.451456 0 0 -6.724442,7.7823832 5.7709254,9.0085914 78.451456 0 0 10.643164,3.153528 5.7709254,9.0085914 78.451456 0 0 6.724449,-7.782376 5.7709254,9.0085914 78.451456 0 0 -7.16791,-3.6201874 z M 10.116493,8.2733971 A 9.9154682,7.7630886 45.000001 0 0 5.4586584,10.392175 9.9154682,7.7630886 45.000001 0 0 7.502075,22.942531 9.9154682,7.7630886 45.000001 0 0 19.927798,23.939599 9.9154682,7.7630886 45.000001 0 0 17.884382,11.389249 9.9154682,7.7630886 45.000001 0 0 10.116493,8.2733971 Z M 38.66348,24.585962 A 21.518205,16.324157 0 0 0 17.145274,40.910123 21.518205,16.324157 0 0 0 38.66348,57.234283 21.518205,16.324157 0 0 0 60.181693,40.910123 21.518205,16.324157 0 0 0 38.66348,24.585962 Z"
       id="path3" />
  </g>
</svg>
