<?xml version="1.0" encoding="UTF-8" standalone="no"?>
<svg
   width="64"
   height="64"
   version="1.1"
   id="svg73"
   sodipodi:docname="menulibre.svg"
   inkscape:version="1.4.2 (ebf0e940d0, 2025-05-08)"
   xmlns:inkscape="http://www.inkscape.org/namespaces/inkscape"
   xmlns:sodipodi="http://sodipodi.sourceforge.net/DTD/sodipodi-0.dtd"
   xmlns="http://www.w3.org/2000/svg"
   xmlns:svg="http://www.w3.org/2000/svg"
   xmlns:rdf="http://www.w3.org/1999/02/22-rdf-syntax-ns#"
   xmlns:cc="http://creativecommons.org/ns#"
   xmlns:dc="http://purl.org/dc/elements/1.1/">
  <metadata
     id="metadata77">
    <rdf:RDF>
      <cc:Work
         rdf:about="">
        <dc:format>image/svg+xml</dc:format>
        <dc:type
           rdf:resource="http://purl.org/dc/dcmitype/StillImage" />
      </cc:Work>
    </rdf:RDF>
  </metadata>
  <sodipodi:namedview
     pagecolor="#f5f7fa"
     bordercolor="#666666"
     borderopacity="1"
     objecttolerance="10"
     gridtolerance="10"
     guidetolerance="10"
     inkscape:pageopacity="0"
     inkscape:pageshadow="2"
     inkscape:window-width="1377"
     inkscape:window-height="886"
     id="namedview75"
     showgrid="false"
     inkscape:zoom="6.2890624"
     inkscape:cx="47.622361"
     inkscape:cy="45.396274"
     inkscape:window-x="28"
     inkscape:window-y="56"
     inkscape:window-maximized="0"
     inkscape:current-layer="g877"
     inkscape:document-rotation="0"
     inkscape:pagecheckerboard="0"
     inkscape:showpageshadow="2"
     inkscape:deskcolor="#d1d1d1" />
  <defs
     id="defs29" />
  <circle
     cx="32.516094"
     cy="31.877844"
     r="0"
     fill="url(#b)"
     stroke-width="1.5715"
     id="circle41"
     style="fill:url(#b)" />
  <g
     aria-label="GZ"
     transform="matrix(1.2212657,0,0,0.81882264,0.4960938,-0.1661539)"
     id="text93"
     style="font-weight:bold;font-size:11.5263px;line-height:1.25;font-family:sans-serif;-inkscape-font-specification:'sans-serif Bold';fill:#f2f2f2;stroke-width:0.288159" />
  <g
     id="g877"
     transform="matrix(1.1,0,0,1.1,-3.1845928,-3.2065454)">
    <path
       style="fill:#dfdfdf;fill-opacity:1;stroke:none;stroke-width:0.837741;stroke-dasharray:none;stroke-dashoffset:2.2;stroke-opacity:0.6"
       d="m 17.620747,55.56573 -2.520916,-3.188781 -2.417387,-7.77e-4 C 9.8130132,52.375257 9.1001164,52.089995 8.7228835,50.792126 8.5617973,50.237949 8.5136635,43.705693 8.5573313,28.338283 L 8.6189643,6.6658966 9.3875574,5.9615798 10.156143,5.2572597 H 31.87737 c 23.850375,0 22.570614,-0.067654 23.240518,1.227846 0.273304,0.5284372 0.312035,3.3329497 0.312035,22.5242923 v 21.920718 l -0.600442,0.671988 -0.600447,0.671939 -14.412835,0.05581 -14.41287,0.05581 -2.513649,3.185231 c -1.382481,1.751496 -2.566412,3.184609 -2.630941,3.184327 -0.06428,-2.97e-4 -1.251733,-1.435494 -2.638241,-3.189321 z M 19.43503,44.756482 c 0.35885,-0.192014 0.397995,-0.451081 0.397995,-2.633767 0,-1.608468 -0.08287,-2.503621 -0.246921,-2.667674 -0.340509,-0.340512 -4.927021,-0.340512 -5.26752,0 -0.162703,0.162788 -0.246931,1.034691 -0.246931,2.557329 0,2.994145 -0.03514,2.957107 2.806024,2.957107 1.187641,0 2.338441,-0.09592 2.557344,-0.21301 z m 29.143369,-0.190058 c 1.525001,-0.929873 1.817674,-3.148785 0.59178,-4.486705 l -0.70427,-0.768617 -10.50949,-0.05688 c -9.235997,-0.04995 -10.58545,-0.01771 -11.136225,0.26719 -1.926873,0.996429 -1.906029,4.140747 0.03395,5.096351 0.61974,0.305394 1.800524,0.34288 10.880432,0.34639 9.743454,0.004 10.213831,-0.01318 10.843998,-0.397796 z M 19.375716,31.480348 c 0.425948,-0.298327 0.457304,-0.477241 0.457304,-2.607274 0,-3.046898 0.007,-3.039535 -2.84493,-3.039535 -2.929105,0 -2.91644,-0.01278 -2.91644,3.003784 0,2.929559 0.03322,2.963337 2.880682,2.963337 1.446421,0 2.086938,-0.08469 2.423384,-0.320312 z m 28.946437,-0.08686 c 1.046947,-0.506814 1.586562,-1.387275 1.586562,-2.588807 0,-1.14845 -0.533182,-2.086112 -1.471448,-2.587798 -0.671012,-0.358783 -1.354104,-0.38336 -10.654831,-0.38336 -10.719406,0 -10.744012,0.0029 -11.75464,1.098458 -0.630637,0.684047 -0.820554,2.274948 -0.374491,3.137533 0.405305,0.783772 0.990807,1.301222 1.719406,1.519559 0.323375,0.09692 4.98006,0.184171 10.348177,0.193891 9.324506,0.01684 9.79774,-4.95e-4 10.601265,-0.389463 z M 19.58611,18.179172 c 0.340507,-0.340511 0.340507,-4.927016 0,-5.267526 -0.340515,-0.340515 -4.92702,-0.340515 -5.267526,0 -0.340513,0.340519 -0.340513,4.927015 0,5.267526 0.340506,0.340516 4.927015,0.340516 5.267526,0 z m 28.841948,-0.05867 c 2.006365,-1.037534 2.006365,-4.112743 0,-5.150278 -0.903611,-0.467282 -20.712676,-0.455274 -21.618409,0.01305 -1.835887,0.949369 -1.910345,3.950948 -0.124981,5.039525 0.630036,0.384147 1.105552,0.401682 10.905665,0.402419 8.660708,6.53e-4 10.33837,-0.04642 10.837755,-0.304768 z"
       id="path79" />
  </g>
</svg>
