<?xml version="1.0" encoding="UTF-8" standalone="no"?>
<svg
   width="64"
   height="64"
   version="1.1"
   id="svg73"
   sodipodi:docname="meridius.svg"
   inkscape:version="1.4.2 (ebf0e940d0, 2025-05-08)"
   xmlns:inkscape="http://www.inkscape.org/namespaces/inkscape"
   xmlns:sodipodi="http://sodipodi.sourceforge.net/DTD/sodipodi-0.dtd"
   xmlns="http://www.w3.org/2000/svg"
   xmlns:svg="http://www.w3.org/2000/svg"
   xmlns:rdf="http://www.w3.org/1999/02/22-rdf-syntax-ns#"
   xmlns:cc="http://creativecommons.org/ns#"
   xmlns:dc="http://purl.org/dc/elements/1.1/">
  <metadata
     id="metadata77">
    <rdf:RDF>
      <cc:Work
         rdf:about="">
        <dc:format>image/svg+xml</dc:format>
        <dc:type
           rdf:resource="http://purl.org/dc/dcmitype/StillImage" />
      </cc:Work>
    </rdf:RDF>
  </metadata>
  <sodipodi:namedview
     pagecolor="#f5f7fa"
     bordercolor="#666666"
     borderopacity="1"
     objecttolerance="10"
     gridtolerance="10"
     guidetolerance="10"
     inkscape:pageopacity="0"
     inkscape:pageshadow="2"
     inkscape:window-width="1377"
     inkscape:window-height="886"
     id="namedview75"
     showgrid="false"
     inkscape:zoom="6.2890624"
     inkscape:cx="46.191305"
     inkscape:cy="36.809938"
     inkscape:window-x="326"
     inkscape:window-y="75"
     inkscape:window-maximized="0"
     inkscape:current-layer="g877"
     inkscape:document-rotation="0"
     inkscape:pagecheckerboard="0"
     inkscape:showpageshadow="2"
     inkscape:deskcolor="#d1d1d1" />
  <defs
     id="defs29" />
  <circle
     cx="32.516094"
     cy="31.877844"
     r="0"
     fill="url(#b)"
     stroke-width="1.5715"
     id="circle41"
     style="fill:url(#b)" />
  <g
     aria-label="GZ"
     transform="matrix(1.2212657,0,0,0.81882264,0.4960938,-0.1661539)"
     id="text93"
     style="font-weight:bold;font-size:11.5263px;line-height:1.25;font-family:sans-serif;-inkscape-font-specification:'sans-serif Bold';fill:#f2f2f2;stroke-width:0.288159" />
  <g
     id="g877"
     transform="matrix(1.1,0,0,1.1,-3.1845928,-3.2065454)">
    <path
       id="path5-6"
       style="fill:#dfdfdf;fill-opacity:1;stroke:none;stroke-width:0.878917;stroke-dasharray:none;stroke-opacity:0.6"
       d="M 32.004108,4.1500626 C 29.965728,4.1467351 27.931423,4.2815122 26.641676,4.5569441 24.028198,5.1150736 21.811161,5.8913 19.514876,7.0511407 13.979582,9.8469789 9.8488482,13.977711 7.0530123,19.513002 c -2.1206568,4.198546 -2.884728,7.51215 -2.8810065,12.500181 0.00293,3.886913 0.321117,5.862261 1.4633075,9.100996 3.6262295,10.282313 12.9828537,17.623079 23.7468787,18.628937 11.187406,1.045428 22.04676,-4.883024 27.28109,-14.892208 2.1503,-4.111835 3.116474,-8.064777 3.136445,-12.837725 0.03151,-7.57795 -2.699113,-14.172942 -8.143082,-19.661645 C 47.633608,8.2954641 43.029595,5.7858122 37.388436,4.5751894 36.084433,4.29534 34.042488,4.1535259 32.004108,4.1500626 Z m 0.614882,3.4521 c 0.993672,0.02904 1.999484,0.1196085 3.0142,0.2736801 8.948066,1.3588872 16.574337,7.7200623 19.393447,16.1767053 2.052212,6.156189 1.584738,13.192993 -1.249838,18.816869 -3.413091,6.771654 -9.844706,11.630203 -17.258686,13.036611 -1.909659,0.362214 -6.752117,0.429681 -8.579162,0.120395 C 17.584971,54.274063 9.4534983,46.007561 7.877723,35.631314 5.5662284,20.410548 17.713887,7.1665336 32.61899,7.6021553 Z M 44.750616,15.67409 c -0.93236,0.01392 -4.111925,0.477257 -9.995048,1.457839 -9.600727,1.600228 -9.771095,1.63768 -10.418331,2.280725 l -0.65685,0.655021 -0.06384,8.962326 -0.06384,8.964145 -0.890392,-0.2007 c -2.244505,-0.504293 -4.691161,0.741237 -5.829564,2.966764 -1.36385,2.666251 -0.295497,5.904322 2.388371,7.24175 2.840681,1.415575 6.151766,0.217438 7.509959,-2.7168 0.437926,-0.946104 0.460926,-1.40009 0.527307,-10.334408 l 0.06938,-9.343659 6.949811,-1.151309 c 3.822063,-0.633157 7.220194,-1.202831 7.55193,-1.266256 l 0.603931,-0.11495 v 5.625169 5.623351 l -0.603937,-0.164184 c -1.239664,-0.339974 -2.813543,-0.141221 -4.004962,0.507236 -1.889751,1.028528 -2.852836,2.671819 -2.84452,4.851551 0.0062,1.618897 0.53096,2.770652 1.789914,3.926494 1.228029,1.127434 2.247735,1.471895 4.015895,1.359299 1.049091,-0.06674 1.637544,-0.245281 2.446753,-0.744426 1.1988,-0.739452 2.345485,-2.420892 2.567185,-3.762273 0.230422,-1.394044 0.163622,-23.224774 -0.07296,-23.847228 -0.118423,-0.311604 -0.439824,-0.651449 -0.713419,-0.755375 -0.04227,-0.01611 -0.12948,-0.02199 -0.262851,-0.02006 z" />
  </g>
</svg>
