<?xml version="1.0" encoding="UTF-8" standalone="no"?>
<svg
   width="64"
   height="64"
   version="1.1"
   id="svg73"
   sodipodi:docname="microsoft-edge.svg"
   inkscape:version="1.4.2 (ebf0e940d0, 2025-05-08)"
   xmlns:inkscape="http://www.inkscape.org/namespaces/inkscape"
   xmlns:sodipodi="http://sodipodi.sourceforge.net/DTD/sodipodi-0.dtd"
   xmlns="http://www.w3.org/2000/svg"
   xmlns:svg="http://www.w3.org/2000/svg"
   xmlns:rdf="http://www.w3.org/1999/02/22-rdf-syntax-ns#"
   xmlns:cc="http://creativecommons.org/ns#"
   xmlns:dc="http://purl.org/dc/elements/1.1/">
  <metadata
     id="metadata77">
    <rdf:RDF>
      <cc:Work
         rdf:about="">
        <dc:format>image/svg+xml</dc:format>
        <dc:type
           rdf:resource="http://purl.org/dc/dcmitype/StillImage" />
      </cc:Work>
    </rdf:RDF>
  </metadata>
  <sodipodi:namedview
     pagecolor="#f5f7fa"
     bordercolor="#666666"
     borderopacity="1"
     objecttolerance="10"
     gridtolerance="10"
     guidetolerance="10"
     inkscape:pageopacity="0"
     inkscape:pageshadow="2"
     inkscape:window-width="1377"
     inkscape:window-height="886"
     id="namedview75"
     showgrid="false"
     inkscape:zoom="6.2890624"
     inkscape:cx="47.622361"
     inkscape:cy="45.396274"
     inkscape:window-x="12"
     inkscape:window-y="50"
     inkscape:window-maximized="0"
     inkscape:current-layer="g877"
     inkscape:document-rotation="0"
     inkscape:pagecheckerboard="0"
     inkscape:showpageshadow="2"
     inkscape:deskcolor="#d1d1d1" />
  <defs
     id="defs29" />
  <circle
     cx="32.516094"
     cy="31.877844"
     r="0"
     fill="url(#b)"
     stroke-width="1.5715"
     id="circle41"
     style="fill:url(#b)" />
  <g
     aria-label="GZ"
     transform="matrix(1.2212657,0,0,0.81882264,0.4960938,-0.1661539)"
     id="text93"
     style="font-weight:bold;font-size:11.5263px;line-height:1.25;font-family:sans-serif;-inkscape-font-specification:'sans-serif Bold';fill:#f2f2f2;stroke-width:0.288159" />
  <g
     id="g877"
     transform="matrix(1.1,0,0,1.1,-3.1845928,-3.2065454)">
    <path
       id="path127"
       style="fill:#dfdfdf;fill-opacity:1;stroke:none;stroke-width:0.861425;stroke-dasharray:none;stroke-dashoffset:2.2;stroke-opacity:0.6"
       d="M 31.736182,4.8337534 C 29.912943,4.8316194 28.124393,4.9346168 26.913107,5.1477005 21.4551,6.1077752 16.370432,8.7876107 12.292085,12.851504 c -3.1352484,3.12415 -5.3322293,6.654373 -6.6757117,10.725998 -1.0753724,3.259089 -1.0884508,3.751857 -0.051788,1.714636 1.9239496,-3.780766 4.8727477,-6.767724 8.4662547,-8.57665 2.786103,-1.402492 4.387626,-1.748686 8.093656,-1.738789 9.365984,0.02492 15.278067,3.502953 16.77381,9.863492 0.415107,1.765306 0.324007,6.090941 -0.151793,7.189762 -0.169114,0.390568 -0.424194,1.075086 -0.569256,1.521442 -0.145019,0.446351 -0.615288,1.35442 -1.045344,2.018236 -0.43006,0.663821 -0.783145,1.267695 -0.783145,1.342041 0,0.07436 0.19016,0.378469 0.424357,0.676204 0.842208,1.070689 3.37696,2.031235 6.196166,2.345976 4.164454,0.464997 7.46366,-0.237871 10.539704,-2.24593 C 57.987603,34.764256 59.63877,31.313927 59.06347,26.085634 58.786169,23.565728 58.282624,21.917528 56.993471,19.34782 55.652396,16.674615 54.666257,15.258463 52.801741,13.306904 48.713959,9.0282731 43.078167,6.1633469 36.776568,5.1615002 35.416808,4.945286 33.559386,4.8359709 31.736148,4.8337534 Z M 19.223099,16.622335 c -1.274149,-0.01332 -1.777286,0.0793 -2.784133,0.382956 -5.562981,1.677749 -10.1165613,7.50277 -10.9502441,14.003473 -0.3836817,2.991763 0.21383,7.697776 1.4489956,11.412541 2.8888222,8.688127 9.5529365,14.959568 17.5431585,16.511586 1.291791,0.250762 2.158962,0.255222 7.200103,0.04729 0.167377,-0.0076 1.266401,0.05861 2.442593,0.141504 2.429124,0.172747 3.985596,-0.03425 6.423856,-0.848692 5.016797,-1.676918 10.250349,-5.521588 13.316936,-9.780694 1.197695,-1.663454 1.338159,-2.056413 0.872851,-2.442572 -0.215969,-0.17917 -0.518856,-0.06383 -1.359294,0.514017 -0.594601,0.409002 -1.63257,0.990821 -2.308052,1.29375 -2.138458,0.959024 -3.153079,1.112816 -7.213917,1.097095 -3.49088,-0.01346 -3.88033,-0.05218 -5.578612,-0.569187 -3.623885,-1.103919 -6.479204,-2.852749 -9.035499,-5.529391 -1.792797,-1.877202 -2.845638,-3.525096 -3.639724,-5.702814 -1.293191,-3.546448 -1.220375,-6.784671 0.193188,-8.769852 0.662681,-0.930645 0.482783,-0.902154 -0.827997,0.12763 -2.844694,2.234919 -5.041182,5.544304 -6.203064,9.342548 -0.47905,1.565998 -0.548565,2.134104 -0.55545,4.626441 -0.0094,3.242597 0.249879,4.444867 1.517988,7.100029 1.000354,2.094564 2.594497,4.157681 4.360774,5.644175 1.463028,1.231282 4.324495,2.783782 6.071972,3.291293 l 1.014297,0.293104 -1.462794,-0.100023 C 23.507108,58.279187 18.380309,53.26531 16.963352,46.247309 c -0.501479,-2.483777 -0.327836,-6.378603 0.3933,-8.797445 1.508179,-5.058762 4.9929,-9.358687 8.845754,-10.908845 1.760577,-0.708346 4.298332,-0.01211 5.675214,1.555944 0.809672,0.922159 1.618022,2.596097 1.652539,3.425832 0.05195,1.24892 0.360674,-0.958842 0.369155,-2.639234 0.02383,-4.735028 -2.0887,-8.573399 -5.771823,-10.491392 -2.263448,-1.178699 -4.043193,-1.596857 -7.327757,-1.724995 -0.643479,-0.02505 -1.151929,-0.04029 -1.576641,-0.04484 z" />
  </g>
</svg>
