<?xml version="1.0" encoding="UTF-8" standalone="no"?>
<svg
   width="64"
   height="64"
   version="1.1"
   id="svg73"
   sodipodi:docname="mixxx.svg"
   inkscape:version="1.4.2 (ebf0e940d0, 2025-05-08)"
   xmlns:inkscape="http://www.inkscape.org/namespaces/inkscape"
   xmlns:sodipodi="http://sodipodi.sourceforge.net/DTD/sodipodi-0.dtd"
   xmlns="http://www.w3.org/2000/svg"
   xmlns:svg="http://www.w3.org/2000/svg"
   xmlns:rdf="http://www.w3.org/1999/02/22-rdf-syntax-ns#"
   xmlns:cc="http://creativecommons.org/ns#"
   xmlns:dc="http://purl.org/dc/elements/1.1/">
  <metadata
     id="metadata77">
    <rdf:RDF>
      <cc:Work
         rdf:about="">
        <dc:format>image/svg+xml</dc:format>
        <dc:type
           rdf:resource="http://purl.org/dc/dcmitype/StillImage" />
      </cc:Work>
    </rdf:RDF>
  </metadata>
  <sodipodi:namedview
     pagecolor="#f5f7fa"
     bordercolor="#666666"
     borderopacity="1"
     objecttolerance="10"
     gridtolerance="10"
     guidetolerance="10"
     inkscape:pageopacity="0"
     inkscape:pageshadow="2"
     inkscape:window-width="1377"
     inkscape:window-height="886"
     id="namedview75"
     showgrid="false"
     inkscape:zoom="6.2890624"
     inkscape:cx="47.622361"
     inkscape:cy="45.396274"
     inkscape:window-x="0"
     inkscape:window-y="57"
     inkscape:window-maximized="0"
     inkscape:current-layer="g877"
     inkscape:document-rotation="0"
     inkscape:pagecheckerboard="0"
     inkscape:showpageshadow="2"
     inkscape:deskcolor="#d1d1d1" />
  <defs
     id="defs29" />
  <circle
     cx="32.516094"
     cy="31.877844"
     r="0"
     fill="url(#b)"
     stroke-width="1.5715"
     id="circle41"
     style="fill:url(#b)" />
  <g
     aria-label="GZ"
     transform="matrix(1.2212657,0,0,0.81882264,0.4960938,-0.1661539)"
     id="text93"
     style="font-weight:bold;font-size:11.5263px;line-height:1.25;font-family:sans-serif;-inkscape-font-specification:'sans-serif Bold';fill:#f2f2f2;stroke-width:0.288159" />
  <g
     id="g877"
     transform="matrix(1.1,0,0,1.1,-3.1845928,-3.2065454)">
    <path
       id="path30"
       style="fill:#dfdfdf;fill-opacity:1;stroke:none;stroke-width:0.878917;stroke-dasharray:none;stroke-opacity:0.6"
       d="m 32.191778,4.532968 c -6.30874,0 -10.833562,0.07998 -11.237076,0.1956969 -0.829467,0.237891 -1.689924,1.0287103 -2.255656,2.0771269 -0.407361,0.7549481 -0.427092,1.0732697 -0.484086,7.0656582 l -0.06179,6.276006 -5.177364,0.0035 c -3.1677589,6.73e-4 -5.4833615,0.0827 -5.9670239,0.216295 -3.1930584,0.882118 -3.8485812,6.517976 -1.0196791,8.765125 l 0.7587522,0.600819 5.7129508,0.05832 5.712953,0.05832 v 5.005699 c 0,5.311355 0.102025,6.044287 0.999082,7.192691 0.227983,0.291848 0.743891,0.732978 1.143275,0.97848 l 0.72442,0.446351 11.182142,-0.05195 11.182145,-0.05195 0.703817,-0.535559 c 0.387881,-0.295893 0.939244,-1.004545 1.222242,-1.572442 l 0.51496,-1.033413 V 35.030714 29.83275 h 5.421124 c 3.350558,0 5.633518,-0.07954 5.977322,-0.209429 0.75167,-0.284001 1.589883,-1.106363 2.10459,-2.063391 0.34506,-0.641643 0.425754,-1.124384 0.425754,-2.568079 0,-1.915331 -0.334736,-2.882826 -1.314942,-3.797194 -1.043004,-0.9729 -1.556286,-1.047149 -7.27166,-1.047149 h -5.342158 v -6.114623 c 0,-3.808694 -0.07935,-6.3208104 -0.209404,-6.667404 C 45.243934,6.3189495 44.417972,5.340499 43.586812,4.9381351 42.782896,4.548912 42.410784,4.5330066 32.191799,4.5330066 Z m 0.04805,2.224753 6.650235,0.048073 0.758749,0.6145553 c 0.417047,0.3376675 0.980866,1.0470766 1.253109,1.57584 l 0.494393,0.961312 0.06523,8.8990247 c 0.04348,6.047145 -0.0045,9.22515 -0.154497,9.911831 -0.286946,1.314461 -1.073799,2.503729 -1.99469,3.021296 -0.705735,0.396578 -1.004637,0.416136 -7.330022,0.415427 -6.143247,-6.9e-4 -6.636197,-0.02918 -7.213286,-0.381094 -0.731462,-0.446025 -1.494177,-1.421174 -1.864261,-2.386118 -0.341855,-0.891334 -0.516127,-16.73298 -0.205995,-18.725024 0.252012,-1.6187492 1.040438,-2.9484977 2.104591,-3.5568652 0.776903,-0.4441377 0.840728,-0.448144 7.43645,-0.3982642 z m -0.264363,4.082154 c -0.512495,0.01174 -1.007425,0.147878 -1.143277,0.401692 -0.131409,0.245474 -0.205996,3.246523 -0.205996,8.387465 v 8.006373 l 0.439465,0.308996 c 0.629264,0.440742 1.599127,0.38796 2.049658,-0.109846 0.357113,-0.39461 0.377659,-0.823127 0.377659,-8.366867 0,-6.450573 -0.05123,-8.015954 -0.271232,-8.281038 -0.20411,-0.245944 -0.733778,-0.358644 -1.246277,-0.34675 z M 6.9092464,47.225612 v 6.124942 6.128378 H 7.8980255 8.8868034 V 53.350554 47.225612 H 7.8979936 Z m 6.3240736,0 v 5.139596 5.136167 h 0.988778 0.98878 v -5.136167 -5.139596 h -0.988813 z m 6.128376,0 v 4.150821 4.150806 h 0.988747 0.985346 v -4.150806 -4.150821 h -0.985346 z m 6.324073,0 v 3.162034 3.162038 h 0.889214 0.88922 v -3.162038 -3.162034 h -0.889251 z m 6.124943,0 v 6.124942 6.128378 h 0.98875 0.988777 v -6.128378 -6.124942 h -0.988777 z m 6.327506,0 v 3.162034 3.162038 h 0.889213 0.889217 v -3.162038 -3.162034 h -0.889247 z m 6.124949,0 v 4.150821 4.150806 h 0.988774 0.98878 v -4.150806 -4.150821 h -0.98878 z m 4.744765,0 v 5.139596 5.136167 h 0.889219 0.889213 v -5.136167 -5.139596 h -0.889213 z m 6.124947,0 v 6.124942 6.128378 h 0.988782 0.988777 v -6.128378 -6.124942 h -0.988777 z" />
  </g>
</svg>
