<?xml version="1.0" encoding="UTF-8" standalone="no"?>
<svg
   width="64"
   height="64"
   version="1.1"
   id="svg73"
   sodipodi:docname="net.pcsx2.PCSX2.svg"
   inkscape:version="1.4.2 (ebf0e940d0, 2025-05-08)"
   xmlns:inkscape="http://www.inkscape.org/namespaces/inkscape"
   xmlns:sodipodi="http://sodipodi.sourceforge.net/DTD/sodipodi-0.dtd"
   xmlns="http://www.w3.org/2000/svg"
   xmlns:svg="http://www.w3.org/2000/svg"
   xmlns:rdf="http://www.w3.org/1999/02/22-rdf-syntax-ns#"
   xmlns:cc="http://creativecommons.org/ns#"
   xmlns:dc="http://purl.org/dc/elements/1.1/">
  <metadata
     id="metadata77">
    <rdf:RDF>
      <cc:Work
         rdf:about="">
        <dc:format>image/svg+xml</dc:format>
        <dc:type
           rdf:resource="http://purl.org/dc/dcmitype/StillImage" />
      </cc:Work>
    </rdf:RDF>
  </metadata>
  <sodipodi:namedview
     pagecolor="#f5f7fa"
     bordercolor="#666666"
     borderopacity="1"
     objecttolerance="10"
     gridtolerance="10"
     guidetolerance="10"
     inkscape:pageopacity="0"
     inkscape:pageshadow="2"
     inkscape:window-width="1377"
     inkscape:window-height="886"
     id="namedview75"
     showgrid="false"
     inkscape:zoom="6.2890624"
     inkscape:cx="47.622361"
     inkscape:cy="45.396274"
     inkscape:window-x="0"
     inkscape:window-y="57"
     inkscape:window-maximized="0"
     inkscape:current-layer="g877"
     inkscape:document-rotation="0"
     inkscape:pagecheckerboard="0"
     inkscape:showpageshadow="2"
     inkscape:deskcolor="#d1d1d1" />
  <defs
     id="defs29" />
  <circle
     cx="32.516094"
     cy="31.877844"
     r="0"
     fill="url(#b)"
     stroke-width="1.5715"
     id="circle41"
     style="fill:url(#b)" />
  <g
     aria-label="GZ"
     transform="matrix(1.2212657,0,0,0.81882264,0.4960938,-0.1661539)"
     id="text93"
     style="font-weight:bold;font-size:11.5263px;line-height:1.25;font-family:sans-serif;-inkscape-font-specification:'sans-serif Bold';fill:#f2f2f2;stroke-width:0.288159" />
  <g
     id="g877"
     transform="matrix(1.1,0,0,1.1,-3.1845928,-3.2065454)">
    <g
       id="g1"
       transform="matrix(1.0983935,0,0,1.0983935,-3.1736971,-3.1537288)"
       style="fill:#dfdfdf;fill-opacity:1;stroke:none;stroke-width:0.762079;stroke-dasharray:none;stroke-opacity:0.6">
      <g
         id="g1590"
         style="fill:#dfdfdf;fill-opacity:1;stroke:none;stroke-width:0.762079;stroke-dasharray:none;stroke-opacity:0.6">
        <path
           style="baseline-shift:baseline;display:inline;overflow:visible;opacity:1;fill:#dfdfdf;fill-opacity:1;stroke:none;stroke-width:0.762079;stroke-linecap:round;stroke-linejoin:round;stroke-dasharray:none;stroke-opacity:0.6;enable-background:accumulate;stop-color:#000000;stop-opacity:1"
           d="m 16.326172,21.451172 -8.7890626,8.789062 a 2,2 0 0 0 0,2.828125 2,2 0 0 0 2.8281246,0 l 7.375,-7.373047 3.029297,3.029297 -7.373047,7.375 a 2.0002,2.0002 0 0 0 0,2.828125 l 5.859375,5.859375 a 2,2 0 0 0 2.828125,0 2,2 0 0 0 0,-2.828125 l -4.445312,-4.445312 7.375,-7.375 a 2.0002,2.0002 0 0 0 0,-2.828125 l -5.859375,-5.859375 a 2.0002,2.0002 0 0 0 -2.828125,0 z"
           id="path4" />
        <path
           style="baseline-shift:baseline;display:inline;overflow:visible;opacity:1;fill:#dfdfdf;fill-opacity:1;stroke:none;stroke-width:0.762079;stroke-linecap:round;stroke-linejoin:round;stroke-dasharray:none;stroke-opacity:0.6;enable-background:accumulate;stop-color:#000000;stop-opacity:1"
           d="m 30.484375,7.2929687 -8.789063,8.7890623 a 2.0002,2.0002 0 0 0 0,2.828125 l 5.859375,5.859375 a 2.0002,2.0002 0 0 0 2.828125,0 l 7.375,-7.375 3.029297,3.03125 -3.955078,3.955078 a 2,2 0 0 0 0,2.828125 2,2 0 0 0 2.828125,0 l 5.371094,-5.36914 a 2.0002,2.0002 0 0 0 0,-2.828125 l -5.859375,-5.859375 a 2.0002,2.0002 0 0 0 -2.828125,0 l -7.375,7.373047 -3.029297,-3.029297 7.373047,-7.375 a 2,2 0 0 0 0,-2.8281253 2,2 0 0 0 -2.828125,0 z"
           id="path5" />
        <path
           style="baseline-shift:baseline;display:inline;overflow:visible;opacity:1;fill:#dfdfdf;fill-opacity:1;stroke:none;stroke-width:0.762079;stroke-linecap:round;stroke-linejoin:round;stroke-dasharray:none;stroke-opacity:0.6;enable-background:accumulate;stop-color:#000000;stop-opacity:1"
           d="m 32.947266,28.265625 -8.789063,8.789062 a 2,2 0 0 0 0,2.828125 2,2 0 0 0 2.828125,0 l 7.375,-7.373046 3.029297,3.029296 -7.373047,7.375 a 2.0002,2.0002 0 0 0 -0.0059,2.822266 l 5.83789,5.880859 a 2.0002,2.0002 0 0 0 2.833985,0.0039 l 8.789062,-8.78711 a 2,2 0 0 0 0,-2.828125 2,2 0 0 0 -2.830078,0 l -7.369141,7.369141 -3.019531,-3.041016 7.38086,-7.380859 a 2.0002,2.0002 0 0 0 0,-2.828125 L 35.77535,28.265618 a 2.0002,2.0002 0 0 0 -2.828125,0 z"
           id="path6" />
      </g>
      <path
         style="fill:#dfdfdf;fill-opacity:1;stroke:none;stroke-width:0.762079;stroke-dasharray:none;stroke-opacity:0.6"
         d="m 23.110417,45.813568 c -1.081938,1.08194 -0.9956,2.910319 0.194534,4.100452 l 6.44629,6.446291 c 1.190134,1.190133 3.018512,1.276472 4.100451,0.194533 L 35.87331,54.533226 C 35.676167,54.416743 35.486159,54.283391 35.316413,54.113645 L 25.063376,43.860609 Z M 40.68705,28.236935 50.940086,38.489972 c 0.169746,0.169745 0.303098,0.359753 0.419584,0.556896 l 4.951053,-4.951055 c 1.081941,-1.081939 0.995601,-2.910318 -0.194533,-4.100452 l -6.44629,-6.44629 c -1.190134,-1.190134 -3.018513,-1.276473 -4.100452,-0.194534 z"
         id="path7" />
    </g>
  </g>
</svg>
