<?xml version="1.0" encoding="UTF-8" standalone="no"?>
<svg
   width="64"
   height="64"
   version="1.1"
   id="svg73"
   sodipodi:docname="net.worldofpadman.WoP.svg"
   inkscape:version="1.4.2 (ebf0e940d0, 2025-05-08)"
   xmlns:inkscape="http://www.inkscape.org/namespaces/inkscape"
   xmlns:sodipodi="http://sodipodi.sourceforge.net/DTD/sodipodi-0.dtd"
   xmlns="http://www.w3.org/2000/svg"
   xmlns:svg="http://www.w3.org/2000/svg"
   xmlns:rdf="http://www.w3.org/1999/02/22-rdf-syntax-ns#"
   xmlns:cc="http://creativecommons.org/ns#"
   xmlns:dc="http://purl.org/dc/elements/1.1/">
  <metadata
     id="metadata77">
    <rdf:RDF>
      <cc:Work
         rdf:about="">
        <dc:format>image/svg+xml</dc:format>
        <dc:type
           rdf:resource="http://purl.org/dc/dcmitype/StillImage" />
      </cc:Work>
    </rdf:RDF>
  </metadata>
  <sodipodi:namedview
     pagecolor="#f5f7fa"
     bordercolor="#666666"
     borderopacity="1"
     objecttolerance="10"
     gridtolerance="10"
     guidetolerance="10"
     inkscape:pageopacity="0"
     inkscape:pageshadow="2"
     inkscape:window-width="1377"
     inkscape:window-height="886"
     id="namedview75"
     showgrid="false"
     inkscape:zoom="6.2890624"
     inkscape:cx="47.145342"
     inkscape:cy="39.513044"
     inkscape:window-x="0"
     inkscape:window-y="57"
     inkscape:window-maximized="0"
     inkscape:current-layer="g877"
     inkscape:document-rotation="0"
     inkscape:pagecheckerboard="0"
     inkscape:showpageshadow="2"
     inkscape:deskcolor="#d1d1d1" />
  <defs
     id="defs29" />
  <circle
     cx="32.516094"
     cy="31.877844"
     r="0"
     fill="url(#b)"
     stroke-width="1.5715"
     id="circle41"
     style="fill:url(#b)" />
  <g
     aria-label="GZ"
     transform="matrix(1.2212657,0,0,0.81882264,0.4960938,-0.1661539)"
     id="text93"
     style="font-weight:bold;font-size:11.5263px;line-height:1.25;font-family:sans-serif;-inkscape-font-specification:'sans-serif Bold';fill:#f2f2f2;stroke-width:0.288159" />
  <g
     id="g877"
     transform="matrix(1.1,0,0,1.1,-3.1845928,-3.2065454)">
    <path
       id="path51"
       style="fill:#dfdfdf;fill-opacity:1;stroke:none;stroke-width:0.878917;stroke-dasharray:none;stroke-opacity:0.6"
       d="m 32.691588,8.8739533 c -3.975632,0 -4.769633,0.090233 -8.768557,0.9819095 -3.717967,0.8290392 -4.957913,1.2506842 -8.030406,2.7260122 L 12.26023,14.325976 8.967731,18.174663 C 7.1568349,20.291265 5.5522236,22.30172 5.4040023,22.644775 5.2557875,22.987828 4.8994456,25.15572 4.6109194,27.461642 l -0.5252858,4.192019 1.5724348,4.226349 1.5690009,4.22635 4.1199157,3.326832 4.116488,3.330262 4.686404,1.589604 c 4.631127,1.569187 4.744129,1.591887 9.30758,1.867693 3.739196,0.226008 5.097123,0.199134 7.127457,-0.130477 4.003121,-0.649777 3.964666,-0.65622 8.802888,1.963834 2.408447,1.304226 4.808749,2.550586 5.331863,2.77064 0.49044,0.206323 0.93696,0.339261 1.036841,0.309002 0.0014,-5.94e-4 0.009,-0.0029 0.0098,-0.0035 l 0.0035,-0.0035 v -0.0035 c 0.05555,-0.05555 -0.539301,-1.872171 -1.32523,-4.037522 -0.786001,-2.16535 -1.431682,-4.121968 -1.431682,-4.346511 0,-0.224568 1.038895,-1.222096 2.307154,-2.217889 1.48925,-1.169303 3.181709,-2.89747 4.775668,-4.882105 L 58.56111,36.56637 59.223774,32.992342 59.886368,29.418316 59.066089,25.981631 58.245544,22.544933 55.540123,19.3417 C 53.106151,16.460909 52.488365,15.91211 49.387712,13.896923 46.228039,11.843371 45.568958,11.53928 41.501506,10.264526 L 37.062291,8.8740567 Z m 8.933354,8.9367827 c 0.601515,-0.01786 1.736413,0.262623 2.811844,0.74502 1.113065,0.499287 2.317753,0.783255 3.738819,0.878917 1.745479,0.117491 2.335986,0.292813 3.519087,1.047144 1.22351,0.780092 1.50165,1.131558 2.008472,2.54405 0.329175,0.917375 0.655491,2.688259 0.741592,4.016919 0.143101,2.20612 0.100287,2.479906 -0.611108,3.828091 -0.536158,1.016087 -1.254266,1.803048 -2.396416,2.619578 -1.489197,1.064653 -1.751872,1.154536 -2.976641,1.036849 l -1.342401,-0.130477 0.133906,1.702897 c 0.07321,0.936624 0.450581,2.685309 0.837711,3.886456 0.374957,1.16361 0.630643,2.17558 0.583638,2.300289 v 0.0035 l -0.0035,0.0035 -0.0035,0.0035 -0.0035,0.0035 c -0.124862,0.05798 -1.144058,-0.01995 -2.310577,-0.181994 -1.204136,-0.167484 -2.636912,-0.227522 -3.186068,-0.130478 -0.54921,0.09708 -1.221017,0.24371 -1.490036,0.322711 -0.620801,0.182351 -0.619733,0.192133 0.206017,-2.00159 0.572284,-1.520547 0.722975,-2.557319 0.875454,-5.946418 0.221964,-4.934017 -0.287383,-12.024149 -1.040282,-14.447176 -0.286595,-0.922371 -0.523357,-1.772996 -0.52529,-1.888298 -0.0024,-0.14032 0.159167,-0.208204 0.432595,-0.216295 z m -22.793443,0.07552 c 0.06027,-0.0017 0.12928,0.01001 0.205993,0.03087 0.269025,0.07407 1.496185,0.343598 2.726013,0.600822 1.753048,0.366678 2.700857,0.771116 4.387712,1.867722 l 2.152657,1.397345 1.029979,3.09337 c 0.946799,2.841423 1.015286,3.266494 0.854887,5.215132 -0.236884,2.877586 -1.310913,5.690528 -2.78438,7.281954 -0.64616,0.697891 -1.412537,1.804873 -1.702898,2.458218 -0.272217,0.612509 -0.57035,1.11992 -0.686653,1.181042 h -0.0035 c -0.0045,0.0011 -0.01137,0.0032 -0.01392,0.0035 l -0.0035,0.0035 c -0.09756,0 -0.896908,-1.181893 -1.778435,-2.626445 -1.846847,-3.026501 -2.464759,-3.398276 -3.961942,-2.372387 -0.811068,0.55575 -0.97501,0.912635 -1.558701,3.385198 -0.353216,1.496239 -0.727772,2.777958 -0.841152,2.880507 l -0.0035,0.0035 h -0.0035 l -0.0035,0.0035 h -0.0035 -0.0035 -0.0035 C 16.685997,42.283555 16.089392,41.545651 15.4695,40.594207 14.721376,39.44594 13.889736,38.555979 13.203544,38.170319 12.607011,37.835048 12.11863,37.452729 12.11863,37.318871 c 0,-0.133862 0.508907,-0.991525 1.129548,-1.905461 0.562454,-0.828254 0.9786,-1.522104 0.992213,-1.644534 v -0.0035 -0.0035 -0.0035 -0.0035 h -0.0035 v -0.0035 h -0.0035 -0.0035 c -0.07989,0 -0.979296,0.509364 -1.998159,1.132975 -0.971108,0.59438 -1.801562,1.04991 -1.908897,1.050579 h -0.0035 -0.0035 l -0.0035,-0.0035 c -0.03656,-0.04715 -0.251697,-1.049877 -0.4806606,-2.228186 -0.3822214,-1.967008 -0.3744037,-2.377301 0.09614,-5.012566 0.4316306,-2.417344 0.7434966,-3.28485 1.9706966,-5.50009 l 1.455853,-2.629857 2.20072,-1.105512 c 1.210896,-0.608826 2.326066,-1.067173 2.478819,-1.016249 l 0.0035,0.0035 h 0.0035 l 0.0035,0.0035 h 0.0035 l 0.0035,0.0035 0.0035,0.0035 v 0.0035 c 0.07637,0.127976 -0.337946,0.842228 -0.971615,1.658267 -1.649981,2.124849 -2.306252,4.098669 -2.049658,6.152411 0.156832,1.255223 0.338517,1.667277 0.906383,2.039357 0.869921,0.569994 1.154907,0.328385 1.424803,-1.198207 0.141008,-0.797483 0.624217,-1.636989 1.569004,-2.72945 l 1.363005,-1.575863 1.338976,1.318374 c 0.847896,0.835148 1.398321,1.651216 1.5072,2.231617 0.235308,1.254297 0.857693,1.751266 1.256571,1.005953 1.082469,-2.02261 -0.749752,-5.536393 -3.927652,-7.53602 -1.058275,-0.665899 -1.922627,-1.398971 -1.922627,-1.627365 0,-0.195338 0.100804,-0.302989 0.281526,-0.308998 z m 16.819563,5.688921 c 0.330286,-0.01001 0.703063,0.0829 1.338971,0.250625 2.238057,0.590384 3.689235,2.136283 4.425479,4.71044 0.875918,3.062504 1.005834,5.344089 0.460061,8.092206 -0.580495,2.922835 -1.34184,4.327506 -2.787814,5.14646 -0.611778,0.346511 -1.364541,0.61447 -1.671995,0.593968 -1.77945,-0.118689 -2.323219,-0.356845 -3.556866,-1.562145 -1.047412,-1.023344 -1.501877,-1.784303 -2.197288,-3.683896 -0.846093,-2.311174 -0.870685,-2.50802 -0.720985,-5.658016 0.137231,-2.888038 0.25242,-3.450794 0.985346,-4.902701 0.670055,-1.327381 1.088626,-1.782713 2.197287,-2.386125 0.748606,-0.407437 1.103145,-0.588296 1.527804,-0.600816 z M 47.05981,26.20505 v 2.351787 c 0,1.620481 0.106117,2.395446 0.346753,2.49255 0.622801,0.251316 0.894048,0.194259 1.888305,-0.408557 1.210211,-0.733768 1.388623,-0.998145 1.393902,-2.077127 0.0062,-1.224578 -1.244585,-2.358653 -2.598991,-2.358653 z m -9.753914,6.873396 c -0.17287,0.0097 -0.344669,0.139821 -0.655754,0.384526 -0.972011,0.764578 -1.451776,2.558525 -1.036846,3.869287 0.179596,0.567348 0.526041,1.188012 0.769052,1.380171 0.547543,0.43298 0.949743,0.437896 1.850528,0.02749 1.466796,-0.668321 1.387165,-4.111017 -0.120177,-5.225431 -0.412447,-0.304933 -0.610899,-0.44708 -0.806819,-0.436024 z" />
  </g>
</svg>
