<?xml version="1.0" encoding="UTF-8" standalone="no"?>
<svg
   width="64"
   height="64"
   version="1.1"
   id="svg73"
   sodipodi:docname="net.lutris.Lutris.svg"
   inkscape:version="1.4.2 (ebf0e940d0, 2025-05-08)"
   xmlns:inkscape="http://www.inkscape.org/namespaces/inkscape"
   xmlns:sodipodi="http://sodipodi.sourceforge.net/DTD/sodipodi-0.dtd"
   xmlns="http://www.w3.org/2000/svg"
   xmlns:svg="http://www.w3.org/2000/svg"
   xmlns:rdf="http://www.w3.org/1999/02/22-rdf-syntax-ns#"
   xmlns:cc="http://creativecommons.org/ns#"
   xmlns:dc="http://purl.org/dc/elements/1.1/">
  <metadata
     id="metadata77">
    <rdf:RDF>
      <cc:Work
         rdf:about="">
        <dc:format>image/svg+xml</dc:format>
        <dc:type
           rdf:resource="http://purl.org/dc/dcmitype/StillImage" />
      </cc:Work>
    </rdf:RDF>
  </metadata>
  <sodipodi:namedview
     pagecolor="#f5f7fa"
     bordercolor="#666666"
     borderopacity="1"
     objecttolerance="10"
     gridtolerance="10"
     guidetolerance="10"
     inkscape:pageopacity="0"
     inkscape:pageshadow="2"
     inkscape:window-width="1377"
     inkscape:window-height="886"
     id="namedview75"
     showgrid="false"
     inkscape:zoom="6.2890624"
     inkscape:cx="47.622361"
     inkscape:cy="45.396274"
     inkscape:window-x="0"
     inkscape:window-y="57"
     inkscape:window-maximized="0"
     inkscape:current-layer="g877"
     inkscape:document-rotation="0"
     inkscape:pagecheckerboard="0"
     inkscape:showpageshadow="2"
     inkscape:deskcolor="#d1d1d1" />
  <defs
     id="defs29" />
  <circle
     cx="32.516094"
     cy="31.877844"
     r="0"
     fill="url(#b)"
     stroke-width="1.5715"
     id="circle41"
     style="fill:url(#b)" />
  <g
     aria-label="GZ"
     transform="matrix(1.2212657,0,0,0.81882264,0.4960938,-0.1661539)"
     id="text93"
     style="font-weight:bold;font-size:11.5263px;line-height:1.25;font-family:sans-serif;-inkscape-font-specification:'sans-serif Bold';fill:#f2f2f2;stroke-width:0.288159" />
  <g
     id="g877"
     transform="matrix(1.1,0,0,1.1,-3.1845928,-3.2065454)">
    <path
       style="fill:#dfdfdf;fill-opacity:1;stroke:none;stroke-width:0.830574;stroke-dasharray:none;stroke-opacity:0.6"
       d="M 31.265208,59.085032 C 31.075188,59.048502 25.738044,56.831528 19.40489,54.157993 10.102934,50.231166 7.8107277,49.208676 7.4772076,48.837429 7.0643798,48.3779 7.0643459,48.377731 7.0643459,46.053201 c 0,-1.278557 0.027334,-2.324658 0.060706,-2.324658 0.07865,0 7.1538601,2.933254 16.1534331,6.696934 l 7.1312,2.982298 1.576373,-0.0042 1.576369,-0.0042 2.702353,-1.136692 c 5.643294,-2.374112 20.496913,-8.533119 20.578412,-8.533119 0.04734,0 0.06363,1.075699 0.03766,2.390433 -0.04568,2.280444 -0.06433,2.407969 -0.406217,2.771451 -0.212726,0.226138 -1.463743,0.848908 -3.077676,1.532052 -13.444664,5.690859 -20.191484,8.498014 -20.714645,8.618818 -0.644544,0.148843 -0.836271,0.154755 -1.416744,0.04281 z M 30.78498,51.437817 C 30.478097,51.316975 17.497552,45.933709 11.943592,43.623995 9.46644,42.593834 7.3552275,41.680953 7.2520121,41.595398 7.0078014,41.392941 7.0109317,40.80703 7.2570941,40.60254 7.420167,40.467214 28.317434,31.718101 28.4776,31.718101 c 0.03034,0 0.05521,2.005427 0.05521,4.456518 0,4.213505 0.01702,4.491857 0.313733,5.104616 0.991159,2.047464 3.981771,2.513645 5.619444,0.875969 0.917789,-0.917785 0.972819,-1.265942 0.972819,-6.154332 0,-3.391573 0.04015,-4.298954 0.187679,-4.240388 2.350282,0.933178 20.960649,8.740384 21.093345,8.848836 0.103114,0.08436 0.187677,0.305763 0.187677,0.491948 0,0.186195 -0.08444,0.408391 -0.187677,0.493662 -0.103202,0.08526 -2.822453,1.2489 -6.042756,2.585755 -3.220292,1.336856 -8.4561,3.517074 -11.635119,4.844927 -5.511934,2.302312 -5.832251,2.416299 -6.906007,2.457615 -0.619283,0.02396 -1.227315,0.003 -1.351175,-0.04511 z M 19.189524,42.749299 c 1.091945,-0.324312 1.686836,-0.958428 1.686836,-1.798171 0,-0.527395 -0.08789,-0.740408 -0.45854,-1.111033 -1.232642,-1.232646 -4.274576,-1.194798 -5.382418,0.06695 -1.585399,1.805664 1.20824,3.717076 4.154122,2.842243 z M 31.033641,41.006295 C 30.360083,40.614768 30.343338,40.369061 30.345454,30.907811 l 0.0019,-8.9482 h 1.569939 1.569932 v 9.239855 9.239853 l -0.3685,0.368488 c -0.2907,0.290636 -0.520513,0.367521 -1.088449,0.363925 -0.395965,-0.0027 -0.844505,-0.077 -0.996741,-0.165464 z m -0.04041,-20.998271 c -2.521966,-0.369385 -4.752566,-1.951929 -5.817898,-4.12763 -0.234931,-0.479785 -0.535818,-1.397895 -0.668641,-2.040242 -0.205019,-0.991481 -0.21428,-1.356554 -0.06133,-2.416844 0.89476,-6.2020033 8.418111,-8.7638498 12.870034,-4.3824916 2.895886,2.8499822 3.050847,7.4230636 0.355089,10.4791346 -1.595955,1.809273 -4.3374,2.830788 -6.677272,2.488073 z"
       id="path1" />
  </g>
</svg>
