<?xml version="1.0" encoding="UTF-8" standalone="no"?>
<svg
   width="64"
   height="64"
   version="1.1"
   id="svg73"
   sodipodi:docname="nm-device-wireless.svg"
   inkscape:version="1.4.2 (ebf0e940d0, 2025-05-08)"
   xmlns:inkscape="http://www.inkscape.org/namespaces/inkscape"
   xmlns:sodipodi="http://sodipodi.sourceforge.net/DTD/sodipodi-0.dtd"
   xmlns="http://www.w3.org/2000/svg"
   xmlns:svg="http://www.w3.org/2000/svg"
   xmlns:rdf="http://www.w3.org/1999/02/22-rdf-syntax-ns#"
   xmlns:cc="http://creativecommons.org/ns#"
   xmlns:dc="http://purl.org/dc/elements/1.1/">
  <metadata
     id="metadata77">
    <rdf:RDF>
      <cc:Work
         rdf:about="">
        <dc:format>image/svg+xml</dc:format>
        <dc:type
           rdf:resource="http://purl.org/dc/dcmitype/StillImage" />
      </cc:Work>
    </rdf:RDF>
  </metadata>
  <sodipodi:namedview
     pagecolor="#f5f7fa"
     bordercolor="#666666"
     borderopacity="1"
     objecttolerance="10"
     gridtolerance="10"
     guidetolerance="10"
     inkscape:pageopacity="0"
     inkscape:pageshadow="2"
     inkscape:window-width="1377"
     inkscape:window-height="886"
     id="namedview75"
     showgrid="false"
     inkscape:zoom="6.2890624"
     inkscape:cx="47.145342"
     inkscape:cy="39.513044"
     inkscape:window-x="0"
     inkscape:window-y="57"
     inkscape:window-maximized="0"
     inkscape:current-layer="g877"
     inkscape:document-rotation="0"
     inkscape:pagecheckerboard="0"
     inkscape:showpageshadow="2"
     inkscape:deskcolor="#d1d1d1" />
  <defs
     id="defs29" />
  <circle
     cx="32.516094"
     cy="31.877844"
     r="0"
     fill="url(#b)"
     stroke-width="1.5715"
     id="circle41"
     style="fill:url(#b)" />
  <g
     aria-label="GZ"
     transform="matrix(1.2212657,0,0,0.81882264,0.4960938,-0.1661539)"
     id="text93"
     style="font-weight:bold;font-size:11.5263px;line-height:1.25;font-family:sans-serif;-inkscape-font-specification:'sans-serif Bold';fill:#f2f2f2;stroke-width:0.288159" />
  <g
     id="g877"
     transform="matrix(1.1,0,0,1.1,-3.1845928,-3.2065454)">
    <path
       id="path7250"
       style="fill:#dfdfdf;fill-opacity:1;stroke:none;stroke-width:0.797203;stroke-dasharray:none;stroke-opacity:0.6"
       d="m 32.491261,13.623585 c -5.797632,-0.07066 -11.613113,1.19183 -16.862588,3.740644 -3.831449,1.860309 -7.3848611,4.389933 -10.30302,7.334994 l -0.7857092,0.792718 3.054027,2.770311 3.0535642,2.770319 0.93107,-0.868439 c 0.511933,-0.47764 1.106811,-1.019528 1.322289,-1.20404 8.928096,-7.644867 21.641947,-9.210844 32.175726,-3.963131 2.719561,1.354832 4.898162,2.889628 7.27704,5.125569 l 0.975007,0.916117 3.051689,-2.771251 3.051686,-2.771714 -0.867492,-0.874045 C 54.2292,20.253752 48.840414,17.037344 42.781197,15.200608 39.441971,14.188385 35.969844,13.665972 32.491261,13.623585 Z m -0.508068,9.612659 c -1.332288,8.4e-5 -2.664286,0.0498 -3.398038,0.148167 -6.259292,0.839569 -11.62434,3.414654 -16.175968,7.764074 -0.409706,0.391499 -0.734606,0.741411 -0.722144,0.777762 0.01238,0.03639 1.38842,1.304477 3.057766,2.817989 l 3.034864,2.751616 0.603888,-0.584726 c 2.914888,-2.822249 6.93469,-4.723418 11.145283,-5.271868 1.238604,-0.161246 3.675831,-0.161174 4.910566,5.46e-4 4.211463,0.551357 7.765205,2.197065 10.969074,5.079761 l 0.818892,0.736629 0.176181,-0.157991 c 0.862516,-0.770808 5.508534,-4.975776 5.692526,-5.152215 L 52.333519,31.91837 52.016101,31.587456 C 50.776238,30.294575 48.568905,28.530695 46.820039,27.435004 45.571096,26.652524 43.267738,25.509318 41.925381,25.005433 39.931309,24.256906 37.611395,23.68199 35.383102,23.384 c -0.73528,-0.09835 -2.067617,-0.147779 -3.39991,-0.147699 z m -0.17574,9.530864 c -0.314915,0.0034 -0.630256,0.01436 -0.945565,0.03414 -4.361794,0.273029 -8.335131,2.000454 -11.616901,5.049372 l -0.542658,0.503863 3.061971,2.775921 c 1.68398,1.526796 3.073678,2.77752 3.088149,2.779203 0.01435,0.0017 0.230094,-0.172515 0.479557,-0.387486 3.7492,-3.23042 9.389244,-3.280191 13.16494,-0.115918 l 0.612776,0.51365 0.343062,-0.303337 c 0.188708,-0.166828 1.575667,-1.419322 3.082063,-2.782949 l 2.739019,-2.479094 -0.626321,-0.586594 c -3.4735,-3.251402 -8.116482,-5.048969 -12.840092,-5.000761 z m -0.07293,9.576676 c -0.512519,0.01162 -1.01955,0.067 -1.509724,0.170601 -1.557717,0.32947 -3.11926,1.106913 -4.131389,2.057526 l -0.251932,0.236994 3.074591,2.790885 3.074596,2.791336 1.816339,-1.651344 c 0.998914,-0.908092 2.381452,-2.158775 3.072258,-2.77919 l 1.255912,-1.12782 -0.37626,-0.35292 c -1.481489,-1.38976 -3.803484,-2.183791 -6.024393,-2.136051 z" />
  </g>
</svg>
