<?xml version="1.0" encoding="UTF-8" standalone="no"?>
<svg
   width="64"
   height="64"
   version="1.1"
   id="svg73"
   sodipodi:docname="obsidian.svg"
   inkscape:version="1.4.2 (ebf0e940d0, 2025-05-08)"
   xmlns:inkscape="http://www.inkscape.org/namespaces/inkscape"
   xmlns:sodipodi="http://sodipodi.sourceforge.net/DTD/sodipodi-0.dtd"
   xmlns="http://www.w3.org/2000/svg"
   xmlns:svg="http://www.w3.org/2000/svg"
   xmlns:rdf="http://www.w3.org/1999/02/22-rdf-syntax-ns#"
   xmlns:cc="http://creativecommons.org/ns#"
   xmlns:dc="http://purl.org/dc/elements/1.1/">
  <metadata
     id="metadata77">
    <rdf:RDF>
      <cc:Work
         rdf:about="">
        <dc:format>image/svg+xml</dc:format>
        <dc:type
           rdf:resource="http://purl.org/dc/dcmitype/StillImage" />
      </cc:Work>
    </rdf:RDF>
  </metadata>
  <sodipodi:namedview
     pagecolor="#f5f7fa"
     bordercolor="#666666"
     borderopacity="1"
     objecttolerance="10"
     gridtolerance="10"
     guidetolerance="10"
     inkscape:pageopacity="0"
     inkscape:pageshadow="2"
     inkscape:window-width="1377"
     inkscape:window-height="886"
     id="namedview75"
     showgrid="false"
     inkscape:zoom="6.2890624"
     inkscape:cx="47.622361"
     inkscape:cy="45.396274"
     inkscape:window-x="264"
     inkscape:window-y="75"
     inkscape:window-maximized="0"
     inkscape:current-layer="g877"
     inkscape:document-rotation="0"
     inkscape:pagecheckerboard="0"
     inkscape:showpageshadow="2"
     inkscape:deskcolor="#d1d1d1" />
  <defs
     id="defs29" />
  <circle
     cx="32.516094"
     cy="31.877844"
     r="0"
     fill="url(#b)"
     stroke-width="1.5715"
     id="circle41"
     style="fill:url(#b)" />
  <g
     aria-label="GZ"
     transform="matrix(1.2212657,0,0,0.81882264,0.4960938,-0.1661539)"
     id="text93"
     style="font-weight:bold;font-size:11.5263px;line-height:1.25;font-family:sans-serif;-inkscape-font-specification:'sans-serif Bold';fill:#f2f2f2;stroke-width:0.288159" />
  <g
     id="g877"
     transform="matrix(1.1,0,0,1.1,-3.1845928,-3.2065454)">
    <path
       id="path26"
       style="fill:#dfdfdf;fill-opacity:1;stroke:none;stroke-width:0.435371;stroke-dasharray:none;stroke-opacity:1"
       d="m 33.576054,5.2344411 c -0.821623,0 -0.963941,0.024357 -1.403057,0.2400129 -0.362856,0.1781967 -1.98765,1.5861539 -6.312731,5.469785 -3.203365,2.876405 -5.936283,5.373998 -6.072975,5.550377 -0.498543,0.643302 -0.56679,0.945248 -1.281148,5.675072 -0.379805,2.51471 -0.690556,4.635164 -0.690631,4.711991 -7.4e-5,0.07814 0.508329,0.517404 1.153669,0.996786 2.052479,1.524669 4.011981,3.654485 5.152475,5.600309 0.562504,0.959705 1.194951,2.390884 1.486437,3.363934 0.12912,0.431022 0.251174,0.837174 0.271185,0.902507 0.02224,0.07267 0.111961,0.102003 0.231136,0.07576 2.555094,-0.562533 4.247059,-0.778101 6.224536,-0.793271 0.778064,-0.0058 1.414835,-0.01877 1.414967,-0.02836 1.31e-4,-0.0097 -0.272788,-0.832496 -0.606489,-1.828585 C 31.082433,29.018663 30.85113,24.491891 32.372459,20.083864 32.563137,19.53138 33.360102,17.766712 34.143511,16.162357 36.196008,11.959005 36.414252,11.23193 36.33908,8.8480217 36.292047,7.3557548 36.089042,6.3759028 35.753122,6.0183321 35.64882,5.9073146 35.322166,5.6854841 35.027009,5.525389 34.515389,5.2478735 34.447707,5.2344345 33.576054,5.2344345 Z m 3.52183,2.4203712 -0.0033,1.4892271 c -0.0055,2.4328546 -0.214258,3.1075176 -2.253608,7.2796136 -0.807417,1.651808 -1.580423,3.365053 -1.782205,3.950143 -1.465924,4.250635 -1.204141,8.757816 0.858915,14.789858 0.241079,0.704872 0.507643,1.427694 0.592548,1.606318 l 0.154352,0.324911 0.914418,0.160423 c 4.72289,0.828873 8.49782,3.970146 11.457859,9.534743 0.231695,0.435564 0.446427,0.78404 0.482551,0.783895 6.6e-5,-1.1e-5 6.88e-4,-8e-6 9.41e-4,0 h 4.51e-4 c 1.26e-4,-3.7e-5 9.4e-4,-4.51e-4 9.4e-4,-4.51e-4 0.130504,-0.04842 3.07536,-4.61889 4.460831,-6.923276 0.324479,-0.539684 0.625119,-1.10375 0.668072,-1.253521 0.135605,-0.47281 -0.03385,-0.885106 -0.777557,-1.892453 -1.034337,-1.400332 -2.102278,-3.061782 -2.934527,-4.563855 -1.306642,-2.35833 -1.780344,-3.65534 -2.171721,-5.94803 -0.250974,-1.470193 -0.475889,-3.905138 -0.477486,-5.170216 -0.0016,-1.317333 -0.132381,-2.290333 -0.378644,-2.815741 -0.118556,-0.252516 -2.01935,-2.741149 -4.335335,-5.676086 C 39.306767,10.45588 37.371492,8.0029148 37.274409,7.8793573 Z M 17.605917,27.842984 c -0.0045,3.3e-4 -0.0076,0.0016 -0.0098,0.0036 -0.07437,0.07433 -5.991472,13.278958 -6.157628,13.741349 -0.133965,0.372769 -0.163489,0.62888 -0.133554,1.155444 0.07066,1.24341 0.02459,1.185909 5.370942,6.686558 2.605802,2.68101 4.906958,5.030586 5.113697,5.221157 0.206741,0.190562 0.398498,0.346456 0.426288,0.346456 0.144507,0 1.46863,-3.164593 2.040211,-4.876223 0.436012,-1.305665 0.984515,-3.530074 1.181038,-4.789043 0.193437,-1.239201 0.264211,-3.909351 0.134068,-5.056164 -0.439727,-3.875445 -1.986433,-7.035535 -4.835118,-9.878612 -0.911728,-0.909928 -2.94608,-2.566606 -3.130011,-2.554693 z m 14.925199,9.957481 c -1.264172,0 -2.345787,0.04465 -2.829934,0.11685 -1.155106,0.172198 -3.473681,0.626937 -3.543121,0.694936 -0.03306,0.03238 -0.0076,0.434304 0.05678,0.893133 0.479767,3.422885 0.03464,7.088021 -1.356929,11.174254 -0.455555,1.337694 -1.209586,3.19654 -1.652947,4.074842 -0.138665,0.274714 -0.252174,0.521192 -0.252174,0.547688 0,0.142148 0.703257,0.232007 3.371537,0.430592 1.61785,0.120419 3.313714,0.262057 3.768682,0.314781 1.707459,0.197843 3.723529,0.693147 8.006993,1.967466 1.219018,0.362655 2.394509,0.688528 2.612224,0.724082 1.136713,0.185655 2.302831,-0.278476 3.253179,-1.294834 0.625859,-0.669318 0.905447,-1.349869 1.155443,-2.811934 0.363546,-2.126128 0.87029,-3.848496 1.591108,-5.408703 l 0.337581,-0.73068 -0.514486,-1.020863 c -2.322428,-4.60879 -5.466846,-7.703909 -9.107939,-8.965254 -1.657485,-0.574188 -2.572749,-0.706347 -4.895983,-0.706347 z" />
  </g>
</svg>
