<?xml version="1.0" encoding="UTF-8" standalone="no"?>
<svg
   width="64"
   height="64"
   version="1.1"
   id="svg73"
   sodipodi:docname="octave.svg"
   inkscape:version="1.4.2 (ebf0e940d0, 2025-05-08)"
   xmlns:inkscape="http://www.inkscape.org/namespaces/inkscape"
   xmlns:sodipodi="http://sodipodi.sourceforge.net/DTD/sodipodi-0.dtd"
   xmlns="http://www.w3.org/2000/svg"
   xmlns:svg="http://www.w3.org/2000/svg"
   xmlns:rdf="http://www.w3.org/1999/02/22-rdf-syntax-ns#"
   xmlns:cc="http://creativecommons.org/ns#"
   xmlns:dc="http://purl.org/dc/elements/1.1/">
  <metadata
     id="metadata77">
    <rdf:RDF>
      <cc:Work
         rdf:about="">
        <dc:format>image/svg+xml</dc:format>
        <dc:type
           rdf:resource="http://purl.org/dc/dcmitype/StillImage" />
      </cc:Work>
    </rdf:RDF>
  </metadata>
  <sodipodi:namedview
     pagecolor="#f5f7fa"
     bordercolor="#666666"
     borderopacity="1"
     objecttolerance="10"
     gridtolerance="10"
     guidetolerance="10"
     inkscape:pageopacity="0"
     inkscape:pageshadow="2"
     inkscape:window-width="1377"
     inkscape:window-height="886"
     id="namedview75"
     showgrid="false"
     inkscape:zoom="6.2890624"
     inkscape:cx="47.622361"
     inkscape:cy="45.396274"
     inkscape:window-x="480"
     inkscape:window-y="52"
     inkscape:window-maximized="0"
     inkscape:current-layer="g877"
     inkscape:document-rotation="0"
     inkscape:pagecheckerboard="0"
     inkscape:showpageshadow="2"
     inkscape:deskcolor="#d1d1d1" />
  <defs
     id="defs29" />
  <circle
     cx="32.516094"
     cy="31.877844"
     r="0"
     fill="url(#b)"
     stroke-width="1.5715"
     id="circle41"
     style="fill:url(#b)" />
  <g
     aria-label="GZ"
     transform="matrix(1.2212657,0,0,0.81882264,0.4960938,-0.1661539)"
     id="text93"
     style="font-weight:bold;font-size:11.5263px;line-height:1.25;font-family:sans-serif;-inkscape-font-specification:'sans-serif Bold';fill:#f2f2f2;stroke-width:0.288159" />
  <g
     id="g877"
     transform="matrix(1.1,0,0,1.1,-3.1845928,-3.2065454)">
    <path
       id="path6"
       style="fill:#dfdfdf;fill-opacity:1;stroke:none;stroke-width:0.878918;stroke-dasharray:none;stroke-opacity:0.6"
       d="m 32.711009,6.7302123 c -1.280847,0.010285 -2.56584,0.071632 -3.24369,0.1756944 -3.586803,0.5506456 -6.64769,1.6253616 -9.537357,3.3518123 -1.939966,1.159051 -3.178655,2.136693 -4.924109,3.883424 -2.189888,2.1915 -3.457454,3.936168 -4.80247,6.609029 -0.3564657,0.708386 -0.6487357,1.32262 -0.6487357,1.365049 0,0.04239 2.1393587,0.06542 4.7529107,0.05183 l 4.750662,-0.02477 0.394194,-0.644233 c 1.395854,-2.284678 3.581861,-4.543553 5.813873,-6.009895 4.693098,-3.083176 10.525775,-3.935162 15.990964,-2.33591 0.14029,0.0411 0.160167,-0.116814 0.191465,-1.464166 0.04065,-1.7194882 0.165484,-2.1293768 0.837967,-2.7368683 L 42.649406,8.624589 41.70558,8.273183 C 39.972111,7.6321693 37.975098,7.1427207 35.929919,6.8540812 35.269033,6.7608144 33.991853,6.7198378 32.711001,6.730205 Z M 47.74239,9.5661868 c -0.342627,0.00132 -0.731268,0.00484 -1.175844,0.00902 l -3.10628,0.027071 -0.259059,0.2387682 c -0.500051,0.46164 -0.521739,0.621764 -0.515807,3.707718 0.0067,3.161078 0.03843,3.382963 0.558632,3.732503 0.322417,0.216756 0.353719,0.218499 3.480219,0.218499 3.073538,0 3.160419,-0.0044 3.441913,-0.204983 0.526903,-0.375185 0.554164,-0.561276 0.554164,-3.734754 0,-2.717954 -0.01278,-2.917917 -0.195915,-3.29775 C 50.223407,9.6405798 50.141098,9.5566971 47.742452,9.5662671 Z m 4.270855,5.8746912 -0.06511,0.790649 c -0.102014,1.229677 -0.583151,1.966759 -1.547507,2.369698 l -0.360474,0.150921 0.445965,0.547375 c 1.34722,1.659109 2.686857,4.089275 3.342801,6.063905 1.026451,3.089962 1.257295,6.584448 0.642004,9.717568 l -0.173455,0.873995 1.205114,0.04284 c 1.002443,0.03475 1.27798,0.07842 1.657891,0.261289 0.250821,0.120734 0.480393,0.260817 0.511361,0.310859 0.09307,0.150664 0.114357,0.07099 0.29052,-1.121771 0.211836,-1.433567 0.240444,-5.184342 0.04941,-6.554967 -0.433814,-3.116124 -1.342669,-6.005055 -2.709773,-8.616072 -0.668627,-1.277015 -1.931691,-3.20165 -2.732355,-4.164996 z M 7.9755973,23.482533 7.5633809,23.703287 C 6.929618,24.041674 6.4275116,24.547542 6.1352506,25.142676 l -0.2658019,0.542868 -0.027068,6.117964 c -0.029488,6.776101 -0.032767,6.732257 0.581157,7.541588 0.3465972,0.456868 1.0747328,0.98962 1.5385029,1.124028 0.1650979,0.04775 3.0636694,0.08988 6.4400844,0.0946 6.721414,0.0099 6.522564,0.02416 7.338854,-0.563144 0.569229,-0.409563 1.033027,-1.133378 1.1826,-1.8471 0.09415,-0.449238 0.126897,-1.953053 0.128387,-6.108953 0.0022,-5.657173 -0.03411,-6.29931 -0.382911,-6.982949 -0.245851,-0.481905 -0.886861,-1.094988 -1.416865,-1.356047 l -0.448245,-0.222997 h -6.4153 z m 44.5377207,13.74065 c -3.988395,-0.0026 -4.118971,0.0115 -4.647033,0.504576 -0.496368,0.46342 -0.4956,0.449586 -0.4956,4.613249 0,4.181308 0.0082,4.268901 0.504498,4.725886 0.133408,0.122999 0.407966,0.282557 0.610444,0.355916 0.295184,0.106997 1.107429,0.130091 4.101911,0.112578 4.220966,-0.02471 4.230139,-0.02636 4.723629,-0.772632 l 0.254502,-0.385239 0.02912,-3.788821 c 0.01922,-2.467506 -0.0067,-3.908066 -0.07214,-4.133441 -0.14215,-0.485967 -0.449975,-0.845052 -0.905525,-1.05195 C 56.258846,37.240561 55.92012,37.225062 52.51295,37.223096 Z M 14.6522,41.818418 c -2.803831,-0.0014 -5.0975527,0.03186 -5.0975527,0.07428 0,0.04173 0.29227,0.656676 0.6487357,1.365046 0.744125,1.478735 1.534638,2.761016 2.522874,4.090663 0.884953,1.190671 3.590023,3.893229 4.802468,4.797963 3.851686,2.874171 8.222532,4.588385 12.943241,5.077283 1.178113,0.122013 4.672024,0.04557 5.840897,-0.128428 5.56115,-0.825252 10.232791,-3.122453 14.16639,-6.969433 l 1.342521,-1.313249 -1.486683,-0.0042 c -1.693845,-0.0038 -2.365523,-0.132767 -3.013933,-0.578866 -0.229076,-0.157589 -0.51268,-0.425923 -0.630709,-0.596923 -0.118035,-0.170989 -0.226441,-0.327476 -0.240993,-0.346856 -0.0142,-0.01977 -0.300459,0.137699 -0.635223,0.349162 -6.011548,3.796639 -13.994462,3.802861 -20.104151,0.01318 -2.128869,-1.320367 -4.332493,-3.406975 -5.624695,-5.327332 l -0.33563,-0.500035 z" />
  </g>
</svg>
