<?xml version="1.0" encoding="UTF-8" standalone="no"?>
<svg
   width="64"
   height="64"
   version="1.1"
   id="svg73"
   sodipodi:docname="onlyoffice-desktopeditors.svg"
   inkscape:version="1.4.2 (ebf0e940d0, 2025-05-08)"
   xmlns:inkscape="http://www.inkscape.org/namespaces/inkscape"
   xmlns:sodipodi="http://sodipodi.sourceforge.net/DTD/sodipodi-0.dtd"
   xmlns="http://www.w3.org/2000/svg"
   xmlns:svg="http://www.w3.org/2000/svg"
   xmlns:rdf="http://www.w3.org/1999/02/22-rdf-syntax-ns#"
   xmlns:cc="http://creativecommons.org/ns#"
   xmlns:dc="http://purl.org/dc/elements/1.1/">
  <metadata
     id="metadata77">
    <rdf:RDF>
      <cc:Work
         rdf:about="">
        <dc:format>image/svg+xml</dc:format>
        <dc:type
           rdf:resource="http://purl.org/dc/dcmitype/StillImage" />
      </cc:Work>
    </rdf:RDF>
  </metadata>
  <sodipodi:namedview
     pagecolor="#f5f7fa"
     bordercolor="#666666"
     borderopacity="1"
     objecttolerance="10"
     gridtolerance="10"
     guidetolerance="10"
     inkscape:pageopacity="0"
     inkscape:pageshadow="2"
     inkscape:window-width="1377"
     inkscape:window-height="886"
     id="namedview75"
     showgrid="false"
     inkscape:zoom="6.2890624"
     inkscape:cx="47.622361"
     inkscape:cy="45.396274"
     inkscape:window-x="264"
     inkscape:window-y="75"
     inkscape:window-maximized="0"
     inkscape:current-layer="g877"
     inkscape:document-rotation="0"
     inkscape:pagecheckerboard="0"
     inkscape:showpageshadow="2"
     inkscape:deskcolor="#d1d1d1" />
  <defs
     id="defs29">
    <linearGradient
       id="b"
       x1="399.57"
       x2="399.57"
       y1="545.8"
       y2="517.8"
       gradientTransform="matrix(2.1429,0,0,2.1429,-825.86391,-1107.6662)"
       gradientUnits="userSpaceOnUse">
      <stop
         stop-color="#3889e9"
         offset="0"
         id="stop2" />
      <stop
         stop-color="#5ea5fb"
         offset="1"
         id="stop4" />
    </linearGradient>
  </defs>
  <circle
     cx="32.516094"
     cy="31.877844"
     r="0"
     fill="url(#b)"
     stroke-width="1.5715"
     id="circle41"
     style="fill:url(#b)" />
  <g
     aria-label="GZ"
     transform="matrix(1.2212657,0,0,0.81882264,0.4960938,-0.1661539)"
     id="text93"
     style="font-weight:bold;font-size:11.5263px;line-height:1.25;font-family:sans-serif;-inkscape-font-specification:'sans-serif Bold';fill:#f2f2f2;stroke-width:0.288159" />
  <g
     id="g877"
     transform="matrix(1.1,0,0,1.1,-3.1845928,-3.2065454)">
    <path
       id="path2-6"
       style="fill:#dfdfdf;fill-opacity:1;stroke:none;stroke-width:0.704804;stroke-dasharray:none;stroke-opacity:0.6"
       d="M 29.328251,4.3522019 18.429447,9.7655364 C 11.569687,13.171179 7.3239281,15.483125 6.9786437,16.003726 c -1.1548047,1.74115 -0.5005915,2.211205 11.0838473,7.988278 5.955268,2.969839 11.360977,5.475752 12.015345,5.567016 3.596261,0.501521 4.685687,0.130504 15.816588,-5.381974 5.858774,-2.901515 10.937044,-5.52956 11.284578,-5.839877 0.347601,-0.310314 0.630403,-0.919954 0.630403,-1.3549 0,-0.434945 -0.282921,-1.044586 -0.630403,-1.354903 -0.3476,-0.310313 -5.475126,-2.973147 -11.394347,-5.9182827 L 35.020718,4.3522019 H 32.17605 Z m 18.422899,21.4463351 -5.77401,2.89171 c -9.114153,4.563782 -10.664677,4.565958 -19.84053,0.04391 l -5.880651,-2.897991 -4.663747,2.339711 c -2.6505985,1.328216 -4.8398359,2.662334 -5.0683383,3.089304 -0.9062368,1.693316 0.5466949,2.607215 15.8981383,9.99239 l 7.041098,3.387249 2.951307,-0.109857 2.948166,-0.109857 10.663567,-5.309815 C 57.57846,33.36161 58.415491,32.763343 57.298213,31.058168 56.925985,30.490082 55.02371,29.335006 52.226708,27.975143 Z m -31.708461,15.107779 -4.735887,2.408709 c -7.6143961,3.87184 -7.6394522,3.825226 5.817922,10.563212 5.793473,2.900737 10.938613,5.408445 11.435119,5.573296 0.496507,0.164862 2.203017,0.249462 3.791849,0.188264 l 2.888572,-0.109835 10.290357,-5.149889 c 10.31789,-5.164509 11.91812,-6.13663 11.91812,-7.24496 0,-0.97239 -1.38507,-1.973563 -5.758335,-4.155667 l -4.133713,-2.060587 -6.357369,3.136341 -6.357377,3.136357 h -3.032848 -3.02971 l -6.366785,-3.142634 z" />
  </g>
</svg>
