<?xml version="1.0" encoding="UTF-8" standalone="no"?>
<svg
   width="64"
   height="64"
   version="1.1"
   id="svg73"
   sodipodi:docname="org.xfce.PanelProfiles.svg"
   inkscape:version="1.4.2 (ebf0e940d0, 2025-05-08)"
   xmlns:inkscape="http://www.inkscape.org/namespaces/inkscape"
   xmlns:sodipodi="http://sodipodi.sourceforge.net/DTD/sodipodi-0.dtd"
   xmlns="http://www.w3.org/2000/svg"
   xmlns:svg="http://www.w3.org/2000/svg"
   xmlns:rdf="http://www.w3.org/1999/02/22-rdf-syntax-ns#"
   xmlns:cc="http://creativecommons.org/ns#"
   xmlns:dc="http://purl.org/dc/elements/1.1/">
  <metadata
     id="metadata77">
    <rdf:RDF>
      <cc:Work
         rdf:about="">
        <dc:format>image/svg+xml</dc:format>
        <dc:type
           rdf:resource="http://purl.org/dc/dcmitype/StillImage" />
      </cc:Work>
    </rdf:RDF>
  </metadata>
  <sodipodi:namedview
     pagecolor="#f5f7fa"
     bordercolor="#666666"
     borderopacity="1"
     objecttolerance="10"
     gridtolerance="10"
     guidetolerance="10"
     inkscape:pageopacity="0"
     inkscape:pageshadow="2"
     inkscape:window-width="1377"
     inkscape:window-height="886"
     id="namedview75"
     showgrid="false"
     inkscape:zoom="6.2890624"
     inkscape:cx="47.622361"
     inkscape:cy="45.396274"
     inkscape:window-x="147"
     inkscape:window-y="75"
     inkscape:window-maximized="0"
     inkscape:current-layer="g877"
     inkscape:document-rotation="0"
     inkscape:pagecheckerboard="0"
     inkscape:showpageshadow="2"
     inkscape:deskcolor="#d1d1d1" />
  <defs
     id="defs29">
    <linearGradient
       id="b"
       x1="399.57"
       x2="399.57"
       y1="545.8"
       y2="517.8"
       gradientTransform="matrix(2.1429,0,0,2.1429,-825.86391,-1107.6662)"
       gradientUnits="userSpaceOnUse">
      <stop
         stop-color="#3889e9"
         offset="0"
         id="stop2" />
      <stop
         stop-color="#5ea5fb"
         offset="1"
         id="stop4" />
    </linearGradient>
  </defs>
  <circle
     cx="32.516094"
     cy="31.877844"
     r="0"
     fill="url(#b)"
     stroke-width="1.5715"
     id="circle41"
     style="fill:url(#b)" />
  <g
     aria-label="GZ"
     transform="matrix(1.2212657,0,0,0.81882264,0.4960938,-0.1661539)"
     id="text93"
     style="font-weight:bold;font-size:11.5263px;line-height:1.25;font-family:sans-serif;-inkscape-font-specification:'sans-serif Bold';fill:#f2f2f2;stroke-width:0.288159" />
  <g
     id="g877"
     transform="matrix(1.1,0,0,1.1,-3.1845928,-3.2065454)">
    <path
       style="fill:#dfdfdf;fill-opacity:1;stroke:none;stroke-width:0.97436;stroke-dasharray:none;stroke-dashoffset:2.2;stroke-opacity:0.6"
       d="M 6.382705,55.794186 C 6.1153361,55.743656 5.6522401,55.527875 5.3535733,55.315375 4.1644299,54.46863 4.2300456,55.824985 4.2300456,32.092218 c 0,-20.968192 0.012644,-21.738853 0.37233,-22.4391456 C 4.8071499,9.2542036 5.2689363,8.7519513 5.6285616,8.536942 6.273592,8.1512886 6.6306812,8.1460097 32.083601,8.1460097 h 25.801175 l 0.638106,0.4551921 c 1.299997,0.9272351 1.218704,-0.6296917 1.218704,23.3358182 0,20.851128 -0.01529,21.786472 -0.364252,22.43914 -0.200266,0.374478 -0.66208,0.857003 -1.026175,1.072011 -0.652304,0.38519 -1.03484,0.391214 -26.072271,0.41465 -13.975637,0.01346 -25.6289969,-0.01886 -25.8963524,-0.0685 z M 53.96309,50.837451 c 1.064626,-0.268195 2.152562,-1.155499 2.677105,-2.183655 0.323957,-0.634896 0.390426,-1.06196 0.33053,-2.122772 -0.09156,-1.618067 -0.771904,-2.731164 -2.097458,-3.430972 L 54.011792,42.645243 H 32.242037 c -19.207037,0 -21.854948,0.03592 -22.4937574,0.30259 -2.6296732,1.098768 -3.3193199,4.42493 -1.3753586,6.633383 1.3429009,1.525619 -0.048026,1.440102 23.672985,1.455429 14.583547,0.0092 21.332511,-0.05174 21.917184,-0.199107 z"
       id="path90" />
  </g>
</svg>
