<?xml version="1.0" encoding="UTF-8" standalone="no"?>
<svg
   width="64"
   height="64"
   version="1.1"
   id="svg73"
   sodipodi:docname="org.gnome.Calendar.svg"
   inkscape:version="1.4.2 (ebf0e940d0, 2025-05-08)"
   xmlns:inkscape="http://www.inkscape.org/namespaces/inkscape"
   xmlns:sodipodi="http://sodipodi.sourceforge.net/DTD/sodipodi-0.dtd"
   xmlns="http://www.w3.org/2000/svg"
   xmlns:svg="http://www.w3.org/2000/svg"
   xmlns:rdf="http://www.w3.org/1999/02/22-rdf-syntax-ns#"
   xmlns:cc="http://creativecommons.org/ns#"
   xmlns:dc="http://purl.org/dc/elements/1.1/">
  <metadata
     id="metadata77">
    <rdf:RDF>
      <cc:Work
         rdf:about="">
        <dc:format>image/svg+xml</dc:format>
        <dc:type
           rdf:resource="http://purl.org/dc/dcmitype/StillImage" />
      </cc:Work>
    </rdf:RDF>
  </metadata>
  <sodipodi:namedview
     pagecolor="#f5f7fa"
     bordercolor="#666666"
     borderopacity="1"
     objecttolerance="10"
     gridtolerance="10"
     guidetolerance="10"
     inkscape:pageopacity="0"
     inkscape:pageshadow="2"
     inkscape:window-width="1377"
     inkscape:window-height="886"
     id="namedview75"
     showgrid="false"
     inkscape:zoom="6.2890624"
     inkscape:cx="46.986336"
     inkscape:cy="41.739131"
     inkscape:window-x="0"
     inkscape:window-y="49"
     inkscape:window-maximized="0"
     inkscape:current-layer="g877"
     inkscape:document-rotation="0"
     inkscape:pagecheckerboard="0"
     inkscape:showpageshadow="2"
     inkscape:deskcolor="#d1d1d1" />
  <defs
     id="defs29" />
  <circle
     cx="32.516094"
     cy="31.877844"
     r="0"
     fill="url(#b)"
     stroke-width="1.5715"
     id="circle41"
     style="fill:url(#b)" />
  <g
     aria-label="GZ"
     transform="matrix(1.2212657,0,0,0.81882264,0.4960938,-0.1661539)"
     id="text93"
     style="font-weight:bold;font-size:11.5263px;line-height:1.25;font-family:sans-serif;-inkscape-font-specification:'sans-serif Bold';fill:#f2f2f2;stroke-width:0.288159" />
  <g
     id="g877"
     transform="matrix(1.1,0,0,1.1,-3.1845928,-3.2065454)">
    <path
       id="path51393"
       style="fill:#dfdfdf;fill-opacity:1;stroke:none;stroke-width:0.726377;stroke-dasharray:none;stroke-opacity:0.6"
       d="m 43.952122,18.372106 c -5.349318,-0.0092 -8.574336,2.999613 -9.875132,9.210482 -0.675993,3.227688 -0.668062,8.957741 0.01668,11.499208 0.969031,3.596642 3.033003,5.906198 5.753774,6.443452 2.214142,0.43722 4.922343,-0.410664 6.290498,-1.968911 1.720576,-1.959623 2.546907,-5.4054 2.07458,-8.645959 -0.319327,-2.19128 -1.045483,-3.69239 -2.388806,-4.930612 -1.142599,-1.053213 -2.184695,-1.420911 -4.004566,-1.415503 -1.683791,0.0053 -2.863352,0.588817 -4.143605,2.052339 l -1.065104,1.21527 v -1.051196 c 0,-1.57548 0.595404,-4.380003 1.209714,-5.698156 0.679202,-1.457392 1.770891,-2.572439 3.09241,-3.161932 1.202675,-0.536481 3.830067,-0.758537 5.036294,-0.425482 l 0.850952,0.233597 V 20.18806 c 0,-1.81797 0.0081,-1.811118 -2.847683,-1.815954 z m -21.207479,0.02225 c -0.189784,9.33e-4 -0.384504,0.0068 -0.583996,0.01668 -1.675426,0.08113 -2.164722,0.201514 -3.323231,0.823137 -0.747116,0.400885 -1.758225,1.069905 -2.249785,1.485021 l -0.895463,0.753657 0.748074,1.165214 c 0.411155,0.640718 0.815079,1.165216 0.898244,1.165216 0.08318,0 0.525387,-0.308007 0.981675,-0.684111 1.304615,-1.075379 2.609987,-1.571242 4.163074,-1.576796 2.520252,-0.0092 3.749482,1.388327 3.740367,4.252062 -0.01012,3.265047 -0.611559,4.251135 -8.153727,13.404155 l -2.513974,3.053476 v 1.529526 1.529514 h 7.358382 7.358376 v -1.69915 -1.696371 h -5.453432 c -3.153132,0 -5.421987,-0.08746 -5.378346,-0.205807 0.04147,-0.112494 1.401352,-1.754272 3.020104,-3.648587 6.020885,-7.045823 7.049743,-9.028169 6.863372,-13.215053 -0.0777,-1.745623 -0.190854,-2.247032 -0.748075,-3.267613 C 27.362898,19.356163 25.59136,18.380287 22.744643,18.39435 Z M 6.1201569,25.168712 c -0.3534821,-0.0031 -0.7307504,0.17735 -1.1012542,0.547847 l -0.5561889,0.556187 v 5.639755 c 0,5.362756 0.021069,5.667641 0.467205,6.234878 0.7221763,0.918098 1.8031201,0.769627 2.3693638,-0.325374 0.4828239,-0.933681 0.4828239,-10.804679 0,-11.738365 C 6.987589,25.48092 6.5746402,25.172524 6.1201569,25.168733 Z m 51.8451391,0 c -0.353459,-0.0031 -0.730736,0.177342 -1.101252,0.547847 l -0.556184,0.556185 v 5.639755 c 0,5.362773 0.02346,5.667642 0.469964,6.234877 0.722185,0.918104 1.803109,0.769628 2.369354,-0.325372 0.482793,-0.933689 0.482793,-10.804677 0,-11.738365 -0.311682,-0.602743 -0.727391,-0.911137 -1.181888,-0.914929 z m -16.668973,6.332211 c 1.645102,0 2.622428,0.565245 3.331574,1.924417 0.399134,0.76506 0.472759,1.310003 0.472759,3.509548 0,2.429348 -0.04244,2.673816 -0.620152,3.656935 -0.430132,0.731719 -0.918294,1.1972 -1.599034,1.526755 -1.116231,0.540353 -2.227169,0.594667 -3.214781,0.155734 -2.501024,-1.111587 -3.82097,-5.995709 -2.313745,-8.559743 0.876093,-1.490383 2.164902,-2.213631 3.943379,-2.213631 z" />
  </g>
</svg>
