<?xml version="1.0" encoding="UTF-8" standalone="no"?>
<svg
   width="64"
   height="64"
   version="1.1"
   id="svg73"
   sodipodi:docname="org.kde.elisa.svg"
   inkscape:version="1.4.2 (ebf0e940d0, 2025-05-08)"
   xmlns:inkscape="http://www.inkscape.org/namespaces/inkscape"
   xmlns:sodipodi="http://sodipodi.sourceforge.net/DTD/sodipodi-0.dtd"
   xmlns="http://www.w3.org/2000/svg"
   xmlns:svg="http://www.w3.org/2000/svg"
   xmlns:rdf="http://www.w3.org/1999/02/22-rdf-syntax-ns#"
   xmlns:cc="http://creativecommons.org/ns#"
   xmlns:dc="http://purl.org/dc/elements/1.1/">
  <metadata
     id="metadata77">
    <rdf:RDF>
      <cc:Work
         rdf:about="">
        <dc:format>image/svg+xml</dc:format>
        <dc:type
           rdf:resource="http://purl.org/dc/dcmitype/StillImage" />
      </cc:Work>
    </rdf:RDF>
  </metadata>
  <sodipodi:namedview
     pagecolor="#f5f7fa"
     bordercolor="#666666"
     borderopacity="1"
     objecttolerance="10"
     gridtolerance="10"
     guidetolerance="10"
     inkscape:pageopacity="0"
     inkscape:pageshadow="2"
     inkscape:window-width="1377"
     inkscape:window-height="886"
     id="namedview75"
     showgrid="false"
     inkscape:zoom="6.2890624"
     inkscape:cx="46.668324"
     inkscape:cy="47.145342"
     inkscape:window-x="264"
     inkscape:window-y="75"
     inkscape:window-maximized="0"
     inkscape:current-layer="g877"
     inkscape:document-rotation="0"
     inkscape:pagecheckerboard="0"
     inkscape:showpageshadow="2"
     inkscape:deskcolor="#d1d1d1" />
  <defs
     id="defs29" />
  <circle
     cx="32.516094"
     cy="31.877844"
     r="0"
     fill="url(#b)"
     stroke-width="1.5715"
     id="circle41"
     style="fill:url(#b)" />
  <g
     aria-label="GZ"
     transform="matrix(1.2212657,0,0,0.81882264,0.4960938,-0.1661539)"
     id="text93"
     style="font-weight:bold;font-size:11.5263px;line-height:1.25;font-family:sans-serif;-inkscape-font-specification:'sans-serif Bold';fill:#f2f2f2;stroke-width:0.288159" />
  <g
     id="g877"
     transform="matrix(1.1,0,0,1.1,-3.1845928,-3.2065454)">
    <g
       id="g54"
       transform="matrix(5.3815613,0,0,5.3815613,-13.576994,-15.123262)"
       style="fill:#dfdfdf;fill-opacity:1">
      <path
         id="path2-92"
         class="ColorScheme-Text"
         d="m 6.5016585,7.0706567 c -0.602857,0 -1.0915785,0.4887214 -1.0915785,1.0915785 0,0.6028569 0.4887215,1.0915785 1.0915785,1.0915785 H 10.43134 c 0.602857,0 1.091579,-0.4887215 1.091579,-1.0915785 0,-0.6028571 -0.488722,-1.0915785 -1.091579,-1.0915785 z M 5.8467114,8.1622352 c 0,-0.3617055 0.2932416,-0.6549471 0.6549471,-0.6549471 0.3617055,0 0.6549471,0.2932416 0.6549471,0.6549471 0,0.3617054 -0.2932416,0.6549471 -0.6549471,0.6549471 -0.3617055,0 -0.6549471,-0.2932417 -0.6549471,-0.6549471 z m 3.9296824,0 c 0,-0.3617055 0.2932422,-0.6549471 0.6549462,-0.6549471 0.361706,0 0.654947,0.2932416 0.654947,0.6549471 0,0.3617054 -0.293241,0.6549471 -0.654947,0.6549471 -0.361704,0 -0.6549462,-0.2932417 -0.6549462,-0.6549471 z"
         clip-rule="evenodd"
         fill="currentColor"
         fill-rule="evenodd"
         stroke-width="0.436631"
         style="color:#232629;fill:#dfdfdf;fill-opacity:1" />
      <path
         style="fill:#dfdfdf;fill-opacity:1;stroke-width:0.23812;stroke-linecap:round"
         d="m 4.894695,4.8880809 c -0.819343,0 -1.4882518,0.668909 -1.4882518,1.4882519 v 4.7624052 c 0,0.819342 0.6689088,1.488251 1.4882518,1.488251 h 7.143609 c 0.819343,0 1.488252,-0.668909 1.488252,-1.488251 V 6.3763328 c 0,-0.8193429 -0.668909,-1.4882519 -1.488252,-1.4882519 z m 0,0.5953007 h 7.143609 c 0.499843,0 0.892951,0.3931076 0.892951,0.8929512 v 4.7624052 c 0,0.499843 -0.393108,0.89295 -0.892951,0.89295 H 4.894695 c -0.4998434,0 -0.8929512,-0.393107 -0.8929512,-0.89295 V 6.3763328 c 0,-0.4998436 0.3931078,-0.8929512 0.8929512,-0.8929512 z"
         id="rect2" />
      <path
         style="fill:#dfdfdf;fill-opacity:1;stroke-width:0.23812;stroke-linecap:round"
         d="m 4.894695,4.8880809 c -0.819343,0 -1.4882518,0.668909 -1.4882518,1.4882519 v 3.5718046 c 0,0.8193416 0.6689088,1.4882506 1.4882518,1.4882506 h 7.143609 c 0.819343,0 1.488252,-0.668909 1.488252,-1.4882506 V 6.3763328 c 0,-0.8193429 -0.668909,-1.4882519 -1.488252,-1.4882519 z m 0,0.5953007 h 7.143609 c 0.499843,0 0.892951,0.3931076 0.892951,0.8929512 v 3.5718046 c 0,0.4998426 -0.393108,0.8929496 -0.892951,0.8929496 H 4.894695 c -0.4998434,0 -0.8929512,-0.393107 -0.8929512,-0.8929496 V 6.3763328 c 0,-0.4998436 0.3931078,-0.8929512 0.8929512,-0.8929512 z"
         id="rect3" />
    </g>
  </g>
</svg>
