<?xml version="1.0" encoding="UTF-8" standalone="no"?>
<svg
   width="64"
   height="64"
   version="1.1"
   id="svg73"
   sodipodi:docname="org.js.nuclear.Nuclear.svg"
   inkscape:version="1.4.2 (ebf0e940d0, 2025-05-08)"
   xmlns:inkscape="http://www.inkscape.org/namespaces/inkscape"
   xmlns:sodipodi="http://sodipodi.sourceforge.net/DTD/sodipodi-0.dtd"
   xmlns="http://www.w3.org/2000/svg"
   xmlns:svg="http://www.w3.org/2000/svg"
   xmlns:rdf="http://www.w3.org/1999/02/22-rdf-syntax-ns#"
   xmlns:cc="http://creativecommons.org/ns#"
   xmlns:dc="http://purl.org/dc/elements/1.1/">
  <metadata
     id="metadata77">
    <rdf:RDF>
      <cc:Work
         rdf:about="">
        <dc:format>image/svg+xml</dc:format>
        <dc:type
           rdf:resource="http://purl.org/dc/dcmitype/StillImage" />
      </cc:Work>
    </rdf:RDF>
  </metadata>
  <sodipodi:namedview
     pagecolor="#f5f7fa"
     bordercolor="#666666"
     borderopacity="1"
     objecttolerance="10"
     gridtolerance="10"
     guidetolerance="10"
     inkscape:pageopacity="0"
     inkscape:pageshadow="2"
     inkscape:window-width="1377"
     inkscape:window-height="886"
     id="namedview75"
     showgrid="false"
     inkscape:zoom="6.2890624"
     inkscape:cx="26.633541"
     inkscape:cy="38.877019"
     inkscape:window-x="0"
     inkscape:window-y="75"
     inkscape:window-maximized="0"
     inkscape:current-layer="g877"
     inkscape:document-rotation="0"
     inkscape:pagecheckerboard="0"
     inkscape:showpageshadow="2"
     inkscape:deskcolor="#d1d1d1" />
  <defs
     id="defs29" />
  <circle
     cx="32.516094"
     cy="31.877844"
     r="0"
     fill="url(#b)"
     stroke-width="1.5715"
     id="circle41"
     style="fill:url(#b)" />
  <g
     aria-label="GZ"
     transform="matrix(1.2212657,0,0,0.81882264,0.4960938,-0.1661539)"
     id="text93"
     style="font-weight:bold;font-size:11.5263px;line-height:1.25;font-family:sans-serif;-inkscape-font-specification:'sans-serif Bold';fill:#f2f2f2;stroke-width:0.288159" />
  <g
     id="g877"
     transform="matrix(1.1,0,0,1.1,-3.1845928,-3.2065454)">
    <path
       id="path12"
       style="fill:#dfdfdf;fill-opacity:1;stroke:none;stroke-width:0.861425;stroke-dasharray:none;stroke-opacity:0.6"
       d="m 32.331979,12.539754 c -7.570628,-0.05598 -13.842902,-0.02411 -13.93759,0.07069 -0.09467,0.09467 2.936553,4.450221 6.736614,9.677579 3.800063,5.227355 7.030588,9.378853 7.177421,9.22667 0.146863,-0.152192 3.307583,-4.459382 7.026005,-9.573261 l 6.760164,-9.297351 z m -21.798095,20.142548 -6.9856207,0.107701 6.8375597,9.411746 c 3.761347,5.176787 6.992953,9.360227 7.180791,9.297327 0.187832,-0.0632 3.38342,-4.297854 7.103392,-9.411743 l 6.763533,-9.29733 -6.955333,-0.107701 c -3.825619,-0.05808 -10.100788,-0.05808 -13.944322,0 z m 35.98133,0.0035 -13.745791,0.104324 6.962067,9.566515 c 6.877824,9.453481 6.969312,9.560208 7.618222,8.718576 2.945634,-3.820413 13.201528,-18.196753 13.072811,-18.325468 -0.08975,-0.08978 -6.347895,-0.119923 -13.907309,-0.06393 z" />
  </g>
</svg>
