<?xml version="1.0" encoding="UTF-8" standalone="no"?>
<svg
   width="64"
   height="64"
   version="1.1"
   id="svg73"
   sodipodi:docname="org.squidowl.halloy.svg"
   inkscape:version="1.4.2 (ebf0e940d0, 2025-05-08)"
   xmlns:inkscape="http://www.inkscape.org/namespaces/inkscape"
   xmlns:sodipodi="http://sodipodi.sourceforge.net/DTD/sodipodi-0.dtd"
   xmlns="http://www.w3.org/2000/svg"
   xmlns:svg="http://www.w3.org/2000/svg"
   xmlns:rdf="http://www.w3.org/1999/02/22-rdf-syntax-ns#"
   xmlns:cc="http://creativecommons.org/ns#"
   xmlns:dc="http://purl.org/dc/elements/1.1/">
  <metadata
     id="metadata77">
    <rdf:RDF>
      <cc:Work
         rdf:about="">
        <dc:format>image/svg+xml</dc:format>
        <dc:type
           rdf:resource="http://purl.org/dc/dcmitype/StillImage" />
      </cc:Work>
    </rdf:RDF>
  </metadata>
  <sodipodi:namedview
     pagecolor="#f5f7fa"
     bordercolor="#666666"
     borderopacity="1"
     objecttolerance="10"
     gridtolerance="10"
     guidetolerance="10"
     inkscape:pageopacity="0"
     inkscape:pageshadow="2"
     inkscape:window-width="1377"
     inkscape:window-height="886"
     id="namedview75"
     showgrid="false"
     inkscape:zoom="6.2890624"
     inkscape:cx="46.350311"
     inkscape:cy="39.67205"
     inkscape:window-x="226"
     inkscape:window-y="75"
     inkscape:window-maximized="0"
     inkscape:current-layer="g877"
     inkscape:document-rotation="0"
     inkscape:pagecheckerboard="0"
     inkscape:showpageshadow="2"
     inkscape:deskcolor="#d1d1d1" />
  <defs
     id="defs29" />
  <circle
     cx="32.516094"
     cy="31.877844"
     r="0"
     fill="url(#b)"
     stroke-width="1.5715"
     id="circle41"
     style="fill:url(#b)" />
  <g
     aria-label="GZ"
     transform="matrix(1.2212657,0,0,0.81882264,0.4960938,-0.1661539)"
     id="text93"
     style="font-weight:bold;font-size:11.5263px;line-height:1.25;font-family:sans-serif;-inkscape-font-specification:'sans-serif Bold';fill:#f2f2f2;stroke-width:0.288159" />
  <g
     id="g877"
     transform="matrix(1.1,0,0,1.1,-3.1845928,-3.2065454)">
    <path
       id="path11-6"
       style="fill:#dfdfdf;fill-opacity:1;stroke:none;stroke-width:0.878917;stroke-dasharray:none;stroke-opacity:0.6"
       d="m 30.59919,4.9986959 c -3.386913,-0.00413 -3.976584,0.033181 -5.428118,0.3484931 -5.241723,1.1386415 -9.653059,3.4192987 -13.211768,6.829398 -3.7283331,3.572636 -5.9718728,7.53068 -7.0501674,12.43814 -0.2294431,1.044225 -0.2858922,1.954368 -0.2828108,4.488461 0.00347,2.898378 0.040462,3.334339 0.4178288,4.924538 1.1576148,4.877047 4.0017381,9.55603 7.7051874,12.673523 l 1.100219,0.925049 v 4.643555 c 0,4.407188 0.01436,4.631187 0.271864,4.410004 0.14928,-0.128149 1.680659,-1.359195 3.402836,-2.735039 l 3.130974,-2.501504 0.667798,0.239061 c 1.017017,0.363481 4.130452,1.149487 4.552318,1.149487 0.354562,0 0.330621,-0.06109 -0.479862,-1.251667 -1.562971,-2.295413 -2.574842,-4.72649 -3.030617,-7.27827 -0.275007,-1.539509 -0.275943,-5.212351 -0.0016,-6.590377 1.500826,-7.544784 7.549313,-13.364444 15.497965,-14.912276 1.65429,-0.322141 5.841459,-0.37552 7.340273,-0.09306 4.022671,0.758118 7.809824,2.610705 10.504093,5.138014 l 0.987092,0.926886 -0.107624,-1.268083 C 55.649779,16.601877 47.7271,7.9776095 36.308292,5.4292888 34.514854,5.0290494 34.167788,5.0029564 30.599185,4.9986853 Z M 41.672555,24.534448 c -1.392177,10e-4 -2.775162,0.09626 -3.603543,0.282806 -6.833335,1.538675 -11.893886,6.174869 -13.459909,12.332319 -1.881097,7.396287 1.856974,15.297502 8.885691,18.780386 2.859476,1.416918 5.07679,1.931252 8.270815,1.92128 2.228457,-0.0077 3.212812,-0.142369 5.433589,-0.753557 l 1.010815,-0.279163 1.935885,1.096574 1.934045,1.098393 0.04168,-2.14936 0.04408,-2.151171 0.987091,-0.784567 c 2.860804,-2.27641 4.827927,-5.347416 5.866025,-9.155729 0.256933,-0.942469 0.320234,-1.646793 0.326636,-3.649159 0.0084,-2.713264 -0.142808,-3.612707 -0.977982,-5.77479 C 56.32012,30.048965 51.460666,26.121436 45.332761,24.811763 44.46573,24.626458 43.064831,24.533427 41.672652,24.53443 Z" />
  </g>
</svg>
