<?xml version="1.0" encoding="UTF-8" standalone="no"?>
<svg
   width="64"
   height="64"
   version="1.1"
   id="svg73"
   sodipodi:docname="org.gabmus.giara.svg"
   inkscape:version="1.4.2 (ebf0e940d0, 2025-05-08)"
   xmlns:inkscape="http://www.inkscape.org/namespaces/inkscape"
   xmlns:sodipodi="http://sodipodi.sourceforge.net/DTD/sodipodi-0.dtd"
   xmlns="http://www.w3.org/2000/svg"
   xmlns:svg="http://www.w3.org/2000/svg"
   xmlns:rdf="http://www.w3.org/1999/02/22-rdf-syntax-ns#"
   xmlns:cc="http://creativecommons.org/ns#"
   xmlns:dc="http://purl.org/dc/elements/1.1/">
  <metadata
     id="metadata77">
    <rdf:RDF>
      <cc:Work
         rdf:about="">
        <dc:format>image/svg+xml</dc:format>
        <dc:type
           rdf:resource="http://purl.org/dc/dcmitype/StillImage" />
      </cc:Work>
    </rdf:RDF>
  </metadata>
  <sodipodi:namedview
     pagecolor="#f5f7fa"
     bordercolor="#666666"
     borderopacity="1"
     objecttolerance="10"
     gridtolerance="10"
     guidetolerance="10"
     inkscape:pageopacity="0"
     inkscape:pageshadow="2"
     inkscape:window-width="1377"
     inkscape:window-height="886"
     id="namedview75"
     showgrid="false"
     inkscape:zoom="6.2890624"
     inkscape:cx="46.986336"
     inkscape:cy="42.21615"
     inkscape:window-x="226"
     inkscape:window-y="75"
     inkscape:window-maximized="0"
     inkscape:current-layer="g877"
     inkscape:document-rotation="0"
     inkscape:pagecheckerboard="0"
     inkscape:showpageshadow="2"
     inkscape:deskcolor="#d1d1d1" />
  <defs
     id="defs29" />
  <circle
     cx="32.516094"
     cy="31.877844"
     r="0"
     fill="url(#b)"
     stroke-width="1.5715"
     id="circle41"
     style="fill:url(#b)" />
  <g
     aria-label="GZ"
     transform="matrix(1.2212657,0,0,0.81882264,0.4960938,-0.1661539)"
     id="text93"
     style="font-weight:bold;font-size:11.5263px;line-height:1.25;font-family:sans-serif;-inkscape-font-specification:'sans-serif Bold';fill:#f2f2f2;stroke-width:0.288159" />
  <g
     id="g877"
     transform="matrix(1.1,0,0,1.1,-3.1845928,-3.2065454)">
    <path
       d="m 26.562169,3.8177073 c -0.887925,0 -1.606728,0.7258435 -1.606728,1.6278715 v 6.5185282 c 0,3.702059 -3.027886,8.86755 -5.95242,13.760564 -3.091307,5.167846 -7.465181,10.511866 -8.068884,15.48004 -0.07285,0.606049 -0.09394,1.195654 -0.08928,1.778208 C 30.132661,43.668842 47.217102,32.142196 47.400309,32.01535 L 48.86846,31.009965 C 47.900668,29.241155 46.852997,27.47469 45.805333,25.724671 42.878457,20.831657 39.148216,15.666166 39.148216,11.964107 V 5.4455788 c 0,-0.902028 -0.721152,-1.6278715 -1.606736,-1.6278715 z m 24.100947,30.0110827 -1.16746,0.793971 c -9.675614,6.572551 -24.486187,11.78503 -38.270238,11.498448 1.952034,7.556807 9.724943,12.661223 10.121924,12.912566 0.260752,0.162063 2.085933,1.160418 10.45784,1.160418 8.369559,0 10.478987,-0.998325 10.73737,-1.160418 0.483917,-0.30302 11.752142,-7.622561 10.48603,-17.93947 -0.291364,-2.353712 -1.183905,-4.794345 -2.365466,-7.265515 z"
       fill="#ffffff"
       fill-rule="nonzero"
       id="path2-1"
       style="fill:#dfdfdf;fill-opacity:1;stroke:none;stroke-width:0.878917;stroke-dasharray:none;stroke-opacity:0.6" />
  </g>
</svg>
