<?xml version="1.0" encoding="UTF-8" standalone="no"?>
<svg
   width="64"
   height="64"
   version="1.1"
   id="svg73"
   sodipodi:docname="org.qbittorrent.qBittorrent.svg"
   inkscape:version="1.4.2 (ebf0e940d0, 2025-05-08)"
   xmlns:inkscape="http://www.inkscape.org/namespaces/inkscape"
   xmlns:sodipodi="http://sodipodi.sourceforge.net/DTD/sodipodi-0.dtd"
   xmlns="http://www.w3.org/2000/svg"
   xmlns:svg="http://www.w3.org/2000/svg"
   xmlns:rdf="http://www.w3.org/1999/02/22-rdf-syntax-ns#"
   xmlns:cc="http://creativecommons.org/ns#"
   xmlns:dc="http://purl.org/dc/elements/1.1/">
  <metadata
     id="metadata77">
    <rdf:RDF>
      <cc:Work
         rdf:about="">
        <dc:format>image/svg+xml</dc:format>
        <dc:type
           rdf:resource="http://purl.org/dc/dcmitype/StillImage" />
      </cc:Work>
    </rdf:RDF>
  </metadata>
  <sodipodi:namedview
     pagecolor="#f5f7fa"
     bordercolor="#666666"
     borderopacity="1"
     objecttolerance="10"
     gridtolerance="10"
     guidetolerance="10"
     inkscape:pageopacity="0"
     inkscape:pageshadow="2"
     inkscape:window-width="1377"
     inkscape:window-height="886"
     id="namedview75"
     showgrid="false"
     inkscape:zoom="6.2890624"
     inkscape:cx="46.986336"
     inkscape:cy="41.739131"
     inkscape:window-x="0"
     inkscape:window-y="49"
     inkscape:window-maximized="0"
     inkscape:current-layer="g877"
     inkscape:document-rotation="0"
     inkscape:pagecheckerboard="0"
     inkscape:showpageshadow="2"
     inkscape:deskcolor="#d1d1d1" />
  <defs
     id="defs29" />
  <circle
     cx="32.516094"
     cy="31.877844"
     r="0"
     fill="url(#b)"
     stroke-width="1.5715"
     id="circle41"
     style="fill:url(#b)" />
  <g
     aria-label="GZ"
     transform="matrix(1.2212657,0,0,0.81882264,0.4960938,-0.1661539)"
     id="text93"
     style="font-weight:bold;font-size:11.5263px;line-height:1.25;font-family:sans-serif;-inkscape-font-specification:'sans-serif Bold';fill:#f2f2f2;stroke-width:0.288159" />
  <g
     id="g877"
     transform="matrix(1.1,0,0,1.1,-3.1845928,-3.2065454)">
    <path
       id="path6-5"
       style="fill:#dfdfdf;fill-opacity:1;stroke-width:0.0774071"
       d="m 32.957546,4.6216478 c -1.519829,-0.022973 -3.50762,0.04588 -4.435088,0.1743397 -3.166785,0.4385219 -5.846378,1.2561675 -8.630709,2.6342353 -2.943134,1.456668 -5.196914,3.0955712 -7.513794,5.4657962 -4.4384514,4.540648 -7.1284918,10.384144 -7.6938794,16.709662 -0.1026069,1.147937 -0.103059,3.66145 0,4.801012 0.4893223,5.411085 2.5383831,10.503968 5.9313364,14.745973 1.394654,1.743635 3.681593,3.909792 5.442809,5.155428 4.005309,2.832808 8.644542,4.567517 13.393402,5.009837 1.048786,0.09766 3.906084,0.103246 4.954274,0.01001 4.231812,-0.378331 8.521335,-1.806444 12.015944,-4.002126 6.482423,-4.072936 10.971935,-10.502418 12.445068,-17.822749 0.436889,-2.170631 0.498124,-2.846428 0.498124,-5.49645 0,-2.649771 -0.06132,-3.325006 -0.498124,-5.49645 C 58.038356,22.390677 56.267427,18.569865 53.556297,15.053365 52.667534,13.900584 50.11114,11.344193 48.958363,10.455431 44.550254,7.0568858 39.651799,5.1296612 34.264129,4.6754428 33.918039,4.6462939 33.464161,4.6294833 32.957546,4.6218168 Z M 37.065039,12.373 c 0.396882,0.02474 0.797787,0.128548 1.185881,0.319945 0.651189,0.321125 1.021384,0.708482 1.369804,1.433021 l 0.241385,0.501938 0.02299,4.354628 0.02107,4.352714 0.365922,-0.181995 c 0.571201,-0.287727 1.38839,-0.562105 2.266404,-0.758658 0.68592,-0.153545 1.021649,-0.180082 2.239568,-0.180082 1.217943,0 1.551755,0.02654 2.237659,0.180082 1.010902,0.226306 1.70083,0.473901 2.638072,0.944489 4.413775,2.216164 6.767711,7.271936 5.638288,12.109819 -1.007616,4.316001 -4.512951,7.55505 -8.927696,8.247554 -0.79085,0.123995 -2.589844,0.102608 -3.406293,-0.04016 -0.848927,-0.148474 -1.843032,-0.443019 -2.505876,-0.743329 -0.271978,-0.123265 -0.507623,-0.224151 -0.523011,-0.224151 -0.01547,0 -0.02875,0.261145 -0.02875,0.580493 v 0.580501 h -2.981024 -2.980996 l 0.02107,-14.65018 0.01915,-14.648251 0.204996,-0.434893 c 0.550226,-1.173558 1.690729,-1.817855 2.881374,-1.743481 z m -12.954684,9.803182 h 2.980992 2.980998 l -0.02107,14.609939 -0.01915,14.609942 -0.2184,0.473176 c -0.277981,0.601494 -0.876928,1.195169 -1.484752,1.473257 -0.3675,0.168068 -0.602038,0.21767 -1.122662,0.235637 -1.156562,0.03946 -2.010964,-0.40109 -2.622737,-1.354488 -0.460683,-0.71794 -0.473205,-0.866348 -0.473205,-5.417907 0,-3.276986 -0.021,-4.124801 -0.0977,-4.092165 -2.11586,0.900149 -3.585378,1.176887 -5.569215,1.047988 C 13.846822,43.46287 9.9223086,40.177947 8.7781799,35.671117 8.1595113,33.234125 8.3927553,30.71464 9.4525448,28.379556 10.102021,26.948538 11.56043,25.187089 12.881834,24.235668 c 1.235072,-0.889256 2.70426,-1.536484 4.260758,-1.875576 1.027734,-0.223905 3.251032,-0.20673 4.335469,0.03452 0.664393,0.147764 1.610766,0.46126 2.496296,0.825714 0.121533,0.04995 0.136043,-7.08e-4 0.136043,-0.49428 z m -4.768442,5.954324 c -0.815102,-0.02085 -1.648719,0.167252 -2.423495,0.597735 -1.089154,0.605169 -2.053218,1.844838 -2.371765,3.046131 -0.17287,0.65188 -0.175474,1.742586 -0.0056,2.392843 0.501084,1.91986 2.144571,3.38502 4.08641,3.640031 0.960968,0.126205 2.04648,-0.08043 2.967586,-0.563251 0.695066,-0.364322 1.637921,-1.339992 1.992439,-2.063321 0.534147,-1.089813 0.658878,-2.229855 0.369749,-3.360325 -0.567624,-2.21942 -2.532137,-3.636578 -4.615177,-3.689843 z m 25.394007,0.0056 c -2.242166,-0.004 -4.228106,1.610584 -4.724371,3.841215 -0.60923,2.738374 1.338353,5.46692 4.159211,5.82788 1.628497,0.208386 3.349607,-0.499304 4.371875,-1.797024 0.723733,-0.918726 1.059384,-1.880295 1.057523,-3.034635 -0.0025,-1.357096 -0.449182,-2.402374 -1.454101,-3.408223 -0.969228,-0.9701 -2.056906,-1.426738 -3.410137,-1.42919 z" />
  </g>
</svg>
