<?xml version="1.0" encoding="UTF-8" standalone="no"?>
<svg
   width="64"
   height="64"
   version="1.1"
   id="svg73"
   sodipodi:docname="org.qgis.qgis.svg"
   inkscape:version="1.4.2 (ebf0e940d0, 2025-05-08)"
   xmlns:inkscape="http://www.inkscape.org/namespaces/inkscape"
   xmlns:sodipodi="http://sodipodi.sourceforge.net/DTD/sodipodi-0.dtd"
   xmlns="http://www.w3.org/2000/svg"
   xmlns:svg="http://www.w3.org/2000/svg"
   xmlns:rdf="http://www.w3.org/1999/02/22-rdf-syntax-ns#"
   xmlns:cc="http://creativecommons.org/ns#"
   xmlns:dc="http://purl.org/dc/elements/1.1/">
  <metadata
     id="metadata77">
    <rdf:RDF>
      <cc:Work
         rdf:about="">
        <dc:format>image/svg+xml</dc:format>
        <dc:type
           rdf:resource="http://purl.org/dc/dcmitype/StillImage" />
      </cc:Work>
    </rdf:RDF>
  </metadata>
  <sodipodi:namedview
     pagecolor="#f5f7fa"
     bordercolor="#666666"
     borderopacity="1"
     objecttolerance="10"
     gridtolerance="10"
     guidetolerance="10"
     inkscape:pageopacity="0"
     inkscape:pageshadow="2"
     inkscape:window-width="1377"
     inkscape:window-height="886"
     id="namedview75"
     showgrid="false"
     inkscape:zoom="6.2890624"
     inkscape:cx="43.170187"
     inkscape:cy="42.693168"
     inkscape:window-x="264"
     inkscape:window-y="75"
     inkscape:window-maximized="0"
     inkscape:current-layer="g877"
     inkscape:document-rotation="0"
     inkscape:pagecheckerboard="0"
     inkscape:showpageshadow="2"
     inkscape:deskcolor="#d1d1d1" />
  <defs
     id="defs29" />
  <circle
     cx="32.516094"
     cy="31.877844"
     r="0"
     fill="url(#b)"
     stroke-width="1.5715"
     id="circle41"
     style="fill:url(#b)" />
  <g
     aria-label="GZ"
     transform="matrix(1.2212657,0,0,0.81882264,0.4960938,-0.1661539)"
     id="text93"
     style="font-weight:bold;font-size:11.5263px;line-height:1.25;font-family:sans-serif;-inkscape-font-specification:'sans-serif Bold';fill:#f2f2f2;stroke-width:0.288159" />
  <g
     id="g877"
     transform="matrix(1.1,0,0,1.1,-3.1845928,-3.2065454)">
    <g
       id="g9"
       transform="matrix(0.9546652,0,0,0.9546652,0.48204003,-1010.0299)"
       style="fill:#dfdfdf;fill-opacity:1">
      <path
         style="fill:#dfdfdf;fill-opacity:1"
         d="m 32,1062.5197 a 28,28 0 0 0 -28,28 28,28 0 0 0 28,28 28,28 0 0 0 12.351562,-2.9062 l -6.472656,-6.4727 -0.667968,-0.668 -0.511719,-0.5117 -0.894531,-0.8945 A 17,17 0 0 1 32,1107.5197 a 17,17 0 0 1 -17,-17 17,17 0 0 1 17,-17 17,17 0 0 1 17,17 17,17 0 0 1 -0.449219,3.8086 l 0.839844,0.8398 0.5625,0.5625 0.667969,0.668 6.484375,6.4844 A 28,28 0 0 0 60,1090.5197 a 28,28 0 0 0 -28,-28 z"
         id="path3-0" />
      <path
         style="fill:#dfdfdf;fill-opacity:1"
         d="m 28,1086.5197 v 8.4727 l 1.386718,1.414 5.695314,5.6953 0.257812,0.2578 L 36,1103.0197 v -8.5 h 8.5 l -0.882812,-0.8828 -0.03516,-0.035 -7.082032,-7.082 z"
         id="path4" />
      <path
         style="fill:#dfdfdf;fill-opacity:1"
         d="m 38.818686,1097.1945 v 8.6436 l 14.681316,14.6816 h 8.5 v -8.5 l -14.731122,-14.7312 -0.09962,-0.092 z"
         id="path5-3" />
    </g>
  </g>
</svg>
