<?xml version="1.0" encoding="UTF-8" standalone="no"?>
<svg
   width="64"
   height="64"
   version="1.1"
   id="svg73"
   sodipodi:docname="org.libreoffice.LibreOffice.calc.svg"
   inkscape:version="1.4.2 (ebf0e940d0, 2025-05-08)"
   xmlns:inkscape="http://www.inkscape.org/namespaces/inkscape"
   xmlns:sodipodi="http://sodipodi.sourceforge.net/DTD/sodipodi-0.dtd"
   xmlns="http://www.w3.org/2000/svg"
   xmlns:svg="http://www.w3.org/2000/svg"
   xmlns:rdf="http://www.w3.org/1999/02/22-rdf-syntax-ns#"
   xmlns:cc="http://creativecommons.org/ns#"
   xmlns:dc="http://purl.org/dc/elements/1.1/">
  <metadata
     id="metadata77">
    <rdf:RDF>
      <cc:Work
         rdf:about="">
        <dc:format>image/svg+xml</dc:format>
        <dc:type
           rdf:resource="http://purl.org/dc/dcmitype/StillImage" />
      </cc:Work>
    </rdf:RDF>
  </metadata>
  <sodipodi:namedview
     pagecolor="#f5f7fa"
     bordercolor="#666666"
     borderopacity="1"
     objecttolerance="10"
     gridtolerance="10"
     guidetolerance="10"
     inkscape:pageopacity="0"
     inkscape:pageshadow="2"
     inkscape:window-width="1377"
     inkscape:window-height="886"
     id="namedview75"
     showgrid="false"
     inkscape:zoom="6.2890624"
     inkscape:cx="47.622361"
     inkscape:cy="45.396274"
     inkscape:window-x="0"
     inkscape:window-y="57"
     inkscape:window-maximized="0"
     inkscape:current-layer="g877"
     inkscape:document-rotation="0"
     inkscape:pagecheckerboard="0"
     inkscape:showpageshadow="2"
     inkscape:deskcolor="#d1d1d1" />
  <defs
     id="defs29" />
  <circle
     cx="32.516094"
     cy="31.877844"
     r="0"
     fill="url(#b)"
     stroke-width="1.5715"
     id="circle41"
     style="fill:url(#b)" />
  <g
     aria-label="GZ"
     transform="matrix(1.2212657,0,0,0.81882264,0.4960938,-0.1661539)"
     id="text93"
     style="font-weight:bold;font-size:11.5263px;line-height:1.25;font-family:sans-serif;-inkscape-font-specification:'sans-serif Bold';fill:#f2f2f2;stroke-width:0.288159" />
  <g
     id="g877"
     transform="matrix(1.1,0,0,1.1,-3.1845928,-3.2065454)">
    <path
       style="fill:#dfdfdf;fill-opacity:1;stroke:none;stroke-width:0.878917;stroke-dasharray:none;stroke-opacity:0.6"
       d="M 3.6908986,32.00595 V 11.912617 H 31.985992 60.281088 V 32.00595 52.099283 H 31.985992 3.6908986 Z M 29.681835,44.097527 V 40.00772 H 19.036605 8.3913878 v 4.089807 4.089789 h 10.6452172 10.64523 z m 25.990939,-3.68e-4 v -4.090165 l -10.668271,0.02204 -10.668265,0.02203 -0.02398,4.067565 -0.02397,4.067568 h 10.692207 10.692227 v -4.09001 z M 29.681835,32.00595 V 27.916159 H 19.036605 8.3913878 v 4.089792 4.089796 h 10.6452172 10.64523 z m 25.990939,-3.54e-4 v -4.090164 l -10.668271,0.02272 -10.668265,0.0226 -0.02398,4.067569 -0.02397,4.067564 H 44.980562 55.672787 V 32.005589 Z M 29.681835,19.914388 V 15.824595 H 19.036605 8.3913878 v 4.089793 4.089798 h 10.6452172 10.64523 z m 25.990939,-3.7e-4 v -4.090163 l -10.668271,0.02261 -10.668265,0.02261 -0.02398,4.067565 -0.02397,4.06757 h 10.692273 10.692225 v -4.090048 z"
       id="path2224" />
  </g>
</svg>
