<?xml version="1.0" encoding="UTF-8" standalone="no"?>
<svg
   width="64"
   height="64"
   version="1.1"
   id="svg73"
   sodipodi:docname="org.turbowarp.TurboWarp.svg"
   inkscape:version="1.4.2 (ebf0e940d0, 2025-05-08)"
   xmlns:inkscape="http://www.inkscape.org/namespaces/inkscape"
   xmlns:sodipodi="http://sodipodi.sourceforge.net/DTD/sodipodi-0.dtd"
   xmlns="http://www.w3.org/2000/svg"
   xmlns:svg="http://www.w3.org/2000/svg"
   xmlns:rdf="http://www.w3.org/1999/02/22-rdf-syntax-ns#"
   xmlns:cc="http://creativecommons.org/ns#"
   xmlns:dc="http://purl.org/dc/elements/1.1/">
  <metadata
     id="metadata77">
    <rdf:RDF>
      <cc:Work
         rdf:about="">
        <dc:format>image/svg+xml</dc:format>
        <dc:type
           rdf:resource="http://purl.org/dc/dcmitype/StillImage" />
      </cc:Work>
    </rdf:RDF>
  </metadata>
  <sodipodi:namedview
     pagecolor="#f5f7fa"
     bordercolor="#666666"
     borderopacity="1"
     objecttolerance="10"
     gridtolerance="10"
     guidetolerance="10"
     inkscape:pageopacity="0"
     inkscape:pageshadow="2"
     inkscape:window-width="1377"
     inkscape:window-height="886"
     id="namedview75"
     showgrid="false"
     inkscape:zoom="6.2890624"
     inkscape:cx="26.633541"
     inkscape:cy="38.877019"
     inkscape:window-x="0"
     inkscape:window-y="75"
     inkscape:window-maximized="0"
     inkscape:current-layer="g877"
     inkscape:document-rotation="0"
     inkscape:pagecheckerboard="0"
     inkscape:showpageshadow="2"
     inkscape:deskcolor="#d1d1d1" />
  <defs
     id="defs29" />
  <circle
     cx="32.516094"
     cy="31.877844"
     r="0"
     fill="url(#b)"
     stroke-width="1.5715"
     id="circle41"
     style="fill:url(#b)" />
  <g
     aria-label="GZ"
     transform="matrix(1.2212657,0,0,0.81882264,0.4960938,-0.1661539)"
     id="text93"
     style="font-weight:bold;font-size:11.5263px;line-height:1.25;font-family:sans-serif;-inkscape-font-specification:'sans-serif Bold';fill:#f2f2f2;stroke-width:0.288159" />
  <g
     id="g877"
     transform="matrix(1.1,0,0,1.1,-3.1845928,-3.2065454)">
    <path
       style="fill:#dfdfdf;fill-opacity:1;stroke:none;stroke-width:0.940228;stroke-dasharray:none;stroke-opacity:0.6"
       d="m 46.01936,3.3545682 c -5.6e-5,0 -1.86169,0.2374716 -3.219083,0.4947846 -3.191981,0.4187619 -6.255009,0.7970733 -9.17129,0.9218492 H 25.249954 19.297746 C 18.934121,4.717257 18.669438,4.6533553 17.739745,4.6533553 c -0.527211,1.491e-4 -1.054342,0.039531 -1.57567,0.1178467 -1.49965,0.2245224 -3.400564,0.4235549 -6.093574,2.2412803 -2.6928716,1.817843 -5.2276943,6.5357157 -5.2276943,9.8280627 0.1169549,2.267361 0.6660757,4.254906 1.0838173,5.722475 0.181235,1.25288 0.3635421,2.50525 0.5448654,3.737434 0.021574,0.146749 0.045907,0.293111 0.073616,0.438823 0.3503967,1.840127 0.6830184,3.455908 1.6846494,5.59584 0.5008069,1.069975 1.1465696,2.346011 2.6918872,3.855244 1.441234,1.407575 4.23346,2.917413 7.336446,3.130729 -1.003187,0.840962 -1.928763,1.747045 -2.479842,2.5682 -0.02983,0.04493 -0.05907,0.09 -0.08831,0.135546 -1.999408,3.080832 -2.08264,9.951661 0.217944,13.223853 1.272222,1.809504 4.402335,4.150672 6.879939,4.841866 2.477589,0.691157 4.131735,0.591819 5.748987,0.50648 l 0.01186,-0.003 c 1.973338,-0.105908 3.664738,-0.265553 5.298381,-0.450501 0.723437,-0.0222 1.247622,2.22e-4 1.431355,0.01738 0.03046,0.0032 0.06077,0.0069 0.09128,0.0084 0.837825,0.07251 1.636467,0.155608 2.948127,0.07659 1.311654,-0.07897 3.072323,-0.534406 3.787498,-0.795204 0.120007,-0.04377 0.237986,-0.09014 0.356407,-0.138415 3.640509,-1.479416 7.863636,-7.188997 7.863636,-11.553928 0,-2.609734 -1.048647,-6.965288 -4.535588,-9.754438 -0.506954,-0.405509 -1.024976,-0.644804 -1.540322,-0.94246 -0.0012,-0.339395 -0.0046,-0.629546 -0.006,-0.951294 0.618305,0.09447 1.427052,0.447681 1.917313,0.447681 1.966081,0 4.703754,-0.171466 7.766431,-2.388537 3.062681,-2.217079 4.88311,-6.743231 4.88311,-9.657242 0,-1.471608 -0.07905,-2.065951 -0.265135,-3.307438 0.112433,-0.893022 0.233974,-1.754437 0.394644,-2.420936 l -0.02221,0.09718 C 59.813361,15.307757 57.789628,8.6145988 54.244947,5.9875953 51.862045,4.2565762 48.708233,3.3733912 46.01905,3.3546081 Z m 0.01265,6.0317279 c 1.549452,0.00374 3.246976,0.4928242 4.565029,1.4519749 1.875389,1.349947 2.871835,4.593269 2.370867,6.591309 l 0.01264,-0.04128 c -0.261778,1.087637 -0.469319,2.312809 -0.61263,3.663804 0.0046,-0.0031 0.0077,0.157412 0.05871,0.432946 0.0077,0.04006 0.0145,0.08045 0.0205,0.12077 0.191973,1.215601 0.235768,2.007749 0.235768,2.918673 0,1.533591 -0.872987,3.687733 -2.379711,4.780024 -1.506712,1.092282 -2.975236,1.23403 -4.208661,1.23403 -1.726867,0 -4.40882,-0.759097 -5.701867,-3.039425 -0.348705,-0.615903 -0.546688,-1.304926 -0.580205,-2.011557 -0.03889,-0.811475 0.0092,-1.947545 0.04128,-3.018811 -0.560633,0.03352 -1.097976,0.06909 -1.646354,0.106095 -0.0068,0.09551 -0.01629,0.190784 -0.02955,0.285697 -0.105655,0.777406 -0.192366,2.364388 -0.197328,4.500233 0.101926,1.046628 0.104698,2.11695 0.132528,4.064347 0.03104,2.173889 0.04701,5.143608 0.04701,8.929782 v 1.116255 c 1.217365,0.02998 2.536836,0.25165 3.781607,1.248755 1.711554,1.371015 2.267802,3.530328 2.267802,5.053918 0,2.352521 -2.045646,5.135805 -4.087924,5.966946 -0.0507,0.02049 -0.10164,0.04074 -0.153177,0.05871 -0.455954,0.166562 -1.333203,0.394226 -2.073404,0.438875 -0.740203,0.04434 -1.316735,-0.0041 -2.055736,-0.0674 -0.01278,-0.0011 -0.02552,-0.0016 -0.03828,-0.0032 -0.541858,-0.05093 -1.310473,-0.07179 -2.256008,-0.03835 -1.568461,0.189769 -3.309237,0.342985 -5.366119,0.453616 h -0.003 c -1.314685,0.06966 -2.439144,0.08977 -3.793392,-0.288626 -1.354488,-0.378343 -2.863398,-1.52196 -3.546234,-2.494583 -1.169072,-1.665213 -1.134425,-4.88019 -0.09426,-6.485274 0.01265,-0.01915 0.02541,-0.03776 0.03824,-0.05632 0.685468,-1.022848 2.063927,-2.188227 3.454694,-2.688949 0.543211,-0.195547 1.084906,-0.141506 1.611015,-0.229836 0.0077,-0.178125 0.0048,-0.397522 0.01465,-0.568383 -6e-6,-0.004 -6e-6,-0.0084 0,-0.01264 0.106502,-1.822712 0.115712,-4.64655 -0.003,-8.326208 -0.0011,-0.004 -0.0016,-0.0077 -0.0031,-0.01186 -0.114478,-3.859253 0.02666,-7.128451 0.132527,-10.478941 -0.493269,-0.0083 -0.819112,0.006 -1.375395,-0.0086 0.117297,1.03072 0.369563,2.564644 0.409383,3.339835 0.0095,0.195359 0.004,0.391133 -0.01186,0.586082 l -0.118689,1.517849 c -0.108614,1.547194 -1.346416,3.497626 -2.68306,4.258728 -1.336645,0.761115 -2.418248,0.809925 -3.351614,0.809925 -1.555034,0 -2.960508,-0.806641 -3.722706,-1.552105 -0.762196,-0.745474 -1.136646,-1.438282 -1.443139,-2.094028 -0.612984,-1.311486 -0.922421,-2.596449 -1.222246,-4.173317 -0.01224,-0.06255 -0.02291,-0.125433 -0.03242,-0.188517 -0.24285,-1.652682 -0.48472,-3.325274 -0.727455,-5.015643 -0.0077,0.0086 -0.02415,0.01465 -0.02369,0.02641 -0.01629,-0.0772 -0.03752,-0.160133 -0.07658,-0.250331 -0.04284,-0.09871 -0.08199,-0.198946 -0.117757,-0.30042 -0.322988,-0.920826 -0.615255,-1.664168 -0.615255,-3.048164 0,-1.684797 1.196508,-3.90874 2.568202,-4.835978 1.371747,-0.927241 2.510264,-1.107458 3.590168,-1.269376 0.223686,-0.03352 0.451192,-0.0502 0.677384,-0.04996 0.58688,0 0.837779,0.0466 1.21048,0.0972 0.102047,0.0142 0.18112,0.01861 0.220885,0.02067 h 6.069992 8.55575 c 3.38047,-0.141212 6.752984,-0.56641 10.131422,-1.013181 1.04162,-0.2144967 1.311188,-0.3269937 2.1323,-0.4123207 z m 0,4.5237949 c -0.101827,0.0012 -0.206397,0.0083 -0.312115,0.01771 -0.483227,0.114962 -0.842222,0.226698 -1.083838,0.341643 -3.463508,0.459788 -7.048638,0.918791 -10.753299,1.072048 h -8.700307 -6.282067 c -0.120806,0 -0.318934,-0.02351 -0.600815,-0.06175 -0.281875,-0.03825 -0.482965,-0.05606 -0.603764,-0.05606 -1.530168,0.229901 -2.297221,0.673761 -2.297221,1.631641 0,0.344835 0.117684,0.862428 0.359309,1.552107 0.281882,0.651358 0.42705,1.110139 0.42705,1.378342 0.241616,1.685874 0.48291,3.353359 0.72451,5.000917 0.523487,2.758703 1.16695,4.140921 1.932043,4.140921 0.966435,0 1.470605,-0.288209 1.510874,-0.86294 l 0.120601,-1.552143 c -0.08051,-1.570928 -0.405208,-4.194193 -0.968961,-7.872459 2.295282,-0.153255 3.526295,-0.232672 3.687363,-0.232672 3.422789,0.114962 5.908472,0.132553 7.156788,0.05605 l 0.18259,0.176696 c -0.281879,4.329619 -0.343664,9.214431 -0.18259,14.655204 0.120795,3.754895 0.120795,6.663427 0,8.732464 -0.04022,0.727988 -0.06183,1.57202 -0.06183,2.529899 0.04021,0.306548 0.06183,0.629973 0.06183,0.974859 0,0.651331 -0.775024,0.980742 -2.023343,0.980742 -2.375807,0 -3.241412,0.423476 -3.805165,1.266431 -0.322136,0.498204 -0.322136,0.974513 0,1.434303 0.483221,0.689707 1.206588,0.977884 3.381066,0.862935 2.134203,-0.114829 3.949823,-0.267833 5.439742,-0.459551 1.087236,-0.03835 2.030848,-0.02049 2.836207,0.0557 1.328847,0.114841 1.652998,0.07676 2.176488,-0.114841 0.845626,-0.344779 1.266427,-0.935959 1.266427,-1.778894 0,-1.417674 -0.764106,-2.035255 -2.294295,-1.843682 H 33.88538 c -0.201348,-0.268062 -0.303342,-0.726935 -0.303342,-1.378289 v -4.196729 c 0,-7.548122 -0.06179,-11.821219 -0.182606,-12.81742 0,-2.337231 0.08045,-4.09588 0.241499,-5.283655 l -0.241517,-2.070443 c -0.08049,-0.727984 -0.08049,-1.339688 0,-1.837788 3.301981,-0.306526 7.12573,-0.538861 10.870664,-0.692114 0.08051,0.07664 0.142252,0.117866 0.18261,0.117866 0,0.574729 -0.04375,1.724616 -0.123704,3.448801 -0.08054,1.45598 -0.09934,3.209632 -0.05871,4.052569 0.281795,0.498106 0.866469,0.742186 1.752373,0.742186 1.369129,0 2.052785,-0.494055 2.052785,-1.490259 0,-0.306531 -0.06264,-1.448466 -0.182666,-2.214773 -0.120831,-0.651361 -0.160971,-1.189547 -0.120674,-1.611016 0.160986,-1.570924 0.402322,-3.026665 0.724516,-4.367701 0.201185,-0.804621 2.62e-4,-1.416323 -0.603732,-1.837789 -0.528589,-0.402294 -1.147796,-0.597688 -1.861352,-0.589052 z"
       id="path4" />
  </g>
</svg>
