<?xml version="1.0" encoding="UTF-8" standalone="no"?>
<svg
   width="64"
   height="64"
   version="1.1"
   id="svg73"
   sodipodi:docname="org.sqlitebrowser.sqlitebrowser.svg"
   inkscape:version="1.4.3 (0d15f75042, 2025-12-25)"
   xmlns:inkscape="http://www.inkscape.org/namespaces/inkscape"
   xmlns:sodipodi="http://sodipodi.sourceforge.net/DTD/sodipodi-0.dtd"
   xmlns="http://www.w3.org/2000/svg"
   xmlns:svg="http://www.w3.org/2000/svg"
   xmlns:rdf="http://www.w3.org/1999/02/22-rdf-syntax-ns#"
   xmlns:cc="http://creativecommons.org/ns#"
   xmlns:dc="http://purl.org/dc/elements/1.1/">
  <metadata
     id="metadata77">
    <rdf:RDF>
      <cc:Work
         rdf:about="">
        <dc:format>image/svg+xml</dc:format>
        <dc:type
           rdf:resource="http://purl.org/dc/dcmitype/StillImage" />
      </cc:Work>
    </rdf:RDF>
  </metadata>
  <sodipodi:namedview
     pagecolor="#f5f7fa"
     bordercolor="#666666"
     borderopacity="1"
     objecttolerance="10"
     gridtolerance="10"
     guidetolerance="10"
     inkscape:pageopacity="0"
     inkscape:pageshadow="2"
     inkscape:window-width="1377"
     inkscape:window-height="886"
     id="namedview75"
     showgrid="false"
     inkscape:zoom="6.2890624"
     inkscape:cx="47.622361"
     inkscape:cy="45.237268"
     inkscape:window-x="264"
     inkscape:window-y="84"
     inkscape:window-maximized="0"
     inkscape:current-layer="g877"
     inkscape:document-rotation="0"
     inkscape:pagecheckerboard="0"
     inkscape:showpageshadow="2"
     inkscape:deskcolor="#d1d1d1" />
  <defs
     id="defs29" />
  <circle
     cx="32.516094"
     cy="31.877844"
     r="0"
     fill="url(#b)"
     stroke-width="1.5715"
     id="circle41"
     style="fill:url(#b)" />
  <g
     aria-label="GZ"
     transform="matrix(1.2212657,0,0,0.81882264,0.4960938,-0.1661539)"
     id="text93"
     style="font-weight:bold;font-size:11.5263px;line-height:1.25;font-family:sans-serif;-inkscape-font-specification:'sans-serif Bold';fill:#f2f2f2;stroke-width:0.288159" />
  <g
     id="g877"
     transform="matrix(1.1,0,0,1.1,-3.1845928,-3.2065454)">
    <path
       style="fill:#dfdfdf;fill-opacity:1;stroke:none;stroke-width:2.35564;stroke-dasharray:none;stroke-opacity:0.3"
       d="m 31.99055,4.5493432 c -11.737155,0 -21.251418,3.8378709 -21.251418,8.5758988 v 7.040044 c 0,4.738627 9.514263,8.575898 21.251418,8.575898 11.736606,0 21.251427,-3.837871 21.251427,-8.575898 v -7.040044 c 0,-4.7380279 -9.514821,-8.5758988 -21.251427,-8.5758988 z M 10.739132,23.22841 c -0.03848,0.21202 0,12.282551 0,12.282551 0,4.739235 9.514263,8.575912 21.251418,8.575912 11.736606,0 21.251427,-3.83787 21.251427,-8.575912 0,0 0.02513,-12.071172 -0.01391,-12.282551 -0.808958,4.441376 -10.032865,7.940968 -21.238324,7.940968 -11.205979,0 -20.443537,-3.50019 -21.251404,-7.940968 z m -0.0042,15.375708 0.0042,12.282547 c 0,4.738618 9.514263,8.575893 21.251418,8.575893 11.736606,0 21.251427,-3.838473 21.251427,-8.575893 l -0.01803,-12.282547 c -0.807337,4.438371 -10.027933,7.940974 -21.23394,7.940974 -11.205988,0 -20.447915,-3.503195 -21.255782,-7.940974 z"
       id="path10" />
  </g>
</svg>
