<?xml version="1.0" encoding="UTF-8" standalone="no"?>
<svg
   width="64"
   height="64"
   version="1.1"
   id="svg73"
   sodipodi:docname="org.gnome.Decibels.svg"
   inkscape:version="1.4.2 (ebf0e940d0, 2025-05-08)"
   xmlns:inkscape="http://www.inkscape.org/namespaces/inkscape"
   xmlns:sodipodi="http://sodipodi.sourceforge.net/DTD/sodipodi-0.dtd"
   xmlns="http://www.w3.org/2000/svg"
   xmlns:svg="http://www.w3.org/2000/svg"
   xmlns:rdf="http://www.w3.org/1999/02/22-rdf-syntax-ns#"
   xmlns:cc="http://creativecommons.org/ns#"
   xmlns:dc="http://purl.org/dc/elements/1.1/">
  <metadata
     id="metadata77">
    <rdf:RDF>
      <cc:Work
         rdf:about="">
        <dc:format>image/svg+xml</dc:format>
        <dc:type
           rdf:resource="http://purl.org/dc/dcmitype/StillImage" />
      </cc:Work>
    </rdf:RDF>
  </metadata>
  <sodipodi:namedview
     pagecolor="#f5f7fa"
     bordercolor="#666666"
     borderopacity="1"
     objecttolerance="10"
     gridtolerance="10"
     guidetolerance="10"
     inkscape:pageopacity="0"
     inkscape:pageshadow="2"
     inkscape:window-width="1377"
     inkscape:window-height="886"
     id="namedview75"
     showgrid="false"
     inkscape:zoom="6.2890624"
     inkscape:cx="47.622361"
     inkscape:cy="45.396274"
     inkscape:window-x="0"
     inkscape:window-y="75"
     inkscape:window-maximized="0"
     inkscape:current-layer="g877"
     inkscape:document-rotation="0"
     inkscape:pagecheckerboard="0"
     inkscape:showpageshadow="2"
     inkscape:deskcolor="#d1d1d1" />
  <defs
     id="defs29" />
  <circle
     cx="32.516094"
     cy="31.877844"
     r="0"
     fill="url(#b)"
     stroke-width="1.5715"
     id="circle41"
     style="fill:url(#b)" />
  <g
     aria-label="GZ"
     transform="matrix(1.2212657,0,0,0.81882264,0.4960938,-0.1661539)"
     id="text93"
     style="font-weight:bold;font-size:11.5263px;line-height:1.25;font-family:sans-serif;-inkscape-font-specification:'sans-serif Bold';fill:#f2f2f2;stroke-width:0.288159" />
  <g
     id="g877"
     transform="matrix(1.1,0,0,1.1,-3.1845928,-3.2065454)">
    <path
       style="fill:#dfdfdf;fill-opacity:1;stroke-width:0.272072"
       d="M 13.994087,60.17808 C 12.020546,59.987225 10.212784,59.060097 8.7118681,57.469046 7.7231567,56.42096 7.0392938,55.205336 6.6288037,53.766236 L 6.4296546,53.06806 6.4025264,32.572044 c -0.0189,-14.284556 0.00242,-20.757112 0.071075,-21.357568 0.4032083,-3.5379882 3.0010448,-6.4193734 6.6002736,-7.3206854 0.43469,-0.108889 0.977393,-0.1516129 1.880675,-0.1481508 1.347795,0.00493 2.059087,0.1388552 3.208229,0.6030148 0.293864,0.1186986 8.099217,4.5846296 17.345236,9.9242994 9.246016,5.339673 16.953778,9.780296 17.128359,9.868056 1.149092,0.577633 2.788619,1.984481 3.462326,2.970952 0.506881,0.742198 1.037049,1.889959 1.265354,2.739372 0.298046,1.108874 0.279627,2.948238 -0.04168,4.160125 -0.528935,1.995114 -1.753163,3.809485 -3.280323,4.861601 -0.652014,0.449197 -35.010546,20.300625 -35.545356,20.537147 -0.89356,0.395174 -1.88683,0.668772 -2.795938,0.770143 -0.481315,0.05365 -0.886927,0.09208 -0.901361,0.08533 -0.01436,-0.0068 -0.376831,-0.04618 -0.805326,-0.08761 z M 26.59875,46.163342 c 0.581852,-0.289947 0.95971,-0.779585 1.098015,-1.422818 0.07205,-0.335184 0.09294,-3.918735 0.07304,-12.53124 L 27.741945,20.147474 27.5462,19.784711 c -0.861069,-1.59569 -3.090025,-1.607263 -3.880912,-0.02016 l -0.231162,0.463876 8.9e-4,12.248057 8.87e-4,12.24806 0.212879,0.457154 c 0.222838,0.478544 0.640008,0.893557 1.100354,1.094659 0.476134,0.208 1.307372,0.157201 1.849651,-0.113014 z m 6.522165,-7.53203 c 0.552153,-0.34137 0.900727,-0.855378 1.019246,-1.502975 0.06119,-0.334279 0.08572,-2.113976 0.06817,-4.942624 -0.03043,-4.900129 -0.01754,-4.791084 -0.64419,-5.451593 -0.414244,-0.436614 -0.913989,-0.642448 -1.559814,-0.642448 -0.677684,0 -1.161524,0.210479 -1.598808,0.695513 -0.585448,0.649369 -0.577761,0.57237 -0.577761,5.787318 v 4.718355 l 0.227135,0.441327 c 0.590622,1.147595 1.995847,1.558771 3.066031,0.897127 z M 19.910004,36.683895 c 0.505772,-0.151533 1.018322,-0.630094 1.248899,-1.166087 0.192606,-0.447724 0.198272,-0.551907 0.171577,-3.155431 -0.03025,-2.948979 -0.03112,-2.95404 -0.608065,-3.530988 -0.427831,-0.427832 -0.886054,-0.60711 -1.550772,-0.606715 -0.865634,5.11e-4 -1.515117,0.394208 -1.93547,1.17321 -0.185018,0.342867 -0.197293,0.502032 -0.223848,2.902092 -0.01968,1.781228 0.0046,2.655695 0.08103,2.929102 0.331632,1.184675 1.574933,1.826846 2.816653,1.454817 z m -6.518176,-2.105809 c 0.589603,-0.177444 0.938417,-0.455413 1.247304,-0.993981 0.222417,-0.387805 0.268169,-0.568841 0.267224,-1.057405 -0.0023,-1.289376 -0.87004,-2.176566 -2.128381,-2.176566 -1.227081,0 -2.160119,0.920891 -2.163637,2.135479 -0.003,0.984119 0.577325,1.796945 1.483461,2.078303 0.528984,0.164258 0.78599,0.167075 1.294029,0.0142 z m 25.99424,-0.143804 c 1.063455,-0.548316 1.480123,-1.776273 0.972577,-2.86625 -0.850678,-1.826882 -3.578155,-1.537865 -4.050041,0.42916 -0.281591,1.173801 0.412931,2.320242 1.590589,2.625586 0.38622,0.100144 1.103414,0.0092 1.486875,-0.188496 z m 6.439014,3.55e-4 c 1.204985,-0.619961 1.537478,-2.210184 0.693486,-3.316718 -0.483987,-0.634539 -1.541833,-0.925613 -2.414133,-0.664267 -1.393679,0.417557 -1.911888,2.351463 -0.923311,3.445694 0.703552,0.77875 1.756441,0.991914 2.643958,0.535291 z"
       id="path20" />
  </g>
</svg>
