<?xml version="1.0" encoding="UTF-8" standalone="no"?>
<svg
   width="64"
   height="64"
   version="1.1"
   id="svg73"
   sodipodi:docname="org.pulseaudio.pavucontrol.svg"
   inkscape:version="1.4.2 (ebf0e940d0, 2025-05-08)"
   xmlns:inkscape="http://www.inkscape.org/namespaces/inkscape"
   xmlns:sodipodi="http://sodipodi.sourceforge.net/DTD/sodipodi-0.dtd"
   xmlns="http://www.w3.org/2000/svg"
   xmlns:svg="http://www.w3.org/2000/svg"
   xmlns:rdf="http://www.w3.org/1999/02/22-rdf-syntax-ns#"
   xmlns:cc="http://creativecommons.org/ns#"
   xmlns:dc="http://purl.org/dc/elements/1.1/">
  <metadata
     id="metadata77">
    <rdf:RDF>
      <cc:Work
         rdf:about="">
        <dc:format>image/svg+xml</dc:format>
        <dc:type
           rdf:resource="http://purl.org/dc/dcmitype/StillImage" />
      </cc:Work>
    </rdf:RDF>
  </metadata>
  <sodipodi:namedview
     pagecolor="#f5f7fa"
     bordercolor="#666666"
     borderopacity="1"
     objecttolerance="10"
     gridtolerance="10"
     guidetolerance="10"
     inkscape:pageopacity="0"
     inkscape:pageshadow="2"
     inkscape:window-width="1377"
     inkscape:window-height="886"
     id="namedview75"
     showgrid="false"
     inkscape:zoom="6.2890624"
     inkscape:cx="47.622361"
     inkscape:cy="45.396274"
     inkscape:window-x="16"
     inkscape:window-y="55"
     inkscape:window-maximized="0"
     inkscape:current-layer="g877"
     inkscape:document-rotation="0"
     inkscape:pagecheckerboard="0"
     inkscape:showpageshadow="2"
     inkscape:deskcolor="#d1d1d1" />
  <defs
     id="defs29" />
  <circle
     cx="32.516094"
     cy="31.877844"
     r="0"
     fill="url(#b)"
     stroke-width="1.5715"
     id="circle41"
     style="fill:url(#b)" />
  <g
     aria-label="GZ"
     transform="matrix(1.2212657,0,0,0.81882264,0.4960938,-0.1661539)"
     id="text93"
     style="font-weight:bold;font-size:11.5263px;line-height:1.25;font-family:sans-serif;-inkscape-font-specification:'sans-serif Bold';fill:#f2f2f2;stroke-width:0.288159" />
  <g
     id="g877"
     transform="matrix(1.1,0,0,1.1,-3.1845928,-3.2065454)">
    <path
       d="M 37.739885,9.1286593 17.606403,14.57469 c -1.511867,0.425616 -2.731349,2.113276 -2.731349,3.752824 v 25.990319 c -1.534066,-0.841967 -3.501152,-1.180628 -5.5441067,-0.625462 -3.6843521,1.00297 -5.9937809,4.243195 -5.2036194,7.235459 0.7883179,2.992281 4.4208539,4.666989 8.1052091,3.664005 2.9386,-0.799406 4.963046,-3.066288 5.285037,-5.451581 l 0.08887,-24.559887 18.049819,-5.066678 V 38.14456 c -1.337916,-0.475577 -2.886781,-0.605113 -4.489326,-0.168421 -3.684353,1.001119 -5.990081,4.241352 -5.199912,7.235465 0.790165,2.992262 4.417148,4.665127 8.101502,3.662158 2.616613,-0.710607 4.500426,-2.58331 5.112946,-4.668836 0.658771,-1.217634 0.958563,-2.588858 0.958563,-3.136596 0,-0.172143 0.02176,-0.58107 0.02383,-0.76241 v -0.680996 c 0.09065,-0.671732 0.419967,-1.21392 1.300878,-1.21392 0.893796,0 1.239842,0.545881 1.371216,1.21392 h 0.03157 v 3.034826 c 0,1.006683 0.605065,1.819055 1.352731,1.819055 0.745758,0 1.352717,-0.812372 1.352717,-1.819055 v -6.676606 c 0,-0.534789 0.499689,-2.426014 0.901203,-2.426014 0.399619,0 0.901191,1.891214 0.901191,2.426014 v 0.608818 c 0,1.006672 0.608882,1.819042 1.35643,1.819042 0.745747,0 1.350858,-0.81237 1.350858,-1.819042 v -5.462688 c 0,-0.536645 0.501557,-1.213929 0.903049,-1.213929 0.399617,0 0.901193,0.677284 0.901193,1.213929 v 0.608818 c 0,1.004825 0.605065,1.819044 1.350858,1.819044 0.747606,0 1.352721,-0.814219 1.352721,-1.819044 v -1.822729 h 4.056315 c 0.747603,0 1.352719,-0.812377 1.352719,-1.817197 0,-1.006672 -0.60513,-1.822749 -1.352719,-1.822749 h -4.056417 v -1.819043 c 0,-1.004825 -0.605124,-1.820901 -1.352718,-1.820901 -0.745754,0 -1.350872,0.816076 -1.350872,1.820901 v 0.605108 c 0,0.536654 -0.501555,1.213932 -0.901184,1.213932 -0.401585,0 -0.903047,-0.677285 -0.903047,-1.213932 v -5.458973 c 0,-1.004825 -0.605063,-1.82275 -1.350878,-1.82275 -0.747592,0 -1.356407,0.817925 -1.356407,1.82275 v 0.605115 c 0,0.536644 -0.501556,2.427857 -0.901207,2.427857 -0.401431,0 -0.901198,-1.891216 -0.901198,-2.427857 v -6.672921 c 0,-1.004821 -0.606944,-1.822747 -1.352711,-1.822747 -0.747612,0 -1.352726,0.817926 -1.352726,1.822747 v 3.032978 c -0.09259,0.669881 -0.434874,1.212078 -1.402681,1.212078 -0.880841,0 -1.167668,-0.542202 -1.260189,-1.212078 L 39.936439,15.3334 C 39.934866,15.153895 39.718099,12.578 39.662595,12.413308 39.518279,11.991389 39.47939,11.54172 39.396129,11.119809 39.273996,10.06502 38.626309,9.2841025 37.739909,9.1286604 Z"
       fill="url(#d)"
       fill-rule="nonzero"
       id="path11"
       style="fill:#dfdfdf;fill-opacity:1;stroke:none;stroke-width:0.902447;stroke-dasharray:none;stroke-opacity:0.6" />
  </g>
</svg>
