<?xml version="1.0" encoding="UTF-8" standalone="no"?>
<svg
   width="64"
   height="64"
   version="1.1"
   id="svg73"
   sodipodi:docname="org.denemo.Denemo.svg"
   inkscape:version="1.4.2 (ebf0e940d0, 2025-05-08)"
   xmlns:inkscape="http://www.inkscape.org/namespaces/inkscape"
   xmlns:sodipodi="http://sodipodi.sourceforge.net/DTD/sodipodi-0.dtd"
   xmlns="http://www.w3.org/2000/svg"
   xmlns:svg="http://www.w3.org/2000/svg"
   xmlns:rdf="http://www.w3.org/1999/02/22-rdf-syntax-ns#"
   xmlns:cc="http://creativecommons.org/ns#"
   xmlns:dc="http://purl.org/dc/elements/1.1/">
  <metadata
     id="metadata77">
    <rdf:RDF>
      <cc:Work
         rdf:about="">
        <dc:format>image/svg+xml</dc:format>
        <dc:type
           rdf:resource="http://purl.org/dc/dcmitype/StillImage" />
      </cc:Work>
    </rdf:RDF>
  </metadata>
  <sodipodi:namedview
     pagecolor="#f5f7fa"
     bordercolor="#666666"
     borderopacity="1"
     objecttolerance="10"
     gridtolerance="10"
     guidetolerance="10"
     inkscape:pageopacity="0"
     inkscape:pageshadow="2"
     inkscape:window-width="1377"
     inkscape:window-height="886"
     id="namedview75"
     showgrid="false"
     inkscape:zoom="6.2890624"
     inkscape:cx="47.622361"
     inkscape:cy="45.396274"
     inkscape:window-x="147"
     inkscape:window-y="75"
     inkscape:window-maximized="0"
     inkscape:current-layer="g877"
     inkscape:document-rotation="0"
     inkscape:pagecheckerboard="0"
     inkscape:showpageshadow="2"
     inkscape:deskcolor="#d1d1d1" />
  <defs
     id="defs29">
    <linearGradient
       id="b"
       x1="399.57"
       x2="399.57"
       y1="545.8"
       y2="517.8"
       gradientTransform="matrix(2.1429,0,0,2.1429,-825.86391,-1107.6662)"
       gradientUnits="userSpaceOnUse">
      <stop
         stop-color="#3889e9"
         offset="0"
         id="stop2" />
      <stop
         stop-color="#5ea5fb"
         offset="1"
         id="stop4" />
    </linearGradient>
  </defs>
  <circle
     cx="32.516094"
     cy="31.877844"
     r="0"
     fill="url(#b)"
     stroke-width="1.5715"
     id="circle41"
     style="fill:url(#b)" />
  <g
     aria-label="GZ"
     transform="matrix(1.2212657,0,0,0.81882264,0.4960938,-0.1661539)"
     id="text93"
     style="font-weight:bold;font-size:11.5263px;line-height:1.25;font-family:sans-serif;-inkscape-font-specification:'sans-serif Bold';fill:#f2f2f2;stroke-width:0.288159" />
  <g
     id="g877"
     transform="matrix(1.1,0,0,1.1,-3.1845928,-3.2065454)">
    <path
       style="fill:#dfdfdf;fill-opacity:1;stroke:none;stroke-width:0.837063;stroke-dasharray:none;stroke-opacity:1"
       d="M 10.017611,58.646027 C 9.584218,58.027258 9.4315765,56.850678 9.4315765,54.128532 c 0,-4.449856 0.4545761,-5.186656 3.1998975,-5.186656 h 1.694065 V 32.001243 15.060614 h -1.860947 c -2.6548047,0 -3.0330155,-0.667656 -3.0330155,-5.3541828 0,-5.6097536 -0.7691453,-5.2828426 11.9832865,-5.0933029 C 32.89979,4.7838197 34.059271,4.9637244 39.006534,7.3425388 45.933011,10.673019 51.115548,16.74171 53.474068,24.283845 54.73367,28.3118 54.9038,33.940987 53.89347,38.161128 51.457058,48.338102 43.524036,56.313081 33.429748,58.733096 c -2.682269,0.643049 -4.446505,0.744702 -12.965427,0.746981 -9.764419,0.0033 -9.866405,-0.005 -10.446721,-0.83405 z M 33.524918,47.870053 c 4.117084,-1.600903 7.80536,-5.276506 9.501632,-9.469017 0.695418,-1.718803 0.838843,-2.805933 0.84435,-6.399793 0.0064,-4.221752 -0.02796,-4.401699 -1.385974,-7.245626 -2.901329,-6.075935 -8.664548,-9.695003 -15.438898,-9.695003 h -2.179654 v 16.986679 16.986675 l 3.294009,-0.179465 c 2.09045,-0.113849 4.050537,-0.473529 5.364535,-0.9845 z"
       id="path1" />
  </g>
</svg>
