<?xml version="1.0" encoding="UTF-8" standalone="no"?>
<svg
   width="64"
   height="64"
   version="1.1"
   id="svg73"
   sodipodi:docname="org.pitivi.Pitivi.svg"
   inkscape:version="1.4.2 (ebf0e940d0, 2025-05-08)"
   xmlns:inkscape="http://www.inkscape.org/namespaces/inkscape"
   xmlns:sodipodi="http://sodipodi.sourceforge.net/DTD/sodipodi-0.dtd"
   xmlns="http://www.w3.org/2000/svg"
   xmlns:svg="http://www.w3.org/2000/svg"
   xmlns:rdf="http://www.w3.org/1999/02/22-rdf-syntax-ns#"
   xmlns:cc="http://creativecommons.org/ns#"
   xmlns:dc="http://purl.org/dc/elements/1.1/">
  <metadata
     id="metadata77">
    <rdf:RDF>
      <cc:Work
         rdf:about="">
        <dc:format>image/svg+xml</dc:format>
        <dc:type
           rdf:resource="http://purl.org/dc/dcmitype/StillImage" />
      </cc:Work>
    </rdf:RDF>
  </metadata>
  <sodipodi:namedview
     pagecolor="#f5f7fa"
     bordercolor="#666666"
     borderopacity="1"
     objecttolerance="10"
     gridtolerance="10"
     guidetolerance="10"
     inkscape:pageopacity="0"
     inkscape:pageshadow="2"
     inkscape:window-width="1377"
     inkscape:window-height="886"
     id="namedview75"
     showgrid="false"
     inkscape:zoom="6.2890624"
     inkscape:cx="47.622361"
     inkscape:cy="45.396274"
     inkscape:window-x="264"
     inkscape:window-y="75"
     inkscape:window-maximized="0"
     inkscape:current-layer="g877"
     inkscape:document-rotation="0"
     inkscape:pagecheckerboard="0"
     inkscape:showpageshadow="2"
     inkscape:deskcolor="#d1d1d1" />
  <defs
     id="defs29" />
  <circle
     cx="32.516094"
     cy="31.877844"
     r="0"
     fill="url(#b)"
     stroke-width="1.5715"
     id="circle41"
     style="fill:url(#b)" />
  <g
     aria-label="GZ"
     transform="matrix(1.2212657,0,0,0.81882264,0.4960938,-0.1661539)"
     id="text93"
     style="font-weight:bold;font-size:11.5263px;line-height:1.25;font-family:sans-serif;-inkscape-font-specification:'sans-serif Bold';fill:#f2f2f2;stroke-width:0.288159" />
  <g
     id="g877"
     transform="matrix(1.1,0,0,1.1,-3.1845928,-3.2065454)">
    <path
       style="fill:#dfdfdf;fill-opacity:1;stroke:none;stroke-width:0.805911;stroke-dasharray:none;stroke-opacity:0.6"
       d="M 9.2284064,5.3053085 V 58.706593 H 54.743703 V 5.3053085 H 51.899 V 8.6428882 H 49.05428 V 5.3053085 H 14.917811 V 8.6428882 H 12.073105 L 12.072539,5.3053085 H 9.2282865 Z M 20.607227,11.980471 H 43.364876 V 28.668375 H 20.607227 Z m -8.534688,3.337585 h 2.844709 v 6.675157 h -2.844709 z m 36.981176,0 h 2.844707 v 6.675157 H 49.053715 Z M 12.072539,28.668375 h 2.844709 v 6.675154 h -2.844709 z m 36.981176,0 h 2.844707 v 6.675154 H 49.053715 Z M 20.606659,35.343529 H 43.364303 V 52.03143 H 20.606659 Z m -8.534695,6.675147 h 2.844708 v 6.675185 h -2.844708 z m 36.981181,0 h 2.844711 v 6.675185 H 49.053145 Z M 12.071969,55.369025 h 2.84471 v 3.337568 h -2.84471 z m 36.981176,0 h 2.844711 v 3.337568 h -2.844711 z"
       id="path4" />
  </g>
</svg>
