<?xml version="1.0" encoding="UTF-8" standalone="no"?>
<svg
   width="64"
   height="64"
   version="1.1"
   id="svg73"
   sodipodi:docname="org.gnome.Yelp.svg"
   inkscape:version="1.4.2 (ebf0e940d0, 2025-05-08)"
   xmlns:inkscape="http://www.inkscape.org/namespaces/inkscape"
   xmlns:sodipodi="http://sodipodi.sourceforge.net/DTD/sodipodi-0.dtd"
   xmlns="http://www.w3.org/2000/svg"
   xmlns:svg="http://www.w3.org/2000/svg"
   xmlns:rdf="http://www.w3.org/1999/02/22-rdf-syntax-ns#"
   xmlns:cc="http://creativecommons.org/ns#"
   xmlns:dc="http://purl.org/dc/elements/1.1/">
  <metadata
     id="metadata77">
    <rdf:RDF>
      <cc:Work
         rdf:about="">
        <dc:format>image/svg+xml</dc:format>
        <dc:type
           rdf:resource="http://purl.org/dc/dcmitype/StillImage" />
      </cc:Work>
    </rdf:RDF>
  </metadata>
  <sodipodi:namedview
     pagecolor="#f5f7fa"
     bordercolor="#666666"
     borderopacity="1"
     objecttolerance="10"
     gridtolerance="10"
     guidetolerance="10"
     inkscape:pageopacity="0"
     inkscape:pageshadow="2"
     inkscape:window-width="1377"
     inkscape:window-height="886"
     id="namedview75"
     showgrid="false"
     inkscape:zoom="6.2890624"
     inkscape:cx="46.986336"
     inkscape:cy="41.739131"
     inkscape:window-x="0"
     inkscape:window-y="49"
     inkscape:window-maximized="0"
     inkscape:current-layer="g877"
     inkscape:document-rotation="0"
     inkscape:pagecheckerboard="0"
     inkscape:showpageshadow="2"
     inkscape:deskcolor="#d1d1d1" />
  <defs
     id="defs29" />
  <circle
     cx="32.516094"
     cy="31.877844"
     r="0"
     fill="url(#b)"
     stroke-width="1.5715"
     id="circle41"
     style="fill:url(#b)" />
  <g
     aria-label="GZ"
     transform="matrix(1.2212657,0,0,0.81882264,0.4960938,-0.1661539)"
     id="text93"
     style="font-weight:bold;font-size:11.5263px;line-height:1.25;font-family:sans-serif;-inkscape-font-specification:'sans-serif Bold';fill:#f2f2f2;stroke-width:0.288159" />
  <g
     id="g877"
     transform="matrix(1.1,0,0,1.1,-3.1845928,-3.2065454)">
    <path
       d="M 31.985992,4.0716274 A 27.243215,27.93432 0 0 0 4.7410989,32.004232 27.243215,27.93432 0 0 0 31.985992,59.940274 27.243215,27.93432 0 0 0 59.230888,32.004232 27.243215,27.93432 0 0 0 31.985992,4.0716274 Z m 0,3.5536889 a 23.778118,24.381322 0 0 1 10.923923,2.7482427 l -3.59327,6.298497 A 16.667137,17.089946 0 0 0 31.985992,14.913767 16.667137,17.089946 0 0 0 24.75671,16.628499 L 21.019333,10.383612 A 23.778118,24.381322 0 0 1 31.985829,7.6252268 Z m 0,10.6608747 a 13.378816,13.718209 0 0 1 13.37848,13.71787 13.378816,13.718209 0 0 1 -13.37848,13.717858 13.378816,13.718209 0 0 1 -13.378486,-13.717858 13.378816,13.718209 0 0 1 13.378486,-13.71787 z m 21.072065,2.44965 a 23.778118,24.381322 0 0 1 2.703206,11.26822 23.778118,24.381322 0 0 1 -2.696672,11.237979 L 46.93164,39.544211 a 16.667137,17.089946 0 0 0 1.721319,-7.54015 16.667137,17.089946 0 0 0 -1.770409,-7.6173 l 6.175336,-3.65092 z m -42.222878,0.184544 6.195107,3.560384 a 16.667137,17.089946 0 0 0 -1.711603,7.52331 16.667137,17.089946 0 0 0 1.760704,7.603899 l -6.188582,3.627389 A 23.778118,24.381322 0 0 1 8.2071995,32.004079 23.778118,24.381322 0 0 1 10.835179,20.920385 Z m 13.810442,26.415526 a 16.667137,17.089946 0 0 0 7.340537,1.758291 16.667137,17.089946 0 0 0 7.212858,-1.708015 l 3.796198,6.214647 a 23.778118,24.381322 0 0 1 -11.009056,2.785188 23.778118,24.381322 0 0 1 -11.08428,-2.825393 l 3.743913,-6.224617 z"
       fill="url(#linearGradient898)"
       stroke-width="2.23747"
       id="path27"
       style="fill:#dfdfdf;fill-opacity:1;stroke:none;stroke-width:0.878917;stroke-dasharray:none;stroke-opacity:0.6" />
  </g>
</svg>
