<?xml version="1.0" encoding="UTF-8" standalone="no"?>
<svg
   width="64"
   height="64"
   version="1.1"
   id="svg73"
   sodipodi:docname="org.gnome.Ptyxis.svg"
   inkscape:version="1.4.2 (ebf0e940d0, 2025-05-08)"
   xmlns:inkscape="http://www.inkscape.org/namespaces/inkscape"
   xmlns:sodipodi="http://sodipodi.sourceforge.net/DTD/sodipodi-0.dtd"
   xmlns="http://www.w3.org/2000/svg"
   xmlns:svg="http://www.w3.org/2000/svg"
   xmlns:rdf="http://www.w3.org/1999/02/22-rdf-syntax-ns#"
   xmlns:cc="http://creativecommons.org/ns#"
   xmlns:dc="http://purl.org/dc/elements/1.1/">
  <metadata
     id="metadata77">
    <rdf:RDF>
      <cc:Work
         rdf:about="">
        <dc:format>image/svg+xml</dc:format>
        <dc:type
           rdf:resource="http://purl.org/dc/dcmitype/StillImage" />
      </cc:Work>
    </rdf:RDF>
  </metadata>
  <sodipodi:namedview
     pagecolor="#f5f7fa"
     bordercolor="#666666"
     borderopacity="1"
     objecttolerance="10"
     gridtolerance="10"
     guidetolerance="10"
     inkscape:pageopacity="0"
     inkscape:pageshadow="2"
     inkscape:window-width="1315"
     inkscape:window-height="742"
     id="namedview75"
     showgrid="false"
     inkscape:zoom="4.4470387"
     inkscape:cx="45.311052"
     inkscape:cy="30.919452"
     inkscape:window-x="24"
     inkscape:window-y="32"
     inkscape:window-maximized="0"
     inkscape:current-layer="g877"
     inkscape:document-rotation="0"
     inkscape:pagecheckerboard="0"
     inkscape:showpageshadow="2"
     inkscape:deskcolor="#d1d1d1" />
  <defs
     id="defs29">
    <linearGradient
       id="b"
       x1="399.57"
       x2="399.57"
       y1="545.8"
       y2="517.8"
       gradientTransform="matrix(2.1429,0,0,2.1429,-825.86391,-1107.6662)"
       gradientUnits="userSpaceOnUse">
      <stop
         stop-color="#3889e9"
         offset="0"
         id="stop2" />
      <stop
         stop-color="#5ea5fb"
         offset="1"
         id="stop4" />
    </linearGradient>
  </defs>
  <circle
     cx="32.516094"
     cy="31.877844"
     r="0"
     fill="url(#b)"
     stroke-width="1.5715"
     id="circle41"
     style="fill:url(#b)" />
  <g
     aria-label="GZ"
     transform="matrix(1.2212657,0,0,0.81882264,0.4960938,-0.1661539)"
     id="text93"
     style="font-weight:bold;font-size:11.5263px;line-height:1.25;font-family:sans-serif;-inkscape-font-specification:'sans-serif Bold';fill:#f2f2f2;stroke-width:0.288159" />
  <g
     id="g877"
     transform="matrix(1.1,0,0,1.1,-3.1845928,-3.2065454)">
    <path
       style="fill:#dfdfdf;fill-opacity:1;stroke-width:0.208982"
       d="m 14.996317,51.978819 c 0.477305,-0.923719 1.346642,-2.366693 1.931896,-3.206582 1.335453,-1.916489 1.325753,-1.891534 2.272165,-5.843377 1.699461,-7.096425 5.505948,-11.880843 11.532239,-14.494984 4.749429,-2.060253 9.341563,-2.308641 17.01589,-0.920366 2.483837,0.449321 12.255958,3.86773 11.940033,4.176762 -0.106106,0.103785 -1.480824,1.365279 -3.054958,2.80329 -1.574129,1.43802 -3.676631,3.641032 -4.672225,4.895579 -0.995582,1.254556 -2.344133,2.946429 -2.996769,3.759716 -7.201317,8.973952 -15.041266,11.572476 -24.44906,8.103577 l -2.54745,-0.939323 0.64512,-1.392958 c 1.821552,-3.932881 6.106752,-8.450985 10.66051,-11.239868 2.327959,-1.425723 6.373479,-3.142451 8.431246,-3.577816 0.716937,-0.151678 1.346571,-0.38478 1.399175,-0.517983 0.137551,-0.348384 -0.9394,-0.371345 -2.806001,-0.05986 -7.172528,1.196998 -14.02294,5.676839 -19.194674,12.552408 -1.326772,1.763871 -3.853338,5.941588 -4.342636,7.18062 l -0.49199,1.245858 -1.070142,-0.422603 -1.070152,-0.422612 z M 10.443483,38.151185 C 8.1255278,36.410907 6.9558047,34.991997 5.79083,32.507359 4.4958238,29.745384 4.0387451,26.202555 4.3902742,21.651657 4.5199535,19.972761 4.615695,18.325397 4.6030053,17.99085 c -0.012645,-0.334556 -8.692e-4,-1.408389 0.026234,-2.386309 0.027126,-0.977927 -0.0493,-2.67076 -0.169805,-3.761866 -0.2617346,-2.3695679 -0.217379,-2.5325384 0.6012033,-2.209277 0.3479365,0.1374065 0.7507503,0.1616714 0.8951433,0.053955 0.404405,-0.3018004 2.898102,0.803389 3.2994953,1.4623 0.1940334,0.318551 0.7301415,0.728193 1.1913168,0.910313 1.0857,0.428748 5.134937,3.051824 6.909966,4.476243 3.887321,3.119477 6.606195,7.848126 6.762497,11.761289 0.02786,0.698214 -0.184116,1.049182 -1.479785,2.449828 -0.831791,0.899179 -1.952707,2.331709 -2.490928,3.1834 l -0.978585,1.548537 -0.114563,-1.719 c -0.191245,-2.869853 -0.81421,-5.488729 -1.904211,-8.005274 -1.058216,-2.443155 -2.698481,-4.972934 -3.732839,-5.75716 -0.523918,-0.397223 -0.523093,-0.330249 0.0091,0.735585 2.646225,5.299733 3.602824,8.428994 3.801706,12.436232 0.08505,1.71335 -0.47375,6.394731 -0.895662,7.503591 -0.189846,0.499078 -4.090663,-1.171232 -5.889802,-2.522031 z"
       id="path1" />
  </g>
</svg>
