<?xml version="1.0" encoding="UTF-8" standalone="no"?>
<svg
   width="64"
   height="64"
   version="1.1"
   id="svg73"
   sodipodi:docname="org.gnome.Meld.svg"
   inkscape:version="1.4.2 (ebf0e940d0, 2025-05-08)"
   xmlns:inkscape="http://www.inkscape.org/namespaces/inkscape"
   xmlns:sodipodi="http://sodipodi.sourceforge.net/DTD/sodipodi-0.dtd"
   xmlns="http://www.w3.org/2000/svg"
   xmlns:svg="http://www.w3.org/2000/svg"
   xmlns:rdf="http://www.w3.org/1999/02/22-rdf-syntax-ns#"
   xmlns:cc="http://creativecommons.org/ns#"
   xmlns:dc="http://purl.org/dc/elements/1.1/">
  <metadata
     id="metadata77">
    <rdf:RDF>
      <cc:Work
         rdf:about="">
        <dc:format>image/svg+xml</dc:format>
        <dc:type
           rdf:resource="http://purl.org/dc/dcmitype/StillImage" />
      </cc:Work>
    </rdf:RDF>
  </metadata>
  <sodipodi:namedview
     pagecolor="#f5f7fa"
     bordercolor="#666666"
     borderopacity="1"
     objecttolerance="10"
     gridtolerance="10"
     guidetolerance="10"
     inkscape:pageopacity="0"
     inkscape:pageshadow="2"
     inkscape:window-width="1377"
     inkscape:window-height="886"
     id="namedview75"
     showgrid="false"
     inkscape:zoom="6.2890624"
     inkscape:cx="47.622361"
     inkscape:cy="45.396274"
     inkscape:window-x="0"
     inkscape:window-y="57"
     inkscape:window-maximized="0"
     inkscape:current-layer="g877"
     inkscape:document-rotation="0"
     inkscape:pagecheckerboard="0"
     inkscape:showpageshadow="2"
     inkscape:deskcolor="#d1d1d1" />
  <defs
     id="defs29" />
  <circle
     cx="32.516094"
     cy="31.877844"
     r="0"
     fill="url(#b)"
     stroke-width="1.5715"
     id="circle41"
     style="fill:url(#b)" />
  <g
     aria-label="GZ"
     transform="matrix(1.2212657,0,0,0.81882264,0.4960938,-0.1661539)"
     id="text93"
     style="font-weight:bold;font-size:11.5263px;line-height:1.25;font-family:sans-serif;-inkscape-font-specification:'sans-serif Bold';fill:#f2f2f2;stroke-width:0.288159" />
  <g
     id="g877"
     transform="matrix(1.1,0,0,1.1,-3.1845928,-3.2065454)">
    <path
       id="path5-9"
       style="fill:#dfdfdf;fill-opacity:1;stroke:none;stroke-width:0.878917;stroke-dasharray:none;stroke-opacity:0.6"
       d="M 30.968836,3.5666186 29.452111,4.42259 c -8.542264,4.8300182 -13.183627,10.793897 -14.529046,18.663752 -0.353263,2.066382 -0.431,4.982334 -0.162681,6.164517 0.771031,3.397138 2.64466,6.754486 4.998191,8.955202 3.550954,3.320374 9.039399,4.377082 13.014821,2.505354 1.297466,-0.610899 2.766071,-2.123326 3.151086,-3.243691 0.61885,-1.800805 0.218412,-4.587106 -0.818432,-5.68648 -0.424744,-0.450362 -0.618625,-0.534388 -1.206371,-0.533106 -0.407255,9.09e-4 -1.054609,0.166506 -1.55177,0.397951 -1.130346,0.526168 -1.740632,0.528937 -1.872133,0.0046 -0.130225,-0.518859 0.32255,-1.239494 1.446651,-2.30262 1.267947,-1.199177 2.082317,-1.531721 3.75177,-1.531743 1.187393,-2e-5 1.476979,0.05931 2.315139,0.478044 1.37543,0.687104 3.040314,2.405863 3.789306,3.90945 0.895813,1.798298 1.143998,2.939436 1.141299,5.263494 -0.0026,2.301065 -0.23435,3.352579 -1.191355,5.40116 -2.607022,5.580835 -9.310457,9.917118 -16.213457,10.48943 -4.326024,0.35865 -10.754011,-1.508543 -15.6102758,-4.535153 -0.702053,-0.437591 -1.3015761,-0.767699 -1.3340184,-0.735842 -0.032472,0.03203 0.4082199,0.65343 0.978615,1.381588 1.1345962,1.448318 3.5449592,3.879623 4.8630362,4.905581 4.080277,3.17597 9.249485,5.30849 14.296282,5.89672 0.628487,0.07321 1.952056,0.141346 2.940846,0.152677 l 1.797049,0.02175 1.471672,-0.825945 c 7.932962,-4.446517 12.581405,-10.253959 14.18866,-17.732704 0.279045,-1.298324 0.348744,-2.173637 0.35545,-4.339953 0.0077,-2.568858 -0.01497,-2.782699 -0.445503,-4.067128 -1.123639,-3.354448 -3.081294,-6.33637 -5.341137,-8.136013 -1.209197,-0.962955 -3.503053,-2.096262 -5.048244,-2.49284 -1.474612,-0.378463 -4.108138,-0.387308 -5.473733,-0.01771 -3.743176,1.013617 -5.656879,3.483069 -5.193416,6.700131 0.246105,1.708332 0.843821,2.935345 1.581803,3.243693 0.669677,0.2798 1.149928,0.210456 2.530382,-0.365412 0.754332,-0.314674 1.019366,-0.360638 1.316498,-0.225254 0.546563,0.249031 0.462602,0.746758 -0.287826,1.719458 -1.257304,1.629698 -2.807275,2.471361 -4.545177,2.470309 -1.246711,-7.54e-4 -2.031568,-0.215476 -2.978392,-0.81593 -3.393491,-2.152088 -5.099537,-6.778773 -4.169745,-11.302873 1.280285,-6.229485 7.389761,-11.534923 15.127227,-13.134952 3.128377,-0.646925 7.225867,-0.222909 11.240297,1.16132 1.952745,0.673341 4.947726,2.092495 6.477372,3.070996 0.508016,0.324972 0.961115,0.553104 1.008654,0.505576 0.148874,-0.148906 -1.63114,-2.342429 -3.101033,-3.821852 C 46.906402,6.7501142 40.078757,3.7761619 32.803428,3.6086902 Z m -3.997048,0.4454977 c -0.03452,-0.011713 -0.11489,-0.00293 -0.232772,0.020058 C 15.865291,6.1551923 7.0523328,14.485988 4.4010862,25.148693 c -0.6467675,2.601143 -0.8328546,4.19168 -0.8259387,7.055535 0.00932,3.783385 0.6656929,7.059751 2.1349263,10.664643 l 0.673267,1.649368 1.5242369,1.148808 c 4.6012753,3.466102 9.6161573,5.568731 14.8419033,6.222095 1.997707,0.249751 5.156252,-0.206444 7.658717,-1.10626 4.558208,-1.638988 8.638466,-5.222676 10.221634,-8.98273 1.284009,-3.04954 1.244129,-6.035815 -0.115131,-8.800018 -0.66805,-1.358587 -1.983937,-2.786639 -3.080996,-3.346312 -0.983796,-0.501895 -2.302544,-0.580459 -3.116049,-0.182705 l -0.638227,0.312857 0.48054,0.01771 c 1.847425,0.06337 3.184703,1.955831 3.506498,4.960674 0.506837,4.732756 -3.489541,8.291933 -9.313106,8.291933 -3.919113,0 -7.13785,-1.365595 -9.991377,-4.237313 -2.420476,-2.435911 -3.928245,-5.093935 -4.807973,-8.477154 -0.693277,-2.666158 -0.474548,-6.557729 0.578153,-10.30674 1.70139,-6.059189 5.613272,-11.1148032 11.73086,-15.1597591 0.909297,-0.6012273 1.212403,-0.8254303 1.10876,-0.86098 z m 13.012309,8.2644167 c -1.176455,-0.01224 -2.314396,0.08988 -3.39636,0.310356 -5.700636,1.161716 -10.653522,4.783776 -12.874659,9.415719 -1.459382,3.043388 -1.488329,6.338676 -0.08257,9.195472 0.660124,1.341541 2.042355,2.812195 3.171109,3.373841 0.874883,0.435327 2.353569,0.510211 3.035956,0.15266 l 0.425488,-0.222747 -0.823442,-0.212746 c -1.558347,-0.39939 -2.489343,-1.8192 -2.893294,-4.417528 -0.367856,-2.366157 0.311053,-4.537076 1.909675,-6.099446 1.105832,-1.080754 2.392221,-1.794579 4.112183,-2.282599 1.905766,-0.540748 4.871872,-0.503548 6.855307,0.08761 3.961038,1.180563 6.838902,3.486452 9.130393,7.31583 1.566122,2.617191 2.437762,5.565282 2.437762,8.241887 0,8.759352 -4.343193,16.570119 -12.086247,21.732245 -0.679496,0.452992 -1.308835,0.892958 -1.396591,0.97861 -0.104566,0.102003 -0.04898,0.126525 0.160197,0.07004 0.175526,-0.04712 0.928473,-0.238277 1.674407,-0.425392 C 44.478183,58.2013 49.997532,54.684594 53.532076,50.450013 60.266689,42.381561 62.145621,32.262425 58.72799,22.478172 57.824759,19.89229 57.56391,19.476327 56.237648,18.488584 50.920071,14.528261 45.082141,12.3303 39.984136,12.276506 Z" />
  </g>
</svg>
