<?xml version="1.0" encoding="UTF-8" standalone="no"?>
<svg
   width="64"
   height="64"
   version="1.1"
   id="svg73"
   sodipodi:docname="org.nickvision.tubeconverter.svg"
   inkscape:version="1.4.2 (ebf0e940d0, 2025-05-08)"
   xmlns:inkscape="http://www.inkscape.org/namespaces/inkscape"
   xmlns:sodipodi="http://sodipodi.sourceforge.net/DTD/sodipodi-0.dtd"
   xmlns="http://www.w3.org/2000/svg"
   xmlns:svg="http://www.w3.org/2000/svg"
   xmlns:rdf="http://www.w3.org/1999/02/22-rdf-syntax-ns#"
   xmlns:cc="http://creativecommons.org/ns#"
   xmlns:dc="http://purl.org/dc/elements/1.1/">
  <metadata
     id="metadata77">
    <rdf:RDF>
      <cc:Work
         rdf:about="">
        <dc:format>image/svg+xml</dc:format>
        <dc:type
           rdf:resource="http://purl.org/dc/dcmitype/StillImage" />
      </cc:Work>
    </rdf:RDF>
  </metadata>
  <sodipodi:namedview
     pagecolor="#f5f7fa"
     bordercolor="#666666"
     borderopacity="1"
     objecttolerance="10"
     gridtolerance="10"
     guidetolerance="10"
     inkscape:pageopacity="0"
     inkscape:pageshadow="2"
     inkscape:window-width="1377"
     inkscape:window-height="886"
     id="namedview75"
     showgrid="false"
     inkscape:zoom="6.2890624"
     inkscape:cx="46.986336"
     inkscape:cy="41.739131"
     inkscape:window-x="0"
     inkscape:window-y="49"
     inkscape:window-maximized="0"
     inkscape:current-layer="g877"
     inkscape:document-rotation="0"
     inkscape:pagecheckerboard="0"
     inkscape:showpageshadow="2"
     inkscape:deskcolor="#d1d1d1" />
  <defs
     id="defs29" />
  <circle
     cx="32.516094"
     cy="31.877844"
     r="0"
     fill="url(#b)"
     stroke-width="1.5715"
     id="circle41"
     style="fill:url(#b)" />
  <g
     aria-label="GZ"
     transform="matrix(1.2212657,0,0,0.81882264,0.4960938,-0.1661539)"
     id="text93"
     style="font-weight:bold;font-size:11.5263px;line-height:1.25;font-family:sans-serif;-inkscape-font-specification:'sans-serif Bold';fill:#f2f2f2;stroke-width:0.288159" />
  <g
     id="g877"
     transform="matrix(1.1,0,0,1.1,-3.1845928,-3.2065454)">
    <path
       style="fill:#dfdfdf;fill-opacity:1;stroke:none;stroke-width:0.885781;stroke-dasharray:none;stroke-opacity:0.6"
       d="m 22.591375,59.135686 c 0,-0.03409 0.848334,-1.330655 1.885191,-2.880007 l 1.885189,-2.816995 0.679904,0.15833 c 2.929454,0.682424 6.960064,0.682424 9.88952,0 l 0.679904,-0.15833 1.885184,2.816995 c 1.036854,1.549352 1.885199,2.845347 1.885199,2.880007 0,0.03409 -4.227775,0.06294 -9.395048,0.06294 -5.167272,0 -9.395043,-0.02799 -9.395043,-0.06294 z m 8.406089,-7.568916 c -2.884308,-0.106359 -6.268273,-1.064801 -8.815302,-2.496787 -2.518223,-1.41579 -4.841718,-3.478814 -6.417609,-5.698165 -0.748502,-1.054126 -2.048116,-3.455013 -2.256435,-4.168494 L 13.426905,38.9252 H 31.986419 50.54593 l -0.0812,0.278124 c -0.04506,0.152982 -0.383609,0.890053 -0.753191,1.637947 C 46.322067,47.700332 39.05729,51.863975 30.997447,51.566778 Z M 28.176537,36.22903 c 0.05948,-0.336932 3.738547,-9.78815 3.809881,-9.787272 0.07218,9.24e-4 3.751322,9.450148 3.809879,9.785094 0.03754,0.214857 -0.149391,0.225946 -3.809879,0.225946 -3.646923,0 -3.847304,-0.01186 -3.809881,-0.223768 z M 23.130916,24.811675 c -0.35499,-0.171893 -0.590741,-0.642969 -0.576326,-1.151579 0.01562,-0.553552 0.575091,-1.240381 1.82816,-2.244606 4.463697,-3.577261 10.743642,-3.577261 15.207343,0 1.253067,1.004225 1.81246,1.691052 1.828154,2.244606 0.02131,0.774182 -0.471447,1.296138 -1.225106,1.296138 -0.437418,0 -0.650148,-0.136542 -1.483688,-0.952148 -3.779862,-3.698593 -9.76405,-3.676712 -13.499164,0.04936 -0.361341,0.360465 -0.760989,0.711059 -0.888108,0.779091 -0.290833,0.155656 -0.846843,0.145927 -1.191265,-0.02089 z m -5.204753,-4.494796 c -0.401421,-0.28117 -0.558121,-0.980057 -0.337906,-1.507106 0.234771,-0.561886 2.061992,-2.357849 3.457883,-3.398727 1.202639,-0.89678 3.190374,-1.985157 4.573898,-2.504425 6.286993,-2.359652 13.081825,-1.097594 18.447697,3.426431 1.126302,0.949593 2.185372,2.110223 2.370926,2.598272 0.160825,0.422991 -0.0414,1.140537 -0.392008,1.385555 -0.148521,0.103983 -0.505045,0.189064 -0.79237,0.189064 -0.499199,0 -0.58235,-0.05959 -1.870809,-1.341282 -2.550003,-2.536588 -5.449899,-4.09514 -8.676249,-4.663087 -1.360868,-0.239558 -4.088011,-0.238785 -5.440422,0.0015 -3.238423,0.575482 -6.126548,2.129194 -8.688142,4.673922 -1.277205,1.268798 -1.36134,1.328904 -1.860133,1.328904 -0.287333,0 -0.643895,-0.08507 -0.792365,-0.189066 z m -5.766164,-4.420976 c -0.696325,-0.696324 -0.589827,-1.267486 0.461,-2.472312 3.250934,-3.7273889 8.330979,-6.7414952 13.386433,-7.9424819 4.094438,-0.9726835 9.033389,-0.8773945 12.963461,0.2501264 4.834299,1.3869286 9.403041,4.2366369 12.44101,7.7599565 0.989828,1.147971 1.085266,1.720379 0.400956,2.404712 -0.265885,0.265885 -0.395051,0.304214 -0.85145,0.252775 -0.498983,-0.05624 -0.653187,-0.177586 -2.123035,-1.670728 C 46.553446,12.156883 44.183566,10.484331 41.5327,9.3219491 33.676414,5.877049 24.75456,6.902628 17.807447,12.049198 c -0.530397,0.39293 -1.707535,1.462649 -2.615868,2.377154 -1.526646,1.537028 -1.691843,1.667292 -2.184836,1.722855 -0.451148,0.05086 -0.581619,0.01186 -0.846744,-0.253304 z"
       id="path1" />
  </g>
</svg>
