<?xml version="1.0" encoding="UTF-8" standalone="no"?>
<svg
   width="64"
   height="64"
   version="1.1"
   id="svg73"
   sodipodi:docname="org.kde.ktorrent.svg"
   inkscape:version="1.4.2 (ebf0e940d0, 2025-05-08)"
   xmlns:inkscape="http://www.inkscape.org/namespaces/inkscape"
   xmlns:sodipodi="http://sodipodi.sourceforge.net/DTD/sodipodi-0.dtd"
   xmlns="http://www.w3.org/2000/svg"
   xmlns:svg="http://www.w3.org/2000/svg"
   xmlns:rdf="http://www.w3.org/1999/02/22-rdf-syntax-ns#"
   xmlns:cc="http://creativecommons.org/ns#"
   xmlns:dc="http://purl.org/dc/elements/1.1/">
  <metadata
     id="metadata77">
    <rdf:RDF>
      <cc:Work
         rdf:about="">
        <dc:format>image/svg+xml</dc:format>
        <dc:type
           rdf:resource="http://purl.org/dc/dcmitype/StillImage" />
      </cc:Work>
    </rdf:RDF>
  </metadata>
  <sodipodi:namedview
     pagecolor="#f5f7fa"
     bordercolor="#666666"
     borderopacity="1"
     objecttolerance="10"
     gridtolerance="10"
     guidetolerance="10"
     inkscape:pageopacity="0"
     inkscape:pageshadow="2"
     inkscape:window-width="1377"
     inkscape:window-height="886"
     id="namedview75"
     showgrid="false"
     inkscape:zoom="6.2890624"
     inkscape:cx="45.714286"
     inkscape:cy="42.057144"
     inkscape:window-x="0"
     inkscape:window-y="75"
     inkscape:window-maximized="0"
     inkscape:current-layer="g877"
     inkscape:document-rotation="0"
     inkscape:pagecheckerboard="0"
     inkscape:showpageshadow="2"
     inkscape:deskcolor="#d1d1d1" />
  <defs
     id="defs29" />
  <circle
     cx="32.516094"
     cy="31.877844"
     r="0"
     fill="url(#b)"
     stroke-width="1.5715"
     id="circle41"
     style="fill:url(#b)" />
  <g
     aria-label="GZ"
     transform="matrix(1.2212657,0,0,0.81882264,0.4960938,-0.1661539)"
     id="text93"
     style="font-weight:bold;font-size:11.5263px;line-height:1.25;font-family:sans-serif;-inkscape-font-specification:'sans-serif Bold';fill:#f2f2f2;stroke-width:0.288159" />
  <g
     id="g877"
     transform="matrix(1.1,0,0,1.1,-3.1845928,-3.2065454)">
    <path
       id="path4"
       style="fill:#dfdfdf;fill-opacity:1;stroke:none;stroke-width:1.81443;stroke-dasharray:none;stroke-dashoffset:2.2;stroke-opacity:0.3"
       d="m 26.537427,4.1241221 -0.636574,0.2448281 c -1.552951,0.5985321 -2.670098,1.726112 -3.231802,3.26382 l -0.205282,0.563116 -0.02059,8.0889308 c -0.01291,5.045043 0.0053,8.088924 0.05083,8.088924 0.154176,0 0.575452,0.430713 0.710017,0.726974 0.172728,0.380278 0.181446,0.800278 0.02631,1.171432 -0.198894,0.476041 -0.254791,0.508862 -0.510381,0.29381 -0.123849,-0.104203 -0.361439,-0.226031 -0.529223,-0.271201 -0.859324,-0.231401 -1.721996,0.469205 -1.710069,1.389904 0.01078,0.829623 0.744154,1.4551 1.576354,1.344704 l 0.369127,-0.04903 v 1.91347 1.913468 l 0.348415,0.03956 c 0.213858,0.02417 0.524392,0.148633 0.802305,0.32016 0.513861,0.317177 1.000811,0.506618 1.301383,0.506618 0.210615,0 0.816841,0.547007 0.996287,0.898354 0.204784,0.400954 0.0591,0.823509 -0.340879,0.990632 -0.545619,0.228046 -1.180037,0.106964 -1.992507,-0.378502 -0.446759,-0.266983 -0.601136,-0.319251 -0.922778,-0.31452 -0.72159,0.01067 -1.431244,0.494229 -2.928596,1.990684 -1.067781,1.067153 -1.614771,1.415821 -2.325914,1.480302 -0.760982,0.06905 -1.551861,-0.401307 -1.772223,-1.054667 -0.04993,-0.147926 -0.125913,-0.771354 -0.169503,-1.384253 -0.119367,-1.679074 -0.33399,-2.541091 -0.83055,-3.324084 -0.342354,-0.539835 -0.767824,-0.787241 -1.350352,-0.787241 -0.391815,0 -0.537782,0.04058 -0.85127,0.23352 -0.208524,0.128363 -0.485351,0.392638 -0.617734,0.589479 -0.565029,0.84017 -0.373432,1.377969 0.885165,2.476594 0.439627,0.383741 0.832708,0.772031 0.873873,0.864445 0.12968,0.291131 0.0051,0.540652 -0.386077,0.770292 -0.320983,0.188407 -0.443305,0.214396 -1.01889,0.21469 -1.065044,5.54e-4 -1.6427,-0.321404 -2.1545399,-1.197793 -0.4696032,-0.804042 -0.8706137,-1.03468 -1.408737,-0.80984 -0.4697891,0.196289 -0.7746013,0.910278 -0.5706536,1.337171 0.093126,0.194924 0.1529176,0.215337 0.8004227,0.295683 0.3909763,0.04847 0.7851228,0.145473 0.8964648,0.218471 0.109384,0.07171 0.41555,0.429911 0.679888,0.796655 1.863013,2.584626 5.388552,7.111816 7.55218,9.69729 3.752679,4.484357 7.522635,8.325225 10.075849,10.267958 1.458984,1.110134 2.531808,1.732655 3.632958,2.105567 1.18562,0.401495 2.093553,0.304635 3.514305,-0.37472 1.82065,-0.870627 4.071799,-2.658531 6.84027,-5.429657 3.80087,-3.804511 8.642829,-9.602267 12.961129,-15.522454 0.555087,-0.760851 1.156804,-1.538698 1.337168,-1.728907 0.416991,-0.43964 0.726926,-0.902954 0.726926,-1.086687 0,-0.367852 -1.202972,-0.03051 -1.979366,0.555593 -0.56977,0.430188 -1.238013,0.689343 -1.9097,0.740147 -0.683079,0.05166 -0.935234,-0.0076 -1.04338,-0.24483 -0.06857,-0.149905 -0.05262,-0.232976 0.07535,-0.440695 0.174694,-0.281823 0.496563,-0.534904 1.719473,-1.359774 0.868046,-0.58549 1.267447,-0.969294 1.510442,-1.446397 0.427925,-0.840122 0.529065,-1.976344 0.222234,-2.518021 -0.392014,-0.692144 -1.104306,-0.849858 -1.945487,-0.429408 -0.852703,0.426217 -1.783764,1.416207 -1.996338,2.122518 -0.05782,0.190993 -0.142662,0.873519 -0.188286,1.516088 -0.08532,1.198506 -0.228706,1.960273 -0.423757,2.258116 -0.342625,0.522946 -1.181535,0.810274 -1.506669,0.516037 -0.08789,-0.0795 -0.208352,-0.237932 -0.267452,-0.352194 -0.204996,-0.396377 -0.13808,-0.612383 0.397447,-1.291966 0.591553,-0.750874 0.704239,-0.950037 0.772141,-1.374835 0.103972,-0.650353 -0.382934,-1.560332 -1.005705,-1.881455 -0.587402,-0.302854 -1.543538,-0.103708 -2.218576,0.461421 -0.662161,0.554432 -0.667411,0.867494 -0.04163,2.244935 0.258489,0.568738 0.486677,1.165637 0.508478,1.327757 0.05145,0.390323 -0.122585,0.650292 -0.581903,0.862565 -0.315104,0.14562 -0.49344,0.16573 -1.472765,0.16573 -1.398319,0 -1.835993,-0.114696 -2.278843,-0.595144 -0.355231,-0.385149 -0.516687,-0.701641 -0.983395,-1.93235 -0.349335,-0.921367 -0.530163,-1.276902 -0.649782,-1.276902 -0.03583,0 -0.329152,0.171859 -0.651644,0.382316 -0.903303,0.589744 -1.187762,0.713524 -1.741958,0.75331 -0.67766,0.04859 -1.269527,-0.190936 -1.431338,-0.578188 -0.100782,-0.241155 -0.0937,-0.291975 0.08473,-0.681776 0.10604,-0.231714 0.264603,-0.521088 0.352172,-0.644103 0.137932,-0.193663 0.184124,-0.214551 0.352181,-0.15068 0.55341,0.210404 1.240111,0.01547 2.209153,-0.627152 0.374603,-0.248492 0.745729,-0.452002 0.824901,-0.452002 0.202971,0 0.316545,0.205701 0.757098,1.374832 0.386345,1.0251 0.619644,1.49719 0.919053,1.856965 l 0.158168,0.188328 0.0016,-1.971851 0.0017,-1.971851 0.480197,-0.898354 c 0.264156,-0.494079 0.660984,-1.105 0.879503,-1.357888 0.478693,-0.553851 0.606459,-0.97008 0.489683,-1.580117 -0.114575,-0.598309 -0.395366,-1.092021 -0.770277,-1.350351 -0.628808,-0.433415 -1.077769,0.214083 -1.388019,2.003872 -0.232756,1.342707 -0.307933,1.630968 -0.425669,1.630968 -0.184235,0 -0.284279,-0.308874 -0.235529,-0.723201 0.02487,-0.215181 0.147748,-0.840412 0.273178,-1.389902 0.125433,-0.549498 0.286419,-1.327351 0.357778,-1.728899 0.07163,-0.40156 0.177876,-0.864487 0.235416,-1.028306 0.08558,-0.243348 0.103499,-1.62137 0.103499,-7.533344 0,-7.6039063 -0.01967,-8.1261863 -0.344653,-9.0626103 -0.518959,-1.497896 -1.76323,-2.7319625 -3.27996,-3.2524926 L 39.294977,4.1240568 h -6.378864 z m 7.410929,13.3848719 c 0.253083,0.0056 0.506826,0.04949 0.717553,0.129946 0.437175,0.166951 0.986851,0.748945 1.116815,1.182734 0.291537,0.973041 -0.191296,2.065623 -1.077266,2.435152 -0.350981,0.146396 -1.238955,0.153289 -1.565054,0.01162 -0.351254,-0.152949 -0.788797,-0.564638 -0.977451,-0.92095 -0.234555,-0.442974 -0.23401,-1.339737 0,-1.781637 0.213971,-0.404038 0.691821,-0.833012 1.069738,-0.960498 0.21007,-0.07087 0.46259,-0.101838 0.715665,-0.09606 z m -8.6803,5.789376 c 0.649568,0 1.216979,0.560875 1.83437,1.811769 0.671924,1.361371 1.148321,3.157558 1.062202,4.005856 -0.06967,0.686158 -0.165429,0.72563 -0.314514,0.128083 C 27.554252,28.058235 26.833189,26.532846 26.260577,25.882325 25.6912,25.235486 25.17178,25.116484 24.704941,25.52637 l -0.263665,0.231644 -0.08473,-0.342763 c -0.122586,-0.486826 -0.109384,-1.313774 0.02632,-1.576352 0.188245,-0.364035 0.478404,-0.540512 0.885175,-0.540512 z M 10.781434,23.3793 c -0.283177,1.8e-4 -0.566067,0.0466 -0.770283,0.139368 -0.3910103,0.177608 -0.9044232,0.754229 -1.022649,1.148836 -0.2983409,0.995774 0.2492523,2.055676 1.216634,2.356053 0.450186,0.139763 0.665884,0.139865 1.105519,0.0076 1.024809,-0.308411 1.607473,-1.435132 1.23923,-2.39936 -0.173633,-0.454595 -0.604085,-0.932711 -1.00005,-1.11305 -0.203111,-0.09249 -0.485227,-0.139528 -0.768401,-0.139367 z m 27.94683,1.768455 c 0.200383,-0.0258 0.386526,0.02221 0.549942,0.15068 0.299084,0.235268 0.389694,0.613448 0.340871,1.431336 -0.02341,0.392428 -0.06357,0.745036 -0.08853,0.785357 -0.02479,0.04021 -0.146044,-0.02742 -0.269336,-0.150664 -0.289508,-0.289483 -0.565948,-0.288252 -1.026429,0.0037 -0.447439,0.283768 -0.965035,0.980596 -1.410605,1.896524 -0.323143,0.664268 -0.345469,0.75722 -0.416218,1.653573 -0.134638,1.706247 -0.211574,2.152071 -0.438809,2.599007 -0.476517,0.937147 -2.011287,1.570849 -2.90411,1.197798 -0.340896,-0.142411 -0.389965,-0.283506 -0.226003,-0.62903 0.224029,-0.472086 -0.06339,-1.261902 -0.598905,-1.649805 -1.057867,-0.766314 -2.589246,0.535318 -1.968087,1.672402 0.171274,0.313516 0.175296,0.351034 0.06598,0.546166 -0.06459,0.115277 -0.216007,0.258171 -0.337115,0.316403 -0.273524,0.131476 -1.052267,0.176606 -1.47654,0.08665 -0.831166,-0.176289 -1.526612,-0.763951 -1.764721,-1.491611 -0.468373,-1.43133 -1.878236,-3.156584 -2.715773,-3.324088 -0.20673,-0.04135 -0.276623,-0.111804 -0.403037,-0.403033 -0.197104,-0.454089 -0.257477,-1.136425 -0.122399,-1.391785 0.132821,-0.251146 0.491225,-0.288569 0.879519,-0.09039 0.385257,0.196637 0.490311,0.325122 0.834312,1.013234 0.348589,0.6973 0.920048,1.552196 1.288206,1.928537 0.148924,0.152241 0.342573,0.415505 0.429413,0.585709 0.462594,0.906752 1.776508,1.441182 2.808058,1.141304 0.565815,-0.164453 0.666259,-0.349006 0.436942,-0.798537 -0.278694,-0.546267 -0.194374,-1.074513 0.246721,-1.54057 0.312592,-0.330296 0.644882,-0.470829 1.109281,-0.470829 0.515948,0 0.85608,0.203211 1.15072,0.6893 0.310342,0.512008 0.389478,0.970453 0.222237,1.29385 -0.170833,0.330374 -0.161604,0.357021 0.182681,0.51227 0.9299,0.419317 2.601012,-0.424931 2.943657,-1.487834 0.07576,-0.234975 0.166102,-0.89833 0.210921,-1.536804 0.10186,-1.450922 0.170177,-1.763339 0.538626,-2.50672 0.601935,-1.214359 1.32736,-1.954677 1.928541,-2.032115 z m -20.686568,0.150687 c -0.18328,-7.85e-4 -0.374018,0.06718 -0.529226,0.197779 -0.35782,0.301087 -0.321368,0.555731 0.186436,1.295733 0.545095,0.794327 0.803946,1.51285 0.806069,2.244937 0.0014,0.484662 -0.02366,0.581395 -0.201523,0.792887 -0.160197,0.190404 -0.253013,0.235046 -0.442577,0.216595 -0.366938,-0.03572 -0.502029,-0.392359 -0.602663,-1.595188 -0.09792,-1.170598 -0.180837,-1.359557 -0.723194,-1.623415 -0.441179,-0.214642 -1.258826,-0.287763 -1.679938,-0.148795 -0.647893,0.213836 -1.109967,0.872411 -1.113047,1.585766 -0.0031,0.729815 0.393252,1.331198 1.097983,1.664868 0.563677,0.266892 0.819445,0.591819 1.19592,1.521736 0.414364,1.023526 0.510942,1.144765 1.065967,1.34282 0.558946,0.199447 1.656846,0.100727 2.258119,-0.20342 0.652216,-0.329855 1.0236,-1.13515 0.9718,-2.107448 -0.03672,-0.689798 -0.22369,-1.144531 -0.711898,-1.728899 -0.519562,-0.62187 -0.800928,-1.332646 -0.926603,-2.342871 -0.07842,-0.630363 -0.184297,-0.954917 -0.339001,-1.037719 -0.09579,-0.05123 -0.202683,-0.07493 -0.312632,-0.07535 z m 33.182503,0.0017 c -0.179382,0.0024 -0.363097,0.02973 -0.548028,0.08095 -0.403693,0.112082 -1.058397,0.771319 -1.182732,1.192154 -0.293938,0.994999 0.223848,2.034323 1.184602,2.376767 1.484244,0.529075 2.95614,-1.040408 2.333469,-2.487886 -0.319207,-0.741997 -1.010275,-1.173242 -1.78732,-1.162003 z M 5.3988565,30.108298 c -0.071954,0.0016 -0.1416956,0.0092 -0.2090389,0.0244 -0.5799885,0.132367 -1.1264279,0.765759 -1.1299976,1.310814 -0.0036,0.548672 0.3760234,1.132689 0.8814041,1.354117 0.5299347,0.23219 1.1484516,0.08253 1.5499828,-0.374782 C 6.9192735,31.935297 6.992009,31.3769 6.7021487,30.81635 6.4857619,30.397899 5.9024657,30.095261 5.3988843,30.10822 Z M 58.426074,32.06885 c -0.449148,0.01056 -0.774009,0.182831 -1.035827,0.544282 -0.515011,0.710991 -0.282372,1.672548 0.497257,2.058484 1.154881,0.571673 2.422634,-0.615423 1.905927,-1.783516 -0.220781,-0.499237 -0.615419,-0.773655 -1.16767,-0.813608 -0.06945,-0.005 -0.135488,-0.007 -0.19962,-0.0055 z" />
  </g>
</svg>
