<?xml version="1.0" encoding="UTF-8" standalone="no"?>
<svg
   width="64"
   height="64"
   version="1.1"
   id="svg73"
   sodipodi:docname="org.gnome.clocks.svg"
   inkscape:version="1.4.2 (ebf0e940d0, 2025-05-08)"
   xmlns:inkscape="http://www.inkscape.org/namespaces/inkscape"
   xmlns:sodipodi="http://sodipodi.sourceforge.net/DTD/sodipodi-0.dtd"
   xmlns="http://www.w3.org/2000/svg"
   xmlns:svg="http://www.w3.org/2000/svg"
   xmlns:rdf="http://www.w3.org/1999/02/22-rdf-syntax-ns#"
   xmlns:cc="http://creativecommons.org/ns#"
   xmlns:dc="http://purl.org/dc/elements/1.1/">
  <metadata
     id="metadata77">
    <rdf:RDF>
      <cc:Work
         rdf:about="">
        <dc:format>image/svg+xml</dc:format>
        <dc:type
           rdf:resource="http://purl.org/dc/dcmitype/StillImage" />
      </cc:Work>
    </rdf:RDF>
  </metadata>
  <sodipodi:namedview
     pagecolor="#f5f7fa"
     bordercolor="#666666"
     borderopacity="1"
     objecttolerance="10"
     gridtolerance="10"
     guidetolerance="10"
     inkscape:pageopacity="0"
     inkscape:pageshadow="2"
     inkscape:window-width="1377"
     inkscape:window-height="886"
     id="namedview75"
     showgrid="false"
     inkscape:zoom="6.2890624"
     inkscape:cx="46.986336"
     inkscape:cy="41.739131"
     inkscape:window-x="0"
     inkscape:window-y="49"
     inkscape:window-maximized="0"
     inkscape:current-layer="g877"
     inkscape:document-rotation="0"
     inkscape:pagecheckerboard="0"
     inkscape:showpageshadow="2"
     inkscape:deskcolor="#d1d1d1" />
  <defs
     id="defs29" />
  <circle
     cx="32.516094"
     cy="31.877844"
     r="0"
     fill="url(#b)"
     stroke-width="1.5715"
     id="circle41"
     style="fill:url(#b)" />
  <g
     aria-label="GZ"
     transform="matrix(1.2212657,0,0,0.81882264,0.4960938,-0.1661539)"
     id="text93"
     style="font-weight:bold;font-size:11.5263px;line-height:1.25;font-family:sans-serif;-inkscape-font-specification:'sans-serif Bold';fill:#f2f2f2;stroke-width:0.288159" />
  <g
     id="g877"
     transform="matrix(1.1,0,0,1.1,-3.1845928,-3.2065454)">
    <path
       id="path10"
       style="fill:#dfdfdf;fill-opacity:1;stroke:none;stroke-width:0.837063;stroke-dasharray:none;stroke-opacity:0.6"
       d="M 32.013581,4.9734705 C 22.008475,4.9944204 12.216049,10.43658 7.4366696,20.038798 5.3467867,24.237565 4.6047249,27.488236 4.6357505,32.300005 c 0.018035,2.795964 0.1514358,3.963021 0.6954235,6.050491 2.7637672,10.605843 11.139305,18.356361 21.942645,20.308223 4.183789,0.7559 9.29813,0.366769 13.36364,-1.019092 C 54.176351,53.024365 61.908756,39.158106 58.558175,25.502819 57.044054,19.332067 52.759216,13.318126 47.219938,9.5850449 42.552661,6.439664 37.254354,4.9624897 32.013581,4.9734705 Z m 0.147395,5.7492415 c 3.937969,0.0035 4.244631,0.04277 6.531197,0.839633 3.837529,1.337355 5.825414,2.577908 8.675137,5.412752 2.082004,2.071136 2.770263,2.971076 3.784759,4.948067 1.908484,3.719155 2.451759,5.954688 2.445185,10.110854 -0.0058,4.086288 -0.39334,5.789879 -2.108679,9.325695 -2.878773,5.933902 -8.443777,10.287406 -14.841014,11.607448 -11.732456,2.420961 -22.905496,-4.440443 -25.804315,-15.847275 -0.72632,-2.858077 -0.725719,-7.205457 0,-10.232632 1.446824,-6.035105 5.674067,-11.27686 11.325443,-14.039818 3.721722,-1.819553 5.180196,-2.128826 9.992287,-2.124724 z m 7.656049,5.999211 c -0.479761,-0.0084 -0.974547,0.129174 -1.285091,0.410209 -0.257246,0.232777 -1.823527,2.791716 -3.483521,5.68835 -3.003978,5.241865 -3.025607,5.269788 -4.271878,5.713998 -1.45218,0.517604 -2.336876,1.583948 -2.53492,3.060497 l -0.134594,1.006276 -6.60811,3.387373 c -3.634576,1.863443 -6.758773,3.567916 -6.941405,3.787968 -0.252715,0.304543 -0.260402,0.559605 -0.03226,1.06076 0.343887,0.754749 1.452051,0.895475 2.320213,0.29486 0.289104,-0.200047 3.211588,-1.714424 6.495922,-3.364933 5.905474,-2.967758 5.979609,-2.998283 6.704281,-2.570213 1.001926,0.591841 2.855655,0.549069 3.903337,-0.08972 1.273815,-0.776688 1.77012,-1.937826 1.60556,-3.752711 l -0.137802,-1.512623 3.172667,-5.550553 c 3.271606,-5.724095 3.379615,-6.035319 2.429169,-7.117653 -0.255441,-0.290881 -0.721992,-0.443528 -1.201764,-0.45187 z m -7.925244,13.312355 c 1.89545,0 2.85586,2.163534 1.51903,3.419424 -1.326393,1.246079 -3.486722,0.392992 -3.486722,-1.374821 0,-1.2961 0.721877,-2.044603 1.967692,-2.044603 z" />
  </g>
</svg>
