<?xml version="1.0" encoding="UTF-8" standalone="no"?>
<svg
   width="64"
   height="64"
   version="1.1"
   id="svg73"
   sodipodi:docname="org.raspberrypi.rpi-imager.svg"
   inkscape:version="1.4.2 (ebf0e940d0, 2025-05-08)"
   xmlns:inkscape="http://www.inkscape.org/namespaces/inkscape"
   xmlns:sodipodi="http://sodipodi.sourceforge.net/DTD/sodipodi-0.dtd"
   xmlns="http://www.w3.org/2000/svg"
   xmlns:svg="http://www.w3.org/2000/svg"
   xmlns:rdf="http://www.w3.org/1999/02/22-rdf-syntax-ns#"
   xmlns:cc="http://creativecommons.org/ns#"
   xmlns:dc="http://purl.org/dc/elements/1.1/">
  <metadata
     id="metadata77">
    <rdf:RDF>
      <cc:Work
         rdf:about="">
        <dc:format>image/svg+xml</dc:format>
        <dc:type
           rdf:resource="http://purl.org/dc/dcmitype/StillImage" />
      </cc:Work>
    </rdf:RDF>
  </metadata>
  <sodipodi:namedview
     pagecolor="#f5f7fa"
     bordercolor="#666666"
     borderopacity="1"
     objecttolerance="10"
     gridtolerance="10"
     guidetolerance="10"
     inkscape:pageopacity="0"
     inkscape:pageshadow="2"
     inkscape:window-width="1377"
     inkscape:window-height="886"
     id="namedview75"
     showgrid="false"
     inkscape:zoom="6.2890624"
     inkscape:cx="46.986336"
     inkscape:cy="41.739131"
     inkscape:window-x="0"
     inkscape:window-y="49"
     inkscape:window-maximized="0"
     inkscape:current-layer="g877"
     inkscape:document-rotation="0"
     inkscape:pagecheckerboard="0"
     inkscape:showpageshadow="2"
     inkscape:deskcolor="#d1d1d1" />
  <defs
     id="defs29" />
  <circle
     cx="32.516094"
     cy="31.877844"
     r="0"
     fill="url(#b)"
     stroke-width="1.5715"
     id="circle41"
     style="fill:url(#b)" />
  <g
     aria-label="GZ"
     transform="matrix(1.2212657,0,0,0.81882264,0.4960938,-0.1661539)"
     id="text93"
     style="font-weight:bold;font-size:11.5263px;line-height:1.25;font-family:sans-serif;-inkscape-font-specification:'sans-serif Bold';fill:#f2f2f2;stroke-width:0.288159" />
  <g
     id="g877"
     transform="matrix(1.1,0,0,1.1,-3.1845928,-3.2065454)">
    <path
       id="path5"
       style="fill:#dfdfdf;fill-opacity:1;stroke:none;stroke-width:0.885781;stroke-dasharray:none;stroke-opacity:0.6"
       d="m 42.372667,4.4929457 c -0.125766,0 -0.778237,0.4369433 -1.244897,0.8339567 -0.504667,0.4293714 -0.646379,0.3966034 -0.797695,-0.187349 L 40.221263,4.7286218 39.477957,5.4084763 C 38.685963,6.1323128 38.427511,6.1402564 38.41436,5.4387384 38.40875,5.1334114 38.308276,5.2041939 37.48069,6.0974466 L 36.556112,7.0975709 36.371806,6.6594372 36.187495,6.2213095 35.716124,6.7984275 c -1.223583,1.4947822 -1.977354,3.2462475 -1.982151,4.6048915 -0.002,0.680648 0.06607,0.924233 0.43208,1.525898 0.250418,0.411658 0.639535,0.833606 0.915542,0.991078 l 0.480431,0.27194 1.127048,-0.818846 c 2.568138,-1.862012 5.198164,-3.283514 8.30029,-4.4930895 2.765704,-1.0784004 2.75856,-1.0166508 -0.0663,0.5499252 -3.444895,1.9103083 -6.314039,3.8874163 -7.695968,5.3028743 -0.586928,0.601149 -0.59201,0.612431 -0.435116,1.136114 0.368699,1.230621 1.903019,2.375224 3.819279,2.846326 0.527441,0.129693 1.406038,0.239335 1.951939,0.244744 l 0.994107,0.0092 -0.250849,-0.274973 c -0.214021,-0.236435 -0.221997,-0.295911 -0.05478,-0.401863 0.107679,-0.06808 0.383852,-0.122731 0.613401,-0.123889 0.478628,-0.002 1.808943,-0.240746 1.909642,-0.341443 0.03715,-0.03707 -0.05174,-0.151981 -0.193327,-0.256833 -0.341667,-0.252181 -0.191194,-0.37746 0.882294,-0.73424 0.479177,-0.159263 1.021303,-0.375172 1.205607,-0.480442 l 0.335401,-0.190349 -0.335401,-0.0092 c -0.341182,-0.0074 -0.779426,-0.209603 -0.664759,-0.308197 0.03471,-0.0299 0.424879,-0.24455 0.867185,-0.477409 0.442349,-0.232862 0.984442,-0.571408 1.205615,-0.75238 l 0.401932,-0.329349 -0.425976,-0.0061 c -0.235204,-0.0025 -0.461644,-0.05638 -0.501575,-0.120843 -0.03956,-0.06454 0.345749,-0.428753 0.858122,-0.809779 0.51241,-0.381031 0.968691,-0.751404 1.012233,-0.82187 0.04506,-0.07231 -0.129665,-0.129905 -0.398886,-0.129905 -0.262416,0 -0.477413,-0.04473 -0.477413,-0.10274 0,-0.05812 0.305636,-0.40769 0.679856,-0.773526 0.374175,-0.365834 0.741316,-0.776533 0.815835,-0.912515 0.116498,-0.212587 0.09842,-0.233421 -0.141944,-0.157121 -0.331198,0.105116 -0.815836,-0.02398 -0.815836,-0.217554 0,-0.0751 0.34666,-0.4748831 0.770504,-0.8883423 L 51.624712,8.5962867 51.08692,8.5207497 C 50.60817,8.4542387 50.558016,8.4121087 50.59746,8.1128845 50.62243,7.9285971 50.816596,7.4604979 51.032625,7.0734588 l 0.3928,-0.7040252 -1.039438,-0.0092 c -0.572002,-0.00508 -1.150344,-0.052889 -1.28416,-0.105754 -0.230457,-0.090871 -0.228936,-0.1068793 0.03104,-0.341445 0.150534,-0.1362049 0.24184,-0.3017377 0.202394,-0.36561 -0.111888,-0.1810366 -0.961739,-0.1357523 -1.900571,0.099716 -0.470408,0.1179508 -0.892656,0.1739847 -0.939711,0.1268975 -0.04626,-0.047045 -0.01888,-0.2620787 0.06362,-0.4804343 0.08241,-0.2183612 0.110727,-0.3988554 0.06027,-0.3988554 -0.04991,0 -0.528483,0.1214671 -1.060585,0.2689192 -0.532071,0.1474429 -0.998592,0.2689267 -1.036397,0.2689267 -0.159555,0 -0.05053,-0.4683744 0.166173,-0.7130947 0.228814,-0.2586506 0.226074,-0.2647385 -0.166173,-0.1752794 -0.221144,0.050458 -0.761959,0.2691256 -1.202585,0.4834565 -0.853903,0.4153514 -1.081773,0.358669 -0.942737,-0.2326601 0.03956,-0.165872 0.03896,-0.3021623 -0.0032,-0.3021623 z m -22.296252,0.00919 c -0.109703,0.00532 -0.08444,0.1042437 0.03932,0.2930928 0.346129,0.5282792 0.08642,0.7061552 -0.679854,0.4622976 C 19.077056,5.1433263 18.5729,5.0081965 18.314875,4.9583812 c -0.383668,-0.074084 -0.439179,-0.058444 -0.302156,0.084586 0.18082,0.1888104 0.234509,0.7912498 0.06949,0.7886338 -0.05522,-8.737e-4 -0.43452,-0.090568 -0.84,-0.1994262 -0.760045,-0.2040084 -1.876403,-0.2708138 -1.876403,-0.111804 0,0.049477 0.101167,0.2031445 0.223592,0.3384068 0.122399,0.1352828 0.178619,0.2896171 0.123889,0.3444567 -0.05472,0.054861 -0.639013,0.1223455 -1.296258,0.1480544 l -1.193525,0.045278 0.268923,0.3807132 c 0.260124,0.3653135 0.667765,1.362397 0.667765,1.6346789 0,0.072314 -0.239486,0.106722 -0.534819,0.07854 -0.294888,-0.028182 -0.537836,0.00121 -0.537836,0.063481 0,0.062194 0.373873,0.4685164 0.830931,0.9034542 0.457066,0.4349312 0.784269,0.835303 0.728204,0.891367 -0.05606,0.05606 -0.332896,0.10274 -0.616402,0.10274 h -0.516727 l 0.262878,0.368638 c 0.144169,0.202433 0.530752,0.586839 0.858128,0.855103 0.655316,0.536985 0.662938,0.725181 0.03017,0.725181 h -0.416981 l 0.323315,0.347481 c 0.178735,0.190988 0.613703,0.558213 0.963884,0.815825 0.350177,0.257601 0.634532,0.524803 0.634532,0.592237 0,0.06744 -0.216401,0.123889 -0.483453,0.123889 -0.659509,0 -0.478824,0.192571 0.882299,0.942736 0.593002,0.326819 1.058196,0.653566 1.033383,0.728197 -0.02478,0.07464 -0.223042,0.171099 -0.438123,0.211514 l -0.389781,0.0725 0.401863,0.208491 c 0.221167,0.115446 0.821395,0.348704 1.332521,0.516677 l 0.927624,0.305182 -0.311223,0.253814 c -0.171398,0.138783 -0.282274,0.27975 -0.247772,0.314239 0.108317,0.108317 1.460684,0.332374 2.006331,0.332374 0.571833,0 0.796703,0.263285 0.513658,0.60432 -0.143526,0.172939 -0.05205,0.198415 0.688924,0.1964 2.587419,-0.0071 4.890391,-1.170566 5.70175,-2.879504 l 0.320307,-0.667763 -1.051509,-1.006189 C 26.4783,13.859992 25.437348,13.001343 24.741743,12.50629 23.369155,11.529433 19.954954,9.4604307 18.626059,8.7988093 17.572008,8.2740213 17.427357,8.0529213 18.345055,8.3697455 c 3.534449,1.220219 7.491073,3.3004945 9.983305,5.2515095 l 0.830933,0.652661 0.571081,-0.435111 c 1.482785,-1.130961 1.629003,-2.766973 0.459277,-5.1215794 -0.656402,-1.3213255 -1.805286,-2.7585684 -1.815963,-2.2722258 -0.01465,0.666514 -0.289057,0.5785893 -1.220714,-0.389787 l -0.921586,-0.9578403 -0.0032,0.4260429 c -0.0021,0.2352458 -0.06719,0.4686233 -0.144946,0.5166954 -0.07778,0.04811 -0.486632,-0.2345851 -0.90648,-0.6284873 -0.736733,-0.6912142 -0.765043,-0.7041342 -0.809784,-0.3807211 -0.09418,0.6808725 -0.261635,0.6878154 -1.117986,0.057433 -0.902215,-0.6641717 -1.053066,-0.7166131 -0.951797,-0.329356 0.03828,0.1463514 0.03629,0.3581521 -0.0059,0.4683483 -0.06339,0.1650549 -0.249734,0.1183261 -1.051541,-0.265903 C 20.581483,4.6459899 20.217414,4.4952062 20.076329,4.5021208 Z M 32.174826,19.283745 c -2.024491,0.03432 -4.464965,1.169098 -5.466036,2.613649 -0.398844,0.575526 -0.459989,1.299795 -0.157123,1.885466 0.464786,0.898788 2.081835,1.864449 3.710506,2.217841 1.167103,0.253251 3.133363,0.250861 4.378266,-0.006 2.658508,-0.548672 4.041624,-1.92997 3.459706,-3.453701 -0.578296,-1.514253 -3.002882,-2.990068 -5.31194,-3.233093 -0.198419,-0.0208 -0.403949,-0.0278 -0.613379,-0.02424 z m -8.684027,1.190452 c -0.74174,-0.0019 -1.577629,0.04901 -2.057692,0.151082 -2.58054,0.548552 -4.469104,2.203432 -5.345176,4.686474 -0.226541,0.64209 -0.472814,2.696244 -0.359569,2.991365 0.319135,0.831659 3.978972,-1.638669 7.236685,-4.882876 1.345984,-1.340401 2.236259,-2.568052 2.018418,-2.785898 -0.10351,-0.103455 -0.750915,-0.158296 -1.492666,-0.160147 z m 17.183734,0.129906 c -0.238795,0.0034 -0.480806,0.01647 -0.725176,0.03934 -0.839404,0.07866 -0.991082,0.129839 -0.991082,0.338411 0,1.083198 5.736887,6.293534 8.185455,7.433091 0.399374,0.185849 0.787436,0.316642 0.861158,0.293091 0.2251,-0.07186 0.229543,-1.784837 0.0059,-2.674111 -0.844523,-3.360697 -3.754277,-5.47972 -7.336352,-5.429789 z m -1.698126,6.006911 c -1.442986,-0.0073 -2.834407,0.526648 -3.885755,1.676974 -0.754583,0.825649 -1.185699,1.810251 -1.377842,3.145466 -0.300183,2.086096 0.589078,4.565191 2.232954,6.233522 0.939663,0.953663 1.763532,1.477352 3.012511,1.915689 0.714465,0.25069 1.08658,0.29896 2.075831,0.262862 1.396179,-0.05123 2.352359,-0.412253 3.257263,-1.22978 1.980473,-1.78924 2.398063,-5.020286 1.003172,-7.77754 -1.363691,-2.695511 -3.913152,-4.215129 -6.318134,-4.227153 z m -13.355388,0.356544 c -0.976035,0.0033 -1.379745,0.07097 -2.118128,0.356545 -4.115678,1.591878 -6.234577,6.517121 -4.372228,10.167618 0.64271,1.259813 2.098064,2.359429 3.51712,2.658991 0.308382,0.06501 0.94729,0.08761 1.420142,0.0518 5.85209,-0.448627 9.108723,-8.24082 5.009782,-11.987028 -1.006208,-0.919562 -1.933974,-1.253129 -3.456688,-1.247871 z m 23.287328,3.556387 c -0.10439,0.0019 -0.1999,0.05346 -0.353477,0.154107 -0.502551,0.329238 -0.749352,1.338666 -0.749352,3.051799 0,3.190289 0.867014,6.629174 1.945896,7.708046 0.455984,0.455985 0.778799,0.395602 1.329492,-0.247743 1.028585,-1.201707 1.54455,-2.737834 1.547022,-4.613953 0.0018,-1.489212 -0.310684,-2.60704 -1.045464,-3.743741 -0.555875,-0.860035 -1.578759,-1.83968 -2.263174,-2.169492 -0.194117,-0.09355 -0.306544,-0.141096 -0.410938,-0.139003 z m -33.820561,0.151074 c -0.186278,-0.01629 -0.391242,0.09618 -0.870215,0.426047 -1.885052,1.298277 -2.873521,3.232955 -2.873521,5.626181 0,1.919165 0.530148,3.489781 1.562154,4.632086 0.264007,0.292182 0.581571,0.531831 0.704031,0.531831 1.329443,0 2.677561,-4.496481 2.538127,-8.466478 -0.05887,-1.67693 -0.304957,-2.434673 -0.870215,-2.69221 -0.06738,-0.0307 -0.128255,-0.05197 -0.190368,-0.05746 z m 17.235097,8.541979 c -1.686621,0.02772 -3.392588,0.662648 -4.722731,1.961009 -0.947332,0.924687 -1.628334,2.343448 -1.734385,3.61078 -0.266868,3.189037 2.251152,6.030677 5.786323,6.529648 0.698971,0.09862 2.115345,-0.06361 2.949066,-0.338379 3.611082,-1.188678 5.365541,-4.983495 3.783022,-8.185508 -1.168446,-2.36423 -3.596241,-3.618512 -6.061295,-3.577624 z m 14.745316,2.26316 c -1.10517,0.02983 -2.396277,0.845515 -4.100283,2.547196 -1.380563,1.378671 -1.619452,1.688984 -2.17554,2.822148 -1.089389,2.219987 -1.447398,4.393508 -0.915541,5.562746 0.289264,0.635834 0.515358,0.840803 1.190506,1.081712 1.211303,0.432306 3.037421,0.0854 4.64719,-0.882293 0.855205,-0.514115 2.457948,-2.138386 2.958134,-3.000432 0.644002,-1.109824 0.911756,-2.187141 0.918549,-3.698413 0.0092,-2.14518 -0.559952,-3.771374 -1.471509,-4.206037 -0.335887,-0.160197 -0.683113,-0.236848 -1.051506,-0.226622 z m -30.040558,0.954803 c -0.374253,0.0024 -0.710761,0.07585 -0.991077,0.220534 -1.486035,0.767136 -1.603532,3.876836 -0.253814,6.704896 0.818986,1.716036 2.953074,3.475868 4.82546,3.979419 0.961402,0.25852 1.932404,0.247321 2.655974,-0.03104 0.820062,-0.314215 1.217462,-1.062676 1.214674,-2.289992 -0.0074,-3.174414 -2.191192,-6.454186 -5.342156,-8.021975 -0.755667,-0.37594 -1.485324,-0.566405 -2.109061,-0.56202 z M 32.591804,53.49394 c -2.460085,-6.44e-4 -3.923562,0.278791 -5.420718,1.033384 -1.629824,0.821466 -1.708774,1.406725 -0.362588,2.725474 0.968003,0.948259 2.611177,1.826582 3.973379,2.127183 2.272107,0.501452 4.94561,-0.369914 6.837841,-2.226895 1.380483,-1.354723 1.335753,-2.051342 -0.184313,-2.791939 -1.388773,-0.676635 -2.437575,-0.866558 -4.843601,-0.867207 z" />
  </g>
</svg>
