<?xml version="1.0" encoding="UTF-8" standalone="no"?>
<svg
   width="64"
   height="64"
   version="1.1"
   id="svg73"
   sodipodi:docname="org.dust3d.dust3d.svg"
   inkscape:version="1.4.2 (ebf0e940d0, 2025-05-08)"
   xmlns:inkscape="http://www.inkscape.org/namespaces/inkscape"
   xmlns:sodipodi="http://sodipodi.sourceforge.net/DTD/sodipodi-0.dtd"
   xmlns="http://www.w3.org/2000/svg"
   xmlns:svg="http://www.w3.org/2000/svg"
   xmlns:rdf="http://www.w3.org/1999/02/22-rdf-syntax-ns#"
   xmlns:cc="http://creativecommons.org/ns#"
   xmlns:dc="http://purl.org/dc/elements/1.1/">
  <metadata
     id="metadata77">
    <rdf:RDF>
      <cc:Work
         rdf:about="">
        <dc:format>image/svg+xml</dc:format>
        <dc:type
           rdf:resource="http://purl.org/dc/dcmitype/StillImage" />
      </cc:Work>
    </rdf:RDF>
  </metadata>
  <sodipodi:namedview
     pagecolor="#f5f7fa"
     bordercolor="#666666"
     borderopacity="1"
     objecttolerance="10"
     gridtolerance="10"
     guidetolerance="10"
     inkscape:pageopacity="0"
     inkscape:pageshadow="2"
     inkscape:window-width="1377"
     inkscape:window-height="886"
     id="namedview75"
     showgrid="false"
     inkscape:zoom="6.2890623"
     inkscape:cx="46.668324"
     inkscape:cy="46.986337"
     inkscape:window-x="264"
     inkscape:window-y="75"
     inkscape:window-maximized="0"
     inkscape:current-layer="g877"
     inkscape:document-rotation="0"
     inkscape:pagecheckerboard="0"
     inkscape:showpageshadow="2"
     inkscape:deskcolor="#d1d1d1" />
  <defs
     id="defs29" />
  <circle
     cx="32.516094"
     cy="31.877844"
     r="0"
     fill="url(#b)"
     stroke-width="1.5715"
     id="circle41"
     style="fill:url(#b)" />
  <g
     aria-label="GZ"
     transform="matrix(1.2212657,0,0,0.81882264,0.4960938,-0.1661539)"
     id="text93"
     style="font-weight:bold;font-size:11.5263px;line-height:1.25;font-family:sans-serif;-inkscape-font-specification:'sans-serif Bold';fill:#f2f2f2;stroke-width:0.288159" />
  <g
     id="g877"
     transform="matrix(1.1,0,0,1.1,-3.1845928,-3.2065454)">
    <path
       style="fill:#dfdfdf;fill-opacity:1;stroke:none;stroke-width:0.686425;stroke-dasharray:none;stroke-opacity:0.6"
       d="m 37.551756,41.932268 c -2.932044,-4.893736 -5.278871,-9.092355 -5.381299,-9.232435 -0.164488,-0.224913 -0.23444,-0.223118 -0.599017,0.01565 -1.104709,0.7229 -4.164265,1.018649 -6.40228,0.618877 -0.557425,-0.09957 -3.351405,-0.877412 -6.208846,-1.728538 L 13.764963,30.058311 11.226118,30.18075 C 9.3750475,30.269908 8.6218137,30.248667 8.4456399,30.102499 8.3127401,29.992208 8.1124103,29.492633 8.0004567,28.992368 7.8269383,28.21701 7.7303947,28.069501 7.3461108,27.992649 6.6501854,27.853457 5.9927585,27.242485 5.7820019,26.539043 5.4626623,25.473179 5.8163538,24.546751 6.9660365,23.437765 7.5016781,22.921082 8.115212,22.21256 8.3294403,21.863279 9.0198982,20.737552 10.836381,19.24015 12.513715,18.414001 c 2.868975,-1.413067 5.838143,-2.033897 11.044132,-2.309232 3.294251,-0.174228 3.919059,-0.32457 7.579247,-1.823682 2.482403,-1.016718 4.627931,-1.632135 5.204671,-1.492884 0.718618,0.173511 1.355336,0.703389 1.840984,1.532093 l 0.449447,0.766883 0.336049,-0.564536 c 0.510321,-0.857237 1.843874,-2.171678 2.60951,-2.572078 0.401803,-0.210134 1.009104,-0.358695 1.474394,-0.360664 1.484381,-0.0062 2.197906,0.893232 2.197906,2.77086 0,1.177921 -0.381377,3.321874 -0.875528,4.921725 l -0.346709,1.122486 0.508506,0.534269 c 0.279726,0.293856 2.901473,3.444237 5.82623,7.000865 4.333227,5.269382 8.026196,8.171387 7.937929,8.469296 -0.0596,0.201044 -0.757422,7.101676 -0.757422,7.101676 -1.777929,3.746419 -6.155928,7.450742 -6.155928,7.450742 -2.701073,2.375997 -7.74382,1.137629 -7.74382,1.137629 z"
       id="path1-9"
       sodipodi:nodetypes="ssssscsssssssssssscsscsscssssscs" />
  </g>
</svg>
