<?xml version="1.0" encoding="UTF-8" standalone="no"?>
<svg
   width="64"
   height="64"
   version="1.1"
   id="svg73"
   sodipodi:docname="org.gnome.Showtime.svg"
   inkscape:version="1.4.2 (ebf0e940d0, 2025-05-08)"
   xmlns:inkscape="http://www.inkscape.org/namespaces/inkscape"
   xmlns:sodipodi="http://sodipodi.sourceforge.net/DTD/sodipodi-0.dtd"
   xmlns="http://www.w3.org/2000/svg"
   xmlns:svg="http://www.w3.org/2000/svg"
   xmlns:rdf="http://www.w3.org/1999/02/22-rdf-syntax-ns#"
   xmlns:cc="http://creativecommons.org/ns#"
   xmlns:dc="http://purl.org/dc/elements/1.1/">
  <metadata
     id="metadata77">
    <rdf:RDF>
      <cc:Work
         rdf:about="">
        <dc:format>image/svg+xml</dc:format>
        <dc:type
           rdf:resource="http://purl.org/dc/dcmitype/StillImage" />
      </cc:Work>
    </rdf:RDF>
  </metadata>
  <sodipodi:namedview
     pagecolor="#f5f7fa"
     bordercolor="#666666"
     borderopacity="1"
     objecttolerance="10"
     gridtolerance="10"
     guidetolerance="10"
     inkscape:pageopacity="0"
     inkscape:pageshadow="2"
     inkscape:window-width="1377"
     inkscape:window-height="886"
     id="namedview75"
     showgrid="false"
     inkscape:zoom="6.2890624"
     inkscape:cx="37.445963"
     inkscape:cy="34.901864"
     inkscape:window-x="1"
     inkscape:window-y="75"
     inkscape:window-maximized="0"
     inkscape:current-layer="g877"
     inkscape:document-rotation="0"
     inkscape:pagecheckerboard="0"
     inkscape:showpageshadow="2"
     inkscape:deskcolor="#d1d1d1" />
  <defs
     id="defs29" />
  <circle
     cx="32.516094"
     cy="31.877844"
     r="0"
     fill="url(#b)"
     stroke-width="1.5715"
     id="circle41"
     style="fill:url(#b)" />
  <g
     aria-label="GZ"
     transform="matrix(1.2212657,0,0,0.81882264,0.4960938,-0.1661539)"
     id="text93"
     style="font-weight:bold;font-size:11.5263px;line-height:1.25;font-family:sans-serif;-inkscape-font-specification:'sans-serif Bold';fill:#f2f2f2;stroke-width:0.288159" />
  <g
     id="g877"
     transform="matrix(1.1,0,0,1.1,-3.1845928,-3.2065454)">
    <path
       style="fill:#dfdfdf;fill-opacity:1;stroke:none;stroke-width:0.904496;stroke-dasharray:none;stroke-opacity:0.6"
       d="m 14.709908,58.886382 c -1.416184,-0.44258 -2.682904,-1.564837 -3.334003,-2.953761 L 11.008246,55.148352 10.972067,32.283685 C 10.931565,6.6783643 10.8531,8.6656946 11.964205,7.1563954 13.313169,5.3239719 15.506512,4.539201 17.654169,5.120534 c 0.823405,0.2228879 2.409798,1.28162 17.030905,11.366091 8.867624,6.116175 16.421541,11.409362 16.786522,11.76263 0.365067,0.353273 0.862481,1.045228 1.105555,1.537674 0.403993,0.818478 0.441951,1.008928 0.441951,2.218266 0,1.251893 -0.02741,1.379611 -0.522144,2.379274 -0.319173,0.645663 -0.732197,1.236192 -1.062439,1.518867 -1.196379,1.024046 -32.555918,22.554381 -33.292299,22.857302 -0.89956,0.370033 -2.466992,0.427452 -3.432391,0.125793 z"
       id="path101" />
  </g>
</svg>
