<?xml version="1.0" encoding="UTF-8" standalone="no"?>
<svg
   width="64"
   height="64"
   version="1.1"
   id="svg73"
   sodipodi:docname="org.xfce.about.svg"
   inkscape:version="1.4.2 (ebf0e940d0, 2025-05-08)"
   xmlns:inkscape="http://www.inkscape.org/namespaces/inkscape"
   xmlns:sodipodi="http://sodipodi.sourceforge.net/DTD/sodipodi-0.dtd"
   xmlns="http://www.w3.org/2000/svg"
   xmlns:svg="http://www.w3.org/2000/svg"
   xmlns:rdf="http://www.w3.org/1999/02/22-rdf-syntax-ns#"
   xmlns:cc="http://creativecommons.org/ns#"
   xmlns:dc="http://purl.org/dc/elements/1.1/">
  <metadata
     id="metadata77">
    <rdf:RDF>
      <cc:Work
         rdf:about="">
        <dc:format>image/svg+xml</dc:format>
        <dc:type
           rdf:resource="http://purl.org/dc/dcmitype/StillImage" />
      </cc:Work>
    </rdf:RDF>
  </metadata>
  <sodipodi:namedview
     pagecolor="#f5f7fa"
     bordercolor="#666666"
     borderopacity="1"
     objecttolerance="10"
     gridtolerance="10"
     guidetolerance="10"
     inkscape:pageopacity="0"
     inkscape:pageshadow="2"
     inkscape:window-width="1377"
     inkscape:window-height="886"
     id="namedview75"
     showgrid="false"
     inkscape:zoom="6.2890624"
     inkscape:cx="47.622361"
     inkscape:cy="45.396274"
     inkscape:window-x="20"
     inkscape:window-y="75"
     inkscape:window-maximized="0"
     inkscape:current-layer="g877"
     inkscape:document-rotation="0"
     inkscape:pagecheckerboard="0"
     inkscape:showpageshadow="2"
     inkscape:deskcolor="#d1d1d1" />
  <defs
     id="defs29" />
  <circle
     cx="32.516094"
     cy="31.877844"
     r="0"
     fill="url(#b)"
     stroke-width="1.5715"
     id="circle41"
     style="fill:url(#b)" />
  <g
     aria-label="GZ"
     transform="matrix(1.2212657,0,0,0.81882264,0.4960938,-0.1661539)"
     id="text93"
     style="font-weight:bold;font-size:11.5263px;line-height:1.25;font-family:sans-serif;-inkscape-font-specification:'sans-serif Bold';fill:#f2f2f2;stroke-width:0.288159" />
  <g
     id="g877"
     transform="matrix(1.1,0,0,1.1,-3.1845928,-3.2065454)">
    <path
       id="path1"
       style="fill:#dfdfdf;fill-opacity:1;stroke:none;stroke-width:0.627642;stroke-dasharray:none;stroke-opacity:0.6"
       d="m 4.6596445,17.578783 c -0.017543,0 -0.033048,0.0026 -0.048075,0.0063 -0.1520481,0.03817 -0.1984055,0.209339 -0.099692,0.368913 0.095047,0.15411 0.4930996,0.461579 1.0388718,0.803294 1.3307761,0.832919 3.5435526,1.914281 6.2948977,3.076092 2.955217,1.247899 6.717309,3.581372 9.38096,5.818779 0.880277,0.73938 1.677033,1.608726 1.677016,1.830323 0,0.03421 -0.06297,0.148714 -0.139601,0.254256 -0.20697,0.285185 -0.610392,0.968241 -0.828225,1.402195 -0.543036,1.08178 -0.898904,2.297636 -1.069403,3.655659 -0.08742,0.696317 -0.07083,2.76359 0.02866,3.582132 0.04432,0.364432 0.08103,0.7371 0.081,0.828222 -4e-6,0.231217 -0.159795,0.447965 -0.894287,1.211492 -1.017242,1.05751 -1.291294,1.486575 -1.296249,2.032242 -0.0026,0.298592 -2.68e-4,0.305762 0.152049,0.445596 0.13985,0.128694 0.17771,0.142164 0.401347,0.142075 0.294624,5e-6 0.724213,-0.129107 1.402811,-0.420655 0.598554,-0.257163 0.994178,-0.408193 1.069404,-0.40819 0.127216,1.2e-5 0.03223,0.426911 -0.377036,1.698209 -0.532421,1.653773 -0.604189,2.250568 -0.296641,2.465981 0.313503,0.21955 0.726836,-0.06827 3.155862,-2.199252 0.773221,-0.678336 1.492846,-1.300139 1.599751,-1.381622 0.106931,-0.08143 0.195657,-0.168144 0.19691,-0.192584 l 5e-6,-6.55e-4 -4e-6,-6.56e-4 h 6.58e-4 l -2e-6,-6.53e-4 v -6.52e-4 l 6.54e-4,-4e-6 6.5e-4,-6.48e-4 6.57e-4,-6.52e-4 c 0.03223,-0.01547 0.293717,0.03753 0.66494,0.136482 1.150391,0.306565 2.457971,0.54402 3.828291,0.695489 3.160746,0.349366 7.351197,0.237037 10.831751,-0.291035 l 0.726035,-0.110292 1.157901,0.519127 c 4.025025,1.805111 5.587024,2.347165 5.947775,2.063397 0.163441,-0.128548 0.330558,-0.479787 0.354609,-0.744713 0.05416,-0.597321 -0.289184,-1.202586 -1.294374,-2.282139 -0.814748,-0.875014 -1.05445,-1.200858 -1.054452,-1.430858 0,-0.108174 0.0032,-0.109252 0.217488,-0.08039 0.288971,0.03885 0.974105,0.237373 2.284637,0.661836 1.324351,0.428943 1.780981,0.552856 2.15874,0.585806 0.471742,0.04115 0.640025,-0.09197 0.640042,-0.506641 -1.6e-5,-0.567892 -0.481509,-1.289513 -1.86274,-2.791916 -0.403877,-0.439293 -0.706538,-0.80673 -0.768994,-0.93355 -0.251131,-0.509812 -0.199162,-1.116459 0.129028,-1.505735 0.180654,-0.214247 0.446434,-0.365737 1.529312,-0.871848 3.942912,-1.842833 5.88472,-2.990406 7.040861,-4.161698 0.657332,-0.665985 0.886126,-1.093572 0.888687,-1.659572 0.0044,-1.097235 -0.819382,-2.276048 -2.183674,-3.12221 -1.59635,-0.990089 -3.664681,-1.605588 -7.4503,-2.217326 -0.633943,-0.102465 -1.220622,-0.198127 -1.303101,-0.212538 l -0.149584,-0.02616 -0.02181,-1.124246 c -0.04313,-2.229327 -0.352485,-3.44885 -1.051393,-4.143547 -0.3432,-0.341146 -0.893048,-0.473873 -1.41215,-0.34089 -0.936741,0.239982 -1.339583,0.881131 -1.338625,2.13133 0.0013,0.815101 0.138343,1.617229 0.482978,2.818088 0.100463,0.350026 0.182601,0.671097 0.182602,0.713562 0,0.04829 -0.03969,0.08735 -0.105963,0.104082 -0.140247,0.03517 -0.45881,-0.0026 -0.531559,-0.06293 -0.03203,-0.02633 -0.156218,-0.26663 -0.276068,-0.53346 -0.904961,-2.014339 -1.26836,-2.648948 -1.812901,-3.167095 -0.626573,-0.596167 -1.219095,-0.594328 -1.825342,0.0069 -0.463275,0.459406 -0.641298,0.967329 -0.640026,1.826588 0.0013,0.612954 0.0449,0.894761 0.308486,1.987372 0.09065,0.375831 0.171451,0.720974 0.180105,0.766532 0.01137,0.05943 -0.03855,0.124555 -0.176992,0.231198 -0.219496,0.169116 -0.450022,0.5337 -0.61198,0.968444 -0.38246,1.026551 -0.595201,1.39537 -0.889297,1.540544 -0.443138,0.218723 -1.456528,0.278041 -2.712776,0.158281 -1.138003,-0.108482 -2.298,-0.294185 -5.400613,-0.863746 -2.965272,-0.544352 -3.40896,-0.560488 -4.591699,-0.167643 -0.236291,0.07849 -0.788753,0.323101 -1.227695,0.543427 L 24.15433,28.100902 23.580988,27.559969 C 21.147153,25.26495 18.59275,23.427298 16.049768,22.141149 14.621562,21.418817 13.688976,21.050986 12.214001,20.628654 10.480806,20.132387 9.0265998,19.553542 6.1926863,18.230601 5.0311905,17.688381 4.7829937,17.57786 4.6596259,17.578734 Z m 52.3858085,4.228378 c -0.0094,4.56e-4 -0.01788,0.0019 -0.02684,0.0055 -0.206766,0.07934 -0.658031,2.359824 -0.66869,3.379595 -0.0044,0.379154 0.0044,0.45265 0.07414,0.527841 0.136704,0.151276 0.233232,0.106568 0.350858,-0.162658 0.305122,-0.698243 0.596987,-3.426575 0.393238,-3.676228 -0.04189,-0.05192 -0.08304,-0.07667 -0.122758,-0.07417 z m 2.370623,0.86936 c -0.05443,0.01819 -0.5504,0.695077 -0.805795,1.102428 -0.494681,0.78917 -0.876311,1.591862 -0.935421,1.966805 l -0.02607,0.165751 0.146411,-0.163949 c 0.209088,-0.23291 0.586153,-0.875104 1.033311,-1.761723 0.394581,-0.782362 0.619592,-1.280546 0.591398,-1.308712 l -0.0021,-5.87e-4 h -0.002 -0.002 -0.002 -0.0021 z m -2.447296,0.06482 0.002,-2e-6 c 1.45e-4,-3e-6 0.0032,0 0.0045,0 l 0.002,2e-6 0.002,-2e-6 0.0021,5.88e-4 0.002,5.91e-4 0.002,5.86e-4 c 0.0045,0.0068 0.0081,0.02758 0.0091,0.06233 0.0055,0.301384 -0.108922,1.243772 -0.227469,1.854009 -0.07603,0.392149 -0.126232,0.601821 -0.150791,0.628794 -3.22e-4,3.13e-4 -0.0045,0.0014 -0.0042,0.0018 l -0.0021,5.95e-4 h -0.002 -0.002 -0.0021 -0.002 -0.002 -0.002 l -0.0021,-5.89e-4 -0.002,-5.92e-4 c -0.0115,-0.0161 -0.01237,-0.113038 -0.0045,-0.289179 0.04193,-0.666668 0.302425,-2.191126 0.371299,-2.257143 l 0.002,-5.87e-4 c 2.92e-4,-1.76e-4 0.0045,-0.0012 0.0045,-0.0014 z m -7.414128,3.583996 c 0.262505,0.0011 0.525394,0.107536 0.704208,0.319073 0.484934,0.573782 0.311896,1.51874 -0.332797,1.817858 -0.305558,0.141754 -0.731386,0.07518 -0.997733,-0.156412 -0.267985,-0.233026 -0.420739,-0.696267 -0.352095,-1.067533 0.04782,-0.258315 0.118012,-0.410342 0.276691,-0.598895 0.176749,-0.210275 0.439164,-0.315127 0.701716,-0.314096 z m -1.930033,0.517875 0.04608,0.175741 c 0.200388,0.764549 0.371632,1.148095 0.643129,1.438334 0.373938,0.399765 0.855985,0.548391 1.770493,0.545292 l 0.531587,-0.0018 -0.179319,0.164063 c -0.296448,0.270935 -0.772404,0.573252 -1.000209,0.635669 -0.77341,0.21181 -1.36501,-0.02444 -1.839686,-0.734124 -0.283921,-0.424426 -0.404095,-0.814331 -0.403951,-1.311952 1.33e-4,-0.445103 0.07656,-0.650423 0.304743,-0.818256 z m 4.703239,4.34928 c 0.158443,-0.0077 0.282771,0.02036 0.383275,0.08164 0.191777,0.116947 0.187,0.293477 -0.01318,0.476746 -0.364641,0.33376 -2.002756,1.044528 -3.198244,1.387229 -0.652819,0.18717 -0.923688,0.15688 -0.792707,-0.08786 0.100782,-0.188359 1.053423,-0.793556 1.985507,-1.261343 0.77503,-0.389025 1.286692,-0.579165 1.635257,-0.5964 z m 0.604492,1.074387 c 0.119814,0.0013 0.209254,0.05779 0.267338,0.170129 0.08612,0.166568 0.07493,0.427414 -0.02674,0.626924 -0.236392,0.463379 -1.048848,1.12647 -2.189287,1.786708 h -0.0018 c -0.261341,0.151308 -0.504394,0.275462 -0.540292,0.275463 -0.08749,-1.2e-5 -0.164533,-0.0826 -0.164545,-0.175706 -8e-6,-0.234291 0.511237,-0.948506 1.157885,-1.618439 0.685643,-0.71047 1.19016,-1.068308 1.49628,-1.065046 z M 41.990919,42.870548 c 0.0018,-6.7e-5 0.0023,0 0.0044,0 0.02282,0 0.04189,0.01849 0.04176,0.04111 0,0.02282 -0.01895,0.04177 -0.04177,0.04176 -0.02281,-1.2e-5 -0.04124,-0.01915 -0.04112,-0.04173 0,-0.02141 0.0161,-0.03893 0.03678,-0.04112 z" />
  </g>
</svg>
