<?xml version="1.0" encoding="UTF-8" standalone="no"?>
<svg
   width="64"
   height="64"
   version="1.1"
   id="svg73"
   sodipodi:docname="org.clementine_player.Clementine.svg"
   inkscape:version="1.4.2 (ebf0e940d0, 2025-05-08)"
   xmlns:inkscape="http://www.inkscape.org/namespaces/inkscape"
   xmlns:sodipodi="http://sodipodi.sourceforge.net/DTD/sodipodi-0.dtd"
   xmlns="http://www.w3.org/2000/svg"
   xmlns:svg="http://www.w3.org/2000/svg"
   xmlns:rdf="http://www.w3.org/1999/02/22-rdf-syntax-ns#"
   xmlns:cc="http://creativecommons.org/ns#"
   xmlns:dc="http://purl.org/dc/elements/1.1/">
  <metadata
     id="metadata77">
    <rdf:RDF>
      <cc:Work
         rdf:about="">
        <dc:format>image/svg+xml</dc:format>
        <dc:type
           rdf:resource="http://purl.org/dc/dcmitype/StillImage" />
      </cc:Work>
    </rdf:RDF>
  </metadata>
  <sodipodi:namedview
     pagecolor="#f5f7fa"
     bordercolor="#666666"
     borderopacity="1"
     objecttolerance="10"
     gridtolerance="10"
     guidetolerance="10"
     inkscape:pageopacity="0"
     inkscape:pageshadow="2"
     inkscape:window-width="1377"
     inkscape:window-height="886"
     id="namedview75"
     showgrid="false"
     inkscape:zoom="6.2890624"
     inkscape:cx="34.901864"
     inkscape:cy="35.06087"
     inkscape:window-x="1"
     inkscape:window-y="75"
     inkscape:window-maximized="0"
     inkscape:current-layer="g877"
     inkscape:document-rotation="0"
     inkscape:pagecheckerboard="0"
     inkscape:showpageshadow="2"
     inkscape:deskcolor="#d1d1d1" />
  <defs
     id="defs29" />
  <circle
     cx="32.516094"
     cy="31.877844"
     r="0"
     fill="url(#b)"
     stroke-width="1.5715"
     id="circle41"
     style="fill:url(#b)" />
  <g
     aria-label="GZ"
     transform="matrix(1.2212657,0,0,0.81882264,0.4960938,-0.1661539)"
     id="text93"
     style="font-weight:bold;font-size:11.5263px;line-height:1.25;font-family:sans-serif;-inkscape-font-specification:'sans-serif Bold';fill:#f2f2f2;stroke-width:0.288159" />
  <g
     id="g877"
     transform="matrix(1.1,0,0,1.1,-3.1845928,-3.2065454)">
    <path
       style="fill:#dfdfdf;fill-opacity:1;stroke:none;stroke-width:0.116881;stroke-opacity:1"
       d="M 30.90732,52.583045 C 23.724013,51.988291 17.100604,48.914998 12.040356,43.828668 11.298862,43.083341 10.353917,42.056153 9.9404749,41.546002 8.0844262,39.255826 6.1035507,35.772637 5.0882608,33.013836 4.5317219,31.501593 3.8248876,28.695356 3.5554653,26.928434 c -0.3019173,-1.980048 -0.3019173,-6.552225 0,-8.532277 0.355377,-2.330655 1.5383006,-6.58957 1.9444563,-7.000709 0.060778,-0.06161 0.3589889,0.0049 0.7233913,0.162349 0.3409441,0.146894 0.8383352,0.360925 1.1053023,0.475587 L 7.8140077,12.241881 7.2944,13.799565 c -2.0788077,6.231901 -1.9238712,13.014993 0.4324323,18.932766 3.2691397,8.210306 10.2717507,14.379508 18.7592517,16.526627 6.386676,1.615672 12.933333,0.943051 18.810798,-1.932714 5.322995,-2.604458 9.586296,-6.768247 12.388468,-12.099309 0.371574,-0.707126 0.734319,-1.268375 0.805848,-1.247224 0.12695,0.0375 2.086037,0.857855 2.148625,0.899692 0.06356,0.04231 -0.853047,1.893005 -1.416413,2.860469 -4.663699,8.009054 -12.915227,13.493501 -22.049726,14.655482 -1.740158,0.221289 -4.765255,0.312039 -6.266383,0.187678 z m 2.903758,-4.614586 c -1.201498,-0.337972 -1.761249,-0.80131 -1.858732,-1.538693 -0.05376,-0.40616 0.100815,-3.600984 0.604056,-12.4885 0.09461,-1.671394 0.203954,-3.472813 0.242916,-4.003158 l 0.07081,-0.964265 0.60313,-0.0016 c 0.331734,-0.0011 0.907538,-0.07347 1.279601,-0.161017 l 0.676459,-0.159185 0.186995,0.365546 c 0.102872,0.20104 1.895538,3.621192 3.983769,7.600332 2.088222,3.97913 3.846181,7.41368 3.906553,7.63235 0.376993,1.365725 -1.329836,2.734264 -4.433483,3.55457 -1.221172,0.322715 -4.350573,0.420146 -5.262055,0.163782 z m -8.968263,-0.93009 c -2.604805,-0.679082 -5.129534,-2.059549 -6.731725,-3.68076 -1.014638,-1.026676 -1.355183,-1.703501 -1.219914,-2.42455 0.09214,-0.491068 -0.217367,-0.161019 7.84157,-8.362924 2.57512,-2.620799 4.719455,-4.765097 4.765201,-4.765097 0.04577,0 0.282289,0.125672 0.525655,0.279328 0.243335,0.153611 0.715692,0.37635 1.049597,0.494959 0.513677,0.182444 0.607085,0.260872 0.606861,0.509624 -3.51e-4,0.430076 -1.211469,9.909824 -1.751717,13.7116 -0.317188,2.232061 -0.530268,3.380047 -0.672571,3.623709 -0.114514,0.196056 -0.439411,0.478877 -0.721897,0.628268 -0.711045,0.376085 -2.216686,0.370205 -3.691062,-0.0142 z M 45.70511,43.08717 C 45.174941,42.726077 42.8371,39.030422 38.128478,31.110159 l -1.752584,-2.947989 0.428128,-0.263285 c 0.235448,-0.144799 0.638509,-0.455418 0.895645,-0.690241 l 0.467516,-0.426948 7.75176,3.362772 c 4.263458,1.849528 7.87792,3.481315 8.032156,3.626195 0.839311,0.788528 0.552334,2.441925 -0.781007,4.499337 -2.262404,3.490976 -5.933786,5.860126 -7.464982,4.81717 z M 13.966658,38.385863 C 12.652402,37.728722 11.34549,36.22832 10.400679,34.291908 9.6944291,32.844447 9.42671,31.764374 9.5119644,30.706599 c 0.086273,-1.070421 0.4374876,-1.671 1.2098006,-2.068769 0.458641,-0.236213 5.591745,-1.399215 10.903271,-2.470341 2.862612,-0.577277 5.321691,-1.076796 5.464618,-1.110035 0.210556,-0.04892 0.303605,0.02518 0.490143,0.390918 0.126632,0.248238 0.422298,0.70294 0.657016,1.010428 l 0.426743,0.559078 -0.274045,0.259545 c -4.512799,4.274076 -11.658014,10.70043 -12.429612,11.179106 -0.498824,0.309453 -1.289041,0.281439 -1.993241,-0.07068 z M 32.077614,26.5856 c -0.700508,-0.231202 -1.345436,-0.67221 -1.893384,-1.294708 -0.507691,-0.576774 -0.994451,-1.672902 -0.935008,-2.105569 0.03296,-0.239656 0.232196,-0.169274 3.278913,1.158296 1.784125,0.777405 3.228453,1.466631 3.209615,1.531616 -0.01914,0.06498 -0.339589,0.27177 -0.712802,0.459549 -0.801259,0.403118 -2.140556,0.517092 -2.947334,0.250816 z M 9.0439452,26.067837 c -1.6737713,-1.06175 -1.7660762,-5.789618 -0.178926,-9.165852 0.4942223,-1.051354 1.2236658,-1.836926 1.7056688,-1.836926 0.153384,0 3.900668,1.543074 8.327402,3.429055 l 8.048603,3.429047 v 1.041634 1.041626 l -2.571383,0.433833 c -5.030578,0.84874 -11.225457,1.661121 -13.675019,1.79331 -1.1577389,0.06248 -1.3225695,0.04595 -1.6563227,-0.16573 z"
       id="path1-6" />
  </g>
</svg>
