<?xml version="1.0" encoding="UTF-8" standalone="no"?>
<svg
   width="64"
   height="64"
   version="1.1"
   id="svg73"
   sodipodi:docname="org.vinegarhq.Sober.svg"
   inkscape:version="1.4.2 (ebf0e940d0, 2025-05-08)"
   xmlns:inkscape="http://www.inkscape.org/namespaces/inkscape"
   xmlns:sodipodi="http://sodipodi.sourceforge.net/DTD/sodipodi-0.dtd"
   xmlns="http://www.w3.org/2000/svg"
   xmlns:svg="http://www.w3.org/2000/svg"
   xmlns:rdf="http://www.w3.org/1999/02/22-rdf-syntax-ns#"
   xmlns:cc="http://creativecommons.org/ns#"
   xmlns:dc="http://purl.org/dc/elements/1.1/">
  <metadata
     id="metadata77">
    <rdf:RDF>
      <cc:Work
         rdf:about="">
        <dc:format>image/svg+xml</dc:format>
        <dc:type
           rdf:resource="http://purl.org/dc/dcmitype/StillImage" />
      </cc:Work>
    </rdf:RDF>
  </metadata>
  <sodipodi:namedview
     pagecolor="#f5f7fa"
     bordercolor="#666666"
     borderopacity="1"
     objecttolerance="10"
     gridtolerance="10"
     guidetolerance="10"
     inkscape:pageopacity="0"
     inkscape:pageshadow="2"
     inkscape:window-width="1377"
     inkscape:window-height="886"
     id="namedview75"
     showgrid="false"
     inkscape:zoom="6.2890624"
     inkscape:cx="47.622361"
     inkscape:cy="45.396274"
     inkscape:window-x="264"
     inkscape:window-y="75"
     inkscape:window-maximized="0"
     inkscape:current-layer="g877"
     inkscape:document-rotation="0"
     inkscape:pagecheckerboard="0"
     inkscape:showpageshadow="2"
     inkscape:deskcolor="#d1d1d1" />
  <defs
     id="defs29" />
  <circle
     cx="32.516094"
     cy="31.877844"
     r="0"
     fill="url(#b)"
     stroke-width="1.5715"
     id="circle41"
     style="fill:url(#b)" />
  <g
     aria-label="GZ"
     transform="matrix(1.2212657,0,0,0.81882264,0.4960938,-0.1661539)"
     id="text93"
     style="font-weight:bold;font-size:11.5263px;line-height:1.25;font-family:sans-serif;-inkscape-font-specification:'sans-serif Bold';fill:#f2f2f2;stroke-width:0.288159" />
  <g
     id="g877"
     transform="matrix(1.1,0,0,1.1,-3.1845928,-3.2065454)">
    <path
       style="fill:#dfdfdf;fill-opacity:1;stroke-width:1.4641"
       d="M 25.8412,53.143997 C 15.608457,50.368303 6.9117025,47.827961 6.5150802,47.498792 6.1184591,47.169624 5.793948,46.525229 5.793948,46.066803 c 0,-0.967562 3.9962548,-16.119646 4.441411,-16.839922 0.492989,-0.797675 2.534111,-0.559041 8.208413,0.959667 6.053601,1.620228 7.199898,2.328006 6.790342,4.192689 -0.175083,0.797154 -0.0286,1.4449 0.408842,1.807948 0.892863,0.741011 9.007612,2.907713 9.775691,2.610189 0.326879,-0.126619 0.953472,-0.859411 1.39243,-1.628421 0.473183,-0.828969 1.184408,-1.3982 1.746979,-1.3982 1.747143,0 12.820572,3.215166 13.214889,3.836937 0.214138,0.337661 0.392568,0.856693 0.396517,1.153411 0.01547,1.163547 -4.198965,16.218321 -4.713829,16.838693 -0.30105,0.362745 -1.101332,0.644096 -1.778404,0.625227 C 45.000157,58.206145 36.073942,55.91969 25.8412,53.143997 Z M 45.617468,34.046 c -3.22102,-0.906072 -6.119938,-1.863221 -6.44204,-2.126996 -0.322102,-0.263776 -0.58564,-1.16587 -0.58564,-2.004651 0,-1.96005 -0.402697,-2.240453 -4.951282,-3.44765 -4.937406,-1.310393 -5.739619,-1.287452 -6.297571,0.180071 -0.247435,0.650807 -0.814583,1.323235 -1.260326,1.49428 -0.806648,0.30954 -9.771541,-1.778091 -12.673341,-2.951206 -1.100339,-0.444836 -1.521812,-0.914583 -1.519591,-1.69363 0.0046,-1.620585 4.028116,-16.2195269 4.689898,-17.0169265 0.316464,-0.3813194 0.83638,-0.6933083 1.155364,-0.6933083 1.243922,0 39.288025,10.3246618 39.892429,10.8262738 0.913568,0.758194 0.874076,1.01927 -1.50331,9.938738 -2.008334,7.534851 -2.800485,9.28645 -4.152097,9.181085 C 51.69711,35.71081 48.838488,34.952073 45.617468,34.046 Z"
       id="path1" />
  </g>
</svg>
