<?xml version="1.0" encoding="UTF-8" standalone="no"?>
<svg
   width="64"
   height="64"
   version="1.1"
   id="svg73"
   sodipodi:docname="org.duckstation.DuckStation.svg"
   inkscape:version="1.4.2 (ebf0e940d0, 2025-05-08)"
   xmlns:inkscape="http://www.inkscape.org/namespaces/inkscape"
   xmlns:sodipodi="http://sodipodi.sourceforge.net/DTD/sodipodi-0.dtd"
   xmlns="http://www.w3.org/2000/svg"
   xmlns:svg="http://www.w3.org/2000/svg"
   xmlns:rdf="http://www.w3.org/1999/02/22-rdf-syntax-ns#"
   xmlns:cc="http://creativecommons.org/ns#"
   xmlns:dc="http://purl.org/dc/elements/1.1/">
  <metadata
     id="metadata77">
    <rdf:RDF>
      <cc:Work
         rdf:about="">
        <dc:format>image/svg+xml</dc:format>
        <dc:type
           rdf:resource="http://purl.org/dc/dcmitype/StillImage" />
      </cc:Work>
    </rdf:RDF>
  </metadata>
  <sodipodi:namedview
     pagecolor="#f5f7fa"
     bordercolor="#666666"
     borderopacity="1"
     objecttolerance="10"
     gridtolerance="10"
     guidetolerance="10"
     inkscape:pageopacity="0"
     inkscape:pageshadow="2"
     inkscape:window-width="1377"
     inkscape:window-height="886"
     id="namedview75"
     showgrid="false"
     inkscape:zoom="6.2890624"
     inkscape:cx="46.350311"
     inkscape:cy="41.898137"
     inkscape:window-x="264"
     inkscape:window-y="75"
     inkscape:window-maximized="0"
     inkscape:current-layer="g877"
     inkscape:document-rotation="0"
     inkscape:pagecheckerboard="0"
     inkscape:showpageshadow="2"
     inkscape:deskcolor="#d1d1d1" />
  <defs
     id="defs29" />
  <circle
     cx="32.516094"
     cy="31.877844"
     r="0"
     fill="url(#b)"
     stroke-width="1.5715"
     id="circle41"
     style="fill:url(#b)" />
  <g
     aria-label="GZ"
     transform="matrix(1.2212657,0,0,0.81882264,0.4960938,-0.1661539)"
     id="text93"
     style="font-weight:bold;font-size:11.5263px;line-height:1.25;font-family:sans-serif;-inkscape-font-specification:'sans-serif Bold';fill:#f2f2f2;stroke-width:0.288159" />
  <g
     id="g877"
     transform="matrix(1.1,0,0,1.1,-3.1845928,-3.2065454)">
    <path
       style="fill:#dfdfdf;fill-opacity:1;stroke:none;stroke-width:0.922862;stroke-dasharray:none;stroke-opacity:0.6"
       d="m 35.223333,59.496393 c 3.601228,-0.230275 6.755169,-0.82031 9.728461,-1.819829 2.979643,-1.001692 5.787763,-2.46834 7.532802,-3.934329 3.465147,-2.911064 5.234089,-6.790864 5.076851,-11.134981 -0.08564,-2.365345 -0.554393,-4.280176 -1.52995,-6.249185 -0.953788,-1.925149 -2.035529,-3.357247 -4.075938,-5.396119 -1.725139,-1.723843 -1.873274,-1.948036 -1.923119,-2.910545 -0.05392,-1.019994 0.286462,-1.702668 1.395987,-2.809081 0.51268,-0.51124 0.923237,-0.828324 1.934428,-1.49406 1.627804,-1.071675 2.493841,-1.758156 3.514936,-2.786191 0.930244,-0.936551 1.600838,-1.793898 2.228674,-2.849331 0.533485,-0.896855 0.566206,-1.13068 0.208271,-1.488587 -0.184118,-0.184101 -0.282979,-0.2297 -0.49803,-0.2297 -0.688054,0 -3.419476,-0.344052 -4.787126,-0.602988 C 53.211838,15.636649 53.102984,15.539156 52.926318,14.80353 52.343634,12.377243 50.964657,10.006531 49.098048,8.2220483 47.070268,6.2834737 44.638099,5.0737603 41.81031,4.5972596 40.951707,4.4525772 38.832098,4.4341162 37.925682,4.5634123 c -5.440947,0.7762085 -9.92071,4.727495 -11.28128,9.9504117 -0.342182,1.313566 -0.427704,1.992988 -0.432334,3.434458 -0.0076,2.299762 0.367459,3.970213 1.341673,5.978951 0.833579,1.718767 1.751385,2.913305 3.383224,4.403329 0.729299,0.665917 0.986825,1.06186 1.071086,1.646752 0.10384,0.720874 -0.243533,1.408332 -0.785358,1.55423 -0.189535,0.05106 -1.808156,0.06427 -5.314081,0.04323 C 20.620759,31.543105 20.682404,31.54635 19.11057,31.22184 18.283481,31.0511 16.833562,30.552101 16.004972,30.153031 13.992086,29.183569 12.256194,27.767037 11.271827,26.290656 10.849421,25.657118 10.686426,25.491359 10.346075,25.349144 9.6991834,25.07886 9.1461837,25.281318 8.5168594,26.018901 6.5924417,28.274312 5.1884295,31.348463 4.6587688,34.46635 c -0.4431791,2.608929 -0.2576057,5.947328 0.4788604,8.613743 0.6059104,2.193711 1.4373099,4.241791 2.2488387,5.539816 2.1269222,3.401956 5.6618271,6.217915 10.3053701,8.209375 3.065457,1.314667 6.800175,2.170415 11.214745,2.569698 1.362825,0.12337 5.028229,0.179875 6.316744,0.09742 z M 45.692209,17.907457 c -0.666984,-0.198064 -1.159375,-0.627752 -1.462854,-1.276546 -0.158942,-0.339663 -0.189496,-0.49345 -0.188673,-0.949029 7.69e-4,-0.475746 0.02791,-0.599363 0.220189,-0.989223 0.255958,-0.519885 0.623855,-0.877907 1.155749,-1.124637 0.540458,-0.250698 1.299872,-0.250698 1.840308,0 0.523459,0.242836 0.899473,0.603749 1.139761,1.094066 0.433028,0.883683 0.307139,1.858993 -0.329972,2.556081 -0.639286,0.699461 -1.499445,0.949157 -2.374508,0.689288 z"
       id="path1" />
  </g>
</svg>
