<?xml version="1.0" encoding="UTF-8" standalone="no"?>
<svg
   width="64"
   height="64"
   version="1.1"
   id="svg73"
   sodipodi:docname="org.gnome.Maps.svg"
   inkscape:version="1.4.2 (ebf0e940d0, 2025-05-08)"
   xmlns:inkscape="http://www.inkscape.org/namespaces/inkscape"
   xmlns:sodipodi="http://sodipodi.sourceforge.net/DTD/sodipodi-0.dtd"
   xmlns="http://www.w3.org/2000/svg"
   xmlns:svg="http://www.w3.org/2000/svg"
   xmlns:rdf="http://www.w3.org/1999/02/22-rdf-syntax-ns#"
   xmlns:cc="http://creativecommons.org/ns#"
   xmlns:dc="http://purl.org/dc/elements/1.1/">
  <metadata
     id="metadata77">
    <rdf:RDF>
      <cc:Work
         rdf:about="">
        <dc:format>image/svg+xml</dc:format>
        <dc:type
           rdf:resource="http://purl.org/dc/dcmitype/StillImage" />
      </cc:Work>
    </rdf:RDF>
  </metadata>
  <sodipodi:namedview
     pagecolor="#f5f7fa"
     bordercolor="#666666"
     borderopacity="1"
     objecttolerance="10"
     gridtolerance="10"
     guidetolerance="10"
     inkscape:pageopacity="0"
     inkscape:pageshadow="2"
     inkscape:window-width="1377"
     inkscape:window-height="886"
     id="namedview75"
     showgrid="false"
     inkscape:zoom="6.2890624"
     inkscape:cx="46.986336"
     inkscape:cy="41.739131"
     inkscape:window-x="0"
     inkscape:window-y="49"
     inkscape:window-maximized="0"
     inkscape:current-layer="g877"
     inkscape:document-rotation="0"
     inkscape:pagecheckerboard="0"
     inkscape:showpageshadow="2"
     inkscape:deskcolor="#d1d1d1" />
  <defs
     id="defs29" />
  <circle
     cx="32.516094"
     cy="31.877844"
     r="0"
     fill="url(#b)"
     stroke-width="1.5715"
     id="circle41"
     style="fill:url(#b)" />
  <g
     aria-label="GZ"
     transform="matrix(1.2212657,0,0,0.81882264,0.4960938,-0.1661539)"
     id="text93"
     style="font-weight:bold;font-size:11.5263px;line-height:1.25;font-family:sans-serif;-inkscape-font-specification:'sans-serif Bold';fill:#f2f2f2;stroke-width:0.288159" />
  <g
     id="g877"
     transform="matrix(1.1,0,0,1.1,-3.1845928,-3.2065454)">
    <path
       style="fill:#dfdfdf;fill-opacity:1;stroke:none;stroke-width:0.925642;stroke-dasharray:none;stroke-opacity:0.6"
       d="M 29.962211,57.565937 C 19.913446,46.256243 15.09511,36.734324 14.006778,26.035047 13.052148,16.650179 18.515247,7.6880439 26.897914,4.8873334 c 2.550964,-0.8522965 5.717628,-1.0473453 8.351955,-0.5144342 6.859434,1.387622 12.294747,6.8012028 14.29975,14.2425718 0.467247,1.734305 0.523977,2.317649 0.523572,5.382786 -4.52e-4,2.963551 -0.07623,3.797503 -0.549824,6.046601 -1.107525,5.260275 -3.09375,10.23049 -6.105604,15.278485 -2.316501,3.882508 -5.0015,7.361752 -10.725562,13.898266 l -0.624905,0.713549 z m 4.93584,-28.705895 c 2.95762,-1.399179 4.654541,-5.215606 3.902356,-8.77654 -0.539616,-2.554625 -1.820379,-4.294295 -3.923885,-5.32985 -1.152197,-0.567224 -1.550118,-0.6587 -2.86545,-0.6587 -1.260092,0 -1.728647,0.09845 -2.676915,0.562393 -1.489446,0.728707 -3.026867,2.402731 -3.611423,3.932286 -0.835616,2.186501 -0.730009,5.036524 0.25957,7.004525 0.496118,0.986679 2.069778,2.684473 2.879563,3.106726 1.926159,1.00439 4.126867,1.062414 6.036184,0.159168 z"
       id="path7" />
  </g>
</svg>
