<?xml version="1.0" encoding="UTF-8" standalone="no"?>
<svg
   width="64"
   height="64"
   version="1.1"
   id="svg73"
   sodipodi:docname="org.atheme.audacious.svg"
   inkscape:version="1.4.2 (ebf0e940d0, 2025-05-08)"
   xmlns:inkscape="http://www.inkscape.org/namespaces/inkscape"
   xmlns:sodipodi="http://sodipodi.sourceforge.net/DTD/sodipodi-0.dtd"
   xmlns="http://www.w3.org/2000/svg"
   xmlns:svg="http://www.w3.org/2000/svg"
   xmlns:rdf="http://www.w3.org/1999/02/22-rdf-syntax-ns#"
   xmlns:cc="http://creativecommons.org/ns#"
   xmlns:dc="http://purl.org/dc/elements/1.1/">
  <metadata
     id="metadata77">
    <rdf:RDF>
      <cc:Work
         rdf:about="">
        <dc:format>image/svg+xml</dc:format>
        <dc:type
           rdf:resource="http://purl.org/dc/dcmitype/StillImage" />
      </cc:Work>
    </rdf:RDF>
  </metadata>
  <sodipodi:namedview
     pagecolor="#f5f7fa"
     bordercolor="#666666"
     borderopacity="1"
     objecttolerance="10"
     gridtolerance="10"
     guidetolerance="10"
     inkscape:pageopacity="0"
     inkscape:pageshadow="2"
     inkscape:window-width="1377"
     inkscape:window-height="886"
     id="namedview75"
     showgrid="false"
     inkscape:zoom="6.2890624"
     inkscape:cx="47.622361"
     inkscape:cy="45.396274"
     inkscape:window-x="264"
     inkscape:window-y="75"
     inkscape:window-maximized="0"
     inkscape:current-layer="g877"
     inkscape:document-rotation="0"
     inkscape:pagecheckerboard="0"
     inkscape:showpageshadow="2"
     inkscape:deskcolor="#d1d1d1" />
  <defs
     id="defs29" />
  <circle
     cx="32.516094"
     cy="31.877844"
     r="0"
     fill="url(#b)"
     stroke-width="1.5715"
     id="circle41"
     style="fill:url(#b)" />
  <g
     aria-label="GZ"
     transform="matrix(1.2212657,0,0,0.81882264,0.4960938,-0.1661539)"
     id="text93"
     style="font-weight:bold;font-size:11.5263px;line-height:1.25;font-family:sans-serif;-inkscape-font-specification:'sans-serif Bold';fill:#f2f2f2;stroke-width:0.288159" />
  <g
     id="g877"
     transform="matrix(1.1,0,0,1.1,-3.1845928,-3.2065454)">
    <path
       id="path52"
       style="fill:#dfdfdf;fill-opacity:1;stroke:none;stroke-width:0.747516;stroke-dasharray:none;stroke-dashoffset:2.2;stroke-opacity:0.6"
       d="m 32.657875,4.3903573 c -0.55964,-0.00932 -1.126365,-7.547e-4 -1.700756,0.02264 C 16.898402,4.9854101 5.722253,15.67756 4.4766343,29.747096 3.1685914,44.521784 14.13774,57.77093 29.079122,59.463171 c 7.855939,0.88976 16.109537,-1.927403 21.887336,-7.470504 6.52263,-6.25768 9.539928,-14.711635 8.39818,-23.520196 C 58.151307,19.111708 52.374963,11.138612 43.873055,7.0904559 40.163065,5.3239593 36.575341,4.454578 32.657875,4.3903639 Z M 32.250589,19.037212 c 3.519839,-0.0027 5.827073,0.842682 7.779739,2.847162 1.171005,1.20209 2.037037,2.745424 2.564348,4.574315 0.353884,1.227228 0.39056,1.709888 0.384701,4.777959 -0.0055,2.905415 -0.05974,3.65357 -0.380849,5.026839 -0.465151,1.988802 -0.468127,2.154789 -0.01497,3.179016 0.443628,1.002853 0.467515,1.907068 0.06427,2.522845 -0.408593,0.623773 -2.941408,2.42637 -3.612581,2.571878 -0.771543,0.167273 -1.794583,-0.158875 -2.722717,-0.867347 -1.175675,-0.89742 -1.833328,-0.931691 -2.998003,-0.158425 -0.51548,0.342326 -1.355097,0.782872 -1.862914,0.976709 -1.351483,0.515786 -3.850623,0.598438 -5.143744,0.16961 -3.54623,-1.175828 -5.563957,-4.346283 -5.389264,-8.46973 0.05444,-1.284974 0.155174,-1.723492 0.607148,-2.688777 0.640164,-1.367203 1.819355,-2.575537 3.277063,-3.35249 1.520351,-0.810332 2.223527,-1.009812 4.555457,-1.297254 1.175133,-0.144799 2.388776,-0.369281 2.696319,-0.497775 1.164193,-0.486434 1.622635,-1.452545 0.969165,-2.043923 -0.643054,-0.581949 -1.415889,-0.647735 -4.151953,-0.350708 -3.048263,0.330902 -4.571203,0.280905 -5.060781,-0.162152 -0.876829,-0.793512 -1.198265,-2.782429 -0.656169,-4.061452 0.74958,-1.768556 3.868009,-2.692843 9.095834,-2.696315 z m 0.26398,14.50733 c -1.455213,-0.02307 -2.854913,1.312274 -2.432342,2.722716 0.234338,0.782127 0.912451,1.491591 1.625334,1.700758 1.003952,0.294565 2.214911,-0.158554 2.722719,-1.018191 0.646739,-1.094848 0.218925,-2.567357 -0.920145,-3.156391 -0.319721,-0.165323 -0.65974,-0.243567 -0.995566,-0.248892 z" />
  </g>
</svg>
