<?xml version="1.0" encoding="UTF-8" standalone="no"?>
<svg
   width="64"
   height="64"
   version="1.1"
   id="svg73"
   sodipodi:docname="org.olivevideoeditor.Olive.svg"
   inkscape:version="1.4.2 (ebf0e940d0, 2025-05-08)"
   xmlns:inkscape="http://www.inkscape.org/namespaces/inkscape"
   xmlns:sodipodi="http://sodipodi.sourceforge.net/DTD/sodipodi-0.dtd"
   xmlns="http://www.w3.org/2000/svg"
   xmlns:svg="http://www.w3.org/2000/svg"
   xmlns:rdf="http://www.w3.org/1999/02/22-rdf-syntax-ns#"
   xmlns:cc="http://creativecommons.org/ns#"
   xmlns:dc="http://purl.org/dc/elements/1.1/">
  <metadata
     id="metadata77">
    <rdf:RDF>
      <cc:Work
         rdf:about="">
        <dc:format>image/svg+xml</dc:format>
        <dc:type
           rdf:resource="http://purl.org/dc/dcmitype/StillImage" />
      </cc:Work>
    </rdf:RDF>
  </metadata>
  <sodipodi:namedview
     pagecolor="#f5f7fa"
     bordercolor="#666666"
     borderopacity="1"
     objecttolerance="10"
     gridtolerance="10"
     guidetolerance="10"
     inkscape:pageopacity="0"
     inkscape:pageshadow="2"
     inkscape:window-width="1377"
     inkscape:window-height="886"
     id="namedview75"
     showgrid="false"
     inkscape:zoom="6.2890624"
     inkscape:cx="47.622361"
     inkscape:cy="45.396274"
     inkscape:window-x="0"
     inkscape:window-y="49"
     inkscape:window-maximized="0"
     inkscape:current-layer="g877"
     inkscape:document-rotation="0"
     inkscape:pagecheckerboard="0"
     inkscape:showpageshadow="2"
     inkscape:deskcolor="#d1d1d1" />
  <defs
     id="defs29" />
  <circle
     cx="32.516094"
     cy="31.877844"
     r="0"
     fill="url(#b)"
     stroke-width="1.5715"
     id="circle41"
     style="fill:url(#b)" />
  <g
     aria-label="GZ"
     transform="matrix(1.2212657,0,0,0.81882264,0.4960938,-0.1661539)"
     id="text93"
     style="font-weight:bold;font-size:11.5263px;line-height:1.25;font-family:sans-serif;-inkscape-font-specification:'sans-serif Bold';fill:#f2f2f2;stroke-width:0.288159" />
  <g
     id="g877"
     transform="matrix(1.1,0,0,1.1,-3.1845928,-3.2065454)">
    <path
       style="fill:#dfdfdf;fill-opacity:1;stroke:none;stroke-width:0.913631;stroke-dasharray:none;stroke-opacity:0.6"
       d="M 5.7541655,3.6396313 7.6618164,5.1128794 C 1.6109449,7.9826661 17.150714,21.085254 17.150714,21.085254 c 0,0 3.024292,-2.800585 7.455246,-3.095402 4.395017,-4.633375 22.686618,-1.106917 22.001293,2.695673 -6.148686,0.09881 -8.096023,-0.709407 -8.096023,-0.709407 0,0 0.303526,0.360164 0.428862,1.59612 -0.449365,0.380734 -6.80758,-1.084902 -8.136831,-0.980504 -3.782252,0.297383 -6.334941,0.395653 -9.048394,0.704568 1.86674,0.633312 16.742048,3.358625 21.498409,8.088832 -1.268758,0.503188 -1.823633,0.29636 -2.247277,0.456888 -0.372569,0.140978 -0.74944,0.922107 -1.566965,0.925859 -0.585766,0.0021 -0.385547,-0.533545 -1.595278,-1.12189 -7.527,0.307675 -9.967364,-4.416668 -10.710153,-4.995998 -3.322841,-0.815865 -8.920723,-2.660694 -8.920723,-2.660694 0,0 4.739708,3.890989 7.338393,6.050598 0.216114,0.179556 3.778769,0.860826 8.307815,3.133418 2.43449,-2.050222 8.997605,1.428745 7.778104,4.614494 -1.086274,2.837679 -8.374415,-0.08643 -8.106472,-3.946605 -1.663794,-0.533035 -4.737293,-2.061646 -6.703666,-2.790911 1.885205,1.512506 9.291741,7.861107 10.779948,9.6568 6.519707,-0.823735 16.362208,0.850178 22.467616,4.875713 -1.392376,0.37816 -8.017718,1.672674 -9.344799,1.30835 -2.465923,-0.959466 -6.141153,-4.067625 -6.53275,-4.415946 -1.416468,-0.24597 -4.595683,-0.715683 -5.816903,-0.858565 1.238658,1.293015 5.329326,6.155039 6.613747,8.200265 0.532033,-0.115761 3.245424,0.555271 3.997383,1.080996 2.785775,-2.924173 7.302809,2.206832 10.079493,4.684917 -0.729448,1.523576 -12.186356,-0.821314 -10.655165,-4.235446 -0.818734,-0.112118 -2.457349,-1.037819 -3.061575,-1.086959 0.617614,0.832175 1.964657,1.961675 3.739929,3.87736 1.707599,-0.499578 8.144006,6.666308 8.316717,8.234491 -4.816544,-1.207256 -7.195371,-2.257676 -7.941077,-3.153703 -1.471847,-1.768624 -0.914605,-4.308148 -0.774378,-4.769773 -1.894065,-1.741304 -2.246942,-2.259104 -2.866443,-2.6047 -0.01562,0.02077 0.0016,0.536431 0.03136,0.788331 3.11139,2.359756 1.607998,8.890904 -0.180805,9.122482 -0.778508,0.100881 -2.572968,-9.214428 -0.332257,-9.56152 0.05148,-0.184712 0.0811,-0.73466 0.08398,-0.75638 -1.182503,-1.324346 -7.740506,-8.497456 -8.166962,-8.799569 0.21241,0.566066 0.560649,1.496915 0.880265,2.646018 3.872562,2.60369 4.513307,6.76978 4.221425,11.663043 -0.928695,-1.672367 -10.026637,-9.291758 -6.047591,-12.669423 0.02799,-0.520871 -0.122878,-1.703183 0.212256,-2.367777 -1.262147,-1.297339 -5.191224,-5.28753 -5.543787,-5.284283 0.438816,0.925399 0.711306,1.4537 0.92895,2.454371 2.994917,1.537722 2.124919,5.509794 0.760782,5.594113 -1.437142,0.08903 -4.622146,-4.46965 -1.626443,-5.436365 -0.242009,-1.147717 -0.682165,-2.707612 -0.859626,-3.385277 -1.296179,-1.019808 -5.588933,-4.549509 -6.579549,-5.372317 1.218047,2.085107 2.407866,5.330642 3.002861,7.191527 3.588543,4.182356 2.59586,10.651765 2.233016,17.324763 -4.210276,-3.215642 -6.824233,-14.190156 -4.146115,-16.921954 -0.89403,-3.173293 -2.245347,-8.542783 -2.245347,-8.542783 -5.788759,-4.62226 -8.991392,-8.086669 -8.991392,-8.086669 0,0 3.856954,5.145158 4.296256,7.903246 3.377925,0.67375 6.199908,6.727335 3.513995,7.760419 -3.925905,1.50999 -8.140054,-4.897525 -4.790907,-7.284032 0,0 -2.965533,-5.619591 -5.261039,-10.548347 C 2.167692,7.0512476 3.0380408,3.9815746 5.753863,3.6397871 Z"
       id="path8" />
  </g>
</svg>
