<?xml version="1.0" encoding="UTF-8" standalone="no"?>
<svg
   width="64"
   height="64"
   version="1.1"
   id="svg73"
   sodipodi:docname="org.gnome.Rhythmbox.svg"
   inkscape:version="1.4.2 (ebf0e940d0, 2025-05-08)"
   xmlns:inkscape="http://www.inkscape.org/namespaces/inkscape"
   xmlns:sodipodi="http://sodipodi.sourceforge.net/DTD/sodipodi-0.dtd"
   xmlns="http://www.w3.org/2000/svg"
   xmlns:svg="http://www.w3.org/2000/svg"
   xmlns:rdf="http://www.w3.org/1999/02/22-rdf-syntax-ns#"
   xmlns:cc="http://creativecommons.org/ns#"
   xmlns:dc="http://purl.org/dc/elements/1.1/">
  <metadata
     id="metadata77">
    <rdf:RDF>
      <cc:Work
         rdf:about="">
        <dc:format>image/svg+xml</dc:format>
        <dc:type
           rdf:resource="http://purl.org/dc/dcmitype/StillImage" />
      </cc:Work>
    </rdf:RDF>
  </metadata>
  <sodipodi:namedview
     pagecolor="#f5f7fa"
     bordercolor="#666666"
     borderopacity="1"
     objecttolerance="10"
     gridtolerance="10"
     guidetolerance="10"
     inkscape:pageopacity="0"
     inkscape:pageshadow="2"
     inkscape:window-width="1377"
     inkscape:window-height="886"
     id="namedview75"
     showgrid="false"
     inkscape:zoom="6.2890624"
     inkscape:cx="46.986336"
     inkscape:cy="41.739131"
     inkscape:window-x="0"
     inkscape:window-y="49"
     inkscape:window-maximized="0"
     inkscape:current-layer="g877"
     inkscape:document-rotation="0"
     inkscape:pagecheckerboard="0"
     inkscape:showpageshadow="2"
     inkscape:deskcolor="#d1d1d1" />
  <defs
     id="defs29" />
  <circle
     cx="32.516094"
     cy="31.877844"
     r="0"
     fill="url(#b)"
     stroke-width="1.5715"
     id="circle41"
     style="fill:url(#b)" />
  <g
     aria-label="GZ"
     transform="matrix(1.2212657,0,0,0.81882264,0.4960938,-0.1661539)"
     id="text93"
     style="font-weight:bold;font-size:11.5263px;line-height:1.25;font-family:sans-serif;-inkscape-font-specification:'sans-serif Bold';fill:#f2f2f2;stroke-width:0.288159" />
  <g
     id="g877"
     transform="matrix(1.1,0,0,1.1,-3.1845928,-3.2065454)">
    <path
       style="color:#6e6e6e;fill:#dfdfdf;fill-opacity:1;stroke:none;stroke-width:0.841492;stroke-dasharray:none;stroke-opacity:0.6"
       class="ColorScheme-Text"
       d="m 18.23783,4.6988583 c -6.874083,0 -6.874083,7.2818917 -6.874083,7.2818917 v 40.050397 c 0,7.281895 6.507354,7.268781 6.874083,7.281895 h 27.49633 c 0,0 6.87408,-0.0139 6.87408,-7.281895 V 11.98075 c 0,-7.2818917 -6.87408,-7.2818917 -6.87408,-7.2818917 z M 31.985996,11.98075 c 1.904363,0 3.437037,1.636423 3.437037,3.640944 0,2.00485 -1.532674,3.640947 -3.437037,3.640947 -1.904943,0 -3.437041,-1.636097 -3.437041,-3.640947 0,-2.004521 1.532098,-3.640944 3.437041,-3.640944 z m 0,10.922835 c 7.592767,0 13.748164,6.520571 13.748164,14.563789 0,8.043206 -6.155397,14.563773 -13.748164,14.563773 -7.592767,0 -13.748166,-6.520567 -13.748166,-14.563773 0,-8.043218 6.155399,-14.563789 13.748166,-14.563789 z m 0,7.281892 c -3.796558,0 -6.874082,3.260211 -6.874082,7.281897 0,4.02168 3.07763,7.281886 6.874082,7.281886 3.796452,0 6.874082,-3.260206 6.874082,-7.281886 0,-4.021686 -3.07763,-7.281897 -6.874082,-7.281897 z"
       id="path5" />
  </g>
</svg>
