<?xml version="1.0" encoding="UTF-8" standalone="no"?>
<svg
   width="64"
   height="64"
   version="1.1"
   id="svg73"
   sodipodi:docname="org.inkscape.Inkscape.svg"
   inkscape:version="1.4.2 (ebf0e940d0, 2025-05-08)"
   xmlns:inkscape="http://www.inkscape.org/namespaces/inkscape"
   xmlns:sodipodi="http://sodipodi.sourceforge.net/DTD/sodipodi-0.dtd"
   xmlns="http://www.w3.org/2000/svg"
   xmlns:svg="http://www.w3.org/2000/svg"
   xmlns:rdf="http://www.w3.org/1999/02/22-rdf-syntax-ns#"
   xmlns:cc="http://creativecommons.org/ns#"
   xmlns:dc="http://purl.org/dc/elements/1.1/">
  <metadata
     id="metadata77">
    <rdf:RDF>
      <cc:Work
         rdf:about="">
        <dc:format>image/svg+xml</dc:format>
        <dc:type
           rdf:resource="http://purl.org/dc/dcmitype/StillImage" />
      </cc:Work>
    </rdf:RDF>
  </metadata>
  <sodipodi:namedview
     pagecolor="#f5f7fa"
     bordercolor="#666666"
     borderopacity="1"
     objecttolerance="10"
     gridtolerance="10"
     guidetolerance="10"
     inkscape:pageopacity="0"
     inkscape:pageshadow="2"
     inkscape:window-width="1377"
     inkscape:window-height="886"
     id="namedview75"
     showgrid="false"
     inkscape:zoom="6.2890624"
     inkscape:cx="47.622361"
     inkscape:cy="45.396274"
     inkscape:window-x="264"
     inkscape:window-y="75"
     inkscape:window-maximized="0"
     inkscape:current-layer="g877"
     inkscape:document-rotation="0"
     inkscape:pagecheckerboard="0"
     inkscape:showpageshadow="2"
     inkscape:deskcolor="#d1d1d1" />
  <defs
     id="defs29">
    <linearGradient
       id="b"
       x1="399.57"
       x2="399.57"
       y1="545.8"
       y2="517.8"
       gradientTransform="matrix(2.1429,0,0,2.1429,-825.86391,-1107.6662)"
       gradientUnits="userSpaceOnUse">
      <stop
         stop-color="#3889e9"
         offset="0"
         id="stop2" />
      <stop
         stop-color="#5ea5fb"
         offset="1"
         id="stop4" />
    </linearGradient>
  </defs>
  <circle
     cx="32.516094"
     cy="31.877844"
     r="0"
     fill="url(#b)"
     stroke-width="1.5715"
     id="circle41"
     style="fill:url(#b)" />
  <g
     aria-label="GZ"
     transform="matrix(1.2212657,0,0,0.81882264,0.4960938,-0.1661539)"
     id="text93"
     style="font-weight:bold;font-size:11.5263px;line-height:1.25;font-family:sans-serif;-inkscape-font-specification:'sans-serif Bold';fill:#f2f2f2;stroke-width:0.288159" />
  <g
     id="g877"
     transform="matrix(1.1,0,0,1.1,-3.1845928,-3.2065454)">
    <path
       d="m 31.553746,4.3176614 c -1.59228,-0.00346 -3.17536,0.627456 -4.318002,1.902056 L 8.228171,27.417723 c -6.4233009,8.668443 4.371609,7.662109 8.999235,10.159125 1.659984,1.849111 -6.361349,3.206806 -4.701363,5.057475 1.659982,1.849102 10.029896,3.560206 11.692464,5.409333 1.659987,1.849097 -3.395141,3.813187 -1.735308,5.662131 1.659986,1.849102 5.49586,0.09603 6.214729,4.364762 0.512272,3.050468 6.925412,1.310881 10.05822,-1.187406 1.659984,-1.850529 -3.173343,-1.669122 -1.513363,-3.518235 4.127824,-4.600365 7.970295,-1.679286 9.382754,-6.288904 0.697657,-2.277699 -6.081757,-3.505229 -4.418921,-5.354335 C 46.98277,38.682022 63.48827,36.701485 55.65524,28.165424 L 35.951945,6.2201869 c -1.205,-1.2607293 -2.806358,-1.8986097 -4.39878,-1.9020504 z m 0.161424,2.0120293 c 1.136891,0.00678 2.271337,0.4736823 3.08709,1.3742998 l 7.526285,8.3228555 c 0.713221,0.794232 0.701735,2.328001 0.302546,2.770538 l -3.732687,-3.254425 -0.736474,4.826577 -3.117421,-1.79209 -5.004097,3.43034 -1.654524,-7.245424 -2.683592,5.057483 h -4.096057 c -1.672772,0 -1.87302,-2.312642 -0.353101,-3.968916 2.65484,-3.122829 5.6991,-6.3025405 7.354773,-8.1469385 0.832086,-0.9268442 1.970472,-1.380898 3.107358,-1.3742998 z M 22.685751,38.718839 c 0.508031,0.343891 8.190663,2.046476 10.068281,2.385788 0.650952,0.149551 0.190976,0.880808 -0.706211,1.374296 -2.023668,0.586053 -11.839097,-3.760084 -9.362633,-3.760084 z m 29.883402,5.827111 c -1.545979,0.05804 -3.070401,0.914842 -3.49072,2.528808 0,1.051761 7.102505,1.747608 7.102505,-0.241925 -0.506674,-1.597698 -2.065775,-2.344919 -3.611785,-2.286814 z m -32.607396,4.551643 c -2.228637,-0.02369 -4.838068,1.758701 -2.915611,3.573196 1.683997,1.586877 4.284795,-0.402113 5.064617,-2.616686 -0.458896,-0.664492 -1.276856,-0.947702 -2.149006,-0.956527 z m 28.217389,0.142956 c -2.170696,2.12199 0.241097,4.27359 2.380889,2.902584 0.476954,-0.527395 -0.01078,-2.375156 -2.380889,-2.902584 z"
       fill="url(#b)"
       stroke-width="0.837773"
       id="path42"
       style="fill:#dfdfdf;fill-opacity:1;stroke:none;stroke-width:0.704804;stroke-dasharray:none;stroke-opacity:0.6" />
  </g>
</svg>
