<?xml version="1.0" encoding="UTF-8" standalone="no"?>
<svg
   width="64"
   height="64"
   version="1.1"
   id="svg73"
   sodipodi:docname="org.libreoffice.LibreOffice.math.svg"
   inkscape:version="1.4.2 (ebf0e940d0, 2025-05-08)"
   xmlns:inkscape="http://www.inkscape.org/namespaces/inkscape"
   xmlns:sodipodi="http://sodipodi.sourceforge.net/DTD/sodipodi-0.dtd"
   xmlns="http://www.w3.org/2000/svg"
   xmlns:svg="http://www.w3.org/2000/svg"
   xmlns:rdf="http://www.w3.org/1999/02/22-rdf-syntax-ns#"
   xmlns:cc="http://creativecommons.org/ns#"
   xmlns:dc="http://purl.org/dc/elements/1.1/">
  <metadata
     id="metadata77">
    <rdf:RDF>
      <cc:Work
         rdf:about="">
        <dc:format>image/svg+xml</dc:format>
        <dc:type
           rdf:resource="http://purl.org/dc/dcmitype/StillImage" />
      </cc:Work>
    </rdf:RDF>
  </metadata>
  <sodipodi:namedview
     pagecolor="#f5f7fa"
     bordercolor="#666666"
     borderopacity="1"
     objecttolerance="10"
     gridtolerance="10"
     guidetolerance="10"
     inkscape:pageopacity="0"
     inkscape:pageshadow="2"
     inkscape:window-width="1377"
     inkscape:window-height="886"
     id="namedview75"
     showgrid="false"
     inkscape:zoom="6.2890624"
     inkscape:cx="47.622361"
     inkscape:cy="45.396274"
     inkscape:window-x="0"
     inkscape:window-y="57"
     inkscape:window-maximized="0"
     inkscape:current-layer="g877"
     inkscape:document-rotation="0"
     inkscape:pagecheckerboard="0"
     inkscape:showpageshadow="2"
     inkscape:deskcolor="#d1d1d1" />
  <defs
     id="defs29" />
  <circle
     cx="32.516094"
     cy="31.877844"
     r="0"
     fill="url(#b)"
     stroke-width="1.5715"
     id="circle41"
     style="fill:url(#b)" />
  <g
     aria-label="GZ"
     transform="matrix(1.2212657,0,0,0.81882264,0.4960938,-0.1661539)"
     id="text93"
     style="font-weight:bold;font-size:11.5263px;line-height:1.25;font-family:sans-serif;-inkscape-font-specification:'sans-serif Bold';fill:#f2f2f2;stroke-width:0.288159" />
  <g
     id="g877"
     transform="matrix(1.1,0,0,1.1,-3.1845928,-3.2065454)">
    <path
       id="path50"
       style="fill:#dfdfdf;fill-opacity:1;stroke:none;stroke-width:0.922862;stroke-dasharray:none;stroke-opacity:0.6"
       d="m 32.236341,11.465584 -0.260527,0.929057 c -0.704326,2.506812 -8.689,28.598273 -8.783187,28.701303 -0.211225,0.23105 -0.434071,-0.252808 -3.63394,-7.847253 l -3.232868,-7.669 -6.314842,-0.07542 -6.3148459,-0.07884 v 2.715176 2.715173 h 4.5184395 4.5184364 l 4.511582,10.846982 4.511579,10.843543 1.864969,-0.08232 1.868395,-0.08232 5.296656,-17.535469 5.296652,-17.535503 9.184287,-0.07542 9.180872,-0.07542 v -2.8454 -2.848877 H 43.340444 Z m 3.41111,15.968793 4.689853,5.773173 c 2.579811,3.17551 4.6939,5.858167 4.69671,5.961725 0.0032,0.103565 -2.195425,2.989457 -4.885267,6.414257 -2.689851,3.424797 -5.014346,6.386216 -5.166381,6.582228 -0.216212,0.278794 0.241089,0.358258 2.108374,0.356606 l 2.389496,-0.0035 3.966488,-5.132089 c 3.770026,-4.876386 3.993029,-5.106553 4.487585,-4.658988 0.286209,0.259067 2.146357,2.567562 4.134461,5.132093 l 3.616819,4.662423 h 2.416909 c 2.276276,0 2.394913,-0.02791 1.995247,-0.497079 -1.815085,-2.131595 -9.640246,-12.355904 -9.640246,-12.59534 0,-0.166437 1.827858,-2.566695 4.062491,-5.330929 2.234613,-2.764243 4.359894,-5.393982 4.724101,-5.84517 l 0.661614,-0.819355 h -2.386009 -2.382637 l -3.51738,4.281857 c -1.933467,2.354787 -3.612527,4.340912 -3.733372,4.415598 C 47.765416,36.206567 46.030361,34.279468 44.032958,31.85 L 40.40244,27.434348 h -2.379209 z" />
  </g>
</svg>
