<?xml version="1.0" encoding="UTF-8" standalone="no"?>
<svg
   width="64"
   height="64"
   version="1.1"
   id="svg73"
   sodipodi:docname="org.freeorion.FreeOrion.svg"
   inkscape:version="1.4.2 (ebf0e940d0, 2025-05-08)"
   xmlns:inkscape="http://www.inkscape.org/namespaces/inkscape"
   xmlns:sodipodi="http://sodipodi.sourceforge.net/DTD/sodipodi-0.dtd"
   xmlns="http://www.w3.org/2000/svg"
   xmlns:svg="http://www.w3.org/2000/svg"
   xmlns:rdf="http://www.w3.org/1999/02/22-rdf-syntax-ns#"
   xmlns:cc="http://creativecommons.org/ns#"
   xmlns:dc="http://purl.org/dc/elements/1.1/">
  <metadata
     id="metadata77">
    <rdf:RDF>
      <cc:Work
         rdf:about="">
        <dc:format>image/svg+xml</dc:format>
        <dc:type
           rdf:resource="http://purl.org/dc/dcmitype/StillImage" />
      </cc:Work>
    </rdf:RDF>
  </metadata>
  <sodipodi:namedview
     pagecolor="#f5f7fa"
     bordercolor="#666666"
     borderopacity="1"
     objecttolerance="10"
     gridtolerance="10"
     guidetolerance="10"
     inkscape:pageopacity="0"
     inkscape:pageshadow="2"
     inkscape:window-width="1377"
     inkscape:window-height="886"
     id="namedview75"
     showgrid="false"
     inkscape:zoom="6.2890624"
     inkscape:cx="45.714286"
     inkscape:cy="42.057144"
     inkscape:window-x="0"
     inkscape:window-y="75"
     inkscape:window-maximized="0"
     inkscape:current-layer="g877"
     inkscape:document-rotation="0"
     inkscape:pagecheckerboard="0"
     inkscape:showpageshadow="2"
     inkscape:deskcolor="#d1d1d1" />
  <defs
     id="defs29" />
  <circle
     cx="32.516094"
     cy="31.877844"
     r="0"
     fill="url(#b)"
     stroke-width="1.5715"
     id="circle41"
     style="fill:url(#b)" />
  <g
     aria-label="GZ"
     transform="matrix(1.2212657,0,0,0.81882264,0.4960938,-0.1661539)"
     id="text93"
     style="font-weight:bold;font-size:11.5263px;line-height:1.25;font-family:sans-serif;-inkscape-font-specification:'sans-serif Bold';fill:#f2f2f2;stroke-width:0.288159" />
  <g
     id="g877"
     transform="matrix(1.1,0,0,1.1,-3.1845928,-3.2065454)">
    <path
       style="fill:#dfdfdf;fill-opacity:1;stroke-width:0.18042"
       d="m 31.987486,58.878848 c -0.08514,-1.389252 -0.31715,-3.608428 -0.515589,-4.931517 -0.198435,-1.323092 -0.530369,-5.923846 -0.737627,-10.223885 -0.428106,-8.881961 -0.472791,-9.295492 -1.03653,-9.592186 -0.225845,-0.11887 -2.305057,-0.340968 -4.620466,-0.493558 -2.315407,-0.152595 -5.021733,-0.393385 -6.014051,-0.535095 -0.992317,-0.14171 -3.049122,-0.38547 -4.570677,-0.541688 l -2.766462,-0.284033 2.09164,-0.170867 c 1.150404,-0.09398 2.774199,-0.327064 3.608432,-0.517964 0.834233,-0.190908 3.898347,-0.51525 6.809153,-0.720783 6.061199,-0.427973 6.131978,-0.456875 6.137143,-2.506293 0.0042,-1.674731 0.680787,-14.373846 0.854071,-16.030863 0.08298,-0.793856 0.302424,-2.4717794 0.487576,-3.7287153 0.185151,-1.2569307 0.348066,-2.9889779 0.362029,-3.8489908 0.03113,-1.9097428 0.395929,-1.1056298 0.43669,0.962253 0.01435,0.7276952 0.185432,2.6746919 0.380198,4.3266511 0.194772,1.65196 0.523565,6.469219 0.730656,10.705012 0.438433,8.967964 0.462456,9.177258 1.092179,9.514272 0.262075,0.14026 2.720172,0.412351 5.462429,0.604653 2.742262,0.192304 5.581318,0.472559 6.309016,0.622798 0.727694,0.150245 2.40562,0.399482 3.728701,0.553883 l 2.405622,0.280717 -2.405622,0.187268 c -1.323081,0.103015 -2.838628,0.284398 -3.367867,0.403113 -0.529172,0.118713 -3.39793,0.393573 -6.374885,0.6108 -5.88031,0.429089 -6.150057,0.508521 -6.360909,1.873123 -0.06363,0.41184 -0.284765,4.212893 -0.491406,8.446783 -0.206645,4.233887 -0.532201,8.997018 -0.723472,10.58472 -0.191265,1.587719 -0.361922,3.536263 -0.379244,4.330124 -0.05902,2.707126 -0.367922,2.777127 -0.53074,0.120347 z M 27.242329,50.316604 C 20.399893,48.498964 15.228712,42.531447 14.170294,35.231521 l -0.132554,-0.914225 1.249792,0.07227 c 1.241737,0.07179 1.24931,0.0771 1.174872,0.822121 -0.04122,0.41243 0.0739,0.899569 0.255795,1.082529 0.181892,0.182966 0.693182,1.013791 1.136208,1.846289 1.011135,1.900029 3.224,3.982153 5.229734,4.920748 1.324146,0.619667 2.249626,0.836144 5.543813,1.2969 0.638771,0.08929 0.74803,0.185648 0.589104,0.519328 -0.107305,0.225292 -0.135445,1.451626 -0.06254,2.725156 0.07292,1.273541 0.0976,2.491378 0.0548,2.706324 -0.09248,0.464674 -0.244257,0.465239 -1.966997,0.008 z m 8.033434,-1.601496 c 0.0833,-0.959249 0.172853,-2.74541 0.199061,-3.969278 0.02619,-1.223857 0.126498,-2.225198 0.222888,-2.225198 0.565836,0 4.167346,-3.098809 5.109347,-4.396181 0.598049,-0.82367 1.254747,-1.687024 1.459307,-1.918567 0.204594,-0.231537 0.371878,-0.626508 0.371878,-0.877695 0,-0.488544 0.144199,-0.512568 5.341852,-0.889799 l 2.094268,-0.152 -0.135062,0.929671 c -0.871677,6.000366 -4.513876,11.17889 -9.705038,13.798777 -1.501218,0.75764 -3.652064,1.444334 -4.523917,1.444334 -0.581009,0 -0.584721,-0.01436 -0.43461,-1.744069 z M 14.331533,28.71334 c 0.184103,-1.343144 1.189415,-3.635324 1.676341,-3.822181 0.236901,-0.09089 0.324767,-0.322606 0.242159,-0.63852 -0.09413,-0.3599 -0.0153,-0.495842 0.287299,-0.495842 0.31619,0 0.380931,0.130798 0.267906,0.541269 -0.08199,0.297701 -0.271259,1.587834 -0.420621,2.86698 -0.287154,2.45915 -0.376611,2.59262 -1.74435,2.602525 -0.39801,0.0031 -0.435896,-0.126486 -0.308734,-1.054231 z m 32.155756,0.811612 c -1.124626,-0.0691 -2.18009,-0.210786 -2.345472,-0.314895 -0.165339,-0.104104 -0.300703,-0.48492 -0.300703,-0.846236 0,-1.136367 -0.696591,-3.458279 -1.580921,-5.269597 -1.144146,-2.343482 -3.027552,-4.337225 -5.151557,-5.45336 -1.519393,-0.798422 -1.687193,-0.958639 -1.687193,-1.61098 0,-0.398414 -0.120843,-0.950218 -0.268593,-1.22624 -0.260452,-0.486648 -0.228925,-0.497765 1.039739,-0.366828 0.719582,0.07427 2.041657,0.467534 2.937947,0.873936 5.354921,2.428032 9.8232,7.997783 10.375302,12.932904 0.162096,1.449246 0.153756,1.479077 -0.404156,1.443372 -0.313309,-0.02001 -1.489804,-0.09299 -2.614437,-0.162081 z M 23.874464,16.928825 c 0,-0.213887 0.09563,-0.388879 0.212502,-0.388879 0.11691,0 0.269354,-0.217365 0.338819,-0.483029 0.07161,-0.27393 0.578424,-0.687253 1.170723,-0.954802 1.092184,-0.493354 3.506323,-1.116534 3.665723,-0.946266 0.05082,0.05431 0.03784,0.651871 -0.02883,1.327904 l -0.12132,1.229149 -1.957283,0.156752 c -1.076514,0.08621 -2.254988,0.22229 -2.618837,0.302404 -0.50894,0.112059 -0.661545,0.05597 -0.661547,-0.243225 z"
       id="path1" />
  </g>
</svg>
