<?xml version="1.0" encoding="UTF-8" standalone="no"?>
<svg
   width="64"
   height="64"
   version="1.1"
   id="svg73"
   sodipodi:docname="org.siril.Siril.svg"
   inkscape:version="1.4.2 (ebf0e940d0, 2025-05-08)"
   xmlns:inkscape="http://www.inkscape.org/namespaces/inkscape"
   xmlns:sodipodi="http://sodipodi.sourceforge.net/DTD/sodipodi-0.dtd"
   xmlns="http://www.w3.org/2000/svg"
   xmlns:svg="http://www.w3.org/2000/svg"
   xmlns:rdf="http://www.w3.org/1999/02/22-rdf-syntax-ns#"
   xmlns:cc="http://creativecommons.org/ns#"
   xmlns:dc="http://purl.org/dc/elements/1.1/">
  <metadata
     id="metadata77">
    <rdf:RDF>
      <cc:Work
         rdf:about="">
        <dc:format>image/svg+xml</dc:format>
        <dc:type
           rdf:resource="http://purl.org/dc/dcmitype/StillImage" />
      </cc:Work>
    </rdf:RDF>
  </metadata>
  <sodipodi:namedview
     pagecolor="#f5f7fa"
     bordercolor="#666666"
     borderopacity="1"
     objecttolerance="10"
     gridtolerance="10"
     guidetolerance="10"
     inkscape:pageopacity="0"
     inkscape:pageshadow="2"
     inkscape:window-width="1377"
     inkscape:window-height="886"
     id="namedview75"
     showgrid="false"
     inkscape:zoom="6.2890624"
     inkscape:cx="46.986336"
     inkscape:cy="41.739131"
     inkscape:window-x="0"
     inkscape:window-y="49"
     inkscape:window-maximized="0"
     inkscape:current-layer="g877"
     inkscape:document-rotation="0"
     inkscape:pagecheckerboard="0"
     inkscape:showpageshadow="2"
     inkscape:deskcolor="#d1d1d1" />
  <defs
     id="defs29" />
  <circle
     cx="32.516094"
     cy="31.877844"
     r="0"
     fill="url(#b)"
     stroke-width="1.5715"
     id="circle41"
     style="fill:url(#b)" />
  <g
     aria-label="GZ"
     transform="matrix(1.2212657,0,0,0.81882264,0.4960938,-0.1661539)"
     id="text93"
     style="font-weight:bold;font-size:11.5263px;line-height:1.25;font-family:sans-serif;-inkscape-font-specification:'sans-serif Bold';fill:#f2f2f2;stroke-width:0.288159" />
  <g
     id="g877"
     transform="matrix(1.1,0,0,1.1,-3.1845928,-3.2065454)">
    <g
       id="g2"
       style="fill:#dfdfdf;fill-opacity:1;stroke:none;stroke-opacity:0.6"
       transform="matrix(1.331,0,0,1.331,-10.673057,-13.822641)">
      <g
         id="g7"
         transform="matrix(0.6627273,0,0,0.6627273,11.044442,7.373546)"
         style="fill:#dfdfdf;fill-opacity:1;stroke:none;stroke-width:0.685871;stroke-dasharray:none;stroke-opacity:0.6">
        <path
           style="fill:#dfdfdf;fill-opacity:1;stroke:none;stroke-width:0.685871;stroke-dasharray:none;stroke-opacity:0.6"
           d="m 46.850865,13.25458 c 1.561594,1.89222 2.50861,4.310714 2.50861,6.955706 0,6.045478 -4.900896,10.946626 -10.946628,10.946626 -2.644992,0 -5.063436,-0.94699 -6.955704,-2.508584 1.32363,5.64203 6.383412,9.80633 12.428892,9.80633 7.053228,0 12.771108,-5.717882 12.771108,-12.771108 0,-6.045734 -4.1643,-11.10539 -9.806328,-12.428892 z"
           id="path3-7" />
        <path
           style="fill:#dfdfdf;fill-opacity:1;stroke:none;stroke-width:0.685871;stroke-dasharray:none;stroke-opacity:0.6"
           d="M 16.5,26.5 14.761467,21.238532 9.5,19.5 14.761467,17.761467 16.5,12.499999 18.238533,17.761467 23.5,19.5 18.238533,21.238532 Z"
           id="path4" />
        <path
           style="fill:#dfdfdf;fill-opacity:1;stroke:none;stroke-width:0.685871;stroke-dasharray:none;stroke-opacity:0.6"
           d="M 29.5,22.5 28.506552,19.493446 25.5,18.5 28.506552,17.506553 29.5,14.499999 30.493446,17.506553 33.5,18.5 30.493446,19.493446 Z"
           id="path5" />
        <path
           style="fill:#dfdfdf;fill-opacity:1;stroke:none;stroke-width:0.685871;stroke-dasharray:none;stroke-opacity:0.6"
           d="M 39.5,22.5 39.003278,20.996722 37.5,20.5 39.003278,20.003278 39.5,18.499999 39.996722,20.003278 41.5,20.5 39.996722,20.996722 Z"
           id="path6-9" />
      </g>
      <path
         style="fill:#dfdfdf;fill-opacity:1;stroke:none;stroke-width:0.454545;stroke-dasharray:none;stroke-opacity:0.6"
         d="m 35.261973,36.675041 c -4.118171,0.0089 -7.914374,1.357041 -9.943509,3.538314 -0.823635,-0.232228 -1.722144,-0.350643 -2.635629,-0.350643 -3.039959,0.0044 -5.653124,1.316053 -6.229668,3.128472 -3.242123,0.801468 -5.368597,3.623459 -5.376084,5.750089 1.682767,5.662114 11.282591,4.327495 3.479156,4.327495 h 33.851327 c -2.608369,0 4.150161,-0.301381 4.599976,-4.009314 0.27914,-2.30102 -3.109592,-5.511339 -6.738824,-5.553694 0,-4.098427 -4.971754,-6.830719 -11.006745,-6.830719 z"
         id="path2"
         sodipodi:nodetypes="cccccssscc" />
    </g>
  </g>
</svg>
