<?xml version="1.0" encoding="UTF-8" standalone="no"?>
<svg
   width="64"
   height="64"
   version="1.1"
   id="svg73"
   sodipodi:docname="org.gnome.Tour.svg"
   inkscape:version="1.4.2 (ebf0e940d0, 2025-05-08)"
   xmlns:inkscape="http://www.inkscape.org/namespaces/inkscape"
   xmlns:sodipodi="http://sodipodi.sourceforge.net/DTD/sodipodi-0.dtd"
   xmlns="http://www.w3.org/2000/svg"
   xmlns:svg="http://www.w3.org/2000/svg"
   xmlns:rdf="http://www.w3.org/1999/02/22-rdf-syntax-ns#"
   xmlns:cc="http://creativecommons.org/ns#"
   xmlns:dc="http://purl.org/dc/elements/1.1/">
  <metadata
     id="metadata77">
    <rdf:RDF>
      <cc:Work
         rdf:about="">
        <dc:format>image/svg+xml</dc:format>
        <dc:type
           rdf:resource="http://purl.org/dc/dcmitype/StillImage" />
      </cc:Work>
    </rdf:RDF>
  </metadata>
  <sodipodi:namedview
     pagecolor="#f5f7fa"
     bordercolor="#666666"
     borderopacity="1"
     objecttolerance="10"
     gridtolerance="10"
     guidetolerance="10"
     inkscape:pageopacity="0"
     inkscape:pageshadow="2"
     inkscape:window-width="1377"
     inkscape:window-height="886"
     id="namedview75"
     showgrid="false"
     inkscape:zoom="6.2890624"
     inkscape:cx="46.986336"
     inkscape:cy="41.739131"
     inkscape:window-x="0"
     inkscape:window-y="49"
     inkscape:window-maximized="0"
     inkscape:current-layer="g877"
     inkscape:document-rotation="0"
     inkscape:pagecheckerboard="0"
     inkscape:showpageshadow="2"
     inkscape:deskcolor="#d1d1d1" />
  <defs
     id="defs29" />
  <circle
     cx="32.516094"
     cy="31.877844"
     r="0"
     fill="url(#b)"
     stroke-width="1.5715"
     id="circle41"
     style="fill:url(#b)" />
  <g
     aria-label="GZ"
     transform="matrix(1.2212657,0,0,0.81882264,0.4960938,-0.1661539)"
     id="text93"
     style="font-weight:bold;font-size:11.5263px;line-height:1.25;font-family:sans-serif;-inkscape-font-specification:'sans-serif Bold';fill:#f2f2f2;stroke-width:0.288159" />
  <g
     id="g877"
     transform="matrix(1.1,0,0,1.1,-3.1845928,-3.2065454)">
    <path
       id="path40"
       style="fill:#dfdfdf;fill-opacity:1;stroke:none;stroke-width:0.837063;stroke-dasharray:none;stroke-opacity:0.6"
       d="M 32.485142,6.5176654 C 27.675524,6.4493488 22.761993,7.460985 18.23132,9.6938877 3.6427815,16.883716 -0.07727636,33.649765 10.440323,44.810355 l 1.406506,1.491963 -0.900879,4.500836 c -0.494994,2.476198 -0.903624,4.766413 -0.908,5.088363 -0.0048,0.350372 0.201542,0.792646 0.509199,1.100289 0.282702,0.282666 0.729088,0.509134 0.993462,0.505625 0.26437,-0.0035 2.688554,-1.210678 5.387469,-2.684832 l 4.90676,-2.681261 1.67001,0.487794 c 5.72518,1.664468 13.182384,1.435607 18.922019,-0.580358 5.637473,-1.980137 10.631018,-5.70784 13.573709,-10.13044 1.370273,-2.059388 2.205472,-3.844013 2.962567,-6.331079 0.505395,-1.660387 0.561309,-2.176029 0.576816,-5.294893 0.02072,-4.121467 -0.334958,-5.754526 -1.976224,-9.137013 C 53.148146,12.04544 43.066307,6.6679244 32.485142,6.5176654 Z m 6.655109,12.0318976 6.124559,0.05699 c 5.966953,0.05413 6.124555,0.06558 6.124555,0.473586 0,0.350844 -0.18856,0.441691 -1.150137,0.559038 -0.876598,0.106997 -1.257505,0.26917 -1.620165,0.690791 l -0.477152,0.55193 v 7.933403 7.936995 l 0.477152,0.551927 c 0.362626,0.421625 0.743567,0.583816 1.620165,0.690795 0.961632,0.117346 1.150137,0.2082 1.150137,0.559036 0,0.407994 -0.157635,0.419511 -6.124555,0.473587 l -6.124559,0.05699 v -0.526987 c 0,-0.434663 0.09805,-0.526032 0.573288,-0.526999 0.964973,-0.002 2.129829,-0.414959 2.35368,-0.833225 0.281575,-0.526019 0.288248,-16.224724 0.0069,-16.749939 -0.245621,-0.458933 -1.265913,-0.843901 -2.232613,-0.843901 -0.60996,0 -0.701475,-0.06912 -0.701475,-0.527002 z m -26.595509,0.0073 h 5.864615 5.861055 v 0.523435 c 0,0.460086 -0.09093,0.523436 -0.744205,0.523436 -1.048416,0 -1.892529,0.500397 -2.164957,1.281882 -0.129533,0.371668 -0.231452,2.038512 -0.231452,3.774432 v 3.108647 h 4.084223 4.08422 v -3.443333 c 0,-3.295123 -0.02164,-3.468022 -0.484263,-4.005883 -0.375263,-0.436268 -0.726589,-0.584796 -1.57031,-0.665872 -0.975019,-0.0937 -1.089599,-0.156124 -1.089599,-0.60177 v -0.494952 h 5.971438 5.967875 v 0.523427 c 0,0.460089 -0.09095,0.523441 -0.744203,0.523441 -1.048413,0 -1.892533,0.500398 -2.164961,1.281882 -0.15274,0.438066 -0.235017,3.163045 -0.235017,7.969035 0,8.344133 0.03837,8.573877 1.399389,8.951817 0.441093,0.122452 1.012066,0.223691 1.271204,0.224328 0.362665,9.06e-4 0.473587,0.12048 0.473587,0.523434 v 0.523433 h -5.967874 -5.971438 v -0.494946 c 0,-0.438922 0.125646,-0.515913 1.068231,-0.640941 0.714308,-0.09474 1.23254,-0.306738 1.57031,-0.64451 0.495461,-0.495434 0.505634,-0.570676 0.505634,-4.28362 v -3.7781 h -4.084223 -4.084222 v 3.297285 c 0.0015,4.716079 0.17657,5.147123 2.189882,5.423078 0.823214,0.112845 0.950731,0.198063 0.950731,0.626701 v 0.494947 h -5.861055 -5.864615 v -0.494947 c 0,-0.437039 0.123983,-0.512809 1.036187,-0.633816 0.76824,-0.101915 1.148714,-0.278981 1.467045,-0.683671 0.415584,-0.528374 0.427302,-0.799868 0.427302,-8.385653 0,-5.214257 -0.07384,-7.979783 -0.224334,-8.261022 -0.259522,-0.484929 -1.396504,-1.014824 -2.17564,-1.014824 -0.425981,0 -0.53056,-0.102861 -0.53056,-0.523437 z" />
  </g>
</svg>
