<?xml version="1.0" encoding="UTF-8" standalone="no"?>
<svg
   width="64"
   height="64"
   version="1.1"
   id="svg73"
   sodipodi:docname="org.mozilla.firefox.svg"
   inkscape:version="1.4.2 (ebf0e940d0, 2025-05-08)"
   xmlns:inkscape="http://www.inkscape.org/namespaces/inkscape"
   xmlns:sodipodi="http://sodipodi.sourceforge.net/DTD/sodipodi-0.dtd"
   xmlns="http://www.w3.org/2000/svg"
   xmlns:svg="http://www.w3.org/2000/svg"
   xmlns:rdf="http://www.w3.org/1999/02/22-rdf-syntax-ns#"
   xmlns:cc="http://creativecommons.org/ns#"
   xmlns:dc="http://purl.org/dc/elements/1.1/">
  <metadata
     id="metadata77">
    <rdf:RDF>
      <cc:Work
         rdf:about="">
        <dc:format>image/svg+xml</dc:format>
        <dc:type
           rdf:resource="http://purl.org/dc/dcmitype/StillImage" />
      </cc:Work>
    </rdf:RDF>
  </metadata>
  <sodipodi:namedview
     pagecolor="#f5f7fa"
     bordercolor="#666666"
     borderopacity="1"
     objecttolerance="10"
     gridtolerance="10"
     guidetolerance="10"
     inkscape:pageopacity="0"
     inkscape:pageshadow="2"
     inkscape:window-width="1377"
     inkscape:window-height="886"
     id="namedview75"
     showgrid="false"
     inkscape:zoom="6.2890624"
     inkscape:cx="47.622361"
     inkscape:cy="45.396274"
     inkscape:window-x="480"
     inkscape:window-y="58"
     inkscape:window-maximized="0"
     inkscape:current-layer="g877"
     inkscape:document-rotation="0"
     inkscape:pagecheckerboard="0"
     inkscape:showpageshadow="2"
     inkscape:deskcolor="#d1d1d1" />
  <defs
     id="defs29" />
  <circle
     cx="32.516094"
     cy="31.877844"
     r="0"
     fill="url(#b)"
     stroke-width="1.5715"
     id="circle41"
     style="fill:url(#b)" />
  <g
     aria-label="GZ"
     transform="matrix(1.2212657,0,0,0.81882264,0.4960938,-0.1661539)"
     id="text93"
     style="font-weight:bold;font-size:11.5263px;line-height:1.25;font-family:sans-serif;-inkscape-font-specification:'sans-serif Bold';fill:#f2f2f2;stroke-width:0.288159" />
  <g
     id="g877"
     transform="matrix(1.1,0,0,1.1,-3.1845928,-3.2065454)">
    <path
       id="path36"
       style="fill:#dfdfdf;fill-opacity:1;stroke:none;stroke-width:0.902449;stroke-dasharray:none;stroke-opacity:0.6"
       d="m 40.466977,4.6881466 c -0.533389,0 -4.19511,3.2166879 -5.544886,4.8710571 -1.373135,1.6829833 -3.292067,5.2405713 -3.292067,6.1013833 0,0.313321 0.240615,0.459364 0.764343,0.462632 1.621806,0.01023 4.757962,0.866677 6.761816,1.847175 2.787165,1.363779 5.413467,4.000105 6.798678,6.825503 0.554484,1.130947 1.086336,2.497225 1.180063,3.033933 l 0.171008,0.975552 -0.492688,-0.697303 c -1.121734,-1.595384 -3.155072,-3.442203 -4.603009,-4.180449 -1.209871,-0.616883 -3.979111,-1.394609 -4.964917,-1.394609 -0.07551,0 0.460416,0.424203 1.193464,0.94538 6.595318,4.689099 6.399522,14.545451 -0.378797,19.071862 -3.372367,2.251982 -7.370215,2.42413 -11.311041,0.489466 -5.395027,-2.648603 -8.598123,-8.44102 -6.114825,-11.052911 1.614756,-1.698363 3.555456,-2.517259 6.882502,-2.899836 1.292369,-0.148571 1.87388,-0.396154 2.997064,-1.283976 0.766498,-0.605883 1.387617,-1.256775 1.377838,-1.444884 -0.01034,-0.188101 -1.108544,-0.872584 -2.440556,-1.521993 -1.332015,-0.64941 -3.383204,-1.951305 -4.559279,-2.89313 l -2.138852,-1.713082 -0.318467,-1.827063 c -0.184322,-1.058371 -0.235756,-2.584011 -0.124023,-3.627308 l 0.191089,-1.800243 -1.193451,0.667129 c -0.65647,0.366146 -2.123381,1.530331 -3.258551,2.588063 -1.177136,1.096827 -2.162688,1.815586 -2.296405,1.672848 -0.394757,-0.421437 -0.851508,-3.107001 -0.851508,-5.005144 0,-0.989202 -0.109846,-1.796891 -0.241402,-1.796891 -0.131531,0 -1.292954,1.095421 -2.58471,2.4372 -5.2248135,5.42714 -7.5692336,11.227847 -7.5764448,18.753377 -0.00413,4.248621 0.6673008,7.254873 2.4774314,11.109892 1.5026822,3.200229 3.0958194,5.455503 5.5951754,7.918399 4.131774,4.071472 8.938443,6.557764 14.683559,7.599898 6.345496,1.151034 13.379036,-0.187407 19.209313,-3.65748 4.834185,-2.87722 9.466808,-8.448963 11.347907,-13.647664 1.403013,-3.877363 1.795263,-6.428953 1.62259,-10.570143 -0.18408,-4.413929 -0.982529,-7.419671 -2.976942,-11.213806 -1.241996,-2.362735 -3.618467,-5.778349 -3.855262,-5.541532 -0.05647,0.05575 0.165872,0.626556 0.492689,1.267215 0.690678,1.353823 1.676214,5.011965 1.676214,6.225417 0,0.782394 -0.09558,0.708475 -1.488476,-1.166638 C 52.465118,19.51405 49.945839,16.723647 47.68476,14.413485 43.531898,10.170456 41.644841,7.7049005 41.060393,5.7542135 40.884584,5.1673945 40.617372,4.6881466 40.467047,4.6881466 Z M 35.3579,25.074143 c -0.160568,-0.01034 -0.329559,0.03657 -0.549815,0.114006 -0.622661,0.218984 -0.841394,0.5448 -1.126404,1.666152 -0.26871,1.057133 -0.678915,1.702682 -1.692963,2.671876 -1.178415,1.126282 -1.529437,1.299803 -2.963539,1.468354 -1.843054,0.216618 -2.81516,0.649085 -3.771466,1.672851 -0.571934,0.612255 -0.636414,0.87936 -0.472669,1.97122 0.376587,2.511336 2.916574,5.162265 5.648814,5.896892 2.73345,0.734943 4.35339,0.336644 6.215367,-1.525353 3.336544,-3.336551 3.394436,-9.378384 0.124021,-12.839729 -0.74262,-0.785994 -1.058111,-1.074078 -1.41136,-1.096241 z" />
  </g>
</svg>
