<?xml version="1.0" encoding="UTF-8" standalone="no"?>
<svg
   width="64"
   height="64"
   version="1.1"
   id="svg73"
   sodipodi:docname="page.kramo.Sly.svg"
   inkscape:version="1.4.2 (ebf0e940d0, 2025-05-08)"
   xmlns:inkscape="http://www.inkscape.org/namespaces/inkscape"
   xmlns:sodipodi="http://sodipodi.sourceforge.net/DTD/sodipodi-0.dtd"
   xmlns="http://www.w3.org/2000/svg"
   xmlns:svg="http://www.w3.org/2000/svg"
   xmlns:rdf="http://www.w3.org/1999/02/22-rdf-syntax-ns#"
   xmlns:cc="http://creativecommons.org/ns#"
   xmlns:dc="http://purl.org/dc/elements/1.1/">
  <metadata
     id="metadata77">
    <rdf:RDF>
      <cc:Work
         rdf:about="">
        <dc:format>image/svg+xml</dc:format>
        <dc:type
           rdf:resource="http://purl.org/dc/dcmitype/StillImage" />
      </cc:Work>
    </rdf:RDF>
  </metadata>
  <sodipodi:namedview
     pagecolor="#f5f7fa"
     bordercolor="#666666"
     borderopacity="1"
     objecttolerance="10"
     gridtolerance="10"
     guidetolerance="10"
     inkscape:pageopacity="0"
     inkscape:pageshadow="2"
     inkscape:window-width="1377"
     inkscape:window-height="886"
     id="namedview75"
     showgrid="false"
     inkscape:zoom="6.2890624"
     inkscape:cx="47.622361"
     inkscape:cy="45.396274"
     inkscape:window-x="264"
     inkscape:window-y="75"
     inkscape:window-maximized="0"
     inkscape:current-layer="g877"
     inkscape:document-rotation="0"
     inkscape:pagecheckerboard="0"
     inkscape:showpageshadow="2"
     inkscape:deskcolor="#d1d1d1" />
  <defs
     id="defs29" />
  <circle
     cx="32.516094"
     cy="31.877844"
     r="0"
     fill="url(#b)"
     stroke-width="1.5715"
     id="circle41"
     style="fill:url(#b)" />
  <g
     aria-label="GZ"
     transform="matrix(1.2212657,0,0,0.81882264,0.4960938,-0.1661539)"
     id="text93"
     style="font-weight:bold;font-size:11.5263px;line-height:1.25;font-family:sans-serif;-inkscape-font-specification:'sans-serif Bold';fill:#f2f2f2;stroke-width:0.288159" />
  <g
     id="g877"
     transform="matrix(1.1,0,0,1.1,-3.1845928,-3.2065454)">
    <path
       id="path17"
       style="fill:#dfdfdf;fill-opacity:1;stroke:none;stroke-width:0.189526;stroke-dasharray:none"
       d="m 24.26412,18.34529 c -0.75994,-0.06175 -1.578625,0.272778 -2.172654,0.932723 -0.220592,0.245064 -0.959713,1.022516 -1.64252,1.726808 -0.682805,0.704291 -1.816276,1.876178 -2.51868,2.605187 -0.702401,0.729001 -1.832952,1.901568 -2.513134,2.605186 -0.680179,0.70362 -2.343286,2.431224 -3.69539,3.838458 -1.352111,1.407237 -2.9937901,3.112107 -3.6488148,3.789668 -0.6550241,0.677556 -1.6030627,1.659214 -2.1061081,2.180412 -1.0729828,1.111701 -1.3009312,1.534501 -1.3009312,2.415533 0,1.018018 0.4986778,1.835536 1.3663644,2.240312 l 0.4769033,0.222941 5.6828294,-0.02319 5.682831,-0.02319 7.178952,-7.438679 c 3.948044,-4.091404 7.179474,-7.473723 7.181176,-7.516105 0.0014,-0.04239 -1.537391,-1.672432 -3.420343,-3.622199 C 26.431581,19.811585 25.270147,18.67536 24.993883,18.54162 24.763835,18.4303 24.51743,18.365918 24.26412,18.345331 Z m 14.438863,3.418129 c -0.624964,0.005 -0.996172,0.320892 -3.862854,3.282818 -8.683904,8.972452 -16.307841,16.932487 -16.41744,17.141656 -0.06888,0.13145 -0.149747,0.446007 -0.179658,0.698715 -0.09585,0.809413 0.434729,1.678033 1.215534,1.990763 0.248422,0.09951 37.86014,0.140876 38.353558,0.04208 0.162965,-0.03253 0.487386,-0.228062 0.720892,-0.433651 0.710028,-0.624992 0.871789,-1.602401 0.393712,-2.381155 C 58.815455,41.923457 54.450048,37.34111 49.225765,31.9213 39.36992,21.696559 39.432106,21.757534 38.703,21.763405 Z" />
  </g>
</svg>
