<?xml version="1.0" encoding="UTF-8" standalone="no"?>
<svg
   width="64"
   height="64"
   version="1.1"
   id="svg73"
   sodipodi:docname="page.kramo.Cartridges.svg"
   inkscape:version="1.4.2 (ebf0e940d0, 2025-05-08)"
   xmlns:inkscape="http://www.inkscape.org/namespaces/inkscape"
   xmlns:sodipodi="http://sodipodi.sourceforge.net/DTD/sodipodi-0.dtd"
   xmlns="http://www.w3.org/2000/svg"
   xmlns:svg="http://www.w3.org/2000/svg"
   xmlns:rdf="http://www.w3.org/1999/02/22-rdf-syntax-ns#"
   xmlns:cc="http://creativecommons.org/ns#"
   xmlns:dc="http://purl.org/dc/elements/1.1/">
  <metadata
     id="metadata77">
    <rdf:RDF>
      <cc:Work
         rdf:about="">
        <dc:format>image/svg+xml</dc:format>
        <dc:type
           rdf:resource="http://purl.org/dc/dcmitype/StillImage" />
      </cc:Work>
    </rdf:RDF>
  </metadata>
  <sodipodi:namedview
     pagecolor="#f5f7fa"
     bordercolor="#666666"
     borderopacity="1"
     objecttolerance="10"
     gridtolerance="10"
     guidetolerance="10"
     inkscape:pageopacity="0"
     inkscape:pageshadow="2"
     inkscape:window-width="1377"
     inkscape:window-height="886"
     id="namedview75"
     showgrid="false"
     inkscape:zoom="6.2890624"
     inkscape:cx="47.622361"
     inkscape:cy="45.396274"
     inkscape:window-x="20"
     inkscape:window-y="75"
     inkscape:window-maximized="0"
     inkscape:current-layer="g877"
     inkscape:document-rotation="0"
     inkscape:pagecheckerboard="0"
     inkscape:showpageshadow="2"
     inkscape:deskcolor="#d1d1d1" />
  <defs
     id="defs29" />
  <circle
     cx="32.516094"
     cy="31.877844"
     r="0"
     fill="url(#b)"
     stroke-width="1.5715"
     id="circle41"
     style="fill:url(#b)" />
  <g
     aria-label="GZ"
     transform="matrix(1.2212657,0,0,0.81882264,0.4960938,-0.1661539)"
     id="text93"
     style="font-weight:bold;font-size:11.5263px;line-height:1.25;font-family:sans-serif;-inkscape-font-specification:'sans-serif Bold';fill:#f2f2f2;stroke-width:0.288159" />
  <g
     id="g877"
     transform="matrix(1.1,0,0,1.1,-3.1845928,-3.2065454)">
    <path
       style="fill:#dfdfdf;fill-opacity:1;stroke:none;stroke-width:0.885781;stroke-dasharray:none;stroke-opacity:0.6"
       d="M 30.484016,59.74403 C 27.875536,59.544451 25.679649,59.137117 23.561091,58.459818 22.201887,58.025296 20.051937,57.145299 19.212625,56.679972 17.885017,55.943916 17.470171,55.693584 16.452187,55.014333 12.134451,52.133279 8.6158814,47.90265 6.5160061,43.067347 4.9494871,39.460178 4.2490032,36.03963 4.2490032,31.997267 c 0,-3.178424 0.4097643,-5.832342 1.3312941,-8.622424 C 8.6596119,14.051802 16.348703,7.0498936 25.866903,4.9012823 c 3.871405,-0.8739172 8.366761,-0.8739172 12.238172,0 8.612814,1.9442302 15.831938,7.9229097 19.350905,16.0259057 1.566512,3.607165 2.267003,7.027714 2.267003,11.070079 0,3.178419 -0.409723,5.832337 -1.331302,8.62242 -3.361356,10.176987 -12.211541,17.535759 -22.734211,18.903052 -1.327043,0.172514 -4.203722,0.295468 -5.173454,0.221266 z m 4.672795,-1.946104 c 5.163867,-0.609587 9.864434,-2.733687 14.078534,-6.361893 l 0.48855,-0.420619 -5.892427,-5.893212 c -3.240847,-3.241265 -5.928607,-5.893209 -5.972809,-5.893209 -0.04421,0 -0.419876,0.219505 -0.834818,0.487782 -1.651226,1.067553 -2.976712,1.448725 -5.037859,1.448725 -2.061138,0 -3.386624,-0.381157 -5.037847,-1.448725 -0.414951,-0.268277 -0.790618,-0.487784 -0.834819,-0.487784 -0.0442,0 -2.73196,2.651946 -5.972797,5.893211 l -5.892426,5.893212 0.488543,0.420559 c 2.922408,2.516102 5.728407,4.131591 9.130866,5.256904 2.020796,0.668376 3.928481,1.031924 6.672138,1.271629 0.753272,0.0656 3.482395,-0.03285 4.61717,-0.166668 z m -5.480046,-7.276715 c -1.238775,-2.47845 -2.252318,-4.531142 -2.252318,-4.561549 0,-0.02982 2.052694,-0.0554 4.561535,-0.0554 2.50885,0 4.561546,0.02496 4.561546,0.0554 0,0.11005 -4.50615,9.067812 -4.561546,9.067812 -0.0313,0 -1.070444,-2.027816 -2.309217,-4.506263 z m -10.749531,-6.744644 5.911346,-5.910574 -0.489034,-0.69957 c -0.581666,-0.832085 -0.960281,-1.657151 -1.291912,-2.815331 -0.348655,-1.217642 -0.348655,-3.49001 0,-4.707655 0.331631,-1.158179 0.710246,-1.983244 1.291912,-2.815332 l 0.489034,-0.699564 -5.936187,-5.935414 c -3.60189,-3.601419 -5.973812,-5.892834 -6.031863,-5.827131 -3.8490027,4.356305 -6.0208398,9.075113 -6.7066339,14.5717 -0.1784266,1.43012 -0.1784266,4.689022 0,6.11914 0.5493109,4.402662 2.1462183,8.518362 4.6613009,12.013532 0.723922,1.006012 2.032852,2.608123 2.135444,2.61374 0.03039,0.0016 2.715348,-2.656722 5.966593,-5.907541 z M 13.433873,34.30023 c -2.462955,-1.235328 -4.4781015,-2.271658 -4.4781015,-2.302961 0,-0.0554 8.9576985,-4.561546 9.0678135,-4.561546 0.03045,0 0.05521,2.052693 0.05521,4.561544 0,2.508844 -0.03755,4.558719 -0.08343,4.555275 -0.04584,-0.0033 -2.098559,-1.016983 -4.561511,-2.252312 z m 38.392361,14.470499 c 3.296656,-3.890752 5.341012,-8.577591 5.98185,-13.713893 0.07634,-0.611914 0.138855,-1.988725 0.138855,-3.059569 0,-2.972307 -0.390427,-5.473452 -1.269173,-8.130402 -1.153695,-3.488269 -2.914374,-6.48813 -5.576275,-9.500869 -0.05782,-0.0657 -2.429975,2.225712 -6.03186,5.827131 l -5.936214,5.935414 0.48902,0.699564 c 0.581673,0.832088 0.960286,1.657153 1.291917,2.815332 0.350666,1.224784 0.348796,3.489353 -0.0041,4.722323 -0.319936,1.118057 -0.774146,2.093906 -1.331523,2.860587 l -0.444867,0.611914 5.910416,5.924543 c 3.25071,3.25849 5.94237,5.911973 5.981461,5.896621 0.03956,-0.0145 0.399315,-0.4152 0.80042,-0.888696 z M 45.893132,31.997267 c 0,-2.508851 0.02495,-4.561544 0.0554,-4.561544 0.11005,0 9.067808,4.506152 9.067808,4.561544 0,0.0554 -8.957698,4.561539 -9.067808,4.561539 -0.03045,0 -0.0554,-2.052695 -0.0554,-4.561539 z m -11.626377,7.070268 c 2.332559,-0.781645 4.136735,-2.621972 4.859026,-4.956387 0.366605,-1.184825 0.366605,-3.042939 0,-4.227767 -0.720583,-2.328881 -2.502246,-4.149959 -4.859026,-4.966499 -0.788179,-0.27308 -1.049236,-0.308379 -2.280773,-0.308379 -1.231528,0 -1.492582,0.0353 -2.280764,0.308379 -2.356779,0.816545 -4.138442,2.63762 -4.859021,4.966503 -0.366608,1.184826 -0.366608,3.042939 0,4.227766 0.809426,2.616041 2.917468,4.554057 5.637819,5.183103 1.031592,0.238548 2.691149,0.139047 3.782739,-0.226732 z m -7.31862,-14.789754 c 1.651223,-1.06755 2.976709,-1.448717 5.037847,-1.448717 2.061147,0 3.386633,0.381167 5.037859,1.448717 0.414952,0.268284 0.790616,0.487779 0.834818,0.487779 0.0442,0 2.731962,-2.65195 5.972796,-5.893217 L 49.723886,12.979132 49.235332,12.5585 C 46.312939,10.042396 43.506934,8.4269011 40.10447,7.3015942 37.459795,6.426913 34.953781,6.0363577 31.985982,6.0363577 c -6.514867,0 -12.147798,2.1298665 -17.249342,6.5221403 l -0.488544,0.420632 5.892428,5.893213 c 3.240833,3.241264 5.928592,5.89321 5.972793,5.89321 0.0442,0 0.41987,-0.219486 0.834818,-0.487772 z m 0.476316,-6.242918 c 0,-0.11011 4.506146,-9.0678124 4.561539,-9.0678124 0.0554,0 4.561544,8.9577004 4.561544,9.0678124 0,0.03045 -2.052694,0.05522 -4.561544,0.05522 -2.508847,0 -4.561539,-0.02489 -4.561539,-0.05522 z"
       id="path1" />
  </g>
</svg>
