<?xml version="1.0" encoding="UTF-8" standalone="no"?>
<svg
   width="64"
   height="64"
   version="1.1"
   id="svg73"
   sodipodi:docname="io.github.peazip.PeaZip.svg"
   inkscape:version="1.4.2 (ebf0e940d0, 2025-05-08)"
   xmlns:inkscape="http://www.inkscape.org/namespaces/inkscape"
   xmlns:sodipodi="http://sodipodi.sourceforge.net/DTD/sodipodi-0.dtd"
   xmlns="http://www.w3.org/2000/svg"
   xmlns:svg="http://www.w3.org/2000/svg"
   xmlns:rdf="http://www.w3.org/1999/02/22-rdf-syntax-ns#"
   xmlns:cc="http://creativecommons.org/ns#"
   xmlns:dc="http://purl.org/dc/elements/1.1/">
  <metadata
     id="metadata77">
    <rdf:RDF>
      <cc:Work
         rdf:about="">
        <dc:format>image/svg+xml</dc:format>
        <dc:type
           rdf:resource="http://purl.org/dc/dcmitype/StillImage" />
      </cc:Work>
    </rdf:RDF>
  </metadata>
  <sodipodi:namedview
     pagecolor="#f5f7fa"
     bordercolor="#666666"
     borderopacity="1"
     objecttolerance="10"
     gridtolerance="10"
     guidetolerance="10"
     inkscape:pageopacity="0"
     inkscape:pageshadow="2"
     inkscape:window-width="1377"
     inkscape:window-height="886"
     id="namedview75"
     showgrid="false"
     inkscape:zoom="6.2890624"
     inkscape:cx="43.170187"
     inkscape:cy="42.693168"
     inkscape:window-x="264"
     inkscape:window-y="75"
     inkscape:window-maximized="0"
     inkscape:current-layer="g877"
     inkscape:document-rotation="0"
     inkscape:pagecheckerboard="0"
     inkscape:showpageshadow="2"
     inkscape:deskcolor="#d1d1d1" />
  <defs
     id="defs29" />
  <circle
     cx="32.516094"
     cy="31.877844"
     r="0"
     fill="url(#b)"
     stroke-width="1.5715"
     id="circle41"
     style="fill:url(#b)" />
  <g
     aria-label="GZ"
     transform="matrix(1.2212657,0,0,0.81882264,0.4960938,-0.1661539)"
     id="text93"
     style="font-weight:bold;font-size:11.5263px;line-height:1.25;font-family:sans-serif;-inkscape-font-specification:'sans-serif Bold';fill:#f2f2f2;stroke-width:0.288159" />
  <g
     id="g877"
     transform="matrix(1.1,0,0,1.1,-3.1845928,-3.2065454)">
    <path
       style="fill:#dfdfdf;fill-opacity:1;stroke-width:0.136623"
       d="m 36.52254,53.422183 c -7.192475,-0.369135 -14.058221,-2.832168 -19.673649,-7.057746 -1.821015,-1.370305 -3.560161,-2.977544 -4.940269,-4.56555 -0.144286,-0.165996 -0.33012,-0.37855 -0.413,-0.472299 -0.492685,-0.557383 -1.5849269,-2.007713 -2.1779127,-2.891942 -2.2396129,-3.339574 -3.78729,-6.964211 -4.5988668,-10.770498 -0.2554283,-1.197937 -0.3993,-2.167506 -0.5788027,-3.900514 -0.078143,-0.754695 -0.077358,-4.102297 0.00146,-4.896545 0.23578,-2.383897 0.520598,-3.901274 1.1850212,-6.313227 0.1450918,-0.526689 0.2738842,-0.967708 0.2862165,-0.980036 0.012245,-0.01224 0.024043,0.02515 0.025967,0.08325 0.00157,0.05814 0.011011,0.154834 0.019578,0.21495 0.00859,0.06014 0.047904,0.443751 0.086975,0.852524 0.3159758,3.306008 0.8209136,5.773535 1.7657288,8.628818 0.8593799,2.597062 2.1186357,5.305628 3.5762777,7.692309 0.672935,1.101838 1.984754,2.961919 2.826853,4.008301 2.443108,3.035802 5.461284,5.819134 8.662231,7.988231 3.4839,2.36083 7.079921,4.098662 11.094804,5.361719 0.960618,0.302168 2.670048,0.78133 3.135805,0.878907 0.132235,0.02785 0.565067,0.118641 0.961822,0.202113 3.44619,0.724951 7.515597,1.064319 10.711196,0.893259 3.735963,-0.19999 6.260928,-0.594767 9.899546,-1.547706 0.695761,-0.182256 1.276126,-0.31913 1.28972,-0.304228 0.01332,0.0145 0.005,0.03451 -0.01874,0.04363 -0.02421,0.009 -0.51585,0.327303 -1.092965,0.706992 -1.682811,1.10725 -2.726191,1.715628 -4.218908,2.459977 -3.484147,1.737385 -7.286362,2.893141 -11.213981,3.408694 -1.609362,0.211258 -2.466883,0.265464 -4.415639,0.279151 -1.033961,0.0074 -2.017645,0.0058 -2.18596,-0.0033 z m 9.443923,-5.988614 c 0.114212,-0.256988 0.334749,-0.985399 0.38024,-1.256143 0.08761,-0.522089 0.06246,-1.469011 -0.05207,-1.946628 -0.121973,-0.509851 -0.330091,-1.044665 -0.565029,-1.452078 -0.100045,-0.173596 -0.152645,-0.302412 -0.118035,-0.289087 0.547342,0.210047 3.108704,0.952324 4.398118,1.274589 2.735456,0.683675 5.210286,1.106164 8.754771,1.494563 0.619173,0.0679 1.125772,0.135619 1.125772,0.150566 0,0.0327 -1.539572,0.489567 -2.491999,0.739861 -1.2406,0.326032 -3.342347,0.753652 -4.393778,0.893946 -0.304895,0.04058 -0.483504,0.06586 -0.786945,0.110848 -0.144273,0.02121 -0.468908,0.05998 -0.721369,0.08612 -0.252505,0.02606 -0.547586,0.05633 -0.65579,0.06752 -0.888025,0.09151 -2.138363,0.158151 -3.406488,0.181586 -1.469671,0.02726 -1.503848,0.02606 -1.467626,-0.05575 z m -1.85865,-0.0016 c -0.03634,-0.0068 -0.370486,-0.03332 -0.743218,-0.05874 -0.37273,-0.02542 -0.726832,-0.05446 -0.786952,-0.06443 -0.05998,-0.01034 -0.325734,-0.03997 -0.590223,-0.06718 -0.474907,-0.04844 -1.142242,-0.140276 -2.20782,-0.303441 -0.589091,-0.09024 -2.195097,-0.391383 -2.220053,-0.416337 -0.0084,-0.0085 0.07601,-0.148457 0.187502,-0.311313 0.415543,-0.60697 0.704217,-1.320899 0.829854,-2.052349 0.08371,-0.487441 0.09499,-1.188906 0.02477,-1.54661 -0.07669,-0.390896 -0.06911,-0.41434 0.199661,-0.617297 1.705496,-1.287657 4.141543,-1.076791 5.585831,0.483505 1.205282,1.302084 1.464305,3.177016 0.658576,4.767044 l -0.110013,0.217074 -0.381209,-0.0085 c -0.209684,-0.0048 -0.410704,-0.0145 -0.446806,-0.02121 z M 36.391382,46.248693 C 35.10501,45.948324 32.747478,45.186966 31.04375,44.521707 l -0.800834,-0.312708 0.39539,-0.36649 c 0.842465,-0.780856 1.389553,-1.761837 1.599023,-2.867176 0.08878,-0.468608 0.117781,-0.974556 0.07621,-1.331008 l -0.037,-0.317431 0.161796,-0.04354 c 0.444758,-0.119778 1.090819,-0.174162 1.511368,-0.127257 2.08796,0.232826 3.616824,1.798755 3.796035,3.888069 0.05848,0.681983 -0.131677,1.554493 -0.486135,2.230387 -0.183224,0.349414 -0.678861,1.010967 -0.748991,0.999765 -0.01738,-0.003 -0.07106,-0.0145 -0.119185,-0.02543 z m -7.869461,-2.823739 c -0.59953,-0.290584 -1.524394,-0.766603 -2.185959,-1.125091 -0.84923,-0.460176 -3.475679,-2.090915 -3.475679,-2.158014 0,-0.01078 0.142633,-0.07327 0.31697,-0.139089 1.34113,-0.506196 2.412582,-1.452308 3.018371,-2.665274 0.160199,-0.320771 0.357634,-0.918712 0.406082,-1.229864 l 0.02831,-0.181679 0.333893,-0.02865 c 0.373221,-0.03197 0.949106,0.02289 1.361475,0.129718 1.249582,0.323802 2.397893,1.366945 2.835219,2.575549 0.588111,1.625328 0.150954,3.410922 -1.120421,4.576501 -0.249551,0.22876 -0.73568,0.563452 -0.818737,0.563578 -0.02397,5.2e-5 -0.338821,-0.142955 -0.699506,-0.317738 z m -7.359045,-4.5234 C 20.012667,37.998099 19.666664,37.706358 18.706957,36.8308 17.746095,35.954184 17.496793,35.711531 17.52973,35.684989 c 0.01034,-0.0084 0.20234,-0.07825 0.42683,-0.15556 1.36324,-0.469257 2.604721,-1.560836 3.154697,-2.773785 0.166296,-0.366717 0.332447,-0.93817 0.370999,-1.275876 0.05171,-0.452982 0.02905,-0.430927 0.41016,-0.399959 0.92249,0.07493 1.853551,0.476654 2.523017,1.088507 0.947962,0.866384 1.470892,2.242477 1.329278,3.498009 -0.05567,0.493708 -0.09529,0.655445 -0.269702,1.102278 -0.511899,1.311231 -1.668715,2.285994 -3.065706,2.583243 -0.537275,0.114345 -0.519353,0.12077 -1.246427,-0.450301 z m -4.577237,-4.131452 c -0.06489,-0.07814 -0.199526,-0.230618 -0.299162,-0.338822 -1.220995,-1.326059 -2.498232,-2.948532 -3.569343,-4.53415 l -0.525379,-0.777734 0.557942,-0.02942 c 1.051401,-0.05552 1.841395,-0.323653 2.70621,-0.91858 0.498058,-0.342626 0.92296,-0.788352 1.428212,-1.498187 0.05954,-0.0836 0.06811,-0.08383 0.416746,-0.0086 0.809604,0.173967 1.560158,0.583904 2.110551,1.152723 0.51766,0.534985 0.805141,1.002331 1.016292,1.652136 0.739443,2.275603 -0.62133,4.750963 -2.93427,5.337693 -0.588318,0.149228 -0.759078,0.142325 -0.907801,-0.03671 z m -4.480278,-6.59535 C 11.623868,28.120412 11.591314,28.106959 11.46866,27.912691 11.138911,27.390345 10.100606,25.390558 9.7911999,24.681879 9.7334609,24.549658 9.6190213,24.293869 9.5369261,24.113525 9.276236,23.540958 8.7827012,22.285726 8.7827012,22.195267 c 0,-0.138489 0.4894087,-0.830068 0.8175783,-1.155349 0.7350025,-0.728548 1.6698695,-1.138858 2.7286475,-1.197595 0.922455,-0.05119 1.95114,0.247227 2.505126,0.726699 0.110933,0.09603 0.324392,0.262466 0.474349,0.369881 0.73553,0.52689 1.25423,1.529282 1.388355,2.683043 0.08439,0.726061 -0.07109,1.552683 -0.425348,2.260383 -0.51811,1.035158 -1.460113,1.821123 -2.567177,2.141935 -0.285869,0.08285 -1.227497,0.226691 -1.264678,0.193207 -0.0035,-0.0033 -0.153867,-0.02236 -0.334196,-0.0427 z M 8.2895074,20.855463 C 7.2773229,17.692872 6.7050534,14.457501 6.5768224,11.172532 l -0.023026,-0.590207 0.1078473,0.131143 c 0.05929,0.07215 0.5269599,0.691855 1.0392267,1.377153 2.0756954,2.776846 3.5655936,4.645662 5.1594226,6.471613 l 0.325387,0.372777 -0.594794,-7.79e-4 c -0.631548,-7.78e-4 -0.991203,0.05068 -1.556652,0.223427 -0.929118,0.283828 -1.8514625,0.911073 -2.4966125,1.697814 L 8.3591418,21.07312 Z"
       id="path1-5" />
  </g>
</svg>
