<?xml version="1.0" encoding="UTF-8" standalone="no"?>
<svg
   width="64"
   height="64"
   version="1.1"
   id="svg73"
   sodipodi:docname="pinentry.svg"
   inkscape:version="1.4.2 (ebf0e940d0, 2025-05-08)"
   xmlns:inkscape="http://www.inkscape.org/namespaces/inkscape"
   xmlns:sodipodi="http://sodipodi.sourceforge.net/DTD/sodipodi-0.dtd"
   xmlns="http://www.w3.org/2000/svg"
   xmlns:svg="http://www.w3.org/2000/svg"
   xmlns:rdf="http://www.w3.org/1999/02/22-rdf-syntax-ns#"
   xmlns:cc="http://creativecommons.org/ns#"
   xmlns:dc="http://purl.org/dc/elements/1.1/">
  <metadata
     id="metadata77">
    <rdf:RDF>
      <cc:Work
         rdf:about="">
        <dc:format>image/svg+xml</dc:format>
        <dc:type
           rdf:resource="http://purl.org/dc/dcmitype/StillImage" />
      </cc:Work>
    </rdf:RDF>
  </metadata>
  <sodipodi:namedview
     pagecolor="#f5f7fa"
     bordercolor="#666666"
     borderopacity="1"
     objecttolerance="10"
     gridtolerance="10"
     guidetolerance="10"
     inkscape:pageopacity="0"
     inkscape:pageshadow="2"
     inkscape:window-width="1377"
     inkscape:window-height="886"
     id="namedview75"
     showgrid="false"
     inkscape:zoom="6.2890624"
     inkscape:cx="46.986336"
     inkscape:cy="41.739131"
     inkscape:window-x="0"
     inkscape:window-y="49"
     inkscape:window-maximized="0"
     inkscape:current-layer="g877"
     inkscape:document-rotation="0"
     inkscape:pagecheckerboard="0"
     inkscape:showpageshadow="2"
     inkscape:deskcolor="#d1d1d1" />
  <defs
     id="defs29" />
  <circle
     cx="32.516094"
     cy="31.877844"
     r="0"
     fill="url(#b)"
     stroke-width="1.5715"
     id="circle41"
     style="fill:url(#b)" />
  <g
     aria-label="GZ"
     transform="matrix(1.2212657,0,0,0.81882264,0.4960938,-0.1661539)"
     id="text93"
     style="font-weight:bold;font-size:11.5263px;line-height:1.25;font-family:sans-serif;-inkscape-font-specification:'sans-serif Bold';fill:#f2f2f2;stroke-width:0.288159" />
  <g
     id="g877"
     transform="matrix(1.1,0,0,1.1,-3.1845928,-3.2065454)">
    <path
       style="fill:#dfdfdf;fill-opacity:1;stroke:none;stroke-width:0.872104;stroke-dasharray:none;stroke-opacity:0.6"
       d="M 10.45859,58.988924 C 9.2937248,58.517698 8.3140483,56.998933 8.1126592,55.352087 8.0077412,54.494596 7.9646696,48.724911 8.0168162,42.530529 8.1034412,32.247737 8.1582487,31.199368 8.6476827,30.478531 9.4444171,29.305022 10.882822,28.748809 13.120842,28.748809 h 1.955789 l 0.0035,-6.001726 c 0.0045,-8.032157 0.624182,-10.255405 3.754063,-13.4727404 2.879715,-2.9601855 7.416949,-4.5221292 13.136155,-4.5221292 5.360897,0 9.520688,1.3125917 12.311038,3.8846462 1.949486,1.7969734 2.959151,3.3803964 3.872747,6.0734674 0.72169,2.127394 0.803886,2.843668 0.93921,8.184949 l 0.148411,5.853533 1.959996,0.0011 c 1.442723,8.11e-4 2.218878,0.158941 2.941045,0.599249 1.801582,1.098387 1.83455,1.362335 1.83455,14.683058 0,13.330018 -0.02696,13.541374 -1.902762,14.684974 -0.871253,0.531346 -1.872071,0.555858 -21.955932,0.539016 -11.573728,-0.0098 -21.320735,-0.130031 -21.660049,-0.267224 z M 42.34377,23.42506 c 0,-4.649504 -0.07724,-5.530385 -0.610461,-6.95535 -0.747768,-1.99857 -2.621644,-3.756827 -4.822067,-4.524541 -1.848429,-0.644912 -7.376395,-0.740262 -9.284995,-0.160182 -2.223549,0.675829 -4.000727,2.119173 -4.985182,4.048752 -0.889058,1.742596 -0.896535,1.797887 -0.992997,7.335438 l -0.0972,5.579602 h 10.396446 10.396434 z"
       id="path53" />
  </g>
</svg>
