<?xml version="1.0" encoding="UTF-8" standalone="no"?>
<svg
   width="64"
   height="64"
   version="1.1"
   id="svg73"
   sodipodi:docname="plank.svg"
   inkscape:version="1.4.2 (ebf0e940d0, 2025-05-08)"
   xmlns:inkscape="http://www.inkscape.org/namespaces/inkscape"
   xmlns:sodipodi="http://sodipodi.sourceforge.net/DTD/sodipodi-0.dtd"
   xmlns="http://www.w3.org/2000/svg"
   xmlns:svg="http://www.w3.org/2000/svg"
   xmlns:rdf="http://www.w3.org/1999/02/22-rdf-syntax-ns#"
   xmlns:cc="http://creativecommons.org/ns#"
   xmlns:dc="http://purl.org/dc/elements/1.1/">
  <metadata
     id="metadata77">
    <rdf:RDF>
      <cc:Work
         rdf:about="">
        <dc:format>image/svg+xml</dc:format>
        <dc:type
           rdf:resource="http://purl.org/dc/dcmitype/StillImage" />
      </cc:Work>
    </rdf:RDF>
  </metadata>
  <sodipodi:namedview
     pagecolor="#f5f7fa"
     bordercolor="#666666"
     borderopacity="1"
     objecttolerance="10"
     gridtolerance="10"
     guidetolerance="10"
     inkscape:pageopacity="0"
     inkscape:pageshadow="2"
     inkscape:window-width="1377"
     inkscape:window-height="886"
     id="namedview75"
     showgrid="false"
     inkscape:zoom="6.2890624"
     inkscape:cx="47.622361"
     inkscape:cy="45.396274"
     inkscape:window-x="20"
     inkscape:window-y="75"
     inkscape:window-maximized="0"
     inkscape:current-layer="g877"
     inkscape:document-rotation="0"
     inkscape:pagecheckerboard="0"
     inkscape:showpageshadow="2"
     inkscape:deskcolor="#d1d1d1" />
  <defs
     id="defs29" />
  <circle
     cx="32.516094"
     cy="31.877844"
     r="0"
     fill="url(#b)"
     stroke-width="1.5715"
     id="circle41"
     style="fill:url(#b)" />
  <g
     aria-label="GZ"
     transform="matrix(1.2212657,0,0,0.81882264,0.4960938,-0.1661539)"
     id="text93"
     style="font-weight:bold;font-size:11.5263px;line-height:1.25;font-family:sans-serif;-inkscape-font-specification:'sans-serif Bold';fill:#f2f2f2;stroke-width:0.288159" />
  <g
     id="g877"
     transform="matrix(1.1,0,0,1.1,-3.1845928,-3.2065454)">
    <path
       id="path11"
       style="fill:#dfdfdf;fill-opacity:1;stroke:none;stroke-width:0.885781;stroke-dasharray:none;stroke-dashoffset:2.2;stroke-opacity:0.6"
       d="m 32.074726,4.1133576 c -0.807209,0.00279 -1.605078,0.15134 -2.167395,0.4484233 -1.207987,0.6381958 -2.34426,1.7844121 -2.90854,2.9334547 -0.42754,0.8705959 -0.507507,1.2629219 -0.504475,2.4974849 0.0029,1.2238415 0.08328,1.6173675 0.485796,2.3822645 0.603749,1.147356 1.619734,2.168471 2.653188,2.668762 l 0.794089,0.386146 v 1.538354 1.541465 h -3.936195 -3.936183 v 1.740765 1.737653 h 3.936183 3.936188 v 7.588996 c 0,4.930331 -0.06615,7.767847 -0.193084,8.102816 -0.488824,1.290177 -1.914356,2.141845 -3.559379,2.123795 -1.311981,-0.01435 -5.131791,-0.77398 -7.262014,-1.441814 -1.801964,-0.564929 -4.142509,-1.734218 -4.73962,-2.369809 l -0.423516,-0.45154 h 1.669143 1.67226 L 14.769823,32.874927 C 13.218376,31.409407 11.885492,30.195164 11.808339,30.175025 11.40022,30.068468 10.63571,33.42177 10.375868,36.45611 l -0.118326,1.373305 0.924877,-0.903079 c 0.508309,-0.497536 0.9501,-0.869524 0.980934,-0.825232 0.03087,0.04431 0.176112,0.322653 0.323871,0.616587 0.147748,0.293939 0.675614,0.857292 1.174003,1.251855 1.573836,1.245989 3.598392,2.140281 9.071293,4.017151 1.760588,0.603775 3.609317,1.30461 4.107461,1.55704 0.498141,0.252431 1.861023,1.314979 3.026876,2.360468 1.165863,1.045474 2.163594,1.901218 2.217222,1.902695 0.05362,0.0014 1.083445,-0.866504 2.288842,-1.930721 1.205402,-1.064224 2.478161,-2.084492 2.830691,-2.267036 0.352534,-0.182612 2.455202,-0.96904 4.671109,-1.747008 6.235984,-2.18932 9.570928,-3.984358 9.908973,-5.33129 0.06092,-0.242981 0.159908,-0.439082 0.221086,-0.439082 0.06093,0 0.508333,0.387953 0.99027,0.862599 l 0.875054,0.862596 V 36.97616 c 0,-1.089935 -0.429867,-3.503703 -0.974699,-5.465198 l -0.432915,-1.557035 -2.731037,2.749728 -2.727927,2.74661 1.553919,0.09033 1.557031,0.09341 -1.149083,0.787861 c -2.10526,1.444107 -4.977118,2.410553 -9.33904,3.145206 -1.836038,0.309238 -2.393557,0.341932 -3.023762,0.174393 -1.061885,-0.282319 -1.932466,-0.849545 -2.344891,-1.5259 -0.325893,-0.534442 -0.34813,-1.039871 -0.348775,-8.398651 v -7.828773 h 3.845876 3.845882 V 20.25048 18.509715 h -3.845885 -3.845877 v -1.538352 -1.541464 l 0.993392,-0.560532 C 37.422578,13.447019 38.489515,10.064898 37.231638,7.4796786 36.70442,6.3961333 35.399079,5.0933051 34.295066,4.5493241 33.699569,4.255913 32.881945,4.1108034 32.074728,4.1133576 Z m -0.07785,3.8209637 c 1.099553,-0.069388 2.095771,0.782342 2.095771,1.9992379 0,0.5937378 -0.121053,0.8590808 -0.622817,1.3608458 -0.50177,0.501772 -0.767104,0.622816 -1.360849,0.622816 -2.109425,0 -2.777088,-2.8749478 -0.878167,-3.7804843 0.254032,-0.1211342 0.51231,-0.1863972 0.766062,-0.2024154 z M 48.650943,51.640328 c -2.421523,0 -4.844718,0.08023 -5.001199,0.236604 -0.156492,0.156445 -0.217918,1.286629 -0.217918,3.926836 0,3.338707 0.03225,3.727658 0.320726,3.895706 0.435231,0.253528 9.290396,0.262049 9.762617,0.0098 0.332295,-0.177866 0.355,-0.420316 0.355,-3.901934 0,-2.642278 -0.06495,-3.773496 -0.221082,-3.929958 -0.156494,-0.156493 -2.57656,-0.236604 -4.998078,-0.236604 z m -33.171103,0.0153 c -4.122477,0 -4.844517,0.04259 -5.091508,0.289625 -0.24181,0.24184 -0.286497,0.852478 -0.286497,3.833422 0,3.458414 0.0077,3.555503 0.404829,3.833421 0.341973,0.239589 1.137431,0.286519 4.976285,0.286519 3.994459,0 4.611873,-0.04018 4.904666,-0.305207 0.302791,-0.273978 0.336315,-0.646008 0.336315,-3.898815 0,-2.553996 -0.06508,-3.661839 -0.221101,-3.817846 -0.159746,-0.159777 -1.531256,-0.221082 -5.022989,-0.221082 z m 16.513924,0 c -3.479828,0 -4.847709,0.0616 -5.007426,0.221084 -0.156075,0.156076 -0.221102,1.267526 -0.221102,3.83342 0,3.040318 0.04743,3.656647 0.289607,3.898817 0.246521,0.246526 0.955866,0.289623 4.945144,0.289623 4.412628,0 4.675938,-0.02068 5.023,-0.367476 0.340122,-0.340147 0.364343,-0.611594 0.364343,-3.786719 0,-2.924709 -0.04286,-3.46599 -0.302067,-3.752456 -0.278894,-0.30827 -0.685543,-0.336392 -5.091506,-0.336392 z" />
  </g>
</svg>
