<?xml version="1.0" encoding="UTF-8" standalone="no"?>
<svg
   width="64"
   height="64"
   version="1.1"
   id="svg73"
   sodipodi:docname="postman.svg"
   inkscape:version="1.4.2 (ebf0e940d0, 2025-05-08)"
   xmlns:inkscape="http://www.inkscape.org/namespaces/inkscape"
   xmlns:sodipodi="http://sodipodi.sourceforge.net/DTD/sodipodi-0.dtd"
   xmlns="http://www.w3.org/2000/svg"
   xmlns:svg="http://www.w3.org/2000/svg"
   xmlns:rdf="http://www.w3.org/1999/02/22-rdf-syntax-ns#"
   xmlns:cc="http://creativecommons.org/ns#"
   xmlns:dc="http://purl.org/dc/elements/1.1/">
  <metadata
     id="metadata77">
    <rdf:RDF>
      <cc:Work
         rdf:about="">
        <dc:format>image/svg+xml</dc:format>
        <dc:type
           rdf:resource="http://purl.org/dc/dcmitype/StillImage" />
      </cc:Work>
    </rdf:RDF>
  </metadata>
  <sodipodi:namedview
     pagecolor="#f5f7fa"
     bordercolor="#666666"
     borderopacity="1"
     objecttolerance="10"
     gridtolerance="10"
     guidetolerance="10"
     inkscape:pageopacity="0"
     inkscape:pageshadow="2"
     inkscape:window-width="1377"
     inkscape:window-height="886"
     id="namedview75"
     showgrid="false"
     inkscape:zoom="6.2890624"
     inkscape:cx="37.445963"
     inkscape:cy="34.901864"
     inkscape:window-x="1"
     inkscape:window-y="75"
     inkscape:window-maximized="0"
     inkscape:current-layer="g877"
     inkscape:document-rotation="0"
     inkscape:pagecheckerboard="0"
     inkscape:showpageshadow="2"
     inkscape:deskcolor="#d1d1d1" />
  <defs
     id="defs29" />
  <circle
     cx="32.516094"
     cy="31.877844"
     r="0"
     fill="url(#b)"
     stroke-width="1.5715"
     id="circle41"
     style="fill:url(#b)" />
  <g
     aria-label="GZ"
     transform="matrix(1.2212657,0,0,0.81882264,0.4960938,-0.1661539)"
     id="text93"
     style="font-weight:bold;font-size:11.5263px;line-height:1.25;font-family:sans-serif;-inkscape-font-specification:'sans-serif Bold';fill:#f2f2f2;stroke-width:0.288159" />
  <g
     id="g877"
     transform="matrix(1.1,0,0,1.1,-3.1845928,-3.2065454)">
    <path
       style="fill:#dfdfdf;fill-opacity:1;stroke:none;stroke-width:0.854756;stroke-dasharray:none;stroke-opacity:0.6"
       d="m 51.719661,4.9887949 c -1.562657,0.067735 -3.103849,0.7028649 -4.314514,1.8947452 -2.65816,2.627544 -2.761076,6.9646889 -0.208143,9.7005869 l -0.02817,-0.05468 c 2.000196,2.112869 5.106919,2.653023 7.686133,1.352791 L 50.2745,13.19788 c -0.157926,-0.189612 -0.157926,-0.461572 0,-0.651185 L 56.168703,6.5053485 C 54.866109,5.4218976 53.282314,4.9210616 51.719641,4.9887829 Z m 5.081925,2.1384113 -5.604384,5.7724628 4.396153,4.520498 c 0.368518,-0.243773 0.684199,-0.538071 1.000049,-0.83604 2.552905,-2.600463 2.629486,-6.7751948 0.208141,-9.4569208 z m -0.301933,3.4743988 c 0.139939,-5.43e-4 0.272867,0.06637 0.355211,0.18488 0.473635,0.920994 0.343585,2.029251 -0.314278,2.814801 -0.07897,0.108383 -0.239966,0.189044 -0.371392,0.189044 -0.105314,0.02705 -0.237447,0.02705 -0.342867,0 l -0.02459,-0.02503 c -0.184286,-0.189631 -0.159698,-0.516187 0.02459,-0.705799 0.394765,-0.460493 0.450979,-1.134518 0.187833,-1.676284 0,-0.02705 -0.02817,-0.02763 -0.02817,-0.05469 -0.105292,-0.243775 0.02817,-0.54283 0.265433,-0.651187 0.07894,-0.0507 0.164914,-0.07532 0.249012,-0.07564 z M 43.347858,15.340564 C 40.521446,15.105673 35.87862,18.280103 23.877362,30.611951 l 3.473651,3.579434 16.266196,-16.741813 c 0.578932,-0.595935 1.343427,-0.92239 2.159317,-0.949465 -0.743513,-0.62302 -1.486586,-1.081233 -2.428702,-1.159543 z m 2.477679,2.197232 c -0.578934,0 -1.156741,0.22103 -1.604163,0.667995 L 28.008193,34.78376 30.191994,37.140633 47.327617,21.591964 c 0.473637,-0.433422 0.737026,-1.026166 0.763302,-1.676287 0.02638,-0.623016 -0.209694,-1.249384 -0.657135,-1.709879 -0.447428,-0.44696 -1.029233,-0.667993 -1.608254,-0.667993 z m 2.526666,4.192812 c -0.131623,0.18963 -0.287009,0.3519 -0.444807,0.487342 l -17.135725,15.519254 3.053223,3.142501 C 40.904531,33.918071 47.799473,26.768983 48.35217,21.730608 Z m -25.107528,9.423309 -4.290034,4.415467 -0.07757,0.109296 c -0.07894,0.08122 -0.103829,0.164738 -0.07752,0.273074 0.02621,0.162507 0.180918,0.270732 0.338807,0.24364 l 7.343253,-1.62588 z m 4.159408,4.415467 -2.449109,2.520726 c -0.05266,0.08128 -0.05266,0.191799 0,0.273065 0.07894,0.05425 0.157861,0.05425 0.236742,0 l 4.028786,-1.05871 z m 2.57974,2.575333 -6.657508,1.462021 L 9.5867872,53.773209 14.0605,58.516372 c 0.131583,0.135575 0.36865,0.135575 0.526548,0 0.157849,-0.10846 0.264899,-0.325368 0.212257,-0.541955 l -0.738821,-3.251732 c -0.07894,-0.379306 0.106887,-0.759873 0.448992,-0.949482 h 0.02428 v -0.05457 C 21.218682,50.441043 27.482629,46.297617 33.16743,41.421764 Z M 8.8765293,54.449599 5.4273597,58.029035 c -0.026281,0.08129 -0.026281,0.185865 0,0.294142 0.026281,0.0812 0.1314762,0.166154 0.2367474,0.193323 l 7.6861149,0.512644 z"
       id="path8" />
  </g>
</svg>
