<?xml version="1.0" encoding="UTF-8" standalone="no"?>
<svg
   width="64"
   height="64"
   version="1.1"
   id="svg73"
   sodipodi:docname="preferences-desktop.svg"
   inkscape:version="1.4.2 (ebf0e940d0, 2025-05-08)"
   xmlns:inkscape="http://www.inkscape.org/namespaces/inkscape"
   xmlns:sodipodi="http://sodipodi.sourceforge.net/DTD/sodipodi-0.dtd"
   xmlns="http://www.w3.org/2000/svg"
   xmlns:svg="http://www.w3.org/2000/svg"
   xmlns:rdf="http://www.w3.org/1999/02/22-rdf-syntax-ns#"
   xmlns:cc="http://creativecommons.org/ns#"
   xmlns:dc="http://purl.org/dc/elements/1.1/">
  <metadata
     id="metadata77">
    <rdf:RDF>
      <cc:Work
         rdf:about="">
        <dc:format>image/svg+xml</dc:format>
        <dc:type
           rdf:resource="http://purl.org/dc/dcmitype/StillImage" />
      </cc:Work>
    </rdf:RDF>
  </metadata>
  <sodipodi:namedview
     pagecolor="#f5f7fa"
     bordercolor="#666666"
     borderopacity="1"
     objecttolerance="10"
     gridtolerance="10"
     guidetolerance="10"
     inkscape:pageopacity="0"
     inkscape:pageshadow="2"
     inkscape:window-width="1377"
     inkscape:window-height="886"
     id="namedview75"
     showgrid="false"
     inkscape:zoom="6.2890624"
     inkscape:cx="47.622361"
     inkscape:cy="45.396274"
     inkscape:window-x="20"
     inkscape:window-y="75"
     inkscape:window-maximized="0"
     inkscape:current-layer="g877"
     inkscape:document-rotation="0"
     inkscape:pagecheckerboard="0"
     inkscape:showpageshadow="2"
     inkscape:deskcolor="#d1d1d1" />
  <defs
     id="defs29" />
  <circle
     cx="32.516094"
     cy="31.877844"
     r="0"
     fill="url(#b)"
     stroke-width="1.5715"
     id="circle41"
     style="fill:url(#b)" />
  <g
     aria-label="GZ"
     transform="matrix(1.2212657,0,0,0.81882264,0.4960938,-0.1661539)"
     id="text93"
     style="font-weight:bold;font-size:11.5263px;line-height:1.25;font-family:sans-serif;-inkscape-font-specification:'sans-serif Bold';fill:#f2f2f2;stroke-width:0.288159" />
  <g
     id="g877"
     transform="matrix(1.1,0,0,1.1,-3.1845928,-3.2065454)">
    <path
       id="path6"
       style="fill:#dfdfdf;fill-opacity:1;stroke:none;stroke-width:0.930069;stroke-dasharray:none;stroke-opacity:0.6"
       d="m 31.985989,9.6988377 c -12.559216,0 -25.1181428,0.043406 -25.4100759,0.1308901 -0.5743326,0.1720892 -1.247002,0.8054962 -1.5365504,1.4462732 l -0.246605,0.544093 v 20.18906 20.189048 l 0.2696206,0.575037 c 0.2914012,0.621376 0.8824411,1.191982 1.4444583,1.395367 0.4946335,0.179018 50.2931794,0.198518 50.8892134,0.01981 0.574334,-0.172053 1.246983,-0.805487 1.536534,-1.446256 l 0.246645,-0.544105 V 32.009188 11.820125 L 58.932584,11.276012 C 58.643052,10.63523 57.970378,10.001812 57.396056,9.8297377 57.104157,9.7422778 44.545189,9.6988476 31.985989,9.6988476 Z m 0,2.3763293 c 11.438037,0 22.876122,0.03475 23.116139,0.103598 0.573762,0.164541 1.094146,0.594206 1.41053,1.165136 l 0.297522,0.536817 v 16.892387 c 0,16.27151 -0.007,16.905644 -0.192129,17.252904 -0.331333,0.623547 -0.895765,1.127302 -1.44748,1.291146 C 54.432363,49.53638 9.4737262,49.532867 8.7704478,49.312975 8.2463936,49.149494 7.7020843,48.663859 7.3847557,48.076902 l -0.2229352,-0.4122 V 30.772281 13.879894 l 0.2974918,-0.536823 c 0.3163811,-0.570935 0.8367463,-1.000579 1.4105228,-1.165137 0.2400112,-0.06881 11.6781089,-0.10362 23.1161469,-0.10362 z m 11.160592,4.134026 c -1.61217,-2.94e-4 -3.520184,0.0033 -5.752976,0.0085 l -12.514777,0.03211 -0.413223,0.221145 c -0.55022,0.294724 -0.965682,0.718704 -1.196041,1.220879 -0.166242,0.362358 -0.188875,0.706404 -0.190887,2.855606 l -0.0042,2.444179 8.059653,0.02785 8.060218,0.02852 0.493822,0.244781 c 0.652157,0.323886 1.306022,0.973227 1.620776,1.609275 l 0.254445,0.515003 0.02941,5.896567 0.02941,5.897206 4.451495,-0.0042 c 4.088606,-0.0042 4.485471,-0.01738 4.865959,-0.190247 0.510865,-0.232073 0.986539,-0.696583 1.24452,-1.21605 0.18727,-0.377066 0.195644,-0.757576 0.195644,-9.097518 v -8.70237 L 52.089608,17.50664 c -0.365845,-0.621633 -0.963495,-1.058448 -1.649718,-1.206345 -0.285379,-0.0614 -2.458432,-0.09053 -7.294987,-0.09145 z m -17.237735,8.744903 c -12.536019,0 -12.673446,0.0042 -13.011616,0.208407 -0.20642,0.125846 -0.421266,0.388522 -0.542884,0.663478 -0.195207,0.441263 -0.200524,0.710859 -0.173294,8.829709 0.02736,8.118829 0.03425,8.384139 0.229637,8.672813 0.11086,0.163692 0.342625,0.383808 0.51501,0.488883 0.300826,0.183427 0.826159,0.191101 13.064322,0.191421 H 38.7405 l 0.433839,-0.404128 0.433794,-0.404708 0.02666,-8.582511 c 0.02615,-8.420925 0.02252,-8.588681 -0.179318,-8.918056 -0.113014,-0.184696 -0.356933,-0.427916 -0.541578,-0.54049 -0.330174,-0.201321 -0.544163,-0.204792 -13.004955,-0.204792 z" />
  </g>
</svg>
