<?xml version="1.0" encoding="UTF-8" standalone="no"?>
<svg
   width="64"
   height="64"
   version="1.1"
   id="svg73"
   sodipodi:docname="preferences-desktop-font.svg"
   inkscape:version="1.4.2 (ebf0e940d0, 2025-05-08)"
   xmlns:inkscape="http://www.inkscape.org/namespaces/inkscape"
   xmlns:sodipodi="http://sodipodi.sourceforge.net/DTD/sodipodi-0.dtd"
   xmlns="http://www.w3.org/2000/svg"
   xmlns:svg="http://www.w3.org/2000/svg"
   xmlns:rdf="http://www.w3.org/1999/02/22-rdf-syntax-ns#"
   xmlns:cc="http://creativecommons.org/ns#"
   xmlns:dc="http://purl.org/dc/elements/1.1/">
  <metadata
     id="metadata77">
    <rdf:RDF>
      <cc:Work
         rdf:about="">
        <dc:format>image/svg+xml</dc:format>
        <dc:type
           rdf:resource="http://purl.org/dc/dcmitype/StillImage" />
      </cc:Work>
    </rdf:RDF>
  </metadata>
  <sodipodi:namedview
     pagecolor="#f5f7fa"
     bordercolor="#666666"
     borderopacity="1"
     objecttolerance="10"
     gridtolerance="10"
     guidetolerance="10"
     inkscape:pageopacity="0"
     inkscape:pageshadow="2"
     inkscape:window-width="1377"
     inkscape:window-height="886"
     id="namedview75"
     showgrid="false"
     inkscape:zoom="6.2890624"
     inkscape:cx="46.986336"
     inkscape:cy="41.739131"
     inkscape:window-x="0"
     inkscape:window-y="49"
     inkscape:window-maximized="0"
     inkscape:current-layer="g877"
     inkscape:document-rotation="0"
     inkscape:pagecheckerboard="0"
     inkscape:showpageshadow="2"
     inkscape:deskcolor="#d1d1d1" />
  <defs
     id="defs29" />
  <circle
     cx="32.516094"
     cy="31.877844"
     r="0"
     fill="url(#b)"
     stroke-width="1.5715"
     id="circle41"
     style="fill:url(#b)" />
  <g
     aria-label="GZ"
     transform="matrix(1.2212657,0,0,0.81882264,0.4960938,-0.1661539)"
     id="text93"
     style="font-weight:bold;font-size:11.5263px;line-height:1.25;font-family:sans-serif;-inkscape-font-specification:'sans-serif Bold';fill:#f2f2f2;stroke-width:0.288159" />
  <g
     id="g877"
     transform="matrix(1.1,0,0,1.1,-3.1845928,-3.2065454)">
    <path
       style="fill:#dfdfdf;fill-opacity:1;stroke:none;stroke-width:0.885781;stroke-dasharray:none;stroke-opacity:0.6"
       d="m 21.881152,4.8988024 c -1.337343,2.53e-5 -2.71695,0.1247414 -4.128555,0.3706143 -1.411602,0.2335729 -2.864595,0.5900389 -4.365356,1.069453 v 3.1342645 c 1.248175,-0.5654759 2.549863,-0.993179 3.902055,-1.2759428 1.352189,-0.2827407 2.743243,-0.4235412 4.169734,-0.4235545 2.243714,1.82e-5 3.981428,0.4313271 5.214748,1.2918241 1.248154,0.8482562 1.868639,2.234825 1.868655,3.796064 v 0.349436 h -5.74497 c -3.729638,1.6e-5 -6.545035,0.57229 -8.432137,1.752435 -1.872252,1.180168 -2.805578,2.748579 -2.805559,5.072001 -1.9e-5,1.99151 0.748821,3.588365 2.249596,4.780813 1.515628,1.180156 3.55468,1.76832 6.110468,1.76832 2.020829,0 3.730457,-0.294092 5.127235,-0.884161 1.396733,-0.602373 2.559229,-1.530922 3.495367,-2.784834 v 3.668998 h 4.102823 V 15.355177 C 32.645213,12.208113 31.756613,8.7719975 29.973532,7.2230313 28.190431,5.6740945 25.491903,4.8988277 21.881152,4.8988024 Z m 16.035476,5.4214336 v 29.817868 h 7.907045 v -3.59488 c 1.129077,2.799958 2.658601,3.172341 5.235346,3.59488 2.318151,0 5.53686,-1.024517 7.026324,-3.081323 1.489418,-2.069342 2.234136,-4.915659 2.234162,-8.163908 -2.6e-5,-3.248233 -0.744744,-5.360587 -2.234162,-7.417412 -1.489464,-2.069333 -4.708173,-3.102475 -7.026324,-3.102496 -2.960206,0.04418 -4.20336,1.529618 -5.235346,3.589582 V 10.320236 Z m -13.23506,4.701394 h 4.447724 v 1.011224 c -2.4e-5,2.971422 -0.752045,4.273287 -2.259901,6.072642 -1.491668,1.782841 -3.475373,2.673655 -5.95603,2.673646 -1.799723,9e-6 -3.22911,-0.472641 -4.282991,-1.413591 -1.03768,-0.957446 -1.554642,-2.241819 -1.554642,-3.859593 0,-2.030453 0.695632,-2.382358 2.090019,-3.224272 1.394344,-0.841881 3.900166,-1.260039 7.515821,-1.260056 z m 25.111087,8.852182 c 1.278818,1.9e-5 2.251577,0.461421 2.918813,1.387118 0.678321,0.925721 1.019263,2.271061 1.01927,4.034309 -7e-6,1.763264 -0.340937,3.108604 -1.01927,4.03431 -0.667236,0.925711 -1.639995,1.387125 -2.918813,1.387119 -1.278845,6e-6 -2.260259,-0.461402 -2.949692,-1.387119 -0.678395,-0.936722 -1.019296,-2.282068 -1.01929,-4.03431 -6e-6,-1.752228 0.340879,-3.0927 1.01929,-4.018424 0.689475,-0.93671 1.670847,-1.402984 2.949692,-1.403003 z m -29.630876,8.132141 c -3.9788,2.3e-5 -7.448835,1.234407 -10.398601,3.700762 -2.9326677,2.450284 -4.8343003,5.731588 -5.708939,9.842214 -0.8575035,4.094528 -0.3421429,7.380905 1.5443485,9.863402 1.8864916,2.466387 4.8188275,3.700767 8.7976255,3.700767 3.018367,0 5.632913,-0.714821 7.845285,-2.149523 2.212302,-1.43469 3.947323,-3.528086 5.199304,-6.26853 h -3.809389 c -0.874676,2.015026 -2.029065,3.527242 -3.469634,4.526684 -1.423458,0.999459 -3.158476,1.498319 -5.199301,1.498315 -2.572505,4e-6 -4.316125,-0.936073 -5.22504,-2.806016 -0.8918019,-1.869947 -0.9381515,-4.65747 -0.1493261,-8.365099 0.7888791,-3.707619 2.0291801,-6.490075 3.7270241,-8.343909 1.714984,-1.869909 3.853678,-2.805993 6.409044,-2.806009 2.246609,1.6e-5 3.85623,0.519586 4.833804,1.551244 0.994678,1.031717 1.43271,2.677554 1.312695,4.934354 h 2.748936 l 1.389922,-6.580897 C 28.448936,33.529965 26.847865,32.959124 25.201498,32.588337 23.57225,32.201484 21.893903,32.005976 20.161775,32.005953 Z"
       id="path8-2" />
  </g>
</svg>
