<?xml version="1.0" encoding="UTF-8" standalone="no"?>
<svg
   width="64"
   height="64"
   version="1.1"
   id="svg73"
   sodipodi:docname="preferences-region-and-language.svg"
   inkscape:version="1.4.2 (ebf0e940d0, 2025-05-08)"
   xmlns:inkscape="http://www.inkscape.org/namespaces/inkscape"
   xmlns:sodipodi="http://sodipodi.sourceforge.net/DTD/sodipodi-0.dtd"
   xmlns="http://www.w3.org/2000/svg"
   xmlns:svg="http://www.w3.org/2000/svg"
   xmlns:rdf="http://www.w3.org/1999/02/22-rdf-syntax-ns#"
   xmlns:cc="http://creativecommons.org/ns#"
   xmlns:dc="http://purl.org/dc/elements/1.1/">
  <metadata
     id="metadata77">
    <rdf:RDF>
      <cc:Work
         rdf:about="">
        <dc:format>image/svg+xml</dc:format>
        <dc:type
           rdf:resource="http://purl.org/dc/dcmitype/StillImage" />
      </cc:Work>
    </rdf:RDF>
  </metadata>
  <sodipodi:namedview
     pagecolor="#f5f7fa"
     bordercolor="#666666"
     borderopacity="1"
     objecttolerance="10"
     gridtolerance="10"
     guidetolerance="10"
     inkscape:pageopacity="0"
     inkscape:pageshadow="2"
     inkscape:window-width="1377"
     inkscape:window-height="886"
     id="namedview75"
     showgrid="false"
     inkscape:zoom="6.2890624"
     inkscape:cx="47.940373"
     inkscape:cy="42.534162"
     inkscape:window-x="20"
     inkscape:window-y="75"
     inkscape:window-maximized="0"
     inkscape:current-layer="g877"
     inkscape:document-rotation="0"
     inkscape:pagecheckerboard="0"
     inkscape:showpageshadow="2"
     inkscape:deskcolor="#d1d1d1" />
  <defs
     id="defs29" />
  <circle
     cx="32.516094"
     cy="31.877844"
     r="0"
     fill="url(#b)"
     stroke-width="1.5715"
     id="circle41"
     style="fill:url(#b)" />
  <g
     aria-label="GZ"
     transform="matrix(1.2212657,0,0,0.81882264,0.4960938,-0.1661539)"
     id="text93"
     style="font-weight:bold;font-size:11.5263px;line-height:1.25;font-family:sans-serif;-inkscape-font-specification:'sans-serif Bold';fill:#f2f2f2;stroke-width:0.288159" />
  <g
     id="g877"
     transform="matrix(1.1,0,0,1.1,-3.1845928,-3.2065454)">
    <path
       style="fill:#dfdfdf;fill-opacity:1;stroke:none;stroke-width:0.885781;stroke-dasharray:none;stroke-dashoffset:2.2;stroke-opacity:0.6"
       d="M 10.149443,55.759434 C 9.533992,55.500641 9.3383075,55.15735 9.3383075,54.336466 c 0,-0.561895 1.4126435,-7.379628 1.7166195,-8.284786 0.161106,-0.479661 0.06942,-0.622374 -1.1685654,-1.817497 C 3.715465,38.276679 1.8836355,30.307276 5.0210442,23.067474 7.7969701,16.661805 14.549366,11.398395 22.787556,9.2187176 c 3.386323,-0.8959632 5.197819,-1.1225357 9.060677,-1.1332695 5.945178,-0.016467 10.288015,0.9350187 15.134342,3.3160509 8.80383,4.325395 13.857344,11.708662 13.451765,19.653279 -0.50115,9.817262 -9.048008,18.129793 -21.292983,20.709283 -1.842836,0.388111 -3.070526,0.508088 -6.047894,0.590325 -4.093554,0.113087 -6.627021,-0.134037 -9.866056,-0.962803 l -1.724165,-0.441128 -4.95856,2.439106 c -2.727221,1.341503 -5.155323,2.476708 -5.395792,2.522684 -0.240502,0.04624 -0.690215,-0.02252 -0.999447,-0.152854 z M 48.523858,41.40847 c 0.675858,-0.67587 0.676132,-2.316861 4.48e-4,-3.045916 L 48.054505,37.855641 H 32.257557 16.460595 l -0.495999,0.589422 c -0.351444,0.417662 -0.49599,0.811208 -0.49599,1.350535 0,0.809931 0.407289,1.792809 0.810159,1.954883 0.133906,0.05357 7.338048,0.10483 16.009156,0.113086 l 15.765658,0.01531 z m -0.08974,-9.860022 c 0.474002,-0.47405 0.559952,-0.711483 0.559952,-1.547324 0,-0.835842 -0.08589,-1.073271 -0.559952,-1.547329 L 47.874173,27.893808 H 32.231372 16.588626 l -0.55998,0.559987 c -0.474056,0.474056 -0.559975,0.711487 -0.559975,1.547329 0,0.835841 0.08591,1.073265 0.559975,1.547324 l 0.55998,0.559983 h 15.642746 15.642739 z m 0.09029,-9.908761 c 0.675643,-0.729053 0.675438,-2.370041 -4.27e-4,-3.045914 L 48.053823,18.123539 H 32.351594 c -8.636149,0 -15.841647,0.05349 -16.012209,0.119003 -0.930544,0.357081 -1.159447,2.382005 -0.374711,3.314628 l 0.495984,0.589419 h 15.79696 15.796963 z"
       id="path52-7" />
  </g>
</svg>
