<?xml version="1.0" encoding="UTF-8" standalone="no"?>
<svg
   width="64"
   height="64"
   version="1.1"
   id="svg73"
   sodipodi:docname="preferences-desktop-keyboard.svg"
   inkscape:version="1.4.2 (ebf0e940d0, 2025-05-08)"
   xmlns:inkscape="http://www.inkscape.org/namespaces/inkscape"
   xmlns:sodipodi="http://sodipodi.sourceforge.net/DTD/sodipodi-0.dtd"
   xmlns="http://www.w3.org/2000/svg"
   xmlns:svg="http://www.w3.org/2000/svg"
   xmlns:rdf="http://www.w3.org/1999/02/22-rdf-syntax-ns#"
   xmlns:cc="http://creativecommons.org/ns#"
   xmlns:dc="http://purl.org/dc/elements/1.1/">
  <metadata
     id="metadata77">
    <rdf:RDF>
      <cc:Work
         rdf:about="">
        <dc:format>image/svg+xml</dc:format>
        <dc:type
           rdf:resource="http://purl.org/dc/dcmitype/StillImage" />
      </cc:Work>
    </rdf:RDF>
  </metadata>
  <sodipodi:namedview
     pagecolor="#f5f7fa"
     bordercolor="#666666"
     borderopacity="1"
     objecttolerance="10"
     gridtolerance="10"
     guidetolerance="10"
     inkscape:pageopacity="0"
     inkscape:pageshadow="2"
     inkscape:window-width="1377"
     inkscape:window-height="886"
     id="namedview75"
     showgrid="false"
     inkscape:zoom="6.2890624"
     inkscape:cx="28.859628"
     inkscape:cy="17.570187"
     inkscape:window-x="264"
     inkscape:window-y="75"
     inkscape:window-maximized="0"
     inkscape:current-layer="g877"
     inkscape:document-rotation="0"
     inkscape:pagecheckerboard="0"
     inkscape:showpageshadow="2"
     inkscape:deskcolor="#d1d1d1" />
  <defs
     id="defs29" />
  <circle
     cx="32.516094"
     cy="31.877844"
     r="0"
     fill="url(#b)"
     stroke-width="1.5715"
     id="circle41"
     style="fill:url(#b)" />
  <g
     aria-label="GZ"
     transform="matrix(1.2212657,0,0,0.81882264,0.4960938,-0.1661539)"
     id="text93"
     style="font-weight:bold;font-size:11.5263px;line-height:1.25;font-family:sans-serif;-inkscape-font-specification:'sans-serif Bold';fill:#f2f2f2;stroke-width:0.288159" />
  <g
     id="g877"
     transform="matrix(1.1,0,0,1.1,-3.1845928,-3.2065454)">
    <path
       style="color:#444444;fill:#dfdfdf;fill-opacity:1;stroke:none;stroke-width:0.854745;stroke-dasharray:none;stroke-opacity:0.6"
       class="ColorScheme-Text"
       d="m 12.325827,10.558494 c 0,0 -7.1491569,0 -7.1491569,7.149151 v 28.596607 c 0,7.149153 7.1491569,7.149153 7.1491569,7.149153 h 39.320341 c 0,0 7.149149,0 7.149149,-7.149153 V 17.707645 c 0,-7.149151 -7.149149,-7.149151 -7.149149,-7.149151 z m 0.893645,7.149151 h 5.361864 c 0.495072,0 0.893634,0.398568 0.893634,0.893647 v 5.361862 c 0,0.495072 -0.398561,0.893645 -0.893634,0.893645 h -5.361864 c -0.495076,0 -0.893645,-0.398574 -0.893645,-0.893645 v -5.361862 c 0,-0.495059 0.398563,-0.893647 0.893645,-0.893647 z m 10.723726,0 h 5.361863 c 0.495069,0 0.893646,0.398568 0.893646,0.893647 v 5.361862 c 0,0.495072 -0.398569,0.893645 -0.893646,0.893645 h -5.361863 c -0.495078,0 -0.893647,-0.398574 -0.893647,-0.893645 v -5.361862 c 0,-0.495059 0.39857,-0.893647 0.893647,-0.893647 z m 10.723727,0 h 5.361863 c 0.4951,0 0.893651,0.398568 0.893651,0.893647 v 5.361862 c 0,0.495072 -0.398599,0.893645 -0.893651,0.893645 h -5.361863 c -0.495057,0 -0.893642,-0.398574 -0.893642,-0.893645 v -5.361862 c 0,-0.495059 0.398568,-0.893647 0.893642,-0.893647 z m 10.723737,0 h 5.361858 c 0.495147,0 0.893648,0.398568 0.893648,0.893647 v 5.361862 c 0,0.495072 -0.398605,0.893645 -0.893648,0.893645 h -5.361858 c -0.495097,0 -0.893644,-0.398574 -0.893644,-0.893645 v -5.361862 c 0,-0.495059 0.398602,-0.893647 0.893644,-0.893647 z M 13.219467,28.43138 h 5.361869 c 0.495072,0 0.893634,0.398566 0.893634,0.893637 v 5.361861 c 0,0.495075 -0.398561,0.893649 -0.893634,0.893649 h -5.361869 c -0.495072,0 -0.89364,-0.398572 -0.89364,-0.893649 v -5.361861 c 0,-0.495073 0.398563,-0.893637 0.89364,-0.893637 z m 10.723731,0 h 5.361863 c 0.495069,0 0.893646,0.398566 0.893646,0.893637 v 5.361861 c 0,0.495075 -0.398569,0.893649 -0.893646,0.893649 h -5.361863 c -0.495078,0 -0.893647,-0.398572 -0.893647,-0.893649 v -5.361861 c 0,-0.495073 0.39857,-0.893637 0.893647,-0.893637 z m 10.723727,0 h 5.361863 c 0.4951,0 0.893651,0.398566 0.893651,0.893637 v 5.361861 c 0,0.495075 -0.398599,0.893649 -0.893651,0.893649 h -5.361863 c -0.495057,0 -0.893642,-0.398572 -0.893642,-0.893649 v -5.361861 c 0,-0.495073 0.398568,-0.893637 0.893642,-0.893637 z m 10.723737,0 h 5.361858 c 0.495147,0 0.893648,0.398566 0.893648,0.893637 v 5.361861 c 0,0.495075 -0.398605,0.893649 -0.893648,0.893649 h -5.361858 c -0.495097,0 -0.893644,-0.398572 -0.893644,-0.893649 v -5.361861 c 0,-0.495073 0.398602,-0.893637 0.893644,-0.893637 z M 20.368614,39.1551 h 23.234751 c 0.494986,0 0.893653,0.398536 0.893653,0.89364 v 5.361865 c 0,0.494987 -0.398601,0.893647 -0.893653,0.893647 H 20.368614 c -0.495063,0 -0.893644,-0.398601 -0.893644,-0.893647 V 40.04874 c 0,-0.495051 0.398581,-0.89364 0.893644,-0.89364 z"
       id="path5" />
  </g>
</svg>
