<?xml version="1.0" encoding="UTF-8" standalone="no"?>
<svg
   width="64"
   height="64"
   version="1.1"
   id="svg73"
   sodipodi:docname="preferences-input-devices.svg"
   inkscape:version="1.4.2 (ebf0e940d0, 2025-05-08)"
   xmlns:inkscape="http://www.inkscape.org/namespaces/inkscape"
   xmlns:sodipodi="http://sodipodi.sourceforge.net/DTD/sodipodi-0.dtd"
   xmlns="http://www.w3.org/2000/svg"
   xmlns:svg="http://www.w3.org/2000/svg"
   xmlns:rdf="http://www.w3.org/1999/02/22-rdf-syntax-ns#"
   xmlns:cc="http://creativecommons.org/ns#"
   xmlns:dc="http://purl.org/dc/elements/1.1/">
  <metadata
     id="metadata77">
    <rdf:RDF>
      <cc:Work
         rdf:about="">
        <dc:format>image/svg+xml</dc:format>
        <dc:type
           rdf:resource="http://purl.org/dc/dcmitype/StillImage" />
      </cc:Work>
    </rdf:RDF>
  </metadata>
  <sodipodi:namedview
     pagecolor="#f5f7fa"
     bordercolor="#666666"
     borderopacity="1"
     objecttolerance="10"
     gridtolerance="10"
     guidetolerance="10"
     inkscape:pageopacity="0"
     inkscape:pageshadow="2"
     inkscape:window-width="1377"
     inkscape:window-height="886"
     id="namedview75"
     showgrid="false"
     inkscape:zoom="6.2890624"
     inkscape:cx="47.940373"
     inkscape:cy="42.534162"
     inkscape:window-x="20"
     inkscape:window-y="75"
     inkscape:window-maximized="0"
     inkscape:current-layer="g877"
     inkscape:document-rotation="0"
     inkscape:pagecheckerboard="0"
     inkscape:showpageshadow="2"
     inkscape:deskcolor="#d1d1d1" />
  <defs
     id="defs29" />
  <circle
     cx="32.516094"
     cy="31.877844"
     r="0"
     fill="url(#b)"
     stroke-width="1.5715"
     id="circle41"
     style="fill:url(#b)" />
  <g
     aria-label="GZ"
     transform="matrix(1.2212657,0,0,0.81882264,0.4960938,-0.1661539)"
     id="text93"
     style="font-weight:bold;font-size:11.5263px;line-height:1.25;font-family:sans-serif;-inkscape-font-specification:'sans-serif Bold';fill:#f2f2f2;stroke-width:0.288159" />
  <g
     id="g877"
     transform="matrix(1.1,0,0,1.1,-3.1845928,-3.2065454)">
    <path
       id="path17"
       style="fill:#dfdfdf;fill-opacity:1;stroke:none;stroke-width:0.841492;stroke-dasharray:none;stroke-opacity:0.6"
       d="m 30.269757,9.7416446 c -19.721483,0 -20.6219114,0.00902 -21.2278761,0.212509 C 7.8053896,10.36942 7.1551202,10.766114 6.2765562,11.640014 5.2820426,12.629251 4.7610787,13.556342 4.498656,14.80396 4.2482523,15.994431 4.2444882,44.8936 4.494531,46.073896 c 0.5390284,2.543831 2.6858043,4.585326 5.2775266,5.018326 0.3261014,0.05493 6.6821914,0.105589 14.1243974,0.113038 l 13.531523,0.01318 -0.492695,-0.949045 c -0.799715,-1.54142 -1.295734,-3.269873 -1.486082,-5.177714 l -0.07776,-0.776908 h -8.85502 -8.855666 L 17.378542,44.032514 17.096331,43.750262 V 40.658809 37.5666 l 0.296432,-0.278827 0.297103,-0.278825 8.85025,-0.03047 8.849572,-0.03117 v -1.66615 -1.666231 h -1.490277 c -1.603279,0 -1.976218,-0.09195 -2.178555,-0.536001 -0.179872,-0.394759 -0.174535,-5.604353 0.0058,-5.943479 0.263662,-0.495031 0.420372,-0.531525 2.301731,-0.535336 l 1.802288,-0.0035 0.254461,-0.776946 c 0.13975,-0.427141 0.428802,-1.159286 0.642265,-1.626977 0.213462,-0.467684 0.387794,-0.865997 0.387794,-0.885231 0,-0.01919 -1.117674,-0.05036 -2.483781,-0.0697 l -2.483794,-0.03518 -0.27748,-0.322822 c -0.277214,-0.322498 -0.277456,-0.324941 -0.277456,-3.197732 v -2.875664 l 0.282216,-0.282218 0.282897,-0.282225 h 2.987981 2.987983 l 0.238906,0.303195 c 0.221994,0.282228 0.238223,0.451807 0.238223,2.462123 v 2.159616 l 0.75804,-0.785691 c 0.417031,-0.431959 1.16743,-1.08704 1.66758,-1.455757 0.906477,-0.668251 0.909583,-0.671598 0.910271,-1.19925 0.0012,-0.663229 0.19164,-1.225212 0.465625,-1.371834 0.126111,-0.06751 1.877011,-0.112348 4.370646,-0.112348 3.745123,0 4.275701,0.02319 5.320845,0.236198 1.168107,0.238044 2.921775,0.849818 3.628217,1.265578 0.209276,0.123157 0.403115,0.224014 0.431105,0.224014 0.121374,0 0.03238,-2.427472 -0.11437,-3.119952 -0.48351,-2.281097 -2.14062,-4.060639 -4.55201,-4.888924 C 50.885641,9.7489222 50.161661,9.7416204 30.269668,9.7416204 Z M 14.726831,16.242117 h 2.904059 l 0.279508,0.296429 c 0.275452,0.292968 0.279284,0.328899 0.31538,2.864134 0.04153,2.91997 -0.0329,3.415467 -0.552932,3.684387 -0.458775,0.237243 -5.547288,0.248214 -5.971905,0.01265 -0.541451,-0.300066 -0.579033,-0.520706 -0.583383,-3.383185 -0.0042,-2.796836 0.06107,-3.228008 0.518418,-3.403525 0.102443,-0.0393 1.493426,-0.07105 3.090851,-0.07105 z m 10.331048,0 c 2.725721,0 2.963088,0.01629 3.214698,0.219952 l 0.27139,0.219959 v 2.998133 c 0,2.966091 -0.0024,3.001478 -0.261912,3.260727 -0.256718,0.256941 -0.316441,0.262105 -3.048892,0.284243 -1.532892,0.01265 -2.864637,-0.007 -2.959556,-0.04331 -0.09494,-0.03637 -0.289408,-0.171628 -0.431791,-0.301171 -0.25562,-0.232551 -0.258528,-0.272835 -0.258528,-3.186957 0,-2.936194 0.0011,-2.952961 0.265977,-3.201844 0.259072,-0.243389 0.345847,-0.249734 3.208615,-0.249734 z m 24.242922,3.567305 c -2.62901,-0.0017 -4.922414,1.016295 -6.905182,3.064463 -1.616657,1.669971 -2.606572,3.592469 -3.172065,6.162755 -0.190561,0.86619 -0.209804,1.603479 -0.209804,7.972469 0,7.80754 -0.0024,7.77271 0.808749,10.043407 1.352174,3.783223 4.553477,6.585431 8.169417,7.151531 0.868095,0.135899 2.536102,0.05493 3.494212,-0.17122 1.005344,-0.236685 2.520893,-0.965596 3.467815,-1.667585 2.382757,-1.766397 4.05443,-4.675149 4.540521,-7.900055 0.13439,-0.891797 0.169893,-2.452777 0.168566,-7.456075 -0.0014,-3.572474 -0.0509,-6.678579 -0.115689,-7.13326 -0.466252,-3.278852 -1.991632,-6.095749 -4.305747,-7.95148 -1.778617,-1.4263 -3.708838,-2.113446 -5.940773,-2.114934 z m -0.09473,6.453095 c 0.09918,-0.0049 0.199389,-0.0038 0.299776,0.0038 0.267681,0.02076 0.537273,0.08757 0.794549,0.20439 1.056267,0.479696 1.225094,1.117915 1.176247,4.447792 -0.04281,2.87161 -0.117031,3.169689 -0.928546,3.706726 -0.325509,0.215405 -0.63489,0.309016 -1.103159,0.333651 -0.742585,0.03901 -1.088472,-0.07567 -1.553203,-0.516388 -0.636267,-0.60342 -0.651717,-0.691768 -0.651717,-3.831925 0,-2.88212 0.0018,-2.903734 0.286244,-3.388634 0.340892,-0.581793 0.985784,-0.924725 1.679756,-0.95968 z M 14.68015,26.596853 c 2.860701,0 2.863781,2.19e-4 3.186281,0.277478 l 0.32282,0.277477 0.03862,2.444532 c 0.04534,2.837507 -0.0092,3.366586 -0.38779,3.745301 -0.272975,0.27297 -0.27548,0.273416 -3.148379,0.273416 -2.87347,0 -2.875161,2.7e-5 -3.197786,-0.27748 L 11.17101,33.059416 v -2.95346 -2.954148 l 0.322823,-0.277477 c 0.322549,-0.277448 0.32512,-0.277478 3.186276,-0.277478 z m 7.467593,0 h 2.929065 2.929108 l 0.297777,0.353946 0.297782,0.353964 v 2.818783 2.818792 l -0.336353,0.33636 -0.336366,0.336361 H 25.038234 22.14771 l -0.282216,-0.282223 -0.282217,-0.282895 v -2.943992 -2.94467 l 0.282217,-0.282221 z" />
  </g>
</svg>
