<?xml version="1.0" encoding="UTF-8" standalone="no"?>
<svg
   width="64"
   height="64"
   version="1.1"
   id="svg73"
   sodipodi:docname="preferences-wired.svg"
   inkscape:version="1.4.2 (ebf0e940d0, 2025-05-08)"
   xmlns:inkscape="http://www.inkscape.org/namespaces/inkscape"
   xmlns:sodipodi="http://sodipodi.sourceforge.net/DTD/sodipodi-0.dtd"
   xmlns="http://www.w3.org/2000/svg"
   xmlns:svg="http://www.w3.org/2000/svg"
   xmlns:rdf="http://www.w3.org/1999/02/22-rdf-syntax-ns#"
   xmlns:cc="http://creativecommons.org/ns#"
   xmlns:dc="http://purl.org/dc/elements/1.1/">
  <metadata
     id="metadata77">
    <rdf:RDF>
      <cc:Work
         rdf:about="">
        <dc:format>image/svg+xml</dc:format>
        <dc:type
           rdf:resource="http://purl.org/dc/dcmitype/StillImage" />
      </cc:Work>
    </rdf:RDF>
  </metadata>
  <sodipodi:namedview
     pagecolor="#f5f7fa"
     bordercolor="#666666"
     borderopacity="1"
     objecttolerance="10"
     gridtolerance="10"
     guidetolerance="10"
     inkscape:pageopacity="0"
     inkscape:pageshadow="2"
     inkscape:window-width="1377"
     inkscape:window-height="886"
     id="namedview75"
     showgrid="false"
     inkscape:zoom="6.2890624"
     inkscape:cx="47.940373"
     inkscape:cy="42.534162"
     inkscape:window-x="20"
     inkscape:window-y="75"
     inkscape:window-maximized="0"
     inkscape:current-layer="g877"
     inkscape:document-rotation="0"
     inkscape:pagecheckerboard="0"
     inkscape:showpageshadow="2"
     inkscape:deskcolor="#d1d1d1" />
  <defs
     id="defs29" />
  <circle
     cx="32.516094"
     cy="31.877844"
     r="0"
     fill="url(#b)"
     stroke-width="1.5715"
     id="circle41"
     style="fill:url(#b)" />
  <g
     aria-label="GZ"
     transform="matrix(1.2212657,0,0,0.81882264,0.4960938,-0.1661539)"
     id="text93"
     style="font-weight:bold;font-size:11.5263px;line-height:1.25;font-family:sans-serif;-inkscape-font-specification:'sans-serif Bold';fill:#f2f2f2;stroke-width:0.288159" />
  <g
     id="g877"
     transform="matrix(1.1,0,0,1.1,-3.1845928,-3.2065454)">
    <path
       d="m 7.9125821,7.9325347 c 0,0 -4.0122383,0 -4.0122383,4.0122393 v 36.110112 c 0,4.01224 4.0122383,4.01224 4.0122383,4.01224 h 8.0244659 l 4.012238,4.012239 h 24.073415 l 4.012233,-4.012239 h 8.024479 c 0,0 4.012229,0.521605 4.012229,-4.01224 V 11.944774 c 0,-4.0122393 -4.012229,-4.0122393 -4.012229,-4.0122393 z m 4.0122349,8.0244703 h 4.012231 v 12.036709 h 8.024477 V 15.957005 h 4.012232 V 27.993714 H 35.99823 V 15.957005 h 4.012238 v 12.036709 h 8.024466 V 15.957005 h 4.012246 v 28.085643 h -8.024479 l -4.012233,4.012238 H 23.961525 l -4.012239,-4.012238 h -8.024469 z"
       fill="#ffffff"
       id="path2"
       style="fill:#dfdfdf;fill-opacity:1;stroke:none;stroke-width:0.97436;stroke-dasharray:none;stroke-opacity:0.6" />
  </g>
</svg>
