<?xml version="1.0" encoding="UTF-8" standalone="no"?>
<svg
   width="64"
   height="64"
   version="1.1"
   id="svg73"
   sodipodi:docname="protonvpn-logo.svg"
   inkscape:version="1.4.2 (ebf0e940d0, 2025-05-08)"
   xmlns:inkscape="http://www.inkscape.org/namespaces/inkscape"
   xmlns:sodipodi="http://sodipodi.sourceforge.net/DTD/sodipodi-0.dtd"
   xmlns="http://www.w3.org/2000/svg"
   xmlns:svg="http://www.w3.org/2000/svg"
   xmlns:rdf="http://www.w3.org/1999/02/22-rdf-syntax-ns#"
   xmlns:cc="http://creativecommons.org/ns#"
   xmlns:dc="http://purl.org/dc/elements/1.1/">
  <metadata
     id="metadata77">
    <rdf:RDF>
      <cc:Work
         rdf:about="">
        <dc:format>image/svg+xml</dc:format>
        <dc:type
           rdf:resource="http://purl.org/dc/dcmitype/StillImage" />
      </cc:Work>
    </rdf:RDF>
  </metadata>
  <sodipodi:namedview
     pagecolor="#f5f7fa"
     bordercolor="#666666"
     borderopacity="1"
     objecttolerance="10"
     gridtolerance="10"
     guidetolerance="10"
     inkscape:pageopacity="0"
     inkscape:pageshadow="2"
     inkscape:window-width="1377"
     inkscape:window-height="886"
     id="namedview75"
     showgrid="false"
     inkscape:zoom="6.2890624"
     inkscape:cx="45.714286"
     inkscape:cy="42.057144"
     inkscape:window-x="0"
     inkscape:window-y="75"
     inkscape:window-maximized="0"
     inkscape:current-layer="g877"
     inkscape:document-rotation="0"
     inkscape:pagecheckerboard="0"
     inkscape:showpageshadow="2"
     inkscape:deskcolor="#d1d1d1" />
  <defs
     id="defs29" />
  <circle
     cx="32.516094"
     cy="31.877844"
     r="0"
     fill="url(#b)"
     stroke-width="1.5715"
     id="circle41"
     style="fill:url(#b)" />
  <g
     aria-label="GZ"
     transform="matrix(1.2212657,0,0,0.81882264,0.4960938,-0.1661539)"
     id="text93"
     style="font-weight:bold;font-size:11.5263px;line-height:1.25;font-family:sans-serif;-inkscape-font-specification:'sans-serif Bold';fill:#f2f2f2;stroke-width:0.288159" />
  <g
     id="g877"
     transform="matrix(1.1,0,0,1.1,-3.1845928,-3.2065454)">
    <path
       id="path6-3"
       style="fill:#dfdfdf;fill-opacity:1;stroke:none;stroke-width:0.077398"
       d="m 10.214628,8.0174736 c -0.6777225,0 -1.5400587,0.2219547 -2.3044322,0.5938317 C 7.3029942,8.9067114 7.0663762,9.0781838 6.5520548,9.5959109 5.2825916,10.873767 4.7918066,12.492876 5.1958303,14.072599 c 0.1459561,0.570689 0.4734739,1.318621 0.6148951,1.406023 0.038708,0.024 8.3201286,0.966183 18.4028916,2.093722 10.082763,1.127541 18.52315,2.089658 18.757279,2.137777 0.633838,0.130278 1.196728,0.425581 1.689528,0.884995 0.425838,0.396917 0.447741,0.405885 0.672345,0.31032 0.480316,-0.204319 12.390303,-5.556843 12.552738,-5.641358 0.167883,-0.08734 0.165863,-0.09151 -0.155141,-0.476979 -0.712802,-0.856014 -1.488681,-1.391285 -2.469161,-1.701023 -0.694794,-0.219489 1.11202,-0.0097 -21.925632,-2.555372 C 23.885324,9.4863652 14.901108,8.4931213 13.371486,8.3239666 11.841868,8.1548108 10.421471,8.0174736 10.214628,8.0174736 Z m 48.343273,8.2082244 c -0.03699,-0.033 -1.495847,0.582097 -3.241153,1.367716 -1.745315,0.785621 -4.636938,2.087011 -6.424832,2.890598 -2.65973,1.19545 -3.246358,1.485197 -3.225812,1.597585 0.0139,0.07554 0.04606,0.460665 0.06907,0.854345 0.04742,0.789743 -0.03488,1.231908 -0.32945,1.819794 -0.299155,0.59623 -14.828791,23.015937 -15.962452,24.630413 -0.567929,0.808809 -1.144211,1.569205 -1.279598,1.689542 -0.413429,0.367455 -0.974282,0.610682 -1.503721,0.653232 l -0.484641,0.03836 0.204968,0.35816 c 0.744993,1.297039 0.976324,1.640664 1.459666,2.160758 0.821991,0.884508 1.62539,1.345239 2.787156,1.601417 1.068978,0.235689 2.282222,0.07805 3.367573,-0.440557 1.313832,-0.62777 0.628715,0.329083 13.156135,-18.427788 6.162926,-9.227531 11.281412,-16.954404 11.374672,-17.171182 0.224457,-0.521797 0.387893,-1.311378 0.388866,-1.884919 7.41e-4,-0.475602 -0.235763,-1.629632 -0.356288,-1.737309 z M 6.5922801,16.70267 c -0.084676,0.01562 2.5187505,4.7156 9.2100669,16.627159 5.130617,9.133275 9.412431,16.721758 9.514642,16.862774 0.102212,0.141053 0.329301,0.32108 0.503795,0.400311 0.368241,0.167255 0.615848,0.182275 0.982686,0.05998 0.48044,-0.160826 0.732723,-0.432323 1.741254,-1.86193 1.336865,-1.894993 15.87579,-24.370543 16.029509,-24.779833 0.06625,-0.176775 0.124782,-0.566473 0.128362,-0.867752 0.0063,-0.471059 -0.02864,-0.621916 -0.248945,-1.068891 C 44.158251,21.474084 43.659335,21.027209 43.070508,20.834566 42.715751,20.718478 6.8469173,16.655658 6.5922861,16.702674 Z" />
  </g>
</svg>
