<?xml version="1.0" encoding="UTF-8" standalone="no"?>
<svg
   width="64"
   height="64"
   version="1.1"
   id="svg73"
   sodipodi:docname="protonup-qt.svg"
   inkscape:version="1.4.2 (ebf0e940d0, 2025-05-08)"
   xmlns:inkscape="http://www.inkscape.org/namespaces/inkscape"
   xmlns:sodipodi="http://sodipodi.sourceforge.net/DTD/sodipodi-0.dtd"
   xmlns="http://www.w3.org/2000/svg"
   xmlns:svg="http://www.w3.org/2000/svg"
   xmlns:rdf="http://www.w3.org/1999/02/22-rdf-syntax-ns#"
   xmlns:cc="http://creativecommons.org/ns#"
   xmlns:dc="http://purl.org/dc/elements/1.1/">
  <metadata
     id="metadata77">
    <rdf:RDF>
      <cc:Work
         rdf:about="">
        <dc:format>image/svg+xml</dc:format>
        <dc:type
           rdf:resource="http://purl.org/dc/dcmitype/StillImage" />
      </cc:Work>
    </rdf:RDF>
  </metadata>
  <sodipodi:namedview
     pagecolor="#f5f7fa"
     bordercolor="#666666"
     borderopacity="1"
     objecttolerance="10"
     gridtolerance="10"
     guidetolerance="10"
     inkscape:pageopacity="0"
     inkscape:pageshadow="2"
     inkscape:window-width="1377"
     inkscape:window-height="886"
     id="namedview75"
     showgrid="false"
     inkscape:zoom="6.2890624"
     inkscape:cx="43.170187"
     inkscape:cy="42.693168"
     inkscape:window-x="264"
     inkscape:window-y="75"
     inkscape:window-maximized="0"
     inkscape:current-layer="g877"
     inkscape:document-rotation="0"
     inkscape:pagecheckerboard="0"
     inkscape:showpageshadow="2"
     inkscape:deskcolor="#d1d1d1" />
  <defs
     id="defs29" />
  <circle
     cx="32.516094"
     cy="31.877844"
     r="0"
     fill="url(#b)"
     stroke-width="1.5715"
     id="circle41"
     style="fill:url(#b)" />
  <g
     aria-label="GZ"
     transform="matrix(1.2212657,0,0,0.81882264,0.4960938,-0.1661539)"
     id="text93"
     style="font-weight:bold;font-size:11.5263px;line-height:1.25;font-family:sans-serif;-inkscape-font-specification:'sans-serif Bold';fill:#f2f2f2;stroke-width:0.288159" />
  <g
     id="g877"
     transform="matrix(1.1,0,0,1.1,-3.1845928,-3.2065454)">
    <path
       id="path7"
       style="fill:#dfdfdf;fill-opacity:1;stroke:none;stroke-width:0.118271;stroke-dasharray:none;stroke-opacity:1"
       d="m 31.986808,5.0860834 c -0.780923,0.00119 -1.01874,0.040543 -1.429752,0.2363816 C 30.158973,5.5121355 27.722771,7.8984757 17.875142,17.733572 9.5742316,26.023917 5.6047868,30.051349 5.4387906,30.358106 c -0.9589561,1.772144 -0.1958938,3.942988 1.6936757,4.819406 0.4593208,0.213037 0.6996513,0.259027 1.3471399,0.257033 1.5064412,-0.0047 0.763169,0.64131 10.8918458,-9.468977 4.960698,-4.951689 9.052628,-9.003102 9.092601,-9.003102 0.03989,0 0.07345,4.51208 0.07345,10.026651 v 10.026651 l 0.860609,0.862902 0.860608,0.865197 1.689083,-1.68679 c 1.462685,-1.460891 1.714216,-1.67248 1.874978,-1.583516 0.102058,0.0565 0.494923,0.420403 0.874378,0.807822 l 0.690781,0.704547 0.02528,-10.012878 c 0.0139,-5.506561 0.05666,-10.010587 0.09642,-10.010587 0.03979,0 4.131903,4.051411 9.092608,9.003102 10.128668,10.110288 9.385402,9.464394 10.89184,9.468978 0.647488,0.0016 0.887812,-0.04404 1.347138,-0.257036 1.856659,-0.861155 2.626096,-2.970921 1.737285,-4.759733 C 58.448807,30.156772 54.217726,25.85236 46.204102,17.832252 36.049693,7.6696381 33.933273,5.5965257 33.473994,5.3637752 32.98321,5.115054 32.821109,5.0848137 31.986863,5.0860834 Z m 1.72351,32.3749036 -1.675314,1.677609 c -0.9205,0.9217 -1.704683,1.663771 -1.744165,1.650074 -0.03948,-0.0139 -0.818774,-0.766494 -1.730394,-1.67302 l -1.656956,-1.647779 -1.769406,1.771701 -1.769414,1.771711 0.66324,0.663232 0.665541,0.663251 1.060261,-1.057972 c 0.583835,-0.582033 1.095742,-1.05798 1.138302,-1.05798 0.04261,0 0.815598,0.7327 1.716627,1.62713 0.90103,0.89442 1.664091,1.624817 1.695969,1.624817 0.03191,0 0.789004,-0.730397 1.682199,-1.624817 0.893197,-0.89443 1.669272,-1.62713 1.72351,-1.62713 0.05424,0 0.842285,0.742488 1.751049,1.650068 l 1.652367,1.650077 1.746455,-1.748756 1.748762,-1.748755 -0.663251,-0.66324 -0.665536,-0.665535 -1.083209,1.083219 -1.085518,1.08092 -1.70056,-1.698265 z m 0.0046,4.828582 -1.700555,1.700566 -1.702855,1.698267 -0.885858,-0.883568 -0.888145,-0.88356 0.0046,6.109174 c 0.0036,5.508053 0.02032,6.15481 0.172144,6.572744 0.359412,0.989359 1.165298,1.796174 2.168728,2.173324 0.340868,0.128069 0.670887,0.167093 1.250752,0.142266 1.326745,-0.05678 2.354796,-0.72714 2.976551,-1.941526 l 0.277696,-0.541565 0.02757,-6.205554 0.02755,-6.203252 -0.865197,-0.867489 z" />
  </g>
</svg>
