<?xml version="1.0" encoding="UTF-8" standalone="no"?>
<svg
   width="64"
   height="64"
   version="1.1"
   id="svg73"
   sodipodi:docname="psensor.svg"
   inkscape:version="1.4.2 (ebf0e940d0, 2025-05-08)"
   xmlns:inkscape="http://www.inkscape.org/namespaces/inkscape"
   xmlns:sodipodi="http://sodipodi.sourceforge.net/DTD/sodipodi-0.dtd"
   xmlns="http://www.w3.org/2000/svg"
   xmlns:svg="http://www.w3.org/2000/svg"
   xmlns:rdf="http://www.w3.org/1999/02/22-rdf-syntax-ns#"
   xmlns:cc="http://creativecommons.org/ns#"
   xmlns:dc="http://purl.org/dc/elements/1.1/">
  <metadata
     id="metadata77">
    <rdf:RDF>
      <cc:Work
         rdf:about="">
        <dc:format>image/svg+xml</dc:format>
        <dc:type
           rdf:resource="http://purl.org/dc/dcmitype/StillImage" />
      </cc:Work>
    </rdf:RDF>
  </metadata>
  <sodipodi:namedview
     pagecolor="#f5f7fa"
     bordercolor="#666666"
     borderopacity="1"
     objecttolerance="10"
     gridtolerance="10"
     guidetolerance="10"
     inkscape:pageopacity="0"
     inkscape:pageshadow="2"
     inkscape:window-width="1377"
     inkscape:window-height="886"
     id="namedview75"
     showgrid="false"
     inkscape:zoom="6.2890624"
     inkscape:cx="47.940373"
     inkscape:cy="42.534162"
     inkscape:window-x="20"
     inkscape:window-y="75"
     inkscape:window-maximized="0"
     inkscape:current-layer="g877"
     inkscape:document-rotation="0"
     inkscape:pagecheckerboard="0"
     inkscape:showpageshadow="2"
     inkscape:deskcolor="#d1d1d1" />
  <defs
     id="defs29" />
  <circle
     cx="32.516094"
     cy="31.877844"
     r="0"
     fill="url(#b)"
     stroke-width="1.5715"
     id="circle41"
     style="fill:url(#b)" />
  <g
     aria-label="GZ"
     transform="matrix(1.2212657,0,0,0.81882264,0.4960938,-0.1661539)"
     id="text93"
     style="font-weight:bold;font-size:11.5263px;line-height:1.25;font-family:sans-serif;-inkscape-font-specification:'sans-serif Bold';fill:#f2f2f2;stroke-width:0.288159" />
  <g
     id="g877"
     transform="matrix(1.1,0,0,1.1,-3.1845928,-3.2065454)">
    <path
       id="path13"
       style="fill:#dfdfdf;fill-opacity:1;stroke:none;stroke-width:0.930069;stroke-dasharray:none;stroke-opacity:0.6"
       d="M 9.178797,5.2140045 9.176157,6.6744724 9.173407,8.1375693 8.8404128,8.3683086 C 8.6569823,8.4951265 8.4196463,8.7339189 8.3133676,8.8979619 l -0.19393,0.2989063 H 6.6560993 5.1956306 v 1.3162548 1.313641 H 6.509267 7.8229062 v 1.397551 1.400162 H 6.7006757 c -1.649436,0.0016 -1.5050451,-0.124062 -1.5050451,1.32413 v 1.219248 H 6.509267 7.8229062 v 1.400163 1.397542 l -1.1222305,0.0027 c -1.6524933,0.0018 -1.5050451,-0.133982 -1.5050451,1.363467 v 1.263822 H 6.509267 7.8229062 v 1.355529 1.355593 H 6.509267 5.1956306 v 1.316258 1.31364 H 6.509267 7.8229062 v 1.397601 1.400164 H 6.509267 5.1956306 v 1.271685 1.271684 H 6.509267 7.8229062 v 1.400169 1.397542 H 6.509267 5.1956306 v 1.313641 1.316254 H 6.509267 7.8229062 v 1.355583 1.355594 H 6.509267 5.1956306 v 1.316263 1.313637 H 6.509267 7.8229062 v 1.397541 1.400175 H 6.5617084 5.3005094 l -0.052335,0.264793 c -0.029055,0.145735 -0.052361,0.7179 -0.052361,1.271681 v 1.006862 H 6.509437 7.8230756 v 1.400167 1.397549 H 6.509267 5.1956279 v 1.313636 1.316269 l 1.4604689,0.0026 1.4630999,0.0026 0.2307382,0.332994 c 0.1268179,0.183427 0.3656048,0.420684 0.5296511,0.527038 l 0.2989008,0.194044 v 1.463105 1.460469 h 1.3162642 1.313641 v -1.314033 -1.313643 h 1.397541 1.400168 v 1.313643 1.313634 h 1.271691 1.271681 v -1.31357 -1.313647 h 1.400169 1.397543 v 1.313647 1.313626 h 1.31364 1.31626 v -1.313705 -1.313645 h 1.355591 1.355592 v 1.313645 1.313627 h 1.316256 1.313639 v -1.313627 -1.313645 h 1.397548 1.400164 v 1.313645 1.313627 h 1.271685 1.271682 v -1.313627 -1.313645 h 1.400164 1.397549 v 1.313645 1.313627 h 1.313639 1.316259 v -1.313619 -1.313638 h 1.355593 1.355589 v 1.313638 1.313647 h 1.31626 1.313632 v -1.313647 -1.313638 h 1.397546 1.400167 v 1.313638 1.313647 h 1.271695 1.271677 v -1.313647 -1.313638 h 1.400168 1.39754 v 1.313638 1.313647 h 1.313644 1.316259 V 57.33716 55.874071 l 0.298992,-0.194045 c 0.164064,-0.106293 0.402853,-0.343603 0.529595,-0.527038 l 0.230667,-0.332993 1.463093,-0.0026 1.460474,-0.0026 V 53.498778 52.18513 h -1.31362 -1.313638 v -1.3975 -1.400172 h 1.313638 1.31362 v -1.271815 -1.271678 h -1.313507 -1.31364 v -1.400064 -1.397538 h 1.31364 1.31362 v -1.313689 -1.316262 h -1.313545 -1.313638 v -1.355595 -1.355578 h 1.313638 1.313626 V 37.388981 36.075342 H 57.466012 56.152374 V 34.677795 33.27763 h 1.313638 1.313626 v -1.271685 -1.271684 h -1.313626 -1.313638 v -1.400165 -1.397544 h 1.313638 1.313626 V 26.62291 25.306651 h -1.313626 -1.313638 v -1.355593 -1.355589 h 1.313638 1.313626 v -1.316261 -1.31364 h -1.313626 -1.313638 v -1.397543 -1.400163 h 1.313638 1.313626 v -1.271687 -1.271686 h -1.313626 -1.313638 v -1.400164 -1.397547 h 1.313638 1.313626 V 10.513134 9.1968682 H 57.319173 55.856075 L 55.662028,8.8979542 C 55.555802,8.7339266 55.318429,8.4951485 55.134991,8.3683031 l -0.332992,-0.2307437 -0.0027,-1.4630943 -0.0026,-1.4604739 H 53.480745 52.167106 V 6.5276365 7.8412733 H 50.769588 49.369416 V 6.5276401 5.2140045 H 48.097735 46.826057 V 6.5276401 7.841281 H 45.425781 44.028242 V 6.5276401 5.2140045 H 42.714602 41.39834 V 6.5276401 7.841281 H 40.04275 38.687158 V 6.5276401 5.2140045 H 37.370899 36.05726 V 6.5276401 7.841281 H 34.659715 33.259549 V 6.5276401 5.2140045 H 31.987865 30.716178 V 6.5276401 7.841281 H 29.316014 27.91847 V 6.5276401 5.2140045 H 26.604829 25.288573 V 6.5276401 7.841281 H 23.932979 22.577388 V 6.5276401 5.2140045 h -1.31626 -1.31364 V 6.5276401 7.841281 H 18.549946 17.149779 V 6.5276401 5.2140045 H 15.878094 14.606407 V 6.5276401 7.841281 H 13.20624 11.808698 V 6.5276401 5.2140045 h -1.313639 z m 22.809068,7.9683585 c 0.839282,0 1.679631,0.190332 2.448979,0.568988 0.859374,0.422952 1.88361,1.42818 2.317875,2.273301 0.652705,1.270208 0.608772,0.688214 0.658134,8.786429 l 0.04456,7.263035 0.715814,0.513923 c 2.915999,2.084212 4.5847,5.302884 4.583351,8.846726 -0.0022,5.364288 -4.071495,9.972837 -9.413084,10.663809 -5.053301,0.653671 -9.937457,-2.426127 -11.563199,-7.28926 -0.694803,-2.078364 -0.74189,-4.23724 -0.136352,-6.444951 0.245021,-0.893307 1.084899,-2.565528 1.688592,-3.366685 0.633135,-0.840238 1.833234,-1.991018 2.624653,-2.517148 l 0.597822,-0.398552 0.02621,-7.265659 c 0.02904,-8.110413 -0.01514,-7.517066 0.639826,-8.791677 0.434271,-0.845115 1.4585,-1.850344 2.317876,-2.273297 0.769354,-0.378647 1.609702,-0.568983 2.448987,-0.568977 z m 0,2.797709 c -0.557502,0 -0.725318,0.03895 -1.172051,0.26219 -0.604372,0.302014 -1.051613,0.797241 -1.292659,1.431635 -0.156767,0.412764 -0.162559,0.735388 -0.162559,8.29349 v 7.866104 l -0.57422,0.243848 c -1.830035,0.779619 -3.432995,2.417174 -4.197873,4.287024 -1.892553,4.626641 0.834598,9.792903 5.747495,10.886685 0.876281,0.195141 2.917449,0.134405 3.765241,-0.112747 3.789369,-1.104589 6.211279,-4.614904 5.849757,-8.479655 -0.264571,-2.828292 -1.992253,-5.282121 -4.549231,-6.465921 l -0.78399,-0.364473 v -7.86348 c -0.0013,-7.554008 -0.0083,-7.878206 -0.165181,-8.290867 -0.241049,-0.634389 -0.688287,-1.129623 -1.29266,-1.431632 -0.446735,-0.223231 -0.614561,-0.262203 -1.172052,-0.262203 z" />
  </g>
</svg>
