<?xml version="1.0" encoding="UTF-8" standalone="no"?>
<svg
   width="64"
   height="64"
   version="1.1"
   id="svg73"
   sodipodi:docname="qdbusviewer.svg"
   inkscape:version="1.4.2 (ebf0e940d0, 2025-05-08)"
   xmlns:inkscape="http://www.inkscape.org/namespaces/inkscape"
   xmlns:sodipodi="http://sodipodi.sourceforge.net/DTD/sodipodi-0.dtd"
   xmlns="http://www.w3.org/2000/svg"
   xmlns:svg="http://www.w3.org/2000/svg"
   xmlns:rdf="http://www.w3.org/1999/02/22-rdf-syntax-ns#"
   xmlns:cc="http://creativecommons.org/ns#"
   xmlns:dc="http://purl.org/dc/elements/1.1/">
  <metadata
     id="metadata77">
    <rdf:RDF>
      <cc:Work
         rdf:about="">
        <dc:format>image/svg+xml</dc:format>
        <dc:type
           rdf:resource="http://purl.org/dc/dcmitype/StillImage" />
      </cc:Work>
    </rdf:RDF>
  </metadata>
  <sodipodi:namedview
     pagecolor="#f5f7fa"
     bordercolor="#666666"
     borderopacity="1"
     objecttolerance="10"
     gridtolerance="10"
     guidetolerance="10"
     inkscape:pageopacity="0"
     inkscape:pageshadow="2"
     inkscape:window-width="1377"
     inkscape:window-height="886"
     id="namedview75"
     showgrid="false"
     inkscape:zoom="6.2890624"
     inkscape:cx="46.986336"
     inkscape:cy="44.601243"
     inkscape:window-x="264"
     inkscape:window-y="75"
     inkscape:window-maximized="0"
     inkscape:current-layer="g877"
     inkscape:document-rotation="0"
     inkscape:pagecheckerboard="0"
     inkscape:showpageshadow="2"
     inkscape:deskcolor="#d1d1d1" />
  <defs
     id="defs29" />
  <circle
     cx="32.516094"
     cy="31.877844"
     r="0"
     fill="url(#b)"
     stroke-width="1.5715"
     id="circle41"
     style="fill:url(#b)" />
  <g
     aria-label="GZ"
     transform="matrix(1.2212657,0,0,0.81882264,0.4960938,-0.1661539)"
     id="text93"
     style="font-weight:bold;font-size:11.5263px;line-height:1.25;font-family:sans-serif;-inkscape-font-specification:'sans-serif Bold';fill:#f2f2f2;stroke-width:0.288159" />
  <g
     id="g877"
     transform="matrix(1.1,0,0,1.1,-3.1845928,-3.2065454)">
    <path
       d="m 29.439706,31.419228 q 0,4.125154 -1.137204,7.24689 -1.114907,3.099439 -3.255524,5.195466 -2.11832,2.073717 -5.217758,3.121734 -3.077141,1.048005 -7.023907,1.048005 H 4.2205383 V 15.431481 h 9.5435927 q 3.589996,0 6.466451,1.025712 2.898761,1.02571 4.950184,3.054843 2.051427,2.006831 3.144034,4.99478 1.114906,2.987946 1.114906,6.912412 z m -7.001607,0.178387 q 0,-2.72037 -0.557458,-4.682603 -0.535153,-1.984535 -1.583162,-3.277828 -1.025716,-1.293294 -2.541987,-1.917635 -1.493973,-0.62435 -3.433908,-0.62435 h -3.188635 v 21.227807 h 2.541986 q 4.370432,0 6.555647,-2.675773 2.207517,-2.675775 2.207517,-8.049621 z M 52.518266,15.431484 h 6.979303 L 49.32963,48.031326 H 41.792867 L 31.647222,15.431484 h 6.979313 l 5.529929,19.622342 q 0.11149,0.379065 0.289886,1.270992 0.200735,0.891924 0.401318,1.962234 0.223001,1.070308 0.423663,2.140621 0.200732,1.070311 0.312157,1.806146 0.111489,-0.735839 0.31216,-1.806146 0.200735,-1.070313 0.423735,-2.118321 0.223001,-1.07031 0.423736,-1.962237 0.223003,-0.891923 0.334504,-1.293289 z"
       id="text6"
       style="font-weight:bold;font-size:8.4665px;font-family:'Droid Sans';-inkscape-font-specification:'Droid Sans Bold';text-align:end;letter-spacing:0px;text-anchor:end;fill:#dfdfdf;fill-opacity:1;stroke:none;stroke-width:0.713538;stroke-opacity:0.6"
       aria-label="DV" />
  </g>
</svg>
