<?xml version="1.0" encoding="UTF-8" standalone="no"?>
<svg
   width="64"
   height="64"
   version="1.1"
   id="svg73"
   sodipodi:docname="recordbox.svg"
   inkscape:version="1.4.2 (ebf0e940d0, 2025-05-08)"
   xmlns:inkscape="http://www.inkscape.org/namespaces/inkscape"
   xmlns:sodipodi="http://sodipodi.sourceforge.net/DTD/sodipodi-0.dtd"
   xmlns="http://www.w3.org/2000/svg"
   xmlns:svg="http://www.w3.org/2000/svg"
   xmlns:rdf="http://www.w3.org/1999/02/22-rdf-syntax-ns#"
   xmlns:cc="http://creativecommons.org/ns#"
   xmlns:dc="http://purl.org/dc/elements/1.1/">
  <metadata
     id="metadata77">
    <rdf:RDF>
      <cc:Work
         rdf:about="">
        <dc:format>image/svg+xml</dc:format>
        <dc:type
           rdf:resource="http://purl.org/dc/dcmitype/StillImage" />
      </cc:Work>
    </rdf:RDF>
  </metadata>
  <sodipodi:namedview
     pagecolor="#f5f7fa"
     bordercolor="#666666"
     borderopacity="1"
     objecttolerance="10"
     gridtolerance="10"
     guidetolerance="10"
     inkscape:pageopacity="0"
     inkscape:pageshadow="2"
     inkscape:window-width="1377"
     inkscape:window-height="886"
     id="namedview75"
     showgrid="false"
     inkscape:zoom="6.2890624"
     inkscape:cx="47.622361"
     inkscape:cy="45.396274"
     inkscape:window-x="1"
     inkscape:window-y="75"
     inkscape:window-maximized="0"
     inkscape:current-layer="g877"
     inkscape:document-rotation="0"
     inkscape:pagecheckerboard="0"
     inkscape:showpageshadow="2"
     inkscape:deskcolor="#d1d1d1" />
  <defs
     id="defs29" />
  <circle
     cx="32.516094"
     cy="31.877844"
     r="0"
     fill="url(#b)"
     stroke-width="1.5715"
     id="circle41"
     style="fill:url(#b)" />
  <g
     aria-label="GZ"
     transform="matrix(1.2212657,0,0,0.81882264,0.4960938,-0.1661539)"
     id="text93"
     style="font-weight:bold;font-size:11.5263px;line-height:1.25;font-family:sans-serif;-inkscape-font-specification:'sans-serif Bold';fill:#f2f2f2;stroke-width:0.288159" />
  <g
     id="g877"
     transform="matrix(1.1,0,0,1.1,-3.1845928,-3.2065454)">
    <path
       fill="#f5f7fa"
       d="m 31.985998,59.163062 c -15.226195,0 -27.5694621,-12.158654 -27.5694621,-27.157107 0,-14.998462 12.3432671,-27.157117 27.5694621,-27.157117 15.226177,0 27.569453,12.158655 27.569453,27.157117 0,14.998453 -12.343276,27.157107 -27.569453,27.157107 z m 0,-15.087276 c 6.767198,0 12.253093,-5.403857 12.253093,-12.069831 0,-6.665975 -5.485897,-12.06984 -12.253093,-12.06984 -6.767192,0 -12.253092,5.403865 -12.253092,12.06984 0,6.665974 5.4859,12.069831 12.253092,12.069831 z m 0,-3.017449 c -5.075398,0 -9.18982,-4.052894 -9.18982,-9.052382 0,-4.999492 4.114422,-9.052386 9.18982,-9.052386 5.075391,0 9.189826,4.052894 9.189826,9.052386 0,4.999488 -4.114435,9.052382 -9.189826,9.052382 z m 0,-3.017471 c 3.383593,0 6.126547,-2.701918 6.126547,-6.034904 0,-3.333009 -2.742954,-6.034926 -6.126547,-6.034926 -3.383602,0 -6.126544,2.701917 -6.126544,6.034926 0,3.332986 2.742942,6.034904 6.126544,6.034904 z"
       id="path42"
       style="fill:#dfdfdf;fill-opacity:1;stroke:none;stroke-width:0.861425;stroke-dasharray:none;stroke-opacity:0.6"
       sodipodi:nodetypes="ssssssssssssssssssss" />
  </g>
</svg>
