<?xml version="1.0" encoding="UTF-8" standalone="no"?>
<svg
   width="64"
   height="64"
   version="1.1"
   id="svg73"
   sodipodi:docname="redeclipse.svg"
   inkscape:version="1.4.2 (ebf0e940d0, 2025-05-08)"
   xmlns:inkscape="http://www.inkscape.org/namespaces/inkscape"
   xmlns:sodipodi="http://sodipodi.sourceforge.net/DTD/sodipodi-0.dtd"
   xmlns="http://www.w3.org/2000/svg"
   xmlns:svg="http://www.w3.org/2000/svg"
   xmlns:rdf="http://www.w3.org/1999/02/22-rdf-syntax-ns#"
   xmlns:cc="http://creativecommons.org/ns#"
   xmlns:dc="http://purl.org/dc/elements/1.1/">
  <metadata
     id="metadata77">
    <rdf:RDF>
      <cc:Work
         rdf:about="">
        <dc:format>image/svg+xml</dc:format>
        <dc:type
           rdf:resource="http://purl.org/dc/dcmitype/StillImage" />
      </cc:Work>
    </rdf:RDF>
  </metadata>
  <sodipodi:namedview
     pagecolor="#f5f7fa"
     bordercolor="#666666"
     borderopacity="1"
     objecttolerance="10"
     gridtolerance="10"
     guidetolerance="10"
     inkscape:pageopacity="0"
     inkscape:pageshadow="2"
     inkscape:window-width="1377"
     inkscape:window-height="886"
     id="namedview75"
     showgrid="false"
     inkscape:zoom="6.2890624"
     inkscape:cx="47.622361"
     inkscape:cy="45.396274"
     inkscape:window-x="0"
     inkscape:window-y="57"
     inkscape:window-maximized="0"
     inkscape:current-layer="g877"
     inkscape:document-rotation="0"
     inkscape:pagecheckerboard="0"
     inkscape:showpageshadow="2"
     inkscape:deskcolor="#d1d1d1" />
  <defs
     id="defs29" />
  <circle
     cx="32.516094"
     cy="31.877844"
     r="0"
     fill="url(#b)"
     stroke-width="1.5715"
     id="circle41"
     style="fill:url(#b)" />
  <g
     aria-label="GZ"
     transform="matrix(1.2212657,0,0,0.81882264,0.4960938,-0.1661539)"
     id="text93"
     style="font-weight:bold;font-size:11.5263px;line-height:1.25;font-family:sans-serif;-inkscape-font-specification:'sans-serif Bold';fill:#f2f2f2;stroke-width:0.288159" />
  <g
     id="g877"
     transform="matrix(1.1,0,0,1.1,-3.1845928,-3.2065454)">
    <path
       style="fill:#dfdfdf;fill-opacity:1;stroke:none;stroke-width:0.830574;stroke-dasharray:none;stroke-opacity:0.6"
       d="m 32.720483,58.699865 c -3.651777,-0.98173 -6.777459,-2.795115 -9.597554,-5.568081 -8.646057,-8.501565 -8.646057,-21.757351 0,-30.258919 4.410147,-4.336447 9.52489,-6.341118 15.574285,-6.104177 3.117523,0.122107 3.25259,0.09538 2.685459,-0.53083 -0.32844,-0.362674 -1.733714,-1.228001 -3.122827,-1.922947 C 26.289269,8.3262754 12.550558,16.65728 12.440239,29.97164 c -0.0278,3.351314 0.760395,6.582247 2.208464,9.05318 0.513221,0.875759 0.823896,1.59229 0.690377,1.59229 -0.584377,0 -4.824474,-3.164115 -6.5429395,-4.88258 C 6.8322914,33.770677 5.5027857,31.56955 5.0329926,29.50427 L 4.7568407,28.290256 h 1.6415955 c 2.0426903,0 3.1357614,-0.956392 3.1357614,-2.743663 0,-1.583917 -0.9127393,-2.425607 -3.0205621,-2.785443 L 4.8825988,22.482713 5.68998,21.675331 c 0.7863463,-0.786343 2.9771822,-1.596693 4.328121,-1.600886 0.368874,-0.0011 1.099371,-0.430779 1.623326,-0.95474 1.674653,-1.674653 0.449973,-3.955207 -3.0410843,-5.662991 l -1.8677033,-0.913659 1.8677033,0.20418 c 6.4178003,0.701583 7.6368593,0.716513 7.8748033,0.09643 0.133994,-0.349215 -0.250263,-1.462476 -0.905656,-2.62377 -0.626134,-1.1094498 -1.035551,-2.1200484 -0.909816,-2.2457872 0.407402,-0.4074057 2.710403,-0.242173 3.972053,0.2849737 0.676043,0.2824712 1.854478,1.0626022 2.618732,1.7336286 1.183666,1.0392699 1.516799,1.1620729 2.248311,0.8287709 1.009445,-0.459943 2.103336,-2.5881065 2.376285,-4.623082 0.106315,-0.7926771 0.307144,-1.4412237 0.446271,-1.4412237 0.614721,0 1.639845,1.1077368 3.111142,3.3618663 1.369136,2.0976024 1.755727,2.4443914 2.840867,2.5483684 1.754545,0.168121 3.295781,-0.566987 3.859669,-1.8409012 0.836184,-1.8890648 1.416754,-1.1003323 1.416754,1.9247252 0,1.421044 0.159617,1.909436 0.722525,2.210696 1.321702,0.707353 3.085845,0.410178 5.465699,-0.920711 2.434417,-1.361395 4.519111,-1.888068 2.852307,-0.720602 -1.030673,0.721918 -3.055582,4.177541 -3.060368,5.222689 -0.0033,0.582636 0.444919,0.927917 1.864499,1.438396 4.361077,1.568224 9.159406,5.814277 11.454649,10.136236 1.601234,3.015202 2.366078,6.210272 2.366078,9.884369 0,6.032249 -1.884008,10.485432 -6.337634,14.980206 -3.066516,3.09485 -6.642258,5.124669 -10.396728,5.901867 -2.707714,0.560553 -7.312795,0.473459 -9.760302,-0.184528 z"
       id="path41" />
  </g>
</svg>
