<?xml version="1.0" encoding="UTF-8" standalone="no"?>
<svg
   width="64"
   height="64"
   version="1.1"
   id="svg73"
   sodipodi:docname="remmina.svg"
   inkscape:version="1.4.2 (ebf0e940d0, 2025-05-08)"
   xmlns:inkscape="http://www.inkscape.org/namespaces/inkscape"
   xmlns:sodipodi="http://sodipodi.sourceforge.net/DTD/sodipodi-0.dtd"
   xmlns="http://www.w3.org/2000/svg"
   xmlns:svg="http://www.w3.org/2000/svg"
   xmlns:rdf="http://www.w3.org/1999/02/22-rdf-syntax-ns#"
   xmlns:cc="http://creativecommons.org/ns#"
   xmlns:dc="http://purl.org/dc/elements/1.1/">
  <metadata
     id="metadata77">
    <rdf:RDF>
      <cc:Work
         rdf:about="">
        <dc:format>image/svg+xml</dc:format>
        <dc:type
           rdf:resource="http://purl.org/dc/dcmitype/StillImage" />
      </cc:Work>
    </rdf:RDF>
  </metadata>
  <sodipodi:namedview
     pagecolor="#f5f7fa"
     bordercolor="#666666"
     borderopacity="1"
     objecttolerance="10"
     gridtolerance="10"
     guidetolerance="10"
     inkscape:pageopacity="0"
     inkscape:pageshadow="2"
     inkscape:window-width="1377"
     inkscape:window-height="886"
     id="namedview75"
     showgrid="false"
     inkscape:zoom="6.2890624"
     inkscape:cx="46.986336"
     inkscape:cy="41.739131"
     inkscape:window-x="0"
     inkscape:window-y="49"
     inkscape:window-maximized="0"
     inkscape:current-layer="g877"
     inkscape:document-rotation="0"
     inkscape:pagecheckerboard="0"
     inkscape:showpageshadow="2"
     inkscape:deskcolor="#d1d1d1" />
  <defs
     id="defs29" />
  <circle
     cx="32.516094"
     cy="31.877844"
     r="0"
     fill="url(#b)"
     stroke-width="1.5715"
     id="circle41"
     style="fill:url(#b)" />
  <g
     aria-label="GZ"
     transform="matrix(1.2212657,0,0,0.81882264,0.4960938,-0.1661539)"
     id="text93"
     style="font-weight:bold;font-size:11.5263px;line-height:1.25;font-family:sans-serif;-inkscape-font-specification:'sans-serif Bold';fill:#f2f2f2;stroke-width:0.288159" />
  <g
     id="g877"
     transform="matrix(1.1,0,0,1.1,-3.1845928,-3.2065454)">
    <g
       id="g2"
       transform="matrix(0.94148021,0,0,0.94148021,1.8318051,1.6599843)"
       style="fill:#dfdfdf;fill-opacity:1;stroke:none;stroke-width:0.940838;stroke-dasharray:none;stroke-opacity:0.6">
      <polygon
         style="fill:#dfdfdf;fill-opacity:1;stroke:none;stroke-width:1.19714;stroke-dasharray:none;stroke-opacity:0.6"
         class="st1"
         transform="matrix(0.78271584,0,0,0.78911231,2.6146027,0.3168099)"
         points="20.62,17.74 20.62,26.92 29.55,32.88 20.62,38.83 20.62,48.01 43.32,32.88 "
         id="polygon6" />
      <polygon
         style="fill:#dfdfdf;fill-opacity:1;stroke:none;stroke-width:1.19719;stroke-dasharray:none;stroke-opacity:0.6"
         class="st2"
         transform="matrix(0.78268134,0,0,0.78907752,1.9531851,3.4079757)"
         points="32.69,44.1 55.39,59.23 55.39,50.05 46.46,44.1 55.39,38.14 55.39,28.96 "
         id="polygon10" />
      <path
         style="fill:#dfdfdf;fill-opacity:1;stroke:none;stroke-width:0.940838;stroke-dasharray:none;stroke-opacity:0.6"
         d="m 57.939035,17.819597 -4.980239,3.341452 A 23.692286,23.885903 0 0 1 55.720773,32.232187 23.692286,23.885903 0 0 1 32.028488,56.11809 23.692286,23.885903 0 0 1 13.799425,47.426195 l -4.9628856,3.329796 c 5.4290916,6.895655 13.8012666,11.333574 23.1919486,11.333574 16.329781,0 29.615359,-13.393361 29.615359,-29.857378 0,-5.227162 -1.353426,-10.134955 -3.704812,-14.41259 z"
         id="path14" />
      <path
         style="fill:#dfdfdf;fill-opacity:1;stroke:none;stroke-width:0.940838;stroke-dasharray:none;stroke-opacity:0.6"
         d="m 32.028488,2.3748072 c -16.330549,0 -29.6153577,13.3933618 -29.6153577,29.8573798 0,4.858845 1.1610007,9.447183 3.2131525,13.50581 L 10.629658,42.381945 A 23.692286,23.885903 0 0 1 8.3362031,32.232187 23.692286,23.885903 0 0 1 32.028488,8.3462828 23.692286,23.885903 0 0 1 49.583686,16.250911 L 54.575494,12.90361 C 49.13971,6.4674303 41.049472,2.3748072 32.028488,2.3748072 Z"
         id="path18-3" />
    </g>
  </g>
</svg>
