<?xml version="1.0" encoding="UTF-8" standalone="no"?>
<svg
   width="64"
   height="64"
   version="1.1"
   id="svg73"
   sodipodi:docname="repoman.svg"
   inkscape:version="1.4.2 (ebf0e940d0, 2025-05-08)"
   xmlns:inkscape="http://www.inkscape.org/namespaces/inkscape"
   xmlns:sodipodi="http://sodipodi.sourceforge.net/DTD/sodipodi-0.dtd"
   xmlns="http://www.w3.org/2000/svg"
   xmlns:svg="http://www.w3.org/2000/svg"
   xmlns:rdf="http://www.w3.org/1999/02/22-rdf-syntax-ns#"
   xmlns:cc="http://creativecommons.org/ns#"
   xmlns:dc="http://purl.org/dc/elements/1.1/">
  <metadata
     id="metadata77">
    <rdf:RDF>
      <cc:Work
         rdf:about="">
        <dc:format>image/svg+xml</dc:format>
        <dc:type
           rdf:resource="http://purl.org/dc/dcmitype/StillImage" />
      </cc:Work>
    </rdf:RDF>
  </metadata>
  <sodipodi:namedview
     pagecolor="#f5f7fa"
     bordercolor="#666666"
     borderopacity="1"
     objecttolerance="10"
     gridtolerance="10"
     guidetolerance="10"
     inkscape:pageopacity="0"
     inkscape:pageshadow="2"
     inkscape:window-width="1377"
     inkscape:window-height="886"
     id="namedview75"
     showgrid="false"
     inkscape:zoom="6.2890624"
     inkscape:cx="47.940373"
     inkscape:cy="42.534162"
     inkscape:window-x="20"
     inkscape:window-y="75"
     inkscape:window-maximized="0"
     inkscape:current-layer="g877"
     inkscape:document-rotation="0"
     inkscape:pagecheckerboard="0"
     inkscape:showpageshadow="2"
     inkscape:deskcolor="#d1d1d1" />
  <defs
     id="defs29" />
  <circle
     cx="32.516094"
     cy="31.877844"
     r="0"
     fill="url(#b)"
     stroke-width="1.5715"
     id="circle41"
     style="fill:url(#b)" />
  <g
     aria-label="GZ"
     transform="matrix(1.2212657,0,0,0.81882264,0.4960938,-0.1661539)"
     id="text93"
     style="font-weight:bold;font-size:11.5263px;line-height:1.25;font-family:sans-serif;-inkscape-font-specification:'sans-serif Bold';fill:#f2f2f2;stroke-width:0.288159" />
  <g
     id="g877"
     transform="matrix(1.1,0,0,1.1,-3.1845928,-3.2065454)">
    <g
       id="g3476"
       transform="matrix(1.8048909,0,0,1.8048909,-25.44057,-24.159949)"
       style="fill:#dfdfdf;fill-opacity:1;stroke:none;stroke-width:0.468459;stroke-dasharray:none;stroke-opacity:0.6">
      <path
         d="m 37.65872,16.769586 c 0.709091,-0.184546 1.437273,-0.201819 2.128182,-0.147273 l -2.472727,4.192727 a 1.7727273,1.7727273 0 0 0 0.643636,2.450909 l 1.590909,0.923637 a 1.8,1.8 0 0 0 2.466364,-0.642728 l 2.472727,-4.191818 c 0.385455,0.570909 0.727273,1.210909 0.911818,1.914546 0.884546,3.368181 -1.148181,6.814545 -4.539091,7.697272 -0.70909,0.184546 -1.437272,0.201819 -2.128181,0.147273 l -1.459091,2.027273 -6.199091,-0.04182 c 0,0 2.760909,-4.685455 2.958182,-4.718182 -0.385455,-0.570909 -0.727273,-1.21 -0.912728,-1.913637 -0.884545,-3.368181 1.148182,-6.815454 4.539091,-7.698181 z"
         color="#000000"
         fill="#ffffff"
         style="text-indent:0;text-decoration-line:none;text-transform:none;fill:#dfdfdf;fill-opacity:1;stroke:none;stroke-width:0.468459;stroke-dasharray:none;stroke-opacity:0.6"
         id="path3310" />
      <path
         d="m 23.076902,17.860495 c -0.418182,0.08545 -0.806364,0.238182 -1.190909,0.398182 -0.03091,1.134545 0.157273,2.620909 -0.284546,3.010909 -0.433636,0.383636 -1.884545,0.06273 -3.006363,-0.05727 a 6.6,6.6 0 0 0 -0.567273,1.363636 c 0.867273,0.72 2.07,1.525455 2.099091,2.102728 0.02818,0.583636 -1.137273,1.463636 -1.929091,2.272727 0.187273,0.469091 0.454546,0.897273 0.737273,1.306363 1.104545,-0.22909 2.480909,-0.67909 2.95,-0.340909 0.478182,0.345455 0.481818,1.828182 0.624545,2.954546 0.452728,0.136364 0.93,0.190909 1.418182,0.227273 0.510909,-1.008182 1.03,-2.4 1.588182,-2.556364 0.573636,-0.161818 1.75,0.832727 2.723636,1.42 a 6.7636364,6.7636364 0 0 0 1.078182,-0.965455 C 28.856902,27.955952 28.00872,26.64777 28.239629,26.09868 c 0.230909,-0.549091 1.770909,-0.853637 2.836364,-1.25 0.0073,-0.133637 0.05727,-0.261819 0.05727,-0.397273 0,-0.348182 -0.06273,-0.689091 -0.113637,-1.022727 -1.1,-0.292728 -2.663636,-0.439091 -2.95,-0.966364 -0.284545,-0.523636 0.439091,-1.929091 0.793637,-3.010909 A 6.6927273,6.6927273 0 0 0 27.672354,18.59868 c -0.909091,0.681818 -1.969091,1.80909 -2.553637,1.704545 -0.574545,-0.101818 -1.202727,-1.49 -1.815454,-2.442727 -0.07273,0.01273 -0.154546,-0.01455 -0.227273,0 z m 1.134545,3.409091 c 1.691819,0 3.063637,1.373636 3.063637,3.068181 0,1.694546 -1.371818,3.068182 -3.063637,3.068182 -1.691818,0 -3.063636,-1.373636 -3.063636,-3.068182 0,-1.694545 1.371818,-3.068181 3.063636,-3.068181 z"
         color="#000000"
         fill="#ffffff"
         id="path3312"
         style="fill:#dfdfdf;fill-opacity:1;stroke:none;stroke-width:0.468459;stroke-dasharray:none;stroke-opacity:0.6" />
      <path
         d="m 21.985993,32.91504 0.01454,10.909091 c 0,1.036364 0.837273,1.818182 1.816364,1.818182 h 14.530909 c 0.95,0 1.807273,-0.809091 1.807273,-1.704545 L 40.140538,32.91504 Z m 7.272727,0.909091 h 3.636364 v 4.545455 h 1.704545 l -3.522727,4.545454 -3.522727,-4.545454 h 1.704545 z m -1.413636,10 h 6.463636 c 0.223637,0 0.404546,0.180909 0.404546,0.404546 v 0.1 a 0.40454545,0.40454545 0 0 1 -0.404546,0.404545 h -6.463636 a 0.40454545,0.40454545 0 0 1 -0.404546,-0.404545 v -0.1 c 0,-0.223637 0.18091,-0.404546 0.404546,-0.404546 z"
         color="#bebebe"
         fill="#ffffff"
         id="path3314"
         style="fill:#dfdfdf;fill-opacity:1;stroke:none;stroke-width:0.468459;stroke-dasharray:none;stroke-opacity:0.6" />
    </g>
  </g>
</svg>
