<?xml version="1.0" encoding="UTF-8" standalone="no"?>
<svg
   width="64"
   height="64"
   version="1.1"
   id="svg73"
   sodipodi:docname="rnote.svg"
   inkscape:version="1.4.2 (ebf0e940d0, 2025-05-08)"
   xmlns:inkscape="http://www.inkscape.org/namespaces/inkscape"
   xmlns:sodipodi="http://sodipodi.sourceforge.net/DTD/sodipodi-0.dtd"
   xmlns="http://www.w3.org/2000/svg"
   xmlns:svg="http://www.w3.org/2000/svg"
   xmlns:rdf="http://www.w3.org/1999/02/22-rdf-syntax-ns#"
   xmlns:cc="http://creativecommons.org/ns#"
   xmlns:dc="http://purl.org/dc/elements/1.1/">
  <metadata
     id="metadata77">
    <rdf:RDF>
      <cc:Work
         rdf:about="">
        <dc:format>image/svg+xml</dc:format>
        <dc:type
           rdf:resource="http://purl.org/dc/dcmitype/StillImage" />
      </cc:Work>
    </rdf:RDF>
  </metadata>
  <sodipodi:namedview
     pagecolor="#f5f7fa"
     bordercolor="#666666"
     borderopacity="1"
     objecttolerance="10"
     gridtolerance="10"
     guidetolerance="10"
     inkscape:pageopacity="0"
     inkscape:pageshadow="2"
     inkscape:window-width="1377"
     inkscape:window-height="886"
     id="namedview75"
     showgrid="false"
     inkscape:zoom="6.2890624"
     inkscape:cx="37.445963"
     inkscape:cy="34.901864"
     inkscape:window-x="1"
     inkscape:window-y="75"
     inkscape:window-maximized="0"
     inkscape:current-layer="g877"
     inkscape:document-rotation="0"
     inkscape:pagecheckerboard="0"
     inkscape:showpageshadow="2"
     inkscape:deskcolor="#d1d1d1" />
  <defs
     id="defs29" />
  <circle
     cx="32.516094"
     cy="31.877844"
     r="0"
     fill="url(#b)"
     stroke-width="1.5715"
     id="circle41"
     style="fill:url(#b)" />
  <g
     aria-label="GZ"
     transform="matrix(1.2212657,0,0,0.81882264,0.4960938,-0.1661539)"
     id="text93"
     style="font-weight:bold;font-size:11.5263px;line-height:1.25;font-family:sans-serif;-inkscape-font-specification:'sans-serif Bold';fill:#f2f2f2;stroke-width:0.288159" />
  <g
     id="g877"
     transform="matrix(1.1,0,0,1.1,-3.1845928,-3.2065454)">
    <path
       style="fill:#dfdfdf;fill-opacity:1;stroke:none;stroke-width:0.904496;stroke-dasharray:none;stroke-opacity:0.6"
       d="m 48.600332,16.578932 c -0.108229,-0.88118 0.567635,-2.275611 0.476937,-4.174023 -0.09359,-1.901502 -1.015294,-4.5512392 -4.7985,-6.4743829 -0.06702,-0.033965 -0.134609,-0.068026 -0.204733,-0.102003 -2.4608,-1.19965 -6.047979,-2.0591925 -10.232042,-1.6386949 -3.250699,0.3277361 -6.627211,1.4129852 -9.810613,3.3268543 -2.864478,1.7159913 -5.503658,4.0658205 -7.645434,6.9721805 -1.258148,1.8273 -2.355365,3.895762 -3.139513,6.128094 -0.339404,0.964662 -0.620294,1.963335 -0.830966,2.98366 -0.272114,1.32641 -0.421321,2.776503 -0.362807,4.306983 0.15506,2.427118 0.83974,5.079949 2.369995,7.466873 0.722702,1.131629 1.620962,2.158131 2.659668,3.014581 1.032847,0.85645 2.214917,1.549025 3.505249,2.003533 2.068624,0.71422 4.102139,0.71422 5.784547,0.445268 0.892403,-0.142208 1.711661,-0.361751 2.434367,-0.606004 0.8924,-0.299925 1.711659,-0.646218 2.358286,-0.939943 1.410294,-0.652414 2.732813,-1.43466 3.786142,-2.065401 1.053334,-0.630739 2.086184,-1.264577 3.078072,-1.777828 0.591038,-0.296822 1.293251,-0.627647 1.986702,-0.878093 0.184303,-0.06498 0.368649,-0.126737 0.552991,-0.179316 0.690512,-0.20096 1.37226,-0.290632 1.977933,-0.225711 0.517859,0.05256 0.956774,0.231898 1.252285,0.45141 0.125793,0.08347 0.234018,0.200978 0.324712,0.324647 0.07897,0.114442 0.131728,0.222619 0.160874,0.281361 0.03251,0.07422 0.04963,0.225706 -0.0067,0.445232 -0.0531,0.222612 -0.166826,0.479243 -0.342347,0.735866 -0.181345,0.262807 -0.432991,0.534885 -0.772439,0.816253 -0.333558,0.272082 -0.731478,0.537982 -1.193791,0.794611 -1.015194,0.516343 -2.024635,0.862635 -3.443703,1.42226 -1.287405,0.507078 -2.823523,1.162549 -4.263075,2.201413 -0.754887,0.562743 -1.50977,1.26458 -2.159329,2.114847 -0.646623,0.85026 -1.208404,1.876777 -1.521479,3.079521 -0.280887,1.202731 -0.295523,2.538429 0.08194,3.821545 0.190179,0.652444 0.482776,1.270767 0.857298,1.821116 0.380366,0.556613 0.857296,1.060511 1.421996,1.462452 1.003593,0.704947 2.109593,0.964667 3.066366,0.992508 h 0.324774 c 0.810475,-0.02169 1.582922,-0.197843 2.288068,-0.448344 0.737331,-0.238069 1.40444,-0.559639 1.977923,-0.844081 0.585186,-0.293775 1.035777,-0.531786 1.506852,-0.729703 0.430079,-0.200979 0.804629,-0.330818 1.144042,-0.386526 0.321858,-0.0531 0.585219,-0.02741 0.775371,0.02741 0.08487,0.02513 0.160874,0.06487 0.222318,0.105061 0.05964,0.04055 0.0994,0.07729 0.119898,0.09592 0.03313,0.01481 0.06152,0.03993 0.08198,0.04622 0.02282,0 0.04337,0.01305 0.07311,0.0067 0.02683,-0.0067 0,0.0928 -0.105413,0.222488 -0.122892,0.151371 -0.301308,0.30302 -0.576427,0.528703 -0.266268,0.213356 -0.629101,0.494744 -0.959701,0.840992 -0.365863,0.380305 -0.7227,0.862636 -0.942145,1.45936 -0.219517,0.602925 -0.254506,1.221281 -0.163799,1.765462 0.10538,0.633791 0.383331,1.153268 0.705136,1.521214 0.432991,0.500908 0.936303,0.714215 1.307885,0.772956 0.09074,0.01305 0.175581,0.01895 0.254449,0.01481 0.661212,-0.02514 0.927528,-0.559642 1.04456,-0.717316 -0.163799,-0.163904 -0.330705,-0.584402 -0.462212,-0.943027 -0.0142,-0.04052 -0.02909,-0.07729 -0.04055,-0.117454 -0.05303,-0.157733 -0.09942,-0.330821 -0.08774,-0.485443 0.0067,-0.111284 0.03313,-0.228764 0.08198,-0.303024 0.04055,-0.06487 0.0994,-0.123676 0.152177,-0.145342 0.05304,-0.02567 0.140407,-0.09897 0.298456,-0.200979 0.195994,-0.123676 0.333557,-0.194804 0.681732,-0.392575 0.272081,-0.151373 0.675848,-0.386527 1.062101,-0.704941 0.386241,-0.31849 0.830959,-0.782245 1.146967,-1.428437 0.280935,-0.578188 0.418376,-1.218209 0.418376,-1.848949 0.003,-0.630758 -0.131622,-1.242942 -0.365811,-1.790187 -0.245888,-0.5504 -0.585215,-1.020338 -0.971419,-1.406818 -0.38909,-0.389608 -0.830946,-0.698769 -1.293246,-0.930652 -0.927523,-0.460724 -1.904763,-0.590552 -2.762075,-0.556555 -0.886547,0.0348 -1.699958,0.24429 -2.36999,0.466891 -0.661263,0.234989 -1.345925,0.544173 -1.831629,0.751334 -0.558854,0.238009 -0.988961,0.401938 -1.395668,0.500907 -0.383293,0.0711 -0.672969,0.06487 -0.883627,0.01481 -0.02626,-0.0065 -0.05261,-0.01291 -0.07901,-0.02169 -0.21359,-0.07111 -0.330628,-0.194804 -0.298442,-0.256674 0.01738,-0.02513 0.02055,-0.05539 0.02626,-0.108229 0.0061,-0.0491 0.01186,-0.105061 0.03511,-0.154624 0.03511,-0.105061 0.09363,-0.287555 0.213599,-0.457645 0.08776,-0.188597 0.234066,-0.401936 0.473986,-0.643125 0.245786,-0.247315 0.567625,-0.497765 0.953848,-0.720407 0.778296,-0.494625 1.705813,-0.862626 2.90837,-1.261489 1.11185,-0.371059 2.636259,-0.825518 4.037783,-1.440803 0.754879,-0.315352 1.539022,-0.701859 2.299764,-1.190374 0.778289,-0.497771 1.547815,-1.109987 2.250028,-1.867492 0.728552,-0.791519 1.360554,-1.725276 1.825783,-2.770323 0.476993,-1.07599 0.78719,-2.297281 0.816453,-3.605143 0.02853,-1.288875 -0.219576,-2.507078 -0.634957,-3.583051 -0.427084,-1.114859 -1.050336,-2.116624 -1.793528,-2.954525 -1.574135,-1.774731 -3.566707,-2.739399 -5.357361,-3.156801 -2.074473,-0.485426 -4.020218,-0.306098 -5.51536,0.02782 -0.41548,0.09585 -0.807556,0.200979 -1.173294,0.315373 -1.381037,0.429767 -2.527994,1.007946 -3.332625,1.456273 -1.307889,0.714219 -2.609922,1.583034 -3.496474,2.155032 -1.029928,0.664756 -1.951589,1.239843 -2.876178,1.681983 -0.412577,0.200977 -0.863169,0.380303 -1.331318,0.503977 -0.374515,0.09587 -0.740257,0.160794 -1.100147,0.179319 -0.687589,0.03705 -1.266924,-0.09273 -1.659002,-0.330833 -0.228213,-0.129827 -0.462288,-0.318459 -0.675884,-0.565812 -0.213589,-0.250441 -0.394995,-0.541078 -0.517883,-0.850269 -0.280889,-0.686394 -0.368667,-1.518106 -0.245778,-2.306538 0.03219,-0.491603 0.134609,-0.986301 0.295516,-1.477915 0.125792,-0.380298 0.298445,-0.766782 0.517896,-1.156358 0.514956,-0.915195 1.261061,-1.780922 2.135914,-2.52606 1.360555,-1.326416 2.952258,-2.284898 4.567362,-2.906363 1.796522,-0.692581 3.516962,-0.930651 5.026733,-0.943021 1.93111,-0.01224 3.660334,0.337018 5.015031,0.503973 0.03785,0.0032 0.07609,0.0095 0.114078,0.01224 2.141773,0.250445 3.783208,-0.278266 5.240333,-1.014129 1.413212,-0.711173 2.67721,-1.672745 3.467202,-1.678926 z m 0,0"
       id="path11-3" />
  </g>
</svg>
