<?xml version="1.0" encoding="UTF-8" standalone="no"?>
<svg
   width="64"
   height="64"
   version="1.1"
   id="svg73"
   sodipodi:docname="secrets.svg"
   inkscape:version="1.4.2 (ebf0e940d0, 2025-05-08)"
   xmlns:inkscape="http://www.inkscape.org/namespaces/inkscape"
   xmlns:sodipodi="http://sodipodi.sourceforge.net/DTD/sodipodi-0.dtd"
   xmlns="http://www.w3.org/2000/svg"
   xmlns:svg="http://www.w3.org/2000/svg"
   xmlns:rdf="http://www.w3.org/1999/02/22-rdf-syntax-ns#"
   xmlns:cc="http://creativecommons.org/ns#"
   xmlns:dc="http://purl.org/dc/elements/1.1/">
  <metadata
     id="metadata77">
    <rdf:RDF>
      <cc:Work
         rdf:about="">
        <dc:format>image/svg+xml</dc:format>
        <dc:type
           rdf:resource="http://purl.org/dc/dcmitype/StillImage" />
      </cc:Work>
    </rdf:RDF>
  </metadata>
  <sodipodi:namedview
     pagecolor="#f5f7fa"
     bordercolor="#666666"
     borderopacity="1"
     objecttolerance="10"
     gridtolerance="10"
     guidetolerance="10"
     inkscape:pageopacity="0"
     inkscape:pageshadow="2"
     inkscape:window-width="1377"
     inkscape:window-height="886"
     id="namedview75"
     showgrid="false"
     inkscape:zoom="6.2890624"
     inkscape:cx="47.622361"
     inkscape:cy="45.396274"
     inkscape:window-x="33"
     inkscape:window-y="53"
     inkscape:window-maximized="0"
     inkscape:current-layer="g877"
     inkscape:document-rotation="0"
     inkscape:pagecheckerboard="0"
     inkscape:showpageshadow="2"
     inkscape:deskcolor="#d1d1d1" />
  <defs
     id="defs29" />
  <circle
     cx="32.516094"
     cy="31.877844"
     r="0"
     fill="url(#b)"
     stroke-width="1.5715"
     id="circle41"
     style="fill:url(#b)" />
  <g
     aria-label="GZ"
     transform="matrix(1.2212657,0,0,0.81882264,0.4960938,-0.1661539)"
     id="text93"
     style="font-weight:bold;font-size:11.5263px;line-height:1.25;font-family:sans-serif;-inkscape-font-specification:'sans-serif Bold';fill:#f2f2f2;stroke-width:0.288159" />
  <g
     id="g877"
     transform="matrix(1.1,0,0,1.1,-3.1845928,-3.2065454)">
    <g
       id="Vault"
       transform="matrix(3.027896,0,0,3.0278959,-4.3487587,-4.3288001)"
       style="fill:#dfdfdf;fill-opacity:1">
      <g
         id="g3"
         style="fill:#dfdfdf;fill-opacity:1">
        <path
           d="m 15.935,6.06 h -7.87 a 2,2 0 0 0 -2,2 v 6 a 1.993,1.993 0 0 0 2,2 h 7.87 a 2,2 0 0 0 2,-2 v -6 a 2.006,2.006 0 0 0 -2,-2 z m 1,8 a 1,1 0 0 1 -1,1 h -7.87 a 0.99,0.99 0 0 1 -1,-1 v -6 a 1,1 0 0 1 1,-1 h 7.87 a 1,1 0 0 1 1,1 z"
           id="path1"
           style="fill:#dfdfdf;fill-opacity:1" />
        <path
           d="M 18.435,3.06 H 5.565 a 2.507,2.507 0 0 0 -2.5,2.5 v 11 a 2.5,2.5 0 0 0 2.5,2.5 v 0.38 a 1.5,1.5 0 0 0 1.5,1.5 h 1.43 a 1.5,1.5 0 0 0 1.5,-1.5 v -0.38 h 4 v 0.38 a 1.5,1.5 0 0 0 1.5,1.5 h 1.44 a 1.5,1.5 0 0 0 1.5,-1.5 v -0.38 a 2.5,2.5 0 0 0 2.5,-2.5 v -11 a 2.507,2.507 0 0 0 -2.5,-2.5 z m -9.44,16.38 a 0.5,0.5 0 0 1 -0.5,0.5 h -1.43 a 0.5,0.5 0 0 1 -0.5,-0.5 v -0.38 h 2.43 z m 8.44,0 a 0.5,0.5 0 0 1 -0.5,0.5 H 15.5 A 0.508,0.508 0 0 1 15,19.44 v -0.38 h 2.44 z m 2.5,-2.88 a 1.5,1.5 0 0 1 -1.5,1.5 H 5.565 a 1.5,1.5 0 0 1 -1.5,-1.5 v -11 a 1.5,1.5 0 0 1 1.5,-1.5 h 12.87 a 1.5,1.5 0 0 1 1.5,1.5 z"
           id="path2"
           style="fill:#dfdfdf;fill-opacity:1" />
        <path
           d="m 14.265,10.56 h -0.61 A 1.656,1.656 0 0 0 12.5,9.4 V 8.79 A 0.491,0.491 0 0 0 12,8.31 0.5,0.5 0 0 0 11.5,8.79 V 9.4 a 1.656,1.656 0 0 0 -1.16,1.16 H 9.73 a 0.5,0.5 0 0 0 -0.48,0.5 0.491,0.491 0 0 0 0.48,0.5 h 0.61 a 1.656,1.656 0 0 0 1.16,1.16 v 0.62 a 0.489,0.489 0 0 0 0.5,0.47 0.483,0.483 0 0 0 0.5,-0.47 v -0.62 a 1.622,1.622 0 0 0 1.16,-1.16 h 0.61 a 0.485,0.485 0 0 0 0.48,-0.5 0.491,0.491 0 0 0 -0.485,-0.5 z M 12,11.81 A 0.75,0.75 0 1 1 12.75,11.06 0.749,0.749 0 0 1 12,11.81 Z"
           id="path3"
           style="fill:#dfdfdf;fill-opacity:1" />
      </g>
    </g>
  </g>
</svg>
