<?xml version="1.0" encoding="UTF-8" standalone="no"?>
<svg
   width="64"
   height="64"
   version="1.1"
   id="svg73"
   sodipodi:docname="signal-desktop.svg"
   inkscape:version="1.4.2 (ebf0e940d0, 2025-05-08)"
   xmlns:inkscape="http://www.inkscape.org/namespaces/inkscape"
   xmlns:sodipodi="http://sodipodi.sourceforge.net/DTD/sodipodi-0.dtd"
   xmlns="http://www.w3.org/2000/svg"
   xmlns:svg="http://www.w3.org/2000/svg"
   xmlns:rdf="http://www.w3.org/1999/02/22-rdf-syntax-ns#"
   xmlns:cc="http://creativecommons.org/ns#"
   xmlns:dc="http://purl.org/dc/elements/1.1/">
  <metadata
     id="metadata77">
    <rdf:RDF>
      <cc:Work
         rdf:about="">
        <dc:format>image/svg+xml</dc:format>
        <dc:type
           rdf:resource="http://purl.org/dc/dcmitype/StillImage" />
      </cc:Work>
    </rdf:RDF>
  </metadata>
  <sodipodi:namedview
     pagecolor="#f5f7fa"
     bordercolor="#666666"
     borderopacity="1"
     objecttolerance="10"
     gridtolerance="10"
     guidetolerance="10"
     inkscape:pageopacity="0"
     inkscape:pageshadow="2"
     inkscape:window-width="1377"
     inkscape:window-height="886"
     id="namedview75"
     showgrid="false"
     inkscape:zoom="6.2890624"
     inkscape:cx="46.986336"
     inkscape:cy="41.739131"
     inkscape:window-x="0"
     inkscape:window-y="49"
     inkscape:window-maximized="0"
     inkscape:current-layer="g877"
     inkscape:document-rotation="0"
     inkscape:pagecheckerboard="0"
     inkscape:showpageshadow="2"
     inkscape:deskcolor="#d1d1d1" />
  <defs
     id="defs29" />
  <circle
     cx="32.516094"
     cy="31.877844"
     r="0"
     fill="url(#b)"
     stroke-width="1.5715"
     id="circle41"
     style="fill:url(#b)" />
  <g
     aria-label="GZ"
     transform="matrix(1.2212657,0,0,0.81882264,0.4960938,-0.1661539)"
     id="text93"
     style="font-weight:bold;font-size:11.5263px;line-height:1.25;font-family:sans-serif;-inkscape-font-specification:'sans-serif Bold';fill:#f2f2f2;stroke-width:0.288159" />
  <g
     id="g877"
     transform="matrix(1.1,0,0,1.1,-3.1845928,-3.2065454)">
    <path
       style="fill:#dfdfdf;fill-opacity:1;stroke:none;stroke-width:0.930069;stroke-dasharray:none;stroke-opacity:0.6"
       d="M 10.372521,59.302451 C 6.7506516,58.286737 4.4231337,55.305782 4.4231337,51.682833 c 0,-1.032815 0.1885734,-1.969539 1.0299175,-5.116106 L 6.4829694,42.714911 5.8719145,40.900114 C 4.7108559,37.451784 4.5153134,36.149861 4.5190242,31.892548 4.5224848,27.680396 4.6967234,26.511706 5.820331,23.153884 8.5376493,15.033283 15.050581,8.5139781 23.149885,5.8073625 26.537311,4.675358 27.695706,4.5023599 31.912889,4.498685 36.067477,4.49522 37.345343,4.6761792 40.55606,5.7237781 52.783653,9.7133939 60.782612,22.031156 59.392287,34.73005 c -0.77452,7.074255 -4.137899,13.551525 -9.356359,18.018694 -7.690539,6.58334 -17.901369,8.498483 -27.409643,5.140952 l -1.408941,-0.497557 -3.760773,1.017127 c -4.156929,1.124277 -5.607702,1.307186 -7.08405,0.893155 z m 2.688188,-2.9153 c -0.05441,-0.203121 -0.09998,-0.867768 -0.101167,-1.477063 -0.0021,-1.077406 -0.01406,-1.107799 -0.420689,-1.107799 -0.816883,0 -2.034415,-0.944883 -2.284986,-1.773295 -0.06283,-0.208105 -0.200488,-0.344245 -0.3056525,-0.302572 -0.105171,0.04154 -0.7266523,0.247347 -1.3810753,0.456986 -0.6544208,0.209704 -1.1898553,0.440565 -1.1898553,0.513104 0,0.07254 0.1871616,0.501284 0.4159242,0.952668 0.9059135,1.787741 2.8416319,3.030379 4.8139709,3.090342 0.495909,0.01465 0.542382,-0.02109 0.453554,-0.352424 z m 22.708954,0.01278 c 0.676987,-0.09868 1.295572,-0.237956 1.374631,-0.309409 0.139469,-0.126059 -0.32488,-2.422213 -0.533981,-2.640626 -0.05613,-0.05881 -0.766796,-0.0048 -1.579181,0.119596 -0.812383,0.124355 -1.930741,0.227856 -2.485238,0.229837 -1.195301,0.0042 -1.207411,0.02237 -1.207411,1.759728 v 1.236968 l 1.600147,-0.108262 c 0.880081,-0.05944 2.154049,-0.188994 2.831034,-0.287743 z m -7.143015,-0.340467 c 0.171046,-0.748074 0.377777,-2.341828 0.316888,-2.442825 -0.03451,-0.05752 -0.394429,-0.153916 -0.799752,-0.214625 -0.405327,-0.06072 -1.494447,-0.362142 -2.42027,-0.669665 -0.925818,-0.307553 -1.732427,-0.506393 -1.792457,-0.441776 -0.06002,0.06469 -0.33134,0.644634 -0.602893,1.289084 l -0.493752,1.17171 0.600413,0.253358 c 1.131106,0.477312 4.213757,1.363646 4.905374,1.410457 0.111114,0.0084 0.24001,-0.15245 0.286447,-0.355619 z m -7.983151,-1.261797 c 0.422551,-0.115494 0.682593,-0.273616 0.640697,-0.389559 -0.0388,-0.107371 -0.205199,-0.712095 -0.369809,-1.34396 -0.164577,-0.631857 -0.315592,-1.17151 -0.335519,-1.199246 -0.03011,-0.04219 -4.646936,1.150284 -5.272821,1.361545 -0.171008,0.05752 0.05412,1.200537 0.523262,2.656006 0.05778,0.179466 0.806187,0.01023 4.814198,-1.084805 z M 42.088202,54.51478 c 0.722125,-0.316568 1.739582,-0.834459 2.261013,-1.15077 l 0.948073,-0.575103 -0.363993,-0.600857 c -0.886781,-1.464046 -1.132046,-1.831776 -1.221693,-1.831776 -0.05309,0 -0.29177,0.138431 -0.53132,0.307684 -0.59549,0.420493 -2.59761,1.408335 -3.346435,1.651075 -0.337238,0.109362 -0.655651,0.267419 -0.707588,0.351528 -0.05195,0.08399 0.112748,0.709888 0.365961,1.390792 0.534173,1.436399 0.4123,1.414918 2.595971,0.4575 z m -22.919823,-4.587494 2.84669,-0.759437 1.420376,0.666502 c 2.915283,1.367998 5.292507,1.8932 8.559506,1.891034 2.350954,-0.0016 3.447211,-0.15754 5.70428,-0.811593 5.524435,-1.601191 10.430943,-6.032599 12.606117,-11.385744 3.419823,-8.416235 0.734168,-18.125129 -6.50829,-23.528132 -4.878399,-3.639368 -11.442744,-4.821506 -17.363742,-3.126951 -1.911104,0.546954 -4.73673,1.95263 -6.356109,3.161997 -7.571638,5.654605 -10.1106764,16.090143 -5.97685,24.565063 l 0.625855,1.283089 -1.294769,4.837861 c -0.712125,2.66081 -1.294766,4.894024 -1.294766,4.962673 0,0.0689 0.941627,-0.127564 2.092504,-0.436214 1.150874,-0.308516 3.37351,-0.902773 4.939197,-1.320461 z M 49.65361,49.177491 c 0.91144,-0.936847 1.737809,-1.854069 1.836388,-2.038257 0.16023,-0.29944 0.05688,-0.426438 -0.975351,-1.198952 l -1.154594,-0.864025 -0.256362,0.383355 c -0.140935,0.21092 -0.940819,1.075228 -1.777431,1.920848 l -1.521109,1.537492 0.837771,1.119486 c 0.646182,0.86344 0.896746,1.087925 1.095633,0.981444 0.141842,-0.07599 1.003567,-0.904562 1.91501,-1.841404 z M 10.964178,47.442724 c 0.376772,-1.421679 0.683941,-2.663672 0.682599,-2.759997 -0.0014,-0.09636 -0.537885,-0.306405 -1.192306,-0.46683 -0.6544133,-0.160487 -1.2638122,-0.321746 -1.3542113,-0.358368 -0.1593922,-0.06469 -1.6808108,5.282231 -1.542411,5.420626 0.056749,0.05688 2.2993991,0.684427 2.6243183,0.734477 0.05335,0.0084 0.405238,-1.148254 0.782012,-2.569914 z m 43.06419,-4.309295 c 0.598429,-1.194624 1.599572,-3.660543 1.599572,-3.940009 0,-0.132421 -1.270304,-0.5553 -2.266582,-0.75456 -0.452896,-0.09055 -0.487223,-0.0526 -0.853373,0.94672 -0.209769,0.572603 -0.670017,1.622738 -1.022665,2.333634 -0.416018,0.838627 -0.585009,1.348679 -0.481403,1.452386 0.363544,0.363542 1.934121,1.251732 2.162212,1.222776 0.13543,-0.01786 0.523395,-0.584623 0.862207,-1.260947 z m -42.99411,-1.44915 c 0.607036,-0.256099 1.145791,-0.507686 1.197223,-0.55917 0.05143,-0.05126 -0.0259,-0.324257 -0.171664,-0.60631 -0.145853,-0.282033 -0.550922,-1.365521 -0.900169,-2.407741 -0.349255,-1.042223 -0.666779,-1.926723 -0.705613,-1.965553 -0.09304,-0.09304 -2.4649018,0.431685 -2.6312955,0.582118 -0.2684301,0.242681 1.5731265,5.42229 1.9278369,5.42229 0.099,0 0.6766466,-0.209511 1.2836916,-0.465618 z m 45.322319,-5.558087 c 0.178571,-0.465259 0.472327,-4.742336 0.357218,-5.200907 -0.099,-0.394302 -0.176146,-0.427742 -0.986357,-0.427742 -0.483516,0 -1.1098,0.04621 -1.391886,0.102597 l -0.512785,0.102586 v 1.38408 c 0,0.761247 -0.08039,1.902465 -0.178702,2.536049 -0.09828,0.633585 -0.132994,1.197642 -0.07723,1.253464 0.05562,0.05579 0.634797,0.189836 1.286545,0.297819 0.651809,0.108009 1.232519,0.204266 1.290561,0.214013 0.05816,0.01001 0.15382,-0.108163 0.212835,-0.261921 z M 9.7621561,33.695318 c 0.3093389,-0.06283 0.3348139,-0.197986 0.3526469,-1.870067 0.01045,-0.991255 0.06919,-2.165647 0.130277,-2.609769 L 10.35617,28.407987 9.0245489,28.200838 C 8.2921513,28.086916 7.6494469,28.037164 7.5963194,28.090292 7.3718003,28.314812 7.2270105,29.736633 7.22033,31.782526 l -0.00702,2.187629 1.107799,-0.10351 c 0.6092801,-0.05695 1.2578346,-0.134009 1.4412189,-0.171347 z M 55.189639,27.945345 c 0.638124,-0.07654 0.989517,-0.200236 1.055209,-0.371433 0.236036,-0.614981 -1.381642,-5.565621 -1.792492,-5.485832 -0.120758,0.0234 -0.719975,0.278713 -1.331765,0.567292 -0.842605,0.39744 -1.086072,0.586095 -1.004025,0.777979 0.244727,0.572263 1.208804,3.670816 1.310054,4.210483 0.09146,0.487645 0.165286,0.567994 0.457689,0.498772 0.191744,-0.04542 0.779151,-0.134155 1.30535,-0.197269 z M 11.31785,24.753417 c 0.209547,-0.586718 0.580657,-1.472958 0.824686,-1.969418 0.780774,-1.588414 0.792612,-1.522069 -0.406805,-2.279578 -0.587438,-0.370994 -1.142803,-0.674541 -1.234146,-0.674541 -0.34121,0 -2.3037411,4.452932 -2.3037411,5.227138 0,0.212865 0.3091253,0.361664 1.2719157,0.612233 0.6995504,0.182071 1.3158324,0.290517 1.3695034,0.240977 0.05362,-0.0496 0.269042,-0.570096 0.478587,-1.156811 z m 40.901497,-4.513248 c 0.607568,-0.361051 1.106063,-0.705672 1.107791,-0.765805 0.01023,-0.377704 -3.047472,-4.402735 -3.450697,-4.541415 -0.144755,-0.04985 -1.982587,1.503868 -2.086831,1.764227 -0.02301,0.05861 0.332099,0.547533 0.790277,1.086325 0.458139,0.53879 1.168503,1.481612 1.578571,2.095163 0.410074,0.613555 0.79298,1.093599 0.850906,1.066766 0.05816,-0.02684 0.602459,-0.3442 1.209983,-0.705261 z m -35.791535,-3.610591 1.426376,-1.477058 -0.987444,-1.047183 -0.987447,-1.047178 -1.389676,1.375417 c -1.618967,1.602348 -2.624552,2.892959 -2.41593,3.100701 0.07977,0.07941 0.588167,0.479829 1.12975,0.889759 l 0.984709,0.745335 0.406644,-0.531366 c 0.223645,-0.292253 1.048507,-1.196042 1.833018,-2.008427 z m 30.5055,-2.677059 c 0.488764,-0.587111 0.799166,-1.095561 0.716556,-1.17364 -0.777146,-0.73444 -4.755117,-3.2557268 -4.89443,-3.1021547 -0.08276,0.09119 -1.24165,2.4220037 -1.24165,2.4971747 0,0.0361 0.646215,0.443417 1.436044,0.905011 0.789819,0.461582 1.768358,1.096545 2.174555,1.411025 0.406174,0.314468 0.785354,0.555268 0.842563,0.535107 0.05688,-0.02024 0.49208,-0.502801 0.966362,-1.072523 z M 20.708651,13.217131 c 0.475648,-0.29721 1.492561,-0.826318 2.259808,-1.175802 0.767253,-0.349475 1.415296,-0.649722 1.4401,-0.667209 0.02479,-0.01755 -0.170636,-0.614636 -0.434325,-1.327003 C 23.592325,9.0153537 23.43294,8.7607818 23.190612,8.7954736 22.801801,8.8511556 19.065268,10.713523 18.58331,11.091853 l -0.364268,0.285954 0.692507,1.187361 c 0.380862,0.653052 0.746455,1.188482 0.812402,1.189855 0.06592,0.0014 0.509069,-0.240677 0.9847,-0.537892 z M 39.732125,9.9775952 c 0.257798,-0.6711826 0.468724,-1.2620905 0.468724,-1.3131261 0,-0.2312486 -2.588753,-0.922492 -4.554274,-1.2160622 l -1.353971,-0.2022418 -0.0014,0.5887544 c -7.87e-4,0.3238169 -0.04741,0.9713176 -0.103565,1.4389045 l -0.102124,0.850146 0.636945,0.101299 c 1.19015,0.189271 3.754132,0.778452 4.001359,0.919469 0.408572,0.233063 0.520134,0.103939 1.008343,-1.1671505 z M 27.746514,10.466988 c 0.486215,-0.09475 1.646178,-0.235327 2.577709,-0.312361 0.931532,-0.07705 1.712021,-0.1656765 1.734422,-0.1969858 0.02237,-0.031372 0.0091,-0.666182 -0.02884,-1.4108754 l -0.06963,-1.3539763 -1.008359,-9.426e-4 c -1.050552,-9.801e-4 -4.371877,0.4539933 -4.673083,0.6401488 -0.116959,0.072281 -0.06314,0.5449598 0.165959,1.4571304 0.186492,0.7425769 0.356779,1.3501399 0.378433,1.3501399 0.02166,0 0.437163,-0.07752 0.923372,-0.172283 z"
       id="path6" />
  </g>
</svg>
