<?xml version="1.0" encoding="UTF-8" standalone="no"?>
<svg
   width="64"
   height="64"
   version="1.1"
   id="svg73"
   sodipodi:docname="simplescan.svg"
   inkscape:version="1.4.2 (ebf0e940d0, 2025-05-08)"
   xmlns:inkscape="http://www.inkscape.org/namespaces/inkscape"
   xmlns:sodipodi="http://sodipodi.sourceforge.net/DTD/sodipodi-0.dtd"
   xmlns="http://www.w3.org/2000/svg"
   xmlns:svg="http://www.w3.org/2000/svg"
   xmlns:rdf="http://www.w3.org/1999/02/22-rdf-syntax-ns#"
   xmlns:cc="http://creativecommons.org/ns#"
   xmlns:dc="http://purl.org/dc/elements/1.1/">
  <metadata
     id="metadata77">
    <rdf:RDF>
      <cc:Work
         rdf:about="">
        <dc:format>image/svg+xml</dc:format>
        <dc:type
           rdf:resource="http://purl.org/dc/dcmitype/StillImage" />
      </cc:Work>
    </rdf:RDF>
  </metadata>
  <sodipodi:namedview
     pagecolor="#f5f7fa"
     bordercolor="#666666"
     borderopacity="1"
     objecttolerance="10"
     gridtolerance="10"
     guidetolerance="10"
     inkscape:pageopacity="0"
     inkscape:pageshadow="2"
     inkscape:window-width="1377"
     inkscape:window-height="886"
     id="namedview75"
     showgrid="false"
     inkscape:zoom="6.2890624"
     inkscape:cx="47.622361"
     inkscape:cy="45.396274"
     inkscape:window-x="28"
     inkscape:window-y="56"
     inkscape:window-maximized="0"
     inkscape:current-layer="g877"
     inkscape:document-rotation="0"
     inkscape:pagecheckerboard="0"
     inkscape:showpageshadow="2"
     inkscape:deskcolor="#d1d1d1" />
  <defs
     id="defs29" />
  <circle
     cx="32.516094"
     cy="31.877844"
     r="0"
     fill="url(#b)"
     stroke-width="1.5715"
     id="circle41"
     style="fill:url(#b)" />
  <g
     aria-label="GZ"
     transform="matrix(1.2212657,0,0,0.81882264,0.4960938,-0.1661539)"
     id="text93"
     style="font-weight:bold;font-size:11.5263px;line-height:1.25;font-family:sans-serif;-inkscape-font-specification:'sans-serif Bold';fill:#f2f2f2;stroke-width:0.288159" />
  <g
     id="g877"
     transform="matrix(1.1,0,0,1.1,-3.1845928,-3.2065454)">
    <path
       style="fill:#dfdfdf;fill-opacity:1;stroke:none;stroke-width:0.872104;stroke-dasharray:none;stroke-opacity:0.6"
       d="M 12.91047,59.145855 C 9.9903967,58.805754 7.54127,56.671857 6.6994113,53.734223 6.5210246,53.111759 6.4998254,52.011797 6.4647935,41.559962 L 6.4262792,30.069996 h 25.5570088 25.55701 l -0.03654,11.489966 c -0.04316,12.814968 0.0095,11.971259 -0.855208,13.713826 -0.586847,1.182416 -1.92648,2.522069 -3.108884,3.108897 -1.154853,0.573302 -1.955122,0.756998 -3.674085,0.844007 l -1.452017,0.07358 -0.03116,-6.033247 -0.03115,-6.033262 L 48.0875,46.698274 C 47.750642,46.014787 47.060819,45.325026 46.377448,44.98839 l -0.535417,-0.263702 -13.680306,-0.03054 c -15.71975,-0.03479 -14.354308,-0.126579 -15.524873,1.046006 -1.113709,1.115574 -1.07445,0.835249 -1.07445,7.671401 v 5.852977 l -0.940865,-0.01436 c -0.517485,-0.0088 -1.286781,-0.05514 -1.709572,-0.104335 z M 43.987244,38.905161 c 0.552808,-0.375564 0.769109,-0.814582 0.768589,-1.55917 -7.76e-4,-1.12069 -0.689914,-1.801015 -1.824281,-1.801015 -1.134378,0 -1.823496,0.680317 -1.824272,1.801015 -7.75e-4,1.148295 0.689641,1.847546 1.824272,1.847546 0.487365,0 0.728073,-0.06587 1.055719,-0.288399 z m 7.242078,0.06084 c 0.556459,-0.339317 0.824936,-0.859036 0.824936,-1.59724 0,-1.144638 -0.679207,-1.823859 -1.823855,-1.823859 -1.144641,0 -1.823851,0.679223 -1.823851,1.823859 0,1.144632 0.67921,1.82385 1.823851,1.82385 0.425272,0 0.746973,-0.07311 0.998931,-0.226611 z m -33.843713,17.56227 v -2.737049 h 14.597675 14.597697 v 2.737049 2.737084 H 31.983284 17.385609 Z M 6.4676527,24.966499 c 0.06603,-3.65121 0.1261256,-4.039385 0.8523615,-5.502644 0.5865073,-1.181741 1.9262512,-2.521725 3.1088948,-3.109441 1.401119,-0.696302 2.038479,-0.812186 4.50475,-0.819041 2.005138,-0.0058 2.200881,0.01224 2.623017,0.238834 0.999429,0.536468 1.462,1.242404 1.595723,2.435171 0.103708,0.924948 0.309035,1.432652 0.776475,1.919974 0.7923,0.825974 -0.716609,0.753627 17.072367,0.818426 l 16.023223,0.05845 0.675139,0.255805 c 0.958545,0.363181 1.551475,0.735181 2.171412,1.362404 1.102258,1.115198 1.5086,2.172838 1.617507,4.210312 l 0.07505,1.410611 H 31.986223 6.4084256 Z M 22.367508,18.953778 c -0.806117,-0.28245 -1.218436,-0.854781 -1.218436,-1.691261 0,-0.586682 0.337704,-1.163297 0.855729,-1.461203 0.187952,-0.108097 4.47299,-1.643095 9.522311,-3.411121 5.04931,-1.768027 12.103986,-4.2381852 15.677025,-5.4892395 7.099971,-2.4859598 6.976702,-2.4565501 7.71012,-1.8394239 0.908999,0.7648701 0.913564,2.1135398 0.0089,2.7574026 -0.180546,0.1284679 -2.40086,0.958914 -4.934144,1.8453292 -2.533399,0.8864176 -6.556245,2.2940496 -8.939777,3.1280896 -14.67383,5.134498 -17.7065,6.189453 -17.962256,6.248314 -0.156783,0.03619 -0.480957,-0.0035 -0.720324,-0.08694 z"
       id="path1-3" />
  </g>
</svg>
