<?xml version="1.0" encoding="UTF-8" standalone="no"?>
<svg
   width="64"
   height="64"
   version="1.1"
   id="svg73"
   sodipodi:docname="simplenote.svg"
   inkscape:version="1.4.2 (ebf0e940d0, 2025-05-08)"
   xmlns:inkscape="http://www.inkscape.org/namespaces/inkscape"
   xmlns:sodipodi="http://sodipodi.sourceforge.net/DTD/sodipodi-0.dtd"
   xmlns="http://www.w3.org/2000/svg"
   xmlns:svg="http://www.w3.org/2000/svg"
   xmlns:rdf="http://www.w3.org/1999/02/22-rdf-syntax-ns#"
   xmlns:cc="http://creativecommons.org/ns#"
   xmlns:dc="http://purl.org/dc/elements/1.1/">
  <metadata
     id="metadata77">
    <rdf:RDF>
      <cc:Work
         rdf:about="">
        <dc:format>image/svg+xml</dc:format>
        <dc:type
           rdf:resource="http://purl.org/dc/dcmitype/StillImage" />
      </cc:Work>
    </rdf:RDF>
  </metadata>
  <sodipodi:namedview
     pagecolor="#f5f7fa"
     bordercolor="#666666"
     borderopacity="1"
     objecttolerance="10"
     gridtolerance="10"
     guidetolerance="10"
     inkscape:pageopacity="0"
     inkscape:pageshadow="2"
     inkscape:window-width="1377"
     inkscape:window-height="886"
     id="namedview75"
     showgrid="false"
     inkscape:zoom="6.2890624"
     inkscape:cx="46.986336"
     inkscape:cy="40.467081"
     inkscape:window-x="12"
     inkscape:window-y="50"
     inkscape:window-maximized="0"
     inkscape:current-layer="g877"
     inkscape:document-rotation="0"
     inkscape:pagecheckerboard="0"
     inkscape:showpageshadow="2"
     inkscape:deskcolor="#d1d1d1" />
  <defs
     id="defs29" />
  <circle
     cx="32.516094"
     cy="31.877844"
     r="0"
     fill="url(#b)"
     stroke-width="1.5715"
     id="circle41"
     style="fill:url(#b)" />
  <g
     aria-label="GZ"
     transform="matrix(1.2212657,0,0,0.81882264,0.4960938,-0.1661539)"
     id="text93"
     style="font-weight:bold;font-size:11.5263px;line-height:1.25;font-family:sans-serif;-inkscape-font-specification:'sans-serif Bold';fill:#f2f2f2;stroke-width:0.288159" />
  <g
     id="g877"
     transform="matrix(1.1,0,0,1.1,-3.1845928,-3.2065454)">
    <path
       d="m 31.98563,4.7819221 c -3.601073,0 -9.002755,3.6298793 -9.002755,10.8899239 0,12.705082 28.80945,5.445038 28.80945,32.669347 0,0.749605 -0.04832,1.504655 -0.122412,2.257768 C 56.363876,45.562295 58.991074,38.9158 58.994488,32.006094 59.002874,16.971028 46.902106,4.7816345 31.987495,4.7816345 Z M 12.28939,13.4287 C 7.6044234,18.463505 4.9827638,25.104692 4.977505,32.005804 4.968455,47.040865 17.06988,59.230266 31.984497,59.230266 c 3.601073,0 9.00276,-3.629887 9.00276,-10.889932 0,-18.150111 -28.809454,-9.075057 -28.809454,-32.669348 0,-0.749601 0.04141,-1.49734 0.109824,-2.243438 z"
       fill="url(#a)"
       stroke-width="0.914562"
       id="path35"
       style="fill:#dfdfdf;fill-opacity:1;stroke:none;stroke-width:0.878917;stroke-dasharray:none;stroke-opacity:0.6" />
  </g>
</svg>
