<?xml version="1.0" encoding="UTF-8" standalone="no"?>
<svg
   width="64"
   height="64"
   version="1.1"
   id="svg73"
   sodipodi:docname="slack.svg"
   inkscape:version="1.4.2 (ebf0e940d0, 2025-05-08)"
   xmlns:inkscape="http://www.inkscape.org/namespaces/inkscape"
   xmlns:sodipodi="http://sodipodi.sourceforge.net/DTD/sodipodi-0.dtd"
   xmlns="http://www.w3.org/2000/svg"
   xmlns:svg="http://www.w3.org/2000/svg"
   xmlns:rdf="http://www.w3.org/1999/02/22-rdf-syntax-ns#"
   xmlns:cc="http://creativecommons.org/ns#"
   xmlns:dc="http://purl.org/dc/elements/1.1/">
  <metadata
     id="metadata77">
    <rdf:RDF>
      <cc:Work
         rdf:about="">
        <dc:format>image/svg+xml</dc:format>
        <dc:type
           rdf:resource="http://purl.org/dc/dcmitype/StillImage" />
      </cc:Work>
    </rdf:RDF>
  </metadata>
  <sodipodi:namedview
     pagecolor="#f5f7fa"
     bordercolor="#666666"
     borderopacity="1"
     objecttolerance="10"
     gridtolerance="10"
     guidetolerance="10"
     inkscape:pageopacity="0"
     inkscape:pageshadow="2"
     inkscape:window-width="1377"
     inkscape:window-height="886"
     id="namedview75"
     showgrid="false"
     inkscape:zoom="6.2890624"
     inkscape:cx="46.986336"
     inkscape:cy="40.467081"
     inkscape:window-x="12"
     inkscape:window-y="50"
     inkscape:window-maximized="0"
     inkscape:current-layer="g877"
     inkscape:document-rotation="0"
     inkscape:pagecheckerboard="0"
     inkscape:showpageshadow="2"
     inkscape:deskcolor="#d1d1d1" />
  <defs
     id="defs29" />
  <circle
     cx="32.516094"
     cy="31.877844"
     r="0"
     fill="url(#b)"
     stroke-width="1.5715"
     id="circle41"
     style="fill:url(#b)" />
  <g
     aria-label="GZ"
     transform="matrix(1.2212657,0,0,0.81882264,0.4960938,-0.1661539)"
     id="text93"
     style="font-weight:bold;font-size:11.5263px;line-height:1.25;font-family:sans-serif;-inkscape-font-specification:'sans-serif Bold';fill:#f2f2f2;stroke-width:0.288159" />
  <g
     id="g877"
     transform="matrix(1.1,0,0,1.1,-3.1845928,-3.2065454)">
    <g
       id="g2"
       transform="matrix(0.93418377,0,0,0.93418377,2.164469,1.9385203)"
       style="fill:#dfdfdf;fill-opacity:1;stroke:none;stroke-width:0.940838;stroke-dasharray:none;stroke-opacity:0.6">
      <path
         style="fill:#dfdfdf;fill-opacity:1;stroke:none;stroke-width:0.940838;stroke-dasharray:none;stroke-opacity:0.6"
         d="m 55.603348,18.384642 a 5.7408003,5.8110043 0 0 1 5.7408,5.811004 5.7408003,5.8110043 0 0 1 -5.7408,5.811004 h -5.740801 v -5.811004 a 5.7408003,5.8110043 0 0 1 5.740801,-5.811004 z M 39.816147,2.4043797 a 5.7408003,5.8110043 0 0 0 -5.7408,5.8110043 v 15.980262 a 5.7408003,5.8110043 0 0 0 5.7408,5.811004 5.7408003,5.8110043 0 0 0 5.7408,-5.811004 V 8.215384 a 5.7408003,5.8110043 0 0 0 -5.7408,-5.8110043 z"
         id="path10" />
      <path
         style="fill:#dfdfdf;fill-opacity:1;stroke:none;stroke-width:0.940838;stroke-dasharray:none;stroke-opacity:0.6"
         d="m 39.816147,61.967173 a 5.7408003,5.8110043 0 0 0 5.7408,-5.811004 5.7408003,5.8110043 0 0 0 -5.7408,-5.811004 h -5.7408 v 5.811004 a 5.7408003,5.8110043 0 0 0 5.7408,5.811004 z M 61.344148,40.175908 a 5.7408003,5.8110043 0 0 0 -5.7408,-5.811005 H 39.816147 a 5.7408003,5.8110043 0 0 0 -5.7408,5.811005 5.7408003,5.8110043 0 0 0 5.7408,5.811004 h 15.787201 a 5.7408003,5.8110043 0 0 0 5.7408,-5.811004 z"
         id="path12" />
      <path
         style="fill:#dfdfdf;fill-opacity:1;stroke:none;stroke-width:0.940838;stroke-dasharray:none;stroke-opacity:0.6"
         d="M 8.2417447,45.986912 A 5.7408003,5.8110043 0 0 1 2.5009446,40.175908 5.7408003,5.8110043 0 0 1 8.2417447,34.364903 h 5.7408003 v 5.811005 A 5.7408003,5.8110043 0 0 1 8.2417447,45.986912 Z M 24.028946,34.364903 a 5.7408003,5.8110043 0 0 0 -5.7408,5.811005 v 15.980261 a 5.7408003,5.8110043 0 0 0 5.7408,5.811004 5.7408003,5.8110043 0 0 0 5.7408,-5.811004 V 40.175908 a 5.7408003,5.8110043 0 0 0 -5.7408,-5.811005 z"
         id="path14" />
      <path
         style="fill:#dfdfdf;fill-opacity:1;stroke:none;stroke-width:0.940838;stroke-dasharray:none;stroke-opacity:0.6"
         d="m 29.769746,24.195646 a 5.7408003,5.8110043 0 0 0 -5.7408,-5.811004 H 8.2417447 A 5.7408003,5.8110043 0 0 0 2.5009446,24.195646 5.7408003,5.8110043 0 0 0 8.2417447,30.00665 H 24.028946 a 5.7408003,5.8110043 0 0 0 5.7408,-5.811004 z m -5.7408,-21.7912663 a 5.7408003,5.8110043 0 0 0 -5.7408,5.8110043 5.7408003,5.8110043 0 0 0 5.7408,5.811004 h 5.7408 V 8.215384 a 5.7408003,5.8110043 0 0 0 -5.7408,-5.8110043 z"
         id="path16" />
    </g>
  </g>
</svg>
