<?xml version="1.0" encoding="UTF-8" standalone="no"?>
<svg
   width="64"
   height="64"
   version="1.1"
   id="svg73"
   sodipodi:docname="solstice-microsoft-365-teams.svg"
   inkscape:version="1.4.2 (ebf0e940d0, 2025-05-08)"
   xmlns:inkscape="http://www.inkscape.org/namespaces/inkscape"
   xmlns:sodipodi="http://sodipodi.sourceforge.net/DTD/sodipodi-0.dtd"
   xmlns="http://www.w3.org/2000/svg"
   xmlns:svg="http://www.w3.org/2000/svg"
   xmlns:rdf="http://www.w3.org/1999/02/22-rdf-syntax-ns#"
   xmlns:cc="http://creativecommons.org/ns#"
   xmlns:dc="http://purl.org/dc/elements/1.1/">
  <metadata
     id="metadata77">
    <rdf:RDF>
      <cc:Work
         rdf:about="">
        <dc:format>image/svg+xml</dc:format>
        <dc:type
           rdf:resource="http://purl.org/dc/dcmitype/StillImage" />
      </cc:Work>
    </rdf:RDF>
  </metadata>
  <sodipodi:namedview
     pagecolor="#f5f7fa"
     bordercolor="#666666"
     borderopacity="1"
     objecttolerance="10"
     gridtolerance="10"
     guidetolerance="10"
     inkscape:pageopacity="0"
     inkscape:pageshadow="2"
     inkscape:window-width="1377"
     inkscape:window-height="886"
     id="namedview75"
     showgrid="false"
     inkscape:zoom="6.2890624"
     inkscape:cx="37.445963"
     inkscape:cy="34.901864"
     inkscape:window-x="1"
     inkscape:window-y="75"
     inkscape:window-maximized="0"
     inkscape:current-layer="g877"
     inkscape:document-rotation="0"
     inkscape:pagecheckerboard="0"
     inkscape:showpageshadow="2"
     inkscape:deskcolor="#d1d1d1" />
  <defs
     id="defs29" />
  <circle
     cx="32.516094"
     cy="31.877844"
     r="0"
     fill="url(#b)"
     stroke-width="1.5715"
     id="circle41"
     style="fill:url(#b)" />
  <g
     aria-label="GZ"
     transform="matrix(1.2212657,0,0,0.81882264,0.4960938,-0.1661539)"
     id="text93"
     style="font-weight:bold;font-size:11.5263px;line-height:1.25;font-family:sans-serif;-inkscape-font-specification:'sans-serif Bold';fill:#f2f2f2;stroke-width:0.288159" />
  <g
     id="g877"
     transform="matrix(1.1,0,0,1.1,-3.1845928,-3.2065454)">
    <g
       id="g8"
       transform="matrix(2.6806292,0,0,2.6806292,-2.0464432,-0.984016)"
       style="fill:#dfdfdf;fill-opacity:1">
      <path
         d="m 20.1376,9.05555 c 1.1559,0 2.093,-0.93707 2.093,-2.09302 0,-1.15594 -0.9371,-2.09302 -2.093,-2.09302 -1.156,0 -2.093,0.93708 -2.093,2.09302 0,1.15595 0.937,2.09302 2.093,2.09302 z"
         fill="#000000"
         id="path1"
         style="fill:#dfdfdf;fill-opacity:1" />
      <path
         d="m 19.0215,18.7972 c 0.1346,0.017 0.2717,0.0257 0.411,0.0257 h 0.0153 c 1.7938,0 3.2479,-1.4541 3.2479,-3.2479 v -4.7056 c 0,-0.488 -0.3956,-0.88368 -0.8837,-0.88368 h -2.5181 c 0.1425,0.26968 0.221,0.57788 0.2157,0.90388 v 5.3464 c 0.0195,0.908 -0.156,1.7751 -0.4881,2.5612 z"
         fill="#000000"
         id="path2-2"
         style="fill:#dfdfdf;fill-opacity:1" />
      <path
         d="M 13.9281,9.03159 C 15.4559,8.87992 16.6491,7.59093 16.6491,6.02326 16.6491,4.35356 15.2955,3 13.6258,3 c -1.6697,0 -3.0233,1.35356 -3.0233,3.02326 0,0.05766 0.0017,0.11494 0.0048,0.17181 h 1.4682 c 1.0232,0 1.8526,0.82943 1.8526,1.85255 z"
         fill="#000000"
         id="path4-7"
         style="fill:#dfdfdf;fill-opacity:1" />
      <path
         d="m 8.695,18.4276 h 3.3805 c 1.0232,0 1.8526,-0.8294 1.8526,-1.8525 V 9.98572 h 3.729 c 0.4822,0.01193 0.8637,0.41218 0.8525,0.89438 v 5.367 c 0.0674,2.8941 -2.2223,5.2957 -5.1162,5.3665 -2.1203,-0.0519 -3.91617,-1.3548 -4.6984,-3.186 z"
         fill="#000000"
         id="path7"
         style="fill:#dfdfdf;fill-opacity:1" />
      <path
         fill-rule="evenodd"
         clip-rule="evenodd"
         d="M 12.0757,7.19507 H 3.54823 c -0.47084,0 -0.85255,0.3817 -0.85255,0.85255 v 8.52748 c 0,0.4708 0.3817,0.8525 0.85255,0.8525 h 8.52747 c 0.4708,0 0.8525,-0.3817 0.8525,-0.8525 V 8.04762 c 0,-0.47085 -0.3817,-0.85255 -0.8525,-0.85255 z M 5.5,10.6759 h 1.75 v 4.5 h 1 v -4.5 H 10 v -1 H 5.5 Z"
         fill="#000000"
         id="path8"
         style="fill:#dfdfdf;fill-opacity:1" />
    </g>
  </g>
</svg>
