<?xml version="1.0" encoding="UTF-8" standalone="no"?>
<svg
   width="64"
   height="64"
   version="1.1"
   id="svg73"
   sodipodi:docname="space.gaiasky.GaiaSky.svg"
   inkscape:version="1.4.2 (ebf0e940d0, 2025-05-08)"
   xmlns:inkscape="http://www.inkscape.org/namespaces/inkscape"
   xmlns:sodipodi="http://sodipodi.sourceforge.net/DTD/sodipodi-0.dtd"
   xmlns="http://www.w3.org/2000/svg"
   xmlns:svg="http://www.w3.org/2000/svg"
   xmlns:rdf="http://www.w3.org/1999/02/22-rdf-syntax-ns#"
   xmlns:cc="http://creativecommons.org/ns#"
   xmlns:dc="http://purl.org/dc/elements/1.1/">
  <metadata
     id="metadata77">
    <rdf:RDF>
      <cc:Work
         rdf:about="">
        <dc:format>image/svg+xml</dc:format>
        <dc:type
           rdf:resource="http://purl.org/dc/dcmitype/StillImage" />
      </cc:Work>
    </rdf:RDF>
  </metadata>
  <sodipodi:namedview
     pagecolor="#f5f7fa"
     bordercolor="#666666"
     borderopacity="1"
     objecttolerance="10"
     gridtolerance="10"
     guidetolerance="10"
     inkscape:pageopacity="0"
     inkscape:pageshadow="2"
     inkscape:window-width="1377"
     inkscape:window-height="886"
     id="namedview75"
     showgrid="false"
     inkscape:zoom="6.2890624"
     inkscape:cx="43.170187"
     inkscape:cy="42.693168"
     inkscape:window-x="264"
     inkscape:window-y="75"
     inkscape:window-maximized="0"
     inkscape:current-layer="g877"
     inkscape:document-rotation="0"
     inkscape:pagecheckerboard="0"
     inkscape:showpageshadow="2"
     inkscape:deskcolor="#d1d1d1" />
  <defs
     id="defs29" />
  <circle
     cx="32.516094"
     cy="31.877844"
     r="0"
     fill="url(#b)"
     stroke-width="1.5715"
     id="circle41"
     style="fill:url(#b)" />
  <g
     aria-label="GZ"
     transform="matrix(1.2212657,0,0,0.81882264,0.4960938,-0.1661539)"
     id="text93"
     style="font-weight:bold;font-size:11.5263px;line-height:1.25;font-family:sans-serif;-inkscape-font-specification:'sans-serif Bold';fill:#f2f2f2;stroke-width:0.288159" />
  <g
     id="g877"
     transform="matrix(1.1,0,0,1.1,-3.1845928,-3.2065454)">
    <path
       style="fill:#dfdfdf;fill-opacity:1;stroke-width:0.266142"
       d="M 9.8747668,59.049902 C 8.0274587,58.384601 7.214478,57.808938 6.1459899,56.409595 5.0200445,54.934978 4.4401638,53.053691 4.4401638,50.875407 c 0,-2.038187 0.35668,-3.102212 0.9988134,-2.979651 0.3836378,0.07323 0.4923575,0.483988 0.6215092,2.34812 0.176873,2.553083 0.5649321,3.484599 2.182833,5.239815 1.5746995,1.708344 2.8247506,2.264261 5.5118566,2.45118 2.04105,0.142017 2.270077,0.212406 2.342547,0.720183 0.0635,0.444943 -0.09673,0.598198 -0.765165,0.731894 -1.556235,0.311248 -4.092634,0.154609 -5.4577912,-0.337046 z m 33.3702602,-8.21005 c -6.221817,-6.120671 -7.984249,-8.117654 -7.753441,-8.785318 0.08803,-0.254734 1.069511,-1.39174 2.180992,-2.526676 L 39.69346,37.464344 38.767301,36.547015 37.84114,35.62969 35.818405,37.564871 33.79567,39.500059 32.899354,37.656241 c -1.455,-2.993078 -3.639968,-5.109461 -7.003944,-6.78408 l -1.51724,-0.755303 1.630367,-1.555104 1.630367,-1.555107 -0.952002,-0.952005 -0.952011,-0.952006 -1.672188,1.657322 c -1.271457,1.260158 -1.85553,1.657328 -2.437231,1.657328 -0.643842,0 -1.791682,-1.024505 -7.245244,-6.46674 -5.574593,-5.563016 -6.4801999,-6.577894 -6.4801999,-7.26209 0,-0.676835 0.7064486,-1.497851 4.7408229,-5.5097104 3.536114,-3.5163711 4.905296,-4.7143521 5.388054,-4.7143521 0.936299,0 13.824553,12.9185115 13.822799,13.8552435 -8.2e-4,0.446447 -0.633158,1.30581 -2.022132,2.748218 l -2.020918,2.098653 0.946507,0.946511 0.946514,0.94651 1.586539,-1.513304 c 1.685974,-1.608154 2.503139,-2.048663 3.800308,-2.048663 0.443107,0 1.109655,-0.239125 1.48121,-0.531386 1.478103,-1.162679 3.853506,-1.193109 5.359586,-0.06865 1.277387,0.953701 1.736784,1.849737 1.844172,3.597021 0.09173,1.492255 0.02144,1.779775 -0.69358,2.837315 -0.437601,0.647225 -0.736488,1.330934 -0.664194,1.519345 0.246664,0.642792 -0.518019,2.313904 -1.591956,3.478991 l -1.072189,1.163186 0.884147,0.912203 0.884148,0.912207 1.696768,-1.587247 c 1.19658,-1.119332 1.90637,-1.587249 2.407739,-1.587249 0.573962,0 1.982325,1.271369 7.309199,6.598244 4.995469,4.995465 6.598244,6.755153 6.598244,7.244201 0,0.482201 -1.199685,1.845642 -4.732248,5.378199 -3.861576,3.861577 -4.86831,4.732242 -5.471797,4.732242 -0.603314,0 -1.723841,-0.968283 -6.082744,-5.256327 z m 7.314464,-2.519214 -1.255026,-1.274187 -1.274198,1.255036 -1.274192,1.255025 1.255034,1.274196 1.255027,1.274185 1.274203,-1.255028 1.274183,-1.255032 z m -3.532631,-1.144105 1.179172,-1.201487 -1.256833,-1.256828 -1.256836,-1.256835 -1.256829,1.256835 -1.256834,1.256828 1.179177,1.201487 c 0.648549,0.660828 1.249065,1.201495 1.334486,1.201495 0.08544,0 0.685947,-0.540667 1.334497,-1.201495 z m 7.115899,-2.450629 -1.256834,-1.256828 -1.202481,1.180149 -1.202485,1.180146 1.258399,1.277601 1.258391,1.277607 1.200919,-1.200921 1.200927,-1.200921 z m -10.841909,-1.275371 1.179172,-1.201495 -1.256827,-1.256827 -1.256836,-1.256834 -1.256831,1.256834 -1.25683,1.256827 1.179177,1.201495 c 0.648543,0.660825 1.249059,1.201491 1.334484,1.201491 0.08545,0 0.68595,-0.540666 1.334491,-1.201491 z m 7.392789,0.06034 1.119951,-1.141151 -1.274288,-1.255133 -1.274302,-1.255129 -1.176371,1.198629 -1.176378,1.198643 1.175406,1.197645 c 0.64647,0.6587 1.245292,1.197642 1.330714,1.197642 0.08545,0 0.659297,-0.513521 1.275268,-1.141146 z m -3.725445,-3.726577 1.120511,-1.141709 -1.167806,-1.146118 c -1.308146,-1.283852 -1.540423,-1.265129 -2.930592,0.236204 l -0.770558,0.832186 1.158647,1.180583 c 0.637262,0.649314 1.228546,1.180575 1.313967,1.180575 0.08544,0 0.65955,-0.513765 1.275831,-1.141721 z M 22.984098,23.160952 24.113125,21.896767 23.003959,20.765659 c -0.610039,-0.622109 -1.255856,-1.131104 -1.435152,-1.131104 -0.179281,0 -0.772384,0.544774 -1.317988,1.210611 l -0.992004,1.210614 1.162675,1.184673 c 0.639462,0.651575 1.223622,1.184676 1.298125,1.184676 0.07454,0 0.643524,-0.568881 1.264483,-1.264177 z m -3.636137,-3.663317 1.179172,-1.201491 -1.256827,-1.256828 -1.256833,-1.256835 -1.256836,1.256835 -1.256832,1.256828 1.179176,1.201491 c 0.648544,0.660821 1.249067,1.201492 1.334492,1.201492 0.08541,0 0.685943,-0.540671 1.334488,-1.201492 z m 7.392791,0.0603 1.119949,-1.141151 -1.274295,-1.255135 -1.274293,-1.255128 -1.176374,1.198634 -1.176374,1.198639 1.175403,1.197644 c 0.646463,0.658702 1.245294,1.197642 1.330715,1.197642 0.08546,0 0.659292,-0.51352 1.275269,-1.141145 z M 15.69473,13.45583 l -1.255032,-1.274193 -1.274191,1.255031 -1.274193,1.255034 1.255031,1.274193 1.255036,1.27419 1.274187,-1.255036 1.274198,-1.255027 z m 7.320015,2.376104 1.119953,-1.141147 -1.274298,-1.255137 -1.274295,-1.255131 -1.176374,1.198632 -1.176371,1.198642 1.175396,1.197642 c 0.646474,0.658706 1.245297,1.197642 1.330724,1.197642 0.08543,0 0.659292,-0.513515 1.275265,-1.141143 z M 19.277997,9.8610866 18.02116,8.6042552 16.818684,9.7844056 15.616198,10.96455 l 1.258392,1.277608 1.258397,1.277606 1.200919,-1.20092 1.200921,-1.200925 z M 12.557535,55.595727 C 10.468657,55.048993 9.0779576,53.747279 8.4325238,51.734664 8.0784624,50.630622 8.2292482,48.208444 8.6801074,47.757586 c 0.4926757,-0.492682 1.015696,0.338443 1.1375353,1.80764 0.2217543,2.674023 2.3235143,4.667901 4.9204773,4.667901 1.146927,0 1.98123,0.602146 1.500458,1.082922 -0.357746,0.357743 -2.702214,0.535866 -3.681043,0.279678 z m 15.612587,-3.489708 c -2.086288,-0.750556 -6.164502,-3.207952 -6.164502,-3.714512 0,-0.124887 0.423174,-0.476754 0.94039,-0.781921 l 0.940397,-0.55484 1.920647,1.314652 c 2.337436,1.599937 2.952833,1.752559 3.067479,0.760717 0.168051,-1.45389 -1.733355,-4.38547 -5.114112,-7.884898 -2.728361,-2.824123 -5.261287,-4.795065 -7.450112,-5.797142 -1.211033,-0.554426 -1.588076,-0.627621 -1.89993,-0.368808 -0.213981,0.177589 -0.389059,0.423362 -0.389059,0.546167 0,0.122784 0.641634,1.165559 1.425844,2.317252 l 1.425845,2.093988 -0.590455,1.157387 -0.590446,1.15738 -0.961056,-1.311545 c -1.664841,-2.272014 -3.179895,-5.529249 -3.311821,-7.120147 -0.11437,-1.378699 -0.08257,-1.464964 0.775686,-2.106373 1.332796,-0.996054 2.780453,-1.380399 5.153196,-1.368141 2.401084,0.01251 4.506075,0.547745 6.905812,1.756263 5.547519,2.793768 9.225313,8.577045 9.271725,14.579651 0.01737,2.248368 -0.372153,3.720992 -1.320004,4.990186 -0.777502,1.041101 -1.829455,1.12835 -4.035524,0.334692 z M 13.83831,50.174484 c -0.755536,-0.834835 -0.915739,-1.731762 -0.490927,-2.748482 0.456809,-1.093303 1.222897,-1.508921 2.575997,-1.397531 l 1.060908,0.08734 1.530168,-2.528364 c 1.811645,-2.993434 2.25218,-3.203004 3.639943,-1.73154 0.503689,0.534056 0.915794,1.192485 0.915794,1.463169 0,0.332687 -0.849945,1.032498 -2.623147,2.159807 l -2.623148,1.667656 0.127111,1.127798 c 0.107316,0.952078 0.02032,1.234615 -0.558468,1.813389 -0.92392,0.923916 -2.756136,0.968645 -3.554241,0.08677 z"
       id="path1880" />
  </g>
</svg>
