<?xml version="1.0" encoding="UTF-8" standalone="no"?>
<svg
   width="64"
   height="64"
   version="1.1"
   id="svg73"
   sodipodi:docname="spotify-client.svg"
   inkscape:version="1.4.2 (ebf0e940d0, 2025-05-08)"
   xmlns:inkscape="http://www.inkscape.org/namespaces/inkscape"
   xmlns:sodipodi="http://sodipodi.sourceforge.net/DTD/sodipodi-0.dtd"
   xmlns="http://www.w3.org/2000/svg"
   xmlns:svg="http://www.w3.org/2000/svg"
   xmlns:rdf="http://www.w3.org/1999/02/22-rdf-syntax-ns#"
   xmlns:cc="http://creativecommons.org/ns#"
   xmlns:dc="http://purl.org/dc/elements/1.1/">
  <metadata
     id="metadata77">
    <rdf:RDF>
      <cc:Work
         rdf:about="">
        <dc:format>image/svg+xml</dc:format>
        <dc:type
           rdf:resource="http://purl.org/dc/dcmitype/StillImage" />
      </cc:Work>
    </rdf:RDF>
  </metadata>
  <sodipodi:namedview
     pagecolor="#f5f7fa"
     bordercolor="#666666"
     borderopacity="1"
     objecttolerance="10"
     gridtolerance="10"
     guidetolerance="10"
     inkscape:pageopacity="0"
     inkscape:pageshadow="2"
     inkscape:window-width="1377"
     inkscape:window-height="886"
     id="namedview75"
     showgrid="false"
     inkscape:zoom="6.2890624"
     inkscape:cx="47.622361"
     inkscape:cy="45.396274"
     inkscape:window-x="264"
     inkscape:window-y="75"
     inkscape:window-maximized="0"
     inkscape:current-layer="g877"
     inkscape:document-rotation="0"
     inkscape:pagecheckerboard="0"
     inkscape:showpageshadow="2"
     inkscape:deskcolor="#d1d1d1" />
  <defs
     id="defs29">
    <linearGradient
       id="b"
       x1="399.57"
       x2="399.57"
       y1="545.8"
       y2="517.8"
       gradientTransform="matrix(2.1429,0,0,2.1429,-825.86391,-1107.6662)"
       gradientUnits="userSpaceOnUse">
      <stop
         stop-color="#3889e9"
         offset="0"
         id="stop2" />
      <stop
         stop-color="#5ea5fb"
         offset="1"
         id="stop4" />
    </linearGradient>
  </defs>
  <circle
     cx="32.516094"
     cy="31.877844"
     r="0"
     fill="url(#b)"
     stroke-width="1.5715"
     id="circle41"
     style="fill:url(#b)" />
  <g
     aria-label="GZ"
     transform="matrix(1.2212657,0,0,0.81882264,0.4960938,-0.1661539)"
     id="text93"
     style="font-weight:bold;font-size:11.5263px;line-height:1.25;font-family:sans-serif;-inkscape-font-specification:'sans-serif Bold';fill:#f2f2f2;stroke-width:0.288159" />
  <g
     id="g877"
     transform="matrix(1.1,0,0,1.1,-3.1845928,-3.2065454)">
    <path
       id="path16"
       style="fill:#dfdfdf;fill-opacity:1;stroke:none;stroke-width:0.738368;stroke-dasharray:none;stroke-opacity:0.6"
       d="M 17.491826,5.8982108 C 15.191173,5.8980329 13.09841,6.0424246 12.120202,6.3329129 10.108901,6.9302016 9.1225337,8.21295 8.9669167,10.438391 c -0.09438,1.349607 0.00198,1.793167 0.5692159,2.628884 l 0.6796484,1.003944 5.871867,0.165588 c 5.002767,0.141521 6.375296,0.283054 9.280455,0.955646 10.46279,2.422328 18.387297,6.705761 25.905906,14.010369 3.629552,3.526227 4.168461,3.946782 5.054222,3.946782 1.262015,0 2.415824,-0.897632 3.104981,-2.41499 1.051281,-2.314629 0.66753,-3.482467 -2.252801,-6.844771 C 49.676979,15.250721 36.681947,8.3516754 24.112343,6.3328936 22.302254,6.0421754 19.792471,5.8983814 17.491826,5.8982071 Z m -5.29573,16.3943052 c -0.775189,-0.0253 -1.460391,0.0038 -2.032033,0.08971 -2.6915834,0.403635 -3.8806165,3.804214 -2.0354937,5.820124 0.4771415,0.521297 0.8989343,0.644217 2.1907387,0.64514 5.394367,0.0038 15.254492,2.716421 21.917738,6.030563 4.790773,2.382818 7.907361,4.550137 11.43669,7.948759 1.684338,1.621947 3.233711,2.946877 3.443069,2.946298 0.815085,-0.0023 2.298743,-1.204476 2.715148,-2.201094 0.604528,-1.447121 0.314952,-2.610498 -1.148859,-4.59883 -2.448196,-3.325634 -7.636608,-7.1048 -14.120756,-10.2844 C 27.512052,25.231564 17.622483,22.469471 12.196096,22.292522 Z M 7.4696228,38.334934 c -0.7963761,0.01702 -1.1815699,0.140479 -1.6387405,0.410548 -1.8246149,1.077818 -2.413259,3.70613 -1.1557501,5.168064 0.591455,0.687576 0.9215582,0.778771 3.8018786,1.028105 5.6695192,0.490799 12.3547232,2.403376 18.3780652,5.261222 3.611712,1.713616 6.547302,3.626039 9.452952,6.15821 1.516698,1.321737 2.221424,1.751855 2.884191,1.752608 2.270373,0.0026 3.498761,-3.101339 2.11484,-5.340585 C 40.439457,51.369289 37.556556,48.849669 34.420896,46.756338 27.412268,42.077477 18.062828,38.95135 9.4499124,38.407384 8.5744653,38.352098 7.9474543,38.324697 7.4696228,38.334927 Z" />
  </g>
</svg>
