<?xml version="1.0" encoding="UTF-8" standalone="no"?>
<svg
   width="64"
   height="64"
   version="1.1"
   id="svg73"
   sodipodi:docname="steam_icon_1105670.svg"
   inkscape:version="1.4.2 (ebf0e940d0, 2025-05-08)"
   xmlns:inkscape="http://www.inkscape.org/namespaces/inkscape"
   xmlns:sodipodi="http://sodipodi.sourceforge.net/DTD/sodipodi-0.dtd"
   xmlns="http://www.w3.org/2000/svg"
   xmlns:svg="http://www.w3.org/2000/svg"
   xmlns:rdf="http://www.w3.org/1999/02/22-rdf-syntax-ns#"
   xmlns:cc="http://creativecommons.org/ns#"
   xmlns:dc="http://purl.org/dc/elements/1.1/">
  <metadata
     id="metadata77">
    <rdf:RDF>
      <cc:Work
         rdf:about="">
        <dc:format>image/svg+xml</dc:format>
        <dc:type
           rdf:resource="http://purl.org/dc/dcmitype/StillImage" />
      </cc:Work>
    </rdf:RDF>
  </metadata>
  <sodipodi:namedview
     pagecolor="#f5f7fa"
     bordercolor="#666666"
     borderopacity="1"
     objecttolerance="10"
     gridtolerance="10"
     guidetolerance="10"
     inkscape:pageopacity="0"
     inkscape:pageshadow="2"
     inkscape:window-width="1377"
     inkscape:window-height="886"
     id="namedview75"
     showgrid="false"
     inkscape:zoom="6.2890624"
     inkscape:cx="47.622361"
     inkscape:cy="45.396274"
     inkscape:window-x="147"
     inkscape:window-y="75"
     inkscape:window-maximized="0"
     inkscape:current-layer="g877"
     inkscape:document-rotation="0"
     inkscape:pagecheckerboard="0"
     inkscape:showpageshadow="2"
     inkscape:deskcolor="#d1d1d1" />
  <defs
     id="defs29" />
  <circle
     cx="32.516094"
     cy="31.877844"
     r="0"
     fill="url(#b)"
     stroke-width="1.5715"
     id="circle41"
     style="fill:url(#b)" />
  <g
     aria-label="GZ"
     transform="matrix(1.2212657,0,0,0.81882264,0.4960938,-0.1661539)"
     id="text93"
     style="font-weight:bold;font-size:11.5263px;line-height:1.25;font-family:sans-serif;-inkscape-font-specification:'sans-serif Bold';fill:#f2f2f2;stroke-width:0.288159" />
  <g
     id="g877"
     transform="matrix(1.1,0,0,1.1,-3.1845928,-3.2065454)">
    <path
       style="fill:#dfdfdf;fill-opacity:1;stroke:none;stroke-width:0.69832;stroke-dasharray:none;stroke-opacity:0.6"
       d="m 5.2554803,58.440912 c 0.024157,-0.184057 0.2137851,-1.801312 0.4208717,-3.593701 0.3099161,-2.682956 0.3992323,-3.251784 0.5051278,-3.218577 0.3823842,0.119887 1.2787994,0.0969 1.71231,-0.04475 0.7761358,-0.252079 1.8478394,-0.849642 2.3029072,-1.284204 0.235361,-0.224675 1.604475,-1.875166 3.042524,-3.667561 2.040496,-2.543298 4.093137,-5.09678 4.519497,-5.62224 0.08889,-0.109505 0.869447,0.427195 1.090506,0.749879 0.337463,0.492716 0.623906,1.314646 0.700767,2.011434 l 0.0639,0.576421 0.754144,0.116995 c 0.764978,0.118508 1.520807,0.405559 1.942916,0.737542 0.31365,0.246696 0.651095,0.715451 0.651095,0.904404 0,0.09584 -1.743405,1.559183 -4.620484,3.878008 -2.998065,2.416342 -4.725982,3.868846 -4.920926,4.136607 -0.815444,1.119894 -1.31322,2.658452 -1.108386,3.425885 0.05518,0.207669 0.09336,0.385569 0.084,0.394855 -0.0142,0.01465 -7.0273732,0.832882 -7.1403099,0.832882 -0.024157,0 -0.024157,-0.150696 -1.451e-4,-0.334826 z M 24.396881,50.266331 c -0.11034,-0.290479 -0.274436,-1.781504 -0.274436,-2.49499 0,-1.971847 -1.207148,-3.445282 -3.241214,-3.956216 L 20.300558,43.669141 20.15444,43.08757 c -0.264621,-1.053478 -0.86199,-2.004526 -1.590654,-2.532368 -0.636552,-0.461149 -1.240875,-0.624035 -2.644973,-0.713024 -0.708276,-0.04431 -1.481829,-0.107371 -1.718973,-0.138754 -0.826071,-0.109648 -0.841343,-0.03904 0.487015,-2.268043 0.657896,-1.104186 1.844024,-3.097321 2.635852,-4.42919 1.178921,-1.982992 1.488374,-2.441744 1.708539,-2.532938 0.19098,-0.07905 0.512517,-0.09308 1.109194,-0.04832 1.033545,0.07746 1.2146,0.216672 1.313748,1.009871 0.17347,1.387805 0.151388,1.486419 -0.679991,3.035039 -0.417486,0.777515 -0.758915,1.48388 -0.758915,1.569693 0,0.262379 0.232102,0.61706 0.708911,1.082921 L 21.17926,37.567091 36.712578,22.033302 52.245904,6.4995023 55.483062,5.862205 c 1.780427,-0.3505189 3.243383,-0.6317428 3.250992,-0.6249933 0.0076,0.00705 -0.267881,1.4587196 -0.612184,3.2265478 L 57.495716,11.678001 41.949225,27.23422 26.402733,42.790429 26.84746,43.245433 c 0.532931,0.545339 0.879688,0.742669 1.193647,0.67914 0.128308,-0.02494 0.828865,-0.371413 1.556951,-0.767592 1.450835,-0.789552 1.481267,-0.796417 2.853177,-0.643926 0.89682,0.09973 1.032458,0.266641 1.104183,1.358364 0.0436,0.671048 0.02662,0.903469 -0.08155,1.112897 -0.107712,0.207734 -1.074131,0.822097 -4.489432,2.853966 -2.393697,1.424098 -4.386277,2.602581 -4.427953,2.618836 -0.04179,0.01562 -0.113498,-0.06945 -0.159635,-0.190786 z M 56.529075,7.4065074 c -0.02266,-0.020667 -0.864558,0.039398 -1.871243,0.1338623 L 52.827477,7.7121594 37.895368,22.640543 22.963244,37.568921 23.83217,38.441115 24.701096,39.313308 40.635532,23.378876 C 49.399468,14.614935 56.551545,7.4273799 56.529075,7.4065207 Z"
       id="path1-7" />
  </g>
</svg>
