<?xml version="1.0" encoding="UTF-8" standalone="no"?>
<svg
   width="64"
   height="64"
   version="1.1"
   id="svg73"
   sodipodi:docname="steam_icon_1270580.svg"
   inkscape:version="1.4.2 (ebf0e940d0, 2025-05-08)"
   xmlns:inkscape="http://www.inkscape.org/namespaces/inkscape"
   xmlns:sodipodi="http://sodipodi.sourceforge.net/DTD/sodipodi-0.dtd"
   xmlns="http://www.w3.org/2000/svg"
   xmlns:svg="http://www.w3.org/2000/svg"
   xmlns:rdf="http://www.w3.org/1999/02/22-rdf-syntax-ns#"
   xmlns:cc="http://creativecommons.org/ns#"
   xmlns:dc="http://purl.org/dc/elements/1.1/">
  <metadata
     id="metadata77">
    <rdf:RDF>
      <cc:Work
         rdf:about="">
        <dc:format>image/svg+xml</dc:format>
        <dc:type
           rdf:resource="http://purl.org/dc/dcmitype/StillImage" />
      </cc:Work>
    </rdf:RDF>
  </metadata>
  <sodipodi:namedview
     pagecolor="#f5f7fa"
     bordercolor="#666666"
     borderopacity="1"
     objecttolerance="10"
     gridtolerance="10"
     guidetolerance="10"
     inkscape:pageopacity="0"
     inkscape:pageshadow="2"
     inkscape:window-width="1377"
     inkscape:window-height="886"
     id="namedview75"
     showgrid="false"
     inkscape:zoom="6.2890624"
     inkscape:cx="47.622361"
     inkscape:cy="45.396274"
     inkscape:window-x="147"
     inkscape:window-y="75"
     inkscape:window-maximized="0"
     inkscape:current-layer="g877"
     inkscape:document-rotation="0"
     inkscape:pagecheckerboard="0"
     inkscape:showpageshadow="2"
     inkscape:deskcolor="#d1d1d1" />
  <defs
     id="defs29" />
  <circle
     cx="32.516094"
     cy="31.877844"
     r="0"
     fill="url(#b)"
     stroke-width="1.5715"
     id="circle41"
     style="fill:url(#b)" />
  <g
     aria-label="GZ"
     transform="matrix(1.2212657,0,0,0.81882264,0.4960938,-0.1661539)"
     id="text93"
     style="font-weight:bold;font-size:11.5263px;line-height:1.25;font-family:sans-serif;-inkscape-font-specification:'sans-serif Bold';fill:#f2f2f2;stroke-width:0.288159" />
  <g
     id="g877"
     transform="matrix(1.1,0,0,1.1,-3.1845928,-3.2065454)">
    <path
       d="m 43.198069,24.27626 9.535963,-9.535956 -3.482409,-3.482417 -9.535964,9.535958 z m 14.54803,-9.535956 q 0,0.878739 -0.5859,1.464568 L 15.306208,58.058919 q -0.585829,0.585905 -1.464562,0.585905 -0.878744,0 -1.464567,-0.585905 L 5.9329893,51.614832 Q 5.347158,51.028991 5.347158,50.150292 q 0,-0.878757 0.5858313,-1.464588 L 47.787057,6.8316458 q 0.585898,-0.5858299 1.464566,-0.5858299 0.878732,0 1.464557,0.5858299 l 6.444103,6.4440872 q 0.585895,0.58583 0.585895,1.464571 z M 13.776565,8.5565822 16.966067,9.5329565 13.776565,10.509336 12.800186,13.698833 11.823809,10.509336 8.634313,9.5329565 11.823809,8.5565822 12.800186,5.3670777 Z m 11.391066,5.2724388 6.379001,1.952748 -6.379001,1.952763 -1.952751,6.378998 -1.952753,-6.378998 -6.379004,-1.952763 6.379004,-1.952748 1.952753,-6.3789999 z m 30.267704,15.556948 3.189493,0.976379 -3.189493,0.976377 -0.976384,3.189497 -0.976364,-3.189497 -3.189492,-0.976377 3.189492,-0.976379 0.976364,-3.189497 z M 34.605956,8.5565822 37.795454,9.5329565 34.605956,10.509336 33.629572,13.698833 32.653195,10.509336 29.463697,9.5329565 32.653195,8.5565822 33.629572,5.3670775 Z"
       id="path1-3-3"
       style="overflow:hidden;fill:#dfdfdf;fill-opacity:1;stroke:none;stroke-width:0.854745;stroke-dasharray:none;stroke-opacity:0.6" />
  </g>
</svg>
