<?xml version="1.0" encoding="UTF-8" standalone="no"?>
<svg
   width="64"
   height="64"
   version="1.1"
   id="svg73"
   sodipodi:docname="steam_icon_1581770.svg"
   inkscape:version="1.4.2 (ebf0e940d0, 2025-05-08)"
   xmlns:inkscape="http://www.inkscape.org/namespaces/inkscape"
   xmlns:sodipodi="http://sodipodi.sourceforge.net/DTD/sodipodi-0.dtd"
   xmlns="http://www.w3.org/2000/svg"
   xmlns:svg="http://www.w3.org/2000/svg"
   xmlns:rdf="http://www.w3.org/1999/02/22-rdf-syntax-ns#"
   xmlns:cc="http://creativecommons.org/ns#"
   xmlns:dc="http://purl.org/dc/elements/1.1/">
  <metadata
     id="metadata77">
    <rdf:RDF>
      <cc:Work
         rdf:about="">
        <dc:format>image/svg+xml</dc:format>
        <dc:type
           rdf:resource="http://purl.org/dc/dcmitype/StillImage" />
      </cc:Work>
    </rdf:RDF>
  </metadata>
  <sodipodi:namedview
     pagecolor="#f5f7fa"
     bordercolor="#666666"
     borderopacity="1"
     objecttolerance="10"
     gridtolerance="10"
     guidetolerance="10"
     inkscape:pageopacity="0"
     inkscape:pageshadow="2"
     inkscape:window-width="1377"
     inkscape:window-height="886"
     id="namedview75"
     showgrid="false"
     inkscape:zoom="6.2890624"
     inkscape:cx="47.622361"
     inkscape:cy="45.396274"
     inkscape:window-x="147"
     inkscape:window-y="75"
     inkscape:window-maximized="0"
     inkscape:current-layer="g877"
     inkscape:document-rotation="0"
     inkscape:pagecheckerboard="0"
     inkscape:showpageshadow="2"
     inkscape:deskcolor="#d1d1d1" />
  <defs
     id="defs29" />
  <circle
     cx="32.516094"
     cy="31.877844"
     r="0"
     fill="url(#b)"
     stroke-width="1.5715"
     id="circle41"
     style="fill:url(#b)" />
  <g
     aria-label="GZ"
     transform="matrix(1.2212657,0,0,0.81882264,0.4960938,-0.1661539)"
     id="text93"
     style="font-weight:bold;font-size:11.5263px;line-height:1.25;font-family:sans-serif;-inkscape-font-specification:'sans-serif Bold';fill:#f2f2f2;stroke-width:0.288159" />
  <g
     id="g877"
     transform="matrix(1.1,0,0,1.1,-3.1845928,-3.2065454)">
    <path
       style="fill:#dfdfdf;fill-opacity:1;stroke-width:0.0819681"
       d="m 27.421544,56.904596 c -0.06811,-0.08205 -0.399249,-0.950948 -0.735895,-1.930887 -1.198813,-3.489588 -2.834374,-6.883987 -4.295471,-8.914719 -0.518937,-0.721252 -1.656116,-1.912588 -1.82565,-1.912588 -0.325342,0 -0.223774,1.485967 0.186764,2.732276 0.514878,1.563025 1.799013,3.931148 3.13221,5.77621 0.868095,1.201361 1.081896,1.983438 0.54223,1.983438 -0.301677,0 -0.750032,-0.513258 -1.467438,-1.679926 -0.844066,-1.372632 -1.576153,-2.347531 -2.203478,-2.934319 -0.681124,-0.63711 -0.98145,-0.739352 -1.238683,-0.421681 -0.239334,0.295567 -0.201441,0.400972 0.529794,1.47315 0.323902,0.474952 0.549604,0.901472 0.501568,0.947892 -0.201166,0.194408 -0.748495,-0.07905 -1.453702,-0.726178 -1.035958,-0.95068 -1.356734,-1.036604 -2.659595,-0.712307 -1.269593,0.315958 -2.695669,0.408582 -3.593374,0.233322 C 9.7817541,50.220928 7.3229066,47.443858 6.1594021,43.272117 5.2748992,40.10069 5.3361199,36.151831 6.312755,33.381007 c 0.6760549,-1.918059 1.1728482,-2.647724 3.1457927,-4.62043 1.6230963,-1.62289 2.0596083,-2.266445 2.1701063,-3.199421 0.06656,-0.561965 0.264845,-0.79029 0.490433,-0.564706 0.192979,0.192991 0.125579,1.454806 -0.10956,2.05143 -0.118713,0.301183 -0.539272,1.080965 -0.934544,1.732796 -0.981422,1.618435 -1.1850021,2.183799 -1.2433791,3.453018 -0.054835,1.191598 0.1492788,1.918326 0.7686481,2.736822 0.193398,0.255605 0.418359,0.554706 0.499893,0.664689 0.08155,0.109967 0.214885,0.804533 0.296322,1.543445 0.258111,2.341918 0.890761,3.867901 2.123652,5.122346 0.938832,0.955249 1.659614,1.319561 2.738906,1.384329 1.130343,0.06785 1.72735,-0.239084 2.339573,-1.2029 0.28276,-0.44515 0.255049,-2.193944 -0.05456,-3.440822 -0.278337,-1.120967 -0.830403,-2.379769 -1.308348,-2.983221 -0.491967,-0.621171 -1.285917,-0.967841 -2.521386,-1.100953 -1.894296,-0.204099 -2.154493,-0.285699 -2.722712,-0.853919 -1.357535,-1.357527 -1.100489,-3.85302 0.481973,-4.679105 1.379322,-0.720036 4.516074,1.004201 6.156386,3.384101 0.951448,1.380435 1.511736,2.639014 2.736319,6.146572 0.936695,2.682959 1.300688,3.598573 1.96516,4.943249 0.50517,1.022315 1.329958,2.106026 1.602848,2.106026 0.213404,0 0.489082,-0.362232 0.565134,-0.74243 0.08715,-0.435813 0.344543,-0.678834 0.482511,-0.45558 0.152934,0.247481 0.30037,1.443687 0.426522,3.460868 0.149038,2.383072 0.419671,3.781681 1.169186,6.042005 0.68423,2.063441 0.738824,2.654943 0.250302,2.711714 -0.155429,0.0178 -0.338303,-0.03458 -0.406396,-0.116402 z M 14.279247,49.067544 c 1.093986,-0.558128 1.372289,-1.826239 0.709124,-3.231204 -0.642256,-1.360666 -1.696328,-2.062377 -3.107545,-2.068771 -1.456125,-0.0069 -2.0952857,0.525923 -2.1676118,1.805861 -0.053757,0.951325 0.2608716,1.587324 1.2199168,2.466123 1.294699,1.186368 2.381327,1.520185 3.346116,1.027991 z m 18.94062,7.68422 c -0.198037,-0.07989 -0.178789,-2.97928 0.03017,-4.594208 0.298772,-2.305647 0.790933,-4.091363 1.927443,-6.993348 0.947697,-2.419848 1.769812,-3.649354 4.188269,-6.263778 3.542656,-3.829681 4.330567,-5.241246 4.763997,-8.535013 0.402651,-3.060106 0.905343,-4.007261 2.569199,-4.841192 0.859654,-0.430858 1.686843,-0.603535 3.761242,-0.785114 2.449327,-0.214435 3.463813,-0.457605 4.29767,-1.030223 0.35012,-0.240372 0.679114,-0.437055 0.731273,-0.437055 0.413722,0 -0.08095,1.164425 -0.838752,1.974657 -0.742564,0.793849 -1.37385,1.0837 -2.616349,1.201253 -1.243592,0.117625 -1.491758,0.17509 -2.126768,0.492256 -1.635844,0.817028 -2.961654,2.625257 -3.921451,5.348348 -0.434973,1.23398 -0.688107,1.665248 -1.539705,2.62298 -1.750612,1.968785 -2.055924,3.158825 -0.94912,3.699525 1.078529,0.52689 3.38238,-0.542005 4.367674,-2.026419 0.891752,-1.343471 1.067001,-2.664998 0.519019,-3.913567 -0.389854,-0.888248 -0.400133,-1.067405 -0.09614,-1.671045 0.542016,-1.076244 1.661462,-2.055544 3.089921,-2.703238 1.187458,-0.538415 3.652553,-1.221983 4.200235,-1.164706 0.923422,0.09659 1.962039,1.325966 2.491021,2.948618 0.389116,1.193289 0.483848,3.217443 0.213337,4.552578 -0.412635,2.036541 -1.332974,3.859394 -2.657366,5.26331 -1.228127,1.301882 -2.665615,2.096918 -6.171797,3.413427 -0.858578,0.322447 -1.806957,0.711033 -2.107516,0.863649 -1.377925,0.6997 -2.879658,2.094721 -4.676882,4.344594 -0.600219,0.751364 -1.161222,1.407137 -1.246671,1.45724 -0.275451,0.161596 -0.470007,-0.0088 -0.470007,-0.412489 0,-0.813174 0.832398,-2.163343 2.276559,-3.692584 1.095405,-1.159954 1.548616,-1.795836 1.548616,-2.172814 0,-0.621327 -0.458794,-0.493581 -1.912601,0.532557 -2.345981,1.655853 -4.080651,4.159033 -5.081019,7.332039 -0.248311,0.787457 -0.516211,1.44353 -0.603201,1.476905 -0.240894,0.09243 -0.489636,-0.227816 -0.437515,-0.563331 0.02505,-0.162881 0.07359,-0.621666 0.107217,-1.019308 0.149922,-1.770849 0.805802,-3.403958 1.970055,-4.905493 1.853448,-2.390357 2.331462,-3.49782 1.548495,-3.587463 -0.837049,-0.09579 -3.012155,2.096997 -4.100509,4.133917 -0.881695,1.650136 -1.492099,3.751999 -2.094806,7.213194 -0.321376,1.845634 -0.522431,2.528433 -0.737589,2.50507 -0.04375,-0.0046 -0.140891,-0.03359 -0.21608,-0.0638 z M 45.912103,41.637591 c 0.718773,-0.273276 1.816133,-1.652278 1.816133,-2.282242 0,-0.353222 -0.0832,-0.401467 -0.601087,-0.34838 -0.719595,0.07366 -2.677644,1.691717 -2.677644,2.212655 0,0.143056 0.0592,0.319091 0.13105,0.391286 0.157009,0.157042 0.947148,0.172872 1.331455,0.02619 z m 6.506255,-1.048894 c 1.626102,-0.742024 2.96024,-3.08452 2.96024,-5.197662 0,-1.453152 -0.505109,-2.211246 -1.47206,-2.209247 -1.554831,0.0035 -3.917983,2.708701 -4.433549,5.075844 -0.18156,0.8337 -0.09813,1.877996 0.174592,2.183702 0.540986,0.606579 1.636803,0.664854 2.770859,0.14741 z M 30.356647,52.763423 c -0.3475,-0.571426 -0.505524,-1.644243 -1.149875,-7.806501 -0.403889,-3.862622 -0.743615,-5.638361 -1.327664,-6.939814 -0.505229,-1.125793 -1.29397,-1.526348 -1.782535,-0.905233 -0.206032,0.261945 -0.226513,0.434536 -0.226513,1.908741 0,1.46366 -0.01959,1.631245 -0.201681,1.728717 -0.639552,0.34228 -1.288224,-1.066475 -1.984576,-4.31 -0.359883,-1.67629 -0.658245,-2.372293 -1.484385,-3.462764 -0.406849,-0.537017 -0.591703,-0.882068 -0.591703,-1.104462 0,-0.230793 0.258337,-0.683285 0.901648,-1.57935 0.495907,-0.690749 1.011061,-1.32835 1.144784,-1.416894 0.133701,-0.08856 0.699306,-0.257898 1.256844,-0.3764 0.620625,-0.131836 1.4055,-0.40401 2.024068,-0.701786 2.394307,-1.152621 3.431874,-3.125128 3.090197,-5.874718 -0.40649,-3.27117 -2.391776,-5.586136 -4.915909,-5.732251 -1.277275,-0.07398 -1.580953,0.01481 -2.265262,0.661991 -2.479816,2.345309 -3.600559,7.211412 -2.036823,8.843606 0.562537,0.58716 1.066178,0.356717 2.766204,-1.265898 0.706199,-0.67403 0.936322,-0.839349 0.964521,-0.692921 0.09805,0.50911 -2.637591,4.197396 -3.88998,5.244607 -0.789559,0.660211 -1.242223,0.824099 -1.610236,0.582956 -0.382764,-0.25079 -1.404988,-1.720339 -1.906828,-2.741266 -2.342951,-4.766357 -1.018771,-11.361414 3.072639,-15.303231 1.125872,-1.08471 1.785907,-1.5552691 3.098139,-2.208767 1.815729,-0.9042396 3.57777,-1.3361568 5.792416,-1.4198437 3.217252,-0.1216006 6.554651,0.8477029 9.050109,2.6284227 0.83804,0.598013 2.377707,1.981872 2.558179,2.299301 0.269425,0.473902 0.158185,0.686961 -1.129906,2.164391 -0.698716,0.801406 -1.883494,2.2317 -2.632866,3.178432 -0.74936,0.946734 -1.408743,1.72133 -1.465303,1.72133 -0.264457,0 -0.178711,-0.380628 0.283179,-1.256338 0.54672,-1.03659 0.559091,-1.247756 0.0977,-1.667198 -0.185479,-0.168612 -0.407384,-0.2459 -0.705906,-0.2459 -2.012277,0 -3.714618,3.636521 -3.149834,6.728637 0.270066,1.478419 1.299902,2.870066 2.642652,3.570985 0.636821,0.332419 0.753453,0.355768 1.776767,0.355978 1.016658,2.5e-4 1.147338,-0.02541 1.822064,-0.35758 1.63494,-0.804866 2.705893,-2.650889 2.708989,-4.669544 0.0012,-0.901257 -0.147589,-1.36117 -0.70434,-2.174395 -0.688598,-1.005767 -0.82351,-1.308291 -0.82351,-1.846475 0,-0.812091 0.534555,-1.698342 1.790555,-2.968601 1.429078,-1.44531 2.011785,-1.748863 3.775201,-1.966654 0.861752,-0.106436 1.333561,-0.217808 1.528873,-0.360906 0.452813,-0.331732 0.937752,-1.138546 1.088018,-1.810029 0.09136,-0.408567 0.193917,-0.621685 0.29868,-0.621685 0.25791,0 0.294528,0.277347 0.158829,1.205343 -0.146177,1.000117 -0.319432,1.472142 -0.710259,1.936724 -0.303273,0.360513 -0.496738,0.451469 -1.698271,0.798895 -1.123812,0.324955 -1.661204,0.718422 -2.042968,1.495837 -0.397711,0.809877 -0.396378,1.704877 0.0056,3.306471 0.772921,3.086496 0.04696,5.347361 -2.82053,8.785307 -2.729312,3.271978 -3.028407,3.798751 -3.678787,6.478889 -0.851956,3.510863 -1.506208,5.851928 -1.693129,6.058481 -0.234413,0.259145 -0.443878,0.265124 -0.575326,0.01639 -0.05564,-0.105028 -0.120927,-1.051832 -0.145092,-2.103761 -0.04613,-2.002632 -0.134274,-2.404393 -0.52782,-2.404393 -0.528705,0 -0.828224,1.281707 -0.983273,4.207698 -0.257121,4.852942 -0.386583,5.924295 -0.729304,6.036583 C 31.964363,46.576 31.80047,44.109268 31.98882,39.274441 32.263065,32.235116 31.96075,28.378401 31.068967,27.540647 30.861001,27.345286 30.76684,27.319914 30.593254,27.412819 c -0.475117,0.254262 -0.99546,1.521335 -1.541435,3.753446 -0.398044,1.627329 -0.416472,1.97397 -0.120685,2.269734 0.305531,0.305536 0.413624,0.278868 0.886872,-0.218571 0.228734,-0.240462 0.46528,-0.437167 0.525686,-0.437167 0.379354,0 0.464494,1.148239 0.235019,3.169435 -0.07164,0.631159 -0.158524,2.65347 -0.193157,4.494042 -0.06589,3.505779 0.01863,5.329287 0.409357,8.836303 0.215644,1.935389 0.261831,3.03309 0.14584,3.465586 -0.103708,0.386642 -0.354256,0.394449 -0.583175,0.0178 z m 8.800055,-17.969202 c -0.211852,-0.21189 -0.215038,-0.414631 -0.01722,-1.072668 0.185051,-0.614705 0.617762,-1.21035 1.087463,-1.496764 0.387876,-0.23653 1.010542,-0.278571 1.082652,-0.07307 0.202663,0.577547 -1.259672,2.81424 -1.839959,2.81424 -0.07775,0 -0.218718,-0.07732 -0.313145,-0.171717 z M 11.018333,22.466416 c -0.07259,-0.08751 -0.141827,-0.298543 -0.153883,-0.46907 -0.01722,-0.24374 0.02913,-0.317279 0.21662,-0.344076 0.276269,-0.03925 0.504243,0.297295 0.451434,0.666789 -0.04088,0.286114 -0.329891,0.368408 -0.514159,0.146337 z m 14.41456,-0.279732 c 0,-0.213347 0.122798,-0.450296 0.368092,-0.710393 0.407913,-0.4325 0.782422,-0.506713 0.887435,-0.175852 0.137348,0.43274 -0.469771,1.206327 -0.946714,1.206327 -0.268604,0 -0.308824,-0.04185 -0.308813,-0.320078 z M 56.54437,21.341007 c -0.277036,-0.277052 0.196335,-1.301603 0.654563,-1.416609 0.413824,-0.103851 0.535765,0.08993 0.381257,0.605769 -0.174703,0.583407 -0.78527,1.061321 -1.035753,0.81084 z M 47.844917,8.3128035 c -0.148361,-0.2772473 -0.15018,-0.8399546 -0.0038,-1.1139107 0.06406,-0.1197658 0.227911,-0.2113943 0.378089,-0.2113943 0.371078,0 0.590717,0.6934728 0.367616,1.1603226 -0.184323,0.3858503 -0.577316,0.473187 -0.742223,0.1649769 z"
       id="path1-3" />
  </g>
</svg>
