<?xml version="1.0" encoding="UTF-8" standalone="no"?>
<svg
   width="64"
   height="64"
   version="1.1"
   id="svg73"
   sodipodi:docname="steam_icon_281990.svg"
   inkscape:version="1.4.2 (ebf0e940d0, 2025-05-08)"
   xmlns:inkscape="http://www.inkscape.org/namespaces/inkscape"
   xmlns:sodipodi="http://sodipodi.sourceforge.net/DTD/sodipodi-0.dtd"
   xmlns="http://www.w3.org/2000/svg"
   xmlns:svg="http://www.w3.org/2000/svg"
   xmlns:rdf="http://www.w3.org/1999/02/22-rdf-syntax-ns#"
   xmlns:cc="http://creativecommons.org/ns#"
   xmlns:dc="http://purl.org/dc/elements/1.1/">
  <metadata
     id="metadata77">
    <rdf:RDF>
      <cc:Work
         rdf:about="">
        <dc:format>image/svg+xml</dc:format>
        <dc:type
           rdf:resource="http://purl.org/dc/dcmitype/StillImage" />
      </cc:Work>
    </rdf:RDF>
  </metadata>
  <sodipodi:namedview
     pagecolor="#f5f7fa"
     bordercolor="#666666"
     borderopacity="1"
     objecttolerance="10"
     gridtolerance="10"
     guidetolerance="10"
     inkscape:pageopacity="0"
     inkscape:pageshadow="2"
     inkscape:window-width="1377"
     inkscape:window-height="886"
     id="namedview75"
     showgrid="false"
     inkscape:zoom="6.2890624"
     inkscape:cx="47.622361"
     inkscape:cy="45.396274"
     inkscape:window-x="147"
     inkscape:window-y="75"
     inkscape:window-maximized="0"
     inkscape:current-layer="g877"
     inkscape:document-rotation="0"
     inkscape:pagecheckerboard="0"
     inkscape:showpageshadow="2"
     inkscape:deskcolor="#d1d1d1" />
  <defs
     id="defs29" />
  <circle
     cx="32.516094"
     cy="31.877844"
     r="0"
     fill="url(#b)"
     stroke-width="1.5715"
     id="circle41"
     style="fill:url(#b)" />
  <g
     aria-label="GZ"
     transform="matrix(1.2212657,0,0,0.81882264,0.4960938,-0.1661539)"
     id="text93"
     style="font-weight:bold;font-size:11.5263px;line-height:1.25;font-family:sans-serif;-inkscape-font-specification:'sans-serif Bold';fill:#f2f2f2;stroke-width:0.288159" />
  <g
     id="g877"
     transform="matrix(1.1,0,0,1.1,-3.1845928,-3.2065454)">
    <path
       id="path7"
       style="fill:#dfdfdf;fill-opacity:1;stroke:none;stroke-width:0.8122;stroke-dasharray:none;stroke-dashoffset:2.2;stroke-opacity:0.6"
       d="m 32.059373,10.283275 c -2.742597,-0.01595 -5.505995,0.724395 -7.868913,2.197143 -1.492272,0.930086 -4.286222,3.632442 -5.444073,5.266642 -1.498396,2.114843 -2.818984,5.093148 -3.510112,7.913271 -1.110252,4.530413 -0.797904,11.09075 0.712669,14.912793 0.14174,0.358667 0.36408,0.653521 0.490889,0.653521 0.382686,0 4.195256,-1.382752 6.511592,-2.359791 6.186797,-2.609608 12.849521,-6.249186 18.520489,-10.119287 1.911792,-1.304683 6.470241,-4.686546 6.600304,-4.896998 0.03793,-0.06135 -0.228073,-0.83151 -0.591448,-1.712181 -1.941139,-4.705666 -5.29703,-8.490962 -9.25579,-10.435691 -1.909762,-0.93818 -4.032476,-1.406945 -6.165607,-1.419422 z m 24.186347,4.341059 c -0.81669,0.004 -1.779319,0.09362 -2.673258,0.263186 -1.655856,0.314123 -5.680486,1.666463 -6.254315,2.102522 -0.03587,0.02805 0.217109,0.52815 0.564903,1.111876 0.347752,0.583712 0.632851,1.173392 0.632851,1.310011 0,0.285827 0.323049,0.305684 1.304095,0.07984 2.435155,-0.56056 6.000016,-0.913412 6.000016,-0.594389 0,0.293785 -1.939751,2.475124 -3.850166,4.329231 C 41.999614,32.902823 22.998275,43.112975 11.483739,44.982217 9.7987202,45.255805 8.2361075,45.29773 8.0978287,45.074034 7.977228,44.878813 10.383024,42.021429 12.042634,40.386942 l 1.292209,-1.27461 -0.230648,-0.987679 c -0.127696,-0.542637 -0.235089,-1.200763 -0.23656,-1.463793 -0.0015,-0.263039 -0.04943,-0.479054 -0.106447,-0.479054 -0.201053,0 -3.7271306,2.983134 -4.9916342,4.222786 -2.601236,2.550102 -3.6602794,4.273057 -3.675707,5.97932 -0.00825,0.911396 0.056461,1.141889 0.4258269,1.537691 0.555192,0.594795 1.2542416,0.962831 2.3479582,1.233119 1.1684296,0.288658 2.2698563,0.28707 4.3469771,-0.0092 C 19.639436,47.944454 32.240361,42.34708 43.559648,34.77948 53.926224,27.848814 60.849623,20.165881 59.767655,16.791273 59.570078,16.175167 58.708537,15.210105 58.046624,14.863326 57.734555,14.699827 57.062406,14.619687 56.245725,14.623797 Z m -7.017279,19.123739 c -0.05705,6.92e-4 -1.17921,0.764789 -2.492855,1.697387 -7.209469,5.118301 -16.486099,10.189673 -23.594911,12.898997 -0.901234,0.343448 -1.66751,0.714706 -1.703301,0.82209 -0.08554,0.256573 2.496318,2.19557 3.7999,2.853613 0.562603,0.283941 1.707232,0.751717 2.543134,1.040907 1.500687,0.51919 1.55512,0.526178 4.388377,0.452358 2.367969,-0.06139 3.068155,-0.141563 4.000992,-0.458408 6.760417,-2.296218 11.752678,-9.09821 12.928562,-17.612645 0.128841,-0.93256 0.187079,-1.695128 0.130172,-1.694434 z" />
  </g>
</svg>
