<?xml version="1.0" encoding="UTF-8" standalone="no"?>
<svg
   width="64"
   height="64"
   version="1.1"
   id="svg73"
   sodipodi:docname="steam_icon_2592160.svg"
   inkscape:version="1.4.2 (ebf0e940d0, 2025-05-08)"
   xmlns:inkscape="http://www.inkscape.org/namespaces/inkscape"
   xmlns:sodipodi="http://sodipodi.sourceforge.net/DTD/sodipodi-0.dtd"
   xmlns="http://www.w3.org/2000/svg"
   xmlns:svg="http://www.w3.org/2000/svg"
   xmlns:rdf="http://www.w3.org/1999/02/22-rdf-syntax-ns#"
   xmlns:cc="http://creativecommons.org/ns#"
   xmlns:dc="http://purl.org/dc/elements/1.1/">
  <metadata
     id="metadata77">
    <rdf:RDF>
      <cc:Work
         rdf:about="">
        <dc:format>image/svg+xml</dc:format>
        <dc:type
           rdf:resource="http://purl.org/dc/dcmitype/StillImage" />
      </cc:Work>
    </rdf:RDF>
  </metadata>
  <sodipodi:namedview
     pagecolor="#f5f7fa"
     bordercolor="#666666"
     borderopacity="1"
     objecttolerance="10"
     gridtolerance="10"
     guidetolerance="10"
     inkscape:pageopacity="0"
     inkscape:pageshadow="2"
     inkscape:window-width="1377"
     inkscape:window-height="886"
     id="namedview75"
     showgrid="false"
     inkscape:zoom="6.2890624"
     inkscape:cx="47.622361"
     inkscape:cy="45.396274"
     inkscape:window-x="147"
     inkscape:window-y="75"
     inkscape:window-maximized="0"
     inkscape:current-layer="g877"
     inkscape:document-rotation="0"
     inkscape:pagecheckerboard="0"
     inkscape:showpageshadow="2"
     inkscape:deskcolor="#d1d1d1" />
  <defs
     id="defs29" />
  <circle
     cx="32.516094"
     cy="31.877844"
     r="0"
     fill="url(#b)"
     stroke-width="1.5715"
     id="circle41"
     style="fill:url(#b)" />
  <g
     aria-label="GZ"
     transform="matrix(1.2212657,0,0,0.81882264,0.4960938,-0.1661539)"
     id="text93"
     style="font-weight:bold;font-size:11.5263px;line-height:1.25;font-family:sans-serif;-inkscape-font-specification:'sans-serif Bold';fill:#f2f2f2;stroke-width:0.288159" />
  <g
     id="g877"
     transform="matrix(1.1,0,0,1.1,-3.1845928,-3.2065454)">
    <path
       style="fill:#dfdfdf;fill-opacity:1;stroke-width:0.115618"
       d="m 36.021066,58.249224 c -0.29937,-0.299365 -3.531568,-9.464026 -3.475813,-9.855408 0.05625,-0.39481 0.606468,-0.527812 0.870046,-0.210125 0.19967,0.24062 3.262677,9.501112 3.262677,9.864197 0,0.320668 -0.411512,0.446731 -0.65691,0.201361 z M 27.02696,51.95252 c -1.443329,-1.801712 -2.6778,-3.365598 -2.743266,-3.475299 -0.136205,-0.228205 0.156364,-0.64842 0.45145,-0.64842 0.249605,0 5.468214,6.831471 5.468214,7.15821 0,0.722528 -0.710269,0.04381 -3.176398,-3.034491 z m 9.601947,1.002022 c -0.162774,-0.279824 -1.646669,-5.180007 -1.646669,-5.437743 0,-0.34739 0.280005,-0.548749 0.48212,-0.346658 0.137538,0.137567 1.676095,5.412693 1.676095,5.746722 0,0.178168 -0.412161,0.208481 -0.511545,0.03715 z m -13.131405,-6.16499 c -0.707935,-0.128002 -1.103862,-0.522473 -2.740231,-2.730115 -0.94575,-1.275913 -2.131598,-2.840145 -2.635213,-3.47603 -1.691351,-2.135618 -1.808902,-2.831243 -0.892002,-5.27845 1.507696,-4.02403 1.612314,-4.390955 1.525379,-5.349729 l -0.08208,-0.905134 0.716338,-0.0601 c 0.39398,-0.03312 0.739873,-0.0035 0.76864,0.06557 0.179604,0.431617 0.569934,0.608839 1.140115,0.517665 1.021625,-0.163372 1.730433,-0.576247 1.784026,-1.039207 0.0411,-0.354991 0.211383,-0.475991 1.271106,-0.903162 l 1.223653,-0.493246 0.445079,0.476459 c 0.420521,0.450172 1.049009,0.791601 1.454781,0.790321 0.100463,-3.45e-4 -0.0309,-0.130878 -0.292153,-0.290115 -0.489427,-0.298457 -0.881555,-0.96854 -1.05822,-1.808338 -0.08527,-0.405398 0.106876,-0.882295 1.231256,-3.055733 1.261567,-2.438623 1.317226,-2.586929 1.048277,-2.793146 -0.15622,-0.119778 -0.797897,-0.577391 -1.425954,-1.016915 l -1.141924,-0.799134 0.104203,0.912417 c 0.05735,0.501831 0.249127,1.496568 0.426242,2.210526 l 0.322038,1.298109 -0.671736,1.350367 -0.671738,1.350369 -1.114126,0.473217 c -1.322397,0.561672 -1.381335,0.566825 -1.718667,0.150228 l -0.261528,-0.322971 -1.227678,0.372398 c -1.08771,0.329939 -1.233064,0.417648 -1.274897,0.769247 -0.04078,0.34233 -0.143247,0.411243 -0.746375,0.501686 -0.384539,0.05764 -0.729479,0.07454 -0.76653,0.0375 C 18.200533,27.707036 17.8931,26.998262 17.554406,26.169038 17.215707,25.339811 16.662507,24.133591 16.325065,23.488545 15.60753,22.116914 12.077455,17.80388 8.381787,13.783464 4.3084504,9.3522012 3.7393575,8.5766374 3.9066627,7.6848011 4.0610135,6.8620882 4.671454,6.3606714 5.5206065,6.3591311 c 0.7081271,-0.00121 0.7182814,0.00617 2.3286133,1.7342697 6.2249592,6.6797982 7.1422232,7.4028892 9.3908002,7.4028892 1.575193,0 2.800803,-0.538659 3.985384,-1.75157 l 0.811068,-0.830471 1.2211,-0.05545 c 0.840128,-0.03816 1.453803,0.02186 1.966974,0.192285 1.307281,0.434204 6.972388,5.040829 7.533516,6.12593 0.379872,0.734582 0.272247,1.557173 -0.364185,2.78357 -0.726456,1.399874 -3.014199,4.996802 -3.517708,5.530756 l -0.374102,0.396711 0.307346,0.759466 c 0.370132,0.914634 3.862605,9.90713 5.030855,12.953573 1.022714,2.66691 1.067709,3.249651 0.309498,4.007851 -0.439559,0.439609 -0.6352,0.5241 -1.21247,0.5241 -0.45998,0 -0.821304,-0.104566 -1.08915,-0.31525 -0.258076,-0.203 -1.505114,-2.503102 -3.501802,-6.458925 -1.705541,-3.379007 -3.236823,-6.289452 -3.402839,-6.467653 -0.166011,-0.178198 -0.395045,-0.323996 -0.508947,-0.323996 -0.113897,0 -0.834977,1.11368 -1.602391,2.474844 l -1.395281,2.474835 1.502535,2.496737 c 2.187145,3.634346 2.639196,4.481717 2.639196,4.947191 0,0.465907 -0.324338,1.174009 -0.668604,1.459733 -0.299361,0.248473 -1.0274,0.438574 -1.412522,0.368997 z M 39.354436,36.88332 C 37.696512,36.640546 35.54013,35.770062 33.34894,34.459024 l -0.971851,-0.581478 -1.091083,-2.833678 -1.091083,-2.833678 1.215673,-1.868129 c 2.424631,-3.725937 2.983195,-4.861844 3.003241,-6.107464 0.02889,-1.795694 -1.070718,-3.101405 -5.330063,-6.329024 -1.336456,-1.01273 -2.35155,-1.841328 -2.255766,-1.841328 0.151501,0 9.549812,3.140979 24.145371,8.069548 6.597167,2.2277 8.352712,3.040296 8.914238,4.12617 0.628645,1.215644 -0.01771,1.700356 -4.58814,3.439922 l -1.496084,0.569442 0.699686,0.67041 c 0.594952,0.570072 0.675337,0.715877 0.537123,0.974217 -0.343738,0.642281 -2.1056,1.053168 -6.744215,1.572849 -3.83187,0.429298 -5.565327,0.8944 -6.492233,1.741937 -0.47601,0.435244 -0.439183,1.087774 0.118386,2.09939 0.252797,0.458674 0.459694,0.963333 0.459694,1.121458 0,0.546664 -1.140404,0.71005 -3.027379,0.433729 z M 16.329173,13.460563 c -2.561905,-0.517266 -3.965471,-3.378896 -2.788668,-5.6856254 0.702834,-1.37766 2.509672,-2.331503 3.994667,-2.1088219 1.970629,0.2955171 3.407664,1.8773876 3.415342,3.7595633 0.005,1.199618 -0.273151,1.953241 -1.032041,2.797314 -0.910276,1.012447 -2.31147,1.49557 -3.5893,1.23757 z"
       id="path1-4" />
  </g>
</svg>
