<?xml version="1.0" encoding="UTF-8" standalone="no"?>
<svg
   width="64"
   height="64"
   version="1.1"
   id="svg73"
   sodipodi:docname="steam_icon_1669000.svg"
   inkscape:version="1.4.2 (ebf0e940d0, 2025-05-08)"
   xmlns:inkscape="http://www.inkscape.org/namespaces/inkscape"
   xmlns:sodipodi="http://sodipodi.sourceforge.net/DTD/sodipodi-0.dtd"
   xmlns="http://www.w3.org/2000/svg"
   xmlns:svg="http://www.w3.org/2000/svg"
   xmlns:rdf="http://www.w3.org/1999/02/22-rdf-syntax-ns#"
   xmlns:cc="http://creativecommons.org/ns#"
   xmlns:dc="http://purl.org/dc/elements/1.1/">
  <metadata
     id="metadata77">
    <rdf:RDF>
      <cc:Work
         rdf:about="">
        <dc:format>image/svg+xml</dc:format>
        <dc:type
           rdf:resource="http://purl.org/dc/dcmitype/StillImage" />
      </cc:Work>
    </rdf:RDF>
  </metadata>
  <sodipodi:namedview
     pagecolor="#f5f7fa"
     bordercolor="#666666"
     borderopacity="1"
     objecttolerance="10"
     gridtolerance="10"
     guidetolerance="10"
     inkscape:pageopacity="0"
     inkscape:pageshadow="2"
     inkscape:window-width="1377"
     inkscape:window-height="886"
     id="namedview75"
     showgrid="false"
     inkscape:zoom="6.2890624"
     inkscape:cx="47.622361"
     inkscape:cy="45.396274"
     inkscape:window-x="147"
     inkscape:window-y="75"
     inkscape:window-maximized="0"
     inkscape:current-layer="g877"
     inkscape:document-rotation="0"
     inkscape:pagecheckerboard="0"
     inkscape:showpageshadow="2"
     inkscape:deskcolor="#d1d1d1" />
  <defs
     id="defs29" />
  <circle
     cx="32.516094"
     cy="31.877844"
     r="0"
     fill="url(#b)"
     stroke-width="1.5715"
     id="circle41"
     style="fill:url(#b)" />
  <g
     aria-label="GZ"
     transform="matrix(1.2212657,0,0,0.81882264,0.4960938,-0.1661539)"
     id="text93"
     style="font-weight:bold;font-size:11.5263px;line-height:1.25;font-family:sans-serif;-inkscape-font-specification:'sans-serif Bold';fill:#f2f2f2;stroke-width:0.288159" />
  <g
     id="g877"
     transform="matrix(1.1,0,0,1.1,-3.1845928,-3.2065454)">
    <path
       style="fill:#dfdfdf;fill-opacity:1;stroke:none;stroke-width:0.814044;stroke-dasharray:none;stroke-opacity:0.6"
       d="m 33.544898,58.338912 c 0.234004,-0.03496 0.425455,-0.109472 0.425455,-0.167109 0,-0.05779 -0.544905,-0.369808 -1.210901,-0.693776 -2.176291,-1.058546 -3.28019,-2.059827 -3.976303,-3.606735 -0.281013,-0.624444 -0.419146,-1.468987 -0.240291,-1.468987 0.03883,0 0.289231,0.109516 0.556369,0.243492 0.565311,0.283302 1.429778,0.428368 1.770139,0.29717 0.215898,-0.08328 0.201675,-0.136191 -0.15857,-0.589495 -0.677242,-0.85215 -0.929503,-1.742577 -0.929503,-3.280812 0,-1.346419 0.0042,-1.364939 0.590661,-2.536232 1.257361,-2.511706 3.683136,-4.454651 6.478401,-5.188957 1.079099,-0.283456 4.124726,-0.405512 5.694524,-0.228182 0.648013,0.07318 1.202491,0.108999 1.232171,0.07957 0.358539,-0.355496 -2.54589,-3.361016 -4.570392,-4.729504 -0.719289,-0.486217 -4.065328,-2.16893 -4.752172,-2.389863 -0.273729,-0.08807 -0.477797,-0.228145 -0.4535,-0.311332 0.09181,-0.314152 1.779682,-1.010147 3.242085,-1.336864 0.827997,-0.184989 1.552652,-0.382772 1.610349,-0.439527 0.180044,-0.177102 -1.447698,-1.072748 -3.048629,-1.677409 -0.996263,-0.37628 -4.537749,-1.212875 -5.146706,-1.215796 -0.475091,-0.0026 -0.855776,-0.193438 -0.698739,-0.35087 0.0578,-0.05793 1.170126,-0.124941 2.471917,-0.148925 1.77361,-0.03275 2.697915,0.01125 3.687529,0.175971 2.364524,0.393156 4.86796,1.336142 6.69526,2.521954 0.827147,0.536784 2.545354,2.068979 2.545354,2.269817 0,0.06374 -0.195356,0.11593 -0.434175,0.11593 -0.863192,0 -3.106242,0.514089 -3.398487,0.778907 -0.05592,0.05067 0.592045,0.345171 1.439986,0.654369 3.015752,1.099677 5.295597,2.443756 7.759891,4.574845 l 1.374538,1.188673 0.08788,-2.08827 c 0.139689,-3.317635 0.362823,-4.04457 1.599958,-5.214685 1.117683,-1.057048 1.868063,-1.34339 3.925906,-1.498083 0.944394,-0.07102 1.776001,-0.185603 1.847997,-0.254671 0.195119,-0.187073 -0.895823,-1.098775 -3.010822,-2.516314 -1.746766,-1.170746 -2.40799,-1.56615 -5.105432,-3.053039 -1.536535,-0.846976 -1.807363,-1.219686 -1.742936,-2.398576 0.08913,-1.63116 1.159928,-3.253772 2.939866,-4.454859 0.529749,-0.357419 0.963065,-0.700597 0.963065,-0.762601 0,-0.219631 -0.744348,-0.296917 -2.745343,-0.285034 -2.174925,0.01265 -2.603034,0.05655 -3.579476,0.364499 -0.346638,0.109373 -0.661269,0.167838 -0.699113,0.129998 -0.0375,-0.03787 0.141299,-0.534243 0.398213,-1.103096 0.531667,-1.177611 0.788119,-2.267929 1.016618,-4.322791 0.104159,-0.936223 0.116898,-1.581135 0.03645,-1.859295 l -0.122106,-0.425866 -0.873362,1.102218 c -1.111629,1.40316 -3.047117,3.252337 -4.303062,4.111355 -0.536868,0.367187 -2.088831,1.27118 -3.448825,2.008869 -3.915411,2.123805 -5.407498,3.151261 -7.656586,5.272382 -0.922509,0.870018 -1.404111,1.244066 -1.430698,1.111182 -0.05696,-0.284801 0.887374,-2.109196 1.573551,-3.039974 0.752649,-1.020938 2.607653,-2.962427 3.625611,-3.794639 0.999174,-0.81685 1.259101,-1.350054 1.460991,-2.996955 0.308892,-2.519747 -0.0407,-5.1540228 -1.056203,-7.9584213 -0.529184,-1.4613993 -0.737275,-1.6575665 -0.850758,-0.8020062 -0.364077,2.7447142 -0.879276,4.0291385 -2.46633,6.1487005 -0.956975,1.278071 -2.332468,2.637515 -7.748876,7.65844 -3.217778,2.982824 -5.739385,5.718468 -7.175378,7.784433 -0.406491,0.584809 -0.83773,1.144446 -0.95831,1.243627 -0.199711,0.164243 -0.211296,0.140231 -0.130039,-0.269704 0.139749,-0.705052 1.294449,-3.000793 1.959546,-3.895765 1.018031,-1.369899 2.363264,-2.830409 6.18419,-6.714127 3.639601,-3.699406 4.326276,-4.495542 4.619526,-5.355923 0.207191,-0.60786 0.186896,-2.378214 -0.03949,-3.4464955 -0.352574,-1.663659 -0.987027,-2.6250052 -0.987027,-1.4955655 0,0.6450323 -0.747055,2.894454 -1.375587,4.141951 -0.308726,0.612803 -0.939602,1.556006 -1.401925,2.096004 -0.854805,0.998421 -4.047436,4.089626 -8.856115,8.574775 -2.94703,2.74875 -4.01333,4.023617 -4.935761,5.901191 -0.753492,1.533688 -0.967234,2.574627 -0.970071,4.724177 -0.0012,0.948108 -0.03796,1.817013 -0.08171,1.930902 -0.04463,0.116378 -0.231065,0.207297 -0.425453,0.207559 -0.8749243,0.0012 -1.8454906,1.10851 -1.9530794,2.228173 -0.04697,0.488612 -0.1156639,0.651015 -0.2750088,0.650068 -0.4543554,-0.0029 -1.9401531,-1.297922 -2.624528,-2.28789 -0.3755097,-0.543179 -0.7374845,-0.953767 -0.8044031,-0.912406 -0.066897,0.04135 -0.120948,0.763905 -0.1199498,1.605655 0.00466,4.23144 1.6220221,7.538751 4.8418979,9.901706 l 0.8509002,0.624436 0.06989,-1.290583 c 0.08304,-1.53325 0.361577,-2.254503 1.17583,-3.044711 1.178528,-1.143724 3.137497,-1.739832 5.601095,-1.704389 0.741759,0.01078 1.37937,-0.01137 1.416916,-0.0483 0.0375,-0.0375 -0.02444,-0.247549 -0.137757,-0.466635 -0.253724,-0.490684 -0.266403,-1.453452 -0.02666,-2.027185 0.402928,-0.964347 1.739438,-1.729285 3.747928,-2.145087 1.470943,-0.304514 5.678324,-0.299232 6.785082,0.0085 1.069862,0.297497 2.247613,0.819433 2.247613,0.99606 0,0.08437 -0.375067,0.138137 -0.963945,0.138137 -1.151923,0 -1.991082,0.146621 -3.000441,0.524276 -0.874593,0.327227 -0.927656,0.507586 -0.354075,1.203441 0.504117,0.611591 1.016062,1.715831 1.121523,2.419058 0.0646,0.430734 0.01045,0.706039 -0.253402,1.281789 -0.382558,0.835611 -0.845039,1.116861 -1.836547,1.116861 -1.002448,0 -1.040684,0.05717 -0.582691,0.868511 0.348589,0.617653 0.394883,0.810264 0.343558,1.429143 -0.101915,1.229391 -0.912275,1.836495 -2.302303,1.724922 l -0.841408,-0.06763 0.08882,0.476961 c 0.24218,1.300536 0.233391,1.513072 -0.08199,1.982464 -0.493152,0.734045 -1.145243,0.983539 -2.529823,0.967945 -0.901695,-0.01078 -1.400897,-0.09148 -2.127268,-0.346536 -0.70308,-0.24688 -0.949082,-0.288646 -0.949082,-0.161018 0,0.324091 1.28478,2.091461 2.115578,2.910366 1.131896,1.115656 1.908817,1.656036 3.448039,2.398214 2.440519,1.176765 5.799864,1.925417 9.032694,2.013019 1.007997,0.02774 2.024174,0.02263 2.258171,-0.01265 z M 16.923486,33.991645 c -0.130105,-0.08006 0.307003,-1.150895 0.834167,-2.043505 1.182772,-2.002694 3.497849,-4.048507 4.921826,-4.349371 l 0.425459,-0.08989 v 0.733002 c 0,1.222151 -1.026386,3.262508 -2.379781,4.730763 -0.654841,0.710417 -1.14204,0.990554 -1.940208,1.115609 -0.556138,0.08712 -1.655607,0.03011 -1.861462,-0.09665 z"
       id="path2-65" />
  </g>
</svg>
