<?xml version="1.0" encoding="UTF-8" standalone="no"?>
<svg
   width="64"
   height="64"
   version="1.1"
   id="svg73"
   sodipodi:docname="steam_icon_1604030.svg"
   inkscape:version="1.4.2 (ebf0e940d0, 2025-05-08)"
   xmlns:inkscape="http://www.inkscape.org/namespaces/inkscape"
   xmlns:sodipodi="http://sodipodi.sourceforge.net/DTD/sodipodi-0.dtd"
   xmlns="http://www.w3.org/2000/svg"
   xmlns:svg="http://www.w3.org/2000/svg"
   xmlns:rdf="http://www.w3.org/1999/02/22-rdf-syntax-ns#"
   xmlns:cc="http://creativecommons.org/ns#"
   xmlns:dc="http://purl.org/dc/elements/1.1/">
  <metadata
     id="metadata77">
    <rdf:RDF>
      <cc:Work
         rdf:about="">
        <dc:format>image/svg+xml</dc:format>
        <dc:type
           rdf:resource="http://purl.org/dc/dcmitype/StillImage" />
      </cc:Work>
    </rdf:RDF>
  </metadata>
  <sodipodi:namedview
     pagecolor="#f5f7fa"
     bordercolor="#666666"
     borderopacity="1"
     objecttolerance="10"
     gridtolerance="10"
     guidetolerance="10"
     inkscape:pageopacity="0"
     inkscape:pageshadow="2"
     inkscape:window-width="1377"
     inkscape:window-height="886"
     id="namedview75"
     showgrid="false"
     inkscape:zoom="6.2890624"
     inkscape:cx="47.622361"
     inkscape:cy="45.396274"
     inkscape:window-x="147"
     inkscape:window-y="75"
     inkscape:window-maximized="0"
     inkscape:current-layer="g877"
     inkscape:document-rotation="0"
     inkscape:pagecheckerboard="0"
     inkscape:showpageshadow="2"
     inkscape:deskcolor="#d1d1d1" />
  <defs
     id="defs29" />
  <circle
     cx="32.516094"
     cy="31.877844"
     r="0"
     fill="url(#b)"
     stroke-width="1.5715"
     id="circle41"
     style="fill:url(#b)" />
  <g
     aria-label="GZ"
     transform="matrix(1.2212657,0,0,0.81882264,0.4960938,-0.1661539)"
     id="text93"
     style="font-weight:bold;font-size:11.5263px;line-height:1.25;font-family:sans-serif;-inkscape-font-specification:'sans-serif Bold';fill:#f2f2f2;stroke-width:0.288159" />
  <g
     id="g877"
     transform="matrix(1.1,0,0,1.1,-3.1845928,-3.2065454)">
    <path
       style="fill:#dfdfdf;fill-opacity:1;stroke:none;stroke-width:0.820405;stroke-dasharray:none;stroke-opacity:0.6"
       d="M 29.699365,55.779364 C 26.598961,51.936076 23.967721,47.830071 21.840795,43.516196 L 19.966949,39.715624 20.05892,33.4827 C 20.1464,27.555434 19.620076,20.731299 18.616815,14.783901 18.475763,13.94778 18.413166,13.207508 18.477682,13.138856 c 0.06453,-0.06862 0.391804,0.123582 0.727283,0.427174 0.335474,0.303603 0.609667,0.496586 0.609316,0.428864 -3.34e-4,-0.06771 -0.684609,-1.958641 -1.520575,-4.2020514 -0.835974,-2.2434054 -1.469328,-4.12954 -1.407467,-4.1914049 0.06188,-0.061843 1.220939,0.6510731 2.575712,1.5843098 1.546843,1.0655408 2.760642,2.1724037 3.262682,2.9752225 0.439691,0.703142 0.721697,1.038998 0.626658,0.746354 -0.278886,-0.858797 0.451693,-0.63506 2.770375,0.84841 2.15158,1.376564 2.156492,1.382834 1.727926,2.204332 -0.347762,0.666599 -0.429833,2.970988 -0.429964,12.073519 -1.11e-4,7.180808 0.119802,11.689559 0.331563,12.465864 0.495102,1.815018 2.583965,5.959492 3.501562,6.947344 l 0.804813,0.866443 0.707216,-0.866443 c 0.830056,-1.016941 2.973971,-5.264468 3.429903,-6.795327 0.507199,-1.703032 0.688977,-9.913421 0.387045,-17.48261 -0.153417,-3.846174 -0.328776,-7.264945 -0.389668,-7.59727 -0.08397,-0.45838 0.361985,-0.921971 1.847585,-1.920577 1.077062,-0.723994 2.186829,-1.256581 2.466152,-1.183539 0.323307,0.08452 0.697421,-0.18809 1.029399,-0.7500753 0.453978,-0.7684677 5.302404,-4.3455893 5.55189,-4.0960985 0.05071,0.050893 -0.591405,1.928141 -1.427315,4.1715464 -0.835962,2.2434104 -1.520225,4.1343394 -1.520577,4.2020574 -3.02e-4,0.06771 0.273762,-0.125287 0.609323,-0.428861 0.335424,-0.30359 0.675065,-0.486884 0.754656,-0.40729 0.07957,0.07961 -0.05126,1.298736 -0.291108,2.709203 -1.015267,5.975064 -1.435493,12.134769 -1.215468,17.816551 l 0.213862,5.522607 -1.57364,3.294717 c -2.123836,4.446678 -4.780632,8.711673 -7.87636,12.644095 -1.415189,1.797692 -2.654672,3.26841 -2.754429,3.268279 -0.09973,-1.42e-4 -1.137775,-1.185813 -2.30672,-2.634843 z M 40.794058,11.135363 c 0,-0.0836 -0.06839,-0.152016 -0.151985,-0.152016 -0.08361,0 -0.151998,0.0684 -0.151998,0.152016 0,0.0836 0.06839,0.152015 0.151998,0.152015 0.08361,0 0.151985,-0.0684 0.151985,-0.152015 z"
       id="path1-5" />
  </g>
</svg>
