<?xml version="1.0" encoding="UTF-8" standalone="no"?>
<svg
   width="64"
   height="64"
   version="1.1"
   id="svg73"
   sodipodi:docname="steam_icon_298050.svg"
   inkscape:version="1.4.2 (ebf0e940d0, 2025-05-08)"
   xmlns:inkscape="http://www.inkscape.org/namespaces/inkscape"
   xmlns:sodipodi="http://sodipodi.sourceforge.net/DTD/sodipodi-0.dtd"
   xmlns="http://www.w3.org/2000/svg"
   xmlns:svg="http://www.w3.org/2000/svg"
   xmlns:rdf="http://www.w3.org/1999/02/22-rdf-syntax-ns#"
   xmlns:cc="http://creativecommons.org/ns#"
   xmlns:dc="http://purl.org/dc/elements/1.1/">
  <metadata
     id="metadata77">
    <rdf:RDF>
      <cc:Work
         rdf:about="">
        <dc:format>image/svg+xml</dc:format>
        <dc:type
           rdf:resource="http://purl.org/dc/dcmitype/StillImage" />
      </cc:Work>
    </rdf:RDF>
  </metadata>
  <sodipodi:namedview
     pagecolor="#f5f7fa"
     bordercolor="#666666"
     borderopacity="1"
     objecttolerance="10"
     gridtolerance="10"
     guidetolerance="10"
     inkscape:pageopacity="0"
     inkscape:pageshadow="2"
     inkscape:window-width="1377"
     inkscape:window-height="886"
     id="namedview75"
     showgrid="false"
     inkscape:zoom="6.2890624"
     inkscape:cx="47.622361"
     inkscape:cy="45.396274"
     inkscape:window-x="147"
     inkscape:window-y="75"
     inkscape:window-maximized="0"
     inkscape:current-layer="g877"
     inkscape:document-rotation="0"
     inkscape:pagecheckerboard="0"
     inkscape:showpageshadow="2"
     inkscape:deskcolor="#d1d1d1" />
  <defs
     id="defs29">
    <linearGradient
       id="b"
       x1="399.57"
       x2="399.57"
       y1="545.8"
       y2="517.8"
       gradientTransform="matrix(2.1429,0,0,2.1429,-825.86391,-1107.6662)"
       gradientUnits="userSpaceOnUse">
      <stop
         stop-color="#3889e9"
         offset="0"
         id="stop2" />
      <stop
         stop-color="#5ea5fb"
         offset="1"
         id="stop4" />
    </linearGradient>
  </defs>
  <circle
     cx="32.516094"
     cy="31.877844"
     r="0"
     fill="url(#b)"
     stroke-width="1.5715"
     id="circle41"
     style="fill:url(#b)" />
  <g
     aria-label="GZ"
     transform="matrix(1.2212657,0,0,0.81882264,0.4960938,-0.1661539)"
     id="text93"
     style="font-weight:bold;font-size:11.5263px;line-height:1.25;font-family:sans-serif;-inkscape-font-specification:'sans-serif Bold';fill:#f2f2f2;stroke-width:0.288159" />
  <g
     id="g877"
     transform="matrix(1.1,0,0,1.1,-3.1845928,-3.2065454)">
    <path
       style="fill:#dfdfdf;fill-opacity:1;stroke:none;stroke-width:0.861425;stroke-dasharray:none;stroke-opacity:0.6"
       d="M 31.099965,60.111046 C 30.765088,59.93253 30.510651,59.684163 30.324659,59.354579 30.065612,58.895462 30.045053,58.742876 30.004905,56.980864 l -0.04295,-1.883052 -1.646359,-1.21354 -1.646364,-1.213533 V 41.611264 c 0,-9.505745 -0.02289,-11.103649 -0.162575,-11.373859 -0.08938,-0.17294 -1.341442,-2.323532 -2.782302,-4.779164 -1.977246,-3.369811 -2.594355,-4.50702 -2.516276,-4.636974 0.05688,-0.09467 2.139747,-3.802968 4.628555,-8.240588 2.488802,-4.4376252 4.668886,-8.2121947 4.844635,-8.387948 0.808017,-0.8080034 2.240356,-0.6415739 2.903104,0.337338 0.145238,0.2145027 2.219088,3.8791958 4.608574,8.143747 2.389497,4.264548 4.418348,7.881832 4.508562,8.038408 0.159649,0.277093 0.09427,0.403548 -2.454713,4.74774 -1.440296,2.454682 -2.69188,4.604534 -2.781296,4.777441 -0.139749,0.270211 -0.162575,1.868114 -0.162575,11.373859 v 11.059475 l -1.646367,1.213533 -1.64636,1.21354 -0.04616,1.883052 c -0.04093,1.670311 -0.07356,1.93497 -0.288625,2.34264 -0.488705,0.926343 -1.649502,1.281302 -2.575474,0.787542 z m -2.48446,-38.301878 c 0.164543,-0.06255 0.603938,-0.369392 0.976431,-0.681845 1.776112,-1.489842 3.16543,-1.486067 4.846775,0.01332 0.343723,0.306497 0.758187,0.607916 0.921046,0.669829 1.054464,0.400935 2.347242,-0.360926 2.562874,-1.510329 0.136791,-0.729241 -0.132341,-1.297571 -1.008543,-2.129903 -1.474961,-1.401062 -3.018732,-2.049816 -4.872597,-2.047666 -1.930258,0.0024 -3.582053,0.702123 -5.058143,2.143163 -0.758688,0.740674 -0.86117,0.889789 -0.926894,1.348675 -0.09949,0.694886 0.0017,1.081038 0.414793,1.582178 0.544828,0.66098 1.385506,0.901205 2.144256,0.612729 z M 11.847796,53.859954 C 11.646322,53.760649 11.341843,53.475176 11.171137,53.225562 10.804662,52.689627 7.7079442,47.665467 7.4248151,47.147476 7.2455342,46.819419 7.2269414,46.248306 7.1977223,40.171316 7.176148,35.691472 7.2042563,33.409139 7.28529,33.109088 7.521822,32.230646 8.5741713,31.55517 9.4501541,31.719506 c 0.4413563,0.08279 1.0062959,0.458033 1.3137679,0.872591 0.217824,0.293681 0.235045,0.489603 0.287104,3.265528 l 0.05538,2.953091 3.869065,-6.893161 c 2.128027,-3.791227 3.897534,-6.890893 3.932292,-6.888137 0.03473,0.0027 0.923011,1.481034 1.973915,3.285054 l 1.910742,3.280039 V 42.091238 52.58794 l -0.304609,0.06115 c -1.204405,0.242983 -9.214941,1.395604 -9.685489,1.393593 -0.323507,-0.0014 -0.753036,-0.08374 -0.954494,-0.183019 z m 33.928875,-0.541308 c -2.497805,-0.389374 -4.553932,-0.709087 -4.569163,-0.710485 -0.0158,-0.0015 -0.02824,-4.730006 -0.02824,-10.508038 V 31.594511 l 1.910887,-3.280039 c 1.050912,-1.80402 1.939168,-3.282293 1.973926,-3.285054 0.03424,-0.0027 1.804254,3.09691 3.932248,6.88815 l 3.869062,6.893159 0.05563,-2.953094 c 0.05218,-2.775927 0.06924,-2.97184 0.287128,-3.265522 0.30751,-0.41457 0.872418,-0.789789 1.313763,-0.872592 0.875991,-0.164349 1.928335,0.511143 2.164868,1.389584 0.0808,0.30005 0.109142,2.582383 0.08751,7.062223 -0.02883,6.076993 -0.04729,6.648167 -0.22706,6.976161 -0.283756,0.519079 -3.380227,5.542699 -3.747622,6.07998 -0.410247,0.599931 -0.895348,0.820478 -1.778385,0.808549 -0.386822,-0.0048 -2.746899,-0.328167 -5.244708,-0.71746 z"
       id="path1-3" />
  </g>
</svg>
