<?xml version="1.0" encoding="UTF-8" standalone="no"?>
<svg
   width="64"
   height="64"
   version="1.1"
   id="svg73"
   sodipodi:docname="steam_icon_297000.svg"
   inkscape:version="1.4.2 (ebf0e940d0, 2025-05-08)"
   xmlns:inkscape="http://www.inkscape.org/namespaces/inkscape"
   xmlns:sodipodi="http://sodipodi.sourceforge.net/DTD/sodipodi-0.dtd"
   xmlns="http://www.w3.org/2000/svg"
   xmlns:svg="http://www.w3.org/2000/svg"
   xmlns:rdf="http://www.w3.org/1999/02/22-rdf-syntax-ns#"
   xmlns:cc="http://creativecommons.org/ns#"
   xmlns:dc="http://purl.org/dc/elements/1.1/">
  <metadata
     id="metadata77">
    <rdf:RDF>
      <cc:Work
         rdf:about="">
        <dc:format>image/svg+xml</dc:format>
        <dc:type
           rdf:resource="http://purl.org/dc/dcmitype/StillImage" />
      </cc:Work>
    </rdf:RDF>
  </metadata>
  <sodipodi:namedview
     pagecolor="#f5f7fa"
     bordercolor="#666666"
     borderopacity="1"
     objecttolerance="10"
     gridtolerance="10"
     guidetolerance="10"
     inkscape:pageopacity="0"
     inkscape:pageshadow="2"
     inkscape:window-width="1377"
     inkscape:window-height="886"
     id="namedview75"
     showgrid="false"
     inkscape:zoom="6.2890624"
     inkscape:cx="47.622361"
     inkscape:cy="45.396274"
     inkscape:window-x="147"
     inkscape:window-y="75"
     inkscape:window-maximized="0"
     inkscape:current-layer="g877"
     inkscape:document-rotation="0"
     inkscape:pagecheckerboard="0"
     inkscape:showpageshadow="2"
     inkscape:deskcolor="#d1d1d1" />
  <defs
     id="defs29">
    <linearGradient
       id="b"
       x1="399.57"
       x2="399.57"
       y1="545.8"
       y2="517.8"
       gradientTransform="matrix(2.1429,0,0,2.1429,-825.86391,-1107.6662)"
       gradientUnits="userSpaceOnUse">
      <stop
         stop-color="#3889e9"
         offset="0"
         id="stop2" />
      <stop
         stop-color="#5ea5fb"
         offset="1"
         id="stop4" />
    </linearGradient>
  </defs>
  <circle
     cx="32.516094"
     cy="31.877844"
     r="0"
     fill="url(#b)"
     stroke-width="1.5715"
     id="circle41"
     style="fill:url(#b)" />
  <g
     aria-label="GZ"
     transform="matrix(1.2212657,0,0,0.81882264,0.4960938,-0.1661539)"
     id="text93"
     style="font-weight:bold;font-size:11.5263px;line-height:1.25;font-family:sans-serif;-inkscape-font-specification:'sans-serif Bold';fill:#f2f2f2;stroke-width:0.288159" />
  <g
     id="g877"
     transform="matrix(1.1,0,0,1.1,-3.1845928,-3.2065454)">
    <path
       style="fill:#dfdfdf;fill-opacity:1;stroke-width:0.10414"
       d="M 30.037769,58.121395 C 18.527285,51.165087 13.95934,46.893121 11.525843,40.808943 10.775829,38.933777 9.9748104,35.771673 9.7319601,33.727395 9.6979349,33.441014 9.6262182,32.902083 9.5725514,32.529786 9.1768297,29.784154 8.9479626,24.314237 8.9203922,16.943256 l -0.020548,-5.498031 1.041403,-0.297018 c 0.5727618,-0.163338 1.2522828,-0.35904 1.5100258,-0.434842 1.209437,-0.355697 8.740488,-2.549114 11.090965,-3.230251 1.82876,-0.5299449 5.578685,-1.6208446 7.833696,-2.2789154 1.779063,-0.5191792 1.432633,-0.527997 3.517631,0.089496 1.17186,0.347079 4.397262,1.2855828 6.45671,1.8787454 0.859155,0.247451 2.147903,0.6237876 2.863865,0.8362952 0.715957,0.2125068 1.442351,0.4226266 1.614182,0.4669291 0.171787,0.04422 0.722477,0.2024968 1.223661,0.3515127 1.496239,0.4449082 2.645757,0.7817645 4.295793,1.258862 0.859156,0.248422 2.265052,0.655939 3.124218,0.9056 l 1.562117,0.453931 0.0334,2.757589 c 0.03596,2.99872 -0.143436,11.351038 -0.293835,13.692345 -0.450815,7.011945 -1.343064,11.143797 -3.183702,14.742229 -1.834991,3.587378 -4.44546,6.406199 -9.226145,9.962526 -2.370934,1.763718 -9.989931,6.58948 -10.403592,6.58948 -0.08486,0 -0.949768,-0.480771 -1.922065,-1.068372 z m 3.131209,-3.216926 c 0.570347,-0.352193 1.458766,-0.90031 1.974266,-1.217995 3.80373,-2.344112 7.041997,-4.740715 9.164373,-6.782469 2.839637,-2.731769 4.205364,-4.678397 5.335548,-7.605091 0.791945,-2.050794 1.509836,-5.481319 1.743396,-8.33125 0.03545,-0.42961 0.108383,-1.202815 0.16268,-1.718309 0.188771,-1.792878 0.412751,-8.171386 0.412751,-11.751092 0,-3.324705 -0.01318,-3.609727 -0.182294,-3.69849 -0.100232,-0.05284 -0.67431,-0.23817 -1.275744,-0.41169 C 47.264862,12.453435 43.540551,11.369112 41.652087,10.810839 40.936089,10.599188 40.209714,10.390838 40.037884,10.347841 39.86606,10.304853 39.139664,10.0965 38.423701,9.8848457 37.707718,9.6731925 36.582997,9.3434917 35.924313,9.1521742 35.265628,8.9608655 34.15425,8.6361279 33.4546,8.4305423 32.754952,8.2249589 32.085512,8.0567557 31.966974,8.0567557 c -0.118544,0 -0.787984,0.1682076 -1.487635,0.3737778 -0.699651,0.2055823 -1.811012,0.5304585 -2.469715,0.7219564 -0.658688,0.191488 -1.619378,0.4720848 -2.134872,0.6235526 -0.515497,0.1514524 -1.640218,0.4794315 -2.499372,0.7288235 -0.859158,0.249401 -1.983883,0.576947 -2.499368,0.727887 -0.515505,0.150936 -1.827676,0.532398 -2.915947,0.847689 -1.088266,0.315295 -2.541025,0.738015 -3.228356,0.939375 -0.687325,0.201368 -1.507066,0.436779 -1.821642,0.523156 -1.080027,0.296534 -0.976164,-0.302411 -0.906259,5.225808 0.190019,15.028763 1.236339,20.387289 4.92385,25.216471 1.366323,1.789342 3.99679,4.226744 6.81221,6.312259 2.125147,1.574198 7.875891,5.238117 8.23151,5.244465 0.08832,0.0026 0.627269,-0.285406 1.197618,-0.637498 z M 30.821404,51.080804 C 25.145548,47.613283 20.870327,44.04813 18.935844,41.16931 16.423902,37.431149 15.541377,32.317109 15.339419,20.328731 l -0.06784,-4.026006 0.354891,-0.103411 c 0.195215,-0.0569 0.940689,-0.275088 1.65665,-0.484965 0.715976,-0.209887 2.192166,-0.640204 3.280435,-0.956254 1.088272,-0.31605 2.541028,-0.73955 3.228359,-0.941091 0.687331,-0.201556 1.460565,-0.427298 1.718312,-0.501664 0.664275,-0.191641 2.248895,-0.650197 2.863867,-0.828726 0.286349,-0.08314 1.059633,-0.311363 1.718322,-0.507178 0.658684,-0.195811 1.349905,-0.389011 1.536069,-0.429335 l 0.338459,-0.07333 v 20.107397 c 0,11.059079 -0.03501,20.105965 -0.07814,20.104194 -0.04289,-0.0026 -0.52331,-0.275184 -1.067438,-0.607646 z"
       id="path1-1-0" />
  </g>
</svg>
