<?xml version="1.0" encoding="UTF-8" standalone="no"?>
<svg
   width="64"
   height="64"
   version="1.1"
   id="svg73"
   sodipodi:docname="steam_icon_1575940.svg"
   inkscape:version="1.4.2 (ebf0e940d0, 2025-05-08)"
   xmlns:inkscape="http://www.inkscape.org/namespaces/inkscape"
   xmlns:sodipodi="http://sodipodi.sourceforge.net/DTD/sodipodi-0.dtd"
   xmlns="http://www.w3.org/2000/svg"
   xmlns:svg="http://www.w3.org/2000/svg"
   xmlns:rdf="http://www.w3.org/1999/02/22-rdf-syntax-ns#"
   xmlns:cc="http://creativecommons.org/ns#"
   xmlns:dc="http://purl.org/dc/elements/1.1/">
  <metadata
     id="metadata77">
    <rdf:RDF>
      <cc:Work
         rdf:about="">
        <dc:format>image/svg+xml</dc:format>
        <dc:type
           rdf:resource="http://purl.org/dc/dcmitype/StillImage" />
      </cc:Work>
    </rdf:RDF>
  </metadata>
  <sodipodi:namedview
     pagecolor="#f5f7fa"
     bordercolor="#666666"
     borderopacity="1"
     objecttolerance="10"
     gridtolerance="10"
     guidetolerance="10"
     inkscape:pageopacity="0"
     inkscape:pageshadow="2"
     inkscape:window-width="1377"
     inkscape:window-height="886"
     id="namedview75"
     showgrid="false"
     inkscape:zoom="6.2890624"
     inkscape:cx="47.622361"
     inkscape:cy="45.396274"
     inkscape:window-x="147"
     inkscape:window-y="75"
     inkscape:window-maximized="0"
     inkscape:current-layer="g877"
     inkscape:document-rotation="0"
     inkscape:pagecheckerboard="0"
     inkscape:showpageshadow="2"
     inkscape:deskcolor="#d1d1d1" />
  <defs
     id="defs29" />
  <circle
     cx="32.516094"
     cy="31.877844"
     r="0"
     fill="url(#b)"
     stroke-width="1.5715"
     id="circle41"
     style="fill:url(#b)" />
  <g
     aria-label="GZ"
     transform="matrix(1.2212657,0,0,0.81882264,0.4960938,-0.1661539)"
     id="text93"
     style="font-weight:bold;font-size:11.5263px;line-height:1.25;font-family:sans-serif;-inkscape-font-specification:'sans-serif Bold';fill:#f2f2f2;stroke-width:0.288159" />
  <g
     id="g877"
     transform="matrix(1.1,0,0,1.1,-3.1845928,-3.2065454)">
    <path
       style="fill:#dfdfdf;fill-opacity:1;stroke:none;stroke-width:0.781337;stroke-dasharray:none;stroke-opacity:0.6"
       d="m 26.507488,55.455877 -2.937145,-4.026323 0.08327,-4.452812 0.08328,-4.452818 2.928993,-0.08589 2.928996,-0.08589 v 8.57254 c 0,4.714901 -0.03379,8.569205 -0.07511,8.565108 -0.04129,-0.0038 -1.396824,-1.81926 -3.012256,-4.033745 z m 7.593499,-4.460411 v -8.62175 h 3.004097 3.004096 v 4.549118 4.549105 l -2.752483,3.787242 c -1.513873,2.082996 -2.865712,3.915678 -3.004099,4.07266 -0.138387,0.157024 -0.251617,-3.594388 -0.251611,-8.336375 z M 16.076415,37.794819 C 15.380854,37.43021 15.318949,37.21869 15.23814,34.930677 l -0.08726,-2.470462 h 1.543188 1.543194 l -0.10406,1.502233 -0.10406,1.502233 1.126534,-1.85e-4 c 1.125946,-1.83e-4 1.126533,-0.0027 1.126533,-1.283556 0,-1.211004 -0.14398,-1.426625 -2.553484,-3.823584 L 15.1752,27.817132 v -2.463553 c 0,-3.332368 0.08976,-3.4077 4.059952,-3.4077 3.807664,0 4.051107,0.202596 4.051107,3.371348 V 27.35325 H 21.78418 20.282126 v -1.502042 -1.502049 h -1.146189 -1.146192 l 0.06188,1.276074 c 0.05721,1.180459 0.250077,1.454614 2.573157,3.658835 l 2.51125,2.382754 0.0966,2.574671 c 0.134961,3.598047 -0.0088,3.752254 -3.601881,3.861639 -1.88056,0.05727 -3.050531,-0.04436 -3.554341,-0.308323 z m 9.312698,-7.737886 v -8.111054 h 1.351841 1.351842 v 8.111054 8.111065 h -1.351842 -1.351841 z m 4.806551,0 v -8.111054 h 1.3172 1.317202 l 1.517892,3.830222 1.517897,3.830225 0.01873,-3.830225 0.01874,-3.830222 h 1.351815 1.351847 v 8.111054 8.111065 h -1.165493 -1.16562 l -1.526371,-3.980437 -1.52638,-3.980419 -0.01162,3.980419 -0.01174,3.980437 H 31.697789 30.195747 Z M 41.911629,37.97342 C 40.99126,37.616105 40.710002,36.839566 40.710002,34.655868 v -2.195653 h 1.502053 1.502047 v 1.502037 1.502061 h 1.128699 1.128693 L 45.863716,34.109337 C 45.764342,32.859853 45.559545,32.561004 43.23298,30.270804 L 40.710016,27.78723 v -2.253014 c 0,-3.414033 0.196875,-3.588337 4.05111,-3.588337 3.923949,0 4.059942,0.106425 4.059942,3.175763 v 2.231608 h -1.540256 -1.540267 l 0.144315,-1.502042 0.144362,-1.502049 H 44.87167 43.71413 v 1.309182 c 0,1.255478 0.104764,1.407046 2.553479,3.695223 l 2.553478,2.386065 v 2.726779 c 0,2.168182 -0.101783,2.811248 -0.496043,3.139092 -0.51226,0.425648 -5.524014,0.713166 -6.413342,0.367918 z M 23.586658,11.13114 V 4.5221277 h 3.00409 3.004097 v 6.6090123 6.609008 h -3.004097 -3.00409 z m 10.514329,0 V 4.5221277 h 3.004097 3.004096 v 6.6090123 6.609008 h -3.004096 -3.004097 z"
       id="path1-9"
       sodipodi:nodetypes="ccccccscccscccccssscscccccssscssscccccccsscssccccccccccccccccccccccccccccccccssccccccccccssscccccccsscscsscccccccccccccccccc" />
  </g>
</svg>
