<?xml version="1.0" encoding="UTF-8" standalone="no"?>
<svg
   width="64"
   height="64"
   version="1.1"
   id="svg73"
   sodipodi:docname="steam_icon_2820820.svg"
   inkscape:version="1.4.2 (ebf0e940d0, 2025-05-08)"
   xmlns:inkscape="http://www.inkscape.org/namespaces/inkscape"
   xmlns:sodipodi="http://sodipodi.sourceforge.net/DTD/sodipodi-0.dtd"
   xmlns="http://www.w3.org/2000/svg"
   xmlns:svg="http://www.w3.org/2000/svg"
   xmlns:rdf="http://www.w3.org/1999/02/22-rdf-syntax-ns#"
   xmlns:cc="http://creativecommons.org/ns#"
   xmlns:dc="http://purl.org/dc/elements/1.1/">
  <metadata
     id="metadata77">
    <rdf:RDF>
      <cc:Work
         rdf:about="">
        <dc:format>image/svg+xml</dc:format>
        <dc:type
           rdf:resource="http://purl.org/dc/dcmitype/StillImage" />
      </cc:Work>
    </rdf:RDF>
  </metadata>
  <sodipodi:namedview
     pagecolor="#f5f7fa"
     bordercolor="#666666"
     borderopacity="1"
     objecttolerance="10"
     gridtolerance="10"
     guidetolerance="10"
     inkscape:pageopacity="0"
     inkscape:pageshadow="2"
     inkscape:window-width="1377"
     inkscape:window-height="886"
     id="namedview75"
     showgrid="false"
     inkscape:zoom="6.2890624"
     inkscape:cx="47.622361"
     inkscape:cy="45.396274"
     inkscape:window-x="147"
     inkscape:window-y="75"
     inkscape:window-maximized="0"
     inkscape:current-layer="g877"
     inkscape:document-rotation="0"
     inkscape:pagecheckerboard="0"
     inkscape:showpageshadow="2"
     inkscape:deskcolor="#d1d1d1" />
  <defs
     id="defs29" />
  <circle
     cx="32.516094"
     cy="31.877844"
     r="0"
     fill="url(#b)"
     stroke-width="1.5715"
     id="circle41"
     style="fill:url(#b)" />
  <g
     aria-label="GZ"
     transform="matrix(1.2212657,0,0,0.81882264,0.4960938,-0.1661539)"
     id="text93"
     style="font-weight:bold;font-size:11.5263px;line-height:1.25;font-family:sans-serif;-inkscape-font-specification:'sans-serif Bold';fill:#f2f2f2;stroke-width:0.288159" />
  <g
     id="g877"
     transform="matrix(1.1,0,0,1.1,-3.1845928,-3.2065454)">
    <path
       style="fill:#dfdfdf;fill-opacity:1;stroke:none;stroke-width:0.861425;stroke-dasharray:none;stroke-opacity:0.6"
       d="M 27.475721,59.78556 C 26.50252,59.569232 26.448846,59.131033 27.365369,58.884474 l 0.268009,-0.07198 v -0.912035 -0.911958 h 4.351227 4.351227 v 0.911958 0.911965 l 0.268011,0.07203 c 0.758025,0.203955 0.876944,0.533863 0.285631,0.79226 -0.254649,0.111271 -0.524145,0.118422 -4.778733,0.127455 -2.479881,0.0053 -4.565631,-0.0035 -4.635,-0.01894 z m 1.020017,-3.469226 c -0.05249,-0.05218 -0.05728,-2.102573 -0.0053,-2.102573 0.02085,0 0.120008,0.05861 0.220761,0.130451 0.286534,0.203957 1.289858,0.654917 1.948822,0.875797 1.19615,0.401005 2.829395,0.729761 4.319702,0.869747 0.385337,0.03643 0.504479,0.06983 0.504479,0.142047 0,0.08274 -0.435174,0.09663 -3.473091,0.110957 -1.910199,0.0085 -3.492252,-0.0027 -3.515668,-0.02609 z m 6.137437,-1.250311 c -2.723609,-0.3344 -4.76451,-1.086067 -5.880466,-2.165779 l -0.299526,-0.289835 v -1.216301 c 0,-0.668977 0.0241,-1.216311 0.05399,-1.216311 0.02957,0 0.32283,0.141535 0.651393,0.314523 1.347753,0.709524 3.238213,1.228237 5.285433,1.450245 0.364186,0.03968 0.754876,0.08568 0.868212,0.102454 l 0.206049,0.03155 -0.01718,1.525339 c -0.01465,1.300795 -0.03083,1.526875 -0.111453,1.535752 -0.05195,0.0067 -0.392557,-0.02609 -0.756735,-0.07097 z m -0.189162,-4.1069 c -1.955454,-0.261653 -3.524537,-0.722738 -4.626732,-1.359633 -0.506544,-0.292696 -1.270086,-0.88965 -1.326722,-1.037257 -0.05525,-0.143864 -0.04548,-2.497462 0.01001,-2.472866 0.02616,0.01186 0.373802,0.182964 0.772499,0.380897 0.834529,0.414322 1.92252,0.789802 2.9636,1.022646 0.629843,0.140904 1.104001,0.216351 2.900819,0.461781 l 0.346834,0.04729 0.01702,1.52925 0.01718,1.529234 -0.206055,-0.007 c -0.113353,-0.0036 -0.50406,-0.04566 -0.868241,-0.09506 z m -0.126126,-4.094708 c -2.414563,-0.332247 -4.243614,-1.003144 -5.41615,-1.986677 l -0.417014,-0.34975 -0.01738,-1.274026 c -0.0095,-0.700725 -0.0064,-1.274043 0.0064,-1.274043 0.01305,0 0.290331,0.13985 0.616158,0.310714 1.446701,0.758857 3.02902,1.202428 5.276232,1.479126 l 1.117784,0.137567 0.01718,1.527177 0.01702,1.527191 -0.300645,-0.0076 c -0.165358,-0.0042 -0.570253,-0.04404 -0.899749,-0.08987 z m 0.378378,-4.041505 c -1.63063,-0.185996 -3.296952,-0.613564 -4.363671,-1.119768 -0.631773,-0.299799 -1.362769,-0.791363 -1.650572,-1.10992 L 28.453155,40.33993 v -1.229533 c 0,-0.676228 0.01078,-1.229511 0.0237,-1.229511 0.01291,0 0.185492,0.09736 0.383009,0.216242 1.239952,0.746651 3.610785,1.409354 5.837878,1.631799 l 0.786558,0.07861 0.01702,1.507531 c 0.0099,0.829127 -0.0048,1.526199 -0.03155,1.549038 -0.02641,0.02391 -0.374804,0.0042 -0.773668,-0.04023 z m 0.09458,-4.064632 c -2.866748,-0.355595 -4.853328,-1.068395 -5.999928,-2.152799 l -0.337732,-0.319416 v -1.220546 c 0,-0.671302 0.01894,-1.220542 0.04294,-1.220542 0.02397,0 0.314474,0.139456 0.646388,0.309834 1.423592,0.730908 3.020156,1.184011 5.017745,1.424032 0.450884,0.05421 0.940901,0.11368 1.088927,0.132275 l 0.269133,0.03368 -0.01702,1.525211 c -0.01894,1.749948 0.06003,1.58379 -0.710536,1.488213 z m -0.378386,-4.12993 c -2.58652,-0.347023 -4.526192,-1.07545 -5.659746,-2.12545 l -0.299524,-0.27747 V 30.9857 c 0,-0.681845 0.0078,-1.239716 0.01874,-1.239716 0.01001,0 0.343631,0.164738 0.74097,0.366037 1.404042,0.711405 3.166552,1.186417 5.325032,1.435129 0.485094,0.05591 0.903658,0.114986 0.930152,0.131383 0.02641,0.01648 0.0482,0.709155 0.0482,1.539515 v 1.509748 l -0.236445,-0.0076 c -0.130066,-0.0042 -0.520256,-0.04564 -0.867091,-0.0921 z M 34.286318,30.528531 C 31.804974,30.192324 29.806557,29.424828 28.732286,28.395493 L 28.453161,28.12802 v -0.799075 -0.79908 h 3.531427 3.531432 v 2.049488 2.049498 l -0.299518,-0.0074 c -0.164738,-0.0042 -0.583321,-0.04585 -0.930164,-0.09288 z M 26.441201,25.607345 C 26.150395,25.276986 25.882277,24.76182 25.854659,24.480374 l -0.01876,-0.189163 h 6.14847 6.148479 l -0.01874,0.189163 c -0.0277,0.281461 -0.295763,0.796612 -0.586537,1.126974 l -0.256963,0.291894 h -5.286102 -5.286422 z m -5.933796,-2.577386 v -0.851323 h 11.47715 11.477147 v 0.851323 0.851333 H 31.98457 20.507427 Z m -1.080381,0.296756 c -0.481684,-0.349371 -1.966884,-1.441029 -3.5684,-2.622871 l -0.26608,-0.196336 -4.39e-4,-5.738575 -4.53e-4,-5.7385773 2.186011,-1.6080614 c 1.2023,-0.8844338 2.209021,-1.6175219 2.23716,-1.6290847 0.02817,-0.011374 0.05125,0.3294443 0.05125,0.7577819 V 7.3297959 L 18.01534,8.1106028 c -1.127856,0.4294433 -2.042261,0.7892005 -2.031986,0.7994635 0.0095,0.01023 0.911757,-0.2209856 2.003339,-0.5138188 1.091584,-0.2928706 2.005985,-0.5324858 2.031996,-0.5325089 0.02609,-1.87e-5 0.04723,3.1073174 0.04723,6.9051794 0,3.797864 -0.02223,6.905205 -0.04942,6.905205 -0.04771,0 -0.890807,-0.221688 -2.902155,-0.763212 -0.530833,-0.142925 -0.975614,-0.24939 -0.988416,-0.236572 -0.01211,0.01237 0.868466,0.363077 1.958366,0.778418 l 1.981611,0.755157 v 0.77363 c 0,0.425506 -0.01113,0.773623 -0.02397,0.773623 -0.01346,0 -0.289957,-0.192776 -0.614855,-0.428441 z m 24.476145,-0.326071 c 0,-0.679709 0.01251,-0.760947 0.121095,-0.819369 0.06657,-0.03566 0.797357,-0.321685 1.623816,-0.635613 1.845679,-0.701044 2.277518,-0.873533 2.196328,-0.877242 -0.03425,-0.0015 -0.9133,0.224053 -1.952461,0.501411 -1.039181,0.277378 -1.911782,0.504291 -1.939148,0.504291 -0.02663,0 -0.05054,-3.107337 -0.05054,-6.905205 0,-3.797864 0.02067,-6.9052114 0.04948,-6.9052114 0.02609,0 0.898339,0.2273997 1.936742,0.5052883 1.038399,0.2779062 1.910095,0.4978347 1.937127,0.4887168 C 47.851693,8.8485807 46.9811,8.5015758 45.88886,8.086537 L 43.903132,7.3319569 V 6.5520696 c 0,-0.4289269 0.02391,-0.7704252 0.05218,-0.75886 0.02825,0.011616 1.035672,0.7446473 2.237837,1.6290799 l 2.185734,1.6080607 7.86e-4,5.7295038 7.86e-4,5.729493 -0.150034,0.118024 c -0.349475,0.27489 -4.272939,3.147798 -4.298877,3.147798 -0.0142,0 -0.0277,-0.339528 -0.0277,-0.75452 z M 20.507455,14.768933 V 7.8637276 h 11.477148 11.477148 v 6.9052054 6.90521 H 31.984603 20.507455 Z m 0,-8.261026 V 5.6565825 H 31.984603 43.461751 V 6.507907 7.3592388 H 31.984603 20.507455 Z M 28.327051,4.7421957 V 4.206174 h 3.657552 3.657552 v 0.5360177 0.5360217 h -3.657552 -3.657556 z"
       id="path1-7" />
  </g>
</svg>
