<?xml version="1.0" encoding="UTF-8" standalone="no"?>
<svg
   width="64"
   height="64"
   version="1.1"
   id="svg73"
   sodipodi:docname="steam_icon_2344520.svg"
   inkscape:version="1.4.2 (ebf0e940d0, 2025-05-08)"
   xmlns:inkscape="http://www.inkscape.org/namespaces/inkscape"
   xmlns:sodipodi="http://sodipodi.sourceforge.net/DTD/sodipodi-0.dtd"
   xmlns="http://www.w3.org/2000/svg"
   xmlns:svg="http://www.w3.org/2000/svg"
   xmlns:rdf="http://www.w3.org/1999/02/22-rdf-syntax-ns#"
   xmlns:cc="http://creativecommons.org/ns#"
   xmlns:dc="http://purl.org/dc/elements/1.1/">
  <metadata
     id="metadata77">
    <rdf:RDF>
      <cc:Work
         rdf:about="">
        <dc:format>image/svg+xml</dc:format>
        <dc:type
           rdf:resource="http://purl.org/dc/dcmitype/StillImage" />
      </cc:Work>
    </rdf:RDF>
  </metadata>
  <sodipodi:namedview
     pagecolor="#f5f7fa"
     bordercolor="#666666"
     borderopacity="1"
     objecttolerance="10"
     gridtolerance="10"
     guidetolerance="10"
     inkscape:pageopacity="0"
     inkscape:pageshadow="2"
     inkscape:window-width="1377"
     inkscape:window-height="886"
     id="namedview75"
     showgrid="false"
     inkscape:zoom="6.2890624"
     inkscape:cx="47.622361"
     inkscape:cy="45.396274"
     inkscape:window-x="147"
     inkscape:window-y="75"
     inkscape:window-maximized="0"
     inkscape:current-layer="g877"
     inkscape:document-rotation="0"
     inkscape:pagecheckerboard="0"
     inkscape:showpageshadow="2"
     inkscape:deskcolor="#d1d1d1" />
  <defs
     id="defs29" />
  <circle
     cx="32.516094"
     cy="31.877844"
     r="0"
     fill="url(#b)"
     stroke-width="1.5715"
     id="circle41"
     style="fill:url(#b)" />
  <g
     aria-label="GZ"
     transform="matrix(1.2212657,0,0,0.81882264,0.4960938,-0.1661539)"
     id="text93"
     style="font-weight:bold;font-size:11.5263px;line-height:1.25;font-family:sans-serif;-inkscape-font-specification:'sans-serif Bold';fill:#f2f2f2;stroke-width:0.288159" />
  <g
     id="g877"
     transform="matrix(1.1,0,0,1.1,-3.1845928,-3.2065454)">
    <path
       fill="#000000"
       d="M 18.680188,4.5655805 C 13.180298,7.0975317 9.5509826,11.16848 9.5509826,15.734474 c 0,3.005254 1.5446354,5.788126 4.1689034,8.061552 -1.342524,2.923304 -2.18574,6.205024 -2.395219,9.692776 1.979015,0.06466 3.859283,0.483972 5.546877,1.346639 4.784187,2.44587 7.030619,7.705196 6.651234,13.937739 0.87083,0.210669 1.75921,0.38609 2.661286,0.527204 0.102806,-1.92907 0.09569,-3.852117 -0.057,-5.769021 l 2.144316,-0.170901 c 0.165639,2.075878 0.168705,4.145207 0.0527,6.208272 0.923357,0.08746 1.857733,0.139118 2.799483,0.159279 v -6.472724 h 2.150821 v 6.460525 c 0.901244,-0.02876 1.806258,-0.08721 2.71231,-0.174109 -0.114212,-2.053944 -0.110473,-4.11424 0.05421,-6.180859 l 2.144318,0.170797 c -0.152417,1.910309 -0.159762,3.82669 -0.05769,5.749209 0.841042,-0.123117 1.680432,-0.271025 2.516459,-0.442446 -0.399192,-6.260771 1.846041,-11.548216 6.64658,-14.002461 1.687381,-0.862909 3.567859,-1.282479 5.546637,-1.346904 -0.211953,-3.535413 -1.075351,-6.85922 -2.449757,-9.812448 2.54141,-2.251339 4.033559,-4.989119 4.033559,-7.941869 0,-4.565986 -3.629342,-8.637052 -9.129244,-11.1686684 1.502597,1.9068511 2.427668,4.1915743 2.427668,6.6040614 0,4.91336 -3.626783,9.163509 -8.865626,11.181443 l -0.706677,-1.64592 c 1.283105,-0.511038 2.443886,-1.173659 3.438694,-1.952539 1.162514,-0.909865 2.095047,-1.966707 2.752005,-3.125415 -3.435659,-2.915813 -7.670413,-4.636546 -12.256687,-4.636546 -4.643092,0 -8.926362,1.762636 -12.384673,4.744739 0.653073,1.116468 1.563991,2.135672 2.690095,3.017222 1.113021,0.871299 2.433782,1.597222 3.901187,2.128191 l -0.704987,1.641776 c -5.487622,-1.940939 -9.329978,-6.295487 -9.329978,-11.352944 0,-2.4124875 0.925161,-4.69721 2.427781,-6.6040643 z m 1.183945,21.0779515 c 0.0076,-4.87e-4 0.01045,4.8e-4 0.01251,0.01056 2.119448,2.687498 5.977125,4.569045 10.483929,4.967848 -0.678128,2.267234 -3.10652,3.974384 -6.062235,3.974384 -3.477192,0 -6.347541,-2.369206 -6.347541,-5.239 2.12e-4,-1.434685 0.714203,-2.762007 1.854229,-3.703078 0.01045,0.01045 0.03803,-0.0076 0.05673,-0.01045 z M 44.227,25.643735 c 0.009,-3.59e-4 0.009,7.86e-4 0.01406,0.01045 1.140285,0.940936 1.854451,2.268265 1.854451,3.703069 0,2.86946 -2.870244,5.238769 -6.347725,5.238769 -2.955741,0 -5.383906,-1.706921 -6.062276,-3.974398 4.507089,-0.398932 8.364909,-2.280456 10.4843,-4.967652 0.009,0.01045 0.0375,-0.0076 0.0554,-0.01045 z m -12.152213,5.082096 c 0.647428,3.155995 1.603078,6.312046 3.787906,9.468041 -2.333507,0.625281 -5.158512,0.647706 -7.575834,0 2.068085,-3.155995 3.088566,-6.312046 3.787928,-9.468041 z m -8.783235,20.204553 c -0.269347,1.772502 -0.738138,3.602608 -1.40997,5.45245 1.011247,0.660705 2.076078,1.225279 3.183987,1.684706 0.417494,-2.212747 0.752387,-4.417049 0.95875,-6.612982 -0.923048,-0.140525 -1.835108,-0.314692 -2.732891,-0.524041 z m 17.587443,0.0554 c -0.860968,0.172972 -1.725955,0.323064 -2.592774,0.44753 0.204588,2.183653 0.535832,4.375509 0.949363,6.575629 1.057987,-0.448557 2.075826,-0.993317 3.044595,-1.62593 -0.664768,-1.831033 -1.130724,-3.6425 -1.401184,-5.397623 z m -4.729916,0.703826 c -0.959362,0.09213 -1.918469,0.152209 -2.874619,0.182016 v 7.561405 c 1.340223,-0.08855 2.64795,-0.323498 3.910284,-0.692221 -0.448669,-2.341169 -0.812384,-4.69187 -1.035665,-7.051284 z m -7.988149,0.02671 c -0.224947,2.364355 -0.590451,4.719535 -1.040812,7.065585 1.292187,0.36606 2.631163,0.592357 4.003477,0.66443 V 51.88301 C 30.128918,51.8635 29.139989,51.80863 28.16093,51.716943 Z"
       id="path1-4"
       style="fill:#dfdfdf;fill-opacity:1;stroke:none;stroke-width:0.814044;stroke-dasharray:none;stroke-opacity:0.6" />
  </g>
</svg>
