<?xml version="1.0" encoding="UTF-8" standalone="no"?>
<svg
   width="64"
   height="64"
   version="1.1"
   id="svg73"
   sodipodi:docname="steam_icon_1096530.svg"
   inkscape:version="1.4.2 (ebf0e940d0, 2025-05-08)"
   xmlns:inkscape="http://www.inkscape.org/namespaces/inkscape"
   xmlns:sodipodi="http://sodipodi.sourceforge.net/DTD/sodipodi-0.dtd"
   xmlns="http://www.w3.org/2000/svg"
   xmlns:svg="http://www.w3.org/2000/svg"
   xmlns:rdf="http://www.w3.org/1999/02/22-rdf-syntax-ns#"
   xmlns:cc="http://creativecommons.org/ns#"
   xmlns:dc="http://purl.org/dc/elements/1.1/">
  <metadata
     id="metadata77">
    <rdf:RDF>
      <cc:Work
         rdf:about="">
        <dc:format>image/svg+xml</dc:format>
        <dc:type
           rdf:resource="http://purl.org/dc/dcmitype/StillImage" />
      </cc:Work>
    </rdf:RDF>
  </metadata>
  <sodipodi:namedview
     pagecolor="#f5f7fa"
     bordercolor="#666666"
     borderopacity="1"
     objecttolerance="10"
     gridtolerance="10"
     guidetolerance="10"
     inkscape:pageopacity="0"
     inkscape:pageshadow="2"
     inkscape:window-width="1377"
     inkscape:window-height="886"
     id="namedview75"
     showgrid="false"
     inkscape:zoom="6.2890624"
     inkscape:cx="47.622361"
     inkscape:cy="45.396274"
     inkscape:window-x="147"
     inkscape:window-y="75"
     inkscape:window-maximized="0"
     inkscape:current-layer="g877"
     inkscape:document-rotation="0"
     inkscape:pagecheckerboard="0"
     inkscape:showpageshadow="2"
     inkscape:deskcolor="#d1d1d1" />
  <defs
     id="defs29" />
  <circle
     cx="32.516094"
     cy="31.877844"
     r="0"
     fill="url(#b)"
     stroke-width="1.5715"
     id="circle41"
     style="fill:url(#b)" />
  <g
     aria-label="GZ"
     transform="matrix(1.2212657,0,0,0.81882264,0.4960938,-0.1661539)"
     id="text93"
     style="font-weight:bold;font-size:11.5263px;line-height:1.25;font-family:sans-serif;-inkscape-font-specification:'sans-serif Bold';fill:#f2f2f2;stroke-width:0.288159" />
  <g
     id="g877"
     transform="matrix(1.1,0,0,1.1,-3.1845928,-3.2065454)">
    <path
       style="fill:#dfdfdf;fill-opacity:1;stroke:none;stroke-width:0.820405;stroke-dasharray:none;stroke-opacity:0.6"
       d="m 26.910614,59.314324 0.774154,-0.82405 -1.996584,-0.40552 C 21.180059,57.169176 16.824332,54.703498 12.782213,50.779006 11.459085,49.494392 10.074196,48.469007 9.4886311,48.340393 8.0978626,48.034872 8.2172082,47.489017 9.6747544,47.489017 c 0.6581136,0 1.1965636,-0.0739 1.1965636,-0.164117 0,-0.09018 -0.602406,-0.959901 -1.3386847,-1.932714 C 6.2266122,41.024209 4.7239149,36.205589 4.7054779,29.913195 4.6965602,26.975736 4.5520442,25.532661 4.2047783,24.925238 3.6396743,23.936685 3.5762934,23.557749 3.9760619,23.557749 c 0.1562355,0 0.4899359,0.384604 0.7415187,0.854675 0.2515884,0.47009 0.5544826,0.854701 0.673114,0.854701 0.1186405,0 0.3999292,-0.891908 0.625086,-1.982014 0.8315253,-4.025851 3.4547159,-8.425973 7.5421464,-12.65115 0.964572,-0.9970601 1.84827,-2.1893391 1.963764,-2.6495175 0.115446,-0.4601469 0.336397,-0.8366517 0.490929,-0.8366517 0.154511,0 0.13786,0.4989665 -0.03715,1.1088269 -0.552847,1.9277343 -0.403777,2.0597093 1.134978,1.0048258 2.330565,-1.5976627 4.795289,-2.7287139 7.9188,-3.633881 1.603496,-0.4646597 3.366076,-1.077878 3.916846,-1.3626907 0.953162,-0.4929212 0.992827,-0.4850936 0.82355,0.1623101 -0.09786,0.374055 -0.31312,0.7636786 -0.478458,0.8658528 -0.822772,0.5084944 -0.0516,0.6547858 2.348912,0.4455756 4.735294,-0.4126626 7.562476,0.148473 12.221996,2.4253401 4.049578,1.9789366 7.99128,4.8326016 9.179008,6.6452896 0.343447,0.524213 1.02334,0.940572 1.762154,1.079156 1.763594,0.330864 1.932221,0.941396 0.214744,0.777624 -0.776891,-0.0741 -1.412504,-0.104379 -1.412504,-0.06718 0,0.03715 0.771428,1.311236 1.7143,2.831461 1.15616,1.864093 2.004904,3.793008 2.606843,5.924404 0.571106,2.022295 1.207917,3.498909 1.768379,4.100515 0.932112,1.000519 0.638106,1.275389 -0.468728,0.438224 -0.36509,-0.276083 -0.779005,-0.506839 -0.920027,-0.512811 -0.141038,-0.0051 -0.259113,1.489102 -0.262324,3.322402 -0.01237,6.77687 -2.00338,11.877431 -6.81789,17.46337 -1.51227,1.754583 -2.842982,3.562244 -2.957107,4.017024 -0.232297,0.925299 -0.817171,1.126092 -0.817171,0.280441 0,-0.460652 -0.17432,-0.430058 -1.111079,0.194607 -4.224327,2.817535 -9.593194,4.454173 -14.611689,4.454173 -1.680287,0 -3.240625,0.20056 -3.987719,0.512736 -1.644813,0.687247 -1.736488,0.652884 -0.830725,-0.311294 z m 8.746568,-7.551636 c 2.922832,-0.611558 7.313178,-2.74659 9.443264,-4.592276 2.191909,-1.899249 4.591294,-5.541174 5.651248,-8.577815 3.6868,-10.562189 -2.033994,-22.324205 -12.52446,-25.750418 -3.611568,-1.179544 -6.11373,-1.380132 -9.568958,-0.767085 -7.329914,1.300508 -13.276222,6.50749 -15.620206,13.678126 -0.758479,2.320343 -0.904724,3.39027 -0.914876,6.693368 -0.01078,3.407831 0.104478,4.238554 0.86297,6.23629 1.940975,5.112235 5.220999,8.913653 9.740075,11.288347 4.222615,2.218919 8.232695,2.774474 12.930943,1.791463 z M 26.426587,47.68966 c -1.128188,-0.259403 -2.5897,-0.611786 -3.247806,-0.783126 L 21.982218,46.595032 21.680914,43.815924 C 21.329709,40.576617 21.4817,39.96781 22.641763,39.96781 c 0.918364,0 1.065465,0.129746 2.563575,2.262288 1.998838,2.845215 6.088916,3.797662 9.408202,2.190818 1.801577,-0.872166 2.524902,-1.784682 2.810712,-3.545907 0.399509,-2.461894 -1.551736,-4.620727 -8.21888,-9.093289 -5.153769,-3.457314 -6.7132,-5.425898 -6.707005,-8.46666 0.007,-3.37096 2.433539,-6.64662 5.764809,-7.781701 2.111931,-0.719604 6.418168,-0.647707 10.111964,0.168723 1.682911,0.372043 3.166073,0.791787 3.295915,0.932781 0.129825,0.141051 0.343601,1.602454 0.475099,3.247732 l 0.238973,2.991386 -1.312703,-0.01803 c -1.182655,-0.01786 -1.414388,-0.177662 -2.338367,-1.623888 -2.599598,-4.068976 -8.744086,-4.677787 -10.618976,-1.052131 -1.146942,2.217929 0.231026,4.276709 5.01071,7.486474 7.953964,5.341412 9.714412,7.500704 9.481135,11.629213 -0.102014,1.806222 -0.347384,2.646669 -1.156487,3.96121 -1.104528,1.794666 -3.515301,3.636198 -5.561689,4.248489 -2.03778,0.609737 -7.177342,0.710068 -9.462155,0.184881 z"
       id="path2363" />
  </g>
</svg>
