<?xml version="1.0" encoding="UTF-8" standalone="no"?>
<svg
   width="64"
   height="64"
   version="1.1"
   id="svg73"
   sodipodi:docname="steam_icon_1769830.svg"
   inkscape:version="1.4.2 (ebf0e940d0, 2025-05-08)"
   xmlns:inkscape="http://www.inkscape.org/namespaces/inkscape"
   xmlns:sodipodi="http://sodipodi.sourceforge.net/DTD/sodipodi-0.dtd"
   xmlns="http://www.w3.org/2000/svg"
   xmlns:svg="http://www.w3.org/2000/svg"
   xmlns:rdf="http://www.w3.org/1999/02/22-rdf-syntax-ns#"
   xmlns:cc="http://creativecommons.org/ns#"
   xmlns:dc="http://purl.org/dc/elements/1.1/">
  <metadata
     id="metadata77">
    <rdf:RDF>
      <cc:Work
         rdf:about="">
        <dc:format>image/svg+xml</dc:format>
        <dc:type
           rdf:resource="http://purl.org/dc/dcmitype/StillImage" />
      </cc:Work>
    </rdf:RDF>
  </metadata>
  <sodipodi:namedview
     pagecolor="#f5f7fa"
     bordercolor="#666666"
     borderopacity="1"
     objecttolerance="10"
     gridtolerance="10"
     guidetolerance="10"
     inkscape:pageopacity="0"
     inkscape:pageshadow="2"
     inkscape:window-width="1377"
     inkscape:window-height="886"
     id="namedview75"
     showgrid="false"
     inkscape:zoom="6.2890624"
     inkscape:cx="47.622361"
     inkscape:cy="45.396274"
     inkscape:window-x="147"
     inkscape:window-y="75"
     inkscape:window-maximized="0"
     inkscape:current-layer="g877"
     inkscape:document-rotation="0"
     inkscape:pagecheckerboard="0"
     inkscape:showpageshadow="2"
     inkscape:deskcolor="#d1d1d1" />
  <defs
     id="defs29" />
  <circle
     cx="32.516094"
     cy="31.877844"
     r="0"
     fill="url(#b)"
     stroke-width="1.5715"
     id="circle41"
     style="fill:url(#b)" />
  <g
     aria-label="GZ"
     transform="matrix(1.2212657,0,0,0.81882264,0.4960938,-0.1661539)"
     id="text93"
     style="font-weight:bold;font-size:11.5263px;line-height:1.25;font-family:sans-serif;-inkscape-font-specification:'sans-serif Bold';fill:#f2f2f2;stroke-width:0.288159" />
  <g
     id="g877"
     transform="matrix(1.1,0,0,1.1,-3.1845928,-3.2065454)">
    <path
       style="fill:#dfdfdf;fill-opacity:1;stroke-width:2.00543"
       d="M 17.967151,34.720331 C 11.14542,25.183348 5.0952793,16.158897 4.5223969,14.665984 3.6767354,12.462216 8.8430709,11.951599 31.985994,11.951599 c 23.142924,0 28.30926,0.510611 27.463597,2.714385 -1.834794,4.781396 -25.786778,37.394318 -27.463597,37.394318 -0.888635,0 -7.197115,-7.802991 -14.018843,-17.339971 z M 29.816969,34.512744 29.653346,22.981502 26.65367,29.865216 c -2.25389,5.172253 -2.473203,8.039207 -0.882119,11.531246 3.285405,7.210702 4.22271,5.615755 4.045384,-6.883718 z m 10.100309,2.624853 c -0.04976,-1.167916 -1.330122,-4.83083 -2.84527,-8.139795 -2.704928,-5.907341 -2.756615,-5.798381 -2.853923,6.016303 -0.09064,11.000553 0.153435,11.698726 2.845273,8.139808 1.619407,-2.141057 2.90367,-4.848388 2.85392,-6.016316 z M 23.91112,23.166754 c -1.06376,-1.086356 -3.012345,-0.799332 -4.833315,0.711942 -2.38828,1.982093 -2.570098,3.430699 -0.837034,6.668952 2.191038,4.093994 2.241111,4.086614 4.833317,-0.711939 1.532261,-2.836449 1.879648,-5.604187 0.837032,-6.668955 z m 21.833381,1.48335 c -2.069394,-2.49347 -7.742202,-3.785224 -7.742202,-1.762976 0,0.499594 1.08295,3.285173 2.406561,6.190174 2.225275,4.883955 2.600384,5.016757 4.979601,1.762976 1.896166,-2.593159 1.989823,-4.221582 0.356027,-6.190175 z M 17.684999,21.292897 c 2.649416,-3.192353 1.012027,-5.330429 -4.082158,-5.330429 -4.0689833,0 -4.212046,0.282118 -2.459349,4.84957 1.489088,3.880508 3.591769,4.035072 6.541507,0.480859 z m 35.143494,-0.480861 c 1.795724,-4.679556 1.66263,-4.849571 -3.796307,-4.849571 -5.474045,0 -6.345434,1.876845 -2.607054,5.615217 3.234541,3.23455 4.946911,3.029801 6.403361,-0.765646 z"
       id="path1-3" />
  </g>
</svg>
