<?xml version="1.0" encoding="UTF-8" standalone="no"?>
<svg
   width="64"
   height="64"
   version="1.1"
   id="svg73"
   sodipodi:docname="steam_icon_529340.svg"
   inkscape:version="1.4.2 (ebf0e940d0, 2025-05-08)"
   xmlns:inkscape="http://www.inkscape.org/namespaces/inkscape"
   xmlns:sodipodi="http://sodipodi.sourceforge.net/DTD/sodipodi-0.dtd"
   xmlns="http://www.w3.org/2000/svg"
   xmlns:svg="http://www.w3.org/2000/svg"
   xmlns:rdf="http://www.w3.org/1999/02/22-rdf-syntax-ns#"
   xmlns:cc="http://creativecommons.org/ns#"
   xmlns:dc="http://purl.org/dc/elements/1.1/">
  <metadata
     id="metadata77">
    <rdf:RDF>
      <cc:Work
         rdf:about="">
        <dc:format>image/svg+xml</dc:format>
        <dc:type
           rdf:resource="http://purl.org/dc/dcmitype/StillImage" />
      </cc:Work>
    </rdf:RDF>
  </metadata>
  <sodipodi:namedview
     pagecolor="#f5f7fa"
     bordercolor="#666666"
     borderopacity="1"
     objecttolerance="10"
     gridtolerance="10"
     guidetolerance="10"
     inkscape:pageopacity="0"
     inkscape:pageshadow="2"
     inkscape:window-width="1377"
     inkscape:window-height="886"
     id="namedview75"
     showgrid="false"
     inkscape:zoom="6.2890624"
     inkscape:cx="47.622361"
     inkscape:cy="45.396274"
     inkscape:window-x="147"
     inkscape:window-y="75"
     inkscape:window-maximized="0"
     inkscape:current-layer="g877"
     inkscape:document-rotation="0"
     inkscape:pagecheckerboard="0"
     inkscape:showpageshadow="2"
     inkscape:deskcolor="#d1d1d1" />
  <defs
     id="defs29" />
  <circle
     cx="32.516094"
     cy="31.877844"
     r="0"
     fill="url(#b)"
     stroke-width="1.5715"
     id="circle41"
     style="fill:url(#b)" />
  <g
     aria-label="GZ"
     transform="matrix(1.2212657,0,0,0.81882264,0.4960938,-0.1661539)"
     id="text93"
     style="font-weight:bold;font-size:11.5263px;line-height:1.25;font-family:sans-serif;-inkscape-font-specification:'sans-serif Bold';fill:#f2f2f2;stroke-width:0.288159" />
  <g
     id="g877"
     transform="matrix(1.1,0,0,1.1,-3.1845928,-3.2065454)">
    <path
       style="fill:#dfdfdf;fill-opacity:1;stroke-width:0.0112977"
       d="m 32.179668,59.91627 c -0.331834,-0.727811 -1.060701,-2.315028 -1.065717,-2.32076 -0.0037,-0.004 -0.08806,-0.01332 -0.187463,-0.02017 -6.052806,-0.418329 -11.296156,-2.795458 -14.828029,-6.722452 -1.306628,-1.452796 -2.373916,-3.122353 -3.163288,-4.948307 -0.847388,-1.960156 -1.358012,-4.103189 -1.507443,-6.326604 -0.03195,-0.475892 -0.04272,-0.81837 -0.04434,-1.412186 -0.0017,-0.606309 0.0029,-0.710786 0.04986,-1.186238 0.170638,-1.723404 0.730738,-3.397642 1.663932,-4.973726 l 0.125421,-0.211826 h 0.975877 0.975891 l -0.02537,0.04235 c -0.541127,0.903991 -0.909141,1.771497 -1.173816,2.766983 -0.379641,1.427896 -0.510731,3.112384 -0.378337,4.861661 0.241411,3.189755 1.390684,6.2396 3.318508,8.806401 1.887301,2.512845 4.442274,4.49573 7.441638,5.775355 0.994576,0.424318 2.112669,0.790058 3.185169,1.041893 0.75025,0.17618 1.434096,0.298133 2.186796,0.390016 0.436721,0.05332 0.434956,0.05312 0.434956,0.04564 0,-0.02047 -6.391046,-13.952091 -6.47425,-14.112981 -0.05534,-0.107019 -0.159763,-0.302738 -0.232078,-0.434956 -1.302646,-2.382031 -2.520048,-3.90533 -3.602645,-4.507888 -0.227137,-0.126445 -0.505814,-0.226282 -0.718,-0.257302 -0.140173,-0.02049 -0.397537,-0.0092 -0.513425,0.02237 -0.153499,0.04191 -0.330021,0.133644 -0.420473,0.218556 -0.04139,0.03883 -0.03705,0.04434 -0.06989,-0.08823 -0.04629,-0.186898 -0.06266,-0.339546 -0.06234,-0.58182 4.88e-4,-0.401187 0.06385,-0.688913 0.226043,-1.026597 0.287286,-0.598224 0.780993,-1.004496 1.377322,-1.133411 0.132861,-0.02871 0.448411,-0.03992 0.597272,-0.02119 0.05927,0.0075 0.164506,0.02846 0.233903,0.04667 0.167839,0.04404 0.316935,0.107558 0.482523,0.205588 l 0.03709,0.02196 -0.02924,-0.06608 c -0.136,-0.307764 -0.429183,-0.628213 -0.746045,-0.81546 -0.147779,-0.08733 -0.358495,-0.148811 -0.510102,-0.148811 h -0.0767 l -2.21377,-4.928532 C 16.231523,25.205483 15.18018,22.870711 15.112776,22.727802 14.853119,22.17725 14.508886,21.52092 14.206186,20.999279 12.968499,18.866384 11.541712,17.290675 10.037438,16.395427 9.3702502,15.998362 8.6423912,15.733181 8.1558568,15.709912 c -0.080476,-0.0038 -0.1463363,-0.01125 -0.1463363,-0.01647 0,-0.0051 0.1685464,-0.19769 0.3745478,-0.427564 l 0.3745522,-0.417945 h 9.4316935 c 5.187424,0 9.431685,0.0026 9.431685,0.0056 0,0.0032 -0.165605,0.247183 -0.367999,0.542281 l -0.368019,0.536587 h -0.120624 c -0.250883,4.37e-4 -0.658469,0.04182 -0.940971,0.09636 -0.754716,0.145635 -1.406433,0.4283 -1.94189,0.842181 -0.141769,0.109538 -0.409208,0.371981 -0.523005,0.513148 -0.337026,0.418084 -0.540031,0.881683 -0.625803,1.429132 -0.02917,0.186234 -0.02913,0.72103 2.76e-4,0.937692 0.06953,0.515645 0.228819,1.073001 0.464944,1.626841 0.03313,0.07765 1.90674,4.231198 4.163622,9.230058 2.256747,4.998869 4.112315,9.109604 4.123353,9.134971 l 0.02005,0.0461 -0.08635,0.0572 c -0.199121,0.131889 -0.510368,0.431714 -0.73213,0.705315 -1.137487,1.403388 -1.603216,3.420786 -1.336237,5.788183 0.172691,1.531413 0.660883,3.258337 1.430791,5.061287 0.08913,0.208737 1.591342,3.545988 1.624776,3.609544 l 0.01497,0.02827 0.01101,-0.02827 c 0.0064,-0.01547 2.782965,-6.533054 6.170796,-14.483392 3.387834,-7.950337 6.162129,-14.46636 6.165103,-14.480055 0.01611,-0.07411 -0.602382,-1.121931 -1.005599,-1.703621 -0.523909,-0.755795 -0.997463,-1.323691 -1.64001,-1.966726 -0.359896,-0.360171 -0.556364,-0.542015 -0.859297,-0.795344 -1.914767,-1.601241 -4.194454,-2.551388 -6.654224,-2.773396 -0.696905,-0.06289 -1.501916,-0.06703 -2.217869,-0.01137 -1.265247,0.09835 -2.556678,0.384654 -3.770687,0.83592 l -0.166775,0.06201 h -0.506458 c -0.278553,0 -0.506461,-0.0029 -0.506461,-0.0064 0,-0.0033 2.113005,-2.579697 4.695571,-5.725011 l 4.695546,-5.7186961 -2.670497,-0.00352 c -2.93944,-0.00374 -3.095475,-0.00121 -3.839782,0.060654 -2.8749,0.2393259 -5.627777,1.1844305 -7.915187,2.7174141 -0.648405,0.434547 -1.335728,0.983472 -1.68028,1.341931 l -0.07731,0.08042 h -0.524091 c -0.394212,0 -0.524272,-0.0033 -0.524272,-0.01332 0,-0.0074 0.982012,-1.903587 2.182248,-4.2139666 L 23.96549,4.0132905 h 0.362512 0.362508 l 9.22e-4,0.132714 c 0.0032,0.49321 0.327926,1.0789818 0.791542,1.4274389 0.494565,0.3717217 1.24475,0.608215 2.269249,0.7153678 0.58058,0.060718 -0.20871,0.05618 10.385231,0.059871 5.357699,0.0023 9.741273,0.00617 9.741273,0.010043 0,0.00339 -2.193565,2.5132015 -4.87459,5.5773508 -2.681005,3.064147 -4.873431,5.572305 -4.872031,5.573676 0.0014,0.0014 0.106755,0.0158 0.234138,0.03204 2.466554,0.314575 4.816965,1.146662 6.970557,2.467712 0.270945,0.16619 0.793476,0.512045 1.029538,0.681411 l 0.165287,0.118568 0.007,-0.05749 c 0.01125,-0.09387 0.0077,-0.604013 -0.0046,-0.760178 -0.0821,-0.996681 -0.4477,-1.855233 -1.112771,-2.613105 -0.652561,-0.743525 -1.603973,-1.321385 -2.583693,-1.569169 l -0.166562,-0.04211 0.415115,-0.459628 0.415121,-0.459613 6.234606,-1e-5 c 5.894291,-3e-6 6.23419,0.0011 6.227142,0.01952 -0.01406,0.03632 -0.619225,1.00289 -0.636928,1.017094 -0.0099,0.0077 -0.03236,0.0142 -0.05037,0.0142 -0.09958,0 -0.45345,0.09298 -0.697243,0.183222 -1.397715,0.517325 -2.799197,1.77821 -3.920638,3.527313 -0.375685,0.58595 -0.774088,1.316033 -1.076195,1.972124 -0.15398,0.334404 -15.271071,33.800717 -15.301635,33.87485 -0.03083,0.07478 -0.915492,2.032514 -0.990719,2.192421 -0.02629,0.05591 -0.275629,0.606257 -0.554053,1.222965 -0.27842,0.616693 -0.509356,1.121241 -0.513198,1.121215 -0.0036,0 -0.0226,-0.03435 -0.0417,-0.07623 z m 2.529042,-2.383722 c 0.0064,-0.02093 1.078385,-2.387383 1.084417,-2.393416 0.0022,-0.0016 0.0871,-0.02969 0.189222,-0.06171 1.559515,-0.488758 3.052082,-1.313131 4.394509,-2.427173 0.355213,-0.294778 0.597998,-0.518379 1.006143,-0.926645 0.412131,-0.412244 0.640985,-0.661428 0.970891,-1.057098 2.539042,-3.045239 4.148274,-7.231658 4.575032,-11.901924 0.07853,-0.859603 0.113268,-1.650153 0.113365,-2.581477 9.23e-4,-1.364414 -0.08637,-2.542412 -0.282586,-3.846803 -0.04209,-0.279862 -0.152274,-0.919207 -0.178554,-1.03623 -0.01023,-0.04528 0.02114,-0.11593 1.636059,-3.691026 0.905545,-2.004665 1.649166,-3.647579 1.652509,-3.650913 0.0076,-0.0076 0.231845,0.26753 0.463287,0.568217 1.027408,1.334827 1.900214,2.849311 2.54438,4.41499 1.125172,2.734791 1.609279,5.665022 1.440011,8.716087 -0.267418,4.819966 -2.097912,9.282565 -5.268938,12.845265 -0.539474,0.606108 -1.218833,1.278874 -1.842257,1.824411 -1.71367,1.499531 -3.679402,2.721079 -5.812568,3.612024 -1.989413,0.83091 -4.103768,1.36162 -6.312425,1.584438 -0.34885,0.0352 -0.380449,0.03596 -0.372501,0.0086 z"
       id="path1-3" />
  </g>
</svg>
