<?xml version="1.0" encoding="UTF-8" standalone="no"?>
<svg
   width="64"
   height="64"
   version="1.1"
   id="svg73"
   sodipodi:docname="steam_icon_457140.svg"
   inkscape:version="1.4.2 (ebf0e940d0, 2025-05-08)"
   xmlns:inkscape="http://www.inkscape.org/namespaces/inkscape"
   xmlns:sodipodi="http://sodipodi.sourceforge.net/DTD/sodipodi-0.dtd"
   xmlns="http://www.w3.org/2000/svg"
   xmlns:svg="http://www.w3.org/2000/svg"
   xmlns:rdf="http://www.w3.org/1999/02/22-rdf-syntax-ns#"
   xmlns:cc="http://creativecommons.org/ns#"
   xmlns:dc="http://purl.org/dc/elements/1.1/">
  <metadata
     id="metadata77">
    <rdf:RDF>
      <cc:Work
         rdf:about="">
        <dc:format>image/svg+xml</dc:format>
        <dc:type
           rdf:resource="http://purl.org/dc/dcmitype/StillImage" />
      </cc:Work>
    </rdf:RDF>
  </metadata>
  <sodipodi:namedview
     pagecolor="#f5f7fa"
     bordercolor="#666666"
     borderopacity="1"
     objecttolerance="10"
     gridtolerance="10"
     guidetolerance="10"
     inkscape:pageopacity="0"
     inkscape:pageshadow="2"
     inkscape:window-width="1377"
     inkscape:window-height="886"
     id="namedview75"
     showgrid="false"
     inkscape:zoom="6.2890624"
     inkscape:cx="47.622361"
     inkscape:cy="45.396274"
     inkscape:window-x="147"
     inkscape:window-y="75"
     inkscape:window-maximized="0"
     inkscape:current-layer="g877"
     inkscape:document-rotation="0"
     inkscape:pagecheckerboard="0"
     inkscape:showpageshadow="2"
     inkscape:deskcolor="#d1d1d1" />
  <defs
     id="defs29" />
  <circle
     cx="32.516094"
     cy="31.877844"
     r="0"
     fill="url(#b)"
     stroke-width="1.5715"
     id="circle41"
     style="fill:url(#b)" />
  <g
     aria-label="GZ"
     transform="matrix(1.2212657,0,0,0.81882264,0.4960938,-0.1661539)"
     id="text93"
     style="font-weight:bold;font-size:11.5263px;line-height:1.25;font-family:sans-serif;-inkscape-font-specification:'sans-serif Bold';fill:#f2f2f2;stroke-width:0.288159" />
  <g
     id="g877"
     transform="matrix(1.1,0,0,1.1,-3.1845928,-3.2065454)">
    <g
       id="g3"
       transform="matrix(1.3697388,0,0,1.3697388,69.647197,-11.997848)"
       style="fill:#dfdfdf;fill-opacity:1">
      <path
         d="m -34.09649,20.99679 q -4.010413,0 -6.380203,2.989581 -2.35156,2.989581 -2.35156,8.14843 0,5.140621 2.35156,8.130202 2.36979,2.989581 6.380203,2.989581 4.010413,0 6.343745,-2.989581 2.35156,-2.989581 2.35156,-8.130202 0,-5.158849 -2.35156,-8.14843 -2.333332,-2.989581 -6.343745,-2.989581 z m 0,-2.989581 q 5.723953,0 9.151034,3.846351 3.42708,3.828122 3.42708,10.281241 0,6.434891 -3.42708,10.281242 -3.427081,3.828121 -9.151034,3.828121 -5.742183,0 -9.187492,-3.828121 -3.427081,-3.828122 -3.427081,-10.281242 0,-6.453119 3.427081,-10.281241 3.445309,-3.846351 9.187492,-3.846351 z"
         id="text1"
         style="font-size:37.3333px;opacity:1;fill:#dfdfdf;fill-opacity:1;stroke:none;stroke-width:0.3;stroke-opacity:0.5"
         aria-label="O" />
      <path
         d="m -15.623027,32.092477 h 7.3437388 v 1.770831 h -9.8749848 v -1.770831 q 1.197915,-1.239581 3.260412,-3.322911 2.072913,-2.093747 2.604162,-2.697912 1.010416,-1.135415 1.406248,-1.916664 0.40625,-0.791665 0.40625,-1.552081 0,-1.239581 -0.874999,-2.02083 -0.864582,-0.781249 -2.260413,-0.781249 -0.989582,0 -2.093747,0.34375 -1.093748,0.343749 -2.343746,1.041665 v -2.124997 q 1.270831,-0.510416 2.374996,-0.770832 1.104165,-0.260416 2.02083,-0.260416 2.416663,0 3.8541608,1.208331 1.4374978,1.208331 1.4374978,3.229162 0,0.958331 -0.3645828,1.822913 -0.3541661,0.854166 -1.3020808,2.020831 -0.260417,0.302082 -1.656248,1.749997 -1.395831,1.437498 -3.937494,4.031243 z"
         id="text2"
         style="font-size:21.3333px;opacity:1;fill:#dfdfdf;fill-opacity:1;stroke:none;stroke-width:0.3;stroke-opacity:0.5"
         aria-label="2" />
    </g>
  </g>
</svg>
