<?xml version="1.0" encoding="UTF-8" standalone="no"?>
<svg
   width="64"
   height="64"
   version="1.1"
   id="svg73"
   sodipodi:docname="steam_icon_2071280.svg"
   inkscape:version="1.4.2 (ebf0e940d0, 2025-05-08)"
   xmlns:inkscape="http://www.inkscape.org/namespaces/inkscape"
   xmlns:sodipodi="http://sodipodi.sourceforge.net/DTD/sodipodi-0.dtd"
   xmlns="http://www.w3.org/2000/svg"
   xmlns:svg="http://www.w3.org/2000/svg"
   xmlns:rdf="http://www.w3.org/1999/02/22-rdf-syntax-ns#"
   xmlns:cc="http://creativecommons.org/ns#"
   xmlns:dc="http://purl.org/dc/elements/1.1/">
  <metadata
     id="metadata77">
    <rdf:RDF>
      <cc:Work
         rdf:about="">
        <dc:format>image/svg+xml</dc:format>
        <dc:type
           rdf:resource="http://purl.org/dc/dcmitype/StillImage" />
      </cc:Work>
    </rdf:RDF>
  </metadata>
  <sodipodi:namedview
     pagecolor="#f5f7fa"
     bordercolor="#666666"
     borderopacity="1"
     objecttolerance="10"
     gridtolerance="10"
     guidetolerance="10"
     inkscape:pageopacity="0"
     inkscape:pageshadow="2"
     inkscape:window-width="1377"
     inkscape:window-height="886"
     id="namedview75"
     showgrid="false"
     inkscape:zoom="6.2890624"
     inkscape:cx="47.622361"
     inkscape:cy="45.396274"
     inkscape:window-x="147"
     inkscape:window-y="75"
     inkscape:window-maximized="0"
     inkscape:current-layer="g877"
     inkscape:document-rotation="0"
     inkscape:pagecheckerboard="0"
     inkscape:showpageshadow="2"
     inkscape:deskcolor="#d1d1d1" />
  <defs
     id="defs29" />
  <circle
     cx="32.516094"
     cy="31.877844"
     r="0"
     fill="url(#b)"
     stroke-width="1.5715"
     id="circle41"
     style="fill:url(#b)" />
  <g
     aria-label="GZ"
     transform="matrix(1.2212657,0,0,0.81882264,0.4960938,-0.1661539)"
     id="text93"
     style="font-weight:bold;font-size:11.5263px;line-height:1.25;font-family:sans-serif;-inkscape-font-specification:'sans-serif Bold';fill:#f2f2f2;stroke-width:0.288159" />
  <g
     id="g877"
     transform="matrix(1.1,0,0,1.1,-3.1845928,-3.2065454)">
    <g
       id="g6"
       transform="matrix(0.45169553,0,0,0.45169551,4.6038132,4.2537766)"
       style="fill:#dfdfdf;fill-opacity:1;stroke:none;stroke-width:1.96706;stroke-dasharray:none;stroke-opacity:0.6">
      <path
         class="st0"
         d="M 10.05,96.6 C 6.38,105.51 1.42,113.97 0,122.88 l 5.13,-0.44 c 8.1,-23.56 15.4,-39.4 31.23,-59.21 11.88,-14.84 24.77,-26.65 41.3,-36.03 8.8,-5 20.07,-10.47 30.21,-11.85 2.77,-0.38 5.58,-0.49 8.46,-0.24 C 84.93,22.3 60.07,38.95 40.21,63.91 32.1,74.09 25.05,85.4 18.57,97.32 L 30.51,99.5 25.54,97.03 43.32,94.2 C 36.72,91.87 30.2,92.65 28.11,90.14 46.41,89.31 61.45,85.36 72.01,77.69 68.08,77.14 63.55,76.65 61.19,75.52 78.88,69.54 89.11,58.79 102.09,49.25 85.22,52.79 69.61,52.21 65.09,49 c 29.77,2.21 49,-6.02 55.59,-26.77 0.57,-2.24 0.73,-4.5 0.37,-6.78 C 118.74,0.62 92.49,-4.39 83.95,7.77 82.24,10.2 79.83,12.43 77.84,15.25 L 85.97,0 c -21.88,7.39 -23.68,15.54 -35,40.09 0.9,-7.47 2.97,-14.24 5.66,-20.63 -27.34,10.55 -36.45,37.11 -37.91,59.7 -0.79,-7.88 0.67,-17.78 3.49,-28.9 -7.98,8 -13.41,17.39 -11.47,30.79 L 7.09,79.42 9.01,86.61 3.55,84.02 Z"
         id="path4"
         style="clip-rule:evenodd;fill:#dfdfdf;fill-opacity:1;fill-rule:evenodd;stroke:none;stroke-width:1.96706;stroke-dasharray:none;stroke-opacity:0.6" />
    </g>
  </g>
</svg>
