<?xml version="1.0" encoding="UTF-8" standalone="no"?>
<svg
   width="64"
   height="64"
   version="1.1"
   id="svg73"
   sodipodi:docname="steam_icon_2186680.svg"
   inkscape:version="1.4.2 (ebf0e940d0, 2025-05-08)"
   xmlns:inkscape="http://www.inkscape.org/namespaces/inkscape"
   xmlns:sodipodi="http://sodipodi.sourceforge.net/DTD/sodipodi-0.dtd"
   xmlns="http://www.w3.org/2000/svg"
   xmlns:svg="http://www.w3.org/2000/svg"
   xmlns:rdf="http://www.w3.org/1999/02/22-rdf-syntax-ns#"
   xmlns:cc="http://creativecommons.org/ns#"
   xmlns:dc="http://purl.org/dc/elements/1.1/">
  <metadata
     id="metadata77">
    <rdf:RDF>
      <cc:Work
         rdf:about="">
        <dc:format>image/svg+xml</dc:format>
        <dc:type
           rdf:resource="http://purl.org/dc/dcmitype/StillImage" />
      </cc:Work>
    </rdf:RDF>
  </metadata>
  <sodipodi:namedview
     pagecolor="#f5f7fa"
     bordercolor="#666666"
     borderopacity="1"
     objecttolerance="10"
     gridtolerance="10"
     guidetolerance="10"
     inkscape:pageopacity="0"
     inkscape:pageshadow="2"
     inkscape:window-width="1377"
     inkscape:window-height="886"
     id="namedview75"
     showgrid="false"
     inkscape:zoom="6.2890624"
     inkscape:cx="47.622361"
     inkscape:cy="45.396274"
     inkscape:window-x="147"
     inkscape:window-y="75"
     inkscape:window-maximized="0"
     inkscape:current-layer="g877"
     inkscape:document-rotation="0"
     inkscape:pagecheckerboard="0"
     inkscape:showpageshadow="2"
     inkscape:deskcolor="#d1d1d1" />
  <defs
     id="defs29" />
  <circle
     cx="32.516094"
     cy="31.877844"
     r="0"
     fill="url(#b)"
     stroke-width="1.5715"
     id="circle41"
     style="fill:url(#b)" />
  <g
     aria-label="GZ"
     transform="matrix(1.2212657,0,0,0.81882264,0.4960938,-0.1661539)"
     id="text93"
     style="font-weight:bold;font-size:11.5263px;line-height:1.25;font-family:sans-serif;-inkscape-font-specification:'sans-serif Bold';fill:#f2f2f2;stroke-width:0.288159" />
  <g
     id="g877"
     transform="matrix(1.1,0,0,1.1,-3.1845928,-3.2065454)">
    <path
       style="fill:#dfdfdf;fill-opacity:1;stroke:none;stroke-width:0.814044;stroke-dasharray:none;stroke-opacity:0.6"
       d="m 24.5878,57.239458 c -0.18432,-4.494615 -0.194007,-4.428161 0.633729,-4.356284 l 0.37869,0.03238 -0.03049,3.267781 c -0.03194,3.422472 -0.06323,3.611799 -0.596555,3.611799 -0.277213,0 -0.281782,-0.03033 -0.385369,-2.556171 z m 4.177207,2.105351 c -0.245145,-0.245086 -0.246389,-0.419693 -0.01137,-1.58693 0.102861,-0.510817 0.265798,-1.7083 0.362111,-2.661203 0.202681,-2.005297 0.358399,-2.369985 1.012119,-2.369985 0.771184,0 1.016925,0.677204 0.710004,1.956581 -0.06665,0.277804 -0.268821,1.326378 -0.449331,2.330387 -0.388708,2.161868 -0.542576,2.529517 -1.058745,2.529517 -0.201529,0 -0.455691,-0.08918 -0.564794,-0.198335 z m 9.948385,0.103455 c -0.08006,-0.05368 -0.202742,-0.858384 -0.283733,-1.861754 -0.07843,-0.971958 -0.199581,-1.965662 -0.269169,-2.208191 -0.182945,-0.637669 -0.155351,-1.707208 0.05723,-2.21594 0.211881,-0.50707 0.629132,-0.715026 1.05004,-0.523248 0.360893,0.164437 0.466015,0.571594 0.342633,1.327213 -0.147507,0.903319 -0.1806,1.31215 -0.282693,3.492554 -0.07703,1.644795 -0.129532,2.024352 -0.283872,2.051095 -0.104159,0.01786 -0.25284,-0.01034 -0.330434,-0.06151 z M 26.933535,59.046035 c -0.27182,-0.271846 -0.275676,-0.345458 -0.318622,-6.084781 -0.0053,-0.769439 0.21253,-0.993481 0.775178,-0.795596 0.554329,0.194946 0.60504,0.554329 0.429699,3.045321 -0.301474,4.282856 -0.327184,4.394137 -0.886255,3.835056 z m 7.139414,-0.03904 c -0.24949,-0.3939 -0.854857,-3.635441 -0.872075,-4.669751 -0.01611,-0.975501 0.279278,-1.547115 0.799816,-1.547115 0.250259,0 0.328796,0.113704 0.523482,0.757372 0.125939,0.416507 0.256209,1.041397 0.289408,1.388548 0.03318,0.347101 0.157203,1.353289 0.27564,2.235906 0.20762,1.547815 0.207,1.61392 -0.01736,1.861924 -0.30842,0.34079 -0.773863,0.328205 -0.99883,-0.02671 z m 2.380453,0.153482 c -0.04432,-0.072 -0.135049,-1.165398 -0.201512,-2.430061 -0.06646,-1.264677 -0.152692,-2.599247 -0.191644,-2.965733 -0.08958,-0.842957 0.08164,-1.091063 0.685258,-0.993095 0.817699,0.132806 0.949258,0.520933 0.609219,1.797915 -0.122824,0.461245 -0.153289,1.144337 -0.10769,2.41292 0.06057,1.682693 0.05042,1.782725 -0.205873,2.039002 -0.297219,0.297225 -0.465372,0.337033 -0.587766,0.138957 z m 4.052303,-0.658362 c -0.03186,-0.156235 -0.09389,-0.539643 -0.138093,-0.852067 -0.0442,-0.312478 -0.128801,-0.852058 -0.18795,-1.199201 -0.05915,-0.347053 -0.111562,-1.08558 -0.116329,-1.640993 -0.0068,-0.798694 0.04365,-1.096509 0.244008,-1.42434 0.258644,-0.424157 0.573414,-0.630866 0.726972,-0.477324 0.09792,0.09794 0.06507,3.269375 -0.05033,4.836515 -0.05592,0.757421 -0.123544,1.041414 -0.24863,1.041414 -0.09459,0 -0.197964,-0.127842 -0.229669,-0.284023 z M 22.915247,55.789484 c 0.03049,-2.342271 0.05658,-2.621985 0.247722,-2.658701 0.597357,-0.11489 0.872386,1.66354 0.567599,3.670028 -0.187718,1.235679 -0.342993,1.606315 -0.672987,1.606315 -0.146525,0 -0.170672,-0.443777 -0.142355,-2.617642 z m 8.502817,-3.703597 c -0.179727,-0.213597 -0.328602,-0.483491 -0.330822,-0.599624 -0.0086,-0.46721 -0.606463,-0.905503 -1.234543,-0.905503 -0.516333,0 -0.679364,0.244416 -0.579514,0.868838 0.17223,1.076925 -0.425534,1.173546 -1.653277,0.267225 -0.47026,-0.347054 -0.931138,-0.631148 -1.024188,-0.631148 -0.20389,0 -0.493717,0.438897 -0.604197,0.915177 -0.04428,0.190881 -0.132474,0.347051 -0.195913,0.347051 -0.06345,0 -0.320252,-0.249964 -0.570664,-0.555627 -0.25041,-0.305652 -0.594556,-0.590557 -0.764772,-0.633292 -0.355204,-0.0891 -1.048516,0.165357 -1.310321,0.481023 -0.252769,0.304777 -0.385498,0.04572 -0.387911,-0.756519 -0.0029,-0.944292 0.177032,-1.328043 0.810165,-1.728601 0.64566,-0.408487 1.418064,-1.224408 1.591925,-1.681701 0.497693,-1.309032 -0.674987,-3.407736 -2.151257,-3.850049 -1.609619,-0.482201 -4.737004,1.072253 -5.586413,2.77681 l -0.304205,0.610444 -0.454252,-0.233013 c -0.730996,-0.374962 -1.982237,-1.614716 -2.632319,-2.608063 -0.635268,-0.970746 -1.2135,-2.331656 -1.559717,-3.67095 -0.200589,-0.775924 -0.199235,-0.813932 0.03776,-1.072957 0.744284,-0.813545 1.091592,-2.181053 0.994737,-3.916725 -0.08559,-1.534231 -0.408971,-2.556536 -1.165424,-3.68461 L 11.8051,31.021999 13.020454,30.166418 c 1.61039,-1.133664 3.854686,-3.356665 4.686996,-4.642506 0.876766,-1.354514 0.97642,-1.451655 1.489269,-1.451655 0.355068,0 0.578785,0.131315 1.194024,0.700935 2.566681,2.376285 5.15299,3.557707 8.680858,3.965389 0.65956,0.07616 1.296212,0.168227 1.414796,0.204445 0.326304,0.09971 1.236056,1.307163 1.236056,1.640552 0,0.479349 -1.26621,2.817037 -1.886299,3.482494 -0.694582,0.74541 -1.212667,0.93094 -1.75888,0.629869 -0.209175,-0.115313 -0.840738,-0.607257 -1.403469,-1.093251 -2.67894,-2.313616 -5.403526,-3.449186 -7.953143,-3.314747 -1.089337,0.0574 -2.263589,0.451655 -2.805127,0.941739 -0.124315,0.112457 -0.251543,0.178928 -0.282796,0.147683 -0.05066,-0.0507 0.567206,-0.571307 1.257569,-1.059467 0.236386,-0.167146 0.22233,-0.178779 -0.220906,-0.182536 -0.260348,-0.0026 -0.473363,-0.03898 -0.473363,-0.0818 0,-0.04284 0.201594,-0.35241 0.448007,-0.688074 0.516204,-0.703206 1.343894,-1.346247 2.332612,-1.812239 l 0.690738,-0.325554 -0.504915,0.0709 c -1.250566,0.175561 -3.086568,1.434673 -3.668995,2.516169 -0.131157,0.243551 -0.33451,0.442809 -0.451898,0.442809 -0.535033,0 -0.577154,0.09146 -0.411773,0.893996 0.275242,1.335644 0.338895,3.624661 0.178389,6.415074 l -0.15477,2.691414 0.274359,0.269944 0.274354,0.269899 -0.07303,-0.315612 c -0.04733,-0.204652 0.170761,-1.047904 0.620416,-2.398429 0.381387,-1.14555 0.694554,-1.940798 0.69593,-1.767235 0.0014,0.173577 -0.08293,1.16443 -0.187385,2.201911 -0.10439,1.037484 -0.146912,1.923053 -0.09439,1.967936 0.05241,0.04467 0.322708,0.216466 0.600417,0.381369 l 0.504936,0.299738 -0.322469,-0.437363 -0.322469,-0.437357 0.595388,-2.398393 c 0.32746,-1.319107 0.600387,-2.252813 0.606487,-2.074903 0.0058,0.177925 -0.07719,1.249407 -0.185046,2.381091 -0.107899,1.131675 -0.178871,2.072164 -0.157814,2.089974 0.02107,0.01786 0.512913,0.327945 1.092953,0.689159 1.234846,0.769018 2.054234,0.958114 3.615941,0.83439 1.903359,-0.150694 3.773388,-0.8502 5.426349,-2.029742 0.847388,-0.604675 1.052702,-0.930385 0.292232,-0.46359 -0.50024,0.30709 -2.631179,1.198281 -2.700167,1.129288 -0.05793,-0.05793 2.602254,-2.007593 3.651808,-2.676302 0.40556,-0.2584 0.923859,-0.547733 1.151775,-0.642966 0.3888,-0.162453 0.438271,-0.257296 0.800741,-1.535062 l 0.386336,-1.361919 0.008,0.746866 c 0.0044,0.410789 0.03674,0.718288 0.07175,0.683363 0.03496,-0.03496 0.174887,-0.569836 0.310995,-1.188676 l 0.247484,-1.125171 -0.07262,1.672562 c -0.06824,1.572902 -0.05856,1.672575 0.162364,1.672733 0.217661,9.6e-5 0.23324,-0.113861 0.211402,-1.546332 l -0.02368,-1.5465 0.212921,0.969383 c 0.277855,1.265038 0.447115,1.406475 0.350532,0.292928 l -0.07665,-0.883617 0.417601,1.441329 0.417596,1.441325 0.785243,0.416292 c 0.431878,0.228962 1.053901,0.599423 1.382263,0.823256 0.664777,0.453162 2.924737,2.106139 3.121644,2.283229 0.186565,0.167767 -1.13059,-0.352188 -2.143839,-0.846311 -0.484844,-0.236459 -0.900525,-0.410916 -0.923734,-0.387673 -0.08546,0.08546 1.580598,1.187686 2.462738,1.629257 1.481729,0.741724 2.639351,1.009921 4.391759,1.017495 1.628056,0.0074 1.857686,-0.0627 3.388727,-1.029208 l 0.496846,-0.31366 -0.08263,-1.344182 c -0.04523,-0.739304 -0.109516,-1.770217 -0.142398,-2.290918 -0.04771,-0.751053 0.03491,-0.451006 0.395545,1.451654 0.250375,1.319108 0.472957,2.418116 0.494585,2.442248 0.02107,0.02464 0.213698,-0.05901 0.426831,-0.185028 0.455542,-0.269072 0.455848,-0.273178 0.198128,-2.446593 -0.102894,-0.867831 -0.182423,-1.634682 -0.176749,-1.704111 0.0062,-0.06944 0.257259,0.837943 0.558959,2.016375 0.402836,1.573219 0.512409,2.186231 0.412345,2.306765 -0.275853,0.332362 0.01318,0.291112 0.404484,-0.05743 l 0.40259,-0.359696 -0.151323,-2.647251 c -0.159811,-2.795341 -0.08702,-5.387982 0.184153,-6.554167 0.172924,-0.743901 0.129613,-0.819552 -0.477017,-0.832657 -0.180823,-0.0038 -0.423744,-0.217997 -0.715514,-0.630718 -0.744669,-1.053097 -2.086232,-1.892547 -3.51871,-2.201723 -0.281453,-0.06073 -0.398777,-0.04789 -0.345661,0.03803 0.0442,0.0715 0.250527,0.167395 0.458573,0.213084 0.598014,0.131317 1.866045,1.048325 2.424288,1.753121 l 0.510714,0.644744 -0.49037,0.06311 -0.490424,0.06312 0.441827,0.27518 c 0.242979,0.151338 0.612185,0.457289 0.820504,0.679882 l 0.378646,0.404703 -0.557323,-0.397218 c -0.728506,-0.519391 -1.985541,-0.899514 -2.97423,-0.899514 -0.435046,0 -1.344858,0.140496 -2.021765,0.312208 -2.109812,0.535122 -3.50248,1.339654 -6.069707,3.506266 -0.733729,0.619228 -0.93417,0.725828 -1.36481,0.725828 -0.443547,0 -0.582396,-0.08038 -1.144563,-0.662717 -0.681434,-0.705876 -1.962216,-3.026659 -1.962216,-3.555584 0,-0.334506 0.911243,-1.542382 1.236057,-1.638428 0.118568,-0.03501 0.897251,-0.151065 1.730373,-0.25778 3.443435,-0.441101 5.856569,-1.561584 8.314048,-3.860441 0.664794,-0.621882 0.883767,-0.754673 1.24446,-0.754673 0.5137,0 0.613001,0.09676 1.49006,1.451656 0.833844,1.288215 3.077441,3.509413 4.695177,4.648308 l 1.223552,0.861377 -0.520421,0.762395 c -0.778585,1.140622 -1.122186,2.201417 -1.20258,3.712688 -0.09247,1.737689 0.25613,3.105833 0.998081,3.916718 0.236917,0.259033 0.238354,0.297071 0.0375,1.07297 -0.346231,1.339281 -0.924438,2.700198 -1.559718,3.67094 -0.661738,1.011173 -1.907924,2.238109 -2.666092,2.624892 l -0.485956,0.247963 -0.154995,-0.471316 c -0.379107,-1.15239 -2.582171,-2.667901 -4.307953,-2.963496 -1.068982,-0.183205 -1.692062,-0.0091 -2.441037,0.681122 -0.981644,0.904836 -1.43047,2.242872 -1.070199,3.190447 0.174233,0.458267 1.088873,1.416195 1.657128,1.735578 0.292394,0.164364 0.533419,0.418917 0.613241,0.647995 0.144931,0.415683 0.17156,1.376559 0.05034,1.827938 -0.07481,0.2794 -0.08313,0.281092 -0.246367,0.04771 -0.242004,-0.34546 -1.015277,-0.682602 -1.348541,-0.587946 -0.154384,0.04365 -0.513954,0.339703 -0.798978,0.65737 -0.285011,0.317669 -0.5768,0.541389 -0.648397,0.497155 -0.07161,-0.04365 -0.166545,-0.274212 -0.210952,-0.510971 -0.0962,-0.512772 -0.35118,-0.757615 -0.680392,-0.653119 -0.131795,0.04166 -0.567446,0.330567 -0.967978,0.64159 -0.815256,0.633067 -1.229685,0.708224 -1.513814,0.274571 -0.155509,-0.237381 -0.163282,-0.363237 -0.04216,-0.68416 0.194456,-0.51517 -0.02136,-0.792181 -0.617298,-0.792181 -0.646809,0 -0.900375,0.194162 -1.23154,0.942979 -0.271336,0.613555 -0.602521,0.950503 -0.934228,0.950503 -0.06781,0 -0.270372,-0.174745 -0.450108,-0.388403 z m -0.332287,-6.109688 c 0.199583,-0.103246 0.464589,-0.411879 0.593333,-0.691018 0.127961,-0.277447 0.261054,-0.5045 0.295772,-0.5045 0.03465,0 0.167784,0.227003 0.295786,0.5045 0.266772,0.578497 0.749613,0.877529 1.416925,0.877529 0.369439,0 0.561903,-0.09891 0.953,-0.490013 0.468839,-0.468798 0.490081,-0.525623 0.490081,-1.311298 0,-1.08303 -0.478506,-2.725025 -1.259182,-4.320822 -0.861652,-1.761444 -1.543591,-2.417848 -1.70486,-1.641122 -0.214443,1.032877 -0.226676,1.045076 -0.348139,0.347121 -0.138694,-0.797069 -0.312651,-0.837079 -0.842825,-0.193887 -1.020784,1.238384 -2.021541,3.826886 -2.123715,5.493073 l -0.06754,1.102016 0.507431,0.507429 c 0.407935,0.40798 0.598213,0.50743 0.97037,0.50743 0.254605,0 0.625231,-0.08387 0.823598,-0.186526 z m -4.40862,-11.4851 c -0.577054,-0.695305 -4.019847,-2.485759 -6.116761,-3.181071 -1.180023,-0.391284 -1.221664,-0.415909 -0.577459,-0.341456 2.55816,0.295643 5.107239,1.552213 6.559912,3.23372 0.224924,0.260359 0.381605,0.473368 0.348212,0.473368 -0.03337,0 -0.129665,-0.08305 -0.213912,-0.184544 z m 10.71638,-0.257254 c 1.483911,-1.770431 3.83414,-2.929289 6.636401,-3.272299 0.531669,-0.06506 0.430682,-0.01067 -0.640568,0.346457 -2.116345,0.705121 -5.00307,2.198652 -6.108129,3.160218 -0.201082,0.17496 -0.161406,0.09221 0.112312,-0.234376 z M 11.115015,28.965141 c 0.04179,-1.557584 0.271424,-4.098496 0.477557,-5.283832 0.436224,-2.508466 2.385525,-6.201454 4.603242,-8.72091 0.362429,-0.411734 0.634651,-0.772935 0.60493,-0.802654 -0.109021,-0.10901 -2.565379,2.433367 -3.278184,3.392988 -0.404131,0.544072 -0.734784,0.960772 -0.734784,0.926003 0,-0.2167 0.95797,-2.508978 1.489018,-3.562981 C 17.183225,9.1451588 21.876885,5.6365172 28.106251,4.5758492 28.790297,4.4594 29.36378,4.3819038 29.380657,4.4037082 c 0.506114,0.653569 2.508862,3.6124414 2.509364,3.7073373 4.54e-4,0.073315 -0.326376,0.7109113 -0.726142,1.4169551 l -0.72685,1.2837224 0.617098,1.588815 0.617089,1.588815 -0.2405,1.601653 -0.240492,1.601659 0.471726,0.983053 c 0.259439,0.540688 0.495686,0.959086 0.524975,0.929796 0.02927,-0.02927 -0.06666,-0.522874 -0.213193,-1.096853 l -0.266456,-1.043598 0.331722,-1.555918 0.331724,-1.555916 -0.5164,-1.409115 C 31.258992,10.81963 31.170451,11.186362 32.638231,9.1974418 33.116674,8.5491216 33.477042,7.952684 33.43904,7.8720111 33.401024,7.7913404 32.825491,6.9359205 32.160038,5.9710641 l -1.209916,-1.7542697 1.869361,0.072592 c 3.143918,0.1220927 5.703818,0.719689 8.198547,1.9139764 3.918713,1.8759837 6.71643,4.7296732 8.750488,8.9255982 0.650198,1.341255 1.512189,3.426559 1.34592,3.256017 -0.03033,-0.0309 -0.325014,-0.425453 -0.655366,-0.876728 -0.678442,-0.926928 -2.138274,-2.47776 -2.893453,-3.073795 -0.423283,-0.334086 -0.360047,-0.226255 0.39575,0.675405 1.274988,1.520854 2.225759,2.984406 3.075182,4.733668 0.977574,2.013188 1.198312,2.72376 1.450942,4.670543 0.201162,1.549688 0.45056,5.49042 0.355116,5.608991 -0.05841,0.0725 -1.408213,-0.87125 -2.444515,-1.709102 -1.358401,-1.098291 -3.216988,-3.105721 -3.979472,-4.298212 -0.392636,-0.614046 -0.827566,-1.279395 -0.966529,-1.478556 l -0.252689,-0.362101 0.362004,-0.307608 c 0.62496,-0.531071 2.115125,-1.187491 2.873434,-1.265758 0.874716,-0.09031 0.931543,-0.290152 0.08249,-0.290152 -1.854163,0 -3.000082,0.588478 -4.853978,2.492731 -0.760223,0.780873 -1.784001,1.69582 -2.275069,2.033213 -1.348703,0.926655 -1.613336,1.030124 -0.92821,0.362931 0.327687,-0.319099 0.803224,-0.904486 1.05678,-1.300849 0.438129,-0.684912 1.255932,-2.678194 1.144519,-2.789614 -0.02928,-0.02887 -0.209537,0.215572 -0.4014,0.543132 -0.489158,0.834551 -2.206776,2.596548 -3.405511,3.493397 -1.415243,1.05883 -3.329429,1.971613 -4.432748,2.113772 -1.140274,0.146926 -3.78631,0.143365 -4.940973,-0.0068 -1.616535,-0.209965 -3.969127,-1.514902 -5.819233,-3.227811 -0.940521,-0.870776 -1.914961,-2.044797 -2.17999,-2.62647 -0.306643,-0.673003 -0.337649,-0.301602 -0.0463,0.554896 0.425412,1.250754 0.902476,2.077537 1.703518,2.952293 l 0.694274,0.758113 -0.504925,-0.30202 c -0.955405,-0.571421 -1.896342,-1.366938 -3.159448,-2.671092 -1.351731,-1.395658 -2.061599,-1.868474 -3.282777,-2.18655 -0.802677,-0.209075 -2.078395,-0.261201 -2.078395,-0.08493 0,0.05974 0.318339,0.141431 0.707434,0.181586 0.779678,0.08048 2.289696,0.753541 2.859626,1.274642 l 0.348174,0.318339 -0.362604,0.54165 c -0.199419,0.297911 -0.6095,0.939275 -0.911285,1.425266 -0.715687,1.152551 -3.497839,3.942078 -4.960283,4.973437 -0.615859,0.434322 -1.1839,0.814308 -1.262311,0.844423 -0.100969,0.03878 -0.133439,-0.2865 -0.111236,-1.114324 z"
       id="path482" />
  </g>
</svg>
