<?xml version="1.0" encoding="UTF-8" standalone="no"?>
<svg
   width="64"
   height="64"
   version="1.1"
   id="svg73"
   sodipodi:docname="steam_icon_2694490.svg"
   inkscape:version="1.4.2 (ebf0e940d0, 2025-05-08)"
   xmlns:inkscape="http://www.inkscape.org/namespaces/inkscape"
   xmlns:sodipodi="http://sodipodi.sourceforge.net/DTD/sodipodi-0.dtd"
   xmlns="http://www.w3.org/2000/svg"
   xmlns:svg="http://www.w3.org/2000/svg"
   xmlns:rdf="http://www.w3.org/1999/02/22-rdf-syntax-ns#"
   xmlns:cc="http://creativecommons.org/ns#"
   xmlns:dc="http://purl.org/dc/elements/1.1/">
  <metadata
     id="metadata77">
    <rdf:RDF>
      <cc:Work
         rdf:about="">
        <dc:format>image/svg+xml</dc:format>
        <dc:type
           rdf:resource="http://purl.org/dc/dcmitype/StillImage" />
      </cc:Work>
    </rdf:RDF>
  </metadata>
  <sodipodi:namedview
     pagecolor="#f5f7fa"
     bordercolor="#666666"
     borderopacity="1"
     objecttolerance="10"
     gridtolerance="10"
     guidetolerance="10"
     inkscape:pageopacity="0"
     inkscape:pageshadow="2"
     inkscape:window-width="1377"
     inkscape:window-height="886"
     id="namedview75"
     showgrid="false"
     inkscape:zoom="6.2890624"
     inkscape:cx="47.622361"
     inkscape:cy="45.396274"
     inkscape:window-x="147"
     inkscape:window-y="75"
     inkscape:window-maximized="0"
     inkscape:current-layer="g877"
     inkscape:document-rotation="0"
     inkscape:pagecheckerboard="0"
     inkscape:showpageshadow="2"
     inkscape:deskcolor="#d1d1d1" />
  <defs
     id="defs29" />
  <circle
     cx="32.516094"
     cy="31.877844"
     r="0"
     fill="url(#b)"
     stroke-width="1.5715"
     id="circle41"
     style="fill:url(#b)" />
  <g
     aria-label="GZ"
     transform="matrix(1.2212657,0,0,0.81882264,0.4960938,-0.1661539)"
     id="text93"
     style="font-weight:bold;font-size:11.5263px;line-height:1.25;font-family:sans-serif;-inkscape-font-specification:'sans-serif Bold';fill:#f2f2f2;stroke-width:0.288159" />
  <g
     id="g877"
     transform="matrix(1.1,0,0,1.1,-3.1845928,-3.2065454)">
    <path
       style="fill:#dfdfdf;fill-opacity:1;stroke:none;stroke-width:0.814044;stroke-dasharray:none;stroke-opacity:0.6"
       d="m 31.861224,59.333554 c -7.72e-4,-0.134288 -0.487631,-1.738033 -1.081924,-3.563973 -0.961169,-2.953106 -1.099816,-3.589497 -1.255085,-5.760913 -0.096,-1.342585 -0.231673,-2.589577 -0.301476,-2.771086 -0.495343,-1.288111 -3.969046,-1.49111 -4.916964,-0.287351 -1.103292,1.401069 -2.146357,1.319725 -1.903311,-0.148424 0.183093,-1.10593 0.405845,-1.471476 1.746379,-2.865771 1.23913,-1.28881 2.556306,-2.032557 4.296281,-2.425895 l 0.976426,-0.220729 0.09761,-4.769979 c 0.05368,-2.623472 0.07303,-7.200508 0.04284,-10.17118 l -0.05471,-5.401173 -0.628794,0.09907 c -0.345814,0.05456 -0.760584,0.168565 -0.921699,0.253607 -0.161104,0.08507 -1.119733,0.430863 -2.130278,0.768445 -4.192445,1.400575 -8.3913,4.382034 -9.008247,6.396431 -0.321338,1.049189 -0.486988,8.7269 -0.210326,9.748607 0.303843,1.122126 0.980923,2.051636 1.84931,2.53874 0.407786,0.228799 0.756688,0.492171 0.775372,0.585516 0.06051,0.301949 -1.456079,0.444035 -4.945823,0.463251 -3.168411,0.0186 -5.812558,-0.103829 -6.3955415,-0.293013 -0.4063173,-0.131941 -0.2700108,-0.362053 0.4934688,-0.832879 0.3998984,-0.246573 0.9467634,-0.773892 1.2152811,-1.171704 l 0.4882036,-0.723295 0.05493,-8.155006 0.05493,-8.155006 0.628532,0.339744 c 1.363966,0.737146 4.24918,0.279703 5.608436,-0.889249 0.91424,-0.786216 3.608546,-2.438248 5.194229,-3.184841 1.811208,-0.852781 5.250826,-2.039677 6.474081,-2.233978 0.456492,-0.07252 0.829962,-0.238307 0.829962,-0.368452 0,-0.130158 0.217279,-0.335629 0.482829,-0.456625 0.265544,-0.120988 0.52078,-0.420693 0.567175,-0.666019 0.154689,-0.817946 1.283472,-7.4556477 1.520471,-8.9409541 0.128535,-0.8055519 0.294469,-1.5368125 0.368766,-1.625022 0.289327,-0.3435723 2.132695,8.1053311 2.136669,9.7932121 0.0011,0.460208 0.172389,0.82057 0.587391,1.235553 0.322211,0.32221 0.585854,0.645803 0.585854,0.719074 0,0.07332 0.724996,0.294852 1.611106,0.492405 1.946042,0.433864 4.59575,1.431646 6.474881,2.438215 1.981419,1.061356 4.039922,2.345706 4.607583,2.874783 0.77253,0.720038 1.914254,1.098154 3.409085,1.129056 0.947712,0.01953 1.572783,-0.07292 2.010087,-0.297478 l 0.63471,-0.325896 0.0044,7.845278 c 0.0056,8.940719 -0.01318,8.824995 1.632179,10.20073 0.624691,0.522158 0.837478,0.814398 0.696061,0.955877 -0.296399,0.296353 -10.704076,0.276675 -11.208533,-0.02107 -0.355013,-0.209687 -0.335032,-0.244675 0.292957,-0.511846 0.793068,-0.337445 1.356058,-0.921368 1.922813,-1.994183 0.378232,-0.715933 0.411214,-1.089971 0.411214,-4.670852 0,-4.989149 -0.17902,-6.070388 -1.196731,-7.226521 -1.098822,-1.24794 -2.775589,-2.451588 -5.025442,-3.607258 -2.371817,-1.218319 -6.478486,-2.68595 -6.75157,-2.412871 -0.05711,0.05707 -0.103807,4.613693 -0.103532,10.125602 l 4.29e-4,10.021664 0.826074,0.208556 c 2.934681,0.741179 5.38877,2.612165 6.123963,4.668846 0.366162,1.024281 0.324809,1.535655 -0.144434,1.786801 -0.356095,0.190513 -0.509022,0.126365 -1.122917,-0.471826 -0.866379,-0.8443 -1.899477,-1.297414 -2.957867,-1.297414 -0.796387,0 -2.086275,0.525735 -2.480171,1.010972 -0.115325,0.142208 -0.253837,1.444738 -0.307724,2.894723 -0.09461,2.546913 -0.135122,2.75104 -1.192985,6.016845 -0.602272,1.859242 -1.095045,3.41909 -1.095045,3.466296 0,0.04623 -0.08785,0.08594 -0.195275,0.08594 -0.107415,0 -0.195911,-0.109791 -0.196692,-0.244159 z"
       id="path1-3" />
  </g>
</svg>
