<?xml version="1.0" encoding="UTF-8" standalone="no"?>
<svg
   width="64"
   height="64"
   version="1.1"
   id="svg73"
   sodipodi:docname="steam_icon_392110.svg"
   inkscape:version="1.4.2 (ebf0e940d0, 2025-05-08)"
   xmlns:inkscape="http://www.inkscape.org/namespaces/inkscape"
   xmlns:sodipodi="http://sodipodi.sourceforge.net/DTD/sodipodi-0.dtd"
   xmlns="http://www.w3.org/2000/svg"
   xmlns:svg="http://www.w3.org/2000/svg"
   xmlns:rdf="http://www.w3.org/1999/02/22-rdf-syntax-ns#"
   xmlns:cc="http://creativecommons.org/ns#"
   xmlns:dc="http://purl.org/dc/elements/1.1/">
  <metadata
     id="metadata77">
    <rdf:RDF>
      <cc:Work
         rdf:about="">
        <dc:format>image/svg+xml</dc:format>
        <dc:type
           rdf:resource="http://purl.org/dc/dcmitype/StillImage" />
      </cc:Work>
    </rdf:RDF>
  </metadata>
  <sodipodi:namedview
     pagecolor="#f5f7fa"
     bordercolor="#666666"
     borderopacity="1"
     objecttolerance="10"
     gridtolerance="10"
     guidetolerance="10"
     inkscape:pageopacity="0"
     inkscape:pageshadow="2"
     inkscape:window-width="1377"
     inkscape:window-height="886"
     id="namedview75"
     showgrid="false"
     inkscape:zoom="6.2890624"
     inkscape:cx="47.622361"
     inkscape:cy="45.396274"
     inkscape:window-x="147"
     inkscape:window-y="75"
     inkscape:window-maximized="0"
     inkscape:current-layer="g877"
     inkscape:document-rotation="0"
     inkscape:pagecheckerboard="0"
     inkscape:showpageshadow="2"
     inkscape:deskcolor="#d1d1d1" />
  <defs
     id="defs29">
    <linearGradient
       id="b"
       x1="399.57"
       x2="399.57"
       y1="545.8"
       y2="517.8"
       gradientTransform="matrix(2.1429,0,0,2.1429,-825.86391,-1107.6662)"
       gradientUnits="userSpaceOnUse">
      <stop
         stop-color="#3889e9"
         offset="0"
         id="stop2" />
      <stop
         stop-color="#5ea5fb"
         offset="1"
         id="stop4" />
    </linearGradient>
  </defs>
  <circle
     cx="32.516094"
     cy="31.877844"
     r="0"
     fill="url(#b)"
     stroke-width="1.5715"
     id="circle41"
     style="fill:url(#b)" />
  <g
     aria-label="GZ"
     transform="matrix(1.2212657,0,0,0.81882264,0.4960938,-0.1661539)"
     id="text93"
     style="font-weight:bold;font-size:11.5263px;line-height:1.25;font-family:sans-serif;-inkscape-font-specification:'sans-serif Bold';fill:#f2f2f2;stroke-width:0.288159" />
  <g
     id="g877"
     transform="matrix(1.1,0,0,1.1,-3.1845928,-3.2065454)">
    <path
       style="fill:#dfdfdf;fill-opacity:1;stroke-width:0.6421"
       d="M 15.787369,47.44144 C 10.960316,45.721876 8.3781988,43.546445 6.1396172,39.313232 3.1315219,33.624836 3.8128222,26.281056 7.8183219,21.218365 9.8600528,18.637742 15.534104,15.329466 17.918399,15.329466 c 1.762903,0 5.294598,2.440691 13.792794,9.531972 6.282718,5.242582 12.241229,9.905371 13.241139,10.36175 2.462572,1.123968 5.278528,-0.46887 6.014748,-3.402238 0.504919,-2.01156 -0.03832,-2.8522 -4.409187,-6.824404 -2.741734,-2.491634 -5.693133,-4.530243 -6.558657,-4.530243 -2.134762,0 -1.985422,-0.575876 0.7807,-3.010502 3.976056,-3.499553 9.682248,-2.223438 14.47712,3.237608 8.502413,9.683728 4.276928,23.570906 -8.26659,27.16834 -2.487856,0.71351 -3.272178,0.216558 -14.943817,-9.46858 C 22.256448,30.26925 19.193423,28.171557 17.121197,28.171557 c -2.989755,0 -4.808565,2.455911 -4.051802,5.471095 0.580734,2.313831 8.716817,9.083271 10.917046,9.083271 0.878359,0 1.597009,0.288984 1.596992,0.642106 -2.2e-5,0.592154 -5.573205,5.398356 -6.161237,5.31329 -0.142883,-0.02072 -1.778551,-0.578629 -3.634827,-1.239879 z"
       id="path1-3" />
  </g>
</svg>
