<?xml version="1.0" encoding="UTF-8" standalone="no"?>
<svg
   width="64"
   height="64"
   version="1.1"
   id="svg73"
   sodipodi:docname="steam_icon_1336490.svg"
   inkscape:version="1.4.2 (ebf0e940d0, 2025-05-08)"
   xmlns:inkscape="http://www.inkscape.org/namespaces/inkscape"
   xmlns:sodipodi="http://sodipodi.sourceforge.net/DTD/sodipodi-0.dtd"
   xmlns="http://www.w3.org/2000/svg"
   xmlns:svg="http://www.w3.org/2000/svg"
   xmlns:rdf="http://www.w3.org/1999/02/22-rdf-syntax-ns#"
   xmlns:cc="http://creativecommons.org/ns#"
   xmlns:dc="http://purl.org/dc/elements/1.1/">
  <metadata
     id="metadata77">
    <rdf:RDF>
      <cc:Work
         rdf:about="">
        <dc:format>image/svg+xml</dc:format>
        <dc:type
           rdf:resource="http://purl.org/dc/dcmitype/StillImage" />
      </cc:Work>
    </rdf:RDF>
  </metadata>
  <sodipodi:namedview
     pagecolor="#f5f7fa"
     bordercolor="#666666"
     borderopacity="1"
     objecttolerance="10"
     gridtolerance="10"
     guidetolerance="10"
     inkscape:pageopacity="0"
     inkscape:pageshadow="2"
     inkscape:window-width="1377"
     inkscape:window-height="886"
     id="namedview75"
     showgrid="false"
     inkscape:zoom="6.2890624"
     inkscape:cx="47.622361"
     inkscape:cy="45.396274"
     inkscape:window-x="147"
     inkscape:window-y="75"
     inkscape:window-maximized="0"
     inkscape:current-layer="g877"
     inkscape:document-rotation="0"
     inkscape:pagecheckerboard="0"
     inkscape:showpageshadow="2"
     inkscape:deskcolor="#d1d1d1" />
  <defs
     id="defs29" />
  <circle
     cx="32.516094"
     cy="31.877844"
     r="0"
     fill="url(#b)"
     stroke-width="1.5715"
     id="circle41"
     style="fill:url(#b)" />
  <g
     aria-label="GZ"
     transform="matrix(1.2212657,0,0,0.81882264,0.4960938,-0.1661539)"
     id="text93"
     style="font-weight:bold;font-size:11.5263px;line-height:1.25;font-family:sans-serif;-inkscape-font-specification:'sans-serif Bold';fill:#f2f2f2;stroke-width:0.288159" />
  <g
     id="g877"
     transform="matrix(1.1,0,0,1.1,-3.1845928,-3.2065454)">
    <path
       style="fill:#dfdfdf;fill-opacity:1;stroke:none;stroke-width:0.854745;stroke-dasharray:none;stroke-opacity:0.6"
       d="m 5.7487364,58.662487 c 0.06557,-0.06132 2.9744362,-1.825345 6.4641616,-3.919373 l 6.344924,-3.807318 -6.762199,-0.05872 -6.7622159,-0.05872 6.9147869,-4.159151 c 3.803117,-2.287536 6.968438,-4.189808 7.034004,-4.227253 0.06556,-0.03828 -0.470949,0.594827 -1.192211,1.405012 -3.95885,4.446958 -4.827083,5.439683 -4.82772,5.519877 -3.8e-4,0.0491 2.79477,0.102289 6.211469,0.119294 l 6.212158,0.03131 -9.741298,4.589978 C 5.6186662,58.82063 5.5465333,58.853927 5.7487364,58.663897 Z m 32.5244226,0.0042 c 0.03399,-0.05397 2.587257,-1.815125 5.673668,-3.913385 l 5.61169,-3.81507 -5.988983,-0.0594 -5.988957,-0.0594 6.139838,-4.182077 c 3.376902,-2.300756 6.156245,-4.171014 6.17631,-4.156742 0.02009,0.01465 -1.173642,1.561311 -2.652659,3.437814 -1.479018,1.876503 -2.689102,3.438273 -2.689102,3.470589 0,0.03288 2.508083,0.0594 5.573558,0.0594 l 5.573536,0.0029 -7.510895,3.99916 c -4.130967,2.199518 -8.066415,4.295442 -8.745423,4.657637 -0.67903,0.362139 -1.206674,0.614207 -1.172579,0.560153 z M 23.605915,55.267519 c 0.707054,-0.676323 3.747166,-3.563365 6.755796,-6.415719 3.008635,-2.852347 5.474702,-5.225895 5.480195,-5.274538 0.0042,-0.04961 -3.158711,-0.102289 -7.031511,-0.119161 l -7.041499,-0.03074 3.076367,-2.920901 c 8.038039,-7.631932 10.525817,-10.043684 10.463751,-10.1441 -0.09442,-0.152806 -1.207327,-0.136119 -1.521541,0.02275 -0.143276,0.07236 -2.688391,2.553687 -5.655905,5.513942 l -5.3955,5.382097 -1.81733,-0.0042 c -1.734938,-0.0042 -1.868674,-0.02225 -2.949917,-0.393583 -3.892447,-1.337729 -6.50669,-4.645643 -6.858551,-8.67923 L 11.02713,31.250943 10.197514,30.968507 C 7.9815262,30.214038 6.0832106,28.289332 5.2385634,25.940586 4.9534366,25.147646 4.9240788,24.904938 4.9240788,23.337421 c 0,-1.567524 0.029282,-1.810219 0.31449,-2.603164 1.1539287,-3.208807 3.93785,-5.291165 7.3412622,-5.491253 l 1.227792,-0.07218 0.272902,-0.774935 c 1.157092,-3.285564 3.752618,-6.1553302 6.90192,-7.6311419 6.020654,-2.8213811 13.121662,-0.8930828 16.833364,4.5711379 0.422674,0.622225 0.805202,1.060016 0.951194,1.088545 0.134288,0.02622 0.584167,0.108625 0.999675,0.183095 1.693523,0.303464 3.764145,1.197858 5.171182,2.233665 l 0.706949,0.520449 0.656432,-0.435687 c 1.368176,-0.908148 2.957332,-1.319825 4.680375,-1.212465 3.040455,0.189457 5.574548,2.118057 6.654898,5.06479 0.592133,1.615273 0.481934,3.999959 -0.258471,5.595094 -0.250864,0.540307 -0.264834,0.637213 -0.11051,0.765206 0.306312,0.254293 1.091014,1.685857 1.348675,2.460661 0.396605,1.192792 0.522118,2.413887 0.36748,3.575713 -0.260575,1.958761 -0.973803,3.382786 -2.416161,4.824673 -0.745917,0.745676 -1.134609,1.024762 -2.026725,1.455102 -1.181826,0.570096 -2.515505,0.904493 -3.607432,0.904493 -1.556043,0 -3.542559,-0.665543 -4.848997,-1.624573 l -0.583644,-0.428465 -0.800676,0.534871 c -2.114104,1.412197 -4.331491,2.163237 -6.821426,2.310387 -1.644066,0.09718 -4.411156,-0.261963 -4.411156,-0.572504 0,-0.06023 0.69745,-1.411829 1.549871,-3.003433 1.288091,-2.40506 1.54988,-2.979184 1.54988,-3.399161 0,-0.553523 -0.20022,-1.029373 -0.576342,-1.369741 -0.240039,-0.217216 -0.247994,-0.211308 -0.638113,0.475751 -0.217272,0.382647 -1.555946,2.761858 -2.974844,5.287133 l -2.579797,4.591392 6.531751,0.0596 6.531771,0.05963 -10.079939,7.510875 c -5.543978,4.130982 -10.165765,7.554554 -10.270651,7.607918 -0.10483,0.05338 0.387809,-0.456151 1.094866,-1.132586 z"
       id="path1-3-5-9" />
  </g>
</svg>
