<?xml version="1.0" encoding="UTF-8" standalone="no"?>
<svg
   width="64"
   height="64"
   version="1.1"
   id="svg73"
   sodipodi:docname="steam_icon_1024480.svg"
   inkscape:version="1.4.2 (ebf0e940d0, 2025-05-08)"
   xmlns:inkscape="http://www.inkscape.org/namespaces/inkscape"
   xmlns:sodipodi="http://sodipodi.sourceforge.net/DTD/sodipodi-0.dtd"
   xmlns="http://www.w3.org/2000/svg"
   xmlns:svg="http://www.w3.org/2000/svg"
   xmlns:rdf="http://www.w3.org/1999/02/22-rdf-syntax-ns#"
   xmlns:cc="http://creativecommons.org/ns#"
   xmlns:dc="http://purl.org/dc/elements/1.1/">
  <metadata
     id="metadata77">
    <rdf:RDF>
      <cc:Work
         rdf:about="">
        <dc:format>image/svg+xml</dc:format>
        <dc:type
           rdf:resource="http://purl.org/dc/dcmitype/StillImage" />
      </cc:Work>
    </rdf:RDF>
  </metadata>
  <sodipodi:namedview
     pagecolor="#f5f7fa"
     bordercolor="#666666"
     borderopacity="1"
     objecttolerance="10"
     gridtolerance="10"
     guidetolerance="10"
     inkscape:pageopacity="0"
     inkscape:pageshadow="2"
     inkscape:window-width="1377"
     inkscape:window-height="886"
     id="namedview75"
     showgrid="false"
     inkscape:zoom="6.2890624"
     inkscape:cx="47.622361"
     inkscape:cy="45.396274"
     inkscape:window-x="147"
     inkscape:window-y="75"
     inkscape:window-maximized="0"
     inkscape:current-layer="g877"
     inkscape:document-rotation="0"
     inkscape:pagecheckerboard="0"
     inkscape:showpageshadow="2"
     inkscape:deskcolor="#d1d1d1" />
  <defs
     id="defs29" />
  <circle
     cx="32.516094"
     cy="31.877844"
     r="0"
     fill="url(#b)"
     stroke-width="1.5715"
     id="circle41"
     style="fill:url(#b)" />
  <g
     aria-label="GZ"
     transform="matrix(1.2212657,0,0,0.81882264,0.4960938,-0.1661539)"
     id="text93"
     style="font-weight:bold;font-size:11.5263px;line-height:1.25;font-family:sans-serif;-inkscape-font-specification:'sans-serif Bold';fill:#f2f2f2;stroke-width:0.288159" />
  <g
     id="g877"
     transform="matrix(1.1,0,0,1.1,-3.1845928,-3.2065454)">
    <path
       fill="#000000"
       d="m 22.305236,15.218318 c -0.210795,-1.621874 -3.156826,-3.407723 -4.602622,-3.407723 -0.284498,0 -0.510757,0.06856 -0.646618,0.2211 -2.442888,2.731313 1.593311,9.101976 1.593311,9.101976 0,0 4.003828,-3.224142 3.655929,-5.915353 z m 14.430183,6.779157 c 0,0 3.843543,-6.069254 1.517032,-8.664919 -0.129373,-0.144727 -0.345318,-0.210577 -0.615592,-0.210577 -1.378592,0 -4.183716,1.700611 -4.384207,3.245984 -0.332331,2.551537 3.482767,5.629512 3.482767,5.629512 z m -6.017504,-5.639816 c -0.200494,-1.545481 -3.006849,-3.245983 -4.383983,-3.245983 -0.27038,0 -0.486455,0.06586 -0.615706,0.210574 -2.327744,2.600816 1.517032,8.66492 1.517032,8.66492 0,0 3.814985,-3.067557 3.48277,-5.629511 z M 9.8228727,9.9288671 a 1.85328,1.85328 0 0 0 -0.186384,0.00913 C -0.19218873,10.939005 10.910355,41.978481 14.17841,44.04256 c 0,0 -1.902345,-16.984407 0.313056,-27.356323 0.810712,-3.820236 -2.688858,-6.7571906 -4.6688188,-6.7571906 z m 44.5111973,0.00913 a 1.8442077,1.8442074 0 0 0 -0.186263,-0.00913 c -1.980082,0 -5.484802,2.9343749 -4.668709,6.7571999 2.215285,10.371916 0.312936,27.356321 0.312936,27.356321 3.273195,-2.062737 14.371935,-33.102207 4.541903,-34.1044492 z M 46.268062,11.81069 c -1.447147,0 -4.397197,1.785963 -4.602845,3.407724 -0.347902,2.684827 3.657275,5.916589 3.657275,5.916589 0,0 4.034966,-6.371897 1.593307,-9.101752 -0.137083,-0.153949 -0.363337,-0.222506 -0.647856,-0.222506 z M 29.657316,50.899011 c -0.227598,-1.273534 -2.867175,-3.95982 -2.867175,-3.95982 0,0 -2.30064,2.684825 -2.276,3.777695 0,0.24044 -0.129374,2.586474 0.227378,2.912196 0.322133,0.296256 1.438179,0.452819 2.533617,0.452819 1.060486,0 2.100142,-0.146147 2.38218,-0.452759 0.258738,-0.276598 0.03751,-2.546263 0,-2.729954 z M 22.93237,48.171619 c -1.351376,-2.317441 -2.145506,-5.71351 -2.586481,-8.258669 -0.346554,-2.012334 -0.469314,-3.49173 -0.469314,-3.49173 -1.694342,1.322814 -4.961049,15.42066 0.284499,15.42066 a 3.3624725,3.3624725 0 0 0 0.554661,-0.04806 c 0.517475,-0.08534 1.171603,-0.48106 1.681234,-1.034494 0.66477,-0.72021 1.059144,-1.699168 0.535398,-2.587722 z M 44.08503,36.418633 c 0,0 -0.112687,1.347452 -0.423053,3.218876 -0.426765,2.572259 -1.229845,6.131305 -2.630503,8.535442 -0.421598,0.724237 -0.239244,1.502805 0.195342,2.154586 0.517259,0.768367 1.378591,1.359208 2.020065,1.465277 a 3.3741211,3.3741211 0 0 0 0.554776,0.04806 c 5.254503,-0.0051 1.979968,-14.102889 0.287131,-15.42727 z m -4.63779,14.303391 c 0.0246,-1.092853 -2.275998,-3.777579 -2.275998,-3.777579 0,0 -2.635767,2.68091 -2.858213,3.954657 -0.02844,0.161797 -0.28708,2.418471 0,2.731427 0.287188,0.312938 1.323032,0.452515 2.382179,0.452515 1.095438,0 2.21148,-0.15638 2.533615,-0.452515 0.491374,-0.457871 0.219757,-2.83223 0.22233,-2.912428 z m -16.098425,0.615624 0.02721,0.01278 v -0.04929 z"
       class="cls-2"
       id="path1-3-0"
       style="fill:#dfdfdf;fill-opacity:1;stroke-width:0.112007" />
  </g>
</svg>
