<?xml version="1.0" encoding="UTF-8" standalone="no"?>
<svg
   width="64"
   height="64"
   version="1.1"
   id="svg73"
   sodipodi:docname="steam_icon_2623190.svg"
   inkscape:version="1.4.2 (ebf0e940d0, 2025-05-08)"
   xmlns:inkscape="http://www.inkscape.org/namespaces/inkscape"
   xmlns:sodipodi="http://sodipodi.sourceforge.net/DTD/sodipodi-0.dtd"
   xmlns="http://www.w3.org/2000/svg"
   xmlns:svg="http://www.w3.org/2000/svg"
   xmlns:rdf="http://www.w3.org/1999/02/22-rdf-syntax-ns#"
   xmlns:cc="http://creativecommons.org/ns#"
   xmlns:dc="http://purl.org/dc/elements/1.1/">
  <metadata
     id="metadata77">
    <rdf:RDF>
      <cc:Work
         rdf:about="">
        <dc:format>image/svg+xml</dc:format>
        <dc:type
           rdf:resource="http://purl.org/dc/dcmitype/StillImage" />
      </cc:Work>
    </rdf:RDF>
  </metadata>
  <sodipodi:namedview
     pagecolor="#f5f7fa"
     bordercolor="#666666"
     borderopacity="1"
     objecttolerance="10"
     gridtolerance="10"
     guidetolerance="10"
     inkscape:pageopacity="0"
     inkscape:pageshadow="2"
     inkscape:window-width="1377"
     inkscape:window-height="886"
     id="namedview75"
     showgrid="false"
     inkscape:zoom="6.2890624"
     inkscape:cx="47.622361"
     inkscape:cy="45.396274"
     inkscape:window-x="147"
     inkscape:window-y="75"
     inkscape:window-maximized="0"
     inkscape:current-layer="g877"
     inkscape:document-rotation="0"
     inkscape:pagecheckerboard="0"
     inkscape:showpageshadow="2"
     inkscape:deskcolor="#d1d1d1" />
  <defs
     id="defs29" />
  <circle
     cx="32.516094"
     cy="31.877844"
     r="0"
     fill="url(#b)"
     stroke-width="1.5715"
     id="circle41"
     style="fill:url(#b)" />
  <g
     aria-label="GZ"
     transform="matrix(1.2212657,0,0,0.81882264,0.4960938,-0.1661539)"
     id="text93"
     style="font-weight:bold;font-size:11.5263px;line-height:1.25;font-family:sans-serif;-inkscape-font-specification:'sans-serif Bold';fill:#f2f2f2;stroke-width:0.288159" />
  <g
     id="g877"
     transform="matrix(1.1,0,0,1.1,-3.1845928,-3.2065454)">
    <path
       style="fill:#dfdfdf;fill-opacity:1;stroke:none;stroke-width:0.854745;stroke-dasharray:none;stroke-opacity:0.6"
       d="m 37.907995,59.413473 c 0,-0.07879 -0.06446,-0.143365 -0.143246,-0.143365 -0.07878,0 -0.143248,-0.0594 -0.143248,-0.132941 0,-0.07316 -0.07519,-0.162328 -0.167113,-0.197738 -0.159199,-0.06134 -0.159199,-0.07039 0,-0.187873 0.09192,-0.0676 0.167113,-0.214948 0.167113,-0.327511 0,-0.117987 0.06059,-0.204199 0.143248,-0.204199 0.09548,0 0.143246,-0.09545 0.143246,-0.286359 0,-0.191019 0.04777,-0.286361 0.143279,-0.286361 0.07878,0 0.143246,-0.06462 0.143246,-0.14313 0,-0.07879 0.06446,-0.143043 0.143249,-0.143043 0.0955,0 0.143276,-0.09541 0.143276,-0.286357 0,-0.191059 0.04771,-0.286407 0.143248,-0.286407 0.07878,0 0.143247,-0.06461 0.143247,-0.143364 0,-0.07879 0.03996,-0.143322 0.08906,-0.143322 0.04904,0 0.116777,-0.08731 0.15063,-0.194023 0.03375,-0.106678 0.166687,-0.307502 0.295215,-0.446226 0.128455,-0.138651 0.258726,-0.352219 0.28941,-0.474334 0.03072,-0.122226 0.08909,-0.222385 0.129746,-0.222385 0.04069,0 0.0976,-0.09023 0.126458,-0.20055 0.02884,-0.110425 0.09825,-0.17232 0.154351,-0.137582 0.06367,0.03936 0.101937,-0.04749 0.101937,-0.229018 0,-0.195956 0.04699,-0.292023 0.143262,-0.292023 0.08914,0 0.143249,-0.09021 0.143249,-0.238734 0,-0.14873 0.05413,-0.238722 0.143276,-0.238722 0.09548,0 0.143131,-0.0955 0.143131,-0.286413 0,-0.171805 0.04584,-0.276702 0.114054,-0.262567 0.06271,0.01332 0.143569,-0.105061 0.179671,-0.262784 0.03615,-0.15746 0.07137,-0.243478 0.07842,-0.19102 0.02589,0.192544 0.197963,-0.199175 0.199355,-0.453561 10e-4,-0.169148 0.05284,-0.262734 0.144726,-0.262734 0.102971,0 0.143218,-0.105259 0.143218,-0.3739 0,-0.205663 0.04528,-0.388998 0.1001,-0.407446 0.0552,-0.01823 0.12558,-0.279885 0.156607,-0.580795 0.03131,-0.30103 0.0882,-0.547517 0.126897,-0.547517 0.03936,0 0.09065,-0.244929 0.115507,-0.544188 0.02426,-0.299353 0.09448,-0.560681 0.155028,-0.580858 0.06003,-0.02009 0.109846,-0.206309 0.109846,-0.413652 0,-0.246927 0.04962,-0.395957 0.143129,-0.43204 0.09339,-0.03617 0.143131,-0.184247 0.143131,-0.426755 0,-0.26678 0.03936,-0.371633 0.143365,-0.371633 0.103378,0 0.143277,-0.106117 0.143277,-0.381935 0,-0.275949 0.03883,-0.381987 0.14313,-0.381987 0.106106,0 0.143365,-0.111308 0.143365,-0.429778 0,-0.318343 0.03666,-0.429672 0.143204,-0.429672 0.105787,0 0.143364,-0.110485 0.143364,-0.421739 0,-0.248005 0.04853,-0.441646 0.119378,-0.469855 0.08199,-0.03286 0.07443,-0.0507 -0.02425,-0.05695 -0.127283,-0.0083 -0.127283,-0.01951 0,-0.09996 0.181253,-0.114986 0.197206,-1.561396 0.01951,-1.73939 -0.158006,-0.158055 -0.15406,-1.384486 0.0046,-1.437292 0.09116,-0.03075 0.126632,-0.7316 0.1506,-2.962139 0.02588,-2.450739 0.0083,-2.973477 -0.113062,-3.238759 -0.08004,-0.175438 -0.158362,-0.674824 -0.175846,-1.120613 -0.02049,-0.528954 -0.07214,-0.817639 -0.149568,-0.84349 -0.08861,-0.0296 -0.117963,-0.546644 -0.117963,-2.08438 0,-1.754182 -0.02009,-2.045073 -0.143364,-2.045073 -0.116741,0 -0.143131,-0.159117 -0.143131,-0.859409 0,-0.70026 -0.02589,-0.85941 -0.143365,-0.85941 -0.117673,0 -0.143131,-0.168883 -0.143131,-0.946939 0,-0.672695 -0.03399,-0.958458 -0.119379,-0.9867 -0.08081,-0.02692 -0.130397,-0.33005 -0.153239,-0.939002 -0.01874,-0.494588 -0.07575,-0.925262 -0.126538,-0.957084 -0.05013,-0.03193 -0.11656,-0.235925 -0.145619,-0.453583 -0.02859,-0.217641 -0.08489,-0.395725 -0.123783,-0.395725 -0.03936,0 -0.09822,-0.171896 -0.131756,-0.381964 -0.03347,-0.210081 -0.10351,-0.381957 -0.15551,-0.381957 -0.05178,0 -0.0944,-0.103862 -0.0944,-0.230921 0,-0.312673 -0.09681,-0.543443 -0.200978,-0.479079 -0.0469,0.02912 -0.08608,-0.08935 -0.08678,-0.26313 -0.0016,-0.426355 -0.09721,-0.755131 -0.200552,-0.691233 -0.04642,0.02884 -0.08457,-0.100551 -0.08457,-0.287533 0,-0.238424 -0.04316,-0.33985 -0.143204,-0.33985 -0.103389,0 -0.143129,-0.106106 -0.143129,-0.381958 0,-0.275853 -0.03992,-0.381959 -0.143278,-0.381959 -0.09548,0 -0.143277,-0.09548 -0.143277,-0.286471 0,-0.191018 -0.048,-0.286468 -0.143276,-0.286468 -0.10384,0 -0.143277,-0.106876 -0.143277,-0.388787 0,-0.218258 -0.06279,-0.451603 -0.143247,-0.532003 -0.07888,-0.07897 -0.143321,-0.265711 -0.143321,-0.415156 0,-0.149407 -0.04568,-0.286946 -0.10164,-0.305576 -0.05599,-0.01861 -0.126059,-0.215585 -0.155832,-0.437662 -0.02976,-0.222078 -0.08681,-0.403767 -0.126698,-0.403767 -0.03995,0 -0.09953,-0.107437 -0.132461,-0.238735 -0.03306,-0.131291 -0.102014,-0.238735 -0.153579,-0.238735 -0.05154,0 -0.0937,-0.10879 -0.0937,-0.241723 0,-0.132941 -0.06446,-0.266465 -0.143247,-0.296692 -0.07862,-0.02977 -0.143102,-0.158763 -0.143102,-0.286104 0,-0.127337 -0.06446,-0.256246 -0.143277,-0.286471 -0.07879,-0.03015 -0.143246,-0.159134 -0.143246,-0.286465 0,-0.127363 -0.06446,-0.256245 -0.143249,-0.286465 -0.07878,-0.03027 -0.143276,-0.157797 -0.143276,-0.283472 0,-0.139456 -0.05577,-0.228516 -0.143249,-0.228516 -0.07878,0 -0.143246,-0.06752 -0.143246,-0.150036 0,-0.08253 -0.06446,-0.214514 -0.143277,-0.293291 -0.07878,-0.07879 -0.143248,-0.226103 -0.143248,-0.327382 0,-0.101288 -0.03995,-0.184171 -0.08906,-0.184171 -0.04906,0 -0.118471,-0.09264 -0.154384,-0.205881 -0.03604,-0.113268 -0.161002,-0.295874 -0.278005,-0.405837 -0.116958,-0.109967 -0.241694,-0.318099 -0.277115,-0.462549 -0.03554,-0.144419 -0.10659,-0.262602 -0.158089,-0.262602 -0.05153,0 -0.0937,-0.06446 -0.0937,-0.143276 0,-0.07878 -0.06446,-0.143277 -0.143246,-0.143277 -0.07878,0 -0.143278,-0.06446 -0.143278,-0.143248 0,-0.07878 -0.06446,-0.143203 -0.143277,-0.143203 -0.07878,0 -0.143247,-0.0431 -0.143247,-0.09549 0,-0.05255 -0.06583,-0.09548 -0.146264,-0.09548 -0.08042,0 -0.170972,-0.06446 -0.201182,-0.143204 -0.03025,-0.07878 -0.154704,-0.1432629 -0.276654,-0.1432629 -0.121907,0 -0.279774,-0.058102 -0.35076,-0.1290663 -0.07113,-0.070741 -0.362471,-0.1513083 -0.647522,-0.1787049 -0.285046,-0.027357 -0.534405,-0.098208 -0.554135,-0.1574122 -0.02271,-0.068332 -0.325705,-0.107591 -0.829351,-0.107591 -0.617243,0 -0.805704,0.031933 -0.848455,0.1432783 -0.03634,0.094589 -0.185829,0.1432761 -0.439936,0.1432761 -0.211741,0 -0.384953,0.042559 -0.384953,0.094391 0,0.051865 -0.169236,0.1214004 -0.37606,0.1545115 -0.20683,0.033176 -0.398859,0.1195604 -0.426702,0.1920944 -0.02783,0.07261 -0.09826,0.131955 -0.156493,0.131955 -0.135869,0 -0.664082,0.525813 -0.664082,0.661086 0,0.05654 -0.06446,0.102806 -0.143248,0.102806 -0.07878,0 -0.143277,0.08286 -0.143277,0.184156 0,0.101288 -0.06236,0.246499 -0.138533,0.32268 -0.07616,0.07617 -0.166685,0.250836 -0.201182,0.388128 -0.03436,0.137318 -0.101035,0.225877 -0.147991,0.196854 -0.0469,-0.02896 -0.08527,0.03572 -0.08527,0.143905 0,0.111114 -0.06235,0.196634 -0.143247,0.196634 -0.07878,0 -0.143277,0.06446 -0.143277,0.143276 0,0.07878 -0.06446,0.143263 -0.143276,0.143263 -0.07878,0 -0.143248,0.06446 -0.143248,0.143276 0,0.07878 -0.04217,0.143277 -0.0937,0.143277 -0.05152,0 -0.120625,0.107459 -0.153612,0.238735 -0.03306,0.13129 -0.119753,0.238734 -0.192814,0.238734 -0.07307,0 -0.132887,0.06446 -0.132887,0.143248 0,0.07878 -0.06446,0.143277 -0.143248,0.143277 -0.07878,0 -0.143277,0.04886 -0.143277,0.108405 0,0.05975 -0.10241,0.203317 -0.227557,0.319305 -0.125127,0.115978 -0.256967,0.303539 -0.292898,0.416787 -0.03608,0.113269 -0.105424,0.205904 -0.154414,0.205904 -0.04907,0 -0.08904,0.06583 -0.08904,0.146204 0,0.08042 -0.06446,0.170992 -0.143278,0.201187 -0.08165,0.03131 -0.143247,0.173736 -0.143247,0.3312 0,0.181867 -0.04902,0.276251 -0.143277,0.276251 -0.103433,0 -0.143276,0.106106 -0.143276,0.381962 0,0.275854 -0.03983,0.38196 -0.143278,0.38196 -0.09548,0 -0.143247,0.0955 -0.143247,0.28647 0,0.190996 -0.04777,0.286464 -0.143277,0.286464 -0.07878,0 -0.138197,0.03221 -0.131942,0.07161 0.03656,0.231409 -0.02977,0.405834 -0.154544,0.405834 -0.07878,0 -0.143249,0.06446 -0.143249,0.143277 0,0.07878 -0.0431,0.143276 -0.09549,0.143276 -0.0526,0 -0.0955,0.06446 -0.0955,0.143279 0,0.07878 -0.06109,0.143246 -0.135663,0.143246 -0.07462,0 -0.163992,0.128934 -0.198558,0.286467 -0.03461,0.157539 -0.102476,0.286471 -0.150791,0.286471 -0.04834,0 -0.08789,0.10879 -0.08789,0.241731 0,0.132954 -0.06446,0.266465 -0.143263,0.296695 -0.08873,0.03398 -0.143276,0.179374 -0.143276,0.381965 0,0.202557 -0.05441,0.347911 -0.143277,0.381939 -0.0871,0.03332 -0.143277,0.177884 -0.143277,0.36875 0,0.190801 -0.05609,0.335318 -0.143262,0.368747 -0.08993,0.03436 -0.143277,0.180526 -0.143277,0.392174 0,0.236084 -0.04289,0.33721 -0.143277,0.33721 -0.102806,0 -0.143277,0.104962 -0.143277,0.371731 0,0.242344 -0.04998,0.39087 -0.143262,0.426698 -0.103059,0.03952 -0.143277,0.200835 -0.143277,0.575204 0,0.307496 -0.04511,0.535231 -0.109868,0.556881 -0.06053,0.02033 -0.130224,0.281566 -0.15506,0.580897 -0.02493,0.299345 -0.0797,0.54425 -0.121905,0.54425 -0.04217,0 -0.106326,0.236341 -0.142428,0.525191 -0.03608,0.288863 -0.103664,0.525205 -0.1501,0.525205 -0.0464,0 -0.08447,0.12582 -0.08447,0.279651 0,0.153803 -0.05832,0.338026 -0.129706,0.409379 -0.07138,0.07138 -0.150406,0.379164 -0.175685,0.684036 -0.02531,0.304863 -0.100716,0.588125 -0.167537,0.629456 -0.09687,0.05987 -0.09515,0.08566 0.0085,0.126912 0.09238,0.03677 0.09558,0.05394 0.01078,0.05935 -0.174659,0.01125 -0.174659,9.617729 0,9.675738 0.08675,0.02893 0.127868,0.441525 0.150438,1.510757 0.01684,0.809109 0.07055,1.495525 0.11887,1.525362 0.0483,0.03022 0.116027,0.331128 0.150599,0.669603 0.03441,0.338407 0.09489,0.636879 0.134155,0.663094 0.03934,0.02589 0.09851,0.219688 0.131636,0.429667 0.03318,0.210081 0.101937,0.396284 0.152837,0.413706 0.05091,0.01823 0.09253,0.148954 0.09253,0.292128 0,0.143041 0.06302,0.343741 0.140217,0.445633 0.07711,0.101992 0.141564,0.282149 0.143248,0.400222 0.0017,0.125939 0.06235,0.21488 0.146278,0.21488 0.09548,0 0.143277,0.09548 0.143277,0.286464 0,0.190999 0.04777,0.286412 0.143247,0.286412 0.09551,0 0.143278,0.09549 0.143278,0.286463 0,0.190997 0.04772,0.28641 0.143276,0.28641 0.07878,0 0.143277,0.0646 0.143277,0.143131 0,0.07879 0.03952,0.143364 0.08789,0.143364 0.04833,0 0.116196,0.129 0.150791,0.286461 0.03451,0.157461 0.114829,0.286414 0.178239,0.286414 0.06342,0 0.122371,0.09382 0.131036,0.208463 0.0085,0.114841 0.08225,0.24569 0.163552,0.291268 0.08131,0.04584 0.147796,0.18795 0.147796,0.316827 0,0.128788 0.0431,0.234095 0.09551,0.234095 0.05258,0 0.09551,0.0646 0.09551,0.143041 0,0.07879 0.06446,0.14313 0.143278,0.14313 0.08957,0 0.143263,0.09063 0.143263,0.241644 0,0.13294 0.06446,0.266396 0.143276,0.29655 0.07878,0.03131 0.143277,0.159117 0.143277,0.286412 0,0.127417 0.06446,0.256363 0.143276,0.286407 0.07878,0.03021 0.143263,0.157814 0.143263,0.283445 0,0.139587 0.05569,0.228586 0.143276,0.228586 0.09548,0 0.143277,0.09545 0.143277,0.286416 0,0.190821 0.04771,0.286352 0.143278,0.286352 0.09548,0 0.143261,0.09545 0.143261,0.286356 0,0.191057 0.04772,0.286357 0.143277,0.286357 0.09549,0 0.143248,0.09549 0.143248,0.286409 0,0.191059 0.04777,0.286358 0.143277,0.286358 0.08909,0 0.143248,0.09018 0.143248,0.238732 0,0.131317 0.03825,0.238672 0.08518,0.238672 0.0469,0 0.114224,0.11593 0.14984,0.257713 0.03557,0.141753 0.169166,0.354644 0.296827,0.47293 0.12767,0.118314 0.232137,0.259981 0.232137,0.315103 0,0.05458 0.06446,0.1001 0.143276,0.1001 0.08745,0 0.143277,0.08901 0.143277,0.228541 0,0.125726 0.06446,0.253129 0.143279,0.28344 0.07878,0.03019 0.14326,0.120625 0.14326,0.201141 0,0.08032 0.06446,0.14606 0.143278,0.14606 0.0891,0 0.143247,0.09018 0.143247,0.238674 0,0.148571 0.05417,0.238731 0.143277,0.238731 0.09548,0 0.143248,0.09555 0.143248,0.286407 0,0.191057 -0.04777,0.286411 -0.143248,0.286411 -0.07878,0 -0.143277,0.06461 -0.143277,0.14313 0,0.07879 -0.06446,0.143277 -0.143247,0.143277 -0.07878,0 -0.143278,0.0646 -0.143278,0.143043 0,0.103367 -0.106106,0.14313 -0.381961,0.14313 -0.275856,0 -0.381941,-0.03992 -0.381941,-0.14313 0,-0.0944 -0.09437,-0.143043 -0.276251,-0.143043 -0.15746,0 -0.299879,-0.06134 -0.331212,-0.143277 -0.03027,-0.07879 -0.120807,-0.14313 -0.201184,-0.14313 -0.08044,0 -0.146235,-0.04153 -0.146235,-0.09358 0,-0.05179 -0.107437,-0.120624 -0.238733,-0.153659 -0.131289,-0.03347 -0.238737,-0.119644 -0.238737,-0.192659 0,-0.07307 -0.06446,-0.132941 -0.143276,-0.132941 -0.07878,0 -0.143249,-0.0646 -0.143249,-0.143364 0,-0.07879 -0.04217,-0.143043 -0.09369,-0.143043 -0.05154,0 -0.120625,-0.107393 -0.153577,-0.238728 -0.03284,-0.131251 -0.119706,-0.23873 -0.192795,-0.23873 -0.07307,0 -0.132913,-0.0491 -0.132913,-0.108372 0,-0.0594 -0.107459,-0.208103 -0.238732,-0.329671 -0.131304,-0.121693 -0.238733,-0.266292 -0.238733,-0.321358 0,-0.05458 -0.06446,-0.100056 -0.143277,-0.100056 -0.07878,0 -0.143276,-0.06461 -0.143276,-0.143117 0,-0.07879 -0.06446,-0.143364 -0.143249,-0.143364 -0.07878,0 -0.143276,-0.0646 -0.143276,-0.143043 0,-0.07879 -0.06446,-0.143364 -0.143277,-0.143364 -0.08092,0 -0.143248,-0.08545 -0.143248,-0.196552 0,-0.108075 -0.04176,-0.170833 -0.09269,-0.139457 -0.05096,0.03074 -0.120104,-0.05232 -0.15361,-0.185214 -0.03354,-0.133379 -0.12065,-0.242667 -0.193792,-0.242667 -0.07307,0 -0.132886,-0.06463 -0.132886,-0.143364 0,-0.07879 -0.06446,-0.143043 -0.143248,-0.143043 -0.07878,0 -0.143277,-0.06464 -0.143277,-0.14313 0,-0.07879 -0.06446,-0.14313 -0.143277,-0.14313 -0.07878,0 -0.143276,-0.06464 -0.143276,-0.143365 0,-0.07887 -0.06446,-0.143043 -0.143249,-0.143043 -0.07878,0 -0.143276,-0.06461 -0.143276,-0.143276 0,-0.07879 -0.06446,-0.143042 -0.143248,-0.143042 -0.07878,0 -0.132488,-0.0367 -0.119378,-0.08151 0.01291,-0.04367 -0.158749,-0.259764 -0.381961,-0.477297 -0.223227,-0.217908 -0.405863,-0.438999 -0.405863,-0.491484 0,-0.05232 -0.06446,-0.0956 -0.143276,-0.0956 -0.07878,0 -0.143277,-0.06464 -0.143277,-0.143043 0,-0.07879 -0.06446,-0.143131 -0.143277,-0.143131 -0.07878,0 -0.143246,-0.06464 -0.143246,-0.143042 0,-0.07879 -0.05007,-0.143203 -0.111417,-0.143203 -0.06131,0 -0.08386,-0.02803 -0.05029,-0.06065 0.03366,-0.03399 -0.152564,-0.265049 -0.413772,-0.514245 -0.261236,-0.249246 -0.474959,-0.500866 -0.474959,-0.559497 0,-0.05872 -0.06446,-0.10659 -0.143247,-0.10659 -0.07878,0 -0.143278,-0.0594 -0.143278,-0.132954 0,-0.07316 -0.06446,-0.157846 -0.143247,-0.18795 -0.07878,-0.03021 -0.143277,-0.116245 -0.143277,-0.191059 0,-0.07479 -0.06446,-0.160681 -0.143276,-0.191057 -0.07878,-0.03076 -0.143278,-0.142266 -0.143278,-0.248871 0,-0.108746 -0.06289,-0.194023 -0.143246,-0.194023 -0.09551,0 -0.143277,-0.09548 -0.143277,-0.286414 0,-0.191057 -0.04772,-0.286352 -0.143276,-0.286352 -0.102795,0 -0.143279,-0.105017 -0.143279,-0.371688 0,-0.242289 -0.04997,-0.390942 -0.143246,-0.426703 -0.08373,-0.03286 -0.143277,-0.17526 -0.143277,-0.344554 0,-0.159199 -0.03742,-0.289432 -0.08328,-0.289432 -0.04576,0 -0.110788,-0.171842 -0.144347,-0.381991 -0.03363,-0.210083 -0.103565,-0.38193 -0.155413,-0.38193 -0.05181,0 -0.09437,-0.125819 -0.09437,-0.279566 0,-0.153804 -0.06101,-0.34056 -0.135488,-0.415099 -0.07453,-0.07453 -0.149698,-0.260256 -0.167111,-0.41268 -0.01824,-0.158701 -0.0826,-0.26694 -0.151002,-0.253298 -0.07696,0.01406 -0.119378,-0.09255 -0.119378,-0.303509 0,-0.180042 -0.06446,-0.391911 -0.143249,-0.470606 -0.07878,-0.07879 -0.143276,-0.253671 -0.143276,-0.388832 0,-0.154609 -0.0532,-0.245535 -0.143277,-0.245535 -0.102795,0 -0.143248,-0.104995 -0.143248,-0.371705 0,-0.24235 -0.04998,-0.390867 -0.143277,-0.426701 -0.09365,-0.03604 -0.143276,-0.184695 -0.143276,-0.429714 0,-0.245002 -0.04961,-0.393766 -0.143248,-0.429708 -0.09387,-0.03609 -0.143277,-0.184916 -0.143277,-0.431971 0,-0.207346 -0.04948,-0.393488 -0.109868,-0.413646 -0.06053,-0.02033 -0.130264,-0.281443 -0.155092,-0.5808 -0.02492,-0.299343 -0.08276,-0.544248 -0.128814,-0.544248 -0.04598,0 -0.08402,-0.182612 -0.08448,-0.405828 -0.0012,-0.622236 -0.112119,-1.409159 -0.191663,-1.360016 -0.03915,0.02421 -0.09029,-0.221524 -0.113764,-0.545994 -0.02394,-0.330945 -0.09182,-0.606308 -0.154641,-0.627238 -0.06266,-0.02089 -0.111912,-0.219848 -0.111912,-0.452239 0,-0.241502 -0.05987,-0.474792 -0.14319,-0.558171 -0.100254,-0.100562 -0.143175,-0.345849 -0.143175,-0.818753 0,-0.536557 -0.02959,-0.67525 -0.143188,-0.67525 -0.110061,0 -0.143276,-0.122358 -0.143276,-0.52819 0,-0.381428 -0.03992,-0.543469 -0.143248,-0.583146 -0.121322,-0.04698 -0.143394,-0.370566 -0.143394,-2.098299 0,-1.881321 0.01291,-2.042929 0.167112,-2.044275 0.14281,-0.0012 0.146264,-0.01465 0.02395,-0.09405 -0.09548,-0.06167 -0.103444,-0.09305 -0.02395,-0.09405 0.09126,-0.0011 0.119403,-0.426725 0.119403,-1.805557 0,-1.440278 0.0263,-1.81422 0.13093,-1.854336 0.09673,-0.03707 0.135473,-0.292298 0.148167,-0.976919 0.01251,-0.662917 0.05666,-0.96602 0.155512,-1.06492 0.09144,-0.09143 0.138226,-0.342125 0.138226,-0.74042 0,-0.382303 0.04607,-0.640374 0.126058,-0.706791 0.06938,-0.05745 0.136352,-0.330417 0.14894,-0.606403 0.01238,-0.275989 0.06653,-0.528767 0.119911,-0.561741 0.05333,-0.03305 0.120952,-0.238034 0.150116,-0.455673 0.02917,-0.217649 0.08474,-0.395729 0.123451,-0.395729 0.0387,0 0.09424,-0.178051 0.123463,-0.395726 0.02917,-0.217636 0.09307,-0.421766 0.142047,-0.453578 0.04902,-0.03193 0.11858,-0.219003 0.15477,-0.415932 0.03617,-0.196941 0.106854,-0.358106 0.157024,-0.358106 0.05029,0 0.09175,-0.225578 0.09248,-0.501309 0.0015,-0.59356 0.08292,-0.949259 0.200547,-0.876574 0.04643,0.02884 0.08462,-0.07558 0.08462,-0.231845 0,-0.156267 -0.05182,-0.301444 -0.115265,-0.322585 -0.07055,-0.02389 -0.130172,-0.304449 -0.153932,-0.724419 -0.0284,-0.50245 -0.07417,-0.685717 -0.171204,-0.685717 -0.08357,0 -0.132487,-0.105864 -0.132487,-0.286467 0,-0.157538 -0.04217,-0.286469 -0.09369,-0.286469 -0.05154,0 -0.120625,-0.107459 -0.153577,-0.238733 -0.03306,-0.13129 -0.09821,-0.238732 -0.145064,-0.238732 -0.0469,0 -0.08518,-0.06578 -0.08518,-0.14622 0,-0.08047 -0.06058,-0.1694683 -0.134638,-0.1979044 C 15.162183,9.9115666 15.075495,9.7840084 15.043443,9.6564865 15.01151,9.5289899 14.94309,9.424678 14.891588,9.424678 c -0.05154,0 -0.0937,-0.06446 -0.0937,-0.1432772 0,-0.078782 -0.06446,-0.1432772 -0.143248,-0.1432772 -0.07878,0 -0.143203,-0.06446 -0.143203,-0.1432761 0,-0.078782 -0.06446,-0.1432486 -0.143278,-0.1432486 -0.07878,0 -0.143276,-0.06446 -0.143276,-0.1432761 0,-0.078782 -0.06446,-0.1432772 -0.143248,-0.1432772 -0.07878,0 -0.143204,-0.06446 -0.143204,-0.1432178 0,-0.078782 -0.04849,-0.1432618 -0.108075,-0.1432618 -0.09362,0 -0.406373,-0.3055569 -0.822934,-0.8040144 -0.174075,-0.2083148 -0.156269,-0.8193176 0.02394,-0.8193176 0.07878,0 0.133219,-0.032259 0.121081,-0.071608 -0.03399,-0.1099043 0.335345,-0.5013127 0.473091,-0.5013127 0.06711,0 0.121999,-0.038284 0.121999,-0.085184 0,-0.0469 0.107459,-0.1120823 0.238731,-0.1450633 0.131303,-0.033057 0.238737,-0.1020514 0.238737,-0.1535792 0,-0.051522 0.108812,-0.09369 0.241719,-0.09369 0.132941,0 0.26646,-0.064457 0.296691,-0.1432761 0.03401,-0.088738 0.179354,-0.1432477 0.38196,-0.1432477 0.202559,0 0.347923,-0.054398 0.381962,-0.1432768 0.0315,-0.082136 0.174073,-0.1432622 0.334215,-0.1432622 0.160165,0 0.302701,-0.061146 0.334219,-0.1432768 0.04787,-0.1247147 0.687443,-0.1432769 4.954512,-0.1432769 3.834764,0 4.908204,0.025928 4.939344,0.1194041 0.02762,0.082762 0.283795,0.119404 0.835536,0.119404 0.551725,0 0.80795,-0.036563 0.835534,-0.119404 0.03076,-0.092358 0.773535,-0.1194041 3.284122,-0.1194041 1.903564,0 3.222336,0.035564 3.191098,0.086142 -0.02917,0.047357 0.208038,0.1164759 0.527406,0.1534977 0.660218,0.076666 1.806326,-0.019526 1.806326,-0.151774 0,-0.051217 1.063315,-0.088459 2.554353,-0.089177 2.526527,-0.00128 3.03138,-0.036004 2.929603,-0.2005484 -0.02967,-0.047676 0.556708,-0.084665 1.343576,-0.084665 0.77726,0 1.372904,0.037161 1.344032,0.083853 -0.09858,0.1594884 0.552319,0.2025968 3.06044,0.2025968 2.175042,0 2.518534,0.019526 2.518534,0.1432622 0,0.078782 0.06461,0.1432036 0.143131,0.1432036 0.07888,0 0.143129,0.06446 0.143129,0.1432769 0,0.078782 0.06461,0.1432036 0.14341,0.1432036 0.09464,0 0.143129,0.094754 0.143129,0.279648 0,0.1537886 -0.0646,0.3441168 -0.143129,0.4228793 -0.07886,0.078783 -0.14341,0.1892392 -0.14341,0.245538 0,0.056265 -0.0646,0.1023055 -0.143129,0.1023055 -0.07887,0 -0.143131,0.064457 -0.143131,0.1432774 0,0.078795 -0.0646,0.1432773 -0.143439,0.1432773 -0.07887,0 -0.143129,0.064457 -0.143129,0.1432761 0,0.078783 -0.0646,0.1432482 -0.143365,0.1432482 -0.07886,0 -0.143219,0.064457 -0.143219,0.1432761 0,0.078783 -0.06461,0.1432773 -0.143364,0.1432773 -0.07886,0 -0.143204,0.064457 -0.143204,0.1432761 0,0.078783 -0.06465,0.1432483 -0.143129,0.1432483 -0.07879,0 -0.143131,0.048957 -0.143131,0.1083797 0,0.059629 -0.102465,0.2033154 -0.227618,0.3193181 -0.12514,0.1159785 -0.257017,0.3035483 -0.292937,0.41679 -0.03611,0.1132439 -0.105523,0.2059035 -0.154498,0.2059035 -0.0491,0 -0.08901,0.06446 -0.08901,0.1432761 0,0.078782 -0.06462,0.1432772 -0.143129,0.1432772 -0.07879,0 -0.143218,0.06578 -0.143218,0.1462186 0,0.080443 -0.0646,0.1709906 -0.143131,0.2011834 -0.07879,0.030261 -0.14332,0.1578115 -0.14332,0.2834678 0,0.1394404 -0.05638,0.2285074 -0.143365,0.2285074 -0.08734,0 -0.143131,0.089067 -0.143131,0.2285305 0,0.1256594 -0.0646,0.2532324 -0.143364,0.2834784 -0.09457,0.0363 -0.143131,0.185829 -0.143131,0.439927 0,0.211742 -0.04316,0.384956 -0.09555,0.384956 -0.05231,0 -0.09549,0.06446 -0.09549,0.143276 0,0.07878 0.04375,0.143277 0.09549,0.143277 0.05232,0 0.09555,0.193359 0.09555,0.4297 0,0.318308 0.03665,0.429703 0.143131,0.429703 0.08957,0 0.143364,0.09051 0.143364,0.241726 0,0.132927 0.06465,0.266463 0.143131,0.296694 0.07879,0.03027 0.143365,0.157798 0.143365,0.283481 0,0.13944 0.05635,0.228502 0.14332,0.228502 0.07879,0 0.143131,0.06752 0.143131,0.150117 0,0.08252 0.06461,0.214518 0.143218,0.293296 0.07879,0.07878 0.143129,0.250669 0.143129,0.38196 0,0.131289 0.0646,0.303174 0.143278,0.381942 0.07879,0.07878 0.14313,0.290563 0.14313,0.470628 0,0.18006 0.03992,0.327377 0.08853,0.327377 0.048,0 0.118169,0.236336 0.154238,0.525196 0.03666,0.288861 0.103686,0.525189 0.150051,0.525189 0.04748,0 0.08438,0.125819 0.08438,0.279656 0,0.153803 0.0646,0.344117 0.143439,0.422873 0.0848,0.08489 0.143364,0.318305 0.143364,0.572939 0,0.254641 0.05872,0.488058 0.143409,0.572957 0.107349,0.107327 0.14313,0.372095 0.14313,1.057207 0,0.748762 0.02588,0.913979 0.143131,0.913979 0.114551,0 0.143364,0.143277 0.143364,0.716171 0,0.459926 0.03828,0.716172 0.105787,0.716172 0.05816,0 0.08011,0.06665 0.0491,0.148134 -0.03347,0.08495 -0.01647,0.123305 0.03723,0.08982 0.05816,-0.03622 0.09444,0.181514 0.09444,0.573615 0,0.347564 0.03776,0.608414 0.08474,0.579638 0.117055,-0.07236 0.19897,0.282315 0.200551,0.86862 9.2e-4,0.308844 0.04584,0.508219 0.120685,0.53308 0.08895,0.0296 0.12743,0.542933 0.151662,2.013635 0.01952,1.154448 0.06833,1.951591 0.119294,1.920144 0.05012,-0.03131 0.08707,0.446104 0.08707,1.139859 0,0.692747 -0.04045,1.218384 -0.0955,1.252635 -0.05637,0.03483 -0.09555,0.603879 -0.09555,1.384607 0,0.780717 0.03936,1.34984 0.09555,1.384604 0.05519,0.03461 0.0955,0.591718 0.0955,1.348127 0,0.835088 -0.03399,1.268325 -0.0955,1.230096 -0.06065,-0.03722 -0.09555,0.187698 -0.09555,0.608224 0,0.465771 -0.04368,0.710497 -0.14313,0.81048 -0.08034,0.08042 -0.143366,0.313752 -0.143366,0.532027 0,0.281929 -0.03936,0.388771 -0.14313,0.388771 -0.110159,0 -0.143364,0.122358 -0.143364,0.528191 0,0.381415 -0.03992,0.54347 -0.143278,0.58315 -0.116595,0.0445 -0.143364,0.273413 -0.143364,1.228148 0,0.954738 -0.02646,1.183426 -0.143131,1.228162 -0.10824,0.04098 -0.143349,0.216725 -0.143349,0.718435 0,0.409877 -0.04153,0.677258 -0.108372,0.699581 -0.06963,0.02211 -0.12586,0.462624 -0.15722,1.222352 -0.03398,0.814515 -0.08943,1.226756 -0.178107,1.315522 -0.07113,0.07116 -0.12928,0.27665 -0.12928,0.456692 0,0.180136 -0.04209,0.32741 -0.0944,0.32741 -0.05232,0 -0.121853,0.171752 -0.1554,0.381931 -0.03399,0.210079 -0.09858,0.38199 -0.144241,0.38199 -0.04584,0 -0.08323,0.0646 -0.08323,0.14313 0,0.07879 -0.06465,0.143028 -0.143131,0.143028 -0.07887,0 -0.14313,0.08275 -0.14313,0.184153 0,0.101442 -0.05816,0.242879 -0.130612,0.314724 -0.07184,0.07179 -0.160729,0.225353 -0.19741,0.341106 -0.03666,0.115797 -0.106986,0.210252 -0.15588,0.210252 -0.0491,0 -0.08895,0.128841 -0.08895,0.28641 0,0.191058 -0.04749,0.286358 -0.143131,0.286358 -0.09555,0 -0.143131,0.09548 -0.143131,0.28641 0,0.191058 -0.0475,0.286355 -0.14313,0.286355 -0.09549,0 -0.143131,0.09566 -0.143131,0.28636 0,0.157459 -0.04153,0.286357 -0.09365,0.286357 -0.05178,0 -0.123237,0.117673 -0.159392,0.261649 -0.03611,0.144009 -0.122851,0.318718 -0.192657,0.388839 -0.06974,0.06963 -0.127124,0.188517 -0.127124,0.263486 0,0.0751 -0.06465,0.136468 -0.143365,0.136468 -0.07879,0 -0.143131,0.06465 -0.143131,0.143219 0,0.07879 -0.04376,0.143043 -0.09549,0.143043 -0.05284,0 -0.09565,0.0646 -0.09565,0.143276 0,0.07879 -0.06464,0.143043 -0.143364,0.143043 -0.07888,0 -0.14313,0.06465 -0.14313,0.143306 0,0.07879 -0.06461,0.143115 -0.143219,0.143115 -0.07887,0 -0.143364,0.06465 -0.143364,0.143043 0,0.07879 -0.0646,0.143131 -0.143203,0.143131 -0.08901,0 -0.143131,0.0902 -0.143131,0.238677 0,0.148521 -0.05399,0.23873 -0.14313,0.23873 -0.07957,0 -0.143277,0.08483 -0.143277,0.191055 0,0.106117 -0.0633,0.191019 -0.14313,0.191019 -0.08901,0 -0.143277,0.0902 -0.143277,0.238673 0,0.148571 -0.05399,0.23873 -0.143366,0.23873 -0.07888,0 -0.14313,0.04528 -0.14313,0.1001 0,0.05397 -0.107437,0.199683 -0.238732,0.321304 -0.13125,0.121734 -0.238726,0.270069 -0.238726,0.329667 0,0.0594 -0.06464,0.108394 -0.143364,0.108394 -0.07879,0 -0.143277,0.06464 -0.143277,0.14313 0,0.07879 -0.0646,0.143043 -0.14313,0.143043 -0.07888,0 -0.143277,0.06465 -0.143277,0.143277 0,0.07879 -0.06461,0.143043 -0.14313,0.143043 -0.07886,0 -0.143131,0.0646 -0.143131,0.143129 0,0.07879 -0.048,0.14322 -0.108471,0.14322 -0.0594,0 -0.208034,0.107404 -0.329614,0.238732 -0.121706,0.131263 -0.266238,0.238676 -0.321257,0.238676 -0.05514,0 -0.100067,0.0646 -0.100067,0.143043 0,0.07879 -0.0646,0.143364 -0.143203,0.143364 -0.07879,0 -0.143131,0.0646 -0.143131,0.143131 0,0.07887 -0.06447,0.14313 -0.143276,0.14313 -0.07879,0 -0.143218,0.0646 -0.143218,0.143131 0,0.08901 -0.09019,0.143364 -0.238731,0.143364 -0.148521,0 -0.238728,0.05399 -0.238728,0.143043 0,0.07879 -0.06447,0.143364 -0.14313,0.143364 -0.07877,0 -0.143131,0.0646 -0.143131,0.143043 0,0.07879 -0.06445,0.143131 -0.143218,0.143131 -0.07877,0 -0.143277,0.0646 -0.143277,0.143117 0,0.07879 -0.06445,0.143129 -0.143276,0.143129 -0.07877,0 -0.143277,0.04153 -0.143277,0.09545 0,0.05231 -0.06487,0.09548 -0.144185,0.09548 -0.0793,0 -0.21775,0.08604 -0.307695,0.191058 -0.08993,0.105061 -0.202766,0.191054 -0.250706,0.191054 -0.04804,0 -0.186761,0.107404 -0.308443,0.238676 -0.121454,0.13129 -0.308984,0.238672 -0.416516,0.238672 -0.110159,0 -0.195545,0.06268 -0.195545,0.143043 0,0.09549 -0.09549,0.14313 -0.286462,0.14313 -0.191017,0 -0.286472,0.0475 -0.286472,0.143043 0,0.07879 -0.06446,0.143131 -0.143247,0.143131 -0.07878,0 -0.143248,-0.06462 -0.143248,-0.143131 z M 32.990264,33.487981 c -0.03248,-0.05259 -0.228362,-0.09549 -0.435348,-0.09549 -0.270849,0 -0.376336,-0.03995 -0.376336,-0.143277 0,-0.07878 -0.06446,-0.143247 -0.143277,-0.143247 -0.07879,0 -0.143247,-0.06446 -0.143247,-0.143247 0,-0.07878 -0.06446,-0.143277 -0.143278,-0.143277 -0.07878,0 -0.143276,-0.06446 -0.143276,-0.143262 0,-0.07879 -0.06446,-0.143249 -0.143277,-0.143249 -0.08908,0 -0.143246,-0.09018 -0.143246,-0.23873 0,-0.148522 -0.05413,-0.238739 -0.143279,-0.238739 -0.0796,0 -0.143276,-0.08488 -0.143276,-0.190976 0,-0.105028 -0.03994,-0.191021 -0.08904,-0.191021 -0.04902,0 -0.119088,-0.09467 -0.155831,-0.210401 -0.03671,-0.115713 -0.125567,-0.269179 -0.197389,-0.341026 -0.07185,-0.07185 -0.130651,-0.213503 -0.130651,-0.314801 0,-0.101288 -0.06446,-0.184154 -0.143277,-0.184154 -0.08912,0 -0.143277,-0.09019 -0.143277,-0.238733 0,-0.131291 -0.04217,-0.238729 -0.0937,-0.238729 -0.05152,0 -0.122612,-0.118132 -0.157943,-0.2626 -0.03542,-0.144419 -0.111392,-0.293355 -0.168938,-0.330963 -0.13097,-0.08558 -0.11449,-3.798482 0.01718,-3.884178 0.04902,-0.03193 0.112252,-0.267451 0.140335,-0.523419 0.02829,-0.255973 0.09537,-0.492725 0.149488,-0.526154 0.05404,-0.03332 0.127869,-0.178482 0.164012,-0.322404 0.03608,-0.143907 0.104016,-0.261643 0.150776,-0.261643 0.0469,0 0.08518,-0.06446 0.08518,-0.143248 0,-0.07879 0.06446,-0.143277 0.143276,-0.143277 0.07878,0 0.143277,-0.06446 0.143277,-0.143276 0,-0.08745 0.08906,-0.143277 0.228514,-0.143277 0.125674,0 0.253236,-0.06446 0.283467,-0.143248 0.03026,-0.07878 0.102366,-0.143277 0.160261,-0.143277 0.05793,0 0.169767,-0.06446 0.248536,-0.143276 0.09218,-0.09212 0.328159,-0.143247 0.661605,-0.143247 0.350275,0 0.518854,-0.0387 0.519828,-0.119379 0.0011,-0.08745 0.02352,-0.08451 0.08395,0.01101 0.0696,0.109857 0.09174,0.109857 0.141755,0 0.04593,-0.100782 0.07187,-0.103213 0.114986,-0.01101 0.03219,0.0691 0.233413,0.119379 0.477455,0.119379 0.337456,0 0.422037,0.03332 0.423226,0.167094 0.0012,0.14281 0.01465,0.146264 0.09405,0.02394 0.06172,-0.09548 0.09304,-0.103444 0.09405,-0.02394 7.62e-4,0.06566 0.06725,0.119379 0.147683,0.119379 0.08042,0 0.170973,0.06446 0.201185,0.143277 0.03027,0.07878 0.137683,0.143276 0.238732,0.143276 0.101046,0 0.208511,0.06446 0.238738,0.143263 0.03027,0.07878 0.114829,0.143277 0.18801,0.143277 0.07317,0 0.133047,0.06446 0.133047,0.143276 0,0.07878 0.06446,0.143277 0.143249,0.143277 0.08909,0 0.143276,0.09018 0.143276,0.238733 0,0.148522 0.05413,0.238737 0.143247,0.238737 0.07879,0 0.143248,0.05987 0.143248,0.133032 0,0.07317 0.06446,0.157767 0.143277,0.187968 0.07879,0.03015 0.143247,0.120807 0.143247,0.201185 0,0.08042 0.04217,0.146206 0.09372,0.146206 0.05154,0 0.120637,0.107459 0.153611,0.238735 0.03283,0.131302 0.09354,0.238736 0.134683,0.238736 0.04116,0 0.104335,0.117697 0.140422,0.261649 0.03609,0.143907 0.0998,0.283558 0.14152,0.310333 0.0418,0.02676 0.101739,0.26321 0.133438,0.5254 0.03162,0.262185 0.101563,0.491362 0.155348,0.509289 0.12988,0.04319 0.12988,1.708875 0,1.752155 -0.05379,0.01803 -0.123476,0.247074 -0.154963,0.509277 -0.03138,0.262186 -0.09489,0.49103 -0.140949,0.508523 -0.0461,0.01771 -0.08379,0.133921 -0.08379,0.258668 0,0.298425 -0.3018,0.89778 -0.453578,0.900768 -0.06566,0.0013 -0.119379,0.109813 -0.119379,0.241076 0,0.148522 -0.05412,0.238737 -0.143247,0.238737 -0.07879,0 -0.143247,0.06446 -0.143247,0.143276 0,0.07878 -0.06446,0.143277 -0.143277,0.143277 -0.07879,0 -0.143247,0.06446 -0.143247,0.143276 0,0.07879 -0.06446,0.143247 -0.143278,0.143247 -0.07879,0 -0.143247,0.06446 -0.143247,0.143248 0,0.07878 -0.05987,0.143277 -0.133046,0.143277 -0.07317,0 -0.157749,0.06446 -0.187991,0.143248 -0.03015,0.07878 -0.142252,0.143263 -0.24894,0.143263 -0.108757,0 -0.194006,0.06288 -0.194006,0.143246 0,0.0955 -0.09548,0.143277 -0.286471,0.143277 -0.191001,0 -0.286462,0.04772 -0.286462,0.143248 0,0.108449 -0.11737,0.143277 -0.483089,0.143277 -0.297732,0 -0.460439,0.03666 -0.424061,0.09548 0.03246,0.0526 0.01595,0.09548 -0.0364,0.09548 -0.0526,0 -0.122012,-0.0431 -0.154513,-0.09548 z"
       id="path1-6" />
  </g>
</svg>
