<?xml version="1.0" encoding="UTF-8" standalone="no"?>
<svg
   width="64"
   height="64"
   version="1.1"
   id="svg73"
   sodipodi:docname="steam_icon_2842040.svg"
   inkscape:version="1.4.2 (ebf0e940d0, 2025-05-08)"
   xmlns:inkscape="http://www.inkscape.org/namespaces/inkscape"
   xmlns:sodipodi="http://sodipodi.sourceforge.net/DTD/sodipodi-0.dtd"
   xmlns="http://www.w3.org/2000/svg"
   xmlns:svg="http://www.w3.org/2000/svg"
   xmlns:rdf="http://www.w3.org/1999/02/22-rdf-syntax-ns#"
   xmlns:cc="http://creativecommons.org/ns#"
   xmlns:dc="http://purl.org/dc/elements/1.1/">
  <metadata
     id="metadata77">
    <rdf:RDF>
      <cc:Work
         rdf:about="">
        <dc:format>image/svg+xml</dc:format>
        <dc:type
           rdf:resource="http://purl.org/dc/dcmitype/StillImage" />
      </cc:Work>
    </rdf:RDF>
  </metadata>
  <sodipodi:namedview
     pagecolor="#f5f7fa"
     bordercolor="#666666"
     borderopacity="1"
     objecttolerance="10"
     gridtolerance="10"
     guidetolerance="10"
     inkscape:pageopacity="0"
     inkscape:pageshadow="2"
     inkscape:window-width="1377"
     inkscape:window-height="886"
     id="namedview75"
     showgrid="false"
     inkscape:zoom="6.2890624"
     inkscape:cx="47.622361"
     inkscape:cy="45.396274"
     inkscape:window-x="147"
     inkscape:window-y="75"
     inkscape:window-maximized="0"
     inkscape:current-layer="g877"
     inkscape:document-rotation="0"
     inkscape:pagecheckerboard="0"
     inkscape:showpageshadow="2"
     inkscape:deskcolor="#d1d1d1" />
  <defs
     id="defs29" />
  <circle
     cx="32.516094"
     cy="31.877844"
     r="0"
     fill="url(#b)"
     stroke-width="1.5715"
     id="circle41"
     style="fill:url(#b)" />
  <g
     aria-label="GZ"
     transform="matrix(1.2212657,0,0,0.81882264,0.4960938,-0.1661539)"
     id="text93"
     style="font-weight:bold;font-size:11.5263px;line-height:1.25;font-family:sans-serif;-inkscape-font-specification:'sans-serif Bold';fill:#f2f2f2;stroke-width:0.288159" />
  <g
     id="g877"
     transform="matrix(1.1,0,0,1.1,-3.1845928,-3.2065454)">
    <path
       style="fill:#dfdfdf;fill-opacity:1;stroke:none;stroke-width:0.820405;stroke-dasharray:none;stroke-opacity:0.6"
       d="m 19.450773,46.700635 c 1.887297,-1.969179 3.625377,-3.647518 3.862373,-3.729617 0.23704,-0.08201 1.413028,0.107063 2.613415,0.420325 2.900055,0.75682 4.965954,0.485558 10.277095,-1.349532 5.110616,-1.765981 6.223465,-2.532541 7.953508,-5.480323 0.659048,-1.122953 1.393672,-1.968761 1.846118,-2.125504 0.413334,-0.143174 2.30229,0.0246 4.19772,0.372833 6.253158,1.148895 8.411226,0.911778 8.951124,-0.983465 0.765477,-2.687151 -2.240064,-4.107847 -9.172873,-4.335935 -1.26627,-0.04162 -2.316074,-0.115494 -2.332911,-0.164082 -0.01647,-0.04858 2.2897,-0.872275 5.125593,-1.830523 l 5.156197,-1.742177 0.435598,-1.096969 c 0.582324,-1.466727 0.133877,-2.626031 -1.172482,-3.031257 -0.932672,-0.289294 -1.490103,-0.157023 -6.065977,1.439521 -3.436003,1.198998 -5.075038,1.653903 -5.152378,1.430667 -0.06203,-0.180099 0.416182,-0.879053 1.06357,-1.553265 1.640054,-1.70811 1.640583,-1.70853 1.523365,-1.184478 -0.06938,0.310135 -0.01137,0.354045 0.172018,0.129453 0.152304,-0.18698 0.161513,-0.434104 0.01967,-0.549176 -0.141183,-0.115034 0.228825,-0.538947 0.822336,-0.941976 1.280795,-0.869412 2.97669,-3.88141 2.847811,-5.057082 -0.06188,-0.565513 -0.381758,-1.013257 -1.013767,-1.419029 -1.868934,-1.200057 -4.49385,0.618969 -8.45596,5.85982 -2.083635,2.756099 -3.068948,3.373918 -4.94722,3.102033 -1.763032,-0.255187 -7.001367,0.826145 -10.236003,2.113005 -2.377451,0.945892 -3.530416,1.61564 -5.830341,3.38703 -1.576759,1.214422 -3.128107,2.211348 -3.447422,2.215401 -0.319271,0.004 -2.994544,-0.2979 -5.944932,-0.670976 -4.6093392,-0.582872 -5.5093865,-0.600151 -6.3950145,-0.122771 -1.4149253,0.76267 -1.7016266,1.368831 -1.2508702,2.644628 0.6063347,1.715275 3.1237601,2.840224 5.9752807,2.669644 2.070433,-0.12385 4.829265,0.371563 4.813051,0.864295 -0.0088,0.266927 -1.56675,1.09572 -4.462576,2.374083 -2.4469897,1.080228 -4.7130846,2.19388 -5.0357735,2.474841 -1.2421008,1.081483 -0.6917824,3.214569 1.0470784,4.058611 0.808617,0.39258 1.0522604,0.336976 4.1331951,-0.941155 1.80066,-0.747059 3.634973,-1.577752 4.076241,-1.846043 1.414803,-0.86016 0.963093,0.309278 -0.79485,2.057642 -1.938384,1.927889 -3.019517,4.23939 -2.391602,5.113304 0.627257,0.873094 1.652119,1.29708 2.766288,1.144495 0.814326,-0.111525 1.609854,-0.779722 4.424318,-3.716314 z m -4.821676,1.073838 c 0.13113,-0.356389 1.601068,-1.997295 3.266661,-3.646498 3.704296,-3.667871 4.305639,-4.544631 3.906728,-5.696102 -0.164507,-0.474969 -0.500182,-0.908532 -0.745885,-0.963495 -0.565389,-0.126484 -2.193533,0.570547 -5.073568,2.171922 -2.518773,1.400543 -7.4787639,3.232019 -7.6232731,2.814896 -0.1519683,-0.438677 0.6093582,-0.92225 3.7054691,-2.353691 1.613357,-0.745895 3.899268,-1.853055 5.079811,-2.460304 1.180557,-0.607268 2.398956,-1.22528 2.707524,-1.373388 0.556214,-0.266957 0.726516,-0.729397 0.68903,-1.870964 -0.02962,-0.902008 3.712922,-4.446741 6.03768,-5.718562 1.156138,-0.632504 3.482862,-1.548408 5.410607,-2.129911 2.830031,-0.85366 3.749069,-0.993995 5.629635,-0.859461 1.236092,0.08841 2.723444,0.07231 3.305208,-0.03573 1.000011,-0.185809 1.066218,-0.139778 1.212767,0.842886 0.09919,0.665178 0.331231,1.102764 0.644046,1.215469 0.296488,0.106766 3.027961,-0.691574 6.938901,-2.028082 3.547522,-1.212078 6.555384,-2.152979 6.684352,-2.090332 0.80562,0.391066 -0.886647,1.164164 -5.980589,2.732194 -6.173638,1.900399 -6.846257,2.291505 -6.211118,3.611343 0.395891,0.82293 1.389058,1.020246 8.683488,1.725461 2.838111,0.274374 4.406365,0.908029 3.871608,1.5643 -0.246427,0.302446 -3.163944,-0.04047 -8.275952,-0.972817 -1.781704,-0.324939 -3.563089,-0.479029 -3.958663,-0.342412 -0.422604,0.145941 -1.090413,0.939991 -1.619268,1.92535 -1.6307,3.038233 -2.62146,3.735189 -7.952434,5.594182 -4.496651,1.56759 -4.739594,1.618954 -6.806589,1.412396 -1.178883,-0.117527 -2.751956,-0.520912 -3.495734,-0.896403 -0.743796,-0.375496 -1.502449,-0.630723 -1.685912,-0.567165 -0.183389,0.06356 -0.853838,0.780093 -1.489698,1.592311 -1.830337,2.337987 -6.227114,7.146 -6.680651,7.305511 -0.349665,0.122984 -0.376185,0.04712 -0.174215,-0.50285 z M 39.422179,32.109028 c 0.41264,-0.359702 -0.08984,-1.84367 -0.729332,-2.154137 -1.063273,-0.51612 -2.424913,0.592298 -2.05154,1.670052 0.344739,0.995103 1.886863,1.263531 2.780948,0.484064 z m -10.782638,3.138439 c 0.306871,-1.219367 -0.540327,-2.027183 -1.703485,-1.62422 -1.49423,0.517657 -1.629237,1.967767 -0.238296,2.559246 1.015915,0.431995 1.677977,0.113195 1.941781,-0.935026 z m -12.40791,-1.702848 c -1.357177,-0.170213 -3.514562,-0.310238 -4.794199,-0.311122 -2.5184222,-0.0017 -5.2145559,-0.895509 -4.3243892,-1.433477 0.2683816,-0.162185 1.007279,-0.219157 1.6421132,-0.126578 0.6348188,0.09258 2.103492,0.280416 3.263718,0.417495 1.160226,0.137053 2.594039,0.333875 3.186249,0.437334 0.592165,0.103444 1.719136,0.285828 2.504265,0.40529 2.197044,0.334271 2.302984,0.377312 2.284845,0.928205 -0.01481,0.448411 -0.100045,0.481432 -0.65611,0.253598 -0.351425,-0.143848 -1.749422,-0.400807 -3.106597,-0.571023 z m 26.321821,-9.186901 c -0.03882,-0.111756 2.847151,-3.651453 4.732833,-5.804973 0.454077,-0.518681 0.5205,-0.547477 0.267444,-0.115954 -0.185028,0.315517 -0.333712,0.766393 -0.330191,1.001933 0.0036,0.23553 -0.941689,1.410704 -2.100436,2.611488 -2.156574,2.234828 -2.490753,2.534963 -2.569492,2.307682 z m 5.866794,-6.569256 c -0.388899,-0.09159 -0.381495,-0.275484 0.03313,-0.849465 0.291471,-0.402942 0.79439,-0.824177 1.117575,-0.93614 0.550971,-0.190866 0.559797,-0.141256 0.141198,0.794046 -0.491978,1.099835 -0.572177,1.161249 -1.29251,0.991562 z"
       id="path1-26" />
  </g>
</svg>
