<?xml version="1.0" encoding="UTF-8" standalone="no"?>
<svg
   width="64"
   height="64"
   version="1.1"
   id="svg73"
   sodipodi:docname="steam_icon_489830.svg"
   inkscape:version="1.4.2 (ebf0e940d0, 2025-05-08)"
   xmlns:inkscape="http://www.inkscape.org/namespaces/inkscape"
   xmlns:sodipodi="http://sodipodi.sourceforge.net/DTD/sodipodi-0.dtd"
   xmlns="http://www.w3.org/2000/svg"
   xmlns:svg="http://www.w3.org/2000/svg"
   xmlns:rdf="http://www.w3.org/1999/02/22-rdf-syntax-ns#"
   xmlns:cc="http://creativecommons.org/ns#"
   xmlns:dc="http://purl.org/dc/elements/1.1/">
  <metadata
     id="metadata77">
    <rdf:RDF>
      <cc:Work
         rdf:about="">
        <dc:format>image/svg+xml</dc:format>
        <dc:type
           rdf:resource="http://purl.org/dc/dcmitype/StillImage" />
      </cc:Work>
    </rdf:RDF>
  </metadata>
  <sodipodi:namedview
     pagecolor="#f5f7fa"
     bordercolor="#666666"
     borderopacity="1"
     objecttolerance="10"
     gridtolerance="10"
     guidetolerance="10"
     inkscape:pageopacity="0"
     inkscape:pageshadow="2"
     inkscape:window-width="1377"
     inkscape:window-height="886"
     id="namedview75"
     showgrid="false"
     inkscape:zoom="6.2890624"
     inkscape:cx="47.622361"
     inkscape:cy="45.396274"
     inkscape:window-x="147"
     inkscape:window-y="75"
     inkscape:window-maximized="0"
     inkscape:current-layer="g877"
     inkscape:document-rotation="0"
     inkscape:pagecheckerboard="0"
     inkscape:showpageshadow="2"
     inkscape:deskcolor="#d1d1d1" />
  <defs
     id="defs29">
    <linearGradient
       id="b"
       x1="399.57"
       x2="399.57"
       y1="545.8"
       y2="517.8"
       gradientTransform="matrix(2.1429,0,0,2.1429,-825.86391,-1107.6662)"
       gradientUnits="userSpaceOnUse">
      <stop
         stop-color="#3889e9"
         offset="0"
         id="stop2" />
      <stop
         stop-color="#5ea5fb"
         offset="1"
         id="stop4" />
    </linearGradient>
  </defs>
  <circle
     cx="32.516094"
     cy="31.877844"
     r="0"
     fill="url(#b)"
     stroke-width="1.5715"
     id="circle41"
     style="fill:url(#b)" />
  <g
     aria-label="GZ"
     transform="matrix(1.2212657,0,0,0.81882264,0.4960938,-0.1661539)"
     id="text93"
     style="font-weight:bold;font-size:11.5263px;line-height:1.25;font-family:sans-serif;-inkscape-font-specification:'sans-serif Bold';fill:#f2f2f2;stroke-width:0.288159" />
  <g
     id="g877"
     transform="matrix(1.1,0,0,1.1,-3.1845928,-3.2065454)">
    <path
       style="fill:#dfdfdf;fill-opacity:1;stroke:none;stroke-width:0.69077;stroke-dasharray:none;stroke-opacity:0.6"
       d="m 30.58973,59.703267 c -1.088109,-0.499673 -1.331765,-0.86684 -1.944977,-2.931008 -0.805866,-2.712632 -1.473373,-4.055147 -3.00525,-6.044276 -1.641556,-2.131507 -4.836353,-5.348974 -6.564641,-6.611197 -0.690912,-0.50456 -1.230887,-0.942756 -1.199952,-0.973697 0.03097,-0.03207 0.617217,0.01186 1.302833,0.09383 0.685622,0.08264 1.244837,0.102135 1.24271,0.04404 -0.0024,-0.05861 -0.484752,-0.416173 -1.0725,-0.794602 -1.24332,-0.800764 -2.949425,-2.269377 -3.217212,-2.769749 -0.16316,-0.304852 -0.05653,-0.28781 0.879454,0.140686 0.585837,0.268137 1.488743,0.524234 2.006479,0.568963 l 0.941348,0.08171 -0.839348,-0.54695 c -1.130969,-0.737412 -2.886903,-2.66917 -3.467751,-3.815425 -0.729413,-1.439418 -1.948235,-7.763662 -1.934624,-10.03838 0.0044,-0.765486 0.07692,-0.62979 0.821938,1.541881 1.600016,4.663898 2.800331,6.548533 4.463135,7.007658 0.697948,0.192717 1.422951,0.10307 1.422951,-0.175917 0,-0.08957 -0.61621,-1.905369 -1.369359,-4.035082 -1.998313,-5.650752 -2.244802,-6.648101 -2.247719,-9.094814 -0.0029,-2.4284 0.20842,-3.137321 1.667964,-5.595636 1.816549,-3.059631 1.856285,-3.191661 1.852624,-6.1552065 -0.0026,-2.1499511 -0.07795,-2.8710639 -0.425912,-4.0816701 -0.23248,-0.8087123 -0.387462,-1.5056173 -0.344398,-1.5486765 0.115253,-0.1152646 1.183211,2.9108098 1.822473,5.1640478 0.81705,2.8798893 0.862667,3.9539413 0.278231,6.5506983 -0.827011,3.67455 -0.62311,6.141248 0.730498,8.837305 0.663642,1.321799 2.906153,4.231289 3.011177,3.906771 0.03149,-0.09699 0.264098,-1.29889 0.51713,-2.670885 0.253039,-1.371993 0.496148,-2.530631 0.540267,-2.574741 0.04415,-0.0442 0.40442,0.741095 0.800672,1.744913 0.39752,1.007044 0.741981,1.6595 0.768476,1.455619 0.02641,-0.203232 0.24981,-2.579363 0.496456,-5.280294 0.246639,-2.700937 0.481537,-4.943889 0.521995,-4.984349 0.04037,-0.04039 0.698363,1.97981 1.462018,4.489488 0.763662,2.509673 1.43044,4.562515 1.48173,4.561882 0.05136,-6.46e-4 0.718297,-2.053783 1.482234,-4.562543 0.763932,-2.508749 1.421848,-4.528491 1.462029,-4.488306 0.07147,0.07147 0.965882,9.354404 0.970396,10.071807 0.0035,0.574714 0.265883,0.141461 0.930194,-1.536688 0.336596,-0.850306 0.646814,-1.511206 0.689349,-1.468668 0.0801,0.0801 0.99404,4.882505 0.99404,5.223375 0,0.384435 1.176643,-0.939886 2.228417,-2.508087 1.43998,-2.147039 1.890893,-3.483478 2.007237,-5.949068 0.07899,-1.675084 0.01894,-2.282342 -0.414381,-4.196727 -0.605399,-2.673552 -0.564588,-3.718058 0.259129,-6.6215023 0.639199,-2.253238 1.707193,-5.2793111 1.82248,-5.1640478 0.04404,0.043004 -0.111913,0.7399642 -0.344422,1.5486741 -0.34795,1.2106074 -0.423292,1.931719 -0.425903,4.0816769 -0.0042,2.9635381 0.03643,3.0955711 1.852619,6.1551991 1.461472,2.461583 1.671395,3.167003 1.665078,5.595637 -0.0067,2.490935 -0.271901,3.573493 -2.217484,9.040254 -0.768192,2.158566 -1.396694,3.998433 -1.396694,4.088588 0,0.27995 0.723939,0.36999 1.422943,0.176996 1.665127,-0.45976 2.857882,-2.333584 4.448631,-6.988731 0.751931,-2.200439 0.821042,-2.330306 0.830801,-1.5608 0.02772,2.224501 -1.194955,8.589822 -1.928977,10.038378 -0.580129,1.144838 -2.335255,3.076449 -3.467794,3.816551 l -0.839347,0.548498 1.04688,-0.09779 c 0.58737,-0.05514 1.472465,-0.313464 2.016432,-0.589071 0.872736,-0.442255 0.949983,-0.454791 0.773908,-0.12578 -0.276689,0.516683 -1.965307,1.975622 -3.227149,2.787957 -0.587846,0.37834 -1.07037,0.735904 -1.072489,0.794507 -0.0026,0.05861 0.557168,0.03913 1.242698,-0.04404 0.68563,-0.08252 1.271901,-0.124835 1.302822,-0.09387 0.03098,0.03206 -0.509019,0.469063 -1.199935,0.973702 -1.728284,1.262222 -4.923083,4.479695 -6.564642,6.61121 -1.531873,1.989106 -2.199388,3.331631 -3.005255,6.044271 -0.304078,1.023557 -0.698221,2.024697 -0.875878,2.224706 -0.462261,0.520542 -1.705637,1.048898 -2.468005,1.048898 -0.359058,0 -0.988563,-0.154094 -1.398909,-0.342573 z m -0.02418,-6.259792 c 0.282732,-0.431556 0.272985,-0.485483 -0.186153,-1.0312 -0.383049,-0.455205 -0.538711,-0.53087 -0.743236,-0.361165 -0.33359,0.2768 -0.32684,0.615387 0.02581,1.297426 0.346025,0.669079 0.515611,0.686911 0.903514,0.09498 z m 3.749927,-0.0949 c 0.342575,-0.662423 0.358011,-0.980327 0.06212,-1.276295 -0.172337,-0.172409 -0.319534,-0.131409 -0.652818,0.181715 -0.473796,0.445041 -0.528296,0.740199 -0.237219,1.284095 0.269244,0.503092 0.496762,0.451073 0.827996,-0.189612 z M 28.665883,42.181543 c 0.272805,-0.109967 0.217288,-0.274677 -0.419987,-1.245901 -1.138912,-1.735656 -4.039938,-4.496597 -4.373876,-4.162666 -0.144771,0.14477 0.457259,1.849636 1.037628,2.938541 0.704258,1.321318 1.391064,2.008568 2.348327,2.34982 0.807948,0.288001 0.959665,0.300988 1.407908,0.12025 z m 7.85102,-0.04404 c 0.995437,-0.277231 1.932772,-1.172583 2.590392,-2.475332 0.440171,-0.871957 1.071924,-2.544951 1.086284,-2.876649 0.0011,-0.02555 -0.118846,-0.04668 -0.266577,-0.04668 -0.401096,0 -3.509101,3.112448 -4.281425,4.287529 -0.599078,0.911496 -0.636938,1.037552 -0.346207,1.152642 0.446894,0.176943 0.425497,0.177699 1.217519,-0.04349 z"
       id="path1-0" />
  </g>
</svg>
