<?xml version="1.0" encoding="UTF-8" standalone="no"?>
<svg
   width="64"
   height="64"
   version="1.1"
   id="svg73"
   sodipodi:docname="steam_icon_424370.svg"
   inkscape:version="1.4.2 (ebf0e940d0, 2025-05-08)"
   xmlns:inkscape="http://www.inkscape.org/namespaces/inkscape"
   xmlns:sodipodi="http://sodipodi.sourceforge.net/DTD/sodipodi-0.dtd"
   xmlns="http://www.w3.org/2000/svg"
   xmlns:svg="http://www.w3.org/2000/svg"
   xmlns:rdf="http://www.w3.org/1999/02/22-rdf-syntax-ns#"
   xmlns:cc="http://creativecommons.org/ns#"
   xmlns:dc="http://purl.org/dc/elements/1.1/">
  <metadata
     id="metadata77">
    <rdf:RDF>
      <cc:Work
         rdf:about="">
        <dc:format>image/svg+xml</dc:format>
        <dc:type
           rdf:resource="http://purl.org/dc/dcmitype/StillImage" />
      </cc:Work>
    </rdf:RDF>
  </metadata>
  <sodipodi:namedview
     pagecolor="#f5f7fa"
     bordercolor="#666666"
     borderopacity="1"
     objecttolerance="10"
     gridtolerance="10"
     guidetolerance="10"
     inkscape:pageopacity="0"
     inkscape:pageshadow="2"
     inkscape:window-width="1377"
     inkscape:window-height="886"
     id="namedview75"
     showgrid="false"
     inkscape:zoom="6.2890624"
     inkscape:cx="47.622361"
     inkscape:cy="45.396274"
     inkscape:window-x="147"
     inkscape:window-y="75"
     inkscape:window-maximized="0"
     inkscape:current-layer="g877"
     inkscape:document-rotation="0"
     inkscape:pagecheckerboard="0"
     inkscape:showpageshadow="2"
     inkscape:deskcolor="#d1d1d1" />
  <defs
     id="defs29">
    <linearGradient
       id="b"
       x1="399.57"
       x2="399.57"
       y1="545.8"
       y2="517.8"
       gradientTransform="matrix(2.1429,0,0,2.1429,-825.86391,-1107.6662)"
       gradientUnits="userSpaceOnUse">
      <stop
         stop-color="#3889e9"
         offset="0"
         id="stop2" />
      <stop
         stop-color="#5ea5fb"
         offset="1"
         id="stop4" />
    </linearGradient>
  </defs>
  <circle
     cx="32.516094"
     cy="31.877844"
     r="0"
     fill="url(#b)"
     stroke-width="1.5715"
     id="circle41"
     style="fill:url(#b)" />
  <g
     aria-label="GZ"
     transform="matrix(1.2212657,0,0,0.81882264,0.4960938,-0.1661539)"
     id="text93"
     style="font-weight:bold;font-size:11.5263px;line-height:1.25;font-family:sans-serif;-inkscape-font-specification:'sans-serif Bold';fill:#f2f2f2;stroke-width:0.288159" />
  <g
     id="g877"
     transform="matrix(1.1,0,0,1.1,-3.1845928,-3.2065454)">
    <path
       style="fill:#dfdfdf;fill-opacity:1;stroke:none;stroke-width:0.854745;stroke-dasharray:none;stroke-opacity:0.6"
       d="M 23.14907,55.667785 C 22.999308,55.472201 20.720142,48.890062 18.084292,41.040829 15.269533,32.658828 12.965761,26.248751 12.50168,25.507613 11.586086,24.045426 10.175534,23.173495 8.2886749,22.903327 6.9170414,22.706923 6.2937994,22.077361 7.017423,21.619167 7.2301543,21.484485 8.3216166,21.372348 9.4429137,21.37002 10.95577,21.36705 11.448763,21.276432 11.354203,21.01938 11.284108,20.82889 10.570566,18.696945 9.7685412,16.281769 8.1442064,11.390369 7.3910915,10.208502 5.5893483,9.7233458 4.3435904,9.3878942 4.0362386,9.0321729 4.5045776,8.4678586 4.7813843,8.1343265 6.0233499,8.0650617 11.664105,8.0685707 c 3.767464,0.00286 7.008921,0.1207943 7.236038,0.2643773 0.226261,0.1431001 1.909735,4.755071 3.741028,10.248899 1.831295,5.493825 3.454327,10.009202 3.606741,10.034162 0.152419,0.02506 1.115932,-1.37569 2.14114,-3.112546 1.025229,-1.73687 2.05279,-3.378378 2.283477,-3.647808 0.366248,-0.427744 0.938203,-0.489327 4.509582,-0.485631 2.249572,0.0019 4.264177,0.114466 4.476911,0.249141 0.607966,0.384958 0.155944,1.060849 -0.852995,1.275443 -1.218827,0.259226 -1.890179,0.88967 -1.885062,1.7702 0.0048,0.839632 2.699409,4.650443 3.029887,4.285081 0.439416,-0.485822 5.833567,-16.660548 5.833567,-17.4924 0,-0.950084 -0.609896,-1.7304846 -1.352405,-1.7304846 -0.264834,0 -0.718815,-0.1735602 -1.008922,-0.3856842 -0.448167,-0.3276933 -0.471852,-0.4526841 -0.157637,-0.8313415 0.323301,-0.3895562 1.322171,-0.4456672 7.933892,-0.4456672 4.160219,0 7.761275,0.075724 8.002365,0.1682087 0.8485,0.3256022 0.501295,1.1789668 -0.600828,1.4769227 -1.343586,0.3632241 -2.191946,0.9713181 -2.684855,1.9244641 -0.319092,0.617097 -8.344526,23.578804 -11.851977,33.910001 -0.599521,1.76587 -0.948256,2.420807 -1.283404,2.410248 -0.253722,-0.0085 -2.138347,-2.118433 -4.201178,-4.704598 -2.057582,-2.579566 -3.862413,-4.652515 -4.010739,-4.606548 -0.148345,0.04622 -0.986137,1.258974 -1.861782,2.695562 -2.141965,3.514094 -2.154218,4.654952 -0.05773,5.375681 0.730926,0.251353 1.080754,0.536903 1.080754,0.882255 0,0.450542 -0.30963,0.52708 -2.63258,0.649254 l -2.632557,0.13865 -2.263846,3.733573 c -1.245108,2.053445 -2.379881,3.772246 -2.5217,3.819523 -0.141842,0.0469 -0.380426,-0.07405 -0.530203,-0.269579 z"
       id="path1151" />
  </g>
</svg>
