<?xml version="1.0" encoding="UTF-8" standalone="no"?>
<svg
   width="64"
   height="64"
   version="1.1"
   id="svg73"
   sodipodi:docname="steam_icon_1184370.svg"
   inkscape:version="1.4.2 (ebf0e940d0, 2025-05-08)"
   xmlns:inkscape="http://www.inkscape.org/namespaces/inkscape"
   xmlns:sodipodi="http://sodipodi.sourceforge.net/DTD/sodipodi-0.dtd"
   xmlns="http://www.w3.org/2000/svg"
   xmlns:svg="http://www.w3.org/2000/svg"
   xmlns:rdf="http://www.w3.org/1999/02/22-rdf-syntax-ns#"
   xmlns:cc="http://creativecommons.org/ns#"
   xmlns:dc="http://purl.org/dc/elements/1.1/">
  <metadata
     id="metadata77">
    <rdf:RDF>
      <cc:Work
         rdf:about="">
        <dc:format>image/svg+xml</dc:format>
        <dc:type
           rdf:resource="http://purl.org/dc/dcmitype/StillImage" />
      </cc:Work>
    </rdf:RDF>
  </metadata>
  <sodipodi:namedview
     pagecolor="#f5f7fa"
     bordercolor="#666666"
     borderopacity="1"
     objecttolerance="10"
     gridtolerance="10"
     guidetolerance="10"
     inkscape:pageopacity="0"
     inkscape:pageshadow="2"
     inkscape:window-width="1377"
     inkscape:window-height="886"
     id="namedview75"
     showgrid="false"
     inkscape:zoom="6.2890624"
     inkscape:cx="47.622361"
     inkscape:cy="45.396274"
     inkscape:window-x="147"
     inkscape:window-y="75"
     inkscape:window-maximized="0"
     inkscape:current-layer="g877"
     inkscape:document-rotation="0"
     inkscape:pagecheckerboard="0"
     inkscape:showpageshadow="2"
     inkscape:deskcolor="#d1d1d1" />
  <defs
     id="defs29" />
  <circle
     cx="32.516094"
     cy="31.877844"
     r="0"
     fill="url(#b)"
     stroke-width="1.5715"
     id="circle41"
     style="fill:url(#b)" />
  <g
     aria-label="GZ"
     transform="matrix(1.2212657,0,0,0.81882264,0.4960938,-0.1661539)"
     id="text93"
     style="font-weight:bold;font-size:11.5263px;line-height:1.25;font-family:sans-serif;-inkscape-font-specification:'sans-serif Bold';fill:#f2f2f2;stroke-width:0.288159" />
  <g
     id="g877"
     transform="matrix(1.1,0,0,1.1,-3.1845928,-3.2065454)">
    <path
       style="fill:#dfdfdf;fill-opacity:1;stroke:none;stroke-width:0.861425;stroke-dasharray:none;stroke-dashoffset:2.2;stroke-opacity:0.6"
       d="m 16.842254,59.777228 c 0,-0.07602 0.299429,-0.744108 0.665424,-1.484793 0.384265,-0.777686 0.736914,-1.841076 0.83463,-2.516768 0.210605,-1.456328 0.226905,-13.750795 0.01874,-14.079012 -0.181401,-0.285928 -2.140588,0.363659 -4.173571,1.383668 -1.443374,0.724235 -1.453702,0.71218 -0.972868,-1.133819 0.622877,-2.391311 2.259515,-4.756036 4.20703,-6.078566 l 1.09743,-0.745252 v -9.1133 c 0,-5.995211 -0.0672,-9.260892 -0.196548,-9.544664 -0.495598,-1.087728 -2.511699,-1.912536 -4.228227,-1.729824 -0.949115,0.101024 -1.164423,0.07407 -1.164423,-0.145736 0,-0.310114 2.796399,-3.411559 6.837168,-7.5830062 l 2.795499,-2.885904 1.074578,0.7134865 c 1.639449,1.0885273 2.688113,2.144135 3.264664,3.2862719 0.710921,1.4083333 0.89196,2.1659078 1.109218,4.6417538 0.184913,2.107468 0.284464,2.508859 0.53217,2.146465 0.07126,-0.104324 0.674542,-0.601984 1.340591,-1.106004 1.147074,-0.868042 3.183677,-2.470804 8.942702,-7.0377364 1.383318,-1.0969812 2.603739,-1.9948207 2.712081,-1.9951906 0.108295,-3.727e-4 0.583536,0.5233052 1.056244,1.1637415 1.216877,1.6490025 3.012781,3.4056717 3.941158,3.855102 0.945101,0.4575055 2.513412,0.5067465 3.626932,0.1138489 0.419982,-0.1482316 0.800756,-0.2097414 0.845893,-0.1366728 0.151825,0.2456264 -0.24179,1.8783984 -0.641891,2.6626314 -0.506467,0.992834 -1.841315,2.422493 -2.686925,2.877894 l -0.655967,0.353268 0.0035,11.927811 0.0035,11.927819 0.555555,1.00787 c 0.30561,0.55431 0.55556,1.044462 0.55556,1.089196 0,0.04404 -0.860817,0.02228 -1.912966,-0.04948 -4.14277,-0.282454 -8.42526,1.06135 -13.137668,4.122269 -0.848888,0.551309 -1.594113,1.002537 -1.656054,1.002537 -0.06188,0 -0.792636,-0.649724 -1.623768,-1.443883 L 28.30046,43.799369 28.25009,47.80352 c -0.05525,4.387668 0.05908,5.296164 0.886935,7.046592 l 0.544953,1.152307 h -1.71622 c -2.518489,0 -5.868477,1.084923 -9.285761,3.007259 -1.64903,0.927529 -1.837486,1.006206 -1.837486,0.766985 z M 37.175442,38.050965 c 0.07097,-4.170567 0.05688,-13.943569 -0.02591,-17.900574 l -0.093,-4.459871 -0.650119,-0.168104 c -0.357568,-0.09248 -1.028815,-0.446082 -1.491658,-0.785838 -0.799835,-0.587136 -0.860726,-0.60245 -1.228666,-0.30915 -0.212912,0.169733 -0.665799,0.518199 -1.0064,0.774367 -0.340604,0.256168 -0.710807,0.549599 -0.82266,0.652073 -0.111841,0.102443 -0.980306,0.809111 -1.929888,1.570321 l -1.7265,1.384014 0.104742,6.999766 c 0.05771,3.849877 0.145252,7.33761 0.194727,7.750527 0.08896,0.742492 0.105303,0.756603 1.481108,1.281892 1.843557,0.703867 3.804115,2.023645 5.37786,3.620183 0.750723,0.761604 1.388727,1.261691 1.537025,1.204782 0.182013,-0.06986 0.260822,-0.525362 0.279353,-1.614391 z"
       id="path1-7-3" />
  </g>
</svg>
