<?xml version="1.0" encoding="UTF-8" standalone="no"?>
<svg
   width="64"
   height="64"
   version="1.1"
   id="svg73"
   sodipodi:docname="steam_icon_1086940.svg"
   inkscape:version="1.4.2 (ebf0e940d0, 2025-05-08)"
   xmlns:inkscape="http://www.inkscape.org/namespaces/inkscape"
   xmlns:sodipodi="http://sodipodi.sourceforge.net/DTD/sodipodi-0.dtd"
   xmlns="http://www.w3.org/2000/svg"
   xmlns:svg="http://www.w3.org/2000/svg"
   xmlns:rdf="http://www.w3.org/1999/02/22-rdf-syntax-ns#"
   xmlns:cc="http://creativecommons.org/ns#"
   xmlns:dc="http://purl.org/dc/elements/1.1/">
  <metadata
     id="metadata77">
    <rdf:RDF>
      <cc:Work
         rdf:about="">
        <dc:format>image/svg+xml</dc:format>
        <dc:type
           rdf:resource="http://purl.org/dc/dcmitype/StillImage" />
      </cc:Work>
    </rdf:RDF>
  </metadata>
  <sodipodi:namedview
     pagecolor="#f5f7fa"
     bordercolor="#666666"
     borderopacity="1"
     objecttolerance="10"
     gridtolerance="10"
     guidetolerance="10"
     inkscape:pageopacity="0"
     inkscape:pageshadow="2"
     inkscape:window-width="1377"
     inkscape:window-height="886"
     id="namedview75"
     showgrid="false"
     inkscape:zoom="6.2890624"
     inkscape:cx="47.622361"
     inkscape:cy="45.396274"
     inkscape:window-x="147"
     inkscape:window-y="75"
     inkscape:window-maximized="0"
     inkscape:current-layer="g877"
     inkscape:document-rotation="0"
     inkscape:pagecheckerboard="0"
     inkscape:showpageshadow="2"
     inkscape:deskcolor="#d1d1d1" />
  <defs
     id="defs29" />
  <circle
     cx="32.516094"
     cy="31.877844"
     r="0"
     fill="url(#b)"
     stroke-width="1.5715"
     id="circle41"
     style="fill:url(#b)" />
  <g
     aria-label="GZ"
     transform="matrix(1.2212657,0,0,0.81882264,0.4960938,-0.1661539)"
     id="text93"
     style="font-weight:bold;font-size:11.5263px;line-height:1.25;font-family:sans-serif;-inkscape-font-specification:'sans-serif Bold';fill:#f2f2f2;stroke-width:0.288159" />
  <g
     id="g877"
     transform="matrix(1.1,0,0,1.1,-3.1845928,-3.2065454)">
    <path
       style="fill:#dfdfdf;fill-opacity:1;stroke:none;stroke-width:0.820405;stroke-dasharray:none;stroke-opacity:0.6"
       d="m 21.216606,59.033883 c -2.332961,-0.835104 -3.480608,-2.307581 -3.509835,-4.503258 -0.0142,-1.058984 0.08236,-1.454627 0.520918,-2.135915 0.296016,-0.459931 0.822669,-1.000652 1.170329,-1.201685 l 0.63211,-0.365552 -0.260588,0.888107 c -0.49072,1.672414 0.216596,2.851795 1.808786,3.015973 1.128032,0.116402 2.23429,-0.446267 2.677542,-1.361606 0.719338,-1.485497 0.104093,-3.480411 -1.790877,-5.806934 -0.969016,-1.1897 -1.487361,-2.158532 -1.717899,-3.210943 -0.161743,-0.738332 -0.146088,-3.108818 0.02599,-3.934335 0.257352,-1.234563 1.374048,-3.314081 2.332179,-4.342958 0.961708,-1.032709 1.196658,-1.827369 0.607163,-2.053587 -0.486803,-0.186793 -0.535499,-0.163283 -0.494578,0.238948 0.06754,0.664533 -0.0028,0.814817 -1.009568,2.163783 -1.051326,1.408294 -1.391004,2.052534 -1.813264,3.439092 -0.367406,1.206439 -0.38987,3.584547 -0.04453,4.72407 0.393157,1.297582 0.832194,2.267958 1.02613,2.267958 0.08694,0 0.157991,0.09836 0.157991,0.218526 0,0.137655 -0.290055,0.167486 -0.783914,0.08071 -2.10958,-0.371223 -3.865921,-1.745919 -4.779174,-3.740731 -0.45829,-1.001043 -0.530982,-1.41079 -0.458498,-2.58462 0.119815,-1.940575 0.922849,-3.476534 2.736299,-5.233735 1.965509,-1.904545 2.489449,-2.828619 2.408191,-4.247292 -0.05663,-0.988091 -0.118713,-1.119671 -0.558146,-1.181843 -0.764807,-0.108218 -1.04561,0.324946 -0.375756,0.579633 0.315183,0.119814 0.556146,0.372564 0.555479,0.582636 -0.0017,0.604895 -0.422453,1.938835 -0.611259,1.938835 -0.386466,0 -1.360056,-2.42368 -1.404332,-3.495975 -0.03776,-0.915712 0.0952,-1.371266 0.824018,-2.822104 0.775455,-1.543707 0.869129,-1.890215 0.869385,-3.215878 3.61e-4,-1.270028 -0.08292,-1.61149 -0.572796,-2.351745 -0.315193,-0.476294 -0.648083,-0.865991 -0.739742,-0.865991 -0.09165,0 -0.372542,0.191805 -0.624166,0.426234 -0.461183,0.429658 -0.636286,1.455167 -0.248456,1.455167 0.11495,0 0.209049,-0.08309 0.209049,-0.184657 0,-0.101574 0.211659,-0.248142 0.470347,-0.325745 0.445297,-0.13357 0.448815,-0.149647 0.06614,-0.301884 -0.294751,-0.117249 -0.333442,-0.204544 -0.142883,-0.322319 0.307865,-0.190269 0.294061,-0.202647 0.729551,0.653881 0.56574,1.112707 0.445282,2.871542 -0.304966,4.452569 l -0.6448,1.358782 -0.395209,-0.731652 c -0.893152,-1.653472 -1.281493,-3.376231 -1.366563,-6.062293 -0.07232,-2.284674 -0.01771,-2.85577 0.43462,-4.544552 0.761383,-2.842433 1.748068,-4.646822 3.632371,-6.6426951 1.522748,-1.6129003 2.721713,-2.516811 4.535639,-3.419448 9.283872,-4.6197932 20.289465,0.7516314 22.432385,10.9484231 0.07257,0.344922 0.132115,1.850042 0.132514,3.344707 6.82e-4,2.424406 -0.06349,2.913698 -0.595293,4.535558 -0.879337,2.682592 -0.969394,2.750009 -1.713082,1.282296 -0.509216,-1.004947 -0.617595,-1.475725 -0.617595,-2.682191 0,-1.516188 0.512168,-2.773402 1.005534,-2.468461 0.159649,0.09869 0.152838,0.166066 -0.02331,0.224674 -0.365244,0.121721 -0.307156,0.398333 0.114781,0.547186 0.201128,0.07098 0.483485,0.183858 0.627143,0.250845 0.453355,0.211305 0.285411,-0.479514 -0.279872,-1.151252 -0.297628,-0.35375 -0.619221,-0.643177 -0.714623,-0.643177 -0.299129,0 -1.011893,1.331239 -1.228228,2.294038 -0.279458,1.243697 -0.0014,2.576344 0.940125,4.507369 0.681801,1.398196 0.75244,1.693862 0.647575,2.709973 -0.110183,1.068183 -1.059141,3.240313 -1.415526,3.240313 -0.08521,0 -0.268273,-0.472347 -0.406761,-1.049658 -0.268949,-1.121333 -0.08071,-1.667918 0.574804,-1.667918 0.249327,0 0.262427,-0.06175 0.06352,-0.301134 -0.257403,-0.310121 -0.832734,-0.215642 -1.104576,0.181364 -0.231312,0.337689 -0.190621,1.326139 0.09402,2.290478 0.185809,0.62944 0.722577,1.324608 1.999513,2.589519 1.209028,1.197631 1.915141,2.097172 2.297316,2.926617 0.632389,1.372546 0.835728,3.274537 0.488045,4.565594 -0.495291,1.839348 -2.314906,3.587319 -4.350338,4.179037 -1.414316,0.411162 -1.669755,0.323671 -1.11488,-0.381601 0.647389,-0.823024 1.049265,-2.371252 1.046058,-4.029753 -0.004,-2.557511 -0.712972,-4.556961 -2.284926,-6.450925 -0.556094,-0.669979 -0.843044,-1.221445 -0.843044,-1.620095 0,-0.646778 -0.182034,-0.756748 -0.585326,-0.353509 -0.425271,0.425352 -0.286831,0.797367 0.709025,1.905057 2.222731,2.472226 3.109723,5.856244 2.273254,8.672936 -0.193672,0.652595 -0.826797,1.751395 -1.600248,2.777854 -0.703785,0.933997 -1.486059,2.206119 -1.738384,2.826943 -0.852498,2.097528 -0.09278,4.04727 1.709254,4.38638 2.030633,0.382065 3.474306,-1.290966 2.704258,-3.133962 l -0.314662,-0.753122 0.597981,0.309278 c 1.73773,0.898617 2.338807,3.36064 1.336252,5.473351 -0.80065,1.687224 -3.488239,2.937389 -5.7919,2.694131 -2.538796,-0.268131 -4.491859,-1.577331 -5.570983,-3.73445 -0.605803,-1.210961 -0.644668,-1.426764 -0.609372,-3.383908 0.02067,-1.149735 0.21546,-2.937051 0.432729,-3.971829 0.68209,-3.248545 0.726118,-3.53431 0.670777,-4.353983 -0.02962,-0.440154 -0.163657,-1.132442 -0.297661,-1.538434 -0.262116,-0.794087 -1.467646,-2.07656 -2.236448,-2.379189 -1.19104,-0.468839 -3.109827,1.469916 -3.366148,3.401181 -0.155206,1.169564 -0.134463,1.340365 0.570311,4.694174 0.542838,2.583194 0.593493,5.627153 0.11691,7.025818 -1.059281,3.108803 -5.374574,5.110514 -8.559481,3.97045 z m 6.380211,-22.530679 c 0,-0.05972 -0.240463,-0.489597 -0.534367,-0.955178 -1.136583,-1.800464 -0.88751,-2.730894 1.715809,-6.409471 0.294471,-0.41609 0.296016,-0.470338 0.01332,-0.470338 -0.372775,0 -1.562396,1.592071 -2.347907,3.142192 -0.384296,0.758397 -0.530912,1.340872 -0.490443,1.948654 0.06717,1.008953 0.945932,2.852827 1.359612,2.852827 0.156138,0 0.283898,-0.04891 0.283898,-0.108658 z m 9.91939,-0.954851 c 0.753889,-1.385149 0.764841,-2.366452 0.042,-3.759763 -1.011458,-1.949542 -2.435769,-3.669517 -2.435769,-2.941403 0,0.09842 0.315456,0.592314 0.701,1.097489 1.824579,2.390668 2.108383,3.664798 1.208136,5.423749 -0.79958,1.562249 -0.357086,1.726515 0.484662,0.179912 z M 26.653182,29.351192 c 0.590216,-0.433198 1.303804,-1.64677 1.092534,-1.858028 -0.08049,-0.08049 -0.311525,-0.0042 -0.513441,0.169006 -0.201911,0.173454 -0.555244,0.386782 -0.785193,0.474085 -0.413211,0.156897 -0.413283,0.160535 -0.0077,0.311398 0.389977,0.145136 0.384803,0.168777 -0.104522,0.478411 -0.283129,0.17915 -0.726443,0.3889 -0.985137,0.466104 -0.258691,0.0772 -0.470355,0.239869 -0.470355,0.361472 0,0.312108 1.158445,0.04935 1.773936,-0.402461 z m 12.24867,0.252499 c -0.0076,-0.112094 -0.285517,-0.273999 -0.616523,-0.359776 -0.601628,-0.155897 -1.452475,-0.88155 -0.872692,-0.744286 0.14881,0.03526 0.313671,-0.05348 0.366374,-0.197248 0.05353,-0.146174 -0.06576,-0.261289 -0.27098,-0.261289 -0.201732,0 -0.539403,-0.15622 -0.750359,-0.347117 -0.570594,-0.516382 -0.729868,-0.154063 -0.29075,0.661357 0.512437,0.951522 2.486505,1.963614 2.43493,1.248359 z M 28.380739,27.191294 c 0.488631,0.0097 0.888437,-0.02194 0.888437,-0.07031 0,-0.04835 -0.399812,-0.284606 -0.888437,-0.525093 -0.490496,-0.2414 -1.158484,-0.820568 -1.491327,-1.293015 -0.784611,-1.11373 -1.688962,-1.649978 -2.784244,-1.650948 -0.87561,-9.22e-4 -1.943493,0.348426 -1.943493,0.635532 0,0.334759 1.058931,0.347522 1.253178,0.01531 0.149713,-0.256211 0.19895,-0.151709 0.203774,0.432464 0.01481,1.795449 1.017959,2.701979 2.80738,2.537026 0.586467,-0.054 1.466087,-0.09038 1.954732,-0.08075 z m 11.093115,-0.256098 c 0.462449,-0.373975 0.874648,-1.34532 0.874648,-2.061208 0,-0.475047 0.06604,-0.613217 0.219816,-0.459515 0.25202,0.251961 1.243509,0.119814 1.243509,-0.165731 0,-0.499301 -2.01009,-0.77847 -2.965256,-0.411808 -0.521027,0.20001 -1.544322,1.137838 -2.051194,1.8799 -0.17216,0.252019 -0.666015,0.613971 -1.097486,0.804332 -0.964351,0.425472 -1.025066,0.774747 -0.105116,0.60467 0.37366,-0.06909 0.961598,-0.03849 1.306527,0.06787 0.712441,0.219829 2.163148,0.07413 2.574576,-0.258544 z m -6.100217,-1.088272 c 0.38711,-0.253635 0.475325,-0.417181 0.312752,-0.579748 -0.162574,-0.162577 -0.346537,-0.117782 -0.652175,0.158794 -0.530108,0.47974 -1.544686,0.497958 -2.054188,0.03691 -0.474494,-0.429418 -0.665625,-0.441332 -0.665625,-0.04146 0,0.829342 2.015173,1.109676 3.059243,0.425577 z M 21.260752,21.869838 c -0.243347,-1.499579 0.305995,-2.176249 1.838553,-2.264723 0.791804,-0.04573 0.498997,-0.439109 -0.382188,-0.513477 -0.625572,-0.05281 -0.888715,0.05261 -1.39489,0.55878 -0.523058,0.52306 -0.62386,0.789733 -0.62386,1.650324 0,1.02696 0.102377,1.305188 0.480277,1.305188 0.113812,0 0.149568,-0.320372 0.08213,-0.736092 z m 8.217468,0.532414 c 0,-0.11201 -0.26599,-0.341222 -0.591072,-0.50933 -1.047813,-0.541842 -2.401746,-2.436817 -2.701788,-3.781443 -0.251035,-1.124996 -0.0384,-2.927813 0.496364,-4.209191 0.299927,-0.718609 0.501353,-1.664727 0.594789,-2.793781 0.0941,-1.1372263 -0.68898,-2.7175754 -1.346614,-2.7175754 -0.433364,0 -1.259696,1.0222366 -1.259696,1.5583304 0,0.639196 0.223182,0.683175 0.57862,0.114018 0.143628,-0.2299426 0.424928,-0.4210753 0.625162,-0.4247361 0.339393,-0.00627 0.33842,-0.026158 -0.01436,-0.2935009 -0.214249,-0.1624524 -0.289492,-0.3417513 -0.173523,-0.4134372 0.112627,-0.06963 0.400488,0.1221594 0.639643,0.4262126 0.615229,0.7821766 0.55863,2.0082586 -0.218726,4.7374686 -0.776725,2.727063 -0.742038,3.942995 0.159763,5.599913 0.863037,1.585686 3.211358,3.565225 3.211364,2.707055 z m 6.324391,-0.402107 c 2.137882,-1.618699 3.152475,-4.39363 2.453646,-6.710754 -1.166993,-3.869428 -1.289729,-5.065626 -0.608584,-5.9315594 0.23915,-0.3040455 0.526999,-0.4958294 0.639647,-0.4262115 0.115954,0.071687 0.04086,0.2509826 -0.173544,0.4134328 -0.279262,0.2117291 -0.300529,0.2885861 -0.08125,0.2934998 0.163411,0.00363 0.463219,0.1569612 0.666224,0.3406997 0.355302,0.3215606 0.813542,0.2532466 0.813542,-0.1212805 0,-0.3694702 -1.095929,-1.4670117 -1.464838,-1.4670117 -0.641773,0 -1.316105,1.3514468 -1.304741,2.6148588 0.0098,1.057799 0.1259,1.551068 0.860436,3.64714 0.503856,1.43776 0.424817,3.464256 -0.182315,4.674515 -0.490254,0.977301 -2.070539,2.651357 -2.502838,2.651357 -0.117527,0 -0.213716,0.14108 -0.213716,0.313562 0,0.440765 0.200743,0.387358 1.098292,-0.292212 z m 7.444695,0.152289 c 0.278061,-0.751543 -0.08413,-2.097563 -0.708833,-2.63496 -0.415356,-0.357288 -0.769759,-0.470643 -1.326152,-0.424173 -0.417581,0.03489 -0.729606,0.157461 -0.693328,0.272452 0.03675,0.11495 0.212258,0.178798 0.391024,0.141857 0.529611,-0.109527 1.453284,0.371375 1.739158,0.905509 0.157972,0.29516 0.219816,0.841669 0.152417,1.345 -0.120891,0.901632 0.164737,1.154268 0.445848,0.394322 z M 30.941529,19.177615 c 0,-0.04593 -0.341634,-0.425239 -0.759164,-0.842778 -0.707233,-0.707235 -0.750411,-0.82306 -0.631134,-1.693256 0.125779,-0.917476 -0.150502,-1.311119 -0.42256,-0.602135 -0.343759,0.895818 -0.110702,1.905565 0.634925,2.751439 0.347203,0.393853 1.177933,0.666599 1.177933,0.38673 z m 3.310904,-0.442632 c 0.714145,-0.600904 1.046509,-1.888947 0.669304,-2.593758 -0.390567,-0.729796 -0.579195,-0.486421 -0.473728,0.611215 0.09574,0.996442 0.06336,1.078923 -0.698668,1.776869 -0.936969,0.858232 -0.489716,1.041081 0.503092,0.205674 z M 11.215231,40.89582 c -0.229792,-0.598831 -0.14477,-2.179179 0.1549,-2.879608 0.348073,-0.813491 1.276711,-1.715596 2.077537,-2.018171 0.797158,-0.301192 2.438178,-0.267991 3.031674,0.06125 0.452976,0.251335 0.461014,0.288254 0.123517,0.56746 -0.432629,0.357925 -1.33475,2.230961 -1.337623,2.777267 -0.0014,0.290611 -0.09408,0.348242 -0.367872,0.229482 -1.310737,-0.568767 -2.692416,-0.160567 -3.232708,0.954984 -0.25216,0.520646 -0.343597,0.583185 -0.449452,0.307258 z m 41.220514,-0.145018 c -0.1431,-0.992438 -2.092954,-1.750368 -3.106945,-1.207694 -0.339101,0.181528 -0.421053,0.126684 -0.544311,-0.364342 -0.07975,-0.317872 -0.453353,-1.096066 -0.829985,-1.72922 -0.620789,-1.043409 -0.652885,-1.175652 -0.342775,-1.412495 0.418409,-0.319426 2.111752,-0.342069 2.913993,-0.03886 0.720916,0.272379 1.674487,1.152049 2.070448,1.909975 0.328636,0.629047 0.4036,3.001911 0.100804,3.189073 -0.106854,0.06602 -0.224376,-0.0898 -0.26134,-0.346347 z"
       id="path1-9-7" />
  </g>
</svg>
