<?xml version="1.0" encoding="UTF-8" standalone="no"?>
<svg
   width="64"
   height="64"
   version="1.1"
   id="svg73"
   sodipodi:docname="steam_icon_368260.svg"
   inkscape:version="1.4.2 (ebf0e940d0, 2025-05-08)"
   xmlns:inkscape="http://www.inkscape.org/namespaces/inkscape"
   xmlns:sodipodi="http://sodipodi.sourceforge.net/DTD/sodipodi-0.dtd"
   xmlns="http://www.w3.org/2000/svg"
   xmlns:svg="http://www.w3.org/2000/svg"
   xmlns:rdf="http://www.w3.org/1999/02/22-rdf-syntax-ns#"
   xmlns:cc="http://creativecommons.org/ns#"
   xmlns:dc="http://purl.org/dc/elements/1.1/">
  <metadata
     id="metadata77">
    <rdf:RDF>
      <cc:Work
         rdf:about="">
        <dc:format>image/svg+xml</dc:format>
        <dc:type
           rdf:resource="http://purl.org/dc/dcmitype/StillImage" />
      </cc:Work>
    </rdf:RDF>
  </metadata>
  <sodipodi:namedview
     pagecolor="#f5f7fa"
     bordercolor="#666666"
     borderopacity="1"
     objecttolerance="10"
     gridtolerance="10"
     guidetolerance="10"
     inkscape:pageopacity="0"
     inkscape:pageshadow="2"
     inkscape:window-width="1377"
     inkscape:window-height="886"
     id="namedview75"
     showgrid="false"
     inkscape:zoom="6.2890624"
     inkscape:cx="47.622361"
     inkscape:cy="45.396274"
     inkscape:window-x="147"
     inkscape:window-y="75"
     inkscape:window-maximized="0"
     inkscape:current-layer="g877"
     inkscape:document-rotation="0"
     inkscape:pagecheckerboard="0"
     inkscape:showpageshadow="2"
     inkscape:deskcolor="#d1d1d1" />
  <defs
     id="defs29" />
  <circle
     cx="32.516094"
     cy="31.877844"
     r="0"
     fill="url(#b)"
     stroke-width="1.5715"
     id="circle41"
     style="fill:url(#b)" />
  <g
     aria-label="GZ"
     transform="matrix(1.2212657,0,0,0.81882264,0.4960938,-0.1661539)"
     id="text93"
     style="font-weight:bold;font-size:11.5263px;line-height:1.25;font-family:sans-serif;-inkscape-font-specification:'sans-serif Bold';fill:#f2f2f2;stroke-width:0.288159" />
  <g
     id="g877"
     transform="matrix(1.1,0,0,1.1,-3.1845928,-3.2065454)">
    <path
       style="fill:#dfdfdf;fill-opacity:1;stroke:none;stroke-width:0.902447;stroke-dasharray:none;stroke-dashoffset:2.2;stroke-opacity:0.6"
       d="M 28.649283,59.4801 C 25.136455,59.07163 21.319865,57.772941 18.184186,55.919065 11.514424,51.975786 6.6333131,45.135932 4.755671,37.101837 4.3609149,35.412742 4.3043036,34.782723 4.3058035,32.095522 4.3072665,29.59021 4.3799006,28.680222 4.6989184,27.177031 5.6107929,22.879935 7.3477963,18.960042 9.7974035,15.671288 14.264536,9.6738966 20.375507,5.9015849 27.62819,4.6643201 c 2.758653,-0.470619 7.159846,-0.3886973 9.823538,0.1828527 5.615483,1.2049167 10.118403,3.6774944 14.258442,7.8293912 3.305163,3.314638 5.224978,6.34623 6.569691,10.374188 0.887969,2.659839 1.241773,4.641016 1.364283,7.639473 0.274229,6.70811 -2.015938,13.453353 -6.395664,18.838425 -5.150313,6.332491 -13.401448,10.222212 -21.473073,10.122738 -1.016969,-0.01346 -2.423729,-0.08957 -3.126124,-0.171362 z m 1.03904,-2.906105 c 0.576212,-0.515301 0.530057,-1.8335 -0.223514,-6.385474 -1.076984,-6.505459 -2.657031,-9.490945 -5.019098,-9.483561 -2.542178,0.0077 -7.435526,2.611146 -10.017334,5.329111 -1.291961,1.360109 -1.578786,1.901142 -1.364986,2.574783 0.219973,0.693079 2.409659,2.8127 4.014845,3.8864 2.89846,1.938753 7.398364,3.937195 9.802877,4.35353 1.143959,0.198127 2.41789,0.07324 2.80721,-0.274851 z m 8.494076,-0.01916 c 4.602111,-1.21604 10.274761,-4.60647 12.238579,-7.314563 0.840634,-1.159238 0.670914,-1.586327 -1.511762,-3.804664 -3.223868,-3.276809 -8.114111,-5.412578 -10.407975,-4.545905 -1.992488,0.752808 -3.220625,3.877847 -4.184454,10.647397 -0.418519,2.939574 -0.426279,4.502337 -0.0246,4.946583 0.540437,0.597606 1.809871,0.620788 3.89018,0.07099 z M 12.252418,42.440191 c 3.302768,-4.008267 4.597798,-6.361201 4.726701,-8.587927 0.0981,-1.694192 -0.119282,-2.379236 -1.101276,-3.471499 -1.225267,-1.362796 -3.445413,-2.29644 -5.801081,-2.439554 -1.8175116,-0.110389 -2.4504455,0.184341 -3.0740528,1.431547 -0.3835809,0.767155 -0.436084,1.089472 -0.4147989,2.547071 0.023825,1.628205 0.3079522,3.495261 0.864764,5.681291 0.3022277,1.186458 1.9433326,6.597049 2.2173239,7.310264 l 0.1715054,0.446519 0.3811134,-0.458428 c 0.20961,-0.252229 1.123012,-1.358819 2.029786,-2.459295 z m 41.872561,1.644115 c 2.031052,-2.266872 4.111791,-12.673477 3.044626,-15.227545 -0.474686,-1.136185 -1.775566,-1.397315 -4.435862,-0.890452 -5.327045,1.014948 -6.778254,4.89476 -3.909854,10.45295 0.936893,1.81545 2.122669,3.481378 3.559285,5.000594 0.977087,1.033242 1.300738,1.1567 1.741805,0.664401 z m -18.57748,-4.613553 c 3.990258,-1.26374 7.066267,-3.740777 8.61331,-6.936115 1.725146,-3.563164 1.725168,-7.455734 4.9e-5,-11.241251 -1.216684,-2.669814 -2.920758,-4.703481 -5.112118,-6.100842 -2.530777,-1.6138 -4.710648,-2.162546 -8.056869,-2.028198 -3.332762,0.133834 -5.029207,0.890827 -7.948247,3.546815 -2.903765,2.642094 -4.623002,6.306245 -4.623002,9.852867 0,5.792492 4.920201,11.751371 10.890934,13.190072 1.457116,0.3511 4.697566,0.203847 6.235943,-0.28337 z M 11.101137,22.706454 c 2.453524,-0.50961 4.69569,-1.507154 5.534226,-2.462195 1.153754,-1.314059 1.361629,-3.974003 0.468408,-5.993741 -0.465526,-1.052643 -0.645524,-1.200916 -1.268136,-1.044654 -0.560358,0.140641 -3.144723,2.727402 -4.394306,4.398374 -0.701784,0.938454 -2.6289447,4.320078 -3.1822755,5.584009 -0.033594,0.07676 0.1244881,0.09692 0.3513169,0.04489 0.226831,-0.05215 1.3476782,-0.289108 2.4907566,-0.526521 z m 44.194288,-0.0142 c 0.419757,-0.408756 -0.02901,-1.429831 -1.770771,-4.02917 -1.882848,-2.809844 -4.005397,-5.31091 -4.642909,-5.470914 -0.971163,-0.243743 -2.402338,1.976323 -2.627116,4.0753 -0.150407,1.404484 -0.03984,1.836023 0.669427,2.646152 1.874049,2.13643 7.211592,3.908074 8.371392,2.778645 z M 26.228454,11.607012 c 1.043541,-0.355576 3.025114,-2.169864 3.627732,-3.3214837 L 30.27769,7.4800226 29.840795,7.1222607 C 29.311221,6.6886003 28.386064,6.7545357 25.627506,7.4224895 22.313788,8.22486 20.423933,9.2405637 20.55799,10.147091 c 0.189426,1.280991 3.610572,2.161798 5.670464,1.459921 z m 14.697496,0.03753 c 2.942507,-0.893061 3.191057,-2.0350997 0.687464,-3.1586408 -1.322383,-0.5934566 -4.694558,-1.4802792 -6.158258,-1.61952 -0.930076,-0.088487 -1.190395,-0.055878 -1.380052,0.1726041 -0.19846,0.239148 -0.166615,0.396252 0.211272,1.0410148 0.542604,0.9258711 2.93145,3.2283359 3.693421,3.5598479 0.718241,0.312501 1.925736,0.314417 2.946153,0.0048 z"
       id="path3-3" />
  </g>
</svg>
