<?xml version="1.0" encoding="UTF-8" standalone="no"?>
<svg
   width="64"
   height="64"
   version="1.1"
   id="svg73"
   sodipodi:docname="steam_icon_1934680.svg"
   inkscape:version="1.4.2 (ebf0e940d0, 2025-05-08)"
   xmlns:inkscape="http://www.inkscape.org/namespaces/inkscape"
   xmlns:sodipodi="http://sodipodi.sourceforge.net/DTD/sodipodi-0.dtd"
   xmlns="http://www.w3.org/2000/svg"
   xmlns:svg="http://www.w3.org/2000/svg"
   xmlns:rdf="http://www.w3.org/1999/02/22-rdf-syntax-ns#"
   xmlns:cc="http://creativecommons.org/ns#"
   xmlns:dc="http://purl.org/dc/elements/1.1/">
  <metadata
     id="metadata77">
    <rdf:RDF>
      <cc:Work
         rdf:about="">
        <dc:format>image/svg+xml</dc:format>
        <dc:type
           rdf:resource="http://purl.org/dc/dcmitype/StillImage" />
      </cc:Work>
    </rdf:RDF>
  </metadata>
  <sodipodi:namedview
     pagecolor="#f5f7fa"
     bordercolor="#666666"
     borderopacity="1"
     objecttolerance="10"
     gridtolerance="10"
     guidetolerance="10"
     inkscape:pageopacity="0"
     inkscape:pageshadow="2"
     inkscape:window-width="1377"
     inkscape:window-height="886"
     id="namedview75"
     showgrid="false"
     inkscape:zoom="6.2890624"
     inkscape:cx="47.622361"
     inkscape:cy="45.396274"
     inkscape:window-x="147"
     inkscape:window-y="75"
     inkscape:window-maximized="0"
     inkscape:current-layer="g877"
     inkscape:document-rotation="0"
     inkscape:pagecheckerboard="0"
     inkscape:showpageshadow="2"
     inkscape:deskcolor="#d1d1d1" />
  <defs
     id="defs29" />
  <circle
     cx="32.516094"
     cy="31.877844"
     r="0"
     fill="url(#b)"
     stroke-width="1.5715"
     id="circle41"
     style="fill:url(#b)" />
  <g
     aria-label="GZ"
     transform="matrix(1.2212657,0,0,0.81882264,0.4960938,-0.1661539)"
     id="text93"
     style="font-weight:bold;font-size:11.5263px;line-height:1.25;font-family:sans-serif;-inkscape-font-specification:'sans-serif Bold';fill:#f2f2f2;stroke-width:0.288159" />
  <g
     id="g877"
     transform="matrix(1.1,0,0,1.1,-3.1845928,-3.2065454)">
    <path
       style="fill:#dfdfdf;fill-opacity:1;stroke:none;stroke-width:0.814044;stroke-dasharray:none;stroke-opacity:0.6"
       d="m 26.470833,9.9680316 c -5.236374,0 -10.751555,1.3616964 -16.419708,4.0514714 -4.6137192,2.189405 -6.5864073,3.995771 -5.4954531,5.034491 0.3848374,0.366419 0.1187385,0.442701 6.5812101,-1.954926 4.416493,-1.638552 9.848394,-3.020953 12.784773,-3.257286 4.534017,-0.36491 9.93407,0.769809 19.493719,4.093131 3.432885,1.19341 7.380716,2.446947 8.772166,2.785208 2.975884,0.723434 3.289271,0.611227 5.77036,0.619246 l 1.75221,0.0027 v -1.418989 c 0,-1.618551 -0.202127,-1.48841 -2.34645,-1.48841 -4.780503,0 -5.972976,-0.733605 -13.167975,-3.768228 C 36.489182,11.416118 31.820539,9.9680294 26.470833,9.9680294 Z M 23.255198,21.358804 c -0.812772,0.02981 -1.538103,0.104709 -2.121532,0.224927 -2.690898,0.554273 -6.29519,2.568454 -8.505595,4.612409 -3.4262164,3.168206 -7.2992079,9.091936 -6.919993,10.585475 0.1707612,0.672559 0.3521789,0.718058 3.3711365,0.844172 1.7525405,0.07318 5.1848015,0.470357 7.8752425,0.880275 l 4.951181,0.741429 v 2.085437 c -0.843866,3.822125 -0.241787,5.886213 -0.09162,7.278211 0.562361,5.037927 0.569679,5.586254 1.871617,5.403819 2.011219,-3.269448 1.957012,-9.540526 1.971584,-13.154098 l 2.052118,1.988248 c 5.622378,4.959039 7.704585,5.315042 12.526514,7.633662 3.988257,1.625547 7.407631,2.345811 11.260263,2.065987 2.368293,0 5.35841,-2.624858 5.356612,-5.659286 -9.76e-4,-2.339809 -0.660619,-4.316096 -2.263161,-5.067807 -2.946081,-1.381926 -6.211897,0.256951 -6.211897,3.323931 0,3.010163 2.901184,4.682587 4.826234,2.77965 0.803021,-0.793784 1.000652,-2.132821 0.430375,-2.937943 -0.253049,-0.357479 -0.280223,-0.297738 -0.122226,0.255458 0.545341,1.909029 -0.941735,3.231785 -2.651933,2.357576 -1.787289,-0.913627 -1.448831,-3.848494 0.499878,-4.331944 0.962565,-0.238815 2.648378,1.303457 3.279496,2.576943 0.340067,0.686282 0.352652,1.104251 0.06094,2.065998 -0.956298,3.155131 -5.253497,3.171205 -11.721213,0.05196 -1.567539,-0.755083 -3.669811,-1.89512 -4.670523,-2.534481 -1.724762,-1.101957 -3.970776,-2.453066 -6.981084,-5.067811 -1.594707,-1.385175 -1.684942,-1.195375 2.474199,-1.866067 1.195754,-0.192818 4.69217,-1.19687 7.766942,-2.229838 5.462491,-1.835111 5.670012,-2.267189 9.008197,-2.290926 1.879059,-0.01332 -1.243098,-0.131289 1.874403,0.0029 l 5.837013,0.24152 V 31.458429 28.42052 L 51.521112,28.253956 C 42.084943,28.008922 46.685022,27.791298 36.945254,24.071917 35.085449,23.361703 33.102875,22.503142 31.802466,22.166973 29.496356,21.570821 25.693535,21.269436 23.255225,21.3589 Z m 11.04922,4.840112 c 0.113062,0 1.722638,0.903299 4.318053,2.002134 2.595422,1.098826 5.055889,2.078367 5.464906,2.179844 0.409005,0.101486 0.741445,0.294745 0.741445,0.424866 0,0.130158 -1.571573,1.00889 -3.49333,1.95215 -3.919083,1.923603 -6.243318,2.729885 -10.030113,2.915728 l -0.933029,0.03882 1.008012,-0.785857 c 0.555274,-0.432591 1.393627,-1.431747 1.863284,-2.221513 0.745132,-1.252964 0.855285,-1.758021 0.855285,-3.968167 0,-1.393073 0.09241,-2.538074 0.205499,-2.538072 z m -16.341951,0.669226 c 0.465464,-0.08719 0.462151,0.626589 0.466512,2.052113 0.0086,2.805325 0.690116,4.333973 2.649144,5.942532 l 1.28015,1.049663 -6.586766,-0.552601 c -3.199224,-0.301664 -5.683617,-0.614018 -5.77037,-0.699776 -0.3109385,-0.307352 1.975276,-2.656131 4.490222,-5.042821 1.872566,-1.777059 3.005626,-2.661929 3.471108,-2.74911 z"
       id="path3-8" />
  </g>
</svg>
