<?xml version="1.0" encoding="UTF-8" standalone="no"?>
<svg
   width="64"
   height="64"
   version="1.1"
   id="svg73"
   sodipodi:docname="steam_icon_1357210.svg"
   inkscape:version="1.4.2 (ebf0e940d0, 2025-05-08)"
   xmlns:inkscape="http://www.inkscape.org/namespaces/inkscape"
   xmlns:sodipodi="http://sodipodi.sourceforge.net/DTD/sodipodi-0.dtd"
   xmlns="http://www.w3.org/2000/svg"
   xmlns:svg="http://www.w3.org/2000/svg"
   xmlns:rdf="http://www.w3.org/1999/02/22-rdf-syntax-ns#"
   xmlns:cc="http://creativecommons.org/ns#"
   xmlns:dc="http://purl.org/dc/elements/1.1/">
  <metadata
     id="metadata77">
    <rdf:RDF>
      <cc:Work
         rdf:about="">
        <dc:format>image/svg+xml</dc:format>
        <dc:type
           rdf:resource="http://purl.org/dc/dcmitype/StillImage" />
      </cc:Work>
    </rdf:RDF>
  </metadata>
  <sodipodi:namedview
     pagecolor="#f5f7fa"
     bordercolor="#666666"
     borderopacity="1"
     objecttolerance="10"
     gridtolerance="10"
     guidetolerance="10"
     inkscape:pageopacity="0"
     inkscape:pageshadow="2"
     inkscape:window-width="1377"
     inkscape:window-height="886"
     id="namedview75"
     showgrid="false"
     inkscape:zoom="6.2890624"
     inkscape:cx="47.622361"
     inkscape:cy="45.396274"
     inkscape:window-x="147"
     inkscape:window-y="75"
     inkscape:window-maximized="0"
     inkscape:current-layer="g877"
     inkscape:document-rotation="0"
     inkscape:pagecheckerboard="0"
     inkscape:showpageshadow="2"
     inkscape:deskcolor="#d1d1d1" />
  <defs
     id="defs29" />
  <circle
     cx="32.516094"
     cy="31.877844"
     r="0"
     fill="url(#b)"
     stroke-width="1.5715"
     id="circle41"
     style="fill:url(#b)" />
  <g
     aria-label="GZ"
     transform="matrix(1.2212657,0,0,0.81882264,0.4960938,-0.1661539)"
     id="text93"
     style="font-weight:bold;font-size:11.5263px;line-height:1.25;font-family:sans-serif;-inkscape-font-specification:'sans-serif Bold';fill:#f2f2f2;stroke-width:0.288159" />
  <g
     id="g877"
     transform="matrix(1.1,0,0,1.1,-3.1845928,-3.2065454)">
    <g
       id="g1"
       style="fill:#dfdfdf;fill-opacity:1"
       transform="matrix(2.0893867,0,0,2.0893868,-36.389952,-40.778241)">
      <path
         d="m 25.707159,37.61857 v 9.818213 h 1.716369 V 37.61857 Z m 3.170921,0 3.287283,8.7273 c 0.363638,0.960003 1.105458,1.265459 2.065461,1.265459 1.018185,0 1.687278,-0.349092 2.050916,-1.265459 l 3.461829,-8.7273 h -1.905461 l -3.127282,7.898207 c -0.101819,0.232728 -0.247274,0.334546 -0.480002,0.334546 -0.232728,0 -0.392728,-0.101818 -0.480001,-0.334546 L 30.768995,37.61857 Z"
         id="text3"
         style="font-size:14.5455px;font-family:Nasalization;-inkscape-font-specification:Nasalization;opacity:1;fill:#dfdfdf;fill-opacity:1;stroke-width:0.909091"
         aria-label="IV" />
      <path
         d="m 26.082951,22.059054 c -3.801204,0 -5.915139,2.152723 -5.915139,6.555138 0,4.383022 2.094541,6.535745 5.915139,6.535745 h 2.016966 c 2.928478,0 4.072719,-1.803633 4.072719,-4.092113 0,-2.269086 -1.144241,-3.704235 -3.471508,-3.704235 h -3.141812 v 1.997572 h 2.909085 c 1.066664,0 1.609693,0.620604 1.609693,1.667875 0,1.066664 -0.543029,1.84242 -1.823026,1.84242 h -2.172117 c -2.540601,0 -3.626659,-1.260603 -3.626659,-4.247264 0,-3.006054 1.105452,-4.266658 3.626659,-4.266658 h 5.391504 v -2.28848 z m 14.138155,0 c -3.801204,0 -5.915139,2.152723 -5.915139,6.555138 0,4.383022 2.094541,6.535745 5.915139,6.535745 h 5.061808 v -2.288481 h -5.061808 c -2.540601,0 -3.626659,-1.260603 -3.626659,-4.247264 0,-3.006054 1.105452,-4.266658 3.626659,-4.266658 h 5.061808 v -2.28848 z"
         id="text1"
         style="font-size:19.3939px;font-family:Nasalization;-inkscape-font-specification:Nasalization;opacity:1;fill:#dfdfdf;fill-opacity:1;stroke-width:0.909091"
         aria-label="GC" />
    </g>
  </g>
</svg>
