<?xml version="1.0" encoding="UTF-8" standalone="no"?>
<svg
   width="64"
   height="64"
   version="1.1"
   id="svg73"
   sodipodi:docname="steam_icon_3631290.svg"
   inkscape:version="1.4.2 (ebf0e940d0, 2025-05-08)"
   xmlns:inkscape="http://www.inkscape.org/namespaces/inkscape"
   xmlns:sodipodi="http://sodipodi.sourceforge.net/DTD/sodipodi-0.dtd"
   xmlns="http://www.w3.org/2000/svg"
   xmlns:svg="http://www.w3.org/2000/svg"
   xmlns:rdf="http://www.w3.org/1999/02/22-rdf-syntax-ns#"
   xmlns:cc="http://creativecommons.org/ns#"
   xmlns:dc="http://purl.org/dc/elements/1.1/">
  <metadata
     id="metadata77">
    <rdf:RDF>
      <cc:Work
         rdf:about="">
        <dc:format>image/svg+xml</dc:format>
        <dc:type
           rdf:resource="http://purl.org/dc/dcmitype/StillImage" />
      </cc:Work>
    </rdf:RDF>
  </metadata>
  <sodipodi:namedview
     pagecolor="#f5f7fa"
     bordercolor="#666666"
     borderopacity="1"
     objecttolerance="10"
     gridtolerance="10"
     guidetolerance="10"
     inkscape:pageopacity="0"
     inkscape:pageshadow="2"
     inkscape:window-width="1377"
     inkscape:window-height="886"
     id="namedview75"
     showgrid="false"
     inkscape:zoom="6.2890624"
     inkscape:cx="47.622361"
     inkscape:cy="45.396274"
     inkscape:window-x="147"
     inkscape:window-y="75"
     inkscape:window-maximized="0"
     inkscape:current-layer="g877"
     inkscape:document-rotation="0"
     inkscape:pagecheckerboard="0"
     inkscape:showpageshadow="2"
     inkscape:deskcolor="#d1d1d1" />
  <defs
     id="defs29" />
  <circle
     cx="32.516094"
     cy="31.877844"
     r="0"
     fill="url(#b)"
     stroke-width="1.5715"
     id="circle41"
     style="fill:url(#b)" />
  <g
     aria-label="GZ"
     transform="matrix(1.2212657,0,0,0.81882264,0.4960938,-0.1661539)"
     id="text93"
     style="font-weight:bold;font-size:11.5263px;line-height:1.25;font-family:sans-serif;-inkscape-font-specification:'sans-serif Bold';fill:#f2f2f2;stroke-width:0.288159" />
  <g
     id="g877"
     transform="matrix(1.1,0,0,1.1,-3.1845928,-3.2065454)">
    <path
       d="m 9.0664494,47.059848 c -0.6497436,-0.649745 -0.3740946,-1.712952 0.3937791,-2.480837 1.6145125,-1.61451 4.6466455,-1.456999 5.6901635,-0.807253 0.5316,0.334751 1.181355,0.19684 1.141976,-0.511915 -0.09848,-1.240434 -0.3544,-2.835259 -0.531606,-4.115055 -0.05906,-0.492242 -0.492235,-0.885999 -1.279781,-0.886022 -1.890172,-0.03948 -4.6269635,0.767893 -6.8518385,2.992771 -2.6974205,2.697408 -3.6818747,8.052865 -1.4569985,10.277738 4.075655,4.075654 12.660126,-3.051824 14.432153,-1.279793 0.649739,0.649742 -0.137831,1.870466 -0.98446,2.717104 -1.6342,1.634203 -4.823843,1.831089 -5.946121,1.102589 -0.53161,-0.334755 -1.201037,-0.177176 -1.141974,0.511909 0.07879,1.260109 0.334714,2.854928 0.511916,4.13473 0.07877,0.472543 0.492231,0.886006 1.299478,0.9057 1.890163,0.03936 4.882916,-1.102586 7.462195,-3.68187 2.559588,-2.559589 3.878762,-7.97411 1.614514,-10.23836 -3.78032,-3.780325 -12.502618,3.209332 -14.3533956,1.35855 z M 42.347266,30.278537 c -0.905684,0.07877 -2.520208,0.196883 -4.410363,0.275666 C 37.621871,29.96353 37.562807,28.801865 37.365916,28.171813 37.169024,27.463 36.479903,27.443317 36.1255,28.033983 l -1.535752,2.598956 -1.968916,-0.07877 c 0.846627,-1.870473 0.66943,-5.237323 -0.807257,-6.714007 -1.968916,-1.968917 -4.66633,-2.106734 -6.969962,0.196894 -2.756482,2.756483 -3.071508,7.206227 -0.767878,9.509865 0.886014,0.886014 2.421767,1.437305 4.252863,1.732639 -1.575139,2.087048 -1.141976,5.197942 0.374083,6.714007 2.343009,2.343012 5.493279,1.555444 7.836287,-0.78757 1.437305,-1.437303 2.717102,-3.74094 2.618658,-5.768918 1.201043,-0.09849 2.205179,-0.196884 2.835243,-0.275664 0.669428,-0.07879 1.14196,-0.27567 1.220729,-1.023836 0.09836,-0.767879 0.157476,-2.677725 0.118108,-3.07151 -0.05874,-0.413462 -0.393807,-0.826948 -0.984457,-0.787568 z m -7.875658,7.718151 c -0.64974,0.649742 -2.087048,0.511915 -2.815551,-0.216569 -0.472551,-0.47255 -0.669421,-1.417626 -0.570979,-2.185495 1.260103,0.07877 2.57928,0.09848 3.859075,0.03949 0.118169,0.866323 -0.01972,1.909852 -0.472557,2.362702 z M 26.517189,27.679565 c 0.511912,-0.511919 1.988609,-0.01975 2.579285,0.570985 0.413447,0.413454 0.748178,1.26012 0.669426,2.008297 -1.417615,-0.236251 -2.559588,-0.630051 -3.169952,-1.240418 -0.393768,-0.393765 -0.452818,-0.964786 -0.07876,-1.338864 z M 42.176226,7.1770025 c -0.45292,0.4528788 -4.055964,4.2922325 -4.666332,4.9026005 -0.472554,0.472558 -0.295353,3.169953 0.118157,3.583425 0.177198,0.177215 0.334714,0.137844 0.492242,-0.01975 0.570981,-0.570983 4.036284,-4.233172 4.58757,-4.784469 3.051823,-3.0518158 7.974107,-1.8704719 11.06531,1.22073 1.850769,1.850785 2.303631,3.957521 0.728495,5.690171 -0.196842,0.196877 -1.338877,1.378223 -2.559588,2.677724 -0.07877,-0.984458 -0.39381,-1.929541 -1.082916,-2.61866 0,0 -2.382543,-2.421608 -4.508817,-4.626939 -0.472544,-0.472549 -0.630036,-0.86634 -0.905694,-1.535757 -0.256019,-0.689128 -0.925394,-0.649742 -1.220727,-0.03949 l -1.988629,4.075661 c -0.275698,0.590674 -0.03936,1.181353 0.492229,1.437307 0.472546,0.236247 0.964763,0.492231 1.516062,1.043531 1.732643,1.732647 3.524362,3.603119 4.410369,4.489131 0.216589,0.216572 0.393803,0.393773 0.531593,0.61037 l -0.767879,0.767996 c -0.472543,0.472556 0.157477,3.386533 0.570965,3.800007 0.157476,0.157508 0.354439,0.118145 0.511914,-0.03949 0.551278,-0.551278 6.477724,-6.635228 7.029021,-7.186534 C 60.231155,16.923048 59.64048,11.173823 55.938919,7.3935066 52.040467,3.4950507 45.995888,3.3572283 42.176189,7.1769384 Z"
       id="text3"
       style="font-size:5.64433px;line-height:0.7;font-family:'Anubis Mythical Serif';-inkscape-font-specification:'Anubis Mythical Serif';letter-spacing:-0.394221px;fill:#dfdfdf;fill-opacity:1;stroke-width:1.56627"
       aria-label="S &amp; D" />
  </g>
</svg>
