<?xml version="1.0" encoding="UTF-8" standalone="no"?>
<svg
   width="64"
   height="64"
   version="1.1"
   id="svg73"
   sodipodi:docname="steam_icon_2807150.svg"
   inkscape:version="1.4.2 (ebf0e940d0, 2025-05-08)"
   xmlns:inkscape="http://www.inkscape.org/namespaces/inkscape"
   xmlns:sodipodi="http://sodipodi.sourceforge.net/DTD/sodipodi-0.dtd"
   xmlns="http://www.w3.org/2000/svg"
   xmlns:svg="http://www.w3.org/2000/svg"
   xmlns:rdf="http://www.w3.org/1999/02/22-rdf-syntax-ns#"
   xmlns:cc="http://creativecommons.org/ns#"
   xmlns:dc="http://purl.org/dc/elements/1.1/">
  <metadata
     id="metadata77">
    <rdf:RDF>
      <cc:Work
         rdf:about="">
        <dc:format>image/svg+xml</dc:format>
        <dc:type
           rdf:resource="http://purl.org/dc/dcmitype/StillImage" />
      </cc:Work>
    </rdf:RDF>
  </metadata>
  <sodipodi:namedview
     pagecolor="#f5f7fa"
     bordercolor="#666666"
     borderopacity="1"
     objecttolerance="10"
     gridtolerance="10"
     guidetolerance="10"
     inkscape:pageopacity="0"
     inkscape:pageshadow="2"
     inkscape:window-width="1377"
     inkscape:window-height="886"
     id="namedview75"
     showgrid="false"
     inkscape:zoom="6.2890624"
     inkscape:cx="47.622361"
     inkscape:cy="45.396274"
     inkscape:window-x="147"
     inkscape:window-y="75"
     inkscape:window-maximized="0"
     inkscape:current-layer="g877"
     inkscape:document-rotation="0"
     inkscape:pagecheckerboard="0"
     inkscape:showpageshadow="2"
     inkscape:deskcolor="#d1d1d1" />
  <defs
     id="defs29" />
  <circle
     cx="32.516094"
     cy="31.877844"
     r="0"
     fill="url(#b)"
     stroke-width="1.5715"
     id="circle41"
     style="fill:url(#b)" />
  <g
     aria-label="GZ"
     transform="matrix(1.2212657,0,0,0.81882264,0.4960938,-0.1661539)"
     id="text93"
     style="font-weight:bold;font-size:11.5263px;line-height:1.25;font-family:sans-serif;-inkscape-font-specification:'sans-serif Bold';fill:#f2f2f2;stroke-width:0.288159" />
  <g
     id="g877"
     transform="matrix(1.1,0,0,1.1,-3.1845928,-3.2065454)">
    <path
       d="m 46.580419,7.6251052 c -0.307753,-0.00908 -0.61616,0.031787 -0.902912,0.121161 -0.558962,0.1771025 -1.137573,0.5247718 -1.418868,1.0389965 -0.570666,1.0433709 -0.62304,2.4426173 -0.222791,3.5623903 1.098098,3.072084 4.273662,4.967749 6.66438,7.167712 0.815155,0.750081 8.499827,6.187582 4.569299,12.136235 -0.148731,0.225395 -0.319463,0.434495 -0.512051,0.628897 0.523138,0.751431 1.01875,1.519955 1.414973,2.339772 0.183744,-0.141961 0.360561,-0.285747 0.531608,-0.429544 2.885332,-2.427429 2.697416,-7.239475 1.516572,-9.663657 -1.048234,-2.151949 -2.673197,-4.006112 -4.358252,-5.70681 -1.520646,-1.534829 -6.722082,-4.513573 -7.321029,-6.378691 -0.283873,-0.883761 -0.534428,-2.289149 0.257951,-2.7733475 0.423388,-0.2586826 1.530519,0.045056 2.075515,0.7695015 0.314793,0.419123 0.830234,1.042195 0.758301,-0.01362 C 49.555638,9.2897425 48.282637,8.0285441 47.483313,7.7757853 47.196569,7.6851684 46.88822,7.6315424 46.580407,7.6233991 Z m -2.24751,15.0736708 c -0.09646,0.0042 -0.13373,0.132061 -0.121134,0.437649 0.10516,2.544027 -1.801312,3.271307 -2.083366,3.015478 -0.319778,-0.290299 -0.433251,-0.118556 -0.390871,0.230292 0.05592,0.462278 0.09845,0.544787 0.512049,1.269491 0.06921,0.121148 0.10857,0.393031 -0.08599,0.0938 -1.159217,-1.784833 -0.577936,-3.22474 -0.191507,-4.202981 0.220887,-0.559205 -0.0375,-0.612665 -0.336165,-0.253724 -1.451516,1.749505 -2.88561,3.081958 -4.13939,5.44115 -0.1777,0.334467 -0.182534,0.563388 0.289257,0.152386 1.164288,-1.014252 2.06943,-0.205967 1.692528,0.609381 -0.998649,2.160059 -2.755244,2.67717 -3.38496,2.949081 -2.357125,1.017728 -2.616443,0.941335 -3.650751,5.1326 -0.643841,2.609089 0.215039,8.986686 1.004546,12.460506 0.07631,0.335806 0.158167,0.658773 0.246221,0.972648 0.688455,-0.658318 1.381404,-1.358905 2.270977,-1.691356 -0.207506,-0.954938 -0.390079,-2.137088 -0.519873,-3.632703 -0.10406,-4.963568 -0.03318,-9.770979 6.785547,-8.722341 5.316369,0.7376 8.684937,0.268189 11.049961,-0.675719 -0.336497,-0.85605 -0.746268,-1.679058 -1.215543,-2.472538 -3.191429,1.028664 -7.46017,0.641092 -9.060428,-0.238442 -2.87018,-1.577248 -0.639793,-2.698498 -0.07818,-2.679622 1.365565,0.0461 1.952339,1.132074 2.048188,1.367131 0.281093,0.689688 0.449382,0.467978 0.816934,0.109494 2.569809,-2.507619 1.687056,-7.232617 -1.121822,-9.483998 -0.151114,-0.121148 -0.261059,-0.191097 -0.336157,-0.187524 z m 4.90545,15.925153 c -1.07492,0.03638 -2.308687,0.404771 -3.252061,1.527316 -1.569788,1.867681 -2.194664,4.171602 -2.474228,6.241944 0.788546,0.295324 1.603302,0.493712 2.439063,0.589809 0.280419,-2.950928 1.048259,-4.755245 2.091151,-5.702919 1.058119,-0.961529 2.135127,-0.714034 2.356961,-0.601526 0.362259,0.183504 0.59429,0.931713 0.613681,1.437428 0.05256,1.385143 1.0343,0.794463 1.215618,-0.234402 0.09157,-0.519744 0.221356,-2.434199 -0.985005,-2.933451 -0.428368,-0.177084 -1.169122,-0.352017 -2.00518,-0.324068 z m -5.99208,11.237884 c -0.02981,0.54043 -0.06392,0.999737 -0.128947,1.339812 -0.546305,2.853617 -1.982294,5.955154 -5.628569,1.976495 -0.150454,-0.240612 -0.33711,-0.530648 -0.535492,-0.917944 -0.883854,0.268199 -1.665223,0.83802 -2.188885,1.59762 0.542378,1.110961 1.125147,1.933526 1.633847,2.421748 2.490364,2.390149 5.409654,1.825446 6.828532,0.695287 1.076479,-0.85742 2.149649,-2.258748 2.52114,-6.679426 -0.848985,-0.05479 -1.68644,-0.197516 -2.501589,-0.433611 z m 8.485835,-36.557215 c -0.913428,0.02713 -1.940375,0.37182 -2.990161,1.285086 0.632055,0.548655 1.327655,1.030972 2.012987,1.519503 0.573583,-0.377242 1.257751,-0.553802 2.032531,-0.468768 2.162703,0.237552 2.918721,1.623527 3.244244,3.117065 0.179652,0.824142 0.814829,1.44667 0.813015,-0.08971 -0.0014,-1.171096 -0.03286,-2.518515 -2.009077,-4.230297 -0.516975,-0.448016 -1.58851,-1.114582 -2.923732,-1.132789 -0.05972,-8.99e-4 -0.118834,-0.0016 -0.179727,0 z m -4.745182,3.386557 c -0.0659,0.102751 -0.133732,0.200651 -0.199358,0.308758 -0.650518,1.073525 -1.181335,5.165269 0.68013,8.976262 0.866724,1.774436 2.163942,3.888888 3.86963,6.269264 4.272429,5.962361 3.940696,11.932627 -0.508197,14.147905 0.384242,0.82111 0.652075,1.700641 0.738749,2.601443 2.726397,-1.214179 4.152154,-3.079931 4.842957,-5.085721 1.819405,-5.282721 -0.525602,-9.519027 -1.203882,-10.507441 l -4.405115,-6.417878 c -1.99719,-2.910418 -2.401563,-6.212516 -1.684644,-8.503564 -0.716279,-0.590116 -1.438827,-1.172987 -2.13027,-1.789028 z m -10.11187,22.870273 c -0.537787,0.01786 -0.546055,0.215976 -0.687938,0.511709 -0.46565,0.97094 -0.514516,2.014485 -0.551129,3.023307 -0.0361,0.993488 0.246528,1.352669 0.566764,1.507757 0.500375,0.242464 2.367703,2.066546 3.82664,3.285045 2.551872,2.131273 5.806729,2.382182 8.180952,2.066333 0.121134,-0.938705 -0.190687,-1.881849 -0.672287,-2.703059 -0.08712,0.0097 -0.1731,0.01318 -0.261777,0.01786 -3.989066,0.234758 -9.160453,-2.736227 -8.595364,-6.797101 0.07451,-0.534929 -0.356884,-0.562276 -0.480765,-0.65619 -0.30978,-0.234516 -0.70281,-0.234516 -1.059258,-0.253398 -0.100331,-0.0042 -0.188967,-0.0042 -0.26582,-0.0035 z M 11.906143,13.304598 c -1.33521,0.01786 -2.4068055,0.684866 -2.9237395,1.13279 -1.9756967,1.711781 -2.0037808,3.059196 -2.0051686,4.230295 -0.00169,1.536502 0.6294879,0.913964 0.8091064,0.08969 0.3254639,-1.493544 1.085455,-2.879723 3.2481607,-3.117069 4.002208,-0.43945 5.587601,6.088606 1.981721,11.343296 l -3.5686768,5.199029 c 0.6191018,0.59252 1.3941288,1.015512 2.2045258,1.312449 0.254088,-0.41602 0.52969,-0.832754 0.828651,-1.249931 1.705689,-2.380379 3.002903,-4.494829 3.869637,-6.269262 1.861448,-3.810995 1.330649,-7.902742 0.680118,-8.976261 -1.760289,-2.904919 -3.611105,-3.715803 -5.124335,-3.695166 z M 7.7785283,34.944409 c -0.8314769,1.896666 -1.6816979,5.159746 -0.3713453,8.964504 0.817931,2.374886 2.667261,4.554329 6.484569,5.687296 1.018681,0.302461 2.471923,0.535057 4.057258,0.45308 -0.06393,-0.933389 -0.08532,-1.871779 -0.156382,-2.804594 -0.423984,0.0411 -0.844042,0.0514 -1.250786,0.02671 C 10.375239,46.90835 8.1161062,42.073562 10.229254,36.389293 9.3586035,36.003029 8.5406292,35.513682 7.7784823,34.944021 Z m 19.1644707,4.617019 c -0.07686,-0.0027 -0.165483,-0.0014 -0.265843,0.0035 -0.356474,0.01786 -0.749498,0.01786 -1.059267,0.253707 -0.123875,0.0938 -0.555225,0.121215 -0.480769,0.6562 0.374347,2.68988 -1.768247,4.900782 -4.416866,6.019284 0.124649,0.988872 0.188598,1.983969 0.238442,2.98038 0.983587,-0.34125 1.94909,-0.850202 2.829915,-1.585848 1.45895,-1.218517 3.326264,-3.042673 3.82664,-3.285069 0.320312,-0.154996 0.602816,-0.514268 0.56676,-1.507728 -0.03656,-1.008844 -0.08548,-2.0524 -0.55112,-3.023328 -0.141916,-0.295678 -0.150037,-0.495296 -0.687928,-0.511712 z m 12.566544,-2.398349 c -0.859752,0.01786 -1.698525,0.278976 -2.474227,1.253841 -0.210981,0.265429 -0.606242,0.653458 0.117261,0.738289 1.822441,0.213688 2.355372,0.568743 3.099615,1.113211 1.269882,0.928976 2.586123,1.82343 3.795377,2.796754 0.338681,-0.92356 0.798962,-1.802278 1.375872,-2.597529 -0.591491,-0.512716 -1.382137,-1.172588 -2.618846,-2.19915 -0.05422,-0.04511 -0.110243,-0.283059 -0.09765,-0.421858 0.03131,-0.351563 -0.129026,-0.488108 -0.598074,-0.48433 -0.86064,0.0089 -1.739569,-0.217698 -2.599323,-0.199215 z m 7.950338,5.230249 c -0.535627,0.901842 -0.824655,1.918087 -1.027981,2.945237 0.05085,0.06029 0.102729,0.122173 0.152403,0.183485 1.394753,1.7256 3.167198,4.161101 0.594097,6.698955 -0.471778,0.465356 -1.023318,0.656705 -1.590859,0.671837 -6.2e-5,2.76e-4 -0.0035,-2.17e-4 -0.0035,0 -0.200959,0.863985 -0.4763,1.705609 -0.871653,2.492111 1.973821,0.517316 3.861828,0.246112 5.268963,-1.800723 1.960388,-2.851486 2.22422,-6.391782 -2.083349,-10.749597 -0.176713,-0.178928 -0.291056,-0.293373 -0.437771,-0.441212 z M 37.269846,49.33447 c -1.833218,0.0044 -2.754224,1.3052 -3.627295,2.066347 -1.251869,1.091389 -1.558062,3.341144 -0.906833,5.148251 0.219647,0.609447 0.699923,2.231871 2.17326,2.429592 1.235636,0.16594 1.851607,0.06446 0.828644,-0.621011 -0.689492,-0.461864 -1.023225,-1.017765 -1.328969,-1.480464 -0.918894,-1.390515 -0.04143,-3.28916 0.93028,-4.031094 2.977019,-2.272066 4.398377,0.18883 6.222684,1.199228 0.05369,0.03131 0.106909,0.05655 0.16031,0.08599 0.51534,-0.669034 0.820432,-1.469072 1.00842,-2.300683 -0.04774,-0.03596 -0.0956,-0.06765 -0.140699,-0.101508 -2.383573,-1.796219 -4.065494,-2.398096 -5.319802,-2.394399 z M 24.402331,37.163079 c -0.859753,-0.01786 -1.742582,0.20595 -2.603217,0.199234 -0.468912,-0.0035 -0.629808,0.132941 -0.598031,0.484333 0.01265,0.138842 -0.0433,0.376819 -0.09768,0.421862 -3.371522,2.798552 -3.458751,2.912865 -5.093062,4.566215 -1.208691,1.222793 -2.058691,2.379575 -2.611033,3.476439 0.897699,0.389893 1.863432,0.599447 2.841639,0.691402 0.330982,-0.534605 0.71972,-1.031294 1.082715,-1.480441 1.682421,-2.081496 4.082598,-3.608089 6.332126,-5.253692 0.744255,-0.54447 1.277177,-0.899636 3.099616,-1.113233 0.723497,-0.08469 0.328265,-0.473037 0.117285,-0.738282 -0.775695,-0.974946 -1.610565,-1.235241 -2.470309,-1.253861 z m 2.192789,12.175305 c -1.249474,0.0091 -2.920218,0.614675 -5.276777,2.390539 -1.162625,0.876142 -3.213188,1.84901 -4.58884,0.492172 -0.695051,-0.685503 -1.069449,-1.364728 -1.223423,-2.023349 -1.007354,-0.145152 -1.991078,-0.418663 -2.93546,-0.796836 -0.04142,1.535768 0.492119,2.926374 1.356321,4.183419 2.152582,3.131042 5.430884,2.11617 8.419403,0.460986 1.443017,-0.799246 2.633585,-2.501027 4.541931,-2.054632 0.375161,-0.792413 0.628903,-1.631644 0.824742,-2.484276 -0.333153,-0.108702 -0.701404,-0.170849 -1.117897,-0.168032 z m 3.799275,2.179638 c -0.2533,0.828864 -0.561496,1.641647 -0.938085,2.421793 0.470597,0.881926 0.65022,2.018501 0.04284,2.93734 -0.305718,0.462739 -0.639467,1.018516 -1.328956,1.480462 -1.022977,0.685316 -0.407002,0.786871 0.828643,0.621013 1.47332,-0.197884 1.953616,-1.820134 2.173249,-2.429597 0.628731,-1.744584 0.36753,-3.901915 -0.777806,-5.031048 z M 17.393988,7.6524222 c -0.307791,0.00908 -0.616095,0.06171 -0.90292,0.1523863 -0.79931,0.2528647 -2.072373,1.5139553 -2.149791,2.6483195 -0.07199,1.05392 0.439623,0.43088 0.754384,0.01346 0.544997,-0.7254172 1.652074,-1.0282978 2.075529,-0.7695437 0.792396,0.4841917 0.541782,1.8895867 0.258,2.7733697 -0.204298,0.636158 -0.94924,1.402029 -1.895723,2.195193 0.536334,0.52446 0.999153,1.119487 1.414956,1.746036 1.2891,-1.168143 2.420555,-2.445297 2.990169,-4.038897 0.400239,-1.119759 0.34791,-2.5150962 -0.222799,-3.5584594 C 19.434516,8.3000637 18.855912,7.9525605 18.296935,7.7752581 18.010177,7.6842177 17.701813,7.6459248 17.394012,7.6539774 Z m -4.237047,8.8277958 c -1.251479,0.90815 -2.442559,1.751307 -3.04881,2.36325 -1.6850654,1.700692 -3.3100197,3.558771 -4.358233,5.710681 -1.1808376,2.424225 -1.364851,7.236274 1.5204932,9.663704 2.3992967,2.018582 5.9094518,3.953239 14.4700988,2.765558 6.818856,-1.04869 6.893497,3.762604 6.789443,8.726207 -0.438398,5.053234 -1.485351,6.59621 -2.048165,7.495848 -2.090901,2.281483 -3.452437,2.23187 -4.338693,1.238211 -0.845251,0.447994 -1.721891,0.848738 -2.638385,1.117163 0.384061,0.670147 0.814119,1.095857 1.24298,1.437413 1.41888,1.130179 4.338177,1.698805 6.828543,-0.691355 0.982447,-0.942943 2.237865,-3.124862 2.947177,-6.245851 0.789495,-3.473826 1.65229,-9.851428 1.008445,-12.460511 -1.034303,-4.191326 -1.293622,-4.1188 -3.650756,-5.136523 -0.629706,-0.271801 -2.386304,-0.785104 -3.384941,-2.945212 -0.376887,-0.815261 0.528244,-1.623573 1.692471,-0.609321 0.471796,0.411058 0.463066,0.182108 0.285398,-0.152386 -1.25377,-2.359196 -2.683958,-3.695576 -4.135424,-5.445076 -0.297624,-0.358785 -0.560945,-0.305104 -0.340091,0.253727 0.386385,0.978231 0.967695,2.418145 -0.191487,4.202942 -0.194477,0.29978 -0.155254,0.02661 -0.08598,-0.0938 0.413534,-0.724711 0.459902,-0.807188 0.51596,-1.269487 0.04184,-0.348842 -0.07498,-0.516574 -0.394782,-0.226687 -0.282015,0.256016 -2.184627,-0.475309 -2.079437,-3.019356 0.02201,-0.543123 -0.111889,-0.523014 -0.457324,-0.24613 -2.808864,2.25139 -3.69162,6.976385 -1.1218,9.484044 0.367465,0.358793 0.535758,0.580304 0.816916,-0.109494 0.09581,-0.23525 0.682627,-1.325008 2.048179,-1.371029 0.561631,-0.01771 2.788094,1.106291 -0.08208,2.683533 -2.282781,1.254385 -9.996121,1.51287 -12.2655805,-1.921821 -3.9305255,-5.948708 3.7541445,-11.386174 4.5693045,-12.1363 0.378474,-0.34839 0.777709,-0.688199 1.184341,-1.027276 -0.262675,-0.776898 -0.669058,-1.514039 -1.297698,-2.035112 z m 1.442305,22.167157 c -0.07369,-4.93e-4 -0.147106,0.0014 -0.218866,0.0038 -0.688884,0.022 -1.282219,0.172196 -1.649482,0.324055 -1.206421,0.499317 -1.08049,2.413825 -0.988905,2.933459 0.181308,1.02886 1.166249,1.619565 1.219525,0.234398 0.01933,-0.505732 0.247566,-1.257629 0.609763,-1.441305 0.221777,-0.112748 1.302751,-0.360148 2.360861,0.601542 0.205619,0.186583 0.399909,0.408434 0.582396,0.663995 0.536929,-0.535173 1.084582,-1.058933 1.657302,-1.558516 -0.06189,-0.07886 -0.122545,-0.156912 -0.187581,-0.234395 -0.982665,-1.169141 -2.280432,-1.519306 -3.384947,-1.527285 z m 5.182974,4.800632 c -0.711648,0.588692 -1.379555,1.215332 -1.989548,1.906185 2.52e-4,0.0012 -2.45e-4,0.0029 0,0.0036 0.169275,0.905627 0.281749,1.955222 0.324446,3.160026 0.06019,1.69813 0.202845,3.039769 0.406501,4.116982 0.873726,-0.05033 1.709234,-0.45272 2.427324,-0.953077 -0.03426,-0.152757 -0.06853,-0.304673 -0.09776,-0.456981 -0.264085,-1.37919 -0.0084,-4.659424 -1.070995,-7.777051 z M 30.902527,4.96505 c -0.159216,0.00173 -0.319662,0.02686 -0.472974,0.054558 -2.341422,0.4164515 -4.566381,1.4539587 -6.6292,2.636597 -1.044288,0.5987325 -1.324265,0.8517633 -1.833194,1.9804095 -1.111383,2.4647525 -2.031656,5.5649645 -2.677465,7.6559405 -0.346537,1.122009 -0.104951,1.315416 0.250172,1.785112 3.74689,4.955999 8.51901,10.364071 11.034312,14.667428 0.236254,0.404266 0.54431,1.166325 1.308089,-0.257348 0.08396,-0.197843 0.101662,-0.139251 0.181978,0.01361 0.758442,1.405143 1.065272,0.646589 1.300765,0.243823 2.515303,-4.303343 7.287434,-9.711414 11.034328,-14.667414 0.355069,-0.469708 0.596709,-0.663097 0.250121,-1.785115 C 44.003681,15.201663 43.083391,12.101442 41.97201,9.636699 41.463069,8.5080517 41.18309,8.2550264 40.138811,7.6562828 38.075989,6.4736481 35.85104,5.4359594 33.509617,5.0196799 c -0.3065,-0.054558 -0.646981,-0.09643 -0.934182,0.023173 -0.18079,0.075747 -0.308153,0.2754132 -0.496923,0.3474995 -0.06284,0.023172 -0.135151,0.040608 -0.200321,0.023172 C 31.673296,5.3607477 31.553524,5.1210156 31.363725,5.041704 31.220083,4.981809 31.06166,4.9614711 30.902478,4.963747 Z"
       id="path339"
       style="fill:#dfdfdf;fill-opacity:1;stroke:none;stroke-width:0.814044;stroke-dasharray:none;stroke-opacity:0.6" />
  </g>
</svg>
