<?xml version="1.0" encoding="UTF-8" standalone="no"?>
<svg
   width="64"
   height="64"
   version="1.1"
   id="svg73"
   sodipodi:docname="steam_icon_1156060.svg"
   inkscape:version="1.4.2 (ebf0e940d0, 2025-05-08)"
   xmlns:inkscape="http://www.inkscape.org/namespaces/inkscape"
   xmlns:sodipodi="http://sodipodi.sourceforge.net/DTD/sodipodi-0.dtd"
   xmlns="http://www.w3.org/2000/svg"
   xmlns:svg="http://www.w3.org/2000/svg"
   xmlns:rdf="http://www.w3.org/1999/02/22-rdf-syntax-ns#"
   xmlns:cc="http://creativecommons.org/ns#"
   xmlns:dc="http://purl.org/dc/elements/1.1/">
  <metadata
     id="metadata77">
    <rdf:RDF>
      <cc:Work
         rdf:about="">
        <dc:format>image/svg+xml</dc:format>
        <dc:type
           rdf:resource="http://purl.org/dc/dcmitype/StillImage" />
      </cc:Work>
    </rdf:RDF>
  </metadata>
  <sodipodi:namedview
     pagecolor="#f5f7fa"
     bordercolor="#666666"
     borderopacity="1"
     objecttolerance="10"
     gridtolerance="10"
     guidetolerance="10"
     inkscape:pageopacity="0"
     inkscape:pageshadow="2"
     inkscape:window-width="1377"
     inkscape:window-height="886"
     id="namedview75"
     showgrid="false"
     inkscape:zoom="6.2890624"
     inkscape:cx="47.622361"
     inkscape:cy="45.396274"
     inkscape:window-x="147"
     inkscape:window-y="75"
     inkscape:window-maximized="0"
     inkscape:current-layer="g877"
     inkscape:document-rotation="0"
     inkscape:pagecheckerboard="0"
     inkscape:showpageshadow="2"
     inkscape:deskcolor="#d1d1d1" />
  <defs
     id="defs29" />
  <circle
     cx="32.516094"
     cy="31.877844"
     r="0"
     fill="url(#b)"
     stroke-width="1.5715"
     id="circle41"
     style="fill:url(#b)" />
  <g
     aria-label="GZ"
     transform="matrix(1.2212657,0,0,0.81882264,0.4960938,-0.1661539)"
     id="text93"
     style="font-weight:bold;font-size:11.5263px;line-height:1.25;font-family:sans-serif;-inkscape-font-specification:'sans-serif Bold';fill:#f2f2f2;stroke-width:0.288159" />
  <g
     id="g877"
     transform="matrix(1.1,0,0,1.1,-3.1845928,-3.2065454)">
    <path
       fill="#000000"
       d="M 25.295583,9.0508786 5.8679841,54.961016 H 12.762574 L 26.887444,9.0508786 Z m 11.788993,0 14.119096,45.9101374 h 6.898045 L 38.676428,9.0508786 Z m -9.158964,3.6912684 -0.35759,1.153522 h 8.835967 l -0.35759,-1.153522 z m -9.216633,4.152675 -0.507553,1.614927 h 0.830538 l 0.680573,-1.614927 z m 7.936217,0 -0.496009,1.614927 h 11.673635 l -0.496016,-1.614927 z m 17.614272,0 0.680583,1.614927 h 0.899742 l -0.507552,-1.614927 z m -29.034124,5.767609 -0.70365,2.076333 h 1.880236 l 0.876681,-2.076333 z m 9.643438,0 -0.634442,2.076333 h 15.503328 l -0.634436,-2.076333 z m 21.824615,0 0.876681,2.076333 h 1.903308 L 48.79281,22.662431 Z m -35.599968,7.151826 -0.818999,2.999156 h 2.707314 l 1.263107,-2.999156 z m 11.572124,0 -0.922816,2.999156 h 20.486532 l -0.922813,-2.999156 z m 27.061611,0 1.268871,2.999156 h 2.699233 L 52.876273,29.814257 Z M 7.4194667,38.581022 6.5543288,42.041587 H 9.078226 l 1.463818,-3.460565 z m 12.5583833,0 -1.072776,3.460565 h 26.161864 l -1.072773,-3.460565 z m 33.452116,0 1.464966,3.460565 h 2.526212 L 56.556005,38.581022 Z M 4.6475544,49.654823 v 2.860733 l 1.2100407,-2.860737 z m 11.9158746,0 -1.637995,5.306193 h 34.121149 l -1.637995,-5.306193 z m 41.549831,0 1.211209,2.860733 v -2.860737 z"
       id="path1-6"
       style="fill:#dfdfdf;fill-opacity:1;stroke-width:0.115353" />
  </g>
</svg>
