<?xml version="1.0" encoding="UTF-8" standalone="no"?>
<svg
   width="64"
   height="64"
   version="1.1"
   id="svg73"
   sodipodi:docname="steam_icon_2118810.svg"
   inkscape:version="1.4.2 (ebf0e940d0, 2025-05-08)"
   xmlns:inkscape="http://www.inkscape.org/namespaces/inkscape"
   xmlns:sodipodi="http://sodipodi.sourceforge.net/DTD/sodipodi-0.dtd"
   xmlns="http://www.w3.org/2000/svg"
   xmlns:svg="http://www.w3.org/2000/svg"
   xmlns:rdf="http://www.w3.org/1999/02/22-rdf-syntax-ns#"
   xmlns:cc="http://creativecommons.org/ns#"
   xmlns:dc="http://purl.org/dc/elements/1.1/">
  <metadata
     id="metadata77">
    <rdf:RDF>
      <cc:Work
         rdf:about="">
        <dc:format>image/svg+xml</dc:format>
        <dc:type
           rdf:resource="http://purl.org/dc/dcmitype/StillImage" />
      </cc:Work>
    </rdf:RDF>
  </metadata>
  <sodipodi:namedview
     pagecolor="#f5f7fa"
     bordercolor="#666666"
     borderopacity="1"
     objecttolerance="10"
     gridtolerance="10"
     guidetolerance="10"
     inkscape:pageopacity="0"
     inkscape:pageshadow="2"
     inkscape:window-width="1377"
     inkscape:window-height="886"
     id="namedview75"
     showgrid="false"
     inkscape:zoom="6.2890624"
     inkscape:cx="47.622361"
     inkscape:cy="45.396274"
     inkscape:window-x="147"
     inkscape:window-y="75"
     inkscape:window-maximized="0"
     inkscape:current-layer="g877"
     inkscape:document-rotation="0"
     inkscape:pagecheckerboard="0"
     inkscape:showpageshadow="2"
     inkscape:deskcolor="#d1d1d1" />
  <defs
     id="defs29" />
  <circle
     cx="32.516094"
     cy="31.877844"
     r="0"
     fill="url(#b)"
     stroke-width="1.5715"
     id="circle41"
     style="fill:url(#b)" />
  <g
     aria-label="GZ"
     transform="matrix(1.2212657,0,0,0.81882264,0.4960938,-0.1661539)"
     id="text93"
     style="font-weight:bold;font-size:11.5263px;line-height:1.25;font-family:sans-serif;-inkscape-font-specification:'sans-serif Bold';fill:#f2f2f2;stroke-width:0.288159" />
  <g
     id="g877"
     transform="matrix(1.1,0,0,1.1,-3.1845928,-3.2065454)">
    <path
       style="fill:#dfdfdf;fill-opacity:1;stroke:none;stroke-width:0.895453;stroke-dasharray:none;stroke-opacity:0.6"
       d="m 21.578273,51.744995 9.448512,-5.885301 h 6.563704 c 6.227437,0 6.633625,-0.06985 7.9286,-1.364901 1.582966,-1.582964 1.821988,-4.407861 0.529123,-6.253668 -0.806166,-1.150963 -0.685905,-1.284189 3.396559,-3.762718 3.964607,-2.40697 4.312414,-2.517007 5.498785,-1.739672 3.726669,2.441807 5.094541,11.387567 2.546188,16.651771 -0.688859,1.422999 -2.168371,3.344848 -3.287803,4.270787 -3.810335,3.151677 -5.843976,3.456735 -24.834099,3.725253 l -17.238097,0.24375 z M 5.1789043,31.401933 c 0,-12.575427 0.1876976,-22.7596947 0.4170605,-22.6317075 C 6.2082514,9.1118701 39.058551,28.568979 41.199587,29.858119 l 1.82251,1.097354 -2.93465,1.78228 c -1.614055,0.980246 -9.9411,6.113875 -18.504548,11.408053 C 13.019462,49.439973 5.8253324,53.882892 5.5959527,54.018955 5.366574,54.155028 5.1789096,43.977359 5.1789043,31.401933 Z M 49.247272,27.190647 c -3.409721,-1.932629 -3.47542,-2.014574 -3.47542,-4.335113 0,-3.936911 -1.276249,-4.79868 -7.111529,-4.801905 l -4.84393,-0.0028 -9.731189,-5.833361 -9.731177,-5.8333575 14.520877,-0.00266 c 7.986483,-0.00145 15.859997,0.2512904 17.496708,0.561682 7.455553,1.4139169 10.519405,4.5836925 10.952417,11.3310845 0.152064,2.368356 -0.01186,4.905767 -0.389534,6.051835 -0.593601,1.798836 -3.043167,4.863715 -3.870522,4.842927 -0.187756,-0.0046 -1.905194,-0.895018 -3.816674,-1.978441 z"
       id="path463" />
  </g>
</svg>
