<?xml version="1.0" encoding="UTF-8" standalone="no"?>
<svg
   width="64"
   height="64"
   version="1.1"
   id="svg73"
   sodipodi:docname="steam_icon_1903340.svg"
   inkscape:version="1.4.2 (ebf0e940d0, 2025-05-08)"
   xmlns:inkscape="http://www.inkscape.org/namespaces/inkscape"
   xmlns:sodipodi="http://sodipodi.sourceforge.net/DTD/sodipodi-0.dtd"
   xmlns="http://www.w3.org/2000/svg"
   xmlns:svg="http://www.w3.org/2000/svg"
   xmlns:rdf="http://www.w3.org/1999/02/22-rdf-syntax-ns#"
   xmlns:cc="http://creativecommons.org/ns#"
   xmlns:dc="http://purl.org/dc/elements/1.1/">
  <metadata
     id="metadata77">
    <rdf:RDF>
      <cc:Work
         rdf:about="">
        <dc:format>image/svg+xml</dc:format>
        <dc:type
           rdf:resource="http://purl.org/dc/dcmitype/StillImage" />
      </cc:Work>
    </rdf:RDF>
  </metadata>
  <sodipodi:namedview
     pagecolor="#f5f7fa"
     bordercolor="#666666"
     borderopacity="1"
     objecttolerance="10"
     gridtolerance="10"
     guidetolerance="10"
     inkscape:pageopacity="0"
     inkscape:pageshadow="2"
     inkscape:window-width="1377"
     inkscape:window-height="886"
     id="namedview75"
     showgrid="false"
     inkscape:zoom="6.2890624"
     inkscape:cx="47.622361"
     inkscape:cy="45.396274"
     inkscape:window-x="147"
     inkscape:window-y="75"
     inkscape:window-maximized="0"
     inkscape:current-layer="g877"
     inkscape:document-rotation="0"
     inkscape:pagecheckerboard="0"
     inkscape:showpageshadow="2"
     inkscape:deskcolor="#d1d1d1" />
  <defs
     id="defs29" />
  <circle
     cx="32.516094"
     cy="31.877844"
     r="0"
     fill="url(#b)"
     stroke-width="1.5715"
     id="circle41"
     style="fill:url(#b)" />
  <g
     aria-label="GZ"
     transform="matrix(1.2212657,0,0,0.81882264,0.4960938,-0.1661539)"
     id="text93"
     style="font-weight:bold;font-size:11.5263px;line-height:1.25;font-family:sans-serif;-inkscape-font-specification:'sans-serif Bold';fill:#f2f2f2;stroke-width:0.288159" />
  <g
     id="g877"
     transform="matrix(1.1,0,0,1.1,-3.1845928,-3.2065454)">
    <path
       d="m 21.201681,8.5613407 q -0.156267,0 -0.156267,-0.2083972 h 0.104203 v 0.104203 l 0.104203,-0.052074 0.05207,0.104203 z m 0.62519,0.104192 h -0.156269 q -0.104203,0 -0.156268,-0.3125936 h 0.05207 Q 21.8269,8.4571421 21.8269,8.6655327 Z m -1.146179,0.104203 h -0.104203 q 0,-0.2604997 0.104203,-0.2604997 h 0.104203 q 0,0.2604997 -0.104203,0.2604997 z m -0.520989,0.052074 Q 19.847109,8.7697357 19.847109,8.56131 h 0.208395 q 0.104203,0.052118 0.104203,0.2604998 z m -0.573086,0.104192 h -0.156269 q 0,-0.2604943 0.156269,-0.2604943 0.156268,0 0.156268,0.104203 z m -0.885686,0.3646907 -0.05211,-0.104203 q 0.05211,-0.2604965 0.208404,-0.4688926 0.208396,0.104203 0.468889,0.104203 0,0.1562682 -0.468889,0.2083906 0,-0.052085 -0.05212,-0.052085 0,0.3125925 -0.104203,0.3125925 z m 3.438535,-0.3125903 h -0.156267 v -0.104203 h 0.156267 z m -4.27212,0.4167834 q -0.104203,0 -0.104203,-0.104203 0,-0.2605042 0.36469,-0.2605042 0.156268,0 0.156268,0.104203 -0.156268,0.2604932 -0.416792,0.2604932 z M 17.190062,9.8637881 16.929566,9.7075199 v 0.104203 q -0.208394,0 -0.208394,-0.104203 h 0.156268 l -0.05209,-0.052118 q -0.208404,0.104203 -0.468897,0.104203 l -0.05211,-0.104203 q 1.041977,-0.5209886 1.198274,-0.5209886 0.208393,0.052085 0.208393,0.1562682 0,0.1562682 -0.520987,0.4167933 z M 15.470796,55.398307 H 15.31453 l 0.05208,-0.1563 -1.09408,0.05197 q -0.156268,0 -0.156268,-0.208407 l -0.416798,0.104192 -0.0521,-0.104192 0.0521,-0.104192 -0.520991,0.05196 -0.156269,-0.104192 q 0,0.208406 -0.104192,0.208406 -0.416792,0 -0.833583,-0.312584 L 11.928161,54.92916 Q 11.563458,54.72074 9.6878898,54.09557 9.4794948,53.835073 9.4794948,53.678705 H 9.1668996 q -0.104203,0 -0.104203,-0.208404 H 9.375288 v -0.05199 q -0.1562682,0 -0.1562682,-0.104192 L 8.8543335,53.418324 Q 7.916413,53.053909 7.6038216,53.053909 L 7.6559,53.158101 7.4475053,53.574963 7.6559,53.522999 7.6038216,53.679363 q 0.1562679,0 0.1562679,-0.156364 h 0.1562674 q 0,0.260497 -0.2084003,0.364673 Q 7.55169,53.78348 7.3953652,53.78348 q 0,0.156365 -0.1042052,0.156365 Q 7.0827581,53.835653 7.0827581,53.78348 7.1869512,53.62718 7.1869512,53.470897 H 7.1348602 Q 6.82227,53.939805 6.5617764,53.939805 v -0.468896 q -0.1042052,0 -0.1042052,-0.05197 -0.3125963,0.104192 -0.3125963,0.312583 H 6.0407702 l 0.052078,-0.208409 -0.052078,-0.208405 q 0,-0.104192 0.052078,-0.156365 h -0.052078 l -0.2604924,0.260495 q -0.2083983,0 -0.3646892,-0.416861 l -0.2083973,0.05199 0.1042041,0.364673 h -0.052093 q -0.573086,-0.364685 -0.573086,-0.833602 l 0.052109,-0.1563 0.2604966,0.05198 q 0.1042041,-0.208403 0.1562674,-0.208403 0.2084,0.260494 0.3646927,0.260494 0.2083935,0.364672 0.312595,0.364672 V 52.74116 Q 5.6240608,52.584796 5.6240608,52.376435 l 0.3646903,-0.05197 q 0,-0.104192 0.3646892,-0.208407 L 6.5618386,52.22025 Q 6.6660438,52.011846 6.9265302,51.69926 H 6.8744518 L 6.6139581,51.907661 H 6.4576903 q 0,-0.05199 0.2604984,-0.208406 L 6.6661103,51.438769 Q 6.7703155,51.282404 6.7703155,51.178276 H 6.6140477 v -0.05197 q 0.2084007,-0.208404 0.2084007,-0.416863 -0.2084007,-0.104192 -0.2084007,-0.208406 0.3646928,-0.364675 0.3646928,-0.52099 -0.1042052,0 -0.1042052,-0.104192 l 0.2083922,-0.156301 0.05209,0.104192 -0.1042052,0.156364 q 0.1042052,0 0.1562691,-0.104192 0.052103,-0.156299 -0.052091,-0.260493 0.4167942,-0.208406 0.4167942,-0.364668 0,-0.1563 0.4688975,-0.312586 l -0.052085,-0.260494 q 0,-0.05197 0.3125958,-0.260493 v -0.05199 L 7.916501,48.625687 7.864416,48.573712 8.3333064,48.052726 h 0.3125947 q 0,-0.260496 0.4167944,-0.312584 l 0.052096,0.1563 -0.052096,0.104192 q 0,0.05196 0.052096,0.05196 0,-0.208406 0.2083961,-0.208406 1.1461774,0.833587 1.1461774,1.146174 0.677286,0.312582 1.19828,0.781489 0.52099,0.104192 1.667169,0.677303 l 0.208392,-0.05196 q 0.208397,0.05196 0.208397,0.208405 0.104203,0 0.104203,-0.104192 l 0.989878,0.260494 0.260496,-0.156364 q 0.208399,0.156364 0.72939,0.156364 0.468896,0 1.719266,-0.208405 l 0.260497,0.156365 h 0.104203 v -0.05197 h -0.156251 q 0,-0.156365 0.104203,-0.156365 0.260491,0 0.260491,0.260496 h 0.05207 l -0.05207,-0.312588 q 0.156267,0 0.156267,0.156299 h 0.05209 q 0,-0.260492 0.52099,-0.36467 0.104203,0.208404 0.208398,0.208404 0.416796,0 0.781483,-0.312584 -0.05207,-0.104192 -0.05207,-0.260493 0.05207,-0.208406 0.52099,-0.208406 0,-0.260493 0.260491,-0.260493 l 0.364696,0.05196 0.573089,-0.156365 -0.05212,-0.104192 0.104203,-0.05197 q 0.0521,0 0.0521,0.05197 0.312592,0 0.573086,-0.364672 l 0.156269,0.05197 q 0.208395,-0.05197 0.208395,-0.156269 v -0.26052 h 0.05207 q 0.208398,0.104192 0.208398,0.260496 H 22.921 l -0.156267,-0.208418 q 0.104203,0 0.104203,-0.104192 l -0.05207,-0.208401 0.156267,0.05196 q 0,-0.416866 0.72938,-0.468903 0,-0.208406 0.208402,-0.260492 0,-0.208406 0.05209,-0.312586 l 0.104203,0.05198 q 0.104203,0 0.104203,-0.104192 l -0.05209,-0.208406 0.156269,-0.104192 0.104203,0.05199 q 0.833582,-0.885712 1.198275,-1.146207 v -0.208382 h 0.156266 q 0,0.104192 0.416794,0.416865 -0.208403,0 -0.260495,0.05196 l -0.05211,-0.156343 q -0.104192,0 -0.104192,0.104192 l 0.05212,0.156364 -0.364689,0.573088 h 0.05207 l 0.36469,-0.312589 h 0.104203 q 0,0.208405 -0.62519,0.677301 l 0.05207,0.208407 q -0.416808,0.417065 -0.416808,0.625472 l 0.156267,0.05197 q 0,-0.156365 0.937786,-1.198272 l 0.156266,0.05199 q 0.260495,-0.208406 0.57309,-0.781483 l 0.156268,-0.05199 -0.05207,-0.104192 q 0,-0.104192 0.104203,-0.104192 l 0.15627,0.05196 q 0.312589,-0.260496 0.625185,-0.520987 0.31259,-0.312584 0.468892,-0.98988 l -0.05208,-0.05196 q 0,0.520988 -0.781488,1.146179 l -0.05211,-0.156364 q 0.208396,-0.364672 0.520988,-0.364672 V 44.77009 h -0.156267 v -0.4168 l 0.156267,-0.156299 q -0.104203,-0.05197 -0.104203,-0.208403 0.312594,0 0.573091,-0.468904 0.156267,0 0.156267,-0.208401 -0.104203,0 -0.156267,-0.1563 v -0.05198 q 0.208398,-0.364676 0.312591,-0.364676 l -0.05206,-0.156299 q 0.208402,-0.312582 0.208402,-0.625197 0.260494,0 0.260494,-0.208406 l -0.05207,-0.312581 q 0.05206,-0.20836 0.208377,-0.20836 v -0.05197 q -0.416789,0 -0.416789,-0.1563 0.208395,-0.05199 0.208395,-0.312581 l -0.104203,-0.05207 q 0,-0.05207 0.208394,-0.312586 l -0.156268,-0.05207 0.05212,-0.104192 -0.05212,-0.208404 0.312593,-0.156268 -0.05207,-0.156268 0.260496,-0.05208 v 0.104192 h -0.156235 q 0.05212,0.05207 0.05212,0.156268 h -0.104192 v 0.0521 q 0.260489,0 0.364693,-0.0521 l 0.208396,0.0521 q 0,0.729387 -0.260498,0.729387 h -0.156267 v 0.05207 q 0.260494,0 0.260494,0.208402 -0.05207,0.260495 -0.364691,0.260495 l 0.05209,0.104192 q 0,0.364672 -0.468898,1.041984 -0.05207,0.677301 -0.208391,0.677301 0,-0.05197 -0.05207,-0.05197 l 0.05207,0.312583 -0.156268,0.625198 q 0,0.05197 0.05212,0.05197 0.364694,-0.88569 0.520986,-0.88569 l -0.31259,0.937781 h 0.05211 q 0.260497,-0.260495 0.677284,-1.146167 l -0.05214,-0.416814 q 0,-0.416811 0.364694,-0.573099 0.104203,-0.208404 0.104203,-0.729388 l -0.104269,-0.157186 q 0,-0.312584 0.260493,-0.833585 l -0.05211,-0.260489 0.05211,-0.260493 -0.364689,0.05211 v -0.103411 h -0.677256 v -0.156269 h 0.104203 l -0.104203,-0.156266 v -0.312595 q 0,-0.104203 0.156267,-0.104203 V 38.570638 Q 28.912258,37.580683 28.912258,37.268083 H 28.75599 q 0,-0.468894 0.260498,-0.625191 l 0.156268,0.208396 q 0,0.156268 -0.156268,0.156268 v 0.05208 l 0.312591,-0.05208 q 0,-0.156268 -0.104203,-0.260494 0,-0.104192 0.104203,-0.104192 0.156268,0 0.156268,0.208397 0.156266,0 0.2084,-0.625186 l -0.104203,0.104203 q -0.156267,0 -0.520998,-1.041975 l -0.781477,-0.989878 q 0,-0.260495 0.104203,-0.260495 0.833586,1.094077 0.98988,1.198274 h 0.05207 l -0.05207,-0.156267 0.05207,-0.156268 -0.156267,0.104203 -0.05211,-0.104203 v -0.208393 q 0,-0.104192 0.156267,-0.104192 0.312594,0.468898 0.364694,0.468898 0.05209,0 0.05209,-0.05208 -0.2605,-0.573089 -0.468896,-0.573089 l -0.208399,0.104192 -0.05207,-0.104192 q 0,-0.156269 0.156269,-0.156269 v -0.05208 h -0.104203 l -0.260493,0.104203 q -0.677238,-0.833678 -1.094027,-1.094169 0,-0.05207 0.208396,-0.156269 0.208399,0 0.208399,0.208394 h 0.05208 q -0.05208,-0.36469 -0.9378,-0.833585 h -0.312596 l 0.104203,0.156268 q 0,0.104192 -0.104203,0.104192 -0.416789,-0.208399 -0.520987,-0.208399 v 0.05211 q 0.833585,0.520992 0.833585,0.625185 -0.2084,0.52099 -0.41679,0.52099 0,-0.312593 -1.56297,-0.937783 l -0.312594,0.364691 0.104203,0.0521 q -0.104203,0.05209 -0.260492,0.05209 -1.041978,-0.2605 -1.041978,-0.573086 l -0.312597,0.208393 -0.05207,-0.104192 q 0.208396,-0.208398 0.416794,-0.208398 0.156268,0 0.156268,0.208398 l 0.104203,-0.05209 q 0.208393,0 0.573086,0.208399 0.05207,-0.104203 0.104203,-0.104203 l 0.312594,0.05208 0.104203,-0.156268 -0.416797,-0.0521 -0.364692,0.0521 q -0.05212,-0.364689 -0.208395,-0.364689 -0.416792,0 -0.625184,0.104192 -1.302493,-0.26048 -1.667181,-0.26048 l -0.156267,0.05211 v 0.104203 l 0.156267,-0.104203 q 0,0.260495 -0.416793,0.312596 h -0.05209 l -0.260493,-0.156267 -0.05212,0.208396 h -0.26047 q -0.156267,0.156255 -0.312594,0.156255 l 0.05207,0.104192 q 0,0.208392 -0.625188,0.364689 l -1.719266,0.833586 -0.05207,-0.0521 -0.104203,0.0521 -0.208397,-0.104192 q 0,0.156268 -0.156268,0.156268 -0.104203,0 -0.104203,-0.104203 0.104203,-0.156268 0.104203,-0.260493 -0.05212,0 -0.364692,0.520994 -0.573084,0.260492 -0.573084,0.468894 0.208392,0.208401 0.208392,0.416793 L 17.18997,35.07997 q 0,0.0521 0.05207,0.0521 l -0.05207,-0.208398 q 0.104203,0 0.260496,0.208392 l -0.208399,0.260501 0.104203,0.156267 -0.156267,0.104192 q -0.156269,0 -0.156269,-0.260491 h -0.104203 q 0,0.2084 0.156269,0.364692 v 0.312512 h -0.05207 q -0.260482,-0.208431 -0.41678,-0.208431 l 0.05207,0.520987 -0.416792,-0.364692 v 0.0521 q 0.156268,0.2084 0.156268,0.416795 l -0.156268,0.05207 q -0.05211,-0.05211 -0.260496,-0.05211 l -0.05212,0.156266 0.312594,0.0521 q 0,0.156269 -0.520992,0.260501 -0.312591,-0.156268 -0.364688,-0.260501 0,-0.156266 0.104203,-0.156266 -0.104192,-0.208404 -0.104192,-0.312604 l 0.104192,-0.0521 0.156268,0.0521 q 0,-0.156268 0.416788,-0.156268 v -0.05211 q -0.312591,0 -0.468897,-0.104203 l 0.05208,-0.2084 -0.05208,-0.312592 q 0.05208,-0.2084 0.208399,-0.2084 l -0.104203,-0.260495 -0.156269,0.104203 q -0.104203,0 -0.104203,-0.156266 h -0.05207 l 0.05207,0.156266 q 0,0.312597 -0.468891,0.625188 v 0.05207 l 0.36469,-0.05207 q 0,0.104203 -0.677286,0.677285 l -0.05207,-0.104159 q 0,0.156267 -0.104203,0.156267 -0.05211,-0.260493 -0.312596,-0.468891 v -0.260494 q 0,-0.104192 0.156268,-0.104192 -0.2605,-0.416786 -0.2605,-0.520989 h -0.208357 l 0.05207,0.260492 q -0.208399,0 -0.208399,-0.156268 h -0.156266 q -0.312597,0 -0.312597,-0.260491 h 0.104203 q -0.104192,-0.208398 -0.104192,-0.416794 l 0.156269,-0.05211 q 0,-0.104192 -0.104203,-0.104192 0,0.0521 -0.05211,0.0521 -0.156269,-0.2084 -0.156269,-0.260492 -0.05208,0 -0.05208,0.0521 0.104203,0.156267 0.104203,0.312593 h -0.104203 l -0.104203,-0.312593 -0.104203,0.05211 q -0.104203,-0.156269 -0.104203,-0.364693 0.104203,0 0.208395,0.104192 v -0.05213 Q 12.813691,33.56897 12.344806,32.995878 h -0.104203 q 0,0.312596 -0.156268,0.312596 -0.208396,-0.104192 -0.208396,-0.312596 l -0.156269,0.104203 q -0.104203,-0.156267 -0.104203,-0.625182 0.52099,-1.302471 0.729385,-1.302471 0.677288,-0.364696 0.781487,-0.520996 0,0.05212 0.05212,0.05212 0,-0.156267 0.885683,-0.468893 l 0.05212,-0.104203 0.260494,0.05207 q 0.520989,-0.2084 1.146179,-0.312593 0,-0.208395 0.156268,-0.208395 l 0.208395,0.156268 q 0.625187,-0.260492 0.625187,-0.364693 0.05207,-0.156268 0.104203,-0.156268 h 0.573089 q 0,-0.156267 0.104203,-0.156267 0.156268,0.104203 0.312593,0.104203 l 0.208398,-0.15627 0.104203,0.05207 q 0,-0.156268 0.729385,-0.364695 0,-0.05211 0.468899,-0.2084 0,-0.260493 0.573084,-0.312596 l 1.458759,-1.094084 q 0.104203,0 0.312593,-0.208401 l 0.208395,0.05212 -0.104203,-0.156268 0.104203,-0.05209 q 0.05212,0.104203 0.104203,0.104203 0.156269,-0.46889 0.36469,-0.46889 0.104192,0.104203 0.260498,0.104203 0.520994,-0.312594 0.520994,-0.573089 -0.104192,0 -0.156266,-0.15627 0.05211,-0.312592 0.416795,-0.312592 l -0.05208,-0.104203 q 0,-0.260496 0.573086,-0.364693 0,-0.104192 0.364695,-0.260499 l -0.05207,-0.156268 q 0.520989,-0.208394 0.520989,-0.468894 0.260496,-0.05211 0.260496,-0.312592 l -0.104203,-0.156269 0.312596,0.05207 -0.05211,-0.104203 0.05211,-0.104203 q -0.05211,0 -0.156269,-0.156266 0.104192,0 0.416799,-0.468897 0.312593,0 0.36469,-0.416787 h 0.104203 l -0.05221,-0.312496 q 0.208393,0 0.208393,-0.104203 -0.156268,0 -0.156268,-0.156269 0.208395,-0.05209 0.83358,-1.250382 0.05212,0 0.05212,-0.05207 l -0.05212,-0.208394 0.104203,-0.05207 q 0,0.05207 0.156268,0.156268 h 0.05207 Q 26.724198,20.28394 26.724198,20.127638 l 0.05211,-0.208399 -0.05211,-0.156268 0.104203,-0.05212 -0.05211,-0.156267 q 0,-0.416799 0.364689,-0.416799 l -0.05211,-0.104203 q 0,-0.05211 0.312593,-0.260492 h 0.312604 v 0.156267 h -0.312546 l 0.05211,0.104203 -0.05211,0.104192 q 0.104192,0 0.156267,0.2084 0,0.156269 -0.208398,0.156269 0,1.041978 -0.364692,1.041978 v 0.05211 q 0.208404,0 0.208404,0.156268 h -0.312697 v -0.104203 h -0.05212 v 0.156268 q 0.104192,0 0.104192,0.104203 l -0.156267,0.573106 h 0.104203 q 0.104203,-0.364693 0.260498,-0.364693 -0.104203,0.677283 -0.36469,0.677283 l 0.104203,0.156267 -0.104203,0.52099 q 0,0.156268 0.104203,0.156268 0.260492,-1.198275 0.67729,-1.198275 0.208399,-0.781483 0.41679,-0.781483 l -0.104203,-0.156269 q 0.260495,0 0.729382,-0.729389 l 0.05211,-1.041981 h -0.05211 q 0,0.833585 -0.31259,1.198276 0,0.104203 -0.104203,0.104203 L 28.13082,19.86708 q 0.05207,-0.468896 0.312589,-0.468896 V 19.29398 q -0.208392,0 -0.208392,-0.416792 l 0.104203,-0.208394 q -0.156267,0 -0.156267,-0.104203 0,-0.156269 0.208394,-0.156269 v -0.41679 q 0,-0.104192 0.156266,-0.104192 v -0.260621 l -0.208391,-0.2084 0.05211,-0.729384 q -0.104203,0 -0.104203,-0.104203 l 0.05208,-0.468897 q -0.208401,-0.36469 -0.208401,-0.520991 0.156267,0 0.156267,-0.104192 0,-0.104203 -0.520993,-0.833582 0,-0.312597 0.156267,-0.312597 0.364692,0 0.573087,1.92767 l 0.208396,0.781482 -0.104203,0.05211 q 0,-0.05211 -0.05212,-0.05211 v 0.104203 q 0.260503,0.31259 0.260503,1.094078 h 0.05211 l 0.05209,-1.198278 q 0.156268,-0.05212 0.156268,0.104203 v 1.198277 h 0.05211 q 0.156266,-0.468896 0.208399,-1.302476 0,-0.260494 -0.416786,-1.406668 l -0.05208,-0.312594 0.104203,-0.208396 q 0,-0.677287 -1.302474,-1.875569 -0.364726,-0.677283 -0.833614,-1.094074 l -0.104203,0.05207 q -0.573089,-0.468907 -0.833588,-0.468907 0,0.260499 -0.104203,0.260499 -0.104203,0 -0.104203,-0.156267 h -0.05207 q -0.468904,0.573085 -0.521005,0.573085 h -0.208392 v -0.156267 q -0.625189,0 -0.833586,-0.312591 l -0.31259,-0.05212 q -0.364693,0 -0.937787,0.104203 -0.156267,0 -0.416795,-0.104203 v 0.104203 q -0.364692,0 -0.520993,-0.312595 0.05209,-0.156268 0.312591,-0.156268 l 0.05212,0.208397 0.104203,-0.260494 -0.104203,-0.156268 -0.104203,0.104203 q -0.156267,0 -0.156267,-0.156267 0,-0.104192 0.260495,-0.104192 -0.104203,-0.156267 -0.416789,-0.364692 l -0.05212,0.05211 0.05212,0.156267 Q 21.670504,11.11444 21.514177,11.11444 H 20.68058 q -0.67729,0.156268 -0.885682,0.156268 -0.208399,0 -0.208399,-0.104203 0.104203,-0.104203 1.302473,-0.364694 V 10.69763 q -0.156268,0 -0.156268,-0.104203 h -0.05207 q 0,0.208402 -0.104203,0.208402 -0.104203,0 -0.208397,-0.208402 0,-0.05211 0.520998,-0.208395 v -0.05212 h -0.312603 q -0.364692,0 -0.364692,0.416798 h -0.05212 q -0.104203,-0.104203 -0.104203,-0.208401 h -0.05211 q 0,0.364692 -0.364692,0.364692 -0.625188,0.05212 -0.833583,0.208396 h -0.104203 l -0.05211,-0.208396 0.2084,-0.104203 v -0.05212 h -0.156297 q -0.885686,0.156304 -0.885686,0.468922 l 0.104192,-0.05207 0.05212,0.05207 0.104203,-0.05207 q 0.104203,0.05207 0.104203,0.260493 l -0.156247,-0.156264 q -0.416798,0.312597 -0.416798,0.416797 0.625189,-0.208393 0.781485,-0.208393 0.104203,0 0.312596,0.364688 l -0.05212,0.260497 -0.104203,-0.05207 q -0.156267,0 -1.354576,0.416793 0,0.260495 0.260494,0.573088 -0.520981,0.3126 -1.094069,0.3126 l -0.156268,-0.05207 q 0,0.208398 -0.156267,0.208398 0,-0.364686 0.156267,-0.364686 l 0.208398,0.05212 q 0,-0.208394 0.573089,-0.208394 l -0.05207,-0.104203 q 0,-0.104203 0.2084,-0.104203 v -0.260515 q -0.104203,0 -0.520988,0.416793 L 16.304371,12.7817 q -0.677291,0.625187 -0.833584,0.625187 -0.520995,0.208395 -0.781484,0.364691 l 0.104203,0.208401 q -0.104203,0.260493 -0.260494,0.364694 -0.05211,0 -0.05211,-0.05207 l 0.05213,-0.208414 -0.312603,-0.156267 q -0.05211,0.312594 -0.26049,0.312594 v 0.104203 l 0.208392,-0.05208 v 0.104203 H 14.06413 v 0.05211 q 0.208394,0 0.208394,0.104203 l -0.520993,0.260494 0.05212,-0.312596 h -0.05212 q -0.312593,0.260494 -0.36469,0.260494 0,0.05208 0.260497,0.156267 -0.260497,0.312592 -0.260497,0.364694 h -0.104203 l 0.05211,-0.260493 q -0.260494,0 -0.416794,0.416794 l 0.156269,0.05212 q 0,0.364689 -0.520991,0.573085 l -0.05208,0.312593 h -0.104203 v -0.156295 q -0.104203,0 -0.156267,0.260494 l 0.05207,0.15627 -0.104203,0.05208 -0.05207,-0.05208 q 0,0.104192 -0.41679,0.729383 h -0.364695 q 0,0.156268 -0.208389,0.625187 l 0.156268,0.156266 -0.260496,0.729386 h -0.104203 v 0.156268 h 0.05208 v -0.104192 h 0.104203 q 0.260496,0.364689 0.260496,0.520994 l -0.156268,0.520988 q 0.260492,-0.208397 0.364689,-0.208397 0,0.625187 -0.156266,0.625187 l 0.05207,0.104203 q 0,0.05207 -0.156269,0.156269 -0.104203,0 -0.312593,-0.520988 -0.104203,0 -0.156267,0.104203 l 0.05207,0.104203 q -0.104203,0 -0.468895,-0.260501 -0.208395,-0.104203 -0.41679,-0.104203 L 9.8962359,20.17971 q 0.2083961,0.364696 0.2083961,0.468897 l 0.364692,-0.05208 q 0.05207,0.104203 0.05207,0.260496 h -0.104203 l 0.520986,0.573084 -0.104203,0.05211 -0.260493,-0.05211 q 0,0.104203 -0.260493,0.260494 h -0.208359 q -0.05207,0 -0.1562681,-0.156267 v -0.05211 h 0.3125981 q 0,-0.104203 -0.3125937,-0.104203 -0.104192,0 -0.104192,0.208399 l 0.2604957,0.208394 -0.2604957,1.04198 q 0.2604957,0.312591 0.3125947,0.677285 0.156268,0.104203 0.416791,0.104203 0.208394,-0.156268 0.468899,-0.156268 h 0.677235 q 0.104203,0 0.104203,0.104203 l -0.05212,0.260498 0.781487,-0.260498 q 0,0.05212 0.05207,0.05212 -0.677227,0.989851 -1.875505,0.989851 -3.490629,-0.208399 -4.3763115,-2.13606 0,-0.104203 -1.5629719,-3.334336 1.8234619,-1.354571 1.8234619,-1.562969 0.1042052,-0.625185 0.4688956,-0.625185 V 16.845453 H 6.9266475 q 0,-0.2084 0.4688944,-0.729389 l -0.052115,-0.208396 q 0.052115,0 0.4688972,-0.312597 L 7.760246,15.490868 q 0.833558,-0.729386 0.833558,-0.989877 0.2604954,0 0.2604954,-0.104203 0,-0.104203 0.208395,-0.364694 -0.104203,-0.104203 -0.104203,-0.156267 0.3646929,-0.31259 0.5209864,-0.520988 h 0.2604976 l -0.052074,-0.2084 0.104203,-0.05212 q 0,0.104192 0.104203,0.104192 l -0.052107,-0.36469 0.3125966,-0.260495 0.05212,0.156267 0.208398,-0.208397 0.104203,0.05208 q 0.208398,-0.104203 0.364692,-0.104203 0,-0.104203 -0.05212,-0.156267 l 0.104203,-0.05207 q 0.156266,0.312595 0.208395,0.312595 l 0.05212,-0.104203 -0.104203,-0.156269 0.05207,-0.208396 0.3126,0.05212 0.156267,-0.05212 q 0,0.104203 0.104203,0.104203 0.05207,-0.208398 0.156267,-0.208398 l 0.156268,0.104203 -0.05212,-0.260493 q 0.104203,-0.05207 0.520989,-0.104203 v -0.05207 H 12.39695 v -0.05211 q 1.562942,-1.146189 1.771341,-1.146189 0.989879,-0.36469 1.56297,-0.6251899 h 0.05211 v 0.104203 q -0.312595,0.3125929 -1.823465,1.0940769 -0.104192,0.156266 -0.260495,0.260495 v 0.104203 q 0.208396,0 0.416798,0.36469 0,-0.208394 0.104203,-0.208394 0.05211,0 0.208395,0.260493 -0.104203,0 -0.104203,0.104203 h 0.104203 q 0.67731,-0.416753 0.885704,-0.416753 l 0.05211,0.05212 q 0,-0.104203 0.156268,-0.156269 0.156267,-0.05208 0.208401,0 0,-0.260498 0.312588,-0.260498 v -0.260492 q -0.208393,0 -0.208393,-0.104203 0,-0.104203 0.156268,-0.104203 l 0.31259,0.20839 q 0.104192,-0.104203 0.104192,-0.20839 l -0.208395,0.05211 q 0,-0.260496 0.104203,-0.260496 0,0.104203 0.312595,0.260496 v -0.05211 q -0.104203,0 -0.208401,-0.416794 0.208401,0 0.312592,0.520991 h 0.104203 l 0.260489,-0.468895 h 0.260498 l -0.05211,0.260492 q 0.573089,0 0.781485,-0.208398 h 0.260492 l 0.05209,-0.208394 q -0.05209,0 -0.05209,-0.05212 l 0.260496,0.104203 q 0.312594,0 1.04198,-0.2084 0.156266,0 0.364687,0.104203 0,-0.1562678 0.156268,-0.1562678 l 0.208403,0.1042028 q 0.05209,0 0.05209,-0.05212 -0.208403,0 -0.208403,-0.2083948 h 0.260499 q 0.260495,0.2604908 0.36469,0.2604908 0,-0.1042028 0.104203,-0.1042028 l 0.104203,0.052074 q 0.05211,-0.2083946 0.260496,-0.2083946 v 0.1562682 h 0.0521 q 0,-0.104192 0.05212,-0.104192 l 0.364695,0.052118 q 0.104203,-0.1562682 0.104203,-0.4688959 l -0.104203,0.052085 q 0,-0.052085 -0.05211,-0.1562682 0,-0.1562671 0.312593,-0.1562671 0.208393,0.052074 0.208393,0.1562671 l -0.05211,0.3646929 0.05211,0.052107 q 0.104203,-0.468897 0.2605,-0.468897 h 0.520992 l 0.156267,-0.104203 q 0.364691,0.2084005 0.364691,0.7293858 L 23.650231,9.864283 23.598146,9.76008 V 9.3432537 q 0,-0.104203 0.156268,-0.104203 0.573089,0.2604965 0.729387,0.2604965 0.05209,-0.104203 0.104192,-0.104203 0.260496,0.2083972 0.989881,0.4167955 l 0.416792,-0.052074 q 0.989883,0.1562682 2.344455,1.4066723 l -0.104203,0.05207 -0.520992,-0.05207 q 0.57309,0.416791 0.833585,1.146179 l 0.104203,0.05212 0.05207,-0.05212 q -0.104214,-0.208463 -0.312627,-0.46896 h 0.208398 q -0.36456,-0.364922 -0.468761,-0.364922 v -0.156267 q 0.468893,0 0.885678,0.677284 0.312591,0 0.416794,0.468895 l -0.104192,0.05205 q 1.094079,1.406673 1.094079,1.875559 0.520993,1.302478 0.729388,3.542734 -0.15627,0 -0.364695,0.416793 -0.156269,0 -0.260495,-0.05211 0.05211,0.156269 0.156268,0.260499 l -0.260498,0.312592 0.104203,0.208397 q -0.05209,0.05212 -0.260495,0.05212 v 0.05207 q -0.156261,1.927633 -0.520982,1.927633 l 0.0521,0.104203 -0.260495,0.729386 q 0.05209,0 0.05209,0.05212 l -0.208398,0.05207 0.05212,0.104203 q 0,0.156268 -0.156267,0.156268 v 0.05211 q 0.208394,0 0.208394,0.156269 -0.104203,0 -0.104203,0.104203 0.156269,0 0.156269,0.104203 0,0.312594 -0.260494,0.625185 0.208395,0 0.208395,0.156267 -0.260497,0.781482 -0.416789,0.781482 l 0.05209,0.156268 q -0.156269,0 -0.312594,0.468897 -0.208398,0 -0.468897,0.573088 -0.416792,0.260492 -0.416792,0.364695 -0.208393,0.729386 -0.573085,0.729386 l 0.05212,0.104203 q 0,0.104203 -0.104203,0.104203 -0.05209,0 -0.520988,-0.364693 h -0.0521 q 0.520988,0.416789 0.520988,0.520992 -0.05211,0.2084 -0.156267,0.2084 -0.104192,0 -0.208403,-0.104203 -0.156269,0.260496 -0.208395,0.677289 -0.104203,0.156266 -0.2084,0.156266 l 0.05208,0.208395 -0.104203,0.05208 -0.364695,-0.260493 q 0.05211,0 0.208397,0.260493 v 0.104203 l -0.156269,0.260498 q 0.05211,0 0.156269,0.156267 -0.520993,0.104192 -0.520993,0.312592 l 0.260493,-0.05207 q 0,0.05207 -0.468896,0.468892 l -0.260493,-0.05212 0.05211,0.312592 q 1.146174,0.416791 1.146174,0.520989 l -1.875572,-0.312569 v 0.104203 h -0.104203 v -0.156269 h -0.260491 q 0.05207,0.104203 0.104192,0.104203 l -0.05209,0.260491 h -0.05211 q 0,0.2084 0.208399,0.260498 l 0.312583,-0.05205 q 0.05211,-0.104203 0.104203,-0.104203 0.05211,0.05207 0.05211,0.156269 0,0.104203 -0.104203,0.156266 H 24.9527 q 0.208401,-0.156266 0.364694,-0.156266 0,0.05212 0.05208,0.05212 l -0.05208,0.208395 0.2084,0.364689 q -0.2084,0 -1.40667,-0.677282 h -0.156259 l 0.05211,0.2084 -0.05211,0.05209 -0.156268,-0.05209 q 0,0.104203 0.729385,0.260493 0.05207,0.104203 0.104203,0.104203 l 0.260493,-0.05207 q 0.104203,0.104203 0.104203,0.260494 0.156269,-0.104203 0.260492,-0.104203 l 0.416799,0.104203 q 0,-0.104203 0.156267,-0.104203 L 25.682157,30.85978 v -0.05212 h 0.156267 q 0.05209,0 0.208393,0.208392 v 0.156269 l 0.208403,0.05212 q 0,-0.104203 0.104203,-0.104203 0.104203,0 0.104203,0.156266 h 0.05207 q 0.05209,-0.416795 0.208396,-0.416795 l 0.05212,0.156267 -0.260492,0.468895 0.625185,-0.05212 q 0.260496,0.104203 0.260496,0.208397 0,0.104192 -0.104203,0.104192 l -0.156267,-0.05207 v 0.05207 q 0.31259,0.312591 0.937778,0.625186 l 0.104203,0.156268 q 0.2084,0 0.2084,-0.156268 h 0.104203 v 0.260495 q 0,0.05209 0.989878,1.146178 v 0.208399 l -0.05212,0.104192 0.260494,-0.05209 q 0.05207,0 0.05207,0.573083 h 0.05211 q 0,-0.46889 0.104192,-0.46889 0.104203,0.104203 0.104203,0.260495 0.05208,0.156268 -0.05211,0.260494 l 0.05211,0.15627 q -0.05211,0 -0.05211,0.05207 0.156269,0 0.156269,0.260493 l 0.260491,-0.05208 0.05209,0.104203 q 0,0.156268 -0.156268,0.156268 v 0.05213 q 0.208394,0 0.208394,0.104192 0,0.156266 -0.05211,0.156266 0.104203,0.208394 0.208395,0.208394 0.364693,0 0.364693,-0.104192 l -0.05209,-0.156267 q 0.05209,-0.05211 0.208393,0 0.156267,0.05208 0.156267,0.312596 0,0.208398 -0.468896,0.260495 v 0.05211 q 0.573085,0 0.573085,0.260493 0.05208,0.260495 0.2605,0.468895 -0.05209,0.208401 -0.520998,0.573088 h 0.05207 q 0.36469,-0.208393 0.520995,-0.208393 0,0.05208 0.05209,0.05208 -0.104203,0.364692 -0.104203,0.625186 0,0.104192 0.104203,0.104192 l -0.05209,0.729379 q 0.260493,0 0.260493,0.677286 -0.05211,0.625187 -0.156268,0.625187 l -0.312654,-0.208359 q -0.05209,0.364672 -0.312598,0.625189 l 0.104203,0.05207 q 0.104203,-0.104192 0.104203,-0.260499 l 0.156269,0.05207 q 0,-0.312584 0.104203,-0.312584 0.156267,0.208407 0.156267,0.312584 l -0.05207,0.156251 q 0.104203,0 0.104203,0.156252 0,0.104192 -0.104203,0.104192 -0.104203,0 -0.156267,-0.05197 0,0.416813 0.104203,0.729381 -0.260495,0.520987 -0.416796,1.562972 -0.208401,0.416812 -0.312592,0.98988 -0.104203,0 -0.520996,0.260492 h -0.156301 q 0,0.260492 -0.312594,0.468901 0.104203,0 0.104203,0.208407 h -0.312598 q -0.625192,1.719277 -1.094082,1.719277 l 0.05211,0.156363 -0.520996,0.677305 0.05211,0.104192 q 0,0.104192 -0.312591,0.104192 l 0.05211,0.104192 q 0,0.156299 -0.312594,0.156299 v 0.05196 q 0.260494,0 0.260494,0.104192 0,0.104192 -0.208399,0.104192 0.156268,0.104192 0.156268,0.208404 -0.312593,0.573087 -0.520992,0.573087 l -0.260497,-0.05196 -0.156269,0.260496 h 0.208407 v -0.156365 q 0.260489,0 0.260489,0.208406 -0.520991,0.937778 -0.885681,0.989879 l 0.104192,0.156299 q -0.468899,0.05197 -0.468899,0.364672 -0.208399,0 -0.937776,0.573085 l -0.416799,0.104192 q 0,-0.05196 -0.05208,-0.05196 0,0.416863 -0.729384,0.729391 0,-0.05196 -0.05212,-0.05196 0,0.208407 -0.104203,0.208407 -0.05211,0 -0.520995,-0.625204 v 0.05196 q 0.364694,0.520989 0.364694,0.677301 0,0.104192 -0.156268,0.156364 -0.2084,0 -0.2084,-0.156364 -0.468893,0.260497 -0.468893,0.677305 l -0.208386,-0.05195 q 0,0.208406 -0.104203,0.208406 l -0.104203,-0.05196 q 0,0.208406 -0.104203,0.208406 -0.312591,-0.312583 -0.312591,-0.468898 -0.05207,0 -0.05207,0.05197 0.104203,0.1563 0.104203,0.416861 -0.312593,0.156364 -0.312593,0.260495 l 0.05211,0.208408 -0.260495,-0.05196 q -0.364691,0 -0.416786,0.156365 l 0.104203,0.05196 0.156266,-0.05196 v 0.05183 q -0.416794,0.312581 -0.833585,0.312581 l -0.05207,-0.156299 h -0.05209 q -0.05212,0.364668 -0.468895,0.364668 -0.15627,0 -0.15627,-0.260492 -0.41679,0.260492 -0.625178,0.260492 0,-0.104192 0.156266,-0.104192 v -0.05196 q -0.104203,0 -0.31259,-0.156364 h -0.05209 l 0.104192,0.156364 q -0.05208,0 -0.156268,0.156301 0.05211,0 0.05211,0.05196 l -0.104203,0.05197 q 0,-0.05197 -0.05211,-0.05197 0,0.156365 -0.104192,0.156365 h -0.208458 q -0.104203,0 -0.104203,-0.156365 -0.104203,0 -0.104203,0.156365 l 0.05212,0.156299 q -0.156267,0 -0.260496,-0.104192 0,0.208407 -0.104203,0.208407 l -0.05207,-0.156301 h -0.156267 q 0,0.364671 -0.781484,0.364671 Q 16.98159,54.929749 16.6169,54.929749 l 0.104192,0.156365 q -0.625189,0.104192 -0.781484,0.208407 L 15.41862,55.242571 Z M 20.784892,9.6032783 h -0.156267 q 0,-0.2083972 0.104203,-0.2083972 z m 0.36469,0 -0.05207,-0.104203 q 0,-0.104192 0.104203,-0.104192 l 0.05207,0.104192 q 0,0.104203 -0.104203,0.104203 z m -2.917542,0.104203 q -0.104203,0 -0.104203,-0.104203 l 0.156267,-0.104203 0.05207,0.104203 q 0,0.104203 -0.104203,0.104203 z m 1.458775,0.104203 h -0.208394 q 0.05207,-0.2083972 0.36469,-0.2083972 0.156268,0 0.156268,0.104203 -0.208394,0.104203 -0.312596,0.104203 z m 2.03186,0 q -0.156266,0 -0.156266,-0.104192 0.05212,-0.104203 0.104203,-0.104203 z m -5.522493,0.2604967 q -0.104203,0 -0.104203,-0.1042032 l -0.104203,0.052118 q -0.104203,0 -0.104203,-0.312594 h 0.104203 q 0.104203,0 0.104203,0.1562671 l 0.104203,-0.052074 q 0.104192,0 0.104192,0.104203 0,0.1562689 -0.104192,0.1562689 z m 2.552847,-0.05212 q -0.208398,0 -0.208398,-0.1042032 l 0.260502,-0.1562682 q 0.104203,0 0.104203,0.104203 0,0.052074 -0.156284,0.1562684 z M 19.378217,9.9158598 H 19.221949 V 9.7595916 h 0.05207 q 0.104203,0 0.104203,0.1562682 z m -1.615068,0.3646892 -0.104203,-0.156267 0.104203,-0.05212 h 0.208395 q 0.104192,0 0.104192,0.156267 z m -3.907425,0.104203 q 0,-0.260496 0.104203,-0.260496 h 0.104192 v 0.05208 q -0.104192,0.208399 -0.208398,0.208399 z m -0.364691,0.208397 q -0.156269,0 -0.156269,-0.104203 l 0.416788,-0.260496 q 0,0.260493 -0.260492,0.364693 z m 2.188158,0.260496 h -0.156267 q 0,-0.104203 0.104203,-0.156267 h 0.05207 z m -0.729385,0.57309 h -0.260498 v -0.156259 q 0.364694,0 0.364694,-0.312595 l 0.260495,0.208394 q 0,-0.312596 0.104203,-0.312596 l 0.208402,0.156268 H 15.8876 q 0,0.156267 -0.260496,0.260496 l -0.156266,-0.05207 z M 14.74141,11.062041 H 14.6893 q 0,-0.104203 0.104192,-0.156267 h 0.05208 q 0,0.156267 -0.104203,0.156267 z m 3.542732,0.156267 v -0.05206 q 0.156268,-0.260495 0.208396,-0.260495 0.104203,0.05212 0.104203,0.104203 0,0.208394 -0.31259,0.208394 z m 0.416798,0.416795 q -0.104203,0 -0.104203,-0.156269 0,-0.208401 0.104203,-0.208401 0.104192,0.05212 0.104192,0.208401 0,0.156269 -0.104192,0.156269 z m 1.927658,0 q -0.05207,-0.05212 -0.05207,-0.156269 0,-0.156267 0.312593,-0.208401 h 0.312594 q 0.104203,0.05212 0.104203,0.156269 z m -6.043479,0.05212 -0.05211,-0.156269 h 0.05211 q 0.104203,0 0.104203,0.104203 z m 4.688908,0.677286 q -0.36469,0 -0.36469,-0.104203 0,-0.104203 0.156269,-0.156267 l 0.156267,0.104203 q 0,-0.104203 0.208395,-0.104203 0,-0.156267 -0.208395,-0.260493 l -0.104203,0.05208 q 0,-0.05208 -0.05209,-0.156266 0,-0.156269 0.312593,-0.156269 0.104203,0 0.104203,0.468891 l 0.260491,-0.104203 0.156269,0.05212 v 0.104192 q -0.156269,0 -0.625186,0.260498 z m 1.198277,-0.156267 q -0.104203,0 -0.104203,-0.104203 0,-0.208395 0.4168,-0.260493 0,-0.156266 0.677284,-0.2605 0.208396,0.05207 0.208396,0.156268 0,0.104203 -0.729385,0.312594 0,-0.05212 -0.05207,-0.05212 0,0.05212 -0.416795,0.208394 z m -1.510872,-0.312594 h -0.156267 q 0,-0.2084 0.104203,-0.2084 z m -7.554354,0.104203 q -0.260495,0 -0.260495,-0.156266 l 0.520986,-0.05207 v 0.104203 q 0,0.104203 -0.260491,0.104203 z m 7.033363,0.729387 q -0.104203,0 -0.208402,-0.156267 0,-0.156268 0.364694,-0.208404 L 18.49253,12.2083 18.596733,12.15622 q 0.104203,0.104203 0.104203,0.208401 l 0.156267,-0.0521 v 0.104203 q -0.05207,0 -0.416793,0.312596 z m 7.137556,-0.260504 h -0.104203 v -0.05207 q 0.05212,-0.208399 0.156268,-0.208399 h 0.104203 v 0.05207 q -0.104203,0.208399 -0.156284,0.208399 z m 1.667175,1.927664 -0.05209,-0.104192 0.05209,-0.208395 q 0,-0.208402 -0.468896,-0.468899 -0.208398,-0.364689 -0.208398,-0.573087 -0.104203,0 -0.104203,0.15627 H 26.359472 L 25.8385,12.885478 q 0,-0.156269 0.573091,-0.625185 h 0.104203 l 0.937777,0.937782 -0.208396,0.208394 0.15627,0.104203 0.156267,-0.05207 q 0.2084,0 0.468894,0.57309 -0.416791,0.36469 -0.781484,0.36469 z m -4.324221,-1.875514 h -0.312596 v -0.104203 h 0.312596 z m 0.885684,0.05212 h -0.104192 q -0.104203,0 -0.104203,-0.156267 l 0.208394,0.05208 z m 2.031858,0.104203 -0.05212,-0.104203 q 0,-0.156267 0.104203,-0.156267 0.104203,0 0.104203,0.104203 0,0.05212 -0.156268,0.156267 z M 21.462179,12.573 h -0.156268 v -0.104192 h 0.156268 z m 3.386434,0.208395 Q 24.067129,12.62511 24.067129,12.520893 l 0.156268,-0.05212 0.625191,0.208395 z m 5.053601,0.312595 q -0.05212,0 -0.260493,-0.312595 v -0.05207 h 0.05211 q 0.208394,0.104203 0.208394,0.364697 z m -6.512374,0.05207 -0.312594,-0.05207 v -0.104203 l 0.312594,0.05208 z m -7.502254,0.364704 h -0.208398 q 0,-0.156269 0.156267,-0.156269 0.156267,0.05208 0.156267,0.104203 z m 9.013123,0.156266 -0.05207,-0.208399 h 0.156266 q 0,0.208399 -0.104192,0.208399 z m -7.971143,0.104192 q -0.208394,0 -0.208394,-0.104192 l 0.208394,-0.05212 q 0.104203,0.05212 0.104203,0.104203 z m 8.544237,0.208401 Q 25.3696,13.927553 25.3696,13.771226 h 0.104203 q 0.104203,0.05211 0.104203,0.104203 0,0.104203 -0.104203,0.104203 z m 0.416788,0.312594 q -0.104203,0 -0.156267,-0.208397 0,-0.104203 0.104203,-0.104203 0.156267,0.05212 0.156267,0.156268 0,0.156267 -0.104203,0.156267 z m 1.406673,0.67728 h -0.104203 q 0,-0.104203 -0.312598,-0.573089 v -0.104181 q 0.156267,0 0.416793,0.677288 z m 1.354575,0.520988 h -0.104203 q -0.104203,-0.41679 -0.104203,-0.573086 0.104203,-0.104203 0.104203,-0.573088 0.104203,0 0.260494,0.573088 l -0.208399,0.208399 z m -0.677285,-0.156267 q -0.208398,0 -0.468893,-0.677288 l 0.104203,-0.05207 q 0.364694,0.520988 0.364694,0.729386 z m -20.2665066,-0.05211 -0.052091,-0.104203 0.1562663,-0.104203 0.052085,0.104203 z M 26.932573,15.751019 H 26.82837 l -0.05211,-0.312594 h 0.104203 z m 0.468897,2.65705 q -0.05211,-0.05212 -0.208398,-0.05212 0,-0.156268 0.104192,-0.312596 -0.156266,-0.208395 -0.156266,-0.625184 l 0.05212,-0.312597 h 0.156266 l 0.05212,0.364695 0.208399,-0.05207 q 0,0.156269 -0.156267,0.312591 0.05211,0 0.05211,0.05207 l -0.104203,0.05212 q 0,-0.05212 -0.05211,-0.05212 v 0.104203 q 0.156267,0 0.260491,0.208397 -0.104203,0 -0.2084,0.312592 z m 3.438524,0.729398 q -0.208395,0 -0.208395,-0.104203 0,-0.364698 0.416792,-0.781481 h 0.05211 q 0,0.885677 -0.260494,0.885677 z m -3.125938,-0.416801 q -0.156268,0 -0.2605,-0.15627 0.104203,-0.2084 0.156266,-0.2084 l 0.104203,0.156268 q 0,0.05211 -0.05207,0.05211 z m -16.306984,0.31259 q -0.208401,0 -0.208401,-0.156266 h 0.104203 q 0.104203,0.05209 0.104203,0.156266 z m 19.432921,0.520996 q -0.36469,0 -0.416789,-0.156267 0,-0.104203 0.208394,-0.208399 0.104203,0 0.208395,0.156268 z m -0.468897,1.198271 -0.05207,-0.156266 0.104203,-0.573087 -0.05212,-0.416799 h 0.104192 q 0.208398,0 0.208398,0.260498 -0.104203,0.781483 -0.31259,0.885687 z m -0.677284,2.344455 h -0.104203 l 0.05209,-0.208397 -0.05209,-0.520987 q 0,-0.156267 0.260499,-0.677289 l 0.156269,0.05209 v -0.156267 q -0.156269,0 -0.156269,-0.208398 0.156269,0 0.260496,-0.364693 0.208397,-0.104192 0.364693,-0.104192 l 0.05207,0.156268 -0.104203,0.260494 h -0.104203 q -0.104203,-0.104203 -0.208403,-0.104203 0.104203,0.156268 0.104203,0.312593 -0.208394,0.416792 -0.36469,1.198279 -0.104203,0 -0.156266,0.364692 z M 10.573485,22.68016 q -0.312589,0 -0.416791,-0.312594 0.156268,-0.520988 0.312598,-0.520988 0.104203,0 0.104203,0.156268 l -0.104203,0.260494 q 0.36469,0 0.36469,0.104203 0,0.104203 -0.260497,0.312591 z m 14.431424,0.156268 q 0,-0.208397 0.260494,-0.312595 0.05207,0 0.156266,0.156268 0,0.104203 -0.416791,0.156268 z m -0.260497,0.364692 q 0,-0.156268 0.104192,-0.156268 l 0.05212,0.104203 z m 4.42841,0.260493 0.05212,-0.208398 q -0.208398,0 -0.208398,0.104203 v 0.104203 z m -6.668665,2.865439 h -0.104203 q 0,-0.260488 0.104203,-0.260488 0.104192,0 0.104192,0.104203 0,0.156267 -0.104192,0.156267 z m 4.220016,0.781492 q 0,-0.208397 0.2084,-0.260495 v -0.05212 h -0.156267 q -0.104203,0.156266 -0.104203,0.260501 0,0.05208 0.05207,0.05208 z m 0.104203,0.312595 q 0,-0.208396 0.104203,-0.208396 l 0.05208,0.104203 q -0.104203,0.104203 -0.156266,0.104203 z m -11.982767,2.448658 h -0.156267 v -0.104203 h 0.156267 z m 9.794611,0.364693 -0.208392,-0.05211 v -0.1042 h 0.104203 q 0.104203,0.05211 0.104203,0.156268 z m 1.927661,0.156268 q 0,-0.156268 0.208402,-0.312597 0.104203,0.05208 0.104203,0.104203 0,0.208396 -0.312598,0.208404 z m 0.2605,0.2084 q -0.104192,0 -0.104192,-0.2084 h 0.156267 q 0.104203,0.05207 0.104203,0.104192 -0.104203,0.104203 -0.156267,0.104203 z m 1.823459,0.833583 q -0.208393,0 -0.729384,-0.260498 l -0.208394,0.05211 q 0,-0.364694 -0.104203,-0.364694 l 0.05207,0.104203 -0.104203,0.05211 -0.104203,-0.156267 0.05212,-0.156267 q -0.364696,-0.104203 -0.364696,-0.208396 0.05211,-0.104203 0.104203,-0.104203 1.51087,0.625188 1.51087,0.885687 0,0.104203 -0.104203,0.156267 z m -3.125937,-0.781473 h -0.05207 q 0,-0.104203 0.104203,-0.156266 h 0.05207 q 0,0.156266 -0.104192,0.156266 z m 0.729384,0.468896 q -0.104203,0 -0.104203,-0.104203 l 0.156268,-0.104203 q 0.104203,0 0.104203,0.104203 z m 2.969643,0.729397 q -0.520994,-0.156269 -0.520994,-0.312592 0,-0.104203 0.156268,-0.156267 h 0.104203 q 0.260492,0.104203 0.36469,0.364691 0,0.104203 -0.104203,0.104203 z m -1.56297,-0.05207 q -0.156268,0 -0.156268,-0.104192 l 0.104203,-0.05211 z m 0.468898,0.416789 -0.260498,-0.312596 v -0.104192 h 0.104203 q 0.2605,0.156268 0.2605,0.364693 z m 0.833583,-0.104214 H 28.703946 V 32.00587 h 0.156268 q 0.104203,0 0.104203,0.104192 z m 0.729382,0.260493 q -0.208393,0 -0.208393,-0.104203 0.156266,-0.104192 0.312591,-0.104192 h 0.0521 q 0,0.104192 -0.156266,0.208401 z m 0.520996,0.416793 -0.416798,-0.416793 0.208394,-0.156268 h 0.104203 q 0,0.312592 0.208401,0.520988 z m -6.720771,-0.0521 q -0.312593,0 -0.364691,-0.208399 l 0.156268,-0.0521 q 0.05207,0 0.208397,0.208398 z m 5.522488,0.104214 q -0.208392,-0.05211 -0.312589,-0.260494 l 0.104203,-0.05208 q 0.312596,0.104192 0.312596,0.208399 0,0.104203 -0.104203,0.104203 z m -6.877064,-0.05212 q -0.156268,0 -0.156268,-0.104192 h 0.156268 z m 5.001507,0.104203 -0.0521,-0.104203 0.156267,-0.05207 q 0,0.156268 -0.104203,0.156268 z m 3.386428,0.208394 q -0.104203,0 -0.208395,-0.156269 0.05207,-0.104203 0.156267,-0.104203 0.104203,0 0.208397,0.156269 0,0.104203 -0.156269,0.104203 z m -2.76124,0 q -0.312596,0 -0.364694,-0.208394 h 0.2605 q 0.104192,0.0521 0.104192,0.208394 z m -2.083964,0.156299 q -0.156267,0 -0.156267,-0.104192 l 0.104203,-0.05207 z m 3.751132,0 h -0.156269 q 0,-0.104192 0.104203,-0.156267 h 0.05207 z m -1.979771,0.312599 q -0.15627,0 -0.15627,-0.156268 0,-0.156268 0.2605,-0.208398 l 0.05207,0.104192 q 0,0.260494 -0.156269,0.260494 z m 3.438535,0.104192 q -0.156268,-0.0521 -0.156268,-0.468894 h 0.104203 q 0.156268,0.0521 0.156268,0.364693 0,0.104192 -0.104203,0.104203 z M 24.015027,33.4646 q -0.20839,0 -0.20839,-0.104203 l 0.05209,-0.104192 q 0.260492,0.104192 0.260492,0.156267 z m 5.835092,0.364692 q -0.104203,0 -0.312594,-0.41679 v -0.104203 h 0.05211 q 0.104203,0 0.364687,0.416793 0,0.104192 -0.104203,0.104192 z m -5.418292,-0.208391 q -0.156267,0 -0.156267,-0.156267 l 0.104203,-0.05207 z m -3.907427,0.0521 q -0.156266,0 -0.156266,-0.104192 l 0.104203,-0.104192 z m 5.991383,0.312601 q -0.468895,-0.156267 -0.468895,-0.208403 0,-0.156267 0.156267,-0.2084 l 0.416798,0.2084 v -0.104203 h 0.104203 v 0.15626 q 0,0.156268 -0.2084,0.156268 z m 0.72939,-0.156267 -0.05212,-0.104192 0.104192,-0.05211 0.05211,0.104192 z m -0.625188,0.208394 q 0,-0.104192 0.156267,-0.156268 l 0.05211,0.104203 z m 1.094077,0.7294 -0.781486,-0.520993 0.05212,-0.104192 h -0.156275 q 0,-0.104192 0.208401,-0.156267 0.104203,0 0.104203,0.104192 l -0.05207,0.156267 q 0.208397,0 0.364687,0.156267 l 0.05211,-0.312591 q -0.104203,0 -0.104203,-0.104203 0.05208,-0.104192 0.104203,-0.104192 h 0.05212 q 0.364694,0.156267 0.364694,0.260492 0,0.104203 -0.416796,0.312593 0.208401,0.05208 0.208401,0.156269 z m -7.762761,-0.312621 h -0.05212 q -0.156267,-0.260492 -0.468886,-0.260492 v -0.156268 q 0.312594,0 0.520989,0.312593 z m 11.30548,-0.156268 q -0.104203,0 -0.104203,-0.156267 0,-0.104203 0.104203,-0.104203 0.104203,0 0.104203,0.104203 0,0.156267 -0.104203,0.156267 z m -12.920548,0.833569 q -0.05207,0 -0.156269,-0.156269 l 0.208402,-0.208395 -0.104192,-0.260495 0.104192,-0.0521 0.104203,0.0521 q 0,-0.156267 0.104203,-0.156267 h 0.104203 l -0.05208,0.208399 q 0.104203,0 0.104203,0.104192 -0.312594,0.0521 -0.312594,0.416798 z m -4.897301,-0.468875 v -0.208399 h -0.05207 v 0.208399 z m 16.984272,-0.0521 q -0.104203,0 -0.104203,-0.104192 l 0.104203,-0.05207 q 0.104203,0 0.104203,0.104192 z m 1.25037,0.156268 q -0.156268,0 -0.156268,-0.156268 0,-0.156267 0.104203,-0.156267 l 0.104192,0.05208 q -0.05209,0.104192 -0.05209,0.260494 z m -12.347457,0 q -0.104203,0 -0.208396,-0.156268 v -0.05212 h 0.312593 q 0,0.208395 -0.104203,0.208395 z m -1.719269,0.260495 -0.156269,-0.260495 0.104203,-0.0521 0.156269,0.260495 z m 13.181048,0.0521 q -0.260496,0 -0.260496,-0.104192 l 0.260496,-0.0521 z m 0.989879,0.312594 q -0.104203,0 -0.104203,-0.104192 0.05207,-0.312594 0.156267,-0.312594 h 0.05212 l -0.05212,0.156268 0.05212,0.208403 z M 17.919446,35.236013 q -0.104203,0 -0.104203,-0.156268 h 0.104203 z m 11.044985,0.677288 Q 28.547635,35.39229 28.547635,35.235994 l 0.104203,-0.05211 q 0.416793,0.260496 0.416793,0.677289 z m -0.05207,0.573089 q -0.156269,0 -0.62519,-0.625192 0.104203,0 0.104203,-0.104181 -0.208401,0 -0.416791,-0.364691 -0.05207,-0.156267 0.104203,-0.156267 h 0.0521 q 0.260504,0.312583 0.364696,0.312583 0.416795,0.520989 0.416795,0.937777 z m 1.771363,-0.729388 -0.156266,-0.15627 q 0.05209,-0.104192 0.156266,-0.104192 0.05207,0 0.15627,0.15627 z m 0.937782,0.05211 h -0.104203 v -0.15627 h 0.104203 z m -3.959522,0.0521 q -0.156268,0 -0.156268,-0.15627 h 0.05207 q 0.104203,0.05208 0.104203,0.15627 z m 0.416792,0.729388 q -0.104203,0 -0.104203,-0.156269 h 0.104203 z m 0.416791,1.406667 H 28.39136 v -0.312618 h 0.104203 z m -0.468896,0.625188 H 27.922479 V 38.36196 h 0.104192 z m 0.625188,0.156269 h -0.104203 v -0.20837 h 0.104203 z m 0.104203,0.781486 q -0.156267,0 -0.156267,-0.104203 v -0.468885 h 0.156267 z m -0.833579,0.416798 -0.05211,-0.104192 0.104203,-0.0521 h 0.05211 q 0,0.156267 -0.104203,0.156283 z m -0.05211,0.364674 -0.104203,-0.104192 0.208392,-0.05207 q 0,0.156251 -0.104203,0.156251 z m 0.156267,0.260491 h -0.2605 q 0,-0.156251 0.156269,-0.156251 h 0.104203 z m 0.468895,0.729378 h -0.104192 q 0.05207,-0.364669 0.156267,-0.364669 h 0.05208 q -0.104203,0.260495 -0.104203,0.364669 z m 3.230134,-0.208401 q 0,-0.156301 0.104192,-0.156301 l 0.05211,0.104192 z m -2.86542,0.573081 H 28.756046 V 41.38365 q 0,-0.104192 0.104203,-0.104192 h 0.05209 z m 0.520989,0.364673 h -0.104203 q 0,-0.416814 0.416791,-0.52099 0,-0.05196 0.156267,-0.1563 h 0.05208 q 0,0.468902 -0.468893,0.468902 z M 27.714052,41.696223 H 27.60986 q 0,-0.208408 0.104192,-0.208408 z m -0.677288,2.083952 Q 26.828372,43.7282 26.828372,43.623876 l 0.208392,-0.104192 q 0,-0.5731 0.260497,-0.781485 h 0.104203 l -0.05207,0.312584 0.208395,-0.05196 v 0.104192 q -0.156268,0.208404 -0.364693,0.208404 0.156268,0.156301 0.156268,0.312583 -0.156268,0 -0.312598,0.1563 z m 0.260497,0.364672 q -0.104192,0 -0.208401,-0.1563 0,-0.104192 0.156268,-0.208404 0.104203,0.05197 0.104203,0.104192 z m -1.198268,1.615063 q -0.208404,0 -0.260494,-0.156301 v -0.312574 q 0,-0.104192 0.156267,-0.1563 l -0.05207,-0.104192 q 0.208411,-0.573108 0.364709,-0.625204 l 0.312594,0.05197 q 0.05211,0 0.05211,-0.05197 -0.156269,0 -0.156269,-0.1563 l 0.625185,-0.104192 q 0.104203,0.05197 0.104203,0.1563 l -0.364688,-0.05196 0.05207,0.104192 -0.05207,0.104192 q 0.05207,0.104192 0.05207,0.260497 -0.364692,0.208407 -0.468897,0.729388 z m 4.27212,-0.729375 q -0.208401,-0.05197 -0.208401,-0.208409 0,-0.208406 0.729386,-0.573096 v 0.05196 q -0.104203,0.416813 -0.520993,0.729385 z m -0.156268,0.312582 q -0.156268,0 -0.31259,-0.208409 l 0.156266,-0.104192 h 0.156268 q 0.104203,0 0.104203,0.156299 0,0.156365 -0.104203,0.156365 z m -0.677284,1.041975 -0.05211,-0.156365 q 0.312591,-0.416866 0.364687,-0.88568 0.15627,0 0.208396,0.1563 -0.312592,0.833584 -0.520987,0.885676 z m -1.66718,2.500762 v -0.052 l 0.468877,-1.146192 q 0.156267,-0.05198 0.312595,-0.312586 l 0.104203,0.05201 q 0.104203,0 0.104203,-0.208406 -0.156268,0 -0.156268,-0.104192 0.468897,-0.57309 0.885684,-0.57309 l 0.05211,0.104192 q -0.208394,0.36467 -0.416797,0.36467 0,-0.156365 -0.104203,-0.156365 0,0.52099 -0.416796,0.833579 0,0.260494 -0.833576,1.19828 z m -4.74101,-1.146112 v -0.05197 q 0.104203,-0.208405 0.312595,-0.208405 l 0.104203,0.208405 z m -0.312591,0.312584 -0.05212,-0.104192 0.104203,-0.05196 h 0.05207 q 0,0.1563 -0.104203,0.1563 z m -3.542729,2.292349 q -0.15627,0 -0.15627,-0.104192 0,-0.104192 0.208399,-0.208405 0.104203,0.05197 0.104203,0.156365 0,0.05197 -0.156268,0.1563 z m 4.220016,1.927657 q 0,-0.104192 -0.156269,-0.104192 0,0.104192 0.156269,0.104192 z m -0.312595,0.521001 h -0.05207 q 0,-0.104192 0.104192,-0.156363 h 0.05212 q 0,0.156363 -0.104203,0.156363 z M 8.1769711,53.991625 h -0.052085 l 0.052085,-0.312585 h 0.104203 q 0,0.312585 -0.104203,0.312585 z m 0.052074,0.36467 h -0.104192 v -0.156301 h 0.104192 z m 1.3024748,0.416862 h -0.052074 q -0.2604976,-0.156365 -0.3646918,-0.156365 -0.2604954,0.156365 -0.41679,0.156365 l -0.052085,-0.104192 v -0.208436 l 0.2084082,0.104192 q 0,-0.104192 0.104203,-0.104192 l 0.052118,0.05196 0.260491,-0.208406 h 0.104203 v 0.156365 l 0.2604921,-0.05197 q 0.104203,0.104192 0.104203,0.208405 H 9.5316035 Z m 1.3024751,0.885684 -0.05208,-0.208404 0.104203,-0.208407 q -0.05212,0 -0.208397,-0.20841 l 0.104203,-0.05196 q 0.2084,0.104192 0.2084,0.416867 0,0.156362 -0.156267,0.260494 z M 10.10461,55.398353 q -0.2083961,-0.05196 -0.2083961,-0.1563 v -0.208414 h 0.052085 q 0.3125911,0.208408 0.3125911,0.260499 0,0.104192 -0.156268,0.104192 z m 2.13606,0.104192 -0.05208,-0.104192 q 0,-0.104192 0.104203,-0.104192 l 0.05207,0.104192 q 0,0.104192 -0.104203,0.104192 z M 48.501543,8.5613066 q -0.156365,0 -0.156365,-0.2083983 h 0.104192 v 0.104203 l 0.104192,-0.052118 0.05196,0.104203 z m 0.625203,0.104203 h -0.156365 q -0.104192,0 -0.156299,-0.3125936 h 0.05196 q 0.260492,0.104192 0.260492,0.3125936 z m -1.146178,0.104203 h -0.104192 q 0,-0.2604932 0.104192,-0.2604932 h 0.104192 q 0,0.2604932 -0.104192,0.2604932 z M 47.45958,8.8217866 Q 47.146986,8.7697016 47.146986,8.5612813 h 0.208406 q 0.104192,0.052118 0.104192,0.2604932 z m -0.573092,0.104203 h -0.156363 q 0,-0.2604932 0.156363,-0.2604932 0.156301,0 0.156301,0.104203 z m -0.885679,0.3646929 -0.05197,-0.104203 q 0.05197,-0.2604998 0.208406,-0.4688959 0.208407,0.104203 0.468902,0.104203 0,0.1562682 -0.468902,0.2083961 0,-0.052085 -0.05197,-0.052085 0,0.3125903 -0.104192,0.3125903 z m 3.438536,-0.312598 h -0.1563 v -0.104192 h 0.1563 z M 45.167224,9.39488 q -0.104192,0 -0.104192,-0.104203 0,-0.2604943 0.364676,-0.2604943 0.156365,0 0.156365,0.104203 -0.156365,0.2604921 -0.416867,0.2604976 z M 44.489928,9.863766 44.229432,9.7074978 v 0.104192 q -0.208404,0 -0.208404,-0.104192 h 0.156363 l -0.05196,-0.052118 q -0.208405,0.104203 -0.4689,0.104203 l -0.05199,-0.104203 q 1.041992,-0.520993 1.198278,-0.520993 0.208406,0.052118 0.208406,0.1562671 0,0.1562671 -0.520989,0.4167977 z m -1.719279,45.534519 h -0.156364 l 0.05197,-0.1563 -1.094078,0.05197 q -0.156299,0 -0.156299,-0.208407 l -0.416816,0.104192 -0.05196,-0.104192 0.05196,-0.104192 -0.520982,0.05196 -0.156252,-0.104192 q 0,0.208407 -0.104192,0.208407 -0.416795,0 -0.833584,-0.312581 l -0.156266,0.104181 Q 38.863061,54.7207 36.987494,54.095524 36.779098,53.835025 36.779098,53.67866 h -0.312599 q -0.104192,0 -0.104192,-0.208406 h 0.312595 v -0.05196 q -0.156268,0 -0.156268,-0.104192 l -0.364694,0.104192 q -0.937593,-0.364452 -1.25019,-0.364452 l 0.0521,0.104192 -0.208399,0.416864 0.208399,-0.05197 -0.0521,0.156301 q 0.156268,0 0.156268,-0.156301 h 0.156267 q 0,0.260495 -0.2084,0.364668 -0.15627,-0.104192 -0.312594,-0.104192 0,0.156302 -0.104192,0.156302 -0.208395,-0.104192 -0.208395,-0.156302 0.104203,-0.156363 0.104203,-0.312577 h -0.05207 q -0.312596,0.468902 -0.573091,0.468902 v -0.468898 q -0.104203,0 -0.104203,-0.05196 -0.312592,0.104192 -0.312592,0.312582 H 33.34076 l 0.05212,-0.208405 -0.05212,-0.208406 q 0,-0.104192 0.05212,-0.1563 h -0.05212 l -0.260495,0.260493 q -0.208401,0 -0.364696,-0.416859 l -0.208394,0.05197 0.104192,0.364668 h -0.0521 Q 31.98615,53.053924 31.98615,52.585008 l 0.05207,-0.156363 0.260494,0.05199 q 0.104203,-0.208408 0.156268,-0.208408 0.208401,0.260494 0.364693,0.260494 0.208399,0.364672 0.312593,0.364672 V 52.741006 Q 32.9239,52.584716 32.9239,52.376342 l 0.364696,-0.05197 q 0,-0.104192 0.36469,-0.208404 l 0.208397,0.104192 q 0.104192,-0.208411 0.364691,-0.520993 H 34.1743 l -0.260494,0.208408 h -0.156267 q 0,-0.05197 0.260497,-0.208405 l -0.0521,-0.260496 q 0.104192,-0.156364 0.104192,-0.260492 h -0.156267 v -0.05197 q 0.208395,-0.208408 0.208395,-0.416864 -0.208395,-0.104192 -0.208395,-0.208408 0.364694,-0.364671 0.364694,-0.520991 -0.104203,0 -0.104203,-0.104192 l 0.208396,-0.156364 0.05211,0.104192 -0.104192,0.1563 q 0.104192,0 0.156266,-0.104192 0.05208,-0.156365 -0.0521,-0.260495 0.416798,-0.208403 0.416798,-0.364671 0,-0.156363 0.468897,-0.312582 l -0.05208,-0.260495 q 0,-0.05197 0.312591,-0.260493 v -0.05197 l -0.364692,0.260495 -0.0521,-0.05196 0.468892,-0.520989 h 0.312606 q 0,-0.260495 0.416793,-0.312582 l 0.05208,0.156364 -0.05208,0.104192 q 0,0.05198 0.05208,0.05198 0,-0.208403 0.208399,-0.208403 1.146179,0.833588 1.146179,1.146179 0.677287,0.312584 1.198276,0.781493 0.520994,0.104192 1.667164,0.677297 l 0.20841,-0.05198 q 0.208404,0.05198 0.208404,0.208406 0.104192,0 0.104192,-0.104192 l 0.989874,0.260495 0.260494,-0.1563 q 0.208406,0.1563 0.729384,0.1563 0.4689,0 1.719272,-0.208406 l 0.260496,0.156299 h 0.104192 v -0.05196 h -0.156301 q 0,-0.156364 0.104192,-0.156364 0.260495,0 0.260495,0.260491 h 0.05197 l -0.05197,-0.312579 q 0.156365,0 0.156365,0.156365 h 0.05196 q 0,-0.260497 0.520987,-0.364672 0.104192,0.208404 0.208407,0.208404 0.416864,0 0.781486,-0.312583 -0.05196,-0.104192 -0.05196,-0.260495 0.05196,-0.208403 0.520994,-0.208403 0,-0.260495 0.26049,-0.260495 l 0.364674,0.05199 0.573089,-0.156301 -0.05199,-0.104192 0.104192,-0.05196 q 0.05196,0 0.05196,0.05196 0.312584,0 0.573087,-0.364671 l 0.156299,0.05197 q 0.208407,-0.05197 0.208407,-0.156365 V 48.46932 h 0.05197 q 0.208403,0.104192 0.208403,0.260495 h 0.104192 L 50.064446,48.52138 q 0.104192,0 0.104192,-0.104192 l -0.05198,-0.208408 0.156365,0.05197 q 0,-0.416861 0.729379,-0.4689 0,-0.208408 0.208407,-0.260493 0,-0.208407 0.05197,-0.312585 l 0.104192,0.05196 q 0.104192,0 0.104192,-0.104192 l -0.05197,-0.208405 0.156365,-0.104192 0.104192,0.05197 q 0.833562,-0.88567 1.198273,-1.146161 v -0.208401 h 0.156363 q 0,0.104192 0.416859,0.416865 -0.208401,0 -0.260492,0.05196 l -0.05197,-0.156299 q -0.104192,0 -0.104192,0.104192 l 0.05197,0.156299 -0.364672,0.573085 h 0.05197 l 0.364672,-0.312582 h 0.104192 q 0,0.208404 -0.625209,0.677302 l 0.05198,0.208405 q -0.416861,0.416864 -0.416861,0.625197 l 0.156364,0.05196 q 0,-0.156364 0.937776,-1.198271 l 0.156365,0.05197 q 0.2605,-0.208407 0.573095,-0.781486 l 0.156365,-0.05197 -0.05197,-0.104192 q 0,-0.104192 0.104192,-0.104192 l 0.156364,0.05197 q 0.312583,-0.260492 0.62521,-0.520992 0.312606,-0.312572 0.46892,-0.98987 l -0.05199,-0.05199 q 0,0.52099 -0.781497,1.146178 l -0.05197,-0.156363 Q 54.8583,44.873836 55.170885,44.873836 V 44.769644 H 55.01445 v -0.416777 l 0.156365,-0.156301 q -0.104192,-0.05196 -0.104192,-0.208404 0.312581,0 0.573082,-0.468901 0.156365,0 0.156365,-0.208405 -0.104192,0 -0.156365,-0.1563 v -0.05198 q 0.208408,-0.364668 0.312584,-0.364668 l -0.05198,-0.156299 q 0.208407,-0.312585 0.208407,-0.625198 0.260493,0 0.260493,-0.208407 l -0.05197,-0.312579 q 0.05199,-0.208408 0.208414,-0.208408 v -0.05197 q -0.416866,0 -0.416866,-0.156299 0.208407,-0.05197 0.208407,-0.312587 l -0.104192,-0.05207 q 0,-0.05207 0.208407,-0.31258 l -0.156364,-0.05207 0.05197,-0.104192 -0.05197,-0.208406 0.312584,-0.156268 -0.05197,-0.156267 0.260492,-0.05207 v 0.104203 h -0.156349 q 0.05197,0.0521 0.05197,0.156267 H 56.57758 v 0.05209 q 0.260497,0 0.364669,-0.05209 l 0.208411,0.05209 q 0,0.729391 -0.260497,0.729391 h -0.156364 v 0.05207 q 0.260496,0 0.260496,0.208404 -0.05199,0.260498 -0.364676,0.260498 l 0.05197,0.104192 q 0,0.364672 -0.468899,1.041986 -0.05197,0.677292 -0.208405,0.677292 0,-0.05196 -0.05199,-0.05196 l 0.05199,0.31259 -0.1563,0.625199 q 0,0.05196 0.05196,0.05196 0.364673,-0.885686 0.520983,-0.885686 l -0.31258,0.937779 h 0.05197 q 0.260492,-0.260493 0.677306,-1.146176 l -0.05199,-0.416811 q 0,-0.416811 0.364672,-0.573099 0.104192,-0.208405 0.104192,-0.729383 l -0.104192,-0.156299 q 0,-0.312586 0.260493,-0.833585 l -0.05197,-0.260494 0.05197,-0.260495 -0.364671,0.05208 v -0.104203 h -0.677306 v -0.156269 h 0.104192 L 56.368839,39.247507 V 38.93515 q 0,-0.104192 0.1563,-0.104192 v -0.260494 q -0.31259,-0.989879 -0.31259,-1.302475 h -0.156365 q 0,-0.468895 0.260493,-0.625188 l 0.156364,0.208395 q 0,0.156268 -0.156364,0.156268 v 0.05211 l 0.312585,-0.05211 q 0,-0.156268 -0.104192,-0.260497 0,-0.104192 0.104192,-0.104192 0.1563,0 0.1563,0.2084 0.156364,0 0.208404,-0.625187 l -0.104192,0.104192 q -0.156365,0 -0.52099,-1.04198 l -0.781393,-0.989781 q 0,-0.260497 0.104192,-0.260497 0.833581,1.094084 0.989883,1.19828 h 0.05196 l -0.05196,-0.156267 0.05196,-0.156268 -0.156365,0.104192 -0.05196,-0.104192 v -0.20839 q 0,-0.104203 0.156365,-0.104203 0.312582,0.468893 0.364669,0.468893 0.05197,0 0.05197,-0.05207 -0.260495,-0.573086 -0.468899,-0.573086 l -0.208407,0.104192 -0.05197,-0.104192 q 0,-0.156267 0.156299,-0.156267 v -0.05211 h -0.104192 l -0.260494,0.104192 q -0.677233,-0.833683 -1.094037,-1.094179 0,-0.05207 0.208405,-0.156266 0.208409,0 0.208409,0.208393 h 0.05197 q -0.05197,-0.364691 -0.937777,-0.833583 h -0.312584 l 0.104192,0.156269 q 0,0.104192 -0.104192,0.104192 -0.416865,-0.208406 -0.520992,-0.208406 v 0.05208 q 0.833583,0.521005 0.833583,0.625193 -0.208407,0.520986 -0.416861,0.520986 0,-0.312593 -1.562971,-0.937781 l -0.312581,0.364694 0.104192,0.05207 q -0.104192,0.0521 -0.260495,0.0521 -1.041985,-0.260495 -1.041985,-0.573085 l -0.312585,0.208401 -0.05196,-0.104203 q 0.208406,-0.2084 0.416866,-0.2084 0.156365,0 0.156365,0.2084 l 0.104192,-0.05207 q 0.208407,0 0.573086,0.208401 0.05197,-0.104203 0.104192,-0.104203 l 0.312584,0.05208 0.104192,-0.156267 -0.416863,-0.0521 -0.364672,0.0521 q -0.05196,-0.364694 -0.208406,-0.364694 -0.416865,0 -0.6252,0.104192 -1.302483,-0.260463 -1.667179,-0.260463 l -0.156364,0.05209 v 0.104203 l 0.156364,-0.104203 q 0,0.260495 -0.416862,0.312594 h -0.05196 l -0.260491,-0.156268 -0.05196,0.208393 h -0.260494 q -0.156363,0.156269 -0.312582,0.156269 l 0.05196,0.104192 q 0,0.208399 -0.6252,0.364694 l -1.719274,0.833585 -0.05197,-0.05207 -0.104192,0.05207 -0.208402,-0.104203 q 0,0.156269 -0.156302,0.156269 -0.104192,0 -0.104192,-0.104192 0.104192,-0.156269 0.104192,-0.260496 -0.05196,0 -0.36467,0.520998 -0.573087,0.260494 -0.573087,0.468889 0.208406,0.208401 0.208406,0.416794 l 0.156365,-0.104192 q 0,0.05212 0.05198,0.05212 l -0.05198,-0.208398 q 0.104192,0 0.260492,0.208398 l -0.208406,0.260495 0.104192,0.156269 -0.156365,0.104192 q -0.156365,0 -0.156365,-0.260499 h -0.104192 q 0,0.208395 0.156365,0.36469 v 0.312597 h -0.05196 q -0.260524,-0.208402 -0.41689,-0.208402 l 0.05197,0.520988 -0.416864,-0.364692 v 0.0521 q 0.156299,0.208397 0.156299,0.416795 l -0.156299,0.05209 q -0.05196,-0.05209 -0.260494,-0.05209 l -0.05196,0.156268 0.31258,0.0521 q 0,0.156268 -0.520985,0.260496 -0.312586,-0.156269 -0.364672,-0.260496 0,-0.156268 0.104192,-0.156268 -0.104192,-0.208399 -0.104192,-0.312591 l 0.104192,-0.05212 0.156299,0.05212 q 0,-0.156269 0.416866,-0.156269 v -0.05208 q -0.312583,0 -0.468899,-0.104192 l 0.05196,-0.208395 -0.05196,-0.312593 q 0.05196,-0.208397 0.208404,-0.208397 l -0.104192,-0.260493 -0.156365,0.104192 q -0.104192,0 -0.104192,-0.156269 h -0.05198 l 0.05198,0.156269 q 0,0.312591 -0.468903,0.625184 v 0.0521 l 0.364672,-0.0521 q 0,0.104203 -0.677285,0.677286 l -0.05196,-0.104192 q 0,0.156268 -0.104192,0.156268 -0.05198,-0.260492 -0.312582,-0.468895 v -0.260636 q 0,-0.104203 0.156302,-0.104203 -0.260495,-0.41679 -0.260495,-0.520986 h -0.208395 l 0.05199,0.260494 q -0.208407,0 -0.208407,-0.156267 h -0.156301 q -0.312583,0 -0.312583,-0.260495 h 0.104192 q -0.104709,-0.208437 -0.104709,-0.41683 l 0.156251,-0.05208 q 0,-0.104203 -0.104192,-0.104203 0,0.0521 -0.05207,0.0521 -0.156251,-0.208399 -0.156251,-0.260492 -0.05207,0 -0.05207,0.05207 0.104192,0.156267 0.104192,0.312589 h -0.104214 l -0.104192,-0.312589 -0.104192,0.05208 q -0.104192,-0.156269 -0.104192,-0.364693 0.104192,0 0.208401,0.104203 v -0.05207 q -0.104192,-0.312586 -0.57307,-0.885678 h -0.104203 q 0,0.312593 -0.15627,0.312593 -0.208401,-0.104203 -0.208401,-0.312593 l -0.156267,0.104203 q -0.104192,-0.156269 -0.104192,-0.625185 0.520984,-1.302476 0.729387,-1.302476 0.67729,-0.364693 0.781489,-0.520989 0,0.05207 0.05207,0.05207 0,-0.156268 0.88568,-0.468896 l 0.05196,-0.104192 0.260495,0.05207 q 0.520988,-0.208401 1.146182,-0.312594 0,-0.2084 0.156365,-0.2084 l 0.208405,0.156269 q 0.625198,-0.260491 0.625198,-0.364691 0.05199,-0.156266 0.104192,-0.156266 h 0.57309 q 0,-0.156268 0.104192,-0.156268 0.156302,0.104203 0.31258,0.104203 l 0.208409,-0.15627 0.104192,0.05208 q 0,-0.156266 0.729388,-0.364686 0,-0.05209 0.4689,-0.208405 0,-0.260493 0.57309,-0.312591 l 1.458774,-1.094081 q 0.104192,0 0.312583,-0.208402 l 0.208406,0.05208 -0.104192,-0.156269 0.104192,-0.05211 q 0.05196,0.104192 0.104192,0.104192 0.156365,-0.468895 0.364673,-0.468895 0.104192,0.104203 0.260492,0.104203 0.520992,-0.312592 0.520992,-0.573087 -0.104192,0 -0.1563,-0.156269 0.05196,-0.312588 0.416858,-0.312588 L 50.42954,25.38935 q 0,-0.260497 0.573092,-0.364693 0,-0.104203 0.36467,-0.260494 l -0.05196,-0.156267 Q 51.836304,24.3995 51.836304,24.139 52.0968,24.086893 52.0968,23.826409 l -0.104192,-0.156268 0.312582,0.0521 -0.05196,-0.104192 0.05196,-0.104203 q -0.05196,0 -0.156363,-0.156269 0.104192,0 0.416865,-0.468892 0.312583,0 0.364672,-0.416794 h 0.104192 l -0.05195,-0.312604 q 0.208405,0 0.208405,-0.104203 -0.156364,0 -0.156364,-0.156268 0.208406,-0.05208 0.833584,-1.250372 0.05197,0 0.05197,-0.05207 l -0.05197,-0.208399 0.104192,-0.05212 q 0,0.05212 0.156365,0.156266 h 0.05196 q -0.15638,-0.208471 -0.15638,-0.364768 l 0.05196,-0.208398 -0.05196,-0.156268 0.104192,-0.05208 -0.05197,-0.156267 q 0,-0.416799 0.364672,-0.416799 l -0.05196,-0.104203 q 0,-0.05212 0.312585,-0.260491 h 0.312581 v 0.156305 H 54.70189 l 0.05196,0.104203 -0.05196,0.104203 q 0.104192,0 0.1563,0.208401 0,0.156267 -0.208408,0.156267 0,1.041981 -0.36467,1.041981 v 0.05209 q 0.208406,0 0.208406,0.156266 H 54.180975 V 20.64835 h -0.05196 v 0.156268 q 0.104192,0 0.104192,0.104203 L 54.076838,21.48191 H 54.18103 Q 54.285222,21.117215 54.441521,21.117215 54.337329,21.7945 54.07685,21.7945 l 0.104192,0.156268 -0.104192,0.520991 q 0,0.156267 0.104192,0.156267 0.260495,-1.198277 0.677298,-1.198277 0.208408,-0.781484 0.416863,-0.781484 l -0.104192,-0.156267 q 0.260495,0 0.729384,-0.729392 l 0.05197,-1.041974 h -0.05197 q 0,0.833582 -0.312582,1.198276 0,0.104192 -0.104192,0.104192 l -0.05196,-0.156268 q 0.05196,-0.468894 0.312582,-0.468894 v -0.104203 q -0.208404,0 -0.208404,-0.41679 l 0.104192,-0.208397 q -0.156365,0 -0.156365,-0.104203 0,-0.156267 0.20841,-0.156267 v -0.416795 q 0,-0.104203 0.156365,-0.104203 v -0.260518 l -0.208406,-0.208404 0.05199,-0.729383 q -0.104192,0 -0.104192,-0.104203 l 0.05196,-0.468891 q -0.208407,-0.364695 -0.208407,-0.520997 0.156365,0 0.156365,-0.104192 0,-0.104203 -0.520991,-0.833583 0,-0.312591 0.156299,-0.312591 0.364674,0 0.573089,1.927659 l 0.208408,0.781486 -0.104192,0.05208 q 0,-0.05208 -0.05199,-0.05208 v 0.104203 q 0.260498,0.312592 0.260498,1.094079 h 0.05196 l 0.05197,-1.198279 q 0.156299,-0.05209 0.156299,0.104192 v 1.198274 h 0.05197 q 0.156365,-0.468895 0.208403,-1.302472 0,-0.260496 -0.416864,-1.406672 l -0.05197,-0.312595 0.104192,-0.208397 q 0,-0.677283 -1.302469,-1.87556 -0.364679,-0.677293 -0.833593,-1.094085 l -0.104192,0.05211 q -0.573089,-0.468894 -0.833593,-0.468894 0,0.260502 -0.104192,0.260502 -0.104192,0 -0.104192,-0.156269 h -0.05196 q -0.468901,0.573086 -0.52099,0.573086 H 52.201212 V 12.26037 q -0.625198,0 -0.833584,-0.312594 l -0.312584,-0.05208 q -0.36467,0 -0.937783,0.104192 -0.156299,0 -0.416858,-0.104192 v 0.104192 q -0.364673,0 -0.52099,-0.312592 0.05197,-0.156267 0.312584,-0.156267 l 0.05199,0.208396 0.104192,-0.260493 -0.104192,-0.156269 -0.104192,0.104192 q -0.1563,0 -0.1563,-0.156268 0,-0.104203 0.260491,-0.104203 -0.104192,-0.156267 -0.41686,-0.364691 l -0.05196,0.05207 0.05196,0.156268 q -0.156364,0.104192 -0.312582,0.104192 h -0.833626 q -0.677299,0.156269 -0.885678,0.156269 -0.208405,0 -0.208405,-0.104203 0.104192,-0.104203 1.302467,-0.36469 v -0.104203 q -0.156365,0 -0.156365,-0.104203 h -0.05203 q 0,0.208401 -0.104192,0.208401 -0.104192,0 -0.208404,-0.208401 0,-0.05207 0.520988,-0.208398 v -0.05207 h -0.312582 q -0.364671,0 -0.364671,0.416799 h -0.05199 q -0.104192,-0.104203 -0.104192,-0.208401 h -0.05197 q 0,0.36469 -0.364671,0.36469 -0.625197,0.05207 -0.833575,0.208398 h -0.104192 l -0.05196,-0.208398 0.208408,-0.104203 v -0.05208 h -0.156342 q -0.885692,0.156267 -0.885692,0.468896 l 0.104192,-0.05207 0.05197,0.05207 0.104192,-0.05207 q 0.104192,0.05207 0.104192,0.260494 L 45.32406,11.270592 q -0.416863,0.312597 -0.416863,0.416795 0.6252,-0.208399 0.781486,-0.208399 0.104192,0 0.312583,0.364696 l -0.05197,0.260492 -0.104192,-0.05208 q -0.156365,0 -1.354573,0.416791 0,0.260491 0.260491,0.573088 -0.520987,0.312593 -1.09408,0.312593 l -0.156251,-0.05207 q 0,0.2084 -0.156301,0.2084 0,-0.364693 0.156301,-0.364693 l 0.208405,0.05208 q 0,-0.208395 0.573089,-0.208395 l -0.05196,-0.104203 q 0,-0.104203 0.208407,-0.104203 v -0.260502 q -0.104192,0 -0.520989,0.41679 l -0.312586,-0.156267 q -0.677301,0.625188 -0.833569,0.625188 -0.52099,0.208394 -0.781481,0.364691 l 0.104192,0.208405 q -0.104192,0.260493 -0.2605,0.364688 -0.05196,0 -0.05196,-0.05207 l 0.05196,-0.208395 -0.312581,-0.156269 q -0.05312,0.312624 -0.261676,0.312624 v 0.104203 l 0.208406,-0.05207 v 0.104203 h -0.104192 v 0.0521 q 0.208407,0 0.208407,0.104203 l -0.520991,0.260491 0.05196,-0.31259 h -0.05196 q -0.312579,0.260494 -0.364672,0.260494 0,0.05211 0.260494,0.156268 -0.260494,0.312593 -0.260494,0.364694 h -0.104192 l 0.05207,-0.260493 q -0.260491,0 -0.41681,0.416796 l 0.156252,0.05208 q 0,0.364691 -0.520992,0.573084 l -0.05208,0.312599 H 39.696457 V 16.22012 q -0.104203,0 -0.156268,0.260495 l 0.0521,0.156268 -0.104203,0.05211 -0.05211,-0.05211 q 0,0.104203 -0.416798,0.729385 h -0.364743 q 0,0.156267 -0.208394,0.625187 l 0.156268,0.156266 -0.260499,0.729386 h -0.104225 v 0.156269 h 0.05212 v -0.104203 h 0.104192 q 0.260497,0.364694 0.260497,0.520991 l -0.156267,0.520987 q 0.260497,-0.208391 0.36469,-0.208391 0,0.625183 -0.156269,0.625183 l 0.05208,0.104203 q 0,0.05207 -0.156267,0.156268 -0.104203,0 -0.312595,-0.520996 -0.104203,0 -0.156267,0.104203 l 0.05211,0.104203 q -0.104192,0 -0.468895,-0.260499 -0.208399,-0.104203 -0.416796,-0.104203 l -0.104192,0.208401 q 0.208397,0.364692 0.208397,0.468893 l 0.364692,-0.05211 q 0.05207,0.104203 0.05207,0.260495 h -0.104192 l 0.520987,0.573088 -0.104203,0.05211 -0.260496,-0.05211 q 0,0.104203 -0.260497,0.260494 h -0.208615 q -0.05207,0 -0.156267,-0.156268 v -0.05211 h 0.312594 q 0,-0.104203 -0.312594,-0.104203 -0.104192,0 -0.104192,0.208397 l 0.260493,0.208393 -0.260493,1.041982 q 0.260493,0.312592 0.312591,0.677287 0.156266,0.104203 0.416799,0.104203 0.208391,-0.156268 0.468893,-0.156268 h 0.677289 q 0.104203,0 0.104203,0.104203 l -0.0521,0.260493 0.781485,-0.260493 q 0,0.05207 0.05209,0.05207 -0.67501,0.989889 -1.873285,0.989889 -3.490633,-0.208398 -4.376316,-2.136064 0,-0.104203 -1.562969,-3.334335 1.823462,-1.354571 1.823462,-1.562968 0.104203,-0.625187 0.468892,-0.625187 v -0.104148 h -0.156277 q 0,-0.208398 0.468894,-0.729385 l -0.0521,-0.2084 q 0.0521,0 0.468898,-0.312596 l -0.05207,-0.104203 q 0.833585,-0.729385 0.833585,-0.989879 0.260494,0 0.260494,-0.104203 0,-0.104203 0.208401,-0.364688 -0.104203,-0.104203 -0.104203,-0.156269 0.36469,-0.312595 0.520989,-0.520984 h 0.260495 l -0.05209,-0.208407 0.104192,-0.05211 q 0,0.104203 0.104203,0.104203 l -0.0521,-0.364692 0.312592,-0.260494 0.05209,0.156266 0.208402,-0.208397 0.104203,0.05208 q 0.208398,-0.104203 0.364695,-0.104203 0,-0.104203 -0.0521,-0.156268 l 0.104192,-0.05212 q 0.156268,0.312594 0.208403,0.312594 l 0.05212,-0.104203 -0.104192,-0.156269 0.0521,-0.208393 0.312595,0.05208 0.156268,-0.05208 q 0,0.104203 0.104192,0.104203 0.05211,-0.208401 0.156268,-0.208401 l 0.156266,0.104203 -0.05207,-0.260491 q 0.104192,-0.05207 0.520994,-0.104203 v -0.05212 H 39.69857 v -0.05207 q 1.562915,-1.14619 1.771312,-1.14619 0.989883,-0.36469 1.562971,-0.6251869 h 0.05196 v 0.104203 q -0.312583,0.3125949 -1.823468,1.0940779 -0.104192,0.156269 -0.260493,0.260501 v 0.104192 q 0.208408,0 0.416812,0.364691 0,-0.208392 0.104192,-0.208392 0.05196,0 0.208403,0.260492 -0.104192,0 -0.104192,0.104203 h 0.104192 q 0.677292,-0.416799 0.885683,-0.416799 l 0.05197,0.05208 q 0,-0.104203 0.156363,-0.156267 0.156301,-0.05212 0.208406,0 0,-0.260498 0.312586,-0.260498 v -0.260482 q -0.208407,0 -0.208407,-0.104203 0,-0.104203 0.156364,-0.104203 l 0.312582,0.208393 q 0.104192,-0.104192 0.104192,-0.208393 l -0.208401,0.05211 q 0,-0.260494 0.104192,-0.260494 0,0.104203 0.312582,0.260494 v -0.05211 q -0.104192,0 -0.208408,-0.416792 0.208408,0 0.31258,0.520987 h 0.104192 l 0.260459,-0.468839 h 0.260495 l -0.05196,0.260496 q 0.573085,0 0.781488,-0.208397 h 0.260496 l 0.05196,-0.208396 q -0.05196,0 -0.05196,-0.05208 l 0.260491,0.104203 q 0.312583,0 1.041986,-0.208403 0.156299,0 0.364667,0.104192 0,-0.156266 0.156364,-0.156266 l 0.208407,0.104203 q 0.05198,0 0.05198,-0.05212 -0.208407,0 -0.208407,-0.208395 h 0.2605 q 0.260495,0.260492 0.364675,0.260492 0,-0.1042029 0.104192,-0.1042029 l 0.104192,0.052118 q 0.05196,-0.2083915 0.260494,-0.2083915 v 0.1562594 h 0.05199 q 0,-0.104203 0.05198,-0.104203 l 0.364674,0.052107 Q 49.18009,9.7598786 49.18009,9.4472487 l -0.104192,0.052074 q 0,-0.052074 -0.05196,-0.1562682 0,-0.1562671 0.31258,-0.1562671 0.208408,0.052085 0.208408,0.1562671 l -0.05199,0.3646918 0.05199,0.052074 q 0.104192,-0.4688959 0.260496,-0.4688959 h 0.520988 l 0.1563,-0.104203 q 0.36467,0.2083994 0.36467,0.7293858 l 0.104192,-0.052118 -0.05196,-0.104203 V 9.3429864 q 0,-0.104203 0.156365,-0.104203 0.573089,0.2604932 0.72938,0.2604932 0.05199,-0.104203 0.104192,-0.104203 0.260492,0.2083961 0.989887,0.4167988 l 0.41686,-0.052118 q 0.989884,0.1562682 2.344458,1.4066676 l -0.104192,0.05211 -0.520991,-0.05211 q 0.573091,0.416793 0.833586,1.146178 l 0.104192,0.05207 0.05199,-0.05207 q -0.104192,-0.208462 -0.312583,-0.468955 h 0.208402 q -0.36468,-0.364791 -0.468912,-0.364791 v -0.15625 q 0.468905,0 0.885688,0.677284 0.312583,0 0.416861,0.468896 l -0.104192,0.05208 q 1.094083,1.406673 1.094083,1.875565 0.520987,1.302473 0.729385,3.542727 -0.156365,0 -0.364669,0.416795 -0.1563,0 -0.260498,-0.0521 0.05196,0.156267 0.1563,0.260492 l -0.260494,0.312594 0.104192,0.208396 q -0.05198,0.0521 -0.260494,0.0521 v 0.05207 q -0.156365,1.927662 -0.520988,1.927662 l 0.05197,0.104192 -0.260499,0.729387 q 0.05196,0 0.05196,0.05211 l -0.208406,0.05212 0.05196,0.104203 q 0,0.156267 -0.156302,0.156267 v 0.05207 q 0.208409,0 0.208409,0.156268 -0.104192,0 -0.104192,0.104203 0.156299,0 0.156299,0.104203 0,0.312594 -0.260494,0.625189 0.208404,0 0.208404,0.156268 -0.260492,0.781484 -0.416866,0.781484 l 0.05196,0.156268 q -0.1563,0 -0.312586,0.468897 -0.208405,0 -0.468897,0.573086 -0.416866,0.260493 -0.416866,0.364692 -0.2084,0.729388 -0.573084,0.729388 l 0.05197,0.104192 q 0,0.104203 -0.104192,0.104203 -0.05197,0 -0.520989,-0.3647 h -0.05199 q 0.520989,0.416794 0.520989,0.520992 -0.05196,0.2084 -0.1563,0.2084 -0.104192,0 -0.208406,-0.104203 -0.1563,0.260497 -0.208407,0.677291 -0.104192,0.156269 -0.208405,0.156269 l 0.05197,0.208393 -0.104192,0.05207 -0.364677,-0.260497 q 0.05196,0 0.208409,0.260497 v 0.104192 l -0.156302,0.260496 q 0.05197,0 0.156302,0.156268 -0.52099,0.104203 -0.52099,0.312591 l 0.260493,-0.05211 q 0,0.05211 -0.468899,0.468891 l -0.260492,-0.05207 0.05199,0.312591 q 1.146177,0.416798 1.146177,0.520989 l -1.875573,-0.31249 v 0.104203 H 51.78449 V 29.81766 h -0.260492 q 0.05197,0.104192 0.104192,0.104192 L 51.5762,30.18235 h -0.05196 q 0,0.208391 0.208406,0.260491 l 0.31258,-0.05204 q 0.05197,-0.104203 0.104192,-0.104203 0.05199,0.05207 0.05199,0.156267 0,0.104203 -0.104192,0.156268 h 0.156302 q 0.208403,-0.156268 0.364668,-0.156268 0,0.05212 0.05198,0.05212 l -0.05198,0.208393 0.208407,0.364694 q -0.208407,0 -1.40667,-0.677285 H 51.26356 l 0.05196,0.208398 -0.05196,0.05211 -0.156365,-0.05211 q 0,0.104203 0.729385,0.260496 0.05196,0.104203 0.104192,0.104203 l 0.260497,-0.05207 q 0.104192,0.104203 0.104192,0.260494 0.1563,-0.104203 0.260495,-0.104203 l 0.416862,0.104203 q 0,-0.104203 0.156365,-0.104203 L 52.982818,30.85971 v -0.05215 h 0.156365 q 0.05197,0 0.208402,0.208396 v 0.156266 l 0.208407,0.05207 q 0,-0.104203 0.104192,-0.104203 0.104192,0 0.104192,0.156269 h 0.05197 q 0.05196,-0.416797 0.208407,-0.416797 l 0.05196,0.156267 -0.260495,0.468897 0.625197,-0.05212 q 0.260494,0.104203 0.260494,0.208395 0,0.104203 -0.104192,0.104203 l -0.156365,-0.05211 v 0.05211 q 0.312584,0.3126 0.937787,0.625191 l 0.104192,0.156268 q 0.208401,0 0.208401,-0.156268 h 0.104192 v 0.260496 q 0,0.05208 0.989883,1.146178 v 0.208394 l -0.05197,0.104203 0.260492,-0.05211 q 0.05196,0 0.05196,0.573087 h 0.05199 q 0,-0.468894 0.104192,-0.468894 0.104192,0.104192 0.104192,0.260495 0.05196,0.156268 -0.05197,0.260495 l 0.05197,0.156267 q -0.05197,0 -0.05197,0.05208 0.156302,0 0.156302,0.260496 l 0.260493,-0.05211 0.05196,0.104192 q 0,0.156268 -0.156299,0.156268 v 0.05211 q 0.208404,0 0.208404,0.104192 0,0.156267 -0.05196,0.156267 0.104192,0.208399 0.208405,0.208399 0.364674,0 0.364674,-0.104192 l -0.05196,-0.156268 q 0.05196,-0.05211 0.208406,0 0.1563,0.05207 0.1563,0.31259 0,0.208393 -0.468902,0.260495 v 0.0521 q 0.573087,0 0.573087,0.260492 0.05197,0.260494 0.260496,0.468896 -0.05196,0.2084 -0.520987,0.573089 h 0.05196 q 0.364668,-0.208384 0.520986,-0.208384 0,0.05208 0.05198,0.05208 -0.104192,0.364694 -0.104192,0.62519 0,0.104203 0.104192,0.104203 l -0.05198,0.729385 q 0.260494,0 0.260494,0.677286 -0.05199,0.625185 -0.156299,0.625185 L 58.81762,39.924645 q -0.05196,0.364671 -0.312583,0.625187 l 0.104192,0.05207 q 0.104192,-0.104192 0.104192,-0.260494 l 0.156363,0.05207 q 0,-0.312589 0.104192,-0.312589 0.156365,0.208412 0.156365,0.312589 l -0.05196,0.156251 q 0.104192,0 0.104192,0.156251 0,0.104192 -0.104192,0.104192 -0.104192,0 -0.156365,-0.05197 0,0.416811 0.104192,0.72938 -0.260494,0.520986 -0.41686,1.562966 -0.208407,0.416811 -0.312585,0.989878 -0.104192,0 -0.52099,0.260492 h -0.156299 q 0,0.260497 -0.31258,0.468904 0.104192,0 0.104192,0.208404 h -0.312599 q -0.625198,1.719273 -1.094076,1.719273 l 0.05197,0.156363 -0.520986,0.677295 0.05196,0.104192 q 0,0.104192 -0.312584,0.104192 l 0.05196,0.104192 q 0,0.1563 -0.312584,0.1563 v 0.05196 q 0.260498,0 0.260498,0.104192 0,0.104192 -0.208407,0.104192 0.156365,0.104192 0.156365,0.208405 -0.312584,0.573087 -0.520992,0.573087 l -0.260495,-0.05196 -0.1563,0.260494 h 0.208404 v -0.156365 q 0.260499,0 0.260499,0.208409 -0.52099,0.937791 -0.885683,0.989891 l 0.104192,0.156365 q -0.468898,0.05197 -0.468898,0.364668 -0.20841,0 -0.937786,0.573089 l -0.416863,0.104192 q 0,-0.05199 -0.05196,-0.05199 0,0.41687 -0.729389,0.729387 0,-0.05201 -0.05197,-0.05201 0,0.20841 -0.104192,0.20841 -0.05199,0 -0.520987,-0.62521 v 0.05196 q 0.36467,0.520992 0.36467,0.677309 0,0.104192 -0.1563,0.156365 -0.208408,0 -0.208408,-0.156365 -0.4689,0.260495 -0.4689,0.677297 l -0.208407,-0.05196 q 0,0.208404 -0.104192,0.208404 l -0.104192,-0.05197 q 0,0.208404 -0.104192,0.208404 -0.312583,-0.312583 -0.312583,-0.468898 -0.05196,0 -0.05196,0.05196 0.104192,0.1563 0.104192,0.416864 -0.312587,0.156365 -0.312587,0.260493 l 0.05201,0.208404 -0.260494,-0.05197 q -0.364672,0 -0.416864,0.156363 l 0.104192,0.05196 0.156365,-0.05196 v 0.05196 q -0.416821,0.312611 -0.833534,0.312611 l -0.052,-0.156365 h -0.05196 q -0.05201,0.36467 -0.468904,0.36467 -0.1563,0 -0.1563,-0.260494 -0.416862,0.260494 -0.625197,0.260494 0,-0.104192 0.156362,-0.104192 v -0.05196 q -0.104192,0 -0.31258,-0.156361 h -0.05196 l 0.104192,0.156361 q -0.05197,0 -0.1563,0.156365 0.05196,0 0.05196,0.05196 l -0.104192,0.05197 q 0,-0.05197 -0.05196,-0.05197 0,0.156365 -0.104192,0.156365 h -0.208407 q -0.104192,0 -0.104192,-0.156365 -0.104192,0 -0.104192,0.156365 l 0.05197,0.156364 q -0.1563,0 -0.260495,-0.104192 0,0.208404 -0.104192,0.208404 l -0.05197,-0.156365 h -0.156332 q 0,0.364673 -0.781491,0.364673 -0.104192,-0.312583 -0.468899,-0.312583 l 0.104192,0.1563 q -0.625199,0.104192 -0.781488,0.208406 l -0.52099,-0.05199 z M 48.084745,9.6032816 h -0.156303 q 0,-0.2083961 0.104192,-0.2083961 z m 0.364669,0 -0.05197,-0.104203 q 0,-0.104203 0.104192,-0.104203 l 0.05197,0.104203 q 0,0.104203 -0.104192,0.104203 z m -2.917533,0.104203 q -0.104192,0 -0.104192,-0.104203 l 0.156365,-0.104203 0.05196,0.104203 q 0,0.104203 -0.104192,0.104203 z m 1.45876,0.104203 h -0.208404 q 0.05196,-0.208395 0.364668,-0.208395 0.156365,0 0.156365,0.104203 -0.208408,0.104203 -0.312579,0.104203 z m 2.031863,0 q -0.156365,0 -0.156365,-0.104203 0.05198,-0.104203 0.104192,-0.104203 z m -5.522498,0.2604954 q -0.104192,0 -0.104192,-0.104203 l -0.104192,0.052118 q -0.104192,0 -0.104192,-0.3125936 h 0.104192 q 0.104192,0 0.104192,0.156266 l 0.104192,-0.052118 q 0.104192,0 0.104192,0.104192 0,0.1562696 -0.104192,0.1562696 z m 2.552868,-0.05208 q -0.208407,0 -0.208407,-0.104192 l 0.260494,-0.1562682 q 0.104192,0 0.104192,0.104203 0,0.052074 -0.156364,0.1562682 z M 46.678098,9.915906 H 46.52183 V 9.7596037 h 0.05196 q 0.104192,0 0.104192,0.1562671 z m -1.615066,0.364691 -0.104192,-0.156267 0.104192,-0.05212 h 0.208404 q 0.104192,0 0.104192,0.156268 z m -3.907429,0.104192 q 0,-0.260496 0.104192,-0.260496 h 0.104192 v 0.05208 q -0.104192,0.20841 -0.208405,0.20841 z m -0.364672,0.208405 q -0.156302,0 -0.156302,-0.104203 l 0.41681,-0.260497 q 0,0.260497 -0.2605,0.36469 z m 2.18816,0.260499 h -0.156365 q 0,-0.104192 0.104192,-0.156268 h 0.05197 z M 42.24969,11.426768 H 41.989198 V 11.2705 q 0.36467,0 0.36467,-0.312594 l 0.260494,0.208399 q 0,-0.312599 0.104192,-0.312599 l 0.208408,0.156267 h 0.260493 q 0,0.156269 -0.260493,0.260493 l -0.156365,-0.05208 z m -0.208407,-0.364693 h -0.05196 q 0,-0.104203 0.104192,-0.156268 h 0.05196 q 0,0.156268 -0.104192,0.156268 z m 3.542725,0.156266 v -0.05208 q 0.156301,-0.260494 0.208409,-0.260494 0.104192,0.05212 0.104192,0.104203 0,0.208396 -0.312584,0.2084 z m 0.416864,0.416796 q -0.104192,0 -0.104192,-0.156267 0,-0.208398 0.104192,-0.208398 0.104192,0.05212 0.104192,0.208398 0,0.156267 -0.104192,0.156267 z m 1.927658,0 q -0.05197,-0.05212 -0.05197,-0.156267 0,-0.15627 0.312583,-0.208398 h 0.312584 q 0.104192,0.05212 0.104192,0.156266 z m -6.043473,0.05212 -0.05196,-0.156267 h 0.05196 q 0.104192,0 0.104192,0.104203 z m 4.688912,0.677287 q -0.364671,0 -0.364671,-0.104203 0,-0.104203 0.156302,-0.156267 l 0.156364,0.104203 q 0,-0.104203 0.208404,-0.104203 0,-0.156268 -0.208404,-0.260491 l -0.104192,0.05211 q 0,-0.05211 -0.05197,-0.156268 0,-0.156268 0.312582,-0.156268 0.104192,0 0.104192,0.468894 l 0.260494,-0.104203 0.156365,0.05207 v 0.104203 q -0.156365,0 -0.625196,0.260492 z m 1.198274,-0.156267 q -0.104192,0 -0.104192,-0.104203 0,-0.208393 0.416867,-0.260491 0,-0.156268 0.677295,-0.260501 0.208411,0.05207 0.208411,0.156266 0,0.104203 -0.729391,0.312595 0,-0.05212 -0.05199,-0.05212 0,0.05212 -0.416868,0.208395 z m -1.510873,-0.31268 h -0.156365 q 0,-0.208402 0.104192,-0.208402 z M 38.707026,11.9998 q -0.260498,0 -0.260498,-0.156268 l 0.520994,-0.05212 v 0.104203 q 0,0.104203 -0.260496,0.104203 z m 7.033356,0.729383 q -0.104192,0 -0.208402,-0.156268 0,-0.156267 0.36467,-0.208399 l -0.104192,-0.156266 0.104192,-0.0521 q 0.104192,0.104203 0.104192,0.208398 l 0.156364,-0.05207 v 0.104203 q -0.05196,0 -0.416862,0.312591 z m 7.137562,-0.260494 h -0.104192 v -0.05212 q 0.05197,-0.2084 0.156301,-0.2084 h 0.104192 v 0.05212 q -0.104192,0.208403 -0.156299,0.208404 z m 1.667165,1.927661 -0.05196,-0.104192 0.05196,-0.208394 q 0,-0.208398 -0.468899,-0.468897 -0.208404,-0.364694 -0.208404,-0.573089 -0.104192,0 -0.104192,0.156268 h -0.104192 l -0.521,-0.312552 q 0,-0.156266 0.573084,-0.625186 h 0.104192 l 0.937783,0.937784 -0.208407,0.208398 0.1563,0.104203 0.156364,-0.05211 q 0.208406,0 0.468898,0.573086 -0.41686,0.364694 -0.781478,0.364694 z m -4.324276,-1.875546 h -0.312585 v -0.104203 h 0.312585 z m 0.885671,0.05212 h -0.104192 q -0.104192,0 -0.104192,-0.156268 l 0.208405,0.05211 z m 2.031863,0.104203 -0.05198,-0.104203 q 0,-0.156268 0.104192,-0.156268 0.104192,0 0.104192,0.104203 0,0.05208 -0.1563,0.156268 z M 48.762053,12.57292 h -0.156301 v -0.104203 h 0.156301 z m 3.386426,0.208399 Q 51.367007,12.62505 51.367007,12.520833 l 0.1563,-0.05212 0.625197,0.208396 z m 5.053609,0.312593 q -0.05196,0 -0.260493,-0.312593 v -0.05211 h 0.05197 q 0.208406,0.104203 0.208406,0.364688 z m -6.512366,0.05211 -0.312585,-0.05211 V 12.98972 l 0.312585,0.05208 z m -7.502256,0.364691 h -0.208407 q 0,-0.156267 0.1563,-0.156267 0.156364,0.05212 0.156364,0.104203 z m 9.01313,0.156285 -0.05197,-0.208397 h 0.156363 q 0,0.208397 -0.104192,0.208397 z m -7.971137,0.104203 q -0.208406,0 -0.208406,-0.104203 l 0.208406,-0.05212 q 0.104192,0.05212 0.104192,0.104203 z m 8.544217,0.208402 q -0.104192,-0.05211 -0.104192,-0.208402 h 0.104192 q 0.104192,0.05211 0.104192,0.104203 0,0.104192 -0.104192,0.104192 z m 0.416864,0.312591 q -0.104192,0 -0.156364,-0.208397 0,-0.104203 0.104192,-0.104203 0.156362,0.0521 0.156362,0.156269 0,0.156266 -0.104192,0.156266 z m 1.406673,0.677289 h -0.104192 q 0,-0.104203 -0.31258,-0.573088 v -0.104203 q 0.156365,0 0.416861,0.677279 z m 1.354575,0.520985 h -0.104192 q -0.104192,-0.41679 -0.104192,-0.573087 0.104192,-0.104203 0.104192,-0.573088 0.104192,0 0.260495,0.573088 l -0.208404,0.208403 z m -0.677325,-0.156286 q -0.208402,0 -0.4689,-0.677284 l 0.104192,-0.0521 q 0.364675,0.520996 0.364675,0.729384 z m -20.266504,-0.05211 -0.05212,-0.104203 0.156267,-0.104203 0.05211,0.104203 z m 19.224517,0.468898 h -0.104192 l -0.05197,-0.312596 h 0.104192 z m 0.468901,2.657048 q -0.05197,-0.05211 -0.208406,-0.05211 0,-0.156267 0.104192,-0.312593 -0.156299,-0.208399 -0.156299,-0.625186 l 0.05199,-0.312595 h 0.156299 l 0.05196,0.364689 0.208407,-0.05211 q 0,0.15627 -0.1563,0.312596 0.05196,0 0.05196,0.05209 l -0.104192,0.05211 q 0,-0.05211 -0.05196,-0.05211 v 0.104203 q 0.1563,0 0.260497,0.208395 -0.104192,0 -0.208406,0.312595 z m 3.438529,0.729387 q -0.208409,0 -0.208409,-0.104203 0,-0.364693 0.416866,-0.781486 h 0.05196 q 0,0.885685 -0.260495,0.885685 z M 55.01397,18.720602 q -0.156299,0 -0.260494,-0.156269 0.104192,-0.208399 0.156364,-0.208399 l 0.104192,0.15627 q 0,0.05211 -0.05197,0.05211 z m -16.307015,0.312594 q -0.208393,0 -0.208393,-0.156269 h 0.104192 q 0.104203,0.05211 0.104203,0.156269 z m 19.432924,0.520987 q -0.364672,0 -0.416863,-0.156267 0,-0.104203 0.208405,-0.208396 0.104192,0 0.208407,0.156268 z m -0.468898,1.19828 -0.05196,-0.156269 0.104192,-0.573092 -0.05197,-0.416797 h 0.104192 q 0.208401,0 0.208401,0.2605 -0.104192,0.781484 -0.312582,0.885683 z m -0.67733,2.34446 h -0.104192 l 0.05196,-0.208399 -0.05196,-0.520986 q 0,-0.156268 0.260492,-0.677286 l 0.156365,0.05211 v -0.156267 q -0.156365,0 -0.156365,-0.208398 0.156365,0 0.260502,-0.364692 0.208404,-0.104203 0.364669,-0.104203 l 0.05197,0.156266 -0.104192,0.260498 h -0.104192 q -0.104192,-0.104203 -0.208404,-0.104203 0.104192,0.156267 0.104192,0.312598 -0.208401,0.416788 -0.364675,1.198275 -0.104192,0 -0.156299,0.364693 z M 37.873369,22.680144 q -0.312593,0 -0.41679,-0.312593 0.156267,-0.520988 0.31259,-0.520988 0.104192,0 0.104192,0.156266 l -0.104192,0.260495 q 0.364693,0 0.364693,0.104203 0,0.104203 -0.260493,0.312594 z m 14.43142,0.156267 q 0,-0.208397 0.260495,-0.31259 0.05197,0 0.156365,0.156269 0,0.104203 -0.416866,0.156268 z m -0.260497,0.364697 q 0,-0.156267 0.104192,-0.156267 l 0.05196,0.104203 z m 4.428415,0.260492 0.05197,-0.208393 q -0.208406,0 -0.208406,0.104192 v 0.104203 z m -6.668678,2.865446 h -0.104192 q 0,-0.260492 0.104192,-0.260492 0.104192,0 0.104192,0.104203 0,0.156267 -0.104192,0.156267 z m 4.220028,0.781485 q 0,-0.208397 0.208406,-0.260493 v -0.05208 h -0.1563 q -0.104192,0.156266 -0.104192,0.260493 0,0.05211 0.05196,0.05211 z m 0.104192,0.312594 q 0,-0.208395 0.104192,-0.208395 l 0.05197,0.104203 q -0.104192,0.104203 -0.1563,0.104203 z m -11.9828,2.448666 h -0.156237 v -0.104203 h 0.156237 z m 9.794606,0.36469 -0.208406,-0.05208 v -0.104192 h 0.104192 q 0.104192,0.05207 0.104192,0.156284 z m 1.927661,0.156268 q 0,-0.156268 0.208406,-0.31259 0.104192,0.05212 0.104192,0.104203 0,0.2084 -0.312583,0.2084 z m 0.260496,0.208398 q -0.104192,0 -0.104192,-0.208398 h 0.156365 q 0.104192,0.05207 0.104192,0.104203 -0.104192,0.104192 -0.156365,0.104203 z m 1.823462,0.833582 q -0.208405,0 -0.729387,-0.260496 l -0.208405,0.05207 q 0,-0.36469 -0.104192,-0.36469 l 0.05198,0.104203 -0.104192,0.05212 -0.104192,-0.156267 0.05196,-0.156269 Q 54.44057,30.599199 54.44057,30.495003 54.492534,30.3908 54.544762,30.3908 q 1.510875,0.625186 1.510875,0.885686 0,0.104203 -0.104192,0.156267 z m -3.125918,-0.781485 h -0.05197 q 0,-0.104203 0.104192,-0.156266 h 0.05198 q 0,0.156266 -0.104192,0.156266 z m 0.729388,0.468897 q -0.104192,0 -0.104192,-0.104203 l 0.1563,-0.104192 q 0.104192,0 0.104192,0.104192 z m 2.969643,0.729387 q -0.520988,-0.15627 -0.520988,-0.312593 0,-0.104203 0.156365,-0.156268 h 0.104192 q 0.260497,0.104203 0.364669,0.364692 0,0.104203 -0.104192,0.104203 z m -1.562958,-0.05212 q -0.1563,0 -0.1563,-0.104203 l 0.104192,-0.05211 z m 0.468901,0.416787 -0.260491,-0.312591 v -0.104203 h 0.104192 q 0.260491,0.156268 0.260491,0.36469 z m 0.833596,-0.104192 h -0.2605 v -0.104192 h 0.156365 q 0.104192,0 0.104192,0.104192 z m 0.729391,0.260496 q -0.208407,0 -0.208407,-0.104203 0.156365,-0.104192 0.312584,-0.104192 h 0.05196 q 0,0.104192 -0.156364,0.208403 z m 0.520985,0.416791 -0.416857,-0.416791 0.208401,-0.156267 h 0.104192 q 0,0.312591 0.208405,0.520989 z m -6.720738,-0.0521 q -0.312578,0 -0.36467,-0.208402 l 0.156365,-0.05207 q 0.05196,0 0.208408,0.2084 z m 5.522492,0.104203 q -0.208414,-0.05212 -0.312594,-0.260494 l 0.104192,-0.0521 q 0.312586,0.104203 0.312586,0.208396 0,0.104203 -0.104192,0.104203 z m -6.877077,-0.05212 q -0.156365,0 -0.156365,-0.104203 h 0.156365 z m 5.001513,0.104192 -0.05197,-0.104192 0.156365,-0.0521 q 0,0.156268 -0.104192,0.156268 z m 3.386428,0.208396 q -0.104192,0 -0.208404,-0.156268 0.05196,-0.104203 0.156299,-0.104203 0.104192,0 0.20841,0.156268 0,0.104203 -0.156365,0.104203 z m -2.761242,0 q -0.312586,0 -0.364672,-0.208396 h 0.260493 q 0.104192,0.05211 0.104192,0.208396 z m -2.083963,0.1563 q -0.156347,0 -0.156347,-0.104192 l 0.104192,-0.05211 z m 3.751119,0 h -0.156299 q 0,-0.104192 0.104192,-0.156268 h 0.05196 z m -1.979756,0.312599 q -0.156299,0 -0.156299,-0.156269 0,-0.156267 0.260497,-0.208398 l 0.05197,0.104203 q 0,0.260494 -0.156364,0.260494 z m 3.438533,0.104192 q -0.156363,-0.05209 -0.156363,-0.468891 h 0.104192 q 0.156363,0.0521 0.156363,0.364688 0,0.104192 -0.104192,0.104203 z m -6.877068,-0.208396 q -0.208402,0 -0.208402,-0.104203 l 0.05196,-0.104192 q 0.260492,0.104192 0.260492,0.156268 z m 5.835086,0.364692 q -0.104192,0 -0.312581,-0.416796 v -0.104214 h 0.05197 q 0.104192,0 0.364675,0.416792 0,0.104192 -0.104192,0.104192 z m -5.418288,-0.208392 q -0.156365,0 -0.156365,-0.156267 l 0.104192,-0.05207 z m -3.907426,0.05211 q -0.156365,0 -0.156365,-0.104203 l 0.104192,-0.104192 z m 5.991383,0.312593 q -0.468902,-0.156268 -0.468902,-0.208403 0,-0.156267 0.156365,-0.208399 l 0.416866,0.208399 v -0.104192 h 0.104192 v 0.156268 q 0,0.156268 -0.208408,0.156268 z m 0.729383,-0.156268 -0.05199,-0.104192 0.104192,-0.05209 0.05197,0.104192 z m -0.625196,0.208395 q 0,-0.104203 0.156299,-0.156268 l 0.05196,0.104192 z m 1.094076,0.729386 -0.781479,-0.520988 0.05196,-0.104203 h -0.156364 q 0,-0.104192 0.208404,-0.156268 0.104192,0 0.104192,0.104203 l -0.05197,0.156268 q 0.208408,0 0.364673,0.156266 l 0.05196,-0.312592 q -0.104192,0 -0.104192,-0.104203 0.05197,-0.104192 0.104192,-0.104192 h 0.05199 q 0.364668,0.156268 0.364668,0.260496 0,0.104203 -0.416861,0.312595 0.208406,0.05208 0.208406,0.156267 z M 47.25122,34.454495 h -0.05199 q -0.156362,-0.26049 -0.468893,-0.26049 v -0.156268 q 0.312584,0 0.520993,0.312591 z m 11.305474,-0.156263 q -0.104192,0 -0.104192,-0.156266 0,-0.104203 0.104192,-0.104203 0.104192,0 0.104192,0.104203 0,0.156266 -0.104192,0.156266 z m -12.920555,0.83359 q -0.05196,0 -0.156365,-0.156268 l 0.208405,-0.208396 -0.104192,-0.260496 0.104192,-0.05208 0.104192,0.05208 q 0,-0.156269 0.104192,-0.156269 h 0.104192 l -0.05196,0.208405 q 0.104192,0 0.104192,0.104192 -0.312582,0.0521 -0.312582,0.416794 z m -4.897322,-0.468897 v -0.208397 h -0.05196 v 0.208397 z m 16.984267,-0.05208 q -0.104181,0 -0.104181,-0.104192 l 0.104181,-0.0521 q 0.104192,0 0.104192,0.104203 z m 1.250377,0.156268 q -0.156301,0 -0.156301,-0.156268 0,-0.156268 0.104192,-0.156268 l 0.104192,0.0521 q -0.05196,0.104203 -0.05196,0.260495 z m -12.347455,0 q -0.104192,0 -0.208406,-0.156268 v -0.0521 h 0.31258 q 0,0.208395 -0.104192,0.208395 z m -1.719269,0.260496 -0.156365,-0.260496 0.104192,-0.05208 0.156364,0.260496 z m 13.181041,0.05209 q -0.260495,0 -0.260495,-0.104192 l 0.260495,-0.05212 z m 0.989886,0.312592 q -0.104192,0 -0.104192,-0.104192 0.05196,-0.312592 0.156364,-0.312592 h 0.05198 l -0.05198,0.156268 0.05198,0.208403 z m -13.858331,-0.15627 q -0.104192,0 -0.104192,-0.156268 h 0.104192 z m 11.044992,0.677285 q -0.416842,-0.520955 -0.416842,-0.677251 l 0.104192,-0.05212 q 0.41686,0.260493 0.41686,0.677285 z m -0.05199,0.57309 q -0.156364,0 -0.625208,-0.625185 0.104192,0 0.104192,-0.104192 -0.208405,0 -0.416864,-0.364695 -0.05199,-0.156267 0.104192,-0.156267 h 0.05196 q 0.2605,0.312593 0.364676,0.312593 0.416861,0.52099 0.416861,0.937778 z M 57.9837,35.757006 57.827338,35.60074 q 0.05197,-0.104203 0.156362,-0.104203 0.05197,0 0.156301,0.156266 z m 0.93778,0.0521 h -0.104192 v -0.156259 h 0.104192 z m -3.959524,0.05211 q -0.156365,0 -0.156365,-0.156266 h 0.05198 q 0.104192,0.05211 0.104192,0.156266 z m 0.416857,0.72939 q -0.104192,0 -0.104192,-0.156268 h 0.104192 z m 0.416864,1.40667 H 55.6915 v -0.312592 h 0.104181 z m -0.468898,0.625188 H 55.222587 V 38.36197 h 0.104192 z m 0.625197,0.156266 h -0.104192 v -0.208348 h 0.104192 z m 0.104192,0.781488 q -0.156365,0 -0.156365,-0.104203 v -0.46891 h 0.156365 z m -0.833582,0.416794 -0.05196,-0.104203 0.104192,-0.05211 h 0.05199 q 0,0.156269 -0.104192,0.156284 z m -0.05196,0.364671 -0.104192,-0.104192 0.208409,-0.05207 q 0,0.156252 -0.104192,0.156301 z m 0.156365,0.260497 h -0.260475 q 0,-0.156253 0.1563,-0.156253 h 0.104192 z m 0.468899,0.729392 h -0.104192 q 0.05197,-0.364676 0.156382,-0.364676 h 0.05197 q -0.104181,0.260495 -0.104181,0.364672 z m 3.230593,-0.208403 q 0,-0.156302 0.104192,-0.156302 l 0.05198,0.104192 z m -2.865458,0.573097 H 56.056833 V 41.38368 q 0,-0.104192 0.104192,-0.104192 H 56.213 Z m 0.520974,0.364678 h -0.104192 q 0,-0.416812 0.416862,-0.52099 0,-0.05197 0.156365,-0.156301 h 0.05196 q 0,0.468901 -0.4689,0.468901 z m -1.667166,-0.364673 h -0.104192 q 0,-0.208404 0.104192,-0.208404 z m -0.677335,2.083957 q -0.208405,-0.05196 -0.208405,-0.1563 l 0.208405,-0.104192 q 0,-0.573095 0.260494,-0.781477 h 0.104192 l -0.05198,0.312582 0.208409,-0.05197 v 0.104192 q -0.156365,0.208404 -0.364673,0.208404 0.156301,0.1563 0.156301,0.312583 -0.156301,0 -0.312584,0.156299 z m 0.260494,0.364674 q -0.104192,0 -0.208407,-0.1563 0,-0.104192 0.156299,-0.208406 0.104192,0.05198 0.104192,0.104192 z m -1.198281,1.615075 q -0.208406,0 -0.260494,-0.156299 v -0.312594 q 0,-0.104192 0.156364,-0.156365 l -0.05196,-0.104192 q 0.208404,-0.573094 0.364673,-0.625192 l 0.312579,0.05196 q 0.05197,0 0.05197,-0.05196 -0.156365,0 -0.156365,-0.1563 l 0.625201,-0.104192 q 0.104192,0.05196 0.104192,0.1563 l -0.364673,-0.05197 0.05196,0.104192 -0.05196,0.104192 q 0.05196,0.104192 0.05196,0.260492 -0.364672,0.208408 -0.468901,0.729396 z m 4.271594,-0.729371 q -0.208413,-0.05196 -0.208413,-0.208402 0,-0.208408 0.729387,-0.573096 v 0.05197 q -0.104192,0.416811 -0.520988,0.729388 z m -0.156364,0.312585 q -0.156302,0 -0.312585,-0.208407 l 0.156302,-0.104181 h 0.156363 q 0.104192,0 0.104192,0.156364 0,0.156363 -0.104192,0.156363 z m -0.677298,1.041984 -0.05197,-0.156301 q 0.31258,-0.416865 0.36467,-0.885682 0.156302,0 0.208409,0.156364 -0.312586,0.833581 -0.520991,0.885679 z m -1.66717,2.500752 v -0.05199 l 0.468897,-1.146168 q 0.156365,-0.05196 0.312583,-0.312586 l 0.104192,0.05196 q 0.104192,0 0.104192,-0.208402 -0.156364,0 -0.156364,-0.104192 0.4689,-0.573091 0.885684,-0.573091 l 0.05196,0.104192 q -0.208407,0.364673 -0.416866,0.364673 0,-0.156364 -0.104192,-0.156364 0,0.52099 -0.41686,0.833583 0,0.260495 -0.833587,1.198274 z m -4.741275,-1.146154 v -0.05196 q 0.104192,-0.208405 0.312584,-0.208405 l 0.104192,0.208405 z m -0.312586,0.312584 -0.05199,-0.104192 0.104192,-0.05198 h 0.05197 q 0,0.156361 -0.104192,0.156361 z m -3.542727,2.292349 q -0.156364,0 -0.156364,-0.104192 0,-0.104192 0.208406,-0.208402 0.104192,0.05196 0.104192,0.1563 0,0.05199 -0.156364,0.156364 z m 4.220006,1.927672 q 0,-0.104192 -0.156364,-0.104192 0,0.104192 0.156364,0.104192 z m -0.312586,0.520987 h -0.05197 q 0,-0.104192 0.104192,-0.156301 h 0.05197 q 0,0.156301 -0.104192,0.156301 z m -15.004495,1.19825 h -0.05208 l 0.05208,-0.312581 h 0.104203 q 0,0.312581 -0.104203,0.312581 z m 0.05211,0.364675 h -0.104192 v -0.156307 h 0.104192 z m 1.302474,0.416864 h -0.05209 q -0.260504,-0.156374 -0.3647,-0.156374 -0.260498,0.156364 -0.416795,0.156364 l -0.0521,-0.104192 v -0.208413 l 0.2084,0.104192 q 0,-0.104192 0.104192,-0.104192 l 0.05211,0.05198 0.260499,-0.208407 h 0.104203 v 0.156362 l 0.260494,-0.05198 q 0.104192,0.104192 0.104192,0.208408 h -0.208426 z m 1.302473,0.885686 -0.05207,-0.208408 0.104192,-0.208403 q -0.05212,0 -0.208396,-0.208409 l 0.104192,-0.05196 q 0.208389,0.104192 0.208389,0.416862 0,0.1563 -0.156266,0.260494 z m -0.7294,-0.260504 q -0.208405,-0.05199 -0.208405,-0.156365 v -0.208413 h 0.0521 q 0.312595,0.208404 0.312595,0.260494 0,0.104192 -0.156285,0.104192 z m 2.136055,0.104192 -0.05211,-0.104192 q 0,-0.104192 0.104203,-0.104192 l 0.05208,0.104192 q 0,0.104192 -0.104192,0.104192 z"
       id="text1"
       style="font-size:29.0909px;font-family:'Dark SIlence';-inkscape-font-specification:'Dark SIlence';fill:#dfdfdf;fill-opacity:1;stroke-width:0.814044;stroke-opacity:0.6"
       aria-label="33" />
  </g>
</svg>
