<?xml version="1.0" encoding="UTF-8" standalone="no"?>
<svg
   width="64"
   height="64"
   version="1.1"
   id="svg73"
   sodipodi:docname="steam_icon_1639080.svg"
   inkscape:version="1.4.2 (ebf0e940d0, 2025-05-08)"
   xmlns:inkscape="http://www.inkscape.org/namespaces/inkscape"
   xmlns:sodipodi="http://sodipodi.sourceforge.net/DTD/sodipodi-0.dtd"
   xmlns="http://www.w3.org/2000/svg"
   xmlns:svg="http://www.w3.org/2000/svg"
   xmlns:rdf="http://www.w3.org/1999/02/22-rdf-syntax-ns#"
   xmlns:cc="http://creativecommons.org/ns#"
   xmlns:dc="http://purl.org/dc/elements/1.1/">
  <metadata
     id="metadata77">
    <rdf:RDF>
      <cc:Work
         rdf:about="">
        <dc:format>image/svg+xml</dc:format>
        <dc:type
           rdf:resource="http://purl.org/dc/dcmitype/StillImage" />
      </cc:Work>
    </rdf:RDF>
  </metadata>
  <sodipodi:namedview
     pagecolor="#f5f7fa"
     bordercolor="#666666"
     borderopacity="1"
     objecttolerance="10"
     gridtolerance="10"
     guidetolerance="10"
     inkscape:pageopacity="0"
     inkscape:pageshadow="2"
     inkscape:window-width="1377"
     inkscape:window-height="886"
     id="namedview75"
     showgrid="false"
     inkscape:zoom="6.2890624"
     inkscape:cx="47.622361"
     inkscape:cy="45.396274"
     inkscape:window-x="147"
     inkscape:window-y="75"
     inkscape:window-maximized="0"
     inkscape:current-layer="g877"
     inkscape:document-rotation="0"
     inkscape:pagecheckerboard="0"
     inkscape:showpageshadow="2"
     inkscape:deskcolor="#d1d1d1" />
  <defs
     id="defs29" />
  <circle
     cx="32.516094"
     cy="31.877844"
     r="0"
     fill="url(#b)"
     stroke-width="1.5715"
     id="circle41"
     style="fill:url(#b)" />
  <g
     aria-label="GZ"
     transform="matrix(1.2212657,0,0,0.81882264,0.4960938,-0.1661539)"
     id="text93"
     style="font-weight:bold;font-size:11.5263px;line-height:1.25;font-family:sans-serif;-inkscape-font-specification:'sans-serif Bold';fill:#f2f2f2;stroke-width:0.288159" />
  <g
     id="g877"
     transform="matrix(1.1,0,0,1.1,-3.1845928,-3.2065454)">
    <path
       style="fill:#dfdfdf;fill-opacity:1;stroke-width:0.402135"
       d="M 30.156939,58.626279 C 23.295228,56.715548 18.182736,52.634734 16.431178,47.670282 15.481421,44.978393 15.377929,39.715937 16.199412,35.885486 c 0.804262,-3.750132 1.331835,-3.754676 1.116804,-0.0096 -0.207509,3.613966 0.916405,8.03818 2.723028,10.719024 2.8563,4.238453 10.385439,6.72249 13.274552,4.379565 1.229006,-0.99667 1.337989,-1.436365 1.310831,-5.288669 C 34.588239,40.524621 32.764296,34.837227 29.177416,28.70049 24.00049,19.843361 22.90304,14.346323 25.413953,9.8496037 27.271182,6.5235424 31.326367,4.6839711 36.530879,4.8065895 c 6.395148,0.1506959 7.305315,0.4104272 9.648643,2.7537535 1.916793,1.9167941 2.147328,2.4272128 2.147328,4.754301 0,1.433835 -0.375023,3.544216 -0.833355,4.68973 -1.917341,4.791915 -8.435365,4.227078 -9.862277,-0.85465 -0.269116,-0.95842 -0.409633,-1.742586 -0.312257,-1.742586 0.09738,0 1.008622,0.831578 2.024999,1.847954 1.423137,1.423143 2.144204,1.775536 3.136653,1.532926 4.772697,-1.166714 3.956556,-6.97287 -1.332957,-9.4829067 -4.152538,-1.9705141 -7.779084,-0.6346426 -9.746081,3.5900487 -2.193667,4.711531 -1.638886,7.027448 3.234643,13.502851 5.648425,7.50499 8.419307,14.785621 8.487537,22.301406 0.06191,6.815508 -2.684383,10.924193 -7.665238,11.467949 -1.352035,0.147635 -3.682838,-0.09018 -5.301578,-0.541038 z"
       id="path1-9" />
  </g>
</svg>
