<?xml version="1.0" encoding="UTF-8" standalone="no"?>
<svg
   width="64"
   height="64"
   version="1.1"
   id="svg73"
   sodipodi:docname="steam_icon_2644610.svg"
   inkscape:version="1.4.2 (ebf0e940d0, 2025-05-08)"
   xmlns:inkscape="http://www.inkscape.org/namespaces/inkscape"
   xmlns:sodipodi="http://sodipodi.sourceforge.net/DTD/sodipodi-0.dtd"
   xmlns="http://www.w3.org/2000/svg"
   xmlns:svg="http://www.w3.org/2000/svg"
   xmlns:rdf="http://www.w3.org/1999/02/22-rdf-syntax-ns#"
   xmlns:cc="http://creativecommons.org/ns#"
   xmlns:dc="http://purl.org/dc/elements/1.1/">
  <metadata
     id="metadata77">
    <rdf:RDF>
      <cc:Work
         rdf:about="">
        <dc:format>image/svg+xml</dc:format>
        <dc:type
           rdf:resource="http://purl.org/dc/dcmitype/StillImage" />
      </cc:Work>
    </rdf:RDF>
  </metadata>
  <sodipodi:namedview
     pagecolor="#f5f7fa"
     bordercolor="#666666"
     borderopacity="1"
     objecttolerance="10"
     gridtolerance="10"
     guidetolerance="10"
     inkscape:pageopacity="0"
     inkscape:pageshadow="2"
     inkscape:window-width="1377"
     inkscape:window-height="886"
     id="namedview75"
     showgrid="false"
     inkscape:zoom="6.2890624"
     inkscape:cx="47.622361"
     inkscape:cy="45.396274"
     inkscape:window-x="147"
     inkscape:window-y="75"
     inkscape:window-maximized="0"
     inkscape:current-layer="g877"
     inkscape:document-rotation="0"
     inkscape:pagecheckerboard="0"
     inkscape:showpageshadow="2"
     inkscape:deskcolor="#d1d1d1" />
  <defs
     id="defs29" />
  <circle
     cx="32.516094"
     cy="31.877844"
     r="0"
     fill="url(#b)"
     stroke-width="1.5715"
     id="circle41"
     style="fill:url(#b)" />
  <g
     aria-label="GZ"
     transform="matrix(1.2212657,0,0,0.81882264,0.4960938,-0.1661539)"
     id="text93"
     style="font-weight:bold;font-size:11.5263px;line-height:1.25;font-family:sans-serif;-inkscape-font-specification:'sans-serif Bold';fill:#f2f2f2;stroke-width:0.288159" />
  <g
     id="g877"
     transform="matrix(1.1,0,0,1.1,-3.1845928,-3.2065454)">
    <path
       style="fill:#dfdfdf;fill-opacity:1;stroke-width:0.0965956"
       d="m 14.136571,58.579494 c -0.029,-0.225813 -0.184862,-1.301624 -0.346381,-2.390736 -0.507501,-3.421975 -0.619726,-4.964045 -0.562362,-7.727636 0.03716,-1.789532 0.105908,-2.819821 0.251327,-3.767224 0.754258,-4.913002 2.564247,-8.802425 5.70491,-12.259071 l 0.852579,-0.938358 -0.543399,-0.814984 c -1.583633,-2.37512 -3.6456,-3.575058 -7.357607,-4.281657 -1.338406,-0.254773 -4.6086888,-0.637301 -7.2205108,-0.844593 -0.8101997,-0.06432 -1.473083,-0.145853 -1.473083,-0.181233 0,-0.136835 4.6648976,-2.414048 6.0855135,-2.970709 4.4878603,-1.758553 7.6715153,-2.437831 11.4256323,-2.437831 1.880917,0 3.039513,0.109659 4.657515,0.440779 1.993297,0.407943 3.938991,1.065383 5.54964,1.875205 l 0.813889,0.409212 0.275942,-0.324192 c 1.045224,-1.22803 1.828993,-2.688337 2.195931,-4.091425 0.45196,-1.728225 0.347512,-4.127784 -0.292838,-6.727284 C 33.6717,9.5928204 32.559282,5.7251581 32.368693,5.3431037 32.291055,5.1874153 32.227466,5.0439043 32.227466,5.0241363 c 0,-0.019672 0.34789,0.219414 0.773087,0.5315117 0.955025,0.7009857 2.957838,2.5169383 3.789878,3.4363007 1.410718,1.5587653 3.04763,3.8475683 4.1723,5.8338963 2.675517,4.725361 3.613107,10.189058 2.607672,15.195953 -0.04881,0.242007 -0.01562,0.263523 0.847587,0.548096 2.381837,0.785509 4.714213,0.627975 7.334068,-0.495354 0.959309,-0.411328 2.50849,-1.207275 4.914063,-2.524777 0.557829,-0.305529 1.535867,-0.816533 2.173396,-1.135574 0.637533,-0.319037 1.278683,-0.664645 1.424778,-0.767999 0.146132,-0.103411 0.265632,-0.161834 0.265632,-0.12992 0,0.03187 -0.36272,0.784688 -0.806099,1.672847 -1.086519,2.17663 -2.593639,4.728358 -3.5211,5.961639 -3.901725,5.188282 -8.347513,8.420011 -13.687863,9.949957 -0.932623,0.267226 -3.084006,0.723835 -3.410173,0.723835 -0.16851,0 -0.208491,0.08196 -0.266478,0.546079 -0.177103,1.417531 0.08941,3.082915 0.723715,4.522732 0.707959,1.606947 2.548582,3.688535 5.178451,5.856398 0.799011,0.658643 2.218159,1.827824 3.153669,2.598174 0.935502,0.77034 1.689881,1.41247 1.676394,1.426938 -0.05774,0.06202 -2.841466,-0.303286 -4.350896,-0.570859 -2.131457,-0.377876 -2.887614,-0.556757 -4.64005,-1.097695 -7.236186,-2.233697 -12.273675,-6.002504 -15.405461,-11.52566 -0.583122,-1.028379 -0.476767,-0.997627 -1.696361,-0.49053 -1.585708,0.659355 -3.098706,1.934567 -4.114189,3.467602 -0.684097,1.03275 -2.085234,3.850364 -3.758157,7.557462 -0.712979,1.579913 -1.323276,2.873088 -1.356212,2.873707 -0.03291,0.0014 -0.0836,-0.183595 -0.112554,-0.409365 z M 42.265374,55.48514 c -0.02208,-0.01563 -0.459036,-0.362978 -0.970946,-0.773083 -1.116753,-0.894702 -2.508146,-2.328951 -3.186336,-3.284482 -1.379591,-1.943754 -2.075302,-4.343104 -1.920179,-6.622232 l 0.0483,-0.709611 -4.604426,0.0334 c -2.532438,0.01861 -4.632265,0.06128 -4.666286,0.09531 -0.09584,0.09592 1.107555,2.06184 1.885673,3.08058 1.31091,1.716292 3.358482,3.559417 5.404828,4.86516 1.691288,1.079185 4.540347,2.327659 7.244659,3.174668 0.61476,0.19252 0.924816,0.249346 0.764714,0.140201 z M 16.268991,49.116271 c 1.103399,-2.426364 2.768747,-4.426049 4.676084,-5.61484 0.762763,-0.475375 2.213893,-1.12097 2.526717,-1.124054 0.131224,-0.0013 0.161725,-0.04675 0.113607,-0.170795 -0.316676,-0.814224 -0.915776,-2.687311 -1.361902,-4.257969 -0.571524,-2.012174 -1.071532,-3.684204 -1.213087,-4.056592 -0.08243,-0.21687 -0.103048,-0.205423 -0.592138,0.329028 -2.786534,3.044928 -4.522181,6.942133 -5.094349,11.438814 -0.149471,1.174711 -0.234043,4.05142 -0.148955,5.06755 l 0.07249,0.865646 0.363234,-0.913946 c 0.19977,-0.502698 0.496025,-1.205941 0.658317,-1.562835 z m 24.780851,-7.815474 c 4.743148,-1.02817 8.988698,-3.744529 12.540653,-8.023698 0.649967,-0.783034 1.85015,-2.39635 1.78271,-2.39635 -0.02208,0 -0.337497,0.181548 -0.701533,0.403416 -1.590766,0.969542 -3.649347,1.802815 -5.346778,2.164272 -0.994363,0.211738 -3.238464,0.241835 -4.105308,0.05506 -0.514773,-0.110909 -1.940869,-0.52749 -2.236291,-0.653239 -0.06875,-0.02926 -0.211953,0.259144 -0.374794,0.754454 -0.300458,0.913833 -1.159788,3.09906 -1.834707,4.665596 -0.402226,0.933553 -1.301618,3.219858 -1.301618,3.308716 0,0.04264 0.523448,-0.04983 1.577685,-0.27822 z m -7.856389,-0.923668 c 3.096201,-1.132616 6.710035,-3.568092 7.428216,-5.006111 0.711919,-1.425481 -0.09035,-2.53515 -3.20737,-4.436104 -1.747087,-1.065497 -2.482132,-1.954363 -2.482132,-3.001569 0,-0.216647 -0.08344,-0.379249 -0.288216,-0.561708 -0.312525,-0.27846 -0.512479,-0.681216 -0.618024,-1.244826 -0.0858,-0.458197 -0.260128,-0.581578 -0.187246,-0.132526 0.02981,0.183705 0.005,0.474865 -0.05493,0.647025 -0.09259,0.265516 -0.07865,0.371424 0.09154,0.697975 0.122346,0.234658 0.178516,0.473175 0.143922,0.610888 -0.05421,0.215914 -0.246211,0.322718 -0.246211,0.136953 0,-0.04893 -0.206472,-0.294667 -0.458833,-0.546081 -0.252352,-0.251406 -0.567492,-0.655583 -0.700312,-0.898176 -0.138402,-0.252818 -0.420531,-0.560995 -0.66098,-0.722066 -0.391192,-0.262034 -0.41709,-0.306234 -0.38383,-0.654974 0.04128,-0.433338 -0.06402,-0.504813 -0.145268,-0.09854 -0.07161,0.358029 0.0091,0.660142 0.288045,1.075189 0.315542,0.469891 0.300427,0.957006 -0.03978,1.281549 -0.539213,0.514399 -1.270062,0.61452 -1.534941,0.210266 -0.154899,-0.236381 -0.152612,-0.269771 0.04605,-0.678749 0.241702,-0.497486 0.257177,-0.763352 0.06406,-1.101131 -0.13581,-0.237574 -0.138139,-0.234729 -0.141461,0.175402 -0.0046,0.570246 -0.147186,0.810271 -0.458522,0.772457 -0.232019,-0.02818 -0.266304,0.02299 -0.512994,0.76462 -0.192736,0.579531 -0.424445,1.009413 -0.855395,1.587093 -0.549397,0.736524 -0.667498,0.83609 -1.677876,1.414619 -2.696862,1.544179 -3.929707,2.730901 -3.933386,3.786216 -0.0021,0.540689 0.423982,1.317717 1.067066,1.946977 1.519268,1.486607 4.303061,3.144664 6.7541,4.022832 1.321274,0.473373 1.278804,0.474142 2.704674,-0.04724 z m -2.656379,-0.55355 c -2.481298,-0.659385 -5.437838,-2.584058 -6.095595,-3.968165 -0.28346,-0.596484 -0.32239,-1.717265 -0.07616,-2.193378 0.373182,-0.721652 1.727678,-1.830721 3.418809,-2.799338 1.151929,-0.659786 3.034764,-1.237689 4.032429,-1.237689 0.722655,0 2.232743,0.41851 3.251706,0.901204 1.16968,0.554082 2.763603,1.61285 3.441943,2.286314 0.758423,0.752975 0.903224,1.106441 0.838736,2.047341 -0.0436,0.636515 -0.101189,0.834141 -0.36094,1.238912 -0.821656,1.280439 -3.700573,3.128046 -5.697931,3.656775 -1.196662,0.316777 -1.764143,0.330795 -2.75297,0.06802 z m 2.217681,-0.686933 c 2.300567,-0.599217 3.744534,-2.725525 3.425451,-5.044099 -0.335288,-2.436236 -2.793608,-4.229624 -5.206704,-3.798379 -2.18088,0.389743 -3.766677,2.263397 -3.766677,4.4504 0,2.904488 2.787351,5.111121 5.54793,4.392078 z m -1.549388,-0.911629 c -0.301162,-0.121839 -0.701079,-0.643162 -0.768315,-1.001571 -0.03949,-0.210665 0.01291,-0.525039 0.157523,-0.938964 0.296601,-0.850635 0.299386,-2.1939 0.0068,-3.085444 -0.249695,-0.759798 -0.254331,-0.88916 -0.04753,-1.324989 0.204366,-0.430652 0.646851,-0.702789 1.142731,-0.702789 0.558455,0 0.958705,0.282059 1.164351,0.820524 0.169149,0.442918 0.168316,0.463651 -0.04523,1.126648 -0.323238,1.003623 -0.357419,1.902222 -0.105952,2.785282 0.304962,1.070911 0.319772,1.263869 0.125926,1.640197 -0.319231,0.61972 -1.038626,0.920326 -1.629976,0.681106 z m -8.353026,-9.078882 c 0.415781,-0.316507 1.467314,-1.040296 2.336736,-1.608417 3.751315,-2.451291 4.913315,-3.23352 4.913315,-3.30751 0,-0.04336 -0.37014,-0.239527 -0.822548,-0.436022 -2.891165,-1.255682 -5.267568,-1.762342 -8.400335,-1.790972 -2.996844,-0.02741 -5.970189,0.512675 -9.42004,1.711024 l -0.531282,0.184564 0.62787,0.06893 c 3.189683,0.350176 5.10208,0.89411 6.904665,1.963876 0.964766,0.572555 2.533482,2.115017 3.141275,3.088707 0.239066,0.383002 0.448106,0.697478 0.464526,0.698833 0.01629,0.0013 0.370037,-0.256488 0.785818,-0.572992 z m 18.832324,-0.80102 c 0.79142,-5.367203 -0.757394,-10.712464 -4.601451,-15.880553 -0.406748,-0.546849 -0.747887,-0.984578 -0.758085,-0.972739 -0.01023,0.01186 0.08444,0.427204 0.210318,0.923035 0.850949,3.351908 0.77036,6.000045 -0.257746,8.469676 -0.301564,0.724384 -1.141543,2.069644 -1.723685,2.760554 l -0.292447,0.347083 0.696744,0.473974 c 0.383211,0.260689 1.69686,1.217882 2.919227,2.127091 2.177214,1.619437 3.499365,2.548794 3.626059,2.548794 0.0349,0 0.116438,-0.358612 0.181102,-0.796916 z"
       id="path1-1-1" />
  </g>
</svg>
