<?xml version="1.0" encoding="UTF-8" standalone="no"?>
<svg
   width="64"
   height="64"
   version="1.1"
   id="svg73"
   sodipodi:docname="steam_icon_2288470.svg"
   inkscape:version="1.4.2 (ebf0e940d0, 2025-05-08)"
   xmlns:inkscape="http://www.inkscape.org/namespaces/inkscape"
   xmlns:sodipodi="http://sodipodi.sourceforge.net/DTD/sodipodi-0.dtd"
   xmlns="http://www.w3.org/2000/svg"
   xmlns:svg="http://www.w3.org/2000/svg"
   xmlns:rdf="http://www.w3.org/1999/02/22-rdf-syntax-ns#"
   xmlns:cc="http://creativecommons.org/ns#"
   xmlns:dc="http://purl.org/dc/elements/1.1/">
  <metadata
     id="metadata77">
    <rdf:RDF>
      <cc:Work
         rdf:about="">
        <dc:format>image/svg+xml</dc:format>
        <dc:type
           rdf:resource="http://purl.org/dc/dcmitype/StillImage" />
      </cc:Work>
    </rdf:RDF>
  </metadata>
  <sodipodi:namedview
     pagecolor="#f5f7fa"
     bordercolor="#666666"
     borderopacity="1"
     objecttolerance="10"
     gridtolerance="10"
     guidetolerance="10"
     inkscape:pageopacity="0"
     inkscape:pageshadow="2"
     inkscape:window-width="1377"
     inkscape:window-height="886"
     id="namedview75"
     showgrid="false"
     inkscape:zoom="6.2890624"
     inkscape:cx="47.622361"
     inkscape:cy="45.396274"
     inkscape:window-x="147"
     inkscape:window-y="75"
     inkscape:window-maximized="0"
     inkscape:current-layer="g877"
     inkscape:document-rotation="0"
     inkscape:pagecheckerboard="0"
     inkscape:showpageshadow="2"
     inkscape:deskcolor="#d1d1d1" />
  <defs
     id="defs29" />
  <circle
     cx="32.516094"
     cy="31.877844"
     r="0"
     fill="url(#b)"
     stroke-width="1.5715"
     id="circle41"
     style="fill:url(#b)" />
  <g
     aria-label="GZ"
     transform="matrix(1.2212657,0,0,0.81882264,0.4960938,-0.1661539)"
     id="text93"
     style="font-weight:bold;font-size:11.5263px;line-height:1.25;font-family:sans-serif;-inkscape-font-specification:'sans-serif Bold';fill:#f2f2f2;stroke-width:0.288159" />
  <g
     id="g877"
     transform="matrix(1.1,0,0,1.1,-3.1845928,-3.2065454)">
    <path
       style="fill:#dfdfdf;fill-opacity:1;stroke-width:0.917666"
       d="m 30.504671,57.165146 c -0.443185,-1.135602 -1.270053,-3.797233 -1.837486,-5.914735 -0.636576,-2.37555 -2.74379,-5.723307 -5.502193,-8.741436 -4.433173,-4.850601 -4.458692,-4.91423 -3.056585,-7.620759 2.087836,-4.030208 2.84638,-4.1775 7.71952,-1.498923 l 4.439547,2.440244 4.588781,-2.523567 c 2.523829,-1.387961 4.785177,-2.523568 5.025211,-2.523568 0.240013,0 1.226712,1.540416 2.192604,3.423148 l 1.756178,3.423141 -4.4654,4.885854 c -2.753999,3.013325 -4.860798,6.361409 -5.497088,8.735866 -1.550467,5.785922 -2.540183,7.979474 -3.600286,7.979474 -0.526351,0 -1.319615,-0.92912 -1.762803,-2.064739 z M 8.7124888,34.927382 c 1.8515472,-2.424898 3.3664482,-4.968942 3.3664482,-5.653432 0,-0.756588 1.025772,-1.244528 2.616304,-1.244528 1.438971,0 4.593922,-1.05151 7.011006,-2.336683 6.990988,-3.717143 8.156423,-2.483471 2.557778,2.707546 -2.635402,2.443519 -5.0064,5.119415 -5.268887,5.946439 -0.276417,0.870906 -2.31476,1.966379 -4.843801,2.603224 -2.401604,0.604753 -5.3652681,1.389078 -6.5859211,1.742943 -2.0837144,0.604062 -2.0135986,0.373896 1.1470729,-3.765509 z m 8.5642292,-1.912509 c 0.764837,-1.993126 -1.176837,-3.867496 -2.566649,-2.477683 -1.174636,1.174636 -0.446948,3.915855 1.03951,3.915855 0.536388,0 1.223608,-0.647178 1.527139,-1.438172 z m 36.221007,4.61407 c -1.698257,-0.737318 -4.044885,-1.340576 -5.214705,-1.340576 -1.247781,0 -2.345201,-0.687602 -2.654933,-1.663496 -0.290384,-0.914924 -2.65592,-3.702318 -5.256742,-6.194209 -5.516148,-5.285109 -4.387133,-6.475281 2.609387,-2.750749 2.427452,1.292231 5.552433,2.349509 6.944405,2.349509 1.577358,0 2.53087,0.492117 2.53087,1.306203 0,0.718412 1.442585,3.196093 3.205752,5.505963 3.370227,4.415234 2.920305,4.994755 -2.164034,2.787355 z m -3.185218,-4.61407 c 0.76483,-1.993126 -1.176841,-3.867496 -2.566651,-2.477683 -1.174639,1.174636 -0.446973,3.915855 1.039502,3.915855 0.536397,0 1.223623,-0.647178 1.527149,-1.438172 z m -38.23357,-7.767909 c 0,-2.920836 2.285679,-7.557835 4.925246,-9.991942 2.771395,-2.555669 3.988953,-2.094209 2.384504,0.903732 -0.650792,1.216019 -0.879918,3.641718 -0.562641,5.956516 0.577247,4.211486 -0.134127,4.99649 -4.528009,4.99649 -1.619017,0 -2.2191,-0.504271 -2.2191,-1.864796 z m 34.20967,1.265985 c -0.761055,-0.308373 -0.94779,-1.712273 -0.582353,-4.378343 0.319755,-2.33318 0.09282,-4.756216 -0.56001,-5.975852 -1.604446,-2.997941 -0.386895,-3.459401 2.3845,-0.903732 2.639568,2.434107 4.925251,7.071106 4.925251,9.991942 0,1.440112 -0.574682,1.848298 -2.523572,1.792348 C 48.54447,26.999426 46.904745,26.7626 46.288597,26.51295 Z M 27.839134,15.811274 C 23.879358,11.596289 26.519678,4.7820153 32.112628,4.7820153 c 6.109285,0 8.897509,6.9839477 4.45459,11.1578557 -2.755379,2.588542 -6.22347,2.537444 -8.728084,-0.128601 z"
       id="path293" />
  </g>
</svg>
