<?xml version="1.0" encoding="UTF-8" standalone="no"?>
<svg
   width="64"
   height="64"
   version="1.1"
   id="svg73"
   sodipodi:docname="steam_icon_990080.svg"
   inkscape:version="1.4.2 (ebf0e940d0, 2025-05-08)"
   xmlns:inkscape="http://www.inkscape.org/namespaces/inkscape"
   xmlns:sodipodi="http://sodipodi.sourceforge.net/DTD/sodipodi-0.dtd"
   xmlns="http://www.w3.org/2000/svg"
   xmlns:svg="http://www.w3.org/2000/svg"
   xmlns:rdf="http://www.w3.org/1999/02/22-rdf-syntax-ns#"
   xmlns:cc="http://creativecommons.org/ns#"
   xmlns:dc="http://purl.org/dc/elements/1.1/">
  <metadata
     id="metadata77">
    <rdf:RDF>
      <cc:Work
         rdf:about="">
        <dc:format>image/svg+xml</dc:format>
        <dc:type
           rdf:resource="http://purl.org/dc/dcmitype/StillImage" />
      </cc:Work>
    </rdf:RDF>
  </metadata>
  <sodipodi:namedview
     pagecolor="#f5f7fa"
     bordercolor="#666666"
     borderopacity="1"
     objecttolerance="10"
     gridtolerance="10"
     guidetolerance="10"
     inkscape:pageopacity="0"
     inkscape:pageshadow="2"
     inkscape:window-width="1377"
     inkscape:window-height="886"
     id="namedview75"
     showgrid="false"
     inkscape:zoom="6.2890624"
     inkscape:cx="47.622361"
     inkscape:cy="45.396274"
     inkscape:window-x="147"
     inkscape:window-y="75"
     inkscape:window-maximized="0"
     inkscape:current-layer="g877"
     inkscape:document-rotation="0"
     inkscape:pagecheckerboard="0"
     inkscape:showpageshadow="2"
     inkscape:deskcolor="#d1d1d1" />
  <defs
     id="defs29" />
  <circle
     cx="32.516094"
     cy="31.877844"
     r="0"
     fill="url(#b)"
     stroke-width="1.5715"
     id="circle41"
     style="fill:url(#b)" />
  <g
     aria-label="GZ"
     transform="matrix(1.2212657,0,0,0.81882264,0.4960938,-0.1661539)"
     id="text93"
     style="font-weight:bold;font-size:11.5263px;line-height:1.25;font-family:sans-serif;-inkscape-font-specification:'sans-serif Bold';fill:#f2f2f2;stroke-width:0.288159" />
  <g
     id="g877"
     transform="matrix(1.1,0,0,1.1,-3.1845928,-3.2065454)">
    <path
       style="fill:#dfdfdf;fill-opacity:1;stroke:none;stroke-width:0.820405;stroke-dasharray:none;stroke-opacity:0.6"
       d="m 32.365158,58.266514 c -0.783948,-1.016008 -1.716416,-2.108504 -2.072163,-2.427749 -0.630545,-0.565831 -0.690077,-0.545329 -2.368358,0.818008 -0.946856,0.76916 -1.89106,1.501835 -2.098237,1.628146 -0.579079,0.353078 0.121228,-1.888929 1.049192,-3.358899 0.425277,-0.673637 0.773212,-1.278048 0.773212,-1.343063 0,-0.12031 -1.995376,-0.997308 -2.915566,-1.281374 -0.557704,-0.172232 -1.88816,-4.228375 -2.009603,-6.126739 -0.05061,-0.791533 -0.449572,-1.603959 -1.268964,-2.58421 -0.657311,-0.786362 -1.195112,-1.679661 -1.195112,-1.985116 0,-1.34698 2.459191,-4.949509 6.212938,-9.101486 2.640012,-2.920078 3.682947,-4.538904 4.182966,-6.492724 0.420463,-1.642958 0.46975,-1.696329 1.602801,-1.735675 1.264579,-0.04393 2.363577,-0.827542 2.814541,-2.006861 0.424527,-1.110194 -0.355221,-2.626385 -2.581323,-5.019271 -1.559282,-1.676126 -1.951885,-2.308809 -1.954461,-3.149675 -0.003,-1.035191 3.196383,-10.1886493 3.565981,-10.2017583 0.104203,-0.00346 -0.08612,1.4028687 -0.422835,3.1256826 -1.16236,5.9469927 -0.747701,8.0517257 2.573341,13.0616977 1.148984,1.733298 1.500769,2.580102 1.607743,3.870095 0.119015,1.435662 0.02331,1.786313 -0.732947,2.685109 -0.478439,0.568598 -2.120331,1.891761 -3.648656,2.940368 -4.253963,2.918722 -8.147899,6.808509 -9.341474,9.331522 -0.953717,2.016005 -1.293927,4.267663 -0.700253,4.634594 0.157815,0.09754 1.100476,-0.829588 2.094812,-2.060277 0.994341,-1.230677 3.142244,-3.301612 4.773105,-4.602084 9.697296,-7.732724 11.335035,-11.489198 7.461237,-17.113792 -1.331291,-1.93298 -1.246672,-2.83304 0.113486,-1.206524 2.098379,2.509404 5.18931,9.333945 5.18931,11.4576 0,0.957202 -2.476622,5.862107 -3.809966,7.545611 -0.580126,0.732475 -2.309506,2.147472 -3.84306,3.144424 -4.988306,3.242909 -6.14315,4.069323 -7.292305,5.21847 -0.622375,0.622349 -1.084956,1.271571 -1.027938,1.442629 0.05705,0.171063 0.972388,0.932893 2.034151,1.692956 l 1.930477,1.38197 2.390032,-1.775517 c 1.31451,-0.976529 3.137984,-2.203494 4.052152,-2.726538 2.199271,-1.2584 2.937968,-2.06258 4.281386,-4.660932 1.282912,-2.481321 1.927641,-2.950093 1.927641,-1.401589 0,1.575645 -1.205523,3.374028 -3.269008,4.876693 -1.029235,0.749508 -1.871345,1.452575 -1.871345,1.562387 0,0.109813 0.312084,0.338942 0.693539,0.509114 0.626675,0.279611 0.412962,0.486541 -2.216358,2.145561 -3.988656,2.51675 -3.94704,2.437084 -2.190538,4.193605 1.677073,1.677055 2.746605,3.300354 2.748341,4.171321 9.66e-4,0.440101 -0.736278,-0.06756 -2.743572,-1.890191 l -2.744783,-2.491919 -0.775429,0.728484 -0.775434,0.728489 1.068202,1.322346 c 0.587514,0.72728 1.231765,1.637892 1.431675,2.023578 0.525371,1.01357 1.012725,2.350828 0.856744,2.350828 -0.07369,0 -0.775313,-0.831271 -1.55926,-1.84731 z"
       id="path1-9" />
  </g>
</svg>
