<?xml version="1.0" encoding="UTF-8" standalone="no"?>
<svg
   width="64"
   height="64"
   version="1.1"
   id="svg73"
   sodipodi:docname="steam_icon_1348690.svg"
   inkscape:version="1.4.2 (ebf0e940d0, 2025-05-08)"
   xmlns:inkscape="http://www.inkscape.org/namespaces/inkscape"
   xmlns:sodipodi="http://sodipodi.sourceforge.net/DTD/sodipodi-0.dtd"
   xmlns="http://www.w3.org/2000/svg"
   xmlns:svg="http://www.w3.org/2000/svg"
   xmlns:rdf="http://www.w3.org/1999/02/22-rdf-syntax-ns#"
   xmlns:cc="http://creativecommons.org/ns#"
   xmlns:dc="http://purl.org/dc/elements/1.1/">
  <metadata
     id="metadata77">
    <rdf:RDF>
      <cc:Work
         rdf:about="">
        <dc:format>image/svg+xml</dc:format>
        <dc:type
           rdf:resource="http://purl.org/dc/dcmitype/StillImage" />
      </cc:Work>
    </rdf:RDF>
  </metadata>
  <sodipodi:namedview
     pagecolor="#f5f7fa"
     bordercolor="#666666"
     borderopacity="1"
     objecttolerance="10"
     gridtolerance="10"
     guidetolerance="10"
     inkscape:pageopacity="0"
     inkscape:pageshadow="2"
     inkscape:window-width="1377"
     inkscape:window-height="886"
     id="namedview75"
     showgrid="false"
     inkscape:zoom="6.2890624"
     inkscape:cx="47.622361"
     inkscape:cy="45.396274"
     inkscape:window-x="147"
     inkscape:window-y="75"
     inkscape:window-maximized="0"
     inkscape:current-layer="g877"
     inkscape:document-rotation="0"
     inkscape:pagecheckerboard="0"
     inkscape:showpageshadow="2"
     inkscape:deskcolor="#d1d1d1" />
  <defs
     id="defs29" />
  <circle
     cx="32.516094"
     cy="31.877844"
     r="0"
     fill="url(#b)"
     stroke-width="1.5715"
     id="circle41"
     style="fill:url(#b)" />
  <g
     aria-label="GZ"
     transform="matrix(1.2212657,0,0,0.81882264,0.4960938,-0.1661539)"
     id="text93"
     style="font-weight:bold;font-size:11.5263px;line-height:1.25;font-family:sans-serif;-inkscape-font-specification:'sans-serif Bold';fill:#f2f2f2;stroke-width:0.288159" />
  <g
     id="g877"
     transform="matrix(1.1,0,0,1.1,-3.1845928,-3.2065454)">
    <path
       style="fill:#dfdfdf;fill-opacity:1;stroke-width:0.196623"
       d="M 30.379491,59.191577 C 27.933401,58.934511 25.975261,58.457317 23.82544,57.59432 20.423114,56.228543 18.043416,54.479246 15.373973,51.381716 12.688102,48.265118 11.246365,45.565883 9.8123679,40.969219 9.5918157,40.262236 9.2771794,38.465895 9.0865472,36.825311 8.7528633,33.953627 9.0614892,29.776577 9.8166953,26.943546 10.213121,25.4564 10.306415,25.146601 10.685152,24.059759 c 0.640475,-1.837953 0.709136,-2.00271 1.66432,-3.993871 1.487333,-3.100474 3.27644,-5.610669 5.875916,-8.244166 3.710301,-3.7588589 7.330347,-5.932099 11.433157,-6.8637244 0.755042,-0.1714528 1.606498,-0.2228294 3.670272,-0.2214851 3.004234,0.0016 4.408249,0.2198759 6.471354,1.0044403 2.309213,0.878149 5.23913,2.7680527 6.548174,4.2238268 0.131477,0.1462634 0.606885,0.6493434 1.056387,1.1179554 0.796067,0.82995 2.304381,2.785509 2.705369,3.507584 0.109758,0.197619 0.418852,0.730193 0.686951,1.183497 2.007521,3.394577 3.494488,7.980978 4.046317,12.480534 0.317442,2.588264 0.195822,6.489316 -0.292119,9.372302 -0.233379,1.378652 -1.069919,4.799482 -1.362387,5.570948 -0.09562,0.252308 -0.307216,0.812704 -0.470166,1.245271 -0.395114,1.048901 -1.343115,3.050615 -1.847614,3.901206 -0.224004,0.377644 -0.522819,0.89308 -0.664167,1.145408 -0.803792,1.435281 -3.067996,4.063757 -4.570537,5.305869 -1.840053,1.521146 -4.522046,3.018983 -6.343339,3.542644 -0.432564,0.124355 -0.92839,0.281283 -1.10183,0.348667 -1.168149,0.453975 -5.581895,0.739227 -7.811683,0.504926 z m 5.072936,-2.502012 c 1.137638,-0.230032 2.343168,-0.619731 2.857469,-0.923689 0.108108,-0.06392 0.334583,-0.175618 0.503199,-0.248174 0.438175,-0.188575 1.972543,-1.199672 2.502497,-1.649021 0.87928,-0.745556 2.12963,-2.102521 3.029074,-3.287367 0.50188,-0.661136 0.912522,-1.235105 0.912522,-1.275494 0,-0.04018 0.198499,-0.384279 0.441071,-0.76415 0.83924,-1.314328 1.631206,-3.031666 2.796949,-6.065043 0.110848,-0.288347 0.25316,-0.642299 0.316345,-0.786482 0.133615,-0.305026 0.747083,-2.612339 0.923529,-3.473653 0.6844,-3.34078 0.849896,-5.758592 0.65108,-9.511767 -0.0874,-1.649804 -0.210485,-3.237122 -0.273537,-3.527371 -0.06307,-0.290249 -0.182159,-0.937625 -0.264708,-1.438598 -0.08252,-0.500981 -0.351674,-1.65122 -0.598064,-2.556086 -1.711822,-6.286679 -4.988232,-10.63178 -9.57406,-12.6968888 -1.214325,-0.5468419 -1.630726,-0.5326596 -2.89092,0.098406 -1.032262,0.5169472 -2.872465,2.0504948 -3.223252,2.6861218 -0.09197,0.166703 -0.445503,0.647474 -0.785575,1.068386 -0.663861,0.82168 -1.179056,1.731032 -1.516336,2.676441 -0.270273,0.757589 -0.301238,3.473068 -0.04948,4.33863 0.23834,0.819425 1.00874,1.79322 1.739008,2.198128 0.588943,0.32655 0.612115,0.329015 0.958614,0.101992 0.195297,-0.127949 0.468826,-0.498002 0.607837,-0.822313 0.139016,-0.32431 0.342129,-0.67903 0.451364,-0.788261 0.10923,-0.109241 0.258559,-0.310631 0.331831,-0.447549 0.234886,-0.438878 0.59058,-0.542962 0.926354,-0.271056 0.291037,0.235667 0.306267,0.235619 0.561218,-0.0017 0.144112,-0.134288 0.295175,-0.242273 0.335647,-0.239978 0.170462,0.0097 0.481264,0.348912 0.63229,0.69018 0.522112,1.179733 -0.272946,2.61929 -1.869471,3.384998 -0.742618,0.356166 -0.88204,0.377208 -2.49952,0.377305 -1.907422,1.18e-4 -2.677567,-0.161904 -3.857912,-0.811608 -0.962929,-0.53003 -1.708498,-1.358456 -2.267154,-2.519094 -1.170962,-2.432736 -1.17096,-4.369123 1.2e-5,-7.334392 0.260117,-0.658699 0.529603,-1.270966 0.598853,-1.360588 0.06926,-0.08963 0.297121,-0.524957 0.506367,-0.967412 0.354225,-0.7489815 1.044971,-1.758633 1.355155,-1.9807824 0.304202,-0.2178649 -0.124595,-0.076571 -0.823224,0.2713007 -2.239077,1.1148445 -3.92884,2.6137657 -5.973401,5.2987717 -0.261246,0.343074 -0.474988,0.65161 -0.474988,0.685633 0,0.03402 -0.196256,0.372682 -0.436123,0.752581 -1.276514,2.021688 -2.845883,6.562935 -3.409644,9.866388 -0.604314,3.541111 -0.663019,4.266216 -0.663267,8.192566 -2.64e-4,5.14068 0.323833,7.667807 1.437306,11.20526 0.287984,0.914931 1.113978,2.844794 1.323762,3.092897 0.09622,0.113764 0.174997,0.245675 0.174997,0.292972 0,0.09288 0.791805,1.423751 0.911362,1.531851 0.03989,0.03592 0.249273,0.327241 0.465358,0.647071 1.124225,1.664076 4.172268,4.149955 6.250926,5.098039 2.49545,1.138186 5.050118,1.57672 6.948669,1.192806 z"
       id="path1-7" />
  </g>
</svg>
