<?xml version="1.0" encoding="UTF-8" standalone="no"?>
<svg
   width="64"
   height="64"
   version="1.1"
   id="svg73"
   sodipodi:docname="steam_icon_750130.svg"
   inkscape:version="1.4.2 (ebf0e940d0, 2025-05-08)"
   xmlns:inkscape="http://www.inkscape.org/namespaces/inkscape"
   xmlns:sodipodi="http://sodipodi.sourceforge.net/DTD/sodipodi-0.dtd"
   xmlns="http://www.w3.org/2000/svg"
   xmlns:svg="http://www.w3.org/2000/svg"
   xmlns:rdf="http://www.w3.org/1999/02/22-rdf-syntax-ns#"
   xmlns:cc="http://creativecommons.org/ns#"
   xmlns:dc="http://purl.org/dc/elements/1.1/">
  <metadata
     id="metadata77">
    <rdf:RDF>
      <cc:Work
         rdf:about="">
        <dc:format>image/svg+xml</dc:format>
        <dc:type
           rdf:resource="http://purl.org/dc/dcmitype/StillImage" />
      </cc:Work>
    </rdf:RDF>
  </metadata>
  <sodipodi:namedview
     pagecolor="#f5f7fa"
     bordercolor="#666666"
     borderopacity="1"
     objecttolerance="10"
     gridtolerance="10"
     guidetolerance="10"
     inkscape:pageopacity="0"
     inkscape:pageshadow="2"
     inkscape:window-width="1377"
     inkscape:window-height="886"
     id="namedview75"
     showgrid="false"
     inkscape:zoom="6.2890624"
     inkscape:cx="47.622361"
     inkscape:cy="45.396274"
     inkscape:window-x="147"
     inkscape:window-y="75"
     inkscape:window-maximized="0"
     inkscape:current-layer="g877"
     inkscape:document-rotation="0"
     inkscape:pagecheckerboard="0"
     inkscape:showpageshadow="2"
     inkscape:deskcolor="#d1d1d1" />
  <defs
     id="defs29">
    <linearGradient
       id="b"
       x1="399.57"
       x2="399.57"
       y1="545.8"
       y2="517.8"
       gradientTransform="matrix(2.1429,0,0,2.1429,-825.86391,-1107.6662)"
       gradientUnits="userSpaceOnUse">
      <stop
         stop-color="#3889e9"
         offset="0"
         id="stop2" />
      <stop
         stop-color="#5ea5fb"
         offset="1"
         id="stop4" />
    </linearGradient>
  </defs>
  <circle
     cx="32.516094"
     cy="31.877844"
     r="0"
     fill="url(#b)"
     stroke-width="1.5715"
     id="circle41"
     style="fill:url(#b)" />
  <g
     aria-label="GZ"
     transform="matrix(1.2212657,0,0,0.81882264,0.4960938,-0.1661539)"
     id="text93"
     style="font-weight:bold;font-size:11.5263px;line-height:1.25;font-family:sans-serif;-inkscape-font-specification:'sans-serif Bold';fill:#f2f2f2;stroke-width:0.288159" />
  <g
     id="g877"
     transform="matrix(1.1,0,0,1.1,-3.1845928,-3.2065454)">
    <path
       style="fill:#dfdfdf;fill-opacity:1;stroke:none;stroke-width:0.820405;stroke-dasharray:none;stroke-opacity:0.6"
       d="m 57.441349,51.99148 c 0,-0.291415 0.383206,-0.977514 0.85149,-1.524654 1.750154,-2.044654 1.735601,-5.391864 -0.03208,-7.348324 -0.471836,-0.522272 -1.071009,-1.017187 -1.331522,-1.099877 -0.86359,-0.274077 -1.022054,-0.978495 -0.441498,-1.962438 0.947702,-1.606231 0.5386,-4.512384 -0.843836,-5.994436 -0.608692,-0.652561 -2.173779,-1.518627 -2.744331,-1.518627 -0.300221,0 -0.345416,-0.21226 -0.227846,-1.070361 0.259682,-1.894431 -1.167672,-4.202 -3.111454,-5.030252 -1.036133,-0.4415 -3.138874,-0.485358 -3.894141,-0.08114 -0.670195,0.35867 -1.075904,0.148748 -1.815178,-0.939397 -1.830809,-2.695043 -6.702752,-2.287887 -7.853239,0.656323 -0.267037,0.683359 -0.717457,0.699345 -1.762002,0.06252 -1.03827,-0.633043 -2.468778,-0.626799 -3.797769,0.01702 -1.32111,0.639543 -2.150165,1.925022 -2.207888,3.423437 -0.04271,1.110223 -0.04716,1.115511 -0.99284,1.180855 -1.503709,0.103851 -1.969581,0.261079 -2.769601,0.934236 -0.452589,0.380877 -0.81288,0.968805 -0.909609,1.484419 -0.177643,0.946912 -0.692433,1.332992 -1.777405,1.332992 -0.397018,0 -1.003595,0.221682 -1.347993,0.492598 -0.780688,0.614085 -1.00516,0.613461 -2.28534,-0.0068 -0.865096,-0.418773 -1.14425,-0.452784 -1.740124,-0.212261 -0.990133,0.399725 -1.6393,0.317409 -3.02144,-0.383049 C 11.66996,33.534812 10.258673,31.825653 9.6623753,29.895083 9.0786823,28.005281 9.0029737,24.450432 9.5063172,22.56882 10.593,18.50711 13.327147,16.042667 16.746876,16.042667 c 1.286803,0 3.286688,0.618048 4.119423,1.27308 1.877493,1.476827 2.124146,5.119871 0.478989,7.074982 -1.004986,1.194364 -2.481347,1.618846 -4.603548,1.32364 -0.980747,-0.136439 -1.866288,-0.200707 -1.967891,-0.142896 -0.501257,0.285212 -0.09991,1.110263 0.843977,1.73491 0.922616,0.610548 1.246413,0.68075 3.140034,0.68075 2.494137,0 3.536866,-0.414736 5.113236,-2.033373 1.531348,-1.572559 2.118916,-3.339318 1.996069,-6.001954 -0.08203,-1.778178 -0.227911,-2.388431 -0.894638,-3.742759 -0.955267,-1.940416 -2.484096,-3.372551 -4.436475,-4.155891 -1.160272,-0.465527 -1.860079,-0.558711 -4.222931,-0.56233 -2.682601,-0.0042 -2.920471,0.03743 -4.503795,0.787456 -3.3297576,1.577189 -5.7433031,4.69439 -6.8616675,8.862138 -0.7633937,2.844876 -0.762466,8.070815 0.00386,10.775939 1.0292721,3.642635 2.9034205,6.413504 5.5949635,8.271924 1.798414,1.241754 5.252969,2.451236 7.026486,2.460062 0.992125,0.0051 1.751078,0.141593 2.052353,0.369491 0.696085,0.52648 1.937088,0.443619 2.73302,-0.182389 0.556398,-0.43772 0.978593,-0.536049 2.159611,-0.503314 1.449646,0.03984 2.879538,-0.422758 2.879538,-0.932276 0,-0.401792 2.517989,-1.876446 3.519263,-2.061043 0.656005,-0.121307 1.293877,-0.532228 2.156679,-1.390524 0.673648,-0.670117 1.331498,-1.218389 1.461888,-1.218389 0.130359,0 0.599935,0.221266 1.043429,0.491616 0.443496,0.270396 1.221944,0.492026 1.729891,0.492544 l 0.923537,8.2e-4 V 39.0773 c 0,2.21835 1.084047,4.121385 2.737982,4.806459 0.822421,0.340652 0.830586,0.377769 0.340495,1.550841 -0.951423,2.27706 -0.11708,4.901979 1.969248,6.194897 l 1.192175,0.738833 6.484851,0.07648 6.484855,0.07648 z m -3.39448,-2.347056 C 53.22926,49.071751 52.76209,47.982169 52.76209,46.647935 c 0,-2.590613 2.217939,-3.952887 3.780451,-2.321982 1.410842,1.472612 1.359703,3.832609 -0.109846,5.069156 -0.861282,0.724728 -1.597271,0.801636 -2.385832,0.24938 z m -10.157071,-0.32289 c -0.92933,-0.929315 -1.1408,-1.848566 -0.709124,-3.082583 0.483797,-1.38304 1.602799,-2.026232 2.82396,-1.623211 1.086615,0.358564 1.829741,1.491055 1.831005,2.790243 7.72e-4,0.75061 -0.173524,1.122614 -0.836424,1.785501 -1.085772,1.085781 -2.110833,1.128649 -3.109417,0.130052 z M 41.362734,41.71462 c -1.153806,-1.044204 -1.456838,-2.560477 -0.750641,-3.755981 0.697786,-1.181266 1.810915,-1.493808 3.045817,-0.855217 1.833347,0.948059 1.961489,3.957169 0.211122,4.957119 -0.704598,0.402619 -1.854634,0.243736 -2.506285,-0.345879 z m -21.461016,0.292605 c -0.212829,-0.212828 -0.387035,-0.481881 -0.387035,-0.598048 0,-0.450248 0.807189,-0.985112 1.48658,-0.985112 0.469967,0 0.806047,0.174658 0.987155,0.513047 0.569418,1.063951 -1.19042,1.966468 -2.08673,1.070159 z m -4.445279,-0.751131 c -0.783633,-0.783617 0.0028,-1.777235 1.171551,-1.483467 0.737197,0.185028 1.092201,1.004914 0.660413,1.525177 -0.394761,0.475616 -1.336065,0.454133 -1.831964,-0.04196 z m 8.99507,-0.202786 c -0.473246,-0.570225 -0.202755,-1.45393 0.55599,-1.816471 1.377047,-0.65798 2.574023,0.930346 1.348169,1.788966 -0.685775,0.480273 -1.518376,0.492438 -1.904168,0.02691 z m 26.668229,-1.450714 c -0.782178,-0.716813 -0.910916,-0.997662 -1.011098,-2.205821 -0.107426,-1.295868 -0.06491,-1.43433 0.66505,-2.164305 0.67142,-0.671411 0.902395,-0.759988 1.660962,-0.636883 1.533472,0.248862 2.543935,1.588355 2.543935,3.372344 0,0.794896 -0.156814,1.173108 -0.719884,1.736168 -0.994608,0.994616 -1.977582,0.96282 -3.138965,-0.101475 z M 11.132873,39.17688 c -0.361496,-0.675528 0.118785,-1.266793 0.947606,-1.166532 0.817922,0.09902 1.233469,0.764744 0.801901,1.28476 -0.459431,0.553581 -1.424891,0.488305 -1.749507,-0.118289 z m 17.856762,-1.715647 c -0.645211,-0.712945 -0.249482,-1.712895 0.900813,-2.2762 1.606582,-0.786742 2.963867,0.324967 2.067321,1.693271 -0.725739,1.10762 -2.226551,1.402366 -2.968134,0.582955 z m -8.100264,0.104247 c -0.500924,-0.192278 -0.502445,-1.180124 -0.0024,-1.680028 0.457963,-0.457962 1.60809,-0.509891 2.026522,-0.09148 0.97835,0.978335 -0.566732,2.33066 -2.023961,1.771457 z M 16.29692,37.459939 c -0.561413,-0.300477 -0.623335,-1.040432 -0.121812,-1.456646 0.491674,-0.408058 1.633618,-0.226909 1.960263,0.310884 0.220216,0.362705 0.16208,0.535873 -0.310247,0.92354 -0.666016,0.546582 -0.867328,0.575812 -1.528121,0.222195 z m -3.940424,-0.492566 c -0.619417,-0.331543 -0.610607,-1.133547 0.01629,-1.468994 0.994244,-0.532101 1.967105,0.643435 1.18213,1.428394 -0.361892,0.361877 -0.584002,0.369382 -1.198312,0.04142 z M 8.6874581,36.863676 c -0.334092,-0.402621 -0.1482789,-0.87276 0.3448687,-0.87276 0.4428479,0 0.9567107,0.657834 0.7611175,0.974318 C 9.5669741,37.331717 9.0354079,37.282898 8.6874658,36.86366 Z M 36.525442,35.384399 c -2.382016,-1.231781 -0.211518,-4.285154 2.300119,-3.235735 1.412513,0.590205 1.798103,1.89515 0.822291,2.782935 -0.97214,0.884448 -1.999573,1.033443 -3.12241,0.452838 z M 25.228348,34.956638 c -0.479252,-0.479292 -0.339875,-1.40645 0.308966,-2.055283 0.756599,-0.756598 1.706627,-0.781126 2.213725,-0.05705 0.503312,0.718587 0.484312,0.981831 -0.127058,1.759057 -0.55561,0.706351 -1.851529,0.897507 -2.395647,0.35339 z M 9.461802,34.326107 c -0.058949,-0.414424 0.043934,-0.551663 0.4165205,-0.551663 0.5894665,0 0.8692545,0.372541 0.6699095,0.891968 -0.210687,0.548953 -0.9945195,0.303378 -1.0863629,-0.340289 z M 7.1008565,34.197612 C 6.9149715,33.902988 6.9278277,33.702791 7.146534,33.483995 7.5556084,33.074906 8.3209414,33.806322 8.0963192,34.391597 7.913431,34.868195 7.4691853,34.781638 7.1007936,34.197609 Z M 46.921168,33.116908 c -1.46758,-0.696419 -2.213302,-2.531141 -1.540083,-3.789075 0.310886,-0.580908 1.493506,-1.218064 2.258534,-1.21682 0.824753,0.0014 2.085096,0.849961 2.524614,1.699888 0.716909,1.386355 0.408365,2.680523 -0.79464,3.333379 -0.879171,0.477069 -1.397518,0.47132 -2.448425,-0.02691 z M 30.979893,30.667071 c -1.181502,-0.453406 -0.880671,-2.018248 0.515358,-2.6807 1.07555,-0.51041 2.140944,-0.08854 2.255133,0.892994 0.131928,1.133853 -1.585866,2.242271 -2.770491,1.787706 z m 7.36381,-1.930038 c -0.827486,-0.827488 -0.774759,-1.671216 0.153241,-2.452069 0.858288,-0.722205 1.872171,-0.81852 2.91881,-0.277269 0.750271,0.388052 1.002721,0.824874 1.002721,1.735313 0,1.496288 -2.871915,2.196885 -4.074762,0.994032 z"
       id="path1-47" />
  </g>
</svg>
