<?xml version="1.0" encoding="UTF-8" standalone="no"?>
<svg
   width="64"
   height="64"
   version="1.1"
   id="svg73"
   sodipodi:docname="strawberry.svg"
   inkscape:version="1.4.2 (ebf0e940d0, 2025-05-08)"
   xmlns:inkscape="http://www.inkscape.org/namespaces/inkscape"
   xmlns:sodipodi="http://sodipodi.sourceforge.net/DTD/sodipodi-0.dtd"
   xmlns="http://www.w3.org/2000/svg"
   xmlns:svg="http://www.w3.org/2000/svg"
   xmlns:rdf="http://www.w3.org/1999/02/22-rdf-syntax-ns#"
   xmlns:cc="http://creativecommons.org/ns#"
   xmlns:dc="http://purl.org/dc/elements/1.1/">
  <metadata
     id="metadata77">
    <rdf:RDF>
      <cc:Work
         rdf:about="">
        <dc:format>image/svg+xml</dc:format>
        <dc:type
           rdf:resource="http://purl.org/dc/dcmitype/StillImage" />
      </cc:Work>
    </rdf:RDF>
  </metadata>
  <sodipodi:namedview
     pagecolor="#f5f7fa"
     bordercolor="#666666"
     borderopacity="1"
     objecttolerance="10"
     gridtolerance="10"
     guidetolerance="10"
     inkscape:pageopacity="0"
     inkscape:pageshadow="2"
     inkscape:window-width="1377"
     inkscape:window-height="886"
     id="namedview75"
     showgrid="false"
     inkscape:zoom="6.2890624"
     inkscape:cx="46.82733"
     inkscape:cy="41.739131"
     inkscape:window-x="0"
     inkscape:window-y="49"
     inkscape:window-maximized="0"
     inkscape:current-layer="g877"
     inkscape:document-rotation="0"
     inkscape:pagecheckerboard="0"
     inkscape:showpageshadow="2"
     inkscape:deskcolor="#d1d1d1" />
  <defs
     id="defs29" />
  <circle
     cx="32.516094"
     cy="31.877844"
     r="0"
     fill="url(#b)"
     stroke-width="1.5715"
     id="circle41"
     style="fill:url(#b)" />
  <g
     aria-label="GZ"
     transform="matrix(1.2212657,0,0,0.81882264,0.4960938,-0.1661539)"
     id="text93"
     style="font-weight:bold;font-size:11.5263px;line-height:1.25;font-family:sans-serif;-inkscape-font-specification:'sans-serif Bold';fill:#f2f2f2;stroke-width:0.288159" />
  <g
     id="g877"
     transform="matrix(1.1,0,0,1.1,-3.1845928,-3.2065454)">
    <path
       style="fill:#dfdfdf;fill-opacity:1;stroke-width:0.210892"
       d="m 16.934004,55.657919 c -1.729994,-1.478737 -2.835654,-3.370055 -4.125787,-7.057104 -1.523507,-4.35411 -2.25924,-8.469076 -2.242343,-12.541717 0.01665,-4.019478 0.779484,-7.999843 2.257219,-11.777829 1.435984,-3.671268 3.40703,-6.215329 6.151086,-7.939346 2.453696,-1.541586 4.76294,-2.100098 7.497602,-1.813443 0.721059,0.07564 0.744385,0.08297 0.794902,0.251868 0.03521,0.117394 0.185097,0.272519 0.460093,0.476906 0.224098,0.167251 0.714325,0.617438 1.088293,1.002303 0.562559,0.578252 0.786176,0.765124 1.292706,1.079063 0.535211,0.338438 0.598405,0.382971 0.486968,0.421835 -1.994864,0.668245 -3.369565,1.048 -4.860057,1.342654 -0.590678,0.116777 -1.503296,0.307414 -2.027992,0.423624 -0.524694,0.116245 -1.069047,0.236253 -1.209717,0.266748 -0.307107,0.06632 -0.484715,0.311893 -0.409475,0.565817 0.08642,0.292074 0.512248,0.559262 0.977503,0.611326 2.405345,0.278744 5.27839,0.519989 6.511441,0.546792 l 0.326147,0.0069 -0.169624,0.15348 c -0.461658,0.417715 -1.767902,2.651964 -2.273873,3.88953 -0.447059,1.093796 -0.513919,2.136751 -0.151212,2.357824 0.189381,0.115409 0.849395,-0.118496 1.561296,-0.553055 1.733292,-1.058271 3.099561,-1.729881 4.513362,-2.218621 0.784418,-0.27118 1.887049,-0.505605 2.03807,-0.43333 0.169769,0.08212 0.246033,0.212813 0.714945,1.236625 0.437998,0.956559 0.927411,1.949147 2.143862,4.348099 0.519325,1.024179 0.786899,1.441398 1.120079,1.746596 0.345533,0.316649 0.598926,0.423289 0.837004,0.352872 0.231492,-0.06856 0.289988,-0.262533 0.420414,-1.402846 0.06039,-0.528577 0.146428,-1.142742 0.190989,-1.364837 0.209208,-1.041933 0.876003,-3.231756 0.992769,-3.260052 0.02505,-0.006 0.22521,0.185684 0.439087,0.42736 0.213765,0.241863 0.606683,0.665552 0.873027,0.941755 0.26628,0.276293 1.009774,1.069579 1.652038,1.763099 0.642153,0.693611 1.436387,1.549484 1.764833,1.902128 0.32845,0.352528 0.700067,0.777827 0.82598,0.944868 0.270947,0.359468 0.467104,0.439812 0.845987,0.348247 0.636007,-0.154303 0.654344,-0.678806 0.101288,-2.903917 -0.353357,-1.421834 -0.521115,-2.369098 -0.586716,-3.312586 -0.03718,-0.534648 -0.02451,-0.621942 0.102465,-0.708056 0.07963,-0.05419 0.174677,-0.0799 0.211344,-0.05755 0.03665,0.02235 0.324419,0.289696 0.639807,0.594407 3.434595,3.317002 5.005492,6.997472 4.646428,10.886278 -0.129972,1.407979 -0.422022,2.539739 -1.053663,4.082949 -0.423398,1.033699 -2.381236,4.245418 -3.124421,5.106672 -2.428296,2.859849 -5.269977,5.056643 -9.260476,7.15895 -2.979602,1.569822 -5.782748,2.647144 -8.790778,3.378613 -4.434117,1.078225 -8.492732,1.227114 -11.117249,0.407813 -0.889145,-0.277386 -2.404524,-1.106278 -3.082382,-1.685524 z m 5.160785,-4.511647 c 0.353838,-0.07432 0.692406,-0.374586 0.888837,-0.788308 0.221037,-0.466252 0.330418,-1.081692 0.263254,-1.484168 -0.04697,-0.281495 -0.07869,-0.330573 -0.248016,-0.383159 -0.300767,-0.09352 -0.85844,0.0909 -1.20627,0.398878 -0.434026,0.384256 -0.813799,1.025922 -0.788673,1.329762 0.04684,0.546235 0.612172,1.026708 1.089879,0.92663 z m 11.023167,-0.137114 c 0.461983,0.0348 0.655225,-0.09289 0.999327,-0.661256 0.501814,-0.843096 0.62315,-1.846939 0.237548,-2.081954 -0.213,-0.129825 -0.726331,0.02107 -1.225102,0.359783 -0.32488,0.220798 -0.447959,0.350784 -0.666228,0.703318 -0.329094,0.519877 -0.35134,0.815357 -0.112482,1.193146 0.199717,0.316054 0.428615,0.461372 0.767633,0.486108 z M 18.256791,40.957954 c 0.652433,-0.02139 1.177341,-0.997061 1.134189,-2.108297 -0.02637,-0.678552 -0.265459,-0.895516 -0.828717,-0.752117 -0.491153,0.125033 -1.354194,1.156284 -1.387298,1.657654 -0.04469,0.676848 0.446925,1.223416 1.081731,1.202662 z m 8.21448,2.667694 c 0.295543,-0.02124 0.660024,-0.254915 0.82836,-0.531113 0.198838,-0.326247 0.443731,-1.50408 0.378403,-1.819891 -0.04617,-0.224 -0.102355,-0.301807 -0.308732,-0.42759 -0.477625,-0.2911 -0.790646,-0.156365 -1.39348,0.599884 -0.591596,0.741879 -0.678437,1.225852 -0.31803,1.767363 0.197677,0.29703 0.472105,0.435493 0.813384,0.411506 z M 16.789946,33.01026 c 0.615335,0.06437 1.157278,-0.670709 1.241192,-1.683537 0.06487,-0.782949 -0.07173,-1.203723 -0.398361,-1.227066 -0.542264,-0.03869 -0.868055,0.174535 -1.372126,0.898303 -0.321106,0.460959 -0.375068,0.574006 -0.414562,0.87586 -0.03659,0.276265 -0.0094,0.399876 0.133307,0.609599 0.21789,0.320721 0.482579,0.49215 0.810467,0.52645 z m 17.834499,9.943245 c 0.508625,-0.101343 0.878236,-0.585686 1.058485,-1.38669 0.06168,-0.275233 0.103928,-0.646264 0.09341,-0.824625 -0.0327,-0.556627 -0.198222,-0.709336 -0.692328,-0.638687 -0.402521,0.05752 -0.637461,0.224629 -1.096511,0.779716 -0.430511,0.520816 -0.568265,0.912307 -0.465052,1.305697 0.122066,0.459762 0.682121,0.848364 1.102197,0.764601 z m -10.37309,-7.216756 c 0.387806,-0.05944 0.609968,-0.217493 0.842571,-0.599295 0.234317,-0.384655 0.527185,-1.140164 0.560477,-1.446476 0.02515,-0.232343 -0.12353,-0.525263 -0.328402,-0.645867 -0.33359,-0.19128 -0.724831,-0.07119 -1.288812,0.405403 -0.798996,0.67521 -0.961434,1.006013 -0.785294,1.598926 0.09199,0.309558 0.137948,0.369138 0.415792,0.538487 0.252857,0.15411 0.3639,0.182555 0.583668,0.148828 z m 16.71938,9.800465 c 0.353067,0.02486 0.642043,-0.159023 0.891037,-0.566914 0.440776,-0.713675 0.536984,-2.075767 0.169132,-2.299967 -0.155108,-0.09453 -0.686262,0.06533 -1.053048,0.317085 -0.848065,0.582251 -1.202894,1.503435 -0.79984,2.076734 0.17613,0.250472 0.516473,0.453926 0.795157,0.469069 z M 21.166786,26.915499 c 0.33991,0.02385 0.58506,-0.132819 0.887194,-0.56696 0.558422,-0.802334 0.747304,-1.801121 0.39333,-2.07961 -0.202962,-0.159263 -0.819041,-0.01406 -1.35228,0.31937 -0.371043,0.232044 -0.476372,0.335851 -0.689813,0.679622 -0.224838,0.360053 -0.249117,0.440401 -0.218945,0.721726 0.01805,0.173808 0.07493,0.372425 0.126246,0.441296 0.148456,0.198989 0.622613,0.468347 0.854281,0.484503 z m 12.783217,7.244769 c 0.554789,-0.147185 0.705241,-0.341785 0.920926,-1.191108 0.09303,-0.366949 0.168706,-0.782753 0.167802,-0.924176 -0.0018,-0.311646 -0.186811,-0.584122 -0.465307,-0.685778 -0.415492,-0.151743 -0.701852,0.0055 -1.28571,0.705659 -0.47486,0.569922 -0.586426,0.90537 -0.45852,1.383488 0.104577,0.391021 0.145735,0.447909 0.474772,0.656638 0.222778,0.147811 0.293549,0.148262 0.645978,0.05525 z m 10.090066,4.367527 c 0.312455,-0.0223 0.723601,-0.332619 0.836867,-0.631724 0.186025,-0.490743 0.09661,-1.652115 -0.160891,-2.093851 -0.176872,-0.303648 -0.529157,-0.419082 -0.791358,-0.259801 -0.281884,0.171345 -0.786991,0.990001 -0.915607,1.482544 -0.208352,0.803066 0.306582,1.55385 1.030259,1.502086 z M 28.036215,26.580241 c 0.247496,-0.927837 1.552426,-3.399797 2.141081,-4.055923 0.71993,-0.802698 0.815709,-1.065891 0.539691,-1.486817 -0.202417,-0.308801 -0.451917,-0.399289 -1.106168,-0.401687 -0.575147,-0.0021 -1.913982,-0.09739 -3.849172,-0.274042 l -1.197841,-0.109351 1.038537,-0.212755 c 2.025234,-0.414948 4.851805,-1.214166 5.529617,-1.563535 0.300599,-0.15493 0.485881,-0.45205 0.48576,-0.778971 -2.49e-4,-0.400565 -0.103092,-0.518536 -0.863,-0.989442 -0.582468,-0.367236 -0.794883,-0.533484 -1.398322,-1.141925 -0.390632,-0.393181 -0.83768,-0.816145 -0.993748,-0.939464 -0.186351,-0.147299 -0.326988,-0.327071 -0.40949,-0.524511 -0.0691,-0.165038 -0.239373,-0.450878 -0.378339,-0.634589 -0.138943,-0.184016 -0.262433,-0.364718 -0.274285,-0.402296 -0.0499,-0.155431 5.132263,1.48329 7.075101,2.237744 1.149067,0.446241 2.868716,1.498 3.600934,2.206923 0.486616,0.467302 0.546468,0.508966 0.78823,0.545964 0.361956,0.05505 0.641764,-0.12413 0.827963,-0.53041 0.283785,-0.619519 0.721519,-2.817755 0.772866,-3.88145 0.0084,-0.168706 0.02691,-0.548698 0.0417,-0.84398 C 40.4808,11.33047 40.35757,9.4420958 40.079646,7.7792108 39.918345,6.8138994 39.952375,6.4727604 40.230149,6.2699039 c 0.344582,-0.2517315 0.897702,-0.085365 1.114411,0.3351664 0.123144,0.2387185 0.395653,1.9232467 0.504531,3.1177576 0.156091,1.7130841 0.121641,3.5603271 -0.09583,5.1311751 -0.113244,0.818505 -0.257374,1.475523 -0.69818,3.183196 -0.09777,0.378191 -0.105952,0.56864 -0.03421,0.797847 0.08668,0.27722 0.121028,0.314395 0.432904,0.470083 0.254264,0.127417 0.500394,0.175934 0.987431,0.197852 1.627475,0.07243 2.94689,0.481686 4.39124,1.361982 1.057558,0.644555 1.510313,1.031782 3.507733,2.997977 0.461989,0.454453 1.033263,0.990406 1.26989,1.190588 0.236659,0.200025 0.421471,0.377645 0.411069,0.394002 -0.05739,0.0741 -2.077966,-0.210836 -2.993227,-0.427325 -0.850971,-0.201366 -1.133806,-0.204573 -1.611135,-0.01841 -0.546136,0.213001 -0.619615,0.420729 -0.540932,1.529834 0.07087,0.998386 0.193808,1.736068 0.5579,3.346579 0.254906,1.127524 0.316365,1.517487 0.225599,1.430595 -0.06986,-0.06393 -0.659251,-0.701269 -1.312567,-1.412314 -1.434202,-1.561126 -3.498158,-3.773624 -3.791861,-4.064721 -0.454067,-0.449955 -1.017119,-0.462069 -1.377581,-0.02929 -0.433781,0.520594 -1.261587,3.486754 -1.381861,4.950875 -0.04149,0.504133 -0.06243,0.495727 -0.378182,-0.152308 -0.111223,-0.228087 -0.367173,-0.727282 -0.568917,-1.109405 -0.608138,-1.151667 -1.085777,-2.11761 -1.729491,-3.497525 -0.745317,-1.597642 -0.845608,-1.764762 -1.181819,-1.969675 -0.386013,-0.235262 -0.755917,-0.233557 -1.77424,0.0087 -1.2656,0.300958 -2.391135,0.743304 -3.879271,1.524594 -0.603185,0.316711 -1.892971,1.060039 -1.926082,1.110025 -0.0115,0.01738 -0.105787,0.06614 -0.207631,0.105204 l -0.185292,0.07133 z"
       id="path1" />
  </g>
</svg>
