<?xml version="1.0" encoding="UTF-8" standalone="no"?>
<svg
   width="64"
   height="64"
   version="1.1"
   id="svg73"
   sodipodi:docname="sublime-text.svg"
   inkscape:version="1.4.2 (ebf0e940d0, 2025-05-08)"
   xmlns:inkscape="http://www.inkscape.org/namespaces/inkscape"
   xmlns:sodipodi="http://sodipodi.sourceforge.net/DTD/sodipodi-0.dtd"
   xmlns="http://www.w3.org/2000/svg"
   xmlns:svg="http://www.w3.org/2000/svg"
   xmlns:rdf="http://www.w3.org/1999/02/22-rdf-syntax-ns#"
   xmlns:cc="http://creativecommons.org/ns#"
   xmlns:dc="http://purl.org/dc/elements/1.1/">
  <metadata
     id="metadata77">
    <rdf:RDF>
      <cc:Work
         rdf:about="">
        <dc:format>image/svg+xml</dc:format>
        <dc:type
           rdf:resource="http://purl.org/dc/dcmitype/StillImage" />
      </cc:Work>
    </rdf:RDF>
  </metadata>
  <sodipodi:namedview
     pagecolor="#f5f7fa"
     bordercolor="#666666"
     borderopacity="1"
     objecttolerance="10"
     gridtolerance="10"
     guidetolerance="10"
     inkscape:pageopacity="0"
     inkscape:pageshadow="2"
     inkscape:window-width="1377"
     inkscape:window-height="886"
     id="namedview75"
     showgrid="false"
     inkscape:zoom="6.2890624"
     inkscape:cx="46.986336"
     inkscape:cy="40.467081"
     inkscape:window-x="12"
     inkscape:window-y="50"
     inkscape:window-maximized="0"
     inkscape:current-layer="g877"
     inkscape:document-rotation="0"
     inkscape:pagecheckerboard="0"
     inkscape:showpageshadow="2"
     inkscape:deskcolor="#d1d1d1" />
  <defs
     id="defs29" />
  <circle
     cx="32.516094"
     cy="31.877844"
     r="0"
     fill="url(#b)"
     stroke-width="1.5715"
     id="circle41"
     style="fill:url(#b)" />
  <g
     aria-label="GZ"
     transform="matrix(1.2212657,0,0,0.81882264,0.4960938,-0.1661539)"
     id="text93"
     style="font-weight:bold;font-size:11.5263px;line-height:1.25;font-family:sans-serif;-inkscape-font-specification:'sans-serif Bold';fill:#f2f2f2;stroke-width:0.288159" />
  <g
     id="g877"
     transform="matrix(1.1,0,0,1.1,-3.1845928,-3.2065454)">
    <path
       id="path8"
       style="fill:#dfdfdf;fill-opacity:1;stroke:none;stroke-width:0.799012;stroke-dasharray:none;stroke-opacity:0.6"
       d="M 51.826063,4.7524177 32.811906,10.694184 c -10.458154,3.267888 -19.052665,5.955084 -19.096742,5.969297 -0.04409,0.01435 4.455352,1.730381 9.998885,3.814338 5.543532,2.083959 10.177211,3.766957 10.29422,3.741766 0.116995,-0.02526 4.161089,-1.278711 8.987732,-2.788178 l 8.774998,-2.745628 0.02781,-6.965428 z M 12.148381,17.617064 v 6.942902 6.940403 l 19.704938,7.398432 c 10.83803,4.069173 19.764449,7.401701 19.837588,7.405928 0.105083,0.0068 0.1327,-1.438587 0.1327,-6.892843 V 32.511521 L 51.53079,32.391368 c -0.16097,-0.06484 -9.087382,-3.415313 -19.83766,-7.445985 z m 17.957944,22.120189 -8.952692,2.798191 -8.952696,2.798183 -0.02753,6.962927 -0.02748,6.962929 19.014153,-5.94177 c 10.458175,-3.2679 19.052753,-5.955116 19.096748,-5.969294 0.04408,-0.01406 -4.473168,-1.730649 -10.036439,-3.816851 z" />
  </g>
</svg>
