<?xml version="1.0" encoding="UTF-8" standalone="no"?>
<svg
   width="64"
   height="64"
   version="1.1"
   viewBox="0 0 16.933 16.933"
   id="svg7"
   sodipodi:docname="system-lock-screen.svg"
   inkscape:version="1.4.2 (ebf0e940d0, 2025-05-08)"
   xmlns:inkscape="http://www.inkscape.org/namespaces/inkscape"
   xmlns:sodipodi="http://sodipodi.sourceforge.net/DTD/sodipodi-0.dtd"
   xmlns="http://www.w3.org/2000/svg"
   xmlns:svg="http://www.w3.org/2000/svg"
   xmlns:rdf="http://www.w3.org/1999/02/22-rdf-syntax-ns#"
   xmlns:cc="http://creativecommons.org/ns#"
   xmlns:dc="http://purl.org/dc/elements/1.1/">
  <sodipodi:namedview
     id="namedview7"
     pagecolor="#9c4444"
     bordercolor="#000000"
     borderopacity="0.25"
     inkscape:showpageshadow="2"
     inkscape:pageopacity="0.0"
     inkscape:pagecheckerboard="0"
     inkscape:deskcolor="#d1d1d1"
     inkscape:zoom="6.15625"
     inkscape:cx="15.756345"
     inkscape:cy="26.639594"
     inkscape:window-width="1226"
     inkscape:window-height="669"
     inkscape:window-x="124"
     inkscape:window-y="131"
     inkscape:window-maximized="0"
     inkscape:current-layer="svg7"
     showgrid="false" />
  <defs
     id="defs2" />
  <metadata
     id="metadata2">
    <rdf:RDF>
      <cc:Work
         rdf:about="">
        <dc:format>image/svg+xml</dc:format>
        <dc:type
           rdf:resource="http://purl.org/dc/dcmitype/StillImage" />
      </cc:Work>
    </rdf:RDF>
  </metadata>
  <path
     style="fill:#dfdfdf;fill-opacity:1;stroke-width:1.20957"
     d="m 8.466499,0.12830409 c -2.6940553,0 -4.8629169,2.14695541 -4.8629169,4.81380161 V 7.349006 H 2.3878527 c -0.6735143,0 -1.2157292,0.5367384 -1.2157292,1.2034495 v 7.2207015 c 0,0.666717 0.5422149,1.203448 1.2157292,1.203448 H 14.545148 c 0.673515,0 1.215728,-0.536731 1.215728,-1.203448 V 8.5524555 c 0,-0.6667111 -0.542213,-1.2034495 -1.215728,-1.2034495 H 13.32942 V 4.9421057 c 0,-2.6668462 -2.16886,-4.81380161 -4.862921,-4.81380161 z m 0,2.40690051 c 1.3470289,0 2.43146,1.0734774 2.43146,2.4069011 V 7.349006 H 6.035041 V 4.9421057 c 0,-1.3334237 1.0844308,-2.4069011 2.431458,-2.4069011 z"
     id="path4-6" />
</svg>
