<?xml version="1.0" encoding="UTF-8" standalone="no"?>
<svg
   width="64"
   height="64"
   version="1.1"
   viewBox="0 0 16.933 16.933"
   id="svg7"
   sodipodi:docname="system-log-out.svg"
   inkscape:version="1.4.2 (ebf0e940d0, 2025-05-08)"
   xmlns:inkscape="http://www.inkscape.org/namespaces/inkscape"
   xmlns:sodipodi="http://sodipodi.sourceforge.net/DTD/sodipodi-0.dtd"
   xmlns="http://www.w3.org/2000/svg"
   xmlns:svg="http://www.w3.org/2000/svg"
   xmlns:rdf="http://www.w3.org/1999/02/22-rdf-syntax-ns#"
   xmlns:cc="http://creativecommons.org/ns#"
   xmlns:dc="http://purl.org/dc/elements/1.1/">
  <sodipodi:namedview
     id="namedview7"
     pagecolor="#9c4444"
     bordercolor="#000000"
     borderopacity="0.25"
     inkscape:showpageshadow="2"
     inkscape:pageopacity="0.0"
     inkscape:pagecheckerboard="0"
     inkscape:deskcolor="#d1d1d1"
     inkscape:zoom="6.15625"
     inkscape:cx="15.756345"
     inkscape:cy="26.639594"
     inkscape:window-width="1226"
     inkscape:window-height="669"
     inkscape:window-x="427"
     inkscape:window-y="205"
     inkscape:window-maximized="0"
     inkscape:current-layer="svg7"
     showgrid="false" />
  <defs
     id="defs2" />
  <metadata
     id="metadata2">
    <rdf:RDF>
      <cc:Work
         rdf:about="">
        <dc:format>image/svg+xml</dc:format>
        <dc:type
           rdf:resource="http://purl.org/dc/dcmitype/StillImage" />
      </cc:Work>
    </rdf:RDF>
  </metadata>
  <path
     style="fill:#dfdfdf;fill-opacity:1;stroke-width:0.846639"
     d="M 7.6777006,2.5423265 C 7.5007224,2.5472217 7.3242584,2.5598474 7.1485522,2.5803607 5.742903,2.7444876 4.3960175,3.4057731 3.3965595,4.5316385 1.3976422,6.7833677 1.409243,10.193266 3.4238536,12.430999 5.4384453,14.668734 8.831467,15.041871 11.284171,13.29419 12.206891,12.638702 11.220682,11.256663 10.299464,11.914243 8.5378089,13.169512 6.1316914,12.906344 4.6847035,11.299094 3.2377156,9.6918432 3.2291399,7.2734065 4.6648627,5.6561029 6.1005822,4.0388006 8.505105,3.7574886 10.275488,5.0004405 11.205112,5.6786823 12.204388,4.2593484 11.251107,3.6147035 10.172728,2.8575946 8.9165325,2.5080909 7.6777006,2.5423265 Z M 11.218032,5.5031409 V 7.61978 H 8.678121 c -0.4675853,0 -0.8466372,0.3790607 -0.8466372,0.8466553 0,0.4675944 0.3790519,0.8466547 0.8466372,0.8466547 h 2.539911 v 2.116641 l 3.809869,-2.9632957 z"
     id="path4-3" />
</svg>
