<?xml version="1.0" encoding="UTF-8" standalone="no"?>
<svg
   width="64"
   height="64"
   version="1.1"
   id="svg73"
   sodipodi:docname="system-users.svg"
   inkscape:version="1.4.2 (ebf0e940d0, 2025-05-08)"
   xmlns:inkscape="http://www.inkscape.org/namespaces/inkscape"
   xmlns:sodipodi="http://sodipodi.sourceforge.net/DTD/sodipodi-0.dtd"
   xmlns="http://www.w3.org/2000/svg"
   xmlns:svg="http://www.w3.org/2000/svg"
   xmlns:rdf="http://www.w3.org/1999/02/22-rdf-syntax-ns#"
   xmlns:cc="http://creativecommons.org/ns#"
   xmlns:dc="http://purl.org/dc/elements/1.1/">
  <metadata
     id="metadata77">
    <rdf:RDF>
      <cc:Work
         rdf:about="">
        <dc:format>image/svg+xml</dc:format>
        <dc:type
           rdf:resource="http://purl.org/dc/dcmitype/StillImage" />
      </cc:Work>
    </rdf:RDF>
  </metadata>
  <sodipodi:namedview
     pagecolor="#f5f7fa"
     bordercolor="#666666"
     borderopacity="1"
     objecttolerance="10"
     gridtolerance="10"
     guidetolerance="10"
     inkscape:pageopacity="0"
     inkscape:pageshadow="2"
     inkscape:window-width="1377"
     inkscape:window-height="886"
     id="namedview75"
     showgrid="false"
     inkscape:zoom="6.2890624"
     inkscape:cx="47.622361"
     inkscape:cy="45.396274"
     inkscape:window-x="264"
     inkscape:window-y="75"
     inkscape:window-maximized="0"
     inkscape:current-layer="g877"
     inkscape:document-rotation="0"
     inkscape:pagecheckerboard="0"
     inkscape:showpageshadow="2"
     inkscape:deskcolor="#d1d1d1" />
  <defs
     id="defs29" />
  <circle
     cx="32.516094"
     cy="31.877844"
     r="0"
     fill="url(#b)"
     stroke-width="1.5715"
     id="circle41"
     style="fill:url(#b)" />
  <g
     aria-label="GZ"
     transform="matrix(1.2212657,0,0,0.81882264,0.4960938,-0.1661539)"
     id="text93"
     style="font-weight:bold;font-size:11.5263px;line-height:1.25;font-family:sans-serif;-inkscape-font-specification:'sans-serif Bold';fill:#f2f2f2;stroke-width:0.288159" />
  <g
     id="g877"
     transform="matrix(1.1,0,0,1.1,-3.1845928,-3.2065454)">
    <g
       id="g6"
       transform="matrix(0.37721655,0,0,0.37721655,-15.920509,-16.277768)"
       style="fill:#dfdfdf;fill-opacity:1">
      <path
         d="m 144.857,99.7144 c 0,7.2966 -2.762,13.9476 -7.299,18.9646 3.63,6.74 10.751,11.321 18.942,11.321 11.874,0 21.5,-9.626 21.5,-21.5 0,-11.8746 -9.626,-21.5005 -21.5,-21.5005 -4.846,0 -9.317,1.6033 -12.913,4.3084 0.826,2.6557 1.27,5.4791 1.27,8.4065 z"
         fill="#ffffff"
         id="path2"
         style="fill:#dfdfdf;fill-opacity:1" />
      <path
         d="m 147.636,143.538 c 14.719,5.798 24.65,16.482 24.65,32.462 v 3 H 200 v -6.667 c 0,-20 -19.846,-29.333 -43,-29.333 -3.199,0 -6.335,0.178 -9.364,0.538 z"
         fill="#ffffff"
         id="path3-7"
         style="fill:#dfdfdf;fill-opacity:1" />
      <path
         d="M 138,96.5 C 138,112.24 125.24,125 109.5,125 93.7599,125 81,112.24 81,96.5 81,80.7599 93.7599,68 109.5,68 125.24,68 138,80.7599 138,96.5 Z"
         fill="#ffffff"
         id="path4"
         style="fill:#dfdfdf;fill-opacity:1" />
      <path
         d="M 54,179.481 C 54,153.926 79.6154,142 109.5,142 c 29.885,0 55.5,11.926 55.5,37.481 0,3.327 0,8.519 0,8.519 H 54 c 0,0 0,-5.192 0,-8.519 z"
         fill="#ffffff"
         id="path5"
         style="fill:#dfdfdf;fill-opacity:1" />
    </g>
  </g>
</svg>
