<?xml version="1.0" encoding="UTF-8" standalone="no"?>
<svg
   width="64"
   height="64"
   version="1.1"
   viewBox="0 0 16.933 16.933"
   id="svg7"
   sodipodi:docname="system-shutdown.svg"
   inkscape:version="1.4.2 (ebf0e940d0, 2025-05-08)"
   xmlns:inkscape="http://www.inkscape.org/namespaces/inkscape"
   xmlns:sodipodi="http://sodipodi.sourceforge.net/DTD/sodipodi-0.dtd"
   xmlns="http://www.w3.org/2000/svg"
   xmlns:svg="http://www.w3.org/2000/svg"
   xmlns:rdf="http://www.w3.org/1999/02/22-rdf-syntax-ns#"
   xmlns:cc="http://creativecommons.org/ns#"
   xmlns:dc="http://purl.org/dc/elements/1.1/">
  <sodipodi:namedview
     id="namedview7"
     pagecolor="#9c4444"
     bordercolor="#000000"
     borderopacity="0.25"
     inkscape:showpageshadow="2"
     inkscape:pageopacity="0.0"
     inkscape:pagecheckerboard="0"
     inkscape:deskcolor="#d1d1d1"
     inkscape:zoom="6.15625"
     inkscape:cx="15.756345"
     inkscape:cy="26.639594"
     inkscape:window-width="1226"
     inkscape:window-height="669"
     inkscape:window-x="427"
     inkscape:window-y="205"
     inkscape:window-maximized="0"
     inkscape:current-layer="svg7"
     showgrid="false" />
  <defs
     id="defs2" />
  <metadata
     id="metadata2">
    <rdf:RDF>
      <cc:Work
         rdf:about="">
        <dc:format>image/svg+xml</dc:format>
        <dc:type
           rdf:resource="http://purl.org/dc/dcmitype/StillImage" />
      </cc:Work>
    </rdf:RDF>
  </metadata>
  <path
     style="fill:#dfdfdf;fill-opacity:1;stroke-width:1.10521"
     d="M 8.4503126,0.17744293 A 1.1053189,1.1014609 0 0 0 7.3612929,1.2934443 v 6.6085855 a 1.1053189,1.1014609 0 1 0 2.2104171,0 V 1.2934443 A 1.1053189,1.1014609 0 0 0 8.4503126,0.17744293 Z M 4.7407399,2.3889395 A 1.1053861,1.1063381 0 0 0 4.1514393,2.5842935 C 1.3360015,4.4778181 0.07990181,7.9999683 1.0603092,11.250034 c 0.9804091,3.250067 3.9731819,5.487761 7.3651791,5.505533 3.3919947,0.01793 6.4090997,-2.188213 7.4234597,-5.427822 1.014359,-3.2396135 -0.205002,-6.7741137 -3.000469,-8.6970423 a 1.1053861,1.1063381 0 1 0 -1.251992,1.8218674 c 2.00332,1.3780332 2.870413,3.8919506 2.143496,6.2135619 -0.726917,2.321607 -2.871812,3.889598 -5.3026227,3.876857 C 6.0065468,14.530257 3.8794189,12.940187 3.1768265,10.611086 2.4742348,8.2819842 3.3663731,5.7771514 5.3840058,4.4201917 A 1.1053861,1.1063381 0 0 0 4.7407399,2.3889395 Z"
     id="path4" />
</svg>
