<?xml version="1.0" encoding="UTF-8" standalone="no"?>
<svg
   width="64"
   height="64"
   version="1.1"
   viewBox="0 0 16.933 16.933"
   id="svg7"
   sodipodi:docname="system-reboot.svg"
   inkscape:version="1.4.2 (ebf0e940d0, 2025-05-08)"
   xmlns:inkscape="http://www.inkscape.org/namespaces/inkscape"
   xmlns:sodipodi="http://sodipodi.sourceforge.net/DTD/sodipodi-0.dtd"
   xmlns="http://www.w3.org/2000/svg"
   xmlns:svg="http://www.w3.org/2000/svg"
   xmlns:rdf="http://www.w3.org/1999/02/22-rdf-syntax-ns#"
   xmlns:cc="http://creativecommons.org/ns#"
   xmlns:dc="http://purl.org/dc/elements/1.1/">
  <sodipodi:namedview
     id="namedview7"
     pagecolor="#9c4444"
     bordercolor="#000000"
     borderopacity="0.25"
     inkscape:showpageshadow="2"
     inkscape:pageopacity="0.0"
     inkscape:pagecheckerboard="0"
     inkscape:deskcolor="#d1d1d1"
     inkscape:zoom="6.15625"
     inkscape:cx="15.756345"
     inkscape:cy="26.639594"
     inkscape:window-width="1226"
     inkscape:window-height="669"
     inkscape:window-x="427"
     inkscape:window-y="205"
     inkscape:window-maximized="0"
     inkscape:current-layer="svg7"
     showgrid="false" />
  <defs
     id="defs2" />
  <metadata
     id="metadata2">
    <rdf:RDF>
      <cc:Work
         rdf:about="">
        <dc:format>image/svg+xml</dc:format>
        <dc:type
           rdf:resource="http://purl.org/dc/dcmitype/StillImage" />
      </cc:Work>
    </rdf:RDF>
  </metadata>
  <path
     style="fill:#dfdfdf;fill-opacity:1;stroke-width:0.913397"
     d="m 8.4789906,2.0727327 a 0.91348675,0.91348675 0 1 0 -0.00354,1.8267905 c 1.2767151,0.00217 2.4940574,0.5383618 3.3574234,1.4789162 0.776873,0.8463263 1.197361,1.9487287 1.197049,3.088061 h -1.821454 l 1.370094,1.8267926 1.370091,1.826791 1.37009,-1.826791 1.370098,-1.8267927 H 14.856691 C 14.856496,6.8723085 14.264515,5.3258125 13.177983,4.1421443 11.969997,2.8261683 10.265329,2.0758501 8.4789906,2.0727327 Z M 2.9843458,4.8129188 1.6142528,6.63971 0.24415992,8.4665003 H 2.0763022 c 2.041e-4,1.5941917 0.5921876,3.1406887 1.6787212,4.3243567 1.2079837,1.315973 2.9126522,2.066291 4.6989911,2.069409 a 0.91348675,0.91348675 0 1 0 0.00354,-1.826788 C 7.1808557,13.031252 5.9635109,12.49512 5.1001408,11.554562 4.3232653,10.708236 3.9027824,9.6058333 3.9030934,8.4665003 H 5.7245325 L 4.3544394,6.63971 Z"
     id="path4-3" />
</svg>
