<?xml version="1.0" encoding="UTF-8" standalone="no"?>
<svg
   width="64"
   height="64"
   version="1.1"
   id="svg73"
   sodipodi:docname="Thunar.svg"
   inkscape:version="1.4.2 (ebf0e940d0, 2025-05-08)"
   xmlns:inkscape="http://www.inkscape.org/namespaces/inkscape"
   xmlns:sodipodi="http://sodipodi.sourceforge.net/DTD/sodipodi-0.dtd"
   xmlns="http://www.w3.org/2000/svg"
   xmlns:svg="http://www.w3.org/2000/svg"
   xmlns:rdf="http://www.w3.org/1999/02/22-rdf-syntax-ns#"
   xmlns:cc="http://creativecommons.org/ns#"
   xmlns:dc="http://purl.org/dc/elements/1.1/">
  <metadata
     id="metadata77">
    <rdf:RDF>
      <cc:Work
         rdf:about="">
        <dc:format>image/svg+xml</dc:format>
        <dc:type
           rdf:resource="http://purl.org/dc/dcmitype/StillImage" />
      </cc:Work>
    </rdf:RDF>
  </metadata>
  <sodipodi:namedview
     pagecolor="#f5f7fa"
     bordercolor="#666666"
     borderopacity="1"
     objecttolerance="10"
     gridtolerance="10"
     guidetolerance="10"
     inkscape:pageopacity="0"
     inkscape:pageshadow="2"
     inkscape:window-width="1377"
     inkscape:window-height="886"
     id="namedview75"
     showgrid="false"
     inkscape:zoom="6.2890624"
     inkscape:cx="47.622361"
     inkscape:cy="45.396274"
     inkscape:window-x="499"
     inkscape:window-y="75"
     inkscape:window-maximized="0"
     inkscape:current-layer="g877"
     inkscape:document-rotation="0"
     inkscape:pagecheckerboard="0"
     inkscape:showpageshadow="2"
     inkscape:deskcolor="#d1d1d1" />
  <defs
     id="defs29">
    <linearGradient
       id="b"
       x1="399.57"
       x2="399.57"
       y1="545.8"
       y2="517.8"
       gradientTransform="matrix(2.1429,0,0,2.1429,-825.86391,-1107.6662)"
       gradientUnits="userSpaceOnUse">
      <stop
         stop-color="#3889e9"
         offset="0"
         id="stop2" />
      <stop
         stop-color="#5ea5fb"
         offset="1"
         id="stop4" />
    </linearGradient>
  </defs>
  <circle
     cx="32.516094"
     cy="31.877844"
     r="0"
     fill="url(#b)"
     stroke-width="1.5715"
     id="circle41"
     style="fill:url(#b)" />
  <g
     aria-label="GZ"
     transform="matrix(1.2212657,0,0,0.81882264,0.4960938,-0.1661539)"
     id="text93"
     style="font-weight:bold;font-size:11.5263px;line-height:1.25;font-family:sans-serif;-inkscape-font-specification:'sans-serif Bold';fill:#f2f2f2;stroke-width:0.288159" />
  <g
     id="g877"
     transform="matrix(1.1,0,0,1.1,-3.1845928,-3.2065454)">
    <path
       style="fill:#dfdfdf;fill-opacity:1;stroke:none;stroke-width:0.703207;stroke-dasharray:none;stroke-opacity:0.6"
       d="M 8.6632913,53.578766 C 7.6948653,53.276748 6.6605597,52.359501 6.1318756,51.333801 5.7781261,50.647481 5.7653848,49.966226 5.7694201,31.9692 5.7735341,14.221925 5.7908976,13.278691 6.1287224,12.549029 6.3239897,12.127224 6.7319279,11.549424 7.0352241,11.26503 c 1.1335226,-1.062925 1.475858,-1.112613 7.6649269,-1.112613 3.650124,0 5.945096,0.0771 6.405926,0.215149 0.500811,0.150036 1.260149,0.761143 2.509409,2.019489 1.215331,1.224158 2.157377,1.987256 2.929703,2.373193 l 1.138368,0.568853 14.205234,2.92e-4 c 13.145161,2.82e-4 14.25431,0.0253 14.862665,0.335532 0.361555,0.184388 0.836117,0.578804 1.054514,0.876517 0.394401,0.537647 0.397087,0.65322 0.397087,17.159719 0,13.19418 -0.05206,16.764129 -0.250407,17.325582 -0.137845,0.388989 -0.578941,1.045429 -0.980122,1.45886 -1.424148,1.46746 0.129985,1.382493 -25.02232,1.368121 C 13.531213,53.843054 9.3533466,53.793972 8.6635234,53.578667 Z m 40.5023357,-4.627421 0.50547,-0.50547 -0.0034,-8.266095 -0.0032,-8.266145 -2.632151,-2.827996 -2.632141,-2.828 h -5.618191 -5.618175 l -0.470152,0.507328 -0.470159,0.507313 v 10.53183 10.531847 l 0.560431,0.560392 0.560438,0.56039 h 7.657753 7.657753 z"
       id="path10-0" />
  </g>
</svg>
