<?xml version="1.0" encoding="UTF-8" standalone="no"?>
<svg
   width="64"
   height="64"
   version="1.1"
   id="svg73"
   sodipodi:docname="timeshift.svg"
   inkscape:version="1.4.2 (ebf0e940d0, 2025-05-08)"
   xmlns:inkscape="http://www.inkscape.org/namespaces/inkscape"
   xmlns:sodipodi="http://sodipodi.sourceforge.net/DTD/sodipodi-0.dtd"
   xmlns="http://www.w3.org/2000/svg"
   xmlns:svg="http://www.w3.org/2000/svg"
   xmlns:rdf="http://www.w3.org/1999/02/22-rdf-syntax-ns#"
   xmlns:cc="http://creativecommons.org/ns#"
   xmlns:dc="http://purl.org/dc/elements/1.1/">
  <metadata
     id="metadata77">
    <rdf:RDF>
      <cc:Work
         rdf:about="">
        <dc:format>image/svg+xml</dc:format>
        <dc:type
           rdf:resource="http://purl.org/dc/dcmitype/StillImage" />
      </cc:Work>
    </rdf:RDF>
  </metadata>
  <sodipodi:namedview
     pagecolor="#f5f7fa"
     bordercolor="#666666"
     borderopacity="1"
     objecttolerance="10"
     gridtolerance="10"
     guidetolerance="10"
     inkscape:pageopacity="0"
     inkscape:pageshadow="2"
     inkscape:window-width="1377"
     inkscape:window-height="886"
     id="namedview75"
     showgrid="false"
     inkscape:zoom="6.2890624"
     inkscape:cx="47.622361"
     inkscape:cy="45.396274"
     inkscape:window-x="264"
     inkscape:window-y="75"
     inkscape:window-maximized="0"
     inkscape:current-layer="g877"
     inkscape:document-rotation="0"
     inkscape:pagecheckerboard="0"
     inkscape:showpageshadow="2"
     inkscape:deskcolor="#d1d1d1" />
  <defs
     id="defs29" />
  <circle
     cx="32.516094"
     cy="31.877844"
     r="0"
     fill="url(#b)"
     stroke-width="1.5715"
     id="circle41"
     style="fill:url(#b)" />
  <g
     aria-label="GZ"
     transform="matrix(1.2212657,0,0,0.81882264,0.4960938,-0.1661539)"
     id="text93"
     style="font-weight:bold;font-size:11.5263px;line-height:1.25;font-family:sans-serif;-inkscape-font-specification:'sans-serif Bold';fill:#f2f2f2;stroke-width:0.288159" />
  <g
     id="g877"
     transform="matrix(1.1,0,0,1.1,-3.1845928,-3.2065454)">
    <path
       style="fill:#dfdfdf;fill-opacity:1;stroke-width:1.65635"
       d="m 34.316258,55.28155 c -6.491667,-2.342147 -9.893661,-1.827976 -12.561848,-1.743216 -2.834802,0.244924 -5.578159,0.977615 -8.357909,1.891082 -1.523301,0.444176 -1.525313,0.421066 -0.102047,-1.170373 4.380229,-3.832882 9.466881,-6.968663 14.545572,-7.994506 3.687196,0 6.126878,-2.952757 5.338503,-5.404517 -2.960833,-4.820754 -11.130625,-11.113686 -11.130625,-12.828631 0,-1.435437 2.506631,-5.080108 5.783273,-8.540464 1.449876,-1.531167 3.400608,-2.755785 2.948364,-3.172289 -0.942363,-0.867852 -9.979769,-2.532602 -14.202939,-2.532602 -3.373085,0 -6.346336,2.272408 -6.346336,4.500069 0,0.618008 0.413592,2.334348 1.729869,3.814084 l 2.393239,2.690418 c -1.583003,1.805322 -2.259251,3.762221 -4.9819196,3.762221 -3.9049577,0 -3.9049577,-3.161498 -3.8843042,-6.236656 C 6.0385376,14.785824 17.53289,6.1721936 28.404696,7.2529789 c 6.876518,0.684842 12.904161,1.0711818 19.487171,1.5640192 3.662479,0.1807003 5.958522,-0.1373614 9.393507,-1.4383933 2.489217,-0.9428187 0.901774,2.0905085 -2.824684,5.3974852 -4.482108,3.977571 -7.134003,4.984339 -14.313074,4.322638 -5.369671,-0.494928 -6.838812,0.549181 -8.068977,3.826026 -0.976222,2.600422 1.413599,5.078818 6.484405,10.370973 2.500486,2.609625 3.378343,4.295202 3.361006,5.944573 -0.01547,1.476027 -0.681498,2.923052 -2.62229,4.977387 -1.711172,1.811278 -4.015029,3.613041 -3.77029,4.003895 0.767855,1.226321 5.851799,4.004059 8.622703,4.004059 1.460498,0 5.54117,-0.917201 7.180561,-1.742713 2.773024,-1.396357 3.950076,-1.383774 3.950076,0.04249 0,1.129262 -10.052577,8.338849 -15.044427,8.325796 -0.90807,-0.0027 -3.573811,-0.721715 -5.924149,-1.569741 z"
       id="path3" />
  </g>
</svg>
