<?xml version="1.0" encoding="UTF-8" standalone="no"?>
<svg
   width="64"
   height="64"
   version="1.1"
   id="svg73"
   sodipodi:docname="tools-report-bug.svg"
   inkscape:version="1.4.2 (ebf0e940d0, 2025-05-08)"
   xmlns:inkscape="http://www.inkscape.org/namespaces/inkscape"
   xmlns:sodipodi="http://sodipodi.sourceforge.net/DTD/sodipodi-0.dtd"
   xmlns="http://www.w3.org/2000/svg"
   xmlns:svg="http://www.w3.org/2000/svg"
   xmlns:rdf="http://www.w3.org/1999/02/22-rdf-syntax-ns#"
   xmlns:cc="http://creativecommons.org/ns#"
   xmlns:dc="http://purl.org/dc/elements/1.1/">
  <metadata
     id="metadata77">
    <rdf:RDF>
      <cc:Work
         rdf:about="">
        <dc:format>image/svg+xml</dc:format>
        <dc:type
           rdf:resource="http://purl.org/dc/dcmitype/StillImage" />
      </cc:Work>
    </rdf:RDF>
  </metadata>
  <sodipodi:namedview
     pagecolor="#f5f7fa"
     bordercolor="#666666"
     borderopacity="1"
     objecttolerance="10"
     gridtolerance="10"
     guidetolerance="10"
     inkscape:pageopacity="0"
     inkscape:pageshadow="2"
     inkscape:window-width="1377"
     inkscape:window-height="886"
     id="namedview75"
     showgrid="false"
     inkscape:zoom="6.2890624"
     inkscape:cx="28.859628"
     inkscape:cy="17.570187"
     inkscape:window-x="264"
     inkscape:window-y="75"
     inkscape:window-maximized="0"
     inkscape:current-layer="g877"
     inkscape:document-rotation="0"
     inkscape:pagecheckerboard="0"
     inkscape:showpageshadow="2"
     inkscape:deskcolor="#d1d1d1" />
  <defs
     id="defs29" />
  <circle
     cx="32.516094"
     cy="31.877844"
     r="0"
     fill="url(#b)"
     stroke-width="1.5715"
     id="circle41"
     style="fill:url(#b)" />
  <g
     aria-label="GZ"
     transform="matrix(1.2212657,0,0,0.81882264,0.4960938,-0.1661539)"
     id="text93"
     style="font-weight:bold;font-size:11.5263px;line-height:1.25;font-family:sans-serif;-inkscape-font-specification:'sans-serif Bold';fill:#f2f2f2;stroke-width:0.288159" />
  <g
     id="g877"
     transform="matrix(1.1,0,0,1.1,-3.1845928,-3.2065454)">
    <path
       id="path7"
       style="fill:#dfdfdf;fill-opacity:1;stroke:none;stroke-width:0.659375;stroke-dasharray:none;stroke-opacity:0.6"
       d="m 53.557297,8.9187251 c -0.826862,0 -1.602199,0.3923436 -2.058524,1.0416373 -0.115991,0.1649146 -0.842293,1.9655536 -1.677512,4.1566636 l -1.47215,3.864704 -2.58554,1.135658 c -1.421045,0.624575 -2.607909,1.135712 -2.637505,1.135662 -0.02979,-5.9e-5 -0.112058,-0.200388 -0.183019,-0.445367 -0.187736,-0.647198 -0.842632,-1.938138 -1.276763,-2.513779 -0.521712,-0.691805 -1.195715,-1.393192 -1.825952,-1.900193 -0.474886,-0.382027 -0.561236,-0.48913 -0.767002,-0.96246 -0.505573,-1.163004 -1.332799,-2.128814 -2.469253,-2.877501 -3.203134,-2.1102028 -7.817768,-1.7004946 -10.443615,0.925351 -0.581409,0.581413 -1.005081,1.205616 -1.336069,1.966991 -0.215959,0.496784 -0.287782,0.584983 -0.809058,1.002052 -1.417268,1.133954 -2.717053,3.023157 -3.085333,4.485728 -0.06269,0.249018 -0.111151,0.322293 -0.197944,0.29691 -0.27174,-0.07949 -5.041391,-2.208347 -5.116648,-2.283689 C 15.56972,17.901323 14.888269,16.166524 14.098721,14.08981 13.309175,12.013092 12.598646,10.208553 12.520183,10.081598 12.285619,9.7020659 11.69285,9.2211789 11.258343,9.0572833 10.714632,8.8521883 9.8791445,8.8873916 9.3556776,9.1364613 8.8777749,9.3638434 8.35521,9.8987162 8.1235269,10.398304 c -0.156574,0.337564 -0.1901405,0.508989 -0.1880296,0.979785 0.00264,0.568679 0.00682,0.582422 1.5537984,4.634182 0.8534243,2.23478 1.6341233,4.270476 1.7344163,4.525316 0.224782,0.571229 0.570793,1.058952 0.927827,1.306377 0.196219,0.135941 4.212438,1.956959 5.554581,2.518741 0.04461,0.01874 0.322713,-0.328348 0.618551,-0.771954 1.162516,-1.743041 2.415517,-3.110409 3.226362,-3.515844 0.339459,-0.169733 0.536225,-0.215039 1.01443,-0.237524 0.946852,-0.04453 0.917314,-0.0647 5.430868,3.792951 3.867662,3.30562 3.960382,3.377205 4.099759,3.253577 0.670732,-0.59494 7.615184,-6.490848 7.900128,-6.707563 0.657069,-0.499727 1.395614,-0.679692 1.979357,-0.482462 0.431141,0.145635 0.865645,0.524937 1.751737,1.531532 0.988298,1.122692 1.414987,1.673327 1.984327,2.555849 0.309088,0.479154 0.426416,0.607031 0.519632,0.571544 0.715897,-0.272538 5.255142,-2.318306 5.477879,-2.469256 0.343144,-0.232593 0.619145,-0.547393 0.804121,-0.910507 0.07227,-0.14177 0.881472,-2.212887 1.796266,-4.604489 l 1.662641,-4.349664 v -0.640817 c 0.0012,-0.558888 -0.02146,-0.69324 -0.195464,-1.04659 C 55.363543,9.4875681 54.469952,8.9187141 53.55738,8.918713 Z M 35.203661,14.062592 c 0.659284,0.03232 1.410163,0.412742 2.043694,1.09112 1.579381,1.691195 1.845863,4.342325 0.512161,5.091913 -0.313219,0.176039 -0.897496,0.248325 -1.259368,0.15588 -0.4973,-0.12707 -1.063032,-0.474186 -1.521636,-0.932792 -1.558477,-1.55848 -1.966385,-4.098058 -0.816489,-5.077061 0.28514,-0.242772 0.646064,-0.348449 1.041638,-0.329073 z m -6.388389,0.03221 c 0.74176,0.0014 1.145844,0.271737 1.474623,0.989678 0.137258,0.299751 0.16316,0.469359 0.15836,1.068859 -0.01045,1.241144 -0.479318,2.328198 -1.417721,3.283277 -0.342567,0.348649 -0.64961,0.582317 -0.977315,0.74226 -0.51149,0.24963 -1.189642,0.344396 -1.576067,0.220177 -0.628036,-0.201942 -1.051466,-0.887592 -1.103491,-1.786418 -0.09835,-1.698874 1.040304,-3.635468 2.550895,-4.337282 0.303904,-0.141183 0.503925,-0.181362 0.890714,-0.180581 z m 12.581318,6.843644 c -0.06745,0.0077 -0.144478,0.04655 -0.279654,0.118737 -0.16325,0.08708 -2.271445,1.840963 -4.683636,3.899305 -2.412192,2.058338 -4.426915,3.743473 -4.478306,3.743473 -0.05145,0 -2.0593,-1.677386 -4.460989,-3.726152 -3.100838,-2.645225 -4.445087,-3.746236 -4.634138,-3.802878 -0.391998,-0.117443 -0.925394,0.146976 -1.526582,0.757109 -0.564524,0.572912 -1.730541,2.113103 -2.266373,2.993782 -1.598171,2.626742 -2.556233,5.619585 -2.840385,8.87497 -0.101123,1.158195 -0.04527,3.392769 0.113777,4.552527 0.658508,4.798994 2.768659,9.213299 5.913344,12.371022 2.456481,2.466684 5.470459,3.998164 8.486514,4.312543 1.648125,0.171753 3.384684,-0.02464 5.062219,-0.574087 0.845039,-0.276725 2.475647,-1.082446 3.278316,-1.618127 5.238376,-3.495892 8.659736,-10.345839 8.659736,-17.334264 0,-4.432279 -1.370428,-8.687278 -3.86223,-11.987511 -0.691458,-0.915799 -2.017782,-2.390151 -2.266389,-2.518721 -0.09038,-0.04682 -0.147845,-0.0694 -0.21524,-0.06184 z m 6.50963,7.328591 c -0.0077,0.0051 0.09359,0.349872 0.225002,0.764531 0.289105,0.911074 0.638332,2.545383 0.752167,3.518316 0.119645,1.023805 0.10087,0.995157 0.757083,1.101018 0.306264,0.04953 0.620578,0.115349 0.700212,0.14597 0.07957,0.03054 1.317796,1.135466 2.748843,2.456883 1.431038,1.321411 2.722999,2.486734 2.872557,2.588016 0.149584,0.101277 0.437412,0.244038 0.640787,0.316711 1.119365,0.399966 2.484998,-0.243595 3.02595,-1.425142 0.349207,-0.762691 0.209637,-1.794823 -0.336419,-2.48904 -0.07941,-0.100991 -1.515397,-1.447267 -3.191698,-2.993824 C 54.131741,30.433917 52.926462,29.372867 52.696198,29.25422 52.425875,29.11494 51.8061,28.971301 50.13046,28.662888 48.915045,28.439185 47.914002,28.261557 47.906132,28.267014 Z m -32.031033,0.06426 c -0.215737,0.01481 -1.076133,0.150084 -2.0808,0.329059 -1.671381,0.297783 -2.17136,0.414531 -2.513793,0.581459 -0.339708,0.165605 -1.072805,0.805964 -3.5628535,3.112544 -3.6592195,3.389613 -3.5659123,3.273085 -3.5653214,4.436247 3.061e-4,0.600168 0.022081,0.719726 0.1954654,1.049061 0.3744089,0.711497 0.9088879,1.157875 1.6156512,1.34844 0.1791877,0.04821 0.4603748,0.0889 0.6235034,0.09153 0.4055194,0.0068 1.1142115,-0.224013 1.4350348,-0.467633 0.2236069,-0.169821 4.2850981,-3.884792 5.1859331,-4.743045 0.26206,-0.249682 0.351211,-0.283889 0.962464,-0.390931 0.370467,-0.06482 0.683085,-0.127203 0.695256,-0.136087 0.01224,-0.0089 0.06857,-0.378626 0.126166,-0.823906 0.178388,-1.379435 0.406896,-2.456779 0.78927,-3.716252 0.104225,-0.343347 0.170441,-0.643562 0.145955,-0.668031 -0.0032,-0.0032 -0.02113,-0.0046 -0.05199,-0.0028 z m -0.823903,10.522783 -1.279165,1.076278 c -1.624042,1.365311 -1.899372,1.6368 -2.120391,2.088227 -0.647324,1.322131 -3.6271549,7.946463 -3.6939854,8.211873 -0.107129,0.425545 -0.045265,1.124735 0.1385329,1.546386 0.2661153,0.610561 0.8895612,1.173397 1.5315322,1.383079 0.1808433,0.05906 0.5219823,0.08715 0.8684443,0.07411 0.487485,-0.0184 0.634213,-0.05479 1.019371,-0.259879 0.779366,-0.415427 0.824608,-0.493916 2.686986,-4.57974 1.459459,-3.201826 1.739393,-3.761688 1.974424,-3.975984 L 16.449204,44.168516 16.100337,43.1343 c -0.400353,-1.182958 -0.675456,-2.23752 -0.895666,-3.441474 z m 33.802561,0.01514 c -0.0091,0.0139 -0.07587,0.361265 -0.14597,0.771948 -0.178369,1.045294 -0.538559,2.435413 -0.922866,3.565326 l -0.32671,0.959999 0.284589,0.249963 c 0.250939,0.221298 0.470592,0.660546 1.885341,3.76078 0.881014,1.930716 1.656603,3.61585 1.72205,3.74347 0.268253,0.523134 0.713775,0.925565 1.296484,1.170291 0.561958,0.236045 1.36784,0.211235 1.949664,-0.05906 1.088336,-0.506345 1.708439,-1.863295 1.345971,-2.946753 -0.154062,-0.460525 -3.683109,-8.148612 -3.864705,-8.419723 -0.15026,-0.224279 -3.181518,-2.853158 -3.223879,-2.795849 z" />
  </g>
</svg>
