<?xml version="1.0" encoding="UTF-8" standalone="no"?>
<svg
   width="64"
   height="64"
   version="1.1"
   id="svg73"
   sodipodi:docname="tor-browser-alpha.svg"
   inkscape:version="1.4.2 (ebf0e940d0, 2025-05-08)"
   xmlns:inkscape="http://www.inkscape.org/namespaces/inkscape"
   xmlns:sodipodi="http://sodipodi.sourceforge.net/DTD/sodipodi-0.dtd"
   xmlns="http://www.w3.org/2000/svg"
   xmlns:svg="http://www.w3.org/2000/svg"
   xmlns:rdf="http://www.w3.org/1999/02/22-rdf-syntax-ns#"
   xmlns:cc="http://creativecommons.org/ns#"
   xmlns:dc="http://purl.org/dc/elements/1.1/">
  <metadata
     id="metadata77">
    <rdf:RDF>
      <cc:Work
         rdf:about="">
        <dc:format>image/svg+xml</dc:format>
        <dc:type
           rdf:resource="http://purl.org/dc/dcmitype/StillImage" />
      </cc:Work>
    </rdf:RDF>
  </metadata>
  <sodipodi:namedview
     pagecolor="#f5f7fa"
     bordercolor="#666666"
     borderopacity="1"
     objecttolerance="10"
     gridtolerance="10"
     guidetolerance="10"
     inkscape:pageopacity="0"
     inkscape:pageshadow="2"
     inkscape:window-width="1377"
     inkscape:window-height="886"
     id="namedview75"
     showgrid="false"
     inkscape:zoom="6.2890624"
     inkscape:cx="47.622361"
     inkscape:cy="45.396274"
     inkscape:window-x="1"
     inkscape:window-y="75"
     inkscape:window-maximized="0"
     inkscape:current-layer="g877"
     inkscape:document-rotation="0"
     inkscape:pagecheckerboard="0"
     inkscape:showpageshadow="2"
     inkscape:deskcolor="#d1d1d1" />
  <defs
     id="defs29" />
  <circle
     cx="32.516094"
     cy="31.877844"
     r="0"
     fill="url(#b)"
     stroke-width="1.5715"
     id="circle41"
     style="fill:url(#b)" />
  <g
     aria-label="GZ"
     transform="matrix(1.2212657,0,0,0.81882264,0.4960938,-0.1661539)"
     id="text93"
     style="font-weight:bold;font-size:11.5263px;line-height:1.25;font-family:sans-serif;-inkscape-font-specification:'sans-serif Bold';fill:#f2f2f2;stroke-width:0.288159" />
  <g
     id="g877"
     transform="matrix(1.1,0,0,1.1,-3.1845928,-3.2065454)">
    <path
       style="fill:#dfdfdf;fill-opacity:1;stroke:none;stroke-width:0.0398299;stroke-opacity:0.5"
       d="M 29.357185,60.126676 C 22.60577,59.453872 16.514669,56.525242 11.790566,51.680525 7.4520105,47.231207 4.8653341,41.88579 3.9700529,35.519273 c -0.2000985,-1.422843 -0.2000985,-5.587239 0,-7.010079 0.4743458,-3.373214 1.2955369,-6.074136 2.7247287,-8.961756 1.5006052,-3.031909 3.1929772,-5.357227 5.6248944,-7.728608 4.426396,-4.3162183 9.835456,-6.9421243 16.081591,-7.8070546 1.278115,-0.1770137 4.486251,-0.2431817 5.909307,-0.1219063 5.112815,0.4356669 9.845284,2.173623 14.086093,5.1729927 2.498817,1.7673112 5.167481,4.5038552 6.922954,7.0990362 2.529818,3.739908 4.018965,7.669382 4.68254,12.356016 0.199788,1.410808 0.199788,5.581845 0,6.992653 -0.458526,3.237856 -1.262077,5.954257 -2.562521,8.661783 -1.385282,2.884086 -3.006343,5.198772 -5.258267,7.508182 -2.327229,2.386641 -4.656927,4.092846 -7.609115,5.572687 -2.833434,1.420324 -5.680438,2.294322 -9.006033,2.764745 -1.08866,0.153916 -5.057216,0.223576 -6.209037,0.108636 z m 5.449861,-4.022736 c 2.665004,-0.293585 5.174218,-1.021135 7.674056,-2.225158 2.414414,-1.162888 4.454813,-2.583294 6.331986,-4.407957 2.258672,-2.195522 3.663062,-4.13196 5.005383,-6.901639 1.658228,-3.42149 2.403025,-6.692911 2.403025,-10.554957 0,-3.862035 -0.744797,-7.133457 -2.403025,-10.554952 -1.322157,-2.72807 -2.735802,-4.688046 -4.915565,-6.815252 -1.230759,-1.2011 -2.211798,-1.997475 -3.584515,-2.909814 C 44.186073,10.981646 41.699299,9.7147097 40.483547,9.2709961 38.075753,8.392227 35.60016,7.9022276 32.88214,7.7664304 L 31.985962,7.721733 v 2.1887877 2.1887853 l 0.418224,2.74e-4 c 0.73099,4.74e-4 2.215717,0.16378 3.297849,0.362715 7.301908,1.342391 13.374646,6.894583 15.431428,14.10868 1.490628,5.228293 0.765374,10.857637 -2.001087,15.532724 -1.02107,1.725488 -2.415463,3.441035 -3.785845,4.657739 -3.558376,3.159404 -7.699241,4.877159 -12.384727,5.137551 l -0.975837,0.05399 v 2.176822 2.176843 l 0.896174,-0.04368 c 0.492897,-0.02537 1.359107,-0.09571 1.924906,-0.158136 z m -0.773915,-8.041253 c 5.425337,-0.707152 10.069325,-4.015112 12.465116,-8.879055 3.951484,-8.022243 0.628087,-17.792634 -7.38271,-21.704318 -1.995262,-0.974286 -4.655208,-1.636062 -6.576035,-1.636062 h -0.55354 v 2.219567 2.219563 l 0.776684,0.0551 c 2.101264,0.149312 4.063004,0.838938 5.874933,2.065272 0.932606,0.631201 2.333588,2.034989 2.97538,2.981343 1.443929,2.129137 2.17311,4.655232 2.051817,7.108018 -0.150004,3.032462 -1.305544,5.648672 -3.430809,7.767302 -2.018235,2.011951 -4.392949,3.128785 -7.232339,3.401365 l -1.015666,0.09745 v 2.213428 2.213421 H 32.5395 c 0.304455,0 0.976577,-0.05638 1.493625,-0.122598 z m 0.02395,-8.210774 c 2.765983,-0.695244 5.039684,-2.976715 5.786583,-5.806352 0.183893,-0.696868 0.210272,-0.951176 0.210272,-2.031332 0,-1.080148 -0.02641,-1.334457 -0.210272,-2.031329 -0.88143,-3.339469 -3.754217,-5.754651 -7.200497,-6.053569 l -0.657196,-0.05694 v 8.141906 8.141902 l 0.657189,-0.057 c 0.361458,-0.03138 0.997739,-0.142617 1.413966,-0.247235 z"
       id="path7" />
  </g>
</svg>
