<?xml version="1.0" encoding="UTF-8" standalone="no"?>
<svg
   width="64"
   height="64"
   version="1.1"
   id="svg73"
   sodipodi:docname="upscayl.svg"
   inkscape:version="1.4.2 (ebf0e940d0, 2025-05-08)"
   xmlns:inkscape="http://www.inkscape.org/namespaces/inkscape"
   xmlns:sodipodi="http://sodipodi.sourceforge.net/DTD/sodipodi-0.dtd"
   xmlns="http://www.w3.org/2000/svg"
   xmlns:svg="http://www.w3.org/2000/svg"
   xmlns:rdf="http://www.w3.org/1999/02/22-rdf-syntax-ns#"
   xmlns:cc="http://creativecommons.org/ns#"
   xmlns:dc="http://purl.org/dc/elements/1.1/">
  <metadata
     id="metadata77">
    <rdf:RDF>
      <cc:Work
         rdf:about="">
        <dc:format>image/svg+xml</dc:format>
        <dc:type
           rdf:resource="http://purl.org/dc/dcmitype/StillImage" />
      </cc:Work>
    </rdf:RDF>
  </metadata>
  <sodipodi:namedview
     pagecolor="#f5f7fa"
     bordercolor="#666666"
     borderopacity="1"
     objecttolerance="10"
     gridtolerance="10"
     guidetolerance="10"
     inkscape:pageopacity="0"
     inkscape:pageshadow="2"
     inkscape:window-width="1377"
     inkscape:window-height="886"
     id="namedview75"
     showgrid="false"
     inkscape:zoom="6.2890624"
     inkscape:cx="47.622361"
     inkscape:cy="45.396274"
     inkscape:window-x="264"
     inkscape:window-y="75"
     inkscape:window-maximized="0"
     inkscape:current-layer="g877"
     inkscape:document-rotation="0"
     inkscape:pagecheckerboard="0"
     inkscape:showpageshadow="2"
     inkscape:deskcolor="#d1d1d1" />
  <defs
     id="defs29" />
  <circle
     cx="32.516094"
     cy="31.877844"
     r="0"
     fill="url(#b)"
     stroke-width="1.5715"
     id="circle41"
     style="fill:url(#b)" />
  <g
     aria-label="GZ"
     transform="matrix(1.2212657,0,0,0.81882264,0.4960938,-0.1661539)"
     id="text93"
     style="font-weight:bold;font-size:11.5263px;line-height:1.25;font-family:sans-serif;-inkscape-font-specification:'sans-serif Bold';fill:#f2f2f2;stroke-width:0.288159" />
  <g
     id="g877"
     transform="matrix(1.1,0,0,1.1,-3.1845928,-3.2065454)">
    <path
       id="path8"
       style="fill:#dfdfdf;fill-opacity:1;stroke:none;stroke-width:0.781337;stroke-dasharray:none;stroke-opacity:0.6"
       d="m 31.703922,4.4484821 c -0.551581,0.017862 -0.907634,0.1777656 -1.36249,0.5604961 -1.059006,0.8910952 -1.055931,0.8600986 -1.059714,8.6633488 l -0.0035,7.010696 0.650607,-0.117116 c 0.810931,-0.145385 3.368491,-0.151806 4.137934,-0.01067 l 0.573113,0.104522 V 13.54096 c 0,-6.7904156 -0.0139,-7.1472833 -0.302771,-7.7135681 -0.405855,-0.7954067 -1.102599,-1.2648518 -2.005944,-1.3516543 -0.238179,-0.022867 -0.44332,-0.033035 -0.627181,-0.027059 z m 0.10274,17.2636199 c -1.793467,-0.0022 -3.316808,0.430196 -4.979576,1.412951 -3.250809,1.921336 -5.06904,5.085553 -5.066088,8.814733 0.0016,1.844712 0.258321,2.92626 1.108376,4.671395 1.262162,2.59119 4.100463,4.835673 6.868321,5.430139 3.413881,0.733221 6.97721,-0.318465 9.47255,-2.797071 0.858892,-0.853118 1.358533,-1.513797 1.81666,-2.40238 0.973467,-1.888147 1.187381,-2.77027 1.184073,-4.902083 -0.0033,-2.070215 -0.141768,-2.691921 -0.982228,-4.442513 -0.990637,-2.063425 -2.559309,-3.634809 -4.673196,-4.678601 -1.650185,-0.814827 -2.891933,-1.104266 -4.748897,-1.10657 z m -2.45104,5.230087 0.03958,4.718251 c 0.02225,2.5949 0.0084,4.804952 -0.03244,4.911093 -0.04073,0.106128 -0.137902,0.192834 -0.214463,0.192834 -0.07654,0 -0.88793,-0.524917 -1.804039,-1.166046 -3.580673,-2.505947 -4.653308,-3.333482 -4.653308,-3.593651 0,-0.274156 1.136486,-1.162442 4.673198,-3.656737 z m 5.340023,0.237888 c 0.606649,0.117237 6.507373,4.352298 6.646638,4.790345 0.05731,0.180911 -1.947933,1.728115 -4.885852,3.768477 -1.467062,1.018864 -1.670997,1.120664 -1.867113,0.924541 -0.182935,-0.182925 -0.120129,-9.367233 0.06488,-9.481558 0.0084,-0.005 0.02184,-0.0055 0.04139,-0.0018 z m -5.426529,16.135427 0.0433,7.190916 0.0433,7.192724 0.430736,0.65061 c 0.271342,0.409923 0.669197,0.759538 1.072333,0.942568 1.053254,0.478214 2.115191,0.321866 2.903397,-0.427082 0.90269,-0.857817 0.877693,-0.628812 0.877693,-8.400231 v -7.14766 l -0.677644,0.100958 c -0.874487,0.131143 -3.133555,0.13137 -4.009973,0 z" />
  </g>
</svg>
