<?xml version="1.0" encoding="UTF-8" standalone="no"?>
<svg
   width="64"
   height="64"
   version="1.1"
   id="svg73"
   sodipodi:docname="utilities-system-monitor.svg"
   inkscape:version="1.4.2 (ebf0e940d0, 2025-05-08)"
   xmlns:inkscape="http://www.inkscape.org/namespaces/inkscape"
   xmlns:sodipodi="http://sodipodi.sourceforge.net/DTD/sodipodi-0.dtd"
   xmlns="http://www.w3.org/2000/svg"
   xmlns:svg="http://www.w3.org/2000/svg"
   xmlns:rdf="http://www.w3.org/1999/02/22-rdf-syntax-ns#"
   xmlns:cc="http://creativecommons.org/ns#"
   xmlns:dc="http://purl.org/dc/elements/1.1/">
  <metadata
     id="metadata77">
    <rdf:RDF>
      <cc:Work
         rdf:about="">
        <dc:format>image/svg+xml</dc:format>
        <dc:type
           rdf:resource="http://purl.org/dc/dcmitype/StillImage" />
      </cc:Work>
    </rdf:RDF>
  </metadata>
  <sodipodi:namedview
     pagecolor="#f5f7fa"
     bordercolor="#666666"
     borderopacity="1"
     objecttolerance="10"
     gridtolerance="10"
     guidetolerance="10"
     inkscape:pageopacity="0"
     inkscape:pageshadow="2"
     inkscape:window-width="1377"
     inkscape:window-height="886"
     id="namedview75"
     showgrid="false"
     inkscape:zoom="6.2890624"
     inkscape:cx="47.622361"
     inkscape:cy="45.396274"
     inkscape:window-x="28"
     inkscape:window-y="56"
     inkscape:window-maximized="0"
     inkscape:current-layer="g877"
     inkscape:document-rotation="0"
     inkscape:pagecheckerboard="0"
     inkscape:showpageshadow="2"
     inkscape:deskcolor="#d1d1d1" />
  <defs
     id="defs29" />
  <circle
     cx="32.516094"
     cy="31.877844"
     r="0"
     fill="url(#b)"
     stroke-width="1.5715"
     id="circle41"
     style="fill:url(#b)" />
  <g
     aria-label="GZ"
     transform="matrix(1.2212657,0,0,0.81882264,0.4960938,-0.1661539)"
     id="text93"
     style="font-weight:bold;font-size:11.5263px;line-height:1.25;font-family:sans-serif;-inkscape-font-specification:'sans-serif Bold';fill:#f2f2f2;stroke-width:0.288159" />
  <g
     id="g877"
     transform="matrix(1.1,0,0,1.1,-3.1845928,-3.2065454)">
    <path
       style="color:#000000;fill:#dfdfdf;fill-opacity:1;stroke:none;stroke-width:0.852811;stroke-linecap:round;stroke-linejoin:round;stroke-dasharray:none;stroke-opacity:0.6"
       d="m 29.780848,11.122051 a 3.1444379,3.2720683 0 0 0 -3.261,2.215596 L 21.554119,28.732256 H 7.4726151 a 3.1441237,3.2717414 0 0 0 -3.143965,3.271584 3.1441237,3.2717414 0 0 0 3.143965,3.273398 H 23.81429 a 3.1444379,3.2720683 0 0 0 2.981527,-2.231945 l 1.502121,-4.658369 3.061876,21.717857 a 3.1444379,3.2720683 0 0 0 6.092325,0.567108 L 42.417855,35.277238 H 56.499363 A 3.1441237,3.2717414 0 0 0 59.643337,32.00384 3.1441237,3.2717414 0 0 0 56.499363,28.732256 H 40.157705 a 3.1444379,3.2720683 0 0 0 -2.981539,2.231948 l -1.502119,4.658372 -3.061877,-21.71786 a 3.1444379,3.2720683 0 0 0 -2.831322,-2.782665 z"
       id="path8" />
  </g>
</svg>
