<?xml version="1.0" encoding="UTF-8" standalone="no"?>
<svg
   width="64"
   height="64"
   version="1.1"
   id="svg73"
   sodipodi:docname="visual-studio-code.svg"
   inkscape:version="1.4.2 (ebf0e940d0, 2025-05-08)"
   xmlns:inkscape="http://www.inkscape.org/namespaces/inkscape"
   xmlns:sodipodi="http://sodipodi.sourceforge.net/DTD/sodipodi-0.dtd"
   xmlns="http://www.w3.org/2000/svg"
   xmlns:svg="http://www.w3.org/2000/svg"
   xmlns:rdf="http://www.w3.org/1999/02/22-rdf-syntax-ns#"
   xmlns:cc="http://creativecommons.org/ns#"
   xmlns:dc="http://purl.org/dc/elements/1.1/">
  <metadata
     id="metadata77">
    <rdf:RDF>
      <cc:Work
         rdf:about="">
        <dc:format>image/svg+xml</dc:format>
        <dc:type
           rdf:resource="http://purl.org/dc/dcmitype/StillImage" />
      </cc:Work>
    </rdf:RDF>
  </metadata>
  <sodipodi:namedview
     pagecolor="#f5f7fa"
     bordercolor="#666666"
     borderopacity="1"
     objecttolerance="10"
     gridtolerance="10"
     guidetolerance="10"
     inkscape:pageopacity="0"
     inkscape:pageshadow="2"
     inkscape:window-width="1377"
     inkscape:window-height="886"
     id="namedview75"
     showgrid="false"
     inkscape:zoom="6.2890624"
     inkscape:cx="46.986336"
     inkscape:cy="44.601243"
     inkscape:window-x="264"
     inkscape:window-y="75"
     inkscape:window-maximized="0"
     inkscape:current-layer="g877"
     inkscape:document-rotation="0"
     inkscape:pagecheckerboard="0"
     inkscape:showpageshadow="2"
     inkscape:deskcolor="#d1d1d1" />
  <defs
     id="defs29" />
  <circle
     cx="32.516094"
     cy="31.877844"
     r="0"
     fill="url(#b)"
     stroke-width="1.5715"
     id="circle41"
     style="fill:url(#b)" />
  <g
     aria-label="GZ"
     transform="matrix(1.2212657,0,0,0.81882264,0.4960938,-0.1661539)"
     id="text93"
     style="font-weight:bold;font-size:11.5263px;line-height:1.25;font-family:sans-serif;-inkscape-font-specification:'sans-serif Bold';fill:#f2f2f2;stroke-width:0.288159" />
  <g
     id="g877"
     transform="matrix(1.1,0,0,1.1,-3.1845928,-3.2065454)">
    <path
       style="fill:#dfdfdf;fill-opacity:1;stroke:none;stroke-width:0.872104;stroke-dasharray:none;stroke-dashoffset:2.2;stroke-opacity:0.6"
       d="M 43.045963,58.531157 C 42.623971,58.262886 37.540961,53.518521 31.750397,47.988107 25.959832,42.457704 21.104863,37.943517 20.961586,37.956574 c -0.143307,0.01278 -2.379733,1.616487 -4.969902,3.563187 -2.590167,1.946685 -4.970946,3.630613 -5.290616,3.742044 C 9.8280055,45.566166 9.1695884,45.217002 7.1763623,43.3928 5.2422406,41.622678 4.8168929,40.862742 5.1797102,39.825538 c 0.1399533,-0.400167 1.766982,-2.011997 4.5544114,-4.511971 2.3851564,-2.139177 4.3366414,-3.959115 4.3366414,-4.04431 0,-0.08521 -1.993466,-2.076504 -4.4299247,-4.425129 -4.717641,-4.547584 -4.9924473,-4.931766 -4.3777915,-6.120384 0.1770321,-0.342279 1.1322339,-1.358078 2.1227423,-2.257322 2.8392139,-2.577638 2.3605414,-2.704493 8.6638099,2.296085 l 5.231054,4.149955 10.585547,-9.53676 c 5.822048,-5.245216 10.919935,-9.7340514 11.328625,-9.9751862 1.220582,-0.7201598 2.002779,-0.4784249 8.191623,2.5316492 6.463316,3.143558 6.589827,3.216699 7.14855,4.133058 0.400817,0.657395 0.412567,1.219084 0.413285,19.897878 8.55e-4,20.707793 0.05032,19.779397 -1.090468,20.816116 -0.272989,0.248356 -3.116072,1.714255 -6.317888,3.257648 -6.476301,3.121836 -7.181224,3.328838 -8.493953,2.494292 z m 2.516881,-32.84519 -0.05569,-6.244001 -7.620844,5.708015 c -4.191463,3.139409 -7.802305,5.828919 -8.024092,5.976689 -0.365949,0.243829 0.339027,0.859444 7.620845,6.654966 l 8.024091,6.386281 0.05695,-6.11897 c 0.03116,-3.365436 0.03116,-8.928777 0,-12.36298 z"
       id="path72" />
  </g>
</svg>
