<?xml version="1.0" encoding="UTF-8" standalone="no"?>
<svg
   width="64"
   height="64"
   version="1.1"
   id="svg73"
   sodipodi:docname="vscodium-insiders.svg"
   inkscape:version="1.4.2 (ebf0e940d0, 2025-05-08)"
   xmlns:inkscape="http://www.inkscape.org/namespaces/inkscape"
   xmlns:sodipodi="http://sodipodi.sourceforge.net/DTD/sodipodi-0.dtd"
   xmlns="http://www.w3.org/2000/svg"
   xmlns:svg="http://www.w3.org/2000/svg"
   xmlns:rdf="http://www.w3.org/1999/02/22-rdf-syntax-ns#"
   xmlns:cc="http://creativecommons.org/ns#"
   xmlns:dc="http://purl.org/dc/elements/1.1/">
  <metadata
     id="metadata77">
    <rdf:RDF>
      <cc:Work
         rdf:about="">
        <dc:format>image/svg+xml</dc:format>
        <dc:type
           rdf:resource="http://purl.org/dc/dcmitype/StillImage" />
      </cc:Work>
    </rdf:RDF>
  </metadata>
  <sodipodi:namedview
     pagecolor="#f5f7fa"
     bordercolor="#666666"
     borderopacity="1"
     objecttolerance="10"
     gridtolerance="10"
     guidetolerance="10"
     inkscape:pageopacity="0"
     inkscape:pageshadow="2"
     inkscape:window-width="1377"
     inkscape:window-height="886"
     id="namedview75"
     showgrid="false"
     inkscape:zoom="6.2890624"
     inkscape:cx="47.622361"
     inkscape:cy="45.396274"
     inkscape:window-x="147"
     inkscape:window-y="75"
     inkscape:window-maximized="0"
     inkscape:current-layer="g877"
     inkscape:document-rotation="0"
     inkscape:pagecheckerboard="0"
     inkscape:showpageshadow="2"
     inkscape:deskcolor="#d1d1d1" />
  <defs
     id="defs29">
    <linearGradient
       id="b"
       x1="399.57"
       x2="399.57"
       y1="545.8"
       y2="517.8"
       gradientTransform="matrix(2.1429,0,0,2.1429,-825.86391,-1107.6662)"
       gradientUnits="userSpaceOnUse">
      <stop
         stop-color="#3889e9"
         offset="0"
         id="stop2" />
      <stop
         stop-color="#5ea5fb"
         offset="1"
         id="stop4" />
    </linearGradient>
  </defs>
  <circle
     cx="32.516094"
     cy="31.877844"
     r="0"
     fill="url(#b)"
     stroke-width="1.5715"
     id="circle41"
     style="fill:url(#b)" />
  <g
     aria-label="GZ"
     transform="matrix(1.2212657,0,0,0.81882264,0.4960938,-0.1661539)"
     id="text93"
     style="font-weight:bold;font-size:11.5263px;line-height:1.25;font-family:sans-serif;-inkscape-font-specification:'sans-serif Bold';fill:#f2f2f2;stroke-width:0.288159" />
  <g
     id="g877"
     transform="matrix(1.1,0,0,1.1,-3.1845928,-3.2065454)">
    <path
       d="M 32.523543,59.337669 C 31.941223,59.179162 31.434701,58.807034 31.081519,58.278117 30.55777,57.497667 30.383764,56.932573 29.746312,53.943433 29.479268,52.697803 29.088181,51.867399 28.428329,51.152418 27.27574,49.905068 25.943976,49.462293 22.791162,49.277949 19.264488,49.071215 18.011973,48.759374 16.833546,47.799748 15.494887,46.707466 14.934965,45.473895 14.13556,41.842135 13.641103,39.59898 13.358556,38.692759 12.77623,37.485043 11.706338,35.266013 10.23675,33.543159 8.107303,32.00982 6.7359171,31.02263 6.3258807,30.421355 6.5515711,29.727044 c 0.1843399,-0.56337 0.7683912,-0.926891 1.4937128,-0.926891 0.5840472,0 0.9406749,0.144757 1.4041236,0.570263 0.4444935,0.408315 0.7063655,0.794236 1.3214255,1.939929 0.559928,1.047495 1.099176,1.810718 1.278354,1.810718 0.108537,0 0.125766,-0.442778 0.125766,-3.175219 0,-1.898579 0.0345,-3.302702 0.08614,-3.493937 0.105116,-0.382472 0.520299,-0.761497 0.833861,-0.761497 0.5203,0.0017 0.968245,0.501347 1.195659,1.338654 0.05169,0.191233 0.270486,2.094987 0.485842,4.234766 0.215351,2.138058 0.423813,3.921208 0.461719,3.964276 0.120613,0.1292 0.668467,-0.558198 1.025097,-1.28697 0.349734,-0.71498 0.585767,-1.626367 0.589217,-2.270716 0,-0.205014 -0.09648,-0.852808 -0.217078,-1.442024 -0.177459,-0.875204 -0.199852,-1.133632 -0.127496,-1.409287 0.232584,-0.873487 1.190488,-1.018206 1.81933,-0.272208 0.454834,0.539253 0.61161,1.150866 0.608165,2.370642 0,1.321426 -0.113715,1.81416 -1.075061,4.787804 -0.830411,2.568769 -1.092283,3.707573 -1.090561,4.741292 0,3.707562 3.064953,6.123001 8.188711,6.469291 0.456553,0.02961 0.828688,0.02597 0.828688,-0.0084 0,-0.03505 -0.284265,-0.594388 -0.634012,-1.243894 -1.202544,-2.238353 -1.690107,-3.800978 -1.690107,-5.415289 0,-1.214615 0.17572,-1.957163 0.947564,-3.981511 1.057831,-2.770343 1.161204,-3.220008 1.161204,-5.047955 0.0016,-0.95101 -0.04135,-1.54195 -0.148151,-2.043297 -0.575431,-2.725554 -1.991615,-5.066904 -3.990121,-6.596796 -0.792513,-0.606443 -1.028541,-0.737379 -3.054616,-1.68667 -1.948544,-0.91311 -2.456782,-1.230118 -3.235514,-2.026073 -0.837304,-0.854534 -1.192212,-1.554009 -1.249065,-2.45851 -0.0345,-0.558201 -0.02066,-0.646067 0.118882,-0.721874 0.322176,-0.172284 1.006148,-0.203295 1.617761,-0.07409 1.133635,0.239475 2.150117,0.894161 3.774768,2.427498 1.73146,1.633262 2.706594,2.237984 3.89881,2.411991 0.580598,0.08443 0.63918,0.07923 0.747715,-0.07234 0.177458,-0.246363 0.151597,-1.162922 -0.04995,-1.705623 -0.370437,-0.999247 -1.16295,-1.741799 -2.935764,-2.74622 -1.140528,-0.646066 -1.908917,-1.199105 -2.251762,-1.619476 -0.839032,-1.028545 -1.009596,-2.537762 -0.373861,-3.306155 0.602994,-0.727041 1.624649,-0.808018 2.801355,-0.223974 0.571986,0.282557 0.82869,0.491017 1.697008,1.380005 2.536038,2.594615 4.062479,5.997242 4.73439,10.55246 0.179189,1.21461 0.15506,5.79739 -0.03968,7.387581 -0.184338,1.51611 -0.478951,3.314765 -0.823519,5.046228 -0.299781,1.498884 -0.322175,2.186305 -0.09303,2.701433 0.170583,0.379029 0.522026,0.63229 0.876931,0.63229 0.403152,0 1.11641,-0.466901 1.938208,-1.2663 1.342136,-1.309365 2.093296,-2.575659 2.524009,-4.253716 0.187793,-0.730489 0.220527,-1.090563 0.275662,-2.997763 0.05684,-2.01401 0.07408,-2.194908 0.258428,-2.577381 0.265324,-0.558202 0.75633,-0.914835 1.259406,-0.914835 0.325618,0 0.425546,0.0465 0.701198,0.325613 0.718431,0.730488 0.694312,1.686669 -0.13093,5.092749 -0.589189,2.425777 -1.373086,4.296792 -2.370614,5.640617 -0.298055,0.404867 -1.178433,1.348989 -1.953711,2.100155 -0.930344,0.901056 -1.552288,1.581579 -1.829669,2.001957 -1.621206,2.461957 -0.756333,4.875664 1.907193,5.32188 1.114685,0.187776 2.349973,-0.175758 3.192443,-0.938952 1.176705,-1.06128 2.274163,-3.426751 3.042556,-6.557174 1.143973,-4.649967 1.51094,-9.70826 0.914834,-12.604367 -0.53925,-2.618695 -1.621199,-4.813606 -3.142473,-6.371063 -0.415212,-0.425545 -1.314536,-1.16465 -2.225925,-1.829672 -2.542928,-1.853785 -3.5663,-3.051167 -3.919485,-4.589673 -0.175722,-0.763223 -0.130931,-1.540226 0.09648,-1.714233 0.294608,-0.225696 1.035433,-0.334236 1.547119,-0.230864 1.266292,0.258428 2.379252,1.262848 3.550793,3.207948 0.921726,1.528167 1.342099,2.098429 1.974386,2.670418 0.470341,0.423815 0.708091,0.540968 0.708091,0.346291 0,-0.04995 -0.225692,-0.52719 -0.499628,-1.057828 C 33.412576,13.42022 31.975716,10.5086 31.782757,9.9245559 31.346879,8.603127 31.596699,7.6676195 32.490847,7.2661935 c 1.016485,-0.4565499 2.146672,0.2825531 2.689372,1.7590288 0.115446,0.3152831 0.86487,2.8806087 1.665996,5.7026387 1.728019,6.091999 1.610867,5.709524 1.733187,5.668177 0.14989,-0.04995 0.713263,-1.443746 0.997533,-2.470568 0.372137,-1.348993 0.532356,-2.753114 0.477226,-4.158959 -0.05684,-1.376557 -0.199848,-2.267272 -0.704646,-4.3450313 -0.272214,-1.1181313 -0.373861,-1.7142339 -0.373861,-2.1794027 0,-1.099181 0.430721,-1.9950637 1.171543,-2.4378355 0.82352,-0.4910086 2.063979,-0.2446405 2.896114,0.5754301 0.816633,0.8045701 1.081943,1.678057 1.011318,3.3319913 -0.07582,1.7693701 -0.363545,2.8444291 -1.974392,7.3875831 -1.435145,4.052145 -1.865849,5.561364 -2.124281,7.446159 -0.170546,1.237012 -0.16711,3.185554 0,4.224432 0.149907,0.90794 0.454841,1.912366 0.58922,1.955435 0.04837,0.01547 0.466889,-1.050938 0.926899,-2.370642 1.128462,-3.230345 1.280077,-3.593866 1.633259,-3.907423 0.697749,-0.623673 1.734905,-0.08958 1.734905,0.890711 0,0.821802 -1.743524,6.005858 -6.181588,18.398327 -1.240454,3.459487 -2.24143,6.350422 -2.227651,6.424508 0.02074,0.08782 1.791768,-1.497161 5.047961,-4.506978 6.956868,-6.429679 7.060241,-6.538219 7.509904,-7.852755 0.180843,-0.527193 0.204997,-0.716703 0.167112,-1.347271 -0.06053,-1.007865 -0.391146,-1.87963 -1.393766,-3.676561 -1.188767,-2.127722 -1.566064,-3.032216 -1.690107,-4.038362 -0.251565,-2.045025 1.550565,-3.375063 2.822028,-2.082927 0.706363,0.716706 1.684947,3.185551 2.112216,5.32878 0.117152,0.592658 0.213629,1.157753 0.213629,1.255955 0,0.49618 0.263581,0.0844 1.3266,-2.076035 1.536772,-3.123529 1.821054,-3.552518 2.648008,-3.986674 0.725326,-0.379023 1.610875,0.01718 2.09327,0.937229 0.261889,0.497902 0.253191,1.436857 -0.01874,2.275886 -0.720158,2.21903 -3.554235,6.941367 -6.607133,11.009015 -0.170495,0.225698 -0.263581,0.41003 -0.208436,0.41003 0.05676,0 0.316971,-0.127495 0.582306,-0.284298 1.643608,-0.969965 2.806535,-1.03371 3.952223,-0.213631 0.351405,0.24978 0.740827,0.990641 0.739107,1.405847 -0.0017,0.466948 -0.258451,1.009592 -0.604741,1.274915 -0.632285,0.485849 -1.297308,0.642633 -3.176933,0.752885 -3.09606,0.179204 -5.446027,1.025088 -7.701239,2.770339 -1.777987,1.374835 -2.816859,2.761724 -4.59485,6.131619 -1.448914,2.74278 -2.125992,3.736857 -3.480155,5.097913 -0.980301,0.985472 -1.71079,1.45409 -2.544651,1.631537 -0.544417,0.115494 -0.540975,0.115494 -1.109515,-0.03985 z"
       fill="url(#b)"
       fill-rule="nonzero"
       id="path4"
       style="fill:#dfdfdf;fill-opacity:1;stroke:none;stroke-width:0.799012;stroke-dasharray:none;stroke-opacity:0.6" />
  </g>
</svg>
