<?xml version="1.0" encoding="UTF-8" standalone="no"?>
<svg
   width="64"
   height="64"
   version="1.1"
   id="svg73"
   sodipodi:docname="Warmux.svg"
   inkscape:version="1.4.2 (ebf0e940d0, 2025-05-08)"
   xmlns:inkscape="http://www.inkscape.org/namespaces/inkscape"
   xmlns:sodipodi="http://sodipodi.sourceforge.net/DTD/sodipodi-0.dtd"
   xmlns="http://www.w3.org/2000/svg"
   xmlns:svg="http://www.w3.org/2000/svg"
   xmlns:rdf="http://www.w3.org/1999/02/22-rdf-syntax-ns#"
   xmlns:cc="http://creativecommons.org/ns#"
   xmlns:dc="http://purl.org/dc/elements/1.1/">
  <metadata
     id="metadata77">
    <rdf:RDF>
      <cc:Work
         rdf:about="">
        <dc:format>image/svg+xml</dc:format>
        <dc:type
           rdf:resource="http://purl.org/dc/dcmitype/StillImage" />
      </cc:Work>
    </rdf:RDF>
  </metadata>
  <sodipodi:namedview
     pagecolor="#f5f7fa"
     bordercolor="#666666"
     borderopacity="1"
     objecttolerance="10"
     gridtolerance="10"
     guidetolerance="10"
     inkscape:pageopacity="0"
     inkscape:pageshadow="2"
     inkscape:window-width="1377"
     inkscape:window-height="886"
     id="namedview75"
     showgrid="false"
     inkscape:zoom="6.2890624"
     inkscape:cx="47.622361"
     inkscape:cy="45.396274"
     inkscape:window-x="0"
     inkscape:window-y="49"
     inkscape:window-maximized="0"
     inkscape:current-layer="g877"
     inkscape:document-rotation="0"
     inkscape:pagecheckerboard="0"
     inkscape:showpageshadow="2"
     inkscape:deskcolor="#d1d1d1" />
  <defs
     id="defs29" />
  <circle
     cx="32.516094"
     cy="31.877844"
     r="0"
     fill="url(#b)"
     stroke-width="1.5715"
     id="circle41"
     style="fill:url(#b)" />
  <g
     aria-label="GZ"
     transform="matrix(1.2212657,0,0,0.81882264,0.4960938,-0.1661539)"
     id="text93"
     style="font-weight:bold;font-size:11.5263px;line-height:1.25;font-family:sans-serif;-inkscape-font-specification:'sans-serif Bold';fill:#f2f2f2;stroke-width:0.288159" />
  <g
     id="g877"
     transform="matrix(1.1,0,0,1.1,-3.1845928,-3.2065454)">
    <path
       id="path2"
       style="fill:#dfdfdf;fill-opacity:1;stroke:none;stroke-width:0.930069;stroke-dasharray:none;stroke-opacity:0.6"
       d="m 50.724473,3.6711879 c -0.125074,0.00838 -0.21782,0.047451 -0.26518,0.1198832 -0.142032,0.2169024 -1.074523,1.6415694 -2.074486,3.1644161 l -1.82019,2.768412 -2.038168,-1.0317923 c -1.120452,-0.5677672 -2.222067,-1.031802 -2.448721,-1.031802 -0.22664,0 -0.980802,0.8259403 -1.674851,1.8347096 l -1.26068,1.8310685 -5.347898,-0.214348 C 27.39308,10.852113 23.373015,11.670649 17.950416,14.337914 5.2006682,20.609254 0.19440558,35.24166 6.8549803,46.774089 10.580268,53.224235 18.586083,58.617837 26.368271,59.918584 34.495274,61.27696 43.347716,59.323094 49.732638,54.766872 61.485341,46.38033 63.510219,31.19139 54.281267,20.641321 l -1.954613,-2.230709 1.144431,-2.052692 c 0.629489,-1.12748 1.034458,-2.230583 0.89736,-2.45233 -0.137053,-0.221747 -1.03607,-0.797371 -1.998196,-1.28248 -0.962135,-0.485102 -1.825164,-0.951442 -1.918261,-1.035429 l -0.0037,-0.0036 -0.0036,-0.0037 v -0.0036 -0.0036 -0.0037 c -0.0084,-0.196579 0.782167,-1.558014 1.823788,-3.1244753 C 54.398381,5.2419077 54.409522,5.3924092 51.923329,4.0489604 51.436076,3.7855847 50.99955,3.6527509 50.724377,3.6710308 Z M 28.947763,16.862919 c 0.704043,0.01211 1.584411,0.05599 2.753878,0.116269 6.93813,0.357883 14.521137,2.778008 16.879309,5.384228 0.609809,0.673947 1.366587,3.00589 2.408723,7.426028 1.497491,6.351238 1.509436,6.466667 0.784753,7.920122 -0.53394,1.070985 -1.425322,1.825417 -3.247975,2.75751 l -2.506826,1.282474 -7.738466,0.08359 c -4.256073,0.0466 -8.270531,-0.07985 -8.91922,-0.283386 -0.648692,-0.203552 -2.161459,-1.127559 -3.360606,-2.052694 -1.19915,-0.925138 -3.564002,-2.246532 -5.257075,-2.935534 -4.230473,-1.721605 -6.738269,-4.26723 -6.713939,-6.815663 0.03064,-3.209804 5.300122,-9.230883 10.18717,-11.636767 2.081439,-1.024693 2.618147,-1.282609 4.730274,-1.246147 z m 11.61497,8.737567 c -1.566507,-0.03033 -2.793142,0.993804 -3.778407,3.109918 -1.282632,2.754773 -1.269488,3.677238 0.06903,5.267972 0.893475,1.06183 1.386842,1.286475 2.822909,1.278844 2.600735,-0.01406 4.150672,-1.576586 4.911925,-4.951893 0.423927,-1.879621 -0.131969,-3.216829 -1.667584,-4.010928 -0.861706,-0.445602 -1.645819,-0.680129 -2.35787,-0.693913 z m -13.231691,0.05088 c -2.066812,-0.0085 -3.273408,1.483285 -3.273408,4.050851 0,1.019363 0.194178,2.218058 0.432336,2.663051 0.647239,1.209407 3.731087,1.127335 4.886498,-0.130758 1.12758,-1.227794 1.526246,-3.209998 0.948235,-4.730276 -0.584037,-1.53613 -1.082702,-1.844874 -2.993661,-1.852874 z M 19.6943,37.611464 c 1.524608,0.0485 2.935928,0.762691 3.731175,1.9764 0.560705,0.855752 0.60454,1.343745 0.243418,2.684844 -0.541842,2.012247 -3.354958,6.440214 -4.679413,7.367899 -3.477544,2.435766 -8.912719,-2.859516 -6.910127,-6.732105 0.981633,-1.898265 4.205407,-4.616695 6.070885,-5.119018 0.514869,-0.138664 1.035857,-0.194201 1.544062,-0.178016 z m 9.758466,6.147174 c 1.187547,0.01211 2.250344,0.495467 2.837435,1.391478 0.877525,1.339273 1.282654,7.157263 0.588556,8.454191 -0.406048,0.758706 -0.832683,0.894561 -2.666683,0.853767 -2.552275,-0.05688 -3.372245,-0.227855 -5.213476,-1.086299 -1.216559,-0.567238 -1.358775,-0.818614 -1.358775,-2.386928 0,-2.572661 1.759793,-5.844524 3.614918,-6.724843 0.729482,-0.34616 1.485487,-0.508632 2.198016,-0.501341 z m 10.495974,0.01465 c 1.443741,-0.02621 2.383376,0.711541 3.542256,2.52863 2.428269,3.807451 2.230717,4.704311 -1.238877,5.653081 -2.14343,0.586095 -5.930431,0.594532 -6.288869,0.01465 -0.15184,-0.245621 -0.377211,-1.533874 -0.497733,-2.862864 -0.274713,-3.029571 0.51715,-4.437777 2.844704,-5.064521 0.619837,-0.166865 1.157277,-0.260131 1.638519,-0.268824 z" />
  </g>
</svg>
