<?xml version="1.0" encoding="UTF-8" standalone="no"?>
<svg
   width="64"
   height="64"
   version="1.1"
   id="svg73"
   sodipodi:docname="warpinator.svg"
   inkscape:version="1.4.2 (ebf0e940d0, 2025-05-08)"
   xmlns:inkscape="http://www.inkscape.org/namespaces/inkscape"
   xmlns:sodipodi="http://sodipodi.sourceforge.net/DTD/sodipodi-0.dtd"
   xmlns="http://www.w3.org/2000/svg"
   xmlns:svg="http://www.w3.org/2000/svg"
   xmlns:rdf="http://www.w3.org/1999/02/22-rdf-syntax-ns#"
   xmlns:cc="http://creativecommons.org/ns#"
   xmlns:dc="http://purl.org/dc/elements/1.1/">
  <metadata
     id="metadata77">
    <rdf:RDF>
      <cc:Work
         rdf:about="">
        <dc:format>image/svg+xml</dc:format>
        <dc:type
           rdf:resource="http://purl.org/dc/dcmitype/StillImage" />
      </cc:Work>
    </rdf:RDF>
  </metadata>
  <sodipodi:namedview
     pagecolor="#f5f7fa"
     bordercolor="#666666"
     borderopacity="1"
     objecttolerance="10"
     gridtolerance="10"
     guidetolerance="10"
     inkscape:pageopacity="0"
     inkscape:pageshadow="2"
     inkscape:window-width="1377"
     inkscape:window-height="886"
     id="namedview75"
     showgrid="false"
     inkscape:zoom="6.2890624"
     inkscape:cx="47.622361"
     inkscape:cy="45.396274"
     inkscape:window-x="20"
     inkscape:window-y="75"
     inkscape:window-maximized="0"
     inkscape:current-layer="g877"
     inkscape:document-rotation="0"
     inkscape:pagecheckerboard="0"
     inkscape:showpageshadow="2"
     inkscape:deskcolor="#d1d1d1" />
  <defs
     id="defs29" />
  <circle
     cx="32.516094"
     cy="31.877844"
     r="0"
     fill="url(#b)"
     stroke-width="1.5715"
     id="circle41"
     style="fill:url(#b)" />
  <g
     aria-label="GZ"
     transform="matrix(1.2212657,0,0,0.81882264,0.4960938,-0.1661539)"
     id="text93"
     style="font-weight:bold;font-size:11.5263px;line-height:1.25;font-family:sans-serif;-inkscape-font-specification:'sans-serif Bold';fill:#f2f2f2;stroke-width:0.288159" />
  <g
     id="g877"
     transform="matrix(1.1,0,0,1.1,-3.1845928,-3.2065454)">
    <path
       style="fill:#dfdfdf;fill-opacity:1;stroke:none;stroke-width:0.885781;stroke-dasharray:none;stroke-opacity:0.6"
       d="m 54.316433,3.8080131 a 5.4463185,5.9364127 0 0 0 -5.446319,5.9364117 5.4463185,5.9364127 0 0 0 0.255232,1.7855632 l -9.35016,11.177149 A 10.892638,11.872825 0 0 0 35.254317,21.617251 10.892638,11.872825 0 0 0 24.37232,33.101658 l -13.216898,2.052237 c -0.736877,-1.023934 -1.8643079,-1.622348 -3.0582336,-1.62324 -2.1488117,0.0014 -3.8896262,1.901435 -3.8879491,4.243608 0.00121,2.339908 1.7412138,4.236439 3.8879491,4.237815 1.5862319,-9.44e-4 3.0130816,-1.05153 3.6060576,-2.655162 l 13.243486,-2.063829 a 10.892638,11.872825 0 0 0 10.307585,8.069816 10.892638,11.872825 0 0 0 10.892643,-11.87283 10.892638,11.872825 0 0 0 -1.904091,-6.701649 l 9.339587,-11.171357 a 5.4463185,5.9364127 0 0 0 0.733977,0.06374 A 5.4463185,5.9364127 0 0 0 59.76275,9.7444006 5.4463185,5.9364127 0 0 0 54.316433,3.808002 Z m -31.31633,2.9682048 a 4.0847383,4.4523091 0 0 0 -4.084739,4.4523121 4.0847383,4.4523091 0 0 0 4.084739,4.452308 4.0847383,4.4523091 0 0 0 4.084739,-4.452308 4.0847383,4.4523091 0 0 0 -4.084739,-4.4523121 z m 31.31633,0 a 2.7231592,2.9682061 0 0 1 2.723158,2.9682069 2.7231592,2.9682061 0 0 1 -2.723158,2.9682092 2.7231592,2.9682061 0 0 1 -2.723157,-2.9682092 2.7231592,2.9682061 0 0 1 2.723157,-2.9682069 z m -27.614539,8.2263381 -2.015772,1.617436 1.350941,2.104418 2.015777,-1.623236 z m 2.015779,3.142127 -2.01046,1.623235 1.77112,2.765303 2.015777,-1.623234 z m 6.536644,9.408977 a 5.4463185,5.9364127 0 0 1 5.446317,5.936413 5.4463185,5.9364127 0 0 1 -5.446317,5.936416 5.4463185,5.9364127 0 0 1 -5.446316,-5.936416 5.4463185,5.9364127 0 0 1 5.446316,-5.936413 z M 8.0971884,35.652459 c 1.0754414,-9.18e-4 1.9474706,0.949584 1.9466336,2.121804 8.41e-4,1.172216 -0.8711922,2.122717 -1.9466336,2.1218 -1.0733698,-0.0022 -1.9421546,-0.951846 -1.9413149,-2.1218 -8.385e-4,-1.169956 0.8679464,-2.11952 1.9413149,-2.121804 z m 36.5977756,5.565393 -1.898763,2.069623 2.451901,2.684143 1.909404,-2.08123 z m 3.345444,3.640687 -1.904084,2.075417 2.845483,3.095752 1.898774,-2.069629 z m -17.57289,0.318842 -1.696657,4.620433 2.435951,0.927563 1.691337,-4.614628 z m 23.168126,3.153718 a 4.7655285,5.1943604 0 0 0 -4.76553,5.194355 4.7655285,5.1943604 0 0 0 4.76553,5.194368 4.7655285,5.1943604 0 0 0 4.765528,-5.194368 4.7655285,5.1943604 0 0 0 -4.765528,-5.194355 z m -25.189227,2.968184 a 4.0847383,4.4523091 0 0 0 -4.084734,4.452311 4.0847383,4.4523091 0 0 0 4.084734,4.452308 4.0847383,4.4523091 0 0 0 4.08474,-4.452308 4.0847383,4.4523091 0 0 0 -4.08474,-4.452311 z"
       id="path8" />
  </g>
</svg>
