<?xml version="1.0" encoding="UTF-8" standalone="no"?>
<svg
   width="64"
   height="64"
   version="1.1"
   id="svg73"
   sodipodi:docname="webapp-manager.svg"
   inkscape:version="1.4.2 (ebf0e940d0, 2025-05-08)"
   xmlns:inkscape="http://www.inkscape.org/namespaces/inkscape"
   xmlns:sodipodi="http://sodipodi.sourceforge.net/DTD/sodipodi-0.dtd"
   xmlns="http://www.w3.org/2000/svg"
   xmlns:svg="http://www.w3.org/2000/svg"
   xmlns:rdf="http://www.w3.org/1999/02/22-rdf-syntax-ns#"
   xmlns:cc="http://creativecommons.org/ns#"
   xmlns:dc="http://purl.org/dc/elements/1.1/">
  <metadata
     id="metadata77">
    <rdf:RDF>
      <cc:Work
         rdf:about="">
        <dc:format>image/svg+xml</dc:format>
        <dc:type
           rdf:resource="http://purl.org/dc/dcmitype/StillImage" />
      </cc:Work>
    </rdf:RDF>
  </metadata>
  <sodipodi:namedview
     pagecolor="#f5f7fa"
     bordercolor="#666666"
     borderopacity="1"
     objecttolerance="10"
     gridtolerance="10"
     guidetolerance="10"
     inkscape:pageopacity="0"
     inkscape:pageshadow="2"
     inkscape:window-width="1377"
     inkscape:window-height="886"
     id="namedview75"
     showgrid="false"
     inkscape:zoom="6.2890624"
     inkscape:cx="47.622361"
     inkscape:cy="45.396274"
     inkscape:window-x="264"
     inkscape:window-y="75"
     inkscape:window-maximized="0"
     inkscape:current-layer="g877"
     inkscape:document-rotation="0"
     inkscape:pagecheckerboard="0"
     inkscape:showpageshadow="2"
     inkscape:deskcolor="#d1d1d1" />
  <defs
     id="defs29" />
  <circle
     cx="32.516094"
     cy="31.877844"
     r="0"
     fill="url(#b)"
     stroke-width="1.5715"
     id="circle41"
     style="fill:url(#b)" />
  <g
     aria-label="GZ"
     transform="matrix(1.2212657,0,0,0.81882264,0.4960938,-0.1661539)"
     id="text93"
     style="font-weight:bold;font-size:11.5263px;line-height:1.25;font-family:sans-serif;-inkscape-font-specification:'sans-serif Bold';fill:#f2f2f2;stroke-width:0.288159" />
  <g
     id="g877"
     transform="matrix(1.1,0,0,1.1,-3.1845928,-3.2065454)">
    <path
       d="m 32.054824,5.1263731 c -14.918567,0 -27.0124585,12.0344059 -27.0124585,26.8795769 0,14.845182 12.0938915,26.879577 27.0124585,26.879577 14.91855,0 27.012458,-12.034395 27.012458,-26.879577 0,-14.845169 -12.093908,-26.8795769 -27.012458,-26.8795769 z m -1.929466,7.4398819 c 0.258168,-0.02689 0.583706,0.0153 0.844196,0 0.0306,0.122944 -0.188004,0.560138 -0.482342,1.199987 -1.874892,4.07556 -1.981253,8.848604 -0.241235,11.39982 0.3149,0.462549 0.602959,0.902763 0.602959,0.959992 0,0.05722 -0.339553,0.119729 -0.723579,0.119729 -0.901361,0 -1.754352,-0.546649 -3.49715,-1.919934 -0.774179,-0.61005 -1.780698,-1.122458 -2.170652,-1.200018 -0.612281,-0.121746 -0.775489,-0.06839 -1.567715,0.719983 -0.736994,0.733279 -0.964664,1.12867 -0.964664,1.799976 0,2.54565 3.037279,4.569296 8.682579,5.759913 7.666516,1.616885 9.556431,3.06857 9.767887,7.079883 0.265477,5.030235 -2.425711,8.823304 -8.320803,11.759821 -0.703586,0.350609 -1.151937,0.486624 -1.447136,0.599971 -0.131224,-0.01224 -0.231186,0.01224 -0.361575,0 -0.04963,-0.155496 -0.121068,-0.516289 -0.121068,-1.199998 0,-2.671752 -1.058303,-5.421798 -2.652955,-6.959882 -0.428065,-0.412869 -1.626648,-1.287712 -2.653031,-1.919959 -1.026363,-0.632209 -2.060482,-1.366624 -2.29125,-1.679965 -0.382416,-0.519974 -0.41422,-0.83942 -0.121055,-1.79997 0.535415,-1.75436 1.172796,-2.73147 2.411793,-3.839946 0.649617,-0.581132 1.303181,-1.068467 1.447141,-1.079986 0.14439,-0.0115 -0.830193,-0.302593 -2.291235,-0.599987 -1.461051,-0.297907 -3.598092,-0.921977 -4.703163,-1.319917 -2.02046,-0.727467 -4.748326,-2.254653 -5.78843,-3.359942 -0.04378,-0.04687 -0.08168,-0.07838 -0.121054,-0.119729 1.490054,-5.906058 5.671586,-10.746684 11.214961,-13.079796 1.159813,-0.488171 2.355568,-0.823088 3.617744,-1.079994 0.62862,-0.127856 1.280283,-0.174323 1.929455,-0.239987 z m 18.088692,8.999862 c 0.453092,0.278758 2.164518,3.963007 2.653008,5.759903 0.630724,2.320055 0.584948,6.334945 0,8.639871 -0.222664,0.877188 -0.508055,1.697826 -0.602957,1.799972 -0.09484,0.102179 -0.439171,-0.485877 -0.8442,-1.199988 -0.40493,-0.713992 -1.698474,-2.231195 -2.77354,-3.359939 -3.103106,-3.258308 -3.591066,-4.959591 -2.291224,-7.559885 0.655436,-1.31131 3.508143,-4.29536 3.858913,-4.079934 z"
       fill="#333333"
       id="path2-0"
       style="fill:#dfdfdf;fill-opacity:1;stroke:none;stroke-width:1.63413;stroke-dasharray:none;stroke-opacity:0.3" />
  </g>
</svg>
