<?xml version="1.0" encoding="UTF-8" standalone="no"?>
<svg
   width="64"
   height="64"
   version="1.1"
   id="svg73"
   sodipodi:docname="xfsm-lock.svg"
   inkscape:version="1.4.2 (ebf0e940d0, 2025-05-08)"
   xmlns:inkscape="http://www.inkscape.org/namespaces/inkscape"
   xmlns:sodipodi="http://sodipodi.sourceforge.net/DTD/sodipodi-0.dtd"
   xmlns="http://www.w3.org/2000/svg"
   xmlns:svg="http://www.w3.org/2000/svg"
   xmlns:rdf="http://www.w3.org/1999/02/22-rdf-syntax-ns#"
   xmlns:cc="http://creativecommons.org/ns#"
   xmlns:dc="http://purl.org/dc/elements/1.1/">
  <metadata
     id="metadata77">
    <rdf:RDF>
      <cc:Work
         rdf:about="">
        <dc:format>image/svg+xml</dc:format>
        <dc:type
           rdf:resource="http://purl.org/dc/dcmitype/StillImage" />
      </cc:Work>
    </rdf:RDF>
  </metadata>
  <sodipodi:namedview
     pagecolor="#f5f7fa"
     bordercolor="#666666"
     borderopacity="1"
     objecttolerance="10"
     gridtolerance="10"
     guidetolerance="10"
     inkscape:pageopacity="0"
     inkscape:pageshadow="2"
     inkscape:window-width="1377"
     inkscape:window-height="886"
     id="namedview75"
     showgrid="false"
     inkscape:zoom="6.2890624"
     inkscape:cx="45.714286"
     inkscape:cy="38.559007"
     inkscape:window-x="20"
     inkscape:window-y="75"
     inkscape:window-maximized="0"
     inkscape:current-layer="g877"
     inkscape:document-rotation="0"
     inkscape:pagecheckerboard="0"
     inkscape:showpageshadow="2"
     inkscape:deskcolor="#d1d1d1" />
  <defs
     id="defs29" />
  <circle
     cx="32.516094"
     cy="31.877844"
     r="0"
     fill="url(#b)"
     stroke-width="1.5715"
     id="circle41"
     style="fill:url(#b)" />
  <g
     aria-label="GZ"
     transform="matrix(1.2212657,0,0,0.81882264,0.4960938,-0.1661539)"
     id="text93"
     style="font-weight:bold;font-size:11.5263px;line-height:1.25;font-family:sans-serif;-inkscape-font-specification:'sans-serif Bold';fill:#f2f2f2;stroke-width:0.288159" />
  <g
     id="g877"
     transform="matrix(1.1,0,0,1.1,-3.1845928,-3.2065454)">
    <path
       style="fill:#dfdfdf;fill-opacity:1;stroke:none;stroke-width:0.885781;stroke-dasharray:none;stroke-opacity:0.6"
       d="M 10.120983,59.412072 C 8.9378484,58.933456 7.9428115,57.390873 7.7382607,55.718204 7.6316839,54.847262 7.5879509,48.987095 7.6409525,42.695574 7.7289316,32.25153 7.7846255,31.186719 8.2817149,30.454578 c 0.809226,-1.19191 2.2701931,-1.756851 4.5433071,-1.756851 h 1.98646 l 0.0035,-6.095842 c 0.0046,-8.15812 0.63397,-10.416231 3.812931,-13.684023 2.924876,-3.0066038 7.533263,-4.5930439 13.342161,-4.5930439 5.444962,0 9.669992,1.333175 12.504099,3.9455652 1.980062,1.8251537 3.005559,3.4334117 3.933482,6.1687107 0.733006,2.160759 0.816491,2.888266 0.953937,8.313306 l 0.150727,5.945327 1.990739,0.0011 c 1.465346,8.28e-4 2.253673,0.161425 2.987167,0.608649 1.829833,1.11561 1.863316,1.383698 1.863316,14.913316 0,13.539059 -0.02739,13.75373 -1.932601,14.915264 -0.884916,0.539682 -1.90143,0.564578 -22.300246,0.547475 C 20.365518,59.673758 10.465655,59.55147 10.12102,59.412132 Z M 42.506188,23.290495 c 0,-4.72242 -0.07845,-5.617111 -0.620032,-7.064427 -0.759497,-2.029912 -2.662759,-3.815742 -4.897688,-4.595495 -1.877415,-0.655028 -7.492073,-0.751867 -9.4306,-0.162665 -2.258425,0.686429 -4.063472,2.152411 -5.063363,4.112247 -0.903,1.769924 -0.910598,1.826083 -1.008572,7.450469 l -0.0987,5.667108 h 10.559484 10.559472 z"
       id="path53" />
  </g>
</svg>
