<?xml version="1.0" encoding="UTF-8" standalone="no"?>
<svg
   width="64"
   height="64"
   version="1.1"
   id="svg73"
   sodipodi:docname="xfsm-shutdown.svg"
   inkscape:version="1.4.2 (ebf0e940d0, 2025-05-08)"
   xmlns:inkscape="http://www.inkscape.org/namespaces/inkscape"
   xmlns:sodipodi="http://sodipodi.sourceforge.net/DTD/sodipodi-0.dtd"
   xmlns="http://www.w3.org/2000/svg"
   xmlns:svg="http://www.w3.org/2000/svg"
   xmlns:rdf="http://www.w3.org/1999/02/22-rdf-syntax-ns#"
   xmlns:cc="http://creativecommons.org/ns#"
   xmlns:dc="http://purl.org/dc/elements/1.1/">
  <metadata
     id="metadata77">
    <rdf:RDF>
      <cc:Work
         rdf:about="">
        <dc:format>image/svg+xml</dc:format>
        <dc:type
           rdf:resource="http://purl.org/dc/dcmitype/StillImage" />
      </cc:Work>
    </rdf:RDF>
  </metadata>
  <sodipodi:namedview
     pagecolor="#f5f7fa"
     bordercolor="#666666"
     borderopacity="1"
     objecttolerance="10"
     gridtolerance="10"
     guidetolerance="10"
     inkscape:pageopacity="0"
     inkscape:pageshadow="2"
     inkscape:window-width="1377"
     inkscape:window-height="886"
     id="namedview75"
     showgrid="false"
     inkscape:zoom="6.2890624"
     inkscape:cx="45.714286"
     inkscape:cy="38.559007"
     inkscape:window-x="20"
     inkscape:window-y="75"
     inkscape:window-maximized="0"
     inkscape:current-layer="g877"
     inkscape:document-rotation="0"
     inkscape:pagecheckerboard="0"
     inkscape:showpageshadow="2"
     inkscape:deskcolor="#d1d1d1" />
  <defs
     id="defs29" />
  <circle
     cx="32.516094"
     cy="31.877844"
     r="0"
     fill="url(#b)"
     stroke-width="1.5715"
     id="circle41"
     style="fill:url(#b)" />
  <g
     aria-label="GZ"
     transform="matrix(1.2212657,0,0,0.81882264,0.4960938,-0.1661539)"
     id="text93"
     style="font-weight:bold;font-size:11.5263px;line-height:1.25;font-family:sans-serif;-inkscape-font-specification:'sans-serif Bold';fill:#f2f2f2;stroke-width:0.288159" />
  <g
     id="g877"
     transform="matrix(1.1,0,0,1.1,-3.1845928,-3.2065454)">
    <path
       style="fill:#dfdfdf;fill-opacity:1;stroke:none;stroke-width:0.887792;stroke-dasharray:none;stroke-opacity:0.6"
       d="M 31.92345,3.5292314 A 3.883598,3.8697211 0 0 0 28.100913,7.4528912 V 30.67125 a 3.883598,3.8697211 0 1 0 7.766422,0 V 7.4528912 A 3.883598,3.8697211 0 0 0 31.92345,3.5292314 Z M 19.014808,10.001246 a 3.8840127,3.8818711 0 0 0 -2.073065,0.67754 C 6.9853989,17.290121 2.5144609,29.679501 5.949432,41.122541 9.3844008,52.565591 19.934602,60.441274 31.888057,60.482975 43.841509,60.524672 54.453439,52.723366 57.968259,41.304568 61.483075,29.885766 57.093175,17.46561 47.183251,10.784969 a 3.8840127,3.8818711 0 1 0 -4.343337,6.436621 c 7.102019,4.787726 10.219616,13.61419 7.700698,21.797546 -2.518921,8.183363 -10.055692,13.732363 -18.622218,13.702479 -8.566523,-0.02991 -16.069507,-5.633197 -18.5312,-13.833942 -2.461696,-8.200733 0.717091,-16.998816 7.85237,-21.73687 a 3.8840127,3.8818711 0 0 0 -2.224756,-7.149557 z"
       id="path3-5" />
  </g>
</svg>
