<?xml version="1.0" encoding="UTF-8" standalone="no"?>
<svg
   width="64"
   height="64"
   version="1.1"
   id="svg73"
   sodipodi:docname="xnconvert.svg"
   inkscape:version="1.4.2 (ebf0e940d0, 2025-05-08)"
   xmlns:inkscape="http://www.inkscape.org/namespaces/inkscape"
   xmlns:sodipodi="http://sodipodi.sourceforge.net/DTD/sodipodi-0.dtd"
   xmlns="http://www.w3.org/2000/svg"
   xmlns:svg="http://www.w3.org/2000/svg"
   xmlns:rdf="http://www.w3.org/1999/02/22-rdf-syntax-ns#"
   xmlns:cc="http://creativecommons.org/ns#"
   xmlns:dc="http://purl.org/dc/elements/1.1/">
  <metadata
     id="metadata77">
    <rdf:RDF>
      <cc:Work
         rdf:about="">
        <dc:format>image/svg+xml</dc:format>
        <dc:type
           rdf:resource="http://purl.org/dc/dcmitype/StillImage" />
      </cc:Work>
    </rdf:RDF>
  </metadata>
  <sodipodi:namedview
     pagecolor="#f5f7fa"
     bordercolor="#666666"
     borderopacity="1"
     objecttolerance="10"
     gridtolerance="10"
     guidetolerance="10"
     inkscape:pageopacity="0"
     inkscape:pageshadow="2"
     inkscape:window-width="1377"
     inkscape:window-height="886"
     id="namedview75"
     showgrid="false"
     inkscape:zoom="6.2890624"
     inkscape:cx="45.714286"
     inkscape:cy="42.057144"
     inkscape:window-x="0"
     inkscape:window-y="75"
     inkscape:window-maximized="0"
     inkscape:current-layer="g877"
     inkscape:document-rotation="0"
     inkscape:pagecheckerboard="0"
     inkscape:showpageshadow="2"
     inkscape:deskcolor="#d1d1d1" />
  <defs
     id="defs29" />
  <circle
     cx="32.516094"
     cy="31.877844"
     r="0"
     fill="url(#b)"
     stroke-width="1.5715"
     id="circle41"
     style="fill:url(#b)" />
  <g
     aria-label="GZ"
     transform="matrix(1.2212657,0,0,0.81882264,0.4960938,-0.1661539)"
     id="text93"
     style="font-weight:bold;font-size:11.5263px;line-height:1.25;font-family:sans-serif;-inkscape-font-specification:'sans-serif Bold';fill:#f2f2f2;stroke-width:0.288159" />
  <g
     id="g877"
     transform="matrix(1.1,0,0,1.1,-3.1845928,-3.2065454)">
    <path
       style="fill:#dfdfdf;fill-opacity:1;stroke-width:0.0855204"
       d="m 30.379226,57.537177 c -0.117587,-0.02034 -0.56016,-0.07959 -0.983484,-0.132341 -3.071611,-0.382834 -6.28499,-1.793935 -9.364469,-4.112219 C 18.104347,51.841985 16.699866,50.52514 11.98948,45.752517 8.6543277,42.373307 7.3383781,41.206417 5.3783187,39.890232 4.5128001,39.309039 4.0962237,38.87312 3.7873784,38.225448 3.1315721,36.850159 3.253513,35.052643 4.0845454,33.844809 4.2498316,33.604587 4.7208926,33.14466 5.1313583,32.822746 6.0106088,32.133176 8.4548438,29.707053 9.8854037,28.103916 L 10.895505,26.971959 8.301066,24.286943 C 6.7260745,22.656965 5.592555,21.411898 5.4163185,21.11832 4.4176707,19.454737 4.6848331,17.377713 6.076503,15.985809 7.4957652,14.566302 9.7826527,14.334007 11.410417,15.444 c 0.225567,0.153804 1.530024,1.443808 2.898803,2.866647 1.368777,1.422846 2.515911,2.586993 2.549182,2.586993 0.03324,0 0.424034,-0.292034 0.868375,-0.648973 0.444336,-0.35693 1.352124,-1.013105 2.017308,-1.458161 l 1.209416,-0.8092 -0.12715,-0.48742 c -0.06994,-0.268079 -0.469861,-1.755699 -0.888721,-3.305821 -0.666954,-2.468256 -0.76157,-2.905405 -0.76157,-3.518702 0,-3.2203966 3.394823,-5.2226816 6.263006,-3.6939579 0.707177,0.3769223 1.372037,1.0717295 1.730919,1.8088747 0.180735,0.3712291 0.59505,1.6765472 1.056114,3.3273612 0.41729,1.494066 0.780434,2.738205 0.806983,2.764753 0.02663,0.02654 0.580808,0.0013 1.231703,-0.05571 1.113318,-0.0978 2.964271,-0.07281 4.262165,0.05755 l 0.513116,0.05154 0.792836,-2.840487 c 0.43606,-1.562286 0.897167,-3.0577368 1.02469,-3.3232482 0.303082,-0.6310414 1.202898,-1.53711 1.828292,-1.8409906 1.756368,-0.8534275 3.599879,-0.5573212 4.956554,0.7961195 0.901794,0.8996381 1.365152,2.1157057 1.244822,3.2669653 -0.02916,0.284384 -0.440411,1.945688 -0.912597,3.691791 -0.47219,1.7461 -0.84767,3.219559 -0.834363,3.274355 0.0139,0.0548 0.543711,0.447582 1.178731,0.872871 0.634958,0.425272 1.518066,1.065098 1.962405,1.421812 0.444347,0.356712 0.834607,0.64858 0.867263,0.64858 0.033,0 1.128856,-1.106418 2.436012,-2.458708 1.307131,-1.352287 2.513951,-2.577407 2.68182,-2.722477 1.512672,-1.307331 3.823362,-1.302667 5.398857,0.01101 1.666825,1.389715 2.019111,3.759484 0.827119,5.564009 -0.152015,0.230161 -1.423108,1.603156 -2.824587,3.051098 l -2.548175,2.632625 1.048163,1.173152 c 1.457129,1.630876 3.817614,3.973701 4.708945,4.673699 1.291934,1.014618 1.718493,1.860654 1.727612,3.426596 0.01045,1.764037 -0.454622,2.598574 -2.063233,3.703885 -2.126217,1.460976 -3.150607,2.380653 -7.005711,6.289652 -3.253014,3.298485 -4.781191,4.777381 -6.019209,5.825098 -3.570061,3.021276 -6.867653,4.672194 -10.604522,5.309057 -0.770795,0.131383 -4.027258,0.247028 -4.532572,0.160938 z m 3.694372,-5.124618 c 6.328199,-0.835374 11.56378,-5.162895 13.534887,-11.187386 0.166349,-0.508339 0.302417,-0.960518 0.302417,-1.004861 0,-0.04925 -1.493989,-0.08063 -3.843393,-0.08063 h -3.843431 l -0.271923,0.510188 c -0.650291,1.220025 -1.992844,2.579281 -3.318168,3.359414 -1.391738,0.819233 -2.633447,1.173397 -4.33059,1.235178 -1.007219,0.03645 -1.33755,0.0145 -2.080902,-0.139075 -1.820489,-0.376373 -3.423837,-1.245625 -4.720317,-2.559165 -1.154446,-1.169634 -1.929693,-2.502064 -2.355876,-4.0491 -0.272047,-0.987516 -0.368157,-2.680689 -0.212567,-3.744775 0.550022,-3.761609 3.488434,-6.843673 7.27445,-7.630075 1.164149,-0.241811 3.039432,-0.180225 4.173939,0.137084 2.346255,0.656195 4.266896,2.123942 5.52397,4.221382 l 0.320375,0.534501 h 3.843854 3.843848 l -0.05611,-0.235178 C 47.733988,31.27005 47.203899,29.830438 46.88688,29.14425 c -1.447115,-3.131786 -4.069246,-5.884705 -7.193065,-7.551614 -4.606363,-2.45801 -10.37101,-2.531647 -15.024492,-0.191921 -3.266466,1.642348 -5.794142,4.194163 -7.422165,7.493056 -1.222007,2.476167 -1.734446,4.91147 -1.637211,7.780583 0.06996,2.065679 0.396269,3.696244 1.089885,5.446737 1.518957,3.833469 4.431065,6.989047 8.077828,8.753183 2.903205,1.40445 6.189817,1.948307 9.295947,1.538276 z"
       id="path5" />
  </g>
</svg>
