<?xml version="1.0" encoding="UTF-8" standalone="no"?>
<svg
   width="64"
   height="64"
   version="1.1"
   id="svg73"
   sodipodi:docname="xnview.svg"
   inkscape:version="1.4.2 (ebf0e940d0, 2025-05-08)"
   xmlns:inkscape="http://www.inkscape.org/namespaces/inkscape"
   xmlns:sodipodi="http://sodipodi.sourceforge.net/DTD/sodipodi-0.dtd"
   xmlns="http://www.w3.org/2000/svg"
   xmlns:svg="http://www.w3.org/2000/svg"
   xmlns:rdf="http://www.w3.org/1999/02/22-rdf-syntax-ns#"
   xmlns:cc="http://creativecommons.org/ns#"
   xmlns:dc="http://purl.org/dc/elements/1.1/">
  <metadata
     id="metadata77">
    <rdf:RDF>
      <cc:Work
         rdf:about="">
        <dc:format>image/svg+xml</dc:format>
        <dc:type
           rdf:resource="http://purl.org/dc/dcmitype/StillImage" />
      </cc:Work>
    </rdf:RDF>
  </metadata>
  <sodipodi:namedview
     pagecolor="#f5f7fa"
     bordercolor="#666666"
     borderopacity="1"
     objecttolerance="10"
     gridtolerance="10"
     guidetolerance="10"
     inkscape:pageopacity="0"
     inkscape:pageshadow="2"
     inkscape:window-width="1377"
     inkscape:window-height="886"
     id="namedview75"
     showgrid="false"
     inkscape:zoom="6.2890624"
     inkscape:cx="45.714286"
     inkscape:cy="42.057144"
     inkscape:window-x="0"
     inkscape:window-y="75"
     inkscape:window-maximized="0"
     inkscape:current-layer="g877"
     inkscape:document-rotation="0"
     inkscape:pagecheckerboard="0"
     inkscape:showpageshadow="2"
     inkscape:deskcolor="#d1d1d1" />
  <defs
     id="defs29" />
  <circle
     cx="32.516094"
     cy="31.877844"
     r="0"
     fill="url(#b)"
     stroke-width="1.5715"
     id="circle41"
     style="fill:url(#b)" />
  <g
     aria-label="GZ"
     transform="matrix(1.2212657,0,0,0.81882264,0.4960938,-0.1661539)"
     id="text93"
     style="font-weight:bold;font-size:11.5263px;line-height:1.25;font-family:sans-serif;-inkscape-font-specification:'sans-serif Bold';fill:#f2f2f2;stroke-width:0.288159" />
  <g
     id="g877"
     transform="matrix(1.1,0,0,1.1,-3.1845928,-3.2065454)">
    <path
       id="path4"
       style="fill:#dfdfdf;fill-opacity:1;stroke-width:0.0855204"
       d="m 40.667218,6.4445762 c -0.652879,0.00133 -1.32311,0.1603746 -1.981754,0.4804269 -0.625395,0.303883 -1.524539,1.2105914 -1.827619,1.8416306 -0.12751,0.2655147 -0.588852,1.7606753 -1.024908,3.3229393 l -0.792698,2.840516 -0.514455,-0.05202 c -1.297899,-0.130412 -3.148456,-0.155866 -4.261773,-0.05806 -0.650892,0.05715 -1.204543,0.08262 -1.231092,0.05604 -0.02655,-0.02652 -0.389426,-1.270366 -0.806717,-2.764429 C 27.765134,10.460804 27.350002,9.1559127 27.16927,8.784677 26.810392,8.0475318 26.144912,7.3519988 25.437737,6.9750765 22.569555,5.4463516 19.176196,7.4479493 19.176196,10.668347 c 0,0.6133 0.09371,1.050858 0.760669,3.519112 0.418862,1.550129 0.818863,3.038846 0.888789,3.30693 l 0.128095,0.48643 -1.211075,0.808716 c -0.665181,0.445053 -1.571443,1.102355 -2.01578,1.459287 -0.44434,0.356937 -0.835501,0.648581 -0.868772,0.648581 -0.03324,0 -1.18148,-1.163448 -2.550255,-2.58629 -1.368779,-1.422846 -2.673004,-2.712722 -2.898567,-2.86654 -1.6277552,-1.10999 -3.9134518,-0.879025 -5.3327189,0.54048 -1.3916678,1.391903 -1.6592334,3.468959 -0.6605837,5.132541 0.176234,0.293574 1.30956,1.538829 2.8845503,3.168807 l 2.5942983,2.686378 -1.0108923,1.131 c -1.4305687,1.603139 -3.8729558,4.028607 -4.7522091,4.718175 -0.4104684,0.321917 -0.881649,0.782687 -1.0469286,1.022907 -0.8310352,1.207837 -0.9540648,3.004592 -0.2982625,4.379877 0.3088413,0.647674 0.7258875,1.084276 1.5914049,1.665479 1.9600635,1.316172 3.2767079,2.483981 6.6118536,5.863191 4.710392,4.772612 6.114192,6.088049 8.041117,7.538668 3.079481,2.318287 6.292678,3.730791 9.364287,4.113636 0.423327,0.05248 0.865284,0.112107 0.982873,0.132168 0.505311,0.08599 3.763217,-0.03071 4.534013,-0.162115 3.736869,-0.636849 7.033328,-2.287426 10.603384,-5.308714 1.238035,-1.047712 2.766313,-2.526666 6.019331,-5.825154 3.855096,-3.909047 4.879976,-4.828651 7.0062,-6.289623 1.608636,-1.105289 2.074097,-1.939224 2.063827,-3.703252 -0.0092,-1.565937 -0.437563,-2.412415 -1.729534,-3.427034 -0.891319,-0.7 -3.251036,-3.043259 -4.708165,-4.674133 l -1.048923,-1.173028 2.548256,-2.63233 c 1.40149,-1.447944 2.672456,-2.820539 2.824501,-3.050699 1.191997,-1.804529 0.8401,-4.175211 -0.826738,-5.564925 -1.575474,-1.313561 -3.886091,-1.317342 -5.398769,-0.01012 -0.167874,0.145062 -1.373231,1.37012 -2.680378,2.722407 -1.307147,1.352289 -2.4035,2.458179 -2.436159,2.458179 -0.03221,0 -0.424374,-0.291862 -0.868757,-0.648574 -0.444327,-0.356718 -1.326746,-0.995984 -1.961743,-1.421265 -0.634962,-0.425281 -1.165735,-0.817983 -1.179041,-0.872775 -0.01361,-0.05479 0.362579,-1.528796 0.834736,-3.274896 0.472204,-1.746104 0.883083,-3.406885 0.912809,-3.69127 C 45.007262,9.8372989 44.543625,8.6213039 43.64183,7.7216663 42.793918,6.8757561 41.755332,6.4418767 40.667201,6.4445266 Z M 32.075611,19.696307 c 2.506609,0.0075 5.013304,0.573623 7.280444,1.713517 4.984762,2.506286 8.344568,7.32313 8.97795,12.871394 0.38218,3.347729 -0.347193,6.973674 -1.983766,9.858725 -2.643879,4.660722 -7.293601,7.733858 -12.569115,8.309351 -3.992785,0.43557 -8.023729,-0.617903 -11.356055,-2.968621 -1.051373,-0.741675 -3.039563,-2.725151 -3.76533,-3.757327 -1.966537,-2.796778 -2.936774,-5.677605 -3.050701,-9.050013 -0.09694,-2.869586 0.411698,-5.279607 1.63945,-7.778884 0.853798,-1.738047 1.672595,-2.889824 3.064713,-4.305811 0.915533,-0.931234 1.621308,-1.521136 2.608308,-2.179932 2.707976,-1.807491 5.931325,-2.721784 9.154102,-2.712399 z m -0.07212,6.297574 c -1.537306,0 -1.734103,0.01888 -2.506219,0.228197 -1.834112,0.497097 -3.363423,1.379704 -4.688123,2.704401 -1.332002,1.332004 -2.225646,2.884611 -2.696384,4.688154 -0.2911,1.115262 -0.36869,3.035455 -0.170159,4.17369 0.74727,4.284046 4.04679,7.609635 8.307349,8.371408 0.904796,0.161745 2.465327,0.167342 3.423027,0.01224 4.257306,-0.690777 7.638909,-4.069574 8.391428,-8.383684 0.196789,-1.128069 0.121282,-3.059457 -0.164136,-4.14767 -0.496647,-1.893918 -1.364855,-3.38064 -2.796459,-4.790235 -1.360516,-1.339606 -2.732694,-2.123917 -4.594063,-2.628329 -0.774008,-0.209748 -0.968173,-0.228199 -2.506222,-0.228199 z" />
  </g>
</svg>
