<?xml version="1.0" encoding="UTF-8" standalone="no"?>
<svg
   width="64"
   height="64"
   version="1.1"
   id="svg73"
   sodipodi:docname="xreader.svg"
   inkscape:version="1.4.2 (ebf0e940d0, 2025-05-08)"
   xmlns:inkscape="http://www.inkscape.org/namespaces/inkscape"
   xmlns:sodipodi="http://sodipodi.sourceforge.net/DTD/sodipodi-0.dtd"
   xmlns="http://www.w3.org/2000/svg"
   xmlns:svg="http://www.w3.org/2000/svg"
   xmlns:rdf="http://www.w3.org/1999/02/22-rdf-syntax-ns#"
   xmlns:cc="http://creativecommons.org/ns#"
   xmlns:dc="http://purl.org/dc/elements/1.1/">
  <metadata
     id="metadata77">
    <rdf:RDF>
      <cc:Work
         rdf:about="">
        <dc:format>image/svg+xml</dc:format>
        <dc:type
           rdf:resource="http://purl.org/dc/dcmitype/StillImage" />
      </cc:Work>
    </rdf:RDF>
  </metadata>
  <sodipodi:namedview
     pagecolor="#f5f7fa"
     bordercolor="#666666"
     borderopacity="1"
     objecttolerance="10"
     gridtolerance="10"
     guidetolerance="10"
     inkscape:pageopacity="0"
     inkscape:pageshadow="2"
     inkscape:window-width="1377"
     inkscape:window-height="886"
     id="namedview75"
     showgrid="false"
     inkscape:zoom="6.2890624"
     inkscape:cx="45.714286"
     inkscape:cy="38.559007"
     inkscape:window-x="20"
     inkscape:window-y="75"
     inkscape:window-maximized="0"
     inkscape:current-layer="g877"
     inkscape:document-rotation="0"
     inkscape:pagecheckerboard="0"
     inkscape:showpageshadow="2"
     inkscape:deskcolor="#d1d1d1" />
  <defs
     id="defs29" />
  <circle
     cx="32.516094"
     cy="31.877844"
     r="0"
     fill="url(#b)"
     stroke-width="1.5715"
     id="circle41"
     style="fill:url(#b)" />
  <g
     aria-label="GZ"
     transform="matrix(1.2212657,0,0,0.81882264,0.4960938,-0.1661539)"
     id="text93"
     style="font-weight:bold;font-size:11.5263px;line-height:1.25;font-family:sans-serif;-inkscape-font-specification:'sans-serif Bold';fill:#f2f2f2;stroke-width:0.288159" />
  <g
     id="g877"
     transform="matrix(1.1,0,0,1.1,-3.1845928,-3.2065454)">
    <path
       d="m 59.691892,38.516686 c -1.1451,-1.127478 -3.681938,-1.723939 -7.545089,-1.77679 -2.617375,-0.04023 -5.763258,0.201336 -9.075237,0.664408 -1.48234,-0.853161 -3.009978,-1.78434 -4.207926,-2.906791 -3.226413,-3.012501 -5.919294,-7.192748 -7.597934,-11.79077 0.108196,-0.430351 0.201328,-0.80786 0.289417,-1.192918 0,0 1.817062,-10.323527 1.336373,-13.8116823 -0.06797,-0.478169 -0.108207,-0.619105 -0.236595,-0.9890625 L 32.496345,6.3078923 C 32.003072,5.1678225 31.034138,3.9598003 29.514051,4.0252376 l -0.890915,-0.040303 h -0.02518 c -1.693742,0 -3.075413,0.8657437 -3.437818,2.1618472 -1.10232,4.0619652 0.03524,10.1398072 2.096413,18.0095482 l -0.528474,1.283545 c -1.474783,3.596377 -3.32205,7.217918 -4.955392,10.414134 l -0.211404,0.415255 c -1.716394,3.359806 -3.274229,6.211234 -4.683584,8.624757 l -1.459691,0.770099 c -0.105677,0.0554 -2.602276,1.379174 -3.188666,1.73151 -4.9704961,2.969707 -8.2648621,6.337052 -8.810986,9.01232 -0.1736648,0.850649 -0.042805,1.942898 0.8405758,2.448745 L 5.668289,59.56642 c 0.6115546,0.307033 1.2558336,0.460547 1.9177266,0.460547 3.5384904,0 7.6482714,-4.409278 13.3108594,-14.289866 6.535883,-2.12661 13.977784,-3.895853 20.501077,-4.872343 4.970502,2.798581 11.083568,4.743998 14.94168,4.743998 0.68454,0 1.275969,-0.06786 1.756661,-0.19126 0.739909,-0.196246 1.364055,-0.619158 1.744077,-1.19039 0.747465,-1.127492 0.900985,-2.680296 0.697123,-4.268334 -0.06027,-0.47063 -0.437903,-1.054504 -0.845607,-1.452144 z M 6.8184292,57.351717 c 0.6442779,-1.764209 3.2012478,-5.25236 6.9788208,-8.350423 0.236545,-0.191257 0.822966,-0.739916 1.359022,-1.248296 -3.951227,6.301838 -6.5962847,8.813502 -8.3378428,9.598719 z M 29.196974,5.8221645 c 1.13755,0 1.784345,2.8665288 1.837195,5.5568845 0.05534,2.687843 -0.573806,4.575373 -1.353985,5.972145 -0.646796,-2.066218 -0.958868,-5.325347 -0.958868,-7.4569986 0,0 -0.04778,-4.0720309 0.475658,-4.0720309 z M 22.520152,42.543411 c 0.792761,-1.419409 1.618242,-2.914339 2.46134,-4.502383 2.053634,-3.885788 3.35225,-6.923449 4.316153,-9.422539 1.92276,3.495701 4.31615,6.467929 7.129824,8.848738 0.349818,0.296964 0.722295,0.596454 1.112386,0.893427 -5.720473,1.13252 -10.6658,2.509156 -15.019703,4.182757 z m 36.071938,-0.31963 c -0.347329,0.216396 -1.346439,0.34477 -1.9882,0.34477 -2.071246,0 -4.635762,-0.946268 -8.229637,-2.489016 1.381684,-0.103202 2.647578,-0.153529 3.782611,-0.153529 2.078809,0 2.692891,0 4.726379,0.508368 2.033508,0.520932 2.058665,1.57294 1.708847,1.789381 z"
       fill="url(#c)"
       id="path9"
       style="fill:#dfdfdf;fill-opacity:1;stroke:none;stroke-width:0.885781;stroke-dasharray:none;stroke-opacity:0.6" />
  </g>
</svg>
