<?xml version="1.0" encoding="UTF-8" standalone="no"?>
<svg
   width="64"
   height="64"
   version="1.1"
   id="svg73"
   sodipodi:docname="zorin-os-upgrader.svg"
   inkscape:version="1.4.2 (ebf0e940d0, 2025-05-08)"
   xmlns:inkscape="http://www.inkscape.org/namespaces/inkscape"
   xmlns:sodipodi="http://sodipodi.sourceforge.net/DTD/sodipodi-0.dtd"
   xmlns="http://www.w3.org/2000/svg"
   xmlns:svg="http://www.w3.org/2000/svg"
   xmlns:rdf="http://www.w3.org/1999/02/22-rdf-syntax-ns#"
   xmlns:cc="http://creativecommons.org/ns#"
   xmlns:dc="http://purl.org/dc/elements/1.1/">
  <metadata
     id="metadata77">
    <rdf:RDF>
      <cc:Work
         rdf:about="">
        <dc:format>image/svg+xml</dc:format>
        <dc:type
           rdf:resource="http://purl.org/dc/dcmitype/StillImage" />
      </cc:Work>
    </rdf:RDF>
  </metadata>
  <sodipodi:namedview
     pagecolor="#f5f7fa"
     bordercolor="#666666"
     borderopacity="1"
     objecttolerance="10"
     gridtolerance="10"
     guidetolerance="10"
     inkscape:pageopacity="0"
     inkscape:pageshadow="2"
     inkscape:window-width="1377"
     inkscape:window-height="886"
     id="namedview75"
     showgrid="false"
     inkscape:zoom="6.2890624"
     inkscape:cx="45.714286"
     inkscape:cy="38.559007"
     inkscape:window-x="20"
     inkscape:window-y="75"
     inkscape:window-maximized="0"
     inkscape:current-layer="g877"
     inkscape:document-rotation="0"
     inkscape:pagecheckerboard="0"
     inkscape:showpageshadow="2"
     inkscape:deskcolor="#d1d1d1" />
  <defs
     id="defs29" />
  <circle
     cx="32.516094"
     cy="31.877844"
     r="0"
     fill="url(#b)"
     stroke-width="1.5715"
     id="circle41"
     style="fill:url(#b)" />
  <g
     aria-label="GZ"
     transform="matrix(1.2212657,0,0,0.81882264,0.4960938,-0.1661539)"
     id="text93"
     style="font-weight:bold;font-size:11.5263px;line-height:1.25;font-family:sans-serif;-inkscape-font-specification:'sans-serif Bold';fill:#f2f2f2;stroke-width:0.288159" />
  <g
     id="g877"
     transform="matrix(1.1,0,0,1.1,-3.1845928,-3.2065454)">
    <path
       id="rect3"
       style="fill:#dfdfdf;fill-opacity:1;stroke:none;stroke-width:0.930069;stroke-dasharray:none;stroke-opacity:0.6"
       d="m 8.7084585,4.8855472 c -2.1282789,0 -3.8419859,1.713706 -3.8419859,3.8419882 V 24.095481 c 0,2.128276 1.713707,3.841986 3.8419859,3.841986 H 24.076407 c 2.128277,0 3.841983,-1.71371 3.841983,-3.841986 V 8.7275354 c 0,-2.1282822 -1.713706,-3.8419882 -3.841983,-3.8419882 z m 31.1871225,0 c -2.128281,0 -3.841988,1.713706 -3.841988,3.8419882 V 24.095481 c 0,2.128276 1.713707,3.841986 3.841988,3.841986 h 15.367952 c 2.128269,0 3.841981,-1.71371 3.841981,-3.841986 V 8.7275354 c 0,-2.1282822 -1.713712,-3.8419882 -3.841981,-3.8419882 z M 8.7084585,36.072666 c -2.1282789,0 -3.8419859,1.71371 -3.8419859,3.841989 V 55.28261 c 0,2.128271 1.713707,3.841983 3.8419859,3.841983 H 24.076407 c 2.128277,0 3.841983,-1.713712 3.841983,-3.841983 V 39.914655 c 0,-2.128279 -1.713706,-3.841989 -3.841983,-3.841989 z m 38.8710975,0 c -1.878112,0 -3.390765,1.728268 -3.390765,3.874691 v 6.974429 h -6.487229 a 1.6468551,1.5257357 0 0 0 -1.164041,2.602735 l 9.87799,9.155383 a 1.6468551,1.5257357 0 0 0 2.328082,0 l 9.881263,-9.155383 A 1.6468551,1.5257357 0 0 0 57.460823,46.921786 H 50.97032 v -6.974429 c 0,-2.146423 -1.512649,-3.874691 -3.390764,-3.874691 z" />
  </g>
</svg>
